<?xml version="1.0" encoding="utf-8"?>
<!-- Generator: Adobe Illustrator 25.2.0, SVG Export Plug-In . SVG Version: 6.00 Build 0)  -->
<svg version="1.1" baseProfile="tiny" id="Layer_1" xmlns="http://www.w3.org/2000/svg" xmlns:xlink="http://www.w3.org/1999/xlink"
	 x="0px" y="0px" viewBox="0 0 1000 1000" overflow="visible" xml:space="preserve">
<path fill="#FFFFFF" stroke="#000000" stroke-miterlimit="10" d="M577.2,251.81c-0.48-4.52-0.57-19.96-0.04-28.48
	c0.54-8.51-3.72-18.1-5.86-30.34c-0.24-1.36-0.41-2.56-0.56-3.68c-1.09-8.71,0.28-11.33-3.14-27.18c-0.09-0.44-0.19-0.87-0.29-1.33
	c-1.71-7.71-6.79-12.23-12.23-14.87c-22.52,9.65-52.92,20.12-80.07,27.64c-3.6,17.89-1.12,58.56-1.12,58.56h-5.4
	c0.78,7.55,1.83,15,3.18,21.86c0.02,0.17,0.06,0.32,0.09,0.49c4.44,22.17,10.9,35.01,19.58,44.11c5.38,5.65,11.61,9.85,18.75,13.92
	c14.61,8.34,32.64,9.34,46.17,1.95c3.73-2.03,7.11-4.7,9.99-8.04C579.55,290.95,577.69,256.33,577.2,251.81z M565.77,172.56
	c-12.48-11.78-27.54-4.86-27.54-4.86l-0.8-6.52C556.2,157.99,562.19,166.37,565.77,172.56z M528.84,222.53
	c2-8.78,7.86-13.18,7.86-13.18s11.17,24.09,22.88,28.62c-1.6,5.06-32.62,2.13-32.62,2.13S526.85,231.31,528.84,222.53z
	 M486.13,186.93c6.19-11.98,21.96-20.46,34.24-21.96l0.9,7.59C521.26,172.56,498.31,173.26,486.13,186.93z M509.23,217.15h-0.01
	c-4.21,0.47-9.23-0.81-13.51-5.53c-7.72-8.52-3.46-21.83,7.99-24.69c11.45-2.87,22.8,2.44,21.29,11.91
	c-0.63,3.94-2.11,6.94-3.92,9.58c-1.24,1.81-2.65,3.44-4.07,5.06C515.47,215.26,512.62,216.77,509.23,217.15z M565.76,261.93
	c-0.27,0.63-8.94,20.5-20.51,21.28c-5.07,0.35-11.67-2.2-17.52-5.19c-4.95-2.54-9.36-5.4-11.87-7.11c0,0,0,0-0.01,0
	c-1.39-0.95-2.2-1.55-2.2-1.55s24.52-5.32,32.69-6.38c4.85-0.63,10.77-0.88,14.8-1c2.76-0.07,4.63-0.07,4.63-0.07
	S565.77,261.92,565.76,261.93z M561.89,202.61c-2.42,3.1-5.91,5.7-10.28,6.07c-1.21,0.1-2.32,0.09-3.33-0.03
	c-6.82-0.77-9.52-5.97-10.84-8.75c-1.53-3.19-1.8-17.29,11.5-20.23c13.32-2.92,16.37,8.52,16.83,12.91
	C566.02,194.92,564.64,199.1,561.89,202.61z"/>
<path fill="#FFFFFF" stroke="#000000" stroke-miterlimit="10" d="M471.67,253.97c-6.28,0.28-17.67-12.39-21.2-23.18
	c-3.52-10.81-6.01-23.08,0.24-26.89c0.83-0.52,1.8-0.86,2.96-1.05c5.73-0.93,10.28,3,13.09,6.45c0.09,1.84,0.2,3.7,0.31,5.58
	c0.36,5.67,0.82,11.48,1.42,17.24C469.27,239.65,470.31,247.1,471.67,253.97z"/>
<path fill="#FFFFFF" stroke="#000000" stroke-miterlimit="10" d="M473.88,232.11h-5.4c-0.6-5.76-1.06-11.57-1.42-17.24
	c-0.11-1.88-0.22-3.74-0.31-5.58c-2.81-3.45-7.36-7.38-13.09-6.45c-1.15,0.19-2.13,0.54-2.96,1.05c-2.69-8.25-3.49-18.08-3.73-23.43
	c5.94-1.24,12.35-2.77,19.06-4.5c2.93-0.76,5.94-1.57,8.97-2.41C471.41,191.44,473.88,232.11,473.88,232.11z"/>
<path fill="#FFFFFF" stroke="#000000" stroke-miterlimit="10" d="M574.75,136.57c-1.99,1.08-4.17,2.2-6.51,3.34
	c-0.68,0.34-1.39,0.68-2.11,1.02c-3.4,1.62-7.11,3.29-11.07,4.98c-22.52,9.65-52.92,20.12-80.07,27.64
	c-3.04,0.84-6.04,1.65-8.97,2.41c-6.71,1.74-13.13,3.26-19.06,4.5c-8.89,1.86-16.71,3.08-22.85,3.47
	c-33.53,2.14-59.35-11.44-59.35-11.44c-21.17-13.97,35.38-17.16,62.28-17.89l0.24,4.39l0.22,4.27c11.77,0.22,38.6-0.91,74.85-12.6
	c48.02-15.49,55.72-17.95,67.31-29.75c-1.88-2.91-4.64-7.16-7.93-12.06c-2.81-4.21-6.01-8.92-9.37-13.69
	c20.08-18.81,42.17-25.22,50.32-20.89C611.22,78.81,608.03,118.47,574.75,136.57z"/>
<path fill="#FFFFFF" stroke="#000000" stroke-miterlimit="10" d="M561.75,108.86c-29.32,9.58-94.31,34.56-122.64,45.55
	c-0.01,0-0.01,0-0.01,0c-2.03,0.01-6.38,0.04-12.04,0.2l-2.93-55.31c0,0,0.44-0.34,1.29-0.94c10.15,1.03,27.99-0.3,56.46-11.84
	c24.69-10,37.97-17.66,45.08-22.88c0.01,0,0.01,0,0.02,0c6.94,6.27,16.7,19.16,25.4,31.53C555.74,99.94,558.94,104.65,561.75,108.86
	z"/>
<path fill="#FFFFFF" stroke="#000000" stroke-miterlimit="10" d="M526.95,63.64c-7.11,5.22-20.4,12.88-45.08,22.88
	c-28.47,11.54-46.31,12.87-56.46,11.84C433.69,92.4,480.69,60.27,526.95,63.64z"/>
<path fill="#FFFFFF" stroke="#000000" stroke-miterlimit="10" d="M569.68,120.92c-11.59,11.79-19.3,14.26-67.31,29.75
	c-36.26,11.69-63.08,12.82-74.85,12.6l-0.22-4.27l-0.24-4.39c5.66-0.16,10.01-0.19,12.04-0.2c0,0,0,0,0.01,0
	c28.34-10.99,93.32-35.98,122.64-45.55C565.04,113.76,567.8,118.01,569.68,120.92z"/>
<path fill="#FFFFFF" stroke="#000000" stroke-miterlimit="10" d="M565.77,172.56c-12.48-11.78-27.54-4.86-27.54-4.86l-0.8-6.52
	C556.2,157.99,562.19,166.37,565.77,172.56z"/>
<path fill="#FFFFFF" stroke="#000000" stroke-miterlimit="10" d="M521.26,172.56c0,0-22.95,0.69-35.14,14.37
	c6.19-11.98,21.96-20.46,34.24-21.96L521.26,172.56z"/>
<path fill="#FFFFFF" stroke="#000000" stroke-miterlimit="10" d="M555.43,321.41c-0.56,1.38-4.16,5.01-8.86,9.34
	c0,0.01-0.01,0.02-0.02,0.03c-10.23,9.43-25.56,22.17-25.56,22.17s-0.1-0.1-0.29-0.28c-2.63-2.56-22.66-21.87-27.38-22.61
	c-0.5-0.08-0.99-0.26-1.46-0.52c-0.02-0.01-0.03-0.02-0.03-0.02c-2.26-1.24-4.17-4.3-5.47-6.9c1.01-2.55,1.81-5.02,2.46-7.38
	c5.51,3.32,18.37,9.85,35.9,10.83C539,326.86,549.42,323.89,555.43,321.41z"/>
<path fill="#FFFFFF" stroke="#000000" stroke-miterlimit="10" d="M556.25,314.44c-0.18,1.19-0.35,2.41-0.48,3.58
	c-0.15,1.16-0.26,2.31-0.32,3.37c0,0-0.01,0-0.01,0.01c-6.01,2.49-16.43,5.45-30.71,4.66c-17.53-0.99-30.39-7.52-35.9-10.83
	c1.9-6.88,2.42-12.78,2.51-16.67c5.38,5.65,11.61,9.85,18.75,13.92C524.69,320.83,542.72,321.83,556.25,314.44z"/>
<path fill="#FFFFFF" stroke="#000000" stroke-miterlimit="10" d="M495.71,335.1l-4.1,6.15l-7.08,10.63c0,0,0.27-9.86-3.19-13.05
	c-1.32-1.22-2.45-3.07-3.19-5.06c-0.41-1.13-0.72-2.31-0.85-3.44c-0.25-2.09,0.04-4.05,1.11-5.33c2.67-3.2,6.13-6.66,6.13-6.66
	s0.67,1.96,1.83,4.28c1.3,2.6,3.2,5.66,5.47,6.9c0,0,0.01,0.01,0.03,0.02C492.15,329.77,494.59,331.74,495.71,335.1z"/>
<path fill="#FFFFFF" stroke="#000000" stroke-miterlimit="10" d="M501.83,387.27c-0.15-4.8-0.5-9.96-1.12-15.09
	c-4.64-3.82-16.62-5.63-20.55-7.61c-4.37-2.2-7.59-7.58-8.79-8.98c-1.2-1.4-3.6-6.59-2.8-11.18c0.8-4.59,9.59-10.65,9.59-10.65
	c-0.41-1.13-0.72-2.31-0.85-3.44l-17.25,6.47c0,0,0.34,1.75,0.77,4.68c1.53,10.3,4.26,35.25-2.37,50.58
	c-0.02,1.24-0.04,2.82-0.07,4.65c2.74-2.12,6.07-5.17,7.64-8.38c2.74-5.59,0-11.78,0-11.78c4.54-1.19,8.74-4.58,15.32,1.4
	c6.59,5.99,6.74,23.16,7.26,27.15c0.53,3.99-13.65,10.38-13.65,10.38s-7.85-8.39-11.21-8.78c-1.7-0.2-3.77-0.3-5.4-0.35
	c-0.01,7.49-0.01,16.46,0,25c0.04,16.13,0.11,30.7,0.11,30.7s0.53,0.17,1.47,0.38c4.93,1.13,21.12,3.47,30.73-11.29
	C502.1,433.59,502.37,404.84,501.83,387.27z M480.16,452.62c-4.8,2.2-11.19,3.99-13.59,1.99c-0.92-0.77,2.99-9.78,5.79-12.98
	c2.79-3.19,3.43-13.17,7.8-10.37c4.38,2.79,11.74,6.9,12.96,9.98C494.34,444.31,484.97,450.42,480.16,452.62z"/>
<path fill="#FFFFFF" stroke="#000000" stroke-miterlimit="10" d="M585.26,456.23c0.11,1.41,0.3,3.62,0.59,6.03
	c-2.11,0.53-6.28,1.09-14.49,1.03c-15.17-0.09-28.15-14.47-30.34-26.44c-1.12-6.13-1.25-19.93-1.03-34.4l12.02-4.73l13.57,17.76
	l0.39-24.75l14.57-8.59l-16.63-8.78l-3.53-21.75l-11.12,16.67l-8.33-0.62c0.03-0.86,0.07-1.69,0.09-2.48
	c0.44-13.31,5.16-21.16,7.75-24.48l6.56,11.18c0,0,3.65-12.78,5.32-21.9c4.66,0.93,14.5,3.24,18.69,6.82
	c-0.02,0.78-0.04,1.56-0.07,2.32c-0.88,40.29,5.66,52.81,5.66,52.81l0.18,4.02c0,0,0,0,0,0.01l0.87,20.32
	c0,0-12.03,14.77-15.02,15.37c-3,0.6-11.38-2.2-10.58,3.19c0.8,5.4,7.39,4,5.59,9.59c-1.79,5.59-7.38,9.12-3.79,11.04
	C565.02,457,577.16,457.69,585.26,456.23z"/>
<path fill="#FFFFFF" stroke="#000000" stroke-miterlimit="10" d="M587.69,455.69c-0.75,0.21-1.57,0.39-2.43,0.55
	c-8.1,1.46-20.24,0.76-23.07-0.76c-3.6-1.93,1.99-5.45,3.79-11.04c1.8-5.59-4.79-4.19-5.59-9.59c-0.8-5.39,7.58-2.59,10.58-3.19
	c2.99-0.59,15.02-15.37,15.02-15.37L587.69,455.69z"/>
<path fill="#FFFFFF" stroke="#000000" stroke-miterlimit="10" d="M560.65,329.98c-1.67,9.12-5.32,21.9-5.32,21.9l-6.56-11.18
	l-3.29-5.6c-0.67-1.14,0.28-3.06,1.08-4.32c0.01-0.01,0.02-0.02,0.02-0.03c4.7-4.33,8.3-7.96,8.86-9.34c0-0.01,0.01-0.01,0.01-0.01
	c2.02-0.83,3.53-1.61,4.54-2.17c0.82,0.73,1.39,1.87,1.47,3.64C561.52,324.49,561.18,327.04,560.65,329.98z"/>
<path fill="#FFFFFF" stroke="#000000" stroke-miterlimit="10" d="M667.64,540.05c-3.19,3.99-35.12,7.45-35.12,7.45
	s-0.02-0.13-0.08-0.39c-0.71-3.89-6.68-35.86-12.16-48.84c-5.86-13.84-16.51-23.69-17.57-29.55c-1.02-5.62-3.27-51.01-17.58-72.75
	c0-0.01,0-0.01,0-0.01l-0.18-4.02c0,0-6.54-12.52-5.66-52.81c6.46,4.29,29.78,21.65,45.25,57.28c18.1,41.71,18.37,47.3,24.75,55.02
	c6.38,7.72-1.06,13.31,3.72,33.79c4.7,20.1,12.47,31.75,14.52,53.54C667.56,539.17,667.61,539.61,667.64,540.05z"/>
<path fill="#FFFFFF" stroke="#000000" stroke-miterlimit="10" d="M674.56,556.68c-1.44-12.54-2.67-17.76-7.05-17.93
	c0.04,0.43,0.09,0.86,0.12,1.3c-3.19,3.99-35.12,7.45-35.12,7.45s-0.02-0.13-0.08-0.39l-2.72,1.72c0,0,7.72,42.84,10.52,49.49
	c1.83,0.63,5.59,0.65,10.09,0.25c6.76-0.59,15.2-2.12,21.26-3.94c3.67-1.1,6.47-2.31,7.5-3.48
	C682.95,586.75,676.16,570.51,674.56,556.68z M653.22,587.14c-5.52,0-9.98-4.47-9.98-9.98c0-5.51,4.46-9.98,9.98-9.98
	c5.51,0,9.98,4.47,9.98,9.98C663.2,582.67,658.73,587.14,653.22,587.14z"/>
<path fill="#FFFFFF" stroke="#000000" stroke-miterlimit="10" d="M458.45,392.07c-0.02,1.24-0.04,2.82-0.07,4.65
	c-0.02,2.72-0.03,6-0.04,9.64c-0.01,7.49-0.01,16.46,0,25c-7.25,9.42-20.71,27.8-23.31,37.62c-3.6,13.57-9.58,15.57-17.97,19.16
	c-8.38,3.6-29.94,21.16-49.9,26.75c-0.02,0.01-0.04,0.01-0.07,0.02c3.81-4.59,9.3-12.85,8.05-21.18
	c-1.59-10.64-11.27-15.6-14.11-16.85c5.76-0.26,10.79-0.62,13.71-1.52c10.38-3.19,21.95-21.16,32.34-39.12
	c10.38-17.97,22.76-57.88,28.35-71.86c4.51-11.29,19.72-19.97,25.39-22.89C462.36,351.79,465.08,376.73,458.45,392.07z"/>
<path fill="#FFFFFF" stroke="#000000" stroke-miterlimit="10" d="M375.15,493.73c-1.59-10.64-11.27-15.6-14.11-16.85
	c-13.63,0.62-31.38,0.67-35.17,5.97h-0.01c-0.29,0.4-0.49,0.83-0.62,1.29c7.19,1.2,21.96-1.99,25.16,14.77
	c-5.2,14.37-18.37,19.16-18.37,19.16s0.83,0.13,2.35,0.26h0.01c5.01,0.43,17.45,0.83,32.7-3.43
	C370.91,510.32,376.4,502.07,375.15,493.73z M358.12,487.4c-3.09,0-5.59-1.62-5.59-3.62c0-2,2.5-3.63,5.59-3.63
	c3.08,0,5.59,1.62,5.59,3.63C363.71,485.78,361.2,487.4,358.12,487.4z"/>
<path fill="#FFFFFF" stroke="#000000" stroke-miterlimit="10" d="M587.94,472.97c-6.71,1.78-16.42,3.02-27.55,3.86
	c-2.72,0.21-5.52,0.39-8.38,0.56c-5.54,0.31-11.32,0.55-17.17,0.72c-4.12-2.77-9.63-4.48-16.45-4.32l0.65-28.77
	c0.1,0.01,0.2,0.01,0.3,0.01c5.88,0,10.65-4.76,10.65-10.64c0-5.82-4.67-10.55-10.47-10.65l0.68-30.07h0.24
	c5.58,0,10.1-4.52,10.1-10.11c0-5.5-4.4-9.98-9.88-10.1l0.39-17.2l24.43-21.14l3.29,5.6c-2.59,3.33-7.31,11.18-7.75,24.48
	c-0.02,0.78-0.06,1.61-0.09,2.48l-12.09-0.88l11.64,15.03c-0.06,1.59-0.1,3.21-0.13,4.87l-9.11,19.22l8.75-3.45
	c-0.22,14.47-0.09,28.27,1.03,34.4c2.2,11.97,15.18,26.35,30.34,26.44c8.21,0.06,12.39-0.5,14.49-1.03
	C586.3,466.02,586.99,470.31,587.94,472.97z"/>
<path fill="#FFFFFF" stroke="#000000" stroke-miterlimit="10" d="M521.05,356.24l-0.39,17.2h-0.22c-5.59,0-10.11,4.52-10.11,10.1
	c0,5.51,4.4,9.99,9.88,10.11l-0.68,30.07h-0.18c-5.88,0-10.64,4.77-10.64,10.65c0,5.78,4.59,10.47,10.34,10.63l-0.65,28.77
	c-0.44,0-0.9,0.02-1.34,0.04c-6.99,0.39-12.84,2.11-17.3,4.66h-0.01c-5.94-0.02-11.54-0.09-16.59-0.17
	c-4.38-0.08-8.36-0.16-11.77-0.24c-8.05-0.19-13.03-0.38-13.03-0.38l0.28-2.72l1.3-12.54c4.93,1.13,21.12,3.47,30.73-11.29
	c11.45-17.56,11.72-46.31,11.18-63.88c-0.15-4.8-0.5-9.96-1.12-15.09c-1.47-12.2-4.35-24.24-9.09-30.94l4.1-6.15L521.05,356.24z"/>
<path fill="#FFFFFF" stroke="#000000" stroke-miterlimit="10" d="M497.58,507.51c-5.36-0.25-10.17-0.69-14.45-1.25v-27.93
	c5.05,0.08,10.65,0.15,16.59,0.17c-6.53,3.73-10.1,9.24-10,15.04C489.82,498.85,492.81,503.84,497.58,507.51z"/>
<path fill="#FFFFFF" stroke="#000000" stroke-miterlimit="10" d="M471.36,478.09v26.09c-10.25-2.33-15.5-5.08-16.82-5.84v-0.01
	c-0.28-1.03-0.41-1.62-0.41-1.62c-0.18-3.76-0.57-13.96,0.07-18.2c0.38-2.52,2.41-3.35,4.42-3.52l-0.28,2.72
	C458.34,477.71,463.31,477.9,471.36,478.09z"/>
<path fill="#FFFFFF" stroke="#000000" stroke-miterlimit="10" d="M592.72,500.52c0,0-1.77,0.32-5.41,0.84
	c-5.13,0.74-14,1.88-26.93,3.09v-27.62c11.13-0.84,20.84-2.08,27.55-3.86C598.42,470.92,592.72,500.52,592.72,500.52z"/>
<path fill="#FFFFFF" stroke="#000000" stroke-miterlimit="10" d="M543.62,493.73c0,4.59-2.45,9.06-6.46,12.6
	c-4.97,4.39-12.35,7.36-20.49,7.36c-7.44,0-14.19-2.41-19.09-6.18c-4.77-3.67-7.76-8.66-7.86-13.98c-0.1-5.8,3.47-11.31,10-15.04
	h0.01c4.47-2.55,10.32-4.27,17.3-4.66c0.45-0.02,0.91-0.04,1.34-0.04c6.82-0.16,12.33,1.56,16.45,4.32
	C540.59,481.97,543.62,487.9,543.62,493.73z"/>
<path fill="#FFFFFF" stroke="#000000" stroke-miterlimit="10" d="M509.67,758.36c0.41,4.33,0.83,8.57,1.23,12.56
	c-7.57,9.23-19.23,21.87-23.41,22.23c-3.18,0.27-10.52-7.66-17.05-15.65c-0.4-5.5-0.75-11.37-1.04-17.26
	c-0.03-0.55-0.07-1.1-0.1-1.65c-1.01-20.13-1.51-40.14-1.8-46.09c-0.53-11.18-7.99-25.82-8.78-29.28
	c-0.35-1.52,1.36-5.64,3.34-10.89c6.54,2.95,16.53,6.4,27.66,6.62c8.94,0.18,16.21-3.46,21.46-7.47c0.67,2.99,1.16,5.82,1.3,8.28
	c0.53,9.85-2.92,10.91-5.32,26.07c-1.19,7.54,0.44,30.23,2.39,51.16C509.59,757.47,509.64,757.91,509.67,758.36z"/>
<path fill="#FFFFFF" stroke="#000000" stroke-miterlimit="10" d="M505.03,645.7c0.39,6.19,4.1,16.74,6.15,25.79
	c-5.25,4.01-12.52,7.65-21.46,7.47c-11.13-0.22-21.12-3.67-27.66-6.62c2.55-6.7,5.59-15.21,5.44-22.39
	c-0.27-12.77-3.19-109.65,1.86-122.96c0,0,33.53,7.64,41.92,27.91c-1.96,3.98-3.66,8.19-4.66,12.02
	C503.43,579.17,504.5,637.46,505.03,645.7z"/>
<path fill="#FFFFFF" stroke="#000000" stroke-miterlimit="10" d="M483.14,478.32v27.93c-4.49-0.59-8.4-1.31-11.77-2.08v-26.09
	C474.78,478.16,478.76,478.24,483.14,478.32z"/>
<path fill="#FFFFFF" stroke="#000000" stroke-miterlimit="10" d="M560.38,476.83v27.62c-2.62,0.25-5.41,0.49-8.38,0.74v-27.8
	C554.86,477.22,557.66,477.04,560.38,476.83z"/>
<path fill="#FFFFFF" stroke="#000000" stroke-miterlimit="10" d="M552.01,477.39v27.8c-4.55,0.38-9.49,0.77-14.85,1.14
	c4.01-3.54,6.46-8.01,6.46-12.6c0-5.84-3.02-11.76-8.78-15.62C540.68,477.94,546.46,477.71,552.01,477.39z"/>
<path fill="#FFFFFF" stroke="#000000" stroke-miterlimit="10" d="M587.31,501.36c-2.26,10.08-9.87,27.35-9.74,30.96
	c-25.46,4.26-36.93,18.17-40.76,24.13c-5.95-9.7-12.2-17.58-13.68-17.71c-2-0.17-7.55,7.43-11.85,16.17
	c-8.39-20.27-41.92-27.91-41.92-27.91c-8.62-7.75-13.44-23.55-14.82-28.66c1.32,0.75,6.57,3.51,16.82,5.84
	c3.37,0.77,7.28,1.49,11.77,2.08c4.28,0.56,9.08,1.01,14.45,1.25c4.89,3.77,11.65,6.18,19.09,6.18c8.13,0,15.51-2.97,20.49-7.36
	c5.36-0.37,10.3-0.76,14.85-1.14c2.97-0.25,5.76-0.49,8.38-0.74C573.31,503.24,582.18,502.1,587.31,501.36z"/>
<path fill="#FFFFFF" stroke="#000000" stroke-miterlimit="10" d="M600.63,660.18c-3.61,4.31-10.82,10.26-23.06,10.01
	c-12.4-0.26-22.97-5.54-28.89-9.24c1.66-7.44,4.4-15.92,5.05-20.31c1.06-7.19-3.99-41.25-5.05-56.16
	c-0.53-7.37-6.05-18.57-11.87-28.05c3.83-5.96,15.3-19.87,40.76-24.13c0.15,4.27,5.97,16.51,10.37,38.33
	c4.39,21.83,4.39,61.48,4.92,68.4C593.21,643.73,597.59,652.67,600.63,660.18z"/>
<path fill="#FFFFFF" stroke="#000000" stroke-miterlimit="10" d="M517.8,761.48c-0.09,0.73-2.93,4.63-6.9,9.44
	c-0.4-3.99-0.82-8.22-1.23-12.56C513.49,759.11,517.96,760.24,517.8,761.48z"/>
<path fill="#FFFFFF" stroke="#000000" stroke-miterlimit="10" d="M470.45,777.5c-6.53-7.97-12.26-16.03-12.26-16.03
	s0.24-5.47,11.22-1.23C469.7,766.14,470.04,772,470.45,777.5z"/>
<path fill="#FFFFFF" stroke="#000000" stroke-miterlimit="10" d="M521.44,764.93c-3.42,4.35-7.1,8.79-9.89,12.28
	c-1.22,1.53-2.27,2.89-3.06,3.96c-5.6,7.72-11.92,17.83-21,17.83c-3.86,0-9.93-4.29-16.04-9.76c-2.25-2.02-4.51-4.2-6.65-6.38
	c-5.69-5.78-10.63-11.58-12.73-14.46c-5.06-6.92-6.65-16.77,0-18.91c4.7-1.5,12.86,5.1,17.24,9.11c0.03,0.55,0.07,1.1,0.1,1.65
	c-10.99-4.23-11.22,1.23-11.22,1.23s5.73,8.05,12.26,16.03c6.53,7.99,13.87,15.92,17.05,15.65c4.18-0.36,15.84-13,23.41-22.23
	c3.96-4.82,6.81-8.71,6.9-9.44c0.16-1.23-4.31-2.36-8.13-3.11c-0.03-0.45-0.08-0.9-0.12-1.36c2.52-0.41,5.44-1.22,7.46-2.72
	c4.26-3.19,10.3-8.51,13.53-5.59C532.29,750.29,527.28,757.47,521.44,764.93z"/>
<path fill="#FFFFFF" stroke="#000000" stroke-miterlimit="10" d="M530.54,856.22c-24.25,10.38-57.18,2.67-57.18,2.67
	s0.16-0.38,0.39-1.01v-0.01c0.77-2,2.45-6.53,3.07-9.36c0.66-3.1-8.79-49.86-12.02-65.64c2.14,2.18,4.4,4.37,6.65,6.38
	c6.1,5.47,12.17,9.76,16.04,9.76c9.08,0,15.4-10.11,21-17.83c0.78-1.08,1.84-2.43,3.06-3.96c2.79-3.48,6.47-7.93,9.89-12.28
	c0.94,12.53,5.43,70.97,8.93,90.42C530.42,855.65,530.48,855.94,530.54,856.22z"/>
<path fill="#FFFFFF" stroke="#000000" stroke-miterlimit="10" d="M535.63,861.64c0,2.45-3.43,4.44-8.53,5.91
	c-6.16,1.78-14.77,2.82-22.68,3.04c-8.73,0.25-18.47-0.1-25.03-1.74c-4.3-1.06-7.24-2.69-7.63-5.05c-0.47-2.82,0.66-4.73,1.99-5.93
	c-0.24,0.63-0.39,1.01-0.39,1.01s32.93,7.72,57.18-2.67c-0.06-0.28-0.11-0.57-0.17-0.87C532.81,856.52,535.63,858.56,535.63,861.64z
	"/>
<path fill="#FFFFFF" stroke="#000000" stroke-miterlimit="10" d="M524.25,905.52c-16.16,16.37-52.6,14.77-52.6,14.77
	s-5.88-11.58-5.69-18.76c0.17-5.95,10.01-25.93,13.42-32.68c6.56,1.64,16.31,1.98,25.03,1.74c7.91-0.21,16.52-1.25,22.68-3.04
	C530.48,874.73,536.92,892.7,524.25,905.52z"/>
<path fill="#FFFFFF" stroke="#000000" stroke-miterlimit="10" d="M606.5,772.86c0.01,0.54-0.28,1.04-0.76,1.28
	c-2.73,1.43-6.18,3.14-9.74,4.79v0.01c-7.45,3.48-15.4,6.74-18.44,6.74c-3.12,0-12.4-3.73-20.91-7.46
	c-6.1-2.67-11.81-5.34-14.54-6.63v-0.01c0.42-4.77,2.77-6.29,3.87-6.74c0.33-0.14,0.69-0.13,1.03-0.01l5.86,2.21l3.79,1.42
	c0,0,18.91,7.1,20.9,7.71c1.99,0.59,18.31-6.32,18.31-6.32l8.57-3.59c0.93-0.39,1.96,0.28,1.98,1.29L606.5,772.86z"/>
<path fill="#FFFFFF" stroke="#000000" stroke-miterlimit="10" d="M596.05,697.87c-1,8.98-0.49,51.39-0.18,72
	c0,0-16.32,6.91-18.31,6.32c-1.99-0.6-20.9-7.71-20.9-7.71v-65.29c0-4.52-7.45-23.96-9.04-30.61c-0.63-2.59,0-6.9,1.06-11.63
	c5.91,3.7,16.49,8.98,28.89,9.24c12.24,0.25,19.45-5.7,23.06-10.01c1.47,3.61,2.62,6.88,2.88,9.21
	C604.3,676.58,597.38,685.89,596.05,697.87z"/>
<path fill="#FFFFFF" stroke="#000000" stroke-miterlimit="10" d="M606.7,783.29c0,0-2.93,87.56-3.14,88.36
	c-0.2,0.81-16.82-15.17-24.54-14.64c-7.73,0.54-31.15,21.03-31.15,21.03s0.54-79.05-4.26-95.55c-1.4-4.8-1.72-8.32-1.5-10.9
	c2.73,1.29,8.43,3.96,14.54,6.63c8.51,3.73,17.79,7.46,20.91,7.46c3.04,0,10.99-3.26,18.44-6.74v-0.01c3.91-1.81,7.68-3.7,10.52-5.2
	L606.7,783.29z"/>
<path fill="#FFFFFF" stroke="#000000" stroke-miterlimit="10" d="M603.56,871.65l-1.12,9.59l-1.61-1.11
	c-0.01-0.01-0.01-0.01-0.01-0.01l-20.47-14.06l-27.68,17.83l-0.92-1.12v-0.01l-3.88-4.72c0,0,23.42-20.5,31.15-21.03
	C586.74,856.49,603.36,872.46,603.56,871.65z"/>
<path fill="#FFFFFF" stroke="#000000" stroke-miterlimit="10" d="M600.84,912.92c0,0,2.4,19.96-26.47,18.89
	c-28.86-1.06-22.77-18.37-22.77-20.5c0-2.13-3.19,0.8-5.86-5.59c-0.03-0.08-0.07-0.16-0.08-0.25c4.21-17.01,37.34-30.5,37.34-30.5
	s32.47,28.35,34.33,33.41C619.21,913.44,600.84,912.92,600.84,912.92z"/>
<path fill="#FFFFFF" stroke="#000000" stroke-miterlimit="10" d="M617.34,908.39c-1.86-5.06-34.33-33.41-34.33-33.41
	s-33.13,13.49-37.34,30.5c-1.61-4.66,3.09-16.17,6.08-22.7l0.92,1.12l27.68-17.83l20.47,14.06c0,0,0,0,0.01,0.01
	C605.09,885.79,616.48,901.47,617.34,908.39z"/>
<path fill="#FFFFFF" stroke="#000000" stroke-miterlimit="10" d="M690.53,649.82c-1.92-2.81-4.93-0.93-7.2,1.25
	c-2.12-3.45-6.78,0.41-9.29,2.92c-0.22-8.53-10.26-5.36-10.26-5.36c-5.59-3.6-4.39-9.79-6.59-12.98
	c-0.4-16.57-15.78-16.22-15.78-16.22c5.38-7.17,11.19-14.52,11.19-14.52l-2.28-6.35c6.76-0.59,15.2-2.12,21.26-3.94
	c4.4,11.07,15.41,34.26,16.76,38.63C690.13,639.05,692.53,648.23,690.53,649.82z"/>
<path fill="#FFFFFF" stroke="#000000" stroke-miterlimit="10" d="M690.53,649.82c-1.99,1.6-7.78,15.77-10.27,18.38
	c-1.29,1.34-3.45,1.84-5.25,1.99c2.74-4.86,9.14-16.78,9.14-16.78c-0.19-1.01-0.47-1.77-0.82-2.34
	C685.6,648.89,688.62,647.01,690.53,649.82z"/>
<path fill="#FFFFFF" stroke="#000000" stroke-miterlimit="10" d="M641.03,635.25c0,0,1.6,8.39,1.47,16.37
	c-0.12,7.99-2.06,8.98-4.07,7.78c-1.99-1.2-2.39-7.78-2.39-7.78s-4.2-15.97-3.6-18.96c0.28-1.37,4.48-7.24,8.97-13.23
	c0,0,15.38-0.35,15.78,16.22C650.41,639.25,641.03,635.25,641.03,635.25z"/>
<path fill="#FFFFFF" stroke="#000000" stroke-miterlimit="10" d="M674.05,654c0.02,0.55,0,1.15-0.08,1.81l-4.37,17.49l-0.22,0.87
	c0,0-1.71,0.2-4.16,0.37c-4.02,0.28-10.01,0.49-13.61-0.37c-5.59-2.4-6.79-8.39-5.79-9.18c1-0.8,9.16,3.2,9.16,3.2l7.4-1.8
	c0,0,2.2-15.57,1.4-17.76C663.79,648.63,673.82,645.46,674.05,654z"/>
<path fill="#FFFFFF" stroke="#000000" stroke-miterlimit="10" d="M684.15,653.42c0,0-6.4,11.92-9.14,16.78
	c-0.47,0.84-0.84,1.47-1.04,1.79c-0.68,1.06-2.59,1.33-4.37,1.32l4.37-17.49c0.08-0.66,0.1-1.27,0.08-1.81
	c2.51-2.51,7.17-6.37,9.29-2.92C683.68,651.65,683.96,652.41,684.15,653.42z"/>
<path fill="#FFFFFF" stroke="#000000" stroke-miterlimit="10" d="M332.03,518.08c0,0,0.83,0.13,2.35,0.26L314.2,527
	c0,0-2.92,1.33-8.51,3.4c-1.01,0.38-2.3,1.05-3.76,1.89c-5.51-0.4-9.81-3.44-9.82-5.86c-5.33-0.02-7.18-5.03-7.86-6.48
	c-4.42-0.39-3.84-2.53-5.05-5.29c-8.4-1.71-9.18-5.24-9.31-8.3c1.95-0.87,3.07-1.46,3.07-1.46s15.7-9.59,17.56-12.77
	c1.86-3.18-2.67,1.05-14.37-0.49c-11.72-1.56-11.18-13.62-7.99-13.77c3.19-0.15,4.52,2.27,7.72,3.45c3.19,1.18,17.3,1.22,24.48,0.16
	c7.19-1.06,19.16,3.72,19.16,3.72l6.34-2.35c-0.29,0.4-0.49,0.83-0.62,1.29c7.19,1.2,21.96-1.99,25.16,14.77
	C345.2,513.29,332.03,518.08,332.03,518.08z"/>
<path fill="#FFFFFF" stroke="#000000" stroke-miterlimit="10" d="M279.19,514.67c-6.64,2.73-29.01,7.37-36.05,8.08
	c-0.31,0.03-0.64,0.04-0.96,0.04c-7.8,0.04-16.73-8.33-0.9-9.09c12.03-0.58,23.35-4.98,28.61-7.32
	C270.01,509.42,270.79,512.95,279.19,514.67z"/>
<path fill="#FFFFFF" stroke="#000000" stroke-miterlimit="10" d="M284.24,519.95c-5.49,2.17-16.78,6.41-26.47,8.62
	c-2.05,0.46-4.02,0.84-5.85,1.09c-9.41,1.27-10.21-3.62-9.76-6.88c0.32,0,0.65-0.01,0.96-0.04c7.04-0.71,29.41-5.34,36.05-8.08
	C280.4,517.42,279.82,519.56,284.24,519.95z"/>
<path fill="#FFFFFF" stroke="#000000" stroke-miterlimit="10" d="M292.1,526.44c-4.09,2.07-10.51,5.16-16.41,7.38
	c-4.24,1.61-8.22,2.77-10.86,2.77c-5.2,0-6.69-4.45-7.06-8.01c9.69-2.22,20.98-6.45,26.47-8.62
	C284.92,521.41,286.77,526.42,292.1,526.44z"/>
<path fill="#FFFFFF" stroke="#000000" stroke-miterlimit="10" d="M301.93,532.3c-6.68,3.8-17.17,10.97-22.74,8.66
	c-3.81-1.58-4.03-4.69-3.49-7.13c5.9-2.22,12.32-5.31,16.41-7.38C292.12,528.86,296.42,531.89,301.93,532.3z"/>
<polygon fill="#FFFFFF" stroke="#000000" stroke-miterlimit="10" points="580.55,382.14 565.97,390.74 565.58,415.49 552.01,397.72 
	539.99,402.45 531.24,405.9 540.35,386.68 541.83,383.54 540.48,381.81 528.84,366.78 540.93,367.66 549.26,368.28 560.38,351.61 
	563.91,373.36 "/>
<path fill="#FFFFFF" stroke="#000000" stroke-miterlimit="10" d="M500.71,372.19c-4.64-3.82-16.62-5.63-20.55-7.61
	c-4.37-2.2-7.59-7.58-8.79-8.98c-1.2-1.4-3.6-6.59-2.8-11.18c0.8-4.59,9.59-10.65,9.59-10.65c0.74,1.99,1.87,3.84,3.19,5.06
	c3.46,3.19,3.19,13.05,3.19,13.05l7.08-10.63C496.36,347.95,499.24,359.99,500.71,372.19z"/>
<path fill="#FFFFFF" stroke="#000000" stroke-miterlimit="10" d="M474.95,415.49c0,0-7.85-8.39-11.21-8.78
	c-1.7-0.2-3.77-0.3-5.4-0.35c0.01-3.64,0.02-6.92,0.04-9.64c2.74-2.12,6.07-5.17,7.64-8.38c2.74-5.59,0-11.78,0-11.78
	c4.54-1.19,8.74-4.58,15.32,1.4c6.59,5.99,6.74,23.16,7.26,27.15C489.13,409.09,474.95,415.49,474.95,415.49z"/>
<path fill="#FFFFFF" stroke="#000000" stroke-miterlimit="10" d="M480.16,452.62c-4.8,2.2-11.19,3.99-13.59,1.99
	c-0.92-0.77,2.99-9.78,5.79-12.98c2.79-3.19,3.43-13.17,7.8-10.37c4.38,2.79,11.74,6.9,12.96,9.98
	C494.34,444.31,484.97,450.42,480.16,452.62z"/>
<path fill="#FFFFFF" stroke="#000000" stroke-miterlimit="10" d="M521.05,356.24l-25.34-21.14c-1.12-3.36-3.56-5.33-3.85-5.57
	c0.47,0.26,0.95,0.44,1.46,0.52c4.73,0.74,24.75,20.05,27.38,22.61L521.05,356.24z"/>
<path fill="#FFFFFF" stroke="#000000" stroke-miterlimit="10" d="M545.48,335.1l-24.43,21.14l-0.35-3.57
	c0.19,0.18,0.29,0.28,0.29,0.28s15.33-12.73,25.56-22.17C545.76,332.05,544.81,333.96,545.48,335.1z"/>
<path fill="#FFFFFF" stroke="#000000" stroke-miterlimit="10" d="M530.54,383.54c0,5.59-4.52,10.11-10.1,10.11h-0.24
	c-5.48-0.12-9.88-4.6-9.88-10.11c0-5.58,4.52-10.1,10.11-10.1h0.22C526.13,373.57,530.54,378.05,530.54,383.54z"/>
<path fill="#FFFFFF" stroke="#000000" stroke-miterlimit="10" d="M529.99,434.38c0,5.88-4.77,10.64-10.65,10.64
	c-0.1,0-0.2,0-0.3-0.01c-5.75-0.16-10.34-4.85-10.34-10.63c0-5.88,4.76-10.65,10.64-10.65h0.18
	C525.32,423.83,529.99,428.56,529.99,434.38z"/>
<ellipse transform="matrix(0.7071 -0.7071 0.7071 0.7071 -216.7918 630.9467)" fill="#FFFFFF" stroke="#000000" stroke-miterlimit="10" cx="653.22" cy="577.16" rx="9.98" ry="9.98"/>
<path fill="#FFFFFF" stroke="#000000" stroke-miterlimit="10" d="M363.71,483.79c0,1.99-2.51,3.62-5.59,3.62
	c-3.09,0-5.59-1.62-5.59-3.62c0-2,2.5-3.63,5.59-3.63C361.2,480.16,363.71,481.78,363.71,483.79z"/>
<path fill="#FFFFFF" stroke="#000000" stroke-miterlimit="10" d="M561.89,202.61c0.18-4.59-0.57-11.17-6.55-10.02
	c-7.5,1.43-8.24,11.02-7.06,16.06c-6.82-0.77-9.52-5.97-10.84-8.75c-1.53-3.19-1.8-17.29,11.5-20.23
	c13.32-2.92,16.37,8.52,16.83,12.91C566.02,194.92,564.64,199.1,561.89,202.61z"/>
<path fill="#FFFFFF" stroke="#000000" stroke-miterlimit="10" d="M561.89,202.61c-2.42,3.1-5.91,5.7-10.28,6.07
	c-1.21,0.1-2.32,0.09-3.33-0.03c-1.19-5.04-0.45-14.63,7.06-16.06C561.31,191.45,562.06,198.02,561.89,202.61z"/>
<path fill="#FFFFFF" stroke="#000000" stroke-miterlimit="10" d="M524.99,198.84c-0.63,3.94-2.11,6.94-3.92,9.58
	c0.45-3.66-0.44-8.05-6.99-8.51c-9.78-0.68-9.45,12.42-4.86,17.25c-4.21,0.47-9.23-0.81-13.51-5.53
	c-7.72-8.52-3.46-21.83,7.99-24.69C515.15,184.07,526.5,189.38,524.99,198.84z"/>
<path fill="#FFFFFF" stroke="#000000" stroke-miterlimit="10" d="M521.07,208.42c-1.24,1.81-2.65,3.44-4.07,5.06
	c-1.53,1.78-4.39,3.29-7.77,3.67h-0.01c-4.59-4.83-4.92-17.93,4.86-17.25C520.64,200.36,521.52,204.75,521.07,208.42z"/>
<path fill="#FFFFFF" stroke="#000000" stroke-miterlimit="10" d="M561.15,261.99c-3.52,1.46-9.62,3.99-13.7,5.79
	c-4.98,2.2-24.89,2.95-31.58,3.14c0,0,0,0-0.01,0c-1.39-0.95-2.2-1.55-2.2-1.55s24.52-5.32,32.69-6.38
	C551.2,262.36,557.13,262.1,561.15,261.99z"/>
<path fill="#FFFFFF" stroke="#000000" stroke-miterlimit="10" d="M565.77,261.92c0,0,0,0-0.01,0.01c-0.27,0.25-9.01,8.3-19.41,12.76
	c-5.73,2.45-13.08,3.19-18.61,3.34c-4.95-2.54-9.36-5.4-11.87-7.11c6.7-0.19,26.6-0.94,31.58-3.14c4.08-1.8,10.18-4.33,13.7-5.79
	C563.9,261.92,565.77,261.92,565.77,261.92z"/>
<path fill="#FFFFFF" stroke="#000000" stroke-miterlimit="10" d="M565.76,261.93c-0.27,0.63-8.94,20.5-20.51,21.28
	c-5.07,0.35-11.67-2.2-17.52-5.19c5.53-0.15,12.88-0.88,18.61-3.34C556.76,270.23,565.49,262.18,565.76,261.93z"/>
<path fill="#FFFFFF" stroke="#000000" stroke-miterlimit="10" d="M559.59,237.96c-1.6,5.06-32.62,2.13-32.62,2.13
	s-0.12-8.78,1.87-17.56c2-8.78,7.86-13.18,7.86-13.18S547.87,233.44,559.59,237.96z"/>
<path fill="#FFFFFF" stroke="#000000" stroke-miterlimit="10" d="M570.73,189.3c-1.09-8.71,0.28-11.33-3.14-27.18
	c-0.09-0.44-0.19-0.87-0.29-1.33c-1.71-7.71-6.79-12.23-12.23-14.87c3.95-1.69,7.66-3.36,11.07-4.98c0.72-0.34,1.42-0.68,2.11-1.02
	C572.17,147.08,578.67,164.16,570.73,189.3z"/>
</svg>
