<?xml version="1.0" encoding="utf-8"?>
<!-- Generator: Adobe Illustrator 23.0.5, SVG Export Plug-In . SVG Version: 6.00 Build 0)  -->
<svg version="1.1" baseProfile="tiny" id="Layer_1" xmlns="http://www.w3.org/2000/svg" xmlns:xlink="http://www.w3.org/1999/xlink"
	 x="0px" y="0px" viewBox="0 0 1000 1000" xml:space="preserve">
<path fill="#FFFFFF" stroke="#231F20" stroke-miterlimit="10" d="M451,485.3c-0.7,1.9-1.5,3.8-2.6,5.8c-6.1,2.4-19.3,7.4-32,11.1
	c-17.1,5.1-17.9,6.2-38.9,19c6.6-12,33.4-24.1,43.1-25.3c6.1-0.7,17-5,24.2-8c0.7-0.3,1.3-0.5,1.9-0.8
	C448.5,486.4,450,485.7,451,485.3z"/>
<path fill="#FFFFFF" stroke="#231F20" stroke-miterlimit="10" d="M571.2,389.1l-34-0.8l-9.9,56l-3.8,1.7c0,0-0.9,0.5-2.5,1.4
	c0.7-7.9,1.6-17.2,2.6-26c1.8-16.1,3.6-30.4,3.6-30.4l-0.6-0.2l-6.3-1.9l-21.5-6.5c0,0-0.8-3.6-1.7-8.9c-1.5-9.5-3-24.5-0.3-35.4
	l0.4,0c-0.5,5.8-0.6,9.3-0.6,9.3l60.1,0.4l10.2-6.3l1.9-1.2L571.2,389.1z"/>
<path fill="#FFFFFF" stroke="#231F20" stroke-miterlimit="10" d="M526.7,390.9c-4.8,8.5-14,23.9-22.4,31.9
	c-10.5,10-33.7,23.3-42.8,27.2c-1.3,0.6-2.3,0.9-2.9,1.1c-5.2,1.2-24.5,13.4-28.9,26.5c-4.4,13.1,18.7,6.1,18.7,6.1
	s-1.7,1.1-4.3,2.2c-6,2.6-16.7,5.6-21.3-3.4c-6.7-12.8,16.9-35.6,24.2-39.1c3.6-1.7,11.6-8.1,18.8-14.2c0,0,0,0,0,0
	c12.9-6.1,28.2-13.8,35.9-19c7.7-5.2,14.8-15.1,18.7-21.2L526.7,390.9z"/>
<path fill="#FFFFFF" stroke="#231F20" stroke-miterlimit="10" d="M523.6,421.4c-1,8.8-2,18.2-2.6,26c-5.3,3-18.3,10.7-32.8,20.7
	c-18.9,13.1-26.2,21.9-29.5,24.2c-0.8,0.6-1.7,1.1-2.6,1.6c2.7-8.5,4.2-17.5,7.9-24c6.1-10.8,21.6-21,32.1-25.7
	C504.2,440.7,517.7,427.7,523.6,421.4z"/>
<path fill="#FFFFFF" stroke="#231F20" stroke-miterlimit="10" d="M610.8,567.5L610.8,567.5c-3.5-3.1-8.1-4.5-11.3-8.3
	c-0.4-0.5-0.8-1-1.1-1.6c-1.7-2.8-1.6-6.6-0.9-10.1c0.7-3.8,2.2-7.4,3-9.2c2.7,4.5,7.1,9.8,10.1,14.4c1.4,2.1,2.4,4.2,2.8,5.9
	c0,0,0.1,0.1,0.2,0.3C614.3,559.9,616,563.4,610.8,567.5z"/>
<path fill="#FFFFFF" stroke="#231F20" stroke-miterlimit="10" d="M610.9,567.6c-2.1,1.4-8.6,5.7-13.2,9.4c-0.6-1.8-0.4-5,0-8.4
	c0.4-3.3,1.2-6.8,1.8-9.4C602.7,563,607.3,564.4,610.9,567.6C610.8,567.6,610.8,567.6,610.9,567.6z"/>
<path fill="#FFFFFF" stroke="#231F20" stroke-miterlimit="10" d="M613,546.9c-0.3,2-1,4.1-2.4,5.7c-3-4.7-7.5-9.9-10.1-14.4
	c-1.2-2.1-2.1-4.1-2.1-5.7c-0.1-2.1,0.4-4.1,1.2-5.8c0.8-1.7,1.8-3.1,2.7-4.2c0.3,0.9,0.7,1.8,1.2,2.7c5.4,10.1,9.3,14.6,9.3,14.6
	s0.1,0.4,0.2,1c0,0,0,0,0,0C613.1,542.1,613.3,544.4,613,546.9z"/>
<path fill="#FFFFFF" stroke="#231F20" stroke-miterlimit="10" d="M674.9,341.9l-10.7,9.3l-2.8,2.4c0,0,0,0,0,0c0,0,0,0,0,0
	c0,0-0.1-0.1-0.2-0.2s-0.2-0.2-0.3-0.3c-0.4-0.3-1-0.8-1.7-1.4c-0.2-0.1-0.4-0.3-0.6-0.5c-0.1-0.1-0.3-0.2-0.4-0.3
	c-0.1-0.1-0.3-0.2-0.4-0.3c-0.2-0.1-0.3-0.3-0.5-0.4c-7-5.5-22.1-15.7-38.2-18c-27.2,14.8-36.5,19.4-36.5,19.4l1.2,37.3l29.9,17.1
	c0,0-8.8,20.1-16.6,44.3c-0.2,0.6-0.4,1.1-0.6,1.7c-4.6,14.4-8.7,30.1-10.4,43.9v0c-0.4,3.6-0.7,7.1-0.8,10.4
	c-3-0.8-7.8-3.2-13.5-6.7c-5.6-3.5-12.1-8-18.6-13.1c-3.5-2.8-7-5.6-10.3-8.6c-1.4-1.2-2.8-2.5-4.1-3.8c-2.1-2-4.1-4-6-5.9
	c-1.5-1.6-2.9-3.1-4.2-4.7c-0.6-0.7-1.2-1.5-1.8-2.2c-0.9-1.1-1.7-2.2-2.4-3.2c-1.4-2-2.7-4-3.7-5.8c0.1-1.6,0.3-3.2,0.4-5
	c1.6-0.9,2.5-1.4,2.5-1.4l3.8-1.7c0,0,33.3,37.6,50.2,50.2c-3.8-17.5,21.3-83.4,21.3-83.4l-27.1-14l-0.4-7.9l-2.4-48.7l43.5-26.8
	l38.2,10.2l4.2,1.1c0,0,0.6-7.8,0.6-19c0-10.3-0.4-23.5-2.2-36C676.5,298.3,674.9,341.9,674.9,341.9z"/>
<path fill="#FFFFFF" stroke="#231F20" stroke-miterlimit="10" d="M567,341.6l-10.2,6.3l-60.1-0.4c0,0,0.1-3.5,0.6-9.3
	c0.8-8.6,2.6-22.3,6.6-36.8c8.7,1.2,16.4,1.7,22.1,1.4c3.2-0.1,6.2,0.4,9.1,1.6h0c9.9,3.9,18.3,14.2,24,23.3c1.3,2,2.4,3.9,3.4,5.7
	C564.6,336.8,566.1,339.7,567,341.6z"/>
<path fill="#FFFFFF" stroke="#231F20" stroke-miterlimit="10" d="M655.4,305.9c0,2.1,0,4.1-0.1,5.9c0,0.5,0,0.9,0,1.3
	c0,0.4,0,0.9,0,1.3c0,0.6,0,1.1,0,1.6c0,0.5,0,1-0.1,1.5v0c0,0.2,0,0.5,0,0.7c0,0.2,0,0.5,0,0.7c0,0.2,0,0.4,0,0.6
	c0,0.2,0,0.4,0,0.6c0,0.4,0,0.8,0,1.1c0,0.2,0,0.4,0,0.5c0,0.4,0,0.7,0,1c0,0.2,0,0.3,0,0.5c0,0.2,0,0.3,0,0.4c0,0.1,0,0.3,0,0.4
	c0,0.2,0,0.3,0,0.4c0,0.2,0,0.4,0,0.4l-4.2-1.1v0c-0.1-0.2-0.2-0.4-0.2-0.5c-0.2-0.3-0.3-0.7-0.5-1.1c-0.5-1.1-1-2.3-1.7-3.7
	c-0.2-0.4-0.4-0.8-0.6-1.3c-0.2-0.4-0.4-0.8-0.6-1.2c-0.3-0.6-0.5-1.1-0.9-1.7c-0.2-0.4-0.4-0.7-0.6-1.1c-1.5-3-3.2-6.2-5.2-9.5
	c-0.4-0.7-0.8-1.4-1.2-2c-0.4-0.7-0.8-1.4-1.3-2c-0.4-0.7-0.9-1.4-1.3-2c-0.2-0.4-0.5-0.7-0.7-1c-0.2-0.3-0.5-0.7-0.7-1
	c-2.3-3.3-4.8-6.6-7.4-9.5v0c-0.8-1-1.7-1.9-2.6-2.7c-15.9-15.9-38.9-29.9-43.9-30.3c-4-0.3-11.3,8.6-19.2,10c-2,0.3-4,0.2-6-0.6
	c-2.8-1.2-10.4-5.7-20.7-12.9c2-1.5,4.1-2.8,6.3-4c2.3-1.3,4.6-2.4,6.9-3.4c0.7-0.3,1.5-0.7,2.2-1c0.5-0.2,1-0.4,1.4-0.6
	c0.3-0.1,0.6-0.3,0.9-0.4c0.8-0.3,1.6-0.6,2.4-0.9c0.6-0.2,1.3-0.5,1.9-0.7c0.6-0.2,1.2-0.4,1.7-0.5c0.4-0.1,0.8-0.3,1.3-0.4
	c0.5-0.1,0.9-0.3,1.4-0.4c0.6-0.2,1.1-0.3,1.7-0.5c0,0,0.1,0,0.1,0c0.3-0.1,0.6-0.2,1-0.2c1.2-0.3,2.3-0.5,3.5-0.8
	c0.5-0.1,1-0.2,1.5-0.3c0.5-0.1,1-0.2,1.5-0.2c0.5-0.1,1-0.2,1.5-0.2c0.5-0.1,0.9-0.1,1.3-0.2c0.4-0.1,0.9-0.1,1.3-0.2
	c2-0.2,4-0.3,6-0.4c0.6,0,1.3,0,1.9,0c4.1,0,8.1,0.3,12,0.9c0.9,0.1,1.7,0.3,2.6,0.5c0.9,0.2,1.7,0.3,2.6,0.5c1.3,0.3,2.5,0.6,3.8,1
	h0c1,0.3,1.9,0.5,2.9,0.9h0c12.5,7.3,37.7,26.6,48.3,67.9H655.4z"/>
<path fill="#FFFFFF" stroke="#231F20" stroke-miterlimit="10" d="M577.5,494.4c-16.9-12.5-50.2-50.1-50.2-50.1l9.9-56l34,0.8
	l0.4,7.9l27.1,14C598.8,411.1,573.7,477,577.5,494.4z"/>
<path fill="#FFFFFF" stroke="#231F20" stroke-miterlimit="10" d="M650.6,323.8l-38.2-10.2l-43.5,26.8l-1.9,1.2
	c-0.9-1.9-2.4-4.8-4.3-8.2l8.5-7.6l5.1-20.2l20.6,3.1l8.6-19.4l29.5,6.6l0.3-0.2C642.7,306.4,648.1,318.1,650.6,323.8z"/>
<path fill="#FFFFFF" stroke="#231F20" stroke-miterlimit="10" d="M635.2,295.6l-0.3,0.2l-29.5-6.6l-8.6,19.4l-20.6-3.1l-5.1,20.2
	l-8.5,7.6c-1-1.8-2.1-3.7-3.4-5.7l5.7-6.6l4.3-23.3l26,3.9l6.2-21.8l26.3,6.2v0C630.4,289,632.9,292.3,635.2,295.6z"/>
<path fill="#FFFFFF" stroke="#231F20" stroke-miterlimit="10" d="M627.8,286.1l-26.3-6.2l-6.2,21.8l-26-3.9l-4.3,23.3l-5.7,6.6
	c-5.8-9.1-14.2-19.4-24-23.3c4.8-1.7,10.6-4.1,16-8.3c3.2-2.5,6.2-5.8,8.7-10c0.7-1.2,1.3-2.4,1.8-3.6c1.5-3.6,2-7.1,1.9-10.4
	c0-3.3-0.7-6.4-1.6-9.1c7.9-1.4,15.2-10.3,19.2-10c5.1,0.4,28,14.4,43.9,30.3C626.1,284.2,626.9,285.1,627.8,286.1z"/>
<path fill="#FFFFFF" stroke="#231F20" stroke-miterlimit="10" d="M655.4,305.9h-0.3c-10.6-41.3-35.8-60.6-48.3-67.9
	c2.5,0.8,4.9,1.7,7.2,2.6c0,0,0,0,0,0c14.1,5.9,26.7,15.4,36.9,26.6c0.8,0.8,1.5,1.7,2.2,2.6c0.3,1.8,0.5,3.6,0.7,5.4
	c0.1,1.2,0.3,2.5,0.4,3.7c0.2,2.4,0.4,4.7,0.5,7c0.1,1.4,0.2,2.8,0.2,4.2c0.1,2.9,0.2,5.8,0.3,8.5
	C655.4,301.2,655.4,303.6,655.4,305.9z"/>
<path fill="#FFFFFF" stroke="#231F20" stroke-miterlimit="10" d="M572.4,235.1c-0.5,0.1-1,0.1-1.5,0.2c-0.5,0.1-1,0.1-1.5,0.2
	c-0.5,0.1-1,0.2-1.5,0.3c-1.2,0.2-2.3,0.5-3.5,0.8c-0.3,0.1-0.6,0.1-1,0.2c0,0-0.1,0-0.1,0c-0.6,0.1-1.1,0.3-1.7,0.5
	c-0.5,0.1-0.9,0.3-1.4,0.4c-0.4,0.1-0.8,0.2-1.3,0.4c-0.6,0.2-1.1,0.4-1.7,0.5c-0.6,0.2-1.2,0.4-1.9,0.7c-0.8,0.3-1.6,0.6-2.4,0.9
	c-0.3,0.1-0.6,0.2-0.9,0.4c-0.5,0.2-1,0.4-1.4,0.6c-0.7,0.3-1.5,0.6-2.2,1c0.3-5.1,0.5-12.7,0.5-12.7s-4.7-39.3,3.9-40
	c0,0,16.5,31.3,19.3,44.8L572.4,235.1z"/>
<path fill="#FFFFFF" stroke="#231F20" stroke-miterlimit="10" d="M603.9,237.2c-1.3-0.3-2.5-0.7-3.8-1c-0.8-0.2-1.7-0.4-2.6-0.5
	c-0.9-0.2-1.7-0.3-2.6-0.5c-3.9-0.6-7.9-0.9-12-0.9c-0.6,0-1.3,0-1.9,0c-2,0-4,0.2-6,0.4c-0.4,0-0.9,0.1-1.3,0.2
	c-0.4,0-0.9,0.1-1.3,0.2l-0.1-1c-2.8-13.5-19.3-44.8-19.3-44.8c-1.5-12,6.6-33.4,6.6-33.4s5-15.6,9.3-24.1
	c10.5,67.7,25.6,94.2,33.9,104C603.2,236.3,603.6,236.8,603.9,237.2z"/>
<path fill="#FFFFFF" stroke="#231F20" stroke-miterlimit="10" d="M614.1,240.7c-2.3-1-4.8-1.8-7.2-2.6h0c-1.6-0.9-3-1.7-4.1-2.2
	c-8.3-9.9-23.4-36.3-33.9-104c1.8-3.5,3.5-5.8,4.6-5.1C577.3,128.9,582.5,202,614.1,240.7z"/>
<path fill="#FFFFFF" stroke="#231F20" stroke-miterlimit="10" d="M561.7,282.5c-0.5,1.2-1.1,2.4-1.8,3.6c-2.5,4.2-5.5,7.4-8.7,10
	l-1-1.3c-99.1-5.7-133.3-99.6-133.3-99.6c-6.2-7-0.8-44.3-0.8-44.3S475.7,271.3,561.7,282.5z"/>
<path fill="#FFFFFF" stroke="#231F20" stroke-miterlimit="10" d="M551.2,296c-5.3,4.3-11.2,6.6-16,8.3h0c-2.9-1.2-6-1.8-9.1-1.6
	c-5.8,0.3-13.5-0.2-22.1-1.4c-27.8-3.9-65.1-15.1-77-33.2c-15.6-23.7-17.5-67.6-10.1-73.1c0,0,34.2,93.9,133.3,99.6L551.2,296z"/>
<path fill="#FFFFFF" stroke="#231F20" stroke-miterlimit="10" d="M563.6,272.1c0.1,3.3-0.5,6.8-1.9,10.4
	C475.7,271.3,416,150.8,416,150.8s-7-30.3-0.2-30.5c7.9,16.2,49.2,96.1,112.3,135.4C539.3,262.6,551.1,268.3,563.6,272.1z"/>
<path fill="#FFFFFF" stroke="#231F20" stroke-miterlimit="10" d="M563.6,272.1c-12.5-3.8-24.3-9.5-35.5-16.4
	C465,216.3,423.7,136.4,415.9,120.2c3.4-0.1,10,6.8,22.3,27.8c27.1,46.1,70.9,82.8,97.1,101.4c10.2,7.2,17.8,11.7,20.7,12.9
	c2,0.9,4.1,1,6,0.6C562.9,265.7,563.6,268.8,563.6,272.1z"/>
<path fill="#FFFFFF" stroke="#231F20" stroke-miterlimit="10" d="M663.2,372l-0.6,0.3c-0.1-0.2-0.2-0.5-0.3-0.7
	c-1.8-4-3.3-7.8-4.1-12c-0.6-2.9-0.8-5.9-0.5-8.8c0.1,0.1,0.3,0.2,0.4,0.3c0.1,0.1,0.3,0.2,0.4,0.3c0.2,0.2,0.4,0.3,0.6,0.5
	c0.8,0.6,1.3,1.1,1.7,1.4c0.1,0.1,0.2,0.2,0.3,0.3s0.1,0.1,0.2,0.2c0,0,0,0,0,0c0,0,0,0,0,0l2.8-2.4
	C664.4,357.8,664.5,367.3,663.2,372z"/>
<path fill="#FFFFFF" stroke="#231F20" stroke-miterlimit="10" d="M668.1,390.5c0,1.2-0.2,2.5-0.7,3.8c-0.3,0.6-0.6,1.2-1,1.7
	c-0.2,0.3-0.5,0.5-0.8,0.8l-0.5,0.4c-0.2,0.1-0.4,0.2-0.6,0.3c-0.2,0.1-0.4,0.2-0.6,0.3c-0.2,0-0.4,0-0.7,0.1c-0.2,0-0.5,0-0.7,0
	l-0.6-0.1c-0.4-0.1-0.8-0.2-1.1-0.3c-0.3-0.1-0.6-0.3-0.9-0.4c-1.1-0.6-2-1.3-2.9-2c-1.7-1.3-3.4-2.6-5.1-3.6
	c-1.7-1-3.5-1.5-5.3-1.4c-1.9,0.1-3.7,0.8-5.7,1.7c-1,0.4-2,0.9-3.2,1.2c-0.3,0.1-0.7,0.1-1,0.2c-0.4,0-0.8,0-1.2-0.1
	c-0.2-0.1-0.4-0.1-0.6-0.3c-0.1-0.1-0.3-0.2-0.4-0.3c-0.1-0.1-0.3-0.2-0.4-0.3c-0.2-0.2-0.4-0.5-0.5-0.7c-0.2-0.3-0.3-0.6-0.4-0.9
	c-0.1-0.5-0.2-0.9-0.3-1.3c0-0.3-0.1-0.6-0.1-0.9c0-0.1,0-0.3,0-0.4c0-0.3,0-0.5,0-0.8c0-0.5,0-1.1,0.1-1.6c0-0.3,0.1-0.7,0.1-1
	c0.1-0.6,0.2-1.1,0.3-1.7c0.3-1.1,0.7-2.1,1.1-3.1c0.3-0.5,0.5-1,0.8-1.5c0.2-0.3,0.5-0.7,0.7-1c0.2-0.2,0.4-0.4,0.6-0.6
	c0.3-0.3,0.6-0.6,1-0.8c0.1-0.1,0.2-0.1,0.3-0.2c0.3-0.2,0.7-0.4,1.1-0.5c0.6-0.1,1.2-0.2,1.8,0c0,0,0,0,0,0c-0.1,0-0.2,0-0.3,0
	c-0.3,0-0.6,0-0.9,0c-0.2,0-0.5,0.1-0.7,0.2c-0.2,0.1-0.4,0.2-0.6,0.3c-0.2,0.1-0.3,0.3-0.5,0.4c-0.2,0.2-0.4,0.4-0.5,0.6
	s-0.3,0.4-0.5,0.6c-0.1,0.2-0.3,0.4-0.4,0.7c-0.1,0.1-0.1,0.2-0.2,0.3c-0.1,0.1-0.1,0.2-0.2,0.3c-0.2,0.5-0.4,0.9-0.6,1.4
	c-0.5,1.5-0.8,3-0.9,4.5v0c-0.1,1,0,2,0.1,3v0c0.1,0.6,0.2,1.3,0.4,1.9c0.1,0.2,0.1,0.4,0.2,0.5c0,0.1,0.1,0.2,0.1,0.3c0,0,0,0,0,0
	c0.1,0.1,0.1,0.2,0.2,0.3c0,0,0,0,0,0c0,0,0.1,0.1,0.2,0.1c0,0,0.1,0,0.1,0.1l0,0c0.1,0,0.2,0,0.4,0c0.2-0.1,0.4-0.1,0.6-0.2
	c0.8-0.3,1.8-0.8,2.8-1.3c0.5-0.2,1-0.5,1.5-0.7c0.8-0.4,1.6-0.7,2.4-1c0.6-0.2,1.1-0.3,1.7-0.4c0.3,0,0.6-0.1,0.9-0.1
	c0.2,0,0.4,0,0.5,0c0,0,0,0,0,0c1-0.1,1.9,0,2.9,0.2c0.5,0.1,1,0.2,1.5,0.4c0,0,0,0,0,0c0.5,0.2,1,0.4,1.4,0.6c0,0,0,0,0,0
	c0.2,0.1,0.4,0.2,0.7,0.3c0.2,0.1,0.3,0.2,0.5,0.3c1.9,1,3.5,2.3,5,3.5c0.2,0.2,0.4,0.3,0.6,0.5c0.2,0.1,0.4,0.3,0.6,0.5
	c0.4,0.3,0.8,0.6,1.2,0.8c0.2,0.1,0.4,0.2,0.5,0.3c0.2,0.1,0.4,0.2,0.5,0.2l0,0l0.2,0c0,0,0,0,0.1,0c0,0,0,0,0.1,0c0,0,0.1,0,0.1,0
	c0,0,0.1,0,0.1-0.1c0.1,0,0.2-0.1,0.3-0.2c0.1-0.1,0.2-0.2,0.3-0.4c0.2-0.3,0.5-0.7,0.6-1c0.2-0.6,0.4-1.2,0.4-1.9
	c0-0.2,0-0.5,0.1-0.7c0-1.9-0.4-3.9-1-5.9c-1.1-4-2.6-8-4.1-12.1c-1.5-4-2.9-8.3-3.3-12.7c-0.3-3.1-0.2-6.4,0.6-9.4
	c0.2,0.1,0.3,0.3,0.5,0.4c-0.3,3-0.1,5.9,0.5,8.8c0.8,4.2,2.3,8,4.1,12c0.1,0.2,0.2,0.5,0.3,0.7c1.6,3.7,3.2,7.5,4.4,11.5
	C667.5,385.9,668.1,388.1,668.1,390.5z"/>
<path fill="#FFFFFF" stroke="#231F20" stroke-miterlimit="10" d="M626.2,516.2c-0.7,1.7-2,3.3-3.5,4.9c-2.7,2.9-6.3,5.5-8.6,7.2
	c-0.2-5.4-0.7-10.3-0.7-10.3l-0.2-1c0,0-0.6-2-1.3-5.3l0.3,0c0,0,9.9-9.9,14.3-16.7C627.1,499.4,628.5,510.8,626.2,516.2z"/>
<path fill="#FFFFFF" stroke="#231F20" stroke-miterlimit="10" d="M673.4,418.9c-3.2-4.1-6-6.7-8.5-8.2c-5.6-3.6-9-1.8-9-1.8
	c-5.7,1.7-12,6.8-18.1,13.4c-13,14-25.2,34.9-28.7,45.3c-3.8,11.2,0.1,32.2,2.5,42.8c0,0,0,0,0,0.1c0.1,0.4,0.2,0.8,0.3,1.1
	c0.7,3.1,1.3,5,1.3,5.3c-0.4-0.2-6.7-3.3-11.6-13.3v0c-3.4-6.8-6.1-16.9-5.9-31.4c0.1-6.9,1.6-13.9,3.9-20.9
	c9.3-28.1,32.2-54.7,35.6-58.5c0.2,0.1,0.4,0.2,0.6,0.2c0.4,0.1,0.8,0.1,1.2,0.1c0.3,0,0.7-0.1,1-0.2c1.2-0.3,2.2-0.8,3.2-1.2
	c2-0.9,3.8-1.6,5.7-1.7c1.8-0.1,3.6,0.4,5.4,1.4c1.7,1,3.3,2.3,5.1,3.6c0.9,0.7,1.7,1.4,2.9,2c0.2,0.1,0.6,0.3,0.9,0.4
	c0.3,0.1,0.6,0.3,1.1,0.3l0.6,0.1c0.2,0,0.5,0,0.7,0c0.2,0,0.5,0,0.7-0.1C668.6,400.9,663.9,397.8,673.4,418.9z"/>
<path fill="#FFFFFF" stroke="#231F20" stroke-miterlimit="10" d="M520.3,388.9c-3.9,6.1-11,16-18.7,21.2c-7.7,5.2-23.1,13-35.9,19
	c0,0,0,0,0,0c-6.6,3.1-12.6,5.8-16.5,7.5c-11.7,5-26.5,22.2-36.7,27.1c-8,3.9-22,20-27.7,26.9c0,0,0,0,0,0c-1.6,1.9-2.6,3.1-2.6,3.1
	s7.3-24.5,21-30.9c13.7-6.4,23.6-21.3,38.5-32.7c14.9-11.4,32.7-20.4,33.2-21.3c0.6-0.9,10.8-7,10.5-11.4
	c-0.2-2.8,6.8-15.4,11.8-24.1c0.9,5.4,1.7,8.9,1.7,8.9L520.3,388.9z"/>
<path fill="#FFFFFF" stroke="#231F20" stroke-miterlimit="10" d="M458.5,451c0.6-0.1,1.7-0.5,2.9-1.1c-3.3,6-7.5,15-7.9,21.2
	c-0.3,5-0.8,9.4-2.6,14.2c-0.9,0.4-2.4,1.1-4.2,1.9c-0.6,0.3-1.2,0.5-1.9,0.8c-7.2,3.1-18.1,7.3-24.2,8
	c-9.7,1.2-36.5,13.2-43.1,25.3l-1.8-0.8c3.8-8.3,6.2-20.9,9-29.7c0,0,0,0,0,0c5.8-6.9,19.8-23,27.7-26.9c10.2-5,25.1-22.2,36.7-27.1
	c3.9-1.7,9.9-4.4,16.5-7.5c-7.3,6.1-15.3,12.5-18.8,14.2c-7.3,3.5-30.9,26.2-24.2,39.1c4.7,8.9,15.3,6,21.3,3.4
	c2.6-1.1,4.3-2.2,4.3-2.2s-23,7-18.7-6.1C434,464.4,453.3,452.2,458.5,451z"/>
<path fill="#FFFFFF" stroke="#231F20" stroke-miterlimit="10" d="M539.7,632.6c-5.2-12.8-13.5-32.1-20-39.3
	c-2.3-2.6-5.9-5.8-10.1-9.1c-6.2-5-13.6-10.3-19.8-14.5c-2.1-4.7-4.4-9-6.6-12.8c-1.4-2.3-2.4-4.7-3.2-7.1
	c-3.7-11-2.2-22.3-0.1-30.1c2.6-2.3,4.9-4.8,6.8-7.5c3.7-5.4,8.6-12,13.4-18.5c-3.3,6.8-5.6,14.5-5.9,22.6
	c-0.9,31.8,38.8,58.3,42.9,87.8C539,616.7,539.6,626.1,539.7,632.6z"/>
<path fill="#FFFFFF" stroke="#231F20" stroke-miterlimit="10" d="M540.6,634.8c-0.5,5.2-1.1,8.9-1.3,10c0.1-1.2,0.6-5,0.4-12.2v0
	c-0.1-6.6-0.8-15.9-2.5-28.5c-4.1-29.5-43.7-56-42.9-87.8c0.2-8.1,2.5-15.7,5.9-22.6c0,0,0,0,0,0c8-16.5,21.9-28.5,26.4-32.2
	c0.6,0.7,1.2,1.4,1.8,2.2c1.3,1.5,2.7,3.1,4.2,4.7c-7.7,6.6-25.8,24.4-26.9,46.2c-1.5,27.7,29.5,52.5,34.1,75.5
	c1.2,6.2,1.8,12.9,1.9,19.6c0,0,0,0,0,0C541.9,619,541.3,628.1,540.6,634.8z"/>
<path fill="#FFFFFF" stroke="#231F20" stroke-miterlimit="10" d="M503.7,645.2c4.3-22.8-3.8-53.5-13.8-75.5
	c6.2,4.3,13.6,9.6,19.8,14.5C514,601.7,509.5,634.4,503.7,645.2z"/>
<path fill="#FFFFFF" stroke="#231F20" stroke-miterlimit="10" d="M622.5,536.9c-0.5,1.4-1.2,2.7-2.1,3.9c-2.2,2.8-5.3,5-7.4,6.2
	c0.4-2.5,0.1-4.8,0-6.2c0,0,0,0,0,0c1.2-2.5,1.3-7.7,1.2-12.5c2.4-1.6,5.9-4.3,8.6-7.2C623.3,524.8,624.2,531.9,622.5,536.9z"/>
<path fill="#FFFFFF" stroke="#231F20" stroke-miterlimit="10" d="M612.9,540.7c-0.1-0.6-0.2-1-0.2-1s-3.9-4.5-9.3-14.6
	c-0.5-0.9-0.9-1.8-1.2-2.7c-2.8-7.4-1.5-15.6-0.7-18.8c4.9,10,11.2,13.1,11.6,13.3c0,0,0,0,0,0l0.2,1c0,0,0.6,4.9,0.7,10.3
	C614.2,533.1,614.1,538.2,612.9,540.7z"/>
<path fill="#FFFFFF" stroke="#231F20" stroke-miterlimit="10" d="M681.6,507.9c-2.3,6.6-7.5,13-13.3,19.2
	c-9.2,9.7-19.8,18.7-22.9,26c-3.5,8.4-7.3,22.7-9.8,31.4c-1-2.5-2.7-5.3-5.1-8.3c-8.2-10.2-4.4-29.7-0.6-36.7
	c3.8-7,27.4-44.9,31.8-61.5c3.8-14.4-9.6-31.1-13.1-35.2c1.1-1.6,1.9-2.8,2.2-3.6c1.4-2.9-1.3-6.4-3.7-8.8c4-4.3,8.2-9.8,11.4-9.5
	c1.3,4.2,4.8,14.2,10.6,19.7c1.3,1.2,2.7,2.1,4.4,2.8c1.1,2.6,3.4,7.1,7,9.7c0.1,0.1,0.2,0.1,0.3,0.2v0
	C682,459.8,686.8,492.7,681.6,507.9z"/>
<path fill="#FFFFFF" stroke="#231F20" stroke-miterlimit="10" d="M627.5,493.3c-0.3,0.5-0.6,1.1-1,1.7c-4.4,6.8-14.3,16.7-14.3,16.7
	c-1.1-20.5,9.8-31.9,14.6-35.8c1.3-1.1,2.2-1.6,2.2-1.6S631.1,486.6,627.5,493.3z"/>
<path fill="#FFFFFF" stroke="#231F20" stroke-miterlimit="10" d="M646.3,428.5L646.3,428.5c-0.1,0.2-0.3,0.4-0.5,0.6
	c-5.4,6.4-20.6,24.8-26.3,35.5c-6.9,12.8-8.9,35.2-8,46c-2.4-10.6-6.3-31.7-2.5-42.8c3.6-10.4,15.7-31.3,28.7-45.3
	C640.2,422.6,645.1,423.9,646.3,428.5z"/>
<path fill="#FFFFFF" stroke="#231F20" stroke-miterlimit="10" d="M650.9,439c-0.3,0.7-1.1,2-2.2,3.6c-5.4,7.8-17.9,24.4-21.9,33.2
	c-4.8,4-15.7,15.3-14.6,35.8l-0.3,0c-0.1-0.4-0.2-0.8-0.3-1.1c0,0,0,0,0-0.1c-0.9-10.7,1.1-33.1,8-46c5.7-10.7,20.9-29.1,26.3-35.5
	c0.2,0.2,0.4,0.4,0.7,0.6c0,0.4,0.1,0.8,0.1,1.2c0.2-0.2,0.4-0.4,0.6-0.6C649.5,432.6,652.2,436.2,650.9,439z"/>
<path fill="#FFFFFF" stroke="#231F20" stroke-miterlimit="10" d="M664.9,410.7c-1.2,2.8-3.6,8.5-4.4,11.3c-0.6-0.8-1.3-1.1-2-1.2
	c-3.2-0.3-7.4,5.3-11.4,9.5c-0.2-0.2-0.4-0.4-0.7-0.6c0-0.4-0.1-0.8-0.2-1.1v0c-1.2-4.5-6.1-5.8-8.5-6.2
	c6.1-6.6,12.5-11.7,18.1-13.4C655.9,408.9,659.3,407.1,664.9,410.7z"/>
<path fill="#FFFFFF" stroke="#231F20" stroke-miterlimit="10" d="M692.4,445.1c0,0-11,1.6-18.9-1.8c-1.6-0.7-3.1-1.6-4.4-2.8
	c-5.8-5.4-9.3-15.5-10.6-19.7c0.7,0,1.4,0.4,2,1.2c0.7-2.7,3.2-8.5,4.4-11.3c2.4,1.6,5.3,4.1,8.5,8.2l0.6,0.9
	c0,0,12.4,8.8,16.9,18.4C691.9,440.5,692.5,442.8,692.4,445.1z"/>
<path fill="#FFFFFF" stroke="#231F20" stroke-miterlimit="10" d="M613.7,578.8c-0.7,2-2.1,3.8-3.9,5.8c-0.5,0.5-0.9,1-1.5,1.5
	c-3.2,3.2-7.6,7-12.3,12.3c-2.2-1.7-3.6-3.7-4.3-5.8c0,0,0,0,0,0c-1.4-4.2-0.4-8.6,1.2-11.1c0.3-0.4,0.7-0.9,1.3-1.6h0
	c0.9-0.9,2.1-1.9,3.4-3c4.6-3.6,11-8,13.2-9.4c0.9,0.8,1.7,1.8,2.4,2.9c0,0,0,0,0,0.1C614.1,572.9,614.7,576,613.7,578.8z"/>
<path fill="#FFFFFF" stroke="#231F20" stroke-miterlimit="10" d="M617.9,555.5c-1.8,1.5-3.2,2.6-4.3,3.4c-0.1-0.2-0.2-0.3-0.2-0.3
	c-0.4-1.8-1.4-3.8-2.8-5.9c1.4-1.6,2.1-3.7,2.4-5.7c2.1-1.2,5.2-3.3,7.4-6.2C620.6,545,620.6,553.2,617.9,555.5z"/>
<path fill="#FFFFFF" stroke="#231F20" stroke-miterlimit="10" d="M630,539.3c-3.8,7-7.6,26.5,0.6,36.7c2.4,3,4,5.9,5.1,8.3
	c2.5,5.8,1.9,9.7,1.9,9.7c-2.1,0.6-4.3,0.8-6.5,0.6c-9.2-0.9-18.5-7.9-21.3-10.1c1.9-2,3.3-3.9,3.9-5.8c1-2.8,0.4-5.9-0.4-8.2
	c0,0,0,0,0-0.1c-0.8-2-1.7-3.4-1.7-3.4s-0.3,0.2-0.7,0.5c0,0,0,0-0.1-0.1l0,0c5.2-4.1,3.5-7.6,2.7-8.6c1.1-0.8,2.5-1.9,4.3-3.4
	c2.8-2.4,2.7-10.6,2.5-14.8c0.9-1.2,1.7-2.5,2.1-3.9c1.7-5,0.8-12.1,0.2-15.8c1.5-1.6,2.7-3.3,3.5-4.9c2.3-5.3,0.9-16.8,0.3-21.2
	c0.4-0.6,0.7-1.2,1-1.7c3.6-6.7,1.5-19.1,1.5-19.1s-0.9,0.5-2.2,1.6c3.9-8.8,16.5-25.3,21.9-33.2c3.6,4.1,16.9,20.7,13.1,35.2
	C657.4,494.4,633.7,532.4,630,539.3z"/>
<path fill="#FFFFFF" stroke="#231F20" stroke-miterlimit="10" d="M665,561.7c-1.1,4.1-2.5,8-4.4,11.2c-4.8,8.1-10.5,13.4-15,16.7
	c-4.6,3.4-8,4.6-8,4.6s0.6-3.9-1.9-9.7c2.5-8.7,6.3-23,9.8-31.4c3-7.3,13.7-16.3,22.9-26C668.4,534.3,668.2,549.3,665,561.7z"/>
<path fill="#FFFFFF" stroke="#231F20" stroke-miterlimit="10" d="M596.1,674.9c1.2-11.1-7-25.4-9.9-43.7c-2.2-13.8,2.9-31,5.5-38.6
	c0.7,2.1,2,4.2,4.3,5.8c4.7-5.3,9-9,12.3-12.3C613.8,610,612.5,648.4,596.1,674.9z"/>
<path fill="#FFFFFF" stroke="#231F20" stroke-miterlimit="10" d="M524.3,458.3c-7,5.7-27.1,21.9-39.2,28.8
	c-14.9,8.5-28.3,23.6-37.6,32.1c-5.8,5.3-18.8,6.7-27.6,7c11.9-2.9,20.8-8.9,28.5-17.2c3.8-4.2,6.1-9.5,7.9-15
	c0.9-0.5,1.8-1,2.6-1.6c3.2-2.3,10.5-11.1,29.5-24.2c14.5-10,27.5-17.7,32.8-20.7c-0.1,1.8-0.3,3.4-0.4,5
	C521.6,454.3,522.8,456.3,524.3,458.3z"/>
<path fill="#FFFFFF" stroke="#231F20" stroke-miterlimit="10" d="M527.2,391c0,0-1.8,14.3-3.6,30.4c-5.9,6.3-19.4,19.3-27.5,22.9
	c-10.5,4.7-25.9,14.9-32.1,25.7c-3.7,6.5-5.2,15.6-7.9,24c-1.8,5.6-4.1,10.9-7.9,15c-7.6,8.3-16.5,14.3-28.5,17.2
	c-0.8,0-1.5,0-2.2,0c-0.3,0.2-0.6,0.4-0.9,0.7c-2.2,0.4-4.5,0.8-6.9,1c-17.2,1.8-42.9,23-39.4,58.3c-5.5-24.2,1.2-50.4,17.5-56.6
	c16.3-6.1,41.7-12.5,52.5-26.5c2-2.6,3.7-5,5.2-7.3c1.1-1.7,2-3.3,2.8-4.8c1.1-2,1.9-4,2.6-5.8c1.8-4.8,2.3-9.2,2.6-14.2
	c0.4-6.2,4.6-15.2,7.9-21.2c9.1-3.9,32.4-17.2,42.8-27.2c8.4-8,17.6-23.3,22.4-31.9L527.2,391z"/>
<path fill="#FFFFFF" stroke="#231F20" stroke-miterlimit="10" d="M368.8,400.3c-1,1-2.1,2-3.1,2.9c-3.1,2.8-5.7,4.7-5.7,4.7
	l-25.2,2.2l-4.6,0.4l-13.1-9.3l-0.3-26.2L290,352.7c0,0,7.6-8.9,16.7-19.4c9.7-11.2,21.2-24.3,27-30.3c1.5-1.5,2.6-2.6,3.2-3
	c5.3-4,12.9-3.4,16.5-1.7c-1.8,3.7-5.1,12-1,15.2c-4.5,5.3-5.4,17.5-0.2,22.2c-7,1.6-5.6,22.9,0.2,29.5
	C352.1,370.6,358.1,391.1,368.8,400.3z"/>
<path fill="#FFFFFF" stroke="#231F20" stroke-miterlimit="10" d="M381.8,338.7c-0.9,3.2-7.3,14-7.3,14s2.9,2.6,3.5,8.2
	c0.6,5.5-5.2,14-5.2,14s4.1,5.8,3.5,13.7c-0.3,3.6-3.8,8-7.5,11.7c-10.7-9.2-16.6-29.8-16.3-35.1c-5.8-6.6-7.2-28-0.2-29.5
	c-5.3-4.7-4.3-16.9,0.2-22.2c-4.2-3.3-0.8-11.5,1-15.2c0.4,0.2,0.7,0.3,1,0.5c2.9,2,25.9,21,25.9,21l-0.3,9
	C380.1,328.8,382.7,335.5,381.8,338.7z"/>
<path fill="#FFFFFF" stroke="#231F20" stroke-miterlimit="10" d="M334.8,410.1c-0.3,1.7-0.7,3.9-1.2,6.6l-0.4,0
	c-8.2-0.4-18.1-6.8-22.9-10.2l-3-26l-18.1-19.1l-14.4,10.5l-2.2,28l-7.5,6.3l2.5-36.5l22.4-16.9l26.8,22.2l0.3,26.2l13.1,9.3
	L334.8,410.1z"/>
<path fill="#FFFFFF" stroke="#231F20" stroke-miterlimit="10" d="M333.6,416.6c-0.9,4.9-1.9,11.2-3,18.4c0,0,0,0,0,0
	c-16.5,17.5-31.1,2.2-36.1-4.9c-4.8,3.9-32.1,21.3-38,25.1l-1.6-5.7l-0.9-1.2l9.9-28l1-14.3l7.5-6.3l-0.1,1.9l13.6-5.6l24.3,11.1
	l-0.1-0.8c4.9,3.5,14.7,9.8,22.9,10.2L333.6,416.6z"/>
<path fill="#FFFFFF" stroke="#231F20" stroke-miterlimit="10" d="M326.8,492.8c-5.9,3-15.4,6-30.5,6.6c-17.6,0.7-30.2-4.4-37.6-8.6
	l-0.3-14.8l-5.3-16.3l4.1-1.8l-0.8-2.8c5.9-3.8,33.1-21.2,38-25.1c5,7.1,19.6,22.3,36.1,4.9C328,452.6,325.7,475.2,326.8,492.8z"/>
<path fill="#FFFFFF" stroke="#231F20" stroke-miterlimit="10" d="M330,515.4c-5.8-1.4-14.3-2.4-26.7-2c-29.6,0.9-41.8,2.5-44.1,6.8
	l-0.5-29.4c7.5,4.1,20.1,9.2,37.6,8.6c15-0.6,24.6-3.7,30.5-6.6c0,0.8,0.1,1.5,0.2,2.3C327.5,501.1,328.6,508,330,515.4z"/>
<path fill="#FFFFFF" stroke="#231F20" stroke-miterlimit="10" d="M259.4,655.7l-7.6-1.8l2-59.2l-4.7-3.8l21.9-37.4
	c7.9,1.1,21.2,2.9,21.2,2.9S251.8,612.8,259.4,655.7z"/>
<path fill="#FFFFFF" stroke="#231F20" stroke-miterlimit="10" d="M368.7,638.8c-0.2,0.5-0.4,1-0.6,1.5c-4.8,11.3-36.4,33.7-60,49.8
	c-10.7,7.2-19.7,13.1-24,16.1c-12.5-14.3-24.8-50.4-24.8-50.4c-7.6-42.8,33-99.1,33-99.1s-13.4-1.8-21.2-2.9l16.6-28.3l-28.3-0.9
	l-0.1-4.3c2.4-4.3,14.5-6,44.1-6.8c12.4-0.3,20.9,0.7,26.7,2c4.7,23.7,13.4,52,21.7,70.1c3.5,7.7,7,13.6,9.9,16.5
	c0.1,0.1,0.2,0.2,0.3,0.3C369.1,612,374.8,623.2,368.7,638.8z"/>
<polygon fill="#FFFFFF" stroke="#231F20" stroke-miterlimit="10" points="287.6,525.4 271.1,553.6 249.1,591 251.5,557.4 255.3,556 
	256.1,534.7 253.2,533.2 252.3,527.1 259.4,524.5 "/>
<path fill="#FFFFFF" stroke="#231F20" stroke-miterlimit="10" d="M376.5,431.3L376.5,431.3c-12.9,8-27.3,10-33.2,10.5l-0.7-2.7
	c6-1.5,23.8-6.3,32.6-11.3C375.6,429,376.1,430.1,376.5,431.3z"/>
<path fill="#FFFFFF" stroke="#231F20" stroke-miterlimit="10" d="M381,444.7c-13.2,13.2-33.8,11.7-33.8,11.7l-3.9-14.5
	c5.9-0.5,20.3-2.5,33.2-10.5C378.4,436.5,380,441.2,381,444.7z"/>
<polygon fill="#FFFFFF" stroke="#231F20" stroke-miterlimit="10" points="310.3,407.2 286,396.1 272.4,401.7 272.5,399.8 
	274.7,371.8 289.1,361.3 307.2,380.3 310.2,406.3 "/>
<path fill="#FFFFFF" stroke="#231F20" stroke-miterlimit="10" d="M381.4,671.3c-5.4,9.9-20.1,33.8-20.6,34.6c0,0,0,0,0,0
	s-12.1,17.5-27.6,20.6c-15.6,3.1-36.2-14.8-36.2-14.8s8.1-8.9,11-21.8c23.6-16,55.2-38.5,60-49.8c0.2-0.5,0.4-1,0.6-1.5
	C374,646,385.7,663.4,381.4,671.3z"/>
<path fill="#FFFFFF" stroke="#231F20" stroke-miterlimit="10" d="M438.1,587.9c0,0-0.1,0-0.1,0c0,0.1,0.1,0.2,0.1,0.2
	c-0.9,14.8-3,37.2-4.9,47.9c-0.3,2-0.7,3.6-1,4.7c-2.6,9-5.8,14.9-15.7,26c-8.1,9.1-21.2,19.1-25.6,22.5
	c-14.1,3.2-29.5,16.2-30.1,16.7c0.5-0.8,15.2-24.6,20.6-34.6c4.3-7.9-7.4-25.4-12.7-32.6c6.1-15.6,0.4-26.8-6.7-36.5
	c-0.1-0.1-0.2-0.2-0.3-0.3l55.5-12.7l18.7-26.7c1,4,2.1,8.8,2.5,12.6C438.6,577.3,438.5,582,438.1,587.9z"/>
<path fill="#FFFFFF" stroke="#231F20" stroke-miterlimit="10" d="M648.5,620c-2.5-0.4-5.5-0.2-8.2,1.8c-0.9-8.5-7.4-22.9-9.3-27
	c2.2,0.2,4.4,0.1,6.5-0.6c0,0,3.4-1.3,8-4.6C645.5,597,645.7,611.3,648.5,620z"/>
<path fill="#FFFFFF" stroke="#231F20" stroke-miterlimit="10" d="M715.4,801.8c0,0-1.5,17.2-6.4,42.2c-4.6,0.9-9.7,1.6-15,2.2
	c4.7-21.8,2.7-42.2,0.3-54.8c7.2,1.6,14.3,3.4,20.6,5.4L715.4,801.8z"/>
<path fill="#FFFFFF" stroke="#231F20" stroke-miterlimit="10" d="M708.9,844c-0.4,1.8-0.7,3.7-1.1,5.6c-5.1,0.9-10.2,1.6-15.2,2.3
	c-5.2,0.7-10.4,1.3-15.5,1.8c-17.9,1.8-35.1,2.5-51.4,2.5c5.6-2,10.5-4.5,14.7-7.4c6.8,0,22-0.1,38-1.2c5.2-0.3,10.4-0.8,15.5-1.4
	C699.2,845.6,704.3,844.9,708.9,844z"/>
<path fill="#FFFFFF" stroke="#231F20" stroke-miterlimit="10" d="M537.7,840.9c-41.1-6.6-58.4-14.3-62.6-16.4
	c2.5-13.1,3.1-34.5,3.2-44.1c2.8-0.1,8.5-0.2,15.7-0.3C497.1,791,508.3,821.6,537.7,840.9z"/>
<path fill="#FFFFFF" stroke="#231F20" stroke-miterlimit="10" d="M713.1,777.9l0.7,7.3c-1.8-1.3-3.9-2.9-6.2-4.6
	c-5.3-4.1-10.3-1.6-15.9-0.4c-1.9,0.4-3.8,0.6-5.9,0.4c-1.8-0.2-4.1-0.4-6.8-0.8c-1.9-0.3-4.1-0.6-6.4-0.9c-9.5-1.5-21.3-4.1-31.2-8
	c-15.5-6.2-7.4-4.3-26.8-7c-15.7-2.2-24.8,1.2-31.6,2.6c-0.4,0.1-0.7,0.1-1,0.2c-1.2,0.2-2.4,0.4-3.6,0.4c-7.4,0-11.7-1.2-14.8-1.9
	c-3.1-0.8-10.1-2.7-19.4-5c-9.3-2.3-10.5,3.9-15.6,6.2c-5.1,2.3-5.1-1.6-16.3-4.3c-11.3-2.7-5.1,3.5-18.7,5.8
	c-13.6,2.3-9.3-1.6-15.2-1.9c-2.7-0.2-5.8,0.8-8.2,1.9l-6.7-6.6c0,0,0,0,0,0c2.5-5.9,7.1-14.6,11.9-13.4c0.6,0.1,1.3,0.5,1.9,1
	c8,6.4,2.7,9.5,9.7,8.4c6-1,9-10.6,17-12.9c1.4-0.4,3-0.6,4.7-0.5c11.9,0.8,7,10.7,13.8,5.8c6.8-4.9-4.7-6.2,8.2-5.4
	c11.2,0.7,30.8,5.5,39,8h0c1.2,0.4,2.1,0.7,2.8,0.9c5.1,1.9,6.6,2.3,16.3,1.2c9.7-1.2,9.3-5.4,22.2-3.9c6.5,0.8,8.8,0.6,11.2,0.6
	c2.4,0,4.8,0.2,11.4,1.8c13.2,3.1,13.2-0.4,17.5,4.7c4.3,5.1-3.1,1.6,12.5,6.2c3.3,1,6.2,1.7,8.7,2.2c9.3,1.8,14,0.3,18.9-1.8
	c2.5-1.1,4.1-2.3,5.7-3.2c2.4-1.3,4.5-1.6,8.7,1.2c5.6,3.8,6.7,2.5,9.8,4.1L713.1,777.9z"/>
<path fill="#FFFFFF" stroke="#231F20" stroke-miterlimit="10" d="M560.6,851.9c-51.9-6.7-85.2-18.6-89-17.4c1.4-1.7,2.5-5.3,3.4-9.9
	c4.2,2.1,21.5,9.8,62.6,16.4c1.8,0.3,3.7,0.6,5.7,0.9c1,0.1,2.1,0.3,3.1,0.5C550.3,846,555,849.2,560.6,851.9z"/>
<path fill="#FFFFFF" stroke="#231F20" stroke-miterlimit="10" d="M526.7,461.5c-4.6,3.7-18.4,15.7-26.4,32.2c0,0,0,0,0,0
	c-4.8,6.5-9.7,13.1-13.4,18.5c-1.9,2.7-4.2,5.2-6.8,7.5c-6.1,5.3-14,9.4-22.8,12.5c-7.5,2.6-15.6,4.4-24,5.6
	c-22.4,3.2-20.1,7.9-47.5,26.8c6.5-18.1,21.5-31,31.1-37.8c1.1-0.2,2.1-0.4,3.1-0.7c8.8-0.3,21.8-1.7,27.6-7
	c9.3-8.5,22.7-23.6,37.6-32.1c12.1-6.9,32.2-23.1,39.2-28.8C525,459.4,525.8,460.4,526.7,461.5z"/>
<path fill="#FFFFFF" stroke="#231F20" stroke-miterlimit="10" d="M480.1,549.8c-4.8,7.3-21.2,29.8-41.9,38.1
	c0.3-6,0.5-10.6,0.2-12.7c-0.4-3.8-1.5-8.6-2.5-12.6l21.2-30.3c8.8-3.1,16.7-7.2,22.8-12.5C477.9,527.5,476.3,538.8,480.1,549.8z"/>
<path fill="#FFFFFF" stroke="#231F20" stroke-miterlimit="10" d="M457.1,532.3l-21.2,30.3l-18.7,26.7L361.7,602
	c-3-2.9-6.4-8.8-9.9-16.5c3.5-11.4,13.4-41.8,24-65.1l1.8,0.8c21-12.8,21.8-14,38.9-19c12.6-3.7,25.9-8.7,32-11.1
	c-0.8,1.5-1.7,3.1-2.8,4.8c-1.4,2.2-3.1,4.7-5.2,7.3c-10.8,14-36.2,20.4-52.5,26.5c-16.3,6.1-23,32.4-17.5,56.6
	c-3.5-35.3,22.2-56.6,39.4-58.3c2.4-0.2,4.7-0.6,6.9-1c-9.6,6.7-24.6,19.6-31.1,37.8c27.4-18.9,25.1-23.6,47.5-26.8
	C441.5,536.7,449.7,534.9,457.1,532.3z"/>
<path fill="#FFFFFF" stroke="#231F20" stroke-miterlimit="10" d="M715.7,484.5c-0.9,6.9-4.3,27.4-12,39.4c-2.6,4-6.6,8.8-11.2,13.7
	c-9.3,9.8-21,19.8-27.5,24.1c3.3-12.4,3.5-27.4,3.3-34.7c5.8-6.2,11-12.6,13.3-19.2c5.2-15.1,0.4-48-0.7-54.8c1,0.6,2.2,0.9,3.6,1
	l0,0.6c0,0-0.8,7.9,9.1,9.4c0,2.9,1,9.2,9.1,10.6c0.2,0,0.3,0,0.5,0.1C705.3,477,710.2,482.1,715.7,484.5z"/>
<path fill="#FFFFFF" stroke="#231F20" stroke-miterlimit="10" d="M699.4,453.6c-5-0.7-10.6,0.8-14.8,0.4c-1.4-0.1-2.6-0.4-3.6-1v0
	c-0.1,0-0.2-0.1-0.3-0.2c-3.6-2.5-6-7.1-7-9.7c8,3.5,18.9,1.8,18.9,1.8S699.7,444,699.4,453.6z"/>
<path fill="#FFFFFF" stroke="#231F20" stroke-miterlimit="10" d="M711.3,464.7c-2.8-0.9-6.2-1.2-10.5-0.7c-2.9,0.3-5.3,0.3-7.2,0
	c-9.9-1.4-9.1-9.4-9.1-9.4l0-0.6c4.2,0.3,9.8-1.1,14.8-0.4c2.1,0.3,4.1,0.9,5.8,2.2C705.2,455.8,709.5,459.4,711.3,464.7z"/>
<path fill="#FFFFFF" stroke="#231F20" stroke-miterlimit="10" d="M721.2,472.9c-4.4-0.6-10.3,3-18.1,1.8c-0.2,0-0.3,0-0.5-0.1
	c-8.1-1.4-9.1-7.7-9.1-10.6c1.9,0.3,4.3,0.3,7.2,0c4.3-0.5,7.7-0.1,10.5,0.7C717.4,466.6,720.2,470.7,721.2,472.9z"/>
<path fill="#FFFFFF" stroke="#231F20" stroke-miterlimit="10" d="M732.3,486.8c-0.5-0.1-1-0.2-1.6-0.2c-2.4-0.3-5.7-0.5-10.1-0.7
	c-0.9-0.1-1.9-0.2-2.9-0.5c-0.7-0.2-1.4-0.5-2.1-0.8c-5.5-2.4-10.4-7.5-12.5-9.8c7.8,1.2,13.7-2.3,18.1-1.8c1.5,0.2,2.8,0.8,3.9,2.3
	C725.2,475.2,730.8,483.1,732.3,486.8z"/>
<path fill="#FFFFFF" stroke="#231F20" stroke-miterlimit="10" d="M739.6,505.9c-2.8-2.7-9.6-5.7-14.6-8.1c-2.5-1.2-4.5-2.2-5.4-2.9
	c-1.9-1.7-2-7-1.8-9.6c0.9,0.3,1.9,0.5,2.9,0.5c4.4,0.3,7.7,0.5,10.1,0.7C732.9,490.6,737.6,499.7,739.6,505.9z"/>
<path fill="#FFFFFF" stroke="#231F20" stroke-miterlimit="10" d="M747.3,521.1c-2.5-1.5-6.3-2.7-12-3.6c-0.9-0.1-1.7-0.3-2.4-0.6
	c-8.2-3-8.2-14.1-7.8-19.2c5,2.4,11.8,5.4,14.6,8.1c0.6,1.7,0.9,3.2,0.9,4.3C740.5,510.2,747,514.5,747.3,521.1z"/>
<path fill="#FFFFFF" stroke="#231F20" stroke-miterlimit="10" d="M751.4,535.1c-4.2-3.3-9.5-4-12.6-4.1c-1.6,0-2.6,0-2.6,0
	c-5.8-3.9-4.3-11.1-3.4-14c0.7,0.3,1.5,0.5,2.4,0.6c5.7,0.9,9.5,2.1,12,3.6C753.2,524.7,751.7,529.8,751.4,535.1z"/>
<path fill="#FFFFFF" stroke="#231F20" stroke-miterlimit="10" d="M756.7,558c0,0.4-0.1,0.6-0.1,0.6s-3-0.4-6.8-2.6
	c-2.1-1.2-4.5-3-6.8-5.6c-0.3-0.3-0.5-0.6-0.8-0.9c-5-6.4-4.1-15.1-3.4-18.5c3.1,0.1,8.4,0.8,12.6,4.1c2.4,1.9,4.4,4.6,5.4,8.5
	C757.8,547.5,756.9,555.7,756.7,558z"/>
<path fill="#FFFFFF" stroke="#231F20" stroke-miterlimit="10" d="M791.2,555.1l-0.6,18.7c0,0-11.5-7.5-23.3-0.8
	c-2.3-6.4-5.8-12-10.6-15c0.3-2.3,1.1-10.5,0.1-14.4c-1-3.9-3-6.7-5.4-8.5c0.4-5.3,1.8-10.4-4.1-13.9c-0.3-6.6-6.8-11-6.8-11
	c0-1.1-0.3-2.6-0.9-4.3c-2-6.2-6.7-15.3-8.9-19.3c0.6,0.1,1.1,0.1,1.6,0.2c-1.5-3.7-7.1-11.6-7.1-11.6c-1.1-1.5-2.4-2.1-3.9-2.3
	c-1-2.2-3.8-6.4-9.9-8.2c-1.8-5.3-6.1-8.9-6.1-8.9c-1.8-1.3-3.7-1.9-5.8-2.2c0.4-9.6-6.9-8.6-6.9-8.6c0.1-2.3-0.5-4.6-1.6-6.8
	c15.7,6.2,48.1,20.6,60.7,37.5C768.5,498.5,791.2,555.1,791.2,555.1z"/>
<path fill="#FFFFFF" stroke="#231F20" stroke-miterlimit="10" d="M770,601.2c-2.5,11.1-8,29-22.7,37.7c3.5-6.3,4.3-15.2,3-25.7v0
	c-0.8-6.7-2.4-14.1-4.6-21.7c-4.3-14.8,1.2-29.3,4.1-35.4c3.8,2.2,6.8,2.6,6.8,2.6s0-0.2,0.1-0.6c4.8,3,8.3,8.6,10.6,15
	C770.8,582.8,771.5,594.5,770,601.2z"/>
<path fill="#FFFFFF" stroke="#231F20" stroke-miterlimit="10" d="M806.4,769.7c-19.7,6.8-35.6,5.7-45.7,3.4c0-0.7-0.1-1.4-0.1-2
	c-16.6-17.8-27.4-49.9-32.5-67.9v0l0.7-3.5l21.5-86.5c1.2,10.5,0.5,19.4-3,25.7c14.8-8.8,20.2-26.6,22.7-37.7
	c1.5-6.7,0.8-18.3-2.7-28.2c11.9-6.7,23.3,0.8,23.3,0.8l0.6-18.7c2.3,24.1-0.4,55.2,2.3,71.5c2.7,16.3,12.8,22.5,21.8,41.6
	c8.9,19,15.2,78.1,15.2,78.1s0.6,0.1,1.5,0.2c0,0,0,0,0,0C833.4,749.1,836.7,759.3,806.4,769.7z"/>
<path fill="#FFFFFF" stroke="#231F20" stroke-miterlimit="10" d="M812.2,780.6c-25.6,7.1-43.6,3-50.9,0.6v0c-0.3-3.2-0.5-5.9-0.6-8
	c10.1,2.3,26,3.4,45.7-3.4c30.3-10.4,27.1-20.6,25.7-23.1c2.1,0.3,5.6,1,7.4,2.4C840.2,754.8,840.4,772.8,812.2,780.6z"/>
<path fill="#FFFFFF" stroke="#231F20" stroke-miterlimit="10" d="M850.1,915.9c-0.2,4.9-0.5,9.6-0.8,14.1c-27.6,2.4-61-3.4-68.7-4.9
	c-0.1-1.3-0.3-2.6-0.5-3.8c-4.1-29.4-15.8-108.1-18.8-140.1c7.2,2.4,25.3,6.5,50.9-0.6c28.2-7.8,28-25.8,27.2-31.6
	c0.3,0.3,0.6,0.6,0.8,0.9c0.9,1.5,4.6,18.2,7.5,48.3l-31.2,81.1l17.1,1.2l1.5,0.7l-14,31.6L850.1,915.9z"/>
<path fill="#FFFFFF" stroke="#231F20" stroke-miterlimit="10" d="M850.6,846.2L850.6,846.2l-15.5,35l-1.5-0.7l-17.1-1.2l31.2-81.1
	C848.9,811.6,850,827.6,850.6,846.2z"/>
<path fill="#FFFFFF" stroke="#231F20" stroke-miterlimit="10" d="M850.7,899.2c-0.1,5.8-0.3,11.4-0.6,16.8l-29-3.2l14-31.6l15.5-35
	C851.1,862,851.2,879.7,850.7,899.2z"/>
<path fill="#FFFFFF" stroke="#231F20" stroke-miterlimit="10" d="M563.7,773.4c-4.6,1.9-9,4.3-12.9,7.1h0
	c-13.7-0.7-35.3-0.6-51.7-0.4c-1.8,0-3.5,0-5.2,0.1c-7.1,0.1-12.8,0.2-15.7,0.3c0-2.2,0-3.8,0-4.5c11.9-1.3,54.3-5.4,83.1-2.8
	C562.2,773.3,562.9,773.3,563.7,773.4z"/>
<path fill="#FFFFFF" stroke="#231F20" stroke-miterlimit="10" d="M645.7,783.9c-2.5-2.5-5.3-4.8-8.6-6.9h0
	c-8.3-5.3-19.5-9.2-34.4-10.4c-5.7-0.5-12.4-0.1-19.3,1.1c-0.3,0-0.7,0.1-1,0.2c-6.2,1.2-12.6,3-18.6,5.5h0c-4.6,1.9-9,4.3-12.9,7.1
	h0c-9.1,6.4-15.7,15.2-16.6,26.2c-1.1,14.3,2.9,26.5,12.3,35.6c3.8,3.7,8.5,7,14.1,9.6c8.6,4.1,19.4,6.9,32.3,8
	c12.6,1.2,23.6-0.5,32.8-3.7c0,0,0,0,0,0c5.6-2,10.5-4.5,14.7-7.4c12-8.2,18.6-18.9,19.4-26.2C660.7,814.1,658.8,797.1,645.7,783.9z
	 M644.6,823c-2.3,12.1-19.8,25.3-51.7,24.1c-31.9-1.2-59.5-27.6-44.3-49c15.2-21.4,49.8-17.1,49.8-17.1
	C638,781.7,647,810.9,644.6,823z"/>
<path fill="#FFFFFF" stroke="#231F20" stroke-miterlimit="10" d="M644.6,823c-2.3,12.1-19.8,25.3-51.7,24.1
	c-31.9-1.2-59.5-27.6-44.3-49c15.2-21.4,49.8-17.1,49.8-17.1C638,781.7,647,810.9,644.6,823z"/>
<path fill="#FFFFFF" stroke="#231F20" stroke-miterlimit="10" d="M678.4,847.5c-16,1.1-31.2,1.2-38,1.2c12-8.2,18.6-18.9,19.4-26.2
	c0.9-8.4-0.9-25.5-14.1-38.6c7.1,0.7,20,2.2,34.1,4.6C680.9,802.5,682.1,828.4,678.4,847.5z"/>
<path fill="#FFFFFF" stroke="#231F20" stroke-miterlimit="10" d="M694,846.2c-5.1,0.6-10.3,1-15.5,1.4c3.6-19.1,2.4-45,1.4-59
	c4.8,0.8,9.6,1.7,14.5,2.8C696.6,803.9,698.7,824.4,694,846.2z"/>
<path fill="#FFFFFF" stroke="#231F20" stroke-miterlimit="10" d="M665.8,681.1c-1,7.6-3.5,14.5-6.6,20.2c-8,14.8-19.5,22.4-16.7,18
	c1.4-2.2,2.9-6.5,3.6-12c1.1-8.7,0.1-20.5-6.7-31.8c-0.6-1-1.2-1.9-1.8-2.9c-13.4-19.2,0.6-48.7,0.6-48.7c0.7-0.9,1.4-1.6,2.2-2.2
	c2.7-2,5.7-2.2,8.2-1.8c3.1,0.5,5.4,1.9,5.4,1.9s6,12.4,9.7,28.3c1.1,4.8,2,10,2.5,15.3C666.5,670.6,666.5,675.9,665.8,681.1z"/>
<path fill="#FFFFFF" stroke="#231F20" stroke-miterlimit="10" d="M569.9,752.1c-8.2-2.5-27.8-7.3-39-8c-12.8-0.8-1.4,0.6-8.2,5.4
	c-6.8,4.9-1.9-5.1-13.8-5.8c-1.8-0.1-3.3,0.1-4.7,0.5c-4.5-19.6-10.6-33.9-16.3-44c-4.2-7.5-8.1-12.8-11-16.1
	c11.9-2.6,20.5-15.1,24.6-22.5l4.5,2l0.2-0.1l1.5,15.2c0,0,1.7-0.2,4.8-0.3l1,22.9c0,0,2,0.2,5.7,0.9l-0.7,23.3
	C518.7,725.4,550.4,735.6,569.9,752.1z"/>
<path fill="#FFFFFF" stroke="#231F20" stroke-miterlimit="10" d="M669.9,696.7c0,4.2-0.2,9.5-0.9,15.9c-0.3,3.6-0.8,7.4-1.4,11.6
	c-17,3.7-36.3,19-45.2,26.6c-2.4,0-4.7,0.2-11.2-0.6c-12.8-1.6-12.4,2.7-22.2,3.9c-9.7,1.2-11.3,0.8-16.3-1.2
	c-0.6-0.2-1.6-0.6-2.8-0.9h0c-19.5-16.4-51.2-26.7-51.2-26.7l0.7-23.3c12.2,2.2,42.3,9.5,77.5,32.2c16.4-10.8,34.8-20.2,49.3-27
	c-0.7,5.5-2.2,9.7-3.6,12c-2.7,4.4,8.8-3.1,16.7-18C663.9,699.2,667.6,697.7,669.9,696.7z"/>
<path fill="#FFFFFF" stroke="#231F20" stroke-miterlimit="10" d="M689.1,714.9c0,0-15,33.2-16.7,50.8c-2.5-0.5-5.4-1.2-8.7-2.2
	c-15.6-4.7-8.2-1.2-12.5-6.2c-4.3-5.1-4.3-1.6-17.5-4.7c-6.5-1.6-9-1.8-11.4-1.8c8.9-7.7,28.2-22.9,45.2-26.6
	c0.6-4.2,1.1-8,1.4-11.6L689.1,714.9z"/>
<path fill="#FFFFFF" stroke="#231F20" stroke-miterlimit="10" d="M715.3,671.2c-5.4,17.5-16.4,56.2-18.3,89.5
	c-1.6,0.8-3.2,2.1-5.7,3.2c-4.9,2.1-9.6,3.6-18.9,1.8c1.7-17.6,16.7-50.8,16.7-50.8l-20.1-2.3c0.6-6.3,0.8-11.7,0.9-15.9
	c0.6-0.2,1.1-0.4,1.5-0.6c0.8-0.3,1.2-0.5,1.2-0.5s5.8-29.2,5.8-30.6c0-1.2-1.6-2.3-12.4,0.4c-0.5-5.3-1.4-10.4-2.5-15.3
	c0.9,0.1,13.2,1.8,25,4.1c0.2-1.7,1.3-3.6,3.1-5.5c-0.4,8.2,0.9,24.9,18.5,23.5C712,672.2,713.7,671.8,715.3,671.2z"/>
<path fill="#FFFFFF" stroke="#231F20" stroke-miterlimit="10" d="M504.2,744.1c-8.1,2.3-11.1,11.9-17,12.9c-7,1.2-1.8-1.9-9.7-8.4
	c-0.6-0.5-1.3-0.8-1.9-1c-1.1-16.1-5.1-43.3-5.1-43.3l17.5-4.3C493.6,710.2,499.7,724.6,504.2,744.1z"/>
<path fill="#FFFFFF" stroke="#231F20" stroke-miterlimit="10" d="M583.4,767.7c-0.3,0-0.7,0.1-1,0.2c-6.2,1.2-12.6,3-18.6,5.5h0
	c-0.8-0.1-1.6-0.1-2.3-0.2c-28.8-2.7-71.2,1.5-83.1,2.8c0-0.3,0-0.4,0-0.4l-8-7.8c2.5-1.1,5.5-2.1,8.2-1.9c5.8,0.4,1.6,4.3,15.2,1.9
	c13.6-2.3,7.4-8.6,18.7-5.8c11.3,2.7,11.3,6.6,16.3,4.3c5.1-2.3,6.2-8.6,15.6-6.2c9.3,2.3,16.3,4.3,19.4,5c3.1,0.8,7.4,1.9,14.8,1.9
	c1.1,0,2.3-0.1,3.6-0.4c0.3-0.1,0.7-0.1,1-0.2L583.4,767.7z"/>
<path fill="#FFFFFF" stroke="#231F20" stroke-miterlimit="10" d="M714.9,796.8c-6.3-2.1-13.4-3.9-20.6-5.4c-4.8-1-9.7-2-14.5-2.8
	c-14.1-2.4-27.1-3.9-34.1-4.6c-2.5-2.5-5.3-4.8-8.6-6.9c14.2,0.9,28.7,2.1,42.1,3.9c4.6,0.6,9,1.3,13.3,2.1
	c7.9,1.4,15.2,3.1,21.6,5.1L714.9,796.8z"/>
<path fill="#FFFFFF" stroke="#231F20" stroke-miterlimit="10" d="M714.1,788.1c-6.4-2-13.7-3.7-21.6-5.1c-4.3-0.8-8.7-1.5-13.3-2.1
	c-13.4-1.8-27.9-3-42.1-3.9h0c-8.3-5.3-19.5-9.2-34.4-10.4c-5.7-0.5-12.4-0.1-19.3,1.1l-0.2-1.3c6.8-1.4,15.9-4.7,31.6-2.6
	c19.4,2.7,11.3,0.8,26.8,7c9.8,3.9,21.7,6.5,31.2,8c2.3,0.4,4.5,0.7,6.4,0.9c0.1,0,0.2,0,0.3,0c2.6,0.3,4.8,0.6,6.5,0.8
	c2,0.2,4,0,5.9-0.4c5.6-1.2,10.7-3.6,15.9,0.4c2.2,1.7,4.3,3.3,6.2,4.6L714.1,788.1z"/>
<path fill="#FFFFFF" stroke="#231F20" stroke-miterlimit="10" d="M600.4,538.2c-0.8,1.8-2.3,5.4-3,9.2c-10.6-14-21.3-37.5-25.7-47.7
	c5.7,3.5,10.5,5.9,13.4,6.7c0.1-3.3,0.3-6.8,0.8-10.4c2.9,8,7.9,20.7,13.6,30.6c-0.8,1.7-1.3,3.7-1.2,5.8
	C598.4,534.2,599.2,536.1,600.4,538.2z"/>
<path fill="#FFFFFF" stroke="#231F20" stroke-miterlimit="10" d="M599.5,559.2c-0.6,2.6-1.3,6.1-1.8,9.4
	c-7.6-9.7-31.7-39.4-40.6-51.2c-8.4-11.2-5.2-26.3-4.1-30.7c6.5,5.1,13,9.6,18.6,13.1c4.4,10.2,15.2,33.7,25.7,47.7
	c-0.7,3.6-0.8,7.4,0.9,10.1C598.7,558.2,599.1,558.7,599.5,559.2z"/>
<path fill="#FFFFFF" stroke="#231F20" stroke-miterlimit="10" d="M597.7,577c-1.3,1.1-2.5,2.1-3.4,3h0c-3.1-3.2-9.9-9.1-14.9-13.4v0
	c-8.7-19.2-31.4-34.8-39.3-51.2c-8.3-17.3,0.1-33.1,2.7-37.4c3.3,3,6.8,5.9,10.3,8.6c-1.2,4.3-4.4,19.5,4.1,30.7
	c8.8,11.7,33,41.5,40.6,51.2C597.3,572,597.1,575.2,597.7,577z"/>
<path fill="#FFFFFF" stroke="#231F20" stroke-miterlimit="10" d="M557.9,644.9c0.1,1.5,0.1,3,0.1,4.7h-0.1
	c-2.7-12.8,2.3-46.3-2.3-66.5c-4.7-20.2-29.5-46.3-32.3-72.7c-2.1-20.2,9.6-31.7,15.3-36.1c1.3,1.3,2.7,2.6,4.1,3.8
	c-2.6,4.3-11,20.1-2.7,37.4c7.9,16.4,30.5,32,39.3,51.2v0c2,4.5,3.3,9.2,3.5,14.1C583.6,606.8,557.2,625.5,557.9,644.9z"/>
<path fill="#FFFFFF" stroke="#231F20" stroke-miterlimit="10" d="M568,707.1c-4.4-4.1-9-12.5-13.1-22.5
	c-4.9-12.2-8.9-26.8-10.6-39.1c-0.1-0.6-0.2-1.2-0.2-1.8v0c-0.3-2.9-0.5-5.6-0.6-8.1c-0.2-10.2-0.8-18.8-1.8-25.9c0,0,0,0,0,0
	c-0.1-6.7-0.7-13.4-1.9-19.6c-4.7-23-35.6-47.8-34.1-75.5c1.2-21.8,19.3-39.6,26.9-46.2c1.9,2,3.9,4,6,5.9
	c-5.7,4.4-17.4,15.9-15.3,36.1c2.7,26.4,27.6,52.5,32.3,72.7c4.7,20.2-0.4,53.6,2.3,66.5h0.1c0.3,11.3,0.3,25.1,2.3,36.9
	C561.7,694.9,564,702.3,568,707.1z"/>
<path fill="#FFFFFF" stroke="#231F20" stroke-miterlimit="10" d="M555,684.6c-19.3-6-34.9-6.5-42.4-6.3c-3.1,0.1-4.8,0.3-4.8,0.3
	l-1.5-15.2l38.1-18C546,657.9,550.1,672.5,555,684.6z"/>
<path fill="#FFFFFF" stroke="#231F20" stroke-miterlimit="10" d="M637.5,672.6c0.7,0.9,1.3,1.9,1.8,2.9
	c-21.5,10.2-49.2,25.4-49.2,25.4c-10.4-6.5-20.5-11.1-29.9-14.4c-1.9-11.8-2-25.6-2.3-36.9c0-1.6-0.1-3.2-0.1-4.7
	c-0.8-19.4,25.7-38.1,24.9-64.2c-0.1-5-1.4-9.6-3.5-14.1c5.1,4.3,11.8,10.2,14.9,13.4c-0.6,0.6-1.1,1.1-1.3,1.6
	c-1.5,2.4-2.6,6.9-1.2,11.1c0,0,0,0,0,0c-2.7,7.6-7.7,24.8-5.5,38.6c2.9,18.4,11.1,32.7,9.9,43.7c16.4-26.6,17.7-65,12.2-88.8
	c0.5-0.5,1-1,1.5-1.5c2.8,2.2,12.1,9.2,21.3,10.1c1.9,4.1,8.3,18.6,9.3,27c-0.8,0.6-1.5,1.3-2.2,2.2
	C638.1,623.9,624.1,653.4,637.5,672.6z"/>
<path fill="#FFFFFF" stroke="#231F20" stroke-miterlimit="10" d="M646.1,707.3c-14.5,6.9-32.8,16.3-49.3,27
	c-35.2-22.7-65.3-30-77.5-32.2c-3.7-0.7-5.7-0.9-5.7-0.9l-1-22.9c7.5-0.2,23.1,0.2,42.4,6.3c4,10,8.7,18.4,13.1,22.5
	c-4-4.8-6.3-12.2-7.7-20.7c9.4,3.3,19.5,8,29.9,14.4c0,0,27.6-15.3,49.2-25.4C646.2,686.8,647.2,698.5,646.1,707.3z"/>
<path fill="#FFFFFF" stroke="#231F20" stroke-miterlimit="10" d="M678.4,665c0,1.5-5.8,30.6-5.8,30.6s-0.4,0.2-1.2,0.5
	c-0.4,0.2-0.9,0.4-1.5,0.6c-2.3,0.9-6,2.5-10.6,4.5c3.1-5.7,5.6-12.6,6.6-20.2c0.7-5.1,0.6-10.4,0.2-15.6
	C676.8,662.8,678.4,663.8,678.4,665z"/>
<path fill="#FFFFFF" stroke="#231F20" stroke-miterlimit="10" d="M735.1,586.3l-1,38.8c0,0-2.4,0.9-6.1,2.6
	c-9.8,4.3-28.9,13.2-36.3,21.1c-1.8,1.9-2.9,3.7-3.1,5.5c-11.8-2.2-24.1-3.9-25-4.1c-3.7-15.9-9.7-28.3-9.7-28.3s-2.3-1.4-5.4-1.9
	c-2.8-8.7-3-22.9-2.9-30.4c4.5-3.3,10.2-8.6,15-16.7c1.9-3.2,3.3-7,4.4-11.2c6.5-4.3,18.2-14.3,27.5-24.1
	C697,544.8,715.4,573.4,735.1,586.3z"/>
<path fill="#FFFFFF" stroke="#231F20" stroke-miterlimit="10" d="M743,550.4l-7.8,29.2l-0.2,6.7c-19.7-12.8-38.1-41.4-42.5-48.7
	c4.6-4.8,8.6-9.6,11.2-13.7c7.7-12,11-32.5,12-39.4c0.7,0.3,1.4,0.6,2.1,0.8c-0.1,2.6-0.1,7.9,1.8,9.6c0.8,0.7,2.9,1.8,5.4,2.9
	c-0.4,5.1-0.4,16.1,7.8,19.2c-0.9,3-2.4,10.1,3.4,14c0,0,1-0.1,2.6,0c-0.7,3.5-1.6,12.1,3.4,18.5C742.5,549.8,742.7,550.1,743,550.4
	z"/>
<path fill="#FFFFFF" stroke="#231F20" stroke-miterlimit="10" d="M750.3,613.1L750.3,613.1l-21.5,86.6l-0.7,3.5v0L715.5,766
	c-3-1.6-4.2-0.3-9.8-4.1c-4.2-2.8-6.3-2.5-8.7-1.2c1.9-33.3,12.9-72,18.3-89.5c15.6-5.8,14.9-32,12.7-43.6c3.7-1.6,6.1-2.6,6.1-2.6
	l1-38.8l0.2-6.7l7.8-29.2c2.2,2.6,4.6,4.4,6.8,5.6c-2.9,6.2-8.3,20.7-4.1,35.4C747.9,599.1,749.5,606.4,750.3,613.1z"/>
<path fill="#FFFFFF" stroke="#231F20" stroke-miterlimit="10" d="M715.3,671.2c-1.6,0.6-3.3,0.9-5.1,1.1
	c-17.6,1.3-18.9-15.3-18.5-23.5c7.4-8,26.5-16.9,36.3-21.1C730.2,639.2,730.9,665.4,715.3,671.2z"/>
<path fill="#FFFFFF" stroke="#231F20" stroke-miterlimit="10" d="M470.5,704.4c0,0,4,27.3,5.1,43.3c-4.9-1.2-9.4,7.5-11.9,13.4
	l-0.2-0.2c0,0-1.3-7.9-12-24.3c-2.1-15-0.3-31.6-4.9-38.7c-7.6-11.6,2.3-30.9,0.6-33.2c-1.3-1.7-9.7-19.5-13.9-28.6
	c1.8-10.7,4-33.2,4.9-47.9c2.6,5.3,6.4,14.9,8.4,26.6c2.9,17.5,2.3,23,2.3,23l7.8,3.5c-2.7,12-6.7,38.5,10.9,42.6
	c3.3,0.8,6.4,0.7,9.4,0.1c2.9,3.3,6.9,8.5,11,16.1L470.5,704.4z"/>
<path fill="#FFFFFF" stroke="#231F20" stroke-miterlimit="10" d="M544.4,645.5l-38.1,18l-0.2,0.1l-4.5-2l-44.8-20.1l-7.8-3.5
	c0,0,0.6-5.5-2.3-23c-2-11.8-5.8-21.3-8.4-26.6c0-0.1,0-0.2,0-0.3c20.8-8.3,37.1-30.9,41.9-38.1c0.8,2.4,1.9,4.7,3.2,7.1
	c2.2,3.8,4.5,8.1,6.6,12.8c10,22,18.1,52.7,13.8,75.5c5.8-10.8,10.3-43.5,6-61c4.1,3.3,7.7,6.5,10.1,9.1c6.5,7.2,14.8,26.6,20,39.3
	v0c0.2,7.2-0.2,11-0.4,12.2c0.2-1.2,0.7-4.9,1.3-10c0.7-6.6,1.3-15.7,1.2-25c0.9,7.1,1.6,15.7,1.8,25.9c0,2.5,0.2,5.2,0.6,8.1v0
	C544.2,644.3,544.3,644.9,544.4,645.5z"/>
<path fill="#FFFFFF" stroke="#231F20" stroke-miterlimit="10" d="M501.5,661.5c-4.1,7.4-12.7,19.9-24.6,22.5
	c-2.9,0.7-6.1,0.7-9.4-0.1c-17.5-4-13.6-30.6-10.9-42.6L501.5,661.5z"/>
<path fill="#FFFFFF" stroke="#231F20" stroke-miterlimit="10" d="M663.9,384.6c-1.1-4-2.6-8-4.1-12.1c-1.5-4-2.9-8.3-3.3-12.7
	c-0.3-3.1-0.2-6.4,0.6-9.4c-7-5.5-22.1-15.7-38.2-18c-27.2,14.8-36.5,19.4-36.5,19.4l1.2,37.3l29.9,17.1c0,0-8.8,20.1-16.6,44.3
	l2.6,0.8c9.3-28.1,32.2-54.7,35.5-58.5c-0.1-0.1-0.3-0.2-0.4-0.3c-0.1-0.1-0.3-0.2-0.4-0.3c-0.2-0.2-0.4-0.5-0.5-0.7
	c-0.2-0.3-0.3-0.6-0.4-0.9c-0.2-0.5-0.2-0.9-0.3-1.3c0-0.3-0.1-0.6-0.1-0.9c0-0.1,0-0.3,0-0.4c0-0.3,0-0.5,0-0.8
	c0-0.5,0-1.1,0.1-1.6c0-0.3,0.1-0.7,0.1-1c0.1-0.6,0.2-1.1,0.3-1.7c0.3-1.1,0.7-2.1,1.1-3.1c0.3-0.5,0.5-1,0.8-1.5
	c0.2-0.3,0.5-0.7,0.7-1c0.2-0.2,0.4-0.4,0.6-0.6c0.3-0.3,0.6-0.6,1-0.8c0.1-0.1,0.2-0.1,0.3-0.2c0.3-0.2,0.7-0.4,1.1-0.5
	c0.6-0.2,1.2-0.2,1.8,0c-0.1,0-0.2,0-0.2,0c-0.3,0-0.6,0-0.9,0c-0.2,0-0.5,0.1-0.7,0.2c-0.2,0.1-0.4,0.2-0.6,0.3
	c-0.2,0.1-0.3,0.3-0.5,0.4c-0.2,0.2-0.4,0.4-0.5,0.6s-0.3,0.4-0.5,0.6c-0.2,0.2-0.3,0.4-0.4,0.7c-0.1,0.1-0.1,0.2-0.2,0.3
	c-0.1,0.1-0.1,0.2-0.2,0.3c-0.2,0.5-0.4,0.9-0.6,1.4c-0.5,1.5-0.8,3-0.9,4.5v0c-0.1,1,0,2,0.1,3v0c0.1,0.6,0.2,1.3,0.4,1.9
	c0.1,0.2,0.1,0.4,0.2,0.5c0,0.1,0.1,0.2,0.1,0.3c0,0,0,0,0,0c0.1,0.1,0.1,0.2,0.2,0.3c0,0,0,0,0,0c0,0,0.1,0.1,0.2,0.1
	c0,0,0.1,0,0.1,0.1c0.1,0,0.3,0,0.4,0c0.2-0.1,0.4-0.1,0.6-0.2c0.8-0.3,1.8-0.8,2.8-1.3c0.5-0.2,1-0.5,1.5-0.7
	c0.8-0.4,1.6-0.7,2.4-1c0.6-0.2,1.1-0.3,1.7-0.4c0.3-0.1,0.6-0.1,0.9-0.1c0.2,0,0.4,0,0.6,0c0,0,0,0,0,0c1-0.1,1.9,0,2.9,0.2
	c0.5,0.1,1,0.2,1.5,0.4c0,0,0,0,0,0c0.5,0.2,1,0.4,1.4,0.6c0,0,0,0,0,0c0.2,0.1,0.5,0.2,0.7,0.3c0.2,0.1,0.3,0.2,0.5,0.3
	c1.9,1,3.5,2.3,5,3.5c0.2,0.2,0.4,0.3,0.6,0.5c0.2,0.1,0.4,0.3,0.6,0.5c0.4,0.3,0.8,0.6,1.2,0.8c0.2,0.1,0.4,0.2,0.5,0.3
	c0.2,0.1,0.4,0.2,0.5,0.2l0,0l0.2,0h0.1c0,0,0,0,0.1,0c0,0,0.1,0,0.1,0c0,0,0.1,0,0.1-0.1c0.1,0,0.2-0.1,0.3-0.2
	c0.1-0.1,0.2-0.2,0.3-0.4c0.2-0.3,0.5-0.7,0.6-1c0.2-0.6,0.4-1.2,0.5-1.9c0-0.2,0-0.5,0.1-0.7C664.9,388.6,664.5,386.6,663.9,384.6z
	 M636.7,361.1c-1.3,0.9-4.2,2.8-8.7,3.2c-1.5,0.2-3.2,0.2-5.1-0.1c-0.4-0.1-0.7-0.1-1.1-0.2c-7.6-1.6-18.7-9.9-18.7-9.9
	s12.4-6.6,17.5-5.5c5,1.2,14.9,4,20,8.1C641.7,357.6,638.4,359.9,636.7,361.1z"/>
<path fill="#FFFFFF" stroke="#231F20" stroke-miterlimit="10" d="M602.2,522.5c-0.9,1.1-1.9,2.5-2.7,4.2
	c-5.7-9.8-10.7-22.5-13.6-30.6v0c1.7-13.7,5.8-29.5,10.4-43.9c0.2-0.6,0.4-1.1,0.6-1.7l2.6,0.8c-2.3,7-3.8,14.1-3.9,20.9
	c-0.2,14.5,2.5,24.6,5.9,31.4v0C600.8,506.9,599.4,515.1,602.2,522.5z"/>
<path fill="#FFFFFF" stroke="#231F20" stroke-miterlimit="10" d="M636.7,361.1c-1.3,0.9-4.2,2.7-8.7,3.2c1.5-1.2,2.5-3.3,2.5-5.7
	c0-3.8-2.4-6.8-5.4-6.8c-3,0-5.4,3-5.4,6.8c0,2.2,0.9,4.2,2.2,5.4c-7.6-1.6-18.7-9.9-18.7-9.9s12.4-6.6,17.5-5.4
	c5.1,1.2,14.9,4,20,8C641.7,357.6,638.4,359.9,636.7,361.1z"/>
<path fill="#FFFFFF" stroke="#231F20" stroke-miterlimit="10" d="M630.4,358.6c0,2.4-1,4.5-2.5,5.7c-1.5,0.1-3.2,0.1-5.1-0.1
	c-0.4,0-0.7-0.1-1.1-0.2c-1.3-1.2-2.2-3.2-2.2-5.4c0-3.8,2.4-6.8,5.4-6.8C628,351.8,630.4,354.8,630.4,358.6z"/>
<path fill="#FFFFFF" stroke="#231F20" stroke-miterlimit="10" d="M543.4,841.8c-1.9-0.3-3.8-0.6-5.7-0.9
	c-29.4-19.3-40.5-49.9-43.7-60.8c1.7,0,3.4,0,5.2-0.1C502.1,789,513.1,816,543.4,841.8z"/>
<path fill="#FFFFFF" stroke="#231F20" stroke-miterlimit="10" d="M546.5,842.3c-1-0.1-2.1-0.3-3.1-0.5
	c-30.3-25.8-41.3-52.8-44.3-61.7c16.4-0.2,38-0.3,51.7,0.4c-9.1,6.4-15.7,15.2-16.6,26.2C533.1,821,537.1,833.2,546.5,842.3z"/>
<path fill="#FFFFFF" stroke="#231F20" stroke-miterlimit="10" d="M333.7,303c-5.9,6-17.3,19.1-27,30.3l-12.7-35
	c6.9-1.1,23.8-4.7,33.6-13.7L333.7,303z"/>
<path fill="#FFFFFF" stroke="#231F20" stroke-miterlimit="10" d="M326.7,282.1c-10.4,8.8-27.5,12.3-33.8,13.3l-9.3-25.8
	c5.6,0,19.2-1.3,35-11.8L326.7,282.1z"/>
<path fill="#FFFFFF" stroke="#231F20" stroke-miterlimit="10" d="M317.2,253.6c-17.6,13-30.1,12.2-35.5,10.9l-8.1-22.5
	c6.5-0.4,21.3-2.4,35.6-12.5L317.2,253.6z"/>
<path fill="#FFFFFF" stroke="#231F20" stroke-miterlimit="10" d="M307.6,224.8c-2.7,2.1-7.9,5.2-16.6,8.6c-11.1,4.2-16.8,4.5-19,4.4
	l-6.3-17.3L302,208L307.6,224.8z"/>
<path fill="#FFFFFF" stroke="#231F20" stroke-miterlimit="10" d="M309.2,229.6c-14.3,10.1-29.1,12.1-35.6,12.5l-1.6-4.3
	c2.1,0.1,7.9-0.2,19-4.4c8.7-3.3,13.8-6.5,16.6-8.6L309.2,229.6z"/>
<polygon fill="#FFFFFF" stroke="#231F20" stroke-miterlimit="10" points="384.1,165.5 364.9,176 330.5,73.4 352.7,68.7 "/>
<polygon fill="#FFFFFF" stroke="#231F20" stroke-miterlimit="10" points="203.4,241.9 174.2,234.9 198.7,229.7 "/>
<polygon fill="#FFFFFF" stroke="#231F20" stroke-miterlimit="10" points="384.1,165.5 367.8,185.4 364.9,176 "/>
<polygon fill="#FFFFFF" stroke="#231F20" stroke-miterlimit="10" points="367.8,185.4 302,208 301.7,207.1 265.2,218.8 265.8,220.5 
	203.4,241.9 198.7,229.7 364.9,176 "/>
<polygon fill="#FFFFFF" stroke="#231F20" stroke-miterlimit="10" points="352.7,68.7 330.5,73.4 325.2,61.7 "/>
<polygon fill="#FFFFFF" stroke="#231F20" stroke-miterlimit="10" points="167.2,127 142.2,139.1 142.1,138.7 162,115.4 "/>
<polygon fill="#FFFFFF" stroke="#231F20" stroke-miterlimit="10" points="330.5,73.4 167.2,127 162,115.4 207.7,100.4 279.1,76.9 
	279.2,76.9 325.2,61.7 "/>
<polygon fill="#FFFFFF" stroke="#231F20" stroke-miterlimit="10" points="198.7,229.7 174.2,234.9 142.2,139.1 167.2,127 "/>
<polygon fill="#FFFFFF" stroke="#231F20" stroke-miterlimit="10" points="364.9,176 198.7,229.7 167.2,127 330.5,73.4 "/>
<path fill="#FFFFFF" stroke="#231F20" stroke-miterlimit="10" d="M279.1,76.9l-71.4,23.5l-0.1-0.3c0,0,5.4-7.6,29-16
	C257.7,76.5,275.5,76.7,279.1,76.9z"/>
<path fill="#FFFFFF" stroke="#231F20" stroke-miterlimit="10" d="M318.6,257.9c-15.8,10.5-29.5,11.7-35,11.8l-1.9-5.1
	c5.4,1.3,17.9,2.1,35.5-10.9L318.6,257.9z"/>
<path fill="#FFFFFF" stroke="#231F20" stroke-miterlimit="10" d="M327.5,284.5c-9.8,9-26.7,12.6-33.6,13.7l-1-2.8
	c6.3-1,23.4-4.5,33.8-13.3L327.5,284.5z"/>
<path fill="#FFFFFF" stroke="#231F20" stroke-miterlimit="10" d="M375.2,427.8c-8.9,5-26.7,9.8-32.6,11.3l-7.8-29.1l25.2-2.2
	c0,0,2.6-1.9,5.7-4.7C367.9,408.7,371.8,418.5,375.2,427.8z"/>
<path fill="#FFFFFF" stroke="#231F20" stroke-miterlimit="10" d="M392.3,458.7l-43.2,21.8l-1.9-24.1c0,0,20.6,1.6,33.8-11.7
	L392.3,458.7z"/>
</svg>
