<?xml version="1.0" encoding="utf-8"?>
<!-- Generator: Adobe Illustrator 25.2.0, SVG Export Plug-In . SVG Version: 6.00 Build 0)  -->
<svg version="1.1" baseProfile="tiny" id="Layer_1" xmlns="http://www.w3.org/2000/svg" xmlns:xlink="http://www.w3.org/1999/xlink"
	 x="0px" y="0px" viewBox="0 0 1000 1000" overflow="visible" xml:space="preserve">
<path fill="#FFFFFF" stroke="#000000" stroke-miterlimit="10" d="M576.53,214.98c-4.79,1.55-8.04,3.78-9.46,5.45
	c-13.65-5.93-26.26-1.05-32.97,2.71c-0.41-0.14-0.81-0.25-1.21-0.37c4.06-4.46,7.14-9.75,7.01-11.7c-0.08-1.27-0.24-6.48-0.42-12.69
	c8.32,0.53,15.27,2.6,20.8,5.14l0.03,0.01l0.04,0.06c0,0,0-0.01,0-0.05C569.79,207.86,575.19,213.46,576.53,214.98z"/>
<path fill="#FFFFFF" stroke="#000000" stroke-miterlimit="10" d="M478.75,228.66c-1.17,0.63-2.26,1.3-3.28,1.98
	c0,0-0.04,0.03-0.11,0.09c-0.04,0.03-0.08,0.05-0.13,0.09c-0.89,0.58-1.71,1.19-2.48,1.83c0,0-10.64-5.82-24.87-4.72
	c0.76-1.23,1.64-2.41,2.6-3.54c1.83-2.17,3.96-4.15,6.22-5.93c6.88-5.44,15-9.06,19.9-10.93L478.75,228.66z"/>
<path fill="#FFFFFF" stroke="#000000" stroke-miterlimit="10" d="M411.67,361.62c-8.15,7.43-13.97,9.13-17.89,8.79
	c0.23-0.57,0.38-1.17,0.46-1.78c1.64-12.26-1.31-21.18-4.85-27.19c0.18-4.52-0.67-8.47-2.3-11.2c-2.29-3.82-4.99-4.42-7.24-3.95
	l-8.22-11.14c1.12-6.16,3.06-13.08,3.06-13.08c3.09-12.06,11.14-20.08,15.21-23.48c0.25,0.66,0.52,1.3,0.8,1.9
	c0.9,2.04,2.21,3.87,3.82,5.41l5.03,4.83c0.88,2.26,2.31,4.33,4.55,6.17c-2.13,5.17-4.34,16.61,0.46,39.87
	C406.61,346.68,409.12,354.91,411.67,361.62z"/>
<path fill="#FFFFFF" stroke="#000000" stroke-miterlimit="10" d="M450.5,224.38c-0.97,1.13-1.84,2.31-2.6,3.54
	c-5.91,0.44-12.41,2.07-19.04,5.78c-22.63,12.67-29.88,32.14-30.48,43c-0.29,5.08-0.47,9.87,1.18,14.02l-5.03-4.83
	c-1.61-1.54-2.92-3.37-3.82-5.41c-0.28-0.61-0.55-1.24-0.8-1.9c-4.37-11.26-5.32-27.61,9.55-44.36
	C413.49,218.41,440.63,222.31,450.5,224.38z"/>
<path fill="#FFFFFF" stroke="#000000" stroke-miterlimit="10" d="M573.56,279.73c-1.03,0.67-2.43,1.42-4.08,2.22
	c-12.31,5.89-39.01,14.21-39.69,14.07c-0.75-0.15-19.46-8.14-33.18-12.67c-13.74-4.52-44.22-4.98-44.22-4.98
	c-6.26-26.4,8.42-31.08,13.17-34.02c0-5.85,8.18-12.38,9.68-13.53c0.05-0.04,0.09-0.06,0.13-0.09c0.08-0.06,0.11-0.09,0.11-0.09
	c1.02-0.69,2.11-1.35,3.28-1.98c12.46-6.82,32.8-10.86,52.7-6.26c0.48,0.11,0.95,0.23,1.44,0.37c0.39,0.11,0.8,0.23,1.21,0.37
	c13.16,4.27,25.86,17.36,32.51,30.49c4.52,8.9,5.22,18.57,6.69,25.01C573.38,279.02,573.47,279.37,573.56,279.73z"/>
<path fill="#FFFFFF" stroke="#000000" stroke-miterlimit="10" d="M475.24,230.82c-1.5,1.14-9.68,7.67-9.68,13.53
	c-4.75,2.95-19.43,7.62-13.17,34.02c0,0,0,0-0.01,0.01c-0.76,0.42-30.4,16.68-37.55,23.69c-4.8-1.4-8.25-3.14-10.72-5.17
	c-2.24-1.84-3.67-3.91-4.55-6.17c-1.65-4.15-1.47-8.94-1.18-14.02c0.6-10.86,7.85-30.33,30.48-43c6.63-3.71,13.13-5.33,19.04-5.78
	c14.22-1.09,24.87,4.72,24.87,4.72C473.52,232.01,474.35,231.4,475.24,230.82z"/>
<path fill="#FFFFFF" stroke="#000000" stroke-miterlimit="10" d="M453.05,372.28c-10.5,2.68-19.96,8.99-19.96,8.99h-11.65
	c-1.94-2.95-4.46-7.25-7.09-13.13c-0.89-1.99-1.79-4.17-2.68-6.53c-2.55-6.71-5.07-14.94-7.11-24.85
	c-4.8-23.25-2.59-34.7-0.46-39.87c2.46,2.03,5.92,3.77,10.72,5.17c7.15-7.01,36.79-23.27,37.55-23.69
	c-0.32,0.39-7.11,8.89-2.25,21.56c-10.34,2.76-17.27,6.87-21.12,12.87c-3.85,5.99-3.77,35.88-3.77,35.88s0.2-0.22,0.58-0.6
	c-0.69,4.84-2.32,19.99,2.27,30.7c10.87-5.99,14.27-8.6,14.27-8.6S446.93,371.12,453.05,372.28z"/>
<path fill="#FFFFFF" stroke="#000000" stroke-miterlimit="10" d="M639.35,282.13c-2.02,4.11-4.7,7.38-7.77,9.3
	c0,0-7.99,7.14-15.19,10.45c-1.09-2.31-2.29-4.22-3.59-5.55c-9.61-9.89-34.04-16.34-39.48-17.69c-1.47-6.44-2.17-16.1-6.69-25.01
	c-6.65-13.13-19.35-26.23-32.51-30.49c6.71-3.76,19.32-8.64,32.97-2.71c1.42-1.66,4.67-3.9,9.46-5.45
	c9.7-3.12,25.69-3.43,45.54,9.45C645.43,239.58,646.88,266.82,639.35,282.13z"/>
<path fill="#FFFFFF" stroke="#000000" stroke-miterlimit="10" d="M646.29,369.66c0.14,7.16,3.28,19.3-4.94,33.92
	c-3.11-6.64-11.37-15.91-30.98-21.4c-13.3-3.71-22.82-2.46-29.03,0.34c1.63-6.49,5.14-12.99,6.68-15.68
	c5.68,7.43,9.83,9.46,9.83,9.46c14.63,5.44,23.99-12.37,26.71-15.44c2.39-2.71-0.13-41.99-8.18-58.98
	c7.2-3.31,15.19-10.45,15.19-10.45c3.07-1.92,5.75-5.18,7.77-9.3c3.24,6.11,8.95,18.59,8.31,29.21
	c-1.79,10.49-2.11,10.57-2.12,10.57C645.53,321.9,652.02,349.74,646.29,369.66z"/>
<path fill="#FFFFFF" stroke="#000000" stroke-miterlimit="10" d="M487.06,342.91c-2.26-1.24-27.53-10.74-41.16-7.81
	c-1.5-20.51,2.57-30.48,4.23-35.15c10.34-2.76,31.28,1.66,33.87,4.38c2.6,2.72,11.77,16.75,12.9,17.54
	C498.03,322.65,491.14,340.99,487.06,342.91z"/>
<path fill="#FFFFFF" stroke="#000000" stroke-miterlimit="10" d="M445.9,335.1c-9.07,2.34-17.81,10.69-20.08,12.99
	c-0.38,0.38-0.58,0.6-0.58,0.6s-0.08-29.88,3.77-35.88c3.85-5.99,10.78-10.11,21.12-12.87C448.47,304.62,444.4,314.59,445.9,335.1z"
	/>
<path fill="#FFFFFF" stroke="#000000" stroke-miterlimit="10" d="M481.85,376.98c-0.33-0.03-0.67-0.05-1.05-0.09
	c-1.8-1.49-5.68-3.47-14.67-5.35c-4.13-0.86-8.7-0.38-13.08,0.74c-6.12-1.17-10.68-2.1-10.68-2.1c-0.3-10.92-0.47-33.82,3.53-35.09
	c13.63-2.93,38.9,6.57,41.16,7.81C487.06,342.91,492.15,361.02,481.85,376.98z"/>
<path fill="#FFFFFF" stroke="#000000" stroke-miterlimit="10" d="M442.37,370.19c0,0-3.4,2.6-14.27,8.6
	c-4.6-10.71-2.96-25.86-2.27-30.7c2.27-2.3,11.01-10.66,20.08-12.99C441.9,336.37,442.06,359.27,442.37,370.19z"/>
<path fill="#FFFFFF" stroke="#000000" stroke-miterlimit="10" d="M576.67,346.75c-4.24,3.11-10.24,6.13-18.43,7.59
	c-3.61,14.54-11.9,25.29-18.54,31.84c-10.36-3.58-28.44-10.33-33.29-10.27c-6.34,0.05-23.32,4.01-23.99,2.88
	c-0.24-0.41-0.61-1.07-1.63-1.89c0.38,0.04,0.72,0.06,1.05,0.09c10.3-15.96,5.21-34.07,5.21-34.07c4.08-1.92,10.97-20.26,9.84-21.04
	c-1.13-0.79-10.3-14.82-12.9-17.54c-2.59-2.72-23.53-7.14-33.87-4.38c-4.86-12.67,1.93-21.17,2.25-21.56
	c0.01-0.01,0.01-0.01,0.01-0.01s30.48,0.46,44.22,4.98c13.73,4.53,32.44,12.52,33.18,12.67c0.67,0.14,27.38-8.18,39.69-14.07
	c-1.24,9.69-3.68,37.27,5.28,60.17C575.4,343.74,576.04,345.28,576.67,346.75z"/>
<path fill="#FFFFFF" stroke="#000000" stroke-miterlimit="10" d="M482.42,378.79c0,0-7.47,12-9.51,12.22
	c-2.03,0.23-14.48,4.31-17.88,13.82c-3.39,9.5,1.08,26.48,3.82,51.14c1.04,9.39,1.23,18.61-0.06,27.66
	c-0.85,5.92-2.34,11.76-4.65,17.53v0.01c-3.44,8.57-8.67,16.98-16.31,25.2c-1.66,1.79-3.28,3.67-4.81,5.63
	c-17.75,22.25-28.78,53.71-35.03,61.82c-6.78,8.83-15.84,28.3-11.99,38.47c3.85,10.19,19.68,29.43,21.27,33.5
	c0.5,1.27-0.09,3.54-1.18,6.53c-2.41,6.58-7.33,16.68-8.75,27.42c-20.7-7.8-25.48-32.58-27.19-36.44
	c-8.37-6.34-16.07,4.08-16.07,4.08s0.67-12.23,7.24-19.24s8.37-49.57,8.37-49.57s-3.85,1.82-10.19,1.13
	c0.69-4.29,7.02-16.29,15.85-30.1c8.83-13.8,10.41-52.06,11.32-55.68c-12.67,8.83-2.49-24.9,5.44-29.88
	c7.92-4.98,19.24-38.02,19.68-43.9c0.46-5.89-2.03-8.6-3.85-12c-1.8-3.39,7.92-13.8,7.7-14.48c-0.23-0.69-4.52-8.15-5.65-10.41
	c-1.13-2.26,2.26-21.96,2.26-21.96h20.83c0,0,9.46-6.31,19.96-8.99c4.38-1.12,8.95-1.6,13.08-0.74c8.99,1.88,12.87,3.86,14.67,5.35
	C481.82,377.72,482.18,378.38,482.42,378.79z"/>
<path fill="#FFFFFF" stroke="#000000" stroke-miterlimit="10" d="M632.7,620.52l-17.88-19.24c0,0,0.69,9.96,0,8.6
	c-0.67-1.36-9.5-11.99-9.5-11.99v9.5c0,0-1.37-1.28-3.68-3.37h-0.01c-7.2-6.49-23.48-20.73-35.46-28.09
	c-4.27-2.62-10.53-5.04-17.78-7.75c-1.6-0.6-3.26-1.22-4.95-1.84c-0.62-0.24-1.24-0.47-1.88-0.71c0,0-0.01,0-0.01-0.01
	c-12.71-4.8-27.22-10.77-38.96-20.02c-5.51-4.33-10.43-9.39-14.26-15.39c-6.22-9.72-9.8-16.66-12.31-22.06
	c-3.89-8.38-5.17-13.02-9.68-18.44c-1.24-1.5-2.74-3.05-4.6-4.76c-0.79-0.72-1.78-1.14-2.95-1.32c1.3-9.06,1.1-18.28,0.06-27.66
	c-2.74-24.66-7.21-41.64-3.82-51.14c3.4-9.51,15.85-13.59,17.88-13.82c2.04-0.22,9.51-12.22,9.51-12.22
	c0.67,1.13,17.65-2.83,23.99-2.88c4.85-0.05,22.92,6.69,33.29,10.27c3.19,1.1,5.65,1.9,6.77,2.12c4.76,0.9,19.47,11.09,20.37,13.12
	c0.91,2.04-8.37,15.16-6.78,15.85c1.57,0.67,11.09,5.65,9.27,9.5c-1.8,3.85-5.21,12.67-5.21,12.67l3.7,6.16
	c-0.18,0.88-0.1,1.87,0.39,2.97c0.34-0.13,0.74-0.25,1.17-0.36l0.14,0.22c0.38,1.21-0.22,2.86-6.22,2.86c-9.5,0-20.22,0-20.22,0
	s-15.99,13.73-16.14,17.96c1.32,0.43,3.06,0.29,4.83-0.1c-3.05,1.31-6.17,2.92-7.67,4.53c-0.36,0.38-0.62,0.76-0.77,1.14
	c-1.66,4.08,0.29,8.9,8.45,10.12c0.33,0.05,0.67,0.09,1,0.11c0.33,2.58,1.3,6.58,4.13,8.64c1.41,1.03,4.24,1.46,7.51,1.59
	c1.45,2.34,3.87,5.55,6.68,6.55c2.01,0.72,5.74,0.77,9.4,0.52c3.1,1.63,7.58,3.73,10.2,3.25c2.07-0.38,5.61-2.98,9.75-6.62
	c0,0.3,14.71,14.81,14.71,14.81s3.85-0.8,4.64-5.21c-5.77-6.1-14.12-14.35-14.12-14.35c2.77-2.6,5.64-5.38,8.42-8.08l0.01-0.01
	c3.14,4.38,5.96,8.05,7.85,9.96c7.24,7.24,6.34,32.89,11.76,53.42c5.44,20.52,20.22,43.45,20.22,43.45l-6.34-1.21
	c0,0,4.76,7.81,9.5,15.77C632.07,610.81,632.7,620.52,632.7,620.52z"/>
<path fill="#FFFFFF" stroke="#000000" stroke-miterlimit="10" d="M565.15,491.28c-0.05,1.9-1.84,3.16-3.44,3.16
	c-1.59,0-10.41,1.1-17.31,0.84c-3.26-0.13-6.1-0.56-7.51-1.59c-2.83-2.06-3.8-6.06-4.13-8.64c7.8,0.79,15.4-2.67,18.16-2.39
	c0.5,0.05,1.02-0.2,1.5-0.65c3.39,1.28,9.41,3.8,11.48,6.24C564.85,489.37,565.2,490.39,565.15,491.28z"/>
<path fill="#FFFFFF" stroke="#000000" stroke-miterlimit="10" d="M552.43,482.02c-0.48,0.44-1,0.7-1.5,0.65
	c-2.76-0.28-10.36,3.17-18.16,2.39c-0.33-0.03-0.67-0.06-1-0.11c-8.15-1.22-10.11-6.05-8.45-10.12c0.15-0.38,0.42-0.76,0.77-1.14
	c4.79-0.24,17.09-0.79,24.27-0.66C555.84,473.15,554.67,479.87,552.43,482.02z"/>
<path fill="#FFFFFF" stroke="#000000" stroke-miterlimit="10" d="M570.38,500.71c-0.6,0.51-5.18,1.33-9.91,1.65
	c-3.66,0.25-7.39,0.2-9.4-0.52c-2.81-1-5.23-4.22-6.68-6.55c6.9,0.27,15.72-0.84,17.31-0.84c1.6,0,3.39-1.26,3.44-3.16
	C570.26,493.15,571.27,499.96,570.38,500.71z"/>
<path fill="#FFFFFF" stroke="#000000" stroke-miterlimit="10" d="M599.77,508.59c-0.79,4.41-4.64,5.21-4.64,5.21
	s-14.71-14.5-14.71-14.81c1.66-1.45,3.42-3.06,5.22-4.75C585.65,494.24,594.01,502.5,599.77,508.59z"/>
<path fill="#FFFFFF" stroke="#000000" stroke-miterlimit="10" d="M476.01,508.15c-0.15,0.61-0.36,1.33-0.58,2.18v0.01
	c-2.74,10.44-9.75,37.41-9.75,41.59c0,5.21,3.39,59.98,2.72,68.58c-0.01,0.19-0.04,0.39-0.08,0.6c-0.01,0.11-0.03,0.24-0.06,0.37
	c-0.03,0.18-0.06,0.37-0.11,0.57c-0.05,0.22-0.11,0.46-0.18,0.69c-0.04,0.17-0.09,0.33-0.15,0.5c-0.05,0.19-0.11,0.38-0.18,0.57
	c-0.1,0.3-0.22,0.61-0.34,0.93c-0.08,0.2-0.17,0.41-0.25,0.62c-0.08,0.18-0.15,0.37-0.24,0.56c-0.17,0.38-0.34,0.76-0.52,1.16
	c-0.19,0.38-0.38,0.77-0.58,1.18c-0.41,0.8-0.86,1.64-1.33,2.46c-0.24,0.42-0.48,0.84-0.74,1.26c-0.76,1.26-1.59,2.54-2.45,3.8
	c-0.19,0.28-0.39,0.56-0.58,0.84c-0.69,0.99-1.4,1.96-2.12,2.88c-0.38,0.5-0.76,0.97-1.13,1.44c-0.28,0.36-0.56,0.69-0.84,1.02
	c-0.28,0.34-0.57,0.67-0.85,0.99c0,0.01-0.01,0.01-0.01,0.03c-0.28,0.32-0.55,0.62-0.83,0.93c-0.04,0.05-0.09,0.09-0.13,0.14
	c-0.39,0.43-0.79,0.85-1.18,1.26c-0.08,0.08-0.17,0.17-0.24,0.25c-0.3,0.3-0.62,0.62-0.93,0.91c0,0-0.01,0.01-0.03,0.01
	c-0.38,0.37-0.76,0.72-1.13,1.05c-0.08,0.06-0.14,0.11-0.22,0.19c-0.3,0.25-0.6,0.5-0.89,0.74c-0.15,0.11-0.29,0.22-0.43,0.33
	c-0.34,0.25-0.66,0.48-0.98,0.7c-0.33,0.2-0.64,0.39-0.94,0.56c-0.99,0.56-1.89,0.84-2.64,0.81c-0.6-0.03-1.23-0.17-1.92-0.41
	c-0.17-0.06-0.33-0.13-0.5-0.2c-0.24-0.1-0.48-0.22-0.72-0.34c-0.17-0.09-0.33-0.18-0.5-0.27c-0.22-0.11-0.44-0.25-0.69-0.41
	c-0.15-0.09-0.3-0.19-0.46-0.29c-0.25-0.17-0.51-0.34-0.76-0.53c-0.17-0.11-0.33-0.24-0.5-0.37c-0.23-0.17-0.46-0.36-0.69-0.53
	c-0.39-0.32-0.8-0.67-1.22-1.04c-0.01-0.01-0.03-0.03-0.04-0.04c-0.25-0.22-0.51-0.44-0.75-0.69c-0.27-0.24-0.55-0.51-0.83-0.79
	c-0.55-0.52-1.09-1.08-1.64-1.66c-0.01-0.01-0.03-0.03-0.03-0.04c-0.56-0.6-1.12-1.22-1.68-1.85c-0.03-0.04-0.06-0.06-0.09-0.1
	c-0.65-0.75-1.3-1.52-1.93-2.32c-0.42-0.51-0.83-1.03-1.23-1.55c-1.13-1.46-2.24-2.98-3.3-4.53c-0.37-0.53-0.72-1.07-1.08-1.61
	c-0.52-0.77-1.03-1.57-1.51-2.36c-0.41-0.65-0.8-1.3-1.18-1.94c-0.43-0.72-0.84-1.44-1.23-2.15c-6.78-12.22-3.16-32.82,1.36-41.64
	c3.12-6.1,8.2-34.3,11.04-51.18c1.54-1.96,3.15-3.84,4.81-5.63c7.63-8.22,12.87-16.62,16.31-25.2v-0.01
	c4.06-3.73,8.37-7.75,12.19-11.44C470.84,495.13,472.13,499.77,476.01,508.15z"/>
<path fill="#FFFFFF" stroke="#000000" stroke-miterlimit="10" d="M466.33,489.71c-3.82,3.7-8.13,7.71-12.19,11.44
	c2.31-5.77,3.8-11.61,4.65-17.53c1.17,0.18,2.16,0.6,2.95,1.32C463.59,486.66,465.09,488.21,466.33,489.71z"/>
<path fill="#FFFFFF" stroke="#000000" stroke-miterlimit="10" d="M555.23,777.55c-1.13,0.3-1.98,0.69-2.2,1.32
	c-0.6,1.82-8.14,6.95-13.27,11.16c-5.13,4.23-6.34,4.83-12.38,15.09c-13.88-8.14-20.22-17.2-20.22-17.2s0,0-0.9,8.45
	c-5.13-9.35-14.78-18.71-24.45-22.63c-3.31-1.36-7.14-4.34-10.72-7.68c0.14-1.57,0.28-3.06,0.41-4.46c3.25-1.63,5.46-3.54,6.27-5.63
	c1.9-4.9-1.77-7.91-4.61-9.42c2.77-14.54,5.42-30.81,5.64-40.49c0.44-20.59-13.13-39.6-13.13-40.28c0-0.67,15.84-35.08,19.01-39.84
	c3.16-4.75,15.99-54.76,15.99-54.76s0.01,0.1,0.04,0.3v0.04c0.6,4.32,7.12,48.76,29.92,74.57c3.07,9.42,7.37,18.25,11.23,25.18
	c-0.09,0.58-0.18,1.21-0.28,1.88c0,0.03,0,0.05-0.01,0.08c-0.09,0.65-0.19,1.33-0.29,2.06c-0.22,1.49-0.44,3.14-0.67,4.89
	c-0.06,0.39-0.11,0.79-0.17,1.19c-0.03,0.2-0.05,0.41-0.08,0.61c-0.06,0.47-0.13,0.95-0.19,1.45c-0.01,0.13-0.03,0.27-0.05,0.41
	c-0.06,0.53-0.14,1.09-0.2,1.65c-0.1,0.81-0.2,1.65-0.3,2.49c-0.08,0.57-0.14,1.14-0.2,1.73c-0.13,1.17-0.27,2.35-0.39,3.56
	c-0.06,0.6-0.13,1.19-0.19,1.8c-0.32,3.09-0.61,6.24-0.85,9.35c-0.09,1.1-0.17,2.22-0.23,3.31c-0.67,10.6-0.6,20.31,1.26,24.83
	c1.97,4.8,5.24,12.31,8.56,19.79c-1.31-0.74-1.99-1.23-1.99-1.23c-1.99-1.24-2.34,4.23-0.53,8.39c0.51,1.17,2.45,2.55,5.58,3.85
	L555.23,777.55z"/>
<path fill="#FFFFFF" stroke="#000000" stroke-miterlimit="10" d="M477.78,755.97c-0.81,2.08-3.02,4-6.27,5.63
	c-0.47,0.24-0.97,0.47-1.47,0.67c-0.64,0.28-1.3,0.55-1.99,0.8c-9.02,3.28-23.04,4.72-37.67,2.63c-12.67-1.8-22.72-5.33-29.2-9.27
	c-0.27-0.15-0.53-0.32-0.79-0.48v-0.01c-4.76-3.04-7.37-6.29-7.37-9.13c0-4.67,3.56-6.18,5.68-6.65c0.06,0.67,0.13,1.33,0.19,2.02
	c0,0,4.51,9.61,36.78,12.22c2.11,0.17,4.09,0.29,5.97,0.39c8.14,0.42,14.19,0.2,18.66-0.3c8.61-1,11.39-3.07,12.06-3.73
	c0.27-1.37,0.55-2.78,0.81-4.19C476.01,748.06,479.68,751.07,477.78,755.97z"/>
<path fill="#FFFFFF" stroke="#000000" stroke-miterlimit="10" d="M630.44,748.51c-1.18,1.4-2.65,2.83-4.42,4.27
	c-5.68,4.61-14.3,9.16-25.6,11.94c-2.03,0.51-4.15,0.95-6.36,1.33c-8.8,1.51-16.89,1.79-23.84,1.33
	c-7.11-0.47-13.04-1.71-17.37-3.19c-0.8-0.27-1.55-0.56-2.24-0.84c-3.12-1.3-5.07-2.68-5.58-3.85c-1.8-4.17-1.46-9.64,0.53-8.39
	c0,0,0.69,0.5,1.99,1.23c4.32,2.49,15.39,7.79,30.16,7.11c2.62-0.11,5.36-0.42,8.19-0.97c0.19-0.04,0.37-0.08,0.56-0.11
	c1.02-0.2,2.03-0.43,3.07-0.7c3.49-0.9,6.72-1.89,9.69-2.93c18.76-6.57,27.37-15.16,27.37-15.16c0.05-1.27,0.1-2.55,0.15-3.85
	c2.82,0.03,6.22,0.86,7.07,4.51C634.33,742.35,633.16,745.31,630.44,748.51z"/>
<path fill="#FFFFFF" stroke="#000000" stroke-miterlimit="10" d="M633.95,843.22c0,0-1.92,14.03-24.1,19.7
	c-19.27,4.91-27.77-6.24-29.68-9.23c-0.28-0.46-0.42-0.72-0.42-0.72l-24.51-75.41l-4.62-14.2c0.69,0.28,1.44,0.57,2.24,0.84
	c4.33,1.47,10.26,2.72,17.37,3.19c6.95,0.46,15.04,0.18,23.84-1.33c2.21-0.38,4.33-0.83,6.36-1.33c11.3-2.78,19.93-7.33,25.6-11.94
	c1.77-1.44,3.24-2.87,4.42-4.27L633.95,843.22z"/>
<path fill="#FFFFFF" stroke="#000000" stroke-miterlimit="10" d="M645.87,666.91c-0.01-2.24-0.46-5.83-2.6-9.96
	c0.57,2.81-6.69,33.21-16.18,47.68c-0.06-1.36-0.15-2.55-0.27-3.54c-1.94-17.11-14.88-44.95-21.46-57.78
	c-1.66-3.25-2.92-5.55-3.48-6.45c0.61-1.92,0.95-3.78,1.04-5.42c0.01-0.03,0.01-0.06,0.01-0.09c1.12-8.34-0.23-20.13-1.3-27.32
	c2.31,2.08,3.68,3.37,3.68,3.37v-9.5c0,0,8.83,10.63,9.5,11.99c0.69,1.36,0-8.6,0-8.6l17.88,19.24c0,0-0.63-9.7,4.37-12.98
	c3.71,6.21,7.4,12.53,8.8,15.32C648.6,628.25,646.55,658.15,645.87,666.91z"/>
<path fill="#FFFFFF" stroke="#000000" stroke-miterlimit="10" d="M500.67,571.18c0,0-12.83,50.01-15.99,54.76
	c-3.17,4.76-19.01,39.17-19.01,39.84c0,0-20.37,21.96-19.46,30.71c0.9,8.75-0.52,52.95,14.07,57.99c-4.47,0.51-10.52,0.72-18.66,0.3
	c0,0-3.87-29.32-8.61-51.65c-4.66-22-26.24-30.56-26.91-30.81l-0.01-0.01c1.09-2.98,1.68-5.26,1.18-6.53
	c-1.59-4.08-17.42-23.32-21.27-33.5c-3.85-10.17,5.21-29.64,11.99-38.47c6.25-8.12,17.27-39.57,35.03-61.82
	c-2.83,16.88-7.91,45.08-11.04,51.18c-4.52,8.83-8.14,29.43-1.36,41.64c0.39,0.71,0.8,1.42,1.23,2.15c0.38,0.65,0.77,1.3,1.18,1.94
	c0.48,0.79,0.99,1.59,1.51,2.36c0.34,0.55,0.71,1.08,1.08,1.61c1.07,1.55,2.17,3.07,3.3,4.53c0.39,0.52,0.81,1.04,1.23,1.55
	c0.63,0.8,1.28,1.57,1.93,2.32c-6.97,6.96-13.89,23.41-11.84,28.04c2.41,5.44,13.41,14.49,18.02,14.49c4.61,0,9.44-8.76,11.25-14.49
	c1.13-3.58-0.46-12.84-1.82-19.29c0.3-0.15,0.61-0.34,0.94-0.56c0.32-0.22,0.63-0.44,0.98-0.7c0.14-0.11,0.28-0.22,0.43-0.33
	c0.29-0.23,0.6-0.48,0.89-0.74c0.08-0.08,0.14-0.13,0.22-0.19c0.37-0.33,0.75-0.67,1.13-1.05c0.01,0,0.03-0.01,0.03-0.01
	c0.3-0.29,0.62-0.6,0.93-0.91c0.08-0.09,0.17-0.18,0.24-0.25c0.39-0.39,0.79-0.81,1.18-1.26c0.04-0.05,0.09-0.09,0.13-0.14
	c0.28-0.29,0.55-0.61,0.83-0.93c0-0.01,0.01-0.01,0.01-0.03c0.29-0.32,0.57-0.65,0.85-0.99c0.28-0.33,0.56-0.66,0.84-1.02
	c0.38-0.47,0.76-0.95,1.13-1.44c0.72-0.93,1.44-1.89,2.12-2.88c0.19-0.28,0.39-0.56,0.58-0.84c0.86-1.26,1.69-2.54,2.45-3.8
	c0.25-0.42,0.5-0.84,0.74-1.26c0.47-0.83,0.93-1.66,1.33-2.46c0.2-0.39,0.41-0.79,0.58-1.18c0.18-0.39,0.36-0.77,0.52-1.16
	c0.09-0.19,0.17-0.38,0.24-0.56c0.09-0.22,0.18-0.42,0.25-0.62c0.13-0.32,0.24-0.62,0.34-0.93c0.06-0.19,0.13-0.38,0.18-0.57
	c0.06-0.17,0.11-0.33,0.15-0.5c0.06-0.23,0.13-0.47,0.18-0.69c0.05-0.19,0.09-0.38,0.11-0.57c0.04-0.13,0.05-0.25,0.06-0.37
	c0.04-0.2,0.06-0.41,0.08-0.6c0.67-8.6-2.72-63.37-2.72-68.58c0-4.18,7.01-31.15,9.75-41.59
	C483.3,525.84,500.45,560.71,500.67,571.18z"/>
<path fill="#FFFFFF" stroke="#000000" stroke-miterlimit="10" d="M447.72,650.03c1.36,6.45,2.95,15.71,1.82,19.29
	c-1.82,5.73-6.64,14.49-11.25,14.49c-4.61,0-15.61-9.05-18.02-14.49c-2.06-4.64,4.86-21.08,11.84-28.04
	c0.03,0.04,0.06,0.06,0.09,0.1c0.56,0.64,1.12,1.26,1.68,1.85c0,0.01,0.01,0.03,0.03,0.04c0.55,0.58,1.09,1.14,1.64,1.66
	c0.28,0.28,0.56,0.55,0.83,0.79c0.25,0.25,0.51,0.47,0.75,0.69c0.01,0.01,0.03,0.03,0.04,0.04c0.42,0.37,0.83,0.72,1.22,1.04
	c0.23,0.18,0.46,0.37,0.69,0.53c0.17,0.13,0.33,0.25,0.5,0.37c0.27,0.2,0.52,0.38,0.76,0.53c0.15,0.1,0.3,0.2,0.46,0.29
	c0.24,0.15,0.47,0.29,0.69,0.41c0.17,0.09,0.33,0.18,0.5,0.27c0.24,0.13,0.48,0.24,0.72,0.34c0.18,0.08,0.34,0.14,0.5,0.2
	c0.69,0.24,1.32,0.38,1.92,0.41C445.82,650.87,446.73,650.59,447.72,650.03z"/>
<path fill="#FFFFFF" stroke="#000000" stroke-miterlimit="10" d="M566.61,634.32c-0.03,0.13-0.14,0.43-0.36,0.89
	c-1.57,3.42-8.12,15.19-13.59,20.13c-1.85,1.65-3.58,2.54-4.95,2.07c-5.99-2.04-17.08-11.32-17.08-11.32
	c-22.8-25.82-29.32-70.26-29.92-74.57v-0.04c-0.03-0.2-0.04-0.3-0.04-0.3c-0.23-10.46-17.37-45.34-25.25-60.83v-0.01
	c0.23-0.85,0.43-1.57,0.58-2.18c2.5,5.4,6.08,12.34,12.31,22.06c3.84,6.01,8.75,11.06,14.26,15.39
	c11.75,9.25,26.25,15.21,38.96,20.02c0,0.01,0.01,0.01,0.01,0.01C554.94,584.69,565.79,631.82,566.61,634.32z"/>
<path fill="#FFFFFF" stroke="#000000" stroke-miterlimit="10" d="M602.93,631.34c0,0.03,0,0.06-0.01,0.09
	c-0.25,1.94-0.65,3.7-1.22,5.16c0.05,0.06,0.1,0.15,0.18,0.27c-1.96,6.24-6.63,12.98-14.62,13.91h-0.01
	c-0.38,0.04-0.77,0.08-1.17,0.09c-6.36-10.22-14.78-14.15-19.82-15.63c0.22-0.46,0.33-0.76,0.36-0.89
	c-0.83-2.5-11.67-49.63-25.06-68.69c0.64,0.24,1.26,0.47,1.88,0.71c1.69,0.62,3.35,1.24,4.95,1.84c7.25,2.71,13.51,5.13,17.78,7.75
	c11.98,7.37,28.26,21.6,35.46,28.09h0.01C602.71,611.21,604.05,622.99,602.93,631.34z"/>
<path fill="#FFFFFF" stroke="#000000" stroke-miterlimit="10" d="M626.76,735.73c-0.05,1.3-0.1,2.58-0.15,3.85
	c0,0-8.61,8.6-27.37,15.16c-0.6-4.83-1.31-10.66-2.01-16.32c-1.04-8.17-2.08-16.01-2.78-20.13c-1.8-10.87,2.95-32.14,7.25-42.33
	c3.17-7.56,3.63-24.43,3.66-32.66c6.58,12.84,19.52,40.68,21.46,57.78c0.11,0.99,0.2,2.18,0.27,3.54c0,0.01,0,0.01,0,0.03
	C627.45,711.96,627.19,724.06,626.76,735.73z"/>
<path fill="#FFFFFF" stroke="#000000" stroke-miterlimit="10" d="M589.47,671.44c-0.67,7.91-10.63,19.24-10.63,19.24
	s-10.41-3.4-17.88-10.19c-5.17-4.7-7.4-17.63-8.29-25.16c5.47-4.94,12.01-16.71,13.59-20.13c5.04,1.49,13.46,5.41,19.82,15.63
	c0.39-0.01,0.79-0.05,1.17-0.09h0.01C588.51,657.83,589.87,666.96,589.47,671.44z"/>
<path fill="#FFFFFF" stroke="#000000" stroke-miterlimit="10" d="M601.7,675.97c-4.31,10.19-9.06,31.46-7.25,42.33
	c0.7,4.11,1.74,11.96,2.78,20.13c0.7,5.66,1.41,11.49,2.01,16.32c-2.97,1.04-6.2,2.03-9.69,2.93c-1.04,0.27-2.06,0.5-3.07,0.7
	c-2.71-7.76-12.01-33.77-20.22-48.25c-7.76-13.7-21.09-23.08-26.14-26.29c0.03-0.14,0.04-0.28,0.05-0.41
	c0.06-0.5,0.13-0.98,0.19-1.45c0.03-0.2,0.05-0.41,0.08-0.61c0.05-0.41,0.1-0.8,0.17-1.19c0.23-1.75,0.46-3.4,0.67-4.89
	c0.1-0.72,0.2-1.41,0.29-2.06c0.01-0.03,0.01-0.05,0.01-0.08c0.1-0.67,0.19-1.3,0.28-1.88c-3.86-6.93-8.15-15.76-11.23-25.18
	c0,0,11.09,9.27,17.08,11.32c1.37,0.47,3.1-0.42,4.95-2.07c0.89,7.53,3.12,20.46,8.29,25.16c7.47,6.78,17.88,10.19,17.88,10.19
	s9.96-11.33,10.63-19.24c0.39-4.48-0.97-13.61-2.21-20.69c7.99-0.93,12.66-7.67,14.62-13.91c0.56,0.9,1.82,3.2,3.48,6.45
	C605.33,651.53,604.88,668.41,601.7,675.97z"/>
<path fill="#FFFFFF" stroke="#000000" stroke-miterlimit="10" d="M635.57,857.18c0,0-10.71,9.82-25.5,12.98
	c-10.62,2.29-18.67,0.9-22.36-0.06l0.04-0.61c0,0-9.59-4.15-9.66-10.34c-0.04-3.06,1.02-4.64,2.08-5.46
	c1.9,3,10.41,14.15,29.68,9.23c22.19-5.66,24.1-19.7,24.1-19.7C641.53,844.66,638.29,853.26,635.57,857.18z"/>
<path fill="#FFFFFF" stroke="#000000" stroke-miterlimit="10" d="M652.01,914.67c-7.89-4.5-20.02-8.89-35.29-6.49
	c-15.47,2.44-22.73,12.65-26.14,21.22c-0.11-20.88,0.79-48.91,0.79-48.91l-4.08-4.67l0.42-5.73c3.7,0.97,11.75,2.35,22.36,0.06
	c14.8-3.16,25.5-12.98,25.5-12.98c5.88,4.08,1.82,10.87,2.72,14.8c0.9,3.92,8.45,24.74,9.5,31.99
	C648.18,906.62,649.91,910.44,652.01,914.67z"/>
<path fill="#FFFFFF" stroke="#000000" stroke-miterlimit="10" d="M631.95,968.24c-29.43,0.3-37.57-10.72-40.12-17.06
	c-0.86-2.16-1.19-11.01-1.26-21.77v-0.01c3.4-8.57,10.67-18.78,26.14-21.22c15.28-2.4,27.41,1.99,35.29,6.49
	c3.57,7.28,8.19,15.75,8.76,21.58C661.68,945.46,661.38,967.94,631.95,968.24z"/>
<path fill="#FFFFFF" stroke="#000000" stroke-miterlimit="10" d="M471.1,766.06c-1.64,17.63-4.36,44.91-6.55,57.25
	c-3.28,18.31-9.28,39.26-9.73,40.75v0.01c0,0.05-0.01,0.08-0.01,0.08s-2.93,5.56-22.63,7.25c-19.68,1.69-31-10.3-31-10.3V756.43
	c6.48,3.94,16.52,7.47,29.2,9.27c14.63,2.1,28.65,0.65,37.67-2.63c0.5,0.51,1,1,1.51,1.5C470.06,765.08,470.58,765.58,471.1,766.06z
	"/>
<path fill="#FFFFFF" stroke="#000000" stroke-miterlimit="10" d="M457.83,869.72c-0.24,0.47-0.8,1.05-1.66,1.7
	c-5.16,3.89-20.68,9.93-36.21,6.44c-10.49-2.36-17.13-5.84-20.71-9.18c-2.6-2.44-3.59-4.81-3.28-6.65c0.52-3.06,3.47-3.1,5.21-2.83
	v1.92c0,0,11.32,11.99,31,10.3c19.7-1.69,22.63-7.25,22.63-7.25s0.01-0.03,0.01-0.08C458.5,864.79,459.03,867.32,457.83,869.72z"/>
<path fill="#FFFFFF" stroke="#000000" stroke-miterlimit="10" d="M452.4,923.02c-0.41,4.28-3.28,11.29-17.51,12.93
	c-20.82,2.41-35.76,9.82-58.55,17.65c-22.78,7.85-45.57-6.18-46.02-6.63c-0.22-0.22-2.08-3.75-3-9.13c1.84,2.35,4.29,4.66,7.38,5.8
	c7.7,2.87,24.29,6.79,39.84,3.33c6.58-1.47,12.22-3.81,17.7-6.18c7.47-3.25,14.62-6.6,23.33-8
	C428.46,930.73,444.44,929.32,452.4,923.02z"/>
<path fill="#FFFFFF" stroke="#000000" stroke-miterlimit="10" d="M455.72,919.35c-0.84,1.38-1.96,2.6-3.31,3.67
	c-7.96,6.3-23.94,7.71-36.83,9.77c-8.71,1.4-15.86,4.75-23.33,8c0.18-5.85-0.71-17.14-8.51-27.77c-6.29-8.59-14.49-13.72-20.7-16.57
	c6.46-1.59,11.95-2.51,14.36-3.64c6.49-3.01,17.67-17.35,20.22-18.4c-0.48-1.55,0.71-4.09,1.63-5.71
	c3.58,3.34,10.22,6.82,20.71,9.18c15.53,3.49,31.05-2.55,36.21-6.44c2.86,3.38-1.8,8.85-1.8,8.85S461.44,909.85,455.72,919.35z"/>
<path fill="#FFFFFF" stroke="#000000" stroke-miterlimit="10" d="M392.24,940.78c-5.49,2.37-11.13,4.71-17.7,6.18
	c-15.54,3.47-32.14-0.46-39.84-3.33c-3.09-1.14-5.54-3.45-7.38-5.8c-1.05-6.2-0.84-14.87,4.66-23.76
	c6.44-10.41,20.14-14.95,31.05-17.64c6.21,2.86,14.41,7.99,20.7,16.57C391.53,923.64,392.42,934.93,392.24,940.78z"/>
<path fill="#FFFFFF" stroke="#000000" stroke-miterlimit="10" d="M355.9,291.42l0.91,3.39c0,0,0,0.09,0,0.25
	c-0.03,1.73-0.83,11.89-16.98,13.33c-17.65,1.57-16.75-10.87-16.75-10.87s-1.35-2.57-2.68-5.82v-0.01
	c-0.01-0.04-0.01-0.05-0.01-0.05c-1.17-2.84-2.3-6.2-2.51-8.83c-0.38-4.91-2.67-37.35-2.96-46.51c0.84,2.2,2.73,4.32,6.65,5.38
	c1.26,0.34,2.55,0.44,3.89,0.38c-0.93,1.08-1.89,2.55-2.22,4.29c-1.04,5.55,1.32,12.78,7.54,10.64c1.31-0.44,2.58-0.93,3.82-1.44
	c-0.66,3.96-1.94,15.23,4.5,15.85c2.43,0.23,5.17-0.79,7.8-2.31c0.05,4.72,1.52,12.88,11.56,10.62l0.48,0.48
	C359.71,285.72,355.9,291.42,355.9,291.42z"/>
<path fill="#FFFFFF" stroke="#000000" stroke-miterlimit="10" d="M362.93,270.3c-0.55,2.74-1.79,5.78-3.75,8.82
	c-0.11,0.18-0.22,0.35-0.34,0.53c-0.13,0.04-0.26,0.06-0.39,0.09c-10.03,2.26-11.51-5.89-11.56-10.62
	c5.82-3.35,11.05-9.15,11.05-9.15s4.52,1.13,5.21,4.97C363.43,266.51,363.36,268.32,362.93,270.3z"/>
<path fill="#FFFFFF" stroke="#000000" stroke-miterlimit="10" d="M349.34,226.92l-4.23,5.58c0,0-10.31,9.16-19.66,9.59
	c-1.33,0.06-2.63-0.04-3.89-0.38c-3.92-1.07-5.82-3.19-6.65-5.38v-0.05c-0.04-1.36-0.04-2.18,0.03-2.34
	c0.44-1.13,9.5-4.08,11.32-5.21c1.8-1.13,10.63-8.83,13.58-9.5c2.79-0.65,8.41,6.01,9.4,7.49
	C349.28,226.81,349.32,226.87,349.34,226.92z"/>
<path fill="#FFFFFF" stroke="#000000" stroke-miterlimit="10" d="M357.94,259.97c0,0-5.23,5.8-11.05,9.16
	c-2.63,1.52-5.37,2.54-7.8,2.31c-6.44-0.62-5.16-11.89-4.5-15.85c10.12-4.05,17.75-9.36,17.75-9.36s1.21-0.6,4.38,2.27
	c0.51,0.46,0.88,1.07,1.16,1.77C359.31,253.9,357.94,259.97,357.94,259.97z"/>
<path fill="#FFFFFF" stroke="#000000" stroke-miterlimit="10" d="M364.87,245.93c-0.77,2.21-4.28,3.86-6.98,4.33
	c-0.28-0.7-0.65-1.31-1.16-1.77c-3.17-2.87-4.38-2.27-4.38-2.27s1.36-5.27,0.3-7.39c-1.05-2.11-7.54-6.34-7.54-6.34l4.23-5.58
	c-0.03-0.05-0.06-0.11-0.11-0.2c1.71,0.1,3.77,0.81,5.54,3.06c3.92,4.99,3.02,7.25,6.49,10.26
	C364.72,243.06,365.93,242.91,364.87,245.93z"/>
<path fill="#FFFFFF" stroke="#000000" stroke-miterlimit="10" d="M352.35,246.23c0,0-7.63,5.31-17.75,9.36
	c-1.24,0.51-2.51,0.99-3.82,1.44c-6.22,2.13-8.59-5.09-7.54-10.64c0.33-1.74,1.3-3.21,2.22-4.29c9.35-0.43,19.66-9.59,19.66-9.59
	s6.49,4.23,7.54,6.34C353.71,240.95,352.35,246.23,352.35,246.23z"/>
<path fill="#FFFFFF" stroke="#000000" stroke-miterlimit="10" d="M394.24,368.63c-0.08,0.61-0.23,1.21-0.46,1.78
	c-0.47,1.33-1.28,2.54-2.32,3.53c-1.52,1.44-2.98,3.62-4.37,3.95c-5.23,1.21-10.57-0.01-16.07-4.5c1-0.69,2.01-1.46,2.98-2.29
	c10.53-8.94,15.04-20.51,15.38-29.67C392.93,347.44,395.87,356.37,394.24,368.63z"/>
<path fill="#FFFFFF" stroke="#000000" stroke-miterlimit="10" d="M414.35,368.14c-8.71,14.52-16.69,23.93-27.27,27.85
	c-11.59,4.29-8.1,6.55-14.88,7.91c-6.79,1.36-16.08-12.45-16.08-12.45s-5.96-1.98-14.12-11.9c7.25,1.37,18.8,0.9,29.02-6.17
	c5.5,4.48,10.83,5.7,16.07,4.5c1.38-0.33,2.84-2.51,4.37-3.95c1.04-0.99,1.85-2.2,2.32-3.53c3.92,0.34,9.74-1.36,17.89-8.79
	C412.56,363.98,413.46,366.15,414.35,368.14z"/>
<path fill="#FFFFFF" stroke="#000000" stroke-miterlimit="10" d="M368.63,368.83c-0.48,0.33-0.95,0.65-1.44,0.94
	c-10.87,6.81-21.48,6.18-29.98,3.33c-1.13-1.83-2.22-4.27-3.25-7.16c0-0.01,0-0.03,0-0.03c-8.08-22.44-13.37-72.26-13.56-74.19
	c1.33,3.25,2.68,5.82,2.68,5.82s-0.9,12.45,16.75,10.87c16.15-1.45,16.95-11.61,16.98-13.33l14.82,20.08l8.22,11.14l0.77,1.05
	c0,0,1.31,2.35,2.34,6.11C385.22,341.73,386.1,356.84,368.63,368.83z"/>
<path fill="#FFFFFF" stroke="#000000" stroke-miterlimit="10" d="M389.39,341.44c-0.34,9.16-4.85,20.73-15.38,29.67
	c-0.98,0.83-1.98,1.6-2.98,2.29c-10.22,7.07-21.77,7.54-29.02,6.17c-1.38-1.68-2.83-3.59-4.33-5.75c-0.15-0.23-0.3-0.46-0.46-0.71
	c8.51,2.86,19.11,3.48,29.98-3.33c0.48-0.29,0.95-0.61,1.44-0.94c17.46-11.99,16.59-27.1,14.33-35.38
	c-1.03-3.76-2.34-6.11-2.34-6.11l-0.77-1.05c2.25-0.47,4.95,0.13,7.24,3.95C388.71,332.97,389.56,336.92,389.39,341.44z"/>
<path fill="#FFFFFF" stroke="#000000" stroke-miterlimit="10" d="M641.35,403.58c-0.88,1.56-1.89,3.16-3.05,4.79
	c-2.18-5.03-8.45-11.66-24.9-17.73c-25.58-9.45-35.83,0.33-39.19,4.78c-0.04-0.04-0.08-0.08-0.11-0.11
	c-0.43-0.43-0.91-0.95-1.43-1.57c-1.59-1.88,1.02-7.73,8.69-11.2c6.21-2.81,15.74-4.05,29.03-0.34
	C629.99,387.66,638.24,396.94,641.35,403.58z"/>
<path fill="#FFFFFF" stroke="#000000" stroke-miterlimit="10" d="M639.33,414.13c-0.01,0-0.01,0.01-0.01,0.01
	c-0.1,0.22-0.2,0.43-0.32,0.67c-4.98,10.21-19.93,40.58-25.41,48.04c-0.18,0.24-0.34,0.46-0.5,0.65
	c-21.27-26.25-40.88-22.48-40.88-22.48v-0.05l1.87-45.4c0.04-0.05,0.08-0.1,0.13-0.17c3.37-4.44,13.61-14.22,39.19-4.78
	c16.46,6.07,22.72,12.7,24.9,17.73C639.32,410.7,639.46,412.7,639.33,414.13z"/>
<path fill="#FFFFFF" stroke="#000000" stroke-miterlimit="10" d="M608.15,471.05c-0.18-0.04-0.36-0.09-0.53-0.14
	c2.68-6.34-3.89-11.47-12.03-17.67c-7.53-5.71-20.59-6.4-26.16-5.05c-0.22-0.51-0.57-0.91-0.66-1c0-0.01-0.01-0.03-0.01-0.03
	l-0.94-1.56c0.47-2.2,2.64-3.72,4.39-4.62v0.05c0,0,19.61-3.77,40.88,22.48c0.15-0.19,0.32-0.41,0.5-0.65
	C614.69,466.61,614.2,472.53,608.15,471.05z"/>
<path fill="#FFFFFF" stroke="#000000" stroke-miterlimit="10" d="M607.62,470.91c0.18,0.05,0.36,0.1,0.53,0.14
	c-2.57,3.1-7.73,8.97-14.07,15.1l-0.01,0.01c-2.78,2.69-5.65,5.47-8.42,8.08c-1.8,1.69-3.56,3.3-5.22,4.75
	c-4.14,3.63-7.68,6.24-9.75,6.62c-2.62,0.48-7.1-1.63-10.2-3.25c4.72-0.32,9.31-1.14,9.91-1.65c0.89-0.75-0.13-7.56-5.23-9.42
	c0.05-0.89-0.3-1.92-1.24-3.02c-2.07-2.44-8.09-4.95-11.48-6.24c2.25-2.16,3.42-8.88-4.06-9c-7.18-0.13-19.48,0.42-24.27,0.66
	c1.5-1.61,4.62-3.23,7.67-4.53c3.72-0.83,7.53-2.76,7.84-2.91c-0.28,0.08-4,1.24-7.84,2.91c-1.77,0.39-3.51,0.53-4.83,0.1
	c0.15-4.23,16.14-17.96,16.14-17.96s10.72,0,20.22,0c6.01,0,6.6-1.65,6.22-2.86c-0.03-0.09-0.05-0.17-0.09-0.24
	c5.58-1.35,18.63-0.66,26.16,5.05C603.73,459.44,610.3,464.58,607.62,470.91z"/>
<path fill="#FFFFFF" stroke="#000000" stroke-miterlimit="10" d="M552.13,459.58c0,0-0.02,6.53-6.27,6.6l-9.14-9.1l-65.89-65.54
	l-19.01-18.91l-0.71-0.71l-8.87-8.83l-15.75-15.66l-1.24-1.24l-22.86-22.75l-26.19-26.05l-17.27-17.17l0.25-1.1
	c1.96-3.04,3.2-6.08,3.75-8.82L381,288.39l20.77,20.76l23.91,23.93l8.15,8.15l8.64,8.65l21.32,21.33l14.22,14.22l65.83,65.86
	L552.13,459.58z"/>
<path fill="#FFFFFF" stroke="#000000" stroke-miterlimit="10" d="M326.25,228.72c-1.82,1.13-10.87,4.08-11.32,5.21
	c-0.06,0.15-0.06,0.98-0.03,2.34l-0.03-0.01l-68.76-73.32l9.06-7.85L326.25,228.72z"/>
<path fill="#FFFFFF" stroke="#000000" stroke-miterlimit="10" d="M539.49,198.38c-0.09-3.16-0.19-6.59-0.28-9.88
	c-1.64,2.01-5.84,6.92-9.33,9.3c2.74-5.37,2.69-16.14,2.53-20.75c-3.24,9.04-20.98,20.83-23.95,23.28c-3.28,2.71-9.39,1.46-11.38,0
	c-1.79-1.32-18.66-15.62-22.16-18.59c-0.3-0.05-0.6-0.13-0.9-0.2l2.62,25.98l2.13,21.15c12.46-6.82,32.8-10.86,52.7-6.26
	c0.48,0.11,0.95,0.23,1.44,0.37c4.06-4.46,7.14-9.75,7.01-11.7C539.83,209.8,539.66,204.59,539.49,198.38z"/>
<path fill="#FFFFFF" stroke="#000000" stroke-miterlimit="10" d="M539.38,151.23c-0.83-3.05-3.33,3.19-8.64,15.02
	c-0.55-3.94,3.56-35.03,3.72-36.32c-0.22,0.67-3.77,11.8-6.55,11.43c1.88-5.42,1.36-25.65-3.47-20.89
	c-5.59,7.39-16.98,13.35-16.98,13.35s4.08-5.88,1.64-12.08c-2.45-6.18-7.9-9.65-7.9-9.65s-12.29,11.09-13.8,16.83
	c-1.51,5.73,8.83,14.11,8.83,14.11s-1.28-0.23-9.73-4.23c-8.46-4-14.11-11.93-14.11-11.93s-2.82,4.65-4.34,11.56
	c2.57-0.97,6.21-2.08,8.79-1.82c3.24,0.33,10.6,4.79,14.21,7.09c1.13,0.71,1.88,1.22,2.04,1.33c-0.18-0.05-1.02-0.34-2.25-0.74
	c-0.74,1.94-3.56,7.87-10.46,6.79c-6.31-0.99-7.95-5.79-8.37-7.96c-1.56,1.12-2.57,2.24-2.57,2.24l-2.1-2.67
	c-0.17,1.42-0.25,2.9-0.24,4.41c0.08,10.45,5.35,23.71,6.21,25.81c-0.81-1.78-5.31-11.35-9-11.96c-4.08-0.69-5.77,8.34-3.96,10.68
	c1.73,2.21,7.58,8.33,13.65,9.91c0.3,0.08,0.6,0.15,0.9,0.2c3.51,2.97,20.37,17.27,22.16,18.59c1.99,1.46,8.1,2.71,11.38,0
	c2.97-2.45,20.71-14.24,23.95-23.28c-0.05-1.36-0.11-2.18-0.11-2.18s0.11,0.22,0.6-0.04c0.62-0.32,1.85-1.44,4.24-4.8
	C541.34,164.07,540.21,154.27,539.38,151.23z M498.83,150.8c1.74,3.99,5.4,11.84,0.56,11.76
	C494.57,162.48,498.72,150.52,498.83,150.8z M503.85,169.43c-0.81-0.37-8.72,1.83-9.18,1.94c0.44-0.34,7.72-5.87,9.18-5.87
	c1.51,0,4.23,1.82,5.13,4.83C509.95,173.54,504.68,169.81,503.85,169.43z M523,136.78c-0.86,2.91-3.52,7.33-4.44,8.59
	c-1.05,1.44-10.26,2.49-12.67,1.05c-1.75-1.04-1.83-3.45-1.74-4.69c-1.56,1.03-2.71,1.82-2.91,1.94c0.13-0.18,0.9-1.12,2.02-2.41
	c3.05-3.51,8.75-9.59,11.99-10.24c4.52-0.9,13.35,0,13.35,0l-2.03,6.72C526.56,137.74,525.06,137.25,523,136.78z"/>
<path fill="#FFFFFF" stroke="#000000" stroke-miterlimit="10" d="M512.98,142.49c-0.56,0.99-2.36,1.41-3.62,1.21
	c-2.29-0.36-2.65-2.2-2.58-3.64c2.35-1.47,4.95-3,6.73-3.72C513.43,138.07,513.9,140.85,512.98,142.49z"/>
<path fill="#FFFFFF" stroke="#000000" stroke-miterlimit="10" d="M491.05,143.7c0,0-0.06,0.23-0.2,0.6
	c-0.89-0.3-1.97-0.67-3.16-1.04c-2.35-0.76-5.09-1.57-7.37-2.15c-0.22-0.05-0.41-0.09-0.61-0.14c-2.9-0.69-5.74,0.75-7.7,2.16
	c-1.56,1.12-2.57,2.24-2.57,2.24l-2.1-2.67l-2.36-3c0,0,1.27-0.6,3.06-1.27c2.57-0.97,6.21-2.08,8.79-1.82
	C480.08,136.94,487.44,141.4,491.05,143.7z"/>
<path fill="#FFFFFF" stroke="#000000" stroke-miterlimit="10" d="M503.85,169.43c-0.81-0.37-8.72,1.83-9.18,1.94
	c0.44-0.34,7.72-5.87,9.18-5.87c1.51,0,4.23,1.82,5.13,4.83C509.95,173.54,504.68,169.81,503.85,169.43z"/>
<path fill="#FFFFFF" stroke="#000000" stroke-miterlimit="10" d="M499.39,162.56c-4.83-0.08-0.67-12.04-0.56-11.76
	C500.57,154.79,504.23,162.63,499.39,162.56z"/>
<path fill="#FFFFFF" stroke="#000000" stroke-miterlimit="10" d="M528.59,131.02l-2.03,6.72c0,0-1.5-0.5-3.56-0.97
	c-2.44-0.57-5.66-1.13-8.1-0.85c-0.36,0.04-0.83,0.19-1.38,0.41c-1.78,0.72-4.38,2.25-6.73,3.72c-0.94,0.58-1.84,1.17-2.64,1.68
	c-1.56,1.03-2.71,1.82-2.91,1.94c0.13-0.18,0.9-1.12,2.02-2.41c3.05-3.51,8.75-9.59,11.99-10.24
	C519.76,130.12,528.59,131.02,528.59,131.02z"/>
<path fill="#FFFFFF" stroke="#000000" stroke-miterlimit="10" d="M523,136.78c-0.86,2.91-3.52,7.33-4.44,8.59
	c-1.05,1.44-10.26,2.49-12.67,1.05c-1.75-1.04-1.83-3.45-1.74-4.69c0.8-0.51,1.7-1.09,2.64-1.68c-0.08,1.45,0.29,3.29,2.58,3.64
	c1.26,0.2,3.06-0.22,3.62-1.21c0.91-1.64,0.44-4.42,0.53-6.16c0.56-0.22,1.03-0.37,1.38-0.41
	C517.34,135.65,520.56,136.21,523,136.78z"/>
<path fill="#FFFFFF" stroke="#000000" stroke-miterlimit="10" d="M487.68,143.25c-0.28,1.79-1.61,5.58-4.58,5.19
	c-2.77-0.34-2.87-5.23-2.78-7.34C482.59,141.68,485.33,142.49,487.68,143.25z"/>
<path fill="#FFFFFF" stroke="#000000" stroke-miterlimit="10" d="M490.84,144.3c-0.74,1.94-3.56,7.87-10.46,6.79
	c-6.31-0.99-7.95-5.79-8.37-7.96c1.96-1.41,4.8-2.84,7.7-2.16c0.2,0.05,0.39,0.09,0.61,0.14c-0.09,2.11,0.01,7,2.78,7.34
	c2.97,0.38,4.31-3.4,4.58-5.19C488.88,143.62,489.96,143.99,490.84,144.3z"/>
<path fill="#FFFFFF" stroke="#000000" stroke-miterlimit="10" d="M556.06,117.37c0,0,4.22,5.28,10.26,17.96
	c6.03,12.67,5.96,70.31,5.96,70.31s-1.66-4.29-12.9-25.04c2.41,5.98,1.07,21.95,0.98,22.96c-0.01-0.01-0.03-0.03-0.04-0.01
	l-0.03-0.01l-11.77-15.62c0,0,0.44,8.46,0,10.87c-6.02-2.49-8.6-11.16-8.6-11.16s-0.25,0.33-0.71,0.89
	c-1.64,2.01-5.84,6.92-9.33,9.3c2.74-5.37,2.69-16.14,2.53-20.75c-0.05-1.36-0.11-2.18-0.11-2.18s0.11,0.22,0.6-0.04
	c0.62-0.32,1.85-1.44,4.24-4.8c4.22-5.96,3.09-15.76,2.26-18.8c-0.83-3.05-3.33,3.19-8.64,15.02c-0.55-3.94,3.56-35.03,3.72-36.32
	c-0.22,0.67-3.77,11.8-6.55,11.43c1.88-5.42,1.36-25.65-3.47-20.89c-5.59,7.39-16.98,13.35-16.98,13.35s4.08-5.88,1.64-12.08
	c-2.45-6.18-7.9-9.65-7.9-9.65s-12.29,11.09-13.8,16.83c-1.51,5.73,8.83,14.11,8.83,14.11s-1.28-0.23-9.73-4.23
	c-8.46-4-14.11-11.93-14.11-11.93s-2.82,4.65-4.34,11.56c-1.79,0.67-3.06,1.27-3.06,1.27l2.36,3c-0.17,1.42-0.25,2.9-0.24,4.41
	c0.08,10.45,5.35,23.71,6.21,25.81c-0.81-1.78-5.31-11.35-9-11.96c-4.08-0.69-5.77,8.34-3.96,10.68c1.73,2.21,7.58,8.33,13.65,9.91
	l2.62,25.98c-4.9,1.88-13.02,5.5-19.9,10.93l-2.51-19c0,0-13.2,10.97-14.27,12.4c0.74-1.75,6.68-20.22,6.87-20.83l-20.36,20.05
	l15.79-34.56l9.11-32.19c0,0-14.78,2.17-33.05,29.93c-1.05-14.34,11.02-45.57,18.26-53.94c-10.24,0.22-25.58,15.71-26.1,16.24
	c0.39-0.58,13.33-19.39,27.15-22.81c-13.58-7.85-36.82,0.6-36.82,0.6s11.93-15.99,20.52-23.09c8.6-7.09,19.47-9.04,33.35-6.48
	c-7.7-13.13-27.77-18.87-38.63-19.93c39.38-16.89,59.3-10.26,75.02,1.97c2.58-11.77-1.54-23.84-7.04-31.84
	c11.84,3.62,26.48,17.2,30.89,35.61c14.38-25.06,44.17-17.81,44.17-17.81s-16.29,1.96-25.27,19.46c32.98-2.86,47.46,15.39,47.46,16
	c0,0.6-17.5,1.21-27.76,6.49c14.19,8.6,25.79,24.74,32.73,38.77C576.11,121.3,556.06,117.37,556.06,117.37z"/>
<path fill="#FFFFFF" stroke="#000000" stroke-miterlimit="10" d="M624.56,360.85c-2.72,3.07-12.08,20.88-26.71,15.44
	c0,0-4.15-2.03-9.83-9.46c-3.42-4.48-7.4-10.93-11.35-20.09c-0.64-1.46-1.27-3.01-1.9-4.62c-8.97-22.9-6.53-50.48-5.28-60.17
	c1.65-0.8,3.05-1.55,4.08-2.22c-0.09-0.36-0.18-0.71-0.25-1.09c5.45,1.35,29.87,7.8,39.48,17.69c1.31,1.33,2.5,3.24,3.59,5.55
	C624.44,318.87,626.95,358.15,624.56,360.85z"/>
<path fill="#FFFFFF" stroke="#000000" stroke-miterlimit="10" d="M478.81,706.06c-0.22,9.68-2.87,25.95-5.64,40.49
	c-0.27,1.41-0.55,2.82-0.81,4.19c-0.67,0.66-3.45,2.73-12.06,3.73c-14.59-5.04-13.17-49.24-14.07-57.99
	c-0.91-8.75,19.46-30.71,19.46-30.71C465.67,666.47,479.25,685.48,478.81,706.06z"/>
<path fill="#FFFFFF" stroke="#000000" stroke-miterlimit="10" d="M449.53,669.32c-1.82,5.73-6.64,14.49-11.25,14.49
	c-4.61,0-15.61-9.05-18.02-14.49c-2.06-4.64,4.86-21.08,11.84-28.04c1.19-1.21,2.4-2.13,3.57-2.65l10.52,4.67
	c0,0,0.72,2.86,1.54,6.73C449.07,656.48,450.66,665.74,449.53,669.32z"/>
<path fill="#FFFFFF" stroke="#000000" stroke-miterlimit="10" d="M441.63,754.78c-1.88-0.1-3.86-0.23-5.97-0.39
	c-32.27-2.6-36.78-12.22-36.78-12.22c-0.06-0.69-0.13-1.35-0.19-2.02v-0.01c-1.94-22.97-1.35-40.41-1.35-40.41
	c1.42-10.74,6.34-20.84,8.75-27.42l0.01,0.01c0.67,0.25,22.25,8.81,26.91,30.81C437.76,725.46,441.63,754.78,441.63,754.78z"/>
<path fill="#FFFFFF" stroke="#000000" stroke-miterlimit="10" d="M586.48,758.38c-0.19,0.04-0.37,0.08-0.56,0.11
	c-2.83,0.55-5.58,0.85-8.19,0.97c-14.77,0.67-25.84-4.62-30.16-7.11c-3.31-7.48-6.59-14.99-8.56-19.79
	c-1.85-4.52-1.93-14.22-1.26-24.83c0.06-1.09,0.14-2.21,0.23-3.31c0.24-3.11,0.53-6.26,0.85-9.35c0.06-0.61,0.13-1.21,0.19-1.8
	c0.13-1.21,0.27-2.39,0.39-3.56c0.06-0.58,0.13-1.16,0.2-1.73c0.1-0.84,0.2-1.68,0.3-2.49c0.06-0.56,0.14-1.12,0.2-1.65
	c5.04,3.21,18.38,12.59,26.14,26.29C574.46,724.61,583.77,750.62,586.48,758.38z"/>
</svg>
