<?xml version="1.0" encoding="utf-8"?>
<!-- Generator: Adobe Illustrator 25.2.0, SVG Export Plug-In . SVG Version: 6.00 Build 0)  -->
<svg version="1.1" baseProfile="tiny" id="Layer_1" xmlns="http://www.w3.org/2000/svg" xmlns:xlink="http://www.w3.org/1999/xlink"
	 x="0px" y="0px" viewBox="0 0 1000 1000" overflow="visible" xml:space="preserve">
<path fill="#FFFFFF" stroke="#000000" stroke-miterlimit="10" d="M285.3,569.8c-22.8,67.7-64.9,64.9-89.8,68.4
	c-13.3,1.9-32.6-9.9-45.3-31.2c-11.2-18.7-17.2-44.7-9.6-75c8.8-34.7,26.6-54.1,43.9-64.7c15-9.1,29.8-11.6,38.1-11.6
	C240.4,455.7,308.1,502,285.3,569.8z"/>
<path fill="#FFFFFF" stroke="#000000" stroke-miterlimit="10" d="M395.8,389.8l-10.7,38.1c0,0-19.2,39.6-29.6,83.8
	c-5,21.5-4.7,50.2-5.2,77.3c-0.5,0.5-1,0.9-1.4,1.4l1.1,9.7c0,0.6,0,1.2-0.1,1.9c-0.2,6.2-0.5,12.1-1,17.8c-1.2-1.1-2-1.7-2-1.7
	c-13,4.1-15,40.5-15,40.5s1.5,1.7,3.8,4.7c-2.5,3.4-5.2,6.5-8,9.4c-0.6,0.6-1.2,1.2-1.9,1.9c-11.1,10.7-24.7,18-40.4,22.6
	c-14-24.5-25.6-24.5-25.6-24.5s-10.8,11.5-12.1,30.8c-7.8,0.5-15.4,0.4-22.6-0.2v0c-5.7-19.3-24.5-34.7-24.5-34.7s-10.3,4-10.3,26.7
	c-1.5-0.6-2.9-1.2-4.2-1.8c-0.2-2.2-0.2-4.1,0.1-5.3c-5.2-13.9-20.7-27.6-20.7-27.6s-3.1,4.7-3.9,14.1c-6.7-9.9-9.5-29.8-10.7-46.8
	c6.7,10.6,23,24.2,62.7,24.6c65.3,0.7,96-62.7,99.5-88.4c3.6-25.7,5-73.4-54.9-124.8c5.7-24.2,7.1-35.7,9.3-35.7
	c2.1,0,89.1,0,114.8-25.7C386.3,382.4,390.9,386.4,395.8,389.8z"/>
<path fill="#FFFFFF" stroke="#000000" stroke-miterlimit="10" d="M450.7,278.9c-6.4,33.5-17.1,37.1-17.1,37.1
	c-17.1,37.1-51.3,62-51.3,62c-25.7,25.7-112.6,25.7-114.8,25.7c-2.1,0-3.6,11.4-9.3,35.7c59.9,51.3,58.5,99.1,54.9,124.8
	c-3.6,25.7-34.2,89.1-99.5,88.4c-39.7-0.4-56-14-62.7-24.6c-0.5-8.1-0.7-15.5-0.8-20.8c12.7,21.3,32,33.1,45.3,31.2
	c25-3.6,67-0.7,89.8-68.4c22.8-67.7-44.9-114.1-62.7-114.1c-8.3,0-23,2.5-38.1,11.6c3.5-7.8,9-16.1,13.1-21.6
	c5.1-6.8,17.9-63.2,22.9-86c1,2.4,2,4.5,2.8,6.2c49.9,15,114.8,5.7,163.2-54.9c44-55,47.5-119,10.5-140.7
	c20.3,4.8,37.2,12.1,48,18.4C445,188.7,467.8,241.8,450.7,278.9z"/>
<path fill="#FFFFFF" stroke="#000000" stroke-miterlimit="10" d="M834.6,361.4v21.7c-15.9-2.4-29.8-11.3-44.5-26.9
	c-47.8-140.2-130.5-162.8-130.5-162.8c2.9-5.2,19.2-6.7,19.2-6.7s0.4,0.2,1.1,0.5c9.1,4,70.5,33.3,100.3,98.4
	c27.3,59.5,47.2,72.6,52.8,75.2C834,361.2,834.6,361.4,834.6,361.4z"/>
<path fill="#FFFFFF" stroke="#000000" stroke-miterlimit="10" d="M790,356.1c-47.8-140.2-130.5-162.8-130.5-162.8
	s-83.8-40.6-214.6-4.6c0,0,22.8,53.1,5.7,90.2c39.9-0.7,89.1-1.4,109.8,40.6c20.7,42.1,15.7,104.8,15.7,104.8l54.9,2.9
	c0,0-5.7-108.4,0-115.5s50.6-34.2,95.5-20.7c1.4,12.8,11.4,40.6,11.4,40.6s-42.1,5-56.3,67.7c-15.7,5-19.2,5.7-19.2,5.7l7.8,9.6
	l14.2-6.8c0,0,26.4,17.8,59.9,8.6c33.5-9.3,41.3-23.8,48.5-17.3C792.9,399.1,792.6,365.6,790,356.1z M693.3,401
	c-1.9-1,19-33.7,53.8-25.2C747.1,391.2,724.7,417.7,693.3,401z"/>
<path fill="#FFFFFF" stroke="#000000" stroke-miterlimit="10" d="M386.5,311c-48.5,60.6-113.3,69.9-163.2,54.9
	c-0.8-1.7-1.8-3.8-2.8-6.2c-11.6-27.3-32.9-98.7,31.3-156.4c47.1-42.3,103.3-42.9,145.2-33C434,192,430.5,256,386.5,311z"/>
<path fill="#FFFFFF" stroke="#000000" stroke-miterlimit="10" d="M833,360.7c-5.5-2.6-25.4-15.7-52.8-75.2
	c-29.9-65-91.3-94.3-100.3-98.4c20.7-5.3,91.4-18.9,133.6,30.2C851.6,261.6,840.5,330.5,833,360.7z"/>
<path fill="#FFFFFF" stroke="#000000" stroke-miterlimit="10" d="M861.5,627.9c-0.6,11.3-2.3,25.2-6.5,35c-1.4,3.4-3.2,6.3-5.3,8.3
	c-14,13.8-25.8,6.2-25.8,6.2s-1.2,0.6-3.2,1.4c3.8-5.7,6.1-11.5,7.2-17.1c2.8-13.8-7.6-37.8-10.9-38c0,0-18.5,19.7-17.8,31.1
	c0.4,6.6,0.3,18.6-1.1,29.3c-3.3,0-6.3-0.6-8.6-2c-10.5,2.3-17.2,1-22.3-0.8c-1.2-0.4-2.2-0.9-3.3-1.3c0.8-3.3,1.5-6.8,1.9-10.4
	c5.2-39.7-14.1-67.6-20.7-75.9c10.1-42.5,24.1-86,29-99.1c7.5-20,18.9-95.4,18.9-95.4s-0.2-33.5-2.8-43
	c14.7,15.7,28.6,24.6,44.5,26.9l-6.1,85c0,0,4.3,7.3,10.1,18c-6.5,11.4-16.2,35.9-14.6,78.9c2.4,63.9,29.2,78.2,29.2,78.2
	S857.3,636.8,861.5,627.9z"/>
<path fill="#FFFFFF" stroke="#000000" stroke-miterlimit="10" d="M861.7,623.1c-0.1,1.5-0.1,3.2-0.2,4.9c-4.2,8.8-8.2,15.2-8.2,15.2
	S826.4,628.9,824,565c-1.6-43,8.1-67.5,14.6-78.9c4.4,8.2,9.7,18.3,14.7,28.8c-4.1,9.1-10.7,29.1-7,56.8
	C850.2,600.1,855.3,615,861.7,623.1z"/>
<path fill="#FFFFFF" stroke="#000000" stroke-miterlimit="10" d="M863.2,624.2c-0.1,0.1-0.1,0.3-0.2,0.4c-0.4-0.5-0.9-1-1.3-1.5
	c-6.4-8.1-11.5-22.9-15.4-51.4c-3.8-27.6,2.9-47.6,7-56.8c7.3,15.3,13.8,31.3,15.8,42.7C874.2,587.1,868,613.5,863.2,624.2z"/>
<path fill="#FFFFFF" stroke="#000000" stroke-miterlimit="10" d="M734.4,829.4c-7.3-3.9-48.8-17.3-48.3-18.4s-4.1-17.7,13.2-26.1
	c4.3-2.1,10.8-4.4,18.8,7.2c0.6,0.8,1.2,1.8,1.8,2.8c4.1,6.9,7.4,13.3,9.8,18.9C732.4,820,734,825.3,734.4,829.4z"/>
<path fill="#FFFFFF" stroke="#000000" stroke-miterlimit="10" d="M765.6,828.7c0,0-23.7-10.6-35.9-15.1c-2.4-5.6-5.6-12-9.8-18.9
	c-0.6-1-1.2-1.9-1.8-2.8c2.2-6,10.6-7.2,10.6-7.2s0.7-0.2,1.8-0.3c4.7-0.6,17.8-0.7,26,14C766.7,816.8,765.6,828.7,765.6,828.7z"/>
<path fill="#FFFFFF" stroke="#000000" stroke-miterlimit="10" d="M744.4,416.5c-33.5,9.3-59.9-8.6-59.9-8.6l-14.2,6.8l-7.8-9.6
	c0,0,3.6-0.7,19.2-5.7c14.3-62.7,56.3-67.7,56.3-67.7s-10-27.8-11.4-40.6c-44.9-13.5-89.8,13.5-95.5,20.7s0,115.5,0,115.5l-54.9-2.9
	c0,0,5-62.7-15.7-104.8c-20.7-42-69.9-41.3-109.8-40.6c-6.4,33.5-17.1,37.1-17.1,37.1s25.7,2.9,42.8,22.8
	c17.1,20,23.6,54.9,23.6,54.9l21.3,9.3l-3.6,11.8l-18.2-10.3c-40.5,8.7-77.7,3.8-103.7-14.5l-10.7,38.1c0,0-19.2,39.6-29.6,83.8
	c-5,21.5-4.7,50.2-5.2,77.3c6.7-6.3,19.9-13.8,39-3.2c28.9,16,40.6,80.8,32.4,111.3c-8.2,30.5-23.2,54-52.8,47.3
	c-0.8-0.2-1.7-0.4-2.5-0.7l6.8,58.8c0,0,7.3,6.3,27,11.6c0-9.3,15.7-28.4,15.7-28.4c15.8,5.7,19.6,32.8,19,34.3v0c1,0.1,2,0.2,3,0.3
	c7.6,0.6,15.4,0.9,23,1c-0.5-1.1-0.9-2.3-1.3-3.7c-4.5-15.7,13.1-29.9,13.1-29.9s11.6,5.2,15,19.2c1.4,6.1,2.1,9.4,1.3,13.7
	c7.2-0.4,13.9-1,20.1-1.5c0,0-2.6-21.1,12.6-31.4c0,0,10.5,9,12.9,28.3c4.1-0.6,6.3-1,6.3-1s11.4-60.2,18.5-77.7
	c4.1-10,8.8-14.1,12-15.7l6.5,84.5c0,0,26.8,6.6,57.1,8.4c-1.1-6.7,6.5-24,17.3-26.9c0,0,14.7,5,23.6,25.4c3.4-0.6,6.7-1.3,9.8-2.1
	c0.5-1.2-4.1-17.7,13.2-26.1c4.3-2.1,10.8-4.4,18.8,7.2c2.2-6,10.6-7.2,10.6-7.2s0.7-0.2,1.8-0.3c0.5-0.6,0.7-1,0.7-1
	s-0.4-21.5-0.2-49.1c0-2.7,0.1-5.5,0.1-8.3v0c0.3-23.6,1.1-50.4,2.9-71.9c1.3-15,4.7-33.5,9-52.7c0.6-2.6,1.2-5.3,1.9-7.9
	c10.1-42.5,24.1-86,29-99.1c7.5-20,18.9-95.4,18.9-95.4C785.8,392.7,777.9,407.2,744.4,416.5z M661.7,474.9
	c-11.4,1.1-33.9,10.3-69.2,6.8c-35.3-3.6-48.8-7.8-75.2-6.4c-26.4,1.4-49.9,6.1-49.9,6.1s43.1-37.4,62.4-36
	c19.2,1.4,54.2,8.5,82.3,7.8c28.2-0.7,33.5-10,58.5,0.3c25,10.3,34.6,32.8,34.6,32.8S673.1,473.9,661.7,474.9z"/>
<path fill="#FFFFFF" stroke="#000000" stroke-miterlimit="10" d="M500,393.7c0,0-6.5-34.9-23.6-54.9c-17.1-20-42.8-22.8-42.8-22.8
	c-17.1,37.1-51.3,62-51.3,62c4.1,4.4,8.6,8.4,13.5,11.8c26.1,18.3,63.3,23.2,103.7,14.5l18.2,10.3l3.6-11.8L500,393.7z M485.1,388.8
	c-31.4,16.6-53.8-9.8-53.8-25.2C466.1,355.1,487,387.8,485.1,388.8z"/>
<path fill="#FFFFFF" stroke="#000000" stroke-miterlimit="10" d="M421.8,697.1c-8.2,30.5-23.2,54-52.8,47.3
	c-0.8-0.2-1.7-0.4-2.5-0.7c-25.9-7.9-38.2-44.2-40.6-69.2c0.6-0.6,1.3-1.2,1.9-1.9c2.1,11.7,11.9,57,37.3,58.2c0.6,0,1.2,0,1.8,0
	c30.7-1.1,38.8-49.5,37.1-64.2c-1.7-14.2-11.6-76.9-53.7-64.9l-0.2-1.8c0.1-3.6,0.2-7.3,0.3-11.1c6.7-6.3,19.9-13.8,39-3.2
	C418.3,601.8,430,666.6,421.8,697.1z"/>
<path fill="#FFFFFF" stroke="#000000" stroke-miterlimit="10" d="M366.9,730.9c-0.6,0-1.2,0-1.8,0c-25.4-1.2-35.2-46.5-37.3-58.2
	c2.8-2.9,5.5-6,8-9.4c6.4,8.4,18.6,27.1,19.2,47.3c2.5-3.4,4.8-6.7,6.7-10v0c22-37.8,1.9-65.9-8.9-77.2l-2.5-21.6
	c42.1-12.1,52,50.6,53.7,64.9C405.8,681.3,397.6,729.8,366.9,730.9z"/>
<path fill="#FFFFFF" stroke="#000000" stroke-miterlimit="10" d="M361.7,700.6L361.7,700.6c-1.9,3.3-4.1,6.6-6.7,10
	c-0.5-20.2-12.7-38.9-19.2-47.3c-2.3-3-3.8-4.7-3.8-4.7s2-36.4,15-40.5c0,0,0.8,0.6,2,1.7c1,0.9,2.3,2.1,3.8,3.7
	C363.5,634.6,383.6,662.8,361.7,700.6z"/>
<path fill="#FFFFFF" stroke="#000000" stroke-miterlimit="10" d="M288.4,748.2c0,0-34.5-13.7-40.6-44.4c0-0.1,0-0.2,0-0.3
	c1.3-19.3,12.1-30.8,12.1-30.8s11.6,0,25.6,24.5C286.3,712.1,288.4,748.2,288.4,748.2z"/>
<path fill="#FFFFFF" stroke="#000000" stroke-miterlimit="10" d="M228.5,739.6c0,0-38.1-21.8-38.1-44.4c0-22.6,10.3-26.7,10.3-26.7
	s18.8,15.4,24.5,34.7v0C224.5,716.1,228.5,739.6,228.5,739.6z"/>
<path fill="#FFFFFF" stroke="#000000" stroke-miterlimit="10" d="M193.1,726.3c0,0-27.8-18-30.9-37.1c-0.9-5.8-1-10.7-0.6-14.7
	c0.8-9.3,3.9-14.1,3.9-14.1s15.5,13.6,20.7,27.6c-0.3,1.3-0.3,3.1-0.1,5.3C187.1,705,193.1,726.3,193.1,726.3z"/>
<path fill="#FFFFFF" stroke="#000000" stroke-miterlimit="10" d="M435.2,820.1L435.2,820.1c-0.6,1.6-4,13.2-10.4,25.1
	c-4.8-18.1-23.3-21.3-24.3-30.2c0-0.3,0-0.5,0-0.8c0-9.3,15.7-28.4,15.7-28.4C431.9,791.5,435.7,818.5,435.2,820.1z"/>
<path fill="#FFFFFF" stroke="#000000" stroke-miterlimit="10" d="M489.3,820.5c-1,5.5-4.4,12.6-11.5,29.1
	c-3-15.2-11.6-16.3-16.5-28.4c-0.5-1.1-0.9-2.3-1.3-3.7c-4.5-15.7,13.1-29.9,13.1-29.9s11.6,5.2,15,19.2
	C489.5,813,490.1,816.3,489.3,820.5z"/>
<path fill="#FFFFFF" stroke="#000000" stroke-miterlimit="10" d="M533.6,840.4c-6.7-12.6-24.2-21.4-24.2-21.4s-2.6-21.1,12.6-31.4
	c0,0,10.5,9,12.9,28.3C535.8,822.8,535.6,830.9,533.6,840.4z"/>
<path fill="#FFFFFF" stroke="#000000" stroke-miterlimit="10" d="M682,834.3c-12.8-5.8-44.2-13-46.3-18.9c-0.1-0.3-0.2-0.6-0.2-0.9
	c-1.1-6.7,6.5-24,17.3-26.9c0,0,14.7,5,23.6,25.4C678.9,818.8,680.9,825.8,682,834.3z"/>
<path fill="#FFFFFF" stroke="#000000" stroke-miterlimit="10" d="M753,667.8c-2.6,24.9-14.1,46.4-21.8,58.4
	c0.3-23.6,1.1-50.4,2.9-71.9c1.3-15,4.7-33.5,9-52.7C746.8,610.6,756.1,637,753,667.8z"/>
<path fill="#FFFFFF" stroke="#000000" stroke-miterlimit="10" d="M765.7,669.5c-0.5,3.6-1.1,7.1-1.9,10.4
	c-6.6,27.6-23.1,45.7-32.7,54.5c0-2.7,0.1-5.5,0.1-8.3v0c7.7-12,19.2-33.5,21.8-58.4c3.2-30.8-6.2-57.2-9.9-66.2
	c0.6-2.6,1.2-5.3,1.9-7.9C751.6,601.9,770.9,629.8,765.7,669.5z"/>
<path fill="#FFFFFF" stroke="#000000" stroke-miterlimit="10" d="M827.8,661.7c-1.2,5.5-3.4,11.4-7.2,17.1
	c-5.5,8.4-14.2,16.6-27.1,23.5c1.2-2.7,2.2-5.3,3-7.5c-0.2,0.3-0.5,0.6-0.8,0.8c1-3.3,1.7-7.3,2.2-11.5c1.4-10.7,1.5-22.7,1.1-29.3
	c-0.7-11.4,17.8-31.1,17.8-31.1C820.2,623.9,830.7,647.9,827.8,661.7z"/>
<path fill="#FFFFFF" stroke="#000000" stroke-miterlimit="10" d="M844.2,705.9c-17.4,14.7-35.4,20-33.6,18.8
	c1.2-0.8,7.8-9.7,11.3-23.8c1.7-6.8,2.6-14.7,1.9-23.5c0,0,11.8,7.6,25.8-6.2c2.1-2.1,3.9-5,5.3-8.3
	C856.3,672.5,857.5,694.6,844.2,705.9z"/>
<path fill="#FFFFFF" stroke="#000000" stroke-miterlimit="10" d="M821.9,700.9c-8.2,6.8-24.4,18.6-40.2,21.1
	c5.3-6.8,9.1-13.8,11.8-19.8h0c12.9-6.9,21.5-15.1,27.1-23.5c2-0.8,3.2-1.4,3.2-1.4C824.5,686.2,823.6,694.2,821.9,700.9z"/>
<path fill="#FFFFFF" stroke="#000000" stroke-miterlimit="10" d="M798,684.1c-0.5,4.2-1.2,8.1-2.2,11.5v0
	c-6.5,7.1-19.9,19-41.1,24.8c13.1-11.4,13.1-31,12.4-39.1c5.1,1.8,11.8,3.1,22.3,0.8C791.7,683.6,794.7,684.1,798,684.1z"/>
<path fill="#FFFFFF" stroke="#000000" stroke-miterlimit="10" d="M705.2,486.3c0,0-32.1-12.5-43.5-11.4
	c-11.4,1.1-33.9,10.3-69.2,6.8c-35.3-3.6-48.8-7.8-75.2-6.4c-26.4,1.4-49.9,6.1-49.9,6.1s43.1-37.4,62.4-36
	c19.2,1.4,54.2,8.5,82.3,7.8c28.2-0.7,33.5-10,58.5,0.3C695.6,463.9,705.2,486.3,705.2,486.3z"/>
<path fill="#FFFFFF" stroke="#000000" stroke-miterlimit="10" d="M747.1,375.8c0,15.4-22.4,41.8-53.8,25.2
	C691.4,400,712.3,367.3,747.1,375.8z"/>
<path fill="#FFFFFF" stroke="#000000" stroke-miterlimit="10" d="M485.1,388.8c-31.4,16.6-53.8-9.8-53.8-25.2
	C466.1,355.1,487,387.8,485.1,388.8z"/>
</svg>
