<?xml version="1.0" encoding="utf-8"?>
<!-- Generator: Adobe Illustrator 25.2.0, SVG Export Plug-In . SVG Version: 6.00 Build 0)  -->
<svg version="1.1" baseProfile="tiny" id="Layer_1" xmlns="http://www.w3.org/2000/svg" xmlns:xlink="http://www.w3.org/1999/xlink"
	 x="0px" y="0px" viewBox="0 0 1000 1000" overflow="visible" xml:space="preserve">
<path fill="#FFFFFF" stroke="#000000" stroke-miterlimit="10" d="M533.6,322.89l-15.04,39.32c-1.71-5.39-4.32-9.84-7.49-12.76
	c3.05-8.03,12.89-25.4,16.24-31.24L533.6,322.89z"/>
<path fill="#FFFFFF" stroke="#000000" stroke-miterlimit="10" d="M527.31,318.21c-3.35,5.84-13.19,23.21-16.24,31.24
	c-0.95-0.86-1.94-1.6-2.98-2.18c1.95-5.08,10.08-25.69,16.12-31.37L527.31,318.21z"/>
<path fill="#FFFFFF" stroke="#000000" stroke-miterlimit="10" d="M524.21,315.9c-6.04,5.68-14.17,26.29-16.12,31.37
	c-0.18-0.1-0.36-0.2-0.55-0.29c-2.2-1.1-4.43-1.75-6.62-1.93c-4.25-14.27,1.49-35.65,3.94-43.57L524.21,315.9z"/>
<path fill="#FFFFFF" stroke="#000000" stroke-miterlimit="10" d="M500.92,345.05c-0.69-0.07-1.38-0.08-2.06-0.05
	c-1.74-7.52-5.59-28.93-2.57-49.9l8.57,6.38C502.41,309.4,496.67,330.78,500.92,345.05z"/>
<path fill="#FFFFFF" stroke="#000000" stroke-miterlimit="10" d="M389.97,294.29l0.67-0.52c-1.88,12.27-0.94,23.44-0.67,25.93
	c-0.94-0.03-1.48-0.05-1.48-0.05l-0.01-0.02c-0.43-0.83-15.29-29.42-13.18-44.53c0.28-1.98,0.66-4.32,1.2-6.89
	c2.37-11.29,7.74-27.15,20.28-37.44c5.25-4.32,11.75-7.65,19.81-9.26C376.49,251.68,389.91,290.66,389.97,294.29z"/>
<path fill="#FFFFFF" stroke="#000000" stroke-miterlimit="10" d="M482.56,284.87c-1.2,4.19-3.38,7.92-6.08,11.2
	c-1.94,2.37-4.17,4.51-6.49,6.42c-4.03,3.3-8.37,5.94-12.15,7.93c-3.99,2.1-7.36,3.5-9.11,4.24c-1.06,0.45-2.02,1.03-2.89,1.69
	c-0.83,0.64-1.58,1.35-2.27,2.09c-3.18,3.46-4.98,7.71-6.96,8.7c-1.47,0.73-3.69,0.61-6.48-0.12h-0.01
	c-3.1-4.36-7.6-11.43-11.97-21.08c-3.33-7.33-6.57-16.14-9.06-26.36c-0.92-3.8-1.74-7.79-2.42-11.97c-0.27-1.65-0.49-3.26-0.66-4.81
	c6.82-5.19,17.16-4.85,27.74-2.19c19.02,4.76,38.8,16.99,40.3,17.92c0.06,0.04,0.09,0.06,0.09,0.06l7.09,5.28L482.56,284.87z"/>
<path fill="#FFFFFF" stroke="#000000" stroke-miterlimit="10" d="M480.81,248.75l-2.9,6.05l-3.87-7.48
	c-1.33-4.87-2.95-11.3-4.09-17.52c-1.21-6.53-1.88-12.83-1.15-16.84c2.03-11.02,5.11-31.82,5.45-34.03
	c-0.14,2.67-1.8,33.44,0.02,41.51c0.51,2.27,1.77,6.96,3.19,12.86C478.57,237.9,479.78,243.24,480.81,248.75z"/>
<path fill="#FFFFFF" stroke="#000000" stroke-miterlimit="10" d="M468.5,274.39l5.55,4.14c-1.5-0.93-21.28-13.16-40.3-17.92
	l0.36-0.28c0,0-11.88-26.7-17.52-38.82c2.27-0.46,4.66-0.78,7.18-0.95c9-0.59,16.77,1,23.41,3.77h0.01
	c13.49,5.61,22.25,16.09,26.85,22.99l3.87,7.48L468.5,274.39z"/>
<path fill="#FFFFFF" stroke="#000000" stroke-miterlimit="10" d="M363.89,266.55c0.29-7.65-2.88-17.24-7.03-27.46
	c-3.69-9.08-8.16-18.65-11.68-27.79c4.77,6.62,9.1,13.46,12.95,20.08c8.85,15.21,15.18,29.26,18.37,36.83
	c-0.54,2.57-0.92,4.91-1.2,6.89c-2.11,15.11,12.75,43.7,13.18,44.53l-25.12-29.2C363.36,290.43,363.36,280.98,363.89,266.55z"/>
<polygon fill="#FFFFFF" stroke="#000000" stroke-miterlimit="10" points="582.86,250.74 557.2,256.21 505.87,219.38 505.87,196.56 
	"/>
<polygon fill="#FFFFFF" stroke="#000000" stroke-miterlimit="10" points="637.52,230.31 582.86,250.74 505.87,196.56 571.22,184.68 
	600.31,204.7 "/>
<polygon fill="#FFFFFF" stroke="#000000" stroke-miterlimit="10" points="557.2,256.21 529.28,310.51 483.56,278.97 482.87,278.5 
	476.92,274.39 477.6,274.39 483.01,263.87 505.87,219.38 "/>
<polygon fill="#FFFFFF" stroke="#000000" stroke-miterlimit="10" points="505.87,196.56 505.87,219.38 483.01,263.87 477.6,274.39 
	468.5,274.39 480.81,248.75 489.47,230.72 "/>
<path fill="#FFFFFF" stroke="#000000" stroke-miterlimit="10" d="M580.15,315.42c-10.68,7.52-35.25,26.27-53.25,51.2
	c-2.16,2.97-4.22,6.04-6.15,9.19c-0.12-4.9-0.9-9.52-2.19-13.6l15.04-39.32l6.37,4.75l34.24-19.33
	C575.24,311.66,577.4,314.18,580.15,315.42z"/>
<path fill="#FFFFFF" stroke="#000000" stroke-miterlimit="10" d="M498.86,345c-2.93,0.12-5.77,1.08-8.37,2.86
	c-3.55-15.21-3.43-50.33-3.33-59.57l9.13,6.81C493.27,316.07,497.12,337.48,498.86,345z"/>
<path fill="#FFFFFF" stroke="#000000" stroke-miterlimit="10" d="M520.75,375.81c-0.12-4.9-0.9-9.52-2.19-13.6
	c-1.71-5.39-4.32-9.84-7.49-12.76c-0.95-0.86-1.94-1.6-2.98-2.18c-0.18-0.1-0.36-0.2-0.55-0.29c-2.2-1.1-4.43-1.75-6.62-1.93
	c-0.69-0.07-1.38-0.08-2.06-0.05c-2.93,0.12-5.77,1.08-8.37,2.86c-5.21,3.57-9.47,10.44-11.63,20.51
	c-1.62,7.57-1.58,14.42-0.54,20.28c1.68,9.6,6.03,16.54,10.09,19.64c6.53,4.99,22.45,7.48,29.46-13.43
	C520.03,388.41,520.9,381.9,520.75,375.81z M512.05,381.91c-3.68,18.42-13.3,18.21-17.34,18.14c-4.04-0.08-12.72-14.81-11.05-28.48
	c1.66-13.66,10.21-19.12,16.27-17.58C504.79,355.23,515.74,363.5,512.05,381.91z"/>
<path fill="#FFFFFF" stroke="#000000" stroke-miterlimit="10" d="M512.05,381.91c-3.68,18.42-13.3,18.21-17.34,18.14
	c-4.04-0.08-12.72-14.81-11.05-28.48c1.66-13.66,10.21-19.12,16.27-17.58C504.79,355.23,515.74,363.5,512.05,381.91z"/>
<path fill="#FFFFFF" stroke="#000000" stroke-miterlimit="10" d="M489.47,230.72l-8.66,18.03c-1.03-5.51-2.24-10.85-3.35-15.45
	L489.47,230.72z"/>
<path fill="#FFFFFF" stroke="#000000" stroke-miterlimit="10" d="M474.04,247.32c-4.6-6.9-13.36-17.38-26.85-22.99
	c8.39-1.31,17.15,2.36,22.76,5.47C471.09,236.02,472.71,242.45,474.04,247.32z"/>
<path fill="#FFFFFF" stroke="#000000" stroke-miterlimit="10" d="M389.97,319.7c-0.94-0.03-1.48-0.05-1.48-0.05l-0.01-0.02
	l-25.12-29.2c0,0,0-9.45,0.53-23.88c0.29-7.65-2.88-17.24-7.03-27.46c-0.86,1.64-2.25,3.07-4.49,3.72
	c-6.89,1.99-15.68,22.19-17.35,33.83c-3.09-3.56-12.59,1.06-11.17,26.91c1.43,25.85,9.27,35.83,13.31,39.39
	c1.83,1.62,7.8,6.27,13.78,10.89c1.09-0.82,2-1.6,2.59-2.13c-4.89-3.22-17.58-12.13-20.17-19.57c-4.75-13.6-11.64-41.94-4.75-44.32
	c6.89-2.37,7.13,30.89,19.01,45.86c8.26,10.41,14.32,17.03,17.24,20.09c1.49-2.53,3.4-4.66,5.28-6.37c3.71-3.36,7.3-5.1,7.3-5.1
	l-9.45-2.85c0,0,5.17,0,7.84,0c2.68,0,11.41-3.39,13.91-7.31C388.01,329.24,389.04,323.44,389.97,319.7z M347.66,298.38
	c-0.72-8.23-1.95-21.74-2.48-24.34c-0.77-3.8-7.78-0.84-7.78-0.84c0.47-0.95,7.13-20.2,9.74-15.33
	C348.89,261.12,347.88,282.92,347.66,298.38z"/>
<path fill="#FFFFFF" stroke="#000000" stroke-miterlimit="10" d="M347.66,298.38c-0.72-8.23-1.95-21.74-2.48-24.34
	c-0.77-3.8-7.78-0.84-7.78-0.84c0.47-0.95,7.13-20.2,9.74-15.33C348.89,261.12,347.88,282.92,347.66,298.38z"/>
<path fill="#FFFFFF" stroke="#000000" stroke-miterlimit="10" d="M396.78,230.77c-12.54,10.29-17.91,26.15-20.28,37.44
	c-3.19-7.57-9.52-21.62-18.37-36.83c0,0,5.88,2.97,13.49,5.34c7.6,2.38,13.07-10.33,13.07-10.33L396.78,230.77z"/>
<path fill="#FFFFFF" stroke="#000000" stroke-miterlimit="10" d="M364.86,353.76c-1.47,2.49-2.52,5.38-2.73,8.65
	c-2.79-2.14-7-5.35-11.19-8.58c1.09-0.82,2-1.6,2.59-2.13c-4.89-3.22-17.58-12.13-20.17-19.57c-4.75-13.6-11.64-41.94-4.75-44.32
	c6.89-2.37,7.13,30.89,19.01,45.86C355.88,344.08,361.94,350.7,364.86,353.76z"/>
<path fill="#FFFFFF" stroke="#000000" stroke-miterlimit="10" d="M474.27,366.94c-4.63,9.27-10.69,10.1-16.75,13.55
	c-4.66,2.65-11.08,11.37-17.15,15.71c-1.82,1.31-3.61,2.22-5.31,2.46c-5.74,0.79-7.76,4.43-8.38,6c-0.1-0.07-0.19-0.14-0.29-0.2
	c-0.35-6.27,1.1-6.93,4.34-10.67c3.38-3.92,16.21-14.97,18.35-18.53c-9.98,1.42-14.97,12.83-14.97,12.83s-0.78-6.67,9.55-16.4
	c0.74-0.7,1.53-1.41,2.39-2.14c12.83-10.87,29.59-30.11,31.54-40.63c1.01-5.44-2.32-14.74-5.76-22.46
	c-0.62-1.38-1.24-2.72-1.84-3.97c2.32-1.91,4.55-4.05,6.49-6.42c1.81,3.14,3.58,7.28,3.85,11.82
	C480.92,317.75,478.9,357.67,474.27,366.94z"/>
<path fill="#FFFFFF" stroke="#000000" stroke-miterlimit="10" d="M370.13,392.72l-9.98-0.17c0,0,4.1,3.02,7.84,7.06
	c-1.08,2.54-3.44,4.65-6.15,6.33h-0.01c-5.39,3.34-12.14,5-12.73,5.08c-0.89,0.12-20.85-13.48-23.17-13.13
	c-0.74,0.12-2.1,0.95-3.81,2.08c6.7-4.75,11.46-12.19,11.12-14.85c-0.2-1.55-1.86-3.72-3.33-5.39c0.18-0.23,0.29-0.38,0.34-0.43
	c0.44-0.52,1.67-7.98-0.61-10.68c0.16-0.3,0.29-0.58,0.39-0.85c0.79-2.06-0.65-3.6-2.89-4.69c3.13-2.7,4.67-9.34,4.67-9.34
	s7.31,4.05,11.77,3.7c2.35-0.19,5.2-1.97,7.36-3.61c4.19,3.23,8.4,6.44,11.19,8.58c-0.21,3.6,0.59,7.65,3.01,12.14
	c-1.03-9.75,7.47-21.58,8.16-22.52c-0.6,0.98-8.17,13.7,1.79,20.38c0.31-0.08,0.65-0.21,1-0.37
	C375.41,379.66,370.13,392.72,370.13,392.72z"/>
<path fill="#FFFFFF" stroke="#000000" stroke-miterlimit="10" d="M331.81,353.74c0,0-0.23,0.99-0.69,2.37
	c-0.74,2.18-2.06,5.31-3.98,6.97c-2.46-1.19-5.9-1.85-8.42-2.05c1.59-2.63,2.76-6.83,1.24-10.72c-1.44-3.71-7.22-6.84-10.51-8.36
	c0.96-0.13,1.51-0.2,1.51-0.2s1.79-0.71,3.21-1.6c1.16-0.72,8,0.56,12.9,2.31c1.12,0.4,2.13,0.82,2.96,1.25
	C334.49,346.03,331.81,353.74,331.81,353.74z"/>
<path fill="#FFFFFF" stroke="#000000" stroke-miterlimit="10" d="M330.03,367.77c-0.1,0.27-0.23,0.55-0.39,0.85
	c-2.99,5.84-14.98,16.5-16,16.5c-1.07,0-25.43-4.99-25.43-4.99s-4.57,2.91-9.06,1.1c-3.15-2.96-3.63-13.54-1.51-21.8
	c4.68,3.15,13.6,9.08,16.57,10.57c4.1,2.05,20.67-5.08,22.81-6.86c0.55-0.46,1.15-1.19,1.7-2.11c2.52,0.2,5.96,0.86,8.42,2.05
	C329.38,364.17,330.82,365.71,330.03,367.77z"/>
<path fill="#FFFFFF" stroke="#000000" stroke-miterlimit="10" d="M330.25,379.3c-0.05,0.05-0.16,0.2-0.34,0.43
	c0,0-12.23,10.26-15.56,12.39c-3.33,2.14-24.77,3.28-24.77,3.28c-11.23-1.79-6.42-10.7-8.74-13.37c-0.63-0.05-1.19-0.33-1.69-0.8
	c4.49,1.81,9.06-1.1,9.06-1.1s24.36,4.99,25.43,4.99c1.02,0,13.01-10.66,16-16.5C331.92,371.32,330.69,378.78,330.25,379.3z"/>
<path fill="#FFFFFF" stroke="#000000" stroke-miterlimit="10" d="M322.12,399.97c-0.04,0.02-0.08,0.05-0.12,0.08
	c-0.43,0.3-0.87,0.59-1.32,0.87c0,0.01-0.01,0.01-0.01,0.01c-3.45,2.32-7.82,5.27-11.31,6.23c-5.88,1.6-4.81-2.14-9.45-1.78
	c-4.63,0.35-6.06-3.39-10.33-9.98c0,0,21.44-1.14,24.77-3.28c3.33-2.13,15.56-12.39,15.56-12.39c1.47,1.67,3.13,3.84,3.33,5.39
	C333.58,387.78,328.82,395.22,322.12,399.97z"/>
<path fill="#FFFFFF" stroke="#000000" stroke-miterlimit="10" d="M449.08,375.26c-2.14,3.56-14.97,14.61-18.35,18.53
	c-3.24,3.74-4.69,4.4-4.34,10.67c-4.08-2.87-7.45-5.26-9.79-6.92c-1.21-4.25-1.91-8.15-2.24-10.16c5.57-2.29,8.58-5.11,8.58-5.11
	l-0.71,6.41c0,0,8.5-4.56,9.74-11.78c0.43-2.52-0.25-5.7-1.31-8.78c2.95,2,5.73,3.18,8.32,3.57h4.68
	c-10.33,9.73-9.55,16.4-9.55,16.4S439.1,376.68,449.08,375.26z"/>
<path fill="#FFFFFF" stroke="#000000" stroke-miterlimit="10" d="M411.12,411.02c-0.44,0.24-0.92,0.45-1.44,0.63
	c-1.71,0.6-3.84,0.89-6.23,0.99c-1.07,0.04-2.2,0.05-3.37,0.02h-0.01c-0.35,0-0.7-0.01-1.06-0.03c-0.95-0.03-1.93-0.08-2.92-0.15
	c-3.36-0.21-6.92-0.57-10.43-0.89c-2.88-0.25-5.73-0.48-8.4-0.57c-1.14-0.04-2.25-0.16-3.32-0.33c-1.09-0.18-2.14-0.42-3.16-0.72
	c-3.51-0.99-6.57-2.54-8.94-4.03c2.71-1.68,5.07-3.79,6.15-6.33c-3.74-4.04-7.84-7.06-7.84-7.06l9.98,0.17
	c0,0,5.28-13.06,5.96-20.68c1.91-0.84,4.2-2.49,4.2-2.49l9.27-0.17c0,0,2.14,8.91-4.64,11.58c6.42,0,20.68-0.71,19.79-16.93
	c-0.87-15.71-7.92-21.22-8.36-21.54c0.58,0.3,14.49,7.84,15.66,20.17c1.19,12.6-9.62,16.16-12.95,17.35
	c4.99,4.63,17.23,1.54,17.23,1.54s-5.31,7.09-9.21,8c2.77-0.53,5.21-1.31,7.28-2.17c0.33,2.01,1.03,5.91,2.24,10.16
	c0.02,0.06,0.03,0.11,0.05,0.17C418.43,403.95,417.54,407.52,411.12,411.02z"/>
<path fill="#FFFFFF" stroke="#000000" stroke-miterlimit="10" d="M710.36,268.46c-17.26-12.55-38.51-40.94-38.51-40.94l-36.04,5.79
	l1.71-3l-37.21-25.61c6.17-0.9,13.09-1.96,13.09-1.96l9.09,3.21l8.37-5.35l17.67,9.27l10.85-6.41l17.94,10.69L710.36,268.46z"/>
<path fill="#FFFFFF" stroke="#000000" stroke-miterlimit="10" d="M490.49,347.86c-5.21,3.57-9.47,10.44-11.63,20.51
	c-1.62,7.57-1.58,14.42-0.54,20.28c-5.73,3.31-24.94,9.06-24.94,9.06s-1.68,1.43,0.81,9.88c-3.09-1.53-7.13-8.21-7.13-8.21
	s-0.95,7.6-0.71,11.64c-4.57-2.67-5.71-11.45-5.98-14.82c6.07-4.34,12.49-13.06,17.15-15.71c6.06-3.45,12.12-4.28,16.75-13.55
	c4.63-9.27,6.65-49.19,6.06-59.05c-0.27-4.54-2.04-8.68-3.85-11.82c2.7-3.28,4.88-7.01,6.08-11.2l4.6,3.42
	C487.06,297.53,486.94,332.65,490.49,347.86z"/>
<polygon fill="#FFFFFF" stroke="#000000" stroke-miterlimit="10" points="539.97,327.64 533.6,322.89 527.31,318.21 524.21,315.9 
	504.86,301.48 496.29,295.1 487.16,288.29 482.56,284.87 481.23,283.87 468.5,274.39 476.92,274.39 482.87,278.5 483.56,278.97 
	529.28,310.51 "/>
<polygon fill="#FFFFFF" stroke="#000000" stroke-miterlimit="10" points="582.86,250.74 539.97,327.64 529.28,310.51 557.2,256.21 
	"/>
<path fill="#FFFFFF" stroke="#000000" stroke-miterlimit="10" d="M637.52,230.31l-1.71,3l-9.54,16.78
	c-2.55-2.53-6.44-5.68-8.24-6.83c-2.97-1.9-13.9,2.14-21.15,12.95c-5.41,8.08-11.76,21.34-14.62,27.52
	c-1.36,2.94-0.69,6.34,1.47,8.51c-3.59,1.93-11.37,7.04-9.9,14.58c0.1,0.51,0.23,1.01,0.38,1.49l-34.24,19.33l42.89-76.9
	L637.52,230.31z"/>
<path fill="#FFFFFF" stroke="#000000" stroke-miterlimit="10" d="M626.27,250.09l-1.82,3.2l-3.6,6.32v0.01
	c-4.33,3.5-9,7.52-9.83,9.3c-0.33,0.71-1.17,2.45-2.32,4.73c-4.23,8.36-12.65,23.95-15.26,22.36c-0.06-0.04-0.12-0.07-0.18-0.1
	c-1.85-1.01-4.72-1.01-7.33-2.16c-0.85-0.38-1.59-0.89-2.2-1.51c-2.16-2.17-2.83-5.57-1.47-8.51c2.86-6.18,9.21-19.44,14.62-27.52
	c7.25-10.81,18.18-14.85,21.15-12.95C619.83,244.41,623.72,247.56,626.27,250.09z"/>
<path fill="#FFFFFF" stroke="#000000" stroke-miterlimit="10" d="M595.34,309.41c-5.04,6.6-10.83,7.95-15.18,6.01h-0.01
	c-2.75-1.24-4.91-3.76-5.94-7.11c-0.15-0.48-0.28-0.98-0.38-1.49c-1.47-7.54,6.31-12.65,9.9-14.58c0.61,0.62,1.35,1.13,2.2,1.51
	c2.61,1.15,5.48,1.15,7.33,2.16c-0.09,0.59-0.15,1.18-0.19,1.75c-0.06,0.87-0.07,1.73-0.05,2.55
	C593.15,303.79,594.05,306.96,595.34,309.41z"/>
<path fill="#FFFFFF" stroke="#000000" stroke-miterlimit="10" d="M650.94,261.67c0,0-20.08,17.11-23.64,21.15
	c-0.47,0.53-1.03,1.24-1.65,2.07c-4.14,5.48-11.02,16.29-11.54,16.7c-0.36,0.29-3.01,4.94-6.12,8.61c-0.85,1-1.73,1.92-2.6,2.66
	c-1.21,1.03-2.41,1.72-3.52,1.8c-2.24,0.17-4.76-1.86-6.53-5.25c-1.29-2.45-2.19-5.62-2.32-9.2c-0.02-0.82-0.01-1.68,0.05-2.55
	c0.04-0.57,0.1-1.16,0.19-1.75c0.06,0.03,0.12,0.06,0.18,0.1c2.61,1.59,11.03-14,15.26-22.36c1.15-2.28,1.99-4.02,2.32-4.73
	c0.83-1.78,5.5-5.8,9.83-9.3v-0.01c3.75-3.04,7.27-5.69,7.76-6.13c0.23-0.2,0.01-0.71-0.51-1.39c4.83-1.39,13.21-3.14,17.38-0.04
	c4.17,3.1,5.19,6.48,5.42,8.3C651,261.17,650.94,261.67,650.94,261.67z"/>
<path fill="#FFFFFF" stroke="#000000" stroke-miterlimit="10" d="M666.71,274.09c-0.2,0.7-0.54,1.4-1.03,2.08
	c-2.59,3.58-14.93,13.25-22.09,20.62c-1.38,1.43-2.57,2.77-3.46,3.97c-3.58,4.83-10.89,13.9-16.5,19.87
	c-2.5,2.66-4.66,4.7-6.01,5.49c-0.25,0.15-0.47,0.25-0.66,0.31c-3.56,1.07-8.08,4.04-9.98-1.07c-1.05-2.83-1.52-8.19-1.59-12.5
	c0.87-0.74,1.75-1.66,2.6-2.66c3.11-3.67,5.76-8.32,6.12-8.61c0.52-0.41,7.4-11.22,11.54-16.7c0.62-0.83,1.18-1.54,1.65-2.07
	c3.56-4.04,23.64-21.15,23.64-21.15s0.06-0.5-0.04-1.32c3.2-0.12,9.01,0.1,11.45,2.87C665.24,266.51,667.8,270.4,666.71,274.09z"/>
<path fill="#FFFFFF" stroke="#000000" stroke-miterlimit="10" d="M677.31,283.47c-1.06,6.3-10.68,20.39-17.31,24.21
	c-6.91,3.97-19.98,19.5-23.28,21.69c-0.23,0.16-0.41,0.24-0.54,0.26c-1.31,0.16-8.16,5.48-13.26,4.19c-2.44-0.62-4.47-2.76-5.3-7.7
	c1.35-0.79,3.51-2.83,6.01-5.49c5.61-5.97,12.92-15.04,16.5-19.87c0.89-1.2,2.08-2.54,3.46-3.97c7.16-7.37,19.5-17.04,22.09-20.62
	c0.49-0.68,0.83-1.38,1.03-2.08c3.69,1.43,9.79,4.26,10.61,7.54C677.44,282.12,677.43,282.75,677.31,283.47z"/>
<path fill="#FFFFFF" stroke="#000000" stroke-miterlimit="10" d="M697.17,332.33L660,307.68c6.63-3.82,16.25-17.91,17.31-24.21
	c0.3,0.67,0.51,1.49,0.6,2.5c0.54,6.33-0.98,24.51-0.98,24.51S696.35,313.24,697.17,332.33z"/>
<path fill="#FFFFFF" stroke="#000000" stroke-miterlimit="10" d="M689.93,364.86c-13.19,15.36-33.52,10.99-33.52,10.99l-7.37-17.23
	l-3.09,17.23c0,0-7.96-5.89-14.46-14.56c-2.32-3.08-4.44-6.51-5.97-10.15c-3.46-8.25-3.35-13.95-2.6-17.32
	c5.1,1.29,11.95-4.03,13.26-4.19c0.13-0.02,0.31-0.1,0.54-0.26L689.93,364.86z"/>
<path fill="#FFFFFF" stroke="#000000" stroke-miterlimit="10" d="M769.16,389.28l-10.69,14.49h-10.22l-45.9-30.62l-12.42-8.29
	l-53.21-35.49c3.3-2.19,16.37-17.72,23.28-21.69l37.17,24.65l69.38,46.02L769.16,389.28z"/>
<path fill="#FFFFFF" stroke="#000000" stroke-miterlimit="10" d="M798.68,481.24c0,41.23-1.78,162.41-1.78,162.41
	s-14.97,47.41-22.1,59.89c-7.13,12.47-74.85,99.44-74.85,99.44s-54.55,1.78-71.29-37.43c-16.39,17.83-33.23,31.73-37.64,34.94
	c-4.42,3.2-40.42,24.95-40.42,24.95s-18.17,1.42-22.09-2.5c-3.93-3.92-26.38-18.53-29.95-21.74c-2.32-2.09-5.1-7.07-7.64-11.07
	c-1.36-2.13-2.65-3.98-3.76-4.97c-0.94-0.84-9.11-2.28-21.16-3.31c-29.2-2.51-81.13-2.65-107.87,14
	c36.82-25.8,67.97-29.2,91.94-33.59c5.5-1.02,10.62-2.08,15.35-3.48c1.73-0.51,3.66-1.1,5.75-1.76c1.92-0.6,3.98-1.26,6.15-1.97
	c3-0.97,6.21-2.03,9.55-3.16c11.71-3.92,25.08-8.57,37.03-12.78c5.3-1.86,10.31-3.64,14.78-5.23c11.27-4,19.05-6.82,19.05-6.82
	s-8.19-19.96,5.35-26.02c13.54-6.06,82.22-26.73,112.04-60.95c29.82-34.22,28.04-33.86,28.04-37.07c0-3.21,6.41-38.14,3.56-44.91
	c-1.27-3.01-6.35-8.74-13.93-13.8c-33.98-88.04-82.83-125.14-99.27-135.62c-0.06-1.53-0.11-2.93-0.16-4.15
	c14.06,4.69,31.12,8.21,49.15,7.11c0.22-0.01,0.43-0.03,0.65-0.04c9.5,7.85,26.49,14.02,26.49,14.02s24.36-8.79,28.88-36.35
	c1.03-6.27,1.5-11.61,1.62-16.13l45.9,30.62h10.22l10.69-14.49l-2.61-10.93l-69.38-46.02c-0.82-19.09-20.24-21.85-20.24-21.85
	s1.52-18.18,0.98-24.51c-0.09-1.01-0.3-1.83-0.6-2.5c0.12-0.72,0.13-1.35,0.01-1.84c-0.82-3.28-6.92-6.11-10.61-7.54
	c1.09-3.69-1.47-7.58-4.36-10.87c-2.44-2.77-8.25-2.99-11.45-2.87c-0.23-1.82-1.25-5.2-5.42-8.3c-4.17-3.1-12.55-1.35-17.38,0.04
	c-0.43-0.57-1.07-1.26-1.83-2l9.54-16.78l36.04-5.79c0,0,21.25,28.39,38.51,40.94c0,0.01,0.01,0.01,0.01,0.01
	c1.83,1.34,3.62,2.5,5.33,3.42c17.82,9.63,21.74,14.44,21.74,14.44s41.34,74.85,47.58,93.56
	C789.06,398.6,798.68,440.01,798.68,481.24z"/>
<path fill="#FFFFFF" stroke="#000000" stroke-miterlimit="10" d="M493.12,790.13c-4.15,0.7-9.83,2.63-10.71,5.19
	c-0.28,0.82-0.48,2.76-0.64,5.46c-1.41,0.94-3.94,2.36-8.05,3.8c-5.27,1.86-8.15-3.62-9.94-7.33c0.29-2.77,0.59-5.26,0.93-6.92
	c0.53-2.64,2.09-5.9,3.49-8.48c12.05,1.03,20.22,2.47,21.16,3.31C490.47,786.15,491.76,788,493.12,790.13z"/>
<path fill="#FFFFFF" stroke="#000000" stroke-miterlimit="10" d="M481.77,800.78c-0.65,10.88-0.67,34.05-3.1,45.33
	c-3.03,14.08-11.77,33.5-16.58,33.86s-11.58-23.52-11.4-36.53c0.17-13.01,9.44-26.2,10.87-30.3c0.97-2.8,1.58-9.96,2.22-15.89
	c1.79,3.71,4.67,9.19,9.94,7.33C477.83,803.14,480.36,801.72,481.77,800.78z"/>
<path fill="#FFFFFF" stroke="#000000" stroke-miterlimit="10" d="M435.35,667.97c-2.32,2.98-13.39,17.37-16.68,24.16
	c-3.69,7.6-13.43,26.85-23.89,34.1c-4.58,3.18-9.03,4.42-12.58,4.8c-2.08-0.22-4.13-0.76-6.07-1.71
	c-14.02-6.89-26.85-26.23-26.67-31.04s1.78-22.73,0-26.82c-1.78-4.1-9.27-6.24-6.95-13.82c1.46-4.79,8.76-13.46,22.36-16.54
	c7.91-1.78,17.95-1.67,30.21,2.2C421.81,651.73,432.26,663.6,435.35,667.97z"/>
<path fill="#FFFFFF" stroke="#000000" stroke-miterlimit="10" d="M480.12,721.75c-4.2,1.93-7.97,5.34-8.05,11.37
	c-0.04,3.28,1.39,6.27,3.59,8.92c-0.28,3.21-0.99,10.06-2.29,14.98c-2.09,0.66-4.02,1.25-5.75,1.76c-4.73,1.4-9.85,2.46-15.35,3.48
	c-0.01-6.66,0.45-27.59,5.99-44.29c-1.87-2.14-10.07-4.72-15.33-2.41c-5.25,2.32-13.63,10.43-20.14,10.07
	c-6.5-0.35-13.45-4.18-13.45-4.18s-14.23,10.95-27.14,9.58c3.55-0.38,8-1.62,12.58-4.8c10.46-7.25,20.2-26.5,23.89-34.1
	c3.29-6.79,14.36-21.18,16.68-24.16c0.76,1.08,1.08,1.7,1.08,1.7l0.77-5.7c0,0,0.74-0.3,1.88-0.25c2.38,0.09,6.49,1.69,9.29,10.59
	c4.16,13.19,4.51,19.01,10.81,18.65s12.06-10.81,20.35-8.67C486.41,686.07,481.86,712.76,480.12,721.75z"/>
<path fill="#FFFFFF" stroke="#000000" stroke-miterlimit="10" d="M470.82,547.44c-2.96-1.65-5.76-3.34-8.37-4.98
	c-11.01-6.98-18.36-13.24-18.36-13.24s-7.41-15.61-3.58-27.27c0.85-0.64,1.64-1.3,2.34-1.97c0.55-0.52,1.04-1.04,1.45-1.56
	c2.13,2.53,7.29,7.96,16.69,13.79c2.32,1.45,4.91,2.92,7.78,4.37L470.82,547.44z"/>
<path fill="#FFFFFF" stroke="#000000" stroke-miterlimit="10" d="M506.59,528.4v32.2c-11.16-1.5-22.52-6.11-32.45-11.35l-1.42-30.76
	c4.56,2.11,9.73,4.15,15.57,6C494.36,526.41,500.52,527.68,506.59,528.4z"/>
<path fill="#FFFFFF" stroke="#000000" stroke-miterlimit="10" d="M510.03,528.77v32.2c-1.14-0.09-2.29-0.21-3.44-0.37v-32.2
	C507.74,528.55,508.88,528.67,510.03,528.77z"/>
<path fill="#FFFFFF" stroke="#000000" stroke-miterlimit="10" d="M474.14,549.25c-1.13-0.6-2.23-1.2-3.32-1.81l-2.05-30.86
	c1.26,0.65,2.57,1.29,3.95,1.91L474.14,549.25z"/>
<path fill="#FFFFFF" stroke="#000000" stroke-miterlimit="10" d="M518.47,529.2c-2.77-0.04-5.59-0.18-8.44-0.43
	c-1.15-0.1-2.29-0.22-3.44-0.37c-6.07-0.72-12.23-1.99-18.3-3.91c-5.84-1.85-11.01-3.89-15.57-6c-1.38-0.62-2.69-1.26-3.95-1.91
	c-2.87-1.45-5.46-2.92-7.78-4.37c7.28-0.68,9.9-12.82,5.32-18.02c-0.28-0.32-0.56-0.61-0.84-0.87c3.64,0,8.49,0.55,12.84,2.77
	c8.38,4.28,17.64,7.66,19.25,8.55C499.01,505.45,512.7,518.2,518.47,529.2z"/>
<path fill="#FFFFFF" stroke="#000000" stroke-miterlimit="10" d="M484.9,720.64c0.16,0.96-1.98,22.97-2.42,27.39
	c-1.63-1.12-3.21-2.34-4.62-3.67l-0.01-0.01c-0.79-0.74-1.52-1.5-2.19-2.31c-2.2-2.65-3.63-5.64-3.59-8.92
	c0.08-6.03,3.85-9.44,8.05-11.37c1.6-0.74,3.27-1.27,4.82-1.63C484.9,720.4,484.89,720.57,484.9,720.64z"/>
<path fill="#FFFFFF" stroke="#000000" stroke-miterlimit="10" d="M540.88,733.88c-4.47,1.59-9.48,3.37-14.78,5.23
	c2.62-5.6,5.64-12.37,6.03-14.55c0.05-0.28,0.21-0.64,0.47-1.07C536.3,725.03,540.18,728.03,540.88,733.88z"/>
<path fill="#FFFFFF" stroke="#000000" stroke-miterlimit="10" d="M489.07,751.89c-3.34,1.13-6.55,2.19-9.55,3.16
	c-2.17,0.71-4.23,1.37-6.15,1.97c1.3-4.92,2.01-11.77,2.29-14.98c0.67,0.81,1.4,1.57,2.19,2.31l0.01,0.01
	c1.41,1.33,2.99,2.55,4.62,3.67C484.67,749.52,486.96,750.82,489.07,751.89z"/>
<path fill="#FFFFFF" stroke="#000000" stroke-miterlimit="10" d="M574.99,622.24c-1.94,14.27-5.97,39.69-11.85,56.34
	c-7.93,22.49-27.22,39.45-30.54,44.91c-0.26,0.43-0.42,0.79-0.47,1.07c-0.39,2.18-3.41,8.95-6.03,14.55
	c-11.95,4.21-25.32,8.86-37.03,12.78c-2.11-1.07-4.4-2.37-6.59-3.86c0.44-4.42,2.58-26.43,2.42-27.39c-0.01-0.07,0-0.24,0.04-0.52
	c0.48-4.18,5.54-31.2,6.38-39.4c0.59-5.75-0.06-16.59-0.57-23.32c7.23-6.69,18.69-5.31,18.69-5.31s24.47-11.17,37.78-13.31
	C556.12,637.35,566.6,629.44,574.99,622.24z"/>
<path fill="#FFFFFF" stroke="#000000" stroke-miterlimit="10" d="M587.88,584.84h-0.01c-1.33,8.48-2.39,18.01-2.39,28.04
	c-2.68,2.37-6.33,5.78-10.49,9.35c0,0.01,0,0.01,0,0.01c-8.39,7.2-18.87,15.11-27.77,16.54c-13.31,2.14-37.78,13.31-37.78,13.31
	s-11.46-1.38-18.69,5.31c-1.79,1.65-3.32,3.79-4.36,6.57c-5.23,14.02-3.57,18.54-3.57,18.54s-9.98-16.88-3.32-34.7
	c5.38-14.41,5.16-28.04,4.13-35.62c-0.25-1.8-0.54-3.25-0.81-4.3c-1.37-5.27-25.29-35.97-20.37-65.43c2.61,1.64,5.41,3.33,8.37,4.98
	c1.09,0.61,2.19,1.21,3.32,1.81c9.93,5.24,21.29,9.85,32.45,11.35c1.15,0.16,2.3,0.28,3.44,0.37c0.64,0.05,1.27,0.08,1.9,0.11
	c31.96,1.31,58.58-14.14,69.86-35.41c8.02-15.11,8.55-28.37,8.22-34.56c1.52,3.68,2.83,8.23,2.83,12.94c0,11.17-2.37,41.11,0,46.81
	C594.44,554.68,590.58,567.58,587.88,584.84z"/>
<path fill="#FFFFFF" stroke="#000000" stroke-miterlimit="10" d="M483.63,612.19c-4.94,5.64-13.41,13.9-19.65,20.11
	c1.86-11.35-1.45-18.02-2.2-18.23c-0.86-0.24-10.8,5.23-18.64,12.36c0.95-7.85-4.75-16.64-4.75-16.64l13.54-3.8
	c0,0-12.12-1.66-21.62-2.14c-2.85-5.46-23.53-5.23-23.53-5.23s14.26-7.84,15.45-8.07c1.17-0.24,11.29-12.18,11.63-12.59
	c-0.57,0.16-18.68,5.47-28.68,6.41c-8.49-1.43-25.93,8.8-29.54,14.17c6.04-9.14,13.62-19.79,19.93-27.22
	c1.62-1.91,3.16-3.61,4.56-5.01c11.64-11.65,12.51-26.85,12.51-26.85s1.21-0.71,2.93-1.95c4.36-3.11,11.99-9.61,11.65-16.59
	c-0.47-9.74,1.19-11.88,1.19-11.88s6.99-3.2,12.1-7.09c-3.83,11.66,3.58,27.27,3.58,27.27s7.35,6.26,18.36,13.24
	c-4.92,29.46,19,60.16,20.37,65.43C483.09,608.94,483.38,610.39,483.63,612.19z"/>
<path fill="#FFFFFF" stroke="#000000" stroke-miterlimit="10" d="M463.98,632.3c-3.53,3.5-6.35,6.35-7.41,7.69
	c-3.21,4.05-14.56,19.69-17.49,23.73c-1.14-0.05-1.88,0.25-1.88,0.25l-0.77,5.7c0,0-0.32-0.62-1.08-1.7
	c-3.09-4.37-13.54-16.24-40.27-24.67c-12.26-3.87-22.3-3.98-30.21-2.2c-0.6-6.35-1.67-20.51,0.33-25.25
	c1.06-2.51,5.1-9.23,10.31-17.12c0.05-0.07,0.09-0.13,0.13-0.19c3.61-5.37,21.05-15.6,29.54-14.17c10-0.94,28.11-6.25,28.68-6.41
	c-0.34,0.41-10.46,12.35-11.63,12.59c-1.19,0.23-15.45,8.07-15.45,8.07s20.68-0.23,23.53,5.23c9.5,0.48,21.62,2.14,21.62,2.14
	l-13.54,3.8c0,0,5.7,8.79,4.75,16.64c7.84-7.13,17.78-12.6,18.64-12.36C462.53,614.28,465.84,620.95,463.98,632.3z"/>
<path fill="#FFFFFF" stroke="#000000" stroke-miterlimit="10" d="M379.76,454.39c-1.07,9.09-7.67,18.17-18.54,27.09
	c-5.71,4.68-14.02,11.52-23.1,20.8c-8.22,8.4-17.07,18.79-25.2,31.41c-17.11,26.56-7.84,43.67,9.27,61.49
	c-57.03,12.3-68.79-34.93-58.1-61.49c10.69-26.55,32.97-29.22,49.37-33.68c16.39-4.46,55.25-34.22,59.52-46.69
	c3.59-10.46-0.72-35.52-2.2-43.35c1.02,0.3,2.07,0.54,3.16,0.72C375.69,419.9,380.63,446.89,379.76,454.39z"/>
<path fill="#FFFFFF" stroke="#000000" stroke-miterlimit="10" d="M442.76,497.44c-0.99,1.4-1.72,2.92-2.25,4.51
	c-5.11,3.89-12.1,7.09-12.1,7.09s-1.66,2.14-1.19,11.88c0.34,6.98-7.29,13.48-11.65,16.59c-0.78-1.6-1.77-3.3-2.76-4.08
	c-2.13-1.7-12.29-2.68-16.39-7.4c-4.1-4.72-9.71-3.74-9.71-3.74s16.47-44.81-1.05-110.7c3.51,0.32,7.07,0.68,10.43,0.89
	c2.74,7.67,10.31,28.52,13.07,32.28c3.39,4.64,11.59,14.08,13.9,17.82c2.32,3.75,9.8,18.96,12.48,20.08
	C437.9,483.66,442.06,486.71,442.76,497.44z"/>
<path fill="#FFFFFF" stroke="#000000" stroke-miterlimit="10" d="M386.71,522.29c0,0-7.49,22.45-21.03,34.39
	c3.03-17.11,0.35-34.93-9.27-45.8c-5.62-6.35-13.07-8.18-18.29-8.6c9.08-9.28,17.39-16.12,23.1-20.8
	c10.87-8.92,17.47-18,18.54-27.09c0.87-7.5-4.07-34.49-5.82-43.7c1.07,0.17,2.18,0.29,3.32,0.33c2.67,0.09,5.52,0.32,8.4,0.57
	C403.18,477.48,386.71,522.29,386.71,522.29z"/>
<path fill="#FFFFFF" stroke="#000000" stroke-miterlimit="10" d="M444.97,485.62c-0.42-0.32-10.74-8.21-13.71-12.52
	c-3.03-4.4-9.68-16.87-14.91-22.99c-5.23-6.12-7.72-13.07-8.38-14.61c-0.56-1.34-7.21-18.38-8.96-22.87
	c0.36,0.02,0.71,0.03,1.06,0.03h0.01c2.76,6.93,8.51,21.11,10.03,22.72c2.02,2.14,3.68,4.04,7.34,8.08
	c3.66,4.04,7.16,14.73,10.25,18.89c3.08,4.16,7.36,4.87,9.62,6.89C439.54,471.23,444.81,485.18,444.97,485.62z"/>
<path fill="#FFFFFF" stroke="#000000" stroke-miterlimit="10" d="M318.72,361.03c-0.55,0.92-1.15,1.65-1.7,2.11
	c-2.14,1.78-18.71,8.91-22.81,6.86c-2.97-1.49-11.89-7.42-16.57-10.57c1.04-4.05,2.7-7.55,4.99-9.3c6.41-4.92,21.93-7.47,26.82-8.18
	c3.29,1.52,9.07,4.65,10.51,8.36C321.48,354.2,320.31,358.4,318.72,361.03z"/>
<path fill="#FFFFFF" stroke="#000000" stroke-miterlimit="10" d="M596.43,446.55c-6.43,14.25-28.64,41.93-83.63,30.41
	c-26.09-5.46-49.29-18.88-67.19-32.31l1.74-25.59c22.85,15.74,50.15,33.92,58.52,36.85c15.21,5.33,40.4,9.88,63.92,0
	c21.8-9.15,26.09-19.58,26.6-21.07C596.45,438.99,596.47,442.99,596.43,446.55z"/>
<path fill="#FFFFFF" stroke="#000000" stroke-miterlimit="10" d="M694.99,544.31c-9.44-6.31-22.76-11.57-37.39-9.26
	c-26.38,4.17-32.8,11.3-34.58,18.78c-1.78,7.49-2.14,13.19-4.63,16.75c-1.77,2.53-20.04,10.09-30.51,14.26
	c2.7-17.26,6.56-30.16,4.96-33.98c-2.37-5.7,0-35.64,0-46.81c0-4.71-1.31-9.26-2.83-12.94c-1.1-2.69-2.32-4.91-3.21-6.4
	c2.55-5.4,1.59-11.93,0.78-15.36c3.46-4.09,6.72-8.02,7.76-9.5c0.7-1,1.01-6.26,1.09-13.3c0.04-3.56,0.02-7.56-0.04-11.71v-0.01
	c-0.12-9.21-0.42-19.1-0.67-26.14C612.16,419.17,661.01,456.27,694.99,544.31z"/>
<path fill="#FFFFFF" stroke="#000000" stroke-miterlimit="10" d="M702.35,373.15c-0.12,4.52-0.59,9.86-1.62,16.13
	c-4.52,27.56-28.88,36.35-28.88,36.35s-16.99-6.17-26.49-14.02c-0.22,0.01-0.43,0.03-0.65,0.04c-20.81-18.02-17-39.64-13.22-50.36
	c6.5,8.67,14.46,14.56,14.46,14.56l3.09-17.23l7.37,17.23c0,0,20.33,4.37,33.52-10.99L702.35,373.15z"/>
<path fill="#FFFFFF" stroke="#000000" stroke-miterlimit="10" d="M644.71,411.65c-18.03,1.1-35.09-2.42-49.15-7.11
	c-3.61-1.2-7.01-2.47-10.19-3.77c-7.06,3.4-16.88,7.06-26.03,6.8c-17.57-8.29-27.74-28.71-32.44-40.95
	c18-24.93,42.57-43.68,53.25-51.2h0.01c4.35,1.94,10.14,0.59,15.18-6.01c1.77,3.39,4.29,5.42,6.53,5.25
	c1.11-0.08,2.31-0.77,3.52-1.8c0.07,4.31,0.54,9.67,1.59,12.5c1.9,5.11,6.42,2.14,9.98,1.07c0.19-0.06,0.41-0.16,0.66-0.31
	c0.83,4.94,2.86,7.08,5.3,7.7c-0.75,3.37-0.86,9.07,2.6,17.32c1.53,3.64,3.65,7.07,5.97,10.15
	C627.71,372.01,623.9,393.63,644.71,411.65z"/>
<path fill="#FFFFFF" stroke="#000000" stroke-miterlimit="10" d="M596.39,434.83v0.01c-0.51,1.49-4.8,11.92-26.6,21.07
	c-21.21,8.91-43.79,6.08-59.17,1.53c24.83-17.11,28.69-57.33,29.25-66.67c5.1,6.83,11.53,13.06,19.47,16.8
	c9.15,0.26,18.97-3.4,26.03-6.8c3.18,1.3,6.58,2.57,10.19,3.77c0.05,1.22,0.1,2.62,0.16,4.15
	C595.97,415.73,596.27,425.62,596.39,434.83z"/>
<path fill="#FFFFFF" stroke="#000000" stroke-miterlimit="10" d="M447.35,419.06l-1.74,25.59c-6.27-4.69-11.88-9.39-16.74-13.75
	l1.71-23.5C435.57,410.9,441.3,414.89,447.35,419.06z"/>
<path fill="#FFFFFF" stroke="#000000" stroke-miterlimit="10" d="M430.58,407.4l-1.71,23.5c-9.59-8.61-16.25-15.89-19.19-19.25
	c0.52-0.18,1-0.39,1.44-0.63c6.42-3.5,7.31-7.07,5.53-13.31c-0.02-0.06-0.03-0.11-0.05-0.17c2.34,1.66,5.71,4.05,9.79,6.92
	c0.02,0.29,0.04,0.6,0.06,0.92c0,0,0.06-0.28,0.23-0.72C427.92,405.53,429.22,406.45,430.58,407.4z"/>
<path fill="#FFFFFF" stroke="#000000" stroke-miterlimit="10" d="M460.99,512.21c-9.4-5.83-14.56-11.26-16.69-13.79
	c-0.79-0.96-1.16-1.5-1.16-1.5c-0.13,0.17-0.26,0.35-0.38,0.52c-0.7-10.73-4.86-13.78-7.22-14.78
	c-2.68-1.12-10.16-16.33-12.48-20.08c-2.31-3.74-10.51-13.18-13.9-17.82c-2.76-3.76-10.33-24.61-13.07-32.28
	c0.99,0.07,1.97,0.12,2.92,0.15c1.75,4.49,8.4,21.53,8.96,22.87c0.66,1.54,3.15,8.49,8.38,14.61c5.23,6.12,11.88,18.59,14.91,22.99
	c2.97,4.31,13.29,12.2,13.71,12.52c-0.16-0.44-5.43-14.39-7.65-16.38c-2.26-2.02-6.54-2.73-9.62-6.89
	c-3.09-4.16-6.59-14.85-10.25-18.89c-3.66-4.04-5.32-5.94-7.34-8.08c-1.52-1.61-7.27-15.79-10.03-22.72
	c1.17,0.03,2.3,0.02,3.37-0.02c0.71,5.27,2.48,15.92,5.53,18.58c4.1,3.56,11.59,10.16,13.9,17.46c2.32,7.31,8.38,14.62,10.52,15.33
	c2.14,0.71,4.19-0.18,6.01,2.85c1.83,3.03,9.32,19.96,12.52,21.92c3.04,1.86,8.53-0.28,13.54,4.54c0.28,0.26,0.56,0.55,0.84,0.87
	C470.89,499.39,468.27,511.53,460.99,512.21z"/>
<path fill="#FFFFFF" stroke="#000000" stroke-miterlimit="10" d="M530.83,527.43c-7.46,1.74-12.36,1.77-12.36,1.77
	c-5.77-11-19.46-23.75-20.91-24.56c-1.61-0.89-10.87-4.27-19.25-8.55c-4.35-2.22-9.2-2.77-12.84-2.77
	c-5.01-4.82-10.5-2.68-13.54-4.54c-3.2-1.96-10.69-18.89-12.52-21.92c-1.82-3.03-3.87-2.14-6.01-2.85
	c-2.14-0.71-8.2-8.02-10.52-15.33c-2.31-7.3-9.8-13.9-13.9-17.46c-3.05-2.66-4.82-13.31-5.53-18.58c2.39-0.1,4.52-0.39,6.23-0.99
	c2.94,3.36,9.6,10.64,19.19,19.25c4.86,4.36,10.47,9.06,16.74,13.75c17.9,13.43,41.1,26.85,67.19,32.31
	c4.7,0.98,9.17,1.68,13.4,2.12C523.89,486.52,517.43,511.92,530.83,527.43z"/>
<path fill="#FFFFFF" stroke="#000000" stroke-miterlimit="10" d="M395.57,571.32c-6.31,7.43-13.89,18.08-19.93,27.22
	c-0.04,0.06-0.08,0.12-0.13,0.19c-3.82,5.45-18.39,17.48-18.39,17.48l-10.69-9.15c0,0,13.07-0.15,23.76-9.88
	C380.88,587.46,385.06,576.34,395.57,571.32z"/>
<path fill="#FFFFFF" stroke="#000000" stroke-miterlimit="10" d="M471.83,306.46c-2.63,2.55-12.42,11.83-16.93,12.96
	c-3.38,0.84-8.21-0.23-11.33-0.98c-3.18,3.46-4.98,7.71-6.96,8.7c-1.47,0.73-3.69,0.61-6.48-0.12h-0.01
	c-1.35-0.34-2.83-0.84-4.43-1.45c-0.95,1.35-3.3,3.1-9.04,2.88c-6.49-0.25-10.47-5.01-12.27-7.84h-0.01
	c-1.47-0.13-2.93-0.25-4.33-0.35c-0.38,1.51-0.9,4.06-0.98,6.76c-0.12,4.28,13.51,22.46,20.72,30.89c3.85,4.52,7.48,7.91,10.88,10.2
	v0.01c2.95,2,5.73,3.18,8.32,3.57h4.68c0.74-0.7,1.53-1.41,2.39-2.14c12.83-10.87,29.59-30.11,31.54-40.63
	C478.6,323.48,475.27,314.18,471.83,306.46z M427.32,342.22c0.4-1.78,1.14-3.43,2.03-4.98c-0.69,1.64-1.32,3.33-1.55,5.06
	c-0.11,0.85-0.13,1.76,0.25,2.43c0.38,0.61,1.26,1.02,2,1.43c1.58,0.76,3.22,1.44,4.89,2.01c1.67,0.58,3.37,1.13,5.07,1.43
	c0.41,0.08,0.85,0.13,1.22,0.12c0.19-0.02,0.3-0.03,0.35-0.08c0.13-0.1,0.27-0.25,0.41-0.41c0.55-0.63,1.06-1.37,1.59-2.08
	c1.06-1.44,2.03-2.93,3.28-4.29c0.34-0.33,0.6-0.68,1.2-0.93c0.48-0.11,0.76-0.21,1.03-0.48c0.26-0.26,0.4-0.64,0.44-1.03
	c0.05-0.4-0.05-0.77-0.21-1.19c-0.29-0.81-0.71-1.6-1.29-2.25c-0.55-0.65-1.36-1.17-2.27-1.05c0.89-0.24,1.84,0.22,2.46,0.87
	c0.66,0.63,1.17,1.41,1.56,2.25c0.42,0.81,0.48,2-0.22,2.82c-0.32,0.41-0.92,0.63-1.29,0.73c-0.23,0.1-0.58,0.46-0.84,0.77
	c-1.09,1.35-2.07,2.85-3.08,4.32c-0.51,0.74-1.02,1.47-1.63,2.19c-0.15,0.18-0.32,0.36-0.54,0.54c-0.3,0.24-0.66,0.27-0.91,0.29
	c-0.52,0.02-0.98-0.05-1.43-0.12c-1.82-0.35-3.53-0.91-5.22-1.53c-1.68-0.64-3.35-1.33-4.93-2.23c-0.4-0.22-0.79-0.46-1.16-0.73
	c-0.38-0.27-0.76-0.59-1.03-1.06C427.04,344.09,427.16,343.11,427.32,342.22z M462.8,349.42c-0.35,1.78-5.16,0.17-7.21,0.62
	s-10.94,5.15-13.28,6.06c-2.08,0.81-8.86-2.01-12.61-3.17c0,0-4.14-2.22-2.52-1.91c3.25,0.62,12.93,4.73,14.68,4.05
	c2.36-0.9,15.35-8.24,17.08-8.33C460.67,346.65,463.16,347.63,462.8,349.42z"/>
<path fill="none" stroke="#000000" stroke-miterlimit="10" d="M449.56,341.87c-0.32,0.41-0.92,0.63-1.29,0.73
	c-0.23,0.1-0.58,0.46-0.84,0.77c-1.09,1.35-2.07,2.85-3.08,4.32c-0.51,0.74-1.02,1.47-1.63,2.19c-0.15,0.18-0.32,0.36-0.54,0.54
	c-0.3,0.24-0.66,0.27-0.91,0.29c-0.52,0.02-0.98-0.05-1.43-0.12c-1.82-0.35-3.53-0.91-5.22-1.53c-1.68-0.64-3.35-1.33-4.93-2.23
	c-0.4-0.22-0.79-0.46-1.16-0.73c-0.38-0.27-0.76-0.59-1.03-1.06c-0.46-0.95-0.34-1.93-0.18-2.82c0.4-1.78,1.14-3.43,2.03-4.98
	c-0.69,1.64-1.32,3.33-1.55,5.06c-0.11,0.85-0.13,1.76,0.25,2.43c0.38,0.61,1.26,1.02,2,1.43c1.58,0.76,3.22,1.44,4.89,2.01
	c1.67,0.58,3.37,1.13,5.07,1.43c0.41,0.08,0.85,0.13,1.22,0.12c0.19-0.02,0.3-0.03,0.35-0.08c0.13-0.1,0.27-0.25,0.41-0.41
	c0.55-0.63,1.06-1.37,1.59-2.08c1.06-1.44,2.03-2.93,3.28-4.29c0.34-0.33,0.6-0.68,1.2-0.93c0.48-0.11,0.76-0.21,1.03-0.48
	c0.26-0.26,0.4-0.64,0.44-1.03c0.05-0.4-0.05-0.77-0.21-1.19c-0.29-0.81-0.71-1.6-1.29-2.25c-0.55-0.65-1.36-1.17-2.27-1.05
	c0.89-0.24,1.84,0.22,2.46,0.87c0.66,0.63,1.17,1.41,1.56,2.25C450.2,339.86,450.26,341.05,449.56,341.87z"/>
<path fill="#FFFFFF" stroke="#000000" stroke-miterlimit="10" d="M431.97,376.9c-1.24,7.22-9.74,11.78-9.74,11.78l0.71-6.41
	c0,0-3.01,2.82-8.58,5.11c-2.07,0.86-4.51,1.64-7.28,2.17c3.9-0.91,9.21-8,9.21-8s-12.24,3.09-17.23-1.54
	c3.33-1.19,14.14-4.75,12.95-17.35c-1.17-12.33-15.08-19.87-15.66-20.17c0.44,0.32,7.49,5.83,8.36,21.54
	c0.89,16.22-13.37,16.93-19.79,16.93c6.78-2.67,4.64-11.58,4.64-11.58l-9.27,0.17c0,0-2.29,1.65-4.2,2.49
	c-0.35,0.16-0.69,0.29-1,0.37c-9.96-6.68-2.39-19.4-1.79-20.38c-0.69,0.94-9.19,12.77-8.16,22.52c-2.42-4.49-3.22-8.54-3.01-12.14
	c0.21-3.27,1.26-6.16,2.73-8.65c1.49-2.53,3.4-4.66,5.28-6.37c3.71-3.36,7.3-5.1,7.3-5.1l-9.45-2.85c0,0,5.17,0,7.84,0
	c2.68,0,11.41-3.39,13.91-7.31c-1.73-2.89-0.7-8.69,0.23-12.43h0.01c1.98,0.08,5.76,0.25,10.06,0.56c-0.38,1.51-0.9,4.06-0.98,6.76
	c-0.12,4.28,13.51,22.46,20.72,30.89c3.85,4.52,7.48,7.91,10.88,10.2v0.01C431.72,371.2,432.4,374.38,431.97,376.9z"/>
<path fill="#FFFFFF" stroke="#000000" stroke-miterlimit="10" d="M462.8,349.42c-0.35,1.78-5.16,0.17-7.21,0.62
	s-10.94,5.15-13.28,6.06c-2.08,0.81-8.86-2.01-12.61-3.17c0,0-4.14-2.22-2.52-1.91c3.25,0.62,12.93,4.73,14.68,4.05
	c2.36-0.9,15.35-8.24,17.08-8.33C460.67,346.65,463.16,347.63,462.8,349.42z"/>
<path fill="#FFFFFF" stroke="#000000" stroke-miterlimit="10" d="M457.84,310.42c-0.21,1.33-0.86,3.89-2.82,5.25
	c-2.22,1.54-7.34,0.96-9.18,0.68c0.87-0.66,1.83-1.24,2.89-1.69C450.48,313.92,453.85,312.52,457.84,310.42z"/>
<path fill="#FFFFFF" stroke="#000000" stroke-miterlimit="10" d="M471.83,306.46c-2.63,2.55-12.42,11.83-16.93,12.96
	c-3.38,0.84-8.21-0.23-11.33-0.98c0.69-0.74,1.44-1.45,2.27-2.09c1.84,0.28,6.96,0.86,9.18-0.68c1.96-1.36,2.61-3.92,2.82-5.25
	c3.78-1.99,8.12-4.63,12.15-7.93C470.59,303.74,471.21,305.08,471.83,306.46z"/>
<path fill="#FFFFFF" stroke="#000000" stroke-miterlimit="10" d="M422.25,324.16c-1.12,0.86-2.91,1.79-5.37,1.79
	c-2.99,0-5.05-2.77-6.09-4.64c4.23,0.56,8,1.3,10.13,2.26C421.37,323.77,421.81,323.97,422.25,324.16z"/>
<path fill="#FFFFFF" stroke="#000000" stroke-miterlimit="10" d="M425.69,325.57c-0.95,1.35-3.3,3.1-9.04,2.88
	c-6.49-0.25-10.47-5.01-12.27-7.84c2.15,0.2,4.34,0.43,6.41,0.7c1.04,1.87,3.1,4.64,6.09,4.64c2.46,0,4.25-0.93,5.37-1.79
	C423.44,324.68,424.59,325.15,425.69,325.57z"/>
<path fill="#FFFFFF" stroke="#000000" stroke-miterlimit="10" d="M581.79,525.67c-11.28,21.27-37.9,36.72-69.86,35.41
	c-0.63-0.03-1.26-0.06-1.9-0.11v-32.2c2.85,0.25,5.67,0.39,8.44,0.43c0,0,41.82-0.26,67.14-42.45c0.47-0.65,0.85-1.34,1.19-2.04
	c0.89,1.49,2.11,3.71,3.21,6.4C590.34,497.3,589.81,510.56,581.79,525.67z"/>
<path fill="#FFFFFF" stroke="#000000" stroke-miterlimit="10" d="M763.38,462.08c-1.62,0-3.17-0.45-4.98-1.27
	c-2.04-0.93-5.13-2.34-16-1.08c-26.17,3.03-53.16-24.38-81.75-53.41c-5.29-5.37-10.76-10.92-16.14-16.18
	c-13.75-13.44-25.68-25.26-38.31-37.78c-17.59-17.44-37.53-37.21-67.33-66.23l7.27-7.46c29.83,29.06,49.79,48.84,67.4,66.29
	c12.62,12.51,24.53,24.32,38.26,37.73c5.45,5.33,10.96,10.92,16.28,16.32c25.57,25.96,52.02,52.81,73.13,50.37
	c12.69-1.47,17.76,0.23,21.51,1.94c0.21,0.1,0.48,0.22,0.67,0.3c2.05-0.57,9.15-5.41,11.88-7.27l5.87,8.61
	C771.66,459.42,767.31,462.08,763.38,462.08z"/>
<path fill="#FFFFFF" stroke="#000000" stroke-miterlimit="10" d="M377.36,547.54l-6.56-6.87c11.38-10.87,13.6-14.65,13.95-15.9
	c-0.23-0.28-0.65-0.7-0.97-1.02c-2.38-2.39-6.36-6.39-5.27-15.31c1.13-9.28-1.09-16.38-3.45-23.89c-1.82-5.79-3.7-11.78-3.79-18.58
	c-0.01-0.7-0.03-1.4-0.04-2.1c-0.34-14.52-0.73-30.97,46.6-90.97c14.54-18.43,24.6-30.65,32.68-40.46
	c18.63-22.63,24.91-30.26,46.78-66.77l8.15,4.88c-22.23,37.12-28.62,44.88-47.59,67.93c-8.05,9.78-18.07,21.95-32.56,40.31
	c-45.21,57.31-44.87,71.94-44.56,84.86c0.02,0.73,0.03,1.46,0.04,2.19c0.08,5.41,1.67,10.49,3.36,15.87
	c2.43,7.76,5.19,16.56,3.82,27.88c-0.53,4.34,0.71,5.58,2.57,7.46c1.53,1.54,3.84,3.86,3.79,7.62
	C394.24,529.06,391.53,534.01,377.36,547.54z"/>
<path fill="#FFFFFF" stroke="#000000" stroke-miterlimit="10" d="M814.74,316.43l-8.75-5.34c5.54-9.07,6.62-13.08,6.56-14.85
	c-0.04-1.02-0.51-1.58-3.14-3.75c-5.13-4.24-12.89-10.64-12.54-30.89c0.37-22.05-19.13-40-39.78-59
	c-12.17-11.19-24.75-22.77-33.86-35.83c-5.61-8.04-10.11-12.06-13.78-12.31c-3.47-0.24-7.93,2.63-13.55,6.26
	c-9.38,6.05-22.22,14.33-42.92,16.6c-26.91,2.95-33.59,4.41-40.06,5.82c-4.89,1.07-9.95,2.17-22.99,3.84
	c-24.43,3.12-30.89,14.86-41.59,34.31c-1.33,2.42-2.71,4.93-4.19,7.53l-8.91-5.06c1.45-2.55,2.81-5.02,4.12-7.41
	c10.99-19.98,19.68-35.76,49.27-39.54c12.58-1.61,17.2-2.62,22.1-3.68c6.73-1.47,13.68-2.99,41.13-5.99
	c18.3-2,29.49-9.22,38.48-15.02c6.94-4.47,12.92-8.34,19.8-7.87c7.26,0.49,13.68,5.48,21.49,16.68
	c8.47,12.14,20.63,23.33,32.39,34.15c21.4,19.69,43.54,40.06,43.09,66.71c-0.26,15.32,4.56,19.3,8.82,22.81
	c2.96,2.44,6.65,5.49,6.86,11.28C822.97,300.75,820.56,306.9,814.74,316.43z"/>
<path fill="#FFFFFF" stroke="#000000" stroke-miterlimit="10" d="M206.75,428.34c-1.08,0.31-2.2-0.32-2.52-1.39
	c-6.89-23.39-13.82-30.74-21.81-39.22c-4.82-5.11-10.27-10.9-15.94-20.4c-13.19-22.09-11.56-31.87-10.13-40.5
	c0.3-1.78,0.57-3.46,0.7-5.19c1.04-14.33,15.81-27.08,39.32-43.01c17.08-11.58,19.18-22.73,21.61-35.64
	c0.67-3.56,1.36-7.24,2.38-11.04c5.29-19.78,22.48-26.35,56.74-39.44l4.68-1.79c20.87-7.99,27.45-8.38,33.56-1.96
	c1.19,1.25,2.22,2.33,8.09,2.33c16.69,0,19.25-1.32,23.9-3.73c0.99-0.51,2.11-1.09,3.43-1.71c1.99-0.93,6.42-3.19,12.03-6.05
	c21.61-11,41.65-21.07,49.56-23.34c14.09-4.05,29.41,12.03,35.34,19.12c1.13,1.35,2.09,2.92,3.2,4.73
	c3.49,5.68,8.76,14.26,23.87,22.65c15.38,8.55,27.96,10.92,32.54,11.54c1.05,0.14,1.81,1.07,1.76,2.13l-0.44,8.32
	c-0.06,1.18-1.1,2.06-2.27,1.92c-5.32-0.64-19.82-3.21-37.59-13.08c-17.94-9.97-24.49-20.63-28.41-27c-0.86-1.4-1.61-2.61-2.16-3.27
	c-8.43-10.09-17.86-16.47-22.42-15.16c-7.41,2.13-33.39,15.36-47.35,22.47c-5.71,2.91-10.22,5.2-12.39,6.22
	c-1.11,0.52-2.07,1.02-3.01,1.5c-6.5,3.36-10.77,5.11-29.59,5.11c-10.32,0-14.09-3.05-17.06-6.18c0,0,0,0-0.01-0.01
	c-0.41-0.44-1-0.67-1.6-0.63c-1.97,0.14-6.82,1.14-18.55,5.63l-4.69,1.79c-34.59,13.22-45.7,18.02-49.19,31.07
	c-0.89,3.35-1.51,6.64-2.17,10.13c-2.69,14.32-5.47,29.13-26.83,43.61c-23.2,15.73-33.35,25.79-33.91,33.65
	c-0.17,2.3-0.51,4.35-0.83,6.32c-1.24,7.48-2.32,13.93,8.55,32.12c4.98,8.33,9.73,13.38,14.32,18.25c8.72,9.25,16.97,18,24.7,44.29
	c0.32,1.09-0.31,2.24-1.4,2.55L206.75,428.34z"/>
<path fill="#FFFFFF" stroke="#000000" stroke-miterlimit="10" d="M539.87,390.77c-0.56,9.34-4.42,49.56-29.25,66.67
	c-0.12-0.03-0.24-0.07-0.36-0.11c-1.54-0.46-3.01-0.93-4.39-1.42c-8.37-2.93-35.67-21.11-58.52-36.85
	c-6.05-4.17-11.78-8.16-16.77-11.66c-1.36-0.95-2.66-1.87-3.9-2.74c0.62-1.57,2.64-5.21,8.38-6c1.7-0.24,3.49-1.15,5.31-2.46
	c0.27,3.37,1.41,12.15,5.98,14.82c-0.24-4.04,0.71-11.64,0.71-11.64s4.04,6.68,7.13,8.21c-2.49-8.45-0.81-9.88-0.81-9.88
	s19.21-5.75,24.94-9.06c1.68,9.6,6.03,16.54,10.09,19.64c6.53,4.99,22.45,7.48,29.46-13.43c2.16-6.45,3.03-12.96,2.88-19.05
	c1.93-3.15,3.99-6.22,6.15-9.19c2.51,6.53,6.58,15.4,12.5,23.51C539.55,390.35,539.71,390.56,539.87,390.77z"/>
<path fill="#FFFFFF" stroke="#000000" stroke-miterlimit="10" d="M595.34,459.85c-1.04,1.48-4.3,5.41-7.76,9.5
	c0.81,3.43,1.77,9.96-0.78,15.36c-0.34,0.7-0.72,1.39-1.19,2.04c-16.11,26.84-38.9,36.71-53.35,40.33
	c-0.49,0.13-0.96,0.25-1.43,0.35c-13.4-15.51-6.94-40.91-4.63-48.35c0.32,0.04,0.63,0.07,0.94,0.1
	c44.6,4.33,63.45-19.69,69.29-32.63C596.35,453.59,596.04,458.85,595.34,459.85z"/>
<path fill="#FFFFFF" stroke="#000000" stroke-miterlimit="10" d="M430.12,327.02c-1.35-0.34-2.83-0.84-4.43-1.45
	c-1.1-0.42-2.25-0.89-3.44-1.41c-0.44-0.19-0.88-0.39-1.33-0.59c-2.13-0.96-5.9-1.7-10.13-2.26c-2.07-0.27-4.26-0.5-6.41-0.7h-0.01
	c-1.47-0.13-2.93-0.25-4.33-0.35c-4.3-0.31-8.08-0.48-10.06-0.56h-0.01c-0.27-2.49-1.21-13.66,0.67-25.93
	c1.75-11.41,5.94-23.78,15.36-30.96c0,0,0.01,0,0.01-0.01c0.17,1.55,0.39,3.16,0.66,4.81c0.68,4.18,1.5,8.17,2.42,11.97
	c2.49,10.22,5.73,19.03,9.06,26.36C422.52,315.59,427.02,322.66,430.12,327.02z"/>
<path display="none" fill="#FFFFFF" stroke="#000000" stroke-miterlimit="10" d="M345.27,433.47c-0.41-0.26-10.03-6.2-21.56-7.45
	c-11.79-1.27-21.48,28.84-21.48,28.84s-3.56-16.39-17.58-28.84c-14.02-12.44-44.2,0-44.2,0s22.33-37.46,16.39-55.65
	c-5.94-18.2-20.67-32.42-20.67-32.42s28.28,7.13,39.21,1.12c10.93-6,11.4-27.96,11.4-27.96s3.09,8.78,14.98,19.24
	c11.88,10.45,16.87,2.32,16.87,2.32l3.49-11.36c0,0,2.35,12.38,4.95,21.15c-4.9-1.75-11.74-3.03-12.9-2.31
	c-1.42,0.89-3.21,1.6-3.21,1.6s-0.55,0.07-1.51,0.2c-4.89,0.71-20.41,3.26-26.82,8.18c-2.29,1.75-3.95,5.25-4.99,9.3
	c-2.12,8.26-1.64,18.84,1.51,21.8c0.5,0.47,1.06,0.75,1.69,0.8c2.32,2.67-2.49,11.58,8.74,13.37c4.27,6.59,5.7,10.33,10.33,9.98
	c4.64-0.36,3.57,3.38,9.45,1.78c3.49-0.96,7.86-3.91,11.31-6.23c0,0,0.01,0,0.01-0.01c0.45-0.28,0.89-0.57,1.32-0.87
	c0.04-0.03,0.08-0.06,0.12-0.08c6.7-4.75,11.46-12.19,11.12-14.85c-0.2-1.55-1.86-3.72-3.33-5.39c0.18-0.23,0.29-0.38,0.34-0.43
	c0.44-0.52,1.67-7.98-0.61-10.68c0.16-0.3,0.29-0.58,0.39-0.85c0.79-2.06-0.65-3.6-2.89-4.69c1.92-1.66,3.24-4.79,3.98-6.97l7,46.47
	C335.32,410.32,345.01,432.85,345.27,433.47z"/>
<path fill="#FFFFFF" stroke="#000000" stroke-miterlimit="10" d="M609.72,612.91l-3.76-8.51c-0.23,0.13-0.54,0.61-0.56,0.91
	c0.18-2.08-4.22-9.88-8.1-16.76c-2.74-4.86-5.85-10.37-9.3-16.95c-3.79-7.23-6.41-12.33-8.72-16.84
	c-5.55-10.81-8.6-16.76-19.73-36.12c-12.05-20.96-2.51-33.29,10.68-50.37c6.5-8.41,13.87-17.95,21.05-30.98
	c2.71-4.92,5.18-9.27,7.58-13.47c16.76-29.47,23.7-41.67,21.69-95.87c-1.17-31.55-8.81-49.27-15.02-58.57
	c-6.11-9.16-11.9-11.86-11.95-11.88l3.56-8.59c1.24,0.51,30.29,13.29,32.71,78.7c2.11,56.85-5.73,70.63-22.9,100.82
	c-2.38,4.18-4.83,8.5-7.51,13.36c-7.52,13.66-15.46,23.93-21.84,32.18c-12.99,16.81-18.92,24.48-9.98,40.04
	c11.24,19.55,14.33,25.58,19.94,36.51c2.3,4.49,4.91,9.57,8.68,16.77c3.38,6.45,6.45,11.89,9.16,16.7
	c7.07,12.53,10.62,18.82,8.87,24.09C613.77,609.58,612.57,611.65,609.72,612.91z"/>
<path fill="#FFFFFF" stroke="#000000" stroke-miterlimit="10" d="M434.11,260.33l-0.36,0.28c-10.58-2.66-20.92-3-27.74,2.19
	c-2.66-23.26,4.64-35.4,10.58-41.29C422.23,233.63,434.11,260.33,434.11,260.33z"/>
<path fill="#FFFFFF" stroke="#000000" stroke-miterlimit="10" d="M406.01,262.8c0,0.01-0.01,0.01-0.01,0.01
	c-9.42,7.18-13.61,19.55-15.36,30.96l-0.67,0.52c-0.06-3.63-13.48-42.61,26.62-72.78C410.65,227.4,403.35,239.54,406.01,262.8z"/>
</svg>
