<?xml version="1.0" encoding="utf-8"?>
<!-- Generator: Adobe Illustrator 25.2.0, SVG Export Plug-In . SVG Version: 6.00 Build 0)  -->
<svg version="1.1" baseProfile="tiny" id="Layer_1" xmlns="http://www.w3.org/2000/svg" xmlns:xlink="http://www.w3.org/1999/xlink"
	 x="0px" y="0px" viewBox="0 0 1000 1000" overflow="visible" xml:space="preserve">
<path fill="#FFFFFF" stroke="#000000" stroke-miterlimit="10" d="M402.4,530.3l-2,5.7l-4.5,12.5l-2.7,7.7c0,0-24.5-3.7-22.4-12.9
	l4.9,1.6l6.2-20.6l-4.2-1.3c1.2-0.9,3.6-1.4,8.2-0.6C396.1,524.2,402.4,530.3,402.4,530.3z"/>
<polygon fill="#FFFFFF" stroke="#000000" stroke-miterlimit="10" points="381.9,523.9 375.7,544.5 370.8,543 290.6,516.6 
	297.4,497.3 377.7,522.6 "/>
<path fill="#FFFFFF" stroke="#000000" stroke-miterlimit="10" d="M516,219.6c-5.6,1-11.5,0.8-17.3-0.5c-11.2-5.7-7.1-25.5-7-34.2
	c0.1-3.8-0.7-7.7-1.6-10.9l24.9,11.7C514.8,194.6,514.5,215.1,516,219.6z"/>
<path fill="#FFFFFF" stroke="#000000" stroke-miterlimit="10" d="M532.9,192c-0.3,8,0.6,16.2-1.9,21.1h0c-4.4,3.2-9.1,5.2-14,6.2
	c-0.3,0.1-0.7,0.1-1,0.2c-1.5-4.5-1.2-25-1-33.8l1.1,0.5l19.8-14.5c0.1,0.2,0.2,0.4,0.2,0.5C536.1,172.8,533.2,181.7,532.9,192z"/>
<path fill="#FFFFFF" stroke="#000000" stroke-miterlimit="10" d="M553.4,173.4c0,0,0,0.1,0,0.1c-4.3,18-11.2,30-19.5,37.3
	c1.9-2.8,1.8-5.5,1.8-9.9c0-7.1,2.5-24.8,3.9-27.4c1.4-2.7-2.1-5.7-2.1-5.7s11.8-25.1,16.4-30.6c4.6-5.5,7.5-9.1,7.5-9.1
	s-7.4-25.5-18.8-48.2v0c0.1-3.7,1.7-8.3,3.1-11.5c7.4,17.8,18.2,53.5,18.2,60.7c0,8-8.9,10.2-11,24.4
	C550.7,167.5,554,170.5,553.4,173.4z"/>
<path fill="#FFFFFF" stroke="#000000" stroke-miterlimit="10" d="M493.9,217.4c0,0,0,0.1,0,0.1c-4.5-2-9.2-5.5-13.8-9.8
	c-17.1-16-32.5-42.8-32.5-42.8c0.5-0.8,0.9-1.6,1.3-2.3c5.4-10.3,3.6-17.8-0.4-29.9c-4.3-13-1.1-26.2,4.3-35.1
	c5.2-8.6,9.8-30.9,13.6-40.3c3.5,3.7,9.1,10.1,11.3,15.6c-0.8,0.9-1.5,1.9-2.3,2.8c-8.7,11.1-20.3,51-20.1,54.4
	c0.2,3.4,2.7,7.1,5.2,8.2c2.5,1.1,22.1,20.9,22.3,22.8c-3,0.7-3.2,4.8-2,5.5c1.2,0.7,5.5,5.9,6.8,13.5c1.2,7.7-0.4,27.8,3.2,33.7
	C491.8,215.5,492.9,216.6,493.9,217.4z"/>
<path fill="#FFFFFF" stroke="#000000" stroke-miterlimit="10" d="M542,60.2c-1.4,4.2-3,7.5-5,9.1c-6.3-10.7-13.5-19.5-21.2-22.9
	c-13.3,5.7-21.8,10.8-28.1,16.2c-6.7-2.2-13-9.4-15.6-12.7c8.1-7.3,23.1-14.5,31.9-14.5c0,0,8.8-1,17.2,4
	C528.9,44.1,535.3,47.9,542,60.2z"/>
<path fill="#FFFFFF" stroke="#000000" stroke-miterlimit="10" d="M487.6,62.7c-2.1,1.7-3.9,3.5-5.6,5.3c-3-3.1-10.5-11.3-13.4-14.5
	c0.9-1.2,2.1-2.4,3.4-3.5C474.7,53.3,481,60.5,487.6,62.7z"/>
<path fill="#FFFFFF" stroke="#000000" stroke-miterlimit="10" d="M482,68c-1.5,1.5-2.9,3.1-4.2,4.8c-2.2-5.5-7.8-11.9-11.3-15.6
	c0.2-0.3,0.3-0.7,0.4-1c0.4-0.9,1-1.8,1.7-2.7C471.5,56.7,479,64.9,482,68z"/>
<path fill="#FFFFFF" stroke="#000000" stroke-miterlimit="10" d="M544,64.4l-4.1,10.2c-1-1.8-2-3.5-3-5.2c2-1.6,3.6-4.8,5-9.1
	c0.5,0.9,0.9,1.8,1.4,2.8C543.6,63.4,543.8,63.9,544,64.4z"/>
<path fill="#FFFFFF" stroke="#000000" stroke-miterlimit="10" d="M545.7,68.2c-1.4,3.2-3,7.9-3.1,11.5c-0.9-1.8-1.8-3.5-2.7-5.2
	l4.1-10.2C544.6,65.5,545.1,66.8,545.7,68.2z"/>
<path fill="#FFFFFF" stroke="#000000" stroke-miterlimit="10" d="M549.1,104.7l-18.8,12.7l-8.6,25.7l-34-2l-1.4-20.7
	c0,0-13.9-15.3-18.5-17c0.3-0.9,0.6-1.8,0.9-2.8l20.5,18.2l1.5,20c0,0,22,0,30.1,1.4c3.6-10.5,6.4-25.7,6.4-25.7l20.4-13.3
	C548.2,102.4,548.7,103.6,549.1,104.7z"/>
<path fill="#FFFFFF" stroke="#000000" stroke-miterlimit="10" d="M557.8,128.6c-1.1,0.7-11.6,14.1-14.8,20.7
	c-1.5,3.1-3.7,6.6-5.6,9.6v0c-2.8,1.9-13,12-26.3,11.7c-10.1-0.2-18.2-5-21.6-7.4c0.2-0.4,0.3-0.7,0-1.1
	c-1.1-1.8-14.1-20.3-17.5-23.3c-3.4-3-12.1-6.2-12.1-6.2s3.6-13.2,5.7-21.6c0.5-2.2,1.2-4.7,2.2-7.6c4.6,1.7,18.5,17,18.5,17
	l1.4,20.7l34,2l8.6-25.7l18.8-12.7c3.2,7.6,5.4,13.6,5.7,14.8C555.5,123.1,558.9,127.9,557.8,128.6z"/>
<path fill="#FFFFFF" stroke="#000000" stroke-miterlimit="10" d="M533.6,166c0,1.6,1.7,4.5,2.3,5.7L516,186.3l-1.1-0.5L490.1,174
	c-1.2-4.1-2.8-7.1-3.4-7.7c-0.8-0.8,2-1.9,2.8-3.2c3.4,2.4,11.6,7.2,21.6,7.4c13.3,0.2,23.5-9.8,26.3-11.7
	C535.3,162.2,533.6,165,533.6,166z"/>
<path fill="#FFFFFF" stroke="#000000" stroke-miterlimit="10" d="M547.7,101.2l-20.4,13.3c0,0-2.8,15.2-6.4,25.7
	c-8.1-1.4-30.1-1.4-30.1-1.4l-1.5-20l-20.5-18.2c1.1-3.1,2.4-6.4,4-9.9c2.9,2.8,10.6,9.6,15,9.6c5.5,0,11.9-9.5,20.6-9
	c8.6,0.5,12.2,14.5,21.5,11.6c9.3-2.8,10.2-13.5,5.9-19.5c-4.3-5.9-14.1-4.3-21-2.4c-6.8,1.9-12.8-0.6-12.8-0.6s-10.1-7.3-21.5-2.9
	c1-1.4,2-2.7,3.1-4.1C494.9,59.3,516.8,52,516.8,52s4.3,1.4,11.9,11C533.4,68.8,541.7,87,547.7,101.2z"/>
<path fill="#FFFFFF" stroke="#000000" stroke-miterlimit="10" d="M535.8,83.4c-4.3-5.9-14.1-4.3-21-2.4c-6.8,1.9-12.8-0.6-12.8-0.6
	s-10.1-7.3-21.5-2.9c-3.1,4.5-5.7,8.9-7.7,13.1c2.9,2.8,10.6,9.6,15,9.6c5.5,0,11.9-9.5,20.6-9c8.6,0.5,12.2,14.5,21.5,11.6
	C539.1,100,540,89.3,535.8,83.4z M478.1,88.6c5.5-7.6,17.8-4,20.2-2.2C500.6,89.6,482.4,97.3,478.1,88.6z M515.1,89.5
	c-0.9-0.9,10.3-8.5,19.4,1.1C531.4,92.3,518.1,92.6,515.1,89.5z"/>
<path fill="none" stroke="#000000" stroke-miterlimit="10" d="M498.3,86.3c2.3,3.2-15.9,11-20.2,2.2
	C483.6,80.9,495.9,84.5,498.3,86.3z"/>
<path fill="none" stroke="#000000" stroke-miterlimit="10" d="M534.5,90.7c-3.1,1.6-16.4,1.9-19.4-1.1
	C514.2,88.6,525.4,81.1,534.5,90.7z"/>
<path fill="#FFFFFF" stroke="#000000" stroke-miterlimit="10" d="M553.9,137.1c-4.6,5.5-16.4,30.6-16.4,30.6s3.6,3,2.1,5.7
	c-1.4,2.7-3.9,20.3-3.9,27.4c0,4.5,0.1,7.1-1.8,9.9c0,0,0,0,0,0c-0.9,0.8-1.9,1.6-2.9,2.3c2.5-4.9,1.6-13.1,1.9-21.1
	c0.4-10.3,3.2-19.2,3.2-19.8c0-0.1-0.1-0.3-0.2-0.5c-0.6-1.2-2.3-4.1-2.3-5.7c0-1,1.7-3.8,3.8-7.2v0c1.9-3,4.1-6.5,5.6-9.6
	c3.2-6.6,13.7-20,14.8-20.7c1.1-0.7-2.3-5.5-3-9.1c-0.2-1.2-2.5-7.2-5.7-14.8c-0.5-1.1-1-2.3-1.5-3.5c-6-14.2-14.3-32.3-18.9-38.2
	c-7.7-9.6-11.9-11-11.9-11s-21.9,7.3-33.3,21.6c-1.1,1.3-2.1,2.7-3.1,4.1c-3.1,4.5-5.7,8.9-7.7,13.1c-1.7,3.5-3,6.8-4,9.9
	c-0.3,1-0.6,1.9-0.9,2.8c-0.9,2.9-1.6,5.4-2.2,7.6c-2.1,8.4-5.7,21.6-5.7,21.6s8.7,3.2,12.1,6.2c3.4,3,16.4,21.6,17.5,23.3
	c0.2,0.4,0.2,0.8,0,1.1c-0.8,1.3-3.6,2.3-2.8,3.2c0.6,0.6,2.1,3.6,3.4,7.7c1,3.2,1.7,7,1.6,10.9c-0.2,8.7-4.3,28.5,7,34.2
	c-1.4-0.3-2.8-0.8-4.3-1.4c0,0,0,0,0,0c-0.1-0.1-0.3-0.2-0.4-0.3c-1-0.8-2.1-2-3.1-3.6c-3.6-5.9-2-26-3.2-33.7
	c-1.2-7.7-5.5-12.8-6.8-13.5c-1.2-0.7-1.1-4.8,2-5.5c-0.2-2-19.8-21.7-22.3-22.8c-2.5-1.1-5-4.8-5.2-8.2
	c-0.2-3.4,11.4-43.3,20.1-54.4c0.8-1,1.5-1.9,2.3-2.8c1.4-1.7,2.8-3.2,4.2-4.8c1.7-1.8,3.6-3.6,5.6-5.3c6.4-5.4,14.8-10.5,28.1-16.2
	c7.7,3.4,14.9,12.2,21.2,22.9c1,1.7,2,3.5,3,5.2c0.9,1.7,1.8,3.4,2.7,5.2v0c11.4,22.8,18.8,48.2,18.8,48.2S558.5,131.6,553.9,137.1z
	"/>
<path fill="#FFFFFF" stroke="#000000" stroke-miterlimit="10" d="M468.7,212.8c-2.9,1.5-5.9,3.1-8.9,4.7c-1.5,0.9-3,1.8-4.4,2.6
	c-2,1.3-4,2.8-5.9,4.5c-1.5,1.3-2.9,2.7-4.2,4.2c-3.1,3.3-5.7,6.7-7.5,9.3c-1.2,1.7-2,3-2.5,3.7c0,0,0,0-0.1,0.1
	c-0.2,0.3-0.3,0.5-0.3,0.5s-23.2-14.6-30.3-23.3c-7.1-8.7,14.3-21.8,14.3-21.8s-12.1-13.6-21.4-16.8c6.1-0.2,30.3-10.3,37.2-14.2
	c0.8-0.4,1.6-0.8,2.5-1.2C443.9,171.8,466.6,195.2,468.7,212.8z"/>
<path fill="#FFFFFF" stroke="#000000" stroke-miterlimit="10" d="M480.1,207.7c-3,1.1-7.1,2.9-11.5,5.1c-2-17.6-24.7-41-31.5-47.7
	c4.1-1.7,8.8-2.3,11.8-2.6c-0.4,0.8-0.8,1.5-1.3,2.3C447.7,164.9,463,191.7,480.1,207.7z"/>
<path fill="#FFFFFF" stroke="#000000" stroke-miterlimit="10" d="M381.4,208c-1.6,1.5-5.4,5.5-8.8,11.4
	c-6.1-4.7-16.5-20.1-15.1-29.3c3-0.5,9.2,0.1,16.3,9.2C375.7,201.7,378.3,204.7,381.4,208z"/>
<path fill="#FFFFFF" stroke="#000000" stroke-miterlimit="10" d="M435.1,242c-0.3,0.6-1.6,3.2-3,9.2c-11.3-6.4-31.6-23.9-45.7-38
	c-1.8-1.8-3.5-3.6-5.1-5.2c-3.1-3.3-5.7-6.3-7.6-8.7c-7.1-9.2-13.3-9.7-16.3-9.2c0.3-2.1,1.2-3.9,3-5.2c13.3-0.5,36.9-4.3,36.9-4.3
	c9.3,3.2,21.4,16.8,21.4,16.8s-21.4,13-14.3,21.8c7.1,8.7,30.3,23.3,30.3,23.3S434.9,242.3,435.1,242z"/>
<path fill="#FFFFFF" stroke="#000000" stroke-miterlimit="10" d="M611.1,234.3c-4.1,7.3-19.8,20.3-19.8,20.9
	c-0.4-0.9-0.9-1.8-1.4-2.7c-3.8-6.9-9.8-12.7-11.9-14.6c-0.5-0.5-0.8-0.7-0.8-0.7s9.1-13,12.7-19.4c1.3-2.3,2.7-6.5,3.9-10.9v0
	c-0.3-5.2-0.8-10.3-1.3-14.1c1.6,0.9,3,1.8,4.2,2.6c0.2,0.2,0.5,0.3,0.7,0.5c1.9,0.5,3.8,1.1,5.8,1.9c1.6,2.3,3.6,5.7,3.2,7.9
	c-0.7,3.6-5.5,11-5.5,11S615.2,227,611.1,234.3z"/>
<path fill="#FFFFFF" stroke="#000000" stroke-miterlimit="10" d="M618.7,240.5c-0.6,0.8-1.2,1.4-1.7,2c-0.7,0.7-1.5,1.5-2.3,2.4
	c-0.9,0.8-1.8,1.7-2.8,2.5c-8.1,7.2-19.5,15.6-19.5,15.6s-1.1-7.3-1.1-7.8c0-0.5,15.7-13.5,19.8-20.9c4.1-7.3-10.3-17.6-10.3-17.6
	s4.8-7.5,5.5-11c0.4-2.2-1.6-5.6-3.2-7.9c8.3,3.3,16.7,8.9,21.3,9.9c5.7,1.2,12.5,3.8,13,3.9C638,211.6,626.2,231.4,618.7,240.5z"/>
<path fill="#FFFFFF" stroke="#000000" stroke-miterlimit="10" d="M556.2,179.6c0,0,7.1,13.1,2.1,31.8c-4,15.2-13.3,33.4-16.7,39.6
	l0,0c-2.7,1.6-5.6,3.2-8.4,4.8c-3,1.7-6,3.4-9.1,5.2c-0.4-23-5.2-37.1-7.1-41.7c4.9-1,9.6-3,14-6.2c-0.4,0.8-0.8,1.4-1.4,2
	c-0.5,0.4-1.1,0.9-1.7,1.3c0.7-0.4,1.2-0.8,1.7-1.3c2-1.6,3.4-3,4.3-4.3c0,0,0,0,0,0c8.3-7.3,15.2-19.3,19.5-37.3c0,0,0-0.1,0-0.1
	c1.6,0.7,4.1,1.9,7.1,3.2L556.2,179.6z"/>
<path fill="#FFFFFF" stroke="#000000" stroke-miterlimit="10" d="M524.2,261.1c-1.5,0.9-3,1.7-4.5,2.6c-3.8,2.1-7.4,4.2-10.9,6.2
	c-0.4-0.7-0.8-1.4-1.1-2c-5-27.5-11-37.7-15.1-41.5c0.9-3.7,1.5-7,1.4-8.8c0.2,0.1,0.3,0.1,0.4,0.2c0,0,0,0,0,0
	c2.3,1.6,4.3,1.4,4.3,1.4c5.9,1.2,11.7,1.5,17.3,0.5c0.4-0.1,0.7-0.1,1-0.2C518.9,224,523.8,238,524.2,261.1z"/>
<path fill="#FFFFFF" stroke="#000000" stroke-miterlimit="10" d="M569.8,202.5c-2.5,11.4-12.8,32.6-18.1,42.9
	c-3.1,1.8-6.4,3.7-10,5.7c3.3-6.2,12.6-24.4,16.7-39.6c5-18.8-2.1-31.8-2.1-31.8l4.3-3h0l8.5-5.9c0.5,3,1,6.6,1.3,10.5
	C571,188.2,571.1,196.1,569.8,202.5z"/>
<path fill="#FFFFFF" stroke="#000000" stroke-miterlimit="10" d="M593.8,206.8L593.8,206.8c-1.2,4.4-2.6,8.6-3.9,11
	c-3.6,6.4-12.7,19.4-12.7,19.4s0.3,0.2,0.8,0.7c-1.5,0.5-3,1.1-4.5,1.6c-2.5-2.7-4.9-4.2-6.6-3c-1.7,1.1-7.5,4.5-15.3,9
	c5.2-10.3,15.6-31.5,18.1-42.9c1.4-6.4,1.2-14.2,0.6-21.2c-0.3-3.9-0.9-7.5-1.3-10.5l0.3-0.2l22.3,15.7c0,0,0.4,2.5,0.9,6.4
	C593,196.5,593.5,201.5,593.8,206.8z"/>
<path fill="#FFFFFF" stroke="#000000" stroke-miterlimit="10" d="M508,326c0,0.5-0.1,1.1-0.1,1.6c-1.7,1.3-3,2.4-4,3.1
	c-1.9,1.5-3.9,2.5-5.8,3.2c-10.2,3.9-19.7-1.3-19.7-1.3l-7.5,3.2l-6,2.6l-5.5,2.3l-1.2-1.8l-7.8-12l-2.1-3.3l12.3-8.1
	c0,0,3.1-6.6,5.6-11.5c1-2,1.9-3.8,2.5-4.6c1.5-2.3,3.7-6.4,10.9-11.9L508,326z"/>
<path fill="#FFFFFF" stroke="#000000" stroke-miterlimit="10" d="M557,287c-2.8,2.3-5.6,4.7-8.5,7c-1.1,0.9-2.2,1.8-3.3,2.8
	c-7.3-12.6-20.8-27.8-25.6-33.1c1.5-0.9,3-1.7,4.5-2.6c3-1.7,6.1-3.5,9.1-5.2C538.3,261.2,551.2,275.1,557,287z"/>
<path fill="#FFFFFF" stroke="#000000" stroke-miterlimit="10" d="M587.4,261.6c0,0-4.8,4-12,10.1c-5.1,4.3-11.5,9.6-18.3,15.3
	c-5.8-11.8-18.7-25.8-23.8-31.1c2.9-1.6,5.7-3.3,8.4-4.8l0,0c3.5-2,6.9-4,10-5.7c7.8-4.5,13.6-7.8,15.3-9c1.7-1.1,4.1,0.3,6.6,3
	c4.6,5,9.7,14.1,12.3,19C586.8,260.3,587.4,261.6,587.4,261.6z"/>
<path fill="#FFFFFF" stroke="#000000" stroke-miterlimit="10" d="M545.3,296.8c-3.1,2.6-6.2,5.2-9.3,7.7c-2.4,2-4.8,4-7.2,6
	c-3.3,2.8-6.5,5.4-9.4,7.8c-7.1-10.4-21.5-32.5-26.5-39.3c0,0,0,0,0,0c4-2.3,9.3-5.4,15.1-8.7c0.2-0.1,0.5-0.3,0.7-0.4
	c3.5-2,7.2-4.1,10.9-6.2C524.5,269,538,284.2,545.3,296.8z"/>
<path fill="#FFFFFF" stroke="#000000" stroke-miterlimit="10" d="M519.4,318.3c-1.5,1.2-2.9,2.4-4.2,3.5c-2.4,2-4.5,3.7-6.4,5.2
	l-0.7-1l-28.3-38.5c2.2-1.7,4.8-3.5,8.1-5.4c1.3-0.8,3.1-1.8,5.1-3C497.8,285.8,512.2,307.9,519.4,318.3z"/>
<path fill="#FFFFFF" stroke="#000000" stroke-miterlimit="10" d="M394.5,227.3c-2.8,4.5-11.9,19.9-12.6,35.6
	c-0.8,18.6-1.5,39.2-4.5,45.3c-3,6.1-14.4,15.5-14.4,15.5l-4.6,25l-2.3,12.4c-1.7-1.4-3.4-2.6-5-3.9c-1.6-1.4-5-5.4-8.5-9.7
	c3.2-5.2,6.1-10.1,6.7-12.5c1.4-5.8,0.6-25.7,3.6-43.5c3-17.8,12.1-34.9,12.4-37c0.2-2-1.2-9.4,2.7-24c1.1-4.3,2.8-8,4.6-11.2
	c3.4-5.9,7.2-9.9,8.8-11.4c1.6,1.7,3.3,3.4,5.1,5.2C388.1,216.3,391,221.5,394.5,227.3z"/>
<path fill="#FFFFFF" stroke="#000000" stroke-miterlimit="10" d="M368.5,408.2l-0.2,2.6l-1,13l-11.2-10.3l-1.1-16.8
	c0,0-30.3-30.3-35.6-28.2c0.5-4.9,3.8-5,4.4-5c0.1,0,0.1,0,0.1,0s22.9,15.4,33.5,27.3c0.2-4.4,0.4-15-2-18.9
	c-1.7-2.8-9.3-11-16.2-18.9c-5.2-5.9-9.9-11.5-11.5-14.5c-0.1-0.2-0.2-0.5-0.3-0.7c-2.5-6.1,3.8-5,3.8-5s5.9,7.7,11.5,14.5
	c3.5,4.3,6.9,8.3,8.5,9.7c1.5,1.3,3.2,2.5,5,3.9c2.9,2.4,5.7,5.4,7.1,11.1c2.2,9,4.1,30.1,4.1,30.1s-1.4-0.5-3.3-1.4L368.5,408.2z"
	/>
<path fill="#FFFFFF" stroke="#000000" stroke-miterlimit="10" d="M371.4,495.7c-0.1,0.2-0.1,0.2-0.2,0.3c-0.9,0.2-30.1,27.3-31,27.5
	c-0.1,0-0.1,0-0.2,0c-0.9,0.1-2.3-0.3-2-2.3c0-0.3,0.5-0.8,1.1-1.5c4-4.3,17.5-15.2,20.5-21.4c1.5-3.3,3-8.9,3.5-14.7v0
	c0.7-7,0-14.1-3.2-17.4c-5.9-6.1-27.9-16.4-33.2-18.2c-0.2-0.1-0.4-0.2-0.6-0.2c-4.3-1.8-0.9-3.9-0.9-3.9s0.5,0.1,1.4,0.3
	c5.4,1.3,25.2,6.5,34.3,15.5c3.8,3.8,6.3,8.2,7.9,12.4c2.9,7.3,3,13.7,3,14.2C371.9,486.9,372.1,494.2,371.4,495.7z"/>
<path fill="#FFFFFF" stroke="#000000" stroke-miterlimit="10" d="M357.3,391c-10.6-11.9-33.5-27.3-33.5-27.3s0,0-0.1,0
	c-0.8-7.8,2.6-20.3,4-25c1.5,3,6.3,8.6,11.5,14.5c6.9,7.9,14.5,16.1,16.2,18.9C357.7,376,357.5,386.6,357.3,391z"/>
<path fill="#FFFFFF" stroke="#000000" stroke-miterlimit="10" d="M365.9,433.7c1.3,9.4,1.4,26.7,1.4,26.7l-7.8-4.1
	c0,0-0.7-20.7-3.2-24.6c-2.5-3.9-18.4-14.6-27.1-17.1c-2.7-0.8-5-1.6-6.8-2.5c-3.7-1.8-4.5-3.7-0.4-5c0.5-0.2,1.1-0.2,1.8-0.1
	c7,0.8,24.5,11.2,30.9,15.2l1.3-8.7l11.2,10.3l-0.4,3.5l-0.8,6.5L365.9,433.7z"/>
<path fill="#FFFFFF" stroke="#000000" stroke-miterlimit="10" d="M356.1,413.5l-1.3,8.7c-6.4-4-23.9-14.4-30.9-15.2
	c-3.1-11.3-4.5-38.4-4.5-38.4c5.3-2.1,35.6,28.2,35.6,28.2L356.1,413.5z"/>
<path fill="#FFFFFF" stroke="#000000" stroke-miterlimit="10" d="M378.7,474.5c-3.3-1.1-7.1-1.9-9.8-2.5c-1.6-4.1-4.1-8.6-7.9-12.4
	c-9.1-9-28.9-14.2-34.3-15.5l-4.2-32c1.7,0.8,4,1.7,6.8,2.5c8.7,2.5,24.6,13.2,27.1,17.1c2.5,3.9,3.2,24.6,3.2,24.6l7.8,4.1
	c0,0-0.1-17.3-1.4-26.7l0.1,0.1l0.8-6.5c2.6,1.5,7.9,6.1,11.8,10.3c-0.2,3.2-0.5,6.2-1.2,8.3C378.1,451.8,378.6,470.7,378.7,474.5z"
	/>
<path fill="#FFFFFF" stroke="#000000" stroke-miterlimit="10" d="M363.2,483.5L363.2,483.5c-7.2,6.5-23.1,12.8-23.1,12.8l-13.9-48.6
	c0.2,0.1,0.4,0.2,0.6,0.2c5.3,1.8,27.3,12.1,33.2,18.2C363.2,469.4,363.8,476.6,363.2,483.5z"/>
<path fill="#FFFFFF" stroke="#000000" stroke-miterlimit="10" d="M363.2,483.5c-0.6,5.8-2,11.5-3.5,14.7
	c-2.9,6.2-16.5,17.1-20.5,21.4c-1.2-7.5,0.9-23.3,0.9-23.3S355.9,490,363.2,483.5z"/>
<path fill="#FFFFFF" stroke="#000000" stroke-miterlimit="10" d="M380.8,498.3c0,0-0.1,0-0.2,0c-1-0.2-6.6-1.6-9.2-2.5
	c0.7-1.5,0.5-8.8,0.5-9.5c0-0.5-0.1-6.9-3-14.2c2.7,0.6,6.5,1.4,9.8,2.5c0,0.4,0,0.7,0,0.7L380.8,498.3z"/>
<path fill="#FFFFFF" stroke="#000000" stroke-miterlimit="10" d="M379.8,515.8c-0.9,0-1.7,0.2-2.5,0.5c-3.9,1.3-7.1,4.8-7.1,4.8
	s-4-4.8-9.5-4.8c-5.5,0-20.6,14.1-20.6,14.1v-7c0.1,0,0.1,0,0.2,0c0.9-0.2,30.1-27.3,31-27.5c0.1,0,0.2-0.1,0.2-0.3
	c2.6,0.9,8.2,2.2,9.2,2.5l1.1,3l0.2,0.5c0,0-5.1,4.2-7.6,5.9C371.8,509.4,376.5,512.9,379.8,515.8z"/>
<path fill="#FFFFFF" stroke="#000000" stroke-miterlimit="10" d="M392.1,510c0,0.7-0.2,1.5-0.5,2.4c-0.7,2.3-2.5,4.8-6.8,4.9
	c-2.8,0.1-5.5-0.4-7.6-1c0.8-0.3,1.6-0.5,2.5-0.5c-3.3-3-8-6.4-5.5-8.2c2.5-1.8,7.6-5.9,7.6-5.9l-0.2-0.5
	C385,503.2,392.2,508.1,392.1,510z"/>
<path fill="#FFFFFF" stroke="#000000" stroke-miterlimit="10" d="M368.7,559.8c-1.5,0.8-4,1.6-6.8,1.9c-8.4-4.4-10.1-12.1-10.4-15.5
	v0c1-4.1,6.5-1.7,6.5-1.7s0,0,0-0.1C358.9,548.5,361.5,556.8,368.7,559.8z"/>
<path fill="#FFFFFF" stroke="#000000" stroke-miterlimit="10" d="M361.8,561.8c-3.8,0.5-8.1,0-11.1-2.5c-3.8-3.7-5.4-7.5-6.5-10.7
	c1.7-1.7,4.5-4,7.2-2.3C351.8,549.6,353.5,557.4,361.8,561.8z"/>
<path fill="#FFFFFF" stroke="#000000" stroke-miterlimit="10" d="M402.9,537.1l-1.9-0.7c0.3,0.1,0.9,0.5,1.9,0.9
	c-0.4,2.9-2.1,1.8-5.4-3.3c-3.3-5.1-0.9-1.4-4.1-6.5c-3.4-5.5-7.3-4.2-10.2-4.7c-5.7-0.8-7,10.6-7,13.5c-0.1,2.2-1.3,5.3-2.1,7.3
	c-0.1-2,0.2-3.6,0.2-3.6c-8-6.4-15.4,3.6-16,4.5c0,0,0,0.1,0,0.1s-5.6-2.5-6.5,1.7v0c-2.7-1.7-5.5,0.6-7.2,2.3
	c-0.9-2.6-1.5-4.7-2.6-6.1c-2.5-3.1-1.6-11.9-1.6-11.9s15.1-14.1,20.6-14.1c5.5,0,9.5,4.8,9.5,4.8s3.2-3.5,7.1-4.8
	c2.1,0.6,4.8,1.2,7.6,1c4.3-0.2,6.1-2.7,6.8-4.9l7.1,8.7c0,0,3.7,7.3,4.2,9.4C403.3,532.2,403.1,534.7,402.9,537.1z"/>
<path fill="#FFFFFF" stroke="#000000" stroke-miterlimit="10" d="M389.4,554.4c0,0-7.4,9.5-19.4,5.9c-0.4-0.1-0.9-0.3-1.3-0.5
	c-7.1-3-9.8-11.4-10.6-15.3c0.6-0.9,8-10.8,16-4.5c0,0-0.3,1.5-0.2,3.6c0.1,2.6,0.8,6,3.5,8.1C382.1,555.6,389.4,554.4,389.4,554.4z
	"/>
<path fill="#FFFFFF" stroke="#000000" stroke-miterlimit="10" d="M517.2,438.3c-0.9,28.6-4.3,123.4-7.9,149.6
	c-1.3-0.9-2.6-1.6-4.2-2.2c-2.6-1.1-5.8-1-9.1-0.3c-7.6,1.5-15.4,6.2-16.1,6.7c-1,0.7-17.1-19-17.1-19l-1.9-23.6l-27.5-22.1
	l-6.2,18.8l-22.8-8.6l-1.5-0.6c0.3-2.4,0.4-4.9,0.1-6.5c-0.5-2.1-1.8-4.8-2.8-6.8c2.6-9,7-24.4,8.3-31.4c-2-16,6.8-31,8.7-37.4
	c0.7-2.3,2.1-9.3,3.8-17.4l38.5,63.9c-1,0.1,4,4.9,4,4.9l15.7-16.6l0.4-0.5l-40.8-64.5c12.2,4.1,33.2,8.2,68.7,8.2
	c0,0.8-0.1,1.3-0.1,1.3l-3.7-0.9l1.1,4.3c0,0,4.4,0.9,5.1,0c0.2-0.2,0.3-2,0.4-4.7c2.1,0,4.2,0,6.4-0.1
	C517,436.1,517.2,438.3,517.2,438.3C517.2,438.3,517.2,438.3,517.2,438.3z"/>
<path fill="#FFFFFF" stroke="#000000" stroke-miterlimit="10" d="M507.9,327.6c-1.6,19.3-7.8,78.1-23.9,74.9
	c-16.8-3.4-19.4-47.9-19-64.1l6-2.6c1.1,12.3,6.2,67.5,13,60.1c6.9-7.5,13.7-42.5,14.1-61.9c1.9-0.7,3.9-1.8,5.8-3.2
	C504.9,330,506.2,328.9,507.9,327.6z"/>
<path fill="#FFFFFF" stroke="#000000" stroke-miterlimit="10" d="M527.8,405.3l-9.8,0.3c0.2-16.7-2.4-73.3-2.9-83.9
	c1.3-1.1,2.8-2.3,4.2-3.5c2.9-2.4,6.1-5,9.4-7.8C528.5,329.7,527.6,390.1,527.8,405.3z"/>
<path fill="#FFFFFF" stroke="#000000" stroke-miterlimit="10" d="M508.4,414c0,4.6-0.6,15.2-0.8,18.9c-35.5,0-56.5-4-68.7-8.2
	l-12.1-19.1v0c0.2-1.3,0.3-2.1,0.3-2.3c0-0.1,0-0.5,0.1-1C438.3,407.7,480.3,417.3,508.4,414z"/>
<path fill="#FFFFFF" stroke="#000000" stroke-miterlimit="10" d="M515,405.7v1.1c0,0.2,0.2,2.6,0.4,6c-1.5,0.3-3,0.6-4.7,0.9
	c0.1-3.6,0.2-6.2,0.3-6.2c-0.5-0.1-8-1.8-8-1.8l-1.6,4.1c0.3,0,0.6,0,0.8,0c2.6,0.2,5.4,1.3,5.9,1.9c0.1,0.1,0.1,1,0.1,2.2
	c-28.1,3.3-70.1-6.3-81.1-11.6c0.7-4.2,4-19.5,4-19.5s-0.3-14.5-2.1-25.9c6.8-2.7,19.1-9.8,29.2-18.1l1.2,1.8l5.5-2.3
	c-0.4,16.2,2.2,60.7,19,64.1c16,3.3,22.3-55.6,23.9-74.9c0.3-0.2,0.6-0.4,0.8-0.7c1.8-1.5,4-3.2,6.4-5.2c0.5,10.6,3.1,67.2,2.9,83.9
	L515,405.7z"/>
<path fill="#FFFFFF" stroke="#000000" stroke-miterlimit="10" d="M498.2,334c-0.5,19.5-7.2,54.4-14.1,61.9
	c-6.8,7.5-11.9-47.8-13-60.1l7.5-3.2C478.5,332.6,487.9,337.9,498.2,334z"/>
<path fill="#FFFFFF" stroke="#000000" stroke-miterlimit="10" d="M460.7,315.5l-12.3,8.1l2.1,3.3c-8.2,5.3-20.2,11-27,14
	c-3-7.3-6.5-18.7-8.6-26v0c3.7-7,6.9-13.3,8.6-17.2c3.9-9.1,6.9-20.2,8.5-26.9c5,5.8,5.7,8.9,5.7,8.9s6-6.8,12.7-13.8
	c4.3,9.5,11.9,26.8,15.9,38C463.8,308.9,460.7,315.5,460.7,315.5z"/>
<path fill="#FFFFFF" stroke="#000000" stroke-miterlimit="10" d="M458.3,338.9c-10.1,8.3-22.4,15.4-29.2,18.1
	c-0.8-4.7-1.8-8.8-3.2-11.2c-0.7-1.2-1.5-2.9-2.4-4.9c6.7-3,18.8-8.8,27-14L458.3,338.9z"/>
<path fill="#FFFFFF" stroke="#000000" stroke-miterlimit="10" d="M423.6,809.1c0,0-1.1,12.3-2.3,23.1c0,0,0,0,0,0
	c-13.3,13.7-28.8,17.2-35.2,16.9c-5.8-0.3-24.3-30.8-32.6-45c0.5-4.8,1.3-8.9,2.3-11.4c6,15.6,17.2,38.4,32.2,41.3
	c15.9,3.1,26.8-9.9,32-18.3c2-3.2,3.2-5.8,3.5-6.5l0-0.1C423.6,809.1,423.6,809.1,423.6,809.1z"/>
<path fill="#FFFFFF" stroke="#000000" stroke-miterlimit="10" d="M421.3,832.2c-0.6,5.1-1.2,9.8-1.7,12.7c0,0,0,0,0,0c0,0,0,0,0,0
	c-5.8,10.9-17.5,28-34.8,27.5c-18.9-0.5-28.5-26.5-32.1-39.5v0c-0.2-8.4-0.1-19.9,0.9-28.8c8.3,14.2,26.8,44.7,32.6,45
	C392.5,849.4,408,846,421.3,832.2z"/>
<path fill="#FFFFFF" stroke="#000000" stroke-miterlimit="10" d="M419.6,845c-0.8,4.6-2.6,11.8-4.5,19.7
	c-7.8,10.6-19.2,22.6-30.3,22.1c-12.3-0.6-23.1-14.7-29.4-25.1c0,0,0,0,0,0c-1.3-11-2.3-20.5-2.6-24.8c-0.1-1.2-0.1-2.5-0.1-3.9
	c3.6,13,13.2,39,32.1,39.5C402,873,413.8,855.9,419.6,845z"/>
<path fill="#FFFFFF" stroke="#000000" stroke-miterlimit="10" d="M415,864.7c-1.9,7.9-4,16.4-5.4,23.5c0,0.1,0,0.1,0,0.1
	c-7.6,5.5-18.1,10.9-27.3,16.5c-8.5,2.3-18.9-13.1-24.4-22.4c0,0,0,0,0,0c-0.9-7-1.8-14.1-2.5-20.7c6.3,10.4,17.1,24.5,29.4,25.1
	C395.8,887.3,407.2,875.3,415,864.7z"/>
<path fill="#FFFFFF" stroke="#000000" stroke-miterlimit="10" d="M409.6,888.3c-0.5,2.5-0.9,5.9-1.2,10v0
	c-11.5,11.2-29.7,18.2-29.7,17.4c0-0.7-11.5-11.2-18.8-17.5v0c-0.6-4.9-1.3-10.3-2-15.8c5.4,9.3,15.8,24.8,24.4,22.4
	C391.5,899.2,402,893.9,409.6,888.3z"/>
<path fill="#FFFFFF" stroke="#000000" stroke-miterlimit="10" d="M408.1,958.4c-7.6-3.6-15.5-7.8-20.8-11
	c-8.2-4.9-20.7,1.8-28.7,6.9c0.3-3,0.6-5.4,0.9-6.5c0.9-3.3,2.8-23.5,2.8-28c0-1.5-1-10.2-2.4-21.5c7.3,6.3,18.8,16.8,18.8,17.5
	c0,0.8,18.2-6.3,29.7-17.4C407.1,916.3,407.7,946.1,408.1,958.4z"/>
<path fill="#FFFFFF" stroke="#000000" stroke-miterlimit="10" d="M382,996c-22.6,3-25-17.3-24.7-22c0.2-3.3,0.7-12.9,1.3-19.7
	c8-5.1,20.5-11.9,28.7-6.9c5.3,3.2,13.2,7.4,20.8,11c0,0.7,0.1,1.4,0.1,2C408.6,973.5,404.6,993,382,996z"/>
<path fill="#FFFFFF" stroke="#000000" stroke-miterlimit="10" d="M495.1,596.2c-1.5,16.8-3.7,37.9-5.9,47.3
	c-4,16.9-10,36.8-28.3,64.6c-1.7,7.6-3.6,14.1-5.5,19.6l-2.9-2.7l3.9-20.6c0,0-11-9.3-14.6-10.6c-3.6-1.4-11-14.3-12.5-15
	c-1.4-0.7-2.9,0.4-13.2,6.8c-7.7,4.8-18.7,4.4-23.9,3.9c1-3,1.9-5.4,2.5-6.2c2.5-3.7,1.2-38.9,1.2-38.9s-0.1-40.1,2.2-47
	c1.2-5,4.5-34,4.5-34l1.8-25.2c9.7,4.9,36.8,19.3,48.8,31.3c14.7,14.7,21.9,26.8,21.9,26.8S489.6,598.1,495.1,596.2L495.1,596.2z"/>
<path fill="#FFFFFF" stroke="#000000" stroke-miterlimit="10" d="M455.4,727.7c-5.6,16.3-10.9,23.3-10.9,23.3s-15.9,22.7-41.6,17.7
	c-25.4-4.9-17.7-55.3-17.5-56.5c0,0,0,0,0,0c10.5,5.6,34.5,2.2,41.4-2.8c13.9,16.8,25.7,15.7,25.7,15.7l0-0.1L455.4,727.7z"/>
<path fill="#FFFFFF" stroke="#000000" stroke-miterlimit="10" d="M618.7,783.5c-2,3.8-5.7,10.2-12.1,20.4
	c-7.3-0.3-28.1-10.2-42.3-17.4c-4.8-2.4-8.8-4.5-11.3-5.8c0-0.4,0-0.6-0.1-0.8c-0.7-2.7-11.2-13-10.5-18.2
	c0.5-3.8,2.3-14.7,2.4-25.8c6.2,2.1,16.3,4.6,24.5,3.2c0.3,1.8,0.8,3.4,1.5,4.7c5.3,9.3,26.3,36,40.8,18.9c3.4-4,6.5-8.2,9.1-12.2
	c0.2,2.7,0.8,6.6,1.5,12.4c1.9,14.3-5.5,18.8-5.5,18.8S617.5,781.8,618.7,783.5z"/>
<path fill="#FFFFFF" stroke="#000000" stroke-miterlimit="10" d="M605.9,669.6l2.2,3.6c-10.2,13.5-26.6,19.4-32.5,23.8
	c-3.5,2.6-4,7-3.9,10.2c-1.3,7-3.4,19.5-2.8,28.5c0.1,1.2,0.2,2.3,0.4,3.3c-8.2,1.4-18.2-1.2-24.5-3.2c0-0.6,0-1.2,0-1.8
	c0-3.6-0.2-7.2-0.7-10.5c-2.1-14-5.2-26.8-5.2-26.8s1.7-8.1,1.4-10.2c-0.2-2.1-7.8-13.5-9.3-20.7c-1.1-5.3-2.4-47.4-3-68.5
	c1-0.4,1.6-0.7,1.6-0.7l0-1.6l4.7-148.7l2.1,3.4l5.3,146.3l0.1,3.4c0,0,38.3-11.2,38.7-12.1c0.4-0.8,22-26.9,30.6-43
	c3.9,22.4,9.8,58.4,9.8,67.7C621.1,625.9,605.9,669.6,605.9,669.6z"/>
<path fill="#FFFFFF" stroke="#000000" stroke-miterlimit="10" d="M689.5,982.1c-7.6,6.6-32.8,5.7-58.5-6.2c-4.6-2.1-9.4-4-14.4-5.7
	c11-28.3,30.6-20.8,38.2-19.3c-0.9-1.6-0.6-5.2,0-8.5c7.3,5,19.1,13.2,25.2,15.8C689,962.1,697.1,975.4,689.5,982.1z"/>
<path fill="#FFFFFF" stroke="#000000" stroke-miterlimit="10" d="M654.8,950.9c-7.6-1.6-27.1-9-38.2,19.3
	c-22.9-7.8-47.6-11.6-51.9-17.9c-5.2-7.6,1.7-14.3,1-15.7c-0.7-1.4-0.7-13.8,1.7-17.8c0.2-0.4,0.4-0.8,0.6-1.4
	c5.8,6.9,14.9,15.6,22.8,12.6c12.7-4.8,20.8-13.8,20.8-13.8s7.2,3.2,11.3-2.2c3.3,4.1,13.4,16.6,14.3,20.5c1.2,4.8,9.5,4,11.2,4
	c0.5,0,3,1.6,6.4,3.9C654.2,945.7,653.9,949.3,654.8,950.9z"/>
<path fill="#FFFFFF" stroke="#000000" stroke-miterlimit="10" d="M617.4,875.7L617.4,875.7c-2.2,4.5-5,9.6-7,10.8
	c-3.2,2-26.4-8.4-34-11.9c0-0.1,0-0.1,0-0.2c-0.4-2.5-0.8-5.9-1.3-9.7c7.9,4.5,27.3,15,32.7,12.7c3.6-1.5,6.9-6.6,9.4-11.2
	c0,3.2,0,6,0.1,8.1C617.3,874.9,617.3,875.3,617.4,875.7z"/>
<path fill="#FFFFFF" stroke="#000000" stroke-miterlimit="10" d="M619.3,820.3c-0.3,5.7-0.7,11.7-1,17.6c0,0,0,0,0,0
	c-2.6,4.9-6.5,10.7-12,15.7c-9.3,1.4-28.9-11.1-35.4-15.4c-0.7-3-1.4-5.5-2.1-7.1c-0.1-0.3-0.3-0.7-0.4-1
	c9.6,6.4,32.3,20.3,37.7,13.4C612.9,834.6,619.1,820.7,619.3,820.3z"/>
<path fill="#FFFFFF" stroke="#000000" stroke-miterlimit="10" d="M618.3,837.8c-0.6,10.7-1.1,20.9-1.2,28.5
	c-2.4,4.6-5.8,9.7-9.4,11.2c-5.4,2.3-24.8-8.2-32.7-12.7v0c-1.1-8.5-2.5-19.1-4.1-26.7c6.5,4.3,26.1,16.8,35.4,15.4
	C611.8,848.6,615.7,842.7,618.3,837.8z"/>
<path fill="#FFFFFF" stroke="#000000" stroke-miterlimit="10" d="M621.5,903.6c-12.7,11.6-40.4-1.8-40.4-1.8s-3.1-16.9-4.7-27.2
	c7.6,3.5,30.8,13.9,34,11.9c2-1.2,4.8-6.3,7-10.8C618.2,886.6,620.2,897.1,621.5,903.6z"/>
<path fill="#FFFFFF" stroke="#000000" stroke-miterlimit="10" d="M621.1,743c-0.6,1.8-0.7,3.4-0.3,7.3c-2.7,4-5.7,8.1-9.1,12.2
	c-14.5,17.1-35.4-9.6-40.8-18.9c-0.7-1.2-1.2-2.8-1.5-4.7c-0.2-1-0.3-2.2-0.4-3.3c-0.6-9,1.5-21.5,2.8-28.5c0.5-2.9,0.9-4.8,0.9-5.2
	c0,0,0.2,2.8,0.8,6.2c1,5.4,2.8,12.4,6.3,13c5.7,1.1,29.8-12.8,34.2-22.1c2.2,2,8.5,4.1,13.5,5.4C627,707.3,622,740.1,621.1,743z"/>
<path fill="#FFFFFF" stroke="#000000" stroke-miterlimit="10" d="M623.6,698c-0.9-0.2-2.2-0.6-4.1-1.2c-5.8-1.8-5.6-7.6-5.3-10.7
	c0.1-1.4,0.2-2.2,0.3-2.8c0,0,0,0,0,0l-6.3-10.1c-10.2,13.5-26.6,19.4-32.5,23.8c-3.5,2.6-4,7-3.9,10.2c0.5-2.9,0.9-4.8,0.9-5.2
	c0,0,0.2,2.8,0.8,6.2c1,5.4,2.8,12.4,6.3,13c5.7,1.1,29.8-12.8,34.2-22.1c2.2,2,8.5,4.1,13.5,5.4c0-0.1,0-0.2,0-0.2L623.6,698z
	 M606.5,696.6c-1.3,4.3-22.1,17.8-24.4,16.5c-2.3-1.3-3.4-11.5-2.8-11.6c10.5-1.7,25.1-17.5,25.1-17.5S607.8,692.3,606.5,696.6z"/>
<path fill="#FFFFFF" stroke="#000000" stroke-miterlimit="10" d="M623.6,698c-0.9-0.2-2.2-0.6-4.1-1.2c-5.8-1.8-5.6-7.6-5.3-10.7
	c0.1-1.4,0.2-2.2,0.3-2.8L623.6,698z"/>
<path fill="#FFFFFF" stroke="#000000" stroke-miterlimit="10" d="M614.2,526.8L614.2,526.8c-1.2,2.6-2.3,5.3-2.7,7.6
	c-0.4,2.3-1.4,0.8-2.4-1.8c0,0,0,0,0,0c-1.5-3.8-3.1-9.7-3.1-9.7l-15.7,23.4c0,0,0.2,13.3,1.4,19c-4,10.7-19.6,21.4-19.6,21.4
	s-4.5-2.1-4.9-2c-0.2,0.1-4.2,0.5-7.5,0.9L548.2,438c1,0,1.5,0,1.5,0v-8c9.4-0.3,31.8-1.2,42.5-4.5c0.9,4.6,1.5,7.7,1.5,7.7
	S611.2,499.5,614.2,526.8z"/>
<path fill="#FFFFFF" stroke="#000000" stroke-miterlimit="10" d="M592.3,425.5c-10.7,3.3-33,4.2-42.5,4.5v-18.2
	c3.9,0,8.9,0.2,8.9,0.2l30.2-5.6C590,412.9,591.3,420.2,592.3,425.5z"/>
<path fill="#FFFFFF" stroke="#000000" stroke-miterlimit="10" d="M588.9,406.3l-30.2,5.6c0,0-5-0.1-8.9-0.2v-7.1l-1.2,0v-29.9
	c5.8-9.2,13.3-22.2,16.9-34.1c1.9-6.2,4.3-14.3,6.7-22.6c5-2.1,11.1-5.1,16.3-8.4c0.4,16.3,0.5,34.1-0.6,41.6c-0.3-0.6-0.5-1-0.5-1
	s-0.7,32.6,0,43.7C587.6,397.1,588.2,401.5,588.9,406.3z"/>
<path fill="#FFFFFF" stroke="#000000" stroke-miterlimit="10" d="M632.3,355.3c-8.3,42.6-21.8,34.6-28.2,29.1
	c-0.1-0.6-0.3-1-0.4-1.2c-1.3-1.8-13.3-26.6-15.9-32v0c1-7.5,0.9-25.3,0.6-41.6c-0.2-10.9-0.6-21.2-0.8-27.1c1-1.6,5.8-8.6,9.9-11.8
	c4-3.1,11.5-13.1,14.3-23.4c1-0.9,1.9-1.7,2.8-2.5c0.6,6.2,3.6,37.2,3,40.5c0.6,6.3,5.6,17.9,4.4,20.7c-1.2,2.7-7.6,8-8,8.3
	c-0.4,0.4,6.8,14.6,6.8,14.6l-7.8,6.5C613,335.5,624.9,345.8,632.3,355.3z"/>
<path fill="#FFFFFF" stroke="#000000" stroke-miterlimit="10" d="M643.4,351.9c0,0-2.9,4.7-6,11.3c-1-2.4-2.8-5.1-5.1-7.9
	c-7.5-9.5-19.3-19.8-19.3-19.8l7.8-6.5c0,0-7.1-14.3-6.8-14.6c0.4-0.4,6.8-5.6,8-8.3c1.2-2.7-3.8-14.4-4.4-20.7
	c0.7-3.3-2.4-34.4-3-40.5c0.9-0.8,1.6-1.6,2.3-2.4c0.5-0.6,1.1-1.3,1.7-2c2.8,10.2,5.4,25.9,4.1,42.5c6.4,18,9.5,49,9.5,51.3
	C632.3,336.6,643.4,351.9,643.4,351.9z"/>
<path fill="#FFFFFF" stroke="#000000" stroke-miterlimit="10" d="M635,410.5c0,0-1.1,1.4-2.2,3c-10.2-0.6-20.3-8.5-26.5-13.6
	c-1-7-1.6-13-2.1-15.5c6.4,5.5,19.8,13.4,28.2-29.1c2.2,2.8,4,5.5,5.1,7.9c-3.2,6.8-6.6,15.6-7.2,23.3
	C628.9,401.4,635,410.5,635,410.5z"/>
<path fill="#FFFFFF" stroke="#000000" stroke-miterlimit="10" d="M637.4,433.5c-5,1.6-11.8,6.5-15.8,9.7c-3.3-6.5-6.5-12.8-8.7-17.7
	c-3.4-7.4-5.3-17.2-6.5-25.5c6.2,5,16.3,13,26.5,13.6c-1.2,1.8-2.3,3.8-1.9,4.7c0.7,1.6,3.9,9.4,3.9,9.4L637.4,433.5z"/>
<path fill="#FFFFFF" stroke="#000000" stroke-miterlimit="10" d="M646.9,470.5c-4,0-7.7,1-10.8,2.2c-2.8-6.6-8.9-18.4-14.5-29.6
	c4-3.3,10.8-8.1,15.8-9.7l2.9,6.4c0,0,5.3-16.4,5.7-17.3c0.4-0.9-5.7-21.7-5.7-21.7s16.7-16.5,22.2-25c2,7.9,3.1,22,3.8,29.8
	l-19.6,21.8l-6.1,20.1l6.1,18C646.8,465.6,646.7,467.7,646.9,470.5z"/>
<path fill="#FFFFFF" stroke="#000000" stroke-miterlimit="10" d="M651.8,459.5l1-1.3c0,0-4.6-19.6-2.1-26.9
	c2.2-6.5,13.4-12.9,18.6-19.2c1.5,9.3,1.9,25.3,1.9,26.2C671.2,438.3,655,455.8,651.8,459.5z"/>
<path fill="#FFFFFF" stroke="#000000" stroke-miterlimit="10" d="M685.6,513.6c0-0.4,0-0.7,0-1c1.1-1,2.5-3.1,3.2-7.8
	c0.3-1.6-1.1-3.5-3.5-5.4v0c-7.7-6.2-25.9-13-32.6-14.8c-4-3-5.3-9.5-5.7-14c-0.2-2.9-0.2-5-0.2-5l4.5-5.5c0.1-0.1,0.3-0.3,0.5-0.5
	c3.3-3.7,19.4-21.2,19.4-21.2c0,0.8,0.8-0.9,1.8,2.3v0c-3.4,3.5-19,19.7-19.1,22c-0.2,2.5-2.1,11.9,2.8,15.3
	c4.9,3.3,24,8.8,32.7,22.5C691.6,509.7,687.8,512.8,685.6,513.6z"/>
<path fill="#FFFFFF" stroke="#000000" stroke-miterlimit="10" d="M652.6,484.6c-1.1-0.3-2-0.5-2.3-0.5c-1.1,0-2.3,1-3.4,2.4v0
	c-2.4,2.9-4.4,7.4-4.4,7.4s-2.7-10.2-5-17.6c-0.3-0.9-0.7-2.1-1.4-3.5c3.1-1.2,6.8-2.2,10.8-2.2
	C647.3,475.1,648.6,481.6,652.6,484.6z"/>
<path fill="#FFFFFF" stroke="#000000" stroke-miterlimit="10" d="M640.3,400.9c0,0,6.1,20.9,5.7,21.7c-0.4,0.9-5.7,17.3-5.7,17.3
	l-2.9-6.4l-2.6-5.9c0,0-3.2-7.8-3.9-9.4c-0.4-0.8,0.8-2.9,1.9-4.7c1.1-1.6,2.2-3,2.2-3s-6.1-9.1-4.8-24c0.6-7.6,4-16.4,7.2-23.3
	c3.1-6.6,6-11.3,6-11.3s5.7-8.4,7-8.4c0.5,0,1.6,2.6,2.8,6.6c-2.9,3.2-12.9,14.8-14.9,22.8c-2.3,9.5,0.9,22.1,0.9,22.1
	s12.8-9.6,18.7-24.1c2-2.4,3.6,0.1,4.8,4.9c0,0,0,0,0,0C657,384.4,640.3,400.9,640.3,400.9z"/>
<path fill="#FFFFFF" stroke="#000000" stroke-miterlimit="10" d="M528,597.3c-2.2,0.9-6.4,2.4-8.9,2.2c-3.6-0.2-18.5-5.2-24-3.3h0
	c-5.5,1.9-20.2,0-20.2,0s-7.1-12.1-21.9-26.8c-12-12-39.1-26.3-48.8-31.3l0-0.4l22.8,8.6l6.2-18.8l27.5,22.1l1.9,23.6
	c0,0,16.2,19.7,17.1,19c0.7-0.5,8.5-5.2,16.1-6.7c3.3-0.7,6.5-0.7,9.1,0.3c1.5,0.6,2.9,1.4,4.2,2.2c0.8,0.5,1.6,1.1,2.4,1.6
	c0.3,0.2,0.6,0.4,1,0.7c0.3,0.2,0.7,0.4,1,0.6c0.5,0.3,1,0.6,1.5,0.9c0.2,0.1,0.3,0.2,0.5,0.3c0.3,0.2,0.7,0.4,1,0.6
	c0.5,0.3,1,0.6,1.6,0.8c3,1.4,6.2,2.3,9.8,1.8C528,595.9,528,596.6,528,597.3z"/>
<path fill="#FFFFFF" stroke="#000000" stroke-miterlimit="10" d="M559.9,585.6c-2.2,0.3-4.2,0.5-4.4,0.6c-0.6,0.2-2.7,7.2-2.9,7.6
	c-0.1,0.3-6.8,1.6-10.8,2.3l-5.3-146.3l-2.1-3.4L529.6,595c-0.6,0.1-1.1,0.2-1.7,0.3c-3.6,0.4-6.8-0.4-9.8-1.8
	c-0.5-0.2-1-0.5-1.6-0.8c-0.3-0.2-0.7-0.4-1-0.6c-0.2-0.1-0.3-0.2-0.5-0.3c-0.5-0.3-1-0.6-1.5-0.9c-0.3-0.2-0.6-0.4-1-0.6
	c-0.3-0.2-0.6-0.4-1-0.7c-0.8-0.5-1.6-1.1-2.4-1.6c3.7-26.2,7-121,7.9-149.6c0.6,0,24.6-0.2,31-0.3L559.9,585.6z"/>
<path fill="#FFFFFF" stroke="#000000" stroke-miterlimit="10" d="M611.2,544.4c-8.5,16.1-30.1,42.2-30.6,43
	c-0.5,0.9-38.7,12.1-38.7,12.1l-0.1-3.4c4-0.7,10.7-2,10.8-2.3c0.1-0.3,2.3-7.4,2.9-7.6c0.2-0.1,2.2-0.4,4.4-0.6
	c3.3-0.4,7.3-0.9,7.5-0.9c0.3-0.1,4.9,2,4.9,2s15.6-10.7,19.6-21.4c-1.2-5.7-1.4-19-1.4-19l15.7-23.4c0,0,1.6,6,3.1,9.7c0,0,0,0,0,0
	C609.7,535.7,610.4,539.8,611.2,544.4z"/>
<path fill="#FFFFFF" stroke="#000000" stroke-miterlimit="10" d="M657.8,371c-5.9,14.4-18.7,24.1-18.7,24.1s-3.2-12.6-0.9-22.1
	c2-8,12-19.6,14.9-22.8C654.8,355.8,656.7,364,657.8,371z"/>
<path fill="#FFFFFF" stroke="#000000" stroke-miterlimit="10" d="M669.3,412.1c-5.2,6.3-16.4,12.8-18.6,19.2
	c-2.5,7.3,2.1,26.9,2.1,26.9l-1,1.3c-0.2,0.2-0.4,0.4-0.5,0.5l-4.5,5.5l-6.1-18l6.1-20.1l19.6-21.8
	C667.6,404.7,668.6,407.7,669.3,412.1z"/>
<path fill="#FFFFFF" stroke="#000000" stroke-miterlimit="10" d="M689.4,500.4c-8.7-13.7-27.8-19.2-32.7-22.5
	c-5-3.4-3-12.8-2.8-15.3c0.2-2.2,15.7-18.4,19.1-22c0.7,2,1.5,5.7,2.3,13c2.1,19.2,9.1,29.6,13.6,44.6
	C689.1,499,689.2,499.7,689.4,500.4z"/>
<path fill="#FFFFFF" stroke="#000000" stroke-miterlimit="10" d="M685.7,529.5c-3.4,1.3-8.4,3.6-11.4,5c-1.5,0.7-2.5,1.2-2.5,1.2
	s-7.9,0-11.4-1.4c-1.5-1.7-5.4-1.4-8.1-0.9c-0.1-0.4-0.2-0.9-0.3-1.3c-1.5-5.8-3.8-14.7-5.2-20.4c-1.6-6.7-4.3-17.9-4.3-17.9
	s2-4.5,4.4-7.4c3,6.8,9.8,21,16.6,25.3c0.1,6.2-5.8,21.6,0,22.8c5.8,1.2,10.6-2.4,14.4-8.5s1.9-15.7,1.9-15.7l4-8l1.5-3
	c0,0.3,0.2,6,0.3,13.2c-0.8,0.7-1.3,0.9-1.4,1.2c0,0.1,0.6,0.2,1.4-0.1C685.7,518.7,685.7,524.5,685.7,529.5z"/>
<path fill="#FFFFFF" stroke="#000000" stroke-miterlimit="10" d="M685.7,529.5c0,4.5-0.2,8.4-0.4,10.5c-1,8.3-9.1,18.8-9.1,18.8
	s-9.5,2.8-10.7,2.8c-0.8,0-4.6,0-8.6-0.6c0,0,0,0,0,0c-7.3-2.6,6.5-9.3,6.5-9.3s4-8.5,10.2-10c-0.6-0.6,0.1-4.6,0.6-7.2
	C677.2,533.1,682.3,530.8,685.7,529.5z"/>
<path fill="#FFFFFF" stroke="#000000" stroke-miterlimit="10" d="M655.8,545.5c-3.9,1.2-9.1,3.1-9.1,3.1s-14-3.8-7.2,4.4
	c-3.2-3.2-6.9-6.9-2.5-8.2c6.7-1.9,10.2,0,10.9,0s1.6-8.3,4.7-10c-0.1-0.4-0.2-0.8-0.4-1.3c2.7-0.5,6.6-0.8,8.1,0.9
	C660.3,534.4,654.5,541.5,655.8,545.5z"/>
<path fill="#FFFFFF" stroke="#000000" stroke-miterlimit="10" d="M673.6,541.8c-6.2,1.4-10.2,10-10.2,10s-13.8,6.7-6.5,9.3
	c-2.3-0.3-4.6-0.9-6.5-1.7c-5.5-2.4-7.1,0.2-7.6-2.4c-0.2-0.9-1.6-2.3-3.2-3.9c-6.8-8.2,7.2-4.4,7.2-4.4s5.2-1.9,9.1-3.1
	c-1.4-4,4.5-11.2,4.5-11.2c3.5,1.4,11.4,1.4,11.4,1.4s1-0.5,2.5-1.2C673.7,537.2,673,541.1,673.6,541.8z"/>
<path fill="#FFFFFF" stroke="#000000" stroke-miterlimit="10" d="M685.3,499.4L685.3,499.4l-1.5,3l-4,8c0,0,1.9,9.5-1.9,15.7
	s-8.5,9.7-14.4,8.5c-5.8-1.2,0.1-16.6,0-22.8c-6.9-4.3-13.7-18.4-16.6-25.3v0c1.1-1.4,2.3-2.4,3.4-2.4c0.4,0,1.2,0.2,2.3,0.5
	C659.4,486.4,677.5,493.2,685.3,499.4z"/>
<path fill="#FFFFFF" stroke="#000000" stroke-miterlimit="10" d="M441.8,693.8c-3.6-1.4-11-14.3-12.5-15c-1.4-0.7-2.9,0.4-13.2,6.8
	c-7.7,4.8-18.7,4.4-23.9,3.9c-2.2,6.5-5,16.5-6.8,22.7c10.5,5.6,34.5,2.2,41.4-2.8c13.9,16.8,25.7,15.7,25.7,15.7l0-0.1l3.9-20.6
	C456.4,704.4,445.4,695.1,441.8,693.8z M421.2,700.6c0,0-7,4.8-16.3,6c-9.3,1.2-13.3,0.3-12.7-1.3c0.6-1.5,3.9-12.5,3.9-12.5
	s20.7,3.1,26.7-3.8L421.2,700.6z M449.6,719.5c-4.5-0.7-18.1-12.4-18.1-12.4l2.1-13.4l17,13.4C450.7,707.1,450.9,709.8,449.6,719.5z
	"/>
<path fill="#FFFFFF" stroke="#000000" stroke-miterlimit="10" d="M422.9,689.1l-1.7,11.5c0,0-7,4.8-16.3,6
	c-9.3,1.2-13.3,0.3-12.7-1.3c0.6-1.5,3.9-12.5,3.9-12.5S416.8,696,422.9,689.1z"/>
<path fill="#FFFFFF" stroke="#000000" stroke-miterlimit="10" d="M449.6,719.5c-4.5-0.7-18.1-12.4-18.1-12.4l2.1-13.4l17,13.4
	C450.7,707.1,450.9,709.8,449.6,719.5z"/>
<path fill="#FFFFFF" stroke="#000000" stroke-miterlimit="10" d="M444.5,751c0,0-3.8,35.8-5.8,41c-2,5.2-14.2,14.7-14.2,14.7
	l-0.9,2.5l0,0.1c-0.3,0.7-1.5,3.2-3.5,6.5c-5.2,8.4-16,21.4-32,18.3c-15-2.9-26.2-25.7-32.2-41.3c0.3-0.7,0.6-1.3,1-1.7
	c-4.4-16,6.7-25.3,6.7-25.3c-1.2,0,2.5-19.6,7.5-21.7c5-2.1,12.1-25,12.7-26c0.1-0.3,0.8-2.5,1.7-5.8c-0.2,1.2-7.8,51.6,17.5,56.5
	C428.6,773.7,444.5,751,444.5,751z"/>
<path fill="#FFFFFF" stroke="#000000" stroke-miterlimit="10" d="M606.5,696.6c-1.3,4.3-22.1,17.8-24.4,16.5
	c-2.3-1.3-3.4-11.5-2.8-11.6c10.5-1.7,25.1-17.5,25.1-17.5S607.8,692.3,606.5,696.6z"/>
<path fill="#FFFFFF" stroke="#000000" stroke-miterlimit="10" d="M622.9,914c-4.1,5.5-11.3,2.2-11.3,2.2s-8.1,9-20.8,13.8
	c-7.9,3-17.1-5.7-22.8-12.6v0c1.7-6,1-22.2-0.6-24c-1.7-1.9,0.2-17.1-1.4-27.6c-1.7-10.5-6.7-27.3-11.9-39.2
	c-4.9-11.2-1-40.4-1.1-46.1c2.5,1.3,6.5,3.4,11.3,5.8c14.2,7.2,35.1,17.1,42.3,17.4c6.4-10.2,10.1-16.6,12.1-20.4
	c0.4,0.6,0.9,1.4,1.5,2.4c0.4,0.8,0.5,4.3,0.4,9.5c-3.7,7.5-9.5,18.1-10.6,19.2c-1.1,1.1-31.8-10.6-45-15.7
	c0.7,11.6,1.8,25.6,3.6,31.1c0.1,0.4,0.3,0.8,0.4,1c0.8,1.7,1.5,4.2,2.1,7.1c1.7,7.5,3,18.2,4.1,26.7v0c0.5,3.8,1,7.2,1.3,9.7
	c0,0.1,0,0.1,0,0.2c1.7,10.2,4.7,27.2,4.7,27.2s27.7,13.4,40.4,1.8c0.8,3.8,1.3,6.2,1.2,6.5c-0.2,0.7-1,2.6-1,2.6
	S622.2,913.2,622.9,914z"/>
<path fill="#FFFFFF" stroke="#000000" stroke-miterlimit="10" d="M620.5,795.3c-0.2,6.4-0.6,15.3-1.2,25c-0.2,0.4-6.4,14.4-13.2,23
	c-5.4,6.9-28-7-37.7-13.4c-1.8-5.4-2.9-19.4-3.6-31.1c13.3,5.1,43.9,16.8,45,15.7C611.1,813.4,616.8,802.8,620.5,795.3z"/>
<path fill="#FFFFFF" stroke="#000000" stroke-miterlimit="10" d="M511.1,407.5c-0.2,0-0.3,2.5-0.3,6.2c-0.1,5.7-0.2,14-0.4,19.2
	c-0.1,2.7-0.2,4.5-0.4,4.7c-0.7,0.9-5.1,0-5.1,0l-1.1-4.3l3.7,0.9c0,0,0-0.5,0.1-1.3c0.2-3.7,0.8-14.3,0.8-18.9c0-1.3,0-2.1-0.1-2.2
	c-0.5-0.6-3.3-1.7-5.9-1.9c-0.3,0-0.6,0-0.8,0l1.6-4.1C503.1,405.7,510.6,407.4,511.1,407.5z"/>
<path fill="#FFFFFF" stroke="#000000" stroke-miterlimit="10" d="M548.6,404.7l-13.5,0.4l-7.3,0.2l-9.8,0.3l-3,0.1v1.1
	c0,0.2,0.2,2.6,0.4,6c0.4,5.8,1,14.4,1.4,20c0.2,0,0.4,0,0.6,0c0,1.4-0.1,3.2-0.2,5.5c0.6,0,24.6-0.2,31-0.3l-0.6-8
	c0.6,0,1.4,0,2.2,0v-25.3L548.6,404.7z M533.8,431.9c-5.5,0-10-4.5-10-10s4.5-10,10-10s10,4.5,10,10S539.3,431.9,533.8,431.9z"/>
<circle fill="#FFFFFF" stroke="#000000" stroke-miterlimit="10" cx="533.8" cy="421.9" r="10"/>
<path fill="#FFFFFF" stroke="#000000" stroke-miterlimit="10" d="M516.8,432.8c-2.2,0.1-4.3,0.1-6.4,0.1c0.2-5.2,0.2-13.5,0.4-19.2
	c1.6-0.2,3.2-0.5,4.7-0.9C515.8,418.6,516.4,427.2,516.8,432.8z"/>
<path fill="#FFFFFF" stroke="#000000" stroke-miterlimit="10" d="M548.6,294v110.7l-13.5,0.4l0.9-100.6c3.1-2.5,6.2-5.1,9.3-7.7
	C546.4,295.9,547.5,295,548.6,294z"/>
<path fill="#FFFFFF" stroke="#000000" stroke-miterlimit="10" d="M536,304.5l-0.9,100.6l-7.3,0.2c-0.2-15.2,0.7-75.6,1-94.8
	C531.1,308.6,533.5,306.6,536,304.5z"/>
<path fill="#FFFFFF" stroke="#000000" stroke-miterlimit="10" d="M385.6,375.7l-7.1,31.7c-6.2,4.6-8.8,4.6-10.1,3.4l0.2-2.6
	l-4.5-7.3c1.9,0.9,3.3,1.4,3.3,1.4s-1.9-21.1-4.1-30.1c-1.4-5.7-4.2-8.7-7.1-11.1l2.3-12.4C363.3,357.6,373.8,373.9,385.6,375.7z"/>
<path fill="#FFFFFF" stroke="#000000" stroke-miterlimit="10" d="M507.6,267.8c-10.3-18-19.7-24.2-19.7-24.2
	c1.2-4.5,3.2-11.4,4.6-17.3C496.6,230.1,502.6,240.3,507.6,267.8z"/>
<path fill="#FFFFFF" stroke="#000000" stroke-miterlimit="10" d="M460.7,246.5c0,0-8.4,7.1-8.7,7.2c-0.3,0-10.3-11.1-14.3-15.5
	c1.8-2.6,4.4-6,7.5-9.3L460.7,246.5z"/>
<path fill="#FFFFFF" stroke="#000000" stroke-miterlimit="10" d="M475.3,236l-9.8,7.7l-16.1-19c1.9-1.7,3.9-3.2,5.9-4.5
	c1.4-0.9,2.9-1.8,4.4-2.6L475.3,236z"/>
<path fill="#FFFFFF" stroke="#000000" stroke-miterlimit="10" d="M493.9,217.5c0,1.9-0.5,5.1-1.4,8.8c-1.4,5.8-3.4,12.8-4.6,17.3
	c-8.2,0-14.5,3.1-21.7,7.6c-3.4,2.1-9.8,8.5-15.7,14.7c-6.7,7-12.7,13.8-12.7,13.8s-0.7-3.1-5.7-8.9c-2.8-3.2-6.8-7.3-12.9-12.2
	c-9-7.2-18.1-20.5-24.7-31.3c-3.6-5.9-6.4-11-8-14.1c14.1,14.1,34.3,31.7,45.7,38c1.4-6,2.7-8.7,3-9.2c0-0.1,0.1-0.1,0.1-0.1
	c0.5-0.7,1.3-2,2.5-3.7c4,4.4,14,15.5,14.3,15.5c0.2-0.1,8.7-7.2,8.7-7.2l-15.5-17.6c1.3-1.4,2.7-2.8,4.2-4.2l16.1,19l9.8-7.7
	l-15.5-18.5c2.9-1.7,6-3.3,8.9-4.7c4.4-2.2,8.5-4,11.5-5.1C484.7,212,489.4,215.5,493.9,217.5z"/>
<path fill="#FFFFFF" stroke="#000000" stroke-miterlimit="10" d="M432.1,270.8c-1.6,6.7-4.5,17.8-8.5,26.9c-1.7,4-4.9,10.2-8.6,17.2
	v0c-9.5,17.9-22.5,40.5-22.5,40.5l-6.8,20l-0.1,0.3c-11.8-1.8-22.3-18.2-27.2-27l4.6-25c0,0,11.4-9.4,14.4-15.5
	c3-6.1,3.7-26.7,4.5-45.3c0.7-15.7,9.8-31.2,12.6-35.6c6.6,10.8,15.7,24,24.7,31.3C425.2,263.5,429.3,267.6,432.1,270.8z"/>
<path fill="#FFFFFF" stroke="#000000" stroke-miterlimit="10" d="M479.7,489.2l-0.4,0.5l-7.6-1.4c0,0-0.2,0.3-0.7,0.8l-42.3-68.7
	l-3.5-5.7l-14.7-23.9l-0.2-0.4l6.2-1.1l10.3,16.3v0l12.1,19.1L479.7,489.2z"/>
<path fill="#FFFFFF" stroke="#000000" stroke-miterlimit="10" d="M479.3,489.7l-15.7,16.6c0,0-5-4.9-4-4.9c0.8,0,9.1-9.5,11.5-12.3
	c0.4-0.5,0.7-0.8,0.7-0.8L479.3,489.7z"/>
<path fill="#FFFFFF" stroke="#000000" stroke-miterlimit="10" d="M471,489.1c-2.5,2.8-10.7,12.3-11.5,12.3L421,437.5l-19.2-31.8
	l8.8-14.9l14.7,23.9l3.5,5.7L471,489.1z"/>
<path fill="#FFFFFF" stroke="#000000" stroke-miterlimit="10" d="M588.5,309.7c-5.2,3.3-11.3,6.2-16.3,8.4
	c4.7-16.1,9.5-33,11.2-38.9l4,3.7c0,0,0.1-0.1,0.2-0.3C587.8,288.5,588.2,298.7,588.5,309.7z"/>
<path fill="#FFFFFF" stroke="#000000" stroke-miterlimit="10" d="M590,252.4c-1.3,1.9-2.8,4.1-4.2,6c-2.5-4.8-7.7-14-12.3-19
	c1.5-0.6,3-1.1,4.5-1.6C580.2,239.7,586.2,245.5,590,252.4z"/>
<path fill="#FFFFFF" stroke="#000000" stroke-miterlimit="10" d="M611.9,247.4c-2.9,10.4-10.3,20.4-14.3,23.4
	c-4.1,3.2-8.9,10.2-9.9,11.8c-0.1,0.2-0.2,0.3-0.2,0.3l-4-3.7l-8-7.5c7.3-6.1,12-10.1,12-10.1s-0.6-1.2-1.6-3.2
	c1.4-1.9,2.9-4.1,4.2-6c0.5,0.9,1,1.8,1.4,2.7c0,0.5,1.1,7.8,1.1,7.8S603.8,254.6,611.9,247.4z"/>
<path fill="#FFFFFF" stroke="#000000" stroke-miterlimit="10" d="M583.4,279.2c-1.7,5.9-6.5,22.8-11.2,38.9
	c-2.4,8.3-4.8,16.4-6.7,22.6c-3.6,11.9-11,24.9-16.9,34.1V294c2.9-2.4,5.7-4.7,8.5-7c6.8-5.7,13.2-11,18.3-15.3L583.4,279.2z"/>
<path fill="#FFFFFF" stroke="#000000" stroke-miterlimit="10" d="M378.6,437.7c-3.9-4.2-9.1-8.8-11.8-10.3l0.4-3.5l1-13
	c1.3,1.2,3.9,1.2,10.1-3.4l-1,4.7C377.4,412.1,379.2,426.7,378.6,437.7z"/>
<path fill="#FFFFFF" stroke="#000000" stroke-miterlimit="10" d="M508,270.3c-5.9,3.4-11.1,6.4-15.1,8.7c0,0,0,0,0,0
	c-2.1,1.2-3.8,2.2-5.1,3c-3.2,1.9-5.9,3.8-8.1,5.4c-7.2,5.5-9.4,9.6-10.9,11.9c-0.5,0.8-1.5,2.6-2.5,4.6c-4-11.2-11.6-28.6-15.9-38
	c5.9-6.2,12.3-12.6,15.7-14.7c7.2-4.5,13.5-7.6,21.7-7.6c0,0,9.5,6.1,19.7,24.2C507.8,268.6,507.9,269.4,508,270.3z"/>
<path fill="#FFFFFF" stroke="#000000" stroke-miterlimit="10" d="M534.5,90.7c-3.1,1.6-16.4,1.9-19.4-1.1
	C514.2,88.6,525.4,81.1,534.5,90.7z"/>
<path fill="#FFFFFF" stroke="#000000" stroke-miterlimit="10" d="M478.1,88.6c5.5-7.6,17.8-4,20.2-2.2
	C500.6,89.6,482.4,97.3,478.1,88.6z"/>
<path fill="#FFFFFF" stroke="#000000" stroke-miterlimit="10" d="M780.4,644.1l-36.4,6.3c0,0-96.2-23.2-157-38.6
	c-54.7-13.9-172-54.8-194.8-62.8l4.5-12.4C446.8,558.9,780.4,644.1,780.4,644.1z"/>
</svg>
