<?xml version="1.0" encoding="utf-8"?>
<!-- Generator: Adobe Illustrator 25.2.0, SVG Export Plug-In . SVG Version: 6.00 Build 0)  -->
<svg version="1.1" baseProfile="tiny" id="Layer_1" xmlns="http://www.w3.org/2000/svg" xmlns:xlink="http://www.w3.org/1999/xlink"
	 x="0px" y="0px" viewBox="0 0 1000 1000" overflow="visible" xml:space="preserve">
<path fill="#FFFFFF" stroke="#000000" stroke-miterlimit="10" d="M482.57,157.93c-3.53,6.96-7.09,15.68-10.13,26.44
	c-4.91-5.19-11.42-10.09-19.76-12.66C463.52,162.43,474.96,159.1,482.57,157.93z"/>
<path fill="#FFFFFF" stroke="#000000" stroke-miterlimit="10" d="M484.75,203.35c0,0-0.13,0.58-0.41,1.61
	c-0.4,1.5-1.11,3.95-2.15,6.97c-3.43,9.86-10.45,25.72-22.22,33.72c-0.65,0.44-1.33,0.88-2.01,1.3
	c-10.01,6.21-23.07,10.26-32.67,12.63c-7.64,1.88-13.08,2.7-13.08,2.7s-0.04-0.05-0.12-0.15c-0.99-1.2-7.92-9.3-17.69-13.29
	c-0.08-0.04-0.17-0.08-0.25-0.11c-14.73-22.57,6.83-75.86,41.94-78.73c6.18-0.51,11.69,0.2,16.58,1.71h0.01
	c8.34,2.57,14.85,7.47,19.76,12.66C481.03,193.42,484.75,203.35,484.75,203.35z"/>
<path fill="#FFFFFF" stroke="#000000" stroke-miterlimit="10" d="M568.59,205.13c-9.56,1.53-17.45,6.14-20.83,8.38
	c-4.55-3.49-10.03-6.43-16.5-8.5c-20.79-6.66-36.92-3.76-46.92-0.05c0.28-1.03,0.41-1.61,0.41-1.61s-3.72-9.93-12.31-18.98
	c3.04-10.76,6.6-19.48,10.13-26.44c2.64-5.22,5.28-9.45,7.65-12.82h0.01c1.82,0.65,3.7,1.48,5.6,2.65
	c0.42,0.67,13.95,22.17,22.6,28.02c4.79,3.24,10.57,5.42,14.84,6.73c0.86,1.49,1.85,2.69,2.98,3.49c3.59,2.53,8.64,2.91,14.12,1.69
	L568.59,205.13z"/>
<path fill="#FFFFFF" stroke="#000000" stroke-miterlimit="10" d="M558.38,261.92c-0.24,0.13-0.49,0.25-0.74,0.36
	c-5.89,2.61-16.44,4.86-27.99,6.35c-17.82,2.31-38.02,2.8-47.1,0.06c-7.15-2.15-13.55-7.95-18.28-13.42
	c-2.71-3.13-4.87-6.15-6.31-8.32c0.68-0.42,1.36-0.86,2.01-1.3c11.77-8,18.79-23.86,22.22-33.72c1.04-3.02,1.75-5.47,2.15-6.97
	c10-3.71,26.13-6.61,46.92,0.05c6.47,2.07,11.95,5.01,16.5,8.5c1.11,0.83,2.17,1.71,3.17,2.63
	C568.46,231.99,569.27,256.03,558.38,261.92z"/>
<path fill="#FFFFFF" stroke="#000000" stroke-miterlimit="10" d="M602.25,269.62c-2.35,3.89-5.64,6.09-7.78,6.44
	c-1.61,0.26-4.16,0.05-7.44-0.73c-7.04-1.63-17.38-5.83-28.65-13.41c10.89-5.89,10.08-29.93-7.45-45.78
	c12.04-0.6,30.59,1.63,43.54,17.86C607.68,250.55,606.43,262.73,602.25,269.62z"/>
<path fill="#FFFFFF" stroke="#000000" stroke-miterlimit="10" d="M614.53,275.53v0.01c-2.19,2.99-4.87,5.69-7.95,8.49
	c-0.52-5.36-2.64-10.8-4.33-14.41c4.18-6.89,5.43-19.07-7.78-35.62c-12.95-16.23-31.5-18.46-43.54-17.86c-1-0.92-2.06-1.8-3.17-2.63
	c3.38-2.24,11.27-6.85,20.83-8.38c4.91-0.79,10.26-0.76,15.66,0.82c19.49,5.7,36.36,26.39,36.83,44.69
	C621.39,262.28,618.96,269.49,614.53,275.53z"/>
<path fill="#FFFFFF" stroke="#000000" stroke-miterlimit="10" d="M615.14,328.34c-0.92,3.95-2.69,7.35-4.89,10.25
	c0,0.01,0,0.01,0,0.01c-4.44,5.83-10.64,9.64-15.28,11.88c-0.33-5.42-0.6-9.83-0.44-12.28c0.42-6.62,2.57-22.04,3.4-27.91
	c0.15-0.1,0.31-0.22,0.47-0.34c3.73-3.01,7.19-11.92,8.19-21.53c0.15-1.43,0.13-2.91-0.01-4.39c3.08-2.8,5.76-5.5,7.95-8.49
	C616.01,289.15,618.22,315.19,615.14,328.34z"/>
<path fill="#FFFFFF" stroke="#000000" stroke-miterlimit="10" d="M625.6,382.1v0.01c-0.15,0.21-0.3,0.43-0.47,0.65
	c-2.69,3.75-6.71,8.19-11.89,10.75c-7.29,3.6-13.13,2.07-15.89,0.89c-0.47-2.54-1-4.63-1.53-6.32c-0.34-1.12-0.69-2.07-1.02-2.87
	c1.55-11.03,0.77-24.64,0.17-34.73c4.64-2.24,10.84-6.05,15.28-11.88c0.83,4.99,2.42,12.15,5.13,16.06
	C618.4,358.99,623.36,370.65,625.6,382.1z"/>
<path fill="#FFFFFF" stroke="#000000" stroke-miterlimit="10" d="M606.59,288.42c-1,9.61-4.46,18.52-8.19,21.53
	c-0.12-0.1-0.25-0.2-0.37-0.3c-4.18-3.39-8.13-8.66-10.67-12.43c0.35-6.48,0-15.73-0.33-21.89c3.28,0.78,5.83,0.99,7.44,0.73
	c2.14-0.35,5.43-2.55,7.78-6.44c1.69,3.61,3.81,9.05,4.33,14.41C606.72,285.51,606.74,286.99,606.59,288.42z"/>
<path fill="#FFFFFF" stroke="#000000" stroke-miterlimit="10" d="M464.27,255.27c-1.76,11.94-7.36,40.75-21.94,56.67
	c-0.59,0.65-1.18,1.28-1.76,1.9c-3.88,4.16-7.39,7.63-10.51,10.52c-11.04,10.24-17.13,13.19-17.13,13.19
	c-5.59-7.07-9.51-39.03-5.83-46.46c2.41-4.85,11.89-20.93,18.19-31.51c9.6-2.37,22.66-6.42,32.67-12.63
	C459.4,249.12,461.56,252.14,464.27,255.27z"/>
<path fill="#FFFFFF" stroke="#000000" stroke-miterlimit="10" d="M412.09,262.13c-7.18,9.29-20.72,25.04-26.02,19.4
	c0.01-0.29,0.02-0.58,0.04-0.87c0.65-14.56,5.44-26.13,8.29-31.82C404.17,252.83,411.1,260.93,412.09,262.13z"/>
<path fill="#FFFFFF" stroke="#000000" stroke-miterlimit="10" d="M420.64,388.93c-0.39-12.33-11.75-8.55-19.24-12.35
	c-7.48-3.81-9.62-12.12-15.33-19.25c-5.7-7.13-14.97-5.47-21.86,1.9c-4.52,4.84-10.78,13.25-14.82,18.67
	c1.61-28.53,15.74-47.24,21.48-50.99c-1-23.97,8.84-38.84,15.24-46.25c-0.02,0.29-0.03,0.58-0.04,0.87
	c5.3,5.64,18.84-10.11,26.02-19.4c0.08,0.1,0.12,0.15,0.12,0.15s5.44-0.82,13.08-2.7c-6.3,10.58-15.78,26.66-18.19,31.51
	c-3.68,7.43,0.24,39.39,5.83,46.46c0,0,6.09-2.95,17.13-13.19c-3.93,6.48-8.2,14.81-9.06,21.56
	C419.86,354.9,422.64,370.73,420.64,388.93z"/>
<path fill="#FFFFFF" stroke="#000000" stroke-miterlimit="10" d="M409.9,442.01c-0.04-0.72-0.06-1.46-0.06-2.23
	c0-14.02,11.18-38.49,10.8-50.84v-0.01c-0.39-12.33-11.75-8.55-19.24-12.35c-7.48-3.81-9.62-12.12-15.33-19.25
	c-5.7-7.13-14.97-5.47-21.86,1.9c-4.52,4.84-10.78,13.25-14.82,18.67v0.01c-2.12,2.83-3.63,4.84-3.95,5.08
	c0,0-5.23,26.14,9.98,56.08c6.26,12.32,9.88,22.19,11.97,29.53v0.01c3,10.5,2.88,15.85,2.88,15.85s0.84-0.87,2.26-2.18
	c4.72-4.37,15.9-13.65,24.47-12.56c11.17,1.43,15.69,2.27,15.69,2.27s0.13-0.1,0.34-0.29c1.03-0.9,4.05-3.92,3.46-7.68
	C415.82,459.76,410.47,454.42,409.9,442.01z M389.16,408.18c-0.68,16.94-8.59,30.36-12.59,30.3c-7.61-0.12-19.49-13.76-24.48-33.44
	c-4.99-19.67,3.09-43.32,22.58-34.88C383.91,374.16,389.78,392.9,389.16,408.18z"/>
<path fill="#FFFFFF" stroke="#000000" stroke-miterlimit="10" d="M532.83,289.19c-6.9,1.24-16.94,3.7-29.73,8.61
	c-26.02,9.98-33.68,27.98-33.68,27.98c-3.55,1.93-7.13,2.18-10.57,1.38c-7.29-1.69-13.92-8.12-18.28-13.32
	c0.58-0.62,1.17-1.25,1.76-1.9c14.58-15.92,20.18-44.73,21.94-56.67c4.73,5.47,11.13,11.27,18.28,13.42
	c9.08,2.74,29.28,2.25,47.1-0.06C529.82,273.87,530.54,281.46,532.83,289.19z"/>
<path fill="#FFFFFF" stroke="#000000" stroke-miterlimit="10" d="M587.36,297.22c-0.18,3.32-0.56,5.91-1.21,7
	c-2.73,4.51-19.01,16.28-19.01,16.28s-28.16-13.43-33.38-28.4c-0.34-0.97-0.65-1.94-0.93-2.91c-2.29-7.73-3.01-15.32-3.18-20.56
	c11.55-1.49,22.1-3.74,27.99-6.35c0.25-0.11,0.5-0.23,0.74-0.36c11.27,7.58,21.61,11.78,28.65,13.41
	C587.36,281.49,587.71,290.74,587.36,297.22z"/>
<path fill="#FFFFFF" stroke="#000000" stroke-miterlimit="10" d="M594.53,338.2c-0.16,2.45,0.11,6.86,0.44,12.28
	c0.6,10.09,1.38,23.7-0.17,34.73c-0.17,1.23-0.37,2.42-0.6,3.57c-0.29,0.14-0.6,0.29-0.92,0.45c-8.02,4.1-13.19,43.31-36.89,42.24
	s-26.38-29.77-37.25-43.84c-0.09-0.12-0.19-0.24-0.29-0.36c-8.24-10.04-28.52-9.15-38.58-7.98c-0.28,0.03-0.56,0.06-0.82,0.09
	c-2.95-9.97-2.92-18.6-2.49-23.84c-10.42-5.84-15.77-19.96-18.11-28.38c3.44,0.8,7.02,0.55,10.57-1.38c0,0,7.66-18,33.68-27.98
	c12.79-4.91,22.83-7.37,29.73-8.61c0.28,0.97,0.59,1.94,0.93,2.91c5.22,14.97,33.38,28.4,33.38,28.4s16.28-11.77,19.01-16.28
	c0.65-1.09,1.03-3.68,1.21-7c2.54,3.77,6.49,9.04,10.67,12.43c-0.03,0.2-0.06,0.41-0.1,0.64
	C597.1,316.16,594.95,331.58,594.53,338.2z"/>
<path fill="#FFFFFF" stroke="#000000" stroke-miterlimit="10" d="M615.14,567.15c-0.45,2.11-0.96,4.15-1.52,6.13
	c-6.1,21.83-17.49,35.22-17.49,35.22s-21.15-13.31-19.01-60.6c1.93-42.58,10.98-63.78,21.01-69.64c0.06,0.05,0.13,0.09,0.19,0.13
	c-0.03,1.16-0.05,1.79-0.05,1.79s11.43,31.48,15.93,58.72C616,549.74,616.7,559.91,615.14,567.15z"/>
<path fill="#FFFFFF" stroke="#000000" stroke-miterlimit="10" d="M616,616.1c-1.08,8.03-5.34,15.77-10.11,22.21
	c-0.11,0.14-0.21,0.29-0.32,0.43c-6.24-0.83-7.79-4.56-11.58-6.24c-4.12-1.83-11.55,9.8-19.11,11.7c-0.28,0.08-0.57,0.14-0.85,0.18
	c-7.84,1.19-16.63-11.88-22.81-27.57c-6.18-15.68,7.37-68.19,7.84-76.27c0.3-5.04-1.8-20.7-3.43-32.7
	c3.59-2.53,6.99-5.99,9.85-10.68c12.43-20.39,18.33-33.67,33.53-49.87c-0.21,13.67-0.54,26.09-0.68,30.84
	c-0.07,0.04-0.13,0.08-0.2,0.13c-10.03,5.86-19.08,27.06-21.01,69.64c-2.14,47.29,19.01,60.6,19.01,60.6s11.39-13.39,17.49-35.22
	C615.46,584.24,617.81,602.72,616,616.1z"/>
<path fill="#FFFFFF" stroke="#000000" stroke-miterlimit="10" d="M571.32,711.44c-6.47,5.8-13.61,11.61-20.81,13.49
	c-11.56,3.02-20.99-4.07-25-7.83c0.23-7.36,0.48-14.67,0.76-20.68c0.61-13.41,7.33-21.52,11.91-27.96
	c8.12,3.69,19.32,10.46,25.6,21.49C568.3,697.88,570.4,705.33,571.32,711.44z"/>
<path fill="#FFFFFF" stroke="#000000" stroke-miterlimit="10" d="M616.09,750.83c-0.19,3.37-0.53,6.69-0.99,9.9
	c-0.32,2.29-0.7,4.52-1.14,6.67c0,0.01,0,0.01,0,0.01c-3.64,8.33-7.58,13.39-11.3,15.64c-4.35,2.63-8.41,1.4-11.34-2.99
	c-6.06-9.09-6.06-51.86,4.28-58.63c3.8-2.49,7.61-2.91,10.89-2.44c2.22,0.31,4.2,1.03,5.79,1.79
	C614.09,725.33,616.96,735.25,616.09,750.83z"/>
<path fill="#FFFFFF" stroke="#000000" stroke-miterlimit="10" d="M475.68,728.8c-4.72-10.27-13.81-16.23-13.81-16.23
	s2.97-8.66-3.67-15.49c-2.36-2.44-5.94-4.64-11.3-6.14c-7.38-2.06-13.76-0.71-18.91,1.85c-9.12,4.54-14.36,12.88-14.36,12.88
	s-19.24-2.63-24.54,0c-5.31,2.64-7.78,6.18-7.3,15.45c0.19,3.83,0.02,21.11-1.14,40.71c-0.01,0.01-0.01,0.02-0.01,0.04
	c-0.35,5.96-0.8,12.13-1.36,18.2c-0.01,0.15-0.03,0.31-0.04,0.46c-1.62,17.34-4.14,33.8-7.99,42.03c-0.01,0.01-0.01,0.03-0.02,0.04
	c-0.33,0.72-0.68,1.38-1.04,1.97c-0.76,1.25-1.56,2.18-2.42,2.77c-11.1,7.61-8.51,15.21-7.6,17.12v0.01
	c0.13,0.29,0.23,0.45,0.23,0.45s2.61-1.16,6.62-2.37c6.26-1.9,15.96-3.93,24.51-1.9c13.88,3.29,23.57,16.37,29.52,18.23
	c0.06,0.03,0.12,0.04,0.18,0.06c5.94,1.67,2.85-4.99,5.71-12.59c1.42-3.8,3.15-9.61,6.58-17.41c3.44-7.81,8.61-17.62,16.94-29.4
	c2.82-3.99,5.48-8.4,7.95-12.97c12.14-22.42,19.85-48.82,19.85-48.82C477.86,734.49,476.92,731.49,475.68,728.8z M447.13,757.42
	c-8.55,21.38-19.96,39.92-35.64,34.75c-15.68-5.17-14.61-40.46-10.16-55.6c4.46-15.15,14.97-33.51,35.64-27.45
	C453.21,713.88,455.69,736.03,447.13,757.42z"/>
<path fill="#FFFFFF" stroke="#000000" stroke-miterlimit="10" d="M436.98,709.13c-20.67-6.06-31.18,12.3-35.64,27.45
	c-4.45,15.14-5.52,50.43,10.16,55.6c15.68,5.17,27.09-13.37,35.64-34.75C455.7,736.04,453.22,713.89,436.98,709.13z M440.73,756.71
	c-9.27,27.09-21.03,30.48-27.09,28.7c-6.06-1.78-14.07-22.78-9.09-44.56c4.98-21.78,18.18-29.05,29.05-25.48
	C440.88,717.76,449.99,729.63,440.73,756.71z"/>
<path fill="#FFFFFF" stroke="#000000" stroke-miterlimit="10" d="M440.73,756.71c-9.27,27.09-21.03,30.48-27.09,28.7
	c-6.06-1.78-14.07-22.78-9.09-44.56c4.98-21.78,18.18-29.05,29.05-25.48C440.88,717.76,449.99,729.63,440.73,756.71z"/>
<path fill="#FFFFFF" stroke="#000000" stroke-miterlimit="10" d="M599.01,447.28v0.01c-15.2,16.2-21.1,29.48-33.53,49.87
	c-2.86,4.69-6.26,8.15-9.85,10.68c-7.74,5.46-16.36,6.65-22.39,6.67c0.05-6.36-0.16-13.43-1.58-21.36
	c-1.99-11.02-6.32-23.7-15.61-38.4c-13.6-21.55-46.76-16.63-60.11-13.36c2.09-7.39,7.02-16.59,9.02-18.95
	c0.67-0.79,2.05-4.14,3.72-8.67v-0.01c2.16-5.88,4.82-13.75,7.1-20.65c3.5,11.1,7.49,24.65,10.57,28.14
	c4.38,4.95,21.56-19.22,32.5-33.98c0.1,0.12,0.2,0.24,0.29,0.36c10.87,14.07,13.55,42.77,37.25,43.84s28.87-38.14,36.89-42.24
	c0.32-0.16,0.63-0.31,0.92-0.45c0.59-0.28,1.13-0.51,1.62-0.7c0.53,1.69,1.06,3.78,1.53,6.32c0.78,4.18,1.42,9.61,1.63,16.57
	C599.28,420.68,599.2,434.52,599.01,447.28z"/>
<path fill="#FFFFFF" stroke="#000000" stroke-miterlimit="10" d="M603.9,671.38c-0.18,0.56-0.38,1.07-0.6,1.51
	c-0.02,0.04-0.04,0.07-0.06,0.11c-4.53,9.18-9.25,11.54-9.25,11.54c-5.94,0-10.93-4.52-17.02-17.83
	c-3.29-7.18-3.03-15.95-2.09-22.51c7.56-1.9,14.99-13.53,19.11-11.7c3.79,1.68,5.34,5.41,11.58,6.24c0.11,0.02,0.22,0.03,0.34,0.04
	c0,0,0,0,0,0.01C606.24,649.23,606.23,664.45,603.9,671.38z"/>
<path fill="#FFFFFF" stroke="#000000" stroke-miterlimit="10" d="M531.66,493.15c-12.26,12.46-17.24,31.59-25.35,65.21
	c-9.74,40.39-34.45,51.2-34.45,51.2s0.21,6.15-6.14,15.16c-0.31,0.45-0.64,0.9-0.99,1.36c-7.13-1.66-26.14,11.64-26.14,11.64
	s-0.29,0.17-0.85-0.49c-1.18-1.41-3.59-6.6-6.99-25.29c-4.99-27.44,15.2-87.56,19.48-105.15c2.84-11.67-1.33-24.8-4.6-32.73
	c5.59-13.73,9.45-23.65,9.35-26.67c-0.05-1.67,0.32-3.75,0.96-6c13.35-3.27,46.51-8.19,60.11,13.36
	C525.34,469.45,529.67,482.13,531.66,493.15z"/>
<path fill="#FFFFFF" stroke="#000000" stroke-miterlimit="10" d="M518.85,387.27c-10.94,14.76-28.12,38.93-32.5,33.98
	c-3.08-3.49-7.07-17.04-10.57-28.14c1.68-5.07,3.14-9.62,4.06-12.47c0.16-0.5,0.3-0.96,0.43-1.35
	C490.33,378.12,510.61,377.23,518.85,387.27z"/>
<path fill="#FFFFFF" stroke="#000000" stroke-miterlimit="10" d="M374.67,370.16c-19.49-8.44-27.57,15.21-22.58,34.88
	c4.99,19.68,16.87,33.32,24.48,33.44c4,0.06,11.91-13.36,12.59-30.3C389.78,392.9,383.91,374.16,374.67,370.16z M382.61,415.96
	c-2.48,9.8-4.26,16.44-8.89,15.53c-3.86-0.76-11.36-8.61-16.6-23.21c-2.75-7.68-2.71-16.17,0.55-23.64
	c2.28-5.25,6.06-9.91,12.26-9.67C383.88,375.51,385.09,406.16,382.61,415.96z"/>
<path fill="#FFFFFF" stroke="#000000" stroke-miterlimit="10" d="M382.61,415.96c-2.48,9.8-4.26,16.44-8.89,15.53
	c-3.86-0.76-11.36-8.61-16.6-23.21c-2.75-7.68-2.71-16.17,0.55-23.64c2.28-5.25,6.06-9.91,12.26-9.67
	C383.88,375.51,385.09,406.16,382.61,415.96z"/>
<path fill="#FFFFFF" stroke="#000000" stroke-miterlimit="10" d="M624.41,459.27c-0.95,7.84,0.95,23.76,0.95,23.76
	s-0.68,0.23-1.89,0.49c-4.16,0.88-14.61,2.04-25.15-5.13c0.01-0.08,0.01-0.17,0.01-0.26c0.14-4.75,0.47-17.17,0.68-30.84v-0.01
	c0.19-12.76,0.27-26.6-0.03-36.31c-0.21-6.96-0.85-12.39-1.63-16.57c2.76,1.18,8.6,2.71,15.89-0.89c5.18-2.56,9.2-7,11.89-10.75
	c0.25,0.32,0.51,0.69,0.78,1.09v0.01c2.31,3.43,5.21,9.67,4.92,19.09C630.35,418.4,625.36,451.43,624.41,459.27z"/>
<path fill="#FFFFFF" stroke="#000000" stroke-miterlimit="10" d="M623.46,527.94c-0.11,2.75-4.45,7.04-9.26,10.96
	c-4.5-27.24-15.93-58.72-15.93-58.72s0.02-0.63,0.05-1.79c10.54,7.17,20.99,6.01,25.15,5.13
	C623.53,493.52,623.66,522.83,623.46,527.94z"/>
<path fill="#FFFFFF" stroke="#000000" stroke-miterlimit="10" d="M499.9,108.06c-3.33-4.04-15.15-4.28-15.15-4.28
	s-3.01,2.31-5.73,4.77v0.01c-1.82,1.64-3.5,3.34-4.07,4.49c-1.43,2.85-3.33,18.06,0,24.71c2.5,5.01,8.39,4.88,15.27,7.35h0.01
	c1.82,0.65,3.7,1.48,5.6,2.65c0.48,0.28,0.97,0.59,1.45,0.93c0.51-0.89,0.97-1.9,1.39-3C503.2,133.93,502.94,111.75,499.9,108.06z
	 M477.92,134.72c-5.11-1.07-4.28-19.45,0.66-18.5C483.51,117.17,483.02,135.79,477.92,134.72z"/>
<path fill="#FFFFFF" stroke="#000000" stroke-miterlimit="10" d="M477.92,134.72c-5.11-1.07-4.28-19.45,0.66-18.5
	C483.51,117.17,483.02,135.79,477.92,134.72z"/>
<path fill="#FFFFFF" stroke="#000000" stroke-miterlimit="10" d="M604.9,96.31c-2.44,8.89-9.23,13.61-22.07,12.94
	c-18.3-0.95-17.11-21.62-24.48-45.39c-4.9-15.79-20.51-21.93-32.73-23.92c24.06-5.31,49.43,3.68,63.03,16.2
	C598.33,65.05,602.9,81.02,604.9,96.31z"/>
<path fill="#FFFFFF" stroke="#000000" stroke-miterlimit="10" d="M604.9,96.31c-2.44,8.89-9.23,13.61-22.07,12.94
	c-18.3-0.95-17.11-21.62-24.48-45.39c-4.9-15.79-20.51-21.93-32.73-23.92c-15.67,3.45-30.8,12.97-41.76,31.53
	c-7.21,12.2-7.85,24.92-4.84,37.08c2.72-2.46,5.73-4.77,5.73-4.77s11.82,0.24,15.15,4.28c3.04,3.69,3.3,25.87-1.23,37.63
	c-0.42,1.1-0.88,2.11-1.39,3c-0.48-0.34-0.97-0.65-1.45-0.93c0.42,0.67,13.95,22.17,22.6,28.02c4.79,3.24,10.57,5.42,14.84,6.73
	c-5.23-9.15-5.41-29.41-2.74-37.38c3.11-9.27,7.15-14.02,7.15-14.02l-1.23-9.19c8.08,1.89,16.71,4.95,20,8.24
	c4.75,4.75,13.31,16.16,13.31,16.16s9.67-3.2,19.12-6.12c6.64-2.06,13.17-3.98,16.16-4.57C605.64,135.51,607.52,116.49,604.9,96.31z
	 M575.22,136.58l-12.83-20.39l22.81,11.36L575.22,136.58z"/>
<polygon fill="#FFFFFF" stroke="#000000" stroke-miterlimit="10" points="585.2,127.55 575.22,136.58 562.39,116.19 "/>
<path fill="#FFFFFF" stroke="#000000" stroke-miterlimit="10" d="M569.76,146.32c0,0-8.56-11.41-13.31-16.16
	c-3.29-3.29-11.92-6.35-20-8.24l1.23,9.19c0,0-4.04,4.75-7.15,14.02c-2.67,7.97-2.49,28.23,2.74,37.38
	c0.86,1.49,1.85,2.69,2.98,3.49c3.59,2.53,8.64,2.91,14.12,1.69c6.85-1.53,14.38-5.55,20.58-10.96c8.3-7.24,15.02-26.91,17.93-36.53
	C579.43,143.12,569.76,146.32,569.76,146.32z M545.28,135.45l11.82,10.45l-6.65,5.23L545.28,135.45z M557.1,170.56l-3.5-6.66
	l5.15,3.8h6.73L557.1,170.56z M564.71,164.38l-3.75-1.37l4.52-7.54L564.71,164.38z M576.11,150.66l6.95-2.92l-9.26,9.15
	L576.11,150.66z"/>
<polygon fill="#FFFFFF" stroke="#000000" stroke-miterlimit="10" points="565.48,167.7 557.1,170.56 553.6,163.9 558.75,167.7 "/>
<polygon fill="#FFFFFF" stroke="#000000" stroke-miterlimit="10" points="557.1,145.9 550.45,151.13 545.28,135.45 "/>
<polygon fill="#FFFFFF" stroke="#000000" stroke-miterlimit="10" points="583.06,147.74 573.8,156.89 576.11,150.66 "/>
<polygon fill="#FFFFFF" stroke="#000000" stroke-miterlimit="10" points="565.48,155.47 564.71,164.38 560.96,163.01 "/>
<path fill="#FFFFFF" stroke="#000000" stroke-miterlimit="10" d="M429.96,531.98c0.12,3.41-3.96,3.84-8.53,4.15
	c-0.26,0.02-0.52,0.04-0.79,0.06c-4.75-4.99-11.71-13.46-13.08-18.65c-0.52-1.93-0.26-3.41,1.18-4.09
	c3.86-1.82,11.6,5.29,16.92,10.96c1.65,1.76,3.06,3.37,4.06,4.54C429.85,530.26,429.94,531.31,429.96,531.98z"/>
<path fill="#FFFFFF" stroke="#000000" stroke-miterlimit="10" d="M473.04,660.54c-9.98,23.76-23.75,22.33-28.39,17.11
	c-4-4.5-9.31-17.12-6.91-40.42c0.56,0.66,0.85,0.49,0.85,0.49s19.01-13.3,26.14-11.64c0.35-0.46,0.68-0.91,0.99-1.36
	C470.95,629.73,480.72,642.25,473.04,660.54z"/>
<path fill="#FFFFFF" stroke="#000000" stroke-miterlimit="10" d="M601.76,793.43c-1.84,21.7-3.1,39.35-2.06,44.37
	c1.61,7.84-1.25,16.12-2.71,17.91c-0.05,0.06-0.1,0.11-0.14,0.15c-1.43,1.43-45.15,0.24-48.72,3.09c-0.85-0.73-1.52-1.49-2.06-2.26
	c-0.02-0.02-0.03-0.04-0.04-0.06c-0.03-0.04-0.04-0.06-0.04-0.06c-4.47-6.74,2.14-14.49,2.14-14.49s-0.17-17.5-2.1-30.93
	c-0.43-3.06-0.96-5.9-1.59-8.28c-2.19-8.18-8.3-14.24-13.31-25.14c-2.84-6.19-5.32-13.94-6.52-24.52c0,0,0.36-18.17,0.9-36.11
	c4.01,3.76,13.44,10.85,25,7.83c7.2-1.88,14.34-7.69,20.81-13.49c7.41-6.66,13.94-13.31,18.63-14.07c3.77-0.61,8.76-0.7,13.24-0.6
	c0.56,0.01,1.1,0.02,1.64,0.04c0.45,3,1.08,8.26,1.44,15.72c-2.4-1.51-5.86-2.47-10.67-1.33c-11.59,2.74-15.51,22.88-15.33,49.44
	c0.16,23.14,12.5,30.85,19.09,32.45C600.29,793.32,601.11,793.42,601.76,793.43z"/>
<path fill="#FFFFFF" stroke="#000000" stroke-miterlimit="10" d="M613.96,767.41c-2.25,11.18-5.81,20.27-9.07,24.08
	c-1.07,1.26-2.1,1.94-3.05,1.94h-0.08c-0.65-0.01-1.47-0.11-2.4-0.34c-6.59-1.6-18.93-9.31-19.09-32.45
	c-0.18-26.56,3.74-46.7,15.33-49.44c4.81-1.14,8.27-0.18,10.67,1.33c3.38,2.12,4.66,5.33,4.66,5.33s0.58,0.97,1.35,2.92
	c-1.59-0.76-3.57-1.48-5.79-1.79c-3.28-0.47-7.09-0.05-10.89,2.44c-10.34,6.77-10.34,49.54-4.28,58.63
	c2.93,4.39,6.99,5.62,11.34,2.99C606.38,780.8,610.32,775.74,613.96,767.41z"/>
<path fill="#FFFFFF" stroke="#000000" stroke-miterlimit="10" d="M696.37,771.96c-2.18,3.52-3.64,5.88-3.64,5.88
	s-11.35,6.85-25.28-6.33c0,0,3.68-2.39,8.98-5.82c13.36-8.66,37.02-23.97,38.04-24.48C715.54,740.68,702.82,761.48,696.37,771.96z"
	/>
<path fill="#FFFFFF" stroke="#000000" stroke-miterlimit="10" d="M739.42,810.71c-10.35-6.73-19.56-11.72-28.03-15.4
	c-5.24-2.29-10.2-4.07-14.97-5.45c-21.03-6.11-38.46-4.53-60.37-4.06c-8.67,0.19-19.36,2.39-31.16,5.69
	c3.26-3.81,6.82-12.9,9.07-24.08c0,0,0,0,0-0.01c0.89-2.03,1.76-4.26,2.61-6.7c24.77-0.53,44.29,1.4,59.86,4.99
	c-5.3,3.43-8.98,5.82-8.98,5.82c13.93,13.18,25.28,6.33,25.28,6.33s1.46-2.36,3.64-5.88C720.49,781.96,731.36,797.02,739.42,810.71z
	"/>
<path fill="#FFFFFF" stroke="#000000" stroke-miterlimit="10" d="M421.2,536.77c-0.8,2.28-1.58,4.57-2.34,6.85
	c-1.28,3.84-2.34,7.62-3.21,11.34c-23.04,8.39-89.79,37.39-113.23,98.91c-26.69,70.07,43.9,117.91,75.36,125.85
	c0.54,0.25,1.02,0.51,1.46,0.81c-1.62,17.34-4.14,33.8-7.99,42.03c-0.23-0.02-0.46-0.05-0.7-0.08
	c-30.4-5.47-59.95-14.75-81.67-29.44c-55.61-37.62-89.11-114.93-50.62-193.35c34.49-70.24,113.12-121.23,129.12-131.09
	c3,10.5,2.88,15.85,2.88,15.85s0.84-0.87,2.26-2.18l5.43,42.57l0.03,0.24c0,0,14.02,16.87,16.88,17.11
	c2.85,0.24,3.56-2.38,3.56-2.38s0.12,0.09,0.33,0.21c0.04,0.03,0.06,0.04,0.06,0.04c1.12,0.66,4.49,2.28,7.21-0.25
	c0,0,0.22,0.11,0.61,0.25c1.74,0.63,6.83,1.87,10.32-3.57c1.2-0.14,2.45-0.23,3.68-0.31C420.83,536.38,421.02,536.58,421.2,536.77z"
	/>
<path fill="#FFFFFF" stroke="#000000" stroke-miterlimit="10" d="M546.03,811.15c-19.52,6.77-38.39,12.87-53.58,15.25
	c-13.71,2.15-34.82,3.33-58.92,2.55c3.44-7.81,8.61-17.62,16.94-29.4c2.82-3.99,5.48-8.4,7.95-12.97
	c31.81,2.27,59.23-4.58,72.71-8.85c5.01,10.9,11.12,16.96,13.31,25.14C545.07,805.25,545.6,808.09,546.03,811.15z"/>
<path fill="#FFFFFF" stroke="#000000" stroke-miterlimit="10" d="M470.04,905.39c-3.21-0.61-10.08-1.08-13.54,4.84
	c-0.51,0.87-0.98,1.71-1.42,2.51c-5.98-3.24-11.75-7.46-13.89-7.7c-4.27-0.47-26.37-9.74-29.7-4.51c-1.17,1.83-3.06,4.71-5.35,7.55
	c-2-2.51-5.85-4.52-13.01-4.52c-5.81,0-9.48,1.7-11.78,4.08c-7.07-7.31-14.61-16.4-16.43-16.86c-2.86-0.71-17.83-1.9-30.18,1.9
	c-9.84,3.03-16.21,9.52-22.35,12.88c-2.35-5.11-7.67-6.68-11.56-7.1c1.15-1.88,2.76-4.11,4.92-6.73
	c13.3-16.15,26.14-18.29,35.88-22.09c6.78-2.65,14.48-16.81,18.54-25.17c0.13,0.29,0.23,0.45,0.23,0.45s2.61-1.16,6.62-2.37
	c6.26-1.9,15.96-3.93,24.51-1.9c13.88,3.29,23.57,16.37,29.52,18.23c0.55,4,1.5,10.1,2.53,13.84c1.63,5.94,25.22,14.26,32.82,20.2
	C460.94,896.46,467.09,900.86,470.04,905.39z"/>
<path fill="#FFFFFF" stroke="#000000" stroke-miterlimit="10" d="M406.15,908.09c-4.21,5.26-9.74,10.38-14.37,8.37
	c-2.58-1.11-6.42-4.68-10.42-8.81c2.3-2.38,5.97-4.08,11.78-4.08C400.3,903.57,404.15,905.58,406.15,908.09z"/>
<path fill="#FFFFFF" stroke="#000000" stroke-miterlimit="10" d="M312.4,905.57c-1.58,0.86-3.14,1.52-4.74,1.86
	c-6.57,1.39-12.81,0.78-6.82-8.96C304.73,898.89,310.05,900.46,312.4,905.57z"/>
<path fill="#FFFFFF" stroke="#000000" stroke-miterlimit="10" d="M667.45,899.53c-5.54-1.86-13.65-2.05-17.17,10.41
	c-8.5-2.67-19.09-6.34-27.3-7.98c-14.25-2.85-35.16-12.35-33.98-11.4c0.31,0.25,1.94,1.71,4.08,3.75c-3.5-1.03-8-1.46-10.31,1.95
	c-3.25,4.8-5.6,10.9-3.07,16.43c-15.76,0.8-33.88,0.26-39.65-6.45c-10.21-11.88-1.18-24.71,5.94-31.6
	c6.69-6.48,0.82-16.72,0.08-17.95c0.54,0.77,1.21,1.53,2.06,2.26c3.57-2.85,47.29-1.66,48.72-3.09c0.04-0.04,0.09-0.09,0.14-0.15
	c7.71,5.75,20.95,15.3,28.85,19.16c11.64,5.71,21.38,0.24,26.61,5.23C656.13,883.61,663.34,892.66,667.45,899.53z"/>
<path fill="#FFFFFF" stroke="#000000" stroke-miterlimit="10" d="M605.16,910.66c-2.59,0-13.32,1.41-25.46,2.03
	c-2.53-5.53-0.18-11.63,3.07-16.43c2.31-3.41,6.81-2.98,10.31-1.95C599.22,900.14,609.56,910.66,605.16,910.66z"/>
<path fill="#FFFFFF" stroke="#000000" stroke-miterlimit="10" d="M663.86,912.97c-2.22,0.34-7.33-1.07-13.58-3.03
	c3.52-12.46,11.63-12.27,17.17-10.41c1.73,2.89,2.92,5.4,3.06,6.95C670.98,911.7,669.08,912.18,663.86,912.97z"/>
<path fill="#FFFFFF" stroke="#000000" stroke-miterlimit="10" d="M475.69,728.81c-4.72-10.27-13.81-16.23-13.81-16.23
	s2.97-8.66-3.67-15.49c4.39-6.92,13.7-20.43,20.54-22.53C478.75,674.56,486.18,695.68,475.69,728.81z"/>
<path fill="#FFFFFF" stroke="#000000" stroke-miterlimit="10" d="M428,692.8c-9.12,4.54-14.36,12.88-14.36,12.88
	s-19.24-2.63-24.54,0c6.53-28.89,19.55-40.89,24.06-47.04c0.61-0.83,1.17-1.77,1.68-2.78C420.26,659.73,428.43,669.98,428,692.8z"/>
<path fill="#FFFFFF" stroke="#000000" stroke-miterlimit="10" d="M533.24,514.51c0,1.09-0.02,2.16-0.04,3.21
	c-0.26,15.2-5.45,54.24-11.58,71.57c0,0.01,0,0.01,0,0.01c-0.2,0.56-0.4,1.1-0.6,1.61c-6.39,16.4-7.1,38.97-34.91,55.61
	c2.14,9.74-7.36,28.04-7.36,28.04c-6.84,2.1-16.15,15.61-20.54,22.53c-2.36-2.44-5.94-4.64-11.3-6.14
	c-7.38-2.06-13.76-0.71-18.91,1.85c0.43-22.82-7.74-33.07-13.16-36.94c3.85-7.64,4.87-19.63,4.03-25.5
	c-0.87-6.07-12.21-37.02-3.21-75.39c0.87-3.72,1.93-7.5,3.21-11.34c0.76-2.28,1.54-4.57,2.34-6.85c0.07-0.22,0.15-0.44,0.22-0.65
	c4.57-0.31,8.65-0.74,8.53-4.15c-0.02-0.67-0.11-1.72-0.24-3.03c-0.27-2.62-0.71-6.27-1.18-9.92c0.8,4.58,1.81,8.57,2.92,8.67
	c2,0.18,2.47-16.42,2.68-25.29c4.13-10.39,8.13-20.06,11.49-28.35c3.27,7.93,7.44,21.06,4.6,32.73
	c-4.28,17.59-24.47,77.71-19.48,105.15c3.4,18.69,5.81,23.88,6.99,25.29c-2.4,23.3,2.91,35.92,6.91,40.42
	c4.64,5.22,18.41,6.65,28.39-17.11c7.68-18.29-2.09-30.81-7.32-35.82c6.35-9.01,6.14-15.16,6.14-15.16s24.71-10.81,34.45-51.2
	c8.11-33.62,13.09-52.75,25.35-65.21C533.08,501.08,533.29,508.15,533.24,514.51z"/>
<path fill="#FFFFFF" stroke="#000000" stroke-miterlimit="10" d="M420.64,536.19c-1.23,0.08-2.48,0.17-3.68,0.31
	c-3.49,5.44-8.58,4.2-10.32,3.57c-5.29-6.23-8.4-12.94-8.81-17.29c-0.2-2.11,0.23-3.67,1.37-4.34c2.6-1.53,6.53-1.18,8.36-0.9
	C408.93,522.73,415.89,531.2,420.64,536.19z"/>
<path fill="#FFFFFF" stroke="#000000" stroke-miterlimit="10" d="M406.64,540.07c-0.39-0.14-0.61-0.25-0.61-0.25
	c-2.72,2.53-6.09,0.91-7.21,0.25c0,0-0.02-0.01-0.06-0.04c-0.9-0.67-12.33-9.24-10.87-14.46c0.06-0.21,0.13-0.4,0.22-0.59
	c1.51-3.45,6.91-2.91,9.72-2.2C398.24,527.13,401.35,533.84,406.64,540.07z"/>
<path fill="#FFFFFF" stroke="#000000" stroke-miterlimit="10" d="M398.76,540.03c-0.21-0.12-0.33-0.21-0.33-0.21
	s-0.71,2.62-3.56,2.38c-2.86-0.24-16.88-17.11-16.88-17.11l-0.03-0.24c3.31-2.18,7.58-0.98,10.15,0.13
	c-0.09,0.19-0.16,0.38-0.22,0.59C386.43,530.79,397.86,539.36,398.76,540.03z"/>
<path fill="#FFFFFF" stroke="#000000" stroke-miterlimit="10" d="M429.96,487.07c-5.99-3.11-12.65-9.48-16.93-15.37
	c-0.21,0.19-0.34,0.29-0.34,0.29s-4.52-0.84-15.69-2.27c-8.57-1.09-19.75,8.19-24.47,12.56l5.43,42.57
	c3.31-2.18,7.58-0.98,10.15,0.13c1.51-3.45,6.91-2.91,9.72-2.2c-0.2-2.11,0.23-3.67,1.37-4.34c2.6-1.53,6.53-1.18,8.36-0.9
	c-0.52-1.93-0.26-3.41,1.18-4.09c3.86-1.82,11.6,5.29,16.92,10.96c1.65,1.76,3.06,3.37,4.06,4.54c-0.27-2.62-0.71-6.27-1.18-9.92
	c0.8,4.58,1.81,8.57,2.92,8.67c2,0.18,2.47-16.42,2.68-25.29c0.07-2.69,0.11-4.67,0.17-5.25
	C434.55,494.67,438.2,491.35,429.96,487.07z M428.27,517.49v-0.03c-0.84-5.15-1.4-10.58-1.53-11.82c0.17,1.19,0.87,6.26,1.58,11.69
	c0.06,0.53,0.13,1.05,0.2,1.58C428.43,518.44,428.35,517.97,428.27,517.49z"/>
<path fill="#FFFFFF" stroke="#000000" stroke-miterlimit="10" d="M468.68,413.77c-1.67,4.53-3.05,7.88-3.72,8.67
	c-2,2.36-6.93,11.56-9.02,18.95c-0.64,2.25-1.01,4.33-0.96,6c0.1,3.02-3.76,12.94-9.35,26.67c-3.36,8.29-7.36,17.96-11.49,28.35
	c0.07-2.69,0.11-4.67,0.17-5.25c0.24-2.49,3.89-5.81-4.35-10.09c-5.99-3.11-12.65-9.48-16.93-15.37c1.03-0.9,4.05-3.92,3.46-7.68
	c-0.67-4.26-6.02-9.6-6.59-22.01C434.83,422.08,458.23,415.72,468.68,413.77z"/>
<path fill="#FFFFFF" stroke="#000000" stroke-miterlimit="10" d="M603.19,696.77c-4.48-0.1-9.47-0.01-13.24,0.6
	c-4.69,0.76-11.22,7.41-18.63,14.07c-0.92-6.11-3.02-13.56-7.54-21.49c-6.28-11.03-17.48-17.8-25.6-21.49
	c2.48-3.5,4.33-6.5,4.25-9.59c-0.24-8.79-4.51-15.68-14.02-27.8c-9.5-12.12-7.13-36.59-7.13-36.59l0.34-5.18c0,0,0,0,0-0.01
	c6.13-17.33,11.32-56.37,11.58-71.57c0.02-1.05,0.04-2.12,0.04-3.21c6.03-0.02,14.65-1.21,22.39-6.67c1.63,12,3.73,27.66,3.43,32.7
	c-0.47,8.08-14.02,60.59-7.84,76.27c6.18,15.69,14.97,28.76,22.81,27.57c0.28-0.04,0.57-0.1,0.85-0.18
	c-0.94,6.56-1.2,15.33,2.09,22.51c6.09,13.31,11.08,17.83,17.02,17.83c0,0,4.72-2.36,9.25-11.54
	C603.97,676.62,605.37,685.94,603.19,696.77z"/>
<path fill="#FFFFFF" stroke="#000000" stroke-miterlimit="10" d="M711.39,795.31c-0.12,7.77-0.99,18.76-4.76,22.53
	c-0.47-12.37-6.35-22.57-10.21-27.98C701.19,791.24,706.15,793.02,711.39,795.31z"/>
<path fill="#FFFFFF" stroke="#000000" stroke-miterlimit="10" d="M470.18,914.55c-2.97,3.68-9.14,1.43-15.1-1.81
	c0.44-0.8,0.91-1.64,1.42-2.51c3.46-5.92,10.33-5.45,13.54-4.84C472.03,908.45,472.57,911.58,470.18,914.55z"/>
</svg>
