<?xml version="1.0" encoding="utf-8"?>
<!-- Generator: Adobe Illustrator 25.2.0, SVG Export Plug-In . SVG Version: 6.00 Build 0)  -->
<svg version="1.1" baseProfile="tiny" id="Layer_1" xmlns="http://www.w3.org/2000/svg" xmlns:xlink="http://www.w3.org/1999/xlink"
	 x="0px" y="0px" viewBox="0 0 1000 1000" overflow="visible" xml:space="preserve">
<path fill="#FFFFFF" stroke="#000000" stroke-miterlimit="10" d="M406.32,256.19l-8.03-20.9l-5.5,0.9
	c-5.12-12.97-17.7-40.99-24.82-50.15c-8.82-11.37-7.84-39.2-7.84-39.2s1.04,4.57,4.18,5.1c3.14,0.52,9.15-9.15,9.15-9.15
	s-0.52-4.97,5.22-1.31c0,0,9.15,30.83,11.76,42.33C393.06,195.31,410.83,232.81,406.32,256.19z"/>
<path fill="#FFFFFF" stroke="#000000" stroke-miterlimit="10" d="M435.13,227.97l-9.27,23.26l-12.15-12.02l-7.39,16.99
	c4.51-23.39-13.26-60.88-15.87-72.37c-2.62-11.5-11.76-42.33-11.76-42.33c2.1-7.58,6.01-32.39,14.37-32.14
	c7.76,0.24,19.12-8.07,20.72-9.26c0.27,8.08,1.33,21.92,4.89,38.79C424.42,166.05,437.48,222.07,435.13,227.97z"/>
<path fill="#FFFFFF" stroke="#000000" stroke-miterlimit="10" d="M450.03,221.44l-2.35,24.05l-12.55-17.52
	c2.35-5.89-10.71-61.91-16.46-89.08c-3.56-16.87-4.62-30.71-4.89-38.79c0.12-0.09,0.19-0.14,0.19-0.14s30.31-18.29,34.49-20.12
	c0.32-0.14,0.62-0.24,0.89-0.31c-1.99,11.29-4.75,30.31-2.98,40.55c2.61,15.15,6.22,21.68,2.07,40.1
	C444.27,178.59,450.03,221.44,450.03,221.44z"/>
<path fill="#FFFFFF" stroke="#000000" stroke-miterlimit="10" d="M467,207.86v22.46l-2.12,5.23l-14.85-14.12
	c0,0-5.75-42.85-1.59-61.27c4.16-18.42,0.54-24.95-2.07-40.1c-1.77-10.24,0.99-29.26,2.98-40.55c3.31-0.78,3.51,3.69,6.17,9.72
	C455.51,89.24,462.04,189.04,467,207.86z"/>
<path fill="#FFFFFF" stroke="#000000" stroke-miterlimit="10" d="M482.36,195.96l-1.52,2.48l-9.4,6.01l-4.44,3.4
	c-4.96-18.81-11.49-118.62-11.49-118.62c11.23-13.59,11.23-32.14,11.23-32.14s7.71,29.52,7.26,56.69
	C473.65,133.88,477.56,172.8,482.36,195.96z"/>
<path fill="#FFFFFF" stroke="#000000" stroke-miterlimit="10" d="M491.83,122.16c1.33,20.26,2.02,44.08,2.34,58.73
	c-1.81,0.36-3.13,0.85-3.13,0.85l-8.68,14.23c-4.8-23.16-8.71-62.08-8.37-82.17c0.45-27.17-7.26-56.69-7.26-56.69h34.76
	C501.49,57.1,489.73,90.28,491.83,122.16z"/>
<path fill="#FFFFFF" stroke="#000000" stroke-miterlimit="10" d="M508.54,88.98c0,0-2.51,69.12-3.79,95.08
	c-0.09,0.09-0.18,0.19-0.26,0.29c-1.3-4.5-6.76-4.18-10.31-3.45c-0.32-14.65-1.01-38.46-2.34-58.73
	c-2.1-31.88,9.66-65.06,9.66-65.06v23.26C501.49,80.36,503.06,86.62,508.54,88.98z"/>
<path fill="#FFFFFF" stroke="#000000" stroke-miterlimit="10" d="M558.19,227.97c-2.22,9.05-5.2,29.76-7.19,44.64
	c-2.64-3.01-8.74-10.05-8.74-10.67c0-0.79-3.13-19.08-2.88-20.65c0.26-1.56,1.31-23.51,0-24.68c-1.31-1.18-4.18-7.97-4.44-9.02
	c-0.08-0.33-0.69-0.95-1.48-1.62c1.37-7.69,2.68-16.79,3.54-24.77c1.8-16.72-7.02-41.8-4.41-64.8c2.1-18.41,6.49-40.84,8.16-49.05
	c4.19,0.47,7,1.5,7,1.5l-7.06,8.88l6.8,12.28c0,0,0,3.53,2.74,19.99c0,0-3.66,46.86,0.85,63.99
	C555.58,191.13,561.85,213.08,558.19,227.97z"/>
<path fill="#FFFFFF" stroke="#000000" stroke-miterlimit="10" d="M536.99,181.2c-0.86,7.98-2.17,17.09-3.54,24.77
	c-1.66-1.42-4.09-3.09-4.09-3.09l-3.05-7.31l-5.22-2.87v-7.84l-2.39-2.56l5.57-112.58c5.88-2.73,11.96-2.86,16.46-2.36
	c-1.67,8.21-6.06,30.64-8.16,49.05C529.97,139.4,538.79,164.48,536.99,181.2z"/>
<path fill="#FFFFFF" stroke="#000000" stroke-miterlimit="10" d="M524.28,69.72L518.7,182.3l-4.93-5.28c0,0-4.76,2.5-9.03,7.03
	c1.29-25.96,3.79-95.08,3.79-95.08C512.22,78.24,518.14,72.57,524.28,69.72z"/>
<path fill="#FFFFFF" stroke="#000000" stroke-miterlimit="10" d="M574.25,127.24c0.01,0.01,0.01,0.01,0,0.02
	c0.01,0.01,0,0.02,0,0.03c-1.56,35.87-6.25,117.41-17.31,146.16l-4.76,0.51c0,0-0.46-0.52-1.19-1.35
	c1.99-14.88,4.97-35.59,7.19-44.64c3.66-14.89-2.61-36.83-7.13-53.97c-4.51-17.13-0.85-63.99-0.85-63.99
	c1.18-18.42,10.59-18.03,10.59-18.03L574.25,127.24z"/>
<path fill="#FFFFFF" stroke="#000000" stroke-miterlimit="10" d="M577.26,204.2c-3.4,21.95-8.57,47.55-13.29,61.66
	c-0.82,2.45-1.54,4.83-2.16,7.07l-4.87,0.53c11.06-28.75,15.75-110.29,17.31-146.16l1.06,2.7l4.86,20.06v0.12
	C580.18,160.74,579.92,187,577.26,204.2z"/>
<path fill="#FFFFFF" stroke="#000000" stroke-miterlimit="10" d="M572.58,284.95l-8.91-12.22l-1.86,0.2
	c0.62-2.24,1.33-4.62,2.16-7.07c4.73-14.11,9.9-39.72,13.29-61.66c2.66-17.2,2.91-43.45,2.9-54.02l0.23,0.98
	c0,0,0.04-1.58,0.22-3.64v-0.01c0.4-4.37,1.43-10.87,4.09-9.28C587.8,158.47,577.97,250.52,572.58,284.95z"/>
<path fill="#FFFFFF" stroke="#000000" stroke-miterlimit="10" d="M386.79,237.18v-2.67l-5.22-0.26l-4.97-6.28h-2.09l-3.4,16.47
	l-5.09,1.96c-13.72-16.46-21.55-75.64-21.55-75.64l15.67-23.91c0,0-0.98,27.83,7.84,39.2c7.11,9.16,19.69,37.18,24.82,50.15
	L386.79,237.18z"/>
<path fill="#FFFFFF" stroke="#000000" stroke-miterlimit="10" d="M563.67,272.73l-1.86,0.2l-4.87,0.53l-4.76,0.51
	c0,0-0.46-0.52-1.19-1.35c-2.64-3.01-8.74-10.05-8.74-10.67c0-0.79-3.13-19.08-2.88-20.65c0.26-1.56,1.31-23.51,0-24.68
	c-1.31-1.18-4.18-7.97-4.44-9.02c-0.08-0.33-0.69-0.95-1.48-1.62c-1.66-1.42-4.09-3.09-4.09-3.09l-3.05-7.31l-5.22-2.87v-7.84
	l-2.39-2.56l-4.93-5.28c0,0-4.76,2.5-9.03,7.03c-0.09,0.09-0.18,0.19-0.26,0.29c-1.3-4.5-6.76-4.18-10.31-3.45
	c-1.81,0.36-3.13,0.85-3.13,0.85l-8.68,14.23l-1.52,2.48l-9.4,6.01l-4.44,3.4v22.46l-2.12,5.23l-14.85-14.12l-2.35,24.05
	l-12.55-17.52l-9.27,23.26l-12.15-12.02l-7.39,16.99l-8.03-20.9l-5.5,0.9l-6,0.99v-2.67l-5.22-0.26l-4.97-6.28h-2.09l-3.4,16.47
	l-5.09,1.96c-3.13,9.8,14.5,56.04,14.5,56.04s11.36,51.34,39.58,68.19c13.99,8.35,27.96,13.81,40.89,16.2h0.01
	c11.36,2.1,21.9,1.81,30.93-0.97h0.01c1.44-0.44,2.84-0.95,4.19-1.52c7.05-2.96,14-7.34,20.39-12.05c4.64-3.42,8.99-7,12.86-10.35
	c5.63-4.85,10.27-9.17,13.38-11.7c8.24-6.66,23.52-36.83,27.83-54.47c0.54-2.2,1.21-5.93,1.98-10.82v-0.01L563.67,272.73z
	 M410.15,316.02c-14.28,3.14-25.18-10.71-25.18-10.71s-3.66-24.04,12.34-28.48c16.01-4.44,31.29,16.72,31.29,16.72
	S424.42,312.89,410.15,316.02z M489.21,347.59c-3.66,1.62-9.93,3.19-18.55,6.59c-8.62,3.4-20.39,5.49-32.14,1.83
	c0,0,18.03,1.31,30.83-3.66c12.8-4.96,19.33-5.49,21.17-6.78c1.83-1.31,9.14-6.53,9.14-6.53S492.87,345.96,489.21,347.59z
	 M506.52,295.82c-18.35,2.69-33.77-14.81-33.77-14.81s5.23-27.17,23.78-31.35c18.54-4.18,32.82,19.07,32.82,19.07
	S524.86,293.13,506.52,295.82z"/>
<path fill="none" stroke="#000000" stroke-miterlimit="10" d="M400.13,286.69c-1.15,0-2.1,0.95-2.1,2.11c0,1.15,0.95,2.1,2.1,2.1
	c1.17,0,2.11-0.95,2.11-2.1C402.24,287.64,401.29,286.69,400.13,286.69z M400.13,286.69c-1.15,0-2.1,0.95-2.1,2.11
	c0,1.15,0.95,2.1,2.1,2.1c1.17,0,2.11-0.95,2.11-2.1C402.24,287.64,401.29,286.69,400.13,286.69z M400.13,286.69
	c-1.15,0-2.1,0.95-2.1,2.11c0,1.15,0.95,2.1,2.1,2.1c1.17,0,2.11-0.95,2.11-2.1C402.24,287.64,401.29,286.69,400.13,286.69z"/>
<path fill="#FFFFFF" stroke="#000000" stroke-miterlimit="10" d="M516.5,261.43c-5.44-4.53-12.61-8.15-20.36-7.19
	c-4.34,0.53-7.95,3.55-10.82,7.29c-0.16,6.54,1.09,20.86,15.48,20.33C515.16,281.34,516.6,267.68,516.5,261.43z M499.28,265.69
	c-2.02,0-3.67-1.64-3.67-3.67c0-2.03,1.65-3.67,3.67-3.67c2.03,0,3.67,1.64,3.67,3.67C502.96,264.05,501.32,265.69,499.28,265.69z"
	/>
<path fill="none" stroke="#000000" stroke-miterlimit="10" d="M402.24,288.81c0,1.15-0.95,2.1-2.11,2.1c-1.15,0-2.1-0.95-2.1-2.1
	c0-1.17,0.95-2.11,2.1-2.11C401.29,286.69,402.24,287.64,402.24,288.81z"/>
<path fill="#FFFFFF" stroke="#000000" stroke-miterlimit="10" d="M499.66,339.02c0,0-6.78,6.94-10.45,8.57
	c-3.66,1.62-9.93,3.19-18.55,6.59c-8.62,3.4-20.39,5.49-32.14,1.83c0,0,18.03,1.31,30.83-3.66c12.8-4.96,19.33-5.49,21.17-6.78
	C492.35,344.24,499.66,339.02,499.66,339.02z"/>
<path fill="#FFFFFF" stroke="#000000" stroke-miterlimit="10" d="M539.84,392.96c0,0-3.63,0.41-6.82,2.89
	c-4.41-11.48-11.67-19.31-16.49-23.56c4.64-3.42,8.99-7,12.86-10.35c-0.14,4.1,0.19,8.8,1.63,13.19
	C534.73,386.5,539.84,392.96,539.84,392.96z"/>
<path fill="#FFFFFF" stroke="#000000" stroke-miterlimit="10" d="M619.65,471.52c-4.62-3.02-11.47-7.74-17.96-13.1
	c-11.24-9.28-18.16-33.18-29.4-43.11c-9.69-8.57-36.3-12.41-43.42-13.32c0.81-2.84,2.41-4.79,4.15-6.14
	c3.19-2.48,6.82-2.89,6.82-2.89s42.13,2.35,54.47,21.36c12.35,19.01,14.11,29.59,17.83,35.47c0.47,0.75,1.2,1.66,2.11,2.73
	C614.88,457.79,617.14,464.64,619.65,471.52z"/>
<path fill="#FFFFFF" stroke="#000000" stroke-miterlimit="10" d="M657.94,545.33c-10.37,20.31-12.48,48.7-12.48,48.7
	s-3.84-13.52-11.06-24.01c1.87-7.41,4.19-20.15,5.18-27.92c1.07-8.37,1.66-39.77,1.87-53.39c0.66,1.37,1.29,2.78,1.86,4.21
	C650.91,511.75,656.68,539.14,657.94,545.33z"/>
<path fill="#FFFFFF" stroke="#000000" stroke-miterlimit="10" d="M677.78,709.44c-3.02,1.06-5.46,0.24-6.69-2.53
	c1.45-1.92,2.62-4.29,3.17-6.88c1.96-9.2,3.13-26.45,1.76-32.92c-0.64-2.97-1.13-5.08-1.5-6.48c0,0,2.17-1.95,5.65-1.52
	c2.02,6.93,3.89,15.36,4.27,23.08C685.04,694.35,681.71,708.07,677.78,709.44z"/>
<path fill="#FFFFFF" stroke="#000000" stroke-miterlimit="10" d="M674.26,700.03c-0.55,2.59-1.72,4.96-3.17,6.88
	c-3.73,4.91-9.39,7.02-11.93,2.97c-3.52-5.62,3.33-22,3.93-25.53c0.58-3.52-1.57-18.8-1.57-18.8s-0.73-2.91-1.34-3.66
	c6.66-3.45,14.35-1.25,14.35-1.25c0.36,1.4,0.86,3.51,1.5,6.48C677.4,673.58,676.22,690.83,674.26,700.03z"/>
<path fill="#FFFFFF" stroke="#000000" stroke-miterlimit="10" d="M659.56,662.22c-0.59,2.16-1.18,23.51-2.35,27.24
	c-1.18,3.72-5.88,24.5-11.56,27.04c-5.68,2.55-9.99,4.11-7.84-7.64c2.16-11.75,8.42-26.45,8.42-31.35c0-4.9,1.18-23.12-0.98-23.52
	C652.25,650.98,659.05,658.95,659.56,662.22z"/>
<path fill="#FFFFFF" stroke="#000000" stroke-miterlimit="10" d="M645.26,653.98c-2.16-0.4-5.64,8.04-8.02,20.97
	c-2.38,12.93-9.23,27.83-14.13,25.86c-4.89-1.96,2.16-26.44,3.53-31.55c1.37-5.09,0.58-17.04,0.58-17.04S636.7,644.45,645.26,653.98
	z"/>
<path fill="#FFFFFF" stroke="#000000" stroke-miterlimit="10" d="M680.18,659.12c-3.49-0.43-5.65,1.52-5.65,1.52
	s-7.69-2.2-14.35,1.25c-0.24-0.27-0.46-0.25-0.62,0.33c-0.52-3.27-7.31-11.24-14.3-8.24c-8.55-9.53-18.03-1.76-18.03-1.76
	s-0.64-0.14-1.76-0.24c-0.33-3.2-0.36-8,1.37-12.5c2.7-7.04,8.07-22.71,4.46-35.54v-0.01c1.17-3.73,1.92-7.4,2.2-10.9
	c0,0-17.25-16.84-20.58-43.1c-0.05-0.46-0.12-0.92-0.18-1.37c4.41,3.45,13.57,11.03,19.77,18.89c0.65,0.82,1.28,1.68,1.88,2.56
	c7.22,10.49,11.06,24.01,11.06,24.01s2.11-28.39,12.48-48.7c0.16,0.82,0.25,1.28,0.25,1.28s5.68,7.25,2.16,31.35
	s-4.31,30.18-1.37,39.2c2.95,9.01,15.1,24.88,17.83,31.94C677.81,651.65,679.01,655.14,680.18,659.12z"/>
<path fill="#FFFFFF" stroke="#000000" stroke-miterlimit="10" d="M533.02,395.86c-1.74,1.34-3.33,3.3-4.15,6.14
	c-0.23,0.79-0.4,1.65-0.48,2.58c-5.43-4.82-12.58-11.12-18.7-16.37c-5.81,7.25-11.2,18.24-14.11,24.61
	c-2.95,1.04-13.71,5.64-16.57,17.82c-7.16,2.17-13.25,4.46-13.25,4.46c0-12.36,17.27-37.22,26.18-49.24h0.01
	c1.44-0.44,2.84-0.95,4.19-1.52c7.05-2.96,14-7.34,20.39-12.05C521.35,376.55,528.61,384.38,533.02,395.86z"/>
<path fill="#FFFFFF" stroke="#000000" stroke-miterlimit="10" d="M641.44,488.66v0.04c-0.21,13.62-0.8,45.03-1.87,53.39
	c-0.99,7.76-3.31,20.51-5.18,27.92c-0.6-0.88-1.23-1.74-1.88-2.56c-6.2-7.86-15.36-15.44-19.77-18.89
	c-3.17-25.09-3.34-30.96-3.34-30.96l15.89,18.23c-0.32-3.94,0.01-9.34,0.53-14.99c0.78-8.69,2-17.97,2-23.43
	c0-2.11-0.78-5.2-1.97-8.85c-1.62-4.98-4-11.02-6.2-17.04c-2.51-6.87-4.77-13.72-5.4-18.99
	C620.02,459.26,633.45,472.05,641.44,488.66z"/>
<path fill="#FFFFFF" stroke="#000000" stroke-miterlimit="10" d="M625.29,535.83L609.4,517.6c0,0-7.06-4.31-14.12-14.5
	c-7.05-10.18-13.24-24.3-16.61-27.24c-0.69-0.6-1.58-1.21-2.58-1.81c-3.86-2.35-9.26-4.66-10.19-6.22
	c-0.79-1.32-4.96-1.66-8.91-3.72c-1.92-1-3.79-2.4-5.2-4.51c-0.4-0.59-0.86-1.31-1.4-2.14c-1.8-2.86-4.32-7.04-7.03-11.98
	c-3.71-6.77-7.78-14.98-10.92-23.15c-0.49-1.3-0.98-2.59-1.42-3.88c-0.62-1.78-1.18-3.55-1.67-5.29c-0.25-0.9-0.46-1.76-0.62-2.58
	c3.78,0.92,13.11,3.9,17.43,11.4c5.49,9.53,7.84,23.26,24.7,32.66c3.54,1.98,7.81,4.26,12.41,6.72
	c10.73,14.96,31.02,43.28,42.54,59.5C625.3,526.49,624.97,531.89,625.29,535.83z"/>
<path fill="#FFFFFF" stroke="#000000" stroke-miterlimit="10" d="M626.84,639.48c-1.74,4.5-1.7,9.3-1.37,12.5
	c-3.6-0.32-12.25-0.16-21.36,6.71c-11.95,9.02-16.65,25.86-23.9,18.42c-7.25-7.44,12.93-30.37,25.87-37.63
	c10.31-5.77,20.75-20.9,25.23-35.54C634.91,616.77,629.55,632.44,626.84,639.48z"/>
<path fill="#FFFFFF" stroke="#000000" stroke-miterlimit="10" d="M491.94,385.86c-8.91,12.02-26.18,36.88-26.18,49.24l-1.87-23.34
	c1.8-1.21,3.98-3.47,5.2-7.69c1.53-5.27-4.02-12.69-8.08-17.24C472.37,388.93,482.91,388.64,491.94,385.86z"/>
<path fill="#FFFFFF" stroke="#000000" stroke-miterlimit="10" d="M393.19,613.75c0,0-0.02,8.14-1.9,13.87
	c-3.76,9.72-15.47,22.06-15.47,22.06s-0.53,17.11-1.57,28.87c-1.04,11.75-7.83,15.28-7.83,15.28s-7.1,0.95-8.13-6.28
	c-0.05-0.36-0.09-0.76-0.11-1.17c-0.4-8.5,1.96-37.51,4.11-43.12c2.16-5.61,15.22-24.29,17.32-27.95c2.06-3.6,4.38-9.62-2.08-14.05
	c-0.09-0.07-0.18-0.12-0.27-0.19l1-14.43c0.42-0.33,0.81-0.65,1.19-0.96c-0.4-8.13,6.36-17.53,13.11-25.5
	c-2.54,4.6-4.64,10.58-4.19,17.37c0.58,8.72,2.01,18.95,3.17,26.3C392.44,609.73,393.19,613.75,393.19,613.75z"/>
<path fill="#FFFFFF" stroke="#000000" stroke-miterlimit="10" d="M377.26,601.07c0.1,0.07,0.19,0.12,0.27,0.19
	c-3.98,4.35-12.41,13.52-13.6,14.32c-1.06,0.69-8.77,10.94-12.91,24.26c-1.08-22.75,6.65-21.55,12.25-33.66
	c5.22-11.28,10.91-16.22,14.99-19.53L377.26,601.07z"/>
<path fill="#FFFFFF" stroke="#000000" stroke-miterlimit="10" d="M439.18,450.47c-4.63,5.39-12.84,18.55-12.41,43.81
	c0.23,14.44,3.57,25.09,7.41,32.63c-1.37,8.82-4.78,32.49-3.98,45.58c-7.39,6.04-21.28,17.53-21.86,19.05
	c0,0-11.68,2.66-16.81,12.33c-1.15-7.36-2.58-17.58-3.17-26.3c-0.45-6.8,1.65-12.78,4.19-17.37l0.01-0.01
	c5.19-6.16,10.38-11.46,12.26-14.66c4.31-7.36,16.2-26.62,19.07-33.02c-2.74-9.66-0.38-20.77,1.7-28.87
	c-2.48-8.1-7.32-30.05,0-42.58c1.29-2.2,3.21-4.5,5.5-6.77c1.89,3.13,5.63,9.44,8.64,15C439.54,449.67,439.36,450.06,439.18,450.47z
	"/>
<path fill="#FFFFFF" stroke="#000000" stroke-miterlimit="10" d="M449.89,437.85c-2.72,2.06-7.19,5.39-10.16,11.42
	c-3.01-5.55-6.75-11.86-8.64-15c6.26-6.22,15.28-12.36,21.76-16.43C450.36,423.04,448.13,430.3,449.89,437.85z"/>
<path fill="#FFFFFF" stroke="#000000" stroke-miterlimit="10" d="M479.01,430.63c-0.47,1.99-0.73,4.19-0.7,6.61v0.01
	c-2.51,2.18-4.17,5.46-5.24,8.51c-2.95,0.81-5.94,2.13-8.87,3.76c-11.02-4.95-14.29-11.68-14.29-11.68
	c-1.76-7.54,0.46-14.81,2.96-20h0.01c4.67-2.92,8-4.76,8-4.76s1.35-0.21,3.02-1.33l1.87,23.34
	C465.76,435.1,471.85,432.8,479.01,430.63z"/>
<path fill="#FFFFFF" stroke="#000000" stroke-miterlimit="10" d="M379.61,615.31c-2.1,3.66-15.16,22.34-17.32,27.95
	c-2.16,5.62-4.51,34.62-4.11,43.12c0.02,0.41,0.05,0.8,0.11,1.17c-7.99-0.02-6.86-6.16-9.51-26.51c-0.96-7.3,0.21-14.62,2.24-21.2
	c0-0.01,0-0.01,0-0.01c4.13-13.32,11.85-23.56,12.91-24.26c1.19-0.79,9.62-9.96,13.6-14.32
	C383.99,605.69,381.67,611.72,379.61,615.31z"/>
<path fill="#FFFFFF" stroke="#000000" stroke-miterlimit="10" d="M399.74,623.24c-2.33,1.44-5.53,3.19-8.25,3.84
	c-0.07,0.18-0.13,0.36-0.21,0.54c1.88-5.73,1.9-13.87,1.9-13.87S396.02,617.72,399.74,623.24z"/>
<path fill="#FFFFFF" stroke="#000000" stroke-miterlimit="10" d="M521.08,413.53c-6.8,2.94-16.32,8.17-25.34,13.4
	c-6.45,3.73-12.66,7.44-17.43,10.31c-0.02-2.42,0.23-4.62,0.7-6.61c2.86-12.18,13.62-16.78,16.57-17.82
	c0.47-0.16,0.75-0.24,0.75-0.24l1.77,0.78c0,0,9.8-3.13,14.69-3.13C514.92,410.22,518.13,411.77,521.08,413.53z"/>
<path fill="#FFFFFF" stroke="#000000" stroke-miterlimit="10" d="M532.45,422.32c-22.02,9.97-60.16,39.26-70.39,48.67
	c-0.29-0.68-0.49-1.29-0.6-1.79c-2.16-4.89,9.8-15.68,9.8-15.68s0.38-3.67,1.81-7.75c1.08-3.05,2.74-6.33,5.24-8.51v-0.01
	c4.77-2.87,10.97-6.59,17.43-10.31c9.03-5.23,18.55-10.47,25.34-13.4c3.84,2.29,7.22,4.91,7.22,4.91h2.73
	C531.47,419.73,531.95,421.02,532.45,422.32z"/>
<path fill="#FFFFFF" stroke="#000000" stroke-miterlimit="10" d="M531.03,418.44h-2.73c0,0-3.39-2.63-7.22-4.91
	c-2.95-1.76-6.16-3.31-8.29-3.31c-4.89,0-14.69,3.13-14.69,3.13l-1.77-0.78c0,0-0.27,0.08-0.75,0.24c2.9-6.37,8.3-17.36,14.11-24.61
	c6.12,5.26,13.27,11.56,18.7,16.37c-0.18,1.73-0.09,3.72,0.35,5.99c0.15,0.82,0.36,1.68,0.62,2.58
	C529.85,414.89,530.41,416.66,531.03,418.44z"/>
<path fill="#FFFFFF" stroke="#000000" stroke-miterlimit="10" d="M452.93,510.24l-0.88,4.63l-0.6,3.19l-1.55,8.16l1.1,10.23
	l0.08,0.75l-4.9,4.9c0,0-0.15-0.1-0.43-0.32c-1.54-1.18-6.92-5.74-11.56-14.87c-3.84-7.54-7.18-18.2-7.41-32.63
	c-0.43-25.26,7.78-38.42,12.41-43.81c-2.05,4.73-3.16,10.97-2.03,19.32c0.11,0.82,0.23,1.62,0.34,2.37
	c2.81,18.19,7.5,20.35,7.5,20.35S449.21,506.54,452.93,510.24z"/>
<path fill="#FFFFFF" stroke="#000000" stroke-miterlimit="10" d="M556.99,464.1c-4.5,7.83-20.89,24.94-32.5,28.28
	c-2.9,0.84-5.46,1.41-7.72,1.79c-3.82,0.66-6.72,0.77-8.74,0.7c-2.37-0.08-3.54-0.41-3.54-0.41s29.27-27.36,45.91-37.02
	c0.54,0.84,1,1.55,1.4,2.14C553.19,461.71,555.06,463.1,556.99,464.1z"/>
<path fill="#FFFFFF" stroke="#000000" stroke-miterlimit="10" d="M461,548.58c-5.98,1.12-13.77,5-17.91,7.23
	c0.58-6.66,1.87-11.56,2.65-14.04c0.27,0.22,0.43,0.32,0.43,0.32l4.9-4.9l-0.08-0.75c3.63,1.4,9.74,3.85,10.19,4.67
	C461.42,541.53,461.27,544.68,461,548.58z"/>
<path fill="#FFFFFF" stroke="#000000" stroke-miterlimit="10" d="M508.03,494.88c-3.6,7.2-11.85,21.46-19.53,25.47
	c-9.41,4.89-22.74,21.75-22.74,21.75l-10.41-11.93l-1.74-6.69l-2.17-5.42l0.6-3.19l0.88-4.63c0.02,0.03,0.07,0.08,0.1,0.11
	c5.19-3.94,12.44-15.89,16.91-23.85c1.33,2.78,3.13,5.93,4.85,6.89c0.07,0.04,0.12,0.07,0.19,0.1c3.33,1.57,13.33-4.39,13.33-4.39
	s-1.57,7.92-0.98,8.11c0.58,0.19,4.69,2.94,4.69,2.94l12.47-5.68C504.49,494.47,505.65,494.8,508.03,494.88z"/>
<path fill="#FFFFFF" stroke="#000000" stroke-miterlimit="10" d="M516.77,494.18c-2.57,5.51-8.42,17.7-13.55,25.7
	c-1.87,2.92-3.64,5.28-5.12,6.54c-6.86,5.88-18.81,12.15-20.97,15.68c-2.16,3.53-13.72,13.54-13.72,13.54l2.35-13.54
	c0,0,13.33-16.86,22.74-21.75c7.67-4,15.93-18.26,19.53-25.47C510.05,494.95,512.95,494.84,516.77,494.18z"/>
<path fill="#FFFFFF" stroke="#000000" stroke-miterlimit="10" d="M576.09,474.04c-0.76,3.39-2.22,8.63-4.9,15.03
	c-3.78,9.01-9.98,20.33-20.11,32.13c0.16-0.34,0.32-0.67,0.45-0.99l-3.13-2.75l-4.31-1.31l-3.66,0.54l-3.4-3.8l1.57-5.87l-4.78,0.52
	l-6.06,0.66c0,0-6.21-1.86-24.53,11.68c5.12-7.99,10.97-20.19,13.55-25.7c2.25-0.38,4.82-0.96,7.72-1.79
	c11.61-3.34,28.01-20.45,32.5-28.28c3.95,2.06,8.11,2.4,8.91,3.72C566.83,469.38,572.23,471.69,576.09,474.04z"/>
<path fill="#FFFFFF" stroke="#000000" stroke-miterlimit="10" d="M552.96,540.52c-4.71,16.08-4.9,21.56-4.9,21.56l-3.93-1.62
	c0.18-0.71,0.38-1.26,0.59-1.53c1.09-1.31-1.18-8.22,0-14.3c1.18-6.07,0-8.22,0-8.22l2.43-8.91c1.67-2.32,3.01-4.46,3.9-6.29
	l0.01-0.01c10.13-11.8,16.33-23.12,20.11-32.13c3-1.52,5.95-2.48,6.66-0.87C579.42,491.74,557.67,524.46,552.96,540.52z"/>
<path fill="#FFFFFF" stroke="#000000" stroke-miterlimit="10" d="M551.52,520.21c-0.13,0.32-0.29,0.65-0.45,0.99l-0.01,0.01
	c-0.89,1.83-2.23,3.97-3.9,6.29c-8,11.12-23.55,26.3-33.38,30.07c-3.2,1.22-7.27,3.41-11.53,5.99
	c-12.14,7.31-25.89,17.71-25.89,17.71s-3.93,5.49-26.65,15.68c-1.95-4.69-3.4-9.24-4.44-13.57c-0.68-2.77-1.2-5.44-1.57-8.03
	c15.68-7.65,67.12-34.53,90.13-67.83l4.78-0.52l-1.57,5.87l3.4,3.8l3.66-0.54l4.31,1.31L551.52,520.21z"/>
<path fill="#FFFFFF" stroke="#000000" stroke-miterlimit="10" d="M542.97,568.81l2.65,5.61c0,0-0.09,0.43-0.34,1.19
	c-0.9,2.77-3.89,9.92-12.15,16.16c-1.25,0.96-2.64,1.88-4.16,2.77c0,0.01,0,0.01,0,0.01c-2.47,1.45-5.3,2.8-8.54,3.97
	c-2.19,0.79-4.4,1.58-6.61,2.37c-3.06,1.09-6.11,2.17-9.1,3.19c-3.96,1.36-7.81,2.62-11.41,3.71c-11.19,3.36-20.04,5-22.64,2.3
	c-0.35-0.36-0.64-0.77-0.86-1.22c-2.74-5.39,2.65-16.38,5.37-18.37c2.94-2.16,1.36-11.17,11.95-11.57
	c10.25-0.37,11.85-2.41,11.94-2.53c-0.2,0.04-5.28,1.32-5.28-0.21c0-1.08,4.96-8.03,8.46-12.62c4.27-2.58,8.33-4.77,11.53-5.99
	c9.83-3.77,25.38-18.96,33.38-30.07l-2.43,8.91c0,0,1.18,2.16,0,8.22c-1.18,6.08,1.09,13,0,14.3c-0.21,0.26-0.42,0.81-0.59,1.53
	C543.41,563.33,542.97,568.81,542.97,568.81z"/>
<path fill="#FFFFFF" stroke="#000000" stroke-miterlimit="10" d="M507.23,653.07c-1.3-0.78-15.67,2.59-15.67,2.59
	s-5.2,1.31-10.36-0.81c-0.51-0.21-1.01-0.45-1.52-0.74c-0.31-0.18-0.69-0.41-1.15-0.73c-3.67-2.43-12.03-8.96-20.76-16.62
	c-2.41-10.75-1.3-21.96-0.4-27.75c1.03,1.19,2.03,2.08,2.89,2.43c2.95,0.35,6.8-1.2,9.53-2.57c0.22,0.45,0.51,0.86,0.86,1.22
	c2.59,2.7,11.45,1.07,22.64-2.3C490,627.81,508.43,653.79,507.23,653.07z"/>
<path fill="#FFFFFF" stroke="#000000" stroke-miterlimit="10" d="M517.82,646.54c-3.27-3.79-10.71-12.93-12.68-21.43
	c-1.31-5.68-0.87-15.29-0.43-21.02c2.99-1.02,6.05-2.1,9.1-3.19c0.12,5.65,0.55,17.69,2.05,20.17
	C517.82,624.33,520.43,638.05,517.82,646.54z"/>
<path fill="#FFFFFF" stroke="#000000" stroke-miterlimit="10" d="M549.3,699.97c-2.1,2.72-6.32,6.92-9.39,9.87
	c-2.45-0.82-5.04-1.59-7.72-2.3c-15.79-4.1-24.56,3.61-27.11,6.38c-9.01-15.26-18.44-34.65-23.87-59.07
	c5.16,2.12,10.36,0.81,10.36,0.81s14.37-3.38,15.67-2.59c1.2,0.71-17.23-25.26-13.93-45.28c3.61-1.09,7.45-2.34,11.41-3.71
	c-0.44,5.73-0.88,15.34,0.43,21.02c1.97,8.5,9.41,17.64,12.68,21.43c2.61-8.49,0-22.21-1.96-25.48c-1.5-2.47-1.92-14.51-2.05-20.17
	c2.21-0.79,4.42-1.58,6.61-2.37c3.24-1.17,6.07-2.52,8.54-3.97c1.17,3.99,3.17,12.81,0.38,19.2c-3.69,8.49-10.36,23.51-4.87,35.01
	c5.49,11.49,24.43,26.77,26.12,32.14C552.32,686.25,552.83,695.39,549.3,699.97z"/>
<path fill="none" stroke="#000000" stroke-miterlimit="10" d="M481.21,654.85c-0.55-2.46-1.06-4.97-1.52-7.53"/>
<path fill="#FFFFFF" stroke="#000000" stroke-miterlimit="10" d="M587.81,727.95c-3.6,2.05-7.81,4.75-13.43,7.16
	c-2.1,0.9-5.19,1.36-8.91,1.5c-15.09,0.55-40.35-4.21-49.98-6.17c-2.44-3.72-5.1-7.8-7.84-12.25c2.27-2.23,6.36-5.29,12.91-6.98
	c4.21-1.09,9.96-0.16,16.19,1.62c10.17,2.91,21.63,8.1,29.81,10.53c-1.24-1.55-10.06-7.41-23.1-12.26
	c2.78-3.08,7.1-6.14,10.29-11.51c4.18-7.06,1.57-19.6,0-21.69c-1.56-2.09-18.81-20.11-24.39-29.79c-5.57-9.66-0.69-21.95,3.22-34.35
	c2.95-9.31,1.47-18.14,0.55-21.98c8.26-6.25,11.25-13.39,12.15-16.16c0,0,7.16,6.4,6.25,10.05c-0.91,3.66,1.18,14.37,1.96,16.72
	c0.79,2.35-0.78,11.24,0,13.72c0.79,2.47,15.16,32,21.95,64.4c6.8,32.39,9.15,44.42,10.72,45.72
	C586.4,726.43,586.98,727.03,587.81,727.95z"/>
<path fill="#FFFFFF" stroke="#000000" stroke-miterlimit="10" d="M617.52,798.02c-8.59-2.57-18.91-7.03-28.5-15.62
	c-15.16-13.61-21.36-35.49-23.54-45.8c3.72-0.13,6.81-0.59,8.91-1.5c5.62-2.41,9.83-5.11,13.43-7.16
	c4.4,4.85,15.48,18.44,17.67,28.32C608.07,767.94,606.28,783.48,617.52,798.02z"/>
<path fill="#FFFFFF" stroke="#000000" stroke-miterlimit="10" d="M641.42,826.69c-6.45-3.08-13.99-6.17-21.67-9.2
	c-13.8-5.48-28.08-10.79-37.53-15.59h-0.01c-3.49-1.78-6.32-3.5-8.21-5.12c-0.43-0.37-0.87-0.79-1.3-1.24
	c-10.54-11.07-21.02-45.75-30.19-48.24c-5.46-1.48-15.28-6.36-22.65-10.24c-0.01,0-0.01-0.01-0.01-0.01
	c-1.35-2.07-2.8-4.27-4.35-6.61c9.63,1.96,34.9,6.72,49.98,6.17c2.18,10.3,8.38,32.18,23.54,45.8c9.59,8.6,19.91,13.05,28.5,15.62
	c0.08,0.11,0.15,0.21,0.24,0.32C623.42,805.54,632.68,815.9,641.42,826.69z"/>
<path fill="#FFFFFF" stroke="#000000" stroke-miterlimit="10" d="M572.7,795.53c-4.35,5.55-12.02,13.83-12.94,17.7
	c-0.24,1.02-1.06,2.22-2.22,3.54c-3.63,4.08-10.63,9.21-14.46,13.08c-1.21-4.43-2.54-11.72-0.04-28.38
	c-6.53-24.04-12.74-32.66-14.73-47.55c-0.56-4.21-3.83-9.73-8.44-16.87c7.37,3.88,17.19,8.75,22.65,10.24
	C551.68,749.77,562.16,784.45,572.7,795.53z"/>
<path fill="#FFFFFF" stroke="#000000" stroke-miterlimit="10" d="M648.59,900.5c-12.8,3.13-33.7-6.53-33.7-6.53
	s-0.01-0.02-0.02-0.05c0-0.02-0.01-0.05-0.03-0.09c-0.03-0.1-0.09-0.24-0.15-0.43c-0.02-0.07-0.04-0.13-0.07-0.21
	c-0.01-0.04-0.03-0.09-0.04-0.13c-0.01-0.03-0.02-0.07-0.03-0.1c-0.92-3.08-2.92-13,3.68-27.33c3.4-7.38,5.04-16.13,5.27-24.51
	c6.69,3.02,23.22,12.53,32.67,35.69c0,0.01,0.01,0.02,0.01,0.03C657.08,881.38,659.6,897.81,648.59,900.5z"/>
<path fill="#FFFFFF" stroke="#000000" stroke-miterlimit="10" d="M655.9,875.67c0,0,0.1,0.41,0.25,1.13
	c-9.45-23.16-25.98-32.67-32.67-35.69c0.25-9.04-1.13-17.64-3.74-23.63c7.69,3.03,15.22,6.12,21.67,9.2
	c9.01,11.14,17.44,22.72,20.76,31.74C668.71,876.2,655.9,875.67,655.9,875.67z"/>
<path fill="#FFFFFF" stroke="#000000" stroke-miterlimit="10" d="M614.89,893.97c0,0-8.37,27.43-25.34,24.82
	C572.56,916.18,560.8,889,560.8,889c-0.4-25.01,16.06-38.86,21.35-45.14c4.17-4.93,6.63-23.32,7.49-30.94
	c2.28,3.32,4.29,6.2,5.26,7.43c2.94,3.72,8.62,24.65,10.19,37.7c1.36,11.42,7.84,30.35,9.45,34.9c0.01,0.03,0.02,0.07,0.03,0.1
	c0.01,0.04,0.03,0.09,0.04,0.13c0.02,0.08,0.04,0.14,0.07,0.21c0.07,0.19,0.12,0.33,0.15,0.43c0.02,0.03,0.03,0.07,0.03,0.09
	C614.88,893.95,614.89,893.97,614.89,893.97z"/>
<path fill="#FFFFFF" stroke="#000000" stroke-miterlimit="10" d="M589.64,812.92c-0.86,7.62-3.32,26.02-7.49,30.94
	c-5.29,6.28-21.75,20.12-21.35,45.14c0,0-14.85-6.53-15.53-19.59c-0.18-3.44-0.67-6.59-1.23-9.49c3.09-4.06,7.62-8.27,11.47-13.11
	c5.06-6.37,3.29-22.18,2.02-30.04c1.17-1.32,1.98-2.52,2.22-3.54c0.92-3.87,8.59-12.15,12.94-17.7c0.43,0.45,0.87,0.87,1.3,1.24
	c1.89,1.63,4.73,3.34,8.21,5.12h0.01C584.29,804.99,587.13,809.23,589.64,812.92z"/>
<path fill="#FFFFFF" stroke="#000000" stroke-miterlimit="10" d="M555.51,846.81c-3.85,4.84-8.38,9.05-11.47,13.11
	c-1.56-8.1-3.64-14.4-0.75-20.56c1.84-3.91,0.86-5.6-0.22-9.5c3.83-3.87,10.83-9.01,14.46-13.08
	C558.8,824.63,560.57,840.44,555.51,846.81z"/>
<path fill="#FFFFFF" stroke="#000000" stroke-miterlimit="10" d="M420.5,610.86c-1.14,3.36-2.14,7.05-2.88,10.98
	c-1.12,6.06-2.79,14.17-4.54,22.62c-3.71-6.69-9.09-14.95-13.34-21.22c-3.73-5.52-6.55-9.49-6.55-9.49s-0.75-4.02-1.66-9.88
	c5.13-9.66,16.81-12.33,16.81-12.33C407.76,593.1,415.88,603.89,420.5,610.86z"/>
<path fill="#FFFFFF" stroke="#000000" stroke-miterlimit="10" d="M457.78,636.76c-8.18-7.18-16.67-15.34-21.9-22.02
	c-1.42-1.8-2.59-3.51-3.46-5.05c-3.05-5.4-4.28-10.41-4.54-14.96c0.3-0.52,0.59-0.98,0.85-1.42l0.01-0.01
	c5.1-3.66,12.06-7.53,16.53-9.91c1.04,4.33,2.5,8.87,4.44,13.57c0,0,4.06,7.85,7.69,12.05
	C456.48,614.81,455.37,626.01,457.78,636.76z"/>
<path fill="#FFFFFF" stroke="#000000" stroke-miterlimit="10" d="M428.33,828.64c0.35,3.4-1.91,20.74-3.98,30.6
	c-0.22,0.26-0.44,0.54-0.68,0.82c-3.72,4.34-10.01,9.38-20.02,11.42c-14.26,2.91-22.25-6.5-25.43-11.53
	c-4.65,3.12-12.01,6.37-18.46,1.74c-10.39-7.44,12.93-21.17,12.93-21.17s0.78-5.09,1.96-8.22c1.18-3.13,17.05-12.35,18.62-15.68
	c1.57-3.33,2.75-8.62,4.9-12.93c2.16-4.31,8.22-3.53,8.22-3.53s0,0,0.01-0.01c0.48-0.25,12.89-6.78,20.24,1.58
	c3.03,3.45,5.34,6.66,7.02,9.31C430.12,817.07,428.07,826.09,428.33,828.64z"/>
<path fill="#FFFFFF" stroke="#000000" stroke-miterlimit="10" d="M461.71,813.72c-4.68-2.76-16.44-9.24-22.01-8.2
	c-2.3,0.43-4.34,2.63-6.05,5.53c-1.67-2.65-3.98-5.86-7.02-9.31c-7.36-8.37-19.76-1.84-20.24-1.58c0.07-0.26,2.73-10.21,1.92-12.92
	c-0.32-1.07-0.34-7.97-0.31-16.15c3.58,1.61,16.23,6.83,22.02,3.47c-0.13,4.31,16.06,9.28,15.67,15.81
	c-0.19,3.2,6.36,7.21,14.13,9.8v0.01C460.65,803.44,461.69,808.64,461.71,813.72z"/>
<path fill="#FFFFFF" stroke="#000000" stroke-miterlimit="10" d="M480.09,801.95c-4.95,1.77-13.12,0.59-20.25-1.77v-0.01
	c-7.77-2.58-14.32-6.6-14.13-9.8c0.4-6.53-15.8-11.5-15.67-15.81c-5.79,3.35-18.44-1.87-22.02-3.47c0.05-9.83,0.2-21.52,0.04-27.19
	c4.78,1.52,9.14,2.52,11.66,2.19c8.1-1.04,4.71-10.71,10.39-11.49c5.67-0.79,12.34,12.8,14.37,15.15
	c1.57,1.83,11.77,3.02,16.24,3.46c1.64,3.33,2.99,5.68,2.99,5.68s2.65,3.78,5.26,9.93c1.5,3.51,5.51,6.98,8.68,9.3
	c0.44,5.96,0.57,10.9,0.47,13.82C478,794.95,478.93,798.62,480.09,801.95z"/>
<path fill="#FFFFFF" stroke="#000000" stroke-miterlimit="10" d="M460.71,753.21c-4.48-0.44-14.67-1.64-16.24-3.46
	c-2.03-2.35-8.7-15.94-14.37-15.15c-5.68,0.78-2.29,10.45-10.39,11.49c-2.52,0.33-6.87-0.67-11.66-2.19
	c-10.36-3.3-22.8-9.07-23.33-9.32c0.54,0.2,14.16,5.33,23.28,7.69c4.28,1.1,7.55,1.59,8.05,0.69c1.57-2.87-13.01-9.66-12.38-10.45
	c0.63-0.79,6.56-0.53,6.48-2.88c-0.1-2.35-8.66-5.55-6.48-6.95c2.2-1.41,5.52-3.23,6.48-2.19c0.95,1.04,10.87,1.83,11.66,3.65
	c0.78,1.84-2.12,6.8-0.27,7.58c1.85,0.79,1.48-0.52,4.41-0.52s6.84,0.26,6.84,0.26s-3.75-3.4-6.84-6.15
	c-3.09-2.74-6.74-2.84-9.88-5.15c-3.13-2.3-7.11-4.39-7.73-5.3c-0.63-0.91-1.14-5.64-3.24-4.98c-1.25,0.41-3.25,0.31-4.6-0.15
	c0.44-1.78,0.9-3.73,1.34-5.71c2.22-0.95,5.88-2.08,8.32-0.66c3.68,2.16,7.02,5.79,8.39,6.52c1.32,0.7,11.91,1.81,15.75,3.64h0.01
	c0.16,0.08,0.31,0.15,0.44,0.23c3.4,1.96,10.65-6.66,14.57-6.86c2.21-0.11,5.41,0.85,7.78,1.72c0.31,0.48,0.65,0.9,1.03,1.28
	c2.62,2.51,5.71,4.71,8.57,6.63c0.11,0.65,0.2,1.21,0.26,1.65c-4.26,4.24-11.03,11.67-11.83,16.56
	C454.38,739.23,457.94,747.6,460.71,753.21z"/>
<path fill="#FFFFFF" stroke="#000000" stroke-miterlimit="10" d="M426.75,683.37c2.41,9.6,5.38,21.48,7.53,30.15
	c-3.84-1.83-14.43-2.94-15.75-3.64c-1.37-0.73-4.71-4.37-8.39-6.52c-2.44-1.42-6.1-0.29-8.32,0.66c1.54-6.88,2.94-14.3,3.13-17.64
	c0.26-4.44,4.4-23.95,8.13-41.93c1.75-8.44,3.42-16.56,4.54-22.62c0.74-3.94,1.74-7.62,2.88-10.98c2.33-6.89,5.2-12.46,7.37-16.13
	c0.26,4.55,1.5,9.57,4.54,14.96c0.87,1.54,2.05,3.24,3.46,5.05C432.89,626.8,423.06,668.68,426.75,683.37z"/>
<path fill="#FFFFFF" stroke="#000000" stroke-miterlimit="10" d="M432.77,731.46c0,0-3.91-0.26-6.84-0.26s-2.56,1.31-4.41,0.52
	c-1.85-0.78,1.06-5.74,0.27-7.58c-0.78-1.83-10.71-2.61-11.66-3.65c-0.96-1.04-4.28,0.78-6.48,2.19c-2.19,1.4,6.38,4.6,6.48,6.95
	c0.09,2.35-5.85,2.09-6.48,2.88c-0.63,0.78,13.95,7.58,12.38,10.45c-0.49,0.9-3.77,0.41-8.05-0.69c-0.04-0.84-0.1-1.41-0.18-1.66
	c-0.78-2.74-9.41-7.84-9.93-10.31c-0.53-2.48-1.7-8.88,0-11.98c0.58-1.07,1.55-4.39,2.58-8.57c1.34,0.46,3.34,0.56,4.6,0.15
	c2.1-0.66,2.62,4.07,3.24,4.98c0.62,0.91,4.6,3,7.73,5.3c3.14,2.31,6.8,2.41,9.88,5.15C429.02,728.06,432.77,731.46,432.77,731.46z"
	/>
<path fill="#FFFFFF" stroke="#000000" stroke-miterlimit="10" d="M464.54,850.77c-3.61,5.18-12.24,15.87-22.88,17.2
	c-8.9,1.11-14.59-3.68-17.59-7.39c0.09-0.42,0.19-0.87,0.29-1.33c2.07-9.86,4.33-27.2,3.98-30.6c-0.26-2.55,1.79-11.58,5.32-17.59
	c1.7-2.9,3.75-5.1,6.05-5.53c5.57-1.03,17.33,5.44,22.01,8.2c0.01,2.66-0.25,5.3-0.98,7.61c-3,9.53,2.97,28.16,2.97,28.16
	C463.93,849.87,464.22,850.29,464.54,850.77z"/>
<path fill="#FFFFFF" stroke="#000000" stroke-miterlimit="10" d="M479.69,859.34c-6.7,2.1-12.42-4.57-15.15-8.58
	c-0.32-0.47-0.6-0.9-0.84-1.28c0,0-5.97-18.63-2.97-28.16c0.73-2.31,0.99-4.95,0.98-7.61c-0.02-5.08-1.07-10.28-1.88-13.55
	c7.14,2.36,15.31,3.54,20.25,1.77c1.75,5.06,4.04,9.32,4.04,9.32s1.83,5.09,2.74,10.71c0.91,5.62,4.77,5.42,7.91,17.19
	C497.9,850.92,489.08,856.41,479.69,859.34z"/>
<path fill="#FFFFFF" stroke="#000000" stroke-miterlimit="10" d="M477.63,778.12c-3.17-2.32-7.18-5.79-8.68-9.3
	c-2.61-6.15-5.26-9.93-5.26-9.93s-1.35-2.35-2.99-5.68c-2.77-5.61-6.33-13.98-5.6-18.48c0.8-4.89,7.58-12.31,11.83-16.56
	c0.12,0.73,0.19,1.14,0.19,1.14s1.57,8.88,5.75,26.39C475.46,756.46,476.94,768.6,477.63,778.12z"/>
<path fill="#FFFFFF" stroke="#000000" stroke-miterlimit="10" d="M478.54,653.39c-1.7,3.71-5.95,13.68-7.67,20.98
	c-3.72,2.72-9.19,6.65-11.37,7.83c-3.21,1.75-6.94,19.41-2.41,26.41c-2.38-0.87-5.57-1.83-7.78-1.72
	c-3.91,0.2-11.17,8.82-14.57,6.86c-0.13-0.08-0.27-0.15-0.44-0.23h-0.01c-2.16-8.66-5.12-20.55-7.53-30.15
	c-3.68-14.69,6.15-56.57,9.13-68.63c5.23,6.69,13.72,14.84,21.9,22.02C466.51,644.43,474.86,650.96,478.54,653.39z"/>
<path fill="#FFFFFF" stroke="#000000" stroke-miterlimit="10" d="M470.14,678.68c-0.52,7.83-6,19.33-5.49,23.9
	c0.36,3.19,1.43,10.06,2.03,13.93c-2.86-1.92-5.95-4.12-8.57-6.63c-0.38-0.37-0.73-0.79-1.03-1.28c-4.53-7-0.8-24.66,2.41-26.41
	c2.18-1.18,7.65-5.11,11.37-7.83C470.48,675.96,470.22,677.43,470.14,678.68z"/>
<path fill="#FFFFFF" stroke="#000000" stroke-miterlimit="10" d="M566.55,723.35c-8.18-2.43-19.64-7.62-29.81-10.53
	c-6.22-1.78-11.97-2.7-16.19-1.62c-6.55,1.69-10.64,4.75-12.91,6.98c-0.85-1.39-1.7-2.8-2.57-4.27c2.55-2.77,11.33-10.48,27.11-6.38
	c2.68,0.7,5.27,1.47,7.72,2.3c1.21,0.42,2.4,0.84,3.54,1.25C556.49,715.94,565.31,721.8,566.55,723.35z"/>
<path fill="#FFFFFF" stroke="#000000" stroke-miterlimit="10" d="M553.74,699.58c-3.19,5.38-7.51,8.43-10.29,11.51
	c-1.14-0.42-2.33-0.84-3.54-1.25c3.07-2.96,7.29-7.16,9.39-9.87c3.53-4.57,3.01-13.71,1.31-19.07
	c-1.69-5.37-20.64-20.65-26.12-32.14c-5.49-11.5,1.18-26.52,4.87-35.01c2.78-6.39,0.78-15.21-0.38-19.2c0,0,0,0,0-0.01
	c1.52-0.89,2.9-1.81,4.16-2.77c0.92,3.84,2.4,12.67-0.55,21.98c-3.91,12.4-8.8,24.68-3.22,34.35c5.57,9.68,22.83,27.7,24.39,29.79
	C555.32,679.98,557.92,692.52,553.74,699.58z"/>
<path fill="#FFFFFF" stroke="#000000" stroke-miterlimit="10" d="M623.49,841.11c-0.23,8.38-1.87,17.13-5.27,24.51
	c-6.61,14.34-4.61,24.26-3.68,27.33c-1.61-4.55-8.08-23.48-9.45-34.9c-1.57-13.05-7.26-33.99-10.19-37.7
	c-0.97-1.23-2.98-4.11-5.26-7.43c-2.52-3.69-5.35-7.93-7.42-11.03c9.44,4.8,23.73,10.12,37.53,15.59
	C622.36,823.48,623.74,832.08,623.49,841.11z"/>
<path fill="#FFFFFF" stroke="#000000" stroke-miterlimit="10" d="M443.68,575.37c0.37,2.58,0.89,5.26,1.57,8.03
	c-4.46,2.38-11.42,6.25-16.53,9.91l-0.01,0.01c-0.3,0.22-0.59,0.43-0.88,0.65c-0.24-6.99,1.76-12.83,2.85-17.19
	c-0.23-1.24-0.4-2.68-0.48-4.29c-0.8-13.08,2.61-36.76,3.98-45.58c4.64,9.13,10.02,13.69,11.56,14.87
	c-0.78,2.48-2.07,7.38-2.65,14.04v0.01C442.6,561.27,442.58,567.9,443.68,575.37z"/>
<path fill="#FFFFFF" stroke="#000000" stroke-miterlimit="10" d="M499.06,576.4c-0.09,0.12-1.69,2.16-11.94,2.53
	c-10.59,0.4-9.02,9.41-11.95,11.57c-2.72,1.99-8.1,12.99-5.37,18.37c-2.74,1.37-6.59,2.92-9.53,2.57c-0.86-0.35-1.86-1.24-2.89-2.43
	c-3.63-4.2-7.69-12.05-7.69-12.05c22.73-10.19,26.65-15.68,26.65-15.68s13.76-10.4,25.89-17.71c-3.5,4.6-8.46,11.55-8.46,12.62
	C493.79,577.72,498.87,576.44,499.06,576.4z"/>
<path fill="#FFFFFF" stroke="#000000" stroke-miterlimit="10" d="M619.65,471.52c-4.62-3.02-11.47-7.74-17.96-13.1
	c-11.24-9.28-18.16-33.18-29.4-43.11c-9.69-8.57-36.3-12.41-43.42-13.32c-0.23,0.79-0.4,1.65-0.48,2.58
	c-0.18,1.73-0.09,3.72,0.35,5.99c3.78,0.92,13.11,3.9,17.43,11.4c5.49,9.53,7.84,23.26,24.7,32.66c3.54,1.98,7.81,4.26,12.41,6.72
	c15,8.04,33.58,18.18,42.57,27.21C624.24,483.58,621.85,477.54,619.65,471.52z M565.98,439.88c-4.4-4.19-8.97-15.43-8.97-15.43
	s6.4,7.31,12.81,9.4c6.4,2.09,8.11,11.11,8.11,11.11S570.37,444.08,565.98,439.88z"/>
<path fill="#FFFFFF" stroke="#000000" stroke-miterlimit="10" d="M627.82,497.41c0,5.46-1.22,14.74-2,23.43
	c-11.52-16.22-31.81-44.53-42.54-59.5c15,8.04,33.58,18.18,42.57,27.21C627.04,492.21,627.82,495.3,627.82,497.41z"/>
<path fill="#FFFFFF" stroke="#000000" stroke-miterlimit="10" d="M577.93,444.96c0,0-7.56-0.88-11.95-5.08
	c-4.4-4.19-8.97-15.43-8.97-15.43s6.4,7.31,12.81,9.4C576.22,435.95,577.93,444.96,577.93,444.96z"/>
<path fill="#FFFFFF" stroke="#000000" stroke-miterlimit="10" d="M533.81,507.54c-23.01,33.3-74.45,60.18-90.13,67.83
	c-1.1-7.47-1.08-14.1-0.59-19.54v-0.01c4.15-2.23,11.93-6.11,17.91-7.23c0.27-3.9,0.42-7.05,0.19-7.47
	c-0.45-0.82-6.56-3.28-10.19-4.67l-1.1-10.23l1.55-8.16l2.17,5.42l1.74,6.69l10.41,11.93l-2.35,13.54c0,0,11.57-10.01,13.72-13.54
	c2.16-3.53,14.11-9.8,20.97-15.68c1.48-1.26,3.25-3.62,5.12-6.54c18.32-13.54,24.53-11.68,24.53-11.68L533.81,507.54z"/>
<path fill="#FFFFFF" stroke="#000000" stroke-miterlimit="10" d="M543.37,445.47c-19.48,6.21-60.08,40.61-68.58,47.93
	c-1.72-0.97-3.52-4.11-4.85-6.89c-1.21-2.53-2.02-4.76-2.02-4.76s-1.9-3.02-3.66-6.25c-0.85-1.56-1.66-3.17-2.2-4.51
	c10.24-9.4,48.37-38.69,70.39-48.67C535.58,430.49,539.66,438.69,543.37,445.47z"/>
<path fill="#FFFFFF" stroke="#000000" stroke-miterlimit="10" d="M550.39,457.45c-16.64,9.66-45.91,37.02-45.91,37.02l-12.47,5.68
	c0,0-4.11-2.75-4.69-2.94c-0.59-0.2,0.98-8.11,0.98-8.11s-9.99,5.96-13.33,4.39c-0.07-0.03-0.12-0.05-0.19-0.1
	c8.5-7.32,49.09-41.72,68.58-47.93C546.07,450.42,548.59,454.59,550.39,457.45z"/>
<path fill="#FFFFFF" stroke="#000000" stroke-miterlimit="10" d="M473.06,445.76c-1.43,4.08-1.81,7.75-1.81,7.75
	s-11.95,10.79-9.8,15.68c0.11,0.51,0.32,1.11,0.6,1.79c0.54,1.34,1.35,2.95,2.2,4.51c-9.04,8.36-19.26,17.02-19.26,17.02
	s-4.68-2.17-7.5-20.35c2.99-3.42,14.32-15.78,26.7-22.64C467.12,447.9,470.11,446.58,473.06,445.76z"/>
<path fill="#FFFFFF" stroke="#000000" stroke-miterlimit="10" d="M469.94,486.5c-4.48,7.96-11.72,19.91-16.91,23.85
	c-0.03-0.03-0.08-0.08-0.1-0.11c-3.72-3.71-7.94-17.72-7.94-17.72s10.23-8.66,19.26-17.02c1.76,3.22,3.66,6.25,3.66,6.25
	S468.73,483.97,469.94,486.5z"/>
<path fill="#FFFFFF" stroke="#000000" stroke-miterlimit="10" d="M464.19,449.52c-12.38,6.86-23.71,19.22-26.7,22.64
	c-0.11-0.76-0.23-1.55-0.34-2.37c-1.12-8.35-0.01-14.59,2.03-19.32c0.26-0.31,0.52-0.58,0.75-0.84c-0.07-0.12-0.13-0.24-0.2-0.36
	c2.97-6.04,7.44-9.37,10.16-11.42C449.89,437.85,453.17,444.58,464.19,449.52z"/>
<path fill="#FFFFFF" stroke="#000000" stroke-miterlimit="10" d="M496.54,249.66c-18.55,4.18-23.78,31.35-23.78,31.35
	s15.42,17.5,33.77,14.81c18.34-2.69,22.84-27.09,22.84-27.09S515.07,245.48,496.54,249.66z M505.54,290.87
	c-12.93,2.75-25.61-6.2-28.48-12.22c0,0,2.75-9.92,8.26-17.13c2.87-3.74,6.48-6.76,10.82-7.29c7.75-0.96,14.92,2.66,20.36,7.19
	c3.5,2.9,6.28,6.19,8.05,8.87C523.38,274.61,518.47,288.13,505.54,290.87z"/>
<path fill="#FFFFFF" stroke="#000000" stroke-miterlimit="10" d="M524.55,270.3c-1.18,4.31-6.08,17.83-19.01,20.57
	c-12.93,2.75-25.61-6.2-28.48-12.22c0,0,2.75-9.92,8.26-17.13c-0.16,6.54,1.09,20.86,15.48,20.33c14.36-0.52,15.8-14.17,15.7-20.43
	C520,264.33,522.78,267.62,524.55,270.3z"/>
<path fill="#FFFFFF" stroke="#000000" stroke-miterlimit="10" d="M425.86,295.12c0,0-4.19,14.24-18.03,16.72
	c-13.84,2.48-21.03-10.71-21.03-10.71s0.58-4.44,2.47-9.3c0.8,4.42,3.41,11.78,11.87,11.63c11.13-0.18,13.89-14.16,13.89-19.48
	C421.38,288.6,425.86,295.12,425.86,295.12z"/>
<path fill="none" stroke="#000000" stroke-miterlimit="10" d="M400.13,286.69c-1.15,0-2.1,0.95-2.1,2.11c0,1.15,0.95,2.1,2.1,2.1
	c1.17,0,2.11-0.95,2.11-2.1C402.24,287.64,401.29,286.69,400.13,286.69z M400.13,286.69c-1.15,0-2.1,0.95-2.1,2.11
	c0,1.15,0.95,2.1,2.1,2.1c1.17,0,2.11-0.95,2.11-2.1C402.24,287.64,401.29,286.69,400.13,286.69z M400.13,286.69
	c-1.15,0-2.1,0.95-2.1,2.11c0,1.15,0.95,2.1,2.1,2.1c1.17,0,2.11-0.95,2.11-2.1C402.24,287.64,401.29,286.69,400.13,286.69z"/>
<path fill="#FFFFFF" stroke="#000000" stroke-miterlimit="10" d="M397.3,276.83c-16,4.44-12.34,28.48-12.34,28.48
	s10.9,13.85,25.18,10.71c14.27-3.13,18.45-22.46,18.45-22.46S413.31,272.39,397.3,276.83z M407.83,311.84
	c-13.84,2.48-21.03-10.71-21.03-10.71s0.58-4.44,2.47-9.3c2.14-5.48,5.97-11.49,12.55-12.25c4.72-0.55,9.32,1.56,13.22,4.4
	c6.36,4.62,10.83,11.14,10.83,11.14S421.67,309.36,407.83,311.84z"/>
<path fill="#FFFFFF" stroke="#000000" stroke-miterlimit="10" d="M401.81,279.58c-6.58,0.76-10.4,6.77-12.55,12.25
	c0.8,4.42,3.41,11.78,11.87,11.63c11.13-0.18,13.89-14.16,13.89-19.48C411.13,281.14,406.53,279.03,401.81,279.58z M400.13,290.91
	c-1.15,0-2.1-0.95-2.1-2.1c0-1.17,0.95-2.11,2.1-2.11c1.17,0,2.11,0.95,2.11,2.11C402.24,289.96,401.29,290.91,400.13,290.91z"/>
<path fill="none" stroke="#000000" stroke-miterlimit="10" d="M402.24,288.81c0,1.15-0.95,2.1-2.11,2.1c-1.15,0-2.1-0.95-2.1-2.1
	c0-1.17,0.95-2.11,2.1-2.11C401.29,286.69,402.24,287.64,402.24,288.81z"/>
<path fill="#FFFFFF" stroke="#000000" stroke-miterlimit="10" d="M502.96,262.02c0,2.03-1.64,3.67-3.67,3.67
	c-2.02,0-3.67-1.64-3.67-3.67c0-2.03,1.65-3.67,3.67-3.67C501.32,258.35,502.96,259.99,502.96,262.02z"/>
</svg>
