<?xml version="1.0" encoding="utf-8"?>
<!-- Generator: Adobe Illustrator 25.2.0, SVG Export Plug-In . SVG Version: 6.00 Build 0)  -->
<svg version="1.1" id="Layer_1" xmlns="http://www.w3.org/2000/svg" xmlns:xlink="http://www.w3.org/1999/xlink" x="0px" y="0px"
	 viewBox="0 0 1000 1000" style="enable-background:new 0 0 1000 1000;" xml:space="preserve">
<style type="text/css">
	.st0{fill:#FFFFFF;stroke:#000000;stroke-miterlimit:10;}
</style>
<path class="st0" d="M600,253.9c-1.5,1.8-3.1,3.9-3.8,5.9c-7.4-0.5-15.1,1.2-20.8,3.6c-2.2,0.9-4.1,2.6-5.8,4.6
	c-9.7,1.9-28.3,5.6-34.7,7.9c-7.5,2.6-28.7,7.2-34.8,8.5c-0.3-0.1-0.7-0.1-1-0.2c5.4-4.7,28-31.6,35.2-40.3c5.6,3.7,14.2,7.6,20.6,5
	c7.8-3.1,6.8-15.1,6.8-15.1l1-2.8c2.7,1.2,13.4,6.5,20.4,12.7C590.7,250.5,593.3,252.4,600,253.9z"/>
<path class="st0" d="M640,317.4c-3.1,5.6-8.7,11.2-15.7,16.5c-14.4,11-34.7,20.6-50.4,25.4c-15.4,4.7-51.4,8.3-74.1,10.1
	c-8.7,0.7-15.5,1.2-18.4,1.4c10.4-6.9,5.1-36.5,5-37.5c13,5.4,33.4,6.9,48.2,2c19.4-6.4,64.5-26.9,71.8-35.5
	c7.3-8.6,14.6-26.9,4.6-34.8c-4.2-3.3-9.5-4.8-14.8-5.2c0.8-2,2.3-4.1,3.8-5.9c0.5,0.1,1,0.2,1.5,0.3c7.8,1.7,19.1-1.9,31.1,12.4
	S649.6,300.2,640,317.4z"/>
<path class="st0" d="M606.4,299.8c-7.3,8.5-52.4,29-71.8,35.5c-14.8,4.9-35.2,3.4-48.2-2c-4.1-1.7-7.4-3.8-9.6-6.1
	c0,0,3.5-10.5,10.8-18.6c2.2-2.5,4.9-4.7,7.8-6.4c0.3-0.2,0.6-0.3,0.9-0.5c13.4-6.8,24.9-16,37.4-16.2c6.4-0.1,18.1-0.7,28-1.4
	c1.3-4.1,3.9-11.1,7.9-15.9c1.7-2.1,3.6-3.7,5.8-4.6c5.7-2.4,13.4-4.1,20.8-3.6c5.4,0.4,10.7,1.9,14.8,5.2
	C621,272.9,613.7,291.3,606.4,299.8z"/>
<path class="st0" d="M499.4,476.2l-1.2,1.2l-7.8,7.5c0,0-9.6-2.1-17.2-6.8c-3.4-2.1-6.4-4.7-7.9-7.9c-4.6-10.1,1.1-16.3-10.6-20.9
	c-11.6-4.6-25.1-3.3-31,3.5c-5.5,6.3-7,13.5,5.2,21.6c0,0,0.1,0.1,0.3,0.2c0.8,0.5,1.6,1,2.5,1.6c0,0-15.8-0.8-22.6-13.8
	c-1.6-3.1-2.2-6.7-2.1-10.4c0,0,0,0,0,0c0.2-4.5,1.4-9.1,3-13.4c0.1-0.2,0.1-0.4,0.2-0.6c1.3-3.4,2.8-6.5,4.3-9.1
	c5,3.6,15.7,11.1,15.7,11.1s11-3.1,22.9,3.6c11.9,6.6,13.7,10.8,15.2,15.8c1.5,5,2.1,11.4,3.2,12.1c1.1,0.7,17.1,8.7,17.1,8.7
	s5.6-5.8,9.3-8.4C499.5,474.6,499.4,476.2,499.4,476.2z"/>
<path class="st0" d="M465.8,498.5c-1.8-1.6-3.2-2.8-3.8-3.4c0,0-0.1-0.1-0.1-0.1c-0.8-0.8-5.1-3.5-10.2-6.7
	c-0.1-0.2-0.2-0.3-0.3-0.5c0,0.1-0.1,0.2-0.1,0.3c-8.7-5.4-19.9-12.1-22-13.4c-0.2-0.1-0.3-0.2-0.3-0.2
	c-12.1-8.1-10.7-15.3-5.2-21.6c5.9-6.8,19.4-8.1,31-3.5c11.6,4.6,5.9,10.8,10.6,20.9c1.5,3.2,4.5,5.8,7.9,7.9
	C469.6,481.1,463,488,465.8,498.5z"/>
<path class="st0" d="M563.5,518.6c-0.2,0.4-16.8,5.2-17.9,4.2c-0.3-0.3-0.9-1.2-1.6-2.5c-1.9-3.5-4.6-9.6-4.1-11.5
	c0.7-2.6,5-1.5,5.7-0.4c0.1,0.2,0.3,0.6,0.5,1.2c0.8,1.9,1.8,5.2,1.8,5.2s0.4-0.2,0.9-0.4c1.1-0.5,3-1.2,3.6-0.8
	c-1.3-1.2-3.1-4-3.9-5.3c4.1-2,12-4.9,14.9,0.1C563.5,508.3,563.7,518.2,563.5,518.6z"/>
<path class="st0" d="M601.4,402.7c-0.5,3.9-1.9,14.5-2.2,25.8c-2.5,3.7-4.6,6.9-6.4,10.6c-1.4,2.8-4.1,7.3-6.5,11.2
	c-8.8-0.1-19.5-0.5-28.4-1.1c-7-0.5-19.6-0.4-32.4-0.1v-8.2l-1.6-3.5c0,0,0,0,0,0s13.3,0,23.2,0c9.9,0,11.7,4,18,0
	c6.2-4,5.5-20.7,5.5-20.7s20-8.2,28.3-18.1C599.7,399.8,600.5,401.2,601.4,402.7z"/>
<path class="st0" d="M600.6,450.4c-2.8,0-8,0-14.4-0.2c2.4-3.9,5.1-8.5,6.5-11.2c1.8-3.6,3.9-6.9,6.4-10.6
	C598.9,436,599.2,443.9,600.6,450.4z"/>
<path class="st0" d="M624.3,333.8c-1,5-3.5,16.9-6.5,26c0,7.5,0,12.5,0,12.5s-14.1,25.8-16.4,30.3c-0.8-1.4-1.7-2.8-2.5-4.2
	c-8.9-15-14.8-23.9-14.8-23.9s-10,12.7-31.4,15.6c-21.4,2.9-41-7.8-52.1-12.5c-0.4-3.1-0.7-6-0.9-8.4c22.8-1.9,58.8-5.5,74.1-10.1
	C589.6,354.4,609.8,344.8,624.3,333.8z"/>
<path class="st0" d="M498.1,471.7c-3.7,2.6-9.3,8.4-9.3,8.4s-16-8-17.1-8.7c-1.1-0.7-1.7-7.1-3.2-12.1c-1.5-5-3.3-9.1-15.2-15.8
	c-11.9-6.6-22.9-3.6-22.9-3.6s-10.7-7.5-15.7-11.1c1.5-2.6,2.9-4.8,4-6.3c4.8-6.4,9.5-14.2,9.8-14.7c0,0,0,0,0,0s14,4.5,25,2.4
	c7.2-1.4,10.4-2.7,11.8-3.5c0.7-0.4,0.9-0.6,0.9-0.6l2.4,1.1l5.9,2.8c0,0,1.7,2.2,3.8,5.7c2.8,4.8,6.4,11.9,7.4,19.4
	c0,0.1,0,0.2,0,0.2c0.6,4.8,1.9,10,3.3,15c1.5,5.2,3.3,10,4.9,13.6c1,2.3,1.9,4.1,2.6,5.1C497.2,470,497.7,470.9,498.1,471.7z"/>
<path class="st0" d="M614.8,495c-2.3,0.2-7.9,0.2-12,0.1c-1.7-1.1-3.3-2.3-5-3.5l-0.3-4.1l-7.5-6.2c0,0-2.4,0-6-0.2c0,0,0,0,0,0
	c0,0,0,0,0,0c11.4,0,19-3.1,23-5.1C608.9,483.3,611.4,490.5,614.8,495z"/>
<path class="st0" d="M603.9,460.2c-8,0.3-24.8,0.8-43.1,1.4c-1.9-1.6-2.9-2.6-2.9-2.6s-10.6-7.7-13-7.7s-19.4,5.4-19.4,5.4l8.1,5.8
	c-17.5,0.6-32.9,1.1-39.6,1.3c-1.6-3.6-3.3-8.4-4.9-13.6c7.5-0.3,22.1-0.9,36.4-1.2c12.8-0.3,25.4-0.3,32.4,0.1
	c8.8,0.6,19.6,0.9,28.4,1.1c6.3,0.1,11.6,0.2,14.4,0.2c1.3,0,2.1,0,2.1,0S603,454.5,603.9,460.2z"/>
<path class="st0" d="M604.7,465.4c-7.7,1.1-22.6,2.1-36.2,2.9c-3.2-2.8-5.9-5.1-7.8-6.7c18.3-0.6,35.1-1.1,43.1-1.4
	C604.1,461.8,604.4,463.6,604.7,465.4z"/>
<path class="st0" d="M605.7,470.5c-10.8,2.8-21.2,3.8-29.9,4c-2.6-2.2-5.1-4.2-7.3-6.1c13.6-0.8,28.5-1.8,36.2-2.9
	C605,467,605.4,468.7,605.7,470.5z"/>
<path class="st0" d="M607,476c-3.9,2-11.6,5.1-23,5.1c-2.8-2.3-5.6-4.5-8.2-6.6c8.7-0.2,19.1-1.2,29.9-4
	C606.1,472.3,606.5,474.1,607,476z"/>
<path class="st0" d="M746.8,532.2l-8.9,11c0,0-31.9-10.9-53.6-14c-10.9-1.5-20.8-1.1-30.5-1.5h0c-9.7-0.4-19.1-1.5-29-6
	c-0.7-0.3-1.4-0.7-2.2-1c-1.2-0.6-2.4-1.2-3.7-1.9c-16.1-8.7-36.4-23.9-43.1-29v-4.9c-1.6-1.5-3.3-3-5.1-4.3h0
	c-4-2.8-8.4-5.1-13.1-6.9c0,0,0,0,0,0c-4.4-1.7-8.9-3-13.4-4.1c0,0,0,0,0,0c-0.3-0.1-0.6-0.1-0.9-0.2h0l-9.7-6.9l-8.1-5.8
	c0,0,17.1-5.4,19.4-5.4c2.3,0,13,7.7,13,7.7s1.1,1,2.9,2.6c1.9,1.6,4.5,4,7.8,6.7c2.2,1.9,4.7,4,7.3,6.1c2.6,2.1,5.3,4.4,8.2,6.6
	c-0.3,0-0.7,0-1,0c0.3,0,0.7,0,1,0c0,0,0,0,0,0c4.4,3.5,9.1,7.1,13.7,10.5c1.7,1.2,3.3,2.4,5,3.5c5.5,3.8,10.7,7,15.2,9.2
	c3.8,1.8,8.2,3.2,13,4.3c22.8,5,54.7,2.7,73.9,8.8C728.3,524.6,746.8,532.2,746.8,532.2z"/>
<path class="st0" d="M597.8,491.6c-4.6-3.3-9.3-6.9-13.7-10.5c3.5,0.1,6,0.2,6,0.2l7.5,6.2L597.8,491.6z"/>
<path class="st0" d="M493.8,515.9c0.1,0.2,0.1,0.3,0.1,0.3s-24.4-3.3-28.1-17.6c-2.8-10.5,3.8-17.5,7.4-20.4
	c7.5,4.6,17.2,6.8,17.2,6.8c1.5,0.5,2.9,0.8,4.2,1.1c-7.9,11.1-2.9,25-1.2,29c-0.5-0.1-1.1-0.3-1.6-0.4
	C491.8,514.5,492.6,515.1,493.8,515.9z"/>
<path class="st0" d="M554.7,541.6c0.1,0.3,1,0.4,2.5,0.5c-1.1,4.5-1.1,9.2-0.8,12.2c-0.2-0.1-0.5-0.2-0.7-0.2
	c-5.3-1.8-46.6-28.6-49.3-30.2c-2-1.1-9-5.7-12.5-8c-0.1-0.2-0.2-0.5-0.4-0.9c0.5,0.1,1.1,0.2,1.6,0.3c12.5,2.1,41.3,4.9,47.3,5.4
	c0,0,6.3,7.4,9,8.4c0.4,0.2,1.3,0.2,2.4,0.1c1.7,1.4,4.2,3.3,6.8,5.1C556.3,536.5,554.4,540.8,554.7,541.6z"/>
<path class="st0" d="M576.4,556.9c-3.2,4.1-14.5-0.7-20.1-2.6c-0.2-3-0.3-7.7,0.8-12.2c3.6,0.2,10.2,0,14.2-0.5
	C571.7,542.1,579.7,552.7,576.4,556.9z"/>
<path class="st0" d="M573.2,517.7c-0.2,2.2-0.5,4.2-1,5.3c-1.3,2.7-13.1,5.8-18.6,6.2c-1.1,0.1-1.9,0.1-2.4-0.1c-2.7-1-9-8.4-9-8.4
	c0.7,0.1,1.1,0.1,1.1,0.1l0.5-0.6c0.7,1.3,1.3,2.3,1.6,2.5c1.1,1,17.7-3.8,17.9-4.2c0.2-0.4,0-10.2,0-10.2c4.1,0.7,9.3,0.7,9.9,2.8
	v0C573.4,512.9,573.4,515.4,573.2,517.7z"/>
<path class="st0" d="M584.1,511.4c0,0-0.7,0-1.8-0.1c-1.4,0-3.5-0.1-5.4-0.1c-1.3,0-2.6,0-3.5,0.1c0-0.1,0-0.1,0-0.2v0
	c-0.7-2.1-5.8-2.1-9.9-2.8c-2.9-5-10.8-2.1-14.9-0.1c-0.1-0.2-0.2-0.4-0.3-0.5c0,0,0-0.1,0-0.1c0,0,0,0,0,0
	c-1.9-3.4-4.2-8.1-4.7-12.1c-0.7-5.2,2.6-8.4,5.2-10.4h0c20.8,4.4,27.2,13.4,27.2,13.4c2.6,3.6,5.5,8.3,7.1,10.9
	C583.7,510.6,584.1,511.4,584.1,511.4z"/>
<path class="st0" d="M552.5,513.5c-0.7-0.4-2.5,0.3-3.6,0.8c-0.5,0.2-0.9,0.4-0.9,0.4s-1-3.3-1.8-5.2c-0.2-0.5-0.4-0.9-0.5-1.2
	c-0.7-1.1-5-2.1-5.7,0.4c-0.5,1.9,2.2,8,4.1,11.5l-0.5,0.6c0,0-12.1-12.5-14.8-20.1c-2.1-5.9,1.7-14.1,3.5-17.6
	c4.5,0.2,9.6,0.7,15.1,1.8c0.5,0.1,0.9,0.2,1.4,0.3c-2.5,2-5.8,5.2-5.2,10.4c0.5,4,2.8,8.7,4.7,12.1c0,0,0,0,0,0c0,0,0,0,0,0.1
	c0.1,0.2,0.2,0.3,0.3,0.5c0,0,0,0,0,0C549.4,509.5,551.2,512.3,552.5,513.5z"/>
<path class="st0" d="M575.7,520.8c-1.2,1.5-4.5,6.9-5.8,12.5c-3.9-1-7-0.3-9.4,1c-2.6-1.8-5.1-3.6-6.8-5.1
	c5.4-0.4,17.3-3.5,18.6-6.2c0.5-1.1,0.8-3.1,1-5.3C573.9,518.7,574.7,519.8,575.7,520.8z"/>
<path class="st0" d="M543.5,520.8c0,0-0.4,0-1.1-0.1c-6.1-0.6-34.8-3.3-47.3-5.4c-0.5-0.1-1.1-0.2-1.6-0.3c-1.7-4-6.6-17.9,1.2-29
	c8.8,1.6,15.1-1.1,15.1-1.1s8.8-2.4,22.4-1.8c-1.8,3.5-5.5,11.7-3.5,17.6C531.4,508.3,543.5,520.8,543.5,520.8z"/>
<path class="st0" d="M586,523.7L586,523.7c-2.1,6.5-9.5,16.5-11.6,17.4c-0.5,0.2-1.6,0.4-3,0.6c-4,0.5-10.6,0.7-14.2,0.5
	c-1.4-0.1-2.4-0.2-2.5-0.5c-0.3-0.7,1.6-5,5.8-7.3c2.4-1.3,5.5-2,9.4-1c1.3-5.6,4.6-11,5.8-12.5c-1-1-1.8-2.1-2.5-3.1
	c0.2-2.3,0.2-4.8,0.2-6.5c0,0.1,0,0.1,0,0.2c0.9-0.1,2.1-0.1,3.5-0.1c1.9,0,4,0,5.4,0.1c1.3,1.7,3.6,5.1,4.2,8.8
	C586.7,521,586.5,522.3,586,523.7z"/>
<path class="st0" d="M599.3,526.3c0,1.8-2.3,15.7-2.5,16.6s-7.5,0-7.5-6.4c0-6.4,0-7.1,0-7.1s-2.5-2.4-3.3-5.7v0
	c0.5-1.4,0.7-2.6,0.5-3.5c-0.6-3.7-2.9-7.1-4.2-8.8c1.1,0,1.8,0.1,1.8,0.1s-0.5-0.8-1.2-2c3.7,1.4,8,3.3,9.8,4.6
	C595.9,516.5,599.3,524.6,599.3,526.3z"/>
<path class="st0" d="M543.3,469.4c-13.2-3-25.1-3.3-28.1-3.3c-1.9,0-3.6,1.2-5.1,2.9h-13.6c-0.7-1.1-1.6-2.9-2.6-5.1
	c6.7-0.2,22.2-0.8,39.6-1.3L543.3,469.4z"/>
<path class="st0" d="M510.1,469c-2.8,3.1-4.7,7.6-4.7,7.6l-7.3,0.8l1.2-1.2c0,0,0.1-1.6-1.3-4.5c-0.4-0.8-0.9-1.7-1.6-2.7L510.1,469
	L510.1,469z"/>
<path class="st0" d="M575.8,484.9v4.9c0,5.5,0,8.7,0,8.7s-6.4-9-27.2-13.4h0c-0.4-0.1-0.9-0.2-1.3-0.3c-5.5-1.1-10.6-1.6-15.1-1.8
	c-13.6-0.6-22.4,1.8-22.4,1.8s-6.3,2.7-15.1,1.1c-1.4-0.2-2.8-0.6-4.2-1.1l7.8-7.5l7.3-0.8c0,0,1.9-4.5,4.7-7.6
	c1.5-1.6,3.2-2.9,5.1-2.9c2.9,0,14.8,0.3,28.1,3.3h0l0.3,0.2h0c0.2,0,0.4,0,0.5,0c0,0,0,0,0,0c4.4,1,9,2.4,13.4,4.1c0,0,0,0,0,0
	c4.7,1.8,9.2,4.1,13.1,6.9h0C572.5,481.9,574.3,483.3,575.8,484.9z"/>
<path class="st0" d="M768.6,639.5c-3.4,5.9-7.9,12.6-13.4,18.1c-13.2,13.2-18.9,4.6-33.9,12.8c-15,8.2-27.9,31.2-27.9,31.2
	s-82.2-55.1-87.9-62.7c-5.7-7.6-65.9-44.7-72.4-46.1c-6.5-1.4-55.9,39.4-62.1,43.2c-6.2,3.8-41.4,29-49,35.2
	c-3.4,2.7-10.5,8.1-17.8,13.1c-0.2-0.2-0.3-0.5-0.4-0.6c-1-2.8,1.9-10.3,9.7-16.8c4.9-4.1,13.1-7.5,21-10.9
	c10.3-4.3,20-8.4,24.6-14.3l1.5-1.9c7.1-9.1,16.8-21.6,27.9-22.7l3.2-0.3l-0.5-3.2c-0.9-5.2-3.8-9.3-8.1-11.6
	c-5.2-2.8-12.1-2.5-18.9,0.6c-5,2.3-8,7.6-11.1,13.2c-5,8.8-10.2,18-24,17.6c-8.7-0.3-15.2-4.2-18.3-11.2c-4-9-1.5-21.1,6.2-30.2
	c8.4-9.9,19.9-8,32.1-6.1c8.5,1.4,16.4,2.6,23.3-0.1c12-4.7,10.2-20.8,8.9-32.5c-0.5-4.4-1.2-11.1-0.2-12.4
	c2.3-2.8,12.2-0.5,18.5,2.3l7.6,3.3l-3.7-7.4c-0.4-0.8-9.5-18.4-31.1-19.1c-10.7-0.4-16.8,7.6-22.1,14.6c-6.7,8.7-10.5,13-19,7.9
	c-3-1.8-6.5-4.6-6-7.4c0.8-5.2,12.9-10.8,19.5-12.5c0.2,0,20.3-5.2,23.3-12.2c0.7-1.5,0.6-3.2-0.2-4.6c-1.1-1.9-3.4-6.3-5.7-10.7
	c0.6,0.6,2,1.8,3.8,3.4c3.8,14.3,28.1,17.6,28.1,17.6s0-0.1-0.1-0.3c3.5,2.3,10.5,6.8,12.5,8c2.7,1.5,44,28.4,49.3,30.2
	c0.2,0.1,0.4,0.2,0.7,0.2c5.6,2,16.9,6.7,20.1,2.6c3.3-4.2-4.7-14.8-5-15.3c1.4-0.2,2.5-0.4,3-0.6c2.1-0.8,9.5-10.9,11.6-17.4
	c0.8,3.3,3.3,5.7,3.3,5.7s0,0.7,0,7.1c0,6.4,7.3,7.3,7.5,6.4s2.5-14.8,2.5-16.6c0-1.8-3.4-9.8-6.6-12.3c-1.7-1.3-6.1-3.2-9.8-4.6
	c-1.6-2.6-4.5-7.2-7.1-10.9c0,0,0-3.2,0-8.7c6.7,5.1,27.1,20.3,43.1,29l-19.3,21.8l9.4-4.8c0.2-0.1,17.8-8.9,30-2.2
	c5.5,3,11.2,7.8,16.8,12.3c7.9,6.5,16,13.2,24,15.6c3.8,1.2,6.9,1.6,9.3,1.6c2.8,0,4.8-0.6,6.1-1.3c0.8,0.8,1.6,1.5,2.3,2.3
	c4.9,5,10.5,11,16,17c-4.4-1.7-9.3-2.6-13.7-1.5c-5.1,1.3-8.9,5-11.2,11.1l-1.7,4.4l4.3-1.8c9.5-3.9,14-1.1,17.5,2.6
	c0.6,0.6,1.8,2.1,3.1,3.8c6.4,8.2,18,23,27.4,23c0.5,0,0.9,0,1.4-0.1c2.7-0.5,4.9-2.2,6.6-5.1c4.5,4.4,10,9.9,15.3,15.3
	c0,0,0,0,0.1,0.1C764.6,635.2,766.6,637.4,768.6,639.5z"/>
<path class="st0" d="M744.2,614.7c-1.1,2.4-2.6,3.7-4.3,4c-7.3,1.2-19.7-14.6-25-21.4c-1.5-1.9-2.6-3.3-3.3-4.1
	c-4.9-5.1-10.3-6.8-17.2-5.2c1.7-2.4,3.8-3.9,6.3-4.5c6.8-1.8,15.5,2.9,20.6,6.3l0,0c8.9,10,15.9,18.1,15.9,18.1
	S740,610.6,744.2,614.7z"/>
<path class="st0" d="M691.9,558.9c-2,0.5-5.4,0.6-11-1.1c-7.2-2.2-15-8.7-22.6-14.9c-5.7-4.7-11.6-9.5-17.4-12.7
	c-8.6-4.8-18.9-3.1-25.9-1l7.5-8.5c0.7,0.4,1.5,0.7,2.2,1c9.9,4.5,19.3,5.7,29,6h0C663,534.7,679.9,547.9,691.9,558.9z"/>
<path class="st0" d="M476.4,537c-2.7,3.2-2,9.2-1.1,16.9c1.2,10.3,2.6,23.2-5.1,26.2c-5.4,2.1-12.6,1-20.2-0.3
	c-12.7-2-27.1-4.4-37.7,8.1c-9.3,11-12.1,25.3-7.1,36.5c4,9,12.7,14.4,23.6,14.7c17.4,0.5,24-11.2,29.4-20.6
	c2.8-4.9,5.2-9.2,8.5-10.7c5-2.3,10-2.6,13.6-0.7c1.9,1,3.3,2.5,4.2,4.4c-12,3.1-21.5,15.3-28.5,24.4l-1.5,1.9
	c-3.6,4.7-13,8.6-22.2,12.5c-8.3,3.5-17,7.2-22.5,11.8c-8.8,7.3-13.6,17.2-11.5,23.4c0.2,0.7,0.6,1.4,1,2
	c-7.5,4.8-14.5,8.6-17.1,8.1c-3.8,2.6-2.9,7.9-2.9,7.9s5.9,21.4-1.9,40.3c-7.8,18.9-13.5,25.3-16,33.2c-2.5,7.8-7,27.1-13.4,32.4
	c1.2,6.6,5,13,0,23c2,13-2.9,42.6-2.9,42.6s-15.5,12.8-27.3,11.4c-7.5-0.9-10.2-3.2-18.2-6.3c-4.4-1.8-10.5-3.8-19.9-6.1
	c-17.8-4.3-38.8-14.1-50.4-19.9c-5.6-2.8-9.1-4.7-9.1-4.7s24.6-29.6,44.2-92.3c19.6-62.7,16-61.3,40.3-111.6c0,0,65.2-75.9,87-96.8
	c21.7-20.8,36-33.7,43.8-38.5c5.5-3.4,12.4-15,15.8-22.1c0.1,0.1,0.2,0.2,0.4,0.2c2.4,4.6,8.4,16,10.6,20.1
	c-1.5,2.1-10.1,6.2-19.1,8.4c-0.2,0.1-22.2,5.9-23.9,17.4c-0.7,4.9,2.2,9.4,8.8,13.4c13.4,8.1,20.9-1.6,26.8-9.4
	c4.9-6.4,9.6-12.5,17.1-12.2c9.5,0.3,16.1,4.6,20.3,8.6C486.7,533.2,479.9,532.9,476.4,537z"/>
<path class="st0" d="M299.7,880c-8.4,12.2-30.6,43.1-42.7,49c-0.3-0.7-0.6-1.3-0.9-1.9c-3.9-7.9-11.2-12.3-19.4-14.6
	c-3.9-1.1-8.1-1.8-12.1-2h0c-2.4-0.2-4.8-0.3-7.1-0.2c-2.8,0-5.4,0.1-7.8,0.3c-2.9,0.2-5.5,0.6-7.5,0.8c-2.8,0.4-4.5,0.8-4.5,0.8
	l31.8-58.2c11.7,5.8,32.6,15.5,50.4,19.9C289.2,876.2,295.2,878.2,299.7,880z"/>
<path class="st0" d="M920.4,886.5c-0.1,0.6-1-0.4-3-1.8c-2-1.4-5-3.3-9.3-4.7v0c-3.1-1-6.9-1.7-11.4-1.8c-2.8,0-5.9,0.1-9.4,0.7
	c-0.9,0.1-1.8,0.3-2.8,0.5c-3.4,0.7-6.4,1.4-9.1,2.3c-15.9,5.1-20.4,13.2-17.7,18.2c0,0.1,0.1,0.1,0.1,0.2c0.5,0.8,1.2,1.5,2,2.2
	c-5.7-1.7-10.2-7.2-10.2-15.7c-3.8-6.6-7.6-18.1-9.4-24.1c0.5-0.4,0.8-0.7,0.9-0.8c0,0,0.1-0.1,0.1-0.1c7-5.9,17.2-13.6,23.1-14.8
	c7.8-1.5,20.6-5,34.9-7.5h0c0.7-0.1,1.4-0.2,2.1-0.4c0.1,0,0.3,0,0.4-0.1c0,0.1,0.1,0.2,0.1,0.2c4.2,11.3,12.3,32.5,13.3,33.9
	C916.6,874.8,920.6,884.5,920.4,886.5z"/>
<path class="st0" d="M886.3,906.1c-0.2-0.9-0.6-1.8-1.2-2.7c-3-4.4-5.7-6.4-5.8-9c-0.1-2.3-2.4-9.1-3.9-12.8
	c-15.9,5.1-20.4,13.2-17.7,18.2c0,0.1,0.1,0.1,0.1,0.2c1.9,1,4.8,2.5,5.7,4.2c1.3,2.5,8.4,11.8,15.7,10.7
	C885,914,887.2,909.9,886.3,906.1z M881.2,908.2c-5,0.9-10.9-4.6-10.9-4.6s0.2-2.5,3.4-3.7c4.4-1.6,7.5,0,7.5,0
	S886.2,907.3,881.2,908.2z"/>
<path class="st0" d="M898.4,904.8c-0.3-2.7-8.1-14-8-14.7c0.1-0.5-2-7.3-3.1-11.2c-0.9,0.1-1.8,0.3-2.8,0.5
	c-3.4,0.7-6.4,1.4-9.1,2.3c1.5,3.7,3.8,10.5,3.9,12.8c0.1,2.6,2.8,4.6,5.8,9c0.6,0.8,1,1.7,1.2,2.7c8,10.8,12,2.6,12.1-0.8v0
	C898.4,905.1,898.4,904.9,898.4,904.8z M895.7,905.8c-3.7,0.5-7.4-3.7-7.4-3.7c0.4-0.2,6.7-1.2,6.7-1.2s2.1,2.1,2.2,3.5
	C897.2,905.2,896.8,905.7,895.7,905.8z"/>
<path class="st0" d="M907.4,900.8c-1-4.5-6.5-12.2-7.7-13.1c-0.4-2.3-2.1-6.9-3-9.5c-2.8,0-5.9,0.1-9.4,0.7
	c1.2,3.8,3.2,10.7,3.1,11.2c-0.1,0.7,7.6,12,8,14.7c0,0.2,0,0.4,0,0.6v0c3.7,2.1,7.1,0.6,8.8-2C907.6,902.7,907.6,901.8,907.4,900.8
	z M903.7,902.6c-2,0.5-5.3-3.4-5.3-3.4l2-0.6c0.4,0,3-0.5,3.6-1.4c0.5,0.8,0.9,1.7,1,2.5C905.3,901.1,904.9,902.3,903.7,902.6z"/>
<path class="st0" d="M914.5,895.8c-1.1-4.4-5.5-10.1-5.5-10.1s-0.5-3.4-0.9-5.8v0c-3.1-1-6.9-1.7-11.4-1.8c1,2.6,2.6,7.2,3,9.5
	c1.2,1,6.7,8.6,7.7,13.1c1.8,0.6,3.8,0.7,5.9-0.4C914.8,899.5,915,897.8,914.5,895.8z M909.5,898.6c-1.4-1.5-2-3.7-2-3.7
	s3.3,0.4,4.7-0.7c0.3,0.5,0.5,1,0.5,1.4C913,897.9,910.7,899.9,909.5,898.6z"/>
<path class="st0" d="M917.4,884.6c-2-1.4-5-3.3-9.3-4.7c0.4,2.4,0.9,5.8,0.9,5.8s4.4,5.7,5.5,10.1c1.5,0,3.1-0.2,4-0.8
	C919.9,894,918.4,888.1,917.4,884.6z M916.9,892.9c-0.9,0.1-1.5-1.4-1.5-1.4l2.1-0.9C917.5,890.7,917.8,892.9,916.9,892.9z"/>
<path class="st0" d="M256,927.1c-1.2,1.4-3.8,4-6.4,5.1c-3.6,1.5-3.3,0.7-6.1,3c-2.7,2.2-13.2,12.8-20.1,12
	c-5.2-0.6-9.2-2.5-10.4-4.6c-0.4-0.7-0.4-1.4-0.2-2c0.1-0.2,0.2-0.4,0.3-0.6c7.7,1.9,13.3-2.4,15.3-6.1c-2.4-1.2-8.6-1.5-8.6-1.5
	c0.1-0.2,0.2-0.4,0.2-0.5c0.9-2.7,4-7.6,7.4-9.7c2.3-1.5,6.5-6.5,9-9.5C244.8,914.8,252.1,919.2,256,927.1z"/>
<path class="st0" d="M209.5,910.5c-1.6,3-3.9,6.3-6.3,7.9c-1.7,1.2-4.6,2.6-6.7,4.7c-0.2-0.7-0.4-1.4-0.6-2.1
	c0.7-0.3,2.3-1.2,2.9-2.1c0.7-1-1.1-1.7-1.7-1.9c1.4-2.1,3.5-4.3,4.8-5.7C204,911.1,206.6,910.7,209.5,910.5z"/>
<path class="st0" d="M217.3,910.2c-0.9,3.3-5.7,7.8-11,10.3c-3.5,1.7-6.2,5.5-7.9,8.9c-0.7,1.4-1.2,2.7-1.5,3.8
	c-0.9-0.3-2.4-1.1-2.8-3.3c0.5,0,2.5,0,2.8-2.2c0.4-2.5-0.8-4.2-0.8-4.2c0.1-0.1,0.2-0.2,0.4-0.4c2.1-2.1,5-3.5,6.7-4.7
	c2.3-1.6,4.7-4.9,6.3-7.9C211.9,910.3,214.5,910.2,217.3,910.2z"/>
<path class="st0" d="M198.8,918.9c-0.6,0.9-2.2,1.7-2.9,2.1c0-0.1,0-0.1,0-0.2c-0.2-1,0.4-2.4,1.3-3.8
	C197.7,917.2,199.5,917.9,198.8,918.9z"/>
<path class="st0" d="M196.9,927.6c-0.3,2.2-2.3,2.2-2.8,2.2c-0.1-0.6-0.2-1.3-0.1-2.1c0.2-1.7,1-3,2.1-4.2
	C196.1,923.5,197.3,925.1,196.9,927.6z"/>
<path class="st0" d="M224.5,910.4c-1.4,2.4-3.2,5.4-7,9.1c-4.6,4.4-8.6,7.4-11.4,10.9c-0.2,0.3-0.4,0.5-0.6,0.8
	c-1.7,2.3-3.5,4.8-4.3,6.4c-1.3,0.5-3.4-0.2-4.2-1.4c7.3-4.1,1.8-6.8,1.5-7c1.6-3.4,4.4-7.2,7.9-8.9c5.3-2.5,10.1-6.9,11-10.3
	C219.6,910.2,222,910.2,224.5,910.4z"/>
<path class="st0" d="M196.9,936.3c-0.2-0.3-0.3-0.6-0.4-0.9c-0.1-0.5,0.1-1.3,0.4-2.3c0.3-1.1,0.8-2.4,1.5-3.8
	C198.8,929.5,204.3,932.2,196.9,936.3z"/>
<path class="st0" d="M228.5,933.8c-2,3.7-7.5,8-15.3,6.1c1.4-2.5,5.4-5.2,6.7-7.6C220,932.3,226.1,932.6,228.5,933.8z"/>
<path class="st0" d="M236.6,912.5c-2.5,3-6.7,8.1-9,9.5c-3.3,2.1-6.4,7-7.4,9.7c-0.1,0.2-0.1,0.4-0.2,0.5c-1.3,2.4-5.3,5.1-6.7,7.6
	c-0.1,0.2-0.2,0.4-0.3,0.6c-0.3,0.7-0.2,1.4,0.2,2c-1.4,0.7-3.9,1.8-5.7,2c-2.7,0.4-6.3-4.3-6.8-5.2c3.4,1.9,10.2-3.3,9.5-5.5
	c-0.7-2.2-4.8-2.6-4.8-2.6c0.2-0.3,0.4-0.6,0.6-0.8c2.7-3.6,6.8-6.5,11.4-10.9c3.8-3.6,5.6-6.7,7-9.1h0
	C228.5,910.7,232.7,911.3,236.6,912.5z"/>
<path class="st0" d="M200.7,939.3c-0.1-0.3,0-0.9,0.4-1.7c0.8-1.6,2.6-4.1,4.3-6.4c0,0,4.1,0.4,4.8,2.6
	C210.9,936,204.1,941.2,200.7,939.3z"/>
<path class="st0" d="M881.2,908.2c-5,0.9-10.9-4.6-10.9-4.6s0.2-2.5,3.4-3.7c4.4-1.6,7.5,0,7.5,0S886.2,907.3,881.2,908.2z"/>
<path class="st0" d="M897.1,904.5c0,0.7-0.3,1.2-1.5,1.3c-3.7,0.5-7.4-3.7-7.4-3.7c0.4-0.2,6.7-1.2,6.7-1.2S897.1,903,897.1,904.5z"
	/>
<path class="st0" d="M903.7,902.6c-2,0.5-5.3-3.4-5.3-3.4l2-0.6c0.4,0,3-0.5,3.6-1.4c0.5,0.8,0.9,1.7,1,2.5
	C905.3,901.1,904.9,902.3,903.7,902.6z"/>
<path class="st0" d="M909.5,898.6c-1.4-1.5-2-3.7-2-3.7s3.3,0.4,4.7-0.7c0.3,0.5,0.5,1,0.5,1.4C913,897.9,910.7,899.9,909.5,898.6z"
	/>
<path class="st0" d="M916.9,892.9c-0.9,0.1-1.5-1.4-1.5-1.4l2.1-0.9C917.5,890.7,917.8,892.9,916.9,892.9z"/>
<path class="st0" d="M410.5,156.6c-3.8,2.1-9.6,6.3-13.3,9.1c-2-5.4-4.5-10.3-7.7-13.5c0,0,10.1-6.1,15.9-5.8h0c0,0,0.1,0,0.1,0
	c0,0,0,0.1,0,0.1C407.3,150.6,409.1,154.6,410.5,156.6z"/>
<path class="st0" d="M429.3,178.8c-5.9,17.3-16.2,31-16.2,31l-9.9-5.7c0,0,1.7-2.4,0.4-11.4c-0.6-4.6-2.5-16.7-6.4-27
	c3.7-2.8,9.5-7.1,13.3-9.1c0.4,0.5,0.7,0.9,1,1.1c3.7,2.7,3.6-2.4,5.8-6.8c0.5-0.3,1.1-0.6,1.7-0.8c4.5-1.3,12.3,0.6,15,1.4
	c0.6,0.2,1,0.3,1,0.3S435.1,161.5,429.3,178.8z"/>
<path class="st0" d="M475.4,288.4c0,0-0.8-0.4-2.3-0.9l0,0c-5.6-4.7-13.9-11.6-21.6-18.7c1.6,0,2.9,0,3.7,0.1
	c1.7,0.2,4.5,1.6,7.5,3.3c3.5,2,7.1,4.4,9.3,6c0.9,0.7,1.5,1.2,1.8,1.5c0.5,0.5,0.9,1.9,1.1,3.5C475.2,285,475.3,287.1,475.4,288.4z
	"/>
<path class="st0" d="M403.8,119.1c-2.3,5.5-3.5,10-3.9,12.9l-10.3-0.4h0l-0.7,0c1-3.2,3.5-10.9,7.1-16.4
	C400.7,108.2,407,111.5,403.8,119.1z"/>
<path class="st0" d="M412.6,152c-0.6,1.3-3.6-3.6-7-5.5c0,0,0-0.1,0-0.1c-2.1-5.2-4-10.8-4.8-13.1c2.6,0.5,6.2,1.8,8,4.8
	C411.7,143.3,413.3,150.5,412.6,152z"/>
<path class="st0" d="M434,151.5c-2.7-0.8-10.5-2.7-15-1.4c0.9-4,4.4-18,10.2-18.2C435.1,131.7,435.1,144.8,434,151.5z"/>
<path class="st0" d="M388,132.1c-0.5,2.2-2.7,12.1-3.8,16.7c-1.1-0.4-2.4-0.5-3.6-0.4c-1.1,0.1-2.1,0.2-3.1,0.4
	C377.5,145.4,378.7,134.9,388,132.1z"/>
<path class="st0" d="M388.2,198.6c-4.6,2.2-15.1,7.2-16.9,8.5c-1.8,1.3-5.6,10.9-7.4,15.6l-0.1-0.1c0,0-9.5-8.8-9.5-29.9
	c0.1-21.1,4.4-28.5,4.4-28.5s5-12.8,18.6-15.4c1-0.2,2-0.3,3.1-0.4c1.3-0.1,2.5,0.1,3.6,0.4c0.6,0.2,1.2,0.4,1.9,0.8
	C385.5,158.3,387.9,192.9,388.2,198.6z"/>
<path class="st0" d="M403.2,204.1c0,0-1.5,0.2-3.6,0.6c-4.5,0.8-12.1,2.5-15.1,4.9c-0.2,0.2-0.4,0.4-0.6,0.5
	c-2.8,3-10.1,11.7-13.4,15.8c-0.1,0.1-0.2,0.2-0.3,0.3l-6.3-3.6c1.8-4.7,5.6-14.3,7.4-15.6c1.8-1.3,12.3-6.4,16.9-8.5
	c0,0.4,0,0.7,0,0.8C388.2,199.9,403.2,204.1,403.2,204.1z"/>
<path class="st0" d="M403.2,204.1c0,0-15-4.2-14.9-4.8c0,0,0-0.3,0-0.8c-0.3-5.6-2.7-40.3-2.2-49c1.2,0.6,2.4,1.6,3.5,2.6
	c3.2,3.2,5.7,8.1,7.7,13.5c3.9,10.4,5.8,22.4,6.4,27C404.8,201.7,403.2,204.1,403.2,204.1z"/>
<path class="st0" d="M437.2,282.1l-13.9,21.5l-13.4,1.3l-7.1,11.4l7.1,19.2c0,0-5.8-4.5-10.7-21.7c-4.2-14.9-7.9-28.2-11.5-37
	c-0.6-1.4-1.2-2.7-1.7-3.8c-4.2-8.3-11.2-14.3-11.7-24c0-1-0.1-2-0.2-3.1l7.7,3.1l8.6-8.2l4.1-12.8l-10-18.5
	c3-2.4,10.6-4.1,15.1-4.9l12.9,21c0,0-8.5,22.7-1.4,30c3.4,3.5,8.2,6.6,12.4,8.9c4.5,2.5,8.1,4,8.1,4l0.4,1L437.2,282.1z"/>
<path class="st0" d="M394.5,228.2l-4.1,12.8l-8.6,8.2l-7.7-3.1c-0.7-6.4-2.4-14.5-3.5-19.5c0-0.2-0.1-0.4-0.1-0.6
	c3.3-4.1,10.6-12.8,13.4-15.8c0.2-0.2,0.4-0.4,0.6-0.5L394.5,228.2z"/>
<path class="st0" d="M405.5,146.3c0,0-0.1,0-0.1,0h0c-5.8-0.3-15.9,5.8-15.9,5.8c-1.1-1.1-2.2-2-3.5-2.6c-0.6-0.3-1.2-0.6-1.9-0.8
	c1.1-4.6,3.4-14.5,3.8-16.7c0.3-0.1,0.6-0.2,0.9-0.2c0.2-0.1,0.5-0.1,0.7-0.2h0l10.3,0.4c0,0.4-0.1,0.7-0.1,1c0.3,0,0.6,0.1,0.9,0.2
	C401.5,135.6,403.4,141.1,405.5,146.3z"/>
<path class="st0" d="M492.2,201.4c-1.4,3.6-3.4,10.5-5.7,18.9l0.9-12.6l0.8-11.6C489.5,197.7,490.9,199.6,492.2,201.4z"/>
<path class="st0" d="M451.4,268.7c-5.4,0-14.4,0.5-19.4,0.9l-0.4-1c0,0-3.6-1.5-8.1-4c-4.1-2.3-9-5.4-12.4-8.9c-7-7.3,1.4-30,1.4-30
	l-12.9-21c2.1-0.4,3.6-0.6,3.6-0.6l9.9,5.7c0,0,9.8,25.5,19.4,39.2c1.8,2.6,4.7,5.8,8.1,9.3C443.8,261.6,447.5,265.2,451.4,268.7z"
	/>
<path class="st0" d="M473.1,287.5c-4.8-1.7-16-4.8-25.1-0.3c-11.9,5.9-19.6,25-19.6,25h-8.8l-6.1,10.3l4.8,10.7
	c-0.1,1,0,1.9,0.3,2.7c0.4,1.3,0.9,2.3,1.4,3.1c-2.3-0.1-7.7-0.5-10.1-3.4l-7.1-19.2l7.1-11.4l13.4-1.3l13.9-21.5l-5.2-12.5
	c5-0.3,14-0.8,19.4-0.9h0C459.2,275.8,467.4,282.8,473.1,287.5z"/>
<path class="st0" d="M485.9,222.5c-1.4,5.1-2.8,10.6-4.2,16.2v0c-3.8,11.2-10.1,25.4-19,33.6c-3-1.7-5.9-3.1-7.5-3.3
	c-0.8-0.1-2-0.1-3.7-0.1h0c-3.9-3.6-7.6-7.1-10.9-10.4C453.7,241.3,481.9,224.7,485.9,222.5z"/>
<path class="st0" d="M475.4,289.4C475.4,289.4,475.4,289.4,475.4,289.4c-1.3,0-2.9,0.1-4.6,0.4c-8.5,1.4-21.3,6.5-29,13.3
	c-8.9,7.8-20.2,18.8-22.9,27.1c-0.3,1-0.5,2-0.6,2.9l-4.8-10.7l6.1-10.3h8.8c0,0,7.7-19,19.6-25c9.1-4.6,20.3-1.4,25.1,0.3l0,0
	C473.9,288.2,474.7,288.8,475.4,289.4z"/>
<path class="st0" d="M480.4,299.7C480.4,299.7,480.4,299.7,480.4,299.7C480.4,299.7,480.4,299.7,480.4,299.7
	c-0.2-0.4-1.3-2.2-3.4-3.7c-4.6-3.4-14.5-5.9-32.6,7.9c-26.4,20-20.9,33.3-20.4,34.4c0,0,0,0.1,0,0.1c0.7,2.7,2.3,2.6,2.3,2.6
	s-3.5,2.4-6.3-1.9c-0.5-0.8-1-1.8-1.4-3.1c-0.3-0.9-0.4-1.8-0.3-2.7c0-0.9,0.2-1.9,0.6-2.9c2.7-8.3,13.9-19.3,22.9-27.1
	c7.8-6.8,20.5-12,29-13.3c1.7-0.3,3.3-0.4,4.6-0.4h0c1.5,0,2.7,0.3,3.4,0.9C483.3,293.5,480.5,299.5,480.4,299.7z"/>
<path class="st0" d="M449.9,390.1c-10.3-8-20-10.1-28.7-10.9c-13.2-18.5-26.9-48.8-30.8-59.6c-3.4-9.3-14.5,2.1-15,2.5
	c0.3-9.8-2.7-23,6.5-38.5c1.5-2.6,3.5-4.8,5.9-6.7c3.6,8.7,7.2,22.1,11.5,37c4.9,17.2,10.7,21.7,10.7,21.7c2.4,2.9,7.8,3.4,10.1,3.4
	c2.8,4.3,6.3,1.9,6.3,1.9c6.5,7.1,14.4,12.7,18.3,16.4c1.3,1.2,2.7,2.5,4.1,3.8C449.3,370.6,449.9,383.1,449.9,390.1z"/>
<path class="st0" d="M395.2,374.6c3.7,7.9,1.6,16.9-0.3,21.5c-4.9-7.3-18.3-26.1-19.9-35.5c-1.9-11.2-1.9-24.5,0-34.5
	c0.2-1.3,0.4-2.6,0.4-4c0.4-0.4,11.6-11.8,15-2.5c3.9,10.8,17.5,41.1,30.8,59.6C411.1,378.3,402.3,379.1,395.2,374.6z"/>
<path class="st0" d="M462.7,403.2c-5.7-1.6-19.8-4.2-34.2,4.5c-19.7-12.6-29.6-3.3-30.7-2.2c-0.1-2-0.4-5-1.1-6.7
	c-0.2-0.4-0.8-1.4-1.8-2.8c1.9-4.6,4-13.5,0.3-21.5c7.1,4.5,15.9,3.7,25.9,4.6c8.7,0.8,18.4,2.9,28.7,10.9
	C454,392.9,458.8,398.3,462.7,403.2z"/>
<path class="st0" d="M465.3,406.6c-1.4,0.8-4.6,2.1-11.8,3.5c-11,2.1-25-2.4-25-2.4c14.4-8.7,28.5-6.1,34.2-4.5
	C463.7,404.4,464.5,405.6,465.3,406.6z"/>
<path class="st0" d="M428.5,407.8C428.5,407.8,428.5,407.8,428.5,407.8c-0.3,0.5-4.9,8.3-9.8,14.7c-1.1,1.5-2.6,3.7-4,6.3
	c-1.5,2.7-3,5.8-4.3,9.1c-0.1,0.2-0.2,0.4-0.2,0.6c-1.8-2.4-3.7-5.9-5.2-8.9c0,0,0,0,0,0c-1.3-2.5-2.2-4.6-2.5-5.4c0,0,0-0.1,0-0.1
	l0-0.1l0,0c-3.2-8.1-4.5-16.7-4.5-16.7s0-0.8,0-1.8C398.9,404.4,408.8,395.1,428.5,407.8z"/>
<path class="st0" d="M577.2,175.9c-0.5,2.4-2.9,7.5-3.2,8.2l0,0.1l-7.7,4.4L577.2,175.9z"/>
<path class="st0" d="M565.4,191.1c3.4,1.2,7.8,2.3,7.8,2.3c0.1-0.4,0.8-9.3,0.8-9.3S566.5,189.8,565.4,191.1z M572,192.2
	c-0.7,0-1.3-1.3-1.3-2.9c0-1.6,0.6-2.9,1.3-2.9c0.7,0,1.3,1.3,1.3,2.9C573.3,190.9,572.8,192.2,572,192.2z"/>
<path class="st0" d="M573.2,203.4c-0.4,1.6-1,3.6-1.7,5.6c-0.5-1.8-1.3-3.5-2.2-5.1c-1.2-2.1-2.5-4.1-3.7-6.2
	c-0.3-0.5-0.6-1-0.8-1.6c-0.2-0.5-0.4-1.1-0.4-1.7c-0.1-1.1,0.2-2.4,1.1-3.2c3.4,1.2,7.8,2.3,7.8,2.3
	C573.1,193.8,575,196.3,573.2,203.4z"/>
<path class="st0" d="M497,196.4c0,0.5,0.8,1.5,1.8,2.7c-9.7,0.3-5.9-5.4-10.4-9.5c-1.1-0.9-1.9-2.1-2.6-3.4v0c0,0,0,0,0,0
	c-0.7-2.4-1.4-5-1.8-7.9c0,0,0,0,0,0c0.1-1.8,0.5-3.3,1.4-4c1.6-1.4,7,1.1,10.9,3.2v0c1.7,1.9,3,3.7,3.7,4.7l0,0
	c0.4,0.5,0.5,0.8,0.5,0.8C502.2,185.4,497,195.5,497,196.4z"/>
<path class="st0" d="M500.2,206.2c-0.8,0.3-1.7,0.4-2.6,0.5c-0.9,0-2.1-1.1-3.4-2.7c-0.6-0.8-1.3-1.6-1.9-2.5
	c-1.3-1.8-2.7-3.7-4-5.3c-0.9-1.1-1.9-2.1-2.8-2.8c-4-3.1-7.3-17.3-2.3-21.5c0.3-0.3,0.7-0.5,1-0.7c3.7-1.8,8.6,2.6,12.1,6.6
	c-3.9-2.1-9.4-4.6-10.9-3.2c-0.8,0.8-1.3,2.2-1.4,4c0,0,0,0,0,0c-0.1,2.4,0.5,5.3,1.8,7.9c0,0,0,0,0,0v0c0.7,1.3,1.5,2.5,2.6,3.4
	c4.5,4.1,0.7,9.8,10.4,9.5c0.8,0.9,1.7,2.1,2.5,3.4C502.6,204.4,501.7,205.6,500.2,206.2z"/>
<path class="st0" d="M605.2,186.5c-1.5-5.3-5.4-12.1-9.6-18.4c0.3-3.1,0.4-5.7,0.3-7.5c-0.2-7.2-15.5-18.1-16.1-18.5h0c0,0,0,0,0,0
	c-2.8-4.4-21.7-25.6-32.2-32.2c-0.5,0,15.7,16.5,15,16.5c-0.7-0.1-22.8-12.7-26.6-16.5c-3.7-3.7-27.9-12.5-29.4-13
	c1.3,0.6,20.6,9.8,24.7,13.5c-9.1,0.5-16-4.5-23.1-7.6c-6.9-3-14-5.8-14.5-5.9l17.6,11.2c-0.7-0.2-20.7-6.1-34.4-16.9
	c-1,6.6,3.8,13.3,3.8,13.3l-6.9,1.9v4l-3.1,11.7l-5.5,9.6l-6.7-11.3c0,0,1.9,16.6,6.4,26.3c4.5,9.6,4.5,15.4,4.5,15.4
	s4,7.3,8.6,19.9c4.1,11.4,6.2,20.9,9.4,25.7l0.8-11.6c-0.9-1.1-1.9-2.1-2.8-2.8c-4-3.1-7.3-17.3-2.3-21.5c0.3-0.3,0.7-0.5,1-0.7
	c3.7-1.8,8.6,2.6,12.1,6.6v0c1.7,1.9,3,3.7,3.7,4.7l0,0c1.9,1,5.1,2.9,5.3,4.2c0.3,1.9,0.8,18.6,3.2,22.5c-1.3-8.8,1.4-21,1.4-21
	s6.1,4.7,7.3,8.5c1.2,3.8,0,14.7,0,14.7s6.1-9.4,2.9-16.1c-3.1-6.7-8-18.3-4.6-27.5c2.5-1.6,19.1-12.7,19.1-15.4
	c0.5,4.4-6.1,22-6,29.6v0c0,0.5,0,0.9,0.1,1.2c1,6.5,15.5,26.6,16.5,28.1c-0.6-1.1-6.7-11.4-10-20.2c-1.2-0.7-2.1-1.3-2.1-1.3
	s0.6-0.1,1.6-0.3c-1-3-1.7-5.7-1.6-7.7c0-0.5,0.1-1.1,0.2-1.7c0.3-2.2,1.1-4.6,2-7.1v0c2.8-7.5,7.4-15.6,7.2-19.1
	c5.3,0.1,9.4,3.3,9.4,3.3s5.2,10.6,3.6,16.8c1.6,0.1-0.7,5.7-2.7,13c-0.2,0.6-0.3,1.1-0.5,1.7c-0.3,1.1-0.6,2.3-0.9,3.5
	c-0.8,3.7-1.5,7.6-1.4,11.3c2.1-4.6,4.3-9.3,6.3-13.9c0.1-0.2,0.2-0.5,0.3-0.7c5.9-13.4,10.6-26.3,7.6-35c4.7,0.2,7.9,0.5,10,0.7
	c3.1,0.3,4,0.5,4,0.5s6.9,8.8,13.3,18c0.9,1.3,1.8,2.6,2.6,3.8c3.4,5,6.3,9.8,7.4,12.8c3,13.2-4.6,29.4-3.6,29
	S608.9,199.9,605.2,186.5z M582.2,150.3l-5-1.3l4.8,1C582,150.1,582.1,150.2,582.2,150.3l9.1,2.3c0,0,0.4,4.2,0.6,10.2
	C587.3,156.5,583.2,151.5,582.2,150.3z"/>
<path class="st0" d="M594.3,176.7c-1.4,7.5-3.9,15.3-7.9,19.4c3.5-5.9,4.9-14.9,5.3-23.2C592.6,174.2,593.5,175.5,594.3,176.7z"/>
<path class="st0" d="M552.9,186.9c-0.2,0.6-0.3,1.1-0.5,1.7c-9.3-2.7-16-9.8-16-9.8l-3,1.2c0.3-2.2,1.1-4.6,2-7.1
	c0,0,6.9,5.8,10.6,9.5C547.7,184,550.4,185.6,552.9,186.9z"/>
<path class="st0" d="M577.2,175.3c0-1.5-1-12.9-2.9-20.8c-2.2-0.2-5.4-0.4-10-0.7c3,8.7-1.7,21.6-7.6,35c1.3,0.6,2.1,0.9,2.1,0.9
	c-0.8,0-1.6-0.1-2.4-0.2c-2.1,4.6-4.3,9.3-6.3,13.9c0-3.6,0.6-7.5,1.4-11.3c0,0-4.9,2.5-7.8,2.4c-1.9-0.1-6-2.2-8.5-3.6
	c3.3,8.8,9.3,19.1,10,20.2c-1.1-1.5-15.5-21.5-16.5-28.1c-0.1-0.4-0.1-0.8-0.1-1.2v0c-0.2-7.6,6.4-25.3,6-29.6
	c0,2.7-16.6,13.8-19.1,15.4c-3.4,9.3,1.5,20.9,4.6,27.5c3.1,6.7-2.9,16.1-2.9,16.1s1.2-10.9,0-14.7c-1.2-3.8-7.3-8.6-7.3-8.6
	s-2.8,12.2-1.4,21c-2.4-3.9-2.9-20.6-3.2-22.5c-0.2-1.4-3.4-3.2-5.3-4.2c0.4,0.5,0.5,0.8,0.5,0.8c1.7,2.3-3.4,12.4-3.4,13.3
	c0,0.5,0.8,1.5,1.8,2.7c0.8,0.9,1.7,2.1,2.5,3.4c1.3,2,0.4,3.1-1.2,3.7c0.9,5.6,3.7,20.9,5.5,22.7c2.3,2.3,20.5,8.9,25.5,12.8
	c0.9,0.7,2,1.5,3.2,2.3c5.6,3.7,14.2,7.6,20.6,5c7.8-3.1,6.8-15.1,6.8-15.1l1-2.8l0.8-2.3l-6.3,0.6l-10.6-1.1h5.6
	c0,0,7.3-0.4,9.4-0.8c0.9-0.2,1.8-0.4,2.5-0.6l0-0.1l0.4-0.9l1-2.4c0,0,1.1-2.5,2.5-5.9c-0.3,0.2-0.6,0.4-1,0.5
	c-0.6,0.3-1.3,0.4-2,0.3c-1.4-0.1-2.4-0.7-3.5-0.9c-1.1-0.2-2.3-0.3-3.4-0.1c-0.6,0.1-1.2,0.2-1.9,0.2c-0.7-0.1-1.2-0.2-1.9-0.5
	c-0.6-0.3-1.1-0.9-1.4-1.5c-0.3-0.6-0.5-1.2-0.6-1.8c-0.2-1.2-0.2-2.5,0.1-3.7c0.1-0.3,0.2-0.6,0.4-0.9c0.2-0.3,0.4-0.5,0.6-0.7
	c0.5-0.4,1-0.7,1.6-0.9c1.2-0.4,2.5-0.2,3.6,0.4c-1.1-0.4-2.4-0.5-3.5-0.1c-1.1,0.4-2,1.3-2.2,2.4c-0.2,1.1-0.2,2.3,0,3.4
	c0.2,1.1,0.8,2.3,1.7,2.7c0.4,0.2,1.1,0.3,1.6,0.3c0.5,0,1.1-0.1,1.7-0.2c1.2-0.2,2.5-0.2,3.7,0.1c1.2,0.2,2.4,0.8,3.4,0.8
	c1,0.1,2-0.5,3-1.2c0.2-0.2,0.4-0.3,0.7-0.5v0c0.7-1.7,1.4-3.5,2-5.3c-0.4-2.2-1.4-4.3-2.3-6.4c-1.1-2.1-2.3-4.2-3.4-6.3
	c-0.3-0.5-0.5-1.1-0.8-1.7c-0.2-0.6-0.3-1.2-0.3-1.8c-0.1-1.2,0.4-2.5,1.3-3.3c1.1-1.3,8.5-6.9,8.5-6.9l-7.7,4.4l10.8-12.7
	C577.2,175.7,577.2,175.4,577.2,175.3z M561.1,233.4l-2.4,3.1l-2.4-2.9L561.1,233.4z M552.9,186.9c-2.5-1.3-5.2-2.9-6.9-4.6
	c-3.7-3.6-10.6-9.5-10.6-9.5v0c2.8-7.5,7.4-15.6,7.2-19.1c5.3,0.1,9.5,3.3,9.5,3.3s5.2,10.6,3.6,16.8
	C557.2,174,555,179.6,552.9,186.9z M552.4,188.7c-0.3,1.1-0.6,2.3-0.9,3.5c0,0-3.6-3.6-5.7-4c-1.6-0.3-8.1,0.7-11.1,1.2
	c-1-3-1.7-5.7-1.6-7.7c0-0.5,0.1-1.1,0.2-1.7l3-1.2C536.4,178.8,543.1,185.9,552.4,188.7z"/>
<path class="st0" d="M545.8,188.2c-1.6-0.3-8.1,0.7-11.1,1.2c0.2,0.5,0.4,1,0.5,1.5c2.5,1.4,6.5,3.6,8.5,3.6
	c2.9,0.1,7.8-2.4,7.8-2.4S548,188.5,545.8,188.2z M544.6,194.3c-1.3,0-2.3-1.3-2.3-2.9c0-1.6,1-2.9,2.3-2.9c1.3,0,2.3,1.3,2.3,2.9
	C546.9,193,545.9,194.3,544.6,194.3z"/>
<path class="st0" d="M546.9,191.4c0,1.6-1,2.9-2.3,2.9c-1.3,0-2.3-1.3-2.3-2.9c0-1.6,1-2.9,2.3-2.9
	C545.9,188.6,546.9,189.9,546.9,191.4z"/>
<path class="st0" d="M573.3,189.3c0,1.6-0.6,2.9-1.3,2.9c-0.7,0-1.3-1.3-1.3-2.9c0-1.6,0.6-2.9,1.3-2.9
	C572.8,186.4,573.3,187.7,573.3,189.3z"/>
<path class="st0" d="M571.5,214.5c-0.3,0.6-0.8,1.1-1.2,1.5c-0.4,0.4-0.9,0.8-1.4,1.2c-0.2,0.2-0.4,0.3-0.7,0.5
	c-0.3,0.2-0.6,0.4-1,0.5c-0.6,0.3-1.3,0.4-2,0.3c-1.4-0.1-2.4-0.7-3.5-0.9c-1.1-0.2-2.3-0.3-3.4-0.1c-0.6,0.1-1.2,0.2-1.9,0.2
	c-0.7-0.1-1.2-0.2-1.9-0.5c-0.6-0.3-1.1-0.9-1.4-1.5c-0.3-0.6-0.5-1.2-0.6-1.8c-0.2-1.2-0.2-2.5,0.1-3.7c0.1-0.3,0.2-0.6,0.4-0.9
	c0.2-0.3,0.4-0.5,0.6-0.7c0.5-0.4,1-0.7,1.6-0.9c1.2-0.4,2.5-0.2,3.6,0.4c-1.1-0.4-2.4-0.5-3.5-0.1c-1.1,0.4-2,1.3-2.2,2.4
	c-0.2,1.1-0.2,2.3,0,3.4c0.2,1.1,0.8,2.3,1.7,2.7c0.4,0.2,1.1,0.3,1.6,0.3c0.5,0,1.1-0.1,1.7-0.2c1.2-0.2,2.5-0.2,3.7,0.1
	c1.2,0.2,2.4,0.8,3.4,0.8c1,0.1,2-0.5,3-1.2c0.2-0.2,0.4-0.3,0.7-0.5v0c0.2-0.2,0.5-0.4,0.7-0.6c0.5-0.4,0.8-0.8,1-1.2
	c0.5-0.9,0.5-2.1,0.4-3.2c0-0.1,0-0.2,0-0.3c-0.4-2.2-1.4-4.3-2.3-6.4c-1.1-2.1-2.3-4.2-3.4-6.3c-0.3-0.5-0.5-1.1-0.8-1.7
	c-0.2-0.6-0.3-1.2-0.3-1.8c-0.1-1.2,0.4-2.5,1.3-3.3c-0.9,0.8-1.2,2.1-1.1,3.2c0,0.6,0.2,1.2,0.4,1.7c0.2,0.5,0.5,1.1,0.8,1.6
	c1.2,2.1,2.5,4.1,3.7,6.2c0.9,1.6,1.7,3.3,2.2,5.1c0.2,0.6,0.3,1.1,0.4,1.7C572.1,211.9,572.1,213.3,571.5,214.5z"/>
<path class="st0" d="M564.3,227l-0.5,1.2l-0.2,0.6l-6.3,0.6l-10.6-1.1h5.6c0,0,7.3-0.4,9.4-0.8C562.7,227.5,563.6,227.3,564.3,227z"
	/>
<polygon class="st0" points="561.1,233.4 558.7,236.5 556.3,233.6 "/>
<path class="st0" d="M500.7,377.7c-8.6,9.2-25.3,12.5-25.3,12.5s-6.5,2.3-25.5-0.1c0-7-0.6-19.5-1.1-29c5.7,5.2,12.1,10.8,16.1,11.2
	c5,0.5,15-1.4,15-1.4s0.5,0,1.6-0.1c0,0,0,0,0,0c2.9-0.2,9.7-0.7,18.4-1.4C500,371.7,500.3,374.6,500.7,377.7z"/>
<path class="st0" d="M507.9,399.1c0,0-14.4,0-21.6,0c-5.9,0-15.5,2.7-17.6,8l-2.4-1.1c0,0-0.2,0.2-0.9,0.6c-0.8-1.1-1.7-2.2-2.6-3.4
	c-3.9-5-8.7-10.3-12.8-13.2c19,2.4,25.5,0.1,25.5,0.1s16.7-3.2,25.3-12.5C501.9,385.9,504,395.2,507.9,399.1z"/>
<path class="st0" d="M513.5,414.3c0,0-13.5-0.5-23.1,0c-4.8,0.2-9,0.8-12,1.3c-2.1-3.5-3.8-5.7-3.8-5.7l-5.9-2.8
	c2-5.3,11.7-8,17.6-8c7.2,0,21.6,0,21.6,0C509.9,404.8,512.2,410.7,513.5,414.3z"/>
<path class="st0" d="M598.9,398.5c-8.3,9.9-28.3,18.1-28.3,18.1l-2.9-6.1c0,0-11.4-10.3-20.6-12.5c-9.2-2.1-34.3,0-39.2,1.1
	c-3.9-3.9-6-13.2-7.1-21.4c11,4.6,30.7,15.3,52.1,12.5c21.4-2.9,31.3-15.6,31.3-15.6S590,383.5,598.9,398.5z"/>
<path class="st0" d="M570.6,416.6c0,0-18.5-4.6-27.1-5.4c-8.5-0.7-30,3.1-30,3.1c-1.4-3.6-3.6-9.5-5.7-15.2c5-1.1,30-3.2,39.2-1.1
	c9.2,2.1,20.6,12.5,20.6,12.5L570.6,416.6z"/>
<path class="st0" d="M525.5,440.8v8.2c-14.3,0.3-28.9,0.9-36.4,1.2c-1.5-4.9-2.7-10.2-3.3-15c5.4,0.8,12,1.5,18.2,1.3
	c14-0.3,19.5,0.7,19.8,0.7L525.5,440.8z"/>
<path class="st0" d="M565.1,437.3c-6.2,3.9-8,0-18,0c-9.9,0-23.2,0-23.2,0s0,0,0,0l-9-19.6c0,0-0.5-1.3-1.3-3.3c0,0,21.4-3.8,30-3.1
	c8.6,0.7,27.1,5.4,27.1,5.4S571.3,433.3,565.1,437.3z"/>
<path class="st0" d="M523.9,437.3c-0.3,0-5.8-1.1-19.8-0.7c-6.2,0.2-12.8-0.5-18.2-1.3c0-0.1,0-0.2,0-0.2c-1-7.5-4.5-14.6-7.4-19.4
	c3-0.5,7.2-1.1,12-1.3c9.6-0.5,23.1,0,23.1,0c0.8,2,1.3,3.3,1.3,3.3L523.9,437.3z"/>
<path class="st0" d="M481,540.9c-1,1.2-0.3,7.9,0.2,12.4c1.3,11.7,3.1,27.7-8.9,32.5c-6.9,2.7-14.9,1.4-23.3,0.1
	c-12.2-2-23.8-3.8-32.1,6.1c-7.7,9.1-10.2,21.2-6.2,30.2c3.1,7,9.6,10.9,18.3,11.2c13.8,0.4,19-8.8,24-17.6
	c3.2-5.6,6.1-10.8,11.1-13.2c6.8-3.1,13.6-3.3,18.9-0.6c4.4,2.3,7.3,6.4,8.1,11.6l0.5,3.2l-3.2,0.3c-11.2,1.1-20.9,13.6-27.9,22.7
	l-1.5,1.9c-4.6,5.9-14.3,10-24.6,14.3c-7.9,3.3-16.1,6.8-21,10.9c-7.7,6.5-10.6,14-9.7,16.8c0.1,0.2,0.1,0.4,0.4,0.6
	c-1.7,1.1-3.4,2.2-5,3.3c-0.4-0.6-0.8-1.2-1-2c-2.1-6.2,2.7-16,11.5-23.4c5.6-4.7,14.2-8.3,22.5-11.8c9.1-3.8,18.5-7.8,22.2-12.5
	l1.5-1.9c7.1-9.1,16.5-21.3,28.5-24.4c-0.9-1.9-2.3-3.4-4.2-4.4c-3.6-1.9-8.5-1.6-13.6,0.7c-3.3,1.5-5.7,5.8-8.5,10.7
	c-5.3,9.4-12,21.1-29.4,20.6c-11-0.3-19.6-5.7-23.6-14.7c-5-11.2-2.2-25.5,7.1-36.5c10.6-12.5,25-10.2,37.7-8.1
	c7.6,1.2,14.8,2.4,20.2,0.3c7.7-3,6.3-15.9,5.1-26.2c-0.9-7.7-1.5-13.7,1.1-16.9c3.5-4.2,10.2-3.8,16-2.5c-4.2-4-10.8-8.3-20.3-8.6
	c-7.6-0.3-12.2,5.8-17.1,12.2c-6,7.8-13.5,17.5-26.8,9.4c-6.6-4-9.6-8.5-8.8-13.4c1.8-11.5,23.7-17.3,23.9-17.4
	c9-2.2,17.6-6.4,19.1-8.5c-2.3-4.1-8.2-15.4-10.6-20.1c5.2,3.2,9.4,5.9,10.2,6.7c0,0,0.1,0.1,0.1,0.1c2.3,4.4,4.7,8.8,5.7,10.7
	c0.8,1.4,0.9,3,0.2,4.6c-3,7-23.1,12.2-23.3,12.2c-6.5,1.6-18.7,7.2-19.5,12.5c-0.4,2.8,3,5.6,6,7.4c8.4,5.1,12.3,0.8,19-7.9
	c5.4-7,11.5-15,22.1-14.6c21.6,0.8,30.7,18.4,31.1,19.1l3.7,7.4l-7.6-3.3C493.3,540.4,483.3,538.1,481,540.9z"/>
<path class="st0" d="M695.2,562c-1.4,0.7-3.4,1.3-6.1,1.3c-2.4,0-5.5-0.4-9.3-1.6c-7.9-2.5-16.1-9.2-24-15.6
	c-5.6-4.6-11.3-9.3-16.8-12.3c-12.2-6.8-29.8,2.1-30,2.2l-9.4,4.8l19.3-21.8c1.2,0.7,2.5,1.3,3.7,1.9l-7.5,8.5
	c7-2.1,17.3-3.8,25.9,1c5.8,3.2,11.7,8,17.4,12.7c7.6,6.2,15.4,12.7,22.6,14.9c5.5,1.7,9,1.6,11,1.1C693.1,560,694.2,561,695.2,562z
	"/>
<path class="st0" d="M747.1,617.7c-1.7,2.9-3.9,4.6-6.6,5.1c-0.5,0.1-0.9,0.1-1.4,0.1c-9.4,0-21-14.8-27.4-23
	c-1.3-1.7-2.5-3.2-3.1-3.8c-3.5-3.7-8-6.5-17.5-2.6l-4.3,1.8l1.7-4.4c2.4-6.1,6.1-9.8,11.2-11.1c4.5-1.1,9.3-0.2,13.7,1.5
	c0,0,0,0,0,0c2.7,3,5.3,5.9,7.8,8.7c-5.1-3.4-13.7-8-20.6-6.3c-2.6,0.7-4.7,2.2-6.3,4.5c6.8-1.7,12.3,0,17.2,5.2
	c0.7,0.8,1.8,2.2,3.3,4.1c5.3,6.8,17.7,22.6,25,21.4c1.7-0.3,3.1-1.6,4.3-4C745.1,615.6,746.1,616.6,747.1,617.7z"/>
<path class="st0" d="M631,508.5c-4.8-1-9.2-2.4-13-4.3c-4.5-2.2-9.8-5.4-15.2-9.2c4.1,0.1,9.7,0.1,12-0.1
	C614.8,495,623.5,502.4,631,508.5z"/>
<path class="st0" d="M534.4,244c-7.2,8.7-29.9,35.6-35.2,40.3c-0.2,0-0.4,0-0.6-0.1c2.2-27.9-3.9-61.9-4.4-80.3
	c1.3,1.6,2.5,2.8,3.4,2.7c0.9,0,1.9-0.2,2.6-0.5c0.9,5.6,3.7,20.9,5.5,22.7c2.3,2.3,20.5,8.9,25.5,12.8
	C532.1,242.4,533.2,243.2,534.4,244z"/>
<path class="st0" d="M481.7,238.6c-4,15.7-7.9,31.7-9.7,39.6c-2.2-1.6-5.8-4-9.3-6C471.6,264.1,477.8,249.8,481.7,238.6z"/>
<path class="st0" d="M569.6,268.1c-4,4.9-6.6,11.9-7.9,15.9c-9.9,0.6-21.7,1.3-28,1.4c-12.5,0.2-24.1,9.5-37.4,16.2
	c-0.3,0.2-0.6,0.3-0.9,0.5c-0.1-9.2,3.1-17.3,3.1-17.3c0,0,0,0,0,0c0.1,0,0.7-0.1,1.6-0.3c6.1-1.3,27.3-5.8,34.8-8.5
	C541.3,273.8,560,270,569.6,268.1z"/>
<path class="st0" d="M498.5,284.2c0,0.2,0,0.4,0,0.6c0,0-3.3,8-3.1,17.3c-3,1.7-5.6,3.9-7.8,6.4c-2.1-2.9-4.6-6-7.1-8.8
	c0.1-0.2,2.9-6.2-1.6-9.4c-0.7-0.5-1.9-0.8-3.4-0.9h0c0,0,0,0,0,0c0-0.1,0-0.5,0-1c-0.1-1.2-0.2-3.4-0.5-5.2
	C480.8,283.2,491.7,283.3,498.5,284.2z"/>
<path class="st0" d="M498.5,284.2c-6.8-0.9-17.8-1.1-23.7-1.1c-0.2-1.5-0.6-2.9-1.1-3.5c-0.3-0.3-0.9-0.8-1.8-1.5
	c1.9-7.9,5.7-23.9,9.7-39.6v0c3.2-9.2,4.7-16.4,4.7-16.4l0.1-1.9v0c0,0,0,0,0,0c2.3-8.3,4.3-15.2,5.7-18.9c0.7,0.9,1.3,1.8,1.9,2.5
	C494.6,222.3,500.7,256.3,498.5,284.2z"/>
<path class="st0" d="M481.4,370.7C481.4,370.7,481.4,370.7,481.4,370.7c-1,0.1-1.6,0.1-1.6,0.1s-10,1.9-15,1.4
	c-4-0.4-10.4-5.9-16.1-11.2c-1.4-1.3-2.8-2.6-4.1-3.8c-4-3.7-11.9-9.3-18.3-16.4c-0.8-0.9-1.5-1.7-2.3-2.6c0,0,0,0,0-0.1
	c-0.5-1.1-6-14.4,20.4-34.4c18.1-13.7,27.9-11.2,32.6-7.9c1.1,1.1,2.2,2.4,3.4,3.7c0,0,0,0,0,0c0,0,0,0,0,0s0,0,0,0
	c2.5,2.8,5,5.9,7.1,8.8c-7.3,8.1-10.8,18.6-10.8,18.6c2.2,2.4,5.6,4.5,9.6,6.1C486.5,334.2,491.8,363.8,481.4,370.7z"/>
<path class="st0" d="M939.7,835.4c-2.2,0.1-23.9,2.6-37.9,3.6c0-0.1-0.1-0.2-0.1-0.2c-0.1,0-0.3,0-0.4,0.1c-0.7,0.1-1.4,0.2-2.1,0.4
	h0c-14.3,2.5-27.2,6-34.9,7.5c-5.9,1.2-16.1,8.8-23.1,14.8c0,0,0,0-0.1,0.1c-0.2,0.1-0.5,0.4-0.9,0.8c-2.4,2-8.3,6.8-10.6,6.8
	c-2.8,0-10.5-11.2-11.4-32.6c-9-10-25.9-23.3-26.6-29.7c-0.7-6.4,1.7-10.2-5.2-17.1c-6.9-6.9-52-13.1-92.9-88.2c0,0,13-23,27.9-31.2
	c15-8.2,20.7,0.4,33.9-12.8c5.5-5.5,10-12.2,13.4-18.1c0.1-0.1,0.2-0.3,0.2-0.4c2.3,2.3,4.9,4.9,7.1,7.3
	c5.3,5.9,13.2,12.2,20.7,17.5c7.5,5.2,43.1,36.2,63.7,64.5c20.6,28.2,23.7,36.3,35.6,43.9c11.9,7.6,18.3,27.8,21.7,33.7
	s6.9,9,13.3,17.1C936.8,830.5,938.9,835,939.7,835.4z"/>
</svg>
