<?xml version="1.0" encoding="utf-8"?>
<!-- Generator: Adobe Illustrator 25.2.0, SVG Export Plug-In . SVG Version: 6.00 Build 0)  -->
<svg version="1.1" id="Layer_1" xmlns="http://www.w3.org/2000/svg" xmlns:xlink="http://www.w3.org/1999/xlink" x="0px" y="0px"
	 viewBox="0 0 1000 1000" style="enable-background:new 0 0 1000 1000;" xml:space="preserve">
<style type="text/css">
	.st0{fill:#FFFFFF;stroke:#000000;stroke-miterlimit:10;}
	.st1{fill:none;stroke:#000000;stroke-miterlimit:10;}
</style>
<path class="st0" d="M482.3,115.4c-3.2,2.2-12,9.3-15.5,23.4c-0.2,0.8-0.4,1.6-0.5,2.5c-3.5-8.2-5.4-18.2-2-28.4
	C469.9,96.1,477.7,106.5,482.3,115.4z"/>
<path class="st0" d="M560.5,152.7c1-4.9,1.2-9.4,0.9-13.3c-0.9-11.4-6.1-18.4-8.2-20.7c1.3-1.4,2.4-2.8,3.3-4.1
	c3-4.8,9.6-8.9,11.8,10.3C569.4,135,565,145.2,560.5,152.7z"/>
<path class="st0" d="M484,162.1h-3.8c0,0-8.8-8.5-14-20.8c0,0,0,0,0,0c0.2-0.9,0.3-1.7,0.5-2.5c2,4.1,6.4,12.4,10.2,15.6
	C482.1,158.7,484,162.1,484,162.1z"/>
<path class="st0" d="M560.5,152.7c-4,6.8-8.1,11.2-8.1,11.2h-4.3c0,0,10.7-14.5,13.3-24.5C561.8,143.3,561.6,147.7,560.5,152.7z"/>
<path class="st0" d="M464.3,112.9c-3.4,10.2-1.5,20.1,2,28.4c0,0,0,0,0,0c5.2,12.3,14,20.8,14,20.8s-2.4,2.1-5.7,4.5
	c-3.3,2.4-2.4,25.2-2.4,25.2s-9-23.3-13.3-38.3c-1.4-4.9-2.1-9.9-2.3-14.6v0c-0.5-9.7,0.7-18.2,0.9-23.2c0.2-7.4-0.5-37.8,12.4-50.8
	c5.5-5.6,9.8-8.3,12.8-9.4c1.2,11.4,2.3,36.5,3,53c0.4,9.2,0.5,15.6,0.5,15.6s-1.5-4.2-3.8-8.7C477.7,106.5,469.9,96.1,464.3,112.9z
	"/>
<path class="st0" d="M572.9,132.5c0,3.6-0.8,9.6-2.2,16.8c0,0,0,0,0,0c-2.8,13.9-8.1,32.1-16.1,45.2c3.6-18-2.1-30.6-2.1-30.6
	s4.1-4.5,8.1-11.2c4.5-7.5,8.9-17.7,7.8-27.8c-2.1-19.2-8.7-15.2-11.8-10.3c-0.8,1.3-2,2.7-3.3,4.1c-3.3,3.6-7.3,6.8-7.3,6.8
	s1.1-4.7,2.4-11.6c2.8-14.9,6.7-40.2,3.1-52.4l2.6-1.9c0,0,11.9,5.7,15.7,17.8C573.5,89.4,573.1,122,572.9,132.5z"/>
<path class="st0" d="M548.4,113.8c-1.5,0.7-4,1.8-7,3.2c0.4-3.5,0.7-6.8,1-9.9c3-37.8-3.7-48.7-3.7-48.7c2.7-2,11.8,3.7,11.8,3.7
	l1-0.8C555.1,73.6,551.2,98.9,548.4,113.8z"/>
<path class="st0" d="M531.5,109.2C531.5,109.2,531.5,109.2,531.5,109.2l-2.8,0c0,0,0.3-4.1-4.3-3.7c1.9-13.8,2.8-35.3-4.8-50.4
	l6.6,0.1c0,0,10.2,6.6,10.5,21.6C537.1,91.5,531.7,108.7,531.5,109.2z"/>
<path class="st0" d="M524.5,105.4c0,0-4.9,2.5-7.3,6.7c-1.8-3.7-6.2-7.2-6.2-7.2c-4.7-20.3,0.7-43.2,2.5-49.9l6.3,0.1
	C527.2,70.2,526.3,91.6,524.5,105.4z"/>
<path class="st0" d="M510.9,104.9c-3.4-0.9-4.3,4.3-4.3,4.3L504,108l-0.6-0.2c-11.9-31.2,4.3-52.8,4.3-52.8h2.9l2.8,0
	C511.6,61.7,506.2,84.6,510.9,104.9z"/>
<path class="st0" d="M507.8,55c0,0-16.3,21.6-4.3,52.8l0.6,0.2l-11.2-2.8c-0.7-14.5-1.3-38.9,2.1-51.7c0.9-0.1,1.6-0.2,2.2-0.2
	c1.9-2,10.7-1.5,10.7-1.5V55z"/>
<path class="st0" d="M493.2,113.6c0.1,2.2,0.2,3.4,0.2,3.4l-8-8.5c-0.6-16.5-1.7-41.6-3-53c4-1.5,5.9-0.5,5.9-0.5s3.6-1,6.3-1.4
	c-3.4,12.8-2.8,37.2-2.1,51.7c0.1,3,0.3,5.7,0.4,7.6C493.2,113.1,493.2,113.3,493.2,113.6z"/>
<path class="st0" d="M542.4,107.1c-6.7-0.5-10.7,2-10.9,2.1c0.2-0.5,5.6-17.7,5.2-32.4c-0.4-15-10.5-21.6-10.5-21.6l1.2-3.4
	c0,0,9.4,3.5,11.2,6.6C538.7,58.4,545.4,69.2,542.4,107.1z"/>
<path class="st0" d="M542.4,107.1c-0.2,3.1-0.6,6.4-1,9.9c-9.1,4.2-22.5,10.8-24,14c-1.4-5.5-20.1-15.2-24.2-17.4c0-0.2,0-0.4,0-0.7
	c-0.1-2-0.3-4.6-0.4-7.6L504,108l2.6,1.2c0,0,0.9-5.2,4.3-4.3c0,0,4.5,3.6,6.2,7.2c2.4-4.2,7.3-6.7,7.3-6.7c4.6-0.4,4.3,3.7,4.3,3.7
	h2.8c0,0,0,0,0,0C531.7,109,535.7,106.6,542.4,107.1z"/>
<path class="st0" d="M533.5,175.8c-0.2,1.8-9.8-0.2-15.8-0.1c-4.7,0.1-16.5,0.1-20.8-0.2c-0.5-0.1-0.9-0.5-0.8-1
	c0-0.2,0.1-0.4,0.3-0.6c2.2-2.2,8.4-7,14.6-6.8c8.6,0.4,13.9-0.9,16.2,0.7c2,1.4,5.5,4.9,6.3,7l0,0
	C533.5,175.3,533.5,175.6,533.5,175.8z"/>
<path class="st1" d="M494.2,175c0,0-17.3,3-14.6,30.7"/>
<path class="st0" d="M526.9,138.6l0.5,0.2l0.2,0.4c4.5,7,8.9,14,13.1,21.2c2.1,3.6,4.2,7.2,6.2,10.8c1.4,2.6,2.8,5.2,4,7.9
	c0-6.4-2.9-15.1-2.9-15.1s10.7-14.5,13.3-24.5c-0.9-11.4-6.1-18.4-8.2-20.7c-3.3,3.6-7.3,6.8-7.3,6.8s1.1-4.7,2.4-11.6
	c-1.5,0.7-4,1.8-7,3.2c-9.1,4.2-22.5,10.8-24,14c-1.4-5.5-20.1-15.2-24.2-17.4c0.1,2.2,0.2,3.4,0.2,3.4l-8-8.5
	c0.4,9.2,0.5,15.6,0.5,15.6s-1.5-4.2-3.8-8.7c-3.2,2.2-12,9.3-15.5,23.4c2,4.1,6.4,12.4,10.2,15.6c5.1,4.3,7,7.7,7,7.7
	s-5.9,5.6-6.4,12.5c-0.1,1.7-0.2,3.7-0.3,5.7c1.2-3,2.6-5.9,4.1-8.8c2-3.8,4.2-7.4,6.5-10.9s4.7-7,7.2-10.4
	c2.5-3.4,5.1-6.8,7.8-10.1l0.2-0.2l0.3-0.1l4.8-2.1l1.1,2.8l-4.6,1.7c-2.8,3-5.4,6.1-8,9.2c-2.7,3.2-5.3,6.6-7.7,9.9
	c-2.5,3.4-4.9,6.9-7,10.5c-1.7,2.9-3.3,5.8-4.7,8.9C477,186.7,477,193,477,193l-0.6-0.1c0.3,2.4,1.3,9,3.2,12.9
	c0.7,1.4,1.5,2.5,2.5,2.9c0.2,1.4,1.9,3.5,4,5.2c-1.7-23.3,6.9-33,9.3-35.3c0,0-0.1,0-0.1,0c-1.7-0.5-1.9-1.9-1.7-3.2
	c0-0.5,0.1-0.9,0.2-1.2c0,0,0,0,0,0c-2.2-2.2,6.8-9.5,12.3-10.9c5.4-1.4,7.7,1,10.9,0c3.2-0.9,5.5-1.6,8-1
	c2.5,0.6,12.4,6.1,8.6,13.5c0.1,0.2,0.2,0.4,0.3,0.5c4.3,2,15.2,8.5,13.4,24.2c0.7-2.1,1.4-4.2,1.9-6.2c0.3-1.8,1.4-8.3,1.8-13.8
	c0-0.3,0-0.5,0-0.8c-1.4-2.7-3-5.4-4.6-8c-2.2-3.5-4.5-7-6.8-10.4c-4.5-6.7-13.9-19.9-13.9-19.9l-3-0.8l0.8-2.9L526.9,138.6z
	 M541.7,128.8c4.5,0.7,7.3,6.4,7.3,6.4s-6.1-2.3-10.2-2.1c-4.2,0.3-9.4-2.2-9.4-2.2S537.1,128.1,541.7,128.8z M495,132.6
	c-7,0-12.8-2.8-12.8-2.8s3.9-2.9,10.2-3.3c6.3-0.4,14.1,3.2,14.1,3.2S502.1,132.7,495,132.6z M525.5,142.7l-7.5,8.8h-5.7l-6.1-8.8
	c0,0.1,9,4.8,9,4.8L525.5,142.7z"/>
<path class="st0" d="M533.7,175.5c-0.1-0.2-0.2-0.4-0.3-0.6l0,0c-0.8-2.1-4.3-5.6-6.3-7c-2.3-1.7-7.6-0.4-16.2-0.7
	c-6.2-0.3-12.4,4.6-14.6,6.8c-0.2,0.2-0.3,0.4-0.3,0.6c-1.1,0-1.8-0.3-2.2-0.6c0,0,0,0,0,0c-2.2-2.2,6.8-9.5,12.3-10.9
	c5.4-1.4,7.7,1,10.9,0c3.2-0.9,5.5-1.6,8-1C527.6,162.6,537.5,168.1,533.7,175.5z"/>
<path class="st0" d="M525.5,142.7l-7.5,8.8h-5.7l-6.1-8.8c0,0.1,9,4.8,9,4.8L525.5,142.7z"/>
<path class="st0" d="M551,179.1c0,0.1,0,0.3,0,0.4c-1.4-2.7-3-5.4-4.6-8c-2.2-3.5-4.5-7-6.8-10.4c-4.5-6.7-13.9-19.9-13.9-19.9
	l-3-0.8l0.8-2.9l3.4,1.1l0.5,0.2l0.2,0.4c4.5,7,8.9,14,13.1,21.2c2.1,3.6,4.2,7.2,6.2,10.8C548.4,173.7,549.8,176.4,551,179.1z"/>
<path class="st0" d="M509.4,140.4l-4.6,1.7c-2.8,3-5.4,6.1-8,9.2c-2.7,3.2-5.3,6.6-7.7,9.9c-2.5,3.4-4.9,6.9-7,10.5
	c-1.7,2.9-3.3,5.8-4.7,8.9c0-0.1,0-0.3,0-0.4c1.2-3,2.6-5.9,4.1-8.8c2-3.8,4.2-7.4,6.5-10.9s4.7-7,7.2-10.4
	c2.5-3.4,5.1-6.8,7.8-10.1l0.2-0.2l0.3-0.1l4.8-2.1L509.4,140.4z"/>
<path class="st0" d="M549,135.2c0,0-6.1-2.3-10.2-2.1c-4.2,0.3-9.4-2.2-9.4-2.2s7.8-2.9,12.3-2.1C546.2,129.5,549,135.2,549,135.2z"
	/>
<path class="st0" d="M506.5,129.8c0,0-4.4,2.9-11.5,2.9c-7,0-12.8-2.8-12.8-2.8s3.9-2.9,10.2-3.3
	C498.8,126.1,506.5,129.8,506.5,129.8z"/>
<path class="st0" d="M554.6,194.6h-5.5c0,0,0-0.2,0.1-0.5c0.3-1.8,1.4-8.3,1.8-13.8c0-0.3,0-0.5,0-0.8c0.5,0.9,1,1.9,1.4,2.8
	c-0.4-1.1-0.9-2.2-1.4-3.3c0-6.4-2.9-15.1-2.9-15.1h4.3C552.4,163.9,558.1,176.6,554.6,194.6z"/>
<path class="st0" d="M484,162.1c0,0-5.9,5.6-6.4,12.5c-0.1,1.7-0.2,3.7-0.3,5.7c-0.4,0.9-0.7,1.8-1,2.7c0.3-0.8,0.7-1.6,1-2.4
	c-0.2,6.1-0.3,12.3-0.3,12.3l-0.6-0.1l-4.3-1c0,0-1-22.8,2.4-25.2c3.3-2.4,5.7-4.5,5.7-4.5L484,162.1L484,162.1z"/>
<path class="st0" d="M512.9,220.7c0,0-6.3,1.1-8.3-0.9c-1.6-11.8,3.6-35.8,4.7-40.3c2.4-0.1,4.4-0.2,6.2-0.2
	C515.6,183.2,516.2,207.6,512.9,220.7z"/>
<path class="st0" d="M520.1,221.9c-3,1.8-7.2-1.2-7.2-1.2c3.4-13.1,2.7-37.5,2.6-41.5c0.9,0,1.8,0,2.7,0c1,0,2.3,0.2,3.8,0.4
	C522.7,184.5,525.6,208.3,520.1,221.9z"/>
<path class="st0" d="M504.5,219.7c-4,1.3-10.3-1.1-12.6-3.6c-3.8-16.1,5.7-32.7,8.1-36.6c1.6,0.2,3.5,0.3,6,0.1
	c1.1-0.1,2.1-0.2,3.1-0.2C508.2,184,502.9,208,504.5,219.7z"/>
<path class="st0" d="M492,216.2c-1.6,0.4-3.9-0.8-5.9-2.4v0c-1.7-23.3,6.9-33,9.3-35.3c1.6,0.5,3,0.9,4.7,1.1
	C497.6,183.5,488.2,200.1,492,216.2z"/>
<path class="st0" d="M532.1,218.8c-2.6,3-9.3,3.7-12,3.1c5.5-13.6,2.6-37.4,1.9-42.3c2.5,0.4,5.3,0.8,7.6,0.8h0
	C531.8,184.4,538.2,198.5,532.1,218.8z"/>
<path class="st0" d="M532.7,179.7c-0.7,0.5-1.8,0.7-3.1,0.7h0c-2.3,0.1-5.1-0.4-7.6-0.8c-1.5-0.2-2.8-0.4-3.8-0.4
	c-0.9,0-1.8,0-2.7,0c-1.9,0-3.8,0.1-6.2,0.2c-1,0.1-2,0.1-3.1,0.2c-2.6,0.2-4.4,0.1-6-0.1c-1.7-0.2-3.1-0.7-4.7-1.1c0,0-0.1,0-0.1,0
	c-1.7-0.5-1.9-1.9-1.7-3.2c0-0.5,0.1-0.9,0.2-1.2c0.4,0.4,1.1,0.6,2.2,0.6c0,0.5,0.3,0.9,0.8,1c4.2,0.4,16.1,0.3,20.8,0.2
	c6-0.1,15.6,1.8,15.8,0.1c0.2,0.1,0.3,0.1,0.5,0.2C534.5,177.1,534.6,178.3,532.7,179.7z"/>
<path class="st0" d="M547.3,200.3c-0.5,1.6-1.1,3.1-1.8,4.4c-3,6.1-8.6,13.2-13.4,14.1c6.1-20.3-0.3-34.4-2.5-38.4
	c1.3,0,2.4-0.2,3.1-0.7c1.9-1.4,1.7-2.5,1.2-3.6C538.3,178,549.1,184.6,547.3,200.3z"/>
<path class="st0" d="M567.6,200.1c-8,8.2-22.3,22.7-24.2,24.8c-2.2,2.3-4.5,17.3-3.1,29.7l-65.5-35.8V212c-3.8-4.7-7.1-9.2-10-13.6
	l0.8-0.5c0,0-0.8-0.6-2.2-1.6c-12.8-20.2-16-35.9-16-35.9l1-2.4l8-18.9c0.2,4.7,0.9,9.7,2.3,14.6c4.3,15,13.3,38.3,13.3,38.3l4.3,1
	c0.3,2.4,1.3,9,3.2,12.9c0.7,1.4,1.5,2.5,2.5,2.9c0.2,1.4,1.9,3.5,4,5.2v0c2,1.6,4.2,2.8,5.9,2.4c2.3,2.5,8.6,4.9,12.6,3.6
	c2,2,8.3,0.9,8.3,0.9s4.3,3,7.2,1.2c2.7,0.6,9.4-0.1,12-3.1c4.9-0.9,10.5-8.1,13.4-14.1c0.6-1.3,1.2-2.8,1.8-4.4
	c0.7-2.1,1.4-4.2,1.9-6.2c0,0.3-0.1,0.5-0.1,0.5h5.5c8-13.1,13.3-31.3,16.1-45.2C571.3,158.5,571.6,176.7,567.6,200.1z"/>
<path class="st0" d="M557.8,237.1c-2.1,11.2,5.2,16.2,5.2,16.8c0,0.5-7,5.3-7,5.3l-0.4,3.7l-15.3-8.4c-1.4-12.4,0.9-27.4,3.1-29.7
	c1.9-2,16.2-16.6,24.2-24.8c-0.6,3.6-1.3,7.2-2.1,11.1C565.4,211.1,559.9,225.9,557.8,237.1z"/>
<path class="st0" d="M463.4,196.2c-6.7-4.9-26-19.7-26.4-24.4l6.1-7.5l5.3-6.5l-1,2.4C447.5,160.3,450.7,176,463.4,196.2z"/>
<path class="st0" d="M464.8,198.4l-12.4,7.3c0,0,0,0,0,0c-0.7-0.7-23.8-22.5-27.3-25.3c-0.6-0.5-0.9-1-1-1.5
	c-0.6-2.9,4.5-6.9,8.7-11.2c3.4-3.5,7.8-3.6,10.4-3.3l-6.1,7.5c0.4,4.7,19.8,19.5,26.4,24.4C463.9,196.9,464.3,197.7,464.8,198.4z"
	/>
<path class="st0" d="M452.4,205.7c-0.9-0.6-29.4-17.6-32.3-22c-0.2-0.3-0.3-0.5-0.2-0.6c0.1-1.8,2.4-3.2,4.2-4.1
	c0.1,0.6,0.4,1.1,1,1.5C428.6,183.2,451.6,205,452.4,205.7z"/>
<path class="st0" d="M474.8,212v6.8l-68.8-27c4.2-1.1,10.9-5.8,14-8.1c2.9,4.4,31.4,21.5,32.3,22c0,0,0,0,0,0l12.4-7.3
	C467.7,202.8,471,207.4,474.8,212z"/>
<path class="st0" d="M548.8,311.9c-13.2-8.3-60.4-36.6-71.5-42.3c-12.5-6.4-54.5-23.9-54.5-23.9s-11.4-9.6-14.1-17.1
	c-2.1-1.6-4.4-3.6-6.7-5.6l63.7,21.3l78.3,53.6L548.8,311.9z"/>
<path class="st0" d="M573,363.3c-1.4-2.4-3.6-5.5-6.2-9.1c-1.6-2.2-3.4-4.5-5.4-7C547.1,329,524,303.8,505,291.5
	c-8.8-5.7-20.3-11.2-32.2-16h0c-22.5-9.3-46.1-16.4-54.1-18.8c-0.2-0.1-0.4-0.1-0.6-0.2c-4.5-2.7-7.7-5.7-10-8.5
	c-5.4-6.7-5.7-12.6-5.7-12.6s-3.3-3.3-7.4-7c-1.3-1.2-2.7-2.3-4-3.5c-1-0.9-2.1-1.7-3.1-2.4c-0.3-0.5-0.6-0.9-1-1.3
	c-6.2-7.9-13.1-4.9-13.1-4.9s-1.6-1.5-4.6-4.1c-6.8-5.8-20.8-16.9-39.1-27c-26-14.4-41.6-8.2-42-8.1c0.1-0.1,1.1-1.3,2.7-3
	c0,0,0,0,0,0c5-5.2,16-15.2,25.6-14c0.3,0,0.7,0.1,1.1,0.2c19.7,8.8,56.9,41,61.8,44.9c6.6-0.4,13.9,10,13.9,10s4.1,3.9,8.7,8
	c2.2,2,4.6,4,6.7,5.6c2.7,7.5,14.1,17.1,14.1,17.1s42.1,17.5,54.5,23.9c11.2,5.7,58.3,34,71.5,42.3c1.5,1,2.6,1.7,3.1,2
	c4.2,3,13.8,20.7,19.1,40.8C571.8,357.6,572.5,360.4,573,363.3z"/>
<path class="st0" d="M628,272.6l-26.7,18.5l7.8,38.5l-5.3,20.7l-3.5,4.5l-11.1,14.3l-16.1-5.9c-0.6-2.9-1.2-5.8-2-8.6
	c-5.4-20.1-14.9-37.8-19.1-40.8c-0.5-0.4-1.6-1.1-3.1-2l-4.8-14l-78.3-53.6L401.9,223c-4.6-4-8.7-8-8.7-8s-7.3-10.5-13.9-10
	c-4.9-3.9-42.1-36.1-61.8-44.9c15.3,3,82.9,33.1,88.5,31.7l68.8,27l66.3,40.7l18.7,11.5l8.5,17.8l9.4,1.4l-3.3-13l24.8-22.8v-4.8
	c10.3,0.6,26.4-1.2,37,5.7c1.4,0.9,2.7,1.9,3.8,3.2L628,272.6z"/>
<path class="st0" d="M599.1,254.3l-24.8,22.8l3.3,13l-9.4-1.4l-8.5-17.8l-18.7-11.5l-66.3-40.7l65.5,35.8l15.3,8.4l0.4-3.7
	c0,0,7-4.8,7-5.3c0-0.5-7.3-5.5-5.2-16.8c2.1-11.2,7.7-26,7.7-26s10,21.9,15.2,26c5.2,4.1,13.7,6.9,18.2,12.3c0.1,0,0.2,0,0.4,0
	L599.1,254.3L599.1,254.3z"/>
<path class="st0" d="M626.4,301.8l-14.3,15.3l23.5-13.4c0,0,11.9-7.5,18.2-9.3c5.8-1.6,17.9,0.8,24.4,4.2v13.1c0,0-12.3-2-26,3.5
	c-2.8,1.1-5.7,2.5-8.5,4.4c8.5,6.9,8.8,24.2,8.8,24.2l-13.5,9.5c0,0-7.4-5.5-8.1-5.5c-0.6,0-7.3,9-9.2,11.6
	c-0.3,0.5-0.5,0.7-0.5,0.7h-14.7l-6.1-5.4l3.5-4.5l5.3-20.7l-7.8-38.5l26.7-18.5l11.9-14.3c-1.2-1.2-2.5-2.3-3.8-3.2
	c9-0.6,29.3-1.6,34.1,1c6.2,3.4,10.7,4.8,11.6,12.3c0.9,7.5-1.2,22.5-1.2,22.5s0.1,0.1,0.3,0.2c-6.2-1.6-14.9-3.4-22.4-3.6
	c-13.2-0.4-24.1,11-24.6,11C633.3,298.6,626.4,301.8,626.4,301.8z"/>
<path class="st0" d="M681.6,296.6c-0.4,0.9-1,1.9-1.9,3c-0.4-0.3-0.9-0.5-1.4-0.8c-6.5-3.4-18.6-5.9-24.4-4.2
	c-6.2,1.8-18.2,9.3-18.2,9.3l-23.5,13.4l14.3-15.3c0,0,7-3.2,7.5-3.2c0.5,0,11.4-11.4,24.6-11c7.4,0.2,16.2,2,22.4,3.6
	C681.5,291.8,682.9,293.5,681.6,296.6z"/>
<path class="st0" d="M561.4,347.2h-11.5l-18.1-10.4l-0.6-0.3l-23-10.6L477.6,304l-4.7-28.5c11.9,4.9,23.4,10.4,32.2,16
	C524,303.8,547.1,329,561.4,347.2z"/>
<path class="st0" d="M531.2,336.5c-6.7,1.3-18.3,3.4-37,6.3c-0.1-0.1-0.2-0.2-0.3-0.3l1.5-1.3c0,0-1.2,0-3.2,0
	c-42.6-33.8-97-38-97-38l12.1-23.9v0l11.4-22.7c8,2.4,31.6,9.5,54.1,18.8h0l4.7,28.5l30.6,21.9L531.2,336.5z"/>
<polygon class="st0" points="620.9,431.6 619.2,461.8 608,460.8 601.6,464.5 576.4,460.3 570,454.4 558.1,451.9 557.4,451.8 
	555.3,421.4 574,423 580.2,437 597.5,441.1 605.7,429.7 "/>
<path class="st0" d="M619.2,461.8L619.2,461.8l-0.5,10.2c-3.9-0.1-11.8-0.3-12.3,0.1c-0.7,0.5-8.8,7.6-8.8,7.6l-19.4-4L570,467
	c0,0-7.4-1.5-12.9-2.2l0.3-3.7l0.7-9.2l11.9,2.5l6.4,5.9l25.2,4.1l6.4-3.7L619.2,461.8z"/>
<path class="st0" d="M618.7,471.9l-0.7,12.6c0,0-13.1,4.8-16.6,5.9c-3.6,1.2-9,14-9,14l-11.7-1.8c-0.2-0.6-0.5-1.2-0.7-1.8
	c-1.4-3.5-4.2-7.8-6.7-11.1c0,0,0,0,0,0c-2.1-2.9-3.9-5-4.2-5.3c-4.8-3.8-12.9-9-12.9-9l0.8-10.8c5.5,0.7,12.9,2.2,12.9,2.2l8.1,8.6
	l19.4,4c0,0,8.1-7,8.8-7.6C606.9,471.6,614.8,471.8,618.7,471.9z"/>
<path class="st0" d="M638.2,376.6c-6.1,10.6-17,26.1-17,26.1l-2.8-0.3l-11.5-1.1l-7.8,4.6l-19.6-4.6l-6.5-8.2c0,0-14.5-4.2-29.4-6.9
	c-1.3-0.2-2.5-0.4-3.8-0.6c-15.8-18.2-41.7-35.6-41.7-35.6l31.1-7.1l23.1,9.6l14.4,1.8c2.7,3.6,4.8,6.7,6.2,9.1l16.1,5.9l11.1-14.3
	l6.1,5.4h14.7c0,0,0.2-0.3,0.5-0.7l16.3,17.1L638.2,376.6z"/>
<path class="st0" d="M557.4,451.8l0.7,0.1l-0.7,9.2c0,0-56.8-45.5-66.5-51c-9.7-5.5-48.8-20.8-48.8-20.8l51.8-46.8
	c0.1,0.1,0.2,0.2,0.3,0.3c18.6-3,30.3-5.1,37-6.3l0.6,0.3l18.1,10.4h11.5c2,2.5,3.8,4.8,5.4,7l-14.4-1.8l-23.1-9.6l-31.1,7.1
	c0,0,25.9,17.5,41.7,35.6c1.3,0.2,2.5,0.4,3.8,0.6l9,34.9l2.6,0.2L557.4,451.8z"/>
<path class="st0" d="M493.9,342.6l-51.8,46.8l-2.7-1.2l-16-7.2l-9.8,13.7l-1.4,3.2h-9.8c12.5-12.5,39.7-56.1,39.7-56.1
	s-0.2-0.2-0.6-0.5h50.7C492.8,341.7,493.4,342.1,493.9,342.6z"/>
<path class="st0" d="M636.6,496.4l-0.1,2.7l-0.2,0.4l-4.3,7.7l0.6,5.2l1.1,10L609.5,549l-9.7,3.6l-3.4-35.1
	c4.7,0.5,9.7,0.5,10.1-0.5c0.7-1.7,5.9-22.1,5.9-22.1l4.8,0.2c0,0,14.3-16.6,17.8-24.7c0.1,0.5,0.2,1.1,0.4,1.7
	c0.9,4.8,1.2,10.9,1.4,16.1C636.7,491.5,636.7,494.4,636.6,496.4z"/>
<path class="st0" d="M652.9,531.6c-1,2.1-4.5,4.8-7.2,6.7c-0.8-7.8-3.4-27.6-4.9-32.4c-0.9-2.9-2.8-5-4.5-6.4l0.2-0.4l0.1-2.7
	c0-2,0-4.9,0-8.2c4.7-0.4,12.5,0.5,12.4,11.5C652,503.2,654.7,528,652.9,531.6z"/>
<path class="st0" d="M643.4,601.1l2,89.7v0l-13.5,20c-0.3-4.8-0.6-12-1-20.8v0c-1.9-45.9-4.4-134.5-5-153l8.5-10.5l-1.8-14.2
	l-0.6-5.2l4.3-7.7c1.7,1.4,3.6,3.6,4.5,6.4c1.5,4.8,4.1,24.6,4.9,32.4c0.2,1.5,0.2,2.5,0.2,2.9c0,2.7-4.6,48.5-2.7,59L643.4,601.1z"
	/>
<path class="st0" d="M630.9,690.1L630.9,690.1c-4.1,2.5-10.6,6.7-13.2,8.9v-0.1h0l-0.1-0.8v-0.1l-9.4-138.9l17.7-22
	C626.5,555.6,629,644.3,630.9,690.1z"/>
<path class="st0" d="M595.1,695.8c-8.6-5.6-20.9-13.5-28.2-18.2c-6-53.2-16.5-128.2-18.9-145.3l32.5,24.9L595.1,695.8z"/>
<path class="st0" d="M571.1,724c-11.5-8.3-31.2-22.4-39.2-27.8c-5.2-43.2-19.3-139.4-42.6-162.4c-10.1-10-20.9-16.6-30.8-20.9
	l26.6-17c0,0,0.6-13.4,0.9-22.9c7.7,5.7,25.2,17.9,25.2,17.9l13.1,23.3l23.5,18.1c2.4,17.1,12.9,92,18.9,145.3
	c0.9,8.2,1.8,16,2.4,22.8v0C570.3,710.2,570.9,718.4,571.1,724z"/>
<path class="st0" d="M486.2,466.5c0,1.7,0,4-0.1,6.6c-0.3,9.5-0.9,22.9-0.9,22.9l-26.6,17c-3.5-1.5-6.9-2.8-10.1-3.8l23.1-18.6
	l0.6-20.2l-22.5-18l17.3,0.9L486.2,466.5z"/>
<path class="st0" d="M472.1,470.3l-0.6,20.2l-23.1,18.6c-5.2-1.7-9.9-2.7-13.8-3.4l20.4-15.8v-21c0,0-17.3-13.1-23.6-17.5l18.2,0.9
	L472.1,470.3z"/>
<path class="st0" d="M455,468.9v21l-20.4,15.8c-6.8-1.2-11.3-1.2-11.9-1.2c0,0-0.1,0-0.1,0l2.5-7.2l16.9-9.2v-19.7l-11.5-7.3
	l-0.3-9.8l1.1,0h0C437.7,455.8,455,468.9,455,468.9z"/>
<path class="st0" d="M586.4,747.6v7.8c-4.2,0.3-7.2,0.5-7.6,0.5c-1.4,0-44.5-38.5-44.5-38.5s-0.8-8.2-2.3-21.2
	c8,5.3,27.8,19.5,39.2,27.8v0c5.2,3.7,8.6,6.2,8.6,6.2v11.2L586.4,747.6z"/>
<path class="st0" d="M626.1,719.6c0,0,0.2,5.2,0.2,9.5h-26.6l-30.4-28.6v0c-0.7-6.9-1.5-14.6-2.4-22.8c7.4,4.7,19.6,12.6,28.2,18.2
	l0.1,0.9l1.4,14l21.4,1.5l-0.3-13.3c2.6-2.2,9.1-6.4,13.2-8.9c0.4,8.7,0.7,15.9,1,20.8L626.1,719.6z"/>
<path class="st0" d="M626.1,734.5c-0.5,1.2-8.1,7.6-8.1,7.6v11.1c-6.4,0.5-22.1,1.5-31.6,2.2v-7.8l-6.7-6.2v-11.2
	c0,0-3.5-2.5-8.6-6.2v0c-0.2-5.7-0.9-13.8-1.8-23.5l30.4,28.6h26.6C626.3,731.8,626.3,734.1,626.1,734.5z"/>
<path class="st0" d="M646,718.5l-25.1,34.6c0,0-1.1,0.1-2.8,0.2v-11.1c0,0,7.6-6.4,8.1-7.6c0.2-0.5,0.2-2.8,0.2-5.5
	c0-4.3-0.2-9.5-0.2-9.5l5.8-8.7l13.5-20L646,718.5z"/>
<path class="st0" d="M658.5,714.8L638.3,747l-1.8,22.5l-2.1,26.4c0,0-58,54.1-106.9,40.8c1.9-7.2,3.4-13.2,3.3-15.8
	c-0.2-8.3-7.4-41.1-7.4-41.1s-2.6-46.8-3.6-60.6c-1-13.8-16.6-45.9-19.2-50.8c-2.6-5-7.1-48.7-8.6-59.6
	c-1.4-10.9-11.2-33.3-22.6-43.2c0,0-1.3,0-2,0c-13.7,1-47,15-71.2,26c4.5-7.6,9.4-18,14.3-31.5c11-30,8.9-52.6,8.9-52.6l3.3-2.7
	c0.6,0,5.1,0,11.9,1.2c3.9,0.7,8.6,1.7,13.8,3.4c3.2,1,6.6,2.3,10.1,3.8c9.9,4.3,20.7,10.9,30.8,20.9c23.3,23,37.3,119.2,42.6,162.4
	c1.6,13,2.3,21.2,2.3,21.2s43.1,38.5,44.5,38.5c0.4,0,3.4-0.2,7.6-0.5c9.5-0.6,25.2-1.7,31.6-2.2c1.8-0.1,2.8-0.2,2.8-0.2l25.1-34.6
	l-0.6-27.6v0l-2-89.7c3.1-1.3,7.3-2.8,8.2-2.3c1.3,0.9,3.4,11.7,3.8,13.3c0,0.1,0,0.2,0,0.2S657.5,681.9,658.5,714.8z"/>
<path class="st0" d="M682,721.8l-5.8,0.7l-4,0.5c0,0-23.8,36.8-35.7,46.6l1.8-22.5l20.1-32.2l4.8-7.7l-2-95.2
	c2.1,0.2,3.9,0.7,4.5,1.9C667.2,617,677.4,659,682,721.8z"/>
<path class="st0" d="M663.3,707.1l-4.8,7.7c-1-32.9-3.2-102.4-3.2-102.4s0-0.1,0-0.2c1.7-0.2,4-0.4,6-0.3L663.3,707.1z"/>
<path class="st0" d="M406.4,706.7c-2.6,24.7-4.4,48.5-5.1,58.8c-17-1.7-37,11.1-45.6,17.7c0-0.3,0-0.4,0-0.5
	c-0.2-1.2,0.3-18.2,0.8-38.1c0,0,0,0,0,0C365.2,732.3,384,709.9,406.4,706.7z"/>
<path class="st0" d="M419,635.9c-1.2,2.9-2.3,6-3.1,9.1c-3.9,14.1-7.1,38.2-9.5,61.6c-22.4,3.2-41.2,25.6-49.9,37.8
	c0.6-22.9,1.2-49.6,0.8-59.9c-0.1-1.5-0.1-3-0.1-4.4C369.7,667.4,396.4,642.1,419,635.9z"/>
<path class="st0" d="M467.5,565.4c-0.6,4.9-2.1,11.1-5.2,16.2c-5.8,9.4-31.5,26-43.2,54.3c-22.7,6.2-49.4,31.4-61.9,44.3
	c-0.4-16.1,0.4-23.5,2.8-33.6c2.5-11,10.8-30.9,10.2-35.6c-0.1-0.6-0.1-1.1-0.2-1.5c5-0.5,9.6-1.2,12-2.2c3.9-1.6,8.9-6.7,14.4-15.9
	C420.5,580.4,453.8,566.4,467.5,565.4z"/>
<path class="st0" d="M528.4,886.4l-4.3,19.5L354,902.5c0,0,1.2-8.1,0-10.5c-1.2-2.3-3.1-7.1-2.4-12.1c0.7-5,3.7-15,3.9-25
	c0.2-9.6,0.5-65.3,0.2-71.8c8.6-6.6,28.6-19.4,45.6-17.7c22.1,2.2,56,18.2,56,18.2s3.5,18.1,7.9,40.1c3.5,17.5,7.7,37.6,11.1,52.9
	c12.6,8.9,35.7,5,43.1,3.4C523.2,886.8,528.4,886.4,528.4,886.4z"/>
<path class="st0" d="M530.8,820.8c0.1,2.6-1.4,8.6-3.3,15.8c-0.8,3-1.7,6.3-2.6,9.6c-3.9,14.2-7.8,29.5-5.7,33.5
	c0.1,0.1,0.2,0.3,0.2,0.4c-7.4,1.6-30.5,5.5-43.1-3.4c-3.4-15.3-7.6-35.4-11.1-52.9l17.3-5.9c0,0-7.8-134.7-9.2-162.9
	c-1-19.5-2.5-67.8-3.8-89.7c11.4,10,21.1,32.3,22.6,43.2c1.4,10.9,5.9,54.7,8.6,59.6c2.6,5,18.3,37.1,19.2,50.8
	c1,13.8,3.6,60.6,3.6,60.6S530.6,812.5,530.8,820.8z"/>
<path class="st0" d="M482.5,818l-17.3,5.9c-4.4-22-7.9-40.1-7.9-40.1s-33.9-16-56-18.2c0.7-10.3,2.5-34.2,5.1-58.8
	c2.5-23.4,5.7-47.5,9.5-61.6c0.9-3.2,1.9-6.2,3.1-9.1c11.7-28.2,37.4-44.9,43.2-54.3c3.2-5.1,4.6-11.3,5.2-16.2c0.7-0.1,1.4-0.1,2,0
	l0,0c1.3,21.9,2.8,70.2,3.8,89.7C474.7,683.2,482.5,818,482.5,818z"/>
<path class="st0" d="M674.4,777.2c-16.4,18.5-59.9,63.3-59.9,63.3s-44.8,21.6-86.1,16.8c-1.3-4.1-2.5-7.8-3.5-11
	c0.9-3.3,1.8-6.6,2.6-9.6c49,13.4,106.9-40.8,106.9-40.8l2.1-26.4c11.9-9.7,35.7-46.6,35.7-46.6l4-0.5
	C676.6,731.3,677.5,757.2,674.4,777.2z"/>
<path class="st0" d="M683.7,815.1c-1.7,44.4-6.5,76-8.7,85.2l-56.2,0.9l-4.4-60.7c0,0,43.6-44.8,59.9-63.3c-0.3,1.9-0.6,3.8-1,5.5
	C670.2,800.4,675.2,811.6,683.7,815.1z"/>
<path class="st0" d="M618.9,901.2l-76.1,1.2c-0.4-0.7-8.5-26.1-14.5-45.1c41.3,4.8,86.1-16.8,86.1-16.8L618.9,901.2z"/>
<path class="st0" d="M683.7,815.1c-8.5-3.5-13.5-14.7-10.3-32.3c0.4-1.8,0.7-3.6,1-5.5c3.2-20.1,2.2-46,1.8-54.8l5.8-0.7
	c0.7,8.8,1.2,17.9,1.6,27.4C684.6,773.1,684.5,795.4,683.7,815.1z"/>
<path class="st0" d="M492.2,341.2h-50.7c-3.1-2.8-17.9-15.7-31.5-19.4l-10.9-13.7l-3.9-4.9C395.2,303.3,449.7,307.4,492.2,341.2z"/>
<path class="st0" d="M442.1,341.8c0,0-27.3,43.7-39.7,56.1c-3.2-0.4-8.7-2.1-13.9-4l0,0c-3.9-1.4-7.6-2.8-10.1-3.8
	c-2-0.8-3.2-1.3-3.2-1.3l31-48.8l4.9-16.9l-1-1.2c13.7,3.7,28.5,16.6,31.5,19.4C441.9,341.6,442.1,341.8,442.1,341.8z"/>
<path class="st0" d="M340.4,278c0,0-4.3,5.9-7.7,5.3c-8.1-4.5-9.8-11.9-10.2-15.6l7.6-8.1C329.7,264.2,340.4,278,340.4,278z"/>
<path class="st0" d="M349.4,273.3c-1.9,3.9-9,4.6-9,4.6s-10.6-13.8-10.2-18.4l10.6-11.3C341.6,254.4,344.1,268.9,349.4,273.3z"/>
<path class="st0" d="M361.5,268.6c0,0-2.9,6.1-12.1,4.7c-5.3-4.5-7.8-18.9-8.7-25l6.9-7.3l10.8-4C362,247.1,361.5,268.6,361.5,268.6
	z"/>
<path class="st0" d="M375.1,271.4c-3.9,0.4-13.6-2.8-13.6-2.8s0.5-21.6-3.1-31.6l16.9-6.2C375.7,237.3,376.8,257.5,375.1,271.4z"/>
<path class="st0" d="M410.9,323l-4.9,16.9l-31,48.8c-1.8,1.4-3,3.9-3.8,6.6c-12.4-13.2-26.9-10.2-33-7.5c-4.6,2-15.3,1.9-20.9,1.7
	c-0.3-2.4-0.4-4.6-0.4-6.2c0.7-0.6,1.4-1.1,2.2-1.8c0.2-0.2,0.4-0.3,0.6-0.5c3.3-2.7,8.7-7.2,11.4-10.9
	c19.7-20.9,45.4-55.7,47.6-59.6c2.8,2.2,16.3-1.4,20.4-2.5l10.9,13.7L410.9,323z"/>
<path class="st0" d="M371.4,422.3c-8.3-1.9-32.7,4.6-40.7,9.1c-0.2-2.7-1.3-12.9-3.8-19.2c-6.3-4.1-8.6-14.8-9.5-22.7
	c5.6,0.2,16.3,0.4,20.9-1.7c6.1-2.7,20.6-5.7,33,7.5c-1.4,5-1.4,10.5-1.4,10.5L371.4,422.3z"/>
<path class="st0" d="M373,427.5c-3.5,4.9-10.1,6.9-17.1,7.3c-12.1,0.8-25.2-2.8-25.2-2.8s0-0.2-0.1-0.7c8-4.5,32.3-11,40.7-9.1
	C374.2,422.9,375.2,424.5,373,427.5z"/>
<path class="st0" d="M557.4,461.1l-0.3,3.7l-0.8,10.8c0,0-58.7-36.3-75.3-47c-16.6-10.7-68.8-30.6-68.8-30.6l1.4-3.2l9.8-13.7
	l16,7.2l2.7,1.2c0,0,39.1,15.2,48.8,20.8C500.6,415.6,557.4,461.1,557.4,461.1z"/>
<path class="st0" d="M580.7,502.8l-5.7-0.9c0,0,0-7.2-1.7-12.1c2.4,3.4,5.3,7.7,6.7,11.1C580.2,501.6,580.5,502.2,580.7,502.8z"/>
<path class="st0" d="M584.5,545.6l-28.3-38.3l-8.3-16.4l-27.1-20.2v-9.7l-80.5-44.3h-7.1l-44.7-22.9c5.2,1.9,10.7,3.6,13.9,4h9.8
	c0,0,52.2,20,68.8,30.6c16.6,10.7,75.3,47,75.3,47s8.2,5.2,12.9,9c0.2,0.3,2,2.4,4.2,5.3c0,0,0,0,0,0c1.7,4.9,1.7,12.1,1.7,12.1
	l5.7,0.9c2.3,6,4.4,11.4,7.3,12.9c1.4,0.7,4.8,1.3,8.3,1.7l3.4,35.1h-15.2L584.5,545.6L584.5,545.6z"/>
<path class="st0" d="M626,537.2l-17.7,22l9.4,138.9v0.1l0,0.8v0.1l0.3,13.3l-21.4-1.5l-1.4-14l1.6,0.2c-0.5-0.3-1.1-0.7-1.7-1.1
	l-14.6-138.6l-32.5-24.9l-23.5-18.1L511.3,491c0,0-17.5-12.2-25.2-17.9c0.1-2.6,0.1-5,0.1-6.6l34.9,24l12.1,23.5l38.7,30l12.6,4v4.6
	h15.2l9.7-3.6l24.2-26.6l-1.1-10l1.8,14.2L626,537.2z"/>
<path class="st0" d="M584.5,545.6v2.3l-12.6-4l-38.7-30l-12.1-23.5l-34.9-24L467,453.2l-17.3-0.9l-18.2-0.9h0
	c-0.4-0.3-0.8-0.5-1.1-0.8l0,0.7l-1,0l-7.3-4.6l-25-15.8l-0.5-1.1l-18.2-39.6c2.5,1,6.2,2.4,10.1,3.8l0,0l44.7,22.9h7.1l80.5,44.3
	v9.7l27.1,20.2l8.3,16.4L584.5,545.6z"/>
<path class="st0" d="M396.5,429.8l-12.3,1.5c0,0-3.2,4.6-10,9.9c-6.8,5.2-9.4,3.5-9.4,3.5l-4.7,5.8c0,0,0,0,0,0l-0.3,0.3l-3.8-15.8
	c6.9-0.5,13.5-2.4,17.1-7.3c2.1-3,1.2-4.6-1.7-5.2l-1.4-16.4c0,0,0-5.6,1.4-10.5c0.8-2.7,2-5.2,3.8-6.6c0,0,1.2,0.5,3.2,1.3
	L396.5,429.8z"/>
<path class="st0" d="M422,446.7l-9.8,8.1v4.6c0,0-8,3-15.5,5.5c-3.1,1-6,1.9-8.3,2.5c-3.5,0.9-8.8,4.4-13.4,9.4
	c-4.9,5.3-9,12.3-9.4,19.6c0,0.9,0,1.8,0,2.6c-7.5-6.4-5.7-32.8-5.7-32.8s1.4-2.1,3.6-5.2c-3.5-3-3.8-7.6-3.5-10.7c0,0,0,0,0,0
	l4.7-5.8c0,0,2.6,1.7,9.4-3.5c6.8-5.2,10-9.9,10-9.9l12.3-1.5l0.5,1.1L422,446.7z"/>
<path class="st0" d="M357,610c-4.8,0-8.6-0.5-9.4-1.3c-2.1-2.3-3.4-7.5,1.6-21.2c5-13.7,19.7-52.1,16.4-88.4c-0.1-0.9-0.1-1.8,0-2.6
	c0.4-7.3,4.5-14.3,9.4-19.6c1.3,9.7,3.9,30.4,4.8,39.2C381.1,527.1,359.8,600.6,357,610z"/>
<path class="st0" d="M405.6,498.2c-2,4.6-4.6,9-4.6,9s-9.6,62.7-26.7,94.3c-1.4,2.7-2.9,5.1-4.5,7.3c-0.2,0.2-0.3,0.5-0.5,0.7
	c-4.1,0.4-8.5,0.5-12.2,0.5c2.8-9.5,24-83,22.9-94c-0.9-8.8-3.6-29.5-4.8-39.2c4.6-5,9.9-8.5,13.4-9.4c2.2-0.6,5.2-1.5,8.3-2.5
	C396.9,472,398.1,491.3,405.6,498.2z"/>
<path class="st0" d="M442.1,468.4v19.7l-16.9,9.2l-2.5,7.2c0,0,0,0,0.1,0l-3.3,2.7c0,0,2.1,22.7-8.9,52.6
	c-5,13.5-9.8,23.9-14.3,31.5c-5.5,9.2-10.5,14.3-14.4,15.9c-2.4,1-7,1.7-12,2.2c0-0.2-0.1-0.5-0.1-0.7c1.5-2.2,3-4.6,4.5-7.3
	c17.1-31.6,26.7-94.3,26.7-94.3s2.7-4.4,4.6-9c-7.5-6.9-8.7-26.2-8.9-33.3c7.4-2.5,15.5-5.5,15.5-5.5v-4.6l9.8-8.1l7.3,4.6l1,0
	l0.3,9.8L442.1,468.4z"/>
<path class="st0" d="M327.7,304.5l-9,12.5c0,0,4.8,5.6,0.7,12.7l-8.1-3.7l0.9-15.2L299.4,289c0,0,2.1-6.4,1.2-20.4
	c-5-7.3-30.8-14.1-30.8-14.1c1.8-3.2,7.9-15.6,13-25.9v0c1.5-2.9,2.8-5.7,3.9-8c1.1-2.2,2-4,2.5-5.1c0.3-0.1,1.1-1,2.3-2.4
	c4.2-2.4,16.3-7.8,29.3-2.6c12,4.7,17.6,18.3,19.7,25.1l-21.8,32.1l0.8,3.2l5.2,21.2L327.7,304.5z"/>
<path class="st0" d="M312.2,310.9l-0.9,15.2l-0.1,1.7l-8.6,7.6l-0.5-2.1v0l-2.8-12l-19.5-0.2l-32.2-25.3l9.7-20.7l-0.7-3
	c0,0,10.2-13.2,13.2-17.6c0,0,25.8,6.8,30.8,14.1c1,14-1.2,20.4-1.2,20.4L312.2,310.9z"/>
<path class="st0" d="M302.2,333.3L302.2,333.3l-2.1,9.6c0,0-15.7,1.8-25-3.2c-1.1-0.6-2.5-1.4-4.2-2.4c-13.3-8-43.4-27.7-43.4-27.7
	l-0.6-15.6l-0.1-3.8l19.4-13.5l11-1.6l-9.7,20.7l32.3,25.3l19.5,0.2L302.2,333.3z"/>
<path class="st0" d="M407.3,279.3l-12.1,23.9l3.9,4.9c-4.1,1.1-17.6,4.7-20.4,2.5c-2.2,3.9-27.9,38.8-47.6,59.6
	c0.2-0.2,0.3-0.5,0.5-0.7c-0.4-9.8-5.7-36.7-12.9-38.7c0.3-0.4,0.5-0.8,0.7-1.2c4-7.1-0.7-12.7-0.7-12.7l9-12.5l-3-12.4
	c4.5-1.6,8-8.8,8-8.8c3.4,0.6,7.7-5.3,7.7-5.3s7.1-0.7,9-4.6c9.3,1.4,12.1-4.7,12.1-4.7s9.7,3.1,13.6,2.8c2.3,4.3,8,2.5,11.6,2.1
	c2.1,3.9,10.8,3.4,10.8,3.4l3,0.7L407.3,279.3L407.3,279.3L407.3,279.3z"/>
<path class="st0" d="M369.3,212l-23.5,3c0,0-23.7-16.2-29.9-20.5c-0.5-0.3-1-0.7-1.5-1.1c-6.9-4.9-20.5-14.9-26.2-4.5
	c-5.1,9.2-2.6,25.7-1.5,31.6c-1.1,2.3-2.5,5.1-3.9,8c-9.7-43.8,7.7-54.4,8.1-54.6c-1.6,1.7-2.6,2.8-2.7,2.9c0.5-0.2,16.1-6.4,42,8.1
	C348.5,195.2,362.5,206.2,369.3,212z"/>
<path class="st0" d="M314.4,193.5c-9.4,3.4-18.6,14.6-22.9,19.5c-1,0.6-1.6,1-1.6,1s-0.3,0.5-0.7,1.5c-0.6,1.2-1.4,3-2.5,5.1
	c-1-5.8-3.6-22.3,1.5-31.6C293.9,178.6,307.5,188.6,314.4,193.5z"/>
<path class="st0" d="M387,221.1l-23.4,1.8l-22.8,12.1l-0.3,0.4c-2.1-6.8-7.7-20.3-19.7-25.1c-13-5.1-25.1,0.3-29.3,2.6
	c4.3-5,13.5-16.1,22.9-19.5c0.5,0.4,1,0.7,1.5,1.1c6.2,4.3,29.9,20.5,29.9,20.5l23.5-3c3,2.6,4.6,4.1,4.6,4.1S380.8,213.2,387,221.1
	z"/>
<path class="st0" d="M261.8,411.5c-0.5,0.2-0.8,0.4-1,0.7c-0.9,1.4-7.4,20.3-14.2,35.2v0c-0.1,0.2-0.2,0.5-0.3,0.7
	c-4-10.9-10.3-27.3-13.4-32.2c4.8-4.3,6.1-7.3,6.1-7.3l-6.1-16.9l-6.7-16.4l-15.8-38.4l-8.8-4.4c9.4-18,21.6-33.8,25.4-38.6
	l0.6,15.6c0,0,30.1,19.7,43.4,27.7c-5.9,10-19.2,33.6-20.9,44.2C247.8,395.2,250.9,413.5,261.8,411.5z"/>
<path class="st0" d="M317,383.3C317,383.3,317,383.3,317,383.3C317,383.3,317,383.4,317,383.3c-18.1,14.5-35,23.4-41.1,25.4
	c-5.4,1.8-11.5,1.8-14,2.8c-10.9,1.9-14.1-16.3-11.9-30.1c1.7-10.7,15-34.2,20.9-44.2c1.7,1,3.2,1.9,4.2,2.4c9.3,5,25,3.2,25,3.2
	s10.2,10.5,15.7,21.2C321,374.1,317.4,382.3,317,383.3C317,383.3,317,383.3,317,383.3z"/>
<path class="st0" d="M331.6,369.6c-0.1,0.2-0.3,0.5-0.5,0.7c-4.1,4.4-8,8.1-11.4,10.9c-0.2,0.2-0.4,0.3-0.6,0.5
	c-1.2,0.9-2,1.5-2.2,1.7c0,0,0,0,0-0.1c0.4-0.9,4-9.2-1.2-19.2c-5.5-10.7-15.7-21.2-15.7-21.2l2.1-9.5l0.5,2.1l8.6-7.6l0.1-1.7
	l8.1,3.7c-0.2,0.4-0.5,0.8-0.7,1.2C325.9,332.9,331.3,359.8,331.6,369.6z"/>
<path class="st0" d="M189,354c0,0-31.2,50.8-37.3,61.7c-0.3-3-2.7-25.8,1.1-39.2c4.1-14.4,20.7-38.5,20.7-38.5l8.2,3.4L189,354z"/>
<path class="st0" d="M193.9,359.6l-34,56l-5.9,0.4l-2.2,0.1c0,0,0-0.1,0-0.3c6.1-10.9,37.3-61.7,37.3-61.7L193.9,359.6z"/>
<path class="st0" d="M226.2,375.4c-1.4,2.8-3.2,6.3-5.4,10.2c-9.6-12.2-26.9-25.9-26.9-25.9L189,354l-7.3-12.6l5-7.7l11.9-2.6
	l2.9,1.5l8.8,4.4L226.2,375.4z"/>
<path class="st0" d="M239.2,476.5c0,0,0.7,12.8-7.5,30.7c0,0,0,0,0,0c-0.3,0.5-0.5,1.1-0.8,1.6c10-22.8-27.8-25.9-37.1-27.3
	c-9.3-1.4-18.3-2.9-24.7-2.9c-6.4,0-16.2,6.4-18.4,17.8c-0.1-0.5-0.2-1-0.3-1.6v0c-4.5-23.2,2.4-71.1,3.6-78.9l5.9-0.4l34-56
	c0,0,17.3,13.8,26.9,25.9c2.2-3.9,4-7.4,5.4-10.2l6.7,16.4l6.1,16.9c0,0-1.2,3-6.1,7.3c3.1,4.9,9.4,21.3,13.4,32.2
	c0.1,0.1,0.1,0.3,0.2,0.5C244.5,463.9,239.2,476.5,239.2,476.5z"/>
<path class="st0" d="M230.9,508.8c0.3-0.5,0.5-1.1,0.8-1.6c-1.4,5-3.3,10.2-5.8,13.3c-0.5,0.2-1.1,0.7-1.8,1.2
	c-6.5,5.5-18.8,25.1-28.5,32.5c-10.7,8.1-46.3,4.2-53.7,3.7c0-0.5,0-1.1,0-1.6v0c0-18.6,5.8-48.5,8.6-61.5c0.1,0.6,0.2,1.1,0.3,1.6
	c2.3-11.4,12-17.8,18.4-17.8c6.4,0,15.4,1.4,24.7,2.9C203.1,482.9,240.9,486,230.9,508.8z"/>
<path class="st0" d="M224,521.7c-3.1,8.2-7.9,22.2-9.3,31.8c-7.5,8.2-12.4,23.3-12.4,23.3l-7.4,10.9c0,0,4.7,46.6-7,53.2
	c-11.8,6.7-17.4-9.5-19.8-19.5s-2.1-33.5-6.9-38.3c-4.4-4.5-16.8-8.1-26-5.4c3.4-11.8,6.2-20.7,6.5-21.4c0,0.5,0,1.1,0,1.6
	c7.4,0.5,43,4.4,53.7-3.7C205.2,546.9,217.6,527.3,224,521.7z"/>
<path class="st0" d="M248.5,618.6c-0.5,9.6,2.1,23.4-10,24.4c0.5-5.7,1.2-14.6,0.7-17.5c-0.7-4.5-11.2-12.6-14.7-15.4
	c-3.6-2.9-11.6-8.3-16.6-7.1c-5,1.2-7.4,13.1-3.6,16.2c1.9,1.5,5,4.6,7.7,7.3c-5-1.6-14.7-4.7-15.1-3.8c-0.5,1.2-5,19.2-4.3,28
	c-7.1-0.7-21.6,8.1-21.6,8.1s-2.9-7.6-15-13.8c-10.2-3-17.3,7.8-20.5,14.5c-5.1-5.4-9.8-11.8-11.8-18.3c-2.9-9.4,5.3-41.5,11.6-63.4
	c9.2-2.7,21.5,0.9,26,5.4c4.8,4.8,4.5,28.3,6.9,38.3s8.1,26.1,19.8,19.5c11.8-6.7,7-53.2,7-53.2l7.4-10.9c0,0,4.8-15,12.4-23.3
	c-0.5,3.7-0.6,6.7,0.2,8.5c3.8,9,11.2,28.5,10.2,43c2.1,0,2.1,0,2.1,0s-3.1-14.7,6.9-17.3C244.2,585.1,249,608.8,248.5,618.6z"/>
<path class="st0" d="M217.4,631.9c0,0,0,18.7-5.7,29.6c-7.6,7.7-16.9,20.3-25.2,20.3c-8.3,0-15.9-3.1-15.9-3.1s-12.9-1-18.3-4.8
	c-3-2.1-10.2-7.6-16.7-14.5c3.2-6.6,10.3-17.5,20.5-14.5c12.1,6.2,15,13.8,15,13.8s14.5-8.8,21.6-8.1c-0.7-8.8,3.8-26.8,4.3-28
	c0.4-0.9,10.1,2.1,15.1,3.8C214.9,629.3,217.4,631.9,217.4,631.9z"/>
<path class="st0" d="M238.5,643c-0.2,0-0.3,0-0.5,0c-1.2,3.1-8.1,25.5-26.4,18.5c5.7-11,5.7-29.6,5.7-29.6s-2.4-2.6-5.4-5.5
	c-2.7-2.8-5.9-5.8-7.7-7.3c-3.8-3.1-1.4-15,3.6-16.2c5-1.2,13.1,4.3,16.6,7.1c3.6,2.9,14,10.9,14.7,15.4
	C239.7,628.5,239,637.3,238.5,643z"/>
<path class="st0" d="M391.1,224.9l-15.8,5.9l-16.9,6.2l-10.8,4l-6.9,7.3l-10.6,11.3l-7.6,8.1l-2.9,3.1l-0.8-3.2l21.8-32.1l0.3-0.4
	l22.8-12.1l23.4-1.8c0.3,0.4,0.6,0.9,1,1.3C389,223.2,390,224,391.1,224.9z"/>
<path class="st0" d="M332.6,283.3c0,0-3.4,7.2-8,8.8l-5.2-21.2l2.9-3.1C322.8,271.4,324.5,278.8,332.6,283.3z"/>
<path class="st0" d="M418.8,256.6l-11.4,22.7l-6.9-1.6c3.6-6.5,6.7-23.4,7.8-29.8c2.3,2.8,5.5,5.8,10,8.5
	C418.4,256.5,418.5,256.6,418.8,256.6z"/>
<path class="st0" d="M395.1,228.3c-0.6,7-3.2,32.4-8.4,45.2c-3.6,0.4-9.3,2.1-11.6-2.1c1.7-14,0.6-34.1,0.1-40.7l15.8-5.9
	C392.4,226,393.8,227.2,395.1,228.3z"/>
<path class="st0" d="M408.2,247.9c-1.1,6.3-4.2,23.3-7.8,29.8l-3-0.7c0,0-8.7,0.5-10.8-3.4c5.2-12.8,7.8-38.2,8.4-45.2
	c4.1,3.6,7.4,7,7.4,7S402.8,241.3,408.2,247.9z"/>
<path class="st0" d="M660.5,369.2l-1.9,0.6l-19.9,6.6c0-0.2-0.1-0.3-0.2-0.5c-0.1,0.2-0.2,0.5-0.4,0.7l-0.3,0.1l-16.3-17.1
	c1.9-2.6,8.6-11.6,9.2-11.6c0.7,0,8.1,5.5,8.1,5.5l13.5-9.5c0,0-0.2-17.4-8.8-24.2c2.8-1.8,5.7-3.3,8.5-4.4
	c3.3,2.7,7.6,7.5,10.5,15.4c0.8,2.1,1.4,4.4,1.9,7C668.4,357.4,660.5,369.2,660.5,369.2z"/>
<path class="st0" d="M683.8,362.2c0,0-4.6-27.8-21.2-31.5c-2.8-7.9-7.2-12.7-10.5-15.4c13.7-5.4,26-3.5,26-3.5v-13.1
	c0.5,0.2,1,0.5,1.4,0.8c0.9-1.1,1.5-2.1,1.9-3c2.4,2.6,6.7,7.9,10.3,15.2c0,0,0,0,0,0C693.4,324.4,694.2,347.3,683.8,362.2z"/>
<path class="st0" d="M694.8,372.7l-1.4,0.4l-9.6-11c10.4-14.9,9.6-37.8,8.1-50.4c1.8,3.7,3.4,7.9,4.5,12.6
	C700.1,340.2,696,366,694.8,372.7z"/>
<path class="st0" d="M728.5,405.9l-3.3,2.1l-28.3,18.3l-20-6.2c0,0-0.6-1.1-1.5-2.7c-3-5.5-9.6-17.5-9.8-17.9
	c-0.2-0.4,2.5-10.1,4-15.6l18.6,15.6l9.6,2.6l20.6-9.5L728.5,405.9z"/>
<path class="st0" d="M718.6,392.6l-20.6,9.5l-9.6-2.6L669.7,384c0.6-2.2,1.1-3.7,1.1-3.7l22.7-7.1l1.1,1.2c0,0,0.1-0.6,0.3-1.6h9
	L718.6,392.6z"/>
<path class="st0" d="M665.6,399.5c0.2,0.4,6.8,12.4,9.8,17.9c-18.1,8.3-34.2,27.9-39.3,34.6c-0.1,0.1-0.2,0.3-0.3,0.4c0,0,0,0,0,0
	c0.1-1,0.2-2.1,0.3-3.1c0-0.4,0.1-0.8,0.1-1.2c0-0.1,0-0.1,0-0.2c0-0.2,0-0.4,0.1-0.5l0-0.1c2.3-19.9,7.2-35.5,9-40.8
	c0.4,2.5,0.7,4.1,0.7,4.1l12.6-40.8l1.9-0.6c0,0,7.8-11.8,4-31.5c-0.5-2.6-1.2-4.9-1.9-7c16.5,3.6,21.2,31.5,21.2,31.5l9.6,11
	l-22.7,7.1c0,0-0.5,1.5-1.1,3.7C668.1,389.5,665.4,399.2,665.6,399.5z"/>
<path class="st0" d="M620.9,431.6l-15.2-1.9l-8.1,11.4l-17.3-4l-6.2-14l-18.8-1.7l-2.6-0.2l-9-34.9c14.9,2.6,29.3,6.9,29.3,6.9
	l6.5,8.2l19.6,4.6l7.8-4.6l11.5,1.1L620.9,431.6z"/>
<path class="st0" d="M658.6,369.8L646,410.7c0,0-0.2-1.5-0.7-4.1c-1.2-6.9-3.7-20.9-6.6-30.2L658.6,369.8z"/>
<path class="st0" d="M645.3,406.6c-1.8,5.2-6.7,20.9-9,40.8l0,0.1c0,0.1,0,0.3-0.1,0.5l-5-6.2c0,0-7.8,12.6-12.1,20.1v0l1.7-30.2
	l-2.4-29.1l2.8,0.3c0,0,10.9-15.5,17-26.1l0.5-0.2C641.6,385.7,644.2,399.7,645.3,406.6z"/>
<path class="st0" d="M759.9,482.5c-16.4,2-58.2,22.8-67.8,27c-5.6,2.5-13.1,5-19,7.1c-2.6-8.8,1.2-21.2,1.2-21.2s-18.1-13.2-31-28.4
	c-4.3-1.7-6.5-3.1-7.7-4.2c-0.2-0.1-0.3-0.3-0.4-0.4c0.1-2.2,0.2-4.4,0.3-6.5c0-0.1,0-0.2,0-0.3c0.1-1.1,0.2-2.1,0.2-3.2
	c0,0,0,0,0,0c0.1-0.1,0.2-0.2,0.3-0.4c5.2-6.7,21.3-26.3,39.3-34.6c0.9,1.6,1.5,2.7,1.5,2.7l20,6.2l28.3-18.3
	c0.3,0.9,14,44.7,18.5,52C747,465.5,754.6,474.8,759.9,482.5z"/>
<path class="st0" d="M763.2,563c0,0.7-20.2-4-20.2-4s-20,24-28.8,25.7c-6.5,1.2-12,11.6-14.4,16.8c-4.9-7.9-37-59.6-36.6-62.9
	c0.4-3.6,6.1-4.8,6.1-4.8s21.9-7.1,34.5-15.2c11.1-7.1,38-20.2,50.4-22.8c-2.3,1.8-4.2,4-4.8,5.4C748,504.3,763.2,562.3,763.2,563z"
	/>
<path class="st0" d="M774.8,494.8c-6-1.4-6.4,2.4-6.4,2.4s-0.5-1.2-5.2-3.9c-2.6-1.4-6.1,0.2-9,2.4c-12.5,2.5-39.3,15.7-50.4,22.8
	c-12.6,8.1-34.5,15.2-34.5,15.2s-9-7.1-6.1-13.1c0.4-0.8,4.5-2.3,9.8-4.1c5.9-2,13.4-4.5,19-7c9.5-4.2,51.3-25,67.8-27
	c2-0.2,3.6-0.2,4.7,0.1C773.7,485.5,774.7,492.7,774.8,494.8z"/>
<path class="st0" d="M793,682.4c-0.8,3.7-2.2,9.4-3.9,11.7c-5.3,0.5-15.3,3.2-22.2-5.3c-6.9-8.6-26.3-17.7-25.8-21
	c0,0-5.7-8.8-4.8-18.3s-3.8-13.8-9.7-17.8s-13.5,6-13.5,6c0.7-3.1,1.2-10.6,1.2-10.6c2.6-1.4,19.5-11.2,23.3-11.6
	c3.8-0.5,17.8-6.2,17.8-6.2s3.8-2.5,7.6-3.9c-6.9,3-19.8,12.2-18.3,15.7c0.7,1.7,9.5,4.6,14.2,11.3c4.8,6.7-7.4,22.3-7.6,27.6
	c2.8,5.5,16.6,19.7,22.8,22.3C779.4,684.5,789.9,682.9,793,682.4z"/>
<path class="st0" d="M792.1,604.4c-2.6,0.6-5.4,1.9-7.7,2.6c-3.2,0.8-11.5-2.6-16.8-2.6c-0.2,0-0.3,0-0.4,0c-0.5,0-0.9,0-1.4,0.1
	c-0.7,0.1-1.6,0.5-2.7,0.9c0,0,0,0-0.1,0c-3.8,1.5-7.6,3.9-7.6,3.9s-14,5.7-17.8,6.2s-20.7,10.2-23.3,11.6c0,0-12.4-10.9-10.2-17.3
	c-2.1-3.3-3.6-7.4-3.6-7.4s-0.2-0.3-0.6-1c2.4-5.2,7.9-15.6,14.4-16.8C723,583,743,559,743,559s20.2,4.8,20.2,4
	c0-0.7-15.2-58.7-13.8-61.8c0.6-1.4,2.5-3.6,4.8-5.4c2.8-2.2,6.3-3.9,9-2.4c4.8,2.6,5.2,3.9,5.2,3.9s0.4-3.8,6.4-2.4
	c0,0.4,0,0.6,0,0.6s6.9,5.4,9.3,12.2c2.4,6.9,1.7,69.9,1.7,69.9s5.5,3.1,6.2,13.3C792.5,598.4,792.2,602.7,792.1,604.4z"/>
<path class="st0" d="M818,684.8c-0.8,0.5-1.3,0.8-1.3,0.7c-0.2-0.6-8.7-10.8-4.6-17c0,0,0.7,0.2,1.8,0.7c-1.5-5.9-3.2-12.2-4.5-17.8
	c-0.7-2.7-1.4-5.2-2.1-7.5c-0.5,2.9-1.7,5.5-2.9,6.8c-1.9,2-13.8-8.2-16.5-20c-2.7-11.8,8.7-7.3,8.7-7.3c-2.2-3.9-4.5-18.1-4.5-18.1
	s0-0.3,0.1-0.9c-2.6,0.6-5.4,1.9-7.7,2.6c-3.2,0.8-11.5-2.6-16.8-2.6c-0.2,0-0.3,0-0.4,0c-0.5,0-0.9,0-1.4,0.1
	c-0.7,0.1-1.6,0.5-2.7,0.9c0,0,0,0-0.1,0c-6.9,3-19.8,12.2-18.3,15.7c0.7,1.7,9.5,4.6,14.2,11.3c4.8,6.7-7.4,22.3-7.6,27.6
	c2.8,5.5,16.6,19.7,22.8,22.3c5.2,2.2,15.8,0.7,18.9,0.2c0.5-0.1,0.9-0.2,0.9-0.2s9.7,9,16.9,5.7c4.6,1.8,7.2,2.2,8.6,1.9
	C819.1,689,818.6,687.2,818,684.8z M788.8,677.5c-4.4,2.8-8.7-1.4-11.7-4.3c-3-2.8-2.3-10,1-11.6c3.2-1.7,9,2.6,12.2,7.1
	C790.3,668.7,793.1,674.7,788.8,677.5z M801.9,678.5c-3.1-1.1-5.1-2.2-8.3-8.6c-3.2-6.5,3.1-9.8,7.1-8.6c4,1.2,4.2,2.5,7.1,8.6
	C810.8,676,805,679.5,801.9,678.5z"/>
<path class="st0" d="M807.2,643.9C807.2,643.9,807.2,643.9,807.2,643.9c-0.5,2.9-1.7,5.5-2.9,6.8c-1.9,2-13.8-8.2-16.5-20
	c-2.7-11.8,8.7-7.3,8.7-7.3c0.2,0.3,0.3,0.5,0.5,0.7C798.9,626,803.4,632.3,807.2,643.9z"/>
<path class="st0" d="M785.5,727.7c2,2.7,4.1,10.2,3,13.5c-0.7,0.9-1.1,1.5-1.1,1.5L758,756.1c0,0-15.7,4.1-14.7-4.2
	c1-8.3,11.4-15.5,11.4-15.5l0.8-0.4l5.2-2.7c0,0-4-16.2-2.4-21c0,0-6.2-5-11.2-10.7l0,0c-2.8-3.2-5.1-6.7-5.7-9.6
	c-2.9,7.1-9.6,14.5-9.6,14.5s-3-6.5-14.4-7.6c-11.4-1.1-12.2,13.4-12.2,13.4c-8.5-12.8-7.6-34.8-6.5-45.7c4.6,3,14.7-4.8,12.9-12.8
	c-0.9-4.2-3.2-5.1-5.2-5c2.9-4.8,5.7-9.3,6.2-9.8c0.2-0.2,0.3-0.6,0.5-1.3c0,0,7.6-10.1,13.5-6s10.7,8.3,9.7,17.8s4.8,18.3,4.8,18.3
	c-0.5,3.3,18.9,12.5,25.8,21c6.9,8.5,16.9,5.8,22.2,5.3C787.9,701,786.5,724.3,785.5,727.7z"/>
<path class="st0" d="M732.3,742.6c-7.1,1-21.6-1.9-27.1-30.3c0,0,0.8-14.5,12.2-13.4c11.4,1.1,14.4,7.6,14.4,7.6s6.2,10.2,4,22.6
	C739.7,736.5,739.4,741.7,732.3,742.6z"/>
<path class="st0" d="M804.2,699.1c-0.8,2.8-2.1,20-5.3,29.9c-4,4.2-8.3,9.5-10.3,12.1c1.1-3.3-1.1-10.8-3-13.5
	c1-3.3,2.4-26.6,3.6-33.5C793.8,697.4,799.7,699.5,804.2,699.1z"/>
<path class="st0" d="M813.6,703.4c0,0-3.1,16.6-14.7,25.7c3.2-10,4.5-27.1,5.3-29.9C809.8,705.1,813.6,703.4,813.6,703.4z"/>
<path class="st0" d="M819.5,690.6l-1.7,12.8h-4.3c0,0-3.8,1.7-9.4-4.3c4-3.7,6.5-11.2,6.5-11.2c4.6,1.8,7.2,2.2,8.6,1.9
	C819.5,690.3,819.5,690.6,819.5,690.6z"/>
<path class="st0" d="M810.7,688c0,0-2.5,7.5-6.5,11.2c-4.5,0.4-10.3-1.8-15.1-5c1.7-2.3,3.1-8.1,3.9-11.7c0.5-0.1,0.9-0.2,0.9-0.2
	S803.5,691.2,810.7,688z"/>
<path class="st0" d="M788.8,677.5c-4.4,2.8-8.7-1.4-11.7-4.3c-3-2.8-2.3-10,1-11.6c3.2-1.7,9,2.6,12.2,7.1
	C790.3,668.7,793.1,674.7,788.8,677.5z"/>
<path class="st0" d="M801.9,678.5c-3.1-1.1-5.1-2.2-8.3-8.6c-3.2-6.5,3.1-9.8,7.1-8.6c4,1.2,4.2,2.5,7.1,8.6
	C810.8,676,805,679.5,801.9,678.5z"/>
<path class="st0" d="M818,684.8c-0.8,0.5-1.3,0.8-1.3,0.7c-0.2-0.6-8.7-10.8-4.6-17c0,0,0.7,0.2,1.8,0.7c0,0,0,0,0,0
	c1.8,0.8,4.8,2.5,7.3,5.7C824.3,678.8,820.2,683.1,818,684.8z"/>
<path class="st0" d="M698.7,666.6c-4.6-3,0.5-14.7,4.5-16.9c0,0,1.5-0.9,3.2-1c1.9-0.1,4.2,0.8,5.2,5
	C713.4,661.8,703.3,669.7,698.7,666.6z"/>
<path class="st0" d="M760.6,733.4l-5.2,2.7c-3.8-1.7-10.8-5.6-10.8-11.2c-0.1-7.8,6.2-9.3,9.9-11.9c-2-2.2-5.2-7.4-7.3-11.3
	c4.9,5.7,11.2,10.7,11.2,10.7C756.5,717.2,760.6,733.4,760.6,733.4z"/>
<path class="st0" d="M636.3,448c0,0.1,0,0.1,0,0.2c0,0.2,0,0.4-0.1,0.6c0,0.2,0,0.4-0.1,0.6c0,0.1,0,0.2,0,0.3
	c-0.1,0.9-0.2,1.9-0.3,2.8c0,0.5-0.1,1-0.1,1.5c0,0.5-0.1,1.1-0.1,1.7c0,0.1,0,0.2,0,0.3c-0.2,2-0.3,4.2-0.4,6.4
	c-0.2,3.8-0.2,7.4,0.1,9.7c-0.1-0.6-0.2-1.2-0.4-1.7c-3.6,8.1-17.8,24.7-17.8,24.7l-4.8-0.2c0,0-5.2,20.4-5.9,22.1
	c-0.4,1-5.3,1-10.1,0.5c-3.5-0.3-7-1-8.3-1.7c-2.9-1.5-5-7-7.3-12.9l11.7,1.8c0,0,5.5-12.8,9-14c3.6-1.2,16.6-5.9,16.6-5.9l0.7-12.6
	l0.5-10.1v0c4.3-7.4,12.1-20.1,12.1-20.1L636.3,448z"/>
</svg>
