<?xml version="1.0" encoding="utf-8"?>
<!-- Generator: Adobe Illustrator 25.2.0, SVG Export Plug-In . SVG Version: 6.00 Build 0)  -->
<svg version="1.1" baseProfile="tiny" id="Layer_1" xmlns="http://www.w3.org/2000/svg" xmlns:xlink="http://www.w3.org/1999/xlink"
	 x="0px" y="0px" viewBox="0 0 1000 1000" overflow="visible" xml:space="preserve">
<path fill="#FFFFFF" stroke="#000000" stroke-miterlimit="10" d="M531.16,232.32c-1.27,1.11-2.33,2.1-3.11,2.92
	c-3.35,3.49-9.99,6.44-12.7,7.55c-0.75,0.3-1.2,0.47-1.2,0.47s-2.5-7.13-9.45-10.34c-1.07-10.87-11.94-29.94-11.94-29.94
	s0.66-0.54,1.98-1.41c2.35-1.56,6.8-4.2,13.36-6.76c2.63,1.9,5.9,3.83,8.42,3.89c0,0-2.49,8.08,1.55,11.53
	c4.04,3.44,7.37,4.39,7.37,4.39s-3.69,5.59-1.31,10.46C525.78,228.47,529.23,231.06,531.16,232.32z"/>
<path fill="#FFFFFF" stroke="#000000" stroke-miterlimit="10" d="M555.92,215.6c-10,5.17-19.37,12.03-24.76,16.72
	c-1.93-1.26-5.38-3.85-7.03-7.24c-2.38-4.87,1.31-10.46,1.31-10.46s-3.33-0.95-7.37-4.39c-4.04-3.45-1.55-11.53-1.55-11.53
	c-2.52-0.06-5.79-1.99-8.42-3.89c4.08-1.6,8.97-3.17,14.68-4.43C525.68,194.95,536.66,210.3,555.92,215.6z"/>
<path fill="#FFFFFF" stroke="#000000" stroke-miterlimit="10" d="M573.56,205.11c-5.47,3.98-10.87,7.14-15.93,9.63
	c-0.57,0.28-1.14,0.57-1.71,0.86c-19.26-5.3-30.24-20.65-33.14-25.22c1.52-0.34,3.09-0.65,4.73-0.94
	c7.72-1.37,15.22-2.65,22.38-4.56C553.28,190.71,560.98,201.44,573.56,205.11z"/>
<path fill="#FFFFFF" stroke="#000000" stroke-miterlimit="10" d="M592.6,187.62c-6.13,7.08-12.63,12.84-19.04,17.49
	c-12.58-3.67-20.28-14.4-23.67-20.23c10.14-2.69,19.59-6.61,28-13.72C581.17,177.03,586.22,184.44,592.6,187.62z"/>
<path fill="#FFFFFF" stroke="#000000" stroke-miterlimit="10" d="M610.57,152.87c-3.32,10.67-7.32,20.83-11.77,26.94
	c-2.01,2.77-4.08,5.37-6.2,7.81c-6.38-3.18-11.43-10.59-14.71-16.46c3.47-2.94,6.77-6.43,9.86-10.6c3.27-4.4,6.59-9.1,9.79-13.79
	C601.58,149,606.33,151.13,610.57,152.87z"/>
<path fill="#FFFFFF" stroke="#000000" stroke-miterlimit="10" d="M617,128.74c-1.67,7.24-3.85,15.84-6.43,24.13
	c-4.24-1.74-8.99-3.87-13.03-6.1c4.73-6.88,9.22-13.74,12.96-19.59C612.54,127.7,614.78,128.24,617,128.74z"/>
<path fill="#FFFFFF" stroke="#000000" stroke-miterlimit="10" d="M620.71,110.86c-0.08,0.47-1.41,7.88-3.71,17.88
	c-2.22-0.5-4.46-1.04-6.5-1.56C616.39,117.98,620.46,111.28,620.71,110.86z"/>
<path fill="#FFFFFF" stroke="#000000" stroke-miterlimit="10" d="M421.83,214.56c0,0-0.35,9.98-7.13,15.87
	c1.34,7.4-5.82,13.07-8.28,14.78c-0.5,0.36-0.81,0.54-0.81,0.54s-5.88-6.46-13.73-13.57c-0.57-0.52-1.14-1.03-1.73-1.55
	c2.43-1.55,7.1-5.02,7.8-9.12c0.95-5.58,0-9.38,0-9.38s4.75-0.95,6.65-5.35c1.9-4.39-1.18-9.74-1.18-9.74s5.75,3.63,6.87-3.57
	c4.02,1.4,10.64,4.15,14.92,5.97h0.01c2.43,1.03,4.1,1.76,4.1,1.76C430.56,207.44,421.83,214.56,421.83,214.56z"/>
<path fill="#FFFFFF" stroke="#000000" stroke-miterlimit="10" d="M410.29,193.47c-1.12,7.2-6.87,3.57-6.87,3.57s3.08,5.35,1.18,9.74
	c-1.9,4.4-6.65,5.35-6.65,5.35s0.95,3.8,0,9.38c-0.7,4.1-5.37,7.57-7.8,9.12c-5.81-5.14-12.48-10.4-18.61-13.66
	c14.49-4.72,22.21-20.55,24.74-26.77c6.14,1.37,10.73,2.23,12.24,2.68C409.02,193.03,409.62,193.23,410.29,193.47z"/>
<path fill="#FFFFFF" stroke="#000000" stroke-miterlimit="10" d="M396.28,190.2c-2.53,6.22-10.25,22.05-24.74,26.77
	c-0.4-0.21-0.81-0.42-1.21-0.62c-7.05-3.48-14.74-8.3-22.52-14.45c14.73-2.63,17.5-14.89,18.25-20.38
	C376.46,185.5,387.84,188.32,396.28,190.2z"/>
<path fill="#FFFFFF" stroke="#000000" stroke-miterlimit="10" d="M366.06,181.52c-0.75,5.49-3.52,17.75-18.25,20.38
	c-5.4-4.25-10.85-9.15-16.17-14.68c8.79-2.45,12.26-10.83,13.62-17.32c0.04,0.04,0.08,0.07,0.12,0.11
	C350.42,174.61,357.94,178.42,366.06,181.52z"/>
<path fill="#FFFFFF" stroke="#000000" stroke-miterlimit="10" d="M345.26,169.9c-1.36,6.49-4.83,14.87-13.62,17.32
	c-3.89-4.03-7.7-8.4-11.39-13.11c-0.26-0.33-0.52-0.67-0.77-1.01c4.85-6.09,7.59-16.7,9-24.14
	C333.96,157.15,339.8,164.89,345.26,169.9z"/>
<path fill="#FFFFFF" stroke="#000000" stroke-miterlimit="10" d="M328.48,148.96c-1.41,7.44-4.15,18.05-9,24.14
	c-4.85-6.54-8.42-14.75-11.11-23.02c3.02-9.61,3.91-21.35,4.16-26.92C316.74,130.23,322.39,139.87,328.48,148.96z"/>
<path fill="#FFFFFF" stroke="#000000" stroke-miterlimit="10" d="M312.53,123.16c-0.25,5.57-1.14,17.31-4.16,26.92
	c-5.81-17.93-7.42-36.13-8.62-38.17c-1.78-3.03,2.32-2.49,6.06,0.89C306.89,113.78,309.28,117.71,312.53,123.16z"/>
<path fill="#FFFFFF" stroke="#000000" stroke-miterlimit="10" d="M400.05,289.2c-1.16-2.92-2.57-5.88-3.94-8.54
	c-2.74-5.33-5.29-9.42-5.29-9.42s-5.66-10.01-10.58-19.9c1.37-2.74,3.25-6.7,5.06-10.22c2.27-4.41,5.24-7.62,6.58-8.94
	c7.85,7.11,13.73,13.57,13.73,13.57s0.31-0.18,0.81-0.54c1.1,1.11,3.2,3.91,4.96,10.17C413.87,264.29,415.94,279.67,400.05,289.2z"
	/>
<path fill="#FFFFFF" stroke="#000000" stroke-miterlimit="10" d="M366.37,287.83c-6.39,4-10.6,8.1-11.9,8.18
	c-2.86,0.18-3.39-4.28-1.43-10.51c0.82-2.62,5.3-8.39,10.26-14.24C364.16,277.01,365.23,282.71,366.37,287.83z"/>
<path fill="#FFFFFF" stroke="#000000" stroke-miterlimit="10" d="M560.96,257.75c0,6.25-0.36,12.11-1.07,17.51
	c-0.81,6.09-2.06,11.59-3.76,16.42c-0.31,0.92-0.65,1.82-1,2.69c-3.59,8.82-8.8,15.06-15.56,18.04c-1.25,0.55-2.47,0.98-3.67,1.3
	h-0.01c-12.32,3.26-21.96-4.75-21.74-8.43c0.11-1.86,0.37-5.13,0.62-8.12c0.07-0.9,0.21-1.79,0.4-2.66c0.34-1.6,0.87-3.15,1.57-4.63
	c0.76-1.59,1.71-3.08,2.86-4.44c5.44-6.49,14.52-17.33,17.84-21.67c0,0,0.36-0.39,0.93-1.08v-0.01c2.27-2.78,7.91-10.44,8.1-18.22
	c0.23-9.75-0.72-17.83,1.9-18.06C550.98,226.15,560.96,229.48,560.96,257.75z"/>
<path fill="#FFFFFF" stroke="#000000" stroke-miterlimit="10" d="M538.37,262.67v0.01c-0.57,0.69-0.93,1.08-0.93,1.08
	c-3.32,4.34-12.4,15.18-17.84,21.67c-1.15,1.36-2.1,2.85-2.86,4.44c-0.18-0.12-0.36-0.25-0.53-0.38
	c-12.85-9.78-4.07-37.81-0.86-46.7c2.71-1.11,9.35-4.06,12.7-7.55C531.1,242.47,536.38,255.38,538.37,262.67z"/>
<path fill="#FFFFFF" stroke="#000000" stroke-miterlimit="10" d="M486.75,265.75c-0.76,3.77-4.93,5.37-7.53,4.67
	c-1.38-0.36-2.25-1.58-2.8-2.79c0.7-0.71,1.37-1.39,2-2.02C480.49,265.27,483.35,265.12,486.75,265.75z"/>
<path fill="#FFFFFF" stroke="#000000" stroke-miterlimit="10" d="M390.82,314.01c-8.02,0.89-14.79-2.85-18.35-7.13
	c-1.6-1.91-3.96-9.45-6.1-19.05c-1.14-5.12-2.21-10.82-3.07-16.57c-1.13-7.66-1.88-15.39-1.88-21.94c0-20.68,3.2-24.24,6.41-24.78
	c3.21-0.53,3.39,1.43,5.53,10.52c0.84,3.56,3.71,9.9,6.88,16.28c4.92,9.89,10.58,19.9,10.58,19.9s2.55,4.09,5.29,9.42
	c1.37,2.66,2.78,5.62,3.94,8.54c0.84,2.1,1.55,4.18,2.02,6.11c0.13,0.54,0.25,1.07,0.34,1.59
	C404.19,306.88,398.84,313.12,390.82,314.01z"/>
<path fill="#FFFFFF" stroke="#000000" stroke-miterlimit="10" d="M472.21,294.52c-0.1,0.52-0.35,0.93-0.61,1.27
	c-0.53,0.7-1.16,1.18-1.76,1.63l-0.86,0.64c-0.13,0.1-0.25,0.2-0.35,0.3c-0.15,0.13-0.36,0.3-0.52,0.4
	c-1.38,0.89-2.73,1.47-4.32,1.85c-0.41,0.07-0.82,0.14-1.31,0.12c-0.22,0.01-0.5-0.04-0.76-0.1c-0.15-0.04-0.3-0.11-0.44-0.17
	c-0.17-0.07-0.18-0.09-0.27-0.14l-1.9-1.02c-1.28-0.73-2.57-1.47-3.76-2.4c-0.3-0.23-0.59-0.48-0.88-0.73
	c-0.14-0.14-0.27-0.24-0.43-0.42c-0.14-0.18-0.32-0.35-0.41-0.56c-0.47-0.83-0.47-1.74-0.33-2.5c0.34-1.55,1.12-2.84,2.04-3.98
	c-0.54,1.35-1.04,2.74-1.07,4.08c-0.02,0.66,0.12,1.29,0.45,1.69c0.28,0.34,0.96,0.79,1.52,1.14c1.2,0.72,2.45,1.39,3.74,2
	c0.65,0.32,1.29,0.64,1.96,0.98c0.07,0.04,0.19,0.11,0.22,0.11c0.02,0,0.03,0.01,0.06,0.02c0.09,0.01,0.17,0.04,0.31,0.03
	c0.24,0.01,0.55-0.05,0.85-0.11c1.24-0.25,2.59-0.82,3.68-1.46c0.15-0.09,0.22-0.15,0.35-0.24c0.18-0.14,0.35-0.26,0.51-0.37
	l0.92-0.6c0.59-0.38,1.15-0.76,1.55-1.18c0.2-0.21,0.36-0.42,0.42-0.62c0.07-0.19,0.04-0.37-0.02-0.69
	c-0.16-0.61-0.45-1.27-0.76-1.91c-0.6-1.29-1.31-2.56-2-3.86c1.05,1.04,1.98,2.16,2.85,3.36c0.42,0.62,0.82,1.24,1.15,1.99
	C472.18,293.44,472.33,293.99,472.21,294.52z"/>
<path fill="#FFFFFF" stroke="#000000" stroke-miterlimit="10" d="M670.97,404.89c-0.43-0.37-14.27-12.3-15.49-12.82
	c-0.45-0.19-3.04,1.04-6.22,2.7c-5.68,2.96-13.24,7.28-13.92,7.28c-0.21,0-3.51,0.43-8.71,1.12c-14,1.86-41.74,5.63-59.52,8.06
	c0,0,0,0-0.01,0c-4.6,0.63-8.52,1.16-11.38,1.55c0,0,0,0-0.01,0c-3.13,0.43-4.97,0.68-4.97,0.68s-2.45-9.94-6.56-19.35
	c-1.31-3.01-2.79-5.95-4.41-8.51c-0.35-0.55-0.7-1.08-1.06-1.59c-1.02-1.43-2.08-2.68-3.18-3.7c-0.97-0.9-2.14-1.87-3.46-2.9
	c-6.39-4.99-16.21-11.21-23.32-15.54c-1.63-1-3.12-1.89-4.38-2.65c-2.73-1.62-4.46-2.62-4.46-2.62l28.56-34.03l7.42-8.86h0.01
	c1.2-0.32,2.42-0.75,3.67-1.3c6.76-2.98,11.97-9.22,15.56-18.04l3.11-1.18l0.94,0.68l5.96-3.28h0.01l47.73-17.99
	c0,0,9.74,0.24,5.7,9.51c-1.23,0.57-3.16,1.39-5.6,2.4c-15.94,6.59-53.24,20.89-53.24,20.89l-43.33,49.66c0,0,1.04,0.34,2.75,1.01
	c6.02,2.4,20.41,9.04,27.54,20.14c9.15,14.26,10.46,25.78,10.46,25.78l73.36-9.03c0,0,11.26-5.74,18.84-8.02
	c2.05-0.61,3.83-0.97,5.05-0.89c1.37,0.09,3.03,1.33,4.77,3.18C664.59,392.95,670.72,404.42,670.97,404.89z"/>
<path fill="#FFFFFF" stroke="#000000" stroke-miterlimit="10" d="M587.88,321.98l-3.15,4.66h-0.01c-1.09,0.16-2.04,0.29-2.85,0.38
	c-2.31,0.26-6.69,1.85-12.16,4.18c-1.79,0.76-3.7,1.6-5.7,2.51c-15.35,6.96-35.59,17.48-44.85,22.36c-1.71-0.67-2.75-1.01-2.75-1.01
	l43.33-49.66c0,0,37.3-14.3,53.24-20.89l4.31,34.08l-3.87-4.12c0,0-24.24,4.53-26.92,5.96
	C585.97,320.71,586.49,321.27,587.88,321.98z"/>
<path fill="#FFFFFF" stroke="#000000" stroke-miterlimit="10" d="M632.33,330.36c-4.74-0.13-9.34-0.48-13.68-1
	c-9.19-1.07-17.23-2.83-22.99-4.52h-0.01c-3.53-1.04-6.2-2.05-7.77-2.86c-1.39-0.71-1.91-1.27-1.38-1.55
	c2.68-1.43,26.92-5.96,26.92-5.96l3.87,4.12v0.01l0.28,2.17c0.51-0.1,1-0.19,1.49-0.28h0.01l6.46,6.89L632.33,330.36z"/>
<path fill="#FFFFFF" stroke="#000000" stroke-miterlimit="10" d="M659.18,387.23c-1.74-1.85-3.4-3.09-4.77-3.18
	c-1.22-0.08-3,0.28-5.05,0.89c-9.4-27.59-19.86-40.94-25.63-46.69c2.95-2.33,5.51-4.53,7.48-6.28c0,0,0,0,0.01-0.01
	c0.69-0.37,1.39-0.76,2.1-1.17l5.22,2.29L659.18,387.23z"/>
<path fill="#FFFFFF" stroke="#000000" stroke-miterlimit="10" d="M649.36,384.94c-7.58,2.28-18.84,8.02-18.84,8.02l-73.36,9.03
	c0,0-1.31-11.52-10.46-25.78c-7.13-11.1-21.52-17.74-27.54-20.14c9.26-4.88,29.5-15.4,44.85-22.36c-1.94,2.32-3.98,5.45-3.88,8.28
	c0.18,5.35,16.75,16.93,35.11,12.3c9.77-2.47,20.54-9.76,28.49-16.04C629.5,344,639.96,357.35,649.36,384.94z"/>
<path fill="#FFFFFF" stroke="#000000" stroke-miterlimit="10" d="M632.44,330.41c-4.36,2.06-8.79,3.36-13.11,4.11
	c-19.5,3.36-36.92-4.47-36.92-4.47l2.31-3.41h0.01l3.15-4.66c1.57,0.81,4.24,1.82,7.77,2.86h0.01c5.76,1.69,13.8,3.45,22.99,4.52
	c4.34,0.52,8.94,0.87,13.68,1h0.01L632.44,330.41z"/>
<path fill="#FFFFFF" stroke="#000000" stroke-miterlimit="10" d="M632.78,330.55c-0.47,0.43-0.98,0.89-1.56,1.41
	c-0.01,0.01-0.01,0.01-0.01,0.01c-3.31,1.8-6.42,3.26-9.43,4.45c-11.31,4.47-21.07,4.96-33.31,3.97
	c-11.4-0.92-16.55-5.83-18.76-9.19c5.47-2.33,9.85-3.92,12.16-4.18c0.81-0.09,1.76-0.22,2.85-0.38l-2.31,3.41
	c0,0,17.42,7.83,36.92,4.47c4.32-0.75,8.75-2.05,13.11-4.11L632.78,330.55z"/>
<path fill="#FFFFFF" stroke="#000000" stroke-miterlimit="10" d="M437.56,334.27c-2.56-1.79-4.91-3.87-7.07-6.15v-0.01
	c-9.92-10.46-15.68-24.92-18.31-32.92c5.77,0.73,11.75,3.03,15,8.48C430.84,309.83,433.51,322.2,437.56,334.27z"/>
<path fill="#FFFFFF" stroke="#000000" stroke-miterlimit="10" d="M502.03,248.78c0,0-17.47,11.23-19.43,12.74
	c-0.59,0.46-2.17,2.05-4.18,4.09c2.07-0.34,4.93-0.49,8.33,0.14c2.46,0.46,5.21,1.32,8.15,2.81c-10.09,6.99-14.01,8.72-24.35,4.86
	c-2.56,2.42-4.78,4.31-5.77,4.59c-1.86,0.52-4.21-2.93-6.87-6.43c-2.51,0.94-9.63,3.37-13.27,2.42c-4.45-1.16-8.91-5.35-8.91-5.35
	s5.54-2.25,8.91-2.71c0.82-0.11,1.51-0.12,1.96,0.04c1.2,0.41,3.37,0.92,5.19,1.32c1.71,0.38,3.11,0.65,3.11,0.65
	c-0.49-0.53-1-1.01-1.52-1.44c-3.78-3.1-21-13.8-26.74-17.35v24.93c0,0,5.35,5.7,7.31,6.41c1.96,0.72,7.84-2.85,7.84-2.85
	s0,0,9.8,0.89c-1.92,11.85-3.01,20.58-2.91,30.4c1.64,0.12,4.28,0.22,5.65-0.1c0,0,6-1.48,8.97,0.71c0,0,4.6-3.19,13.43-0.43
	c0.32-19.72-0.6-30.58-0.6-30.58l9.5-3.56c0,0,6.6,6.95,12.66,3.08S502.03,248.78,502.03,248.78z M472.21,294.52
	c-0.1,0.52-0.35,0.93-0.61,1.27c-0.53,0.7-1.16,1.18-1.76,1.63l-0.86,0.64c-0.13,0.1-0.25,0.2-0.35,0.3
	c-0.15,0.13-0.36,0.3-0.52,0.4c-1.38,0.89-2.73,1.47-4.32,1.85c-0.41,0.07-0.82,0.14-1.31,0.12c-0.22,0.01-0.5-0.04-0.76-0.1
	c-0.15-0.04-0.3-0.11-0.44-0.17c-0.17-0.07-0.18-0.09-0.27-0.14l-1.9-1.02c-1.28-0.73-2.57-1.47-3.76-2.4
	c-0.3-0.23-0.59-0.48-0.88-0.73c-0.14-0.14-0.27-0.24-0.43-0.42c-0.14-0.18-0.32-0.35-0.41-0.56c-0.47-0.83-0.47-1.74-0.33-2.5
	c0.34-1.55,1.12-2.84,2.04-3.98c-0.54,1.35-1.04,2.74-1.07,4.08c-0.02,0.66,0.12,1.29,0.45,1.69c0.28,0.34,0.96,0.79,1.52,1.14
	c1.2,0.72,2.45,1.39,3.74,2c0.65,0.32,1.29,0.64,1.96,0.98c0.07,0.04,0.19,0.11,0.22,0.11c0.02,0,0.03,0.01,0.06,0.02
	c0.09,0.01,0.17,0.04,0.31,0.03c0.24,0.01,0.55-0.05,0.85-0.11c1.24-0.25,2.59-0.82,3.68-1.46c0.15-0.09,0.22-0.15,0.35-0.24
	c0.18-0.14,0.35-0.26,0.51-0.37l0.92-0.6c0.59-0.38,1.15-0.76,1.55-1.18c0.2-0.21,0.36-0.42,0.42-0.62
	c0.07-0.19,0.04-0.37-0.02-0.69c-0.16-0.61-0.45-1.27-0.76-1.91c-0.6-1.29-1.31-2.56-2-3.86c1.05,1.04,1.98,2.16,2.85,3.36
	c0.42,0.62,0.82,1.24,1.15,1.99C472.18,293.44,472.33,293.99,472.21,294.52z"/>
<path fill="#FFFFFF" stroke="#000000" stroke-miterlimit="10" d="M451.79,267.3c-0.2,1.32-0.98,4.22-3.94,3.98
	c-2.76-0.22-3.19-3.51-3.21-5.34c0.82-0.11,1.51-0.12,1.96,0.04C447.8,266.39,449.97,266.9,451.79,267.3z"/>
<path fill="#FFFFFF" stroke="#000000" stroke-miterlimit="10" d="M631.21,331.97c-1.97,1.75-4.53,3.95-7.48,6.28
	c-7.95,6.28-18.72,13.57-28.49,16.04c-18.36,4.63-34.93-6.95-35.11-12.3c-0.1-2.83,1.94-5.96,3.88-8.28c2-0.91,3.91-1.75,5.7-2.51
	c2.21,3.36,7.36,8.27,18.76,9.19c12.24,0.99,22,0.5,33.31-3.97C624.79,335.23,627.9,333.77,631.21,331.97z"/>
<path fill="#FFFFFF" stroke="#000000" stroke-miterlimit="10" d="M457.91,271.58c-2.51,0.94-9.63,3.37-13.27,2.42
	c-4.45-1.16-8.91-5.35-8.91-5.35s5.54-2.25,8.91-2.71c0.02,1.83,0.45,5.12,3.21,5.34c2.96,0.24,3.74-2.66,3.94-3.98
	c1.71,0.38,3.11,0.65,3.11,0.65C455.94,269.05,456.94,270.31,457.91,271.58z"/>
<path fill="#FFFFFF" stroke="#000000" stroke-miterlimit="10" d="M494.9,268.56c-10.09,6.99-14.01,8.72-24.35,4.86
	c1.89-1.79,3.97-3.87,5.87-5.79c0.55,1.21,1.42,2.43,2.8,2.79c2.6,0.7,6.77-0.9,7.53-4.67C489.21,266.21,491.96,267.07,494.9,268.56
	z"/>
<path fill="#FFFFFF" stroke="#000000" stroke-miterlimit="10" d="M516.21,289.49c-0.3,1.2-0.78,2.98-1.45,5.16
	c-4.73,1.72-9.15,4-11.3,6.94c-3.43,4.68-9.27,18.43-15.77,32.47c-4.56,9.84-9.45,19.83-14.06,26.94
	c0.77-7.82,1.37-15.17,1.83-21.99c0.63-9.57,1-18.13,1.18-25.58c0.02-0.8,0.04-1.58,0.06-2.35c0.01-0.66,0.02-1.32,0.03-1.96
	c0.32-19.72-0.6-30.58-0.6-30.58l9.5-3.56c0,0,6.6,6.95,12.66,3.08s3.74-29.28,3.74-29.28s-17.47,11.23-19.43,12.74
	c-0.59,0.46-2.17,2.05-4.18,4.09c-1.05,0.17-1.89,0.39-2.51,0.58c0.12,0.44,0.29,0.94,0.51,1.44c-1.9,1.92-3.98,4-5.87,5.79
	c-2.56,2.42-4.78,4.31-5.77,4.59c-1.86,0.52-4.21-2.93-6.87-6.43c-0.97-1.27-1.97-2.53-3.01-3.63c-0.49-0.53-1-1.01-1.52-1.44
	c-3.78-3.1-21-13.8-26.74-17.35v24.93c0,0,5.35,5.7,7.31,6.41c1.96,0.72,7.84-2.85,7.84-2.85s0,0,9.8,0.89
	c-1.92,11.85-3.01,20.58-2.91,30.4c0,0.54,0.01,1.08,0.03,1.62c0.01,0.58,0.02,1.17,0.05,1.76c0.27,7.61,1.24,16.1,3.07,27.28
	c1.09,6.71,2.48,14.39,4.22,23.42c-9.08-4.98-14.47-16.72-18.49-28.75c-4.05-12.07-6.72-24.44-10.38-30.6
	c-3.25-5.45-9.23-7.75-15-8.48c-3.72-0.47-7.35-0.29-10.11,0.12c-0.47-1.93-1.18-4.01-2.02-6.11c15.89-9.53,13.82-24.91,11.33-33.82
	c-1.76-6.26-3.86-9.06-4.96-10.17c2.46-1.71,9.62-7.38,8.28-14.78c6.78-5.89,7.13-15.87,7.13-15.87s8.73-7.12,7.49-13.36
	c0,0-1.67-0.73-4.1-1.76c3.39-3.6,14.31-13.67,31.54-14.64c17.15-0.97,32.79,11.97,37.98,16.77c-1.32,0.87-1.98,1.41-1.98,1.41
	s10.87,19.07,11.94,29.94c6.95,3.21,9.45,10.34,9.45,10.34s0.45-0.17,1.2-0.47C512.14,251.68,503.36,279.71,516.21,289.49z"/>
<path fill="#FFFFFF" stroke="#000000" stroke-miterlimit="10" d="M476.7,311.08c-0.02,0.77-0.04,1.55-0.06,2.35
	c-2.58,1.51-8.34,4.53-13.4,4.8c-5.35,0.28-11.6-4.12-14.48-5.91c-0.03-0.59-0.04-1.18-0.05-1.76c3.59-0.08,11.41-0.07,14.65,1.37
	C466.99,310.87,472.56,310.82,476.7,311.08z"/>
<path fill="#FFFFFF" stroke="#000000" stroke-miterlimit="10" d="M476.64,313.43c-0.18,7.45-0.55,16.01-1.18,25.58
	c-8.7,2.04-17.67,1.44-23.63,0.59c-1.83-11.18-2.8-19.67-3.07-27.28c2.88,1.79,9.13,6.19,14.48,5.91
	C468.3,317.96,474.06,314.94,476.64,313.43z"/>
<path fill="#FFFFFF" stroke="#000000" stroke-miterlimit="10" d="M514.76,294.65c-1.8,5.87-4.97,14.68-9.88,23.28
	c-0.65,1.13-1.35,2.21-2.11,3.24c-4.34,5.97-10.19,10.16-15.08,12.89c6.5-14.04,12.34-27.79,15.77-32.47
	C505.61,298.65,510.03,296.37,514.76,294.65z"/>
<path fill="#FFFFFF" stroke="#000000" stroke-miterlimit="10" d="M476.73,309.12c-0.01,0.64-0.02,1.3-0.03,1.96
	c-4.14-0.26-9.71-0.21-13.34,0.85c-3.24-1.44-11.06-1.45-14.65-1.37c-0.02-0.54-0.03-1.08-0.03-1.62c1.64,0.12,4.28,0.22,5.65-0.1
	c0,0,6-1.48,8.97,0.71C463.3,309.55,467.9,306.36,476.73,309.12z"/>
<path fill="#FFFFFF" stroke="#000000" stroke-miterlimit="10" d="M514.87,321.13l-24.07,27.1l-21.56,18.71l-10.7-2.85l-14.79,8.73
	l-4.81-6.95h-7.84l-5.35,6.95l-2.14-5.26l-5.88-0.62l-4.81,1.25l-5.52-1.25c0,0-2.76,0.29-5.61,0.59
	c5.38-6.61,12.51-19.69,15.92-26.17c4.11,2.64,7.21,4.88,8.4,5.75c0.47-1.64,1.16-4.52,1.88-7.67c0.92-4.04,1.89-8.5,2.5-11.32
	c2.16,2.28,4.51,4.36,7.07,6.15c4.02,12.03,9.41,23.77,18.49,28.75c-1.74-9.03-3.13-16.71-4.22-23.42
	c5.96,0.85,14.93,1.45,23.63-0.59c-0.46,6.82-1.06,14.17-1.83,21.99c4.61-7.11,9.5-17.1,14.06-26.94
	c4.89-2.73,10.74-6.92,15.08-12.89C506.61,320.83,510.84,320.88,514.87,321.13z"/>
<path fill="#FFFFFF" stroke="#000000" stroke-miterlimit="10" d="M427.99,339.44c-0.72,3.15-1.41,6.03-1.88,7.67
	c-1.19-0.87-4.29-3.11-8.4-5.75c-6.89-4.42-16.66-9.99-25.11-12.2c-8.6-2.25-16.32,2.2-22.38,7.85c-4.49,4.19-8.06,9.03-10.41,12.29
	c-0.36-0.87-0.65-1.79-0.88-2.74c-1.04-4.25-0.8-9.21,1.15-13.8c3.09-7.28,10.49-13.59,23.97-14.52
	C405.05,316.79,423.78,335.03,427.99,339.44z"/>
<path fill="#FFFFFF" stroke="#000000" stroke-miterlimit="10" d="M417.71,341.36c-3.41,6.48-10.54,19.56-15.92,26.17
	c-0.85,1.06-1.66,1.95-2.41,2.62c-4.87,4.38-11.91,10.77-15.88,14.37c-8.32-9.98-8.97-24.39-9.19-33.38
	c-0.15-6.01-2.43-11.15-4.09-14.13c6.06-5.65,13.78-10.1,22.38-7.85C401.05,331.37,410.82,336.94,417.71,341.36z"/>
<path fill="#FFFFFF" stroke="#000000" stroke-miterlimit="10" d="M539.77,385.6c-60.57,27.2-83.26,74.95-92.45,102.35
	c-18.54-15.15-24.24-45.8-24.78-51.5c42.58-44.96,103.15-51.53,116.17-52.44C539.07,384.52,539.42,385.05,539.77,385.6z"/>
<path fill="#FFFFFF" stroke="#000000" stroke-miterlimit="10" d="M532.07,377.41c-9.09,1.64-29.37,6.07-56.06,16.44
	c-36.14,14.04-52.94,29.5-53.46,29.98l14.61-24.63c0,0,17.29-13.01,26.55-16.22c9.27-3.21,27.8-8.38,30.48-9.36
	c2.06-0.76,10.73-8.35,14.56-11.75C515.86,366.2,525.68,372.42,532.07,377.41z"/>
<path fill="#FFFFFF" stroke="#000000" stroke-miterlimit="10" d="M358.93,346.56c-0.15,1.06-0.32,2.33-0.49,3.73
	c-6.55,3.16-14.85,7.84-19.24,10.35c-1.87,1.08-3.03,1.76-3.03,1.76s-33.69-23.26-41.85-29.92c-0.21-0.17-0.4-0.32-0.57-0.47
	c-0.47-14.61,7.37-22.46,7.37-22.46l58.96,23.21C358.13,337.35,357.89,342.31,358.93,346.56z"/>
<path fill="#FFFFFF" stroke="#000000" stroke-miterlimit="10" d="M393.6,402.58c-1.47,4.88-2.54,24.24-2.54,24.24
	s-21.62-28.04-54.06-30.3c-1.26,0.47-2.24,1.1-3,1.81c5.98-8.96,13.29-17.74,21.71-23.73l-16.51-13.96
	c4.39-2.51,12.69-7.19,19.24-10.35c-1.03,8.68-2.09,22.69,1.02,27.94C364.09,386.07,384.73,391.89,393.6,402.58z"/>
<path fill="#FFFFFF" stroke="#000000" stroke-miterlimit="10" d="M404.9,404.01c-0.53,1.22-0.9,3-1.15,5.07
	c-0.93,7.62-0.27,18.99-0.27,18.99s-0.42,1.8-1.36,5.16c0,0.01,0,0.03-0.01,0.04c-1.47,5.16-4.17,13.99-8.51,25.63
	c-1.5,4.01-2.98,7.97-4.37,11.73c-1.93,5.17-3.7,9.96-5.18,13.98c-2.62,7.08-4.34,11.77-4.4,11.95c-0.09,0.26-2.17,3.3-5.82,5.77
	c-1.31,0.9-2.82,1.72-4.51,2.31c-0.21-0.33-0.44-0.74-0.72-1.21c-1.83-3.23-5.09-9.61-9-17.55v-0.01c-0.2-0.41-0.41-0.83-0.62-1.25
	c-0.34-0.7-0.7-1.41-1.05-2.14c-0.93-1.88-1.88-3.83-2.86-5.84c-0.44-0.9-0.88-1.81-1.33-2.74c-0.02-0.02-0.03-0.05-0.04-0.07
	c-0.78-1.61-1.58-3.24-2.37-4.9c-11.45-23.62-24.36-51.07-26.08-55.82c1.34-2.54,2.82-5.2,4.43-7.91c0.1,0.23,0.21,0.51,0.35,0.84
	c3.16,7.64,16.69,39.94,29.67,65.82c0.25,0.49,0.49,0.98,0.73,1.46c0.48,0.95,0.96,1.89,1.43,2.82c0.49,0.98,0.99,1.93,1.49,2.88
	c0.24,0.48,0.49,0.95,0.74,1.42c0.01,0.02,0.01,0.04,0.03,0.05c0.82,1.57,1.65,3.1,2.46,4.58l0.01,0.01
	c0.44,0.82,0.89,1.61,1.32,2.39c0.64,1.13,1.26,2.22,1.88,3.27c6.89-12.12,12.36-33.62,16.64-49.9
	c-19.85-30.53-55.01-36.12-55.01-36.12s-0.11-1.41,0.47-3.12c0-0.01,0.01-0.02,0.01-0.02c0.68-1.08,1.38-2.17,2.1-3.25
	c0.76-0.71,1.74-1.34,3-1.81c32.44,2.26,54.06,30.3,54.06,30.3s1.07-19.36,2.54-24.24c-8.87-10.69-29.51-16.51-34.14-24.35
	c-3.11-5.25-2.05-19.26-1.02-27.94c0.17-1.4,0.34-2.67,0.49-3.73c0.23,0.95,0.52,1.87,0.88,2.74c2.35-3.26,5.92-8.1,10.41-12.29
	c1.66,2.98,3.94,8.12,4.09,14.13c0.22,8.99,0.87,23.4,9.19,33.38l0.01,0.01c3.43,1.8,8.81,4.5,13.73,6.47
	C405.26,394.21,407.4,398.31,404.9,404.01z"/>
<path fill="#FFFFFF" stroke="#000000" stroke-miterlimit="10" d="M435.2,487.71c-5.29,4.84-17.35,15.9-25.49,23.77
	c-13.69-15.24-21.67-23.43-25.66-26.87c1.48-4.02,3.25-8.81,5.18-13.98c4.8,5.15,16.73,17.89,16.66,17.32
	c-0.08-0.58,12.96-13.04,17.85-17.7C426.69,476.02,430.44,481.92,435.2,487.71z"/>
<path fill="#FFFFFF" stroke="#000000" stroke-miterlimit="10" d="M355.71,374.6c-8.42,5.99-15.73,14.77-21.71,23.73
	c-1.1,1.02-1.74,2.19-2.1,3.25c0,0-0.01,0.01-0.01,0.02c-0.76,1.21-1.5,2.41-2.21,3.6c-1.61,2.71-3.09,5.37-4.43,7.91
	c-5.99,11.34-9.28,20.31-9.28,20.31l-2.04,0.14l-14.79,1.02l-34.67,2.4v-5.7l3.2-5.53l1-0.05l43.91-2.35c0,0,3.03-15.06,9.09-26.83
	c6.06-11.76,18.45-22.01,18.45-22.01l-22.23-16.56l-2.68-2l-7.92-5.9l-1.27-0.94l-11.7-8.72v-7.91
	c8.16,6.66,41.85,29.92,41.85,29.92s1.16-0.68,3.03-1.76L355.71,374.6z"/>
<path fill="#FFFFFF" stroke="#000000" stroke-miterlimit="10" d="M340.12,374.51c0,0-12.39,10.25-18.45,22.01
	c-6.06,11.77-9.09,26.83-9.09,26.83l-43.91,2.35c5-19.27,10.72-34.14,16.2-45.45c0.44,0.64,0.97,1.29,1.63,1.93
	c5.71,5.55,17.68-1.93,20.65-4.9c2.57-2.57,10.35-11.13,10.74-19.33L340.12,374.51z"/>
<path fill="#FFFFFF" stroke="#000000" stroke-miterlimit="10" d="M315.21,355.95c-10.55,8.97-20.1,14.35-26.2,16.31
	c-2.68,0.86-4.69,1.07-5.83,0.63c-0.46-0.18-0.78-0.45-0.95-0.84c-1.01-2.31,10.32-11.21,18.38-17.17c2.88-2.13,5.34-3.88,6.68-4.83
	L315.21,355.95z"/>
<path fill="#FFFFFF" stroke="#000000" stroke-miterlimit="10" d="M359.6,485.87c-7.68-5.33-14.45-7.44-20.19-14.67
	c-7.58-9.54-6.78-16.58-11.41-25.58c-3.54-6.88-9.81-9.35-13.86-9.84l-0.21-2.22l2.04-0.14c0,0,3.29-8.97,9.28-20.31
	c1.72,4.75,14.63,32.2,26.08,55.82c0.79,1.66,1.59,3.29,2.37,4.9c0.01,0.02,0.02,0.05,0.04,0.07c0.44,0.92,0.89,1.84,1.33,2.74
	c0.98,2.01,1.93,3.96,2.86,5.84c0.35,0.73,0.71,1.44,1.05,2.14C359.19,485.04,359.4,485.46,359.6,485.87z"/>
<path fill="#FFFFFF" stroke="#000000" stroke-miterlimit="10" d="M317.89,357.95c-0.39,8.2-8.17,16.76-10.74,19.33
	c-2.97,2.97-14.94,10.45-20.65,4.9c-0.66-0.64-1.19-1.29-1.63-1.93c-1.91-2.78-1.98-5.5-1.69-7.36c1.14,0.44,3.15,0.23,5.83-0.63
	c6.1-1.96,15.65-7.34,26.2-16.31L317.89,357.95z"/>
<path fill="#FFFFFF" stroke="#000000" stroke-miterlimit="10" d="M386.43,440.84c-4.28,16.28-9.75,37.78-16.64,49.9
	c-0.62-1.05-1.24-2.14-1.88-3.27c-0.43-0.78-0.88-1.57-1.32-2.39l-0.01-0.01c-0.81-1.48-1.63-3.01-2.46-4.58
	c-0.02-0.01-0.02-0.03-0.03-0.05c-0.25-0.47-0.5-0.94-0.74-1.42c-0.49-0.95-0.99-1.91-1.49-2.88c-0.47-0.93-0.95-1.87-1.43-2.82
	c-0.24-0.48-0.48-0.97-0.73-1.46c-12.98-25.88-26.51-58.18-29.67-65.82c-0.14-0.33-0.25-0.61-0.35-0.84
	c0.71-1.19,1.45-2.39,2.21-3.6c-0.58,1.71-0.47,3.12-0.47,3.12S366.58,410.31,386.43,440.84z"/>
<path fill="#FFFFFF" stroke="#000000" stroke-miterlimit="10" d="M499.91,356.6c0,0,1.73,1,4.46,2.62
	c-3.7,2.81-12.66,9.21-21.41,12.35c-11.41,4.1-36,9.98-50.44,22.99c-4.11,5.09-7.6,9.92-10.44,14.14c-2.08,0.13-4.93,0.3-8.09,0.48
	c-3.58,0.19-7.48,0.06-10.24-0.1c0.25-2.07,0.62-3.85,1.15-5.07c2.5-5.7,0.36-9.8-7.66-13.01c-4.92-1.97-10.3-4.67-13.73-6.47
	l-0.01-0.01c3.97-3.6,11.01-9.99,15.88-14.37c0.75-0.67,1.56-1.56,2.41-2.62c2.85-0.3,5.61-0.59,5.61-0.59l5.52,1.25l4.81-1.25
	l5.88,0.62l2.14,5.26l5.35-6.95h7.84l4.81,6.95l14.79-8.73l10.7,2.85l21.56-18.71l24.07-27.1c5.28,0.31,10.23,0.93,13.6,1.44
	L499.91,356.6z"/>
<path fill="#FFFFFF" stroke="#000000" stroke-miterlimit="10" d="M554.8,578.94c-3.9,1.42-9.33,4.9-14.45,8.55
	c-0.09,0.06-0.19,0.13-0.29,0.21c-0.43,0.3-0.87,0.61-1.3,0.94c-0.21,0.14-0.42,0.31-0.64,0.47c-6.82,5.01-12.57,9.87-12.57,9.87
	l0.71-11.87l1.63-27.15l1.11-18.33l0.48-8.06l40.08-74.3c2.7,3.56,5.78,7.56,9.13,11.81C570.12,488.4,550.05,534.55,554.8,578.94z"
	/>
<path fill="#FFFFFF" stroke="#000000" stroke-miterlimit="10" d="M555.71,412.78c-6.44,2.6-16.48,6.79-18.39,8.34
	c-2.85,2.32-28.16,24.06-31.9,29.05c-3.75,4.99-44.56,26.2-44.56,26.2s12.65-25.13,28.87-41.88c13.45-13.9,44.31-33.94,54.45-40.38
	c4.11,9.41,6.56,19.35,6.56,19.35S552.58,413.21,555.71,412.78z"/>
<path fill="#FFFFFF" stroke="#000000" stroke-miterlimit="10" d="M567.1,411.23c-6.13,3.7-13.91,8.34-19.97,11.79
	c-4.49,2.57-8.04,4.48-9.28,4.87c-1.32,0.42-3.41,2.12-6.02,4.58c-6.18,5.81-15.27,15.88-23.92,23.4
	c-12.3,10.69-31.54,16.75-39.03,22.81c-7.48,6.06-14.08,14.97-19.96,22.82c-5.31-4.43-9.85-9.07-13.72-13.79
	c-4.76-5.79-8.51-11.69-11.46-17.46c-5.91-11.5-8.65-22.44-9.9-30.81c-1.41-9.44-0.92-15.6-0.92-15.6s3.13-6.19,9.16-15.14
	c2.84-4.22,6.33-9.05,10.44-14.14c14.44-13.01,39.03-18.89,50.44-22.99c8.75-3.14,17.71-9.54,21.41-12.35
	c1.26,0.76,2.75,1.65,4.38,2.65c-3.83,3.4-12.5,10.99-14.56,11.75c-2.68,0.98-21.21,6.15-30.48,9.36
	c-9.26,3.21-26.55,16.22-26.55,16.22l-14.61,24.63c0.52-0.48,17.32-15.94,53.46-29.98c26.69-10.37,46.97-14.8,56.06-16.44
	c1.32,1.03,2.49,2,3.46,2.9c1.1,1.02,2.16,2.27,3.18,3.7c-13.02,0.91-73.59,7.48-116.17,52.44c0.54,5.7,6.24,36.35,24.78,51.5
	c9.19-27.4,31.88-75.15,92.45-102.35c1.62,2.56,3.1,5.5,4.41,8.51c-10.14,6.44-41,26.48-54.45,40.38
	c-16.22,16.75-28.87,41.88-28.87,41.88s40.81-21.21,44.56-26.2c3.74-4.99,29.05-26.73,31.9-29.05c1.91-1.55,11.95-5.74,18.39-8.34
	c0.01,0,0.01,0,0.01,0C558.58,412.39,562.5,411.86,567.1,411.23z"/>
<path fill="#FFFFFF" stroke="#000000" stroke-miterlimit="10" d="M423.74,470.25c-4.89,4.66-17.93,17.12-17.85,17.7
	c0.07,0.57-11.86-12.17-16.66-17.32c1.39-3.76,2.87-7.72,4.37-11.73c4.34-11.64,7.04-20.47,8.51-25.63
	c-0.21,8.33-0.45,28.9,2.08,37.75c3.77-12.41,7.2-23.63,9.65-31.58C415.09,447.81,417.83,458.75,423.74,470.25z"/>
<path fill="#FFFFFF" stroke="#000000" stroke-miterlimit="10" d="M413.84,439.44c-2.45,7.95-5.88,19.17-9.65,31.58
	c-2.53-8.85-2.29-29.42-2.08-37.75c0.01-0.01,0.01-0.03,0.01-0.04c0.94-3.36,1.36-5.16,1.36-5.16s-0.66-11.37,0.27-18.99
	c2.76,0.16,6.66,0.29,10.24,0.1c3.16-0.18,6.01-0.35,8.09-0.48c-6.03,8.95-9.16,15.14-9.16,15.14S412.43,430,413.84,439.44z"/>
<path fill="#FFFFFF" stroke="#000000" stroke-miterlimit="10" d="M645.19,470.88l-0.84,23.19c-3.59,8.73-8.67,22.44-10.41,33.81
	c-0.3-0.19-0.61-0.39-0.91-0.59c-17.52-11.67-38.87-36.61-54.34-56.21c-3.35-4.25-6.43-8.25-9.13-11.81
	c-1.58-2.08-3.03-4.01-4.34-5.75c-3.59-4.8-14.34-23.98-18.09-30.5c6.06-3.45,13.84-8.09,19.97-11.79c0.01,0,0.01,0,0.01,0
	c17.78-2.43,45.52-6.2,59.52-8.06l1.65,17.66l-3.28-2.56l-1.44,21.5L645.19,470.88z"/>
<path fill="#FFFFFF" stroke="#000000" stroke-miterlimit="10" d="M740.07,526.7c-0.9,20.93-6.74,54.71-9.21,65.15
	c-2.14,9.06-3.14,20.29-3.55,26.32c-11.55-4.75-26.83-6.89-26.83-6.89s2.4,9.18,3.02,17.55c0.63,8.38-2.04,15.15-5.7,17.65
	c-3.65,2.49-16.93,1.6-16.93,1.6s-0.62,0.53-3.03,3.92c-0.18-0.02-0.38-0.04-0.59-0.06c-3-0.24-8.97,0.02-13.9,0.31
	c1.57-0.28,2.53-0.4,2.53-0.4s5.58-6.53-0.6-38.37c-6.18-31.85-21.39-56.08-29.94-69.39c-2.3-3.58-2.44-9.48-1.4-16.21
	c1.74-11.37,6.82-25.08,10.41-33.81l-0.46,12.71l22.34,39.69l9.27-24.96l19.48,9.99l12.12-15.21c0,0,20.43,20.14,19.96,18.62
	c-0.48-1.51,5.46-17.43,5.46-17.43L740.07,526.7z"/>
<path fill="#FFFFFF" stroke="#000000" stroke-miterlimit="10" d="M657.78,677.96c-5.06,0.79-9.34,3.14-12.78,5.89
	c-3.11-2.28-10.5-7.6-12.22-7.88c-0.68-0.11-1.1-0.7-1.15-1.69c-0.13-2.21,1.58-6.43,6.38-11.85c5.46-6.17,19.55-9.18,25.33-10.18
	h0.01c4.93-0.29,10.9-0.55,13.9-0.31c-3.73,7.05-15.07,19.9-21.12,26.05C656.71,677.96,657.26,677.94,657.78,677.96z"/>
<path fill="#FFFFFF" stroke="#000000" stroke-miterlimit="10" d="M677.65,701.96l-24.02,17.26c0,0-18.53,8.2-24.71,7.13
	c-0.5-0.09-0.99-0.22-1.45-0.4c-5.21-1.96-7.82-9.12-8.89-14.6c-0.77-4.02,1.07-7.27,2.36-8.97c0.63-0.82,1.12-1.28,1.12-1.28
	s5.94-7.91,13.75-6.73c0.16,0.02,0.32,0.05,0.48,0.08c0,0-0.12-0.11-0.33-0.32c1.53-2.43,4.58-6.7,9.04-10.28
	c3.44-2.75,7.72-5.1,12.78-5.89c14.33,0.24,10.28,15.88,11.54,23.79C672.45,701.53,675.22,701.62,677.65,701.96z"/>
<path fill="#FFFFFF" stroke="#000000" stroke-miterlimit="10" d="M645,683.85c-4.46,3.58-7.51,7.85-9.04,10.28
	c-0.06,0.08-0.11,0.16-0.15,0.24c-7.81-1.18-13.75,6.73-13.75,6.73s-0.49,0.46-1.12,1.28c-2.68-9.45,2.36-17.61,4.92-20.98
	c-0.08-0.24-0.15-0.46-0.21-0.68c1.09-2.51,3.79-4.85,5.98-6.44c0.05,0.99,0.47,1.58,1.15,1.69
	C634.5,676.25,641.89,681.57,645,683.85z"/>
<path fill="#FFFFFF" stroke="#000000" stroke-miterlimit="10" d="M694,713.98c-7.48,7.7-25.34,22.33-33.59,21.99
	c-2.65,1.42-7.07,2.38-11.69,2.72h-0.01c-6.59,0.49-13.6-0.28-16.46-2.72c-3.19-2.73-4.36-7.24-4.78-10.02
	c0.46,0.18,0.95,0.31,1.45,0.4c6.18,1.07,24.71-7.13,24.71-7.13l24.02-17.26C687.46,703.29,691.98,708.63,694,713.98z"/>
<path fill="#FFFFFF" stroke="#000000" stroke-miterlimit="10" d="M739.68,627.94c-1.78,9.54-5.85,34.13-10.6,45.42
	c-4.75,11.28-14.73,31.6-18.18,35.16c-2.7,2.8-10.76,12.26-14.09,16.18c-0.01,0.01-0.01,0.01-0.02,0.02
	c-0.11,0.1-0.59,0.55-1.39,1.23c0.19-1.59,0.57-6.79-1.4-11.97c-2.02-5.35-6.54-10.69-16.35-12.02c-2.43-0.34-5.2-0.43-8.33-0.21
	c-1.26-7.91,2.79-23.55-11.54-23.79c-0.52-0.02-1.07,0-1.65,0.03c6.05-6.15,17.39-19,21.12-26.05c0.21,0.02,0.41,0.04,0.59,0.06
	c2.41-3.39,3.03-3.92,3.03-3.92s13.28,0.89,16.93-1.6c3.66-2.5,6.33-9.27,5.7-17.65c-0.62-8.37-3.02-17.55-3.02-17.55
	s15.28,2.14,26.83,6.89C733.4,620.68,738.45,623.91,739.68,627.94z"/>
<path fill="#FFFFFF" stroke="#000000" stroke-miterlimit="10" d="M695.4,725.95L695.4,725.95c-3.56,3.07-13.36,10.93-23.11,13.58
	c-9.47,2.58-19.51,0.31-23.57-0.84c4.62-0.34,9.04-1.3,11.69-2.72c8.25,0.34,26.11-14.29,33.59-21.99
	C695.97,719.16,695.59,724.36,695.4,725.95z"/>
<path fill="#FFFFFF" stroke="#000000" stroke-miterlimit="10" d="M796.92,447.38c-6.55,14.63-39.72,39.4-52.08,48.27
	c-2.9,2.08-4.65,3.29-4.65,3.29l-9.57-11.88l6.17-12.44c0.62-0.14,1.44-0.34,2.44-0.6C749.1,471.5,775.98,463.55,796.92,447.38z"/>
<path fill="#FFFFFF" stroke="#000000" stroke-miterlimit="10" d="M745.36,533.16l-5.29-6.46l-7.55-9.22c0,0-5.94,15.92-5.46,17.43
	c0.47,1.52-19.96-18.62-19.96-18.62l-12.12,15.21l-19.48-9.99l-9.27,24.96l-22.34-39.69l0.46-12.71l0.84-23.19l0.6-16.61l3.78,2.64
	l14.99,10.43c0,0,13.31-19.73,12.84-21.63c-0.06-0.23,0.19-0.17,0.66,0.12l-4.94,48.36l17.11,5.65l8.55-14.92l-16.77-36.11
	c0.76,0.63,1.58,1.3,2.42,2.02c5.67,4.76,12.69,11.04,12.69,11.04l6.65-22.1l17.35,20.91c0,0,1.66-0.71,6.89-10.45
	c4.86,8.11,8.51,16.12,11.22,23.79c-1,0.26-1.82,0.46-2.44,0.6l-6.17,12.44l9.57,11.88c0,0,1.75-1.21,4.65-3.29
	C748.57,517.66,745.36,533.16,745.36,533.16z"/>
<path fill="#FFFFFF" stroke="#000000" stroke-miterlimit="10" d="M660.71,418.27h-12.54l-13.96,9.5l-2.08-3.93l-3.85-3.01
	l-1.65-17.66c5.2-0.69,8.5-1.12,8.71-1.12c0.68,0,8.24-4.32,13.92-7.28l5.8,17.2C655.06,411.97,657.31,414.34,660.71,418.27z"/>
<path fill="#FFFFFF" stroke="#000000" stroke-miterlimit="10" d="M698.78,484.92l-8.55,14.92l-17.11-5.65l4.94-48.36
	c0.79,0.47,2.21,1.57,3.94,2.97l0.01,0.01L698.78,484.92z"/>
<path fill="#FFFFFF" stroke="#000000" stroke-miterlimit="10" d="M678.52,441.31l-0.46,4.52c-0.47-0.29-0.72-0.35-0.66-0.12
	c0.47,1.9-12.84,21.63-12.84,21.63l-14.99-10.43l-15.36-29.14l13.96-9.5h12.54C665.43,423.7,672.34,432.11,678.52,441.31z"/>
<polygon fill="#FFFFFF" stroke="#000000" stroke-miterlimit="10" points="649.57,456.91 645.79,454.27 645.19,470.88 623.56,439.77 
	625,418.27 628.28,420.83 632.13,423.84 634.21,427.77 "/>
<path fill="#FFFFFF" stroke="#000000" stroke-miterlimit="10" d="M531.83,432.47c-5.59,9.08-18.64,28.16-35.74,39.62
	c-23.05,15.44-47.29,32.08-59.17,45.98c-11.88,13.9-22.57,37.43-22.57,37.43s-26.38-41.72-40.52-53.17
	c3.65-2.47,5.73-5.51,5.82-5.77c0.06-0.18,1.78-4.87,4.4-11.95c3.99,3.44,11.97,11.63,25.66,26.87c8.14-7.87,20.2-18.93,25.49-23.77
	c3.87,4.72,8.41,9.36,13.72,13.79c5.88-7.85,12.48-16.76,19.96-22.82c7.49-6.06,26.73-12.12,39.03-22.81
	C516.56,448.35,525.65,438.28,531.83,432.47z"/>
<path fill="#FFFFFF" stroke="#000000" stroke-miterlimit="10" d="M368.6,503.43c-6.06-7.63-20.43-19.22-27.68-22.91
	c-1.75-0.89-3.49-2.64-5.17-4.9c0-0.01,0-0.01,0-0.01c-5.27-7.11-9.78-19.25-11.23-25.38c-1.9-8.08-9.74-7.84-9.74-7.84l-0.64-6.61
	c4.05,0.49,10.32,2.96,13.86,9.84c4.63,9,3.83,16.04,11.41,25.58c5.74,7.23,12.51,9.34,20.19,14.67v0.01
	C363.51,493.82,366.77,500.2,368.6,503.43z"/>
<path fill="#FFFFFF" stroke="#000000" stroke-miterlimit="10" d="M565.22,453.52c-11.74,14.03-35.27,38.65-58.2,41.86
	c-32.32,4.51-56.79,38.97-62.26,53.58c-5.46,14.61-14.97,30.3-23.28,43.37c-12.6-11.41-40.16-57.51-47.53-67.01
	c-5.73-7.4-25.66-15.23-34.23-18.34c-3.83-15.05-3.97-30.89-3.97-31.36c1.68,2.26,3.42,4.01,5.17,4.9
	c7.25,3.69,21.62,15.28,27.68,22.91c0.28,0.47,0.51,0.88,0.72,1.21c1.69-0.59,3.2-1.41,4.51-2.31
	c14.14,11.45,40.52,53.17,40.52,53.17s10.69-23.53,22.57-37.43c11.88-13.9,36.12-30.54,59.17-45.98
	c17.1-11.46,30.15-30.54,35.74-39.62c2.61-2.46,4.7-4.16,6.02-4.58c1.24-0.39,4.79-2.3,9.28-4.87
	C550.88,429.54,561.63,448.72,565.22,453.52z"/>
<path fill="#FFFFFF" stroke="#000000" stroke-miterlimit="10" d="M349.28,539.65c-5.01,2.34-25.22,11.33-37.17,9.67
	c-8.89-1.23-15.57-5.15-19.17-7.77l-5.01-8.59l-0.02-0.04c0,0,11.74-63.48,2.7-81.93l0.77-5.81l6.41-5.7l1.35-4.9l14.79-1.02
	l0.21,2.22l0.64,6.61c0,0,7.84-0.24,9.74,7.84c1.45,6.13,5.96,18.27,11.23,25.38c0,0,0,0,0,0.01c0,0.47,0.14,16.31,3.97,31.36
	c0.86,3.37,1.9,6.69,3.17,9.8c0,0.01,0,0.02,0,0.02c0.95,5.86,2.57,14.66,3.97,16.37C347.22,534.6,347.83,536.82,349.28,539.65z"/>
<path fill="#FFFFFF" stroke="#000000" stroke-miterlimit="10" d="M354.48,547.24c-5.08,3.1-24.9,14.54-40.54,14.07
	c-2.02-0.06-3.97-0.32-5.81-0.82c-9.88-2.69-15.46-7.33-18.5-11.02c2-2.97,3.57-5.32,4.07-6.07c0.11-0.17,0.17-0.26,0.17-0.26
	l-0.93-1.59c3.6,2.62,10.28,6.54,19.17,7.77c11.95,1.66,32.16-7.33,37.17-9.67C350.41,541.85,352.05,544.4,354.48,547.24z"/>
<path fill="#FFFFFF" stroke="#000000" stroke-miterlimit="10" d="M287.91,532.92l0.02,0.04c-3.7-0.81-9.83-3.94-10.22-7.88
	c-0.35-3.51,0.47-19.81,0.92-28.05c0-0.01,0-0.01,0-0.01c1.64-2.17,2.77-3.54,2.77-3.54l1.42-21.57l6.06-7.95l1.73-12.97
	C299.65,469.44,287.91,532.92,287.91,532.92z"/>
<path fill="#FFFFFF" stroke="#000000" stroke-miterlimit="10" d="M293.87,543.14c0,0-0.06,0.09-0.17,0.26
	c-0.5,0.75-2.07,3.1-4.07,6.07c-4.49,6.65-11.17,16.37-12.87,17.91c-1.27,1.16-2.38-3.17-3.18-7.91v-0.01
	c-0.83-4.97-1.33-10.38-1.33-10.38l-12.36,14.02l-4.99,14.02l-2.14-1.07l-2.61-1.31c0,0,2.79-9,6.09-19.91
	c2.62,0.56,4.91,0.77,6.74,0.67l-1.19-11.65c0,0-0.83,0.04-2.26,0.04c0.72-2.41,1.43-4.81,2.11-7.12c1.79,1.5,2.83,2.33,2.83,2.33
	s10.63-7.05,7.54-22.3c0,0-1.61-0.59-4.34-1.69c2.31-6.12,7.66-13.71,10.96-18.08c-0.45,8.24-1.27,24.54-0.92,28.05
	c0.39,3.94,6.52,7.07,10.22,7.88L293.87,543.14z"/>
<path fill="#FFFFFF" stroke="#000000" stroke-miterlimit="10" d="M355.26,548.12c-2.17,7.73-11.66,40.18-19.2,44.06
	c-0.11,0.06-0.21,0.11-0.31,0.15c-3.19-2.48-8.9-10.67-14.03-18.57c-3.01-4.65-5.82-9.21-7.78-12.45
	c15.64,0.47,35.46-10.97,40.54-14.07C354.73,547.53,354.99,547.82,355.26,548.12z"/>
<path fill="#FFFFFF" stroke="#000000" stroke-miterlimit="10" d="M569.56,459.27l-40.08,74.3l-0.48,8.06
	c-14.58,8.71-39.41,17.37-55.31,28.3c-19.96,13.72-33.68,43.31-42.06,54.36c-8.37,11.05-17.64-3.92-24.41-11.59
	c-5.55-6.27-31.66-38.98-40.93-50.6c0-0.01,0-0.01,0-0.01c-0.06-1.61-0.19-3.1-0.38-4.46c-4.58-3.39-8.04-6.59-10.65-9.51
	c0.29-1.06,0.45-1.65,0.45-1.65s-0.43,0.28-1.23,0.77c-2.43-2.84-4.07-5.39-5.2-7.59c-1.45-2.83-2.06-5.05-2.42-6.48
	c-1.4-1.71-3.02-10.51-3.97-16.37c0,0,0-0.01,0-0.02c-1.27-3.11-2.31-6.43-3.17-9.8c8.57,3.11,28.5,10.94,34.23,18.34
	c7.37,9.5,34.93,55.6,47.53,67.01c8.31-13.07,17.82-28.76,23.28-43.37c5.47-14.61,29.94-49.07,62.26-53.58
	c22.93-3.21,46.46-27.83,58.2-41.86C566.53,455.26,567.98,457.19,569.56,459.27z"/>
<path fill="#FFFFFF" stroke="#000000" stroke-miterlimit="10" d="M529,541.63l-1.11,18.33c-16.45,10.8-51.23,34.8-65.25,53.28
	c-1.34,4.33-1.59,11.22-2.34,17.44c-0.32,2.6-0.73,5.08-1.33,7.2c-0.57,0.36-1.26,0.82-2.04,1.38h-0.52l-4.04-6.11l-26.26,14.66
	l-3.57-2.76v-10.9c0,0-2.25-2.38-14.61-10.22c-12.36-7.84-17.35-22.1-23.05-30.65c-3.57-5.36-11.23-12.01-16.47-16.25
	c-0.55-2.99-1.24-5.66-2.15-7.94c0.1-2.49,0.12-4.84,0.03-6.99c9.27,11.62,35.38,44.33,40.93,50.6
	c6.77,7.67,16.04,22.64,24.41,11.59c8.38-11.05,22.1-40.64,42.06-54.36C489.59,559,514.42,550.34,529,541.63z"/>
<path fill="#FFFFFF" stroke="#000000" stroke-miterlimit="10" d="M384.31,721.19L373,699.34l-3.09,18.21c0,0-2.52-6.29-5.58-13.15
	c-3.12-7.03-6.81-14.65-8.9-16.74c-1.16-1.15-1.83-0.63-1.68,2.57c-0.95-27.8-12.59-38.26-12.59-38.26l15.92-26.14
	c0,0,6.87-28.61,8.78-50.82c0.75,0.58,1.61,1.26,2.55,2.02c0.92,5.1,1.4,11.1,1.82,17.57v0.01c0.72,10.93,1.26,23.19,3.48,34.67
	c1.91,9.86,3.93,25.1,5.72,40.42c1.19,10.23,2.28,20.48,3.17,29.18v0.01c0.67,6.55,1.22,12.21,1.61,16.33v0.12L384.31,721.19z"/>
<path fill="#FFFFFF" stroke="#000000" stroke-miterlimit="10" d="M576.96,683.79c-4.92-14.71-8.81-23.56-10.84-27.78
	c2.63-6.79,5.89-12.32,5.77-15.15c-0.15-3.42-18.78-27.43-24.95-35.29c2.17-3.3,4.58-6.66,7.21-9.91c1.49,1.55,3.33,3.46,5.4,5.61
	v0.01c12.66,13.2,33.69,35.24,34.44,36.73C594.89,639.81,581.34,673.14,576.96,683.79z"/>
<path fill="#FFFFFF" stroke="#000000" stroke-miterlimit="10" d="M580.45,574.98c-8.91,3.27-16.78,9.79-23.42,17.28
	c-0.99,1.11-1.95,2.25-2.88,3.4c-2.63,3.25-5.04,6.61-7.21,9.91c-8.43,12.81-13.3,24.75-13.78,25.96c-0.12,0.29-0.22,0.94-0.31,1.85
	c0,0,0,0,0,0.01c-0.67,6.57-0.76,26.9-0.76,26.9l-48.36,31.03c0,0,12.83-36.97,16.18-46c3.34-9.03,3.31-17.1,3.31-17.1
	s3.67-2.39,10.28-9.75c4.02-4.47,9.12-10.78,15.14-19.49c2.68-3.88,5.93-7.14,9.48-9.87c0.22-0.16,0.43-0.33,0.64-0.47
	c0.43-0.31,0.86-0.63,1.3-0.94c0.1-0.08,0.2-0.15,0.29-0.21c4.65-3.2,9.7-5.58,14.59-7.35C568.26,575.3,580.45,574.98,580.45,574.98
	z"/>
<path fill="#FFFFFF" stroke="#000000" stroke-miterlimit="10" d="M608.72,881.51l-14.69-24.23c0,0-1.31-16.68-3.92-40.04
	c-3.94-35.21-10.82-85.63-20.61-117.07c-1.71-5.48-3.5-10.38-5.38-14.52c-0.84-4.1-2.03-12.1-0.78-19.84
	c0.55-3.43,1.61-6.74,2.78-9.8c2.03,4.22,5.92,13.07,10.84,27.78c5.56,16.63,12.44,40.74,19.41,74.16
	C612.52,835.42,608.72,881.51,608.72,881.51z"/>
<path fill="#FFFFFF" stroke="#000000" stroke-miterlimit="10" d="M446.6,762.94c0,0-6.68,3.4-13.43,9.26
	c-0.74-11.32-1.9-32.24-1.98-52.77c4.63-3.59,9.49-7.41,11.97-9.36v0.01c-0.45,16.91,1.33,29.7,3.71,39.07c0,0.01,0,0.01,0,0.02
	C447,755.81,446.6,762.94,446.6,762.94z"/>
<path fill="#FFFFFF" stroke="#000000" stroke-miterlimit="10" d="M433.17,772.2c-5.01,4.36-10.06,10.07-12.41,16.76
	c-4.6-6.62-8.11-11.68-10.7-15.42c0.2-11.53,0.54-32.34,0.73-53.26c4.91,3.74,9.18,7.13,9.26,7.37c0.08,0.25,5.43-3.81,11.14-8.22
	C431.27,739.96,432.43,760.88,433.17,772.2z"/>
<path fill="#FFFFFF" stroke="#000000" stroke-miterlimit="10" d="M410.79,720.28c-0.19,20.92-0.53,41.73-0.73,53.26
	c-4.31-6.24-6.05-8.82-6.05-8.82l-1.25-19.07c0,0-0.48-0.84-1.34-2.08c0-0.01,0-0.01,0-0.01c0.11-7.2,0.08-18.24-0.71-30.71
	C403.55,714.83,407.33,717.64,410.79,720.28z"/>
<path fill="#FFFFFF" stroke="#000000" stroke-miterlimit="10" d="M470.84,639.26l-1.11,10.1c-5.89,4.56-25.56,22.6-26.57,60.71
	c-2.48,1.95-7.34,5.77-11.97,9.36c-0.06-13.61,0.36-27.05,1.69-37.4c3.18-24.8,17.12-37.76,24.05-42.77H470.84z"/>
<path fill="#FFFFFF" stroke="#000000" stroke-miterlimit="10" d="M401.42,743.56c-2.29-3.34-7.24-9.6-12.56-10.38
	c0.71-17.47-3.98-28.34-3.98-28.34l-2.28-5.95v-0.01c-0.89-8.7-1.98-18.95-3.17-29.18c2.03-7.84,5.45-21.35,5.45-21.35l2.52,3.65
	l1.28,1.87l0.18-1.59c7.44,17.39,10.59,40.78,11.85,60.57C401.5,725.32,401.53,736.36,401.42,743.56z"/>
<path fill="#FFFFFF" stroke="#000000" stroke-miterlimit="10" d="M410.79,720.28c-3.46-2.64-7.24-5.45-10.08-7.43
	c-1.26-19.79-4.41-43.18-11.85-60.57c0-0.01,0-0.01,0-0.01l0.81-6.97l0.08-0.7c0,0,11.41,0,12.83-1.24
	c0.04-0.03,0.08-0.07,0.13-0.11c2.55,3.35,5.84,8.41,7.18,13.65C411.01,661.3,411.05,690.9,410.79,720.28z"/>
<path fill="#FFFFFF" stroke="#000000" stroke-miterlimit="10" d="M354.15,887.44l-30.46,0.19c-4.6-21.02-8.94-53.61-3.8-90.27
	c7.66-54.69,29.56-98.5,35.54-109.7c2.09,2.09,5.78,9.71,8.9,16.74C364.33,704.4,339.18,754.32,354.15,887.44z"/>
<path fill="#FFFFFF" stroke="#000000" stroke-miterlimit="10" d="M476.01,678.47c0,0-14.08,19.42-11.76,51.86
	c0,0-14.26,5.52-17.47,15.68c0.05,1.01,0.08,2.07,0.09,3.14c-2.38-9.37-4.16-22.16-3.71-39.07v-0.01
	c1.01-38.11,20.68-56.15,26.57-60.71l-0.14,1.3l9.76-5.72l0.57-0.33c-0.16,0.38-3.67,8.85-0.88,13.89c2.85,5.17,5.88,6.78,5.88,6.78
	L476.01,678.47z"/>
<path fill="#FFFFFF" stroke="#000000" stroke-miterlimit="10" d="M481.53,696.47c-0.15,0.45-8.88,11.84-11.44,15.48v0.01
	c-0.42,0.61-0.67,1-0.67,1.08c0,0.53-5.17,17.29-5.17,17.29c-2.32-32.44,11.76-51.86,11.76-51.86S481.71,695.93,481.53,696.47z"/>
<path fill="#FFFFFF" stroke="#000000" stroke-miterlimit="10" d="M554.81,677.38c-5.93,0.76-29.3,4.53-42.44,17.84
	c-0.21,0.39-0.44,0.82-0.71,1.3c-6.96,12.69-32.62,55.73-32.62,55.73l2.13,134.41l-9.79,0.06v-41.44l-10.52-6.06l10.52-3.92
	l-0.81-77.58v-0.01l-0.48-45.75v-0.01c2.56-3.64,11.29-15.03,11.44-15.48c0.18-0.54-5.52-18-5.52-18l8.91-13.19
	c0,0-3.03-1.61-5.88-6.78c-2.79-5.04,0.72-13.51,0.88-13.89l-0.57,0.33c1.76-3.98,3.86-8.76,5.87-13.35v-0.01
	c6.25-2.92,19.86-9.28,28.28-13.11c-6.61,7.36-10.28,9.75-10.28,9.75s0.03,8.07-3.31,17.1c-3.35,9.03-16.18,46-16.18,46l48.36-31.03
	c0,0,0.09-20.33,0.76-26.9C536.99,652.07,547.08,667.62,554.81,677.38z"/>
<path fill="#FFFFFF" stroke="#000000" stroke-miterlimit="10" d="M511.66,696.52c-1.37,31.86-6.4,149.21-8.04,190l-22.45,0.14
	l-2.13-134.41C479.04,752.25,504.7,709.21,511.66,696.52z"/>
<path fill="#FFFFFF" stroke="#000000" stroke-miterlimit="10" d="M590.11,817.24c-1.53,14.52-4.63,42.78-8.11,68.79l-36.52,0.23
	c7.49-38.97,20.39-153.35,24.02-186.09C579.29,731.61,586.17,782.03,590.11,817.24z"/>
<path fill="#FFFFFF" stroke="#000000" stroke-miterlimit="10" d="M563.34,665.81c-1.25,7.74-0.06,15.74,0.78,19.84
	c0.35,1.76,0.64,2.8,0.64,2.8s-4.36-4.02-9.95-11.07c-7.73-9.76-17.82-25.31-21.96-43.99c0-0.01,0-0.01,0-0.01
	c0.09-0.91,0.19-1.56,0.31-1.85c0.48-1.21,5.35-13.15,13.78-25.96c6.17,7.86,24.8,31.87,24.95,35.29c0.12,2.83-3.14,8.36-5.77,15.15
	C564.95,659.07,563.89,662.38,563.34,665.81z"/>
<path fill="#FFFFFF" stroke="#000000" stroke-miterlimit="10" d="M569.5,700.17c-3.63,32.74-16.53,147.12-24.02,186.09l-41.86,0.26
	c1.64-40.79,6.67-158.14,8.04-190c0.27-0.48,0.5-0.91,0.71-1.3c13.14-13.31,36.51-17.08,42.44-17.84
	c5.59,7.05,9.95,11.07,9.95,11.07s-0.29-1.04-0.64-2.8C566,689.79,567.79,694.69,569.5,700.17z"/>
<path fill="#FFFFFF" stroke="#000000" stroke-miterlimit="10" d="M453.4,866.21c-7.46,5.16-15.22,11.07-21.86,16.27
	c-16.09-13.36-34.25-25.12-45.94-32.13l-0.72-17.9l12.68-4.64l13.36-12.47L399.38,823l-13.37-3.56l-0.6-34.62
	c8.85,6.88,23.2,19.45,39,38.92C433.84,835.35,443.79,849.42,453.4,866.21z"/>
<path fill="#FFFFFF" stroke="#000000" stroke-miterlimit="10" d="M397.56,827.81l-12.68,4.64l0.72,17.9l1.48,36.89l-32.93,0.2
	c-14.97-133.12,10.18-183.04,10.18-183.04c3.06,6.86,5.58,13.15,5.58,13.15l3.09-18.21l11.31,21.85l0.01,0.03l1.09,63.6l0.6,34.62
	l13.37,3.56l11.54-7.66L397.56,827.81z"/>
<path fill="#FFFFFF" stroke="#000000" stroke-miterlimit="10" d="M431.54,882.48c-2.02,1.59-3.93,3.11-5.7,4.52l-38.76,0.24
	l-1.48-36.89C397.29,857.36,415.45,869.12,431.54,882.48z"/>
<path fill="#FFFFFF" stroke="#000000" stroke-miterlimit="10" d="M470.57,757.71v0.01c-20.73,21.72-37.47,49.96-46.16,66.02
	c-15.8-19.47-30.15-32.04-39-38.92l-1.09-63.6l0.56,1.09c0,0-0.24-2.59-0.67-6.97v-0.12c-0.39-4.12-0.94-9.78-1.61-16.33l2.28,5.95
	c0,0,4.69,10.87,3.98,28.34c5.32,0.78,10.27,7.04,12.56,10.38c0,0,0,0,0,0.01c0.86,1.24,1.34,2.08,1.34,2.08l1.25,19.07
	c0,0,1.74,2.58,6.05,8.82c2.59,3.74,6.1,8.8,10.7,15.42c2.35-6.69,7.4-12.4,12.41-16.76c6.75-5.86,13.43-9.26,13.43-9.26
	s0.4-7.13,0.27-13.77c0-0.01,0-0.01,0-0.02c-0.01-1.07-0.04-2.13-0.09-3.14c3.21-10.16,17.47-15.68,17.47-15.68
	s5.17-16.76,5.17-17.29c0-0.08,0.25-0.47,0.67-1.08L470.57,757.71z"/>
<path fill="#FFFFFF" stroke="#000000" stroke-miterlimit="10" d="M460.86,839.22l10.52,6.06v10.03c-5.09,2.39-11.41,6.36-17.98,10.9
	c-9.61-16.79-19.56-30.86-28.99-42.47c8.69-16.06,25.43-44.3,46.16-66.02l0.81,77.58L460.86,839.22z"/>
<path fill="#FFFFFF" stroke="#000000" stroke-miterlimit="10" d="M471.38,855.31v31.41l-34.63,0.21h-0.01
	c-1.7-1.5-3.44-2.99-5.2-4.45c6.64-5.2,14.4-11.11,21.86-16.27C459.97,861.67,466.29,857.7,471.38,855.31z"/>
<path fill="#FFFFFF" stroke="#000000" stroke-miterlimit="10" d="M273.58,559.46v0.01l-15.11,34.52l-0.85,1.81l-22.2,47.14
	l4.55-17.55l12.79-49.34l2.14,1.07l4.99-14.02l12.36-14.02C272.25,549.08,272.75,554.49,273.58,559.46z"/>
<path fill="#FFFFFF" stroke="#000000" stroke-miterlimit="10" d="M316.15,630.88c-18.54,10.52-35.29,34.93-35.29,34.93
	c-1.72-2.68-3.99-4.46-5.77-5.55c1.6-0.95,2.7-1.74,2.92-2.29c-2.38-1.52-9.24-4.83-17.26-6.86c3.35-6.65,33.52-65.25,60.97-77.35
	c5.13,7.9,10.84,16.09,14.03,18.57c0.1-0.04,0.2-0.09,0.31-0.15C339.38,608.25,334.16,620.67,316.15,630.88z"/>
<path fill="#FFFFFF" stroke="#000000" stroke-miterlimit="10" d="M259.1,650.71c-5.98-1.37-12.46-1.94-18.14-0.51l-1.09-5.95
	l-11.58,1.42l-0.97-16.73v-0.01l1.44-10.94l11.21,7.4l-4.55,17.55l22.2-47.14c-0.57,9.55-0.71,20.56,1.32,23.85
	C261.53,623.86,260.2,640.51,259.1,650.71z"/>
<path fill="#FFFFFF" stroke="#000000" stroke-miterlimit="10" d="M243.68,665.01c-3.11-1.64-5.59-2.76-5.59-2.76l-17.25,15.95
	l6.48-49.26l0.97,16.73l11.58-1.42l1.09,5.95L243.68,665.01z"/>
<path fill="#FFFFFF" stroke="#000000" stroke-miterlimit="10" d="M290.97,690.66c-4.13,0.72-8.71,2.94-11.57,4.51
	c-1.94-3.33-5.87-7.01-12.99-7.69h-0.01c-0.46-0.05-0.92-0.08-1.4-0.1c6.3-8.29,9.67-15.34,21.58-11.7
	C288.52,679.87,290.35,685.08,290.97,690.66z"/>
<path fill="#FFFFFF" stroke="#000000" stroke-miterlimit="10" d="M266.25,735.14c-21.75,3.21-19.43-9.08-19.43-9.08
	s-5.17-3.75-7.31-5.54c-0.25-0.21-0.55-0.3-0.89-0.29c-2.96-2.08-5.46-4.67-7.39-7.62c-0.14-0.2-0.27-0.41-0.4-0.62
	c4.35,1.69,12.63,5.13,20.8,7.46c0.03,0,0.05,0.01,0.08,0.01c15.96,2.85,28.79-4.46,28.79-4.46l1.07,1.96
	C281.57,716.96,287.99,731.93,266.25,735.14z"/>
<path fill="#FFFFFF" stroke="#000000" stroke-miterlimit="10" d="M291.2,695.4c-0.36,15.5-10.7,19.6-10.7,19.6
	s-12.83,7.31-28.79,4.46c-0.03,0-0.05-0.01-0.08-0.01c-8.17-2.33-16.45-5.77-20.8-7.46c-3.56-5.75-5.05-12.78-3.85-20.01
	c3.95,3.1,14.25,10.61,26.08,14.64c15.15,5.17,26.91-4.81,27.8-5.88c0.38-0.46,0.11-2.9-1.46-5.57c2.86-1.57,7.44-3.79,11.57-4.51
	C291.15,692.22,291.24,693.8,291.2,695.4z"/>
<path fill="#FFFFFF" stroke="#000000" stroke-miterlimit="10" d="M238.62,720.23c-2.45,0.07-6.67,5.5-7.3,5.82
	c-0.72,0.36-11.59-5.53-14.8-19.07c-2.97-12.56,3.1-25.12,3.99-26.88c0.07-0.14,0.11-0.21,0.11-0.21l0.22-1.69l17.25-15.95
	c0,0,2.48,1.12,5.59,2.76c1.43,0.77,3,1.65,4.51,2.57c-4.26,0.52-10.64,2.99-16.34,11.95c-2.59,4.08-4.18,8.3-4.87,12.45
	c-1.2,7.23,0.29,14.26,3.85,20.01c0.13,0.21,0.26,0.42,0.4,0.62C233.16,715.56,235.66,718.15,238.62,720.23z"/>
<path fill="#FFFFFF" stroke="#000000" stroke-miterlimit="10" d="M279.4,695.17c1.57,2.67,1.84,5.11,1.46,5.57
	c-0.89,1.07-12.65,11.05-27.8,5.88c-11.83-4.03-22.13-11.54-26.08-14.64c0.69-4.15,2.28-8.37,4.87-12.45
	c5.7-8.96,12.08-11.43,16.34-11.95c3.24,1.98,6.24,4.2,7.18,6.07c0.14-3.81,13.61-9.75,19.72-13.39c1.78,1.09,4.05,2.87,5.77,5.55
	c0,0,2.97,3.91,5.72,9.87c-11.91-3.64-15.28,3.41-21.58,11.7c0.48,0.02,0.94,0.05,1.4,0.1h0.01
	C273.53,688.16,277.46,691.84,279.4,695.17z"/>
<path fill="#FFFFFF" stroke="#000000" stroke-miterlimit="10" d="M321.72,573.76c-27.45,12.1-57.62,70.7-60.97,77.35
	c-0.54-0.15-1.09-0.28-1.65-0.4c1.1-10.2,2.43-26.85-0.16-31.06c-2.03-3.29-1.89-14.3-1.32-23.85l0.85-1.81l15.11-34.52
	c0.8,4.74,1.91,9.07,3.18,7.91c1.7-1.54,8.38-11.26,12.87-17.91c3.04,3.69,8.62,8.33,18.5,11.02c1.84,0.5,3.79,0.76,5.81,0.82
	C315.9,564.55,318.71,569.11,321.72,573.76z"/>
<path fill="#FFFFFF" stroke="#000000" stroke-miterlimit="10" d="M278.01,657.97c-0.22,0.55-1.32,1.34-2.92,2.29
	c-6.11,3.64-19.58,9.58-19.72,13.39c-0.94-1.87-3.94-4.09-7.18-6.07c-1.51-0.92-3.08-1.8-4.51-2.57l-2.72-14.81
	c5.68-1.43,12.16-0.86,18.14,0.51c0.56,0.12,1.11,0.25,1.65,0.4C268.77,653.14,275.63,656.45,278.01,657.97z"/>
<path fill="#FFFFFF" stroke="#000000" stroke-miterlimit="10" d="M422.54,634.15v10.9l-13.01-10.07c0,0-1.74,2.25-3.52,4.44
	c-0.52-3.72-1.74-8.22-4.54-9.55c-1.99-0.94-7.97-7.48-14.46-15.05c-6.08-7.09-12.62-15.08-16.78-20.21v-0.01
	c-0.42-6.47-0.9-12.47-1.82-17.57c5.24,4.24,12.9,10.89,16.47,16.25c5.7,8.55,10.69,22.81,23.05,30.65
	C420.29,631.77,422.54,634.15,422.54,634.15z"/>
<path fill="#FFFFFF" stroke="#000000" stroke-miterlimit="10" d="M406.01,639.42c-1.31,1.61-2.62,3.19-3.3,3.83
	c-0.05,0.04-0.09,0.08-0.13,0.11c-1.42,1.24-12.83,1.24-12.83,1.24l-0.08,0.7l-0.81,6.97c0,0,0,0,0,0.01l-0.18,1.59L387.4,652
	l-2.52-3.65c0,0-3.42,13.51-5.45,21.35c-1.79-15.32-3.81-30.56-5.72-40.42c-2.22-11.48-2.76-23.74-3.48-34.67
	c4.16,5.13,10.7,13.12,16.78,20.21c6.49,7.57,12.47,14.11,14.46,15.05C404.27,631.2,405.49,635.7,406.01,639.42z"/>
<path fill="#FFFFFF" stroke="#000000" stroke-miterlimit="10" d="M527.89,559.96l-1.63,27.15c-12.31,8.88-33.4,25.46-33.74,27.08
	c-0.06,0.28-0.38,1.14-0.9,2.42l-31.32,14.07c0.75-6.22,1-13.11,2.34-17.44C476.66,594.76,511.44,570.76,527.89,559.96z"/>
<path fill="#FFFFFF" stroke="#000000" stroke-miterlimit="10" d="M456.93,639.26c-6.93,5.01-20.87,17.97-24.05,42.77
	c-1.33,10.35-1.75,23.79-1.69,37.4c-5.71,4.41-11.06,8.47-11.14,8.22c-0.08-0.24-4.35-3.63-9.26-7.37
	c0.26-29.38,0.22-58.98-0.9-63.38c-1.34-5.24-4.63-10.3-7.18-13.65c0.68-0.64,1.99-2.22,3.3-3.83c1.78-2.19,3.52-4.44,3.52-4.44
	l13.01,10.07l3.57,2.76l26.26-14.66l4.04,6.11H456.93z"/>
<path fill="#FFFFFF" stroke="#000000" stroke-miterlimit="10" d="M538.12,589.11c-3.55,2.73-6.8,5.99-9.48,9.87
	c-6.02,8.71-11.12,15.02-15.14,19.49c-8.42,3.83-22.03,10.19-28.28,13.11v0.01c-2.01,4.59-4.11,9.37-5.87,13.35l-9.76,5.72l0.14-1.3
	l1.11-10.1h-12.32c0.16-0.44,0.31-0.9,0.45-1.38c0.6-2.12,1.01-4.6,1.33-7.2l31.32-14.07c0.52-1.28,0.84-2.14,0.9-2.42
	c0.34-1.62,21.43-18.2,33.74-27.08l-0.71,11.87C525.55,598.98,531.3,594.12,538.12,589.11z"/>
<path fill="#FFFFFF" stroke="#000000" stroke-miterlimit="10" d="M264.47,539.1c0,0-1.04-0.83-2.83-2.33
	c-10.14-8.47-44.46-38.21-52.13-59.22c11.65,17.67,45.99,32.67,58.16,37.56c2.73,1.1,4.34,1.69,4.34,1.69
	C275.1,532.05,264.47,539.1,264.47,539.1z"/>
<path fill="#FFFFFF" stroke="#000000" stroke-miterlimit="10" d="M262.98,555.5c-1.83,0.1-4.12-0.11-6.74-0.67
	c-9.59-2.02-23.57-8.58-35.4-20.72c10.19,9.07,31.68,9.79,38.69,9.78c1.43,0,2.26-0.04,2.26-0.04L262.98,555.5z"/>
</svg>
