<?xml version="1.0" encoding="utf-8"?>
<!-- Generator: Adobe Illustrator 25.2.0, SVG Export Plug-In . SVG Version: 6.00 Build 0)  -->
<svg version="1.1" baseProfile="tiny" id="Layer_1" xmlns="http://www.w3.org/2000/svg" xmlns:xlink="http://www.w3.org/1999/xlink"
	 x="0px" y="0px" viewBox="0 0 1000 1000" overflow="visible" xml:space="preserve">
<path fill="#FFFFFF" stroke="#000000" stroke-miterlimit="10" d="M607.37,123.99c-13.71,23.72-24.98,40.96-34.63,54.5
	c-1.13,1.58-2.23,3.12-3.31,4.6c-3.76,5.15-7.26,9.75-10.56,13.96l-0.01,0.03c-2.11,2.69-4.13,5.24-6.09,7.67
	c-3.99,4.97-7.1,9.86-9.73,14.71c-1.63,2.99-3.07,5.96-4.42,8.94c-1.76,3.83-3.36,7.67-5.02,11.52
	c-2.85,6.64-5.86,13.34-10.06,20.19c-0.46,0.75-0.93,1.5-1.41,2.25c-0.82,1.26-1.62,2.47-2.41,3.63
	c-11.54,16.94-20.08,23.03-31.25,27.56c-11.92,4.83-25.48,7.73-32.56,11.35c-1.4-4.05-8.28-7.26-12.31-8.84
	c-0.5-0.83-0.89-1.53-1.17-2.11c-0.5-1.02-0.66-1.66-0.45-1.83c2.41-1.94,1.69,3.35,22.51,3.62h0.18c0,0,29.46-8.2,46.11-30.67
	c16.66-22.45,9.34-26.55,31.54-58.1c22.21-31.53,20.6-23.16,36.05-44.73C588.16,148.57,598.73,136.45,607.37,123.99z"/>
<path fill="#FFFFFF" stroke="#000000" stroke-miterlimit="10" d="M519.7,266.01c-11.54,16.94-20.08,23.03-31.25,27.56
	c-11.92,4.83-25.48,7.73-32.56,11.35c-1.4-4.05-8.28-7.26-12.31-8.84c4.85,8.14,19.25,27.4,33.54,45.78
	c4.03,5.19,7.77,10.52,11.38,15.45c4.85-0.9,11.59-1.71,17.43-2.46c4.37-0.56,8.22-1.11,10.38-1.66c0.31-3.4,1.43-8.37,2.76-13.14
	c1.9-6.77,4.22-13.15,5.2-14.14c0.6-0.6,2.45-1.41,4.57-2.2c3.87-1.45,8.7-2.87,8.7-2.87l-1.2-8.93c0,0,1.06-0.52,2.59-1.31
	c2.99-1.54,7.81-4.09,10.2-5.68c3.62-2.42,0-4.1-0.97-6.77c5.5-1.31,9.22-3.58,11.9-6.2c2.74-2.68,4.38-5.72,5.72-8.52
	c0.29-0.61,0.7-1.17,1.18-1.69c2.46-2.64,7.01-4.08,9.96-5.34c1.68-0.71,2.85-1.36,2.85-2.14c0-2.03,0.34-5.62,2.48-6.69
	C555.03,273.4,528.82,268.23,519.7,266.01z M535.1,302.12c-0.66,0.38-11.52,6.55-25.31,10.52c2.18,2.18,11.11,1.11,11.11,1.11
	s0.18-0.08,0.31-0.13c-0.43,0.22-2.23,1.04-7.96,3.61c-10.79,4.83-10.2,7.25-7.31,9.41c-5.8,0.73-13.73,0.48-13.73,0.48
	s2.64,0.97,7.95,5.8c-19.56-0.73-36.76-20.28-36.76-20.28s8.51,1.45,15.87,2.66c7.36,1.2,14.84-1.45,11.71-2.69
	c-3.15-1.24-13.76-3.11-4.59-2.61c9.17,0.5,15.93-6.29,19.54-6.46c3.62-0.15,19.8-12.14,29.21-11.17
	c-17.14,11.1-18.83,12.55-18.83,12.55L535.1,302.12z"/>
<path fill="#FFFFFF" stroke="#000000" stroke-miterlimit="10" d="M633.71,137.15c-1.86,3.2-4.2,6.57-6.8,9.96
	c-0.01,0.01-0.01,0.01-0.01,0.01c-8.66,11.34-20.05,22.77-25.14,27.71c0,0,0,0,0,0.01c-1.53,1.49-2.5,2.38-2.64,2.52
	c0.08-0.03,0.45-0.18,1.06-0.45c-1.45,1.38-4.2,3.12-9.27,4.32c-6.92,1.64-16.68,1.86-21.48,1.86c1.08-1.48,2.18-3.02,3.31-4.6
	c7.95-4.06,26.33-15.47,34.9-30.41c1.59-1.52,3.26-3.01,4.97-4.46C617.43,142.17,628.01,138.97,633.71,137.15z"/>
<path fill="#FFFFFF" stroke="#000000" stroke-miterlimit="10" d="M709.98,67.03c-0.11,1.2-2.96,26.83-19.62,46.63
	c-16.57,16.51-52.29,29.63-63.45,33.46c2.6-3.39,4.94-6.77,6.8-9.96c-5.71,1.82-16.28,5.02-21.11,6.48
	c24.49-20.97,59.57-37.06,75.83-50.9C705.26,78.39,709.71,67.67,709.98,67.03z"/>
<path fill="#FFFFFF" stroke="#000000" stroke-miterlimit="10" d="M780.48,56.04c-5.48,4.51-17.71,15.77-21.25,25.75
	c-3.53,9.98-18.01,29.61-34.11,42.17c-18.78,14.33-106.93,50.86-109.68,51.99c4.62-3.52,9.47-7.9,12.47-12.57
	c-6.82,4.46-23.38,11.67-27.74,13.54c1.18-1.1,1.53-1.96,1.58-2.08c0-0.01,0-0.01,0-0.01c5.08-4.94,16.47-16.37,25.14-27.71
	c0,0,0,0,0.01-0.01c11.16-3.82,46.87-16.94,63.45-33.46c45.7-22.21,52.15-27.35,60.52-35.4C759.23,70.21,768.89,59.27,780.48,56.04z
	"/>
<path fill="#FFFFFF" stroke="#000000" stroke-miterlimit="10" d="M767.93,100.79c-6.93,25.56-43.81,45.62-56.35,51.78
	c-0.03,0.01-0.05,0.03-0.08,0.04c-2.33,1.16-3.8,1.81-4.05,1.92c0.1-0.01,0.39-0.05,0.84-0.13c-23.82,12.66-77.74,29.74-91.78,34.09
	c2.34-2.56,4.9-5.62,7.54-9.17c-5.17,3.44-18.01,4.59-20.73,4.79c0.76-0.55,1.25-0.92,1.38-1.02c0.03-0.01,0.04-0.03,0.04-0.03
	c2.31-1.34,6.41-3.86,10.7-7.11c2.75-1.13,90.9-37.66,109.68-51.99C746.36,117.2,753.76,114.94,767.93,100.79z"/>
<path fill="#FFFFFF" stroke="#000000" stroke-miterlimit="10" d="M708.31,154.4c0,0,0,0-0.01,0
	c-23.82,12.66-77.74,29.74-91.78,34.09c-6.22,6.83-10.8,10.14-10.8,10.14s18.18-0.99,20.38-1.63c-0.73,0.79-3.22,4.45-7.13,8.59
	c11.47-1.44,32.4-5.1,45.84-8.82c3.71-1.02,7.78-2.45,11.94-4.05c1.1-0.43,2.2-0.87,3.31-1.32c4.97-2.04,9.92-4.26,14.33-6.33
	c0.52-0.24,1.03-0.48,1.53-0.73c4.27-2.03,7.92-3.86,10.43-5.15c0.24-0.13,0.47-0.24,0.69-0.36c1.01-0.51,1.77-0.92,2.27-1.17
	c0.06-0.03,0.13-0.06,0.19-0.1c0.06-0.04,0.11-0.06,0.17-0.09c0,0,0-0.01,0.01-0.01c0.1-0.05,0.18-0.1,0.23-0.13
	c0.05-0.03,0.08-0.04,0.08-0.04c7.43-4.26,24.14-15.54,37.02-36.92C732.22,150.04,712.66,153.68,708.31,154.4z M626.11,196.99
	c0.11-0.13,0.19-0.18,0.2-0.13C626.32,196.9,626.25,196.94,626.11,196.99z"/>
<path fill="#FFFFFF" stroke="#000000" stroke-miterlimit="10" d="M726.41,203.13c0,0-21.75,24.4-36.05,32.16c0,0,0,0-0.01,0.01
	c-0.01,0-0.04,0.01-0.06,0.04c-0.01,0-0.04,0.01-0.05,0.01c-0.82,0.34-5.34,2.26-12.06,4.59c-0.46,0.15-0.93,0.31-1.4,0.47
	c-1.49,0.51-3.08,1.03-4.76,1.55c-0.56,0.18-1.12,0.34-1.69,0.52c-6.91,2.1-15.02,4.22-23.39,5.59c-17.58,2.89-35.02,1.3-41.98,0.45
	c2.83-2.85,4.83-4.93,5.03-5.15c-0.18,0.11-3.33,2.08-13.76,1.92c0.22-0.08,0.42-0.15,0.62-0.23h0.01
	c8.15-1.78,23.02-12.56,23.02-12.56s-6.06-0.23-20.07-0.01c1.15-0.36,2.15-0.76,2.98-1.21c0.01,0,0.03,0,0.04-0.01
	c3.13-1.32,6.19-3.27,9.03-5.43h0.01c9.15,0.66,32.16,1.61,51.94-3.48c23.79-6.12,39.39-16.26,41.21-17.48
	c-3.21,2.48-5.9,4.33-7.58,5.33C708.7,209.57,726.41,203.13,726.41,203.13z"/>
<path fill="#FFFFFF" stroke="#000000" stroke-miterlimit="10" d="M724.87,236.38c-0.46,0.43-11.73,11.31-25.54,18.93
	c0,0-0.03,0.01-0.08,0.04c-1.52,0.73-26.33,12.49-58.38,15.29c-25.2,2.22-42.69-5.25-49.6-8.93c4.43-3.97,9.81-9.3,13.66-13.19
	c6.96,0.85,24.4,2.45,41.98-0.45c8.37-1.38,16.49-3.49,23.39-5.59c0.57-0.18,1.15-0.34,1.69-0.52c1.68-0.52,3.27-1.04,4.76-1.55
	c0.47-0.15,0.94-0.32,1.4-0.47c6.73-2.33,11.25-4.24,12.06-4.59c-1.41,0.78-2.75,1.36-3.97,1.75c6.04,7.48,14.73,7.96,17.62,6.99
	C706.73,243.13,724.32,236.57,724.87,236.38z"/>
<path fill="#FFFFFF" stroke="#000000" stroke-miterlimit="10" d="M704.1,260.04c-0.5,0.46-15.38,14.13-37.41,22.26
	c-47.02,15.33-81.38-1.18-89.75-5.9c1.68-0.71,2.85-1.36,2.85-2.14c0-2.03,0.34-5.62,2.48-6.69c0.01,0,0.01,0,0.03-0.01
	c0.45-0.09,0.9-0.19,1.35-0.29c1.06,0,4.03-2.34,7.62-5.55c6.91,3.68,24.4,11.15,49.6,8.93c32.04-2.8,56.86-14.56,58.38-15.29
	c-4.18,2.31-8.59,4.31-12.99,5.63C693.55,263.11,703.63,260.17,704.1,260.04z"/>
<path fill="#FFFFFF" stroke="#000000" stroke-miterlimit="10" d="M677.79,284.89c-0.51,0.28-16.05,9.06-33.09,15.63
	c-0.03,0-0.04,0.01-0.06,0.01c-48.02,7.15-71.24-12.14-77.66-18.8c2.46-2.64,7.01-4.08,9.96-5.34c8.37,4.71,42.73,21.23,89.75,5.9
	c-2.03,0.75-4.12,1.47-6.27,2.1C667.97,287,677.35,284.98,677.79,284.89z"/>
<path fill="#FFFFFF" stroke="#000000" stroke-miterlimit="10" d="M621.56,317.23c-27.93-7.19-54.25-21.25-61.48-25.28
	c2.74-2.68,4.38-5.72,5.72-8.52c0.29-0.61,0.7-1.17,1.18-1.69c6.42,6.66,29.65,25.95,77.66,18.8c-1.1,0.42-2.18,0.83-3.29,1.24
	C654.63,306.36,621.56,317.23,621.56,317.23z"/>
<path fill="#FFFFFF" stroke="#000000" stroke-miterlimit="10" d="M621.56,317.22c0,0-0.88,9.49-2.17,11.11
	c-1.29,1.61-8.05,2.09-8.05,2.09c-25.91-3.95-62.2-25.51-62.2-25.51c3.62-2.42,0-4.1-0.97-6.77c5.5-1.31,9.22-3.58,11.9-6.2
	C567.31,295.97,593.64,310.04,621.56,317.22z"/>
<path fill="#FFFFFF" stroke="#000000" stroke-miterlimit="10" d="M625.18,344.74c-1.66,1.67-18.61,4.99-21.94,5.49
	c-34.51-7.85-64.73-28.73-65.66-29.38l-0.03-0.01l-1.2-8.93c0,0,1.06-0.52,2.59-1.31c2.99-1.54,7.81-4.09,10.2-5.68
	c0,0,36.28,21.56,62.2,25.51C611.34,330.42,614.4,343.94,625.18,344.74z"/>
<path fill="#FFFFFF" stroke="#000000" stroke-miterlimit="10" d="M614.57,362.45c-7.25,4.5-17.39,4.98-17.39,4.98
	c-26.55-3.86-68.33-43.72-68.33-43.72c3.87-1.45,8.7-2.87,8.7-2.87l0.03,0.01c0.93,0.65,31.15,21.53,65.66,29.38
	C605.32,350.87,608.4,360.03,614.57,362.45z"/>
<path fill="#FFFFFF" stroke="#000000" stroke-miterlimit="10" d="M607.56,378.31c-0.73,5.8-25.34,4.83-25.34,4.83
	c-40.08-16.18-63.14-43.07-63.14-43.07c1.9-6.77,4.22-13.15,5.2-14.14c0.6-0.6,2.45-1.41,4.57-2.2c0,0,41.77,39.86,68.33,43.72
	C597.17,367.44,594.77,375.4,607.56,378.31z"/>
<path fill="#FFFFFF" stroke="#000000" stroke-miterlimit="10" d="M590.18,397.86c-1.21,4.59-23.66,0-23.66,0
	c-32.83-16.18-50.21-44.67-50.21-44.67c0.31-3.4,1.43-8.37,2.76-13.14c0,0,23.06,26.89,63.14,43.07
	C582.22,383.13,579.31,394.96,590.18,397.86z"/>
<path fill="#FFFFFF" stroke="#000000" stroke-miterlimit="10" d="M579.55,415c-1.92,1.68-22.93-1.45-22.93-1.45
	c-33.79-19.56-50.69-58.69-50.69-58.69c4.37-0.56,8.22-1.11,10.38-1.66c0,0,17.38,28.49,50.21,44.67
	C566.52,397.86,571.11,412.82,579.55,415z"/>
<path fill="#FFFFFF" stroke="#000000" stroke-miterlimit="10" d="M566.04,430.68c-16.65-4.1-14.49-4.83-14.49-4.83
	s-1.91-0.9-5.2-3.11c-2.24-1.5-5.15-3.62-8.51-6.46c-9.25-7.82-22.07-21.16-34.81-42.56c-4.89-3.69-9.59-9.66-14.54-16.41
	c4.85-0.9,11.59-1.71,17.43-2.46c0,0,16.91,39.14,50.69,58.69C556.62,413.54,552.76,421.99,566.04,430.68z"/>
<path fill="#FFFFFF" stroke="#000000" stroke-miterlimit="10" d="M738.64,165.8c-4.01,13.5-22,30.1-33.44,38.96
	c0,0-0.01,0.01-0.05,0.04c-0.03,0.03-0.08,0.05-0.13,0.09c-1.82,1.22-17.43,11.36-41.21,17.48c-19.79,5.08-42.79,4.14-51.94,3.48
	c7.63-5.77,13.5-13.01,13.78-13.36c-0.33,0.18-5.81,3.16-21.71,4.33c6.12-2.73,11.24-7.2,15.02-11.22
	c11.47-1.44,32.4-5.1,45.84-8.82c3.71-1.02,7.78-2.45,11.94-4.05c1.1-0.43,2.2-0.87,3.31-1.32c4.97-2.04,9.92-4.26,14.33-6.33
	c0.51-0.24,1.02-0.48,1.53-0.73c4.27-2.03,7.92-3.86,10.43-5.15c0.24-0.13,0.47-0.24,0.69-0.36c1.01-0.51,1.77-0.92,2.27-1.17
	c-2,1.13-3.17,1.66-3.17,1.66S718.04,180.29,738.64,165.8z"/>
<path fill="#FFFFFF" stroke="#000000" stroke-miterlimit="10" d="M609.97,243.37c-0.2,0.22-2.2,2.29-5.03,5.15
	c-3.85,3.89-9.22,9.21-13.66,13.19c-3.59,3.21-6.56,5.55-7.62,5.55c-0.51,0-0.97,0.1-1.35,0.29c-0.01,0.01-0.01,0.01-0.03,0.01
	c-27.25,5.84-53.46,0.66-62.58-1.55c0.79-1.16,1.59-2.37,2.41-3.63c0.48-0.75,0.96-1.5,1.41-2.25c10.6-1.89,48.99-6.19,72.67-14.83
	h0.01C606.64,245.45,609.79,243.49,609.97,243.37z"/>
<path fill="#FFFFFF" stroke="#000000" stroke-miterlimit="10" d="M619.86,232.51c0,0-14.87,10.78-23.02,12.56h-0.01
	c-0.47,0.11-0.92,0.19-1.34,0.23c0.24,0,0.47,0.01,0.7,0c-23.68,8.64-62.07,12.94-72.67,14.83c4.2-6.85,7.21-13.56,10.06-20.19
	c6.79-1.52,22.63-4.74,34.63-4.65c13.34,0.1,24.93-0.69,31.57-2.79c0.01,0,0.01,0,0.01,0C613.8,232.28,619.86,232.51,619.86,232.51z
	"/>
<path fill="#FFFFFF" stroke="#000000" stroke-miterlimit="10" d="M625.65,212.48c-0.28,0.36-6.15,7.59-13.78,13.36h-0.01
	c-2.84,2.15-5.9,4.1-9.03,5.43c-0.01,0.01-0.03,0.01-0.04,0.01c-1.22,0.51-2.45,0.93-3.67,1.22c0.23,0,0.45-0.01,0.68-0.01
	c-6.64,2.1-18.23,2.89-31.57,2.79c-12-0.09-27.84,3.13-34.63,4.65c1.66-3.85,3.26-7.68,5.02-11.52c4.66-1.2,17.94-4.46,32.27-6.78
	c17.85-2.89,26.54-1.63,33.06-4.83C619.84,215.64,625.32,212.66,625.65,212.48z"/>
<path fill="#FFFFFF" stroke="#000000" stroke-miterlimit="10" d="M626.09,197c-0.73,0.79-3.22,4.45-7.13,8.59
	c-3.78,4.03-8.91,8.5-15.02,11.22c-6.52,3.2-15.21,1.94-33.06,4.83c-14.33,2.32-27.61,5.58-32.27,6.78
	c1.35-2.98,2.79-5.95,4.42-8.94c6.87-2.42,26-9.12,33.07-11.35c8.69-2.74,29.61-9.49,29.61-9.49S623.89,197.64,626.09,197z"/>
<path fill="#FFFFFF" stroke="#000000" stroke-miterlimit="10" d="M624.06,179.32c-2.64,3.55-5.2,6.61-7.54,9.17
	c-6.22,6.83-10.8,10.14-10.8,10.14s-20.92,6.75-29.61,9.49c-7.07,2.23-26.21,8.93-33.07,11.35c2.64-4.85,5.75-9.75,9.73-14.71
	c1.96-2.43,3.97-4.98,6.09-7.67l0.01-0.03c4.06-2.42,10.19-4.7,18.36-3.91c10.73,1.04,22.18-6.27,26.1-9.05
	C606.04,183.9,618.88,182.76,624.06,179.32z"/>
<path fill="#FFFFFF" stroke="#000000" stroke-miterlimit="10" d="M627.92,163.38c-3.01,4.68-7.85,9.06-12.47,12.57
	c-4.29,3.25-8.4,5.77-10.7,7.11c0,0-0.01,0.01-0.04,0.03c-1.18,0.69-1.89,1.06-1.89,1.06s0.18-0.01,0.51-0.04
	c-3.92,2.78-15.38,10.09-26.1,9.05c-8.17-0.79-14.29,1.49-18.36,3.91c3.3-4.22,6.8-8.82,10.56-13.96c4.8,0,14.56-0.22,21.48-1.86
	c5.07-1.2,7.82-2.94,9.27-4.32C604.54,175.05,621.1,167.84,627.92,163.38z"/>
<path fill="#FFFFFF" stroke="#000000" stroke-miterlimit="10" d="M584.14,632.48c-1.2,0.48,17.86-20.75-8.45-39.83
	c-26.31-19.07-34.27-40.07-36.21-47.07c-1.43-5.17-6.43-13.8-12.17-23.02c-2.01-3.24-4.11-6.55-6.18-9.81
	c-7.96-12.55-5.07-29.93-10.14-41.28c-3.2-7.16-13.44-10.77-20.79-12.45c-3.54-3.73-6.74-6.4-10.59-9.27
	c-4.27-3.2-14.56-20.28-19.68-29.06c0.85-2.89,1.67-6.31,1.86-9.33c0.13-1.92,0-3.69-0.52-5.06c-2.04-5.3,16.4,10.91,28.87,20.14
	c2.31,1.71,4.4,3.17,6.13,4.23c11.11,6.77,9.17-6.03,21.98,13.28c0,0,2.89,1.45,4.83,9.41c1.92,7.98,10.61,36.45,14.5,50.94
	c3.89,14.49,11.81,13.03,16.88,25.11c1.49,3.55,2.28,5.94,2.87,8.1c1.44,5.21,1.83,9.21,8.47,25.21c2.22,5.35,4.71,9.75,7.27,13.54
	c0,0.01,0.01,0.01,0.01,0.01c8.22,12.27,17.06,18.37,19.26,31.1C595.25,624.04,585.35,632,584.14,632.48z"/>
<path fill="#FFFFFF" stroke="#000000" stroke-miterlimit="10" d="M519.69,615.35c-15.2-11.34-6.99-28-4.1-38.14
	c2.9-10.13-4.1-52.37-7.72-58.41c-3.62-6.04-5.55-45.38-11.84-53.1c-2.11-2.6-4-4.76-5.82-6.66c7.35,1.68,17.59,5.29,20.79,12.45
	c5.07,11.35,2.18,28.73,10.14,41.28c2.06,3.26,4.17,6.57,6.18,9.81c1.47,46.17-8.89,63.54-11.49,70.58
	C513.18,600.38,516.8,606.42,519.69,615.35z"/>
<path fill="#FFFFFF" stroke="#000000" stroke-miterlimit="10" d="M543.68,445.9c0.32,0.98,0.65,1.96,1.01,2.9
	C544.33,447.86,544,446.88,543.68,445.9z M543.46,445.25c-0.09-0.25-0.17-0.5-0.24-0.75c-3.27-10.52-4.79-22.57-5.37-28.21
	l-0.01-0.01c-2.31-1.96-4.85-4.26-7.55-6.94c-0.67-0.68-1.36-1.37-2.05-2.09c-0.35-0.36-0.7-0.72-1.05-1.1
	c-0.7-0.74-1.42-1.51-2.14-2.31c-6.85-7.55-14.44-17.41-22.01-30.12v-0.01c-3.97-3-7.82-7.49-11.78-12.7
	c-0.91-1.2-1.83-2.44-2.75-3.7h-0.01v-0.01c-2.25-3.08-4.56-6.32-6.96-9.58c-1.43-1.96-2.9-3.92-4.41-5.87
	c-1.34-1.72-2.68-3.45-4.02-5.17c-0.44-0.58-0.88-1.16-1.33-1.74c-0.88-1.15-1.76-2.29-2.64-3.43c-0.43-0.57-0.87-1.15-1.31-1.72
	c-1.29-1.7-2.57-3.39-3.84-5.05c-0.41-0.55-0.83-1.11-1.25-1.66c-3.72-4.94-7.18-9.62-10.18-13.78c-0.66-0.93-1.31-1.83-1.93-2.7
	c-0.61-0.87-1.2-1.71-1.77-2.52c-1.13-1.62-2.14-3.11-3.03-4.45c-0.89-1.34-1.64-2.53-2.25-3.55c-0.49-0.83-0.89-1.53-1.17-2.12
	c0.11,0.55,0.24,1.16,0.37,1.81c0.67,3.62,1.38,8.26,1.38,8.26l-9.37-7.38l-2.58-2.04c0,0,0.12,1.43,0.29,3.48
	c0.33,4.06,0.83,10.57,0.78,13.1c-1.5-3-7.22-6.76-8.67-7.69c0.45,3.63,2.5,17.84,8.67,28.69l3.61-5.55c0,0,0.04,0.87,0.16,2.36
	c0.02,0.27,0.05,0.57,0.07,0.88c0.03,0.31,0.06,0.64,0.09,0.99c0.01,0.17,0.03,0.35,0.05,0.53c0.06,0.55,0.12,1.14,0.18,1.76
	c0.07,0.61,0.14,1.27,0.22,1.95c0.09,0.68,0.18,1.39,0.27,2.12c0.39,2.92,0.92,6.22,1.63,9.56c0,0-0.01,0.01,0,0.01
	c0.42,1.95,0.89,3.91,1.43,5.83c0,0-0.01,0,0,0.01c0.86,3.02,1.88,5.92,3.1,8.45c1,2.08,2.14,3.92,3.43,5.38
	c1.54,1.75,2.98,4.18,4.29,7.03c0.9,0.34,2.02,0.8,3.25,1.35c0.36,0.15,0.72,0.32,1.09,0.5c0.73,0.34,1.5,0.72,2.26,1.14
	c1.34,0.72,2.7,1.53,3.95,2.43c0.89,0.63,1.73,1.31,2.48,2.04c0.15,0.14,0.3,0.29,0.44,0.44c0.86,0.88,1.56,1.81,2.04,2.79
	c0.42,0.86,0.81,1.77,1.18,2.71c1.31,3.3,2.4,7.01,3.8,10.52c0.2,0.5,0.41,1,0.62,1.49c0,0,0,0,0,0.01
	c0.32,0.73,0.66,1.45,1.02,2.16c0,0-0.01,0,0,0.01c0.24,0.47,0.49,0.93,0.75,1.38c0.52,0.9,1.09,1.77,1.72,2.59
	c0.32,0.4,0.65,0.8,0.99,1.17c0.17,0.19,0.35,0.38,0.53,0.56c4.47,4.46,17.99,10.79,25.82,17.67c2.45-0.22,5.02-0.35,7.61-0.35
	c3.72,0,7.48,0.27,10.97,0.96c0.63,0.12,1.26,0.26,1.87,0.42c0.61,0.16,1.21,0.33,1.8,0.51c1.77,0.56,3.43,1.26,4.93,2.13
	c1.24,0.73,2.39,1.57,3.4,2.55c0.4,0.39,0.78,0.8,1.14,1.23c0.53,0.65,1.01,1.35,1.44,2.1c0.14,0.25,0.27,0.51,0.4,0.77
	c1.99,4.1,3.1,7.92,3.71,11.53c-0.09-4.25,1.42-2.82,2.18-1.83c0.08,0.26,0.17,0.52,0.25,0.78c0.07,0.22,0.15,0.43,0.23,0.64
	C543.6,445.69,543.53,445.47,543.46,445.25z"/>
<path fill="#FFFFFF" stroke="#000000" stroke-miterlimit="10" d="M465.38,285.25c0,0-8.38-2.7-16.84-9.05
	c-2.23-1.67-4.46-3.59-6.54-5.78c-0.05-0.05-0.09-0.09-0.14-0.14c-3.22-3.41-7.59-5.73-12.13-7.31c-1.89-0.68-3.81-1.21-5.69-1.66
	c-0.09-0.03-0.19-0.04-0.28-0.06c-1.06,0.06-2.1,0.08-3.11,0.05c-0.08-0.24-0.14-0.48-0.2-0.73c-3.58-0.64-6.82-0.96-9.13-1.16
	c-0.8,2.65-3.38,5.55-3.38,5.55l6.75,7.29l2.9,9.58h-9.78c0,0,1.32,10.05,0.97,11.62c-1.99-7.36-11.44-10.14-12.04-10.31
	c0.65,0.6,1.03,1.33,1.06,2.22c0.03,0.83-0.28,2.29-0.78,4.18c0,0,0,0.03-0.01,0.08c-0.11,0.69-0.65,6.43,10.14,13.92
	c4.17-2,8.43-13.11,8.43-13.11s2.33,14.64,0,23.31c5.48-3.17,7.96-8.57,8.7-10.46v-0.01c0.15-0.41,0.23-0.65,0.23-0.65
	s0.01,0.17,0.05,0.47c0.01,0.11,0.03,0.24,0.05,0.41c1.45,0.93,7.17,4.69,8.66,7.68c0.05-2.52-0.45-9.03-0.78-13.1
	c-0.17-2.05-0.29-3.48-0.29-3.48l2.59,2.04l9.36,7.38c0,0-0.7-4.64-1.38-8.26c-0.13-0.65-0.25-1.26-0.37-1.81
	c-0.5-1.02-0.66-1.66-0.45-1.83c2.41-1.94,1.69,3.35,22.51,3.62c-4.87-2.69-13.29-7.84-17.44-13.4
	C461.88,285.6,465.38,285.25,465.38,285.25z M414.46,266.03c-1.03-0.57-0.76-2.14,0.39-2.38c1.27-0.27,2.84-0.38,4.18,0.14
	C421.47,264.77,418.68,268.38,414.46,266.03z"/>
<path fill="#FFFFFF" stroke="#000000" stroke-miterlimit="10" d="M414.46,266.03c-1.03-0.57-0.76-2.14,0.39-2.38
	c1.27-0.27,2.84-0.38,4.18,0.14C421.47,264.77,418.68,268.38,414.46,266.03z"/>
<path fill="#FFFFFF" stroke="#000000" stroke-miterlimit="10" d="M653.66,457.71c-16.65-0.47-32.83,4.36-45.38,8.71
	c-12.55,4.34-18.1,5.3-21.23,5.3c-1.6,0-7.99,0.99-15.93,1.46c-9.3-4.79-18-9.73-22.22-15.94c-1.61-2.37-3.01-5.27-4.21-8.44
	c-0.36-0.94-0.69-1.91-1.01-2.9c-0.07-0.22-0.15-0.42-0.23-0.64c-0.08-0.26-0.17-0.52-0.25-0.78c-3.26-10.52-4.78-22.56-5.36-28.2
	l0.01,0.01c3.37,2.83,6.26,4.95,8.5,6.45c2.27,11.23,7.28,26.46,18.25,32.81C582.94,466.17,615.52,448.07,653.66,457.71z"/>
<path fill="#FFFFFF" stroke="#000000" stroke-miterlimit="10" d="M461.8,411.37c-0.19,3.02-1.01,6.43-1.86,9.33
	c-1.11,3.75-2.28,6.61-2.28,6.61s-1.41-7.64-3.78-16.19v-0.01c-1.9-6.85-4.42-14.28-7.33-18.79c-1.49-2.32-3.63-4.93-6.05-7.59
	c-4.23-4.65-9.31-9.43-13.21-12.96c-3.63-3.26-6.24-5.44-6.24-5.44s-0.08,2.09,2.33,7.64c-2.22-1.36-4.19-3.03-5.92-4.79
	c-5.89-6-8.88-13.07-8.88-13.07s0.65,5.78,0.17,7.64c-6.43-7.98-8.93-18.19-8.93-18.19s-1.29,1.53-0.56,6.84
	c-2.98-4.59-7.25-19.71-7.25-19.71s-0.8,1.12-2.33,4.5c-0.42-2.74,0.34-9.19,1.04-14.05v-0.01l5.87-6.61c0,0,0.17,4.19,3.06,9.41
	c3.06-5.07,4.66-10.61,4.66-10.61s2.26,12.14,11.43,18.98c2.18-5.8,3.86-17.54,3.86-17.54s7.81,12.55,13.68,15.45l3.62-5.55
	c0,0,1.45,29.46,10.63,39.83c1.54,1.75,2.98,4.18,4.29,7.03C458.27,387.5,461.8,411.37,461.8,411.37z"/>
<path fill="#FFFFFF" stroke="#000000" stroke-miterlimit="10" d="M627.36,572.15c-10.78-2.03-24.59-4.51-35.17-9.19
	c-4.6-2.02-8.57-4.47-11.43-7.48c-5.75-6.05-16.19-13.27-23.44-17.96c-0.58-2.17-1.37-4.55-2.86-8.1
	c-5.07-12.08-13-10.63-16.88-25.11c-3.89-14.49-12.58-42.96-14.5-50.94c-1.94-7.96-4.83-9.41-4.83-9.41
	c-12.81-19.31-10.87-6.51-21.98-13.28c-1.73-1.06-3.82-2.52-6.13-4.23c3.19-0.65,8.09-1.52,13.61-1.99
	c2.45-0.21,5.03-0.35,7.61-0.35c3.72,0,7.48,0.27,10.97,0.96c0.63,0.13,1.25,0.27,1.87,0.42c0.61,0.16,1.21,0.33,1.8,0.51
	c1.77,0.56,3.42,1.26,4.93,2.13c1.24,0.73,2.39,1.57,3.4,2.55c0.4,0.39,0.78,0.8,1.14,1.23c0.53,0.65,1.01,1.35,1.44,2.1
	c0.14,0.25,0.27,0.51,0.4,0.77c1.99,4.1,3.1,7.92,3.71,11.53c0.05,0.31,0.1,0.62,0.14,0.93c1.79,12.14-1.74,21.97,4.85,32.21
	c0.66,1.03,1.42,2.15,2.25,3.33c0.33,0.47,0.67,0.95,1.03,1.44c0.7,0.98,1.45,1.99,2.25,3.04c0.19,0.26,0.39,0.53,0.6,0.8
	c2.82,3.71,6.08,7.76,9.47,11.83c0,0-0.01,0.01,0,0.01c0.96,1.16,1.94,2.32,2.92,3.47c0.48,0.58,0.97,1.16,1.47,1.73v0.01
	c8.15,9.58,16.26,18.43,20.08,22.13c3.31,3.21,7.06,8.44,10.69,13.66c4.58,6.54,9.02,13.03,12.24,15.31
	C614.81,560.31,626.63,564.66,627.36,572.15z"/>
<path fill="#FFFFFF" stroke="#000000" stroke-miterlimit="10" d="M461.27,406.31c0.52,1.36,0.65,3.13,0.52,5.06
	c0,0-3.53-23.86-9.99-37.86c4.1,1.57,12.93,5.45,15.5,10.69c3.38,6.91,4.83,16.8,10.61,22.6c4.47,4.46,17.99,10.79,25.82,17.67
	c-5.52,0.47-10.42,1.34-13.61,1.99C477.67,417.21,459.24,401.01,461.27,406.31z"/>
<path fill="#FFFFFF" stroke="#000000" stroke-miterlimit="10" d="M631.7,604.25c0,0-10.41-12.56-20.54-14.97
	c-1.49-0.36-3.39-0.82-5.58-1.39c-9.08-2.36-23.05-6.45-32.5-11.61c0,0-0.01,0-0.01-0.01c-2.56-3.8-5.06-8.19-7.27-13.54
	c-6.64-16-7.03-20-8.47-25.21c7.25,4.69,17.68,11.91,23.44,17.96c2.85,3.01,6.83,5.45,11.43,7.48c5.47,5.11,11.92,10.66,18.97,15.7
	C631.46,593.14,631.7,604.25,631.7,604.25z"/>
<path fill="#FFFFFF" stroke="#000000" stroke-miterlimit="10" d="M719.57,528.93c-4.1,2.89-18.11,2.41-24.87,8.69
	c-4.45,4.13-21.75,7.73-39.93,9.86h-0.01c-9.47,1.1-19.15,1.8-27.4,1.96c-1.13,0.03-2.26-0.01-3.41-0.09
	c-8.8-0.63-18.49-4.21-27.18-8.45c-3.63-5.22-7.38-10.45-10.69-13.66c-3.82-3.7-11.93-12.55-20.08-22.13
	c3.79,1.65,8.04,3.47,12.09,5.14c1.17,0.49,2.31,0.96,3.43,1.4c2.22,0.91,4.32,1.74,6.17,2.43c0.46,0.18,0.91,0.35,1.34,0.5
	c0.21,0.08,0.43,0.16,0.63,0.23c0.62,0.22,1.2,0.42,1.73,0.6c5.52,1.84,10.04,1.82,17.61,3.41c0.39,0.08,0.78,0.17,1.18,0.26
	c0.01,0,0.01,0,0.01,0c0.4,0.09,0.81,0.18,1.23,0.28c0.01,0,0.01,0,0.01,0c0.42,0.11,0.85,0.21,1.29,0.32
	c0.66,0.17,1.35,0.35,2.06,0.54c0.94,0.26,1.92,0.54,2.95,0.85c0.52,0.16,1.05,0.33,1.59,0.49c2.69,0.86,5.69,1.91,9.05,3.21
	c2.58,0.99,5.37,2.12,8.4,3.44c28.49,12.3,40.07,11.83,45.87,8.93C688.43,534.24,704.36,525.56,719.57,528.93z"/>
<path fill="#FFFFFF" stroke="#000000" stroke-miterlimit="10" d="M514.14,256.63c-3.89-0.38-14.08-0.78-22.84,4.43
	c-11.11,6.6-8.54,14.8-19.95,16.09c-5.86,0.66-15.15-0.08-22.8-0.96c-2.23-1.67-4.46-3.59-6.54-5.78
	c4.27,0.32,10.61,0.52,16.13-0.42c3.68,2.74,13.66,1.43,17.87-1.86c4.34-3.38,15.12-12.7,21.24-12.87
	C502.01,255.14,510.58,256.17,514.14,256.63z"/>
<path fill="#FFFFFF" stroke="#000000" stroke-miterlimit="10" d="M498.7,127.82c-14.97,24.13-9.17,50.69-2.57,61.96
	c6.6,11.26,11.91,29.77,2.89,48.12c-7.87,16.05-22.38,26.88-35.62,30.68h-0.01c-1.89,0.54-3.75,0.93-5.57,1.18
	c0.1,0.09,0.2,0.18,0.32,0.24c-5.52,0.94-11.86,0.74-16.13,0.42c-0.05-0.05-0.09-0.09-0.14-0.14c-3.22-3.41-7.59-5.73-12.13-7.31
	c2.28-0.69,5.49-1.61,7.33-1.9c1.76-0.28,7.58,0,12.21,0.28c0.56,0.11,2.82,0.55,6.14,0.42c0.01,0,0.01,0,0.01,0
	c7.7-0.27,21.2-3.48,33.04-20.18c17.81-25.1,6.54-41.67,1.07-53.27c-5.48-11.58-11.91-50.69,13.35-70.33
	c25.26-19.63,49.89-7.08,49.89-7.08S513.67,103.67,498.7,127.82z"/>
<path fill="#FFFFFF" stroke="#000000" stroke-miterlimit="10" d="M465.86,248.07c-2.57,10.89-16.74,13.24-16.74,13.24
	s0.05,0.01,0.14,0.04c-4.62-0.28-10.45-0.56-12.21-0.28c-1.83,0.29-5.05,1.21-7.33,1.9c-1.89-0.68-3.81-1.21-5.69-1.66
	c-0.01-0.03-0.01-0.05-0.01-0.08c4.5-0.24,9.19-1.17,11.58-3.71c5.35-5.67-1.13-14.71-1.43-15.12c0.48,0.41,10.14,8.71,4.82,16.24
	c6.12-1.77,19.63-1.44,23.81-8.37c4.08-6.75-2.1-20.26-2.4-20.89C460.82,229.78,468.37,237.46,465.86,248.07z"/>
<path fill="#FFFFFF" stroke="#000000" stroke-miterlimit="10" d="M389.59,303.55c-12.14,17.03-26.91,20.27-27.51,20.4
	c-0.01,0-0.03,0-0.03,0c-5.94-0.11-17.7-0.5-28.23-4.29c11.95-0.24,15.85-6.93,23.09-15.45c-1.36,0.28-2.7,0.52-4.01,0.73
	c0,0,21.17-9.56,26.49-17.48C376.92,299.75,389.59,303.55,389.59,303.55z"/>
<path fill="#FFFFFF" stroke="#000000" stroke-miterlimit="10" d="M379.45,287.13c-0.03,0.1-0.05,0.2-0.06,0.31
	c-5.31,7.92-26.49,17.48-26.49,17.48c-28.5,4.65-42.02-4.97-28.17-4.27c14.49,0.73,26.16-15.29,24.22-15.29
	c-0.31,0-1.32,0.17-2.89,0.34c1.2-0.43,20.6-7.47,28.24-15.02C374.3,270.68,372.85,281.99,379.45,287.13z"/>
<path fill="#FFFFFF" stroke="#000000" stroke-miterlimit="10" d="M374.3,270.69c-7.64,7.55-27.05,14.59-28.24,15.02
	c-0.04,0.01-0.06,0.03-0.06,0.03c-8.29,1.03-31.46,2.96-44.68-12.77c15.38,10.63,51.74,1.86,25.59-1.04
	c-0.76-0.09-1.52-0.18-2.24-0.27c4.08,0.34,12.49,0.14,22.27-5.44c7.08-4.04,10.24-7.06,11.66-9.05
	C362.88,265.25,374.3,270.69,374.3,270.69z"/>
<path fill="#FFFFFF" stroke="#000000" stroke-miterlimit="10" d="M358.59,257.17c-1.41,1.99-4.57,5.01-11.66,9.05
	c-9.78,5.58-18.19,5.78-22.27,5.44c-0.04-0.01-0.06-0.01-0.09-0.01c-0.82-0.11-1.62-0.24-2.4-0.34c-0.11-0.03-0.17-0.04-0.17-0.04
	c-22.33-3.66-29.77-13.53-29.77-13.53s10.32,2.96,17.08,2.83c5.63-0.1,10.09-1.96,4.1-4.5c3.78,0.79,9.78,1.31,18.07-0.15
	c14.77-2.61,20.87-10.17,21.37-10.8c-0.42,0.64-3.54,5.87,4.38,8.56C357.52,254.88,357.98,256.05,358.59,257.17z"/>
<path fill="#FFFFFF" stroke="#000000" stroke-miterlimit="10" d="M352.89,245.04c0,0-0.01,0.03-0.04,0.06
	c-0.5,0.64-6.6,8.19-21.37,10.8c-8.28,1.47-14.28,0.94-18.07,0.15l-0.01-0.01c-1.18-0.5-2.8-1.03-4.88-1.58
	c-12.61-3.33-20.15-15.21-20.15-15.21s8.38,5.13,13.4,5.73c4.97,0.6,2.38-0.75,2.71-2.43c7.08,2.75,22.55,5.81,43.89-6.43
	C348.38,236.13,344.21,244.33,352.89,245.04z"/>
<path fill="#FFFFFF" stroke="#000000" stroke-miterlimit="10" d="M348.38,236.13c-21.34,12.24-36.81,9.19-43.89,6.43v-0.04
	c-1.52-0.68-2.94-1.38-4.29-2.08c-0.01-0.01-0.03-0.01-0.03-0.01c-19.81-10.38-22.23-23.38-22.23-23.38s9.89,9.41,12.91,10.63
	c3.02,1.2,5.07-0.24,4.83-2.66c0,0,27.56,7.25,49.38,2.66C345.06,227.68,341.5,236.85,348.38,236.13z"/>
<path fill="#FFFFFF" stroke="#000000" stroke-miterlimit="10" d="M420.45,260.57c-3.58-0.64-6.82-0.96-9.13-1.16
	c-1.66-0.15-2.85-0.24-3.38-0.36c-1.38-0.29-5.99-1.96-10.92-2.18c0.01-0.42,0-0.87-0.03-1.32c-0.08-2.28-0.41-4.94-0.9-7.72
	c-0.46-2.68-1.08-5.45-1.77-8.13c-0.84-3.27-1.78-6.37-2.68-8.89c-0.74-2.09-1.45-3.77-2.05-4.83c-0.24-0.42-0.55-0.92-0.9-1.48
	c-1.67-2.62-4.55-6.61-7.8-10.56c0,0-0.01,0-0.01-0.01c-3.9-4.75-8.34-9.43-11.89-11.61c-7.08-4.34-10.78-8.69-10.78-8.69
	c-9.29-11.59-12.43-26.02-13.12-38.17c-0.41-6.96,0-13.17,0.52-17.7c1.34,7.44,5.52,25.21,16.45,38.21
	c14.17,16.86,22.86,8.77,37.99,32.95C414.66,232.3,415.45,243.38,420.45,260.57z"/>
<path fill="#FFFFFF" stroke="#000000" stroke-miterlimit="10" d="M345.06,227.68c-21.82,4.59-49.38-2.66-49.38-2.66
	c-17.34-11.16-29.66-34.5-30.04-35.23c0.61,0.39,20.32,13.17,23.4,14.47c0,0,17.54,14.96,56.02,13.52
	C345.06,217.78,336.97,226.14,345.06,227.68z"/>
<path fill="#FFFFFF" stroke="#000000" stroke-miterlimit="10" d="M345.06,217.78c-38.48,1.44-56.02-13.52-56.02-13.52
	c-21.12-19.2-21.29-53.95-21.29-53.95s2.59,11.11,6.56,19.31c3.99,8.2,16.94,14.84,19.2,9.38c-1.07-0.96-2.09-1.96-3.03-3.01
	c4.61,4.78,20.8,19.56,53,29.95C343.48,205.94,334.55,215.94,345.06,217.78z"/>
<path fill="#FFFFFF" stroke="#000000" stroke-miterlimit="10" d="M343.48,205.94c-32.19-10.4-48.39-25.17-53-29.95
	c-0.13-0.14-0.25-0.28-0.37-0.38c-0.52-0.56-0.84-0.93-0.97-1.08c-0.04-0.04-0.05-0.06-0.06-0.06c-0.01-0.03-0.01-0.03-0.01-0.03
	c-21.87-25.21-21.3-70.44-21.3-70.44s6.32,20.38,17.77,34.96c0,0,0.05,0.08,0.17,0.22c0.04,0.05,0.08,0.1,0.11,0.15
	c2.74,3.69,25.8,33.9,60.72,55.45c0.47,0.38,1.01,0.78,1.59,1.2C344.08,197.24,339.22,200.52,343.48,205.94z"/>
<path fill="#FFFFFF" stroke="#000000" stroke-miterlimit="10" d="M348.38,195.89c-0.62-0.37-1.24-0.75-1.85-1.12
	c-34.92-21.54-57.98-51.75-60.72-55.45c1.9,2.37,3.92,4.57,6.08,6.51c-26.72-60.5-21.89-95.59-21.89-95.59
	c5.8,35.09,20.93,56.66,37.02,76.29c3.69,4.5,7.52,9.75,11.4,15.31c0,0.01,0.01,0.03,0.01,0.03c10.73,15.36,22.04,33.21,32.82,45.01
	C349.47,187.25,345.9,188.9,348.38,195.89z"/>
<path fill="#FFFFFF" stroke="#000000" stroke-miterlimit="10" d="M422.71,403.89c-2.1,3.53-4.7,7.64-7.54,11.59
	c0-6.48-5.53-15.48-9.1-20.6c-2.61,3.29-5.54,5.81-8.65,6.84c-3.73-8.64-1.94-18.19-1.82-18.8c-0.31,0.34-5.35,5.91-10.73,6.85
	c-4.96-14.27,2.54-21.28,2.89-21.59c-0.27,0.1-3.69,1.63-13.99,9.16c0-5.55,2.29-15.94,7.36-23.77c-4.23,1.57-17.39,0.84-17.39,0.84
	s6.4-11.82,5.92-14.24c-0.48-2.41-14,0.6-16.91-1.33c9.54-3.75,16.18-14.73,11.47-14.84c-0.59-0.01-1.31-0.03-2.15-0.05
	c0.6-0.13,15.36-3.36,27.51-20.4c0.74,1.54,1.44,2.73,2.1,3.63c-1.35,4.66-2.37,8.85-2.29,11.13c1.86-1.02,2.22-1.22,2.28-1.25
	c-0.01,0.15-0.47,2.73-0.97,6.05v0.01c-0.7,4.87-1.47,11.31-1.04,14.05c1.53-3.38,2.33-4.5,2.33-4.5s4.27,15.12,7.25,19.71
	c-0.73-5.31,0.56-6.84,0.56-6.84s2.5,10.22,8.93,18.19c0.48-1.86-0.17-7.64-0.17-7.64s2.99,7.07,8.88,13.07
	c1.73,1.76,3.71,3.43,5.92,4.79c-2.41-5.55-2.33-7.64-2.33-7.64s2.61,2.18,6.24,5.44C425.65,377.95,422.02,392.79,422.71,403.89z"/>
<path fill="#FFFFFF" stroke="#000000" stroke-miterlimit="10" d="M440.5,384.71c-0.29,7.06-1.22,18.94-3.55,24.35
	c-0.43,1.04-0.94,1.83-1.49,2.32c-4.68,4.01-4.99,16.24-4.99,16.24s-3.38-4.66-6.92-18.18c-0.45-1.68-0.7-3.55-0.83-5.55
	c-0.69-11.1,2.94-25.94,4.57-32.13C431.18,375.29,436.27,380.06,440.5,384.71z"/>
<path fill="#FFFFFF" stroke="#000000" stroke-miterlimit="10" d="M453.87,411.11c-6.6,15.34-3.62,33.77-3.62,34.22
	c-0.36-0.56-5.34-15.43-6.12-19.31c-0.55-2.71-4.61-11.53-7.2-16.96c2.33-5.4,3.26-17.29,3.55-24.35c2.42,2.66,4.56,5.27,6.05,7.59
	c2.9,4.51,5.43,11.94,7.33,18.79V411.11z"/>
<path fill="#FFFFFF" stroke="#000000" stroke-miterlimit="10" d="M394.84,270.23c-2.32,0.75-12.92,3.86-20.54,0.46
	c0,0-11.42-5.44-15.71-13.52c0.64-0.92,0.92-1.62,1.01-2.1h0.01c5.62,3.54,10.46,7.52,27.01,5.03c-1.03,0.98-1.91,2.24-2.56,3.86
	c-0.01,0.03-0.03,0.04-0.03,0.04C386.62,263.1,391.78,266.43,394.84,270.23z"/>
<path fill="#FFFFFF" stroke="#000000" stroke-miterlimit="10" d="M348.13,195.97c0.09-0.03,0.17-0.05,0.25-0.08
	c-2.48-6.99,1.08-8.64,2.88-9.01c2.34,2.57,4.66,4.85,6.94,6.75c0,0,3.69,4.34,10.78,8.69c3.54,2.18,7.99,6.85,11.89,11.61
	C374.57,210.86,356.28,201.75,348.13,195.97z"/>
<path fill="#FFFFFF" stroke="#000000" stroke-miterlimit="10" d="M388.68,224.51c-7.15-1.4-26.21-6.06-45.2-18.56
	c-4.26-5.43,0.6-8.7,4.65-9.98c8.15,5.78,26.44,14.89,32.74,17.96c0,0.01,0.01,0.01,0.01,0.01
	C384.13,217.89,387.01,221.88,388.68,224.51z"/>
<path fill="#FFFFFF" stroke="#000000" stroke-miterlimit="10" d="M391.64,230.81c0,0-26.73,5.81-46.58-13.03
	c-10.51-1.83-1.58-11.84-1.58-11.84c19,12.5,38.05,17.16,45.2,18.56c0.36,0.56,0.66,1.06,0.9,1.48
	C390.18,227.04,390.9,228.72,391.64,230.81z"/>
<path fill="#FFFFFF" stroke="#000000" stroke-miterlimit="10" d="M394.31,239.71c-4.97-0.2-30.28,5.35-49.25-12.03
	c-8.09-1.54,0-9.9,0-9.9c19.85,18.84,46.58,13.03,46.58,13.03C392.53,233.34,393.47,236.43,394.31,239.71z"/>
<path fill="#FFFFFF" stroke="#000000" stroke-miterlimit="10" d="M396.08,247.83c0,0-33.01-1.45-47.7-11.71
	c-6.88,0.73-3.33-8.45-3.33-8.45c18.97,17.38,44.28,11.82,49.25,12.03C395,242.38,395.62,245.16,396.08,247.83z"/>
<path fill="#FFFFFF" stroke="#000000" stroke-miterlimit="10" d="M396.99,255.55c-1.38-1.57-25.88,0.1-44.09-10.51
	c-8.69-0.71-4.51-8.92-4.51-8.92c14.69,10.26,47.7,11.71,47.7,11.71C396.58,250.61,396.91,253.27,396.99,255.55z"/>
<path fill="#FFFFFF" stroke="#000000" stroke-miterlimit="10" d="M397.01,256.88c-3.72-0.17-7.61,0.5-10.4,3.22
	c-16.55,2.48-21.39-1.49-27.01-5.03h-0.01c-0.76-0.48-1.54-0.96-2.36-1.4c-7.92-2.69-4.8-7.92-4.38-8.56
	c0.03-0.04,0.04-0.06,0.04-0.06c18.22,10.61,42.72,8.94,44.09,10.51C397.01,256.01,397.03,256.46,397.01,256.88z"/>
<path fill="#FFFFFF" stroke="#000000" stroke-miterlimit="10" d="M433.28,332.19c-5.87-2.9-13.68-15.45-13.68-15.45
	s-1.68,11.75-3.86,17.54c-9.17-6.84-11.43-18.98-11.43-18.98s-1.61,5.54-4.66,10.61c-2.89-5.22-3.06-9.41-3.06-9.41l-5.87,6.61
	c0.5-3.33,0.96-5.9,0.97-6.05c-0.06,0.03-0.42,0.23-2.28,1.25c-0.08-2.28,0.94-6.47,2.29-11.13c1.77-6.1,4.12-13.01,5.31-17.56
	c-0.11,0.69-0.65,6.43,10.14,13.92c4.17-2,8.43-13.11,8.43-13.11s2.33,14.64,0,23.31c5.48-3.17,7.96-8.57,8.7-10.46v-0.01
	c0.15-0.41,0.23-0.65,0.23-0.65s0.01,0.17,0.05,0.47c0.01,0.11,0.03,0.24,0.05,0.41C425.06,307.13,427.11,321.34,433.28,332.19z"/>
<path fill="#FFFFFF" stroke="#000000" stroke-miterlimit="10" d="M397.79,285.36c0.03,0.83-0.28,2.29-0.78,4.18
	c0,0,0,0.03-0.01,0.08c-1.2,4.55-3.54,11.45-5.31,17.56c-0.66-0.9-1.36-2.09-2.1-3.63c0,0-12.66-3.8-10.2-16.1
	c0.01-0.1,0.04-0.2,0.06-0.31C390.32,290.99,397.31,285.28,397.79,285.36z"/>
<path fill="#FFFFFF" stroke="#000000" stroke-miterlimit="10" d="M619.86,101.74c-2.89,17.39-6.12,31.23-12.23,46.35
	c-8.56,14.94-26.95,26.35-34.9,30.41c9.64-13.54,20.92-30.78,34.63-54.5C612.35,116.81,616.69,109.51,619.86,101.74z"/>
<path fill="#FFFFFF" stroke="#000000" stroke-miterlimit="10" d="M411.55,275.39c-6.87-0.98-12.98-0.55-16.94-0.03
	c0.98-0.2,1.82-0.52,2.46-1.11c-0.34-1.29-1.16-2.69-2.23-4.03c-3.06-3.8-8.22-7.12-10.8-6.23c0,0,0.01-0.01,0.03-0.04
	c0.24-0.36,2.56-3.47,8.74-3.01C399.36,261.42,411.15,271.77,411.55,275.39z"/>
<path fill="#FFFFFF" stroke="#000000" stroke-miterlimit="10" d="M397.79,285.36c-0.48-0.08-7.48,5.63-18.35,1.77
	c-6.6-5.15-5.15-16.45-5.15-16.45c7.62,3.4,18.22,0.29,20.54-0.46c1.07,1.34,1.89,2.74,2.23,4.03c-0.64,0.59-1.48,0.9-2.46,1.11
	c-0.01,0.01-0.04,0.01-0.05,0.01c-1.11,0.24-2.38,0.38-3.71,0.65c-0.11,0.03-0.22,0.04-0.31,0.06c-0.37,0.08-0.57,0.13-0.57,0.13
	c-2.13,0.52-4.27,1.52-5.94,3.96c3.91,0.38,10.18,0.69,12.68,2.96c0,0,0.01,0,0.03,0.01C397.39,283.74,397.77,284.47,397.79,285.36z
	"/>
<path fill="#FFFFFF" stroke="#000000" stroke-miterlimit="10" d="M407.81,281.83c0,0,1.32,10.05,0.97,11.62
	c-1.99-7.36-11.44-10.14-12.04-10.31c-0.01-0.01-0.03-0.01-0.03-0.01c-2.5-2.27-8.77-2.57-12.68-2.96c1.67-2.45,3.81-3.44,5.94-3.96
	c0,0,0.2-0.05,0.57-0.13c0.09-0.03,0.19-0.04,0.31-0.06c1.32-0.27,2.6-0.41,3.71-0.65c0.01,0,0.04,0,0.05-0.01
	c3.96-0.52,10.08-0.96,16.94,0.03c-0.41-3.62-12.19-13.96-18.75-14.43c-6.18-0.46-8.5,2.65-8.74,3.01c0.65-1.62,1.53-2.88,2.56-3.86
	c2.79-2.73,6.68-3.39,10.4-3.22c4.93,0.22,9.54,1.89,10.92,2.18c0.52,0.11,1.72,0.2,3.38,0.36c-0.8,2.65-3.38,5.55-3.38,5.55
	l6.75,7.29l2.9,9.58H407.81z"/>
<path fill="#FFFFFF" stroke="#000000" stroke-miterlimit="10" d="M690.5,677.3c-3.33,2.9-6.93,5.63-10.61,8.29
	c-17.61,12.66-54.49,58.87-55.64,60.31c0.85-1.41,28.39-46.68,39.32-54.76c11.11-8.22,18.59-40.81,15.7-36.93
	c-2.9,3.86-23.17,35.48-41.76,45.86c16.73-12.33,27.86-37.18,29.1-50.21c7.78-27.35,1.55-63.41-5.85-75.21
	c-5.16-8.2-25.14-19.33-36.79-25.31c1.15,0.08,2.28,0.11,3.4,0.09c8.26-0.17,17.94-0.87,27.4-1.96h0.01
	c5.68,2.4,11.25,6.19,16.56,11.05c0,0,0.01,0,0.01,0.01c2.94,2.69,5.8,5.69,8.56,8.97c1.94,2.29,3.82,4.73,5.64,7.26
	c1.1,1.5,2.15,3.03,3.2,4.61c16.41,11.26,12.55,20.92,18.66,49.89C712.27,652.26,703.34,666.13,690.5,677.3z"/>
<path fill="#FFFFFF" stroke="#000000" stroke-miterlimit="10" d="M666.6,649.87c0.05-0.51,0.09-0.99,0.1-1.45
	c0.48-12.55-15.93-35.57-18.83-35.89c-2.89-0.32-0.64,11.59,1.29,23.17c1.94,11.58,3.87,33.15-4.43,46.67
	c-8.29,13.52-28.39,32.51-63.47,35.09c-33.77,2.47-40.11-19.51-47.42-43.53c12.91,39.61,46.06,38.27,70.91,33.23
	c25.43-5.15,41.2-50.21,39.91-58.9c-1.29-8.69-20.92-27.03-23.49-36.69c-1.77-6.62-10.37-17.5-15.58-23.67
	c2.19,0.57,4.09,1.03,5.58,1.39c10.13,2.41,20.54,14.97,20.54,14.97s-0.24-11.11-20.54-25.59c-7.05-5.03-13.5-10.59-18.97-15.7
	c10.57,4.68,24.38,7.16,35.16,9.19c-0.73-7.49-12.55-11.84-18.35-15.94c-3.22-2.28-7.66-8.77-12.24-15.31
	c8.69,4.24,18.38,7.82,27.19,8.46c11.66,5.99,31.63,17.11,36.79,25.31C668.15,586.47,674.38,622.52,666.6,649.87z"/>
<path fill="#FFFFFF" stroke="#000000" stroke-miterlimit="10" d="M766.48,624.28c-6.6,4.83-30.74,6.6-40.23-7.24
	c-9.49-13.85-9.01-35.4-11.59-40.55c-2.57-5.16-5.63-19.63-14.32-18.19c-7.75,1.3-9.35,10.24-20.42,9.21
	c-2.76-3.27-5.62-6.28-8.56-8.97c5.69,1.86,12,3.16,15.5,1.41c7.49-3.75,12.8-8.82,15.34-7.73c2.52,1.1,13.28,4.23,16.17,19.31
	c2.89,15.08,7.4,38.42,14.17,44.71C739.28,622.51,757.14,625.57,766.48,624.28z"/>
<path fill="#FFFFFF" stroke="#000000" stroke-miterlimit="10" d="M736.39,685.6c-0.47,0.88-1.21,1.91-2.17,3.04
	c-1.48,1.8-3.47,3.83-5.63,5.91c-4.84,4.69-10.6,9.62-13.77,12.6c-5.47,5.16-6.43,7.4-13.84,20.6s-5.8,5.48-19.96,13.2
	c-14.15,7.72-17.7,22.52-21.8,26.4c-4.1,3.86,2.5,12.23-8.78,27.35c-11.26,15.12-32.5,13.84-35.39,14.8c-2.9,0.97-18.35,6.43-28,7.4
	c-9.66,0.97-23.51-3.54-30.58-14.15c-7.08-10.63,11.26-23.17,14.8-29.94c3.54-6.75-14.8-24.46-14.8-24.46s12.23,5.15,20.92,19.95
	c8.69,14.82-18.35,25.43-16.09,32.19c2.24,6.75,25.42,9.98,34.76,10.29s11.58-7.08,24.81-6.43c13.22,0.64,15.11-10.31,18-17.38
	c2.89-7.08-3.22-3.86-26.07,1.92c16.09-14.15,28.96-15.12,40.55-22.84c11.58-7.73,8.69-20.6,12.87-35.09
	c4.19-14.49,5.16-7.4,13.52-21.24c4.61-7.63,8.34-21.51,10.77-32.44c12.84-11.17,21.77-25.05,16.92-48.03
	c-6.12-28.97-2.25-38.63-18.66-49.89c-1.04-1.58-2.1-3.11-3.2-4.61c8.91,1.97,17.75,4.64,21.23,7.84
	c8.04,7.4,13.84,34.76,15.44,43.76c1.61,9.02,13.52,29.29,17.06,40.88C742.82,678.83,739.28,680.12,736.39,685.6z"/>
<path fill="#FFFFFF" stroke="#000000" stroke-miterlimit="10" d="M710.88,754.39c-6.52,13.52,5.07,13.28,4.1,32.59
	c-0.97,19.3-9.17,40.07,2.41,59.62c11.59,19.54,12.32,45.86-2.17,59.87c-14.49,14-46.83,30.65-114.42,19.3
	c31.6,3.52,78.45-2.65,102.1-15.2c23.66-12.56,21.25-46.83,13.52-58.9c-7.72-12.08-13.34-28.79-7.67-51.18
	c5.68-22.38-14.05,3.86-15.73,11.58c-1.69,7.73,1.2,24.87-11.59,38.39c-10.66,11.26-32.91,21.19-41.55,29.37
	c6.19-7.82,12.01-11.42,11.62-12.23c-0.48-0.97-12.08-9.66-27.05-0.24c-13.56,8.54-18,19.05-18.72,20.94
	c0.57-1.83,2.79-11.4-10.49-16.84c-14.73-6.03-27.68-6.6-38.3-1.77c-10.63,4.83-6.93,13.03-9.99,17.06
	c-3.06,4.03-15.93,17.06-40.07,14.65c-24.14-2.42-30.89-9.17-53.59-9.17s-70.49-9.66-64.21-64.21
	c6.27-54.55,47.79-81.59,56.01-89.32c8.2-7.72,14-54.55-3.87-73.38c-5.98-6.29-10.49-12.18-14.43-17.35
	c-0.62-0.83-1.24-1.64-1.85-2.43c-6.92-9.05-12.4-15.56-21.85-17.71c-15.45-3.54-49.25-2.09-42.97-23.57
	c6.28-21.49,26.07-34.64,7.72-32.11c-18.35,2.52-79.17,85.45-78.68,81.59c0.47-3.86,49.72-77.73,78.21-86.9
	c28.47-9.17,2.41,31.38,1.44,41.52c-0.97,10.13,32.35,6.75,44.42,16.89c12.06,10.14,19.79,25.1,25.58,29.93
	c5.8,4.83,19.31,23.17,18.1,41.52c-1.21,18.35,1.69,31.86-7.96,46.35c-9.66,14.49-36.21,22.21-51.66,68.07
	c-15.45,45.86,16.41,67.6,32.35,70.98c15.93,3.38,34.76,3.38,42,4.83c7.24,1.45,41.32,6.75,55.8,3.86c0,0,14.21-6.28,16.86-19.07
	c2.65-12.79,38.14-19.79,62.27-4.1c21.01-12.31,45.15-13.52,49.97-9.41c17.84-12.92,24.97-32.44,25.95-35.35
	c-1.07,2.88-8.73,21.86-28.12,25.21c-21,3.63-32.11-4.59-58.9-5.54c-26.79-0.97-63.24,4.34-72.17-0.24
	c-8.94-4.59-27.52-29.7-27.52-35.01c0-5.31-6.52-29.93,9.4-32.35c-7.72,4.6-10.56,20.75-6.51,33.07
	c4.05,12.33,18.59,28.97,28.73,28.97c10.13,0,46.35-3.86,63.24-1.69c16.89,2.18,46.59,9.41,55.52,6.28
	c8.93-3.15,30.41-14.24,34.03-27.76c3.63-13.52,9.9-17.14,5.07-20.04c-4.83-2.89-13.76,3.15-24.61,14.49
	c-10.87,11.35-18.59,20.04-35.25,20.52c-16.65,0.47-67.1-3.39-67.1-3.39s53.66,2.88,71.93-1.2c18.28-4.09,37.18-32.83,47.8-37.66
	c10.61-4.83,19.56-26.79,18.83-29.46c-0.73-2.65-17.15,2.18-24.87,5.31c-7.72,3.13-9.17,14.97-9.17,14.97s-4.1-12.79,11.84-21.01
	c15.93-8.2,21.72-4.83,27.99-10.37c6.28-5.55,21.73-17.15,24.38-24.14c2.15-5.68,3.35-18.03,1.54-27.25
	c2.17-2.08,4.15-4.11,5.63-5.91c0.71,10.04,1.48,26.47-0.65,31.71C730.42,728.09,717.39,740.88,710.88,754.39z"/>
<path fill="#FFFFFF" stroke="#000000" stroke-miterlimit="10" d="M358.21,193.64c-2.28-1.9-4.6-4.18-6.94-6.75
	c-10.78-11.8-22.09-29.65-32.82-45.01c0,0-0.01-0.01-0.01-0.03c-0.5-5.02-1.15-14.75-0.79-34.88c3.13,9.33,20.17,36.6,27.44,48.5
	C345.77,167.62,348.92,182.04,358.21,193.64z"/>
<path fill="#FFFFFF" stroke="#000000" stroke-miterlimit="10" d="M535.1,302.12c-0.66,0.38-11.52,6.55-25.31,10.52
	c2.18,2.18,11.11,1.11,11.11,1.11s0.18-0.08,0.31-0.13c-0.43,0.22-2.23,1.04-7.96,3.61c-10.79,4.83-10.2,7.25-7.31,9.41
	c-5.8,0.73-13.73,0.48-13.73,0.48s2.64,0.97,7.95,5.8c-19.56-0.73-36.76-20.28-36.76-20.28s8.51,1.45,15.87,2.66
	c7.36,1.2,14.84-1.45,11.71-2.69c-3.15-1.24-13.76-3.11-4.59-2.61c9.17,0.5,15.93-6.29,19.54-6.46c3.62-0.15,19.8-12.14,29.21-11.17
	c-17.14,11.1-18.83,12.55-18.83,12.55L535.1,302.12z"/>
<path fill="#FFFFFF" stroke="#000000" stroke-miterlimit="10" d="M426.8,647.96c-7.64-0.37-26.49,0.33-42.77,13.81
	c-21.01,17.39-22.61,68.55-57.7,84.17c-35.07,15.61-73.05,10.46-89.79-19.16c-16.74-29.61-23.49-57.28-9.34-74.02
	c13.9-16.42,69.64-34.4,71.71-35.06c-2.23,0.92-62.16,25.84-67.2,48.9c-5.15,23.49,1.94,49.89,13.2,62.12
	c11.26,12.23,28.64,26.55,55.04,21.89c26.38-4.66,45.06-22.52,51.81-37.98c6.77-15.45,14.97-44.74,32.27-55.36
	c17.3-10.63,33.54-13.77,40.92-11.75C425.56,646.32,426.18,647.14,426.8,647.96z"/>
<path fill="#FFFFFF" stroke="#000000" stroke-miterlimit="10" d="M671.29,516.2c0,0-21.78,6.43-42.91,8.56
	c-3.37-1.3-6.37-2.35-9.06-3.2c-0.54-0.16-1.07-0.33-1.59-0.49c-1.03-0.31-2.01-0.6-2.95-0.85c-0.71-0.19-1.4-0.37-2.06-0.54
	c-0.44-0.11-0.87-0.22-1.29-0.32c0,0,0,0-0.01,0c-0.42-0.1-0.83-0.19-1.23-0.28c0,0,0,0-0.01,0c-0.41-0.1-0.8-0.18-1.18-0.26
	c-7.57-1.59-12.09-1.57-17.61-3.41c-0.53-0.18-1.11-0.38-1.73-0.6c-0.2-0.07-0.42-0.15-0.63-0.23c-0.43-0.16-0.88-0.33-1.34-0.5
	c-1.85-0.7-3.95-1.53-6.17-2.43c-1.12-0.44-2.26-0.91-3.43-1.4c-4.05-1.69-8.3-3.51-12.09-5.15c-0.5-0.57-0.99-1.15-1.47-1.73
	c-0.98-1.15-1.95-2.31-2.92-3.47c-0.01,0,0-0.01,0-0.01c-3.37-4.06-6.63-8.11-9.47-11.83c-0.21-0.27-0.41-0.54-0.6-0.8
	c-0.79-1.04-1.54-2.06-2.25-3.04c-0.35-0.49-0.69-0.97-1.03-1.44c-0.83-1.18-1.59-2.3-2.25-3.33c-6.59-10.24-3.06-20.07-4.85-32.21
	c-0.04-0.31-0.09-0.62-0.14-0.93c-0.09-4.25,1.42-2.82,2.18-1.83c0.08,0.26,0.17,0.52,0.25,0.78c0.39,1.21,0.8,2.39,1.24,3.54
	c1.2,3.17,2.6,6.07,4.21,8.44c4.22,6.21,12.92,11.15,22.22,15.94c10.93,5.63,22.69,11.08,28.96,18.19
	c11.58,13.17,16.41,16.08,31.62,20.18C646.91,515.65,671.29,516.2,671.29,516.2z"/>
</svg>
