<?xml version="1.0" encoding="utf-8"?>
<!-- Generator: Adobe Illustrator 25.2.0, SVG Export Plug-In . SVG Version: 6.00 Build 0)  -->
<svg version="1.1" baseProfile="tiny" id="Layer_1" xmlns="http://www.w3.org/2000/svg" xmlns:xlink="http://www.w3.org/1999/xlink"
	 x="0px" y="0px" viewBox="0 0 1000 1000" overflow="visible" xml:space="preserve">
<path fill="#FFFFFF" stroke="#000000" stroke-miterlimit="10" d="M791,364.6c0,0-12.9,1.2-25.8-3.3c-2.6-1.2-5.4-2.6-8.3-4.2
	c-1-0.5-2-1.1-3.1-1.7c0.9,0.7,1.8,1.3,2.7,1.8c-8.5,3.5-18.7,7.7-29.2,12.3c-1.3-0.6-2.6-1.2-3.9-1.9c1.3,0.7,2.5,1.4,3.8,2
	c-11.1,4.7-22.5,9.8-32.6,14.8c-0.4-0.3-0.8-0.5-1.3-0.8c0.3,0.3,0.7,0.6,1,0.9c-8.6,4.2-16.2,8.3-21.8,11.9
	c-0.7-0.7-1.1-1.1-1.2-1.2c0.1,0.1,0.4,0.5,1.1,1.2c-3.2,2.1-5.8,4.1-7.5,5.8c-1.6,1.6-2.4,3.1-2.4,4.3c0.6,0.9,1.2,1.7,1.8,2.4
	c-1.4,3.7-3.6,9.5-6.1,16c-1.8,4.6-3.7,9.6-5.6,14.5c-2.4,6.1-4.8,12.1-6.7,16.8c-1.3,3-2.4,5.6-3.2,7.4c-0.7,1.4-1.2,2.4-1.5,2.9
	c-1.6,2-4.8,1.6-8.8,4.1c-2.7,1.7-5.8,4.6-9,10.6c-1.7,3.2-3.5,7.3-5.2,12.6c-1.1,3.4-2.3,7.3-3.4,11.8c-0.4,1.7-0.8,3.4-1.2,5.3
	c-0.8,0.4-1.8,1-3,1.6c-2.6,1.4-6,3.1-10,5.1c-2,1-4.1,2-6.3,3c-3.1,1.5-6.3,3-9.7,4.4c-2.9,1.3-5.9,2.6-8.9,3.8
	c-3.6,1.5-7.2,2.9-10.8,4.2c-10.9,4-21.6,7.1-30.1,7.9h0c-6.9-3-13.3-4.6-16.7-4.9c-1.2-1-2.6-2-4-2.9c0,0,0,0,0,0
	c-5.9-5.2-8-10.4-8.8-11.5c-0.4-0.6-2.8-3.8-5.7-7.5c8.5-1.9,36.4-8.5,45-15.4c10.2-8.1,15.2-5.1,15.2-5.1s2.4-11.5,7.8-9.8
	c7.4-15.2,19.6-64.3,40.6-94.3c21-30.1,83.2-54.4,107.2-61.2c11.5-0.5,21.7,1,30.5,3.6c0,0,0,0,0,0c8.5,2.5,15.7,6.1,21.7,10
	c2.5,1.6,4.8,3.3,6.9,4.9c0,0,0,0,0,0c0,0,0,0,0,0c6.3,5,10.7,9.9,13.5,13.3c1.1,1.4,1.9,2.5,2.4,3.3
	C790.7,364.2,791,364.6,791,364.6z"/>
<path fill="#FFFFFF" stroke="#000000" stroke-miterlimit="10" d="M800.3,310.2c-0.4,0.6-0.8,1.2-1.2,1.7
	c-21.1,13.7-41,18.5-53.4,20.2c0,0,0,0,0,0c-8.8-2.6-18.9-4.1-30.5-3.6c0,0,60.2-42.9,85.2-52.8c0.8,0.9,1.5,2.5,2,4.4
	C804.8,288.3,804.2,303.6,800.3,310.2z"/>
<path fill="#FFFFFF" stroke="#000000" stroke-miterlimit="10" d="M779.5,367.7c0,0-0.4,0.2-1.2,0.6c0,0,0,0,0,0
	c-5.3,2.4-27.9,11.5-51,1.3c10.6-4.5,20.8-8.8,29.2-12.3c2.8,1.7,5.7,3,8.7,4C773.5,365.3,779.5,367.7,779.5,367.7z"/>
<path fill="#FFFFFF" stroke="#000000" stroke-miterlimit="10" d="M732.8,395.2c-0.2,0.2-3.6,2.5-8.5,5.1c-3.6,1.9-8.1,3.9-12.9,5.3
	c-3.4,1-7,1.7-10.6,1.8c-3.1,0.1-6.3-0.3-9.2-1.3c-9.9-3.5-15.1-6.6-17.8-8.6c-0.5-0.4-0.9-0.9-1.3-1.2c5.6-3.6,13.2-7.7,21.8-11.9
	C713.9,402.3,732.3,395.4,732.8,395.2z"/>
<path fill="#FFFFFF" stroke="#000000" stroke-miterlimit="10" d="M761.9,375.8c0,0-1.9,2.3-5.5,5.2c-3.4,2.8-8.4,6.2-14.5,8.8
	c-12,5-28.5,6.8-47.3-5.4c10.1-4.9,21.5-10,32.6-14.8C744.5,377.8,761.9,375.8,761.9,375.8z"/>
<path fill="#FFFFFF" stroke="#000000" stroke-miterlimit="10" d="M579,551.1c0,0-2.9,0.9-6.1,0.9c-2.4-0.1-5-0.7-6.5-2.9
	c0,0,0,0,0,0c-1.3-6.4-1.6-12.6-1.6-15.8c3.6-1.3,7.2-2.8,10.8-4.2C576,535.8,577.1,547.3,579,551.1z"/>
<path fill="#FFFFFF" stroke="#000000" stroke-miterlimit="10" d="M592.1,551.1c-2,1.7-3.7,2.7-5.1,3.3c-6.1,2.4-8.1-3.3-8.1-3.3
	c-1.9-3.8-2.9-15.4-3.4-22.2c3-1.3,6-2.5,8.9-3.8C585.7,533.6,588.3,548.4,592.1,551.1z"/>
<path fill="#FFFFFF" stroke="#000000" stroke-miterlimit="10" d="M604.7,551.8c-0.3,1.8-2,2.9-4.1,3.2c-3.2,0.5-7.2-0.8-8.4-3.9
	c-3.8-2.7-6.5-17.5-7.7-26c3.4-1.5,6.7-3,9.7-4.4L604.7,551.8z"/>
<path fill="#FFFFFF" stroke="#000000" stroke-miterlimit="10" d="M621.2,543.8c-0.2,0.8-0.5,1.6-0.8,2.3c-1.8,4.6-4.3,6.5-7.5,6.9
	c-2.4,0.3-5.2-0.3-8.3-1.2l-10.5-31.1c2.2-1,4.3-2,6.3-3C606.7,525.4,617.3,538.5,621.2,543.8z"/>
<path fill="#FFFFFF" stroke="#000000" stroke-miterlimit="10" d="M631,536.7c0,0-0.3,1-1,2.3c-1.2,2.1-3.8,4.8-8.8,4.8
	c-3.9-5.3-14.5-18.4-20.8-26.1c4-2,7.4-3.7,10-5.1C615.1,517.7,626.3,530.1,631,536.7z"/>
<path fill="#FFFFFF" stroke="#000000" stroke-miterlimit="10" d="M639.5,525.2c0,1.5-0.3,2.8-0.7,4c-2,5.4-7.7,7.5-7.7,7.5
	c-4.8-6.6-15.9-19-20.6-24.1c1.2-0.6,2.2-1.1,3-1.6c0.4-1.8,0.8-3.6,1.2-5.3C620.9,509.7,635.3,519.2,639.5,525.2z"/>
<path fill="#FFFFFF" stroke="#000000" stroke-miterlimit="10" d="M646.6,514.7c-0.1,1.2-0.2,2.3-0.4,3.3c-0.8,4.3-2.6,6.6-6.8,7.1
	c-4.2-6-18.5-15.5-24.8-19.5c1.1-4.5,2.2-8.4,3.4-11.8C625.8,499,642.5,510.1,646.6,514.7z"/>
<path fill="#FFFFFF" stroke="#000000" stroke-miterlimit="10" d="M651.2,508.1c-0.4,2.8-1.5,5.9-4.6,6.6
	c-4.1-4.6-20.8-15.7-28.5-20.8c1.7-5.2,3.5-9.4,5.2-12.6c6.8,4.8,21.6,15.3,28,22.2C651.3,503.6,651.5,505.7,651.2,508.1z"/>
<path fill="#FFFFFF" stroke="#000000" stroke-miterlimit="10" d="M659.1,493.8c0,7.1-7.8,9.8-7.8,9.8c-6.4-6.9-21.2-17.5-28-22.2
	c3.2-5.9,6.3-8.9,9-10.6C637,475.6,653.1,491.8,659.1,493.8z"/>
<path fill="#FFFFFF" stroke="#000000" stroke-miterlimit="10" d="M698.4,519.1c-0.6,2.7-2.4,5.6-7.2,6.1c-0.7,0.1-1.5,0.1-2.4,0.1
	c-11.7-0.6-29.7-31.4-29.7-31.4c4.1-2.7,4.1-3,6.8-9.5c0.7,0,1.3,0,1.8-0.2h0c2.6,2.2,6.5,6,10.6,12.2
	C685.4,506.9,692.6,518,698.4,519.1z"/>
<path fill="#FFFFFF" stroke="#000000" stroke-miterlimit="10" d="M665.9,484.3c-2.7,6.4-2.7,6.8-6.8,9.5c-6-2-22.1-18.2-26.8-23
	c4-2.5,7.3-2.1,8.8-4.1c0.3-0.5,0.9-1.5,1.5-2.9C648.3,470.3,659.6,482.8,665.9,484.3z"/>
<path fill="#FFFFFF" stroke="#000000" stroke-miterlimit="10" d="M929.4,276.4L929.4,276.4c-32.6,15.3-103.6,29.2-129.1,33.8
	c3.9-6.6,4.5-21.9,2.2-30.1c15.8-6.1,84-30.4,143.3-20.3C947.8,265.3,941,270.9,929.4,276.4z"/>
<path fill="#FFFFFF" stroke="#000000" stroke-miterlimit="10" d="M958,295.6c-4.8,3.5-14.8,6.3-27.6,8.6h0
	c-38,6.9-100.7,9.7-123.5,15.2c0.1-3.7-1.6-7.1-7.8-7.5c0.4-0.5,0.8-1,1.2-1.7c25.5-4.7,96.4-18.5,129.1-33.8h0
	C940.7,280.6,956.7,287.8,958,295.6z"/>
<path fill="#FFFFFF" stroke="#000000" stroke-miterlimit="10" d="M806.9,319.4c-0.1,4.6-3.1,9.7-3.1,9.7
	c-18.3,9.8-30.1,12.3-36.4,12.9c-6-3.9-13.2-7.5-21.7-10c12.4-1.6,32.2-6.4,53.4-20.2C805.3,312.3,807,315.7,806.9,319.4z"/>
<path fill="#FFFFFF" stroke="#000000" stroke-miterlimit="10" d="M801.4,345c-22.8,3.7-26.6,2.2-27.1,2c0,0,0,0,0,0c0,0,0,0,0,0
	c-2.1-1.7-4.4-3.3-6.9-4.9c6.3-0.6,18.2-3.1,36.4-12.9c0,0,1.4,2,1.7,5.1C805.9,337.2,805.3,341.1,801.4,345z"/>
<path fill="#FFFFFF" stroke="#000000" stroke-miterlimit="10" d="M973.6,342.1c-6.9-0.7-14.3-1.5-22.1-2.5
	c-44.1-5.6-100.1-14.6-145.9-5.4c-0.4-3-1.7-5.1-1.7-5.1s3-5.1,3.1-9.7c22.8-5.4,85.5-8.3,123.5-15.2h0
	C942.4,308.7,965.2,320,973.6,342.1z"/>
<path fill="#FFFFFF" stroke="#000000" stroke-miterlimit="10" d="M787.8,360.2c-2.7-3.4-7.2-8.3-13.5-13.3c0.5,0.2,4.4,1.7,27.1-2
	C802.2,349.2,797.2,356.8,787.8,360.2z"/>
<path fill="#FFFFFF" stroke="#000000" stroke-miterlimit="10" d="M951.5,339.6c-0.9,9.4-3.7,25.5-11.7,28.4
	c-4.1,1.4-16.8-2-33.7-6.6c-30.6-8.5-74.7-21.2-104.6-16.4c3.9-3.9,4.5-7.8,4.1-10.8C851.3,325,907.4,334,951.5,339.6z"/>
<path fill="#FFFFFF" stroke="#000000" stroke-miterlimit="10" d="M891.9,382.3c-10.1-0.3-19.4-1.2-23.4-2.2
	c-9.6-2.4-62.6-14.6-78.3-16.7c-0.5-0.8-1.3-1.9-2.4-3.3c9.4-3.4,14.4-11,13.7-15.2c29.9-4.8,74,7.9,104.6,16.4
	c6.1,4.7,15.5,11.4,22.4,13.7C930.8,381.5,910,382.9,891.9,382.3z"/>
<path fill="#FFFFFF" stroke="#000000" stroke-miterlimit="10" d="M903.7,391.7c0,0-32.6-0.2-44.5,0h0c-32.6-19.5-65.3-23-80.9-23.4
	c0.8-0.4,1.2-0.6,1.2-0.6s-6-2.3-14.3-6.3c12.9,4.5,25.8,3.3,25.8,3.3s-0.2-0.4-0.7-1.1c15.8,2.1,68.8,14.3,78.3,16.7
	c3.9,1,13.2,1.9,23.4,2.2L903.7,391.7z"/>
<path fill="#FFFFFF" stroke="#000000" stroke-miterlimit="10" d="M883.4,409.5c-6.2,3.2-24.4,5.5-35.7,6.7
	c-6.1-4.3-15.8-9.9-28.1-16.4c-18.7-9.9-50.3-16.4-63.2-18.8c3.6-2.9,5.5-5.2,5.5-5.2s-17.3,2-34.7-6.2c0,0,0.1,0,0.1-0.1
	c23.1,10.2,45.7,1.1,51-1.3c0,0,0,0,0,0c15.6,0.4,48.3,3.9,80.9,23.4h0C867.4,396.5,875.5,402.4,883.4,409.5z"/>
<path fill="#FFFFFF" stroke="#000000" stroke-miterlimit="10" d="M853.9,424.6c-3.2,2.3-17.8,3.8-29.4,4.1
	c1.2-5.3-16.9-18-40.2-27.3c-16.8-6.7-32.8-10-42.4-11.6c6.1-2.6,11.1-6,14.5-8.8c12.9,2.4,44.5,9,63.2,18.8
	c12.3,6.5,22,12.1,28.1,16.4C853.4,420.2,855.8,423.1,853.9,424.6z"/>
<path fill="#FFFFFF" stroke="#000000" stroke-miterlimit="10" d="M824.4,428.7c-0.2,0.7-0.7,1.4-1.7,1.8c-5.6,2.4-20.5,2.8-28.6,2.8
	c1.5-5.4-6.1-12.7-16.5-17.2c-9.9-4.2-39.5-12.1-53.4-15.7c5-2.6,8.3-4.9,8.5-5.1c-0.5,0.2-18.9,7.1-38.5-10.7
	c0.1,0,0.2-0.1,0.2-0.1c18.8,12.1,35.4,10.3,47.3,5.4c9.6,1.6,25.6,4.9,42.4,11.6C807.5,410.6,825.6,423.4,824.4,428.7z"/>
<path fill="#FFFFFF" stroke="#000000" stroke-miterlimit="10" d="M794.2,433.2c-0.4,1.4-1.4,2.7-3.2,3.8c-5,3-11.8,3-16.4,2.5
	c-2.3-7.8-17.3-17.2-30.5-20.4c-11.5-2.8-25-9.4-32.8-13.4c4.8-1.4,9.3-3.4,12.9-5.3c14,3.6,43.6,11.4,53.4,15.7
	C788,420.5,795.7,427.8,794.2,433.2z"/>
<path fill="#FFFFFF" stroke="#000000" stroke-miterlimit="10" d="M772.9,445.8c-3.8,3.7-10.4,4-16.4,3.3c-3.3-4.1-9.2-8.5-17.6-12.5
	c-13.5-6.6-29.9-21.2-38.2-29c3.5-0.1,7.1-0.8,10.6-1.8c7.7,4.1,21.3,10.6,32.8,13.4c13.3,3.2,28.3,12.6,30.5,20.4
	C775.3,441.8,774.8,443.9,772.9,445.8z"/>
<path fill="#FFFFFF" stroke="#000000" stroke-miterlimit="10" d="M755.6,462.4c-3,2.1-6.2,3-9.3,3.3c-1.5-9.2-19.6-22.2-27.3-26.1
	c-6.8-3.5-20.6-17.1-26.4-23c1.7-2.1,3-4.6,3.7-7.1c-9.3-1.2-18.3-8.2-22.5-12c2.6,2,7.9,5.1,17.8,8.6c2.9,1,6,1.4,9.2,1.3
	c8.3,7.8,24.7,22.4,38.2,29c8.4,4.1,14.3,8.4,17.6,12.5C760.6,454.2,760.5,459,755.6,462.4z"/>
<path fill="#FFFFFF" stroke="#000000" stroke-miterlimit="10" d="M745.9,469.4c-1.2,2.5-4.2,2.4-8,0.9c-9.7-4-24.3-17.5-26-20.9
	c-1.8-3.5-12.1-11.4-17.3-15.3c1.5-5.2,1.4-11-4.5-14.9c0.9-0.7,1.8-1.6,2.6-2.5c5.8,5.9,19.6,19.5,26.4,23
	c7.7,3.9,25.8,16.9,27.3,26.1C746.5,467.1,746.4,468.3,745.9,469.4z"/>
<path fill="#FFFFFF" stroke="#000000" stroke-miterlimit="10" d="M740,482.7c-0.3,0.7-1.2,0.6-2.6-0.1c-8.3-4-33.4-30.1-48.9-37.2v0
	c0.2-0.2,1.7-2.1,3.3-5c1-1.8,2-4,2.7-6.3c5.2,3.8,15.5,11.8,17.3,15.3c1.8,3.4,16.4,16.9,26,20.9
	C739.7,474.8,741.4,480.1,740,482.7z"/>
<path fill="#FFFFFF" stroke="#000000" stroke-miterlimit="10" d="M737.4,482.7c-0.3,3-1.7,6.9-6.4,8.7c-0.1,0-0.1,0-0.2,0.1
	c-7,1.9-35.3-27-47.3-38c5-8.1,5-8.1,5-8.1C704,452.6,729.1,478.6,737.4,482.7z"/>
<path fill="#FFFFFF" stroke="#000000" stroke-miterlimit="10" d="M720.1,505.1c-0.1,0-0.3,0-0.4,0c-5.4-0.7-15.6-14.9-19.8-21.8
	c-3-4.9-13.5-12.6-19.4-16.7c1-2.6,1.6-5.9,1.3-10.2c0.6-1,1.2-1.9,1.7-2.8c12,10.9,40.3,39.9,47.3,38
	C732.2,499.5,725.1,505.4,720.1,505.1z"/>
<path fill="#FFFFFF" stroke="#000000" stroke-miterlimit="10" d="M720.1,505.1c0.2,8-6.6,8.3-11.5,6.4c-1.4-0.6-2.7-1.3-3.5-2.1
	c-4.1-3.8-11-14-15.1-19.8c-3.1-4.5-13-10.4-17.3-12.8c0.3-1.3,0.3-2.1,0.3-2.1s5-1.6,7.5-8c6,4.1,16.4,11.8,19.4,16.7
	c4.3,7,14.4,21.2,19.8,21.8C719.9,505.1,720,505.1,720.1,505.1z"/>
<path fill="#FFFFFF" stroke="#000000" stroke-miterlimit="10" d="M696.3,409.6c-0.7,2.5-2,5-3.7,7.1c-0.8,0.9-1.6,1.8-2.6,2.5
	c-5.7,4.4-14.6,4.1-25.8-10.2c-0.6-0.8-1.2-1.6-1.8-2.4c0-1.2,0.9-2.7,2.4-4.3c1.7-1.8,4.3-3.7,7.5-5.8c0.4,0.3,0.8,0.7,1.4,1.1
	C678,401.4,687,408.4,696.3,409.6z"/>
<path fill="#FFFFFF" stroke="#000000" stroke-miterlimit="10" d="M694.5,434.1c-0.7,2.3-1.7,4.5-2.7,6.3
	c-11.1-3.1-26.8-11.6-33.6-15.4c2.5-6.5,4.7-12.4,6.1-16c11.2,14.3,20.1,14.6,25.8,10.2C695.9,423.1,696.1,428.9,694.5,434.1z"/>
<path fill="#FFFFFF" stroke="#000000" stroke-miterlimit="10" d="M691.8,440.4c-1.6,2.8-3.1,4.8-3.3,5v0c0,0,0,0-5,8.1
	c-0.5,0.8-1.1,1.8-1.7,2.8c-9.1-3.7-24.5-13.7-29.1-16.7c1.9-4.9,3.8-9.9,5.6-14.5C665,428.9,680.7,437.4,691.8,440.4z"/>
<path fill="#FFFFFF" stroke="#000000" stroke-miterlimit="10" d="M680.5,466.5c-2.5,6.5-7.5,8-7.5,8c-3.8-7.3-20.4-15.2-27-18.1
	c2-4.8,4.3-10.7,6.7-16.8c4.6,3,20,13,29.1,16.7C682,460.6,681.5,463.9,680.5,466.5z"/>
<path fill="#FFFFFF" stroke="#000000" stroke-miterlimit="10" d="M673,474.5c0,0-0.1,0.9-0.3,2.1c-0.5,2.5-1.8,6.5-5,7.4h0
	c-0.5,0.2-1.1,0.2-1.8,0.2c-6.2-1.5-17.6-14-23.2-20.5c0.9-1.8,2-4.4,3.2-7.4C652.5,459.3,669.2,467.2,673,474.5z"/>
<path fill="#FFFFFF" stroke="#000000" stroke-miterlimit="10" d="M708.6,511.5c-0.5,4.4-4.2,8-9.6,7.7c-0.2,0-0.4,0-0.6-0.1
	c-5.8-1.1-12.9-12.1-20.1-22.8c-4.1-6.1-8-10-10.6-12.2c3.2-1,4.5-4.9,5-7.4c4.3,2.4,14.2,8.3,17.3,12.8c4.1,5.9,11,16,15.1,19.8
	C705.9,510.2,707.2,510.9,708.6,511.5z"/>
<path fill="#FFFFFF" stroke="#000000" stroke-miterlimit="10" d="M684.6,542c-0.5,0-1-0.2-1.5-0.4c-5.7-2.1-15.3-12.7-21.7-22.5
	c-4.2-6.4-7.9-9.5-10.2-11c0.3-2.4,0.1-4.5,0.1-4.5s7.8-2.7,7.8-9.8c0,0,18,30.9,29.7,31.4c0.9,0,1.6,0,2.4-0.1
	C697.5,535.2,689.3,542.4,684.6,542z"/>
<path fill="#FFFFFF" stroke="#000000" stroke-miterlimit="10" d="M684.6,551.8c-0.2,3-3.8,5.9-8.3,3.9c-2.4-1.1-5-3.5-7.5-8
	c-5.8-10.5-18-24.5-22.5-29.6c0.2-1,0.3-2.1,0.4-3.3c3.1-0.7,4.2-3.9,4.6-6.6c2.3,1.5,6,4.6,10.2,11c6.4,9.8,16,20.4,21.7,22.5
	C683.8,545,684.7,549.3,684.6,551.8z"/>
<path fill="#FFFFFF" stroke="#000000" stroke-miterlimit="10" d="M676.2,555.6c-0.1,4.8-4.5,9.1-10.4,8c-0.4-0.1-0.7-0.2-1.1-0.3
	c-5.7-2.3-11.2-13.9-16.1-22.1c-3.1-5.2-7.2-9.4-10-12c0.5-1.2,0.7-2.5,0.7-4c4.1-0.5,6-2.9,6.8-7.1c4.6,5.1,16.8,19.1,22.5,29.6
	C671.3,552.1,673.9,554.6,676.2,555.6z"/>
<path fill="#FFFFFF" stroke="#000000" stroke-miterlimit="10" d="M663.4,573.8c-1,1.5-3.6,2-6.7,1c-4.2-1.3-9.3-5.1-12.3-12.1
	c-3.9-9.1-11.1-19.2-14.4-23.7c0.8-1.3,1-2.3,1-2.3s5.7-2.1,7.7-7.5c2.8,2.6,6.9,6.8,10,12c4.9,8.2,10.3,19.8,16.1,22.1
	C664.8,567.2,664.6,571.8,663.4,573.8z"/>
<path fill="#FFFFFF" stroke="#000000" stroke-miterlimit="10" d="M656.7,574.8c-0.6,2.7-1.9,7.6-3.9,9.8c-1.2,1.3-4.2,1-7.6-0.1
	c-4.7-1.6-10.2-4.9-12.4-7.8c-3.2-4.1-10-23.9-12.3-30.6c0.3-0.7,0.5-1.4,0.8-2.3c5,0,7.6-2.7,8.8-4.8c3.4,4.5,10.5,14.6,14.4,23.7
	C647.4,569.8,652.5,573.6,656.7,574.8z"/>
<path fill="#FFFFFF" stroke="#000000" stroke-miterlimit="10" d="M645.1,584.5c-1.4,4.2-4.7,5.1-11.5,5.3c-1.7,0-3.8-1.9-5.9-5
	c-5.8-8.4-12.1-25-14.8-31.8c3.2-0.4,5.7-2.2,7.5-6.9c2.3,6.8,9.1,26.5,12.3,30.6C635,579.6,640.4,582.9,645.1,584.5z"/>
<path fill="#FFFFFF" stroke="#000000" stroke-miterlimit="10" d="M627.7,584.8c-1.8,0.6-4.4,1.3-8,1.6c-4.7,0.4-8.7-2.5-11.4-6.5
	c-2.2-3.2-3.5-7-3.7-10.1c-0.2-4.1-2.4-10.4-4.1-14.8c2.1-0.3,3.9-1.4,4.1-3.2c3.1,0.9,5.9,1.5,8.3,1.2
	C615.6,559.8,622,576.4,627.7,584.8z"/>
<path fill="#FFFFFF" stroke="#000000" stroke-miterlimit="10" d="M608.3,580c-2.2,0.5-4.9,0.8-7.6,0.4c-1.6-0.3-3.3-2-4.9-4.6
	c-3.7-6-7-16.1-8.8-21.3c1.5-0.6,3.2-1.6,5.1-3.3c1.2,3.1,5.2,4.4,8.4,3.9c1.7,4.4,3.9,10.7,4.1,14.8
	C604.8,573,606.1,576.8,608.3,580z"/>
<path fill="#FFFFFF" stroke="#000000" stroke-miterlimit="10" d="M595.8,575.7c-3.6,1.3-8.9,2.7-12.1,1.2c-0.8-0.4-1.6-1.3-2.5-2.6
	c-3.3-5.2-6.7-16.4-8.3-22.4c3.1,0.1,6.1-0.9,6.1-0.9s2,5.6,8.1,3.3C588.8,559.6,592.1,569.8,595.8,575.7z"/>
<path fill="#FFFFFF" stroke="#000000" stroke-miterlimit="10" d="M581.2,574.4c-3.9,0.9-5.5-0.9-12.8-6.2c-2.9-2.1-6.4-3.8-9.7-5.1
	c-1.3-3.6-3.4-6.8-6-9.7c4.3,0.8,9.5,0.3,13.3-4.8c0.1,0.2,0.2,0.3,0.3,0.5c0,0,0,0,0,0c1.5,2.2,4,2.9,6.5,2.9
	C574.5,557.9,577.9,569.2,581.2,574.4z"/>
<path fill="#FFFFFF" stroke="#000000" stroke-miterlimit="10" d="M527,601.8c-2.4,5-7.5,9.6-15,13.1c-7,3.2-16,5.2-27,5.5
	c-1.4,0-2.9,0-4.4,0c-1.3,0-2.7-0.1-4.1-0.3c4.3-7.8,9.6-16.8,14.7-24.9c11-17.8,14.4-53.8,14.4-53.8s-14.9,29.4-28.8,37.5
	c-14,8.1-18.9,11.9-20.1,16c-0.6,2.2-1.3,10.8-2.1,19.2c-7.3-2.9-14.8-6.6-21.6-10.6c7.8-1.2,13.3-3.4,13.3-3.4s-7-3.6-12-13.5
	c-5-9.9-12.6-21.9-19.3-21.8c-6.8,0.1-8.8,6.7-8.8,6.7s-0.6,0.8-1.5,2.1c-1-4.7-1.2-9.9-0.9-15.2c0.5-7.8,2.2-15.9,4.6-22.8
	c1.6-4.5,3.4-8.5,5.4-11.8c0,0,0.1-0.1,0.1-0.1c3.9-6.3,9.2-13.6,13.9-20.5c0.2,0,0.3,0,0.4,0c4.9,7.4,14.2,20.7,24.9,33.2
	c4.3-15.1,37.3-34.5,37.3-34.5c0.8,1.6,5.2,7.5,9,12.5c2.8,3.7,5.3,7,5.7,7.5c0.8,1.1,2.9,6.4,8.8,11.5c0,0,0,0,0,0
	c1.1,1,2.4,2,3.8,2.9c0.1,0,0.1,0,0.2,0C543,556.7,531.7,592.1,527,601.8z"/>
<path fill="#FFFFFF" stroke="#000000" stroke-miterlimit="10" d="M488,426.7c-0.3-4.4-0.7-8.2-1.2-10.9c-1.1,0.8-1.7,1.3-1.7,1.3
	c-0.3-1.7-1.1-3.3-2.2-4.7c-2.3-3.1-5.6-5.2-5.6-5.2s0.5-1.6,1.6-3.6c-0.3-0.2-0.5-0.4-0.8-0.6c0,0-3.3,9.7-12,14.8
	c-8.6,5.1-11.8,4.1-18.4,9c-5.8,4.3-8.5,8.2-9.1,9.1c0,0,0,0,0,0c0,0.1-0.1,0.1-0.1,0.1c0,0,0,0,0,0c0.2,9.4,1.2,18.2,1.7,24
	c0.1,1.2,0.2,2.4,0.3,3.6c0,0,0,0,0,0.1c3.5,14.7,2.4,27,2,30.3c2.1-0.1,5.1,0.1,5.7,1.7c3.9,0.2,16.2-0.3,17.1,2.2
	c1.6-0.8,3.9-1.3,5.9-1.6c0-0.9-0.1-1.7-0.1-2.3c-0.6-5.6,5.8-21.4,7.4-26.6C480.1,462.2,488,426.7,488,426.7z M440.5,444.5
	c0.1-1,0.2-2.2,0.3-3.2c0.1-1.4,1.9-2,2.8-0.9c1.3,1.6,2.6,3.7,2.5,5.8C446,450.4,440.3,447.3,440.5,444.5z M476.6,443.6
	c0-1.3,1.7-3.2,3.3-4.7c1.1-1.1,3-0.1,2.8,1.4c-0.2,1.9-0.7,4-1.5,5.4C479.3,448.7,476.6,446.2,476.6,443.6z"/>
<path fill="#FFFFFF" stroke="#000000" stroke-miterlimit="10" d="M490.5,501.7c0,0-33,19.5-37.3,34.5
	c-10.7-12.4-20.1-25.7-24.9-33.2c-0.1-0.1-0.2-0.2-0.2-0.3c4.7-6.9,8.8-13.5,10.5-18.4c2.9-8.3,2.6-14.3,2.1-20.7
	c3.5,14.7,2.4,27,2,30.3c-0.1,0.6-0.1,0.9-0.1,0.9s-4.1,21.2,12.2,24.3c14.5,2.7,16.8-15.1,16.6-22.9c0-0.9-0.1-1.7-0.1-2.3
	c-0.6-5.6,5.8-21.4,7.4-26.6c1.6-5.2,9.5-40.7,9.5-40.7C489.9,452.2,489.4,499.6,490.5,501.7z"/>
<path fill="#FFFFFF" stroke="#000000" stroke-miterlimit="10" d="M506.7,381c-0.4,5-1.6,13.5-4.8,19.1c-3.7,6.5-11.5,12.9-15,15.6
	c-1.1,0.8-1.7,1.3-1.7,1.3c-0.3-1.7-1.1-3.3-2.2-4.7c0,0,0.7-1,1.7-2.8c0.7-1.2,1.5-2.7,2.4-4.6C488.9,400.8,502.4,385.7,506.7,381z
	"/>
<path fill="#FFFFFF" stroke="#000000" stroke-miterlimit="10" d="M478.1,402.9c0,0-3.3,9.7-12,14.8c-8.6,5.1-11.8,4.1-18.4,9
	c-5.8,4.3-8.5,8.2-9.1,9.1c0.9-1.5,7.1-11.3,10.5-13.3c3.7-2.2,7.1-6.6,7.8-7.4c0.4-0.5,0.6-2.2,0.8-3.8c0.5-1.5,0.2-2.5,0.2-2.5
	s-0.1,1.1-0.2,2.5c-0.6,1.6-2.1,3.7-6.1,5.8c-5.4,2.9-10.5,8.1-13.1,11.9c-1.1,1.6-1.8,2.9-1.9,3.8c-0.5,3-6.8,7.8-6.8,7.8
	s2.2-9.8,4.7-14.7c1.7-3.3,5.3-8.2,7.6-11.2c1.1-1.5,1.9-2.5,1.9-2.5c1.3,1,2.3,1.4,2.8,1.1c2.5-1.5,3.3-3.7,3.4-4l0,0l2.6-4.9
	c0.3-0.5,0.2-1,0-1.5c-0.1-0.1-0.1-0.3-0.2-0.4c3.3-2.5,6.8-4,9.6-4.1C467.6,398.3,473.4,399.7,478.1,402.9z"/>
<path fill="#FFFFFF" stroke="#000000" stroke-miterlimit="10" d="M457.7,411.2c-0.2,1.5-0.4,3.3-0.8,3.8c-0.7,0.8-4.1,5.2-7.8,7.4
	c-3.4,2-9.5,11.8-10.5,13.3c0,0,0,0,0,0c0,0.1-0.1,0.1-0.1,0.1c0,0,0,0,0,0c0-2.3-0.1-4.6,0-7c2.7-3.9,7.7-9,13.1-11.9
	C455.6,414.9,457.1,412.8,457.7,411.2z"/>
<path fill="#FFFFFF" stroke="#000000" stroke-miterlimit="10" d="M452.9,404.4l-2.6,4.9l0,0l-0.5,0.9c0,0-0.4-1.7-1.3-4.1
	c-1.4-3.6-3.9-8.6-8-11c-6.7-3.9-9.5-7.6-12.9-23c1.9,7.3,14.4,13.7,17.4,17.9c2.4,3.3,6.1,9.8,7.6,12.4c0.1,0.1,0.2,0.3,0.2,0.4
	C453.2,403.4,453.2,404,452.9,404.4z"/>
<path fill="#FFFFFF" stroke="#000000" stroke-miterlimit="10" d="M566.4,549c-0.1-0.2-0.2-0.3-0.3-0.5c-3.8,5.2-9,5.6-13.3,4.8
	c-4.9-5.4-11.7-9.5-18.1-12.3c8.4-0.7,19.2-3.8,30.1-7.9C564.8,536.4,565.1,542.7,566.4,549z"/>
<path fill="#FFFFFF" stroke="#000000" stroke-miterlimit="10" d="M548,654.1c0,0,2.9,2.9,2.9,6.5c0,3.6-2.3,4.7-5,9.9
	c-2.7,5.2-2.7,18.5-2.7,26.6s-1.4,15.3-1.6,16.5c-0.1,0.6,0.3,7.4,0.8,13.8c-7-1.5-13.4-1.5-17.7-1.2c2.2-6.4,4.8-13.3,4.8-13.3
	s1.1-12.2,2.5-15.8c1.3-3.6,6.1-31.8,5.4-36.3c-0.7-4.5-13.5-27-18.3-36.5c-2-4-4.7-7.2-7.2-9.5c7.5-3.4,12.6-8.1,15-13.1
	c4.7-9.7,16-45-9-65.5c3.4,0.2,9.9,1.8,16.7,4.9h0c6.4,2.8,13.1,6.9,18.1,12.3c2.6,2.9,4.7,6.1,6,9.7c0.6,1.6,1,3.3,1.2,5.1
	c2.5,21.4-9.7,48-9.7,48C551.6,636.7,548,654.1,548,654.1z"/>
<path fill="#FFFFFF" stroke="#000000" stroke-miterlimit="10" d="M543.2,738.8c0,0-21.2,0-21.6-2c-0.2-0.9,1.3-5.6,3-10.6v0
	c4.3-0.3,10.7-0.3,17.7,1.2C542.8,733.2,543.2,738.8,543.2,738.8z"/>
<path fill="#FFFFFF" stroke="#000000" stroke-miterlimit="10" d="M461.8,731.1c-0.4,2.9-0.6,4.8-0.6,4.8s-12.2,11.5-23,5.9
	c-9.4-4.9,0.8-14.3,3.6-16.6c0.4-0.3,0.7-0.5,0.7-0.5S446.2,734.8,461.8,731.1z"/>
<path fill="#FFFFFF" stroke="#000000" stroke-miterlimit="10" d="M487.8,663.1c-8.6,18.9-21.6,37.6-23.2,48c-1,6.6-2.1,14.9-2.8,20
	c-15.6,3.7-19.3-6.5-19.3-6.5s-0.2,0.2-0.7,0.5c0.9-2.2,2.3-5.4,4-9c9,1.1,13-6,13-6l0-9.1l0-2.9c0,0-0.1-2.9,0-5.9c0,0,0,0,0,0
	c4.4-8,7.1-15.2,8.1-20.2c0.7-3.9-0.6-15.6-1.6-23.5c0.8-3.2,1.4-6.2,1.8-8.5c0.6-3.2,4.4-10.9,9.5-20.1c1.4,0.2,2.8,0.3,4.1,0.3
	c1.5,0,3,0,4.4,0C484.1,629.7,483,650.5,487.8,663.1z"/>
<path fill="#FFFFFF" stroke="#000000" stroke-miterlimit="10" d="M505.6,541.2c0,0-3.4,36-14.4,53.8c-5.1,8.2-10.3,17.1-14.7,24.9
	c-5.1,9.2-8.9,17-9.5,20.1c-0.4,2.3-1.1,5.4-1.8,8.5c-1.2,4.8-2.6,9.9-4.1,13.1c-1.9,6.8-2.2,27.6-2.3,30.6c0,0,0,0,0,0
	c-0.1,3,0,5.9,0,5.9l0,2.9c-2.8,2.9-5.4,4.3-7.8,4.7c-8.3,1.3-13.5-9.6-13.5-9.6c5.2-9.2,13.1-35.6,9.7-39.9
	c-4.2-5.3,4.1-20.5,5.4-25.5c0.6-2.3,1.3-9.5,2-16.8c0.8-8.4,1.5-17.1,2.1-19.2c1.1-4.1,6.1-7.9,20.1-16
	C490.7,570.6,505.6,541.2,505.6,541.2z"/>
<path fill="#FFFFFF" stroke="#000000" stroke-miterlimit="10" d="M458.7,701.1l0,9.1c0,0-4,7.1-13,6c-0.6-0.1-1.3-0.2-1.9-0.4
	c-7.7-1.8-7.4-11.8-6.8-16.7c0.2-1.7,0.5-2.9,0.5-2.9s5.2,10.9,13.5,9.6C453.3,705.5,455.9,704.1,458.7,701.1z"/>
<path fill="#FFFFFF" stroke="#000000" stroke-miterlimit="10" d="M446.3,600c0,0-5.5,2.2-13.3,3.4c-2.1,0.3-4.4,0.6-6.8,0.6
	c-11.3,0.5-19.6,2-19.6,2s-3.2,25.2-0.9,32.2c2.2,7-0.7,18.5-0.7,18.5s3.9,4.3,5.6,9.3c0,0,0,0,0,0.1c0.1,0.5,0.4,2.2,0.6,4.7
	c0,0.3-0.1,0.7-0.1,1c0,0-4.1,9.5-14.4,9c-10.4-0.4-10.8-11.7-10.8-11.7l3.6-10.8c0,0,4.1-32.7,1.6-46.9
	c-2.5-14.2-5.9-18.9-0.4-22.5c4.1-2.7,11-11.5,14-15.5c1-1.3,1.5-2.1,1.5-2.1s2-6.6,8.8-6.7c6.8-0.1,14.3,11.9,19.3,21.8
	C439.3,596.3,446.3,600,446.3,600z"/>
<path fill="#FFFFFF" stroke="#000000" stroke-miterlimit="10" d="M410.5,688.3c-11.7,11.1-23.5,2.7-24.6,0c-1.1-2.7,0-19.2,0-19.2
	s0.4,11.3,10.8,11.7c10.4,0.5,14.4-9,14.4-9c0.1-0.3,0.1-0.7,0.1-1C411.7,675.3,411.9,682,410.5,688.3z"/>
<path fill="#FFFFFF" stroke="#000000" stroke-miterlimit="10" d="M471.3,496.3c-2,0.3-4.3,0.8-5.9,1.6c-0.8-2.5-13.2-2-17.1-2.2
	c-0.5-1.5-3.6-1.7-5.7-1.7c-0.1,0.6-0.1,0.9-0.1,0.9s-4.1,21.2,12.2,24.3C469.2,521.9,471.4,504.1,471.3,496.3z M446.7,508.5
	c-3.5-1.7-3.2-9.3-1.4-9.3C447.2,499.2,450.2,510.2,446.7,508.5z M464.3,509.3c-2.2-1.2,0.6-9.8,2.6-8.5
	C468.9,502.2,466.5,510.5,464.3,509.3z"/>
<path fill="#FFFFFF" stroke="#000000" stroke-miterlimit="10" d="M464.3,509.3c-2.2-1.2,0.6-9.8,2.6-8.5
	C468.9,502.2,466.5,510.5,464.3,509.3z"/>
<path fill="#FFFFFF" stroke="#000000" stroke-miterlimit="10" d="M446.7,508.5c-3.5-1.7-3.2-9.3-1.4-9.3
	C447.2,499.2,450.2,510.2,446.7,508.5z"/>
<path fill="#FFFFFF" stroke="#000000" stroke-miterlimit="10" d="M506.7,380.9c0,0,0,0.1,0,0.1c-4.2,4.7-17.8,19.7-19.7,23.8
	c-0.9,1.9-1.7,3.5-2.4,4.6c-1,1.8-1.7,2.8-1.7,2.8c-2.3-3.1-5.6-5.2-5.6-5.2s0.5-1.6,1.6-3.6c1.5-2.6,4.1-5.8,8.3-7.4
	C493.5,393.7,503.3,384.4,506.7,380.9z"/>
<path fill="#FFFFFF" stroke="#000000" stroke-miterlimit="10" d="M450.3,409.3c-0.1,0.3-0.9,2.4-3.4,4c-0.5,0.3-1.5-0.1-2.8-1.1
	c-0.1-0.1-0.2-0.1-0.3-0.2c-5.1-4.4-14.2-18.8-16.1-39.8c3.4,15.4,6.2,19.1,12.9,23c4.1,2.4,6.6,7.4,8,11c0.9,2.3,1.3,4.1,1.3,4.1
	L450.3,409.3z"/>
<path fill="#FFFFFF" stroke="#000000" stroke-miterlimit="10" d="M482.7,440.4c-0.2,1.9-0.7,4-1.5,5.4c-1.8,2.9-4.5,0.4-4.5-2.1
	c0-1.3,1.7-3.2,3.3-4.7C481,437.9,482.8,438.8,482.7,440.4z"/>
<path fill="#FFFFFF" stroke="#000000" stroke-miterlimit="10" d="M446.2,446.2c-0.2,4.2-5.9,1.1-5.7-1.7c0.1-1,0.2-2.2,0.3-3.2
	c0.1-1.4,1.9-2,2.8-0.9C445,442,446.3,444.1,446.2,446.2z"/>
<path fill="#FFFFFF" stroke="#000000" stroke-miterlimit="10" d="M427.7,503c-4.7,7-10,14.2-13.9,20.5c0,0-0.1,0.1-0.1,0.1
	c-2-0.7-5-1.7-8.7-3c-2.3-0.8-4.8-1.7-7.5-2.6c-2-0.7-4-1.5-6.1-2.2c-3.2-1.2-6.4-2.4-9.6-3.7c-2.9-1.2-5.7-2.3-8.4-3.5
	c0,0-0.1,0-0.1-0.1c-2.5-1.1-5-2.9-7.4-5.3c-2.6-2.5-5-5.6-7.4-9.1c-2.4-3.5-4.8-7.5-7-11.7c-2.1-4-4.2-8.1-6.1-12.3
	c-1.9-4.1-3.7-8.2-5.4-12.2c-1.7-4.1-3.4-8-4.9-11.7c-0.9-2.3-1.8-4.4-2.7-6.5c-0.6-1.4-1.3-2.9-2-4.6c-1.4-3.2-3-6.8-4.7-10.6
	c-1.7-3.6-3.5-7.5-5.5-11.4c-1.3-2.6-2.6-5.2-4-7.9c-1.9-3.7-4-7.4-6.1-11c-1.4-2.5-2.9-4.9-4.4-7.2c-2.8-4.3-5.7-8.4-8.7-12.1
	c-3.1-3.9-6.3-7.3-9.6-10c-2.9-2.5-5.9-4.4-8.8-5.5c0,0,0,0,0,0c-0.3-0.1-0.5-0.2-0.8-0.3c-3-1.1-5.5-2.2-7.6-3.2
	c-4.4-2.2-7.1-4.5-8.8-6.5c-3.3-3.8-2.8-6.9-2.6-7.7c0-0.1,0.1-0.2,0.1-0.2s40.6,5.9,67.6,24.3c27.1,18.5,70.3,113.2,77,125.3
	C408.9,500.9,422.5,502.7,427.7,503z"/>
<path fill="#FFFFFF" stroke="#000000" stroke-miterlimit="10" d="M261.5,349.5c-23.4,0-71.9-15.8-83.4-25.7
	c-0.4-0.4-0.8-0.7-1.2-1.1c-2.3-2.5-3.8-5.2-4.8-8c-2.1-5.7-1.8-11.3-0.5-14.3c0.8-1.9,2.1-2.7,3.5-1.6c3.6,2.9,60.8,31.5,83.8,43
	C258.7,342.6,258.2,345.7,261.5,349.5z"/>
<path fill="#FFFFFF" stroke="#000000" stroke-miterlimit="10" d="M278.7,359.5c-12.3,3.9-42.3,12.8-59.7,12.9
	c-1.7,0-3.2-0.1-4.6-0.2c-4.1-0.5-7.5-2-10.2-4.2c0,0,0,0,0,0c-2.8-2.2-4.9-5-6.5-8c-2.2-4.1-3.4-8.5-4.1-11.9
	c18.1,9.8,58.4,11.5,76.7,7.9c2.1,1.1,4.6,2.2,7.6,3.2C278.2,359.3,278.4,359.4,278.7,359.5z"/>
<path fill="#FFFFFF" stroke="#000000" stroke-miterlimit="10" d="M270.3,356c-18.3,3.6-58.7,1.9-76.7-7.9c-0.4-1.8-0.6-3.4-0.7-4.5
	c-2-0.2-4-0.2-5.9-0.2c-2.5-2.3-4.3-4.6-5.6-6.8c-2.8-4.7-3.4-9.3-3.3-12.7c11.5,9.9,60,25.7,83.4,25.7
	C263.2,351.5,265.9,353.7,270.3,356z"/>
<path fill="#FFFFFF" stroke="#000000" stroke-miterlimit="10" d="M287.5,365c-9.6,5.3-28.5,14.6-44.3,16.3c-1.3,0.1-2.5,0.2-3.7,0.2
	c-10.4,0.1-16.4-4.2-19.7-8.1c-0.3-0.3-0.6-0.7-0.8-1c17.4-0.1,47.4-9,59.7-12.9c0,0,0,0,0,0C281.6,360.7,284.5,362.6,287.5,365z"/>
<path fill="#FFFFFF" stroke="#000000" stroke-miterlimit="10" d="M297,375c-8.8,5-25.3,13.8-36.2,16.9c-3.4,0.9-6.2,1.3-8.2,0.9
	c-1.2-0.3-2.3-0.7-3.4-1.1c-3.9-1.8-6.5-4.7-8.2-7.3c-0.7-1-1.2-2-1.6-2.8c1.2,0,2.4-0.1,3.7-0.2c15.7-1.6,34.7-11,44.3-16.3
	C290.7,367.8,293.9,371.2,297,375z"/>
<path fill="#FFFFFF" stroke="#000000" stroke-miterlimit="10" d="M305.7,387.2c-5.2,3.4-14.9,9-23.7,10.8c-1.5,0.3-2.9,0.5-4.3,0.5
	c-3.9,0.1-7.2-0.6-9.8-1.7c-3.2-1.3-5.5-3.2-7-4.8c10.9-3.1,27.4-11.9,36.2-16.9C300,378.7,302.9,382.8,305.7,387.2z"/>
<path fill="#FFFFFF" stroke="#000000" stroke-miterlimit="10" d="M310.1,394.4c-5.9,2.9-10.3,9-16.4,10.4c-0.8,0.2-1.6,0.2-2.3,0.2
	c-1.5-0.1-2.9-0.7-4.1-1.5c-2.2-1.4-3.9-3.6-5.2-5.6c8.8-1.7,18.5-7.4,23.7-10.8C307.2,389.5,308.7,391.9,310.1,394.4z"/>
<path fill="#FFFFFF" stroke="#000000" stroke-miterlimit="10" d="M316.2,405.4c-3.4,3.3-10.2,8.7-17.3,8.1c0,0-0.1,0-0.1,0
	c-2-0.2-3.5-0.9-4.7-1.9c-1.8-1.7-2.6-4.1-2.9-6.5c0.7,0.1,1.5,0,2.3-0.2c6.1-1.4,10.6-7.5,16.4-10.4
	C312.3,398,314.3,401.7,316.2,405.4z"/>
<path fill="#FFFFFF" stroke="#000000" stroke-miterlimit="10" d="M320.3,413.2c-4.2,2.8-12.7,8.2-16.8,8.5c-0.1,0-0.2,0-0.3,0
	c-1.8,0-2.9-1.4-3.5-3.1c-0.6-1.6-0.7-3.6-0.8-5.2c0,0,0.1,0,0.1,0c7.1,0.6,13.8-4.7,17.3-8.1C317.6,408,319,410.6,320.3,413.2z"/>
<path fill="#FFFFFF" stroke="#000000" stroke-miterlimit="10" d="M325.7,424.7c-4,3.1-10.6,7.6-15,8.4c-0.5,0.1-1,0.1-1.4,0
	c-1.7-0.3-3-1.9-3.9-3.8c-1.1-2.4-1.7-5.3-2-7.5c4.1-0.2,12.7-5.7,16.8-8.5C322.2,417.2,324.1,421,325.7,424.7z"/>
<path fill="#FFFFFF" stroke="#000000" stroke-miterlimit="10" d="M330.5,435.3c-3.4,3.2-9.9,8.6-14.5,8.9c-0.5,0-1,0-1.4-0.1
	c-2.2-0.5-3.5-2.3-4.2-4.5c-0.7-2.1-0.9-4.6-1-6.5c0.4,0.1,0.9,0.1,1.4,0c4.4-0.7,10.9-5.3,15-8.4
	C327.5,428.5,329.1,432.1,330.5,435.3z"/>
<path fill="#FFFFFF" stroke="#000000" stroke-miterlimit="10" d="M335.1,446.3c-2.6,3.2-7,7.6-12.5,7.6c-0.1,0-0.2,0-0.3,0
	c-3.1-0.1-4.7-2-5.5-4.4c-0.6-1.7-0.8-3.7-0.8-5.3c4.6-0.3,11.1-5.7,14.5-8.9c0.7,1.6,1.4,3.2,2,4.6
	C333.3,441.8,334.2,444,335.1,446.3z"/>
<path fill="#FFFFFF" stroke="#000000" stroke-miterlimit="10" d="M340,458c-2.5,3.2-6.1,6.2-10.5,5.7c0,0,0,0-0.1,0
	c-1.2-0.1-2.2-0.5-3-1c-2.3-1.4-3.3-3.9-3.8-6.5c-0.1-0.8-0.2-1.6-0.3-2.4c0.1,0,0.2,0,0.3,0c5.5,0,9.9-4.3,12.5-7.6
	C336.7,449.9,338.3,453.9,340,458z"/>
<path fill="#FFFFFF" stroke="#000000" stroke-miterlimit="10" d="M345.4,470.2c-1.7,1.9-4.2,3.6-7.9,4c-0.1,0-0.2,0-0.2,0
	c-3.1,0.2-5-1.5-6.1-3.8c-1-2-1.5-4.5-1.7-6.7c4.5,0.4,8-2.5,10.5-5.7C341.7,462,343.5,466.1,345.4,470.2z"/>
<path fill="#FFFFFF" stroke="#000000" stroke-miterlimit="10" d="M351.5,482.5c-2.2,2-5,3.8-8.3,3.6c-0.1,0-0.2,0-0.2,0
	c-3.2-0.3-4.6-3-5.2-6c-0.4-2.1-0.5-4.2-0.4-5.9c0.1,0,0.2,0,0.2,0c3.7-0.4,6.2-2.1,7.9-4C347.3,474.3,349.4,478.5,351.5,482.5z"/>
<path fill="#FFFFFF" stroke="#000000" stroke-miterlimit="10" d="M358.5,494.2c-1.7,1-3.9,2.2-6.7,3.7c-0.8,0.5-1.6,0.7-2.3,0.7
	c-3.1,0.2-4.8-3.4-5.6-7.2c-0.4-1.9-0.6-3.8-0.7-5.3c3.3,0.2,6.2-1.6,8.3-3.6C353.8,486.7,356.1,490.6,358.5,494.2z"/>
<path fill="#FFFFFF" stroke="#000000" stroke-miterlimit="10" d="M366,503.3c-1.9,1.8-4.6,3.9-7.8,5.4c-0.2,0.1-0.4,0.2-0.7,0.2
	c-2.9,0.9-5-1.8-6.4-5.2c-0.7-1.7-1.2-3.5-1.6-5.1c0.7,0,1.5-0.3,2.3-0.7c2.7-1.5,4.9-2.7,6.7-3.7
	C360.9,497.7,363.4,500.8,366,503.3z"/>
<path fill="#FFFFFF" stroke="#000000" stroke-miterlimit="10" d="M373.4,508.6c-1.3,3.1-3.6,7-7.6,9.4c-0.1,0-0.1,0.1-0.2,0.1
	c-3.1,1.8-5.1-0.2-6.4-3.1c-0.8-1.9-1.4-4.2-1.7-6.1c0.2-0.1,0.4-0.1,0.7-0.2c3.2-1.5,5.9-3.6,7.8-5.4
	C368.4,505.7,370.8,507.5,373.4,508.6z"/>
<path fill="#FFFFFF" stroke="#000000" stroke-miterlimit="10" d="M381.9,512.1c-1,3.6-2.7,8.4-5.1,12.1c0,0.1-0.1,0.1-0.1,0.2
	c-2.4,3.7-5.8,0.8-8.4-2.8c-0.9-1.2-1.7-2.5-2.4-3.7c3.9-2.4,6.3-6.3,7.6-9.4c0,0,0.1,0,0.1,0.1C376.1,509.8,379,511,381.9,512.1z"
	/>
<path fill="#FFFFFF" stroke="#000000" stroke-miterlimit="10" d="M391.5,515.8c-0.7,3.5-2.4,9.4-5.6,12c0,0-0.1,0.1-0.1,0.1
	c-2,1.5-4.2,0.7-6.1-0.8c-1.1-0.8-2.1-1.9-2.9-2.8c2.4-3.8,4.1-8.5,5.1-12.1C385,513.4,388.3,514.6,391.5,515.8z"/>
<path fill="#FFFFFF" stroke="#000000" stroke-miterlimit="10" d="M397.6,518c0,3.1-0.5,7.7-3.2,10.2c-0.7,0.6-1.5,1.1-2.4,1.4
	c-1.6,0.5-2.9,0.5-3.8,0.2c-1.2-0.3-1.9-1.1-2.4-2c0,0,0.1,0,0.1-0.1c3.2-2.6,4.8-8.5,5.6-12C393.6,516.6,395.6,517.3,397.6,518z"/>
<path fill="#FFFFFF" stroke="#000000" stroke-miterlimit="10" d="M405,520.7c-0.7,3.1-1.9,7.5-3.6,10.4c-0.1,0.2-0.3,0.4-0.4,0.6
	c-1.3,1.4-2.9,0.7-4.3-0.6c-0.9-0.8-1.7-1.9-2.3-2.8c2.7-2.5,3.2-7,3.2-10.2C400.2,519,402.8,519.9,405,520.7z"/>
<path fill="#FFFFFF" stroke="#000000" stroke-miterlimit="10" d="M413.7,523.7c-2,3.2-3.9,7.3-5.4,11.8c-1.7,0.1-3.1-0.1-4.1-0.5
	c-1.9-0.7-2.8-2-3.2-3.3c0.1-0.2,0.3-0.3,0.4-0.6c1.7-2.9,2.9-7.3,3.6-10.4C408.7,522,411.8,523,413.7,523.7z"/>
<path fill="#FFFFFF" stroke="#000000" stroke-miterlimit="10" d="M172.1,314.7c-24.2-3.6-65.9,1.6-94.4,3.8c0,0,0,0,0,0
	c-8,0.6-14.9,1-20.1,0.8c-27.4-0.7-27.4-12.2-24-14.5c3.4-2.4,76.1-7.4,94.3-10.2c14-2.1,34.8,3.2,43.7,5.8
	C170.3,303.4,170,309,172.1,314.7z"/>
<path fill="#FFFFFF" stroke="#000000" stroke-miterlimit="10" d="M181.3,336.5c-6.7-1.2-14.7-2.3-21-2.3c-6.3,0-30.9,2.6-57.5,5.2h0
	c-30.7,3-64.2,6-76,4.9c-16.1-1.5,26.7-17.4,50.9-25.9c0,0,0,0,0,0c28.5-2.2,70.2-7.3,94.4-3.8c1,2.8,2.6,5.5,4.8,8
	c0.3,0.4,0.7,0.7,1.2,1.1C178,327.2,178.6,331.7,181.3,336.5z"/>
<path fill="#FFFFFF" stroke="#000000" stroke-miterlimit="10" d="M186.9,343.3c-21.6-0.2-42.2,6.5-53,11.2
	c-8.4,3.7-27.8,10.5-46.6,13.5c-10.6,1.7-21,2.1-29.2,0c-16.1-4.1,21.5-19.8,44.6-28.6h0c26.7-2.6,51.3-5.2,57.5-5.2
	c6.3,0,14.3,1.1,21,2.3C182.7,338.7,184.5,341.1,186.9,343.3z"/>
<path fill="#FFFFFF" stroke="#000000" stroke-miterlimit="10" d="M197.7,360c-8.7,0.5-19.1,1.7-28.6,3.9
	c-13,3.1-35.6,14.3-56.7,21.1c-13,4.2-25.4,6.7-34.6,4.6c-14.8-3.3-2.2-14,9.6-21.7c18.8-3,38.1-9.8,46.6-13.5
	c10.8-4.7,31.4-11.3,53-11.2c1,0.9,2.2,1.9,3.5,2.8c1,0.7,2,1.3,3.1,2C194.3,351.5,195.5,355.9,197.7,360z"/>
<path fill="#FFFFFF" stroke="#000000" stroke-miterlimit="10" d="M204.2,368c-17.4,6.2-48.7,23.7-68.2,29.4
	c-5.5,1.6-10.1,2.3-13.1,1.5c-9.6-2.4-10.9-9.1-10.4-13.9c21.1-6.8,43.7-17.9,56.7-21.1c9.4-2.3,19.9-3.4,28.6-3.9
	C199.3,363,201.4,365.8,204.2,368z"/>
<path fill="#FFFFFF" stroke="#000000" stroke-miterlimit="10" d="M219.8,373.4c-4.2,0.9-9.8,3.1-17,8.1
	c-10.7,7.4-26.8,16.5-40.7,21.1c-9.9,3.2-18.8,4.1-23.9,0.3c-2.4-1.8-2.8-3.7-2.2-5.5c19.5-5.7,50.8-23.1,68.2-29.4c0,0,0,0,0,0
	c2.7,2.2,6,3.7,10.2,4.2c1.4,0.2,3,0.2,4.6,0.2C219.2,372.8,219.5,373.1,219.8,373.4z"/>
<path fill="#FFFFFF" stroke="#000000" stroke-miterlimit="10" d="M241.1,384.4c-14.1,2.4-39.6,14-52,27.4c-3.4,3.7-7.4,6.1-11.5,7.5
	c-12.9,4.6-26.8,0-24-4.3c2.4-3.6,6.1-9,8.5-12.4c14-4.5,30-13.7,40.7-21.1c7.2-4.9,12.8-7.2,17-8.1c3.3,3.9,9.3,8.2,19.7,8.1
	C239.8,382.3,240.4,383.3,241.1,384.4z"/>
<path fill="#FFFFFF" stroke="#000000" stroke-miterlimit="10" d="M249.3,391.7c-17.3,8.2-32.8,27.2-46.9,34.7
	c-3.3,1.8-6.6,2.9-9.7,3.1c-10.5,0.7-14-5.3-15.1-10.2c4.1-1.5,8.2-3.9,11.5-7.5c12.4-13.4,37.9-25,52-27.4
	C242.7,387,245.4,389.9,249.3,391.7z"/>
<path fill="#FFFFFF" stroke="#000000" stroke-miterlimit="10" d="M267.8,396.7c-11.9,7-21.1,23.9-41.2,31.3
	c-0.7,0.3-1.5,0.5-2.2,0.8c-12.3,3.9-18.8,0.9-22-2.4c14.1-7.6,29.6-26.5,46.9-34.7c1,0.5,2.2,0.9,3.4,1.1c1.9,0.4,4.8,0,8.2-0.9
	C262.3,393.4,264.6,395.3,267.8,396.7z"/>
<path fill="#FFFFFF" stroke="#000000" stroke-miterlimit="10" d="M287.3,403.5c-3.7,6.1-13.1,19.1-33.2,28.6c-1.2,0.6-2.3,1-3.4,1.5
	c-17,6.8-23.8-0.4-26.2-4.8c0.7-0.2,1.5-0.5,2.2-0.8c20.1-7.4,29.4-24.4,41.2-31.3c2.6,1.1,5.9,1.8,9.8,1.7c1.4,0,2.9-0.2,4.3-0.5
	C283.3,399.9,285.1,402.1,287.3,403.5z"/>
<path fill="#FFFFFF" stroke="#000000" stroke-miterlimit="10" d="M294.2,411.5c-6,7.8-20.7,22.4-30.5,26.1c-0.6,0.2-1.2,0.4-1.8,0.6
	c-7.4,1.8-10.2-1.8-11.3-4.6c1.1-0.4,2.2-0.9,3.4-1.5c20.2-9.4,29.6-22.4,33.2-28.6c1.2,0.8,2.6,1.4,4.1,1.5
	C291.6,407.3,292.4,409.8,294.2,411.5z"/>
<path fill="#FFFFFF" stroke="#000000" stroke-miterlimit="10" d="M299.7,418.6c-5.4,5-20,18.4-27,22.9c-1.1,0.7-2.1,1.2-2.7,1.4
	c-3.7,1.1-5.4-2.5-6.2-5.3c9.8-3.7,24.5-18.3,30.5-26.1c1.1,1,2.6,1.7,4.7,1.9C298.9,415,299.1,417,299.7,418.6z"/>
<path fill="#FFFFFF" stroke="#000000" stroke-miterlimit="10" d="M305.4,429.2c-3.3,4.4-9.8,12.3-18.8,19.1
	c-0.8,0.6-1.6,1.2-2.4,1.6v0c-8.1,4.4-10.7-3.8-11.6-8.3c7.1-4.5,21.7-17.9,27-22.9c0.6,1.8,1.7,3.1,3.5,3.1c0.1,0,0.2,0,0.3,0
	C303.8,423.9,304.4,426.8,305.4,429.2z"/>
<path fill="#FFFFFF" stroke="#000000" stroke-miterlimit="10" d="M310.3,439.6c-4.4,5-13.7,15.2-18.3,17.5c-0.4,0.2-0.7,0.3-1,0.4
	c-3.4,0.7-5.6-4.1-6.8-7.6v0c0.7-0.4,1.5-0.9,2.4-1.6c9-6.8,15.5-14.7,18.8-19.1c0.9,2,2.2,3.5,3.9,3.8
	C309.4,435,309.6,437.4,310.3,439.6z"/>
<path fill="#FFFFFF" stroke="#000000" stroke-miterlimit="10" d="M316.8,449.5c-8.2,4.9-13.9,15-19.3,18.1c-0.3,0.2-0.6,0.3-0.8,0.4
	c-4.6,2.1-5.5-5.2-5.6-10.6c0.3-0.1,0.7-0.2,1-0.4c4.6-2.3,13.9-12.6,18.3-17.5c0.7,2.2,2,4,4.2,4.5c0.5,0.1,0.9,0.1,1.4,0.1
	C316,445.8,316.2,447.8,316.8,449.5z"/>
<path fill="#FFFFFF" stroke="#000000" stroke-miterlimit="10" d="M322.6,456.2c-7.6,2.2-11.8,16.8-17.3,20.4v0
	c-0.1,0.1-0.2,0.1-0.4,0.2c-4.1,2.3-6.4-4.3-7.5-9.2c5.4-3.2,11.2-13.2,19.3-18.1c0.8,2.4,2.5,4.3,5.5,4.4
	C322.4,454.6,322.4,455.4,322.6,456.2z"/>
<path fill="#FFFFFF" stroke="#000000" stroke-miterlimit="10" d="M326.4,462.7c-3,4.5-7,16-13.7,21.4c-0.6,0.4-1.1,0.8-1.5,1
	c-3.9,1.7-5.3-3.9-5.9-8.4v0c5.5-3.6,9.7-18.2,17.3-20.4C323,458.8,324.1,461.4,326.4,462.7z"/>
<path fill="#FFFFFF" stroke="#000000" stroke-miterlimit="10" d="M331.1,470.4c-4.6,6.6-9.5,17.4-13.7,20.9
	c-0.4,0.3-0.8,0.6-1.2,0.8c-3.4,1.7-4.7-2.9-5.1-7c0.5-0.2,1-0.5,1.5-1c6.7-5.4,10.7-16.9,13.7-21.4c0.8,0.5,1.8,0.8,3,1
	c0,0,0,0,0.1,0C329.7,465.8,330.1,468.4,331.1,470.4z"/>
<path fill="#FFFFFF" stroke="#000000" stroke-miterlimit="10" d="M337.7,480.1c-3.3,4-8.8,14.6-12.5,17.1c-0.1,0.1-0.2,0.2-0.4,0.2
	c-2.7,1.3-5.7-3-7.4-6.1c4.2-3.5,9.1-14.4,13.7-20.9c1.2,2.3,3.1,4,6.1,3.8C337.2,475.8,337.3,478,337.7,480.1z"/>
<path fill="#FFFFFF" stroke="#000000" stroke-miterlimit="10" d="M343.9,491.4c-4.6,2.5-8,13.5-14.2,17.9v0
	c-0.1,0.1-0.2,0.1-0.3,0.2c-5.2,3.4-5-6.5-4.6-12.1c0.1-0.1,0.2-0.1,0.4-0.2c3.7-2.5,9.2-13.1,12.5-17.1c0.6,3,2.1,5.7,5.2,6
	c0.1,0,0.2,0,0.2,0C343.3,487.6,343.5,489.5,343.9,491.4z"/>
<path fill="#FFFFFF" stroke="#000000" stroke-miterlimit="10" d="M351.1,503.7c-4.3,3.2-11.2,12.5-14.9,16.1v0
	c-0.4,0.4-0.8,0.8-1.1,1c-2.9,2.2-4.7-7-5.4-11.6v0c6.3-4.4,9.6-15.3,14.2-17.9c0.8,3.8,2.5,7.4,5.6,7.2
	C349.9,500.2,350.4,502,351.1,503.7z"/>
<path fill="#FFFFFF" stroke="#000000" stroke-miterlimit="10" d="M359.2,515c-4.1,3.4-10,8.5-14.9,12.3c-0.6,0.5-1.2,1-1.8,1.4
	c-5.3,4-6.2-3.6-6.2-8.9v0c3.7-3.6,10.7-12.9,14.9-16.1c1.4,3.4,3.4,6.1,6.4,5.2C357.8,510.8,358.4,513.1,359.2,515z"/>
<path fill="#FFFFFF" stroke="#000000" stroke-miterlimit="10" d="M368.2,521.7c-6.5,4.5-13.7,13.4-18.3,16.6
	c-0.4,0.3-0.9,0.6-1.3,0.8c-3.7,1.9-4.4-6.6-4.4-11.8c4.9-3.8,10.8-8.9,14.9-12.3c1.3,2.9,3.3,4.9,6.4,3.1c0.1,0,0.1-0.1,0.2-0.1
	C366.5,519.1,367.3,520.4,368.2,521.7z"/>
<path fill="#FFFFFF" stroke="#000000" stroke-miterlimit="10" d="M379.6,527.1c-4.1,5.3-12.4,15.1-20.5,20.1c-0.7,0.4-1.3,0.7-1.9,1
	c-5.9,2.4-7.2-4.6-7.4-9.9c4.5-3.3,11.7-12.1,18.3-16.6c2.7,3.6,6,6.5,8.4,2.8c0-0.1,0.1-0.1,0.1-0.2
	C377.5,525.2,378.5,526.3,379.6,527.1z"/>
<path fill="#FFFFFF" stroke="#000000" stroke-miterlimit="10" d="M388.1,529.9c-2.9,5-8.8,14.3-16.5,23.8c-0.6,0.8-1.3,1.6-2,2.4
	c-9,10.6-11.6-0.7-12.3-7.8c0.6-0.2,1.2-0.5,1.9-1c8-5,16.3-14.8,20.5-20.1c1.9,1.5,4.2,2.3,6.1,0.8
	C386.2,528.8,387,529.5,388.1,529.9z"/>
<path fill="#FFFFFF" stroke="#000000" stroke-miterlimit="10" d="M396.7,531c-1.8,4.7-6.2,15.6-12.2,25.3v0
	c-0.1,0.2-0.2,0.4-0.3,0.5c-5.4,8.6-10.1,2.1-12.6-3.2c7.8-9.5,13.6-18.8,16.5-23.8c0.9,0.3,2.2,0.3,3.8-0.2c1-0.3,1.8-0.8,2.4-1.4
	C395,529.1,395.9,530.2,396.7,531z"/>
<path fill="#FFFFFF" stroke="#000000" stroke-miterlimit="10" d="M404.2,534.9c-1.1,4.2-3.7,13-7.1,19.1c-1.2,2.2-2.6,4.1-4,5.2
	c-4.3,3.5-7.1,0.1-8.6-2.9v0c6-9.7,10.5-20.6,12.2-25.3c1.4,1.3,3,2.1,4.3,0.6C401.4,532.9,402.3,534.2,404.2,534.9z"/>
<path fill="#FFFFFF" stroke="#000000" stroke-miterlimit="10" d="M408.3,535.4c-2.4,6.9-4.1,14.9-4.6,22.8c-2.3-0.7-4.8-2.6-6.6-4.2
	c3.4-6.1,6-14.8,7.1-19.1C405.2,535.3,406.6,535.5,408.3,535.4z"/>
</svg>
