<?xml version="1.0" encoding="utf-8"?>
<!-- Generator: Adobe Illustrator 25.2.0, SVG Export Plug-In . SVG Version: 6.00 Build 0)  -->
<svg version="1.1" baseProfile="tiny" id="Layer_1" xmlns="http://www.w3.org/2000/svg" xmlns:xlink="http://www.w3.org/1999/xlink"
	 x="0px" y="0px" viewBox="0 0 1000 1000" overflow="visible" xml:space="preserve">
<path fill="#FFFFFF" stroke="#231F20" stroke-miterlimit="10" d="M428,325.5L428,325.5c-0.2,1-0.4,2.1-0.7,3.2c-2-1.3-5.2-1.9-8.8-2
	c-8.7-0.3-19.4,2-19.4,2s-19.1-8-24.1-9.5c1.1-1,1.8-1.7,1.8-1.7s0.3-3,0.8-7.1c2.6,0.5,6.8,1.5,11,2.6c6.4,1.7,12.7,3.5,12.7,3.5
	l5.3-2.6l2.7-1.3l3.9,2h15.1C428.3,314.6,429.2,318.9,428,325.5z"/>
<path fill="#FFFFFF" stroke="#231F20" stroke-miterlimit="10" d="M586.6,255.4c-1.7,1.7-3.3,4.1-3.6,8.2c-5.2,0.2-15.2,0.9-25.2,3.2
	c-2.9,0.7-6,2-9.2,3.7c-7.2-10.9-33.9-22.6-49-28.5c-2.6-1-4.9-1.9-6.7-2.5c0.6-0.4,1.1-0.9,1.7-1.4c2-1.4,5.9-7.5,5.9-7.5l-0.5-1.6
	c4.3,1,12.9,2.9,23.2,5.5C547.2,240.3,579.8,249.3,586.6,255.4z"/>
<path fill="#FFFFFF" stroke="#231F20" stroke-miterlimit="10" d="M583,265.9L583,265.9c-0.3,0.2-0.5,0.5-0.8,0.7
	c-0.6,0.5-1.1,1-1.7,1.5c-1.8,1.6-3.3,3-4.4,4c-0.6,0.5-1.1,1-1.4,1.3c-0.1,0.1-0.2,0.2-0.2,0.2c0,0-0.1,0.1-0.1,0.1c0,0,0,0,0,0
	c-1.6,1.4-3.2,2.9-4.5,4.2c-2.1,2-3.6,3.8-4,4.9c-0.3,0.8-0.9,2-1.5,3.4c-1.3,2.8-3.2,6.3-4.9,9.3c-0.2-3.1-1.3-8.1-5.2-11
	c-2-1.4-4.7-2.3-8.5-2.1c-12.2,0.7-12.9,13.5-12.8,18.2c-5.3,1.4-11.2,2.7-16.8,3.1c-3.6,0.3-7.1,0.3-10.5,0.2
	c0-2.6-0.2-5.4-0.5-8.3c3.8,1.3,9,2.2,12.4-1c4.7-4.4,18.4-17.4,31-24.1c3.2-1.7,6.3-3,9.2-3.7c10-2.3,20-3,25.2-3.2
	C583,264.3,582.9,265,583,265.9z"/>
<path fill="#FFFFFF" stroke="#231F20" stroke-miterlimit="10" d="M554.3,284.4c-8.6,0.9-16.1,10.7-18.6,15.4h0
	c-0.8,0.2-1.7,0.5-2.6,0.7c-0.2-4.7,0.6-17.5,12.8-18.2C549.6,282.1,552.3,283,554.3,284.4z"/>
<path fill="#FFFFFF" stroke="#231F20" stroke-miterlimit="10" d="M575.7,319.5c-11.7,1.4-34.3,6.4-55.2,23.3
	c-3-4.8-13.2-21.1-17.2-27.5c23.2-4,49.4-10.5,45.9-19.8c0,0-5.7,2.3-13.4,4.5c2.5-4.8,10-14.5,18.6-15.4c4,2.8,5,7.9,5.2,11
	c-1.6,2.9-3,5.3-3.3,5.9c-0.3,0.5,3.2-0.3,8.7-0.3C566.8,304.6,571.1,312.3,575.7,319.5z"/>
<path fill="#FFFFFF" stroke="#231F20" stroke-miterlimit="10" d="M690,347.6c0,0,0.9,0,1.8-0.6c-3.5-1.6-7.7-2.6-11.2-1.4
	c3-13.5,2.8-34.2,2.2-47.4c-4.2-9.9-9.8-19-17.3-24.2c-20.9-14.5-55.8-24.5-62.7-22.6c-1.8,0.5-4.7,2.4-8,4.8
	c6.4,0.6,21.5,2.6,27.5,7.8c3.3-4,4.8-4,4.8-4s40.4,32.8,35.4,71.3c-5,38.5-29.5,64.2-29.5,64.2l19.2,44.2c0,0,35.9,9.3,36.6,7.6
	c0.4-1,4.9-2.2,9.6-6.6c0,0,0,0,0,0c0.8-1,1.5-1.9,2.2-2.8c1.3-1.7,2.5-3.2,3.3-4.3c0,0,0,0,0,0c0.5-0.8,0.9-1.7,1.4-2.6
	c-0.2-3-0.7-14.3-0.6-23.1c0.1-3.4,0.2-6.4,0.6-8.4c0.6-3.3,1-6.6,1.3-9.8c0,0,0,0,0,0c0.4-4.7,0.6-9.3,0.6-14
	C707.3,367.6,690,347.6,690,347.6z M680.5,429.6c-0.5,1.2-16.2-3.3-16.2-3.3l-13.5-34c6.9-7.4,17.1-27.1,17.1-27.1
	s16.6,25.9,19,35.4C689.2,410.1,680.9,428.4,680.5,429.6z"/>
<path fill="#FFFFFF" stroke="#231F20" stroke-miterlimit="10" d="M678.2,449.7c-8,0-18.4-0.1-25.3-0.2c-4.3-0.1-7.2-0.1-7.2-0.1
	s-8.1-15-16.2-30.8c-2.5-4.9-5-9.9-7.2-14.5c-3.6-7.5-6.6-14-7.9-17.9c-0.4-1.2-0.7-2.2-0.7-2.8c3.1-19,6.1-47.8-3-65.4
	c-11.2-21.7-35.1-29.7-46.3-31.9c0.7-1.4,1.2-2.5,1.5-3.4c0.4-1.1,2-2.9,4-4.9c7.5,1.4,25.7,6.2,39.7,22.2
	c18,20.6,29.4,45.4,35.7,47.3c3.5,1.1,7.1-0.1,9.6-1.4c-6.7,31.7-23.7,45.5-25.5,48.2c-1.9,2.9,16.9,46.8,20.4,48
	c2.2,0.7,15.9,3.9,28.1,5.9C678,448.5,678.1,449.1,678.2,449.7z"/>
<path fill="#FFFFFF" stroke="#231F20" stroke-miterlimit="10" d="M613.7,383.4c0,0,0-0.1,0-0.1c-0.2-6.6,4.5-28.5-6.7-52.9
	c-1.3-2.9-2.9-5.9-4.7-8.9c-11-17.9-27.4-20.5-37.4-20.5c-5.5,0-9,0.8-8.7,0.3c0.4-0.6,1.7-3,3.3-5.9c1.6-3,3.5-6.5,4.9-9.3
	c11.2,2.2,35.2,10.2,46.3,31.9C619.8,335.6,616.8,364.4,613.7,383.4z"/>
<path fill="#FFFFFF" stroke="#231F20" stroke-miterlimit="10" d="M691.8,347c-3.5-1.6-7.7-2.6-11.2-1.4c3-13.5,2.8-34.2,2.2-47.4
	c7.6,17.8,10.5,38.2,11,42.6C694.2,344.5,693,346.2,691.8,347z"/>
<path fill="#FFFFFF" stroke="#231F20" stroke-miterlimit="10" d="M698.4,440.6c-3.4,4.2-7.1,8.4-8.5,8.8c-0.2,0.1-0.7,0.1-1.4,0.2h0
	c-3.2-0.3-6.8-0.8-10.6-1.4c-12.3-2-25.9-5.1-28.1-5.9c-3.6-1.2-22.3-45.1-20.4-48c1.8-2.7,18.8-16.5,25.5-48.2
	c0.3-1.5,0.6-3,0.9-4.6c0.2-1,0.3-2,0.4-3c0.2-2.1,0.3-4.1,0.3-6.1c-0.2-31.1-27-57.3-33.3-63.6c-13.2,2.7-32.9-0.6-40.2-2
	c0-0.1,0-0.2,0-0.3v0c2.1-1.7,3.6-2.9,3.6-2.9s-0.3,0-0.9,0c3-2.5,6.2-5.2,9.1-7.3c6.4,0.6,21.5,2.6,27.5,7.8c3.3-4,4.8-4,4.8-4
	s40.4,32.8,35.4,71.3c-5,38.5-29.5,64.2-29.5,64.2l19.2,44.2c0,0,35.9,9.3,36.6,7.6C689.2,446.2,693.7,445,698.4,440.6z"/>
<path fill="#FFFFFF" stroke="#231F20" stroke-miterlimit="10" d="M503.2,315.2L503.2,315.2c-4.6,0.8-9,1.5-13.1,2.1
	c-2.5,0.4-4.8,0.7-6.9,1c-7.8,1-13.1,1.7-13.2,1.8c-0.2,0.3-2.1,1.8-4.9,3.3c-3.8,2-9.4,4-15.3,3.1c0,0,2.9-3.6,7.1-7.6
	c5.1-4.9,12.2-10.3,18.6-10.7c9.1-5.5,19.3-4.5,30.3-4.3c3.4,0.1,6.9,0.1,10.5-0.2c5.6-0.4,11.5-1.7,16.8-3.1
	c0.9-0.2,1.8-0.5,2.6-0.7h0c7.7-2.2,13.4-4.5,13.4-4.5C552.6,304.7,526.4,311.2,503.2,315.2z"/>
<path fill="#FFFFFF" stroke="#231F20" stroke-miterlimit="10" d="M680.5,429.6c-0.5,1.2-16.2-3.3-16.2-3.3l-13.5-34
	c6.9-7.4,17.1-27.1,17.1-27.1s16.6,25.9,19,35.4C689.2,410.1,680.9,428.4,680.5,429.6z"/>
<path fill="#FFFFFF" stroke="#231F20" stroke-miterlimit="10" d="M656.5,332.3c-11.3,5-17.2-18-33.3-39.3
	c-11.6-15.4-29.9-21.8-40-24.4c-0.1-0.7-0.2-1.3-0.2-2c7.3,1.4,27,4.7,40.2,2C629.5,275,656.3,301.2,656.5,332.3z"/>
<path fill="#FFFFFF" stroke="#231F20" stroke-miterlimit="10" d="M656.5,332.3c0,2-0.1,4.1-0.3,6.1c-1.7,0.3-4.1,0.2-7.7-0.5
	c-12.3-2.4-12.2-24.5-34.9-45.5c-17.3-16-31.5-19.6-37.3-20.4c1.6-1.4,3.2-2.7,4.7-4c0.7,0.1,1.5,0.3,2.3,0.5
	c10.1,2.5,28.3,9,40,24.4C639.2,314.2,645.2,337.3,656.5,332.3z"/>
<path fill="#FFFFFF" stroke="#231F20" stroke-miterlimit="10" d="M656.2,338.4c-0.1,1-0.2,2-0.4,3c-0.3,1.6-0.6,3.1-0.9,4.6
	c-2.4,1.3-6,2.5-9.6,1.4c-6.2-2-17.7-26.7-35.7-47.3c-14-16-32.2-20.8-39.7-22.2c1.3-1.3,2.9-2.8,4.5-4.2c0,0,0,0,0,0
	c0,0,0.1-0.1,0.1-0.1c0.1-0.1,0.2-0.1,0.2-0.2c0.5-0.4,1-0.8,1.4-1.3c5.8,0.8,20,4.4,37.3,20.4c22.7,21,22.6,43,34.9,45.5
	C652.1,338.7,654.5,338.7,656.2,338.4z"/>
<path fill="#FFFFFF" stroke="#231F20" stroke-miterlimit="10" d="M586.6,385.9c-4.4,14.8-18.2,33.3-26.3,43.4
	c-4.1-3.1-8.3-6.7-12.7-10.8c-20.1-19.2-22.7-51.5-22.6-61.4c4.4,2.5,4.5,9.6,4.5,9.6s14.8-11.6,16.2-16.2
	c1.2,0.6,11.4-6.3,11.4-6.3l10.7-5.5c0,0,10-0.5,10.2-3.8c1.1,0.9,3.1,1.7,5.2,2.2c0.7,2.2,1.5,5.4,2.4,9.1
	C588.1,357.1,590.4,373.2,586.6,385.9z"/>
<path fill="#FFFFFF" stroke="#231F20" stroke-miterlimit="10" d="M596.5,394c-7.8,16.9-18.1,34.7-23.5,43.9
	c-3.9-2.3-8.2-5.2-12.6-8.6c8.1-10,21.8-28.6,26.3-43.4c3.8-12.7,1.5-28.8-1-39.8c6.5,2.8,11.6-0.1,15.2-4.4
	C602.4,351.6,605,375.5,596.5,394z"/>
<path fill="#FFFFFF" stroke="#231F20" stroke-miterlimit="10" d="M613.7,383.3c0,0,0,0.1,0,0.1c-0.4,2.3-0.7,4.4-1.1,6.4
	c-7,13.9-21.9,42.2-31.8,52.4c-2.4-1.2-5-2.7-7.8-4.4c5.4-9.1,15.7-27,23.5-43.9c8.6-18.5,5.9-42.4,4.3-52.3c3-3.6,5-8.1,6.2-11.3
	C618.2,354.8,613.5,376.7,613.7,383.3z"/>
<path fill="#FFFFFF" stroke="#231F20" stroke-miterlimit="10" d="M583.2,337c-2.1-0.5-4.1-1.2-5.2-2.2c-0.2,3.3-10.2,3.8-10.2,3.8
	l-10.7,5.5c0,0-10.2,7-11.4,6.3c-1.4,4.6-16.2,16.2-16.2,16.2s0-7.1-4.5-9.6c-1.3-0.7-2.9-1.1-5-0.8c19.2-19.5,45.5-27.2,60-30
	c2.9,4.1,5.5,7.4,7.5,8.6C592.2,337.7,587.6,338,583.2,337z"/>
<path fill="#FFFFFF" stroke="#231F20" stroke-miterlimit="10" d="M577.6,453.8c-0.5-0.2-1.1-0.4-1.6-0.7c-5.9-2.5-11.3-5.3-16.2-8.2
	c-14.3-8.5-24.8-18.5-32.6-28.2c-8.7-10.9-15.7-34.6-17.4-47.9c1.3-1.8,2.6-3.6,4-5.4c2-2.6,4.1-5,6.3-7.2c2.1-0.3,3.7,0,5,0.8
	c-0.1,9.9,2.4,42.3,22.6,61.4c4.4,4.1,8.6,7.7,12.7,10.8c4.5,3.4,8.8,6.2,12.6,8.6c2.8,1.7,5.4,3.1,7.8,4.4
	c7.8,4.1,13.2,6.1,14.4,7.6c0.1,0.1,0.2,0.2,0.3,0.4C597.7,453.5,597.9,462,577.6,453.8z"/>
<path fill="#FFFFFF" stroke="#231F20" stroke-miterlimit="10" d="M622.3,404.1c-6.1,12.3-19.3,37.8-26.9,46
	c-0.1-0.1-0.2-0.3-0.3-0.4c-1.2-1.5-6.6-3.5-14.4-7.6c10-10.3,24.8-38.5,31.8-52.4c0.7-1.3,1.3-2.5,1.8-3.6
	C615.7,390.1,618.7,396.6,622.3,404.1z"/>
<path fill="#FFFFFF" stroke="#231F20" stroke-miterlimit="10" d="M629.5,418.6c-2.1,12-10.9,51.9-37.7,62.6
	c-0.4,0.2-0.7,0.3-1.1,0.4c0,0-17-5.5-19.1-11.6c-1.6-4.7,2.7-12.5,6-16.2c20.3,8.2,20.1-0.3,17.8-3.7c7.6-8.2,20.7-33.7,26.9-46
	C624.5,408.7,627,413.7,629.5,418.6z"/>
<path fill="#FFFFFF" stroke="#231F20" stroke-miterlimit="10" d="M503.6,203.8c-0.2,0.4-0.3,0.8-0.4,1.2c-1.1,3-2.2,5.6-3.4,8.1v0
	c-6.1,6.8-13,11.3-21.1,11.3c-7.7,0-13.8-10.3-15.7-13.7c7.9-0.9,14.6-2.5,14.6-2.5c12.5,9.6,17.3-0.4,21.2-11.4
	c3.2-9,7.3-24.2,8.7-29.7c0.2-0.2,0.4-0.3,0.5-0.5C508.1,172.6,507.9,194.7,503.6,203.8z"/>
<path fill="#FFFFFF" stroke="#231F20" stroke-miterlimit="10" d="M507.5,167.1c-1.4,5.5-5.6,20.8-8.7,29.7c-3.9,11-8.7,21-21.2,11.4
	c0,0-6.7,1.6-14.6,2.5c-2.8,0.3-5.8,0.5-8.6,0.5c-4.1,0-8-0.4-10.9-1.6c-3.4,4.5-8.4,6.4-12.8,1.1c-3.2-3.8-8.4-21.7-10.8-32
	c5.9,6.6,11.6,13.2,12.3,16.5c1.4,6.8,7.8,13,12.5,13.2c1,0,2.9,0.1,5.2,0.2c4.2,0.2,9.9,0.4,14.8,0.2c5.2-0.2,9.5-0.7,10.8-2.1
	c3-3.4,13.3-22.8,21.8-30.8C501.7,171.8,505,169.3,507.5,167.1z"/>
<path fill="#FFFFFF" stroke="#231F20" stroke-miterlimit="10" d="M454.4,211.2c-1.2,2.8-5.3,11.7-12.1,15c-2.7,1.3-6.3,0.5-10.1-1.1
	c-4.2-1.8-8.5-4.7-11.6-7c0,0,0,0,0,0c-0.8-1.5-1.4-2.9-1.9-4.3c-4.5-12.9-5.3-35.4-5.4-42.2c2.1,2.3,4.3,4.7,6.6,7.2l0,0
	c2.4,10.2,7.7,28.2,10.8,32c4.5,5.3,9.5,3.4,12.8-1.1C446.5,210.8,450.3,211.2,454.4,211.2z"/>
<path fill="#FFFFFF" stroke="#231F20" stroke-miterlimit="10" d="M494,223.2c-13.2,18.4-28.3,12.7-35.5,6.4
	c-7.3,11.5-17.2,9.9-25.5,3.6c-1.8-1.3-3.4-2.9-5-4.6c1.5,1,3.2,2,4.9,2.8c4.2,2,8.8,3.1,12.9,1.6c11.3-4.3,12.6-14.9,13.2-14.4
	c0.6,0.5,9,15.5,19.7,12.8C484.5,229.9,490.1,226.3,494,223.2z"/>
<path fill="#FFFFFF" stroke="#231F20" stroke-miterlimit="10" d="M504.8,135.8c-0.1-0.3-0.2-0.6-0.3-1c-1.6-4.6-4.9-14.1-11-22.6
	l-4.2,12.1c0,0-15.9,15-16.4,15.2c-0.5,0.2-3.7,16.9-3.7,16.9h-1.5l2.8-18.9l16.9-16.4l2.4-13.5c-3.7-4.2-8.3-7.8-13.8-10
	c-1.9,8.6-5.9,24.5-10.6,29.8c-0.8,0.9-1.5,2-2.2,3.3c-4.7,9.2-6.1,26.8-4.3,29.8c2,3.4,3.8,2.4,3.7,6.3c-0.1,3.9-0.1,7-0.1,7
	l11.8,14.3c0,0-9.3,12.1-9.6,20.7c5.2-0.2,9.5-0.7,10.8-2.1c3-3.4,13.3-22.8,21.8-30.8c4.4-4.2,7.8-6.6,10.3-8.9
	c0.2-0.2,0.4-0.3,0.5-0.5c1.2-1.1,2.2-2.2,3-3.5c0.5-0.8,0.9-1.7,1.3-2.6C514.3,154.7,507.7,143.9,504.8,135.8z M490.5,166.8
	c-1.5,1.5-8.1,9.1-12.1,9.5c-4.5,0.5-11.5-1.2-12-3.6c-0.6-3,6.3,0,10.8-1.2C481.2,170.5,488.8,167.7,490.5,166.8
	c0.2-0.2,0.3-0.3,0.3-0.3C490.8,166.6,490.7,166.7,490.5,166.8z M488.2,161.3c-1,3.3-4.3,5.5-7.2,5.8c-2.9,0.4-6.3,0.2-6.3,0.2
	l-0.9-3.4l-8.5,0.5c0.6-0.3,13.3-9.1,18.6-9.1c4.9,0.8,10.7,5.1,10.7,5.1L488.2,161.3z"/>
<path fill="#FFFFFF" stroke="#231F20" stroke-miterlimit="10" d="M449.6,134.1c-0.3-0.7-0.7-1.5-1-2.2c-4.1-7.6-12.6-14.6-17.1-27.8
	c-2.7,2-5,4.3-6.9,6.5l0.6,11.9l15.9,16.6l4.8,18.8h-2.1l-5.8-16.9c0,0-14.9-14.7-15-15.8c-0.1-0.6-1.1-5.4-2-10
	c-0.5,0.8-1,1.5-1.5,2.2c-3,4.5-5,11.1-6.2,16.6c-1.3,5.8-1.8,10.5-1.8,10.5c0.3,0.6-6,10.4-6.2,15.8v0c0,0.7,0.1,1.4,0.3,1.9
	c0.7,1.5,3.8,5,7.7,9.3c2.1,2.3,4.3,4.7,6.6,7.2l0,0c5.9,6.6,11.6,13.2,12.3,16.5c1.4,6.8,7.8,13,12.5,13.2c1,0,2.9,0.1,5.2,0.2
	c-0.2-2.1-3.4-14.7-7.4-20.6c6.2-9.4,8.8-13.4,8.8-13.4s-1.4-9.3-0.7-10.9c0.7-1.7,1.9-1.3,2.1-2.8
	C452.9,159.3,453.4,143.4,449.6,134.1z M439.8,178.1c-7.7,0.4-14.3-10.7-14.3-10.7s10.2,5.6,13.5,6c3.3,0.5,8.6-1.3,8.6-1.3
	S447.6,177.7,439.8,178.1z M443.7,165.7c0,0-1,2.3-2.1,4.2c-5,0.2-9.6-0.9-14.3-5.5c0.2-0.1,0.3-0.2,0.5-0.2l-8.6-1.1
	c0,0,10.5-6.3,12.8-6.6c2.4-0.4,15.7,9.3,15.7,9.3H443.7z"/>
<path fill="#FFFFFF" stroke="#231F20" stroke-miterlimit="10" d="M447.7,165.7h-4c0,0-8.8-4.6-15.9-1.6l-8.6-1.1
	c0,0,10.5-6.3,12.8-6.6C434.4,156.1,447.7,165.7,447.7,165.7z"/>
<path fill="#FFFFFF" stroke="#231F20" stroke-miterlimit="10" d="M445.8,157.9h-2.1l-5.8-16.9c0,0-14.9-14.7-15-15.8
	c-0.1-0.6-1.1-5.4-2-10c1.1-1.5,2.2-3,3.6-4.6l0.6,11.9l15.9,16.6L445.8,157.9z"/>
<path fill="#FFFFFF" stroke="#231F20" stroke-miterlimit="10" d="M448.5,132c-4.1-7.6-12.6-14.6-17.1-27.8c4.7-3.5,10.8-6.5,18.9-8
	h0C451.6,103.3,453.2,118.4,448.5,132z"/>
<path fill="#FFFFFF" stroke="#231F20" stroke-miterlimit="10" d="M474.3,188.2c0,0-9.3,12.1-9.6,20.7c-5,0.2-10.7,0-14.8-0.2
	c-0.2-2.1-3.4-14.7-7.4-20.6c6.2-9.4,8.8-13.4,8.8-13.4s-1.4-9.3-0.7-10.9c0.7-1.7,1.9-1.3,2.1-2.8c0.2-1.5,0.7-17.5-3.1-26.7
	c-0.3-0.7-0.7-1.5-1-2.2c4.7-13.5,3-28.7,1.8-35.8c3.6-0.7,7.6-1,12.1-1c-1,7.4-3,25.8,0.9,35.6c-4.7,9.2-6.1,26.8-4.3,29.8
	c2,3.4,3.8,2.4,3.7,6.3c-0.1,3.9-0.1,7-0.1,7L474.3,188.2z"/>
<path fill="#FFFFFF" stroke="#231F20" stroke-miterlimit="10" d="M476,97.7c-1.9,8.6-5.9,24.5-10.6,29.8c-0.8,0.9-1.5,2-2.2,3.3
	c-3.9-9.8-1.9-28.2-0.9-35.6c0.6,0,1.2,0,1.8,0C468.6,95.4,472.5,96.3,476,97.7z"/>
<path fill="#FFFFFF" stroke="#231F20" stroke-miterlimit="10" d="M493.5,112.3l-4.2,12.1c0,0-15.9,15-16.4,15.2
	c-0.5,0.2-3.7,16.9-3.7,16.9h-1.5l2.8-18.9l16.9-16.4l2.4-13.5C491.1,109.2,492.3,110.7,493.5,112.3z"/>
<path fill="#FFFFFF" stroke="#231F20" stroke-miterlimit="10" d="M494.6,160.5l-6.4,0.8c-5.6-2.2-11.7,0.5-14.4,2.7l-8.5,0.5
	c0.6-0.3,13.3-9.1,18.6-9.1C488.8,156.2,494.6,160.5,494.6,160.5z"/>
<path fill="none" stroke="#231F20" stroke-miterlimit="10" d="M464.7,208.9C464.7,208.9,464.7,208.9,464.7,208.9"/>
<path fill="#FFFFFF" stroke="#231F20" stroke-miterlimit="10" d="M414.1,206.1c0,0,0,0-4.5,1.2c-9.3-4.1-21.9-24.4-16.6-45.6
	c4-16,15-24.5,20.1-27.7c-1.3,5.8-1.8,10.5-1.8,10.5c0.3,0.6-6,10.4-6.2,15.8v0c-2.2,6.4,0,15.6,0,15.6s-0.4,1.8-3.3,6.4
	C400.9,190.9,414.1,206.1,414.1,206.1z"/>
<path fill="#FFFFFF" stroke="#231F20" stroke-miterlimit="10" d="M527.3,169.9c-3,18.5-18.4,32-18.4,32s-2.5-2.1-2.3-2.7
	c0.2-0.5,12.7-13,11.6-28.2c-2.4-1.6-5.6-4.4-7.1-8.1c0.5-0.8,0.9-1.7,1.3-2.6c2-5.7-4.6-16.6-7.5-24.6c-0.1-0.3-0.2-0.6-0.3-1
	c2.7-1.6,7-3.7,8.2-1.7C514.5,136.2,530.3,151.4,527.3,169.9z"/>
<path fill="#FFFFFF" stroke="#231F20" stroke-miterlimit="10" d="M473.8,164l0.9,3.4c0,0,3.4,0.1,6.3-0.2c2.9-0.4,6.2-2.5,7.2-5.8
	C482.6,159.1,476.5,161.9,473.8,164z M480.2,165c-0.9,0-1.5-0.7-1.5-1.5c0-0.9,0.7-1.5,1.5-1.5c0.9,0,1.5,0.7,1.5,1.5
	C481.8,164.4,481.1,165,480.2,165z"/>
<path fill="#FFFFFF" stroke="#231F20" stroke-miterlimit="10" d="M427.8,164.2c-0.2,0.1-0.3,0.2-0.5,0.2c4.6,4.6,9.3,5.7,14.3,5.5
	c1.2-1.9,2.1-4.2,2.1-4.2S434.8,161.1,427.8,164.2z M437.7,167.3c-0.8,0-1.4-0.6-1.4-1.4c0-0.8,0.6-1.4,1.4-1.4
	c0.8,0,1.4,0.6,1.4,1.4C439.1,166.7,438.5,167.3,437.7,167.3z"/>
<path fill="#FFFFFF" stroke="#231F20" stroke-miterlimit="10" d="M481.8,163.5c0,0.9-0.7,1.5-1.5,1.5c-0.9,0-1.5-0.7-1.5-1.5
	c0-0.9,0.7-1.5,1.5-1.5C481.1,162,481.8,162.6,481.8,163.5z"/>
<path fill="#FFFFFF" stroke="#231F20" stroke-miterlimit="10" d="M439.1,165.9c0,0.8-0.6,1.4-1.4,1.4c-0.8,0-1.4-0.6-1.4-1.4
	c0-0.8,0.6-1.4,1.4-1.4C438.5,164.5,439.1,165.2,439.1,165.9z"/>
<path fill="#FFFFFF" stroke="#231F20" stroke-miterlimit="10" d="M447.7,172.1c0,0-0.1,5.6-7.8,5.9c-7.7,0.4-14.3-10.7-14.3-10.7
	s10.2,5.6,13.5,6C442.4,173.9,447.7,172.1,447.7,172.1z"/>
<path fill="#FFFFFF" stroke="#231F20" stroke-miterlimit="10" d="M490.5,166.8c-1.5,1.5-8.1,9.1-12.1,9.5c-4.5,0.5-11.5-1.2-12-3.6
	c-0.6-3,6.3,0,10.8-1.2C481.2,170.5,488.8,167.7,490.5,166.8z"/>
<path fill="#FFFFFF" stroke="#231F20" stroke-miterlimit="10" d="M500.6,230.6c0,0-4,6.1-5.9,7.5c-0.5,0.5-1.1,1-1.7,1.4
	c-6.8,5.1-18.4,7.5-19.1,7.6c0,0-19.2,4.3-26.1,4c-1.5-0.2-3.1-0.6-4.6-1.1c-2.3-0.8-4.7-1.9-6.5-2.8c-2.2-1.1-3.7-2-3.7-2
	c0.3-4.3,0.3-8.5,0.1-12c8.3,6.3,18.2,7.9,25.5-3.6c7.2,6.4,22.3,12.1,35.5-6.4v0c1.5-1.1,2.7-2.2,3.6-3l2.5,8.8L500.6,230.6z"/>
<path fill="#FFFFFF" stroke="#231F20" stroke-miterlimit="10" d="M499.8,213.1c-0.9,1.9-1.8,3.6-2.7,5.2c-1,1.8-2.1,3.4-3.1,4.9v0
	c-3.9,3-9.5,6.7-15.4,8.2c-10.7,2.7-19.1-12.3-19.7-12.8c-0.6-0.5-1.9,10.1-13.2,14.4c-4.1,1.5-8.7,0.5-12.9-1.6
	c-1.7-0.8-3.4-1.8-4.9-2.8l0,0c-3-3.2-5.5-6.9-7.4-10.5c3.1,2.3,7.4,5.2,11.6,7c3.7,1.6,7.4,2.4,10.1,1.1c6.9-3.3,11-12.2,12.1-15
	c2.8,0,5.8-0.2,8.6-0.5c1.8,3.4,8,13.7,15.7,13.7C486.8,224.4,493.7,220,499.8,213.1z"/>
<path fill="#FFFFFF" stroke="#231F20" stroke-miterlimit="10" d="M523.3,234.5c-10.3-2.5-18.9-4.5-23.2-5.5l-2.5-8.8l-0.5-1.9
	c0.9-1.6,1.8-3.3,2.7-5.2v0c1.1-2.5,2.3-5.1,3.4-8.1c2.8,3.5,10.6,13.8,9.5,17.8C513.9,223,519.3,228.7,523.3,234.5z"/>
<path fill="#FFFFFF" stroke="#231F20" stroke-miterlimit="10" d="M436.5,255.2c-5.3,2.7-26.8,14.7-32.2,29.1c-1.8-1-3.3-1.7-4.5-1.8
	c-2.6-0.2-7.2,2.2-11.6,5c-3.3,2.1-6.6,4.5-8.7,6c0.4-3.4,0.7-6.1,0.9-7.2c0-0.3,0.1-0.5,0.1-0.5c0.2-0.8,4.6-9.4,6.2-12.7
	c0.4-0.8,0.7-1.3,0.7-1.3s39.2-20.9,45.4-26.6c0,0,1.5,0.9,3.7,2C436.7,249.8,436.6,252.5,436.5,255.2z"/>
<path fill="#FFFFFF" stroke="#231F20" stroke-miterlimit="10" d="M436.5,255.2c-1,19.2-7.5,42.1-10.5,43.6c-0.1,0.1-0.2,0.1-0.3,0.1
	c-2.8-0.2-14-10.4-21.3-14.6C409.6,269.9,431.2,257.9,436.5,255.2z"/>
<path fill="#FFFFFF" stroke="#231F20" stroke-miterlimit="10" d="M501.5,266.1c0,0-0.2,0-0.4,0c-2.7,0.2-16.6,1.5-22.6,2.8
	c-6.9-0.5-18.3-2.8-20.2-4.5c-1.4-1.2-9.1-0.7-13.2-0.3c-0.7-5.9-1.5-11.1-1.9-14.1c1.6,0.5,3.2,1,4.6,1.1c6.9,0.2,26.1-4,26.1-4
	c0.8-0.1,12.4-2.5,19.1-7.6c1.8,0.7,4,1.5,6.7,2.5L501.5,266.1z"/>
<path fill="#FFFFFF" stroke="#231F20" stroke-miterlimit="10" d="M504.1,285.3c-5.8-0.3-18.2,0.5-26.9,4.9
	c-16.9-5-26.6,3.2-26.6,3.2l-4.3,1.2c0.9-7.5-0.1-20.1-1.4-30.4c4.2-0.4,11.9-0.9,13.2,0.3c1.9,1.7,13.3,4,20.2,4.5
	c6-1.3,20-2.6,22.6-2.8C501.8,270,503.1,277.3,504.1,285.3z"/>
<path fill="#FFFFFF" stroke="#231F20" stroke-miterlimit="10" d="M548.7,270.5c-12.6,6.8-26.3,19.8-31,24.1c-3.4,3.2-8.6,2.3-12.4,1
	c-0.3-3.4-0.7-6.9-1.2-10.3c-1-8-2.4-15.3-3.1-19.1c0.3,0,0.4,0,0.4,0l-1.9-24.1C514.8,247.9,541.5,259.6,548.7,270.5z"/>
<path fill="#FFFFFF" stroke="#231F20" stroke-miterlimit="10" d="M505.8,303.9c-11.1-0.2-21.2-1.1-30.3,4.3
	c-6.4,0.4-13.5,5.8-18.6,10.7c-0.8-0.9-1.5-2-2.3-3.2c-3.4-5.5-6.2-13.3-8.3-20.3v0c0-0.3,0.1-0.5,0.1-0.8l4.3-1.2
	c0,0,9.6-8.2,26.6-3.2c8.7-4.4,21.1-5.1,26.9-4.9c0.5,3.4,0.9,6.9,1.2,10.3C505.5,298.5,505.7,301.3,505.8,303.9z"/>
<path fill="#FFFFFF" stroke="#231F20" stroke-miterlimit="10" d="M424.3,305.3c-6.8-0.9-15-5.2-20.5-11c-4.2-4.5-11.4-5.7-15.5-6.8
	c4.4-2.8,9-5.2,11.6-5c1.2,0.1,2.7,0.8,4.5,1.8c7.3,4.2,18.5,14.4,21.3,14.6c0.1,0,0.2,0,0.3-0.1
	C427.4,301.8,428.7,305.9,424.3,305.3z"/>
<path fill="#FFFFFF" stroke="#231F20" stroke-miterlimit="10" d="M406.6,313.9l-5.3,2.6c0,0-6.3-1.8-12.7-3.5
	c-0.6-4.5-1.2-15.6,7.2-16C403.5,296.7,405.9,308,406.6,313.9z"/>
<path fill="#FFFFFF" stroke="#231F20" stroke-miterlimit="10" d="M446.3,294.6l-0.3,0.1c0.1,0.2,0.2,0.5,0.2,0.7v0
	c-0.1,0.8-0.3,1.5-0.4,2.1c-2.3,8.6-7.2,19.4-12.9,24.8c-1.6,1.5-3.2,2.6-4.9,3.1c1.2-6.6,0.3-10.9,0.3-10.9h-15.1l-3.9-2l-2.7,1.3
	c-0.7-6-3.1-17.2-10.8-16.9c-8.4,0.4-7.8,11.5-7.2,16c-4.2-1.1-8.4-2.2-11-2.6c0.6-5,1.4-11.7,2-16.8c2.1-1.6,5.3-3.9,8.7-6
	c4.1,1.1,11.4,2.3,15.5,6.8c5.5,5.9,13.7,10.2,20.5,11c4.4,0.6,3.1-3.5,1.7-6.5c3.1-1.5,9.5-24.5,10.5-43.6c0.1-2.8,0.2-5.4,0.1-7.9
	c1.8,0.9,4.2,2,6.5,2.8c0.5,3.1,1.2,8.2,1.9,14.1C446.2,274.5,447.3,287.1,446.3,294.6z"/>
<path fill="#FFFFFF" stroke="#231F20" stroke-miterlimit="10" d="M386.8,273.1c-1.7,3.3-6.1,12-6.2,12.7c0,0.1,0,0.2-0.1,0.5
	c-10.2,6.1-13.3,12.1-14.6,14.7c-0.4,0.7-0.6,1.2-0.8,1.3c-1,0.5-20.2-2-31.3-0.3c-0.6,0.1-1.2,0.2-1.8,0.3
	C350.9,284.6,376.2,276.1,386.8,273.1z"/>
<path fill="#FFFFFF" stroke="#231F20" stroke-miterlimit="10" d="M399.1,328.6L372.2,354c0,0-1.1,6-1.9,11.5
	c-0.2-0.4-0.4-0.8-0.6-1.1c-6.4-10-16.1-5.1-16.1-5.1s0.3-19.1,1-20.3c0.3-0.4,3.3-3.4,7-7.1c1.4-1.4,2.9-2.8,4.4-4.3
	c3.5-3.4,6.9-6.7,8.9-8.6C380,320.7,399.1,328.6,399.1,328.6z"/>
<path fill="#FFFFFF" stroke="#231F20" stroke-miterlimit="10" d="M369.5,310.1c-0.8,0.9-3.8,3.9-4.6,8.6
	c-10.9-0.7-56.3-0.7-46.7,51.2c-3.1-10.5-5.8-27.1-0.8-41.5c4.7-13.4,11.2-22,16.4-26.4c11.1-1.7,30.3,0.8,31.3,0.3
	c0.2-0.1,0.4-0.5,0.8-1.3C367.4,303.6,370.4,309,369.5,310.1z"/>
<path fill="#FFFFFF" stroke="#231F20" stroke-miterlimit="10" d="M352.3,401.9c0.2,0,0.5,0,0.7,0l-6.4,67.8l-5-2.8l0,0
	c0,0-0.2-38.3,0-42.4c0.1-1.7-2.7-9.2-6.2-17.6v0c-5.1-12.2-11.6-26.2-12.8-26.7c-0.7-0.4-2.6-4.3-4.4-10.3c0,0,0,0,0-0.1
	c-9.7-51.9,35.8-51.9,46.7-51.2c-0.5,2.5-0.3,5.6,1.2,9c-1.5,1.4-3,2.9-4.4,4.3c-7.1-2.2-18.5-3.7-28.9,4.3
	C316.4,349.1,332.1,390.2,352.3,401.9z"/>
<path fill="#FFFFFF" stroke="#231F20" stroke-miterlimit="10" d="M380.5,286.4c-0.2,1.1-0.5,3.8-0.9,7.2c-0.6,5.1-1.4,11.8-2,16.8
	c-0.5,4.1-0.8,7.1-0.8,7.1s-0.7,0.6-1.8,1.7c-2,1.9-5.4,5.2-8.9,8.6c-1.5-3.5-1.7-6.5-1.2-9c0.8-4.7,3.9-7.7,4.6-8.6
	c1-1.1-2.1-6.5-3.6-9C367.2,298.5,370.3,292.5,380.5,286.4z"/>
<path fill="#FFFFFF" stroke="#231F20" stroke-miterlimit="10" d="M378.2,384c-0.9,3.1-1.8,8.7-1.7,18.2c-4.2,0.2-12.5,0.5-23.5-0.2
	c-0.2,0-0.5,0-0.7,0c-20.2-11.8-35.9-52.9-19.5-65.6c10.4-8,21.8-6.5,28.9-4.3c-3.7,3.7-6.8,6.7-7,7.1c-0.7,1.2-1,20.3-1,20.3
	s9.7-4.9,16.1,5.1c0.2,0.3,0.4,0.7,0.6,1.1C372.3,369.1,375,375.8,378.2,384z"/>
<path fill="#FFFFFF" stroke="#231F20" stroke-miterlimit="10" d="M412.9,444c-6.6-4.9-12.5-13.4-17.9-23c-3.3-6-6.4-12.4-9.2-18.8
	c-2.8-6.4-5.3-12.7-7.6-18.3c-3.2-8.2-5.9-14.9-7.8-18.4c0.8-5.5,1.9-11.5,1.9-11.5s26.8,35.4,40.2,74.5c-1.3,0.1-2.5,0.2-3.6,0.3
	C401.3,429.7,410,438.6,412.9,444z"/>
<path fill="#FFFFFF" stroke="#231F20" stroke-miterlimit="10" d="M395,421c-0.5,8.6-1.5,26.6-2.8,38.8c-1.8-2.3-4.6-3.4-8.6-3
	c-0.5-14.5,1.5-44.9,2.2-54.6C388.6,408.6,391.7,415,395,421z"/>
<path fill="#FFFFFF" stroke="#231F20" stroke-miterlimit="10" d="M413,468.3c-2.4,1.8-4.9,3.5-7.4,4.9h0c-3.9,2.3-7.7,4.2-10.5,5.5
	c0.7-8,0.3-15-2.7-18.8c1.3-12.2,2.3-30.2,2.8-38.8c5.3,9.6,11.3,18.1,17.9,23C412.9,444,411.6,454.5,413,468.3z"/>
<path fill="#FFFFFF" stroke="#231F20" stroke-miterlimit="10" d="M383.6,456.8c-1.6,0.2-3.5,0.6-5.6,1.4c0-4.3,0-24-1.3-46.7
	c-0.2-3.5-0.3-6.6-0.3-9.4c0-9.5,0.9-15.1,1.7-18.2c2.2,5.6,4.8,11.9,7.6,18.3C385.1,411.9,383.1,442.3,383.6,456.8z"/>
<path fill="#FFFFFF" stroke="#231F20" stroke-miterlimit="10" d="M383.9,516.2c-5.2,2.6-14.9,9.1-18.4,23c-3.5,13.9-4.9,20.4-5.3,23
	c-0.2,1-0.3,1.4-0.3,1.4s-8.5,6.4-13.8,9.6c-1.6-9.5-0.6-23.8,0.2-32.6c0,0,0,0,0,0c3.2-8,6.6-14.6,9.8-20.1
	c4-6.7,7.6-11.6,10.2-14.7c0.2,0.9,0.5,1.7,0.8,2.3c1.6,3.2,7.1,5,12.7,3.4C381.3,512.9,382.9,514.5,383.9,516.2z"/>
<path fill="#FFFFFF" stroke="#231F20" stroke-miterlimit="10" d="M372.2,562.5c-4.2,0.2-8.8-0.1-12-0.3c0.5-2.6,1.8-9.1,5.3-23
	c3.5-13.9,13.1-20.4,18.4-23c0.4,0.6,0.7,1.2,0.9,1.8C385.8,521.5,379.6,545.2,372.2,562.5z"/>
<path fill="#FFFFFF" stroke="#231F20" stroke-miterlimit="10" d="M372.2,562.5c-2.2,5-4.4,9.5-6.6,12.8c-3.7,5.5-9.2,13.8-14.6,23.1
	l-3.6-20.5c-0.5-1.4-0.9-3-1.2-4.7c5.3-3.2,13.8-9.6,13.8-9.6s0.1-0.4,0.3-1.4C363.4,562.4,368,562.6,372.2,562.5z"/>
<path fill="#FFFFFF" stroke="#231F20" stroke-miterlimit="10" d="M350.9,598.4L350.9,598.4c-9,15.4-17.8,33.7-18.1,46.8
	c0,0.1,0,0.2,0,0.3c-2.6-0.5-5.6,0.4-8.5,1.9c1-26.9,23-69.5,23-69.5L350.9,598.4z"/>
<path fill="#FFFFFF" stroke="#231F20" stroke-miterlimit="10" d="M332.8,645.5c-0.5,20.6-8.3,23.2-9,23.4c-0.3,0.1-1-1.8-2.1-4.4v0
	c-1.4-3.2-3.5-7.6-6.4-11c2.2-1.8,5.5-4.3,9-6.1C327.2,645.9,330.2,645,332.8,645.5z"/>
<path fill="#FFFFFF" stroke="#231F20" stroke-miterlimit="10" d="M346.6,469.8c0,0-0.1,0-0.2,0.1c-1.1,0.6-5.6,3.8-9.4,12.5
	c-1,2.3-2,5.1-2.8,8.3c0,0,0,0,0,0c-1.5,5.8-1.8,14.1-1.7,23.1c0.1,10.1,0.7,21,0.4,29.8c-0.2,6.2-0.8,11.4-2.2,14.6
	c-5.2,11.9-14,24.2-14,24.2l-0.8,0.7l-16.7,15c1.1-9,2.1-16.4,2.8-18.1c1.7-4.5,10.5-46.6,15.7-69.1c5.2-22.6,16.5-37.8,16.5-37.8
	l7.5-6.2L346.6,469.8z"/>
<path fill="#FFFFFF" stroke="#231F20" stroke-miterlimit="10" d="M315.8,583.1c-1.2,15.8-5,50-8.9,65.1h0c-4.1-0.5-8.2,1-11.5,1.4
	c-1.6,0.2-3,0.1-4.2-0.6c-4.5-2.9,1.2-3.1,2.9-10.9c1-4.9,3.2-24.7,5.1-39.9L315.8,583.1z"/>
<path fill="#FFFFFF" stroke="#231F20" stroke-miterlimit="10" d="M378,458.2c0,0.6,0,0.9,0,0.9s-4.9,7.8-5.8,13
	c-8.4-3.4-20-2.7-25.9-2.2c0.2-0.1,0.2-0.1,0.2-0.1L353,402c11,0.7,19.2,0.4,23.5,0.2c0,2.8,0.1,5.9,0.3,9.4
	C378,434.2,378,453.9,378,458.2z"/>
<path fill="#FFFFFF" stroke="#231F20" stroke-miterlimit="10" d="M372.2,475c-3.1-0.1-5.2,5.8-6.1,12.7c-4-0.1-8,0.1-10.5,0.8
	c-3-2-13.5-4.8-18.6-6.2c3.8-8.7,8.3-11.8,9.4-12.5c5.8-0.5,17.4-1.2,25.9,2.2C372,473.2,372,474.2,372.2,475z"/>
<path fill="#FFFFFF" stroke="#231F20" stroke-miterlimit="10" d="M365.6,499.1c-4.5,0.2-9.8,0.9-13.8,2.8
	c-1.4-1.9-11.8-7.9-17.7-11.1c0,0,0,0,0,0c0.8-3.2,1.8-6,2.8-8.3c5.1,1.3,15.6,4.2,18.6,6.2c2.6-0.7,6.6-0.9,10.5-0.8
	C365.7,491.5,365.5,495.5,365.6,499.1z"/>
<path fill="#FFFFFF" stroke="#231F20" stroke-miterlimit="10" d="M366.4,505.7c-2.5,3.1-6.2,7.9-10.2,14.7c-8.1-4-17.9-5.8-23.8-6.6
	c-0.1-9,0.2-17.3,1.7-23.1c5.9,3.3,16.3,9.3,17.7,11.1c4-1.8,9.3-2.5,13.8-2.8C365.7,501.6,366,504,366.4,505.7z"/>
<path fill="#FFFFFF" stroke="#231F20" stroke-miterlimit="10" d="M356.2,520.4c-3.2,5.5-6.7,12.2-9.8,20.1c0,0,0,0,0,0
	c-2.5,6.4-4.9,13.5-6.9,21.5c-9.8,38.8-14.7,68-26.6,89c-0.3-0.3-0.7-0.6-1.1-0.8c-1.6-1.1-3.2-1.7-4.9-1.9
	c3.9-15,7.7-49.3,8.9-65.1l0.8-0.7c0,0,8.8-12.4,14-24.2c1.4-3.2,2-8.4,2.2-14.6c0.3-8.8-0.3-19.7-0.4-29.8
	C338.3,514.6,348.1,516.4,356.2,520.4z"/>
<path fill="#FFFFFF" stroke="#231F20" stroke-miterlimit="10" d="M392.2,459.8c-1.8-2.3-4.6-3.4-8.6-3c-1.6,0.2-3.5,0.6-5.6,1.4
	c0,0.6,0,0.9,0,0.9s-4.9,7.8-5.8,13c-0.2,1.1-0.2,2.2,0,2.9c-3.1-0.1-5.2,5.8-6.1,12.7c-0.5,3.7-0.7,7.8-0.6,11.4
	c0.1,2.6,0.4,4.9,0.8,6.7c0.2,0.9,0.5,1.7,0.8,2.3c1.6,3.2,7.1,5,12.7,3.4c5.7-1.6,11.5-6.9,13.2-17.9c0.8-5,1.6-10.1,2-14.8v0
	C395.6,470.6,395.3,463.6,392.2,459.8z M378.7,494c-1.5-0.2-1.7-2.5-1.2-5.6c1.2-7.2,6.3-18.4,8.6-16.7c3.7,2.7,4.9,5.8,4.8,8.8
	C390.5,487.7,382.2,494.5,378.7,494z"/>
<path fill="#FFFFFF" stroke="#231F20" stroke-miterlimit="10" d="M390.8,480.5c-0.3,7.2-8.7,14-12.2,13.5c-1.5-0.2-1.7-2.5-1.2-5.6
	c1.2-7.2,6.3-18.4,8.6-16.7C389.7,474.3,391,477.5,390.8,480.5z"/>
<path fill="#FFFFFF" stroke="#231F20" stroke-miterlimit="10" d="M347.3,577.9c0,0-22,42.6-23,69.5c-3.5,1.7-6.8,4.2-9,6.1
	c-0.7-0.9-1.5-1.7-2.4-2.4c11.8-21,16.8-50.2,26.6-89c2-8,4.4-15.1,6.9-21.5c-0.9,8.9-1.8,23.1-0.2,32.6
	C346.4,574.9,346.8,576.5,347.3,577.9z"/>
<path fill="#FFFFFF" stroke="#231F20" stroke-miterlimit="10" d="M321.7,664.5L321.7,664.5c-1.8,6.7-7.1,12.1-7.8,12.7
	c0-0.1,0-0.3-0.6-0.6c-0.3-0.2-0.8-0.3-1.5-0.5c-1.6-0.5-4.4-1.1-9.1-1.8c-4-0.7-8.1,0.9-11.8,3.3c-8,5.2-14.1,14.7-14.4,15.1
	c0-0.1,0.4-1.2,0.9-2.9v0c1.7-5.4,5.5-17,7.6-20.8c2-3.5,7.4-13.5,10.5-19.3c3.3-0.4,7.4-1.9,11.5-1.4h0c1.7,0.2,3.3,0.8,4.9,1.9
	c0.4,0.3,0.7,0.5,1.1,0.8c0.9,0.7,1.6,1.5,2.4,2.4C318.1,656.8,320.2,661.2,321.7,664.5z"/>
<path fill="#FFFFFF" stroke="#231F20" stroke-miterlimit="10" d="M282.2,714.3c0.3,0.7,0.5,1.8,0.7,3c0.8,4.8,1,12.7-0.7,15.5
	c3.2,5.2,8.8,15.9,8.5,19.1c-0.3,3.2-7.1,12.5-22.4-17.2v0c0,0,0,0,0,0c-1.8-11.6-0.1-22.8,1-26.1c1.1-3.3,5-13.2,7.9-19
	c-0.5,1.7-0.9,2.7-0.9,2.9c0.3-0.4,6.4-9.8,14.4-15.1c0,3.1,0.4,8.1,3.2,12.1c1.1,1.6,2,3,2.8,4.4c0,0,0,0,0,0
	C293.9,698.9,284,713,282.2,714.3z"/>
<path fill="#FFFFFF" stroke="#231F20" stroke-miterlimit="10" d="M318.1,700c-0.1,6.7-13.6,26.2-16.7,28.4c-4.6-3.8-6.9,0.4-8,1.7
	c-0.2,0.2-0.4,0.4-0.5,0.4c-0.9,0-1.1-4.6-3.5-6c-0.3-0.2-0.6-0.3-1-0.4c-0.4-3.8-3.3-5.9-5.3-6.8c-0.2-1.2-0.5-2.3-0.7-3
	c1.7-1.4,11.7-15.4,14.6-20.4c2.3,4.2,3.4,7.7,4.9,11.3c2,4.8,8.9,11.4,10.9,4.1c2.1-7.3-1-14.6-1.4-20.3c-0.3-4,0.5-9.2,0.5-12.9
	c0.7,0.2,1.2,0.4,1.5,0.5C314.7,681.8,318.2,694.6,318.1,700z"/>
<path fill="#FFFFFF" stroke="#231F20" stroke-miterlimit="10" d="M303.5,772.4c-2.4,2-7,2.4-12.7-3.3c-3,0.2-11-5.4-18.3-20.4
	c-2.1-4.3-3.4-9.1-4.1-13.8c15.3,29.7,22.1,20.3,22.4,17.2c0.3-3.2-5.3-13.9-8.5-19.1c1.7-2.8,1.5-10.7,0.7-15.5c2,0.9,5,3,5.3,6.8
	c0.4,0.1,0.7,0.2,1,0.4c2.4,1.4,2.6,6,3.5,6c0.1,0,0.3-0.2,0.5-0.4c-0.2,2.9-0.5,5.8-0.5,6.1c-0.1,0.7,3.5,11.8,2.2,15.9
	c0.7-0.2,8.2,9.8,9.9,13.5C306.7,769.4,304.4,772.7,303.5,772.4z"/>
<path fill="#FFFFFF" stroke="#231F20" stroke-miterlimit="10" d="M312.4,767.8c-1.1,2.7-3.5,6.7-8.9,4.6c0.9,0.3,3.3-3,1.5-6.7
	c-1.7-3.7-9.2-13.7-9.9-13.5c1.2-4.1-2.4-15.2-2.2-15.9c0-0.3,0.3-3.2,0.5-6.1c1.1-1.3,3.4-5.5,8-1.7c-0.1,0.1-0.2,0.2-0.3,0.2
	c-1.2,2.6,0,17.4-1.2,19.7c1.3,2.5,4,11.8,4,11.8S313.4,765,312.4,767.8z"/>
<path fill="#FFFFFF" stroke="#231F20" stroke-miterlimit="10" d="M312.6,709.4c-2.1,7.3-9,0.7-10.9-4.1c-1.5-3.6-2.5-7.1-4.9-11.3
	c0,0,0,0,0,0c-0.8-1.4-1.7-2.8-2.8-4.4c-2.8-3.9-3.3-8.9-3.2-12.1c3.7-2.4,7.8-3.9,11.8-3.3c4.7,0.8,7.5,1.4,9.1,1.8
	c0,3.7-0.8,9-0.5,12.9C311.6,694.7,314.7,702,312.6,709.4z"/>
<path fill="none" stroke="#231F20" stroke-miterlimit="10" d="M289.5,720.9c0,0-0.5,13.5-1.4,14.4c2.9,5.9,4.2,18.9,4.2,18.9
	s5.4,6.4,3.5,9.4c-2,3-2.5,5.2-7.7,4.6"/>
<path fill="#FFFFFF" stroke="#231F20" stroke-miterlimit="10" d="M710.9,412.5c-2.4-2.4-4.6-4-6.1-4.9c0.1-3.4,0.2-6.4,0.6-8.4
	c0.6-3.3,1-6.6,1.3-9.8C709,394.2,711.3,401.8,710.9,412.5z"/>
<path fill="#FFFFFF" stroke="#231F20" stroke-miterlimit="10" d="M725.6,448.8c-7.5-4.2-15.6-2.3-19.9-0.6
	c-1.7-4.1-3.5-7.6-4.9-10.2c1.1-1.3,2.1-2.8,3.1-4.6c0,0,0,0,0,0c0.9-1.2,1.4-1.9,1.4-1.9s0-0.3,0-0.8c-0.2-3-0.7-14.3-0.6-23.1
	c1.5,0.9,3.7,2.5,6.1,4.9v0C716.8,418.4,724.1,429.5,725.6,448.8z"/>
<path fill="#FFFFFF" stroke="#231F20" stroke-miterlimit="10" d="M743.3,538.8c-3.9,32.8-16.4,55.6-19.6,70.9
	c-2.5,12,0.4,25.3-4,29.2c0.6-8.3-10.6-14.9-15-18.5c-0.2-0.2-0.5-0.4-0.7-0.5c2.4-14,9.5-35.5,17-47.8c7.1-11.6,9.5-26.4,10.4-34.7
	c3.7-7.4,6.6-16.1,6.9-24.9c0.3-9.2-2.4-18.5-5.9-26.6v0c-3.4-7.9-7.6-14.6-10.5-18.8c-1.8-2.6-5.3-3.1-7.8-1.2
	c-5.9,4.6-15.7,12.3-16.5,13.5c-1.2,1.7-9.5,45.2-5.9,55.2c3.6,10,21.2,25.4,22.7,25.7c0.2,0,0.5-0.2,1-0.6
	c-1.5,3.3-3.2,6.7-3.6,6.3c-0.4-0.4-8.8-6.4-16.3-14.2c-3-3.1-6-6.6-8.2-10.1c-6-9.5-3.1-32-1.5-41.6c0.6,0,1.1-0.4,1.5-1.1
	c1.5-2.6,2.3-10,5.3-18.9c2.7-8.1,7.2-17.5,15.6-25.8c-0.8-2.1-1.6-4.2-2.4-6.1c4.2-1.7,12.4-3.6,19.9,0.6c1.6,0.9,3.2,2.1,4.7,3.6
	C741.8,464.1,747.2,506,743.3,538.8z"/>
<path fill="#FFFFFF" stroke="#231F20" stroke-miterlimit="10" d="M719.7,639c-1.2,1.1-2.9,1.5-5.5,1c-1.1-1.2-2.2-2.3-3.2-3.3
	c-2.7-2.7-5.3-4.8-7.8-6.6c-6.2-4.4-11.6-6.1-16.3-5.8c-3.4,0.2-6.5,4.2-8.8,8.5c-5.5-1.9-9.4-5.7-10-4.9c-0.1,0.2-0.2,0.8-0.3,1.6
	c-0.7-0.6-1.5-1.5-2-2.5c1.2-0.7,2.4-1.6,3.7-2.5c6.3-0.9,14.3-2.4,17.8-3.9c5.7-2.6,11.9-3.8,16.7-0.5c0.2,0.2,0.5,0.3,0.7,0.5
	C709.1,624,720.3,630.7,719.7,639z"/>
<path fill="#FFFFFF" stroke="#231F20" stroke-miterlimit="10" d="M678.1,632.7c-2.8,5.1-4.5,10.5-4.5,10.5h-5.5
	c0,0-0.5-9.8-0.3-13.8c0-0.9,0.1-1.5,0.3-1.6C668.7,627,672.5,630.8,678.1,632.7z"/>
<path fill="#FFFFFF" stroke="#231F20" stroke-miterlimit="10" d="M696.1,592.6c-4.7,11.4-16.9,24.5-26.6,31.7
	c-1.6,0.2-3,0.4-4.3,0.6c-0.1-0.7,0-1.4,0.3-2.1c1.7-4,13.1-11.4,16.4-37.5c1.1-8.5,1.2-15.9,0.8-22.1c-4.8-4.8-11.8-12.9-12.2-20
	c-0.7-10.9-4.3-31.6-1.4-37.1c1.4-2.6,4.4-7.4,7.1-11.8c0.5-0.7,0.9-1.5,1.4-2.2c2.3,3.3,5.9,8.1,8.3,7.9c-1.6,9.5-4.5,32,1.5,41.6
	c2.2,3.5,5.1,7,8.2,10.1C697.1,558.9,701.3,579.9,696.1,592.6z"/>
<path fill="#FFFFFF" stroke="#231F20" stroke-miterlimit="10" d="M692.6,480.1c-3,8.9-3.8,16.2-5.3,18.9c-0.4,0.7-0.9,1-1.5,1.1
	c-2.4,0.2-6-4.5-8.3-7.9c-0.4,0.7-0.9,1.4-1.4,2.2c-2.2-2-4.2-4.2-6.1-6.4c4-5.1,9.9-11.7,15.8-17
	C687.7,474.4,689.9,477.6,692.6,480.1z"/>
<path fill="#FFFFFF" stroke="#231F20" stroke-miterlimit="10" d="M685.8,471c-5.9,5.2-11.8,11.8-15.8,17c-4.3-5.2-7.6-10.7-10-16
	c5.2-4,13.4-9,21-12.1C682.2,463.5,683.8,467.4,685.8,471z"/>
<path fill="#FFFFFF" stroke="#231F20" stroke-miterlimit="10" d="M708.2,454.3c-8.3,8.4-12.8,17.7-15.6,25.8
	c-2.7-2.6-4.9-5.7-6.8-9.1c-2-3.7-3.6-7.6-4.8-11.2c-1.4-4-2.2-7.7-2.8-10.2c4.5,0,8.3,0,10.3-0.2h0c0.7,0,1.1-0.1,1.4-0.2
	c1.4-0.3,5-4.5,8.5-8.8c0,0,0,0,0,0c0.8-0.8,1.6-1.6,2.4-2.5c1.5,2.6,3.2,6.1,4.9,10.2C706.6,450.1,707.4,452.2,708.2,454.3z"/>
<path fill="#FFFFFF" stroke="#231F20" stroke-miterlimit="10" d="M681,459.9c-7.6,3.1-15.8,8.1-21,12.1c-4.2-9.2-6.2-17.7-7-22.5
	c6.8,0.1,17.2,0.2,25.3,0.2C678.8,452.2,679.7,455.8,681,459.9z"/>
<path fill="#FFFFFF" stroke="#231F20" stroke-miterlimit="10" d="M732.3,486c-5.2,1.6-19.8,7.6-22.1,24c-2.3,15.8-0.2,36.9,5.6,48.8
	c0,0.1,0.1,0.3,0.2,0.4c3.2-2.9,10.1-11.1,15.4-21.7c3.7-7.4,6.6-16.1,6.9-24.9C738.5,503.3,735.8,494,732.3,486z M718.7,552.5
	c-0.9-0.2-2.6-10.9-2.6-10.9l9.7,0.7C725.8,542.4,719.6,552.7,718.7,552.5z M729.2,514.5c-0.7,0.2-13.1-1.9-13.1-1.9
	c2.2-8.3,7.5-14.6,15.7-19C731.8,493.5,729.9,514.2,729.2,514.5z"/>
<path fill="#FFFFFF" stroke="#231F20" stroke-miterlimit="10" d="M732.3,486L732.3,486c-5.2,1.6-19.8,7.6-22.1,24
	c-2.3,15.8-0.2,36.9,5.6,48.8c-0.1,0.3-0.3,0.6-0.4,0.9c-0.5,0.4-0.9,0.6-1,0.6c-1.5-0.2-19.1-15.7-22.7-25.7
	c-3.6-10,4.8-53.5,5.9-55.2c0.8-1.2,10.6-8.9,16.5-13.5c2.5-1.9,6-1.4,7.8,1.2C724.7,471.4,728.9,478,732.3,486z"/>
<path fill="#FFFFFF" stroke="#231F20" stroke-miterlimit="10" d="M731.8,493.5c0,0-1.9,20.7-2.6,20.9c-0.7,0.2-13.1-1.9-13.1-1.9
	C718.3,504.3,723.6,498,731.8,493.5z"/>
<path fill="#FFFFFF" stroke="#231F20" stroke-miterlimit="10" d="M725.8,542.4c0,0-6.2,10.3-7.1,10.1c-0.9-0.2-2.6-10.9-2.6-10.9
	L725.8,542.4z"/>
<path fill="#FFFFFF" stroke="#231F20" stroke-miterlimit="10" d="M731.3,537.4c-0.9,8.4-3.3,23.2-10.4,34.7
	c-7.5,12.3-14.6,33.8-17,47.8c-4.7-3.3-11-2-16.7,0.5c-3.4,1.5-11.4,3-17.8,3.9c9.6-7.2,21.8-20.3,26.6-31.7
	c5.3-12.7,1-33.7-0.6-40.9c7.6,7.9,15.9,13.8,16.3,14.2c0.4,0.4,2.1-3.1,3.6-6.3c0.2-0.2,0.4-0.3,0.6-0.5
	C719.1,556.2,726,548,731.3,537.4z"/>
<path fill="#FFFFFF" stroke="#231F20" stroke-miterlimit="10" d="M711,636.6l-0.4,12.4c-3.1-1.9-7.5-4.1-12.7-4.5
	c-9.8-0.9-24.6,0.3-26.2,1.4c-0.3,0.2-0.9,0.8-1.7,1.7c1.3-1.5,2.1-3.1,2.5-4.4h1.1c0,0,1.8-5.4,4.5-10.5c2.3-4.3,5.4-8.3,8.8-8.5
	c4.8-0.3,10.1,1.4,16.3,5.8C705.6,631.8,708.2,634,711,636.6z"/>
<path fill="#FFFFFF" stroke="#231F20" stroke-miterlimit="10" d="M724.6,713.1c-0.2,1-0.6,1.9-1,2.9c-2.4-2.1-6.4-1.5-10.3,1.7v0
	c0.1-4.7-8.8-5.7-13-2.6c-0.1-4.7-11.2-7.5-16.1-6h0c-2.3-10.5-15.2-9.7-21.6-8.5c0-0.3,0-0.6,0-0.8c-0.5-3-6.8-7.5-6.8-7.5l-1,1.2
	c0.4-0.6,6.7-10.2,7.6-13.8c0.6-2.1-0.3-10.5-1.3-17.4c6.4,1.5,16.4,4.2,23.8,8.4c10.7,6,22.4,14.2,31.7,10.7
	c1.6,9.4,3.7,17.4,3.7,17.4S725.7,708.6,724.6,713.1z"/>
<path fill="#FFFFFF" stroke="#231F20" stroke-miterlimit="10" d="M684.2,709c-1.2,1.1-2.9,2.7-4.6,4.4c-3.5,3.6-5.5,18.4-9.8,26.9
	c-1.6,3.1-3.9,7.6-6.5,12.1c-4.5,7.6-9.9,15.2-14,15.4c-6.4,0.4-1.6-16.4,0-20.3c-0.4-3.4,7.5-18.9,8.5-22.3
	c-0.5-2.5,4.4-19.9,4.7-24.7C669,699.3,681.9,698.6,684.2,709z"/>
<path fill="#FFFFFF" stroke="#231F20" stroke-miterlimit="10" d="M662.4,679.6c-1,3.7-7.2,13.2-7.6,13.8c0,0,0,0,0,0l-9.9,11.8
	c0,0-4.3,10-9.8,12.6c-4.3,5-13.5,3.2-13.5,0c0-3.2,16.6-38.8,27.6-48.6c2.8-2.5,5.6-5.2,8.2-7.9c1,0.2,2.3,0.5,3.8,0.8
	C662.2,669.1,663,677.5,662.4,679.6z"/>
<path fill="#FFFFFF" stroke="#231F20" stroke-miterlimit="10" d="M716.6,681.3c-9.3,3.5-21-4.7-31.7-10.7
	c-7.4-4.2-17.4-6.9-23.8-8.4c-0.2-1.5-0.4-2.8-0.6-4.1c4.1-4.4,7.5-8.3,9.4-10.5c0.8-0.9,1.4-1.5,1.7-1.7c1.6-1.1,16.4-2.3,26.2-1.4
	c5.2,0.5,9.6,2.6,12.7,4.5c2.4,1.5,4,2.9,4.3,3.2c0,2.6,0.1,6.5,0.1,12.4C715,669.7,715.7,675.7,716.6,681.3z"/>
<path fill="#FFFFFF" stroke="#231F20" stroke-miterlimit="10" d="M700.3,715c-0.7,1.9-1.6,3.7-2.4,4.7c-1.8,2-6.1,23-7.3,26.6
	c-1.2,3.6-6.9,6.4-8.9,10c-1.3,2.3-4.1,7.3-6.8,11.6v0c-1.4,2.3-2.8,4.3-3.9,5.7c-3.2,3.9-6.4,1.6-8-1.4c-1-1.9-0.3-12.2,0.4-19.7
	c2.6-4.4,4.9-8.9,6.5-12.1c4.3-8.6,6.3-23.4,9.8-26.9c1.7-1.8,3.3-3.3,4.6-4.4h0C689.1,707.6,700.2,710.4,700.3,715z"/>
<path fill="#FFFFFF" stroke="#231F20" stroke-miterlimit="10" d="M713.3,717.7L713.3,717.7c-2,4.3-4.2,14.8-7,22
	c-3,7.7-8.9,13.4-12.1,18.4c-1.2,1.8-1.8,4.3-2.7,6.9c-1.5,4.5-3.4,9.1-9.3,9.3c-5.6,0.2-7-3.5-7.2-6.4v0c2.7-4.3,5.5-9.3,6.8-11.6
	c2-3.6,7.7-6.4,8.9-10c1.2-3.6,5.5-24.6,7.3-26.6c0.8-0.9,1.7-2.8,2.4-4.7C704.5,712,713.3,713,713.3,717.7z"/>
<path fill="#FFFFFF" stroke="#231F20" stroke-miterlimit="10" d="M723.6,716c-1.3,3.3-3.6,6.9-6.5,14.8c-3.7,10.2-3.4,14.8-6.9,17.1
	c-3.6,2.3-6.1,10.2-10.9,14.8c-3.1,3-6.1,2.8-7.9,2.3c0.9-2.6,1.5-5.1,2.7-6.9c3.2-5,9.1-10.7,12.1-18.4c2.8-7.1,5-17.7,7-22
	C717.2,714.4,721.2,713.9,723.6,716z"/>
<path fill="#FFFFFF" stroke="#231F20" stroke-miterlimit="10" d="M469.1,424.5c-1-0.1-1.9-0.2-2.9-0.3c-1.5-0.1-3,0-4.5,0.2
	c-2.4-12.1-0.5-34.9,3.4-43.4c4.2-9.4,9.5-29.9,7.9-37c-0.2,10.8-6.4,20.4-12.5,36.1c-6.1,15.7-1.8,45-1.8,45
	c-2.8,0.9-5,2.6-6.1,5.2c-0.2,0.4-0.3,0.9-0.4,1.3c-1.8,7.3-20.4,7.9-21.8,2.2c-0.2-0.8-0.7-1.6-1.3-2.2c-3.1-2.9-10.5-3.5-16.5-3.2
	c-13.4-39.1-40.2-74.5-40.2-74.5l26.8-25.4c0,0,10.7-2.3,19.4-2c-0.4,1.4-1.2,4.7-1.8,9.7c-0.8,5.8-1.4,13.9-1,24.1
	c0,1.5,0.1,3.1,0.2,4.7c0.2,3,0.4,6.1,0.8,9.3c1.3,11.6,4,22.6,7.1,31.8c2.8,8.2,5.9,15.1,8.5,19.9c2.3,4.2,4.2,6.7,5.3,7.1
	c2.1,0.8,4.3,1.8,5.8,0.3c1-1,1.8-3.3,1.8-7.7c0-1.6,0.1-4,0.2-6.9c0.3-6.1,0.9-14.8,1.9-23.9v0c1.5-13.8,4-28.8,7.7-38.8
	c0.5-1.4,1.1-2.7,1.7-3.9c4.4-8.9,7.5-15.9,8.9-20.8c1.2-4.2,1-6.9-0.6-8.2c2.9-1.5,4.7-3,4.9-3.3c0.1-0.2,5.4-0.8,13.2-1.8
	c1.3,5.9,5.4,19.2,16.4,26.8C492,349.7,466.3,383.7,469.1,424.5z"/>
<path fill="#FFFFFF" stroke="#231F20" stroke-miterlimit="10" d="M454.5,315.7c-10,7.5-17.8,7.5-21.6,6.7c-1.6,1.5-3.2,2.6-4.9,3.1
	h0c-0.2,1-0.4,2.1-0.7,3.2c-2-1.3-5.2-1.9-8.8-2c-0.4,1.4-1.2,4.7-1.8,9.7c2.9-0.1,5.7,0.4,5.8,2.3c0.2,3.1,3.2,15.2-6.9,21.8
	c0,1.5,0.1,3.1,0.2,4.7c2.5-1.3,5.4-2.7,5.9-1c0.9,2.7,1,32.4,3.8,37.8c1.4,2.6,0,3.6-1.9,4.4c2.8,8.2,5.9,15.1,8.5,19.9
	c-2.8-17.5-4.9-55.9-5.7-71.5c1,17,4.7,61.4,16.8,78.9c1-1,1.8-3.3,1.8-7.7c0-1.6,0.1-4,0.2-6.9c-3.9-10.8-12-47.2-10.4-66.3
	c1.8-21.6,14.7-26.2,14.7-26.2s2.9-3.6,7.1-7.6C456,317.9,455.3,316.9,454.5,315.7z M426.2,348.3c0,0.8,0.1,2.4,0.2,4.7
	C426.3,350.7,426.2,349,426.2,348.3z"/>
<path fill="#FFFFFF" stroke="#231F20" stroke-miterlimit="10" d="M454.5,315.7c-10,7.5-17.8,7.5-21.6,6.7
	c5.7-5.4,10.6-16.3,12.9-24.8c0.2-0.6,0.3-1.3,0.4-2.1C448.3,302.3,451.2,310.1,454.5,315.7z"/>
<path fill="#FFFFFF" stroke="#231F20" stroke-miterlimit="10" d="M423.7,406.3c-3.1-9.2-5.8-20.2-7.1-31.8c-0.3-3.3-0.6-6.4-0.8-9.3
	c2.5-1.3,5.4-2.7,5.9-1c0.9,2.7,1,32.4,3.8,37.8C427,404.6,425.6,405.6,423.7,406.3z"/>
<path fill="#FFFFFF" stroke="#231F20" stroke-miterlimit="10" d="M415.6,360.4c-0.3-10.2,0.3-18.3,1-24.1c2.9-0.1,5.7,0.4,5.8,2.3
	C422.7,341.7,425.7,353.8,415.6,360.4z"/>
<path fill="#FFFFFF" stroke="#231F20" stroke-miterlimit="10" d="M465.6,331.6c-4.6-0.3-14.1-0.1-15.9,8c-0.3,1.4-0.5,2.8-0.5,4
	c-1.9,3.1-8.3,14.7-6.2,29.5c1.3,9.3,3,17,4.3,22v0c-1,9.2-1.6,17.8-1.9,23.9c-3.9-10.8-12-47.2-10.4-66.3
	c1.8-21.6,14.7-26.2,14.7-26.2c5.8,1,11.5-1.1,15.3-3.1C466.7,324.6,466.8,327.4,465.6,331.6z"/>
<path fill="#FFFFFF" stroke="#231F20" stroke-miterlimit="10" d="M455,356.3c-3.8,10-6.2,25-7.7,38.8c-1.3-5.1-2.9-12.7-4.3-22
	c-2.1-14.7,4.2-26.4,6.2-29.5C449,349.5,451.5,354,455,356.3z"/>
<path fill="#FFFFFF" stroke="#231F20" stroke-miterlimit="10" d="M465.6,331.6c-1.4,5-4.5,11.9-8.9,20.8c-0.6,1.2-1.1,2.5-1.7,3.9
	c-3.6-2.3-6.1-6.8-5.9-12.7c0-1.3,0.2-2.6,0.5-4C451.5,331.5,461,331.2,465.6,331.6z"/>
<path fill="#FFFFFF" stroke="#231F20" stroke-miterlimit="10" d="M443.3,433.6c-1.5,1.5-3.7,0.5-5.8-0.3c-1-0.4-3-3-5.3-7.1
	c-2.8-17.5-4.9-55.9-5.7-71.5C427.5,371.7,431.2,416,443.3,433.6z"/>
<path fill="#FFFFFF" stroke="#231F20" stroke-miterlimit="10" d="M510.2,343.3c-5.2,6.8-37,27-36.2,82.6c-0.7-0.5-1.5-0.8-2.6-1
	c-0.7-0.2-1.5-0.3-2.2-0.4c-2.8-40.8,22.9-74.8,30.4-79.5c-11-7.6-15.1-21-16.4-26.8c2.1-0.3,4.5-0.6,6.9-1
	C493.1,323,502.4,339.6,510.2,343.3z"/>
<path fill="#FFFFFF" stroke="#231F20" stroke-miterlimit="10" d="M465.1,381.1c-3.8,8.5-5.8,31.3-3.4,43.4c-1,0.2-2.1,0.4-3,0.7
	c0,0-4.2-29.3,1.8-45c6.1-15.7,12.3-25.3,12.5-36.1C474.5,351.1,469.3,371.7,465.1,381.1z"/>
<path fill="none" stroke="#231F20" stroke-miterlimit="10" d="M427.7,522.5c6,23.1,10.9,51.1,13.2,74.1"/>
<path fill="#FFFFFF" stroke="#231F20" stroke-miterlimit="10" d="M529.5,569.1l-6.3,4.4l-2,1.3c-10.7-23.7-12-52-10.3-75.7
	c0.5-6.7,1.2-13.1,2-18.8c1.6-11.4,3.7-20.5,4.9-25.6c0.4,0.2,0.8,0.4,1.2,0.5c7.7,3.5,13.6,6.7,18.4,9.5
	C533.7,472.9,514.4,518.9,529.5,569.1z"/>
<path fill="#FFFFFF" stroke="#231F20" stroke-miterlimit="10" d="M424.4,577.9C424.4,577.9,424.4,577.9,424.4,577.9
	c-0.1,0.2-0.4,1.4-0.9,3.5h-16.9c-2.2-10.5-3.3-23.3-3.7-36.5c7.5,1.8,17.3,3.9,22.5,4.9C424.7,559.3,424.3,569.2,424.4,577.9z"/>
<path fill="#FFFFFF" stroke="#231F20" stroke-miterlimit="10" d="M427.7,522.5c-0.7,7-1.7,16.9-2.4,27.3c-5.2-1-14.9-3-22.5-4.9
	c-0.4-13-0.1-26.3,0.4-38.1c2.4,0.1,12.1,0.6,20.1,0.6C424.9,512,426.3,517.1,427.7,522.5z"/>
<path fill="#FFFFFF" stroke="#231F20" stroke-miterlimit="10" d="M423.4,507.4c-8,0-17.7-0.5-20.1-0.6c0.6-15.2,1.7-27.8,2.2-33.5h0
	c2.5-1.5,5.1-3.1,7.4-4.9c0.8,8.5,2.6,18.2,6.3,27.4C420.7,499.2,422,503.1,423.4,507.4z"/>
<path fill="#FFFFFF" stroke="#231F20" stroke-miterlimit="10" d="M499.3,487.3c-0.5,15.6-1.3,44.4-1.6,45.2c0,0.1-0.1,0.2-0.3,0.3
	c-1.2,0.7-5.4,0.2-8.4-0.3c-3.3-0.6,0-24.4,0-24.4s-10.2-1.1-15.1-1.1c-4.9,0-2.2,25.7-0.7,27.1c1.5,1.4-8,0-8,0s-0.3-4.3,0-21.6
	c0.1-7.4-2.8-16-6.4-23.8c3.5-22,6.5-55.3,7.3-64.5c1,0,2,0.1,2.9,0.3c0.8,0.1,1.5,0.2,2.2,0.4c1.1,0.2,1.9,0.5,2.6,1
	c1,0.7,1.7,1.7,2.4,3.3c0,0,0,0,0,0c0.6,1.4,1.2,3.3,2.1,5.8c0,0,0,0,0,0c0.7,8,2.7,21.5,8.9,34.7C490.3,476,494.6,482,499.3,487.3z
	"/>
<path fill="#FFFFFF" stroke="#231F20" stroke-miterlimit="10" d="M466.2,424.3c-0.8,9.1-3.9,42.5-7.3,64.5
	c-2.5-5.5-5.4-10.5-7.9-14.4v0c0.6-16.1,1.2-33.8,1.5-43.9c1.1-2.6,3.3-4.3,6.1-5.2c1-0.3,2-0.5,3-0.7
	C463.1,424.3,464.7,424.2,466.2,424.3z"/>
<path fill="#FFFFFF" stroke="#231F20" stroke-miterlimit="10" d="M523,586.8c-0.7,1-15,9-17.1,8l-12.2-3c0,0,0,0,0,0l3.8-4.9
	l15.9-2.4v-20.5c-1.3,4.1-10.6,4.9-16.2,5c-0.2-11.8,0.1-29,0.2-36.1c0.2-0.1,0.2-0.2,0.3-0.3c0.3-0.9,1.1-29.6,1.6-45.2
	c3.9,4.5,8,8.5,11.7,11.9c-1.7,23.6-0.4,52,10.3,75.7l2-1.3C523.3,578.6,523.5,586.2,523,586.8z"/>
<path fill="#FFFFFF" stroke="#231F20" stroke-miterlimit="10" d="M485.2,558c-6.8,5.3-9.9,11-9.9,11s-8.3,0.6-11.7,11.3
	c-1.3,4.3-1.8,7.8-1.9,10.5l-3.9,0.3l-8.4,0.5c0.9-7.2,7.6-18,7.6-18S471.6,557.7,485.2,558z"/>
<path fill="#FFFFFF" stroke="#231F20" stroke-miterlimit="10" d="M457.2,573.7c0,0-6.8,10.7-7.6,18l-0.9,0l-2.5,0.2l-5.1,6.3
	c1.5-9.5,7-30.8,7-30.8l3.1,2.1L457.2,573.7z"/>
<path fill="#FFFFFF" stroke="#231F20" stroke-miterlimit="10" d="M520.4,342.7c-7,5.6-13.7,12.5-19.8,21
	c-16.2,22.5-22.2,46.8-24.2,65.4c-0.7-1.6-1.4-2.6-2.4-3.3c-0.8-55.7,31.1-75.8,36.2-82.6c-7.8-3.7-17.1-20.3-20.1-26
	c4.1-0.6,8.5-1.3,13.1-2.1h0C507.2,321.6,517.4,338,520.4,342.7z"/>
<path fill="#FFFFFF" stroke="#231F20" stroke-miterlimit="10" d="M580.1,326.2c-14.5,2.9-40.8,10.5-60,30c-2.2,2.2-4.3,4.6-6.3,7.2
	c-1.4,1.8-2.7,3.6-4,5.4c-7.3,10.3-12.3,20.3-15.8,29.7c-3.5,9.2-5.4,17.8-6.6,25.5c-0.8,4.9-1.2,9.3-1.5,13.4
	c-2.6,1.4-5.9,1.8-5.9,1.8c-0.6-1.5-1-2.9-1.5-4.1c0,0,0,0,0,0c-0.9-2.5-1.5-4.4-2.1-5.8c0,0,0,0,0,0c2-18.6,8.1-42.9,24.2-65.4
	c6.1-8.5,12.9-15.5,19.8-21c20.9-16.9,43.6-21.8,55.2-23.3C577.1,321.8,578.6,324.1,580.1,326.2z"/>
<path fill="#FFFFFF" stroke="#231F20" stroke-miterlimit="10" d="M607,330.4c-1.2,3.1-3.2,7.7-6.2,11.3c-3.6,4.4-8.7,7.3-15.2,4.4
	c-0.9-3.8-1.7-6.9-2.4-9.1c4.5,1,9,0.8,4.3-2.2c-1.9-1.2-4.6-4.5-7.5-8.6c-1.5-2.1-3-4.4-4.4-6.7c-4.5-7.2-8.8-14.9-10.8-18.5
	c10,0,26.3,2.6,37.4,20.5C604.1,324.5,605.7,327.4,607,330.4z"/>
<path fill="#FFFFFF" stroke="#231F20" stroke-miterlimit="10" d="M552.9,462.2c-8.6-3.9-43.8-29.7-59-63.7
	c3.5-9.3,8.5-19.3,15.8-29.7c1.7,13.3,8.7,37,17.4,47.9c7.8,9.7,18.3,19.7,32.6,28.2C559.9,452.2,559.3,465.1,552.9,462.2z"/>
<path fill="#FFFFFF" stroke="#231F20" stroke-miterlimit="10" d="M590.7,481.6c0,0-5.6,0-17.9-1.8c-2-0.3-4.1-0.6-6.4-1
	c-1.1-0.2-2.1-0.4-3.1-0.6c-6.7-1.6-11.5-4.3-17.2-7.9c-2.6-1.6-5.5-3.5-8.9-5.5c-4.8-2.9-10.6-6.1-18.4-9.5
	c-0.4-0.2-0.8-0.3-1.2-0.5c-6.8-3.2-12.2-7.2-16.6-11.4c-7.4-7-11.7-14.5-13.9-19.3c1.2-7.7,3.1-16.3,6.6-25.5
	c15.2,34,50.4,59.8,59,63.7c6.4,2.9,7-10,6.8-17.2c4.9,2.9,10.3,5.7,16.2,8.2c0.6,0.2,1.1,0.5,1.6,0.7c-3.2,3.7-7.6,11.5-6,16.2
	C573.8,476.2,590.7,481.6,590.7,481.6z"/>
<path fill="#FFFFFF" stroke="#231F20" stroke-miterlimit="10" d="M513,480.3c-0.8,5.7-1.5,12.1-2,18.8c-3.7-3.4-7.8-7.4-11.7-11.9
	c-4.7-5.3-9-11.3-11.9-17.5c-6.2-13.2-8.3-26.8-8.9-34.7c0.4,1.2,0.9,2.6,1.5,4.1c0,0,3.3-0.3,5.9-1.8c0.3-4.1,0.7-8.5,1.5-13.4
	c2.2,4.8,6.6,12.3,13.9,19.3c-0.7,6.6-2.1,15.2,2.9,22.6C506.9,470,510,475.2,513,480.3z"/>
<path fill="#FFFFFF" stroke="#231F20" stroke-miterlimit="10" d="M517.9,454.7c-1.2,5.1-3.2,14.2-4.9,25.6c-3-5.1-6.1-10.4-8.9-14.4
	c-5-7.4-3.6-15.9-2.9-22.6C505.6,447.5,511.1,451.5,517.9,454.7z"/>
<path fill="#FFFFFF" stroke="#231F20" stroke-miterlimit="10" d="M588.6,562.5c0,0,0,0.1-0.1,0.2c-11.7-8.6-24.9-20.7-26.8-32.3
	c0,0,0,0,0,0c-0.1-0.4-0.1-0.8-0.2-1.3c-1.8-18.1,8-41.7,11.3-49.3c12.3,1.8,17.9,1.8,17.9,1.8c0.4-0.1,0.8-0.3,1.1-0.4
	c-5.3,11.1-11.4,26.4-11.7,38C579.7,539.5,588.6,562.5,588.6,562.5z"/>
<path fill="#FFFFFF" stroke="#231F20" stroke-miterlimit="10" d="M605.6,635.6c-0.7-34.5-13.8-33-13.8-33l-0.3-0.4
	c-4.5,2.7-6.2,11.5-6.1,27.4c0,2,0.1,3.9,0.2,5.8c0,0,0,0,0,0c1,15.8,5.3,29.3,9.7,34.9c1.3,1.6,2.7,2.4,4,2
	C603,671.2,606.1,661.1,605.6,635.6z M593.4,654c-4.8-10.9-4.3-44.7,2.4-42.8c6.7,1.9,7.1,27.3,7.1,27.3
	C603.8,670,598.1,665,593.4,654z"/>
<path fill="#FFFFFF" stroke="#231F20" stroke-miterlimit="10" d="M583.7,589.6c-3.7,4.4-12.2,11.9-17,12.4c-0.2,0-0.5,0-0.7,0
	c-3.1-3.4-8.9-2.2-12.1-0.8c0.2-1.8,0.4-2.9,0.4-2.9s-6.4-2.6-9.7-3.8c0-4.3,0.2-9.1,0.2-9.1s4.8,8.9,9.5,3.9
	c3.4-3.6,3.8-13.5,3.8-18.7c2.2-0.1,3.5-0.3,4.3-0.7h0c4.7,6.2,11,13.4,17.5,17.4c1.2,0.8,2.5,1.4,3.8,2L583.7,589.6z"/>
<path fill="#FFFFFF" stroke="#231F20" stroke-miterlimit="10" d="M416,581.3c-1.8,7.2-4.2,18.1-4.9,26.6c-0.2,0-0.4-0.1-0.6-0.1
	c-3.8-0.9-10.7-2.1-10.7-2.1l0.8-3.1l5.4-21.2H416z"/>
<path fill="#FFFFFF" stroke="#231F20" stroke-miterlimit="10" d="M493.7,591.8c-2,6.8-5.2,19.2-5.1,29H480l-1.5-7.7l1.2-23.4
	l4.6-0.3L493.7,591.8L493.7,591.8z"/>
<polygon fill="#FFFFFF" stroke="#231F20" stroke-miterlimit="10" points="479.7,589.7 478.5,613.1 478.1,611.2 460.7,611.2 
	458,591.1 461.9,590.9 "/>
<path fill="#FFFFFF" stroke="#231F20" stroke-miterlimit="10" d="M451.2,569.6l-3.1-2.1c0,0-5.5,21.3-7,30.8v0l-0.1,0.1l-14.8-1.8
	c-1-3.7-1.5-9-1.7-15.2c0-1.1-0.1-2.3-0.1-3.4c0,0,0,0,0,0c-0.1-8.7,0.3-18.6,1-28.2c0.7-10.4,1.7-20.2,2.4-27.3
	c-1.4-5.3-2.8-10.4-4.3-15.1c-1.4-4.2-2.7-8.2-4.1-11.7c-3.7-9.2-5.5-18.9-6.3-27.4c-1.3-13.8-0.1-24.3-0.1-24.3
	c-2.8-5.3-11.6-14.3-4.1-15.2c1.1-0.1,2.3-0.2,3.6-0.3c6.1-0.3,13.5,0.2,16.5,3.2c-0.1,6.9-0.4,21.3,2.1,25.6
	c3.2,5.6,0.1,21.5,4,28.2c2.7,4.7,8.8,14.8,12.3,20.5C448.8,522.5,451.1,554.9,451.2,569.6z"/>
<path fill="#FFFFFF" stroke="#231F20" stroke-miterlimit="10" d="M452.5,430.4c-0.4,10.2-1,27.8-1.5,43.9v0
	c-0.7,18.9-1.3,35.6-1.3,35.6s-1-1.6-2.4-4c-3.4-5.7-9.5-15.8-12.3-20.5c-3.9-6.7-0.8-22.6-4-28.2c-2.5-4.3-2.2-18.6-2.1-25.6
	c0.6,0.6,1.1,1.3,1.3,2.2c1.4,5.7,20,5.1,21.8-2.2C452.2,431.2,452.3,430.8,452.5,430.4z"/>
<path fill="#FFFFFF" stroke="#231F20" stroke-miterlimit="10" d="M497.5,577.9c-1.3-1.2-5.2-2.9-9.3-4.5c-6.1-2.3-12.8-4.3-12.8-4.3
	s3.1-5.7,9.9-11c-13.7-0.4-28,15.7-28,15.7l-6-4.2c-0.1-14.6-2.4-47-3.9-63.7c1.5,2.4,2.4,4,2.4,4s0.6-16.7,1.3-35.6
	c2.4,3.9,5.3,8.9,7.9,14.4c3.6,7.8,6.5,16.4,6.4,23.8c-0.3,17.4,0,21.6,0,21.6s9.6,1.4,8,0c-1.5-1.4-4.2-27.1,0.7-27.1
	c4.9,0,15.1,1.1,15.1,1.1s-3.3,23.8,0,24.4c3,0.5,7.2,1.1,8.4,0.3c-0.1,7.1-0.4,24.3-0.2,36.1C497.2,572.6,497.3,575.8,497.5,577.9z
	"/>
<path fill="#FFFFFF" stroke="#231F20" stroke-miterlimit="10" d="M538.2,536.6c0.7,8.6,2.4,17.3,5.3,25.6v0l-5.8,34.3l0.2-27.4h-8.5
	c-15.2-50.2,4.2-96.2,7.9-104.3c3.4,2,6.2,3.9,8.9,5.5C543.4,479.5,535.8,507.7,538.2,536.6z"/>
<path fill="#FFFFFF" stroke="#231F20" stroke-miterlimit="10" d="M563.3,569.1c-0.2,0.4-0.5,0.7-0.9,0.9h0c-0.8,0.4-2.2,0.6-4.3,0.7
	c-2.4,0.2-5.9,0.2-10.8,0.2c-1.4-2.8-2.6-5.8-3.7-8.7v0c-3-8.3-4.6-17-5.3-25.6l12.3-6.8c0,0-6.5-18,12.9-51.6c1,0.2,2,0.4,3.1,0.6
	c2.3,0.4,4.4,0.7,6.4,1c-3.4,7.6-13.1,31.2-11.3,49.3c0,0.4,0.1,0.8,0.2,1.3c0,0,0,0,0,0C559.5,547.5,563.9,567.6,563.3,569.1z"/>
<path fill="#FFFFFF" stroke="#231F20" stroke-miterlimit="10" d="M550.5,529.8l-12.3,6.8c-2.5-28.9,5.2-57.1,8-66.3
	c5.7,3.6,10.5,6.3,17.2,7.9C544,511.9,550.5,529.8,550.5,529.8z"/>
<path fill="#FFFFFF" stroke="#231F20" stroke-miterlimit="10" d="M418,659.3c-2.8,1.4-13.8,42.9-22.2,73.4
	c-15.6-29.9-12.8-66.4-10.2-83.7c1.9-0.1,2.9-1.5,2.9-1.5s6.9-4.5,8.3-3.3C396.7,644.2,414.1,648.2,418,659.3z"/>
<path fill="#FFFFFF" stroke="#231F20" stroke-miterlimit="10" d="M410.4,607.8c-0.8,2.8-2.8,9.7-5.4,17c-2.4,6.9-5.4,14.3-8.3,19.3
	c-1.4-1.2-8.3,3.3-8.3,3.3s-1,1.4-2.9,1.5c-0.5,0-1.1,0-1.8-0.3c-0.7-0.2-1.4-0.6-2.2-1.2c2.4-6.7,16.4-44.9,16.4-44.9h2.6l-0.8,3.1
	C399.7,605.7,406.7,607,410.4,607.8z"/>
<path fill="#FFFFFF" stroke="#231F20" stroke-miterlimit="10" d="M433.2,664.1c-0.1,2-0.3,3.1-0.3,3.1s-3.2,12-7.1,31.4
	c-4.1,20.2-8.9,48.5-12,79.8c-5.2,53.9-1.3,90.4-0.2,98.7c0.1,1.2,0.2,1.8,0.2,1.8s-2.9,2.4-7,2.7c-3.5,0.3-8-0.8-12.2-6.1
	c-0.5-0.7-1.1-1.5-1.6-2.4c-6.5-11.2-9.9-37.5-11-47.7c2.5,0,4.1,0.2,4.1,0.2s-3.3-46.6-4.5-47.3c-1.2-0.7-16.1-3.8-16.1-3.8
	c0.1,0-0.8,35.4-5.3,46.8c-3.6,9-4.6,10.5,0,27.2c0.5,5.5,1.5,10.7,2.4,14.5c-19.8-20.5-11.4-59-11.7-102.3
	c-0.2-45.2,12.6-85.3,19-99.1c6.4-13.8,11.6-14.3,11.6-14.3c0.8,0.6,1.6,1,2.2,1.2c-9,21.5-13.7,77.4-13.9,101.5
	c-0.2,26,13.1,17.1,16.2,14.3c1.1-1,5-14.7,9.7-31.8c8.4-30.5,19.4-72,22.2-73.4c-3.9-11-21.2-15.1-21.2-15.1c3-5,5.9-12.4,8.3-19.3
	c5.4,0.6,18.7,2.9,23.9,12.7C433.8,646.7,433.6,658.6,433.2,664.1z"/>
<path fill="#FFFFFF" stroke="#231F20" stroke-miterlimit="10" d="M483.6,702.5c-0.1,3.7-0.4,9.1-1.1,15.1c-0.5,4.4-1.2,9.1-2.2,13.6
	c-3.3-3.4-7.8-6.6-12.7-9.3c-6-3.3-12.8-5.8-18.9-6.8c-2.8-3.4-15.3-12.2-22.9-16.6c3.9-19.4,7.1-31.4,7.1-31.4s0.2-1.2,0.3-3.1
	c8,6.1,24.8,19.5,28.7,25.9C465.8,697.2,474.9,701.4,483.6,702.5z"/>
<path fill="#FFFFFF" stroke="#231F20" stroke-miterlimit="10" d="M467.6,722c-4,8.9-12.4,29.7-16.6,41.7c-5.4,15.5-1.8,63.7-7,88.6
	s-18.5,20.4-13.5,9.7c5-10.7,8.6-73.4,8.3-89.7c-0.2-16.2,9.9-57.2,9.9-57.2C454.8,716.2,461.5,718.7,467.6,722z"/>
<path fill="#FFFFFF" stroke="#231F20" stroke-miterlimit="10" d="M480.3,731.3c-1.7,7.6-4.2,14.9-8.1,19.6
	c-11.8,14.7-13.9,63.2-15,69.9c-0.8,5-6.5,31.6-9.3,45.8v0c-0.9,4.7-1.5,8-1.5,8.8c0,1.7-4.7,8-9.2,13.8c-4.2,5.3-8.3,10.1-8.3,10.1
	s-6.9-16.5-15.3-22c-1.1-8.3-5-44.9,0.2-98.7c3-31.4,7.9-59.6,12-79.8c7.6,4.5,20.1,13.3,22.9,16.6c0,0-10.1,40.9-9.9,57.2
	c0.2,16.3-3.3,79-8.3,89.7c-5,10.7,8.3,15.2,13.5-9.7s1.6-73.2,7-88.6c4.2-11.9,12.7-32.8,16.6-41.7
	C472.5,724.7,477,727.9,480.3,731.3z"/>
<path fill="#FFFFFF" stroke="#231F20" stroke-miterlimit="10" d="M395.7,732.7c-4.7,17.1-8.6,30.7-9.7,31.8
	c-3.1,2.8-16.4,11.8-16.2-14.3c0.2-24,4.9-80,13.9-101.5c0.7,0.2,1.3,0.3,1.8,0.3C382.9,666.3,380.1,702.8,395.7,732.7z"/>
<path fill="#FFFFFF" stroke="#231F20" stroke-miterlimit="10" d="M381.6,864.4c-3.5,1.7-10.1,5.9-11,12.9c0,0.3-0.1,0.7-0.1,1.2
	c-3.6-4.8-5.1-11.9-5.4-12.8c-0.3-0.9,9.7-27.8,12.6-22.1C379.4,847,380.5,857,381.6,864.4z"/>
<path fill="#FFFFFF" stroke="#231F20" stroke-miterlimit="10" d="M386,825.7c0,0-1.6-0.2-4.1-0.2c-7,0-20.7,1.5-21.8,12
	c-0.4,3.6-0.3,7.4,0,11c-4.6-16.7-3.6-18.2,0-27.2c4.5-11.4,5.3-46.8,5.3-46.8c0,0,14.9,3.1,16.1,3.8
	C382.7,779.2,386,825.7,386,825.7z"/>
<path fill="#FFFFFF" stroke="#231F20" stroke-miterlimit="10" d="M393,873.3h-8.8c-0.3,0-0.5-0.3-0.8-0.8c-0.7-1.4-1.2-4.4-1.8-8
	c-1.1-7.5-2.1-17.5-3.8-20.9c-2.9-5.7-12.9,21.2-12.6,22.1c-2.1-7-3.7-12.5-5-17c-0.3-3.7-0.4-7.5,0-11c1.1-10.6,14.8-12,21.8-12
	C383.1,835.8,386.5,862.1,393,873.3z"/>
<path fill="#FFFFFF" stroke="#231F20" stroke-miterlimit="10" d="M433.7,929.7c-3.6,4.2-6.5,9.8-7.5,15.1c-0.3-0.2-0.6-0.5-0.9-0.7
	c-8.5-6.8-18-8-24.5-7.8c-4.9,0.2-8.1,1.1-8.1,1.1c-0.6-0.7-1.2-1.4-1.8-2.3c-8.8-12.7-20.5-46.2-20.4-56.6c0-0.4,0-0.8,0.1-1.2
	c0.9-7,7.5-11.2,11-12.9c0.5,3.6,1.1,6.7,1.8,8c-0.2,3.4,0.1,9,2.7,13.6c4,7.1,3.8,5.9,3.8,5.9s4.5-2.2,5.9,0.1
	c1.4,2.3,7.6,31.5,23.3,35.3c0.7-6.8-0.6-14.6-2.7-21.9C419.7,906.5,427.4,910.6,433.7,929.7z"/>
<path fill="#FFFFFF" stroke="#231F20" stroke-miterlimit="10" d="M425.3,944c-0.9,7.2-3.1,18-7.7,19.3c-5.4,1.5-10.8-17-16.8-27
	C407.3,936,416.8,937.2,425.3,944z"/>
<path fill="#FFFFFF" stroke="#231F20" stroke-miterlimit="10" d="M500.3,997.5c-1.5-2-6.1-3.3-12.5-4.1
	c-2.1-26.1-23.6-56.1-23.6-56.1s-21.9,9.4-27.6,27.4c5.6,7.2,10,19.7,12.3,28c-18,0.7-33.7,2.1-33.7,2.1s-26.7-38.5-24.4-59.8
	c0.6,0.9,1.2,1.7,1.8,2.3c0,0,3.2-1,8.1-1.1c6,10,11.4,28.5,16.8,27c4.6-1.3,6.7-12.1,7.7-19.3c0.3,0.2,0.6,0.5,0.9,0.7
	c1-5.3,3.9-10.9,7.5-15.1c1.4-1.7,3-3.1,4.6-4.2c2-1.4,5.7-2.9,9.5-4.4c6.7-2.7,13.6-5.1,12.4-6c-6.6-1.3-11.4-3.5-2.5-7.5
	c1.1-0.5,2.4-1,4-1.6C481.1,913.6,501.3,977.8,500.3,997.5z"/>
<path fill="none" stroke="#231F20" stroke-miterlimit="10" d="M391.5,932c-0.3,1-0.5,2.1-0.6,3.2"/>
<path fill="#FFFFFF" stroke="#231F20" stroke-miterlimit="10" d="M487.9,993.4c-10.3-1.3-25.3-1.1-38.9-0.6
	c-2.4-8.3-6.7-20.9-12.3-28c5.7-18,27.6-27.4,27.6-27.4S485.7,967.3,487.9,993.4z"/>
<path fill="#FFFFFF" stroke="#231F20" stroke-miterlimit="10" d="M419.1,927.4c-15.7-3.8-21.9-33-23.3-35.3
	c-1.4-2.3-5.9-0.1-5.9-0.1s0.2,1.2-3.8-5.9c-2.6-4.6-2.8-10.2-2.7-13.6c0.2,0.5,0.5,0.8,0.8,0.8h8.8c0.5,0.9,1.1,1.7,1.6,2.4
	c4.3,5.3,8.7,6.4,12.2,6.1c2,4,6.6,13.4,9.6,23.9C418.5,912.8,419.8,920.6,419.1,927.4z"/>
<path fill="#FFFFFF" stroke="#231F20" stroke-miterlimit="10" d="M453,878.5c0,0-5.4,13.7-12.1,18.4c-1.4-3.2-2.8-5.9-3.8-7.8
	c4.5-5.7,9.2-12.1,9.2-13.8c0-0.8,0.6-4.1,1.5-8.8C450.5,869.9,453.4,874.6,453,878.5z"/>
<path fill="#FFFFFF" stroke="#231F20" stroke-miterlimit="10" d="M455.2,889.6c0,0-4.6,10.6-11.1,15.1c-1-2.8-2.1-5.5-3.2-7.9
	c6.7-4.7,12.1-18.4,12.1-18.4C455.2,879.4,455.9,885.6,455.2,889.6z"/>
<path fill="#FFFFFF" stroke="#231F20" stroke-miterlimit="10" d="M447.8,921.1c-0.2-5.1-1.7-11-3.7-16.4
	c6.5-4.5,11.1-15.1,11.1-15.1c2.8,1.7,3.2,11.8,2.5,18c-8.9,4-4,6.2,2.5,7.5C461.4,916,454.4,918.5,447.8,921.1z"/>
<path fill="#FFFFFF" stroke="#231F20" stroke-miterlimit="10" d="M447.8,921.1c-3.8,1.5-7.4,3-9.5,4.4c-1.6,1.1-3.2,2.5-4.6,4.2
	c-6.3-19.1-14-23.2-17.3-24.1c-3-10.5-7.5-19.9-9.6-23.9c4.1-0.4,7-2.7,7-2.7s-0.1-0.6-0.2-1.8c8.4,5.5,15.3,22,15.3,22
	s4.1-4.8,8.3-10.1c1,2,2.4,4.7,3.8,7.8c1.1,2.4,2.2,5.1,3.2,7.9C446,910.1,447.6,916,447.8,921.1z"/>
<polygon fill="#FFFFFF" stroke="#231F20" stroke-miterlimit="10" points="460.7,611.2 454.9,620.8 449.9,621.6 443.9,622.6 
	443,621.2 448.7,591.7 449.6,591.7 458,591.1 "/>
<path fill="#FFFFFF" stroke="#231F20" stroke-miterlimit="10" d="M448.7,591.7l-5.7,29.5l-4.5-6.9c0,0-10.6-2.4-18.3-4.2
	c-0.7-10.9,1.8-23.1,3.2-28.9h1c0.2,6.2,0.7,11.5,1.7,15.2l14.8,1.8l0.1-0.1v0l5.1-6.3L448.7,591.7z"/>
<path fill="#FFFFFF" stroke="#231F20" stroke-miterlimit="10" d="M420.2,610.2c-3.9-0.9-7.1-1.7-7.9-1.9c-0.3-0.1-0.8-0.2-1.3-0.3
	c0.8-8.5,3.2-19.4,4.9-26.6h7.5C422.1,587.1,419.5,599.3,420.2,610.2z"/>
<path fill="#FFFFFF" stroke="#231F20" stroke-miterlimit="10" d="M542.6,601c-0.8,3.7-2.9,9.7-8.8,11.7c-1.3,0.4-2.6,1.1-3.9,1.8
	c-7.3,4.4-14.4,13.9-14.7,21.6v0c0,0.5,0,0.9,0,1.4c-4.3,3.2-15,36.7-20,50.3c-0.2,0.4-0.3,0.9-0.5,1.3
	c-3,39.4,16.3,117.2,16.3,117.2s-0.6,1.1-4.3,1.4c-0.2,0-0.4,0-0.7,0c-3.4,0.2-17.7-63.3-23.5-90c0.7-6,1-11.4,1.1-15.1
	c-8.7-1.2-17.8-5.3-21.8-12.5c-3.9-6.5-20.7-19.8-28.7-25.9c0.4-5.5,0.6-17.4-4.3-26.6c-5.2-9.7-18.5-12.1-23.9-12.7
	c2.6-7.4,4.6-14.2,5.4-17c0.2,0.1,0.4,0.1,0.6,0.1c0.5,0.1,1,0.2,1.3,0.3c0.8,0.2,4,1,7.9,1.9c7.8,1.8,18.3,4.2,18.3,4.2l4.5,6.9
	l0.9,1.3l6-1c2.8,8.3,9.7,28.6,13.6,38.3c5,12.4,9.3,19.2,9.3,19.2s23-2.9,22.4-4.6c-0.6-1.7-8-26-3-53.7l10.5,5.3l3.2-11.8
	l28.2-15.8C536.4,599.3,540.2,600.5,542.6,601z"/>
<path fill="#FFFFFF" stroke="#231F20" stroke-miterlimit="10" d="M593.4,654c-4.8-10.9-4.3-44.7,2.4-42.8c6.7,1.9,7.1,27.3,7.1,27.3
	C603.8,670,598.1,665,593.4,654z"/>
<path fill="#FFFFFF" stroke="#231F20" stroke-miterlimit="10" d="M595.6,740.7c-2.6,14.5-2.1,51.8-4.3,63.2c0.1,0.6,0.2,1.4,0.4,2.4
	v0c-11.5,28.7-6.7-150.1-6.1-170.9c1,15.8,5.3,29.3,9.7,34.9c1.3,1.6,2.7,2.4,4,2C599.2,685.5,598,727.7,595.6,740.7z"/>
<path fill="#FFFFFF" stroke="#231F20" stroke-miterlimit="10" d="M593.8,848.2C593.8,848.2,593.8,848.2,593.8,848.2
	c0,0.7-0.1,1.1-0.1,1.3c-0.5,1.4-5.2,0-8.6-4c0,0,0,0,0,0c-1.4-1.6-2.6-3.6-3.2-6c-2.4-8.6-11.9-22.1-15.2-37.8
	c-0.1-0.6-0.2-1.1-0.4-1.7c15.4-17.1,6.2-75.8,2.2-97.4c0.7-1.7,1.3-3.4,1.8-5.1c5.3-16.9,4.5-65.3,4.6-70.5
	c0.1-5.2-3.4-5.7-3.4-5.7c0.6-4-3.1-14.9-4.7-19.4c4.7-0.5,13.3-8,17-12.4l7.8,12.5c-4.5,2.7-6.2,11.5-6.1,27.4c0,2,0.1,3.9,0.2,5.8
	c0,0,0,0,0,0c-0.6,20.8-5.3,199.6,6.1,170.9C592.9,815.8,594.1,842,593.8,848.2z"/>
<path fill="#FFFFFF" stroke="#231F20" stroke-miterlimit="10" d="M566.2,800c-3.5-15.1-11.3-29.3-13.2-32.2c-1.9-3-4-30.5-3.5-33.1
	c0.5-2.3,12.6-16.8,18.9-32.1C572.5,724.2,581.7,782.9,566.2,800z"/>
<path fill="#FFFFFF" stroke="#231F20" stroke-miterlimit="10" d="M585.1,845.5c-9.4-5.4-10.9-15.5-13.2-19.8
	c-2.6-4.8-6.9-16.4-10-27.3c-3.1-11-9-19-13.5-27.3c-4.5-8.3-5.4-40.4-5.4-40.4s0.4-0.7,1.1-2c3.7-6.6,15.6-28.4,20.4-44.4
	c4.7-15.8,5.2-52,5.2-63.7c0.8,0.3,1.4,0.5,1.8,0.7c0,0,3.6,0.5,3.4,5.7c-0.1,5.2,0.7,53.6-4.6,70.5c-0.5,1.7-1.2,3.4-1.8,5.1
	c-6.3,15.2-18.4,29.7-18.9,32.1c-0.6,2.6,1.6,30.1,3.5,33.1c1.8,2.9,9.6,17.2,13.2,32.2c0.1,0.6,0.3,1.1,0.4,1.7
	c3.3,15.7,12.8,29.2,15.2,37.8C582.5,841.9,583.7,843.9,585.1,845.5z"/>
<path fill="#FFFFFF" stroke="#231F20" stroke-miterlimit="10" d="M495.2,674.5c0.6,1.8-22.4,4.6-22.4,4.6s-4.4-6.9-9.3-19.2
	c-3.9-9.7-10.8-30-13.6-38.3l5-0.8l5.7-9.6h17.5l0.4,1.9l1.5,7.7h12.1l0.1,0.1C487.3,648.5,494.7,672.8,495.2,674.5z"/>
<path fill="#FFFFFF" stroke="#231F20" stroke-miterlimit="10" d="M538,569.1l-0.2,27.4l-3.7,2.1l-28.2,15.8l-3.2,11.8l-10.5-5.3
	l-0.1-0.1h-3.5c-0.1-9.8,3.1-22.2,5.1-29l12.2,3c2.1,1.1,16.4-7,17.1-8c0.5-0.6,0.3-8.2,0.2-13.3l6.3-4.4H538z"/>
<path fill="#FFFFFF" stroke="#231F20" stroke-miterlimit="10" d="M488.2,573.4c-6.9,5.9-8.5,16.3-8.5,16.3l-17.8,1.2
	c0.1-2.8,0.5-6.3,1.9-10.5c3.4-10.6,11.7-11.3,11.7-11.3S482.1,571.1,488.2,573.4z"/>
<path fill="#FFFFFF" stroke="#231F20" stroke-miterlimit="10" d="M513.4,563.9v20.5l-15.9,2.4l-3.8,4.9l0,0l-9.4-2.3l-4.6,0.3
	c0,0,1.6-10.4,8.5-16.3c4.1,1.5,8,3.2,9.3,4.5c-0.1-2.1-0.2-5.3-0.3-9C502.8,568.8,512.1,568,513.4,563.9z"/>
<path fill="#FFFFFF" stroke="#231F20" stroke-miterlimit="10" d="M554.3,589.4c-4.7,5-9.5-3.9-9.5-3.9s-0.1,4.8-0.2,9.1
	c0,3.2,0,6.1,0.2,6.6c0.1,0.3-0.8,0.2-2.2-0.1c-2.4-0.5-6.1-1.7-8.5-2.4l3.7-2.1l5.8-34.3c1.1,3,2.3,5.9,3.7,8.7
	c4.9,0,8.3-0.1,10.8-0.2C558.1,576,557.7,585.8,554.3,589.4z"/>
<path fill="#FFFFFF" stroke="#231F20" stroke-miterlimit="10" d="M554.3,598.3c0,0-0.1,1-0.4,2.9c-0.4,2.9-1,7.8-1.9,14
	c-3.5,26.4-10,75.1-10.6,80.8c-0.9,7.8-2.1,18.7-7.6,20s-17.5,2.3-17.7-3.6c-0.2-5.9,5.5-69,9.1-78.1c-4.1,0-7.4,0.8-10,1.8
	c0.3-7.7,7.4-17.2,14.7-21.6c1.3-0.8,2.6-1.4,3.9-1.8c5.9-2,8.1-7.9,8.8-11.7c1.4,0.3,2.3,0.4,2.2,0.1c-0.2-0.5-0.2-3.4-0.2-6.6
	C547.9,595.7,554.3,598.3,554.3,598.3z"/>
<path fill="#FFFFFF" stroke="#231F20" stroke-miterlimit="10" d="M571.5,621.4c-0.4-0.2-1-0.5-1.8-0.7c-5.2-1.9-17.7-5.5-17.7-5.5
	c0.8-6.2,1.5-11.1,1.9-14c3.3-1.4,9.1-2.6,12.1,0.8c0.2,0,0.5,0,0.7,0C568.4,606.5,572.1,617.4,571.5,621.4z"/>
<path fill="#FFFFFF" stroke="#231F20" stroke-miterlimit="10" d="M569.7,620.6c0,11.8-0.5,47.9-5.2,63.7
	c-4.8,16-16.7,37.8-20.4,44.4c-2.4-1.2-6.3-2.5-11.2-2.5c-7.8,0-12.8,3.6-14.3,5.8c-1.4,2.3,0.2,47.2,4,51.7
	c3.8,4.5,8.4,5.7,8.4,5.7s-6.5,38-2.9,43.2c3.6,5.2,5.9,5.7,5.9,5.7s-6.2,7-5.9,11.7c-2.6,0.2-2.6,16.1-3.7,19
	c-0.1,0.3-0.2,0.5-0.4,0.4c-3-0.6-5.7,1.6-7.1,3.1c-0.8,0.8-1.2,1.4-1.2,1.4s-4.5-1.7-4.8-4.5c-1.2-11.5-1-42.1-4.3-61.8
	c3.7-0.3,4.3-1.4,4.3-1.4s-19.3-77.7-16.3-117.2c0.2-0.4,0.3-0.8,0.5-1.3c5-13.5,15.7-47,20-50.3c0-0.5,0-0.9,0-1.4v0
	c2.6-1,5.9-1.8,10-1.8c-3.6,9.1-9.3,72.2-9.1,78.1c0.2,5.9,12.1,4.8,17.7,3.6s6.7-12.1,7.6-20c0.6-5.7,7.1-54.4,10.6-80.8
	C552,615.2,564.4,618.7,569.7,620.6z"/>
<path fill="#FFFFFF" stroke="#231F20" stroke-miterlimit="10" d="M529.5,911.5c0.4-3.5-9.8-31.4-12.6-39c1.5-1.5,4.1-3.7,7.1-3.1
	c0.1,0,0.3-0.1,0.4-0.4C529.1,881.6,532.3,906.4,529.5,911.5z"/>
<path fill="#FFFFFF" stroke="#231F20" stroke-miterlimit="10" d="M541,914c-0.5,5.1-1.6,8.6-4.3,6.4c-1.4-1.2-2.6-2.3-3.5-3.4l0,0
	c-2.8-3.2-3.6-5.5-3.6-5.5c2.8-5.2-0.4-29.9-5.1-42.5c1-2.9,1.1-18.8,3.7-19c-0.2-4.7,5.9-11.7,5.9-11.7s2.9,40.2,6.4,55.7
	c0.2,1,0.5,2,0.7,2.7C541.2,900.6,541.5,908.3,541,914z"/>
<path fill="#FFFFFF" stroke="#231F20" stroke-miterlimit="10" d="M595.2,858.9c-8.7-7.1-11.4-11.4-19.1-7.1c-0.6,0-1.2-0.1-1.8-0.3
	c-6.7-1.6-13-10-16.3-16.6c-9.3-4.3-5.9-28.3-16.8-24.5c-10.8,3.8-6,28-7.2,27.8c0,0-2.4-0.5-5.9-5.7c-3.6-5.2,2.9-43.2,2.9-43.2
	s-4.6-1.2-8.4-5.7c-3.8-4.5-5.5-49.4-4-51.7c1.4-2.3,6.4-5.8,14.3-5.8c4.9,0,8.9,1.3,11.2,2.5c-0.7,1.3-1.1,2-1.1,2
	s0.8,32.1,5.4,40.4c4.5,8.3,10.5,16.3,13.5,27.3c3.1,11,7.4,22.6,10,27.3c2.4,4.3,3.8,14.4,13.2,19.8c0,0,0,0,0,0
	c3.5,4,8.1,5.3,8.6,4c0.1-0.2,0.1-0.6,0.1-1.3C594.5,851.4,594.9,855,595.2,858.9z"/>
<path fill="#FFFFFF" stroke="#231F20" stroke-miterlimit="10" d="M584.1,892.3c-4.6,7.1-33.8-14.3-26-57.3
	c3.3,6.6,9.6,14.9,16.3,16.6C578.5,861.8,587.7,886.6,584.1,892.3z"/>
<path fill="#FFFFFF" stroke="#231F20" stroke-miterlimit="10" d="M594,899.2c0,0.1-0.1,0.1-0.1,0.2c-1.5,2-11.5,5.5-11.5,5.5
	s0,0-6.3,9.8c-1.2,1.8-2.5,3.9-4.1,6.4c-0.2-14.4-3.6-15.5-13.1-26.7c-6.7-7.8-14.2-3.8-18.3-0.4c-3.5-15.6-6.4-55.7-6.4-55.7
	c1.2,0.2-3.6-24,7.2-27.8c10.8-3.8,7.5,20.2,16.8,24.5c-7.8,43,21.4,64.4,26,57.3c3.6-5.6-5.6-30.4-9.7-40.7
	c0.6,0.2,1.2,0.2,1.8,0.3c7.7-4.4,10.3,0,19.1,7.1C596.4,876.1,594.7,897.7,594,899.2z"/>
<path fill="#FFFFFF" stroke="#231F20" stroke-miterlimit="10" d="M598.7,906c-2.8,5.4-8.4,16.9-12.9,28.9c-2.8-2.7-6.3-6.1-9.7-9.4
	c1.1-4.1,0.6-8.1-0.1-10.8c6.3-9.8,6.3-9.8,6.3-9.8s10-3.6,11.5-5.5C595,900.9,596.7,903.2,598.7,906z"/>
<path fill="#FFFFFF" stroke="#231F20" stroke-miterlimit="10" d="M575.6,998.4l-21.5-0.5c-1.5-12.5-4.7-33.3-8.6-46.7
	c4.3,4.6,8.7,8.2,11.2,7.7c3.1-0.6,7.7-4.1,12-7.9C567.2,963.9,567.8,980.8,575.6,998.4z"/>
<path fill="#FFFFFF" stroke="#231F20" stroke-miterlimit="10" d="M579.7,965.5c1.6,9.6,3.2,22.7,4.6,33.2l-8.7-0.2
	c-7.8-17.7-8.5-34.5-6.8-47.4v0c1.4-11.1,4.4-19.2,6.2-22.6c0.5-1,0.9-1.9,1.1-2.9c3.4,3.3,6.9,6.7,9.7,9.4
	C581.6,946.2,578.4,957.9,579.7,965.5z"/>
<path fill="#FFFFFF" stroke="#231F20" stroke-miterlimit="10" d="M619.4,999.4l-5.6-0.1c-1.5-24.3-12-51.2-12-51.2
	s-10.4,21-7.6,50.7l-9.9-0.2c-1.4-10.5-3-23.6-4.6-33.2c-1.2-7.5,1.9-19.3,6.1-30.6c4.5-12,10.1-23.5,12.9-28.9
	c7.3,10.6,18.2,28.7,20.7,45.9C623.2,978.5,619.4,999.4,619.4,999.4z"/>
<path fill="#FFFFFF" stroke="#231F20" stroke-miterlimit="10" d="M613.8,999.3l-19.6-0.5c-2.8-29.7,7.6-50.7,7.6-50.7
	S612.3,975,613.8,999.3z"/>
<path fill="#FFFFFF" stroke="#231F20" stroke-miterlimit="10" d="M554.2,997.9l-16.5-0.4c0,0-5.5-34.2,0.8-54.6
	c0.5-1.6,1.1-3.2,1.8-4.6c0.6,1.2,1.1,2.3,1.8,3.4c1.2,2.2,2.5,5.5,3.6,9.5C549.4,964.6,552.7,985.5,554.2,997.9z"/>
<path fill="#FFFFFF" stroke="#231F20" stroke-miterlimit="10" d="M576.1,925.5c-0.3,1-0.6,2-1.1,2.9c-1.7,3.3-4.8,11.5-6.2,22.6v0
	c-4.3,3.8-9,7.3-12,7.9c-2.5,0.5-6.8-3.1-11.2-7.7c-1.2-4-2.4-7.3-3.6-9.5c-0.6-1.1-1.2-2.2-1.8-3.4c-3.4-7.2-5.7-15.4-7-21.2
	c0.9,1.1,2.1,2.2,3.5,3.4c2.7,2.2,3.8-1.3,4.3-6.4c7.6-0.5,20.4-1.2,21.6-0.8C563.4,913.4,569.6,919.2,576.1,925.5z"/>
<path fill="#FFFFFF" stroke="#231F20" stroke-miterlimit="10" d="M576.1,925.5c-6.5-6.2-12.7-12.1-13.5-12.3
	c-1.2-0.3-14,0.4-21.6,0.8c0.5-5.7,0.2-13.5,0.2-17.2c-0.2-0.8-0.5-1.7-0.7-2.7c4-3.4,11.6-7.5,18.3,0.4
	c9.5,11.2,12.8,12.2,13.1,26.7c1.6-2.5,3-4.6,4.1-6.4C576.7,917.4,577.2,921.4,576.1,925.5z"/>
<path fill="none" stroke="#231F20" stroke-miterlimit="10" d="M440.9,896.9c-0.4,0.2-0.7,0.5-1.1,0.7"/>
</svg>
