<?xml version="1.0" encoding="utf-8"?>
<!-- Generator: Adobe Illustrator 25.2.0, SVG Export Plug-In . SVG Version: 6.00 Build 0)  -->
<svg version="1.1" baseProfile="tiny" id="Layer_1" xmlns="http://www.w3.org/2000/svg" xmlns:xlink="http://www.w3.org/1999/xlink"
	 x="0px" y="0px" viewBox="0 0 1000 1000" overflow="visible" xml:space="preserve">
<path fill="#FFFFFF" stroke="#000000" stroke-miterlimit="10" d="M413.3,389.5c-1.8-7.7-10-13-12.1-14.3c-0.3-0.2-0.7-0.4-1.1-0.4
	c-0.1,0-0.2,0-0.3-0.1c-5.6,3.9-11.1,10.4-13.7,14.3c-0.6-2.5-2.7-9.8-3.5-11.9c-1.3,0.7-2.5,1.6-3.6,2.7c-0.2,0.2-0.4,0.4-0.6,0.6
	c-0.8,0.8-1.5,1.7-2.1,2.5c1.5,1.3,3.6,3.3,5,5.4c2.5,3.7,2.3,12.3,2,13.7c-0.3,1.3-9.3,2-12.2-6.6c-0.2,0.9-0.3,1.8-0.4,2.6
	c0,0,0,0,0,0c1.3,2.1,3.1,4.9,4.1,5.2c1.6,0.5,6.6,0.1,7.1,1.7c0.3,0.9-2,4.8-4,8.2c1,1,1.7,2,2.1,2.8c1,2.4-1,10.8,7,10.2
	c2.4-0.2,4.4-1.4,6.1-3.2c1-1,1.9-2.2,2.8-3.4c0.7-1,1.4-2,2-3c-0.1-0.5-0.1-1-0.2-1.4c0-0.2-0.1-0.5-0.1-0.7
	c-0.1-0.3-0.1-0.6-0.2-0.9c0-0.2-0.1-0.4-0.2-0.6c-0.1-0.3-0.2-0.7-0.3-1c-0.1-0.2-0.1-0.4-0.2-0.6c-0.1-0.2-0.1-0.4-0.2-0.5
	c-0.1-0.2-0.1-0.4-0.2-0.5c-0.1-0.4-0.3-0.7-0.5-1c-0.2-0.3-0.3-0.6-0.5-0.9c-0.2-0.4-0.5-0.8-0.7-1.2c-0.1-0.1-0.2-0.2-0.2-0.3
	c-0.1-0.1-0.1-0.2-0.2-0.3c-0.5-0.8-1-1.3-1.3-1.6c0,0-0.1-0.1-0.1-0.1c-0.1-0.1-0.2-0.2-0.2-0.2c0,0,0,0,0,0c0,0,0.1,0,0.2,0.1
	c0,0,0.1,0,0.2,0c0.2,0,0.4,0.1,0.6,0.1c0.2,0,0.4,0.1,0.6,0.1c0.2,0,0.3,0.1,0.5,0.1c0.2,0,0.4,0,0.6,0.1c0.4,0,0.8,0.1,1.3,0.1
	c0.3,0,0.6,0,0.9,0c0.3,0,0.6,0,1,0c0.2,0,0.5,0,0.7-0.1c0,0,0,0,0.1,0c0.2,0,0.5-0.1,0.7-0.1c0.4-0.1,0.9-0.2,1.3-0.3
	c0.1,0,0.2-0.1,0.4-0.1c1.1-0.4,2.3-1,3.4-1.9c3.7-2.9,6.3-7.2,9.2-9C413.8,392.2,413.7,390.9,413.3,389.5z M394.1,418.8
	c-0.1,0-0.3-0.2-0.8-0.5c-0.5-0.3-1.3-0.6-2.4-1c-0.9-0.2-1.9-0.5-3.1-0.6c-0.9-0.1-1.9-0.1-2.9-0.1c-0.8,0-1.6,0.1-2.5,0.2
	c-0.6,0.1-1.3,0.2-2,0.4c-0.4,0.1,0.4-2.2,1.8-4.5c0.8-1.3,1.8-2.6,2.8-3.4c0.9-0.7,1.8-1,2.6-0.6c0.1,0,0.1,0.1,0.2,0.1
	c1.1,0.7,2.2,2.2,3.2,3.7v0C392.7,415.4,394,418.6,394.1,418.8z M407,394.7c-5.6,4.9-5,7-10.3,7.8c-5.3,0.8-8.4-4.5-8-6.9
	c0.4-2.4,4.7-12.4,11.9-13.5C408,381,412.6,389.8,407,394.7z"/>
<path fill="#FFFFFF" stroke="#000000" stroke-miterlimit="10" d="M377.9,413.2c-1.9-2.1-4.6-4.5-6.1-6.4c-1-1.2-1.5-4.5-1.1-8.6
	c1.3,2.1,3.1,4.9,4.1,5.2c1.6,0.5,6.6,0.1,7.1,1.7C382.1,405.9,379.8,409.8,377.9,413.2z"/>
<path fill="#FFFFFF" stroke="#000000" stroke-miterlimit="10" d="M381.3,388.4c-1.4-2.1-3.5-4.1-5-5.4c-2.9,3.9-4.5,8.5-5.3,12.5
	c2.9,8.6,11.9,7.9,12.2,6.6C383.6,400.7,383.7,392.1,381.3,388.4z M381.7,398.6c-1.3,4.3-8.5-2.3-8.1-5.2c0.4-2.9,0.4-8.4,3.1-7
	C376.7,386.4,383,394.3,381.7,398.6z"/>
<path fill="#FFFFFF" stroke="#000000" stroke-miterlimit="10" d="M413.7,393.6c-0.3,4.6-2.7,8.9-5.5,12.1c-1.6,1.8-3.4,3.3-4.9,4.2
	c-0.7,0.5-1.5,1.1-2.1,1.9c-1.1,1.3-2.2,3-3.4,4.8c-0.1-0.5-0.1-1-0.2-1.4c0-0.2-0.1-0.5-0.1-0.7c-0.1-0.3-0.1-0.6-0.2-0.9
	c0-0.2-0.1-0.4-0.2-0.6c-0.1-0.3-0.2-0.7-0.3-1c-0.1-0.2-0.1-0.4-0.2-0.6c-0.1-0.2-0.1-0.4-0.2-0.5c-0.1-0.2-0.1-0.4-0.2-0.5
	c-0.1-0.4-0.3-0.7-0.5-1c-0.2-0.3-0.3-0.6-0.5-0.9c-0.2-0.4-0.5-0.8-0.7-1.2c-0.1-0.1-0.2-0.2-0.2-0.3c-0.1-0.1-0.1-0.2-0.2-0.3
	c-0.5-0.8-1-1.3-1.3-1.6c0,0-0.1-0.1-0.1-0.1c-0.1-0.1-0.2-0.2-0.2-0.2c0,0,0,0,0,0c0,0,0.1,0,0.2,0.1c0,0,0.1,0,0.2,0
	c0.2,0,0.4,0.1,0.6,0.1c0.2,0,0.4,0.1,0.6,0.1c0.2,0,0.3,0.1,0.5,0.1c0.2,0,0.4,0,0.6,0.1c0.4,0,0.8,0.1,1.3,0.1c0.3,0,0.6,0,0.9,0
	c0.3,0,0.6,0,1,0c0.2,0,0.5,0,0.7-0.1c0,0,0,0,0.1,0c0.2,0,0.5-0.1,0.7-0.1c0.4-0.1,0.9-0.2,1.3-0.3c0.1,0,0.2-0.1,0.4-0.1
	c1.1-0.4,2.3-1,3.4-1.9C408.1,399.6,410.8,395.4,413.7,393.6z"/>
<path fill="#FFFFFF" stroke="#000000" stroke-miterlimit="10" d="M395.8,419.6v28.9c0,0-4.4,12.9-18.5,12.2
	c-0.7-0.8-1.5-1.5-2.4-2.2c1.1-1,2.3-2,3.5-3.1l5,0.4l8.8-6.5l-0.7-4.4c0.1-0.1,0.2-0.1,0.2-0.1c0-0.1,0-0.3,0-0.5
	c0.1-2.7,0.9-14.5,1.4-21.4C394,422,394.9,420.9,395.8,419.6z"/>
<path fill="#FFFFFF" stroke="#000000" stroke-miterlimit="10" d="M431.2,432.9l-6.4,7.9l-6.2-3v-8l2.4-6.4c1.1,1.3,2.2,2.6,3.4,3.8
	c1.3,1.4,3.2,3,5.5,4.8C430.3,432.1,430.7,432.5,431.2,432.9z"/>
<path fill="#FFFFFF" stroke="#000000" stroke-miterlimit="10" d="M454.1,448.8c-0.8,0.1-1.5,0.1-2.2,0.2l-2,6.3l-11,2l-11.2-13.7
	l8.8-6.9c-1-0.7-2-1.4-3-2.1c-0.8-0.6-1.6-1.1-2.3-1.7l-6.4,7.9l-6.2-3v-8l2.4-6.4c-5.2-6.2-10.3-13.7-12.8-17.6
	c-1.6,1.8-3.4,3.3-4.9,4.2c-0.7,0.5-1.5,1.1-2.1,1.9c2.4,7.1,10.1,28.9,17.8,35.9c9.3,8.4,20.1,15,20.1,15s4.2,0.6,8.7-0.7
	c4.2-1.2,8.6-4,10.3-10.4C456.8,450.6,455.5,449.7,454.1,448.8z M415.3,423.4l-5.8-4l2.2-4.5c0,0,4.5,5.9,4.5,6.4
	C416.3,421.9,415.3,423.4,415.3,423.4z"/>
<path fill="#FFFFFF" stroke="#000000" stroke-miterlimit="10" d="M416.3,421.4c0,0.5-1,2-1,2l-5.8-4l2.2-4.5
	C411.8,415,416.3,420.9,416.3,421.4z"/>
<path fill="#FFFFFF" stroke="#000000" stroke-miterlimit="10" d="M452.4,447.6l-0.4,1.4l-2,6.3l-11,2l-11.2-13.7l8.8-6.9
	C441.5,440.2,447.2,444,452.4,447.6z"/>
<path fill="#FFFFFF" stroke="#000000" stroke-miterlimit="10" d="M451.1,668.6c-7.9,2.4-18.5-12.8-18.5-12.8
	c-1.7-4.8-3.4-10.5-4.7-16.8c-3.8-18.8-10.7-63.7-10.7-63.7s-11.1,53.9-16,72.6c0,0,0,0,0,0c-9.8,16.2-17.8,11.7-17.8,11.7
	s-0.2-5.2-0.4-13.3h7.3l10.2-25.3l-7.2-11.4l6.1-3.7l4.8-18.2l-9.6-14.1l-5.3-17.4c0.7-2.3,1.4-4.3,2.2-6.1c1.9-4.2,3.4-8,4.4-11.6
	c1.6,9.1,6.1,24.8,18.4,30.5c9.1-10.1,8.4-19.8,18.3-28.6c-0.1-0.3-0.1-0.7-0.2-1c1.8,0.5,5.4,1.9,8.1,5.2c1,7.3,2.5,14.3,4.7,19.4
	c0.4,0.5,0.7,1,1,1.6c-6.4,5.7-20.9,18.5-21.9,20c-1.2,2,1.2,22.5,1.2,22.5l8,6.4l-6.2,9.8c0,0,9.8,15,10.3,18.7
	c0.5,3.7,8.9,11.4,8.9,11.4l4.3-2.8C450.9,659.8,450.9,666,451.1,668.6z"/>
<path fill="#FFFFFF" stroke="#000000" stroke-miterlimit="10" d="M393.4,609.7l7.2,11.4l-10.2,25.3h-7.3c-0.1-5.6-0.2-12.5-0.2-20.2
	c0.1-23.3,1.4-53,6.4-69.9l5.3,17.4l9.6,14.1l-4.8,18.2L393.4,609.7z"/>
<path fill="#FFFFFF" stroke="#000000" stroke-miterlimit="10" d="M409.7,755.9c-4.8-0.5-23.5-0.7-37.5,6.9
	c-13.8,7.5-47.2,29.2-48.2,29.9c0.3-0.7,9.3-18.9,24.7-25.6c15.7-6.9-18.1-3.6-34,4.8c17.6-17.1,21.4-13.5,29.7-13.1
	c2.3,0.1,5-0.3,7.9-1.2c0,0,0,0,0,0c2.8,1.8,7.7,4.8,9,4.8c1.8,0,12.3-8.2,12.6-10.7c0.2-1.3-2.6-5.2-5.3-8.7c0-0.1,0-0.2,0.1-0.2
	c2.8,0.5,6.6,0.9,10.6,0.5c0.7,7.9,5.4,9.4,8.8,8.8c3.8-0.7,9.3-2.1,10.2-2.1C399.2,750,406.4,752.1,409.7,755.9z"/>
<path fill="#FFFFFF" stroke="#000000" stroke-miterlimit="10" d="M373.9,751.7c-0.4,2.5-10.9,10.7-12.6,10.7c-1.3,0-6.3-3.1-9-4.8
	c7-2.3,14.4-7.6,16.4-14.5C371.3,746.5,374,750.4,373.9,751.7z"/>
<path fill="#FFFFFF" stroke="#000000" stroke-miterlimit="10" d="M385.1,709.8l-6.2,5.5l2.9,5.9l-5.9,19.4l-7,1.6c0,0,0-0.1,0-0.1
	c2.1-10.2,1.9-60.1,4.5-65.6c1-2.1,2.8-5.2,4.6-8.1c2.5,2.6,11,11.3,10.5,11.5c-0.5,0.2,2,14,2,14L385.1,709.8z"/>
<path fill="#FFFFFF" stroke="#000000" stroke-miterlimit="10" d="M401.3,648c-0.7,2.6-1.2,4.6-1.6,5.5c0,7.8-0.2,34.2-2.4,37.8
	c-2.1,3.6-17.4,37.1-18.1,48.2c-0.1,1.4-0.1,2.6,0,3.8v0c-4,0.4-7.9,0-10.6-0.5c0.1-0.2,0.1-0.4,0.1-0.5l7-1.6l5.9-19.4l-2.9-5.9
	l6.2-5.5l5.3-15.9c0,0-2.5-13.7-2-14c0.5-0.2-8-9-10.5-11.5c2.8-4.5,5.6-8.8,5.6-8.8S391.5,664.1,401.3,648z"/>
<path fill="#FFFFFF" stroke="#000000" stroke-miterlimit="10" d="M460.6,683.1c-5.2,5.7-14,9.8-14,9.8s-1.3,9.9-3.2,17.2
	c-1.5-3.2-2.6-6.2-2.8-8.5c-0.5-6.1-1.1-28.2-1.1-29.2c0-0.7-3.4-6.9-6.8-16.5c0,0,10.6,15.2,18.5,12.8
	C453.7,673.1,457.4,678,460.6,683.1z"/>
<path fill="#FFFFFF" stroke="#000000" stroke-miterlimit="10" d="M468.3,731.7c-3.8-0.6-8.3,5.9-10.6,9.8c-2-6.7-4.3-12.9-6.1-16.3
	c-2.5-4.7-5.8-10.2-8.2-15.1c1.8-7.3,3.2-17.2,3.2-17.2s8.9-4.1,14-9.8c2.8,4.5,5.3,9,6.5,13.6C468.5,702.3,468.2,717.8,468.3,731.7
	z"/>
<path fill="#FFFFFF" stroke="#000000" stroke-miterlimit="10" d="M462.2,765.4c0-0.3,0-0.5,0-0.8c-0.1-5.9-2-14.9-4.5-23.1
	c2.3-3.9,6.8-10.4,10.6-9.8c0.1,11,0.3,21,1.7,24.3c0.6,1.3,1,3,1.3,4.9C469.5,762.8,465.4,764.4,462.2,765.4z"/>
<path fill="#FFFFFF" stroke="#000000" stroke-miterlimit="10" d="M472.9,782.8c-0.8,0.6-1.6,1.2-2.5,1.7c-2.1,1.3-4.6,2.3-7.1,2.2
	c-3-0.1-4.8-1.8-6-3.7c2.5-5.3,4.7-11.7,4.9-17.8c3.2-1,7.3-2.6,9.2-4.5c0.4,2.3,0.7,5,0.9,7.7c0.3,3.5,0.4,7.2,0.5,10.2
	C472.8,780.3,472.9,781.7,472.9,782.8z"/>
<path fill="#FFFFFF" stroke="#000000" stroke-miterlimit="10" d="M479.5,805.8c-1.1,3.8-8.4,25.3-9.3,22.3c-0.8-3,3.8-18.7,2.4-24.2
	c-1.4-5.6-0.7-11.3-5.8-11.3s-7.2,2.7-9.5,5.2c-2.3,2.5-12.1,11.8-14.3,26.8c-3.9-14.6,5.1-26.2,8.9-32.1c1.5-2.4,3.5-5.7,5.4-9.5
	c1.2,1.9,3,3.6,6,3.7c2.5,0.1,4.9-0.9,7.1-2.2c0.9-0.5,1.7-1.1,2.5-1.7c0,1.7,0.1,2.9,0.2,3.6C473.7,790.1,480.6,802,479.5,805.8z"
	/>
<path fill="#FFFFFF" stroke="#000000" stroke-miterlimit="10" d="M451.5,620.1c0,11.4-0.2,22.7-0.4,31.5l-4.3,2.8
	c0,0-8.4-7.7-8.9-11.4s-10.3-18.7-10.3-18.7l6.2-9.8l-8-6.4c0,0-2.5-20.5-1.2-22.5c1-1.5,15.5-14.3,21.9-20
	C450.6,574,451.5,597.5,451.5,620.1z"/>
<path fill="#FFFFFF" stroke="#000000" stroke-miterlimit="10" d="M471.3,498.6c0,1,0,2,0,3c-4.2,4.6-9.3,8.5-12,5.1
	c-4.4-5.5-0.4-16.5,1.1-20.2c4.6,1.5,8.2,1.2,11,0C471.3,490.4,471.3,494.5,471.3,498.6z"/>
<path fill="#FFFFFF" stroke="#000000" stroke-miterlimit="10" d="M381.7,398.6c-1.3,4.3-8.5-2.3-8.1-5.2c0.4-2.9,0.4-8.4,3.1-7
	C376.7,386.4,383,394.3,381.7,398.6z"/>
<path fill="#FFFFFF" stroke="#000000" stroke-miterlimit="10" d="M400.6,382.1c-7.2,1.1-11.5,11.1-11.9,13.5c-0.4,2.3,2.6,7.7,8,6.9
	c5.3-0.8,4.7-2.9,10.3-7.8C412.6,389.8,408,381,400.6,382.1z M399,398.5c-4.9,3.2-7-0.5-6.8-2.3s8.4-11.5,12.1-9.6
	C405.7,388,403.9,395.3,399,398.5z"/>
<path fill="#FFFFFF" stroke="#000000" stroke-miterlimit="10" d="M399,398.5c-4.9,3.2-7-0.5-6.8-2.3s8.4-11.5,12.1-9.6
	C405.7,388,403.9,395.3,399,398.5z"/>
<path fill="#FFFFFF" stroke="#000000" stroke-miterlimit="10" d="M399.8,374.7c-5.6,3.9-11.1,10.4-13.7,14.3
	c-0.6-2.5-2.7-9.8-3.5-11.9c3.2-1.9,6.7-2.6,9.7-2.8C395.6,374,398.4,374.4,399.8,374.7z"/>
<path fill="#FFFFFF" stroke="#000000" stroke-miterlimit="10" d="M387.8,408.9v7.8c-0.9-0.1-1.9-0.1-2.9-0.1
	c0.1-2.1,0.1-5.1,0.1-7.3c0.9-0.7,1.8-1,2.6-0.6C387.7,408.9,387.8,408.9,387.8,408.9z"/>
<path fill="#FFFFFF" stroke="#000000" stroke-miterlimit="10" d="M384.9,416.7c-0.8,0-1.6,0.1-2.5,0.2c-0.1-1.2-0.1-3-0.1-4.1
	c0.8-1.3,1.8-2.6,2.8-3.4C385,411.6,385,414.6,384.9,416.7z"/>
<path fill="#FFFFFF" stroke="#000000" stroke-miterlimit="10" d="M382.4,416.9c-0.6,0.1-1.3,0.2-2,0.4c-0.4,0.1,0.4-2.2,1.8-4.5
	C382.3,414,382.3,415.7,382.4,416.9z"/>
<path fill="#FFFFFF" stroke="#000000" stroke-miterlimit="10" d="M394.1,418.8c-0.1,0-0.3-0.2-0.8-0.5c-0.5-0.3-1.3-0.6-2.4-1
	l0.1-4.7C392.7,415.4,394,418.6,394.1,418.8z"/>
<path fill="#FFFFFF" stroke="#000000" stroke-miterlimit="10" d="M391,412.7L391,412.7l-0.1,4.7c-0.9-0.2-1.9-0.5-3.1-0.6V409
	C388.9,409.7,390,411.1,391,412.7z"/>
<path fill="#FFFFFF" stroke="#000000" stroke-miterlimit="10" d="M504.7,312.1c-9.2-1.8-19,2.7-23.4,5c0.7-32.9-10.5-52.3-10.8-52.9
	c0.6,0.5,26.5,19.3,33,43C504,308.9,504.4,310.5,504.7,312.1z"/>
<path fill="#FFFFFF" stroke="#000000" stroke-miterlimit="10" d="M502.9,349.1c-8.1-4.1-17.8-5.8-24.3-6.6c0.2-0.9,0.4-1.8,0.5-2.7
	c1.4-8.1,2.1-15.7,2.3-22.7c4.3-2.3,14.2-6.8,23.4-5C507.3,325.2,505.7,338.1,502.9,349.1z"/>
<path fill="#FFFFFF" stroke="#000000" stroke-miterlimit="10" d="M502.9,349.1c-2,7.8-4.8,14.6-7.2,19.8c-1.4,2.9-3.7,6.3-6.5,9.9
	c-4-4.8-9.6-9.7-17.4-13.9c2.9-7.2,5.2-14.8,6.8-22.4C485,343.2,494.7,345,502.9,349.1z"/>
<path fill="#FFFFFF" stroke="#000000" stroke-miterlimit="10" d="M489.1,378.7c-10,12.5-26.8,26.8-32,29.9
	c-5.6,3.3-19.4,20.6-23.7,26c-0.8-0.6-1.6-1.1-2.3-1.7c-0.5-0.4-0.9-0.7-1.4-1c4.1-4.9,28.6-33.1,41.9-66.9
	C479.5,369,485.1,373.9,489.1,378.7z"/>
<path fill="#FFFFFF" stroke="#000000" stroke-miterlimit="10" d="M392.3,374.2c-3,0.2-6.5,1-9.7,2.8c-1.3,0.7-2.5,1.6-3.6,2.7
	c-1.8-2.7-4.2-6.7-6.8-11.6c2.8-4.8,7.8-11.3,15.6-14.8C389.1,363.1,391.3,370.8,392.3,374.2z"/>
<path fill="#FFFFFF" stroke="#000000" stroke-miterlimit="10" d="M387.8,353.4c-7.8,3.5-12.7,10-15.6,14.8c-1-1.8-1.9-3.7-2.9-5.8
	c-2.9-6.1-5.4-15.4-6.5-25.3v0c5.6-4,14.5-9.2,24-11.5C385.9,335.3,386.5,345,387.8,353.4z"/>
<path fill="#FFFFFF" stroke="#000000" stroke-miterlimit="10" d="M389.4,310.2c-0.8,4.1-1.6,8.1-2.1,12.1c-0.2,1.1-0.3,2.2-0.4,3.3
	c-9.6,2.3-18.4,7.5-24,11.5c-1.3-11.8-0.6-24.5,3.7-34.3c0.4-0.9,0.8-1.8,1.3-2.7C374.2,302.9,382.7,306.7,389.4,310.2z"/>
<path fill="#FFFFFF" stroke="#000000" stroke-miterlimit="10" d="M402.1,265.2c0,0-8,22.2-12.7,45c-6.7-3.5-15.1-7.3-21.6-10.1
	C377,282.9,402.1,265.2,402.1,265.2z"/>
<path fill="#FFFFFF" stroke="#000000" stroke-miterlimit="10" d="M372.7,500.4l-2.8,8.1l-2.5,0.6c-0.1-3.6-0.2-7.4-0.4-11.1
	c0-1.6-0.1-3.3-0.1-4.9l2.5,0.8l0.7,1.5L372.7,500.4z"/>
<path fill="#FFFFFF" stroke="#000000" stroke-miterlimit="10" d="M381.8,452.6c-1.1,0.9-2.3,1.9-3.5,2.9c-1.2,1-2.4,2-3.5,3.1
	c-0.6,0.6-1.2,1.1-1.8,1.7c-0.6,0.5-1.1,1.1-1.6,1.6c-1.3,1.4-2.4,2.6-3,3.6c-1.3,2.1-1.7,11-1.6,21.9c0,1.8,0,3.7,0.1,5.6
	c0,1.6,0.1,3.3,0.1,4.9c-12.9,12.7-29.1,43.7-34.4,54.7c-0.5,0.4-0.9,0.7-1.4,1.1c-5.3-17-33.1-16.4-61-6.6
	c7.1-12.9,42.8-72.6,100.5-91.5C374.3,454.5,378,453.4,381.8,452.6z"/>
<path fill="#FFFFFF" stroke="#000000" stroke-miterlimit="10" d="M383.3,451.4c-0.5,0.4-1,0.8-1.5,1.2c0,0,0,0,0,0
	c-3.8,0.8-7.5,1.9-11.1,3c-57.7,18.8-93.3,78.5-100.4,91.5c-0.2,0.1-0.4,0.1-0.6,0.2c-2.9-20-21-48.5-59.9-57
	c-3.5-2.8-6.8-6-9.8-9.4C237.7,456.7,303,428.9,383.3,451.4z"/>
<path fill="#FFFFFF" stroke="#000000" stroke-miterlimit="10" d="M383.6,451.1c-0.1,0.1-0.2,0.2-0.3,0.2h0
	c-80.3-22.4-145.6,5.4-183.4,29.5c-26.9-30.8-34.6-83.8-36.7-131.1C254.9,378.4,370.8,443.8,383.6,451.1z"/>
<path fill="#FFFFFF" stroke="#000000" stroke-miterlimit="10" d="M391.4,445.1c-0.7,0.5-3.3,2.5-6.5,5.1
	c-10.6-7.3-54.2-38.1-81.9-68.1c-31.6-34.3-83.2-102.1-115.5-133.9c-26.8-26.4-69.9-53.5-85.3-61.7c-3.1-3.2-6.1-6.5-9-9.8
	C198,226.5,250.2,311.3,294,362.8c39.2,46.2,87.8,75.8,97.3,81.3L391.4,445.1z"/>
<path fill="#FFFFFF" stroke="#000000" stroke-miterlimit="10" d="M433.8,509.4c-0.3,0.5-0.5,1.1-0.7,1.8c-1.3,0.6-2.9,1-5,1
	c-5.8-0.1-15.7-6.8-19.1-7.2c-2.4-0.3-8.7,2.1-12.3,3.7c-1.5-1.5-6.1-6.2-8.7-10c0,0,0,0,0,0v0c-0.2-0.5-0.3-1-0.4-1.5v0
	c0.7-1.4,1.5-2.7,2.2-3.8c1.2,0.7,2.5,1.3,3.6,1.3c3,0.1,6.2-3,11.7-2c5.5,1,16,4.5,18.9,4.6c2.6,0.1,10.9-7.7,12.4-9.1
	c-0.1,0.1-0.3,0.3-0.4,0.4C440.5,494.5,439.4,501.4,433.8,509.4z"/>
<path fill="#FFFFFF" stroke="#000000" stroke-miterlimit="10" d="M432.6,539.4c0,0.3,0.1,0.7,0.2,1c-9.9,8.8-9.1,18.5-18.3,28.6
	c-12.2-5.7-16.7-21.4-18.4-30.5c5.5-18.6,1.1-29.5,1.1-29.5s-0.2-0.2-0.5-0.5c3.6-1.5,9.9-4,12.3-3.7c3.4,0.5,13.3,7.1,19.1,7.2
	c2,0,3.7-0.4,5-1C430.9,517.2,430.5,526.8,432.6,539.4z"/>
<path fill="#FFFFFF" stroke="#000000" stroke-miterlimit="10" d="M396.1,538.5c-1.1,3.6-2.5,7.5-4.4,11.6c-0.8,1.8-1.6,3.8-2.2,6.1
	c-5,17-6.3,46.7-6.4,69.9c-4,8.5-12.6,28-15.6,44.2c0,0,0,0,0,0c0,0.1,0,0.2,0,0.3c-18.3-8.2-33.6,21.9-42.1,41
	c0.4-14.1,1.7-47.4,6.6-70.2c-0.1,0.7-0.2,1.3-0.4,2c-0.1,0.3-0.1,0.7-0.2,1.1c-0.1,0.5-0.1,1-0.2,1.6c0,0.4-0.1,0.8-0.1,1.2
	c0,0.1,0,0.2,0,0.4c0,0.4,0,0.7-0.1,1.1c0,0.1,0,0.2,0,0.3c0,0.5,0,1,0,1.5c0,5.7,1.1,11.7,4.5,17.3c-0.3-19.2,2.1-35,4-30.6
	c1.9,4.5,0.9,16.8,17.2,26.8c0,0-10.8-11.7-11.6-19.7s-0.8-11.6,0.4-10.9c1.1,0.7,2.6,14.4,19.2,16.5c1.3,0.2,2.7,0.3,4.1,0.3
	c-1.4-0.8-2.9-1.7-4.4-2.6c-6.4-3.9-13.4-8.8-13.8-17.8c-0.5-11.1-0.9-14.6-2.9-16.5c1.7-3.6,2.6-10.4,8.5-18.1c2-2.6,4.8-7,7.8-12
	c0,0,0,0,0,0c5.8-9.9,11.9-22.3,12.7-28.3c1.2-9-1.1-17.2-0.5-20.2c0.5-2.3,5.1-24.8,11.2-37.3c0.2,0.3,0.4,0.6,0.6,1v0c0,0,0,0,0,0
	c2.6,3.8,7.2,8.5,8.7,10c0.3,0.3,0.5,0.5,0.5,0.5S401.6,519.9,396.1,538.5z"/>
<path fill="#FFFFFF" stroke="#000000" stroke-miterlimit="10" d="M384.1,488c-1.4-1.3-2.9-2.9-3.9-4.5c-1.9-3,1-12.1,3.6-16.9
	c-1.4-0.6-2.8-1.2-4.2-1.8c0.1,0.6,0.1,1.1-0.1,1.6c-1.5,3.9-2.5,7.4-2.6,9.3c-0.1,1.8,2,9-7.1,13.9c0.6,1.1,1.5,2.7,2.3,4.4
	c1.7,3.6,3.3,7.9,3,10.8c-0.5,3.9-4.1,7.9-7.5,9c0.4,9.2,0.7,17.1,0.8,20.8v0c0,1.2,0,2,0,2.1c-0.6,1.5-9.5,7-13.7,20.9
	c-4.3,13.9-12.6,45.5-15.1,50.8c-2.5,5.2-15.3,21.9-17.3,24.5c-2,2.6,0.4,16.3,0.4,16.3s0.9-11.4,5.6-16.7c3.5-3.9,6.7-5.8,7.6-5.2
	c0.3,0.2,0.3,0.8-0.2,1.8c-0.7,1.4-2.2,5.1-3.4,10c-0.1,0.5-0.2,1-0.4,1.6c0,0.2-0.1,0.5-0.1,0.7c-0.1,0.7-0.2,1.3-0.4,2
	c-0.1,0.4-0.1,0.7-0.2,1.1c-0.1,0.5-0.1,1-0.2,1.6c0,0.4-0.1,0.8-0.1,1.2c0,0.1,0,0.2,0,0.4c0,0.4,0,0.7-0.1,1.1c0,0.1,0,0.2,0,0.3
	c0,0.5,0,1,0,1.5c0,5.7,1.1,11.7,4.5,17.3c-0.3-19.2,2.1-35,4-30.6c1.9,4.5,0.9,16.8,17.2,26.8c0,0-10.8-11.7-11.6-19.7
	c-0.8-8-0.8-11.6,0.4-10.9c1.1,0.7,2.6,14.4,19.2,16.5c1.3,0.2,2.7,0.3,4.1,0.3c-1.4-0.8-2.9-1.7-4.4-2.6
	c-6.4-3.9-13.4-8.8-13.8-17.8c-0.5-11.1-0.9-14.6-2.9-16.5c1.7-3.6,2.6-10.4,8.5-18.1c2-2.6,4.8-7,7.8-12c0,0,0,0,0,0
	c5.8-9.9,11.9-22.3,12.7-28.3c1.2-9-1.1-17.2-0.5-20.2c0.4-2.3,5.1-24.8,11.2-37.3c0.1-0.2,0.2-0.3,0.2-0.5v0
	c-0.3-1.9,0.5-3.7,0.8-4.7c0.2-0.5,0.3-0.8,0.1-0.8C388.2,491.4,386.2,490,384.1,488z"/>
<path fill="#FFFFFF" stroke="#000000" stroke-miterlimit="10" d="M439.1,462.7c0,0-10.9-6.6-20.1-15c-7.7-7-15.4-28.8-17.8-35.9
	c-1.1,1.3-2.2,3-3.4,4.8c-0.6,1-1.3,2-2,3v28.9c0,0-4.4,12.9-18.5,12.2c0.8,0.9,2,3.1,2.4,4c1.7,0.7,2.5,1.1,4.2,1.8
	c0.6-0.9,1.6-2.5,2.1-2.8c2.5-1.8,17.8,6.3,17.8,6.3l26.6-9.4l7.4,9.2c3.2-0.9,6.2-1.8,9.1-2.5c0.2-2.1,0.5-4,1-5.4
	C443.3,463.2,439.1,462.7,439.1,462.7z"/>
<path fill="#FFFFFF" stroke="#000000" stroke-miterlimit="10" d="M368.3,536.8c-0.6,1.5-9.5,7-13.7,20.9
	c-4.3,13.9-12.6,45.5-15.1,50.8c-2.5,5.2-15.3,21.9-17.3,24.5c-2,2.6,0.4,16.3,0.4,16.3s0.9-11.4,5.6-16.7c3.5-3.9,6.7-5.8,7.6-5.2
	c-1.4,3.3-2.6,7.3-3.6,11.7c-0.1,0.5-0.2,1-0.4,1.6c0,0.2-0.1,0.5-0.1,0.7c-4.9,22.8-6.2,56.1-6.6,70.2v0c-0.8,1.8-1.5,3.4-2.1,4.9
	c-12.5-12.8-34.6,0.3-43.1,18.2c-0.2-0.3-0.5-0.6-0.7-0.9c1.2-23.8,8.1-88.3,46.7-153.7c18.6-17.5,33.5-33.2,36.2-43.6l6.2-2
	C368.4,535.9,368.4,536.6,368.3,536.8z"/>
<path fill="#FFFFFF" stroke="#000000" stroke-miterlimit="10" d="M326,580.2c-38.6,65.4-45.5,129.9-46.7,153.7
	c-16.2-20.9-34.4-0.5-48.5,21.2c-14.3,22.1-18.9,64.2-24.6,68.8c1.3-18.2,2.9-34.5,4.8-49.3c11-44.1,31.3-116.8,55.8-140.4
	C284.8,617,307.3,597.7,326,580.2z"/>
<path fill="#FFFFFF" stroke="#000000" stroke-miterlimit="10" d="M362.2,536.6c-2.8,10.3-17.6,26.1-36.2,43.6
	c-18.7,17.5-41.2,36.8-59.2,54.1c-24.5,23.5-44.9,96.3-55.8,140.4c12.4-100.7,34.8-125,42.3-136.8c8.6-13.5,46-41.7,70.9-64.2
	c6.1-5.5,11.4-10.7,15.9-15.3c0,0,0,0,0,0c8.8-9.1,14.6-16.2,17.8-20.2C360.6,537,362.2,536.6,362.2,536.6z"/>
<path fill="#FFFFFF" stroke="#000000" stroke-miterlimit="10" d="M787.7,392.6c-18.4,47-43.2,95.6-84.3,122.2
	c-96.8-88.3-221.3-56.9-232.9-53.7h0c-0.4-0.1-0.8-0.1-1.1-0.2c-0.2-0.3-0.4-0.6-0.7-0.9c0,0,4.4-1.5,11.5-4.4
	c8.8-2.5,21.5-6.4,35.5-11.5C589.3,425.1,721.3,403.2,787.7,392.6z"/>
<path fill="#FFFFFF" stroke="#000000" stroke-miterlimit="10" d="M620,553.7c-31.3-9.5-78.2-3-80.6,5.7c0,0,0,0,0,0
	c-0.6-0.8-35-48.4-66.1-60.1c-0.7-0.3-1.4-0.5-2-0.7c0-4,0-8.1,0-12c0-1.6,0-3.2,0-4.7c-0.1-10.1-0.6-18.3-1.7-20.5
	c0,0,0.3-0.1,0.9-0.2h0C488.8,464.4,591.5,485.6,620,553.7z"/>
<path fill="#FFFFFF" stroke="#000000" stroke-miterlimit="10" d="M489.3,561.6c0.1,0.1,0.7,1.1,1.8,2.9c-0.1,3.7-0.3,8.3-0.7,13.5
	h-16.1l-4.3-15l11.4-18.7c0.8,0.8,1.6,1.6,2.3,2.4c3.5,3.7,6.5,7.3,7.1,10.3c0,0,0,0.1,0,0.1c0.2,1,0.3,2.8,0.3,5.1
	C490,561.8,489.4,561.6,489.3,561.6z"/>
<path fill="#FFFFFF" stroke="#000000" stroke-miterlimit="10" d="M490.4,577.9c-0.6,8.6-1.4,18.5-2.1,27.2l-3.6-0.6l-1-0.2l-3.9-3.9
	l-3.4-13.4l4.1-9H490.4z"/>
<path fill="#FFFFFF" stroke="#000000" stroke-miterlimit="10" d="M488.3,605.1c-0.6,6.8-1.1,12.9-1.4,17h-5.4c0,0-0.7-8.1,0-9.3
	c0.5-0.9,2.4-6.1,3.2-8.4L488.3,605.1z"/>
<path fill="#FFFFFF" stroke="#000000" stroke-miterlimit="10" d="M535.2,739.4c-12.1-28.9-35.8-65.9-55.5-52.8
	c-3.4-13.3-17.1-52.4-28.2-66.5c0-22.6-0.9-46.1-5.1-54.5c-0.3-0.6-0.6-1.2-1-1.6c-2.2-5.1-3.7-12.1-4.7-19.4
	c-2.2-15.7-2.2-33-1.9-37.2c5.4-4.7,8.9-11.3,11-16.1c4.4,14.4,10.9,36.2,11.6,42.4c1.1,9.3,0.8,25.3,4,34.7
	c3.2,9.4,9.1,16.4,10.1,31c1,14.6,1.7,27.8,1.7,27.8s-8.7,3.3-9.8,13.1c5.5-4.3,7-3,8-0.6c1,2.4,4.3,19,0.2,31.1
	c4.6-5.1,6.7-22.1,6.7-22.1s1.5,18.9-1.8,30.3c6.2-7.7,5.8-29.6,5.8-29.6s5.5,19.5,1.8,30.7c6.8-10.8,1.2-31.6,2-33.2
	c3,1.2,8.5,10.6,8.2,26.1c3-14.1,2.7-18.4,2-20.9c-0.7-2.5-8.1-8.1-8.4-11.6c-0.4-3.6-3.6-11.8-5.4-14.4c0-0.9,0.1-2.2,0.3-3.9
	c0.3-4.1,0.9-10.2,1.4-17c0.7-8.7,1.6-18.6,2.1-27.2c0.3-5.1,0.6-9.8,0.7-13.5C499.8,579.4,537.7,649.5,535.2,739.4z"/>
<path fill="#FFFFFF" stroke="#000000" stroke-miterlimit="10" d="M688.8,869.5c-16-43.5-29.9-96.2-78.4-120.5
	c-13.5,3.2-17.8,15-17.8,15c-3.3-154.4-87.9-196-101.4-201.7c0-2.3-0.1-4.1-0.3-5.1c12.6,9.9,37.6,29.4,48.6,36.5
	c9.7,6.2,45.7,27.1,76.2,48.4c8.5,8.1,16.2,16.7,22.2,25.7C661.7,704.1,682,757.6,688.8,869.5z"/>
<path fill="#FFFFFF" stroke="#000000" stroke-miterlimit="10" d="M615.7,642c-30.5-21.3-66.5-42.2-76.2-48.4
	c-11-7.1-36-26.6-48.6-36.5c0,0,0-0.1,0-0.1c-0.6-3-3.6-6.6-7.1-10.3c4.2-2.1,8.5-3.1,12.9-3.3h0c10.7,11.1,29.4,30,43.5,41.3
	C556,597.3,589.7,617.4,615.7,642z"/>
<path fill="#FFFFFF" stroke="#000000" stroke-miterlimit="10" d="M498.3,673c3-14.1,2.7-18.4,2-20.9c-0.7-2.5-8.1-8.1-8.4-11.6
	c-0.4-3.6-3.6-11.8-5.4-14.4c0-0.9,0.1-2.2,0.3-3.9h-5.4c0,0-0.7-8.1,0-9.3c0.5-0.9,2.4-6.1,3.2-8.4l-1-0.2l-3.9-3.9l-3.4-13.4
	l4.1-9h-6l-4.3-15l11.4-18.7c-4.4-4.6-8.9-9-9.7-12.3c-0.7-2.9-0.5-16.1-0.4-30.4c-4.2,4.6-9.3,8.5-12,5.1
	c-4.4-5.5-0.4-16.5,1.1-20.2c-1-0.3-2-0.7-3-1.2c-9.3-4.3-10.9-12-10.4-17.9c-2.9,0.8-5.9,1.6-9.1,2.5l6.1,7.7c0,0-1.7,4.3-7.3,10.3
	c0,0,0,0,0,0c0,0-0.1,0.1-0.2,0.2c-0.1,0.1-0.3,0.3-0.4,0.4c4.5,6.1,3.4,13-2.1,20.9c-0.3,0.5-0.5,1.1-0.7,1.8
	c-2.2,6-2.6,15.7-0.5,28.2c1.8,0.5,5.4,1.9,8.1,5.2c-2.2-15.7-2.2-33-1.9-37.2c5.4-4.7,8.9-11.3,11-16.1
	c4.4,14.4,10.9,36.2,11.6,42.4c1.1,9.3,0.8,25.3,4,34.7c3.2,9.4,9.1,16.4,10.1,31c1,14.6,1.7,27.8,1.7,27.8s-8.7,3.3-9.8,13.1
	c5.5-4.3,7-3,8-0.6c1,2.4,4.3,19,0.2,31.1c4.6-5.1,6.7-22.1,6.7-22.1s1.5,18.9-1.8,30.3c6.2-7.7,5.8-29.6,5.8-29.6
	s5.5,19.5,1.8,30.7c6.8-10.8,1.2-31.6,2-33.2C493.1,648,498.7,657.4,498.3,673z M479.7,638.3l-1.2,4.3l-4.6-8.3l7.6-8.3l4.4,5
	l3.5,6.4L479.7,638.3z"/>
<polygon fill="#FFFFFF" stroke="#000000" stroke-miterlimit="10" points="489.3,637.3 479.7,638.3 478.5,642.6 473.8,634.3 
	481.4,625.9 485.8,630.9 "/>
<path fill="#FFFFFF" stroke="#000000" stroke-miterlimit="10" d="M384.9,450.1c-0.4,0.3-0.8,0.6-1.2,1
	c-12.8-7.3-128.7-72.7-220.4-101.3c-1.9-42.3,0.6-79.9-2.4-92.6c-6-25.2-34.9-46-58.7-70.7c15.5,8.2,58.5,35.2,85.3,61.7
	C219.8,280,271.4,347.7,303,382C330.6,412,374.3,442.8,384.9,450.1z"/>
<path fill="#FFFFFF" stroke="#000000" stroke-miterlimit="10" d="M471.3,481.9l-6.2,3.4l-11.5-13.7l0.7-6.2l0.3-2.6l7.4-8.4
	c2.3,1.8,4.3,3.4,5.7,4.7c0.4,0.4,0.7,0.7,1,1c0.3,0.3,0.5,0.6,0.7,0.9c0.3,0.1,0.7,0.1,1.1,0.2c-0.6,0.1-0.9,0.2-0.9,0.2
	C470.7,463.6,471.1,471.8,471.3,481.9z"/>
<path fill="#FFFFFF" stroke="#000000" stroke-miterlimit="10" d="M970,200.1c-74.8,35.6-120.5,42.3-146.1,96
	c-11.3,23.6-21.7,59.6-36.2,96.5c-66.4,10.5-198.4,32.5-272,51.5c19.9-7.3,42.4-17.1,60.5-29.2c42.1-28.1,178.6-145,216.7-159.3
	c26-9.7,88.1-33.6,136-48c11.3-3.4,21.8-6.3,30.8-8.3C963.5,199.3,967,199.6,970,200.1z"/>
<path fill="#FFFFFF" stroke="#000000" stroke-miterlimit="10" d="M392.1,449.5l-8.8,6.5l-5-0.4c1.2-1,2.3-2,3.5-2.9c0,0,0,0,0,0
	c0.5-0.4,1-0.8,1.5-1.2h0c0.1-0.1,0.2-0.2,0.3-0.2c0.4-0.3,0.8-0.6,1.2-1c3.2-2.6,5.8-4.5,6.5-5.1L392.1,449.5z"/>
<path fill="#FFFFFF" stroke="#000000" stroke-miterlimit="10" d="M703.4,514.8c-30.7-3.2-65.6,1.1-83.4,38.8
	c-28.5-68.1-131.2-89.3-149.5-92.5C482.1,458,606.6,426.6,703.4,514.8z"/>
<path fill="#FFFFFF" stroke="#000000" stroke-miterlimit="10" d="M368.4,534.6L368.4,534.6l-6.2,2c0,0-1.6,0.4-4.4,1.5
	c-5.2,2-14.4,6.3-25.1,14.5c5.3-11,21.5-42,34.4-54.7c0.1,3.7,0.2,7.5,0.4,11.1c0,1.6,0.1,3.2,0.2,4.8
	C368,523.1,368.3,531,368.4,534.6z"/>
<path fill="#FFFFFF" stroke="#000000" stroke-miterlimit="10" d="M374.1,463.5l-1.6,13.6l-3.1,8.1l-2.5,2.1
	c-0.1-10.8,0.3-19.8,1.6-21.9c0.6-1,1.7-2.3,3-3.6L374.1,463.5z"/>
<path fill="#FFFFFF" stroke="#000000" stroke-miterlimit="10" d="M377,475.6c-0.1,1.8,2,9-7.1,13.9c0.6,1.1,1.5,2.7,2.3,4.4
	c1.7,3.6,3.3,7.9,3,10.9c-0.5,3.9-4.1,7.9-7.5,9c-0.1-1.6-0.1-3.2-0.2-4.8l2.5-0.6l2.8-8.1l-2.5-5.1l-0.7-1.5L367,493
	c0-1.9-0.1-3.8-0.1-5.6l2.5-2.1l3.1-8.1l1.6-13.6l-2.6-1.7c0.5-0.5,2.8-2.7,3.4-3.3c1.5,0.3,5.3,6.1,4.7,7.8
	C378.1,470.3,377.1,473.8,377,475.6z"/>
<path fill="#FFFFFF" stroke="#000000" stroke-miterlimit="10" d="M443.9,477.6c0,0-1.7,4.3-7.3,10.3c0,0,0,0,0,0
	c0,0-0.1,0.1-0.2,0.2c-1.5,1.4-9.8,9.2-12.4,9.1c-2.9-0.1-13.4-3.7-18.9-4.6c-5.5-1-8.7,2.1-11.7,2c-1.1,0-2.4-0.6-3.6-1.3
	c-0.5-0.3-0.9-0.6-1.4-0.9c0.2-0.5,0.3-0.8,0.1-0.8c-0.3-0.1-2.3-1.6-4.4-3.6c-1.4-1.3-2.9-2.9-3.9-4.5c-2.5-3.9,3.2-17.9,5.7-19.7
	c2.5-1.8,17.8,6.3,17.8,6.3l26.6-9.4l7.4,9.2L443.9,477.6z"/>
<path fill="#FFFFFF" stroke="#000000" stroke-miterlimit="10" d="M471.3,486.5c-2.8,1.1-6.5,1.5-11,0c-1-0.3-2-0.7-3-1.2
	c-9.3-4.3-10.9-12-10.4-17.9c0.1-2.1,0.5-4,1-5.4c4.2-1.2,8.6-4,10.3-10.4c1.4,1,2.7,2,3.9,2.9l-7.4,8.4l-0.3,2.6l-0.7,6.2
	l11.5,13.7l6.2-3.4C471.3,483.4,471.3,485,471.3,486.5z"/>
<path fill="#FFFFFF" stroke="#000000" stroke-miterlimit="10" d="M539.4,559.4c-0.6-0.5-21.8-17-42.8-16h0
	c-4.4,0.2-8.7,1.2-12.9,3.3c-0.8-0.8-1.5-1.6-2.3-2.4c-4.4-4.6-8.9-9-9.7-12.3c-0.7-2.9-0.5-16.1-0.4-30.4c0.7-0.8,1.4-1.5,2-2.3
	C504.5,511,538.8,558.6,539.4,559.4z"/>
<path fill="#FFFFFF" stroke="#000000" stroke-miterlimit="10" d="M592.5,764c0,0-29.6-44.2-57.4-24.6c2.5-89.9-35.4-160-44.1-174.9
	c0-0.8,0-1.5,0-2.2C504.6,568,589.3,609.6,592.5,764z"/>
<path fill="#FFFFFF" stroke="#000000" stroke-miterlimit="10" d="M928.8,207.7c-47.8,14.4-110,38.3-136,48
	C754.7,270,618.2,386.9,576.1,415c-18.1,12.1-40.6,21.9-60.5,29.2c-14,5.1-26.7,9-35.5,11.5c18.8-7.4,56.7-23.4,85.3-42.9
	c28.4-19.4,191-148.3,205-154.9C784.5,251.4,875.6,215.7,928.8,207.7z"/>
<ellipse fill="#FFFFFF" stroke="#000000" stroke-miterlimit="10" cx="404.6" cy="480.7" rx="4" ry="6.2"/>
<path fill="#FFFFFF" stroke="#000000" stroke-miterlimit="10" d="M479.6,756.3c-2.1,9.5-4.9,17.5-6.9,22.6
	c-0.1-3.1-0.2-6.7-0.5-10.2C474.4,765.5,477,761.2,479.6,756.3z"/>
</svg>
