<?xml version="1.0" encoding="utf-8"?>
<!-- Generator: Adobe Illustrator 25.2.0, SVG Export Plug-In . SVG Version: 6.00 Build 0)  -->
<svg version="1.1" baseProfile="tiny" id="Layer_1" xmlns="http://www.w3.org/2000/svg" xmlns:xlink="http://www.w3.org/1999/xlink"
	 x="0px" y="0px" viewBox="0 0 1000 1000" overflow="visible" xml:space="preserve">
<path fill="#FFFFFF" stroke="#000000" stroke-miterlimit="10" d="M583.6,109.2l-17.3,5.2l-31.1-13.3l-8.8-17.3h23l5.2,3.9l-1.4,2.6
	l0.5,11.5l0,0.6c0-0.1,0.1-0.2,0.2-0.5l7,3.8l5.3-2.2l1.5-5.9L583.6,109.2z"/>
<path fill="#FFFFFF" stroke="#000000" stroke-miterlimit="10" d="M566.7,65.2v10c0,0,0,0.1-0.2,0.3c-0.8,1.6-4.3,8.9-7.5,15.4
	c-2.4,4.9-4.5,9.4-5.2,10.8l-0.2-0.1l-0.5-11.5l1.4-2.6L566.7,65.2z"/>
<polygon fill="#FFFFFF" stroke="#000000" stroke-miterlimit="10" points="583.6,109.2 578.9,117.1 567.2,122.4 558.6,126.3 
	545.4,116.8 533.5,108.2 535.1,101.1 566.2,114.4 "/>
<path fill="#FFFFFF" stroke="#000000" stroke-miterlimit="10" d="M562.2,150.6c-1.5,2.2-4.3,5.1-8.3,4.7c-3.4-0.3-6.4-1.9-8.5-3.3
	l-0.1-0.3c3.2-0.9,7.8-2,10.7-2C558.2,149.7,560.4,150.1,562.2,150.6z"/>
<polygon fill="#FFFFFF" stroke="#000000" stroke-miterlimit="10" points="574.8,123.9 572,166.8 572,167.4 552.7,189.5 562.1,157.4 
	563.9,151 571.1,126.6 "/>
<path fill="#FFFFFF" stroke="#000000" stroke-miterlimit="10" d="M529.9,101.1l1.3,17.1l-10,43L509.1,135l-0.5-1
	c4.3-13,17.7-50.3,17.7-50.3l8.8,17.3l-1.7,7.2C533.5,108.2,530.4,101.1,529.9,101.1z"/>
<path fill="#FFFFFF" stroke="#000000" stroke-miterlimit="10" d="M567.2,122.4c-0.9,4.7-3.6,10.8-11.2,10.2
	c-9.1-0.7-10.5-10.8-10.6-15.8l13.2,9.5L567.2,122.4z"/>
<path fill="#FFFFFF" stroke="#000000" stroke-miterlimit="10" d="M578.9,117.1l-4.1,6.8l-3.7,2.7L555,138.4L540.4,126l-9.2-7.8
	l-1.3-17.1c0.5,0,3.6,7.2,3.6,7.2l11.9,8.5c0.1,5,1.5,15.1,10.6,15.8c7.6,0.6,10.2-5.5,11.2-10.2L578.9,117.1z"/>
<path fill="#FFFFFF" stroke="#000000" stroke-miterlimit="10" d="M571.1,126.6l-7.1,24.4c-0.5-0.2-1.1-0.3-1.7-0.5
	c-1.8-0.4-4-0.9-6.2-0.9c-2.9,0-7.5,1.1-10.7,2l-5-25.7l14.6,12.4L571.1,126.6z"/>
<path fill="#FFFFFF" stroke="#000000" stroke-miterlimit="10" d="M562.1,157.4l-9.4,32.1l-6.2-32.1
	C550.6,157.5,557.8,157.8,562.1,157.4z"/>
<path fill="#FFFFFF" stroke="#000000" stroke-miterlimit="10" d="M563.9,151l-1.8,6.3c-4.3,0.4-11.5,0.2-15.6,0l-1-5.4
	c2.1,1.4,5.1,3,8.5,3.3c4,0.4,6.8-2.6,8.3-4.7C562.9,150.7,563.4,150.9,563.9,151z"/>
<path fill="#FFFFFF" stroke="#000000" stroke-miterlimit="10" d="M573.6,70.9v4.3l-0.1,0.5l-4.1,0.7l-2.8-0.9
	c0.1-0.2,0.2-0.3,0.2-0.3v-10l2.6-2.4L573.6,70.9z"/>
<polygon fill="#FFFFFF" stroke="#000000" stroke-miterlimit="10" points="573.5,75.7 567.8,97.4 566.2,103.3 560.9,105.6 
	564.1,94.6 569.3,76.4 "/>
<path fill="#FFFFFF" stroke="#000000" stroke-miterlimit="10" d="M569.3,76.4l-5.3,18.3l-3.2,10.9l-7-3.8c0.7-1.5,2.8-6,5.2-10.8
	c3.2-6.6,6.7-13.9,7.5-15.4L569.3,76.4z"/>
<path fill="#FFFFFF" stroke="#000000" stroke-miterlimit="10" d="M552.7,189.5l-31.5-28.3l10-43.1l9.2,7.8l5,25.7
	c-0.1,0-0.2,0.1-0.3,0.1c0.1,0.1,0.2,0.2,0.4,0.2l1,5.4L552.7,189.5z"/>
<path fill="#FFFFFF" stroke="#000000" stroke-miterlimit="10" d="M577.3,172.7l-17.7,29.6l-4.4-0.1L508,172.8l-0.7-0.4l-8.3-30.2
	c0.6-1.2,0.9-1.8,0.9-1.8l8.2-4.7l1-0.6l12.1,26.2l31.5,28.3l19.2-22.1l0-0.6L577.3,172.7z"/>
<path fill="#FFFFFF" stroke="#000000" stroke-miterlimit="10" d="M508,172.8l-8.3,28l-3.2-0.1l-17.9-18.2c0.1-0.2,0.3-0.6,0.5-1.2
	l0,0c3-6.1,16.2-32,19.9-39.2l8.3,30.2L508,172.8z"/>
<path fill="#FFFFFF" stroke="#000000" stroke-miterlimit="10" d="M639.1,277.8c-0.2,0.7-0.5,1.5-0.9,2.4c0,0,0,0,0,0
	c-8.4,7.6-16.4,2.8-19.5,0.3c-0.9-0.7-1.3-1.2-1.3-1.2s-1.2-9.3-3.1-16.2c-0.5-1.9-1.6-4.8-3.1-8c0-0.3,0-0.6-0.1-1c0,0,0,0,0-0.1
	c-0.5-7.9-1.3-23.4-1.7-29.9c0.6,0.4,1.2,0.8,1.8,1.2c10.5,6.8,19.2,12.9,19.2,12.9S637.6,259.2,639.1,277.8z"/>
<path fill="#FFFFFF" stroke="#000000" stroke-miterlimit="10" d="M496.5,200.7l-22.4-0.6l-6.8-8.4l11.9-10.5c-0.3,0.6-0.5,1-0.5,1.2
	L496.5,200.7z"/>
<path fill="#FFFFFF" stroke="#000000" stroke-miterlimit="10" d="M450.1,223.2l-3.8,15.1l-5.5,21.5L407,287.4l-15.5-12.1
	c0,0-0.7-41.1,9.3-48.7c5.7-4.3,22.5-10.1,35.9-14.3c4.2-1.3,8.1-2.5,11.2-3.4l-5.8,5.1l7.4,9.3
	C449.6,223.2,449.8,223.2,450.1,223.2z"/>
<path fill="#FFFFFF" stroke="#000000" stroke-miterlimit="10" d="M447.9,247.7L447.9,247.7l-0.7,25.9c-0.5,0.1-0.9,0.2-1.4,0.4h0
	c-10.8,4.2-29.9,37.7-29.7,39.5c0.2,1.9-12.8-9-12.8-9l-1.2-3v0l-10.5-26.2l15.5,12.1l33.7-27.6l5.5-21.5L447.9,247.7z"/>
<path fill="#FFFFFF" stroke="#000000" stroke-miterlimit="10" d="M618.7,280.5c-1.2,1.8-2.6,3.9-4.2,6.2
	c-5.3,7.8-12.6,17.6-20.2,25.6c-0.4,0.5-0.9,0.9-1.3,1.3c-3.5,3.5-6.9,6.5-10.3,8.8c-30.2-36.6-89.8,1.4-89.8,1.4l-27.6-18.3
	c0,0-10-20.7-18.1-32.1l0.7-25.8l2.2,13c0,0,33,24.7,41.1,37.5c7.8-3.6,27.6-4.8,40.4,1.7c11.6-1.4,22.1-11.6,48,5.7
	c15.2-7.1,30.2-29,30.4-31.4c0.2-1.5,0.7-11.9,1-19.4c0,0.1,0.1,0.2,0.1,0.2c1.5,3.2,2.6,6.1,3.1,8c1.9,6.9,3.1,16.2,3.1,16.2
	S617.8,279.8,618.7,280.5z"/>
<path fill="#FFFFFF" stroke="#000000" stroke-miterlimit="10" d="M638.2,280.3c-2.3,6-7,15.9-12.7,24.2v0c-0.3,0.4-0.5,0.8-0.8,1.2
	c-2.3-8.8-7-15.3-10.2-18.9c1.6-2.3,3-4.4,4.2-6.2C621.8,283,629.8,287.9,638.2,280.3z"/>
<path fill="#FFFFFF" stroke="#000000" stroke-miterlimit="10" d="M445.8,274c-2,3.3-3.9,7.5-5.7,12.3c-12.2,33.3-18,97.3-20.1,125.7
	h0v0c0,0.5-0.1,0.9-0.1,1.3c-0.6,8-0.8,12.8-0.8,12.8l-7.1,7.5l-12.5-24.2l0.4-15.9l2.2-92l1.2,3c0,0,13.1,10.9,12.8,9
	C415.8,311.7,435,278.1,445.8,274z"/>
<path fill="#FFFFFF" stroke="#000000" stroke-miterlimit="10" d="M593,313.7c-0.3,7.8-1,17.4-2.7,20.6c-1.6,3-6.7,8.6-12.4,16.2
	c-2.7-2.6-9.1-8.7-11.6-9.1c-3.2-0.5-7.5,7.1-9.8,5.2c-2.3-2-20.9-11.2-24.2-11.2c-3.4,0-32.4,10.9-34.6,13.4
	c-2.1,2.5-4.3,11-11,9.6c-5.9-1.2-18.8-16.1-30.2-20.3c-0.6-0.8-1-1.4-1.3-2c-2.2-4.2-12.5-41-15-49.9c1.8-4.8,3.7-9,5.7-12.3h0
	c0.5-0.2,1-0.3,1.4-0.4c8.1,11.4,18.1,32.1,18.1,32.1l27.6,18.3c0,0,59.7-38,89.8-1.4C586,320.3,589.5,317.2,593,313.7z"/>
<path fill="#FFFFFF" stroke="#000000" stroke-miterlimit="10" d="M577.9,350.6c-4.1,5.5-8.5,11.9-12.1,19.1c-5.2-6.7-5.4-15-6.8-17
	c-1.4-2.1-3.4-1.6-21.9-7.5c-21.2,0.2-41.4,30.5-41.4,30.5s-5.2-3-10.8-6.6c-3.4-2.2-7.1-4.6-9.8-6.8c-3-6.8-14.4-18.3-18.7-24.2
	c11.5,4.2,24.4,19,30.2,20.3c6.8,1.4,8.9-7.1,11-9.6c2.1-2.5,31.2-13.4,34.6-13.4c3.4,0,21.9,9.3,24.2,11.2c2.3,2,6.6-5.7,9.8-5.2
	C568.8,341.9,575.2,348,577.9,350.6z"/>
<path fill="#FFFFFF" stroke="#000000" stroke-miterlimit="10" d="M565.8,369.8c-1.1,2.2-2.2,4.5-3.1,6.8c-1.1,2.8-1.9,5.5-2.5,8.1
	c-19.6-2.9-32,13.1-41.7,20.4c-4.7-4.8-18.7-9.5-28.2-12.6v0c-1.6-12.4-4.1-20-5.5-23.4c5.7,3.6,10.8,6.6,10.8,6.6
	s20.1-30.3,41.3-30.5c18.5,5.9,20.5,5.3,21.9,7.5C560.3,354.8,560.5,363.1,565.8,369.8z"/>
<path fill="#FFFFFF" stroke="#000000" stroke-miterlimit="10" d="M560.1,384.7c-0.9,3.9-1.4,7.7-1.6,11.1
	c-5.7-1.5-13.6-3.6-14.8-3.7c-2-0.2-16.8,12.3-26.4,19.4c-7.6-8-21.2-12.2-26.5-13.5c-0.2-1.9-0.4-3.7-0.6-5.4
	c9.5,3,23.5,7.8,28.2,12.6C528.2,397.7,540.6,381.7,560.1,384.7z"/>
<path fill="#FFFFFF" stroke="#000000" stroke-miterlimit="10" d="M560.9,418.1c0,3.2-10.7,23.4-17.1,21.9
	c-6.4-1.4-43.8-13.5-51.9-18.2c0-3.9,0-7.5-0.1-11c-0.2-4.7-0.5-9-0.9-12.9c5.3,1.4,18.9,5.5,26.5,13.5c9.6-7.1,24.4-19.6,26.4-19.4
	c1.2,0.1,9.1,2.2,14.8,3.7c-0.2,4,0,7.7,0.4,10.8v0C559.7,412.6,560.9,416.7,560.9,418.1z"/>
<path fill="#FFFFFF" stroke="#000000" stroke-miterlimit="10" d="M569.3,415.8c-0.1,0.3-0.4,1.3-0.9,2.7c-1.8,5.2-6.1,16.4-9,22.1
	c-3.8,7.4-13.3,13.4-22.5,20.3c-23.3-26.7-46.6-32.7-46.6-32.7s-4.4-9.2-6.4-11.5c1-2.8,5-4.8,7.9-5.9c0.1,3.4,0.2,7.1,0.1,11
	c8,4.6,45.5,16.8,51.9,18.2c6.4,1.4,17.1-18.7,17.1-21.9c0-1.4-1.2-5.5-1.9-11.5C564.3,408.8,569.5,414.7,569.3,415.8z"/>
<path fill="#FFFFFF" stroke="#000000" stroke-miterlimit="10" d="M526.5,485.2c-7.7,6.9-11.4,18.9-15.6,30.3
	c-3.4,9-11.8,39.1-16.8,68.6c-4.6-0.8-11-2.4-14.6-5.2c-4-3.1-14.6-19.5-21.6-30.7c-1.8-13.9-2.7-25.2-1.7-28.8
	c3.3-11.2,12.5-51.1,26.6-73.2c11.4-6.2,29,17.8,33,25.7C519,478.2,522.5,483,526.5,485.2z"/>
<path fill="#FFFFFF" stroke="#000000" stroke-miterlimit="10" d="M494.1,584.1c-2,11.8-3.5,23.5-3.9,33.8
	c-7.9-6.2-8.4-12.3-12.9-21.4c-3.8-7.7-10.4-10.3-13.9-11.2c-2-12.1-4.1-25.5-5.5-37c7,11.1,17.6,27.6,21.6,30.7
	C483.1,581.7,489.5,583.3,494.1,584.1z"/>
<path fill="#FFFFFF" stroke="#000000" stroke-miterlimit="10" d="M490.7,633.1c-3.8,6.4-10.9,14-10.9,14l-6.4-10.2l-3.2-13.5
	l-0.4-1.7c0,0-3.1-16.5-6.3-36.4c3.5,0.9,10.1,3.5,13.9,11.2c4.5,9.1,5,15.2,12.9,21.4v0C490.1,623.5,490.2,628.6,490.7,633.1z"/>
<path fill="#FFFFFF" stroke="#000000" stroke-miterlimit="10" d="M571.7,447.9c0,0-0.2,0.1-0.7,0.3c-2.7,1.3-12.7,6.2-15.3,10.6
	c-2.9,5.1-8.5,17.6-21.7,22c-0.4,0.1-0.9,0.3-1.3,0.5c-2.3,1-4.4,2.3-6.2,3.9c-4-2.2-7.5-7.1-10.7-13.2c-4-7.8-21.6-31.8-33-25.7
	l1.1-29.6c2,2.3,6.4,11.5,6.4,11.5s23.3,6,46.6,32.7c9.2-7,18.7-12.9,22.5-20.3c2.9-5.8,7.1-16.9,9-22.1
	C569.6,424.6,571.5,436.8,571.7,447.9z"/>
<path fill="#FFFFFF" stroke="#000000" stroke-miterlimit="10" d="M584.4,496.2c-4.3,1.4-10.1,3.2-10.5,3.5
	c-0.7,0.5-6.1,32.1-13.2,38.8c-3.2,3.1-6.8,5.9-9.7,8c-4.5-30.3-14.4-56.2-18.3-65.2c0.4-0.2,0.8-0.3,1.3-0.5
	c13.2-4.5,18.8-16.9,21.7-22c2.5-4.4,12.5-9.4,15.3-10.6C576,460.2,580.9,479.8,584.4,496.2z"/>
<path fill="#FFFFFF" stroke="#000000" stroke-miterlimit="10" d="M577.4,574.7c-3.7,16.4-5.1,36.2-5.5,50.5
	c-0.4,11.4-0.2,19.4-0.2,19.4l-4.5-1.4L552,627.2c0,0,3-20.9,1.8-50c4.3-4.3,9.9-10.6,10.7-15c1.2-7,6.7-46.2,22.5-53.9
	c1.9,9.5,3.2,16.2,3.3,16.8C590.8,526.7,584.1,545.2,577.4,574.7z"/>
<path fill="#FFFFFF" stroke="#000000" stroke-miterlimit="10" d="M587,508.2c-15.8,7.7-21.3,46.9-22.5,53.9
	c-0.8,4.5-6.4,10.7-10.7,15c-0.3-7.3-0.9-15-1.8-23.2c-0.3-2.5-0.6-5-1-7.4c2.9-2.1,6.5-4.8,9.7-8c7.1-6.8,12.5-38.3,13.2-38.9
	c0.4-0.3,6.2-2.2,10.5-3.5C585.4,500.5,586.2,504.6,587,508.2z"/>
<path fill="#FFFFFF" stroke="#000000" stroke-miterlimit="10" d="M496.1,649.5l-17.6,14.3L457.4,651c0-0.7-0.1-1.1-0.1-1.1l0.6-1.3
	l12.2-25.2l3.2,13.5l6.4,10.2c0,0,7.1-7.6,10.9-14C492.8,639.8,496.1,649.5,496.1,649.5z"/>
<path fill="#FFFFFF" stroke="#000000" stroke-miterlimit="10" d="M496.1,649.5c0,0-2.9,11.7-7.2,20.5c-0.4,0.9-0.9,1.7-1.3,2.5
	c-8.8,1.3-16.1,24.8-16,26.4c0.1,1.5-4.6-4-9-9.9c-1.2-3.1-2.3-9.8-3.1-16.8c-1.1-8.8-1.8-18.1-2-21.2l21.2,12.8L496.1,649.5z"/>
<path fill="#FFFFFF" stroke="#000000" stroke-miterlimit="10" d="M489.3,729v0.6c0,0-1.4,1.7-3.5,5.5c-16.7,5.3-15,24-19.5,32.8
	c-4.1,8-15.1,14.3-19.1,16.4c-0.5-4.1-1-8.2-1.4-12.3c3.4-2,10.3-6.7,15.3-13.7c6.5-9.2,12-27.7,27.8-29.3
	C489,729,489.1,729,489.3,729z"/>
<path fill="#FFFFFF" stroke="#000000" stroke-miterlimit="10" d="M485.8,735.2c-3.2,5.8-8.1,16.7-12.7,34.6c-1.1,4.2-1.9,9-2.6,14.2
	c-3.5,3.8-8.1,8.5-11.5,11.5c-3.9,3.4-7.9,2.5-10.4,1.2c-0.4-4-0.9-8.2-1.4-12.3c4-2.1,15-8.4,19.1-16.4
	C470.7,759.2,469.1,740.5,485.8,735.2z"/>
<path fill="#FFFFFF" stroke="#000000" stroke-miterlimit="10" d="M468.6,842.3c-1.5,2.5-4,4.6-7.7,5c-4.1,0.4-7-3.4-8.7-7
	c-0.1-6-0.8-14.4-1.6-23.9c4.8-5.2,12.9-13.5,18.5-17.7C468.2,813.5,468.3,829.5,468.6,842.3z"/>
<path fill="#FFFFFF" stroke="#000000" stroke-miterlimit="10" d="M468.6,842.3c-1.5,2.5-4,4.6-7.7,5c-4.1,0.4-7-3.4-8.7-7
	c0,2.2,0,4,0,5.6c-0.7,11.8-9.8,28.2-18.2,40.8l16-5.1l-2.3,8.1l-12.4,8.7l-6.1-4.8c-5.2,7.3-9.2,12.3-9.2,12.3l2.7,30.1
	c0,0,8.2,2.7,10.7,0c2.5-2.7,25.5-25,25.7-28.5c0.2-3.6,10.3-35.8,10.3-40.1C469.5,865.6,468.9,855.7,468.6,842.3z M449.1,876l1-6.4
	l10.6-5.3l1.1,9.9L449.1,876z"/>
<path fill="#FFFFFF" stroke="#000000" stroke-miterlimit="10" d="M450,881.5l-2.3,8.1l-12.4,8.7l-6.1-4.8c1.5-2.1,3.1-4.4,4.7-6.8
	L450,881.5z"/>
<path fill="#FFFFFF" stroke="#000000" stroke-miterlimit="10" d="M470.5,783.9c-0.6,4.7-1,9.7-1.3,14.8
	c-5.7,4.1-13.7,12.5-18.5,17.7c-0.6-6.2-1.3-12.9-2-19.8c2.5,1.3,6.5,2.2,10.4-1.2C462.4,792.4,466.9,787.7,470.5,783.9z"/>
<path fill="#FFFFFF" stroke="#000000" stroke-miterlimit="10" d="M488.9,670v59c-15.9,1.6-21.4,20.1-27.8,29.3
	c-5,7-11.9,11.7-15.3,13.7c-3.1-26.5-6-50.9-5.5-56.8c0.8-10.8,15.2-36.2,19.1-43c0.8,7,1.9,13.8,3.1,16.8c4.4,5.8,9.1,11.4,9,9.9
	c-0.1-1.5,7.2-25.1,16-26.4C488,671.8,488.5,670.9,488.9,670z"/>
<path fill="#FFFFFF" stroke="#000000" stroke-miterlimit="10" d="M582.8,651.7c0,0,0,0.2,0,0.4c-1.1,1.1-7.6,7.1-15.5,13.4
	c-2.3-8.2-18.5-19.1-18.5-19.1l3.2-19.2l15.2,15.9l4.5,1.4c0,0-0.2-8,0.2-19.4C575.6,640.1,581.7,650,582.8,651.7z"/>
<path fill="#FFFFFF" stroke="#000000" stroke-miterlimit="10" d="M582.8,652.1c0,2-0.2,10.5-1.4,18.6v0c0,0.3-0.1,0.6-0.1,0.8
	c-1.5,9.5-4.3,17.9-9.8,21.6c-5.6-26.5-17.7-25.9-17.7-25.9c0,0-0.1-0.3-0.2-0.8c0,0,0,0,0,0c-0.9-3.9-4.9-20-4.9-20
	s16.2,10.9,18.5,19.1C575.2,659.2,581.7,653.2,582.8,652.1z"/>
<path fill="#FFFFFF" stroke="#000000" stroke-miterlimit="10" d="M589.4,773.5c-11-3-15.8-20.3-22.7-35.3
	c-5.2-11.6-15.3-18.2-21.2-21c-0.7-1.9-1-3.3-0.7-4.3c0.6-2.1,6.8-35.6,8.8-46.5c0.1,0.5,0.2,0.8,0.2,0.8c0,0,12.1-0.6,17.7,25.9
	c5.5-3.7,8.2-12.1,9.8-21.6c0-0.3,0.1-0.6,0.1-0.8c3,3.9,9.6,14.2,12.3,31.9C596.3,719.8,591.4,749.6,589.4,773.5z"/>
<path fill="#FFFFFF" stroke="#000000" stroke-miterlimit="10" d="M588.7,793.7c-8.6-6-13.4-21.2-19.6-36.3
	c-4.5-10.9-10.4-13.9-14-14.7c-2.3-7.5-4.2-13.2-5.1-15.2c-1.8-4.1-3.6-7.6-4.5-10.3c5.8,2.8,15.9,9.4,21.2,21
	c6.8,15.1,11.6,32.4,22.7,35.3C588.7,781,588.4,787.9,588.7,793.7z"/>
<path fill="#FFFFFF" stroke="#000000" stroke-miterlimit="10" d="M595.1,836.2c-4.4,2.8-11.9,7.7-13,8.8c-1.4,1.4-7.5-0.6-10.7-3.1
	v0c0.2-11.5,0.2-24.9-0.8-35.1c-1.6-15.2-9.7-45.4-15.4-64c3.5,0.8,9.5,3.9,14,14.7c6.2,15,11,30.3,19.6,36.3c0,0.7,0.1,1.4,0.1,2.1
	C590.2,812.7,589.6,824.5,595.1,836.2z"/>
<path fill="#FFFFFF" stroke="#000000" stroke-miterlimit="10" d="M634,873l-24.5,2.9l-12.8,8.2c-11.5-7.7-26.2-17-26.3-18.4
	c0-0.8,0.2-5.3,0.5-11.8c2.4,1.4,6.3,3.5,7.7,2.9c2.1-0.9,8.3-11.2,12.6-11.2h9.8c1.2,1.5,2.5,3.1,4,4.6
	C614.9,860.7,626.2,868.1,634,873z"/>
<path fill="#FFFFFF" stroke="#000000" stroke-miterlimit="10" d="M658,901.8c0,0-14.3,4.9-17.9,2.6c-3.4-2.1-23.1-5.6-28.7-9.4
	l6.4-11.5l26.9-2C648.2,887,658,901.8,658,901.8z"/>
<path fill="#FFFFFF" stroke="#000000" stroke-miterlimit="10" d="M644.6,881.4l-26.9,2l-6.4,11.5c-0.4-0.3-0.8-0.6-1-0.9
	c-1.2-1.5-6.9-5.4-13.5-9.9l12.8-8.2L634,873c5.2,3.2,8.8,5.4,9.5,6.7C643.8,880.1,644.2,880.7,644.6,881.4z"/>
<path fill="#FFFFFF" stroke="#000000" stroke-miterlimit="10" d="M601.1,845.7h-9.8c-4.3,0-10.5,10.3-12.6,11.2
	c-1.5,0.6-5.4-1.5-7.7-2.9c0.1-3.6,0.3-7.7,0.4-12.2c3.2,2.5,9.4,4.5,10.7,3.1c1.1-1.1,8.6-6,13-8.8
	C596.6,839.3,598.5,842.4,601.1,845.7z"/>
<polygon fill="#FFFFFF" stroke="#000000" stroke-miterlimit="10" points="461.7,874.1 449.1,876 450,869.5 460.6,864.2 "/>
<path fill="#FFFFFF" stroke="#000000" stroke-miterlimit="10" d="M429.1,444.5c0,0-3.6,10.2-7.1,25.5c-1.8,0.8-3.4,2-4.8,3.6
	c-10.5,11.3-12.5,40.6-12.9,54.6c-0.1,4.7-0.1,7.6-0.1,7.6l-3.6,4.3l-5.9,7l-0.7,0.8l-3.2-18.4c4.2-3.8,9-7.6,8.7-13.4
	c-0.5-8.1,4.3-43.7,4.3-43.7s10.7-2.1,13.1-10c2.3-7.5,2.6-17.9,12-21.7C429,443,429.1,444.5,429.1,444.5z"/>
<path fill="#FFFFFF" stroke="#000000" stroke-miterlimit="10" d="M398.2,454c-0.5,2.4-4.8,24.8-15.9,27.2l-3-16.9
	c0.7-0.1,1.4-0.4,2.2-1c4.8-3.3,8.6-10.7,8.6-10.7S398.7,451.3,398.2,454z"/>
<path fill="#FFFFFF" stroke="#000000" stroke-miterlimit="10" d="M418.5,440.1c-1.7,2.6-7.6,6.2-7.6,6.2s-6.9-10.9-11.4-16.6
	c-3.2-4.1-5.8-18.1-6.9-25.7l7.3-10.6l-0.4,15.9l12.5,24.2l7.1-7.5c0,0,0.2-4.8,0.8-12.8C423.5,423.6,420,437.8,418.5,440.1z"/>
<path fill="#FFFFFF" stroke="#000000" stroke-miterlimit="10" d="M428.8,440.6c-9.4,3.7-9.7,14.2-12,21.7c-2.4,7.8-13.1,10-13.1,10
	s-4.8,35.6-4.3,43.7c0.3,5.9-4.5,9.7-8.7,13.4c0,0,0,0,0,0l-8.4-48.3c11.1-2.3,15.5-24.7,15.9-27.2c0.5-2.6-8.1-1.4-8.1-1.4
	s-3.8,7.4-8.6,10.7c-0.8,0.6-1.6,0.9-2.2,1L375,439l15.7-31.8l1.9-3.1c1.1,7.6,3.7,21.6,6.9,25.7c4.5,5.7,11.4,16.6,11.4,16.6
	s5.9-3.7,7.6-6.2c1.5-2.3,5.1-16.5,1.4-26.8c-0.4-1.1-0.9-2.2-1.5-3.2l0.6,0.6l0.8,1l0.1,0.2C425.8,419.8,428,433.8,428.8,440.6z"/>
<path fill="#FFFFFF" stroke="#000000" stroke-miterlimit="10" d="M437.7,574.7l-9.7,2.8c-9.2-9.2-19.3-36.6-23.7-49.4
	c0.4-14,2.5-43.3,12.9-54.6c-2.1,10.2-7.7,39.8-4.2,57.4C417.3,552.3,437.7,574.7,437.7,574.7z"/>
<path fill="#FFFFFF" stroke="#000000" stroke-miterlimit="10" d="M410.4,608.2c-0.7,3.3-15.7,1.2-15.7,1.2V547l5.9-7
	C403.2,548.7,412.4,582,410.4,608.2z"/>
<path fill="#FFFFFF" stroke="#000000" stroke-miterlimit="10" d="M410.4,608.2c2-26.2-7.2-59.5-9.8-68.2l3.6-4.3
	c0,0-0.1-2.9,0.1-7.6c4.4,12.8,14.5,40.2,23.7,49.4C428,577.5,411.1,604.8,410.4,608.2z"/>
<path fill="#FFFFFF" stroke="#000000" stroke-miterlimit="10" d="M438.4,580l-0.8,0.3l-5.8,2.6l-0.1,0.1l-0.5,12.1c0,0,0,0-0.1,0
	c-2.1,1.8-4.4,15.9-5.2,20.7c-0.2,1-0.2,1.6-0.2,1.6s-1.4,0.2-6.5-1c-0.5-0.1-1-0.2-1.6-0.4c-4.4-5.6-6.4-1-6.9,0.5
	c-0.1,0.3-0.1,0.5-0.1,0.5s-6-5-7,1.9c-0.3-0.4-0.5-0.7-0.8-1.1l0,0c-2.4-3.3-3.5-3.6-4.1-3.4c-0.3,0.1-0.4,0.4-0.4,0.4l-3.8-5.5
	c0,0,15,2.1,15.7-1.2c0.7-3.3,17.6-30.7,17.6-30.7l9.7-2.8L438.4,580z"/>
<polygon fill="#FFFFFF" stroke="#000000" stroke-miterlimit="10" points="449.8,594.4 442,594.4 431.9,582.9 437.7,580.3 "/>
<polygon fill="#FFFFFF" stroke="#000000" stroke-miterlimit="10" points="449.9,594.5 449.9,620.9 442.3,621.7 442.1,594.5 
	442,594.4 449.8,594.4 "/>
<path fill="#FFFFFF" stroke="#000000" stroke-miterlimit="10" d="M442.3,621.7l-5.4-23l-5.8-3.5c0,0,0,0,0.1,0l0.5-12.1l0.1-0.1
	l10.1,11.5l0.1,0.1L442.3,621.7z"/>
<path fill="#FFFFFF" stroke="#000000" stroke-miterlimit="10" d="M440.4,654.4l-3.4,2.8l-4.3-4l-17.8-16.7l-0.3-1.5
	c1.8,0.5,4.3,0.5,5.9-2.2l13.2,11.8L440.4,654.4z"/>
<path fill="#FFFFFF" stroke="#000000" stroke-miterlimit="10" d="M419.8,648.4l-19.8-12.2l-1-21.8c0.5-0.2,1.7,0.1,4.1,3.4l0,0
	l4,15.9l0.4,1.6L419.8,648.4z"/>
<path fill="#FFFFFF" stroke="#000000" stroke-miterlimit="10" d="M413.6,630.2c-2.5,2.7-5.2,3.3-6.6,3.5l-4-15.9
	c0.2,0.3,0.5,0.7,0.8,1.1c1-6.9,7-1.9,7-1.9s0-0.2,0.1-0.5L413.6,630.2z"/>
<path fill="#FFFFFF" stroke="#000000" stroke-miterlimit="10" d="M432.7,653.2l-6.5,2l-6.4-6.8l0,0l-12.4-13.1l-0.4-1.6
	c1.4-0.1,4.1-0.8,6.6-3.5l1,4.8l0.3,1.5L432.7,653.2z"/>
<path fill="#FFFFFF" stroke="#000000" stroke-miterlimit="10" d="M420.4,632.8c-1.5,2.8-4.1,2.7-5.9,2.2l-1-4.8l-2.8-13.7
	c0.5-1.5,2.5-6.1,6.9-0.5c0.5,0.1,1.1,0.3,1.6,0.4l0.8,16.1L420.4,632.8z"/>
<path fill="#FFFFFF" stroke="#000000" stroke-miterlimit="10" d="M433.7,644.6l-13.2-11.8l-0.3-0.3l-0.8-16.1c5.1,1.2,6.5,1,6.5,1
	s0.1-0.6,0.2-1.6v17.7L433.7,644.6z"/>
<path fill="#FFFFFF" stroke="#000000" stroke-miterlimit="10" d="M628,394.7v10.4c0,3.7-8.8,13.2-8.8,13.2l-11.4-14.8l-0.5-0.7
	c0,0,0-23-1.9-44.3c-1.5-17-8.5-38.3-11.2-46.2c7.6-8,14.9-17.8,20.2-25.6c3.2,3.6,7.9,10.2,10.2,18.9c0.3-0.4,0.6-0.8,0.8-1.2
	C626.6,323,628,394.1,628,394.7z"/>
<path fill="#FFFFFF" stroke="#000000" stroke-miterlimit="10" d="M637.5,412.2l-0.3,0.7l-8.2,22.5l-11.2-6.4l-11.2-16.9c0,0,0,0,0,0
	l-0.8-1.2l1.9-7.4l11.4,14.8c0,0,8.8-9.5,8.8-13.2v-8.2C632.5,402,637.5,412.2,637.5,412.2z"/>
<path fill="#FFFFFF" stroke="#000000" stroke-miterlimit="10" d="M669.3,608.6c0,0-10.9,2.5-17.6-1.1c-6.7-3.6-19-21-19-21
	s0,0,0.1-0.1c1.2-1.3,13-14,14.7-30.4c1.2-11.7-2.9-34.1-5.8-47.5c0,0,3.4,3.1,10.6,5.7c2.5,24.2,7.8,42.7,7.8,47
	c0,4.3-0.4,20.1,0,23.5C660.5,588.2,669.3,608.6,669.3,608.6z"/>
<path fill="#FFFFFF" stroke="#000000" stroke-miterlimit="10" d="M652.4,514.3c-7.2-2.6-10.6-5.7-10.6-5.7s-7.2-15.9-12.2-26.8
	c-5-10.9-10.7-9.7-7.8-2.9c-0.1-0.1-0.2-0.2-0.3-0.3c0,0,0,0,0,0c-9.8-10.1-13.5-23.9-14.8-31.1c3.9,5.3,20.5,17.5,23.6,24
	c3.3,7,8.4,20.7,8.4,20.7l12.9,9.2c0.2,4.5,0.4,8.7,0.8,12.5C652.3,514,652.4,514.1,652.4,514.3z"/>
<path fill="#FFFFFF" stroke="#000000" stroke-miterlimit="10" d="M651.5,501.3l-12.9-9.2c0,0-5.1-13.7-8.4-20.7
	c-3.1-6.5-19.6-18.7-23.6-24c-0.3-0.4-0.5-0.8-0.7-1.1c-0.3-0.6-0.4-1.6-0.5-2.9c-0.6-7.6,0.8-25.7,1.3-31.3l11.2,16.9l11.2,6.4
	l8.2-22.5c4.2,5.2,11.3,15.2,14.5,25.3C652.7,445.8,650.7,477.1,651.5,501.3z"/>
<path fill="#FFFFFF" stroke="#000000" stroke-miterlimit="10" d="M647.5,556.1c-1.7,16.4-13.5,29.1-14.7,30.4l-9.3-1.1
	c0,0,8-21,11.3-35.9c3.2-14.9-4.3-37.1-6.6-50.2c-1.5-8.7-4.8-16.5-6.7-20.7c0.1,0.1,0.2,0.2,0.3,0.3c-2.8-6.9,2.9-8.1,7.8,2.9
	c5,10.9,12.2,26.8,12.2,26.8C644.6,522,648.7,544.4,647.5,556.1z"/>
<path fill="#FFFFFF" stroke="#000000" stroke-miterlimit="10" d="M632,628c-2.7-0.1-6-0.7-6-0.7l-11.3-24.6l9.6-13.8l7,1.8l0.1,0.3
	v0c-2.5,3.8-7.2,11.9-7.2,11.9L632,628z"/>
<path fill="#FFFFFF" stroke="#000000" stroke-miterlimit="10" d="M635.6,627.3c0,0.6-1.7,0.8-3.5,0.7l-7.9-25c0,0,4.8-8.2,7.2-11.9
	l2.2,7.2l-0.8,0.8l-3.8,4.2C629,603.2,635.6,625.8,635.6,627.3z"/>
<path fill="#FFFFFF" stroke="#000000" stroke-miterlimit="10" d="M669.3,608.6l-2.1,4.9c0,0-0.5,0.4-1.3,0.9
	c-1.1,0.7-2.8,1.8-4.8,2.6c-1.4,0.6-2.9,1-4.5,1.2l-0.1-0.1c-1.3-1.3-3.3-2.4-5.5-3.2c-3.4-1.3-6.9-2-7.9-2.2c-0.2,0-0.3,0-0.3,0
	l-10-13.8l0.8-0.8l-2.2-7.2v0l-0.1-0.3l-7-1.8l0.1-0.1l-0.8-3.4l9.3,1.1c-0.1,0.1-0.1,0.1-0.1,0.1s12.3,17.5,19,21
	C658.3,611.1,669.3,608.6,669.3,608.6z"/>
<path fill="#FFFFFF" stroke="#000000" stroke-miterlimit="10" d="M656.5,618.2l-2.2,22.5l-0.3,3.3l-17.1,15.5l-1.8-0.8l-0.1-0.9
	l15.5-15.4L651,615C653.1,615.8,655.2,616.9,656.5,618.2z"/>
<path fill="#FFFFFF" stroke="#000000" stroke-miterlimit="10" d="M661,617c-0.2,3.8-0.6,11-0.8,15.1c-0.1,1.8-0.2,3-0.2,3.1
	c0,0.2-4.2,3.9-5.8,5.4l2.2-22.5l0.1,0.1C658.1,618.1,659.7,617.6,661,617z"/>
<path fill="#FFFFFF" stroke="#000000" stroke-miterlimit="10" d="M665.8,614.5l-0.6,13.4l-5,4.3c0.2-4.1,0.6-11.3,0.8-15.1
	C663,616.2,664.7,615.2,665.8,614.5z"/>
<path fill="#FFFFFF" stroke="#000000" stroke-miterlimit="10" d="M651,615l-0.5,27.4L635,657.8l-0.5-5.9l10.8-12.7l-2.2-26.3
	C644,613,647.6,613.7,651,615z"/>
<path fill="#FFFFFF" stroke="#000000" stroke-miterlimit="10" d="M453,204.4l-5,4.4c-3.1,0.9-7,2.1-11.2,3.4l-23.8-51v-20.6l1.5,0.2
	L453,204.4z"/>
<polygon fill="#FFFFFF" stroke="#000000" stroke-miterlimit="10" points="557.9,204 555.4,230.9 555,231.2 500,204.3 499,203.3 
	499.7,200.8 508,172.8 555.2,202.2 "/>
<polygon fill="#FFFFFF" stroke="#000000" stroke-miterlimit="10" points="584.6,210 555.4,230.9 557.9,204 558.4,204.3 559.6,202.4 
	577.3,172.7 582.3,198.1 584.6,209.9 "/>
<path fill="#FFFFFF" stroke="#000000" stroke-miterlimit="10" d="M615.2,161l-25.7,51.3c-1.7-0.9-3.4-1.7-4.9-2.4l-2.3-11.8
	l24.4-31.2L615.2,161z"/>
<path fill="#FFFFFF" stroke="#000000" stroke-miterlimit="10" d="M621.6,171.6l-10.4,53.7c-0.6-0.4-1.2-0.8-1.8-1.2
	c-6.6-4.2-13.8-8.6-19.9-11.8l25.7-51.3l2.2-1.5L621.6,171.6z"/>
<polygon fill="#FFFFFF" stroke="#000000" stroke-miterlimit="10" points="467.2,191.8 453,204.4 414.5,140.8 427.2,142.7 "/>
<path fill="#FFFFFF" stroke="#000000" stroke-miterlimit="10" d="M595.2,232.6c-8.1-5.1-29.2,6.5-44,11.8
	c-46.1-22.8-95.6-21.4-101.2-21.2l-3.8,15.1l1.6,9.4v0.1l2.2,13c0,0,33,24.7,41.1,37.5c7.8-3.6,27.6-4.8,40.4,1.7
	c11.6-1.4,22.1-11.6,48,5.7c15.2-7.1,30.2-29,30.4-31.4c0.2-1.5,0.7-11.9,1-19.4C607.2,246.7,601,236.2,595.2,232.6z M554.5,291.7
	c-9.1,0-16.5-8.7-16.5-19.4s7.4-19.4,16.5-19.4c9.1,0,16.5,8.7,16.5,19.4C571.1,283,563.7,291.7,554.5,291.7z"/>
<ellipse fill="#FFFFFF" stroke="#000000" stroke-miterlimit="10" cx="554.5" cy="272.3" rx="16.5" ry="19.4"/>
<path fill="#FFFFFF" stroke="#000000" stroke-miterlimit="10" d="M611.1,254C611.1,254.1,611.1,254.1,611.1,254c0,0.3,0,0.6,0,0.8
	c-3.8-8.2-10-18.6-15.8-22.3c-8.1-5.1-29.2,6.5-44,11.8c-46.1-22.8-95.6-21.4-101.2-21.2c-0.3,0-0.5,0-0.5,0l-7.4-9.3l5.8-5.1
	c3.2-0.9,5.6-1.6,6.5-1.9l-1.5-2.6l14.2-12.6l6.8,8.4l22.4,0.6l2.5,2.6l1,1l55,26.9l0.4-0.3l29.2-20.9l0-0.1
	c1.5,0.7,3.2,1.5,4.9,2.4c6.1,3.2,13.3,7.5,19.9,11.8C609.7,230.6,610.5,246.1,611.1,254z"/>
<polygon fill="#FFFFFF" stroke="#000000" stroke-miterlimit="10" points="394.2,436.5 387.4,443.1 363.7,434.4 367.7,430.7 
	394,435.3 "/>
<polygon fill="#FFFFFF" stroke="#000000" stroke-miterlimit="10" points="394,435.3 367.7,430.7 368.2,423.5 392.8,426.4 393,426.4 
	"/>
<polygon fill="#FFFFFF" stroke="#000000" stroke-miterlimit="10" points="368.2,423.5 367.7,430.7 363.7,434.4 363.9,430 364,427.2 
	"/>
<polygon fill="#FFFFFF" stroke="#000000" stroke-miterlimit="10" points="390.3,483.1 386.1,487.2 371.4,481.8 373.9,479.5 
	390.2,482.3 "/>
<polygon fill="#FFFFFF" stroke="#000000" stroke-miterlimit="10" points="390.2,482.3 373.9,479.5 374.2,475 389.5,476.9 
	389.6,476.9 "/>
<polygon fill="#FFFFFF" stroke="#000000" stroke-miterlimit="10" points="374.2,475 373.9,479.5 371.4,481.8 371.5,479.1 
	371.6,477.3 "/>
<polygon fill="#FFFFFF" stroke="#000000" stroke-miterlimit="10" points="414.7,242.4 407.9,249 384.2,240.3 388.2,236.6 
	414.5,241.1 "/>
<polygon fill="#FFFFFF" stroke="#000000" stroke-miterlimit="10" points="414.5,241.1 388.2,236.6 388.7,229.4 413.3,232.3 
	413.5,232.3 "/>
<polygon fill="#FFFFFF" stroke="#000000" stroke-miterlimit="10" points="388.7,229.4 388.2,236.6 384.2,240.3 384.4,235.9 
	384.5,233.1 "/>
<polygon fill="#FFFFFF" stroke="#000000" stroke-miterlimit="10" points="639,441.3 648.3,447.2 671.2,430.7 665.8,427.4 
	638.8,439.8 "/>
<polygon fill="#FFFFFF" stroke="#000000" stroke-miterlimit="10" points="638.8,439.8 665.8,427.4 663.2,419.2 637.6,429.2 
	637.4,429.3 "/>
<polygon fill="#FFFFFF" stroke="#000000" stroke-miterlimit="10" points="663.2,419.2 665.8,427.4 671.2,430.7 669.7,425.6 
	668.7,422.4 "/>
<polygon fill="#FFFFFF" stroke="#000000" stroke-miterlimit="10" points="617.5,244.7 626.7,250.6 649.6,234 644.3,230.8 
	617.3,243.2 "/>
<polygon fill="#FFFFFF" stroke="#000000" stroke-miterlimit="10" points="617.3,243.2 644.3,230.8 641.7,222.6 616,232.6 
	615.8,232.6 "/>
<polygon fill="#FFFFFF" stroke="#000000" stroke-miterlimit="10" points="641.7,222.6 644.3,230.8 649.6,234 648.2,229 647.2,225.8 
	"/>
<polygon fill="#FFFFFF" stroke="#000000" stroke-miterlimit="10" points="642.4,475 648.4,478.8 663.5,468 660,465.8 642.2,474 "/>
<polygon fill="#FFFFFF" stroke="#000000" stroke-miterlimit="10" points="642.2,474 660,465.8 658.3,460.4 641.4,467 641.3,467.1 
	"/>
<polygon fill="#FFFFFF" stroke="#000000" stroke-miterlimit="10" points="658.3,460.4 660,465.8 663.5,468 662.5,464.7 661.9,462.5 
	"/>
</svg>
