<?xml version="1.0" encoding="utf-8"?>
<!-- Generator: Adobe Illustrator 25.2.0, SVG Export Plug-In . SVG Version: 6.00 Build 0)  -->
<svg version="1.1" id="Layer_1" xmlns="http://www.w3.org/2000/svg" xmlns:xlink="http://www.w3.org/1999/xlink" x="0px" y="0px"
	 viewBox="0 0 1000 1000" style="enable-background:new 0 0 1000 1000;" xml:space="preserve">
<style type="text/css">
	.st0{fill:#FFFFFF;stroke:#000000;stroke-miterlimit:10;}
</style>
<path class="st0" d="M403.2,369.7c-8.4,10.6-14.7,21.8-19.3,32.7c-7,16.6-10.3,32.7-11.7,45.2c-21.9,16-37,11.5-37,11.5
	c1.4-8.8,2.9-17.1,4.5-24.9c9.6-45.9,23.1-76.8,31.1-92.4c-2.3-4.5-6-11.7-7.6-15.2c-2.4-5.2,3.3-33.7,7.1-41.8
	c0.4-0.7,0.9-1.5,1.7-2.2c0.9,9.7,3.1,23.9,8.9,28.9c5.6,4.8,9.6,6.1,12.9,8.2C394.4,334.2,396.4,354.4,403.2,369.7z"/>
<path class="st0" d="M440.1,350.2c-0.1,0.5-0.3,1-0.4,1.4c0,0,0,0,0,0c-0.5,1.9-0.8,3.9-1,6.1c-8.7-6.4-20.1-14.3-24.9-15.6
	c-8.2-2.1-9.8-9.1-14.3-16.8c-1.7-3-3.5-4.6-5.6-5.9c-3.3-2.1-7.4-3.4-12.9-8.2c-5.8-5-8-19.2-8.9-28.9c4.3-4.3,14.3-8.7,23-12.7
	c-1.3,7.8-3.8,24.3-1.2,26.6c3.4,3,7,2.3,10,7.5c3,5.2,11.8,24.4,11.8,24.4S430.5,339.3,440.1,350.2z"/>
<path class="st0" d="M631.3,259.2c-3.4,3.1-10.1,9.3-18,16.2c-1.9,1.7-3.9,3.5-5.9,5.2c-2,1.7-4,3.5-6,5.2c-0.8,0.6-1.5,1.3-2.2,1.9
	c-0.6,0.5-1.1,1-1.7,1.4c-3.6,3.1-7.2,6-10.6,8.7c-0.2,0.1-0.4,0.3-0.5,0.4c-0.1,0.1-0.1,0.1-0.2,0.2c-8.2,6.4-15.1,11.3-18.6,12.2
	c-12.3,1.7-17.8,0.2-20.8,4.3c-3,4-19.4,21.4-19.4,21.4l-18.3,4.5l-18.9,18.7c0-3-1-7.2-3-11.5l21.6-25.2c0,0,6.2,2.1,10.9-3.3
	c4.8-5.5,14.7-29.9,19.7-31.4c5-1.4,18.3-3.1,21.6-6.2c2.9-2.7,19.8-24.7,23.5-36.8C609,254.3,624.4,255.5,631.3,259.2z"/>
<path class="st0" d="M648.7,312.1L648.7,312.1c0,4.7-0.3,9.3-1.1,13.9c-24.2-1-40.2-6.3-60.7-26.6c-0.2-0.2-0.5-0.5-0.7-0.7
	c-0.1-0.1-0.2-0.1-0.2-0.2c0.1,0,0.1-0.1,0.2-0.2c0.2-0.1,0.4-0.3,0.5-0.4c3.4-2.7,7-5.6,10.6-8.7c0.5-0.5,1.1-0.9,1.7-1.4
	c0.8-0.6,1.5-1.3,2.2-1.9c2-1.7,4-3.5,6-5.2c2-1.8,4-3.5,5.9-5.2c7.9-6.9,14.5-13.1,18-16.2c0.7,0.4,1.3,0.8,1.8,1.2
	C639.6,265.7,648.6,288.7,648.7,312.1z"/>
<path class="st0" d="M584.6,245c-3.7,12.1-20.6,34.1-23.5,36.8c-3.3,3.1-16.6,4.8-21.6,6.2c-5,1.4-15,25.9-19.7,31.4
	c-4.8,5.5-10.9,3.3-10.9,3.3l-21.6,25.2c-3.7-7.9-10.8-15.9-21.1-16.2c-10.5-0.3-21.9,5.5-25.9,18.4c-9.6-10.9-24.5-21.9-24.5-21.9
	s-8.7-19.2-11.8-24.4s-6.6-4.5-10-7.5c-2.6-2.3-0.1-18.8,1.2-26.6c6.5-3.1,12.2-5.9,13.9-8.3c2.5-3.6,4.5-17.3,6-34.3
	c3.7-1.5,10.1-4.7,18.5-7.4c2.6,5,10.6,18.9,19,19.2c8.3,0.3,13-16.4,14.6-23.1c18.6,1.2,38.3,5.5,38.7,4.6
	c0.5-1.2-8.9-14.3-21.5-24.4c-4.1-3.3-9.4-5.5-14.6-6.9c-0.3-3.9-0.9-9.5-0.9-9.5s4.3,0.2,12.3-6.2c8-6.4,3.9-18.5,4.3-23.9
	c0-0.6,0.2-1.3,0.5-2.1c11.5,13.9,21.1,58,65,81.9C563.5,236.3,574.8,241.3,584.6,245z"/>
<path class="st0" d="M466.8,139.9c-7.1,8.1-14.1,13.1-16.9,15.5c-2.3,13.9-7.7,20-7.7,20c-7.4-0.4-6.6-12.8-11.2-18.2
	c-1.4-1.1-2.8-2.3-4-3.5c5-5.9,12.4-9.2,22.9-11.6C449.9,142.1,457.7,139.5,466.8,139.9z"/>
<path class="st0" d="M425.9,195.4c-1.5,1.3-3.2,2.9-5.1,5.2c-1.7,2-3.1,4.2-4.3,6.3c0.4-6.4,0.8-12.9,1-19.2
	c0.2-3.7,0.4-7.1,0.8-10.2c1.1,1.6,2.6,3.3,4.8,4.9C424.5,187.3,425.5,192.7,425.9,195.4z"/>
<path class="st0" d="M371.4,472.9c0,0-50.9,33.3-96.5,92.7c-22.1,28.8-40.5,59.3-53.5,83.1c-9.4,17.1-16,30.7-19.2,37.7
	c-4.8-6.7-10.5-4.6-14.9-1.1c-1-4.4-2.6-8.5-4.7-11.1c5.8-5.8,8.6-12.5,18.6-27.3c15.7-23.3,82.7-153,102.2-181.1
	c14.6-21,29.7-28.9,36.4-31.6c-1.6,7.9-3.2,16.2-4.5,24.9c0,0,15.1,4.5,37-11.5C370.5,462.8,371.4,472.9,371.4,472.9z"/>
<path class="st0" d="M202.2,686.4c-1.6,3.3-2.4,5.2-2.4,5.2s0,0-5.7,24.2c-1.7,2.2-3,5.5-3.9,9.3c0,0,0,0,0,0
	c-5.8,7.3-13,12.3-14,13c0,0-0.1,0-0.1,0.1c0,0,0,0,0,0c-1.9,1.9-10.5,28.5-11.9,34.2c-1.4,5.7,6.6,38.5,16.6,61.3
	c-25.7-15.2-29.5-66.5-29.5-66.5s13.3-46.1,12.4-48.5c0,0,21.1-5.5,24-15c1.4-4.7,1.1-11.9-0.4-18.3
	C191.7,681.8,197.5,679.6,202.2,686.4z"/>
<path class="st0" d="M208.9,800.8c-9.5,1-34.2-30.4-34.2-30.4s3.2-32.8,1.5-32.4c1-0.7,8.2-5.6,14-13c-3,12-2.6,29.3-2.2,34
	C188.5,765.2,205.1,784.2,208.9,800.8z"/>
<path class="st0" d="M187.8,703.6c-2.9,9.5-24,15-24,15c-0.9-2.4-13.8,17.1-18.5,42.8c-12.4-29.9,8.6-59.4,22.8-77
	c7.1-4,11.3-6.9,14.6-10.2c2.1,2.7,3.7,6.7,4.7,11.1C188.9,691.7,189.2,698.9,187.8,703.6z"/>
<path class="st0" d="M610.6,466.7c6.3,9.1,11.2,20.4,14.8,32.7c-10.4,14.4-34.8,26.1-34.8,26.1c-1.8,0.4-33.4,31.2-37.3,52.6
	c-4.1-0.4-11.4-1.2-21.8-2.3c-3.7-0.4-7.7-0.8-12.2-1.3c-1.6-0.2-3.2-0.4-4.9-0.5c-10.1-4.6-20.8-30.5-31.6-48.4
	c-4.6-7.5-9.6-13.1-13.3-16.6c1.7-2.7,2.7-4.5,2.7-5.3c0-5.7-9.5-15.7-9.5-15.7s3.4-5.7,1.1-15.7c5.5,1.9,12.3,5,18.9,10
	c-14.5-28.5-38.2-29.8-38.2-29.8l1.1-16.9c0,0-12.6-20.9-18.9-27.5c-6.2-6.6-14.6-9.3-14.6-9.3l3.7-12.3
	c26.1,20.2,98.5,21.6,135.8-1.2c0.5-0.3,1-0.6,1.5-1c0.7-0.4,1.4-0.9,2.1-1.3c0.3-0.2,0.6-0.4,0.9-0.6c0.5-0.3,1-0.6,1.4-0.9
	c0.5-0.3,0.9-0.6,1.4-0.9c5.8-4,10.5-7.8,14.2-11.5c0.3-0.3,0.6-0.6,0.8-0.9c1.4-1.5,2.7-3,3.8-4.4c0.4-0.5,0.7-1,1.1-1.5
	c0.1-0.1,0.2-0.3,0.3-0.4c0.4-0.5,0.7-1,1-1.5c0.6-0.9,1.1-1.8,1.6-2.7c0.2-0.3,0.3-0.6,0.5-0.9c0.2-0.3,0.3-0.6,0.5-1
	c0.1-0.3,0.3-0.6,0.4-0.9c0.3-0.6,0.6-1.3,0.9-2c0.2-0.6,0.4-1.1,0.7-1.7c0.6-1.6,1-3.1,1.5-4.8c0.1-0.3,0.2-0.7,0.2-1
	c0.3-1.1,0.5-2.2,0.7-3.3c0.1-0.6,0.2-1.2,0.3-1.8c0-0.1,0-0.2,0-0.3c0-0.2,0.1-0.5,0.1-0.8c0.3-2,0.5-4,0.7-6.2v0
	c0.1-1.4,0.2-2.8,0.3-4.2c0-0.6,0.1-1.2,0.1-1.8v-0.1c0.1-1.3,0.1-2.6,0.2-3.9c8.9,4.9,18.7,11.8,28.7,19.9
	c-0.4,13.3,8.2,22.8,8.2,22.8s-7.5,8.4-17.5,17c-0.3,2-0.3,3.9-0.3,5.8c0.3,16.3,10.6,29.5,10.6,29.5l-13.5,11.4
	c0,0-48.4,25.2-57.7,48.7c11.1-11.4,50.9-27.6,60.7-40.2c5,10,13.4,14.3,13.4,14.3S617,457.8,610.6,466.7z"/>
<path class="st0" d="M744.3,472l-26.6-24.3v0l-2.2-6.1c0,0-52.2-61.4-98.1-98.3c-10.1-8.1-19.9-15-28.7-19.9c-0.1,0-0.1-0.1-0.2-0.1
	c-0.1-7.6-0.6-17.6-1.5-23.8c20.5,20.2,36.5,25.6,60.7,26.6c0.8-4.5,1.1-9.2,1.1-13.9c13.6,19.9,53.2,76.9,66.7,85.1
	c4.3,2.6,9.6,6,15,9.5C749.2,487.6,744.3,472,744.3,472z"/>
<path class="st0" d="M588.5,327.2L588.5,327.2c0,0.7-0.1,1.3-0.1,1.9c-0.1,1.4-0.2,2.8-0.3,4.2v0c-0.2,2.1-0.4,4.2-0.7,6.2
	c0,0.3-0.1,0.5-0.1,0.8c0,0.1,0,0.2,0,0.3c-0.1,0.6-0.2,1.2-0.3,1.8c-0.2,1.1-0.4,2.2-0.7,3.3c-0.1,0.3-0.2,0.7-0.2,1
	c-0.4,1.6-0.9,3.2-1.5,4.8c-0.2,0.6-0.4,1.1-0.7,1.7c-0.3,0.7-0.6,1.3-0.9,2c-0.1,0.3-0.3,0.6-0.4,0.9c-0.2,0.3-0.3,0.6-0.5,1
	c-0.2,0.3-0.3,0.6-0.5,0.9c-0.5,0.9-1,1.8-1.6,2.7c-0.3,0.5-0.7,1-1,1.5c-0.1,0.1-0.2,0.3-0.3,0.4c-0.3,0.5-0.7,1-1.1,1.5
	c-1.1,1.5-2.4,3-3.8,4.4c-0.3,0.3-0.5,0.6-0.8,0.9c-3.7,3.8-8.4,7.6-14.2,11.5c-0.4,0.3-0.9,0.6-1.4,0.9c-0.5,0.3-0.9,0.6-1.4,0.9
	c-0.3,0.2-0.6,0.4-0.9,0.6c-0.7,0.4-1.4,0.9-2.1,1.3c-0.5,0.3-1,0.6-1.5,1c-37.3,22.8-109.7,21.5-135.8,1.2c-0.5-0.4-1-0.8-1.5-1.2
	c-4.6-4-8.2-9.5-11-15.7c-6.8-15.4-8.8-35.5-9.2-50.2c2.1,1.3,3.9,2.9,5.6,5.9c4.5,7.7,6.1,14.6,14.3,16.8
	c4.8,1.2,16.2,9.2,24.9,15.6v0c-1.2,18.2,13.2,30.9,29.4,27.6c16.1-3.3,21.9-17.4,22-25.8l18.9-18.7l18.3-4.5
	c0,0,16.4-17.3,19.4-21.4c3-4,8.5-2.6,20.8-4.3c3.4-0.9,10.4-5.7,18.6-12.2c0.1,0.1,0.2,0.1,0.2,0.2c0.2,0.2,0.5,0.5,0.7,0.7
	c0.8,6.3,1.3,16.3,1.5,23.8C588.5,324.7,588.5,326,588.5,327.2z"/>
<path class="st0" d="M834.1,721.4c-3.6-2.5-7.6-4.6-11.5-6.4c-4.2-1.9-8.4-3.4-11.8-4.5c0.8-2.8,1.4-6.4,1.9-11
	c0.6-4.8,0-11.6-1.5-19.7c-5.8-32.1-25.3-84.3-37.7-113.7c-15.4-36.8-38-68.4-38-68.4l-17.8-50l26.6,24.3c0,0,4.9,15.6-13.9-65.2
	c15,9.8,31.2,21.1,32.8,24c2.1,3.9,23.5,42.4,38.8,111.6c15.3,69.2,27.3,151.5,27.3,151.5S831.6,705.8,834.1,721.4z"/>
<path class="st0" d="M808.4,831.7c-15,13.2-37.8,26.4-32.4,17.1c5.3-9.3,36.3-33.2,37.4-52.4c8.3-19,6-52.2,0.5-57
	c1-10.6,6.2-20.4,8.7-24.5c3.9,1.8,7.9,3.9,11.5,6.4c2.7,16.6,5.8,37.4,7.1,52.2C843.7,802.5,823.4,818.5,808.4,831.7z"/>
<path class="st0" d="M822.6,715c-2.4,4.1-7.7,13.9-8.7,24.5c-0.1-0.1-0.2-0.2-0.3-0.2c-5.7-3.7-9.1,15.5-9.1,15.5
	s-7.8,14.9-6.1,27.1c1.7,12.2-1.1,14.6-3.9,6.8c-2.8-7.8-8.2-36-2.5-55.6c10.4-11.5,15.6-10.5,18.8-22.5
	C814.2,711.6,818.4,713.1,822.6,715z"/>
<path class="st0" d="M813.4,796.4c-5.7,0-13.2,16-13.2,16s-34.6,3.6-38.9-28.5c11,11,29.6,18.2,34.9,14.2
	c5.3-3.9,17.1-24.6,14.6-33.2c-2.5-8.5-6.4-10.3-6.4-10.3s3.4-19.2,9.1-15.5c0.1,0.1,0.2,0.2,0.3,0.2
	C819.4,744.2,821.7,777.5,813.4,796.4z"/>
<path class="st0" d="M519.3,574.6c-5.6,3.7-11.7,7.7-18,12c-13.3,9-27.8,19.2-40.7,29.9c-18.5,15.3-34.4,37.5-45.7,55.1
	c-10.3,16-16.7,28.2-17.7,28c-0.8-0.1-3.9-1.3-7.7-2.7c-6.5-2.5-14.9-5.9-15.9-6.6c-1.4-1.1,8.2-14.2,12.5-23.2
	c4.3-8.9,17.2-58.2,22.9-73c2.6-6.7,15.7-24.5,29.4-42.7c12.6-16.8,25.6-33.8,31.1-42.3c3.6,3.5,8.7,9,13.3,16.6
	c10.8,17.8,21.5,43.7,31.6,48.4C516,574.2,517.7,574.4,519.3,574.6z"/>
<path class="st0" d="M629.5,597.9c-0.4,1.4-0.8,2.9-1.3,4.3c0,0,0,0,0,0c-4.8,15.1-13.3,32.1-21.1,46v0
	c-7.7,13.8-14.6,24.7-16.5,27.7c-0.4,0.6-0.8,1.4-1.1,2.2c-3.5,7.9-6.6,24.9-5.6,45.2c-2,2.2-14.2-8.3-24-17.8
	c-6.3-6.1-11.7-11.9-12.7-13.5c-2.2-3.8,3.9-22.1,7.2-40.3v0c0.4-2,0.7-4.1,1-6.1c2.9-20-5.7-45.6-2.1-67.1c0-0.1,0-0.3,0.1-0.4
	c3.9-21.4,35.6-52.3,37.3-52.6c0,0,24.4-11.8,34.8-26.1C635.5,533.6,635.8,575.4,629.5,597.9z"/>
<path class="st0" d="M530.8,787.5c-25.3-16-53.5-6.1-76.3,0s-73.1,44.9-87,81.3c-2.5-13.5,4.3-45.3,18.2-59.2
	c12.1-5.3,26.7-11,26.7-11s-50.2-1.1-70.2,33.5c-3.6-8.9,13.5-39.2,26.7-43.1c16,3.9,37.4,1.8,55.6-4.6c17.6-6.2,28.2-15,28.8-15.6
	c6-0.2,12.9-1.6,16.8-5.8c1.1-1.2,2-2.2,2.7-3.3c16.3,10,28.5,2.2,28.5,2.2S525.1,769,530.8,787.5z"/>
<path class="st0" d="M472.9,759.7c-0.8,1-1.7,2.1-2.7,3.3c-3.9,4.2-10.8,5.6-16.8,5.8c0,0,0,0,0,0s-15.3-24-33.5-37.9
	c-16.6-12.7-27.9-20.3-30.5-34.1c3.8,1.4,6.9,2.6,7.7,2.7c1,0.2,7.4-12,17.7-28c6.9,3.9,18.6,10.7,21.3,14.3
	c3.9,5.2,15.9,58.8,33.7,71.8C470.9,758.4,471.9,759,472.9,759.7z"/>
<path class="st0" d="M706.5,750.8c-32.5,14.1-70.8-4.5-87.1-17.5c-1.5-13.6-2.8-25.3-4.3-30.2c-3.2-10.2-17.7-20.3-25.5-25
	c0.4-0.9,0.8-1.6,1.1-2.2c1.9-3,8.8-13.9,16.5-27.7c7.9,24.2,28.2,78,54.8,87.6c34.6,12.5,88-17.5,90.5-72
	C766,683.8,745,734.1,706.5,750.8z"/>
<path class="st0" d="M666.3,846.7c0,0-2.6,43.2-22.8,60.8c4.8-24.5,7.4-79.6-18.1-84.8c-25.4-5.2-18.1,60.1-2.1,84.8
	c-14-16.9-34.5-63.7-33.7-64.2c0.7-0.5,25.2-25,24.5-46.9c3.5,1.5,8.6,2.1,14.7-1.6c0.6,1.7,1.2,3.1,1.9,4.1
	C639,812.2,666.3,846.7,666.3,846.7z"/>
<path class="st0" d="M628.8,794.8c-6.1,3.7-11.2,3.1-14.7,1.6c0-0.2,0-0.4,0-0.6c-1.2-22.1-49.7-62.9-51.8-72.2
	c-1.1-4.8-1.9-12.1-2.4-18.1c9.8,9.5,22.1,20,24,17.8c-1-20.2,2.1-37.3,5.6-45.2c7.8,4.6,22.3,14.8,25.5,25
	c1.5,4.9,2.9,16.5,4.3,30.2C621.8,755.4,624.5,782.7,628.8,794.8z"/>
<path class="st0" d="M542,617l-40.8-30.5c6.3-4.3,12.4-8.3,18-12c4.5,0.5,8.5,0.9,12.2,1.3C533,582.7,537,599.8,542,617z"/>
<path class="st0" d="M555.4,645.7c-0.3,2-0.6,4-1,6.1c-4.3-8.9-8.6-21.9-12.3-34.7c-5-17.2-9-34.3-10.6-41.1
	c10.5,1.1,17.7,1.9,21.8,2.3c0,0.1-0.1,0.3-0.1,0.4C549.7,600,558.2,625.7,555.4,645.7z"/>
<path class="st0" d="M811.2,679.8c-24.3-38.8-91-110.2-122.3-119.8c-9.8-39.2-38.1-129-81.1-171.2c0-1.9,0-3.8,0.3-5.8
	c10-8.6,17.5-17,17.5-17s-8.6-9.5-8.2-22.8c45.9,37,98.1,98.3,98.1,98.3l2.2,6.1v0l17.8,50c0,0,22.6,31.6,38,68.4
	C785.9,595.5,805.3,647.7,811.2,679.8z"/>
<path class="st0" d="M607.9,438.2c-9.8,12.6-49.6,28.8-60.7,40.2c9.4-23.5,57.7-48.7,57.7-48.7C605.5,432.9,606.6,435.7,607.9,438.2
	z"/>
<path class="st0" d="M688.9,560c-2.4-0.8-4.7-1.1-6.6-1.1c-18,0.4-39.2,23.5-54.1,43.3c0.5-1.5,0.9-2.9,1.3-4.3
	c6.3-22.5,6-64.3-4-98.5c-3.6-12.3-8.5-23.6-14.8-32.7c6.4-8.9,10.7-14.3,10.7-14.3s-8.4-4.3-13.4-14.3c-1.3-2.5-2.3-5.3-3-8.5
	l13.5-11.4c0,0-10.3-13.2-10.6-29.5C650.8,431,679.1,520.8,688.9,560z"/>
<path class="st0" d="M388.7,542.3c-3.8,0.8-7.7,2-11.9,3.6c-37.3,14.1-130.9,82.8-155.3,102.8c13-23.8,31.3-54.3,53.5-83.1
	c45.6-59.4,96.5-92.7,96.5-92.7s-0.9-10.1,0.8-25.3c1.4-12.6,4.7-28.6,11.7-45.2c8.2,16.3,21.5,44.8,22.4,60.2
	C407.3,479.4,394.9,521.8,388.7,542.3z"/>
<path class="st0" d="M463.8,472.4L463.8,472.4c-0.3-1.2-0.6-2.5-1.1-3.8c-4.3-12.4-18.2-16-18.2-16s23.7,1.2,38.2,29.8
	C476.1,477.5,469.3,474.4,463.8,472.4z"/>
<path class="st0" d="M472.2,503.8c0,0.8-1,2.6-2.7,5.3c-5.5,8.5-18.5,25.5-31.1,42.3c-7.2-5.4-24.1-14.8-49.7-9.1
	c6.2-20.5,18.6-62.9,17.6-79.7c-0.9-15.3-14.2-43.9-22.4-60.2c4.6-10.9,10.8-22,19.3-32.7c2.8,6.3,6.4,11.7,11,15.7
	c0.5,0.4,1,0.8,1.5,1.2l-3.7,12.3c0,0,8.4,2.7,14.6,9.3c6.2,6.6,18.9,27.5,18.9,27.5l-1.1,16.9c0,0,13.9,3.6,18.2,16
	c0.5,1.3,0.8,2.6,1.1,3.8v0c2.3,10-1.1,15.7-1.1,15.7S472.2,498.1,472.2,503.8z"/>
<path class="st0" d="M490.2,359.5c-0.1,8.5-5.9,22.5-22,25.8c11.4-7.1,14.7-16.5,14.5-26.5s-10-21.6-22.4-21.3
	c-11.1,0.2-17.3,8.2-20,13c-0.1-0.1-0.1-0.2-0.2-0.3c4-12.9,15.4-18.7,25.9-18.4c10.3,0.3,17.4,8.3,21.1,16.2
	C489.2,352.2,490.2,356.5,490.2,359.5z"/>
<path class="st0" d="M482.7,358.8c0.2,10-3.1,19.5-14.5,26.5c-16.2,3.3-30.6-9.3-29.4-27.6v0c0.1-2.2,0.5-4.2,1-6.1c0,0,0,0,0,0
	c0.2-0.4,0.4-0.8,0.6-1.2c2.7-4.8,8.8-12.7,20-13C472.7,337.2,482.4,348.8,482.7,358.8z"/>
<path class="st0" d="M484.2,196c-4.1-3.3-9.4-5.5-14.6-6.9c-10.7-3-21.3-2.7-21.3-2.7s-0.3-13.2,6.8-26c3.3-6,12.8-12.9,22-18.6
	c-3.4-1.2-7-1.8-10.4-1.9c-7.1,8.1-14.1,13.1-16.9,15.5c-2.3,13.9-7.7,20-7.7,20c-7.4-0.4-6.6-12.8-11.2-18.2
	c-1.4-1.1-2.8-2.3-4-3.5c-1.5,1.7-2.7,3.6-3.8,5.8c6.1,5.3,10.9,12.5,11.2,20c0.4,11.2-2.5,10.9-8.5,16c-1.5,1.3-3.2,2.9-5.1,5.2
	c-1.7,2-3.1,4.2-4.3,6.3c-2.9,5.2-4.5,10.4-5.1,14.3c-0.5,3.4-0.4,5.8,0.1,6.5c0.4,0.5,1.5,0.2,3.4-0.6c3.7-1.5,10.1-4.7,18.5-7.4
	c4.1-1.3,8.7-2.6,13.7-3.4c5.7-0.9,12.7-0.9,19.9-0.5c18.6,1.2,38.3,5.5,38.7,4.6C506.3,219.2,496.9,206.2,484.2,196z M475.2,210.6
	c-10.3-1.4-22.1-2.2-30.7,0c-0.1,0-0.1,0-0.2,0c-14.3,3.7-24.7,11.8-29,12.8c-1.3,0.3-2-0.1-2.2-1.4c0,0,0.3-1.2,1-3.1v0
	c0.4-1.2,1-2.6,1.8-4.2c0,0,0,0,0,0c2.2-4.2,5.8-9.6,11.6-13.8c4.8-3.5,11-6.3,19.1-7.1c5.8-0.6,11.4-0.1,16.6,1.2
	c19.4,4.7,33.4,19.4,34,20C496.8,214.8,487,212.2,475.2,210.6z"/>
<path class="st0" d="M497.2,214.9c-0.4-0.1-10.2-2.7-22.1-4.3c-10.3-1.4-22.1-2.2-30.7,0v-5.2c0.3,0,0.6-0.1,0.9-0.1
	c5.5-0.6,11.7-0.4,17.8,0.3c4,0.5,8.1,1.2,11.9,2C484,209.5,492.1,212.3,497.2,214.9z"/>
<path class="st0" d="M467.1,215.9c-1.6,6.7-6.3,23.4-14.6,23.1c-8.5-0.3-16.5-14.2-19-19.2c4.1-1.4,8.7-2.6,13.7-3.4
	C452.9,215.4,459.9,215.4,467.1,215.9z"/>
<path class="st0" d="M427,153.7c-1.5,1.7-2.7,3.6-3.8,5.8c-5.4-4.7-11.8-7.9-17.1-8.5c-7.1-11.9-12.8-45.8,5.5-70.6
	C411,100.1,404.6,132.3,427,153.7z"/>
<path class="st0" d="M434.3,179.4c-0.3-7.5-5.1-14.7-11.2-20c-5.4-4.7-11.8-7.9-17.1-8.5l12.5,11.8c0,0-5,7.3-0.1,14.9
	c1.1,1.6,2.6,3.3,4.8,4.9c1.4,4.8,2.3,10.2,2.8,13C431.8,190.3,434.8,190.7,434.3,179.4z M429.7,182.1c-5.2-2.1-8.6-3.3-8.8-6.9
	c-0.2-3.4-0.7-7.2-0.7-7.4c0,0,0,0,0,0C420.2,167.6,430,174.1,429.7,182.1z"/>
<path class="st0" d="M498,130.3c0,0-1.7,0.8-4.5,2.3c-4,2.1-10,5.4-16.2,9.2c0,0,0,0,0,0c-3.4-1.2-7-1.8-10.4-1.9
	c7.6-8.7,15.3-20.9,18-37c5.1-30.5-1.7-40.2-2-40.6c0.4,0.2,14,7.7,17,30.8C502.8,116.5,498,130.3,498,130.3z"/>
<path class="st0" d="M485.3,149.5c0-0.6,0.2-1.3,0.5-2.1c1.3-3.9,4.9-10.2,7.7-14.9c-4,2.1-10,5.4-16.2,9.2c0,0,0,0,0,0
	c-9.2,5.7-18.7,12.6-22,18.6c-7.1,12.8-6.8,26-6.8,26s10.5-0.2,21.3,2.7c-0.3-3.9-0.9-9.5-0.9-9.5s4.3,0.2,12.3-6.2
	C489.1,167,485,154.9,485.3,149.5z M482.7,162.9c-0.8,3.3-20.1,19-25,14.5c3-10.9,15.9-19.1,19.8-19.6S483.4,159.5,482.7,162.9z"/>
<path class="st0" d="M428.6,210.3c-5.3,2.4-9.8,5.2-12.8,7.4c-0.6,0.4-1.1,0.8-1.6,1.2c0.4-1.2,1-2.6,1.9-4.2c0,0,0,0,0,0
	c2.1-4.2,5.8-9.6,11.6-13.8L428.6,210.3z"/>
<path class="st0" d="M444.5,205.4v5.2c-0.1,0-0.1,0-0.2,0c-14.3,3.7-24.7,11.8-29,12.8c-1.3,0.3-2-0.1-2.2-1.4c0,0,0.3-1.2,1-3.1v0
	c0.5-0.4,1-0.8,1.6-1.2c3.1-2.2,7.6-5,12.8-7.4C433.4,208,438.9,206.1,444.5,205.4z"/>
<path class="st0" d="M463.2,194.9v10.7c-6.2-0.7-12.3-0.9-17.8-0.3c-0.3,0-0.6,0.1-0.9,0.1c-5.6,0.7-11.1,2.6-15.9,4.9l-1-9.4
	c4.8-3.5,11-6.3,19.1-7.1C452.4,193.1,458,193.6,463.2,194.9z"/>
<path class="st0" d="M497.2,214.9c-5.2-2.6-13.2-5.4-22.1-7.3c-3.9-0.8-7.9-1.5-11.9-2v-10.7C482.6,199.6,496.6,214.3,497.2,214.9z"
	/>
<path class="st0" d="M482.7,162.9c-0.8,3.3-20.1,19-25,14.5c3-10.9,15.9-19.1,19.8-19.6S483.4,159.5,482.7,162.9z"/>
<path class="st0" d="M429.7,182.1c-5.2-2.1-8.6-3.3-8.8-6.9c-0.2-3.4-0.7-7.2-0.7-7.4c0,0,0,0,0,0
	C420.2,167.6,430,174.1,429.7,182.1z"/>
</svg>
