<?xml version="1.0" encoding="utf-8"?>
<!-- Generator: Adobe Illustrator 25.2.0, SVG Export Plug-In . SVG Version: 6.00 Build 0)  -->
<svg version="1.1" baseProfile="tiny" id="Layer_1" xmlns="http://www.w3.org/2000/svg" xmlns:xlink="http://www.w3.org/1999/xlink"
	 x="0px" y="0px" viewBox="0 0 1000 1000" overflow="visible" xml:space="preserve">
<path fill="#FFFFFF" stroke="#000000" stroke-miterlimit="10" d="M394.41,501.17c-1.62,9.02-5.77,4.58-5.77,4.58l-3.62-15.91
	c0.09-7.61,2.15-10.26,3.59-11.19c0.03,0.08,0.04,0.11,0.04,0.11s6.5,7.95,7.34,10C396.83,490.81,394.41,501.17,394.41,501.17z"/>
<path fill="#FFFFFF" stroke="#000000" stroke-miterlimit="10" d="M346.28,464.74c-6.1,0.71-10.86,2.6-14.48,4.79
	c-0.88,0.53-1.69,1.09-2.44,1.65c-5.1,3.77-7.25,7.8-7.43,8.13c0.29-4.06,1.53-7.32,3.22-9.9c0.95-1.47,2.02-2.71,3.14-3.79
	c4.37-4.14,9.36-5.47,9.36-5.47S340.9,461.72,346.28,464.74z"/>
<path fill="#FFFFFF" stroke="#000000" stroke-miterlimit="10" d="M355.33,470.05c-14.41,1.96-23.85,10.92-27.68,15.29
	c-1.95-1.97-3.87-3.98-5.72-6.02c0,0,0,0,0.01-0.02c0.17-0.33,2.33-4.36,7.43-8.13c0.75-0.56,1.56-1.12,2.44-1.65
	c3.62-2.19,8.37-4.08,14.48-4.79C348.85,466.18,351.91,467.96,355.33,470.05z"/>
<path fill="#FFFFFF" stroke="#000000" stroke-miterlimit="10" d="M363.2,475.04c-13.65,2.22-24.81,11.4-29.67,16
	c-2-1.85-3.96-3.75-5.89-5.7c3.84-4.38,13.28-13.34,27.68-15.29C357.79,471.56,360.42,473.22,363.2,475.04z"/>
<path fill="#FFFFFF" stroke="#000000" stroke-miterlimit="10" d="M374.25,482.65c-16.78,2.39-26.92,11.57-31.37,16.65
	c-3.12-2.6-6.26-5.38-9.35-8.26c4.85-4.6,16.02-13.78,29.67-16C366.69,477.33,370.41,479.87,374.25,482.65z"/>
<path fill="#FFFFFF" stroke="#000000" stroke-miterlimit="10" d="M384.25,490.2c-12.24,2.44-24.68,11.04-31.86,16.73
	c-3.08-2.37-6.27-4.93-9.5-7.63c4.44-5.08,14.59-14.26,31.37-16.65C377.51,485,380.86,487.51,384.25,490.2z"/>
<path fill="#FFFFFF" stroke="#000000" stroke-miterlimit="10" d="M394,498.33c-12.08,2.99-25.52,11.65-31.7,15.95
	c-3.07-2.19-6.41-4.65-9.91-7.34c7.18-5.69,19.62-14.29,31.86-16.73C387.47,492.76,390.74,495.46,394,498.33z"/>
<path fill="#FFFFFF" stroke="#000000" stroke-miterlimit="10" d="M397.14,501.11c0.34,3.37,0.52,5.98,0.52,8.06
	c-10.15,2.3-21.08,7.51-27.2,10.7c-2.36-1.58-5.13-3.46-8.16-5.6c6.17-4.29,19.62-12.95,31.7-15.95c0.93,0.81,1.86,1.63,2.79,2.46
	C396.91,500.9,397.02,501,397.14,501.11z"/>
<path fill="#FFFFFF" stroke="#000000" stroke-miterlimit="10" d="M397.67,509.17c0.03,4.96-0.86,6.98-2.78,9.32
	c-2.73,3.34-15.61,6.98-15.61,6.98s-3.4-2.02-8.8-5.61C376.59,516.68,387.52,511.47,397.67,509.17z"/>
<path fill="#FFFFFF" stroke="#000000" stroke-miterlimit="10" d="M467.94,215.21c-1.07,14.28-12.32,49.67-21.85,57.21
	c-0.78,0.62-1.54,1.05-2.28,1.27c-1.62,0.48-3.88,0.88-6.55,1.19c-14.37,1.75-40.87,1.37-46.58,1.43c-0.65,0-1.03,0.01-1.09,0.04
	c-0.7,0.24-18.34-21.09-21.74-30.09c-0.08-0.18-0.14-0.35-0.19-0.51c2.9-21.21,17.35-36.87,38.8-41.69
	c6.88-1.54,12.85-2.29,17.77-2.61c10.43-0.66,16.2,0.68,16.2,0.68s24.34,0,27.23,8.19C468.02,211.33,468.09,213.03,467.94,215.21z"
	/>
<path fill="#FFFFFF" stroke="#000000" stroke-miterlimit="10" d="M377.22,351.27c4.83,18.8,8.29,43.19-1.56,55.37
	c-23.5-12.58-54.52-65.79-51.52-75.43c0.04-0.15,0.09-0.28,0.15-0.41c2.4-12.53,14.69-55.11,20.32-64.26
	c4.62-7.53,18.45-17.11,23.24-20.28c3.4,9,21.04,30.33,21.73,30.09c0.06-0.03,0.45-0.04,1.09-0.04c-3.05,4.69-9.08,15.24-11.2,27.99
	c-2.9,17.35-10.36,21.61-10.36,21.61S373.56,336.98,377.22,351.27z"/>
<path fill="#FFFFFF" stroke="#000000" stroke-miterlimit="10" d="M442.48,280.53c-3.38,7.29-8.11,16.74-13.76,25.96
	c-4.24,6.94-8.99,13.75-14.07,19.42c-1.26,1.4-2.51,2.75-3.78,4.03c-12.26,12.58-24.28,19.56-33.65,21.33
	c-3.66-14.29-8.11-25.36-8.11-25.36s7.47-4.26,10.36-21.61c2.12-12.76,8.15-23.3,11.2-27.99c5.71-0.06,32.21,0.32,46.58-1.42
	C438.59,276.55,440.35,278.47,442.48,280.53z"/>
<path fill="#FFFFFF" stroke="#000000" stroke-miterlimit="10" d="M375.66,406.64c-0.67,2.01-1.34,6.22-1.83,11.43
	c-2.67-2.45-8.61-5.75-21.23-5.82c-14.38-0.08-24.15,9.56-28.46,15.81c-5.24-12.76-10.96-27.53-12.87-38.94
	c-3.37-20.23,6.99-38.79,6.99-40v-11.57c0-1.98,3.4-4.65,5.88-6.33C321.14,340.85,352.16,394.06,375.66,406.64z"/>
<path fill="#FFFFFF" stroke="#000000" stroke-miterlimit="10" d="M388.6,478.65c-1.44,0.93-3.5,3.59-3.59,11.19l-10.84,15.91
	c0,0-6.94-4.82-12.49-2.56c-1.84,0.75-3.01,2.54-3.04,4.49c-2.53-2.21-6.69-5.27-9.03-3.74c-1.08,0.7-1.96,1.58-2.58,2.54
	c-1.11-1.56-3.42-4.1-6.6-3.9c-1.67,0.1-3.03,0.23-4.06,0.51c-1.83-4.26-6.35-4.95-8.2-5.05c-0.2-7.1,3.71-21.58,5.28-33.21
	c3.13,0.31,23.01-12.22,30.84-12.22c4.86,0,7.78,0.5,10.44,0.59c0.58,2.23,1.36,3.96,2.33,4.96
	C383.12,464.44,388.09,477.32,388.6,478.65z"/>
<path fill="#FFFFFF" stroke="#000000" stroke-miterlimit="10" d="M372.24,529.37c-5.06,1.2-8.67-5.06-10.61-7.48
	c0,0-2.11-7.96-2.94-13.38c-0.04-0.28-0.06-0.55-0.05-0.83c0.03-1.95,1.2-3.74,3.04-4.49c5.54-2.26,12.49,2.56,12.49,2.56
	S377.3,528.16,372.24,529.37z"/>
<path fill="#FFFFFF" stroke="#000000" stroke-miterlimit="10" d="M361.63,521.89c-4.34-0.48-7.47-0.97-14.45-8.19
	c-1.68-2.34-1.55-5.02-0.15-7.21c0.62-0.97,1.5-1.84,2.58-2.54c2.34-1.53,6.5,1.53,9.03,3.74c-0.01,0.28,0.01,0.55,0.05,0.83
	C359.52,513.93,361.63,521.89,361.63,521.89z"/>
<path fill="#FFFFFF" stroke="#000000" stroke-miterlimit="10" d="M347.18,513.7c-11.33-1.45-13.11-6.98-13.11-6.98
	c-0.29-2.15,0.51-3.13,2.3-3.62c1.03-0.28,2.39-0.41,4.06-0.51c3.18-0.19,5.49,2.34,6.6,3.9
	C345.63,508.68,345.51,511.36,347.18,513.7z"/>
<path fill="#FFFFFF" stroke="#000000" stroke-miterlimit="10" d="M334.07,506.72c0,0-1.59,0.71-5.2-5.3
	c-0.45-0.74-0.66-1.89-0.7-3.37c1.86,0.1,6.37,0.79,8.2,5.05C334.58,503.59,333.78,504.57,334.07,506.72z"/>
<path fill="#FFFFFF" stroke="#000000" stroke-miterlimit="10" d="M373.23,426.57c-0.01,0-0.01,0-0.01,0s-4.48-4.79-16.88-6.37
	c-12.41-1.56-21.57,6.87-26.52,11.09c-1.25,1.07-2.38,1.84-3.37,2.37c-0.56,0.31-1.07,0.52-1.54,0.67c-1.98,0.62-3.14,0-3.28-1.23
	c-0.06-0.58,0.79-2.54,2.51-5.04c4.31-6.24,14.08-15.88,28.46-15.81c12.62,0.08,18.56,3.37,21.23,5.82
	c1.59,1.45,2.02,2.61,2.02,2.61C379.96,427.36,373.59,426.62,373.23,426.57z"/>
<path fill="#FFFFFF" stroke="#000000" stroke-miterlimit="10" d="M379.72,452.73c-1.82,0.45-3.34,0.55-4.99,0.47
	c-2.66-0.09-5.58-0.58-10.44-0.58c-7.83,0-27.71,12.53-30.84,12.22c-2.75-0.25-3.45-5.62-0.33-8.66c0.04,0.04,0.06,0.05,0.09,0.05
	c0.11,0,0.39-0.18,0.84-0.48c2.99-1.98,13.19-9.74,26.5-11.32c5.15-0.61,9.55,0,12.93,1.13c0.78,0.25,1.5,0.53,2.16,0.84
	C380.71,448.69,382.51,452.05,379.72,452.73z"/>
<path fill="#FFFFFF" stroke="#000000" stroke-miterlimit="10" d="M375.65,446.4c-0.66-0.31-1.39-0.59-2.16-0.84
	c-3.38-1.13-7.78-1.74-12.93-1.13c-13.32,1.58-23.52,9.33-26.5,11.32c0-0.1,0-0.2-0.01-0.31c-0.34,0.23-0.65,0.47-0.92,0.74
	c-1.03-1.03-6.69-17.41-8.2-21.85c0.47-0.15,0.98-0.37,1.54-0.67c0.99-0.52,2.12-1.3,3.37-2.37c4.95-4.22,14.1-12.65,26.52-11.09
	c12.4,1.58,16.88,6.37,16.88,6.37s0,0.01,0,0.04c0,0.01,0,0.01,0,0.03C373.32,427.69,374.79,442.15,375.65,446.4z"/>
<path fill="#FFFFFF" stroke="#000000" stroke-miterlimit="10" d="M489.25,410.09c-14.52-1.72-23.73-3.45-28.03-4.36
	c-8.98-13.26-17.65-41.66-17.65-41.66c-15.58-7.1-26.17-21.79-32.7-34.12c1.27-1.28,2.52-2.63,3.78-4.03
	c5.07-5.67,9.83-12.48,14.07-19.42c1.72,2.93,5.25,7.36,12.3,11.74c-0.22,5.58,1.53,17.18,18.71,21.43c0.01,0,0.01,0.01,0.01,0.01
	c6.44,5.74,14.57,15.06,17.08,27.04C479.73,380.6,484.73,398.49,489.25,410.09z"/>
<path fill="#FFFFFF" stroke="#000000" stroke-miterlimit="10" d="M598.55,206.89c-4.9,1.28-8.55,3.38-10.96,5.15h-0.01
	c-11.18-2.8-21.29-2.16-30.12,0.24c0.25-1.28,0.48-2.7,0.67-4.21c1.02-7.85,1.3-18.4,1.28-27.69
	C568.36,180.79,585.27,184.77,598.55,206.89z"/>
<path fill="#FFFFFF" stroke="#000000" stroke-miterlimit="10" d="M512.76,209.18c0,0-0.11-0.01-0.26-0.03
	c-0.06-0.01-0.13-0.02-0.2-0.02c-16.94-1.84-34.07,2.01-43.42,5.7c-0.32,0.12-0.63,0.25-0.94,0.38c0.15-2.18,0.08-3.88-0.28-4.89
	c-2.89-8.19-27.23-8.19-27.23-8.19s-5.77-1.34-16.2-0.68c11.88-9.76,33.75-16.95,46.15-20.85L512.76,209.18z"/>
<path fill="#FFFFFF" stroke="#000000" stroke-miterlimit="10" d="M559.42,180.38c0.01,9.28-0.27,19.84-1.29,27.69
	c-0.19,1.51-0.42,2.92-0.67,4.21c-6.17,1.67-11.71,4.22-16.56,7.07c-0.08,0.03-0.15,0.09-0.23,0.12c-9.1-5.91-18.68-9-27.91-10.29
	l-42.38-28.58c1.3-0.41,2.48-0.78,3.55-1.12c2.8-0.88,5.65-2.45,8.42-4.42c5.51-3.85,10.69-9.22,14.46-13.67
	c4.34,7.94,18.82,19.88,21.45,20.97c2.9,1.21,21.22,2.42,23.14,0c1.79-2.22,14.66-14.97,17.52-19.91c-1.51,3.62-3.32,9.1-0.67,9.96
	c0.3,0.1,0.68,0.15,1.1,0.15C559.39,174.99,559.42,177.63,559.42,180.38z"/>
<path fill="#FFFFFF" stroke="#000000" stroke-miterlimit="10" d="M653.76,269.27c-1.68,8.6-4.04,14.87-4.53,15.87
	c-0.09,0.2-0.25,0.34-0.47,0.41c-2.37,0.84-11.46-6.26-16.53-16.67c0-0.01,0-0.01,0-0.01c-1.21-2.48-2.19-5.14-2.8-7.94
	c-3.37-15.58-25.02-38.55-25.02-38.55c-5.14-4.85-10.95-8.14-16.83-10.34c2.42-1.77,6.07-3.87,10.96-5.15
	c8.44-2.21,20.59-2.02,36.46,6.45C657.76,225.48,657.13,252.05,653.76,269.27z"/>
<path fill="#FFFFFF" stroke="#000000" stroke-miterlimit="10" d="M703.5,383.32c-4.53-2.57-13.28-4.9-29.24-3.51
	c-18.39,1.59-29.47,14.85-34.86,23.65c-3.79-13.98-1.76-45.69-1.09-54.47c5.07,1.23,9.83,1.2,12.97-0.52
	c9.16-4.97,14.78-22.8,10.61-37.58c-3.04-10.72-9.7-20.69-13.12-25.35c0.22-0.06,0.38-0.2,0.47-0.41c0.48-1,2.85-7.27,4.53-15.87
	c5.13,4.17,13.07,11.95,15.52,21.7c3.69,14.78,0.17,24.27,4.99,30.52c4.81,6.27,15.41,14.31,19.11,31.49
	C699.63,360.31,703.13,373.73,703.5,383.32z"/>
<path fill="#FFFFFF" stroke="#000000" stroke-miterlimit="10" d="M651.28,348.47c-3.14,1.72-7.9,1.76-12.97,0.52
	c-9.69-2.34-20.54-9.32-23.49-18.19c0,0,4.2-18.15,0.15-33.55c4.03-2.49,6.92-5.18,8.36-7.25c2.75-3.96,6.69-14.71,8.9-21.14
	c5.07,10.42,14.17,17.51,16.53,16.67c3.42,4.65,10.09,14.63,13.12,25.35C666.06,325.67,660.43,343.5,651.28,348.47z"/>
<path fill="#FFFFFF" stroke="#000000" stroke-miterlimit="10" d="M705.01,459.7c-0.13,0.04-0.25,0.08-0.39,0.1
	c-17.35-9.16-29.89,2.57-29.89,2.57s-0.2,0.08-0.53,0.18c-1.22-13.54-19.7-56.14-23.39-65.15c1.88-1.83,4.13-3.68,6.8-5.44
	c3.65,10.47,20.21,58.08,20.5,60.94c6.26-1.93,16.06-3.22,26.5-0.32C708.05,453.98,709.51,458.43,705.01,459.7z"/>
<path fill="#FFFFFF" stroke="#000000" stroke-miterlimit="10" d="M707.83,388c-0.17,1.77-3.22,2.57-3.22,2.57s0,0.03,0,0.09
	c-7.38-3.23-26.07-9.82-41.33-2.02c-2.07,1.07-3.97,2.17-5.67,3.32c-2.67,1.77-4.92,3.61-6.8,5.44c-5.35,5.16-7.78,10.2-8.85,13.15
	c-0.57,1.56-0.76,2.54-0.8,2.67c-0.15,0.48-5.77-1.93-5.77-1.93s1.27-3.32,4.02-7.82c5.39-8.8,16.47-22.07,34.86-23.65
	c15.96-1.39,24.71,0.94,29.24,3.51C706.85,385.21,707.9,387.25,707.83,388z"/>
<path fill="#FFFFFF" stroke="#000000" stroke-miterlimit="10" d="M704.62,452.58c-10.44-2.9-20.25-1.62-26.5,0.32
	c-0.29-2.86-16.85-50.48-20.5-60.94c1.7-1.14,3.6-2.25,5.67-3.32c15.26-7.8,33.96-1.21,41.33,2.02
	C704.64,393.19,705.24,448.81,704.62,452.58z"/>
<path fill="#FFFFFF" stroke="#000000" stroke-miterlimit="10" d="M674.2,462.55c-0.69,0.2-1.92,0.56-3.18,0.75
	c-0.97,0.14-1.95,0.2-2.71,0.04c-2.25-0.48-4.97-22.01-12.69-33.26c-6.61-9.64-9.68-10.07-13.66-19.53
	c1.07-2.95,3.5-7.99,8.85-13.15C654.5,406.41,672.97,449.01,674.2,462.55z"/>
<path fill="#FFFFFF" stroke="#000000" stroke-miterlimit="10" d="M712.32,497.71c-0.64,4.82-3.05,8.04-3.05,8.04s0,0.01,0,0.03
	c-1,0.37-2.16,0.8-3.37,1.26c-0.04-0.05-0.08-0.1-0.13-0.15v-0.01c-2.11-2.94-6.3,0.32-6.3,0.32s-0.19-0.15-0.55-0.37
	c-1.34-0.84-4.96-2.62-8.78-0.59c-0.01-0.01-0.03-0.03-0.04-0.04c-5.62-5.7-11.06-1.86-13.6,0.64c-2.47-3.37-4.31-11.65-4.79-13.96
	c0.19-5.16,7.99-21.7,3.33-24.23c-2.76-1.49-6.02-1.06-8.22-0.45c1.56-1.83,3.09-3.64,4.17-4.9c1.26-0.19,2.49-0.55,3.18-0.75
	c0.33-0.1,0.53-0.18,0.53-0.18s12.54-11.73,29.89-2.57c0.14-0.03,0.27-0.06,0.39-0.1l3.62,25.97
	C708.63,485.67,712.97,492.89,712.32,497.71z"/>
<path fill="#FFFFFF" stroke="#000000" stroke-miterlimit="10" d="M690.12,506.2c-0.13,4.62-0.51,16.24-1.41,18.67
	c-1.09,2.98-8.94,14.09-9.3,14.6c-0.01,0.01-0.01,0.01-0.01,0.01s-7.07,8.67-9.96,5.62c-2.9-3.05,1.77-7.71,3.52-9.47
	c-0.64-2.89,4.5-10.59,4.5-10.59s-0.15-12.06,0-17.19c-0.32-0.24-0.64-0.59-0.94-1C679.05,504.34,684.5,500.5,690.12,506.2z"/>
<path fill="#FFFFFF" stroke="#000000" stroke-miterlimit="10" d="M698.93,506.82c-0.43,4.55-1.39,13.91-2.35,15.96
	c-1.28,2.72-6.42,11.59-6.42,11.59c-5.79,3.36-10.42,5-10.75,5.1c0.36-0.51,8.2-11.62,9.3-14.6c0.9-2.43,1.28-14.05,1.41-18.67
	c0.01,0.01,0.03,0.03,0.04,0.04C693.97,504.2,697.6,505.98,698.93,506.82z"/>
<path fill="#FFFFFF" stroke="#000000" stroke-miterlimit="10" d="M705.77,506.87v0.01c-0.28,3.8-1.17,12.64-3.41,16.38
	c-1.5,2.49-3.2,5.39-4.51,7.59c-1.72,0.97-3.51,1.68-5.28,2.03c-0.83,0.52-1.63,1.02-2.42,1.48c0,0,5.14-8.86,6.42-11.59
	c0.97-2.05,1.92-11.41,2.35-15.96c0.36,0.22,0.55,0.37,0.55,0.37S703.66,503.93,705.77,506.87z"/>
<path fill="#FFFFFF" stroke="#000000" stroke-miterlimit="10" d="M707.83,520.21c-1.4,3.84-5.43,8.11-9.98,10.64
	c1.31-2.2,3.01-5.1,4.51-7.59c2.24-3.74,3.13-12.58,3.41-16.38c0.05,0.05,0.09,0.1,0.13,0.15c1.21-0.46,2.37-0.89,3.37-1.26
	C709.3,506.32,709.69,515.07,707.83,520.21z"/>
<path fill="#FFFFFF" stroke="#000000" stroke-miterlimit="10" d="M671.73,492.87c-0.09-0.39-0.13-0.61-0.13-0.61
	s0.72,7.06-1.84,13.98c-2.57,6.91-7.87,13.33-12.86,11.73c-4.97-1.62-0.15-12.69,1.28-17.83c1.45-5.15,1.77-23.78,2.42-24.58
	c0.32-0.41,3.33-3.94,6.24-7.35c2.2-0.61,5.46-1.04,8.22,0.45C679.71,471.17,671.92,487.71,671.73,492.87z"/>
<path fill="#FFFFFF" stroke="#000000" stroke-miterlimit="10" d="M614.82,330.81c0,0-0.23,5.39-2.26,13.85
	c-2.7-2.09-6.98-4.86-13.8-8.55c-19.6-10.61-34.71-3.85-41.69-2.9c-15.17-9.21-48.8,11.73-61.35,3.8c-0.14-0.08-0.28-0.17-0.42-0.27
	c-8.56-6.08-13.18-21.96-15.16-30.9c5.39,1.58,22.08,2.96,35.71,2.06c32.15-2.16,38.73-16.29,38.73-16.29s9.16,10.76,29.4,12.69
	c12.96,1.23,23.81-2.61,30.99-7.05C619.01,312.66,614.82,330.81,614.82,330.81z"/>
<path fill="#FFFFFF" stroke="#000000" stroke-miterlimit="10" d="M612.55,344.66c-2.1,8.75-6.12,20.79-13.8,33.54
	c-1.22-2.07-2.52-3.88-3.89-5.44c-10.59-12.2-25.04-9.59-38.57-7.59c3.97-14.82,0.78-31.95,0.78-31.95
	c6.98-0.95,22.09-7.71,41.69,2.9C605.57,339.8,609.86,342.57,612.55,344.66z"/>
<path fill="#FFFFFF" stroke="#000000" stroke-miterlimit="10" d="M599.19,408.28c-4.16,1.32-9.69,2.4-16.2,3.23
	c3.2-5.54,2.91-11.94,2.17-16.15c1.65-1.59,8.27-8.72,9.7-22.61c1.37,1.56,2.67,3.37,3.89,5.44
	C600.33,390.78,599.69,402.43,599.19,408.28z"/>
<path fill="#FFFFFF" stroke="#000000" stroke-miterlimit="10" d="M598.64,413.24c-0.28,0.13-0.56,0.23-0.85,0.33
	c-6.42,2.21-30.69,6.07-52.05,5.58c-11.9-0.27-35.37-2.48-54.62-4.6c-15.32-1.69-27.99-3.33-30.04-3.9
	c-0.41-0.11-0.81-0.25-1.18-0.43c-3.9-1.76-6.03-6.12-1.54-5.14c0,0,0.94,0.24,2.87,0.65c4.3,0.92,13.51,2.65,28.03,4.36
	c6.35,0.75,13.7,1.5,22.1,2.16c3.56,0.28,7.15,0.52,10.76,0.71c22.01,1.17,44.5,0.64,60.87-1.45c6.51-0.83,12.04-1.91,16.2-3.23
	c1.17-0.37,2.24-0.76,3.18-1.17C606.57,404.66,604.43,410.76,598.64,413.24z"/>
<path fill="#FFFFFF" stroke="#000000" stroke-miterlimit="10" d="M598.58,422.82c-0.15,0.06-0.31,0.1-0.47,0.1
	c-0.98,0-1.77-1.2-1.77-2.68c0-1.48,0.79-2.68,1.77-2.68c0.08,0,0.15,0.01,0.22,0.03c0.05-1.77,0.2-3.36,0.32-4.34
	c-0.28,0.13-0.56,0.23-0.85,0.33c-6.42,2.21-30.69,6.07-52.05,5.58c-11.9-0.27-35.37-2.48-54.62-4.6
	c-15.32-1.69-27.99-3.33-30.04-3.9c-0.41-0.11-0.81-0.25-1.18-0.43l-1,12.69l-0.05,0.58c0,0,23.13,5.79,38.23,12.86
	c15.1,7.07,48.03,21.53,57.99,19.11c9.72-2.34,37.95-29.33,44.38-29.87C599.03,424.87,598.75,423.9,598.58,422.82z M482.79,426.65
	c-2.06,0-3.73-1.67-3.73-3.73c0-2.05,1.67-3.71,3.73-3.71c2.06,0,3.73,1.67,3.73,3.71C486.52,424.98,484.85,426.65,482.79,426.65z
	 M515.54,433.78c-2.67,0-4.82-2.16-4.82-4.82c0-2.66,2.15-4.82,4.82-4.82c2.66,0,4.81,2.16,4.81,4.82
	C520.35,431.62,518.2,433.78,515.54,433.78z M554.89,452.9c-5.76,0-10.44-6.79-10.44-15.18c0-8.38,4.68-15.17,10.44-15.17
	c5.77,0,10.44,6.79,10.44,15.17C565.33,446.11,560.66,452.9,554.89,452.9z M582.84,431.05c-2.3,0-4.17-2.16-4.17-4.82
	c0-2.66,1.87-4.82,4.17-4.82c2.31,0,4.18,2.16,4.18,4.82C587.03,428.89,585.16,431.05,582.84,431.05z"/>
<path fill="#FFFFFF" stroke="#000000" stroke-miterlimit="10" d="M602.86,428.76c-0.48,1.07-1.7,2.11-2.99,2.61
	c-2.89,1.13-35.18,27.8-38.39,28.44c-3.2,0.65-10.28,3.7-26.99-2.89c-16.71-6.59-73.89-27.47-76.94-28.75
	c-0.95-0.41-1.54-1.08-1.76-1.82c-0.45-1.46,0.56-3.15,3.09-3.43l-0.05,0.58c0,0,23.13,5.79,38.23,12.86
	c15.1,7.07,48.03,21.53,57.99,19.11c9.72-2.34,37.95-29.33,44.38-29.87c0.15-0.03,0.31-0.03,0.43,0
	C602.9,426.04,603.46,427.42,602.86,428.76z"/>
<path fill="#FFFFFF" stroke="#000000" stroke-miterlimit="10" d="M520.35,428.96c0,2.66-2.15,4.82-4.81,4.82
	c-2.67,0-4.82-2.16-4.82-4.82c0-2.66,2.15-4.82,4.82-4.82C518.2,424.14,520.35,426.3,520.35,428.96z"/>
<path fill="#FFFFFF" stroke="#000000" stroke-miterlimit="10" d="M565.33,437.71c0,8.39-4.67,15.18-10.44,15.18
	c-5.76,0-10.44-6.79-10.44-15.18c0-8.38,4.68-15.17,10.44-15.17C560.66,422.54,565.33,429.33,565.33,437.71z"/>
<path fill="#FFFFFF" stroke="#000000" stroke-miterlimit="10" d="M587.03,426.23c0,2.66-1.87,4.82-4.18,4.82
	c-2.3,0-4.17-2.16-4.17-4.82c0-2.66,1.87-4.82,4.17-4.82C585.16,421.41,587.03,423.57,587.03,426.23z"/>
<path fill="#FFFFFF" stroke="#000000" stroke-miterlimit="10" d="M599.87,420.24c0,1.25-0.55,2.28-1.3,2.58
	c-0.15,0.06-0.31,0.1-0.47,0.1c-0.98,0-1.77-1.2-1.77-2.68c0-1.48,0.79-2.68,1.77-2.68c0.08,0,0.15,0.01,0.22,0.03
	C599.2,417.75,599.87,418.88,599.87,420.24z"/>
<path fill="#FFFFFF" stroke="#000000" stroke-miterlimit="10" d="M486.52,422.92c0,2.06-1.67,3.73-3.73,3.73
	c-2.06,0-3.73-1.67-3.73-3.73c0-2.05,1.67-3.71,3.73-3.71C484.85,419.21,486.52,420.87,486.52,422.92z"/>
<path fill="#FFFFFF" stroke="#000000" stroke-miterlimit="10" d="M623.97,477.15c0,0-5.3-0.95-11.89-7.39
	c-6.35-6.18-11.79-14.15-12.2-14.74c0.39,0.75,6.6,12.91,7.38,20.69c0.8,8.02-13.18,15.74-13.18,15.02c0-0.71,4.5-2.49,5.79-11.81
	c1.28-9.31-10.92-15.74-15.58-7.87c-4.65,7.87,6.91,10.12,6.91,10.12s-4.76,0.74-9.95-0.04c-2.84-0.42-5.81-1.31-8.2-3.01
	c1.77,7.07,0.64,24.25-6.92,38.39c3.38-12.04-2.72-29.4-2.72-29.4s0,14.79-1.28,19.76c-1.28,4.99-21.05,24.74-27.8,29.24
	c-1.31,0.86-2.39,2.12-3.33,3.6v0.01c-3.87,6.14-4.76,15.9-5.01,15.5c-0.33-0.48,0.64-14.93,0.8-16.23
	c0.04-0.36-0.03-1.49-0.24-2.82c0-0.01,0-0.01,0-0.01c-0.55-3.43-2.06-8.27-5.06-5.02c-3.74,4.02-1.69,10.72-1.23,12.11
	c-0.33-0.72-1.26-2.86-2.3-5.2c-1.28-2.9,0-10.92,2.4-17.03c2.42-6.1,3.54-31.17,3.54-31.17s-3.2,17.51-13.16,22.98
	c-9.61,5.27-23.2,4.1-24.15,4.01c0.67,0,8.62-0.15,16.91-7.06c8.67-7.24,3.54-28.28,3.54-28.28s-5.14,7.24-6.74,10.29
	c-1.62,3.05,0.64,12.36,0,12.21c-0.65-0.17-5.79-11.73-6.44-15.91c-0.64-4.17,4.82-22,4.82-22s-8.36,12.53-12.15,17.35
	c-3.8,4.82-19.34,5.94-19.34,5.94s11.41-5.77,13.49-14.29c2.1-8.51-2.89-23.29-2.89-23.29s-6.1,5.29-12.53,13.07
	c-4.82-6.69-3.22-17.74-1.93-18.5c-8.67,3.9-14.78,14.42-15.26,12.65c-0.24-0.86,1.06-4.93,2.45-8.88c0-0.01,0-0.01,0-0.01
	c1.45-4.15,3.01-8.14,3.01-8.14s-9.16,4.5-14.6,9.64c-1.41-8.19-0.51-6.59,0-10.76c-9.13-1.28-16.89-14.63-16.89-14.63
	s15.43,10.12,22.82,10.24c6.93,0.1,10.52-8.99,10.94-10.12c0.22,0.74,0.8,1.41,1.76,1.82c3.05,1.28,60.23,22.17,76.94,28.75
	c16.71,6.59,23.78,3.54,26.99,2.89c3.22-0.64,35.51-27.3,38.39-28.44c1.28-0.5,2.51-1.54,2.99-2.61c3.74,1.86,9.25,9.3,10.5,13.21
	c1.11,3.43-0.41,8.15-0.97,12.41v0.01c-0.18,1.34-0.27,2.61-0.15,3.8C612.73,463.17,623.97,477.15,623.97,477.15z"/>
<path fill="#FFFFFF" stroke="#000000" stroke-miterlimit="10" d="M526.54,536.16c0,0,0,0,0,0.01
	c-12.5,25.91-46.66,94.59-65.14,110.54c-0.46,0.39-0.92,0.8-1.39,1.21c-14.71,3.45-27.09,15.24-27.97,16.09
	c0.13-0.19,0.55-0.75,1.16-1.64c0.01-0.01,0.01-0.01,0.01-0.01c1.83-2.63,5.43-8.11,8.66-14.92c4.58-9.64,3.85-40,3.85-40
	s-20.96,13.01-31.81,13.01c-1.41,0-2.7-0.2-3.84-0.56c-7.02-2.12-9.28-9.82-9.6-11.08c0.03-0.1,0-0.15-0.05-0.18
	c-1.21-0.48-7.71-44.09,10.36-86.75c14.45-34.1,32.9-61.97,39.72-71.77c-1.4,3.94-2.7,8.01-2.45,8.88
	c0.48,1.77,6.59-8.75,15.26-12.65c-1.28,0.76-2.89,11.81,1.93,18.5c6.42-7.78,12.53-13.07,12.53-13.07s4.99,14.78,2.89,23.29
	c-2.09,8.52-13.49,14.29-13.49,14.29s15.54-1.12,19.34-5.94c3.79-4.82,12.15-17.35,12.15-17.35s-5.46,17.83-4.82,22
	c0.65,4.18,5.79,15.74,6.44,15.91c0.64,0.15-1.62-9.16,0-12.21c1.6-3.05,6.74-10.29,6.74-10.29s5.14,21.05-3.54,28.28
	c-8.29,6.91-16.24,7.06-16.91,7.06c0.95,0.09,14.54,1.26,24.15-4.01c9.96-5.47,13.16-22.98,13.16-22.98s-1.12,25.07-3.54,31.17
	c-2.4,6.1-3.69,14.13-2.4,17.03c1.04,2.34,1.97,4.48,2.3,5.2c-0.46-1.39-2.51-8.09,1.23-12.11
	C524.48,527.89,526,532.73,526.54,536.16z"/>
<path fill="#FFFFFF" stroke="#000000" stroke-miterlimit="10" d="M460.02,647.92c-6.05,5.32-12.62,11.73-19,18.28
	c-17.33,17.79-33.32,36.55-33.82,37.14c0.01-0.13,0.17-1.06,0.39-2.56c0-0.01,0-0.01,0-0.03c0.9-6.55,2.73-23.91-2.1-32.6
	c-2.19-3.93-5.77-7.52-9.45-10.49c-1.93-1.56-3.89-2.96-5.67-4.13c0.06-0.04,0.13-0.05,0.18-0.08c-5.98-22.79,9.6-42.52,9.93-44.64
	c0.32,1.26,2.58,8.95,9.6,11.08c-3.87,6.19-9.14,17.79-6.44,27.55c3.85,13.89,13.4,16.95,18.39,17.03c4.83,0.06,10.8-1.98,11.17-2.1
	c-0.61,0.89-1.03,1.45-1.16,1.64C432.93,663.16,445.3,651.37,460.02,647.92z"/>
<path fill="#FFFFFF" stroke="#000000" stroke-miterlimit="10" d="M441.02,666.2c-0.57,11.03-2.77,50.55-5.89,60.28
	c-0.66,2.07-1.44,4.53-2.28,7.19c-6.22-1.84-33,3.42-37.35,0.59c4.63-12.67,9.17-25.32,12.09-33.47c-0.23,1.5-0.38,2.43-0.39,2.56
	C407.7,702.75,423.68,683.99,441.02,666.2z"/>
<path fill="#FFFFFF" stroke="#000000" stroke-miterlimit="10" d="M396.05,657.67c-9.78,4.21-32.95,18.5-38.97,60.93
	c-4.36-1.59-8.55-4.15-11.08-5.84c-0.36-0.23-0.75-0.36-1.13-0.37c0.27-2.17,0.55-4.15,0.86-5.91
	c5.74-31.79,37.31-50.07,44.64-52.94C392.15,654.7,394.11,656.1,396.05,657.67z"/>
<path fill="#FFFFFF" stroke="#000000" stroke-miterlimit="10" d="M423.54,760.48c-0.56,1.22-1.06,2.05-1.42,2.39
	c-2.4,2.16-15.66,25.78-26.99,44.09c-0.05,0.08-0.1,0.15-0.14,0.24c-4.21-3.17-10.09-7.94-16.97-14.46
	c-10.36-9.83-22.33-35.27-27.81-47.73c1.83,1.73,3.69,3.42,5.41,5.07c4.9,4.72,20.95,8.3,30.32,9.83c3.54,0.56,6.13,0.84,6.79,0.78
	c2.4-0.24,5.77-0.24,7.71-0.48c1.93-0.24,9.16,1.21,12.53,0.72c3.38-0.48,3.61-0.97,5.1-3.13
	C419.34,755.94,419.64,757.28,423.54,760.48z"/>
<path fill="#FFFFFF" stroke="#000000" stroke-miterlimit="10" d="M394.99,807.2c-2.77,4.57-4.62,10-5.85,15.67
	c-7.54-5.04-14.32-11.34-20.27-18.03c-4.39-4.92-8.33-10.06-11.79-15.03c-6.49-9.32-11.31-18.1-14.24-23.93v-0.01
	c0.01-9.77,0.13-19.33,0.41-28.11c1.93,2.4,4.43,4.86,6.97,7.26c5.48,12.46,17.45,37.9,27.81,47.73
	C384.91,799.26,390.78,804.03,394.99,807.2z"/>
<path fill="#FFFFFF" stroke="#000000" stroke-miterlimit="10" d="M388.82,824.42c-0.92,4.64-1.42,9.4-1.73,13.93
	c-23.79,5.32-37.53-2.24-43.69-7.36c-0.03-5.71-0.11-12.37-0.2-19.62c-0.06-4.67-0.13-9.58-0.18-14.64
	c3.18-2.47,8.18-5.7,14.05-6.92c3.46,4.97,7.4,10.11,11.79,15.03c-6.42,0.45-14.75,2.81-21.49,5.07
	C354.15,814.78,368.74,823.22,388.82,824.42z"/>
<path fill="#FFFFFF" stroke="#000000" stroke-miterlimit="10" d="M357.08,789.8c-5.88,1.22-10.87,4.45-14.05,6.92
	c-0.11-9.98-0.2-20.51-0.19-30.85C345.77,771.7,350.59,780.48,357.08,789.8z"/>
<path fill="#FFFFFF" stroke="#000000" stroke-miterlimit="10" d="M386.46,862.87c0,0.01,0,0.01-0.01,0.03
	c-11.61-12.06-29.12-3.92-36.17,0.19c-4.16-2.73-7.71-4.72-10.39-6.04c1.53-2.93,2.59-5.28,2.96-6.72
	c0.51-2.02,0.61-9.17,0.56-19.34c6.16,5.13,19.89,12.68,43.69,7.36C386.33,850.12,387.09,860.33,386.46,862.87z"/>
<path fill="#FFFFFF" stroke="#000000" stroke-miterlimit="10" d="M382.87,910.57c0,0.38-0.13,0.85-0.41,1.41
	c-7.1,2.39-16.39,5.14-20.83,4.86c-7.71-0.48-7.82-8.19-7.82-8.19s-6.14,7.71-18.44,4.34c-7.61-2.09-12.72-11.05-15.5-17.58
	c8.06-7.81,21.61-14.14,28.51-17.07c11.57,7.34,25.44,17.17,33.94,26.78C382.64,907.7,382.86,909.65,382.87,910.57z"/>
<path fill="#FFFFFF" stroke="#000000" stroke-miterlimit="10" d="M348.38,878.34c-6.91,2.93-20.45,9.26-28.51,17.07
	c-0.5-1.14-0.92-2.2-1.26-3.14c4.07-6.45,9.61-15.18,14.38-23.13C336.7,871.22,342.22,874.43,348.38,878.34z"/>
<path fill="#FFFFFF" stroke="#000000" stroke-miterlimit="10" d="M382.46,911.98c-2.06,4.46-11.99,13.9-20.35,14.98
	c-9.4,1.2-27.23,1.2-32.29,0c-5.05-1.21-16.86-14.46-17.11-15.18c-0.24-0.72-0.24-8.43,0-9.88c0.06-0.42,2.47-4.22,5.89-9.63
	c0.34,0.94,0.76,2,1.26,3.14c2.79,6.52,7.9,15.49,15.5,17.58c12.3,3.37,18.44-4.34,18.44-4.34s0.11,7.71,7.82,8.19
	C366.07,917.12,375.37,914.37,382.46,911.98z"/>
<path fill="#FFFFFF" stroke="#000000" stroke-miterlimit="10" d="M382.32,905.13c-8.51-9.61-22.37-19.45-33.94-26.78
	c-6.16-3.92-11.67-7.12-15.39-9.21c2.67-4.46,5.1-8.67,6.89-12.09c2.68,1.32,6.23,3.31,10.39,6.04c2.44,1.6,5.13,3.48,7.96,5.63
	c6.68,5.07,14.29,11.71,22.19,20.16C380.95,894.51,381.79,900.7,382.32,905.13z"/>
<path fill="#FFFFFF" stroke="#000000" stroke-miterlimit="10" d="M386.44,862.89c-0.59,2.35-2.16,4.43-3.62,7.02
	c-9.35-8.93-21.05-3.27-24.58-1.2c-2.84-2.15-5.52-4.03-7.96-5.63C357.32,858.97,374.83,850.83,386.44,862.89z"/>
<path fill="#FFFFFF" stroke="#000000" stroke-miterlimit="10" d="M379.95,880.45c0,2.37,0.19,5.3,0.48,8.42
	c-7.9-8.44-15.52-15.08-22.19-20.16c3.54-2.07,15.24-7.73,24.58,1.2C381.32,872.58,379.95,875.8,379.95,880.45z"/>
<path fill="#FFFFFF" stroke="#000000" stroke-miterlimit="10" d="M588.58,543.87c-14.45,23.67-25.38,57.31-30.5,74.74
	c-9.53-23.85-23.16-66.48-27.09-78.89v-0.01c0.94-1.48,2.02-2.73,3.33-3.6c6.75-4.5,26.52-24.25,27.8-29.24
	c1.28-4.97,1.28-19.76,1.28-19.76s6.1,17.36,2.72,29.4c7.55-14.14,8.69-31.32,6.92-38.39c2.39,1.7,5.37,2.59,8.2,3.01L588.58,543.87
	z"/>
<path fill="#FFFFFF" stroke="#000000" stroke-miterlimit="10" d="M628.32,666.97c-7.81,16.53-20.26,44.46-22.73,67.18
	c-0.38,0.06-0.79,0.11-1.26,0.18c-5.61-17.18-17.42-44.44-28.23-56.05c-3.28-3.52-5.56-7.43-7.12-11.45v-0.01
	c-4.67-11.92-3.17-24.95-3.65-32.88c-1.74-2.31-4.3-7.91-7.25-15.34c5.11-17.44,16.05-51.07,30.5-74.74l0.22,1.89
	c0,0,20.88,15.9,32.12,64.73c0,0,7.39,10.59,7.39,14.45c0,3.87-4.34,25.38-4.34,25.38S626.06,653.49,628.32,666.97z"/>
<path fill="#FFFFFF" stroke="#000000" stroke-miterlimit="10" d="M620.92,610.5c-11.24-48.84-32.12-64.73-32.12-64.73l-0.22-1.89
	l-7.33-62.74c5.19,0.78,9.95,0.04,9.95,0.04s-11.56-2.25-6.91-10.12c4.65-7.87,16.86-1.44,15.58,7.87
	c-1.28,9.32-5.79,11.1-5.79,11.81c0,0.72,13.98-6.99,13.18-15.02c-0.78-7.78-6.98-19.94-7.38-20.69c0.41,0.58,5.85,8.56,12.2,14.74
	c6.59,6.44,11.89,7.39,11.89,7.39s-11.24-13.98-11.73-18.95c-0.11-1.2-0.03-2.47,0.15-3.8c10.35,16.57,27.36,48.49,27.8,79.97
	C640.84,579.68,620.92,610.5,620.92,610.5z"/>
<path fill="#FFFFFF" stroke="#000000" stroke-miterlimit="10" d="M604.34,734.33c-0.47,0.05-0.99,0.11-1.58,0.18
	c-7.71,0.8-5.94,3.7-15.26-0.48c-9.31-4.17-10.76-4.17-15.58-4.97c-4.82-0.81-3.05-1.28-8.02-1.93c-4.99-0.64-13.02-6.42-13.02-6.42
	s-0.15-2.01-1.55-3.01c-0.22-26.4,12.73-43.57,19.66-50.85c1.56,4.02,3.84,7.92,7.12,11.45
	C586.91,689.89,598.73,717.15,604.34,734.33z"/>
<path fill="#FFFFFF" stroke="#000000" stroke-miterlimit="10" d="M632.21,720.26c-5.99,0.5-6.12,4.67-10.49,7.97
	c-4.65,3.54-12.04,4.67-12.53,4.67c-0.41,0,0.81,0.58-3.6,1.25c2.47-22.71,14.92-50.64,22.73-67.18c1.36,8,2.77,19.64,3.84,36.37
	C632.49,708.5,632.48,714.21,632.21,720.26z"/>
<path fill="#FFFFFF" stroke="#000000" stroke-miterlimit="10" d="M622.93,787.86c-1.09,5.54-2.2,10.85-3.26,15.76
	c-11.99-13.06-42.39-33.82-61.41-39.81c-1.07-2.87-2.14-5.94-3.17-9.37c4.9,1.83,9.61,1.32,11.85,1.92c2.4,0.65,3.85,1.6,5.94,2.25
	c1.23,0.38,5.06-0.6,10.58-1.07C595.21,763.53,611.93,773.87,622.93,787.86z"/>
<path fill="#FFFFFF" stroke="#000000" stroke-miterlimit="10" d="M619.67,803.61c-1.21,5.57-2.37,10.63-3.38,14.99
	c-29.62,2.02-43.9-2.29-50.43-5.62c0.75-7.33,1.13-14.04,0.75-19.36c-0.84-11.87-4.54-19.56-8.36-29.82
	C577.29,769.8,607.68,790.55,619.67,803.61z"/>
<path fill="#FFFFFF" stroke="#000000" stroke-miterlimit="10" d="M612.25,835.06c0,0,0.06,0.09,0.2,0.25
	c-26.83,2.7-41.66-1.95-48.7-5.6c0.81-5.7,1.56-11.38,2.11-16.74c6.52,3.33,20.81,7.64,50.43,5.62
	C613.91,828.73,612.25,835.06,612.25,835.06z"/>
<path fill="#FFFFFF" stroke="#000000" stroke-miterlimit="10" d="M623.32,862.87c-14.04-4.57-46.41-0.88-64.16,1.68
	c0.71-9.35,2.79-22.12,4.59-34.82c7.03,3.65,21.86,8.29,48.7,5.6c0.92,1.12,4.78,5.88,10.96,13.18
	C623.97,853.99,624.32,860.27,623.32,862.87z"/>
<path fill="#FFFFFF" stroke="#000000" stroke-miterlimit="10" d="M637.72,864.12c-0.38,3.04-1.39,7.22-2.72,11.93
	c-1.45,5.1-3.27,10.8-5.1,16.3c-1.56,4.76-3.14,9.37-4.48,13.33c-6.46-1.92-11.45-4.62-15.64-7.47c1.55-10.85,6.32-21.62,6.32-21.62
	s-32.23,5.14-43.71,7.88c-0.01,0-0.01,0-0.01,0c-6.32-1.35-11.45-3.46-12.82-7.97c-0.76-2.49-0.79-6.68-0.39-11.97
	c17.75-2.56,50.12-6.24,64.16-1.68c0.99-2.59,0.65-8.88,0.09-14.37c1.12,1.34,2.33,2.75,3.61,4.25
	C629.92,856.14,633.69,860.16,637.72,864.12z"/>
<path fill="#FFFFFF" stroke="#000000" stroke-miterlimit="10" d="M616.1,876.6c0,0-4.77,10.77-6.32,21.62
	c-3.43-2.3-6.33-4.72-9.11-6.92c-5.67-4.51-18.42-4.72-28.28-6.82C583.87,881.74,616.1,876.6,616.1,876.6z"/>
<path fill="#FFFFFF" stroke="#000000" stroke-miterlimit="10" d="M660.75,894.19c-6.54,4.27-23.71,0.15-30.85-1.83
	c1.83-5.51,3.65-11.2,5.1-16.3c4.06-0.37,9.16-0.88,14.42-1.34c5.01,4.1,9.53,7.07,12.3,7.58c0.47,0.09,0.97,0.2,1.46,0.36
	C664.77,886.05,665.75,890.92,660.75,894.19z"/>
<path fill="#FFFFFF" stroke="#000000" stroke-miterlimit="10" d="M649.42,874.72c-5.27,0.46-10.36,0.97-14.42,1.34
	c1.34-4.71,2.34-8.89,2.72-11.93C641.56,867.9,645.63,871.63,649.42,874.72z"/>
<path fill="#FFFFFF" stroke="#000000" stroke-miterlimit="10" d="M679.07,897.41c0,5.14-4.17,11.24-31.16,11.24
	c-9.16,0-16.46-1.14-22.48-2.96c1.34-3.96,2.91-8.57,4.48-13.33c7.15,1.98,24.32,6.1,30.85,1.83c5-3.27,4.02-8.14,2.43-11.53
	C670.13,884.73,679.07,892.6,679.07,897.41z"/>
<path fill="#FFFFFF" stroke="#000000" stroke-miterlimit="10" d="M441.88,647.44c-3.23,6.8-6.83,12.29-8.66,14.92c0,0,0,0-0.01,0.01
	c-0.37,0.11-6.33,2.16-11.17,2.1c-4.99-0.08-14.54-3.14-18.39-17.03c-2.71-9.75,2.57-21.35,6.44-27.55
	c1.14,0.36,2.43,0.56,3.84,0.56c10.85,0,31.81-13.01,31.81-13.01S446.46,637.8,441.88,647.44z"/>
<path fill="#FFFFFF" stroke="#000000" stroke-miterlimit="10" d="M407.59,700.75c0,0.01,0,0.01,0,0.03
	c-2.93,8.15-7.47,20.81-12.09,33.47c-4.71-3.08-4.95-2-13.86-3.19c-8.92-1.21-12.53-9.64-20.72-11.33
	c-1.27-0.27-2.57-0.66-3.84-1.13c6.02-42.43,29.19-56.72,38.97-60.93c3.68,2.98,7.26,6.56,9.45,10.49
	C410.33,676.84,408.5,694.2,407.59,700.75z"/>
<path fill="#FFFFFF" stroke="#000000" stroke-miterlimit="10" d="M434.89,753.71c-4.1,6.98-3.13,12.77-9.16,8.43
	c-0.84-0.61-1.56-1.17-2.19-1.67c-3.9-3.19-4.2-4.54-5.48-2.67c-1.49,2.16-1.72,2.65-5.1,3.13c-3.37,0.48-10.59-0.97-12.53-0.72
	c-1.93,0.24-5.3,0.24-7.71,0.48c-0.66,0.06-3.26-0.22-6.79-0.78c-9.37-1.53-25.42-5.11-30.32-9.83c-1.72-1.65-3.57-3.34-5.41-5.07
	c-2.54-2.4-5.04-4.86-6.97-7.26c-2.12-2.63-3.59-5.21-3.78-7.66c-0.33-4.4,1.82-11.98,3.13-16.13c0.33-1.03,1.3-1.63,2.28-1.58
	c0.38,0.01,0.78,0.14,1.13,0.37c2.53,1.69,6.71,4.25,11.08,5.84c1.27,0.47,2.57,0.86,3.84,1.13c8.19,1.69,11.8,10.12,20.72,11.33
	c8.92,1.2,9.16,0.11,13.86,3.19c4.35,2.84,31.13-2.43,37.35-0.59c0.5,0.15,0.86,0.34,1.08,0.59
	C436.82,737.56,438.99,746.71,434.89,753.71z"/>
<path fill="#FFFFFF" stroke="#000000" stroke-miterlimit="10" d="M633.45,752.82c-1.34,1.81-3.09,3.01-5.05,3.83
	c-4.68,1.95-10.48,1.59-14.21,1.48c-5.27-0.17-4.68,1.45-17.21-0.32c-5.11-0.72-9.72-0.61-13.52-0.27
	c-5.52,0.47-9.35,1.45-10.58,1.07c-2.09-0.65-3.54-1.6-5.94-2.25c-2.24-0.6-6.96-0.09-11.85-1.92c-0.38-0.14-0.78-0.31-1.17-0.48
	c-5.29-2.42-10.76-36.31-7.06-36.79c1.08-0.14,1.87,0.1,2.45,0.52c1.4,1,1.55,3.01,1.55,3.01s8.04,5.79,13.02,6.42
	c4.97,0.65,3.2,1.12,8.02,1.93c4.82,0.8,6.27,0.8,15.58,4.97c9.32,4.18,7.55,1.28,15.26,0.48c0.59-0.06,1.11-0.13,1.58-0.18
	c0.36,1.06,0.67,2.07,0.97,3.05c0.08-1.07,0.17-2.14,0.29-3.23c4.41-0.66,3.19-1.25,3.6-1.25c0.48,0,7.87-1.13,12.53-4.67
	c4.37-3.31,4.5-7.48,10.49-7.97c0.38-0.04,0.8-0.05,1.23-0.05C640.68,720.21,637.95,746.71,633.45,752.82z"/>
<path fill="#FFFFFF" stroke="#000000" stroke-miterlimit="10" d="M628.4,756.65c-1.59,10.68-3.51,21.34-5.47,31.21
	c-11-13.99-27.72-24.33-39.46-30.32c3.8-0.34,8.41-0.46,13.52,0.27c12.53,1.77,11.94,0.15,17.21,0.32
	C617.92,758.24,623.72,758.59,628.4,756.65z"/>
<path fill="#FFFFFF" stroke="#000000" stroke-miterlimit="10" d="M389.14,822.87c-0.11,0.52-0.22,1.03-0.32,1.55
	c-20.08-1.2-34.67-9.64-41.45-14.51c6.74-2.26,15.07-4.63,21.49-5.07C374.82,811.52,381.6,817.83,389.14,822.87z"/>
<path fill="#FFFFFF" stroke="#000000" stroke-miterlimit="10" d="M594.86,372.75c-1.44,13.89-8.05,21.02-9.7,22.61
	c-0.24,0.23-0.38,0.34-0.38,0.34s-18.96-5.46-27.95-3.22c4.65-6.74-0.53-27.33-0.53-27.33
	C569.82,363.16,584.27,360.55,594.86,372.75z"/>
<path fill="#FFFFFF" stroke="#000000" stroke-miterlimit="10" d="M582.98,411.51c-16.37,2.09-38.85,2.62-60.87,1.45
	c-7.24-7.19-6.68-16.42-5.7-20.68c9.69,3.46,36.93-0.52,40.4,0.2c8.99-2.24,27.95,3.22,27.95,3.22s0.14-0.11,0.38-0.34
	C585.9,399.57,586.19,405.97,582.98,411.51z"/>
<path fill="#FFFFFF" stroke="#000000" stroke-miterlimit="10" d="M556.29,365.16c-4.18-1.77-30.64,3.56-44.61,0.51
	c-1.42-0.31-2.72-0.89-3.9-1.68c-0.05-1.22-0.08-2.15-0.09-2.67c-1.39-0.81-3.27-2.05-5.67-3.88c-3.84-6.65-5.58-15.59-6.3-20.42
	c12.55,7.92,46.18-13.01,61.35-3.8C557.06,333.21,560.26,350.34,556.29,365.16z"/>
<path fill="#FFFFFF" stroke="#000000" stroke-miterlimit="10" d="M632.23,268.86c0,0,0,0,0,0.01c-2.21,6.42-6.16,17.18-8.9,21.14
	c-1.44,2.07-4.32,4.76-8.36,7.25c-7.19,4.44-18.03,8.28-30.99,7.05c-20.25-1.93-29.4-12.69-29.4-12.69
	c2.35-34.27-7.52-60.15-13.67-72.26c4.85-2.85,10.39-5.39,16.56-7.07c8.83-2.4,18.94-3.04,30.12-0.24h0.01
	c5.88,2.2,11.69,5.49,16.83,10.34c0,0,21.65,22.97,25.02,38.55C630.04,263.72,631.02,266.38,632.23,268.86z"/>
<path fill="#FFFFFF" stroke="#000000" stroke-miterlimit="10" d="M510.01,382.08c-30.41-8.47-25.96-24.53-39.21-40.91
	c-4.26-0.2-7.92-0.74-11.06-1.5c0,0,0-0.01-0.01-0.01c-17.18-4.25-18.92-15.85-18.71-21.43c6.98,4.36,17.4,8.66,32.91,11.37
	c12.86,14.92,22.09,23.25,28.08,27.84c1.56,2.7,3.45,5.02,5.76,6.55C507.97,368.18,508.52,375.83,510.01,382.08z"/>
<path fill="#FFFFFF" stroke="#000000" stroke-miterlimit="10" d="M556.82,392.49c-3.47-0.72-30.71,3.26-40.4-0.2
	c-1.06-0.37-1.91-0.83-2.49-1.4c-1.76-1.69-3-5-3.92-8.8c-1.49-6.26-2.03-13.9-2.24-18.1c1.18,0.79,2.48,1.37,3.9,1.68
	c13.98,3.05,40.43-2.28,44.61-0.51C556.29,365.16,561.48,385.75,556.82,392.49z"/>
<path fill="#FFFFFF" stroke="#000000" stroke-miterlimit="10" d="M522.12,412.96c-3.61-0.19-7.2-0.43-10.76-0.71
	c-8.41-0.66-15.76-1.41-22.1-2.16c-4.53-11.6-9.53-29.49-12.44-43.38c-2.51-11.98-10.64-21.3-17.08-27.04
	c3.14,0.76,6.8,1.3,11.06,1.5c13.25,16.38,8.8,32.44,39.21,40.91c0.92,3.8,2.16,7.11,3.92,8.8c0.59,0.57,1.44,1.03,2.49,1.4
	C515.44,396.54,514.88,405.78,522.12,412.96z"/>
<path fill="#FFFFFF" stroke="#000000" stroke-miterlimit="10" d="M557.06,136.82c0,0-4.34,6.03-13.01,4.82
	c12.29-7.95,16.32-23.15,16.32-23.15l-7.87,6.14c0.23-0.33,3.96-5.71,3.84-7.57c-0.13-1.93-1.32-7.35-1.56-8.92
	c-0.24-1.56,0.48-11.45,0.48-11.45s-4.71,10-10.61,11.45c3.5-3.61,4.58-12.06,4.58-12.06s-6.38,9.16-18.43,12.06
	c8.16-2.8,12.04-11.48,12.27-12.03c-0.53,0.48-13.4,12.27-21.43,12.03c5.77-1.69,18.07-19.52,15.9-22.89
	c-3.85,5.05-23.86,14.21-28.92,21.68c-3.13-15.67,11.57-22.17,12.54-22.89c0,0-8.92-0.32-14.22,13.49
	c-2.1,5.46-6.13,9.06-10.25,11.41c-0.85,12.54-2.76,44.13-0.84,50.27c0.22,0.67,0.53,1.4,0.95,2.16
	c4.34,7.94,18.82,19.88,21.45,20.97c2.9,1.21,21.21,2.42,23.13,0c1.79-2.23,14.66-14.97,17.53-19.92c0-0.01,0.01-0.01,0.01-0.03
	c0.05-0.13,0.1-0.25,0.15-0.37c0.14-0.32,0.27-0.61,0.39-0.88c0-0.01,0.01-0.03,0.01-0.04c0.09-0.45,0.18-1.21,0.25-2.24l-9.35-4.64
	c0,0,5.14-0.53,9.77-5.68c0.01-0.69,0.04-1.39,0.05-2.11c-1.62,1.37-3.38,2.66-5.29,3.85C558.03,141.64,557.06,136.82,557.06,136.82
	z M537.31,120.58c0,0,6.77-6.56,14.93-0.55C549.84,123.04,544.19,125.03,537.31,120.58z M536.7,114.21c2-0.95,7.4-2.84,10.84-2.93
	c4.46-0.13,7.59,1.69,7.59,1.69s-6.02-0.01-8.92-0.01c-2.89,0.01-9.79,1.93-9.79,1.93S536.11,114.5,536.7,114.21z M501.64,110.71
	c0.74-0.18,6.7-1.51,9.79-1.51c3.29,0,11.57,6.1,11.57,6.1c-0.36,0.2-0.84,0.13-0.84,0.13s-7.49-2.95-8.97-4.16
	C511.52,109.9,502.56,110.64,501.64,110.71z M512.81,122.76c-4.04-0.45-7.55-3.76-7.55-3.76s3.89-2.75,7.99-1.98
	c4.1,0.76,7.11,3.75,7.11,3.75S516.85,123.22,512.81,122.76z M539.39,156.92c-0.85,2.26-3.19,6.71-8.51,6.89
	c-5.42,0.18-9.14-4.83-10.62-7.26c-2.71-1.18-4.31-2.38-4.31-2.38s0.18-0.05,0.5-0.13c0,0,0,0,0.01,0c1.98-0.5,9.14-2.28,11.06-2.28
	c2.23,0,3.6,0.93,3.6,0.93s2.89-1,5.06-0.93c2.16,0.08,8.36,1.45,8.36,1.45S542.87,155.3,539.39,156.92z"/>
<path fill="#FFFFFF" stroke="#000000" stroke-miterlimit="10" d="M539.39,156.92c-0.85,2.26-3.19,6.71-8.51,6.89
	c-5.42,0.18-9.14-4.83-10.62-7.26c2.76,1.2,6.68,2.38,11.18,2.21C534.72,158.63,537.37,157.86,539.39,156.92z"/>
<path fill="#FFFFFF" stroke="#000000" stroke-miterlimit="10" d="M578.34,147.67c-2.95,18.05-14.12,24.91-18.99,24.89
	c-0.42,0-0.8-0.05-1.11-0.15c-2.65-0.85-0.84-6.33,0.67-9.96c0-0.01,0.01-0.01,0.01-0.03c0.06-0.09,0.11-0.18,0.17-0.25v-0.01
	c0.15-0.28,0.27-0.53,0.33-0.75c0.03-0.05,0.04-0.13,0.05-0.23c0-0.01,0.01-0.03,0.01-0.04c0.52-1.16,0.92-1.91,0.92-1.91
	l-0.66-0.33l-9.35-4.64c0,0,5.14-0.53,9.77-5.68c1.31-1.45,2.58-3.28,3.68-5.57c-1.13,1.21-2.33,2.35-3.62,3.46
	c-1.62,1.37-3.38,2.66-5.29,3.85c3.1-8.67,2.14-13.49,2.14-13.49s-4.34,6.03-13.01,4.82c12.29-7.95,16.32-23.15,16.32-23.15
	l-7.87,6.14c0.23-0.33,3.96-5.71,3.84-7.57c-0.13-1.93-1.32-7.35-1.56-8.92c-0.24-1.56,0.48-11.45,0.48-11.45s-4.71,10-10.61,11.45
	c3.5-3.61,4.58-12.06,4.58-12.06s-6.38,9.16-18.43,12.06c8.16-2.8,12.04-11.48,12.27-12.03c-0.53,0.48-13.4,12.27-21.43,12.03
	c5.77-1.69,18.07-19.52,15.9-22.89c-3.85,5.05-23.86,14.21-28.92,21.68c-3.13-15.67,11.57-22.17,12.54-22.89
	c0,0-8.79-0.27-14.22,13.49c-3.18,8.05-10.39,11.49-10.25,11.41c-0.85,12.54-2.76,44.13-0.84,50.27c0.22,0.67,0.53,1.4,0.95,2.16
	c-3.76,4.45-8.95,9.82-14.46,13.67c-0.43-0.75-1.21-1.96-2.63-3.78c-2.85-3.65-18.31-18.07-16.39-20.49
	c-6.5-15.66,13.49-46.75,16.15-50.36c2.65-3.61,13.74-26.02,30.84-34.45c17.11-8.43,27.95-3.85,27.95-3.85s15.18,2.4,27.95,27.71
	c5.74,11.37,8.09,22.22,7.11,31.85C575.94,124.93,580.73,133.11,578.34,147.67z"/>
<path fill="#FFFFFF" stroke="#000000" stroke-miterlimit="10" d="M555.13,112.98c0,0-6.02-0.01-8.92-0.01
	c-2.89,0.01-9.79,1.93-9.79,1.93s-0.32-0.39,0.28-0.69c2-0.95,7.4-2.84,10.84-2.93C552,111.16,555.13,112.98,555.13,112.98z"/>
<path fill="#FFFFFF" stroke="#000000" stroke-miterlimit="10" d="M523.01,115.31c-0.36,0.2-0.84,0.13-0.84,0.13
	s-7.49-2.95-8.97-4.16c-1.68-1.37-10.64-0.64-11.56-0.56c0.74-0.18,6.7-1.51,9.79-1.51C514.73,109.2,523.01,115.31,523.01,115.31z"
	/>
<path fill="#FFFFFF" stroke="#000000" stroke-miterlimit="10" d="M537.31,120.58c6.88,4.45,12.53,2.45,14.93-0.55
	C544.08,114.02,537.31,120.58,537.31,120.58z M545.08,122.62c-1.12,0-2.03-0.9-2.03-2.02s0.92-2.03,2.03-2.03
	c1.12,0,2.02,0.92,2.02,2.03S546.2,122.62,545.08,122.62z"/>
<path fill="#FFFFFF" stroke="#000000" stroke-miterlimit="10" d="M513.24,117.01c-4.1-0.76-7.99,1.98-7.99,1.98s3.51,3.32,7.55,3.76
	c4.04,0.46,7.54-2,7.54-2S517.33,117.77,513.24,117.01z M512.81,122.19c-1.2,0-2.15-0.95-2.15-2.15c0-1.18,0.95-2.15,2.15-2.15
	c1.18,0,2.15,0.97,2.15,2.15C514.96,121.23,513.99,122.19,512.81,122.19z"/>
<path fill="#FFFFFF" stroke="#000000" stroke-miterlimit="10" d="M523.01,115.3c1.56,1.81,2.75,3.92,3.68,6.14
	c0.47,1.11,0.83,2.27,1.11,3.45c0.29,1.25,0.17,2.56-0.14,3.75c-0.65,2.39-1.88,4.44-2.47,6.67c-0.65,2.21-0.11,4.62,1.28,6.56
	c-0.83-0.85-1.51-1.88-1.89-3.06c-0.38-1.18-0.36-2.46-0.15-3.67c0.46-2.43,1.68-4.55,2.25-6.76c0.31-1.1,0.4-2.22,0.19-3.3
	c-0.22-1.14-0.55-2.26-0.91-3.38c-0.37-1.11-0.81-2.2-1.31-3.27C524.18,117.37,523.61,116.32,523.01,115.3z"/>
<path fill="#FFFFFF" stroke="#000000" stroke-miterlimit="10" d="M522.52,138.03c-0.46,0.72-0.81,1.54-0.81,2.34
	c0,0.4,0.1,0.78,0.28,1.11c0.19,0.33,0.47,0.61,0.77,0.83c0.63,0.43,1.43,0.53,2.23,0.5c0.79-0.04,1.62-0.24,2.36-0.5l0.22-0.08
	l0.21,0.11c0.41,0.23,0.9,0.43,1.37,0.56c0.48,0.14,0.97,0.23,1.45,0.25c0.97,0.04,1.9-0.27,2.62-0.91l0.21-0.19l0.25,0.09
	c1.14,0.43,2.52,0.6,3.55-0.01c0.51-0.3,0.87-0.83,1.05-1.44c0.18-0.62,0.19-1.29,0.15-1.96c0.18,0.65,0.27,1.33,0.18,2.04
	c-0.08,0.69-0.43,1.42-1.04,1.87c-0.6,0.47-1.36,0.65-2.08,0.68c-0.73,0.03-1.44-0.09-2.13-0.32l0.46-0.09
	c-0.43,0.41-0.94,0.76-1.51,0.96c-0.57,0.21-1.17,0.29-1.76,0.27c-0.59-0.02-1.16-0.11-1.71-0.29c-0.55-0.17-1.06-0.38-1.58-0.68
	l0.42,0.04c-0.88,0.31-1.76,0.46-2.69,0.47c-0.91,0.01-1.9-0.21-2.66-0.82c-0.37-0.31-0.67-0.7-0.87-1.14
	c-0.19-0.45-0.24-0.94-0.17-1.39C521.44,139.43,521.92,138.65,522.52,138.03z"/>
<path fill="#FFFFFF" stroke="#000000" stroke-miterlimit="10" d="M544.54,153.22c0,0-1.67,2.09-5.15,3.7
	c-2.02,0.94-4.67,1.72-7.95,1.84c-4.5,0.17-8.42-1.02-11.18-2.21c-2.71-1.18-4.31-2.38-4.31-2.38s0.18-0.05,0.5-0.13c0,0,0,0,0.01,0
	c0.36,0.04,7.69,0.7,14.91,0.7C538.75,154.74,544.54,153.22,544.54,153.22z"/>
<path fill="#FFFFFF" stroke="#000000" stroke-miterlimit="10" d="M544.54,153.22c0,0-5.79,1.53-13.18,1.53
	c-7.21,0-14.55-0.66-14.91-0.7c1.98-0.5,9.14-2.28,11.06-2.28c2.23,0,3.6,0.93,3.6,0.93s2.89-1,5.06-0.93
	C538.34,151.84,544.54,153.22,544.54,153.22z"/>
<path fill="#FFFFFF" stroke="#000000" stroke-miterlimit="10" d="M547.11,120.6c0,1.12-0.9,2.02-2.02,2.02
	c-1.12,0-2.03-0.9-2.03-2.02s0.92-2.03,2.03-2.03C546.2,118.56,547.11,119.48,547.11,120.6z"/>
<circle fill="#FFFFFF" stroke="#000000" stroke-miterlimit="10" cx="512.81" cy="120.04" r="2.15"/>
<path fill="#FFFFFF" stroke="#000000" stroke-miterlimit="10" d="M502.01,357.44c-5.99-4.59-15.22-12.92-28.08-27.84
	c-15.52-2.71-25.93-7.01-32.91-11.37c-7.05-4.37-10.58-8.81-12.3-11.74c5.65-9.22,10.38-18.67,13.76-25.96
	c9.07,8.83,24.34,20.23,36.88,25.05c0.23,0.09,0.48,0.17,0.78,0.25c1.98,8.94,6.6,24.83,15.16,30.9c0.14,0.1,0.28,0.19,0.42,0.27
	C496.43,341.85,498.17,350.79,502.01,357.44z"/>
<path fill="#FFFFFF" stroke="#000000" stroke-miterlimit="10" d="M554.57,291.61c0,0-6.57,14.13-38.72,16.29
	c-13.64,0.9-30.32-0.48-35.71-2.06c-0.3-0.09-0.55-0.17-0.78-0.25c-12.54-4.82-27.81-16.23-36.88-25.06
	c1.47-3.18,2.69-5.95,3.61-8.11c9.53-7.54,20.78-42.93,21.85-57.21c0.31-0.13,0.62-0.26,0.94-0.38c9.35-3.69,26.48-7.54,43.42-5.7
	c0.07,0,0.14,0.01,0.2,0.02c0.15,0.02,0.26,0.03,0.26,0.03c9.23,1.29,18.81,4.38,27.91,10.29c0.08-0.03,0.15-0.09,0.23-0.12
	C547.06,231.45,556.92,257.33,554.57,291.61z"/>
<path fill="#FFFFFF" stroke="#000000" stroke-miterlimit="10" d="M328.3,465.62c-1.12,1.07-2.19,2.32-3.14,3.79
	c-9.08-3.82-27.33-11.42-31.9-12.9c-0.48,0.09-0.91,0.2-1.32,0.32c-1.16-3.52-3.25-12.03,1.51-17.03c3.07-3.24,7.41-3.49,11.07-2.68
	c3.62,0.8,6.59,2.64,7.05,3.67C312.31,442.46,321.67,457.4,328.3,465.62z"/>
<path fill="#FFFFFF" stroke="#000000" stroke-miterlimit="10" d="M337.65,460.15c0,0-4.98,1.32-9.36,5.47
	c-6.63-8.22-15.99-23.16-16.73-24.82c-0.46-1.03-3.43-2.87-7.05-3.67c1.9-3.26,5.74-7.64,12.68-7.94L337.65,460.15z"/>
<path fill="#FFFFFF" stroke="#000000" stroke-miterlimit="10" d="M325.16,469.41c-1.69,2.58-2.93,5.84-3.22,9.9
	c-0.01,0.02-0.01,0.02-0.01,0.02l-32.83-11.44c0,0-4.8-8.58,2.83-11.05c0.4-0.12,0.84-0.24,1.32-0.32
	C297.83,457.99,316.08,465.58,325.16,469.41z"/>
<path fill="#FFFFFF" stroke="#000000" stroke-miterlimit="10" d="M443.14,510.1c-4.57,3.77-8.92,4.98-12.84,4.96
	c-4.57,0-8.56-1.66-11.69-2.87c-1.18-0.45-2.24-0.84-3.15-1.06c-0.66-0.14-1.24-0.21-1.75-0.14c-4.72,0.65-14.51,2.39-11.21,13.32
	c-12.32-4.52-18.39,11.4-13.18,18.31c0.56,0.75,1.18,1.59,1.82,2.49c0.02,0.03,0.04,0.06,0.07,0.09c2.22,3.15,4.7,7.08,6.16,11.1
	c2.01,5.48,2.14,11.14-2.84,15.12c-9.71,7.78-19.42-2.12-19.42-2.12s5.18-0.21,5.86-3.41c0.68-3.22-5.15-9.15-7.86-20.82
	c-2.7-11.68,6.16-19.6,6.16-19.6s12.89-3.65,15.61-6.98c1.92-2.35,2.81-4.36,2.78-9.32c-0.01-2.07-0.19-4.68-0.52-8.06
	c-0.12-0.11-0.24-0.22-0.36-0.33c4.43-3.5,13.77-10.1,20.93-11.51c9.46-1.86,17.07,6.88,18.76,5.33c1.68-1.54,2.56-11.97,2.56-11.97
	S456.44,499.14,443.14,510.1z"/>
<path fill="#FFFFFF" stroke="#000000" stroke-miterlimit="10" d="M415.02,540.64c-8.96-2.19-18.03,1.42-23.65,4.49
	c-0.07-0.01-0.14-0.01-0.22-0.02c-0.64-0.9-1.26-1.73-1.82-2.49c-5.21-6.91,0.86-22.83,13.18-18.31
	c-3.3-10.92,6.48-12.67,11.21-13.32c0.51-0.07,1.09,0,1.75,0.14C411.5,519.2,410.18,531.73,415.02,540.64z"/>
<path fill="#FFFFFF" stroke="#000000" stroke-miterlimit="10" d="M622.78,701.65c-6.79-2.77-163.05-126.1-171.57-131
	c-8.53-4.9-18.63-3.28-18.63-3.28s1.13-8.68-6.89-15.39c-6.13-5.13-25.53-6.49-34.33-6.84c5.62-3.07,14.69-6.68,23.65-4.49
	c-4.84-8.91-3.52-21.44,0.45-29.5c0.91,0.22,1.97,0.61,3.15,1.06c-0.13,2.79,0.04,6.7,0.81,12.16c2.64,18.89,29.72,21.6,29.72,21.6
	s1.28,7.6,6.74,16.25c5.46,8.65,170.21,132.67,170.21,132.67S626.91,696.11,622.78,701.65z"/>
<path fill="#FFFFFF" stroke="#000000" stroke-miterlimit="10" d="M684.83,744.38c-6.92-5.26-35.62-11.17-53.78-13.25
	c-10.55-18.85-68.68-58.32-92.64-63.09c-11.36-19.91-47.36-52.38-68.04-69.53c-20.69-17.13-37.31-22.03-37.31-22.03
	s-5-7.26-15.54-14.77c-7.49-5.34-15.76-5.32-20.13-5.39c-1.47-4.03-3.95-7.96-6.16-11.1c0.04-0.03,0.09-0.05,0.15-0.08
	c8.81,0.35,28.21,1.71,34.33,6.84c8.02,6.71,6.89,15.39,6.89,15.39s10.1-1.62,18.63,3.28c8.52,4.9,164.78,128.23,171.57,131
	c4.13-5.54,3.31-6.76,3.31-6.76S461.34,570.87,455.89,562.22c-5.46-8.65-6.74-16.25-6.74-16.25s-27.08-2.71-29.72-21.6
	c-0.77-5.46-0.95-9.37-0.81-12.16c3.13,1.21,7.12,2.86,11.69,2.87c3.02,10.98,8.43,18.35,25.94,25.11
	c28.63,41.99,86.1,78.63,113.4,86.13c16.54,28.1,85.44,71.19,85.44,71.19S666.72,727.49,684.83,744.38z"/>
</svg>
