<?xml version="1.0" encoding="utf-8"?>
<!-- Generator: Adobe Illustrator 25.2.0, SVG Export Plug-In . SVG Version: 6.00 Build 0)  -->
<svg version="1.1" baseProfile="tiny" id="Layer_1" xmlns="http://www.w3.org/2000/svg" xmlns:xlink="http://www.w3.org/1999/xlink"
	 x="0px" y="0px" viewBox="0 0 1000 1000" overflow="visible" xml:space="preserve">
<path fill="#FFFFFF" stroke="#000000" stroke-miterlimit="10" d="M535.71,81.61c-0.17-1.39-0.25-2.98-0.42-4.69
	c-9.29-9.56-19-10.81-19-10.81l-7.84,23.35c0,0-15.33,0-15.87,0c-0.53,0-8.02-16.94-11.05-23.35
	c-10.51,3.92-16.21,11.23-16.21,11.23l2.14,30.12c0,0-2.58,5.83-4.3,10.98c0.48,4.37,0.99,9,1.46,13.29
	c0.35,0.18,0.79,0.43,1.31,0.77c2.66,0.26,7.15,1.22,10.08,4.54c4.4,4.99,10.1,12,12.48,17.82l23.7,0.36c0,0,8.47-20.54,19.7-23.87
	c0.01-0.01,0.01-0.01,0.02-0.01c0.5-0.48,0.98-0.91,1.43-1.3c0.45-0.4,0.88-0.76,1.28-1.08C535.65,110.65,536.38,86.97,535.71,81.61
	z M490.62,119.57c0,0-2.85,1.31-9.14,1.79c-6.3,0.47-12.24-5.23-12.24-5.23l3.21-4.52c3.92,2.97,19.48,5.47,19.48,5.47
	L490.62,119.57z M523.77,119.93c-1.9,1.19-12.95,0.71-12.95,0.71l-0.59-4.14c10.22-0.46,17.7-6.07,17.7-6.07l2.02,4.62
	C529.95,115.05,525.67,118.74,523.77,119.93z"/>
<path fill="#FFFFFF" stroke="#000000" stroke-miterlimit="10" d="M534.62,128.96c-0.61,10.92-1.34,19.92-1.94,21.98
	c-0.37,1.28-1.32,3.14-2.61,5.28c-0.53,0.87-1.11,1.79-1.74,2.74l-0.01,0.01c-0.13,0.21-0.27,0.41-0.42,0.62
	c-0.95,1.41-1.99,2.87-3.07,4.3c-0.56-0.84-1.02-1.79-1.4-2.73v-0.01c-1.05-2.57-1.49-5.05-1.49-5.05
	c-0.18-0.73-0.32-1.45-0.41-2.17c-1.27-9.64,5.35-17.86,10.36-22.58c0.01-0.01,0.01-0.01,0.02-0.01c0.5-0.48,0.98-0.91,1.43-1.3
	C533.79,129.64,534.22,129.28,534.62,128.96z"/>
<path fill="#FFFFFF" stroke="#000000" stroke-miterlimit="10" d="M521.53,153.93l-5.24,5.21l-4.1-3.92c0,0,8.47-20.54,19.7-23.87
	C526.88,136.07,520.26,144.29,521.53,153.93z"/>
<path fill="#FFFFFF" stroke="#000000" stroke-miterlimit="10" d="M479.22,153.26c-0.29,0.51-0.66,1.07-1.09,1.67
	c-1.13,1.58-2.61,3.33-3.64,4.52c-0.75,0.85-1.27,1.41-1.27,1.41c-2.46-3.54-4.63-6.97-5.88-9.34c-0.34-0.64-0.62-1.2-0.81-1.67
	v-0.01c-0.22-0.55-0.34-0.97-0.32-1.22c0.07-1.05-0.63-7.91-1.52-16.21c0.34,0.02,0.76,0.04,1.24,0.09
	C469.12,134.56,475.09,140.01,479.22,153.26z"/>
<path fill="#FFFFFF" stroke="#000000" stroke-miterlimit="10" d="M535.29,76.92c-9.29-9.56-19-10.81-19-10.81l-7.84,23.35
	c0,0-15.33,0-15.87,0c-0.53,0-8.02-16.94-11.05-23.35c-10.51,3.92-16.21,11.23-16.21,11.23l2.14,30.12c0,0-2.58,5.83-4.3,10.98
	c-0.96-8.66-1.8-16.35-1.94-18.47c-0.28-4.09,1.36-20,2.14-27.22c0.27-2.5,1.46-4.8,3.36-6.44c5.39-4.67,17.76-13.34,34.24-12.14
	C531.26,56.36,534.43,68.13,535.29,76.92z"/>
<path fill="#FFFFFF" stroke="#000000" stroke-miterlimit="10" d="M488.49,154.86l-4.64,6l-5.72-5.93c0.43-0.6,0.8-1.16,1.09-1.67
	c-4.13-13.25-10.1-18.7-13.29-20.76c2.66,0.26,7.15,1.22,10.08,4.54C480.41,142.03,486.11,149.04,488.49,154.86z"/>
<path fill="#FFFFFF" stroke="#000000" stroke-miterlimit="10" d="M523.43,161.15v0.01l-5.48,7.19l-7.01-3.39h-22.45l-5.82,4.25
	l-8.18-9.76c1.03-1.19,2.51-2.94,3.64-4.52l5.72,5.93l4.64-6l23.7,0.36l4.1,3.92l5.24-5.21c0.09,0.72,0.23,1.44,0.41,2.17
	C521.94,156.1,522.38,158.58,523.43,161.15z"/>
<path fill="#FFFFFF" stroke="#000000" stroke-miterlimit="10" d="M524.83,163.89c-3.56,4.73-7.52,9.21-10.07,10.99l-5.72-3.15
	h-17.58c0,0-2.38,1.74-4.96,3.51c-0.1,0.07-0.2,0.14-0.3,0.21c-0.29-0.03-0.54-0.06-0.74-0.09c-2.55-1.51-7.85-8.17-12.24-14.5
	c0,0,0.52-0.56,1.27-1.41l8.18,9.76l5.82-4.25h22.45l7.01,3.39l5.48-7.19C523.81,162.1,524.27,163.05,524.83,163.89z"/>
<path fill="#FFFFFF" stroke="#000000" stroke-miterlimit="10" d="M586.5,207.97l-0.45-0.2v-0.01l-45.7-20.64
	c0,0,0.9-20.96-3.98-28.73c11.98,4.26,34.51,13.07,46.57,22.85c0.03,0.05,0.06,0.1,0.09,0.16v0.01
	C587.21,188.83,586.5,207.97,586.5,207.97z"/>
<path fill="#FFFFFF" stroke="#000000" stroke-miterlimit="10" d="M630.67,244.24c-0.41,4.39-1.09,11.27-1.97,17.64
	c-0.1,0.75-0.21,1.5-0.31,2.23c-0.26-0.25-0.58-0.48-0.95-0.67c-5.1-2.82-19.81-1.13-27.25-0.04c0.24-10.7-1.2-18.24-5.67-16.58
	c0,0,0,0,0.01-0.01c0.45-0.21,14.97-6.95,26.19-7.65C624.89,238.9,628.17,241.21,630.67,244.24z"/>
<path fill="#FFFFFF" stroke="#000000" stroke-miterlimit="10" d="M644.78,237.38l-4.28-4.99l-3.56,24.59c0,0-1.94-7.47-6.27-12.74
	c-2.5-3.03-5.78-5.34-9.95-5.08c-11.22,0.7-25.74,7.44-26.19,7.65c0.11-0.16,1.42-2.03,2.61-4.39c1.1-2.17,2.1-4.75,2.02-6.83
	c-0.18-4.45-5.7-4.99-5.7-4.99l-6.91-6.95l-1.29-7.48c0.64-3.03,0.79-6.11,0.79-8.4l0.45,0.2c0,0,0.71-19.14-3.47-26.56
	c7.93,1.4,24.46,5.12,38.94,13.02c19.6,10.69,21.21,16.21,22.81,22.63C646.39,223.48,644.78,237.38,644.78,237.38z"/>
<path fill="#FFFFFF" stroke="#000000" stroke-miterlimit="10" d="M628.21,318.29c-0.66,1.45-2.5,3.8-5.27,6.11
	c-4,3.36-9.94,6.65-17.01,7.08c-3.2,0.19-6.24-0.65-8.98-1.99c-3.04-1.48-5.7-3.56-7.8-5.52c0.59-1.93,1.13-3.98,1.6-6.12
	c0.02-0.09,0.03-0.18,0.05-0.27c0.13-0.52,0.24-1.07,0.34-1.61c3.31-6.31,8.66-34.13,9.05-52.57c7.44-1.09,22.15-2.78,27.25,0.04
	c-0.18,10.46-0.7,46.06,0.55,53.82C628.05,317.69,628.13,318.04,628.21,318.29z"/>
<path fill="#FFFFFF" stroke="#000000" stroke-miterlimit="10" d="M616.62,364.09c-11.94,1.78-18.71-9.45-18.71-9.45l-0.08-2.02
	l-0.88-23.13c2.74,1.34,5.78,2.18,8.98,1.99c7.07-0.43,13.01-3.72,17.01-7.08c2.86,7.88,3.31,22.05,3.31,22.05s1.08-0.75,2.45-2.08
	C630.88,357.13,627.84,362.42,616.62,364.09z"/>
<path fill="#FFFFFF" stroke="#000000" stroke-miterlimit="10" d="M634.06,334.37c-0.37,4.35-3.21,7.9-5.36,10
	c-1.37,1.33-2.45,2.08-2.45,2.08s-0.45-14.17-3.31-22.05c2.77-2.31,4.61-4.66,5.27-6.11c-0.08-0.25-0.16-0.6-0.22-1.03
	c1.7,1.74,4.26,5.76,5.79,14.76l-0.42,1.32C633.63,333.61,633.86,333.96,634.06,334.37z"/>
<path fill="#FFFFFF" stroke="#000000" stroke-miterlimit="10" d="M635.69,349.48l-0.02,0.23l-1.58,16.87c0,0-3.03,4.82-14.97,6.6
	c-11.94,1.78-19.96-3.92-19.96-3.92l-7.49,2.49l-0.07-0.25l-3.67-12.94l9.9-5.94l0.08,2.02c0,0,6.77,11.23,18.71,9.45
	c11.22-1.67,14.26-6.96,12.08-19.72c2.15-2.1,4.99-5.65,5.36-10C636.23,338.67,635.69,349.48,635.69,349.48z"/>
<path fill="#FFFFFF" stroke="#000000" stroke-miterlimit="10" d="M655.68,407.47l-0.17-0.81c-0.92-7.04-6.25-46.02-12.69-52.02
	c-3.15-2.93-5.51-4.31-7.15-4.93l0.02-0.23c0,0,0.54-10.81-1.63-15.11c0.01-0.13,0.02-0.27,0.03-0.4c-0.1-0.67-0.2-1.32-0.31-1.95
	l1.97-6.25h8.32c0,0,12.3,29.23,13.01,44.91C657.74,385.32,655.92,404.91,655.68,407.47z"/>
<path fill="#FFFFFF" stroke="#000000" stroke-miterlimit="10" d="M659.41,425.17l-1.47,17.98c-17.9-2.77-30.73,4.38-33.34,5.99
	c-0.91-1.07-1.47-1.82-1.57-1.94c-0.01-0.01-0.01-0.02-0.01-0.02l-34.38-72.04l2.96-3.64l0.07,0.25l7.49-2.49
	c0,0,8.02,5.7,19.96,3.92c11.94-1.78,14.97-6.6,14.97-6.6l1.58-16.87c1.64,0.62,4,2,7.15,4.93c6.44,6,11.77,44.98,12.69,52.02
	c0.09,0.7,0.14,1.09,0.14,1.09s0.01-0.1,0.03-0.28l2.67,12.66L659.41,425.17z"/>
<path fill="#FFFFFF" stroke="#000000" stroke-miterlimit="10" d="M665.75,504.52l-3.36-10.36l-3.13-9.68l-3.75-11.56l1.68-20.58
	l0.75-9.19l1.47-17.98l0.17-1.98c3.33,8.47,9.07,24.57,9.74,36.31C670.27,476.13,665.75,504.52,665.75,504.52z"/>
<path fill="#FFFFFF" stroke="#000000" stroke-miterlimit="10" d="M657.94,443.15l-0.75,9.19c-3.35-1.27-7.99-2.44-12.94-1.99
	c-6.68,0.61-10.84,3.39-12.8,5.08c-0.05,0.05-0.1,0.09-0.15,0.14c-2.76-2.04-5.2-4.66-6.7-6.43
	C627.21,447.53,640.04,440.38,657.94,443.15z"/>
<path fill="#FFFFFF" stroke="#000000" stroke-miterlimit="10" d="M659.26,484.48c-7.29,0.17-14.11,1.15-17,1.62
	c-0.93,0.15-1.46,0.25-1.46,0.25l-1.55-2.77c3.94-3.76,10-10.35,7.61-13.39c-3.3-4.22-13.37-0.35-14.2-0.02
	c-0.04,0.01-0.06,0.02-0.06,0.02l-1.13-14.5l-0.02-0.26c1.96-1.69,6.12-4.47,12.8-5.08c4.95-0.45,9.59,0.72,12.94,1.99l-1.68,20.58
	L659.26,484.48z"/>
<path fill="#FFFFFF" stroke="#000000" stroke-miterlimit="10" d="M639.25,483.58c-1.75,1.66-3.08,2.77-3.08,2.77l-3.09-6.66
	l-6.83-1.99h-0.01l-0.88-0.26l7.3-7.27c0.83-0.33,10.9-4.2,14.2,0.02C649.25,473.23,643.19,479.82,639.25,483.58z"/>
<path fill="#FFFFFF" stroke="#000000" stroke-miterlimit="10" d="M636.17,486.35c0,0-1.91,0.79-4.5,1.87
	c-4.55,1.9-11.2,4.66-13.32,5.49c-3.33,1.31-5.11-4.75-3.81-5.46c1.12-0.61,9.3-8.29,11.7-10.55h0.01l6.83,1.99L636.17,486.35z"/>
<path fill="#FFFFFF" stroke="#000000" stroke-miterlimit="10" d="M662.39,494.16c-1.84,1.73-4.92,4.56-6.49,5.48
	c-6.92-1.12-13.91-3.67-13.91-3.67l-0.02,0.1c-0.74-3.56-0.34-7.32,0.29-9.97c2.89-0.47,9.71-1.45,17-1.62L662.39,494.16z"/>
<path fill="#FFFFFF" stroke="#000000" stroke-miterlimit="10" d="M651.74,515.34c-3.01,2.08-15.36,7.72-15.36,7.72l-4.96-4.28
	l-0.1,0.23c-1.57-2.39-1.54-4.91-1.29-6.51c0.28-0.01,0.44-0.01,0.44-0.01l9.23-7.25C641.34,507.34,646.45,513.42,651.74,515.34z"/>
<path fill="#FFFFFF" stroke="#000000" stroke-miterlimit="10" d="M655.51,499.84c0.38,1-1.52,13.48-3.3,15.14
	c-0.11,0.1-0.27,0.23-0.47,0.36c-5.29-1.92-10.4-8-12.04-10.1l0.15-0.12l2.12-9.05l0.02-0.1c0,0,6.99,2.55,13.91,3.67
	C655.75,499.72,655.63,499.79,655.51,499.84z"/>
<path fill="#FFFFFF" stroke="#000000" stroke-miterlimit="10" d="M631.32,519.01l-1.57,3.46c0,0-12.71-0.6-12.47-5.11
	c0.77-2.14,3.31-3.35,5.96-4.02c2.79-0.7,5.7-0.83,6.79-0.84C629.78,514.1,629.75,516.62,631.32,519.01z"/>
<path fill="#FFFFFF" stroke="#000000" stroke-miterlimit="10" d="M641.97,496.07l-2.12,9.05c0.11-3.06-1.19-4.16-1.19-4.16
	c-0.13-1.62-0.1-3.16,0-4.43v-0.01c0.16-2.1,0.48-3.52,0.48-3.52s-5.36-2.13-7.47-4.78c2.59-1.08,4.5-1.87,4.5-1.87
	s1.33-1.11,3.08-2.77l1.55,2.77c0,0,0.53-0.1,1.46-0.25C641.63,488.75,641.23,492.51,641.97,496.07z"/>
<path fill="#FFFFFF" stroke="#000000" stroke-miterlimit="10" d="M630.47,512.49c0,0-0.16,0-0.44,0.01c-1.09,0.01-4,0.14-6.79,0.84
	c-3.06-1.99-8.5-6.11-5.97-8.82c0.13-0.14,0.28-0.27,0.43-0.38c3.78-2.75,12.88,3.89,12.88,3.89S632.77,509.04,630.47,512.49z"/>
<path fill="#FFFFFF" stroke="#000000" stroke-miterlimit="10" d="M638.66,500.96c-3.44-0.12-8.08,7.07-8.08,7.07
	c-0.18-1.6-1.03-2.97-1.67-3.8c-0.02-5.16,7.02-7.13,9.75-7.7C638.56,497.8,638.53,499.34,638.66,500.96z"/>
<path fill="#FFFFFF" stroke="#000000" stroke-miterlimit="10" d="M630.58,508.03c0,0-9.1-6.64-12.88-3.89
	c-0.73-1.87-1.07-3.91,0.65-4.3c3.32-0.76,6.06,1.71,10.57,4.68c-0.01-0.1-0.01-0.2-0.01-0.29
	C629.55,505.06,630.4,506.43,630.58,508.03z"/>
<path fill="#FFFFFF" stroke="#000000" stroke-miterlimit="10" d="M639.85,505.12l-0.15,0.12l-9.23,7.25
	c2.3-3.45,0.11-4.46,0.11-4.46s4.64-7.19,8.08-7.07C638.66,500.96,639.96,502.06,639.85,505.12z"/>
<path fill="#FFFFFF" stroke="#000000" stroke-miterlimit="10" d="M524.96,195.5h-33.15c-0.88-0.77-1.74-1.55-2.59-2.35
	c-4.15-3.87-8.01-8.07-11.6-12.58c-5.19-6.52-9.82-13.69-13.93-21.45c-0.42-0.77-0.82-1.55-1.22-2.33l4.06-6.94
	c0.19,0.47,0.47,1.03,0.81,1.67c1.25,2.37,3.42,5.8,5.88,9.34c4.39,6.33,9.69,12.99,12.24,14.5c0.2,0.03,0.45,0.06,0.74,0.09
	c0.18,0.01,0.38,0.03,0.6,0.05h0.01l7.62,6.45c0,0,19.96,1.43,22.45,0c1.73-0.99,6.96-8.22,9.76-16.05
	c0.68-1.92,1.22-3.87,1.52-5.77c2.11,4.33,5.61,11.97,6.92,17.31C537,185.28,524.96,195.5,524.96,195.5z"/>
<path fill="#FFFFFF" stroke="#000000" stroke-miterlimit="10" d="M514.76,174.88c-0.28,0.19-0.55,0.35-0.79,0.48
	c-4.22,1.13-21.34,0.64-27.16,0.14h-0.01l-0.3-0.26c2.58-1.77,4.96-3.51,4.96-3.51h17.58L514.76,174.88z"/>
<path fill="#FFFFFF" stroke="#000000" stroke-miterlimit="10" d="M528.16,160.12v0.01c-0.3,1.9-0.84,3.85-1.52,5.77
	c-2.8,7.83-8.03,15.06-9.76,16.05c-2.49,1.43-22.45,0-22.45,0l-7.62-6.45c5.82,0.5,22.94,0.99,27.16-0.14
	c0.24-0.13,0.51-0.29,0.79-0.48c2.55-1.78,6.51-6.26,10.07-10.99c1.08-1.43,2.12-2.89,3.07-4.3
	C527.98,159.76,528.07,159.94,528.16,160.12z"/>
<path fill="#FFFFFF" stroke="#000000" stroke-miterlimit="10" d="M484.9,193.49c-14.67,1.49-31.19,6.62-42.28,10.59
	c-2.87,1.02-5.38,1.97-7.39,2.76c-0.86-2.87-1.8-5.38-2.47-6.71c-1.68-3.35-8.16-16.06-15.79-22.7
	c18.46-16.32,39.63-18.18,46.72-18.31c4.11,7.76,8.74,14.93,13.93,21.45C479.09,184.26,481.55,189.49,484.9,193.49z"/>
<path fill="#FFFFFF" stroke="#000000" stroke-miterlimit="10" d="M436.92,221.04c-1.9,3.68-6.77,6.65-10.93,11.17
	c-0.52,0.79-1.07,1.45-1.62,2.01c-3.12,3.12-6.46,2.86-6.46,2.86s-0.77-0.33-2.11-0.9c-6.83-2.89-28.47-11.83-37.81-13.12
	c-11.17-1.55-10.1,6.65-16.63,7.84c-3.18,0.58-6.19-1.37-8.45-3.53c-2.38-2.28-3.91-4.79-3.91-4.79s5.23-26.61,17.82-36.59
	c12.6-9.98,36.12-8.55,50.14-8.55l0.01-0.01c7.63,6.64,14.11,19.35,15.79,22.7c0.67,1.33,1.61,3.84,2.47,6.71
	C436.83,212.14,438.15,218.65,436.92,221.04z"/>
<path fill="#FFFFFF" stroke="#000000" stroke-miterlimit="10" d="M415.8,236.18l-4.54,6.48c0,0-21.03-6.41-24.95-6.41
	c-1.69,0-4.97,2.89-8.87,6.17c-5.17,4.34-11.43,9.36-16.44,9.15c-0.36-0.01-0.71-0.04-1.05-0.09c-7.77-1-8.11-9.43-8.45-12.74
	c-0.2-1.92,0.64-7.13,1.41-11.37c2.26,2.16,5.27,4.11,8.45,3.53c6.53-1.19,5.46-9.39,16.63-7.84
	C387.33,224.35,408.97,233.29,415.8,236.18z"/>
<path fill="#FFFFFF" stroke="#000000" stroke-miterlimit="10" d="M421.1,266.6v0.01c-0.23,1.76-2.35,15.99-14.12,34.78
	c-0.39,0.62-0.78,1.24-1.19,1.87c-6.6,10.16-10.42,16.79-13.93,20.8c-2.22,2.55-4.31,4.04-6.9,4.7c-1.78,0.46-3.8,0.53-6.26,0.28
	c-6.46-0.66-12.91-2.63-17.52-7.14c-3.71-3.61-6.23-8.87-6.6-16.39c8.56-10.57,10.82-29.22,10.82-29.58
	C365.4,275.58,388.03,245.12,421.1,266.6z"/>
<path fill="#FFFFFF" stroke="#000000" stroke-miterlimit="10" d="M381.55,353.04c-0.33-0.5-0.58-1.1-0.75-1.78
	c-1.46-5.58,1.92-16.36,4.16-22.5c2.59-0.66,4.68-2.15,6.9-4.7C392.24,328.48,391.03,337.42,381.55,353.04z"/>
<path fill="#FFFFFF" stroke="#000000" stroke-miterlimit="10" d="M427.3,253.36l-6.18,13.07c0,0-0.01,0.06-0.02,0.17
	c-33.07-21.48-55.7,8.98-55.7,9.33c0,0.36-2.26,19.01-10.82,29.58c0.37,7.52,2.89,12.78,6.6,16.39c-2.15,5.56-4.95,12.77-6.6,17
	c-0.35,0.89-0.85,1.41-1.46,1.64h-0.01c-1.58,0.57-3.88-0.83-6.24-2.93c-4.47-3.98-9.07-10.41-9.07-10.41
	c0.04-1.05,0.14-2.06,0.28-3.03c1.44-9.54,7.4-15.51,8.37-18.42c0.9-2.73,10.59-42.38,13.5-54.27c0.34,0.05,0.69,0.08,1.05,0.09
	c5.01,0.21,11.27-4.81,16.44-9.15c6.72,0.03,18.63,0.63,29.42,4.05C423.02,251.57,427.3,253.36,427.3,253.36z"/>
<path fill="#FFFFFF" stroke="#000000" stroke-miterlimit="10" d="M380.8,351.26c-0.66,2.33-1.41,5.12-2.08,7.63v0.01
	c-0.99,3.75-1.8,6.85-1.8,6.85s-0.46-0.14-1.25-0.39c-4.2-1.36-17.7-5.98-20.49-10.18c-2.2-3.3-2.27-10.28-2.07-14.64h0.01
	c0.61-0.23,1.11-0.75,1.46-1.64c1.65-4.23,4.45-11.44,6.6-17c4.61,4.51,11.06,6.48,17.52,7.14c2.46,0.25,4.48,0.18,6.26-0.28
	C382.72,334.9,379.34,345.68,380.8,351.26z"/>
<path fill="#FFFFFF" stroke="#000000" stroke-miterlimit="10" d="M346.87,337.61c-0.5,1.83-1.17,4.3-1.96,7.23c0,0.01,0,0.01,0,0.01
	c-2.78,10.39-7.02,26.48-10.17,39.67c-4.2,17.56-8.55,21.43-9.97,22.25c-0.31,0.18-0.48,0.21-0.48,0.21s-10.1-32.32-6.18-55.01
	c3.92-22.69,8.55-27.8,8.55-27.8h11.42c-0.14,0.97-0.24,1.98-0.28,3.03C337.8,327.2,342.4,333.63,346.87,337.61z"/>
<path fill="#FFFFFF" stroke="#000000" stroke-miterlimit="10" d="M376.09,371.81c0,0-17.7-2.85-21.51-4.75
	c-2.73-1.37-7.31-14.79-9.67-22.21c0,0,0,0,0-0.01c0.79-2.93,1.46-5.4,1.96-7.23c2.36,2.1,4.66,3.5,6.24,2.93
	c-0.2,4.36-0.13,11.34,2.07,14.64c2.79,4.2,16.29,8.82,20.49,10.18L376.09,371.81z"/>
<path fill="#FFFFFF" stroke="#000000" stroke-miterlimit="10" d="M379.42,396.29c-6.3,14.02-14.26,40.87-13.43,51.92
	c-4.29-3.2-15.65-3.94-24.72-3.73c-5.13-11.35-10.45-21.82-10.45-21.82c-1.23-1.05-3.58,0.11-5.56,1.47
	c-0.5-6.17-0.58-12.4-0.49-17.36c1.42-0.82,5.77-4.69,9.97-22.25c3.15-13.19,7.39-29.28,10.17-39.67
	c2.36,7.42,6.94,20.84,9.67,22.21c3.81,1.9,21.51,4.75,21.51,4.75l-0.42-6.45c0.79,0.25,1.25,0.39,1.25,0.39s0.81-3.1,1.8-6.85
	l8.18,9.35C386.9,368.25,385.71,382.27,379.42,396.29z"/>
<path fill="#FFFFFF" stroke="#000000" stroke-miterlimit="10" d="M346.17,486.35c-3.45,6.85-8.15,13.23-11.48,15.83
	c-0.27,0.22-0.53,0.4-0.78,0.56c-1.81,1.16-3.32,1.81-4.55,2.15c-2.8,0.79-4.12-0.01-4.12-0.01s-5.11-24.36-6.18-45.86
	c-1.07-21.51,2.85-32.2,2.85-32.2s1.52-1.44,3.35-2.69c1.98-1.36,4.33-2.52,5.56-1.47c0,0,5.32,10.47,10.45,21.82
	c1.23,2.73,2.45,5.51,3.59,8.21c3.05,7.24,5.47,13.88,5.8,17.38C351.08,474.54,349.06,480.61,346.17,486.35z"/>
<path fill="#FFFFFF" stroke="#000000" stroke-miterlimit="10" d="M365.99,448.21c0,0-2.62,4.01-6.59,7.14
	c-3.19-2.41-9.59-2.79-14.54-2.66c-1.14-2.7-2.36-5.48-3.59-8.21C350.34,444.27,361.7,445.01,365.99,448.21z"/>
<path fill="#FFFFFF" stroke="#000000" stroke-miterlimit="10" d="M387.73,501.08c-4.38,0.86-9.08-2.33-11.34-4.15
	c-0.26-0.21-0.48-0.4-0.67-0.56c-0.45-0.39-0.7-0.64-0.7-0.64s-0.09-8.92,7.36-11.74c0.05,0.07,0.08,0.15,0.12,0.22
	C384.52,485.4,393.79,499.89,387.73,501.08z"/>
<path fill="#FFFFFF" stroke="#000000" stroke-miterlimit="10" d="M375.02,495.73c0,0,0.25,0.25,0.7,0.64
	c-3.86-1.92-7.5-5.25-10.28-8.75c-4.19-5.28-6.44-10.95-4.56-12.77c2.14-2.08,6.33-1.77,8.75-1.36l-0.55,0.38
	c0,0,10.51,4.85,13.3,10.12C374.93,486.81,375.02,495.73,375.02,495.73z"/>
<path fill="#FFFFFF" stroke="#000000" stroke-miterlimit="10" d="M371.81,471.97l-2.17,1.52h-0.01c-2.42-0.41-6.61-0.72-8.75,1.36
	c-1.88,1.82,0.37,7.49,4.56,12.77c-0.39,1.27-1.01,2.53-1.97,2.74c-0.13,0.03-0.33,0.03-0.58,0.01c-2.63-0.18-11.44-2.55-16.72-4.02
	c2.89-5.74,4.91-11.81,4.49-16.28c-0.33-3.5-2.75-10.14-5.8-17.38c4.95-0.13,11.35,0.25,14.54,2.66c0.33,0.25,0.63,0.52,0.89,0.82
	C364.92,461.51,371.81,471.97,371.81,471.97z"/>
<path fill="#FFFFFF" stroke="#000000" stroke-miterlimit="10" d="M360.29,497.93c-0.14,0.12-0.3,0.23-0.46,0.32
	c-4.24,2.66-13.94-0.16-12.23,6.36c-0.17-0.11-0.37-0.22-0.59-0.32c-2.16-1.01-6.44-1.59-9.88-1.91c-0.89-0.08-1.71-0.15-2.44-0.2
	c3.33-2.6,8.03-8.98,11.48-15.83c5.28,1.47,14.09,3.84,16.72,4.02C363.03,492.61,362.74,495.94,360.29,497.93z"/>
<path fill="#FFFFFF" stroke="#000000" stroke-miterlimit="10" d="M356.25,518.6c-3.62,1.55-6.17,1.97-8.19,1.79h-0.01
	c-2.64-0.23-4.39-1.48-6.51-2.59c-3.51-4.24-4.25-12.41-4.41-15.42c3.44,0.32,7.72,0.9,9.88,1.91
	C348.05,507.55,350.88,514.86,356.25,518.6z"/>
<path fill="#FFFFFF" stroke="#000000" stroke-miterlimit="10" d="M369.61,512.28c-0.53,2.22-6.49,8.27-13.34,6.33
	c-0.01-0.01-0.02-0.01-0.02-0.01c-5.37-3.74-8.2-11.05-9.24-14.31c0.22,0.1,0.42,0.21,0.59,0.32c-1.71-6.52,7.99-3.7,12.23-6.36
	c3.35,2.94,8.81,10.24,9.68,13.15C369.62,511.77,369.66,512.07,369.61,512.28z"/>
<path fill="#FFFFFF" stroke="#000000" stroke-miterlimit="10" d="M341.54,517.8c-7.86-0.07-11.05-8.47-12.18-12.91
	c1.23-0.34,2.74-0.99,4.55-2.15c0.25-0.16,0.51-0.34,0.78-0.56c0.73,0.05,1.55,0.12,2.44,0.2
	C337.29,505.39,338.03,513.56,341.54,517.8z"/>
<path fill="#FFFFFF" stroke="#000000" stroke-miterlimit="10" d="M380.84,517.8c0,0.34-1.02,2.93-3.46,4.8
	c-1.44,1.11-3.37,1.97-5.89,1.97c-0.95,0-1.93-0.12-2.91-0.32c-5.88-1.19-11.94-5.38-12.31-5.64c6.85,1.94,12.81-4.11,13.34-6.33
	c0.05-0.21,0.01-0.51-0.1-0.88c2.43,0.67,5.22,2.12,7.43,3.49C379.2,516.28,380.84,517.58,380.84,517.8z"/>
<path fill="#FFFFFF" stroke="#000000" stroke-miterlimit="10" d="M368.58,524.25c-1.71,1.07-4.01,2-6.72,1.84
	c-4.08-0.24-10.23-3.56-13.8-5.7c2.02,0.18,4.57-0.24,8.19-1.79c0,0,0.01,0,0.02,0.01C356.64,518.87,362.7,523.06,368.58,524.25z"/>
<path fill="#FFFFFF" stroke="#000000" stroke-miterlimit="10" d="M377.38,522.6c2.44-1.87,3.46-4.46,3.46-4.8
	c0-0.22-1.64-1.52-3.9-2.91c2.83-0.52,9.75-1.38,11.65,1.93C390.7,520.48,386.74,521.97,377.38,522.6z"/>
<path fill="#FFFFFF" stroke="#000000" stroke-miterlimit="10" d="M480.47,391.95c-2.62-1.25-7.69-4.35-15.27-11.11
	c-26.38-8.08-27.33-15.27-27.33-15.27s-0.35-0.57-0.94-1.51c-1.93-3.1-6.44-10.27-9.63-14.82c-1.71-2.44-4.12-7.73-6.11-15.2
	c-0.08-0.27-0.15-0.54-0.21-0.81l10.71,3.65c0,0,9.23,14.38,37.91,8.85c1.51,3.29,3.64,11.8,5.84,21.76
	C477.17,375.36,478.94,384.14,480.47,391.95z"/>
<path fill="#FFFFFF" stroke="#000000" stroke-miterlimit="10" d="M580.68,373.52c-0.24,0.43-0.71,0.99-1.35,1.63
	c-5.04,5.03-20.75,15.43-20.75,15.43s-0.38,0.58-1.26,1.49c1.84-7.67,3.78-15.78,5.74-23.58c3.41-13.55,6.89-26.15,10.03-33.82
	c0.92,3.69,1.45,7.35,1.41,10.8c2.86-1.94,6.18-2.41,6.18-2.41S580.21,347.1,580.68,373.52z"/>
<path fill="#FFFFFF" stroke="#000000" stroke-miterlimit="10" d="M600.19,263.4c-0.39,18.44-5.74,46.26-9.05,52.57
	c-0.1,0.54-0.21,1.09-0.34,1.61c3.28-17.37-7.08-38.14-11.64-46.19c7.42-13.09,14.94-25.75,17.98-28.97
	c-1.19,2.36-2.5,4.23-2.61,4.39c-0.01,0.01-0.01,0.01-0.01,0.01C598.99,245.16,600.43,252.7,600.19,263.4z"/>
<path fill="#FFFFFF" stroke="#000000" stroke-miterlimit="10" d="M597.83,352.62l-9.9,5.94l-5.5-18.48
	c1.76-3.22,4.53-8.88,6.72-16.11c2.1,1.96,4.76,4.04,7.8,5.52L597.83,352.62z"/>
<path fill="#FFFFFF" stroke="#000000" stroke-miterlimit="10" d="M589.15,323.97c-2.19,7.23-4.96,12.89-6.72,16.11
	c-0.04,0.07-0.08,0.14-0.11,0.2c-1,1.8-1.64,2.78-1.64,2.78s-3.32,0.47-6.18,2.41c0.04-3.45-0.49-7.11-1.41-10.8
	c-0.41-1.66-0.89-3.32-1.44-4.97c-3.21-9.78-8.44-19.19-11.9-24.88c0.64-0.01,0.97-0.02,0.97-0.02s0.92-1.71,2.47-4.57
	c3.26,4.64,8.58,13.14,13.92,25.54c0.48,1.11,0.95,2.24,1.43,3.41c2.43-1.92,4.57-3.77,6.46-5.52c0.69-0.63,1.35-1.26,1.97-1.88
	C587.6,322.46,588.33,323.2,589.15,323.97z"/>
<path fill="#FFFFFF" stroke="#000000" stroke-miterlimit="10" d="M571.65,329.7c-6.92,6-17.64,17.03-21.15,20.01
	c-4.75,4.04-26.85,4.52-40.96,2.38c-11.34-1.72-28.04-14.17-34.15-18.99c6.67-10.84,17.15-24.44,21.96-30.54
	c0.51,0.74,1.02,1.49,1.53,2.24c29.14,0.63,55.56,0.14,60.87,0.02C563.21,310.51,568.44,319.92,571.65,329.7z"/>
<path fill="#FFFFFF" stroke="#000000" stroke-miterlimit="10" d="M573.09,334.67c-3.14,7.67-6.62,20.27-10.03,33.82
	c-3.96,2.38-10.93,6.64-13.74,8.79c-4.04,3.09-28.99,2.85-42.3,2.85c-8.96,0-23.09-7.65-31.58-12.64
	c-2.2-9.96-4.33-18.47-5.84-21.76c-0.04-0.09-0.08-0.18-0.12-0.26c0.49-2.83,2.78-7.3,5.91-12.37c6.11,4.82,22.81,17.27,34.15,18.99
	c14.11,2.14,36.21,1.66,40.96-2.38c3.51-2.98,14.23-14.01,21.15-20.01C572.2,331.35,572.68,333.01,573.09,334.67z"/>
<path fill="#FFFFFF" stroke="#000000" stroke-miterlimit="10" d="M563.06,368.49c-1.96,7.8-3.9,15.91-5.74,23.58
	c-3,3.06-11.76,9.88-31.53,11.35c-25.66,1.9-42.53-10.7-43.25-10.7c-0.22,0-0.91-0.2-2.07-0.77c-1.53-7.81-3.3-16.59-5.03-24.46
	c8.49,4.99,22.62,12.64,31.58,12.64c13.31,0,38.26,0.24,42.3-2.85C552.13,375.13,559.1,370.87,563.06,368.49z"/>
<path fill="#FFFFFF" stroke="#000000" stroke-miterlimit="10" d="M483.27,284c-6.86,6.04-21.95,20.86-29.67,40.41l-12.88-7.27
	c11.77-23.08,25.23-38.03,32.15-44.86C476.29,275.89,479.77,279.79,483.27,284z"/>
<path fill="#FFFFFF" stroke="#000000" stroke-miterlimit="10" d="M495.96,300.59c-15.01,9.73-29.81,30.91-29.81,30.91l-12.55-7.09
	c7.72-19.55,22.81-34.37,29.67-40.41C487.49,289.07,491.75,294.59,495.96,300.59z"/>
<path fill="#FFFFFF" stroke="#000000" stroke-miterlimit="10" d="M585,323.66c-1.89,1.75-4.03,3.6-6.46,5.52
	c-0.48-1.17-0.95-2.3-1.43-3.41c-5.34-12.4-10.66-20.9-13.92-25.54c2.1-3.86,5.35-9.82,9.04-16.49
	C574.96,290.84,582.24,310.36,585,323.66z"/>
<path fill="#FFFFFF" stroke="#000000" stroke-miterlimit="10" d="M590.8,317.58c-0.02,0.09-0.03,0.18-0.05,0.27
	c-1.09,1.22-2.35,2.54-3.78,3.93c-0.62,0.62-1.28,1.25-1.97,1.88c-2.76-13.3-10.04-32.82-12.77-39.92c2.2-3.97,4.56-8.18,6.93-12.35
	C583.72,279.44,594.08,300.21,590.8,317.58z"/>
<path fill="#FFFFFF" stroke="#000000" stroke-miterlimit="10" d="M417.59,304.09c-0.11,11.48,1.4,21.42,3.39,29.14l-0.6-0.21
	c-6.15-8.04-10.85-22.45-13.4-31.63c11.77-18.79,13.89-33.02,14.12-34.78v-0.01c0.01-0.11,0.02-0.17,0.02-0.17l6.18-13.07
	c0,0-4.28-1.79-20.44-6.89c-10.79-3.42-22.7-4.02-29.42-4.05c3.9-3.28,7.18-6.17,8.87-6.17c3.92,0,24.95,6.41,24.95,6.41l4.54-6.48
	c1.34,0.57,2.11,0.9,2.11,0.9s3.34,0.26,6.46-2.86c2.58,1.31,7.09,3.79,12.94,7.69c-7.76,13.37-16.79,31.88-18.81,48.4
	C417.91,295.1,417.63,299.71,417.59,304.09z"/>
<path fill="#FFFFFF" stroke="#000000" stroke-miterlimit="10" d="M557.32,392.07c-3.71,15.43-7.01,29.07-9.27,34.72v0.01
	c-0.58,1.01-1.04,1.87-1.35,2.52c-4.75,4.75-35.88,7.84-46.79,2.61c-10.28-4.93-14.7-16.06-15.18-17.34v-0.01
	c-0.03-0.07-0.04-0.11-0.04-0.11s-1.79-10.03-4.22-22.52c1.16,0.57,1.85,0.77,2.07,0.77c0.72,0,17.59,12.6,43.25,10.7
	C545.56,401.95,554.32,395.13,557.32,392.07z"/>
<path fill="#FFFFFF" stroke="#000000" stroke-miterlimit="10" d="M484.73,414.58c-2.61-2.37-6.61-4.6-11.19-6.61
	c-14.56-6.42-34.96-10.73-34.96-10.73c-0.45-1.11-0.84-2.24-1.18-3.39c-3.36-11.49-1.45-24.65-0.47-29.79
	c0.59,0.94,0.94,1.51,0.94,1.51s0.95,7.19,27.33,15.27c7.58,6.76,12.65,9.86,15.27,11.11c2.43,12.49,4.22,22.52,4.22,22.52
	S484.7,414.51,484.73,414.58z"/>
<path fill="#FFFFFF" stroke="#000000" stroke-miterlimit="10" d="M580.68,398.66c0,0-0.1,0.05-0.28,0.14
	c-0.98,0.51-4.4,2.27-8.2,4.35c-3.82,2.09-8.03,4.51-10.53,6.3c-4.56,3.25-10.64,12.18-13.62,17.34c2.26-5.65,5.56-19.29,9.27-34.72
	c0.88-0.91,1.26-1.49,1.26-1.49s15.71-10.4,20.75-15.43C580.11,379.34,581.15,387.28,580.68,398.66z"/>
<path fill="#FFFFFF" stroke="#000000" stroke-miterlimit="10" d="M495.14,451.97l-0.88,7.04c-9.47-8.04-20.15-10.71-30.05-10.78
	c-8.8-33.7-25.18-43.62-33.52-46.52c3.67-5.05,6.52-7.68,6.71-7.86c0.34,1.15,0.73,2.28,1.18,3.39c0,0,20.4,4.31,34.96,10.73
	l1.16,14.46L495.14,451.97z"/>
<path fill="#FFFFFF" stroke="#000000" stroke-miterlimit="10" d="M439.5,451.4c-7.2,3.49-14.09,10.91-18.26,16.17
	c-0.88,1.11-1.63,3.01-2.28,5.43v0.01l-4.62,5.32c-0.51-6.59-0.84-14.26-0.64-22.03c8.31-1.39,12.4-22.22,9.68-25.56
	C423.38,430.74,432.87,435.16,439.5,451.4z"/>
<path fill="#FFFFFF" stroke="#000000" stroke-miterlimit="10" d="M598.01,448.18l-17.21-4.84c0,0-10.21,4.33-21.98,13.96v-11.62
	l13.55-27.69c0,0-0.33-7.73-0.17-14.84c3.8-2.08,7.22-3.84,8.2-4.35C584.15,405.46,593.48,423.75,598.01,448.18z"/>
<path fill="#FFFFFF" stroke="#000000" stroke-miterlimit="10" d="M464.21,448.23c-3.34-0.02-6.59,0.25-9.67,0.72
	c-7.69-22.2-22.79-31.58-31.11-35.19c-1.46-0.64-2.72-1.09-3.68-1.41c3.12-7.26,5.77-11.84,5.77-11.84s2.01,0.09,5.17,1.2
	C439.03,404.61,455.41,414.53,464.21,448.23z"/>
<path fill="#FFFFFF" stroke="#000000" stroke-miterlimit="10" d="M454.54,448.95c-1.74,0.26-3.41,0.58-5.03,0.95h-0.01
	c-1.21-0.35-2.33-0.51-3.31-0.44c-2.21,0.15-4.47,0.86-6.69,1.94c-6.63-16.24-16.12-20.66-16.12-20.66
	c-1.14-1.41-3.07-2.89-5.23-3.91c-1.08-0.51-2.22-0.9-3.35-1.09c1.57-5.02,3.32-9.58,4.95-13.39c0.96,0.32,2.22,0.77,3.68,1.41
	C431.75,417.37,446.85,426.75,454.54,448.95z"/>
<path fill="#FFFFFF" stroke="#000000" stroke-miterlimit="10" d="M506.31,513.61c-0.52,0.02-1.83,0.58-3.73,1.01
	c-3.89,0.89-10.25,1.22-17.45-4.89c-1.53-12.62-3.69-30.83-5.44-34.79c-2.34-5.31-19.82-22.05-30.18-25.04
	c1.62-0.37,3.29-0.69,5.03-0.95c3.08-0.47,6.33-0.74,9.67-0.72c9.9,0.07,20.58,2.74,30.05,10.78c1.6,1.35,3.16,2.85,4.68,4.52
	C517.95,484.45,508.21,513.55,506.31,513.61z"/>
<path fill="#FFFFFF" stroke="#000000" stroke-miterlimit="10" d="M413.7,456.3c-1.13,0.19-2.35,0.02-3.63-0.61
	c-0.27-10.43,1.92-20.95,4.73-29.95c1.13,0.19,2.27,0.58,3.35,1.09c2.16,1.02,4.09,2.5,5.23,3.91
	C426.1,434.08,422.01,454.91,413.7,456.3z"/>
<path fill="#FFFFFF" stroke="#000000" stroke-miterlimit="10" d="M486.82,521.99c-0.32-1.03-0.92-5.94-1.69-12.26
	c-1.53-12.62-3.69-30.83-5.44-34.79c-2.34-5.31-19.82-22.05-30.18-25.04h-0.01c-1.21-0.35-2.33-0.51-3.31-0.44
	c-2.21,0.15-4.47,0.86-6.69,1.94c-7.2,3.49-14.09,10.91-18.26,16.17c-0.88,1.11-1.63,3.01-2.28,5.43v0.01
	c-1.47,5.48-2.4,13.61-2.98,21.07c0,0.01,0,0.01,0,0.02c-0.76,9.77-0.92,18.39-0.92,18.39c-0.1,25.12-12.83,37.06-14.02,36.59
	c-1.19-0.48-6.18,54.18-5.47,65.82c0.72,11.64-3.8,50.61-3.8,50.61l16.87-41.34l28.52,6.89c0,0-5.23,41.58-4.52,41.11
	c0.16-0.11,0.7-0.79,1.46-1.85c1.22-1.69,3.01-4.34,4.75-7.13c3.51-13.13,13.4-40.27,19.22-53.52
	c6.89-15.68,28.73-83.56,28.73-83.56C486.98,524.02,487,522.58,486.82,521.99z M465.91,552.88c-6.65,16.16-3.69,21.15-3.69,21.15
	s-9.38,18.53-22.86,33.5c-0.41-16.63-18.36-12.35-23.59-7.36c-11.88-23.29-0.71-66.06,4.04-77.11s7.61-52.87,7.61-52.87
	s4.27-3.09,8.07-5.7c3.8-2.62,7.37-4.28,24.48,6.89c17.11,11.16,19.96,23.76,19.96,23.76S472.56,536.72,465.91,552.88z"/>
<path fill="#FFFFFF" stroke="#000000" stroke-miterlimit="10" d="M486.8,526.11c-0.8,8.86-4.67,29.29-9.48,45.07
	c-5.94,19.48-31.37,77.7-33.75,83.4c-0.96,2.31-2.81,5.54-4.72,8.61c3.51-13.13,13.4-40.27,19.22-53.52
	C464.96,593.99,486.8,526.11,486.8,526.11z"/>
<path fill="#FFFFFF" stroke="#000000" stroke-miterlimit="10" d="M434.1,670.32l-2.75,13.67l-0.16,0.75v0.01l-1.74,8.68
	c-6.52,7.8-20.33,23.89-20.33,23.89s-13.47-1.66-21.83-3.43c-0.59-0.13-1.16-0.25-1.7-0.38c-2.73-2.57-4.13-8.71-4.79-15.72
	c2.88-3.76,5.68-7.71,6.7-9.94c-0.65-5-0.55-10.94-0.17-16.33c0.33-4.84,0.88-9.22,1.28-12.09v-0.01l-3.02-7.21
	c0,0,5.94-82.22,6.18-87.21s4.99-18.3,4.99-18.3l7.13-56.32l10.45-12.04v-0.01l4.62-5.32c-1.47,5.48-2.4,13.61-2.98,21.07
	c0,0.01,0,0.01,0,0.02c-0.76,9.77-0.92,18.39-0.92,18.39c-0.1,25.12-12.83,37.06-14.02,36.59c-1.19-0.48-6.18,54.18-5.47,65.82
	c0.72,11.64-3.8,50.61-3.8,50.61l16.87-41.34l28.52,6.89c0,0-5.23,41.58-4.52,41.11C432.8,672.06,433.34,671.38,434.1,670.32z"/>
<path fill="#FFFFFF" stroke="#000000" stroke-miterlimit="10" d="M387.5,687.85c-1.02,2.23-3.82,6.18-6.7,9.94
	c-1.29-13.75,0.27-30.85,0.27-30.85l6.26,4.58C386.95,676.91,386.85,682.85,387.5,687.85z"/>
<path fill="#FFFFFF" stroke="#000000" stroke-miterlimit="10" d="M378.41,837.52c-5.04-1.18-10.09-1.31-13.49,1.22
	c-3.43,7.02-10.33,17.41-14.99,24.16c3.79-10.66,9.9-28.89,11.19-38.89c1.9-14.73-4.52-67.25,0.24-103.13
	c4.75-35.88,19.71-53.94,19.71-53.94s-1.56,17.1-0.27,30.85c0.66,7.01,2.06,13.15,4.79,15.72c0.54,0.13,1.11,0.25,1.7,0.38
	C381.72,730.28,366.74,789.08,378.41,837.52z"/>
<path fill="#FFFFFF" stroke="#000000" stroke-miterlimit="10" d="M434.78,705.02c-0.83,21.39-3.5,39.21-8.49,53.11
	c-4.99,13.9-13.01,21.21-15.51,26.02c-2.18,4.22-14.97,55.45-10.07,88.19c0.03,0.21-0.59,3.09-0.89,3.5
	c-0.1,0.14,0.36-0.05,0.19-0.64v-0.01c-3.62-12.8-4.2-30.51-4.2-30.51s-8.68-5.15-17.4-7.16c-11.67-48.44,3.31-107.24,8.88-123.63
	c8.36,1.77,21.83,3.43,21.83,3.43s13.81-16.09,20.33-23.89c1.63-1.96,2.81-3.39,3.19-3.92c0.32-0.43,0.44-0.93,0.43-1.47
	C434.24,691.13,435.12,696.32,434.78,705.02z"/>
<path fill="#FFFFFF" stroke="#000000" stroke-miterlimit="10" d="M400.01,875.19v0.01c-0.18,0.57-0.37,1.24-0.56,1.97
	c-3.71-4.95-9.53-10.1-18.38-13c-8.58-2.82-19.74,0.64-26.94,3.65c-0.31,0.13-0.62,0.26-0.92,0.39c-3.7,1.6-6.16,2.98-6.34,3.08
	c0.05-0.15,1.31-3.47,3.06-8.39c4.66-6.75,11.56-17.14,14.99-24.16c3.4-2.53,8.45-2.4,13.49-1.22c8.72,2.01,17.4,7.16,17.4,7.16
	S396.39,862.39,400.01,875.19z"/>
<path fill="#FFFFFF" stroke="#000000" stroke-miterlimit="10" d="M399.45,877.17c-0.98,3.69-2.09,8.99-2.7,12
	c-7.11-1.84-24.54-1.22-33.14,1.31c-1.7,0.5-3.06,1.08-3.92,1.73c1.97-6.48-3.74-18.63-5.78-22.66c0.08-0.65,0.16-1.23,0.22-1.73
	c7.2-3.01,18.36-6.47,26.94-3.65C389.92,867.07,395.74,872.22,399.45,877.17z"/>
<path fill="#FFFFFF" stroke="#000000" stroke-miterlimit="10" d="M371.4,909.79c-1.44,6.3-4.18,16.57-7.4,20.84
	c-4.02-2.05-14.1-7.91-14.29-15.13c-0.19-7.5,2.87-35.41,4.2-45.95c2.04,4.03,7.75,16.18,5.78,22.66c0.86-0.65,2.22-1.23,3.92-1.73
	l7.49,19.31H371.4z"/>
<path fill="#FFFFFF" stroke="#000000" stroke-miterlimit="10" d="M409.36,931.42c-4.76,6.65-43.73,0-43.73,0s-0.63-0.27-1.63-0.79
	c3.22-4.27,5.96-14.54,7.4-20.84h40.32C412.04,918.44,411.77,928.04,409.36,931.42z"/>
<path fill="#FFFFFF" stroke="#000000" stroke-miterlimit="10" d="M411.72,909.79H371.1l-7.49-19.31c8.6-2.53,26.03-3.15,33.14-1.31
	c-0.29,1.42-0.46,2.33-0.46,2.33l14.25,2.37C410.54,893.87,411.41,901.38,411.72,909.79z"/>
<path fill="#FFFFFF" stroke="#000000" stroke-miterlimit="10" d="M479.93,495.14c0,0-2.85-12.6-19.96-23.76
	c-17.11-11.17-20.68-9.51-24.48-6.89c-3.8,2.61-8.07,5.7-8.07,5.7s-2.86,41.82-7.61,52.87s-15.92,53.82-4.04,77.11
	c5.23-4.99,23.18-9.27,23.59,7.36c13.48-14.97,22.86-33.5,22.86-33.5s-2.96-4.99,3.69-21.15
	C472.56,536.72,479.93,495.14,479.93,495.14z M451.89,569.04c-4.04,7.13-11.4,7.13-21.39,0c-9.98-7.13,3.09-76.04,3.09-76.04
	s4.28-4.99,9.75-5.7c5.46-0.72,9.26,3.32,14.73,6.6c5.46,3.27,14.97,20.6,14.97,20.6S455.93,561.91,451.89,569.04z"/>
<path fill="#FFFFFF" stroke="#000000" stroke-miterlimit="10" d="M473.04,514.5c0,0-17.11,47.41-21.15,54.54
	c-4.04,7.13-11.4,7.13-21.39,0c-9.98-7.13,3.09-76.04,3.09-76.04s4.28-4.99,9.75-5.7c5.46-0.72,9.26,3.32,14.73,6.6
	C463.53,497.17,473.04,514.5,473.04,514.5z"/>
<path fill="#FFFFFF" stroke="#000000" stroke-miterlimit="10" d="M572.37,417.99l-13.55,27.69v11.62c-0.86,0.7-1.73,1.44-2.61,2.2
	c-12.83,11.16-19.01,43.72-29.94,55c-3.3,0.77-6.49,1.16-9.49,1.29c-0.01,0-0.01,0-0.01,0c-2.7,0.12-5.25,0.03-7.58-0.19
	c-2.47-0.22-4.69-0.58-6.61-0.98c1.9-0.43,3.21-0.99,3.73-1.01c1.9-0.06,11.64-29.16-7.37-50.08c-1.52-1.67-3.08-3.17-4.68-4.52
	l0.88-7.04l-20.44-29.54l-1.16-14.46c4.58,2.01,8.58,4.24,11.19,6.61v0.01c0.48,1.28,4.9,12.41,15.18,17.34
	c10.91,5.23,42.04,2.14,46.79-2.61c0.39-0.39,0.85-1.26,1.35-2.52v-0.01c2.98-5.16,9.06-14.09,13.62-17.34
	c2.5-1.79,6.71-4.21,10.53-6.3C572.04,410.26,572.37,417.99,572.37,417.99z"/>
<path fill="#FFFFFF" stroke="#000000" stroke-miterlimit="10" d="M550.59,631.29c-0.86-2.67-7.29-17.4-20.05-44.96
	c-12.1-26.15-19.97-63.86-21.35-70.73c2.33,0.22,4.88,0.31,7.58,0.19L550.59,631.29z"/>
<path fill="#FFFFFF" stroke="#000000" stroke-miterlimit="10" d="M567.08,475.12L553,500.96c0,0,10.51,44.2,10.69,50.97
	s-8.19,21.03-8.19,21.03s9.62,38.32,11.22,51.86c1.61,13.55,2.32,33.86,2.32,33.86l1.41,0.9c-0.68,4.38-3.38,19.36-9.69,30.66
	c-8.33-10.05-12.04-20.51-12.04-20.51s0.07-1.17,0.19-3.11c0.56-8.86,2.07-33.71,1.77-35.03l-0.08-0.27
	c-4.15-15.55-29.21-100.02-33.82-115.53c3-0.13,6.19-0.52,9.49-1.29c10.93-11.28,17.11-43.84,29.94-55c0.88-0.76,1.75-1.5,2.61-2.2
	c11.77-9.63,21.98-13.96,21.98-13.96l17.21,4.84c0.05,0.26,0.1,0.52,0.14,0.79l-3.98-0.23L567.08,475.12z"/>
<path fill="#FFFFFF" stroke="#000000" stroke-miterlimit="10" d="M550.6,631.32l-0.01-0.03l-33.82-115.5c0,0,0,0,0.01,0
	C521.39,531.3,546.45,615.77,550.6,631.32z"/>
<path fill="#FFFFFF" stroke="#000000" stroke-miterlimit="10" d="M614.5,618.49c-6.53-5.56-29.42,5.08-29.42,5.08l-10.87,35.63
	l-0.71,2.33l-3.05-1.95l-1.41-0.9c0,0-0.71-20.31-2.32-33.86c-1.6-13.54-11.22-51.86-11.22-51.86s8.37-14.26,8.19-21.03
	S553,500.96,553,500.96l14.08-25.84l27.09-26.38l3.98,0.23l3.33,0.19h0.02l1.04,0.3c1.94,2.37,4.48,12.78,7,26.26l-9.32-9.16
	c0,0-23.81,14.38-27.85,17.89c-4.04,3.5-13.55,16.51-13.55,16.51s9.68,37.6,11.65,50.26c1.96,12.65,0.35,26.73,3.2,32.79
	c2.85,6.06,13.37,19.96,13.37,19.96s12.12-17.24,20.49-6.5c6.58-16.13,9.23-48.67,9.09-62.83c-0.14-14.15-7.66-41.64-7.66-41.64
	l0.58-17.27c4.9,26.18,9.76,63.92,10.11,76.74C620.11,568.95,617.74,596.73,614.5,618.49z"/>
<path fill="#FFFFFF" stroke="#000000" stroke-miterlimit="10" d="M614.5,618.49c-0.57,3.88-1.18,7.57-1.8,10.97
	c-2.11,11.53-4.21,28.74-5.76,42.76v0.01c-12.58,8.37-25.1,3.22-27.88,1.88c0.75-1.86,1.21-3.15,1.21-3.49
	c0-1.78-6.06-11.42-6.06-11.42l10.87-35.63C585.08,623.57,607.97,612.93,614.5,618.49z"/>
<path fill="#FFFFFF" stroke="#000000" stroke-miterlimit="10" d="M606.94,672.23c-1.23,11.11-2.11,20.22-2.37,22.9
	c-0.04,0.52-0.07,0.8-0.07,0.8s-11.13,8.7-20.71,9.29c-1.72,0.11-3.4-0.04-4.95-0.56c-3.83-1.77-7.25-4.04-10.3-6.57
	c2.52-5.55,8.06-17.87,10.52-23.98C581.84,675.45,594.36,680.6,606.94,672.23z"/>
<path fill="#FFFFFF" stroke="#000000" stroke-miterlimit="10" d="M580.27,670.62c0,0.34-0.46,1.63-1.21,3.49
	c-2.46,6.11-8,18.43-10.52,23.98c-2.94-2.44-5.53-5.13-7.78-7.85c6.31-11.3,9.01-26.28,9.69-30.66l3.05,1.95l0.71-2.33
	C574.21,659.2,580.27,668.84,580.27,670.62z"/>
<path fill="#FFFFFF" stroke="#000000" stroke-miterlimit="10" d="M607.53,597.47c-8.37-10.74-20.49,6.5-20.49,6.5
	s-10.52-13.9-13.37-19.96c-2.85-6.06-1.24-20.14-3.2-32.79c-1.97-12.66-11.65-50.26-11.65-50.26s9.51-13.01,13.55-16.51
	c4.04-3.51,27.85-17.89,27.85-17.89l9.32,9.16v0.01L608.96,493c0,0,7.52,27.49,7.66,41.64C616.76,548.8,614.11,581.34,607.53,597.47
	z"/>
<path fill="#FFFFFF" stroke="#000000" stroke-miterlimit="10" d="M573.11,821.34c-2.35,0.47-3.83,0.77-3.83,0.77
	s1.93,22.2-2.2,28.69c0,0-1.25,4.28-9.8,12.66c-2.16-0.76-7.32-10.6-10.09-16.17c-1.12-2.24-1.85-3.79-1.85-3.79s0-41.71,1.42-56.86
	c1.43-15.14-11.58-45.98-15.15-65.05c-3.56-19.07,2.5-48.83,5.71-52.75c2.26-2.77,8.26-2.57,11.59-2.22
	c-0.12,1.94-0.19,3.11-0.19,3.11s3.71,10.46,12.04,20.51c2.25,2.72,4.84,5.41,7.78,7.85c3.05,2.53,6.47,4.8,10.3,6.57
	c1.55,0.52,3.23,0.67,4.95,0.56L573.11,821.34z"/>
<path fill="#FFFFFF" stroke="#000000" stroke-miterlimit="10" d="M601.32,815.8c-5.45,1.02-20.96,4.1-28.21,5.54l10.68-116.12
	c9.58-0.59,20.71-9.29,20.71-9.29s0.03-0.28,0.07-0.8c1.42,3.54,3.29,8.39,4.57,12.44C611.39,714.73,601.88,810.24,601.32,815.8z"/>
<path fill="#FFFFFF" stroke="#000000" stroke-miterlimit="10" d="M615.55,852.76c0,0.67-2.69-1.71-5.17-4.05
	c-0.01,0-0.01,0-0.01-0.01c-2.12-2-4.08-3.96-4.08-3.96l-39.21,6.06c4.13-6.49,2.2-28.69,2.2-28.69s1.48-0.3,3.83-0.77
	c7.25-1.44,22.76-4.52,28.21-5.54c-0.01,0.16-0.02,0.25-0.02,0.25l5.34,18.53C606.64,834.58,615.55,851.51,615.55,852.76z"/>
<path fill="#FFFFFF" stroke="#000000" stroke-miterlimit="10" d="M638.19,893.4c0,0-6.66,3.8-15.69,6.18
	c-9.02,2.38-33.26,2.61-39.44-0.01c-14.73,0.24-17.11-10.93-18.06-14.73c-1.15,0.3-2.36,0.3-3.6,0.06c-0.1-5.3,1.3-14.73,5.86-17.61
	c6.06-3.83,20.55-3.83,27.68-5.02c5.23-0.87,15.2-3.66,20.13-5.09c0.01,0,0.01,0,0.01,0c0.3,0.52,0.47,0.81,0.47,0.81
	s5.05-0.48,7.67,0.71c2.61,1.19,14.02,13.55,14.97,17.82C639.14,880.8,638.19,893.4,638.19,893.4z"/>
<path fill="#FFFFFF" stroke="#000000" stroke-miterlimit="10" d="M615.07,857.18c-4.93,1.43-14.9,4.22-20.13,5.09
	c-7.13,1.19-21.62,1.19-27.68,5.02c-4.56,2.88-5.96,12.31-5.86,17.61c-7.44-1.37-15.65-10.99-15.65-10.99l1.44-26.62
	c2.77,5.57,7.93,15.41,10.09,16.17c8.55-8.38,9.8-12.66,9.8-12.66l39.21-6.06c0,0,1.96,1.96,4.08,3.96c0,0.01,0,0.01,0.01,0.01
	C612.4,852.52,614.24,855.74,615.07,857.18z"/>
<path fill="#FFFFFF" stroke="#000000" stroke-miterlimit="10" d="M593.46,230.6l-6.91-6.95l-1.29-7.48c0,0-13.01-11.23-23.8-14.91
	c-9.05-3.08-17.46-6.59-25.64-7.74c-3.25,2.99-6.82,4.57-6.82,4.57s-32.44,4.77-40.51-1.17c-1.29-0.95-2.48-2.12-3.59-3.43
	c-14.67,1.49-31.19,6.62-42.28,10.59l6.66,19.22c0,0-5.55,7.55-11.97,18.61c9.28,6.19,21.93,15.97,35.56,30.37
	c3.42,3.61,6.9,7.51,10.4,11.72c4.22,5.07,8.48,10.59,12.69,16.59c0.47,0.65,0.93,1.31,1.39,1.97c0.51,0.74,1.02,1.49,1.53,2.24
	c29.14,0.63,55.56,0.14,60.87,0.02c0.64-0.01,0.97-0.02,0.97-0.02s0.92-1.71,2.47-4.57c2.1-3.86,5.35-9.82,9.04-16.49
	c2.2-3.97,4.56-8.18,6.93-12.35c7.42-13.09,14.94-25.75,17.98-28.97c1.1-2.17,2.1-4.75,2.02-6.83
	C598.98,231.14,593.46,230.6,593.46,230.6z M533.48,269.08l-27.32-36.76c0.87-0.52,45.68,0,45.68,0L533.48,269.08z"/>
<path fill="#FFFFFF" stroke="#000000" stroke-miterlimit="10" d="M475.39,333.1c-3.13,5.07-5.42,9.54-5.91,12.37
	c0.04,0.08,0.08,0.17,0.12,0.26c-28.68,5.53-37.91-8.85-37.91-8.85l-10.71-3.65c-1.99-7.72-3.5-17.66-3.39-29.14l23.13,13.05
	l12.88,7.27l12.55,7.09c0,0,14.8-21.18,29.81-30.91c0.47,0.65,0.93,1.31,1.39,1.97C492.54,308.66,482.06,322.26,475.39,333.1z"/>
<path fill="#FFFFFF" stroke="#000000" stroke-miterlimit="10" d="M472.87,272.28c-6.92,6.83-20.38,21.78-32.15,44.86l-23.13-13.05
	c0.04-4.38,0.32-8.99,0.91-13.78c2.02-16.52,11.05-35.03,18.81-48.4C446.59,248.1,459.24,257.88,472.87,272.28z"/>
<path fill="#FFFFFF" stroke="#000000" stroke-miterlimit="10" d="M449.28,223.3c0,0-5.55,7.55-11.97,18.61
	c-5.85-3.9-10.36-6.38-12.94-7.69c0.55-0.56,1.1-1.22,1.62-2.01c4.16-4.52,9.03-7.49,10.93-11.17c1.23-2.39-0.09-8.9-1.69-14.2
	c2.01-0.79,4.52-1.74,7.39-2.76L449.28,223.3z"/>
<path fill="#FFFFFF" stroke="#000000" stroke-miterlimit="10" d="M506.16,232.32l27.32,36.76l18.36-36.76
	C551.84,232.32,507.03,231.8,506.16,232.32z M532.4,258.73l-14.22-22.03l25.87,0.22L532.4,258.73z"/>
<polygon fill="#FFFFFF" stroke="#000000" stroke-miterlimit="10" points="544.05,236.92 532.4,258.73 518.18,236.7 "/>
<path fill="#FFFFFF" stroke="#000000" stroke-miterlimit="10" d="M491.93,117.08l-1.31,2.49c0,0-2.85,1.31-9.14,1.79
	c-6.3,0.47-12.24-5.23-12.24-5.23l3.21-4.52C476.37,114.58,491.93,117.08,491.93,117.08z"/>
<path fill="#FFFFFF" stroke="#000000" stroke-miterlimit="10" d="M529.95,115.05c0,0-4.28,3.69-6.18,4.88
	c-1.9,1.19-12.95,0.71-12.95,0.71l-0.59-4.14c10.22-0.46,17.7-6.07,17.7-6.07L529.95,115.05z"/>
<path fill="#FFFFFF" stroke="#000000" stroke-miterlimit="10" d="M540.35,187.12c-0.93,2.57-2.68,4.71-4.53,6.4
	c-3.25,2.99-6.82,4.57-6.82,4.57s-32.44,4.77-40.51-1.17c-1.29-0.95-2.48-2.12-3.59-3.43c-3.35-4-5.81-9.23-7.28-12.92
	c3.59,4.51,7.45,8.71,11.6,12.58c0.85,0.8,1.71,1.58,2.59,2.35h33.15c0,0,12.04-10.22,10.12-18.06c-1.31-5.34-4.81-12.98-6.92-17.31
	v-0.01c0.07-0.39,0.12-0.77,0.16-1.15l0.01-0.01c0.63-0.95,1.21-1.87,1.74-2.74c1.38,0.46,3.57,1.2,6.3,2.17
	C541.25,166.16,540.35,187.12,540.35,187.12z"/>
<path fill="#FFFFFF" stroke="#000000" stroke-miterlimit="10" d="M586.05,207.76L586.05,207.76c0,2.3-0.15,5.38-0.79,8.41
	c0,0-13.01-11.23-23.8-14.91c-9.05-3.08-17.46-6.59-25.64-7.74c1.85-1.69,3.6-3.83,4.53-6.4L586.05,207.76z"/>
</svg>
