<?xml version="1.0" encoding="utf-8"?>
<!-- Generator: Adobe Illustrator 25.2.0, SVG Export Plug-In . SVG Version: 6.00 Build 0)  -->
<svg version="1.1" id="Layer_1" xmlns="http://www.w3.org/2000/svg" xmlns:xlink="http://www.w3.org/1999/xlink" x="0px" y="0px"
	 viewBox="0 0 1000 1000" style="enable-background:new 0 0 1000 1000;" xml:space="preserve">
<style type="text/css">
	.st0{fill:#FFFFFF;stroke:#231F20;stroke-miterlimit:10;}
</style>
<path class="st0" d="M950,724.7c-23.5-19.3-97.3-21.4-131.5-21.4c-26.1,0-45.5,2.5-77.9,0.8c-17,13.9-37.5,25.5-61.9,33.8
	c-8.5,2.9-16.5,5.2-24.1,7.2c-0.1,0-0.2,0.1-0.2,0.2c-45.5,11.8-75.1,8.4-94.3,0.1c17-6.5,35.4-18.2,54-37.4l1.7,1.7
	c2.1-1.9,6.7-5.6,12.7-10.9c-1.9,0-4,0.1-6.2,0.1c-2.7,3.2-5.5,6.2-8.2,8.9c-18.6,19.3-37,30.9-54,37.4c-0.2-0.1-0.4-0.2-0.5-0.2
	c1.4-1.1,2.8-2.2,4.2-3.4c0.6-0.5,1.2-1,1.8-1.5c1.9-1.6,3.8-3.2,5.6-4.9c0.3-0.3,0.7-0.6,1-0.9c0.7-0.7,1.5-1.4,2.2-2l3.6-3.6
	c1-1,2-2.1,3-3.1c0.6-0.6,1.1-1.2,1.7-1.8c1.4-1.5,2.7-3,4-4.5c0.6-0.7,1.2-1.4,1.7-2.1c0.4-0.5,0.9-1.1,1.3-1.6
	c3.3-4.2,6.3-8.4,8.9-12.6c0.2-0.4,0.4-0.7,0.6-1.1c0.6-1,1.2-1.9,1.7-2.9c0,0,0,0,0,0c-8.9,15.5-22.2,31-41.4,46
	c-0.4,0.3-0.8,0.6-1.1,0.9c-22.1,8.1-41.6,7.7-55.7,4.6c-51.3,10-83.4,3.8-83.4,3.8s-2.1,2.6-6.9,4.5c0,0,0,0,0-0.1
	c-0.2-0.6-0.5-1.1-0.7-1.6c-0.2-0.3-0.4-0.6-0.6-0.9c-0.1-0.1-0.2-0.3-0.3-0.4c-0.1-0.1-0.2-0.3-0.3-0.4s-0.2-0.2-0.3-0.4
	c-0.1-0.1-0.2-0.2-0.4-0.3c-0.1-0.1-0.2-0.2-0.3-0.3c0,0-0.1-0.1-0.1-0.1c-0.2-0.2-0.4-0.3-0.6-0.5c-0.5-0.4-1.1-0.7-1.6-1
	c-0.2-0.1-0.4-0.2-0.7-0.3c-0.1,0-0.1-0.1-0.2-0.1c-0.1-0.1-0.3-0.1-0.4-0.2c-0.2-0.1-0.4-0.1-0.5-0.2c-0.3-0.1-0.5-0.2-0.8-0.2
	s-0.5-0.1-0.7-0.2c-0.2,0-0.4-0.1-0.6-0.1c0,0,0,0,0,0c0.2,0,0.5,0.1,0.8,0.2c0.2,0.1,0.5,0.1,0.7,0.2c0.5,0.1,1,0.3,1.4,0.5
	c0.2,0.1,0.4,0.2,0.6,0.2c0.1,0,0.1,0.1,0.2,0.1c0.5,0.2,0.9,0.5,1.4,0.8c0.4,0.2,0.7,0.5,1,0.8c0.1,0.1,0.2,0.2,0.3,0.3
	c0.1,0.1,0.2,0.2,0.3,0.3c0.4,0.4,0.8,0.9,1.1,1.3c0.1,0.1,0.2,0.3,0.3,0.4c0.4,0.6,0.7,1.3,1,2c-2.5,2.5-6.8,6.4-11.9,9.6
	c-3-4.6-2.1-16.9-2.1-17.4c0,0,0.1,0.1,0.2,0.1c-0.1,0-0.1,0-0.1-0.1c0-0.2,0.7-2.2,1.4-4.5c0.7-2.3,1.5-4.9,1.8-6.4
	c0.7-3.1-10.7-7.4-10.7-7.4s-1.5,5.2-10,20.4c-0.1-0.2-0.1-0.4-0.2-0.6c-3-7.8-12.7-6.2-18.3-4.5c5.7-1.6,15.3-3.1,18.2,4.6
	c-1.2,1.2-5.2,4.6-16.6,10.8c-3-5.6-3.9-11.1-4.1-14.3c0.1-0.1,0.1-0.2,0.2-0.4c0,0,0.1,0,0.1,0c1.4-3,4.5-7.4,7.6-11.7l-7.9,10.1
	l-0.3,0.3c-2-7.9-10-5.5-10.4-5.3c0.6-0.8,21.8-25.8,26.4-24.9c0.1,0,0.1,0,0.2,0c-0.2-0.1-0.5-0.1-0.8-0.1
	c-6.6-0.8-19.8,10.3-23.3,9.6c-0.2,0-0.3-0.1-0.5-0.1c-2.1,1.2-4.8,3.1-7.5,5.8c-0.3-5.2,1.4-8.7,2.4-10.3c-0.2-0.3-0.3-0.5-0.5-0.7
	c-0.2-0.3-0.4-0.6-0.5-0.8c-0.6,0.2-1.4,0.5-2.3,0.8c-3.3,1.2-8.5,3.1-13.6,5.5c0.3-5.6,3.7-10.7,5.1-12.6c-0.1-0.3-0.2-0.7-0.3-1
	v-0.2c0,0-0.1,0-0.1,0.1c-0.1,0-0.1,0.1-0.2,0.1l-0.8-0.1c0,0-0.2,0.3-0.8,0.8l0,0c-1.4,1.1-4.6,3.5-10.7,5.9
	c-0.5-7.1,4.9-12.1,5.7-12.8c0.1-1.4,8.1-7.4,12.1-9c4-1.7,7.6-16.4,16.6-16.6c8.9-0.2,27.6,18.2,28.2,18.8
	c-0.1,0.1-0.2,0.2-0.3,0.2c0.2-0.1,0.3-0.2,0.5-0.3c0,0,0,0-0.1,0c-0.1-0.3-3.4-8.5-3.4-13.3c0-1.9,0.6-3.3,2.1-3.3
	c5.5,0,12.1,9.7,12.1,9.7s7.4,0,9,1.4c1.3,1,3.9,5.5,5.3,7.9c-2,1-5.1,2.2-9,2.5c3.9-0.3,7.1-1.5,9.1-2.5c0.6,1,0.9,1.6,0.9,1.6
	s19.2,2,31.7,4.2c7.4,1.3,11.3-5.9,13.3-11.9c0,0,0-0.1-0.1-0.2c-0.5-1-1.1-2.1-1.6-3.2h0c-16.2-2.7-30.6-6.6-42.4-12.2
	c-42.8-20.3-32.1-2.1-48.1-2.1s-115.5-1-141.1-7.5c-25.6-6.5-53.5-7.5-62-11.8s-57.9-0.2-71.6,13.9c-35.3,36.4,12.8,78.1,31,106
	c18.1,27.8,59.8,9.6,134.7,26.7c74.9,17.1,239.6,4.2,332.6,5.3c93,1.1,109.1,7.5,210.5,24.5c101.5,17.1,101.5-18.2,113.3-37.4
	C922.2,779.2,973.5,743.9,950,724.7z M358.1,749.6c-1.9,1.3-5.5,3.6-11.2,6.9c-0.4-8.9,2.3-14.3,2.3-14.3c0.2,0,1.5-0.5,3.2-0.5
	c2.6,0,6,1,7.2,5.8L358.1,749.6C358,749.6,358.1,749.6,358.1,749.6z M403,751.5c0,0,0.1,0,0.2,0c0,0,0,0,0.1,0c0,0,0,0-0.1,0
	C403.1,751.5,403,751.5,403,751.5z"/>
<path class="st0" d="M358,749.6C358,749.6,358.1,749.6,358,749.6c-1.9,1.3-5.4,3.6-11.1,6.9c-0.4-8.9,2.3-14.3,2.3-14.3
	c0.2,0,1.5-0.5,3.2-0.5c2.6,0,6,1,7.2,5.8L358,749.6z"/>
<path class="st0" d="M380.6,752.6c-1.2,1.2-5.2,4.6-16.6,10.8c-3-5.6-3.9-11.1-4.1-14.3c0.1-0.1,0.1-0.2,0.2-0.4c0,0,0.1,0,0.1,0
	c0.6-0.2,1.2-0.4,2-0.6c0.1,0,0.1,0,0.2,0C368.1,746.3,377.7,744.8,380.6,752.6z"/>
<path class="st0" d="M411.4,756.8c0.4,0.6,0.7,1.3,1,2c-2.5,2.5-6.8,6.4-11.9,9.6c-3-4.6-2.1-16.9-2.1-17.4c0,0,0.1,0.1,0.2,0.1
	c0,0,0.1,0,0.1,0c0,0,0.1,0,0.1,0c0.1,0,0.2,0,0.3,0c0.1,0,0.1,0,0.2,0c0.2,0,0.5,0,0.7,0c0.1,0,0.3,0,0.4,0c0.2,0,0.4,0,0.7,0
	c0.2,0,0.4,0,0.7,0.1c0.2,0,0.5,0.1,0.7,0.1c0.2,0,0.4,0.1,0.6,0.1c0,0,0,0,0,0c0,0,0,0,0.1,0c0,0,0,0,0,0c0.2,0,0.5,0.1,0.8,0.2
	c0.2,0.1,0.5,0.1,0.7,0.2c0.5,0.1,1,0.3,1.4,0.5c0.2,0.1,0.4,0.2,0.6,0.2c0.1,0,0.1,0.1,0.2,0.1c0.5,0.2,0.9,0.5,1.4,0.8
	c0.4,0.2,0.7,0.5,1,0.8c0.1,0.1,0.2,0.2,0.3,0.3c0.1,0.1,0.2,0.2,0.3,0.3c0.4,0.4,0.8,0.9,1.1,1.3
	C411.2,756.5,411.3,756.6,411.4,756.8z"/>
<path class="st0" d="M467.3,720.7c-0.1,1.2-0.7,2.3-1.9,3.3c-5.7,5-34.4,3.2-43.1,3.4s-22.6-1.3-22.6-1.3s-18-7.4-23.5-8.8
	c-0.2-0.1-0.3-0.1-0.5-0.2c-0.2-0.1-0.5-0.1-0.8-0.1c-6.6-0.8-19.8,10.3-23.3,9.6c-0.2,0-0.3-0.1-0.5-0.1c-2.1,1.2-4.8,3.1-7.5,5.8
	c-0.3-5.2,1.4-8.7,2.4-10.3c-0.2-0.3-0.3-0.5-0.5-0.7c-0.2-0.3-0.4-0.6-0.5-0.8c-0.6,0.2-1.4,0.5-2.3,0.8c-3.3,1.2-8.5,3.1-13.6,5.5
	c0.3-5.6,3.7-10.7,5.1-12.6c-0.1-0.3-0.2-0.7-0.3-1v-0.2c0,0-0.1,0-0.1,0.1c-0.1,0-0.1,0.1-0.2,0.1l-0.8-0.1c0,0-0.2,0.3-0.8,0.8
	l0,0c-1.4,1.1-4.6,3.5-10.7,5.9c-0.5-7.1,4.9-12.1,5.7-12.8c0.1-1.4,8.1-7.4,12.1-9c4-1.7,7.6-16.4,16.6-16.6
	c8.9-0.2,27.6,18.2,28.2,18.8c-0.1,0.1-0.2,0.2-0.3,0.2c0.2-0.1,0.3-0.2,0.5-0.3c0,0,0,0-0.1,0c-0.1-0.3-3.4-8.5-3.4-13.3
	c0-1.9,0.6-3.3,2.1-3.3c5.5,0,12.1,9.7,12.1,9.7s7.4,0,9,1.4c1.3,1,3.9,5.5,5.3,7.9c-2,1-5.1,2.2-9,2.5c3.9-0.3,7.1-1.5,9.1-2.5
	c0.6,1,0.9,1.6,0.9,1.6s19.2,2,31.7,4.2c7.4,1.3,11.3-5.9,13.3-11.9c0,0,0,0,0-0.1c1.1,2.1,2.1,4.1,3.1,5.9c0.3,0.6,0.7,1.2,1,1.7
	c0.2,0.3,0.4,0.6,0.5,1c0.2,0.4,0.4,0.8,0.7,1.1c0.3,0.6,0.7,1.1,1,1.7c0,0,0,0.1,0,0.1c0.3,0.5,0.6,1,0.9,1.5
	c0.3,0.4,0.5,0.9,0.7,1.3c0.6,1,1.1,1.8,1.5,2.7c0,0.1,0.1,0.1,0.1,0.2c0.7,1.2,1.2,2.3,1.7,3.3c0.1,0.3,0.2,0.6,0.3,0.8
	c0.1,0.2,0.1,0.3,0.2,0.5c0.2,0.5,0.3,0.9,0.3,1.3C467.4,719.9,467.4,720.3,467.3,720.7z"/>
<path class="st0" d="M653.8,583.2c0,3.7,0,7.4-0.2,11.2c-0.1,1.6-0.1,3.3-0.2,4.9c-0.1,1.6-0.2,3.2-0.3,4.8c0,0.1,0,0.1,0,0.2
	c-0.1,0.8-0.1,1.6-0.2,2.4c-0.1,0.8-0.2,1.7-0.2,2.5c-0.1,0.8-0.2,1.6-0.3,2.5c-0.1,0.8-0.2,1.7-0.3,2.5c-0.1,0.8-0.2,1.6-0.3,2.5
	c-0.2,1.9-0.5,3.8-0.8,5.7c-0.1,0.5-0.2,1-0.2,1.5c-0.4,2.2-0.7,4.5-1.2,6.7c-0.2,1.2-0.5,2.5-0.7,3.7c-3.8,18.7-9.7,37-17.6,53.6
	l0.1-0.2c0,0.1-0.1,0.2-0.1,0.3l11.1-15.4c-6.6,9.9-13.3,18.7-20,26.4c0,0,0,0,0,0.1c-2.7,3.2-5.5,6.2-8.2,8.9
	c-18.6,19.3-37,30.9-54,37.4c-0.2-0.1-0.4-0.2-0.5-0.2c1.4-1.1,2.8-2.2,4.2-3.4c0.6-0.5,1.2-1,1.8-1.5c1.9-1.6,3.8-3.2,5.6-4.9
	c0.3-0.3,0.7-0.6,1-0.9c0.7-0.7,1.5-1.4,2.2-2l3.6-3.6c1-1,2-2.1,3-3.1c0.6-0.6,1.1-1.2,1.7-1.8c1.4-1.5,2.7-3,4-4.5
	c0.6-0.7,1.2-1.4,1.7-2.1c0.4-0.5,0.9-1.1,1.3-1.6c3.3-4.2,6.3-8.4,8.9-12.6c0.2-0.4,0.4-0.7,0.6-1.1c0.6-1,1.2-1.9,1.7-2.9
	c0.3-0.5,0.6-0.9,0.8-1.4c0,0,0,0,0,0c0.3-0.5,0.5-1,0.8-1.5c0,0,0,0,0,0c0,0,0-0.1,0.1-0.1c0.2-0.3,0.4-0.7,0.5-1
	c0.2-0.2,0.3-0.5,0.4-0.7c0.9-1.8,1.8-3.6,2.6-5.5c3.7-8.1,6.3-16.2,7.9-24.2c0,0,0,0,0,0c0.1-0.2,0.1-0.4,0.2-0.7
	c0.4-1.8,0.7-3.6,1-5.4c0-0.1,0-0.3,0.1-0.4c0.2-1.6,0.4-3.2,0.6-4.8c0-0.1,0-0.1,0-0.2c0.1-1.2,0.2-2.4,0.3-3.6
	c0-0.6,0.1-1.2,0.1-1.8c0-0.6,0.1-1.2,0.1-1.8c0.1-1.7,0.1-3.3,0.1-5c0-11.5-1.5-22.5-4-32.7c-0.8-3.4-1.7-6.7-2.7-9.9
	c-1.4-4.8-3-9.4-4.6-13.7c-0.6-1.4-1.1-2.9-1.7-4.3c-2.2-5.6-4.5-10.7-6.5-15.2c-17.8-39.2-95.1-78.4-137.8-13.3
	c-6.4,9.7-11.3,19.2-14.9,28.4c-0.2,0.5-0.4,1.1-0.6,1.6c-0.2,0.5-0.4,1.1-0.6,1.6c-0.3,0.8-0.6,1.6-0.8,2.3
	c-0.2,0.6-0.4,1.2-0.6,1.8c-2.9,8.9-4.7,17.5-5.5,25.6h0c-9-3.4-15.8-7.2-20.7-11.1c0.3-1.2,0.7-2.5,0.9-3.9c0.1-0.5,0.2-1,0.3-1.5
	c3.3-16.2,2.9-37.2,5.6-52.6c0.1-0.5,0.2-1,0.3-1.5c0-0.1,0-0.1,0-0.2c0.5-2.4,1.1-4.7,1.8-6.7c7.5-21.8,18.1-30,23.3-43.3
	c1-2.7,2.2-5.7,2.9-9c0.1-0.4,0.2-0.9,0.3-1.3c0,0,0-0.1,0-0.1c2.8-12.9,0.1-30-30.3-50c-39-25.7-58.9-9.5-73.7,1.4
	c-4.3,3.1-8.4,7.7-11.9,13c4.3-6.6,15-22,15.4-24.7c0.5-3.3,6.4-15,11.2-17.6c4.7-2.6,10.4-2.9,15.2,5.7c0.4-3.1-0.5-19.3-0.5-19.3
	l15.2,15.7c0,0,0.1-1.8,0-4.7v-1.7c-0.1-1.2-0.2-2.5-0.3-4c0-0.4-0.1-0.8-0.1-1.2c-0.3-2.4-0.6-4.9-1.1-7.5
	c-0.1-0.3-0.1-0.5-0.2-0.8l1,3.6c2.5,1.6,63.7,38.2,110.9,48.7c5.3,1.2,10.8,2.4,16.1,3.5c42.3,8.8,82.4,17.1,112.2,56.8
	c6.6,8.8,11.8,19.3,15.6,31c0.2,0.8,0.5,1.6,0.7,2.3c0.3,0.8,0.5,1.7,0.8,2.6c0.5,1.7,1,3.5,1.4,5.3c0.5,1.9,0.9,3.8,1.3,5.7
	c0.2,1,0.4,1.9,0.6,2.9c0.1,0.7,0.3,1.5,0.4,2.2c0.1,0.7,0.2,1.4,0.4,2.1c0.1,0.7,0.2,1.3,0.3,2c0.3,2,0.6,4,0.8,6
	c0.2,2.1,0.5,4.2,0.6,6.3c0.1,1.5,0.2,3,0.3,4.5c0.1,1.5,0.2,3,0.2,4.6C653.7,578.5,653.7,580.8,653.8,583.2z"/>
<path class="st0" d="M389.9,386l-0.1-0.4l0-0.1c0-0.2-0.1-0.3-0.1-0.5l0.1,0.3c0,0,0,0.1,0,0.1c0,0,0,0.1,0,0.1c0,0,0,0,0,0l0,0.2
	c0,0,0,0,0,0C389.9,385.9,389.9,386,389.9,386z"/>
<path class="st0" d="M631.4,687.6l11.9-16.5c-0.3,0.5-0.6,0.9-0.9,1.4l-11.1,15.4C631.3,687.8,631.3,687.7,631.4,687.6z"/>
<path class="st0" d="M693.6,570.4c-9,27.1-23.4,57.2-45.3,92.6c-0.3,0.5-0.7,1.1-1,1.6c1.6-3.5,3.1-6.9,4.4-10.2
	c0.3-0.8,0.7-1.7,1-2.5c3.2-8.2,5.6-16,7.3-23.8c0.4-1.6,0.7-3.2,1-4.9c0,0,0-0.1,0-0.1c0.2-0.8,0.3-1.7,0.4-2.5
	c0.1-0.6,0.2-1.2,0.3-1.8c0.1-0.4,0.1-0.8,0.2-1.1c0.1-0.7,0.2-1.3,0.3-2c0.1-0.9,0.2-1.8,0.4-2.7c0.1-0.7,0.2-1.4,0.2-2.1
	c0-0.3,0.1-0.7,0.1-1c0.1-1.4,0.3-2.9,0.4-4.3c0.1-0.9,0.1-1.8,0.2-2.8c0.1-0.9,0.1-1.7,0.2-2.6c0-0.8,0.1-1.6,0.1-2.5
	c0.2-5.6,0.3-11.4,0.2-17.6c-0.7-33.6-10.3-63.5-27.5-86.4c-0.6-0.8-1.2-1.6-1.8-2.4c-0.4-0.5-0.7-0.9-1.1-1.4
	c-0.2-0.2-0.3-0.4-0.5-0.6c-0.8-1-1.6-1.9-2.4-2.8c-0.6-0.8-1.3-1.5-2-2.2c-2.1-2.3-4.2-4.5-6.4-6.6c-0.5-0.5-1-1-1.5-1.5
	c-0.9-0.9-1.8-1.7-2.8-2.5c-0.5-0.4-0.9-0.8-1.4-1.2c-28.8-24.5-63.5-31.8-97.3-38.9c-5.3-1.1-10.7-2.2-16-3.4
	c-44.6-9.9-111.5-49-115.5-51.4c0,0,0,0,0-0.1c-0.4-1.2-0.8-2.3-1.3-3.5c-0.2-0.4-0.3-0.8-0.5-1.2c0.1-0.1,0.3-0.1,0.4-0.2
	c0.2-0.1,0.3-0.1,0.5-0.2c0.3-0.1,0.7-0.2,1.1-0.3c0.2,0,0.4-0.1,0.6-0.1c0,0,0.1,0,0.2,0c0.4-0.1,0.8-0.1,1.2-0.2
	c0.3,0,0.5,0,0.8-0.1c3.3-0.3,7.6-0.3,12,0c0.4,0,0.8,0,1.2,0.1c0.2,0,0.3,0,0.5,0c0.4,0,0.8,0,1.2,0.1c0.2,0,0.4,0,0.6,0
	c1.3,0.1,2.6,0.2,3.8,0.3c0.9,0.1,1.8,0.2,2.6,0.2c0,0,0,0,0.1,0c0.7,0.1,1.4,0.1,2,0.2c0.7,0.1,1.3,0.1,1.9,0.2
	c1,0.1,1.9,0.2,2.7,0.3c0.2,0,0.3,0,0.4,0c0.2,0,0.4,0,0.6,0.1c0.2,0,0.3,0,0.5,0.1c0.3,0,0.6,0.1,0.8,0.1c0,0,0.1,0,0.1,0
	c0.1,0,0.1,0,0.2,0c0.3,0,0.5,0.1,0.6,0.1c-0.3-0.5-6.5-12.1-13.3-14.5c0.4-0.1,1-0.2,1.6-0.2h0.1c0.2,0,0.4,0,0.6,0
	c0.3,0,0.6,0,0.9,0c0.3,0,0.6,0,1,0c0.2,0,0.5,0,0.7,0c0.1,0,0.2,0,0.4,0c0.1,0,0.1,0,0.2,0c5.8,3.2,12,6.3,18.4,9.1
	c6.4,2.8,13,5.3,19.7,7.3c3.3,1,6.6,1.9,9.9,2.7l-2.4-0.5c0.1,0.1,0.4,0.2,0.8,0.5l-0.8-0.2c2.1,1.2,64.1,36.4,90.2,40.3
	c13.4,1.9,27.4,1.2,39.8,0.5c1.4-0.1,2.6-0.1,3.7-0.2c0.3,0,0.5,0,0.8,0c1.1,0,2-0.1,2.8-0.1c0.3,0,0.6,0,0.9,0c1.4,0,2.4,0,3.2,0
	c0.1,0,0.3,0,0.4,0c0.4,0,0.7,0,0.9,0h0c0.1,0,0.2,0,0.3,0c15.4,20.3,38.2,45.1,57,73c0.1,0.1,0.1,0.2,0.2,0.3
	c0,0.1,0.1,0.2,0.2,0.3c1,1.4,1.9,2.9,2.8,4.3c0,0,0.1,0.1,0.1,0.1c0.5,0.8,1,1.6,1.5,2.4c0.4,0.6,0.7,1.1,1.1,1.7
	c2.2,3.6,4.4,7.2,6.4,10.8c0.5,0.9,1,1.8,1.5,2.8c0.5,0.9,1,1.8,1.4,2.7c0.3,0.5,0.5,1,0.8,1.5c1.2,2.4,2.4,4.8,3.5,7.2
	c0.4,0.8,0.8,1.7,1.1,2.5c0.8,1.9,1.7,3.8,2.4,5.7c0.4,0.9,0.8,1.9,1.1,2.9c0.4,0.9,0.7,1.9,1.1,2.9c0.4,1,0.7,1.9,1,2.9
	c0.3,0.8,0.5,1.6,0.8,2.4c0.1,0.4,0.3,0.8,0.4,1.2c0.6,1.8,1.1,3.5,1.5,5.3c0.3,0.9,0.5,1.8,0.7,2.8c0.5,1.9,0.9,3.7,1.2,5.6v0.1
	c0.1,0.5,0.2,0.9,0.3,1.4c0.1,0.7,0.3,1.4,0.4,2.1c0.2,0.9,0.3,1.8,0.4,2.7v0.1c0.4,0.6,0.6,1.2,0.7,1.9c0,0,0,0,0,0
	C693.5,569.6,693.6,570,693.6,570.4z"/>
<path class="st0" d="M598,411.8c-1.2,0.1-4.6,0.2-7.7,0.4c-12,0.6-25.7,1.4-38.2-0.5c-24.6-3.6-66.4-27.1-66.9-27.4L479,383
	c2.1,0.3,4.1,0.6,6.2,0.9c0,0,0,0,0,0c40.1,5.3,77.3-1.2,99-0.3c0,0.2,0.1,0.3,0.2,0.5c2.8,9.1,6.8,17.4,11.6,24.7
	c0.6,0.9,1.2,1.8,1.8,2.7c0,0,0.1,0.1,0.1,0.2C598,411.7,598,411.7,598,411.8z"/>
<path class="st0" d="M190.7,457.1c0,0-0.1-0.5,0-1.5l-0.1,0.1c-0.1,1,0,1.5,0,1.5s6.5,22.8,14.9,29.8h0c0,0,0.1,0,0.1,0
	C197.2,480,190.7,457.1,190.7,457.1z M255.7,500c-9.1,0.7-24.6-2.8-36.2-6.7c0,0-0.1,0-0.1,0.1c0,0,0.1,0,0.1,0
	C231.1,497.3,246.6,500.8,255.7,500c0.1,0.1,0.1,0.1,0.2,0.1C255.9,500,255.8,500,255.7,500z M255.3,405.4c-4.3-8-17.1-11.5-26.6-8
	C238.2,394,250.9,397.5,255.3,405.4c5.5,10.2,6.9,18.4,2.1,29.4c-3,7-12.2,12.2-21.2,11.9c9,0.4,18.2-4.9,21.3-11.9
	C262.2,423.8,260.8,415.6,255.3,405.4z M325.9,432.6c0.1,1.3,0.2,2.7,0.3,4.2C326.1,435.3,326,433.9,325.9,432.6z M326.6,440.1
	c0.2,2.2,0.5,4.5,0.8,6.9C327.1,444.6,326.8,442.3,326.6,440.1z M329.5,506.8c-1.3-5.4-2.9-10.7-4.3-15.9
	c-2.7-9.7-0.8-21.5,3.8-32.2c0,0,0,0,0,0c0-0.1,0-0.2,0-0.3c-0.5-3.3-1-6.7-1.5-10c0.4,3.4,0.9,6.8,1.4,10.1v0
	c0,0.1-0.1,0.2-0.1,0.3c-4.6,10.8-6.5,22.6-3.8,32.3c1.4,5.2,3,10.5,4.3,15.9c0,0,0,0,0,0C329.4,506.9,329.5,506.8,329.5,506.8z"/>
<path class="st0" d="M848.8,322.6c-5.4,5.6-11.6,9.3-18.4,11.7c-19.3-14.1-51.6-35.1-70-40.2c-2.9-0.8-5.9-1.7-9.1-2.6
	c-0.9-0.3-1.8-0.5-2.7-0.8c0,0,0,0,0,0c-0.9-0.3-1.9-0.5-2.8-0.8c-1.9-0.5-3.8-1.1-5.8-1.6h0c-0.5-0.1-1-0.2-1.5-0.4
	c-0.2,0-0.3-0.1-0.5-0.1c-0.6-0.1-1.2-0.3-1.7-0.4c-0.6-0.2-1.2-0.3-1.9-0.4c-0.1,0-0.3-0.1-0.4-0.1c-0.5-0.1-1-0.2-1.5-0.3
	c-0.2,0-0.5-0.1-0.7-0.1c-0.3-0.1-0.5-0.1-0.8-0.2c-0.7-0.1-1.3-0.3-2-0.4c-0.7-0.1-1.4-0.2-2.1-0.4c-0.6-0.1-1.3-0.2-1.9-0.3
	c-7.1-1-14.4-1.2-21.3,0.2c-0.3,0.1-0.5,0.1-0.8,0.2c-0.5,0.1-1.1,0.2-1.6,0.4c-1,0.3-2.1,0.6-3.1,0.9c-0.4,0.1-0.8,0.3-1.3,0.4
	c-0.4,0.2-0.8,0.3-1.2,0.5c-0.4,0.2-0.8,0.3-1.2,0.5c-0.5,0.2-0.9,0.4-1.4,0.6c-0.4,0.2-0.7,0.4-1.1,0.6c-0.4,0.2-0.8,0.4-1.2,0.7
	c-0.8,0.5-1.6,1-2.4,1.5c-2.2,1.5-4.3,3.2-6.3,5.1c-0.2,0.2-0.5,0.4-0.7,0.7c-0.7,0.7-1.3,1.4-2,2.2c-0.4,0.5-0.9,1-1.3,1.5
	c-1.1,1.3-2.1,2.7-3.1,4.2c-0.6,0.9-1.2,1.9-1.8,2.8c-1.5,2.6-3,5.5-4.4,8.7c-8.8,20.4,8.6,54,31.3,92.4c0.8,1.3,1.5,2.6,2.3,3.8
	c0.4,0.7,0.8,1.3,1.2,2c0.8,1.3,1.6,2.6,2.3,3.9c0.8,1.3,1.6,2.6,2.4,3.9c0.8,1.3,1.6,2.6,2.4,4c0.4,0.7,0.8,1.3,1.2,2
	c1.2,2,2.4,4,3.6,6c0.4,0.7,0.8,1.4,1.2,2c0.8,1.3,1.5,2.6,2.3,3.8c3.1,5.1,6.1,10.3,9.1,15.5c1.5,2.6,3,5.2,4.5,7.8
	c0.7,1.3,1.5,2.6,2.2,3.9c1.5,2.6,2.9,5.2,4.3,7.8c0.5,0.8,0.9,1.7,1.3,2.5c0.7,1.2,1.3,2.5,2,3.8c0.7,1.3,1.3,2.5,1.9,3.8
	c1.3,2.5,2.5,5,3.7,7.5c0.4,0.7,0.7,1.5,1.1,2.2c0.7,1.5,1.4,3,2.1,4.4c3.7,8.1,7.1,16.2,9.8,24.2c0.5,1.4,1,2.9,1.4,4.3
	c0.9,2.9,1.8,5.7,2.5,8.6c0.2,0.9,0.5,1.9,0.7,2.8c0.2,0.8,0.4,1.6,0.6,2.4c0.2,0.7,0.3,1.4,0.5,2.1c0.1,0.2,0.1,0.4,0.1,0.7
	c0.2,0.7,0.3,1.4,0.4,2.1c0.1,0.7,0.3,1.4,0.4,2.1c0.3,1.5,0.5,3.1,0.7,4.6c0.1,0.6,0.2,1.1,0.2,1.7c0.1,0.7,0.1,1.3,0.2,1.9
	s0.1,1.3,0.2,1.9c0,0.6,0.1,1.2,0.1,1.9c0.2,3.3,0.2,6.5,0.1,9.6c0,0.5,0,0.9-0.1,1.4c-3,44.5-28.5,91.1-63.4,128.6
	c-15.6,16.8-33.1,31.8-51.2,44.1c0.1,0,0.2,0,0.2-0.1c-0.1,0-0.2,0.1-0.2,0.2c-45.5,11.8-75.1,8.4-94.3,0.1
	c17-6.5,35.4-18.2,54-37.4l1.7,1.7c2.1-1.9,6.7-5.6,12.7-10.9c23.1-20.3,66.7-63.9,66-116.6c0-3.9-0.3-7.8-0.8-11.6c0,0,0-0.1,0-0.1
	c0,0,0,0,0-0.1c0-0.4-0.1-0.8-0.2-1.1c0,0,0,0,0,0c-3.3-25.3-14.9-49.4-29.3-71.5c0,0,0-0.1-0.1-0.1c-0.9-1.5-1.9-2.9-2.8-4.3
	c-0.1-0.1-0.1-0.2-0.2-0.3c-0.1-0.1-0.1-0.2-0.2-0.3c-18.9-27.9-41.6-52.7-57-73c0,0-0.1-0.1-0.1-0.2c-1.7-2.2-3.3-4.5-4.8-6.6
	c0,0.1,0.1,0.1,0.1,0.2c-0.4-0.6-0.8-1.1-1-1.4h0c0-0.1-0.1-0.1-0.1-0.2c0-0.1,0-0.1,0-0.2c0,0,0,0-0.1,0c-0.6-0.9-1.2-1.8-1.8-2.7
	c-4.8-7.3-8.8-15.6-11.6-24.7c-0.1-0.2-0.1-0.3-0.2-0.5c-12.8-41.4-2-98.3,63.5-144.5c80.3-56.6,148.8-23.8,159.2-16.6
	C817.4,229.4,890.2,279.8,848.8,322.6z"/>
<path class="st0" d="M791.8,485.1c30,49,25.2,156.6-51.2,219c-17,13.9-37.5,25.5-61.9,33.8c-8.5,2.9-16.5,5.2-24.1,7.2
	c18.1-12.2,35.5-27.2,51.1-44c34.8-37.5,60.3-84,63.3-128.5c0-0.5,0.1-1,0.1-1.5c0.2-3.2,0.1-6.4-0.1-9.6c0-0.6-0.1-1.2-0.1-1.9
	c-0.1-0.6-0.1-1.3-0.2-1.9s-0.1-1.3-0.2-1.9c-0.1-0.6-0.1-1.1-0.2-1.7c-0.2-1.5-0.4-3.1-0.7-4.6c-0.1-0.7-0.2-1.4-0.4-2.1
	c-0.1-0.7-0.3-1.4-0.4-2.1c0-0.2-0.1-0.4-0.1-0.7c-0.1-0.7-0.3-1.4-0.5-2.1c-0.2-0.8-0.4-1.6-0.6-2.4c-0.2-0.9-0.5-1.9-0.7-2.8
	c-0.7-2.8-1.6-5.7-2.5-8.6c-0.5-1.4-0.9-2.9-1.4-4.3c-2.7-7.9-6.1-16-9.8-24.2c-0.7-1.5-1.4-3-2.1-4.4c-0.3-0.8-0.7-1.5-1.1-2.2
	c-1.2-2.5-2.4-5-3.7-7.5c-0.6-1.3-1.3-2.5-1.9-3.8c-0.6-1.3-1.3-2.5-2-3.8c-0.4-0.8-0.9-1.7-1.3-2.5c-1.4-2.6-2.8-5.2-4.3-7.8
	c-0.7-1.3-1.5-2.6-2.2-3.9c-1.5-2.6-3-5.2-4.5-7.8c-3-5.2-6.1-10.4-9.1-15.5c-0.8-1.3-1.5-2.6-2.3-3.8c-0.4-0.7-0.8-1.3-1.2-2
	c-1.2-2-2.4-4-3.6-6c-0.4-0.7-0.8-1.3-1.2-2c-0.8-1.3-1.6-2.6-2.4-4c-0.8-1.3-1.6-2.6-2.4-3.9c-0.8-1.3-1.6-2.6-2.3-3.9
	c-0.4-0.7-0.8-1.3-1.2-2c-0.8-1.3-1.5-2.6-2.3-3.8c-22.7-38.4-40.1-72-31.3-92.4c1.4-3.2,2.8-6,4.4-8.7c0.6-1,1.2-1.9,1.8-2.8
	c1-1.5,2-2.9,3.1-4.2c0.4-0.5,0.9-1,1.3-1.5c0.7-0.8,1.3-1.5,2-2.2c0.2-0.2,0.5-0.4,0.7-0.7c2-2,4.2-3.7,6.3-5.1
	c0.8-0.5,1.6-1,2.4-1.5c0.4-0.2,0.8-0.4,1.2-0.7c0.4-0.2,0.7-0.4,1.1-0.6c0.5-0.2,0.9-0.4,1.4-0.6c0.4-0.2,0.8-0.4,1.2-0.5
	c0.4-0.2,0.8-0.3,1.2-0.5c0.4-0.2,0.9-0.3,1.3-0.4c1-0.3,2.1-0.7,3.1-0.9c0.5-0.1,1.1-0.2,1.6-0.4c0.3-0.1,0.5-0.1,0.8-0.2
	c6.9-1.3,14.2-1.2,21.3-0.2c0.6,0.1,1.3,0.2,1.9,0.3c0.7,0.1,1.4,0.2,2.1,0.4c0.7,0.1,1.3,0.2,2,0.4c0.3,0,0.5,0.1,0.8,0.2
	c0.2,0,0.5,0.1,0.7,0.1c0.5,0.1,1,0.2,1.5,0.3c0.1,0,0.3,0.1,0.4,0.1c0.6,0.1,1.2,0.3,1.9,0.4c0.6,0.1,1.2,0.3,1.7,0.4
	c0.2,0,0.3,0.1,0.5,0.1c0.5,0.1,1,0.2,1.5,0.4h0c2,0.5,3.9,1,5.8,1.6c1,0.3,1.9,0.5,2.8,0.8c0,0,0,0,0,0c0.9,0.3,1.8,0.5,2.7,0.8
	c3.2,0.9,6.2,1.8,9.1,2.6c18.4,5.1,50.7,26.1,70,40.2c-45.4,15.9-116.5-29.4-131.8-2.2C681.1,363.5,755.2,425.2,791.8,485.1z"/>
<path class="st0" d="M614.1,664.5C614.1,664.6,614.1,664.6,614.1,664.5c-0.1,0.4-0.2,0.7-0.2,1c-0.2,0.8-0.3,1.5-0.5,2.2
	c-0.4,1.8-0.9,3.5-1.4,5.3l-0.6,2.1c-0.2,0.5-0.3,1-0.5,1.5s-0.4,1.1-0.6,1.7c-0.2,0.7-0.5,1.3-0.7,2c-0.2,0.6-0.5,1.2-0.7,1.8
	c-0.7,1.9-1.5,3.8-2.3,5.6c-0.1,0.3-0.2,0.7-0.4,1c-0.1,0.3-0.3,0.6-0.4,0.9c-0.3,0.6-0.7,1.3-1,2c-0.2,0.6-0.5,1.1-0.8,1.7
	c-0.2,0.3-0.3,0.6-0.4,0.8c-0.1,0.2-0.2,0.5-0.4,0.7c-0.2,0.3-0.4,0.7-0.5,1c0,0,0,0.1-0.1,0.1c0,0,0,0,0,0
	c-0.2,0.4-0.4,0.7-0.6,1.1c-0.1,0.1-0.1,0.3-0.2,0.4c0,0,0,0,0,0c-0.3,0.5-0.5,1-0.8,1.4c-8.9,15.5-22.2,31-41.4,46
	c-0.4,0.3-0.8,0.6-1.1,0.9c-22.1,8.1-41.6,7.7-55.7,4.6c-51.3,10-83.4,3.8-83.4,3.8s-2.1,2.6-6.9,4.5c0,0,0,0,0-0.1
	c-0.2-0.6-0.5-1.1-0.7-1.6c-0.2-0.3-0.4-0.6-0.6-0.9c-0.1-0.1-0.2-0.3-0.3-0.4c-0.1-0.1-0.2-0.3-0.3-0.4c-0.1-0.1-0.2-0.2-0.3-0.4
	c-0.1-0.1-0.2-0.2-0.4-0.3c-0.1-0.1-0.2-0.2-0.3-0.3c0,0-0.1-0.1-0.1-0.1c-0.2-0.2-0.4-0.4-0.6-0.5c-0.5-0.4-1.1-0.7-1.6-1
	c-0.2-0.1-0.4-0.2-0.7-0.3c-0.1,0-0.1-0.1-0.2-0.1c-0.1,0-0.3-0.1-0.4-0.2c-0.2-0.1-0.4-0.1-0.5-0.2c-0.3-0.1-0.5-0.2-0.8-0.2
	s-0.5-0.1-0.7-0.2c-0.2,0-0.4-0.1-0.6-0.1c0,0,0,0-0.1,0c-0.1,0-0.1,0-0.2,0c-0.4-0.1-0.8-0.1-1.2-0.2c-0.2,0-0.5-0.1-0.7-0.1
	c-0.2,0-0.4,0-0.7,0c-0.1,0-0.3,0-0.4,0c-0.3,0-0.5,0-0.7,0c-0.1,0-0.1,0-0.2,0c-0.1,0-0.2,0-0.3,0c0,0-0.1,0-0.1,0c0,0-0.1,0-0.1,0
	c-0.1,0-0.1,0-0.1-0.1c0-0.2,0.7-2.2,1.4-4.5c0.7-2.3,1.5-4.9,1.8-6.4c0.7-3.1-10.7-7.4-10.7-7.4s-1.5,5.2-10,20.4
	c-0.1-0.2-0.1-0.4-0.2-0.6c-3-7.8-12.7-6.2-18.3-4.5c-0.1,0-0.1,0-0.2,0c-0.7,0.2-1.4,0.4-2,0.6c1.4-3,4.5-7.4,7.6-11.7l8.3-10.6
	c-1.6,2.1-5,6.2-8.3,10.6l-7.9,10.1l-0.3,0.3c-2-7.9-10-5.5-10.4-5.3c0.6-0.8,21.8-25.8,26.4-24.9c0.1,0,0.1,0,0.2,0
	c0.2,0,0.3,0.1,0.5,0.2c5.5,1.4,23.5,8.8,23.5,8.8s13.9,1.5,22.6,1.3s37.4,1.6,43.1-3.4c1.2-1,1.8-2.1,1.9-3.3c0.1-0.4,0-0.8,0-1.3
	c0-0.4-0.2-0.9-0.3-1.3c0-0.2-0.1-0.3-0.2-0.5c-0.1-0.3-0.2-0.5-0.3-0.8c-0.4-1-1-2.1-1.7-3.3c0-0.1-0.1-0.1-0.1-0.2
	c-0.5-0.8-1-1.7-1.5-2.7c-0.2-0.4-0.5-0.8-0.7-1.3c-0.3-0.5-0.6-1-0.9-1.5c0,0,0,0,0-0.1c-0.3-0.5-0.6-1.1-1-1.7
	c-0.2-0.4-0.4-0.7-0.7-1.1c-0.2-0.3-0.4-0.6-0.5-1c-0.3-0.6-0.7-1.1-1-1.7c-1-1.8-2.1-3.8-3.1-5.9c0,0,0,0,0,0.1c0,0,0-0.1-0.1-0.2
	c-0.5-1-1.1-2.1-1.6-3.2h0c-0.2-0.4-0.4-0.8-0.6-1.2c-6.8-14.2-20.6-42.3-16.8-78.5c0-0.1,0-0.2,0-0.3h0c0,0,0,0,0.1,0
	c0.8-8.1,2.6-16.7,5.5-25.6c0.2-0.6,0.4-1.2,0.6-1.8c0.3-0.8,0.6-1.6,0.8-2.3c0.2-0.5,0.4-1.1,0.6-1.6c0.2-0.5,0.4-1.1,0.6-1.6
	c3.6-9.1,8.4-18.4,14.8-28.1c42.8-65.1,120-25.9,137.8,13.3C607.3,588.2,622.2,624.7,614.1,664.5z"/>
<path class="st0" d="M358,749.6C358,749.6,358.1,749.6,358,749.6c-1.9,1.3-5.4,3.6-11.1,6.9c-0.4-8.9,2.3-14.3,2.3-14.3
	c0.2,0,1.5-0.5,3.2-0.5c2.6,0,6,1,7.2,5.8L358,749.6z"/>
<path class="st0" d="M451,481.9c0,0,0,0.1,0,0.1c-0.1,0.4-0.2,0.9-0.3,1.3c-0.8,3.3-1.9,6.3-2.9,9c-5.2,13.3-15.8,21.5-23.3,43.3
	c-0.7,2-1.3,4.3-1.8,6.7c0,0,0,0.1,0,0.2c-0.1,0.5-0.2,1-0.3,1.5c-2.8,15.3-2.4,36.2-5.6,52.6c-0.1,0.5-0.2,1-0.3,1.5
	c-0.3,1.3-0.6,2.6-0.9,3.9c0,0.2-0.1,0.3-0.1,0.5c-1.7,5.9-4,10.9-7.5,14.4c-15.2,15.2-75.8,4.8-90.3-0.5
	c-14.5-5.2-19.5-2.4-30.9-1.2c-1.6,0.2-3.4,0.1-5.2-0.1c0,0-0.1,0-0.1,0c-10.5-1.2-22.8-7.5-24.2-7.5c0,0-0.1,0-0.1,0
	c-0.9,0.5-22.2,9.6-22.4,13.7v0c0,0.2,0.1,0.5,0.2,0.7c1,1.3,1.5,2.7,1.6,4c0,0,0,0,0,0v0c0,0,0,0,0,0c0,1.3-0.5,2.4-1.5,3.1
	c-0.1,0-0.1,0.1-0.2,0.1c-0.7,0.4-1.6,0.7-2.7,0.7h-0.1c-4.2,0-11.1-2.5-13.8-7.3c0,0,0,0,0,0c0,0,0,0,0-0.1c0-0.1-0.1-0.2-0.1-0.3
	c-0.2-0.4-0.4-0.9-0.6-1.4c-0.3-1-0.4-1.8-0.4-2.6c0-0.1,0-0.2,0-0.3c0.2-3.8,3.8-5.5,6.2-6.6c2.9-1.4,18.4-12.9,18.4-12.9
	s-0.1,0-0.2,0c0,0,0,0,0,0c-0.7,0-2.9,0-9,0.2c-7.8,0.3-32.2-1.9-35.5-2.8c-3.3-0.9-9.9-2-14.2-2.6s-9.3-5.3-13.1-8.7l-0.7-0.7
	c-0.1-0.1-0.1-0.1-0.1-0.2c0,0,0,0,0-0.1c0,0,0,0-0.1,0l0-0.1l5.2-7.4c0.8,0,1.7,0,2.5,0.3c4.3,1.3,9.4,3.9,13.9,5.5
	c4.5,1.6,8.9,1,15.4,1.2c6.3,0.2,25.4,2.2,26.9,2.3c-0.2,0-0.7-0.2-1.3-0.3c0,0,0,0,0,0c-3.1-0.8-10.4-2.4-11.6-2.4
	c-1.5,0.1-15.4-4.3-21.5-7.1c-6.1-2.9-9.9-2.5-12.4-5.6c-0.1-0.1-0.2-0.3-0.3-0.5v0c-1-2.3,1.7-6.4,3.6-8.7c0.1-0.1,0.2-0.3,0.3-0.4
	c0,0,0.1-0.1,0.1-0.1c0.1-0.2,0.3-0.3,0.4-0.5c0.1-0.1,0.2-0.2,0.3-0.4c0.3-0.3,0.4-0.5,0.5-0.5c0,0,1.4,0.7,3.2,1.6
	c1.8,0.9,3.9,2.1,5.2,3c2.7,1.9,5.7,0.8,12.4,2.6c6.7,1.8,20.3,9,28,10.6c4.8,1,6.6-0.7,7.3-2.2c0-0.1,0.1-0.1,0.1-0.2
	c0.3-0.8,0.3-1.5,0.3-1.5l-19.2-10.7l0,0c0,0,0,0,0.2-0.1c0.1,0,0.1-0.1,0.2-0.2c0.1,0,0.1-0.1,0.2-0.1c0.1-0.1,0.2-0.2,0.3-0.2
	c0.1-0.1,0.3-0.2,0.4-0.3c0.5-0.4,1.3-0.9,2.3-1.7c1.8-1.3,2.5-3.2,2.6-4.8c0-0.4,0-0.7,0-1c0-1.1-0.3-1.9-0.3-1.9s0.2,0.1,0.6,0.3
	c0.2,0.1,0.3,0.2,0.6,0.3c0.3,0.2,0.7,0.4,1.1,0.6c0.3,0.1,0.6,0.3,1,0.5s0.7,0.3,1.1,0.5c0.4,0.2,0.7,0.3,1.1,0.5
	c0.2,0.1,0.3,0.2,0.5,0.2c0.8,0.4,1.6,0.8,2.4,1.2c0.5,0.2,1,0.5,1.5,0.7c0.6,0.3,1.2,0.6,1.8,0.9c0.8,0.4,1.6,0.8,2.4,1.1
	c0.6,0.3,1.2,0.6,1.8,0.8c1.8,0.8,3.8,1.7,5.8,2.6c0.7,0.3,1.3,0.6,2,0.9c1,0.4,2,0.9,3,1.3l2.2,1c0.5,0.2,1,0.4,1.5,0.6
	c2.9,1.2,5.8,2.3,8.4,3.3c0.4,0.2,0.9,0.3,1.3,0.5c0.5,0.2,1,0.3,1.5,0.5c0.6,0.2,1.2,0.4,1.8,0.6c1.6,0.5,3.1,0.9,4.3,1.2
	c7.2,1.5,15.5,1.2,23.6-2.5c3.5-1.6,7-3.9,10.4-6.9c3.4-3,6.5-6.8,9.5-11.4c9.1-14.5,7.8-29.6,4.3-44c0.1,0,0.1-0.1,0.2-0.1
	c-1.3-5.4-2.9-10.7-4.3-15.9c-2.7-9.7-0.8-21.5,3.8-32.2c0,0,0,0,0,0c0-0.1,0-0.2,0-0.3c1.4-3.2,2.9-6.2,4.6-9l-0.2-0.1
	c0.1-0.2,0.4-0.9,1-1.8c0.1-0.1,0.2-0.3,0.3-0.4c0.1-0.2,0.3-0.5,0.5-0.7c3.5-5.3,7.6-9.9,11.9-13c14.8-10.9,34.7-27.1,73.7-1.4
	C451.1,451.9,453.8,469,451,481.9z"/>
<path class="st0" d="M329.3,506.9C329.3,506.9,329.3,506.9,329.3,506.9c-1.3-5.4-2.9-10.7-4.3-15.9c-2.7-9.7-0.8-21.5,3.8-32.3
	c0-0.1,0.1-0.2,0.1-0.3v0c0,0,0,0,0,0c0,0.1,0,0.2,0,0.3c0,0,0,0,0,0c-4.6,10.8-6.5,22.6-3.8,32.2c1.4,5.2,3,10.5,4.3,15.9
	C329.5,506.8,329.4,506.9,329.3,506.9z"/>
<path class="st0" d="M334.6,341.6c0,0.4,0,0.8,0,1.3c0,0.5-0.1,0.9-0.1,1.4c0,0,0,0.1,0,0.1c-0.1,0.5-0.1,1.1-0.2,1.7
	c-0.1,0.6-0.1,1.2-0.2,1.9c0,0.2,0,0.4-0.1,0.6c-0.1,0.8-0.2,1.5-0.3,2.4c0,0,0,0.1,0,0.1c-0.1,0.5-0.2,1.1-0.2,1.6
	c-0.1,0.7-0.2,1.4-0.3,2.1c-0.1,0.6-0.2,1.2-0.3,1.9c-0.1,0.5-0.2,0.9-0.2,1.4c-0.2,0.8-0.3,1.7-0.5,2.5c-0.1,0.8-0.3,1.5-0.4,2.3
	c-0.3,1.4-0.5,2.8-0.8,4.2c-0.2,1.1-0.4,2.2-0.7,3.3c-0.3,1.4-0.6,2.8-0.8,4.2c-0.1,0.5-0.2,1-0.3,1.6c-0.1,0.5-0.2,0.9-0.3,1.4
	c-0.2,0.7-0.3,1.5-0.5,2.2c-0.1,0.5-0.2,1-0.3,1.5c-0.6,2.9-1.2,5.8-1.8,8.5c-0.1,0.4-0.2,0.9-0.3,1.3c0,0.1-0.1,0.2-0.1,0.3
	c-0.2,0.9-0.4,1.8-0.6,2.6c-0.2,0.7-0.3,1.4-0.4,2c-0.1,0.4-0.2,0.8-0.2,1.2c-0.1,0.4-0.2,0.7-0.2,1.1c-0.1,0.5-0.2,1-0.3,1.5
	c-0.1,0.6-0.2,1.2-0.4,1.8c-0.1,0.4-0.2,0.8-0.2,1.1c0,0.2-0.1,0.3-0.1,0.5c-0.2,0.9-0.3,1.7-0.4,2.3c0,0,0,0.1,0,0.1
	c0,0.2-0.1,0.4-0.1,0.6c0,0.2,0,0.4-0.1,0.5c0,0,0,0,0,0.1c-2.1-9.2-4.8-16.9-7.9-23.5c-0.4-0.9-0.8-1.8-1.2-2.6
	c-0.3-0.7-0.7-1.3-1-1.9c-0.5-0.9-1-1.9-1.5-2.8c-0.5-0.9-1-1.8-1.5-2.6c-0.2-0.3-0.4-0.7-0.6-1v0c-0.4-0.7-0.8-1.4-1.3-2
	c-3-4.6-6.1-8.7-9.1-12.5c-0.9-1.1-1.8-2.3-2.7-3.4c-0.9-1.1-1.8-2.2-2.6-3.3c-1.4-1.7-2.7-3.4-3.9-5.1c-0.4-0.5-0.7-0.9-1-1.4
	c-0.8-1.2-1.6-2.4-2.4-3.6c-0.1-0.2-0.3-0.4-0.4-0.6c0,0-0.1-0.1-0.1-0.1c-0.3-0.4-0.5-0.8-0.8-1.3c-0.3-0.6-0.7-1.1-1-1.7
	c-1.1-2.1-2.1-4.4-3.1-6.8c-3.2-8.2-5.2-17.9-6.4-26.2c3.7-4.2,9-7.3,16.6-8.3c0.7-0.1,1.4-0.2,2.1-0.3c0.1,0,0.1,0,0.2,0
	c0,0,0,0,0,0c0.6-0.1,1.2-0.1,1.8-0.2c0.6,0,1.2-0.1,1.7-0.1c0.9,0,1.7,0,2.5,0c0.5,0,1,0,1.5,0.1c0.5,0,1,0.1,1.4,0.1
	c0.5,0,0.9,0.1,1.3,0.2c0.5,0.1,1.1,0.2,1.6,0.3c0.2,0,0.5,0.1,0.7,0.1c0.2,0,0.4,0.1,0.7,0.2c0,0,0,0,0,0c0.2,0,0.4,0.1,0.6,0.2
	c0,0,0.1,0,0.1,0c0.2,0,0.4,0.1,0.6,0.2c0.2,0.1,0.5,0.1,0.7,0.2c0.4,0.1,0.7,0.2,1.1,0.4c0.4,0.1,0.8,0.3,1.1,0.4s0.7,0.3,1.1,0.5
	c0.3,0.1,0.7,0.3,1,0.5c0.3,0.1,0.6,0.3,0.8,0.4c1.9,1,3.7,2.2,5.3,3.5c0.3,0.2,0.5,0.4,0.8,0.6c0.3,0.2,0.6,0.5,0.8,0.7
	c0.3,0.3,0.6,0.5,0.8,0.8c0.7,0.7,1.4,1.5,2.1,2.3c0.2,0.2,0.3,0.4,0.5,0.6c0.2,0.2,0.3,0.4,0.4,0.5c0.1,0.1,0.2,0.3,0.4,0.5
	c0,0,0,0,0,0c0,0,0,0,0,0c0.2,0.2,0.4,0.5,0.5,0.7c0,0,0,0,0,0c0,0,0,0,0,0c0,0,0,0,0,0.1c0.1,0.1,0.1,0.2,0.2,0.3
	c0.1,0.1,0.2,0.3,0.3,0.4c0.5,0.7,0.9,1.4,1.3,2.1c0.5,0.8,1,1.7,1.4,2.6c0.3,0.6,0.6,1.3,0.9,1.9c0,0,0,0.1,0,0.1
	c2.2,4.8,3.4,9.8,4.2,14.2c0.1,0.6,0.2,1.3,0.3,1.9c0.1,0.5,0.1,1,0.2,1.5c0,0.4,0.1,0.8,0.1,1.2c0,0.1,0,0.2,0,0.3
	c0,0.4,0.1,0.9,0.1,1.3c0.1,0.7,0.1,1.3,0.1,1.9c0,0.2,0,0.4,0,0.6c0,0.2,0,0.4,0,0.5c0,0.2,0,0.4,0,0.6
	C334.6,341.2,334.6,341.4,334.6,341.6z"/>
<path class="st0" d="M322.7,406.7c-0.9,2-20.6-22.4-31.4-28.5c-10.9-6.2-20.9-21.9-20.9-21.9s-0.9-3-1.9-7.6c0-0.2-0.1-0.5-0.1-0.7
	c-0.2-1.2-0.4-2.4-0.7-3.7c-0.1-0.5-0.2-1.1-0.2-1.6c-0.1-0.8-0.2-1.7-0.3-2.5c-1.4-11.5-1-26.5,7.1-35.8c1.2,8.3,3.2,18,6.4,26.2
	c0.9,2.4,1.9,4.7,3.1,6.8c0.3,0.6,0.6,1.2,1,1.7c0.2,0.4,0.5,0.8,0.8,1.3c0,0,0,0.1,0.1,0.1c0.1,0.2,0.3,0.4,0.4,0.6
	c0.8,1.2,1.6,2.4,2.4,3.6c0.3,0.5,0.7,0.9,1,1.4c1.2,1.7,2.6,3.4,3.9,5.1c0.9,1.1,1.8,2.2,2.6,3.3c0.9,1.1,1.8,2.2,2.7,3.4
	c3,3.8,6.1,7.8,9.1,12.5c0.4,0.7,0.9,1.3,1.3,2v0c0.2,0.3,0.4,0.7,0.6,1c0.5,0.9,1,1.7,1.5,2.6c0.5,0.9,1,1.8,1.5,2.8
	c0.3,0.6,0.7,1.3,1,1.9c0.4,0.8,0.8,1.7,1.2,2.6C317.9,389.8,320.6,397.4,322.7,406.7z"/>
<path class="st0" d="M325.6,422.6c0-0.2,0-0.5,0-0.7c0.2-11.1,6.1-38.5,11.4-61.5c5.1-22.5-4.9-41.8-5.5-42.7v-0.8
	c-0.7,0-1.4,0.1-2.1,0.1c2.2,4.8,3.4,9.8,4.2,14.2c0.1,0.6,0.2,1.3,0.3,1.9c0.1,0.5,0.1,1,0.2,1.5c0,0.4,0.1,0.8,0.1,1.2
	c0,0.1,0,0.2,0,0.3c0,0.4,0.1,0.9,0.1,1.3c0.1,0.7,0.1,1.3,0.1,1.9c0,0.2,0,0.4,0,0.6c0,0.2,0,0.4,0,0.5c0,0.2,0,0.4,0,0.6
	c0,0.2,0,0.4,0,0.6c0,0.4,0,0.8,0,1.3c0,0.5-0.1,0.9-0.1,1.4c0,0,0,0.1,0,0.1c0,0.5-0.1,1.1-0.2,1.7c-0.1,0.6-0.1,1.2-0.2,1.9
	c0,0.2,0,0.4-0.1,0.6c-0.1,0.8-0.2,1.5-0.3,2.4c0,0,0,0.1,0,0.1c-0.1,0.5-0.2,1.1-0.2,1.6c-0.1,0.7-0.2,1.4-0.3,2.1
	c-0.1,0.6-0.2,1.2-0.3,1.9c-0.1,0.5-0.2,0.9-0.2,1.4c-0.2,0.8-0.3,1.7-0.5,2.5c-0.1,0.8-0.3,1.5-0.4,2.3c-0.3,1.4-0.5,2.8-0.8,4.2
	c-0.2,1.1-0.4,2.2-0.7,3.3c-0.3,1.4-0.6,2.8-0.8,4.2c-0.1,0.5-0.2,1-0.3,1.6c-0.1,0.5-0.2,0.9-0.3,1.4c-0.2,0.7-0.3,1.5-0.5,2.2
	c-0.1,0.5-0.2,1-0.3,1.5c-0.6,2.9-1.2,5.8-1.8,8.5c-0.1,0.4-0.2,0.9-0.3,1.3c0,0.1-0.1,0.2-0.1,0.3c-0.2,0.9-0.4,1.8-0.6,2.6
	c-0.2,0.7-0.3,1.4-0.4,2c-0.1,0.4-0.2,0.8-0.2,1.2c-0.1,0.4-0.2,0.7-0.2,1.1c-0.1,0.5-0.2,1-0.3,1.5c-0.1,0.6-0.2,1.2-0.4,1.8
	c-0.1,0.4-0.2,0.8-0.2,1.1c0,0.2-0.1,0.3-0.1,0.5c-0.2,0.9-0.3,1.7-0.4,2.3c0,0,0,0.1,0,0.1c0,0.2-0.1,0.4-0.1,0.6
	c0,0.2,0,0.4-0.1,0.5c0,0,0,0,0,0.1c-0.8,2-20.6-22.4-31.4-28.5c-10.9-6.2-20.9-21.9-20.9-21.9s-0.9-3-1.9-7.6
	c0-0.2-0.1-0.5-0.1-0.7c-0.2-1.2-0.5-2.4-0.7-3.7c-0.1-0.5-0.2-1.1-0.2-1.6c-0.1-0.8-0.2-1.7-0.3-2.5c-3.5,3-6.8,6.4-9.9,10.2
	c-34.9,42.8-36.4,32.1-51.7,60.6c-12.7,23.7-14.6,40-14.9,44.8l0.1-0.1c-0.1,1,0,1.5,0,1.5s6.5,22.9,14.9,29.9c0,0-0.1,0-0.1,0
	c0,0,0.1,0.1,0.1,0.1c0.4,0.3,0.7,0.5,1.1,0.8c2.7,1.7,7.2,3.7,12.7,5.5c0,0,0.1,0,0.1-0.1c11.6,3.9,27.1,7.4,36.2,6.7
	c0.1,0,0.1,0,0.2,0.1c1-0.1,2-0.2,2.9-0.5c11.8-2.8,13.9-7.5,13.9-7.5s-0.5,7.1-0.9,14.3c-0.4,6.9-0.7,13.8-0.5,14.5
	c0.2,1,4.8,7.8,24,2.1c8.3-2.5,19.4-7.4,34-16.1c0,0,0,0,0,0c-1.3-5.4-2.9-10.7-4.3-15.9c-2.7-9.7-0.8-21.5,3.8-32.3
	c0-0.1,0.1-0.2,0.1-0.3v0c-0.5-3.3-1-6.7-1.4-10.1c-0.1-0.5-0.1-0.9-0.2-1.4c-0.3-2.3-0.6-4.6-0.8-6.9c0-0.4-0.1-0.7-0.1-1.1
	c-0.1-0.7-0.1-1.5-0.2-2.2c-0.1-1.4-0.2-2.8-0.3-4.2c0-0.3,0-0.7-0.1-1c0-0.7-0.1-1.3-0.1-1.9c0-0.6-0.1-1.2-0.1-1.8
	c0-0.3,0-0.6,0-0.9c0-1.3,0-2.5,0-3.6C325.6,423.1,325.6,422.8,325.6,422.6z M257.5,434.8c-3.1,7-12.3,12.3-21.3,11.9
	c-0.3,0-0.5,0-0.8,0c-0.5,0-1-0.1-1.5-0.2c-0.3,0-0.7-0.1-1-0.2c-0.2,0-0.5-0.1-0.8-0.2c-3.8-0.9-7.3-2.9-10.2-6.4
	c-10.7-12.8-8.7-28.9,0-38.1c1.4-1.5,3-2.6,4.9-3.5c0.3-0.1,0.5-0.2,0.8-0.4c0,0,0.1,0,0.1-0.1c0.3-0.1,0.7-0.3,1.1-0.4
	c9.5-3.5,22.2,0,26.6,8C260.8,415.6,262.2,423.8,257.5,434.8z"/>
<path class="st0" d="M353.2,317.7c-0.1,0-0.1-0.1-0.2-0.1h0c-0.1-0.1-0.2-0.3-0.3-0.3c-4.2-0.4-11.8-0.9-21.2-0.5
	c-0.7,0-1.4,0.1-2.1,0.1c-0.3-0.6-0.6-1.3-0.9-1.9c-0.4-0.9-0.9-1.7-1.4-2.6c-0.4-0.7-0.8-1.4-1.3-2.1c-0.1-0.1-0.2-0.3-0.3-0.4
	c-0.1-0.1-0.1-0.2-0.2-0.3c0,0,0,0,0-0.1c0,0,0,0,0,0c0,0,0,0,0,0c0-0.1-0.1-0.1-0.1-0.2c-0.1-0.2-0.2-0.4-0.4-0.5c0,0,0,0,0,0
	c0,0,0,0,0,0c-0.1-0.2-0.2-0.3-0.4-0.5c-4.3-5.7-10.3-10.2-18.6-12c-0.2-0.1-0.4-0.1-0.7-0.1c-0.5-0.1-1.1-0.2-1.6-0.3
	c-0.4-0.1-0.9-0.1-1.3-0.2c-0.5-0.1-0.9-0.1-1.4-0.1c-0.5,0-1-0.1-1.5-0.1c-0.8,0-1.7,0-2.5,0c-0.6,0-1.2,0-1.7,0.1
	c-0.6,0-1.2,0.1-1.8,0.2c0,0,0,0,0,0c0.3-7,4.2-19.3,28-15.7C343,283.4,350.5,304.3,353.2,317.7z"/>
<path class="st0" d="M255.3,405.4c-4.3-8-17.1-11.5-26.6-8C238.2,394,250.9,397.5,255.3,405.4c5.5,10.2,6.9,18.4,2.1,29.4
	c-3,7-12.2,12.2-21.2,11.9c9,0.4,18.2-4.9,21.3-11.9C262.2,423.8,260.8,415.6,255.3,405.4z M225.4,408.3c4.2-3.7,11.4-3.5,16.9-2.7
	C236.8,404.8,229.6,404.6,225.4,408.3z"/>
<path class="st0" d="M255.2,405.4c-4.3-7.9-17-11.4-26.5-8c-0.4,0.1-0.7,0.3-1,0.4c0,0-0.1,0-0.1,0.1c-0.3,0.1-0.5,0.2-0.8,0.4
	c-1.8,0.9-3.4,2-4.8,3.5c-8.7,9.3-10.7,25.3,0,38.1c2.9,3.4,6.4,5.5,10.1,6.4c0.2,0.1,0.5,0.1,0.8,0.2c0.3,0.1,0.7,0.1,1,0.2
	c0.5,0.1,1,0.1,1.5,0.2c0.3,0,0.5,0,0.8,0c9,0.3,18.1-5,21.2-11.9C262.2,423.8,260.8,415.6,255.2,405.4z M245.1,431.8
	c-6.8,9.3-21.9,7.5-21.9,7.5s-5.7-17.8,0-28.3c0.3-0.6,0.7-1.1,1-1.6c0.2-0.2,0.3-0.4,0.5-0.6c0.2-0.2,0.3-0.3,0.5-0.5
	c4.2-3.7,11.4-3.6,16.9-2.7c1.2,0.2,2.4,0.4,3.4,0.7c0.5,0.1,1,0.2,1.5,0.4c0.3,0.1,0.6,0.2,0.9,0.2c0.1,0,0.2,0,0.2,0.1
	c0.1,0,0.2,0,0.2,0.1c0.2,0,0.3,0.1,0.5,0.1c0.4,0.1,0.7,0.2,0.7,0.2S251.9,422.5,245.1,431.8z"/>
<path class="st0" d="M249.6,407.4c0,0-0.2-0.1-0.7-0.2c-0.2,0-0.3-0.1-0.5-0.1c-0.1,0-0.1,0-0.2-0.1c-0.1,0-0.2,0-0.2-0.1
	c-0.3-0.1-0.6-0.2-0.9-0.2c-0.4-0.1-0.9-0.2-1.5-0.4c-1-0.2-2.2-0.5-3.4-0.7c-5.5-0.8-12.6-1-16.9,2.7c-0.2,0.2-0.4,0.3-0.5,0.5
	c-0.2,0.2-0.4,0.4-0.5,0.6c-0.4,0.5-0.7,1-1,1.6c-5.7,10.5,0,28.3,0,28.3s15.1,1.8,21.9-7.5C251.9,422.5,249.6,407.4,249.6,407.4z
	 M238.8,419.1c-4,2.6-10.2,4-10.3-0.6c-0.1-4.6,4.8-8.4,8-9.2c3.2-0.7,9,0.6,9.8,3.8C246.9,416.3,242.9,416.5,238.8,419.1z"/>
<path class="st0" d="M238.8,419.1c-4,2.6-10.2,4-10.3-0.6c-0.1-4.6,4.8-8.4,8-9.2c3.2-0.7,9,0.6,9.8,3.8
	C246.9,416.3,242.9,416.5,238.8,419.1z"/>
<path class="st0" d="M205.5,487c-8.8,0.5-18.2-2.8-21.1-12.6c-2.4-8.4,2.7-15.2,6.2-18.7c-0.1,1,0,1.5,0,1.5S197.2,480,205.5,487z"
	/>
<path class="st0" d="M241.5,598.3c0,0-15.4,11.5-18.4,12.9c-2.9,1.4-7.6,3.6-5.8,9.5c0.2,0.6,0.4,1.2,0.7,1.7c-4.5-2-8.8-3.8-12.5-5
	c-11.8-3.9-28.4-8.6-38-34.6c0.3,0.3,0.6,0.5,0.9,0.7v-0.1c0,0,0,0.1,0.1,0.1c0,0,0.1,0.1,0.1,0.2c0.2,0.2,0.5,0.5,0.7,0.7
	c3.8,3.4,8.8,8.1,13.1,8.7c4.3,0.6,10.9,1.7,14.2,2.6c3.3,0.9,27.7,3,35.5,2.8C240,598.2,241.5,598.3,241.5,598.3z"/>
<path class="st0" d="M305.1,569.2c-8.1,3.7-16.4,4-23.6,2.5c-1.3-0.3-2.7-0.7-4.3-1.2c-0.6-0.2-1.2-0.4-1.8-0.6
	c-0.5-0.2-1-0.3-1.5-0.5c-0.4-0.2-0.9-0.3-1.3-0.5c-2.7-1-5.5-2.1-8.4-3.3c-0.5-0.2-1-0.4-1.5-0.6l-2.2-1c-1-0.4-2-0.9-3-1.3
	c-0.7-0.3-1.3-0.6-2-0.9c-2-0.9-3.9-1.8-5.8-2.6c-0.6-0.3-1.2-0.6-1.8-0.8c-0.8-0.4-1.6-0.8-2.4-1.1c-0.6-0.3-1.2-0.6-1.8-0.9
	c-0.5-0.2-1-0.5-1.5-0.7c-0.9-0.4-1.7-0.8-2.4-1.2c-0.2-0.1-0.3-0.2-0.5-0.2c-0.4-0.2-0.8-0.4-1.1-0.5c-0.4-0.2-0.8-0.4-1.1-0.5
	c-0.3-0.2-0.7-0.3-1-0.5c-0.4-0.2-0.8-0.4-1.1-0.6c-0.2-0.1-0.4-0.2-0.6-0.3c-0.4-0.2-0.6-0.3-0.6-0.3s-12.5-5.8-21-7.7
	c0,0,0,0.1,0.1,0.1c0,0,0,0-0.1,0c1.5,2.8,5.2,7.3,8.6,11.2c3.4,3.9,6.4,7,6.4,7c0,0,0,0,0-0.1l19.2,10.7c0,0,0,0.7-0.3,1.5
	c0,0.1-0.1,0.1-0.1,0.2c-0.8,1.4-2.6,3-7.2,2c-7.7-1.6-21.3-8.9-28-10.6c-6.7-1.8-9.6-0.7-12.4-2.6c-2.7-1.9-8.4-4.6-8.4-4.6
	l-20.3-6.2c0,0,0.3,0.5,0.9,1.3c0.1,0.2,0.3,0.4,0.4,0.6c0.3,0.4,0.6,0.8,0.9,1.2c0.2,0.3,0.5,0.6,0.7,0.9c1.1,1.5,2.5,3.2,3.9,4.9
	c0.3,0.4,0.7,0.8,1,1.2c0.3,0.4,0.6,0.7,0.9,1.1c1.2,1.3,2.5,2.6,3.8,3.8c0.1,0.1,0.3,0.2,0.4,0.3c0.2,0.2,0.3,0.3,0.5,0.4
	c0.2,0.1,0.3,0.2,0.4,0.3c0.2,0.2,0.4,0.3,0.5,0.4c0.2,0.2,0.4,0.3,0.6,0.5v0c0.1,0.2,0.2,0.3,0.3,0.5c2.5,3.1,6.3,2.7,12.4,5.6
	c6.1,2.8,20,7.2,21.5,7.1c1.2-0.1,8.5,1.6,11.6,2.4c-4.9-0.5-20-2.1-25.4-2.2c-6.5-0.2-11,0.4-15.4-1.2c-4.5-1.6-9.6-4.3-13.9-5.5
	c-0.8-0.3-1.7-0.3-2.5-0.3l-2.6-1.1l-0.2-0.1l-6.6-2.8l0,0c-0.4-1.7-0.8-3.5-1.2-5.4c-7.8-40.6,22.5-49.2,28.5-52.7
	c6.1-3.6,12.8-10,25-18.9c0.9-0.6,1.7-1.1,2.7-1.5c0,0,0.1,0,0.1,0c11.6,3.9,27.1,7.4,36.2,6.7c0.1,0,0.1,0,0.2,0
	c5.2,2.1,10.6,4.3,15.9,6.3c-0.4,6.9-0.7,13.8-0.5,14.5c0.2,1,4.8,7.8,24,2.1C305.2,536,308.7,553.1,305.1,569.2z"/>
<path class="st0" d="M281.4,615c-7.9,8.3-18.4,14.5-27.4,16.7c-5.3,1.3-12.2-0.1-19.3-2.6c2.2-1.4,2.2-4.6,0.1-7.3
	c-2.8-3.6,21.2-13.9,22.2-14.4C257.8,607.1,270.6,613.9,281.4,615z"/>
<path class="st0" d="M422.9,375.1c-0.1,0-0.3,0-0.6-0.1c-0.1,0-0.1,0-0.2,0c0,0-0.1,0-0.1,0c-0.2,0-0.5-0.1-0.8-0.1
	c-0.1,0-0.3,0-0.5-0.1c-0.2,0-0.4-0.1-0.6-0.1c-0.1,0-0.3,0-0.4,0c-0.8-0.1-1.7-0.2-2.7-0.3c-0.6-0.1-1.2-0.1-1.9-0.2
	c-0.7-0.1-1.3-0.1-2-0.2c0,0,0,0-0.1,0c-0.8-0.1-1.7-0.2-2.6-0.2c-1.2-0.1-2.5-0.2-3.8-0.3c-0.2,0-0.4,0-0.6,0
	c-0.4,0-0.8-0.1-1.2-0.1c-0.2,0-0.3,0-0.5,0c-0.4,0-0.8,0-1.2-0.1c-4.4-0.2-8.7-0.3-12,0c-0.3,0-0.5,0-0.8,0.1
	c-0.2,0-0.4,0.1-0.6,0.1c-1.5,0.2-2.7,0.5-3.5,0.9c0.2,0.4,0.4,0.8,0.5,1.2c0.5,1.1,0.9,2.3,1.3,3.4h0c0,0,0,0,0,0.1l1.6,5.9
	c-0.4-1.9-1-3.9-1.6-5.9c0,0,0.1,0,0.1,0.1c0,0,0,0,0,0c0,0,0,0,0,0c0.5,1.8,1,3.5,1.4,5.2c0,0,0-0.1,0-0.1l0.1,0.2c0,0,0,0.1,0,0.1
	c0,0,0,0,0,0.1c0,0.1,0,0.1,0,0.2c0,0.1,0,0.1,0,0.2l0.1,0.5l0,0.1l0.1,0.4l0,0.1c0.1,0.3,0.1,0.5,0.2,0.8c0.5,2.6,0.8,5.1,1.1,7.5
	c0,0.4,0.1,0.8,0.1,1.2c0.1,1.5,0.2,2.8,0.3,4v1.7c0.1,2.9,0,4.7,0,4.7l-15.2-15.7c0,0,0.9,16.2,0.5,19.3
	c-4.8-8.6-10.5-8.3-15.2-5.7c-4.8,2.6-10.7,14.3-11.2,17.6c-0.4,2.7-11.1,18.1-15.4,24.7c-0.2,0.3-0.3,0.5-0.5,0.7
	c-0.1,0.1-0.2,0.3-0.3,0.4c-0.6,0.9-0.9,1.5-1,1.8l0.2,0.1c-1.7,2.8-3.3,5.9-4.6,9c-0.5-3.3-1-6.7-1.5-10c-0.1-0.5-0.1-0.9-0.2-1.4
	c-0.3-2.3-0.6-4.6-0.8-6.9c0-0.4-0.1-0.7-0.1-1.1c-0.1-0.7-0.1-1.5-0.2-2.2c-0.1-1.4-0.2-2.8-0.3-4.2c0-0.3,0-0.7-0.1-1
	c0-0.7-0.1-1.3-0.1-1.9c0-0.6-0.1-1.2-0.1-1.8c0-0.3,0-0.6,0-0.9c0-1.3,0-2.5,0-3.6c0-0.3,0-0.5,0-0.8c0-0.2,0-0.5,0-0.7
	c0.2-11.1,6.1-38.5,11.4-61.5c5.1-22.5-4.9-41.8-5.5-42.7v-0.8c-0.7,0-1.4,0.1-2.1,0.1c0,0,0-0.1,0-0.1c0.7,0,1.4-0.1,2.1-0.1
	c9.4-0.4,17,0.1,21.2,0.5c0.1,0,0.2,0.2,0.3,0.3h0c0,0,0.1,0.1,0.2,0.1c0.1,0.1,0.2,0.1,0.3,0.2c1.2,0.6,3.5,1.8,6.5,3.3
	c8.7,4.4,22.9,11.2,29.7,12.6c10.2,2.1,21.6,5.9,28.5,4l-8.5,7.1c0,0-1.2,2.8,10.7,6.4c11.9,3.6,11.9,11.4,11.9,11.4
	s-10.1-1.8-17-2.3c-0.1,0-0.2,0-0.4,0c-0.1,0-0.2,0-0.4,0c-0.2,0-0.5,0-0.7,0c-0.3,0-0.7,0-1,0c-0.3,0-0.6,0-0.9,0
	c-0.2,0-0.4,0-0.6,0h-0.1c-0.7,0-1.2,0.1-1.6,0.2C416.4,362.9,422.7,374.6,422.9,375.1z"/>
<path class="st0" d="M467.3,720.7c-0.1,1.2-0.7,2.3-1.9,3.3c-5.7,5-34.4,3.2-43.1,3.4s-22.6-1.3-22.6-1.3s-18-7.4-23.5-8.8
	c-0.2-0.1-0.3-0.1-0.5-0.2c-0.2-0.1-0.5-0.1-0.8-0.1c1.4-0.9,1.9-2.2,1.9-3.6c0-2.5-1.8-5.4-3.6-7.4c0.2-0.1,0.3-0.2,0.4-0.3
	c0.1-0.1,0.2-0.2,0.3-0.3c0.1-0.1,0.2-0.2,0.3-0.3c0.2-0.2,0.3-0.5,0.4-0.7c0-0.1,0.1-0.2,0.1-0.4c0.1-0.4,0.1-0.8,0-1.2
	c-0.1-1.1-0.7-2.1-1-2.7c0-0.1-0.1-0.1-0.1-0.2c-0.1-0.1-0.1-0.2-0.2-0.3c0,0,0,0,0,0s6.1,2.1,9.5,1l0.3-0.1c0.1,0,0.2-0.1,0.3-0.2
	c0.2-0.1,0.3-0.2,0.5-0.3c0,0,0,0,0,0c4.3,3.1,8.4,4.4,12.1,4.8c0.2,0,0.5,0,0.7,0.1c0.3,0,0.5,0,0.8,0c0.8,0,1.6,0,2.4,0
	c3.9-0.3,7.1-1.5,9.1-2.5c0.6,1,0.9,1.6,0.9,1.6s19.2,2,31.7,4.2c7.4,1.3,11.3-5.9,13.3-11.9c0,0,0,0,0-0.1c1.1,2.1,2.1,4.1,3.1,5.9
	c0.3,0.6,0.7,1.2,1,1.7c0.2,0.3,0.4,0.6,0.5,1c0.2,0.4,0.4,0.8,0.7,1.1c0.3,0.6,0.7,1.1,1,1.7c0,0,0,0.1,0,0.1
	c0.3,0.5,0.6,1,0.9,1.5c0.3,0.4,0.5,0.9,0.7,1.3c0.6,1,1.1,1.8,1.5,2.7c0,0.1,0.1,0.1,0.1,0.2c0.7,1.2,1.2,2.3,1.7,3.3
	c0.1,0.3,0.2,0.6,0.3,0.8c0.1,0.2,0.1,0.3,0.2,0.5c0.1,0.5,0.2,0.9,0.3,1.3C467.4,719.9,467.4,720.3,467.3,720.7z"/>
<path class="st0" d="M409.2,702.6c-2,1-5.1,2.2-9,2.5c-0.8,0-1.6,0.1-2.4,0c-0.2,0-0.5,0-0.8,0c-3.9-0.3-8.3-1.6-12.9-4.9
	c0,0,0,0-0.1,0c-0.1-0.3-3.4-8.5-3.4-13.3c0-1.9,0.6-3.3,2.1-3.3c5.5,0,12.1,9.7,12.1,9.7s7.4,0,9,1.4
	C405.2,695.7,407.8,700.2,409.2,702.6z"/>
<path class="st0" d="M351.2,726.6c-2.1,1.2-4.8,3.1-7.5,5.8c-0.3-5.2,1.4-8.7,2.4-10.3C347.3,723.8,349.2,726,351.2,726.6z"/>
<path class="st0" d="M377,713.5c0,1.4-0.5,2.6-1.9,3.6c-6.6-0.8-19.8,10.3-23.3,9.6c-0.2,0-0.3-0.1-0.5-0.1c-2-0.6-3.9-2.8-5.1-4.5
	c-0.2-0.3-0.3-0.5-0.5-0.7c6.7-8.4,11.4-16.5,18-16.7c3.5-0.2,6.4,0.4,8.3,1c0.2,0.1,0.5,0.1,0.7,0.2c0.2,0.1,0.5,0.1,0.7,0.2
	C375.2,708.1,377,711,377,713.5z"/>
<path class="st0" d="M380.6,752.6c-1.2,1.2-5.2,4.6-16.6,10.8c-3-5.6-3.9-11.1-4.1-14.3c0.1-0.1,0.1-0.2,0.2-0.4c0,0,0.1,0,0.1,0
	c0.6-0.2,1.2-0.4,2-0.6c0.1,0,0.1,0,0.2,0C368.1,746.3,377.7,744.8,380.6,752.6z"/>
<path class="st0" d="M412.3,758.8c-2.5,2.5-6.8,6.4-11.9,9.6c-3-4.6-2.1-16.9-2.1-17.4c0,0,0.1,0.1,0.2,0.1c0,0,0.1,0,0.1,0
	c0,0,0.1,0,0.1,0c0.1,0,0.2,0,0.3,0c0.1,0,0.1,0,0.2,0c0.2,0,0.5,0,0.7,0c0.1,0,0.3,0,0.4,0c0.2,0,0.4,0,0.7,0c0.2,0,0.4,0,0.7,0.1
	c0.2,0,0.5,0.1,0.7,0.1c0.2,0,0.4,0.1,0.6,0.1c0,0,0,0,0.1,0c0,0,0,0,0,0c0.2,0,0.5,0.1,0.8,0.2c0.2,0.1,0.5,0.1,0.7,0.2
	c0.5,0.1,1,0.3,1.4,0.5c0.2,0.1,0.4,0.2,0.6,0.2c0.1,0,0.1,0.1,0.2,0.1c0.5,0.2,0.9,0.5,1.4,0.8c0.4,0.2,0.7,0.5,1,0.8
	c0.1,0.1,0.2,0.2,0.3,0.3c0.1,0.1,0.2,0.2,0.3,0.3c0.4,0.4,0.8,0.9,1.1,1.3c0.1,0.1,0.2,0.3,0.3,0.4
	C411.7,757.4,412.1,758,412.3,758.8z"/>
<path class="st0" d="M332.2,713.9c0,0-0.1,0.1-0.1,0.1c-1.4,1.1-4.6,3.5-10.7,5.9c-0.5-7.1,4.9-12.1,5.7-12.8
	c0.1-0.1,0.1-0.1,0.1-0.1C327.2,708.3,331.2,712.8,332.2,713.9z"/>
<path class="st0" d="M342.8,721.4c-3.3,1.2-8.5,3.1-13.6,5.5c0.3-5.6,3.7-10.7,5.1-12.6C335.3,717,337.5,720.3,342.8,721.4z"/>
<path class="st0" d="M384,700.3c-0.1,0.1-0.2,0.2-0.3,0.2c-0.1,0.1-0.2,0.1-0.3,0.2l-0.3,0.1c-0.7,0.3-1.6,0.4-2.5,0.4
	c-3,0-6.4-1.1-7.1-1.3c-0.1,0-0.1,0-0.1,0c0,0,0,0.1,0.1,0.2c0,0.1,0.1,0.2,0.2,0.3c-3-2.1-10.9-7.6-14.7-11
	c-1.5-1.3-3.3-0.5-5.2,1.3c-0.2,0.2-0.4,0.4-0.5,0.6c-0.2,0.2-0.3,0.4-0.5,0.6c-0.2,0.3-0.5,0.6-0.8,0.9c-0.1,0.1-0.2,0.2-0.2,0.3
	c-0.3,0.4-0.7,0.9-1,1.4c-0.6,0.8-1.2,1.7-1.7,2.6c-0.1,0.2-0.3,0.4-0.4,0.7c-0.1,0.2-0.2,0.3-0.3,0.5c-0.4,0.7-0.9,1.4-1.3,2.1
	c-0.1,0.2-0.3,0.5-0.4,0.7c-0.1,0.1-0.1,0.2-0.2,0.3c-0.4,0.6-0.7,1.2-1,1.7c-0.1,0.1-0.1,0.2-0.2,0.3c-0.2,0.4-0.5,0.8-0.7,1.1
	c-0.2,0.3-0.4,0.6-0.6,0.9s-0.3,0.5-0.5,0.6c-0.1,0.1-0.2,0.2-0.3,0.4c-2.1,2.2-6.7,5.3-9.2,6.9c0,0-0.1,0-0.1,0.1
	c-0.1,0-0.1,0.1-0.2,0.1l-0.8-0.1c0,0-0.2,0.3-0.8,0.8l0,0c-1-1.1-5-5.6-5-6.9c0,0,0,0,0,0c0.1-1.4,8.1-7.4,12.1-9
	c4-1.7,7.6-16.4,16.6-16.6C364.7,681.3,383.4,699.7,384,700.3z"/>
<path class="st0" d="M374.8,704.2c0,0.1-0.1,0.2-0.1,0.4c-0.1,0.2-0.2,0.5-0.4,0.7c-0.1,0.1-0.2,0.2-0.3,0.3
	c-0.1,0.1-0.2,0.2-0.3,0.3c-0.1,0.1-0.2,0.2-0.4,0.3c-0.2-0.1-0.4-0.1-0.7-0.2c-0.2-0.1-0.5-0.1-0.7-0.2c-1.9-0.5-4.8-1-8.3-1
	c-6.6,0.2-11.3,8.3-18,16.7c-0.2-0.3-0.4-0.6-0.5-0.8c-0.6,0.2-1.4,0.5-2.3,0.8c-5.3-1.2-7.5-4.5-8.5-7.1c-0.1-0.3-0.2-0.7-0.3-1
	v-0.2c2.4-1.6,7-4.7,9.2-6.8c0.1-0.1,0.2-0.2,0.3-0.4c0,0,0.1-0.1,0.1-0.1c0.1-0.2,0.3-0.3,0.4-0.5c0.2-0.2,0.4-0.5,0.6-0.9
	c0.2-0.3,0.4-0.7,0.7-1.1c0.1-0.1,0.1-0.2,0.2-0.3c0.3-0.5,0.7-1.1,1-1.7c0.1-0.1,0.1-0.2,0.2-0.3c0.1-0.2,0.3-0.5,0.4-0.7
	c0.4-0.7,0.8-1.4,1.3-2.1c0.1-0.1,0.2-0.3,0.3-0.5c0.1-0.2,0.3-0.4,0.4-0.7c0.5-0.9,1.1-1.7,1.7-2.6c0.3-0.5,0.7-0.9,1-1.4
	c0.1-0.1,0.2-0.2,0.2-0.3c0.2-0.3,0.5-0.6,0.8-0.9c0.2-0.2,0.3-0.4,0.5-0.6c0.2-0.2,0.4-0.4,0.5-0.6c1.9-1.9,3.8-2.8,5.3-1.4
	c3.7,3.3,11.1,8.6,14.4,10.8c0.1,0,0.1,0.1,0.2,0.1c0,0,0.1,0,0.1,0.1c0.4,0.6,0.9,1.7,1,2.8C374.9,703.4,374.9,703.8,374.8,704.2z"
	/>
<path class="st0" d="M234,553.6c0,0.3,0,0.7,0,1c-0.1,1.6-0.7,3.6-2.6,4.9c-1,0.7-1.7,1.2-2.3,1.6c-0.2,0.1-0.3,0.2-0.4,0.3
	c-0.1,0.1-0.2,0.2-0.3,0.2c-0.1,0-0.1,0.1-0.2,0.1c-0.1,0.1-0.2,0.1-0.2,0.2c-0.1,0.1-0.1,0.1-0.2,0.2c0,0,0,0,0,0c0,0,0,0,0,0.1
	c0,0-3-3.2-6.4-7c-3.4-3.9-7.1-8.4-8.6-11.2c0,0,0,0,0.1,0c8.6,1.9,20.9,7.7,20.9,7.7S234,552.5,234,553.6z"/>
<path class="st0" d="M190.5,558.8c0,0.1-0.3,0.3-0.6,0.7c-0.1,0.1-0.2,0.2-0.3,0.4c-0.1,0.1-0.2,0.3-0.4,0.5c0,0,0,0.1-0.1,0.1
	c-2,2.5-5.3,7.2-3.5,9.4c-0.1-0.1-0.2-0.2-0.4-0.2v0c-0.2-0.1-0.4-0.3-0.6-0.5c-0.2-0.1-0.4-0.3-0.5-0.4c-0.1-0.1-0.3-0.2-0.4-0.3
	c-0.2-0.1-0.3-0.3-0.5-0.4c-0.1-0.1-0.3-0.2-0.4-0.3c-1.3-1.1-2.5-2.4-3.8-3.8c-0.3-0.3-0.6-0.7-0.9-1.1c-0.3-0.4-0.7-0.8-1-1.2
	c-1.5-1.8-2.8-3.5-3.9-4.9c-0.2-0.3-0.5-0.6-0.7-0.9c-0.3-0.5-0.6-0.9-0.9-1.2c-0.2-0.2-0.3-0.4-0.4-0.6c-0.6-0.8-0.9-1.3-0.9-1.3
	L190.5,558.8z"/>
<path class="st0" d="M173.7,575.9l-5.2,7.5v0.1c0,0-0.1,0-0.1-0.1c0,0,0,0,0,0c-0.3-0.2-0.5-0.4-0.8-0.6c-2.3-1.8-5.1-5.4-7.4-8.5
	c-2.3-3.1-4-5.8-4-5.8l8.2,3.4l0,0l6.6,2.8l0.2,0.1L173.7,575.9z"/>
<path class="st0" d="M232,629.9c-10.6,7.9-33.1,5-33.1,5s6.4-1.4,10.5-3.8c4-2.4,8.7-8.5,8.7-8.5l0,0
	C220.7,627.3,227.9,629.9,232,629.9z"/>
<g>
	<path class="st0" d="M664,598c0,0.8-0.1,1.6-0.1,2.5c0,0.9-0.1,1.8-0.2,2.6c-0.1,0.9-0.1,1.9-0.2,2.8c-0.1,1.5-0.3,2.9-0.4,4.3
		c0,0.3-0.1,0.7-0.1,1c-0.1,0.7-0.2,1.4-0.2,2.1c-0.1,0.9-0.2,1.8-0.4,2.7c-0.1,0.7-0.2,1.3-0.3,2c-0.1,0.4-0.1,0.8-0.2,1.1
		c-0.1,0.6-0.2,1.2-0.3,1.8c-0.1,0.8-0.3,1.6-0.4,2.5c0,0,0,0,0,0.1c-0.3,1.6-0.6,3.2-1,4.9c-1.8,7.8-4.2,15.6-7.3,23.8
		c-0.3,0.8-0.7,1.6-1,2.5c-1.3,3.3-2.8,6.7-4.4,10.2c-1.4,2.2-2.8,4.4-4.1,6.5l-0.9,1.3l-11.1,15.4c0-0.1,0.1-0.2,0.1-0.3
		c7.8-16.6,13.7-34.8,17.4-53.5c0.3-1.2,0.5-2.5,0.7-3.7c0.4-2.2,0.8-4.5,1.2-6.7c0.1-0.5,0.2-1,0.2-1.5c0.3-1.9,0.6-3.8,0.8-5.7
		c0.1-0.8,0.2-1.7,0.3-2.5c0.1-0.8,0.2-1.6,0.3-2.5c0.1-0.8,0.2-1.7,0.3-2.5c0.1-0.8,0.2-1.7,0.2-2.5c0.1-0.8,0.1-1.6,0.2-2.4
		c0-0.1,0-0.1,0-0.2c0.1-1.6,0.2-3.2,0.3-4.8c0.1-1.6,0.2-3.3,0.2-4.9c0.2-3.8,0.2-7.5,0.2-11.2c0-2.3-0.1-4.6-0.2-6.9
		c-0.1-1.5-0.1-3.1-0.2-4.6c-0.1-1.5-0.2-3-0.3-4.5c-0.2-2.1-0.4-4.2-0.6-6.3c-0.2-2-0.5-4-0.8-6c-0.1-0.7-0.2-1.3-0.3-2
		c-0.1-0.7-0.2-1.4-0.4-2.1c-0.1-0.7-0.3-1.5-0.4-2.2c-0.2-1-0.4-2-0.6-2.9c-0.4-1.9-0.8-3.8-1.3-5.7c-0.4-1.8-0.9-3.5-1.4-5.3
		c-0.2-0.9-0.5-1.7-0.8-2.6c-0.2-0.8-0.5-1.6-0.7-2.3c-3.8-11.7-9-22.2-15.6-31c-29.8-39.7-69.9-48-112.2-56.8
		c-5.3-1.1-10.8-2.3-16.1-3.5c-47.2-10.5-108.4-47.1-110.9-48.7l-1-3.6l0-0.1c0-0.1,0-0.1,0-0.2c0,0,0,0,0,0c0,0,0-0.1,0-0.1
		c0,0,0,0,0,0s0,0,0,0c0,0,0-0.1,0-0.1c0,0,0-0.1,0-0.1c0-0.1-0.1-0.3-0.1-0.4c0-0.2-0.1-0.3-0.1-0.5c0,0,0,0,0-0.1c0,0,0,0,0,0
		c-0.4-1.7-0.9-3.5-1.4-5.2c3.1,1.8,70.6,41.5,115.6,51.5c5.3,1.2,10.8,2.3,16,3.4c33.7,7.1,68.4,14.3,97.2,38.8
		c0.5,0.4,0.9,0.8,1.4,1.2c0.9,0.8,1.9,1.7,2.8,2.5c0.5,0.5,1,1,1.5,1.5c2.2,2.1,4.3,4.3,6.4,6.6c0.7,0.7,1.3,1.5,2,2.2
		c0.8,0.9,1.6,1.8,2.4,2.8c0.2,0.2,0.4,0.4,0.5,0.6c0.4,0.5,0.7,0.9,1.1,1.4c0.6,0.8,1.2,1.6,1.8,2.4c17.2,22.9,26.8,52.8,27.5,86.4
		C664.3,586.5,664.2,592.4,664,598z"/>
	<path class="st0" d="M389.9,386l-0.1-0.4l0-0.1l-0.1-0.5c0-0.1,0-0.1,0-0.2c0-0.1,0-0.1,0-0.2c0,0,0,0,0-0.1c0,0,0-0.1,0-0.1
		c0,0,0-0.1,0-0.1c0,0,0,0,0,0c-0.4-1.7-0.9-3.4-1.4-5.2c0,0,0,0,0,0c0.5,1.8,1,3.5,1.4,5.2c0,0,0,0,0,0c0,0,0,0,0,0.1
		c0,0.2,0.1,0.3,0.1,0.5c0,0.1,0.1,0.3,0.1,0.4c0,0,0,0.1,0,0.1c0,0,0,0.1,0,0.1c0,0,0,0,0,0s0,0,0,0c0,0,0,0.1,0,0.1c0,0,0,0,0,0
		C389.9,385.9,389.9,386,389.9,386z"/>
	<path class="st0" d="M387.9,379.1C387.9,379,387.9,379,387.9,379.1L387.9,379.1C387.9,379,387.9,379,387.9,379.1
		C387.9,379,387.9,379,387.9,379.1z"/>
	<path class="st0" d="M389.5,385l-1.6-5.9C388.5,381.1,389.1,383.1,389.5,385z"/>
</g>
<g>
	<path class="st0" d="M603.9,419.7c-0.1,0-0.2,0-0.3,0h0c-0.2,0-0.5,0-0.9,0c-0.1,0-0.3,0-0.4,0c-0.8,0-1.8,0-3.2,0
		c-0.3,0-0.6,0-0.9,0c-0.8,0-1.8,0.1-2.8,0.1c-0.3,0-0.5,0-0.8,0c-1.1,0.1-2.3,0.1-3.7,0.2c-12.4,0.7-26.4,1.4-39.8-0.5
		c-26.1-3.9-88.1-39.1-90.2-40.3l0.8,0.2l1.6,0.3c5.3,1.3,10.7,2.4,15.9,3.2l6.2,1.3c0.5,0.3,42.3,23.8,66.9,27.4
		c12.5,1.9,26.2,1.1,38.2,0.5c3.1-0.2,6.5-0.3,7.7-0.4c0.2,0.3,0.5,0.8,1,1.4c0-0.1-0.1-0.2-0.1-0.2c1.5,2.1,3.1,4.3,4.8,6.6
		C603.8,419.6,603.8,419.7,603.9,419.7z"/>
</g>
</svg>
