<?xml version="1.0" encoding="utf-8"?>
<!-- Generator: Adobe Illustrator 25.2.0, SVG Export Plug-In . SVG Version: 6.00 Build 0)  -->
<svg version="1.1" baseProfile="tiny" id="Layer_1" xmlns="http://www.w3.org/2000/svg" xmlns:xlink="http://www.w3.org/1999/xlink"
	 x="0px" y="0px" viewBox="0 0 1000 1000" overflow="visible" xml:space="preserve">
<path fill="#FFFFFF" stroke="#000000" stroke-miterlimit="10" d="M556,113.3c-2.1,21.3-25,29.6-44.4,31.1
	c-3.49,0.3-6.86,0.32-9.98,0.17c-1-0.04-1.97-0.1-2.92-0.17c-0.3,0-0.6-0.1-0.9-0.1c-0.32-0.04-0.64-0.09-0.95-0.15
	c-0.02,0-0.04,0-0.07-0.01c-1.28-0.27-2.4-0.61-3.31-0.95c0,0,0,0-0.01,0c-1.01-0.37-1.77-0.73-2.21-0.96
	c-0.02-0.01-0.03-0.02-0.05-0.03c-0.11-0.06-0.21-0.13-0.32-0.2c-2.3-1.54-3.97-3.69-5.05-6.15c-0.11-0.21-0.2-0.43-0.28-0.65
	c-0.25-0.62-0.47-1.25-0.65-1.9c-0.2-0.74-0.36-1.49-0.47-2.26c-0.06-0.38-0.11-0.77-0.14-1.16c-0.04-0.39-0.07-0.79-0.09-1.18
	v-0.04c0.03,0.02,0.07,0.03,0.1,0.04c-0.1-3.2,0.3-6.4,1.4-9.3c2-5.8,6.2-10.4,11.9-11c0,0,23.3,3.4,25.6-1.4
	c2.3-4.9-2-13.2-23.8-20.7C477.6,78.8,425,54.7,419,39.2c0,0,47.9,17.5,75.8,23.8C522.7,69.4,558.6,86.6,556,113.3z"/>
<path fill="#FFFFFF" stroke="#000000" stroke-miterlimit="10" d="M484.3,128.7c-0.03-0.01-0.07-0.02-0.1-0.04
	c-2.76-0.9-5.43-2.58-8.1-4.56c-2.2-1.66-4.36-3.56-6.53-5.43c-0.34-0.29-0.69-0.59-1.03-0.88c-0.34-0.3-0.69-0.59-1.03-0.87
	c-4.49-3.77-9.09-7.12-14.21-7.92c-10.96-1.79-18.44,16.65-20.28,21.54c-0.01,0.02-0.01,0.04-0.02,0.06c-0.3,0.7-0.4,1.1-0.4,1.1
	l-10.3-24.1c0,0,0.8-4.6,3.1-10.2c25.53,0.3,50.17,15.12,60.22,21.95c0.03,0.01,0.05,0.03,0.08,0.05
	C484.6,122.3,484.2,125.5,484.3,128.7z"/>
<path fill="#FFFFFF" stroke="#000000" stroke-miterlimit="10" d="M497.6,108.4c-5.7,0.6-9.9,5.2-11.9,11
	c-0.03-0.02-0.05-0.04-0.08-0.05c-10.05-6.83-34.69-21.65-60.22-21.95c3.6-8.4,10.9-19.1,24.7-19.1
	C468.7,78.3,490.1,100.1,497.6,108.4z"/>
<path fill="#FFFFFF" stroke="#000000" stroke-miterlimit="10" d="M434.9,134.3c0,0-0.28,28.28-1.13,49.61
	c-0.02,0.45-0.04,0.89-0.06,1.32c0,0.13,0,0.25-0.01,0.37c-0.03,0.02-0.07,0.04-0.1,0.07c-0.26,0.17-0.53,0.35-0.79,0.52
	c0,0.01-0.01,0.01-0.01,0.01c0-0.03-0.01-0.06-0.01-0.09c-2.11-14.98-8.2-32.23-11.49-40.91c0.3-0.2,0.7-0.3,1-0.5
	c-1.7-6.4,0-37.1,0-37.1l10.3,24.1c0,0,0.1-0.4,0.4-1.1l1.86,3.62L434.9,134.3z"/>
<path fill="#FFFFFF" stroke="#000000" stroke-miterlimit="10" d="M481.7,247.6c0,0-8.3,4.5-15.2,13.3l0,0c-4.4,5.6-8.2,13-8.9,22.2
	c-2.6-5.2-5-9.7-7.1-13.5c-8.5-15.4-12.7-20.3-12.7-20.3s6-13.6,7-22.6c1.3-0.2,2.7-0.4,4-0.5c1,1.5,5.1,2.5,14.7,2.5
	c0.6,0,1.2,0,1.8,0L481.7,247.6z"/>
<path fill="#FFFFFF" stroke="#000000" stroke-miterlimit="10" d="M464.5,227.7c-0.4,0.3-0.7,0.6-1.1,0.8c-9.6,0.1-13.6-1-14.7-2.5
	c-2.2-3.2,9.9-8.5,9.9-8.5c12.4-6.3,29.2-26.6,40.9-42.5c7.8-10.6,13.3-19.2,14-20.8c0.1-0.2,0.1-0.5,0.2-0.8c0.9,0.1,1.9,0.4,3,0.6
	C519.2,161,520.4,183.7,464.5,227.7z"/>
<path fill="#FFFFFF" stroke="#000000" stroke-miterlimit="10" d="M531,164.6c-2.1-6.29-8.78-9.19-14.27-10.49
	c-0.01-0.01-0.02-0.01-0.03-0.01c2.4,7,3.6,29.6-52.3,73.6l0.04,0.05l0.66,0.75c0.06,0,0.12-0.01,0.18-0.01
	c7.24-0.32,14.27-2.01,20.82-4.59c0.03-0.01,0.07-0.03,0.1-0.04c2.17-0.89,4.33-1.78,6.4-2.86c16.9-8.3,29.3-21,31.9-25
	c2.5-3.9,6.1-11.1,7.2-18.8C532.5,173,532.4,168.6,531,164.6z M520.5,157.2c0.1,0.1,0.2,0.1,0.2,0.2c-0.2-0.1-0.3-0.2-0.4-0.3
	C520.4,157.1,520.4,157.1,520.5,157.2z M524.4,175.3c-3.4,13.1-23.3,33.4-35.1,40.9c37.6-45.4,33.6-56.4,31.6-58.7
	C522.6,159.2,527.2,164.6,524.4,175.3z"/>
<path fill="#FFFFFF" stroke="#000000" stroke-miterlimit="10" d="M444.9,224.6L444.9,224.6c-3.5-0.3-9.4,0.8-15.8,2.4
	c-0.8,0.2-1.5,0.4-2.3,0.6c-2.5,0.6-5,1.3-7.4,2c-3.2,0.9-6.3,1.9-9,2.8c-4.1,1.3-7.3,2.4-8.7,2.9c-0.4,0.1-0.7,0.2-0.7,0.2
	s-0.9-17.5-15.6-22.7c9.8,6,10.2,24.4,10.2,24.4l-12.7,5.3c0,0-2.7-19-11.4-20.5c8.2,8.8,6.7,19.7,6.7,19.7s-9.2-5.2-19-13.4
	c-7.2-6.1-9.4-14.8-10.1-18.9c13.8-4.5,40.5-6,49.9-7.4c2.1-0.3,4.6-1.1,7.3-2.2C421,204,433.7,216.4,444.9,224.6z"/>
<path fill="#FFFFFF" stroke="#000000" stroke-miterlimit="10" d="M444.9,224.6c0,0.6-0.1,1.3-0.1,1.9c-5.2,0.8-10.5,2-15.8,3.5
	c-0.3,0.1-0.6,0.2-0.9,0.3c-2.8,0.8-5.6,1.7-8.4,2.6c-1.9,0.6-3.8,1.3-5.7,2c-1.2,0.4-2.4,0.9-3.6,1.3c-3.3,1.2-6.4,2.5-9.3,3.7
	c-9.4,4-16.8,7.6-20.1,9.2c-0.4-0.4-0.9-0.8-1.3-1.2c-8.5-7.7-20.7-15.3-31-21.1l0,0c-1.9-2.9-5.1-7.5-8.3-11.8
	c0.4-0.4,0.7-0.8,1-1.2c1.3-1.7,4.1-3.2,7.9-4.4c0.7,4.1,2.8,12.8,10.1,18.9c9.8,8.3,19,13.4,19,13.4s1.5-10.9-6.7-19.7
	c8.8,1.4,11.4,20.5,11.4,20.5l12.7-5.3c0,0-0.4-18.4-10.2-24.4c14.6,5.2,15.6,22.7,15.6,22.7s0.2-0.1,0.7-0.2
	c1.3-0.5,4.5-1.6,8.7-2.9c2.7-0.9,5.8-1.8,9-2.8c2.4-0.7,4.9-1.4,7.4-2c0.8-0.2,1.6-0.4,2.3-0.6
	C435.5,225.4,441.4,224.3,444.9,224.6z"/>
<path fill="#FFFFFF" stroke="#000000" stroke-miterlimit="10" d="M340.6,222.4c-2.7,2.6-9.5,9.4-15.9,19.2c-1.2-2.7-1.9-5.1-2.2-7.1
	c-1.4-9.4,5.5-12.3,11.6-15.5C335.9,220,338.1,221.1,340.6,222.4z"/>
<path fill="#FFFFFF" stroke="#000000" stroke-miterlimit="10" d="M490.4,165c-0.49,3.82-2.26,7.58-4.69,11.02
	c-0.17,0.25-0.34,0.49-0.52,0.73c-0.17,0.24-0.35,0.49-0.54,0.73c-0.14,0.19-0.29,0.37-0.44,0.55c-0.24,0.31-0.49,0.62-0.74,0.92
	c-0.46,0.55-0.93,1.08-1.4,1.6c-0.44,0.47-0.88,0.94-1.32,1.39c-0.01,0.01-0.02,0.02-0.03,0.04c-1.37,1.37-2.78,2.65-4.16,3.82
	c-0.63,0.51-1.24,1.01-1.85,1.48c-0.3,0.23-0.61,0.46-0.9,0.68c-0.02,0.01-0.04,0.02-0.05,0.04c-0.58,0.42-1.15,0.82-1.7,1.19
	c-0.59,0.4-1.15,0.76-1.69,1.09c-0.19,0.12-0.38,0.23-0.57,0.34c-0.13,0.08-0.26,0.15-0.38,0.21c-0.23,0.13-0.46,0.26-0.67,0.37
	c-0.65,0.34-1.24,0.6-1.75,0.8c-0.63,0.26-1.45,0.44-2.39,0.57c-0.14,0.02-0.29,0.04-0.43,0.05c-0.39,0.04-0.8,0.07-1.22,0.09
	c-1.15,0.06-2.43,0.05-3.75-0.01c-0.4-0.01-0.81-0.03-1.21-0.06c-0.41-0.03-0.82-0.05-1.23-0.09c-0.2-0.01-0.4-0.02-0.59-0.04
	c-0.21-0.02-0.41-0.03-0.61-0.06c-0.11-0.01-0.21-0.02-0.32-0.03l-1.5-0.15c-0.43-0.05-0.86-0.1-1.29-0.15
	c-0.85-0.1-1.69-0.21-2.49-0.32c-2.01-0.28-3.81-0.58-5.17-0.8l-0.01,0.01c-0.03,0-0.06-0.01-0.09-0.01c14.2-15.5,34-36.2,45.9-45.6
	c0.03-0.03,0.07-0.06,0.1-0.09C491,148.61,491.5,155.81,490.4,165z"/>
<path fill="#FFFFFF" stroke="#000000" stroke-miterlimit="10" d="M476.1,124.1c-6.5,3.4-17.4,8-23.4,4.1c-8.9-5.7-17.8,6-17.8,6
	l-1.9-3.7c1.8-4.8,9.3-23.3,20.3-21.6C461.7,110.3,468.7,118.5,476.1,124.1z"/>
<path fill="#FFFFFF" stroke="#000000" stroke-miterlimit="10" d="M493.46,143.19c-0.01,0.01-0.02,0.01-0.03,0.02
	c-0.01,0-0.02-0.01-0.03-0.01c-0.04,0.03-0.08,0.06-0.12,0.09c-0.11,0.08-0.22,0.17-0.34,0.26c-0.66,0.46-1.33,0.97-1.99,1.55
	c-0.08,0.06-0.16,0.13-0.25,0.2v0.01c-0.03,0.03-0.07,0.06-0.1,0.09c-11.9,9.4-31.7,30.1-45.9,45.6
	c-5.03,5.53-9.38,10.37-12.38,13.76c0.02-0.13,0.03-0.29,0.05-0.46c0.96-3.4,1.21-7.67,0.93-12.3c0.1-1.98,0.2-4.15,0.3-6.33
	c0.03-0.03,0.07-0.05,0.1-0.07c0.01-0.12,0.01-0.24,0.01-0.37c0.02-0.43,0.04-0.87,0.06-1.32c12.6-27.32,43.56-44.53,51.77-48.71
	c0.07,0.23,0.17,0.45,0.27,0.67c0.11,0.26,0.23,0.52,0.36,0.77c0.3,0.59,0.63,1.15,0.99,1.69c0.09,0.13,0.17,0.25,0.26,0.37
	c0.58,0.81,1.25,1.55,2,2.21c0.14,0.14,0.29,0.26,0.45,0.39c0.29,0.24,0.61,0.47,0.93,0.69h0.01c0.01,0.01,0.03,0.01,0.05,0.03
	c0.06,0.03,0.18,0.1,0.34,0.18c0.02,0.01,0.03,0.02,0.05,0.03C491.69,142.46,492.45,142.82,493.46,143.19z"/>
<path fill="#FFFFFF" stroke="#000000" stroke-miterlimit="10" d="M491.2,142.2c-0.16-0.08-0.28-0.15-0.34-0.18
	c-0.02-0.02-0.04-0.02-0.05-0.03h-0.01c-0.32-0.22-0.64-0.45-0.93-0.69c-0.16-0.13-0.31-0.25-0.45-0.39c-0.75-0.66-1.42-1.4-2-2.21
	c-0.09-0.12-0.17-0.24-0.26-0.37c-0.36-0.54-0.69-1.1-0.99-1.69c-0.13-0.25-0.25-0.51-0.36-0.77c-0.1-0.22-0.2-0.44-0.27-0.67
	c-8.21,4.18-39.17,21.39-51.77,48.71c-0.02,0.45-0.04,0.89-0.06,1.32c0,0.13,0,0.25-0.01,0.37c-0.03,0.02-0.07,0.04-0.1,0.07v-0.07
	c0-0.09,0.01-0.18,0.01-0.27c0.02-0.39,0.03-0.79,0.05-1.19c0.85-21.45,1.14-49.84,1.14-49.84s0.02-0.03,0.06-0.08
	c0.01-0.01,0.02-0.03,0.03-0.04c0.2-0.25,0.7-0.87,1.45-1.64c0.03-0.03,0.06-0.07,0.1-0.1l0.54-0.54c0.05-0.06,0.1-0.11,0.15-0.15
	c0.22-0.2,0.44-0.41,0.69-0.63c0.13-0.12,0.26-0.23,0.4-0.35c0.13-0.12,0.27-0.24,0.42-0.35c0.14-0.13,0.29-0.24,0.44-0.36
	c0.15-0.12,0.3-0.24,0.46-0.35c0.16-0.12,0.32-0.24,0.48-0.35c0.16-0.11,0.32-0.22,0.49-0.33c0.34-0.23,0.69-0.44,1.05-0.64
	c0.22-0.12,0.44-0.24,0.67-0.36c3.04-1.52,6.7-2.11,10.37,0.27c6,3.9,16.9-0.7,23.4-4.1c2.6,2,5.3,3.7,8.2,4.6
	c0.02,0.36,0.04,0.72,0.09,1.08c0.03,0.39,0.08,0.78,0.14,1.16c0.11,0.77,0.27,1.52,0.47,2.26c0.18,0.65,0.4,1.28,0.65,1.9
	c0.08,0.22,0.17,0.44,0.28,0.65c1.08,2.46,2.75,4.61,5.05,6.15C490.99,142.07,491.09,142.14,491.2,142.2z"/>
<path fill="#FFFFFF" stroke="#000000" stroke-miterlimit="10" d="M499.62,174.83v0.01c0,0.06-0.01,0.1-0.02,0.16
	c-11.7,15.9-28.5,36.2-40.9,42.5c0,0-12.1,5.3-9.9,8.5c-0.03,0-0.06,0-0.09,0.01c-1.27,0.1-2.64,0.29-3.91,0.49
	c0.1-0.7,0.1-1.3,0.1-1.9c-0.35-0.26-0.71-0.52-1.2-0.9c-0.07-0.05-0.14-0.11-0.22-0.16c-0.25-0.19-0.54-0.41-0.87-0.66
	c-0.08-0.06-0.17-0.13-0.26-0.2c-0.17-0.14-0.37-0.29-0.57-0.44c-0.1-0.08-0.21-0.16-0.32-0.25c-0.25-0.2-0.52-0.42-0.82-0.64
	c-0.01,0-0.01,0-0.01,0c-0.13-0.1-0.26-0.21-0.4-0.32c-0.96-0.77-2.14-1.7-3.62-2.86c-0.27-0.21-0.56-0.44-0.86-0.68
	c-0.88-0.69-1.87-1.47-2.96-2.33c-0.37-0.29-0.75-0.59-1.15-0.9c-0.39-0.3-0.78-0.61-1.17-0.9c-0.39-0.31-0.78-0.61-1.18-0.9
	c-0.78-0.6-1.56-1.18-2.35-1.76c-6.39-4.65-13.19-8.8-20.44-10.9c8.8-3.4,19.89-9.79,26.29-13.69c0-0.01,0.01-0.01,0.01-0.01
	c0,0.03,0.01,0.06,0.01,0.09c0.26,2.16-0.07,14.43-0.44,18.11c-0.02,0.17-0.03,0.33-0.05,0.46c-0.01,0.05-0.01,0.1-0.02,0.14
	c3-3.4,7.39-8.29,12.49-13.89l0.01-0.01c1.36,0.22,3.16,0.52,5.17,0.8c0.8,0.11,1.64,0.22,2.49,0.32c0.43,0.05,0.86,0.1,1.29,0.15
	l1.5,0.15c0.11,0.01,0.21,0.02,0.32,0.03c0.2,0.03,0.4,0.04,0.61,0.06c0.19,0.02,0.39,0.03,0.59,0.04c0.41,0.04,0.82,0.06,1.23,0.09
	c0.4,0.03,0.81,0.05,1.21,0.06c1.32,0.06,2.6,0.07,3.75,0.01c0.42-0.02,0.83-0.05,1.22-0.09c0.14-0.01,0.29-0.03,0.43-0.05
	c0.98-0.11,1.83-0.3,2.49-0.57c0.49-0.19,1.04-0.46,1.65-0.8c0.21-0.11,0.44-0.24,0.67-0.37c0.12-0.06,0.25-0.13,0.38-0.21
	c0.19-0.11,0.38-0.22,0.57-0.34c0.54-0.33,1.1-0.69,1.69-1.09c0.55-0.37,1.12-0.77,1.7-1.19c0.01-0.02,0.03-0.03,0.05-0.04
	c0.29-0.22,0.6-0.45,0.9-0.68c0.61-0.47,1.22-0.97,1.85-1.48c1.38-1.17,2.79-2.45,4.16-3.82c0.01-0.02,0.02-0.03,0.03-0.04
	c0.44-0.45,0.88-0.92,1.32-1.39c0.47-0.52,0.94-1.05,1.4-1.6c0.25-0.3,0.5-0.61,0.74-0.92c0.15-0.18,0.3-0.36,0.44-0.55
	c0.19-0.24,0.37-0.49,0.54-0.73c0.18-0.24,0.35-0.48,0.52-0.73c2.43-3.44,4.2-7.2,4.69-11.02c1.1-9.19,0.6-16.39,0.3-19.69v-0.01
	c0.09-0.07,0.17-0.14,0.25-0.2c0.72-0.57,1.38-1.09,1.99-1.55c0.12-0.09,0.23-0.18,0.34-0.26c0.04-0.03,0.08-0.06,0.12-0.09
	c0.01,0,0.02,0.01,0.03,0.01c1.01,0.39,2.14,0.71,3.35,0.93c0.03,0.01,0.05,0.01,0.07,0.01c0.31,0.06,0.63,0.11,0.95,0.15
	c0.3,0,0.6,0.1,0.9,0.1c0,0.02,0.01,0.04,0.01,0.06C499.61,150.65,501.18,163.41,499.62,174.83z"/>
<path fill="#FFFFFF" stroke="#000000" stroke-miterlimit="10" d="M401.1,240c-0.9,6.1-2.4,14.8-4.9,22.4
	c-4.4,13.5-19.1,35.2-19.1,35.2l-9.4-12.3l-6.5-8.5l18.5-28.7c0.4,0.4,0.9,0.8,1.3,1.2C384.4,247.6,391.7,243.9,401.1,240z"/>
<path fill="#FFFFFF" stroke="#000000" stroke-miterlimit="10" d="M524.4,175.3c-3.4,13.1-23.3,33.4-35.1,40.9
	c37.6-45.4,33.6-56.4,31.6-58.7C522.6,159.2,527.2,164.6,524.4,175.3z"/>
<path fill="#FFFFFF" stroke="#000000" stroke-miterlimit="10" d="M608.9,200.7c-11.3-0.4-27.3,1.1-37,10.8c-0.4,0.4-0.9,0.9-1.3,1.3
	c-8.4,9.7-13.4,22.8-13,35.2c-8.6-3.2-32.1-11.4-38.4-8.3c-3-4.5-7.7-8.4-12.4-11.5c-2.8-1.8-5.5-3.3-8-4.5c-2.3-1.1-4.4-2.1-6-2.7
	c16.9-8.3,29.3-21,31.9-25c2.5-3.9,6.1-11.1,7.2-18.8c2.2,4.3,7.4,11.6,18.2,15.5c15.9,5.8,44.1,5.4,54.9,7.1
	C606.2,200.1,607.6,200.4,608.9,200.7z"/>
<path fill="#FFFFFF" stroke="#000000" stroke-miterlimit="10" d="M627.7,207.8c-0.9-0.1-14.9-2.2-22.3,13.9
	c-1.5-1.4-2.9-2.5-4.4-3.3c-0.1,0-0.1-0.1-0.2-0.1c-1.9-0.9-3.8-1.8-5.7-2.5c-9.5-3.6-18.3-4.4-23.2-4.5c9.6-9.7,25.7-11.2,37-10.8
	l0,0C618.1,202.9,627,207.5,627.7,207.8z"/>
<path fill="#FFFFFF" stroke="#000000" stroke-miterlimit="10" d="M483.1,253.8c-3.5,11.4-1.4,39,3.3,59.5l0,0c1.8,8,4,14.8,6.5,19.2
	c-6.5-5.8-11.4-13.4-15.2-21.6c-8.4-18.6-10.6-40.2-11.2-50.1l0,0c6.9-8.8,15.2-13.3,15.2-13.3l-16.5-19.1c7.3-0.3,14.4-2,21-4.6
	c0.7,7.7,3.6,31.1,14.1,47.9c-2.6-14.3-7.1-37.1-1.5-48.1c2.5,1.2,5.3,2.8,8,4.5c-5.2,42.2,13.1,71.4,13.6,72.2
	C519.9,300.2,485.6,283.6,483.1,253.8z"/>
<path fill="#FFFFFF" stroke="#000000" stroke-miterlimit="10" d="M500.3,271.8c-10.5-16.8-13.4-40.2-14.1-47.9
	c2.2-0.9,4.4-1.8,6.5-2.9c1.6,0.7,3.7,1.6,6,2.7C493.2,234.7,497.7,257.5,500.3,271.8z"/>
<path fill="#FFFFFF" stroke="#000000" stroke-miterlimit="10" d="M619.3,283.1c-7.4,0.8-16.5,1.4-25.3,0.5l0,0
	c-6.1-8.4-14-22.1-12.4-34.6c2-14.8,13.7-25.9,19.4-30.4c1.5,0.7,2.9,1.9,4.4,3.3c2.8,2.6,5.5,6.3,8.1,10.5
	C609,239,596,262.8,619.3,283.1z"/>
<path fill="#FFFFFF" stroke="#000000" stroke-miterlimit="10" d="M634.4,280.6c0,0-1,0.2-2.9,0.6c-2.6,0.5-7,1.3-12.2,1.8
	c-23.4-20.2-10.3-44.1-5.9-50.8C625.1,251,634.4,280.6,634.4,280.6z"/>
<path fill="#FFFFFF" stroke="#000000" stroke-miterlimit="10" d="M581.6,248.9c-1.6,12.5,6.4,26.2,12.4,34.6
	c-4.4-0.4-8.7-1.2-12.7-2.5c-33.1-38.9,0.2-58.9,13.8-65.1c1.9,0.7,3.8,1.5,5.7,2.5c0.1,0,0.1,0.1,0.2,0.1
	C595.3,223,583.6,234.1,581.6,248.9z"/>
<path fill="#FFFFFF" stroke="#000000" stroke-miterlimit="10" d="M581.4,281c-0.8-0.2-1.6-0.5-2.3-0.8c-2-0.8-3.9-1.7-5.7-2.8
	c-1-0.6-1.9-1.2-2.7-1.9c-8.8-7.1-12.8-17-13-27.5c-0.3-12.4,4.6-25.5,13-35.2c0.4-0.5,0.8-0.9,1.3-1.3c4.9,0.1,13.7,0.9,23.2,4.5
	C581.5,222.1,548.2,242.1,581.4,281z"/>
<path fill="#FFFFFF" stroke="#000000" stroke-miterlimit="10" d="M633.6,297.6c0,1.1-0.1,1.7-0.1,1.7s-26.5-0.2-43.1-6.5
	c-2.7-1-5-2.3-7-3.6c-1.7-1.1-3.1-2.4-4.4-3.7c-2.8-2.8-4.5-5.8-5.7-8.2c1.8,1.1,3.6,2,5.7,2.8c0.7,0.3,1.5,0.6,2.3,0.8
	c4,1.3,8.3,2.1,12.7,2.5l0,0c8.8,0.9,17.9,0.4,25.3-0.5c5.2-0.6,9.5-1.3,12.2-1.8C633.6,286.7,633.7,294.2,633.6,297.6z"/>
<path fill="#FFFFFF" stroke="#000000" stroke-miterlimit="10" d="M641.5,311.6L641.5,311.6c-0.7,0.1-13.9,2-34.2-2.8
	c-8.4-2-14-6-17.7-10l0,0c-0.8-0.9-1.6-1.8-2.2-2.7c-1.9-2.6-3.1-5.1-3.9-6.9c2,1.4,4.3,2.6,7,3.6c16.6,6.2,43.1,6.5,43.1,6.5
	s0-0.7,0.1-1.7C640.1,302.3,641.5,311.6,641.5,311.6z"/>
<path fill="#FFFFFF" stroke="#000000" stroke-miterlimit="10" d="M651.2,329.1c0,0-1.6-0.3-5.1-1c-5.5-1.1-15.6-3.3-31.3-7.2
	c-0.9-0.2-1.7-0.4-2.5-0.7c-17.3-5.1-21.6-16.2-22.7-21.4c3.7,4.1,9.4,8.1,17.7,10c20.4,4.8,33.6,2.9,34.2,2.8
	C647.9,318.6,651.2,329.1,651.2,329.1z"/>
<path fill="#FFFFFF" stroke="#000000" stroke-miterlimit="10" d="M639.6,336.2c-0.1,0-0.3,0-0.4-0.1c-1.5-0.3-3.3-0.7-5.1-1.4
	c-3.6-1.2-7.6-3-11.7-5c-6.4-3.1-12.8-6.7-17-9.2c2.5-0.1,4.9-0.3,6.9-0.4c0.8,0.2,1.6,0.5,2.5,0.7c15.7,3.8,25.8,6,31.3,7.2
	C646.9,332.2,646.7,337.2,639.6,336.2z"/>
<path fill="#FFFFFF" stroke="#000000" stroke-miterlimit="10" d="M680.9,483.3c-24.4-24.1-18.4-48.2-21.6-69
	c-3.2-21.1-8-38.1-14.9-56c-3.8-9.8-3.4-15-2.3-17.7c7.9,12.3,20.6,34,26,54.5C674.1,417.6,678.8,461,680.9,483.3z"/>
<path fill="#FFFFFF" stroke="#000000" stroke-miterlimit="10" d="M682.2,497c-0.1-1-1.1-5-8.2-11.2c-2.5-2.2-5.9-4.7-10.3-7.5
	c-18.5-11.6-24.3-36.6-31.9-55.3c-7.5-18.7-27.1-32.5-39.1-51.2c-11.9-18.7,3.8-33.8,14.3-30.4c9.2,3,14.2-8.7,15.3-11.6
	c4.1,2,8.1,3.8,11.7,5c-2.2,3-7.7,8.9-20.7,15.2c-18.9,9.3-9.5,25.4,2.4,37.5s33.8,67.4,39.8,77.5c4.9,8.1,17.4,13.1,25.8,22
	C681.8,492.4,682.1,496,682.2,497z"/>
<path fill="#FFFFFF" stroke="#000000" stroke-miterlimit="10" d="M680.9,483.3c-24.4-24.1-18.4-48.2-21.6-69
	c-3.2-21.1-8-38.1-14.9-56c-3.8-9.8-3.4-15-2.3-17.7c-1.08-1.66-2.05-3.23-2.94-4.51c-0.02-0.03-0.04-0.06-0.06-0.09
	c-1.5-0.3-3.3-0.7-5.1-1.4c-0.01,0.02-0.02,0.03-0.04,0.05c-0.02,0.03-0.05,0.07-0.08,0.11c-2.27,3.04-7.8,8.85-20.58,15.04
	c-7.62,3.75-10.64,8.6-10.74,13.86c-0.01,0.12-0.01,0.25-0.01,0.38c0.04,7.67,6.16,16.15,13.15,23.26c11.9,12.1,33.8,67.4,39.8,77.5
	c4.9,8.1,17.4,13.1,25.8,22C681.2,485.8,681,484.6,680.9,483.3z M657.18,456.53c-17.88-20.49-26.28-67.43-26.28-67.43
	s-18.04-17.37-18.61-28.28c-0.02-0.31-0.02-0.62,0-0.92c0.12-2.58,1.34-4.73,4.21-6.1c14.8-7.1,26.5,20,26.5,20h-3.2
	c0,0-13.6-22-19.6-13.4c-0.8,1.15-1.19,2.28-1.25,3.41c-0.02,0.13-0.02,0.27-0.02,0.41c0.05,7.21,12.97,14.26,18.07,22.68
	c2.2,12.7,10.3,48.9,20.5,70C657.39,456.78,657.28,456.66,657.18,456.53z"/>
<path fill="#FFFFFF" stroke="#000000" stroke-miterlimit="10" d="M361.2,276.7l6.5,8.5c-0.1,3.9-0.4,9.8-1.4,16.6
	c-0.4,2.6-0.9,5.3-1.5,8.2c-1.1,4.8-2.5,9.9-4.5,14.8c-4.4-1.9-11.1-5.4-12.8-10.4c2.3-18.5-10.6-25.1-22.1-34.2
	c-7.5-5.9-9.4-15.4-9.8-21.2l0,0c2.5-6.4,5.7-12.3,9-17.3c6.4-9.8,13.1-16.6,15.9-19.2c2.5,1.3,5.3,2.8,8.1,4.4l0,0
	c10.4,5.8,22.5,13.4,31,21.1L361.2,276.7z"/>
<path fill="#FFFFFF" stroke="#000000" stroke-miterlimit="10" d="M348.7,226.9c-2.9-1.6-5.6-3.1-8.1-4.4c-2.4-1.3-4.6-2.4-6.5-3.3
	c-6.1,3.1-13,6.1-11.6,15.5c-6.1-4.2-13.7-12.3-13.7-12.3l11.3,0.4l-12.6-13.2l12.5,4.7l-7.2-15.6l20.2,16.9c0,0-2-7.6-2.2-12.2
	c1.3,1,5.3,6.2,9.4,11.7C343.6,219.4,346.8,223.9,348.7,226.9z"/>
<path fill="#FFFFFF" stroke="#000000" stroke-miterlimit="10" d="M457.5,316.1c0,0-25.6,41.2-55.4,54.7c-13.3,6-21.6,10.5-26.6,13.6
	c-0.9,0.6-1.8,1.1-2.5,1.6c0.9-2.6,1.7-5.1,2.6-7.6c6.2-17.8,11.9-33.3,11.6-38.5c-0.4-7.5-14.4-22.2-22.3-30
	c0.6-2.8,1.1-5.5,1.5-8.2c10.6,4.8,36.1,14.4,63.6,11.5c-1.1,3-2.3,6-3.7,9c1.8-2.8,3.6-5.9,5.4-9.2c7.5-0.9,15-2.8,22.5-6
	C456.7,313.2,457.5,316.1,457.5,316.1z"/>
<path fill="#FFFFFF" stroke="#000000" stroke-miterlimit="10" d="M571.8,326.6c-6.2,19.2-14.1,32.1-14.1,32.1l12.2,26.7l-13.7,26.1
	c-27-25.6-74.3-80.4-81.6-89.3c-1.8-2.2-5.3-8.4-9.6-16.6c2.7,1.4,7.1,3.4,12.9,5.2c3.7,8.2,8.6,15.8,15.2,21.6
	c-2.4-4.4-4.6-11.3-6.5-19.2c19.8,4.5,50.9,5.6,91.2-11.3C576.3,310.9,574.1,319.2,571.8,326.6z"/>
<path fill="#FFFFFF" stroke="#000000" stroke-miterlimit="10" d="M579.1,285.6c-0.1,5.6-0.6,11.1-1.4,16.4l0,0
	c-40.3,16.9-71.4,15.7-91.2,11.3l0,0c-4.7-20.4-6.8-48-3.3-59.5c2.6,29.8,36.8,46.4,37.3,46.7c-0.5-0.8-18.8-30.1-13.6-72.2
	c4.8,3.1,9.4,6.9,12.4,11.5c6.3-3.2,29.9,5.1,38.4,8.3c0.3,10.4,4.3,20.4,13,27.5c0.9,0.7,1.8,1.3,2.7,1.9
	C574.5,279.8,576.3,282.8,579.1,285.6z"/>
<path fill="#FFFFFF" stroke="#000000" stroke-miterlimit="10" d="M612.2,320.2c-2,0.1-4.4,0.2-6.9,0.4c-8.2,0.4-17.5,0.8-19.2,0.3
	c1.4-5.6,1.2-19.3,1.1-24.8c0.7,0.9,1.4,1.8,2.2,2.7l0,0C590.6,304,594.9,315.1,612.2,320.2z"/>
<path fill="#FFFFFF" stroke="#000000" stroke-miterlimit="10" d="M685.4,528.5c0,1.1-0.5,2.4-1.2,3.6c-2.3,3.9-7.5,8-10.1,9.9
	l-10-19.3c0,0-5.8-5.8-13.6-6c-2.6-0.1-4.6,1-6.1,2.4c-2.3,2.2-3.6,5.3-4,6.6l0,0c-0.1,0.4-0.2,0.7-0.2,0.7s-2.5-2.7-8.6-5.6
	c-1.4-0.7-3.1-1.4-4.9-2.1c-3.7-10.3,0.9-29.5,3.7-39.4l0,0l0,0c-2.9-15.5-28.1-69.5-37.6-87.1c-9.8-18.1-9.6-35.3-9-50.4
	c-4.2-4.3-8.5-9.9-12-14.9c2.4-7.4,4.5-15.7,5.9-24.7l0,0c0.8-5.3,1.3-10.8,1.4-16.4c1.2,1.3,2.7,2.5,4.4,3.7
	c0.7,1.8,1.9,4.3,3.9,6.9c0.1,5.5,0.2,19.2-1.1,24.8c1.6,0.5,10.9,0.1,19.2-0.3c4.2,2.5,10.6,6,17,9.2c-1.1,2.9-6,14.6-15.3,11.6
	c-10.5-3.4-26.3,11.6-14.3,30.4c11.9,18.7,31.5,32.5,39.1,51.2c7.5,18.7,13.4,43.7,31.9,55.3c4.4,2.8,7.7,5.3,10.3,7.5
	C678.5,496.3,683.5,516.8,685.4,528.5z"/>
<path fill="#FFFFFF" stroke="#000000" stroke-miterlimit="10" d="M784,755.3c0,0-1-0.4-2.5-0.5c-3.5-0.5-9.8-0.1-14.2,6.8
	c-0.3,0.4-0.5,0.8-0.7,1.2c-0.2-0.3-0.4-0.7-0.6-1.1c-10.8-20.1-76.4-152-107.8-215.1c-1-1.9-1.9-3.8-2.8-5.6
	c-4.7-9.5-8.5-17.1-10.9-21.9c1.5-1.4,3.5-2.5,6.1-2.4c7.8,0.2,13.6,6,13.6,6l10,19.3l9.8,19l0,0L784,755.3z"/>
<path fill="#FFFFFF" stroke="#000000" stroke-miterlimit="10" d="M863.9,795.3c-6.9,12.2,3,37,3,37s-7.3-8.7-13.6-14.2
	c-6.3-5.4-24.1-16.1-28.9-2.4c-4.7,13.6,10.8,10.5,10.8,10.5c-17.5,6.6-18.7-5.7-17.9-10c0.7-4.2,4.6-8.8,12.3-11.6
	c7.8-2.7,18.2,2.3,27.8,10.2c-4.9-10.2,8.2-31.4,15.4-37.9c-7.3,1.4-33.4,1-39.9-1.9c2.5,9.7-4.2,17.2-11.6,23.7
	c-6.2,5.4-18.6,3.3-22.6,2.5c-2.9-5.2-4.7-8.5-4.9-8.9c-1-2.2-8.1-29.6-12.4-37.6c1.6,0.2,2.5,0.5,2.5,0.5c3.6,0.7,3.9,1.9,3.9,1.9
	s5.7,17.7,11.5,27.4c5.8,9.8,16.5,13.8,25.6,4.7c8.9-8.9-13.5-34.6-14.1-35.3c0.7,0.4,25.1,15.3,36,19.8c11.1,4.6,38.2-2.7,38.2-2.7
	S870.8,783.1,863.9,795.3z"/>
<path fill="#FFFFFF" stroke="#000000" stroke-miterlimit="10" d="M885,967.4c0,2.3-29.9-42.5-38.2-54.6s-49.1-65.5-49.1-65.5
	s17.9-0.9,25.6,4.7c15.7,27.9,32.2,57,37.1,66L885,967.4z"/>
<path fill="#FFFFFF" stroke="#000000" stroke-miterlimit="10" d="M885,967.4L860.5,918c-3.5-9.1-19.8-39.9-35.5-68.7
	c1.9-8.8,10.2-23.2,10.2-23.2S885,965.1,885,967.4z"/>
<path fill="#FFFFFF" stroke="#000000" stroke-miterlimit="10" d="M797.8,847.4c0.2-0.3,3.2-4.4,4-6.6c0.9-2.3-0.6-15.5-12.6-9.2
	c-11.9,6.2,2.5,39.7,2.9,40.5c-0.5-0.6-12.5-14.7-22.1-18.4c-9.5-3.6-38.6,13-40.4,14c1.7-1.3,26.4-20,28.9-27.8
	c2.6-8-2.3-18.1-9.2-38.8c14.1,24.7,31,16.6,34.7,14.6s4.9-6.6,1.7-21s-19.8-28.1-19.8-28.1v-5.1c0.2,0.4,0.4,0.7,0.6,1.1
	c0.2-0.4,0.5-0.8,0.7-1.2c0.7,2.2,1.5,4.4,2.7,5c2.6,1.3,16.6,15.6,21.4,26.8c0.6,1.5,2.1,4.5,4.3,8.5
	c-0.6,19.5-11.8,20.7-17.8,24.2c-5.9,3.4-18.9-7.9-19.2-8.2c0.3,0.4,5,7.9,7.5,16.3c1.9,6.3-5.3,11.8-9.4,14.5
	c-1.4,0.7-2.4,1.4-2.7,1.5c0.3-0.2,1.4-0.7,2.7-1.5c4.6-2.4,13.5-6.4,17.4-2.8c5.1,4.5,8,9.9,8.4,10.7c-0.3-1.1-3.7-13.5-1.5-20.3
	c2.3-7.2,11.2-13.4,17.7-11.8C805.1,826,814.5,839.4,797.8,847.4z"/>
<path fill="#FFFFFF" stroke="#000000" stroke-miterlimit="10" d="M823.4,852.1c-7.7-5.5-25.6-4.7-25.6-4.7l0,0
	c16.8-8,7.3-21.4,0.8-23s-15.4,4.6-17.7,11.8c-2.2,6.8,1.2,19.2,1.5,20.3c-0.4-0.7-3.4-6.1-8.4-10.7c-4-3.6-12.9,0.4-17.4,2.8
	c4.1-2.6,11.3-8.2,9.4-14.5c-2.5-8.5-7.2-15.9-7.5-16.3c0.4,0.3,13.3,11.6,19.2,8.2c6-3.5,17.2-4.7,17.8-24.2
	C801.5,812.9,812.2,832.2,823.4,852.1z"/>
<path fill="#FFFFFF" stroke="#000000" stroke-miterlimit="10" d="M857.5,814.8c-9.6-7.9-20.1-12.9-27.8-10.2s-11.6,7.3-12.3,11.6
	c-0.7,4.2,0.4,16.6,17.9,10c0,0-8.3,14.3-10.2,23.2c-10.4-19.3-20.5-37.6-26.3-48.1c4,0.8,16.3,2.9,22.6-2.5
	c7.5-6.5,14.1-14,11.6-23.7c6.5,2.9,32.6,3.2,39.9,1.9C865.6,783.4,852.6,804.6,857.5,814.8z"/>
<path fill="#FFFFFF" stroke="#000000" stroke-miterlimit="10" d="M604.4,624.6c-0.6,1-1.2,1.9-1.9,2.9
	c-22.3,33.1-46.2,54.4-72.4,69.7c-2.1,1.2-4.2,2.4-6.4,3.6C558.6,638,553,567.2,553,567.2c26.3-4.7,44.4-61.6,47.4-71.5
	c0.3-1,0.4-1.5,0.4-1.5S609.8,568.2,604.4,624.6z"/>
<path fill="#FFFFFF" stroke="#000000" stroke-miterlimit="10" d="M544.8,468.9c-3.4-13.5-9.1-18.6-9.1-18.6
	c-2.6-1.6-18-17.5-28.9-31.9c-8.87-0.99-17.36-9.84-19.32-9.9h-0.08c-1.9,0.2,1.9,6.9,1.7,10c-0.15,2.29-7.59,4.9-13.61,0.58
	c-0.03-0.02-0.06-0.04-0.09-0.07c-0.14-0.11-0.28-0.21-0.42-0.32c-0.14-0.11-0.28-0.23-0.41-0.35c-0.27-0.23-0.54-0.49-0.81-0.76
	c-1.45-1.48-2.76-3.46-3.76-6.08c-4.6-11.8,10.3-19.8,14.7-21.9c-2.19-2.39-4.39-4.79-6.68-7.08c-0.01-0.01-0.01-0.01-0.02-0.02
	c-14.06,3.29-27.62,12.35-33.44,19.24c-0.03,0.02-0.04,0.04-0.06,0.06c-7.23-10.64-18.17-16.14-22.96-18.25
	c-0.12-0.05-0.23-0.1-0.34-0.15c-3.8,4.9-7.6,10.4-11.4,16.6c-5.83,9.75-13.49,18.4-21.14,25.51c-0.16,0.17-0.33,0.32-0.49,0.46
	c-0.19,0.18-0.38,0.36-0.57,0.53c-10.44,9.55-20.89,16.52-27,20.34c-0.03,0.02-0.07,0.04-0.1,0.06c0.2,23.9,4.3,52,5.4,59
	c0.02-0.05,0.03-0.1,0.05-0.15c0.08-0.25,0.17-0.5,0.25-0.75c-0.05,0.42-0.08,0.83-0.08,1.25c0,0.38,0.03,0.77,0.08,1.15v0.2
	c0.27,3.23,1.45,6.85,3.14,10.52c0.56,1.22,1.16,2.45,1.82,3.67c6.2,11.59,15.94,22.61,15.94,22.61l4.86-5.66l0.04-0.04
	c-2.33-2.6-6-7.18-9.39-13.44c-0.69-1.28-1.37-2.63-2.02-4.05c-5.51-11.89-9.22-28.54-2.99-48.51
	c11.02-35.28,35.9-28.24,42.91-15.46c0.25,0.43,0.47,0.87,0.66,1.32c0.79,1.79,1.23,3.67,1.23,5.54c0,15.7-21.83,28.08-34.8,4.34
	c-0.14-0.24-0.27-0.49-0.4-0.74c-0.03-0.06-0.06-0.13-0.1-0.2c0,0-1.45,12.22,5.63,27c0.38,0.8,0.79,1.61,1.23,2.42
	c1.41,2.65,3.11,5.36,5.14,8.08c0.94,1.24,1.7,2.44,2.31,3.61c0.26,0.49,0.5,0.97,0.7,1.44c5.97,13.67-7.46,23.19,2.94,44.86
	c0.4,0.85,0.84,1.72,1.33,2.61c1.39,2.56,3.11,5.28,5.22,8.18c0,0,6.1-6,10.8-3.9c-0.03,0.03-0.05,0.06-0.08,0.09
	c-8.55,9.52-14.09,27.61-3.42,60.61c10.8,33.2,21.5,65,21.1,76.6c0.06-0.45,0.13-0.88,0.19-1.31c0.14-0.93,0.27-1.84,0.41-2.79
	c1.35-8.65,3.6-17.3,6.22-25.6c2.63-8.3,5.63-16.25,8.48-23.5c0.3-0.7,0.6-1.5,0.9-2.2c4.8-11.9,9.2-21.8,10.7-27.8
	c3.48-13.73,6.03-36.24,0.59-47.48c-0.07-0.14-0.13-0.27-0.2-0.4c-0.03-0.07-0.07-0.13-0.11-0.19c-0.01-0.05-0.05-0.09-0.06-0.11
	c-0.06-0.14-0.14-0.28-0.22-0.42v-0.1c15.7-8.6,20.4-11.6,23.5-27.6c3-15.9-2.2-25,6-34.9c8.1-9.78,17.86-24.25,13.95-36.55
	c-0.05-0.15-0.1-0.3-0.15-0.45c-7.88,8.26-25.24,12.19-34.4,3.56c-0.1-0.09-0.2-0.19-0.29-0.29c-2.66-2.64-4.58-6.39-5.31-11.47
	c-2.89-20.22,26.07-22.51,37.92-10.42c1.28,1.31,2.36,2.78,3.18,4.42c8.4,16.8,19.6,52.1-6.2,84c-0.4,0.5-0.8,1-1.2,1.5
	c0.1,0.05,0.2,0.09,0.31,0.14c2.76,1.27,6.44,2.68,10.49,3.26c6.2,1,13.3,0.1,18.9-5.8c7.05-7.55,10.4-17.4,11.99-24.77
	c0.14-0.67,0.26-1.31,0.38-1.92c0.69-3.72,0.92-6.59,1-7.88c0.01-0.01,0-0.02,0-0.02c0.02-0.46,0.03-0.71,0.03-0.71
	C548.1,487.5,546.8,476.8,544.8,468.9z M422.32,432.21c1.1-0.78,2.18-1.65,3.23-2.6c1.38-1.22,2.72-2.56,3.99-3.97
	c8.16-9,13.96-20.54,13.96-20.54c0.01,0.02,0.01,0.03,0.02,0.05c5.22,11.63,22.22,26.57,23.5,27.68c0.05,0.05,0.08,0.07,0.08,0.07
	s-12.4,4.6-25.6,24.1c-2.1-11.2-13.5-20.7-19.3-24.7C422.24,432.27,422.28,432.24,422.32,432.21z M478.9,497.2
	c-6.2,10.1-19.2,47.6-21.3,62.4c-2.2,14.9-13.1,46.7-13.1,57.1c0,10.3-4.5,29.7-4.5,29.7s-7.8-20-8.4-27.3c-0.7-7.3-0.7-7.8-0.7-9.9
	c0-2.2-3.9-38.1-3.2-45.4c0.6-7.3-12.1-54.5-11.6-66.5l25.8,13.4C441.9,510.6,469,499.6,478.9,497.2z"/>
<path fill="#FFFFFF" stroke="#000000" stroke-miterlimit="10" d="M478.1,382.5c-14.1,3.3-27.7,12.4-33.5,19.3
	c-7.4-10.9-18.7-16.4-23.3-18.4c15.1-19.4,29.1-28.4,29.1-28.4S464.6,368.4,478.1,382.5z"/>
<path fill="#FFFFFF" stroke="#000000" stroke-miterlimit="10" d="M387.2,467.7c0,0-2.2,18.5,12,37.5c14.2,18.9-11.2,28,12.5,60.7
	c-3.8,2.9-3.9,8.2-3.9,8.2c-3.2-8.9-6.2-16.5-8.6-22.2c-2.8-6.6-4.7-10.5-4.7-10.5s-0.9-0.9-2.4-2.5c-6.8-7.6-25-32-14.4-66
	c12.9-41.3,44.8-24.6,44.8-8.6C422.5,480.2,400.1,492.7,387.2,467.7z"/>
<path fill="#FFFFFF" stroke="#000000" stroke-miterlimit="10" d="M399.2,664.1c-13.8,12.9-16.8,35.3,0,60.3
	c-1.1-0.6-2.3-1.1-3.4-1.7c-14.1-7.6-27.2-18.7-37.9-34.1c3.1-1.6,6.4-3.1,6.2-4.6c-0.4-3.1-10.6-24.7-10.9-25.4
	c0.3,0.2,9,7.2,16.6,10.5c7.7,3.3-2.2-5-8.9-10.8c-6.5-5.6-10.6-18.9-10.9-19.8c0.3,0.5,4.1,6.7,8.9,10.4c5,3.9,20.8-5.7,10.1-7.6
	c-10.8-1.9-15.9-13.5-15.9-13.5s15.4,2.9,15.4-3.6c-23.8-5-13.9-28.7-13.9-28.7s2.7,14.5,7,17.4s14.6-0.1,3-7.5
	c-11.6-7.3-4.6-36.5-4.6-36.5s2.8,10.7,5.7,15.7c2.9,5,10.6-5.9,7.6-13.5c-2.8-7.3-1.3-17.1-1.2-17.5c0,0.4,5.7,12.8,13.6,13.5
	s13.5-15.2,13.5-15.2c2.4,5.7,5.5,13.3,8.6,22.2C382.9,594.8,383.7,639.1,399.2,664.1z"/>
<path fill="#FFFFFF" stroke="#000000" stroke-miterlimit="10" d="M399.2,551.9c0,0-5.6,15.9-13.5,15.2s-13.6-13.1-13.6-13.5
	c-0.1,0.5-1.7,10.2,1.2,17.5c3,7.6-4.8,18.5-7.6,13.5c-2.9-5-5.7-15.7-5.7-15.7s-7.1,29.2,4.6,36.5c11.6,7.3,1.3,10.3-3,7.5
	c-4.3-2.9-7-17.4-7-17.4s-9.9,23.7,13.9,28.7c0,6.5-15.4,3.6-15.4,3.6s5.2,11.6,15.9,13.5c10.8,1.9-5,11.5-10.1,7.6
	c-4.8-3.7-8.6-9.9-8.9-10.4c0.3,0.8,4.4,14.2,10.9,19.8c6.8,5.8,16.6,14.1,8.9,10.8c-7.6-3.3-16.4-10.3-16.6-10.5
	c0.3,0.7,10.5,22.3,10.9,25.4c0.2,1.6-3,3-6.2,4.6c-17.2-24.8-28.3-60.5-27.8-110.1c9.4-25.5,27.2-29,29.2-32.6
	c-2-15,4.2-30.9,6.8-39.8c0.1,0.7,0.2,1.2,0.2,1.5v0.1v0.1c1.2,14.5,20.9,36.8,20.9,36.8l4.9-5.7c1.5,1.6,2.4,2.5,2.4,2.5
	S396.4,545.3,399.2,551.9z"/>
<path fill="#FFFFFF" stroke="#000000" stroke-miterlimit="10" d="M366,506.1c-2.6,8.8-8.8,24.8-6.8,39.8c-1.9,3.5-19.8,7-29.2,32.6
	c0.1-11.7,0.9-24.2,2.4-37.5c7.5-66.8,24.5-115.2,36.3-142.2c-3.7,11.9-6.8,23.5-7.6,32.6c-0.4,4.8-0.6,10.1-0.5,15.7
	C360.9,470.9,365,499,366,506.1z"/>
<path fill="#FFFFFF" stroke="#000000" stroke-miterlimit="10" d="M553,567.2c0,0,5.6,70.8-29.3,133.6c-14.1,7.7-28.8,13.8-44.4,19.3
	c-9.9,3.5-20.1,6.7-30.6,9.9c34-21.1,67.8-61.4,67.8-61.4s-17.7,6-23.7,5.4s-7.5-5.8,12.7-11.8s22.4-35.1,22.4-35.1
	s-6.2,5.2-12.1,10.8c-5.8,5.6-18.9-1.9-11.2-6.7c7.8-4.7,28.6-28.6,27.6-43.5c-5.6,9.5-14.8,11-20,11.6c-5.2,0.7-2.8-6.2,7.3-12.3
	c10.1-6,14.2-22.8,14.2-22.8s-15.5,6.9-21.3,4.1c-4.1-2-0.3-17,2.2-25.4c6.2,1,13.3,0.1,18.9-5.8c12.9-13.8,13.4-35.3,13.4-35.3
	S560.3,539.7,553,567.2z"/>
<path fill="#FFFFFF" stroke="#000000" stroke-miterlimit="10" d="M467.1,432.8c0,0-12.4,4.6-25.6,24.1c-2-11.2-13.5-20.7-19.2-24.7
	c11.8-8.3,21.3-27.2,21.3-27.2C448.9,417.1,467.1,432.8,467.1,432.8z"/>
<path fill="#FFFFFF" stroke="#000000" stroke-miterlimit="10" d="M478.9,497.2c-6.2,10.1-19.2,47.6-21.3,62.4
	c-2.2,14.9-13.1,46.7-13.1,57.1c0,10.3-4.5,29.7-4.5,29.7s-7.8-20-8.4-27.3c-0.7-7.3-0.7-7.8-0.7-9.9c0-2.2-3.9-38.1-3.2-45.4
	c0.6-7.3-12.1-54.5-11.6-66.5l25.8,13.4C441.9,510.6,469,499.6,478.9,497.2z"/>
<path fill="#FFFFFF" stroke="#000000" stroke-miterlimit="10" d="M334.2,374.4c-8.7,18.8-27.2,56.6-30.5,71.1
	c-2.8,12.2-4,19.9-4.6,23.7l0,0c-0.3,2-0.3,3-0.3,3s-18.4-0.4-26.7,3.8c-3.5,1.7-6.9,4.5-9.9,6.9c-4.2,3.4-7.4,6.2-7.9,4.5
	c-0.9-2.9,5.8-16.4,4.6-25.3c13.8-7.5,25.3-24.4,25.5-25.8c0.3-1.4,3.2-22.1,9.2-34.4s18.7-19.8,20.7-29.3S304,353.8,304,353.8
	l-3.4,1.6c0,0,10.7,6,10.2,11.7c-0.5,5.8-14.2,21-19.7,28.7c-5.4,7.7-7.5,28.4-12.6,39c-5.2,10.6-24.7,27.8-24.7,27.8V446
	c0,0,7.2-32.4,17.5-46.5c14.4-32.7,25.3-70.5,25.3-70.5s0.8,1.5,2.1,3.7l0,0c2.7,4.6,7.3,12,10.8,14.5c2.4,1.8,8.3,3.4,13.7,7.8
	C327.9,358.9,332.4,364.7,334.2,374.4z"/>
<path fill="#FFFFFF" stroke="#000000" stroke-miterlimit="10" d="M314.3,372.6c-2,9.5-14.6,16.9-20.7,29.3c-6,12.3-8.9,33-9.2,34.4
	c-0.3,1.4-11.8,18.4-25.5,25.8c-5.2,0.6-5.2,0.6-5.2,0.6s19.5-17.2,24.7-27.8c5.2-10.6,7.2-31.3,12.6-39c5.5-7.8,19.2-23,19.7-28.7
	s-10.2-11.7-10.2-11.7l3.4-1.6C303.9,353.7,316.3,363.1,314.3,372.6z"/>
<path fill="#FFFFFF" stroke="#000000" stroke-miterlimit="10" d="M437.3,273.6L437.3,273.6c-0.6,12.1-2.6,26.2-7.4,39.8
	c-27.5,2.9-53-6.7-63.6-11.5c1-6.8,1.3-12.7,1.4-16.6l9.4,12.3c0,0,14.6-21.7,19.1-35.2c2.5-7.6,4-16.2,4.9-22.4
	c2.9-1.2,6-2.5,9.3-3.7c-0.1,13.1-0.8,39.4-4,53.8c11-11.3,18.1-22.2,22.6-31C432.1,264.3,434.8,269.1,437.3,273.6z"/>
<path fill="#FFFFFF" stroke="#000000" stroke-miterlimit="10" d="M346.61,302.46c-0.01-0.05-0.03-0.1-0.05-0.16
	c-3.19-9.95-12.51-15.33-21.06-22.1c-7.5-5.9-9.4-15.4-9.8-21.2c0,0,0,0.09-0.09,0.18c0,0.01,0,0.01-0.01,0.02
	c0,0.1-0.1,0.2-0.1,0.3s-0.1,0.2-0.1,0.3c-0.2,0.4-0.4,1-0.6,1.7c0,0.1-0.1,0.3-0.2,0.4c0,0.2-0.1,0.3-0.2,0.5c0,0.1,0,0.1-0.1,0.2
	c-0.1,0.2-0.1,0.4-0.2,0.6c-3.3,9.4-10.7,32.3-9.8,41.9c-0.49,7.85-3.97,18.11-5.79,27.28c-0.04,0.18-0.08,0.35-0.11,0.52
	c1.35,2.3,3.18,5.3,5.1,8.04s3.95,5.21,5.7,6.46c2.4,1.8,8.3,3.4,13.7,7.8c0.12-0.02,0.23-0.04,0.35-0.06c0.03,0,0.07-0.01,0.1-0.01
	c0.77-0.14,1.57-0.33,2.36-0.6c0.07-0.02,0.14-0.05,0.21-0.07c1.69-0.59,3.33-1.52,4.58-2.96c0.3-0.3,0.5-0.6,0.8-1
	c2.1-3.3,2.8-10.6,2.9-16.3c0.1-4.3,0-7.8,0-7.8s0.07-0.03,0.2-0.09c0.06-0.03,0.14-0.07,0.23-0.11c0.23-0.11,0.63-0.31,1.15-0.59
	c2.92-1.57,9.07-5.41,11.62-11.11C348.03,309.8,347.68,305.86,346.61,302.46z M332.9,315.3c-3.4,7.3-4.9,11.5-13.8,11.1
	c-8.9-0.4-11.2-6.7-11.2-6.7s-4.8,7.6-3.9,13.3c-0.5-2.1-1.9-3.2-1.6-5.5c1.2-9.7,5.6-20.2,12-21.3c-5.6,5.4-2.6,11.8,1.1,13.5
	s11.9,1.9,13.4-6.6s-1.5-13.2-8.4-18.4s-6.8-16-6.8-16s3.6,9.4,11.1,13.6C332.4,296.3,336.4,308,332.9,315.3z"/>
<path fill="none" stroke="#000000" stroke-miterlimit="10" d="M315.7,259L315.7,259"/>
<path fill="#FFFFFF" stroke="#000000" stroke-miterlimit="10" d="M354.4,337.4c-5.7,10.9-11,17.8-13.8,22.4
	c-5.3-1.8-8.2-5.4-9.8-8.4c0.3-0.3,0.5-0.6,0.8-1c2.1-3.3,2.8-10.6,2.9-16.3C338.8,333.3,347,332.7,354.4,337.4z"/>
<path fill="#FFFFFF" stroke="#000000" stroke-miterlimit="10" d="M360.3,324.8c-0.3,0.7-0.6,1.5-0.9,2.2c-1.7,3.8-3.4,7.3-5,10.4
	c-7.4-4.7-15.6-4.1-20-3.3c0.1-4.3,0-7.8,0-7.8s9.8-4.3,13.2-11.9C349.2,319.4,355.9,322.9,360.3,324.8z"/>
<path fill="#FFFFFF" stroke="#000000" stroke-miterlimit="10" d="M340.6,359.8c-1,1.7-1.7,3-1.9,4.1c-0.3,1.2-2,5-4.5,10.5
	c-1.7-9.7-6.3-15.5-11-19.3c2.6-0.4,5.6-1.4,7.6-3.7C332.3,354.4,335.3,358,340.6,359.8z"/>
<path fill="#FFFFFF" stroke="#000000" stroke-miterlimit="10" d="M477.7,310.9c-5.8-1.8-10.1-3.8-12.9-5.2c-4.7-9-10.4-20.5-16-31.9
	c0.6-1.5,1.1-2.9,1.6-4.3c2.1,3.8,4.5,8.3,7.1,13.5c0.7-9.1,4.5-16.5,8.9-22.2C467,270.7,469.3,292.3,477.7,310.9z"/>
<path fill="#FFFFFF" stroke="#000000" stroke-miterlimit="10" d="M454.1,307.1c-7.5,3.2-15,5.1-22.5,6c4.5-8.4,8.7-18,12.4-27.1
	C448.8,295.3,452,302.2,454.1,307.1z"/>
<path fill="#FFFFFF" stroke="#000000" stroke-miterlimit="10" d="M444,286C444,286.1,444,286.1,444,286c-3.7,9-7.9,18.7-12.4,27.1
	c-1.8,3.3-3.6,6.4-5.4,9.2c1.4-2.9,2.6-6,3.7-9c4.8-13.5,6.8-27.6,7.4-39.8C439.8,278.1,442.1,282.3,444,286z"/>
<path fill="#FFFFFF" stroke="#000000" stroke-miterlimit="10" d="M556.1,411.6l-20.3,38.7c-2.6-1.6-18-17.5-28.9-31.9
	c-2.6-3.4-4.9-6.7-6.7-9.7c-2.4-4-6.8-9.4-12-15.2l0,0c-5.8-46.6-24.9-64.4-24.9-64.4s-17.4,15.6-29.4,29.7
	c-9.1,10.7-34.4,49.6-46.2,67.9c-10.5,9.6-21,16.6-27.1,20.4c-0.1-5.6,0.1-10.9,0.5-15.7c0.8-9.1,3.9-20.7,7.6-32.6l0,0
	c2.5-5.8,4.8-10.5,6.7-14.3c5.1-3.1,13.4-7.6,26.6-13.6c29.9-13.5,55.4-54.7,55.4-54.7s-0.9-2.9-3.4-8.9
	c-2.1-4.9-5.3-11.9-10.1-21.1l0,0c-2-3.8-4.2-7.9-6.7-12.5l0,0c-2.5-4.4-5.2-9.3-8.3-14.4c-1.3-2.2-2.6-4.4-4-6.7
	c-1.5-2.5-3-5-4.7-7.6l0,0c-2-3.2-4.1-6.5-6.2-9.9c1.9-0.7,3.8-1.3,5.7-2c2.7-0.9,5.5-1.8,8.4-2.6c0.2,0.5,0.5,1,0.8,1.6
	c1.5,3.2,3.6,7.7,6.1,12.9l0,0c0.6,1.3,1.3,2.6,1.9,4c3.6,7.5,7.7,16.1,11.9,24.8c5.6,11.4,11.3,22.9,16,31.9
	c4.3,8.2,7.8,14.4,9.6,16.6C481.8,331.2,529.1,386,556.1,411.6z"/>
<path fill="#FFFFFF" stroke="#000000" stroke-miterlimit="10" d="M429,259.1c-4.4,8.7-11.5,19.7-22.6,31c3.2-14.4,3.9-40.8,4-53.8
	c1.2-0.4,2.4-0.9,3.6-1.3c2.2,3.4,4.3,6.7,6.2,9.9l0,0c0,8.5-0.7,18.3-3.8,25.7c3.9-5.8,6.6-12.1,8.5-18.1
	C426.4,254.7,427.7,256.9,429,259.1z"/>
<path fill="#FFFFFF" stroke="#000000" stroke-miterlimit="10" d="M425,252.4c-1.9,6-4.6,12.3-8.5,18.1c3.1-7.4,3.9-17.2,3.8-25.7
	C421.9,247.4,423.5,249.9,425,252.4z"/>
<path fill="#FFFFFF" stroke="#000000" stroke-miterlimit="10" d="M488.3,393.5c-1.1-1.3-2.3-2.5-3.4-3.8c-2.2-2.4-4.4-4.8-6.7-7.1
	c-13.5-14.1-27.6-27.4-27.6-27.4s-14,9-29.1,28.4c-3.8,4.9-7.6,10.4-11.4,16.6c-6.1,10.2-14.2,19.2-22.2,26.5
	c11.8-18.3,37.1-57.2,46.2-67.9c12.1-14.1,29.4-29.7,29.4-29.7S482.4,346.8,488.3,393.5z"/>
<path fill="#FFFFFF" stroke="#000000" stroke-miterlimit="10" d="M487.48,408.5c0.01,0,0.01,0,0.02,0c1.8-0.2,10.4,8.9,19.4,9.9
	c-2.6-3.4-4.9-6.7-6.7-9.7c-2.4-4-6.8-9.4-12-15.2c-1.1-1.3-2.3-2.5-3.4-3.8c-4.4,2.1-19.2,10.1-14.7,21.9
	c0.98,2.56,2.25,4.52,3.66,5.98c0.27,0.27,0.54,0.53,0.81,0.76c0.13,0.12,0.27,0.24,0.41,0.35c0.14,0.11,0.28,0.21,0.42,0.32
	c0.03,0.03,0.06,0.05,0.09,0.07c6.04,4.41,13.56,1.75,13.71-0.48C489.5,415.41,485.63,408.75,487.48,408.5z M481.2,397.9
	c3.4-2.2,5.9,5,5.9,5c-5.4,0-6,5.2-5.9,11.4C472.5,408.5,477.8,400.1,481.2,397.9z"/>
<path fill="#FFFFFF" stroke="#000000" stroke-miterlimit="10" d="M481.2,414.3c-8.7-5.8-3.4-14.2,0-16.4c3.4-2.2,5.9,5,5.9,5
	C481.7,402.9,481.1,408.1,481.2,414.3z"/>
<path fill="#FFFFFF" stroke="#000000" stroke-miterlimit="10" d="M600.4,495.7c-3,9.9-21,66.8-47.4,71.5c7.3-27.6-6-65.5-6-65.5
	c1.1-14.2-0.1-24.9-2.1-32.8c4.9,2.2,10.6,7.6,15,18c-0.9-4.3,6.7-18.3,6.7-18.3s2.8,32.3-2.8,64.4c6.5-6.9,20.5-29.9,20.5-29.9
	s6.7-0.9,8.8-12.3c2.2-11.4-7.9-17.9-7.9-17.9s7.9-10.5,4.4-22.6c-0.2,11.2-8,14.8-11.8,3.2c-3.1-9.3,7.2-18.8,11.6-22.3
	C596.1,451.3,601.8,475,600.4,495.7z"/>
<path fill="#FFFFFF" stroke="#000000" stroke-miterlimit="10" d="M593.06,484.25c-0.06-0.26-0.12-0.51-0.19-0.77
	c-0.13-0.5-0.29-0.99-0.47-1.46c-1.25-3.28-3.34-5.73-4.94-7.27c-0.01,0-0.02-0.02-0.02-0.02c-0.81-0.76-1.49-1.29-1.89-1.58
	c-0.22-0.17-0.35-0.25-0.35-0.25s7.9-10.5,4.4-22.6c-0.2,11.2-8,14.8-11.8,3.2c-3.1-9.3,7.2-18.8,11.6-22.3
	c-8.8-25.8-19.5-45.7-19.5-45.7l-13.7,26.1l-20.3,38.7c0,0,5.7,5.2,9.1,18.6c4.85,2.18,10.48,7.48,14.86,17.67
	c0.05,0.11,0.09,0.22,0.14,0.33c-0.85-4.04,5.81-16.64,6.61-18.15c0.06-0.1,0.09-0.15,0.09-0.15s2.79,32.21-2.78,64.26
	c0,0.05-0.01,0.09-0.02,0.14c6.5-6.9,20.5-29.9,20.5-29.9s6.7-0.9,8.8-12.3C593.62,488.39,593.51,486.21,593.06,484.25z
	 M558.2,470.9c-4.5-1.5-11.4-3.9-10.8-16.6c0.3-5.7,8.2-8.8,16.4-7.3c0.7-10.1,0.9-28.2,3.9-33.9c5.3,8.3,6.2,18,4,19.7
	s-5,5.8-5,5.8s2.9,12.7,1.4,15.7S562.7,472.4,558.2,470.9z"/>
<path fill="#FFFFFF" stroke="#000000" stroke-miterlimit="10" d="M571.7,432.8c-2.2,1.7-5,5.8-5,5.8s2.9,12.7,1.4,15.7
	s-5.4,18.1-9.9,16.6s-11.4-3.9-10.8-16.6c0.3-5.7,8.2-8.8,16.4-7.3c0.7-10.1,0.9-28.2,3.9-33.9C573,421.4,573.9,431.1,571.7,432.8z"
	/>
<path fill="#FFFFFF" stroke="#000000" stroke-miterlimit="10" d="M516,637.8c5.8-5.6,12.1-10.8,12.1-10.8s-2.2,29.1-22.4,35.1
	c-20.2,6-18.7,11.2-12.7,11.8c6,0.7,23.7-5.4,23.7-5.4s-33.8,40.3-67.8,61.4c20.7-22.4,12.6-58.6,12.6-58.6s1.5-2.5,3.7-6.5
	c0.8-1.5,1.7-3.2,2.6-5c4.8-9.5,10.9-23.7,13.4-37.5c4.3-24.1-8.6-46.5-8.6-46.5s6.7-5.8,31.5-36.4c2.8,1.3,6.6,2.8,10.8,3.4
	c-2.5,8.5-6.4,23.5-2.2,25.4c5.8,2.8,21.3-4.1,21.3-4.1s-4.1,16.8-14.2,22.8c-10.1,6-12.5,12.9-7.3,12.3c5.2-0.6,14.4-2.2,20-11.6
	c1.1,14.9-19.8,38.8-27.6,43.5C497,635.9,510.1,643.4,516,637.8z"/>
<path fill="#FFFFFF" stroke="#000000" stroke-miterlimit="10" d="M449.4,863.4v0.3c-0.2,11-16.8,26.3-24.8,26.5s-23-3.2-22-27.1V863
	c2.6,2.8,6.7,5.4,10.5,0.1c3.7-17.9,7.3-25.6,12.1-25.2c4.7,0.4,8.2,25.6,11.2,26.5C439.3,865.2,444.3,868.3,449.4,863.4z"/>
<path fill="#FFFFFF" stroke="#000000" stroke-miterlimit="10" d="M449.4,863.4c-5.2,4.9-10.1,1.8-12.9,1c-3-0.9-6.5-26.1-11.2-26.5
	s-8.4,7.3-12.1,25.2c-3.9,5.3-8,2.7-10.5-0.1c1.1-23.9,12.9-57,13.5-63c0-0.1,0-0.2,0-0.3c6.4,6.4,19.3,15.8,31.4,2.9v0.1
	c1.1,9.5-0.9,32.9-0.9,35.3C446.8,840.4,449.6,852.5,449.4,863.4z"/>
<path fill="#FFFFFF" stroke="#000000" stroke-miterlimit="10" d="M447.7,802.6c-12.1,12.9-25,3.5-31.4-2.9
	c0.5-6.2-5.6-21.9-5.6-21.9s-1.9-11.4-4.5-17.9c-2.2-5.5-8.5-30.1-10.3-37.2c1.1,0.6,2.2,1.2,3.4,1.7c-16.8-25-13.8-47.4,0-60.3
	c-15.5-25-16.4-69.3,8.6-90c0,0,0-5.3,3.9-8.2c0,0,6.1-6,10.8-3.9c-8.6,9.5-14.2,27.6-3.5,60.7c10.8,33.2,21.5,65,21.1,76.6
	c0.2-1.4,0.4-2.7,0.6-4.1C441.8,734.9,446.7,794,447.7,802.6z"/>
<path fill="#FFFFFF" stroke="#000000" stroke-miterlimit="10" d="M513.8,812.7c2.2,6.5-8.2,31.9-8.2,31.9
	c-27.6-34.8-44.4-14.1-45.4-9.9c1.4-10.4,3.7-21,6.2-26.3c3.5-7.4,9.4-45.1,12.1-71.5c0.6-5.7,0.8-11.9,0.9-16.8
	c15.5-5.5,30.3-11.6,44.4-19.3c2.2-1.2,4.3-2.4,6.4-3.6C514.1,746.8,511.7,806.3,513.8,812.7z"/>
<path fill="#FFFFFF" stroke="#000000" stroke-miterlimit="10" d="M506.6,882.5c-8.1,0.4-16.3-3.7-16.3-3.7s-11-10.8-18.9-4.5
	c-7.3,0.1-12.4-4.8-15.1-8.2c1-2,1.9-3.8,2.4-5.4c-0.7-4.4,0-15,1.5-25.7c0-0.1,0-0.2,0-0.3c1-4.2,17.8-24.9,45.4,9.9
	C505.6,844.5,508.2,859.8,506.6,882.5z"/>
<path fill="#FFFFFF" stroke="#000000" stroke-miterlimit="10" d="M506.6,882.5c-0.2,3.4-0.6,7-1,10.7c-3.4,28.4-43.5,44.4-58.1,24.8
	c-12.8-17,1.9-38.6,8.8-51.9c2.7,3.4,7.9,8.3,15.1,8.2c8-6.2,18.9,4.5,18.9,4.5S498.5,882.9,506.6,882.5z"/>
<path fill="#FFFFFF" stroke="#000000" stroke-miterlimit="10" d="M303.1,526.7c-10.6,3.7-27.3-2.3-35.3-10.3s-4.3-9.8-5.4-11.2
	c-0.9-1.1-0.4-15.1-0.2-22.3c3-2.4,6.5-5.2,9.9-6.9c8.3-4.2,26.7-3.8,26.7-3.8s0.1-1,0.3-3c5.3,5.8,8.3,14.8,8.3,14.8
	s6.6,8.6,8,15.2C316.9,505.7,313.7,523,303.1,526.7z"/>
<path fill="#FFFFFF" stroke="#000000" stroke-miterlimit="10" d="M332.9,315.3c-3.4,7.3-4.9,11.5-13.8,11.1s-11.2-6.7-11.2-6.7
	s-4.8,7.6-3.9,13.3c-0.5-2.1-1.9-3.2-1.6-5.5c1.2-9.7,5.6-20.2,12-21.3c-5.6,5.4-2.6,11.8,1.1,13.5s11.9,1.9,13.4-6.6
	s-1.5-13.2-8.4-18.4c-6.9-5.2-6.8-16-6.8-16s3.6,9.4,11.1,13.6C332.4,296.3,336.4,308,332.9,315.3z"/>
<path fill="#FFFFFF" stroke="#000000" stroke-miterlimit="10" d="M450.4,269.5c-0.5,1.4-1,2.8-1.6,4.3c-4.2-8.7-8.4-17.3-11.9-24.8
	c-0.4-4.9-0.9-7.8-0.9-7.8s-0.3,1.4-1.1,3.8c-2.5-5.2-4.6-9.7-6.1-12.9c0-0.7,0.1-1.3,0.1-1.9c5.3-1.5,10.6-2.7,15.8-3.5
	c-1,9-7,22.6-7,22.6S441.9,254,450.4,269.5z"/>
<path fill="#FFFFFF" stroke="#000000" stroke-miterlimit="10" d="M657.4,457c-18.1-20.4-26.5-67.8-26.5-67.8s-29.3-28.2-14.4-35.3
	c14.8-7.1,26.5,20,26.5,20h-3.2c0,0-13.6-22-19.6-13.4S631,377.1,637,387C639.1,399.7,647.3,435.9,657.4,457z"/>
<path fill="#FFFFFF" stroke="#000000" stroke-miterlimit="10" d="M505.2,537.9c-0.4,0.5-0.8,1-1.2,1.5
	c-24.8,30.6-31.5,36.4-31.5,36.4c-1.5-2.9-4.5-7-5.2-8c0-0.1-0.1-0.1-0.1-0.2v-0.1c15.7-8.6,20.4-11.6,23.5-27.6
	c3-15.9-2.2-25,6-34.9s18.1-24.6,13.8-37c-10.3,10.8-36.8,14.2-40-8.2c-3.2-22.4,32.7-22.8,41.1-6
	C519.8,470.7,531,506.1,505.2,537.9z"/>
<path fill="#FFFFFF" stroke="#000000" stroke-miterlimit="10" d="M481.1,622.3c-2.5,13.9-8.6,28-13.4,37.5
	c-3.9-6.9-8.2-12.3-11.3-15.7c4.8-11.9,9.2-21.8,10.7-27.8c3.6-14.2,6.2-37.8,0-48.6c0,0,0.1,0.1,0.1,0.2c0.7,1,3.7,5.1,5.2,8
	C472.5,575.8,485.4,598.2,481.1,622.3z"/>
<path fill="#FFFFFF" stroke="#000000" stroke-miterlimit="10" d="M650.7,550.4c-2.6-2.8-11.6-4.5-13.8-6.5
	c-2.2-1.9-9.8-5.3-10.3-25.4c1.8,0.7,3.5,1.4,4.9,2.1c6.1,3,8.6,5.6,8.6,5.6s0.1-0.3,0.2-0.7c0.6,2,1.2,4.8,1,7.3
	c3.2,2.5,9.9,3.6,13.9,8c0.9,1.8,1.8,3.7,2.8,5.6C658.9,551.7,653,552.9,650.7,550.4z"/>
</svg>
