<?xml version="1.0" encoding="utf-8"?>
<!-- Generator: Adobe Illustrator 25.2.0, SVG Export Plug-In . SVG Version: 6.00 Build 0)  -->
<svg version="1.1" baseProfile="tiny" id="Layer_1" xmlns="http://www.w3.org/2000/svg" xmlns:xlink="http://www.w3.org/1999/xlink"
	 x="0px" y="0px" viewBox="0 0 1000 1000" overflow="visible" xml:space="preserve">
<path fill="#FFFFFF" stroke="#000000" stroke-miterlimit="10" d="M552.44,175.97c0.35,0.09,0.85,0.23,1.48,0.41
	c-1.78,1.52-5.8,4.84-9.29,6.81c-4.64,2.61-12.36,0.23-12.36,0.23c0.12-5.11-3.57-7.48-5.59-9.14c-0.43-0.36-1.25-0.41-2.27-0.26
	c-0.09,0.01-0.18,0.02-0.27,0.04c-0.15,0.03-0.32,0.06-0.49,0.09c-0.19,0.04-0.38,0.09-0.58,0.13c-0.44,0.12-0.91,0.25-1.38,0.39
	c-0.14,0.04-0.28,0.09-0.42,0.14c-1.69,0.55-3.44,1.26-4.77,1.84c-0.2,0.09-0.39,0.17-0.57,0.25c-0.39,0.18-0.73,0.33-1,0.46
	c-0.12,0.06-0.23,0.11-0.32,0.15c-0.06,0.03-0.11,0.05-0.15,0.07l-0.1,0.05l-0.09,0.04c-0.96-3.32-3.99-8.83-6.15-12.55
	c-1.34-2.3-2.35-3.91-2.35-3.91l-7.17,4.22c-0.37-3.86,0.91-11.21,0.4-11.71c-0.59-0.59-3.33-7.37-1.9-12
	c1.34-4.35,17.33-2.42,19.29-2.17c-0.27,0.36-0.52,0.73-0.75,1.1c-4.76,7.72-5.11,10.46-5.11,10.46s0.05,0.01,0.14,0.03
	c0.03,0,0.07,0.01,0.11,0.02c0.11,0.02,0.25,0.04,0.43,0.07c0.09,0.02,0.18,0.04,0.29,0.06c1.83,0.33,5.97,1.07,9.7,1.69
	c0.7,0.12,1.39,0.23,2.05,0.34c0.24,0.04,0.48,0.08,0.71,0.11c0.23,0.04,0.45,0.07,0.67,0.11c0.19,0.03,0.37,0.05,0.55,0.08
	c0.13,0.02,0.27,0.04,0.4,0.06c0.32,0.05,0.63,0.09,0.91,0.13c0.14,0.02,0.27,0.04,0.39,0.05c0.41,0.05,0.75,0.09,1.01,0.11
	c0.33,0.02,0.53,0.02,0.58-0.01c0.01-0.01,0.02-0.02,0.03-0.03c0.04-0.04,0.1-0.12,0.18-0.24c0.11-0.15,0.26-0.37,0.44-0.64
	c0.09-0.13,0.19-0.28,0.3-0.44c0.95-1.4,2.53-3.74,4.51-6.41h0.01c0.07-0.1,0.15-0.21,0.23-0.32c0.12-0.16,0.24-0.31,0.36-0.47
	c0.6-0.78,1.22-1.59,1.87-2.41c0.26-0.33,0.53-0.66,0.8-0.99c0.54-0.65,1.09-1.31,1.65-1.96c1.13-1.29,2.29-2.56,3.49-3.74
	c0.14-0.14,0.29-0.29,0.44-0.43c0.37-0.36,0.75-0.71,1.12-1.05c0.18-0.16,0.36-0.32,0.53-0.47c0.29-0.25,0.57-0.49,0.85-0.72
	c0.2-0.17,0.4-0.33,0.6-0.48c0.17-0.13,0.34-0.26,0.5-0.38c0.36-0.28,0.73-0.54,1.09-0.78c0.06-0.05,0.12-0.09,0.17-0.12
	c0.35-0.23,0.69-0.44,1.03-0.64c0.11-0.07,0.23-0.13,0.34-0.19c0.23-0.13,0.45-0.25,0.68-0.36c-3.17,2.66-6.46,6.45-8.57,11.68
	c-0.19,0.44-0.36,0.89-0.52,1.35c-0.56,1.55-1,3.22-1.32,5.01c-0.41,2.29-0.46,4.44-0.25,6.43c0.33,3.05,1.28,5.74,2.57,8.09
	c4.54,8.31,13.24,12.33,13.24,12.33s-0.15,0.13-0.41,0.37C553.87,175.97,553.21,175.98,552.44,175.97z"/>
<path fill="#FFFFFF" stroke="#000000" stroke-miterlimit="10" d="M532.27,183.42c0,0-3.8,7.49-9.86,8.08
	c-6.06,0.6-12.95-6.29-12.95-6.29s5.58-1.67,5.11-6.18c-0.04-0.39-0.14-0.85-0.3-1.36l0.09-0.04l0.1-0.05
	c0.04-0.02,0.09-0.04,0.15-0.07c0.09-0.04,0.2-0.09,0.32-0.15c0.27-0.13,0.61-0.28,1-0.46c0.18-0.08,0.37-0.16,0.57-0.25
	c1.33-0.58,3.08-1.29,4.77-1.84c0.14-0.05,0.28-0.1,0.42-0.14c0.47-0.14,0.94-0.27,1.38-0.39c0.2-0.04,0.39-0.09,0.58-0.13
	c0.17-0.03,0.34-0.06,0.49-0.09c0.09-0.02,0.18-0.03,0.27-0.04c1.02-0.15,1.84-0.1,2.27,0.26
	C528.7,175.94,532.39,178.31,532.27,183.42z"/>
<path fill="#FFFFFF" stroke="#000000" stroke-miterlimit="10" d="M555.55,126.75c-1.64,0.86-3.72,2.14-5.85,3.93
	c-6.98-5.12-16.45-3.4-16.45-3.4s-3.93,1.73-8.24,4.58c-0.54-8.1,3.6-9.74,7.14-9.15c3.56,0.6,3.92,2.84,3.92,2.84l6.65,0.01
	C542.72,125.56,549.07,125.38,555.55,126.75z"/>
<path fill="#FFFFFF" stroke="#000000" stroke-miterlimit="10" d="M524.91,131.93c-3.07,2.03-6.33,4.62-8.48,7.57
	c-1.3-0.69-10.01-5.48-6.38-9.66C513.94,125.35,519.25,129.2,524.91,131.93z"/>
<path fill="#FFFFFF" stroke="#000000" stroke-miterlimit="10" d="M651.53,189.84c0.03-1.19-1.04-1.99-3.78-2.26
	c0,0-29.1,6.18-31.72,11.59c-0.01,0.01-0.01,0.03-0.02,0.04c-4.88,0.14-12.73,0.79-20.91,3.21c-1.48-2.38-4.96-7.41-10.79-12.82
	c-6.66-6.16-24.35-11.52-30.39-13.22c0.2-0.17,0.37-0.32,0.51-0.43c0.26-0.24,0.41-0.37,0.41-0.37s-8.7-4.02-13.24-12.33
	c-1.29-2.35-2.24-5.04-2.57-8.09c-0.21-1.99-0.16-4.14,0.25-6.43c0.32-1.79,0.76-3.46,1.32-5.01c4.5-0.27,15.82,1.02,29.54,4.48
	c7.36,1.85,15.42,4.34,23.49,7.54c26.04,10.35,43.81,12.78,57.95,28.02C651.88,185.75,651.89,187.78,651.53,189.84z"/>
<path fill="#FFFFFF" stroke="#000000" stroke-miterlimit="10" d="M651.53,189.84c-0.08,2.54-5.15,6.84-9.84,11.52
	c-6.89,6.9-5.82,19.01-11.76,18.66c-5.93-0.36-16.46-15.38-13.92-20.81c0.01-0.01,0.01-0.03,0.02-0.04
	c2.62-5.41,31.72-11.59,31.72-11.59C650.49,187.85,651.56,188.65,651.53,189.84z"/>
<path fill="#FFFFFF" stroke="#000000" stroke-miterlimit="10" d="M643.64,168.29c3.74,4.36,7.07,9.69,7.94,15.47
	c-14.14-15.24-31.91-17.67-57.95-28.02c-8.07-3.2-16.13-5.69-23.49-7.54c-13.72-3.46-25.04-4.75-29.54-4.48
	c0.16-0.46,0.33-0.91,0.52-1.35l23.33-12.43c4.81,2.22,14.49,5.91,23.1,9.08c2.42,0.89,4.74,1.73,6.86,2.5h0.01
	c14.45,1.17,29.45,1.25,47.87,7.33c13.34,4.4,23.54,12.55,31.22,20.49c-9.61-5.5-25.25-12.47-42.51-12.27
	C631,157.07,637.81,161.49,643.64,168.29z"/>
<path fill="#FFFFFF" stroke="#000000" stroke-miterlimit="10" d="M564.45,129.94l-23.33,12.43c2.11-5.23,5.4-9.02,8.57-11.68
	l0.01-0.01c2.13-1.79,4.21-3.07,5.85-3.93c2.61,0.55,5.24,1.34,7.49,2.5C563.44,129.46,563.92,129.69,564.45,129.94z"/>
<path fill="none" stroke="#000000" stroke-miterlimit="10" d="M683.4,175.82"/>
<path fill="#FFFFFF" stroke="#000000" stroke-miterlimit="10" d="M659.52,221.92c-4.76,7.72-19.68,42.53-19.68,42.53
	s-22.38-29.22-39.37-32.31c-1.48-0.27-3.19-0.31-5.08-0.14c-7.3-2.12-17.29-3.91-28.66-2.88c1-5.87,3.76-12.12,9.97-17.3
	c5.5-4.58,12.05-7.52,18.4-9.4c8.18-2.42,16.03-3.07,20.91-3.21c-2.54,5.43,7.99,20.45,13.92,20.81
	c5.94,0.35,4.87-11.76,11.76-18.66c4.69-4.68,9.76-8.98,9.84-11.52c0.36-2.06,0.35-4.09,0.05-6.08c-0.87-5.78-4.2-11.11-7.94-15.47
	c10.43,1.81,26.95,6.77,29.78,20.01C677.58,207.78,664.27,214.2,659.52,221.92z"/>
<path fill="#FFFFFF" stroke="#000000" stroke-miterlimit="10" d="M536.43,288.24c-0.03,0.36-0.05,0.72-0.06,1.08
	c-1.46,1.67-2.78,3.33-3.98,4.96c-6.35,8.64-10.73,17.35-13.75,25.12v0.01c-10.9,15.32-28.75,41.67-34.68,57.53
	c-2.62,7.01-3.66,16.19-3.85,25.63c-7.59-3.68-12.74-5.41-17.25-4.75c-5.32,0.78-15.97,4.41-21.61,6.66
	c9.53-61.96,33.18-83.3,40.17-92.56c1.83-2.42,4.18-4.8,6.82-6.97c8.41-6.97,19.68-11.99,25.79-10.5
	C519.88,291.26,529.75,289.29,536.43,288.24z"/>
<path fill="#FFFFFF" stroke="#000000" stroke-miterlimit="10" d="M483.6,445.92c0,0.01,0,0.01,0,0.01
	c-3.03,3.16-5.96,6.29-8.58,9.13c-6.07,6.53-10.47,11.49-10.47,11.49s-0.62-0.34-1.67-1.11c-4.23-3.05-15.53-12.93-22.2-34.91
	c-0.29-0.97-0.57-1.95-0.85-2.97c7.59-4.41,16.08-7.33,25.55-6.04c6.82,0.93,11.65,2.28,15.64,3.85v0.01
	C481.85,434.7,483.02,442.39,483.6,445.92z"/>
<path fill="#FFFFFF" stroke="#000000" stroke-miterlimit="10" d="M772.8,480.46c-0.71,0.01-1.51,0.03-2.39,0.07
	c-12.32,0.63-39.89,5.99-52.08,40.2c0,0-2.85-75.56-63.68-87.92c-0.92-0.19-1.83-0.36-2.72-0.52c4.46-5.99,13.28-13.82,29.24-14.69
	c13.87-13.3,19.01-19.94,12.92-28.04c-2.01-2.67-4.18-5.42-6.45-8.21c17.92,6,47.39,18.51,63.96,39.82
	C766.34,440.12,771.25,464.05,772.8,480.46z"/>
<path fill="#FFFFFF" stroke="#000000" stroke-miterlimit="10" d="M813.31,677.86c-1.2,10.99-4.55,28.98-13.95,43.43
	c-14.62,22.45-48.12,42.41-65.94,50.61c-15.16,6.98-23.11,15.5-24.48,26.67c-0.11-0.69-0.24-1.39-0.37-2.08
	c0.61-28.93,25.32-86.41,38.51-98.49c11.5-10.52,24.11-45.97,30.11-71.75c1.32-5.66,2.32-10.86,2.92-15.22
	c2.46-17.91-10.13-27.13-17.92-30.53c0.59-11.17-5.98-23.17-19.15-27.1c-12.35-3.68-31.28,5.27-51.19,18.87
	c8.72-12.77,18.95-30.43,26.48-51.54c12.19-34.21,39.76-39.57,52.08-40.2c0.71,0.58,1.58,1.32,2.58,2.2
	c8.95,7.91,28.59,27.97,38.84,59.27c6.57,20.04,4,36.4-0.38,47.94c-5.24-14.64-9.6-26.2-9.6-26.2s-3.68-15.68-7.48-9.27
	c-3.8,6.42-9.56,36.84-2.29,49.19c7.28,12.36,7.52,46.1,9.65,59.41C802.9,670.35,808.49,675.08,813.31,677.86z"/>
<path fill="#FFFFFF" stroke="#000000" stroke-miterlimit="10" d="M829.3,648.93c-1.31,7.82-13.63,23.68-15.74,26.34
	c-0.07,0.81-0.15,1.67-0.25,2.59c-4.82-2.78-10.41-7.51-11.58-14.79c-2.13-13.31-2.37-47.05-9.65-59.41
	c-7.27-12.35-1.51-42.77,2.29-49.19c3.8-6.41,7.48,9.27,7.48,9.27s4.36,11.56,9.6,26.2C819.7,612.99,830.17,643.69,829.3,648.93z"/>
<path fill="#FFFFFF" stroke="#000000" stroke-miterlimit="10" d="M706.52,860.71c-0.64,9.69-1.08,17.4-0.9,19.72
	c0.53,6.95-11.95,17.29-14.44,23.17c-2.5,5.88-6.77,14.97-12.48,16.04c-5.7,1.07-11.76,2.14-13.18,3.57
	c-1.43,1.42-3.92,7.84-10.16,8.02c-4.35,0.12-8.19,0.07-10.1,0.03c6.53-3.93,10.1-7.7,10.1-7.7s0.88-11.08-16.31-8.3
	c0,0-2.53,3.16-6.44,6.7l-5.23-4.28l3.92-8.73c0,0,24.77-5.7,27.62-7.66c2.85-1.97,14.26-6.6,21.03-12.3
	c6.77-5.7,10.16-10.52,11.59-14.62c1.34-3.87,6.36-18.41,6.9-19.99c0.03-0.09,0.05-0.14,0.05-0.14S703.83,856,706.52,860.71
	C706.52,860.71,706.52,860.71,706.52,860.71z"/>
<path fill="#FFFFFF" stroke="#000000" stroke-miterlimit="10" d="M698.44,854.38c-0.54,1.58-5.56,16.12-6.9,19.99
	c-1.43,4.1-4.82,8.92-11.59,14.62c-6.77,5.7-18.18,10.33-21.03,12.3c-2.85,1.96-27.62,7.66-27.62,7.66s-0.76-0.64-1.82-1.78
	c5.34-2.47,9.1-5.19,9.48-7.67c1.25-8.19-11.94-8.19-11.94-8.19s-1.46,1.27-3.95,3.24c-0.27-3,0.38-6.24,2.7-9.48
	c8.56-11.94,30.3-29.76,30.3-29.76l1.62-1.18l12.99-9.52c0,0-0.02-0.55-0.03-1.51c7.49-3.19,16.78-2.16,21.6-0.45
	C696.08,844.01,697.77,850.52,698.44,854.38z"/>
<path fill="#FFFFFF" stroke="#000000" stroke-miterlimit="10" d="M780.11,611.03c-0.6,4.36-1.6,9.56-2.92,15.22
	c-4.61,0.62-10.69,2.04-15.84,5.21c-9.85,6.06-31.14,31.37-62.51,47.41c-20.64,10.56-38.35,24.82-47.74,34.15
	c-13.58,1.79-32.1,9.69-32.1,9.69s-18.32,3.78-18.89,4.99c0,0,4.28-9.27,7.13-13.9c2.85-4.63,15.33-7.13,15.68-10.69
	c0.03-0.33,0.06-1.26,0.1-2.68c0,0,0,0,0-0.01c22.92-13.83,48.49-64.77,58.15-70.03c10.49-5.7,60.45-22.09,73.63-33.86
	c4.64-4.14,7.07-9.96,7.39-16.03C769.98,583.9,782.57,593.12,780.11,611.03z"/>
<path fill="#FFFFFF" stroke="#000000" stroke-miterlimit="10" d="M762.19,580.5c-0.32,6.07-2.75,11.89-7.39,16.03
	c-13.18,11.77-63.14,28.16-73.63,33.86c-9.66,5.26-35.23,56.2-58.15,70.03c0.33-11.1,1.73-52.45,17.02-80.72
	c0.36-0.67,0.73-1.32,1.1-1.97c3.44-5.96,7.55-11.27,12.44-15.49c12.16-10.48,25.41-21.19,38.26-29.96c0.01,0,0.01-0.01,0.01-0.01
	c19.91-13.6,38.84-22.55,51.19-18.87C756.21,557.33,762.78,569.33,762.19,580.5z"/>
<path fill="#FFFFFF" stroke="#000000" stroke-miterlimit="10" d="M777.19,626.25c-6,25.78-18.61,61.23-30.11,71.75
	c-13.19,12.08-37.9,69.56-38.51,98.49c-1.98-10.46-5.93-21.42-6.88-24.95c-1.24-4.63-15.32-40.1-21.92-43.84
	c-6.59-3.74-13.54-11.94-19.6-14.61c-2.44-0.58-5.59-0.53-9.07-0.07c9.39-9.33,27.1-23.59,47.74-34.15
	c31.37-16.04,52.66-41.35,62.51-47.41C766.5,628.29,772.58,626.87,777.19,626.25z"/>
<path fill="#FFFFFF" stroke="#000000" stroke-miterlimit="10" d="M718.33,520.73c0,0-19.01-18.53-45.86,0
	c-14.5-8.08-43.96,9.98-43.96,9.98s-3.97-1.6-9.88-4.51c-20.64-10.13-64.84-36.16-45.25-65.35c0,0,19.82-39.19,78.55-28.56
	c0.89,0.16,1.8,0.33,2.72,0.52C715.48,445.17,718.33,520.73,718.33,520.73z"/>
<path fill="#FFFFFF" stroke="#000000" stroke-miterlimit="10" d="M681.17,417.6c-15.96,0.87-24.78,8.7-29.24,14.69
	c-58.73-10.63-78.55,28.56-78.55,28.56c-19.59,29.19,24.61,55.22,45.25,65.35c-25.24-0.74-55.41-13.64-84.82-23.05
	c-28.28-9.05-50.72-36.95-58.79-48.09c2.62-2.84,5.55-5.97,8.58-9.13c0,0,0,0,0-0.01c4.35-4.53,8.86-9.1,12.88-12.91
	c2.38,1.09,5.05,2.17,8.26,3.19c-1.7,8.78-3.24,15.43-4.07,17.52c-0.1,0.25-0.2,0.5-0.3,0.77v0.01
	c-2.86,7.19-6.62,18.53,12.18,26.09c19.48,7.82,40.57-12.57,55.94-22.59c15.37-10.03,40.43-32.32,47.13-41.35
	c1.16-1.57,2.48-3.85,3.88-6.66v-0.01c0.73-1.44,1.48-3,2.24-4.69v-0.01c6.33-13.97,13.85-35.56,18.3-49.94
	c1.87-6.04,3.64-13.27,4.66-20.88c7.4,7.43,27.56,28.02,42.94,46.89c2.27,2.79,4.44,5.54,6.45,8.21
	C700.18,397.66,695.04,404.3,681.17,417.6z"/>
<path fill="#FFFFFF" stroke="#000000" stroke-miterlimit="10" d="M663.91,574.79c-9.06,21.36-18.78,35.73-22.82,42.94
	c-9.6-0.81-15.45-7.68-20.75-21.78c-1.38-3.68-2.73-7.85-4.09-12.54c-0.51-1.73-1.02-3.54-1.53-5.41c-0.21-0.75-0.39-1.49-0.56-2.23
	c-1.25-5.44-1.5-10.45-1.08-14.99c0.65-7.26,3.01-13.33,5.69-18.06v-0.01c4.43-7.81,9.74-12,9.74-12s29.46-18.06,43.96-9.98
	C672.47,520.73,673.89,551.27,663.91,574.79z"/>
<path fill="#FFFFFF" stroke="#000000" stroke-miterlimit="10" d="M718.33,520.73c-7.53,21.11-17.76,38.77-26.48,51.54
	c0,0,0,0.01-0.01,0.01c-12.85,8.77-26.1,19.48-38.26,29.96c-4.89,4.22-9,9.53-12.44,15.49h-0.05c4.04-7.21,13.76-21.58,22.82-42.94
	c9.98-23.52,8.56-54.06,8.56-54.06C699.32,502.2,718.33,520.73,718.33,520.73z"/>
<path fill="#FFFFFF" stroke="#000000" stroke-miterlimit="10" d="M687.79,790.61c-1.78,3.92-15.86,9.63-20.31,15.69
	c-4.02,5.45-8.32,14.97-16.18,21.49c-0.86,0.72-1.76,1.4-2.71,2.03c3.38-5.17-1.61-19.6-4.99-26.38
	c-2.55-5.09-14.47-5.75-20.22-5.76c-1.9-0.01-3.13,0.06-3.13,0.06s1.18-1,3.14-2.49c4.8-3.67,14.29-10.33,22.52-12.48
	c11.59-3.03,16.58-9.45,19.96-14.08c3.39-4.63,12.32,2.28,15.3,4.1C686.14,775.82,689.58,786.69,687.79,790.61z"/>
<path fill="#FFFFFF" stroke="#000000" stroke-miterlimit="10" d="M651.3,827.79c-0.67,1.84-2.58,4.11-5.19,6.58
	c-7.64,7.2-21.26,16.06-27.11,20.58c-4.69,3.63-17.18,6.43-26.37,3.38c2.11-1.36,3.87-2.68,5.16-3.92
	c10.52-10.15,4.82-18.46,4.82-18.46c-4.7-5.76-13.51-1.45-20.53,3.99c1.78-19.33,17.9-22.51,22.66-28.12
	c0.7-0.83,1.64-1.75,2.72-2.69c4.62-4.09,11.96-8.93,15.92-11.45c5.75,0.01,17.67,0.67,20.22,5.76c3.38,6.78,8.37,21.21,4.99,26.38
	C649.54,829.19,650.44,828.51,651.3,827.79z"/>
<path fill="#FFFFFF" stroke="#000000" stroke-miterlimit="10" d="M709.15,821.65c0,0.01,0,0.01,0,0.01
	c-0.67,11.69-1.81,26.92-2.63,39.04c-2.69-4.7-8.03-6.46-8.03-6.46s-0.02,0.05-0.05,0.14c-0.67-3.86-2.36-10.37-6.19-11.73
	c-4.82-1.71-14.11-2.74-21.6,0.45c0.01,0.96,0.03,1.51,0.03,1.51l-12.99,9.52c-1.69-12-8.16-17.59-11.58-19.76
	c2.61-2.47,4.52-4.74,5.19-6.58c7.86-6.52,12.16-16.04,16.18-21.49c4.45-6.06,18.53-11.77,20.31-15.69
	c1.79-3.92-1.65-14.79-6.62-17.82c-2.98-1.82-11.91-8.73-15.3-4.1c-3.38,4.63-8.37,11.05-19.96,14.08
	c-8.23,2.15-17.72,8.81-22.52,12.48c-1.96,1.49-3.14,2.49-3.14,2.49s1.23-0.07,3.13-0.06c-3.96,2.52-11.3,7.36-15.92,11.45
	c-5.12-4.32-12-9.8-17.06-12.88c0.3-0.15,0.57-0.3,0.83-0.45c0.02-0.01,0.04-0.02,0.06-0.03c5.14-2.62,25.93-14.93,32.35-25.12
	c6.95-11.05,11.22-19.6,16.75-23.34c3.33-2.26,5.62-5.16,5.9-7.5c5.61,2.96,14.5,8.13,19.05,13.38
	c6.95,8.02,18.18,20.11,21.38,24.31c3.21,4.2,7.31,12.04,7.67,12.93c0.35,0.89-1.96,2.32-1.96,2.32S702.95,814.13,709.15,821.65z"/>
<path fill="#FFFFFF" stroke="#000000" stroke-miterlimit="10" d="M646.29,739.81c-0.28,2.34-2.57,5.24-5.9,7.5
	c-5.53,3.74-9.8,12.29-16.75,23.34c-6.42,10.19-27.21,22.5-32.35,25.12c-0.02,0.01-0.04,0.02-0.06,0.03
	c-0.41,0.2-0.71,0.35-0.89,0.42c-0.05-0.03-0.1-0.06-0.14-0.09c0.82-1.75,23.94-22.89,17.75-35.1c-6.59-13.01-25.3-14.26-25.3-14.26
	s0.22-0.12,0.64-0.32c2.02-0.96,8.67-3.66,16.73-2.17c9.71,1.78,20.23-12.48,20.23-12.48c8.02-4.46,19.07,2.67,23.7,4.46
	C645.79,736.97,646.48,738.27,646.29,739.81z"/>
<path fill="#FFFFFF" stroke="#000000" stroke-miterlimit="10" d="M590.34,796.22c0.02,0.01,0.04,0.02,0.06,0.03
	c-4.12,2.2-12.21,5.53-26.29,7.91c9-4.46,9.54-26.74,7.4-29.68c-2.14-2.94-10.43-3.29-19.34,10.61c-0.16-0.68-0.29-1.34-0.39-1.98
	c-2.28-13.81,6.63-20.84,11.78-23.7c1.31-0.73,2.38-1.18,2.96-1.41c2.94-1.16,9.53-6.95,13.17-9.71c1.27-0.96,2.52-1.52,3.6-1.84
	c-0.42,0.2-0.64,0.32-0.64,0.32s18.71,1.25,25.3,14.26c6.19,12.21-16.93,33.35-17.75,35.1
	C590.15,796.25,590.19,796.28,590.34,796.22z"/>
<path fill="#FFFFFF" stroke="#000000" stroke-miterlimit="10" d="M709.15,821.65c-6.2-7.52-16.72-28.9-16.72-28.9
	s2.31-1.43,1.96-2.32c-0.36-0.89-4.46-8.73-7.67-12.93c-3.2-4.2-14.43-16.29-21.38-24.31c-4.55-5.25-13.44-10.42-19.05-13.38
	c0.19-1.54-0.5-2.84-2.34-3.55c-4.63-1.79-15.68-8.92-23.7-4.46c0,0-10.52,14.26-20.23,12.48c-8.06-1.49-14.71,1.21-16.73,2.17
	c-1.08,0.32-2.33,0.88-3.6,1.84c-3.64,2.76-10.23,8.55-13.17,9.71c-0.58,0.23-1.65,0.68-2.96,1.41c0.66-5.28,1.33-12.71,2.15-14.24
	c0.93-1.72,12.81-10.18,19.63-14.91c8.39-1.59,14.77-2.56,14.77-2.56c0.57-1.21,18.89-4.99,18.89-4.99s18.52-7.9,32.1-9.69
	c3.48-0.46,6.63-0.51,9.07,0.07c6.06,2.67,13.01,10.87,19.6,14.61c6.6,3.74,20.68,39.21,21.92,43.84c0.95,3.53,4.9,14.49,6.88,24.95
	c-0.02,0.55-0.02,1.09-0.02,1.6c0.01,0.01,0,0.02,0,0.02c0.02,1.18,0.07,2.31,0.18,3.38c0.01-0.73,0.05-1.44,0.12-2.14
	c0.2,0.87,0.37,1.68,0.54,2.43c0,0.01,0,0.01,0,0.02c0.17,1.43,0.28,2.81,0.32,4.14C709.8,809,709.56,814.69,709.15,821.65z"/>
<path fill="#FFFFFF" stroke="#000000" stroke-miterlimit="10" d="M528.59,805.48c-3.18,4.59-7.05,10.13-13.13,15.07
	c-5.28,4.3-12.09,6.75-18.85,6.75c0.97-1.3,1.56-1.94,1.56-1.94s-2.5-19.24-16.4-12.83c0,0-1.85,2.41-3.74,6.74
	c-9.69-11,13.22-37.5,17.73-40.42c0.26-0.17,0.53-0.35,0.84-0.52c0,0,0.01-0.01,0.02-0.01c5.59-0.82,13.48-1.68,17.71,0.35
	C519.74,781.27,527.14,798.06,528.59,805.48z"/>
<path fill="#FFFFFF" stroke="#000000" stroke-miterlimit="10" d="M585.34,730.26c-6.82,4.73-18.7,13.19-19.63,14.91
	c-0.82,1.53-1.49,8.96-2.15,14.24c-5.15,2.86-14.06,9.89-11.78,23.7c-1.36,1.3-4.44,4.37-8.19,8.83c-3.35,2.02-6.61,4.1-8.53,5.62
	c-2.19,1.73-4.14,4.57-6.47,7.92c-1.45-7.42-8.85-24.21-14.26-26.81c-4.23-2.03-12.12-1.17-17.71-0.35
	c4.98-2.99,15.44-7.76,26.86-15.02c12.12-7.7,13.72-15.82,24.59-22.59C554.66,736.6,572.4,732.69,585.34,730.26z"/>
<path fill="#FFFFFF" stroke="#000000" stroke-miterlimit="10" d="M564.11,804.16c0,0-34.93,24.95-44.73,48.65
	c-1.68-25.6,13.83-48.54,24.21-60.87c3.75-4.46,6.83-7.53,8.19-8.83c0.1,0.64,0.23,1.3,0.39,1.98c8.91-13.9,17.2-13.55,19.34-10.61
	C573.65,777.42,573.11,799.7,564.11,804.16z"/>
<path fill="#FFFFFF" stroke="#000000" stroke-miterlimit="10" d="M486.23,847.29c-5.46,14.78,5.94,26.95,6.23,27.25
	c-0.42-0.18-13.95-6.38-17.64-27.08c-2.18-12.27,0.55-22.12,3.21-28.19c1.89-4.33,3.74-6.74,3.74-6.74
	c13.9-6.41,16.4,12.83,16.4,12.83s-0.59,0.64-1.56,1.94C494.37,830.3,490.08,836.84,486.23,847.29z"/>
<path fill="#FFFFFF" stroke="#000000" stroke-miterlimit="10" d="M597.79,854.41c-1.29,1.24-3.05,2.56-5.16,3.92
	c-14.86,9.57-46.75,21.03-47.75,21.38c0.8-0.93,26.47-30.38,33.67-36.82c1.1-0.98,2.28-1.98,3.53-2.94v-0.01
	c7.02-5.44,15.83-9.75,20.53-3.99C602.61,835.95,608.31,844.26,597.79,854.41z"/>
<path fill="#FFFFFF" stroke="#000000" stroke-miterlimit="10" d="M638.96,899.5c-0.38,2.48-4.14,5.2-9.48,7.67
	c-12.35,5.72-33.17,10.11-40.31,7.13c13.41-4.4,27.3-14.53,33.9-19.75c2.49-1.97,3.95-3.24,3.95-3.24S640.21,891.31,638.96,899.5z"
	/>
<path fill="#FFFFFF" stroke="#000000" stroke-miterlimit="10" d="M655.36,923.56c0,0-3.57,3.77-10.1,7.7h-0.01
	c-4,2.41-9.11,4.87-15.2,6.56c-16.04,4.46-37.6-2.67-37.6-2.67s12.65-1.43,24.16-3.84c5.97-1.26,11.79-5.53,16-9.35
	c3.91-3.54,6.44-6.7,6.44-6.7C656.24,912.48,655.36,923.56,655.36,923.56z"/>
<path fill="#FFFFFF" stroke="#000000" stroke-miterlimit="10" d="M595.39,232c-7.6,0.68-18.14,4.79-28.21,11.48
	c-15.14,10.05-29.24,25.94-30.75,44.76c-6.68,1.05-16.55,3.02-22.4,6.21c-6.11-1.49-17.38,3.53-25.79,10.5
	c3.09-17.31,13.51-45.02,46.41-65.09c11.17-6.81,22.15-9.85,32.08-10.74C578.1,228.09,588.09,229.88,595.39,232z"/>
<path fill="#FFFFFF" stroke="#000000" stroke-miterlimit="10" d="M651.57,305.53c-2,1.87-4.23,3.69-6.71,5.41
	c-1.37-9.05-4.76-17.41-11.28-23.62c-8.19-7.78-30.42-22.84-49.87-22.87c-18.68-0.03-35.49,11.75-46.25,23.64
	c-0.33,0.05-0.68,0.1-1.03,0.15c1.51-18.82,15.61-34.71,30.75-44.76c10.07-6.69,20.61-10.8,28.21-11.48
	c1.89-0.17,3.6-0.13,5.08,0.14c16.99,3.09,39.37,32.31,39.37,32.31S654.92,284.93,651.57,305.53z"/>
<path fill="#FFFFFF" stroke="#000000" stroke-miterlimit="10" d="M696.62,203.27c0,0-11.08,22.45-11.32,26.55
	c-0.24,4.1-6.18,11.47-7.84,13.6c-1.67,2.14-3.57,24.95-6.89,31.37c-2.8,5.39-6.52,19.07-19,30.74
	c3.35-20.6-11.73-41.08-11.73-41.08s14.92-34.81,19.68-42.53c4.75-7.72,18.06-14.14,13.9-33.62c-2.83-13.24-19.35-18.2-29.78-20.01
	c-5.83-6.8-12.64-11.22-12.64-11.22c17.26-0.2,32.9,6.77,42.51,12.27c6,6.21,10.45,12.28,13.69,16.34c4.6,5.78,7.81,8.61,9.4,11.53
	C697.07,200.83,696.62,203.27,696.62,203.27z"/>
<path fill="#FFFFFF" stroke="#000000" stroke-miterlimit="10" d="M644.86,310.94c-1.37-9.05-4.76-17.41-11.28-23.62
	c-8.19-7.78-30.42-22.84-49.87-22.87c-18.68-0.03-35.49,11.75-46.25,23.64c-0.37,0.41-0.74,0.82-1.09,1.23
	c-1.46,1.67-2.78,3.33-3.98,4.96c-6.35,8.64-10.73,17.35-13.75,25.12v0.01c-5.94,15.3-6.57,26.9-6.57,26.9s-11.4,7.49,0,23.53
	c0.18,1.2,0.29,2.61,0.34,4.24c0,0,0,0,0,0.01c1.46,1.95,3.18,4.87,5.19,9.06c4.45,9.26,10.87,14.97,16.09,16.16
	c5.23,1.18,17.59,5.94,24.48,11.64c6.89,5.7,12.36,9.03,22.81,4.75c10.46-4.28,15.21-12.41,27.09-9.5
	c6.43,1.57,10.91,0.45,13.67-0.91v-0.01c6.33-13.97,13.85-35.56,18.3-49.94c1.87-6.04,3.64-13.27,4.66-20.88
	C645.75,326.71,646.02,318.58,644.86,310.94z M545.58,315.19c-1.91,3.09,2.1,11.64,2.1,11.64s-2.58,5.23-4.24,9.74
	c-1.67,4.52,7.6,12.36,9.44,19.25c1.84,6.89-4.93,16.63-6.59,19.96c-1.66,3.33,1.39,6.65,1.39,6.65
	c-10.72,6.18-27.53-0.95-29.91-23.43c-2.37-22.49,19.73-43.1,20.91-43.81c1.19-0.72,12.12-13.07,20.92-11.88
	C553.18,304.73,547.48,312.1,545.58,315.19z M633.97,355.34c-1.66,8.32-9.74,14.02-14.73,27.81c-4.99,13.78-31.6,22.57-43.96,18.77
	s-9.98-9.51-9.98-9.51s12.12-5.76,17.58-15.47c5.47-9.71,14.57-18.74,22.38-18.98c7.8-0.24,18.73-1.9,21.35-9.03
	c2.61-7.13-2.38-17.11-4.04-18.77c-1.67-1.67,1.66-13.07,8.79-14.97c-4.04,4.75-4.52,14.73-2.85,17.82
	C630.17,336.1,635.64,347.03,633.97,355.34z"/>
<path fill="#FFFFFF" stroke="#000000" stroke-miterlimit="10" d="M515.63,404.51c-0.31,3.41-0.1,6.14-0.1,6.14s-0.04,5.53-7.18,4.77
	c1.96-12.56,3.6-25.71,4-35.32c0.09,0.18,0.52,1.09,1.15,2.38c-0.85,3.04-2.58,10.02-1.96,14.45c2.01-2.58,4.2-4.98,5.79-6.65
	c0.31,0.62,0.62,1.21,0.9,1.74c-1.21,2.04-3.57,6.95-3.57,14.18C514.97,405.63,515.29,405.06,515.63,404.51z"/>
<path fill="#FFFFFF" stroke="#000000" stroke-miterlimit="10" d="M621.74,405.29c-0.76,1.69-1.51,3.25-2.24,4.69v0.01
	c-3.3,1.07-6.71,1.41-9.87,1.57c-3.89,0.21-7.41,0.14-9.93,0.81c-5.1,1.37-16.94,8.47-25.11,10.21c-0.61,0.13-1.2,0.23-1.76,0.3
	c-1.12,0.13-2.13,0.12-3.02-0.05c-0.5-0.1-1.04-0.26-1.64-0.48c-0.91-0.32-1.94-0.79-3.04-1.35c-1.52-0.77-3.19-1.73-4.93-2.8
	c-0.86-0.53-1.74-1.08-2.63-1.65c-1.93-1.23-3.91-2.54-5.83-3.82c-0.56-0.37-1.11-0.74-1.66-1.1c-2.42-1.61-4.7-3.11-6.64-4.27
	c-1.1-0.67-2.09-1.22-2.93-1.62c-0.77-0.38-1.41-0.63-1.91-0.73c-1.86-0.37-4.81-1.56-7.86-3.08c-0.22-0.11-0.44-0.22-0.66-0.33
	c-1.97-1.01-3.96-2.13-5.68-3.24h-0.01c-1-0.64-1.91-1.28-2.68-1.88c-1.08-0.84-1.89-1.62-2.27-2.26c-0.06-0.1-0.13-0.22-0.2-0.34
	c-0.29-0.5-0.63-1.14-1.01-1.86c-0.28-0.53-0.59-1.12-0.9-1.74c-1.32-2.6-2.83-5.71-3.83-7.8c-0.63-1.29-1.06-2.2-1.15-2.38
	c0.09-2.21,0.11-4.23,0.06-6.01c1.46,1.95,3.18,4.87,5.19,9.06c4.45,9.26,10.87,14.97,16.09,16.16c5.23,1.18,17.59,5.94,24.48,11.64
	c6.89,5.7,12.36,9.03,22.81,4.75c10.46-4.28,15.21-12.41,27.09-9.5C614.5,407.77,618.98,406.65,621.74,405.29z"/>
<path fill="#FFFFFF" stroke="#000000" stroke-miterlimit="10" d="M517.33,390.28c-1.59,1.67-3.78,4.07-5.79,6.65
	c-0.62-4.43,1.11-11.41,1.96-14.45C514.5,384.57,516.01,387.68,517.33,390.28z"/>
<path fill="#FFFFFF" stroke="#000000" stroke-miterlimit="10" d="M530.08,401.6c-2.05,2.68-5.95,8.56-8.33,16.89
	c-3.7-10.3,0.38-17.29,2.64-20.13h0.01C526.12,399.47,528.11,400.59,530.08,401.6z"/>
<path fill="#FFFFFF" stroke="#000000" stroke-miterlimit="10" d="M540.51,405.74c-2.25,2.64-10.9,13.1-10.44,17.23
	c-4.45-11.02-1.11-18.28,0.67-21.04c3.05,1.52,6,2.71,7.86,3.08C539.1,405.11,539.74,405.36,540.51,405.74z"/>
<path fill="#FFFFFF" stroke="#000000" stroke-miterlimit="10" d="M550.08,411.63c-3.09,1.6-10.37,5.99-15.11,13.81
	c0.37-7.85,4.76-15.21,8.47-18.08C545.38,408.52,547.66,410.02,550.08,411.63z"/>
<path fill="#FFFFFF" stroke="#000000" stroke-miterlimit="10" d="M557.57,416.55c-1.83,2.28-8.16,9.19-17.96,10.23
	c4.76-1.58,10.22-10.65,12.13-14.05C553.66,414.01,555.64,415.32,557.57,416.55z"/>
<path fill="#FFFFFF" stroke="#000000" stroke-miterlimit="10" d="M565.13,421c-1.74,1.97-6.32,5.92-14.83,5.78
	c5.99-3.21,8.96-7.15,9.9-8.58C561.94,419.27,563.61,420.23,565.13,421z"/>
<path fill="#FFFFFF" stroke="#000000" stroke-miterlimit="10" d="M619.5,409.99c-1.4,2.81-2.72,5.09-3.88,6.66
	c-6.7,9.03-31.76,31.32-47.13,41.35c-15.37,10.02-36.46,30.41-55.94,22.59c-18.8-7.56-15.04-18.9-12.18-26.09
	c0.58,4.83,1.79,12.37,3.86,13.95c3.09,2.38,18.06,9.75,23.05,8.56s31.47-20.2,37.84-23.29c6.36-3.09,14.44-7.13,18.48-14.49
	c3.44-6.28,18.35-22.2,26.03-27.67C612.79,411.4,616.2,411.06,619.5,409.99z"/>
<path fill="#FFFFFF" stroke="#000000" stroke-miterlimit="10" d="M633.97,355.34c-1.66,8.32-9.74,14.02-14.73,27.81
	c-4.99,13.78-31.6,22.57-43.96,18.77s-9.98-9.51-9.98-9.51s12.12-5.76,17.58-15.47c5.47-9.71,14.57-18.74,22.38-18.98
	c7.8-0.24,18.73-1.9,21.35-9.03c2.61-7.13-2.38-17.11-4.04-18.77c-1.67-1.67,1.66-13.07,8.79-14.97
	c-4.04,4.75-4.52,14.73-2.85,17.82C630.17,336.1,635.64,347.03,633.97,355.34z"/>
<path fill="#FFFFFF" stroke="#000000" stroke-miterlimit="10" d="M546.29,375.78c-1.66,3.33,1.39,6.65,1.39,6.65
	c-10.72,6.18-27.53-0.95-29.91-23.43c-2.37-22.49,19.73-43.1,20.91-43.81c1.19-0.72,12.12-13.07,20.92-11.88
	c-6.42,1.42-12.12,8.79-14.02,11.88c-1.91,3.09,2.1,11.64,2.1,11.64s-2.58,5.23-4.24,9.74c-1.67,4.52,7.6,12.36,9.44,19.25
	C554.72,362.71,547.95,372.45,546.29,375.78z"/>
<path fill="#FFFFFF" stroke="#000000" stroke-miterlimit="10" d="M599.7,412.37c-5.1,1.37-16.94,8.47-25.11,10.21
	c-1.74,2.31-6.47,7.58-13.42,7.88c0,0-25.22,13.16-48.83,7.8c-2.85-0.65-5.36-1.34-7.6-2.06c-1.7,8.78-3.24,15.43-4.07,17.52
	c-0.1,0.25-0.2,0.5-0.3,0.77v0.01c0.58,4.83,1.79,12.37,3.86,13.95c3.09,2.38,18.06,9.75,23.05,8.56s31.47-20.2,37.84-23.29
	c6.36-3.09,14.44-7.13,18.48-14.49c3.44-6.28,18.35-22.2,26.03-27.67C605.74,411.77,602.22,411.7,599.7,412.37z M502.68,459.07
	c0,0,1.07-8.2,4.28-11.05c-0.71,4.63-0.71,9.86-0.59,10.33C506.49,458.83,504.68,461.21,502.68,459.07z M507.39,464.65
	c-0.84,0.05-1.5-8.08,1.95-14.26c1.19,6.54,3,13.19,3,13.19S509.65,464.53,507.39,464.65z M513.79,468.99
	c-0.4-0.1-0.83-9.21,5.35-16.16c-0.24,4.69,1.19,13.72,1.19,13.72S516.53,469.64,513.79,468.99z M521.87,470.89
	c-0.47-0.62,0.36-11.82,3.92-17.35c0,5.88,3.03,13.49,3.03,13.49S525.32,475.4,521.87,470.89z M536.25,469.64
	c-1.25,1.49-5.64-4.45-5.64-4.45c0-0.42,5.46-9.75,6.71-13.19C537.5,455.98,537.5,468.16,536.25,469.64z M544.39,465.36
	c0,0-4.58-0.05-5.23-3.62c-0.36-1.94,8.2-11.76,9.74-14.79C548.84,453.19,544.39,465.36,544.39,465.36z M555.02,459.22
	c0,0-2.44,2.5-4.36-3.75c0,0,5.97-4.27,8.73-11.4C563.58,448.17,555.02,459.22,555.02,459.22z M570.44,448.02
	c0,0-4.46-0.03-4.46-2.79c0,0,11.32-7.76,11.94-13.99C577.74,438.36,570.44,448.02,570.44,448.02z"/>
<path fill="#FFFFFF" stroke="#000000" stroke-miterlimit="10" d="M506.37,458.35c0.12,0.48-1.69,2.86-3.69,0.72
	c0,0,1.07-8.2,4.28-11.05C506.25,452.65,506.25,457.88,506.37,458.35z"/>
<path fill="#FFFFFF" stroke="#000000" stroke-miterlimit="10" d="M512.34,463.58c0,0-2.69,0.95-4.95,1.07
	c-0.84,0.05-1.5-8.08,1.95-14.26C510.53,456.93,512.34,463.58,512.34,463.58z"/>
<path fill="#FFFFFF" stroke="#000000" stroke-miterlimit="10" d="M520.33,466.55c0,0-3.8,3.09-6.54,2.44
	c-0.4-0.1-0.83-9.21,5.35-16.16C518.9,457.52,520.33,466.55,520.33,466.55z"/>
<path fill="#FFFFFF" stroke="#000000" stroke-miterlimit="10" d="M528.82,467.03c0,0-3.5,8.37-6.95,3.86
	c-0.47-0.62,0.36-11.82,3.92-17.35C525.79,459.42,528.82,467.03,528.82,467.03z"/>
<path fill="#FFFFFF" stroke="#000000" stroke-miterlimit="10" d="M536.25,469.64c-1.25,1.49-5.64-4.45-5.64-4.45
	c0-0.42,5.46-9.75,6.71-13.19C537.5,455.98,537.5,468.16,536.25,469.64z"/>
<path fill="#FFFFFF" stroke="#000000" stroke-miterlimit="10" d="M548.9,446.95c-0.06,6.24-4.51,18.41-4.51,18.41
	s-4.58-0.05-5.23-3.62C538.8,459.8,547.36,449.98,548.9,446.95z"/>
<path fill="#FFFFFF" stroke="#000000" stroke-miterlimit="10" d="M555.02,459.22c0,0-2.44,2.5-4.36-3.75c0,0,5.97-4.27,8.73-11.4
	C563.58,448.17,555.02,459.22,555.02,459.22z"/>
<path fill="#FFFFFF" stroke="#000000" stroke-miterlimit="10" d="M577.92,431.24c-0.18,7.12-7.48,16.78-7.48,16.78
	s-4.46-0.03-4.46-2.79C565.98,445.23,577.3,437.47,577.92,431.24z"/>
<path fill="#FFFFFF" stroke="#000000" stroke-miterlimit="10" d="M521.71,396.48c-1.52,1.67-4.02,4.64-6.08,8.03
	c-0.34,0.55-0.66,1.12-0.97,1.69c0-7.23,2.36-12.14,3.57-14.18c0.38,0.72,0.72,1.36,1.01,1.86c0.07,0.12,0.14,0.24,0.2,0.34
	C519.82,394.86,520.63,395.64,521.71,396.48z"/>
<path fill="#FFFFFF" stroke="#000000" stroke-miterlimit="10" d="M512.41,374.09c0.05,1.78,0.03,3.8-0.06,6.01
	c-0.4,9.61-2.04,22.76-4,35.32c-2.62-0.28-6.19-1.41-11.07-3.97c-6.92-3.63-12.51-6.63-17.17-8.88c0.19-9.44,1.23-18.62,3.85-25.63
	c5.93-15.86,23.78-42.21,34.68-57.53c-5.94,15.3-6.57,26.9-6.57,26.9s-11.4,7.49,0,23.53c0.18,1.2,0.29,2.61,0.34,4.24
	C512.41,374.08,512.41,374.08,512.41,374.09z"/>
<path fill="#FFFFFF" stroke="#000000" stroke-miterlimit="10" d="M496.48,433.01c-4.02,3.81-8.53,8.38-12.88,12.91
	c-0.58-3.53-1.75-11.22-2.58-20.54C486.75,427.63,490.77,430.37,496.48,433.01z"/>
<path fill="#FFFFFF" stroke="#000000" stroke-miterlimit="10" d="M568.17,422.35c-0.27,0.63-0.73,1.57-1.41,2.64
	c-0.22,0.35-0.47,0.71-0.75,1.08c-0.42,0.56-0.9,1.13-1.45,1.7c-0.18,0.19-0.37,0.38-0.57,0.56c-0.21,0.2-0.42,0.39-0.65,0.58
	c-0.21,0.18-0.44,0.36-0.67,0.54c-0.44,0.34-0.92,0.67-1.42,0.97c-0.03,0.01-0.05,0.02-0.06,0.03c-0.01,0.01-0.02,0.01-0.02,0.01
	s-25.22,13.16-48.83,7.8c-2.85-0.65-5.36-1.34-7.6-2.06c-3.21-1.02-5.88-2.1-8.26-3.19c-5.71-2.64-9.73-5.38-15.46-7.63v-0.01
	c-3.99-1.57-8.82-2.92-15.64-3.85c-9.47-1.29-17.96,1.63-25.55,6.04c-11.28,6.54-20.6,16.34-28.27,20.46
	c-12.84,6.89-31.01,12.71-49.19,12.93c-18.18,0.23-29.94,26.51-45.63,53.25c-2.13-35.29,19.61-75.21,41.35-75.94
	c21.74-0.73,15.33,1.8,35.64-9.25c20.32-11.05,43.13-21.92,43.85-22.81c0.19-0.24,1.59-0.88,3.67-1.72
	c5.64-2.25,16.29-5.88,21.61-6.66c4.51-0.66,9.66,1.07,17.25,4.75c4.66,2.25,10.25,5.25,17.17,8.88c4.88,2.56,8.45,3.69,11.07,3.97
	c7.14,0.76,7.18-4.77,7.18-4.77s-0.21-2.73,0.1-6.14c2.06-3.39,4.56-6.36,6.08-8.03c0.77,0.6,1.68,1.24,2.68,1.88
	c-2.26,2.84-6.34,9.83-2.64,20.13c2.38-8.33,6.28-14.21,8.33-16.89c0.22,0.11,0.44,0.22,0.66,0.33c-1.78,2.76-5.12,10.02-0.67,21.04
	c-0.46-4.13,8.19-14.59,10.44-17.23c0.84,0.4,1.83,0.95,2.93,1.62c-3.71,2.87-8.1,10.23-8.47,18.08
	c4.74-7.82,12.02-12.21,15.11-13.81c0.55,0.36,1.1,0.73,1.66,1.1c-1.91,3.4-7.37,12.47-12.13,14.05c9.8-1.04,16.13-7.95,17.96-10.23
	c0.89,0.57,1.77,1.12,2.63,1.65c-0.94,1.43-3.91,5.37-9.9,8.58c8.51,0.14,13.09-3.81,14.83-5.78
	C566.23,421.56,567.26,422.03,568.17,422.35z"/>
<path fill="#FFFFFF" stroke="#000000" stroke-miterlimit="10" d="M574.59,422.58c-1.74,2.31-6.47,7.58-13.42,7.88
	c0,0,0.01,0,0.02-0.01c0.01-0.01,0.03-0.02,0.06-0.03c0.5-0.3,0.98-0.63,1.42-0.97c0.23-0.18,0.46-0.36,0.67-0.54
	c0.23-0.19,0.44-0.38,0.65-0.58c0.2-0.18,0.39-0.37,0.57-0.56c0.55-0.57,1.03-1.14,1.45-1.7c0.28-0.37,0.53-0.73,0.75-1.08
	c0.68-1.07,1.14-2.01,1.41-2.64c0.6,0.22,1.14,0.38,1.64,0.48c0.89,0.17,1.9,0.18,3.02,0.05
	C573.39,422.81,573.98,422.71,574.59,422.58z"/>
<path fill="#FFFFFF" stroke="#000000" stroke-miterlimit="10" d="M501.62,549.34c-22.15-10.29-37.72-36.09-39.93-37.53l-0.01-0.01
	c-2.38-2.03-9.74-5.34-16.34-10.32c-1.54-1.16-3.03-2.74-4.4-4.76c-1.64-2.38-3.1-5.39-4.28-9.07c-2.13-6.61-3.35-15.4-3-26.7
	c0.53-16.97,4.82-26.57,7.02-30.42c6.67,21.98,17.97,31.86,22.2,34.91c0.12,8.48,1.01,26.16,6.06,34.14
	c5.03,7.96,20.51,35.21,32.67,49.55C501.61,549.2,501.62,549.27,501.62,549.34z"/>
<path fill="#FFFFFF" stroke="#000000" stroke-miterlimit="10" d="M587.06,639.76c-1.29,2.55-2.42,5.2-3.23,7.86
	c-4.27,14.01-5.83,52.36-13.94,65.98c-0.01,0.01-0.01,0.02-0.02,0.03c-0.47,0.63-0.93,1.13-1.38,1.48
	c-4.85,3.8-30.52,14.73-34.32,16.39c-1.56,0.69-4.75,2.17-8.55,3.23c1.19-11.83,5.32-36.12,4.75-39.35
	c-0.17-0.94,0.82-3.24,2.44-6.29l0.01-0.01c5.44-10.07,18.1-28.29,20.84-32.67c1.41-2.25,4.74-5.8,8.28-9.3
	C569.68,645.87,580.19,642.54,587.06,639.76z"/>
<path fill="#FFFFFF" stroke="#000000" stroke-miterlimit="10" d="M561.94,647.11c-3.54,3.5-6.87,7.05-8.28,9.3
	c-2.74,4.38-15.4,22.6-20.84,32.67l-0.01,0.01c-16.03,11.75-15.58,20.38-26.09,29.82c0,0-1.22,1.86-4.66,3.47v-0.03
	c0.03-0.83-14.23-11.52-9.24-22.45c4.99-10.93,4.99-8.08,4.99-8.08l0.02-2.25c1.58-2.47,3.25-5.22,4.9-8.21
	c6.73-12.13,45.7-32.55,57.34-33.98C560.67,647.31,561.3,647.22,561.94,647.11z"/>
<path fill="#FFFFFF" stroke="#000000" stroke-miterlimit="10" d="M530.37,695.38c0.57,3.23-3.56,27.52-4.75,39.35
	c-5.47,1.54-12.2,2.22-17.11-1.56c-8.23-6.35-6.53-9.9-6.45-10.79c3.44-1.61,4.66-3.47,4.66-3.47
	c10.51-9.44,10.06-18.07,26.09-29.82C531.19,692.14,530.2,694.44,530.37,695.38z"/>
<path fill="#FFFFFF" stroke="#000000" stroke-miterlimit="10" d="M620.34,595.95c-5.36,6.6-18.59,22.9-19.16,23.75
	c0,0,0,0-0.01,0.01c-0.32,0.34-8.68,9.33-14.11,20.05c-6.87,2.78-17.38,6.11-25.12,7.35c-0.64,0.11-1.27,0.2-1.87,0.27
	c-11.64,1.43-50.61,21.85-57.34,33.98c-1.65,2.99-3.32,5.74-4.9,8.21l0.22-27.69c0,0-8.07-2.9-15.28-5.93
	c7.16-0.88,18.22-3.45,23.95-10.94c8.92-11.65,13.91-29.47,27.45-35.41s40.2-11.17,45.52-13.3c5.33-2.14,33.33-11.53,36.56-12.89
	C617.61,588.1,618.96,592.27,620.34,595.95z"/>
<path fill="#FFFFFF" stroke="#000000" stroke-miterlimit="10" d="M472.91,651.12c-0.61-0.43-1-0.81-1.12-1.12
	c-1.07-2.85-4.81,24.59-12.29,32.43c-3.88,4.06-11,11.13-17.76,19.55c-6.3,7.85-12.29,16.86-15.04,25.72
	c-2.26,7.27-4.65,13.71-7.29,18.88c1.65-19.77,0.47-54.82,0.77-83.25c0.21-18.89,1.07-34.85,3.85-41.49
	c5.14-12.23,6.25-48.13,6.79-69.79C444.3,576.2,470.39,616.8,472.91,651.12z"/>
<path fill="#FFFFFF" stroke="#000000" stroke-miterlimit="10" d="M601.17,619.71c-0.7,1.16,0.24,19.4-3.32,33.38
	c-3.56,14.02-14.97,30.89-16.63,33.98c-1.5,2.8-6.75,20.41-11.33,26.53c8.11-13.62,9.67-51.97,13.94-65.98
	c0.81-2.66,1.94-5.31,3.23-7.86C592.49,629.04,600.85,620.05,601.17,619.71z"/>
<path fill="#FFFFFF" stroke="#000000" stroke-miterlimit="10" d="M616.25,583.41c-3.23,1.36-31.23,10.75-36.56,12.89
	c-5.32,2.13-31.98,7.36-45.52,13.3s-18.53,23.76-27.45,35.41c-5.73,7.49-16.79,10.06-23.95,10.94h-0.01
	c-4.14-1.74-7.99-3.53-9.85-4.83c-2.52-34.32-28.61-74.92-42.09-99.07c-0.01-0.01,0-0.02,0-0.02c-1.36-2.43-2.59-4.67-3.66-6.75
	c-1.25-2.44-2.27-4.61-3.01-6.49c-2.14-5.45-2.23-11.9-1.15-18.42c2.19-13.27,9.22-26.82,13.66-32.72c1.18,3.68,2.64,6.69,4.28,9.07
	c-0.22,7.19,1.59,20.84,5.45,29.5c0,0.01,0.01,0.01,0.01,0.02c1.9,11.55,6.12,34.54,10.32,40.55c1.89,6.64,4.48,15.54,6.14,20.48
	c2.87,8.55,19.52,17.47,25.94,17.95c0,0,0,0,0.01,0c8.15,2.2,24.78,4.38,24.78,4.38s-1.27-1.22-3.36-3.13
	c-1.02-0.94-2.24-2.04-3.6-3.25c0.02-1.82,0.09-4.3,0.05-7.1c8.67,3.37,21.29,6.79,33.91,4.93c22.57-3.33,26.83-16.16,48.58-20.2
	c11.77-2.19,19.95-3.94,24.99-5.08c0.17,0.74,0.35,1.48,0.56,2.23C615.23,579.87,615.74,581.68,616.25,583.41z"/>
<path fill="#FFFFFF" stroke="#000000" stroke-miterlimit="10" d="M628.51,530.71c0,0-5.31,4.19-9.74,12v0.01
	c-25.08,6.6-95.88,17.35-106.34,15.32c-2.77-0.54-6.46-3.81-10.54-8.58c-0.1-0.11-0.19-0.22-0.28-0.33
	c-12.16-14.34-27.64-41.59-32.67-49.55c-5.05-7.98-5.94-25.66-6.06-34.14c1.05,0.77,1.67,1.11,1.67,1.11s4.4-4.96,10.47-11.49
	c8.07,11.14,30.51,39.04,58.79,48.09c29.41,9.41,59.58,22.31,84.82,23.05C624.54,529.11,628.51,530.71,628.51,530.71z"/>
<path fill="#FFFFFF" stroke="#000000" stroke-miterlimit="10" d="M513.59,609.6c0,0-16.63-2.18-24.78-4.38c-0.01,0-0.01,0-0.01,0
	c-2.27-0.62-3.88-1.23-4.29-1.8c-1.9-2.61-1.43-17.34-1.43-17.34s-0.09-0.2-0.24-0.57c7.41,3.77,17.26,11.94,23.79,17.71
	c1.36,1.21,2.58,2.31,3.6,3.25C512.32,608.38,513.59,609.6,513.59,609.6z"/>
<path fill="#FFFFFF" stroke="#000000" stroke-miterlimit="10" d="M488.8,605.22c-6.42-0.48-23.07-9.4-25.94-17.95
	c-1.66-4.94-4.25-13.84-6.14-20.48c-1.31-4.64-2.3-8.17-2.38-8.48c0.44,0.64,14.44,21.42,26.13,26.1c0.75,0.3,1.55,0.67,2.37,1.1
	c0.15,0.37,0.24,0.57,0.24,0.57s-0.47,14.73,1.43,17.34C484.92,603.99,486.53,604.6,488.8,605.22z"/>
<path fill="#FFFFFF" stroke="#000000" stroke-miterlimit="10" d="M482.84,585.51c-0.82-0.43-1.62-0.8-2.37-1.1
	c-11.69-4.68-25.69-25.46-26.13-26.1c0.08,0.31,1.07,3.84,2.38,8.48c-4.2-6.01-8.42-29-10.32-40.55c0-0.01-0.01-0.01-0.01-0.02
	c-0.62-3.8-1-6.36-1.04-6.65c0.67,0.96,18.79,27.38,22.76,31.81c1.45,1.63,4.26,3.53,7.79,5.65c0.02,0.02,0.03,0.04,0.05,0.06
	C476.38,569.1,481.65,582.6,482.84,585.51z"/>
<path fill="#FFFFFF" stroke="#000000" stroke-miterlimit="10" d="M475.9,557.03c-3.53-2.12-6.34-4.02-7.79-5.65
	c-3.97-4.43-22.09-30.85-22.76-31.81c0.04,0.29,0.42,2.85,1.04,6.65c-3.86-8.66-5.67-22.31-5.45-29.5c1.37,2.02,2.86,3.6,4.4,4.76
	c6.6,4.98,13.96,8.29,16.34,10.32C461.01,521.53,462.7,541.5,475.9,557.03z"/>
<path fill="#FFFFFF" stroke="#000000" stroke-miterlimit="10" d="M502.73,575.63c-1.19-2.19-2.74-4.07-4.73-5.41
	c-7.27-4.91-15.83-9.4-22.1-13.19c-13.2-15.53-14.89-35.5-14.22-45.23l0.01,0.01c2.21,1.44,17.78,27.24,39.93,37.53
	C502,555.99,502.71,568.18,502.73,575.63z"/>
<path fill="#FFFFFF" stroke="#000000" stroke-miterlimit="10" d="M614.16,575.77c-5.04,1.14-13.22,2.89-24.99,5.08
	c-21.75,4.04-26.01,16.87-48.58,20.2c-12.62,1.86-25.24-1.56-33.91-4.93c-0.03-1.96-0.11-4.08-0.3-6.24
	c6.57,2.01,15.88,3.94,22.32,1.43c10.94-4.28,24.24-15.56,36.12-17.05c11.88-1.49,8.8,2.07,18.54-5.29
	c7.08-5.36,22.06-7.45,29.72-8.19C612.66,565.32,612.91,570.33,614.16,575.77z"/>
<path fill="#FFFFFF" stroke="#000000" stroke-miterlimit="10" d="M506.63,603.22c-6.53-5.77-16.38-13.94-23.79-17.71
	c-1.19-2.91-6.46-16.41-6.89-28.42c-0.02-0.02-0.03-0.04-0.05-0.06c6.27,3.79,14.83,8.28,22.1,13.19c1.99,1.34,3.54,3.22,4.73,5.41
	c2.22,4.09,3.22,9.29,3.65,14.25c0.19,2.16,0.27,4.28,0.3,6.24C506.72,598.92,506.65,601.4,506.63,603.22z"/>
<path fill="#FFFFFF" stroke="#000000" stroke-miterlimit="10" d="M618.77,542.72c-2.68,4.73-5.04,10.8-5.69,18.06
	c-7.66,0.74-22.64,2.83-29.72,8.19c-9.74,7.36-6.66,3.8-18.54,5.29c-11.88,1.49-25.18,12.77-36.12,17.05
	c-6.44,2.51-15.75,0.58-22.32-1.43c-0.43-4.96-1.43-10.16-3.65-14.25c-0.02-7.45-0.73-19.64-1.11-26.29
	c0.09,0.04,0.18,0.09,0.27,0.12c4.08,4.77,7.77,8.04,10.54,8.58C522.89,560.07,593.69,549.32,618.77,542.72z"/>
<path fill="#FFFFFF" stroke="#000000" stroke-miterlimit="10" d="M413.87,586.73c-18.26,23.61-45.28,75.69-22.97,110.36
	c-6.52,8.53-12.2,16.59-14.99,21.58c-2.44,4.36-3.82,8.1-4.46,11.36l-8.25-8.98c-0.16-5.68-0.79-19.25-3.15-26.32
	c-3.03-9.09-12.83-32.43-7.84-50.79c2.74-10.09,6.24-25.02,8.83-36.42c8.32-12.98,17.93-27.15,27.7-44.73
	c20.45-36.76,30.11-41.09,34.26-42.42c-1.08,6.52-0.99,12.97,1.15,18.42c0.74,1.88,1.76,4.05,3.01,6.49
	C427.9,551.88,428.69,567.57,413.87,586.73z"/>
<path fill="#FFFFFF" stroke="#000000" stroke-miterlimit="10" d="M363.2,721.05l-2.08-2.26c0,0-11.94,22.04-16.4,27.15
	c-0.68,0.78-1.36,1.54-2.01,2.27c-0.8-16.42-10.55-41.42-7.07-78.85c2.19-23.55,12.16-41.2,25.4-61.84
	c-2.59,11.4-6.09,26.33-8.83,36.42c-4.99,18.36,4.81,41.7,7.84,50.79C362.41,701.8,363.04,715.37,363.2,721.05z"/>
<path fill="#FFFFFF" stroke="#000000" stroke-miterlimit="10" d="M390.72,761.46c-0.57,7.55-2.39,16.18-12.49,20.95
	c-7.17,3.38-16.95,0.88-24.31-2.09v-0.01c-5.29-6.78-10.83-16.06-11.16-30.87c-0.01-0.4-0.02-0.81-0.05-1.23
	c0.65-0.73,1.33-1.49,2.01-2.27c4.46-5.11,16.4-27.15,16.4-27.15l2.08,2.26l8.25,8.98c-1.39,7.21,0.89,12.05,3.51,15.99
	c3.8,5.72,14.73,14.47,14.73,15.19C389.69,761.37,390.05,761.45,390.72,761.46z"/>
<path fill="#FFFFFF" stroke="#000000" stroke-miterlimit="10" d="M402.43,760.34c-0.97,7.92-3.56,27.1-6.38,29.92
	c-1.25,1.25-1.53,4.21-1.85,7.53c-4.24,3.26-8.04,6.24-18.29,6.37c-14.25,0.17-14.61-14.8-20.31-21.75
	c-0.55-0.67-1.11-1.37-1.68-2.09c7.36,2.97,17.14,5.47,24.31,2.09c10.1-4.77,11.92-13.4,12.49-20.95
	C392.6,761.47,396.9,760.95,402.43,760.34z"/>
<path fill="#FFFFFF" stroke="#000000" stroke-miterlimit="10" d="M464.67,755.86c-2.86,10.69-8.92,24.24-16.96,26.55
	c-8.04,2.32-14.11-25.48-14.11-25.48s-16.34,14.97-18.84,18.16c-2.49,3.18-7.12,14.63-14.97,18.91c-2.2,1.2-3.93,2.52-5.59,3.79
	c0.32-3.32,0.6-6.28,1.85-7.53c2.82-2.82,5.41-22,6.38-29.92c0.95-0.11,1.93-0.21,2.95-0.32c3.21-0.33,6.12-2.21,8.79-5.31
	c28.03-0.13,34.66-30.36,35.52-34.32c0.75-3.4-1.83-12.91-3.34-17.09c1.42,0.19,2.7,0.05,3.34-0.79c1.97-2.55,3.57-9.92,9.98-11.34
	c6.42-1.43,10.52,3.92,11.05,15.68c0.54,11.76-6.05,14.08-7.86,23.51C461.06,739.79,467.52,745.17,464.67,755.86z"/>
<path fill="#FFFFFF" stroke="#000000" stroke-miterlimit="10" d="M449.69,720.39c-0.86,3.96-7.49,34.19-35.52,34.32
	c1.86-2.15,3.59-4.89,5.24-8.13c2.64-5.17,5.03-11.61,7.29-18.88c2.75-8.86,8.74-17.87,15.04-25.72c1.29,0.51,3.04,1.12,4.61,1.32
	C447.86,707.48,450.44,716.99,449.69,720.39z"/>
<path fill="#FFFFFF" stroke="#000000" stroke-miterlimit="10" d="M419.41,746.58c-1.65,3.24-3.38,5.98-5.24,8.13
	c-2.67,3.1-5.58,4.98-8.79,5.31c-1.02,0.11-2,0.21-2.95,0.32c-5.53,0.61-9.83,1.13-11.71,1.12c-0.67-0.01-1.03-0.09-1.03-0.25
	c0-0.72-10.93-9.47-14.73-15.19c-2.62-3.94-4.9-8.78-3.51-15.99c0.64-3.26,2.02-7,4.46-11.36c2.79-4.99,8.47-13.05,14.99-21.58
	c10.43-13.64,23-28.47,29.28-33.76C419.88,691.76,421.06,726.81,419.41,746.58z"/>
<path fill="#FFFFFF" stroke="#000000" stroke-miterlimit="10" d="M430.82,552.03c0,0-0.01,0.01,0,0.02
	c-0.54,21.66-1.65,57.56-6.79,69.79c-2.78,6.64-3.64,22.6-3.85,41.49c-6.28,5.29-18.85,20.12-29.28,33.76
	c-22.31-34.67,4.71-86.75,22.97-110.36c14.82-19.16,14.03-34.85,13.29-41.45C428.23,547.36,429.46,549.6,430.82,552.03z"/>
<path fill="#FFFFFF" stroke="#000000" stroke-miterlimit="10" d="M514.27,177.67l-303.2,177.9c-2.37-5.75-6.42-10.63-11.54-14.03
	L498.6,165.43l7.17-4.22c0,0,1.01,1.61,2.35,3.91C510.28,168.84,513.31,174.35,514.27,177.67z"/>
<path fill="#FFFFFF" stroke="#000000" stroke-miterlimit="10" d="M549.7,130.68l-0.01,0.01c-0.23,0.11-0.45,0.23-0.68,0.36
	c-0.11,0.06-0.23,0.12-0.34,0.19c-0.34,0.2-0.68,0.41-1.03,0.64c-0.05,0.03-0.11,0.07-0.17,0.12c-0.36,0.24-0.73,0.5-1.09,0.78
	c-0.17,0.11-0.33,0.24-0.5,0.38c-0.2,0.15-0.4,0.31-0.6,0.48c-0.28,0.23-0.56,0.47-0.85,0.72c-0.17,0.15-0.35,0.31-0.53,0.47
	c-0.37,0.34-0.75,0.69-1.12,1.05c-0.15,0.14-0.3,0.29-0.44,0.43c-1.2,1.18-2.36,2.45-3.49,3.74c-0.56,0.65-1.12,1.31-1.65,1.96
	c-0.27,0.33-0.54,0.66-0.8,0.99c-0.65,0.82-1.28,1.63-1.87,2.41c-0.12,0.16-0.24,0.31-0.36,0.47c-0.08,0.11-0.16,0.22-0.24,0.32
	c-1.98,2.67-3.56,5.01-4.51,6.41c-0.11,0.16-0.21,0.31-0.3,0.44c-0.18,0.27-0.33,0.49-0.44,0.64c-0.08,0.12-0.14,0.2-0.18,0.24
	c-0.01,0.01-0.02,0.02-0.03,0.03c-0.05,0.03-0.25,0.03-0.58,0.01c-0.26-0.02-0.6-0.06-1.01-0.11c-0.12-0.01-0.25-0.03-0.39-0.05
	c-0.28-0.04-0.59-0.08-0.91-0.13c-0.13-0.02-0.27-0.04-0.4-0.06c-0.18-0.03-0.36-0.05-0.55-0.08c-0.22-0.04-0.44-0.07-0.67-0.11
	c-0.23-0.03-0.47-0.07-0.71-0.11c-0.66-0.11-1.35-0.22-2.05-0.34c-3.73-0.62-7.87-1.36-9.7-1.69c-0.11-0.02-0.2-0.04-0.29-0.06
	c-0.18-0.03-0.32-0.05-0.43-0.07c-0.04-0.01-0.08-0.02-0.11-0.02c-0.09-0.02-0.14-0.03-0.14-0.03s0.35-2.74,5.11-10.46
	c0.23-0.37,0.48-0.74,0.75-1.1c0.13,0.02,0.2,0.03,0.2,0.03s-0.06-0.03-0.16-0.08c2.15-2.95,5.41-5.54,8.48-7.57
	c0.04,0.01,0.07,0.03,0.11,0.05c0-0.04-0.01-0.08-0.01-0.12c4.31-2.85,8.24-4.58,8.24-4.58S542.72,125.56,549.7,130.68z"/>
<path fill="#FFFFFF" stroke="#000000" stroke-miterlimit="10" d="M714.17,72.22l-126.62,66.8c-8.61-3.17-18.29-6.86-23.1-9.08
	l139.74-74.48L714.17,72.22z"/>
<path fill="#FFFFFF" stroke="#000000" stroke-miterlimit="10" d="M213.42,367.41c0,17.14-13.89,31.04-31.03,31.04
	c-17.14,0-31.03-13.9-31.03-31.04c0-17.13,13.89-31.03,31.03-31.03c6.34,0,12.23,1.9,17.14,5.16c5.12,3.4,9.17,8.28,11.54,14.03
	C212.59,359.22,213.42,363.22,213.42,367.41z"/>
<path fill="#FFFFFF" stroke="#000000" stroke-miterlimit="10" d="M178.2,343.94c0.47-0.96-9.27-30.75-9.27-30.75l-3.21,35.46
	C165.73,348.65,174.46,351.6,178.2,343.94z"/>
<path fill="#FFFFFF" stroke="#000000" stroke-miterlimit="10" d="M161.51,374.95l-10.16,24.06l18.71-13.19
	C170.07,385.82,168.82,375.13,161.51,374.95z"/>
<path fill="#FFFFFF" stroke="#000000" stroke-miterlimit="10" d="M200.57,381.52l23.12,11.8l-15.85-19.38
	C207.83,373.94,202.09,375.63,200.57,381.52z"/>
<path fill="#FFFFFF" stroke="#000000" stroke-miterlimit="10" d="M195.55,364.5l20.85-5.17l-19.78-3.75
	C196.62,355.57,191.45,359.33,195.55,364.5z"/>
<path fill="#FFFFFF" stroke="#000000" stroke-miterlimit="10" d="M162.22,360.93c-0.09-0.64-29.58-5.36-29.58-5.36l23.35,13.74
	C155.99,369.31,163.12,367.17,162.22,360.93z"/>
<path fill="#FFFFFF" stroke="#000000" stroke-miterlimit="10" d="M180.6,383.03c0,0,4.44,34.4,4.8,33.86
	c0.36-0.53,7.13-33.86,7.13-33.86S187.26,373.05,180.6,383.03z"/>
<path fill="#FFFFFF" stroke="#000000" stroke-miterlimit="10" d="M188.45,341.02l11.05-16.12l-2.02,22.96
	C192.06,347.93,188.8,345.9,188.45,341.02z"/>
</svg>
