<?xml version="1.0" encoding="utf-8"?>
<!-- Generator: Adobe Illustrator 25.2.0, SVG Export Plug-In . SVG Version: 6.00 Build 0)  -->
<svg version="1.1" baseProfile="tiny" id="Layer_1" xmlns="http://www.w3.org/2000/svg" xmlns:xlink="http://www.w3.org/1999/xlink"
	 x="0px" y="0px" viewBox="0 0 1000 1000" overflow="visible" xml:space="preserve">
<path fill="#FFFFFF" stroke="#000000" stroke-miterlimit="10" d="M548.28,84.84c-9.19,2.2-27.67,12.19-27.67,12.19
	s-10.5,1.93-14.78,0c-3.26-1.45-20.3-9.83-29.15-13.78c-0.38-1.18-4.61-14.51-2.97-19.84c1.71-5.56,11.77-7.7,11.77-7.7
	s18.62,5.13,29.93,3.84c11.29-1.29,9.47-1.92,19.1-3.84c9.64-1.93,10.07,4.71,11.56,6.2C547.2,63.04,547.97,77.59,548.28,84.84z"/>
<path fill="#FFFFFF" stroke="#000000" stroke-miterlimit="10" d="M555.38,87.55c-2.85-0.06-6.2,1.09-6.84,1.32
	c-0.1-0.94-0.16-1.47-0.16-1.47c-0.04-0.67-0.07-1.55-0.11-2.56c-0.31-7.26-1.08-21.81-2.2-22.92c-1.49-1.49-1.92-8.13-11.56-6.2
	c-9.64,1.92-7.81,2.56-19.1,3.84c-11.31,1.29-29.93-3.84-29.93-3.84s-10.07,2.14-11.77,7.7c-1.65,5.32,2.58,18.66,2.97,19.84
	c0.01,0.06,0.02,0.08,0.02,0.08s-6.84,16.66-4.94,34.19c-0.35-1.12-5.97-19.19-8.28-28.71c-0.44-1.85-0.78-3.39-0.91-4.41
	c-0.85-6.43-3.64-17.13-4.93-22.49c-1.29-5.35,9.2-24.83,11.34-29.11c2.15-4.29,6-12.42,17.13-15.43
	c11.14-2.99,21.21-7.7,32.55-2.56c10.9-2.5,17.5,7.81,23.76,13.06c6.43,5.37,14.34,13.91,16.95,23.76
	C560.57,56.14,558.25,71.82,555.38,87.55z"/>
<path fill="#FFFFFF" stroke="#000000" stroke-miterlimit="10" d="M549.87,118.81c-0.28,0.34-0.59,0.65-0.96,0.95
	c-0.1,0.07-0.19,0.14-0.29,0.22c1.57-12.01,0.37-26.53-0.07-31.1c0.64-0.23,3.99-1.38,6.84-1.32c1.6,0.02,3.04,0.43,3.76,1.57
	C560.87,91.88,552.98,111.4,549.87,118.81z"/>
<path fill="#FFFFFF" stroke="#000000" stroke-miterlimit="10" d="M548.55,88.87c-0.07,0.02-0.11,0.04-0.11,0.04s-0.02-0.55-0.05-1.5
	c-0.04-0.67-0.07-1.55-0.11-2.56c-9.19,2.2-27.67,12.19-27.67,12.19s-10.5,1.93-14.78,0c-3.26-1.45-20.3-9.83-29.15-13.78
	c0.01,0.06,0.02,0.08,0.02,0.08s-6.84,16.66-4.94,34.19c0.01,0.02,0.01,0.04,0.01,0.06c0.02,0.24,0.06,0.48,0.1,0.72
	c2.56,2.58,6.87,5.59,13.18,5.71c11.14,0.22,17.99,0,17.99,0s4.29,7.92,11.35,6.85c7.06-1.07,8.77-4.93,9.42-5.78
	c0.59-0.79,18.44-0.41,24.8-5.12C550.19,107.96,548.99,93.45,548.55,88.87z M493.74,107.64c-4.6-2.14-7-5.49-7-5.49
	s5.44-2.64,10.34-1.68c4.9,0.97,7.46,6.27,7.46,6.27S498.34,109.79,493.74,107.64z M522.86,105.06c1.69-3.22,7.87-6.31,15.74-4.06
	C533.67,110.31,523.08,106.6,522.86,105.06z"/>
<path fill="#FFFFFF" stroke="#000000" stroke-miterlimit="10" d="M472.59,122.28c-10.02-3.95-13.31-28.7-11.51-32.74
	c0.6-1.32,1.48-1.33,2.41-0.72c2.31,9.53,7.93,27.6,8.28,28.71c0.01,0.02,0.01,0.04,0.01,0.06c0.02,0.24,0.06,0.48,0.1,0.72
	C472.04,119.59,472.28,120.91,472.59,122.28z"/>
<path fill="#FFFFFF" stroke="#000000" stroke-miterlimit="10" d="M523.82,125.09c-0.65,0.85-2.35,4.71-9.42,5.78
	c-7.06,1.07-11.35-6.85-11.35-6.85s-6.85,0.22-17.99,0c-6.31-0.12-10.62-3.12-13.18-5.71c0.16,1.27,0.4,2.6,0.71,3.96
	c1,4.47,2.7,9.31,4.78,14.12c0,0,0,0,0,0.01c6.02,13.91,15.2,27.39,19.7,29.58c6.62,3.21,23.96,7.28,28.45,2.14
	c2.62-2.99,7.69-10.88,11.89-18.11c3.04-5.23,5.62-10.09,6.52-12.52c1.33-3.6,2.84-8.85,3.77-12.31c0,0,0.01-0.05,0.04-0.16
	c0.01-0.05,0.02-0.11,0.04-0.19c0,0,0.01-0.01,0-0.02c0.02-0.07,0.05-0.14,0.06-0.23c0.31-1.48,0.56-3.02,0.77-4.61
	C542.26,124.68,524.41,124.3,523.82,125.09z M520.94,146.8c0,0-2.15,0.76-3.33,1.12c-1.18,0.38-2.35,0.74-3.54,1.06l-0.31,0.08
	l-0.34-0.1c-2.04-0.58-6.06-1.97-6.06-1.97s-4.53,0.66-7.44,1.36c2.31-1.35,4.72-2.39,7.14-3.38l0.23-0.1l0.37,0.08
	c2.16,0.5,6.16,1.61,6.16,1.61s2.15-0.52,3.23-0.74c1.2-0.26,2.43-0.47,3.65-0.68l0.37-0.07l0.19,0.13
	c1.54,0.99,3.05,1.98,4.49,3.15C524.11,147.94,520.94,146.8,520.94,146.8z"/>
<path fill="#FFFFFF" stroke="#000000" stroke-miterlimit="10" d="M543.32,160.69c-5.75,12.31-20.29,25.13-20.29,25.13
	s-10.56-4.57-27.12-15.26c-12.11-7.81-19.58-21.23-22.74-27.87c1.77-2.53,3.26-4.84,4.2-6.28c6.02,13.91,15.2,27.39,19.7,29.58
	c6.62,3.21,23.96,7.28,28.45,2.14c2.62-2.99,7.69-10.88,11.89-18.11c1.83,4.34,5.02,10.12,5.02,10.12S542.78,160.33,543.32,160.69z"
	/>
<path fill="#FFFFFF" stroke="#000000" stroke-miterlimit="10" d="M551.22,174.7c-2.21,8.28-8.78,28.26-39.18,23.69
	c-29.19-4.39-48.19-30.43-53.86-42.31c1.03-0.06,1.86-0.18,2.43-0.37c3.84-1.29,8.83-7.65,12.55-13.01
	c3.16,6.64,10.63,20.06,22.74,27.87c16.56,10.69,27.12,15.26,27.12,15.26s14.54-12.82,20.29-25.13
	C545.87,162.38,553.05,167.85,551.22,174.7z"/>
<path fill="#FFFFFF" stroke="#000000" stroke-miterlimit="10" d="M588.41,215.52c0,0,0.05,0.95,0.11,2.6
	c-20.72-7.11-54.94,4.08-54.94,4.08s-21.11-8.4-34.53-10.12c-11.41-1.45-49.28,0.71-60.34,1.38c-2.16-3.84-4.12-7.38-5.77-10.37
	c1.93-2.07,2.4-5.08,0.3-9.71c-6.3-13.86-14.3-33.46-34.4-38.45c0.04-0.16,0.07-0.3,0.11-0.43c2.81-0.35,9.52-1.23,12.03-2.23
	c2.92-1.18,36.48,4.43,47.2,3.8c5.67,11.88,24.67,37.93,53.86,42.31c30.4,4.57,36.97-15.41,39.18-23.69
	c1.83-6.85-5.36-12.31-7.91-14.01c0.11-0.24,0.22-0.47,0.31-0.7c4.24-0.36,19.19-0.48,32.5,13.55
	C591.83,190.11,588.41,215.52,588.41,215.52z"/>
<path fill="#FFFFFF" stroke="#000000" stroke-miterlimit="10" d="M588.9,237.35c-5.6,5.27-14.57,10.08-18.48,11.49
	c-2.87-6.76-7.65-12.59-14.19-17.25c-7.97-5.67-16.8-8.46-22.66-9.38c0,0,34.22-11.2,54.94-4.08
	C588.66,221.89,588.9,229.32,588.9,237.35z"/>
<path fill="#FFFFFF" stroke="#000000" stroke-miterlimit="10" d="M588.9,237.35c0,8.07-0.24,16.76-1.06,22.98
	c-0.04,0.26-0.07,0.52-0.11,0.77v0.01c-7.69,6.31-14.18,11.11-14.4,11.28c0.24-2.39,0.35-4.9,0.32-7.51
	c-0.05-5.78-1.14-11.16-3.23-16.05C574.33,247.43,583.3,242.63,588.9,237.35z"/>
<path fill="#FFFFFF" stroke="#000000" stroke-miterlimit="10" d="M574.63,371.14c-11.52,11.69-35.87,25.47-45.32,26.3
	c0,0,5.53-17.42,6.54-28.15c0.59-0.05,1.17-0.11,1.74-0.18c15.03,2.5,26.89-3.59,34.13-9.08
	C572.59,363.95,573.6,367.67,574.63,371.14z"/>
<path fill="#FFFFFF" stroke="#000000" stroke-miterlimit="10" d="M579.7,386.95c-1.29,17.99-13.7,36.82-23.55,53.96
	c-0.24,0.42-0.5,0.84-0.77,1.25c-10.66,16.42-41.4,27.01-41.4,27.01s-16.5-5.13-31.91-18.84c-13.3-11.8-7.5-40.16-5.63-47.77
	c0.99-2.74,1.23-6.32,1.07-10.02c13.48,3.63,38.25,9.26,51.81,4.9c9.44-0.83,33.8-14.61,45.32-26.3
	C576.45,377.27,578.34,382.63,579.7,386.95z"/>
<path fill="#FFFFFF" stroke="#000000" stroke-miterlimit="10" d="M476.44,402.56c0.3-1.23,0.49-1.91,0.49-1.91
	s-17.56,19.27-30.41,29.12c-0.68,0.53-1.39,0.95-2.13,1.27c-6.58,2.99-14.93-1.42-21.59-6.51c1.29-4.18,2.1-6.91,2.31-7.75
	c1.14-4.57,1.78-26.84,1.91-44.58c7.7,4.76,18.68,10,29.57,9.86c3.1-0.02,6.19-0.5,9.2-1.54c4.12-1.42,7.12-2.81,9.3-4.23
	c0.81,3.4,2.17,10,2.41,16.24C477.66,396.24,477.42,399.82,476.44,402.56z"/>
<path fill="#FFFFFF" stroke="#000000" stroke-miterlimit="10" d="M427.02,372.2c0.06-8.93,0-16.69-0.19-20.51
	c-0.58-11.41-50.33-123.61-51.6-125.97c-0.53-0.97-3.45-2.43-7.65-4.57c7.89-1.98,22.8-5.75,33.65-8.61
	c6.42,15.43,21.49,56.59,25.88,66.07c4.48,9.65,22.14,74.2,29.48,103.45C445.7,382.2,434.72,376.96,427.02,372.2z"/>
<path fill="#FFFFFF" stroke="#000000" stroke-miterlimit="10" d="M394.92,111.79c0.23,8.83-1.95,15.05-5.03,18.85
	c-2.8,3.46-6.36,4.91-9.53,4.51c-6.63-0.85-10.06-13.06-8.35-24.18c1.25-8.11-0.9-16.35-2.16-20.23
	c5.43-5.89,15.34-10.76,23.37-8.04C398.34,94.9,394.49,94.9,394.92,111.79z"/>
<path fill="#FFFFFF" stroke="#000000" stroke-miterlimit="10" d="M449.73,140.51c-7.44,2.54-11.39-0.06-13.48-3.82
	c0.49-0.45,0.98-0.93,1.49-1.47c1.05-8.49,1.52-17.18,1.5-25.27c0-1.59-0.03-3.15-0.07-4.68c-0.23-8.79-1.06-16.59-2.37-22.29
	c2.89-0.69,16.18-3.19,18.29,9.78C457.44,107.32,454.23,136.43,449.73,140.51z"/>
<path fill="#FFFFFF" stroke="#000000" stroke-miterlimit="10" d="M445.81,154.14c-6.57,3.14-26.7-7.71-26.7-7.71
	c0.22-4.36,2.25-6.55,4.25-7.63c3.7,1.96,8.12,2.14,12.88-2.11c2.09,3.76,6.04,6.37,13.48,3.82
	C451.23,143.71,452.37,150.99,445.81,154.14z"/>
<path fill="#FFFFFF" stroke="#000000" stroke-miterlimit="10" d="M423.37,138.8c-2.01,1.08-4.04,3.27-4.25,7.63
	c0,0-12.99-0.71-18.69-0.79c-1.5-0.02-2.4,0.59-2.92,1.51c-5.25-1.14-12.29-2.99-18.43-5.63c-6.13-2.63-8.83-6.01-10.42-9.15
	c-1.43-2.79-1.98-5.39-3.28-7.17c-1.8-2.43-4.85-7.75-6.9-11.7c3.42-6.72,6.04-13.5,8.18-18.15c0.7-1.53,1.79-3.1,3.18-4.6
	c1.26,3.88,3.41,12.12,2.16,20.23c-1.71,11.13,1.72,23.33,8.35,24.18c3.17,0.41,6.73-1.05,9.53-4.51c2.9,3.75,7.34,8.04,12.53,8.07
	c6.14,0.05,10.67-2.2,13.38-6.96C417.68,134.31,420.27,137.18,423.37,138.8z"/>
<path fill="#FFFFFF" stroke="#000000" stroke-miterlimit="10" d="M398.85,154.95c-1.8,7.34-6.01,22.2-12.28,30.88
	c-8.57,11.85-10.44,21.99-32.41,27.84c-2.94-1.86-5.97-3.98-8.91-6.36c-10.25-4.91-13.58-12.48-14.22-20.62
	c5.15,3.42,19.52-0.6,26.72-8.85c6.31-7.24,9.85-35.45,10.92-45.47c1.59,3.15,4.29,6.52,10.42,9.15c6.14,2.64,13.18,4.49,18.43,5.63
	c-1.44,2.56,0.18,7.51,0.18,7.51C398.08,154.74,398.46,154.84,398.85,154.95z"/>
<path fill="#FFFFFF" stroke="#000000" stroke-miterlimit="10" d="M368.66,132.36c-1.07,10.02-4.61,38.23-10.92,45.47
	c-7.2,8.25-21.57,12.28-26.72,8.85c-0.66-8.18,1.38-16.93,1.81-24.12c0.85-14.34,11.14-28.05,18.41-37.38
	c2.76-3.53,5.14-7.6,7.24-11.7c2.04,3.95,5.09,9.27,6.9,11.7C366.67,126.97,367.23,129.57,368.66,132.36z"/>
<path fill="#FFFFFF" stroke="#000000" stroke-miterlimit="10" d="M432.95,203.1c-3.71,3.99-12.88,4.49-19.7,6.19
	c-0.48,0.12-0.95,0.24-1.41,0.37c-2.32,0.67-6.12,1.71-10.61,2.88c-10.85,2.86-25.76,6.63-33.65,8.61
	c-3.72-1.91-8.46-4.36-13.42-7.5c21.97-5.85,23.85-15.99,32.41-27.84c6.27-8.67,10.48-23.54,12.28-30.88
	c20.1,4.99,28.1,24.58,34.4,38.45C435.35,198.02,434.88,201.03,432.95,203.1z"/>
<path fill="#FFFFFF" stroke="#000000" stroke-miterlimit="10" d="M654.01,675.31c-9.85,10.66-28.88,24.89-44.33,26.83
	c-15.23,1.9-29.09,4.2-37.16,5.63c-1.09-1.92-2.22-3.93-3.39-6.01c0,0,44.4-68.58,33.56-87.99c-9.19-16.45-61.16-33.86-81.32-40.06
	c-4.94-20.82-9.8-38.23-15.74-44.16c-11.08-11.08-28.35,31.13-44.09,64.22c0.79-33.84,6.69-80.48,6.69-80.48l-22.88-78.93
	c0.76-2.94,1.18-4.58,1.18-4.58c12.84-9.85,30.41-29.12,30.41-29.12s-0.19,0.68-0.49,1.91c-1.86,7.6-7.67,35.97,5.63,47.77
	c15.41,13.71,31.91,18.84,31.91,18.84s30.74-10.58,41.4-27.01c12.57,32.43,48.61,119.18,84.36,146.33
	c2.22,7.29,4.14,14.06,5.68,20.03C651.5,632.14,653.42,655.8,654.01,675.31z"/>
<path fill="#FFFFFF" stroke="#000000" stroke-miterlimit="10" d="M639.75,588.49c-35.75-27.15-71.8-113.91-84.36-146.33
	c0.26-0.41,0.53-0.83,0.77-1.25c9.85-17.13,22.26-35.97,23.55-53.96c4.71,14.98-1.71,15.41-1.29,22.26c0.43,6.86,6,34.68,6,34.68
	C593.79,458.55,624.05,536.89,639.75,588.49z"/>
<path fill="#FFFFFF" stroke="#000000" stroke-miterlimit="10" d="M659.95,872.92c-5.74-0.13-20.2-0.25-24.71,1.79
	c-3.33,1.5-11.07-2.27-16.93-5.66c-4.69-17.5-15.01-45.99-23.2-70.57c-8.99-26.97-9.42-67.65-9.42-67.65s-5.42-9.37-13.18-23.06
	c8.07-1.43,21.93-3.74,37.16-5.63c15.45-1.93,34.48-16.17,44.33-26.83c0.58,19.23-0.16,34.43,0.52,41.55
	c-4.25,2.97-8.6,7.51-12.45,22.95c-5.71,23-11.99,102.36,0,116.07C646.13,860.49,652.83,866.7,659.95,872.92z"/>
<path fill="#FFFFFF" stroke="#000000" stroke-miterlimit="10" d="M676.65,886.97c-5.06-4.13-11.01-9.09-16.7-14.06
	c-7.12-6.21-13.83-12.42-17.88-17.05c-11.99-13.71-5.71-93.07,0-116.07c3.84-15.44,8.19-19.98,12.45-22.95
	c0.04,0.4,0.07,0.77,0.12,1.12c1.72,12.86,11.56,35.97,13.71,58.67c2.14,22.71-1.29,50.53-1.29,69.8
	C667.07,862.67,674.35,879.5,676.65,886.97z"/>
<path fill="#FFFFFF" stroke="#000000" stroke-miterlimit="10" d="M726.58,946.65c0,2.14-4.28,2.14-4.28,2.14s-0.87,3.42-9.43,2.57
	c-5.13,4.29-14.13,3.86-32.97-8.99c-18.84-12.86-54.81-26.98-58.24-31.26c-3.42-4.29,1.72-20.56-2.14-37.26
	c-0.35-1.49-0.74-3.1-1.21-4.81c5.86,3.39,13.6,7.16,16.93,5.66c4.52-2.04,18.97-1.92,24.71-1.79c5.69,4.96,11.64,9.92,16.7,14.06
	c0.43,1.41,0.68,2.47,0.68,3.15c0,4.28,25.7,27.4,28.27,32.11C708.17,926.94,726.58,944.51,726.58,946.65z"/>
<path fill="#FFFFFF" stroke="#000000" stroke-miterlimit="10" d="M569.13,701.76c-6.75-11.97-14.77-26.29-22.39-40.32
	c-10.91-20.03-18.21-57.49-25.37-87.73c20.16,6.2,72.13,23.61,81.32,40.06C613.53,633.18,569.13,701.76,569.13,701.76z"/>
<path fill="#FFFFFF" stroke="#000000" stroke-miterlimit="10" d="M410.24,690.5c-3.95,8.34-7.04,15.04-8.66,18.62
	c-12.21,1.17-20.22,12.77-27.9,21.45c-3.54,4-7.02,7.38-10.8,8.82c-7.14,2.72-15.88-8.31-22.29-17.82
	c1.36-12.47,5.07-43.34,9.15-50.14c-0.96-3.63,0.72-14.3,3.82-27.64c15.74-14.9,41.15-45.1,53.85-80.84
	c15.69-44.13,33.28-110.69,37.93-128.6l22.88,78.93c0,0-54.53,73.08-66.64,103.35C390.4,644.53,404.8,678.25,410.24,690.5z"/>
<path fill="#FFFFFF" stroke="#000000" stroke-miterlimit="10" d="M374.09,765.89c-14.13,24.64-44.52,77.34-62.79,106.13
	c5.11-73.43,28.74-145.2,28.74-145.2s0.19-1.99,0.55-5.25c6.4,9.5,15.15,20.53,22.29,17.82c3.78-1.44,7.26-4.82,10.8-8.82
	C373.68,738.87,373.74,751.8,374.09,765.89z"/>
<path fill="#FFFFFF" stroke="#000000" stroke-miterlimit="10" d="M378.64,827.97c0,0.01,0,0.01,0,0.01
	c-13.32,29.72-29.6,59.24-31.47,66.7c-0.73,2.91-1.12,4.94-1.29,6.5c-13.55,9.66-28.74,7.17-36.93,4.66
	c0.43-1.61,0.9-3.23,1.39-4.88c-0.07-9.58,0.29-19.26,0.95-28.93c0,0,0,0,0-0.01c18.26-28.8,48.66-81.49,62.79-106.13
	C374.63,788.16,375.87,813.36,378.64,827.97z"/>
<path fill="#FFFFFF" stroke="#000000" stroke-miterlimit="10" d="M400.28,711.97c0,0,2.57,35.55-5.57,71.94
	c-2.81,12.59-9.02,28.34-16.06,44.06c-2.78-14.61-4.01-39.82-4.55-62.08c-0.35-14.09-0.41-27.02-0.41-35.32
	c7.68-8.67,15.69-20.28,27.9-21.45C400.74,710.96,400.28,711.97,400.28,711.97z"/>
<path fill="#FFFFFF" stroke="#000000" stroke-miterlimit="10" d="M359.17,984.05c0,8.28-12.57,6.56-16.84,5.14
	c0,1.44-12.28-1.72-12.28-1.72s-8.57,2.28-9.71,1.59c-1.14-0.68-7.14-0.16-7.14-0.16s-9.71,2.28-10.85-10.28
	c-1.09-12.01-3.23-37.11,6.61-72.77c8.19,2.51,23.38,5,36.93-4.66c-0.49,4.6,1,5.17,1.85,11.77c1.14,8.85-3.14,15.13-2.85,15.99
	C345.18,929.8,359.17,975.77,359.17,984.05z"/>
<path fill="#FFFFFF" stroke="#000000" stroke-miterlimit="10" d="M445.34,434.35c-4.65,17.91-22.24,84.47-37.93,128.6
	c-12.7,35.74-38.11,65.95-53.85,80.84c4.2-18.21,11.04-41.44,17.3-58.57c9.52-26.05,42.76-130.76,51.94-160.69
	c6.66,5.09,15.01,9.5,21.59,6.51L445.34,434.35z"/>
<path fill="#FFFFFF" stroke="#000000" stroke-miterlimit="10" d="M571.72,360.03c-7.24,5.49-19.1,11.58-34.13,9.08
	c-0.58,0.07-1.15,0.13-1.74,0.18c0.18-1.95,0.22-3.68,0.04-5.03c-0.59-4.52,1.29-13.73,3.26-21.66c1.84,0.5,3.03,0.82,3.03,0.82
	s12.8-14.65,26.95-12.89C568.42,341.05,569.71,351.07,571.72,360.03z"/>
<path fill="#FFFFFF" stroke="#000000" stroke-miterlimit="10" d="M573.93,306.91c-0.77,2.66-1.56,5.49-2.37,8.52
	c-1.11,4.19-1.83,8.36-2.23,12.45c-0.08,0.89-0.16,1.77-0.22,2.64c-14.15-1.75-26.95,12.89-26.95,12.89s-1.19-0.31-3.03-0.82
	c1.9-7.61,3.88-14.03,3.88-14.03l2.26-12.93C557.12,315.37,565.47,312.08,573.93,306.91z"/>
<path fill="#FFFFFF" stroke="#000000" stroke-miterlimit="10" d="M665.48,364.22c-2.87-0.8-6.76-1.5-8.84-0.25
	c-2.26,1.36-3.38,3.87-3.88,5.51c-0.6-0.34-1.21-0.66-1.83-0.95c-5.74-2.72-7.21,3.82-7.58,7.51c-0.28-0.13-0.56-0.26-0.84-0.37
	c-3.89-1.51-4.76,2.8-4.95,4.97c-2.15-1.35-3.08,6.31-3.08,6.31c-0.29-0.59-0.93-1.13-2.97-2.35c-5.35-3.22-10.49-11.57-12.84-15.85
	c-1.32-2.39-15.49-13.76-29.25-24.74l-1.57-4.99l10.7-1.32l-2.35-11.14c0,0,10.7,0.65,10.27,0c-0.43-0.64-1.92-11.77-1.92-11.77
	l7.48,7.06l1.55-2.84c9.38,12.99,19.43,26.42,21.65,27.52c0.05,0.02,0.11,0.06,0.17,0.08c0.19,2.37,1.24,6.7,5.96,9.2
	c6.72,3.57,18.26,5.13,18.71,5.71c0.24,0.31,2.74,0.77,3.6-0.2C664.27,362.25,664.88,363.23,665.48,364.22z"/>
<path fill="#FFFFFF" stroke="#000000" stroke-miterlimit="10" d="M612.03,321.86l-7.48-7.06c0,0,1.49,11.14,1.92,11.77
	c0.43,0.65-10.27,0-10.27,0l2.35,11.14l-10.7,1.32l1.57,4.99c-7.54-6.01-14.96-11.89-20.09-16.14c0.41-4.08,1.13-8.25,2.23-12.45
	c0.8-3.03,1.6-5.86,2.37-8.52c2.94-10.13,5.66-17.74,7.92-24.27c4.25,2.63,11.37,7.51,14.84,12.52c2.28,3.3,9.38,13.44,16.89,23.86
	L612.03,321.86z"/>
<path fill="#FFFFFF" stroke="#000000" stroke-miterlimit="10" d="M648.22,396.16c0,0-5.78,4.29-10.7-2.78
	c-3.04-4.37-2.57-5.47-3.03-6.43c0,0,0.92-7.65,3.08-6.31c0.12,0.06,0.25,0.17,0.38,0.31C640.37,383.53,645.08,393.95,648.22,396.16
	z"/>
<path fill="#FFFFFF" stroke="#000000" stroke-miterlimit="10" d="M660.06,386.95c-0.96,3.1-5.51,8.01-6.92,6.43
	c-0.22,2.78-4.93,2.78-4.93,2.78c-3.14-2.21-7.85-12.63-10.27-15.2c-0.13-0.14-0.26-0.25-0.38-0.31c0.19-2.17,1.06-6.49,4.95-4.97
	c0.28,0.11,0.56,0.24,0.84,0.37C648.19,378.41,652.9,384.66,660.06,386.95z"/>
<path fill="#FFFFFF" stroke="#000000" stroke-miterlimit="10" d="M670.27,376.47c-1.42,1.95-4.17,3.17-5.06,3.53
	c-1.44-1.63-6.51-7.14-12.46-10.51c0.5-1.65,1.62-4.16,3.88-5.51c2.08-1.25,5.97-0.55,8.84,0.25
	C668.57,369.34,671.32,375.04,670.27,376.47z"/>
<path fill="#FFFFFF" stroke="#000000" stroke-miterlimit="10" d="M665.22,380c-0.19,0.07-0.3,0.11-0.3,0.11s-0.85,7.06-4.71,6.2
	c-0.02,0.2-0.08,0.42-0.14,0.65c-7.16-2.29-11.87-8.54-16.71-10.91c0.37-3.69,1.84-10.22,7.58-7.51c0.61,0.29,1.23,0.61,1.83,0.95
	C658.7,372.86,663.77,378.36,665.22,380z"/>
<path fill="#FFFFFF" stroke="#000000" stroke-miterlimit="10" d="M663.67,361.34c-0.87,0.97-3.36,0.52-3.6,0.2
	c-0.44-0.58-11.99-2.14-18.71-5.71c-4.72-2.5-5.77-6.84-5.96-9.2c4.3,2.03,21.22,5.9,24.59,9.7
	C660.93,357.39,662.26,359.2,663.67,361.34z"/>
<path fill="#FFFFFF" stroke="#000000" stroke-miterlimit="10" d="M479.92,351.84c-0.5,3.34-0.31,6.28-0.02,8.91
	c0.71,6.45,2.01,11.1-4.81,15.55c-2.17,1.42-5.18,2.81-9.3,4.23c-3.02,1.03-6.1,1.51-9.2,1.54c-7.34-29.25-25-93.81-29.48-103.45
	c-4.39-9.48-19.46-50.64-25.88-66.07c4.49-1.18,8.29-2.21,10.61-2.88c0.46-0.13,0.93-0.25,1.41-0.37
	c10.34,18.6,38.9,68.94,49.56,78.45c10.28,9.17,30.88,23.58,39.35,29.4c-3.16,3.72-6.7,8.06-10.02,12.51
	C486.07,337.74,480.77,346.19,479.92,351.84z"/>
<path fill="#FFFFFF" stroke="#000000" stroke-miterlimit="10" d="M418.48,122.79c-0.42,3.62-1.32,6.62-2.68,8.97
	c-2.71,4.76-7.24,7-13.38,6.96c-5.19-0.04-9.64-4.33-12.53-8.08c3.08-3.79,5.26-10.02,5.03-18.85c-0.43-16.89,3.42-16.89-1.71-29.1
	c6-13.27,19.48-1.5,19.48-1.5c0.34-0.35,0.67-0.68,1.01-0.98c0.3,0.8,0.58,1.68,0.86,2.61c0.09,0.31,0.18,0.62,0.27,0.95
	c0.8,2.88,1.49,6.25,2.06,9.82c0.08,0.47,0.15,0.94,0.22,1.41c0.28,1.9,0.53,3.85,0.75,5.79c0.01,0.08,0.02,0.17,0.03,0.25
	c0.09,0.83,0.17,1.66,0.25,2.48c0,0.05,0.01,0.1,0.01,0.14c0.07,0.78,0.14,1.56,0.2,2.32c0.01,0.18,0.03,0.36,0.04,0.53
	c0.17,2.26,0.29,4.45,0.35,6.52c0.02,0.68,0.03,1.35,0.04,2C418.82,118.06,418.72,120.73,418.48,122.79z"/>
<path fill="#FFFFFF" stroke="#000000" stroke-miterlimit="10" d="M434.1,100.02l-8.52-0.41l-0.11,2.18l1.94,0.1
	c-0.84,0.72-1.42,1.84-1.48,3.12c-0.06,1.21,0.36,2.33,1.07,3.12l-1.66-0.08l-0.1,2.18l8.18,0.4l0.1-2.18l-1.65-0.08
	c0.78-0.72,1.3-1.79,1.36-3.01c0.06-1.28-0.4-2.45-1.17-3.25l1.94,0.09L434.1,100.02z M429.49,107.13
	c-0.95-0.05-1.68-0.96-1.63-2.03s0.87-1.91,1.81-1.86c0.95,0.04,1.69,0.95,1.63,2.03C431.25,106.34,430.44,107.18,429.49,107.13z"/>
<path fill="#FFFFFF" stroke="#000000" stroke-miterlimit="10" d="M439.17,105.27c-0.5-0.62-1.68-0.83-2.22-0.9
	c-0.01-0.32-0.05-0.64-0.1-0.95c-0.64-3.66-3.41-6.48-6.86-6.65c-2.66-0.12-5.07,1.35-6.48,3.67c0,0-4.42-0.29-5.65,0.35
	c-0.22-1.94-0.47-3.89-0.75-5.79c-0.07-0.47-0.14-0.94-0.22-1.41c-0.57-3.57-1.26-6.94-2.06-9.82c-0.09-0.33-0.18-0.64-0.27-0.95
	c-0.28-0.93-0.56-1.81-0.86-2.61c10.31-9.33,22.55,2.92,22.55,2.92s0.19-0.06,0.55-0.15C438.11,88.68,438.94,96.48,439.17,105.27z"
	/>
<path fill="#FFFFFF" stroke="#000000" stroke-miterlimit="10" d="M439.24,109.95c0.02,8.09-0.45,16.78-1.5,25.27
	c-0.51,0.54-1,1.02-1.49,1.47c-4.76,4.25-9.18,4.07-12.88,2.11c-3.1-1.62-5.69-4.49-7.57-7.04c1.36-2.35,2.26-5.35,2.68-8.97
	c0.24-2.06,0.34-4.73,0.3-7.76c-0.01-0.65-0.02-1.32-0.04-2c-0.06-2.07-0.18-4.26-0.35-6.52c1-0.16,3.19,0.08,3.91,0.16
	c0.57,3.74,3.37,6.64,6.88,6.81c2.93,0.14,5.55-1.67,6.88-4.4C436.78,109.14,438.66,109.34,439.24,109.95z"/>
<path fill="#FFFFFF" stroke="#000000" stroke-miterlimit="10" d="M535.85,369.29c-1.01,10.73-6.54,28.15-6.54,28.15
	c-13.55,4.36-38.33-1.27-51.81-4.9c-0.24-6.25-1.61-12.84-2.41-16.24c6.81-4.45,5.51-9.09,4.81-15.55
	C492.74,365.02,515.8,371.27,535.85,369.29z"/>
<path fill="#FFFFFF" stroke="#000000" stroke-miterlimit="10" d="M535.88,364.26c0.18,1.36,0.14,3.09-0.04,5.03
	c-20.05,1.98-43.11-4.28-55.95-8.54c-0.29-2.63-0.48-5.57,0.02-8.91c0.85-5.65,6.15-14.09,12.21-22.19
	c8.23,1.79,24.04,5.33,28.62,7.21c4.53,1.84,13.65,4.43,18.39,5.74C537.17,350.53,535.29,359.74,535.88,364.26z"/>
<path fill="#FFFFFF" stroke="#000000" stroke-miterlimit="10" d="M545.28,315.64l-2.26,12.93c0,0-1.98,6.43-3.88,14.03
	c-4.75-1.31-13.86-3.9-18.39-5.74c-4.58-1.87-20.39-5.42-28.62-7.21c3.32-4.45,6.86-8.78,10.02-12.51c5.53-6.5,9.9-11.13,9.9-11.13
	s14.69,9.43,30.68,9.64C543.6,315.66,544.45,315.66,545.28,315.64z"/>
<path fill="#FFFFFF" stroke="#000000" stroke-miterlimit="10" d="M570.42,248.84c-2.87-6.76-7.65-12.59-14.19-17.25
	c-7.97-5.67-16.8-8.46-22.66-9.38c-2.69-0.42-4.76-0.44-5.84-0.18c-1.12,0.16-6.81,1.2-10.85,7.16c-3.44,5.11-4.66,12.18-3.66,21.15
	c0.5,4.54,1.59,9.59,3.23,15.09c1.77,5.9,3.18,10.9,4.4,15.19c0.58,2.07,1.11,3.96,1.6,5.73c5.21,18.75,5.75,20.71,14.99,21.48
	c0.59,0.05,1.21,0.07,1.86,0.07c6.14,0,14.92-2.27,22.05-8.87c6.82-6.34,10.85-15.28,11.98-26.62c0.24-2.39,0.35-4.9,0.32-7.51
	C573.61,259.11,572.51,253.73,570.42,248.84z M558.9,296.38c-7.02,6.5-15.8,8.29-21.16,7.85c-6.73-0.56-6.73-0.56-11.82-18.86
	c-1.51-5.44-3.4-12.22-6.02-20.98c-5.67-18.95-3.17-28.46-0.07-33.1c3.4-5.11,8.23-5.67,8.43-5.69l0.4-0.08
	c1.8-0.54,14.97,1.26,26.08,9.46c10.06,7.41,15.2,17.49,15.31,29.96C570.16,278.83,566.41,289.41,558.9,296.38z"/>
<path fill="#FFFFFF" stroke="#000000" stroke-miterlimit="10" d="M554.75,234.96c-11.11-8.19-24.28-10-26.08-9.46l-0.4,0.08
	c-0.2,0.02-5.03,0.59-8.43,5.69c-3.1,4.64-5.6,14.15,0.07,33.1c2.62,8.76,4.51,15.53,6.02,20.98c5.09,18.3,5.09,18.3,11.82,18.86
	c5.36,0.44,14.14-1.35,21.16-7.85c7.51-6.97,11.26-17.55,11.15-31.45C569.94,252.45,564.8,242.37,554.75,234.96z M543.37,285.89
	c-6.7,0.2-14.5,2.04-14.59,2.07l-1.38-5.84c0.17-0.05,2.5-0.6,5.72-1.14c-0.08-0.07-0.17-0.13-0.25-0.2
	c-3.39-3.12-7.48-8.99-7.77-19.21c-0.24-8.29,1.21-13.61,3.22-17.04l-4.89,0.36l-0.44-6l28.91-2.14l0.44,6l-4.45,0.32
	c5.03,3.95,9.88,10.04,11.21,16.99c1.23,6.37,0.19,13.04-2.68,18.08c3.9-0.72,6.96-1.38,7.02-1.39l1.29,5.86
	C564.14,282.74,550.65,285.67,543.37,285.89z"/>
<path fill="#FFFFFF" stroke="#000000" stroke-miterlimit="10" d="M587.74,261.12c-1.05,7.24-3.14,13.58-5.89,21.53
	c-2.26,6.52-4.97,14.14-7.92,24.27c-8.46,5.17-16.81,8.46-28.65,8.72c-0.83,0.02-1.68,0.02-2.55,0.01
	c-15.99-0.2-30.68-9.64-30.68-9.64s-26.55-28.26-40.6-42.39c-3.59-3.62-8.22-10-13.12-17.48c10.12,3.98,24.85,10.44,33.87,16.21
	c14.27,9.12,28.65,18.25,28.65,18.25c0.58,2.07,1.11,3.96,1.6,5.73c5.21,18.75,5.75,20.71,14.99,21.48
	c0.59,0.05,1.21,0.07,1.86,0.07c6.14,0,14.92-2.27,22.05-8.87c6.82-6.34,10.85-15.28,11.98-26.62
	C573.56,272.23,580.05,267.42,587.74,261.12z"/>
<path fill="#FFFFFF" stroke="#000000" stroke-miterlimit="10" d="M563.43,276.75c-0.06,0.01-3.11,0.67-7.02,1.39
	c2.87-5.05,3.9-11.71,2.68-18.08c-1.33-6.94-6.18-13.04-11.21-16.99l4.45-0.32l-0.44-6l-28.91,2.14l0.44,6l4.89-0.36
	c-2.01,3.42-3.46,8.75-3.22,17.04c0.29,10.22,4.39,16.09,7.77,19.21c0.08,0.07,0.17,0.13,0.25,0.2c-3.22,0.54-5.55,1.09-5.72,1.14
	l1.38,5.84c0.08-0.02,7.88-1.86,14.59-2.07c7.28-0.22,20.77-3.15,21.35-3.28L563.43,276.75z M550.12,276.8
	c-1.42,1.8-3.06,2.85-4.67,2.96h-0.04c-2.81,0.16-5.98-1.12-8.47-3.4c-2.55-2.34-5.61-6.82-5.85-14.96
	c-0.37-13.2,4-16.92,6.63-17.04c2.5-0.08,13.58,6.93,15.47,16.83C554.29,266.87,553.09,272.99,550.12,276.8z"/>
<path fill="#FFFFFF" stroke="#000000" stroke-miterlimit="10" d="M550.12,276.8c-1.42,1.8-3.06,2.85-4.67,2.96h-0.04
	c-2.81,0.16-5.98-1.12-8.47-3.4c-2.55-2.34-5.61-6.82-5.85-14.96c-0.37-13.2,4-16.92,6.63-17.04c2.5-0.08,13.58,6.93,15.47,16.83
	C554.29,266.87,553.09,272.99,550.12,276.8z"/>
<path fill="#FFFFFF" stroke="#000000" stroke-miterlimit="10" d="M533.58,222.2c-2.69-0.42-4.76-0.44-5.84-0.18
	c-1.12,0.16-6.81,1.2-10.85,7.16c-3.44,5.11-4.66,12.18-3.66,21.15c-4.1-1.6-24.03-9.34-37.2-13.58
	c-11.05-3.56-26.2-11.94-33.1-15.92c-0.01-0.01-0.01-0.01-0.01-0.01c-1.47-2.53-2.87-5-4.2-7.35c11.05-0.67,48.92-2.84,60.34-1.38
	C512.47,213.8,533.58,222.2,533.58,222.2z"/>
<path fill="#FFFFFF" stroke="#000000" stroke-miterlimit="10" d="M520.85,280.6c0,0-14.38-9.13-28.65-18.25
	c-9.02-5.77-23.75-12.23-33.87-16.21v-0.01c-5.14-7.85-10.57-16.93-15.4-25.3c6.9,3.98,22.05,12.36,33.1,15.92
	c13.17,4.24,33.1,11.98,37.2,13.58c0.5,4.54,1.59,9.59,3.23,15.09C518.22,271.32,519.64,276.31,520.85,280.6z"/>
<path fill="#FFFFFF" stroke="#000000" stroke-miterlimit="10" d="M512.05,306.01c0,0-4.37,4.63-9.9,11.13
	c-8.47-5.81-29.06-20.23-39.35-29.4c-10.66-9.52-39.21-59.85-49.56-78.45c6.82-1.69,15.99-2.2,19.7-6.19
	c1.65,2.99,3.6,6.52,5.77,10.37c1.33,2.35,2.74,4.82,4.2,7.35c0,0,0,0,0.01,0.01c4.83,8.37,10.26,17.46,15.4,25.3v0.01
	c4.9,7.48,9.53,13.86,13.12,17.48C485.5,277.76,512.05,306.01,512.05,306.01z"/>
<path fill="#FFFFFF" stroke="#000000" stroke-miterlimit="10" d="M468.22,513.28c0,0-5.9,46.64-6.69,80.48
	c-4.95,10.4-9.74,19.91-14.15,26.58c-11.53,17.44-27.12,49.03-37.14,70.16c-5.44-12.25-19.84-45.98-8.66-73.88
	C413.69,586.37,468.22,513.28,468.22,513.28z"/>
<path fill="#FFFFFF" stroke="#000000" stroke-miterlimit="10" d="M525.77,148.35c-1.66-0.41-4.83-1.55-4.83-1.55
	s-2.15,0.76-3.33,1.12c-1.18,0.38-2.35,0.74-3.54,1.06l-0.31,0.08l-0.34-0.1c-2.04-0.58-6.06-1.97-6.06-1.97s-4.53,0.66-7.44,1.36
	c2.31-1.35,4.72-2.39,7.14-3.38l0.23-0.1l0.37,0.08c2.16,0.5,6.16,1.61,6.16,1.61s2.15-0.52,3.23-0.74c1.2-0.26,2.43-0.47,3.65-0.68
	l0.37-0.07l0.19,0.13C522.81,146.19,524.33,147.19,525.77,148.35z"/>
<path fill="#FFFFFF" stroke="#000000" stroke-miterlimit="10" d="M504.54,106.73c0,0-6.2,3.05-10.8,0.9c-4.6-2.14-7-5.49-7-5.49
	s5.44-2.64,10.34-1.68C501.98,101.44,504.54,106.73,504.54,106.73z"/>
<path fill="#FFFFFF" stroke="#000000" stroke-miterlimit="10" d="M538.6,101c-4.93,9.31-15.52,5.6-15.74,4.06
	C524.55,101.84,530.73,98.76,538.6,101z"/>
<path fill="#FFFFFF" stroke="#000000" stroke-miterlimit="10" d="M434.1,100.02l-8.52-0.41l-0.11,2.18l1.94,0.1
	c-0.84,0.72-1.42,1.84-1.48,3.12c-0.06,1.21,0.36,2.33,1.07,3.12l-1.66-0.08l-0.1,2.18l8.18,0.4l0.1-2.18l-1.65-0.08
	c0.78-0.72,1.3-1.79,1.36-3.01c0.06-1.28-0.4-2.45-1.17-3.25l1.94,0.09L434.1,100.02z M429.49,107.13
	c-0.95-0.05-1.68-0.96-1.63-2.03s0.87-1.91,1.81-1.86c0.95,0.04,1.69,0.95,1.63,2.03C431.25,106.34,430.44,107.18,429.49,107.13z"/>
<path fill="#FFFFFF" stroke="#000000" stroke-miterlimit="10" d="M436.95,104.37c-0.01-0.32-0.05-0.64-0.1-0.95
	c-0.64-3.66-3.41-6.48-6.86-6.65c-2.66-0.12-5.07,1.35-6.48,3.67c-0.76,1.24-1.23,2.72-1.31,4.33c-0.03,0.65,0,1.28,0.1,1.9
	c0.57,3.74,3.37,6.64,6.88,6.81c2.93,0.14,5.55-1.67,6.88-4.4c0.53-1.08,0.85-2.3,0.91-3.6
	C436.99,105.1,436.99,104.73,436.95,104.37z M434,102.2l-1.94-0.09c0.77,0.8,1.23,1.97,1.17,3.25c-0.06,1.22-0.58,2.29-1.36,3.01
	l1.65,0.08l-0.1,2.18l-8.18-0.4l0.1-2.18l1.66,0.08c-0.71-0.79-1.13-1.91-1.07-3.12c0.06-1.28,0.64-2.4,1.48-3.12l-1.94-0.1
	l0.11-2.18l8.52,0.41L434,102.2z"/>
<path fill="#FFFFFF" stroke="#000000" stroke-miterlimit="10" d="M431.3,105.27c-0.05,1.07-0.86,1.91-1.81,1.86
	c-0.95-0.05-1.68-0.96-1.63-2.03s0.87-1.91,1.81-1.86C430.62,103.28,431.36,104.19,431.3,105.27z"/>
<path fill="#FFFFFF" stroke="#000000" stroke-miterlimit="10" d="M434.1,100.02l-8.52-0.41l-0.11,2.18l1.94,0.1
	c-0.84,0.72-1.42,1.84-1.48,3.12c-0.06,1.21,0.36,2.33,1.07,3.12l-1.66-0.08l-0.1,2.18l8.18,0.4l0.1-2.18l-1.65-0.08
	c0.78-0.72,1.3-1.79,1.36-3.01c0.06-1.28-0.4-2.45-1.17-3.25l1.94,0.09L434.1,100.02z M429.49,107.13
	c-0.95-0.05-1.68-0.96-1.63-2.03s0.87-1.91,1.81-1.86c0.95,0.04,1.69,0.95,1.63,2.03C431.25,106.34,430.44,107.18,429.49,107.13z"/>
<path fill="#FFFFFF" stroke="#000000" stroke-miterlimit="10" d="M436.97,105.48c0.02-0.38,0.02-0.75-0.02-1.11
	c0.54,0.07,1.72,0.28,2.22,0.9c0.04,1.53,0.07,3.09,0.07,4.68c-0.58-0.61-2.46-0.81-3.18-0.87
	C436.59,108,436.91,106.78,436.97,105.48z"/>
<path fill="#FFFFFF" stroke="#000000" stroke-miterlimit="10" d="M422.2,104.77c-0.03,0.65,0,1.28,0.1,1.9
	c-0.72-0.08-2.91-0.32-3.91-0.16c-0.01-0.17-0.03-0.35-0.04-0.53c-0.06-0.77-0.12-1.54-0.2-2.32c0-0.04-0.01-0.09-0.01-0.14
	c-0.08-0.82-0.16-1.65-0.25-2.48c-0.01-0.08-0.02-0.17-0.03-0.25c1.23-0.64,5.65-0.35,5.65-0.35
	C422.75,101.68,422.28,103.16,422.2,104.77z"/>
</svg>
