<?xml version="1.0" encoding="utf-8"?>
<!-- Generator: Adobe Illustrator 25.2.0, SVG Export Plug-In . SVG Version: 6.00 Build 0)  -->
<svg version="1.1" id="Layer_1" xmlns="http://www.w3.org/2000/svg" xmlns:xlink="http://www.w3.org/1999/xlink" x="0px" y="0px"
	 viewBox="0 0 1000 1000" style="enable-background:new 0 0 1000 1000;" xml:space="preserve">
<style type="text/css">
	.st0{fill:#FFFFFF;stroke:#000000;stroke-miterlimit:10;}
	.st1{fill:#FFFFFF;stroke:#010101;stroke-miterlimit:10;}
</style>
<path class="st0" d="M572.4,467.6c-0.7,5-6.1,11.4-6.1,11.4s-4.6,5.4-6.4,8.2c-1.8,2.9,1,7.6,1.5,9.4c0.5,1.8-0.6,1.8-0.6,1.8
	l-5.8-6.9c0,0-1.6-11.3-1-12.6c0.5-0.9,8.4-8.4,12.5-12.2c1.5-1.4,2.5-2.3,2.5-2.3s0.3-0.3,0.8-0.7
	C571.3,464.1,572.8,465.1,572.4,467.6z"/>
<path class="st1" d="M576.6,481.6c-7.4,5.3-10,13-10.9,16.5c-1.7-0.5-3.3-1.1-4.9-1.7c0,0,0,0,0,0c0-0.2,0-3.1,1.8-6.7
	c0.2-0.5,0.5-1.1,0.9-1.6c1.4-2.3,3.5-4.7,6.6-6.9C571.9,481.3,574.1,481.4,576.6,481.6z"/>
<path class="st1" d="M582.4,482.1c-6.9,5.2-10.4,13.5-11.8,17.5c-1.7-0.4-3.3-0.9-4.9-1.5c0.9-3.5,3.5-11.2,10.9-16.5
	C578.4,481.7,580.3,481.9,582.4,482.1z"/>
<path class="st1" d="M590.7,483.1c-8.6,6.2-11.6,14.2-12.5,18.3c-2.5-0.5-5-1.2-7.6-1.9c1.3-4,4.9-12.3,11.8-17.5
	C585,482.3,587.8,482.6,590.7,483.1z"/>
<path class="st1" d="M598.5,484.3c-6.1,4.9-10.5,13.3-12.8,18.5c-2.4-0.4-4.9-0.9-7.5-1.5c1-4.1,3.9-12.1,12.5-18.3
	C593.2,483.4,595.8,483.8,598.5,484.3z"/>
<path class="st1" d="M606.2,486c-5.8,5.2-10.8,13.9-12.9,18c-2.3-0.3-4.9-0.7-7.6-1.2c2.3-5.2,6.7-13.6,12.8-18.5
	C601,484.8,603.6,485.4,606.2,486z"/>
<path class="st1" d="M608.8,486.6c1.2,1.8,2,3.2,2.6,4.3c-5,4.2-9.5,10.3-12,13.8c-1.8-0.2-3.8-0.4-6.2-0.7
	c2.2-4.2,7.1-12.9,12.9-18c0.8,0.2,1.5,0.4,2.3,0.5C608.6,486.6,608.7,486.6,608.8,486.6z"/>
<path class="st1" d="M563.9,481.2c0,0-2.4,2.2-3.6,5.8c-6.1-2.6-15.6-8.2-16.5-8.9c-0.5-0.4-2.7-0.6-5,0c0.1-2.4,1-5.9,4.7-8.1
	L563.9,481.2z"/>
<path class="st0" d="M446.4,144.5c-1.3-16.9,1.3-26.5,3.2-31.1c-14.3,1.5-28.7,16.3-29.1,31c-0.5,15.1,1.5,30.7,5.1,38.1
	c1.6,3.4,4.9,9.9,8.8,16.2c1.4,2.2,2.8,4.4,4.2,6.4c0,0,0,0,0,0c1.2,1.6,2.4,3.2,3.6,4.6l0,0c1,1.1,1.9,2.1,2.8,2.9
	c1.5,1.3,3,2.2,4.4,2.6c1.2,0.3,2.6,0.3,4.2,0C452.1,202.4,448,165.5,446.4,144.5z M445.3,172.2c-4.4,3.3-9.8,3.7-14,1.8
	c-4.1-1.9-4.4-7.6,0.9-8.2C437.6,165.3,445.9,171.7,445.3,172.2z"/>
<path class="st0" d="M477.4,123.9c-7.6-8.1-18.5-11.1-26.7-10.6c-0.4,0-0.7,0.1-1,0.1c-1.9,4.6-4.5,14.2-3.2,31.1
	c1.6,21,5.7,57.9,7.1,70.6c1.5-0.3,3.2-0.8,4.9-1.5c1.2-3.9,7.9-26.6,12.5-32.1c3.5-4.3,10.6-8,14.5-9.8c0-0.4,0.1-0.7,0.2-1.1
	c0.1-0.6,0.2-1.1,0.3-1.7c0.1-0.5,0.2-1,0.3-1.6c0.2-1.4,0.3-3.1,0.3-5C486.5,150.4,483.6,130.5,477.4,123.9z M473.3,168.9
	c-0.3,1-2.5,6-5.3,6s-13.3-1.9-13.3-1.9s9.1-8.1,13.3-8.3S473.5,167.9,473.3,168.9z"/>
<path class="st0" d="M485.3,171.7c-1.1,7.4-0.7,13.2-4.9,22.6c-0.5,1.1-1.1,2.2-1.9,3.4c-1,1.5-2.2,2.9-3.5,4.3
	c-1.4,1.4-2.9,2.8-4.4,4.1c-3.9,3.2-8.2,5.9-12.2,7.5c1.2-3.9,7.9-26.6,12.5-32.1C474.4,177.2,481.5,173.5,485.3,171.7z"/>
<path class="st0" d="M426.1,195.6c-3,3.6-9.4,11.7-9.5,17c-0.1,2.1-1.1,4.5-2.5,6.8c-3.2,5.4-8.5,10.3-8.5,10.3s-0.8-0.2-1.9-0.8
	l-4.2-4.6l-1.1,1.2c-1.8-1.5-3.3-3.5-4-6c1.5-1.3,3-2.6,4.5-4h0c0.5-0.5,1-0.9,1.5-1.4c0,0,0,0,0,0c9.7-8.8,18.6-17.6,22.1-18.5
	C423.6,195.4,424.8,195.4,426.1,195.6z"/>
<path class="st0" d="M414.1,219.5c1.4-2.3,2.5-4.7,2.5-6.8c0.1-5.3,6.5-13.4,9.5-17c3,0.4,6.1,1.9,8.2,3.1c1.4,2.2,2.8,4.4,4.2,6.4
	c0,0,0,0,0,0C439.3,210.3,437.8,220.8,414.1,219.5z"/>
<path class="st0" d="M397.8,215.5c-2.3,1.3-5.8,3.5-9.1,6.6c-0.6,0.6-1.2,1.7-1.7,3.1v0c-1.1,3.4-1.7,8.6-2,14.3l-17.6,18.6l0.3,0.3
	c-2.8,0-5.2,0-5.8-0.3c-0.9-0.4-6.2-6.9-10.7-12.5c4.4-10.9,16-27.7,22.1-30.3C378.1,213.3,390.3,214.5,397.8,215.5z"/>
<path class="st0" d="M380,270.4c0,0.8,0,1.9-0.1,3.1v0c-0.4,0.7-0.8,1.3-1.1,2.1v0c-0.9,1.8-1.7,3.8-2.4,5.9
	c-2.9,9-18.7,20.6-18.7,20.6s-4.9-2.5-7.8-7.3s-2.1-34.7-0.2-44.3c0.3-1.4,0.8-3.1,1.6-4.9c4.5,5.6,9.8,12.1,10.7,12.5
	c0.6,0.3,3.1,0.4,5.8,0.3L380,270.4z"/>
<path class="st0" d="M393.5,343.3c-6.3,7.9-16.4,16.6-16.4,16.6s-0.1,0.3-0.3,1.6c-6.4,1.5-23.8,5-34.9,2.4
	c0.6-11-3.2-17.2-5.8-20.1c3.4-4.9,14-20,15.5-24.1c0,0,1.1,0.6,2.9,0.8h0l8.9,11.2l21.9,11L393.5,343.3z"/>
<path class="st0" d="M376.7,361.5c-0.3,2-0.8,6.4-1.5,15.9c-1.1,15.7-12.7,43.1-25.2,55.1c-11.2,10.6-14.1,24.7-14.6,27.8l-0.3,0.2
	c-0.1-0.1-0.1-0.2-0.1-0.2c-0.5-0.2-6.4-2.1-13.8-3.9c1.6-6.7,4.7-19.9,4-23.7c-0.9-5.2,6.3-15.4,7.7-32.1
	c1.4-16.6,12.5-17.6,9.6-20.2c-2-1.9-4.2-5.2-5.3-7c1.3-0.1,2.4-0.3,3.3-0.4c0.8-3.4,1.2-6.4,1.4-9.1
	C352.9,366.6,370.3,363,376.7,361.5z"/>
<path class="st0" d="M332.9,400.6c-1.4,16.6-8.6,26.9-7.7,32.1c0.7,3.8-2.4,17-4,23.7c-1-0.2-2-0.5-3-0.7c0.5-4.2,2.2-18.6-0.7-23.1
	c-3.4-5.3,3.9-19.4,3.9-19.4s-3-2.5-3-12.5c0-5.1-3.9-9.4-7.7-12.3c0.7-3.7,1.4-6.8,2.1-9.1c1-3.3,2.7-6.9,4.7-10.3
	c9.2,5,15.5,5.1,19.8,4.6c1.1,1.8,3.3,5.1,5.3,7C345.4,383,334.3,383.9,332.9,400.6z"/>
<path class="st0" d="M341.9,363.9c-0.1,2.7-0.6,5.8-1.4,9.1c-0.9,0.1-2,0.3-3.3,0.4c-4.2,0.4-10.6,0.3-19.8-4.6
	c6.9-12.1,17.5-23.4,17.5-23.4s0.4-0.6,1.1-1.5C338.6,346.7,342.5,352.9,341.9,363.9z"/>
<path class="st0" d="M317.5,432.5c2.9,4.5,1.2,19,0.7,23.1c-0.6-0.1-1.2-0.3-1.8-0.4c-7.1-1.5-14.8-2.6-20.5-2.1
	c6.7-5.8,10.9-44.2,14.8-64.9c3.8,3,7.7,7.2,7.7,12.3c0,10,3,12.5,3,12.5S314.1,427.1,317.5,432.5z"/>
<path class="st0" d="M408.7,632.5c-0.1,2-0.5,4.4-1,6.9c-2.3,11.5-7.6,26.1-7.6,26.1s-8.7,10.1-26.3-3.5c-3.1-4.2-8.4-8.2-10.5-12.4
	c-3.3-6.7,0-36.8,0-36.8l10-11.2l5.6-0.9l3.5-0.5C382.4,600.2,404.9,622.8,408.7,632.5z"/>
<path class="st0" d="M440.7,663.5c-6.2,1.5-13.8,12.1-17.9,18.4c-1-5.8-2.2-11.2-3.6-12c-3-1.7-33.1,24-38.7,22.2
	c-0.5-0.2-1-0.4-1.6-0.8c-1.6-8.7-2.8-15.6-3-19.2c0-1,0-1.7,0.1-2.2c0.6-2.8-0.5-5.3-2.3-7.8c17.6,13.6,26.3,3.5,26.3,3.5
	s5.3-14.6,7.6-26.1c5.6,0.3,17.4,0.3,26.5-3.8c0.5,0.5,1.1,1.2,1.8,2.1C439.4,641.9,437.8,654.3,440.7,663.5z"/>
<path class="st0" d="M511.9,548.2c-15.5,6.4-46.6,14.3-56.1,16.5c-2.5-5.4-4.2-9.6-4.3-11.3c-0.2-2-0.9-3.3-1.9-3.8
	c1.9-5,10-25.2,20.6-39c6.4-8.4,15.4-22.1,23.1-32.8C494.7,494.5,499.4,534.9,511.9,548.2z"/>
<path class="st0" d="M556.4,677.6c-7,6.6-16.2,19.3-22.4,21.3c-5.7,1.9-16.3-4.8-22.8-9.6c-0.5-5.1-0.9-10.8-0.6-11.7
	c0-0.2-0.1-0.4-0.3-0.8c11.9,0.6,25.7-2.2,25.7-2.2l7-45.1c0,0-8.4-17.3-18.4-19.8c0,5.9-15.9,14.3-16.4,14.8
	c-0.5,0.5-18.6-2.4-23.5-3.2c-1-5.6-1.8-10.9-2.1-15.1c-6.9-6.1-15.7-20.3-22.2-32.5c13-2.1,44.8-8,57.8-17c0.8,1.8,1.7,3.3,2.7,4.3
	c6.2,6.6,11.2,6.7,14.5,5.6v1.4c0,31.4,15.2,64.6,15.2,64.6l4.8,7.6l2,4.1v0l4.2,8.5C560.5,659.2,555.9,670.8,556.4,677.6z"/>
<path class="st0" d="M543,629.6l-7,45.1c0,0-13.7,2.8-25.7,2.2c-2.3-3.5-16.6-15.4-16.6-15.4s-5.8-21.8-9.1-40.1
	c4.9,0.8,23.1,3.7,23.5,3.2c0.5-0.5,16.4-8.9,16.4-14.8C534.6,612.3,543,629.6,543,629.6z"/>
<path class="st0" d="M518.2,556.9c-13,8.9-44.8,14.8-57.8,17c-1.7-3.3-3.3-6.4-4.6-9.2c9.5-2.2,40.7-10,56.1-16.5
	c1.1-0.5,2.1-0.9,3-1.3C515.9,550.7,517,554.2,518.2,556.9z"/>
<path class="st0" d="M447.7,695c0,0-9.3,16.2-14,33.5c-1.4,5-2.4,11.8-3.2,18.9c0-3.6-16.4,4.3-16.4,4.3s2.1-20,5.5-25.7
	c3.4-5.7,6.3-20.3,5.4-28.3c0,0,0,0,0-0.1c-0.1-0.8-0.9-8.7-2.1-15.8c4.1-6.3,11.7-16.9,17.9-18.4c0.5,1.7,1.2,3.3,2.2,4.7
	C448.9,677.2,447.7,695,447.7,695z"/>
<path class="st0" d="M442.1,570.5c-0.2,1.4-0.5,2.8-0.7,4.2c-18.1,0.2-61.5-11.7-70.9-14.3c-1.6-5.4-3-11.4-3.8-18.4
	C375.3,548.3,406.6,569.3,442.1,570.5z"/>
<path class="st0" d="M472.7,423.1c-12.7,7.1-29.7,1-29.7,1v-23.5c6.3-0.6,13.2-0.6,18.3-0.4c1.1,0,2.1,0.1,3.1,0.1
	c3.3,0.2,5.5,0.3,5.5,0.3s0,0,0,0C470.4,404.6,471.5,413.9,472.7,423.1z"/>
<path class="st0" d="M516.5,345.5c-0.2,1.3-0.9,5.3-1.8,10.5v0c-0.7,4.2-1.6,9.1-2.5,14c-0.8-0.6-1.7-1.4-2.6-2.1
	c-7.1-6.2-15.4-16.1-18.5-20l9-12.9l0-0.2C504.5,338.3,511.1,343.2,516.5,345.5z"/>
<path class="st0" d="M508.6,399.4c-0.3,14.7,0.2,34.3,0.7,46.9c-1-1.6-2-3.3-3.1-4.9c0.3-11.1-1.8-40.8-1.8-40.8s-1.2-5.6-2.8-6.3
	c-1.2-0.5-7-0.3-13.5-0.1c10.5-10.7,19.2-23,21.5-26.3c0.9,0.8,1.8,1.5,2.6,2.1c-0.8,4.3-1.6,8.7-2.3,12.4
	C509.1,385.9,508.8,392,508.6,399.4z"/>
<path class="st0" d="M588.6,317.1c-3.2-0.4-6.6,0.3-9.8,1.4c-9.1-6.7-17.6-20.4-21.7-27.4c0.2,0.1,0.4,0.2,0.5,0.3
	c5.2,2.8,9.4,1.8,12.8-0.7c6.8-5.1,9.9-16.7,9.9-16.7s1.1-4.8,2.1-11.3c4.1,8,9.1,18.4,10.5,24.3
	C594.7,294.4,590.9,309.3,588.6,317.1z"/>
<path class="st0" d="M602.3,344.1c-6.5,2.8-13.6,8-18.1,18c-3.3,7.1-5.8,12.6-7.5,17c-4.2,10.4-4.5,13.7-4.5,13.7
	S561,373,553.3,365.3c-0.3-3.9-0.3-7.8,0-11.8c-9.6-8.1-16.4-17.2-21.3-26.2c-7.6-14-10.5-27.7-11.7-36.8
	c10.4,10.1,34.4,33,39.3,34.1c4.4,1,11.5-3.7,19-6.2c2.7,2,5.5,3.4,8.3,3.7c0,0,5,8.2,5.9,15C596.9,339.6,600,341.8,602.3,344.1z"/>
<path class="st0" d="M568.8,452c-0.4-11.9-1.6-30.5-5.2-42.9c-4.5-15.4-9.2-29.5-10.3-43.9c7.7,7.7,18.9,27.5,18.9,27.5
	S572.9,437.6,568.8,452z"/>
<path class="st0" d="M613,433.9c-3.2,8.2-1.1,28.2-1.1,28.2s1.6,2.1-3.7-0.7c-1.8-0.9-4.3-2.4-7.9-4.7c-6.3-4-13.1-3.1-18.7-1
	c-3.3,1.3-6.2,3-8.4,4.5c-2.6,1.8-4.2,3.4-4.2,3.4s0-4.2-0.1-10.5c5.2-5.3,12.2-13.1,13.6-17.9c2.1-7.6,5.2-17.4,8.8-24.7
	c3.2-6.5,12.5-25.9,24.5-32.4c0.2,0,0.3,0.1,0.5,0.2C619.9,397.6,615.9,426.4,613,433.9z"/>
<path class="st0" d="M616.1,377.9c-0.1,0.1-0.3,0.1-0.4,0.2c-13.8-4-31.7-0.7-39,0.9c1.8-4.3,4.2-9.9,7.5-17
	c4.5-10,11.6-15.2,18.1-18c7.7,7.3,8.3,14.8,12.6,29.2C615.4,374.8,615.8,376.3,616.1,377.9z"/>
<path class="st0" d="M502.6,195c-0.9-0.7-1.4-1.1-1.4-1.1s-2.9,1.3-4.9,5.6c0.6-8.1,4.1-22.4,4.2-23.3c0.1-0.6-3.5-2.8-7.3-5
	c-2.6-1.5-5.2-2.9-7.1-3.9c0.2-1.4,0.3-3.1,0.3-5c4.9,2.8,15.5,8.9,18.6,10.9C508.3,175.3,505.1,187,502.6,195z"/>
<path class="st0" d="M403.1,315.4c-1.1,6.8-3.1,17-5.9,22.5c-0.9-5.2-1.8-8.4-1.8-8.4c-0.7-1.5-1.8-3.6-3.3-6l5.6,1.3v-9.4H403.1z"
	/>
<path class="st0" d="M463,350.7c-0.1,1.1-0.1,2.3-0.2,3.7c-5.7-3.8-18.7-16.4-31-17.1c-8.4-0.5-16,4.9-20.8,9.5
	c-0.8-10.4-1.7-19.2-2.1-23.3l0.8,1.3h8.4l3.3-8l12.5,14l5.8-5C442.7,329.1,452.6,339.9,463,350.7z"/>
<path class="st0" d="M532,327.3c-0.5,0.6-0.9,1.2-1.4,1.8c-1.1,1.4-2.2,2.7-3.3,4c-4.6,5.5-8.8,9.8-10.2,11.3
	c-0.4,0.4-0.6,0.6-0.6,0.6s0,0.2-0.1,0.5c-5.4-2.3-12-7.2-16.4-10.7l1.2-6.4l16.4-15.7l-0.1-6.3c0,0,0.1-0.1,0.1-0.1
	c0.1-0.2,0-1.3-0.1-2.9c-0.7-6.9-3.4-23.3-3.4-23.3c-6-30.6-19-32.5-21.1-32.6c-0.2-2.1-0.7-4.6-2.2-6.7c-0.7-1-2-2.3-3.6-3.8
	l7.9-7.9c0.3,0.9,0.6,1.6,0.9,1.9c2,1.9,7.4,3,7.4,3s-3-9.9,0-18.6c2.3-6.4,6.3-11,9.5-13c0.8,0.6,1.7,1.1,2.6,1.7c0,0,0,0,0,0
	c2.8,1.7,5.9,3.5,9.2,5.2c0.5,0.2,1,0.5,1.5,0.8c-0.4,0.6-0.9,1.2-1.4,1.9c-0.9,1.4-1.9,2.9-2.8,4.7c-0.2,0.4-0.3,0.7-0.5,1.1
	c-0.2,0.4-0.3,0.8-0.5,1.1s-0.3,0.8-0.5,1.2c-0.2,0.5-0.3,0.9-0.5,1.4c-0.1,0.3-0.2,0.6-0.2,0.8c-0.4,1.4-0.8,2.9-1,4.4
	c0,0.3-0.1,0.7-0.1,1c-0.4,3.3-0.2,6.9,0.7,10.8c-5,4.5-6.2,10.7-4.1,13.2c1.2,1.4,2.2,4.9,3.4,7.8v0.1c-0.2,7,0.3,16.7,0.7,21.4
	c0.1,1.6,0.3,5.1,0.9,9.8C521.6,299.6,524.5,313.3,532,327.3z"/>
<path class="st0" d="M475.1,202c-1.7,5.6-5.3,16.6-8.3,22.4h0c-1-0.1-2.1,0.1-3.4,0.4l7.2-18.6C472.2,204.8,473.7,203.4,475.1,202z"
	/>
<path class="st0" d="M512.9,202.3c-3.2,2-7.3,6.6-9.5,13c-3,8.6,0,18.6,0,18.6s-5.3-1.1-7.4-3c-0.3-0.3-0.7-1-0.9-1.9
	c-1.2-4.4-1.3-14.6-0.5-22.8c0-0.3,0.1-0.6,0.1-0.9c0.3-2.4,0.9-4.2,1.6-5.8c0,0,0,0,0,0c2-4.3,4.9-5.6,4.9-5.6s0.5,0.4,1.4,1.1
	C504.5,196.4,508.1,199.2,512.9,202.3z"/>
<path class="st0" d="M570.3,290.7c-3.3,2.5-7.6,3.4-12.8,0.7c-0.2-0.1-0.4-0.2-0.5-0.3c-15.6-8.5-26.4-27.3-26.4-27.3
	s-5.2,0.5-8.5,0c-1.4-0.2-2.5-2.1-3.4-4.3v-0.1c-1.2-2.9-2.2-6.3-3.4-7.8c-2.1-2.5-0.9-8.7,4.1-13.2c-3.1-12.9,2.6-23.1,6.7-28.4
	c0.5,0.3,1.1,0.6,1.7,0.8c0.1,0.1,0.3,0.1,0.4,0.2c6.5-2.1,12.4-1.6,17-0.4c-3.2,5.6-8.7,18.3-3.2,32.5c7.1,18.2,16.2,27.7,19.7,36
	C563.5,283.2,567,287.4,570.3,290.7z"/>
<path class="st0" d="M582.4,262.6c-1,6.6-2.1,11.3-2.1,11.3s-3.1,11.6-9.9,16.7c-3.3-3.2-6.9-7.5-8.6-11.5
	c-3.6-8.3-12.6-17.8-19.7-36c-5.6-14.2,0-26.9,3.2-32.5c6.1,1.7,9.9,4.7,9.9,4.7s25.2,2.8,28.3,16.8
	C585.2,240.3,583.8,253.3,582.4,262.6z"/>
<path class="st0" d="M578.7,318.5c-7.5,2.5-14.6,7.2-19,6.2c-5-1.1-28.9-24-39.3-34.1c-0.6-4.7-0.8-8.1-0.9-9.8
	c-0.4-4.7-0.9-14.4-0.7-21.4c0.9,2.2,2,4,3.4,4.3c3.3,0.5,8.5,0,8.5,0s10.8,18.8,26.4,27.3C561.1,298.1,569.6,311.8,578.7,318.5z"/>
<path class="st0" d="M413.7,245.6l-28.9,27.9l-2.9-3.2c1.7-2.5,3-4,3-4s0-0.3,0-0.8l24.1-24.7L413.7,245.6z"/>
<path class="st0" d="M524.9,482.8c0,0-3.3,4.3-6.8,9.4c-3.7-8.4-11.7-19.1-11.7-19.1s0.6-3.6,1.6-10.8c-1.9-1.4-7.8,5.8-14.7,15.5
	c-7.7,10.7-16.7,24.4-23.1,32.8c-10.6,13.8-18.6,33.9-20.6,39c-1.2-0.7-2.8,0-3.9,1.9c-4.8-12.3-31.9-30-36.7-36.5
	c-5-6.8-17.1-36-20.7-41.9c-2.1-3.4-6.1-4.7-9-5.2c0.7-1.4,1.2-2.1,1.2-2.1l0.2-2.3c4.9,0,13.8-5.8,16.2-9.2
	c4.3,4.7,14.8,14.3,31.3,15.9c1,0.1,2.1,0.2,3.2,0.2c21.1,1,50-7.6,69.9-24.7h0c2.3-0.1,3.9-0.2,4.3-0.3c0.3,0,0.5-1.6,0.6-4.1
	c1.1,1.6,2.1,3.2,3.1,4.9C516.1,457.6,521.1,470.1,524.9,482.8z"/>
<path class="st0" d="M434.4,607.8c-3.4,6.7-2.1,24.9-1.9,27.1c0-0.3,0.2-0.8,1.8,0.7c-9.1,4.1-20.9,4.1-26.5,3.8
	c0.5-2.5,0.9-4.9,1-6.9c-3.8-9.7-26.3-32.3-26.3-32.3l-3.5,0.5c0.2-3,0.4-5.7,0.6-7.9c0.3-4.2-0.8-8.6-2.5-13.5
	c-1.8-5.4-4.3-11.5-6.5-18.9c9.4,2.7,52.8,14.5,70.9,14.3C439.2,588.1,436.5,603.6,434.4,607.8z"/>
<path class="st0" d="M445.6,551.5c-0.5,0.8-0.8,1.8-1,3.1c-0.4,2.3-1.3,8.5-2.5,16c-35.5-1.2-66.8-22.2-75.4-28.5
	c-0.6-5.2-0.9-11-0.8-17.4c0.4-14.1,2.5-25.8,5-35.1c3-10.9,6.5-18.3,8.3-21.7c3,0.5,7,1.8,9,5.2c3.6,5.9,15.7,35.1,20.7,41.9
	C413.7,521.4,440.9,539.2,445.6,551.5z"/>
<path class="st0" d="M378.8,275.6c-1.4,11.5-9,34.4-14.6,40.5c-3.7,4-7.3,4.5-9.7,4.3h0c-1.8-0.2-2.9-0.8-2.9-0.8
	c-1.1-4.5,6.1-17.5,6.1-17.5s15.8-11.6,18.7-20.6C377.1,279.4,377.9,277.4,378.8,275.6z"/>
<path class="st0" d="M398.3,225.6l-13.2,13.9c0.3-5.6,1-10.9,2-14.3v0c0.5-1.4,1-2.5,1.7-3.1c3.3-3.1,6.8-5.4,9.1-6.6
	c0.3,0,0.6,0.1,0.9,0.1c-1.5,1.4-3,2.7-4.5,4C394.9,222.1,396.5,224.1,398.3,225.6z"/>
<path class="st0" d="M411.9,237.9l-2.8,2.9l-24.1,24.7l-3.8,3.9l-1-1.2c0,0,0,0.8-0.1,2.2l-12.3-11.9l-0.3-0.3l17.6-18.6l13.2-13.9
	l1.1-1.2l4.2,4.6l5.6,6l2,2.1L411.9,237.9z"/>
<polygon class="st0" points="430.5,260.1 426.1,264.2 400.6,288.3 398.4,290.4 383.7,274.6 384.8,273.5 413.7,245.6 415.9,243.4 "/>
<polygon class="st0" points="451.4,284.1 420.3,312.7 408.6,298.9 409.8,297.9 410,297.8 410,297.8 411.8,296.2 436.4,275.2 
	440,272 443.3,275.5 "/>
<polygon class="st0" points="465.6,303.1 459.2,308.7 439.6,325.8 433.9,330.8 421.4,316.8 420.4,315.7 453.4,286.6 464.7,301.8 "/>
<path class="st0" d="M517.6,306.4c-1.2,1.8-15.1,14-15.1,14s-15.6,0.8-19.4,0.3c-0.5-0.1-0.9-0.1-0.9-0.3c-0.2-1,2.1-10.8,2.1-10.8
	l-11.8-0.9l-4.8,11.7l-8.6-11.7l6.5-5.6l-0.9-1.3l49.4-21.7c0,0,2.7,16.4,3.4,23.3L517.6,306.4z"/>
<path class="st0" d="M517.7,312.7l-16.4,15.7l-1.2,6.4l0,0.2l-9,12.9l-1,1.4l-11-11l4.1-17.5c3.9,0.5,19.4-0.3,19.4-0.3
	s13.9-12.3,15.1-14L517.7,312.7z"/>
<path class="st0" d="M514.1,280.1l-49.4,21.7l-11.3-15.2l-33,29.1l1,1.1l-3.3,8h-8.4l-0.8-1.3v0l-4.8-8.1h-6.4v9.4l-5.6-1.3
	c-4.4-7.3-11.2-17-12.1-19.1c-0.4-1-0.5-5.7-0.5-11.5c13.9,0.2,16,13.9,16,13.9l8.5-0.7l1.7-7l4-1.4l0,0l-1.3,1l11.7,13.8l31.2-28.6
	l-8.1-8.6l47.9-27.2l1.5-0.9c0,0,0.1,0,0.3,0C495.1,247.6,508,249.5,514.1,280.1z"/>
<path class="st0" d="M491.2,248.3l-47.9,27.2L440,272l-3.6,3.1l-10.3-11l4.4-4.1l-14.6-16.6l-2.2,2.1l-4.6-4.8l2.8-2.9l-0.7-0.7
	c3.7-3.4,8.8-9.8,12.2-9.6c4.3,0.2,11.2,9.4,17.8,8.9c6.6-0.5,21.2-10,27.4-8.2C474.5,229.9,489.8,239.5,491.2,248.3z"/>
<path class="st0" d="M470.6,206.1l-7.2,18.6c-3.7,0.9-8.3,3.1-12.4,5.1l-6-17.2c1.5,1.3,3,2.2,4.4,2.6c1.2,0.3,2.6,0.3,4.2,0
	c1.5-0.3,3.2-0.8,4.9-1.5C462.4,212,466.8,209.3,470.6,206.1z"/>
<path class="st0" d="M493,247.5c-0.2,0-0.3,0-0.3,0l-1.5,0.9c-1.4-8.8-16.7-18.4-22.5-20.1c-6.2-1.8-20.9,7.7-27.4,8.2
	c-6.6,0.5-13.5-8.7-17.8-8.9c-3.3-0.1-8.4,6.2-12.2,9.6l-2-2.1c4-4,12.3-12.1,13.8-12.3c2-0.2,14.1,9.8,18.2,10.5
	c1.3,0.2,3.8-0.7,6.7-2c1-0.4,2-0.9,3.1-1.4c4.1-1.9,8.8-4.2,12.4-5.1c1.3-0.3,2.4-0.4,3.4-0.4h0c0.1,0,0.1,0,0.2,0
	c5.1,0.6,14.6,7.4,20.1,12.5c1.6,1.5,2.9,2.8,3.6,3.8C492.3,242.8,492.8,245.4,493,247.5z"/>
<path class="st0" d="M495,229l-7.9,7.9c-5.5-5.1-15-11.8-20.1-12.5c-0.1,0-0.1,0-0.2,0c3-5.8,6.5-16.8,8.3-22.4
	c1.3-1.4,2.5-2.9,3.5-4.3l6,2.9l6.8,3.2l3.2,1.5c0,0.3-0.1,0.6-0.1,0.9C493.7,214.3,493.8,224.6,495,229z"/>
<path class="st0" d="M451,229.8c-1.1,0.5-2.1,1-3.1,1.4l-5.8-21.5c1,1.1,1.9,2.1,2.8,2.9L451,229.8z"/>
<path class="st0" d="M447.9,231.2c-3,1.3-5.4,2.2-6.7,2c-4.1-0.7-16.2-10.7-18.2-10.5c-1.5,0.1-9.8,8.3-13.8,12.3l-5.6-6
	c1.1,0.5,1.9,0.8,1.9,0.8s5.3-4.9,8.5-10.3c23.8,1.4,25.2-9.2,24.5-14.3c1.2,1.6,2.4,3.2,3.6,4.6l0,0L447.9,231.2z"/>
<path class="st0" d="M484.9,446.3c-4.9,0-8.8-0.2-9-0.8c0-0.1-0.1-0.3-0.1-0.6c-0.4-1.9-1.2-8.1-2.2-15.4c-0.3-2.1-0.5-4.2-0.8-6.4
	c-1.2-9.2-2.3-18.5-2.8-22.5v0c0.1-0.3,1.2-4.6,6.9-5.9C478.9,401.2,485.2,423.4,484.9,446.3z"/>
<path class="st0" d="M402,412c-0.1,2.2-0.8,11.2-1.7,20.3c-0.5,4.8-1,9.6-1.5,13.5c-0.5,3.9-1,6.7-1.4,7.7c-0.1,0.2-0.3,0.5-0.5,0.8
	c-2.5,3.4-11.4,9.2-16.2,9.2l5.5-62.6c0,0,0.1-0.1,0.3-0.3c3.2,0.4,6.7,1.2,9.2,3.1C401.5,408.2,402.2,407.3,402,412z"/>
<path class="st0" d="M386.4,400.7c-0.2,0.2-0.3,0.3-0.3,0.3l-5.5,62.6c-1,0-1.8-0.2-2.3-0.8c-3.1-2.8-7.3-6.2-8.8-9.2
	c-0.3-0.6-0.5-1.2-0.6-1.8c-0.1-0.8-0.2-4-0.2-8.4c0.1-14,1.5-40.4,9.6-42.8C378.3,400.6,382.1,400.2,386.4,400.7z"/>
<path class="st0" d="M555,550.8c0.1,1-4.8,10.4-6.6,13.2c-1.8,2.8-3.8,1.2-10.8,1.8c-0.6,0.4-1.4,0.8-2.2,1c0-17.2-1-42.2-6.4-67.7
	c-1.1-5.4-2.5-10.8-4.1-16.2c0,0,9.3,0.6,16.7,4.8c7.4,4.2,7.8,24.9,10.2,29c2.5,4.1,2.6,20.3,2.6,20.3s-2.6-0.3-3.4,0.9
	c-0.2,0.3-0.1,1,0.2,2C552.1,543.4,554.9,550,555,550.8z"/>
<path class="st0" d="M535.4,566.7c-3.3,1.1-8.3,1-14.5-5.6c-0.9-1-1.8-2.5-2.7-4.3c-1.2-2.7-2.4-6.2-3.3-10
	c-3.9-15.1-5.8-36.2-5.2-39.9c0.4-2.4,3.5-7.6,6.9-12.5c0.5-0.8,1-1.5,1.5-2.2c3.5-5.1,6.8-9.4,6.8-9.4c1.6,5.4,2.9,10.8,4.1,16.2
	C534.4,524.6,535.3,549.6,535.4,566.7z"/>
<path class="st0" d="M509.6,507c-0.6,3.7,1.3,24.8,5.2,39.9c-0.9,0.4-1.9,0.9-3,1.3c-12.5-13.3-17.2-53.7-18.6-70.4
	c6.9-9.6,12.8-16.8,14.7-15.5c-1.1,7.2-1.6,10.8-1.6,10.8s8,10.7,11.7,19.1c-0.5,0.7-1,1.5-1.5,2.2C513.2,499.4,510,504.6,509.6,507
	z"/>
<path class="st0" d="M576.3,686.4c-0.4,1.8-27.5,39.6-30.5,39.6c0,0-0.1,0-0.1,0c-3.1-0.3-26.8-14.6-34.5-21.1
	c-0.9-0.8-1.6-1.4-2-1.9c-3.8-4.8-7.8-17.8-3.6-18c0,0,2.2,1.9,5.5,4.3c6.5,4.8,17.1,11.5,22.8,9.6c6.2-2.1,15.4-14.7,22.4-21.3
	c2.7-2.5,5-4.2,6.7-4C569.2,674.3,576.6,684.6,576.3,686.4z"/>
<path class="st0" d="M588.7,859c-0.1,1.5-0.4,2.9-0.7,4.3c-1.5,6-5.1,11.4-12.7,13.9c-21.2,6.9-39.2,0-39.2,0s-11.4-17.6-1.4-28.8
	c0,0,3.9-2.2,10.9,3.3s8.3,4.9,8.4,4.9s17.8-11.1,22.8-11.4C581.1,845,588.9,850.3,588.7,859z"/>
<path class="st0" d="M584.6,828c-1.2-0.5-2.4-1-3.6-1.6c-10.3-5.2-20.2-15.1-27-17.1c-0.4,1.1-10.3,9.4-15.4,13.7
	c-1.8,1.5-3,2.5-3,2.5l-3.8,4.7c0.2-0.4,3.2-9,5.5-17.9l16.7-13.9c0,0,19.3,12.9,31.9,18.5c0.2,1,0.5,1.9,0.6,2.4
	C587,821.1,585.4,824.6,584.6,828z"/>
<path class="st0" d="M537.3,812.3c1.9-7.6,3.3-15.6,1.6-18.9c-3.6-7.4-7.8-25.9-6.2-25.7c0.2,0,0.7,0.2,1.4,0.6
	c4.3,2,16.1,9,18.5,12.3l1.3,17.8L537.3,812.3z"/>
<path class="st0" d="M588.7,859c0.2-8.7-7.6-14-11.9-13.7c-5,0.3-22.7,11.4-22.8,11.4s-1.4,0.7-8.4-4.9s-10.9-3.3-10.9-3.3
	c-1-13.5,1-23,1-23s1.2-1,3-2.5c2.1,4.6,8.6,14.8,24.2,13.2c11.3-1.1,16.1-5.8,18.2-9.7c1.2,0.6,2.4,1.2,3.6,1.6
	c-0.3,1.5-0.5,3-0.3,4.3c0.7,4.3,2.3,8.3,2.3,8.3S589.6,849.7,588.7,859z"/>
<path class="st0" d="M585.9,816.9c-12.6-5.7-31.9-18.5-31.9-18.5l-1.3-17.8c11-8,19.6-23,32.7-27c-0.7,15.4-1.3,28.1-0.4,31.2
	c2.4,7.8-3.6,12.4-2.6,16.9C583.2,805.3,584.9,812.7,585.9,816.9z"/>
<path class="st0" d="M585.4,753.6c-13,4-21.6,18.9-32.7,27c-3.1-5.6-6.3-45.1-7-54.5c0,0,0.1,0,0.1,0c3,0,30.1-37.8,30.5-39.6
	c0.3-1.8-7.1-12.1-13.2-12.8c-1.7-0.2-4,1.4-6.7,4c-0.6-6.7,4-18.4,5.2-24.6l5,10.1c5.5,4.5,14.1,13.6,17.8,27.2
	C587.7,702.5,586.4,730.9,585.4,753.6z"/>
<path class="st0" d="M552.7,780.5c-2.5-3.3-14.2-10.2-18.5-12.3c-3.4-17.6-17.4-50.7-22.9-63.3c7.6,6.4,31.4,20.8,34.5,21.1
	C546.4,735.4,549.6,774.9,552.7,780.5z"/>
<path class="st0" d="M581,826.4c-2.1,3.9-6.9,8.6-18.2,9.7c-15.6,1.6-22.1-8.6-24.2-13.2c5.1-4.3,15-12.6,15.4-13.7
	C560.7,811.3,570.7,821.2,581,826.4z"/>
<path class="st0" d="M383.6,714.7c0,0-2.2-4.6-12.6-17.6c-0.8-1.1-1.6-2.2-2.3-3.3l0,0c-8.5-13.7-7.2-25.8-5.1-26.1
	c1.4-0.2,3.1,0.9,4.6,2.2c0.1,5.9,6,17.8,10.8,21.3C380.4,698.2,382,706.3,383.6,714.7z"/>
<path class="st0" d="M379,691.2c-4.8-3.5-10.8-15.5-10.8-21.3c1,0.8,1.9,1.8,2.7,2.7c1.2,1.4,3.6,0.4,5.2-0.6
	C376.3,675.6,377.4,682.6,379,691.2z"/>
<path class="st0" d="M425,697.6c-0.2-0.7-1.8-6.9-5.6-2.8c-4.1,4.4-35.8,19.8-35.8,19.8c-1.6-8.4-3.2-16.5-4.6-23.4
	c0.5,0.4,1.1,0.7,1.6,0.8c5.6,1.8,35.6-23.9,38.7-22.2c1.3,0.7,2.6,6.1,3.6,12C424.1,688.9,424.9,696.7,425,697.6z"/>
<path class="st0" d="M419.6,726c-3.4,5.7-5.5,25.7-5.5,25.7s-18.2,8.9-22.1,11c-0.1,0.1-0.2,0.1-0.4,0.2
	c-1.1-11.9-4.6-30.6-8.1-48.2c0,0,31.7-15.5,35.8-19.8c3.9-4.1,5.4,2,5.6,2.8c0,0,0,0.1,0,0.1C426,705.7,423,720.3,419.6,726z"/>
<path class="st0" d="M391.7,762.8c-3.1,1.2-7.2-3.1-8.7-4.8c-0.4-0.4-0.6-0.7-0.6-0.7s-1.1-26.8-5.2-34.3c-3-5.4-6.7-21-8.5-29.3
	c0.7,1.1,1.4,2.2,2.3,3.3c10.4,13,12.6,17.6,12.6,17.6C387,732.2,390.6,750.9,391.7,762.8z"/>
<path class="st0" d="M430.5,747.4c0,0,0,0.1,0,0.1c0,0.1,0,0.2,0,0.4c-0.1,0.4-0.1,0.9-0.1,1.3c-9,1.5-30.6,12.3-38.4,15.7
	c-1.4,0.6-2.3,1-2.7,1c-2.4,0.2-4.1-2.4-8.2-6.2v0c0.6-0.9,1.4-1.4,2.1-1.8c1.5,1.8,5.6,6,8.7,4.8c0.1,0,0.2-0.1,0.4-0.2
	c3.9-2.1,22.1-11,22.1-11S430.5,743.8,430.5,747.4z"/>
<path class="st0" d="M429.2,797.1c-3,3-8.2,4.3-14.9,4.3c-4.7,0-7.3,2.4-8.7,5.3c-13.2-2.2-20.3-10.7-23.2-13
	c-4.5,1.1-7.6,0.3-9.4-0.7c1.3-1.8,2.6-3.5,3.9-4.9c5.8-5.9,4-21,3.3-25.2c-0.2-1.4,0.1-2.5,0.7-3.3c4.1,3.8,5.9,6.3,8.2,6.2
	c0.4,0,1.3-0.4,2.7-1c7.8-3.4,29.4-14.2,38.4-15.7c0,0,0.1,0,0.1,0c-0.2,6.8,0.3,27.2,1.7,36.8C432.8,791,431.8,794.6,429.2,797.1z"
	/>
<path class="st0" d="M404.3,817.8c0,0-1.8,0-10.8-2.8c-9-2.8-21.3-13.9-27.5-8.7c-0.5,0.1,2.8-7.1,7-13.1c1.8,0.9,4.9,1.8,9.4,0.7
	c3,2.3,10,10.8,23.2,13C403.4,811.5,404.3,817.8,404.3,817.8z"/>
<path class="st0" d="M432.9,825.9c-11,3.7-31.1,1.7-31.1,1.7s-0.1,0-0.4,0.1c0.9-5.6,2.9-9.9,2.9-9.9s-1-6.3,1.3-11.1
	c1.4-2.9,4-5.3,8.7-5.3c6.8,0,11.9-1.4,14.9-4.3C435.1,807.7,434.2,819.5,432.9,825.9z"/>
<path class="st0" d="M431.8,830.7c0,0,0.9,1.6-8.4,4.5c-9.3,2.9-21.9,2.1-21.9,2.1c-0.6-3.3-0.5-6.7,0-9.7c0.2-0.1,0.4-0.1,0.4-0.1
	s20.2,2,31.1-1.7C432.4,828.9,431.8,830.7,431.8,830.7z"/>
<path class="st0" d="M401.5,837.4c0,0-4.9,5.6-28.1,12.5c-23.3,6.9-38.4-4.1-38.4-4.1s-0.1-7.9,0-12.4c3.7,2.2,9.9,4.4,19.4,4.4
	c10.8,0,25.4-3.6,35.5-6.5c0,0,0,0,0,0c6-1.7,10.4-3.2,11.6-3.6C401,830.7,400.8,834.1,401.5,837.4z"/>
<path class="st0" d="M389.8,831.3c-10.2,2.9-24.8,6.5-35.5,6.5c-9.5,0-15.7-2.2-19.4-4.4v0c0-0.2,0-0.4,0-0.5
	c1.4-2.2,3.7-4.3,6.4-6.3c2,2,4.9,3.7,9.2,4.4C362.3,833.2,381.8,832,389.8,831.3z"/>
<path class="st0" d="M404.3,817.8c0,0-2,4.3-2.9,9.9c-1.2,0.4-5.7,1.9-11.6,3.6c0,0,0,0,0,0c-8.1,0.6-27.5,1.8-39.4-0.3
	c-4.2-0.8-7.1-2.4-9.2-4.4c8.9-6.2,22.6-10.5,23.8-12.3c1.5-2.4,0.9-8,0.9-8c6.2-5.2,18.5,5.9,27.5,8.7
	C402.5,817.8,404.3,817.8,404.3,817.8z"/>
<path class="st0" d="M377,579.3c-1.7,2.9-4.4,5.5-8.3,7c-12.5,4.6-15-27.1-16-31.5s-0.7-6-4.3-7c-3.6-1.1-5-34.6-5.4-36
	c-0.4-1.4,13.5-12,13.5-12s1.4-3.7,3.1-8c1.1-2.9,7.4-2.7,11.3-2.3c-2.5,9.2-4.6,21-5,35.1c-0.2,6.4,0.1,12.2,0.8,17.4
	c0.8,7,2.2,13,3.8,18.4C372.7,567.8,375.1,573.9,377,579.3z"/>
<polygon class="st0" points="436.4,275.2 411.8,296.2 410,297.8 410,297.8 409.8,297.8 400.6,288.3 426.1,264.2 "/>
<path class="st0" d="M615.7,378.1c-12,6.5-21.3,25.9-24.5,32.4c-3.6,7.4-6.7,17.1-8.8,24.7c-1.3,4.7-8.4,12.5-13.6,17.9
	c0-0.4,0-0.8,0-1.1c4.1-14.4,3.4-59.3,3.4-59.3s0.3-3.3,4.5-13.7C584,377.4,601.8,374.1,615.7,378.1z"/>
<path class="st0" d="M609.8,494.3c-1.7-1.3-7.7-1.4-10.5-1.3c1.6-4.9-6.2-2.8-9.9-1.1c-0.2-2.9-6.2-11.8-13.7-3.2c0-0.1,0-0.2,0-0.3
	c-0.2-1.8-9.4-10.2-9.4-10.2s5.4-6.4,6.1-11.4c0.3-2.5-1.1-3.5-2.7-3.9c0.7-0.6,1.9-1.6,3.5-2.7c2.4-0.1,6.8,0.3,9.2,4.3
	c3.2,5.4,9.2,20.9,27.5,24.2C610.2,491,610.2,493,609.8,494.3z"/>
<path class="st0" d="M589.4,491.9c0,0.1,0,0.2,0,0.4c-0.3,2.6-8,8.4-8,8.4s-2.1,7.9-5.5,9.3s-6.9,0.9-9-0.3s-4.2-3-4.5-7.5
	c-0.1-1.1,0.3-2.3,1.1-3.1c0.8-0.8,1.1-0.9,2.1-0.8c0.6,0,1.8,0.5,2.7,1c2.8,1.3,2.6-0.4,2.6-0.4s4.6-8,4.7-10.1
	C583.3,480.1,589.2,489,589.4,491.9z"/>
<path class="st0" d="M599.3,493.1c-0.1,0.4-0.3,0.9-0.6,1.4c-4.5,8.4-8.8,11-10,13.9c-0.1,0.1-0.1,0.3-0.2,0.5
	c-1.8,3.2-9.8,10.6-13.3,1.9c5.4-5,6.2-10,6.2-10s7.6-5.8,8-8.4c0-0.1,0-0.2,0-0.4C593.1,490.3,600.9,488.2,599.3,493.1z"/>
<path class="st0" d="M609.9,496c-2.7,3.7-8,8.5-10.3,10.6c-2.1,1.8-7.7,3.5-11,2.2c0.1-0.2,0.2-0.3,0.2-0.5c1.2-2.9,5.5-5.5,10-13.9
	c0.3-0.5,0.5-1,0.6-1.4c2.8-0.1,8.8-0.1,10.5,1.3C610.3,494.8,610.4,495.3,609.9,496z"/>
<path class="st0" d="M608.5,481.4c-9.4-2.5-13.4-11.4-19-19.4c-2.5-3.6-5.4-5.4-7.8-6.2c5.6-2.2,12.4-3,18.7,1
	c3.6,2.3,6.1,3.7,7.9,4.7c-0.1,5.7-0.3,17,0.1,19.3C608.4,480.9,608.4,481.1,608.5,481.4z"/>
<path class="st0" d="M609.9,488.9c-18.4-3.4-24.3-18.8-27.5-24.2c-2.4-4-6.8-4.4-9.2-4.3c2.2-1.5,5.1-3.3,8.4-4.5
	c2.4,0.9,5.3,2.7,7.8,6.2c5.6,8,9.6,16.8,19,19.4C608.9,483.2,609.6,486.1,609.9,488.9z"/>
<path class="st0" d="M533.7,403.2c-0.2-0.6-3.8-9.7-4-22.5c1.5,1.6,3,2.9,4.4,4.1C532.6,396.7,533.7,402.8,533.7,403.2z"/>
<path class="st0" d="M535.8,374.6c-0.2,0.8-0.3,1.6-0.5,2.4c-1.6-1.6-3.3-3.7-5.4-6.3v0c0.4-13.8,0.6-31.2-2.6-37.6
	c1.1-1.3,2.2-2.6,3.3-4C530.7,329.1,539.8,355.5,535.8,374.6z"/>
<path class="st0" d="M539.8,409.1c0-4,3.1-16.4-2.9-21.9c-0.8-0.8-1.7-1.5-2.7-2.4c-1.3-1.2-2.8-2.6-4.4-4.1
	c-4.9-5-10.6-12.4-15.1-24.7v0c0.9-5.2,1.6-9.2,1.8-10.5c0.4,0.2,0.8,0.3,1.1,0.4c1.7,5.5,4.9,14.5,9,20.3c1.2,1.7,2.3,3.2,3.4,4.6
	v0c2,2.6,3.8,4.6,5.4,6.3c1.8,1.9,3.3,3.4,4.6,4.6c2.8,2.8,7.8,11.2,7.7,21c-0.2,9.8,1.1,33.8,3.4,37.5
	C543.1,432.7,539.8,413.1,539.8,409.1z"/>
<path class="st0" d="M488,374.7c-4.8,4.6-17.2,18.4-23.6,25.5c-0.9,0-2-0.1-3.1-0.1c-0.2-3.2-0.2-7.5-0.1-12.5v0
	c0.1-3.7,0.2-7.6,0.4-11.6c0.2-4.6,0.4-9.2,0.6-13.4c0.2-3.1,0.3-5.9,0.5-8.4c0.1-1.3,0.2-2.6,0.2-3.7
	C472.5,360.6,482.5,370.6,488,374.7z"/>
<path class="st0" d="M506.3,441.4c-0.1,2.5-0.2,4.1-0.6,4.1c-0.4,0-2,0.2-4.3,0.3h0c-4.3,0.2-11,0.5-16.4,0.5
	c0.3-22.8-6-45.1-8.1-51.6c1-0.2,2.3-0.4,3.6-0.4c2.5,0,5.1,0,7.6-0.1c6.6-0.2,12.3-0.4,13.5,0.1c1.7,0.7,2.8,6.3,2.8,6.3
	S506.5,430.3,506.3,441.4z"/>
<path class="st0" d="M509.6,367.8c-2.3,3.4-11,15.7-21.5,26.3c-2.5,0.1-5.1,0.1-7.6,0.1c-1.4,0-2.6,0.2-3.7,0.4
	c-5.7,1.3-6.8,5.6-6.9,5.9v0c0,0,0,0,0,0s-2.1-0.2-5.5-0.3c6.3-7.1,18.8-20.9,23.6-25.5c-5.5-4.2-15.5-14.1-25-24.1
	c-10.4-10.8-20.3-21.6-23.3-24.9l19.5-17.1l8.6,11.7l4.8-11.7l11.8,0.9c0,0-2.3,9.8-2.1,10.8c0,0.1,0.3,0.2,0.9,0.3l-4.1,17.5l11,11
	l1-1.4C494.1,351.7,502.5,361.6,509.6,367.8z"/>
<path class="st0" d="M473.3,168.9c-0.3,1-2.5,6-5.3,6s-13.3-1.9-13.3-1.9s9.1-8.1,13.3-8.3S473.5,167.9,473.3,168.9z"/>
<path class="st0" d="M445.3,172.2c-4.4,3.3-9.8,3.7-14,1.8c-4.1-1.9-4.4-7.6,0.9-8.2C437.6,165.3,445.9,171.7,445.3,172.2z"/>
<path class="st0" d="M495.1,180.9c-1.6,7-5.3,13.9-3.7,22.9l-6.8-3.2c-0.3-7.4,3.1-16,3.9-21.3c0.5-3.4-1-6.1-2.4-7.9
	c-0.2-0.3-0.4-0.5-0.6-0.7c0.1-0.6,0.2-1.1,0.3-1.7c0.1-0.5,0.2-1,0.3-1.6c1.8,0.9,4.5,2.4,7.1,3.9C494.7,173.6,496,177,495.1,180.9
	z"/>
<path class="st0" d="M568.9,151.5c-0.3,0.4-0.8,0.6-1.5,0.5c0,0,0,0,0,0c-0.1,0-0.2,0-0.3-0.1c-4.5-0.9-13-5.4-17.5-3.7
	c-2.9,1-6.3,0.6-7.9-0.6c-0.1-0.1-0.2-0.1-0.2-0.2c0.1-0.2,0.2-0.3,0.3-0.5c0.6-0.9,1.2-1.6,1.6-2.1c5.5-6.1,17.6-6.4,21.4-3
	C567.7,144.5,570.2,149.8,568.9,151.5z"/>
<path class="st0" d="M567.4,152c-2.6,1-7.9,3.4-10.7,7.8c-6.8,11-24.5,39.8-26.2,44.4c-0.5,1.4-3.7,3.5-5.8,5
	c-3.3-1.7-6.4-3.5-9.2-5.2c0,0,0,0,0,0c1.2-1.1,2.5-2.4,2.7-2.8c0.3-1.2-1.4-5.4-0.7-7.3c0.6-1.8,16.9-34.9,24.2-46.2
	c1.6,1.3,5,1.6,7.9,0.6c4.5-1.6,13,2.9,17.5,3.7C567.1,152,567.2,152,567.4,152z"/>
<path class="st0" d="M324,499.8c0,0-4.8,6.4-7.6,7.7c-2.9,1.3-11.8-1.2-15.5-2.8c-1-0.4-2.4-1.7-4-3.4c-0.3-0.3-0.6-0.6-0.9-1
	c2.5-1.6,4.9-3.2,7.1-4.6c0.1,0.2,0.2,0.5,0.2,0.7c1-1.4,8.4-0.7,8.4-0.7s1.3-1.2,3-2.7c0.1,0,0.2,0,0.2,0s0.5-0.5,1.3-1.2
	c0,0,0,0,0,0c2.4-1.8,5.2-3.5,6.8-3.1c0.3,0.1,0.5,0.2,0.7,0.4c1.1-0.9,2.1-1.3,2.1-1.3s-0.1-0.7-0.2-1.8c0.2,0,0.5,0,0.7,0
	c0.3,0.1,0.5,0.2,0.7,0.4C329,488.5,326,497.2,324,499.8z"/>
<path class="st0" d="M337.2,488c-2.6,4.3-13.2,11.8-13.2,11.8c2-2.5,5-11.2,2.9-13.3c1.1-0.9,2.1-1.3,2.1-1.3s-0.4-2.6-0.5-5.1
	l8.4-5.3C337.8,479.9,338.5,485.8,337.2,488z"/>
<path class="st0" d="M462.7,354.3c-0.1,2.5-0.3,5.3-0.5,8.4c-6,1.1-15.6,2.8-19.2,2.7c-5.5-0.2-13-7.8-13-7.8s-4.9,4.8-8.1,5.3
	c-2.1,0.3-7-2.5-10.2-4.6c-0.2-3.9-0.5-7.8-0.7-11.5c4.8-4.7,12.4-10,20.8-9.5C444.1,337.9,457.1,350.6,462.7,354.3z"/>
<path class="st0" d="M462.3,362.7c-0.2,4.2-0.5,8.8-0.6,13.4c-3.1,1.7-8.2,3.9-13.2,3.7c-8-0.3-15.4-5.5-15.4-5.5s-4.6,4.1-9.8,5.4
	c-2.6,0.6-7.1-2.2-10.9-5.2c-0.1-5.3-0.3-10.9-0.6-16.3c3.3,2.1,8.2,4.9,10.2,4.6c3.2-0.5,8.1-5.3,8.1-5.3s7.5,7.7,13,7.8
	C446.7,365.6,456.2,363.9,462.3,362.7z"/>
<path class="st0" d="M409.8,297.8l-4,1.4l-1.7,7l-8.5,0.7c0,0-2.1-13.7-16-13.9c0-6.5,0.2-14.4,0.3-19.4v0c0-0.1,0.1-0.2,0.1-0.3
	c0.6-1.1,1.2-2.1,1.8-3l2.9,3.2l-1.1,1.1l14.7,15.8l2.2-2.1L409.8,297.8z"/>
<path class="st0" d="M397.2,337.9L397.2,337.9c0,0.1-0.1,0.2-0.2,0.3c-0.9,1.6-2.1,3.3-3.5,5.1l-8.2-0.8l-21.9-11l-8.9-11.2
	c2.4,0.2,6.1-0.3,9.7-4.3c5.6-6.2,13.3-29,14.6-40.5v0c0.4-0.7,0.7-1.4,1.1-2.1c-0.1,5.1-0.3,12.9-0.3,19.4c0,5.8,0.1,10.5,0.5,11.5
	c0.8,2.1,7.6,11.8,12.1,19.1c1.4,2.4,2.6,4.5,3.3,6C395.4,329.5,396.3,332.7,397.2,337.9z"/>
<path class="st0" d="M412.1,387.9c-0.2,4.8-0.7,8.9-1.4,12.1l-20.9-3.8c2.5-4.2,5.8-11.5,7.9-23.2c2.3-13.2,0.9-26.7-0.5-35.1v0
	c2.8-5.5,4.8-15.7,5.9-22.5h1l4.8,8.1v0c0.4,4.1,1.3,13,2.1,23.3c0.3,3.7,0.5,7.5,0.7,11.5c0.3,5.4,0.5,11,0.6,16.3
	C412.4,379.3,412.3,383.8,412.1,387.9z"/>
<path class="st0" d="M461.6,376.1c-0.2,4-0.3,7.9-0.4,11.6v0c-4.7,2.4-13.2,6.7-16.7,8.1c-5,2-13-5.4-13-5.4s-4.3,3-9.6,3.5
	c-3.5,0.3-7.4-3.4-9.8-6.1c0.2-4.1,0.2-8.6,0.2-13.3c3.8,3,8.2,5.8,10.9,5.2c5.2-1.2,9.8-5.4,9.8-5.4s7.4,5.2,15.4,5.5
	C453.4,380,458.5,377.8,461.6,376.1z"/>
<path class="st0" d="M443,400.6v22.2c-2.2,0.5-6.4,1.2-11.2,1.6c-5.8,0.4-12.5,0.2-17.8-1.9c-3.4-8-2.6-17.1-1.7-22.2l1.7,0.3
	C413.9,400.6,433.8,397.5,443,400.6z"/>
<path class="st0" d="M461.3,400.1c-5.2-0.1-12-0.2-18.3,0.4c-9.2-3.1-29.1,0-29.1,0l-1.7-0.3l-1.5-0.3c0.7-3.2,1.2-7.3,1.4-12.1
	c2.4,2.7,6.4,6.4,9.8,6.1c5.4-0.5,9.6-3.5,9.6-3.5s8,7.3,13,5.3c3.5-1.4,12-5.7,16.7-8.1C461.2,392.6,461.2,397,461.3,400.1z"/>
<path class="st0" d="M431.8,424.4V440c-17-0.5-26.4-4.3-31.5-7.7c0.9-9.1,1.6-18.1,1.7-20.3c0.2-4.6-0.5-3.7-6.4-8.2
	c-2.5-1.9-6-2.8-9.2-3.1c0.6-0.5,1.8-1.9,3.4-4.5l20.9,3.8l1.5,0.3c-0.9,5.1-1.6,14.2,1.7,22.2C419.2,424.6,426,424.8,431.8,424.4z"
	/>
<path class="st0" d="M473.5,429.5c-4.6,4.1-15.8,10.9-39.6,10.5c-0.7,0-1.4,0-2.1,0v-15.6c4.9-0.3,9.1-1.1,11.2-1.6v1.3
	c0,0,17,6.1,29.7-1C473,425.3,473.2,427.4,473.5,429.5z"/>
<path class="st0" d="M432.7,453.6l-1.3,16.9c-1.1-0.1-2.1-0.1-3.2-0.2c-16.5-1.6-27-11.1-31.3-15.9c0.2-0.3,0.4-0.6,0.5-0.8
	c0.4-1,0.9-3.9,1.4-7.7C404.7,448.4,416.7,452.7,432.7,453.6z"/>
<path class="st0" d="M501.3,445.8c-19.9,17.1-48.8,25.6-69.9,24.7l1.3-16.9c0.1,0,0.2,0,0.2,0c18.7,1,36.5-5.9,42.8-8.6
	c0.1,0.3,0.1,0.5,0.1,0.6c0.3,0.6,4.1,0.8,9,0.8C490.3,446.3,497,446,501.3,445.8z"/>
<path class="st0" d="M475.7,444.9c-6.3,2.7-24.1,9.6-42.8,8.6c-0.1,0-0.2,0-0.2,0c-16-0.9-28-5.2-33.9-7.8c0.5-3.9,1-8.7,1.5-13.5
	c5.1,3.4,14.5,7.2,31.5,7.7c0.7,0,1.4,0,2.1,0c23.9,0.3,35.1-6.5,39.6-10.5C474.5,436.8,475.3,443,475.7,444.9z"/>
<path class="st0" d="M329,485.2c0,0-1,0.4-2.1,1.3c-0.2-0.2-0.4-0.3-0.7-0.4c-0.2,0-0.4-0.1-0.7,0c0.1,1,0.2,1.8,0.2,1.8
	s-1,0.4-2.1,1.3c-0.2-0.2-0.4-0.3-0.7-0.4c-1.6-0.4-4.4,1.3-6.8,3.1c0,0,0,0,0,0c-0.5,0.4-1,0.8-1.5,1.2c-1.7,1.4-3,2.7-3,2.7
	s-7.5-0.7-8.4,0.7c0-0.2-0.1-0.5-0.2-0.7c1.2-0.8,2.3-1.5,3.3-2.1c2.6-1.6,4.8-3.1,6.6-4.3c0.5-0.3,0.9-0.6,1.3-0.8
	c0.5,0,0.8,0,0.8,0l3.6-2.3c1-0.2,2-0.5,2.8-0.7c2.4-0.8,4-1.7,3.1-2.7c-0.1-0.1-0.1-0.1-0.2-0.2l0.8-0.5l3.2-2
	C328.6,482.5,329,485.2,329,485.2z"/>
<path class="st0" d="M335.1,460.5l-3.8,2.3L314.1,473c-0.5-1.4-1.1-2.7-2.1-3.4c2-2.9,3.2-7.6,3.9-11.1c0.2-1.3,0.4-2.4,0.5-3.2
	c0.6,0.1,1.2,0.3,1.8,0.4c1,0.2,2,0.5,3,0.7c7.4,1.8,13.2,3.8,13.8,3.9C335,460.3,335,460.3,335.1,460.5z"/>
<path class="st1" d="M570,481.3c-3.2,2.2-5.3,4.6-6.6,6.9c-0.3,0.5-0.6,1.1-0.9,1.6c-1.7,3.6-1.8,6.4-1.8,6.7
	c-1-2.3-1.3-4.5-1.1-6.4c0.1-1.1,0.3-2.1,0.6-3c1.2-3.6,3.6-5.8,3.6-5.8S566.2,481.2,570,481.3z"/>
<path class="st1" d="M611.4,491c1.5,2.7,1.5,4.1,1.2,6c-0.5,2.6-6.6,8.4-6.6,8.4s-2.5-0.1-6.5-0.5
	C601.9,501.2,606.4,495.2,611.4,491z"/>
<path class="st1" d="M636.9,478.3c-1.4,3.4-3.5,5.4-5.7,6.5c-2.5,1.3-5.2,1.6-7.3,1.8c-0.8,0.1-1.5,0.2-2,0.3
	c-0.4,0.1-0.8,0.2-1,0.4c-2.4,1.7-7.3,5.5-2.3,10.6c-8.1,1.1-6.9,11.7-2,14c0.5,0.3,1.1,0.5,1.7,0.9c0,0,0,0,0.1,0
	c2.2,1.1,4.7,2.6,6.6,4.4c2.7,2.5,4.4,5.5,2.8,9.2c-3.1,7.1-11.4,4.5-11.4,4.5s2.8-1.6,2.3-3.6c-0.6-2-5.5-3.6-10.4-9.2
	c-4.9-5.7-2.3-12.7-2.3-12.7s6.1-5.8,6.6-8.4c0.4-1.9,0.3-3.2-1.2-6c-0.6-1.1-1.5-2.5-2.6-4.3c-0.1,0-0.2,0-0.3-0.1
	c1.4-3.2,4.7-9.6,8.2-12.5c4.7-3.8,11.5-1.1,11.9-2.5c0.5-1.3-2.1-7.4-2.1-7.4S641.1,468.3,636.9,478.3z"/>
<path class="st1" d="M630.2,503.4c-5.6,1.4-9.6,6-11.8,9.4c0,0-0.1,0-0.1,0c-0.6-0.3-1.2-0.6-1.7-0.9c-4.9-2.3-6.2-12.9,2-14
	c-5-5.1-0.1-8.9,2.3-10.6c0.3-0.2,0.6-0.3,1-0.4C622,492.5,624.9,499.8,630.2,503.4z"/>
<path class="st1" d="M792.1,532.2c-4.6,0.4-127-22.5-133.1-22.8c-6.2-0.2-11.3,3.6-11.3,3.6s-1.9-5.1-8.3-6.5
	c-4.9-1.1-16,3.8-21,6.2c2.2-3.3,6.2-8,11.8-9.4c-5.3-3.5-8.2-10.9-8.3-16.5c0.6-0.1,1.3-0.2,2-0.3c0.7,1.6,2,3.7,4,6.5
	c7,9.7,22.7,3.3,22.7,3.3s2.9,3.8,8.5,7c5.5,3.2,132.9,24.1,132.9,24.1S792.7,527.9,792.1,532.2z"/>
<path class="st1" d="M838.9,537.9c-5.4-0.9-23,4.2-33.7,8.3c-11.3-7.4-55-12.4-69.7-8c-12.1-7.7-41.5-15.3-57.9-18.8
	c-16.4-3.5-27.1-1.4-27.1-1.4s-4.9-2.6-12.9-3.7c-5.7-0.8-10.3,1.6-12.7,2.9c-2-1.8-4.5-3.3-6.6-4.4c0,0,0,0,0.1-0.1
	c5-2.4,16.1-7.3,21-6.2c6.4,1.4,8.3,6.5,8.3,6.5s5.1-3.8,11.3-3.6c6.1,0.2,128.6,23.2,133.1,22.8c0.7-4.3-0.1-4.7-0.1-4.7
	s-127.3-20.9-132.9-24.1s-8.5-7-8.5-7s-15.8,6.4-22.7-3.3c-2-2.8-3.2-4.9-4-6.5c2.1-0.2,4.8-0.5,7.3-1.8c4.9,5.2,10,7.7,21.7,6.4
	c28.1,15,70.5,18.6,87.9,14.8c17.3,10.8,68,14.6,68,14.6S823.9,533.8,838.9,537.9z"/>
<path class="st1" d="M560.3,487c-0.3,0.9-0.5,1.9-0.6,3c-6.1,0.5-18.5,1.6-21.4,2.1c-0.2,0.2-0.5,0.4-0.6,0.6
	c-1.7-1.6-5.3-5.7-4.1-9.9c0.8-2.7,3.1-4.1,5.4-4.7c2.2-0.6,4.4-0.5,5,0C544.7,478.8,554.2,484.4,560.3,487z"/>
<path class="st1" d="M559.7,490c-0.2,1.9,0.1,4.1,1.1,6.4c0,0,0,0,0,0l-21.5,3.2c0,0-5.2-3.4-1.6-7c0.2-0.2,0.4-0.4,0.6-0.6
	C541.2,491.6,553.5,490.5,559.7,490z"/>
<path class="st0" d="M318.7,486.2l-3.6,2.3c0,0-0.3,0-0.8,0c-0.4,0.2-0.8,0.5-1.3,0.8c-1.8,1.2-4.1,2.6-6.6,4.3
	c-1,0.7-2.2,1.4-3.3,2.1c-2.2,1.4-4.6,2.9-7.1,4.6c-36,23.2-102.4,65.7-108.3,68.7c-8.6-0.2-6.4-11.3-6.4-11.3l106-67.7l7.7-4.9
	l3.4-2.2l0.2-0.1l3.3-2.1c0.3,0.3,0.6,0.7,0.9,1c0,0,0.1,0.1,0.1,0.1c2.3,2.8,4.7,5.3,5.7,5.5c0.7,0.1,2.5,0.1,4.7-0.2
	c0.2,0,0.4,0,0.5-0.1C315.5,486.9,317.2,486.6,318.7,486.2z"/>
<path class="st0" d="M365.9,455.6l-29.1,19.1l-8.4,5.3l-3.2,2l-0.8,0.5c-2.5-2.7-9.4-3.3-9.4-3.3s-0.1-3.4-1-6.3l17.2-10.2l3.8-2.3
	l0.3-0.2l22-13.1C367,446.5,365.9,455.6,365.9,455.6z"/>
<path class="st0" d="M302,480.7l-3.3,2.1l-0.2,0.1l-3.4,2.2l-7.7,4.9c-0.7-0.9-1.1-1.4-1.2-1.5c-0.2-0.2-0.3-4.9-0.2-9.8
	c1.9,0.5,4.4-0.4,6.5-1.5c2.5-1.3,4.4-2.9,4.4-2.9S299.3,477.4,302,480.7z"/>
<path class="st0" d="M321.6,485.5c-0.9,0.3-1.8,0.5-2.8,0.7c-1.6,0.3-3.3,0.6-4.8,0.8c-0.2,0-0.4,0-0.5,0.1c-2.2,0.2-4,0.3-4.7,0.2
	c-1-0.2-3.4-2.7-5.7-5.5c0,0-0.1-0.1-0.1-0.1c-0.3-0.3-0.6-0.7-0.9-1c-2.7-3.2-5-6.4-5-6.4s-2,1.6-4.4,2.9c-2.1,1.1-4.5,2-6.5,1.5
	c0.1-4.6,0.4-9.3,0.9-10.6c1.1-2.9,9-14.9,9-14.9c5.7-0.6,13.4,0.5,20.5,2.1c-0.1,0.8-0.3,2-0.5,3.2c-0.7,3.5-1.9,8.2-3.9,11.1
	c1,0.6,1.6,1.9,2.1,3.4c0.9,2.8,1,6.3,1,6.3s6.9,0.7,9.4,3.3c0.1,0.1,0.1,0.1,0.2,0.2C325.6,483.8,324,484.8,321.6,485.5z"/>
</svg>
