<?xml version="1.0" encoding="utf-8"?>
<!-- Generator: Adobe Illustrator 25.2.0, SVG Export Plug-In . SVG Version: 6.00 Build 0)  -->
<svg version="1.1" id="Layer_1" xmlns="http://www.w3.org/2000/svg" xmlns:xlink="http://www.w3.org/1999/xlink" x="0px" y="0px"
	 viewBox="0 0 1000 1000" style="enable-background:new 0 0 1000 1000;" xml:space="preserve">
<style type="text/css">
	.st0{fill:#FFFFFF;stroke:#000000;stroke-miterlimit:10;}
</style>
<path class="st0" d="M445.2,279.9c-6.4-1-16.8,5.5-34.4,26.5c-11.5,13.6-16.4,31.5-18.6,45.2c-7,5.9-27.7,30.2-29.3,35.3
	c-1.8,6-37.4,38-45.8,34c-7.1-3.5-30.4-9.4-39.5-48.3v0c-1.5-6.5-2.6-13.8-3.2-22.3c-0.7-9.9-0.5-18.5,0.3-26.1
	c20.2,17.6,46.8,32.8,68.6,37.6c-29.4-20.2-36.4-65.5-38.1-87.9c5.7-3.6,11.8-6.6,17.9-9.6c15.6-7.6,29.5-9.4,38.5-9.5
	c6.4-0.1,10.3,0.6,10.3,0.6s38-5.9,51.7,3C437.2,267.5,445.2,279.9,445.2,279.9z"/>
<path class="st0" d="M343.3,361.9c-21.8-4.9-48.4-20-68.6-37.6c3.1-27.3,15.5-40.7,30.5-50.2C306.9,296.5,314,341.8,343.3,361.9z"/>
<path class="st0" d="M403.6,384.7c-1.7,7.3-4.1,15.6-7.2,24.4c-3.5,10.2-7.9,21.1-12.7,31.8c-5.1,11.4-10.7,22.5-16.4,32.5
	c-11.9,20.9-24.3,36.5-33.5,37.7c-22,3-35.1-25-39.2-37.4c-1.8-5.4-4.7-15.2-8-25.9c-4.2-13.9-9-29.5-12.6-38.9
	c-3.6-9.5-0.1-24.9,3.7-36.3c9.1,38.9,32.4,44.8,39.5,48.3c8.3,4,44-28.1,45.8-34c1.5-5.1,22.2-29.4,29.3-35.3
	c-1.7,11.1-1.6,19.5-1.6,20.4C390.6,373.5,395.6,376.5,403.6,384.7z"/>
<path class="st0" d="M404.5,631.8c-0.5,0-0.9,0.1-1.4,0.1c-0.2,0-0.4,0.1-0.6,0.1c-0.7,0.2-1.3,0.4-1.9,0.7
	c-0.2,0.1-0.3,0.2-0.5,0.3c-0.2,0.1-0.4,0.2-0.5,0.3c-0.1,0-0.2,0.1-0.2,0.1c-0.1,0.1-0.2,0.1-0.4,0.2c-0.2,0.1-0.4,0.3-0.5,0.4
	c0,0,0,0,0,0c-0.3,0.3-0.7,0.6-1,0.9c-0.2,0.2-0.3,0.3-0.5,0.5c-0.2,0.2-0.4,0.4-0.6,0.7c-0.1,0.1-0.2,0.3-0.3,0.4
	c-0.3,0.4-0.6,0.8-0.9,1.2c-0.3,0.4-0.5,0.8-0.8,1.2c-0.2,0.3-0.4,0.6-0.5,0.9c-0.2,0.4-0.5,0.8-0.7,1.3c-0.1,0.2-0.2,0.5-0.4,0.7
	c-0.1,0.2-0.2,0.5-0.3,0.7c0,0,0,0,0,0.1c-0.1,0.2-0.2,0.5-0.3,0.7c-0.3,0.8-0.7,1.6-1,2.4c-0.1,0.3-0.2,0.6-0.3,0.8
	c-0.3,0.8-0.6,1.7-0.9,2.6c-0.1,0.3-0.2,0.6-0.3,0.9c-0.2,0.6-0.4,1.2-0.5,1.8c-0.1,0.3-0.2,0.6-0.2,0.9c-0.2,0.9-0.5,1.8-0.7,2.7
	c-0.1,0.3-0.1,0.6-0.2,0.9c-0.1,0.5-0.2,1-0.4,1.5c0,0.1,0,0.2-0.1,0.3c-0.1,0.3-0.1,0.6-0.2,0.9c-1.4,6.3-2.4,12.5-3.6,16.8
	c-0.5,1.8-1.1,3.6-1.8,5.3c-0.2,0.4-0.3,0.8-0.5,1.2c-0.2,0.4-0.4,0.8-0.6,1.3c-0.4,0.8-0.7,1.6-1.1,2.3l0,0c-1.6,3-3.3,5.7-5.2,8.2
	c0,0,0,0,0,0c-0.4,0.5-0.8,1-1.3,1.6c-0.1,0.1-0.2,0.2-0.3,0.3c-0.2,0.2-0.4,0.5-0.6,0.7c-0.2,0.3-0.5,0.5-0.7,0.8
	c-0.3,0.4-0.7,0.7-1,1c-1.8,1.8-3.6,3.3-5.4,4.7c0,0,0,0-0.1,0c-2-4.5-4.7-9-8.1-13.5c0,0,0,0,0,0c-0.6-0.8-1.3-1.6-2-2.4
	c0,0,0,0,0,0c-1-1.2-2.1-2.4-3.2-3.5c-17.6-17.8-20.6-19.5-21.1-19.3c0,0-0.1,0-0.1,0.1c0,0.1,0,0.1,0,0.2c0,0,0,0,0,0c0,0,0,0,0,0
	s-0.2,1.7-0.4,4.7c0,0,0,0,0,0.1c-0.5,6.7-0.9,20,0.8,36.5h0c-0.1,0-0.2,0-0.4,0c-0.4-0.4-0.8-0.7-1.1-1.1
	c-24.7-23.8-33.5-61.2-45.2-94.6c-3.2-9.2-7.6-19.9-12.2-31.3c0,0,0,0,0,0c25.5-2.9,65-25.3,66.2-26c0,0,0,0,0,0s-18.3-0.3-45.7,0
	c-4.4,0-8.8-0.8-13.1-2.3c-3.8-1.3-7.6-3.1-11.2-5.1c0,0,0,0,0,0c-1.1-0.6-2.1-1.3-3.2-1.9l0,0c-1.8-1.1-3.5-2.2-5.1-3.4
	c-1-0.7-2-1.4-2.9-2.2l0,0c-5.5-18.1-8.8-35.4-6-49c5-24.8,25.7-37,35.4-41.4c1.2,4,2.4,7.9,3.5,11.5c0.5,1.8,1.1,3.5,1.5,5.1
	c0,0,0,0,0,0c0.2,0.5,0.3,1.1,0.5,1.6c1,3.1,1.8,5.7,2.5,7.8c0.2,0.6,0.4,1.2,0.6,1.8c0.4,1,0.8,2.1,1.2,3.2c0,0,0,0,0,0
	c0.2,0.5,0.4,0.9,0.6,1.4c0.2,0.5,0.4,1,0.6,1.5c0.2,0.5,0.4,1,0.7,1.5c0,0,0,0,0,0c0.6,1.2,1.2,2.5,1.9,3.8c0,0,0,0.1,0,0.1
	c0.2,0.5,0.5,1,0.8,1.4c2.6,4.7,5.8,9.5,9.7,13.5c6.1,6.2,13.8,10.4,23,9.2c9.2-1.2,21.6-16.9,33.5-37.7l0,0v0
	c17.1,19.1,17.8,43,20,59.7c2.4,17.8-11.3,32.1-15.5,48.1c-4.2,16,3,50.5,3,50.5S379.6,628.8,404.5,631.8z"/>
<path class="st0" d="M338.5,553c0,0-40.3,23-66.2,26c-5.3-13.2-10.8-27.3-15-40.9c10.3,7.9,23.1,15,35.5,14.9
	C320.1,552.7,338.5,553,338.5,553z"/>
<path class="st0" d="M403.2,832.1c-32.5-20.8-50.8-49.6-61-77.4v0c-1.6-4.3-3-8.6-4.2-12.9c-1.8-6.4-3.2-12.6-4.4-18.6
	c-0.5-2.9-1-5.7-1.4-8.4c0-0.3-0.1-0.5-0.1-0.8c-0.4-2.7-0.7-5.4-1-8v0c-1.8-16.6-1.3-29.8-0.8-36.5c0,0,0-0.1,0-0.1
	c0.2-3,0.4-4.7,0.4-4.7s0,0,0-0.1c0,0,0,0,0,0c0-0.1,0-0.1,0-0.2c0,0,0,0,0.1-0.1c0.5-0.2,3.5,1.6,21.1,19.3
	c1.1,1.2,2.2,2.3,3.2,3.5c0,0,0,0,0,0c0.7,0.8,1.3,1.6,2,2.4c0,0,0,0,0,0c3.4,4.4,6.1,9,8.1,13.5v0c8.3,18.4,6.3,36,6.3,40.3
	c0,0.2,0,0.3,0,0.5c0,0.3,0.1,0.6,0.2,0.9c0,0.1,0.1,0.3,0.2,0.4s0.1,0.3,0.2,0.4c0.1,0.1,0.2,0.3,0.2,0.4c0.3,0.5,0.8,1,1.2,1.5
	c0.4,0.4,0.8,0.7,1.2,1h0c0.1,0.1,0.3,0.2,0.4,0.3c0.1,0.1,0.3,0.2,0.4,0.3c0.2,0.1,0.3,0.2,0.5,0.3c0.1,0.1,0.3,0.2,0.5,0.3
	c0.3,0.2,0.6,0.4,0.9,0.5h0c0.3,0.2,0.6,0.3,0.9,0.5c0.2,0.1,0.3,0.2,0.5,0.2c0.2,0.1,0.3,0.1,0.5,0.2c0.1,0.1,0.3,0.1,0.4,0.2
	c0,0,0,0,0,0c0.3,0.1,0.6,0.2,0.8,0.3c0.4,0.2,0.8,0.3,1.1,0.4c0.1,0,0.2,0.1,0.3,0.1c0.2,0.1,0.4,0.1,0.5,0.2c0,0,0,0,0.1,0
	c0,0,0.1,0,0.1,0c0.1,0,0.1,0,0.2,0c0,0,0,0,0,0c0.2,0.1,0.3,0.1,0.3,0.1s1,5.8,2.7,14.3C390.3,788.2,398.3,826,403.2,832.1z"/>
<path class="st0" d="M342.3,754.6c-6.6-3.8-14.2-9-14.9-10c-0.9-1.2,1.5-30.5,2.4-39.7c0.4,0.4,0.7,0.7,1.1,1.1c0.1,0,0.3,0,0.4,0
	C332.8,720.5,336,737.4,342.3,754.6z"/>
<path class="st0" d="M408.7,837.3L408.7,837.3L408.7,837.3c-0.9,0.6-1.8,1.2-2.8,1.8h0c-1.8,1.2-3.6,2.5-5.4,4
	c-0.6,0.5-1.2,1-1.8,1.5c-0.9,0.8-1.8,1.6-2.6,2.4c-0.2,0.2-0.4,0.4-0.6,0.6c-1.5,1.5-2.7,3-3.7,4.5c-0.4,0.7-0.8,1.3-1,2
	c-0.1,0.2-0.2,0.5-0.3,0.8c0,0.1-0.1,0.2-0.1,0.4c0,0.1-0.1,0.2-0.1,0.4c-1,4.8-3.3,14.9-5.4,24.4c-0.6,0-1.3,0-1.9-0.1
	c-10.5-0.6-17.2-3.8-17.2-3.8s-0.2-10,5.3-22.5c5.6-12.5,15.2-9.6,27.6-17.6c1.2-0.8,2.3-1.6,3.3-2.6c0,0,0,0,0,0
	c0.1,0.1,0.2,0.2,0.4,0.3c0.8,0.6,2.1,1.5,3.8,2.4c0.2,0.1,0.4,0.2,0.5,0.3c0.4,0.2,0.7,0.4,1.1,0.6h0
	C408.2,837.1,408.4,837.2,408.7,837.3z"/>
<path class="st0" d="M411.3,766.5c0,0.1,0,0.1,0.1,0.2c-2.7,2-5.2,3.3-6.9,3.6c-2.8,0.4-12.1-1.7-18.4-3.2
	c-1.7-8.5-2.7-14.3-2.7-14.3s-0.1,0-0.3-0.1c0,0,0.1,0,0.2,0c0.3,0.1,0.7,0.2,1.2,0.3c0.3,0.1,0.5,0.1,0.9,0.2
	c0.3,0.1,0.6,0.1,0.9,0.2c0.6,0.2,1.4,0.3,2.2,0.5c1.8,0.4,3.9,0.9,6.3,1.4c0.5,0.1,1.1,0.2,1.6,0.4c0.5,0.1,1,0.2,1.5,0.3
	c0.7,0.2,1.4,0.3,2.2,0.4c0.4,0.1,0.8,0.1,1.1,0.2c0.7,0.1,1.5,0.3,2.2,0.4c2,0.3,4,0.7,6,1h0v0c0.7,2.8,1.5,5.6,2.2,8.3
	C411.5,766.3,411.4,766.4,411.3,766.5z"/>
<path class="st0" d="M428.7,841c-1.3,1-2.8,2.2-4.2,3.7c-0.2,0.2-0.5,0.5-0.7,0.8c-0.4,0.4-0.8,0.8-1.1,1.3
	c-0.4,0.5-0.8,0.9-1.2,1.4c-0.3,0.4-0.7,0.9-1,1.4c-0.5,0.7-1,1.5-1.5,2.2c-0.4,0.6-0.8,1.3-1.2,2c-0.4,0.7-0.8,1.4-1.1,2.1
	c-0.3,0.5-0.6,1.1-0.8,1.7c-0.5,1.2-1.1,2.4-1.6,3.7c-0.3,0.7-0.5,1.3-0.8,2c-0.2,0.5-0.3,0.9-0.5,1.4c-0.5,1.4-1,2.9-1.4,4.4
	c-0.3,1-0.6,2.1-0.9,3.2c-0.2,0.9-0.5,1.9-0.7,2.9c-0.3,1.5-0.6,3-0.9,4.6c-0.1,0.5-0.2,1.1-0.3,1.6c-0.2,1.1-0.3,2.2-0.5,3.3h0
	c-0.7-0.2-1.3-0.5-1.8-0.8h0c-11.7,1.9-18.2-0.1-21.9-2.6c0.1-0.4,0.2-0.8,0.3-1.2c2.1-9.5,4.4-19.6,5.4-24.4c0-0.1,0.1-0.2,0.1-0.4
	c0-0.1,0.1-0.2,0.1-0.4c0.1-0.2,0.2-0.5,0.3-0.8c0.3-0.7,0.6-1.3,1-2c0.9-1.5,2.2-3,3.7-4.5c0.2-0.2,0.4-0.4,0.6-0.6
	c0.8-0.8,1.7-1.6,2.6-2.4c0.6-0.5,1.2-1,1.8-1.5c1.8-1.4,3.7-2.8,5.4-4h0c1-0.6,1.9-1.2,2.8-1.8h0v0h0c0.3,0.1,0.5,0.2,0.8,0.4
	c0.6,0.2,1.1,0.5,1.7,0.7c0.3,0.1,0.6,0.2,0.9,0.3C416.4,840.2,422,841.3,428.7,841z"/>
<path class="st0" d="M491,734.2c-7.1,29-18.9,27.8-30.3,54.4c-5.3,12.4-5.4,29.6-4,44.3h0c-10.9,5.6-20.2,7.7-28,8.1
	c-6.7,0.3-12.2-0.8-16.5-2.3c-0.3-0.1-0.6-0.2-0.9-0.3c-0.6-0.2-1.2-0.5-1.7-0.7c-0.3-0.1-0.5-0.2-0.8-0.4h0
	c-0.2-0.1-0.4-0.2-0.6-0.3h0c-0.4-0.2-0.8-0.4-1.1-0.6c-0.2-0.1-0.4-0.2-0.5-0.3c-1.7-1-3-1.8-3.8-2.4c-0.2-0.1-0.3-0.2-0.4-0.3
	c0.1-0.1,1.4-1.4,1.5-1.5c9.3-9.8,14.3-27.3,14.3-36.9c0-4.4-3.1-15.6-6.5-28.4c0-0.1,0-0.1-0.1-0.2c0.1-0.1,0.1-0.1,0.2-0.2
	c-0.7-2.7-1.5-5.5-2.2-8.3c3.3,0.5,6.7,0.8,10,1.1c0,0,0,0,0,0c4.3,0.3,8.5,0.4,12.3,0c0.5,0,1-0.1,1.4-0.2c5-0.6,8.9-1.5,11.9-2.5
	c0.5-0.2,1-0.3,1.5-0.5c0.2-0.1,0.3-0.1,0.5-0.2c0.5-0.2,1-0.4,1.4-0.6c0.4-0.2,0.8-0.4,1.1-0.5c0.4-0.2,0.7-0.4,1-0.5
	c1.1-0.7,1.9-1.3,2.6-1.9c0.2-0.2,0.3-0.3,0.5-0.5c0.2-0.2,0.3-0.3,0.4-0.5c0.1-0.1,0.2-0.2,0.2-0.4c0.5-0.8,0.7-1.5,0.7-2
	c0-2.1-12.2-25.8-14.1-26.9c-0.1,0-0.2-0.1-0.3-0.1c-2.4-0.7-11.1,1.7-17-0.3c-0.3-0.1-0.5-0.2-0.8-0.3c-0.1,0-0.1-0.1-0.2-0.1
	c-0.1,0-0.2-0.1-0.2-0.1c-0.5-0.2-1-0.5-1.5-0.8c-1.2-0.7-2.6-1.5-4-2.4c-0.2-0.1-0.4-0.3-0.7-0.4c-0.4-0.3-0.8-0.6-1.3-0.9
	c-2.2-1.5-4.4-3.2-6.5-5c-0.8-0.7-1.6-1.4-2.4-2.1c-0.4-0.4-0.8-0.7-1.1-1.1h0c-0.4-0.4-0.7-0.7-1-1c1.9-4.3,4.7-9.2,7.8-14.2
	c0.3,0.4,0.6,0.9,0.9,1.3c0.2,0.2,0.3,0.5,0.5,0.7c0.2,0.2,0.4,0.4,0.6,0.7c0.4,0.5,0.8,1,1.3,1.4c0.2,0.2,0.4,0.4,0.6,0.6
	c0.1,0.1,0.2,0.2,0.3,0.3c0.1,0.1,0.2,0.2,0.4,0.3h0c0.6,0.6,1.2,1.1,1.8,1.6c0.6,0.5,1.3,1.1,2,1.6c0.3,0.3,0.7,0.5,1,0.8
	c0.7,0.5,1.4,1,2.1,1.5c0,0,0,0,0,0c0.7,0.5,1.5,1,2.2,1.5c0.9,0.6,1.8,1.2,2.8,1.7c0.6,0.4,1.3,0.8,1.9,1.1
	c4.9,2.7,10.1,5.1,15,6.6c3.6,1.2,7.1,1.9,10.1,2.1c1.9,0.1,3.6-0.1,5.2-0.7c0.7-0.2,1.4-0.5,2-0.8c9.7-5,14.2-20.1,14.2-20.1
	c0-0.9,2.1-6.1,5.4-12.7C488.8,699,494.7,719.3,491,734.2z"/>
<path class="st0" d="M461.8,863.4c-7.3,8.5-31,20.7-43.7,22.1c-4.3,0.5-7.5,0-9.9-0.9h0c0.2-1.1,0.3-2.2,0.5-3.3
	c0.1-0.5,0.2-1.1,0.3-1.6c0.3-1.6,0.6-3.1,0.9-4.6c0.2-1,0.4-1.9,0.7-2.9c0.3-1.1,0.6-2.2,0.9-3.2c0.5-1.6,0.9-3,1.4-4.4
	c0.2-0.5,0.3-0.9,0.5-1.4c0.2-0.7,0.5-1.3,0.8-2c0.5-1.3,1.1-2.5,1.6-3.7c0.3-0.6,0.6-1.2,0.8-1.7c0.4-0.7,0.8-1.4,1.1-2.1
	c0.4-0.7,0.8-1.3,1.2-2c0.5-0.8,1-1.5,1.5-2.2c0.3-0.5,0.7-0.9,1-1.4c0.4-0.5,0.8-1,1.2-1.4c0.4-0.5,0.8-0.9,1.1-1.3
	c0.2-0.3,0.5-0.5,0.7-0.8c1.5-1.5,2.9-2.7,4.2-3.7c7.8-0.3,17.2-2.5,28-8.1C458.3,849.7,461.8,863.4,461.8,863.4z"/>
<path class="st0" d="M456.7,612.7c-8.2-0.5-22-10.9-33.1-20.5c1.1-5.7,3.4-13.6,6.3-22.3C435.8,582.9,445,606.2,456.7,612.7z"/>
<path class="st0" d="M464,571.3c-0.7,0.6-17.6-12.6-27.6-20.5c1-3,2-6,3-8.9C445.8,551.7,455.2,564.4,464,571.3z"/>
<path class="st0" d="M400.2,702.2c0.7,1.4,2.1,3.2,3.8,5c0.3,0.3,0.7,0.7,1,1h0c0.3,0.4,0.7,0.7,1.1,1.1c0.8,0.7,1.6,1.4,2.4,2.1
	c2.1,1.8,4.3,3.5,6.5,5c0.4,0.3,0.8,0.6,1.3,0.9c0.2,0.1,0.4,0.3,0.7,0.4c1.4,1,2.8,1.8,4,2.4c0.5,0.3,1.1,0.5,1.5,0.8
	c0.1,0,0.2,0.1,0.2,0.1c0.1,0,0.1,0.1,0.2,0.1c0.3,0.1,0.5,0.2,0.8,0.3c6,2.1,14.7-0.3,17,0.3c0.1,0,0.2,0.1,0.3,0.1
	c1.9,1,14.1,24.8,14.1,26.9c0,0.5-0.2,1.2-0.7,2c-0.1,0.1-0.2,0.2-0.2,0.4c-0.1,0.2-0.3,0.3-0.4,0.5c-0.2,0.2-0.3,0.3-0.5,0.5
	c-0.7,0.6-1.5,1.3-2.6,1.9c-0.3,0.2-0.6,0.4-1,0.5c-0.4,0.2-0.7,0.4-1.1,0.5c-0.4,0.2-0.9,0.4-1.4,0.6c-0.2,0.1-0.3,0.1-0.5,0.2
	c-0.5,0.2-1,0.4-1.5,0.5c-3,1-6.9,1.9-11.9,2.5c-0.5,0.1-1,0.1-1.4,0.2c-3.8,0.4-8,0.3-12.3,0c0,0,0,0,0,0c-3.3-0.2-6.7-0.6-10-1.1
	v0h0c-2.1-0.3-4.1-0.6-6-1c-0.8-0.1-1.5-0.3-2.2-0.4c-0.4-0.1-0.8-0.1-1.1-0.2c-0.7-0.1-1.5-0.3-2.2-0.4c-0.5-0.1-1-0.2-1.5-0.3
	c-0.6-0.1-1.1-0.2-1.6-0.4c-2.4-0.5-4.5-1-6.3-1.4c-0.8-0.2-1.5-0.4-2.2-0.5c-0.3-0.1-0.6-0.2-0.9-0.2c-0.3-0.1-0.6-0.1-0.9-0.2
	c-0.5-0.1-0.9-0.2-1.2-0.3c-0.1,0-0.1,0-0.2,0c0,0,0,0,0,0c-0.1,0-0.1,0-0.2,0c0,0-0.1,0-0.1,0c0,0-0.1,0-0.1,0
	c-0.2,0-0.3-0.1-0.5-0.2c-0.1,0-0.2-0.1-0.3-0.1c-0.3-0.1-0.7-0.3-1.1-0.4c-0.3-0.1-0.5-0.2-0.8-0.3c0,0,0,0,0,0
	c-0.1-0.1-0.3-0.1-0.4-0.2c-0.2-0.1-0.3-0.1-0.5-0.2c-0.2-0.1-0.3-0.1-0.5-0.2c-0.3-0.1-0.6-0.3-0.9-0.5h0c-0.3-0.2-0.6-0.3-0.9-0.5
	c-0.2-0.1-0.3-0.2-0.5-0.3c-0.2-0.1-0.3-0.2-0.5-0.3c-0.1-0.1-0.3-0.2-0.4-0.3c-0.1-0.1-0.3-0.2-0.4-0.3h0c-0.4-0.3-0.8-0.7-1.2-1
	c-0.2-0.2-0.3-0.3-0.5-0.5c-0.2-0.2-0.3-0.4-0.5-0.6c-0.1-0.1-0.2-0.3-0.3-0.4c-0.1-0.1-0.2-0.3-0.2-0.4c-0.1-0.1-0.1-0.3-0.2-0.4
	s-0.1-0.3-0.2-0.4c-0.1-0.3-0.2-0.6-0.2-0.9c0-0.2,0-0.3,0-0.5c0-4.4,1.9-22-6.3-40.3v0c0,0,0,0,0,0c0,0,0,0,0.1,0
	c1.8-1.3,3.6-2.9,5.4-4.7c0.3-0.3,0.7-0.7,1-1c0.2-0.3,0.5-0.5,0.7-0.8c0.2-0.2,0.4-0.5,0.6-0.7c0.1-0.1,0.2-0.2,0.3-0.3
	c0.4-0.5,0.9-1,1.3-1.6c0,0,0,0,0,0c0.2-0.3,0.5-0.6,0.7-0.9c0,0,0,0,0,0h0c0.2-0.2,0.3-0.5,0.5-0.7c0.1-0.1,0.1-0.2,0.2-0.2h0
	c0.1-0.1,0.1-0.2,0.2-0.3c0.1-0.2,0.3-0.4,0.4-0.6c0,0,0-0.1,0.1-0.1h0c0.1-0.2,0.2-0.3,0.3-0.5c0.1-0.2,0.2-0.3,0.3-0.5h0
	c0.7-1,1.3-2.1,1.9-3.2c0.2-0.4,0.4-0.7,0.6-1.1l0,0c0.4-0.8,0.8-1.5,1.1-2.3c0.2-0.4,0.4-0.8,0.6-1.3c0.2-0.4,0.3-0.8,0.5-1.2
	c0.7-1.7,1.2-3.4,1.8-5.3c0.6-2.3,1.2-5.2,1.9-8.4c0.1-0.5,0.2-0.9,0.3-1.4c0.1-0.5,0.2-1,0.3-1.5c0.1-0.6,0.2-1.2,0.4-1.9
	c0.1-0.4,0.2-0.8,0.2-1.2c0.1-0.4,0.2-0.8,0.2-1.2c0,0,0,0,0,0c0.1-0.4,0.2-0.8,0.3-1.2c0.1-0.3,0.1-0.6,0.2-0.9
	c0-0.1,0-0.2,0.1-0.3c0.1-0.5,0.2-1,0.4-1.5c0.1-0.3,0.2-0.6,0.2-0.9c0.2-0.9,0.5-1.8,0.7-2.7c0.1-0.3,0.2-0.6,0.2-0.9
	c0.2-0.6,0.3-1.2,0.5-1.8c0.1-0.3,0.2-0.6,0.3-0.9c0.3-0.9,0.6-1.7,0.9-2.6c0.1-0.3,0.2-0.6,0.3-0.8c0.3-0.8,0.6-1.6,1-2.4
	c0.1-0.2,0.2-0.5,0.3-0.7c0,0,0-0.1,0-0.1c0.1-0.2,0.2-0.5,0.3-0.7c0.1-0.2,0.2-0.5,0.4-0.7c0.2-0.4,0.4-0.9,0.7-1.3
	c0.2-0.3,0.4-0.6,0.5-0.9c0.2-0.4,0.5-0.8,0.8-1.2c0.3-0.4,0.6-0.8,0.9-1.2c0.1-0.1,0.2-0.3,0.3-0.4c0.2-0.2,0.4-0.5,0.6-0.7
	c0.2-0.2,0.3-0.3,0.5-0.5c0.3-0.3,0.7-0.6,1-0.9c0,0,0,0,0,0c0.2-0.1,0.3-0.3,0.5-0.4c0.1-0.1,0.2-0.2,0.4-0.2
	c0.1-0.1,0.1-0.1,0.2-0.1c0.2-0.1,0.3-0.2,0.5-0.3c0.2-0.1,0.3-0.2,0.5-0.3c0.6-0.3,1.2-0.5,1.9-0.7c0.2,0,0.4-0.1,0.6-0.1
	c0.4-0.1,0.9-0.1,1.4-0.1c13.5-2.1,20.5,8.5,27.3,17.2c0.6,0.8,1.8,1.8,2.8,2.6c0,0,0,0,0,0c0.1,0.1,0.3,0.2,0.4,0.3
	c8.6,5.9,24.7,6.3,25.5,9.1c0.9,3.3-1.9,11-1.8,16.9c0.1,4.5-5.3,21.7-8.6,29.7c0,0,0,0,0,0c-0.2,0.4-0.3,0.8-0.5,1.1
	c-0.1,0.2-0.2,0.5-0.3,0.7c-0.2,0.5-0.4,0.8-0.6,1.2c-0.1,0.3-0.3,0.5-0.4,0.7c-0.1,0.1-0.1,0.2-0.2,0.3c0,0-0.1,0.1-0.1,0.1
	c0,0-0.1,0-0.1,0.1c0,0-0.1,0-0.1,0c-1.5-0.1-15.6-7.7-17.2-9.7c-1.6-1.9-3.4-22.9-3.7-24.5c-0.1-0.4-1.4-1.2-3.3-2c0,0,0,0,0,0l0,0
	c-0.1,0.1-0.2,0.3-0.2,0.4c-0.1,0-0.2-0.1-0.4-0.2c0,0,0,0,0,0l0,0c-5.3-2.4-14.6-6.1-18.5-7.9C398.9,665.5,397.4,696.4,400.2,702.2
	z"/>
<path class="st0" d="M522.8,618.4c-7.7,14.3-18.1,29.7-27.9,43.1c-4.9,6.7-9.4,14.7-12.7,21.3c-3.3,6.6-5.4,11.8-5.4,12.7
	c0,0-4.5,15.1-14.2,20.1c-0.7,0.3-1.3,0.6-2,0.8c-1.6,0.5-3.4,0.8-5.2,0.7c-3-0.2-6.5-0.9-10.1-2.1c-4.9-1.6-10.1-3.9-15-6.6
	c-0.7-0.4-1.3-0.7-1.9-1.1c-0.9-0.5-1.9-1.1-2.8-1.7c-0.8-0.5-1.5-1-2.2-1.5c0,0,0,0,0,0c-0.7-0.5-1.4-1-2.1-1.5
	c-0.3-0.3-0.7-0.5-1-0.8c-0.7-0.5-1.3-1.1-2-1.6c-0.6-0.5-1.2-1.1-1.8-1.6h0c-0.1-0.1-0.2-0.2-0.4-0.3c-0.1-0.1-0.2-0.2-0.3-0.3
	c-0.2-0.2-0.4-0.4-0.6-0.6c-0.5-0.5-0.9-1-1.3-1.4c-0.2-0.2-0.4-0.5-0.6-0.7c-0.2-0.2-0.3-0.5-0.5-0.7c-0.3-0.5-0.6-0.9-0.9-1.3
	c0,0,0,0,0,0c3.5-5.7,7.5-11.5,11.2-17c0,0,0,0,0,0c0.1,0,0.2,0.1,0.4,0.2l0,0c0.1-0.1,0.2-0.3,0.2-0.4c0,0,0,0,0,0
	c1.9,0.9,3.2,1.6,3.3,2c0.3,1.6,2.1,22.6,3.7,24.5c1.6,1.9,15.7,9.5,17.2,9.7c0,0,0.1,0,0.1,0c0,0,0.1,0,0.1-0.1
	c0,0,0.1-0.1,0.1-0.1c0.1-0.1,0.1-0.2,0.2-0.3c0.1-0.2,0.2-0.4,0.4-0.7c0.2-0.3,0.4-0.7,0.6-1.2c0.1-0.2,0.2-0.4,0.3-0.7
	c0.2-0.4,0.3-0.7,0.5-1.1c0,0,0,0,0,0c3.3-8,8.7-25.2,8.6-29.7c-0.2-6,2.7-13.7,1.8-16.9c-0.8-2.9-16.9-3.2-25.5-9.1
	c-0.1-0.1-0.3-0.2-0.4-0.3c0,0,0,0,0,0c0.6-15.6-11-41.5-11.7-53.1c-0.1-1.6,0.1-3.7,0.6-6.2v0c2.1,1.8,4.2,3.6,6.5,5.4
	c0.5,0.4,1.1,0.8,1.6,1.3c3.4,2.7,6.9,5.2,10.2,7.4c0.3,0.2,0.7,0.4,1,0.6c0.3,0.2,0.6,0.4,1,0.6c0.7,0.4,1.4,0.9,2.1,1.3
	c0.2,0.1,0.5,0.3,0.7,0.4c0.3,0.2,0.6,0.3,0.9,0.5c1.4,0.7,2.7,1.3,3.9,1.8c0.3,0.1,0.6,0.2,0.8,0.3c0.1,0.1,0.2,0.1,0.4,0.1
	c0.4,0.2,0.9,0.3,1.3,0.4c0.1,0,0.3,0.1,0.4,0.1c0.2,0,0.4,0.1,0.6,0.1c0.3,0.1,0.5,0.1,0.8,0.1c0.3,0,0.5,0.1,0.8,0.1c0,0,0,0,0,0
	c-0.5-0.3-0.9-0.5-1.4-0.8c-0.2-0.2-0.4-0.3-0.7-0.5c-0.4-0.3-0.9-0.7-1.3-1c-0.2-0.2-0.4-0.4-0.6-0.6c-0.4-0.4-0.9-0.8-1.3-1.2
	c-0.3-0.4-0.7-0.7-1-1.1c-0.2-0.3-0.5-0.6-0.8-0.9c-0.2-0.3-0.5-0.6-0.7-0.9v0c-0.3-0.4-0.6-0.8-1-1.2c-0.2-0.2-0.3-0.4-0.5-0.7
	c-0.3-0.4-0.6-0.9-1-1.3c-0.5-0.7-0.9-1.4-1.4-2.1c-0.4-0.7-0.9-1.4-1.4-2.2c-0.5-0.7-0.9-1.5-1.3-2.2c-0.2-0.4-0.5-0.9-0.8-1.3
	c-0.7-1.2-1.3-2.4-2-3.7c-0.3-0.6-0.6-1.2-0.9-1.8c0-0.1-0.1-0.1-0.1-0.2c-0.3-0.6-0.6-1.2-0.9-1.8c-0.2-0.5-0.4-0.9-0.7-1.4
	c-0.3-0.5-0.5-1.1-0.8-1.6c-0.1-0.3-0.2-0.5-0.4-0.8c-0.3-0.6-0.6-1.2-0.9-1.8c-0.7-1.5-1.4-3-2-4.5c-0.3-0.6-0.5-1.1-0.8-1.7
	c-0.4-0.9-0.8-1.7-1.1-2.5c-0.2-0.5-0.5-1-0.7-1.6c-0.2-0.5-0.5-1-0.7-1.5v0c2-6.2,4.3-12.7,6.5-19.2v0c0.3,0.2,0.6,0.5,0.9,0.8
	c0.2,0.1,0.3,0.2,0.5,0.4c0.5,0.4,1,0.8,1.5,1.2c0.3,0.3,0.7,0.5,1,0.8c0.2,0.1,0.3,0.3,0.5,0.4c0.5,0.4,1,0.8,1.6,1.3
	c0.2,0.1,0.4,0.3,0.5,0.4c0.4,0.3,0.7,0.6,1.1,0.8h0c1.1,0.9,2.2,1.7,3.3,2.6c0.2,0.1,0.4,0.3,0.5,0.4c0.4,0.3,0.7,0.6,1.1,0.9
	c0.2,0.1,0.4,0.3,0.6,0.4c0.7,0.5,1.4,1.1,2.1,1.7h0c0.3,0.3,0.7,0.5,1,0.8h0c0.3,0.3,0.7,0.5,1,0.8h0c0.3,0.2,0.7,0.5,1,0.8
	c0.3,0.2,0.7,0.5,1,0.7c0.2,0.1,0.3,0.2,0.5,0.3c0.3,0.2,0.6,0.5,0.9,0.7c0.1,0,0.2,0.1,0.2,0.2c0.4,0.3,0.7,0.5,1.1,0.8
	c0.1,0.1,0.3,0.2,0.4,0.3c0.4,0.3,0.8,0.6,1.2,0.8c0.1,0.1,0.2,0.2,0.4,0.2s0.2,0.2,0.4,0.2s0.2,0.2,0.3,0.2
	c0.2,0.1,0.4,0.3,0.6,0.4c0.2,0.1,0.4,0.2,0.5,0.4c0.1,0,0.2,0.1,0.2,0.2c0.2,0.1,0.3,0.2,0.5,0.3h0c0.1,0.1,0.2,0.1,0.3,0.2
	c0.1,0,0.2,0.1,0.3,0.1c0.2,0.1,0.4,0.1,0.4,0.1c-0.5-0.4-1-0.8-1.4-1.2c-0.2-0.2-0.5-0.4-0.7-0.6c-0.2-0.2-0.5-0.4-0.7-0.6
	c-0.2-0.2-0.5-0.4-0.7-0.7c-0.4-0.4-0.9-0.9-1.3-1.3c-0.3-0.3-0.6-0.6-0.8-0.8c-0.4-0.4-0.9-0.9-1.3-1.3c-0.3-0.3-0.6-0.6-0.8-0.9
	c-0.3-0.3-0.6-0.6-0.8-0.9c-0.1-0.1-0.2-0.2-0.3-0.4c-0.4-0.5-0.9-1-1.3-1.5c-0.4-0.4-0.7-0.9-1.1-1.3c-0.3-0.4-0.6-0.8-1-1.2
	c-0.3-0.4-0.6-0.8-1-1.2c-0.8-1-1.6-2.1-2.4-3.1c-0.4-0.5-0.8-1-1.2-1.6c-0.4-0.5-0.7-1-1.1-1.4c-0.9-1.2-1.7-2.3-2.5-3.5
	c-0.6-0.9-1.2-1.7-1.8-2.6c-0.4-0.6-0.9-1.3-1.3-1.9c-0.3-0.4-0.6-0.9-0.9-1.3v0c2.3-6.8,4.4-13.1,5.8-18.4l0,0h0
	c0.3-0.2,0.6-0.5,0.9-0.7c0.7-0.5,1.3-0.9,2-1.3c0.3-0.2,0.7-0.4,1-0.6c0.3-0.2,0.6-0.3,0.9-0.5c0.9-0.5,1.9-0.9,2.8-1.2
	c0.1,0,0.3-0.1,0.4-0.1c0.6-0.2,1.2-0.4,1.8-0.5c0.3-0.1,0.7-0.2,1-0.2c0.4-0.1,0.9-0.2,1.3-0.2c0.2,0,0.4-0.1,0.6-0.1
	c1.7-0.2,3.5-0.2,5.2-0.1c0.1,0,0.2,0,0.3,0c0.8,0.1,1.6,0.2,2.5,0.3c0.4,0.1,0.8,0.2,1.2,0.2c0.6,0.1,1.2,0.2,1.7,0.4
	c0.4,0.1,0.7,0.2,1.1,0.3c0.5,0.1,1,0.3,1.5,0.5c0.4,0.1,0.8,0.3,1.1,0.4c0.7,0.2,1.3,0.5,1.9,0.8c0.3,0.1,0.5,0.2,0.8,0.4
	c0.4,0.2,0.8,0.4,1.2,0.6c0.3,0.1,0.6,0.3,0.9,0.5c0.3,0.2,0.6,0.3,0.9,0.5c0.2,0.1,0.5,0.3,0.7,0.4c0.3,0.2,0.7,0.4,1,0.6
	c0.3,0.2,0.6,0.4,0.9,0.6c1.4,0.8,2.7,1.7,4,2.7c0.3,0.2,0.5,0.4,0.8,0.6c0.5,0.4,1.1,0.8,1.6,1.2c0.5,0.4,0.9,0.7,1.4,1.1
	c0.3,0.2,0.5,0.4,0.8,0.6c0.3,0.3,0.7,0.5,1,0.8c0.3,0.3,0.6,0.5,0.9,0.8c0.5,0.4,0.9,0.8,1.4,1.2c0.2,0.2,0.5,0.4,0.7,0.7
	c1.3,1.2,2.6,2.5,3.8,3.7c0.3,0.3,0.6,0.6,0.9,0.9c0.2,0.2,0.3,0.3,0.5,0.5c0.3,0.3,0.6,0.6,0.8,0.9c0.9,0.9,1.7,1.8,2.4,2.6
	c0.2,0.2,0.5,0.5,0.7,0.8c0.6,0.7,1.2,1.4,1.8,2c0.2,0.2,0.4,0.4,0.5,0.6c0.2,0.2,0.4,0.4,0.5,0.6c0.1,0.2,0.3,0.4,0.4,0.5
	c0.1,0.2,0.3,0.3,0.4,0.5c0.3,0.3,0.5,0.7,0.8,1c0.3,0.4,0.6,0.7,0.8,1.1c1.6,2,2.5,3.2,2.5,3.2c1.3,1.6,2.5,3.2,3.6,4.7
	c0.3,0.5,0.7,0.9,1,1.4c0.5,0.7,1,1.4,1.4,2.1c0.5,0.7,0.9,1.4,1.3,2.1c1,1.7,2,3.4,2.8,5.1c0.2,0.5,0.5,1,0.7,1.4
	c0.2,0.5,0.5,1,0.7,1.4c0.2,0.4,0.4,0.9,0.6,1.3c0.7,1.5,1.2,3.1,1.8,4.6c0.1,0.4,0.3,0.8,0.4,1.2c1.4,4.3,2.2,8.4,2.7,12.3
	c0,0.2,0,0.4,0.1,0.6c0,0.4,0.1,0.7,0.1,1.1C528.5,602.9,526.4,611.8,522.8,618.4z"/>
<path class="st0" d="M456.7,454.1c-16.7,1.2-33.3,1.2-45.8,0.9c-9.3-5.1-20.1-10.6-27.2-14.1c4.8-10.7,9.1-21.6,12.7-31.8
	C403.8,422.6,420.3,442,456.7,454.1z"/>
<path class="st0" d="M464,482h-25.8c-2.9-5.3-5.8-9.9-7.7-12.9L464,482z"/>
<path class="st0" d="M626.1,518.6c-12,2.6-26,28.5-26,28.5s-7.7,37.4-43.4,46.3c-0.6,0.2-1.2,0.3-1.8,0.4
	c-11.6,2.6-20.4,1.4-27.1-1.3c-0.9-11.9-5.8-25.7-17.1-39.6c0,0-36.7-52.1-65.4-29.5c1.1-3.8,1.8-6.9,2.1-9.3
	c1.3-9.8-3.8-22.3-9.1-32.2H464l-33.5-12.9c-0.5-0.8-1-1.5-1.4-2.1c-1.6-2.5-9.2-7.1-18.1-12c12.4,0.3,29.1,0.3,45.8-0.9
	c-36.4-12.1-52.9-31.5-60.3-45c3.1-8.8,5.5-17.1,7.2-24.4c3.3,3.4,7.1,7.7,11.3,13.2c7.4,9.8,18.7,18.4,32.4,23.6h0
	c9,22.8,24.7,35.5,34.1,48.3c11.9,16,6.2,21.4,14.9,41.5c8.6,20.1,42.5,39.6,60.9,41.7c2-0.2,4.1-0.9,6.3-2c17-8.1,38-37.2,38-37.2
	s0.8-31.7,14.5-52.5c0.3,18.5,2.4,42.2,8.3,53.7C624.8,516.1,625.4,517.3,626.1,518.6z"/>
<path class="st0" d="M625.4,621.6c7.1-0.9,12.9-2.5,17.4-4.3c-0.1,0.3-0.2,0.7-0.3,1c-9.6,30.5-13.8,40.7-18.8,47.8v0
	c-1.2,1.7-2.4,3.2-3.7,4.8c-7,8.3-17.6,19.6-27.7,27.3c-6.5,5-15.3-1.9-20.8-7.5c4.7-6.8,3.8-18.1,3.2-38.8
	c-0.5-17.5-15.3-48.6-20-58.1c0.6-0.1,1.2-0.3,1.8-0.4C592.3,584.5,600,547,600,547s14-25.9,26-28.5c3,6.1,6.7,14.5,10.2,24.2v0
	l-6.2,38.3l12.1-18.3c2.9,12,4.5,24.9,3.7,37.4C640.3,610.2,632.5,620.1,625.4,621.6z"/>
<path class="st0" d="M668.7,826.5c0.1,0.5,0.1,0.7,0.1,0.7s-4.3,3.3-17.7,8.3c-0.9,0.3-1.7,0.6-2.6,0.9c-13,3.7-29.3,0.2-39.6-2.6
	c-7.4-2-21.1-11.8-29.3-18c2.3-12.6,4.9-28.1,4.4-35.8c-0.9-13.1-17.2-26.8-24.4-38.3c-7.1-11.6,7.1-44,11.9-50.8c0,0,0-0.1,0-0.1
	c5.5,5.6,14.3,12.5,20.8,7.5c10.1-7.7,20.7-19,27.7-27.3c1.3-1.6,2.5-3.1,3.7-4.8c2.9,5,5.9,11.3,7.5,17.9
	c1.5,6.1,0.2,11.3-1.8,15.3c4.6,6.7,9.9,16.8,10.1,28.1c0.3,20.2-29.4,53.2-16,71.6c11.1,15.3,37.4,19.7,46,20.8
	C668.2,821.8,668.5,825.1,668.7,826.5z"/>
<path class="st0" d="M697.5,868.9c0,0-22.9,0.9-38.6,0c-15.8-0.9-28.5-10.7-36.8-14.3c-8.3-3.6-45.5-15.2-45.5-20.2
	c0-2.1,1.4-9.6,3.1-18.6c8.2,6.2,21.9,16,29.3,18c10.3,2.8,26.6,6.3,39.6,2.6c7.5,5.5,22-1.4,26.7,0.6c3.1,1.3,11.4,14.2,17,23.1
	C695.3,865.1,697.5,868.9,697.5,868.9z"/>
<path class="st0" d="M711.6,843.7l-4.8,3.3l-19.8-22.4l-18.4,2c-0.2-1.4-0.5-4.8,0.8-6.7c0.6-0.9,1.6-1.5,3-1.5
	c5.6,0,14.5-6.2,18.9-2.4C695.7,819.8,711.6,843.7,711.6,843.7z"/>
<path class="st0" d="M713.1,859.8l-20.9,0.4c-5.6-8.9-13.9-21.8-17-23.1c-4.7-2-19.2,4.8-26.7-0.6c0.9-0.2,1.8-0.5,2.6-0.9
	c13.4-5,17.7-8.3,17.7-8.3s-0.1-0.3-0.1-0.7l18.4-2l19.8,22.4L713.1,859.8z"/>
<path class="st0" d="M651.3,419.8c-2.2,7.1-7,16.5-17.4,24.8c-1.7,1.4-3.6,2.8-5.7,4.1c-5,3.2-9,7.5-12.3,12.6
	c-13.7,20.8-14.5,52.5-14.5,52.5s-21,29.2-38,37.2c0.5-25.9,1.5-78.8-0.3-85.1c17.9-15.5,20.8-53.8,21.3-67.5
	c17.2,2.7,29.3,11.1,36.2,17.1C629.3,422.9,639.8,423.7,651.3,419.8z"/>
<path class="st0" d="M563.2,465.9c1.8,6.2,0.9,59.2,0.3,85.1c-2.2,1-4.3,1.7-6.3,2c-18.4-2.1-52.3-21.5-60.9-41.7
	c-8.6-20.1-3-25.5-14.9-41.5c-9.4-12.8-25.1-25.5-34.1-48.3c21.2,8,48.4,7.7,77.2-9c24-14,44.1-16.5,59.9-14
	C584,412.2,581.1,450.5,563.2,465.9z"/>
<path class="st0" d="M645.9,600.2c-0.4,5.8-1.3,11.6-3,17.1v0c-4.5,1.8-10.2,3.4-17.4,4.3C632.5,620.1,640.3,610.2,645.9,600.2z"/>
<path class="st0" d="M642.2,562.8l-12.1,18.3l6.2-38.3C638.4,549,640.5,555.8,642.2,562.8z"/>
<path class="st0" d="M701.4,314.7c-6.7-16.2-16.9-25.5-25.7-25.2c-3.5,0.1-6.8,1.7-9.5,5c-9.8,11.6-58.8,18.3-58.8,18.3l-11.1,12
	c-20.1-0.9-15.2-14.3-40.6-13.8c-25.4,0.5-101.5-25.7-107.4-29.9c-0.9-0.6-1.9-1-3-1.2c-6.4-1-16.8,5.5-34.4,26.5
	c-11.5,13.6-16.4,31.5-18.6,45.2c-1.7,11.1-1.6,19.5-1.6,20.4c0,1.5,5.1,4.4,13,12.6c3.3,3.4,7.1,7.7,11.3,13.2
	c7.4,9.8,18.7,18.4,32.4,23.6h0c21.2,8,48.4,7.7,77.2-9c24-14,44.1-16.5,59.9-14c17.2,2.7,29.3,11.1,36.2,17.1
	c8.6,7.4,19.1,8.2,30.6,4.3c12.1-4.1,25.2-13.3,38.2-25.2c13.6-12.5,18.7-28,19.1-43.2C709,338.2,705.7,325.2,701.4,314.7z
	 M592.6,387.1c-15.1,0-27.3-12.2-27.3-27.3s12.2-27.3,27.3-27.3s27.3,12.2,27.3,27.3S607.7,387.1,592.6,387.1z"/>
<path class="st0" d="M715.7,444.6c-7.9,25.7-22.3,42.2-35.7,61.1c-11.1-7.2-20.4-17.3-27.7-27.8c-8.7-12.3-14.7-24.9-18.3-33.4
	c10.4-8.3,15.2-17.8,17.4-24.8c12.1-4.1,25.2-13.3,38.2-25.2c13.6-12.5,18.7-28,19.1-43.2c5,4.6,10.2,13.5,12.3,31
	c0.2,2.1,0.3,4.2,0.4,6.2C722.6,411.8,720.3,429.7,715.7,444.6z"/>
<path class="st0" d="M745.1,346.6c-2.1,21.4-12.7,34.2-23.7,41.9c-0.1-2-0.2-4.1-0.4-6.2c-2.1-17.5-7.3-26.4-12.3-31
	c0.3-13.2-2.9-26.1-7.3-36.6c-6.7-16.2-16.9-25.5-25.7-25.2c4.2-6.5,12.2-17.1,21.2-21.6c3.6-1.8,7.3-2.6,11.1-1.8
	c1.2,0.2,2.4,0.6,3.6,1.2c3.7,1.8,7.4,4.1,10.9,7.1c1.3,1.1,2.5,2.2,3.7,3.4c1,15.7,1.2,53.5-7.9,68.8c12.3-2.9,21.1-15.9,26.6-27.1
	C745.9,327.6,746,336.6,745.1,346.6z"/>
<path class="st0" d="M744.9,319.5c-5.5,11.2-14.2,24.2-26.6,27.1c9.1-15.3,8.9-53.1,7.9-68.8C735.3,286.9,742.5,300.4,744.9,319.5z"
	/>
<path class="st0" d="M696.9,267.9c-9,4.5-17,15.1-21.2,21.6c-3.5,0.1-6.8,1.7-9.5,5c-9.8,11.6-58.8,18.3-58.8,18.3l-11.1,12
	c-20.1-0.9-15.2-14.3-40.6-13.8c-25.4,0.5-101.5-25.7-107.4-29.9c-0.9-0.6-1.9-1-3-1.2c0,0-8-12.4-21.6-21.3
	c-13.7-8.9-51.7-3-51.7-3s-3.9-0.7-10.3-0.6c7.6-8.8,33.7-29.5,58.2-40.8c7.1,17.7,30.3,58.7,96.6,73.2c-21.4-8.4-38.7-66.5-46-94.9
	c7-3.7,13.7-7.7,21.5-12.9c0.1-0.1,0.3-0.2,0.5-0.3c0.3,12.9,2.9,32.1,14.7,42.2c-5.9-24.3-3.8-43.9-1-56.1c0,0,0,0,0,0
	c5-5.8,10.8-12.6,17.2-19.4l7.9,9.9l-8.2,19.4c0,0,7.5-2.2,16.9-0.4h0.1c3.2,0.6,6.5,1.6,9.8,3.3c-4,9.3-11.2,29.9-7.4,50.4
	c5.1,27.6,48.6,73.3,48.6,73.3s16.3-27,13.4-43.2c5.5-6.4,19.1-23.9,19.8-40c2.6-0.2,5.2-0.4,7.9-0.8c0.1,3,0.3,5.4,0.4,6.7
	c0.1,1.8,3.4,4.7,8.2,8.1c2,8.8,5.8,34.1-10.4,60.1c26-16.3,31.6-29.2,32.2-45.9c7.3,4.7,13.7,9,15.9,11.7
	C681.5,262.6,689.8,265.8,696.9,267.9z"/>
<path class="st0" d="M516.4,287.4c-66.3-14.5-89.5-55.5-96.6-73.2c2.5-1.1,4.9-2.2,7.3-3.1c19.3-7.4,31.7-12.4,43.3-18.5
	C477.7,220.9,495,279,516.4,287.4z"/>
<path class="st0" d="M507,221.4c-11.8-10.1-14.4-29.3-14.7-42.2c3.8-2.7,8.4-7.7,13.7-13.8C503.2,177.6,501.1,197.2,507,221.4z"/>
<path class="st0" d="M647,168.8c0,4.9-5.3,8-11.1,14.2c-1.4,1.5-2.3,4.2-3,7.6c-0.5-0.1-1.1-0.1-1.6-0.1l-1-17.5l-1.3,0.8l2.9-5.3
	l-15.2,6l-29-8.5l2.1,5.2l-2.7-2.1c0,0-7.8,1.8-14,12.4c-7.1-4.5-14.8-6.4-21.8-6.9c-4.1-0.3-8-0.2-11.4,0.2h-0.1
	c-9.4-1.7-16.9,0.4-16.9,0.4l8.2-19.4l-7.9-9.9c2.2-2.3,4.4-4.7,6.8-6.9c0.9,0.9,1.8,1.6,2.4,2c2.6,1.5,8,2.2,14.5,3.2
	c2.7,5,8.8,14.4,17.4,16c11.8,2.2,20.8-1.3,20.8-1.3c0.3,0.4,0.7,0.8,1,1.3c-2-4.9-4.2-8.7-6.3-11.7c-4-5.6-10-9.3-16.8-10.6
	c-5.8-1.1-14.5-3.4-22.4-8.3c3-2.5,6.2-4.9,9.5-7c10.9,1.5,30.4,5.5,37,15.1c-0.4-7.3-10-17.8-17-24.6c2.1-0.6,4.2-1.1,6.3-1.4
	c8.3,7.3,32.5,28.8,37.3,36.5c1.7-7.6-0.7-22.9-2.3-31.3c3,1.4,5.8,3,8.4,4.7c1.3,7,2.8,17.4,1.3,21.3c4.4-3.6,7.1-9,8.5-12.9
	c3.1,3.3,5.7,6.9,7.8,10.4c-0.9,0.6-1.8,1-2.8,1.4c-12.5,5.6-10.5,18.5-10.5,18.5c0.2-0.5,0.5-1.1,0.8-1.6c2.2,0.6,8.6,2.3,11.5,1.6
	c1.9-0.5,4.7-4,6.8-7.9C646.2,160.4,647,167.1,647,168.8z"/>
<path class="st0" d="M632.9,190.7c-0.1,0.7-0.2,1.4-0.4,2.1c-0.2,0-0.3,0-0.5,0c-5.4-0.1-14.2-0.1-27.6,0.2
	c-19.8,0.5-28.4,6.3-32.6,9.9c-0.3-0.4-0.7-0.7-1-1.1c3.5-3.7,17.6-14.6,60.4-11.3C631.8,190.6,632.4,190.7,632.9,190.7z"/>
<path class="st0" d="M629.4,129.8c-1.5,3.9-4.1,9.3-8.5,12.9c1.6-3.9,0-14.3-1.3-21.3C623.4,124,626.6,126.8,629.4,129.8z"/>
<path class="st0" d="M613.6,148.1c-4.8-7.7-28.9-29.2-37.3-36.5c5.1-0.9,10.4-1,15.9-0.2c7.2,1,13.6,2.9,19.1,5.4
	C612.8,125.2,615.3,140.4,613.6,148.1z"/>
<path class="st0" d="M587,137.6c-6.6-9.6-26.2-13.6-37-15.1c6.3-4.1,13-7.5,20-9.5C577.1,119.8,586.6,130.3,587,137.6z"/>
<path class="st0" d="M662.3,246.8c-0.6,16.7-6.2,29.6-32.2,45.9c16.2-26,12.5-51.3,10.4-60.1C646.5,237,654.9,242.1,662.3,246.8z"/>
<polygon class="st0" points="631.8,168.6 629,173.9 616,182.2 596.2,170.6 597.1,176.8 589.8,171.3 587.7,166.1 616.7,174.6 "/>
<path class="st0" d="M573.1,181.6c-2.3,3.9-4.3,9-5.6,15.6c-0.1-0.1-0.1-0.2-0.2-0.3c-4.7-9.8-11.1-15.5-17.5-18.8
	c-3.3-1.7-6.7-2.7-9.8-3.3c3.4-0.4,7.3-0.5,11.4-0.2C558.3,175.2,565.9,177.1,573.1,181.6z"/>
<path class="st0" d="M604.2,258.6c2.9,16.3-13.4,43.2-13.4,43.2s-43.5-45.7-48.6-73.3c-3.8-20.5,3.4-41.1,7.4-50.4
	c6.4,3.2,12.8,8.9,17.5,18.8c0.1,0.1,0.1,0.2,0.2,0.3c1,1.7,2.2,3.2,3.5,4.7c0.3,0.4,0.7,0.7,1,1.1c10.9,11.7,29.7,17.2,52.2,15.6
	C623.3,234.7,609.7,252.2,604.2,258.6z"/>
<path class="st0" d="M631.3,190.6c-42.8-3.3-56.9,7.6-60.4,11.3c-1.3-1.5-2.4-3.1-3.5-4.7c1.3-6.6,3.4-11.7,5.6-15.6
	c6.2-10.6,14-12.4,14-12.4l2.7,2.1l7.3,5.5l-0.9-6.2l19.8,11.6l13-8.3l1.3-0.8L631.3,190.6z"/>
<path class="st0" d="M646.3,215c-4.9,1.2-9.7,2.2-14.4,2.8c-2.7,0.4-5.3,0.7-7.9,0.8c-22.5,1.6-41.2-3.9-52.2-15.6
	c4.2-3.6,12.8-9.4,32.6-9.9c13.4-0.3,22.2-0.3,27.6-0.2c0.1,0.1,0.3,0.2,0.5,0.3C636.1,195.7,647.5,204.5,646.3,215z"/>
<path class="st0" d="M585.2,158.9c0,0-9,3.5-20.8,1.3c-8.5-1.6-14.7-11-17.4-16C559.7,146.1,576.6,148.7,585.2,158.9z"/>
<path class="st0" d="M586.2,160.1c-0.3-0.4-0.7-0.9-1-1.3c-8.6-10.2-25.5-12.8-38.2-14.7c-6.5-1-11.8-1.7-14.5-3.2
	c-0.7-0.4-1.5-1-2.4-2c-10-9.8-33.5-48-34.3-49.3c0.9,0.9,25.4,24.5,39.6,36.1c1.7,1.4,3.4,2.6,5.2,3.7c8,4.9,16.6,7.2,22.4,8.3
	c6.8,1.3,12.8,5,16.8,10.6C582,151.4,584.2,155.3,586.2,160.1z"/>
<path class="st0" d="M652.6,144.8c-1.4,1.3-4.2,2.4-7.7,3.6c-1,0.3-1.9,0.7-3,1c-6.7,2.3-14.3,4.9-17.1,9.2c-0.3,0.5-0.6,1-0.8,1.6
	c0,0-2-12.9,10.5-18.5c0.9-0.4,1.8-0.9,2.8-1.4c11.7-6.9,23.6-23.8,24.9-27.7C663.5,108.2,657.2,140.5,652.6,144.8z"/>
<path class="st0" d="M643.1,152.2c-2.1,3.9-4.9,7.5-6.8,7.9c-2.9,0.7-9.3-0.9-11.5-1.6c2.8-4.3,10.5-6.9,17.1-9.2
	C642.4,150.3,642.7,151.3,643.1,152.2z"/>
<path class="st0" d="M745.7,621.6c0.2,7.6,3.1,19.4,4.4,32.4c-2.1-6.5-3.7-10.6-3.7-10.6l-4,27.2c0,0-0.5,1.1-1.4,3
	c-23.2-0.8-33.7-23.2-43.5-37.8c-9.8-14.8-29-13.1-32.9-12.6c0,0,0,0,0,0c-0.5,0-0.7,0.1-0.7,0.1s11.6-16.9,12-32.4
	c0.4-15.5-11.5-16.2-25.8-40.9c-10.2-17.7-2.8-53.3,2.2-72.1c7.3,10.4,16.6,20.6,27.7,27.8c13.4-18.9,27.8-35.4,35.7-61.1
	c14.2,12.9,27.5,35.9,35.8,51.6c-2.5,15.8-8.8,39.3-12.4,43.4c-5.3,5.9-10.3,10.5-10.3,10.5s17.1,5.2,29.6-10.3
	C754.4,570.1,745.6,614,745.7,621.6z"/>
<path class="st0" d="M758.4,539.8c-12.5,15.6-29.6,10.3-29.6,10.3s5-4.5,10.3-10.5c3.6-4,10-27.6,12.4-43.4
	c3.7,6.9,6.4,12.5,7.8,15.1C761,514.5,760.2,525.7,758.4,539.8z"/>
<path class="st0" d="M760.3,722.8c-5.8,28.1-47.5,93.5-48.6,95.3c0.3-2,11.9-74.7,9.3-86.5c-0.1-0.5-0.2-0.8-0.4-1.1
	c1.9-14.7,16-46.8,20.5-56.8c0.9-1.9,1.4-3,1.4-3l4-27.2c0,0,1.6,4.1,3.7,10.6C755.5,670.5,764.4,702.4,760.3,722.8z"/>
<path class="st0" d="M741,673.7c-1,2.2-2.4,5.4-4.1,9.3c-0.2,0.5-0.5,1.1-0.7,1.7c-0.2,0.6-0.5,1.2-0.8,1.8
	c-0.4,0.9-0.8,1.8-1.2,2.8c-0.3,0.6-0.5,1.3-0.8,1.9c-0.3,0.7-0.5,1.3-0.8,2c0,0,0,0,0,0c-5.3,13-11,28.4-12.1,37.3
	c0,0.1,0.1,0.1,0.1,0.2c0.1,0.2,0.2,0.5,0.3,0.9l0,0c-7.5,6.3-18.6,15.2-25.3,18.4c-10.9,5.1-9.6-2.5-13.6-4.9s-24.1-10.5-24.1-10.5
	s0.6-1.9,1.5-4.4c1.6-4.4,4.3-10.8,6.3-11.9c3.1-1.8,21.8-0.9,24-3.5c2.2-2.6,4.5-14.3,7.7-24c0.9-2.6,0.7-6-0.1-9.7
	c-0.3-1.4-0.7-2.8-1.2-4.2c-0.2-0.5-0.3-1-0.5-1.4c-0.4-1-0.8-1.9-1.2-2.8c-0.4-0.9-0.9-1.9-1.4-2.8v0c-3.2-6-7.5-11.1-11.3-12.2
	c-8.2-2.5-13.4,7.3-14.9,10.9c-0.9,2.1,1.1,10.7,3.5,18.3c1.6,5,3.4,9.7,4.5,11.7c1,1.9-0.4,4.7-2.8,7.4c-0.1,0.1-0.2,0.3-0.4,0.4h0
	v0c-4.3,4.6-11.3,8.9-13.5,8.2c-1-0.3-3.3-2.8-6.1-6.3c-7.4-9.2-18.3-25.3-18.7-26.5c-0.4-1.6,8-16.4,11.6-21.8
	c3.6-5.4,1.1-24.3,1.2-25.4c0-0.7,10.8-7,18.5-11.5c0,0,0,0,0,0c0.2,0,0.4-0.1,0.6-0.1c0.2,0,0.3,0,0.5,0c0.1,0,0.2,0,0.3,0
	c0.2,0,0.4,0,0.6,0c0.2,0,0.4,0,0.7,0c3.4-0.2,8.8-0.1,14.4,1.6c0.3,0.1,0.6,0.2,1,0.3c1.6,0.5,3.1,1.2,4.7,2c0.9,0.5,1.8,1,2.7,1.6
	c0.9,0.6,1.8,1.3,2.6,2c1.7,1.5,3.3,3.2,4.7,5.3C707.3,650.5,717.8,672.9,741,673.7z"/>
<path class="st0" d="M697.4,681.2c-3.8,7.2-11.3,20.7-15.2,24.2c-2.4,2.1-6.1,2.1-9.7,1.3c-0.3-0.1-0.6-0.1-0.9-0.2h0
	c0.1-0.1,0.3-0.3,0.4-0.4c2.4-2.7,3.9-5.5,2.8-7.4c-1.1-2-2.9-6.7-4.5-11.7c3.3,1,7,1.4,10.7,0.4c7.6-2.2,11.2-10.7,12-17.4
	c0.5,0.9,1,1.8,1.4,2.8c0.4,0.9,0.8,1.9,1.2,2.8c0.2,0.5,0.4,1,0.5,1.4C696.7,678.4,697.1,679.8,697.4,681.2z"/>
<path class="st0" d="M619.9,359.8c0,15.1-12.2,27.3-27.3,27.3s-27.3-12.2-27.3-27.3s12.2-27.3,27.3-27.3S619.9,344.7,619.9,359.8z"
	/>
<circle class="st0" cx="634.4" cy="156.3" r="2.6"/>
<circle class="st0" cx="567.3" cy="155.8" r="3.6"/>
<path class="st0" d="M697.5,690.9c-3.3,9.7-5.5,21.4-7.7,24c-2.2,2.6-20.9,1.7-24,3.5c0.1-8.1,6.8-11.6,6.8-11.6
	c3.5,0.8,7.3,0.8,9.7-1.3c3.9-3.6,11.4-17.1,15.2-24.2c-0.3-1.4-0.7-2.8-1.2-4.2c0.5,1.4,0.9,2.9,1.2,4.2
	C698.3,684.9,698.4,688.3,697.5,690.9z"/>
</svg>
