<?xml version="1.0" encoding="utf-8"?>
<!-- Generator: Adobe Illustrator 25.2.0, SVG Export Plug-In . SVG Version: 6.00 Build 0)  -->
<svg version="1.1" baseProfile="tiny" id="Layer_1" xmlns="http://www.w3.org/2000/svg" xmlns:xlink="http://www.w3.org/1999/xlink"
	 x="0px" y="0px" viewBox="0 0 1000 1000" overflow="visible" xml:space="preserve">
<path fill="#FFFFFF" stroke="#000000" stroke-miterlimit="10" d="M520,71.15c-8.26,15.11-10.81,37.42-11.6,48.56
	c-0.29,4.24-0.33,6.86-0.33,6.86s-7.84,19.78-8.56,21.2c-0.02,0.03-0.03,0.06-0.05,0.09c-0.44-0.28-0.89-0.55-1.35-0.81
	c-0.01,0-0.01-0.01-0.02-0.01c-0.69-0.75-1.71-1.58-3.39-1.23c-1.78,12.3-18.35,32.62-18.35,32.62s-3.12-13.21-2.37-30.88
	c0.28-6.96,1.16-14.6,3.08-22.41c2.2-9,7.53-17.87,13.72-25.74C503.37,83.38,519.5,71.52,520,71.15z"/>
<path fill="#FFFFFF" stroke="#000000" stroke-miterlimit="10" d="M521.81,159.37c-1.56,1.85-3.34,3.7-5.37,5.51
	c-0.4,0.35-0.79,0.71-1.18,1.08c-2.78-6.03-7.57-13.03-15.8-18.1c0.02-0.03,0.03-0.06,0.05-0.09c0.72-1.42,8.56-21.2,8.56-21.2
	s0.04-2.62,0.33-6.86c3.4-7.5,9.7-21.38,12.86-28.08C526.11,109.9,524.22,141.4,521.81,159.37z"/>
<path fill="#FFFFFF" stroke="#000000" stroke-miterlimit="10" d="M517.34,187.52c11.1-11.38,13.79-14.81,14.43-15.73
	c-1.4,2.39-10.52,17.79-20.35,31.11c-2.1,2.86-4.24,5.61-6.35,8.12c-2.15,2.58-4.27,4.89-6.27,6.79
	c-13.9,13.19-18.36,18.36-18.36,18.36s-4.16-3.9-9.84-10.63c-0.89-1.05-1.82-2.18-2.78-3.37c-8.73-10.9-19.73-27.31-25.16-46.06
	c5.01,7.26,9.85,14.16,10.15,14.59c-0.25-1.09-9.78-41.63,3.93-64.13c0.98,9.57,0.83,17.8,1.98,24.67v0.01
	c0.49,2.87,1.19,5.49,2.31,7.87c-2.39,3.38-4.67,7.61-6.43,12.89c1.41,9.65,9.98,24.83,10.24,25.3l-6.13-4.62
	c0.16,0.56,5.59,18.48,21.2,37.78c0,0,18-21.75,20.32-35.29c-3.21,1.78-8.74,2.85-8.74,2.85s9.46-18.74,23.77-32.07
	c0.39-0.37,0.78-0.73,1.18-1.08c2.03-1.81,3.81-3.66,5.37-5.51c10.01-11.81,11.21-23.54,11.21-23.54S531.95,168.09,517.34,187.52z"
	/>
<path fill="#FFFFFF" stroke="#000000" stroke-miterlimit="10" d="M490.78,89.14V99.4c-6.19,7.87-11.52,16.74-13.72,25.74
	c-1.92,7.81-2.8,15.45-3.08,22.41c-2.32,1.15-7.89,4.45-12.95,11.57c-1.12-2.38-1.82-5-2.31-7.87v-0.01
	C461.38,140.73,468.41,114.56,490.78,89.14z"/>
<path fill="#FFFFFF" stroke="#000000" stroke-miterlimit="10" d="M411.65,531.71c1.43-18.53,15.82-75.56,14.92-80.55
	c-0.9-4.99-10.88-36.83-10.88-36.83s0.04-0.27,0.13-0.78c-6.32-1.19-13.38-1.19-13.38-1.19c-1.09-1.91-4.34-4.19-8.06-6.33
	c-0.12,0.76-0.19,1.17-0.19,1.17s-19.6,24.03-23.65,49.31c0,0,0,0,0,0.01c3.02,6.36,5.05,11.44,5.05,11.75c0,0,0.6,5.46-2.37,7.54
	c-1.07-1.38-2.1-2.8-3.07-4.25c0.28,3.05,0.73,6.37,1.33,9.88c1.57,1.09,2.57,1.8,2.57,1.8c3.08,5,2.55,11.4,2.37,11.4
	c-0.04,0-1.09-0.7-2.72-1.92c1.21,5.48,2.62,11.2,4.14,16.91c2.6,2.3,4.43,3.98,4.59,4.26c0,0,1.54,0.6,1.9,14.62
	c-0.47-0.27-0.95-0.6-1.45-0.97c0.7,2.34,1.39,4.64,2.07,6.88c3.07,1.57,5.43,2.83,5.43,3c0,0,0.84,4.04,0,11.4
	c-0.37-0.14-0.74-0.3-1.12-0.48c3.07,9.73,5.31,16.62,5.52,18.07c0.71,4.99,3.8,33.26,3.8,33.26s2.47,3.4,5.85,7.91
	c1.4-2.91,3.95-3.99,6.12-4.34c-0.62-6.3-3.35-25.13-3.35-25.13c-1.13-3.62-7.31-6.06-5.94-11.23c1.36-5.17,13.16-8.97,17.69-7.33
	C415.25,553.12,410.8,542.84,411.65,531.71z M391.81,485.85c-1.31,5.11-4.23,1.31-4.23,1.31s-7.41-19.84-4.44-40.16
	C392.76,463.52,392.02,485.02,391.81,485.85z"/>
<path fill="#FFFFFF" stroke="#000000" stroke-miterlimit="10" d="M410.44,615.46c-2.13-2.72-4.19-5.45-6.01-7.88
	c1.4-2.91,3.95-3.99,6.12-4.34c0.03,0.31,0.06,0.59,0.08,0.83C410.85,606.7,410.4,611.36,410.44,615.46z"/>
<path fill="#FFFFFF" stroke="#000000" stroke-miterlimit="10" d="M459.18,258.68c-0.13,1.87-0.3,3.87-0.51,5.9
	c-0.96,9.33-2.83,19.33-6.15,20.6c-4.04,1.54-22.65-5.87-22.81-12.82c-0.05-2.36,0.68-5.29,1.68-8.13c3.13-1.98,6.26-3.92,9.24-5.77
	c6.64-4.11,12.57-7.77,16.15-10.47C458.06,249.34,459.61,252.32,459.18,258.68z"/>
<path fill="#FFFFFF" stroke="#000000" stroke-miterlimit="10" d="M441.59,585.42c0,0-0.17,13.38-3.01,21.27
	c-3.69,1.58-7.88,3.2-9.58,3.2c-2.34,0-7.51-6.12-10.36-9.74c1.07-3.13,4.3-3.97,6.08-4.2c0.87,2.52,2.1,4.52,3.8,5.63
	C435.65,591.36,441.59,585.42,441.59,585.42z"/>
<path fill="#FFFFFF" stroke="#000000" stroke-miterlimit="10" d="M424.72,595.95c-1.78,0.23-5.01,1.07-6.08,4.2
	c-0.62-0.78-1.13-1.44-1.47-1.9c0-5.09,0.42-17.57,1.43-21.21c0.47-1.71,2.44-3.59,4.43-5.25
	C422.58,578.23,422.31,589.02,424.72,595.95z"/>
<path fill="#FFFFFF" stroke="#000000" stroke-miterlimit="10" d="M468.33,812.26c3.38,11.67,0.62,31.72,0.62,31.72
	s-4.19,1.16-12.3,1.34c0.1-0.5,0.18-0.99,0.24-1.49c1.75-12.81-7.1-24.71-7.1-24.71s-3.92-0.36-18.89,12.83
	c-10.6,9.34-14.67,22.51-16.15,29.41c-0.28,1.32-0.47,2.4-0.59,3.19c-0.75-0.99-1.66-1.75-2.67-2.34c-3.9-2.25-9.26-1.83-12.39-1.3
	c4.97-8.6,11.53-20.66,12.73-25.75c-32.58,5.09-35.92,22.14-40.32,31.29c-0.12-0.01-0.23-0.02-0.34-0.02
	c-2.11-6.18-10.54-7.58-14.58-7.93c2.47-5.99,4.82-12.13,4.89-14.16c-4.43,0.08-9.54,11.96-12.91,16.23
	c-0.03-0.01-0.05-0.03-0.07-0.04c-1.08-4.21-4.47-6.99-7.46-8.61l11.35-15.6c0,0,7.49-0.89,12.48-2.94c1.21-0.5,3-2.42,5.11-5.29
	c39.49-7.71,60.33-59.26,63.89-69.27c3.8-10.69,16.87-57.74,11.29-75.56c-4.26-13.58-10.99-18.06-17.1-24.66
	c3.21-6.07,6.31-12.74,8.87-19.73l15.53,29.83l16.83-23.82c3.55,32.26,8.49,68.41,8.42,72.42c-0.12,6.53-5.91,20.46-13.13,43.28
	C457.36,783.39,464.94,800.59,468.33,812.26z"/>
<path fill="#FFFFFF" stroke="#000000" stroke-miterlimit="10" d="M348.52,860.63c-0.46,0.59-0.9,1.03-1.29,1.26
	c-3.21,1.87-14.62,1.61-14.62,1.61l8.43-11.58c2.99,1.62,6.38,4.4,7.46,8.61C348.51,860.56,348.52,860.59,348.52,860.63z"/>
<path fill="#FFFFFF" stroke="#000000" stroke-miterlimit="10" d="M433.87,758.82c-3.56,10.01-24.4,61.56-63.89,69.27
	c6.6-8.91,16.44-26.95,22.78-40.16c8.38-17.46,15.57-98.91,15.57-98.91s10.32-12.61,19.73-30.42c6.11,6.6,12.84,11.08,17.1,24.66
	C450.74,701.08,437.67,748.13,433.87,758.82z"/>
<path fill="#FFFFFF" stroke="#000000" stroke-miterlimit="10" d="M664.82,885c-8.82-1.14-12.62,0.16-14.62,1.89
	c-1.68-6.21-5.71-20.34-8.47-24.46c-3.56-5.35-22.45-8.91-22.45-8.91s8.55,11.76,11.94,14.79c2.56,2.29,5.53,11.94,7.36,21.29
	c-5.58-2.38-11.37-0.29-15.26,1.91c-0.59,0.05-1.18,0.09-1.78,0.12c-0.4-3.92-1.14-9.03-2.44-11.74
	c-2.32-4.81-19.25-22.81-25.13-23.52c-5.09-0.62-5.24,13.33-4.61,23.33c-3.11-3.22-7.7-3.53-11.48-3.03
	c-1.18,0.15-2.28,0.38-3.23,0.62c0.21-0.84,0.42-1.7,0.64-2.58v-0.01c1.44-5.74,3.1-12,2.82-13.34c-0.54-2.5-5.88-14.08-8.56-18.72
	c-2.67-4.63-4.99-8.19-8.02-1.78c-2.94,6.24,2.02,22.55,2.96,24.62v0.01c0.02,0.06,0.05,0.1,0.07,0.14
	c0.72,1.25-5.34,1.07-8.02-2.67c-2.67-3.74-2.79-42.53-1.6-58.69c16.87-19.72-15.68-97.19-18.3-107.41
	c-1.5-5.88-0.49-29.1,0.64-47.78c6.91,5.65,19.43,15.86,22.83,20.69c4.46-15.04,12.02-25.89,17.03-31.17
	c6,11.14,11.31,16.98,16.91,24.96c-7.72,7.69-17.23,14.72-17.72,30.63c-0.72,22.81,19.24,94.09,20.19,109.78
	c0.63,10.47,16.95,19.57,31.61,27.15c7.11,10.18,17.72,18.35,20.2,20.08C651.24,853.23,659.97,871.91,664.82,885z"/>
<path fill="#FFFFFF" stroke="#000000" stroke-miterlimit="10" d="M628.13,831.12c-14.66-7.58-30.98-16.68-31.61-27.15
	c-0.95-15.69-20.91-86.97-20.19-109.78c0.49-15.91,10-22.94,17.72-30.63c4.5,6.39,9.19,14.15,14.59,27.12
	c17.11,41.11,10.64,110.08,13.13,126.12C622.54,821.71,624.99,826.61,628.13,831.12z"/>
<path fill="#FFFFFF" stroke="#000000" stroke-miterlimit="10" d="M667.39,892.72c-16.03,1.61-16.39-2.85-16.39-2.85
	s-0.26-1.01-0.71-2.66c-0.02-0.1-0.05-0.21-0.09-0.32c2-1.73,5.8-3.03,14.62-1.89C665.91,887.94,666.8,890.6,667.39,892.72z"/>
<path fill="#FFFFFF" stroke="#000000" stroke-miterlimit="10" d="M505.07,211.02c-0.58,6.19-2.16,17.74-6.21,26.75
	c-5.82,12.95-17.58,35.05-19.49,34.58c-1.86-0.47-9.97-28.56-8.77-46.81c5.68,6.73,9.84,10.63,9.84,10.63s4.46-5.17,18.36-18.36
	C500.8,215.91,502.92,213.6,505.07,211.02z"/>
<path fill="#FFFFFF" stroke="#000000" stroke-miterlimit="10" d="M520.6,224.2c-3.49,3.92-8.86,18.69-12.09,15.3
	c-3.51-3.68,4.44-21.61,6.89-26.88C516.99,216.36,518.75,220.34,520.6,224.2z"/>
<path fill="#FFFFFF" stroke="#000000" stroke-miterlimit="10" d="M559.65,260.73c-0.22,1.06-0.62,2.11-1.18,3.15
	c-1.62,3-4.55,5.87-8.24,8.48c-14.23,10.1-39.65,16.46-43.41,12.46c-3.81-4.06-2.14-15.88,1.82-26.83c0.18-0.48,0.35-0.96,0.54-1.43
	c1.74-4.56,3.86-8.89,6.13-12.37c4.18-6.43,7.79-9.08,10.36-10.14c0.41,0.73,0.82,1.44,1.23,2.12c2.09,3.48,6.84,7.21,13.01,10.99
	c5.73,3.51,12.68,7.05,19.86,10.45c0.01,0.08,0.02,0.15,0.02,0.23C559.91,258.81,559.85,259.78,559.65,260.73z"/>
<path fill="#FFFFFF" stroke="#000000" stroke-miterlimit="10" d="M576.37,599.09c0,0.01,0,0.01,0,0.02
	c-1.53,5.19-1.7,19.05-1.93,25.69v0.01c-0.07,1.87-0.14,3.17-0.25,3.53c-0.09,0.28-0.55,0.87-1.31,1.66
	c-4,4.17-16.08,14.14-23.2,16.69c-8.46,3.03-2.94-7.3-1.16-9.08c1.13-1.13,6.86-6.86,10.91-10.91c2.36-2.36,4.15-4.15,4.15-4.15
	s0.22-2.2,0.51-5.44c0.2-2.22,0.42-4.93,0.62-7.75v-0.01c0.22-3.07,0.41-6.27,0.5-9.13C568.15,597.59,576.92,590.4,576.37,599.09z"
	/>
<path fill="#FFFFFF" stroke="#000000" stroke-miterlimit="10" d="M583.07,596.63c-0.11,2.24-0.54,10.9-0.94,17.17
	c-0.21,3.29-0.41,5.92-0.55,6.61c-0.3,1.51-4.5,3.37-7.14,4.39c0.23-6.64,0.4-20.5,1.93-25.69v0.03
	C579.64,594.74,582.73,594.47,583.07,596.63z"/>
<path fill="#FFFFFF" stroke="#000000" stroke-miterlimit="10" d="M626.78,467.9c-3.25,4.34-4.95,6.31-4.95,6.31
	s-7.13,12.83-8.2,7.37c-1.07-5.47-3.68-18.97,4.16-15.57c0,0,2.01-5.01,5.95-11c-5.97-18.95-18.73-45.43-24.07-56.19
	c-1.78,13.9-5.04,34.09-14.08,47.82c0.31-2.16-1.73-11.5-4.93-24.15c-3.44,9.83-10.99,33.48-10.22,45.27
	c0.98,15.06,3.39,61.4-2.31,70.76c-1.52,2.49-3.55,4.77-5.73,6.8c2.58-0.21,5.48,0.43,7.51,3.15c4.16,5.58-0.83,12-5.58,15.32
	c-4.76,3.33-7.61,7.25-7.61,7.25c4.81,5.7,7.22,15.15,8.29,21.03c0.29,1.61,0.32,4.62,0.2,8.15c2.94-2.63,11.71-9.82,11.16-1.13
	c0,0.01,0,0.01,0,0.02v0.03c3.27-4.4,6.36-4.67,6.7-2.51c0.04,0.2,0.05,0.43,0.03,0.67c1.38-2.23,5.62-4.23,8.04-3.56
	c0.29-1.17,0.52-2.35,0.69-3.54c1.87-12.83-1.25-23.97,1.6-31.9c1.47-4.08,3.11-8.8,4.34-12.42c1.17-3.41,1.99-5.85,1.99-5.85
	s1.28-2.41,3.28-6.36v-0.01c5.22-10.28,15.32-31.04,20.56-47.27c1.15-3.56,2.07-6.9,2.65-9.87c0.44-2.28,0.69-4.34,0.69-6.11
	C626.94,469.64,626.89,468.8,626.78,467.9z M599.97,473.56c0,0,7.48-17.53,16.28-27.87c0.23,16.76-10.58,31.61-10.58,31.61
	C596.17,481.34,599.97,473.56,599.97,473.56z M590.7,527.79c-4.16-1.18-0.59-7.96-0.59-7.96c3.85-8.05,15.59-17.23,16.03-17.57
	C605.96,502.84,599.83,521.36,590.7,527.79z"/>
<path fill="#FFFFFF" stroke="#000000" stroke-miterlimit="10" d="M564.33,563.79c-4.76,3.33-7.61,7.25-7.61,7.25
	c-0.87,1.01-1.53,2.88-2.03,5.34c-2.1,10.35-1.28,30.91-1,39.13c-5.26-4.46-10.16-24.42-9.89-26.74c0.27-2.31,4.28-31.36,4.99-32.97
	c0.08-0.18,0.31-0.41,0.66-0.71c1.98-1.63,7.86-5.03,12.95-9.77c2.58-0.21,5.48,0.43,7.51,3.15
	C574.07,554.05,569.08,560.47,564.33,563.79z"/>
<path fill="#FFFFFF" stroke="#000000" stroke-miterlimit="10" d="M591.14,593.74c-2.05,8.55-6.65,16.45-9.01,20.06
	c0.4-6.27,0.83-14.93,0.94-17.17c0.04,0.2,0.05,0.43,0.03,0.67C584.48,595.07,588.72,593.07,591.14,593.74z"/>
<path fill="#FFFFFF" stroke="#000000" stroke-miterlimit="10" d="M648.56,435.71c-9.94,15.85-17.32,26.23-21.78,32.18
	c0,0,0,0,0,0.01c-3.25,4.34-4.95,6.31-4.95,6.31s-7.13,12.83-8.2,7.37c-1.07-5.47-3.68-18.97,4.16-15.57c0,0,2.01-5.01,5.95-11
	C628.84,447.28,637.17,437.92,648.56,435.71z"/>
<path fill="#FFFFFF" stroke="#000000" stroke-miterlimit="10" d="M642.86,468.51c-6.82,10.62-14.74,15.68-19.26,17.88
	c1.15-3.56,2.07-6.9,2.65-9.87C628.98,474.11,634.58,469.74,642.86,468.51z"/>
<path fill="#FFFFFF" stroke="#000000" stroke-miterlimit="10" d="M606.14,502.26c-0.18,0.58-6.31,19.1-15.44,25.53
	c-4.16-1.18-0.59-7.96-0.59-7.96C593.96,511.78,605.7,502.6,606.14,502.26z"/>
<path fill="#FFFFFF" stroke="#000000" stroke-miterlimit="10" d="M616.25,527.79c-2.18,8.7-11.96,14.86-18.48,18.09
	c1.17-3.41,1.99-5.85,1.99-5.85s1.28-2.41,3.28-6.36v-0.01C606.4,531.15,611.05,528.49,616.25,527.79z"/>
<path fill="#FFFFFF" stroke="#000000" stroke-miterlimit="10" d="M616.25,445.69c0.23,16.76-10.58,31.61-10.58,31.61
	c-9.5,4.04-5.7-3.74-5.7-3.74S607.45,456.03,616.25,445.69z"/>
<path fill="#FFFFFF" stroke="#000000" stroke-miterlimit="10" d="M625.61,231.26c-9.93,6.42-35.94,23.72-46.3,35.23
	c-0.52,0.58-1,1.15-1.44,1.7c-9.75,12.22-13.03,30.2-13.74,34.86c-0.8-0.31-1.54-1.42-2.18-3.73c-0.09-0.31-1.59-21.65,9.58-36.29
	c1.48-1.94,3.19-3.77,5.15-5.41C593.25,243.75,624.93,231.51,625.61,231.26z"/>
<path fill="#FFFFFF" stroke="#000000" stroke-miterlimit="10" d="M625.61,231.26c-0.61,0.9-20.75,30.5-31.13,42.15
	c-1.67,1.88-3.09,3.3-4.13,4.05c-7.61,5.46-15.09,13.78-18.06,16.75c-2.28,2.28-5.53,9.86-8.16,8.84
	c0.71-4.66,3.99-22.64,13.74-34.86c0.44-0.55,0.92-1.12,1.44-1.7C589.67,254.98,615.68,237.68,625.61,231.26z"/>
<path fill="#FFFFFF" stroke="#000000" stroke-miterlimit="10" d="M647.43,269.17c-4.77-0.52-18.52-1.64-30.47,1.16
	c-5.85,1.37-11.39,3.97-15.93,6.61c-3.04,1.77-5.63,3.55-7.58,4.99c-0.99,0.1-1.56,0.16-1.56,0.16s2.52-3.06,6.72-6.56
	c4.81-4.03,11.83-8.63,19.77-9.84C631.57,263.69,644.66,268.15,647.43,269.17z"/>
<path fill="#FFFFFF" stroke="#000000" stroke-miterlimit="10" d="M647.97,269.38c0,0-20.67,9.26-29.82,10.1
	c-3.87,0.36-9.16,0.88-13.98,1.36c-4.5,0.45-8.59,0.87-10.72,1.09c1.95-1.44,4.54-3.22,7.58-4.99c4.54-2.64,10.08-5.24,15.93-6.61
	c11.95-2.8,25.7-1.68,30.47-1.16c0.01,0,0.01,0,0.02,0C647.78,269.31,647.97,269.38,647.97,269.38z"/>
<path fill="#FFFFFF" stroke="#000000" stroke-miterlimit="10" d="M429.69,265.31c-2.25,1.44-4.48,2.9-6.63,4.36
	c-0.03-6.19,0.8-19.71,6.65-40.99C429.75,231.45,429.69,255.66,429.69,265.31z"/>
<path fill="#FFFFFF" stroke="#000000" stroke-miterlimit="10" d="M604.17,280.84c-4.5,0.45-8.59,0.87-10.72,1.09
	c-0.99,0.1-1.56,0.16-1.56,0.16s2.52-3.06,6.72-6.56c-1.2-0.66-2.59-1.36-4.13-2.12c-1.67,1.88-3.09,3.3-4.13,4.05
	c-7.61,5.46-15.09,13.78-18.06,16.75c-2.28,2.28-5.53,9.86-8.16,8.84c-0.8-0.31-1.54-1.42-2.18-3.73
	c-0.09-0.31-1.59-21.65,9.58-36.29c-3.87-1.74-7.83-3.55-11.72-5.4c-0.01-0.01-0.03-0.01-0.04-0.02c0.01,0.08,0.02,0.15,0.02,0.23
	c0.12,0.97,0.06,1.94-0.14,2.89c-0.22,1.06-0.62,2.11-1.18,3.15c-1.62,3-4.55,5.87-8.24,8.48c0,0-7.28,22.78,3.29,52.61
	c0.76,2.58,2.34,8.02,4.43,15.25c6.13,21.25,16.56,57.89,22.71,82.26v0.01c3.2,12.65,5.24,21.99,4.93,24.15
	c9.04-13.73,12.3-33.92,14.08-47.82c0-0.01,0-0.01,0-0.01c0.55-4.38,0.97-8.13,1.37-10.86
	C602.58,377.35,609.68,297.66,604.17,280.84z"/>
<path fill="#FFFFFF" stroke="#000000" stroke-miterlimit="10" d="M426.29,331.6c-4.93-18.38-3.97-25.19-3.23-32.94
	c1.01-10.51,6.65-29.43,6.65-29.43c-0.01-0.22-0.02-1.68-0.02-3.92c-2.25,1.44-4.48,2.9-6.63,4.36c-1.94,1.3-4.9,3.44-6.1,4.31
	l-0.14,0.1l-0.22,0.16l-0.11,0.08l-0.07,0.05c-0.54,0.4-1.06,0.79-1.57,1.19c0.39,0.49,0.61,0.77,0.63,0.8
	c3.38,6.55,1.52,13.2-0.73,17.63c-1.65,3.28-3.52,5.35-3.63,5.27c-0.23-0.15-3.12-0.24-8.39-8.94c-2.25,7.59-2.13,18.63-1.69,30.16
	c5.71,8.06,11.24,15.94,11.24,15.94s0.41,3.18-1.23,5.8c-0.51,0.84-1.24,1.62-2.25,2.22c-2.69-1.87-5.04-3.84-7.1-5.87
	c0.07,3.59,0.06,7.06-0.1,10.33c-0.04,0.96-0.1,1.89-0.17,2.81c-0.27,3.45-0.64,7.24-1.07,11.17c-1.95,17.68-5.17,38.1-5.98,43.15
	c3.72,2.14,6.97,4.42,8.06,6.33c0,0,7.06,0,13.38,1.19c0.98-5.73,7.45-41.55,18.27-57.3C430.55,346.18,428.05,338.15,426.29,331.6z"
	/>
<path fill="#FFFFFF" stroke="#000000" stroke-miterlimit="10" d="M429.71,228.42c0,0,0,0.09,0,0.25v0.01
	c-5.85,21.28-6.68,34.8-6.65,40.99c-1.94,1.3-4.9,3.44-6.1,4.31l-0.14,0.1c-0.08,0.06-0.16,0.11-0.22,0.16
	c-0.04,0.03-0.08,0.06-0.11,0.08l-0.07,0.05C409.17,254.14,429.65,228.42,429.71,228.42z"/>
<path fill="#FFFFFF" stroke="#000000" stroke-miterlimit="10" d="M550.23,272.36c-14.23,10.1-39.65,16.46-43.41,12.46
	c-1.5-1.59-2.15-4.38-2.15-7.84c0-0.33,0.01-0.67,0.02-1.02c0.01-0.27,0.02-0.54,0.04-0.81c0.01-0.18,0.02-0.36,0.03-0.55
	c0.02-0.26,0.04-0.52,0.07-0.79c0.09-0.91,0.21-1.85,0.36-2.82c0.04-0.27,0.09-0.55,0.14-0.82c0.12-0.7,0.26-1.4,0.41-2.12
	c0.07-0.36,0.15-0.72,0.23-1.08c0.09-0.36,0.17-0.72,0.26-1.08c0.09-0.36,0.18-0.73,0.28-1.09c0.19-0.74,0.4-1.48,0.62-2.22
	c0.11-0.37,0.22-0.73,0.34-1.1c0.36-1.17,0.76-2.34,1.17-3.49c0.18-0.48,0.35-0.96,0.54-1.43c0.19-0.51,0.39-1.02,0.6-1.53
	c0.48-1.18,0.98-2.34,1.51-3.47c0.25-0.54,0.5-1.07,0.76-1.59c1.03-2.09,2.13-4.04,3.26-5.78c4.18-6.43,7.79-9.08,10.36-10.14
	c-1.71-3.01-3.43-6.38-5.07-9.85c-3.49,3.92-8.86,18.69-12.09,15.3c-3.51-3.68,4.44-21.61,6.89-26.88
	c-1.51-3.55-2.86-6.89-3.98-9.72c-2.1,2.86-4.24,5.61-6.35,8.12c-0.58,6.19-2.16,17.74-6.21,26.75c-2.1,4.67-4.97,10.53-7.87,16.09
	c-1.26,2.42-2.53,4.77-3.74,6.95c-3.74,6.73-6.96,11.77-7.88,11.54c-0.69-0.17-2.23-4.14-3.85-9.99c-0.9-3.26-1.81-7.1-2.61-11.19
	c-1.66-8.41-2.82-17.9-2.31-25.63c-0.89-1.05-1.82-2.18-2.78-3.37c-0.76,4.85-3.21,17.89-8.29,23.45c-0.26,0.29-0.59,0.6-0.97,0.94
	c-0.5,0.43-1.1,0.91-1.78,1.43c1.28,1.35,2.83,4.33,2.4,10.69c-0.13,1.87-0.3,3.87-0.51,5.9c-0.96,9.33-2.83,19.33-6.15,20.6
	c-4.04,1.54-22.65-5.87-22.81-12.82c-0.05-2.36,0.68-5.29,1.68-8.13c-0.57,0.36-1.14,0.72-1.7,1.08c0,2.24,0.01,3.7,0.02,3.92
	c0,0-5.64,18.92-6.65,29.43c-0.74,7.75-1.7,14.56,3.23,32.94c0.59,0.34,1.33,0.83,2.19,1.43c8.27,5.84,27.43,23.34,31.65,41.08
	c4.92,20.69-0.18,68.02-15.27,81.14c-0.15,0.9-0.24,1.38-0.24,1.38s-0.49,1.67-1.26,4.41c5.54-3.56,12.57-9.59,17.48-19.15
	l34.93-10.45c0,0,4.75,4.28,10.86,9.73c-2.45-11.19-6.64-36.35-8.19-49.59c-1.96-16.76,5.71-36.72,22.99-49.37
	c13.22-9.67,26.55-15.18,32.09-17.24C542.95,295.14,550.23,272.36,550.23,272.36z M473.58,341.14c-11.51,0-20.85-9.87-20.85-22.05
	s9.34-22.06,20.85-22.06c11.52,0,20.85,9.88,20.85,22.06S485.1,341.14,473.58,341.14z"/>
<path fill="#FFFFFF" stroke="#000000" stroke-miterlimit="10" d="M444.86,455.25c1.21-7,6.57-39.19,6.89-61
	c-8.68-14.75-14.18-27.62-17.66-38c-3.54-10.07-6.04-18.1-7.8-24.65c0.59,0.34,1.33,0.83,2.19,1.43
	c8.27,5.84,27.43,23.34,31.65,41.08C465.05,394.8,459.95,442.13,444.86,455.25z"/>
<path fill="#FFFFFF" stroke="#000000" stroke-miterlimit="10" d="M414.75,293.99c-1.65,3.28-3.52,5.35-3.63,5.27
	c-0.23-0.15-3.12-0.24-8.39-8.94c-0.9-1.5-1.88-3.26-2.93-5.32c-7.04-13.81-11.04-33.43-8.9-53.21c0.89,7.5,2.97,21.51,7.12,34.94
	c2.07,6.69,5.06,12.34,8.11,16.88C409.26,288.25,412.45,291.74,414.75,293.99z"/>
<path fill="#FFFFFF" stroke="#000000" stroke-miterlimit="10" d="M414.75,293.99c-2.3-2.25-5.49-5.74-8.62-10.38
	c-3.05-4.54-6.04-10.19-8.11-16.88c-4.15-13.43-6.23-27.44-7.12-34.94c-0.01-0.01-0.01-0.02,0-0.03c0.02-0.25,0.05-0.51,0.08-0.76
	c0.72,15.5,20.1,39.87,23.87,44.56c0.39,0.49,0.61,0.77,0.63,0.8C418.86,282.91,417,289.56,414.75,293.99z"/>
<path fill="#FFFFFF" stroke="#000000" stroke-miterlimit="10" d="M411.05,342.22c-0.51,0.84-1.24,1.62-2.25,2.22
	c-2.69-1.87-5.04-3.84-7.1-5.87c-16.58-16.31-14.07-36.16-13.04-35.21c2.85,11.83,7.99,21.17,12.82,27.89c0,0.01,0,0.01,0,0.01
	C405.29,336.56,408.9,340.23,411.05,342.22z"/>
<path fill="#FFFFFF" stroke="#000000" stroke-miterlimit="10" d="M411.05,342.22c-2.15-1.99-5.76-5.66-9.57-10.96c0,0,0,0,0-0.01
	c-4.83-6.72-9.97-16.06-12.82-27.89c0.58,0.54,6.58,8.93,12.38,17.12c5.71,8.06,11.24,15.94,11.24,15.94S412.69,339.6,411.05,342.22
	z"/>
<path fill="#FFFFFF" stroke="#000000" stroke-miterlimit="10" d="M401.6,348.9c-0.04,0.96-0.1,1.89-0.17,2.81
	c-0.27,3.45-0.64,7.24-1.07,11.17c-6.14-9.24-12.15-31.94-8.67-26.55C394.09,340.04,398.52,345.34,401.6,348.9z"/>
<path fill="#FFFFFF" stroke="#000000" stroke-miterlimit="10" d="M373.22,475.81c-1.07-1.38-2.1-2.8-3.07-4.25
	c-7.74-11.45-12.36-24.65-12.2-36.68c4.43,5.44,9.14,14.37,12.59,21.63c0,0,0,0,0,0.01c3.02,6.36,5.05,11.44,5.05,11.75
	C375.59,468.27,376.19,473.73,373.22,475.81z"/>
<path fill="#FFFFFF" stroke="#000000" stroke-miterlimit="10" d="M376.42,494.64c-0.04,0-1.09-0.7-2.72-1.92v-0.01
	c-5.01-3.78-15.43-12.58-18.31-21.41c3.6,1.6,11.88,7.22,16.09,10.14c1.57,1.09,2.57,1.8,2.57,1.8
	C377.13,488.24,376.6,494.64,376.42,494.64z"/>
<path fill="#FFFFFF" stroke="#000000" stroke-miterlimit="10" d="M391.81,485.85c-1.31,5.11-4.23,1.31-4.23,1.31
	s-7.41-19.84-4.44-40.16C392.76,463.52,392.02,485.02,391.81,485.85z"/>
<path fill="#FFFFFF" stroke="#000000" stroke-miterlimit="10" d="M384.33,528.51c-0.47-0.27-0.95-0.6-1.45-0.97
	c-9.86-7.49-24.93-35.15-24.93-35.15s12.8,10.95,19.89,17.24c2.6,2.3,4.43,3.98,4.59,4.26
	C382.43,513.89,383.97,514.49,384.33,528.51z"/>
<path fill="#FFFFFF" stroke="#000000" stroke-miterlimit="10" d="M390.38,548.82c-0.37-0.14-0.74-0.3-1.12-0.48v-0.01
	c-8.78-4.28-17.82-20.24-18.11-20.76c0.38,0.18,8.25,4.02,13.8,6.85c3.07,1.57,5.43,2.83,5.43,3
	C390.38,537.42,391.22,541.46,390.38,548.82z"/>
<path fill="#FFFFFF" stroke="#000000" stroke-miterlimit="10" d="M423.03,571.78v0.01c-1.99,1.66-3.96,3.54-4.43,5.25
	c-1.01,3.64-1.43,16.12-1.43,21.21c0,0.31,0.01,0.58,0.01,0.83c0.01,0.4,0.01,0.94,0.01,1.59c0,1.59-0.02,3.83-0.12,6.29
	c-0.19,5.18-0.68,11.35-1.9,14.49c-0.55,1.45-1.26,2.25-2.15,2.05c-2.06-0.47-2.56-3.97-2.58-8.02v-0.02
	c-0.04-4.1,0.41-8.76,0.19-11.39c-0.02-0.24-0.05-0.52-0.08-0.83c-0.62-6.3-3.35-25.13-3.35-25.13c-1.13-3.62-7.31-6.06-5.94-11.23
	c1.36-5.17,13.16-8.97,17.69-7.33c3.88,1.4,8.21,6.62,8.8,7.75C428.08,567.93,425.54,569.68,423.03,571.78z"/>
<path fill="#FFFFFF" stroke="#000000" stroke-miterlimit="10" d="M564.09,617.11c-0.29,3.24-0.51,5.44-0.51,5.44
	s-1.79,1.79-4.15,4.15c-5.41,0.35-16.07-0.23-16.07-0.23s2.91-2.62,8.19-6.24C555.55,617.49,561.46,617.13,564.09,617.11z"/>
<path fill="#FFFFFF" stroke="#000000" stroke-miterlimit="10" d="M445.16,603.71v7.61l-2.13,1.48v0.01l-8.83,6.15h-0.01
	c-4.12-0.56-8.4-1.59-10.42-3.6c-1.73-1.73-4.4-5.24-6.7-8.4c0.1-2.46,0.12-4.7,0.12-6.29c0.53-0.35,1.04-0.57,1.45-0.52
	c2.85,3.62,8.02,9.74,10.36,9.74c1.7,0,5.89-1.62,9.58-3.2c1.95-0.83,3.76-1.66,4.98-2.22v-0.01
	C444.55,604,445.16,603.71,445.16,603.71z"/>
<path fill="#FFFFFF" stroke="#000000" stroke-miterlimit="10" d="M442.31,625.81c0,0-0.57,0.18-1.53,0.46
	c-4.11,1.2-15.26,4.31-17.96,3.35c-1.1-0.4-4.11-3.79-7.65-8.17c1.22-3.14,1.71-9.31,1.9-14.49c2.3,3.16,4.97,6.67,6.7,8.4
	c2.02,2.01,6.3,3.04,10.42,3.6h0.01c3.09,0.41,6.07,0.57,7.94,0.66c0.06,0,0.12,0.01,0.17,0.01
	C446.58,619.87,442.31,625.81,442.31,625.81z"/>
<path fill="#FFFFFF" stroke="#000000" stroke-miterlimit="10" d="M531.65,452.59c0.19,1.64,0.68,5.63,1.47,11.4V464
	c0,0.69-15.46-12.99-26.49-22.83c-2.45-11.19-6.64-36.35-8.19-49.59c-1.96-16.76,5.71-36.72,22.99-49.37
	c13.22-9.67,26.55-15.18,32.09-17.24c0.76,2.58,2.34,8.02,4.43,15.25c-7.91,13.45-21.05,36.46-25.59,48.44
	C525.71,406.25,530.58,443.44,531.65,452.59z"/>
<path fill="#FFFFFF" stroke="#000000" stroke-miterlimit="10" d="M577.14,638.6c-5.01,5.28-12.57,16.13-17.03,31.17
	c-3.4-4.83-15.92-15.04-22.83-20.69v-0.01c0.84-13.82,1.74-25.16,1.74-25.16s-6.42-17.11-17.59-51.32
	c-11.16-34.22-20.19-41.11-21.14-43.73c-0.75-2.05-3.12-30.45-4.09-42.46c-4.56,0.08-8.61-0.36-11.91-0.95
	c-10.91,31.39-17.4,93.1-18.46,112.09c-0.46,8.26,1.23,27.03,3.46,47.34l-16.83,23.82l-15.53-29.83c1.5-4.11,2.82-8.33,3.85-12.6
	c0.96-0.28,1.53-0.46,1.53-0.46s4.27-5.94,0-6.18c-0.05,0-0.11-0.01-0.17-0.01c0.1-0.59,0.19-1.18,0.28-1.77
	c0.24-1.62,0.44-3.3,0.61-5.04v-0.01l2.13-1.48v-7.61c0,0-0.61,0.29-1.6,0.75c1.43-37.19-8.32-91.33-9.27-99.54
	c-0.85-7.35,6.14-33.4,9.07-43.88c5.54-3.56,12.57-9.59,17.48-19.15l34.93-10.45c0,0,4.75,4.28,10.86,9.73
	c11.03,9.84,26.49,23.52,26.49,22.83c0.33,2.44,0.71,5.19,1.15,8.22c2.85,19.74,7.92,51.22,15.18,82.87
	c-0.35,0.3-0.58,0.53-0.66,0.71c-0.71,1.61-4.72,30.66-4.99,32.97c-0.27,2.32,4.63,22.28,9.89,26.74c-0.28-8.22-1.1-28.78,1-39.13
	c2.36,8.93,4.9,17.66,7.62,25.91c0.82,2.48,1.61,4.83,2.4,7.06v0.01c-0.2,2.82-0.42,5.53-0.62,7.75c-2.63,0.02-8.54,0.38-12.54,3.12
	c-5.28,3.62-8.19,6.24-8.19,6.24s10.66,0.58,16.07,0.23c-4.05,4.05-9.78,9.78-10.91,10.91c-1.78,1.78-7.3,12.11,1.16,9.08
	c7.12-2.55,19.2-12.52,23.2-16.69C574.35,633.21,575.76,636.05,577.14,638.6z"/>
<path fill="#FFFFFF" stroke="#000000" stroke-miterlimit="10" d="M456.89,843.83c-8.06,5.47-24.3,12.71-42.14,17.53
	c1.48-6.9,5.55-20.07,16.15-29.41c14.97-13.19,18.89-12.83,18.89-12.83S458.64,831.02,456.89,843.83z"/>
<path fill="#FFFFFF" stroke="#000000" stroke-miterlimit="10" d="M411.83,835.16c-1.2,5.09-7.76,17.15-12.73,25.75
	c-0.91,1.59-1.76,3.06-2.53,4.34c-2.55,0.38-5.1,0.69-7.61,0.92c-6.7,0.6-12.49,0.62-17.45,0.28
	C375.91,857.3,379.25,840.25,411.83,835.16z"/>
<path fill="#FFFFFF" stroke="#000000" stroke-miterlimit="10" d="M371.31,866.86c-0.15,0.32-0.31,0.62-0.47,0.91
	c-7.48,6.86-20.14,4.28-20.14,4.28s1.77-3.9,3.88-8.81c0.65-1.51,1.33-3.12,2.01-4.74c4.04,0.35,12.47,1.75,14.58,7.93
	C371.23,866.57,371.27,866.71,371.31,866.86z"/>
<path fill="#FFFFFF" stroke="#000000" stroke-miterlimit="10" d="M361.48,844.34c-0.07,2.03-2.42,8.17-4.89,14.16
	c-0.68,1.62-1.36,3.23-2.01,4.74c-2.65-0.92-4.63-1.88-6.01-2.67C351.94,856.3,357.05,844.42,361.48,844.34z"/>
<path fill="#FFFFFF" stroke="#000000" stroke-miterlimit="10" d="M650.2,886.89c-0.17,0.15-0.33,0.3-0.48,0.46
	c-2.76,0.7-6.51,1.53-11.03,2.3c-0.04-0.02-0.08-0.04-0.11-0.05c-1.83-9.35-4.8-19-7.36-21.29c-3.39-3.03-11.94-14.79-11.94-14.79
	s18.89,3.56,22.45,8.91C644.49,866.55,648.52,880.68,650.2,886.89z"/>
<path fill="#FFFFFF" stroke="#000000" stroke-miterlimit="10" d="M621.54,891.63c-2.69,0.18-5.49,0.29-8.38,0.32
	c-7.57,0.08-15.82-3.13-23.5-7.5c0.03-0.15,0.04-0.3,0.03-0.46c-0.12-1.29-0.24-2.74-0.33-4.29c-0.63-10-0.48-23.95,4.61-23.33
	c5.88,0.71,22.81,18.71,25.13,23.52C620.4,882.6,621.14,887.71,621.54,891.63z"/>
<path fill="#FFFFFF" stroke="#000000" stroke-miterlimit="10" d="M589.69,883.99c0.01,0.16,0,0.31-0.03,0.46
	c-0.76,4.36-15.15,1.81-16.19,0.43c-0.41-0.54,0.25-3.72,1.18-7.59c0.95-0.24,2.05-0.47,3.23-0.62c3.78-0.5,8.37-0.19,11.48,3.03
	C589.45,881.25,589.57,882.7,589.69,883.99z"/>
<path fill="#FFFFFF" stroke="#000000" stroke-miterlimit="10" d="M575.29,874.7c-4.41-3.44-8.15-6.75-10.8-9.21v-0.01
	c-0.94-2.07-5.9-18.38-2.96-24.62c3.03-6.41,5.35-2.85,8.02,1.78c2.68,4.64,8.02,16.22,8.56,18.72
	C578.39,862.7,576.73,868.96,575.29,874.7z"/>
<path fill="#FFFFFF" stroke="#000000" stroke-miterlimit="10" d="M473.58,297.03c-11.51,0-20.85,9.88-20.85,22.06
	s9.34,22.05,20.85,22.05c11.52,0,20.85-9.87,20.85-22.05S485.1,297.03,473.58,297.03z M473.58,331.44
	c-6.82,0-12.35-5.53-12.35-12.35c0-6.83,5.53-12.36,12.35-12.36c6.83,0,12.36,5.53,12.36,12.36
	C485.94,325.91,480.41,331.44,473.58,331.44z"/>
<path fill="#FFFFFF" stroke="#000000" stroke-miterlimit="10" d="M485.94,319.09c0,6.82-5.53,12.35-12.36,12.35
	c-6.82,0-12.35-5.53-12.35-12.35c0-6.83,5.53-12.36,12.35-12.36C480.41,306.73,485.94,312.26,485.94,319.09z"/>
<path fill="#FFFFFF" stroke="#000000" stroke-miterlimit="10" d="M515.26,165.96c-2.78-6.03-7.57-13.03-15.8-18.1
	c-0.34,0.57-0.7-0.08-1.35-0.81c-0.01,0-0.01-0.01-0.02-0.01c-0.69-0.75-1.71-1.58-3.39-1.23c-1.78,12.3-18.35,32.62-18.35,32.62
	s-3.12-13.21-2.37-30.88c-2.32,1.15-7.89,4.45-12.95,11.57c-2.39,3.38-4.67,7.61-6.43,12.89c1.41,9.65,9.98,24.83,10.24,25.3
	l-6.13-4.62c0.16,0.56,5.59,18.48,21.2,37.78c0,0,18-21.75,20.32-35.29c-3.21,1.78-8.74,2.85-8.74,2.85S500.95,179.29,515.26,165.96
	z M459.89,164.7c6.18,6.9,10.6,16.67,10.6,16.67C459.22,178.63,458.7,172.66,459.89,164.7z M477.33,202.58
	c-3.48,0.08-8.83,1.15-8.83,1.15s4.19-4.81,9.81-5.16c5.61-0.36,9.65,3.56,10.04,3.74C488.73,202.49,480.8,202.49,477.33,202.58z
	 M495.89,180.15c-5.58,2.38-13.43,2.26-13.43,2.26s10.34-15.09,27.81-17.71C506.46,170.29,501.47,177.77,495.89,180.15z"/>
<path fill="#FFFFFF" stroke="#000000" stroke-miterlimit="10" d="M459.89,164.7c-1.19,7.96-0.67,13.93,10.6,16.67
	C470.49,181.37,466.07,171.6,459.89,164.7z M462.76,175.44c-1.12-1.69-0.72-5.3-0.72-5.3l5.25,8.28
	C467.09,178.35,463.84,177.08,462.76,175.44z"/>
<path fill="#FFFFFF" stroke="#000000" stroke-miterlimit="10" d="M467.29,178.42c-0.2-0.07-3.45-1.34-4.53-2.98
	c-1.12-1.69-0.72-5.3-0.72-5.3L467.29,178.42z"/>
<path fill="#FFFFFF" stroke="#000000" stroke-miterlimit="10" d="M482.46,182.41c0,0,7.85,0.12,13.43-2.26
	c5.58-2.38,10.57-9.86,14.38-15.45C492.8,167.32,482.46,182.41,482.46,182.41z M488.35,178.84c0,0,6.89-6.65,14.73-9.32
	C500.05,173.32,493.28,179.26,488.35,178.84z"/>
<path fill="#FFFFFF" stroke="#000000" stroke-miterlimit="10" d="M503.08,169.52c-3.03,3.8-9.8,9.74-14.73,9.32
	C488.35,178.84,495.24,172.19,503.08,169.52z"/>
<path fill="#FFFFFF" stroke="#000000" stroke-miterlimit="10" d="M488.35,202.31c0.38,0.18-7.55,0.18-11.02,0.27
	c-3.48,0.08-8.83,1.15-8.83,1.15s4.19-4.81,9.81-5.16C483.92,198.21,487.96,202.13,488.35,202.31z"/>
<path fill="#FFFFFF" stroke="#000000" stroke-miterlimit="10" d="M414.16,864.55c-0.14,0.92-0.19,1.44-0.19,1.44s-3.3,2.5-7.22,3.48
	c-3.92,0.98-13.72,1.24-13.37,0.98c0.1-0.07,1.36-2.11,3.19-5.2c0.77-1.28,1.62-2.75,2.53-4.34c3.13-0.53,8.49-0.95,12.39,1.3
	C412.5,862.8,413.41,863.56,414.16,864.55z"/>
<path fill="#FFFFFF" stroke="#000000" stroke-miterlimit="10" d="M639.95,898.25c-13.55,5.17-18-1.25-18-1.25s-0.08-1.88-0.32-4.46
	c0.51-0.33,1.08-0.68,1.69-1.03c3.89-2.2,9.68-4.29,15.26-1.91c0.01,0.02,0.01,0.04,0.02,0.07
	C639.18,892.64,639.65,895.58,639.95,898.25z"/>
<path fill="#FFFFFF" stroke="#000000" stroke-miterlimit="10" d="M593.72,345.83l-5.28-2.61c0,0,11.41-19.49,11.54-36.49
	C605.29,317.66,593.72,345.83,593.72,345.83z"/>
<path fill="#FFFFFF" stroke="#000000" stroke-miterlimit="10" d="M599.98,306.73c-0.13,17-11.54,36.49-11.54,36.49l-3.32-7.71
	c0,0,7.69-9.36,12.25-20.52C598.47,312.31,599.39,309.52,599.98,306.73z"/>
<path fill="#FFFFFF" stroke="#000000" stroke-miterlimit="10" d="M588.44,164.7c-6.4,14.51-26.56,69.83-28.63,92.93
	c-0.01-0.01-0.03-0.01-0.04-0.02c-7.18-3.4-14.13-6.94-19.86-10.45C544.87,229.75,560.11,184.24,588.44,164.7z"/>
<path fill="#FFFFFF" stroke="#000000" stroke-miterlimit="10" d="M458.56,246.56c-0.5,0.43-1.1,0.91-1.78,1.43
	c-3.58,2.7-9.51,6.36-16.15,10.47c-4.05-16.28-13.58-53.99-23.3-88.32C439.15,193.45,454.78,235.68,458.56,246.56z"/>
<path fill="#FFFFFF" stroke="#000000" stroke-miterlimit="10" d="M503.08,93.14c0,0-14.61,12.12-20.62,28.99s-4.03,38.73-4.03,38.73
	s6.14-28.99,9.92-38.73S503.08,93.14,503.08,93.14z"/>
</svg>
