<?xml version="1.0" encoding="utf-8"?>
<!-- Generator: Adobe Illustrator 25.2.0, SVG Export Plug-In . SVG Version: 6.00 Build 0)  -->
<svg version="1.1" baseProfile="tiny" id="Layer_1" xmlns="http://www.w3.org/2000/svg" xmlns:xlink="http://www.w3.org/1999/xlink"
	 x="0px" y="0px" viewBox="0 0 1000 1000" overflow="visible" xml:space="preserve">
<path fill="#FFFFFF" stroke="#000000" stroke-miterlimit="10" d="M611.8,262.5c-1.2,2.5-2.8,4.9-4.8,7.1c-3.6,4.2-8.4,8.1-13.9,11.6
	h0c-25,16-65.1,24.6-78.9,24c-15-0.6-50.4-21.1-72.9-42.2c-5.4-5-10-10-13.4-14.8c-17.8-25,13.5-76.3,38.5-121.9
	c23-42.1,34.9-61,53.3-71.5c0,6.9-1.4,17.1-5.9,31.9c-12.8,42.1-57.4,69.9-65.2,125.8c-7.8,56,54.5,84.1,67.4,84.1
	s54.2-4.1,72.7-32.8c18.5-28.7,7.5-104.1-0.4-141.2c-5.1-24,1.2-41.6,6.2-51c3.4,4.9,6.8,11.2,9.4,19.6
	C614.7,124.9,625.4,234.7,611.8,262.5z"/>
<path fill="#FFFFFF" stroke="#000000" stroke-miterlimit="10" d="M588.3,122.8c-5.1-24,1.2-41.6,6.2-51
	c-10.3-14.5-21.9-15.3-21.9-15.3s-26.9-14.1-48.1-4.1c-1.7,0.8-3.3,1.6-4.8,2.5c0,6.9-1.4,17.1-5.9,31.9
	c-12.8,42.1-57.4,69.9-65.2,125.8c-7.8,56,54.5,84.1,67.4,84.1s54.2-4.1,72.7-32.8C607.2,235.2,596.1,159.8,588.3,122.8z
	 M584.7,204.5c-0.1,3.7-0.2,7.3-0.5,10.9c-1.4,23-5,41.9-7.3,46.7c-1.2,2.6-3.2,5.2-5.8,7.8c-11.1,11-33.3,20.5-52.6,16.1
	c-3.5-0.8-7.2-2-11-3.6c-2.4-1-4.8-2.2-7.2-3.5c-2.4-1.4-4.8-2.9-7.2-4.6c-1-0.7-1.9-1.4-2.8-2.1c-1.4-1.1-2.8-2.3-4.1-3.5
	c-4-3.7-7.7-8-10.9-12.9c0,0,0,0,0,0c-8.2-12.7-12.7-29.5-9.1-50.6c1.1-6.5,2.7-13.1,4.8-19.7c0-1.3,0-2.4,0.1-3.4
	c0.3,0.2,0.6,0.3,0.9,0.5c4.4-12.9,10.4-25.5,17.5-36.7c8-12.5,17.2-23,27-30c10.5-7.4,21.4-10.6,31.7-7.3
	c11.6,3.7,19.8,12.7,25.5,24.5c4.9,10.3,7.9,22.7,9.6,35.8C584.5,180.5,584.9,192.8,584.7,204.5z"/>
<path fill="#FFFFFF" stroke="#000000" stroke-miterlimit="10" d="M571.1,269.9c-11.1,11-33.3,20.5-52.6,16.1c-3.5-0.8-7.2-2-11-3.6
	c-2.4-1-4.8-2.2-7.2-3.5c-2.4-1.4-4.8-2.9-7.2-4.6c-1-0.7-1.9-1.4-2.8-2.1c-1.4-1.1-2.8-2.3-4.1-3.5c-4-3.7-7.7-8-10.9-12.9
	c0,0,0,0,0,0c3-5.7,5-13.5,6.1-18.7c4.7,9.3,11.4,17.9,21,24c20.4,12.8,40.5,4.1,56.6-11.5C559.3,257.4,561.6,267.7,571.1,269.9z"/>
<path fill="#FFFFFF" stroke="#000000" stroke-miterlimit="10" d="M481.3,237.1c-1.1,5.1-3.2,13-6.1,18.7
	c-8.2-12.7-12.7-29.5-9.1-50.6c1.1-6.5,2.7-13.1,4.8-19.7C470.7,196.3,471.8,218.3,481.3,237.1z"/>
<path fill="#FFFFFF" stroke="#000000" stroke-miterlimit="10" d="M584.2,215.4c-1.4,23-5,41.9-7.3,46.7c-1.2,2.6-3.2,5.2-5.8,7.8
	c-9.4-2.2-11.8-12.5-12.2-20.3C569.2,239.7,578,227,584.2,215.4z"/>
<path fill="#FFFFFF" stroke="#000000" stroke-miterlimit="10" d="M519,135c-5.8,0.9-10.2,2.9-13.5,5.3c-4.4,3.1-6.9,6.9-8.2,9.6
	c-2.9-2.3-5.8-3.5-7.9-4.1c8-12.5,17.2-23,27-30C516.7,122.1,517.6,130.8,519,135z"/>
<path fill="#FFFFFF" stroke="#000000" stroke-miterlimit="10" d="M577.5,170.3c0.4-9-2.6-15.9-6-20.9c-2.3-3.4-4.8-5.8-6.5-7.2
	c3.3-2.7,6.6-5.7,8.6-9.2c4.9,10.3,7.9,22.7,9.6,35.8C581.7,169,579.8,169.5,577.5,170.3z"/>
<path fill="#FFFFFF" stroke="#000000" stroke-miterlimit="10" d="M573.5,133c-2,3.5-5.3,6.5-8.6,9.2c-4.4,3.6-8.8,6.6-10.1,9.8
	c-7.4-11.6-32.8-5.2-32.8-5.2s-0.6-4.8-2.9-11.6c0-0.1,0-0.1-0.1-0.2c-1.4-4.2-2.2-12.8-2.7-19.1c10.5-7.4,21.4-10.6,31.7-7.3
	C559.6,112.2,567.8,121.2,573.5,133z"/>
<path fill="#FFFFFF" stroke="#000000" stroke-miterlimit="10" d="M506.8,201.7c-0.6,0.4-1.4,0.6-2.3,0.6c-2.1,0.1-4.4-0.6-4.4-0.6
	s0-4.3-1.2-8.7c0,0,0,0,0-0.1c-0.1-0.8-0.4-1.6-0.8-2.3c0,0,0,0,0,0c-1.2-2.8-3-5.3-5.9-6.5c-6.2-2.4-10.5,0.8-16.4-0.3
	c-1.2-0.2-2.5-0.6-3.9-1.3c4.4-12.9,10.4-25.5,17.5-36.7c2.1,0.6,5.1,1.8,7.9,4.1c2.7,2.1,5.3,5.1,7.1,9.5
	c-5.8,0.3-10.4,5-10.4,10.9c0,6,4.9,10.9,10.9,10.9c1.1,0,2.2-0.2,3.2-0.5C509.2,194.2,508.3,200.5,506.8,201.7z"/>
<path fill="#FFFFFF" stroke="#000000" stroke-miterlimit="10" d="M584.7,204.5c-1.9,0.5-3.4,0.8-4.6,0.8c-5.9,0.1-5.9-4.8-13-6.7
	c-6.8-1.9-12.7,9.4-17,11.5c-1.2,0.6-2.2,0.5-3.1-0.8c1-7.8,3.3-14.2,6.3-19.3c2,2.4,4.9,3.9,8.2,3.9c5.9,0,10.7-4.8,10.7-10.7
	c0-3.4-1.6-6.5-4.1-8.4c3.4-2.1,6.7-3.5,9.5-4.4c2.3-0.8,4.3-1.3,5.6-1.5C584.5,180.5,584.9,192.8,584.7,204.5z"/>
<path fill="#FFFFFF" stroke="#000000" stroke-miterlimit="10" d="M584.7,204.5c-0.1,3.7-0.2,7.3-0.5,10.9
	c-6.2,11.6-14.9,24.3-25.3,34.2c-16.2,15.5-36.3,24.3-56.6,11.5c-9.6-6.1-16.3-14.6-21-24c-9.4-18.8-10.5-40.8-10.4-51.7
	c0.3-1,0.6-2,1-3c1.4,0.7,2.7,1.1,3.9,1.3c0.1,15.3,6.8,46.2,15.4,48.1c7.9,1.7,12.1-20.9,13.3-29.5c0.9,0,1.8-0.2,2.3-0.6
	c1.5-1.1,2.4-7.4,1.3-20.9c4.5-1.4,7.7-5.5,7.7-10.5c0-6-4.9-10.9-10.9-10.9c-0.2,0-0.3,0-0.5,0c-1.9-4.4-4.5-7.4-7.1-9.5
	c1.3-2.7,3.8-6.5,8.2-9.6c5.4,4.9,19.6,18.5,19.3,26.2c-2,5.2-2.8,10.6-2.8,10.6s23.8,5.1,23.5,3.7c-0.2-1.4,0.4-12.3,0.4-12.3
	s15.1-15.1,25.6-19.1c3.4,4.9,6.4,11.9,6,20.9c-2.8,0.9-6,2.3-9.5,4.4c-1.8-1.4-4.1-2.2-6.6-2.2c-5.9,0-10.7,4.8-10.7,10.7
	c0,2.6,0.9,5,2.5,6.8c-3,5.1-5.2,11.5-6.3,19.3c0.9,1.2,1.9,1.3,3.1,0.8c-1.8,7.7-6.2,28.2-3.1,33.2c3.7,6,30.6-16.6,33.1-37.9
	C581.3,205.3,582.8,205.1,584.7,204.5z"/>
<path fill="#FFFFFF" stroke="#000000" stroke-miterlimit="10" d="M626.8,476.1c0,0.3-0.2,0.5-0.4,0.8c-1.6,1.4-7.1,2.6-11.2,3.3
	c0-3.5,0.1-6.7,0.2-9.5C621.8,473,626.9,475.1,626.8,476.1z"/>
<path fill="#FFFFFF" stroke="#000000" stroke-miterlimit="10" d="M631.6,400.2L631.6,400.2c0,12.4-0.2,25.6-0.5,37.2
	c-0.5,0.2-0.9,0.3-1.4,0.5c0.4,0.6,0.8,1.4,1.3,2.2c-0.3,14.9-0.7,26.9-0.7,30.5c-10.2-10-38.7-18.8-38.7-18.8l-2.2-2.2l-1.1-49.4
	l31.4-26.2l9.5,8.6L631.6,400.2z"/>
<path fill="#FFFFFF" stroke="#000000" stroke-miterlimit="10" d="M482.5,396.3v25.4L450.9,454l3.8-52.3l-53.5-39c0,0,0.1-2.9,0-8v0
	c0-5.5-0.1-13.7-0.5-23.7c-0.7-15.9-2.1-36.3-5-57.9c12.4-5,18.7-6.2,18.7-6.2l3,36.9l5.1,5l-1.2,24.6l-10.2,8.5L482.5,396.3z"/>
<path fill="#FFFFFF" stroke="#000000" stroke-miterlimit="10" d="M593.1,281.2l-3.9,24.1L554.3,324h-68.7l-36.9-19.5l-2.7-1.4
	l-8.7-39.5l4-0.6c22.5,21,57.9,41.6,72.9,42.2C528,305.8,568.1,297.2,593.1,281.2z"/>
<path fill="#FFFFFF" stroke="#000000" stroke-miterlimit="10" d="M632.5,279.4c-3.8-0.7-8.3-1.3-11.9-0.9
	c-4.2-3.9-10.2-7.1-13.6-8.8c-3.6,4.2-8.4,8.1-13.9,11.6h0l-3.9,24.1l25,31.1l-40.6,23L545,331.3h-48.9l-28.3,28.2l-42.5-29
	l23.4-25.9l-2.7-1.4l-8.7-39.5l-22.7,3.3l3,36.9l5.1,5l-1.2,24.6l-10.2,8.5l71.2,54.3v25.4L450.9,454l-1.9,1.9l-32.3,10l0.5,1.4
	c1,2.3,2.1,4.5,3.3,6.4l31.1-8.8l7.9-8l7.6-7.7l19.7-19.9l16.1,0.1l35.7,0.2l17.8,0.1l17.9,18.1l7.1,7.2l7.3,7.3
	c0,0,15.3,4.4,26.5,8.3c6.5,2.3,11.6,4.4,11.5,5.5c0,0.3-0.2,0.5-0.4,0.8c1.8,0.4,4-0.2,4-6.2c-10.2-10-38.7-18.8-38.7-18.8
	l-2.2-2.2L561,422.2v-26.6l67.2-51c-0.2-1.8-0.4-2.5-0.4-2.7c0,0.2,0,0.2,0,0.2s0-0.5,0-0.2c0.2-1.3,1.3-8.7,3.8-24.7
	C636.4,305.7,634,289.2,632.5,279.4z M546.7,418.6h-49.4v-23.3h49.4V418.6z M546.7,384.2h-49.4l-17.1-16.6l22.6-23.8h36.6l23.8,23.8
	L546.7,384.2z"/>
<rect x="497.3" y="395.3" fill="#FFFFFF" stroke="#000000" stroke-miterlimit="10" width="49.4" height="23.3"/>
<polygon fill="#FFFFFF" stroke="#000000" stroke-miterlimit="10" points="563.1,367.5 546.7,384.2 497.3,384.2 480.2,367.5 
	502.7,343.8 539.3,343.8 "/>
<polygon fill="#FFFFFF" stroke="#000000" stroke-miterlimit="10" points="614.2,336.4 573.5,359.5 545,331.3 496.1,331.3 
	467.8,359.5 425.3,330.5 448.7,304.6 485.6,324 554.3,324 589.2,305.3 "/>
<path fill="#FFFFFF" stroke="#000000" stroke-miterlimit="10" d="M698.1,404.6l-15.9,4.5l-22.8-37.6c0,0,0.9-50.1,1.7-63.1
	c-0.6-1.7-1.3-3.2-2-4.7c4.9,8.6,5.6,27.3,14.6,53.4C682.6,383.2,698.1,404.6,698.1,404.6z"/>
<path fill="#FFFFFF" stroke="#000000" stroke-miterlimit="10" d="M631.6,400.2l-2.4-17.5l-9.5-8.6l-31.4,26.2l1.1,49.4L561,422.2
	v-26.6l67.2-51c0.4,2.7,1,7.9,2.1,17.7c0,0.4,0.1,0.8,0.1,1.2C631.3,372,631.6,385.6,631.6,400.2z"/>
<path fill="#FFFFFF" stroke="#000000" stroke-miterlimit="10" d="M657,414.6c0,0-13,17.7-25.8,22.9c0.3-11.6,0.5-24.8,0.5-37.2v0
	c0-14.7-0.3-28.2-1.1-36.8L657,414.6z"/>
<path fill="#FFFFFF" stroke="#000000" stroke-miterlimit="10" d="M709.7,436.5c0,0-0.1,0.2-0.3,0.6c-1.4,2.5-7.8,13.1-19.9,20.8
	c-11.3,7.2-25.7,9-34.9,9.3c-2,0.1-3.8,0-5.2,0c-3.5-3.1-13.3-18.8-18.3-27c0-0.9,0-1.8,0.1-2.7c12.9-5.1,25.8-22.9,25.8-22.9
	l-26.5-51.1c0-0.4-0.1-0.8-0.1-1.2c-1.1-9.8-1.8-15-2.1-17.7c-0.2-1.8-0.4-2.5-0.4-2.7c0.2-1.3,1.3-8.7,3.8-24.7
	c4.8-11.5,2.4-28,0.9-37.8c4.1,0.8,7.3,1.7,7.3,1.7s10.5,6,18.1,20.4c0.4,0.7,0.7,1.4,1.1,2.2c0.7,1.5,1.4,3.1,2,4.7
	c-0.7,13.1-1.7,63.1-1.7,63.1l22.8,37.6l15.9-4.5C706.9,414.3,709.7,436.5,709.7,436.5z"/>
<path fill="#FFFFFF" stroke="#000000" stroke-miterlimit="10" d="M717.5,448.6c0,0-0.5,19.7-10.7,28.4c-0.1,0-0.1,0.1-0.2,0.1
	c-9.7,8-32.9,6.8-35.5,6.6c-0.2,0-0.2,0-0.2,0l-16.4-16.6c9.2-0.3,23.6-2,34.9-9.3c12.1-7.7,18.5-18.3,19.9-20.8L717.5,448.6z"/>
<path fill="#FFFFFF" stroke="#000000" stroke-miterlimit="10" d="M752.2,546.5c-13.4,5.6-29.2,7.7-39.5,8.5
	c-12.1-13.1-22.2-23.9-25.5-29c-7.6-11.4-13.9-34.2-15.9-42.3c2.6,0.2,25.7,1.4,35.5-6.6C713.2,487.2,733.2,518,752.2,546.5z"/>
<path fill="#FFFFFF" stroke="#000000" stroke-miterlimit="10" d="M810.9,609.4c-9-10-20-7.4-20-7.4c-1.4-1.1-5.4-6.5-11-14.5
	c-3.9-5.5-8.4-12.2-13.4-19.6c-4.5-6.7-9.4-14-14.3-21.4c-19-28.5-39-59.4-45.5-69.4c0.1-0.1,0.1-0.1,0.2-0.1
	c10.2-8.7,10.7-28.4,10.7-28.4s30.2,26.3,41.6,44.2c0,0,0,0,0,0c0,0.5-0.3,15.9,7.6,39c7.3,21.2,14.2,21.6,17.4,15.5
	c1.2,2.8,2.4,5.5,3.5,8.3c0,0-9.5,2.6-2.2,16.4c7.2,13.8,16.3,16.7,16.4,16.8C806.1,598.8,809.4,606.5,810.9,609.4z"/>
<path fill="#FFFFFF" stroke="#000000" stroke-miterlimit="10" d="M766.5,568c-8.3,6.7-23.3,10.5-31.1,12.1
	c-7.6-8.6-15.6-17.2-22.8-25c10.3-0.8,26.1-2.9,39.5-8.5C757.1,554,762,561.2,766.5,568z"/>
<path fill="#FFFFFF" stroke="#000000" stroke-miterlimit="10" d="M780,587.6c-8.1,11.2-19.4,14.8-24.8,15.9
	c-5.8-7.5-12.6-15.5-19.7-23.4c7.7-1.6,22.8-5.3,31.1-12.1C771.5,575.4,776.1,582.1,780,587.6z"/>
<path fill="#FFFFFF" stroke="#000000" stroke-miterlimit="10" d="M791,602.1c0,0-14.3,20.9-21.6,23c-2.8-6-7.9-13.5-14.2-21.7
	c5.4-1.1,16.7-4.7,24.8-15.9C785.6,595.6,789.6,601,791,602.1z"/>
<path fill="#FFFFFF" stroke="#000000" stroke-miterlimit="10" d="M785,545c-0.3,0.8-0.6,1.5-0.9,2.2c-3.2,6-10.1,5.7-17.4-15.5
	c-7.9-23.1-7.6-38.4-7.6-39c0,0,0,0,0,0C776.5,500.8,787.7,537,785,545z"/>
<path fill="#FFFFFF" stroke="#000000" stroke-miterlimit="10" d="M801.8,588.7c-0.1-0.1-9.1-3-16.4-16.8
	c-7.2-13.8,2.2-16.4,2.2-16.4C809,554.8,801.8,588.8,801.8,588.7z"/>
<path fill="#FFFFFF" stroke="#000000" stroke-miterlimit="10" d="M832.1,654.3c-13.4-2.7-20.1-9.3-23.3-15.8
	c-2.7-5.5-2.9-10.8-2.5-13.4c0.9-6.1-5-9.9-12.7-2.6c-5.7,5.5-17.5,10.4-23.1,12.6c-0.2-6.7-1.1-10-1.1-10c7.4-2.1,21.6-23,21.6-23
	s10.9-2.6,20,7.4c0,0,4,7.7,7.1,14.1c3,6.4,13.4,26.6,14.1,30.3C832.1,654,832.1,654.1,832.1,654.3z"/>
<path fill="#FFFFFF" stroke="#000000" stroke-miterlimit="10" d="M831.9,687.5c0,0,1.8,20.1-6.4,19.6c-16.2-2.1-14.8-21.4-14.6-25.5
	s-3.6-10.7-7.4-23.7c-2.5-8.5,1.9-15.6,5.2-19.5c3.2,6.4,9.9,13.1,23.3,15.8C833.5,666.2,831.9,687.5,831.9,687.5z"/>
<path fill="#FFFFFF" stroke="#000000" stroke-miterlimit="10" d="M845.3,695.4c-7-0.9-13.9,6.7-14.3,12.2
	c-7.8,4.7-16.7-0.6-17.1-0.8c0,0,0,0,0,0s-9.5,4.2-16.5-0.8c-5.2-1.1-10.7-6.1-14.1-9.6c-2.2-7.2-3.2-13.8-2.7-17.6
	c-3.6-8.2-12.3-15.3-10.7-30.8c0.5-5.2,0.7-9.4,0.6-12.7c5.6-2.2,17.4-7.1,23.1-12.6c7.7-7.3,13.5-3.5,12.7,2.6
	c-0.4,2.6-0.2,7.9,2.5,13.4c-3.3,3.8-7.7,10.9-5.2,19.5c3.8,13,7.6,19.6,7.4,23.7s-1.7,23.3,14.6,25.5c8.2,0.5,6.4-19.6,6.4-19.6
	s1.6-21.3,0.2-33.3h0c0.7,4.2,1.9,17.1,1.9,17.1S842.8,682.7,845.3,695.4z"/>
<path fill="#FFFFFF" stroke="#000000" stroke-miterlimit="10" d="M841.6,748.9c-1.1,4.6-9,20.8-11.1,21.3c-2,0.5-10.6-5.5-8.1-14.4
	c2.5-8.9,4-10.3,4-10.3s-0.6-15.2,0.4-17.2c-5.4-9.5-12.7-21.1-12.9-21.5c0.4,0.2,9.3,5.5,17.1,0.8l11.2,15.2
	C842.2,722.8,842.7,744.3,841.6,748.9z"/>
<path fill="#FFFFFF" stroke="#000000" stroke-miterlimit="10" d="M816.8,730.4c-1.7,10.3-13.2,27.9-15.6,28
	c-2.4,0.1-13.1,1.9-9.5-10.1c3.6-12,8.2-13.4,8.2-13.4l1.5-12.9l-4-16c7,5.1,16.5,0.8,16.5,0.8S818.4,720,816.8,730.4z"/>
<path fill="#FFFFFF" stroke="#000000" stroke-miterlimit="10" d="M792.5,729c-5.1,8.7-15.6,17.4-19.8,9.7c-4.3-7.6,8.7-19.5,9-19.7
	c0.4-0.2,1.9-11.2,4.2-15.2c-1-2.5-1.8-5-2.6-7.5c3.4,3.6,8.9,8.5,14.1,9.6C797.4,705.9,797.6,720.3,792.5,729z"/>
<path fill="#FFFFFF" stroke="#000000" stroke-miterlimit="10" d="M860.6,757.6c-2,1.8-11,5.1-11.4-5.2c-0.4-10.3,0.2-10.9,0.2-10.9
	s-4.2-12.4-2.5-20.7c-4.3-5.7-15.9-13.2-15.9-13.2c0.4-5.5,7.2-13.1,14.3-12.2c6.8,8.9,13.2,16.9,14.1,23.7S862.6,755.8,860.6,757.6
	z"/>
<path fill="#FFFFFF" stroke="#000000" stroke-miterlimit="10" d="M454.7,401.8l-3.8,52.3l-1.9,1.9l-32.3,10l0.5,1.4
	c-6.6-14.6-10.4-35.2-12.7-54.3c-3.2-26.6-3.2-50.2-3.2-50.2L454.7,401.8z"/>
<path fill="#FFFFFF" stroke="#000000" stroke-miterlimit="10" d="M480.1,480.9c0,0-0.4,67.5-0.4,72.5c-8.7-5-11-16.4-11-16.4
	L439.3,520l-10.3,1.2c0,0-2.1-15-7.5-46c-0.3-0.5-0.6-1-1-1.6l31.1-8.8l7.9-8L480.1,480.9z"/>
<path fill="#FFFFFF" stroke="#000000" stroke-miterlimit="10" d="M615.4,512c0,0-18.1,2.8-18.5,3.6c-0.5,0.7-22.6,12.8-31.8,21.3
	c-4,11.8-13.3,13.3-13.3,13.3l8.1-69.3l21.7-25.9l7.3,7.3c0,0,15.3,4.4,26.5,8.3c-0.1,2.7-0.2,6-0.2,9.5
	C615,494.3,615.4,512,615.4,512z"/>
<path fill="#FFFFFF" stroke="#000000" stroke-miterlimit="10" d="M440.4,547.3c-0.8,2.7-1.8,5.3-2.7,7.5c-1.8,4.1-3.6,6.9-3.6,6.9
	l-11.9-8.3c0,0-1.4-16.9-1.4-18.1s8.2-14,8.2-14C442.8,526,443,537.7,440.4,547.3z"/>
<polygon fill="#FFFFFF" stroke="#000000" stroke-miterlimit="10" points="541,551.8 541,566.9 528.4,576.6 499.5,576.6 488,567.8 
	488,553.4 492,553.2 "/>
<path fill="#FFFFFF" stroke="#000000" stroke-miterlimit="10" d="M625.2,542.9c0,0.2,0,0.5-0.1,0.7c-6.5-0.3-10.6-0.3-13.1-0.2
	c0.1-0.1,0.2-0.2,0.2-0.4c2.1-3.9,8.1-20.2-5.5-23.4c-7.7-1.8-12.7,10.9-9.9,19.1c0,0,0,0.1,0,0.1c-7.6,4.4-20.1,12.1-27,19.5
	c-8.3,8.8-7.2,25.8-6.3,32.5c-2.3,1.7-4.9,3.3-7.8,4.8c-2.5,1.3-5.2,2.6-8.2,3.8l4-49.3c0,0,9.3-1.5,13.3-13.3
	c9.3-8.4,31.4-20.5,31.8-21.3c0.5-0.7,18.5-3.6,18.5-3.6S627,520.8,625.2,542.9z"/>
<polygon fill="#FFFFFF" stroke="#000000" stroke-miterlimit="10" points="507,443.6 507,463.2 490.4,479 480.1,448.6 502.7,434.8 
	502.5,438.8 "/>
<polygon fill="#FFFFFF" stroke="#000000" stroke-miterlimit="10" points="549.8,475.4 563.1,449.5 538.6,435.5 538.6,429.7 
	556.5,429.8 574.4,447.8 "/>
<polygon fill="#FFFFFF" stroke="#000000" stroke-miterlimit="10" points="563.1,449.5 549.8,475.4 534.3,463.5 534.3,445.2 
	538.6,438.8 538.6,435.5 "/>
<polygon fill="#FFFFFF" stroke="#000000" stroke-miterlimit="10" points="542.7,543.6 542.7,551.8 541,551.8 492,553.2 492,542.4 
	504.9,533.9 529.4,532.5 "/>
<path fill="#FFFFFF" stroke="#000000" stroke-miterlimit="10" d="M534.3,463.5v-18.3l4.3-6.4v-9.2l-35.7-0.2l-0.2,5.4l-0.2,4
	l4.5,4.8v19.6L490.4,479l-2.4,74.4l4-0.1v-10.8l12.8-8.6l24.5-1.4l13.3,11.1v8.2l2.4-0.1l4.8-76.3L534.3,463.5z M503.9,519.4
	l-9.7,7.1V516l10.7-6.2L503.9,519.4z M506.3,492.8L494.2,503v-10.2l12.8-11.9L506.3,492.8z M541.5,526.5c0,0.7-9.8-7.1-9.8-7.1V508
	l10.9,7.6C542.7,515.6,541.5,525.8,541.5,526.5z M544.6,500l-12.8-8.1v-11l14,9.6L544.6,500z"/>
<polygon fill="#FFFFFF" stroke="#000000" stroke-miterlimit="10" points="507,480.9 506.3,492.8 494.2,503 494.2,492.8 "/>
<polygon fill="#FFFFFF" stroke="#000000" stroke-miterlimit="10" points="545.8,490.4 544.6,500 531.7,491.9 531.7,480.9 "/>
<polygon fill="#FFFFFF" stroke="#000000" stroke-miterlimit="10" points="504.9,509.9 503.9,519.4 494.2,526.5 494.2,516 "/>
<path fill="#FFFFFF" stroke="#000000" stroke-miterlimit="10" d="M542.7,515.6c0,0-1.2,10.2-1.2,10.9c0,0.7-9.8-7.1-9.8-7.1V508
	L542.7,515.6z"/>
<polygon fill="#FFFFFF" stroke="#000000" stroke-miterlimit="10" points="502.7,434.8 480.1,448.6 490.4,479 467.1,449.3 
	486.8,429.3 502.9,429.4 "/>
<path fill="#FFFFFF" stroke="#000000" stroke-miterlimit="10" d="M420.8,615.4c1-12.3-3.8-18.9-7.4-21.4c-0.2-0.1-0.3-0.2-0.5-0.3
	c-1.4-7.5,9.3-40.3,9.3-40.3l11.9,8.3c0,0,1.8-2.8,3.6-6.9c15.9,9.3,9.5,25,9.5,25l16.9,13.7l5.3,4.3l-52.9,47.3
	C418.7,630.8,420.4,619.3,420.8,615.4z"/>
<path fill="#FFFFFF" stroke="#000000" stroke-miterlimit="10" d="M491,945.2c-2.6,0.1-4.3,0.2-4.3,0.2c-1.3,0.5-2.6,0.9-3.9,1.3
	c-1.2-1.4-2.2-2.8-3.2-4.2c-12.1-17.8-43.5-125.5-52.4-152.2c-7.4-22.3-28.2-57.9-34.9-69.2c-1.3-2.2-2.1-3.5-2.1-3.5s0.1-1,0.3-2.9
	c1.3-11.2,6.2-52.3,12.9-81.5c4.5-19.7,8-32.2,10.1-39.3c3.5,2.5,8.4,9.1,7.4,21.4c-0.3,3.9-2.1,15.5-4.3,29.7
	c-0.7,4.1-1.4,8.5-2.1,13c-5,30.9-11.1,66.7-11.1,66.7s19.2,30.7,27.8,53.1c8.6,22.5,35.3,136.2,57.7,165.4
	C489.5,944,490.3,944.6,491,945.2z"/>
<path fill="#FFFFFF" stroke="#000000" stroke-miterlimit="10" d="M482.8,946.8c-12.6,4-25.4,5.3-34.2,5.7
	c-6.8,0.3-11.1,0.1-11.1,0.1S398.3,832.5,393,797.2c-4-26.7-2-60.8-0.7-76c6.7,11.3,27.5,46.9,34.9,69.2
	c8.9,26.7,40.3,134.4,52.4,152.2C480.5,944,481.6,945.4,482.8,946.8z"/>
<path fill="#FFFFFF" stroke="#000000" stroke-miterlimit="10" d="M612.3,543c-0.1,0.1-0.1,0.2-0.2,0.4c-0.4,0.6-1,1.1-1.8,1.4
	c-1.9,0.9-4.7,1.1-7.3,0.1c-2.5-0.9-4.8-2.8-6-6c0,0,0-0.1,0-0.1c-2.9-8.2,2.1-21,9.9-19.1C620.4,522.8,614.4,539.1,612.3,543z"/>
<path fill="#FFFFFF" stroke="#000000" stroke-miterlimit="10" d="M637.8,564.3l-7.3,9.2l-20.2-28.7c0.7-0.3,1.3-0.8,1.8-1.4
	c2.5-0.1,6.6-0.1,13.1,0.2c0-0.2,0-0.5,0.1-0.7C627.4,545.6,632.3,552.4,637.8,564.3z"/>
<path fill="#FFFFFF" stroke="#000000" stroke-miterlimit="10" d="M662.9,704.9l-12.6-8.2c0,0,0-0.1-0.1-0.3
	c-1.2-5-18-73.6-14.8-86.9c2-8,8.4-12,13.5-14c3.7,13.5,7,29.8,9.2,49.4C660.7,667.3,662.3,686.7,662.9,704.9z"/>
<path fill="#FFFFFF" stroke="#000000" stroke-miterlimit="10" d="M660.8,770.1c-2.2,21.6-5.9,44.8-11.2,72.9
	c-8.2,43.3-17.5,73.5-25.6,98.9c-3.9-5.5-9.2-10.8-13.6-22.8c-6.4-17.5,32.8-134.7,32.8-134.7L660.8,770.1z"/>
<path fill="#FFFFFF" stroke="#000000" stroke-miterlimit="10" d="M400.8,331.1l-31.3,20.3c0,0-1.6-32-5.4-49.7
	c1.3-3,2.7-5.9,4.3-8.7c10.7-18.2,27.4-19.9,27.4-19.9C398.7,294.8,400.1,315.2,400.8,331.1z"/>
<path fill="#FFFFFF" stroke="#000000" stroke-miterlimit="10" d="M401.3,354.8L371.6,411c0,0,12.4,11.7,19.4,22.7
	c-4.4,5.8-9.2,11.6-13.9,16.7c-35.9-9.9-54.5-36.1-60.6-46.2c1.6-2.6,3.5-5.6,5.5-8.9c11.2,3.3,21.2,9.5,21.2,9.5l26.2-35.5v-17.8
	l31.3-20.3C401.2,341.1,401.3,349.2,401.3,354.8L401.3,354.8z"/>
<path fill="#FFFFFF" stroke="#000000" stroke-miterlimit="10" d="M369.4,351.4v17.8l-26.2,35.5c0,0-10-6.2-21.2-9.5
	c13.1-21.2,32.2-52.5,32.5-54.5c0.3-2.6,2.4-22,9.6-39C367.8,319.4,369.4,351.4,369.4,351.4z"/>
<path fill="#FFFFFF" stroke="#000000" stroke-miterlimit="10" d="M377.1,450.3c-6.9,7.5-13.6,13.3-18.4,15
	c-24.1-3.9-50.1-33.2-50.1-33.2l1.4-17.7c0,0,2.6-4.1,6.4-10.4C322.5,414.2,341.2,440.5,377.1,450.3z"/>
<path fill="#FFFFFF" stroke="#000000" stroke-miterlimit="10" d="M404.5,413c-2.6,4.8-6.4,10.9-10.9,17.1c-5.9-11.5-16-19.6-16-19.6
	l23.7-47.7C401.3,362.8,401.3,386.4,404.5,413z"/>
<path fill="#FFFFFF" stroke="#000000" stroke-miterlimit="10" d="M401.3,362.8l-23.7,47.7c0,0,10,8.1,16,19.6
	c-0.9,1.2-1.8,2.4-2.7,3.6c-7-11-19.4-22.7-19.4-22.7l29.8-56.2C401.3,359.9,401.3,362.8,401.3,362.8z"/>
<path fill="#FFFFFF" stroke="#000000" stroke-miterlimit="10" d="M358.7,465.3c0,0-15,25.8-24.5,48.6c-9.5,22.9-28.5,35.1-28.5,35.1
	s-0.4,0.4-1.1,1.2c-15.4-1.7-32.4-8.8-39.4-11.9c20.8-27,41.5-54.4,45-61.2c-7.1-9.5-15.8-16.9-21-23.9c7.2-4.7,12.7-7.8,12.7-8.3
	c0-1.2,6.7-12.7,6.7-12.7S334.7,461.4,358.7,465.3z"/>
<path fill="#FFFFFF" stroke="#000000" stroke-miterlimit="10" d="M310.3,477.1c-3.5,6.8-24.2,34.2-45,61.2
	c-5,6.5-10.1,13.1-14.9,19.3c-5.3,6.8-10.3,13.3-14.7,18.9c-6.3,8-11.3,14.5-14.2,18.2c-15.9,0.6-25.1,14.5-27.6,18.7
	c1.4-3,2.4-5,2.7-5.7c0,0,0-0.1,0-0.1c0-0.1,0.1-0.1,0.1-0.1c3.2-6.2,8.3-15.7,14.8-25.6c0.3-0.5,0.7-1.1,1-1.7
	c0.5,1.9,0.9,3.1,0.9,3.1s14.6-9.9,25.9-29.9l-10.1-8.7c1.5-3.5,3-7.1,4.6-10.7c-0.2,9.8,2.4,16.2,9.3,11.7
	c13.2-8.7,15.1-63.8,15.2-64.7c0,0,0,0,0,0c0.4-0.7,0.8-1.3,1.2-1.9c6.8-9.8,20-19.3,29.9-25.8C294.5,460.2,303.1,467.6,310.3,477.1
	z"/>
<path fill="#FFFFFF" stroke="#000000" stroke-miterlimit="10" d="M239.2,553.4c-11.3,20.1-25.9,29.9-25.9,29.9s-0.4-1.2-0.9-3.1
	c-1.2-4.8-2.7-13.8,0.9-17.6c5-5.2,15.8-18,15.8-18L239.2,553.4z"/>
<path fill="#FFFFFF" stroke="#000000" stroke-miterlimit="10" d="M258.2,480.9C258.2,480.9,258.2,480.9,258.2,480.9
	c0,0.9-2,56-15.2,64.7c-6.9,4.5-9.5-1.9-9.3-11.7v0c0.2-9,2.7-20.8,6.2-29.5C247.3,486.3,258.2,480.9,258.2,480.9z"/>
<path fill="#FFFFFF" stroke="#000000" stroke-miterlimit="10" d="M304.6,550.2c-4.5,4.5-20.8,20.9-27.1,23.5
	c-11.8-3.7-21.7-11.3-27.1-16.2c4.8-6.2,9.9-12.7,14.9-19.3C272.2,541.5,289.2,548.5,304.6,550.2z"/>
<path fill="#FFFFFF" stroke="#000000" stroke-miterlimit="10" d="M277.5,573.8c-3.8,10.5-21.4,25.2-21.4,25.2
	c-10.2-5.6-17.7-18.2-20.5-22.5c4.4-5.6,9.4-12.1,14.7-18.9C255.7,562.5,265.7,570.1,277.5,573.8z"/>
<path fill="#FFFFFF" stroke="#000000" stroke-miterlimit="10" d="M256.1,599c0,0-2.9,5.9-13.8,22.1c-13.8-7.8-20.9-26.4-20.9-26.4
	c2.9-3.7,7.9-10.2,14.2-18.2C238.4,580.8,245.8,593.4,256.1,599z"/>
<path fill="#FFFFFF" stroke="#000000" stroke-miterlimit="10" d="M237.8,628.9c-1.2,4.5,1.9,19.2-5.5,36.4c-7.4,17.1-16,31-16,31
	s-9,0.3-12.4,5.9c0,0,0,0,0,0c-4.6-2.4-13.8-0.5-13.8-0.5s0,0,0,0c-0.3-0.2-8-4.2-10.3-2.5c0.8-5-4.8-17.6-13.7-20.9
	c1-3.3,1.8-6.3,2.1-8c0.2-1.6,3.5-9.1,7.7-18.3c2.9,5.5,9.3,11.8,12.2,14.9c3.8,4,3.9,32.4,15.8,27.7c11.9-4.8,5.6-24,8.6-31.2
	c3-7.2,2.8-24.5-3.1-28.5c-4.9-3.4-20.4-1.1-25.4-0.3c3.8-8.2,7.5-15.9,9.9-21c0,0,0,0,0,0c2.5-4.3,11.7-18.1,27.6-18.7
	c0,0,7.1,18.5,20.9,26.4C242.3,621.1,239,624.4,237.8,628.9z"/>
<path fill="#FFFFFF" stroke="#000000" stroke-miterlimit="10" d="M179.8,699.1c-2.7,4.7-12.3,9-19.5,14.4c2,6.9,0.2,20-2.1,28.9v0
	c-0.3,1.1-0.6,2.1-0.9,3.1c-2.6,8.5-6.8,11.4-12.4,6.4c-5.6-5-0.2-29.1,2.3-40.2c2.5-11,9.3-16.9,12.2-18.9
	c1.9-1.3,4.8-8.5,6.7-14.6C174.9,681.5,180.5,694.1,179.8,699.1z"/>
<path fill="#FFFFFF" stroke="#000000" stroke-miterlimit="10" d="M190.1,701.7c-1.1,3.4-3.6,6.8-6.4,9.8v0c-4.7,5-10.1,8.8-10.1,8.8
	s3,19.8,1.1,23c1.8,2.2,3.9,24.5-7.1,23.4c-6.9-0.7-8.9-14.2-9.5-24.3v0c2.3-8.9,4.1-22,2.1-28.9c7.2-5.4,16.8-9.7,19.5-14.4
	C182.1,697.5,189.8,701.5,190.1,701.7z"/>
<path fill="#FFFFFF" stroke="#000000" stroke-miterlimit="10" d="M201.7,757.4c-5.5,0.6-14.1-15.6-16.9-23c-2-5.6-1.5-17.2-1.1-22.8
	v0c2.8-3,5.3-6.4,6.4-9.8c0,0,0,0,0,0s9.2-1.8,13.8,0.5c-0.8,3.3-1.8,7.6-2.9,11.5c0,0,0,0,0,0c-1.2,4.4-2.5,8.4-3.5,10
	c3.3,3,4.9,17.3,4.9,17.3s5.1,2.7,6.6,7.7C210.5,753.8,207.1,756.8,201.7,757.4z"/>
<path fill="#FFFFFF" stroke="#000000" stroke-miterlimit="10" d="M212.8,735.1c-8.2-5.7-11-15.2-11.9-21.4c0,0,0,0,0,0
	c1.1-3.9,2.1-8.2,2.9-11.5c0,0,0,0,0,0c3.4-5.7,12.4-5.9,12.4-5.9s0.2,15.8-0.8,20.5c5.3,2.7,7.9,11.4,7.9,11.4s6.4,3,7.1,6.9
	C231.3,739.1,225.7,744,212.8,735.1z"/>
<path fill="#FFFFFF" stroke="#000000" stroke-miterlimit="10" d="M212.4,663.3c-3,7.2,3.3,26.5-8.6,31.2
	c-11.9,4.8-12-23.6-15.8-27.7c-2.9-3.1-9.2-9.4-12.2-14.9c2.5-5.5,5.3-11.6,8-17.5c5-0.8,20.5-3.1,25.4,0.3
	C215.2,638.8,215.3,656,212.4,663.3z"/>
<path fill="#FFFFFF" stroke="#000000" stroke-miterlimit="10" d="M631.4,705.9c0,0-34.6,46.7-36.7,57
	c-2.1,10.3-44.9,171.5-44.9,171.5s-2,2.1-4.9,5.2v0h0c-0.3,0-6.3,0.1-22.2,5.6c-1.2-0.1-2.4-0.2-3.6-0.2c1.4-39.5,8.6-92.1,8.6-92.1
	l7.1-108.4c0,0-0.5-0.1-1.5-0.4c2.5-5,8.1-14.7,19.3-26.4c16.4-17.1,48.1-54.9,49.2-57.4c1-2.2-13-31.9-15.9-37.9
	c0.2-0.2,0.3-0.3,0.5-0.5l33.7,21.1c0.3,1.8,0.5,3.5,0.7,5L631.4,705.9z"/>
<path fill="#FFFFFF" stroke="#000000" stroke-miterlimit="10" d="M661.4,763.6c-0.2,2.2-0.4,4.3-0.6,6.5v0l-17.6,14.2
	c0,0-39.2,117.3-32.8,134.7c4.4,12.1,9.7,17.3,13.6,22.8c0,0,0,0,0,0c-2.7,8.6-5.3,16.6-7.6,24.4c-16.1-16.1-36-20.5-36-20.5
	s0.1-0.2,0.2-0.7c2.9-10.5,39.3-142.2,44.5-150.5C629.6,787.3,654.4,768.7,661.4,763.6z"/>
<path fill="#FFFFFF" stroke="#000000" stroke-miterlimit="10" d="M618.9,634.7l-63-39.1c2.9-1.5,5.5-3.2,7.8-4.8
	c1.9-1.4,3.7-2.8,5.3-4.3l46.5,28.7C616.6,621.4,617.8,628.3,618.9,634.7z"/>
<path fill="#FFFFFF" stroke="#000000" stroke-miterlimit="10" d="M615.4,615.2l-46.5-28.7c4.1-3.8,7.1-7.8,9.4-11.5
	c8.1,5.3,25.8,17,33.4,21.8C611.8,596.8,613.4,605,615.4,615.2z"/>
<path fill="#FFFFFF" stroke="#000000" stroke-miterlimit="10" d="M619,587.8l-7.2,9c-7.7-4.8-25.4-16.5-33.4-21.8
	c3.1-5.1,5-9.8,6.6-13.5C592.6,566.1,609.7,576.8,619,587.8z"/>
<path fill="#FFFFFF" stroke="#000000" stroke-miterlimit="10" d="M626.2,578.8l-7.2,9c-9.4-11-26.5-21.7-34.1-26.2
	c0.4-1,0.8-1.9,1.2-2.7c1.6-3.3,4.8-6.2,8-8.6C601.9,557,620.6,573.8,626.2,578.8z"/>
<path fill="#FFFFFF" stroke="#000000" stroke-miterlimit="10" d="M603,544.9c-2.3,1.1-5.6,2.9-8.8,5.3c-3.2,2.4-6.4,5.3-8,8.6
	c-0.4,0.8-0.8,1.7-1.2,2.7c-1.6,3.7-3.4,8.4-6.6,13.5c-2.3,3.8-5.3,7.7-9.4,11.5c-1.6,1.5-3.3,2.9-5.3,4.3
	c-0.8-6.7-1.9-23.6,6.3-32.5c6.9-7.4,19.4-15.1,27-19.5C598.2,542.1,600.5,544,603,544.9z"/>
<path fill="#FFFFFF" stroke="#000000" stroke-miterlimit="10" d="M630.5,573.5l-4.3,5.3c-5.6-5-24.4-21.8-32.1-28.6
	c3.2-2.4,6.5-4.2,8.8-5.3c2.6,1,5.4,0.8,7.3-0.1L630.5,573.5z"/>
<path fill="#FFFFFF" stroke="#000000" stroke-miterlimit="10" d="M650.2,696.3c-10.2,12.2-41.2,50.2-46.7,65.9l-50,177.9
	c-3.3-0.3-6.2-0.5-8.6-0.5c2.9-3.2,4.9-5.2,4.9-5.2s42.8-161.1,44.9-171.5c2.1-10.3,36.7-57,36.7-57L620.8,648
	c-0.2-1.5-0.4-3.2-0.7-5c-0.4-2.6-0.8-5.4-1.3-8.3c-1.1-6.4-2.3-13.3-3.5-19.5c-2-10.3-3.6-18.4-3.6-18.4l7.2-9l7.2-9l4.3-5.3
	l7.3-9.2c3.7,7.9,7.6,18.2,11.1,31.1c-5.1,2-11.5,6-13.5,14C632.2,622.7,649,691.3,650.2,696.3z"/>
<path fill="#FFFFFF" stroke="#000000" stroke-miterlimit="10" d="M663.2,715.8c-17.3,15.6-49.1,35.7-59.7,46.4
	c5.5-15.7,36.5-53.6,46.7-65.9c0,0.2,0.1,0.3,0.1,0.3l12.6,8.2C663,708.6,663.1,712.2,663.2,715.8z"/>
<path fill="#FFFFFF" stroke="#000000" stroke-miterlimit="10" d="M661.4,763.6L661.4,763.6c-7,5.2-31.8,23.8-36.4,31.1
	c-5.1,8.2-41.6,140-44.5,150.5c-10.1-2.9-19.5-4.3-27-5l50-177.9c10.5-10.7,42.4-30.7,59.7-46.4C663.4,732,662.8,747.4,661.4,763.6z
	"/>
<path fill="#FFFFFF" stroke="#000000" stroke-miterlimit="10" d="M546.5,599.6c-0.4,0-0.8,0.1-1.2,0.1l-13.6,21.4l-35,2.5L485.1,604
	h-8c0,0-15.2,13.4-31.5,27.5l-0.3,1c3.8,5,12,17.7,21.6,32.5c20.2-2.2,91.1-8.7,92.8-9.7c2.1-1.2,14.4-34,14.4-34L546.5,599.6z
	 M555.7,648.9l-81.7,8l-16.2-25.5l18.5-16.8l15.7,18.5l45.2-3.1l12.5-17.6l15.8,8.6L555.7,648.9z"/>
<path fill="#FFFFFF" stroke="#000000" stroke-miterlimit="10" d="M531.7,731.3v12.4c-9.8-2.5-40.5-11-57.7-23.5
	c-20.7-15-40.9-43.2-40.9-43.2l12.2-44.5c3.8,5,12,17.7,21.6,32.5c18.4,28.4,41.8,64.4,47.6,67.8C519.8,735.8,526.6,734,531.7,731.3
	z"/>
<path fill="#FFFFFF" stroke="#000000" stroke-miterlimit="10" d="M534.8,744.4l-7.1,108.4c0,0-7.2,52.6-8.6,92.1
	c-9.6-0.5-21.8-0.1-28.1,0.2c-0.7-0.6-1.4-1.3-2.1-1.9c-22.5-29.2-49.2-142.9-57.7-165.4c-8.6-22.5-27.8-53.1-27.8-53.1
	s6.1-35.8,11.1-66.7c7.4-6.1,19.2-16.3,30.6-26.1c0.1,0.1,0.2,0.3,0.3,0.5l-12.2,44.5c0,0,20.2,28.3,40.9,43.2
	c17.2,12.5,47.9,21,57.7,23.5c0.6,0.2,1.1,0.3,1.6,0.4C534.3,744.3,534.8,744.4,534.8,744.4z"/>
<path fill="#FFFFFF" stroke="#000000" stroke-miterlimit="10" d="M601.8,660.3c-1.1,2.5-32.8,40.3-49.2,57.4
	c-11.2,11.7-16.9,21.4-19.3,26.4c-0.4-0.1-1-0.2-1.6-0.4v-12.4c4.2-2.2,7.2-5,7.4-6.1c0.3-2.4,35.4-90.6,46.9-102.8
	C588.8,628.4,602.8,658,601.8,660.3z"/>
<path fill="#FFFFFF" stroke="#000000" stroke-miterlimit="10" d="M464.1,593.5l-16.9-13.7c0,0,6.5-15.7-9.5-25c1-2.2,2-4.7,2.7-7.5
	c5.2,2.5,14.2,8.1,19.3,18.2C464.8,575.4,464.7,586.8,464.1,593.5z"/>
<path fill="#FFFFFF" stroke="#000000" stroke-miterlimit="10" d="M477.1,604c0,0-15.2,13.4-31.5,27.5c-0.2,0.2-0.4,0.3-0.6,0.5
	c-11.4,9.8-23.2,20-30.6,26.1c0.7-4.5,1.4-8.8,2.1-13l52.9-47.3L477.1,604z"/>
<path fill="#FFFFFF" stroke="#000000" stroke-miterlimit="10" d="M479.7,553.4l-2.6,50.6l-7.7-6.2l-5.3-4.3c0.6-6.6,0.7-18.1-4.4-28
	c-5.1-10.1-14.1-15.7-19.3-18.2c2.7-9.6,2.5-21.3-11.4-26l10.3-1.2l29.4,16.9C468.7,537,471,548.4,479.7,553.4z"/>
<path fill="#FFFFFF" stroke="#000000" stroke-miterlimit="10" d="M545.3,599.7l-13.6,21.4l-35,2.5L485.1,604h11
	c0,0-1-18.3,14.7-16.4c15.7,1.9,14.7,14.5,14.7,14.5S535.5,600.6,545.3,599.7z"/>
<path fill="#FFFFFF" stroke="#000000" stroke-miterlimit="10" d="M581.5,455l-21.7,25.9l-8.1,69.3l-4,49.3c-0.4,0-0.8,0.1-1.1,0.1
	l-0.8-0.6l-0.5,0.7c-9.8,1-19.8,2.4-19.8,2.4s1-12.6-14.7-14.5c-15.7-1.9-14.7,16.4-14.7,16.4h-19l2.6-50.6c0-4.9,0.4-72.5,0.4-72.5
	L459.6,457l7.6-7.7l23.2,29.7l-2.4,74.4v14.5l11.5,8.8h28.9l12.6-9.7v-15.1l1.7,0l2.4-0.1l4.8-76.3l24.6-27.6L581.5,455z"/>
<path fill="#FFFFFF" stroke="#000000" stroke-miterlimit="10" d="M586.4,621.9l-1-0.6c0,0,0.2,0.4,0.5,1.1
	c-11.4,12.2-46.5,100.4-46.9,102.8c-0.2,1.1-3.2,3.9-7.4,6.1c-5.1,2.7-11.9,4.5-17.2,1.4c-5.8-3.4-29.1-39.4-47.6-67.8
	c20.2-2.2,91.1-8.7,92.8-9.7c2.1-1.2,14.4-34,14.4-34l-27.7-21.5c0.4,0,0.8-0.1,1.1-0.1c3-1.2,5.7-2.5,8.2-3.8l63,39.1
	c0.5,2.9,0.9,5.7,1.3,8.3L586.4,621.9z"/>
<polygon fill="#FFFFFF" stroke="#000000" stroke-miterlimit="10" points="565.5,621.1 555.7,648.9 474,656.9 457.8,631.4 
	476.4,614.7 492,633.2 537.2,630.1 549.7,612.5 "/>
<path fill="#FFFFFF" stroke="#000000" stroke-miterlimit="10" d="M567,198.6c-6.8-1.9-12.7,9.4-17,11.5c-1.8,7.7-6.2,28.2-3.1,33.2
	c3.7,6,30.6-16.6,33.1-37.9C574.2,205.4,574.2,200.5,567,198.6z M563,216.7c-3.5,0-6.4-2.9-6.4-6.4s2.9-6.4,6.4-6.4
	c3.5,0,6.4,2.9,6.4,6.4S566.6,216.7,563,216.7z"/>
<path fill="#FFFFFF" stroke="#000000" stroke-miterlimit="10" d="M504.4,202.3c-1.3,8.6-5.4,31.3-13.3,29.5
	c-8.6-1.9-15.3-32.8-15.4-48.1c5.9,1.1,10.2-2,16.4,0.3c2.9,1.1,4.7,3.6,5.9,6.5c-1.1-1.9-3.2-3.2-5.6-3.2c-3.6,0-6.5,2.9-6.5,6.5
	c0,3.6,2.9,6.5,6.5,6.5c3.6,0,6.5-2.9,6.5-6.5c0-0.3,0-0.6-0.1-0.9c1.3,4.4,1.2,8.7,1.2,8.7S502.4,202.4,504.4,202.3z"/>
<path fill="#FFFFFF" stroke="#000000" stroke-miterlimit="10" d="M571.4,149.4c-2.3-3.4-4.8-5.8-6.5-7.2c-4.4,3.6-8.8,6.6-10.1,9.8
	c-7.4-11.6-32.8-5.2-32.8-5.2s-0.6-4.8-2.9-11.6c0-0.1,0-0.1-0.1-0.2c-5.8,0.9-10.2,2.9-13.5,5.3c5.4,4.9,19.6,18.5,19.3,26.2
	c-2,5.2-2.8,10.6-2.8,10.6s23.8,5.1,23.5,3.7c-0.2-1.4,0.4-12.3,0.4-12.3S561,153.4,571.4,149.4z M538.2,152
	c-2.6-0.9-6.3-1.5-9.3-1.8c-1-0.1-1-1.5-0.1-1.7c2.9-0.5,6.8-0.9,10.7-0.1c4.3,0.8,7.2,3.3,9,5.4c0.8,0.9-0.2,2.3-1.3,1.8
	C544.5,154.5,540.9,153,538.2,152z"/>
<path fill="#FFFFFF" stroke="#000000" stroke-miterlimit="10" d="M515.8,170.3c0,4.9-3.2,9.1-7.7,10.5c-1,0.3-2.1,0.5-3.2,0.5
	c-6,0-10.9-4.9-10.9-10.9c0-5.9,4.6-10.7,10.4-10.9c0.2,0,0.3,0,0.5,0C510.9,159.4,515.8,164.3,515.8,170.3z"/>
<path fill="#FFFFFF" stroke="#000000" stroke-miterlimit="10" d="M572.1,183.1c0,5.9-4.8,10.7-10.7,10.7c-3.3,0-6.3-1.5-8.2-3.9
	c-1.5-1.9-2.5-4.2-2.5-6.8c0-5.9,4.8-10.7,10.7-10.7c2.5,0,4.8,0.8,6.6,2.2C570.5,176.7,572.1,179.7,572.1,183.1z"/>
<circle fill="#FFFFFF" stroke="#000000" stroke-miterlimit="10" cx="563" cy="210.4" r="6.4"/>
<path fill="#FFFFFF" stroke="#000000" stroke-miterlimit="10" d="M498.8,193.8c0,3.6-2.9,6.5-6.5,6.5c-3.6,0-6.5-2.9-6.5-6.5
	c0-3.6,2.9-6.5,6.5-6.5c2.4,0,4.5,1.3,5.6,3.2c0,0,0,0,0,0c0.3,0.8,0.6,1.5,0.8,2.3c0,0,0,0,0,0.1
	C498.8,193.2,498.8,193.5,498.8,193.8z"/>
<path fill="#FFFFFF" stroke="#000000" stroke-miterlimit="10" d="M547.2,155.6c-2.6-1.1-6.3-2.6-9-3.6c-2.6-0.9-6.3-1.5-9.3-1.8
	c-1-0.1-1-1.5-0.1-1.7c2.9-0.5,6.8-0.9,10.7-0.1c4.3,0.8,7.2,3.3,9,5.4C549.3,154.7,548.3,156.1,547.2,155.6z"/>
</svg>
