<?xml version="1.0" encoding="utf-8"?>
<!-- Generator: Adobe Illustrator 25.2.0, SVG Export Plug-In . SVG Version: 6.00 Build 0)  -->
<svg version="1.1" baseProfile="tiny" id="Layer_1" xmlns="http://www.w3.org/2000/svg" xmlns:xlink="http://www.w3.org/1999/xlink"
	 x="0px" y="0px" viewBox="0 0 1000 1000" overflow="visible" xml:space="preserve">
<path fill="#FFFFFF" stroke="#000000" stroke-miterlimit="10" d="M516.44,136.61c-0.38-0.25-9.75-9.36-12.82-11.62
	c-3.08-2.27-9.16-1.45-9.16-1.45s-13.76,2.89-16.77,12.44c-4.81-0.88-8.33-4.04-9.84-5.65c0.3,5.65,0.6,10.26,0.77,11.12
	c0.07,0.32,0.33,0.9,0.76,1.67c2.97,5.36,13.82,20.08,19.68,20.95c6.71,0.99,11.39,1.67,15.08-1.18
	c2.61-2.03,10.98-11.89,15.96-18.47v-0.01c2.04-2.69,3.51-4.81,3.81-5.64c0.25-0.7,0.62-4.07,1.03-8.76
	C521.69,133.96,516.73,136.81,516.44,136.61z M507.01,146.28c-3.18,0.13-4.34-1.13-5.71-4.71c-1.38-3.58-2.49-3.66-5.13-3.58
	c-2.64,0.08-3.43,4.19-4.02,5.86c-0.58,1.68-2.97,5.78-8.54,0.84c-4.84-4.28,1.06-9.71,2.69-11.07c-0.05-0.01-0.08-0.01-0.08-0.01
	c0.17-0.3,0.45-0.61,0.82-0.93c2.04-1.84,6.67-3.81,9.3-3.59c2.17,0.17,5.94,2.51,7.97,3.86c0.01,0.01,0.01,0.01,0.01,0.01
	c0.84,0.56,1.38,0.95,1.38,0.95s-0.04,0.01-0.12,0.03C511.68,136.87,510.14,146.16,507.01,146.28z"/>
<path fill="#FFFFFF" stroke="#000000" stroke-miterlimit="10" d="M551.86,146.82c-0.25,2.52-0.9,5.38-1.82,8.27
	c-2.23,7.11-5.94,14.43-8.57,17.53c-2.84,3.34-7.04,7.49-8.23,13.25c-0.65,0.15-1.33,0.29-2,0.44c-0.48-2.25-0.73-4.81-0.17-6.87
	c0.29-1.13,0.84-2.11,1.7-2.8c4.87-3.86,10.73-14.57,13.74-27.3c3.01-12.73-3.01-22.95-9.55-30.31c-3.05-3.43-6.54-10.53-9.83-18.18
	v-0.03c-3.74-8.74-7.2-18.19-9.44-23.67c-0.82-2.02-1.63-3.81-2.44-5.36c-3.34-6.35-6.91-8.92-12.97-8.38
	c-4,0.36-9.24,2.8-14.28,6.88c-4.43,3.57-8.7,8.43-11.84,14.23c-4.73,8.75-6.38,19.43-9.18,28.65c-1.15,3.85-2.52,7.43-4.39,10.53
	c-6.36,10.55-14.57,17.09-13.74,24.8c0.6,5.53,6.11,13.72,10.55,25.66c1.18,3.21,2.29,6.68,3.22,10.46c-1.06-0.19-2.07-0.36-3-0.52
	c-0.86-2.52-2.89-8.35-4.42-12.82c-2.02-5.86-11.72-19.09-11.72-27.3s11.05-16.08,15.91-25.3c4.85-9.2,10.38-32.66,10.38-32.66
	c2.68-12.4,12.68-30.64,31.82-30.64c19.15,0,26.73,20.37,28.97,29.48c0.6,2.4,1.35,4.8,2.37,7.32c2.4,5.99,6.23,12.66,12.53,21.83
	C553.18,125.18,552.69,138.13,551.86,146.82z"/>
<path fill="#FFFFFF" stroke="#000000" stroke-miterlimit="10" d="M505.7,133.91c0,0-0.04,0.01-0.12,0.03
	c-0.78,0.15-5.46,0.98-9.24,0.98c-3.87,0-9.32-1.14-10.04-1.3c-0.05-0.01-0.08-0.01-0.08-0.01c0.17-0.3,0.45-0.61,0.82-0.93
	c2.64,0.01,7.54,0.03,11.3-0.01c2.31-0.03,4.34,0.09,5.97,0.28c0.01,0.01,0.01,0.01,0.01,0.01
	C505.16,133.51,505.7,133.91,505.7,133.91z"/>
<path fill="#FFFFFF" stroke="#000000" stroke-miterlimit="10" d="M504.31,132.94c-1.63-0.19-3.66-0.3-5.97-0.28
	c-3.75,0.04-8.66,0.03-11.3,0.01c2.04-1.84,6.67-3.81,9.3-3.59C498.51,129.25,502.28,131.59,504.31,132.94z"/>
<path fill="#FFFFFF" stroke="#000000" stroke-miterlimit="10" d="M507.01,146.28c-3.18,0.13-4.34-1.13-5.71-4.71
	c-1.38-3.58-2.49-3.66-5.13-3.58c-2.64,0.08-3.43,4.19-4.02,5.86c-0.58,1.68-2.97,5.78-8.54,0.84c-4.84-4.28,1.06-9.71,2.69-11.07
	c0.72,0.16,6.17,1.3,10.04,1.3c3.78,0,8.46-0.84,9.24-0.98C511.68,136.87,510.14,146.16,507.01,146.28z"/>
<path fill="#FFFFFF" stroke="#000000" stroke-miterlimit="10" d="M469.37,143.14l-3.51,19.52c0,0-4.4,7.37-6.44,11.51
	c-4.44-11.93-9.96-20.13-10.55-25.66c-0.84-7.7,7.37-14.24,13.74-24.8c1.87-3.1,3.24-6.68,4.39-10.53
	c0.24,5.07,0.56,11.62,0.86,17.16c0.3,5.65,0.6,10.26,0.77,11.12C468.68,141.78,468.95,142.37,469.37,143.14z"/>
<path fill="#FFFFFF" stroke="#000000" stroke-miterlimit="10" d="M517.69,77.16c-0.82-2.02-1.63-3.81-2.44-5.36
	c-6.26-1.11-17.41-2.63-27.25-1.5c-4.43,3.57-8.7,8.43-11.84,14.23c-4.73,8.75-6.38,19.43-9.18,28.65
	c0.24,5.07,0.56,11.62,0.86,17.16c1.51,1.6,5.03,4.77,9.84,5.65c3.01-9.55,16.77-12.44,16.77-12.44s6.09-0.82,9.16,1.45
	c3.08,2.25,12.44,11.36,12.82,11.62c0.29,0.2,5.25-2.65,8.49-6.59c0.73-8.14,1.59-20.26,2.2-29.17v-0.03
	C523.39,92.09,519.93,82.63,517.69,77.16z M481.34,90.47c5.12-0.25,9.47,3.85,9.47,3.85c0.76,1.26-0.84,1.35-1.34,1.35
	s-3.86-2.52-7.74-2.6c-3.78-0.08-8.78,3.92-9.08,4.18C472.86,96.86,476.4,90.71,481.34,90.47z M475.48,101.51
	c0,0,3.46-3.85,7.36-3.59c3.9,0.25,7.28,2.94,7.28,2.94s-2,3.02-6.5,2.96C479.13,103.77,475.48,101.51,475.48,101.51z
	 M502.74,122.54c-2.76,0.25-4.56-0.62-6.48-0.58c-1.91,0.05-3.53,1.17-6.14,0.81c-2.6-0.37-2.8-3.91-2.29-6.01
	c0.5-2.1,2.07-4.85,4.15-8.13c2.1-3.26,3.02-8.79,3.02-8.79c0.08-5.25,2.44-8.82,3.69,0.17c0.37,2.74,1.25,5.44,2.03,9.04
	c0.77,3.61,2.9,4.31,3.83,6.58C505.46,117.89,505.5,122.29,502.74,122.54z M510.57,103.82c-4.51-0.05-8.14-2.31-8.14-2.31
	s3.46-3.85,7.36-3.59c3.89,0.25,7.28,2.94,7.28,2.94S515.06,103.89,510.57,103.82z M517.69,96.16c-1.83-1.09-4.88-2.78-7.94-3.08
	c-4.07-0.4-8.05,3.24-8.92,2.72c-0.88-0.52,3.74-5.54,8.92-4.91c3.91,0.46,6.99,3.18,8.26,4.92
	C518.15,96.03,517.91,96.29,517.69,96.16z"/>
<path fill="#FFFFFF" stroke="#000000" stroke-miterlimit="10" d="M515.25,71.8c-6.26-1.11-17.41-2.63-27.25-1.5
	c5.04-4.08,10.28-6.52,14.28-6.88C508.34,62.88,511.91,65.45,515.25,71.8z"/>
<path fill="#FFFFFF" stroke="#000000" stroke-miterlimit="10" d="M489.47,95.67c-0.5,0-3.86-2.52-7.74-2.6
	c-3.78-0.08-8.78,3.92-9.08,4.18c0.21-0.38,3.75-6.54,8.7-6.78c5.12-0.25,9.47,3.85,9.47,3.85
	C491.57,95.57,489.98,95.67,489.47,95.67z"/>
<path fill="#FFFFFF" stroke="#000000" stroke-miterlimit="10" d="M490.12,100.87c0,0-2,3.02-6.5,2.96c-4.5-0.05-8.14-2.31-8.14-2.31
	s3.46-3.85,7.36-3.59C486.74,98.17,490.12,100.87,490.12,100.87z"/>
<path fill="#FFFFFF" stroke="#000000" stroke-miterlimit="10" d="M517.69,96.16c-1.83-1.09-4.88-2.78-7.94-3.08
	c-4.07-0.4-8.05,3.24-8.92,2.72c-0.88-0.52,3.74-5.54,8.92-4.91c3.91,0.46,6.99,3.18,8.26,4.92
	C518.15,96.03,517.91,96.29,517.69,96.16z"/>
<path fill="#FFFFFF" stroke="#000000" stroke-miterlimit="10" d="M517.06,100.87c0,0-2,3.02-6.5,2.96
	c-4.51-0.05-8.14-2.31-8.14-2.31s3.46-3.85,7.36-3.59C513.67,98.17,517.06,100.87,517.06,100.87z"/>
<path fill="#FFFFFF" stroke="#000000" stroke-miterlimit="10" d="M504.55,115.64c-0.93-2.27-3.06-2.97-3.83-6.58
	c-0.78-3.61-1.66-6.3-2.03-9.04c-1.25-8.99-3.61-5.42-3.69-0.17c0,0-0.93,5.53-3.02,8.79c-2.08,3.28-3.65,6.03-4.15,8.13
	c-0.5,2.1-0.31,5.64,2.29,6.01c2.61,0.36,4.23-0.76,6.14-0.81c1.92-0.04,3.73,0.84,6.48,0.58S505.46,117.89,504.55,115.64z
	 M491.01,118.31c0.49-0.88,2.76,1.37,3,1.6C493.58,119.6,490.51,119.2,491.01,118.31z M499.14,119.95c0.68-1.05,2.93-2.93,3.61-2.13
	C503.42,118.61,499.14,119.95,499.14,119.95z"/>
<path fill="#FFFFFF" stroke="#000000" stroke-miterlimit="10" d="M546.5,149.34c-3.01,12.73-8.87,23.44-13.74,27.3
	c-0.86,0.69-1.41,1.67-1.7,2.8l-11.73-18.09l0.76-16.92v-0.01c2.04-2.69,3.51-4.81,3.81-5.64c0.25-0.7,0.62-4.07,1.03-8.76
	c0.73-8.14,1.59-20.26,2.2-29.17c3.29,7.65,6.78,14.74,9.83,18.18C543.49,126.39,549.51,136.61,546.5,149.34z"/>
<path fill="#FFFFFF" stroke="#000000" stroke-miterlimit="10" d="M454.77,188.31c-0.38,1.25-0.93,2.47-1.63,3.66
	c-8.23,14.43-36.23,25.5-49.66,30.42c-3.81,1.41-6.44,2.31-7.13,2.65c-3.51,1.76-32.23,24.29-32.23,24.29
	c-0.09,0.19-0.21,0.4-0.32,0.61c-0.7-10.09-0.88-24.78,2.65-34.78c2.36-6.68,6.1-11.99,9.69-15.93c0.01-0.01,0.03-0.01,0.03-0.01
	c16.4-12.73,38.8-19.07,63.47-12.53C445.45,188.23,450.47,188.63,454.77,188.31z"/>
<path fill="#FFFFFF" stroke="#000000" stroke-miterlimit="10" d="M532.96,92.18c-1.02-2.52-1.78-4.92-2.37-7.32
	c-2.24-9.11-9.83-29.48-28.97-29.48c-19.15,0-29.14,18.25-31.82,30.64c0,0-5.53,23.46-10.38,32.66
	c-4.87,9.22-15.91,17.09-15.91,25.3s9.71,21.44,11.72,27.3c1.52,4.47,3.55,10.3,4.42,12.82c0.28,0.78,0.44,1.25,0.44,1.25
	s0.03,0.03,0.08,0.09c0.03,0.03,0.05,0.05,0.08,0.09l1.25,1.6c-2,0.58-4.23,0.99-6.71,1.17c-4.3,0.32-9.32-0.08-15.13-1.62
	c-24.68-6.54-47.07-0.2-63.47,12.53c0,0-0.01,0-0.03,0.01c-0.85,0.66-1.68,1.34-2.49,2.03c10.55-14.57,48.66-36.19,57.53-43.2
	c8.88-7.03,7.96-18.27,10.13-29.01c2.19-10.73,6.54-14.89,8.55-20.38c2-5.49,6.86-19.8,13.06-31.86
	c6.19-12.05,25.92-33.65,40.95-30.9c15.04,2.76,19.04,9.55,24.04,22.86C531.01,77.02,531.46,85.11,532.96,92.18z"/>
<path fill="#FFFFFF" stroke="#000000" stroke-miterlimit="10" d="M562.67,194.15c-2.85-0.19-6.42-0.66-10.16-1.27
	c-1.91-0.32-3.86-0.66-5.78-1.02c-0.98-0.19-1.95-0.37-2.92-0.56c-4.14-0.82-8.01-1.64-10.9-2.29c-0.36-0.08-0.69-0.16-1.02-0.23
	h-0.01c-0.23-0.74-0.45-1.58-0.64-2.47c0.68-0.15,1.35-0.29,2-0.44c1.19-5.75,5.4-9.91,8.23-13.25c2.63-3.1,6.34-10.42,8.57-17.53
	c3.46,18.42,14.85,21.57,26.44,32.01c11.77,10.61,15.17,15.46,16.16,18.09v0.01l0.01,0.01c0.07,0.17,0.12,0.33,0.16,0.48
	C593.56,208.22,574.23,194.9,562.67,194.15z"/>
<path fill="#FFFFFF" stroke="#000000" stroke-miterlimit="10" d="M386.55,312.23c0,0-13.06,39.7-15.08,50
	c-0.27,1.38-0.61,2.64-1.01,3.79c-1.87-2.81-4.52-6.18-8.29-10.08c-11.12-11.55-25.37-14.72-35.85-15.26
	c4.18-10.73,12.49-22.93,12.49-22.93s4.27-18.84,10.55-25.88c0.4-13.59,10.21-33.83,14.43-41.93c0.45,6.64,1.14,11.28,1.14,11.28
	S366.95,328.31,386.55,312.23z"/>
<path fill="#FFFFFF" stroke="#000000" stroke-miterlimit="10" d="M370.46,366.02c0,0.01,0,0.01,0,0.01c0,0.01-0.01,0.01-0.01,0.01
	c0,0.01-0.01,0.04-0.03,0.05c-0.24,0.48-1.59,3.14-3.42,6.7c0,0.01-0.03,0.03-0.03,0.03c-4.02,7.78-10.33,19.77-12.33,22.24
	c-2.86,3.51-5.26,8.78-8.27,16.57c-0.19,0.44-0.36,0.89-0.53,1.34c-4.19-5.18-13.96-1.64-24.05,5.87c-0.19,0.13-0.37,0.27-0.56,0.41
	c-7.29-16.08,2.76-69.1,2.76-69.1c0.05-2.69,0.98-6.01,2.33-9.48c10.49,0.54,24.73,3.71,35.85,15.26
	C365.94,359.84,368.59,363.21,370.46,366.02z"/>
<path fill="#FFFFFF" stroke="#000000" stroke-miterlimit="10" d="M599.34,247.92c0.13,0.17,0.32,0.42,0.54,0.74
	c-0.58-0.58-8.84-8.79-26.77-24.25v-0.01h-0.01c-8.9-7.68-15.67-16.12-20.31-22.85c0.04-2.93-0.04-5.83-0.28-8.67
	c3.74,0.61,7.31,1.09,10.16,1.27c11.56,0.76,30.9,14.07,30.15,11.55c-0.04-0.15-0.09-0.3-0.16-0.48
	C597.1,210.51,602.51,222.42,599.34,247.92z"/>
<path fill="#FFFFFF" stroke="#000000" stroke-miterlimit="10" d="M624.97,302.43c0,0-2.02,5.28-14.32,12.29
	c-12.32,7.01-35.68-2.82-35.68-2.82c-3.69-5.37-6.97-9.67-9.76-13.05c-2.12-2.56-3.95-4.6-5.46-6.19
	c0.77-4.16,1.87-10.38,3.42-19.62c2.68-3.62,4.8-7.2,6.47-10.69c7.65-16,5.69-30.14,3.47-37.94c17.93,15.46,26.19,23.67,26.77,24.25
	c0.03,0.03,0.04,0.04,0.04,0.04C603.64,253.79,618.83,275.79,624.97,302.43z"/>
<path fill="#FFFFFF" stroke="#000000" stroke-miterlimit="10" d="M646.27,348.62c-10.41,7.58-31.41,19.57-38.47,24.13
	c-5.3-6.99-8.5-21.92-11.47-25.35c-3.26-3.77-14.57-16.5-21.36-35.51c0,0,23.36,9.84,35.68,2.82c12.31-7.01,14.32-12.29,14.32-12.29
	C630.17,310.09,639.81,328.72,646.27,348.62z"/>
<path fill="#FFFFFF" stroke="#000000" stroke-miterlimit="10" d="M672.2,422.52c0,0-0.58-0.48-1.54-1.19
	c-3.08-2.31-10.08-7.04-14.29-6.09c-5.53,1.25-14.32,7.28-14.32,7.28s-26.37-42.21-32.66-47.99c-0.56-0.5-1.09-1.1-1.59-1.78
	c7.05-4.56,28.06-16.55,38.47-24.13c0.73,2.27,1.43,4.53,2.07,6.82c6.29,22.36,12.56,48.74,15.83,53.77
	C667.43,414.23,672.2,422.52,672.2,422.52z"/>
<path fill="#FFFFFF" stroke="#000000" stroke-miterlimit="10" d="M422.54,235.88c-1.41,9.67-5.22,25.72-10.86,40.68
	c-1.5,3.95-3.54,7.9-5.83,11.64c-2.15,3.51-4.51,6.84-6.82,9.84v0.01c-6.43,8.35-12.48,14.17-12.48,14.17
	c-19.6,16.08-21.61-51-21.61-51s-0.69-4.64-1.14-11.28c0.11-0.21,0.23-0.42,0.32-0.61c0,0,28.72-22.53,32.23-24.29
	c0.69-0.34,3.33-1.25,7.13-2.65C407.23,225.22,414.1,230.25,422.54,235.88z"/>
<path fill="#FFFFFF" stroke="#000000" stroke-miterlimit="10" d="M519.41,301.64c-0.15,0.65-0.29,1.25-0.46,1.79
	c-11.31,0.76-22.36,2.57-38.19-5.14c-2.17-1.06-4.14-2.65-5.93-4.61c-9-9.88-13.31-29.11-14.68-36.36c12,5.32,23.32,8.35,31.16,6.17
	c2.45-0.69,4.68-1.33,6.71-1.92c7.17,18.36,14.89,38.02,14.89,38.02S516.67,300.96,519.41,301.64z"/>
<path fill="#FFFFFF" stroke="#000000" stroke-miterlimit="10" d="M569.64,262.34c-1.67,3.49-3.79,7.07-6.47,10.69
	c-1.55,9.24-2.65,15.46-3.42,19.62c-1.07,5.74-1.5,7.57-1.59,7.94c-14.33,7.37-30.02,6.05-39.21,2.84c0.17-0.54,0.32-1.14,0.46-1.79
	c1.52,0.37,2.74,0.54,2.8,0.12c0.09-0.61,9.3-17.25,17.58-39.77h0.01c4.11,1.23,8,2.17,10.79,2.36
	C557.81,264.82,564.22,264.4,569.64,262.34z"/>
<path fill="#FFFFFF" stroke="#000000" stroke-miterlimit="10" d="M569.64,262.34c-5.42,2.06-11.83,2.48-19.04,2.02
	c-2.8-0.19-6.68-1.13-10.79-2.36c6.67-18.11,12.74-40.04,12.98-60.45c4.64,6.72,11.42,15.17,20.31,22.85h0.01v0.01
	C575.33,232.2,577.29,246.34,569.64,262.34z"/>
<path fill="#FFFFFF" stroke="#000000" stroke-miterlimit="10" d="M479.74,594.1c-0.04,0.07-0.07,0.13-0.09,0.2
	c-15.01,6.21-22.69,3.54-32.8-10.5c-11.05-15.33-9.55-65.3-9.55-65.3l-9.71-23.62c0,0,2.93-70.34,4.15-72.36
	c1.01-1.66,5.33-21.08,6.82-27.85c5.57,1.62,12.28,3.63,18.78,5.77l-10.99,15.29l-10.3,79.9l9.06,14.07c0,0-2.02,64.06,9.04,78.38
	C461.9,598.16,473.53,596.17,479.74,594.1z"/>
<path fill="#FFFFFF" stroke="#000000" stroke-miterlimit="10" d="M458.66,940.58c-15.08-4.03-29.15-36.94-31.92-51.26
	c-2.76-14.32-6.27-20.59-9.6-32.15c-3.33-11.56,3.83-20.1,6.09-28.14c2.27-8.04-7.03-52.76-7.03-52.76c0-0.57-2.13-10-4.53-23.32
	h-0.01c-1.22-6.78-2.52-14.57-3.66-22.7c3.09,1.96,8.08,5.16,13.07,8.5c6.5,4.35,13.02,8.94,15.47,11.39
	c8.86,2.74,14.89-10.08,22.09-14.27c0.15-0.09,0.28-0.17,0.42-0.24c-1.37,6.59-3.67,18.75-3.67,25.82c0,3.49,0.4,13.46,0.97,25.25
	c1.09,22.21,2.82,50.88,3.81,54.64c1.51,5.78,5.78,35.43,9.06,43.97c3.26,8.54,9.55,24.62,13.26,38.69
	C486.18,938.06,473.73,944.6,458.66,940.58z"/>
<path fill="#FFFFFF" stroke="#000000" stroke-miterlimit="10" d="M553.6,910.43c-12.85,2-28.87-10.05-37.03-18.59
	c-8.17-8.54-10.42-28.64-10.17-30.91c0.25-2.25-8.05-3.77-14.07-13.06c-6.03-9.3,6.78-33.41,8.29-53.52
	c0.12-1.56,0.2-3.25,0.27-5.04c0.65-21.22-2.78-56.26-2.78-56.26c-0.25-1.07-0.5-2.13-0.73-3.18c5.62,0.93,14.69,3.35,20.58,9.53
	c8.31,8.71,14.51,21.94,21.12,27.74c-2.89,13.19-5.16,23.59-5.79,27.21c-0.32,1.79-0.58,3.51-0.81,5.16
	c-2.67,20.05,1.82,29.95,4.83,47.6c7.04,8.79,23.11,41.95,24.37,46.98C562.92,899.12,566.43,908.41,553.6,910.43z"/>
<path fill="#FFFFFF" stroke="#000000" stroke-miterlimit="10" d="M348.33,433.73c-4.28,4.18-18.46,1.25-21.24,1.7
	c-2.94,0.48-2.41,6.54-1.27,10.22c0.05,0.2,0.12,0.38,0.19,0.57c-1.71,0.05-3.08,0.94-4.15,2.13c-0.9,0.99-1.6,2.2-2.13,3.28
	c-0.8,1.58-1.25,2.89-1.45,2.9c-1.33-6.26,2.23-28.22,3.51-35.68c10.09-7.52,19.86-11.06,24.05-5.87c0.17-0.45,0.34-0.9,0.53-1.34
	c1.46,1.45,3.06,3.12,4.43,4.72c-0.74-0.34-13.72-6.27-10.14,9.85C340.66,426.21,345.09,430.28,348.33,433.73z"/>
<path fill="#FFFFFF" stroke="#000000" stroke-miterlimit="10" d="M352.96,444.25v0.01c-3.81,5.49-24.08,1.55-27.14,1.38
	c-1.14-3.69-1.67-9.75,1.27-10.22c2.78-0.45,16.96,2.48,21.24-1.7c1.22,1.3,2.28,2.49,2.88,3.37
	C352.35,438.76,352.79,441.77,352.96,444.25z"/>
<path fill="#FFFFFF" stroke="#000000" stroke-miterlimit="10" d="M676.47,460.59c-4.39,4.27-10.42,0.12-10.42,0.12
	c11.68-18.09,4.52-25.38,4.52-25.38s-8.54-12.44-8.67,3.65c-0.03,4.42-4.27,14.07-5.53,15.33c-1.19,1.21-3.58,5.42-1.63,8.71
	c-5.12-1.58-8.49-7.74-10.05-10.98c-1.88-3.89,1.51-9.67,1.51-9.67c-8.17-6.15-4.15-19.85-4.15-19.85s8.79-6.03,14.32-7.28
	c4.22-0.95,11.22,3.78,14.29,6.09c2.56,3.96,7.48,11.84,9.57,16.89C683.13,445.22,680.88,456.31,676.47,460.59z"/>
<path fill="#FFFFFF" stroke="#000000" stroke-miterlimit="10" d="M666.05,460.71c0,0-0.89,1.88-7.92,2.64
	c-1.21,0.13-2.33,0-3.39-0.33c-1.95-3.29,0.44-7.51,1.63-8.71c1.26-1.26,5.5-10.91,5.53-15.33c0.13-16.08,8.67-3.65,8.67-3.65
	S677.73,442.62,666.05,460.71z"/>
<path fill="#FFFFFF" stroke="#000000" stroke-miterlimit="10" d="M531.24,186.31c-10.18,2.21-21.97,5.2-28.43,7.92
	c-5.37-2.92-23.64-6.59-36.45-8.92c-1.31-0.24-2.56-0.46-3.73-0.68c-0.93-3.78-2.04-7.25-3.22-10.46
	c2.04-4.14,6.44-11.51,6.44-11.51l3.51-19.52c2.97,5.36,13.82,20.08,19.68,20.95c6.71,0.99,11.39,1.67,15.08-1.18
	c2.61-2.03,10.98-11.89,15.96-18.47l-0.76,16.92l11.73,18.09C530.51,181.5,530.76,184.06,531.24,186.31z"/>
<path fill="#FFFFFF" stroke="#000000" stroke-miterlimit="10" d="M534.94,219.35l-8.45,19.76l8.31-1.15
	c-0.19,0.64-0.3,1.09-0.37,1.34c-0.01,0.05-0.03,0.08-0.04,0.12c-0.01,0.07-0.03,0.09-0.03,0.09l-6.75,18.3l-7.09,19.21v0.01
	l-3.5,9.48l-8.74-28.2l-1.63-5.25c0,0-0.01-0.04-0.04-0.12c-0.01-0.05-0.04-0.12-0.07-0.2l-1.25-4.04l5.61-8.33l-10.66-1.26
	l2.53-12.15l-11.42-2.8c-0.09-0.13-0.19-0.25-0.27-0.38l23.07-28.72l20.76-0.84l-16.91,30.66L534.94,219.35z"/>
<path fill="#FFFFFF" stroke="#000000" stroke-miterlimit="10" d="M498.02,261.56c-2.03,0.6-4.26,1.23-6.71,1.92
	c-7.84,2.19-19.16-0.85-31.16-6.17c0-0.01,0-0.01,0-0.01c-12.9-5.71-26.6-14.07-37.62-21.43c-8.43-5.62-15.3-10.66-19.05-13.49
	c13.43-4.92,41.42-15.99,49.66-30.42c6.1,6.18,29.98,30.99,36.25,47.31C491.63,245.14,494.78,253.22,498.02,261.56z"/>
<path fill="#FFFFFF" stroke="#000000" stroke-miterlimit="10" d="M505.3,248.7l1.25,4.04c-0.46-1.25-2.51-6.39-9.59-19.65
	c-1.38-2.6-3.33-5.65-5.6-8.92l11.42,2.8l-2.53,12.15l10.66,1.26L505.3,248.7z"/>
<path fill="#FFFFFF" stroke="#000000" stroke-miterlimit="10" d="M552.79,201.55c-0.24,20.41-6.31,42.34-12.98,60.45h-0.01
	c-8.29,22.52-17.49,39.16-17.58,39.77c-0.05,0.42-1.27,0.25-2.8-0.12c-2.74-0.69-6.5-2.07-6.5-2.07s-7.72-19.65-14.89-38.02
	c-3.25-8.34-6.39-16.42-8.63-22.28c-6.27-16.32-30.15-41.13-36.25-47.31c0.7-1.19,1.25-2.41,1.63-3.66
	c2.48-0.17,4.71-0.58,6.71-1.17h0.01c0.04,0,0.09-0.01,0.13-0.03c0.56,0.62,1.23,1.41,2.02,2.31c6.18,7.13,19.01,22.25,27.46,34.36
	l-0.21,0.27l0.48,0.12c2.27,3.28,4.22,6.32,5.6,8.92c7.08,13.26,9.12,18.4,9.59,19.65c0.03,0.08,0.05,0.15,0.07,0.2
	c0.03,0.08,0.04,0.12,0.04,0.12l1.63,5.25l8.74,28.2l3.5-9.48v-0.01l7.09-19.21l6.75-18.3c0,0,0.01-0.03,0.03-0.09
	c0.01-0.04,0.03-0.07,0.04-0.12l0.5-1.35l-0.13,0.01c1.91-6.86,9.41-34.74,9-46.66c0.97,0.19,1.94,0.37,2.92,0.56
	c1.92,0.36,3.87,0.7,5.78,1.02C552.75,195.71,552.83,198.62,552.79,201.55z"/>
<path fill="#FFFFFF" stroke="#000000" stroke-miterlimit="10" d="M534.81,237.96l-8.31,1.15l8.45-19.76l-16.91,5.53l16.91-30.66
	l-20.76,0.84l-23.07,28.72c-8.45-12.11-21.28-27.22-27.46-34.36c-0.78-0.9-1.46-1.68-2.02-2.31c0,0,0,0,0-0.01
	c-0.68-0.77-1.15-1.3-1.39-1.56c-0.03-0.04-0.05-0.07-0.08-0.09c-0.05-0.07-0.08-0.09-0.08-0.09s-0.16-0.46-0.44-1.25
	c0.93,0.16,1.94,0.33,3,0.52c1.17,0.21,2.41,0.44,3.73,0.68c12.81,2.33,31.08,6.01,36.45,8.92c6.46-2.72,18.25-5.7,28.43-7.92
	c0.19,0.89,0.41,1.72,0.64,2.47h0.01c0.33,0.07,0.66,0.15,1.02,0.23c2.89,0.65,6.76,1.47,10.9,2.29
	C544.22,203.22,536.72,231.1,534.81,237.96z"/>
<path fill="#FFFFFF" stroke="#000000" stroke-miterlimit="10" d="M558.14,327.2v3.78c-2.94,3.79-7.68,9.61-9.55,11.66
	c-0.81,6.67-2.57,27.83-3.71,41.95c-6.36,4.59-13.13,8.95-17.14,9.97c-8.43,2.13-32.18-2.88-46.02-8.37
	c-2.52-17.66-10.41-43.65-16.79-52.6c-12.42-4.67-32.1-17.16-43.19-24.53h-0.01c-1.72-2.56-3.57-5.12-5.38-7.56
	c-4.16-5.6-8.18-10.54-10.5-13.3c2.29-3.74,4.34-7.69,5.83-11.64c5.64-14.96,9.45-31.01,10.86-40.68
	c11.02,7.36,24.72,15.71,37.62,21.43c0,0,0,0,0,0.01c1.37,7.25,5.68,26.48,14.68,36.36c-1.59,8.27-3.71,24.04,1.15,31.61
	c6.79,10.55,17.33,18.84,42.96,8.3c0,0,0.01-0.04,0.03-0.13c4.2,3.45,11.62,7.41,21.84,5.01
	C550.41,336.23,555.53,331.13,558.14,327.2z"/>
<path fill="#FFFFFF" stroke="#000000" stroke-miterlimit="10" d="M518.97,333.45c-0.01,0.09-0.03,0.13-0.03,0.13
	c-25.63,10.54-36.17,2.25-42.96-8.3c-4.87-7.57-2.74-23.34-1.15-31.61c1.79,1.96,3.75,3.55,5.93,4.61
	c15.83,7.72,26.88,5.9,38.19,5.14C523.27,310.4,519.32,331.63,518.97,333.45z"/>
<path fill="#FFFFFF" stroke="#000000" stroke-miterlimit="10" d="M481.71,386.19c-1.27-0.5-2.47-1.02-3.55-1.52
	c-11.89-5.56-32.1-15.28-46.99-16.47c0.07-1.49,0.13-2.96,0.19-4.46c0-0.01,0-0.01,0-0.01c0.61-15.45,0.54-31.12-0.58-37.18
	c-0.82-4.38-4.57-10.91-9.03-17.49c11.09,7.37,30.76,19.86,43.19,24.53C471.31,342.54,479.19,368.53,481.71,386.19z"/>
<path fill="#FFFFFF" stroke="#000000" stroke-miterlimit="10" d="M431.35,363.73c0,0,0,0,0,0.01c-0.7,1.33-1.45,2.77-2.21,4.35
	c-8.65,17.52-21.27,50.14-23.34,93.99c-3.18,67.64,7.37,135.4-1.92,167.84c-7.24,25.27-24.28,83.68-32.74,110.97
	c-5.24,0.53-10.98,0.73-17-0.3c-17.6-3.01-16.34-23.36-28.39-24.12c-6.36-0.4-13.84,2.56-21.4,5.62
	c12.07-25.03,33.63-81.03,48.7-110.64c18.76-36.84,22.1-123.94,36.17-156.92c14.07-32.98,8.04-81.59,14.65-99.67
	c5.38-14.73-1.94-45.79-4.85-56.8v-0.01c2.31-3,4.67-6.32,6.82-9.84c2.32,2.76,6.34,7.7,10.5,13.3c1.82,2.44,3.66,5,5.38,7.56h0.01
	c4.46,6.58,8.21,13.11,9.03,17.49C431.9,332.61,431.96,348.28,431.35,363.73z"/>
<path fill="#FFFFFF" stroke="#000000" stroke-miterlimit="10" d="M431.17,368.2c-0.42,8.7-1.03,17.03-1.78,23.15
	c0,0-0.05,0.24-0.16,0.72c-1.17,5.04-8.23,36.82-15.81,93.77c-8.29,62.31,11.64,107.19,8.29,134.16
	c-1.82,14.69-4.87,20.38-8.06,27.85c-2.68,6.23-5.46,13.7-7.76,28.68c-2.2,14.39-0.5,34.98,2.1,53.72
	c1.14,8.13,2.44,15.92,3.66,22.7c-5.34-3.77-13.43-9.43-17.82-12.36c-4.46-2.97-12.62-0.73-22.69,0.3
	c8.46-27.29,25.5-85.7,32.74-110.97c9.3-32.45-1.26-100.2,1.92-167.84c2.07-43.85,14.69-76.47,23.34-93.99
	C429.8,368.1,430.48,368.14,431.17,368.2z"/>
<path fill="#FFFFFF" stroke="#000000" stroke-miterlimit="10" d="M352.62,455.7c-1.06,0.38-2.43,0.74-4.18,0.99
	c-6.36,0.91-26.59-8.34-26.59-8.34c1.07-1.19,2.44-2.08,4.15-2.13c-0.07-0.19-0.13-0.37-0.19-0.57c3.06,0.17,23.34,4.11,27.14-1.38
	c0.04,0.56,0.07,1.07,0.08,1.55c-0.3,0.32-0.49,0.49-0.49,0.49s0.25,0.8,0.48,1.99C353.4,450.3,353.7,453.39,352.62,455.7z"/>
<path fill="#FFFFFF" stroke="#000000" stroke-miterlimit="10" d="M352.62,455.7c-0.01,0.05-0.04,0.11-0.07,0.16
	c-1.13,2.25-5.6,5.26-9.76,7.56c-2.36-0.48-5.41-1.18-8.98-2.2c-8.55-2.44-14.1-9.59-14.1-9.59c0.53-1.07,1.23-2.28,2.13-3.28
	c0,0,20.22,9.26,26.59,8.34C350.19,456.44,351.56,456.08,352.62,455.7z"/>
<path fill="#FFFFFF" stroke="#000000" stroke-miterlimit="10" d="M342.79,463.41c-2.64,1.46-5.17,2.63-6.66,3.16
	c-2.6,0.9-8.51-1.98-12.88-5.6c-2.12-1.76-3.87-3.7-4.68-5.46c-0.12-0.27-0.23-0.58-0.3-0.98c0.2-0.01,0.65-1.33,1.45-2.9
	c0,0,5.54,7.15,14.1,9.59C337.38,462.23,340.43,462.94,342.79,463.41z"/>
<path fill="#FFFFFF" stroke="#000000" stroke-miterlimit="10" d="M356.57,439.6c-0.25,2.47-2.53,5.14-3.53,6.22
	c-0.01-0.48-0.04-0.99-0.08-1.55v-0.01c-0.17-2.48-0.61-5.49-1.75-7.16c-0.6-0.88-1.66-2.07-2.88-3.37
	c-3.25-3.45-7.68-7.52-7.68-7.52c-3.58-16.12,9.4-10.2,10.14-9.85c0.01,0.01,0.03,0.01,0.03,0.01c1.67,1.94,3.02,3.78,3.39,4.99
	C355.39,425.2,356.9,436.42,356.57,439.6z"/>
<path fill="#FFFFFF" stroke="#000000" stroke-miterlimit="10" d="M403.88,354.86c-6.62,18.09-0.58,66.7-14.65,99.67
	c-14.07,32.98-17.41,120.08-36.17,156.92c-15.08,29.61-36.64,85.61-48.7,110.64c-6.78,2.76-13.63,5.6-19.81,6.19
	c-13.06,1.26-33.16-7.28-52.76-13.82c-19.19-6.4-32.12-0.27-32.65-0.01c1.07-1.45,69.93-93.67,82.9-121.09
	c11.76-24.89,36.42-114.76,41.22-132.39c4.36,3.62,10.28,6.5,12.88,5.6c1.49-0.53,4.02-1.7,6.66-3.16c4.16-2.29,8.63-5.3,9.76-7.56
	c0.03-0.05,0.05-0.11,0.07-0.16c1.09-2.31,0.78-5.4,0.41-7.4c0.01-0.24,0.04-1.19,0.01-2.48c0.99-1.07,3.28-3.75,3.53-6.22
	c0.33-3.18-1.18-14.4-2.35-18.25c-0.37-1.21-1.72-3.05-3.39-4.99c0,0-0.01,0-0.03-0.01c-1.37-1.6-2.97-3.28-4.43-4.72
	c3.01-7.8,5.41-13.06,8.27-16.57c2-2.47,8.31-14.45,12.33-22.24c0,0,0.03-0.01,0.03-0.03c1.19-1.62,2.47-3.83,3.42-6.7
	c0.01-0.01,0.03-0.04,0.03-0.05c0,0,0.01,0,0.01-0.01c0,0,0,0,0-0.01c0.4-1.15,0.74-2.41,1.01-3.79c2.02-10.3,15.08-50,15.08-50
	s6.05-5.82,12.48-14.17C401.94,309.07,409.26,340.12,403.88,354.86z"/>
<path fill="#FFFFFF" stroke="#000000" stroke-miterlimit="10" d="M497.36,729.87c-13.33-60.15,8.04-89.24,9.03-101.58
	c-2.1-5.61-3.17-16.08-3.77-27.2c-0.07-1.35-0.13-2.7-0.2-4.07c-0.56-13.05-0.56-26.27-0.81-33.06c-2.4-6.9-6.55-29.13-9.24-44.33
	c-8.41,21.84-3.31,40.61-6.59,56.14c-1.62,7.65-3.69,13.09-6.05,18.33c1.01-0.33,1.88-0.66,2.56-0.95
	c-0.91,0.42-1.79,0.81-2.65,1.15c-3.13,6.91-6.75,13.55-10.44,24.56c-6.54,19.48-2.77,72.74-3.02,84.29
	c-0.13,5.79-3.16,17.58-6.14,27.9c-0.01,0.01-0.01,0.04-0.01,0.05c-0.08,0.33-0.46,2.03-0.98,4.52c-1.37,6.59-3.67,18.75-3.67,25.82
	c0,3.49,0.4,13.46,0.97,25.25c5.05-5.22,12.49-12.93,19.27-11.18c5.94,1.55,17.36,8.61,25.26,13.8c0.65-21.22-2.78-56.26-2.78-56.26
	C497.84,731.98,497.59,730.92,497.36,729.87z"/>
<path fill="#FFFFFF" stroke="#000000" stroke-miterlimit="10" d="M431.76,681.05v46.98l-10.7,10.71c-5-3.34-9.98-6.54-13.07-8.5
	c-2.6-18.74-4.3-39.33-2.1-53.72c2.29-14.98,5.08-22.45,7.76-28.68C420.03,659.23,431.76,681.05,431.76,681.05z"/>
<path fill="#FFFFFF" stroke="#000000" stroke-miterlimit="10" d="M469.21,618.86c-6.54,19.48-2.77,72.74-3.02,84.29
	c-0.13,5.79-3.16,17.58-6.14,27.9c-0.01,0.01-0.01,0.04-0.01,0.05c-0.48,1.63-0.95,3.24-1.41,4.76
	c-7.2,4.19-13.23,17.01-22.09,14.27c-2.45-2.45-8.98-7.04-15.47-11.39l10.7-10.71v-46.98c0,0-11.73-21.81-18.11-33.2
	c3.2-7.47,6.25-13.15,8.06-27.85c3.35-26.97-16.57-71.85-8.29-134.16c7.57-56.95,14.64-88.73,15.81-93.77
	c0.03,0.01,0.05,0.01,0.08,0.01c2.32,0.65,5.53,1.54,9.24,2.6c-1.49,6.76-5.81,26.19-6.82,27.85c-1.22,2.02-4.15,72.36-4.15,72.36
	l9.71,23.62c0,0-1.5,49.98,9.55,65.3c10.12,14.04,17.79,16.71,32.8,10.5C476.52,601.21,472.9,607.85,469.21,618.86z"/>
<path fill="#FFFFFF" stroke="#000000" stroke-miterlimit="10" d="M558.16,300.6c-0.01,0.05-0.01,0.08-0.01,0.08v26.52
	c-2.61,3.94-7.73,9.03-17.33,11.27c-10.22,2.4-17.64-1.56-21.84-5.01c0.34-1.83,4.3-23.06-0.03-30.02
	C528.14,306.64,543.82,307.97,558.16,300.6z"/>
<path fill="#FFFFFF" stroke="#000000" stroke-miterlimit="10" d="M556.38,683.05c-1.71,12.15-8.3,42.82-14.03,69.08
	c-2.25-4.27-5.95-11.51-6.07-11.88c-0.16-0.5,5.37-55.61,5.7-56.61c0.25-0.78,9.3-17.22,14.27-25.84
	C557.2,664.94,557.68,673.82,556.38,683.05z"/>
<path fill="#FFFFFF" stroke="#000000" stroke-miterlimit="10" d="M559.91,591.86c-3.28,42.21-7.04,50.24-7.04,50.24
	s2.11,6.32,3.38,15.69c0,0,0,0,0,0.01c-4.97,8.62-14.02,25.06-14.27,25.84c-0.33,0.99-5.86,56.1-5.7,56.61
	c0.12,0.37,3.82,7.61,6.07,11.88c-1.14,5.24-2.25,10.3-3.29,15.01c-6.62-5.79-12.81-19.03-21.12-27.74
	c-5.89-6.18-14.96-8.61-20.58-9.53c-13.33-60.15,8.04-89.24,9.03-101.58c-2.1-5.61-3.17-16.08-3.77-27.2
	c6.17-1.43,28.85-7.41,38.19-18.52c10.54-12.57,12.78-66.59,12.78-66.59s14.35-10.54,15.35-18.84c0.65-5.4,0.45-30.47,0.24-47.32
	C573.99,481.94,579.96,502.61,559.91,591.86z"/>
<path fill="#FFFFFF" stroke="#000000" stroke-miterlimit="10" d="M565.93,489.85c-1.01,14.07-16.07,22.36-16.07,22.36
	s-4.52,61.3-10.81,68.09c-5.52,5.95-30.59,14.68-36.62,16.72c-0.56-13.05-0.56-26.27-0.81-33.06c-2.4-6.9-6.55-29.13-9.24-44.33
	c-8.41,21.84-3.31,40.61-6.59,56.14c-1.62,7.65-3.69,13.09-6.05,18.33c-6.21,2.07-17.83,4.06-25.6-6.02
	c-11.06-14.32-9.04-78.38-9.04-78.38l-9.06-14.07l10.3-79.9l10.99-15.29c9.91,3.25,19.36,6.8,23.68,9.68
	c11.06,7.37,29.9,21.77,29.9,21.77h12.31c0,0,21.44-23.42,35.42-31.41c1.31,2.53,3.26,7.4,5.3,16.47c0,0.01,0,0.01,0,0.01
	C564.88,437.08,566.68,479.25,565.93,489.85z"/>
<path fill="#FFFFFF" stroke="#000000" stroke-miterlimit="10" d="M568.95,497.13c-1.01,8.3-15.35,18.84-15.35,18.84
	s-2.24,54.02-12.78,66.59c-9.33,11.11-32.02,17.09-38.19,18.52c-0.07-1.35-0.13-2.7-0.2-4.07c6.03-2.04,31.11-10.77,36.62-16.72
	c6.29-6.79,10.81-68.09,10.81-68.09s15.06-8.29,16.07-22.36c0.76-10.61-1.05-52.77-1.99-72.89c1.34,5.97,2.73,13.76,4,23.89
	c0.38,3.1,0.81,6.05,1.23,8.91c0.01,0.01,0.01,0.03,0.01,0.04C569.4,466.66,569.6,491.74,568.95,497.13z"/>
<path fill="#FFFFFF" stroke="#000000" stroke-miterlimit="10" d="M560.65,399.41c-0.65,0.32-1.33,0.68-2.02,1.07
	c-13.98,8-35.42,31.41-35.42,31.41h-12.31c0,0-18.84-14.4-29.9-21.77c-4.32-2.88-13.78-6.43-23.68-9.68
	c-6.5-2.13-13.21-4.15-18.78-5.77c-3.71-1.06-6.92-1.95-9.24-2.6c0.03-0.24,0.05-0.48,0.08-0.73c0.74-6.13,1.35-14.45,1.78-23.15
	c14.89,1.19,35.1,10.91,46.99,16.47c1.09,0.5,2.28,1.02,3.55,1.52c13.84,5.49,37.59,10.5,46.02,8.37
	c4.02-1.02,10.78-5.38,17.14-9.97c5.08-3.69,9.89-7.51,12.84-9.89c0.13,0.45,0.28,0.9,0.42,1.35
	C558.14,376.05,563.09,390.7,560.65,399.41z"/>
<path fill="#FFFFFF" stroke="#000000" stroke-miterlimit="10" d="M558.14,331.32c0,0-5.74,25.56-0.42,43.37
	c-2.94,2.39-7.76,6.21-12.84,9.89c1.14-14.12,2.9-35.28,3.71-41.95c1.87-2.04,6.6-7.86,9.55-11.66V331.32z"/>
<path fill="#FFFFFF" stroke="#000000" stroke-miterlimit="10" d="M605.49,586.33c-2.13,128.63-49.11,231.64-49.11,231.64s0,0-2-6.27
	c-1.63-5.08-14.89-10.16-21.92-12.19c0.23-1.64,0.49-3.37,0.81-5.16c0.64-3.62,2.9-14.02,5.79-27.21c1.03-4.71,2.15-9.77,3.29-15.01
	c5.73-26.27,12.32-56.94,14.03-69.08c1.3-9.23,0.82-18.11-0.13-25.25c0-0.01,0-0.01,0-0.01c-1.27-9.36-3.38-15.69-3.38-15.69
	s3.77-8.04,7.04-50.24c20.05-89.25,14.08-109.92,9.28-142.05c0-0.01,0-0.03-0.01-0.04c-0.42-2.86-0.85-5.81-1.23-8.91
	c-1.27-10.13-2.67-17.93-4-23.89c0,0,0,0,0-0.01c-2.04-9.07-3.99-13.94-5.3-16.47c0.69-0.4,1.37-0.76,2.02-1.07
	c2.44-8.71-2.51-23.36-2.51-23.36c-0.15-0.45-0.29-0.9-0.42-1.35c-5.32-17.81,0.42-43.37,0.42-43.37v-30.64c0,0,0-0.03,0.01-0.08
	c0.09-0.37,0.52-2.2,1.59-7.94c1.51,1.59,3.34,3.63,5.46,6.19c-6.11,27.83,9.79,44.78,16.8,75.57
	C590.05,409.71,607.64,457.7,605.49,586.33z"/>
</svg>
