<?xml version="1.0" encoding="utf-8"?>
<!-- Generator: Adobe Illustrator 25.2.0, SVG Export Plug-In . SVG Version: 6.00 Build 0)  -->
<svg version="1.1" baseProfile="tiny" id="Layer_1" xmlns="http://www.w3.org/2000/svg" xmlns:xlink="http://www.w3.org/1999/xlink"
	 x="0px" y="0px" viewBox="0 0 1000 1000" overflow="visible" xml:space="preserve">
<path fill="#FFFFFF" stroke="#000000" stroke-miterlimit="10" d="M413.34,389.49c-1.78-7.66-10.01-13.04-12.15-14.32
	c-0.34-0.21-0.7-0.35-1.09-0.43c-0.09-0.02-0.19-0.04-0.3-0.06c-5.61,3.85-11.11,10.4-13.7,14.3c-0.63-2.45-2.68-9.82-3.48-11.89
	c-1.26,0.73-2.48,1.62-3.64,2.73c-0.19,0.19-0.39,0.38-0.58,0.58c-0.78,0.81-1.49,1.66-2.14,2.55c1.54,1.33,3.61,3.32,5,5.42
	c2.45,3.7,2.31,12.3,1.96,13.73c-0.34,1.33-9.33,1.97-12.24-6.6c-0.16,0.91-0.28,1.79-0.36,2.64c0,0,0,0,0,0.01
	c1.28,2.08,3.14,4.88,4.13,5.21c1.61,0.53,6.58,0.06,7.09,1.66c0.3,0.92-2.03,4.8-3.99,8.18c0.97,1.05,1.74,2.03,2.07,2.84
	c0.98,2.41-0.98,10.78,7.04,10.16c2.39-0.18,4.35-1.43,6.07-3.18c0.99-1,1.89-2.17,2.75-3.39c0.69-0.98,1.35-2,1.99-3
	c-0.06-0.48-0.14-0.95-0.23-1.4c-0.04-0.25-0.09-0.49-0.15-0.73c-0.07-0.32-0.15-0.63-0.24-0.93c-0.05-0.2-0.11-0.4-0.17-0.6
	c-0.1-0.34-0.21-0.68-0.32-0.99c-0.07-0.2-0.14-0.39-0.22-0.58c-0.07-0.19-0.14-0.37-0.22-0.55c-0.07-0.18-0.15-0.36-0.23-0.53
	c-0.15-0.35-0.31-0.68-0.47-0.99c-0.16-0.32-0.32-0.62-0.49-0.9c-0.24-0.44-0.49-0.82-0.73-1.18c-0.08-0.12-0.16-0.23-0.24-0.34
	c-0.07-0.12-0.15-0.22-0.23-0.33c-0.54-0.75-1.01-1.29-1.33-1.62c-0.05-0.05-0.09-0.09-0.12-0.12c-0.11-0.12-0.19-0.2-0.24-0.24
	c-0.01-0.02-0.02-0.03-0.03-0.04c0.04,0.01,0.11,0.03,0.22,0.06c0.04,0.01,0.1,0.03,0.16,0.04c0.16,0.04,0.35,0.09,0.59,0.14
	c0.17,0.04,0.37,0.08,0.58,0.11c0.16,0.03,0.33,0.06,0.52,0.08c0.18,0.03,0.37,0.05,0.57,0.07c0.41,0.05,0.84,0.08,1.3,0.09
	c0.3,0.02,0.61,0.02,0.92,0c0.31-0.01,0.63-0.02,0.95-0.05c0.24-0.02,0.48-0.05,0.72-0.09c0.02,0,0.04,0,0.06-0.01
	c0.23-0.03,0.46-0.06,0.7-0.12c0.43-0.08,0.86-0.19,1.3-0.33c0.12-0.04,0.25-0.08,0.38-0.13c1.14-0.39,2.29-0.99,3.37-1.85
	c3.69-2.94,6.34-7.21,9.21-8.97C413.75,392.24,413.66,390.87,413.34,389.49z M394.1,418.76c-0.06-0.04-0.3-0.21-0.75-0.45
	c-0.53-0.28-1.34-0.65-2.43-0.97c-0.86-0.25-1.9-0.47-3.11-0.58c-0.88-0.09-1.85-0.13-2.92-0.08c-0.78,0.03-1.61,0.11-2.5,0.24
	c-0.63,0.09-1.28,0.21-1.96,0.36c-0.42,0.09,0.44-2.22,1.81-4.49c0.8-1.32,1.76-2.61,2.75-3.41c0.9-0.73,1.81-1.04,2.62-0.57
	c0.07,0.04,0.14,0.08,0.2,0.13c1.13,0.73,2.24,2.17,3.22,3.73v0.01C392.74,415.44,394.02,418.56,394.1,418.76z M407.04,394.7
	c-5.62,4.91-5.02,7-10.34,7.79c-5.32,0.78-8.39-4.55-7.96-6.89c0.43-2.35,4.68-12.43,11.91-13.49
	C407.96,381.05,412.65,389.81,407.04,394.7z"/>
<path fill="#FFFFFF" stroke="#000000" stroke-miterlimit="10" d="M377.85,413.19c-1.91-2.09-4.59-4.48-6.13-6.43
	c-0.98-1.25-1.5-4.54-1.1-8.62c1.28,2.08,3.14,4.88,4.13,5.21c1.61,0.53,6.58,0.06,7.09,1.66
	C382.14,405.93,379.81,409.81,377.85,413.19z"/>
<path fill="#FFFFFF" stroke="#000000" stroke-miterlimit="10" d="M381.26,388.37c-1.39-2.1-3.46-4.09-5-5.42
	c-2.89,3.94-4.53,8.47-5.28,12.55c2.91,8.57,11.9,7.93,12.24,6.6C383.57,400.67,383.71,392.06,381.26,388.37z M381.66,398.57
	c-1.34,4.29-8.47-2.28-8.07-5.17c0.4-2.9,0.4-8.39,3.12-7.03C376.71,386.37,383,394.27,381.66,398.57z"/>
<path fill="#FFFFFF" stroke="#000000" stroke-miterlimit="10" d="M413.66,393.6c-0.29,4.61-2.7,8.9-5.5,12.07
	c-1.61,1.83-3.35,3.29-4.89,4.22c-0.74,0.45-1.45,1.12-2.13,1.92c-1.14,1.33-2.23,3.04-3.37,4.82c-0.06-0.48-0.14-0.95-0.23-1.4
	c-0.04-0.25-0.09-0.49-0.15-0.73c-0.07-0.32-0.15-0.63-0.24-0.93c-0.05-0.2-0.11-0.4-0.17-0.6c-0.1-0.34-0.21-0.68-0.32-0.99
	c-0.07-0.2-0.14-0.39-0.22-0.58c-0.06-0.19-0.14-0.37-0.22-0.55c-0.07-0.18-0.14-0.36-0.23-0.53c-0.15-0.35-0.31-0.68-0.47-0.99
	c-0.16-0.32-0.32-0.62-0.49-0.9c-0.24-0.44-0.49-0.82-0.73-1.18c-0.08-0.12-0.16-0.23-0.24-0.34c-0.07-0.12-0.15-0.22-0.23-0.33
	c-0.54-0.75-1.01-1.29-1.33-1.62c-0.05-0.05-0.09-0.09-0.12-0.12c-0.11-0.12-0.19-0.2-0.24-0.24c-0.01-0.02-0.02-0.03-0.03-0.04
	c0.04,0.01,0.11,0.03,0.22,0.06c0.04,0.01,0.1,0.03,0.16,0.04c0.16,0.04,0.35,0.09,0.59,0.14c0.17,0.04,0.37,0.08,0.58,0.11
	c0.16,0.03,0.33,0.06,0.52,0.08c0.18,0.03,0.37,0.05,0.57,0.07c0.41,0.05,0.84,0.08,1.3,0.09c0.3,0.02,0.61,0.02,0.92,0
	c0.31,0,0.63-0.02,0.95-0.05c0.24-0.02,0.48-0.05,0.72-0.09c0.02,0,0.04,0,0.06-0.01c0.23-0.03,0.46-0.06,0.7-0.12
	c0.43-0.08,0.86-0.19,1.3-0.33c0.12-0.04,0.25-0.08,0.38-0.13c1.14-0.39,2.29-0.99,3.37-1.85
	C408.14,399.62,410.79,395.36,413.66,393.6z"/>
<path fill="#FFFFFF" stroke="#000000" stroke-miterlimit="10" d="M395.78,419.62v28.94c0,0-4.4,12.88-18.53,12.25
	c-0.72-0.78-1.54-1.53-2.38-2.22c1.1-1.02,2.27-2.05,3.46-3.07l4.98,0.43l8.78-6.5l-0.71-4.4c0.14-0.1,0.21-0.15,0.21-0.15
	c0-0.08,0.01-0.26,0.02-0.53c0.14-2.72,0.94-14.49,1.42-21.36C394.02,422.01,394.92,420.85,395.78,419.62z"/>
<path fill="#FFFFFF" stroke="#000000" stroke-miterlimit="10" d="M431.21,432.85l-6.38,7.87l-6.24-3.03v-8.02l2.36-6.43
	c1.12,1.32,2.24,2.59,3.35,3.76c1.32,1.39,3.24,3.02,5.55,4.8C430.29,432.14,430.74,432.49,431.21,432.85z"/>
<path fill="#FFFFFF" stroke="#000000" stroke-miterlimit="10" d="M454.15,448.75c-0.8,0.08-1.52,0.14-2.18,0.18l-2.01,6.31
	l-11.05,2.05l-11.23-13.72l8.84-6.88c-1.03-0.73-2.03-1.44-2.99-2.15c-0.8-0.57-1.58-1.14-2.32-1.7l-6.38,7.87l-6.24-3.03v-8.02
	l2.36-6.43c-5.25-6.24-10.27-13.7-12.79-17.57c-1.61,1.83-3.35,3.29-4.89,4.22c-0.74,0.45-1.45,1.12-2.13,1.92
	c2.38,7.1,10.09,28.89,17.81,35.86c9.27,8.38,20.14,14.98,20.14,14.98s4.18,0.58,8.69-0.72c4.18-1.2,8.65-4.02,10.31-10.42
	C456.83,450.61,455.51,449.69,454.15,448.75z M415.29,423.43l-5.77-3.97l2.23-4.45c0,0,4.53,5.92,4.53,6.4
	C416.28,421.88,415.29,423.43,415.29,423.43z"/>
<path fill="#FFFFFF" stroke="#000000" stroke-miterlimit="10" d="M416.28,421.41c0,0.47-0.99,2.02-0.99,2.02l-5.77-3.97l2.23-4.45
	C411.75,415.01,416.28,420.93,416.28,421.41z"/>
<path fill="#FFFFFF" stroke="#000000" stroke-miterlimit="10" d="M452.41,447.56l-0.44,1.37l-2.01,6.31l-11.05,2.05l-11.23-13.72
	l8.84-6.88C441.51,440.2,447.19,443.99,452.41,447.56z"/>
<path fill="#FFFFFF" stroke="#000000" stroke-miterlimit="10" d="M451.15,668.6c-7.9,2.43-18.46-12.78-18.46-12.78
	c-1.72-4.82-3.44-10.51-4.71-16.81c-3.8-18.77-10.69-63.68-10.69-63.68s-11.14,53.88-15.97,72.61c0,0.01-0.01,0.01-0.01,0.02
	c-9.8,16.15-17.77,11.72-17.77,11.72s-0.23-5.15-0.41-13.3h7.3l10.16-25.31l-7.22-11.41l6.15-3.74l4.82-18.18l-9.63-14.08
	l-5.33-17.44c0.68-2.27,1.42-4.31,2.24-6.08c1.93-4.16,3.37-8.04,4.44-11.64c1.63,9.14,6.15,24.79,18.37,30.53
	c9.15-10.1,8.44-19.84,18.3-28.63c-0.06-0.35-0.12-0.7-0.17-1.04c1.8,0.5,5.37,1.88,8.11,5.25c1.03,7.34,2.53,14.32,4.71,19.43
	c0.35,0.45,0.68,0.98,0.99,1.6c-6.44,5.65-20.93,18.45-21.9,19.97c-1.24,1.96,1.25,22.45,1.25,22.45l8.02,6.42l-6.24,9.8
	c0,0,9.81,14.97,10.34,18.71c0.53,3.74,8.93,11.41,8.93,11.41l4.31-2.77C450.94,659.81,450.88,666.01,451.15,668.6z"/>
<path fill="#FFFFFF" stroke="#000000" stroke-miterlimit="10" d="M393.37,609.67l7.22,11.41l-10.16,25.31h-7.3
	c-0.11-5.57-0.2-12.54-0.16-20.22c0.11-23.26,1.37-52.99,6.41-69.94l5.33,17.44l9.63,14.08l-4.82,18.18L393.37,609.67z"/>
<path fill="#FFFFFF" stroke="#000000" stroke-miterlimit="10" d="M409.68,755.93c-4.75-0.47-23.52-0.71-37.54,6.89
	c-13.8,7.49-47.18,29.25-48.22,29.92c0.34-0.71,9.32-18.88,24.69-25.64c15.69-6.89-18.06-3.56-33.98,4.75
	c17.59-17.11,21.39-13.54,29.71-13.07c2.3,0.13,5.04-0.3,7.85-1.22c0,0,0,0,0.01,0c2.75,1.77,7.73,4.85,9.01,4.85
	c1.78,0,12.29-8.2,12.65-10.7c0.19-1.31-2.59-5.25-5.27-8.68c0.03-0.08,0.05-0.16,0.06-0.24c2.77,0.51,6.59,0.92,10.64,0.52
	c0.66,7.88,5.44,9.44,8.77,8.82c3.8-0.71,9.27-2.14,10.22-2.14C399.23,749.98,406.36,752.12,409.68,755.93z"/>
<path fill="#FFFFFF" stroke="#000000" stroke-miterlimit="10" d="M373.86,751.7c-0.36,2.5-10.87,10.7-12.65,10.7
	c-1.28,0-6.26-3.08-9.01-4.85c7.02-2.29,14.44-7.58,16.39-14.53C371.27,746.45,374.05,750.4,373.86,751.7z"/>
<path fill="#FFFFFF" stroke="#000000" stroke-miterlimit="10" d="M385.09,709.82l-6.24,5.53l2.85,5.88l-5.88,19.43l-7.03,1.58
	c0.01-0.03,0.01-0.07,0.02-0.1c2.14-10.22,1.9-60.12,4.52-65.58c1.02-2.14,2.8-5.18,4.6-8.1c2.51,2.57,11,11.34,10.54,11.54
	c-0.53,0.24,1.96,13.96,1.96,13.96L385.09,709.82z"/>
<path fill="#FFFFFF" stroke="#000000" stroke-miterlimit="10" d="M401.31,647.96c-0.68,2.62-1.23,4.56-1.61,5.55
	c0,7.84-0.24,34.21-2.37,37.78c-2.14,3.56-17.35,37.07-18.06,48.24c-0.09,1.39-0.08,2.64,0.02,3.76v0.01
	c-4.05,0.4-7.87-0.01-10.64-0.52c0.06-0.18,0.1-0.36,0.14-0.54l7.03-1.58l5.88-19.43l-2.85-5.88l6.24-5.53l5.34-15.86
	c0,0-2.49-13.72-1.96-13.96c0.46-0.2-8.03-8.97-10.54-11.54c2.79-4.54,5.61-8.78,5.61-8.78S391.51,664.11,401.31,647.96z"/>
<path fill="#FFFFFF" stroke="#000000" stroke-miterlimit="10" d="M460.6,683.12c-5.16,5.69-14.03,9.77-14.03,9.77
	s-1.33,9.87-3.16,17.15c-1.53-3.19-2.65-6.15-2.84-8.53c-0.47-6.06-1.07-28.16-1.07-29.23c0-0.71-3.41-6.88-6.81-16.46
	c0,0,10.56,15.21,18.46,12.78C453.69,673.06,457.36,677.98,460.6,683.12z"/>
<path fill="#FFFFFF" stroke="#000000" stroke-miterlimit="10" d="M468.3,731.72c-3.83-0.62-8.3,5.9-10.58,9.76
	c-1.99-6.7-4.28-12.86-6.1-16.33c-2.46-4.69-5.83-10.17-8.21-15.11c1.83-7.28,3.16-17.15,3.16-17.15s8.87-4.08,14.03-9.77
	c2.82,4.45,5.31,9.05,6.47,13.63C468.46,702.28,468.22,717.8,468.3,731.72z"/>
<path fill="#FFFFFF" stroke="#000000" stroke-miterlimit="10" d="M462.19,765.39c0.01-0.26,0.01-0.52,0.01-0.78
	c-0.07-5.89-2.04-14.92-4.48-23.12c2.28-3.86,6.75-10.38,10.58-9.76c0.06,10.97,0.32,20.97,1.74,24.32c0.56,1.33,1,3,1.34,4.88
	C469.47,762.82,465.44,764.38,462.19,765.39z"/>
<path fill="#FFFFFF" stroke="#000000" stroke-miterlimit="10" d="M472.9,782.84c-0.76,0.59-1.59,1.19-2.49,1.73
	c-2.14,1.3-4.61,2.3-7.08,2.24c-2.95-0.08-4.82-1.77-5.99-3.66c2.55-5.34,4.74-11.66,4.85-17.77c3.25-1.01,7.28-2.56,9.19-4.46
	c0.44,2.35,0.73,5.01,0.93,7.73c0.27,3.54,0.39,7.16,0.47,10.24C472.83,780.35,472.86,781.69,472.9,782.84z"/>
<path fill="#FFFFFF" stroke="#000000" stroke-miterlimit="10" d="M479.54,805.82c-1.07,3.81-8.43,25.31-9.26,22.34
	c-0.84-2.97,3.8-18.65,2.37-24.24c-1.42-5.58-0.71-11.28-5.82-11.28s-7.25,2.73-9.5,5.22c-2.26,2.5-12.12,11.77-14.26,26.85
	c-3.92-14.61,5.11-26.25,8.91-32.07c1.55-2.37,3.54-5.68,5.36-9.49c1.17,1.89,3.04,3.58,5.99,3.66c2.47,0.06,4.94-0.94,7.08-2.24
	c0.9-0.54,1.73-1.14,2.49-1.73c0.05,1.65,0.12,2.92,0.23,3.62C473.72,790.14,480.61,802.02,479.54,805.82z"/>
<path fill="#FFFFFF" stroke="#000000" stroke-miterlimit="10" d="M451.48,620.11c-0.01,11.44-0.25,22.65-0.4,31.52l-4.31,2.77
	c0,0-8.4-7.67-8.93-11.41c-0.53-3.74-10.34-18.71-10.34-18.71l6.24-9.8l-8.02-6.42c0,0-2.49-20.49-1.25-22.45
	c0.97-1.52,15.46-14.32,21.9-19.97C450.63,574.05,451.5,597.55,451.48,620.11z"/>
<path fill="#FFFFFF" stroke="#000000" stroke-miterlimit="10" d="M471.3,498.56c-0.01,1.02-0.02,2.03-0.02,3.03
	c-4.24,4.57-9.29,8.48-12.05,5.07c-4.42-5.45-0.44-16.5,1.07-20.17c4.56,1.5,8.18,1.19,11.01,0.05
	C471.33,490.44,471.31,494.52,471.3,498.56z"/>
<path fill="#FFFFFF" stroke="#000000" stroke-miterlimit="10" d="M381.66,398.57c-1.34,4.29-8.47-2.28-8.07-5.17
	c0.4-2.9,0.4-8.39,3.12-7.03C376.71,386.37,383,394.27,381.66,398.57z"/>
<path fill="#FFFFFF" stroke="#000000" stroke-miterlimit="10" d="M400.65,382.12c-7.23,1.06-11.48,11.14-11.91,13.49
	c-0.43,2.34,2.64,7.67,7.96,6.89c5.32-0.79,4.72-2.88,10.34-7.79C412.65,389.81,407.96,381.05,400.65,382.12z M399.04,398.49
	c-4.86,3.2-6.97-0.47-6.78-2.28s8.42-11.5,12.08-9.57C405.74,387.96,403.91,395.27,399.04,398.49z"/>
<path fill="#FFFFFF" stroke="#000000" stroke-miterlimit="10" d="M399.04,398.49c-4.86,3.2-6.97-0.47-6.78-2.28
	s8.42-11.5,12.08-9.57C405.74,387.96,403.91,395.27,399.04,398.49z"/>
<path fill="#FFFFFF" stroke="#000000" stroke-miterlimit="10" d="M399.8,374.68c-5.61,3.85-11.11,10.4-13.7,14.3
	c-0.63-2.45-2.68-9.82-3.48-11.89c3.22-1.86,6.66-2.61,9.67-2.83C395.63,374,398.44,374.42,399.8,374.68z"/>
<path fill="#FFFFFF" stroke="#000000" stroke-miterlimit="10" d="M387.81,408.94v7.82c-0.88-0.09-1.85-0.13-2.92-0.08
	c0.06-2.06,0.12-5.09,0.1-7.3c0.9-0.73,1.81-1.04,2.62-0.57C387.68,408.86,387.75,408.89,387.81,408.94z"/>
<path fill="#FFFFFF" stroke="#000000" stroke-miterlimit="10" d="M384.89,416.68c-0.78,0.03-1.61,0.11-2.5,0.24
	c-0.06-1.24-0.12-2.97-0.15-4.13c0.8-1.32,1.76-2.61,2.75-3.41C385.01,411.6,384.95,414.62,384.89,416.68z"/>
<path fill="#FFFFFF" stroke="#000000" stroke-miterlimit="10" d="M382.39,416.93c-0.63,0.09-1.28,0.21-1.96,0.36
	c-0.42,0.09,0.44-2.22,1.81-4.49C382.27,413.95,382.33,415.68,382.39,416.93z"/>
<path fill="#FFFFFF" stroke="#000000" stroke-miterlimit="10" d="M394.1,418.76c-0.06-0.04-0.3-0.21-0.75-0.45
	c-0.53-0.28-1.34-0.65-2.43-0.97l0.11-4.66C392.74,415.44,394.02,418.56,394.1,418.76z"/>
<path fill="#FFFFFF" stroke="#000000" stroke-miterlimit="10" d="M391.03,412.68L391.03,412.68l-0.11,4.67
	c-0.86-0.25-1.9-0.47-3.11-0.58v-7.82C388.94,409.68,390.05,411.12,391.03,412.68z"/>
<path fill="#FFFFFF" stroke="#000000" stroke-miterlimit="10" d="M504.69,312.14c-9.17-1.75-19.02,2.69-23.35,5.01
	c0.7-32.86-10.48-52.28-10.82-52.86c0.62,0.45,26.45,19.29,33.02,43C503.99,308.92,504.37,310.54,504.69,312.14z"/>
<path fill="#FFFFFF" stroke="#000000" stroke-miterlimit="10" d="M502.86,349.06c-8.13-4.09-17.81-5.81-24.3-6.56
	c0.18-0.88,0.35-1.77,0.51-2.66c1.43-8.13,2.12-15.71,2.27-22.69c4.33-2.32,14.18-6.76,23.35-5.01
	C507.26,325.2,505.73,338.12,502.86,349.06z"/>
<path fill="#FFFFFF" stroke="#000000" stroke-miterlimit="10" d="M502.86,349.06c-2.04,7.81-4.76,14.61-7.16,19.77
	c-1.37,2.94-3.69,6.34-6.55,9.88c-4.05-4.79-9.65-9.69-17.37-13.85c2.88-7.25,5.24-14.77,6.78-22.36
	C485.05,343.25,494.73,344.98,502.86,349.06z"/>
<path fill="#FFFFFF" stroke="#000000" stroke-miterlimit="10" d="M489.15,378.71c-10.05,12.47-26.76,26.8-31.95,29.88
	c-5.59,3.34-19.43,20.56-23.67,25.95c-0.8-0.57-1.58-1.14-2.32-1.7c-0.47-0.35-0.92-0.7-1.36-1.05
	c4.12-4.86,28.56-33.11,41.93-66.93C479.5,369.02,485.1,373.93,489.15,378.71z"/>
<path fill="#FFFFFF" stroke="#000000" stroke-miterlimit="10" d="M392.29,374.25c-3.01,0.22-6.45,0.97-9.67,2.83
	c-1.26,0.73-2.48,1.62-3.64,2.73c-1.76-2.73-4.17-6.7-6.79-11.64c2.82-4.8,7.8-11.29,15.56-14.81
	C389.15,363.06,391.26,370.8,392.29,374.25z"/>
<path fill="#FFFFFF" stroke="#000000" stroke-miterlimit="10" d="M387.75,353.37c-7.76,3.52-12.74,10.01-15.56,14.81
	c-0.95-1.79-1.92-3.71-2.9-5.75c-2.94-6.1-5.44-15.35-6.52-25.32v-0.01c5.63-3.95,14.46-9.23,24.05-11.49
	C385.85,335.3,386.54,345.05,387.75,353.37z"/>
<path fill="#FFFFFF" stroke="#000000" stroke-miterlimit="10" d="M389.35,310.18c-0.84,4.06-1.57,8.12-2.13,12.08
	c-0.16,1.11-0.29,2.23-0.4,3.34c-9.59,2.26-18.42,7.54-24.05,11.49c-1.28-11.77-0.59-24.54,3.66-34.32c0.39-0.89,0.82-1.78,1.3-2.68
	C374.25,302.87,382.67,306.69,389.35,310.18z"/>
<path fill="#FFFFFF" stroke="#000000" stroke-miterlimit="10" d="M402.08,265.24c0,0-8.04,22.24-12.73,44.95
	c-6.68-3.49-15.1-7.31-21.62-10.09C376.95,282.85,402.08,265.24,402.08,265.24z"/>
<path fill="#FFFFFF" stroke="#000000" stroke-miterlimit="10" d="M372.7,500.43l-2.76,8.06l-2.51,0.56
	c-0.13-3.64-0.25-7.41-0.35-11.13c-0.04-1.64-0.07-3.28-0.1-4.9l2.45,0.81l0.73,1.48L372.7,500.43z"/>
<path fill="#FFFFFF" stroke="#000000" stroke-miterlimit="10" d="M381.81,452.61c-1.14,0.93-2.32,1.92-3.48,2.92
	c-1.19,1.02-2.36,2.05-3.46,3.07c-0.62,0.56-1.21,1.12-1.78,1.67c-0.56,0.55-1.1,1.08-1.59,1.6c-1.31,1.36-2.36,2.6-2.99,3.63
	c-1.32,2.14-1.67,11.05-1.6,21.89c0.01,1.83,0.03,3.71,0.07,5.63c0.03,1.62,0.06,3.26,0.1,4.9c-12.93,12.7-29.1,43.67-34.4,54.69
	c-0.46,0.36-0.94,0.72-1.41,1.1c-5.31-16.97-33.1-16.4-61.05-6.62c7.14-12.91,42.79-72.61,100.45-91.45
	C374.3,454.45,378.01,453.43,381.81,452.61z"/>
<path fill="#FFFFFF" stroke="#000000" stroke-miterlimit="10" d="M383.33,451.35c-0.49,0.41-1,0.83-1.51,1.25c0,0,0,0-0.01,0.01
	c-3.8,0.83-7.51,1.85-11.14,3.03c-57.66,18.84-93.31,78.54-100.45,91.45c-0.21,0.06-0.41,0.14-0.62,0.21
	c-2.85-19.96-21.03-48.48-59.88-57.03c-3.51-2.84-6.76-5.99-9.78-9.43C237.71,456.74,303.04,428.92,383.33,451.35z"/>
<path fill="#FFFFFF" stroke="#000000" stroke-miterlimit="10" d="M383.65,451.1c-0.1,0.09-0.2,0.17-0.31,0.25h-0.01
	c-80.29-22.43-145.62,5.4-183.39,29.49c-26.94-30.75-34.55-83.84-36.65-131.08C254.95,378.42,370.82,443.79,383.65,451.1z"/>
<path fill="#FFFFFF" stroke="#000000" stroke-miterlimit="10" d="M391.38,445.06c-0.73,0.55-3.32,2.52-6.53,5.08
	c-10.59-7.3-54.25-38.11-81.86-68.11c-31.61-34.34-83.17-102.06-115.49-133.9c-26.83-26.43-69.86-53.51-85.34-61.68
	c-3.1-3.21-6.12-6.48-8.99-9.84c104.79,49.9,157.07,134.73,200.79,186.23c39.25,46.24,87.77,75.77,97.28,81.33L391.38,445.06z"/>
<path fill="#FFFFFF" stroke="#000000" stroke-miterlimit="10" d="M433.8,509.39c-0.26,0.55-0.51,1.13-0.73,1.76
	c-1.28,0.58-2.93,1.01-4.97,0.97c-5.82-0.12-15.69-6.77-19.13-7.25c-2.4-0.33-8.68,2.15-12.3,3.69c-1.47-1.46-6.08-6.16-8.71-10
	c0-0.01-0.01-0.03-0.02-0.04v-0.01c-0.21-0.49-0.34-0.97-0.4-1.45v-0.01c0.72-1.43,1.46-2.71,2.21-3.81c1.2,0.69,2.51,1.26,3.62,1.3
	c3,0.12,6.21-2.97,11.68-2.02c5.46,0.95,16.04,4.51,18.89,4.63c2.59,0.11,10.9-7.68,12.4-9.1c-0.12,0.14-0.26,0.29-0.4,0.43
	C440.45,494.55,439.38,501.43,433.8,509.39z"/>
<path fill="#FFFFFF" stroke="#000000" stroke-miterlimit="10" d="M432.56,539.36c0.05,0.34,0.11,0.69,0.17,1.04
	c-9.86,8.79-9.15,18.53-18.3,28.63c-12.22-5.74-16.74-21.39-18.37-30.53c5.55-18.62,1.08-29.47,1.08-29.47s-0.17-0.17-0.47-0.47
	c3.62-1.54,9.9-4.02,12.3-3.69c3.44,0.48,13.31,7.13,19.13,7.25c2.04,0.04,3.69-0.39,4.97-0.97
	C430.91,517.17,430.49,526.81,432.56,539.36z"/>
<path fill="#FFFFFF" stroke="#000000" stroke-miterlimit="10" d="M396.06,538.51c-1.07,3.6-2.51,7.48-4.44,11.64
	c-0.82,1.77-1.56,3.81-2.24,6.08c-5.04,16.95-6.3,46.68-6.41,69.94c-4.02,8.55-12.63,28.04-15.65,44.18c0,0.01,0,0.01,0,0.02
	c-0.02,0.09-0.03,0.17-0.05,0.26c-18.29-8.17-33.56,21.94-42.06,41.03c0.35-14.12,1.67-47.4,6.58-70.24
	c-0.13,0.66-0.25,1.34-0.35,2.04c-0.06,0.35-0.11,0.71-0.16,1.07c-0.07,0.51-0.13,1.04-0.18,1.57c-0.04,0.39-0.08,0.78-0.1,1.18
	c-0.01,0.12-0.02,0.25-0.03,0.38c-0.03,0.37-0.05,0.73-0.06,1.1c0,0.1-0.01,0.19-0.01,0.3c-0.02,0.48-0.03,0.96-0.03,1.45
	c-0.01,5.65,1.13,11.7,4.5,17.26c-0.27-19.15,2.13-35.02,4-30.56c1.88,4.46,0.9,16.84,17.2,26.82c0,0-10.78-11.67-11.58-19.69
	s-0.8-11.59,0.36-10.87c1.07,0.66,2.61,14.37,19.21,16.54c1.28,0.18,2.66,0.28,4.13,0.3c-1.37-0.84-2.86-1.69-4.38-2.61
	c-6.41-3.87-13.36-8.8-13.8-17.8c-0.53-11.14-0.89-14.61-2.94-16.48c1.7-3.57,2.59-10.4,8.53-18.12c2-2.6,4.83-6.98,7.76-12
	c0-0.01,0-0.01,0-0.01c5.77-9.91,11.89-22.28,12.67-28.27c1.19-9.03-1.07-17.23-0.47-20.2c0.45-2.27,5.09-24.75,11.24-37.28
	c0.19,0.32,0.4,0.65,0.64,0.98v0.01c0.01,0.01,0.02,0.03,0.02,0.04c2.63,3.84,7.24,8.54,8.71,10c0.3,0.3,0.47,0.47,0.47,0.47
	S401.61,519.89,396.06,538.51z"/>
<path fill="#FFFFFF" stroke="#000000" stroke-miterlimit="10" d="M447.78,461.93c-0.4,1.44-0.8,3.33-0.95,5.44
	c-2.86,0.78-5.91,1.63-9.07,2.53l-7.4-9.22l-26.62,9.39c0,0-15.33-8.08-17.82-6.3c-2.5,1.79-8.2,15.81-5.7,19.73
	c1,1.57,2.46,3.14,3.87,4.47c2.12,2,4.16,3.47,4.44,3.61c0.13,0.06,0.04,0.36-0.14,0.82c-0.37,0.99-1.12,2.76-0.85,4.66v0.01
	c-0.08,0.16-0.16,0.31-0.24,0.47c-6.15,12.53-10.79,35.01-11.24,37.28c-0.6,2.97,1.66,11.17,0.47,20.2
	c-0.78,5.99-6.9,18.36-12.67,28.27c0,0,0,0,0,0.01c-2.93,5.02-5.76,9.4-7.76,12c-5.94,7.72-6.83,14.55-8.53,18.12
	c2.05,1.87,2.41,5.34,2.94,16.48c0.44,9,7.39,13.93,13.8,17.8c1.52,0.92,3.01,1.77,4.38,2.61c-1.47-0.02-2.85-0.12-4.13-0.3
	c-16.6-2.17-18.14-15.88-19.21-16.54c-1.16-0.72-1.16,2.85-0.36,10.87s11.58,19.69,11.58,19.69c-16.3-9.98-15.32-22.36-17.2-26.82
	c-1.87-4.46-4.27,11.41-4,30.56c-3.37-5.56-4.51-11.61-4.5-17.26c0-0.49,0.01-0.97,0.03-1.45c0-0.11,0.01-0.2,0.01-0.3
	c0.01-0.37,0.03-0.73,0.06-1.1c0.01-0.13,0.02-0.26,0.03-0.38c0.02-0.4,0.06-0.79,0.1-1.18c0.05-0.53,0.11-1.06,0.18-1.57
	c0.05-0.36,0.1-0.72,0.16-1.07c0.1-0.7,0.22-1.38,0.35-2.04c0.05-0.25,0.1-0.49,0.15-0.73c0.12-0.55,0.24-1.08,0.36-1.6
	c1.18-4.92,2.77-8.62,3.42-9.99c0.45-0.95,0.47-1.51,0.17-1.75c-0.82-0.62-4.09,1.37-7.56,5.23c-4.73,5.25-5.62,16.66-5.62,16.66
	s-2.4-13.72-0.44-16.31c1.96-2.58,14.79-19.25,17.28-24.5c2.5-5.26,10.79-36.89,15.06-50.79c4.28-13.91,13.1-19.34,13.73-20.86
	c0.06-0.15,0.07-0.9,0.05-2.14v-0.01c-0.06-3.66-0.43-11.55-0.79-20.76c3.44-1.11,7.06-5.08,7.51-9.02
	c0.33-2.91-1.28-7.27-2.97-10.85c-0.82-1.75-1.66-3.32-2.3-4.44c9.16-4.91,7.05-12.12,7.14-13.9c0.09-1.88,1.16-5.35,2.62-9.27
	c0.62-1.65-0.58-3.68-2.35-5.57c14.13,0.63,18.53-12.25,18.53-12.25v-28.94c0.69-0.98,1.35-2,1.99-3c1.14-1.78,2.23-3.49,3.37-4.82
	c2.38,7.1,10.09,28.89,17.81,35.86c9.27,8.38,20.14,14.98,20.14,14.98S443.27,463.23,447.78,461.93z"/>
<path fill="#FFFFFF" stroke="#000000" stroke-miterlimit="10" d="M368.34,536.78c-0.63,1.52-9.45,6.95-13.73,20.86
	c-4.27,13.9-12.56,45.53-15.06,50.79c-2.49,5.25-15.32,21.92-17.28,24.5c-1.96,2.59,0.44,16.31,0.44,16.31s0.89-11.41,5.62-16.66
	c3.47-3.86,6.74-5.85,7.56-5.23c-1.37,3.28-2.56,7.28-3.59,11.74c-0.12,0.52-0.24,1.05-0.36,1.6c-0.05,0.24-0.1,0.48-0.15,0.73
	c-4.91,22.84-6.23,56.12-6.58,70.24v0.03c-0.77,1.75-1.48,3.4-2.14,4.92c-12.48-12.84-34.58,0.35-43.13,18.17
	c-0.23-0.32-0.47-0.63-0.7-0.93c1.21-23.82,8.14-88.31,46.72-153.68c18.65-17.5,33.49-33.25,36.24-43.56l6.19-1.97
	C368.41,535.88,368.4,536.62,368.34,536.78z"/>
<path fill="#FFFFFF" stroke="#000000" stroke-miterlimit="10" d="M325.96,580.17c-38.58,65.37-45.51,129.86-46.72,153.68
	c-16.23-20.93-34.43-0.54-48.49,21.25c-14.26,22.1-18.89,64.16-24.59,68.79c1.32-18.19,2.93-34.55,4.75-49.27
	c10.96-44.06,31.33-116.82,55.84-140.35C284.76,616.96,307.27,597.68,325.96,580.17z"/>
<path fill="#FFFFFF" stroke="#000000" stroke-miterlimit="10" d="M362.2,536.6c-2.75,10.31-17.59,26.06-36.24,43.56
	c-18.69,17.52-41.2,36.8-59.21,54.1c-24.51,23.53-44.88,96.29-55.84,140.35c12.45-100.67,34.83-124.97,42.3-136.79
	c8.55-13.54,45.98-41.7,70.93-64.16c6.11-5.5,11.41-10.65,15.91-15.3c0.01-0.01,0.01-0.02,0.02-0.02
	c8.82-9.07,14.65-16.22,17.75-20.25C360.6,537.02,362.2,536.6,362.2,536.6z"/>
<path fill="#FFFFFF" stroke="#000000" stroke-miterlimit="10" d="M787.7,392.65c-18.38,47.05-43.18,95.64-84.32,122.2
	c-96.75-88.26-221.31-56.89-232.94-53.7h-0.01c-0.43-0.08-0.81-0.15-1.14-0.21c-0.18-0.27-0.4-0.56-0.66-0.87
	c0,0,4.36-1.54,11.5-4.35c8.81-2.5,21.5-6.38,35.54-11.53C589.35,425.14,721.34,403.18,787.7,392.65z"/>
<path fill="#FFFFFF" stroke="#000000" stroke-miterlimit="10" d="M619.98,553.7c-31.33-9.51-78.22-2.95-80.56,5.71
	c0,0,0,0-0.01-0.01c-0.58-0.8-34.95-48.41-66.08-60.13c-0.68-0.26-1.36-0.5-2.03-0.71c0.01-4.04,0.03-8.12,0.01-12.02
	c-0.01-1.59-0.02-3.16-0.04-4.68c-0.14-10.09-0.57-18.28-1.71-20.47c0,0,0.3-0.09,0.87-0.24h0.01
	C488.8,464.43,591.45,485.63,619.98,553.7z"/>
<path fill="#FFFFFF" stroke="#000000" stroke-miterlimit="10" d="M489.3,561.56c0.08,0.13,0.71,1.12,1.77,2.93
	c-0.09,3.68-0.33,8.34-0.67,13.45h-16.08l-4.28-14.97l11.36-18.66c0.78,0.81,1.57,1.62,2.33,2.43c3.46,3.68,6.47,7.29,7.1,10.29
	c0.01,0.04,0.02,0.08,0.02,0.12c0.19,1.02,0.27,2.79,0.26,5.12C490.02,561.81,489.39,561.59,489.3,561.56z"/>
<path fill="#FFFFFF" stroke="#000000" stroke-miterlimit="10" d="M490.4,577.94c-0.57,8.62-1.39,18.52-2.13,27.19l-3.65-0.63
	l-1.04-0.18l-3.92-3.92l-3.44-13.43l4.13-9.03H490.4z"/>
<path fill="#FFFFFF" stroke="#000000" stroke-miterlimit="10" d="M488.27,605.14c-0.59,6.85-1.12,12.94-1.44,17.01h-5.39
	c0,0-0.71-8.08,0-9.27c0.55-0.92,2.37-6.06,3.18-8.37L488.27,605.14z"/>
<path fill="#FFFFFF" stroke="#000000" stroke-miterlimit="10" d="M535.15,739.42c-12.12-28.87-35.78-65.94-55.49-52.75
	c-3.37-13.3-17.1-52.37-28.18-66.55c0.02-22.57-0.85-46.07-5.11-54.47c-0.31-0.62-0.64-1.15-0.99-1.6
	c-2.18-5.11-3.68-12.09-4.71-19.43c-2.2-15.69-2.2-33.03-1.88-37.24c5.36-4.67,8.93-11.33,10.99-16.11
	c4.35,14.35,10.88,36.24,11.59,42.37c1.06,9.26,0.83,25.3,4.03,34.69c3.21,9.38,9.15,16.39,10.1,31.01
	c0.95,14.61,1.67,27.8,1.67,27.8s-8.68,3.33-9.75,13.07c5.47-4.28,7.01-2.97,7.96-0.59c0.96,2.37,4.28,19.01,0.24,31.12
	c4.64-5.1,6.66-22.09,6.66-22.09s1.54,18.89-1.79,30.29c6.18-7.72,5.83-29.58,5.83-29.58s5.46,19.48,1.78,30.65
	c6.77-10.81,1.19-31.6,2.02-33.15c2.97,1.19,8.55,10.58,8.2,26.14c2.97-14.14,2.73-18.41,2.02-20.91
	c-0.72-2.49-8.08-8.08-8.44-11.64c-0.36-3.57-3.56-11.77-5.35-14.38c0.05-0.91,0.14-2.24,0.28-3.92c0.32-4.07,0.85-10.16,1.44-17.01
	c0.74-8.67,1.56-18.57,2.13-27.19c0.34-5.11,0.58-9.77,0.67-13.45C499.8,579.41,537.67,649.49,535.15,739.42z"/>
<path fill="#FFFFFF" stroke="#000000" stroke-miterlimit="10" d="M688.77,869.52c-16.04-43.49-29.94-96.24-78.41-120.48
	c-13.55,3.21-17.83,14.97-17.83,14.97c-3.27-154.43-87.88-196.05-101.42-201.73c0.01-2.33-0.07-4.1-0.26-5.12
	c12.57,9.91,37.59,29.42,48.57,36.48c9.69,6.23,45.68,27.1,76.23,48.39c8.54,8.12,16.23,16.73,22.15,25.74
	C661.68,704.12,682,757.59,688.77,869.52z"/>
<path fill="#FFFFFF" stroke="#000000" stroke-miterlimit="10" d="M615.65,642.03c-30.55-21.29-66.54-42.16-76.23-48.39
	c-10.98-7.06-36-26.57-48.57-36.48c0-0.04-0.01-0.08-0.02-0.12c-0.63-3-3.64-6.61-7.1-10.29c4.16-2.06,8.51-3.06,12.88-3.29h0.01
	c10.69,11.12,29.36,29.99,43.52,41.26C555.96,597.32,589.73,617.39,615.65,642.03z"/>
<path fill="#FFFFFF" stroke="#000000" stroke-miterlimit="10" d="M498.32,672.99c2.97-14.14,2.73-18.41,2.02-20.91
	c-0.72-2.49-8.08-8.08-8.44-11.64c-0.36-3.57-3.56-11.77-5.35-14.38c0.05-0.91,0.14-2.24,0.28-3.92h-5.39c0,0-0.71-8.08,0-9.27
	c0.55-0.92,2.37-6.06,3.18-8.37l-1.04-0.18l-3.92-3.92l-3.44-13.43l4.13-9.03h-6.03l-4.28-14.97l11.36-18.66
	c-4.44-4.57-8.92-9.05-9.7-12.35c-0.69-2.93-0.52-16.12-0.42-30.37c-4.24,4.57-9.29,8.48-12.05,5.07
	c-4.42-5.45-0.44-16.5,1.07-20.17c-0.97-0.33-1.98-0.73-3.03-1.22c-9.28-4.34-10.86-11.99-10.44-17.91
	c-2.86,0.78-5.91,1.63-9.07,2.53l6.14,7.66c0,0-1.66,4.31-7.33,10.27c0,0-0.01,0.01-0.03,0.03c-0.04,0.03-0.1,0.1-0.2,0.2
	c-0.12,0.14-0.26,0.29-0.4,0.43c4.51,6.06,3.44,12.95-2.14,20.91c-0.26,0.55-0.51,1.13-0.73,1.76c-2.16,6.01-2.58,15.66-0.51,28.21
	c1.8,0.5,5.37,1.88,8.11,5.25c-2.2-15.69-2.2-33.03-1.88-37.24c5.36-4.67,8.93-11.33,10.99-16.11
	c4.35,14.35,10.88,36.24,11.59,42.37c1.06,9.26,0.83,25.3,4.03,34.69c3.21,9.38,9.15,16.39,10.1,31.01
	c0.95,14.61,1.67,27.8,1.67,27.8s-8.68,3.33-9.75,13.07c5.47-4.28,7.01-2.97,7.96-0.59c0.96,2.37,4.28,19.01,0.24,31.12
	c4.64-5.1,6.66-22.09,6.66-22.09s1.54,18.89-1.79,30.29c6.18-7.72,5.83-29.58,5.83-29.58s5.46,19.48,1.78,30.65
	c6.77-10.81,1.19-31.6,2.02-33.15C493.09,648.05,498.67,657.43,498.32,672.99z M479.66,638.31l-1.19,4.28l-4.63-8.32l7.6-8.32
	l4.36,4.99l3.49,6.42L479.66,638.31z"/>
<polygon fill="#FFFFFF" stroke="#000000" stroke-miterlimit="10" points="489.29,637.35 479.66,638.31 478.47,642.58 473.84,634.27 
	481.44,625.94 485.8,630.93 "/>
<path fill="#FFFFFF" stroke="#000000" stroke-miterlimit="10" d="M384.85,450.13c-0.39,0.32-0.79,0.64-1.2,0.96
	c-12.83-7.31-128.7-72.68-220.36-101.34c-1.89-42.28,0.62-79.88-2.4-92.6c-5.99-25.23-34.88-46.01-58.73-70.71
	c15.48,8.17,58.51,35.25,85.34,61.68c32.32,31.84,83.88,99.56,115.49,133.9C330.6,412.02,374.26,442.83,384.85,450.13z"/>
<path fill="#FFFFFF" stroke="#000000" stroke-miterlimit="10" d="M471.27,481.87l-6.16,3.41l-11.48-13.72l0.68-6.22l0.28-2.57
	l7.42-8.4c2.34,1.76,4.29,3.35,5.66,4.7c0.36,0.36,0.68,0.7,0.96,1.01c0.26,0.31,0.48,0.6,0.66,0.87c0.33,0.06,0.71,0.13,1.14,0.21
	c-0.57,0.15-0.87,0.24-0.87,0.24C470.7,463.58,471.13,471.77,471.27,481.87z"/>
<path fill="#FFFFFF" stroke="#000000" stroke-miterlimit="10" d="M970,200.12c-74.85,35.64-120.48,42.3-146.14,96
	c-11.28,23.62-21.74,59.59-36.16,96.53c-66.36,10.53-198.35,32.49-272.03,51.54c19.86-7.29,42.41-17.12,60.47-29.18
	c42.06-28.12,178.57-145.03,216.71-159.29c25.97-9.71,88.13-33.63,135.96-48.01c11.31-3.4,21.81-6.27,30.85-8.29
	C963.54,199.34,966.97,199.57,970,200.12z"/>
<path fill="#FFFFFF" stroke="#000000" stroke-miterlimit="10" d="M392.09,449.45l-8.78,6.5l-4.98-0.43c1.16-1,2.34-1.99,3.48-2.92
	c0.01-0.01,0.01-0.01,0.01-0.01c0.51-0.42,1.02-0.84,1.51-1.25h0.01c0.11-0.08,0.21-0.16,0.31-0.25c0.41-0.32,0.81-0.64,1.2-0.96
	c3.21-2.56,5.8-4.53,6.53-5.08L392.09,449.45z"/>
<path fill="#FFFFFF" stroke="#000000" stroke-miterlimit="10" d="M703.38,514.85c-30.65-3.2-65.58,1.07-83.4,38.85
	c-28.53-68.07-131.18-89.27-149.54-92.55C482.07,457.96,606.63,426.6,703.38,514.85z"/>
<path fill="#FFFFFF" stroke="#000000" stroke-miterlimit="10" d="M368.39,534.62v0.01l-6.19,1.97c0,0-1.6,0.41-4.38,1.49
	c-5.18,2-14.44,6.29-25.14,14.51c5.3-11.02,21.47-41.99,34.4-54.69c0.1,3.72,0.22,7.49,0.35,11.13c0.05,1.64,0.11,3.25,0.17,4.82
	C367.96,523.07,368.33,530.96,368.39,534.62z"/>
<path fill="#FFFFFF" stroke="#000000" stroke-miterlimit="10" d="M374.09,463.54l-1.58,13.63l-3.08,8.11l-2.52,2.11
	c-0.07-10.84,0.28-19.75,1.6-21.89c0.63-1.03,1.68-2.27,2.99-3.63L374.09,463.54z"/>
<path fill="#FFFFFF" stroke="#000000" stroke-miterlimit="10" d="M376.98,475.65c-0.09,1.78,2.02,8.99-7.14,13.9
	c0.64,1.12,1.48,2.69,2.3,4.44c1.69,3.58,3.3,7.94,2.97,10.85c-0.45,3.94-4.07,7.91-7.51,9.02c-0.06-1.57-0.12-3.18-0.17-4.82
	l2.51-0.56l2.76-8.06l-2.54-5.12l-0.73-1.48l-2.45-0.81c-0.04-1.92-0.06-3.8-0.07-5.63l2.52-2.11l3.08-8.11l1.58-13.63l-2.59-1.67
	c0.49-0.52,1.03-1.05,1.59-1.6c1.47,0.31,2.86,0.49,4.16,0.55c1.77,1.89,2.97,3.92,2.35,5.57
	C378.14,470.31,377.07,473.77,376.98,475.65z"/>
<path fill="#FFFFFF" stroke="#000000" stroke-miterlimit="10" d="M443.9,477.56c0,0-1.66,4.31-7.33,10.27c0,0-0.01,0.01-0.03,0.03
	c-0.04,0.03-0.1,0.1-0.2,0.2c-1.5,1.42-9.81,9.21-12.4,9.1c-2.85-0.12-13.43-3.68-18.89-4.63c-5.47-0.95-8.68,2.14-11.68,2.02
	c-1.11-0.04-2.42-0.61-3.62-1.3c-0.48-0.27-0.94-0.57-1.36-0.85c0.18-0.46,0.27-0.76,0.14-0.82c-0.28-0.14-2.32-1.61-4.44-3.61
	c-1.41-1.33-2.87-2.9-3.87-4.47c-2.5-3.92,3.2-17.94,5.7-19.73c2.49-1.78,17.82,6.3,17.82,6.3l26.62-9.39l7.4,9.22L443.9,477.56z"/>
<path fill="#FFFFFF" stroke="#000000" stroke-miterlimit="10" d="M471.31,486.55c-2.83,1.14-6.45,1.45-11.01-0.05
	c-0.97-0.33-1.98-0.73-3.03-1.22c-9.28-4.34-10.86-11.99-10.44-17.91c0.15-2.11,0.55-4,0.95-5.44c4.18-1.2,8.65-4.02,10.31-10.42
	c1.39,0.99,2.71,1.95,3.92,2.86l-7.42,8.4l-0.28,2.57l-0.68,6.22l11.48,13.72l6.16-3.41C471.29,483.38,471.3,484.95,471.31,486.55z"
	/>
<path fill="#FFFFFF" stroke="#000000" stroke-miterlimit="10" d="M539.41,559.41c-0.64-0.5-21.83-17.04-42.79-15.95h-0.01
	c-4.37,0.23-8.72,1.23-12.88,3.29c-0.76-0.81-1.55-1.62-2.33-2.43c-4.44-4.57-8.92-9.05-9.7-12.35c-0.69-2.93-0.52-16.12-0.42-30.37
	c0.71-0.76,1.4-1.55,2.05-2.32C504.46,510.99,538.83,558.6,539.41,559.41z"/>
<path fill="#FFFFFF" stroke="#000000" stroke-miterlimit="10" d="M592.53,764.01c0,0-29.58-44.2-57.38-24.59
	c2.52-89.92-35.35-160.01-44.08-174.92c0.02-0.79,0.03-1.53,0.04-2.22C504.65,567.95,589.26,609.57,592.53,764.01z"/>
<path fill="#FFFFFF" stroke="#000000" stroke-miterlimit="10" d="M928.81,207.71c-47.83,14.38-109.99,38.3-135.96,48.01
	c-38.14,14.26-174.65,131.17-216.71,159.29c-18.06,12.06-40.61,21.89-60.47,29.18c-14.04,5.15-26.73,9.03-35.54,11.53
	c18.76-7.36,56.72-23.41,85.29-42.93c28.39-19.39,191.01-148.32,205.04-154.87C784.48,251.37,875.59,215.74,928.81,207.71z"/>
<ellipse fill="#FFFFFF" stroke="#000000" stroke-miterlimit="10" cx="404.6" cy="480.67" rx="4" ry="6.22"/>
<path fill="#FFFFFF" stroke="#000000" stroke-miterlimit="10" d="M479.65,756.3c-2.09,9.46-4.9,17.53-6.87,22.59
	c-0.08-3.08-0.2-6.7-0.47-10.24C474.38,765.45,477.01,761.15,479.65,756.3z"/>
</svg>
