<?xml version="1.0" encoding="utf-8"?>
<!-- Generator: Adobe Illustrator 25.2.0, SVG Export Plug-In . SVG Version: 6.00 Build 0)  -->
<svg version="1.1" id="Layer_1" xmlns="http://www.w3.org/2000/svg" xmlns:xlink="http://www.w3.org/1999/xlink" x="0px" y="0px"
	 viewBox="0 0 1000 1000" style="enable-background:new 0 0 1000 1000;" xml:space="preserve">
<style type="text/css">
	.st0{fill:#FFFFFF;stroke:#000000;stroke-miterlimit:10;}
	.st1{fill:#FFFFFF;stroke:#010101;stroke-miterlimit:10;}
</style>
<path class="st0" d="M590.5,467.8c-0.7,5-6.1,11.4-6.1,11.4s-4.6,5.4-6.4,8.2c-1.8,2.9,1,7.6,1.5,9.4c0.5,1.8-0.6,1.8-0.6,1.8
	l-5.8-6.9c0,0-1.6-11.3-1-12.6c0.5-0.9,8.4-8.4,12.5-12.2c1.5-1.4,2.5-2.3,2.5-2.3s0.3-0.3,0.8-0.7
	C589.4,464.3,590.9,465.3,590.5,467.8z"/>
<path class="st1" d="M594.7,481.8c-7.4,5.3-10,13-10.9,16.5c-1.7-0.5-3.3-1.1-4.9-1.7c0,0,0,0,0,0c0-0.2,0-3.1,1.8-6.7
	c0.2-0.5,0.5-1.1,0.9-1.6c1.4-2.3,3.5-4.7,6.6-6.9C590,481.5,592.2,481.6,594.7,481.8z"/>
<path class="st1" d="M600.5,482.3c-6.9,5.2-10.4,13.5-11.8,17.5c-1.7-0.4-3.3-0.9-4.9-1.5c0.9-3.5,3.5-11.2,10.9-16.5
	C596.5,481.9,598.4,482.1,600.5,482.3z"/>
<path class="st1" d="M608.8,483.3c-8.6,6.2-11.6,14.2-12.5,18.3c-2.5-0.5-5-1.2-7.6-1.9c1.3-4,4.9-12.3,11.8-17.5
	C603.1,482.5,605.9,482.9,608.8,483.3z"/>
<path class="st1" d="M616.5,484.6c-6.1,4.9-10.5,13.3-12.8,18.5c-2.4-0.4-4.9-0.9-7.5-1.5c1-4.1,3.9-12.1,12.5-18.3
	C611.3,483.6,613.9,484.1,616.5,484.6z"/>
<path class="st1" d="M624.3,486.2c-5.8,5.2-10.8,13.9-12.9,18c-2.3-0.3-4.9-0.7-7.6-1.2c2.3-5.2,6.7-13.6,12.8-18.5
	C619.1,485,621.7,485.6,624.3,486.2z"/>
<path class="st1" d="M626.9,486.9c1.2,1.8,2,3.2,2.6,4.3c-5,4.2-9.5,10.3-12,13.8c-1.8-0.2-3.8-0.4-6.2-0.7
	c2.2-4.2,7.1-12.9,12.9-18c0.8,0.2,1.5,0.4,2.3,0.5C626.7,486.8,626.8,486.8,626.9,486.9z"/>
<path class="st1" d="M582,481.5c0,0-2.4,2.2-3.6,5.8c-6.1-2.6-15.6-8.2-16.5-8.9c-0.5-0.4-2.7-0.6-5,0c0.1-2.4,1-5.9,4.7-8.1
	L582,481.5z"/>
<path class="st0" d="M464.5,144.7c-1.3-16.8,1.3-26.5,3.2-31.1c-14.3,1.5-28.7,16.3-29.1,31c-0.5,15.1,1.5,30.7,5.1,38.1
	c1.6,3.4,4.9,9.9,8.8,16.2c1.4,2.2,2.8,4.4,4.2,6.4c0,0,0,0,0,0c1.2,1.6,2.4,3.2,3.6,4.6l0,0c1,1.1,1.9,2.1,2.8,2.9
	c1.5,1.3,3,2.2,4.4,2.6c1.2,0.3,2.6,0.3,4.2,0C470.2,202.6,466.1,165.7,464.5,144.7z M463.4,172.4c-4.4,3.3-9.8,3.7-14,1.8
	c-4.1-1.9-4.4-7.6,0.9-8.2C455.7,165.5,464,172,463.4,172.4z"/>
<path class="st0" d="M495.5,124.1c-7.6-8.1-18.5-11.1-26.7-10.6c-0.4,0-0.7,0.1-1,0.1c-1.9,4.6-4.5,14.2-3.2,31.1
	c1.6,21,5.7,57.9,7.1,70.6c1.5-0.3,3.2-0.8,4.9-1.5c1.2-3.9,7.9-26.6,12.5-32.1c3.5-4.3,10.6-8,14.5-9.8c0-0.4,0.1-0.7,0.2-1.1
	c0.1-0.6,0.2-1.1,0.3-1.7c0.1-0.5,0.2-1,0.3-1.6c0.2-1.4,0.3-3.1,0.3-5C504.5,150.6,501.7,130.7,495.5,124.1z M491.4,169.1
	c-0.3,1-2.5,6-5.3,6s-13.3-1.9-13.3-1.9s9.1-8.1,13.3-8.3S491.6,168.1,491.4,169.1z"/>
<path class="st0" d="M503.4,171.9c-1.1,7.4-0.7,13.2-4.9,22.6c-0.5,1.1-1.1,2.2-1.9,3.4c-1,1.5-2.2,2.9-3.5,4.3
	c-1.4,1.4-2.9,2.8-4.4,4.1c-3.9,3.2-8.2,5.9-12.2,7.5c1.2-3.9,7.9-26.6,12.5-32.1C492.5,177.4,499.6,173.7,503.4,171.9z"/>
<path class="st0" d="M444.2,195.9c-3,3.6-9.4,11.7-9.5,17c-0.1,2.1-1.1,4.5-2.5,6.8c-3.2,5.4-8.5,10.3-8.5,10.3s-0.8-0.2-1.9-0.8
	l-4.2-4.6l-1.1,1.2c-1.8-1.5-3.3-3.5-4-6c1.5-1.3,3-2.6,4.5-4h0c0.5-0.5,1-0.9,1.5-1.4c0,0,0,0,0,0c9.7-8.8,18.6-17.6,22.1-18.5
	C441.7,195.7,442.9,195.7,444.2,195.9z"/>
<path class="st0" d="M432.2,219.7c1.4-2.3,2.5-4.7,2.5-6.8c0.1-5.3,6.5-13.4,9.5-17c3,0.4,6.1,1.9,8.2,3.1c1.4,2.2,2.8,4.4,4.2,6.4
	c0,0,0,0,0,0C457.4,210.5,455.9,221,432.2,219.7z"/>
<path class="st0" d="M415.9,215.7c-2.3,1.3-5.8,3.5-9.1,6.6c-0.6,0.6-1.2,1.7-1.7,3.1v0c-1.1,3.4-1.7,8.6-2,14.3l-17.6,18.6l0.3,0.3
	c-2.8,0-5.2,0-5.8-0.3c-0.9-0.4-6.2-6.9-10.7-12.6c4.4-10.9,16-27.7,22.1-30.3C396.2,213.5,408.4,214.7,415.9,215.7z"/>
<path class="st0" d="M398.1,270.6c0,0.8,0,1.9-0.1,3.1v0c-0.4,0.7-0.8,1.3-1.1,2.1v0c-0.9,1.8-1.7,3.8-2.4,5.9
	c-2.9,9-18.7,20.6-18.7,20.6s-4.9-2.5-7.8-7.3s-2.1-34.7-0.2-44.3c0.3-1.4,0.8-3.1,1.6-4.9c4.5,5.6,9.8,12.1,10.7,12.5
	c0.6,0.3,3.1,0.4,5.8,0.3L398.1,270.6z"/>
<path class="st0" d="M411.6,343.6c-6.3,7.9-16.4,16.6-16.4,16.6s-0.1,0.3-0.3,1.6c-6.4,1.5-23.8,5-34.9,2.4
	c0.6-11-3.2-17.2-5.8-20.1c3.4-4.9,14-20,15.5-24.1c0,0,1.1,0.6,2.9,0.8h0l8.9,11.2l21.9,11L411.6,343.6z"/>
<path class="st0" d="M394.8,361.8c-0.3,2-0.8,6.4-1.5,15.9c-1.1,15.7-12.7,43.1-25.2,55.1c-12.6,11.9-15,27.8-15,27.8s0,0,0,0
	c-0.5-0.2-6.4-2.1-13.8-3.9c1.6-6.7,4.6-19.9,4-23.7c-0.9-5.2,6.3-15.4,7.7-32.1c1.4-16.6,12.5-17.6,9.6-20.2c-2-1.9-4.2-5.2-5.3-7
	c1.3-0.1,2.4-0.3,3.3-0.4c0.8-3.4,1.2-6.4,1.4-9.1C371,366.8,388.4,363.2,394.8,361.8z"/>
<path class="st0" d="M351,400.8c-1.4,16.6-8.6,26.9-7.7,32.1c0.7,3.8-2.4,17-4,23.7c-1-0.2-2-0.5-3-0.7c0.5-4.2,2.2-18.6-0.7-23.1
	c-3.4-5.3,3.9-19.4,3.9-19.4s-3-2.5-3-12.5c0-5.1-3.9-9.4-7.7-12.3c0.7-3.7,1.4-6.9,2.1-9.1c1-3.3,2.7-6.9,4.7-10.4
	c9.2,5,15.5,5.1,19.8,4.6c1.1,1.8,3.3,5.1,5.3,7C363.5,383.2,352.4,384.2,351,400.8z"/>
<path class="st0" d="M360,364.1c-0.1,2.7-0.6,5.8-1.4,9.1c-0.9,0.1-2,0.3-3.3,0.4c-4.2,0.4-10.6,0.3-19.8-4.6
	c6.9-12.1,17.5-23.4,17.5-23.4s0.4-0.6,1.1-1.5C356.7,346.9,360.5,353.1,360,364.1z"/>
<path class="st0" d="M335.6,432.7c2.9,4.5,1.2,19,0.7,23.1c-0.6-0.1-1.2-0.3-1.8-0.4c-7.1-1.5-14.8-2.6-20.5-2.1
	c6.6-5.8,10.9-44.2,14.8-64.9c3.8,3,7.7,7.2,7.7,12.3c0,10,3,12.5,3,12.5S332.2,427.4,335.6,432.7z"/>
<path class="st0" d="M426.8,632.7c-0.1,2-0.5,4.4-1,6.9c-2.3,11.5-7.6,26.1-7.6,26.1s-8.7,10.1-26.3-3.5c-3.1-4.2-8.4-8.2-10.5-12.4
	c-3.3-6.7,0-36.8,0-36.8l10-11.2l5.6-0.9l3.5-0.5C400.5,600.4,423,623,426.8,632.7z"/>
<path class="st0" d="M458.8,663.7c-6.2,1.5-13.8,12.1-17.9,18.4c-1-5.8-2.2-11.2-3.6-12c-3-1.7-33.1,24-38.7,22.2
	c-0.5-0.2-1-0.4-1.6-0.8c-1.6-8.7-2.8-15.6-3-19.2c0-1,0-1.7,0.1-2.2c0.6-2.8-0.5-5.3-2.3-7.8c17.6,13.6,26.3,3.5,26.3,3.5
	s5.3-14.6,7.6-26.1c5.6,0.3,17.4,0.3,26.5-3.8c0.5,0.5,1.1,1.2,1.8,2.1C457.5,642.2,455.9,654.5,458.8,663.7z"/>
<path class="st0" d="M530,548.4c-15.5,6.4-46.6,14.3-56.1,16.5c-2.5-5.4-4.2-9.6-4.3-11.3c-0.2-2-0.9-3.3-1.9-3.8
	c1.9-5,10-25.2,20.6-39c6.4-8.4,15.4-22.1,23.1-32.8C512.8,494.7,517.5,535.1,530,548.4z"/>
<path class="st0" d="M574.5,677.8c-7,6.6-16.2,19.3-22.4,21.3c-5.7,1.9-16.3-4.8-22.8-9.6c-0.5-5.1-0.9-10.8-0.6-11.7
	c0-0.2-0.1-0.4-0.3-0.8c11.9,0.6,25.7-2.2,25.7-2.2l7-45.1c0,0-8.4-17.3-18.4-19.8c0,5.9-15.9,14.3-16.4,14.8
	c-0.5,0.5-18.6-2.4-23.5-3.2c-1-5.6-1.8-10.9-2.1-15.1c-6.9-6.1-15.7-20.3-22.2-32.5c13-2.1,44.8-8,57.8-17c0.8,1.8,1.7,3.3,2.7,4.3
	c6.2,6.6,11.2,6.7,14.5,5.6v1.4c0,31.4,15.2,64.6,15.2,64.6l4.8,7.6l2,4.1v0l4.2,8.5C578.5,659.4,574,671.1,574.5,677.8z"/>
<path class="st0" d="M561.1,629.8l-7,45.1c0,0-13.7,2.8-25.7,2.2c-2.3-3.5-16.6-15.4-16.6-15.4s-5.8-21.8-9.1-40.1
	c4.9,0.8,23.1,3.7,23.5,3.2c0.5-0.5,16.4-8.9,16.4-14.8C552.7,612.5,561.1,629.8,561.1,629.8z"/>
<path class="st0" d="M536.3,557.1c-13,8.9-44.9,14.8-57.8,17c-1.7-3.3-3.3-6.4-4.6-9.2c9.5-2.2,40.7-10,56.1-16.5
	c1.1-0.5,2.1-0.9,3-1.3C534,550.9,535.1,554.4,536.3,557.1z"/>
<path class="st0" d="M465.8,695.2c0,0-9.3,16.2-14,33.5c-1.4,5-2.4,11.8-3.2,18.9c0-3.6-16.4,4.3-16.4,4.3s2.1-20,5.5-25.7
	c3.4-5.7,6.3-20.3,5.4-28.3c0,0,0,0,0-0.1c-0.1-0.8-0.9-8.7-2.1-15.8c4.1-6.3,11.7-16.9,17.9-18.4c0.5,1.7,1.2,3.3,2.2,4.7
	C467,677.4,465.8,695.2,465.8,695.2z"/>
<path class="st0" d="M460.2,570.8c-0.2,1.4-0.5,2.8-0.7,4.2c-18.1,0.2-61.5-11.7-70.9-14.3c-1.6-5.4-3-11.4-3.8-18.4
	C393.4,548.5,424.7,569.5,460.2,570.8z"/>
<path class="st0" d="M490.8,423.3c-12.7,7.1-29.7,1-29.7,1v-23.5c6.3-0.6,13.2-0.6,18.3-0.4c1.1,0,2.1,0.1,3.1,0.1
	c3.3,0.2,5.5,0.3,5.5,0.3s0,0,0,0C488.5,404.8,489.6,414.2,490.8,423.3z"/>
<path class="st0" d="M534.6,345.7c-0.2,1.3-0.9,5.3-1.8,10.5v0c-0.7,4.2-1.6,9.1-2.5,14c-0.8-0.6-1.7-1.4-2.6-2.1
	c-7.1-6.2-15.4-16.1-18.5-20l9-12.9l0-0.2C522.5,338.5,529.2,343.4,534.6,345.7z"/>
<path class="st0" d="M526.7,399.6c-0.3,14.7,0.2,34.3,0.7,46.9c-1-1.6-2-3.3-3.1-4.9c0.3-11.1-1.8-40.8-1.8-40.8s-1.2-5.6-2.8-6.3
	c-1.2-0.5-7-0.3-13.5-0.1c10.5-10.7,19.2-23,21.5-26.3c0.9,0.8,1.8,1.5,2.6,2.1c-0.8,4.3-1.6,8.7-2.3,12.4
	C527.2,386.1,526.9,392.2,526.7,399.6z"/>
<path class="st0" d="M606.7,317.3c-3.2-0.4-6.6,0.3-9.8,1.4c-9.1-6.7-17.6-20.4-21.7-27.4c0.2,0.1,0.4,0.2,0.5,0.3
	c5.2,2.8,9.4,1.8,12.8-0.7c6.8-5.1,9.9-16.7,9.9-16.7s1.1-4.8,2.1-11.3c4.1,8,9.1,18.4,10.5,24.3C612.8,294.6,609,309.5,606.7,317.3
	z"/>
<path class="st0" d="M620.4,344.3c-6.5,2.8-13.6,8-18.1,18c-3.3,7.1-5.8,12.6-7.5,17c-4.2,10.4-4.5,13.7-4.5,13.7
	s-11.2-19.7-18.9-27.5c-0.3-3.9-0.3-7.8,0-11.8c-9.6-8.1-16.4-17.2-21.3-26.2c-7.6-14-10.5-27.7-11.7-36.8
	c10.4,10.1,34.4,33,39.3,34.1c4.4,1,11.5-3.7,19-6.2c2.7,2,5.5,3.4,8.3,3.7c0,0,5,8.2,5.9,15C615,339.8,618.1,342,620.4,344.3z"/>
<path class="st0" d="M586.9,452.2c-0.4-11.9-1.6-30.5-5.2-42.9c-4.5-15.4-9.2-29.5-10.3-43.9c7.7,7.7,18.9,27.5,18.9,27.5
	S591,437.9,586.9,452.2z"/>
<path class="st0" d="M631.1,434.1c-3.2,8.2-1.1,28.2-1.1,28.2s1.6,2.1-3.7-0.7c-1.8-0.9-4.3-2.4-7.9-4.7c-6.3-4-13.1-3.1-18.7-1
	c-3.3,1.3-6.2,3-8.4,4.5c-2.6,1.8-4.2,3.4-4.2,3.4s0-4.2-0.1-10.5c5.2-5.3,12.2-13.1,13.6-17.9c2.1-7.6,5.2-17.4,8.8-24.7
	c3.2-6.5,12.5-25.9,24.5-32.4c0.2,0,0.3,0.1,0.5,0.2C638,397.8,634,426.6,631.1,434.1z"/>
<path class="st0" d="M634.2,378.1c-0.1,0.1-0.3,0.1-0.4,0.2c-13.8-4-31.7-0.7-39,0.9c1.8-4.3,4.2-9.9,7.5-17
	c4.5-10,11.6-15.2,18.1-18c7.7,7.3,8.3,14.8,12.6,29.2C633.5,375,633.9,376.5,634.2,378.1z"/>
<path class="st0" d="M520.7,195.2c-0.9-0.7-1.4-1.1-1.4-1.1s-2.9,1.3-4.9,5.6c0.6-8.1,4.1-22.4,4.2-23.3c0.1-0.6-3.5-2.8-7.3-5
	c-2.6-1.5-5.2-2.9-7.1-3.9c0.2-1.4,0.3-3.1,0.3-5c4.9,2.8,15.5,8.9,18.6,10.9C526.4,175.6,523.2,187.2,520.7,195.2z"/>
<path class="st0" d="M421.2,315.6c-1.1,6.8-3.1,17-5.9,22.5c-0.9-5.2-1.8-8.4-1.8-8.4c-0.7-1.5-1.8-3.6-3.3-6l5.6,1.3v-9.4H421.2z"
	/>
<path class="st0" d="M481,350.9c-0.1,1.1-0.1,2.3-0.2,3.7c-5.7-3.8-18.7-16.4-31-17.1c-8.4-0.5-16,4.9-20.8,9.5
	c-0.8-10.4-1.7-19.2-2.1-23.3l0.8,1.3h8.4l3.3-8l12.5,14l5.8-5C460.8,329.4,470.6,340.1,481,350.9z"/>
<path class="st0" d="M550.1,327.5c-0.5,0.6-0.9,1.2-1.4,1.8c-1.1,1.4-2.2,2.7-3.3,4c-4.6,5.5-8.8,9.8-10.2,11.3
	c-0.4,0.4-0.6,0.6-0.6,0.6s0,0.2-0.1,0.5c-5.4-2.3-12-7.2-16.5-10.7l1.2-6.4l16.4-15.7l-0.1-6.3c0,0,0.1-0.1,0.1-0.1
	c0.1-0.2,0-1.3-0.1-2.9c-0.7-6.9-3.4-23.3-3.4-23.3c-6-30.6-19-32.5-21.1-32.6c-0.2-2.1-0.7-4.6-2.2-6.7c-0.7-1-2-2.3-3.6-3.8
	l7.9-7.9c0.3,0.9,0.6,1.6,0.9,1.9c2,1.9,7.4,3,7.4,3s-3-9.9,0-18.6c2.3-6.4,6.3-11,9.5-13c0.8,0.6,1.7,1.1,2.6,1.7c0,0,0,0,0,0
	c2.8,1.7,5.9,3.5,9.2,5.2c0.5,0.2,1,0.5,1.5,0.8c-0.4,0.6-0.9,1.2-1.4,1.9c-0.9,1.4-1.9,2.9-2.8,4.7c-0.2,0.4-0.3,0.7-0.5,1.1
	c-0.2,0.4-0.3,0.8-0.5,1.1s-0.3,0.8-0.5,1.2c-0.2,0.5-0.3,0.9-0.5,1.4c-0.1,0.3-0.2,0.6-0.2,0.8c-0.4,1.4-0.8,2.9-1,4.4
	c0,0.3-0.1,0.7-0.1,1c-0.4,3.3-0.2,6.9,0.7,10.8c-5,4.5-6.2,10.7-4.1,13.2c1.2,1.4,2.2,4.9,3.4,7.8v0.1c-0.2,7,0.3,16.7,0.7,21.4
	c0.1,1.6,0.3,5.1,0.9,9.8C539.7,299.9,542.6,313.6,550.1,327.5z"/>
<path class="st0" d="M493.2,202.2c-1.7,5.6-5.3,16.6-8.3,22.4h0c-1-0.1-2.1,0.1-3.4,0.4l7.2-18.6
	C490.3,205.1,491.8,203.7,493.2,202.2z"/>
<path class="st0" d="M531,202.5c-3.2,2-7.3,6.6-9.5,13c-3,8.6,0,18.6,0,18.6s-5.3-1.1-7.4-3c-0.3-0.3-0.7-1-0.9-1.9
	c-1.2-4.4-1.3-14.6-0.5-22.8c0-0.3,0.1-0.6,0.1-0.9c0.3-2.4,0.9-4.2,1.6-5.8c0,0,0,0,0,0c2-4.3,4.9-5.6,4.9-5.6s0.5,0.4,1.4,1.1
	C522.5,196.7,526.2,199.4,531,202.5z"/>
<path class="st0" d="M588.4,290.9c-3.3,2.5-7.6,3.4-12.8,0.7c-0.2-0.1-0.4-0.2-0.5-0.3c-15.6-8.5-26.4-27.3-26.4-27.3
	s-5.2,0.5-8.5,0c-1.4-0.2-2.5-2.1-3.4-4.3v-0.1c-1.2-2.9-2.2-6.3-3.4-7.8c-2.1-2.5-0.9-8.7,4.1-13.2c-3.1-12.9,2.6-23.1,6.7-28.4
	c0.5,0.3,1.1,0.6,1.7,0.8c0.1,0.1,0.3,0.1,0.4,0.2c6.5-2.1,12.4-1.6,17-0.4c-3.2,5.6-8.7,18.3-3.2,32.5
	c7.1,18.2,16.2,27.7,19.7,36.1C581.6,283.4,585.1,287.7,588.4,290.9z"/>
<path class="st0" d="M600.5,262.8c-1,6.6-2.1,11.3-2.1,11.3s-3.1,11.6-9.9,16.7c-3.3-3.2-6.9-7.5-8.6-11.5
	c-3.6-8.3-12.6-17.8-19.7-36.1c-5.6-14.2,0-26.9,3.2-32.5c6.1,1.7,9.9,4.7,9.9,4.7s25.2,2.8,28.3,16.8
	C603.3,240.6,601.9,253.5,600.5,262.8z"/>
<path class="st0" d="M596.8,318.7c-7.5,2.5-14.6,7.2-19,6.2c-5-1.1-28.9-24-39.3-34.1c-0.6-4.7-0.8-8.1-0.9-9.8
	c-0.4-4.7-0.9-14.4-0.7-21.4c0.9,2.2,2,4,3.4,4.3c3.3,0.5,8.5,0,8.5,0s10.8,18.8,26.4,27.3C579.2,298.3,587.7,312,596.8,318.7z"/>
<path class="st0" d="M431.8,245.8l-28.9,27.9l-2.9-3.2c1.7-2.5,3-4,3-4s0-0.3,0-0.8l24.1-24.7L431.8,245.8z"/>
<path class="st0" d="M543,483c0,0-3.3,4.3-6.8,9.4c-3.7-8.4-11.8-19.1-11.8-19.1s0.6-3.6,1.6-10.8c-1.9-1.4-7.8,5.8-14.7,15.5
	c-7.7,10.7-16.7,24.4-23.1,32.8c-10.6,13.8-18.6,33.9-20.6,39c-1.2-0.7-2.8,0-3.9,1.9c-4.8-12.3-31.9-30-36.7-36.5
	c-5-6.8-17.1-36-20.7-41.9c-2.1-3.4-6.1-4.7-9-5.2c0.7-1.4,1.2-2.1,1.2-2.1l0.2-2.3c4.9,0,13.8-5.8,16.2-9.2
	c4.3,4.7,14.8,14.3,31.3,15.9c1,0.1,2.1,0.2,3.2,0.2c21.1,1,50-7.6,69.9-24.7h0c2.3-0.1,3.9-0.2,4.3-0.3c0.3,0,0.5-1.6,0.6-4.1
	c1.1,1.6,2.1,3.2,3.1,4.9C534.2,457.8,539.2,470.3,543,483z"/>
<path class="st0" d="M452.5,608c-3.4,6.7-2.1,24.9-1.9,27.1c0-0.3,0.2-0.8,1.8,0.7c-9.1,4.1-20.9,4.1-26.5,3.8
	c0.5-2.5,0.9-4.9,1-6.9c-3.8-9.7-26.3-32.3-26.3-32.3L397,601c0.2-3,0.4-5.7,0.6-7.9c0.3-4.2-0.8-8.6-2.5-13.5
	c-1.8-5.4-4.3-11.5-6.5-18.9c9.4,2.7,52.8,14.5,70.9,14.3C457.3,588.3,454.6,603.8,452.5,608z"/>
<path class="st0" d="M463.7,551.7c-0.5,0.8-0.8,1.8-1,3.1c-0.4,2.3-1.3,8.5-2.5,16c-35.5-1.2-66.8-22.2-75.4-28.5
	c-0.6-5.2-0.9-11-0.8-17.4c0.4-14,2.5-25.8,5-35c3-10.9,6.5-18.3,8.3-21.7c3,0.5,7,1.8,9,5.2c3.6,5.9,15.7,35.1,20.7,41.9
	C431.8,521.7,459,539.4,463.7,551.7z"/>
<path class="st0" d="M396.9,275.8c-1.4,11.5-9,34.4-14.6,40.5c-3.7,4-7.3,4.5-9.7,4.3h0c-1.8-0.2-2.9-0.8-2.9-0.8
	c-1.1-4.5,6.1-17.5,6.1-17.5s15.8-11.6,18.7-20.6C395.2,279.6,396,277.6,396.9,275.8z"/>
<path class="st0" d="M416.4,225.8l-13.2,13.9c0.3-5.6,1-10.9,2-14.3v0c0.5-1.4,1-2.5,1.7-3.1c3.3-3.1,6.8-5.4,9.1-6.6
	c0.3,0,0.6,0.1,0.9,0.1c-1.5,1.4-3,2.7-4.5,4C413,222.3,414.6,224.3,416.4,225.8z"/>
<path class="st0" d="M430,238.1l-2.8,2.9L403,265.7l-3.8,3.9l-1-1.2c0,0,0,0.8-0.1,2.2l-12.3-11.9l-0.3-0.3l17.6-18.6l13.2-13.9
	l1.1-1.2l4.2,4.6l5.6,6l2,2.1L430,238.1z"/>
<polygon class="st0" points="448.6,260.3 444.2,264.4 418.6,288.5 416.5,290.6 401.8,274.8 402.9,273.7 431.8,245.8 434,243.6 "/>
<polygon class="st0" points="469.5,284.4 438.4,312.9 426.7,299.1 427.9,298.1 428.1,298 428.1,298 429.9,296.5 454.5,275.4 
	458.1,272.2 461.4,275.7 "/>
<polygon class="st0" points="483.7,303.3 477.3,309 457.7,326 452,331.1 439.5,317 438.5,316 471.5,286.9 482.8,302 "/>
<path class="st0" d="M535.7,306.6c-1.2,1.8-15.1,14-15.1,14s-15.6,0.8-19.4,0.3c-0.5-0.1-0.9-0.1-0.9-0.3c-0.2-1,2.1-10.8,2.1-10.8
	l-11.8-0.9l-4.8,11.7l-8.6-11.7l6.5-5.6l-0.9-1.3l49.4-21.7c0,0,2.7,16.4,3.4,23.3L535.7,306.6z"/>
<path class="st0" d="M535.8,312.9l-16.4,15.7l-1.2,6.4l0,0.2l-9,12.9l-1,1.4l-11-11l4.1-17.5c3.9,0.5,19.4-0.3,19.4-0.3
	s13.9-12.3,15.1-14L535.8,312.9z"/>
<path class="st0" d="M532.2,280.3L482.8,302l-11.3-15.2l-33,29.1l1,1.1l-3.3,8h-8.4l-0.8-1.3v0l-4.8-8.1h-6.4v9.4l-5.6-1.3
	c-4.4-7.3-11.2-17-12.1-19.1c-0.4-1-0.5-5.7-0.5-11.5c13.9,0.2,16,13.9,16,13.9l8.5-0.7l1.7-7l4-1.4l0,0l-1.3,1l11.7,13.8l31.2-28.6
	l-8.1-8.6l47.9-27.2l1.5-0.9c0,0,0.1,0,0.3,0C513.2,247.8,526.1,249.7,532.2,280.3z"/>
<path class="st0" d="M509.3,248.5l-47.9,27.2l-3.3-3.5l-3.6,3.1l-10.3-11l4.4-4.1L434,243.7l-2.2,2.1l-4.6-4.8l2.8-2.9l-0.7-0.7
	c3.7-3.4,8.8-9.8,12.2-9.6c4.3,0.2,11.2,9.4,17.8,8.9c6.6-0.5,21.2-10,27.4-8.2C492.6,230.1,507.9,239.7,509.3,248.5z"/>
<path class="st0" d="M488.7,206.4l-7.2,18.6c-3.7,0.9-8.3,3.1-12.4,5.1l-6-17.2c1.5,1.3,3,2.2,4.4,2.6c1.2,0.3,2.6,0.3,4.2,0
	c1.5-0.3,3.2-0.8,4.9-1.5C480.5,212.2,484.9,209.5,488.7,206.4z"/>
<path class="st0" d="M511.1,247.7c-0.2,0-0.3,0-0.3,0l-1.5,0.9c-1.4-8.8-16.7-18.4-22.5-20.1c-6.2-1.8-20.9,7.7-27.4,8.2
	c-6.6,0.5-13.5-8.7-17.8-8.9c-3.3-0.1-8.4,6.2-12.2,9.6l-2-2.1c4-4,12.3-12.1,13.8-12.3c2-0.2,14.1,9.8,18.2,10.5
	c1.3,0.2,3.8-0.7,6.7-2c1-0.4,2-0.9,3.1-1.4c4.1-1.9,8.8-4.2,12.4-5.1c1.3-0.3,2.4-0.4,3.4-0.4h0c0.1,0,0.1,0,0.2,0
	c5.1,0.6,14.6,7.4,20.1,12.5c1.6,1.5,2.9,2.8,3.6,3.8C510.4,243.1,510.9,245.6,511.1,247.7z"/>
<path class="st0" d="M513.1,229.2l-7.9,7.9c-5.5-5.1-15-11.8-20.1-12.5c-0.1,0-0.1,0-0.2,0c3-5.8,6.5-16.8,8.3-22.4
	c1.3-1.4,2.5-2.9,3.5-4.3l6,2.9l6.8,3.2l3.2,1.5c0,0.3-0.1,0.6-0.1,0.9C511.8,214.6,511.9,224.8,513.1,229.2z"/>
<path class="st0" d="M469.1,230c-1.1,0.5-2.1,1-3.1,1.4l-5.8-21.5c1,1.1,1.9,2.1,2.8,2.9L469.1,230z"/>
<path class="st0" d="M466,231.4c-3,1.3-5.4,2.2-6.7,2c-4.1-0.7-16.2-10.7-18.2-10.5c-1.5,0.1-9.8,8.3-13.8,12.3l-5.6-6
	c1.1,0.5,1.9,0.8,1.9,0.8s5.3-4.9,8.5-10.3c23.8,1.4,25.2-9.2,24.5-14.3c1.2,1.6,2.4,3.2,3.6,4.6l0,0L466,231.4z"/>
<path class="st0" d="M503,446.5c-4.9,0-8.8-0.2-9-0.8c0-0.1-0.1-0.3-0.1-0.6c-0.4-1.9-1.2-8.1-2.2-15.4c-0.3-2.1-0.5-4.2-0.8-6.4
	c-1.2-9.2-2.3-18.5-2.8-22.5v0c0.1-0.3,1.2-4.6,6.9-5.9C497,401.4,503.3,423.7,503,446.5z"/>
<path class="st0" d="M420.1,412.2c-0.1,2.2-0.8,11.2-1.7,20.3c-0.5,4.8-1,9.6-1.5,13.5c-0.5,3.9-1,6.7-1.4,7.7
	c-0.1,0.2-0.3,0.5-0.5,0.8c-2.5,3.4-11.4,9.2-16.2,9.2l5.5-62.6c0,0,0.1-0.1,0.3-0.3c3.2,0.4,6.7,1.2,9.2,3.1
	C419.5,408.5,420.3,407.6,420.1,412.2z"/>
<path class="st0" d="M404.5,400.9c-0.2,0.2-0.3,0.3-0.3,0.3l-5.5,62.6c-1,0-1.8-0.2-2.3-0.8c-3.1-2.8-7.3-6.2-8.8-9.2
	c-0.3-0.6-0.5-1.2-0.6-1.8c-0.1-0.8-0.2-4-0.2-8.4c0.1-14,1.5-40.4,9.6-42.8C396.4,400.8,400.2,400.4,404.5,400.9z"/>
<path class="st0" d="M573.1,551c0.1,1-4.8,10.4-6.6,13.2c-1.8,2.8-3.8,1.2-10.8,1.8c-0.6,0.4-1.4,0.8-2.2,1c0-17.2-1-42.2-6.4-67.7
	c-1.1-5.4-2.5-10.8-4.1-16.2c0,0,9.3,0.6,16.7,4.8c7.4,4.2,7.8,24.9,10.2,29c2.5,4.1,2.6,20.3,2.6,20.3s-2.6-0.3-3.4,0.9
	c-0.2,0.3-0.1,1,0.2,2C570.2,543.6,573,550.2,573.1,551z"/>
<path class="st0" d="M553.5,567c-3.3,1.1-8.3,1-14.5-5.6c-0.9-1-1.8-2.5-2.7-4.3c-1.2-2.7-2.4-6.2-3.3-10
	c-3.9-15.1-5.8-36.2-5.2-39.9c0.4-2.4,3.5-7.6,6.9-12.5c0.5-0.8,1-1.5,1.5-2.2c3.5-5.1,6.8-9.4,6.8-9.4c1.6,5.4,2.9,10.8,4.1,16.2
	C552.5,524.8,553.4,549.8,553.5,567z"/>
<path class="st0" d="M527.7,507.2c-0.6,3.7,1.3,24.8,5.2,39.9c-0.9,0.4-1.9,0.9-3,1.3c-12.5-13.3-17.2-53.7-18.6-70.4
	c6.9-9.6,12.8-16.8,14.7-15.5c-1.1,7.2-1.6,10.8-1.6,10.8s8,10.7,11.8,19.1c-0.5,0.7-1,1.5-1.5,2.2
	C531.3,499.6,528.1,504.8,527.7,507.2z"/>
<path class="st0" d="M594.4,686.6c-0.4,1.8-27.5,39.6-30.5,39.6c0,0-0.1,0-0.1,0c-3.1-0.3-26.8-14.6-34.5-21.1
	c-0.9-0.8-1.6-1.4-2-1.9c-3.8-4.8-7.8-17.8-3.6-18c0,0,2.2,1.9,5.5,4.3c6.5,4.8,17.1,11.5,22.8,9.6c6.2-2.1,15.4-14.7,22.4-21.3
	c2.7-2.5,5-4.2,6.7-4C587.3,674.5,594.7,684.8,594.4,686.6z"/>
<path class="st0" d="M606.8,859.2c-0.1,1.5-0.4,2.9-0.7,4.3c-1.5,6-5.1,11.4-12.7,13.9c-21.2,6.9-39.2,0-39.2,0s-11.4-17.6-1.4-28.8
	c0,0,3.9-2.2,10.9,3.3s8.3,4.9,8.4,4.9s17.8-11.1,22.8-11.4C599.2,845.3,607,850.6,606.8,859.2z"/>
<path class="st0" d="M602.7,828.2c-1.2-0.5-2.4-1-3.6-1.6c-10.3-5.2-20.2-15.1-27-17.1c-0.4,1.1-10.3,9.4-15.4,13.7
	c-1.8,1.5-3,2.5-3,2.5l-3.8,4.7c0.2-0.4,3.2-9,5.5-17.9l16.7-13.9c0,0,19.3,12.9,31.9,18.5c0.2,1,0.5,1.9,0.6,2.4
	C605.1,821.3,603.5,824.8,602.7,828.2z"/>
<path class="st0" d="M555.4,812.5c1.9-7.6,3.3-15.6,1.6-18.9c-3.6-7.4-7.8-25.9-6.2-25.7c0.2,0,0.7,0.2,1.4,0.6
	c4.3,2,16.1,9,18.5,12.3l1.3,17.8L555.4,812.5z"/>
<path class="st0" d="M606.8,859.2c0.2-8.7-7.6-14-11.9-13.7c-5,0.3-22.7,11.4-22.8,11.4s-1.4,0.7-8.4-4.9s-10.9-3.3-10.9-3.3
	c-1-13.5,1-23,1-23s1.2-1,3-2.5c2.1,4.6,8.6,14.8,24.2,13.2c11.3-1.1,16.1-5.8,18.2-9.7c1.2,0.6,2.4,1.2,3.6,1.6
	c-0.3,1.5-0.5,3-0.3,4.3c0.7,4.3,2.3,8.3,2.3,8.3S607.7,850,606.8,859.2z"/>
<path class="st0" d="M604,817.1c-12.6-5.7-31.9-18.5-31.9-18.5l-1.3-17.8c11-8,19.6-23,32.7-27c-0.7,15.4-1.3,28.1-0.4,31.2
	c2.4,7.8-3.6,12.4-2.6,16.9C601.3,805.5,603,813,604,817.1z"/>
<path class="st0" d="M603.5,753.8c-13,4-21.6,18.9-32.7,27c-3.1-5.6-6.3-45.1-7-54.5c0,0,0.1,0,0.1,0c3,0,30.1-37.8,30.5-39.6
	c0.3-1.8-7.1-12.1-13.2-12.8c-1.7-0.2-4,1.4-6.7,4c-0.6-6.7,4-18.4,5.2-24.6l5,10.1c5.5,4.5,14.1,13.6,17.8,27.2
	C605.8,702.8,604.5,731.2,603.5,753.8z"/>
<path class="st0" d="M570.8,780.8c-2.5-3.3-14.2-10.2-18.5-12.3c-3.4-17.6-17.4-50.7-22.9-63.3c7.6,6.4,31.4,20.8,34.5,21.1
	C564.5,735.6,567.7,775.1,570.8,780.8z"/>
<path class="st0" d="M599.1,826.6c-2.1,3.9-6.9,8.6-18.2,9.7c-15.6,1.6-22.1-8.6-24.2-13.2c5.1-4.3,15-12.6,15.4-13.7
	C578.8,811.5,588.8,821.4,599.1,826.6z"/>
<path class="st0" d="M401.7,714.9c0,0-2.2-4.6-12.6-17.6c-0.8-1.1-1.6-2.2-2.3-3.3l0,0c-8.5-13.7-7.2-25.8-5.1-26.1
	c1.4-0.2,3.1,0.9,4.6,2.2c0.1,5.9,6,17.8,10.8,21.3C398.5,698.4,400.1,706.5,401.7,714.9z"/>
<path class="st0" d="M397.1,691.4c-4.8-3.5-10.8-15.5-10.8-21.3c1,0.8,1.9,1.8,2.7,2.7c1.2,1.4,3.6,0.4,5.2-0.6
	C394.4,675.8,395.5,682.8,397.1,691.4z"/>
<path class="st0" d="M443.1,697.8c-0.2-0.7-1.8-6.9-5.6-2.8c-4.1,4.4-35.8,19.8-35.8,19.8c-1.6-8.4-3.2-16.5-4.6-23.4
	c0.5,0.4,1.1,0.7,1.6,0.8c5.6,1.8,35.6-23.9,38.7-22.2c1.3,0.7,2.6,6.1,3.6,12C442.2,689.2,443,697,443.1,697.8z"/>
<path class="st0" d="M437.7,726.2c-3.4,5.7-5.5,25.7-5.5,25.7s-18.2,8.9-22.1,11c-0.1,0.1-0.2,0.1-0.4,0.2
	c-1.1-11.9-4.6-30.6-8.1-48.2c0,0,31.7-15.5,35.8-19.8c3.9-4.1,5.4,2,5.6,2.8c0,0,0,0.1,0,0.1C444,706,441.1,720.5,437.7,726.2z"/>
<path class="st0" d="M409.8,763c-3.1,1.2-7.2-3.1-8.7-4.8c-0.4-0.4-0.6-0.7-0.6-0.7s-1.1-26.8-5.2-34.3c-3-5.4-6.7-21-8.5-29.3
	c0.7,1.1,1.4,2.2,2.3,3.3c10.4,13,12.6,17.6,12.6,17.6C405.1,732.4,408.7,751.1,409.8,763z"/>
<path class="st0" d="M448.6,747.6c0,0,0,0.1,0,0.1c0,0.1,0,0.2,0,0.4c-0.1,0.4-0.1,0.9-0.1,1.3c-9,1.5-30.6,12.3-38.4,15.7
	c-1.4,0.6-2.3,1-2.7,1c-2.4,0.2-4.1-2.4-8.2-6.2v0c0.6-0.9,1.4-1.4,2.1-1.8c1.5,1.8,5.6,6,8.7,4.8c0.1,0,0.2-0.1,0.4-0.2
	c3.9-2.1,22.1-11,22.1-11S448.6,744,448.6,747.6z"/>
<path class="st0" d="M447.3,797.3c-3,3-8.2,4.3-14.9,4.3c-4.7,0-7.3,2.4-8.7,5.3c-13.2-2.2-20.3-10.7-23.2-13
	c-4.5,1.1-7.6,0.3-9.4-0.7c1.3-1.8,2.6-3.5,3.9-4.9c5.8-5.9,4-21,3.3-25.2c-0.2-1.4,0.1-2.5,0.7-3.3c4.1,3.8,5.9,6.3,8.2,6.2
	c0.4,0,1.3-0.4,2.7-1c7.8-3.4,29.4-14.2,38.4-15.7c0,0,0.1,0,0.1,0c-0.2,6.8,0.3,27.2,1.7,36.8C450.9,791.2,449.9,794.8,447.3,797.3
	z"/>
<path class="st0" d="M422.4,818c0,0-1.8,0-10.8-2.8c-9-2.8-21.3-13.9-27.5-8.7c-0.5,0.1,2.8-7.1,7-13.1c1.8,0.9,4.9,1.8,9.4,0.7
	c3,2.3,10,10.8,23.2,13C421.5,811.7,422.4,818,422.4,818z"/>
<path class="st0" d="M451,826.1c-11,3.7-31.1,1.7-31.1,1.7s-0.1,0-0.4,0.1c0.9-5.6,2.9-9.9,2.9-9.9s-1-6.3,1.3-11.1
	c1.4-2.9,4-5.3,8.7-5.3c6.8,0,11.9-1.4,14.9-4.3C453.2,807.9,452.3,819.7,451,826.1z"/>
<path class="st0" d="M449.9,830.9c0,0,0.9,1.6-8.4,4.5c-9.3,2.9-21.9,2.1-21.9,2.1c-0.6-3.3-0.5-6.7,0-9.7c0.2-0.1,0.4-0.1,0.4-0.1
	s20.2,2,31.1-1.7C450.5,829.1,449.9,830.9,449.9,830.9z"/>
<path class="st0" d="M419.5,837.6c0,0-4.9,5.6-28.1,12.5c-23.3,6.9-38.4-4.1-38.4-4.1s-0.1-7.9,0-12.4c3.7,2.2,9.9,4.4,19.4,4.4
	c10.8,0,25.4-3.6,35.5-6.5c0,0,0,0,0,0c6-1.7,10.4-3.2,11.6-3.6C419.1,830.9,418.9,834.3,419.5,837.6z"/>
<path class="st0" d="M407.9,831.5c-10.2,2.9-24.8,6.5-35.5,6.5c-9.5,0-15.7-2.2-19.4-4.4v0c0-0.2,0-0.4,0-0.5
	c1.4-2.2,3.7-4.3,6.4-6.3c2,2,4.9,3.7,9.2,4.4C380.4,833.4,399.9,832.2,407.9,831.5z"/>
<path class="st0" d="M422.4,818c0,0-2,4.3-2.9,9.9c-1.2,0.4-5.7,1.9-11.6,3.6c0,0,0,0,0,0c-8.1,0.6-27.5,1.8-39.4-0.3
	c-4.2-0.8-7.1-2.4-9.2-4.4c8.9-6.2,22.6-10.5,23.8-12.3c1.5-2.4,0.9-8,0.9-8c6.2-5.2,18.5,5.9,27.5,8.7
	C420.6,818,422.4,818,422.4,818z"/>
<path class="st0" d="M395,579.5c-1.7,2.9-4.4,5.5-8.3,7c-12.5,4.6-15-27.1-16-31.5s-0.7-6-4.3-7c-3.6-1.1-5-34.6-5.4-36
	c-0.4-1.4,13.5-12,13.5-12s1.4-3.7,3.1-8c1.1-2.9,7.4-2.7,11.3-2.3c-2.5,9.2-4.6,21-5,35c-0.2,6.4,0.1,12.2,0.8,17.4
	c0.8,7,2.2,13,3.8,18.4C390.8,568.1,393.2,574.2,395,579.5z"/>
<polygon class="st0" points="454.5,275.4 429.9,296.5 428.1,298 428.1,298 427.9,298 418.6,288.5 444.2,264.4 "/>
<path class="st0" d="M633.8,378.4c-12,6.5-21.3,25.9-24.5,32.4c-3.6,7.4-6.7,17.1-8.8,24.7c-1.3,4.7-8.4,12.5-13.6,17.9
	c0-0.4,0-0.8,0-1.1c4.1-14.4,3.4-59.3,3.4-59.3s0.3-3.3,4.5-13.7C602.1,377.6,619.9,374.4,633.8,378.4z"/>
<path class="st0" d="M627.8,494.6c-1.7-1.3-7.7-1.4-10.5-1.3c1.6-4.9-6.2-2.8-9.9-1.1c-0.2-2.9-6.2-11.8-13.7-3.2c0-0.1,0-0.2,0-0.3
	c-0.2-1.8-9.4-10.2-9.4-10.2s5.4-6.4,6.1-11.4c0.3-2.5-1.1-3.5-2.7-3.9c0.7-0.6,1.9-1.6,3.5-2.7c2.4-0.1,6.8,0.3,9.2,4.3
	c3.2,5.4,9.2,20.9,27.5,24.2C628.3,491.2,628.3,493.2,627.8,494.6z"/>
<path class="st0" d="M607.5,492.2c0,0.1,0,0.2,0,0.4c-0.3,2.6-8,8.4-8,8.4s-2.1,7.9-5.5,9.3s-6.9,0.9-9-0.3s-4.2-3-4.5-7.5
	c-0.1-1.1,0.3-2.3,1.1-3.1c0.8-0.8,1.1-0.9,2.1-0.8c0.6,0,1.8,0.5,2.7,1c2.8,1.3,2.6-0.4,2.6-0.4s4.6-8,4.7-10.1
	C601.4,480.3,607.3,489.3,607.5,492.2z"/>
<path class="st0" d="M617.4,493.3c-0.1,0.4-0.3,0.9-0.6,1.4c-4.5,8.4-8.8,11-10,13.9c-0.1,0.1-0.1,0.3-0.2,0.5
	c-1.8,3.2-9.8,10.6-13.3,1.9c5.4-5,6.2-10,6.2-10s7.6-5.8,8-8.4c0-0.1,0-0.2,0-0.4C611.2,490.5,619,488.4,617.4,493.3z"/>
<path class="st0" d="M628,496.2c-2.7,3.7-8,8.5-10.3,10.6c-2.1,1.8-7.7,3.5-11,2.2c0.1-0.2,0.2-0.3,0.2-0.5c1.2-2.9,5.5-5.5,10-13.9
	c0.3-0.5,0.5-1,0.6-1.4c2.8-0.1,8.8-0.1,10.5,1.3C628.4,495,628.5,495.5,628,496.2z"/>
<path class="st0" d="M626.6,481.6c-9.4-2.5-13.4-11.4-19-19.4c-2.5-3.6-5.4-5.4-7.8-6.2c5.6-2.2,12.4-3,18.7,1
	c3.6,2.3,6.1,3.7,7.9,4.7c-0.1,5.7-0.3,17,0.1,19.3C626.5,481.1,626.5,481.3,626.6,481.6z"/>
<path class="st0" d="M628,489.1c-18.4-3.4-24.3-18.8-27.5-24.2c-2.4-4-6.8-4.4-9.2-4.3c2.2-1.5,5.1-3.3,8.4-4.5
	c2.4,0.9,5.3,2.7,7.8,6.2c5.6,8,9.6,16.8,19,19.4C627,483.4,627.7,486.3,628,489.1z"/>
<path class="st0" d="M551.8,403.5c-0.2-0.6-3.8-9.7-4-22.5c1.5,1.6,3,2.9,4.4,4.1C550.7,396.9,551.8,403,551.8,403.5z"/>
<path class="st0" d="M553.9,374.9c-0.2,0.8-0.3,1.6-0.5,2.4c-1.6-1.6-3.3-3.7-5.4-6.3v0c0.4-13.8,0.6-31.2-2.6-37.6
	c1.1-1.3,2.2-2.6,3.3-4C548.8,329.3,557.8,355.7,553.9,374.9z"/>
<path class="st0" d="M557.8,409.4c0-4,3.1-16.4-2.9-21.9c-0.8-0.8-1.7-1.5-2.7-2.4c-1.3-1.2-2.8-2.6-4.4-4.1
	c-4.9-5-10.6-12.4-15.1-24.7v0c0.9-5.2,1.6-9.2,1.8-10.5c0.4,0.2,0.8,0.3,1.1,0.4c1.7,5.5,4.9,14.5,9,20.3c1.2,1.7,2.3,3.2,3.4,4.6
	v0c2,2.6,3.8,4.6,5.4,6.3c1.8,1.9,3.3,3.4,4.6,4.6c2.8,2.8,7.8,11.2,7.7,21c-0.2,9.8,1.1,33.8,3.4,37.5
	C561.2,432.9,557.8,413.4,557.8,409.4z"/>
<path class="st0" d="M506.1,375c-4.8,4.6-17.2,18.4-23.6,25.5c-0.9,0-2-0.1-3.1-0.1c-0.2-3.2-0.2-7.5-0.1-12.5v0
	c0.1-3.7,0.2-7.6,0.4-11.6c0.2-4.6,0.4-9.2,0.6-13.4c0.2-3.1,0.3-5.9,0.5-8.4c0.1-1.3,0.2-2.6,0.2-3.7
	C490.6,360.8,500.6,370.8,506.1,375z"/>
<path class="st0" d="M524.3,441.6c-0.1,2.5-0.2,4.1-0.6,4.1c-0.4,0-2,0.2-4.3,0.3h0c-4.3,0.2-11,0.5-16.4,0.5
	c0.3-22.8-6-45.1-8.1-51.6c1-0.2,2.3-0.4,3.6-0.4c2.5,0,5.1,0,7.6-0.1c6.6-0.2,12.3-0.4,13.5,0.1c1.7,0.7,2.8,6.3,2.8,6.3
	S524.6,430.5,524.3,441.6z"/>
<path class="st0" d="M527.7,368c-2.3,3.4-11,15.7-21.5,26.3c-2.5,0.1-5.1,0.1-7.6,0.1c-1.4,0-2.6,0.2-3.7,0.4
	c-5.7,1.3-6.8,5.6-6.9,5.9v0c0,0,0,0,0,0s-2.1-0.2-5.5-0.3c6.3-7.1,18.8-20.9,23.6-25.5c-5.5-4.2-15.5-14.1-25-24.1
	c-10.4-10.8-20.3-21.6-23.3-24.9l19.5-17.1l8.6,11.7l4.8-11.7l11.8,0.9c0,0-2.3,9.8-2.1,10.8c0,0.1,0.3,0.2,0.9,0.3l-4.1,17.5l11,11
	l1-1.4C512.2,351.9,520.6,361.9,527.7,368z"/>
<path class="st0" d="M491.4,169.1c-0.3,1-2.5,6-5.3,6s-13.3-1.9-13.3-1.9s9.1-8.1,13.3-8.3S491.6,168.1,491.4,169.1z"/>
<path class="st0" d="M463.4,172.4c-4.4,3.3-9.8,3.7-14,1.8c-4.1-1.9-4.4-7.6,0.9-8.2C455.7,165.5,464,172,463.4,172.4z"/>
<path class="st0" d="M513.2,181.1c-1.6,7-5.3,13.9-3.7,22.9l-6.8-3.2c-0.3-7.4,3.1-16,3.9-21.3c0.5-3.4-1-6.1-2.4-7.9
	c-0.2-0.3-0.4-0.5-0.6-0.7c0.1-0.6,0.2-1.1,0.3-1.7c0.1-0.5,0.2-1,0.3-1.6c1.8,0.9,4.5,2.4,7.1,3.9
	C512.8,173.8,514.1,177.2,513.2,181.1z"/>
<path class="st0" d="M587,151.7c-0.3,0.4-0.8,0.6-1.5,0.5c0,0,0,0,0,0c-0.1,0-0.2,0-0.3-0.1c-4.5-0.9-13-5.4-17.5-3.7
	c-2.9,1-6.3,0.6-7.9-0.6c-0.1-0.1-0.2-0.1-0.2-0.2c0.1-0.2,0.2-0.3,0.3-0.5c0.6-0.9,1.2-1.6,1.6-2.1c5.5-6.1,17.6-6.4,21.4-3
	C585.8,144.7,588.2,150,587,151.7z"/>
<path class="st0" d="M585.5,152.2c-2.6,1-7.9,3.4-10.7,7.8c-6.8,11-24.5,39.8-26.2,44.4c-0.5,1.4-3.7,3.5-5.8,5
	c-3.3-1.7-6.4-3.5-9.2-5.2c0,0,0,0,0,0c1.2-1.1,2.5-2.4,2.7-2.8c0.3-1.2-1.4-5.4-0.7-7.3c0.6-1.8,16.9-34.9,24.2-46.2
	c1.6,1.3,5,1.6,7.9,0.6c4.5-1.6,13,2.9,17.5,3.7C585.2,152.2,585.3,152.2,585.5,152.2z"/>
<path class="st0" d="M342.1,500c0,0-4.8,6.4-7.6,7.7c-2.9,1.3-11.8-1.2-15.5-2.8c-1-0.4-2.4-1.7-4-3.4c-0.3-0.3-0.6-0.6-0.9-1
	c2.5-1.6,4.9-3.2,7.1-4.6c0.1,0.2,0.2,0.5,0.2,0.7c1-1.4,8.4-0.7,8.4-0.7s1.3-1.2,3-2.7c0.1,0,0.2,0,0.2,0s0.5-0.5,1.3-1.2
	c0,0,0,0,0,0c2.4-1.8,5.2-3.5,6.8-3.1c0.3,0.1,0.5,0.2,0.7,0.4c1.1-0.9,2.1-1.3,2.1-1.3s-0.1-0.7-0.2-1.8c0.2,0,0.5,0,0.7,0
	c0.3,0.1,0.5,0.2,0.7,0.4C347.1,488.8,344.1,497.5,342.1,500z"/>
<path class="st0" d="M355.3,488.2c-2.6,4.3-13.2,11.8-13.2,11.8c2-2.5,5-11.2,2.9-13.3c1.1-0.9,2.1-1.3,2.1-1.3s-0.4-2.6-0.5-5.1
	l8.4-5.3C355.9,480.2,356.6,486,355.3,488.2z"/>
<path class="st0" d="M480.8,354.6c-0.1,2.5-0.3,5.3-0.5,8.4c-6,1.1-15.6,2.8-19.2,2.7c-5.5-0.2-13-7.8-13-7.8s-4.9,4.8-8.1,5.3
	c-2.1,0.3-7-2.5-10.2-4.6c-0.2-3.9-0.5-7.8-0.7-11.5c4.8-4.7,12.4-10,20.8-9.5C462.1,338.2,475.1,350.8,480.8,354.6z"/>
<path class="st0" d="M480.4,363c-0.2,4.2-0.5,8.8-0.6,13.4c-3.1,1.7-8.2,3.9-13.2,3.7c-8-0.3-15.4-5.5-15.4-5.5s-4.6,4.1-9.8,5.4
	c-2.6,0.6-7.1-2.2-10.9-5.2c-0.1-5.3-0.3-10.9-0.6-16.3c3.3,2.1,8.2,4.9,10.2,4.6c3.2-0.5,8.1-5.3,8.1-5.3s7.5,7.7,13,7.8
	C464.8,365.8,474.3,364.1,480.4,363z"/>
<path class="st0" d="M427.9,298l-4,1.4l-1.7,7l-8.5,0.7c0,0-2.1-13.7-16-13.9c0-6.5,0.2-14.4,0.3-19.4v0c0-0.1,0.1-0.2,0.1-0.3
	c0.6-1.1,1.2-2.1,1.8-3l2.9,3.2l-1.1,1.1l14.7,15.8l2.2-2.1L427.9,298z"/>
<path class="st0" d="M415.3,338.1L415.3,338.1c0,0.1-0.1,0.2-0.2,0.3c-0.9,1.6-2.1,3.3-3.5,5.1l-8.2-0.8l-21.9-11l-8.9-11.2
	c2.4,0.2,6.1-0.3,9.7-4.3c5.6-6.2,13.3-29,14.6-40.5v0c0.4-0.7,0.7-1.4,1.1-2.1c-0.1,5.1-0.3,12.9-0.3,19.4c0,5.8,0.1,10.5,0.5,11.5
	c0.8,2.1,7.6,11.8,12.1,19.1c1.4,2.4,2.6,4.5,3.3,6C413.5,329.7,414.4,332.9,415.3,338.1z"/>
<path class="st0" d="M430.2,388.1c-0.2,4.8-0.7,8.9-1.4,12.1l-20.9-3.8c2.5-4.2,5.8-11.5,7.9-23.2c2.3-13.2,0.9-26.7-0.5-35.1v0
	c2.8-5.5,4.8-15.7,5.9-22.5h1l4.8,8.1v0c0.4,4.1,1.3,13,2.1,23.3c0.3,3.7,0.5,7.5,0.7,11.5c0.3,5.4,0.5,11,0.6,16.3
	C430.5,379.5,430.4,384,430.2,388.1z"/>
<path class="st0" d="M479.7,376.3c-0.2,4-0.3,7.9-0.4,11.6v0c-4.7,2.4-13.2,6.7-16.7,8.1c-5,2-13-5.4-13-5.4s-4.3,3-9.6,3.5
	c-3.5,0.3-7.4-3.4-9.8-6.1c0.2-4.1,0.2-8.6,0.2-13.3c3.8,3,8.2,5.8,10.9,5.2c5.2-1.2,9.8-5.4,9.8-5.4s7.4,5.2,15.4,5.5
	C471.5,380.2,476.6,378,479.7,376.3z"/>
<path class="st0" d="M461.1,400.8V423c-2.2,0.5-6.4,1.2-11.2,1.6c-5.8,0.4-12.5,0.2-17.8-1.9c-3.4-8-2.6-17.1-1.7-22.2l1.7,0.3
	C432,400.8,451.9,397.7,461.1,400.8z"/>
<path class="st0" d="M479.4,400.4c-5.2-0.1-12-0.2-18.3,0.4c-9.2-3.1-29.1,0-29.1,0l-1.7-0.3l-1.5-0.3c0.7-3.2,1.2-7.3,1.4-12.1
	c2.4,2.7,6.4,6.4,9.8,6.1c5.4-0.5,9.6-3.5,9.6-3.5s8,7.3,13,5.3c3.5-1.4,12-5.7,16.7-8.1C479.3,392.8,479.3,397.2,479.4,400.4z"/>
<path class="st0" d="M449.9,424.6v15.6c-17-0.5-26.4-4.3-31.5-7.7c0.9-9.1,1.6-18.1,1.7-20.3c0.2-4.6-0.5-3.7-6.4-8.2
	c-2.5-1.9-6-2.8-9.2-3.1c0.6-0.5,1.8-1.9,3.4-4.5l20.9,3.8l1.5,0.3c-0.9,5.1-1.6,14.2,1.7,22.2C437.3,424.8,444,425,449.9,424.6z"/>
<path class="st0" d="M491.6,429.7c-4.6,4.1-15.8,10.9-39.6,10.5c-0.7,0-1.4,0-2.1,0v-15.6c4.9-0.3,9.1-1.1,11.2-1.6v1.3
	c0,0,17,6.1,29.7-1C491.1,425.5,491.3,427.6,491.6,429.7z"/>
<path class="st0" d="M450.8,453.8l-1.3,16.9c-1.1-0.1-2.1-0.1-3.2-0.2c-16.5-1.6-27-11.1-31.3-15.9c0.2-0.3,0.4-0.6,0.5-0.8
	c0.4-1,0.9-3.9,1.4-7.7C422.8,448.6,434.8,452.9,450.8,453.8z"/>
<path class="st0" d="M519.4,446c-19.9,17.1-48.8,25.6-69.9,24.7l1.3-16.9c0.1,0,0.2,0,0.2,0c18.7,1,36.5-5.9,42.8-8.6
	c0.1,0.3,0.1,0.5,0.1,0.6c0.3,0.6,4.1,0.8,9,0.8C508.4,446.5,515.1,446.2,519.4,446z"/>
<path class="st0" d="M493.8,445.1c-6.3,2.7-24.1,9.6-42.8,8.6c-0.1,0-0.2,0-0.2,0c-16-0.9-28-5.2-33.9-7.8c0.5-3.9,1-8.7,1.5-13.5
	c5.1,3.4,14.5,7.2,31.5,7.7c0.7,0,1.4,0,2.1,0c23.9,0.3,35.1-6.5,39.6-10.5C492.6,437,493.4,443.2,493.8,445.1z"/>
<path class="st0" d="M347.1,485.4c0,0-1,0.4-2.1,1.3c-0.2-0.2-0.4-0.3-0.7-0.4c-0.2,0-0.4-0.1-0.7,0c0.1,1,0.2,1.8,0.2,1.8
	s-1,0.4-2.1,1.3c-0.2-0.2-0.4-0.3-0.7-0.4c-1.6-0.4-4.4,1.3-6.8,3.1c0,0,0,0,0,0c-0.5,0.4-1,0.8-1.5,1.2c-1.7,1.4-3,2.7-3,2.7
	s-7.5-0.7-8.4,0.7c0-0.2-0.1-0.5-0.2-0.7c1.2-0.8,2.3-1.5,3.3-2.1c2.6-1.6,4.8-3.1,6.6-4.3c0.5-0.3,0.9-0.6,1.3-0.8
	c0.5,0,0.8,0,0.8,0l3.6-2.3c1-0.2,2-0.5,2.8-0.7c2.5-0.8,4-1.7,3.1-2.7c-0.1-0.1-0.1-0.2-0.2-0.2l0.8-0.5l3.2-2
	C346.7,482.8,347.1,485.4,347.1,485.4z"/>
<path class="st0" d="M349.3,463l-17.2,10.2c-0.5-1.4-1.1-2.7-2.1-3.3c2-2.9,3.2-7.6,3.9-11.2c0.7,0.2,1.4,0.4,2.1,0.5
	C342.5,460.8,347.6,462.4,349.3,463z"/>
<path class="st1" d="M588.1,481.5c-3.2,2.2-5.3,4.6-6.6,6.9c-0.3,0.5-0.6,1.1-0.9,1.6c-1.7,3.6-1.8,6.4-1.8,6.7
	c-1-2.3-1.3-4.5-1.1-6.4c0.1-1.1,0.3-2.1,0.6-3c1.2-3.6,3.6-5.8,3.6-5.8S584.2,481.4,588.1,481.5z"/>
<path class="st1" d="M629.5,491.2c1.5,2.7,1.5,4.1,1.2,6c-0.5,2.6-6.6,8.4-6.6,8.4s-2.5-0.1-6.5-0.5
	C620,501.5,624.5,495.4,629.5,491.2z"/>
<path class="st1" d="M655,478.5c-1.4,3.4-3.5,5.4-5.7,6.5c-2.5,1.3-5.2,1.6-7.3,1.8c-0.8,0.1-1.5,0.2-2,0.3c-0.4,0.1-0.8,0.2-1,0.4
	c-2.4,1.7-7.3,5.5-2.3,10.6c-8.1,1.1-6.9,11.7-2,14c0.5,0.2,1.1,0.5,1.7,0.8c0,0,0,0,0.1,0c2.2,1.1,4.7,2.6,6.6,4.4
	c2.7,2.5,4.4,5.5,2.8,9.2c-3.1,7.1-11.4,4.5-11.4,4.5s2.8-1.6,2.3-3.6c-0.6-2-5.5-3.6-10.4-9.2c-4.9-5.7-2.3-12.6-2.3-12.6
	s6.1-5.8,6.6-8.4c0.4-1.9,0.3-3.2-1.2-6c-0.6-1.1-1.5-2.5-2.6-4.3c-0.1,0-0.2,0-0.3-0.1c1.4-3.2,4.7-9.6,8.2-12.5
	c4.7-3.8,11.5-1.1,11.9-2.5c0.5-1.3-2.1-7.4-2.1-7.4S659.2,468.5,655,478.5z"/>
<path class="st1" d="M648.2,503.6c-5.6,1.4-9.6,6-11.8,9.4c0,0-0.1,0-0.1,0c-0.6-0.3-1.2-0.6-1.7-0.8c-4.9-2.3-6.2-12.9,2-14
	c-5-5.1-0.1-8.9,2.3-10.6c0.3-0.2,0.6-0.3,1-0.4C640.1,492.7,643,500,648.2,503.6z"/>
<path class="st1" d="M810.2,532.4c-4.6,0.4-127-22.5-133.1-22.8c-6.2-0.2-11.3,3.6-11.3,3.6s-1.9-5.1-8.3-6.5
	c-4.9-1.1-16,3.8-21,6.2c2.2-3.3,6.2-8,11.8-9.4c-5.3-3.5-8.2-10.9-8.3-16.5c0.6-0.1,1.3-0.2,2-0.3c0.7,1.6,2,3.7,4,6.5
	c7,9.7,22.7,3.3,22.7,3.3s2.9,3.8,8.5,7c5.5,3.2,132.9,24.1,132.9,24.1S810.8,528.2,810.2,532.4z"/>
<path class="st1" d="M857,538.1c-5.4-0.9-23,4.2-33.7,8.3c-11.3-7.4-55-12.4-69.7-8c-12.1-7.7-41.5-15.3-57.9-18.8
	c-16.4-3.5-27.1-1.4-27.1-1.4s-4.9-2.6-12.9-3.7c-5.7-0.8-10.3,1.6-12.7,2.9c-2-1.8-4.5-3.3-6.6-4.4c0,0,0,0,0.1-0.1
	c5-2.4,16.1-7.2,21-6.2c6.4,1.4,8.3,6.5,8.3,6.5s5.1-3.8,11.3-3.6c6.1,0.2,128.6,23.2,133.1,22.7c0.7-4.3-0.1-4.7-0.1-4.7
	s-127.3-20.9-132.9-24.1s-8.5-7-8.5-7s-15.8,6.4-22.7-3.3c-2-2.8-3.2-4.9-4-6.5c2.1-0.2,4.8-0.5,7.3-1.8c4.9,5.2,10,7.7,21.7,6.4
	c28.1,15,70.5,18.6,87.9,14.8c17.3,10.8,68,14.6,68,14.6S842,534,857,538.1z"/>
<path class="st1" d="M578.4,487.2c-0.3,0.9-0.5,1.9-0.6,3c-6.1,0.5-18.5,1.6-21.4,2.1c-0.2,0.2-0.5,0.4-0.6,0.6
	c-1.7-1.6-5.3-5.7-4.1-9.9c0.8-2.7,3.1-4.1,5.4-4.7c2.2-0.6,4.4-0.5,5,0C562.8,479,572.3,484.6,578.4,487.2z"/>
<path class="st1" d="M577.8,490.2c-0.2,1.9,0.1,4.1,1.1,6.4c0,0,0,0,0,0l-21.5,3.2c0,0-5.2-3.4-1.6-7c0.2-0.2,0.4-0.4,0.6-0.6
	C559.3,491.8,571.6,490.7,577.8,490.2z"/>
<path class="st0" d="M336.8,486.5l-3.6,2.3c0,0-0.3,0-0.8,0c-0.4,0.2-0.8,0.5-1.3,0.8c-1.8,1.2-4.1,2.6-6.6,4.3
	c-1,0.7-2.2,1.4-3.3,2.1c-2.2,1.4-4.6,2.9-7.1,4.6c-36,23.2-102.4,65.7-108.3,68.7c-8.6-0.2-6.4-11.3-6.4-11.3l106-67.7l7.7-4.9
	l3.4-2.2l0.2-0.1l3.3-2.1c0.3,0.3,0.6,0.7,0.9,1c0,0,0.1,0.1,0.1,0.1c2.3,2.8,4.7,5.3,5.7,5.5c0.7,0.1,2.5,0.1,4.7-0.2
	c0.2,0,0.4,0,0.5-0.1C333.6,487.1,335.3,486.8,336.8,486.5z"/>
<path class="st0" d="M354.9,474.9l-8.4,5.3l-3.2,2l-0.8,0.5c-2.5-2.7-9.4-3.3-9.4-3.3s-0.1-3.4-1-6.3l17.2-10.2l26.1-15.6
	c9.6-0.7,8.5,8.5,8.5,8.5L354.9,474.9z"/>
<path class="st0" d="M320,480.9l-3.3,2.1l-0.2,0.1l-3.4,2.2l-7.7,4.9c-0.7-0.9-1.1-1.4-1.2-1.5c-0.2-0.2-0.3-4.9-0.2-9.8
	c1.9,0.5,4.4-0.4,6.5-1.5c2.5-1.3,4.4-2.9,4.4-2.9S317.4,477.7,320,480.9z"/>
<path class="st0" d="M339.7,485.7c-0.8,0.3-1.8,0.5-2.8,0.7c-1.6,0.3-3.3,0.6-4.8,0.8c-0.2,0-0.4,0-0.5,0.1c-2.2,0.2-4,0.3-4.7,0.2
	c-1-0.2-3.4-2.7-5.7-5.5c0,0-0.1-0.1-0.1-0.1c-0.3-0.3-0.6-0.7-0.9-1c-2.7-3.2-5-6.4-5-6.4s-2,1.6-4.4,2.9c-2.1,1.1-4.5,2-6.5,1.5
	c0.1-4.6,0.4-9.3,0.9-10.6c1.1-2.8,9-14.9,9-14.9c5.7-0.6,13.4,0.5,20.5,2.1c-0.1,0.8-0.3,2-0.6,3.2c-0.7,3.5-1.9,8.2-3.9,11.2
	c1,0.6,1.6,1.9,2.1,3.3c0.9,2.9,1,6.3,1,6.3s6.9,0.7,9.4,3.3c0.1,0.1,0.1,0.1,0.2,0.2C343.7,484,342.1,485,339.7,485.7z"/>
</svg>
