<?xml version="1.0" encoding="utf-8"?>
<!-- Generator: Adobe Illustrator 25.2.0, SVG Export Plug-In . SVG Version: 6.00 Build 0)  -->
<svg version="1.1" baseProfile="tiny" id="Layer_1" xmlns="http://www.w3.org/2000/svg" xmlns:xlink="http://www.w3.org/1999/xlink"
	 x="0px" y="0px" viewBox="0 0 1000 1000" overflow="visible" xml:space="preserve">
<path fill="#FFFFFF" stroke="#000000" stroke-miterlimit="10" d="M595.06,189.79l-8.38,1.25c0,0-40.99-0.36-52.04,0
	c-4.94,0.16-11.14,0.79-17.16,3.31c0,0,0,0-0.01,0c-7.42,3.1-14.57,9.09-18.77,20.63c-2.47,6.81-3.11,14.77-3.03,22.73
	c0,0,0,0,0,0.01c0.16,16.49,3.39,32.95-0.29,39.04c0.13,0.83,0.46,1.91,0.95,3.2c2.29,6.04,7.94,16.59,10.69,26.98
	c3.33,12.59,18.53,19.96,18.53,19.96s17.11-19.96,39.21-12.83c13.78-6.65,41.35,10.69,41.35,10.69s14.73-13.51,21.67-37.31
	c1.11-3.8,2.02-7.87,2.63-12.18v-0.01c0.62-4.33,0.95-8.9,0.89-13.71C630.82,221.87,609.91,185.51,595.06,189.79z M523.3,241.24
	l17.7,13.42l15.45,2.02h-18.06l-16.76-7.72l-12.23,3.21L523.3,241.24z M529.71,271.76c-6.53,0.29-15.92-4.92-15.92-4.92
	s4.81-7.92,13.96-7.54c9.15,0.37,15.27,6.46,15.27,6.46S536.25,271.48,529.71,271.76z M548.99,303.41l4.89-2.19l7.07,6.05
	L548.99,303.41z M569.22,305.54c-0.09-0.26,7.04-7.21,7.04-7.21l3.29,1.33L569.22,305.54z M590.45,264.8
	c-10.6,0-15.23-5.74-15.23-5.74s7.53-6.54,15.23-6.42c7.7,0.12,15.3,5.53,15.3,5.53S601.05,264.8,590.45,264.8z M593.39,243
	l-9.97,4.65l-14.14,4.99l12.06-7.24l9.8-7.01l15.68,7.84L593.39,243z"/>
<path fill="#FFFFFF" stroke="#000000" stroke-miterlimit="10" d="M684.39,343.88c-9.67-3.63-22.51-7.51-33.55-7.64
	c-6.1-9.13-16.79-26.12-19.86-32.78c-0.27-0.59-0.49-1.1-0.63-1.52c-0.98-2.84-1.91-9.11-2.57-14.49c1.11-3.8,2.02-7.87,2.63-12.18
	v-0.01c0.62-4.33,0.95-8.9,0.89-13.71c-0.48-39.68-21.39-76.04-36.24-71.76l-8.38,1.25c0,0-40.99-0.36-52.04,0
	c-4.94,0.16-11.14,0.79-17.16,3.31c0,0,0,0-0.01,0c-0.59-0.01-20.53-0.29-27.2,10.95c-4.21,7.09-9.67,25.77-17.35,41.96
	c-0.41-7.33-0.45-15.5,0.12-24.44c2.36-36.69,34.93-77.53,73.61-85.54h0.03c37.83,3.68,51.05,24.89,51.05,24.89
	s13.72-3.43,33.34,9.12c0,0.01,0,0.01,0.01,0.01c9.64,14.73,20.63,33.31,23.27,54.85c3.09,25.19,6.41,55.13,19.48,67.01
	c2.1,1.91,4.3,3.91,6.54,6.1c-17.05-7.11-24.08-24.35-29.28-46.2c-1.92,14.85-4.74,47.56,5.4,60.77
	C666.45,326.82,678.15,331.15,684.39,343.88z"/>
<path fill="#FFFFFF" stroke="#000000" stroke-miterlimit="10" d="M707.4,354.21c-5.04-2.29-8.26-4.02-8.26-4.02
	s-6.11-3.05-14.75-6.31c-6.24-12.73-17.94-17.06-27.9-30.05c-10.14-13.21-7.32-45.92-5.4-60.77c5.2,21.85,12.23,39.09,29.28,46.2
	l0.01,0.01C691.25,309.92,702.92,324.92,707.4,354.21z"/>
<path fill="#FFFFFF" stroke="#000000" stroke-miterlimit="10" d="M631.07,171.29c-19.62-12.55-33.34-9.12-33.34-9.12
	s-13.22-21.21-51.05-24.89c0.4-0.08,0.8-0.16,1.21-0.24c39.21-7.37,50.14,11.88,50.14,11.88s17.82-0.47,28.28,15.21
	C627.83,166.4,629.42,168.79,631.07,171.29z"/>
<path fill="#FFFFFF" stroke="#000000" stroke-miterlimit="10" d="M517.71,371.34l-5.18,17.45l-0.04,0.13c0,0-0.72-1.96-1.97-5.2
	c-3.95-10.28-13.19-33.45-21.32-47.55c-7.66-13.28-9.35-28.62-9.77-38.35v-0.01c3.59-7.06,8.56-14.91,9.23-26.93
	c0.65-11.72,4.27-24.75,7.01-33.16c0.16,16.49,3.39,32.95-0.29,39.04c0.13,0.83,0.46,1.91,0.95,3.2c0,0,6.89,58.58,21.15,75.69
	L517.71,371.34z"/>
<path fill="#FFFFFF" stroke="#000000" stroke-miterlimit="10" d="M517.47,194.35c-7.42,3.1-14.57,9.09-18.77,20.63
	c-2.47,6.81-3.11,14.77-3.03,22.73c0,0,0,0,0,0.01c-2.74,8.41-6.36,21.44-7.01,33.16c-0.67,12.02-5.64,19.87-9.23,26.93
	c-0.17-3.86-0.14-6.83-0.21-8.45c-0.18-4.34-5.02-19.06-6.3-42.09c0-0.01,0-0.01,0-0.01c7.68-16.19,13.14-34.87,17.35-41.96
	C496.94,194.06,516.88,194.34,517.47,194.35z"/>
<path fill="#FFFFFF" stroke="#000000" stroke-miterlimit="10" d="M461.65,817.08v0.01c-3.58,2.17-6.69,4.15-9.29,5.87
	c-2.93-4.66-5.95-7.41-8.31-7.03c-0.46,0.07-0.92,0.23-1.38,0.47c-0.26-22.54-0.49-66.75,1.62-74.13c0,0,6.41-11.41,19.96-15.69
	C464.25,726.58,455.07,793.83,461.65,817.08z"/>
<path fill="#FFFFFF" stroke="#000000" stroke-miterlimit="10" d="M464.25,726.58c-13.55,4.28-19.96,15.69-19.96,15.69
	c-5.71-8.91-3.57-39.55,2.98-51.56v-0.01c0,0,0,0,0.01-0.01c0.17-0.48,5.76-15.67,18.04-15.79
	C458.54,689.51,464.25,726.58,464.25,726.58z"/>
<path fill="#FFFFFF" stroke="#000000" stroke-miterlimit="10" d="M709.95,839.57c-1.96-0.82-4.38-1.68-7.2-2.53
	c0.04-7.09-2.49-16.14-2.19-17.78c0.25-1.33,2.06-11.33,3.14-17.26C706.82,810.76,709.38,822.91,709.95,839.57z"/>
<path fill="#FFFFFF" stroke="#000000" stroke-miterlimit="10" d="M696.75,835.37c-2.48-0.64-5.16-1.27-8.03-1.88
	c0.11-11.34-7.52-28.25-7.52-28.25l3.92-18.09l1.57-7.23c0.94,0.27,1.88,0.55,2.82,0.84c0,0,2.42,1.29,5.61,5.21
	c-1.5,6.99-3.23,22.61-3.23,22.61s0.01,0.03,0.03,0.09v0.01c0.01,0.05,0.03,0.11,0.05,0.18c0.07,0.22,0.17,0.57,0.3,1.03
	c0.04,0.16,0.08,0.32,0.14,0.49c0.04,0.18,0.1,0.37,0.16,0.56c0.16,0.59,0.35,1.28,0.55,2.05c0.04,0.17,0.09,0.35,0.14,0.53
	C694.7,819.13,696.77,828.38,696.75,835.37z"/>
<path fill="#FFFFFF" stroke="#000000" stroke-miterlimit="10" d="M460.8,875.32c-6.01,3.29-9.88,5.64-10.81,6.43
	c-1.71,1.44-5.23,0.76-9.04-1.29c-6.25-3.36-13.3-10.43-14.48-17.96c-1.81-11.48,7.71-41.77,16.2-46.1c0.46-0.24,0.92-0.4,1.38-0.47
	c2.36-0.38,5.38,2.37,8.31,7.03C459.77,834.77,466.61,858.83,460.8,875.32z"/>
<path fill="#FFFFFF" stroke="#000000" stroke-miterlimit="10" d="M538.92,682.67c-1.26,7.31-5.54,28.55-15.03,44.63
	c0,0-46.1-10.7-59.64-0.72c0,0-5.71-37.07,1.07-51.68C478.98,670.74,538.92,682.67,538.92,682.67z"/>
<path fill="#FFFFFF" stroke="#000000" stroke-miterlimit="10" d="M523.89,727.3c-2.29,28.59-15.36,55.49-23.3,69.51
	c0,0.01-0.01,0.01-0.01,0.01c-2.23,0.99-4.41,1.99-6.53,2.97c0,0.01,0,0.01,0,0.01c-3.6,1.68-7.04,3.36-10.31,5.01
	c-3.79,1.94-7.36,3.83-10.68,5.67c-4.2,2.32-8.02,4.55-11.41,6.6c-6.58-23.25,2.6-90.5,2.6-90.5
	C477.79,716.6,523.89,727.3,523.89,727.3z"/>
<path fill="#FFFFFF" stroke="#000000" stroke-miterlimit="10" d="M687.63,766.42v0.01c-1.5,5.22-2.85,9.55-4.02,12.61
	c-2.61-0.73-5.2-1.41-7.8-2.04c-4.4-1.06-8.77-1.99-13.12-2.79c-4.24-0.77-8.46-1.42-12.64-1.96c-4.59-0.58-9.14-1.03-13.66-1.34
	c-5.36-0.38-10.67-0.57-15.92-0.59h-0.01c-4.53-0.03-9,0.07-13.44,0.28c-1.84,0.09-3.67,0.2-5.49,0.33
	c-0.12-5.83-0.28-12.86-0.44-20.17c11.86-5.6,33.24-14.95,40.75-13.46C649.83,738.9,671.79,755.04,687.63,766.42z"/>
<path fill="#FFFFFF" stroke="#000000" stroke-miterlimit="10" d="M689.8,758.67v0.01c-0.75,2.75-1.47,5.34-2.17,7.74
	c-15.84-11.38-37.8-27.52-45.79-29.12c-7.51-1.49-28.89,7.86-40.75,13.46c-0.26-12.44-0.54-25.7-0.68-35.23v-0.07
	C617.5,707.61,652.34,702.32,689.8,758.67z"/>
<path fill="#FFFFFF" stroke="#000000" stroke-miterlimit="10" d="M691.84,751.04c-0.7,2.65-1.38,5.2-2.04,7.63
	c-37.46-56.35-72.3-51.06-89.39-43.21c-0.33-22.76,16.41-30.57,36-24.76C652.04,695.34,680.82,735.11,691.84,751.04z"/>
<path fill="#FFFFFF" stroke="#000000" stroke-miterlimit="10" d="M700.56,819.26c-0.3,1.64,2.23,10.69,2.19,17.78
	c-1.19-0.37-2.46-0.73-3.8-1.1c-0.72-0.19-1.45-0.38-2.2-0.57c0.02-6.99-2.05-16.24-3.49-21.85c-0.05-0.18-0.1-0.36-0.14-0.53
	c-0.2-0.77-0.39-1.46-0.55-2.05c-0.06-0.2-0.11-0.38-0.16-0.56c-0.05-0.18-0.1-0.34-0.14-0.49c-0.13-0.46-0.23-0.81-0.3-1.03
	c-0.02-0.07-0.04-0.13-0.05-0.18v-0.01c-0.02-0.06-0.03-0.09-0.03-0.09s1.73-15.62,3.23-22.61c2.65,3.26,5.83,8.35,8.58,16.01
	c0,0.01,0,0.01,0,0.02C702.62,807.93,700.81,817.93,700.56,819.26z"/>
<path fill="#FFFFFF" stroke="#000000" stroke-miterlimit="10" d="M610.74,826.75c-1.57,0.05-3.14,0.11-4.71,0.19
	c-4.74,0.22-9.48,0.57-14.19,1.04c-3.34-14.71-10.92-26.54-10.92-26.54l4.15-28.85c5.39-0.72,10.88-1.28,16.46-1.66
	c1.82-0.13,3.65-0.24,5.49-0.33l-6.62,29.89C600.4,800.49,607.8,813.05,610.74,826.75z"/>
<path fill="#FFFFFF" stroke="#000000" stroke-miterlimit="10" d="M591.84,827.98c-4.19,0.43-8.35,0.96-12.46,1.61
	c-1.57,0.25-3.17,0.53-4.78,0.83c-1.52-9.19-11.26-24.77-11.26-24.77l3.12-29.97c6.06-1.21,12.27-2.26,18.61-3.09l-4.15,28.85
	C580.92,801.44,588.5,813.27,591.84,827.98z"/>
<path fill="#FFFFFF" stroke="#000000" stroke-miterlimit="10" d="M574.6,830.42c-4.19,0.79-8.51,1.77-12.89,2.91
	c-1.57-10.68-12.16-21.68-12.16-21.68l3.46-32.93c4.39-1.1,8.88-2.12,13.45-3.04l-3.12,29.97
	C563.34,805.65,573.08,821.23,574.6,830.42z"/>
<path fill="#FFFFFF" stroke="#000000" stroke-miterlimit="10" d="M561.71,833.33c-4.71,1.22-9.51,2.61-14.33,4.15
	c-2.8-12.92-9.94-22.86-9.94-22.86l0.85-31.83c4.77-1.45,9.69-2.81,14.72-4.07l-3.46,32.93
	C549.55,811.65,560.14,822.65,561.71,833.33z"/>
<path fill="#FFFFFF" stroke="#000000" stroke-miterlimit="10" d="M547.38,837.48c-2.22,0.7-4.45,1.44-6.67,2.19
	c-5.38-10.68-15.63-21.6-15.63-21.6l3.55-32.17c3.16-1.07,6.38-2.11,9.66-3.11l-0.85,31.83
	C537.44,814.62,544.58,824.56,547.38,837.48z"/>
<path fill="#FFFFFF" stroke="#000000" stroke-miterlimit="10" d="M540.71,839.67c-3.99,1.36-7.98,2.8-11.94,4.3h-0.01
	c-4.92-14.38-15.32-20.91-15.32-20.91l3.16-32.83c3.89-1.49,7.91-2.94,12.03-4.33l-3.55,32.17
	C525.08,818.07,535.33,828.99,540.71,839.67z"/>
<path fill="#FFFFFF" stroke="#000000" stroke-miterlimit="10" d="M528.76,843.97c-3.63,1.37-7.25,2.79-10.81,4.25h-0.01
	c-5.55-10.2-15.78-19.7-15.78-19.7l3.39-33.84c3.56-1.51,7.25-3,11.05-4.45l-3.16,32.83C513.44,823.06,523.84,829.59,528.76,843.97z
	"/>
<path fill="#FFFFFF" stroke="#000000" stroke-miterlimit="10" d="M517.94,848.22c-3.67,1.48-7.28,3-10.81,4.53
	c-5.71-8.69-14.35-16.54-16.27-20.19c0-5.86,2.27-25.15,3.19-32.76c0,0,0,0,0-0.01c2.12-0.98,4.3-1.98,6.53-2.97
	c0,0,0.01,0,0.01-0.01c1.63-0.7,3.27-1.42,4.96-2.13l-3.39,33.84C502.16,828.52,512.39,838.02,517.94,848.22z"/>
<path fill="#FFFFFF" stroke="#000000" stroke-miterlimit="10" d="M507.13,852.75c-4.19,1.82-8.27,3.64-12.19,5.45
	c-4.95-11.41-13.82-20.65-13.82-20.65l2.62-32.74c3.27-1.65,6.71-3.33,10.31-5.01c-0.92,7.61-3.19,26.9-3.19,32.76
	C492.78,836.21,501.42,844.06,507.13,852.75z"/>
<path fill="#FFFFFF" stroke="#000000" stroke-miterlimit="10" d="M494.94,858.2c-3.38,1.56-6.65,3.1-9.77,4.61
	c-6.46-14.16-14.74-21.45-14.74-21.45l2.63-30.88c3.32-1.84,6.89-3.73,10.68-5.67l-2.62,32.74
	C481.12,837.55,489.99,846.79,494.94,858.2z"/>
<path fill="#FFFFFF" stroke="#000000" stroke-miterlimit="10" d="M642.26,913.38c-0.2,1.06-0.33,2.13-0.38,3.2
	c-45.99,0.07-194.9,0.27-203.53-0.13c-3.99-3.63,0.04-25.5,2.6-35.99c3.81,2.05,7.33,2.73,9.04,1.29c0.93-0.79,4.8-3.14,10.81-6.43
	c6.16-3.39,14.56-7.78,24.37-12.51c3.12-1.51,6.39-3.05,9.77-4.61c3.92-1.81,8-3.63,12.19-5.45c3.53-1.53,7.14-3.05,10.81-4.53h0.01
	c3.56-1.46,7.18-2.88,10.81-4.25h0.01c3.96-1.5,7.95-2.94,11.94-4.3c2.22-0.75,4.45-1.49,6.67-2.19c4.82-1.54,9.62-2.93,14.33-4.15
	c4.38-1.14,8.7-2.12,12.89-2.91c1.61-0.3,3.21-0.58,4.78-0.83c4.11-0.65,8.27-1.18,12.46-1.61c4.71-0.47,9.45-0.82,14.19-1.04
	c-5.09,12.15-17,42.02-14.18,49.35C595.11,884.74,623.27,884.3,642.26,913.38z"/>
<path fill="#FFFFFF" stroke="#000000" stroke-miterlimit="10" d="M815.62,481.73c-8.98,1.99-22.45,4.97-42.7,9.43
	c-60.59,13.36-101.74-1.99-101.74-1.99c-13.19-6.41-25.51-24.74-25.51-24.74c-9.15-15.51-8.43-35.83-6.09-52.46
	c1.88-13.42-17.2-46.34-24.64-58.55c0.57-1.69,1.01-3.26,1.27-4.66c5.07-4.39,12.83-8.8,26.26-11.76c2.6-0.57,5.42-0.8,8.37-0.76
	c11.04,0.13,23.88,4.01,33.55,7.64c8.64,3.26,14.75,6.31,14.75,6.31s3.22,1.73,8.26,4.02c3.52,1.61,7.94,3.49,12.77,5.25
	c11.76,4.27,43.13,13.54,67.36,35.64C809.96,415.55,814.99,473.24,815.62,481.73z"/>
<path fill="#FFFFFF" stroke="#000000" stroke-miterlimit="10" d="M630.35,301.94c-0.98-2.84-1.91-9.11-2.57-14.49
	c-6.94,23.8-21.67,37.31-21.67,37.31s-27.57-17.34-41.35-10.69c-22.1-7.13-39.21,12.83-39.21,12.83s-15.2-7.37-18.53-19.96
	c-2.75-10.39-8.4-20.94-10.69-26.98c0,0,6.89,58.58,21.15,75.69c0,0,4.64,27.33,9.68,31.43c5.04,4.1,6.77,2.48,8.37,8.73l5.87,22.82
	l0.79,3.08c3.09,12.03,17.04,22.1,17.04,22.1s11.95-4.99,17.65-12.83c5.7-7.84,15.92-24,15.68-29.7
	c-0.21-5.16,17.03-32.03,22.38-47.86c-0.5-0.83-0.95-1.56-1.34-2.18c0.79-0.82,1.65-1.65,2.61-2.48
	c2.73-14.49,12.47-23.28,14.14-30.95c0.47-2.15,0.63-7.61,0.63-14.35C630.71,302.87,630.49,302.36,630.35,301.94z M579.55,349.95
	c-6.17,3.46-13.12-1.43-13.12-1.43s-3.33,5.47-11.46,4.04c-8.13-1.42-14.45-16.33-14.45-16.33s1.32-1.88,3.43-4.09
	c1.45-1.52,3.29-3.19,5.33-4.51c1.78-1.14,3.71-2.01,5.69-2.27c7.53-0.99,13.71-0.6,20.25-1.55c1.83-0.27,3.81,0.23,5.72,1.1
	c1.49,0.67,2.93,1.58,4.23,2.53c2.96,2.16,5.14,4.54,5.28,4.93C592.14,337.12,585.73,346.49,579.55,349.95z"/>
<path fill="#FFFFFF" stroke="#000000" stroke-miterlimit="10" d="M650.84,336.24c-2.95-0.04-5.77,0.19-8.37,0.76
	c-13.43,2.96-21.19,7.37-26.26,11.76c2.73-14.49,12.47-23.28,14.14-30.95c0.47-2.15,0.63-7.61,0.63-14.35
	C634.05,310.12,644.74,327.11,650.84,336.24z"/>
<path fill="#FFFFFF" stroke="#000000" stroke-miterlimit="10" d="M468.87,561.2c-0.7,15.68-3.55,54.18-3.55,54.18l-19.96,29.58
	c-7.85-19.25-2.86-43.48-2.86-43.48s-1.53-1.45-3.6-4.6C444.83,586.93,458,566.46,468.87,561.2z"/>
<path fill="#FFFFFF" stroke="#000000" stroke-miterlimit="10" d="M541.4,418.63c-14.58,11.96-68.24,61.33-72.53,142.57
	c-10.87,5.26-24.04,25.73-29.97,35.68c-4.85-7.37-12.66-24.08-10.69-53.47v-0.01c0.59-8.73,2.03-18.56,4.67-29.61
	c15.09-63.16,54.7-83.49,55.93-84.11c0.02-0.01,0.03-0.01,0.03-0.01l22.46-12.95l0.25-0.22l4.03-3.48l19.95-17.21L541.4,418.63z"/>
<path fill="#FFFFFF" stroke="#000000" stroke-miterlimit="10" d="M488.81,429.68c-1.23,0.62-40.84,20.95-55.93,84.11
	c-2.64,11.05-4.08,20.88-4.67,29.61c-7.98-1.49-16.36,0.33-16.36,0.33c-3.21-16.75,1.07-50.25,18.89-79.3
	C448.28,435.83,487.59,429.85,488.81,429.68z"/>
<path fill="#FFFFFF" stroke="#000000" stroke-miterlimit="10" d="M539.34,680.07c0,0-0.13,0.94-0.42,2.6c0,0-59.94-11.93-73.6-7.77
	c-7.49-18.89,0-59.52,0-59.52s32.67-12.12,79.72,11.4C550.5,636.76,539.34,680.07,539.34,680.07z"/>
<path fill="#FFFFFF" stroke="#000000" stroke-miterlimit="10" d="M465.32,674.9c-12.28,0.12-17.87,15.31-18.04,15.79
	c-0.01,0.01-0.01,0.01-0.01,0.01c-4.86-9.5-8.33-31.48-1.91-45.74l19.96-29.58C465.32,615.38,457.83,656.01,465.32,674.9z"/>
<path fill="#FFFFFF" stroke="#000000" stroke-miterlimit="10" d="M561.6,564.61c-8.63,20.81-14.31,54.28-16.56,62.17
	c-47.05-23.52-79.72-11.4-79.72-11.4s2.85-38.5,3.55-54.18c1.04-0.51,2.05-0.87,3.04-1.07C483.72,557.71,523.88,570.13,561.6,564.61
	z"/>
<path fill="#FFFFFF" stroke="#000000" stroke-miterlimit="10" d="M447.27,690.7L447.27,690.7c-4.13,3.9-8.87,8.44-13.64,12.83
	c-10.32-42.8-62.77-80.25-62.77-80.25c-14.61-51.98,27.8-79.19,40.99-79.55c0,0,8.38-1.82,16.36-0.33v0.01
	c-1.97,29.39,5.84,46.1,10.69,53.47c2.07,3.15,3.6,4.6,3.6,4.6s-4.99,24.23,2.86,43.48C438.94,659.22,442.41,681.2,447.27,690.7z"/>
<path fill="#FFFFFF" stroke="#000000" stroke-miterlimit="10" d="M433.63,703.53c-8.93,8.23-17.95,15.96-23.2,18.06
	c-2.91,1.16-5.78,1.78-8.47,2.05c-3.47-15.61-12.81-40.63-37.87-57.65c-30.8-20.92-69.67-34.03-88.72-46.88
	c-3.36-2.27-6.1-4.52-8.07-6.81c-0.01-0.01-0.02-0.02-0.02-0.03c-0.01-0.01-0.01-0.01-0.01-0.01c-0.94-1.09-1.7-2.19-2.27-3.3
	c1.21,1.9,3.76,3.28,7.25,4.28c18.19,5.17,61.93-0.3,75.09,0c15.68,0.35,23.52,10.04,23.52,10.04S423.31,660.73,433.63,703.53z"/>
<path fill="#FFFFFF" stroke="#000000" stroke-miterlimit="10" d="M389.36,739.87c-8.33,0.8-18.8,1.33-27.41,0.26
	c-17.29-2.14-39.03-12.48-45.98-21.03c-1.34,0.05-2.66,0.03-3.96-0.06c-6.63-4.96-24.07-19.13-25.03-31.43
	c-1.19-15.2,9.74-21.86,21.62-16.39c11.89,5.46,22.1,31.13,33.27,44.2C351.21,717.59,374.07,725.92,389.36,739.87z"/>
<path fill="#FFFFFF" stroke="#000000" stroke-miterlimit="10" d="M403.98,737.35c-5.77-5.8-10.95-10.76-15.59-15.01
	c-32.78-29.99-39.15-24.51-39.15-24.51s-22.81-25.9-30.89-33.95c-8.08-8.05-28.99-10.72-41.77,2.59c-12.77,13.3,0,34.27,0,34.27
	s0.17,0.19,0.5,0.52c-0.3,0.52-1.43,1.56-4.59,3.58c-1.92-3.28-11.4-14.11-28.64-24.95c6.35-5.06,20.36-17.36,25.59-30.77
	c5.09-13.08,5.87-24.85,5.93-30.01c19.05,12.85,57.92,25.96,88.72,46.88c25.06,17.02,34.4,42.04,37.87,57.65
	C403.5,730.56,403.89,735.63,403.98,737.35z"/>
<path fill="#FFFFFF" stroke="#000000" stroke-miterlimit="10" d="M262.27,647.22c-8.79,15.88-18.74,25.33-23.76,29.46
	c-1.9-1.09-3.89-2.18-5.95-3.24v-32.88c0,0-0.22-0.01-0.59-0.01c15.64-8.5,0.06-16.96-6.7-19.98c0.82-0.08,1.53-0.16,2.11-0.25
	c9.02-1.39,13.92-10.54,3.5-15.19c9.09-2.03,7.75-14.67-0.67-16.34c7.02,0.68,12.52,0.01,13.76-3.35c2.69-7.27-6-12.6-12.12-15.35
	l0.05-17.82c0.07-0.14,0.14-0.27,0.2-0.4c0.5-0.96,0.82-1.54,0.82-1.54s7.49-10.7,13.19-11.77c5.7-1.06,3.56,6.95,10.16,17.65
	c6.59,10.69,4.81,16.93,2.49,18.89c-2.31,1.96-1.25,22.1,6.24,33.86c0.57,1.11,1.33,2.21,2.27,3.3c0,0,0,0,0.01,0.01
	c0,0.01,0.01,0.02,0.02,0.03C267.74,613.11,274.21,625.63,262.27,647.22z"/>
<path fill="#FFFFFF" stroke="#000000" stroke-miterlimit="10" d="M275.37,619.11c-0.06,5.16-0.84,16.93-5.93,30.01
	c-5.23,13.41-19.24,25.71-25.59,30.77c-1.7-1.07-3.48-2.15-5.34-3.21c5.02-4.13,14.97-13.58,23.76-29.46
	c11.94-21.59,5.47-34.11,5.03-34.92C269.27,614.59,272.01,616.84,275.37,619.11z"/>
<path fill="#FFFFFF" stroke="#000000" stroke-miterlimit="10" d="M231.97,640.55c-1.75-0.03-6.89-0.03-9.74,0.85
	c-3.48,1.07-15.3,13.54-17.94,13.18l0.04,7.35c-39.21-13.23-36.39-34.36-32.18-40.14c0,0,40.21,0.02,53.12-1.22
	C232.03,623.59,247.61,632.05,231.97,640.55z"/>
<path fill="#FFFFFF" stroke="#000000" stroke-miterlimit="10" d="M227.38,620.32c-0.58,0.09-1.29,0.17-2.11,0.25
	c-12.91,1.24-53.12,1.22-53.12,1.22c-2.32-4.28-1.25-15.32,15.33-18.53c8.61-2.14,35.18,2.02,40.45,2.14
	c1.08,0.02,2.06-0.07,2.95-0.27C241.3,609.78,236.4,618.93,227.38,620.32z"/>
<path fill="#FFFFFF" stroke="#000000" stroke-miterlimit="10" d="M230.88,605.13c-0.89,0.2-1.87,0.29-2.95,0.27
	c-5.27-0.12-31.84-4.28-40.45-2.14c-18.72,1.96-17.11-7.84-15.87-12.48c1.25-4.63,7.85-14.43,19.25-11.94c0,0,22.1,7.89,37.85,9.78
	c0.51,0.07,1.01,0.12,1.5,0.17C238.63,590.46,239.97,603.1,230.88,605.13z"/>
<path fill="#FFFFFF" stroke="#000000" stroke-miterlimit="10" d="M243.97,585.44c-1.24,3.36-6.74,4.03-13.76,3.35
	c-0.48-0.09-0.98-0.15-1.5-0.17c-15.75-1.89-37.85-9.78-37.85-9.78c-8.2-3.74-12.65-10.87-8.02-18.53
	c4.64-7.67,14.26-6.95,16.93-3.92c0.88,0.99,3.55,2.37,6.9,3.84c6.84,3.02,16.54,6.42,19.66,7.74c0,0,2.44,0.73,5.52,2.12
	C237.97,572.84,246.66,578.17,243.97,585.44z"/>
<path fill="#FFFFFF" stroke="#000000" stroke-miterlimit="10" d="M880.31,701.89c-0.66,0.76-21.9,25.1-25.41,35.62
	c-1.4,4.2-4.34,10.75-7.49,17.85c-4.03-5.22-7.48-10.24-7.48-10.24c-33.74,6.65-46.34,30.3-46.34,30.3s0.72,2.73,3.57,16.75
	c6.33-14.77,25.2-20.72,44.87-24.46c-2.89,6.95-5.26,13.44-5.9,17.8c-1.35,9.25-23.63,53.48-37.33,73.57
	c-10.71-5.09-56.53-35.55-56.53-35.55l-25.19,10.22c0,0,0.4-0.79,1.08-2.26c0.01-0.02,0.03-0.05,0.04-0.08
	c0.01-0.01,0.02-0.02,0.02-0.03c1.21-2.6,3.22-7.24,5.37-13.37V818c12.2-5.82,30.83-15.8,48.62-29.63
	c29.74-23.13,72.61-67.84,107.42-86.13h0.01C880.06,702.07,880.26,701.93,880.31,701.89z"/>
<path fill="#FFFFFF" stroke="#000000" stroke-miterlimit="10" d="M879.63,702.24c-34.81,18.29-77.68,63-107.42,86.13
	c-17.79,13.83-36.42,23.81-48.62,29.63c1.54-4.42,3.14-9.62,4.55-15.41c29.2-24.25,54.14-87.68,76.86-120.2
	c24.24-34.7,81.5-40.4,81.5-40.4c6.18,1.9,24.72-1.19,24.72-1.19s-37.31,45.86-53.94,59.88
	C872.22,704.19,877.86,702.97,879.63,702.24z"/>
<path fill="#FFFFFF" stroke="#000000" stroke-miterlimit="10" d="M916.45,589.48c0,0-12.12,34.69-29.95,52.51
	c0,0-57.26,5.7-81.5,40.4c-22.72,32.52-47.66,95.95-76.86,120.2c0.04-0.14,0.07-0.29,0.11-0.44c1.79-7.46,2.34-17.95,2.57-29.13
	c9.53-10.57,21.5-25.64,29.51-42.16c15.2-31.36,30.41-101.23,129.98-137.82C899.34,588.52,916.45,589.48,916.45,589.48z"/>
<path fill="#FFFFFF" stroke="#000000" stroke-miterlimit="10" d="M894.11,554.54c0,0-0.24,28.04-3.8,38.5
	c-99.57,36.59-114.78,106.46-129.98,137.82c-8.01,16.52-19.98,31.59-29.51,42.16c0.35-16.96-0.06-35.5,1.94-47.39
	c1.01-5.99,2.94-13.92,5.25-22.58v-0.01c16.39-37.8,51.13-99.39,108.81-123.07c0.43-0.27,0.88-0.55,1.35-0.83
	C862.47,570.37,894.11,554.54,894.11,554.54z"/>
<path fill="#FFFFFF" stroke="#000000" stroke-miterlimit="10" d="M846.76,578.62c-59.84-21-93.68,69.69-93.68,69.69
	c0.13-0.54,0.25-1.06,0.36-1.57c-4.74-4.48-9.21-8.97-13.4-13.46c-49.3-52.68-62-104.38-66.36-129.36
	c-1.35-7.72-1.91-12.89-2.5-14.75c0,0,41.15,15.35,101.74,1.99c20.25-4.46,33.72-7.44,42.7-9.43c0.05,0.69,0.07,1.05,0.07,1.05
	S844.8,534.7,846.76,578.62z"/>
<path fill="#FFFFFF" stroke="#000000" stroke-miterlimit="10" d="M789.69,874.46c-1.43,6.57-3.65,16.53-5.52,24.86
	c-26.86-9.59-54.84-11.38-65.95-14.83c11.3-1.91,28.32-1.97,28.32-1.97l31.01-10.51L789.69,874.46z"/>
<path fill="#FFFFFF" stroke="#000000" stroke-miterlimit="10" d="M798.8,859.08c-3.2,4.69-5.93,8.06-7.82,9.37
	c-0.07,0.33-0.15,0.73-0.25,1.19c-8.91-3.5-29.54-12.27-44.9-24.01c-14.26,9.98-27.61,18.89-27.61,18.89s0.05,11.77-2.57,11.77
	c-2.61,0-9.68,1.3-9.68,1.3v0.02l-1.48,14c0,0,1.17,0.02,3.07,0.68c4.37,1.52,12.63,6.41,19.5,22.14h-17.11l-54.65,2.13
	c0,0-4.06,0.01-11.06,0.02c-0.64-1.1-1.3-2.17-1.98-3.2c3.18-17.16,23.52-33.08,26.82-36.38c3.8-3.8,19.96-1.66,23.29-4.51
	c1.35-1.16,5.85-8.14,10.73-16.02c6.78-10.96,14.28-23.67,15.06-24.98c-0.68,1.47-1.08,2.26-1.08,2.26l25.19-10.22
	C742.27,823.53,788.09,853.99,798.8,859.08z"/>
<path fill="#FFFFFF" stroke="#000000" stroke-miterlimit="10" d="M746.54,882.52c0,0-17.02,0.06-28.32,1.97
	c11.11,3.45,39.09,5.24,65.95,14.83c-1.89,8.38-3.41,15.11-3.41,15.11h-53.7c-6.87-15.73-15.13-20.62-19.5-22.14
	c-1.9-0.66-3.07-0.68-3.07-0.68l1.48-14v-0.02c0,0,7.07-1.3,9.68-1.3c2.62,0,2.57-11.77,2.57-11.77s13.35-8.91,27.61-18.89
	c15.36,11.74,35.99,20.51,44.9,24.01c-0.25,1.22-0.61,2.87-1.04,4.82l-12.14-2.45L746.54,882.52z"/>
<path fill="#FFFFFF" stroke="#000000" stroke-miterlimit="10" d="M688.72,833.49c-3.76-0.8-7.83-1.57-12.16-2.29
	c-0.85-12.4-7.24-28.46-7.24-28.46l6.49-25.74c2.6,0.63,5.19,1.31,7.8,2.04c1.02,0.28,2.05,0.57,3.08,0.88l-1.57,7.23l-3.92,18.09
	C681.2,805.24,688.83,822.15,688.72,833.49z"/>
<path fill="#FFFFFF" stroke="#000000" stroke-miterlimit="10" d="M676.56,831.2c-4.19-0.7-8.62-1.35-13.25-1.92
	c-0.93-13.13-7.54-27.84-7.54-27.84l6.92-27.23c4.35,0.8,8.72,1.73,13.12,2.79l-6.49,25.74C669.32,802.74,675.71,818.8,676.56,831.2
	z"/>
<path fill="#FFFFFF" stroke="#000000" stroke-miterlimit="10" d="M663.31,829.28c-4.03-0.51-8.21-0.95-12.5-1.33
	c0.15-14.78-6.68-28.59-6.68-28.59l5.92-27.11c4.18,0.54,8.4,1.19,12.64,1.96l-6.92,27.23
	C655.77,801.44,662.38,816.15,663.31,829.28z"/>
<path fill="#FFFFFF" stroke="#000000" stroke-miterlimit="10" d="M650.81,827.95c-4.14-0.37-8.37-0.67-12.68-0.9
	c-1.52-12.99-8.26-27.69-8.26-27.69l6.52-28.45c4.52,0.31,9.07,0.76,13.66,1.34l-5.92,27.11
	C644.13,799.36,650.96,813.17,650.81,827.95z"/>
<path fill="#FFFFFF" stroke="#000000" stroke-miterlimit="10" d="M638.13,827.05c-4.29-0.22-8.65-0.37-13.06-0.43
	c-1.57-10.4-10.17-28.27-10.17-28.27l5.56-28.03h0.01c5.25,0.02,10.56,0.21,15.92,0.59l-6.52,28.45
	C629.87,799.36,636.61,814.06,638.13,827.05z"/>
<path fill="#FFFFFF" stroke="#000000" stroke-miterlimit="10" d="M460.8,875.32c5.81-16.49-1.03-40.55-8.44-52.36
	c2.6-1.72,5.71-3.7,9.29-5.87v-0.01c3.39-2.05,7.21-4.28,11.41-6.6l-2.63,30.88c0,0,8.28,7.29,14.74,21.45
	C475.36,867.54,466.96,871.93,460.8,875.32z"/>
<path fill="#FFFFFF" stroke="#000000" stroke-miterlimit="10" d="M703.1,856.47c-4.88,7.88-9.38,14.86-10.73,16.02
	c-3.33,2.85-19.49,0.71-23.29,4.51c-3.3,3.3-23.64,19.22-26.82,36.38c-18.99-29.08-47.15-28.64-50.41-37.09
	c-2.82-7.33,9.09-37.2,14.18-49.35c1.57-0.08,3.14-0.14,4.71-0.19c4.8-0.16,9.59-0.2,14.33-0.13c4.41,0.06,8.77,0.21,13.06,0.43
	c4.31,0.23,8.54,0.53,12.68,0.9c4.29,0.38,8.47,0.82,12.5,1.33c4.63,0.57,9.06,1.22,13.25,1.92c4.33,0.72,8.4,1.49,12.16,2.29
	c2.87,0.61,5.55,1.24,8.03,1.88c0.75,0.19,1.48,0.38,2.2,0.57C700.49,842.7,701.92,849.63,703.1,856.47z"/>
<path fill="#FFFFFF" stroke="#000000" stroke-miterlimit="10" d="M625.07,826.62c-4.74-0.07-9.53-0.03-14.33,0.13
	c-2.94-13.7-10.34-26.26-10.34-26.26l6.62-29.89c4.44-0.21,8.91-0.31,13.44-0.28l-5.56,28.03
	C614.9,798.35,623.5,816.22,625.07,826.62z"/>
<polygon fill="#FFFFFF" stroke="#000000" stroke-miterlimit="10" points="606.82,246.23 593.39,243 583.42,247.65 569.28,252.64 
	581.34,245.4 591.14,238.39 "/>
<polygon fill="#FFFFFF" stroke="#000000" stroke-miterlimit="10" points="556.45,256.68 538.39,256.68 521.63,248.96 509.4,252.17 
	523.3,241.24 541,254.66 "/>
<path fill="#FFFFFF" stroke="#000000" stroke-miterlimit="10" d="M605.75,258.17c0,0-4.7,6.63-15.3,6.63
	c-10.6,0-15.23-5.74-15.23-5.74s7.53-6.54,15.23-6.42C598.15,252.76,605.75,258.17,605.75,258.17z"/>
<path fill="#FFFFFF" stroke="#000000" stroke-miterlimit="10" d="M543.02,265.76c0,0-6.77,5.72-13.31,6
	c-6.53,0.29-15.92-4.92-15.92-4.92s4.81-7.92,13.96-7.54C536.9,259.67,543.02,265.76,543.02,265.76z"/>
<path fill="#FFFFFF" stroke="#000000" stroke-miterlimit="10" d="M579.55,299.66l-10.33,5.88c-0.09-0.26,7.04-7.21,7.04-7.21
	L579.55,299.66z"/>
<polygon fill="#FFFFFF" stroke="#000000" stroke-miterlimit="10" points="560.95,307.27 548.99,303.41 553.88,301.22 "/>
<path fill="#FFFFFF" stroke="#000000" stroke-miterlimit="10" d="M579.55,349.95c-6.17,3.46-13.12-1.43-13.12-1.43
	s-3.33,5.47-11.46,4.04c-8.13-1.42-14.45-16.33-14.45-16.33s1.32-1.88,3.43-4.09c2.45,2.07,8.17,5.45,19.39,5.45
	c12.83,0,19.59-7.19,21.83-10.15c2.96,2.16,5.14,4.54,5.28,4.93C592.14,337.12,585.73,346.49,579.55,349.95z"/>
<path fill="#FFFFFF" stroke="#000000" stroke-miterlimit="10" d="M585.17,327.44c-2.24,2.96-9,10.15-21.83,10.15
	c-11.22,0-16.94-3.38-19.39-5.45c1.45-1.52,3.29-3.19,5.33-4.51c3.93,0.39,11.02,1.02,17.26,0.7c5.9-0.31,11.33-2.17,14.4-3.42
	C582.43,325.58,583.87,326.49,585.17,327.44z"/>
<path fill="#FFFFFF" stroke="#000000" stroke-miterlimit="10" d="M580.94,324.91c-3.07,1.25-8.5,3.11-14.4,3.42
	c-6.24,0.32-13.33-0.31-17.26-0.7c1.78-1.14,3.71-2.01,5.69-2.27c7.53-0.99,13.71-0.6,20.25-1.55
	C577.05,323.54,579.03,324.04,580.94,324.91z"/>
<path fill="none" stroke="#000000" stroke-miterlimit="10" d="M633.67,298.33"/>
<path fill="#FFFFFF" stroke="#000000" stroke-miterlimit="10" d="M232.56,640.56v184.78c-3.97,2.7-9.24,7.2-12.11,13.34
	c-4.52-7.07-11.08-11.36-15.12-13.49l-1-163.26l-0.04-7.35c2.64,0.36,14.46-12.11,17.94-13.18c2.85-0.88,7.99-0.88,9.74-0.85
	C232.34,640.55,232.56,640.56,232.56,640.56z"/>
<path fill="#FFFFFF" stroke="#000000" stroke-miterlimit="10" d="M232.56,825.34v24.1c-4.26,2.05-10.38,5.85-12.83,11.52
	c-3.4-5.42-9.71-8.3-14.25-9.74v-0.01l-0.15-26.02c4.04,2.13,10.6,6.42,15.12,13.49C223.32,832.54,228.59,828.04,232.56,825.34z"/>
<path fill="#FFFFFF" stroke="#000000" stroke-miterlimit="10" d="M232.56,849.44v16.83c-4.83,2.61-10.26,7.74-12.83,12.87
	c-3.53-5.5-10.62-8.69-14.14-9.99l-0.11-17.93c4.54,1.44,10.85,4.32,14.25,9.74C222.18,855.29,228.3,851.49,232.56,849.44z"/>
<path fill="#FFFFFF" stroke="#000000" stroke-miterlimit="10" d="M232.56,866.27v18.8c-5.13,2.06-11.5,7.06-13.99,11.36
	c-3.19-4.22-9.27-7.7-12.87-9.51v-0.01l-0.11-17.76c3.52,1.3,10.61,4.49,14.14,9.99C222.3,874.01,227.73,868.88,232.56,866.27z"/>
<path fill="#FFFFFF" stroke="#000000" stroke-miterlimit="10" d="M232.56,885.07v22.94h-26.73l-0.13-21.09
	c3.6,1.81,9.68,5.29,12.87,9.51C221.06,892.13,227.43,887.13,232.56,885.07z"/>
<path fill="#FFFFFF" stroke="#000000" stroke-miterlimit="10" d="M231.94,533.75l-0.04,17.96c-5.02-4.15-13.06-12.08-13.06-12.08
	l-11.96,8.57l0.32-18.73c4.69-3.45,10.57-7.84,10.57-7.84S226.3,529.25,231.94,533.75z"/>
<path fill="#FFFFFF" stroke="#000000" stroke-miterlimit="10" d="M231.99,515.54l-0.05,18.21c-5.64-4.5-14.17-12.12-14.17-12.12
	s-5.88,4.39-10.57,7.84l0.27-15.25v-0.01l9.77-10.04C217.24,504.17,226.74,511.47,231.99,515.54z"/>
<path fill="#FFFFFF" stroke="#000000" stroke-miterlimit="10" d="M232.02,502.27l-0.03,13.27c-5.25-4.07-14.75-11.37-14.75-11.37
	l-9.77,10.04l0.24-13.87l2.05-1.87l8.01-7.31C217.77,491.16,226.08,497.88,232.02,502.27z"/>
<path fill="#FFFFFF" stroke="#000000" stroke-miterlimit="10" d="M211.73,449.05c-0.35-10-2.38-23.74-10.29-30.66
	c-13.31-11.65-38.74-19.96-57.27-43.25c-18.54-23.29-13.31-40.64-21.63-59.64c1.04-5.19,3.05-9.1,5.1-13.7
	c1.17,9.73,4.41,30.13,12.49,48.61l0.01,0.01c3.31,7.59,7.44,14.85,12.58,20.92C175.06,397.71,218.92,403.69,211.73,449.05z"/>
<path fill="#FFFFFF" stroke="#000000" stroke-miterlimit="10" d="M317.4,319.77c0,0-7.67,27.57-9.98,38.97
	c-2.32,11.41-22.99,36.89-46.34,45.98c-23.35,9.09-29.94,21.75-31.55,30.66c-0.08,0.44-0.14,0.99-0.19,1.63
	c-0.09-0.63-3.02-23.24,9.4-30.51c12.6-7.36,41.59-22.81,53.71-42.29c4.81-7.76,8.05-15.96,10.28-25.11c0-0.01,0-0.01,0-0.02
	c3.39-13.84,4.49-29.84,5.35-49.72C309.25,301.35,312.03,312.55,317.4,319.77z"/>
<path fill="#FFFFFF" stroke="#000000" stroke-miterlimit="10" d="M308.08,289.36c-0.86,19.88-1.96,35.88-5.35,49.72
	c1.94-58.52-7.67-179.23-7.67-179.23s11.41,65.82,17.11,74.14C309.65,239.34,305.78,265.86,308.08,289.36z"/>
<polygon fill="#FFFFFF" stroke="#000000" stroke-miterlimit="10" points="239.46,232.33 220.37,226.03 221.4,98.36 "/>
<polygon fill="#FFFFFF" stroke="#000000" stroke-miterlimit="10" points="221.4,98.36 220.37,226.03 220.36,226.03 199.3,231.38 "/>
<path fill="#FFFFFF" stroke="#000000" stroke-miterlimit="10" d="M220.37,226.03l-1.17,144.3v3.56c-10.05,9.1-18.52,8.95-23.09,7.82
	c10.07-0.46,10.98-12.18,11.5-31.28c0.72-25.91,0-111.69,0-111.69l-8.31-7.36l21.06-5.35H220.37z"/>
<path fill="#FFFFFF" stroke="#000000" stroke-miterlimit="10" d="M140.13,350.41c-8.08-18.48-11.32-38.88-12.49-48.61
	c3.11-6.99,6.31-15.58,6.31-32.64c0-28.28-4.99-38.26-4.51-41.11c0.46-2.78,15.62-69.77,16.37-73.06
	C145.35,159.39,132.54,281.88,140.13,350.41z"/>
<path fill="#FFFFFF" stroke="#000000" stroke-miterlimit="10" d="M232.56,353.28c-0.23-6.66-0.23-114.3-0.23-114.3l7.13-6.65
	l-19.09-6.3l-1.17,144.3v3.54c4.99,4.87,19.86,15.31,31.19,10.16C229.52,391.68,232.78,359.46,232.56,353.28z"/>
<path fill="#FFFFFF" stroke="#000000" stroke-miterlimit="10" d="M231.9,551.71v0.56l-0.05,17.82c-3.08-1.39-5.52-2.12-5.52-2.12
	c-3.12-1.32-12.82-4.72-19.66-7.74l0.21-12.03l11.96-8.57C218.84,539.63,226.88,547.56,231.9,551.71z"/>
<path fill="#FFFFFF" stroke="#000000" stroke-miterlimit="10" d="M279.61,486.52c0,0-30.29-4.81-36.71-1.24
	c-4.64,2.57-8.66,5.99-11.11,8.69c0.15,2.06,0.24,3.25,0.24,3.25l-0.01,5.05c-5.94-4.39-14.25-11.11-14.25-11.11l-8.01,7.31
	l-2.05,1.87l0.08-4.55l0.12-1.11c0,0,0,0,0-0.01c-3.22-5.11-8.91-9.81-12.06-11.53c-3.92-2.14-36.53,1.25-36.53,1.25l-0.89-18.89
	c0,0,25.3,2.67,36.53,2.31c7.95-0.25,13.93-7.29,16.75-11.38v-0.01c1.17-1.69,1.79-2.87,1.79-2.87l5.24-9.46
	c0.71-1.28,2.54-1.29,3.27-0.02l5.39,9.48c0,0,0.71,1.62,2.15,3.8c2.8,4.23,8.4,10.59,17.09,11.53c13.19,1.43,32.08-0.71,32.08-0.71
	L279.61,486.52z"/>
<path fill="#FFFFFF" stroke="#000000" stroke-miterlimit="10" d="M246.82,395.1c0,0-13.58,5.41-19.09,14.11
	c-5.5,8.7-7.76,24.74-7.76,24.74s-3.62-16.22-8.61-25.31c-4.99-9.09-19.79-14.79-19.79-14.79l27.63,0.63L246.82,395.1z"/>
<path fill="#FFFFFF" stroke="#000000" stroke-miterlimit="10" d="M295.06,159.85c0,0,0.71,116.2-1.66,152.08
	c-2.38,35.88-11.17,54.42-37.79,69.62c-1.89,1.08-3.62,1.89-5.21,2.47c-0.01,0-0.01,0.01-0.01,0.01
	c-11.33,5.15-26.2-5.29-31.19-10.16v0.02c-10.05,9.1-18.52,8.95-23.09,7.82h-0.01c-3.58,0.18-8.33-1.09-14.62-3.96
	c-24-10.93-33.75-48.47-33.98-65.82c-0.24-17.35-1.67-157.07-1.67-157.07s0,0.02-0.01,0.06c0,0.02,0,0.04-0.01,0.07
	c-0.46,4.4-13.27,126.89-5.68,195.42l0.01,0.01c3.31,7.59,7.44,14.85,12.58,20.92c22.34,26.37,66.2,32.35,59.01,77.71v0.01
	c0.1,2.84,0.06,5.37-0.02,7.36c1.17-1.69,1.79-2.87,1.79-2.87l5.24-9.46c0.71-1.28,2.54-1.29,3.27-0.02l5.39,9.48
	c0,0,0.71,1.62,2.15,3.8c-0.38-8.6-0.54-16.32-0.21-20.33c0,0,0,0,0-0.01c-0.09-0.63-3.02-23.24,9.4-30.51
	c12.6-7.36,41.59-22.81,53.71-42.29c4.81-7.76,8.05-15.96,10.28-25.11c0-0.01,0-0.01,0-0.02
	C304.67,280.56,295.06,159.85,295.06,159.85z M227.73,409.21c-5.5,8.7-7.76,24.74-7.76,24.74s-3.62-16.22-8.61-25.31
	c-4.99-9.09-19.79-14.79-19.79-14.79l27.63,0.63l27.62,0.62C246.82,395.1,233.24,400.51,227.73,409.21z"/>
<path fill="#FFFFFF" stroke="#000000" stroke-miterlimit="10" d="M404.01,737.99c0,0-6.24,1.08-14.65,1.88
	c-15.29-13.95-38.15-22.28-47.49-24.45c-11.17-13.07-21.38-38.74-33.27-44.2c-11.88-5.47-22.81,1.19-21.62,16.39
	c0.96,12.3,18.4,26.47,25.03,31.43c-17.93-1.19-32.15-14.92-34.93-17.78c0.35-0.62-0.5-0.52-0.5-0.52s-12.77-20.97,0-34.27
	c12.78-13.31,33.69-10.64,41.77-2.59c8.08,8.05,30.89,33.95,30.89,33.95s6.37-5.48,39.15,24.51c4.64,4.25,9.82,9.21,15.59,15.01
	C404,737.77,404.01,737.99,404.01,737.99z"/>
<path fill="#FFFFFF" stroke="#000000" stroke-miterlimit="10" d="M856.09,765.32c-4.63,0.73-9.36,1.5-14.06,2.39
	c-19.67,3.74-38.54,9.69-44.87,24.46c-2.85-14.02-3.57-16.75-3.57-16.75s12.6-23.65,46.34-30.3c0,0,3.45,5.02,7.48,10.24
	c0,0,0,0,0,0.01C850.38,759.23,853.67,763.19,856.09,765.32z"/>
<path fill="#FFFFFF" stroke="#000000" stroke-miterlimit="10" d="M740.04,633.28c-8.55,7.61-19.18,18.97-24.39,32
	c-6.45,16.12-16.09,56.54-23.81,85.76c-11.02-15.93-39.8-55.7-55.43-60.34c-19.59-5.81-36.33,2-36,24.76v0.07
	c0.14,9.53,0.42,22.79,0.68,35.23c0.16,7.31,0.32,14.34,0.44,20.17c-5.58,0.38-11.07,0.94-16.46,1.66
	c-6.34,0.83-12.55,1.88-18.61,3.09c-4.57,0.92-9.06,1.94-13.45,3.04c-5.03,1.26-9.95,2.62-14.72,4.07c-3.28,1-6.5,2.04-9.66,3.11
	c-4.12,1.39-8.14,2.84-12.03,4.33c-3.8,1.45-7.49,2.94-11.05,4.45c-1.69,0.71-3.33,1.43-4.96,2.13
	c7.94-14.02,21.01-40.92,23.3-69.51c9.49-16.08,13.77-37.32,15.03-44.63c0.29-1.66,0.42-2.6,0.42-2.6s11.16-43.31,5.7-53.29
	c2.25-7.89,7.93-41.36,16.56-62.17c9.54-1.4,18.92-3.94,27.64-8.16c35.38-17.11,67.38-40.26,84.44-52.53
	C678.04,528.9,690.74,580.6,740.04,633.28z"/>
<path fill="#FFFFFF" stroke="#000000" stroke-miterlimit="10" d="M673.68,503.92c-17.06,12.27-49.06,35.42-84.44,52.53
	c-8.72,4.22-18.1,6.76-27.64,8.16c-37.72,5.52-77.88-6.9-89.69-4.48c-0.99,0.2-2,0.56-3.04,1.07
	c4.29-81.24,57.95-130.61,72.53-142.57l0.79,3.08c3.09,12.03,17.04,22.1,17.04,22.1s11.95-4.99,17.65-12.83
	c5.7-7.84,15.92-24,15.68-29.7c-0.21-5.16,17.03-32.03,22.38-47.86c7.44,12.21,26.52,45.13,24.64,58.55
	c-2.34,16.63-3.06,36.95,6.09,52.46c0,0,12.32,18.33,25.51,24.74C671.77,491.03,672.33,496.2,673.68,503.92z"/>
<path fill="#FFFFFF" stroke="#000000" stroke-miterlimit="10" d="M846.82,579.97c-57.68,23.68-92.42,85.27-108.81,123.07
	c5.1-19.08,12.04-41.68,15.07-54.73c0,0,33.84-90.69,93.68-69.69C846.79,579.07,846.81,579.52,846.82,579.97z"/>
<path fill="#FFFFFF" stroke="#000000" stroke-miterlimit="10" d="M535.53,395.81l-19.95,17.21c-0.09-8.61-1.66-17.77-3.05-24.23
	l5.18-17.45l-0.23-15.69c0,0,4.64,27.33,9.68,31.43C532.2,391.18,533.93,389.56,535.53,395.81z"/>
</svg>
