<?xml version="1.0" encoding="utf-8"?>
<!-- Generator: Adobe Illustrator 25.2.0, SVG Export Plug-In . SVG Version: 6.00 Build 0)  -->
<svg version="1.1" baseProfile="tiny" id="Layer_1" xmlns="http://www.w3.org/2000/svg" xmlns:xlink="http://www.w3.org/1999/xlink"
	 x="0px" y="0px" viewBox="0 0 1000 1000" overflow="visible" xml:space="preserve">
<rect x="0" fill="#FFFFFF" stroke="#000000" stroke-miterlimit="10" width="1000" height="644.2"/>
<path fill="#FFFFFF" stroke="#000000" stroke-miterlimit="10" d="M1000,840.6c0,0-265.1,27.8-431.1,27.8
	C343.9,868.4,0,824.1,0,824.1l0-217.9c0,0,347.6-25.6,572.5-25.6c165.2,0,427.5,4.7,427.5,4.7V840.6z"/>
<polygon fill="#FFFFFF" stroke="#000000" stroke-miterlimit="10" points="1000,817.6 1000,940.6 0,940.6 0,824.1 81.9,823.6 
	83.5,823.6 86.1,823.6 274,822.3 277.6,827.3 277.6,817.6 396.7,821.5 398,821.5 400.2,821.5 481.2,821 482.5,821 483.3,821 
	484.6,821 563.9,820.4 567.3,820.4 647.2,817.6 648.4,819.9 651.8,819.9 810.9,818.9 812.2,818.9 813.1,818.8 813.4,818.8 
	905.9,818.2 907.2,818.2 908.1,818.2 909.4,818.2 "/>
<polygon fill="#FFFFFF" stroke="#000000" stroke-miterlimit="10" points="81.9,823.6 83.5,843.5 85.1,843.5 84.5,823.5 "/>
<polygon fill="#FFFFFF" stroke="#000000" stroke-miterlimit="10" points="83.5,823.6 85,843.5 86.6,843.5 86.1,823.5 "/>
<polygon fill="#FFFFFF" stroke="#000000" stroke-miterlimit="10" points="189.5,823.4 190.4,843.4 191.7,843.6 191.7,823.6 "/>
<polygon fill="#FFFFFF" stroke="#000000" stroke-miterlimit="10" points="190.8,823.5 191.7,843.6 193,843.7 193,823.7 "/>
<polygon fill="#FFFFFF" stroke="#000000" stroke-miterlimit="10" points="276.1,822.3 276.1,843.6 276,843.6 274.8,843.4 274,822.3 
	"/>
<polygon fill="#FFFFFF" stroke="#000000" stroke-miterlimit="10" points="277.4,822.3 277.4,843.7 276.1,843.6 276,843.6 
	275.3,822.3 "/>
<polygon fill="#FFFFFF" stroke="#000000" stroke-miterlimit="10" points="398.8,821.5 398.8,843.6 398.7,843.6 397.5,843.4 
	396.7,821.5 398,821.5 "/>
<polygon fill="#FFFFFF" stroke="#000000" stroke-miterlimit="10" points="400.2,821.5 400.1,843.7 398.8,843.6 398.7,843.6 
	398,821.5 "/>
<polygon fill="#FFFFFF" stroke="#000000" stroke-miterlimit="10" points="483.3,821 483.2,845.3 483.2,845.3 481.8,845.2 481.2,821 
	482.5,821 "/>
<polygon fill="#FFFFFF" stroke="#000000" stroke-miterlimit="10" points="484.6,821 484.5,845.5 483.2,845.3 483.1,845.3 482.5,821 
	483.3,821 "/>
<polygon fill="#FFFFFF" stroke="#000000" stroke-miterlimit="10" points="563.9,820 564.6,843.4 565.9,843.6 566,820.2 "/>
<polygon fill="#FFFFFF" stroke="#000000" stroke-miterlimit="10" points="565.2,820.2 565.9,843.6 567.2,843.7 567.3,820.4 "/>
<polygon fill="#FFFFFF" stroke="#000000" stroke-miterlimit="10" points="650.5,819.9 650.3,845.3 650.3,845.3 649,845.2 
	648.4,819.9 "/>
<polygon fill="#FFFFFF" stroke="#000000" stroke-miterlimit="10" points="651.8,819.9 651.6,845.5 650.3,845.3 650.3,845.3 
	649.6,819.9 "/>
<polygon fill="#FFFFFF" stroke="#000000" stroke-miterlimit="10" points="726.4,820 727.2,843.4 728.5,843.6 728.6,820.2 "/>
<polygon fill="#FFFFFF" stroke="#000000" stroke-miterlimit="10" points="727.7,820.2 728.5,843.6 729.8,843.7 729.9,820.4 "/>
<polygon fill="#FFFFFF" stroke="#000000" stroke-miterlimit="10" points="810.9,818.6 811.6,845.2 812.9,845.3 813.1,818.8 "/>
<polygon fill="#FFFFFF" stroke="#000000" stroke-miterlimit="10" points="812.2,818.7 812.9,845.3 814.2,845.5 814.4,818.9 "/>
<polygon fill="#FFFFFF" stroke="#000000" stroke-miterlimit="10" points="908.1,818.2 908,840.3 907.9,840.3 906.7,840.2 
	905.9,818.2 907.2,818.2 "/>
<polygon fill="#FFFFFF" stroke="#000000" stroke-miterlimit="10" points="909.4,818.2 909.3,840.5 908,840.3 907.9,840.3 
	907.2,818.2 908.1,818.2 "/>
<rect x="0" y="843.5" fill="#FFFFFF" stroke="#000000" stroke-miterlimit="10" width="1000" height="156.5"/>
<path fill="#FFFFFF" stroke="#000000" stroke-miterlimit="10" d="M51.4,931.7c0,0,58.5-3.1,78.5-3.1s16.9,0,24.6,0
	c7.7,0,12.3-1.5,33.9-1.5s53.2,0,53.2,0h171.6c0,0,186.3,0,192.4,0c6.2,0,9.2,3.1,9.2,3.1s-3.1-3.1,0-3.1c3.1,0,3.1,1.5,3.1,1.5
	s13.9-1.5,44.6-1.5c30.8,0,163.2,0,163.2,0h164.7l1.5-1.5H51.4V931.7z"/>
<polygon fill="#FFFFFF" stroke="#000000" stroke-miterlimit="10" points="17.5,911.5 971.4,921.2 971.4,892.1 351.5,879.1 1000,850 
	998.5,995.6 27.9,948.6 "/>
<path fill="#FFFFFF" stroke="#000000" stroke-miterlimit="10" d="M738.8,880.9c0,1.6-3,2.8-6.7,2.8c-3.7,0-6.7-1.3-6.7-2.8
	c0-1.6,3-2.8,6.7-2.8C735.8,878,738.8,879.3,738.8,880.9z"/>
<path fill="#FFFFFF" stroke="#000000" stroke-miterlimit="10" d="M757.7,874.3c0,3.1-5.8,5.7-13,5.7c-7.2,0-13-2.5-13-5.7
	c0-0.9,0.4-1.6,1.2-2.4c-3.2,1.4-8.4,2.4-14.2,2.4c-9.7,0-17.5-2.5-17.5-5.7c0-3.1,7.8-5.7,17.5-5.7c9.7,0,17.5,2.5,17.5,5.7
	c0,0.6-0.3,1.2-0.9,1.7c2.4-1.1,5.7-1.7,9.4-1.7C751.9,868.6,757.7,871.1,757.7,874.3z"/>
<ellipse fill="#FFFFFF" stroke="#000000" stroke-miterlimit="10" cx="707.8" cy="888.4" rx="5.8" ry="2.8"/>
<path fill="#FFFFFF" stroke="#000000" stroke-miterlimit="10" d="M677.7,872.4c0,1-0.8,1.9-1.8,1.9s-1.8-0.8-1.8-1.9
	c0-1,0.8-1.9,1.8-1.9S677.7,871.3,677.7,872.4z"/>
<ellipse fill="#FFFFFF" stroke="#000000" stroke-miterlimit="10" cx="693.9" cy="876.2" rx="3.6" ry="1.9"/>
<path fill="#FFFFFF" stroke="#000000" stroke-miterlimit="10" d="M759.5,896c0,1.6-2.2,2.8-4.9,2.8c-2.7,0-4.9-1.3-4.9-2.8
	s2.2-2.8,4.9-2.8C757.3,893.2,759.5,894.4,759.5,896z"/>
<path fill="#FFFFFF" stroke="#000000" stroke-miterlimit="10" d="M775.7,898.8c0,1-1.4,1.9-3.1,1.9s-3.1-0.8-3.1-1.9
	c0-1,1.4-1.9,3.1-1.9S775.7,897.8,775.7,898.8z"/>
<path fill="#FFFFFF" stroke="#000000" stroke-miterlimit="10" d="M976.1,942.3c0,17.7-51.5,32.1-115,32.1
	c-41.9,0-78.6-6.3-98.7-15.6c-3.9,3.7-12,6.2-21.2,6.2c-13.2,0-23.8-5.1-23.8-11.3s10.7-11.3,23.8-11.3c1.7,0,3.4,0.1,5,0.2
	c0-0.1,0-0.2,0-0.2c0-6.7,7.3-12.9,19.9-18c-0.1-0.3-0.1-0.6-0.1-0.9c0-3.1,4.8-5.7,10.8-5.7c2.3,0,4.4,0.4,6.2,1
	c20-5.2,46.6-8.4,75.9-8.6c1.9-5.4,12.1-9.5,24.4-9.5c13.7,0,24.7,5.1,24.7,11.3c0,0.3,0,0.6-0.1,0.9
	C948,917.9,976.1,929.2,976.1,942.3z"/>
<path fill="#FFFFFF" stroke="#000000" stroke-miterlimit="10" d="M823.3,905.4c0,3.7-7.2,6.6-16.2,6.6c-8.9,0-16.2-3-16.2-6.6
	s7.2-6.6,16.2-6.6C816.1,898.8,823.3,901.8,823.3,905.4z"/>
<ellipse fill="#FFFFFF" stroke="#000000" stroke-miterlimit="10" cx="964" cy="901.7" rx="15.7" ry="2.8"/>
<path fill="#FFFFFF" stroke="#000000" stroke-miterlimit="10" d="M733.4,925.3c0,4.2-8.7,7.6-19.3,7.6c-10.7,0-19.3-3.4-19.3-7.6
	c0-4.2,8.7-7.6,19.3-7.6C724.8,917.7,733.4,921.1,733.4,925.3z"/>
<path fill="#FFFFFF" stroke="#000000" stroke-miterlimit="10" d="M671.4,935.7c0,3.7-10.3,6.6-22.9,6.6s-22.9-3-22.9-6.6
	c0-3.7,10.3-6.6,22.9-6.6S671.4,932,671.4,935.7z"/>
<path fill="#FFFFFF" stroke="#000000" stroke-miterlimit="10" d="M675.9,921.5c0,2.1-4.4,3.8-9.9,3.8c-5.5,0-9.9-1.7-9.9-3.8
	s4.4-3.8,9.9-3.8C671.5,917.7,675.9,919.4,675.9,921.5z"/>
<path fill="#FFFFFF" stroke="#000000" stroke-miterlimit="10" d="M330.8,886.3c0,1.6,3,2.8,6.8,2.7c3.7-0.1,6.7-1.4,6.7-3
	c0-1.6-3-2.8-6.8-2.7C333.8,883.4,330.8,884.8,330.8,886.3z"/>
<path fill="#FFFFFF" stroke="#000000" stroke-miterlimit="10" d="M456.3,887.5c0,2.3,4.3,4,9.5,3.9c5.2-0.1,9.5-2.1,9.5-4.4
	c0-0.6-0.3-1.2-0.9-1.7c2.3,1,6.1,1.6,10.3,1.5c7-0.2,12.7-2.2,12.7-4.4c0-2.3-5.7-4-12.8-3.8c-7,0.2-12.7,2.2-12.7,4.4
	c0,0.4,0.2,0.9,0.6,1.2c-1.7-0.7-4.2-1.2-6.8-1.1C460.5,883.3,456.3,885.2,456.3,887.5z"/>
<path fill="#FFFFFF" stroke="#000000" stroke-miterlimit="10" d="M488.4,897c0,1.1,1.9,2,4.3,2c2.3-0.1,4.2-1,4.2-2.2
	c0-1.1-1.9-2-4.3-2C490.3,894.9,488.4,895.9,488.4,897z"/>
<path fill="#FFFFFF" stroke="#000000" stroke-miterlimit="10" d="M514.5,884.7c0,0.8,0.6,1.4,1.3,1.3c0.7,0,1.3-0.6,1.3-1.4
	c0-0.8-0.6-1.4-1.3-1.3C515,883.3,514.5,883.9,514.5,884.7z"/>
<path fill="#FFFFFF" stroke="#000000" stroke-miterlimit="10" d="M500.1,887.8c0,0.8,1.2,1.3,2.6,1.3c1.4,0,2.6-0.7,2.6-1.4
	c0-0.8-1.2-1.3-2.6-1.3C501.3,886.4,500.1,887,500.1,887.8z"/>
<path fill="#FFFFFF" stroke="#000000" stroke-miterlimit="10" d="M162.6,884.5c0,3.6,6.7,6.3,15,6.1c8.3-0.2,14.9-3.3,14.9-6.9
	c0-1-0.5-1.9-1.4-2.7c3.7,1.6,9.6,2.5,16.3,2.3c11.1-0.3,20.1-3.4,20.1-7c0-3.6-9-6.3-20.1-6c-11.1,0.3-20.1,3.4-20.1,7
	c0,0.7,0.3,1.4,1,2c-2.7-1.2-6.5-1.8-10.8-1.7C169.3,877.8,162.6,880.9,162.6,884.5z"/>
<path fill="#FFFFFF" stroke="#000000" stroke-miterlimit="10" d="M213.2,899.5c0,1.8,3,3.2,6.7,3.1c3.7-0.1,6.7-1.6,6.7-3.4
	c0-1.8-3-3.2-6.7-3.1C216.2,896.1,213.2,897.7,213.2,899.5z"/>
<path fill="#FFFFFF" stroke="#000000" stroke-miterlimit="10" d="M254.3,880c0,1.2,0.9,2.1,2.1,2.1c1.1,0,2.1-1,2-2.2
	s-0.9-2.1-2.1-2.1C255.2,877.9,254.3,878.8,254.3,880z"/>
<ellipse transform="matrix(0.9995 -3.165864e-02 3.165864e-02 0.9995 -27.8943 7.9079)" fill="#FFFFFF" stroke="#000000" stroke-miterlimit="10" cx="235.8" cy="884.8" rx="4.1" ry="2.2"/>
<path fill="#FFFFFF" stroke="#000000" stroke-miterlimit="10" d="M310.2,901.9c0,1.6,2.2,2.8,5,2.7c2.7-0.1,4.9-1.4,4.9-3
	c0-1.6-2.2-2.8-5-2.7C312.4,899.1,310.2,900.4,310.2,901.9z"/>
<path fill="#FFFFFF" stroke="#000000" stroke-miterlimit="10" d="M294,905.2c0,1,1.4,1.9,3.2,1.8c1.7,0,3.1-0.9,3.1-2
	c0-1-1.4-1.9-3.2-1.8C295.4,903.2,294,904.1,294,905.2z"/>
<path fill="#FFFFFF" stroke="#000000" stroke-miterlimit="10" d="M0,924.4c0.1,17.7,51.7,30.9,115.2,29.3c41.9-1,78.6-8.2,98.6-18.1
	c4,3.6,12,5.9,21.3,5.7c13.2-0.3,23.8-5.7,23.7-11.9c0-6.3-10.7-11.1-23.9-10.8c-1.7,0-3.4,0.2-4.9,0.4c0-0.1,0-0.2,0-0.2
	c0-6.7-7.4-12.7-20-17.6c0.1-0.3,0.1-0.6,0.1-0.9c0-3.1-4.9-5.5-10.8-5.4c-2.3,0.1-4.4,0.5-6.2,1.2c-20-4.7-46.7-7.3-76-6.7
	c-2-5.3-12.2-9.2-24.4-8.9c-13.6,0.3-24.7,5.7-24.6,11.9c0,0.3,0,0.6,0.1,0.9C28,899.3-0.1,911.3,0,924.4z"/>
<path fill="#FFFFFF" stroke="#000000" stroke-miterlimit="10" d="M246.5,912.9c0,3.7,7.3,6.4,16.2,6.2c8.9-0.2,16.2-3.4,16.1-7
	c0-3.7-7.3-6.4-16.2-6.2C253.7,906.2,246.4,909.3,246.5,912.9z"/>
<path fill="#FFFFFF" stroke="#000000" stroke-miterlimit="10" d="M90.1,913c0,1.6,7.1,2.7,15.7,2.4c8.7-0.2,15.7-1.7,15.7-3.2
	c0-1.6-7.1-2.7-15.7-2.4C97.1,910,90.1,911.4,90.1,913z"/>
<path fill="#FFFFFF" stroke="#000000" stroke-miterlimit="10" d="M336.4,930.6c0,4.2,8.7,7.3,19.4,7.1c10.7-0.3,19.3-3.9,19.3-8
	c0-4.2-8.7-7.3-19.4-7.1C345,922.8,336.4,926.4,336.4,930.6z"/>
<path fill="#FFFFFF" stroke="#000000" stroke-miterlimit="10" d="M398.5,939.4c0,3.7,10.3,6.4,23,6.1c12.7-0.3,22.9-3.5,22.9-7.2
	c0-3.7-10.3-6.4-23-6.1C408.7,932.6,398.5,935.8,398.5,939.4z"/>
<ellipse transform="matrix(0.9996 -2.767852e-02 2.767852e-02 0.9996 -25.4521 11.5311)" fill="#FFFFFF" stroke="#000000" stroke-miterlimit="10" cx="403.8" cy="925.2" rx="9.9" ry="3.8"/>
<path fill="#FFFFFF" stroke="#000000" stroke-miterlimit="10" d="M393.8,311.3c-1.8,12.4-6,24.4-11.4,34.7
	c-4.8,9.3-10.5,17.1-16,22.7c-2.9,2.9-5.7,5.1-8.4,6.6c-2,1.1-3.9,1.8-5.7,2.1c-12.7,1.6-13.6-19.9-13.3-29.8
	c-0.9,11.6-4.5,39.9-18.3,44.5c-5.6,1.9-11.7-1.9-17.3-7.9c-3-3.2-6-7.2-8.6-11.2c-1.9-2.9-3.7-5.8-5.2-8.6
	c-4.5-8-7.5-14.7-7.8-15.2c0.1,0.5,1.1,6.7,1.7,15.4c0.3,4.5,0.5,9.6,0.3,15c-0.3,14-2.6,29.8-10.2,39.8c-2,2.7-4.5,5-7.4,6.7
	c-16.7,9.9-31.7,2.4-40.2-4.2c-4.8-3.7-7.6-7.1-7.6-7.1s-34.2-84.2,9.1-154.1c2.5-4,5.3-7.7,8.3-10.9c48.5-52.2,154.4,3,158.5,41
	C395.1,297.6,394.8,304.5,393.8,311.3z"/>
<path fill="#FFFFFF" stroke="#000000" stroke-miterlimit="10" d="M485.6,417.1c-1.1,8.5-3.8,15.3-6.8,16.9
	c-7.6,4.3-11.3-3.3-11.3-3.3s-2.8,25.3-20.6,24c-11.6-0.9-14.3-17.8-14.8-29.5c-0.5,1.1-1.2,1.8-2.5,1.8c-2.6-0.1-3.7-2.5-4.1-4.7
	c0.1,6.7-1,20-10.4,22.3c-11.1,2.8-11.9-14.8-11.9-19.1c-0.2,1.6-1.2,4.5-6.8,3.6c-7.5-1.2-5.7-36.9-5.7-36.9s-8,31.6-19,21.9
	c-3.7-3.3-7.9-19.2-6.8-35.2c0.2-3.4,0.7-6.9,1.5-10.2c2.3-9.6,7.2-18.2,16-22.7c15.5-7.8,43.2-3.1,90.6,30.7
	C485.1,385.3,487.4,403.4,485.6,417.1z"/>
<path fill="#FFFFFF" stroke="#000000" stroke-miterlimit="10" d="M354,693.7l-5.2-0.1h0l-66.4-0.9c-1.1,0-1.7,0-1.7,0l-2.4,0h-0.4
	l-28.2-0.4c0,0,0,0,0,0s0,0-0.1-0.1c-0.2-0.2-0.9-1-1.8-1.9l-0.6-0.6c0,0,0,0,0,0l-0.6-0.6c-0.1-0.1-0.1-0.1-0.2-0.2
	c-1.2-1.2-2.6-2.4-3.8-3.1c-0.2-0.1-0.3-0.2-0.5-0.3c0,0,0,0,0,0c-0.2-0.1-0.3-0.2-0.5-0.2c-0.2-0.1-0.4-0.1-0.5-0.1
	c0,0-0.1,0-0.2,0c-0.1,0-0.2,0-0.3,0c-0.1,0-0.1,0-0.2,0.1c-1.9,0.6-5.5,3.1-9,4.8c-0.3,0.2-0.7,0.3-1,0.4c-1,0.4-2,0.7-2.9,0.9
	c-2.5,0.4-7.7,0.7-12.2,1h0l-41.9,1c0,0,0,0,0,0h0c0.2-0.1,1.6-1.1,3.6-2.2c0.5-0.3,1-0.5,1.5-0.8c0.3-0.2,0.6-0.3,1-0.5
	c0.3-0.2,0.7-0.3,1-0.5c0.4-0.2,0.7-0.3,1.1-0.5c0.1,0,0.1-0.1,0.2-0.1c0.3-0.1,0.6-0.2,0.8-0.3c0.3-0.1,0.6-0.2,0.9-0.3
	c0.2,0,0.3-0.1,0.4-0.1c1-0.2,2,0,2.9,0.2c0.1,0,0.3,0.1,0.4,0.1c0.4,0.1,0.7,0.3,1.1,0.4c0.9,0.4,1.7,0.9,2.5,1.3
	c0.6,0.3,1.2,0.6,1.8,0.8c0.1,0,0.3,0.1,0.4,0.1c0.1,0,0.2,0,0.3,0c1.1,0,3.3-0.7,6.2-1.6c7.2-2.5,18.1-7,21-7.1
	c4.2-0.2,5.6,1.1,5.6,1.1l0,0c0.2-0.2,1.7-1.7,3.4-3.4c0.2-0.2,0.4-0.4,0.5-0.5c0.7-0.7,1.5-1.4,2.1-2c0.2-0.2,0.4-0.4,0.6-0.6
	c0.2-0.2,0.4-0.4,0.6-0.5c0.3-0.2,0.5-0.4,0.7-0.6c0.2-0.1,0.3-0.2,0.4-0.2c0.1,0,0.2,0,0.4,0c0.4,0,0.7,0.2,0.9,0.3v0
	c0,0,0,0,0.1,0.1c0.3,0.2,0.5,0.5,0.5,0.5s3.9-2,5.8-2.1c1.9-0.1,7.3,5.1,7.3,5.1s0,0,2.8-0.6c2.8-0.6,14.3-8.9,16.2-9.1
	c1.9-0.2,2.4,2.3,2.4,2.3s0,0,0-0.1c0,0,0-0.1,0.1-0.1c0.1-0.1,0.2-0.3,0.3-0.6c0.4-0.7,1-2,1.8-3.5c0.2-0.3,0.4-0.7,0.6-1
	c1.1-1.9,2.5-4.2,3.9-6.2c0.3-0.4,0.5-0.7,0.8-1c0.6-0.7,1.1-1.4,1.7-2c1.4-1.5,2.6-2.6,3.6-3.4c2.5-2,4.1-2.2,4.1-2.2s0,0,0-0.1
	c0.3-0.8,3.3-9.5,6.1-23.2c2.8-13.5,5.3-32.1,5-53.1v-0.1c0-1,0-2-0.1-3.1c-0.2-4-0.5-8.1-1-12.2c-5-39.8-24.5-83.3-25.2-117.5
	c0-1.3,0-2.6,0-4c0-6.5,0.3-13,0.9-19.2c1.4-16.8,4.3-32,6.6-42.2c1.7-7.8,3.1-12.6,3.1-12.6l0.2,0l6.1-0.2l1.8-0.1l1.1,0l3.9-0.1
	c0,0-0.4,2-1,5.4c-0.2,1-0.4,2.2-0.6,3.4c-0.5,2.9-1.1,6.4-1.6,10.3c-1.5,10.5-2.9,24.4-3.2,38.9c-0.1,7.2,0.1,14.5,0.8,21.7
	c1.6,16.3,8,40.4,14.9,65.2c1.2,4.5,2.5,9,3.8,13.6c7.6,27.5,14.9,54.3,15.9,71.1c0.7,12.9,0.6,24.4,0,34.4c-1,17-3.5,29.7-5.5,37.7
	c-2.2,8.7,0.2,13.8,1.9,16.1c0.8,1,1.4,1.5,1.4,1.5s1.8-0.9,4-1.7c0,0,0,0,0,0c1.3-0.5,2.7-0.9,4-1.1c0,0,0,0,0,0
	c1.2-0.2,2.2-0.2,3,0.2c3,1.4,5.3,6.2,5.3,6.2L354,693.7z"/>
<path fill="#FFFFFF" stroke="#000000" stroke-miterlimit="10" d="M379.1,398.6c0,0-37.1,30.4-50.9,59.1
	c-13.8,28.7,0.2,57.8-0.6,58.6c-0.5,0.5-6.4,4-12.6,6c-1.2,0.4-2.4,0.7-3.5,1c0,0-0.1,0-0.2,0c-1.8,0.4-3.6,0.6-5.2,0.4
	c-0.2,0-0.3,0-0.5-0.1c-0.9-0.1-1.8-0.5-2.7-1.1c-4.4-3-8.2-11.1-9.7-17.1c0,0,0-0.1,0-0.1c-0.8-3.4-0.9-6,0.2-6.6
	c2.3-1.3,7.7,2.6,10.5,4.9c0.5,0.4,0.9,0.8,1.2,1h0c0.4,0.4,0.6,0.6,0.6,0.6l1.8-0.1l2.6-0.1l4.5-0.2c0.4-0.1,0.7-0.3,0.9-0.6
	c1.3-1.8-0.2-7.3,0-16.1c0-0.3,0-0.5,0-0.5c0.3-11,3.5-27,18.1-46.7c1.1-1.6,2.4-3.1,3.7-4.8h0c9.3-11.5,22.5-24.1,41.2-37.7
	L379.1,398.6z"/>
<path fill="#FFFFFF" stroke="#000000" stroke-miterlimit="10" d="M301.5,578.6c-0.4-2.3-1.3-4.4-2.5-6.3c-0.8-1.2-1.7-2.4-2.6-3.5
	c0,0,0,0,0,0c-0.3-0.4-0.6-0.7-1-1c-3.9-4-8.2-6.4-8.2-6.4l-1.2-5.1l10.1,3.9c0,0,0,0.1,0,0.1c0.1,0.1,0.3,0.2,1,0
	c0.1,0,0.2-0.1,0.3-0.1c0.2-0.1,0.4-0.1,0.5,0c1.3,0.2,3,2.5,3,2.5S303.1,588.7,301.5,578.6z"/>
<path fill="#FFFFFF" stroke="#000000" stroke-miterlimit="10" d="M323.7,458.5c-4.3,1.2-1.1-35.7-0.6-41.2c-0.4,5.3-2.8,39,3.4,37.5
	h0C326.6,454.8,328.4,457.2,323.7,458.5z"/>
<path fill="#FFFFFF" stroke="#000000" stroke-miterlimit="10" d="M319,593.2c-1-36.2-12.1-69.8-12.1-69.8s-0.1,0-0.2,0
	c-0.4,0.1-1.7,0.2-4,0.4c-0.2,0-0.5,0-0.7,0c-0.5,0-1.1-0.3-1.7-1c-2.5-2.4-5.9-8.7-7.4-13.5c0,0,0,0,0-0.1c-0.8-2.4-1-4.4-0.4-5.2
	c2-2.9,4.8,0.8,5,1.2l-12.8-41.9c0.3,1.6,4.5,25.3,2.8,25.6c-1.8,0.4-12.4-24.7-12-48.8c0.1-6.2,4-11.1,9.6-14.9
	c0.1-0.1,0.2-0.2,0.3-0.2c1.5-1,3-1.9,4.7-2.8c0.2-14.5,1.7-28.3,3.2-38.9c0.6-4,1.1-7.4,1.6-10.3c0.2-1.3,0.4-2.4,0.6-3.4l-2.9-5.3
	l-1.1,0l-1.8,0.1l-6.1,0.2l-0.2,0c0,0-1.4,4.8-3.1,12.6c-2.2,10.1-5.1,25.4-6.6,42.2c-0.5,6.3-0.9,12.7-0.9,19.2c0,1.4,0,2.7,0,4
	c0.6,34.2,20.1,77.7,25.2,117.5c-0.2,0-0.4,0-0.5,0c-0.1,0-0.2,0.1-0.3,0.1c-0.7,0.2-0.9,0.1-1,0c0,0,0-0.1,0-0.1c0,0,0,0,0,0
	l-10.1-3.8l1.2,5.1c0,0,4.3,2.4,8.2,6.4c0.3,0.3,0.7,0.7,1,1c0,0,0,0,0,0c1,1.1,1.9,2.2,2.6,3.5c0,1,0.1,2,0.1,3.1v0.1
	c0.4,21-2.2,39.6-5,53.1c-2.8,13.8-5.8,22.4-6.1,23.2l0,0.1c0,0,1.1-0.8,3-2.3c1.4-1.2,3.2-2.8,5.3-4.8c0,0,0,0,0,0
	c2-1.9,4.1-4.2,6.2-6.8c0,0,0,0,0,0c2.2-2.7,7.2-10.3,7.9-11.5c0,0,0.1-0.1,0.1-0.1C315.6,617.1,319.3,606,319,593.2z M309,585.6
	c0,0,1.5,6.8-0.9,18.1c-2.3,10.7-7.9,17.8-8.5,18.5C300.4,621,310,603.9,309,585.6z M315.1,608c-1.8,8.2-5.7,15.3-9.3,20.6
	c-3.9,5.7-7.4,9.1-7.4,9.1s1.7-3.4,4-9.1c2.3-5.7,5.1-13.7,7.5-23c4.7-18.7,3-38.7,3-38.7S318.8,591.1,315.1,608z"/>
<path fill="#FFFFFF" stroke="#000000" stroke-miterlimit="10" d="M319.9,635.4c-7.1,49.8-38.8,49.8-40.5,49.8c-1,0-3.6-4.4-5.7-8.1
	c-0.3-0.5-0.6-1-0.8-1.5c-1.1-2-1.9-3.6-1.9-3.6l0-0.2c0,0,0-0.1,0-0.1c0.1-0.1,0.2-0.3,0.3-0.6c0.4-0.7,1-2,1.8-3.5
	c0.2-0.3,0.4-0.7,0.6-1c1.1-1.9,2.5-4.2,3.9-6.2c0.3-0.4,0.5-0.7,0.8-1c0.6-0.7,1.1-1.4,1.7-2c1.4-1.5,2.6-2.6,3.6-3.4
	c-3.3,2.7-7.2,10.3-5.4,12.1c1.7,1.7,7.7,3,21.9-7.2c0.8-0.5,1.6-1.1,2.4-1.8c2.3-1.7,4.3-3.4,6-5.1c0,0,0,0,0,0
	C317.9,643.5,319.6,636.9,319.9,635.4z"/>
<path fill="#FFFFFF" stroke="#000000" stroke-miterlimit="10" d="M318.3,667.4c0,0.1-0.1,0.2-0.2,0.4
	C318.2,667.6,318.3,667.5,318.3,667.4z"/>
<path fill="#FFFFFF" stroke="#000000" stroke-miterlimit="10" d="M348.8,693.7c-0.2,0.4-56-0.7-66.5-0.9c-1.1,0-1.7,0-1.7,0
	s21.1-4.8,28.6-12.9c6-6.4,8.2-10.6,8.9-12c-0.6,1.5-2,6.2-0.2,11.1c0.7,1.8,2.1,2.7,3.9,3c1.7,0.3,3.7,0.1,5.4-0.2c0,0,0,0,0,0
	c1.2-0.2,2.3-0.5,3-0.8c-6.3,2.5-6.9,7.5-6.1,8.6c0.9,1.2,13.9-1.4,13.9-1.4S348.3,692.9,348.8,693.7L348.8,693.7
	C348.8,693.6,348.8,693.7,348.8,693.7z"/>
<path fill="#FFFFFF" stroke="#000000" stroke-miterlimit="10" d="M277.8,692.7l-28.2-0.4c0,0,0,0,0,0l-0.1-0.1
	c-0.2-0.2-0.9-1-1.8-1.9c-0.2-0.2-0.4-0.4-0.6-0.6c0,0,0,0,0,0c-0.2-0.2-0.4-0.4-0.6-0.6c-0.1-0.1-0.1-0.1-0.2-0.2
	c-1.2-1.2-2.6-2.4-3.8-3.1c-0.2-0.1-0.3-0.2-0.5-0.3c0,0,0,0,0,0c-0.2-0.1-0.3-0.2-0.5-0.2c-0.2-0.1-0.4-0.1-0.5-0.1
	c0,0-0.1,0-0.2,0c-0.1,0-0.2,0-0.3,0c-0.1,0-0.1,0-0.2,0.1c-1.9,0.6-5.5,3.1-9,4.8c-0.3,0.2-0.7,0.3-1,0.4c-1,0.4-2,0.7-2.9,0.9
	c-2.5,0.4-7.7,0.7-12.2,1h0l-41.9,1c0.2-0.1,1.6-1.1,3.6-2.2c0.5-0.3,1-0.5,1.5-0.8c0.3-0.2,0.6-0.3,1-0.5c0.3-0.2,0.7-0.3,1-0.5
	c0.4-0.2,0.7-0.3,1.1-0.5c0.1,0,0.1-0.1,0.2-0.1c0.3-0.1,0.6-0.2,0.8-0.3c0.3-0.1,0.6-0.2,0.9-0.3c0.2,0,0.3-0.1,0.4-0.1
	c1-0.2,2,0,2.9,0.2c0.1,0,0.3,0.1,0.4,0.1c0.4,0.1,0.7,0.3,1.1,0.4c0.9,0.4,1.7,0.9,2.5,1.3c0.6,0.3,1.2,0.6,1.8,0.8
	c0.1,0,0.3,0.1,0.4,0.1c0.1,0,0.2,0,0.3,0c1.1,0,3.3-0.7,6.2-1.6c0.2,0,14.9,0,22.9-0.9c8-0.9,3.8-5.1,3.8-5.1l0,0
	c0.2-0.2,1.7-1.7,3.4-3.4c0.2-0.2,0.4-0.4,0.5-0.5c0.7-0.7,1.5-1.4,2.1-2c0.2-0.2,0.4-0.4,0.6-0.6c0.2-0.2,0.4-0.4,0.6-0.5
	c0.3-0.2,0.5-0.4,0.7-0.6c0.2-0.1,0.3-0.2,0.4-0.2c0.1,0,0.2,0,0.4,0c0.4,0,0.7,0.2,0.9,0.3v0c0,0,0,0,0.1,0.1
	c0.1,0.1,0.2,0.2,0.5,0.5c2.9,2.9,17.3,16.8,21,14.5c4.1-2.5-5.6-8.9-5.6-8.9s12.6-5.9,13.9-6.1c0.8-0.2,2.2,5.4,4.8,10.2
	c1,1.9,2.2,3.7,3.6,4.9c0,0,0,0,0,0C275.3,691.9,276.5,692.5,277.8,692.7z"/>
<path fill="#FFFFFF" stroke="#000000" stroke-miterlimit="10" d="M275.3,692c-8.7-8-0.7-15.8-0.7-15.8l-0.9-2c0,0-4.6,7.9-2.7,14.1
	C273,694.5,275.3,692,275.3,692z"/>
<path fill="#FFFFFF" stroke="#000000" stroke-miterlimit="10" d="M310.9,625.6c-5,8.4-16.9,25.4-9.7,28.8c1.4,0.7,4.1,0.3,8.8-3.2
	c3,3.2-7.3,9.4-7.3,9.4v-1.9c0,0-4.7,1.7-6.4-3.4C293.9,647.4,310.9,625.6,310.9,625.6z"/>
<path fill="#FFFFFF" stroke="#000000" stroke-miterlimit="10" d="M298.2,642c-4.6,5-5.8,16-5.8,16s-3.1-7.8-0.1-12.1
	C295.1,641.5,298.2,642,298.2,642z"/>
<path fill="#FFFFFF" stroke="#000000" stroke-miterlimit="10" d="M315.4,514.3c0,0-5-2.3-5.4-5.7c0,0,0,0,0,0
	c-0.4-3.1-0.1-10.9,0-12.7c0-0.2,0-0.4,0-0.4C310.3,505.7,315.4,514.3,315.4,514.3z"/>
<path fill="#FFFFFF" stroke="#000000" stroke-miterlimit="10" d="M292.5,474.4c0,0-4.2-13.2-6-27.3c-1.7-13.1-1.4-27.9-1.4-27.9
	S286.9,455.3,292.5,474.4z"/>
<path fill="#FFFFFF" stroke="#000000" stroke-miterlimit="10" d="M283.4,456.8c0,0-1-9.4-1.5-13.1c-0.5-3.7-1.1-7.9-1.1-7.9
	S280.2,448.4,283.4,456.8z"/>
<path fill="#FFFFFF" stroke="#000000" stroke-miterlimit="10" d="M303.9,509.2c0,0-3.6-2.2-3.4,3.1c0.1,3.4,1.5,7,1.5,7
	S294.2,503.3,303.9,509.2z"/>
<path fill="#FFFFFF" stroke="#000000" stroke-miterlimit="10" d="M485.6,417.1c-1.6,1-3.2,1.5-4.9,1.7
	c-15.4,1.5-16.7-12.5-16.7-12.5s-1.1,5.4-6.9,7.8c-5.8,2.4-5.2-33.7-5.2-33.7s-6.1,41.1-38.7,35.3c-31.9-5.6-14.5-48.9-13.8-50.7
	c-0.7,1.4-12.5,23.7-21.8,22.2c-8.7-1.3-6.4-14.8-5.9-17.4c-0.4,1.6-2,7.3-6.7,9c-1.2,0.4-2.5,0.6-4.1,0.4c-1.3-0.2-2.2-1.6-2.7-4.1
	c-3.1-14.6,8.2-63.7,34.5-64c0.4,0,0.9,0,1.3,0c29.3,0.3,24.2,24,24.2,24s32.3-31.8,63-0.2C508.8,363.8,500.8,407.8,485.6,417.1z"/>
<path fill="#FFFFFF" stroke="#000000" stroke-miterlimit="10" d="M137.8,364.5c-1.1,8.9-3.4,16-5.4,18c-9.6,9.7-16.7-21.9-16.7-21.9
	s1.6,35.7-5,36.9c-5.2,0.9-5.9-2.3-6-3.8c0,3.9-0.5,22.2-10.5,19.4c-8.3-2.4-9.2-15.7-9.2-22.4c-0.3,2.2-1.2,4.6-3.6,4.7
	c-1.1,0-1.8-0.7-2.2-1.8c-0.4,11.7-2.8,28.7-13,29.5c-15.7,1.3-18.1-24-18.1-24s-3.3,7.6-10,3.3c-2.6-1.6-5-8.4-5.9-17
	c-1.6-13.7,0.4-31.7,11-40.3c53.9-43.7,78.7-38.9,89-21.1c3.8,6.6,5.6,14.9,6.1,23.3C138.8,353.3,138.5,359.3,137.8,364.5z"/>
<path fill="#FFFFFF" stroke="#000000" stroke-miterlimit="10" d="M142.1,347.8c-1.4,0.2-2.6,0-3.6-0.4c-3.6-1.4-5.2-5.9-5.7-8.1
	c-0.1-0.4-0.2-0.7-0.2-0.9c0.4,2.6,2.4,16.1-5.2,17.4c-8.2,1.4-18.6-20.9-19.2-22.2c0.6,1.8,15.9,45.1-12.1,50.7
	c-28.6,5.8-34-35.3-34-35.3s0.5,36.1-4.6,33.6s-6-7.8-6-7.8s-1.1,13.9-14.7,12.5c-1.5-0.2-2.9-0.8-4.3-1.7
	c-13.4-9.3-20.4-53.3,4-81.9c27-31.6,55.4,0.2,55.4,0.2s-4.6-24.4,22.4-24c10,0.1,17.5,9.3,22.6,20.9
	C145.4,320.4,147.1,347.1,142.1,347.8z"/>
<path fill="#FFFFFF" stroke="#000000" stroke-miterlimit="10" d="M311.2,382.9c-2.7,0.7-5.3,1-7.8,1.2c-3.7,0.2-7.1-0.1-10.2-0.8
	c-3.5-0.8-6.6-2.1-9.4-3.7c-1.3-0.7-2.5-1.6-3.7-2.4c-8.8-6.5-12.8-15.3-12.8-15.3s1.1,30.7-4.6,31.2c-3,0.3-4.3-2.9-4.9-6
	c0.2,6.1-0.7,14.8-7,15.1c-7.6,0.4-9.9-11.4-10.5-16.5c0.5,6.9,0.7,27.2-14.2,36.1c-7.2,4.2-17.8,5.8-33.6,2
	c-26.4-6.4-45.7-31.2-54.6-59.3c-2.6-8.3-4.4-16.8-5.1-25.3c-0.5-5.1-0.6-10.2-0.4-15.1c0.4-8.3,1.8-16.2,4.3-23.5
	c2.9-8.5,7.3-16.1,13.4-22.2c16.7-16.9,51-28.5,85.8-28.7c42.4-0.3,85.5,16.3,98.8,60.9C334.7,310.6,342.1,375.5,311.2,382.9z"/>
<path fill="#FFFFFF" stroke="#000000" stroke-miterlimit="10" d="M243.8,442.1c-4.5,8-11.2-10.5-11.2-10.5S248.4,434.1,243.8,442.1z
	"/>
<path fill="#FFFFFF" stroke="#000000" stroke-miterlimit="10" d="M227.4,454.3c-9.8,1.4-7.3-27.6-1.7-22.7
	C225.7,431.6,237.2,452.9,227.4,454.3z"/>
<path fill="#FFFFFF" stroke="#000000" stroke-miterlimit="10" d="M16.8,394.3c0,0-3.7,12.6-7,7.4C6.5,396.6,16.8,394.3,16.8,394.3z"
	/>
<path fill="#FFFFFF" stroke="#000000" stroke-miterlimit="10" d="M21.2,409.2c-6.6-0.5,0.2-15.1,0.2-15.1
	C25,390.5,27.8,409.7,21.2,409.2z"/>
<path fill="#FFFFFF" stroke="#000000" stroke-miterlimit="10" d="M16.8,394.3c0,0-3.7,12.6-7,7.4C6.5,396.6,16.8,394.3,16.8,394.3z"
	/>
<path fill="#FFFFFF" stroke="#000000" stroke-miterlimit="10" d="M21.2,409.2c-6.6-0.5,0.2-15.1,0.2-15.1
	C25,390.5,27.8,409.7,21.2,409.2z"/>
<path fill="#FFFFFF" stroke="#000000" stroke-miterlimit="10" d="M225.7,431.6c0,0,11.5,21.3,1.7,22.7
	C217.6,455.7,220.1,426.7,225.7,431.6z"/>
<path fill="#FFFFFF" stroke="#000000" stroke-miterlimit="10" d="M243.8,442.1c-4.5,8-11.2-10.5-11.2-10.5S248.4,434.1,243.8,442.1z
	"/>
<path fill="#FFFFFF" stroke="#000000" stroke-miterlimit="10" d="M568,710.5c0,0-6.1,3.1-3.3,5.5c2.8,2.3,64.1,0.9,64.1,0.9l0.9-6.4
	c0,0,5.2-24.9,5.5-42.8c0.2-9.8-1.1-17.5-5.5-17.8c-12.5-0.8-22,13.7-22,13.7s-1.3-13.5-6.7-13.7c-5.3-0.2-7.3,14.3-7.3,14.7
	c0.1-0.6,2.4-24.4-11-14.7c-13.5,9.7-18.8,35.3-18.9,35.7c0-0.2,0.4-6.5-2.7-6.5c-3.1,0-2.8,11.1-2.8,11.1s-2.7-5.3-3.9-4.6
	c-1.2,0.7-1.2,4.6-1.2,4.6s-4-31.2-23-31.2c-19,0-17.9,33.2-17.9,33.2s-4.1-6.8-7.2-5.2c-1.6,0.8-2.1,3.4-2.3,5.9
	c-0.2,2.4,0,4.7,0,4.7l0,0c3.7,6.5-6,1.3-10.4,3.7c-1.9,1-3.6,2.3-4.4,3.7C485.3,709.8,568,710.5,568,710.5z"/>
<path fill="#FFFFFF" stroke="#000000" stroke-miterlimit="10" d="M564.5,713.6c0,0-4.9,2.2-2.7,3.8c2.3,1.6,66.9,2.7,66.9,2.7
	l0.8-4.5c0,0-10.8-19.4-10.5-31.8c-0.7-2.5-1.9-4.3-3.9-4.2c-6.1,0.4-11.3,16.6-11.3,16.6s0.1-3.6-1.4-3.6c-1.4,0-5.3,7.9-5.3,8
	c0.1-0.2,4.8-14.1-8.2-13.7c-13,0.4-19.6,18.7-19.6,18.7s-0.1-2.7-1.6-2.7c-1.5,0-2.6,4.8-2.7,4.9c0-0.1,0.2-2-1.3-2
	c-1.5,0-3.7,5.3-3.7,5.3s-1.7-9.2-6.5-9.5c-3.6-0.2-4.9,3.8-5.4,5.8c0.6-3.8,1.9-15.5-4.9-15.8c-6.4-0.3-7.1,7.2-7.1,10.5
	c-0.1-2.1-0.7-5.5-3-4.9c-3.2,0.8-3.2,8.1-3.2,8.1s-2.7-11-5.9-10.1c-3.2,0.9-4.8,12.5-4.8,12.5s-2.4-8.3-5.9-7.7
	c-1,0.2-1.6,0.6-1.9,1.2c-0.8,1.3,0,3.2,0,3.2l0.9,2.8c0,0-1.5-2.5-5.4-1.7c-3.9,0.7-6.8,3.1-7.5,4.1
	C497.5,713.1,564.5,713.6,564.5,713.6z"/>
<path fill="#FFFFFF" stroke="#000000" stroke-miterlimit="10" d="M577.4,657.3c-2.1,4.8-2,9.5,0.2,10.5c2.3,1,5.8-2,8-6.8
	c2.1-4.8,2-9.5-0.2-10.5S579.6,652.5,577.4,657.3z"/>
<path fill="#FFFFFF" stroke="#000000" stroke-miterlimit="10" d="M518.2,669.4c-2.2,4.8-1.4,9.9,1.7,11.3c3.1,1.4,7.4-1.4,9.6-6.2
	c2.2-4.8,1.4-9.9-1.7-11.3C524.6,661.7,520.3,664.5,518.2,669.4z"/>
<path fill="#FFFFFF" stroke="#000000" stroke-miterlimit="10" d="M531.2,671.6c-1.2,2.6-0.8,5.3,0.9,6c1.7,0.7,4-0.7,5.1-3.3
	c1.2-2.6,0.8-5.3-0.9-6C534.7,667.6,532.4,669,531.2,671.6z"/>
<path fill="#FFFFFF" stroke="#000000" stroke-miterlimit="10" d="M504.2,689.8c-0.2,1.2,0.3,2.2,1,2.3c0.7,0.1,1.5-0.7,1.7-1.9
	s-0.3-2.2-1-2.3C505.2,687.8,504.4,688.6,504.2,689.8z"/>
<path fill="#FFFFFF" stroke="#000000" stroke-miterlimit="10" d="M586.5,668.3c-0.3,1.7,0.1,3.2,0.9,3.3c0.8,0.1,1.7-1.1,2-2.8
	c0.3-1.7-0.1-3.2-0.9-3.3C587.6,665.3,586.8,666.6,586.5,668.3z"/>
<path fill="#FFFFFF" stroke="#000000" stroke-miterlimit="10" d="M596.5,657.8c-0.6,2.8,0,5.3,1.3,5.6c1.3,0.3,2.9-1.8,3.5-4.6
	c0.6-2.8,0-5.3-1.3-5.6C598.7,652.9,597.1,654.9,596.5,657.8z"/>
<path fill="#FFFFFF" stroke="#000000" stroke-miterlimit="10" d="M602.6,662.6c0,0.9,0.4,1.7,0.9,1.7c0.4,0,0.8-0.8,0.7-1.7
	s-0.4-1.7-0.9-1.7C602.9,660.9,602.6,661.6,602.6,662.6z"/>
<path fill="#FFFFFF" stroke="#000000" stroke-miterlimit="10" d="M612.1,663.3c-1.8,4.6-1.6,8.9,0.5,9.8c2.1,0.9,5.3-2.1,7.2-6.7
	c1.8-4.6,1.6-8.9-0.5-9.8C617.2,655.8,614,658.8,612.1,663.3z"/>
<path fill="#FFFFFF" stroke="#000000" stroke-miterlimit="10" d="M559.6,682.5c-0.2,1.1,0.1,2.1,0.6,2.2c0.5,0.1,1.1-0.8,1.3-1.9
	c0.2-1.1-0.1-2.1-0.6-2.2C560.3,680.5,559.8,681.3,559.6,682.5z"/>
<path fill="#FFFFFF" stroke="#000000" stroke-miterlimit="10" d="M539,699.6c0,0,3-4,1-5S539,699.6,539,699.6z"/>
<path fill="#FFFFFF" stroke="#000000" stroke-miterlimit="10" d="M532,703.6c0,0,1-3,0-3S532,703.6,532,703.6z"/>
<path fill="#FFFFFF" stroke="#000000" stroke-miterlimit="10" d="M582,699.6c0,0,1-3,0-3S582,699.6,582,699.6z"/>
<path fill="#FFFFFF" stroke="#000000" stroke-miterlimit="10" d="M540.1,699.3c0,0,2.6-1.8,1.8-2.4
	C541.1,696.3,540.1,699.3,540.1,699.3z"/>
<path fill="#FFFFFF" stroke="#000000" stroke-miterlimit="10" d="M585.3,700.4c0,0,5.9-7.8,2-9.8
	C583.3,688.6,585.3,700.4,585.3,700.4z"/>
<path fill="#FFFFFF" stroke="#000000" stroke-miterlimit="10" d="M587.5,699.8c0,0,5-3.6,3.5-4.7
	C589.3,693.9,587.5,699.8,587.5,699.8z"/>
<path fill="#FFFFFF" stroke="#000000" stroke-miterlimit="10" d="M224.1,690.5c0,0,6.1,3.1,3.3,5.5c-2.8,2.3-64.1,0.9-64.1,0.9
	l-0.9-6.4c0,0-5.2-24.9-5.5-42.8c-0.2-9.8,1.1-17.5,5.5-17.8c12.5-0.8,22,13.7,22,13.7s1.3-13.5,6.7-13.7c5.3-0.2,7.3,14.3,7.3,14.7
	c-0.1-0.6-2.4-24.4,11-14.7c13.5,9.7,18.8,35.3,18.9,35.7c0-0.2-0.4-6.5,2.7-6.5c3.1,0,2.8,11.1,2.8,11.1s2.7-5.3,3.9-4.6
	c1.2,0.7,1.2,4.6,1.2,4.6s4-31.2,23-31.2c19,0,17.9,33.2,17.9,33.2s4.1-6.8,7.2-5.2c1.6,0.8,2.1,3.4,2.3,5.9c0.2,2.4,0,4.7,0,4.7
	l0,0c-3.7,6.5,6,1.3,10.4,3.7c1.9,1,3.6,2.3,4.4,3.7C306.8,689.7,224.1,690.5,224.1,690.5z"/>
<path fill="#FFFFFF" stroke="#000000" stroke-miterlimit="10" d="M227.6,693.6c0,0,4.9,2.2,2.7,3.8c-2.3,1.6-66.9,2.7-66.9,2.7
	l-0.8-4.5c0,0,10.8-19.4,10.5-31.8c0.7-2.5,1.9-4.3,3.9-4.2c6.1,0.4,11.3,16.6,11.3,16.6s-0.1-3.6,1.4-3.6c1.4,0,5.3,7.9,5.3,8
	c-0.1-0.2-4.8-14.1,8.2-13.7c13,0.4,19.6,18.7,19.6,18.7s0.1-2.7,1.6-2.7c1.5,0,2.6,4.8,2.7,4.9c0-0.1-0.2-2,1.3-2
	c1.5,0,3.7,5.3,3.7,5.3s1.7-9.2,6.5-9.5c3.6-0.2,4.9,3.8,5.4,5.8c-0.6-3.8-1.9-15.5,4.9-15.8c6.4-0.3,7.1,7.2,7.1,10.5
	c0.1-2.1,0.7-5.5,3-4.9c3.2,0.8,3.2,8.1,3.2,8.1s2.7-11,5.9-10.1s4.8,12.5,4.8,12.5s2.4-8.3,5.9-7.7c1,0.2,1.6,0.6,1.9,1.2
	c0.8,1.3,0,3.2,0,3.2l-0.9,2.8c0,0,1.5-2.5,5.4-1.7c3.9,0.7,6.8,3.1,7.5,4.1C294.6,693,227.6,693.6,227.6,693.6z"/>
<path fill="#FFFFFF" stroke="#000000" stroke-miterlimit="10" d="M214.7,637.2c2.1,4.8,2,9.5-0.2,10.5c-2.3,1-5.8-2-8-6.8
	c-2.1-4.8-2-9.5,0.2-10.5C209,629.4,212.6,632.5,214.7,637.2z"/>
<path fill="#FFFFFF" stroke="#000000" stroke-miterlimit="10" d="M274,649.3c2.2,4.8,1.4,9.9-1.7,11.3c-3.1,1.4-7.4-1.4-9.6-6.2
	c-2.2-4.8-1.4-9.9,1.7-11.3C267.5,641.7,271.8,644.5,274,649.3z"/>
<path fill="#FFFFFF" stroke="#000000" stroke-miterlimit="10" d="M260.9,651.6c1.2,2.6,0.8,5.3-0.9,6c-1.7,0.7-4-0.7-5.1-3.3
	c-1.2-2.6-0.8-5.3,0.9-6C257.4,647.5,259.7,649,260.9,651.6z"/>
<path fill="#FFFFFF" stroke="#000000" stroke-miterlimit="10" d="M287.9,669.7c0.2,1.2-0.3,2.2-1,2.3c-0.7,0.1-1.5-0.7-1.7-1.9
	c-0.2-1.2,0.3-2.2,1-2.3C287,667.8,287.7,668.6,287.9,669.7z"/>
<path fill="#FFFFFF" stroke="#000000" stroke-miterlimit="10" d="M205.7,648.2c0.3,1.7-0.1,3.2-0.9,3.3c-0.8,0.1-1.7-1.1-2-2.8
	c-0.3-1.7,0.1-3.2,0.9-3.3C204.5,645.3,205.4,646.5,205.7,648.2z"/>
<path fill="#FFFFFF" stroke="#000000" stroke-miterlimit="10" d="M195.6,637.7c0.6,2.8,0,5.3-1.3,5.6c-1.3,0.3-2.9-1.8-3.5-4.6
	s0-5.3,1.3-5.6C193.5,632.9,195,634.9,195.6,637.7z"/>
<path fill="#FFFFFF" stroke="#000000" stroke-miterlimit="10" d="M189.5,642.5c0,0.9-0.4,1.7-0.9,1.7c-0.4,0-0.8-0.8-0.7-1.7
	c0-0.9,0.4-1.7,0.9-1.7C189.2,640.8,189.5,641.6,189.5,642.5z"/>
<path fill="#FFFFFF" stroke="#000000" stroke-miterlimit="10" d="M180,643.3c1.8,4.6,1.6,8.9-0.5,9.8c-2.1,0.9-5.3-2.1-7.2-6.7
	c-1.8-4.6-1.6-8.9,0.5-9.8S178.2,638.7,180,643.3z"/>
<path fill="#FFFFFF" stroke="#000000" stroke-miterlimit="10" d="M232.6,662.4c0.2,1.1-0.1,2.1-0.6,2.2c-0.5,0.1-1.1-0.8-1.3-1.9
	c-0.2-1.1,0.1-2.1,0.6-2.2C231.8,660.4,232.4,661.3,232.6,662.4z"/>
<path fill="#FFFFFF" stroke="#000000" stroke-miterlimit="10" d="M253.1,679.6c0,0-3-4-1-5S253.1,679.6,253.1,679.6z"/>
<path fill="#FFFFFF" stroke="#000000" stroke-miterlimit="10" d="M260.1,683.6c0,0-1-3,0-3S260.1,683.6,260.1,683.6z"/>
<path fill="#FFFFFF" stroke="#000000" stroke-miterlimit="10" d="M210.1,679.6c0,0-1-3,0-3S210.1,679.6,210.1,679.6z"/>
<path fill="#FFFFFF" stroke="#000000" stroke-miterlimit="10" d="M252,679.3c0,0-2.6-1.8-1.8-2.4C251,676.3,252,679.3,252,679.3z"/>
<path fill="#FFFFFF" stroke="#000000" stroke-miterlimit="10" d="M206.8,680.3c0,0-5.9-7.8-2-9.8
	C208.8,668.6,206.8,680.3,206.8,680.3z"/>
<path fill="#FFFFFF" stroke="#000000" stroke-miterlimit="10" d="M204.7,679.8c0,0-5-3.6-3.5-4.7
	C202.8,673.9,204.7,679.8,204.7,679.8z"/>
<path fill="#FFFFFF" stroke="#000000" stroke-miterlimit="10" d="M318.1,694.4c0,0,6.1,3.1,3.3,5.5c-2.8,2.3-64.1,0.9-64.1,0.9
	l-0.9-6.4c0,0-5.2-24.9-5.5-42.8c-0.2-9.8,1.1-17.5,5.5-17.8c12.5-0.8,22,13.7,22,13.7s1.3-13.5,6.7-13.7c5.3-0.2,7.3,14.3,7.3,14.7
	c-0.1-0.6-2.4-24.4,11-14.7c13.5,9.7,18.8,35.3,18.9,35.7c0-0.2-0.4-6.5,2.7-6.5c3.1,0,2.8,11.1,2.8,11.1s2.7-5.3,3.9-4.6
	c1.2,0.7,1.2,4.6,1.2,4.6s4-31.2,23-31.2c19,0,17.9,33.2,17.9,33.2s4.1-6.8,7.2-5.2c1.6,0.8,2.1,3.4,2.3,5.9c0.2,2.4,0,4.7,0,4.7
	l0,0c-3.7,6.5,6,1.3,10.4,3.7c1.9,1,3.6,2.3,4.4,3.7C400.8,693.7,318.1,694.4,318.1,694.4z"/>
<path fill="#FFFFFF" stroke="#000000" stroke-miterlimit="10" d="M321.6,697.5c0,0,4.9,2.2,2.7,3.8c-2.3,1.6-66.9,2.7-66.9,2.7
	l-0.8-4.5c0,0,10.8-19.4,10.5-31.8c0.7-2.5,1.9-4.3,3.9-4.2c6.1,0.4,11.3,16.6,11.3,16.6s-0.1-3.6,1.4-3.6c1.4,0,5.3,7.9,5.3,8
	c-0.1-0.2-4.8-14.1,8.2-13.7c13,0.4,19.6,18.7,19.6,18.7s0.1-2.7,1.6-2.7c1.5,0,2.6,4.8,2.7,4.9c0-0.1-0.2-2,1.3-2
	c1.5,0,3.7,5.3,3.7,5.3s1.7-9.2,6.5-9.5c3.6-0.2,4.9,3.8,5.4,5.8c-0.6-3.8-1.9-15.5,4.9-15.8c6.4-0.3,7.1,7.2,7.1,10.5
	c0.1-2.1,0.7-5.5,3-4.9c3.2,0.8,3.2,8.1,3.2,8.1s2.7-11,5.9-10.1c3.2,0.9,4.8,12.5,4.8,12.5s2.4-8.3,5.9-7.7c1,0.2,1.6,0.6,1.9,1.2
	c0.8,1.3,0,3.2,0,3.2l-0.9,2.8c0,0,1.5-2.5,5.4-1.7c3.9,0.7,6.8,3.1,7.5,4.1C388.6,697,321.6,697.5,321.6,697.5z"/>
<path fill="#FFFFFF" stroke="#000000" stroke-miterlimit="10" d="M308.7,641.2c2.1,4.8,2,9.5-0.2,10.5c-2.3,1-5.8-2-8-6.8
	c-2.1-4.8-2-9.5,0.2-10.5C302.9,633.3,306.5,636.4,308.7,641.2z"/>
<path fill="#FFFFFF" stroke="#000000" stroke-miterlimit="10" d="M367.9,653.3c2.2,4.8,1.4,9.9-1.7,11.3c-3.1,1.4-7.4-1.4-9.6-6.2
	c-2.2-4.8-1.4-9.9,1.7-11.3C361.4,645.6,365.7,648.4,367.9,653.3z"/>
<path fill="#FFFFFF" stroke="#000000" stroke-miterlimit="10" d="M354.8,655.5c1.2,2.6,0.8,5.3-0.9,6c-1.7,0.7-4-0.7-5.1-3.3
	c-1.2-2.6-0.8-5.3,0.9-6C351.4,651.4,353.7,652.9,354.8,655.5z"/>
<path fill="#FFFFFF" stroke="#000000" stroke-miterlimit="10" d="M381.8,673.7c0.2,1.2-0.3,2.2-1,2.3c-0.7,0.1-1.5-0.7-1.7-1.9
	c-0.2-1.2,0.3-2.2,1-2.3C380.9,671.7,381.7,672.5,381.8,673.7z"/>
<path fill="#FFFFFF" stroke="#000000" stroke-miterlimit="10" d="M299.6,652.2c0.3,1.7-0.1,3.2-0.9,3.3c-0.8,0.1-1.7-1.1-2-2.8
	c-0.3-1.7,0.1-3.2,0.9-3.3C298.4,649.2,299.3,650.5,299.6,652.2z"/>
<path fill="#FFFFFF" stroke="#000000" stroke-miterlimit="10" d="M289.6,641.6c0.6,2.8,0,5.3-1.3,5.6c-1.3,0.3-2.9-1.8-3.5-4.6
	c-0.6-2.8,0-5.3,1.3-5.6C287.4,636.8,289,638.8,289.6,641.6z"/>
<path fill="#FFFFFF" stroke="#000000" stroke-miterlimit="10" d="M283.5,646.5c0,0.9-0.4,1.7-0.9,1.7c-0.4,0-0.8-0.8-0.7-1.7
	c0-0.9,0.4-1.7,0.9-1.7S283.5,645.5,283.5,646.5z"/>
<path fill="#FFFFFF" stroke="#000000" stroke-miterlimit="10" d="M274,647.2c1.8,4.6,1.6,8.9-0.5,9.8c-2.1,0.9-5.3-2.1-7.2-6.7
	c-1.8-4.6-1.6-8.9,0.5-9.8C268.9,639.7,272.1,642.7,274,647.2z"/>
<path fill="#FFFFFF" stroke="#000000" stroke-miterlimit="10" d="M326.5,666.3c0.2,1.1-0.1,2.1-0.6,2.2c-0.5,0.1-1.1-0.8-1.3-1.9
	s0.1-2.1,0.6-2.2C325.7,664.4,326.3,665.2,326.5,666.3z"/>
<path fill="#FFFFFF" stroke="#000000" stroke-miterlimit="10" d="M347.1,683.5c0,0-3-4-1-5S347.1,683.5,347.1,683.5z"/>
<path fill="#FFFFFF" stroke="#000000" stroke-miterlimit="10" d="M354.1,687.5c0,0-1-3,0-3S354.1,687.5,354.1,687.5z"/>
<path fill="#FFFFFF" stroke="#000000" stroke-miterlimit="10" d="M304.1,683.5c0,0-1-3,0-3S304.1,683.5,304.1,683.5z"/>
<path fill="#FFFFFF" stroke="#000000" stroke-miterlimit="10" d="M345.9,683.2c0,0-2.6-1.8-1.8-2.4
	C345,680.2,345.9,683.2,345.9,683.2z"/>
<path fill="#FFFFFF" stroke="#000000" stroke-miterlimit="10" d="M300.8,684.3c0,0-5.9-7.8-2-9.8
	C302.7,672.5,300.8,684.3,300.8,684.3z"/>
<path fill="#FFFFFF" stroke="#000000" stroke-miterlimit="10" d="M298.6,683.7c0,0-5-3.6-3.5-4.7
	C296.7,677.8,298.6,683.7,298.6,683.7z"/>
<path fill="#FFFFFF" stroke="#000000" stroke-miterlimit="10" d="M952.7,610.8c27,1.4,39.7-101.6-20.2-125.1
	c-59.8-23.4-43.6,78.4-33.9,74.1c6.9-3.1,7.2-10,7.2-10s2.6,46.6,24.5,46.6c8.1,0,10-12.3,10-12.3S941.8,610.2,952.7,610.8z"/>
<path fill="#FFFFFF" stroke="#000000" stroke-miterlimit="10" d="M907.3,583c1.1,1.5,2.2,3.1,3.3,4.9c0.9,1.4,1.7,2.9,2.6,4.5
	c8.9,16.6,12.9,21.7,12,33.4c-0.1,1.3,1.3,30.7,2.6,42.9c1.1,10.5,2.7,19.6,4.6,27.7c0,0,0,0,0,0c0.1,0.7,0.3,1.3,0.5,2
	c0,0,0,0.1,0,0.1c0.2,0.7,0.3,1.4,0.5,2c0,0,0,0,0,0c0.6,2.5,1.3,4.9,1.9,7.3c0.6,2,1.1,4,1.7,6c4.2,14.1,8.2,25.4,9.3,37.6
	c1.9,22.7-5.2,64-5.2,64l5.9,0.5l5.5,0.4c0,0,8.5-39.4,1.7-68.7c-6.8-29.3-29.6-72.9-23.8-119.8c5.8-46.9,23.8-62.7,23.8-62.7
	l-0.2-5.5c0,0-6.9,10.3-12.8,21.5c-6,11.1-11.2,32.4-13.3,33.7c-1.1,0.7-4.5-8.6-11-19.7c0,0,0,0,0,0c0,0,0,0,0,0
	c-2-3.4-4.2-6.9-6.7-10.4l0,0c-0.8-1.2-1.7-2.3-2.6-3.5C907.4,581.8,907.4,582.5,907.3,583z"/>
<path fill="#FFFFFF" stroke="#000000" stroke-miterlimit="10" d="M885.1,642.7l2.3,13.7c0,0,18.2,16.3,22.6,24.2
	c4.4,7.9,6.2,24.3,7.1,25.1c0.8,0.8,3.6,0.1,10,1.8c0.5,0.1,0.9,0.3,1.4,0.4c3.6,1.1,6.4,3.4,8.5,5.9c3.5,4.2,4.9,9,5.1,9.6
	c0-0.2-0.1-0.7-0.3-1.4c-0.8-3.9-3-14-4.5-13.9c-0.3,0-0.7,0-1.4-0.2c-0.2,0-0.4-0.1-0.6-0.1c-2.1-0.5-5.5-1.5-8.5-2.7
	c-2.9-1.1-5.6-2.3-6.8-3.3c-3-2.4-4.6-13.8-7.8-20c-3.1-6.2-9.7-14.5-9.7-14.5l1.7-13.5l-0.9-2.5c0,0,0.3,19.2-6.4,12.4
	C888.3,655,885.8,646.1,885.1,642.7z"/>
<path fill="#FFFFFF" stroke="#000000" stroke-miterlimit="10" d="M884.8,641.3c0,0,0.1,0.5,0.2,1.4L884.8,641.3z"/>
<path fill="#FFFFFF" stroke="#000000" stroke-miterlimit="10" d="M932.4,696.3c0.1,0.7,0.3,1.3,0.5,2
	C932.7,697.6,932.6,697,932.4,696.3z"/>
<path fill="#FFFFFF" stroke="#000000" stroke-miterlimit="10" d="M926.8,705.1l0.3,2.4c0.5,0.1,0.9,0.3,1.4,0.4
	c3.6,1.1,6.4,3.4,8.5,5.9c4.2,14.1,8.2,25.4,9.3,37.6c1.9,22.7-5.2,64-5.2,64l4.1,0.3c0.6-10.8,3.1-53.9,5.7-54
	c2.6-0.1-3.9,43.2-5.5,54l1.5,0.1c2.4-13,8.3-46.5,6.8-59.9c-1.1-9.6-6.7-22.1-11.9-34c-2.2-4.9-4.3-9.7-5.9-14.1
	c-1-2.6-1.8-5.1-2.5-7.4c0.6,2.5,1.3,4.9,1.9,7.3C933.2,707.3,929.8,706.2,926.8,705.1z"/>
<path fill="#FFFFFF" stroke="#000000" stroke-miterlimit="10" d="M916.8,595c-0.1-0.1-0.9-1.1-2.1-2.4
	C915.8,594,916.7,594.8,916.8,595z"/>
<path fill="#FFFFFF" stroke="#000000" stroke-miterlimit="10" d="M907.5,584.4c0.5,0.5,1.8,1.9,3.2,3.5c1.3,1.5,2.9,3.3,4,4.6
	c-1.4-1.8-3.3-4.6-4.6-8l0,0c-2.4-6.1,5.8-48.2,5.9-48.8c-1.1,1.3-7.5,34.5-8.5,45.3c-0.1,0.8-0.1,1.4-0.1,1.9
	C907.3,583.8,907.3,584.3,907.5,584.4z"/>
<path fill="#FFFFFF" stroke="#000000" stroke-miterlimit="10" d="M879.6,517.8c7.8,22.7,22.7,2.7,22.7,2.7s-1,15.5,3.6,18
	c4.3,2.3,5.1-3.2,5.1-3.9c-0.1,1.6-2.3,32.2,16.3,39.4c19.1,7.3,29.3-13.7,29.3-13.7s1,19.2,11.1,19.6c27.1,1.2,24.5-48.6,18.1-63.1
	c-1.5-3.3-3-5.3-4.4-6.4v0c-4.9-3.7-9.2,2.7-9.2,2.7s-0.8-6.7-3.5-15.5c-4.8-15.7-15.5-37.9-38.1-39.4
	C895.4,455.9,871.7,495.1,879.6,517.8z"/>
<path fill="#FFFFFF" stroke="#000000" stroke-miterlimit="10" d="M993.7,557.8c0,0,7,7.4,5.8,22.5c-1.2,15.2-13.5,16.9-16.3,15.9
	c-2.7-1-0.4-30.5-0.4-30.5S984.8,549.9,993.7,557.8z"/>
<path fill="#FFFFFF" stroke="#000000" stroke-miterlimit="10" d="M886,547.4c-4.4-0.6-3.6-12.3-0.4-13.4
	C888.8,532.9,887.2,547.5,886,547.4z"/>
<path fill="#FFFFFF" stroke="#000000" stroke-miterlimit="10" d="M938.1,505.7c0,0-1.7,27.8-10.9,25.4c-9.3-2.4-6.4-36.4-6.4-36.4
	s0.2,17.2-4.8,15.7c-4.9-1.5-4.8-20.7-4.8-20.7s1.6,12.3,4.8,11.2c3.2-1.2,4.6-11.5,4.6-11.5s0.4,31.7,8.2,30.7
	C936.5,518.8,938.1,505.7,938.1,505.7z"/>
<polygon fill="#FFFFFF" stroke="#000000" stroke-miterlimit="10" points="996.4,809.6 996.4,818.3 902.7,818.3 898.4,807.5 
	925,808.1 "/>
<polygon fill="#FFFFFF" stroke="#000000" stroke-miterlimit="10" points="926.2,818.3 902.7,818.3 898.4,807.5 925,808.1 "/>
<path fill="#FFFFFF" stroke="#000000" stroke-miterlimit="10" d="M567.4,338.6c0,0-9.4,10.2,0,40c9.3,29.7,28.8,40.4,34.6,38.4
	c5.8-2.1,5.7-21.7,5.7-21.7s3.2,20.3,9.8,20.3c6.6,0,6-10.9,6-10.9s2.8,29.4,12.9,31.4c10.2,2,13.4-20.7,13.4-20.7
	s2.2,43.5,11.1,44.6c9,1.2,9.4-6.6,9.4-6.6s3,26.5,19.5,28.4c16.4,1.9,86.8-59.4,55.7-147.1C721.2,266.5,567.4,338.6,567.4,338.6z"
	/>
<path fill="#FFFFFF" stroke="#000000" stroke-miterlimit="10" d="M619.9,677l6.3,29.1l21.1,1.8c0,0-4.3-12.3-3.7-18.9
	c0.5-5.5,7.6-17.5,10.8-31.6c0.6-2.8,1.1-5.6,1.4-8.5c0.2-2.2-0.5-6.1-1.8-11.2c0-0.2-0.1-0.3-0.1-0.5c-1.6-6.4-4.2-14.7-7.3-24.2
	c-11.9-36.8-31.2-91.4-32.4-123c-0.2-5.6,0.1-10.5,1.2-14.4c0.7-2.7,1.7-5.4,2.8-7.9l0,0c8.1-18.2,41.6-34.3,67.4-46
	c9.6-4.3,20.4-9.5,21.5-16.2c0-0.1,0-0.1,0-0.2c2.8-18.5-6.3-34-6.3-34l-6.4-7.3l-4.3-4.9c0.2,0.3,1.5,2.1,3.3,5
	c5,8.4,13.6,25.6,9.6,40.8c0,0.1,0,0.1-0.1,0.2c-1.8,6.5-10.9,9.8-20.2,14c-19.9,8.8-41.1,17.8-47.8,20.8c-3.6,1.6-6.5,2.6-8,2.6
	c-7,0,0-53.2,0-53.2l-11.4-41.6c0.2,0.9,5.9,28.8,5.2,47.3c-0.6,18.8,1.6,46.7-3.1,58.8c-4.7,12.1-17.9,29.1-18.1,31.5
	c-0.2,2.4,41.9,136.5,35.2,159.7C628,668,619.9,677,619.9,677z"/>
<path fill="#FFFFFF" stroke="#000000" stroke-miterlimit="10" d="M619.9,677l7.5,34.4l22.4,0.5c0,0-8.9-16.2-8.3-22.8
	c0.5-5.5,7.6-17.5,10.8-31.6c-2,3.2-7.3,10.3-12.3,8c-6.2-2.8,0.5-49.5,0.5-49.5s-36.5-104.6-34-126.5c2.6-21.9,18.6-43.8,28.5-49.8
	c-3.6,1.6-6.5,2.6-8,2.6c-7,0,0-53.2,0-53.2l-11.4-41.6c0.2,0.9,5.9,28.8,5.2,47.3c-0.6,18.8,1.6,46.7-3.1,58.8
	c-4.7,12.1-17.9,29.1-18.1,31.5c-0.2,2.4,41.9,136.5,35.2,159.7C628,668,619.9,677,619.9,677z"/>
<path fill="#FFFFFF" stroke="#000000" stroke-miterlimit="10" d="M646.4,655.8c3.7-0.1,6.4-11.6,7.6-18.1c0-0.2-0.1-0.3-0.1-0.5
	c-1.3,5.4-3,12.4-5.8,11.6c-4-1.1-1.4-35.8-1.4-35.8S641.2,656,646.4,655.8z"/>
<path fill="#FFFFFF" stroke="#000000" stroke-miterlimit="10" d="M629.1,558.5c0,0-2.4,20.8,0.7,31.9c3.1,11.1,3.1,11.1,3.1,11.1
	s-5.1-8.1-5.9-18.3C626.2,573,629.1,558.5,629.1,558.5z"/>
<path fill="#FFFFFF" stroke="#000000" stroke-miterlimit="10" d="M616.7,510.4c0,0-4.5,10.2-2.5,22.1c2,11.9,1.7,7.9,1.7,7.9
	s-4-10.2-4.6-19.2c-0.6-9.1,4.2-17.7,4.2-17.7L616.7,510.4z"/>
<path fill="#FFFFFF" stroke="#000000" stroke-miterlimit="10" d="M606,501.8c0.4-8.9,8.2-11.8,8.2-11.8c-0.2-5.6,0.1-10.5,1.2-14.4
	c0.7-2.7,1.7-5.4,2.8-7.9c0,0-4,3.8-4.9,2.6c-0.9-1.2,2.7-8.3,2.9-8.7l-10.6,18.3L606,501.8z"/>
<path fill="#FFFFFF" stroke="#000000" stroke-miterlimit="10" d="M735.5,457c0,0,2.8,21.2-4.4,21.2
	C723.9,478.2,731.2,452.7,735.5,457z"/>
<path fill="#FFFFFF" stroke="#000000" stroke-miterlimit="10" d="M666.7,466.6c0,0,1.2,17.1-4.1,17.7
	C657.4,484.9,660.2,462.7,666.7,466.6z"/>
<path fill="#FFFFFF" stroke="#000000" stroke-miterlimit="10" d="M675.1,424.5c7.5-2.1,19.4,9.3,28.2,16c3.3,2.5,6.2,4.3,8.2,4.5
	c6.6,0.6,33.2,2.5,39,2.9c0.7,0.1,1.1,0.1,1.1,0.1l-1.1-1.6l-0.8-1.1c0,0-30.4-2.5-36.8-3.5c-2.3-0.4-6.6-3.3-11.3-6.8
	c-8.2-6.3-17.3-14.6-17.3-14.6S664.8,427.4,675.1,424.5z"/>
<path fill="#FFFFFF" stroke="#000000" stroke-miterlimit="10" d="M703.1,404.8l4,0.4c2.8-18.5-6.3-34-6.3-34l-6.4-7.3l-1,0.1
	C698.5,372.4,707.1,389.6,703.1,404.8z"/>
<path fill="#FFFFFF" stroke="#000000" stroke-miterlimit="10" d="M728.5,377.9c28.8-1,25.1-125.4-78.7-128.1
	c-103.8-2.7-98.3,113.8-94.6,113.9s5.9-6.3,5.9-6.3s3,16.3,12.5,14.6s14.8-29.7,14.8-29.7s9.1,21.2,17.7,19.7
	c8.6-1.5,6.4-16.4,6.4-16.4s5,21.8,11.8,19.2c6.8-2.6,5.9-9.9,5.9-9.9s0.5,34.1,23.2,31.7c22.8-2.4,17.9-39.9,17.9-39.9
	s-7.2,36.3,13.4,36.7c20.7,0.3,26.8-23.3,26.8-23.3S713.6,378.4,728.5,377.9z"/>
<path fill="#FFFFFF" stroke="#000000" stroke-miterlimit="10" d="M711.8,313.7c0,0,3.8,53.1-13.3,65.5c-17.1,12.3-24,7.4-24,7.4
	s25.9,14.8,36.1-15.8C720.9,340.2,711.8,313.7,711.8,313.7z"/>
<path fill="#FFFFFF" stroke="#000000" stroke-miterlimit="10" d="M648.4,386.4c-18.7-3.6-18.9-47.6-18.9-47.6
	S617.2,381.1,648.4,386.4z"/>
<path fill="#FFFFFF" stroke="#000000" stroke-miterlimit="10" d="M574.8,371.6c-11.5,0.3-11.6-35.1-11.6-35.1s-4.5,18,1.5,32
	C570.6,382.5,574.8,371.6,574.8,371.6z"/>
<path fill="#FFFFFF" stroke="#000000" stroke-miterlimit="10" d="M701.6,435l1.7,5.5c3.3,2.5,6.2,4.3,8.2,4.5
	c6.6,0.6,33.2,2.5,39,2.9l0-1.5l-0.8-1.1c0,0-30.4-2.5-36.8-3.5C710.6,441.4,706.2,438.5,701.6,435z"/>
<path fill="#FFFFFF" stroke="#000000" stroke-miterlimit="10" d="M791.9,484.1c9.2,1.9,16.4-4.3,16.4-4.3s14.2,13.8,30.2-5
	c3.6-4.2,5.6-8.1,8.9-15.3c-1.6,3.2-3.7,5.9-6.3,7.9c-21.5,16.3-30.2,5-30.2,5s-7.1,6.2-16.4,4.3c-3.7-0.7-3.6-7.5-2.8-11.2
	C786.1,474.6,785.8,482.8,791.9,484.1z"/>
<path fill="#FFFFFF" stroke="#000000" stroke-miterlimit="10" d="M777.1,474.1c5.7,1.2,11.7-4.5,14.7-7.9c1.5-4.7,4.2-9.3,4.4-9.7
	c-0.4,0.6-8.8,11.9-16.5,10.2c-2.8-0.6-3.5-2.8-3.1-5.4C774.3,465.8,771.7,472.9,777.1,474.1z"/>
<path fill="#FFFFFF" stroke="#000000" stroke-miterlimit="10" d="M715.5,422.7c3.7,4.3,8.8-4.1,8.8-4.1s3.2,17.3,8,19.1
	c4.8,1.7,8.3-9.9,8.4-10.3c-0.2,0.9-10.4,50.6,7.9,54.3c13.5,2.7,24.3-15,27.9-20.5c0.3-2.6,1.7-5.5,2.8-7.7
	c-3.5,5.4-12.1,15.7-26,12.9c-18.3-3.7-10.2-45.6-10-46.5c-0.1,0.4-3.7,12.1-8.4,10.3c-4.9-1.8-8-19.1-8-19.1s-5.1,8.4-8.8,4.1
	c-2.4-2.7-2.8-9-1.5-15C712.7,407.4,712.1,418.7,715.5,422.7z"/>
<path fill="#FFFFFF" stroke="#000000" stroke-miterlimit="10" d="M715,414.4c3.7,4.3,11.8-3.2,11.8-3.2s-0.9,22.4,3.9,24.2
	c4.8,1.7,12.4-15,12.5-15.4c-0.2,0.9-8.2,42.8,10,46.5c13.8,2.8,22.5-7.5,26-12.9c-1.1,2.2-2.4,5.1-2.8,7.7c0.1-0.1,0.1-0.2,0.2-0.3
	c-0.1,0.1-0.1,0.3-0.2,0.4c-0.3,2.6,0.3,4.7,3.1,5.4c7.8,1.7,16.1-9.6,16.5-10.2c-0.2,0.4-2.9,5-4.4,9.7c1.1-1.2,1.7-2.1,1.9-2.3
	c-0.1,0.2-1.3,2.2-2.6,4.9c-0.8,3.7-0.3,7.1,3.4,7.8c9.2,1.9,16.4-4.3,16.4-4.3s12.5,18,30.9-3.5c2.2-2.5,4-6.2,5.6-9.4
	c5.9-25.4-9.9-68.6-47.2-80.8c-46.9-15.3-77.9,13.2-82.6,20c-0.4,0.5-0.7,1.1-1,1.7C712.2,407.2,712.7,411.7,715,414.4z"/>
<path fill="#FFFFFF" stroke="#000000" stroke-miterlimit="10" d="M801.1,476.8c12.4-4.1,16.4-33,16.4-33s0.1,31.2-12.8,35.8
	C791.9,484.1,801.1,476.8,801.1,476.8z"/>
<path fill="#FFFFFF" stroke="#000000" stroke-miterlimit="10" d="M765.6,468.8c0,0,5.4,4.8,14.4-13c4.9-9.7,10.3-29.3,10.3-29.3
	s-10.5,36.2-25.6,39.9C749.6,470.2,765.6,468.8,765.6,468.8z"/>
<polygon fill="#FFFFFF" stroke="#000000" stroke-miterlimit="10" points="691.9,712.8 691.9,724.2 568,724.2 562.3,710 597.4,710.7 
	"/>
<path fill="#FFFFFF" stroke="#000000" stroke-miterlimit="10" d="M174.1,267.5h-28.9c5,0.9,8.6,3.3,8.6,6.2c0,2.9-3.8,5.4-9,6.2
	l-2.4,501.5l-5.6-51.8V279.9c-5.1-0.8-8.8-3.3-8.8-6.2c0-2.8,3.6-5.3,8.5-6.2H108l-18.8-26.7h22.1c-9.3-8.2-15.1-20.3-15.1-33.7
	c0-24.8,20.1-45,45-45c24.9,0,45,20.1,45,45c0,13.4-5.9,25.4-15.1,33.7h21.9L174.1,267.5z"/>
<polygon fill="#FFFFFF" stroke="#000000" stroke-miterlimit="10" points="144.5,823.6 130.4,823.6 130.4,262.6 138.2,262.6 
	138.2,267.4 138.2,267.5 138.3,279.9 143.5,729.6 144.5,820.4 "/>
<polygon fill="#FFFFFF" stroke="#000000" stroke-miterlimit="10" points="81.2,833.1 96.1,820.4 187.8,820.4 198,827.8 "/>
<path fill="#FFFFFF" stroke="#000000" stroke-miterlimit="10" d="M57.7,829.4c0,0-9.6,17.1-8.5,17.1c1.1,0,183.4-2.1,183.4-2.1
	l-6.9-17.6L57.7,829.4z"/>
<path fill="#FFFFFF" stroke="#000000" stroke-miterlimit="10" d="M179.5,207.2c0,13.4-5.9,25.4-15.1,33.7
	c-7.9,7.1-18.4,11.3-29.8,11.3c-11.5,0-21.9-4.3-29.8-11.3c-9.3-8.2-15.1-20.3-15.1-33.7c0-24.8,20.1-45,45-45
	C159.4,162.2,179.5,182.3,179.5,207.2z"/>
<polygon fill="#FFFFFF" stroke="#000000" stroke-miterlimit="10" points="186.2,240.8 167.7,267.5 101.5,267.5 82.6,240.8 "/>
<path fill="#FFFFFF" stroke="#000000" stroke-miterlimit="10" d="M147.3,273.7c0,2.9-3.8,5.4-9,6.2c-1.3,0.2-2.6,0.3-3.9,0.3
	c-1.4,0-2.8-0.1-4-0.3c-5.1-0.8-8.8-3.3-8.8-6.2c0-2.8,3.6-5.3,8.5-6.2c0.1,0,0.2,0,0.3-0.1c1.3-0.2,2.6-0.3,4-0.3
	c1.3,0,2.6,0.1,3.8,0.3c0.2,0,0.4,0.1,0.5,0.1C143.7,268.4,147.3,270.9,147.3,273.7z"/>
<path fill="#FFFFFF" stroke="#000000" stroke-miterlimit="10" d="M144.6,273.2c0,1.8-1.9,3.4-4.7,4.3l-0.5-1.1
	c1.1-1.7,1.4-2.1,1.4-3.4c0-1.3-0.7-2.5-1.6-3.2c0.3-0.3,0.6-0.6,0.9-0.9C142.8,269.9,144.6,271.4,144.6,273.2z"/>
<polygon fill="#FFFFFF" stroke="#000000" stroke-miterlimit="10" points="155.3,261.6 161.8,243.6 174,243.6 160.5,261.6 "/>
<polygon fill="#FFFFFF" stroke="#000000" stroke-miterlimit="10" points="158,822.5 159,828.9 192.2,827.3 186.8,822.5 "/>
<polygon fill="#FFFFFF" stroke="#000000" stroke-miterlimit="10" points="186.8,832.1 191,843.3 227.8,843.3 221.4,829.9 "/>
<path fill="#FFFFFF" stroke="#000000" stroke-miterlimit="10" d="M861,248.9H830c5.3,1,9.2,3.6,9.2,6.6c0,3.1-4,5.7-9.6,6.6
	L827.1,798l-6-55.3V262.1c-5.5-0.9-9.4-3.5-9.4-6.6c0-3,3.8-5.6,9.1-6.6h-30.5l-20.1-28.5h23.6c-9.9-8.8-16.2-21.7-16.2-36
	c0-26.5,21.5-48,48-48c26.6,0,48.1,21.5,48.1,48c0,14.3-6.3,27.2-16.2,36h23.4L861,248.9z"/>
<polygon fill="#FFFFFF" stroke="#000000" stroke-miterlimit="10" points="829.3,843.1 814.2,843.1 814.2,243.7 822.5,243.7 
	822.6,248.8 822.6,248.9 822.7,262.1 828.2,742.7 829.3,839.7 "/>
<polygon fill="#FFFFFF" stroke="#000000" stroke-miterlimit="10" points="761.6,853.4 777.6,839.7 875.6,839.7 886.4,847.7 "/>
<path fill="#FFFFFF" stroke="#000000" stroke-miterlimit="10" d="M736.6,849.4c0,0-10.3,18.2-9.1,18.2c1.1,0,196-2.3,196-2.3
	l-7.4-18.8L736.6,849.4z"/>
<path fill="#FFFFFF" stroke="#000000" stroke-miterlimit="10" d="M866.7,184.4c0,14.3-6.3,27.2-16.2,36
	c-8.5,7.5-19.6,12.1-31.9,12.1c-12.2,0-23.4-4.6-31.9-12.1c-9.9-8.8-16.2-21.7-16.2-36c0-26.5,21.5-48,48-48
	C845.2,136.3,866.7,157.8,866.7,184.4z"/>
<polygon fill="#FFFFFF" stroke="#000000" stroke-miterlimit="10" points="873.9,220.3 854,248.9 783.3,248.9 763.2,220.3 "/>
<path fill="#FFFFFF" stroke="#000000" stroke-miterlimit="10" d="M832.3,255.5c0,3.1-4,5.7-9.6,6.6c-1.3,0.2-2.8,0.3-4.2,0.3
	c-1.5,0-3-0.1-4.3-0.3c-5.5-0.9-9.4-3.5-9.4-6.6c0-3,3.8-5.6,9.1-6.6c0.1,0,0.2,0,0.3-0.1c1.3-0.2,2.8-0.3,4.3-0.3
	c1.4,0,2.8,0.1,4.1,0.3c0.2,0,0.4,0.1,0.6,0.1C828.4,249.9,832.3,252.4,832.3,255.5z"/>
<path fill="#FFFFFF" stroke="#000000" stroke-miterlimit="10" d="M829.4,255c0,1.9-2,3.7-5,4.6l-0.5-1.2c1.2-1.8,1.5-2.3,1.5-3.6
	c0-1.4-0.7-2.7-1.7-3.4c0.3-0.3,0.6-0.7,1-1C827.5,251.4,829.4,253.1,829.4,255z"/>
<polygon fill="#FFFFFF" stroke="#000000" stroke-miterlimit="10" points="840.9,242.6 847.7,223.3 860.8,223.3 846.4,242.6 "/>
<polygon fill="#FFFFFF" stroke="#000000" stroke-miterlimit="10" points="843.7,842 844.8,848.8 880.3,847.1 874.5,842 "/>
<polygon fill="#FFFFFF" stroke="#000000" stroke-miterlimit="10" points="874.5,852.2 879,864.2 918.3,864.2 911.5,849.9 "/>
<polygon fill="#FFFFFF" stroke="#000000" stroke-miterlimit="10" points="576.4,942.5 243.8,942.5 311.6,925.6 311.6,913.6 
	547.3,914.7 548.6,924 554.8,928.6 564,930.2 556.3,930.2 568.7,939.4 581,941 581,942.5 "/>
<polygon fill="#FFFFFF" stroke="#000000" stroke-miterlimit="10" points="643,891.5 640.3,891.5 627.2,846 626,842.6 627.2,832.6 
	"/>
<path fill="#FFFFFF" stroke="#000000" stroke-miterlimit="10" d="M584.7,764.3l0.1,4.7c-1.4-3.7-2.6-6.3-2.6-6.3v-7.5l-238.3-29.8
	l49,1.6h0.1l191.2,6.3l0.1,4.7v0.5l0.2,15.3l0,0.2v1.2l0.1,7.5L584.7,764.3z"/>
<polygon fill="#FFFFFF" stroke="#000000" stroke-miterlimit="10" points="626.7,830.7 627.5,830.7 627.2,832.6 "/>
<path fill="#FFFFFF" stroke="#000000" stroke-miterlimit="10" d="M657.1,820.5l-3.1,11.1l-26.6-1l1.3-10.2l-8,6.1l-0.6-1.9l-0.4-1.1
	l-0.2-0.7l-1.6-4.7l-32.4-2.2v-0.3l0-0.6l-0.1-3.5l-3.3,2.8v-20.3l3-0.6l0-2.1v-0.2l-0.2-14.7l0-1.7l-0.1-5.7
	c3.5,9.2,8.4,25.4-0.6,25.6v14.8h30L657.1,820.5z"/>
<polygon fill="#FFFFFF" stroke="#000000" stroke-miterlimit="10" points="347.3,754 350.6,811.7 353.9,811.7 353.9,754 "/>
<polygon fill="#FFFFFF" stroke="#000000" stroke-miterlimit="10" points="584.5,754 584.5,811.7 581.1,811.7 581,809.5 580.2,794.7 
	580.1,793.5 580,791.3 580,791.2 579.1,776.4 579,774.8 578.4,764.3 578.3,762.8 577.9,755.3 577.9,755 577.8,754 "/>
<polygon fill="#FFFFFF" stroke="#000000" stroke-miterlimit="10" points="308.7,830.5 295.2,891.5 302,891.5 316.9,830.5 326.3,821 
	318.2,875.2 323.6,875.2 334.5,818.3 "/>
<polygon fill="#FFFFFF" stroke="#000000" stroke-miterlimit="10" points="601.1,818.3 609.4,822.3 609.6,823.3 609.6,823.9 
	609.8,824.8 610.8,831.6 612.4,842.5 613,846 617.3,875.2 611.9,875.2 606.4,846 605.7,842.4 603.6,831.6 602.3,824.9 602.2,824.1 
	602.1,823.5 "/>
<polygon fill="#FFFFFF" stroke="#000000" stroke-miterlimit="10" points="609.2,821 611.4,823.2 609.4,822.3 "/>
<polygon fill="#FFFFFF" stroke="#000000" stroke-miterlimit="10" points="640.4,891.5 633.6,891.5 622.5,846 621.6,842.5 619,831.6 
	618.7,830.5 613,824.8 612,823.8 611.4,823.2 611.4,823.2 611.4,823.2 612.7,823.8 614.8,824.8 618.7,826.7 626.8,830.5 
	627.1,831.6 "/>
<polygon fill="#FFFFFF" stroke="#000000" stroke-miterlimit="10" points="653.2,822.8 652.1,831.6 285.2,831.6 284.1,822.8 
	322.9,809.5 612.2,809.5 "/>
<path fill="#FFFFFF" stroke="#000000" stroke-miterlimit="10" d="M605.5,727.4v27.7h-0.9c0,0,0,0-0.1,0l-20.1,0.1h-2l-4.6,0
	l-254.5,1h-0.4l-2.2-30.8l0-0.2l21.1,0.2L605.5,727.4z"/>
<polygon fill="#FFFFFF" stroke="#000000" stroke-miterlimit="10" points="309.6,846 628.8,846 628.8,842.6 309.6,840.3 "/>
<path fill="#FFFFFF" stroke="#000000" stroke-miterlimit="10" d="M653.2,822.8l-1.1,8.9H285.2l-1.1-8.9c0,0,88.7,4.4,194,3.3
	c20.8-0.2,40.2-0.5,58-0.8c0,0,0.2,0,0.6,0c0.2,0,0.5,0,0.9,0c25.2-0.4,47-0.8,64.6-1.2c2.6,0,5-0.1,7.5-0.2c0.8,0,1.6,0,2.4-0.1
	h0.7c1.7-0.1,3.4-0.1,5-0.1C640.5,823.2,653.2,822.8,653.2,822.8z"/>
<path fill="#FFFFFF" stroke="#000000" stroke-miterlimit="10" d="M460.3,727.4c0,0-134.1-1.1-136.3,0c-2.2,1.1-1.1,10-1.1,10
	l135.6,2l-135.6,0.2c0,0-0.3,5.9,2.2,13.3c2.2,2.2,276,2.2,278.2,0c2.2-2.2,1.1-14.4,1.1-14.4h-41l41-1.1c0,0,0-7.8-1.1-8.9
	C602.2,727.4,460.3,727.4,460.3,727.4z"/>
<polygon fill="#FFFFFF" stroke="#000000" stroke-miterlimit="10" points="606.6,762.5 606.6,762.7 604.5,793.6 604.4,793.6 
	584.5,793.5 580.1,793.5 322,793.2 321.8,793.2 321.8,792.9 321.8,765.5 578.3,762.8 582.6,762.8 584.5,762.8 "/>
<path fill="#FFFFFF" stroke="#000000" stroke-miterlimit="10" d="M652.1,831.6c0,0,0.1-7.1-1-7.1c-0.4,0-14.7,0.1-33,0.2
	c-1.1,0-2.2,0-3.3,0c-0.6,0-1.2,0-1.8,0c-1.1,0-2.1,0-3.2,0c-2.4,0-4.9,0-7.4,0c-28.9,0.2-60.9,0.4-65.7,0.4c0.2,0,0.5,0,0.9,0
	c7.1-0.2,38-1,64.5-1.8c2.5-0.1,5-0.2,7.5-0.2c0.6,0,1.2-0.1,1.8-0.1l0,0c2.1-0.1,4.1-0.1,6-0.2c14.6-0.5,25.4-1,25.7-1.4
	c0.3-0.3-2.6-1.7-6.9-3.3c-1.8-0.7-3.8-1.5-5.9-2.2c-0.2-0.1-0.3-0.1-0.5-0.2c-1-0.4-1.6-1.1-1.6-1.1l26.7,5.7L652.1,831.6z"/>
<path fill="#FFFFFF" stroke="#000000" stroke-miterlimit="10" d="M322.9,809.5c0,0-32.1,11.1-31,12.2c1.1,1.1,61.2,3.5,61.2,3.5
	l-69-2.4L322.9,809.5z"/>
<polygon fill="#FFFFFF" stroke="#000000" stroke-miterlimit="10" points="311.4,813.5 607.7,816.1 307.8,814.8 "/>
<path fill="#FFFFFF" stroke="#000000" stroke-miterlimit="10" d="M304.4,815.8c-0.3,0.3,52.9-0.8,52.9-0.8h-49.9L304.4,815.8z"/>
<polygon fill="#FFFFFF" stroke="#000000" stroke-miterlimit="10" points="545.6,815.6 628.4,814.8 632.1,816.1 "/>
<polygon fill="#FFFFFF" stroke="#000000" stroke-miterlimit="10" points="584.5,816.1 636.6,818.3 631.5,815.9 "/>
<polygon fill="#FFFFFF" stroke="#000000" stroke-miterlimit="10" points="604.6,755.2 584.5,755.2 582.5,755.2 577.9,755.3 
	323.3,756.3 324.7,753.6 338.1,753.7 338.4,753.7 498.3,754.6 499.4,754.6 577.9,755 582.5,755 584.5,755 "/>
<path fill="#FFFFFF" stroke="#000000" stroke-miterlimit="10" d="M604.4,792.1v2c0,0-7.4,0.2-20,0.5c-0.4,0-0.9,0-1.3,0
	c-1,0-1.9,0-3,0.1c-27,0.6-72.9,1.4-119.7,1.4c-73,0-137.9-2-137.9-2l-0.6-0.9l-0.2-0.3l26.4-0.8l5.6-0.2h0.1l134.9-3.9l44.6,1.6
	l45.6,1.6l0.9,0l3.1,0.1l1.4,0L604.4,792.1z"/>
<path fill="#FFFFFF" stroke="#000000" stroke-miterlimit="10" d="M466.9,765.1c0,0,134.1-1.5,136.3-0.4c2.2,1.1,1.1,10,1.1,10
	l-90.9,0.3l90.9,2c0,0,0,11.1-2.2,13.3c-2.2,2.2-276,3-278.2,0.8c-2.2-2.2-1.1-14.4-1.1-14.4l41-0.1l-41-1c0,0,0-7.8,1.1-8.9
	C325.1,765.5,466.9,765.1,466.9,765.1z"/>
<polygon fill="#FFFFFF" stroke="#000000" stroke-miterlimit="10" points="322.6,775.9 533.5,784 533.5,792.3 322.6,792.1 "/>
<polygon fill="#FFFFFF" stroke="#000000" stroke-miterlimit="10" points="595.5,616 594.5,616 589.7,599.4 589.3,598.1 589.8,594.5 
	"/>
<path fill="#FFFFFF" stroke="#000000" stroke-miterlimit="10" d="M574.2,569.5l0,1.7c-0.5-1.3-1-2.3-1-2.3v-2.8l-87.2-10.9l17.9,0.6
	h0l70,2.3l0,1.7v0.2l0.1,5.6l0,0.1v0.4l0,2.8L574.2,569.5z"/>
<polygon fill="#FFFFFF" stroke="#000000" stroke-miterlimit="10" points="589.6,593.8 589.8,593.8 589.8,594.5 "/>
<path fill="#FFFFFF" stroke="#000000" stroke-miterlimit="10" d="M600.7,590.1l-1.1,4.1l-9.7-0.3l0.5-3.7l-2.9,2.2l-0.2-0.7
	l-0.1-0.4l-0.1-0.3l-0.6-1.7l-11.9-0.8v-0.1l0-0.2l0-1.3l-1.2,1v-7.4l1.1-0.2l0-0.8v-0.1l-0.1-5.4l0-0.6l0-2.1
	c1.3,3.4,3.1,9.3-0.2,9.4v5.4h11L600.7,590.1z"/>
<polygon fill="#FFFFFF" stroke="#000000" stroke-miterlimit="10" points="487.3,565.7 488.5,586.8 489.8,586.8 489.8,565.7 "/>
<polygon fill="#FFFFFF" stroke="#000000" stroke-miterlimit="10" points="574.1,565.7 574.1,586.8 572.9,586.8 572.8,586 
	572.5,580.6 572.5,580.2 572.5,579.4 572.5,579.3 572.1,573.9 572.1,573.3 571.9,569.5 571.9,568.9 571.7,566.2 571.7,566.1 
	571.7,565.7 "/>
<polygon fill="#FFFFFF" stroke="#000000" stroke-miterlimit="10" points="473.2,593.7 468.3,616 470.7,616 476.2,593.7 479.7,590.2 
	476.7,610.1 478.7,610.1 482.6,589.3 "/>
<polygon fill="#FFFFFF" stroke="#000000" stroke-miterlimit="10" points="580.2,589.3 583.2,590.7 583.3,591.1 583.3,591.3 
	583.4,591.6 583.7,594.1 584.3,598.1 584.5,599.4 586.1,610.1 584.1,610.1 582.1,599.4 581.9,598.1 581.1,594.1 580.6,591.6 
	580.6,591.4 580.6,591.2 "/>
<polygon fill="#FFFFFF" stroke="#000000" stroke-miterlimit="10" points="583.2,590.2 583.9,591 583.2,590.7 "/>
<polygon fill="#FFFFFF" stroke="#000000" stroke-miterlimit="10" points="594.6,616 592.1,616 588,599.4 587.7,598.1 586.7,594.1 
	586.6,593.7 584.5,591.6 584.2,591.3 584,591 583.9,591 584,591 584.4,591.3 585.2,591.6 586.6,592.3 589.6,593.7 589.7,594.1 "/>
<polygon fill="#FFFFFF" stroke="#000000" stroke-miterlimit="10" points="599.2,590.9 598.8,594.1 464.6,594.1 464.2,590.9 
	478.4,586 584.2,586 "/>
<path fill="#FFFFFF" stroke="#000000" stroke-miterlimit="10" d="M581.8,556v10.1h-0.3c0,0,0,0,0,0l-7.4,0h-0.7l-1.7,0l-93.1,0.4
	h-0.2l-0.8-11.3l0-0.1l7.7,0.1L581.8,556z"/>
<polygon fill="#FFFFFF" stroke="#000000" stroke-miterlimit="10" points="473.5,599.4 590.3,599.4 590.3,598.1 473.5,597.3 "/>
<path fill="#FFFFFF" stroke="#000000" stroke-miterlimit="10" d="M599.2,590.9l-0.4,3.2H464.6l-0.4-3.2c0,0,32.4,1.6,71,1.2
	c7.6-0.1,14.7-0.2,21.2-0.3c0,0,0.1,0,0.2,0c0.1,0,0.2,0,0.3,0c9.2-0.1,17.2-0.3,23.6-0.5c0.9,0,1.8,0,2.7-0.1c0.3,0,0.6,0,0.9,0
	h0.3c0.6,0,1.2,0,1.8,0C594.6,591,599.2,590.9,599.2,590.9z"/>
<path fill="#FFFFFF" stroke="#000000" stroke-miterlimit="10" d="M528.7,556c0,0-49.1-0.4-49.9,0c-0.8,0.4-0.4,3.6-0.4,3.6l49.6,0.7
	l-49.6,0.1c0,0-0.1,2.1,0.8,4.9c0.8,0.8,101,0.8,101.8,0c0.8-0.8,0.4-5.3,0.4-5.3h-15l15-0.4c0,0,0-2.8-0.4-3.2S528.7,556,528.7,556
	z"/>
<polygon fill="#FFFFFF" stroke="#000000" stroke-miterlimit="10" points="582.2,568.8 582.2,568.9 581.4,580.2 581.4,580.2 
	574.1,580.2 572.5,580.2 478.1,580.1 478,580.1 478,580 478,569.9 571.9,568.9 573.4,568.9 574.1,568.9 "/>
<path fill="#FFFFFF" stroke="#000000" stroke-miterlimit="10" d="M598.8,594.1c0,0,0-2.6-0.4-2.6c-0.1,0-5.4,0-12.1,0.1
	c-0.4,0-0.8,0-1.2,0c-0.2,0-0.4,0-0.7,0c-0.4,0-0.8,0-1.2,0c-0.9,0-1.8,0-2.7,0c-10.6,0.1-22.3,0.1-24,0.2c0.1,0,0.2,0,0.3,0
	c2.6-0.1,13.9-0.3,23.6-0.7c0.9,0,1.8-0.1,2.7-0.1c0.2,0,0.5,0,0.7,0l0,0c0.8,0,1.5,0,2.2-0.1c5.3-0.2,9.3-0.4,9.4-0.5
	c0.1-0.1-1-0.6-2.5-1.2c-0.7-0.3-1.4-0.5-2.2-0.8c-0.1,0-0.1,0-0.2-0.1c-0.4-0.1-0.6-0.4-0.6-0.4l9.8,2.1L598.8,594.1z"/>
<path fill="#FFFFFF" stroke="#000000" stroke-miterlimit="10" d="M478.4,586c0,0-11.8,4.1-11.4,4.5c0.4,0.4,22.4,1.3,22.4,1.3
	l-25.2-0.9L478.4,586z"/>
<polygon fill="#FFFFFF" stroke="#000000" stroke-miterlimit="10" points="474.2,587.5 582.6,588.4 472.9,588 "/>
<path fill="#FFFFFF" stroke="#000000" stroke-miterlimit="10" d="M471.6,588.3c-0.1,0.1,19.3-0.3,19.3-0.3h-18.2L471.6,588.3z"/>
<polygon fill="#FFFFFF" stroke="#000000" stroke-miterlimit="10" points="559.9,588.2 590.2,588 591.5,588.4 "/>
<polygon fill="#FFFFFF" stroke="#000000" stroke-miterlimit="10" points="574.1,588.4 593.2,589.3 591.3,588.4 "/>
<polygon fill="#FFFFFF" stroke="#000000" stroke-miterlimit="10" points="581.5,566.1 574.1,566.2 573.4,566.2 571.7,566.2 
	478.6,566.5 479.1,565.6 484,565.6 484.1,565.6 542.6,565.9 543,565.9 571.7,566.1 573.4,566.1 574.1,566.1 "/>
<path fill="#FFFFFF" stroke="#000000" stroke-miterlimit="10" d="M581.4,579.7v0.7c0,0-2.7,0.1-7.3,0.2c-0.2,0-0.3,0-0.5,0
	c-0.3,0-0.7,0-1.1,0c-9.9,0.2-26.7,0.5-43.8,0.5c-26.7,0-50.4-0.7-50.4-0.7l-0.2-0.3L478,580l9.7-0.3l2-0.1h0l49.4-1.4l16.3,0.6
	l16.7,0.6l0.3,0l1.1,0l0.5,0L581.4,579.7z"/>
<path fill="#FFFFFF" stroke="#000000" stroke-miterlimit="10" d="M531.1,569.8c0,0,49.1-0.5,49.9-0.1c0.8,0.4,0.4,3.6,0.4,3.6
	l-33.2,0.1l33.3,0.7c0,0,0,4.1-0.8,4.9c-0.8,0.8-101,1.1-101.8,0.3c-0.8-0.8-0.4-5.3-0.4-5.3l15,0l-15-0.4c0,0,0-2.8,0.4-3.2
	C479.2,569.9,531.1,569.8,531.1,569.8z"/>
<polygon fill="#FFFFFF" stroke="#000000" stroke-miterlimit="10" points="478.3,573.7 555.5,576.7 555.5,579.7 478.3,579.7 "/>
</svg>
