<?xml version="1.0" encoding="utf-8"?>
<!-- Generator: Adobe Illustrator 25.2.0, SVG Export Plug-In . SVG Version: 6.00 Build 0)  -->
<svg version="1.1" baseProfile="tiny" id="Layer_1" xmlns="http://www.w3.org/2000/svg" xmlns:xlink="http://www.w3.org/1999/xlink"
	 x="0px" y="0px" viewBox="0 0 1000 1000" overflow="visible" xml:space="preserve">
<path fill="#FFFFFF" stroke="#000000" stroke-miterlimit="10" d="M486.59,44.67c-9.98,16.12-17.74,42.84-23.56,70.69v0.01
	c-29.1,10.78-42,26.16-48.67,29.07c-7.61,3.33-19.01-1.9-26.62-5.22c-4-1.75-13.41,2.69-22.67,7.43
	C402.32,94.46,462.44,46.63,486.59,44.67z"/>
<path fill="#FFFFFF" stroke="#000000" stroke-miterlimit="10" d="M463.03,115.37c-0.2,1-0.41,1.99-0.61,2.99
	c-20.12,3.21-45,32.86-54.72,32.86c-10.33,0-29.22,1.78-35.52,7.12c-4.37,3.71-13.03,4.53-17.92,4.69
	c3.31-5.48,6.94-10.94,10.8-16.37c0-0.01,0-0.01,0.01-0.01c9.26-4.74,18.67-9.18,22.67-7.43c7.61,3.32,19.01,8.55,26.62,5.22
	C421.03,141.53,433.93,126.15,463.03,115.37z"/>
<path fill="#FFFFFF" stroke="#000000" stroke-miterlimit="10" d="M448.81,220.84c2.48,4.99,5.34,9.61,8.53,13.88
	c-7.01,10.03-24.1,33.3-39.88,51.98c-7.69,6.97-17.69,16.53-27.12,26.27c-9.86,10.2-19.12,20.61-24.46,28.46
	c-9.4,13.82-32.3,47.5-40.76,59.93c-2.01,2.96-3.2,4.71-3.2,4.71s-7.6,14.15-13.31,10.99c-5.7-3.15-28.75-23.59-28.75-23.59
	c3.33-4.27,14.26-19.48,27.57-61.78c9.06-28.81,9.3-60.48,18.31-97.57c4.77-1.91,11.41-4.96,18.76-9.48
	c14.49-8.91,20.07-27.09,27.68-33.83c7.6-6.75,43.36-16.78,53.7-27.78c-13.19,7.54-29.94,11-43.48,13.14
	c-13.55,2.14-18.54,14.25-29.94,28.51c-7.61,9.51-16.98,12.52-22.36,13.46c2.19-7.19,4.77-14.58,7.85-22.18
	c8.31-0.88,20.57-12.31,27.34-19.44c6.77-7.13,12.47-7.13,20.67-9.62c8.2-2.5,29.58-2.5,36.48-11.05
	c5.95-7.39,28.4-26.75,39.45-34.87C452.75,167,448.81,214.35,448.81,220.84z"/>
<path fill="#FFFFFF" stroke="#000000" stroke-miterlimit="10" d="M430.04,671.49c0,0,1.13-29.65-7.72-48.9c0,0-0.01-0.01-0.02-0.03
	c-2.19-4.8-5.02-8.95-8.64-11.82c-9.89-12.47-26.1-29.54-36.9-23.62c-16.47,9.03-19.12,35.05-20.53,40.93
	c-2.63,11,24.85,34.61,57.65,53.9c-33.74-7.13-60.36-34.22-66.53-42.77c-6.18-8.56-4.28-12.36,2.85-26.62
	c7.13-14.25,6.18-39.44-2.38-58.93c-4-9.11-11.32-21.02-19.83-34.09c5.11,0.77,16.48,2.59,24.26,3.84
	c6.57,18.93,16.11,38.98,25.75,45.46c14.5,9.74,37.31,0.48,42.77,1.9c5.47,1.43,8.79,9.51,17.82,39.92
	C447.62,641.08,430.04,671.49,430.04,671.49z"/>
<path fill="#FFFFFF" stroke="#000000" stroke-miterlimit="10" d="M346.02,502.29c-2.87-0.84-5.56-1.83-6.99-2.84
	c-4.04-2.85-22.57-27.09-29.23-30.89c-5.07-2.9-16.21-10.61-21.22-14.11c-10.07-26.93-11.4-57.53-8.72-60.98
	c0,0,23.05,20.44,28.75,23.59c5.71,3.16,13.31-10.99,13.31-10.99s1.19-1.75,3.2-4.71c3.43,5.81,9.45,16.82,11.77,26.09
	c3.33,13.31,3.8,48.95,8.08,70.1C345.27,499.04,345.62,500.62,346.02,502.29z"/>
<path fill="#FFFFFF" stroke="#000000" stroke-miterlimit="10" d="M347.07,506.48c-13.12-1.56-16.6-10.6-21.58-15.82
	c-3.45-3.6-13.22-4.32-19.46-4.38c-2.94-4.52-5.83-9.02-8.58-13.44c-3.51-5.63-6.44-11.9-8.87-18.39
	c5.01,3.5,16.15,11.21,21.22,14.11c6.66,3.8,25.19,28.04,29.23,30.89c1.43,1.01,4.12,2,6.99,2.84v0.01
	C346.34,503.64,346.7,505.04,347.07,506.48z"/>
<path fill="#FFFFFF" stroke="#000000" stroke-miterlimit="10" d="M348.66,512.17c-2.66-0.39-6.03-0.97-10.11-1.79
	c-6.63-1.34-14.2-2.51-18.67-3.16v-0.01c-4.58-6.88-9.28-13.93-13.85-20.93c6.24,0.06,16.01,0.78,19.46,4.38
	c4.98,5.22,8.46,14.26,21.58,15.82C347.56,508.32,348.09,510.22,348.66,512.17z"/>
<path fill="#FFFFFF" stroke="#000000" stroke-miterlimit="10" d="M350.71,518.78c-8.21-0.87-19.15-2.93-26.1-4.39
	c-1.55-2.37-3.14-4.75-4.73-7.17c4.47,0.65,12.04,1.82,18.67,3.16c4.08,0.82,7.45,1.4,10.11,1.79
	C349.29,514.32,349.98,516.53,350.71,518.78z"/>
<path fill="#FFFFFF" stroke="#000000" stroke-miterlimit="10" d="M352.25,523.38c-7.78-1.25-19.15-3.07-24.26-3.84
	c-1.11-1.7-2.23-3.42-3.38-5.15c6.95,1.46,17.89,3.52,26.1,4.39C351.2,520.3,351.72,521.84,352.25,523.38z"/>
<path fill="#FFFFFF" stroke="#000000" stroke-miterlimit="10" d="M413.88,681.95c-32.8-19.29-60.28-42.9-57.65-53.9
	c1.41-5.88,4.06-31.9,20.53-40.93c10.8-5.92,27.01,11.15,36.9,23.62c-0.69-0.55-1.4-1.05-2.15-1.5
	c-20.44-12.36-33.75-1.43-37.55,12.83C370.16,636.32,383.47,650.58,413.88,681.95z"/>
<path fill="#FFFFFF" stroke="#000000" stroke-miterlimit="10" d="M425.88,163.03c-10.34,11-46.1,21.03-53.7,27.78
	c-7.61,6.74-13.19,24.92-27.68,33.83c-7.35,4.52-13.99,7.57-18.76,9.48c1.25-5.21,2.69-10.54,4.36-15.98
	c5.38-0.94,14.75-3.95,22.36-13.46c11.4-14.26,16.39-26.37,29.94-28.51C395.94,174.03,412.69,170.57,425.88,163.03z"/>
<path fill="#FFFFFF" stroke="#000000" stroke-miterlimit="10" d="M676.45,232.36c-0.47,41.83-30.65,94.58-30.65,94.58
	c-5.69,9.42-13.47,18.45-22.1,27.24c-0.95-25.71-14.85-44.65-18.18-48.98c-2.64-3.44-6.45-18.01-8.25-25.34
	c17.57-9.42,35.56-28.11,55.19-52.72c0.74-30.49-2.59-57.84-7.92-81.62C659.27,166.1,676.8,202.03,676.45,232.36z"/>
<path fill="#FFFFFF" stroke="#000000" stroke-miterlimit="10" d="M602.43,374.53c-6.97,6.48-13.84,12.88-20.07,19.29
	c-4.99-8.13-13.7-21.65-19.96-27.67c-19.25,1.42-70.58,31.72-85.19,61.3c-9.87,19.98-19.35,24.35-24.48,25.08
	c1.15-11.71,1.51-23.82,0.24-35.47c0,0,24.95-7.07,39.56-37.01c14.62-29.94,29.59-43.84,46.34-61.67
	c9.67-10.29,13.05-24.03,14.17-33.8c6.5,1.04,12.21,1.64,16.72,1.96c5.69,0.41,11.36-0.36,17.04-2.18
	c2.37,8.11,5.66,20.27,6.96,29.39C595.76,327.77,605.58,306.47,602.43,374.53z"/>
<path fill="#FFFFFF" stroke="#000000" stroke-miterlimit="10" d="M602.43,374.53c3.15-68.06-6.67-46.76-8.67-60.78
	c-1.3-9.12-4.59-21.28-6.96-29.39c1.6-0.51,3.2-1.11,4.8-1.78c3.4,18.51,13.07,34.83,15.71,40.44c2.25,4.78,5.61,28.68,6.92,40.45
	C610.33,367.19,606.37,370.87,602.43,374.53z"/>
<path fill="#FFFFFF" stroke="#000000" stroke-miterlimit="10" d="M623.7,354.18c-3.07,3.12-6.24,6.22-9.47,9.29
	c-1.31-11.77-4.67-35.67-6.92-40.45c-2.64-5.61-12.31-21.93-15.71-40.44c1.89-0.8,3.78-1.7,5.67-2.72c1.8,7.33,5.61,21.9,8.25,25.34
	C608.85,309.53,622.75,328.47,623.7,354.18z"/>
<path fill="#FFFFFF" stroke="#000000" stroke-miterlimit="10" d="M632.26,681.95c2.53,16.11,2.05,32.84,0.1,49.23
	c-3.35,1.73-8.73,4.79-11.98,8.04c-4.99,4.99-1.91,18.81-26.26,19.27c-3.02-16.87-6.79-33.12-9.62-43.27
	c-5.71-20.44,2.85-27.09,19.48-51.81c-28.99-59.4-86.97-124.51-86.97-124.51l-13.78,0.47c0,0-8.08,123.57-8.08,137.35
	c0,13.78-8.08,22.34-8.08,22.34s0,0-9.03,33.26c-4.35,16.02-12.33,32.47-20.49,50.49c-3.65-5.77-7.8-12.49-9.92-16.39
	c-4.27-7.84-0.36-39.56-0.01-55.24c0.21-9.21-5.48-14.86-10.21-17.94c11.11-8.77,23.96-14.63,27.8-16.99
	c3.32-37.55-22.81-139.25-22.34-159.21c0.29-11.94,7.2-37.14,9.86-64.51c5.13-0.73,14.61-5.1,24.48-25.08
	c14.61-29.58,65.94-59.88,85.19-61.3c6.26,6.02,14.97,19.54,19.96,27.67c-3.12,3.21-6.08,6.41-8.8,9.63
	c-20.91,24.72-25.18,50.38-21.38,83.17c11.4,10.46,46.1,73.19,50.85,96.48c4.75,23.28,29.76,77.46,32.79,83.34
	C638.85,672.32,632.26,681.95,632.26,681.95z"/>
<path fill="#FFFFFF" stroke="#000000" stroke-miterlimit="10" d="M625.63,769.45c-1.1,5.07-2.23,10-3.32,14.78
	c-7.58-0.09-17.49-0.54-24.59-2.04c-0.33-2.74-0.7-5.53-1.12-8.36C603.94,774.52,617.65,774.9,625.63,769.45z"/>
<path fill="#FFFFFF" stroke="#000000" stroke-miterlimit="10" d="M631.51,737.62c-0.86,6.1-1.9,12.12-3.04,18.03
	c-6.26,1.31-13.35,5.78-18.55,9.62c-4.82,3.56-10.97,4.12-13.97,4.17c-0.3-1.94-0.62-3.9-0.94-5.85c5.4,0.11,13.24-0.82,19.72-7.5
	C623.21,747.36,623.72,739.8,631.51,737.62z"/>
<path fill="#FFFFFF" stroke="#000000" stroke-miterlimit="10" d="M632.36,731.18c-0.26,2.15-0.54,4.3-0.85,6.44
	c-7.79,2.18-8.3,9.74-16.78,18.47c-6.48,6.68-14.32,7.61-19.72,7.5c-0.29-1.7-0.59-3.4-0.89-5.1c24.35-0.46,21.27-14.28,26.26-19.27
	C623.63,735.97,629.01,732.91,632.36,731.18z"/>
<path fill="#FFFFFF" stroke="#000000" stroke-miterlimit="10" d="M628.47,755.65c-0.9,4.68-1.86,9.29-2.84,13.79v0.01
	c-7.98,5.45-21.69,5.07-29.03,4.38c-0.2-1.46-0.42-2.92-0.65-4.39c3-0.05,9.15-0.61,13.97-4.17
	C615.12,761.43,622.21,756.96,628.47,755.65z"/>
<path fill="#FFFFFF" stroke="#000000" stroke-miterlimit="10" d="M696.65,371.61c0,0-7.01,29.73-12.35,37.8
	c-3.46-5.66-10.03-17.04-10.44-17.75c-0.01-0.02-0.02-0.03-0.02-0.03c-7.44-17.33-24.25-54.6-28.04-64.69
	c0,0,30.18-52.75,30.65-94.58c0.35-30.33-17.18-66.26-31.91-86.84c0-0.01,0-0.01,0-0.01c-0.73-3.26-1.49-6.44-2.3-9.57
	c0,0,11.17,0.9,18.29,12.31c5.75,9.2,18,21.8,29,26.33c6.2,14.55,11.17,28.39,14.25,40.2C718.04,269.43,696.65,371.61,696.65,371.61
	z"/>
<path fill="#FFFFFF" stroke="#000000" stroke-miterlimit="10" d="M667.68,129.85c-11.57-0.28-23.79-8.44-30.75-12.35
	c-9.04-28.21-20.18-49.44-28.17-62.59C625.67,63.46,648.35,94.73,667.68,129.85z"/>
<path fill="#FFFFFF" stroke="#000000" stroke-miterlimit="10" d="M681.66,157.13c-9.85-1.48-15.98-12.22-21.13-19.34
	c-4.83-6.69-15.5-7.76-19.9-7.9c-1.18-4.27-2.42-8.4-3.7-12.39c6.96,3.91,19.18,12.07,30.75,12.35
	C672.61,138.79,677.32,147.99,681.66,157.13z"/>
<path fill="#FFFFFF" stroke="#000000" stroke-miterlimit="10" d="M689.53,174.58c-11-4.53-23.25-17.13-29-26.33
	c-7.12-11.41-18.29-12.31-18.29-12.31c-0.52-2.05-1.06-4.06-1.61-6.05c4.4,0.14,15.07,1.21,19.9,7.9
	c5.15,7.12,11.28,17.86,21.13,19.34C684.45,163,687.09,168.84,689.53,174.58z"/>
<path fill="#FFFFFF" stroke="#000000" stroke-miterlimit="10" d="M712.81,439.57c-0.48,2.98-1.09,6.23-1.81,9.66
	c-5.15,3.16-11.96,8.14-14.35,13.63c-3.62,8.3-10.28,22.69-19.48,28.67c0.37-21.87-6.07-40.99-8.08-59.09
	c-2.38-21.38,2.38-28.99,7.13-35.16c-0.6-1.47-1.4-3.37-2.36-5.62c0.41,0.71,6.98,12.09,10.44,17.75
	c5.34-8.07,12.35-37.8,12.35-37.8S718.04,407.26,712.81,439.57z"/>
<path fill="#FFFFFF" stroke="#000000" stroke-miterlimit="10" d="M705.21,603.53c0,0-3.24,27.32-43.54,56.36
	c7.77-9.47,25.24-47.09,25.12-56.59c-0.13-9.51-10.57-36.6-25.54-27.09c-14.97,9.5-12.04,36.1-12.04,36.1
	c-1.13,11.98-0.28,28.83,1.34,51.58c-32.79-34.69-23.76-94.57-21.38-99.8c2.37-5.23,26.14-5.71,33.74-9.51
	c7.08-3.53,9.22-21.04,12.54-45.25c4.96-2.7,13.69-6.63,21.28-5.01c-5.68,20.02-10.84,37.6-11.96,44.56
	C682.4,563.61,705.21,603.53,705.21,603.53z"/>
<path fill="#FFFFFF" stroke="#000000" stroke-miterlimit="10" d="M686.79,603.3c0.12,9.5-17.35,47.12-25.12,56.59l-0.01,0.01
	c-0.53,0.38-1.06,0.76-1.6,1.14c9.03-6.66,27.09-75.09,7.13-73.19c-11.43,1.08-16.47,8.4-17.98,24.46c0,0-2.93-26.6,12.04-36.1
	C676.22,566.7,686.66,593.79,686.79,603.3z"/>
<path fill="#FFFFFF" stroke="#000000" stroke-miterlimit="10" d="M699.09,495.97c-0.79,2.81-1.58,5.61-2.36,8.35
	c-7.59-1.62-16.32,2.31-21.28,5.01c0.25-1.83,0.5-3.7,0.77-5.6c0.08-0.59,0.16-1.19,0.23-1.78
	C676.45,501.95,690.92,499.13,699.09,495.97z"/>
<path fill="#FFFFFF" stroke="#000000" stroke-miterlimit="10" d="M702.01,485.43c-0.97,3.52-1.95,7.05-2.92,10.54
	c-8.17,3.16-22.64,5.98-22.64,5.98c0.19-1.52,0.33-3.03,0.44-4.52C682.44,495.36,693.5,490.75,702.01,485.43z"/>
<path fill="#FFFFFF" stroke="#000000" stroke-miterlimit="10" d="M711,449.23c-0.99,4.75-2.18,9.87-3.49,15.2
	c-5.21,2.87-11.59,7.77-14.9,15.54c-4.46,10.48-11.41,13.38-15.55,14.54c0.06-1,0.09-1.99,0.11-2.97v-0.01
	c9.2-5.98,15.86-20.37,19.48-28.67C699.04,457.37,705.85,452.39,711,449.23z"/>
<path fill="#FFFFFF" stroke="#000000" stroke-miterlimit="10" d="M707.51,464.43c-1.68,6.77-3.56,13.88-5.5,21
	c-8.51,5.32-19.57,9.93-25.12,12c0.08-0.98,0.14-1.95,0.17-2.92c4.14-1.16,11.09-4.06,15.55-14.54
	C695.92,472.2,702.3,467.3,707.51,464.43z"/>
<path fill="#FFFFFF" stroke="#000000" stroke-miterlimit="10" d="M542.63,282.67c-5.97,21.64-24.06,30.2-34.77,36.43
	c-11.05,6.41-22.81,22.45-36.71,36.35c-10.31,10.31-25.93,15.53-33.3,17.53c-14.38-25.18-35.95-48.95-47.5-60.01
	c5.91-2.64,16.2-13.36,27.11-26.27c15.78-18.68,32.87-41.95,39.88-51.98C478.93,263.74,515.06,276.91,542.63,282.67z"/>
<path fill="#FFFFFF" stroke="#000000" stroke-miterlimit="10" d="M432.89,968.65c3.33-8.42,12.36-55.73-10.93-54.31
	c-23.29,1.43-16.16,27.09-12.83,54.31c-14.26-9.37-23.29-42.9-14.26-57.16c9.03-14.25,20.44-47.05,25.19-70.33
	c2.17-10.64,0.97-34.36-0.21-58.85c7.71,6.57,18.8,15.06,29.33,19.69c-5.79,14.08-11.04,29.2-14.39,45.81
	c-9.5,47.05,19.96,68.91,19.96,76.99S447.15,953.32,432.89,968.65z"/>
<path fill="#FFFFFF" stroke="#000000" stroke-miterlimit="10" d="M457.55,782.81c-0.65,1.41-1.29,2.82-1.93,4.25
	c-21.16-20.75-15.94-47.51-18.69-61.63c-1.86-9.54-7.52-16.65-11.23-20.43c3.18-4.35,7.31-8.29,11.71-11.76
	c4.73,3.08,10.42,8.73,10.21,17.94c-0.35,15.68-4.26,47.4,0.01,55.24C449.75,770.32,453.9,777.04,457.55,782.81z"/>
<path fill="#FFFFFF" stroke="#000000" stroke-miterlimit="10" d="M455.62,787.06v0.01c-0.68,1.53-1.37,3.07-2.05,4.62
	c-12.3-9.09-20.69-34.88-22.34-43.8c-1.27-6.87-8.36-10.11-12.7-10.75c0.15-11.04,0.96-19.95,2.96-24.78
	c1.06-2.57,2.5-5.03,4.21-7.36c3.71,3.78,9.37,10.89,11.23,20.43C439.68,739.55,434.46,766.31,455.62,787.06z"/>
<path fill="#FFFFFF" stroke="#000000" stroke-miterlimit="10" d="M453.57,791.69c-0.48,1.1-0.96,2.2-1.43,3.31
	c-4.67-2.55-9.89-5.94-14.14-10.04c-6.75-6.52-14.42-14.71-18.91-19.6c-0.41-10.06-0.68-19.76-0.56-28.22
	c4.34,0.64,11.43,3.88,12.7,10.75C432.88,756.81,441.27,782.6,453.57,791.69z"/>
<path fill="#FFFFFF" stroke="#000000" stroke-miterlimit="10" d="M452.14,795c-1,2.3-1.99,4.64-2.96,7
	c-10.53-4.63-21.62-13.12-29.33-19.69c-0.27-5.66-0.54-11.36-0.76-16.95c4.49,4.89,12.16,13.08,18.91,19.6
	C442.25,789.06,447.47,792.45,452.14,795z"/>
<path fill="#FFFFFF" stroke="#000000" stroke-miterlimit="10" d="M715.66,909.12c-38.02,8.08-51.32-2.85-63.2-13.31
	c-11.89-10.46-37.55-18.06-60.84-20.91c-23.28-2.85-11.88-13.31-6.17-19.96c5.7-6.65,13.3-23.76,13.78-48.95
	c0.13-6.78-0.47-15-1.51-23.8c7.1,1.5,17.01,1.95,24.59,2.04c-5.91,25.81-10.85,46.85-5.74,57.4
	c11.17,23.05,66.06,32.08,76.52,32.32c10.37,0.24,6.94,1.18,28.25,29.28c-10.95-13.8-42.59-20.19-47.74-16.69
	C668.38,890.11,702.83,904.36,715.66,909.12z"/>
<path fill="#FFFFFF" stroke="#000000" stroke-miterlimit="10" d="M547.62,283.65c-0.99,6.9-3.83,18.88-11.96,27.96
	c-12.12,13.55-17,10.93-35.41,32.56c-17.82,20.93-26.4,44.32-51.84,51.61c-2.56-7.52-6.23-15.22-10.56-22.8
	c7.37-2,22.99-7.22,33.3-17.53c13.9-13.9,25.66-29.94,36.71-36.35c10.71-6.23,28.8-14.79,34.77-36.43
	C544.33,283.03,545.99,283.35,547.62,283.65z"/>
<path fill="#FFFFFF" stroke="#000000" stroke-miterlimit="10" d="M553.04,284.58c-1.12,9.77-4.5,23.51-14.17,33.8
	c-16.75,17.83-31.72,31.73-46.34,61.67c-14.61,29.94-39.56,37.01-39.56,37.01c-0.72-6.64-1.98-13.13-3.92-19.31
	c-0.21-0.65-0.42-1.31-0.64-1.97c25.44-7.29,34.02-30.68,51.84-51.61c18.41-21.63,23.29-19.01,35.41-32.56
	c8.13-9.08,10.97-21.06,11.96-27.96C549.48,284,551.29,284.31,553.04,284.58z"/>
<path fill="#FFFFFF" stroke="#000000" stroke-miterlimit="10" d="M652.46,227.14c-19.63,24.61-37.62,43.3-55.19,52.72
	c-1.89,1.02-3.78,1.92-5.67,2.72c-1.6,0.67-3.2,1.27-4.8,1.78c-5.68,1.82-11.35,2.59-17.04,2.18c-4.51-0.32-10.22-0.92-16.72-1.96
	c-1.75-0.27-3.56-0.58-5.42-0.93c-1.63-0.3-3.29-0.62-4.99-0.98c-27.57-5.76-63.7-18.93-85.29-47.95
	c-3.19-4.27-6.05-8.89-8.53-13.88c68.44,57.74,131.41,7.72,150.66-4.4c24.23-44.91,4.99-163.24,4.99-163.24
	c1.38,0.39,2.82,0.96,4.3,1.71c7.99,13.15,19.13,34.38,28.17,62.59c1.28,3.99,2.52,8.12,3.7,12.39c0.55,1.99,1.09,4,1.61,6.05
	c0.81,3.13,1.57,6.31,2.3,9.57c0,0,0,0,0,0.01C649.87,169.3,653.2,196.65,652.46,227.14z"/>
<path fill="#FFFFFF" stroke="#000000" stroke-miterlimit="10" d="M462.42,118.36c-0.18,0.87-0.36,1.75-0.53,2.62
	c-11.05,8.12-33.5,27.48-39.45,34.87c-6.9,8.55-28.28,8.55-36.48,11.05c-8.2,2.49-13.9,2.49-20.67,9.62
	c-6.77,7.13-19.03,18.56-27.34,19.44c2.35-5.8,4.99-11.72,7.97-17.77c2.48-5.03,5.27-10.1,8.34-15.16
	c4.89-0.16,13.55-0.98,17.92-4.69c6.3-5.34,25.19-7.12,35.52-7.12C417.42,151.22,442.3,121.57,462.42,118.36z"/>
<path fill="#FFFFFF" stroke="#000000" stroke-miterlimit="10" d="M558.68,202.46c-0.09,3.68-0.26,7.52-0.51,11.55
	c-1.08-0.5-2.85-1.58-5.08-3.14C554.36,208.26,556.17,205.2,558.68,202.46z"/>
<path fill="#FFFFFF" stroke="#000000" stroke-miterlimit="10" d="M589.63,199.4c-3.7,8.91-7.1,14.91-7.1,14.91s-19.18,1.06-23.58,0
	c-0.19-0.05-0.45-0.15-0.78-0.3c0.25-4.03,0.42-7.87,0.51-11.55c3.88-4.25,9.4-7.76,17.08-7.76c1.03,0,2,0.05,2.92,0.14
	C583.82,195.33,587.29,197.14,589.63,199.4z"/>
<path fill="#FFFFFF" stroke="#000000" stroke-miterlimit="10" d="M548.32,207.29c-9.45-7.53-22.59-20.41-29.29-35.37
	c7.93,2.83,19.09,6.88,23.58,8.86C547.82,183.08,548.41,198.57,548.32,207.29z"/>
<path fill="#FFFFFF" stroke="#000000" stroke-miterlimit="10" d="M558.68,202.46c-2.51,2.74-4.32,5.8-5.59,8.41
	c-1.42-1-3.03-2.2-4.77-3.58c0.09-8.72-0.5-24.21-5.71-26.51c-4.49-1.98-15.65-6.03-23.58-8.86c-2.89-6.45-4.59-13.28-4.28-20.23
	c0.67-15.11,8.18-22.76,15.93-26.63c5.96,1.56,15.03,6.67,21.24,22.85c-6.61-3.56-12.87-4.33-12.87-4.33
	c-11.48-0.97-4.63,17.44,1.25,24.38c4.63,5.47,10.58,12.82,18.12,14.57C558.78,188.54,558.88,195.16,558.68,202.46z"/>
<path fill="#FFFFFF" stroke="#000000" stroke-miterlimit="10" d="M578.68,194.84c-0.92-0.09-1.89-0.14-2.92-0.14
	c-7.68,0-13.2,3.51-17.08,7.76c0.2-7.3,0.1-13.92-0.26-19.93c2.04,0.48,4.19,0.54,6.47,0.05c10.69-2.31,4.81-16.22-3.36-26.73
	c-2.77-3.56-6.24-6.12-9.61-7.94c-6.21-16.18-15.28-21.29-21.24-22.85c8.7-4.33,17.7-3.9,17.7-3.9s4.45-0.07,10.7,0.82
	c0,0,0,0,0.01,0c7.3,3.67,14.94,9.64,18.63,19.26C584.07,157.81,580.58,183.93,578.68,194.84z"/>
<path fill="#FFFFFF" stroke="#000000" stroke-miterlimit="10" d="M596.2,179.85c-1.79,7.16-4.24,13.93-6.57,19.55
	c-2.34-2.26-5.81-4.07-10.95-4.56c1.9-10.91,5.39-37.03-0.96-53.6c-3.69-9.62-11.33-15.59-18.63-19.26
	c12.65,1.79,32.69,7.47,38.06,25.49c0.28,0.93,0.52,1.87,0.72,2.83c0,0-6.07,7.56-7.32,19.3
	C589.31,181.33,592.57,181.93,596.2,179.85z"/>
<path fill="#FFFFFF" stroke="#000000" stroke-miterlimit="10" d="M602.85,161.73c-0.18,4.28-3.03,16.04-6.65,18.12
	c-3.63,2.08-6.89,1.48-5.65-10.25c1.25-11.74,7.32-19.3,7.32-19.3C599.18,150.23,603.03,157.45,602.85,161.73z"/>
<path fill="#FFFFFF" stroke="#000000" stroke-miterlimit="10" d="M564.89,182.58c-2.28,0.49-4.43,0.43-6.47-0.05
	c-7.54-1.75-13.49-9.1-18.12-14.57c-5.88-6.94-12.73-25.35-1.25-24.38c0,0,6.26,0.77,12.87,4.33c3.37,1.82,6.84,4.38,9.61,7.94
	C569.7,166.36,575.58,180.27,564.89,182.58z"/>
<ellipse fill="none" stroke="#000000" stroke-miterlimit="10" cx="568.16" cy="327.56" rx="10.04" ry="14.59"/>
</svg>
