<?xml version="1.0" encoding="utf-8"?>
<!-- Generator: Adobe Illustrator 25.2.0, SVG Export Plug-In . SVG Version: 6.00 Build 0)  -->
<svg version="1.1" baseProfile="tiny" id="Layer_1" xmlns="http://www.w3.org/2000/svg" xmlns:xlink="http://www.w3.org/1999/xlink"
	 x="0px" y="0px" viewBox="0 0 1000 1000" overflow="visible" xml:space="preserve">
<path fill="#FFFFFF" stroke="#000000" stroke-miterlimit="10" d="M615.24,112c-0.6,1.57-1.14,2.91-1.49,3.76
	c-0.25,0.63-0.41,0.99-0.41,0.99s1.42-24.48-3.92-25.55c-5.35-1.06-16.87,5.23-16.87,5.23l0.95,3.21c0,0-7.84-4.4-9.39-6.18
	c-1.54-1.78-6.65-8.31-6.65-8.31s-4.4,0.11-4.4,0.71c0,0.59-1.31,6.65-1.31,6.65s-14.37-6.89-15.68-7.84s-4.51-2.85-5.82-2.49
	c-1.31,0.35-13.66,18.65-16.51,21.26c-2.86,2.62-8.8,10.1-9.15,13.31c-0.23,2.05-1.86,4.43-3.01,5.89c0,0.01,0,0.01,0,0.01
	c-0.66,0.82-1.15,1.35-1.15,1.35l0.95-18.89c0,0,0.03-0.19,0.08-0.53c0.46-2.74,2.58-15.26,3.96-19.91c1.54-5.23,1.9-7.72,1.9-7.72
	h-2.97c0,0,4.75-6.18,5.94-9.98s3.68-8.08,4.28-9.03c0.59-0.95,9.86-5.82,11.88-5.82c2.02,0,16.28-0.48,16.28-0.48v-6.3l6.77,5.94
	c0,0,15.21-0.83,21.15,2.14c-7.73-0.47-9.63,0.48-9.63,0.48s26.38,3.68,35.05,15.8c-5.82-3.33-8.32-3.8-8.32-3.8
	s9.51,6.89,10.94,22.81c-1.79-3.21-2.5-3.68-2.5-3.68l-0.59,10.1c0,0,2.85-0.24,3.09,4.15C618.83,101.95,616.83,107.8,615.24,112z"
	/>
<path fill="#FFFFFF" stroke="#000000" stroke-miterlimit="10" d="M613.34,116.75c0,0,1.42-24.48-3.92-25.55
	c-5.35-1.06-16.87,5.23-16.87,5.23l0.95,3.21c0,0-7.84-4.4-9.39-6.18c-1.54-1.78-6.65-8.31-6.65-8.31s-4.4,0.11-4.4,0.71
	c0,0.59-1.31,6.65-1.31,6.65s-14.37-6.89-15.68-7.84s-4.51-2.85-5.82-2.49c-1.31,0.35-13.66,18.65-16.51,21.26
	c-2.86,2.62-8.8,10.1-9.15,13.31c-0.23,2.05-1.86,4.43-3.01,5.89c0,0.01,0,0.01,0,0.01c-0.3,1.88-0.71,4.54-1.1,7.66
	c-0.42,3.33-0.82,7.18-1.06,11.13c-0.43,7.06-0.37,14.44,1.01,19.75c3.56,13.78,20.08,31,30.77,33.02c10.69,2.02,26.38,4.4,32.44,0
	c4.29-3.11,13.78-15.35,19.28-24.8c2.27-3.9,3.86-7.33,4.12-9.44c0.3-2.43,0.77-5.03,1.3-7.51c1.06-4.91,2.36-9.34,3.07-10.94
	c0.08-0.18,0.17-0.51,0.25-0.95v-0.01c0.81-4.18,1.74-18.82,2.09-24.8C613.5,116.39,613.34,116.75,613.34,116.75z M573.17,150.43
	l10.17-3.47l-10.17,5.61l-12.46-9.09L573.17,150.43z M550.84,119.84c4.76,1.42,14.74,6.89,14.74,6.89l-13.9-2.73l-13.89-7.45
	C538.29,116.66,546.24,118.45,550.84,119.84z M563.2,131.01c0,0-9.8,1.24-12.83,0.89c-3.03-0.36-11.4-7.02-11.4-7.02
	s8.13-0.88,11.58-0.1C553.99,125.57,563.2,131.01,563.2,131.01z M538.97,158.1c6.67-14.57,23.69-20.15,24.22-20.31
	c-0.02,0.1-0.23,0.86-0.06,2.35C555.85,141.09,544.49,151.68,538.97,158.1z M561.95,181.57c-0.18,0-0.34,0-0.51,0.01
	c-0.01,0-0.01,0-0.01,0c-0.12,0-0.24,0.01-0.36,0.01c0.05-0.01,0.11-0.01,0.17-0.02h0.04c0.03-0.01,0.06-0.02,0.09-0.01
	c0.09-0.01,0.18-0.02,0.29-0.03c0.1-0.01,0.22-0.02,0.35-0.03c0.15-0.01,0.32-0.03,0.5-0.04c0.1-0.01,0.21-0.02,0.33-0.02
	c0.34-0.02,0.72-0.04,1.13-0.06c1.17-0.05,2.58-0.07,4.11-0.01c0.23,0,0.47,0.01,0.71,0.03c0.28,0.01,0.56,0.03,0.85,0.05
	c0.28,0.02,0.57,0.05,0.85,0.08c0.29,0.02,0.57,0.05,0.86,0.09c0.19,0.02,0.39,0.05,0.58,0.08c0.23,0.02,0.46,0.06,0.69,0.1
	c0.4,0.06,0.79,0.13,1.18,0.21c0.4,0.08,0.79,0.17,1.18,0.27c0.26,0.06,0.52,0.13,0.78,0.21c0.22,0.06,0.44,0.13,0.66,0.21
	c0.19,0.06,0.38,0.13,0.57,0.2c0.28,0.1,0.56,0.21,0.83,0.33c0.14,0.05,0.27,0.11,0.4,0.18c0.13,0.06,0.26,0.12,0.38,0.19
	c0.42,0.21,0.82,0.44,1.2,0.69C579.8,184.29,569.4,181.42,561.95,181.57z M577.99,171.28c-2.31,1.43-5.34,3.03-5.97,3.03
	c-0.62,0-18.32-6.25-20.34-6.33s-4.58-2.04-4.58-2.04s13.78-3.92,14.32-4.28c0.53-0.36,10.6,4.99,10.6,4.99s6.86-1.6,9-0.71
	c2.14,0.89,6.95,5.34,6.95,5.34S580.31,169.86,577.99,171.28z M594.21,165.94c0.18-9.09-9.45-19.78-9.45-19.78l-1.42-4.82
	C588.69,145.44,595.64,160.06,594.21,165.94z M593.23,135.82c-2.76,0-9.89-3.39-9.89-3.39s8.2-2.49,10.87-2.49
	c2.67,0,8.91,2.49,8.91,2.49S595.99,135.82,593.23,135.82z M602.68,124.78l-11.94,3.32h-9.72l9.45-1.91l12.74-4.72l6.15,4.81
	L602.68,124.78z"/>
<polygon fill="#FFFFFF" stroke="#000000" stroke-miterlimit="10" points="583.34,146.96 573.17,152.57 560.71,143.48 573.17,150.43 
	"/>
<path fill="#FFFFFF" stroke="#000000" stroke-miterlimit="10" d="M620.41,124.59c-0.29,4.96-5.31,11.82-8.75,15.97
	c0.81-4.18,1.74-18.82,2.09-24.8c0.35-0.85,0.89-2.19,1.49-3.76C615.24,112,620.85,117.02,620.41,124.59z"/>
<path fill="#FFFFFF" stroke="#000000" stroke-miterlimit="10" d="M521.58,122.65c-0.3,1.88-0.71,4.54-1.1,7.66
	c-2.24-1.3-4.1-4.18-5.45-7.61c-2.84-7.2-3.39-16.83-0.22-19.5c2.78-2.34,5.12-0.64,6.65,1.38c-0.05,0.34-0.08,0.53-0.08,0.53
	L520.43,124C520.43,124,520.92,123.47,521.58,122.65z"/>
<path fill="#FFFFFF" stroke="#000000" stroke-miterlimit="10" d="M471.48,237.22c-5.12,23.14-25.24,41.29-33.14,47.66
	c-2,1.62-3.22,2.48-3.22,2.48c-10.45,3.81-56.79,10.7-74.61-9.74c-17.82-20.43-19.32-50.9-19.32-50.9s1.73-21.1,19.08-40.11
	c17.35-19.01,47.29-20.67,47.29-20.67s33.38,7.04,61.6,22.14C470.68,192.08,477.18,211.46,471.48,237.22z"/>
<path fill="#FFFFFF" stroke="#000000" stroke-miterlimit="10" d="M519.42,141.44c-6.54,10.93-19.42,36.54-17.01,65.37
	c-9.94-5.27-19.66-10.95-28.63-16.16c-1.52-0.88-3.06-1.74-4.62-2.57c-28.22-15.1-61.6-22.14-61.6-22.14s23.28-26.62,45.86-31.84
	c18.93-4.39,51.57-9.78,61.61-11.4c1.35,3.43,3.21,6.31,5.45,7.61C520.06,133.64,519.66,137.49,519.42,141.44z"/>
<path fill="#FFFFFF" stroke="#000000" stroke-miterlimit="10" d="M435.12,287.36c0,0-9.98,30.66-31.13,51.09
	c-4.11,3.97-8.31,7.15-12.42,9.7c-8.53,5.29-16.68,7.86-22.83,9.1c-1.4-9.31-3.94-18.39-8.23-26.4
	c-17.59-32.79-26.38-41.11-37.78-41.59c-7.58-0.31-25.44,20.99-36.57,35.31c6.53-77.19,55.03-97.85,55.03-97.85
	s1.5,30.47,19.32,50.9C378.33,298.06,424.67,291.17,435.12,287.36z"/>
<path fill="#FFFFFF" stroke="#000000" stroke-miterlimit="10" d="M408.83,479.06c-9.04-1.89-33.01-6.12-39.53,0.78
	c-8.08,8.55,0,23.05,0,23.05s-21.39,2.37-10.93,23.29c-0.4,0.01-0.81,0.04-1.2,0.1c0,0,0,0-0.01,0
	c-6.83,0.87-12.25,7.61-13.02,13.99c-7.35-6.73-20.11-32.53-31.87-52.35c-13.31-17.11-10.93-28.75-15.45-39.21
	c-0.76-1.76-1.83-3.91-3.1-6.39l24.25,2.59c0,0,23.88-19.55,49.97-18.31c2.02,5.34,12.73,11.62,23.78,17.08
	c11.39,5.65,23.14,10.42,26.05,12.4c0.38,0.26,0.8,0.6,1.27,1.01C414.86,458.13,408.19,462.39,408.83,479.06z"/>
<path fill="#FFFFFF" stroke="#000000" stroke-miterlimit="10" d="M367.64,425.42c0.05,0.39,0.15,0.78,0.3,1.18
	c-26.09-1.24-49.97,18.31-49.97,18.31l-24.25-2.59c-6.31-12.29-17.74-32.65-22.08-53.02c-5.23-24.47,3.56-51.32,14.49-64.39
	c0.01-0.11,0.02-0.23,0.03-0.34c11.13-14.32,28.99-35.62,36.57-35.31c11.4,0.48,20.19,8.8,37.78,41.59
	c4.29,8.01,6.83,17.09,8.23,26.4C373.08,386.09,366.56,417.16,367.64,425.42z"/>
<path fill="#FFFFFF" stroke="#000000" stroke-miterlimit="10" d="M407.79,531.17c0,0-6.74,10.2-17.34,10.82
	c-1.51,0.09-3.09-0.02-4.75-0.37c-7.85,2.85-32.8,3.33-39.69,0c-0.58-0.28-1.2-0.73-1.87-1.35c0.77-6.38,6.19-13.12,13.02-13.99
	c0.01,0,0.01,0,0.01,0C366.01,528.22,386.63,532.06,407.79,531.17z"/>
<path fill="#FFFFFF" stroke="#000000" stroke-miterlimit="10" d="M636.91,178.6c-1.86,4.84-5.57,11.27-12.4,12.29
	c-1.62,0.24-3.43,1.11-5.42,2.44c-1.26,0.84-2.59,1.86-3.99,3.01c-4.97-7.78-9.94-20.76-12.18-26.93c2.27-3.9,3.86-7.33,4.12-9.44
	c0.3-2.43,0.77-5.03,1.3-7.51C614.71,155.92,630.98,166.17,636.91,178.6z"/>
<path fill="#FFFFFF" stroke="#000000" stroke-miterlimit="10" d="M672.19,289.62c-4.44,0.53-10.04,1.13-13.9,1.53
	c1.61-10.31,0.37-19.13-0.28-22.68v-0.01c-13.29-11.17-33.53-61.35-38.92-75.13c1.99-1.33,3.8-2.2,5.42-2.44
	c6.83-1.02,10.54-7.45,12.4-12.29c9.22,2.55,37.97,16.16,46.53,48.32C691.33,256.6,676.57,283.57,672.19,289.62z"/>
<path fill="#FFFFFF" stroke="#000000" stroke-miterlimit="10" d="M713.61,381.37c-4.28,12.44-10.56,30.67-11.64,33.6
	c-1.66,4.51-12.83,21.86-12.83,21.86s-12.83,0.95-12.59,2.37c0.2,1.26-5.98,9.39-7.73,18.73c-4.37-7.19-11.81-15.93-23.16-22.05
	c-6.23-3.36-15.45-11.09-22.82-17.68v-0.01c-0.18-10.86-0.94-25.01-0.47-27.34c0.71-3.57,7.48-14.26,16.04-34.58
	c6.33-15.03,8.56-31.05,9.29-38.35c5.4-6.77,8.32-15.69,9.96-23.31c0.25-1.17,0.46-2.33,0.63-3.46c3.86-0.4,9.46-1,13.9-1.53
	c-0.37,0.51-0.67,0.87-0.87,1.07c1.66,1.9,2.61,23.29,2.61,23.29s25.19,19.24,33.75,42.77C710.75,365.18,712.5,373.74,713.61,381.37
	z"/>
<path fill="#FFFFFF" stroke="#000000" stroke-miterlimit="10" d="M749.62,491.46c-0.4-0.52-1.57-2.04-3.44-3.58
	c-0.01,0-0.01-0.01-0.01-0.01c-3.57-2.96-9.66-6.03-17.58-2.57c-13.07,5.71-19.49,20.68-19.49,20.68s-2.01-10.98-9.72-12.55
	c-0.65-0.13-1.35-0.2-2.09-0.18c-3.24-10.06-15.16-33.97-18.15-38.42c-2.4-3.58-7.32,0.52-10.13,3.39
	c-0.07-0.09-0.12-0.18-0.19-0.28c0-0.01,0-0.01,0-0.01c1.75-9.34,7.93-17.47,7.73-18.73c-0.24-1.42,12.59-2.37,12.59-2.37
	s11.17-17.35,12.83-21.86c1.08-2.93,7.36-21.16,11.64-33.6c1.98,13.64,1.9,24.32,3.57,25.99c2.61,2.62,14.5,19.73,15.92,39.92
	c6.65,15.21,9.03,29.47,10.22,31.85c0.6,1.18,3.42,5.48,5.79,11c0.01,0.01,0.01,0.03,0.01,0.04
	C749.29,490.59,749.45,491.02,749.62,491.46z"/>
<path fill="#FFFFFF" stroke="#000000" stroke-miterlimit="10" d="M699.85,529.34L699.85,529.34c-1.74-5.49-6.43-10.7-6.83-13.03
	c-0.64-3.74,1.71-20.31,4.02-22.27c0.11-0.09,0.25-0.17,0.42-0.25c-0.05-0.17-0.11-0.35-0.17-0.54
	c-3.24-10.06-15.16-33.97-18.15-38.42c-2.4-3.58-7.32,0.52-10.13,3.39c0.14,0.24,0.27,0.48,0.41,0.71
	c-0.39,0.89-0.74,1.86-1.04,2.89c-4.86,16.44,1.04,48.56,1.04,54.37c0,6.18,6.89,10.22,13.78,18.54c6.89,8.32,14.97,4.28,14.97,4.28
	c0.03-0.04,0.07-0.07,0.1-0.11C700.88,535.98,700.9,532.62,699.85,529.34z M695.26,539.01c-6.24,2.34-10.87-6.66-10.87-6.66v-0.44
	c0,0,9.98-4.01,10.25-3.74C694.9,528.43,701.5,536.66,695.26,539.01z"/>
<path fill="#FFFFFF" stroke="#000000" stroke-miterlimit="10" d="M752.11,508.59c-2.61,12.12-30.32,33.02-38.57,33.04
	c-6.46,0.02-12.83-1.9-15.27-2.73c2.61-2.92,2.63-6.28,1.58-9.56c2.81,1.51,8.49,3.78,15.43,2.3c9.98-2.13,26.61-24.71,30.33-28.75
	c2.74-2.98,1.44-11.01,0.57-15.01c1.87,1.54,3.04,3.06,3.44,3.58C751.51,496.62,753.21,503.5,752.11,508.59z"/>
<path fill="#FFFFFF" stroke="#000000" stroke-miterlimit="10" d="M506.65,466.32c-14.01-3.28-28.1-6.82-41.11-9.53
	c-11.52-2.4-22.2-5.76-31.61-9.35c-0.92-6.96-1.78-17.35-1.78-17.35c1.05,0.6,2.04,1.19,2.97,1.75
	c7.29,4.41,37.22,14.76,69.06,22.09C503.58,456.73,503.78,460.81,506.65,466.32z"/>
<path fill="#FFFFFF" stroke="#000000" stroke-miterlimit="10" d="M433.93,447.44c-19.78-7.54-33.94-16.1-38.38-18.91
	c1.72-6.32,3.41-12.09,4.35-15.27c4.83,2.37,21.34,10.54,32.25,16.83C432.15,430.09,433.01,440.48,433.93,447.44z"/>
<path fill="#FFFFFF" stroke="#000000" stroke-miterlimit="10" d="M638.41,356.27c6.33-15.03,8.56-31.05,9.29-38.35
	c-5.2,6.53-12.7,11.08-23.55,10.55c-22.1-1.07-44.55-28.16-44.55-28.16s-14.26,26.74-69.51,25.31
	c-43.38-1.12-64.34-28.39-71.75-40.74c-2,1.62-3.22,2.48-3.22,2.48s-9.98,30.66-31.13,51.09c-4.11,3.97-8.31,7.15-12.42,9.7
	c2.62,7.63,7.48,26.99,6.96,64.44c0,0,0.49,0.24,1.37,0.67c4.83,2.37,21.34,10.54,32.25,16.83c1.05,0.6,2.04,1.19,2.97,1.75
	c7.29,4.41,37.22,14.76,69.06,22.09c21.31,4.91,43.49,8.46,60.3,7.97c0.7-0.02,1.38-0.04,2.06-0.08
	c22.12-1.11,36.12-8.55,44.58-16.01c5.47-4.82,8.63-9.64,10.17-12.77c0.56-1.12,0.91-2.02,1.08-2.63c0.49-1.72,0.56-6.51,0.47-12.21
	v-0.01c-0.18-10.86-0.94-25.01-0.47-27.34C623.08,387.28,629.85,376.59,638.41,356.27z M611.19,407.35
	c-2.55,3.81-5.15,6.89-7.59,8.35c-7.41,4.45-26.97-0.41-36.67-3.25c-0.25,0.4-0.39,0.62-0.39,0.62s-37.56,12.35-43.5,9.5
	c-5.94-2.85-62.49-38.02-62.49-38.02c13.9-11.92,87.26-34.8,126.65-40.32c7.72-1.08,14.14-1.5,18.54-1.03
	c26.85,2.86,20.67,33.25,20.67,33.25s0,0-0.01,0.01C626.18,377.04,618.97,395.68,611.19,407.35z"/>
<path fill="#FFFFFF" stroke="#000000" stroke-miterlimit="10" d="M579.6,300.31c0,0-14.26,26.74-69.51,25.31
	c-43.38-1.12-64.34-28.39-71.75-40.74c7.9-6.37,28.02-24.52,33.14-47.66c5.7-25.76-0.8-45.14-2.32-49.14
	c1.56,0.83,3.1,1.69,4.62,2.57c8.97,5.21,18.69,10.89,28.63,16.16c22.24,11.83,45.59,21.68,64.13,19.91
	c0.31-0.03,0.62-0.06,0.92-0.1C570.73,236.01,581.42,269.45,579.6,300.31z"/>
<path fill="#FFFFFF" stroke="#000000" stroke-miterlimit="10" d="M658.29,291.15c-0.17,1.13-0.38,2.29-0.63,3.46
	c-1.64,7.62-4.56,16.54-9.96,23.31c-5.2,6.53-12.7,11.08-23.55,10.55c-22.1-1.07-44.55-28.16-44.55-28.16
	c1.82-30.86-8.87-64.3-12.14-73.69c20.05-2.42,36.2-20.85,47.64-30.28c1.4-1.15,2.73-2.17,3.99-3.01
	c5.39,13.78,25.63,63.96,38.92,75.13v0.01C658.66,272.02,659.9,280.84,658.29,291.15z"/>
<path fill="#FFFFFF" stroke="#000000" stroke-miterlimit="10" d="M626.4,376.46c-0.22,0.58-7.43,19.22-15.21,30.89
	c-2.55,3.81-5.15,6.89-7.59,8.35c-7.41,4.45-26.97-0.41-36.67-3.25c1.8-2.98,9.18-16.18,6.24-27.9
	C594.87,384.55,625.92,376.58,626.4,376.46z"/>
<path fill="#FFFFFF" stroke="#000000" stroke-miterlimit="10" d="M566.93,412.45c-0.25,0.4-0.39,0.62-0.39,0.62
	s-37.56,12.35-43.5,9.5c-5.94-2.85-62.49-38.02-62.49-38.02s37.54-8.55,50.85-8.08c13.31,0.48,40.38,11.41,61.77,8.08
	C576.11,396.27,568.73,409.47,566.93,412.45z"/>
<path fill="#FFFFFF" stroke="#000000" stroke-miterlimit="10" d="M465.36,878.99c0.82,5.22,6.3,13.59,11.43,21.03
	c-18.7-6.07-24.8,8.68-26.74,17.25c-6.31-1.79-17.94-0.53-20.03,5.6c-0.01,0.01-0.01,0.01-0.01,0.02
	c-3.09-14.73-17.94-7.01-22.78,2.1c-3.77-9.78-15.12-3.41-20.66,2.48c-2.59-5.29-11.27-5.18-15.25-4.82
	c3.2-11.75,12.12-26.55,12.12-26.55s-3.27-9.27-3.8-11.41c-0.54-2.14,4.27-20.67,5.88-48.48c1.6-27.8-11.23-45.08-17.65-76.45
	c-2.02-9.88-0.57-20.54,2.37-30.51l13.2-16.54c0,0-0.47,38.85,0,50.26c1.9-13.9-1.67-24.24,2.61-17.11
	c4.28,7.13,2.85,17.86,15.33,24.26c12.47,6.39,13.19,9.24,20.67,11.38c7.49,2.14,11.76,7.13,19.61,2.14
	c7.84-4.99-5.71-7.13,17.82-9.27c11.72-1.07,20.78-6.46,26.93-11.61c-4.53,16.45-17.04,32.29-23.96,50.94
	c-8.56,23.05-3.15,33.92-0.66,42.3C464.29,864.37,463.75,868.83,465.36,878.99z"/>
<path fill="#FFFFFF" stroke="#000000" stroke-miterlimit="10" d="M386.57,927.47c-1.37,3.72-2.82,9.2-4.58,13.12
	c-1.36,3.04-2.9,5.14-4.73,4.75c-4.99-1.07-6.89-3.8-7.07-15.38c-0.03-2.14,0.4-4.65,1.13-7.31
	C375.3,922.29,383.98,922.18,386.57,927.47z"/>
<path fill="#FFFFFF" stroke="#000000" stroke-miterlimit="10" d="M551.32,554.69c-2.71,3.34-11.23,8.69-21.81,10.76
	c-3.5,5.38-7.45,12.74-10.51,22.03c0,0,1.07,17.94-3.92,40.04c-4.99,22.1-23.17,56.44-28.87,69.03c-5.7,12.6,1.9,33.51,1.9,54.42
	c0,3.99-0.62,7.9-1.7,11.78v0.01c-6.15,5.15-15.21,10.54-26.93,11.61c-23.53,2.14-9.98,4.28-17.82,9.27
	c-7.85,4.99-12.12,0-19.61-2.14c-7.48-2.14-8.2-4.99-20.67-11.38c-12.48-6.4-11.05-17.13-15.33-24.26
	c-4.28-7.13-0.71,3.21-2.61,17.11c-0.47-11.41,0-50.26,0-50.26l-13.2,16.54c6.39-21.67,19.8-40.06,19.8-40.06s5.99-2.86,9.91-41
	c-11.38-44.04-10.17-92.02-9.5-106.2c10.6-0.62,17.34-10.82,17.34-10.82s10.94-3.33,12.36-7.37c0.79,0.39,1.63,0.43,2.49,0.12
	c3.25-1.14,6.87-7.16,9.51-17.23c0,0,0,0,0-0.01c0.04-0.15,0.08-0.31,0.12-0.47c8.55-6.65,8.79-11.03,8.55-16.68
	c-0.11-2.66-3.91-9.34-8.51-16.08c9.17,2.43,28.48,7.75,38.57,12.09c13.55,5.82,44.91,24.47,63.81,30.65
	c9.55,3.13,19.01,3.83,26.03,3.76c0.21,1,0.44,1.98,0.7,2.9C562.49,526.65,554.41,550.89,551.32,554.69z"/>
<path fill="#FFFFFF" stroke="#000000" stroke-miterlimit="10" d="M616.44,454.46c0,8.39-0.86,24.54-7.14,31.08
	c-8.67,9.03-23.29,22.94-32.56,23.29c-6.05,0.24-13.94,0.16-18.67,0.08c-0.53-6.51,1.21-23.76,2.04-28.12
	c0.24-1.26,0.66-3.17,1.15-5.34c8.94,0.36,16.89-0.36,23.33-2.62c10.55-3.71,20.35-9.75,28.32-15.67
	C614.13,456.26,615.31,455.35,616.44,454.46z"/>
<path fill="#FFFFFF" stroke="#000000" stroke-miterlimit="10" d="M407.23,924.99c-1.03,4.58-3.88,15.51-8.5,21.14
	c-1.78,2.19-3.83,3.57-6.14,3.49c-6.7-0.24-9.49-5.56-10.6-9.03c1.76-3.92,3.21-9.4,4.58-13.12
	C392.11,921.58,403.46,915.21,407.23,924.99z"/>
<path fill="#FFFFFF" stroke="#000000" stroke-miterlimit="10" d="M430.01,922.89c-0.93,6.59-3.07,18.23-7.08,24.34
	c-1.09,1.69-2.33,2.95-3.73,3.58c-7.2,3.23-17.2-2.56-20.47-4.68c4.62-5.63,7.47-16.56,8.5-21.14
	C412.07,915.88,426.92,908.16,430.01,922.89z"/>
<path fill="#FFFFFF" stroke="#000000" stroke-miterlimit="10" d="M742.24,922.06c-0.25,0.37-0.53,0.75-0.82,1.13
	c-7.44,9.73-26.46,6.28-38.94,3.09c-2.33-27.13,15.77-28.76,15.77-28.76l0.97,0.41l24.87,10.46
	C744.09,908.39,748.53,913,742.24,922.06z"/>
<path fill="#FFFFFF" stroke="#000000" stroke-miterlimit="10" d="M486.21,915.17c0-1.91-4.55-8.11-9.41-15.15h-0.01
	c-18.7-6.07-24.8,8.68-26.74,17.25c1.98,0.56,3.43,1.42,3.9,2.53c0.58,1.45-0.85,11.49-4.35,20.51c0.91,4.44,3.62,9.74,11.13,11.46
	c13.72,3.14,20.31-1.02,22.99-15.51C486.39,921.76,486.21,919.09,486.21,915.17z M474.09,945.39c-8.2,0.18-12.65-15.08-8.68-19.96
	c3.98-4.89,15.45,2.39,15.45,2.39S482.29,945.21,474.09,945.39z"/>
<path fill="#FFFFFF" stroke="#000000" stroke-miterlimit="10" d="M762.45,924.25c-1.83,3.77-12.25,0.77-20.21-2.19
	c6.29-9.06,1.85-13.67,1.85-13.67l-24.87-10.46c2.62-2.43,7.46-6.03,12.7-5.65h0.03c0.8,0.16,1.74,0.35,2.75,0.59
	c3.91,0.94,8.85,2.51,10.91,4.83c3.65,4.1,3.29,7.66,4.18,8.38c0.74,0.57,10.68,8.13,12.71,14.28
	C762.96,921.76,763.01,923.09,762.45,924.25z"/>
<path fill="#FFFFFF" stroke="#000000" stroke-miterlimit="10" d="M742.38,890.55c-0.1-0.05-0.22-0.1-0.37-0.13l-0.01-0.01
	c-1-0.27-3.15-0.2-7.3,2.46c-0.92-0.33-1.84-0.52-2.75-0.59h-0.03c-5.24-0.38-10.08,3.22-12.7,5.65l-0.97-0.41
	c0,0-18.1,1.63-15.77,28.76c-0.09-0.02-0.18-0.05-0.27-0.07c-24.24,2.14-40.99-11.4-52.04-16.39s-35.17,7.01-48.47-0.6
	c-13.31-7.6-6.18-27.56-1.91-37.06c4.28-9.51,7.13-30.9,2.38-53.23c-4.75-22.34-24.24-38.5-33.27-58.46
	c-5.36-11.84-3.86-31.87-3.23-51.17c3.97,2.09,8.94,5.43,11.31,8.4c3.8,4.75,1.9,9.5,12.36,20.91
	c10.45,11.41,18.53,15.68,35.64,20.91c17.11,5.23,17.59,16.44,34.22,10.6c6.78-2.39,14.47-5.78,21.2-8.95
	c-0.6,9.3-1.69,18.08-3.5,25.68c-7.48,31.36-1.24,50.97,4.99,55.07c6.24,4.1,24.95,26.02,35.29,31.9
	C726.59,879.17,740.05,888.86,742.38,890.55z"/>
<path fill="#FFFFFF" stroke="#000000" stroke-miterlimit="10" d="M680.4,761.17c-6.73,3.17-14.42,6.56-21.2,8.95
	c-16.63,5.84-17.11-5.37-34.22-10.6c-17.11-5.23-25.19-9.5-35.64-20.91c-10.46-11.41-8.56-16.16-12.36-20.91
	c-2.37-2.97-7.34-6.31-11.31-8.4c0.42-13.24,0.43-26.13-2.47-35.8c-7.13-23.76-44.2-86.02-44.2-86.02
	c3.06-9.29,7.01-16.65,10.51-22.03c10.58-2.07,19.1-7.42,21.81-10.76c3.09-3.8,11.17-28.04,10.1-31.84c-0.26-0.92-0.49-1.9-0.7-2.9
	c-0.66-3.12-1.19-6.46-2.27-8.95c-0.18-0.42-0.31-1.14-0.38-2.09c4.73,0.08,12.62,0.16,18.67-0.08
	c9.27-0.35,23.89-14.26,32.56-23.29c6.28-6.54,7.14-22.69,7.14-31.08c4.55-3.59,8.35-6.99,11.12-9.61
	c19.91,44.53,54.52,172.61,55.76,185.88c1.42,15.33-2.5,24.59-3.21,48.83C679.57,697.93,682.31,732.06,680.4,761.17z"/>
<path fill="#FFFFFF" stroke="#000000" stroke-miterlimit="10" d="M627.56,444.85c-2.77,2.62-6.57,6.02-11.12,9.61
	c-1.13,0.89-2.31,1.8-3.53,2.7c-0.44-3.69-1.13-7.8-1.79-11.35c5.47-4.82,8.63-9.64,10.17-12.77
	C623.14,435.65,625.25,439.69,627.56,444.85z"/>
<path fill="#FFFFFF" stroke="#000000" stroke-miterlimit="10" d="M769.04,915.7c-0.59,1.57-3.79,3.37-6.54,4.66
	c-2.03-6.15-11.97-13.71-12.71-14.28c-0.89-0.72-0.53-4.28-4.18-8.38c-2.06-2.32-7-3.89-10.91-4.83c4.15-2.66,6.3-2.73,7.3-2.46
	l0.01,0.01c0.22,0.12,0.45,0.23,0.68,0.35c0.01,0.01,0.01,0.01,0.02,0.01v0.01h0.01c0.01,0.01,0.01,0.01,0.01,0.01
	c5.39,2.8,13.5,6.96,14.91,7.43c2.13,0.72,1.78,4.99,1.78,4.99S770.11,912.85,769.04,915.7z"/>
<path fill="#FFFFFF" stroke="#000000" stroke-miterlimit="10" d="M558.45,511c1.08,2.49,1.61,5.83,2.27,8.95
	c-7.02,0.07-16.48-0.63-26.03-3.76c-18.9-6.18-50.26-24.83-63.81-30.65c-10.09-4.34-29.4-9.66-38.57-12.09
	c-4.56-6.66-9.91-13.38-13.27-16.36c-0.47-0.41-0.89-0.75-1.27-1.01c-2.91-1.98-14.66-6.75-26.05-12.4
	c1.05-4.69,2.45-10.1,3.83-15.15c4.44,2.81,18.6,11.37,38.38,18.91c9.41,3.59,20.09,6.95,31.61,9.35
	c13.01,2.71,27.1,6.25,41.11,9.53c19.36,4.52,38.57,8.52,54.61,9.13c-0.49,2.17-0.91,4.08-1.15,5.34
	c-0.83,4.36-2.57,21.61-2.04,28.12C558.14,509.86,558.27,510.58,558.45,511z"/>
<path fill="#FFFFFF" stroke="#000000" stroke-miterlimit="10" d="M426.8,497.3c-0.11,8.68-9.5,16.28-9.5,16.28
	s-5.94,6.18-11.17,5.47c-5.23-0.72-36.83-16.16-36.83-16.16s-8.08-14.5,0-23.05c6.52-6.9,30.49-2.67,39.53-0.78
	c0,0.3,0.02,0.6,0.03,0.9C408.86,479.96,426.92,488.63,426.8,497.3z"/>
<path fill="#FFFFFF" stroke="#000000" stroke-miterlimit="10" d="M432.15,506.68c0,0.01,0,0.01,0,0.01
	c-2.64,10.07-6.26,16.09-9.51,17.23c0.88-5.13,3.37-15.05,5.71-16.64C431.21,505.33,432.09,506.59,432.15,506.68z"/>
<path fill="#FFFFFF" stroke="#000000" stroke-miterlimit="10" d="M420.15,523.8c-1.42,4.04-12.36,7.37-12.36,7.37
	c-21.16,0.89-41.78-2.95-50.62-4.89c0.39-0.06,0.8-0.09,1.2-0.1c-10.46-20.92,10.93-23.29,10.93-23.29s31.6,15.44,36.83,16.16
	c5.23,0.71,11.17-5.47,11.17-5.47S422.53,515.48,420.15,523.8z"/>
<path fill="#FFFFFF" stroke="#000000" stroke-miterlimit="10" d="M432.27,506.21c-0.04,0.16-0.08,0.32-0.12,0.47
	c-0.06-0.09-0.94-1.35-3.8,0.6c-2.34,1.59-4.83,11.51-5.71,16.64c-0.86,0.31-1.7,0.27-2.49-0.12c2.38-8.32-2.85-10.22-2.85-10.22
	s9.39-7.6,9.5-16.28c0.12-8.67-17.94-17.34-17.94-17.34c-0.01-0.3-0.03-0.6-0.03-0.9c-0.64-16.67,6.03-20.93,10.21-21.97
	c3.36,2.98,8.71,9.7,13.27,16.36c4.6,6.74,8.4,13.42,8.51,16.08C441.06,495.18,440.82,499.56,432.27,506.21z"/>
<path fill="#FFFFFF" stroke="#000000" stroke-miterlimit="10" d="M695.26,539.01c-6.24,2.34-10.87-6.66-10.87-6.66v-0.44
	c0,0,9.98-4.01,10.25-3.74C694.9,528.43,701.5,536.66,695.26,539.01z"/>
<path fill="#FFFFFF" stroke="#000000" stroke-miterlimit="10" d="M745.61,502.89c-3.72,4.04-20.35,26.62-30.33,28.75
	c-6.94,1.48-12.62-0.79-15.43-2.3v-0.01c-1.74-5.48-6.43-10.69-6.83-13.02c-0.64-3.74,1.71-20.31,4.02-22.27
	c0.11-0.09,0.25-0.17,0.42-0.25c0.46-0.19,1.12-0.31,1.92-0.36c7.71,1.57,9.72,12.55,9.72,12.55s6.42-14.97,19.49-20.68
	c7.92-3.46,14.01-0.39,17.58,2.57c0,0,0,0.01,0.01,0.01C747.05,491.88,748.35,499.91,745.61,502.89z"/>
<path fill="#FFFFFF" stroke="#000000" stroke-miterlimit="10" d="M626.41,376.45c0,0,0,0-0.01,0.01
	c-0.48,0.12-31.53,8.09-53.23,8.09c13.15-15.71,14.23-33.12,14.03-40.32c7.72-1.08,14.14-1.5,18.54-1.03
	C632.59,346.06,626.41,376.45,626.41,376.45z"/>
<path fill="#FFFFFF" stroke="#000000" stroke-miterlimit="10" d="M573.17,384.55c-21.39,3.33-48.46-7.6-61.77-8.08
	c-13.31-0.47-50.85,8.08-50.85,8.08c13.9-11.92,87.26-34.8,126.65-40.32C587.4,351.43,586.32,368.84,573.17,384.55z"/>
<polygon fill="#FFFFFF" stroke="#000000" stroke-miterlimit="10" points="609.36,126.28 602.68,124.78 590.74,128.1 581.02,128.1 
	590.47,126.19 603.21,121.47 "/>
<path fill="#FFFFFF" stroke="#000000" stroke-miterlimit="10" d="M565.58,126.73l-13.9-2.73l-13.89-7.45
	c0.5,0.11,8.45,1.9,13.05,3.29C555.6,121.26,565.58,126.73,565.58,126.73z"/>
<path fill="#FFFFFF" stroke="#000000" stroke-miterlimit="10" d="M587.97,171.28c0,0-7.66-1.42-9.98,0
	c-2.31,1.43-5.34,3.03-5.97,3.03c-0.62,0-18.32-6.25-20.34-6.33s-4.58-2.04-4.58-2.04s13.78-3.92,14.32-4.28
	c0.53-0.36,10.6,4.99,10.6,4.99s6.86-1.6,9-0.71C583.16,166.83,587.97,171.28,587.97,171.28z"/>
<path fill="#FFFFFF" stroke="#000000" stroke-miterlimit="10" d="M594.21,129.94c-2.67,0-10.87,2.49-10.87,2.49s7.13,3.39,9.89,3.39
	s9.89-3.39,9.89-3.39S596.88,129.94,594.21,129.94z M593.23,134.96c-1.15,0-2.08-0.93-2.08-2.08c0-1.15,0.93-2.08,2.08-2.08
	c1.15,0,2.08,0.93,2.08,2.08C595.31,134.03,594.38,134.96,593.23,134.96z"/>
<path fill="none" stroke="#000000" stroke-miterlimit="10" d="M595.31,132.88c0,1.15-0.93,2.08-2.08,2.08
	c-1.15,0-2.08-0.93-2.08-2.08c0-1.15,0.93-2.08,2.08-2.08C594.38,130.8,595.31,131.73,595.31,132.88z"/>
<path fill="#FFFFFF" stroke="#000000" stroke-miterlimit="10" d="M550.55,124.78c-3.45-0.78-11.58,0.1-11.58,0.1
	s8.37,6.66,11.4,7.02c3.03,0.35,12.83-0.89,12.83-0.89S553.99,125.57,550.55,124.78z M551.68,131.03c-1.2,0-2.17-0.97-2.17-2.16
	c0-1.2,0.97-2.16,2.17-2.16c1.19,0,2.16,0.96,2.16,2.16C553.84,130.06,552.87,131.03,551.68,131.03z"/>
<path fill="none" stroke="#000000" stroke-miterlimit="10" d="M553.84,128.87c0,1.19-0.97,2.16-2.16,2.16
	c-1.2,0-2.17-0.97-2.17-2.16c0-1.2,0.97-2.16,2.17-2.16C552.87,126.71,553.84,127.67,553.84,128.87z"/>
<path fill="none" stroke="#000000" stroke-miterlimit="10" d="M595.31,132.88c0,1.15-0.93,2.08-2.08,2.08
	c-1.15,0-2.08-0.93-2.08-2.08c0-1.15,0.93-2.08,2.08-2.08C594.38,130.8,595.31,131.73,595.31,132.88z"/>
<path fill="none" stroke="#000000" stroke-miterlimit="10" d="M553.84,128.87c0,1.19-0.97,2.16-2.16,2.16
	c-1.2,0-2.17-0.97-2.17-2.16c0-1.2,0.97-2.16,2.17-2.16C552.87,126.71,553.84,127.67,553.84,128.87z"/>
<path fill="#FFFFFF" stroke="#000000" stroke-miterlimit="10" d="M579.8,184.29c0,0-10.4-2.87-17.85-2.72c-0.18,0-0.34,0-0.51,0.01
	c-0.01,0-0.01,0-0.01,0c-0.12,0-0.24,0.01-0.36,0.01c0.15-0.02,0.35-0.04,0.59-0.06c0.1-0.01,0.22-0.02,0.35-0.03
	c0.15-0.01,0.32-0.03,0.5-0.04c0.1-0.01,0.21-0.02,0.33-0.02c0.34-0.02,0.72-0.04,1.13-0.06c1.17-0.05,2.58-0.07,4.11-0.01
	c0.23,0,0.47,0.01,0.71,0.03c0.28,0.01,0.56,0.03,0.85,0.05c0.28,0.02,0.57,0.05,0.85,0.08c0.29,0.02,0.57,0.05,0.86,0.09
	c0.19,0.02,0.39,0.05,0.58,0.08c0.23,0.02,0.46,0.06,0.69,0.1c0.4,0.06,0.79,0.13,1.18,0.21c0.4,0.08,0.79,0.17,1.18,0.27
	c0.26,0.06,0.52,0.13,0.78,0.21c0.22,0.06,0.44,0.13,0.66,0.21c0.19,0.06,0.38,0.13,0.57,0.2c0.28,0.1,0.56,0.21,0.83,0.33
	c0.14,0.05,0.27,0.11,0.4,0.18c0.13,0.06,0.26,0.12,0.38,0.19C579.02,183.81,579.42,184.04,579.8,184.29z"/>
<path fill="#FFFFFF" stroke="#000000" stroke-miterlimit="10" d="M594.21,165.94c0.18-9.09-9.45-19.78-9.45-19.78l-1.42-4.82
	C588.69,145.44,595.64,160.06,594.21,165.94z"/>
<path fill="#FFFFFF" stroke="#000000" stroke-miterlimit="10" d="M563.13,140.14c-7.28,0.95-18.64,11.54-24.16,17.96
	c6.67-14.57,23.69-20.15,24.22-20.31C563.17,137.89,562.96,138.65,563.13,140.14z"/>
<path fill="#FFFFFF" stroke="#000000" stroke-miterlimit="10" d="M615.1,196.34c-11.44,9.43-27.59,27.86-47.64,30.28
	c-0.3,0.04-0.61,0.07-0.92,0.1c-18.54,1.77-41.89-8.08-64.13-19.91c-2.41-28.83,10.47-54.44,17.01-65.37
	c-0.43,7.06-0.37,14.44,1.01,19.75c3.56,13.78,20.08,31,30.77,33.02c10.69,2.02,26.38,4.4,32.44,0c4.29-3.11,13.78-15.35,19.28-24.8
	C605.16,175.58,610.13,188.56,615.1,196.34z"/>
<path fill="#FFFFFF" stroke="#000000" stroke-miterlimit="10" d="M611.12,445.81c-8.46,7.46-22.46,14.9-44.58,16.01
	c-0.68,0.04-1.36,0.06-2.06,0.08c-0.68,2.78-2.13,8.77-3.22,13.55c8.94,0.36,16.89-0.36,23.33-2.62
	c10.55-3.71,20.35-9.75,28.32-15.67C612.47,453.47,611.78,449.36,611.12,445.81z M568.48,472.13c-2,0-3.62-1.62-3.62-3.62
	s1.62-3.62,3.62-3.62s3.62,1.62,3.62,3.62S570.48,472.13,568.48,472.13z"/>
<circle fill="#FFFFFF" stroke="#000000" stroke-miterlimit="10" cx="568.48" cy="468.51" r="3.62"/>
<path fill="#FFFFFF" stroke="#000000" stroke-miterlimit="10" d="M449.6,940.31c-2.82,7.29-7,13.91-12.58,14.78
	c-8.72,1.37-12.56-4.32-14.09-7.86c4.01-6.11,6.15-17.75,7.08-24.34c0-0.01,0-0.01,0.01-0.02c2.09-6.13,13.72-7.39,20.03-5.6
	c1.98,0.56,3.43,1.42,3.9,2.53C454.53,921.25,453.1,931.29,449.6,940.31z"/>
<path fill="#FFFFFF" stroke="#000000" stroke-miterlimit="10" d="M474.09,945.39c-8.2,0.18-12.65-15.08-8.68-19.96
	c3.98-4.89,15.45,2.39,15.45,2.39S482.29,945.21,474.09,945.39z"/>
<path fill="#FFFFFF" stroke="#000000" stroke-miterlimit="10" d="M564.48,461.9c-0.68,2.78-2.13,8.77-3.22,13.55
	c-16.04-0.61-35.25-4.61-54.61-9.13c-2.87-5.51-3.07-9.59-2.47-12.39C525.49,458.84,547.67,462.39,564.48,461.9z"/>
</svg>
