<?xml version="1.0" encoding="utf-8"?>
<!-- Generator: Adobe Illustrator 25.2.0, SVG Export Plug-In . SVG Version: 6.00 Build 0)  -->
<svg version="1.1" baseProfile="tiny" id="Layer_1" xmlns="http://www.w3.org/2000/svg" xmlns:xlink="http://www.w3.org/1999/xlink"
	 x="0px" y="0px" viewBox="0 0 1000 1000" overflow="visible" xml:space="preserve">
<path fill="#FFFFFF" stroke="#000000" stroke-miterlimit="10" d="M544.67,243.39c-14.21-12.68-15.92-25.16-25.14-48.13
	c-10.07-25.06-32.17-47.37-53.98-47.37c-21.82,0-40.28,12.03-51.19,35.24c-8.13,17.31-15.49,35.51-19.75,44.64
	c5.25-28.75,5.18-74.17,8.57-82.95c4.19-10.91,20.14-46.71,61.8-46.43c0,0,33.57-1.12,48.67,29.65
	c15.1,30.77,15.94,80.82,21.81,94.25C537.63,227.25,540.95,235.11,544.67,243.39z"/>
<path fill="#FFFFFF" stroke="#000000" stroke-miterlimit="10" d="M576.02,312.48c-3.77-10.73-11.85-21.5-24.61-33.03
	c-10.04-9.06-21.4-35.51-31.05-58.06c-8.1-18.93-14.99-35.13-18.88-36.03c-8.52-1.95-21.95,13.98-32.37,15.95
	c-10.42,1.95-25.1-19.58-37.97-12.03c-12.86,7.56-22.66,35.8-27,52.86c-4.34,17.07-12.3,31.46-19.01,48.67
	c-4.4,11.29-2.13,27.69-0.04,37.63c-12.19-14.95-28.22-31.58-32.54-35.11c0,0,4.75-8.12,12.58-12.03
	c7.83-3.92,14.26-14.55,24.61-36.36c2.01-4.25,3.59-10.22,4.86-17.17c4.26-9.13,11.62-27.33,19.75-44.64
	c10.91-23.21,29.37-35.24,51.19-35.24c21.81,0,43.9,22.32,53.98,47.37c9.22,22.96,10.93,35.45,25.14,48.13
	c6.33,14.16,13.83,29.58,18.77,33.99C563.97,277.57,573.99,290.11,576.02,312.48z"/>
<path fill="#FFFFFF" stroke="#000000" stroke-miterlimit="10" d="M489.83,382.7c-0.87-4.44-4.26-18.2-13.86-24.14
	c-9.17-5.66-22.3-13.45-31.34-21.67c-2.34-2.12-4.4-4.28-6.06-6.44c-5.51-7.17-15.61-17.97-23.14-25.62c0-0.01,0-0.01,0-0.01
	c-3.47-3.53-6.39-6.39-8.05-7.92c-5.24-4.83-2.52-14.26-2.52-14.26c1.05-8.39,11.96-22.23,11.96-22.23s3.3,6.41,8.49,15.91
	c11.43,20.9,32.04,56.75,46.89,72.18C483.94,360.71,488.3,373.54,489.83,382.7z"/>
<path fill="#FFFFFF" stroke="#000000" stroke-miterlimit="10" d="M399.57,322.12c-2.27-2.95-4.35-6.24-5.61-9.5
	c-1.54-3.97,0.64-13.11,3.88-22.85C398.45,296.75,399.71,312.28,399.57,322.12z"/>
<path fill="#FFFFFF" stroke="#000000" stroke-miterlimit="10" d="M641.55,311.58v0.01c-0.01,14.77-2.18,42.95-3.79,66.23
	c-0.89,12.84-1.62,24.2-1.74,31.01c-0.42,24.2,2.93,34.26-1.26,40.14c-1.6,2.22-8.97,6.08-19.26,9.12
	c-8.33,2.46-18.58,4.38-29.2,4.46c-0.01,0-0.01,0-0.01,0c-0.02-0.01-0.04-0.02-0.05-0.04v0.04c-10.35,0.09-21.04-1.58-30.68-6.2
	c6.29-2.44,20.22-8.09,20.83-10.52c0.27-1.11-1.4-4.34-3.7-8.07c12.1,0.39,45.53,1.39,44.44-3.46c-1.13-5.08-39.43-53.46-49.09-64.9
	c11.73-3.48,20.08-4.21,19.94-4.74c-0.36-1.28-30.51-45-38.39-56.44c3.63-4.45,6.01-7.33,6.01-7.33s5.04,7.41,20.7,23.49
	c0.18-4.23,0.06-8.19-0.28-11.89c-2.04-22.37-12.05-34.91-12.58-35.1c6.71,2.52,72.71,22.09,76.9,24.06
	C640.35,301.44,640.7,305.43,641.55,311.58z"/>
<path fill="#FFFFFF" stroke="#000000" stroke-miterlimit="10" d="M476.15,439.93c0-0.01,0-0.01,0-0.01
	c-0.61-6.31-1.62-14.95-3.01-20.53c-2.41-9.64-10.17-18.88-26.02-36.07c-8.87-9.63-23.69-15.18-35.02-18.42
	c-5.43-1.57-10.05-2.59-12.83-3.27h-0.01c-0.89-1.12-1.79-2.21-2.68-3.31c0.15-2.75,0.46-7.58,0.86-12.78c0,0,0,0,0-0.01
	c0.47-6.24,1.09-13.02,1.77-17.37c0.24-1.52,0.35-3.6,0.38-6.03c0.14-9.84-1.12-25.38-1.73-32.34c2.79-8.36,6.38-17.16,9.09-23.49
	c-0.59,4.98-1.25,10.42-2.07,16.35c0,0-2.72,9.44,2.52,14.26c1.66,1.53,4.58,4.39,8.05,7.92c0,0,0,0,0,0.01
	c-1.09,15.03-3.44,44.29-3.44,44.29s43.47,16.57,67.26,57.79c0.01,0,0.01,0,0,0.01c1.77,17.56,3.86,40.95,3.86,40.95
	C480.98,445.45,478.66,442.79,476.15,439.93z"/>
<path fill="#FFFFFF" stroke="#000000" stroke-miterlimit="10" d="M470.3,460.04c-5,4.7-8.38,7.8-8.38,7.8
	c-0.73,0.61-1.51,1.22-2.32,1.85c-29.87-27.35-54.47-69.88-83.11-104.62c-1.45-1.75-2.84-3.47-4.18-5.16
	c-28.47-35.94-33.73-57.64-33.73-57.64c0.38-1.21,1.32-2.33,2.53-3.34c9.44,12.75,50.14,67.88,67.38,92.28
	C418.69,405.62,444.98,433.85,470.3,460.04z"/>
<path fill="#FFFFFF" stroke="#000000" stroke-miterlimit="10" d="M397.43,345.52c0,0.01,0,0.01,0,0.01
	c-0.4,5.2-0.71,10.03-0.86,12.78c-25.2-31.07-44.16-55.62-49.69-62.83c3.02-1.37,5.68-2.15,5.68-2.15
	c4.32,3.53,20.35,20.16,32.54,35.11c5.13,6.3,9.59,12.3,12.21,16.9C397.35,345.4,397.38,345.45,397.43,345.52z"/>
<path fill="#FFFFFF" stroke="#000000" stroke-miterlimit="10" d="M477.45,453.28c-2.59,2.46-5.01,4.75-7.16,6.76
	c-25.32-26.19-51.61-54.42-61.8-68.83c-17.24-24.4-57.94-79.53-67.38-92.28c1.64-1.37,3.78-2.53,5.77-3.45
	c5.53,7.2,24.49,31.75,49.69,62.83c-0.07,1.28-0.11,2.12-0.11,2.34c0,0.21,1.02,0.52,2.79,0.97h0.01
	C422.23,389.85,450.01,423,477.45,453.28z"/>
<path fill="#FFFFFF" stroke="#000000" stroke-miterlimit="10" d="M372.31,359.91c-4.43,4.7-11.58,14.3-14.44,21.23
	c-3.92,9.51-8.95,23.49-18.74,27.68c-0.01-0.02-0.02-0.04-0.04-0.06c0-0.01,0-0.01,0-0.01c-4.26-9.2-25.45-18.41-40.24-28.18
	c-10.97-7.24-21.8-24.15-27.69-40.84c-2.07-5.85-3.53-11.68-4.19-17.04c23.77-14.83,66.29-20.7,71.61-20.42
	C338.58,302.28,343.84,323.97,372.31,359.91z"/>
<path fill="#FFFFFF" stroke="#000000" stroke-miterlimit="10" d="M541.41,290.18c0,0-24.75,22.23-33.98,53.07
	c-9.23,30.84-16.98,52.23-16.98,52.23s0.61-4.48-0.38-11.37c0,0-0.02-0.16-0.07-0.46c-0.02-0.11-0.04-0.21-0.06-0.34
	c-0.01-0.07-0.02-0.14-0.04-0.21c-0.02-0.12-0.05-0.26-0.07-0.4c-1.53-9.16-5.9-21.99-17.64-34.2
	c-14.85-15.43-35.46-51.28-46.89-72.18c5.59-3.88,7.69-20.59,7.8-21.63l0.01-0.04c4.38,6.05,9.18,11.65,14.11,15.61
	c18.04,14.48,34.19,11.12,47.83-4.83c1.59-1.86,3.15-3.9,4.7-6.07c0.09,0.55,2.67,16.44,15.37,18.03c5.13,0.65,9.4,1.11,12.69,1.41
	L541.41,290.18z"/>
<path fill="#FFFFFF" stroke="#000000" stroke-miterlimit="10" d="M536.67,272.01c-1.18,1.97-4.98,3.04-8,3.58
	c-2.24,0.41-4.04,0.54-4.04,0.54l3.19,2.67c-3.28-0.31-7.56-0.77-12.69-1.41c-12.7-1.59-15.28-17.48-15.37-18.03
	c0-0.01,0-0.01,0-0.01c5.97-8.4,11.44-18.66,15.37-26.68c4.7,11.09,10.16,22.72,16.63,31.86l0.11,0.15
	c0.04,0.04,0.06,0.08,0.09,0.13L536.67,272.01z"/>
<path fill="#FFFFFF" stroke="#000000" stroke-miterlimit="10" d="M496.73,195.58c-0.45-0.14-0.92-0.22-1.39-0.26
	c-1.85,2.8-6.67,9.58-10.98,10.75c-5.46,1.46-8.92-1.24-8.92-1.24c-2.21,1.28-4.25,2.2-5.98,2.28c-3.33,0.15-7.16-1.79-11.11-4.06
	c-1.75,1.07-4.76,2.42-8.42,2.17c-4.35-0.31-9.03-4.97-11.33-7.84c-8.87,4.74-14.51,19.06-22,29.02c-0.07,0.09-0.14,0.19-0.2,0.28
	c3.59,7.09,9.59,18.11,16.71,27.95c4.38,6.05,9.18,11.65,14.11,15.61c18.04,14.48,34.19,11.12,47.83-4.83
	c1.59-1.86,3.15-3.9,4.7-6.07c0-0.01,0-0.01,0-0.01c5.97-8.4,11.44-18.66,15.37-26.68C507.27,214.09,501.52,197.02,496.73,195.58z
	 M468,234.46l11.99-5.17c-0.49,0.32-8.47,5.4-12.06,8.59c-2.87-1.61-12.93-6.58-12.93-6.58C458.35,230.82,468,234.46,468,234.46z
	 M482.01,249.05c-1.04-0.26-2.07-0.51-3.1-0.79c-0.86-0.22-2.59-0.68-2.59-0.68s-1.85,1.11-2.94,1.75l-3.3,1.92l-0.56,0.33
	l-0.58-0.32l-3.53-1.97c-1.18-0.65-3.17-1.8-3.17-1.8s-3.87,1.19-5.84,1.72c-2.13,0.59-4.28,1.13-6.47,1.57
	c1.98-1.04,3.99-1.97,6.03-2.85c2.01-0.91,4.06-1.74,6.12-2.55l0.4-0.15l0.45,0.22c1.19,0.61,2.4,1.2,3.58,1.85l3.04,1.58l2.72-1.51
	c1.11-0.62,2.24-1.2,3.37-1.8l0.41-0.22l0.41,0.14c1,0.34,1.99,0.74,2.99,1.12c1,0.38,1.99,0.78,2.98,1.18
	c1.98,0.8,3.94,1.64,5.87,2.59C486.17,250.01,484.09,249.55,482.01,249.05z"/>
<path fill="#FFFFFF" stroke="#000000" stroke-miterlimit="10" d="M488.29,250.37c-2.12-0.36-4.2-0.82-6.29-1.32
	c-1.04-0.26-2.07-0.51-3.1-0.79c-0.86-0.22-2.59-0.68-2.59-0.68s-1.85,1.11-2.94,1.75l-3.3,1.92l-0.56,0.33l-0.58-0.32l-3.53-1.97
	c-1.18-0.65-3.17-1.8-3.17-1.8s-3.87,1.19-5.84,1.72c-2.13,0.59-4.28,1.13-6.47,1.57c1.98-1.04,3.99-1.97,6.03-2.85
	c2.01-0.91,4.06-1.74,6.12-2.55l0.4-0.15l0.45,0.22c1.19,0.61,2.4,1.2,3.58,1.85l3.04,1.58l2.72-1.51c1.11-0.62,2.24-1.2,3.37-1.8
	l0.41-0.22l0.41,0.14c1,0.34,1.99,0.74,2.99,1.12c1,0.38,1.99,0.78,2.98,1.18C484.4,248.58,486.36,249.42,488.29,250.37z"/>
<path fill="#FFFFFF" stroke="#000000" stroke-miterlimit="10" d="M458.35,203.06c-1.75,1.07-4.76,2.42-8.42,2.17
	c-4.35-0.31-9.03-4.97-11.33-7.84c0.08-0.05,0.15-0.09,0.24-0.13c0.8-0.41,1.61-0.66,2.46-0.79h0.01c3.46-0.52,7.32,1.09,11.2,3.24
	l0.02,0.01C454.48,200.78,456.43,201.95,458.35,203.06z"/>
<path fill="#FFFFFF" stroke="#000000" stroke-miterlimit="10" d="M339.1,408.76c0,0,0,0,0,0.01v0.08c-7.19,5.57-7.1,13.83-7.1,13.83
	s-24.47-6.58-49.22-23.92c-9.13-6.4-14.65-13.82-17.98-20.62c-5.67-11.62-4.96-21.47-4.96-21.47s7.53-11.58,11.32-16.94
	c5.9,16.69,16.72,33.6,27.69,40.84C313.65,390.35,334.84,399.56,339.1,408.76z"/>
<path fill="#FFFFFF" stroke="#000000" stroke-miterlimit="10" d="M339.1,408.85c-0.47,21.16-4.5,44.69-10.59,67.74
	c-0.47,1.77-0.95,3.54-1.45,5.3c-4.74,16.98-10.55,33.56-16.83,48.61c-6.92-4.03-12.45-12.76-16.8-22.53
	c-5.08-11.38-8.57-24.15-10.79-32.48c-1.82-6.81-4.03-13.01-6.03-18.64c-2.9-8.19-5.39-15.19-5.72-21.15
	c-0.44-7.98-6.5-24.72-13.44-36.47c2.55-8.42,5.44-16.16,7.34-21.07c3.33,6.8,8.85,14.22,17.98,20.62
	C307.53,416.1,332,422.68,332,422.68S331.91,414.42,339.1,408.85z"/>
<path fill="#FFFFFF" stroke="#000000" stroke-miterlimit="10" d="M310.23,530.49v0.01c-9.11,21.84-19.2,40.45-28.42,52.29
	c-15.11,19.38-31.86,33.36-43.11,41.59c0,0.01-0.01,0.01-0.01,0.01c-7.9,5.78-13.09,8.73-13.09,8.73s-4.46-1.61-11.02-4.45
	c9.31-6.54,24.01-17.75,35.63-30.7c16.04-17.9,39.25-46.16,43.23-90.03C297.77,517.74,303.31,526.47,310.23,530.49z"/>
<path fill="#FFFFFF" stroke="#000000" stroke-miterlimit="10" d="M276.61,456.84c-3.19,25.06-11.53,52.91-31.45,68.74
	c-23.95,19.03-46,67.63-55.49,90.64c-10.33-6.07-20.14-13.36-25.06-21.11c1.2-5.72,2.85-11.45,4.84-17.11
	c13.36-38.05,41.84-73.1,49.14-83.57c8.39-12.03,31.33-51.47,33.57-71.74c0.8-7.23,2.91-15.63,5.3-23.47
	c6.94,11.76,13.01,28.49,13.44,36.47C271.22,441.64,273.72,448.65,276.61,456.84z"/>
<path fill="#FFFFFF" stroke="#000000" stroke-miterlimit="10" d="M385.62,508.61c-7.47,2.99-13.26,4.96-16.01,5.38
	c-10.91,1.68-26.01,1.12-30.48-4.76c-2.59-3.4-7.99-16.72-12.08-27.35c0.49-1.75,0.98-3.53,1.45-5.3
	c6.1-23.05,10.12-46.57,10.59-67.74c0.01,0,0.02-0.01,0.04-0.02c0,0,0.01,0.01,0.02,0.05c0.95,2.06,31.34,67.81,34.1,77.99
	C374.68,492.11,380.35,500.68,385.62,508.61z"/>
<path fill="#FFFFFF" stroke="#000000" stroke-miterlimit="10" d="M393.39,561.41c0,2.51,2.99,10.73,4.71,15.24
	c-17.45,0.21-32.2-0.87-37.15-4.77c-0.39-0.31-0.77-0.64-1.14-1c-12.39-11.95-18.78-54.32-20.68-61.65
	c4.47,5.87,19.57,6.44,30.48,4.76c2.74-0.42,8.53-2.39,16.01-5.38c5.13,7.7,9.89,14.79,10.06,17.69c0.33,5.87,3.3,14.82,4.84,15.94
	C402.07,543.36,393.39,557.91,393.39,561.41z"/>
<path fill="#FFFFFF" stroke="#000000" stroke-miterlimit="10" d="M454.22,538.6c-1.26,6.51,4.28,25.95,4.87,34.45
	c-13.68,1.12-32.71,2.7-50.48,3.34c-0.21-5.33-0.71-13.61-1.79-17.94c-1.68-6.71,7.54-8.66,7-12.58c-0.53-3.92-4.5-5.87-5.61-7.27
	c-1.12-1.4,0.28-20.69-3.35-26.42c-1.09-1.74-3.64-4.96-6.78-8.82c0.59-0.26,1.17-0.53,1.77-0.8c0.01,0,0.01,0,0.01,0
	c9,1.55,23.86,3.59,32.41,1.92c3.85-0.75,13.84-5.86,26.31-12.96c0.99,6.58,2.46,17.4,2.14,22.04
	C460.23,520.5,455.55,531.75,454.22,538.6z"/>
<path fill="#FFFFFF" stroke="#000000" stroke-miterlimit="10" d="M474.23,482.38c-1.2,0.71-2.39,1.41-3.57,2.12
	c-2.35,1.39-4.66,2.75-6.92,4.06c-1.77,1.02-3.48,2.01-5.17,2.97c-12.46,7.1-22.46,12.21-26.31,12.96
	c-8.56,1.67-23.41-0.36-32.41-1.92c20.42-9.1,45.62-22.06,59.74-32.87c3.66,3.35,7.4,6.49,11.24,9.35
	C470.84,479.04,472.04,480.25,474.23,482.38z"/>
<path fill="#FFFFFF" stroke="#000000" stroke-miterlimit="10" d="M459.19,530.78c-0.62,5.87,6.24,32.27,3.75,41.51
	c-0.19,0.16-0.35,0.33-0.52,0.49c-1.07,0.08-2.18,0.16-3.33,0.27c-0.59-8.5-6.13-27.94-4.87-34.45c1.33-6.85,6.01-18.1,6.5-25.03
	c0.32-4.65-1.15-15.47-2.14-22.04c1.68-0.95,3.4-1.94,5.17-2.97c1.37,5.1,4.14,16.9,2.37,23.62
	C463.8,520.91,459.82,524.9,459.19,530.78z"/>
<path fill="#FFFFFF" stroke="#000000" stroke-miterlimit="10" d="M477.44,552.37c0,2.31-8.14,15.61-8.14,15.61
	c-2.68,1.46-4.88,2.98-6.36,4.31c2.48-9.24-4.38-35.64-3.75-41.51c0.64-5.87,4.61-9.86,6.92-18.6c1.78-6.72-1-18.53-2.37-23.62
	c2.26-1.31,4.57-2.67,6.92-4.06c2.06,3.72,7.39,14.54,5.52,23.41c-2.31,10.91-12.7,18.25-9.5,26.01
	C469.88,541.69,477.44,550.07,477.44,552.37z"/>
<path fill="#FFFFFF" stroke="#000000" stroke-miterlimit="10" d="M464.03,587.05c-1.2-0.12-2.85-0.62-4.92-2.06
	c-4.75-3.31-9.23-5.28-9.23-5.28s-3.92,7.57,0,10.36c-1.95,0.56-13.98,2.8-14.82,5.04c-0.6,1.57-10.83,7.56-16.88,10.98
	c-1.46-0.19-2.92-0.36-4.37-0.53c-16.91-2-33.71-3.45-56.79-6.39c-1.91-3.38-0.13-9.62,1.12-13.06c0.54-1.49,0.98-2.46,0.98-2.46
	l0.68-12.75c0.38,0.36,0.75,0.69,1.14,1c4.94,3.9,19.69,4.98,37.15,4.77c3.41-0.05,6.93-0.13,10.51-0.26
	c17.77-0.65,36.8-2.22,50.48-3.34c1.15-0.11,2.26-0.19,3.33-0.27c-0.68,0.68-1.15,1.31-1.35,1.84c-1.39,3.7,1.68,5.94,2.25,7.33
	C463.48,582.39,463.47,584.49,464.03,587.05z"/>
<path fill="#FFFFFF" stroke="#000000" stroke-miterlimit="10" d="M569.03,608.53c-0.93,1.98-2.34,5.63-4.64,8.3
	c-2.57,3.01-6.25,4.79-11.58,1.52c-4.48-2.74-9.4-6.96-13.81-10.82c-4.01-3.53-7.59-6.79-10.02-8.43c-0.89-0.62-1.64-1.01-2.19-1.11
	c-3.64-0.66-21.87-3.45-21.87-3.45c4.67-2.84,4.6-7.16,5.08-9.56c0.12-0.58,0.22-1.24,0.33-1.95c4.8-4.18,11.83-10.18,13.94-8.42
	c3.07,2.58,0,8.73,0,8.73s20.41,3.64,26.01,8.39c1.17,0.99,2.58,1.54,4.11,1.84c5.8,1.13,13.37-1.47,16.03,2.08
	C573.79,600.14,570.99,604.33,569.03,608.53z"/>
<path fill="#FFFFFF" stroke="#000000" stroke-miterlimit="10" d="M413.82,605.55c-2.21,0.71-4.13,1.4-5.79,2.08c0,0-0.01,0-0.02,0
	c-1.87,0.31-4.08,1.2-6.43,3.24c-0.01,0.01-0.02,0.02-0.04,0.02c-4.45,2.9-4.24,4.91-4.24,4.91s-10.91,5.31-20.14,10.35
	c-5.78,3.17-17.38,3.79-25.23,3.81c0.11-0.15,0.22-0.31,0.34-0.46c-3.37-15.25-2.66-37.53,5.87-43.41
	c-1.25,3.45-3.02,9.69-1.12,13.06C380.12,602.1,396.91,603.55,413.82,605.55z"/>
<path fill="#FFFFFF" stroke="#000000" stroke-miterlimit="10" d="M406.37,631.38c-16.49,10.53-58.85,33.92-58.85,33.92
	s-7.4-20.02,4.41-35.34c7.85-0.02,19.46-0.65,25.23-3.81c9.23-5.04,20.14-10.35,20.14-10.35
	C392.3,625.83,399.91,630.47,406.37,631.38z"/>
<path fill="#FFFFFF" stroke="#000000" stroke-miterlimit="10" d="M448.33,608.41c-2.14,0.08-4.15,0.12-6.03,0.11
	c4.14-3.48,7.78-6.5,8.98-6.98C452.34,601.11,450.99,604.24,448.33,608.41z"/>
<path fill="#FFFFFF" stroke="#000000" stroke-miterlimit="10" d="M601.44,639.71c-20.19,11.32-68.92,30.2-70.44,31.4
	c0,0-6.16,1.52-15.96,3.1c-4.66,0.75-10.16,1.52-16.21,2.13c-7.46,0.78-15.75,1.32-24.39,1.34h-0.01
	c-4.33,0.02-8.74-0.09-13.17-0.36c-1.74-0.12-3.47-0.25-5.21-0.42c-2.71-0.25-5.41-0.56-8.11-0.97c-12.59-1.86-21-3.84-27.05-5.66
	c13.18,0.35,28.17-3.57,28.17-3.57s9.85,4.68,23.33,7.12c7.09,1.29,15.18,1.95,23.37,0.99c0.81-0.09,1.6-0.2,2.37-0.29
	c6.26-0.85,11.3-1.93,15.39-3.1c10.23-2.91,14.58-6.27,17.48-7.24c4.2-1.39,29.08-3.14,34.4-10.52c5.31-7.37,5.59-18.91-1.12-22.09
	c-6.72-3.18-30.77,3.53-33.29,3.53c-1.98,0-16-16.96-23.48-26.38c2.88,1.35,5.92,2.33,8.93,2.6c0.56-0.89-0.55-2.64-2.44-4.66
	c4.35,2.39,12.21,7.5,16.98,8.3c6.71,1.12,10.07,0,10.07,0l-2.06-7.43c4.4,3.86,9.32,8.07,13.81,10.82
	c5.33,3.27,9.02,1.49,11.58-1.52c8.96,2.22,24.36,5.53,34.1,4.79c1.66,7.65,2.7,16.35,2.7,16.35S601.28,638.62,601.44,639.71z"/>
<path fill="#FFFFFF" stroke="#000000" stroke-miterlimit="10" d="M456.04,676.89c-0.38,0.54-0.75,1.18-1.12,1.88h-0.01
	c-5.39,1.05-11.12,1.68-16.6,1.35c-12.41-0.74-24.32,0.47-34.03,1.54c-5,0.54-9.43,1.06-13.04,1.26h-0.09
	c-8.3,0.44-30.92,14.85-44.16,26.73c-0.01,0.01-0.04,0.04-0.06,0.05c-0.02,0.02-0.05,0.05-0.08,0.08c-0.06,0.05-0.14,0.12-0.24,0.21
	c-1.53,1.37-7.07,6.31-12.09,10.89v0.01c-4.24,3.87-8.11,7.49-8.83,8.45c-1.35,1.81-30.14,46.38-44.67,66.06
	c3.12-17.43,6.83-33.3,11.11-48.73c8.39-30.2,51.74-68.99,51.74-68.99l3.64-12.38c0,0,34.12-2.8,48.39-2.52
	c2.86,0.06,5.06,0.39,7.09,0.91c0.01,0,0.01,0.01,0.01,0.01c3.14,4.7,10.2,6.36,17.87,6.56h0.01c6.05,1.82,14.45,3.8,27.05,5.66
	C450.63,676.32,453.34,676.64,456.04,676.89z"/>
<path fill="#FFFFFF" stroke="#000000" stroke-miterlimit="10" d="M510.35,583.03c-0.11,0.72-0.21,1.38-0.33,1.95
	c-0.48,2.4-0.41,6.72-5.08,9.56c-0.94,0.56-2.07,1.08-3.44,1.49c-2.35,0.73-5.43,1.2-9.42,1.26c-2.06,0.04-4.37-0.05-6.96-0.25
	c-1.49,0.35-2.88,0.6-4.18,0.75c-12.26,1.42-15.77-5.58-16.91-10.76c-0.56-2.55-0.55-4.66-0.72-5.1c-0.56-1.39-3.64-3.64-2.25-7.33
	c0.2-0.53,0.67-1.15,1.35-1.84c0.16-0.16,0.33-0.33,0.52-0.49c1.47-1.33,3.67-2.85,6.36-4.31c3.93-2.14,8.86-4.19,13.97-5.44
	c2.2-0.53,4.43-0.92,6.61-1.09c3.2-0.27,9.05,1.33,13.64,3.35c3.27,1.44,5.91,3.07,6.5,4.4
	C511.23,571.95,510.97,578.6,510.35,583.03z"/>
<path fill="#FFFFFF" stroke="#000000" stroke-miterlimit="10" d="M541.07,614.95c0,0-3.37,1.12-10.07,0
	c-4.78-0.8-12.63-5.91-16.98-8.3c-1.28-1.37-2.92-2.87-4.61-4.33c-3-2.58-6.18-5.01-7.9-6.29c1.37-0.41,2.5-0.93,3.44-1.49
	c0,0,18.23,2.79,21.87,3.45c0.55,0.09,1.29,0.48,2.19,1.11c2.42,1.64,6,4.9,10.02,8.43L541.07,614.95z"/>
<path fill="#FFFFFF" stroke="#000000" stroke-miterlimit="10" d="M480.95,597.81c-2.52,3.4-5.28,6.39-8.05,8.96
	c-4.18,3.86-8.39,6.77-11.78,8.7c-3.34,1.91-5.91,2.87-6.9,2.88c-2.65,0.02,0-4.79,0-4.79c-3.21,1.68-11.89,10.63-25.31,12.59
	c6.86-0.99,14.98-10.79,19.42-17.74c2.66-4.17,4-7.3,2.95-6.87c-1.2,0.48-4.84,3.5-8.98,6.98c-5.51,4.63-11.92,10.09-14.79,11.58
	c-5.04,2.62-10.63,10.52-17.07,11.36c-1.19,0.15-2.6,0.14-4.07-0.07c-6.46-0.92-14.08-5.56-9.06-15.58c1.44-2.11,2.86-3.7,4.24-4.91
	c0.01,0,0.02-0.01,0.04-0.02c1.53-0.99,3.6-2.08,6.43-3.24c0.01,0,0.02,0,0.02,0c1.66-0.68,3.58-1.38,5.79-2.08
	c1.45,0.16,2.91,0.34,4.37,0.53c6.05-3.43,16.28-9.42,16.88-10.98c0.84-2.24,12.86-4.47,14.82-5.04c-3.92-2.79,0-10.36,0-10.36
	s4.47,1.98,9.23,5.28c2.07,1.44,3.72,1.94,4.92,2.06C465.18,592.23,468.68,599.23,480.95,597.81z"/>
<path fill="#FFFFFF" stroke="#000000" stroke-miterlimit="10" d="M564.28,631.56c-6.72-3.18-30.77,3.53-33.29,3.53
	c-1.98,0-16-16.96-23.48-26.38c-2.95-1.38-5.76-3.15-8.2-4.98c-3.12-2.32-5.67-4.71-7.23-6.44c-2.06,0.04-4.37-0.05-6.96-0.25
	c-1.49,0.35-2.88,0.6-4.18,0.75c-2.52,3.4-5.28,6.39-8.05,8.96c-4.18,3.86-8.39,6.77-11.78,8.7c-3.9,7.56-11.77,21.3-18.78,24.1
	c-9.78,3.92-29.08,0.28-34.39,2.24c-5.32,1.97-13.49,9.12-4.94,21.89c0.01,0,0.01,0.01,0.01,0.01c3.14,4.7,10.2,6.36,17.87,6.56
	h0.01c13.18,0.35,28.17-3.57,28.17-3.57s9.85,4.68,23.33,7.12c7.09,1.29,15.18,1.95,23.37,0.99c0.81-0.09,1.6-0.2,2.37-0.29
	c6.26-0.85,11.3-1.93,15.39-3.1c10.23-2.91,14.58-6.27,17.48-7.24c4.2-1.39,29.08-3.14,34.4-10.52
	C570.7,646.29,570.99,634.74,564.28,631.56z M407.38,656.91c-3.92-4.48-0.55-8.96,5.04-9.93c5.59-0.98,15.38,5.03,15.38,5.03
	C422.76,659.97,411.29,661.39,407.38,656.91z M510.87,649.07c-1.11,6.16-10.36,19.08-25.07,19.02
	c-14.72-0.06-25.08-7.54-25.08-20.51c0-12.96,26.36-33.58,26.36-33.58S511.97,642.93,510.87,649.07z M557.29,650.19
	c-6.44,3.64-14.55,1.4-14.27-3.21c0.28-4.61,9.07-10.58,17.62-12.17C565.15,633.97,563.71,646.56,557.29,650.19z"/>
<path fill="#FFFFFF" stroke="#000000" stroke-miterlimit="10" d="M461.12,615.46c-3.9,7.56-11.77,21.3-18.78,24.1
	c-9.78,3.92-29.08,0.28-34.39,2.24c-5.32,1.97-13.49,9.12-4.94,21.89c-2.02-0.52-4.23-0.85-7.09-0.91
	c-14.26-0.28-48.39,2.52-48.39,2.52s42.36-23.39,58.85-33.92c1.47,0.21,2.88,0.22,4.07,0.07c6.44-0.84,12.03-8.73,17.07-11.36
	c2.87-1.49,9.29-6.96,14.79-11.58c1.87,0.01,3.88-0.02,6.03-0.11c-4.44,6.94-12.56,16.75-19.42,17.74
	c13.42-1.97,22.09-10.91,25.31-12.59c0,0-2.65,4.81,0,4.79C455.21,618.33,457.77,617.37,461.12,615.46z"/>
<path fill="#FFFFFF" stroke="#000000" stroke-miterlimit="10" d="M557.29,650.19c-6.44,3.64-14.55,1.4-14.27-3.21
	c0.28-4.61,9.07-10.58,17.62-12.17C565.15,633.97,563.71,646.56,557.29,650.19z"/>
<path fill="#FFFFFF" stroke="#000000" stroke-miterlimit="10" d="M427.8,652.01c-5.04,7.97-16.5,9.38-20.42,4.91
	c-3.92-4.48-0.55-8.96,5.04-9.93C418,646,427.8,652.01,427.8,652.01z"/>
<path fill="#FFFFFF" stroke="#000000" stroke-miterlimit="10" d="M510.87,649.07c-1.11,6.16-10.36,19.08-25.07,19.02
	c-14.72-0.06-25.08-7.54-25.08-20.51c0-12.96,26.36-33.58,26.36-33.58S511.97,642.93,510.87,649.07z"/>
<path fill="#FFFFFF" stroke="#000000" stroke-miterlimit="10" d="M485.42,475.58c-3.75,2.31-7.51,4.59-11.19,6.8
	c-2.19-2.13-3.39-3.34-3.39-3.34c-3.84-2.86-7.58-5.99-11.24-9.35c0.81-0.62,1.59-1.24,2.32-1.85c0,0,3.38-3.11,8.38-7.8
	C475.43,465.35,480.51,470.56,485.42,475.58z"/>
<path fill="#FFFFFF" stroke="#000000" stroke-miterlimit="10" d="M493.42,470.62c-2.65,1.66-5.33,3.32-8,4.96
	c-4.91-5.01-9.99-10.23-15.12-15.54c2.14-2,4.57-4.3,7.16-6.76C482.8,459.19,488.13,464.98,493.42,470.62z"/>
<path fill="#FFFFFF" stroke="#000000" stroke-miterlimit="10" d="M538.09,440.58c-5.59,4.71-20.94,15.03-38.33,26.05
	c-2.39-2.58-3.72-4.07-3.72-4.07s-5.06-5.73-12.91-14.68c6.37-6.13,13.06-12.7,18.36-18.21c4.46-4.65,7.93-8.53,9.38-10.77
	c2.99-4.63,9.5-11.31,15.39-16.95c0.61,6.1,1.73,13.16,3.77,20.21c1.82,6.31,4.38,12.63,7.96,18.24
	C538.02,440.47,538.06,440.53,538.09,440.58z"/>
<path fill="#FFFFFF" stroke="#000000" stroke-miterlimit="10" d="M413.82,545.88c0.54,3.92-8.69,5.87-7,12.58
	c1.08,4.33,1.58,12.61,1.79,17.94c-3.58,0.13-7.1,0.21-10.51,0.26c-1.72-4.51-4.71-12.73-4.71-15.24c0-3.51,8.67-18.05,7.13-19.17
	c-1.54-1.12-4.51-10.06-4.84-15.94c-0.18-2.9-4.93-9.99-10.06-17.69c-5.27-7.93-10.95-16.5-12.37-21.75
	c-2.75-10.18-33.14-75.93-34.1-77.99c0.86,1.12,17.95,23.53,20.67,26.53c2.8,3.07,12.59,33.56,17.35,41.39
	c3.15,5.19,12.7,16.52,19.83,25.26c0.36,0.45,0.72,0.88,1.07,1.31c3.14,3.86,5.68,7.07,6.78,8.82c3.64,5.73,2.24,25.02,3.35,26.42
	C409.33,540,413.3,541.96,413.82,545.88z"/>
<path fill="#FFFFFF" stroke="#000000" stroke-miterlimit="10" d="M459.6,469.69c-14.12,10.82-39.32,23.77-59.74,32.87
	c0,0,0,0-0.01,0c-1.02-0.18-1.98-0.34-2.84-0.51c-7.13-8.73-16.68-20.07-19.83-25.26c-4.75-7.84-14.55-38.32-17.35-41.39
	c-2.72-3-19.81-25.41-20.67-26.53c-0.01-0.04-0.02-0.05-0.02-0.05c9.79-4.19,14.82-18.17,18.74-27.68
	c2.86-6.93,10.02-16.54,14.44-21.23c1.34,1.68,2.73,3.4,4.18,5.16C405.13,399.81,429.73,442.34,459.6,469.69z"/>
<path fill="#FFFFFF" stroke="#000000" stroke-miterlimit="10" d="M586.24,462.55c-0.81,9.43-2.8,29.84-5.74,42.22
	c-1.75,7.37-2.94,19.13-3.27,30.52c-29.6-18.01-65.92-56.14-77.47-68.65c17.4-11.02,32.74-21.34,38.33-26.05
	c3.99,6.21,9.23,11.57,16.11,15.1c0.45,0.24,0.89,0.45,1.35,0.66C565.2,460.97,575.89,462.64,586.24,462.55z"/>
<path fill="#FFFFFF" stroke="#000000" stroke-miterlimit="10" d="M587.98,364.65c0.14,0.53-8.2,1.26-19.94,4.74h-0.01
	c-12.36,3.66-28.48,10.36-42.39,23.06c-9.87,9.03-18.64,21.08-24.15,37.23c-5.3,5.51-11.99,12.08-18.36,18.21c0,0,0-0.01-0.01-0.01
	c0,0,4.96-17.78,10.4-26.59c1.86-3.01,4.44-10.5,7.21-19.49c21.88-33.83,72.35-46.16,72.35-46.16s-20.19-34.44-26.52-43.68
	c1.07-1.34,2.1-2.59,3.02-3.74C557.48,319.65,587.62,363.36,587.98,364.65z"/>
<path fill="#FFFFFF" stroke="#000000" stroke-miterlimit="10" d="M573.08,355.63c0,0-50.47,12.33-72.35,46.16
	c5.36-17.34,11.46-40.26,14.59-47.35c3.2-7.25,20.37-29.05,31.24-42.49C552.9,321.19,573.08,355.63,573.08,355.63z"/>
<path fill="#FFFFFF" stroke="#000000" stroke-miterlimit="10" d="M479.25,406.91c-23.8-41.22-67.26-57.79-67.26-57.79
	s2.34-29.26,3.44-44.29c7.53,7.65,17.63,18.46,23.14,25.62c1.66,2.15,3.72,4.32,6.06,6.44c8.63,15.96,31.61,43.27,33.08,55.58
	C478.14,395.94,478.68,401.1,479.25,406.91z"/>
<path fill="#FFFFFF" stroke="#000000" stroke-miterlimit="10" d="M563.85,422.95c0,0.22-0.2,0.53-0.55,0.92
	c-3.27,3.57-20.13,13.5-24.35,15.97c0,0.01-0.01,0.01-0.01,0.01c-0.61,0.35-0.95,0.55-0.95,0.55c-3.58-5.61-6.13-11.93-7.96-18.24
	c9.19-5.78,25.99-16.76,28.59-15.15C561.97,409.11,563.85,420.45,563.85,422.95z"/>
<path fill="#FFFFFF" stroke="#000000" stroke-miterlimit="10" d="M526.26,401.94v0.01c-5.9,5.64-12.41,12.32-15.39,16.95
	c-1.45,2.24-4.92,6.12-9.38,10.77c5.51-16.15,14.28-28.2,24.15-37.23C525.72,395.15,525.91,398.38,526.26,401.94z"/>
<path fill="#FFFFFF" stroke="#000000" stroke-miterlimit="10" d="M576.39,445.82c-0.61,2.44-14.55,8.09-20.83,10.52
	c-0.46-0.21-0.91-0.42-1.35-0.66c-6.89-3.53-12.12-8.89-16.11-15.1c0.32-0.26,0.6-0.51,0.85-0.73c0,0,0.01,0,0.01-0.01
	c4.23-2.47,21.08-12.41,24.35-15.97c2,2.77,6.26,8.79,9.39,13.88C574.99,441.48,576.66,444.72,576.39,445.82z"/>
<path fill="#FFFFFF" stroke="#000000" stroke-miterlimit="10" d="M572.69,437.75c-3.13-5.08-7.39-11.11-9.39-13.88
	c0.35-0.39,0.55-0.69,0.55-0.92c0-2.51-1.88-13.84-5.24-15.94c-2.6-1.61-19.4,9.37-28.59,15.15c-2.04-7.05-3.15-14.11-3.77-20.21
	v-0.01c-0.35-3.57-0.54-6.79-0.62-9.5c13.91-12.7,30.04-19.4,42.39-23.06h0.01c9.66,11.44,47.96,59.81,49.09,64.9
	C618.22,439.14,584.79,438.14,572.69,437.75z"/>
<path fill="#FFFFFF" stroke="#000000" stroke-miterlimit="10" d="M960.3,649.5c-2.14-0.28-16.96-3.94-38.03-11.45
	c-40.64-14.47-104.55-43.23-145.72-89.65c-19.53-22.02-35.33-41.22-48.21-57.64c-0.64-1.34-1.17-2.58-1.59-3.72
	c0,0-0.28,0.25-0.79,0.68c-26.73-34.36-40.29-56-48.41-65.39c-5.34-6.17-14.63-16.56-23.39-26.29l-0.01-0.01
	c-2.66-2.97-5.27-5.87-7.72-8.58c-3.33-3.71-6.34-7.04-8.67-9.63c1.61-23.28,3.78-51.46,3.79-66.23
	c2.01,14.64,6.83,41.47,16.28,55.45c13.43,19.84,33.57,43.34,41.54,50.89c7.97,7.54,74.68,66.13,98.17,87.18
	c23.49,21.06,72.15,70.14,108.65,87.76c36.5,17.62,70.9,22.07,71.32,28.86C977.92,628.52,966.59,650.33,960.3,649.5z"/>
<path fill="#FFFFFF" stroke="#000000" stroke-miterlimit="10" d="M659.39,519.32c-3.47-5.46-6.97-11.68-10.09-18.48
	c-8.43-18.37-24.96-34.8-33.8-42.76c10.29-3.04,17.65-6.9,19.26-9.12c4.19-5.87,0.84-15.94,1.26-40.14
	c0.12-6.81,0.85-18.17,1.74-31.01c2.33,2.59,5.34,5.92,8.67,9.63c4.1,15.01,15.96,55.95,11.25,80.4
	C654.93,482.16,655.66,501.68,659.39,519.32z"/>
<path fill="#FFFFFF" stroke="#000000" stroke-miterlimit="10" d="M725.96,487.72c-3.79,3.27-20.26,17.45-27.16,22.63
	c-1.01,0.75-1.94,1.68-2.8,2.73c-1.28-1.66-2.67-3.5-4.19-5.52c-11.75-15.67-4.47-13.99-14.25-41.39
	c-7.98-22.33-19.34-55.78-23.39-70.14c8.76,9.73,18.04,20.13,23.39,26.29C685.67,431.72,699.23,453.37,725.96,487.72z"/>
<path fill="#FFFFFF" stroke="#000000" stroke-miterlimit="10" d="M695.99,513.09c-5.86,7.1-8.85,20.07-13.97,28.6
	c-2.72,4.53-6.21,8.47-9.19,11.4c-6.07-8.11-10.63-20.4-13.44-33.77c-3.73-17.64-4.46-37.17-1.71-51.48
	c4.71-24.45-7.16-65.39-11.25-80.4c2.45,2.71,5.06,5.61,7.72,8.58l0.01,0.01c4.05,14.36,15.41,47.81,23.39,70.14
	c9.78,27.4,2.51,25.73,14.25,41.39C693.32,509.59,694.71,511.43,695.99,513.09z"/>
<path fill="#FFFFFF" stroke="#000000" stroke-miterlimit="10" d="M734.13,616.7c-2.95,2.21-5.51,4.01-7.24,5.2
	c-1.22-1.93-2.86-4.4-6.27-8.34c-7.27-8.38-31.6-19.29-38.04-27.68c-1.25-1.64-2.61-3.67-4-5.88c2.5-1.44,5.72-2.8,9.39-4.06
	c14.23-4.88,35.03-8.26,45.37-9.07c15.95-1.26,26.01,4.61,27.69,18.14C762.15,594.06,745.31,608.32,734.13,616.7z"/>
<path fill="#FFFFFF" stroke="#000000" stroke-miterlimit="10" d="M238.68,624.41c-13.09,24.29-33.79,31.39-33.79,31.39
	s-1.95-0.13-5.77,0.19h-0.01c-1.02,0.07-2.17,0.18-3.46,0.33c-4.15,0.49-9.67,1.41-16.49,3.11c-1.98,0.49-4.26,0.77-6.73,0.87h-0.01
	c-11.91,0.46-28.4-3.15-38.64-5.79c-5.67-1.46-9.43-2.62-9.43-2.62s18.17-60.41,32.16-69.08c6.85-4.25,10.76-5.08,12.95-4.81
	c-1.99,5.66-3.64,11.39-4.84,17.11c4.92,7.76,14.72,15.04,25.06,21.11c8.82,5.2,18.02,9.51,24.89,12.48h0.01
	c6.56,2.84,11.02,4.45,11.02,4.45S230.78,630.18,238.68,624.41z"/>
<path fill="#FFFFFF" stroke="#000000" stroke-miterlimit="10" d="M172.41,660.29c-6.63,7.04-19.27,19.83-19.27,19.83l-38.65,58.11
	c-6.77-0.75-14.49,0.06-14.49,0.06s-5.38-7.62-13.15-10.35c1.47-6.92-7.64-9.35-7.64-9.35c1.19-1.46,1.61-2.66,0.93-3.52
	c0,0,9.65-1.68,16.36-5.43c6.72-3.73,14.05-4.15,19.93-4.99c5.87-0.84,19.51,0.21,20.14-11.53c0.55-10.29-6.6-20.4-16.01-21.49
	c1.66-1.58,2.98-2.98,3.78-4.1c3.81-5.31,6.51-9.17,9.43-13.04C144.01,657.14,160.5,660.75,172.41,660.29z"/>
<path fill="#FFFFFF" stroke="#000000" stroke-miterlimit="10" d="M100.01,738.29c0,0-17.05,21.26-25.16,26.86
	c-8.11,5.59-13.71,2.52-13.98,0c-0.28-2.48,25.19-36.13,25.98-37.18c0-0.01,0.01-0.01,0.01-0.01c0.01-0.01,0.01-0.01,0.01-0.01
	C94.63,730.67,100.01,738.29,100.01,738.29z"/>
<path fill="#FFFFFF" stroke="#000000" stroke-miterlimit="10" d="M86.86,727.94c0,0,0,0-0.01,0.01c0,0-0.01,0-0.01,0.01
	c-0.78,0.6-25.78,20.16-29.9,23.47c-4.2,3.35-11.19,2.24-13.15-3.91c-1.66-5.21,28.8-20.87,35.43-28.93
	C79.22,718.6,88.33,721.02,86.86,727.94z"/>
<path fill="#FFFFFF" stroke="#000000" stroke-miterlimit="10" d="M134.41,738.57c-3.92,14.55-8.11,29.09-10.06,28.25
	c-1.97-0.84,0-23.78,0-23.78C130.06,740.11,134.41,738.57,134.41,738.57z"/>
<path fill="#FFFFFF" stroke="#000000" stroke-miterlimit="10" d="M189.86,664.81c-9.87,15.42-19.31,34.47-22.16,41.32
	c-4.76,11.46-13.98,16.78-33.29,32.44c0,0-4.35,1.54-10.06,4.47c-0.19-0.79-0.65-1.46-1.29-2.04l43.67-53.19l0.01-0.01
	c0.06-0.02,0.09-0.07,0.12-0.14C167.19,686.67,179.81,674.44,189.86,664.81z"/>
<path fill="#FFFFFF" stroke="#000000" stroke-miterlimit="10" d="M114.5,738.23l-10.98,16.5l-3.51-16.44
	C100.01,738.29,107.73,737.48,114.5,738.23z"/>
<path fill="#FFFFFF" stroke="#000000" stroke-miterlimit="10" d="M136.58,693.13c-0.62,11.75-14.26,10.7-20.14,11.53
	c-5.87,0.84-13.21,1.26-19.93,4.99c-6.71,3.74-16.36,5.43-16.36,5.43c-13.42,3.64-16.78-1.95-18.46-8.11
	c-1.68-6.16,16.22-7.83,24.61-11.18c7.05-2.82,25.54-15.9,34.26-24.15C129.97,672.73,137.13,682.84,136.58,693.13z"/>
<path fill="#FFFFFF" stroke="#000000" stroke-miterlimit="10" d="M199.11,655.98c-2.25,2.14-5.57,5.3-9.24,8.82l-0.01,0.01
	c-10.05,9.63-22.67,21.86-23.01,22.86l-0.12,0.14l-0.01,0.01l-43.67,53.19l-16.16,19.7l-38.77,47.22l35.39-53.2l10.98-16.5
	l38.65-58.11c0,0,12.64-12.79,19.27-19.83h0.01c2.47-0.11,4.75-0.38,6.73-0.87c6.81-1.69,12.33-2.61,16.49-3.11
	C196.94,656.16,198.08,656.05,199.11,655.98z"/>
<path fill="#FFFFFF" stroke="#000000" stroke-miterlimit="10" d="M124.35,743.04c-4.48,13.43-4.48,27.41-7.84,28.25
	c-2.08,0.53-6.54-5.76-9.62-10.58l16.16-19.7C123.7,741.59,124.16,742.26,124.35,743.04z"/>
<path fill="#FFFFFF" stroke="#000000" stroke-miterlimit="10" d="M454.91,678.77c-9.33,17.53-18.21,81.32-21.03,103.09
	c-8.51-4.05-16.77-8.85-24.82-13.92c-4.6-2.91-9.92-5.67-15.56-8.26c-1.26-18.89,7.33-61.77,10.79-78.01
	c9.71-1.07,21.62-2.28,34.03-1.54C443.79,680.45,449.52,679.82,454.91,678.77z"/>
<path fill="#FFFFFF" stroke="#000000" stroke-miterlimit="10" d="M391.25,682.92c-2.54,13.3-8.97,48.96-9.51,71.75
	c-14.18-5.61-28.6-10.02-37.55-12.55c-5.54-1.58-8.98-2.44-8.98-2.44s-0.72-3.2-1.04-7.69v-0.05c1.33-6.1,2.78-10.8,4.4-13.24
	c1.66-2.48,4.5-5.51,8.04-8.72c0.09-0.09,0.18-0.16,0.24-0.21c0.04-0.04,0.06-0.06,0.08-0.08c0.02-0.01,0.05-0.04,0.06-0.05
	c13.24-11.88,35.86-26.29,44.16-26.73H391.25z"/>
<path fill="#FFFFFF" stroke="#000000" stroke-miterlimit="10" d="M393.5,759.68c-3.81-1.75-7.78-3.43-11.76-5
	c0.54-22.79,6.97-58.45,9.51-71.75c3.61-0.2,8.04-0.72,13.04-1.26C400.83,697.91,392.24,740.79,393.5,759.68z"/>
<path fill="#FFFFFF" stroke="#000000" stroke-miterlimit="10" d="M474.43,677.68c-14.3,16.04-19,89.58-20.1,112.08
	c-6.97-2.01-13.78-4.72-20.44-7.9c2.82-21.77,11.7-85.57,21.03-103.09h0.01c2.18-0.42,4.31-0.93,6.33-1.46
	C465.68,677.58,470.1,677.7,474.43,677.68z"/>
<path fill="#FFFFFF" stroke="#000000" stroke-miterlimit="10" d="M525.79,780.14c-11.29,6.09-22.41,10.79-32.27,12.41
	c-13.59,2.22-26.64,0.85-39.19-2.79c1.11-22.5,5.8-96.04,20.1-112.08h0.01c8.64-0.02,16.92-0.57,24.39-1.34
	C502.88,687.03,523.37,742.57,525.79,780.14z"/>
<path fill="#FFFFFF" stroke="#000000" stroke-miterlimit="10" d="M580.41,745.14c-9.42,6.16-21.01,14.37-33.27,22.27
	c-0.33-31.73-25.61-81.04-32.11-93.21c9.8-1.58,15.96-3.1,15.96-3.1s16.2,1.18,33.38,0.12
	C567.93,682.54,578.66,721.72,580.41,745.14z"/>
<path fill="#FFFFFF" stroke="#000000" stroke-miterlimit="10" d="M617.14,709.65c-1.11,3.63-3.42,10.05-11.12,17.61
	c-3.7,3.64-8.64,7.53-15.28,11.51c0.11-24.19-12.03-56.78-16.83-68.71c11.73-2.3,23.2-7.38,27.95-10.44
	C607.74,675.67,618.35,705.66,617.14,709.65z"/>
<path fill="#FFFFFF" stroke="#000000" stroke-miterlimit="10" d="M547.14,767.41c-7,4.5-14.21,8.89-21.35,12.73
	c-2.42-37.57-22.92-93.11-26.96-103.81c6.05-0.61,11.55-1.38,16.21-2.13C521.53,686.37,546.81,735.68,547.14,767.41z"/>
<path fill="#FFFFFF" stroke="#000000" stroke-miterlimit="10" d="M590.74,738.77c-0.51,0.31-1.04,0.61-1.57,0.92
	c-2.62,1.52-5.57,3.37-8.76,5.45c-1.75-23.42-12.49-62.6-16.04-73.91c0.6-0.04,1.19-0.07,1.79-0.12c2.55-0.18,5.16-0.55,7.74-1.05
	C578.71,681.99,590.84,714.59,590.74,738.77z"/>
<path fill="#FFFFFF" stroke="#000000" stroke-miterlimit="10" d="M650.14,840.66c0,0-43.08,27.97-68.25,33.56
	c-25.18,5.59-132.56-4.47-253.38-34.12c15.42-33.49,16.09-79.82,15.69-97.97c8.95,2.53,23.36,6.93,37.55,12.55
	c3.98,1.58,7.94,3.25,11.76,5c5.64,2.59,10.96,5.36,15.56,8.26c8.05,5.07,16.31,9.87,24.82,13.92c6.66,3.18,13.48,5.88,20.44,7.9
	c12.56,3.64,25.6,5.01,39.19,2.79c9.86-1.61,20.99-6.32,32.27-12.41c7.14-3.85,14.35-8.24,21.35-12.73
	c12.26-7.9,23.86-16.11,33.27-22.27c3.19-2.08,6.13-3.93,8.76-5.45c0.53-0.31,1.06-0.61,1.57-0.92c6.64-3.98,11.58-7.87,15.28-11.51
	c8.14,17.62,19.77,47.62,29.05,72.34C643.59,822.37,650.14,840.66,650.14,840.66z"/>
<path fill="#FFFFFF" stroke="#000000" stroke-miterlimit="10" d="M577.22,535.28c-0.07,2.45-0.11,4.88-0.09,7.24
	c-19.69-8.09-50.7-36.75-83.71-71.9c2.13-1.34,4.25-2.67,6.33-3.99C511.3,479.14,547.62,517.28,577.22,535.28z"/>
<path fill="#FFFFFF" stroke="#000000" stroke-miterlimit="10" d="M577.72,555.55c-6.45-2.05-13.19-5.05-20.04-8.69
	c-2.75-1.46-5.53-3.02-8.3-4.68c-10.33-6.14-20.68-13.44-30.31-20.84c-3.57-2.75-7.04-5.51-10.37-8.24
	c-11.28-9.2-21.01-18-27.79-24.34c-2.74-2.58-5.01-4.74-6.69-6.38c3.68-2.21,7.44-4.5,11.19-6.8
	c17.43,17.78,32.56,32.84,39.01,39.24c13.3,13.21,41.05,29.61,52.96,36.38C577.47,552.72,577.59,554.17,577.72,555.55z"/>
<path fill="#FFFFFF" stroke="#000000" stroke-miterlimit="10" d="M483.27,562.54c-5.11,1.25-10.04,3.3-13.97,5.44
	c0,0,8.14-13.3,8.14-15.61c0-2.31-7.56-10.69-10.76-18.46c-3.2-7.76,7.19-15.1,9.5-26.01c1.87-8.87-3.46-19.69-5.52-23.41
	c1.18-0.71,2.37-1.41,3.57-2.12c1.67,1.64,3.94,3.8,6.69,6.38c-0.12,4.9-0.54,19.62-1.59,26.06c-1.26,7.78,3.07,17.22,4.99,19.74
	C486.08,536.85,488.12,551.41,483.27,562.54z"/>
<path fill="#FFFFFF" stroke="#000000" stroke-miterlimit="10" d="M508.48,534.55c-1.67,7.97-4.57,10.49-3.54,15.51
	c0.88,4.35,0.38,10.13-1.41,14.74c-4.59-2.02-10.44-3.63-13.64-3.35c-2.19,0.18-4.41,0.56-6.61,1.09
	c4.85-11.13,2.81-25.69,1.05-27.99c-1.92-2.52-6.25-11.96-4.99-19.74c1.05-6.44,1.47-21.16,1.59-26.06
	c6.78,6.34,16.51,15.14,27.79,24.34C509.09,517.88,509.75,528.51,508.48,534.55z"/>
<path fill="#FFFFFF" stroke="#000000" stroke-miterlimit="10" d="M547.71,557.06c1.09,3.18,1.32,5.98,1.14,8.29
	c-11.35,1.26-23.67,2.48-35.1,3.53c0.52-7.38-0.59-23.03,1.86-28.87c2.73-6.51,3.46-18.67,3.46-18.67
	c9.63,7.4,19.97,14.7,30.31,20.84C547.79,545.03,545.52,550.69,547.71,557.06z"/>
<path fill="#FFFFFF" stroke="#000000" stroke-miterlimit="10" d="M548.85,565.34c0.18-2.31-0.05-5.11-1.14-8.29
	c-2.19-6.37,0.08-12.03,1.67-14.88c2.77,1.66,5.54,3.22,8.3,4.68c-0.98,1.8-2.31,4.48-0.39,9.39c1.13,2.88,1.72,5.54,2.02,7.86
	C555.96,564.53,552.45,564.93,548.85,565.34z"/>
<path fill="#FFFFFF" stroke="#000000" stroke-miterlimit="10" d="M578.58,561.45h-0.01c-5.23,0.86-11.85,1.77-19.26,2.67
	c-0.31-2.32-0.89-4.98-2.02-7.86c-1.92-4.91-0.59-7.59,0.39-9.39c6.85,3.64,13.59,6.64,20.04,8.69
	C577.94,557.75,578.23,559.74,578.58,561.45z"/>
<path fill="#FFFFFF" stroke="#000000" stroke-miterlimit="10" d="M519.07,521.34c0,0-0.73,12.16-3.46,18.67
	c-2.45,5.84-1.34,21.49-1.86,28.87c-1.26,0.11-2.51,0.22-3.73,0.33c-0.59-1.33-3.22-2.97-6.5-4.4c1.79-4.6,2.3-10.38,1.41-14.74
	c-1.02-5.03,1.87-7.54,3.54-15.51c1.27-6.05,0.61-16.68,0.22-21.46C512.03,515.83,515.5,518.58,519.07,521.34z"/>
<path fill="#FFFFFF" stroke="#000000" stroke-miterlimit="10" d="M516.45,611.32c-3.01-0.27-6.05-1.25-8.93-2.6
	c-2.95-1.38-5.76-3.15-8.2-4.98c-3.12-2.32-5.67-4.71-7.23-6.44c3.99-0.06,7.06-0.53,9.42-1.26c1.72,1.27,4.9,3.71,7.9,6.29
	c1.69,1.46,3.33,2.97,4.61,4.33C515.89,608.68,517.01,610.42,516.45,611.32z"/>
<path fill="#FFFFFF" stroke="#000000" stroke-miterlimit="10" d="M585.46,573.36c0.06,1.4-0.31,2.24-1.05,2.91
	c-2.01,1.82-6.78,2.46-13.22,10.3c-1.86,2.25-8,4.65-16.8,7.01c-1.53-0.29-2.94-0.85-4.11-1.84c-5.6-4.76-26.01-8.39-26.01-8.39
	s3.07-6.16,0-8.73c-2.11-1.77-9.13,4.24-13.94,8.42c0.62-4.44,0.88-11.09-0.33-13.83c1.22-0.11,2.47-0.22,3.73-0.33
	c11.43-1.05,23.75-2.27,35.1-3.53c3.6-0.41,7.11-0.81,10.46-1.22c7.4-0.91,14.03-1.81,19.26-2.67h0.01v0.01
	C582.18,562.97,585.25,568.11,585.46,573.36z"/>
<path fill="#FFFFFF" stroke="#000000" stroke-miterlimit="10" d="M598.49,621.62c-9.73,0.74-25.14-2.57-34.1-4.79
	c2.3-2.67,3.71-6.32,4.64-8.3c1.95-4.2,4.76-8.39,1.4-12.86c-2.66-3.55-10.23-0.95-16.03-2.08c8.79-2.37,14.94-4.77,16.8-7.01
	c6.44-7.84,11.2-8.47,13.22-10.3c1.97,2.68,5.65,8.18,6.71,13.03c1.47,6.71-4.47,14.05-4.47,14.05s7.2,3.35,9.92,11.12
	C597.28,616.46,597.92,618.98,598.49,621.62z"/>
<path fill="#FFFFFF" stroke="#000000" stroke-miterlimit="10" d="M604.13,657.47c0.09,0.4-0.74,1.18-2.27,2.15
	c-4.76,3.06-16.22,8.14-27.95,10.44c-2.59,0.49-5.19,0.87-7.74,1.05c-0.6,0.05-1.19,0.08-1.79,0.12
	c-17.18,1.06-33.38-0.12-33.38-0.12c1.52-1.2,50.26-20.08,70.44-31.4C602.08,644.2,603.79,655.95,604.13,657.47z"/>
<path fill="#FFFFFF" stroke="#000000" stroke-miterlimit="10" d="M841.35,729.54c-29.9,23.69-67.71,59.44-91.65,71.4
	c-30.2,15.1-27.4-22.37-56.49-24.61c-20.81-1.6-44.76,13.11-58.14,23.27c-9.27-24.72-20.9-54.72-29.05-72.34
	c7.7-7.56,10.02-13.98,11.12-17.61c1.21-3.99-9.39-33.98-15.28-50.03c1.53-0.98,2.37-1.75,2.27-2.15
	c-0.34-1.52-2.05-13.26-2.7-17.76c-0.15-1.08-0.25-1.74-0.25-1.74s-1.04-8.7-2.7-16.35c-0.58-2.64-1.21-5.16-1.92-7.14
	c-2.72-7.77-9.92-11.12-9.92-11.12s5.94-7.34,4.47-14.05c-1.06-4.85-4.74-10.35-6.71-13.03c0.74-0.67,1.11-1.51,1.05-2.91
	c-0.21-5.25-3.28-10.39-6.89-11.9v-0.01c-0.35-1.71-0.64-3.7-0.86-5.9c-0.13-1.38-0.25-2.84-0.33-4.35
	c-0.16-2.72-0.25-5.64-0.26-8.67c-0.01-2.35,0.02-4.79,0.09-7.24c0.33-11.39,1.52-23.15,3.27-30.52
	c2.94-12.38,4.93-32.79,5.74-42.22c0.01,0.01,0.02,0.01,0.05,0c0,0,0,0,0.01,0c5.31,3.37,18.07,11.97,19.71,18.09
	c2.11,7.77,34.61,62.1,43.84,69.64c7.33,6,12.42,6.31,16.83,8.18c0,0,0,0,0.01,0.01c0.22,0.47,6.24,12.51,11.88,21.52
	c1.39,2.21,2.75,4.25,4,5.88c6.44,8.39,30.77,19.3,38.04,27.68c3.41,3.94,5.05,6.41,6.27,8.34c1.38,2.18,2.26,3.7,4.64,5.92
	c3.51,3.3,5.13,5.72,12.02,8.25c1.88,0.68,4.17,1.38,7,2.11c13.14,3.35,23.21,20.41,23.21,20.41l3.64-3.53
	c0.46,0.4,0.74,0.66,0.84,0.74l0.24,0.21l16.74,15.3v0.01c6.04,9.39,24.82,38.12,29.73,39.29c4.78,1.14,9.95-0.69,11.69-1.41
	l0.95,0.87l2.19,7.53c0,0-12.59,0.84-4.2,8.39C837.46,727.7,839.42,728.85,841.35,729.54z"/>
<path fill="#FFFFFF" stroke="#000000" stroke-miterlimit="10" d="M922.27,638.05c-4.74,10.24-17.65,32.84-33.27,51.68
	c-1.99-3.18-4.1-6.89-6.29-10.78c0-0.01,0-0.01,0-0.01c-6.73-12.03-14.11-25.85-20.3-31.53c-0.93-0.86-1.98-1.8-3.11-2.82
	c-10.4-9.33-28.47-24.82-37.26-32.94c-0.91-0.84-1.72-1.6-2.41-2.27c-4.05-3.92-25.41-28.42-46.76-55.18
	c-12.06-15.12-24.13-30.98-33.05-44.22c-4.99-7.41-8.99-14.01-11.48-19.21c12.88,16.42,28.68,35.62,48.21,57.64
	C817.72,594.82,881.63,623.58,922.27,638.05z"/>
<path fill="#FFFFFF" stroke="#000000" stroke-miterlimit="10" d="M885.35,743.61c-3.18,1.59-14.38-16.1-22.49-29.58
	c-4.74-7.87-8.42-14.3-8.83-14.61c0,0,4.61-9.51,13.98-10.07c0,0,0,0,0.01,0.01v0.01c0.18,0.41,3.07,7.13,6.5,15.71
	C880.67,720.53,888.55,742.01,885.35,743.61z"/>
<path fill="#FFFFFF" stroke="#000000" stroke-miterlimit="10" d="M476.15,439.91c-18.86-21.57-46.8-53.82-64.05-75.02
	c11.32,3.24,26.14,8.79,35.02,18.42c15.85,17.2,23.61,26.43,26.02,36.07C474.52,424.97,475.53,433.61,476.15,439.91z"/>
<path fill="#FFFFFF" stroke="#000000" stroke-miterlimit="10" d="M483.13,447.88c-1.94,1.85-3.85,3.67-5.67,5.4
	c-27.45-30.28-55.22-63.44-78.19-91.66c2.78,0.68,7.4,1.71,12.83,3.27c17.25,21.2,45.2,53.45,64.05,75.02c0,0,0,0,0,0.01
	c2.52,2.86,4.84,5.52,6.97,7.94C483.13,447.87,483.13,447.88,483.13,447.88z"/>
<path fill="#FFFFFF" stroke="#000000" stroke-miterlimit="10" d="M499.76,466.63c-2.08,1.32-4.2,2.65-6.33,3.99
	c-5.3-5.64-10.63-11.43-15.97-17.34c1.82-1.73,3.73-3.55,5.67-5.4c7.85,8.95,12.91,14.68,12.91,14.68S497.37,464.05,499.76,466.63z"
	/>
<path fill="#FFFFFF" stroke="#000000" stroke-miterlimit="10" d="M577.39,551.2c-11.91-6.77-39.66-23.17-52.96-36.38
	c-6.45-6.4-21.57-21.46-39.01-39.24c2.67-1.64,5.36-3.3,8-4.96c33,35.16,64.02,63.82,83.71,71.9
	C577.14,545.56,577.22,548.48,577.39,551.2z"/>
<path fill="#FFFFFF" stroke="#000000" stroke-miterlimit="10" d="M293.43,507.97c-3.98,43.87-27.19,72.13-43.23,90.03
	c-11.62,12.95-26.32,24.15-35.63,30.7h-0.01c-6.87-2.97-16.08-7.27-24.89-12.48c9.5-23.01,31.54-71.61,55.49-90.64
	c19.91-15.83,28.26-43.68,31.45-68.74c2,5.64,4.2,11.83,6.03,18.64C284.86,483.82,288.35,496.59,293.43,507.97z"/>
<path fill="#FFFFFF" stroke="#000000" stroke-miterlimit="10" d="M772.86,554.19c-4.32,0.35-11.7,0.31-18.13-3
	c-9.79-5.03-15.94-0.55-23.49-1.95c-7.56-1.4-21.82,0.28-17.9-2.8c3.92-3.07,26.47-36.46,26.47-36.46
	C748.73,523.21,760.8,539.06,772.86,554.19z"/>
<path fill="#FFFFFF" stroke="#000000" stroke-miterlimit="10" d="M672.83,553.09c-3.42,3.35-6.14,5.37-6.14,5.37
	c-4.41-1.87-9.5-2.18-16.83-8.18c-9.23-7.54-41.74-61.87-43.84-69.64c-1.65-6.12-14.41-14.72-19.71-18.09
	c10.62-0.08,20.87-2,29.2-4.46c8.84,7.96,25.38,24.39,33.8,42.76c3.12,6.8,6.61,13.02,10.09,18.48
	C662.2,532.7,666.76,544.98,672.83,553.09z"/>
<path fill="#FFFFFF" stroke="#000000" stroke-miterlimit="10" d="M822.04,611.64l-6.4,6.23c-5.54-4.27-15.18-9.42-29.44-9.33
	c-7.37,0.05-14.5,3.04-20.93,7.26c-6.2,4.07-11.77,9.29-16.27,14.09c-0.21,0.24-0.44,0.47-0.64,0.71c-1.8,1.94-3.42,3.81-4.83,5.48
	c-6.89-2.53-8.51-4.96-12.02-8.25c-2.38-2.22-3.26-3.74-4.64-5.92c1.73-1.19,4.28-2.99,7.24-5.2c11.18-8.38,28.02-22.63,26.91-31.71
	c-1.68-13.52-11.75-19.4-27.69-18.14c-10.35,0.81-31.14,4.19-45.37,9.07c-3.67,1.26-6.9,2.62-9.39,4.06
	c-5.64-9-11.65-21.04-11.88-21.52c-0.01-0.01-0.01-0.01-0.01-0.01s2.72-2.01,6.14-5.37c2.98-2.93,6.47-6.87,9.19-11.4
	c5.12-8.53,8.11-21.5,13.97-28.6c0.86-1.05,1.79-1.98,2.8-2.73c6.91-5.18,23.37-19.36,27.16-22.63c0.79,1,1.58,2.01,2.38,3.04
	c2.48,5.2,6.49,11.79,11.48,19.21c0,0-22.55,33.39-26.47,36.46c-3.92,3.08,10.35,1.4,17.9,2.8c7.56,1.4,13.7-3.07,23.49,1.95
	c6.43,3.31,13.81,3.35,18.13,3c21.35,26.75,42.71,51.26,46.76,55.18C820.32,610.03,821.13,610.8,822.04,611.64z"/>
<path fill="#FFFFFF" stroke="#000000" stroke-miterlimit="10" d="M909.96,722.92c-4.93,2.64-20.29-11.37-30.99-22.09
	c-6.09-6.11-10.66-11.15-10.95-11.45v-0.01c-0.01-0.01-0.01-0.01-0.01-0.01c6.25-1.79,12.46-7.99,14.7-10.4
	c2.19,3.9,4.3,7.6,6.29,10.78c2.13,3.42,4.11,6.24,5.86,8.02C903.25,706.28,917.78,718.72,909.96,722.92z"/>
<path fill="#FFFFFF" stroke="#000000" stroke-miterlimit="10" d="M867.87,682.92c-9.93-5.6-16.64-20.14-32.03-24.34
	c-14.41-3.92-35.31-14.47-41.35-20.16l21.14-20.56l6.4-6.23c8.79,8.12,26.86,23.61,37.26,32.94c2.88,5.81,7.12,14.17,10.24,19.33
	C874.72,672.43,877.79,688.52,867.87,682.92z"/>
<path fill="#FFFFFF" stroke="#000000" stroke-miterlimit="10" d="M882.71,678.93c0,0,0,0,0,0.01c-2.24,2.41-8.45,8.62-14.7,10.4
	c-9.37,0.56-13.98,10.07-13.98,10.07c-0.87-0.66-2.07-0.29-2.57-0.11c-0.01,0-0.02,0-0.02,0c-2.47,0.05-6.27,0.47-9.37,2.42
	l-51.76-59.25l4.19-4.07c6.04,5.7,26.94,16.24,41.35,20.16c15.38,4.2,22.09,18.74,32.03,24.34c9.92,5.59,6.85-10.5,1.67-19.02
	c-3.12-5.16-7.36-13.51-10.24-19.33c1.13,1.02,2.18,1.97,3.11,2.82C868.6,653.09,875.98,666.91,882.71,678.93z"/>
<path fill="#FFFFFF" stroke="#000000" stroke-miterlimit="10" d="M854.03,725.99c0,3.25-6.05,6-12.68,3.55
	c-1.93-0.69-3.9-1.85-5.79-3.55c-8.39-7.56,4.2-8.39,4.2-8.39l-2.19-7.53l13.3,12.17l3.12,2.85
	C854.02,725.45,854.03,725.74,854.03,725.99z"/>
<path fill="#FFFFFF" stroke="#000000" stroke-miterlimit="10" d="M852.98,714.23l-10.91-12.49c3.1-1.95,6.9-2.38,9.37-2.42
	c-0.13,0.06-0.21,0.11-0.21,0.11S852.18,707.05,852.98,714.23z"/>
<path fill="#FFFFFF" stroke="#000000" stroke-miterlimit="10" d="M836.62,709.19c-1.74,0.72-6.91,2.55-11.69,1.41
	c-4.91-1.17-23.69-29.9-29.73-39.29L836.62,709.19z"/>
<path fill="#FFFFFF" stroke="#000000" stroke-miterlimit="10" d="M896.12,763.61l-42.12-38.52l-3.12-2.85l-13.3-12.17l-0.33-1.14
	c0,0-0.22,0.11-0.62,0.27l-41.42-37.88v-0.01c-1.18-1.84-1.87-2.93-1.87-2.93s-12.08-9.97-14.87-12.37l-0.24-0.21
	c-0.09-0.08-0.38-0.34-0.84-0.74c-3.01-2.67-13.54-12.02-26.93-23.87c-0.48-0.44-0.97-0.87-1.46-1.31
	c4.5-4.8,10.06-10.02,16.27-14.09l25.03,26.71l51.76,59.25l10.91,12.49l3.48,3.99L896.12,763.61z"/>
<path fill="#FFFFFF" stroke="#000000" stroke-miterlimit="10" d="M479.99,229.29c-0.49,0.32-8.47,5.4-12.06,8.59
	c-2.87-1.61-12.93-6.58-12.93-6.58c3.35-0.48,13.01,3.15,13.01,3.15L479.99,229.29z"/>
<path fill="#FFFFFF" stroke="#000000" stroke-miterlimit="10" d="M815.63,617.86l-21.14,20.56l-4.19,4.07l-25.03-26.71
	c6.43-4.23,13.56-7.21,20.93-7.26C800.45,608.45,810.09,613.59,815.63,617.86z"/>
<path fill="#FFFFFF" stroke="#000000" stroke-miterlimit="10" d="M777.39,655.05l-3.64,3.53c0,0-10.07-17.05-23.21-20.41
	c-2.84-0.73-5.12-1.42-7-2.11c1.4-1.67,3.02-3.54,4.83-5.48l2.1,0.6C763.86,643.04,774.38,652.38,777.39,655.05z"/>
<path fill="#FFFFFF" stroke="#000000" stroke-miterlimit="10" d="M495.34,195.33c-1.85,2.8-6.67,9.58-10.98,10.75
	c-5.46,1.46-8.92-1.24-8.92-1.24c5.68-3.31,12.56-9.06,18.36-9.52C494.33,195.27,494.85,195.27,495.34,195.33z"/>
<path fill="#FFFFFF" stroke="#000000" stroke-miterlimit="10" d="M576.31,324.37c-15.67-16.08-20.7-23.49-20.7-23.49l-2.91-4.44
	c0.66,1.31,1.57,2.75,2.91,4.44c0,0-2.39,2.88-6.01,7.33c-0.93,1.15-1.95,2.4-3.02,3.74c-10.86,13.44-28.04,35.24-31.24,42.49
	c-3.13,7.09-9.24,30.01-14.59,47.35c-2.78,8.99-5.36,16.48-7.21,19.49c-5.45,8.8-10.4,26.59-10.4,26.59s-2.1-23.39-3.86-40.95
	c0.01-0.01,0.01-0.01,0-0.01c-0.58-5.81-1.12-10.97-1.54-14.44c-1.47-12.31-24.46-39.62-33.08-55.58
	c9.04,8.22,22.17,16.01,31.34,21.67c9.6,5.94,12.99,19.7,13.86,24.14c0.02,0.14,0.05,0.28,0.07,0.4c0.01,0.07,0.02,0.14,0.04,0.21
	c0.02,0.13,0.04,0.24,0.06,0.34c0.05,0.29,0.07,0.46,0.07,0.46c0.99,6.89,0.38,11.37,0.38,11.37s7.76-21.4,16.98-52.23
	c9.23-30.84,33.98-53.07,33.98-53.07l-13.59-11.38l-3.19-2.67c0,0,1.8-0.13,4.04-0.54c3.02-0.54,6.83-1.61,8-3.58
	c0.08-0.13,0.15-0.27,0.2-0.4c0.07-0.16,0.12-0.34,0.14-0.52c-1.59-1.73-3.12-3.63-4.59-5.65c-0.19-0.26-0.34-0.47-0.46-0.64
	c-0.04-0.05-0.06-0.09-0.09-0.13l-0.11-0.15c-6.47-9.15-11.93-20.77-16.63-31.86c-7.86-18.57-13.61-35.64-18.4-37.07
	c-0.45-0.14-0.92-0.22-1.39-0.26c-0.49-0.06-1.01-0.06-1.54-0.01c-5.8,0.46-12.68,6.21-18.36,9.52c-2.21,1.28-4.25,2.2-5.98,2.28
	c-3.33,0.15-7.16-1.79-11.11-4.06c-1.92-1.11-3.87-2.28-5.81-3.34l-0.02-0.01c-3.88-2.14-7.74-3.75-11.2-3.24h-0.01
	c-0.85,0.13-1.66,0.38-2.46,0.79c-0.08,0.04-0.15,0.08-0.24,0.13c-8.87,4.74-14.51,19.06-22,29.02c-0.07,0.09-0.14,0.19-0.2,0.28
	c-5.83,8.02-7.19,20.47-9.47,39.59c-2.71,6.33-6.3,15.14-9.09,23.49c-3.25,9.73-5.43,18.88-3.88,22.85c1.26,3.26,3.34,6.54,5.61,9.5
	c-0.02,2.42-0.14,4.51-0.38,6.03c-0.67,4.35-1.29,11.13-1.77,17.37c-0.05-0.07-0.08-0.12-0.12-0.18c-2.61-4.6-7.07-10.6-12.21-16.9
	c-2.09-9.93-4.37-26.34,0.04-37.63c6.71-17.21,14.67-31.6,19.01-48.67c4.34-17.05,14.14-45.3,27-52.86
	c12.86-7.56,27.55,13.98,37.97,12.03c10.42-1.97,23.85-17.9,32.37-15.95c3.88,0.89,10.78,17.1,18.88,36.03
	c9.65,22.55,21.01,49,31.05,58.06c12.76,11.52,20.84,22.29,24.61,33.03C576.37,316.18,576.48,320.14,576.31,324.37z"/>
<path fill="#FFFFFF" stroke="#000000" stroke-miterlimit="10" d="M433.12,254.65l-0.01,0.04c-0.12,1.05-2.21,17.75-7.8,21.63
	c-5.19-9.5-8.49-15.91-8.49-15.91s-10.91,13.84-11.96,22.23c0.82-5.93,1.48-11.37,2.07-16.35c2.28-19.13,3.65-31.58,9.47-39.59
	C419.99,233.78,425.99,244.81,433.12,254.65z"/>
</svg>
