<?xml version="1.0" encoding="utf-8"?>
<!-- Generator: Adobe Illustrator 25.2.0, SVG Export Plug-In . SVG Version: 6.00 Build 0)  -->
<svg version="1.1" baseProfile="tiny" id="Layer_1" xmlns="http://www.w3.org/2000/svg" xmlns:xlink="http://www.w3.org/1999/xlink"
	 x="0px" y="0px" viewBox="0 0 1000 1000" overflow="visible" xml:space="preserve">
<path fill="#FFFFFF" stroke="#000000" stroke-miterlimit="10" d="M509.25,89.29c-10.08,2.38-31.71,7.63-34.07,9.26
	c-3.92-0.98-13.34-2.41-18.84-3.21c5.02-5.02,14.38-12.28,27.39-13.43c10.22-0.9,17.95,2.28,23.09,5.65h0.01
	C507.71,88.13,508.52,88.72,509.25,89.29z"/>
<path fill="#FFFFFF" stroke="#000000" stroke-miterlimit="10" d="M531.13,123.63c-7.66,4-19.88,15.5-21.5,19.35
	c-0.11-1.62-0.48-3.01-1.08-4.2c-5.44-10.84-29.75-4.4-47.85,2.57l-0.01,0.01c-9.51,3.66-17.29,7.46-19.73,8.99
	c-0.38-0.08-0.72-0.25-1.02-0.5c-3.19-2.59-1.56-13.93-1.12-20.89c-0.01-0.18-0.01-0.36-0.01-0.53
	c6.26-5.24,16.17-13.22,27.34-19.54c8.87-5.01,18.53-8.96,27.8-9.66c15.06-1.13,25.42,2.13,31.8,5.41
	C528.15,110.36,530.16,116.85,531.13,123.63z"/>
<path fill="#FFFFFF" stroke="#000000" stroke-miterlimit="10" d="M525.75,104.64c-6.38-3.28-16.74-6.54-31.8-5.41
	c-9.27,0.7-18.93,4.65-27.8,9.66l-21.82-2.8c3.66-7.07,7.8-11.34,7.8-11.34s1.7,0.23,4.21,0.59c5.5,0.8,14.92,2.23,18.84,3.21
	c2.36-1.63,23.99-6.88,34.07-9.26h0.01c0.91-0.22,1.72-0.41,2.42-0.58h0.01c3.98,1.25,7.67,3.32,9.59,6.75
	C522.81,98.19,524.35,101.29,525.75,104.64z"/>
<path fill="#FFFFFF" stroke="#000000" stroke-miterlimit="10" d="M535.65,128.49c-3.94,8.57-7.89,20.1-14.03,26.97
	c-2.54,2.85-5.45,4.89-8.9,5.58c0.12-3.32,2.5-7.25,2.5-7.25s4.39-8.19-1.91-6.89c-0.14,0.03,0.86-1.18,2.61-3.02
	c3.43-3.61,9.72-9.64,15.81-13.34C533.06,129.73,534.37,129.03,535.65,128.49z"/>
<path fill="#FFFFFF" stroke="#000000" stroke-miterlimit="10" d="M466.15,108.89c-11.17,6.32-21.08,14.3-27.34,19.54
	c-0.21-8.79,2.5-16.51,5.52-22.34L466.15,108.89z"/>
<path fill="#FFFFFF" stroke="#000000" stroke-miterlimit="10" d="M541.71,120.88c-0.95,0.24-7.13,1.43-7.13,1.43
	c-0.97,0.17-2.14,0.64-3.45,1.32c-7.66,4-19.88,15.5-21.5,19.35c-0.11-1.62-0.48-3.01-1.08-4.2c-5.44-10.84-29.75-4.4-47.85,2.57
	l-0.01,0.01c-9.51,3.66-17.29,7.46-19.73,8.99c-0.38-0.08-0.72-0.25-1.02-0.5c-0.65,2.1-1,4.61,0.19,6.32
	c1.46,2.12,3.55,2.76,5.94,4.38c1.49,1,3.1,2.39,4.75,4.77c3.2,4.62,7.45,12.67,9.4,16.45c0.66,1.29,1.06,2.08,1.06,2.08
	s7.6,4.16,14.02,13.43c0.23-0.19,0.47-0.37,0.71-0.54l0.04-0.03c3.02-2.17,6.58-3.46,9.75-4.23c0.29-0.08,0.58-0.15,0.88-0.21
	c0.06-0.02,0.13-0.03,0.2-0.04c0.23-0.06,0.46-0.1,0.7-0.14c0.32-0.07,0.64-0.12,0.96-0.18c3.35-0.57,5.77-0.57,5.77-0.57
	s11.04-9.98,15.8-24.83c4.87-0.17,8.53-1.84,11.89-5.22c3.6-3.61,6.86-9.19,10.92-17C540.76,129.2,542.66,120.65,541.71,120.88z
	 M479.22,147.11c-1.25,2.76-0.76,5.31-0.76,5.31l-10.2,8.04C468.26,160.46,470.31,151.21,479.22,147.11z M462.46,158.78
	c-5.25-2.4-11.76-3.92-11.76-3.92s-0.71-1.33-1.87-3.92C454.71,151.03,463.63,159.32,462.46,158.78z M462.33,170.32
	c-1.78,0.63-4.86-1.06-6.55-4.05c-1.14-2.01-3.8-4.19-5.63-5.43c1.3,0.21,2.84,0.57,4.61,1.15c1.07,0.35,2.04,0.76,2.91,1.21
	c2.44,1.23,4.16,2.72,5.21,3.78c0.83,0.85,1.23,1.43,1.23,1.43S464.11,169.7,462.33,170.32z M464.56,176.47
	c1.02-2.89,0.93-8.91,0.93-8.91l4.9,9.89C470.39,177.45,463.53,179.37,464.56,176.47z M477.66,182.53l-7.8-1.47
	c0.09-0.13,8.6-1.65,8.6-1.65L477.66,182.53z M482.66,165.79c-4.63,1.79-10.22-0.53-10.22-0.53c0.2-0.06,1.77-1.11,4.04-2.55
	c2.33-1.48,5.4-3.36,8.51-4.98c2.78-1.46,5.58-2.71,7.89-3.28C489.61,160.27,487.3,164.01,482.66,165.79z M521.62,155.46
	c-2.54,2.85-5.45,4.89-8.9,5.58c0.12-3.32,2.5-7.25,2.5-7.25s4.39-8.19-1.91-6.89c-0.14,0.03,0.86-1.18,2.61-3.02
	c3.43-3.61,9.72-9.64,15.81-13.34c1.33-0.81,2.64-1.51,3.92-2.05C531.71,137.06,527.76,148.59,521.62,155.46z"/>
<path fill="#FFFFFF" stroke="#000000" stroke-miterlimit="10" d="M462.88,166.98c-0.5,0.18-1.27,0.24-2.42,0.09
	c-2.99-0.39-2.93-2.48-2.79-3.87C460.11,164.43,461.83,165.92,462.88,166.98z"/>
<path fill="#FFFFFF" stroke="#000000" stroke-miterlimit="10" d="M464.11,168.41c0,0,0,1.29-1.78,1.91
	c-1.78,0.63-4.86-1.06-6.55-4.05c-1.14-2.01-3.8-4.19-5.63-5.43c1.3,0.21,2.84,0.57,4.61,1.15c1.07,0.35,2.04,0.76,2.91,1.21
	c-0.14,1.39-0.2,3.48,2.79,3.87c1.15,0.15,1.92,0.09,2.42-0.09C463.71,167.83,464.11,168.41,464.11,168.41z"/>
<path fill="#FFFFFF" stroke="#000000" stroke-miterlimit="10" d="M492.88,154.45c-3.27,5.82-5.58,9.56-10.22,11.34
	c-4.63,1.79-10.22-0.53-10.22-0.53c0.2-0.06,1.77-1.11,4.04-2.55c1.28,0.34,3.12,0.71,5.14-0.32c1.8-0.91,2.85-3.12,3.37-4.66
	C487.77,156.27,490.57,155.02,492.88,154.45z"/>
<path fill="#FFFFFF" stroke="#000000" stroke-miterlimit="10" d="M484.99,157.73c-0.52,1.54-1.57,3.75-3.37,4.66
	c-2.02,1.03-3.86,0.66-5.14,0.32C478.81,161.23,481.88,159.35,484.99,157.73z"/>
<path fill="#FFFFFF" stroke="#000000" stroke-miterlimit="10" d="M470.39,177.45c0,0-6.86,1.92-5.83-0.98
	c1.02-2.89,0.93-8.91,0.93-8.91L470.39,177.45z"/>
<path fill="#FFFFFF" stroke="#000000" stroke-miterlimit="10" d="M478.46,179.41l-0.8,3.12l-7.8-1.47
	C469.95,180.93,478.46,179.41,478.46,179.41z"/>
<path fill="#FFFFFF" stroke="#000000" stroke-miterlimit="10" d="M478.46,152.42l-10.2,8.04c0,0,2.05-9.25,10.96-13.35
	C477.97,149.87,478.46,152.42,478.46,152.42z"/>
<path fill="#FFFFFF" stroke="#000000" stroke-miterlimit="10" d="M462.46,158.78c-5.25-2.4-11.76-3.92-11.76-3.92
	s-0.71-1.33-1.87-3.92C454.71,151.03,463.63,159.32,462.46,158.78z"/>
<path fill="#FFFFFF" stroke="#000000" stroke-miterlimit="10" d="M414.63,274.75c-5.48-1.82-10.54-3.64-15.22-5.45
	c-5.39-2.09-10.28-4.15-14.72-6.19c-37.82-17.41-42.81-33-46.09-41.41c-3.61-9.26,18.74-13.2,41.09-14.31
	c-5.14,7.31-11.64,20.9-11.77,21.17l5.34-3.05c0.18-0.11,0.35-0.24,0.5-0.39l17.59-17.86c0,0-0.04-0.08-0.12-0.21
	c6.52-0.08,12.82-0.01,18.54,0.13c-6.57,7.24-15.74,20.66-15.74,20.66c-1.69,4.75,1.97,3.9,4.08,3.09c0.81-0.31,1.54-0.78,2.15-1.4
	l21.65-21.9c1.27,0.07,2.48,0.13,3.61,0.19l-11.15,51.3C414.25,264.38,414.3,269.75,414.63,274.75z"/>
<path fill="#FFFFFF" stroke="#000000" stroke-miterlimit="10" d="M476.01,196.74l-17.82,15.33l-18.27,3.12l-5.34-9.47l-0.08-0.15
	l-4.47-8.29l14.92-15.51h15.27c0.66,1.29,1.06,2.08,1.06,2.08s7.6,4.16,14.02,13.43C475.53,197.09,475.77,196.91,476.01,196.74z"/>
<path fill="#FFFFFF" stroke="#000000" stroke-miterlimit="10" d="M571.8,195.92l-24.15,77.82l-7.48,9.8c0,0-32.44,23.88-42.42,26.37
	c-9.98,2.5-31.37,3.39-46.16,1.61c-14.79-1.78-32.26-16.58-32.26-16.58c-1.33-1.95-2.33-4.68-3.08-7.94v-0.01
	c-0.59-2.56-1.02-5.44-1.32-8.52c-0.12-1.21-0.22-2.45-0.3-3.72c-0.33-5-0.38-10.37-0.26-15.63l11.15-51.3
	c3.15,0.17,5.72,0.34,7.54,0.47l-4.81,6.9c0,0,0.53,10.69,10.42,14.35c9.89,3.65,21.74,10.24,30.83,16.04
	c1.61-1.07,5.47-3.73,10.37-7.12c9.9,2.34,29.17,7.12,29.17,7.12l11.99-9.93c7.3-1.2,17.57-2.86,18.19-3.56
	c0.95-1.07,13.07-22.69,25.54-33.21C564.76,198.88,567.31,197.7,571.8,195.92z"/>
<path fill="#FFFFFF" stroke="#000000" stroke-miterlimit="10" d="M564.76,198.88c-12.47,10.52-24.59,32.14-25.54,33.21
	c-0.62,0.7-10.89,2.36-18.19,3.56l-11.99,9.93c0,0-19.27-4.78-29.17-7.12c10.59-7.34,26-18.08,33.78-23.51l3.84,0.24
	c0,0,27.69-14.78,37.01-29.29v-0.01c4.13-0.05,9.89,0.16,11.86,1.59C569.57,189.79,564.76,198.88,564.76,198.88z"/>
<path fill="#FFFFFF" stroke="#000000" stroke-miterlimit="10" d="M715.18,194.96c-12.12,9.21-27.63,7.13-27.63,7.13
	c-12.61,1.54-31.48,9.44-51.32,19.46c-19.41,9.82-39.75,21.67-56.04,31.6c-19.04,11.61-32.54,20.59-32.54,20.59l24.15-77.82h0.01
	c5.4-2.15,13.61-5.15,23.54-8c-6.1,6.59-13.49,17.79-16.15,25.4c9.44-7.66,33.14-27.43,33.14-27.43s-0.99-0.82-2.56-1.66
	c9.51-2.12,19.91-3.79,30.54-4.42c3.74-0.22,7.36-0.34,10.86-0.38c-3.76,3.41-7.54,8.25-10.14,14.64
	c9.62-5.7,29.44-13.95,29.44-13.95C693.29,182.14,708.78,188.18,715.18,194.96z"/>
<path fill="#FFFFFF" stroke="#000000" stroke-miterlimit="10" d="M715.18,194.96c-9.12,24.12-52.21,57.76-59.54,63.35
	c-0.69,0.53-1.06,0.81-1.06,0.81c-5.53-15.47-13.9-30.23-18.35-37.57c19.84-10.02,38.71-17.92,51.32-19.46
	C687.55,202.09,703.06,204.17,715.18,194.96z"/>
<path fill="#FFFFFF" stroke="#000000" stroke-miterlimit="10" d="M556.74,178.07l-2.24,7.82v0.01
	c-9.32,14.51-37.01,29.29-37.01,29.29l-3.84-0.24c-7.78,5.43-23.19,16.17-33.78,23.51c-4.9,3.39-8.76,6.05-10.37,7.12
	c-9.09-5.8-20.94-12.39-30.83-16.04c-9.89-3.66-10.42-14.35-10.42-14.35l4.81-6.9c1.95,0.13,3.03,0.22,3.03,0.22l-1.51-2.79
	l5.34,9.47l18.27-3.12l17.82-15.33l0.04-0.03c3.02-2.17,6.58-3.46,9.75-4.23c0.29-0.08,0.58-0.15,0.88-0.21
	c0.06-0.02,0.13-0.03,0.2-0.04c0.24-0.05,0.47-0.1,0.7-0.14c0.32-0.07,0.64-0.12,0.96-0.18c7.6-1.22,16.64-0.15,16.64-0.15
	s3.32-3.75,5.46-3.75c1.13-3.86,11.61-11.46,11.61-11.46s-1.09-4.87-1.39-8.38c-0.19-2.21,1.54-5.18,2.85-7.07
	C547.26,159.08,556.74,178.07,556.74,178.07z"/>
<path fill="#FFFFFF" stroke="#000000" stroke-miterlimit="10" d="M520.86,168.17c0.3,3.51,1.39,8.38,1.39,8.38
	s-10.48,7.6-11.61,11.46c-2.14,0-5.46,3.75-5.46,3.75s-9.04-1.07-16.64,0.15c3.35-0.57,5.77-0.57,5.77-0.57s11.04-9.98,15.8-24.83
	c4.87-0.17,8.53-1.84,11.89-5.22c0.58-0.08,1.15-0.14,1.71-0.19C522.4,162.99,520.67,165.96,520.86,168.17z"/>
<path fill="#FFFFFF" stroke="#000000" stroke-miterlimit="10" d="M391.35,207.26l-17.59,17.86c-0.15,0.15-0.32,0.28-0.5,0.39
	l-5.34,3.05c0.13-0.27,6.63-13.86,11.77-21.17c1.74-2.48,3.32-4.23,4.45-4.5c3.92-0.94,6.53,3.17,7.09,4.16
	C391.31,207.18,391.35,207.26,391.35,207.26z"/>
<path fill="#FFFFFF" stroke="#000000" stroke-miterlimit="10" d="M422.28,207.26l-0.37,0.37l-21.65,21.9
	c-0.61,0.62-1.34,1.09-2.15,1.4c-2.11,0.81-5.77,1.66-4.08-3.09c0,0,9.17-13.42,15.74-20.66c2.15-2.37,4.02-4.07,5.2-4.43
	C419.78,201.29,422.28,207.26,422.28,207.26z"/>
<path fill="#FFFFFF" stroke="#000000" stroke-miterlimit="10" d="M612.34,185.89c0,0-23.7,19.77-33.14,27.43
	c2.66-7.61,10.05-18.81,16.15-25.4c2.91-3.14,5.52-5.23,7.19-5.39c2.78-0.26,5.4,0.73,7.23,1.7h0.01
	C611.35,185.07,612.34,185.89,612.34,185.89z"/>
<path fill="#FFFFFF" stroke="#000000" stroke-miterlimit="10" d="M670.48,180.12c0,0-19.82,8.25-29.44,13.95
	c2.6-6.39,6.38-11.23,10.14-14.64c5.25-4.77,10.45-6.73,12.31-6.21C666.7,174.11,670.48,180.12,670.48,180.12z"/>
<path fill="#FFFFFF" stroke="#000000" stroke-miterlimit="10" d="M628.86,300.51c-0.09,13.58-3.6,34.45-16.52,37.32
	c-6.01,1.34-11.24,0.37-15.59-2.33c-6.44-3.97-10.95-11.69-13.22-21.19c-0.86-3.6-1.5-8.97-1.97-15.13
	c-1.03-13.2-1.3-30.03-1.36-40.76c3.1,1.57,11.16,6.33,22.94,18.11C611.24,284.63,620.7,293,628.86,300.51z"/>
<path fill="#FFFFFF" stroke="#000000" stroke-miterlimit="10" d="M629.64,436.98v0.01c-0.69,2.51-1.35,4.97-1.97,7.36
	c-1.02-0.44-4.84-2.05-9.7-3.6c0.39-2.95,0.79-6.02,1.2-9.18C621.41,432.08,625.09,433.42,629.64,436.98z"/>
<path fill="#FFFFFF" stroke="#000000" stroke-miterlimit="10" d="M631.54,430.23v0.01c-0.65,2.27-1.28,4.52-1.9,6.74
	c-4.55-3.56-8.23-4.9-10.47-5.41c0.29-2.31,0.59-4.67,0.89-7.04C622.17,425.09,628.18,426.92,631.54,430.23z"/>
<path fill="#FFFFFF" stroke="#000000" stroke-miterlimit="10" d="M626.87,453.91c0,0,0.47,0.79,0.08,3.65
	c-0.02,0.17-0.05,0.35-0.08,0.54c-0.6-0.47-1.27-0.93-2.01-1.35c-7.13-4.18-20.04-6.34-27.14-7.27c-2.25-0.29-3.92-0.46-4.63-0.52
	h-0.01c-0.25-0.03-0.38-0.04-0.38-0.04c-0.36-3.29,1.96-3.83,1.96-3.83s-0.23-2.67,0.8-3.21c-0.31-2.09,1.73-3.21,1.73-3.21
	s0.15-0.03,0.42-0.08c0.69-0.14,2.18-0.38,4.23-0.47c0.46-0.02,0.96-0.04,1.49-0.04c2.5-0.02,5.59,0.21,8.93,1.04
	c0.94,0.23,1.87,0.48,2.78,0.74c1.01,0.29,1.99,0.58,2.93,0.89c4.86,1.55,8.68,3.16,9.7,3.6c0.18,0.08,0.27,0.12,0.27,0.12
	s1.07,3.16,0,4.99C628.12,451.2,626.87,453.91,626.87,453.91z"/>
<path fill="#FFFFFF" stroke="#000000" stroke-miterlimit="10" d="M634.65,419.49c-1.04,3.58-2.09,7.18-3.11,10.74
	c-3.36-3.31-9.37-5.14-11.48-5.7c0.46-3.72,0.93-7.5,1.4-11.24C624.09,413.64,632.21,415.08,634.65,419.49z"/>
<path fill="#FFFFFF" stroke="#000000" stroke-miterlimit="10" d="M399.41,269.3l-15.53,18.04l0.81-24.23
	C389.13,265.15,394.02,267.21,399.41,269.3z"/>
<path fill="#FFFFFF" stroke="#000000" stroke-miterlimit="10" d="M414.93,278.47c-4.48,3.98-16.14,14.46-20.37,19.5
	c-5.28,6.3-8.08,10.87-8.73,12.83c-0.65,1.96,0.95,9.93,0.95,9.93c-0.49-0.26-0.95-0.52-1.39-0.79c-6.99-4.3-7.94-9.7-8.83-13.06
	c-0.95-3.56-1.07-9.8-1.07-9.8l8.39-9.74l15.53-18.04c4.68,1.81,9.74,3.63,15.22,5.45C414.71,276.02,414.81,277.26,414.93,278.47z"
	/>
<path fill="#FFFFFF" stroke="#000000" stroke-miterlimit="10" d="M422.68,325.73c-3.75,5.48-13.55,18.63-21.17,18.49
	c-7.18-0.13-13.43-8.12-16.13-12.16c-0.06-4.53-0.01-9.75,0.01-12.12c0.44,0.27,0.9,0.53,1.39,0.79c0,0-1.6-7.97-0.95-9.93
	c0.65-1.96,3.45-6.53,8.73-12.83c4.23-5.04,15.89-15.52,20.37-19.5c0.3,3.08,0.73,5.96,1.32,8.52V287l-2.97,31.02L422.68,325.73z"/>
<path fill="#FFFFFF" stroke="#000000" stroke-miterlimit="10" d="M427.06,329.33c-1.02,1.82-2.48,3.92-4.2,6.07
	c-5.59,6.94-13.99,14.37-19.65,14.61c-5.23,0.23-10.65-3.1-14.03-6.14c-1.86-1.67-3.1-3.25-3.35-4.11c-0.26-0.9-0.39-4.07-0.45-7.7
	c2.7,4.04,8.95,12.03,16.13,12.16c7.62,0.14,17.42-13.01,21.17-18.49L427.06,329.33z"/>
<path fill="#FFFFFF" stroke="#000000" stroke-miterlimit="10" d="M637.95,340.69c0,0.56,0.46,2.28,1.13,4.84
	c-4.44,4.79-14.63,16.13-15.95,20.43c-1.64,5.33-5.43,58.97-8.09,73.9c-0.91-0.26-1.84-0.51-2.78-0.74
	c-3.34-0.83-6.43-1.06-8.93-1.04c1.16-16.35,3.77-56.48,2.15-67.39c-1.55-10.43-6.16-14.51-8.33-15.88c0.13-0.27,0.26-0.55,0.4-0.82
	c2.27-4.54,0.87-12.37-0.8-18.49c4.35,2.7,9.58,3.67,15.59,2.33c12.92-2.87,16.43-23.74,16.52-37.32
	c4.75,4.38,9.06,8.46,12.39,12.03C640.09,321.78,637.95,338.96,637.95,340.69z"/>
<path fill="#FFFFFF" stroke="#000000" stroke-miterlimit="10" d="M776.48,760.09c-11.88,56.56-52.27,76.52-63.2,78.42
	c10.52-23.29,15.91-50.27,17.64-80c4.4-75.04-14.47-167.54-32.85-262.18c-25.67-132.12-45.39-168.95-52.4-178.57
	c-1.14-1.57-2.64-3.33-4.42-5.22c-3.33-3.57-7.64-7.65-12.39-12.03c-8.16-7.51-17.62-15.88-25.72-23.98
	c-11.78-11.78-19.84-16.54-22.94-18.11c-0.01-1.99-0.01-3.77-0.01-5.27c16.29-9.93,36.63-21.78,56.04-31.6
	c4.45,7.34,12.82,22.1,18.35,37.57c0,0,0.37-0.28,1.06-0.81c4.29,20.02,12.52,58.34,16.29,75.49
	c5.23,23.76,44.67,169.66,58.93,205.78S788.36,703.54,776.48,760.09z"/>
<path fill="#FFFFFF" stroke="#000000" stroke-miterlimit="10" d="M428.07,350.02c-0.11,0.17-0.22,0.37-0.33,0.59
	c-0.76,1.46-1.52,3.87-0.95,5.58c-3.99,1.69-12.22,6.01-17.2,14.32c-6.11,10.18-10.87,55.09-11.74,63.77
	c-2.13-0.56-4.36-0.97-6.55-1.16c-3.5-0.3-6.09-0.05-7.91,0.34c1.5-11.6,8.11-63.84,6.88-69.96c-0.44-2.15-1.14-3.51-1.91-4.37
	c0.11-0.18,0.21-0.37,0.32-0.56c2.68-4.82,1.34-11.61,0.5-14.7c3.38,3.04,8.8,6.37,14.03,6.14c5.66-0.24,14.06-7.67,19.65-14.61
	l5.47,5.91c-0.18,0.2-0.47,0.53-0.76,0.97C426.53,343.82,425.39,346.71,428.07,350.02z"/>
<path fill="#FFFFFF" stroke="#000000" stroke-miterlimit="10" d="M409.96,439.55c-1.61-1.29-4.63-2.84-8.25-4.1
	c0.24-1.97,0.67-5.14,1.24-9.04c1.88,1.11,5.31,2.87,8.52,3.33C411.72,434.22,410.5,438.08,409.96,439.55z"/>
<path fill="#FFFFFF" stroke="#000000" stroke-miterlimit="10" d="M384.29,395.08c-0.21,3.53-0.43,7.13-0.64,10.66l-4.08,0.72
	c-0.05-1.43-0.1-2.85-0.14-4.26c0,0,0,0,0-0.01c-0.08-2.31-0.15-4.58-0.2-6.78L384.29,395.08z"/>
<path fill="#FFFFFF" stroke="#000000" stroke-miterlimit="10" d="M385.04,382.28c-0.23,3.92-0.48,8.3-0.75,12.8l-5.06,0.33
	c-0.11-4.6-0.16-8.87-0.13-12.45C380.87,382.67,383.36,382.32,385.04,382.28z"/>
<path fill="#FFFFFF" stroke="#000000" stroke-miterlimit="10" d="M385.61,372.04c-0.15,2.7-0.34,6.23-0.57,10.24
	c-1.68,0.04-4.17,0.39-5.94,0.68c0.03-3.12,0.13-5.71,0.33-7.51v-0.01C381.49,374.55,384.13,372.95,385.61,372.04z"/>
<path fill="#FFFFFF" stroke="#000000" stroke-miterlimit="10" d="M385.83,366.71c0,0.64-0.08,2.55-0.22,5.32v0.01
	c-1.48,0.91-4.12,2.51-6.18,3.4c0.08-0.9,0.2-1.6,0.34-2.08c1.29-4.47,3.21-6.69,5.39-9.53C385.55,364.4,385.83,365.3,385.83,366.71
	z"/>
<path fill="#FFFFFF" stroke="#000000" stroke-miterlimit="10" d="M383.39,433.46c-0.56,0.12-1.04,0.25-1.46,0.39
	c0.11-1.69,0.59-9.5,1.19-19.25c0.17-2.82,0.35-5.81,0.53-8.86c0.21-3.53,0.43-7.13,0.64-10.66c0.27-4.5,0.52-8.88,0.75-12.8
	c0.23-4.01,0.42-7.54,0.57-10.24v-0.01c0.14-2.77,0.22-4.68,0.22-5.32c0-1.41-0.28-2.31-0.67-2.88c1.02-1.33,2.1-2.8,3.2-4.7
	c0.77,0.86,1.47,2.22,1.91,4.37C391.5,369.62,384.89,421.86,383.39,433.46z"/>
<path fill="#FFFFFF" stroke="#000000" stroke-miterlimit="10" d="M549.45,345.18c0,0.08-0.01,0.16-0.01,0.24
	c-20.84,2.1-63.59,18.46-74.32,20.97c-10.46,2.45-37.56,3.2-44.78,3.36c-0.68-0.21-1.38-0.4-2.09-0.58
	c-1.85-4.33,3.56-6.39,3.56-6.39s-1.78-0.96-3.11-2.23c-1.05-1-1.82-2.18-1.22-3.23c-0.32-0.32-0.55-0.7-0.69-1.13
	c-0.57-1.71,0.19-4.12,0.95-5.58c8.97-0.8,61.16-5.42,78.57-5.41C522.75,345.2,537.48,343.21,549.45,345.18z"/>
<path fill="#FFFFFF" stroke="#000000" stroke-miterlimit="10" d="M550.18,342.28c-0.31,0.8-0.66,1.89-0.73,2.9
	c-11.97-1.97-26.7,0.02-43.14,0.02c-17.41-0.01-69.6,4.61-78.57,5.41c0.11-0.22,0.22-0.42,0.33-0.59c-2.68-3.31-1.54-6.2-0.5-7.74
	l1.45-0.21h0.01l11.46-1.72l27.68-4.15c0,0,45.8,1.7,53.37,2.23c8.56-0.8,22.99-3.39,25.49-0.98c2.49,2.4,2.67,5.08,2.67,5.08
	S549.87,342.44,550.18,342.28z"/>
<path fill="#FFFFFF" stroke="#000000" stroke-miterlimit="10" d="M383.12,414.6c-0.6,9.75-1.08,17.56-1.19,19.25
	c-0.42,0.13-0.77,0.27-1.06,0.39c-0.27-4.97-0.63-11.93-0.96-19.38L383.12,414.6z"/>
<path fill="#FFFFFF" stroke="#000000" stroke-miterlimit="10" d="M383.65,405.74c-0.18,3.05-0.36,6.04-0.53,8.86l-3.21,0.26
	c-0.12-2.76-0.23-5.58-0.34-8.4L383.65,405.74z"/>
<path fill="#FFFFFF" stroke="#000000" stroke-miterlimit="10" d="M428.7,360.55c-2.29,1.14-6.42,3.47-10.05,6.89
	c-2.39,2.26-4.57,4.99-5.85,8.18c-0.18,0.45-0.37,0.97-0.56,1.57c-0.91,2.82-1.94,7.21-3,12.37c-0.89,4.37-1.8,9.29-2.67,14.27
	c-0.73,4.18-1.42,8.41-2.06,12.39c-0.58,3.68-1.11,7.16-1.56,10.19c-0.57,3.9-1,7.07-1.24,9.04c-1.23-0.44-2.52-0.83-3.86-1.17
	c0.87-8.68,5.63-53.59,11.74-63.77c4.98-8.31,13.21-12.63,17.2-14.32c0.14,0.43,0.37,0.81,0.69,1.13
	C426.88,358.37,427.65,359.55,428.7,360.55z"/>
<path fill="#FFFFFF" stroke="#000000" stroke-miterlimit="10" d="M410.03,443.9c0.01,0.73-0.03,2.26-1.3,2.62
	c0.27,2.31-2.18,4.54-2.18,4.54s-1.03-1.74-9.89-4.85c-8.87-3.12-19.74,1.87-19.74,1.87l1.74-4.06c0,0,0.44-4.19,1.78-4.72
	c-1.03-1.07-0.62-4.5-0.62-4.5s0.33-0.25,1.05-0.56c0.29-0.12,0.64-0.26,1.06-0.39c0.42-0.14,0.9-0.27,1.46-0.39
	c1.82-0.39,4.41-0.64,7.91-0.34c2.19,0.19,4.42,0.6,6.55,1.16c1.34,0.34,2.63,0.73,3.86,1.17c3.62,1.26,6.64,2.81,8.25,4.1
	c0.28,0.23,0.51,0.44,0.7,0.64c0,0-0.59,3.12-0.64,3.34C410.01,443.58,410.02,443.71,410.03,443.9z"/>
<path fill="#FFFFFF" stroke="#000000" stroke-miterlimit="10" d="M428.25,369.17c-3.7-0.95-7.66-1.5-9.6-1.73
	c3.63-3.42,7.76-5.75,10.05-6.89c1.33,1.27,3.11,2.23,3.11,2.23S426.4,364.84,428.25,369.17z"/>
<path fill="#FFFFFF" stroke="#000000" stroke-miterlimit="10" d="M429.88,378.03c-0.1,0.07-0.2,0.15-0.29,0.23
	c-1.07,0.87-2.12,1.86-3.14,2.91c-4.71-2.73-10.83-3.66-14.21-3.98c0.19-0.6,0.38-1.12,0.56-1.57c1.28-3.19,3.46-5.92,5.85-8.18
	c1.94,0.23,5.9,0.78,9.6,1.73c0.08,0.2,0.18,0.41,0.3,0.62C426.33,371.5,425.74,375.6,429.88,378.03z"/>
<path fill="#FFFFFF" stroke="#000000" stroke-miterlimit="10" d="M426.45,381.17c-4.41,4.54-8.07,10.04-8.07,10.04
	s-0.04,0.32-0.13,0.9c-2.9-1.86-6.71-2.4-9.01-2.55c1.06-5.16,2.09-9.55,3-12.37C415.62,377.51,421.74,378.44,426.45,381.17z"/>
<path fill="#FFFFFF" stroke="#000000" stroke-miterlimit="10" d="M418.25,392.11c-0.3,2.25-1.17,8.3-2.2,13.73
	c-3.63-0.42-7.49-1.43-9.48-2.01c0.87-4.98,1.78-9.9,2.67-14.27C411.54,389.71,415.35,390.25,418.25,392.11z"/>
<path fill="#FFFFFF" stroke="#000000" stroke-miterlimit="10" d="M416.05,405.84c-0.02,0.1-0.04,0.21-0.06,0.31
	c-0.75,3.95-3.17,9.82-4.16,11.62c-2.21,0.31-5.42-0.79-7.32-1.55c0.64-3.98,1.33-8.21,2.06-12.39
	C408.56,404.41,412.42,405.42,416.05,405.84z"/>
<path fill="#FFFFFF" stroke="#000000" stroke-miterlimit="10" d="M411.37,428.49c0.05,0.42,0.08,0.84,0.1,1.25
	c-3.21-0.46-6.64-2.22-8.52-3.33c0.45-3.03,0.98-6.51,1.56-10.19c1.9,0.76,5.11,1.86,7.32,1.55c-0.14,0.25-0.25,0.43-0.32,0.5
	C410.93,418.86,413.16,425.52,411.37,428.49z"/>
<path fill="#FFFFFF" stroke="#000000" stroke-miterlimit="10" d="M407.56,771.03c-74.36-2.49-78.32-49.37-98.72-47.29
	c-21.03,2.13-44.91,33.86-56.32,50.25c-10.33-38.49-6.03-105.86,32.08-196.39c34.29-81.46,85-160.39,94.83-175.4
	c0.04,1.41,0.09,2.83,0.14,4.26c0.11,2.82,0.22,5.64,0.34,8.4c0.33,7.45,0.69,14.41,0.96,19.38c-0.72,0.31-1.05,0.56-1.05,0.56
	s-0.41,3.43,0.62,4.5c-1.34,0.53-1.78,4.72-1.78,4.72l-1.74,4.06c0,0-11.29,34.73-10.58,38.76c0.72,4.02,14.74,17.57,19.49,16.38
	c2.62-0.66,5.96-3.04,8.43-5.06c-3.61,15.59-6.98,32.45-8.43,46.17c-1.63,15.38,0.36,33.18,3.17,48.53v0.01
	c-2.88,7.05-10.39,26.14-10.77,34.39c-0.31,6.53,6.57,18.89,11.58,26.95c-3.77,10.47-9.67,28.88-8.02,37.45
	c0.93,4.81,4.89,10.67,9.38,16.02c-2.79,8.91-8.37,27.52-8.19,33.4C383.15,746.47,396.9,762.65,407.56,771.03z"/>
<path fill="#FFFFFF" stroke="#000000" stroke-miterlimit="10" d="M534.92,777.11c-7.19,5.26-26.78,18.72-37.88,18.15
	c-9.88-0.51-24.64-8.72-32.21-13.32c0.56-0.55,0.84-0.89,0.84-0.89v-8.48c0,0,15.84-12.94,20.71-32.19c0,0-1.77-38.12-0.01-54.3
	c0.72,0.83,1.16,1.3,1.16,1.3s-1.9,7.37,0,13.07c1.9,5.7,6.66,11.88,6.66,11.88v28.99c0,0,8.08,14.02,27.32,16.87
	c-0.23,9.03,0,13.49,0,13.49S525.2,774.79,534.92,777.11z"/>
<path fill="#FFFFFF" stroke="#000000" stroke-miterlimit="10" d="M730.92,758.51c-30.04,3.18-38.24,29.38-62.79,29.38
	c-26.14,0-27.33-18.29-27.33-24.47c-9.68-3.14-21.17,0.21-29.53,3.84c0.33-3.63,0.87-8.46,1.73-12.87
	c1.66-8.56,10.22-19.49,11.4-25.9c1.19-6.42-6.07-9.51-6.07-9.51s11.54-12.59,11.78-22.57c0.2-8.66-17.3-36.99-24.19-46.82
	c-1.05-1.51-1.85-2.58-2.31-3.08c1.77-13.52,1.3-23.21-0.02-30.06c6.57-22.34,19.95-71.55,27.29-103.96
	c8.58-37.87,5.72-85.55,4.87-96.83c0.69-2.4,1.37-4.78,2.02-7.12c1.32-4.76,2.53-9.33,3.5-13.5c0.84-3.55,1.49-6.81,1.91-9.68
	c0.11-0.79,0.21-1.58,0.29-2.37c0.52-5.15,0.36-10.43-0.15-15.44c-0.52-5.06-1.4-9.85-2.29-13.95c-0.69-3.16-1.4-5.92-1.95-8.07
	c-0.67-2.56-1.13-4.28-1.13-4.84c0-1.73,2.14-18.91,3.3-28.15c1.78,1.89,3.28,3.65,4.42,5.22c7.01,9.62,26.73,46.45,52.4,178.57
	C716.45,590.97,735.32,683.47,730.92,758.51z"/>
<path fill="#FFFFFF" stroke="#000000" stroke-miterlimit="10" d="M440.49,340.35l-11.46,1.72h-0.01l-0.69-0.76l-5.47-5.91
	c1.72-2.15,3.18-4.25,4.2-6.07L440.49,340.35z"/>
<path fill="#FFFFFF" stroke="#000000" stroke-miterlimit="10" d="M564.38,316.47c1.54,4.88,3.23,10.97,2.88,13.23
	c-0.57,3.61-14.32,11.11-17.08,12.57v0.01c-0.31,0.16-0.48,0.25-0.48,0.25s-0.18-2.68-2.67-5.08c-2.5-2.41-16.93,0.18-25.49,0.98
	c-7.57-0.53-53.37-2.23-53.37-2.23l-27.68,4.15l-13.43-11.02l-4.38-3.6l-9.4-7.71l2.97-31.02c0.75,3.26,1.75,5.99,3.08,7.94
	c0,0,17.47,14.8,32.26,16.58c14.79,1.78,36.18,0.89,46.16-1.61c9.98-2.49,42.42-26.37,42.42-26.37l7.48-9.8
	c0,0,13.5-8.98,32.54-20.59c0,1.5,0,3.28,0.01,5.27c0.06,10.73,0.33,27.56,1.36,40.76C577.51,303.25,570.12,310.67,564.38,316.47z"
	/>
<path fill="#FFFFFF" stroke="#000000" stroke-miterlimit="10" d="M550.68,352.51c-0.27,1.05-1.23,2.12-2.15,2.93
	c-0.48,0.43-0.94,0.78-1.28,1.02c-0.01,0-0.01,0.01-0.02,0.01c-12.08,3.25-46.46,12.53-65.31,17.84h-0.21
	c-2.57,0.33-5.52,0.64-8.69,0.94c-0.42,0.04-0.84,0.08-1.27,0.12c-1.36,0.13-2.76,0.25-4.18,0.37c-14.44,1.23-31.21,2.16-37.34,2.48
	c-0.12-0.06-0.24-0.12-0.35-0.19c-4.14-2.43-3.55-6.53-1.33-8.24c0,0,0.65-0.01,1.79-0.04c7.22-0.16,34.32-0.91,44.78-3.36
	c10.73-2.51,53.48-18.87,74.32-20.97c-0.01,0.44,0.04,0.85,0.17,1.21C550.32,348.59,551.22,350.37,550.68,352.51z"/>
<path fill="#FFFFFF" stroke="#000000" stroke-miterlimit="10" d="M624.4,728.49c-1.18,6.41-9.74,17.34-11.4,25.9
	c-0.86,4.41-1.4,9.24-1.73,12.87c-0.3,3.42-0.41,5.78-0.41,5.78s-2.19,0.31-5.23,0.53c-0.83,3.44-2.87,10.72-5.94,14.32
	c-1.21,1.42-3.13,3.21-5.42,5.01c-5.48,4.31-13.07,8.68-18.1,8.18c-2.46-0.25-6.44-0.96-10.69-1.92c-8.03-1.8-17.02-4.47-18.54-6.45
	c-1.46-1.91-4.06-9.22-5.77-14.37c-0.15-0.44-0.29-0.85-0.42-1.25c8.31-18.63,30.87-70.23,36.84-93.75
	c6.89,11.41,12.36,12.83,12.36,12.83s13.23-26.51,15.97-46.58c6.89,9.83,24.39,38.16,24.19,46.82
	c-0.24,9.98-11.78,22.57-11.78,22.57S625.59,722.07,624.4,728.49z"/>
<path fill="#FFFFFF" stroke="#000000" stroke-miterlimit="10" d="M504.64,443.81c0,0-3.92-47.06-7.25-54.3
	c-2.67-5.83-4.89-12.58-5.66-14.99c1.49,0.03,3.04,0.07,4.65,0.11c2.1,2.22,5.09,6.56,6.48,14.06
	C505.12,400.92,504.64,443.81,504.64,443.81z"/>
<path fill="#FFFFFF" stroke="#000000" stroke-miterlimit="10" d="M605.92,649.59c-2.74,20.07-15.97,46.58-15.97,46.58
	s-5.47-1.42-12.36-12.83c-5.97,23.52-28.53,75.12-36.84,93.75c-0.16,0.38-0.33,0.76-0.49,1.11c-1.95-0.33-3.73-0.69-5.34-1.09
	c-9.72-2.32-13.41-5.43-13.41-5.43s-0.23-4.46,0-13.49c-19.24-2.85-27.32-16.87-27.32-16.87v-28.99c0,0-4.76-6.18-6.66-11.88
	c-1.9-5.7,0-13.07,0-13.07s-0.44-0.47-1.16-1.3c-1.79-2.05-5.33-6.28-8.39-11.01c-3.11-4.84-5.72-10.21-5.42-14.31
	c0.72-9.74,8.08-27.32,8.08-27.32l-13.9-22.58l2.26-24.04l-0.8-1.59c8.33,13.5,29.72,46.1,54.98,68.41
	c32.55,28.75,59.88-9.5,66.29-25.42c3.38-8.39,5.66-18.9,7.06-26.97c0.87,0.69,5.01,4.46,7.06,15.2c1.32,6.85,1.79,16.54,0.02,30.06
	C604.07,647.01,604.87,648.08,605.92,649.59z"/>
<path fill="#FFFFFF" stroke="#000000" stroke-miterlimit="10" d="M466.31,581.46c-0.05,0.15-0.09,0.29-0.13,0.44v0.01
	c-2.65,9.45-6.88,24.57-9.06,32.52c-3.33,12.12-31.37,77.46-38.5,76.51c-7.13-0.95-23.76-28.99-23.76-28.99s-2.23-3.19-5.05-7.74
	c-5.01-8.06-11.89-20.42-11.58-26.95c0.38-8.25,7.89-27.34,10.77-34.39v-0.01c-2.81-15.35-4.8-33.15-3.17-48.53
	c1.45-13.72,4.82-30.58,8.43-46.17c1-4.32,2.02-8.54,3.02-12.57c0.15,0.07,0.29,0.14,0.43,0.22l-0.41-0.33
	c4.83-19.44,9.25-34.42,9.25-34.42s2.45-2.23,2.18-4.54c1.27-0.36,1.31-1.89,1.3-2.62l14.53,12.27l19.01,54.42l20.15,18.65
	l0.76,48.59L466.31,581.46z"/>
<path fill="#FFFFFF" stroke="#000000" stroke-miterlimit="10" d="M477.98,675.07c-10.84,17.34-40.65,55.46-50.57,64.44
	c-1.78-0.14-20.86-16.25-20.86-16.25s-8.34-7.18-15.38-15.58c-4.49-5.35-8.45-11.21-9.38-16.02c-1.65-8.57,4.25-26.98,8.02-37.45
	c2.82,4.55,5.05,7.74,5.05,7.74s16.63,28.04,23.76,28.99c7.13,0.95,35.17-64.39,38.5-76.51c2.18-7.95,6.41-23.07,9.06-32.52
	c0.55,0.91,1.23,2.03,2.02,3.32l0.8,1.59l-2.26,24.04l13.9,22.58c0,0-7.36,17.58-8.08,27.32
	C472.26,664.86,474.87,670.23,477.98,675.07z"/>
<path fill="#FFFFFF" stroke="#000000" stroke-miterlimit="10" d="M486.38,740.38c-4.87,19.25-20.71,32.19-20.71,32.19v0.54
	c-5.02,1.87-13.95,4.92-18.89,4.92c-5.24,0-14.33-5.9-18.78-9.03c-2.15,1.48-6.79,4.66-10.67,7.2h-0.01c-0.14,0-0.29-0.01-0.44-0.03
	c-2.26-0.24-5.6-2.21-9.31-5.14h-0.01c-10.66-8.38-24.41-24.56-24.58-29.95c-0.18-5.88,5.4-24.49,8.19-33.4
	c7.04,8.4,15.38,15.58,15.38,15.58s19.08,16.11,20.86,16.25c9.92-8.98,39.73-47.1,50.57-64.44c3.06,4.73,6.6,8.96,8.39,11.01
	C484.61,702.26,486.38,740.38,486.38,740.38z"/>
<path fill="#FFFFFF" stroke="#000000" stroke-miterlimit="10" d="M465.67,773.11v7.94c0,0-0.28,0.34-0.84,0.89
	c-1.4,1.36-4.58,4.02-9.73,6.02c-2.95,1.16-6.54,2.09-10.81,2.43c-7.59,0.61-14.55-1.8-19.51-4.29c-4.68-2.34-7.58-4.74-7.58-4.74
	l-0.3-4.89c0.14-0.09,0.28-0.18,0.42-0.27h0.01c3.88-2.54,8.52-5.72,10.67-7.2c4.45,3.13,13.54,9.03,18.78,9.03
	C451.72,778.03,460.65,774.98,465.67,773.11z"/>
<path fill="#FFFFFF" stroke="#000000" stroke-miterlimit="10" d="M455.1,787.96v14.5c-2.26,2.6-5.82,5.81-10.46,7.18
	c-6.98,2.06-16.4-4.74-19.44-7.15l-0.31-12.02l-0.11-4.37c4.96,2.49,11.92,4.9,19.51,4.29C448.56,790.05,452.15,789.12,455.1,787.96
	z"/>
<path fill="#FFFFFF" stroke="#000000" stroke-miterlimit="10" d="M466.74,816.91c-30.88,18.01-52.51-1.33-52.51-1.33
	c-3.69-3.45-9.39-10.1-3.09-18.42c3.66-4.85,9.5-6.31,13.75-6.69l0.31,12.02c3.04,2.41,12.46,9.21,19.44,7.15
	c4.64-1.37,8.2-4.58,10.46-7.18v-11.69c4.09,0.8,14.36,3.47,16.16,10.35C472.41,805.53,469.68,811.82,466.74,816.91z"/>
<path fill="#FFFFFF" stroke="#000000" stroke-miterlimit="10" d="M460.92,825.56c0,0,4.99,21.03,1.07,27.32
	c-3.92,6.3-21.39,12.24-25.31,14.62c-1.16,0.7-3.56,2.54-6.35,4.79c-3.48-5.33-7.39-10.88-10.76-14.3
	c-5.06-5.14-16.75-9.02-24.77-11.2c0.06-0.03,0.12-0.05,0.18-0.08c14.61-22.1,18.89-22.22,18.89-22.22s-6.06-4.52,0.36-8.91
	c0,0,21.63,19.34,52.51,1.33C463.93,821.78,460.92,825.56,460.92,825.56z"/>
<path fill="#FFFFFF" stroke="#000000" stroke-miterlimit="10" d="M430.33,872.29c-6.63,5.32-15.51,12.91-15.51,12.91
	s-50.85,2.97-52.51,1.43c-1.67-1.55,3.9-27.46,32.49-39.84c8.02,2.18,19.71,6.06,24.77,11.2
	C422.94,861.41,426.85,866.96,430.33,872.29z"/>
<path fill="#FFFFFF" stroke="#000000" stroke-miterlimit="10" d="M597.15,810.49c-2.4,3.82-7.22,9.65-10.11,10.13
	c-3.22,0.54-15.49-6.06-19.75-8.41l-1.47-10.56l-0.34-2.49c4.25,0.96,8.23,1.67,10.69,1.92c5.03,0.5,12.62-3.87,18.1-8.18l0.91,5.55
	L597.15,810.49z"/>
<path fill="#FFFFFF" stroke="#000000" stroke-miterlimit="10" d="M612.26,820.62c-0.18,0.24-0.36,0.47-0.54,0.69
	c0,0.02,0.01,0.04,0.02,0.07c-4.97,6.64-23.58,17.47-27.02,17.33c-2.84-0.12-16.91-7.15-23.21-9.86c-0.07-0.17-0.14-0.33-0.22-0.5
	c-10.61-6.06-6.69-12.83-6.15-18.33c0.41-4.22,7.44-7.21,10.68-8.37l1.47,10.56c4.26,2.35,16.53,8.95,19.75,8.41
	c2.89-0.48,7.71-6.31,10.11-10.13l-1.97-12.04c4.46,1.97,16.11,7.62,18.41,13.5C614.99,815.53,613.82,818.51,612.26,820.62z"/>
<path fill="#FFFFFF" stroke="#000000" stroke-miterlimit="10" d="M635.74,880.17c-8.52-2.85-19.62-5.31-29.68-4.41
	c-9.16,0.82-18.25,3.86-25.17,7.6c-0.71-2.52-1.35-4.73-2.11-6.36c-2.91-6.24-11.52-10.87-13.84-13.54
	c-2.32-2.68-2.14-26.38-2.14-26.38s0.66-3.65-1.29-8.23c6.3,2.71,20.37,9.74,23.21,9.86c3.44,0.14,22.05-10.69,27.02-17.33
	c0.81,2.57,1.34,7.35-3.27,11.95c1.75,4.69,4.4,14.18,7.97,21.04C620.83,862.78,633.13,875.67,635.74,880.17z"/>
<path fill="#FFFFFF" stroke="#000000" stroke-miterlimit="10" d="M632.84,920.6c-8.38,0-29.05-5.99-39.56-14.37
	c-7.77-6.19-10.38-15.77-12.39-22.87c6.92-3.74,16.01-6.78,25.17-7.6c10.06-0.9,21.16,1.56,29.68,4.41
	c0.05,0.08,0.09,0.15,0.13,0.22C638.19,884.67,641.22,920.6,632.84,920.6z"/>
<path fill="#FFFFFF" stroke="#000000" stroke-miterlimit="10" d="M473.02,375.25c-1.45,17.94-6.65,84.4-8.34,133.02
	c-0.47-0.97-0.91-1.96-1.33-2.97c-16.82-40.52-0.08-112.67,4.22-129.56c1.42-0.12,2.82-0.24,4.18-0.37
	C472.18,375.33,472.6,375.29,473.02,375.25z"/>
<path fill="#FFFFFF" stroke="#000000" stroke-miterlimit="10" d="M388.5,478.42l-10.42,4.45c0,0,7.3,1.43,7.57,5.8
	c3.82-2.55,8.67-4.37,11.63-3.08c-1,4.03-2.02,8.25-3.02,12.57c-2.47,2.02-5.81,4.4-8.43,5.06c-4.75,1.19-18.77-12.36-19.49-16.38
	c-0.71-4.03,10.58-38.76,10.58-38.76s10.87-4.99,19.74-1.87c8.86,3.11,9.89,4.85,9.89,4.85s-4.42,14.98-9.25,34.42L388.5,478.42z"/>
<path fill="#FFFFFF" stroke="#000000" stroke-miterlimit="10" d="M397.3,485.48c-0.01,0.03-0.02,0.07-0.02,0.11
	c-2.96-1.29-7.81,0.53-11.63,3.08c-0.27-4.37-7.57-5.8-7.57-5.8l10.42-4.45L397.3,485.48z"/>
<path fill="#FFFFFF" stroke="#000000" stroke-miterlimit="10" d="M549,372.13c0.04,1.02-0.84,2.41-1.82,3.64h-0.01
	c-0.44-0.01-0.9-0.02-1.41-0.04c-1.72-0.03-3.81-0.08-6.19-0.14c-1.12-0.02-2.29-0.05-3.52-0.07c-11.31-0.27-27.06-0.62-39.67-0.89
	c-1.61-0.04-3.16-0.08-4.65-0.11c-3.79-0.08-7.15-0.15-9.81-0.21c18.85-5.31,53.23-14.59,65.31-17.84c0.01,0,0.01-0.01,0.02-0.01
	c0.52-0.14,1-0.27,1.43-0.38c0.29,1.32,0.5,3.19,0.09,5.16c-0.76,3.68-2.66,5.7-2.66,5.7S548.92,369.83,549,372.13z"/>
<path fill="#FFFFFF" stroke="#000000" stroke-miterlimit="10" d="M550.84,413.19c-3.85-15.19-9.04-30.94-14.79-37.67
	c1.23,0.02,2.4,0.05,3.52,0.07C543.74,381.02,550.67,393.06,550.84,413.19z"/>
<path fill="#FFFFFF" stroke="#000000" stroke-miterlimit="10" d="M603.33,438.08c-0.53,0-1.03,0.02-1.49,0.04
	c0.02-2.31,0.05-7.2,0.06-13.36c0-3.1,0.01-6.52,0.01-10.09c0-3.49-0.01-7.13-0.04-10.75c-0.02-4.2-0.05-8.39-0.11-12.31
	c-0.06-4.4-0.14-8.48-0.26-11.88c-0.11-3.48-0.26-6.25-0.44-7.94c-0.02-0.17-0.04-0.33-0.06-0.48c-0.96-7.3-4.19-10.58-5.74-11.75
	c0.52-1.64,1.15-3.2,1.89-4.75c2.17,1.37,6.78,5.45,8.33,15.88C607.1,381.6,604.49,421.73,603.33,438.08z"/>
<path fill="#FFFFFF" stroke="#000000" stroke-miterlimit="10" d="M601.5,379.73c-1.9-0.13-5.61-0.09-7.98,1.76
	c-0.23-3.54-0.31-6.65-0.22-9.44c2.66,0.22,5.86-0.05,7.76-0.26C601.24,373.48,601.39,376.25,601.5,379.73z"/>
<path fill="#FFFFFF" stroke="#000000" stroke-miterlimit="10" d="M601.76,391.61c-1.64-0.37-5.04-0.71-7.12,2.2
	c-0.24-2.54-0.46-4.83-0.65-6.79s-0.35-3.79-0.47-5.52v-0.01c2.37-1.85,6.08-1.89,7.98-1.76
	C601.62,383.13,601.7,387.21,601.76,391.61z"/>
<path fill="#FFFFFF" stroke="#000000" stroke-miterlimit="10" d="M601.87,403.92c-1.45-0.16-3.71,0.14-6.14,2.56
	c-0.37-4.6-0.75-8.91-1.09-12.67c2.08-2.91,5.48-2.57,7.12-2.2C601.82,395.53,601.85,399.72,601.87,403.92z"/>
<path fill="#FFFFFF" stroke="#000000" stroke-miterlimit="10" d="M601.91,414.67c-1.29-0.02-3.84,0.17-5.44,1.72
	c-0.24-3.39-0.49-6.72-0.74-9.91c2.43-2.42,4.69-2.72,6.14-2.56C601.9,407.54,601.91,411.18,601.91,414.67z"/>
<path fill="#FFFFFF" stroke="#000000" stroke-miterlimit="10" d="M601.91,414.67c0,3.57-0.01,6.99-0.01,10.09
	c-1.26-0.43-3.1-0.73-4.89,0.13c-0.17-2.84-0.35-5.69-0.54-8.5C598.07,414.84,600.62,414.65,601.91,414.67z"/>
<path fill="#FFFFFF" stroke="#000000" stroke-miterlimit="10" d="M601.9,424.76c-0.01,6.16-0.04,11.05-0.06,13.36
	c-2.05,0.09-3.54,0.33-4.23,0.47c-0.12-4.38-0.34-9.02-0.6-13.7C598.8,424.03,600.64,424.33,601.9,424.76z"/>
<path fill="#FFFFFF" stroke="#000000" stroke-miterlimit="10" d="M601.06,371.79c-1.9,0.21-5.1,0.48-7.76,0.26
	c0.14-4.96,0.79-8.9,1.96-12.49c1.55,1.17,4.78,4.45,5.74,11.75C601.02,371.46,601.04,371.62,601.06,371.79z"/>
<path fill="#FFFFFF" stroke="#000000" stroke-miterlimit="10" d="M597.01,424.89c0.26,4.68,0.48,9.32,0.6,13.7
	c-0.27,0.05-0.42,0.08-0.42,0.08s-2.04,1.12-1.73,3.21c-1.03,0.54-0.8,3.21-0.8,3.21s-2.32,0.54-1.96,3.83c0,0,0.13,0.01,0.38,0.04
	c-0.2,0.89-0.58,2.2-1.11,2.58c-0.83,0.59-9.03-0.78-12.18,5.17c-1.66,3.12-3.48,7.77-4.91,11.91c-0.3-0.3-0.57-0.56-0.79-0.77
	c-4.76-34.22-23.88-81.42-27.85-90.98c0.31-0.34,0.63-0.71,0.93-1.1h0.01c0.98-1.23,1.86-2.62,1.82-3.64
	c-0.08-2.3-2.89-5.19-2.89-5.19s1.9-2.02,2.66-5.7c0.41-1.97,0.2-3.84-0.09-5.16c-0.04-0.23-0.1-0.45-0.15-0.64
	c0.92-0.81,1.88-1.88,2.15-2.93c0.54-2.14-0.36-3.92-1.07-5.88c-0.13-0.36-0.18-0.77-0.17-1.21c0.31-0.03,0.61-0.06,0.9-0.08
	c-0.3-0.06-0.59-0.11-0.89-0.16c0.07-1.01,0.42-2.1,0.73-2.9v-0.01c2.76-1.46,16.51-8.96,17.08-12.57
	c0.35-2.26-1.34-8.35-2.88-13.23c5.74-5.8,13.13-13.22,17.18-17.29c0.47,6.16,1.11,11.53,1.97,15.13
	c2.27,9.5,6.78,17.22,13.22,21.19c1.67,6.12,3.07,13.95,0.8,18.49c-0.14,0.27-0.27,0.55-0.4,0.82c-0.74,1.55-1.37,3.11-1.89,4.75
	c-1.17,3.59-1.82,7.53-1.96,12.49c-0.09,2.79-0.01,5.9,0.22,9.44v0.01c0.12,1.73,0.28,3.56,0.47,5.52s0.41,4.25,0.65,6.79
	c0.34,3.76,0.72,8.07,1.09,12.67c0.25,3.19,0.5,6.52,0.74,9.91C596.66,419.2,596.84,422.05,597.01,424.89z"/>
<path fill="#FFFFFF" stroke="#000000" stroke-miterlimit="10" d="M584.74,507l-1.59,14.93v0.01c-6.09,10.54-28.73,47.69-49.28,53.99
	c-32.08-5.22-60.48-60.35-60.48-60.35l-8.86-2.72c0.04-1.51,0.09-3.03,0.15-4.58v-0.01c1.69-48.62,6.89-115.08,8.34-133.02
	c3.17-0.3,6.12-0.61,8.69-0.94h0.21c2.66,0.06,6.02,0.13,9.81,0.21c0.77,2.41,2.99,9.16,5.66,14.99c3.33,7.24,7.25,54.3,7.25,54.3
	s0.48-42.89-1.78-55.12c-1.39-7.5-4.38-11.84-6.48-14.06c12.61,0.27,28.36,0.62,39.67,0.89c5.75,6.73,10.94,22.48,14.79,37.67
	c-0.17-20.13-7.1-32.17-11.27-37.6c2.38,0.06,4.47,0.11,6.19,0.14c0.12,0.28,0.28,0.67,0.48,1.14c3.97,9.56,23.09,56.76,27.85,90.98
	c0.1,0.75,0.2,1.48,0.29,2.22c-1.05,3.13-1.82,5.79-2.07,7.01c-0.6,2.97,1.24,16.22,1.96,17.17c0.71,0.95,8.13,2.08,8.13,2.08
	s-0.15,0.47-0.31,1.21c-0.03,0.14-0.05,0.24-0.06,0.3c0,0.03-0.01,0.05-0.01,0.08C581.55,500.37,581.23,504.98,584.74,507z"/>
<path fill="#FFFFFF" stroke="#000000" stroke-miterlimit="10" d="M643.32,367.55c-3.39-4.04-8.66-5.55-11.25-6.07
	c2.76-2.75,6.38-5.74,8.96-7.88C641.92,357.7,642.8,362.49,643.32,367.55z"/>
<path fill="#FFFFFF" stroke="#000000" stroke-miterlimit="10" d="M643.47,382.99c-5.69-6.48-17.14-6.84-17.14-6.84
	c0.79-5.17,1.46-8.75,1.97-9.92c0.56-1.28,1.98-2.97,3.77-4.75c2.59,0.52,7.86,2.03,11.25,6.07
	C643.83,372.56,643.99,377.84,643.47,382.99z"/>
<path fill="#FFFFFF" stroke="#000000" stroke-miterlimit="10" d="M643.47,382.99c-0.08,0.79-0.18,1.58-0.29,2.37
	c-0.42,2.87-1.07,6.13-1.91,9.68c-5.94-6.73-14.32-6.6-16.69-6.41c0.63-4.72,1.21-8.97,1.75-12.48
	C626.33,376.15,637.78,376.51,643.47,382.99z"/>
<path fill="#FFFFFF" stroke="#000000" stroke-miterlimit="10" d="M641.27,395.04c-0.97,4.17-2.18,8.74-3.5,13.5
	c-6.18-6.35-12.59-7.2-14.81-7.29c0.56-4.43,1.1-8.69,1.62-12.62C626.95,388.44,635.33,388.31,641.27,395.04z"/>
<path fill="#FFFFFF" stroke="#000000" stroke-miterlimit="10" d="M641.03,353.6c-2.58,2.14-6.2,5.13-8.96,7.88
	c-1.79,1.78-3.21,3.47-3.77,4.75c-0.51,1.17-1.18,4.75-1.97,9.92c-0.54,3.51-1.12,7.76-1.75,12.48c-0.52,3.93-1.06,8.19-1.62,12.62
	c-0.49,3.91-0.99,7.96-1.5,12.04c-0.47,3.74-0.94,7.52-1.4,11.24c-0.3,2.37-0.6,4.73-0.89,7.04c-0.41,3.16-0.81,6.23-1.2,9.18
	c-0.94-0.31-1.92-0.6-2.93-0.89c2.66-14.93,6.45-68.57,8.09-73.9c1.32-4.3,11.51-15.64,15.95-20.43
	C639.63,347.68,640.34,350.44,641.03,353.6z"/>
<path fill="#FFFFFF" stroke="#000000" stroke-miterlimit="10" d="M637.77,408.54c-0.65,2.34-1.33,4.72-2.02,7.12
	c-0.36,1.27-0.73,2.55-1.1,3.83c-2.44-4.41-10.56-5.85-13.19-6.2c0.51-4.08,1.01-8.13,1.5-12.04
	C625.18,401.34,631.59,402.19,637.77,408.54z"/>
<path fill="#FFFFFF" stroke="#000000" stroke-miterlimit="10" d="M582.4,496.33c0,0-7.42-1.13-8.13-2.08
	c-0.72-0.95-2.56-14.2-1.96-17.17c0.25-1.22,1.02-3.88,2.07-7.01c0.16-0.47,0.33-0.96,0.5-1.45c2.66,2.63,8.02,8.28,8.5,11.49
	C584.02,484.39,583.47,490.86,582.4,496.33z"/>
<path fill="#FFFFFF" stroke="#000000" stroke-miterlimit="10" d="M625.89,483.32c-0.72,2.39-1.56,4.77-2.45,6.94
	c-1.28-0.39-3.2-0.43-5.35,1.31c-1.17-1-4.85-2.05-7.2,1.38v0.01c-2.23-2.16-6.77-2.86-9.73,0.7h-0.01
	c-2.54-0.39-6.64-10.87-12.69-5.08c-4.91,4.69-6.09,7.91-6.37,8.96c0.16-0.74,0.31-1.21,0.31-1.21c1.07-5.47,1.62-11.94,0.98-16.22
	c-0.48-3.21-5.84-8.86-8.5-11.49c1.43-4.14,3.25-8.79,4.91-11.91c3.15-5.95,11.35-4.58,12.18-5.17c0.53-0.38,0.91-1.69,1.11-2.58
	h0.01c0.71,0.06,2.38,0.23,4.63,0.52c7.1,0.93,20.01,3.09,27.14,7.27c0.74,0.42,1.41,0.88,2.01,1.35c0.03-0.19,0.06-0.37,0.08-0.54
	C628.47,462.69,627.97,476.39,625.89,483.32z"/>
<path fill="#FFFFFF" stroke="#000000" stroke-miterlimit="10" d="M601.15,493.66c-1.16,1.85-7.41,11.71-7.8,12.32
	c0,0.01-0.01,0.02-0.02,0.03c-1.33,1.4-3.65,2.7-7.3,1.55c-0.48-0.15-0.91-0.34-1.29-0.56c-3.51-2.02-3.19-6.63-2.72-9.08
	c0-0.03,0.01-0.05,0.01-0.08c0.01-0.06,0.03-0.16,0.06-0.3c0.28-1.05,1.46-4.27,6.37-8.96
	C594.51,482.79,598.61,493.27,601.15,493.66z"/>
<path fill="#FFFFFF" stroke="#000000" stroke-miterlimit="10" d="M610.89,492.96c-1.04,2.09-3.94,7.84-5.97,11.39
	c-0.91,1.59-1.65,2.74-1.96,2.91c-1.19,0.65-8.08-3.56-8.08-3.56s-0.44,1.17-1.53,2.28c0.39-0.61,6.64-10.47,7.8-12.32h0.01
	C604.12,490.1,608.66,490.8,610.89,492.96z"/>
<path fill="#FFFFFF" stroke="#000000" stroke-miterlimit="10" d="M618.09,491.57c-0.83,1.58-2.93,5.52-4.84,8.67
	c-1.31,2.15-2.54,3.94-3.22,4.35c-1.28,0.77-3.64,0.23-5.11-0.24c2.03-3.55,4.93-9.3,5.97-11.39v-0.01
	C613.24,489.52,616.92,490.57,618.09,491.57z"/>
<path fill="#FFFFFF" stroke="#000000" stroke-miterlimit="10" d="M623.44,490.26c-1.99,4.83-4.21,8.67-5.81,9.57
	c-1.34,0.76-3.12,0.64-4.38,0.41c1.91-3.15,4.01-7.09,4.84-8.67C620.24,489.83,622.16,489.87,623.44,490.26z"/>
<path fill="#FFFFFF" stroke="#000000" stroke-miterlimit="10" d="M630.88,512.49c-7.34,32.41-20.72,81.62-27.29,103.96
	c-2.05-10.74-6.19-14.51-7.06-15.2c-0.11-0.09-0.17-0.13-0.17-0.13s3.33-16.87,3.4-30.89c0.07-14.02-17.74-37.78-17.74-37.78
	l1.13-10.51v-0.01l1.59-14.93c0.38,0.22,0.81,0.41,1.29,0.56c3.65,1.15,5.97-0.15,7.3-1.55c0.01-0.01,0.02-0.02,0.02-0.03
	c1.09-1.11,1.53-2.28,1.53-2.28s6.89,4.21,8.08,3.56c0.31-0.17,1.05-1.32,1.96-2.91c1.47,0.47,3.83,1.01,5.11,0.24
	c0.68-0.41,1.91-2.2,3.22-4.35c1.26,0.23,3.04,0.35,4.38-0.41c1.6-0.9,3.82-4.74,5.81-9.57c0.89-2.17,1.73-4.55,2.45-6.94
	c2.08-6.93,2.58-20.63,1.06-25.76c0.39-2.86-0.08-3.65-0.08-3.65s1.25-2.71,1.07-4.45c1.07-1.83,0-4.99,0-4.99s-0.09-0.04-0.27-0.12
	c0.62-2.39,1.28-4.85,1.97-7.36v-0.01c0.62-2.22,1.25-4.47,1.9-6.74v-0.01c1.02-3.56,2.07-7.16,3.11-10.74
	c0.37-1.28,0.74-2.56,1.1-3.83C636.6,426.94,639.46,474.62,630.88,512.49z"/>
<path fill="#FFFFFF" stroke="#000000" stroke-miterlimit="10" d="M596.36,601.12c0,0,0.06,0.04,0.17,0.13
	c-1.4,8.07-3.68,18.58-7.06,26.97c-6.41,15.92-33.74,54.17-66.29,25.42c-25.26-22.31-46.65-54.91-54.98-68.41l-1.89-3.77l-1.83-3.63
	l-0.76-48.59l-0.26-16.7l1.07,0.32l8.86,2.72c0,0,28.4,55.13,60.48,60.35c20.55-6.3,43.19-43.45,49.28-53.99l-1.13,10.51
	c0,0,17.81,23.76,17.74,37.78C599.69,584.25,596.36,601.12,596.36,601.12z"/>
<path fill="#FFFFFF" stroke="#000000" stroke-miterlimit="10" d="M463.46,512.54l0.26,16.7l-20.15-18.65l-19.01-54.42l-14.53-12.27
	c-0.01-0.19-0.02-0.32-0.01-0.37c0.05-0.22,0.64-3.34,0.64-3.34c-0.19-0.2-0.42-0.41-0.7-0.64c0.54-1.47,1.76-5.33,1.51-9.81
	c-0.02-0.41-0.05-0.83-0.1-1.25c1.79-2.97-0.44-9.63,0.14-10.22c0.07-0.07,0.18-0.25,0.32-0.5c0.99-1.8,3.41-7.67,4.16-11.62
	c0.02-0.1,0.04-0.21,0.06-0.31c1.03-5.43,1.9-11.48,2.2-13.73c0.09-0.58,0.13-0.9,0.13-0.9s3.66-5.5,8.07-10.04
	c1.02-1.05,2.07-2.04,3.14-2.91c0.2-0.01,0.41-0.02,0.64-0.04c6.13-0.32,22.9-1.25,37.34-2.48c-4.3,16.89-21.04,89.04-4.22,129.56
	L463.46,512.54z"/>
<g>
	<path fill="#FFFFFF" stroke="#000000" stroke-miterlimit="10" d="M486.84,69.89c-11.44,0-22.21-0.65-30.34-1.84
		c-10.76-1.57-14.96-3.63-14.96-7.34s4.19-5.77,14.96-7.34c8.13-1.19,18.9-1.84,30.34-1.84s22.21,0.65,30.34,1.84
		c10.76,1.57,14.96,3.63,14.96,7.34s-4.19,5.77-14.96,7.34C509.05,69.23,498.27,69.89,486.84,69.89z M450.19,60.71
		c5.49,1.48,17.8,3.18,36.65,3.18s31.16-1.69,36.65-3.18c-5.49-1.48-17.8-3.18-36.65-3.18S455.68,59.22,450.19,60.71z"/>
</g>
</svg>
