<?xml version="1.0" encoding="utf-8"?>
<!-- Generator: Adobe Illustrator 25.2.0, SVG Export Plug-In . SVG Version: 6.00 Build 0)  -->
<svg version="1.1" baseProfile="tiny" id="Layer_1" xmlns="http://www.w3.org/2000/svg" xmlns:xlink="http://www.w3.org/1999/xlink"
	 x="0px" y="0px" viewBox="0 0 1000 1000" overflow="visible" xml:space="preserve">
<path fill="#FFFFFF" stroke="#000000" stroke-miterlimit="10" d="M571.78,132.87c-0.89-0.69-1.97-1.26-3.28-1.65
	c-10.15-3.03-8.19-1.61-8.19-1.61s-16.92-3.21-30.33,8.01c13.79-11.73,24.42-12.87,32.18-10.42c0.28,0.09,0.55,0.18,0.82,0.28
	C567.11,128.95,569.98,131.12,571.78,132.87z"/>
<path fill="#FFFFFF" stroke="#000000" stroke-miterlimit="10" d="M575.49,139.42c-0.24-1.23-0.63-2.46-1.24-3.59
	c-0.01-0.02-0.02-0.04-0.04-0.06c-0.12-0.2-0.54-0.83-1.29-1.7c-0.32-0.36-0.7-0.76-1.14-1.2c-0.89-0.69-1.97-1.26-3.28-1.65
	c-10.15-3.03-8.19-1.61-8.19-1.61s-16.92-3.21-30.33,8.01c13.79-11.73,24.42-12.87,32.18-10.42c-0.34-0.92-0.88-2.41-1.46-4.07
	c-2.23-0.42-4.1-0.82-5.03-0.82c-2.31,0-9.79-0.36-13.36-1.61c-3.57-1.24,7.66-9.44,7.66-9.44s-2.67-9.85,0.27-8.14
	c1.76,1.02,3.93,2.45,5.39,3.44l5.89-2.14l1.72-0.63c2.47-4.43,4.91-8.75,4.91-8.75s-1.87-0.71-4.96-2.15
	c-0.05-0.02-0.08-0.03-0.08-0.03c-5.67-2.63-15.39-7.65-25.26-15.11c-15.33-11.58-27.98-9.8-27.98-9.8
	c-8.21,0.34-16.94,4.21-23.65,11.05c-0.03,0.03-0.06,0.07-0.1,0.1c-6.64,6.8-11.28,16.52-11.46,28.59
	c11.34-5.21,16.2,10.7,16.2,12.6c0,0-0.24,4.27-2.85,6.7c-2.61,2.42-0.71,5.65,1.19,11.12c0.6,1.72,0.02,3.16-1.22,4.1
	c0.76,0.43,1.22,0.59,1.22,0.59s1.6,31.55,26.2,21.03c3.38-13.48,24.29-24.89,42.11-23.94c9.5,0.51,14.75,4.66,17.97,8.98
	c-0.05-0.31-0.11-0.55-0.2-0.72C575.28,148.15,576.34,143.79,575.49,139.42z M516.55,95.57l15.42-0.44l16.4,12.56h-2.41l-13.99-9.8
	L516.55,95.57z M525.23,113.46c-3.6-2.92-2.63-5.99,0-8.26c2.64-2.28,6.14-1.41,10.66-0.1c4.52,1.32,9.09,4.91,9.09,4.91
	c-0.18,0.53-6.24,0-10.69,1.96C529.83,113.93,528.83,116.38,525.23,113.46z"/>
<path fill="#FFFFFF" stroke="#000000" stroke-miterlimit="10" d="M561.77,106.42c-0.23,0.43-0.47,0.86-0.7,1.27
	c-0.14,0.26-0.28,0.51-0.41,0.75c-2-0.45-3.38-0.75-3.38-0.75s-0.13-0.09-0.36-0.25l4.31-0.91L561.77,106.42z"/>
<path fill="#FFFFFF" stroke="#000000" stroke-miterlimit="10" d="M570.82,167.04c-3.56,3.56-13.72,1.07-13.72,1.07
	c-0.55,0.31-5.4,0.35-12.09-0.07c-8.58-0.53-20.19-1.8-29.61-4.21c3.38-13.48,24.29-24.89,42.11-23.94
	c9.5,0.51,14.75,4.66,17.97,8.98C576.02,152.35,574.1,163.77,570.82,167.04z"/>
<polygon fill="#FFFFFF" stroke="#000000" stroke-miterlimit="10" points="548.37,107.69 545.96,107.69 531.97,97.89 516.55,95.57 
	531.97,95.13 "/>
<path fill="#FFFFFF" stroke="#000000" stroke-miterlimit="10" d="M567.15,123.97c-2.14-0.09-4.44-0.48-6.45-0.84
	c-2.23-0.42-4.1-0.82-5.03-0.82c-2.31,0-9.79-0.36-13.36-1.61c-3.57-1.24,7.66-9.44,7.66-9.44s-2.67-9.85,0.27-8.14
	c1.76,1.02,3.93,2.45,5.39,3.44c0.55,0.37,1,0.68,1.29,0.88c0.23,0.16,0.36,0.25,0.36,0.25s1.38,0.3,3.38,0.75
	c2.9,0.67,7.11,1.68,10.28,2.62c-2.14-0.01-4.41,0.44-6.09,1.98C561.65,115.97,563.14,121.1,567.15,123.97z"/>
<path fill="#FFFFFF" stroke="#000000" stroke-miterlimit="10" d="M571,123.73c-1.13,0.25-2.46,0.31-3.85,0.24
	c-4.01-2.87-5.5-8-2.3-10.93c1.68-1.54,3.95-1.99,6.09-1.98c0.02,0.01,0.04,0.01,0.06,0.02C576.35,112.68,575.81,122.66,571,123.73z
	"/>
<path fill="#FFFFFF" stroke="#000000" stroke-miterlimit="10" d="M535.89,105.1c-4.52-1.31-8.02-2.18-10.66,0.1
	c-2.63,2.27-3.6,5.34,0,8.26c3.6,2.92,4.6,0.47,9.06-1.49c4.45-1.96,10.51-1.43,10.69-1.96
	C544.98,110.01,540.41,106.42,535.89,105.1z M533.04,111.4c-1.54,0-2.79-1.46-2.79-3.26c0-1.8,1.25-3.26,2.79-3.26
	c1.54,0,2.79,1.46,2.79,3.26C535.83,109.94,534.58,111.4,533.04,111.4z"/>
<path fill="#FFFFFF" stroke="#000000" stroke-miterlimit="10" d="M583.67,139.42h-8.18c-0.24-1.23-0.63-2.46-1.24-3.59
	c-0.01-0.02-0.02-0.04-0.04-0.06c-0.32-0.6-0.71-1.17-1.17-1.7h9.88C583.07,136.04,583.32,137.84,583.67,139.42z"/>
<path fill="#FFFFFF" stroke="#000000" stroke-miterlimit="10" d="M591.58,146.67c-4.28,0.96-6.72-1.95-7.91-7.25
	c-0.35-1.58-0.6-3.38-0.75-5.35c-0.19-2.45-0.23-5.16-0.16-8.07c2.31,1.64,12.68,1.04,14.16-0.41
	C597.18,129.01,598.04,145.24,591.58,146.67z"/>
<path fill="#FFFFFF" stroke="#000000" stroke-miterlimit="10" d="M547.18,207.26c-10.07,11.09-31.13,20.4-36.66,22.72
	c-4.02-3.45-14.03-11.65-18.71-12.03c-5.94-0.47-40.87,3.09-52.99,3.33c-3.13,0.06-6.36-0.49-9.72-0.96
	c-2.01-0.29-4.06-0.55-6.16-0.64c12.51-5.46,45.83-20.51,54.85-29.53c11.17-11.17,11.41-47.35,11.41-47.35s1.6,31.55,26.2,21.03
	c9.42,2.41,21.03,3.68,29.61,4.21c-4.35,2.95-11.14,9.69-9.95,19.26C536.72,200.6,547.18,207.26,547.18,207.26z"/>
<path fill="#FFFFFF" stroke="#000000" stroke-miterlimit="10" d="M575.22,243.61c0.97,2.19,2.17,4.27,3.54,6.23
	c-9.52-7.2-65.38,8.63-65.38,8.63l-4.22-27.93c0,0,0.49-0.19,1.36-0.56c5.53-2.32,26.59-11.63,36.66-22.72
	c0,0,19.48-2.62,32.79,10.93C579.97,218.19,567.85,226.98,575.22,243.61z"/>
<path fill="#FFFFFF" stroke="#000000" stroke-miterlimit="10" d="M627.43,276.28c0,0.25-0.01,0.5-0.02,0.75
	c0,0.14-0.01,0.29-0.01,0.43v0.03c-0.45,11.9-4.46,13.38-7.36,12.34c-1.93-0.69-9.39-8.27-14.44-13.56
	c-0.01-0.01-0.02-0.02-0.02-0.03c-1.17-1.63-2.79-3.28-4.69-4.99l-0.08-0.08c-0.03-0.03-0.05-0.05-0.05-0.05
	c-6.41-5.82-15.86-12.45-22-21.28c-1.37-1.96-2.57-4.04-3.54-6.23c-7.37-16.63,4.75-25.42,4.75-25.42
	c6.89-0.71,15.92,2.14,21.39,7.13c5.46,4.99,21.38,19.01,24.95,29.94C628.31,261.41,627.69,269.13,627.43,276.28z"/>
<path fill="#FFFFFF" stroke="#000000" stroke-miterlimit="10" d="M653.4,343.65c0,0-22.43,19.26-27.66,36.71
	c-0.08,0.24-0.14,0.48-0.21,0.72c-5.52-8.91-16.61-15.57-16.61-15.57c-0.19-0.64-0.41-1.27-0.67-1.9
	c-3.7-9.07-7.71-17.41-10.92-23.68c1.73-5.51,3.29-10.96,4.44-15.77c2.69-7.35,8.77-37.11,5.29-45.38
	c-0.35-0.83-0.84-1.67-1.46-2.51c5.05,5.29,12.51,12.87,14.44,13.56c2.9,1.04,6.91-0.44,7.36-12.34c-0.16,5.1-0.02,9.84,1.52,13.41
	C632.72,299.69,649.83,327.5,653.4,343.65z"/>
<path fill="#FFFFFF" stroke="#000000" stroke-miterlimit="10" d="M704.97,463.76c-0.09-1.13-15.1,4.29-15.1,4.29
	s-13.9-1.78-24.59-13.9c-10.7-12.12-28.52,3.8-28.52,3.8s3.21-8.79,3.74-26.44c0.45-14.85-11.1-42.72-14.76-51.15
	c5.23-17.45,27.66-36.71,27.66-36.71c2.37,2.38,30.17,16.4,36.35,31.85c6.18,15.44,14.74,51.32,13.31,78.17
	C704.1,457.27,704.7,460.63,704.97,463.76z"/>
<path fill="#FFFFFF" stroke="#000000" stroke-miterlimit="10" d="M700.45,494.07c0,6.11-1.92,49.97-6.05,65.77
	c0.54-6.37-3.09-8.14-6.03-8.54c1.43-1.85,2.29-3.67,2.45-5.31c0.56-6.01-5.78-8.16-8.46-8.79c0.98-2.87,1.3-5.15,1.45-6.06
	c0.71-4.28-3.92-10.34-9.27-17.11c-5.34-6.77-28.04,3.33-28.04,3.33s-1.76-0.93-5.08-1.29c-0.04-0.05-0.09-0.09-0.14-0.14
	c-2.62-2.38-15.92-2.14-22.58,9.74c-4.43,7.91-2.01,20.35,2.28,28.97v0.01c-6.45-2.05-16.6-7.4-17.72-20.9
	c-1.67-19.96,1.66-23.28,3.56-29.23c1.9-5.94,0-13.3,4.28-17.82c4.28-4.51,25.66-28.75,25.66-28.75s17.82-15.92,28.52-3.8
	c10.69,12.12,24.59,13.9,24.59,13.9s15.01-5.42,15.1-4.29C706.26,478.45,700.45,488.19,700.45,494.07z"/>
<path fill="#FFFFFF" stroke="#000000" stroke-miterlimit="10" d="M690.82,545.99c-0.16,1.64-1.02,3.46-2.45,5.31
	c-5.15,6.68-17.74,13.73-31.05,14.29c-16.99,0.72-29.11-1.9-29.11-1.9c-2.46-1.35-5.08-4.71-7.23-9.04
	c1.95,0.62,3.56,0.93,4.48,1.07c0.05,0.02,0.1,0.03,0.14,0.03c41.57,9.36,53.29-8.35,56.76-18.55
	C685.04,537.83,691.38,539.98,690.82,545.99z"/>
<path fill="#FFFFFF" stroke="#000000" stroke-miterlimit="10" d="M694.4,559.84c0,0.01,0,0.01-0.01,0.02
	c-0.69,2.65-1.44,4.51-2.26,5.26c-5.7,5.23-40.4,6.65-46.34,6.65s-19.25-3.8-17.58-8.08c0,0,12.12,2.62,29.11,1.9
	c13.31-0.56,25.9-7.61,31.05-14.29C691.31,551.7,694.94,553.47,694.4,559.84z"/>
<path fill="#FFFFFF" stroke="#000000" stroke-miterlimit="10" d="M640.5,431.51c-0.53,17.65-3.74,26.44-3.74,26.44
	s-27.56-8.55-35.17-30.89c-7.35-21.61,13.09-42.77,7.33-61.55c0,0,11.09,6.66,16.61,15.57c0.07-0.24,0.13-0.48,0.21-0.72
	C629.4,388.79,640.95,416.66,640.5,431.51z"/>
<path fill="#FFFFFF" stroke="#000000" stroke-miterlimit="10" d="M601.77,324.16c-0.25,0.68-0.47,1.17-0.65,1.43
	c-0.82,1.19-10.78-0.74-23.74-5.08c-20.8-6.96-49.31-20.11-60.14-36.5l-3.86-25.54c0,0,55.86-15.83,65.38-8.63
	c6.14,8.83,15.59,15.46,22,21.28c0,0,0.02,0.02,0.05,0.05l0.08,0.08c0.48,0.53,2.32,2.51,4.69,4.99c0,0.01,0.01,0.02,0.02,0.03
	c0.62,0.84,1.11,1.68,1.46,2.51C610.54,287.05,604.46,316.81,601.77,324.16z"/>
<path fill="#FFFFFF" stroke="#000000" stroke-miterlimit="10" d="M434.6,253.49c-9.67,7.22-22.3,22.26-26.31,27.07
	c-0.28,0.34-0.63,0.66-1.02,0.94c-6.94,5.15-29.52,2.27-29.52,2.27c-1.66-7.84,3.8-29.23,19.49-50.14
	c9.21-12.28,17.76-14.32,25.7-13.95c2.1,0.09,4.15,0.35,6.16,0.64C429.1,220.32,436.32,241.75,434.6,253.49z"/>
<path fill="#FFFFFF" stroke="#000000" stroke-miterlimit="10" d="M513.38,258.47c-0.34-2.24-61.96-8.92-70.52-8.92
	c-2.14,0-5.04,1.54-8.26,3.94c1.72-11.74-5.5-33.17-5.5-33.17c3.36,0.47,6.59,1.02,9.72,0.96c12.12-0.24,47.05-3.8,52.99-3.33
	c4.68,0.38,14.69,8.58,18.71,12.03c-0.87,0.37-1.36,0.56-1.36,0.56L513.38,258.47z"/>
<path fill="#FFFFFF" stroke="#000000" stroke-miterlimit="10" d="M488.01,126.99c2.61-2.43,2.85-6.7,2.85-6.7
	c0-1.9-4.86-17.81-16.2-12.6h-0.01c-11.35,5.23-3.99,24.95,1.24,31.73c3.58,4.64,9.39,4.87,12.09,2.79c1.24-0.94,1.82-2.38,1.22-4.1
	C487.3,132.64,485.4,129.41,488.01,126.99z M473.16,121.33c-0.48-3.49,0.39-6.12,1.73-7.84v-0.01c1.67-2.14,4.06-2.87,5.49-2.13
	c2.58,1.33,8.66,12.21,6.14,13.71c-1.78,1.05-1.6,9.01-4.09,8.3c-0.79-0.23-1.91-0.73-3.09-1.56v-0.01
	C476.78,130,473.89,126.68,473.16,121.33z"/>
<path fill="#FFFFFF" stroke="#000000" stroke-miterlimit="10" d="M486.52,125.06c-1.78,1.05-1.6,9.01-4.09,8.3
	c-0.79-0.23-1.91-0.73-3.09-1.56v-0.01c-2.56-1.79-5.45-5.11-6.18-10.46c-0.48-3.49,0.39-6.12,1.73-7.84v-0.01
	c1.67-2.14,4.06-2.87,5.49-2.13C482.96,112.68,489.04,123.56,486.52,125.06z"/>
<path fill="#FFFFFF" stroke="#000000" stroke-miterlimit="10" d="M433.67,366.09c-1.83-3.5-4.58-7.87-8.63-13.53
	c-7.36-10.26-10.4-22.94-11.65-32.38c0.45-1.64,0.86-3.2,1.22-4.64c0.47,0.63,0.98,1.22,1.52,1.74c4.19,4.03,16.67,3.88,30.26,1.8
	C432.09,321.99,427.62,352.6,433.67,366.09z"/>
<path fill="#FFFFFF" stroke="#000000" stroke-miterlimit="10" d="M601.77,324.16c-1.15,4.81-2.71,10.26-4.44,15.77
	c-4.48,14.19-10.14,28.75-12.96,33.56c-0.61,1.03-0.96,2.9-1.14,5.32c-3.32,0.79-6.9,0.85-9.32,0.61
	c-1.11-12.91-4.81-35.39-17.14-44.26c-1.42-1.02-2.9-1.95-4.41-2.78c8.03-8.42,22.82-12.62,25.02-11.87
	c12.96,4.34,22.92,6.27,23.74,5.08C601.3,325.33,601.52,324.84,601.77,324.16z"/>
<path fill="#FFFFFF" stroke="#000000" stroke-miterlimit="10" d="M586.86,422.07c0,0-28.51,16.4-51.94,17.93
	c-23.4,1.53-54.2-0.81-103.28-16.44h-0.01c-0.06-0.02-0.11-0.04-0.17-0.06c-5.35-8.2,4.63-36.72,5.34-42.06
	c0.46-3.47,1.08-6.65-2.26-13.64c7.39,12.72,12.61,18.39,17.59,17.68c4.99-0.72,6.7-7.01,9.74-7.97c0,0,0.16-0.05,0.46-0.14
	c-0.6,5.28-0.67,9.5-0.46,11.55c0.74,7.33,42.48,19.5,62.79,20.48h0.01c2.41,0.11,4.53,0.07,6.23-0.16
	c16.04-2.14,45.98-16.4,43.49-20.32c0,0,0.01-3.82-0.48-9.5c2.42,0.24,6,0.18,9.32-0.61C582.27,392.09,586.86,422.07,586.86,422.07z
	"/>
<path fill="#FFFFFF" stroke="#000000" stroke-miterlimit="10" d="M517.24,284.01c-8.68,9.15-18.06,14.73-28.04,22.22
	c-5.52,4.13-24.3,9.9-41.64,12.67c-0.02,0.01-0.05,0.01-0.07,0.01c-0.34,0.03-0.67,0.08-1,0.15c-0.04,0-0.07,0.01-0.1,0.02
	c-13.59,2.08-26.07,2.23-30.26-1.8c-0.54-0.52-1.05-1.11-1.52-1.74v-0.01c-0.73-0.97-1.38-2.05-1.95-3.24
	c-4.38-8.93-4.77-23.13-5.39-30.79c0.39-0.28,0.74-0.6,1.02-0.94c4.01-4.81,16.64-19.85,26.31-27.07c3.22-2.4,6.12-3.94,8.26-3.94
	c8.56,0,70.18,6.68,70.52,8.92L517.24,284.01z"/>
<path fill="#FFFFFF" stroke="#000000" stroke-miterlimit="10" d="M487.04,331.93c-16.82,6.16-22.99,30.21-24.71,45.44
	c-0.3,0.09-0.46,0.14-0.46,0.14c-3.04,0.96-4.75,7.25-9.74,7.97c-4.98,0.71-10.2-4.96-17.59-17.68c-0.01-0.02-0.02-0.03-0.03-0.05
	c0-0.01-0.01-0.01-0.01-0.02c-0.25-0.51-0.51-1.04-0.81-1.59c-0.01-0.01-0.02-0.03-0.02-0.05c-6.05-13.49-1.58-44.1,12.72-47.01
	c0.03-0.01,0.06-0.02,0.1-0.02c0.33-0.05,0.67-0.1,1-0.15c0.02,0,0.05,0,0.07-0.01C460.62,317.64,480.51,328.21,487.04,331.93z"/>
<path fill="#FFFFFF" stroke="#000000" stroke-miterlimit="10" d="M530.9,409.24c-1.7,0.23-3.82,0.27-6.23,0.16
	c2.99-9.84-1.25-48.64-1.25-48.64c9.62-0.35,48.47,24.24,50.97,28.16C576.88,392.84,546.94,407.1,530.9,409.24z"/>
<path fill="#FFFFFF" stroke="#000000" stroke-miterlimit="10" d="M524.67,409.4h-0.01c-20.31-0.98-62.05-13.15-62.79-20.48
	c-0.21-2.05-0.14-6.27,0.46-11.55c5.15-1.62,51.99-16.27,61.09-16.61C523.42,360.76,527.66,399.56,524.67,409.4z"/>
<path fill="#FFFFFF" stroke="#000000" stroke-miterlimit="10" d="M574.39,388.92c-2.5-3.92-41.35-28.51-50.97-28.16
	c3.01-9.28-0.13-24.91-2.7-34.68c11.54-0.45,22.4,1.21,31.64,6.3c1.51,0.83,2.99,1.76,4.41,2.78c12.33,8.87,16.03,31.35,17.14,44.26
	C574.4,385.1,574.39,388.92,574.39,388.92z"/>
<path fill="#FFFFFF" stroke="#000000" stroke-miterlimit="10" d="M523.42,360.76c-9.1,0.34-55.94,14.99-61.09,16.61
	c1.72-15.23,7.89-39.28,24.71-45.44c0.7-0.25,1.42-0.48,2.16-0.67c10.61-2.77,21.33-4.8,31.52-5.18
	C523.29,335.85,526.43,351.48,523.42,360.76z"/>
<path fill="#FFFFFF" stroke="#000000" stroke-miterlimit="10" d="M577.38,320.51c-2.2-0.75-16.99,3.45-25.02,11.87
	c-9.24-5.09-20.1-6.75-31.64-6.3c-10.19,0.38-20.91,2.41-31.52,5.18c-0.74,0.19-1.46,0.42-2.16,0.67
	c-6.53-3.72-26.42-14.29-39.48-13.03c17.34-2.77,36.12-8.54,41.64-12.67c9.98-7.49,19.36-13.07,28.04-22.22
	C528.07,300.4,556.58,313.55,577.38,320.51z"/>
<path fill="#FFFFFF" stroke="#000000" stroke-miterlimit="10" d="M413.39,320.18c-2.65,9.72-6.8,22.42-12.05,30.25
	c-2.69,4.01-6.18,8.33-9.81,12.45c-9.1,10.34-19.04,19.45-19.42,19.45c-0.54,0-11.23-16.76-11.94-27.09
	c-0.71-10.34-8.02-21.57-8.02-21.57s0.02-0.16,0.08-0.45c0.76-4.46,7.43-40.42,25.52-49.45c0,0,22.58,2.88,29.52-2.27
	c0.62,7.66,1.01,21.86,5.39,30.79C412.77,314.47,412.99,317.16,413.39,320.18z"/>
<path fill="#FFFFFF" stroke="#000000" stroke-miterlimit="10" d="M368.01,456.29c0,0-11.88-3.21-19.49,0
	c-7.6,3.21-19.96,26.37-24.47,32.43c-4.16,5.58-10.84,22.66-21.34,22.81c-0.03-0.38-0.05-0.59-0.05-0.59s-3.8-28.51-5.7-41.35
	c-1.9-12.83,1.54-62.31,14.02-92.08c10.04-23.94,32.75-39.23,41.25-44.29c-0.06,0.29-0.08,0.45-0.08,0.45s7.31,11.23,8.02,21.57
	c0.71,10.33,11.4,27.09,11.94,27.09C372.11,382.33,359.22,437.28,368.01,456.29z"/>
<path fill="#FFFFFF" stroke="#000000" stroke-miterlimit="10" d="M398.19,408.29c-3.8,27.56-30.18,48-30.18,48
	c-8.79-19.01,4.1-73.96,4.1-73.96c0.38,0,10.32-9.11,19.42-19.45C395.49,373.05,400.64,390.52,398.19,408.29z"/>
<path fill="#FFFFFF" stroke="#000000" stroke-miterlimit="10" d="M404.84,527.1c0,3.09-5.94,11.64-10.45,20.43
	c-4.52,8.8-8.8,7.13-11.89,6.42c4.59-3.39,3.81-17.35,5.23-22.1c1.43-4.75-11.88-19.96-13.3-20.67c-1.43-0.71-5.94,1.66-9.49,4.99
	c-2.22,2.09,2.08,7.08,5.59,10.5l-8.46-7.65c0,0-24.91-2.92-22.38,7.6c-6.02,0.58-14.98,2.64-12.08,9.75c0.73,1.78,1.74,3.63,3,5.48
	c-5.96,0.57-15.41,2.45-13.93,8.54c0.26,1.06,0.7,2.14,1.31,3.2c-4.27,1.2-8.85,4.14-7.25,11.29c-3.34-1.78-7.51-47.58-8.03-53.35
	c10.5-0.15,17.18-17.23,21.34-22.81c4.51-6.06,16.87-29.22,24.47-32.43c7.61-3.21,19.49,0,19.49,0s25.66,23.76,29.47,30.65
	C401.28,493.83,404.84,524.01,404.84,527.1z"/>
<path fill="#FFFFFF" stroke="#000000" stroke-miterlimit="10" d="M369.44,558.47c-0.36,1.54-2.08,2.91-4.5,3.98
	c-15.95-2.41-28.18-11.58-34.33-20.6c-1.26-1.85-2.27-3.7-3-5.48c-2.9-7.11,6.06-9.17,12.08-9.75c0.06,0.31,0.16,0.62,0.28,0.95
	C344.25,539.22,358.74,554.43,369.44,558.47z"/>
<path fill="#FFFFFF" stroke="#000000" stroke-miterlimit="10" d="M364.94,562.45c-3.91,1.75-9.67,2.73-14.51,2.43
	c-2.62,0.11-10.48,0.52-18.54,0.74h-0.01c-6.36-3.42-11.45-7.69-13.89-12.03c-0.61-1.06-1.05-2.14-1.31-3.2
	c-1.48-6.09,7.97-7.97,13.93-8.54C336.76,550.87,348.99,560.04,364.94,562.45z"/>
<path fill="#FFFFFF" stroke="#000000" stroke-miterlimit="10" d="M331.88,565.62c-9.47,0.27-19.21,0.29-21.14-0.74
	c-1.6-7.15,2.98-10.09,7.25-11.29C320.43,557.93,325.52,562.2,331.88,565.62z"/>
<path fill="#FFFFFF" stroke="#000000" stroke-miterlimit="10" d="M387.73,531.85c-1.42,4.75-0.64,18.71-5.23,22.1
	c-0.95,2.38-6.41,4.99-13.06,4.52c-10.7-4.04-25.19-19.25-29.47-30.9c-0.12-0.33-0.22-0.64-0.28-0.95
	c-2.53-10.52,22.38-7.6,22.38-7.6l8.46,7.65c1.78,1.73,3.36,3.07,3.79,3.43l-3.79-3.43c-3.51-3.42-7.81-8.41-5.59-10.5
	c3.55-3.33,8.06-5.7,9.49-4.99C375.85,511.89,389.16,527.1,387.73,531.85z"/>
<path fill="#FFFFFF" stroke="#000000" stroke-miterlimit="10" d="M643.65,528.05c-1.66-0.71-9.26,1.19-9.26,1.19
	s1.42-2.85,4.27-4.28c2.8-1.4,5.14-6.45,2.76-8.89c3.32,0.36,5.08,1.29,5.08,1.29S643.42,524.25,643.65,528.05z"/>
<path fill="#FFFFFF" stroke="#000000" stroke-miterlimit="10" d="M683.81,531.14c-0.15,0.91-0.47,3.19-1.45,6.06
	c-3.47,10.2-15.19,27.91-56.76,18.55c-0.04,0-0.09-0.01-0.14-0.03c-1.45-0.32-2.95-0.68-4.48-1.08c-4.29-8.62-6.71-21.06-2.28-28.97
	c6.66-11.88,19.96-12.12,22.58-9.74c0.05,0.05,0.1,0.09,0.14,0.14c2.38,2.44,0.04,7.49-2.76,8.89c-2.85,1.43-4.27,4.28-4.27,4.28
	s7.6-1.9,9.26-1.19c-0.23-3.8,2.85-10.69,2.85-10.69s22.7-10.1,28.04-3.33C679.89,520.8,684.52,526.86,683.81,531.14z"/>
<path fill="#FFFFFF" stroke="#000000" stroke-miterlimit="10" d="M607.48,661.29c-3.16-2.04-5.71-3.97-5.71-3.97
	c-24.3-21.39-29.17,2.85-43.14-8.56c-9.55-7.79-12.17-10.26-21.9-19c-7.36-42.47-15.74-85.54-15.22-86.98
	c0.96-2.61-7.12-3.8-17.58-2.37c-8.33,1.13-37.64,80.12-48.84,119.74c-7.01-9.36-17.32-24.68-20.07-37.05
	c-3.96-17.8-9.73-32.54-24.68-53.07c0.65-6.06,1.31-12.41,1.95-18.84c2.7-26.96,5.19-55.3,6.36-69.52
	c3.71,0.59,8.82,0.99,14.47,0.28c11.4-1.43,7.13-2.85,19.25-5.23c12.12-2.37,33.03,0.24,39.68,0c6.65-0.23,26.14-5.22,42.87-6.41
	c16.73-1.19,20.34,0,31.74-2.26c10-1.98,18.35-9.34,25.54-22.36c3.29,21.53,6.04,50.44,5.35,56.22c-1.06,8.91,8.2,55.25,8.2,60.54
	C605.75,566.25,606.85,626.22,607.48,661.29z"/>
<path fill="#FFFFFF" stroke="#000000" stroke-miterlimit="10" d="M627.5,851.22c-0.34-0.17-2.63,0.24-6.27,0.98
	c-13.67,2.78-46.37,10.25-65.55,9.04c-7.66-0.49-13.16-2.35-14.44-6.46c-5.35-17.11,4.27-121.19,6.06-145.07
	c0.8-10.76-4.54-45.15-10.57-79.95c9.73,8.74,12.35,11.21,21.9,19c13.97,11.41,18.84-12.83,43.14,8.56c0,0,2.55,1.93,5.71,3.97
	c0.24,13.83,0.41,23.79,0.41,24.9c0,3.92,11.05,84.47,16.04,98.37C628.92,798.47,629.63,852.29,627.5,851.22z"/>
<path fill="#FFFFFF" stroke="#000000" stroke-miterlimit="10" d="M592.2,445.69c-7.19,13.02-15.54,20.38-25.54,22.36
	c-11.4,2.26-15.01,1.07-31.74,2.26c-16.73,1.19-36.22,6.18-42.87,6.41c-6.65,0.24-27.56-2.37-39.68,0
	c-12.12,2.38-7.85,3.8-19.25,5.23c-5.65,0.71-10.76,0.31-14.47-0.28c0.4-4.81,0.64-8,0.69-8.99c0.23-4.45,5.79-25.4,9.56-39.22
	c10.45,4.37,53.04,20.95,96.83,20.33c0,0,48.4-6.02,64.03-21.98C590.58,435.72,591.4,440.49,592.2,445.69z"/>
<path fill="#FFFFFF" stroke="#000000" stroke-miterlimit="10" d="M589.76,431.81c-15.63,15.96-64.03,21.98-64.03,21.98
	c-43.79,0.62-86.38-15.96-96.83-20.33c1.14-4.16,2.11-7.68,2.73-9.9h0.01c49.08,15.63,79.88,17.97,103.28,16.44
	c23.43-1.53,51.94-17.93,51.94-17.93C587.76,423.45,588.76,426.97,589.76,431.81z"/>
<path fill="#FFFFFF" stroke="#000000" stroke-miterlimit="10" d="M455.09,660.16c-2.86,10.1-4.53,17.64-4.39,20.68
	c0.72,14.97-0.71,147.57-9.26,166.1c-2.34,5.06-9.71,7.94-19.29,9.29c-18.55,2.64-45.38-0.45-59.91-4.52
	c-5.48-1.53-9.2-3.21-10.09-4.77c-4.46-7.84,10.87-38.49,15.86-57.74s32.08-155.41,36.83-177.51c1.51-7.03,3.49-22.97,5.5-41.66
	c14.95,20.53,20.72,35.27,24.68,53.07c2.75,12.37,13.06,27.69,20.07,37.05V660.16z"/>
<path fill="#FFFFFF" stroke="#000000" stroke-miterlimit="10" d="M572.48,111.15c-0.5-0.05-1.02-0.09-1.54-0.09
	c-3.17-0.94-7.38-1.95-10.28-2.62c0.13-0.24,0.27-0.49,0.41-0.75c8.55-0.83,10.7-11.64,9.87-12c-0.78-0.33-6.98-2.53-7.75-2.8
	c-0.05-0.02-0.08-0.03-0.08-0.03c-5.67-2.63-15.39-7.65-25.26-15.11c-15.33-11.58-27.98-9.8-27.98-9.8
	c-8.21,0.34-16.94,4.21-23.65,11.05c-0.03,0.03-0.06,0.07-0.1,0.1c-0.32-3.76,0.21-11.61,8.54-17.86
	c11.41-8.56,16.64-12.12,33.75-13.07c17.1-0.95,34.09-4.52,39.2-1.67c5.11,2.86,13.79,13.43,17.71,20.32
	C589.18,73.6,585.98,105.67,572.48,111.15z"/>
<path fill="#FFFFFF" stroke="#000000" stroke-miterlimit="10" d="M561.07,107.69c0.23-0.41,0.47-0.84,0.7-1.27
	c0.48-0.86,0.98-1.75,1.47-2.63c2.47-4.43,4.91-8.75,4.91-8.75s-1.87-0.71-4.96-2.15c0.77,0.27,6.97,2.47,7.75,2.8
	C571.77,96.05,569.62,106.86,561.07,107.69z"/>
<path fill="#FFFFFF" stroke="#000000" stroke-miterlimit="10" d="M535.83,108.14c0,1.8-1.25,3.26-2.79,3.26
	c-1.54,0-2.79-1.46-2.79-3.26c0-1.8,1.25-3.26,2.79-3.26C534.58,104.88,535.83,106.34,535.83,108.14z"/>
<path fill="#FFFFFF" stroke="#000000" stroke-miterlimit="10" d="M563.24,103.79c-0.49,0.88-0.99,1.77-1.47,2.63l-4.85,1.02
	c-0.29-0.2-0.74-0.51-1.29-0.88L563.24,103.79z"/>
<path fill="#FFFFFF" stroke="#000000" stroke-miterlimit="10" d="M626.43,859.06c0,0-21.39,15.33-34.22,16.04
	c-10.16,0.56-30.17-3.57-38.05-5.31c0.57-2.94,1.08-5.85,1.52-8.55c19.18,1.21,51.88-6.26,65.55-9.04L626.43,859.06z"/>
<path fill="#FFFFFF" stroke="#000000" stroke-miterlimit="10" d="M744.05,893.99c0,0-19.96,27.09-74.85,19.96
	c-54.89-7.13-123.69-19.6-123.69-19.6s3.93-3.92,7.13-17.47c0.55-2.32,1.06-4.71,1.52-7.09c7.88,1.74,27.89,5.87,38.05,5.31
	c12.83-0.71,34.22-16.04,34.22-16.04s31.01,7.84,48.47,23.17c14.14,12.41,50.71,12.43,64.12,11.99c1.48-0.05,2.68-0.1,3.53-0.14
	C743.52,894.03,744.05,893.99,744.05,893.99z"/>
<path fill="#FFFFFF" stroke="#000000" stroke-miterlimit="10" d="M741.97,911.1c-5.41,6.77-29.64,18.89-63.5,16.04
	c-33.87-2.85-89.83-11.99-89.83-11.99s-39.2,0.4-43.13-4.5c-3.92-4.9,0-16.3,0-16.3s68.8,12.47,123.69,19.6
	c54.89,7.13,74.85-19.96,74.85-19.96C744.29,895.06,747.38,904.33,741.97,911.1z"/>
<path fill="#FFFFFF" stroke="#000000" stroke-miterlimit="10" d="M424.98,899.29c-19.36,13.23-65.22,16.39-87.04,24.4
	c-24.6,9.03-28.62,8.56-53.81,13.79c-19.37,4.01-27.81-4-30.67-7.92c0.03-0.05,0.07-0.11,0.11-0.16
	c11.44-15.95,94.09-48.54,102.74-63.6c6.76,4.63,16.72,9.85,26.67,9.35c13.01-0.65,29.79-4.74,37.63-6.82
	c0.03,2.61,0.44,5.03,1.56,6.54C424.09,877.48,424.76,889.17,424.98,899.29z"/>
<path fill="#FFFFFF" stroke="#000000" stroke-miterlimit="10" d="M422.15,856.23c-0.19,0.75-1.63,6.81-1.54,12.1
	c-7.84,2.08-24.62,6.17-37.63,6.82c-9.95,0.5-19.91-4.72-26.67-9.35c0.11-0.19,0.21-0.38,0.29-0.56c2.4-5.19,4.29-9.9,5.64-13.53
	C376.77,855.78,403.6,858.87,422.15,856.23z"/>
<path fill="#FFFFFF" stroke="#000000" stroke-miterlimit="10" d="M425.02,915.15c0,0-20.84,7.82-25.8,8.8
	c-4.97,0.98-30.13,2.62-36.08,5.23c-5.96,2.62-45.84,19.38-59.53,21.13c-13.64,1.74-63.22-2.13-50.15-20.75
	c2.86,3.92,11.3,11.93,30.67,7.92c25.19-5.23,29.21-4.76,53.81-13.79c21.82-8.01,67.68-11.17,87.04-24.4
	C425.16,907.77,425.02,915.15,425.02,915.15z"/>
</svg>
