<?xml version="1.0" encoding="utf-8"?>
<!-- Generator: Adobe Illustrator 25.2.0, SVG Export Plug-In . SVG Version: 6.00 Build 0)  -->
<svg version="1.1" baseProfile="tiny" id="Layer_1" xmlns="http://www.w3.org/2000/svg" xmlns:xlink="http://www.w3.org/1999/xlink"
	 x="0px" y="0px" viewBox="0 0 1000 1000" overflow="visible" xml:space="preserve">
<rect x="-1.1" y="3.1" fill="#FFFFFF" stroke="#000000" stroke-miterlimit="10" width="1000" height="644.2"/>
<path fill="#FFFFFF" stroke="#000000" stroke-miterlimit="10" d="M998.9,843.7c0,0-265.1,27.8-431.1,27.8
	c-225,0-568.9-44.3-568.9-44.3l0-217.9c0,0,347.6-25.6,572.5-25.6c165.2,0,427.5,4.7,427.5,4.7V843.7z"/>
<polygon fill="#FFFFFF" stroke="#000000" stroke-miterlimit="10" points="998.9,820.7 998.9,943.7 -1.1,943.7 -1.1,827.2 
	80.8,826.7 82.4,826.6 85,826.6 272.9,825.4 276.5,830.4 276.5,820.7 395.6,824.6 396.9,824.6 399.1,824.6 480.1,824.1 481.4,824.1 
	482.2,824 483.5,824 562.8,823.5 566.2,823.5 646.1,820.7 647.3,823 650.7,823 809.8,821.9 811.1,821.9 812,821.9 812.3,821.9 
	904.8,821.3 906.1,821.3 907,821.3 908.3,821.3 "/>
<polygon fill="#FFFFFF" stroke="#000000" stroke-miterlimit="10" points="80.8,826.6 82.4,846.6 84,846.6 83.4,826.6 "/>
<polygon fill="#FFFFFF" stroke="#000000" stroke-miterlimit="10" points="82.4,826.6 83.9,846.6 85.5,846.6 85,826.6 "/>
<polygon fill="#FFFFFF" stroke="#000000" stroke-miterlimit="10" points="188.4,826.4 189.3,846.5 190.6,846.7 190.6,826.7 "/>
<polygon fill="#FFFFFF" stroke="#000000" stroke-miterlimit="10" points="189.7,826.6 190.6,846.7 191.9,846.8 191.9,826.8 "/>
<polygon fill="#FFFFFF" stroke="#000000" stroke-miterlimit="10" points="275,825.4 275,846.7 274.9,846.7 273.7,846.5 272.9,825.4 
	"/>
<polygon fill="#FFFFFF" stroke="#000000" stroke-miterlimit="10" points="276.3,825.4 276.3,846.8 275,846.7 274.9,846.7 
	274.2,825.4 "/>
<polygon fill="#FFFFFF" stroke="#000000" stroke-miterlimit="10" points="397.7,824.6 397.7,846.7 397.6,846.7 396.4,846.5 
	395.6,824.6 396.9,824.6 "/>
<polygon fill="#FFFFFF" stroke="#000000" stroke-miterlimit="10" points="399.1,824.6 399,846.8 397.7,846.7 397.6,846.7 
	396.9,824.6 "/>
<polygon fill="#FFFFFF" stroke="#000000" stroke-miterlimit="10" points="482.2,824 482.1,848.4 482.1,848.4 480.7,848.2 
	480.1,824.1 481.4,824.1 "/>
<polygon fill="#FFFFFF" stroke="#000000" stroke-miterlimit="10" points="483.5,824 483.4,848.5 482.1,848.4 482,848.4 481.4,824.1 
	482.2,824 "/>
<polygon fill="#FFFFFF" stroke="#000000" stroke-miterlimit="10" points="562.8,823.1 563.5,846.5 564.8,846.7 564.9,823.3 "/>
<polygon fill="#FFFFFF" stroke="#000000" stroke-miterlimit="10" points="564.1,823.2 564.8,846.7 566.1,846.8 566.2,823.4 "/>
<polygon fill="#FFFFFF" stroke="#000000" stroke-miterlimit="10" points="649.4,823 649.2,848.4 649.2,848.4 647.9,848.2 647.3,823 
	"/>
<polygon fill="#FFFFFF" stroke="#000000" stroke-miterlimit="10" points="650.7,823 650.5,848.5 649.2,848.4 649.2,848.4 648.5,823 
	"/>
<polygon fill="#FFFFFF" stroke="#000000" stroke-miterlimit="10" points="725.3,823.1 726.1,846.5 727.4,846.7 727.5,823.3 "/>
<polygon fill="#FFFFFF" stroke="#000000" stroke-miterlimit="10" points="726.6,823.2 727.4,846.7 728.7,846.8 728.8,823.4 "/>
<polygon fill="#FFFFFF" stroke="#000000" stroke-miterlimit="10" points="809.8,821.7 810.5,848.3 811.8,848.4 812,821.9 "/>
<polygon fill="#FFFFFF" stroke="#000000" stroke-miterlimit="10" points="811.1,821.8 811.8,848.4 813.1,848.5 813.3,822 "/>
<polygon fill="#FFFFFF" stroke="#000000" stroke-miterlimit="10" points="907,821.3 906.9,843.4 906.8,843.4 905.6,843.3 
	904.8,821.3 906.1,821.3 "/>
<polygon fill="#FFFFFF" stroke="#000000" stroke-miterlimit="10" points="908.3,821.3 908.2,843.6 906.9,843.4 906.8,843.4 
	906.1,821.3 907,821.3 "/>
<path fill="#FFFFFF" stroke="#000000" stroke-miterlimit="10" d="M998.9,853.1v150H-1.1v-75.6c0,7.8,10.1,14.7,26.7,19.9l1.2,4.3
	l22.1,1.1c18.5,3.1,41,4.6,65.2,4.1c3.5-0.1,7-0.2,10.5-0.4l872.8,42.3L998.9,853.1z"/>
<path fill="#FFFFFF" stroke="#000000" stroke-miterlimit="10" d="M998.9,846.6v6.5l-1.5,145.6l-872.8-42.3
	c-3.4,0.2-6.9,0.3-10.5,0.4c-24.2,0.6-46.6-0.9-65.2-4.1l-22.1-1.1l-1.2-4.3C9,942.2-1.1,935.3-1.1,927.5v-80.9H998.9z"/>
<path fill="#FFFFFF" stroke="#000000" stroke-miterlimit="10" d="M50.3,934.8c0,0,58.5-3.1,78.5-3.1s16.9,0,24.6,0
	c7.7,0,12.3-1.5,33.9-1.5s53.2,0,53.2,0h171.6c0,0,186.3,0,192.4,0s9.2,3.1,9.2,3.1s-3.1-3.1,0-3.1s3.1,1.5,3.1,1.5
	s13.9-1.5,44.6-1.5c30.8,0,163.2,0,163.2,0h164.7l1.5-1.5H50.3V934.8z"/>
<polygon fill="#FFFFFF" stroke="#000000" stroke-miterlimit="10" points="998.5,893.9 998.9,853.1 350.4,882.2 970.3,895.1 "/>
<polygon fill="#FFFFFF" stroke="#000000" stroke-miterlimit="10" points="970.3,924.3 227.4,916.7 16.4,914.6 25.6,947.4 
	26.8,951.6 48.9,952.7 124.6,956.4 997.4,998.7 998.1,928.1 "/>
<path fill="#FFFFFF" stroke="#000000" stroke-miterlimit="10" d="M737.7,884c0,1.6-3,2.8-6.7,2.8c-3.7,0-6.7-1.3-6.7-2.8
	c0-1.6,3-2.8,6.7-2.8C734.7,881.1,737.7,882.4,737.7,884z"/>
<path fill="#FFFFFF" stroke="#000000" stroke-miterlimit="10" d="M756.6,877.3c0,3.1-5.8,5.7-13,5.7c-7.2,0-13-2.5-13-5.7
	c0-0.9,0.4-1.6,1.2-2.4c-3.2,1.4-8.4,2.4-14.2,2.4c-9.7,0-17.5-2.5-17.5-5.7c0-3.1,7.8-5.7,17.5-5.7c9.7,0,17.5,2.5,17.5,5.7
	c0,0.6-0.3,1.2-0.9,1.7c2.4-1.1,5.7-1.7,9.4-1.7C750.8,871.7,756.6,874.2,756.6,877.3z"/>
<ellipse fill="#FFFFFF" stroke="#000000" stroke-miterlimit="10" cx="706.7" cy="891.5" rx="5.8" ry="2.8"/>
<path fill="#FFFFFF" stroke="#000000" stroke-miterlimit="10" d="M676.6,875.5c0,1-0.8,1.9-1.8,1.9s-1.8-0.8-1.8-1.9
	s0.8-1.9,1.8-1.9S676.6,874.4,676.6,875.5z"/>
<ellipse fill="#FFFFFF" stroke="#000000" stroke-miterlimit="10" cx="692.8" cy="879.2" rx="3.6" ry="1.9"/>
<path fill="#FFFFFF" stroke="#000000" stroke-miterlimit="10" d="M758.4,899.1c0,1.6-2.2,2.8-4.9,2.8s-4.9-1.3-4.9-2.8
	s2.2-2.8,4.9-2.8S758.4,897.5,758.4,899.1z"/>
<path fill="#FFFFFF" stroke="#000000" stroke-miterlimit="10" d="M774.6,901.9c0,1-1.4,1.9-3.1,1.9s-3.1-0.8-3.1-1.9
	s1.4-1.9,3.1-1.9S774.6,900.9,774.6,901.9z"/>
<path fill="#FFFFFF" stroke="#000000" stroke-miterlimit="10" d="M975,945.4c0,17.7-51.5,32.1-115,32.1c-41.9,0-78.6-6.3-98.7-15.6
	c-3.9,3.7-12,6.2-21.2,6.2c-13.2,0-23.8-5.1-23.8-11.3s10.7-11.3,23.8-11.3c1.7,0,3.4,0.1,5,0.2c0-0.1,0-0.2,0-0.2
	c0-6.7,7.3-12.9,19.9-18c-0.1-0.3-0.1-0.6-0.1-0.9c0-3.1,4.8-5.7,10.8-5.7c2.3,0,4.4,0.4,6.2,1c20-5.2,46.6-8.4,75.9-8.6
	c1.9-5.4,12.1-9.5,24.4-9.5c13.7,0,24.7,5.1,24.7,11.3c0,0.3,0,0.6-0.1,0.9C946.9,921,975,932.3,975,945.4z"/>
<path fill="#FFFFFF" stroke="#000000" stroke-miterlimit="10" d="M822.2,908.5c0,3.7-7.2,6.6-16.2,6.6c-8.9,0-16.2-3-16.2-6.6
	s7.2-6.6,16.2-6.6C815,901.9,822.2,904.9,822.2,908.5z"/>
<ellipse fill="#FFFFFF" stroke="#000000" stroke-miterlimit="10" cx="962.9" cy="904.7" rx="15.7" ry="2.8"/>
<path fill="#FFFFFF" stroke="#000000" stroke-miterlimit="10" d="M732.3,928.4c0,4.2-8.7,7.6-19.3,7.6c-10.7,0-19.3-3.4-19.3-7.6
	c0-4.2,8.7-7.6,19.3-7.6C723.7,920.8,732.3,924.2,732.3,928.4z"/>
<path fill="#FFFFFF" stroke="#000000" stroke-miterlimit="10" d="M670.3,938.7c0,3.7-10.3,6.6-22.9,6.6c-12.7,0-22.9-3-22.9-6.6
	s10.3-6.6,22.9-6.6C660.1,932.1,670.3,935.1,670.3,938.7z"/>
<path fill="#FFFFFF" stroke="#000000" stroke-miterlimit="10" d="M674.8,924.6c0,2.1-4.4,3.8-9.9,3.8c-5.5,0-9.9-1.7-9.9-3.8
	s4.4-3.8,9.9-3.8C670.4,920.8,674.8,922.5,674.8,924.6z"/>
<path fill="#FFFFFF" stroke="#000000" stroke-miterlimit="10" d="M329.7,889.4c0,1.6,3,2.8,6.8,2.7c3.7-0.1,6.7-1.4,6.7-3
	c0-1.6-3-2.8-6.8-2.7C332.7,886.5,329.7,887.8,329.7,889.4z"/>
<path fill="#FFFFFF" stroke="#000000" stroke-miterlimit="10" d="M455.2,890.6c0,2.3,4.3,4,9.5,3.9c5.2-0.1,9.5-2.1,9.5-4.4
	c0-0.6-0.3-1.2-0.9-1.7c2.3,1,6.1,1.6,10.3,1.5c7-0.2,12.7-2.2,12.7-4.4c0-2.3-5.7-4-12.8-3.8c-7,0.2-12.7,2.2-12.7,4.4
	c0,0.4,0.2,0.9,0.6,1.2c-1.7-0.7-4.2-1.2-6.8-1.1C459.4,886.3,455.2,888.3,455.2,890.6z"/>
<path fill="#FFFFFF" stroke="#000000" stroke-miterlimit="10" d="M487.3,900.1c0,1.1,1.9,2,4.3,2c2.3-0.1,4.2-1,4.2-2.2
	c0-1.1-1.9-2-4.3-2C489.2,898,487.3,898.9,487.3,900.1z"/>
<path fill="#FFFFFF" stroke="#000000" stroke-miterlimit="10" d="M513.4,887.8c0,0.8,0.6,1.4,1.3,1.3c0.7,0,1.3-0.6,1.3-1.4
	c0-0.8-0.6-1.4-1.3-1.3C513.9,886.4,513.4,887,513.4,887.8z"/>
<path fill="#FFFFFF" stroke="#000000" stroke-miterlimit="10" d="M499,890.9c0,0.8,1.2,1.3,2.6,1.3c1.4,0,2.6-0.7,2.6-1.4
	c0-0.8-1.2-1.3-2.6-1.3C500.2,889.5,499,890.1,499,890.9z"/>
<path fill="#FFFFFF" stroke="#000000" stroke-miterlimit="10" d="M161.5,887.5c0,3.6,6.7,6.3,15,6.1c8.3-0.2,14.9-3.3,14.9-6.9
	c0-1-0.5-1.9-1.4-2.7c3.7,1.6,9.6,2.5,16.3,2.3c11.1-0.3,20.1-3.4,20.1-7c0-3.6-9-6.3-20.1-6s-20.1,3.4-20.1,7c0,0.7,0.3,1.4,1,2
	c-2.7-1.2-6.5-1.8-10.8-1.7C168.2,880.9,161.5,883.9,161.5,887.5z"/>
<path fill="#FFFFFF" stroke="#000000" stroke-miterlimit="10" d="M212.1,902.5c0,1.8,3,3.2,6.7,3.1c3.7-0.1,6.7-1.6,6.7-3.4
	c0-1.8-3-3.2-6.7-3.1C215.1,899.2,212.1,900.7,212.1,902.5z"/>
<path fill="#FFFFFF" stroke="#000000" stroke-miterlimit="10" d="M253.2,883.1c0,1.2,0.9,2.1,2.1,2.1c1.1,0,2.1-1,2-2.2
	s-0.9-2.1-2.1-2.1C254.1,880.9,253.2,881.9,253.2,883.1z"/>
<ellipse transform="matrix(0.9995 -3.165864e-02 3.165864e-02 0.9995 -27.9924 7.8746)" fill="#FFFFFF" stroke="#000000" stroke-miterlimit="10" cx="234.7" cy="887.9" rx="4.1" ry="2.2"/>
<path fill="#FFFFFF" stroke="#000000" stroke-miterlimit="10" d="M309.1,905c0,1.6,2.2,2.8,5,2.7c2.7-0.1,4.9-1.4,4.9-3
	c0-1.6-2.2-2.8-5-2.7C311.3,902.1,309.1,903.5,309.1,905z"/>
<path fill="#FFFFFF" stroke="#000000" stroke-miterlimit="10" d="M292.9,908.2c0,1,1.4,1.9,3.2,1.8c1.7,0,3.1-0.9,3.1-2
	c0-1-1.4-1.9-3.2-1.8C294.3,906.3,292.9,907.2,292.9,908.2z"/>
<path fill="#FFFFFF" stroke="#000000" stroke-miterlimit="10" d="M257.8,932.5c0,6.2-10.6,11.6-23.8,11.9
	c-9.3,0.2-17.3-2.1-21.3-5.7c-18.3,9-50.7,15.8-88.2,17.7c-3.4,0.2-6.9,0.3-10.5,0.4c-24.2,0.6-46.6-0.9-65.2-4.1
	c-8.7-1.5-16.6-3.3-23.3-5.4C9,942.2-1.1,935.3-1.1,927.5v-0.1c0-13.1,28-25,68.2-31c-0.1-0.3-0.1-0.6-0.1-0.9
	c0-6.2,11-11.6,24.6-11.9c12.3-0.3,22.5,3.5,24.4,8.9c29.3-0.6,55.9,2,76,6.7c1.8-0.7,3.9-1.1,6.2-1.2c6-0.1,10.8,2.3,10.8,5.4
	c0,0.3,0,0.6-0.1,0.8c9.3,3.6,15.7,7.8,18.5,12.4c1,1.7,1.5,3.4,1.5,5.1c0,0.1,0,0.2,0,0.2c1.6-0.2,3.2-0.3,4.9-0.4
	C247,921.4,257.7,926.2,257.8,932.5z"/>
<path fill="#FFFFFF" stroke="#000000" stroke-miterlimit="10" d="M245.4,916c0,3.7,7.3,6.4,16.2,6.2c8.9-0.2,16.2-3.4,16.1-7
	c0-3.7-7.3-6.4-16.2-6.2C252.6,909.2,245.3,912.4,245.4,916z"/>
<path fill="#FFFFFF" stroke="#000000" stroke-miterlimit="10" d="M89,916.1c0,1.6,7.1,2.7,15.7,2.4c8.7-0.2,15.7-1.7,15.7-3.2
	c0-1.6-7.1-2.7-15.7-2.4C96,913.1,89,914.5,89,916.1z"/>
<path fill="#FFFFFF" stroke="#000000" stroke-miterlimit="10" d="M335.3,933.7c0,4.2,8.7,7.3,19.4,7.1c10.7-0.3,19.3-3.9,19.3-8
	s-8.7-7.3-19.4-7.1C343.9,925.9,335.3,929.5,335.3,933.7z"/>
<path fill="#FFFFFF" stroke="#000000" stroke-miterlimit="10" d="M397.4,942.5c0,3.7,10.3,6.4,23,6.1c12.7-0.3,22.9-3.5,22.9-7.2
	c0-3.7-10.3-6.4-23-6.1C407.6,935.7,397.4,938.9,397.4,942.5z"/>
<ellipse transform="matrix(0.9996 -2.767852e-02 2.767852e-02 0.9996 -25.5378 11.5018)" fill="#FFFFFF" stroke="#000000" stroke-miterlimit="10" cx="402.7" cy="928.2" rx="9.9" ry="3.8"/>
<path fill="#FFFFFF" stroke="#000000" stroke-miterlimit="10" d="M282.2,365c-4.8-6.5-10-12.8-15.3-18.9
	c-5.8-6.7-11.6-13.4-17.3-20.2c-5-5.9-10.8-11.1-17-15.8c-6.3-4.9-12.9-9.3-19.6-13.7c-0.4-0.3-0.8-0.5-1.2-0.8
	c-19.3,61.3,5.4,122.3,5.4,122.3s2.8,3.4,7.6,7.1c8.6,6.6,23.5,14.1,40.2,4.2c2.9-1.7,5.3-4,7.4-6.7c7.6-10,9.9-25.7,10.2-39.8
	c0.1-5.4,0-10.5-0.3-15C282.4,366.7,282.3,365.8,282.2,365z"/>
<path fill="#FFFFFF" stroke="#000000" stroke-miterlimit="10" d="M393.2,293.8c-4-38-110-93.2-158.5-41c-3,3.2-5.8,6.8-8.3,10.9
	c-6.2,10.1-10.9,20.5-14.2,30.9c1.3,0.9,2.6,1.8,4,2.6c6.6,4.4,13.2,8.9,19.4,13.9c3,2.4,6,5,8.8,7.7c2.9,2.8,5.4,5.8,8,8.8
	c5.8,6.9,11.8,13.6,17.6,20.4c4.2,4.9,8.2,9.9,12.1,15c-0.6-6.2-1.2-10.4-1.3-10.8c0.2,0.5,3.2,7.2,7.8,15.2
	c1.6,2.8,3.3,5.7,5.2,8.6c2.6,4,5.5,7.9,8.6,11.2c5.6,6,11.6,9.8,17.3,7.9c13.8-4.6,17.4-32.9,18.3-44.5c-0.3,10,0.6,31.4,13.3,29.8
	c1.8-0.2,3.7-0.9,5.7-2.1c2.7-1.5,5.5-3.7,8.4-6.6c5.6-5.6,11.2-13.4,16-22.7c5.3-10.3,9.6-22.3,11.4-34.7
	C393.7,307.6,394,300.6,393.2,293.8z"/>
<path fill="#FFFFFF" stroke="#000000" stroke-miterlimit="10" d="M484.5,420.2c-1.1,8.5-3.8,15.3-6.8,16.9
	c-7.6,4.3-11.3-3.3-11.3-3.3s-2.8,25.3-20.6,24c-11.6-0.9-14.3-17.8-14.8-29.5c-0.5,1.1-1.2,1.8-2.5,1.8c-2.6-0.1-3.7-2.5-4.1-4.7
	c0.1,6.7-1,20-10.4,22.3c-11.1,2.8-11.9-14.8-11.9-19.1c-0.2,1.6-1.2,4.5-6.8,3.6c-7.5-1.2-5.7-36.9-5.7-36.9s-8,31.6-19,21.9
	c-3.7-3.3-7.9-19.2-6.8-35.2c0.2-3.4,0.7-6.9,1.5-10.2c2.3-9.6,7.2-18.2,16-22.7c15.5-7.8,43.2-3.1,90.6,30.7
	C484,388.4,486.3,406.5,484.5,420.2z"/>
<path fill="#FFFFFF" stroke="#000000" stroke-miterlimit="10" d="M352.9,696.8l-5.2-0.1h0l-66.4-0.9c-1.1,0-1.7,0-1.7,0l-2.4,0h-0.4
	l-28.2-0.4c0,0,0,0,0,0c0,0,0,0-0.1-0.1c-0.2-0.2-0.9-1-1.8-1.9l-0.6-0.6c0,0,0,0,0,0l-0.6-0.6c-0.1-0.1-0.1-0.1-0.2-0.2
	c-1.2-1.2-2.6-2.4-3.8-3.1c-0.2-0.1-0.3-0.2-0.5-0.3c0,0,0,0,0,0c-0.2-0.1-0.3-0.2-0.5-0.2c-0.2-0.1-0.4-0.1-0.5-0.1
	c0,0-0.1,0-0.2,0c-0.1,0-0.2,0-0.3,0c-0.1,0-0.1,0-0.2,0.1c-1.9,0.6-5.5,3.1-9,4.8c-0.3,0.2-0.7,0.3-1,0.4c-1,0.4-2,0.7-2.9,0.9
	c-2.5,0.4-7.7,0.7-12.2,1h0l-41.9,1c0,0,0,0,0,0h0c0.2-0.1,1.6-1.1,3.6-2.2c0.5-0.3,1-0.5,1.5-0.8c0.3-0.2,0.6-0.3,1-0.5
	c0.3-0.2,0.7-0.3,1-0.5c0.4-0.2,0.7-0.3,1.1-0.5c0.1,0,0.1-0.1,0.2-0.1c0.3-0.1,0.6-0.2,0.8-0.3c0.3-0.1,0.6-0.2,0.9-0.3
	c0.2,0,0.3-0.1,0.4-0.1c1-0.2,2,0,2.9,0.2c0.1,0,0.3,0.1,0.4,0.1c0.4,0.1,0.7,0.3,1.1,0.4c0.9,0.4,1.7,0.9,2.5,1.3
	c0.6,0.3,1.2,0.6,1.8,0.8c0.1,0,0.3,0.1,0.4,0.1c0.1,0,0.2,0,0.3,0c1.1,0,3.3-0.7,6.2-1.6c7.2-2.5,18.1-7,21-7.1
	c4.2-0.2,5.6,1.1,5.6,1.1l0,0c0.2-0.2,1.7-1.7,3.4-3.4c0.2-0.2,0.4-0.4,0.5-0.5c0.7-0.7,1.5-1.4,2.1-2c0.2-0.2,0.4-0.4,0.6-0.6
	c0.2-0.2,0.4-0.4,0.6-0.5c0.3-0.2,0.5-0.4,0.7-0.6c0.2-0.1,0.3-0.2,0.4-0.2c0.1,0,0.2,0,0.4,0c0.4,0,0.7,0.2,0.9,0.3v0
	c0,0,0,0,0.1,0.1c0.3,0.2,0.5,0.5,0.5,0.5s3.9-2,5.8-2.1c1.9-0.1,7.3,5.1,7.3,5.1s0,0,2.8-0.6c2.8-0.6,14.3-8.9,16.2-9.1
	c1.9-0.2,2.4,2.3,2.4,2.3s0,0,0-0.1c0,0,0-0.1,0.1-0.1c0.1-0.1,0.2-0.3,0.3-0.6c0.4-0.7,1-2,1.8-3.5c0.2-0.3,0.4-0.7,0.6-1
	c1.1-1.9,2.5-4.2,3.9-6.2c0.3-0.4,0.5-0.7,0.8-1c0.6-0.7,1.1-1.4,1.7-2c1.4-1.5,2.6-2.6,3.6-3.4c2.5-2,4.1-2.2,4.1-2.2s0,0,0-0.1
	c0.3-0.8,3.3-9.5,6.1-23.2c2.8-13.5,5.3-32.1,5-53.1v-0.1c0-1,0-2-0.1-3.1c-0.2-4-0.5-8.1-1-12.2c-5-39.8-24.5-83.3-25.2-117.5
	c0-1.3,0-2.6,0-4c0-6.5,0.3-13,0.9-19.2c1.4-16.8,4.3-32,6.6-42.2c1.7-7.8,3.1-12.6,3.1-12.6l0.2,0l6.1-0.2l1.8-0.1l1.1,0l3.9-0.1
	c0,0-0.4,2-1,5.4c-0.2,1-0.4,2.2-0.6,3.4c-0.5,2.9-1.1,6.4-1.6,10.3c-1.5,10.5-2.9,24.4-3.2,38.9c-0.1,7.2,0.1,14.5,0.8,21.7
	c1.6,16.3,8,40.4,14.9,65.2c1.2,4.5,2.5,9,3.8,13.6c7.6,27.5,14.9,54.3,15.9,71.1c0.7,12.9,0.6,24.4,0,34.4c-1,17-3.5,29.7-5.5,37.7
	c-2.2,8.7,0.2,13.8,1.9,16.1c0.8,1,1.4,1.5,1.4,1.5s1.8-0.9,4-1.7c0,0,0,0,0,0c1.3-0.5,2.7-0.9,4-1.1c0,0,0,0,0,0
	c1.2-0.2,2.2-0.2,3,0.2c3,1.4,5.3,6.2,5.3,6.2L352.9,696.8z"/>
<path fill="#FFFFFF" stroke="#000000" stroke-miterlimit="10" d="M378,401.7c0,0-37.1,30.4-50.9,59.1c-13.8,28.7,0.2,57.8-0.6,58.6
	c-0.5,0.5-6.4,4-12.6,6c-1.2,0.4-2.4,0.7-3.5,1c0,0-0.1,0-0.2,0c-1.8,0.4-3.6,0.6-5.2,0.4c-0.2,0-0.3,0-0.5-0.1
	c-0.9-0.1-1.8-0.5-2.7-1.1c-4.4-3-8.2-11.1-9.7-17.1c0,0,0-0.1,0-0.1c-0.8-3.4-0.9-6,0.2-6.6c2.3-1.3,7.7,2.6,10.5,4.9
	c0.5,0.4,0.9,0.8,1.2,1h0c0.4,0.4,0.6,0.6,0.6,0.6l1.8-0.1l2.6-0.1l4.5-0.2c0.4-0.1,0.7-0.3,0.9-0.6c1.3-1.8-0.2-7.3,0-16.1
	c0-0.3,0-0.5,0-0.5c0.3-11,3.5-27,18.1-46.7c1.1-1.6,2.4-3.1,3.7-4.8h0c9.3-11.5,22.5-24.1,41.2-37.7L378,401.7z"/>
<path fill="#FFFFFF" stroke="#000000" stroke-miterlimit="10" d="M300.4,581.7c-0.4-2.3-1.3-4.4-2.5-6.3c-0.8-1.2-1.7-2.4-2.6-3.5
	c0,0,0,0,0,0c-0.3-0.4-0.6-0.7-1-1c-3.9-4-8.2-6.4-8.2-6.4l-1.2-5.1l10.1,3.9c0,0,0,0.1,0,0.1c0.1,0.1,0.3,0.2,1,0
	c0.1,0,0.2-0.1,0.3-0.1c0.2-0.1,0.4-0.1,0.5,0c1.3,0.2,3,2.5,3,2.5S302,591.8,300.4,581.7z"/>
<path fill="#FFFFFF" stroke="#000000" stroke-miterlimit="10" d="M322.6,461.6c-4.3,1.2-1.1-35.7-0.6-41.2c-0.4,5.3-2.8,39,3.4,37.5
	h0C325.5,457.8,327.3,460.3,322.6,461.6z"/>
<path fill="#FFFFFF" stroke="#000000" stroke-miterlimit="10" d="M317.9,596.3c-1-36.2-12.1-69.8-12.1-69.8s-0.1,0-0.2,0
	c-0.4,0.1-1.7,0.2-4,0.4c-0.2,0-0.5,0-0.7,0c-0.5,0-1.1-0.3-1.7-1c-2.5-2.4-5.9-8.7-7.4-13.5c0,0,0,0,0-0.1c-0.8-2.4-1-4.4-0.4-5.2
	c2-2.9,4.8,0.8,5,1.2l-12.8-41.9c0.3,1.6,4.5,25.3,2.8,25.6c-1.8,0.4-12.4-24.7-12-48.8c0.1-6.2,4-11.1,9.6-14.9
	c0.1-0.1,0.2-0.2,0.3-0.2c1.5-1,3-1.9,4.7-2.8c0.2-14.5,1.7-28.3,3.2-38.9c0.6-4,1.1-7.4,1.6-10.3c0.2-1.3,0.4-2.4,0.6-3.4l-2.9-5.3
	l-1.1,0l-1.8,0.1l-6.1,0.2l-0.2,0c0,0-1.4,4.8-3.1,12.6c-2.2,10.1-5.1,25.4-6.6,42.2c-0.5,6.3-0.9,12.7-0.9,19.2c0,1.4,0,2.7,0,4
	c0.6,34.2,20.1,77.7,25.2,117.5c-0.2,0-0.4,0-0.5,0c-0.1,0-0.2,0.1-0.3,0.1c-0.7,0.2-0.9,0.1-1,0c0,0,0-0.1,0-0.1c0,0,0,0,0,0
	l-10.1-3.8l1.2,5.1c0,0,4.3,2.4,8.2,6.4c0.3,0.3,0.7,0.7,1,1c0,0,0,0,0,0c1,1.1,1.9,2.2,2.6,3.5c0,1,0.1,2,0.1,3.1v0.1
	c0.4,21-2.2,39.6-5,53.1c-2.8,13.8-5.8,22.4-6.1,23.2l0,0.1c0,0,1.1-0.8,3-2.3c1.4-1.2,3.2-2.8,5.3-4.8c0,0,0,0,0,0
	c2-1.9,4.1-4.2,6.2-6.8c0,0,0,0,0,0c2.2-2.7,7.2-10.3,7.9-11.5c0,0,0.1-0.1,0.1-0.1C314.5,620.2,318.2,609.1,317.9,596.3z
	 M307.9,588.7c0,0,1.5,6.8-0.9,18.1c-2.3,10.7-7.9,17.8-8.5,18.5C299.3,624.1,308.9,607,307.9,588.7z M314,611.1
	c-1.8,8.2-5.7,15.3-9.3,20.6c-3.9,5.7-7.4,9.1-7.4,9.1s1.7-3.4,4-9.1c2.3-5.7,5.1-13.7,7.5-23c4.7-18.7,3-38.7,3-38.7
	S317.7,594.2,314,611.1z"/>
<path fill="#FFFFFF" stroke="#000000" stroke-miterlimit="10" d="M318.8,638.5c-7.1,49.8-38.8,49.8-40.5,49.8c-1,0-3.6-4.4-5.7-8.1
	c-0.3-0.5-0.6-1-0.8-1.5c-1.1-2-1.9-3.6-1.9-3.6l0-0.2c0,0,0-0.1,0-0.1c0.1-0.1,0.2-0.3,0.3-0.6c0.4-0.7,1-2,1.8-3.5
	c0.2-0.3,0.4-0.7,0.6-1c1.1-1.9,2.5-4.2,3.9-6.2c0.3-0.4,0.5-0.7,0.8-1c0.6-0.7,1.1-1.4,1.7-2c1.4-1.5,2.6-2.6,3.6-3.4
	c-3.3,2.7-7.2,10.3-5.4,12.1c1.7,1.7,7.7,3,21.9-7.2c0.8-0.5,1.6-1.1,2.4-1.8c2.3-1.7,4.3-3.4,6-5.1c0,0,0,0,0,0
	C316.8,646.6,318.5,640,318.8,638.5z"/>
<path fill="#FFFFFF" stroke="#000000" stroke-miterlimit="10" d="M317.2,670.5c0,0.1-0.1,0.2-0.2,0.4
	C317.1,670.7,317.2,670.6,317.2,670.5z"/>
<path fill="#FFFFFF" stroke="#000000" stroke-miterlimit="10" d="M347.7,696.8c-0.2,0.4-56-0.7-66.5-0.9c-1.1,0-1.7,0-1.7,0
	s21.1-4.8,28.6-12.9c6-6.4,8.2-10.6,8.9-12c-0.6,1.5-2,6.2-0.2,11.1c0.7,1.8,2.1,2.7,3.9,3c1.7,0.3,3.7,0.1,5.4-0.2c0,0,0,0,0,0
	c1.2-0.2,2.3-0.5,3-0.8c-6.3,2.5-6.9,7.5-6.1,8.6c0.9,1.2,13.9-1.4,13.9-1.4S347.2,696,347.7,696.8L347.7,696.8
	C347.7,696.7,347.7,696.7,347.7,696.8z"/>
<path fill="#FFFFFF" stroke="#000000" stroke-miterlimit="10" d="M276.7,695.8l-28.2-0.4c0,0,0,0,0,0l-0.1-0.1
	c-0.2-0.2-0.9-1-1.8-1.9c-0.2-0.2-0.4-0.4-0.6-0.6c0,0,0,0,0,0c-0.2-0.2-0.4-0.4-0.6-0.6c-0.1-0.1-0.1-0.1-0.2-0.2
	c-1.2-1.2-2.6-2.4-3.8-3.1c-0.2-0.1-0.3-0.2-0.5-0.3c0,0,0,0,0,0c-0.2-0.1-0.3-0.2-0.5-0.2c-0.2-0.1-0.4-0.1-0.5-0.1
	c0,0-0.1,0-0.2,0c-0.1,0-0.2,0-0.3,0c-0.1,0-0.1,0-0.2,0.1c-1.9,0.6-5.5,3.1-9,4.8c-0.3,0.2-0.7,0.3-1,0.4c-1,0.4-2,0.7-2.9,0.9
	c-2.5,0.4-7.7,0.7-12.2,1h0l-41.9,1c0.2-0.1,1.6-1.1,3.6-2.2c0.5-0.3,1-0.5,1.5-0.8c0.3-0.2,0.6-0.3,1-0.5c0.3-0.2,0.7-0.3,1-0.5
	c0.4-0.2,0.7-0.3,1.1-0.5c0.1,0,0.1-0.1,0.2-0.1c0.3-0.1,0.6-0.2,0.8-0.3c0.3-0.1,0.6-0.2,0.9-0.3c0.2,0,0.3-0.1,0.4-0.1
	c1-0.2,2,0,2.9,0.2c0.1,0,0.3,0.1,0.4,0.1c0.4,0.1,0.7,0.3,1.1,0.4c0.9,0.4,1.7,0.9,2.5,1.3c0.6,0.3,1.2,0.6,1.8,0.8
	c0.1,0,0.3,0.1,0.4,0.1c0.1,0,0.2,0,0.3,0c1.1,0,3.3-0.7,6.2-1.6c0.2,0,14.9,0,22.9-0.9c8-0.9,3.8-5.1,3.8-5.1l0,0
	c0.2-0.2,1.7-1.7,3.4-3.4c0.2-0.2,0.4-0.4,0.5-0.5c0.7-0.7,1.5-1.4,2.1-2c0.2-0.2,0.4-0.4,0.6-0.6c0.2-0.2,0.4-0.4,0.6-0.5
	c0.3-0.2,0.5-0.4,0.7-0.6c0.2-0.1,0.3-0.2,0.4-0.2c0.1,0,0.2,0,0.4,0c0.4,0,0.7,0.2,0.9,0.3v0c0,0,0,0,0.1,0.1
	c0.1,0.1,0.2,0.2,0.5,0.5c2.9,2.9,17.3,16.8,21,14.5c4.1-2.5-5.6-8.9-5.6-8.9s12.6-5.9,13.9-6.1c0.8-0.2,2.2,5.4,4.8,10.2
	c1,1.9,2.2,3.7,3.6,4.9c0,0,0,0,0,0C274.2,695,275.4,695.6,276.7,695.8z"/>
<path fill="#FFFFFF" stroke="#000000" stroke-miterlimit="10" d="M274.2,695.1c-8.7-8-0.7-15.8-0.7-15.8l-0.9-2
	c0,0-4.6,7.9-2.7,14.1C271.9,697.6,274.2,695.1,274.2,695.1z"/>
<path fill="#FFFFFF" stroke="#000000" stroke-miterlimit="10" d="M309.8,628.7c-5,8.4-16.9,25.4-9.7,28.8c1.4,0.7,4.1,0.3,8.8-3.2
	c3,3.2-7.3,9.4-7.3,9.4v-1.9c0,0-4.7,1.7-6.4-3.4C292.8,650.5,309.8,628.7,309.8,628.7z"/>
<path fill="#FFFFFF" stroke="#000000" stroke-miterlimit="10" d="M297.1,645c-4.6,5-5.8,16-5.8,16s-3.1-7.8-0.1-12.1
	C294,644.6,297.1,645,297.1,645z"/>
<path fill="#FFFFFF" stroke="#000000" stroke-miterlimit="10" d="M314.3,517.4c0,0-5-2.3-5.4-5.7c0,0,0,0,0,0
	c-0.4-3.1-0.1-10.9,0-12.7c0-0.2,0-0.4,0-0.4C309.2,508.8,314.3,517.4,314.3,517.4z"/>
<path fill="#FFFFFF" stroke="#000000" stroke-miterlimit="10" d="M291.4,477.5c0,0-4.2-13.2-6-27.3c-1.7-13.1-1.4-27.9-1.4-27.9
	S285.8,458.4,291.4,477.5z"/>
<path fill="#FFFFFF" stroke="#000000" stroke-miterlimit="10" d="M282.3,459.9c0,0-1-9.4-1.5-13.1c-0.5-3.7-1.1-7.9-1.1-7.9
	S279.1,451.5,282.3,459.9z"/>
<path fill="#FFFFFF" stroke="#000000" stroke-miterlimit="10" d="M302.8,512.3c0,0-3.6-2.2-3.4,3.1c0.1,3.4,1.5,7,1.5,7
	S293.1,506.4,302.8,512.3z"/>
<path fill="#FFFFFF" stroke="#000000" stroke-miterlimit="10" d="M484.5,420.2c-1.6,1-3.2,1.5-4.9,1.7
	c-15.4,1.5-16.7-12.5-16.7-12.5s-1.1,5.4-6.9,7.8c-5.8,2.4-5.2-33.7-5.2-33.7s-6.1,41.1-38.7,35.3c-31.9-5.6-14.5-48.9-13.8-50.7
	c-0.7,1.4-12.5,23.7-21.8,22.2c-8.7-1.3-6.4-14.8-5.9-17.4c-0.4,1.6-2,7.3-6.7,9c-1.2,0.4-2.5,0.6-4.1,0.4c-1.3-0.2-2.2-1.6-2.7-4.1
	c-3.1-14.6,8.2-63.7,34.5-64c0.4,0,0.9,0,1.3,0c29.3,0.3,24.2,24,24.2,24s32.3-31.8,63-0.2C507.7,366.9,499.7,410.9,484.5,420.2z"/>
<path fill="#FFFFFF" stroke="#000000" stroke-miterlimit="10" d="M136.7,367.6c-1.1,8.9-3.4,16-5.4,18c-9.6,9.7-16.7-21.9-16.7-21.9
	s1.6,35.7-5,36.9c-5.2,0.9-5.9-2.3-6-3.8c0,3.9-0.5,22.2-10.5,19.4c-8.3-2.4-9.2-15.7-9.2-22.4c-0.3,2.2-1.2,4.6-3.6,4.7
	c-1.1,0-1.8-0.7-2.2-1.8c-0.4,11.7-2.8,28.7-13,29.5c-15.7,1.3-18.1-24-18.1-24s-3.3,7.6-10,3.3c-2.6-1.6-5-8.4-5.9-17
	c-1.6-13.7,0.4-31.7,11-40.3c53.9-43.7,78.7-38.9,89-21.1c3.8,6.6,5.6,14.9,6.1,23.3C137.7,356.4,137.4,362.4,136.7,367.6z"/>
<path fill="#FFFFFF" stroke="#000000" stroke-miterlimit="10" d="M141,350.9c-1.4,0.2-2.6,0-3.6-0.4c-3.6-1.4-5.2-5.9-5.7-8.1
	c-0.1-0.4-0.2-0.7-0.2-0.9c0.4,2.6,2.4,16.1-5.2,17.4c-8.2,1.4-18.6-20.9-19.2-22.2c0.6,1.8,15.9,45.1-12.1,50.7
	c-28.6,5.8-34-35.3-34-35.3s0.5,36.1-4.6,33.6s-6-7.8-6-7.8s-1.1,13.9-14.7,12.5c-1.5-0.2-2.9-0.8-4.3-1.7
	c-13.4-9.3-20.4-53.3,4-81.9c27-31.6,55.4,0.2,55.4,0.2s-4.6-24.4,22.4-24c10,0.1,17.5,9.3,22.6,20.9
	C144.3,323.5,146,350.2,141,350.9z"/>
<path fill="#FFFFFF" stroke="#000000" stroke-miterlimit="10" d="M310.1,386c-2.7,0.7-5.3,1-7.8,1.2c-3.7,0.2-7.1-0.1-10.2-0.8
	c-3.5-0.8-6.6-2.1-9.4-3.7c-1.3-0.7-2.5-1.6-3.7-2.4c-8.8-6.5-12.8-15.3-12.8-15.3s1.1,30.7-4.6,31.2c-3,0.3-4.3-2.9-4.9-6
	c0.2,6.1-0.7,14.8-7,15.1c-7.6,0.4-9.9-11.4-10.5-16.5c0.5,6.9,0.7,27.2-14.2,36.1c-7.2,4.2-17.8,5.8-33.6,2
	c-26.4-6.4-45.7-31.2-54.6-59.3c-2.6-8.3-4.4-16.8-5.1-25.3c-0.5-5.1-0.6-10.2-0.4-15.1c0.4-8.3,1.8-16.2,4.3-23.5
	c2.9-8.5,7.3-16.1,13.4-22.2c16.7-16.9,51-28.5,85.8-28.7c42.4-0.3,85.5,16.3,98.8,60.9C333.6,313.7,341,378.6,310.1,386z"/>
<path fill="#FFFFFF" stroke="#000000" stroke-miterlimit="10" d="M242.7,445.2c-4.5,8-11.2-10.5-11.2-10.5S247.3,437.1,242.7,445.2z
	"/>
<path fill="#FFFFFF" stroke="#000000" stroke-miterlimit="10" d="M226.3,457.4c-9.8,1.4-7.3-27.6-1.7-22.7
	C224.6,434.7,236.1,456,226.3,457.4z"/>
<path fill="#FFFFFF" stroke="#000000" stroke-miterlimit="10" d="M15.7,397.4c0,0-3.7,12.6-7,7.4C5.4,399.6,15.7,397.4,15.7,397.4z"
	/>
<path fill="#FFFFFF" stroke="#000000" stroke-miterlimit="10" d="M20.1,412.2c-6.6-0.5,0.2-15.1,0.2-15.1
	C23.9,393.6,26.7,412.8,20.1,412.2z"/>
<path fill="#FFFFFF" stroke="#000000" stroke-miterlimit="10" d="M15.7,397.4c0,0-3.7,12.6-7,7.4C5.4,399.6,15.7,397.4,15.7,397.4z"
	/>
<path fill="#FFFFFF" stroke="#000000" stroke-miterlimit="10" d="M20.1,412.2c-6.6-0.5,0.2-15.1,0.2-15.1
	C23.9,393.6,26.7,412.8,20.1,412.2z"/>
<path fill="#FFFFFF" stroke="#000000" stroke-miterlimit="10" d="M224.6,434.7c0,0,11.5,21.3,1.7,22.7
	C216.5,458.8,219,429.8,224.6,434.7z"/>
<path fill="#FFFFFF" stroke="#000000" stroke-miterlimit="10" d="M242.7,445.2c-4.5,8-11.2-10.5-11.2-10.5S247.3,437.1,242.7,445.2z
	"/>
<path fill="#FFFFFF" stroke="#000000" stroke-miterlimit="10" d="M566.9,713.6c0,0-6.1,3.1-3.3,5.5c2.8,2.3,64.1,0.9,64.1,0.9
	l0.9-6.4c0,0,5.2-24.9,5.5-42.8c0.2-9.8-1.1-17.5-5.5-17.8c-12.5-0.8-22,13.7-22,13.7s-1.3-13.5-6.7-13.7
	c-5.3-0.2-7.3,14.3-7.3,14.7c0.1-0.6,2.4-24.4-11-14.7c-13.5,9.7-18.8,35.3-18.9,35.7c0-0.2,0.4-6.5-2.7-6.5
	c-3.1,0-2.8,11.1-2.8,11.1s-2.7-5.3-3.9-4.6c-1.2,0.7-1.2,4.6-1.2,4.6s-4-31.2-23-31.2c-19,0-17.9,33.2-17.9,33.2s-4.1-6.8-7.2-5.2
	c-1.6,0.8-2.1,3.4-2.3,5.9c-0.2,2.4,0,4.7,0,4.7l0,0c3.7,6.5-6,1.3-10.4,3.7c-1.9,1-3.6,2.3-4.4,3.7
	C484.2,712.8,566.9,713.6,566.9,713.6z"/>
<path fill="#FFFFFF" stroke="#000000" stroke-miterlimit="10" d="M563.4,716.7c0,0-4.9,2.2-2.7,3.8c2.3,1.6,66.9,2.7,66.9,2.7
	l0.8-4.5c0,0-10.8-19.4-10.5-31.8c-0.7-2.5-1.9-4.3-3.9-4.2c-6.1,0.4-11.3,16.6-11.3,16.6s0.1-3.6-1.4-3.6c-1.4,0-5.3,7.9-5.3,8
	c0.1-0.2,4.8-14.1-8.2-13.7c-13,0.4-19.6,18.7-19.6,18.7s-0.1-2.7-1.6-2.7c-1.5,0-2.6,4.8-2.7,4.9c0-0.1,0.2-2-1.3-2
	c-1.5,0-3.7,5.3-3.7,5.3s-1.7-9.2-6.5-9.5c-3.6-0.2-4.9,3.8-5.4,5.8c0.6-3.8,1.9-15.5-4.9-15.8c-6.4-0.3-7.1,7.2-7.1,10.5
	c-0.1-2.1-0.7-5.5-3-4.9c-3.2,0.8-3.2,8.1-3.2,8.1s-2.7-11-5.9-10.1c-3.2,0.9-4.8,12.5-4.8,12.5s-2.4-8.3-5.9-7.7
	c-1,0.2-1.6,0.6-1.9,1.2c-0.8,1.3,0,3.2,0,3.2l0.9,2.8c0,0-1.5-2.5-5.4-1.7c-3.9,0.7-6.8,3.1-7.5,4.1
	C496.4,716.1,563.4,716.7,563.4,716.7z"/>
<path fill="#FFFFFF" stroke="#000000" stroke-miterlimit="10" d="M576.3,660.4c-2.1,4.8-2,9.5,0.2,10.5c2.3,1,5.8-2,8-6.8
	c2.1-4.8,2-9.5-0.2-10.5C582,652.5,578.5,655.6,576.3,660.4z"/>
<path fill="#FFFFFF" stroke="#000000" stroke-miterlimit="10" d="M517.1,672.4c-2.2,4.8-1.4,9.9,1.7,11.3c3.1,1.4,7.4-1.4,9.6-6.2
	c2.2-4.8,1.4-9.9-1.7-11.3C523.5,664.8,519.2,667.6,517.1,672.4z"/>
<path fill="#FFFFFF" stroke="#000000" stroke-miterlimit="10" d="M530.1,674.7c-1.2,2.6-0.8,5.3,0.9,6c1.7,0.7,4-0.7,5.1-3.3
	c1.2-2.6,0.8-5.3-0.9-6S531.3,672.1,530.1,674.7z"/>
<path fill="#FFFFFF" stroke="#000000" stroke-miterlimit="10" d="M503.1,692.9c-0.2,1.2,0.3,2.2,1,2.3c0.7,0.1,1.5-0.7,1.7-1.9
	c0.2-1.2-0.3-2.2-1-2.3C504.1,690.9,503.3,691.7,503.1,692.9z"/>
<path fill="#FFFFFF" stroke="#000000" stroke-miterlimit="10" d="M585.4,671.4c-0.3,1.7,0.1,3.2,0.9,3.3c0.8,0.1,1.7-1.1,2-2.8
	c0.3-1.7-0.1-3.2-0.9-3.3C586.5,668.4,585.6,669.7,585.4,671.4z"/>
<path fill="#FFFFFF" stroke="#000000" stroke-miterlimit="10" d="M595.4,660.8c-0.6,2.8,0,5.3,1.3,5.6c1.3,0.3,2.9-1.8,3.5-4.6
	c0.6-2.8,0-5.3-1.3-5.6C597.6,656,596,658,595.4,660.8z"/>
<path fill="#FFFFFF" stroke="#000000" stroke-miterlimit="10" d="M601.5,665.7c0,0.9,0.4,1.7,0.9,1.7c0.4,0,0.8-0.8,0.7-1.7
	c0-0.9-0.4-1.7-0.9-1.7C601.8,664,601.5,664.7,601.5,665.7z"/>
<path fill="#FFFFFF" stroke="#000000" stroke-miterlimit="10" d="M611,666.4c-1.8,4.6-1.6,8.9,0.5,9.8c2.1,0.9,5.3-2.1,7.2-6.7
	c1.8-4.6,1.6-8.9-0.5-9.8C616.1,658.9,612.9,661.9,611,666.4z"/>
<path fill="#FFFFFF" stroke="#000000" stroke-miterlimit="10" d="M558.5,685.5c-0.2,1.1,0.1,2.1,0.6,2.2c0.5,0.1,1.1-0.8,1.3-1.9
	c0.2-1.1-0.1-2.1-0.6-2.2C559.2,683.5,558.6,684.4,558.5,685.5z"/>
<path fill="#FFFFFF" stroke="#000000" stroke-miterlimit="10" d="M537.9,702.7c0,0,3-4,1-5S537.9,702.7,537.9,702.7z"/>
<path fill="#FFFFFF" stroke="#000000" stroke-miterlimit="10" d="M530.9,706.7c0,0,1-3,0-3S530.9,706.7,530.9,706.7z"/>
<path fill="#FFFFFF" stroke="#000000" stroke-miterlimit="10" d="M580.9,702.7c0,0,1-3,0-3S580.9,702.7,580.9,702.7z"/>
<path fill="#FFFFFF" stroke="#000000" stroke-miterlimit="10" d="M539,702.4c0,0,2.6-1.8,1.8-2.4C540,699.4,539,702.4,539,702.4z"/>
<path fill="#FFFFFF" stroke="#000000" stroke-miterlimit="10" d="M584.2,703.5c0,0,5.9-7.8,2-9.8
	C582.2,691.7,584.2,703.5,584.2,703.5z"/>
<path fill="#FFFFFF" stroke="#000000" stroke-miterlimit="10" d="M586.4,702.9c0,0,5-3.6,3.5-4.7C588.2,697,586.4,702.9,586.4,702.9
	z"/>
<path fill="#FFFFFF" stroke="#000000" stroke-miterlimit="10" d="M223,693.6c0,0,6.1,3.1,3.3,5.5c-2.8,2.3-64.1,0.9-64.1,0.9
	l-0.9-6.4c0,0-5.2-24.9-5.5-42.8c-0.2-9.8,1.1-17.5,5.5-17.8c12.5-0.8,22,13.7,22,13.7s1.3-13.5,6.7-13.7c5.3-0.2,7.3,14.3,7.3,14.7
	c-0.1-0.6-2.4-24.4,11-14.7c13.5,9.7,18.8,35.3,18.9,35.7c0-0.2-0.4-6.5,2.7-6.5c3.1,0,2.8,11.1,2.8,11.1s2.7-5.3,3.9-4.6
	c1.2,0.7,1.2,4.6,1.2,4.6s4-31.2,23-31.2c19,0,17.9,33.2,17.9,33.2s4.1-6.8,7.2-5.2c1.6,0.8,2.1,3.4,2.3,5.9c0.2,2.4,0,4.7,0,4.7
	l0,0c-3.7,6.5,6,1.3,10.4,3.7c1.9,1,3.6,2.3,4.4,3.7C305.7,692.8,223,693.6,223,693.6z"/>
<path fill="#FFFFFF" stroke="#000000" stroke-miterlimit="10" d="M226.5,696.6c0,0,4.9,2.2,2.7,3.8c-2.3,1.6-66.9,2.7-66.9,2.7
	l-0.8-4.5c0,0,10.8-19.4,10.5-31.8c0.7-2.5,1.9-4.3,3.9-4.2c6.1,0.4,11.3,16.6,11.3,16.6s-0.1-3.6,1.4-3.6c1.4,0,5.3,7.9,5.3,8
	c-0.1-0.2-4.8-14.1,8.2-13.7c13,0.4,19.6,18.7,19.6,18.7s0.1-2.7,1.6-2.7c1.5,0,2.6,4.8,2.7,4.9c0-0.1-0.2-2,1.3-2
	c1.5,0,3.7,5.3,3.7,5.3s1.7-9.2,6.5-9.5c3.6-0.2,4.9,3.8,5.4,5.8c-0.6-3.8-1.9-15.5,4.9-15.8c6.4-0.3,7.1,7.2,7.1,10.5
	c0.1-2.1,0.7-5.5,3-4.9c3.2,0.8,3.2,8.1,3.2,8.1s2.7-11,5.9-10.1c3.2,0.9,4.8,12.5,4.8,12.5s2.4-8.3,5.9-7.7c1,0.2,1.6,0.6,1.9,1.2
	c0.8,1.3,0,3.2,0,3.2l-0.9,2.8c0,0,1.5-2.5,5.4-1.7c3.9,0.7,6.8,3.1,7.5,4.1C293.5,696.1,226.5,696.6,226.5,696.6z"/>
<path fill="#FFFFFF" stroke="#000000" stroke-miterlimit="10" d="M213.6,640.3c2.1,4.8,2,9.5-0.2,10.5s-5.8-2-8-6.8
	c-2.1-4.8-2-9.5,0.2-10.5C207.9,632.5,211.5,635.5,213.6,640.3z"/>
<path fill="#FFFFFF" stroke="#000000" stroke-miterlimit="10" d="M272.9,652.4c2.2,4.8,1.4,9.9-1.7,11.3c-3.1,1.4-7.4-1.4-9.6-6.2
	c-2.2-4.8-1.4-9.9,1.7-11.3C266.4,644.8,270.7,647.6,272.9,652.4z"/>
<path fill="#FFFFFF" stroke="#000000" stroke-miterlimit="10" d="M259.8,654.7c1.2,2.6,0.8,5.3-0.9,6c-1.7,0.7-4-0.7-5.1-3.3
	c-1.2-2.6-0.8-5.3,0.9-6C256.3,650.6,258.6,652.1,259.8,654.7z"/>
<path fill="#FFFFFF" stroke="#000000" stroke-miterlimit="10" d="M286.8,672.8c0.2,1.2-0.3,2.2-1,2.3c-0.7,0.1-1.5-0.7-1.7-1.9
	s0.3-2.2,1-2.3C285.9,670.8,286.6,671.7,286.8,672.8z"/>
<path fill="#FFFFFF" stroke="#000000" stroke-miterlimit="10" d="M204.6,651.3c0.3,1.7-0.1,3.2-0.9,3.3c-0.8,0.1-1.7-1.1-2-2.8
	c-0.3-1.7,0.1-3.2,0.9-3.3C203.4,648.4,204.3,649.6,204.6,651.3z"/>
<path fill="#FFFFFF" stroke="#000000" stroke-miterlimit="10" d="M194.5,640.8c0.6,2.8,0,5.3-1.3,5.6c-1.3,0.3-2.9-1.8-3.5-4.6
	s0-5.3,1.3-5.6C192.4,635.9,193.9,638,194.5,640.8z"/>
<path fill="#FFFFFF" stroke="#000000" stroke-miterlimit="10" d="M188.4,645.6c0,0.9-0.4,1.7-0.9,1.7c-0.4,0-0.8-0.8-0.7-1.7
	s0.4-1.7,0.9-1.7C188.1,643.9,188.4,644.7,188.4,645.6z"/>
<path fill="#FFFFFF" stroke="#000000" stroke-miterlimit="10" d="M178.9,646.4c1.8,4.6,1.6,8.9-0.5,9.8c-2.1,0.9-5.3-2.1-7.2-6.7
	c-1.8-4.6-1.6-8.9,0.5-9.8C173.8,638.8,177.1,641.8,178.9,646.4z"/>
<path fill="#FFFFFF" stroke="#000000" stroke-miterlimit="10" d="M231.5,665.5c0.2,1.1-0.1,2.1-0.6,2.2c-0.5,0.1-1.1-0.8-1.3-1.9
	c-0.2-1.1,0.1-2.1,0.6-2.2C230.7,663.5,231.3,664.3,231.5,665.5z"/>
<path fill="#FFFFFF" stroke="#000000" stroke-miterlimit="10" d="M252,682.7c0,0-3-4-1-5S252,682.7,252,682.7z"/>
<path fill="#FFFFFF" stroke="#000000" stroke-miterlimit="10" d="M259,686.7c0,0-1-3,0-3S259,686.7,259,686.7z"/>
<path fill="#FFFFFF" stroke="#000000" stroke-miterlimit="10" d="M209,682.7c0,0-1-3,0-3S209,682.7,209,682.7z"/>
<path fill="#FFFFFF" stroke="#000000" stroke-miterlimit="10" d="M250.9,682.4c0,0-2.6-1.8-1.8-2.4
	C249.9,679.4,250.9,682.4,250.9,682.4z"/>
<path fill="#FFFFFF" stroke="#000000" stroke-miterlimit="10" d="M205.7,683.4c0,0-5.9-7.8-2-9.8
	C207.7,671.7,205.7,683.4,205.7,683.4z"/>
<path fill="#FFFFFF" stroke="#000000" stroke-miterlimit="10" d="M203.6,682.9c0,0-5-3.6-3.5-4.7C201.7,677,203.6,682.9,203.6,682.9
	z"/>
<path fill="#FFFFFF" stroke="#000000" stroke-miterlimit="10" d="M317,697.5c0,0,6.1,3.1,3.3,5.5c-2.8,2.3-64.1,0.9-64.1,0.9
	l-0.9-6.4c0,0-5.2-24.9-5.5-42.8c-0.2-9.8,1.1-17.5,5.5-17.8c12.5-0.8,22,13.7,22,13.7s1.3-13.5,6.7-13.7c5.3-0.2,7.3,14.3,7.3,14.7
	c-0.1-0.6-2.4-24.4,11-14.7c13.5,9.7,18.8,35.3,18.9,35.7c0-0.2-0.4-6.5,2.7-6.5c3.1,0,2.8,11.1,2.8,11.1s2.7-5.3,3.9-4.6
	c1.2,0.7,1.2,4.6,1.2,4.6s4-31.2,23-31.2c19,0,17.9,33.2,17.9,33.2s4.1-6.8,7.2-5.2c1.6,0.8,2.1,3.4,2.3,5.9c0.2,2.4,0,4.7,0,4.7
	l0,0c-3.7,6.5,6,1.3,10.4,3.7c1.9,1,3.6,2.3,4.4,3.7C399.7,696.7,317,697.5,317,697.5z"/>
<path fill="#FFFFFF" stroke="#000000" stroke-miterlimit="10" d="M320.5,700.6c0,0,4.9,2.2,2.7,3.8c-2.3,1.6-66.9,2.7-66.9,2.7
	l-0.8-4.5c0,0,10.8-19.4,10.5-31.8c0.7-2.5,1.9-4.3,3.9-4.2c6.1,0.4,11.3,16.6,11.3,16.6s-0.1-3.6,1.4-3.6c1.4,0,5.3,7.9,5.3,8
	c-0.1-0.2-4.8-14.1,8.2-13.7c13,0.4,19.6,18.7,19.6,18.7s0.1-2.7,1.6-2.7c1.5,0,2.6,4.8,2.7,4.9c0-0.1-0.2-2,1.3-2
	c1.5,0,3.7,5.3,3.7,5.3s1.7-9.2,6.5-9.5c3.6-0.2,4.9,3.8,5.4,5.8c-0.6-3.8-1.9-15.5,4.9-15.8c6.4-0.3,7.1,7.2,7.1,10.5
	c0.1-2.1,0.7-5.5,3-4.9c3.2,0.8,3.2,8.1,3.2,8.1s2.7-11,5.9-10.1c3.2,0.9,4.8,12.5,4.8,12.5s2.4-8.3,5.9-7.7c1,0.2,1.6,0.6,1.9,1.2
	c0.8,1.3,0,3.2,0,3.2l-0.9,2.8c0,0,1.5-2.5,5.4-1.7c3.9,0.7,6.8,3.1,7.5,4.1C387.5,700,320.5,700.6,320.5,700.6z"/>
<path fill="#FFFFFF" stroke="#000000" stroke-miterlimit="10" d="M307.6,644.3c2.1,4.8,2,9.5-0.2,10.5c-2.3,1-5.8-2-8-6.8
	c-2.1-4.8-2-9.5,0.2-10.5C301.8,636.4,305.4,639.5,307.6,644.3z"/>
<path fill="#FFFFFF" stroke="#000000" stroke-miterlimit="10" d="M366.8,656.3c2.2,4.8,1.4,9.9-1.7,11.3c-3.1,1.4-7.4-1.4-9.6-6.2
	c-2.2-4.8-1.4-9.9,1.7-11.3C360.3,648.7,364.6,651.5,366.8,656.3z"/>
<path fill="#FFFFFF" stroke="#000000" stroke-miterlimit="10" d="M353.7,658.6c1.2,2.6,0.8,5.3-0.9,6c-1.7,0.7-4-0.7-5.1-3.3
	c-1.2-2.6-0.8-5.3,0.9-6C350.3,654.5,352.6,656,353.7,658.6z"/>
<path fill="#FFFFFF" stroke="#000000" stroke-miterlimit="10" d="M380.7,676.8c0.2,1.2-0.3,2.2-1,2.3c-0.7,0.1-1.5-0.7-1.7-1.9
	c-0.2-1.2,0.3-2.2,1-2.3C379.8,674.8,380.6,675.6,380.7,676.8z"/>
<path fill="#FFFFFF" stroke="#000000" stroke-miterlimit="10" d="M298.5,655.2c0.3,1.7-0.1,3.2-0.9,3.3c-0.8,0.1-1.7-1.1-2-2.8
	c-0.3-1.7,0.1-3.2,0.9-3.3C297.3,652.3,298.2,653.6,298.5,655.2z"/>
<path fill="#FFFFFF" stroke="#000000" stroke-miterlimit="10" d="M288.5,644.7c0.6,2.8,0,5.3-1.3,5.6c-1.3,0.3-2.9-1.8-3.5-4.6
	c-0.6-2.8,0-5.3,1.3-5.6C286.3,639.9,287.9,641.9,288.5,644.7z"/>
<path fill="#FFFFFF" stroke="#000000" stroke-miterlimit="10" d="M282.4,649.5c0,0.9-0.4,1.7-0.9,1.7c-0.4,0-0.8-0.8-0.7-1.7
	c0-0.9,0.4-1.7,0.9-1.7S282.4,648.6,282.4,649.5z"/>
<path fill="#FFFFFF" stroke="#000000" stroke-miterlimit="10" d="M272.9,650.3c1.8,4.6,1.6,8.9-0.5,9.8c-2.1,0.9-5.3-2.1-7.2-6.7
	c-1.8-4.6-1.6-8.9,0.5-9.8C267.8,642.8,271,645.8,272.9,650.3z"/>
<path fill="#FFFFFF" stroke="#000000" stroke-miterlimit="10" d="M325.4,669.4c0.2,1.1-0.1,2.1-0.6,2.2c-0.5,0.1-1.1-0.8-1.3-1.9
	c-0.2-1.1,0.1-2.1,0.6-2.2C324.6,667.4,325.2,668.3,325.4,669.4z"/>
<path fill="#FFFFFF" stroke="#000000" stroke-miterlimit="10" d="M346,686.6c0,0-3-4-1-5S346,686.6,346,686.6z"/>
<path fill="#FFFFFF" stroke="#000000" stroke-miterlimit="10" d="M353,690.6c0,0-1-3,0-3S353,690.6,353,690.6z"/>
<path fill="#FFFFFF" stroke="#000000" stroke-miterlimit="10" d="M303,686.6c0,0-1-3,0-3S303,686.6,303,686.6z"/>
<path fill="#FFFFFF" stroke="#000000" stroke-miterlimit="10" d="M344.8,686.3c0,0-2.6-1.8-1.8-2.4
	C343.9,683.3,344.8,686.3,344.8,686.3z"/>
<path fill="#FFFFFF" stroke="#000000" stroke-miterlimit="10" d="M299.7,687.4c0,0-5.9-7.8-2-9.8S299.7,687.4,299.7,687.4z"/>
<path fill="#FFFFFF" stroke="#000000" stroke-miterlimit="10" d="M297.5,686.8c0,0-5-3.6-3.5-4.7
	C295.6,680.9,297.5,686.8,297.5,686.8z"/>
<path fill="#FFFFFF" stroke="#000000" stroke-miterlimit="10" d="M951.6,613.9c27,1.4,39.7-101.6-20.2-125.1
	c-59.8-23.4-43.6,78.4-33.9,74.1c6.9-3.1,7.2-10,7.2-10s2.6,46.6,24.5,46.6c8.1,0,10-12.3,10-12.3S940.7,613.3,951.6,613.9z"/>
<path fill="#FFFFFF" stroke="#000000" stroke-miterlimit="10" d="M906.2,586.1c1.1,1.5,2.2,3.1,3.3,4.9c0.9,1.4,1.7,2.9,2.6,4.5
	c8.9,16.6,12.9,21.7,12,33.4c-0.1,1.3,1.3,30.7,2.6,42.9c1.1,10.5,2.7,19.6,4.6,27.7c0,0,0,0,0,0c0.1,0.7,0.3,1.3,0.5,2
	c0,0,0,0.1,0,0.1c0.2,0.7,0.3,1.4,0.5,2c0,0,0,0,0,0c0.6,2.5,1.3,4.9,1.9,7.3c0.6,2,1.1,4,1.7,6c4.2,14.1,8.2,25.4,9.3,37.6
	c1.9,22.7-5.2,64-5.2,64l5.9,0.5l5.5,0.4c0,0,8.5-39.4,1.7-68.7c-6.8-29.3-29.6-72.9-23.8-119.8c5.8-46.9,23.8-62.7,23.8-62.7
	l-0.2-5.5c0,0-6.9,10.3-12.8,21.5c-6,11.1-11.2,32.4-13.3,33.7c-1.1,0.7-4.5-8.6-11-19.7c0,0,0,0,0,0c0,0,0,0,0,0
	c-2-3.4-4.2-6.9-6.7-10.4l0,0c-0.8-1.2-1.7-2.3-2.6-3.5C906.3,584.9,906.3,585.5,906.2,586.1z"/>
<path fill="#FFFFFF" stroke="#000000" stroke-miterlimit="10" d="M884,645.8l2.3,13.7c0,0,18.2,16.3,22.6,24.2
	c4.4,7.9,6.2,24.3,7.1,25.1c0.8,0.8,3.6,0.1,10,1.8c0.5,0.1,0.9,0.3,1.4,0.4c3.6,1.1,6.4,3.4,8.5,5.9c3.5,4.2,4.9,9,5.1,9.6
	c0-0.2-0.1-0.7-0.3-1.4c-0.8-3.9-3-14-4.5-13.9c-0.3,0-0.7,0-1.4-0.2c-0.2,0-0.4-0.1-0.6-0.1c-2.1-0.5-5.5-1.5-8.5-2.7
	c-2.9-1.1-5.6-2.3-6.8-3.3c-3-2.4-4.6-13.8-7.8-20c-3.1-6.2-9.7-14.5-9.7-14.5l1.7-13.5l-0.9-2.5c0,0,0.3,19.2-6.4,12.4
	C887.2,658.1,884.7,649.2,884,645.8z"/>
<path fill="#FFFFFF" stroke="#000000" stroke-miterlimit="10" d="M883.7,644.4c0,0,0.1,0.5,0.2,1.4L883.7,644.4z"/>
<path fill="#FFFFFF" stroke="#000000" stroke-miterlimit="10" d="M931.3,699.4c0.1,0.7,0.3,1.3,0.5,2
	C931.6,700.7,931.5,700,931.3,699.4z"/>
<path fill="#FFFFFF" stroke="#000000" stroke-miterlimit="10" d="M925.7,708.1l0.3,2.4c0.5,0.1,0.9,0.3,1.4,0.4
	c3.6,1.1,6.4,3.4,8.5,5.9c4.2,14.1,8.2,25.4,9.3,37.6c1.9,22.7-5.2,64-5.2,64l4.1,0.3c0.6-10.8,3.1-53.9,5.7-54
	c2.6-0.1-3.9,43.2-5.5,54l1.5,0.1c2.4-13,8.3-46.5,6.8-59.9c-1.1-9.6-6.7-22.1-11.9-34c-2.2-4.9-4.3-9.7-5.9-14.1
	c-1-2.6-1.8-5.1-2.5-7.4c0.6,2.5,1.3,4.9,1.9,7.3C932.1,710.4,928.7,709.3,925.7,708.1z"/>
<path fill="#FFFFFF" stroke="#000000" stroke-miterlimit="10" d="M915.7,598c-0.1-0.1-0.9-1.1-2.1-2.4
	C914.7,597.1,915.6,597.9,915.7,598z"/>
<path fill="#FFFFFF" stroke="#000000" stroke-miterlimit="10" d="M906.4,587.5c0.5,0.5,1.8,1.9,3.2,3.5c1.3,1.5,2.9,3.3,4,4.6
	c-1.4-1.8-3.3-4.6-4.6-8l0,0c-2.4-6.1,5.8-48.2,5.9-48.8c-1.1,1.3-7.5,34.5-8.5,45.3c-0.1,0.8-0.1,1.4-0.1,1.9
	C906.2,586.9,906.2,587.4,906.4,587.5z"/>
<path fill="#FFFFFF" stroke="#000000" stroke-miterlimit="10" d="M878.5,520.9c7.8,22.7,22.7,2.7,22.7,2.7s-1,15.5,3.6,18
	c4.3,2.3,5.1-3.2,5.1-3.9c-0.1,1.6-2.3,32.2,16.3,39.4c19.1,7.3,29.3-13.7,29.3-13.7s1,19.2,11.1,19.6c27.1,1.2,24.5-48.6,18.1-63.1
	c-1.5-3.3-3-5.3-4.4-6.4v0c-4.9-3.7-9.2,2.7-9.2,2.7s-0.8-6.7-3.5-15.5c-4.8-15.7-15.5-37.9-38.1-39.4
	C894.3,459,870.6,498.2,878.5,520.9z"/>
<path fill="#FFFFFF" stroke="#000000" stroke-miterlimit="10" d="M992.6,560.8c0,0,7,7.4,5.8,22.5c-1.2,15.2-13.5,16.9-16.3,15.9
	c-2.7-1-0.4-30.5-0.4-30.5S983.7,553,992.6,560.8z"/>
<path fill="#FFFFFF" stroke="#000000" stroke-miterlimit="10" d="M884.9,550.4c-4.4-0.6-3.6-12.3-0.4-13.4
	C887.7,536,886.1,550.6,884.9,550.4z"/>
<path fill="#FFFFFF" stroke="#000000" stroke-miterlimit="10" d="M919.3,504.5c0.7-2.5,0.4-8.5,0.3-11.1c0-0.2-0.2-0.2-0.3,0
	c-0.5,2.7-1.9,9.4-4.4,10.3c-2.6,0.9-4.1-6.8-4.6-9.9c0-0.1-0.2-0.1-0.2,0c0.1,4.3,0.6,18.2,4.8,19.5
	C916.7,513.9,918.4,507.8,919.3,504.5z"/>
<path fill="#FFFFFF" stroke="#000000" stroke-miterlimit="10" d="M927.6,522.9c-3.7,0.5-5.7-6.3-6.8-13.5c0-0.2-0.3-0.2-0.3,0
	c0.1,6.4,0.9,23.5,5.6,24.7c7.7,2,10.2-16.9,10.8-23.3c0-0.1-0.2-0.1-0.2,0C935.8,514.5,933.5,522.1,927.6,522.9z"/>
<polygon fill="#FFFFFF" stroke="#000000" stroke-miterlimit="10" points="995.3,812.7 995.3,821.3 901.6,821.3 897.3,810.6 
	923.9,811.2 "/>
<polygon fill="#FFFFFF" stroke="#000000" stroke-miterlimit="10" points="925.1,821.3 901.6,821.3 897.3,810.6 923.9,811.2 "/>
<path fill="#FFFFFF" stroke="#000000" stroke-miterlimit="10" d="M566.3,341.7c0,0-9.4,10.2,0,40c9.3,29.7,28.8,40.4,34.6,38.4
	c5.8-2.1,5.7-21.7,5.7-21.7s3.2,20.3,9.8,20.3c6.6,0,6-10.9,6-10.9s2.8,29.4,12.9,31.4c10.2,2,13.4-20.7,13.4-20.7
	s2.2,43.5,11.1,44.6c9,1.2,9.4-6.6,9.4-6.6s3,26.5,19.5,28.4c16.4,1.9,86.8-59.4,55.7-147.1C720.1,269.6,566.3,341.7,566.3,341.7z"
	/>
<path fill="#FFFFFF" stroke="#000000" stroke-miterlimit="10" d="M618.8,680.1l6.3,29.1l21.1,1.8c0,0-4.3-12.3-3.7-18.9
	c0.5-5.5,7.6-17.5,10.8-31.6c0.6-2.8,1.1-5.6,1.4-8.5c0.2-2.2-0.5-6.1-1.8-11.2c0-0.2-0.1-0.3-0.1-0.5c-1.6-6.4-4.2-14.7-7.3-24.2
	c-11.9-36.8-31.2-91.4-32.4-123c-0.2-5.6,0.1-10.5,1.2-14.4c0.7-2.7,1.7-5.4,2.8-7.9l0,0c8.1-18.2,41.6-34.3,67.4-46
	c9.6-4.3,20.4-9.5,21.5-16.2c0-0.1,0-0.1,0-0.2c2.8-18.5-6.3-34-6.3-34l-6.4-7.3L689,362c0.2,0.3,1.5,2.1,3.3,5
	c5,8.4,13.6,25.6,9.6,40.8c0,0.1,0,0.1-0.1,0.2c-1.8,6.5-10.9,9.8-20.2,14c-19.9,8.8-41.1,17.8-47.8,20.8c-3.6,1.6-6.5,2.6-8,2.6
	c-7,0,0-53.2,0-53.2l-11.4-41.6c0.2,0.9,5.9,28.8,5.2,47.3c-0.6,18.8,1.6,46.7-3.1,58.8c-4.7,12.1-17.9,29.1-18.1,31.5
	c-0.2,2.4,41.9,136.5,35.2,159.7C626.9,671,618.8,680.1,618.8,680.1z"/>
<path fill="#FFFFFF" stroke="#000000" stroke-miterlimit="10" d="M618.8,680.1l7.5,34.4l22.4,0.5c0,0-8.9-16.2-8.3-22.8
	c0.5-5.5,7.6-17.5,10.8-31.6c-2,3.2-7.3,10.3-12.3,8c-6.2-2.8,0.5-49.5,0.5-49.5s-36.5-104.6-34-126.5c2.6-21.9,18.6-43.8,28.5-49.8
	c-3.6,1.6-6.5,2.6-8,2.6c-7,0,0-53.2,0-53.2l-11.4-41.6c0.2,0.9,5.9,28.8,5.2,47.3c-0.6,18.8,1.6,46.7-3.1,58.8
	c-4.7,12.1-17.9,29.1-18.1,31.5c-0.2,2.4,41.9,136.5,35.2,159.7C626.9,671,618.8,680.1,618.8,680.1z"/>
<path fill="#FFFFFF" stroke="#000000" stroke-miterlimit="10" d="M645.3,658.9c3.7-0.1,6.4-11.6,7.6-18.1c0-0.2-0.1-0.3-0.1-0.5
	c-1.3,5.4-3,12.4-5.8,11.6c-4-1.1-1.4-35.8-1.4-35.8S640.1,659.1,645.3,658.9z"/>
<path fill="#FFFFFF" stroke="#000000" stroke-miterlimit="10" d="M628,561.6c0,0-2.4,20.8,0.7,31.9c3.1,11.1,3.1,11.1,3.1,11.1
	s-5.1-8.1-5.9-18.3C625.1,576,628,561.6,628,561.6z"/>
<path fill="#FFFFFF" stroke="#000000" stroke-miterlimit="10" d="M615.6,513.5c0,0-4.5,10.2-2.5,22.1c2,11.9,1.7,7.9,1.7,7.9
	s-4-10.2-4.6-19.2c-0.6-9.1,4.2-17.7,4.2-17.7L615.6,513.5z"/>
<path fill="#FFFFFF" stroke="#000000" stroke-miterlimit="10" d="M604.9,504.8c0.4-8.9,8.2-11.8,8.2-11.8
	c-0.2-5.6,0.1-10.5,1.2-14.4c0.7-2.7,1.7-5.4,2.8-7.9c0,0-4,3.8-4.9,2.6c-0.9-1.2,2.7-8.3,2.9-8.7l-10.6,18.3L604.9,504.8z"/>
<path fill="#FFFFFF" stroke="#000000" stroke-miterlimit="10" d="M734.4,460.1c0,0,2.8,21.2-4.4,21.2
	C722.8,481.3,730.1,455.8,734.4,460.1z"/>
<path fill="#FFFFFF" stroke="#000000" stroke-miterlimit="10" d="M665.6,469.7c0,0,1.2,17.1-4.1,17.7
	C656.3,488,659.1,465.7,665.6,469.7z"/>
<path fill="#FFFFFF" stroke="#000000" stroke-miterlimit="10" d="M674,427.6c7.5-2.1,19.4,9.3,28.2,16c3.3,2.5,6.2,4.3,8.2,4.5
	c6.6,0.6,33.2,2.5,39,2.9c0.7,0.1,1.1,0.1,1.1,0.1l-1.1-1.6l-0.8-1.1c0,0-30.4-2.5-36.8-3.5c-2.3-0.4-6.6-3.3-11.3-6.8
	c-8.2-6.3-17.3-14.6-17.3-14.6S663.7,430.4,674,427.6z"/>
<path fill="#FFFFFF" stroke="#000000" stroke-miterlimit="10" d="M702,407.9l4,0.4c2.8-18.5-6.3-34-6.3-34l-6.4-7.3l-1,0.1
	C697.4,375.4,706,392.7,702,407.9z"/>
<path fill="#FFFFFF" stroke="#000000" stroke-miterlimit="10" d="M727.4,380.9c28.8-1,25.1-125.4-78.7-128.1
	c-103.8-2.7-98.3,113.8-94.6,113.9s5.9-6.3,5.9-6.3s3,16.3,12.5,14.6c9.6-1.7,14.8-29.7,14.8-29.7s9.1,21.2,17.7,19.7
	c8.6-1.5,6.4-16.4,6.4-16.4s5,21.8,11.8,19.2c6.8-2.6,5.9-9.9,5.9-9.9s0.5,34.1,23.2,31.7c22.8-2.4,17.9-39.9,17.9-39.9
	s-7.2,36.3,13.4,36.7c20.7,0.3,26.8-23.3,26.8-23.3S712.5,381.5,727.4,380.9z"/>
<path fill="#FFFFFF" stroke="#000000" stroke-miterlimit="10" d="M710.7,316.8c0,0,3.8,53.1-13.3,65.5c-17.1,12.3-24,7.4-24,7.4
	s25.9,14.8,36.1-15.8C719.8,343.2,710.7,316.8,710.7,316.8z"/>
<path fill="#FFFFFF" stroke="#000000" stroke-miterlimit="10" d="M647.3,389.4c-18.7-3.6-18.9-47.6-18.9-47.6
	S616.1,384.2,647.3,389.4z"/>
<path fill="#FFFFFF" stroke="#000000" stroke-miterlimit="10" d="M573.7,374.7c-11.5,0.3-11.6-35.1-11.6-35.1s-4.5,18,1.5,32
	S573.7,374.7,573.7,374.7z"/>
<path fill="#FFFFFF" stroke="#000000" stroke-miterlimit="10" d="M700.5,438.1l1.7,5.5c3.3,2.5,6.2,4.3,8.2,4.5
	c6.6,0.6,33.2,2.5,39,2.9l0-1.5l-0.8-1.1c0,0-30.4-2.5-36.8-3.5C709.5,444.5,705.1,441.6,700.5,438.1z"/>
<path fill="#FFFFFF" stroke="#000000" stroke-miterlimit="10" d="M790.8,487.1c9.2,1.9,16.4-4.3,16.4-4.3s14.2,13.8,30.2-5
	c3.6-4.2,5.6-8.1,8.9-15.3c-1.6,3.2-3.7,5.9-6.3,7.9c-21.5,16.3-30.2,5-30.2,5s-7.1,6.2-16.4,4.3c-3.7-0.7-3.6-7.5-2.8-11.2
	C785,477.7,784.7,485.9,790.8,487.1z"/>
<path fill="#FFFFFF" stroke="#000000" stroke-miterlimit="10" d="M776,477.2c5.7,1.2,11.7-4.5,14.7-7.9c1.5-4.7,4.2-9.3,4.4-9.7
	c-0.4,0.6-8.8,11.9-16.5,10.2c-2.8-0.6-3.5-2.8-3.1-5.4C773.2,468.9,770.5,476,776,477.2z"/>
<path fill="#FFFFFF" stroke="#000000" stroke-miterlimit="10" d="M714.4,425.8c3.7,4.3,8.8-4.1,8.8-4.1s3.2,17.3,8,19.1
	c4.8,1.7,8.3-9.9,8.4-10.3c-0.2,0.9-10.4,50.6,7.9,54.3c13.5,2.7,24.3-15,27.9-20.5c0.3-2.6,1.7-5.5,2.8-7.7
	c-3.5,5.4-12.1,15.7-26,12.9c-18.3-3.7-10.2-45.6-10-46.5c-0.1,0.4-3.7,12.1-8.4,10.3c-4.9-1.8-8-19.1-8-19.1s-5.1,8.4-8.8,4.1
	c-2.4-2.7-2.8-9-1.5-15C711.6,410.5,711,421.8,714.4,425.8z"/>
<path fill="#FFFFFF" stroke="#000000" stroke-miterlimit="10" d="M713.9,417.5c3.7,4.3,11.8-3.2,11.8-3.2s-0.9,22.4,3.9,24.2
	c4.8,1.7,12.4-15,12.5-15.4c-0.2,0.9-8.2,42.8,10,46.5c13.8,2.8,22.5-7.5,26-12.9c-1.1,2.2-2.4,5.1-2.8,7.7c0.1-0.1,0.1-0.2,0.2-0.3
	c-0.1,0.1-0.1,0.3-0.2,0.4c-0.3,2.6,0.3,4.7,3.1,5.4c7.8,1.7,16.1-9.6,16.5-10.2c-0.2,0.4-2.9,5-4.4,9.7c1.1-1.2,1.7-2.1,1.9-2.3
	c-0.1,0.2-1.3,2.2-2.6,4.9c-0.8,3.7-0.3,7.1,3.4,7.8c9.2,1.9,16.4-4.3,16.4-4.3s12.5,18,30.9-3.5c2.2-2.5,4-6.2,5.6-9.4
	c5.9-25.4-9.9-68.6-47.2-80.8c-46.9-15.3-77.9,13.2-82.6,20c-0.4,0.5-0.7,1.1-1,1.7C711.1,410.3,711.6,414.8,713.9,417.5z"/>
<path fill="#FFFFFF" stroke="#000000" stroke-miterlimit="10" d="M800,479.8c12.4-4.1,16.4-33,16.4-33s0.1,31.2-12.8,35.8
	C790.8,487.2,800,479.8,800,479.8z"/>
<path fill="#FFFFFF" stroke="#000000" stroke-miterlimit="10" d="M764.5,471.9c0,0,5.4,4.8,14.4-13c4.9-9.7,10.3-29.3,10.3-29.3
	s-10.5,36.2-25.6,39.9C748.5,473.3,764.5,471.9,764.5,471.9z"/>
<polygon fill="#FFFFFF" stroke="#000000" stroke-miterlimit="10" points="690.8,715.9 690.8,727.3 566.9,727.3 561.2,713 
	596.3,713.8 "/>
<path fill="#FFFFFF" stroke="#000000" stroke-miterlimit="10" d="M171,242.7c-1.2,0-2.4-0.1-3.5-0.1c-14.8-0.4-29.6-1.1-44.4-1.5
	c-5.4-0.1-10.8-0.3-16.2-0.3c1,1.1,2.1,2.1,3.2,3.1H88l18.8,26.7h28.6c-2.9,0.5-5.4,1.6-6.9,3c7.7,0.2,15.4,0.4,23.1,0.7
	c-1.4-1.7-4.2-3-7.5-3.6H173l18.6-26.7h-21.9C170.2,243.5,170.6,243.1,171,242.7z"/>
<path fill="#FFFFFF" stroke="#000000" stroke-miterlimit="10" d="M147,243.9c8,0.3,14.8-0.2,22.7,0c9.1-8.5,15.1-21.4,15.1-33.7
	c0-24.8-20.1-45-45-45c-24.8,0-45,20.1-45,45c0,11.3,4.2,21.6,11.1,29.5C120.1,239.9,133,243.4,147,243.9z"/>
<path fill="#FFFFFF" stroke="#000000" stroke-miterlimit="10" d="M133.3,274.7c-1.9-0.1-3.7-0.1-5.6-0.1c-0.5,0.7-0.8,1.5-0.8,2.3
	c0,2.9,3.7,5.4,8.8,6.2v449.7l5.6,51.8l2.4-501.5c5.2-0.8,9-3.3,9-6.2c0-0.5-0.1-1.1-0.4-1.5C146,275.1,139.6,274.9,133.3,274.7z"/>
<polygon fill="#FFFFFF" stroke="#000000" stroke-miterlimit="10" points="143.4,826.6 129.3,826.6 129.3,265.7 137.1,265.7 
	137.1,270.5 137.1,270.6 137.2,283 142.4,732.7 143.4,823.4 "/>
<polygon fill="#FFFFFF" stroke="#000000" stroke-miterlimit="10" points="80.1,836.2 95,823.4 186.7,823.4 196.9,830.9 "/>
<path fill="#FFFFFF" stroke="#000000" stroke-miterlimit="10" d="M56.6,832.5c0,0-9.6,17.1-8.5,17.1c1.1,0,183.4-2.1,183.4-2.1
	l-6.9-17.6L56.6,832.5z"/>
<path fill="#FFFFFF" stroke="#000000" stroke-miterlimit="10" d="M178.4,210.2c0,13.4-5.9,25.4-15.1,33.7
	c-7.9,7.1-18.4,11.3-29.8,11.3c-11.5,0-21.9-4.3-29.8-11.3c-9.3-8.2-15.1-20.3-15.1-33.7c0-24.8,20.1-45,45-45
	C158.3,165.3,178.4,185.4,178.4,210.2z"/>
<polygon fill="#FFFFFF" stroke="#000000" stroke-miterlimit="10" points="185.1,243.9 166.6,270.6 100.4,270.6 81.5,243.9 "/>
<path fill="#FFFFFF" stroke="#000000" stroke-miterlimit="10" d="M146.2,276.8c0,2.9-3.8,5.4-9,6.2c-1.3,0.2-2.6,0.3-3.9,0.3
	c-1.4,0-2.8-0.1-4-0.3c-5.1-0.8-8.8-3.3-8.8-6.2c0-2.8,3.6-5.3,8.5-6.2c0.1,0,0.2,0,0.3-0.1c1.3-0.2,2.6-0.3,4-0.3
	c1.3,0,2.6,0.1,3.8,0.3c0.2,0,0.4,0.1,0.5,0.1C142.6,271.5,146.2,273.9,146.2,276.8z"/>
<path fill="#FFFFFF" stroke="#000000" stroke-miterlimit="10" d="M143.5,276.3c0,1.8-1.9,3.4-4.7,4.3l-0.5-1.1
	c1.1-1.7,1.4-2.1,1.4-3.4c0-1.3-0.7-2.5-1.6-3.2c0.3-0.3,0.6-0.6,0.9-0.9C141.7,273,143.5,274.5,143.5,276.3z"/>
<polygon fill="#FFFFFF" stroke="#000000" stroke-miterlimit="10" points="154.2,264.7 160.7,246.7 172.9,246.7 159.4,264.7 "/>
<polygon fill="#FFFFFF" stroke="#000000" stroke-miterlimit="10" points="156.9,825.6 157.9,832 191.1,830.4 185.7,825.6 "/>
<polygon fill="#FFFFFF" stroke="#000000" stroke-miterlimit="10" points="185.7,835.2 189.9,846.4 226.7,846.4 220.3,833 "/>
<path fill="#FFFFFF" stroke="#000000" stroke-miterlimit="10" d="M856.7,223.3c0,0-2.1,2,2.3-2.5c4.5-4.4,13.5-20.4,13.5-33.4
	c0-26.5-21.5-48-48.1-48c-26.5,0-48,21.5-48,48c0,13.3,6.8,27.6,15.6,36.3C795.4,223.7,856.7,223.3,856.7,223.3z"/>
<path fill="#FFFFFF" stroke="#000000" stroke-miterlimit="10" d="M856.3,223.4c0.6-0.5-64.1-0.3-63.8,0H769l20.1,28.5
	c6.7,0,69.3,0,72.4,0l18.2-28.5H856.3z"/>
<polygon fill="#FFFFFF" stroke="#000000" stroke-miterlimit="10" points="834.2,846.2 819.1,846.2 819.1,246.7 827.4,246.7 
	827.5,251.9 827.5,252 827.6,265.2 833.1,745.8 834.2,842.8 "/>
<polygon fill="#FFFFFF" stroke="#000000" stroke-miterlimit="10" points="760.5,856.4 776.5,842.8 874.5,842.8 885.3,850.7 "/>
<path fill="#FFFFFF" stroke="#000000" stroke-miterlimit="10" d="M735.5,852.5c0,0-10.3,18.2-9.1,18.2c1.1,0,196-2.3,196-2.3
	l-7.4-18.8L735.5,852.5z"/>
<path fill="#FFFFFF" stroke="#000000" stroke-miterlimit="10" d="M865.6,187.5c0,14.3-6.3,27.2-16.2,36
	c-8.5,7.5-19.6,12.1-31.9,12.1c-12.2,0-23.4-4.6-31.9-12.1c-9.9-8.8-16.2-21.7-16.2-36c0-26.5,21.5-48,48-48
	C844.1,139.4,865.6,160.9,865.6,187.5z"/>
<polygon fill="#FFFFFF" stroke="#000000" stroke-miterlimit="10" points="872.8,223.4 852.9,252 782.2,252 762.1,223.4 "/>
<path fill="#FFFFFF" stroke="#000000" stroke-miterlimit="10" d="M837.2,258.6c0,3.1-4,5.7-9.6,6.6c-1.3,0.2-2.8,0.3-4.2,0.3
	c-1.5,0-3-0.1-4.3-0.3c-5.5-0.9-9.4-3.5-9.4-6.6c0-3,3.8-5.6,9.1-6.6c0.1,0,0.2,0,0.3-0.1c1.3-0.2,2.8-0.3,4.3-0.3
	c1.4,0,2.8,0.1,4.1,0.3c0.2,0,0.4,0.1,0.6,0.1C833.3,252.9,837.2,255.5,837.2,258.6z"/>
<path fill="#FFFFFF" stroke="#000000" stroke-miterlimit="10" d="M834.3,258c0,1.9-2,3.7-5,4.6l-0.5-1.2c1.2-1.8,1.5-2.3,1.5-3.6
	c0-1.4-0.7-2.7-1.7-3.4c0.3-0.3,0.6-0.7,1-1C832.4,254.5,834.3,256.2,834.3,258z"/>
<polygon fill="#FFFFFF" stroke="#000000" stroke-miterlimit="10" points="839.8,245.6 846.6,226.4 859.7,226.4 845.3,245.6 "/>
<polygon fill="#FFFFFF" stroke="#000000" stroke-miterlimit="10" points="842.6,845 843.7,851.9 879.2,850.2 873.3,845 "/>
<polygon fill="#FFFFFF" stroke="#000000" stroke-miterlimit="10" points="873.3,855.3 877.9,867.3 917.2,867.3 910.4,853 "/>
<polygon fill="#FFFFFF" stroke="#000000" stroke-miterlimit="10" points="632.5,965.9 396.2,965.9 444.3,953.8 444.3,945.4 
	611.9,946.1 612.8,952.7 617.2,956 623.8,957.1 618.3,957.1 627,963.7 635.8,964.8 635.8,965.9 "/>
<polygon fill="#FFFFFF" stroke="#000000" stroke-miterlimit="10" points="641.9,894.6 639.2,894.6 626.1,849.1 624.9,845.6 
	626.1,835.7 "/>
<path fill="#FFFFFF" stroke="#000000" stroke-miterlimit="10" d="M583.6,767.4l0.1,4.7c-1.4-3.7-2.6-6.3-2.6-6.3v-7.5l-238.3-29.8
	l49,1.6h0.1l191.2,6.3l0.1,4.7v0.5l0.2,15.3l0,0.2v1.2l0.1,7.5L583.6,767.4z"/>
<polygon fill="#FFFFFF" stroke="#000000" stroke-miterlimit="10" points="625.6,833.7 626.4,833.8 626.1,835.7 "/>
<path fill="#FFFFFF" stroke="#000000" stroke-miterlimit="10" d="M656,823.6l-3.1,11.1l-26.6-1l1.3-10.2l-8,6.1l-0.6-1.9l-0.4-1.1
	l-0.2-0.7l-1.6-4.7l-32.4-2.2v-0.3l0-0.6l-0.1-3.5l-3.3,2.8v-20.3l3-0.6l0-2.1v-0.2l-0.2-14.7l0-1.7l-0.1-5.7
	c3.5,9.2,8.4,25.4-0.6,25.6v14.8h30L656,823.6z"/>
<polygon fill="#FFFFFF" stroke="#000000" stroke-miterlimit="10" points="346.2,757.1 349.5,814.8 352.8,814.8 352.8,757.1 "/>
<polygon fill="#FFFFFF" stroke="#000000" stroke-miterlimit="10" points="583.4,757.1 583.4,814.8 580,814.8 579.9,812.5 
	579.1,797.8 579,796.6 578.9,794.4 578.9,794.3 578,779.5 577.9,777.9 577.3,767.4 577.2,765.9 576.8,758.3 576.8,758.1 
	576.7,757.1 "/>
<polygon fill="#FFFFFF" stroke="#000000" stroke-miterlimit="10" points="307.6,833.6 294.1,894.6 300.9,894.6 315.8,833.6 
	325.2,824.1 317.1,878.3 322.5,878.3 333.4,821.4 "/>
<polygon fill="#FFFFFF" stroke="#000000" stroke-miterlimit="10" points="600,821.4 608.3,825.3 608.5,826.4 608.5,827 608.7,827.9 
	609.7,834.7 611.3,845.6 611.9,849.1 616.2,878.3 610.8,878.3 605.3,849.1 604.6,845.5 602.5,834.7 601.2,828 601.1,827.1 
	601,826.6 "/>
<polygon fill="#FFFFFF" stroke="#000000" stroke-miterlimit="10" points="608.1,824.1 610.3,826.3 608.3,825.3 "/>
<polygon fill="#FFFFFF" stroke="#000000" stroke-miterlimit="10" points="639.3,894.6 632.5,894.6 621.4,849.1 620.5,845.6 
	617.9,834.7 617.6,833.6 611.9,827.9 610.9,826.9 610.3,826.3 610.3,826.3 610.3,826.3 611.6,826.9 613.7,827.9 617.6,829.7 
	625.7,833.6 626,834.7 "/>
<polygon fill="#FFFFFF" stroke="#000000" stroke-miterlimit="10" points="652.1,825.8 651,834.7 284.1,834.7 283,825.8 321.8,812.5 
	611.1,812.5 "/>
<path fill="#FFFFFF" stroke="#000000" stroke-miterlimit="10" d="M604.4,730.5v27.7h-0.9c0,0,0,0-0.1,0l-20.1,0.1h-2l-4.6,0
	l-254.5,1h-0.4l-2.2-30.8l0-0.2l21.1,0.2L604.4,730.5z"/>
<polygon fill="#FFFFFF" stroke="#000000" stroke-miterlimit="10" points="308.5,849.1 627.7,849.1 627.7,845.7 308.5,843.4 "/>
<path fill="#FFFFFF" stroke="#000000" stroke-miterlimit="10" d="M652.1,825.8l-1.1,8.9H284.1l-1.1-8.9c0,0,88.7,4.4,194,3.3
	c20.8-0.2,40.2-0.5,58-0.8c0,0,0.2,0,0.6,0c0.2,0,0.5,0,0.9,0c25.2-0.4,47-0.8,64.6-1.2c2.6,0,5-0.1,7.5-0.2c0.8,0,1.6,0,2.4-0.1
	h0.7c1.7-0.1,3.4-0.1,5-0.1C639.4,826.3,652.1,825.8,652.1,825.8z"/>
<path fill="#FFFFFF" stroke="#000000" stroke-miterlimit="10" d="M459.2,730.5c0,0-134.1-1.1-136.3,0c-2.2,1.1-1.1,10-1.1,10
	l135.6,2l-135.6,0.2c0,0-0.3,5.9,2.2,13.3c2.2,2.2,276,2.2,278.2,0c2.2-2.2,1.1-14.4,1.1-14.4h-41l41-1.1c0,0,0-7.8-1.1-8.9
	C601.1,730.5,459.2,730.5,459.2,730.5z"/>
<polygon fill="#FFFFFF" stroke="#000000" stroke-miterlimit="10" points="605.5,765.6 605.5,765.8 603.4,796.6 603.3,796.6 
	583.4,796.6 579,796.6 320.9,796.3 320.7,796.3 320.7,796 320.7,768.6 577.2,765.9 581.5,765.9 583.4,765.8 "/>
<path fill="#FFFFFF" stroke="#000000" stroke-miterlimit="10" d="M651,834.7c0,0,0.1-7.1-1-7.1c-0.4,0-14.7,0.1-33,0.2
	c-1.1,0-2.2,0-3.3,0c-0.6,0-1.2,0-1.8,0c-1.1,0-2.1,0-3.2,0c-2.4,0-4.9,0-7.4,0c-28.9,0.2-60.9,0.4-65.7,0.4c0.2,0,0.5,0,0.9,0
	c7.1-0.2,38-1,64.5-1.8c2.5-0.1,5-0.2,7.5-0.2c0.6,0,1.2-0.1,1.8-0.1l0,0c2.1-0.1,4.1-0.1,6-0.2c14.6-0.5,25.4-1,25.7-1.4
	c0.3-0.3-2.6-1.7-6.9-3.3c-1.8-0.7-3.8-1.5-5.9-2.2c-0.2-0.1-0.3-0.1-0.5-0.2c-1-0.4-1.6-1.1-1.6-1.1l26.7,5.7L651,834.7z"/>
<path fill="#FFFFFF" stroke="#000000" stroke-miterlimit="10" d="M321.8,812.5c0,0-32.1,11.1-31,12.2c1.1,1.1,61.2,3.5,61.2,3.5
	l-69-2.4L321.8,812.5z"/>
<polygon fill="#FFFFFF" stroke="#000000" stroke-miterlimit="10" points="310.3,816.6 606.6,819.2 306.7,817.9 "/>
<path fill="#FFFFFF" stroke="#000000" stroke-miterlimit="10" d="M303.3,818.9c-0.3,0.3,52.9-0.8,52.9-0.8h-49.9L303.3,818.9z"/>
<polygon fill="#FFFFFF" stroke="#000000" stroke-miterlimit="10" points="544.5,818.7 627.3,817.9 631,819.2 "/>
<polygon fill="#FFFFFF" stroke="#000000" stroke-miterlimit="10" points="583.4,819.2 635.4,821.4 630.4,819 "/>
<polygon fill="#FFFFFF" stroke="#000000" stroke-miterlimit="10" points="603.5,758.2 583.4,758.3 581.4,758.3 576.8,758.3 
	322.2,759.3 323.6,756.7 337,756.8 337.3,756.8 497.2,757.6 498.3,757.6 576.8,758.1 581.4,758.1 583.4,758.1 "/>
<path fill="#FFFFFF" stroke="#000000" stroke-miterlimit="10" d="M603.3,795.2v2c0,0-7.4,0.2-20,0.5c-0.4,0-0.9,0-1.3,0
	c-1,0-1.9,0-3,0.1c-27,0.6-72.9,1.4-119.7,1.4c-73,0-137.9-2-137.9-2l-0.6-0.9l-0.2-0.3l26.4-0.8l5.6-0.2h0.1l134.9-3.9l44.6,1.6
	l45.6,1.6l0.9,0l3.1,0.1l1.4,0L603.3,795.2z"/>
<path fill="#FFFFFF" stroke="#000000" stroke-miterlimit="10" d="M465.8,768.2c0,0,134.1-1.5,136.3-0.4c2.2,1.1,1.1,10,1.1,10
	l-90.9,0.3l90.9,2c0,0,0,11.1-2.2,13.3c-2.2,2.2-276,3-278.2,0.8c-2.2-2.2-1.1-14.4-1.1-14.4l41-0.1l-41-1c0,0,0-7.8,1.1-8.9
	C324,768.6,465.8,768.2,465.8,768.2z"/>
<polygon fill="#FFFFFF" stroke="#000000" stroke-miterlimit="10" points="321.5,779 532.4,787.1 532.4,795.4 321.5,795.2 "/>
<polygon fill="#FFFFFF" stroke="#000000" stroke-miterlimit="10" points="594.4,619.1 593.4,619.1 588.6,602.5 588.2,601.2 
	588.7,597.6 "/>
<path fill="#FFFFFF" stroke="#000000" stroke-miterlimit="10" d="M573.1,572.6l0,1.7c-0.5-1.3-1-2.3-1-2.3v-2.8L485,558.3l17.9,0.6
	h0l70,2.3l0,1.7v0.2l0.1,5.6l0,0.1v0.4l0,2.8L573.1,572.6z"/>
<polygon fill="#FFFFFF" stroke="#000000" stroke-miterlimit="10" points="588.5,596.8 588.7,596.9 588.7,597.6 "/>
<path fill="#FFFFFF" stroke="#000000" stroke-miterlimit="10" d="M599.6,593.1l-1.1,4.1l-9.7-0.3l0.5-3.7l-2.9,2.2l-0.2-0.7
	l-0.1-0.4l-0.1-0.3l-0.6-1.7l-11.9-0.8v-0.1l0-0.2l0-1.3l-1.2,1v-7.4l1.1-0.2l0-0.8v-0.1l-0.1-5.4l0-0.6l0-2.1
	c1.3,3.4,3.1,9.3-0.2,9.4v5.4h11L599.6,593.1z"/>
<polygon fill="#FFFFFF" stroke="#000000" stroke-miterlimit="10" points="486.2,568.8 487.4,589.9 488.7,589.9 488.7,568.8 "/>
<polygon fill="#FFFFFF" stroke="#000000" stroke-miterlimit="10" points="573,568.8 573,589.9 571.8,589.9 571.7,589.1 571.4,583.7 
	571.4,583.3 571.4,582.4 571.4,582.4 571,577 571,576.4 570.8,572.6 570.8,572 570.6,569.3 570.6,569.2 570.6,568.8 "/>
<polygon fill="#FFFFFF" stroke="#000000" stroke-miterlimit="10" points="472.1,596.8 467.2,619.1 469.6,619.1 475.1,596.8 
	478.6,593.3 475.6,613.1 477.6,613.1 481.5,592.3 "/>
<polygon fill="#FFFFFF" stroke="#000000" stroke-miterlimit="10" points="579.1,592.3 582.1,593.8 582.2,594.2 582.2,594.4 
	582.3,594.7 582.6,597.2 583.2,601.2 583.4,602.5 585,613.1 583,613.1 581,602.5 580.8,601.2 580,597.2 579.5,594.7 579.5,594.4 
	579.5,594.2 "/>
<polygon fill="#FFFFFF" stroke="#000000" stroke-miterlimit="10" points="582.1,593.3 582.8,594.1 582.1,593.8 "/>
<polygon fill="#FFFFFF" stroke="#000000" stroke-miterlimit="10" points="593.5,619.1 591,619.1 586.9,602.5 586.6,601.2 
	585.6,597.2 585.5,596.8 583.4,594.7 583.1,594.4 582.9,594.1 582.8,594.1 582.9,594.1 583.3,594.4 584.1,594.7 585.5,595.4 
	588.5,596.8 588.6,597.2 "/>
<polygon fill="#FFFFFF" stroke="#000000" stroke-miterlimit="10" points="598.1,594 597.7,597.2 463.5,597.2 463.1,594 477.3,589.1 
	583.1,589.1 "/>
<path fill="#FFFFFF" stroke="#000000" stroke-miterlimit="10" d="M580.7,559.1v10.1h-0.3c0,0,0,0,0,0l-7.4,0h-0.7l-1.7,0l-93.1,0.4
	h-0.2l-0.8-11.3l0-0.1l7.7,0.1L580.7,559.1z"/>
<polygon fill="#FFFFFF" stroke="#000000" stroke-miterlimit="10" points="472.4,602.5 589.2,602.5 589.2,601.2 472.4,600.4 "/>
<path fill="#FFFFFF" stroke="#000000" stroke-miterlimit="10" d="M598.1,594l-0.4,3.2H463.5l-0.4-3.2c0,0,32.4,1.6,71,1.2
	c7.6-0.1,14.7-0.2,21.2-0.3c0,0,0.1,0,0.2,0c0.1,0,0.2,0,0.3,0c9.2-0.1,17.2-0.3,23.6-0.5c0.9,0,1.8,0,2.7-0.1c0.3,0,0.6,0,0.9,0
	h0.3c0.6,0,1.2,0,1.8,0C593.5,594.1,598.1,594,598.1,594z"/>
<path fill="#FFFFFF" stroke="#000000" stroke-miterlimit="10" d="M527.6,559.1c0,0-49.1-0.4-49.9,0c-0.8,0.4-0.4,3.6-0.4,3.6
	l49.6,0.7l-49.6,0.1c0,0-0.1,2.1,0.8,4.9c0.8,0.8,101,0.8,101.8,0s0.4-5.3,0.4-5.3h-15l15-0.4c0,0,0-2.8-0.4-3.2
	C579.5,559.1,527.6,559.1,527.6,559.1z"/>
<polygon fill="#FFFFFF" stroke="#000000" stroke-miterlimit="10" points="581.1,571.9 581.1,572 580.3,583.3 580.3,583.3 573,583.3 
	571.4,583.3 477,583.2 476.9,583.2 476.9,583 476.9,573 570.8,572 572.3,572 573,572 "/>
<path fill="#FFFFFF" stroke="#000000" stroke-miterlimit="10" d="M597.7,597.2c0,0,0-2.6-0.4-2.6c-0.1,0-5.4,0-12.1,0.1
	c-0.4,0-0.8,0-1.2,0c-0.2,0-0.4,0-0.7,0c-0.4,0-0.8,0-1.2,0c-0.9,0-1.8,0-2.7,0c-10.6,0.1-22.3,0.1-24,0.2c0.1,0,0.2,0,0.3,0
	c2.6-0.1,13.9-0.3,23.6-0.7c0.9,0,1.8-0.1,2.7-0.1c0.2,0,0.5,0,0.7,0l0,0c0.8,0,1.5,0,2.2-0.1c5.3-0.2,9.3-0.4,9.4-0.5
	c0.1-0.1-1-0.6-2.5-1.2c-0.7-0.3-1.4-0.5-2.2-0.8c-0.1,0-0.1,0-0.2-0.1c-0.4-0.1-0.6-0.4-0.6-0.4l9.8,2.1L597.7,597.2z"/>
<path fill="#FFFFFF" stroke="#000000" stroke-miterlimit="10" d="M477.3,589.1c0,0-11.8,4.1-11.4,4.5c0.4,0.4,22.4,1.3,22.4,1.3
	l-25.2-0.9L477.3,589.1z"/>
<polygon fill="#FFFFFF" stroke="#000000" stroke-miterlimit="10" points="473.1,590.6 581.5,591.5 471.8,591.1 "/>
<path fill="#FFFFFF" stroke="#000000" stroke-miterlimit="10" d="M470.5,591.4c-0.1,0.1,19.3-0.3,19.3-0.3h-18.2L470.5,591.4z"/>
<polygon fill="#FFFFFF" stroke="#000000" stroke-miterlimit="10" points="558.8,591.3 589.1,591.1 590.4,591.5 "/>
<polygon fill="#FFFFFF" stroke="#000000" stroke-miterlimit="10" points="573,591.5 592.1,592.3 590.2,591.5 "/>
<polygon fill="#FFFFFF" stroke="#000000" stroke-miterlimit="10" points="580.4,569.2 573,569.3 572.3,569.3 570.6,569.3 
	477.5,569.6 478,568.7 482.9,568.7 483,568.7 541.5,569 541.9,569 570.6,569.2 572.3,569.2 573,569.2 "/>
<path fill="#FFFFFF" stroke="#000000" stroke-miterlimit="10" d="M580.3,582.8v0.7c0,0-2.7,0.1-7.3,0.2c-0.2,0-0.3,0-0.5,0
	c-0.3,0-0.7,0-1.1,0c-9.9,0.2-26.7,0.5-43.8,0.5c-26.7,0-50.4-0.7-50.4-0.7l-0.2-0.3l-0.1-0.1l9.7-0.3l2-0.1h0l49.4-1.4l16.3,0.6
	l16.7,0.6l0.3,0l1.1,0l0.5,0L580.3,582.8z"/>
<path fill="#FFFFFF" stroke="#000000" stroke-miterlimit="10" d="M530,572.9c0,0,49.1-0.5,49.9-0.1c0.8,0.4,0.4,3.6,0.4,3.6
	l-33.2,0.1l33.3,0.7c0,0,0,4.1-0.8,4.9c-0.8,0.8-101,1.1-101.8,0.3c-0.8-0.8-0.4-5.3-0.4-5.3l15,0l-15-0.4c0,0,0-2.8,0.4-3.2
	S530,572.9,530,572.9z"/>
<polygon fill="#FFFFFF" stroke="#000000" stroke-miterlimit="10" points="477.2,576.8 554.3,579.8 554.3,582.8 477.2,582.8 "/>
</svg>
