<?xml version="1.0" encoding="utf-8"?>
<!-- Generator: Adobe Illustrator 25.2.0, SVG Export Plug-In . SVG Version: 6.00 Build 0)  -->
<svg version="1.1" id="Layer_1" xmlns="http://www.w3.org/2000/svg" xmlns:xlink="http://www.w3.org/1999/xlink" x="0px" y="0px"
	 viewBox="0 0 1000 1000" style="enable-background:new 0 0 1000 1000;" xml:space="preserve">
<style type="text/css">
	.st0{fill:#FFFFFF;stroke:#000000;stroke-miterlimit:10;}
	.st1{fill:none;stroke:#000000;stroke-miterlimit:10;}
</style>
<path class="st0" d="M553.7,749.5l-2.3,0.1h0l-24.5,0.9c0,0-8.6,3.4-21.9,0.8c-6-1.2-12.9-3.5-20.4-7.9
	c-47.5-6.2-60.4-14.7-73.7-22.3c-7.5-4.3-27.9-26-50.3-46.4c-0.2-2.5-1.5-4.4-4.2-4.8c-0.4,0-0.8-0.1-1.2-0.1c0,0,0,0,0,0
	c-2.4-2.1-4.7-4.1-7.1-6.1c31.5,3.2,49.7,17.3,75.2,31.8c27.6,15.7,51.8,10.9,51.8,10.9C516.3,744.7,553.7,749.5,553.7,749.5z"/>
<path class="st0" d="M355.1,669.7c-6.4-0.1-9.3,6.7-10.4,10.3c-0.5-0.3-1.1-0.4-1.7-0.5c-4.1-0.6-7.6,2.6-9.2,4.5
	c-3.1-2.3-9.3-3.5-12.9-2.7c-2.4-4-8.8-8.1-12.7-9.1c-0.2-1.3-0.7-2.5-1.4-3.1c-1.9-1.8-6.9-5-9.4-6.7c1-1.5,1-3.9-0.8-6.8
	c-3-4.9-6.2-8-8-9.6c0.8-1.8,1-4,0.1-5.9c-2-4.3-4.7-9.9-8.8-10.6c1.6-1.7,2.5-3.6,1.8-5.2c-1-2.4-3.4-4.9-5.3-6.6
	c0.3-0.2,0.5-0.5,0.7-0.8c6.5,7.8,17,15,32.5,21c10.1,3.9,21.9,12,33.8,21.8c1.5,1.2,3.1,2.5,4.6,3.8
	C350.4,665.6,352.7,667.6,355.1,669.7z"/>
<path class="st0" d="M358.9,600.1c-2.8-7.9-7.7-13.2-17.1-12.6c-9.4,0.6-1.8,11,1.6,19.2c3.4,8.2,10.5,11.9,14.3,10
	C361.4,614.7,360.9,605.7,358.9,600.1z M495.5,530.1c-1-4.9-2.5-10-4.3-15.2v0c-1.7-5-3.7-10-5.9-15.1v0c-1.5-3.4-3.1-6.8-4.8-10.3
	c-2.5-5.1-5.1-10.3-7.9-15.4c-3.2-6-6.5-11.9-9.8-17.8c-3.8-6.8-7.6-13.5-11.2-20c-11.5-20.8-21.4-40.1-23.8-55.2
	c-1-6.4-1.4-12.7-1.3-18.7c0.6-37,18.9-66.8,18.9-66.8s11.9-40.9,5.7-35.2c-4.8,4.4-24.1,15.1-38.1,48.5
	c-4.1,9.7-7.7,21.3-10.3,35.1c-1.4,7.4-2,15.4-1.9,23.6v0c2,1.3,3.3,1.9,3.3,1.9c13.8,34.5,9,56.8,7.3,62.4v0
	c-0.3,0.9-0.5,1.4-0.5,1.4s15.2,1.4,14,4c-1.2,2.6-6.2,9.5-6.2,9.5s16.6-0.7,16.3,5.3s-12.8,13.5-12.8,13.5s17.1-4.3,17.9,4.9
	s-10.8,12.6-10.8,12.6s16-1.1,15.6,7.7c-0.5,8.8-13.1,9.9-13.1,9.9s10.3,6.3,8.3,12.7c-2,6.4-10.8,7.1-10.8,7.1l5.7,7.7
	c0,0-5,5.8-15.4,5.6c-0.9,2.6-2,5-3.3,7.3c-2.8,4.8-6.4,8.9-10.5,12.5v0c-11.8,10.2-28,15.8-43.2,18.7c-23.2,4.5-44.1,3-44.1,3
	s-1.2-0.2-3.2-0.5c-6.5-0.9-21.7-2.4-32.9,0.4c0.7,3.2-5,6.4-10.9,6c-1.2,1.4-2,3.1-2.4,5c-0.3,1.3-0.5,2.6-0.6,3.9c0,0,0,0,0,0
	c2,2.3,3.6,5.1,4,8.2c0.2,1.7,0,3-0.6,4c1.8,1.7,3.9,4.5,5.5,9.1c0.8,2.3,0.5,4-0.4,5.3c6.5,7.8,17,15,32.5,21
	c10.1,3.9,21.9,12,33.8,21.8c13.4-0.8,34.8-3.1,43.7-10c21.9-4.8,29.9-18,29.9-18s6.1-2.1,14.9-6.4c4.7-2.3,10.2-5.2,16-8.8
	c7-4.3,14.3-9.6,21.2-15.9c5.9-5.4,11.4-11.5,16-18.3c3.9-5.8,7.2-12.2,9.4-19.1c0.5-1.4,0.9-2.8,1.3-4.3c0.5-2,0.9-4.1,1.2-6.2v0
	C497.8,545.6,497.2,538.1,495.5,530.1z"/>
<path class="st0" d="M498.3,694.9C498.3,694.9,498.3,694.9,498.3,694.9c-9.7-1.6-22.4-5.7-22.8-5.8c0.8,0.4,36.8,21.5-0.5,17.1
	c0,0-24.2,4.8-51.8-10.9c-25.5-14.5-43.7-28.6-75.2-31.8c-1.5-1.3-3.1-2.6-4.6-3.8c13.4-0.8,34.8-3.1,43.7-10
	c21.9-4.8,29.9-18,29.9-18s10.9,15.6,35.6,31.3c6.9,4.4,16.2,8.3,26.2,11.8c0,0,0.1,0,0.3,0.1c0,0,0.1,0,0.2,0.1
	c0.1,0,0.1,0,0.2,0.1c0.1,0,0.1,0,0.2,0.1c0.1,0,0.3,0.1,0.4,0.2c0.2,0.1,0.3,0.1,0.5,0.2c0.2,0.1,0.3,0.1,0.5,0.2
	c0.8,0.3,1.9,0.8,3.1,1.2c0.3,0.1,0.6,0.2,0.9,0.4c0.4,0.2,0.8,0.3,1.2,0.5c0.5,0.2,1,0.4,1.5,0.7c0.6,0.3,1.3,0.6,2,0.9
	c0.3,0.2,0.7,0.3,1,0.5c0.1,0,0.2,0.1,0.2,0.1c0.3,0.2,0.7,0.3,1,0.5c0.3,0.1,0.6,0.3,0.9,0.4c0.4,0.2,0.8,0.4,1.3,0.6
	c0.2,0.1,0.4,0.2,0.6,0.3c0.2,0.1,0.4,0.2,0.6,0.3c0.3,0.1,0.5,0.3,0.8,0.4c0.3,0.2,0.7,0.4,1,0.5c0.4,0.2,0.8,0.5,1.2,0.7
	c0.3,0.2,0.5,0.3,0.8,0.5c0.3,0.2,0.7,0.4,1,0.6c0.2,0.1,0.4,0.2,0.6,0.3c0.4,0.2,0.8,0.5,1.1,0.7c0.2,0.1,0.4,0.2,0.5,0.3
	c1.3,0.8,2.4,1.7,3.4,2.5c0.2,0.2,0.5,0.4,0.7,0.6c0.5,0.5,0.9,0.9,1.3,1.4c0.1,0.1,0.2,0.2,0.3,0.3c0.1,0.1,0.2,0.2,0.2,0.3
	s0.1,0.2,0.2,0.3c0.1,0.1,0.1,0.2,0.2,0.3c0,0,0,0,0,0c0,0.1,0.1,0.2,0.1,0.3c0,0.1,0.1,0.2,0.1,0.3c0,0.1,0.1,0.2,0.1,0.3
	C509.8,695.9,504.7,696,498.3,694.9z"/>
<path class="st0" d="M272.1,602.6c-0.5,0.8-1.2,1.4-2,1.8c-2.2,1.1-5.5,0.9-8.2-0.2c-1.9-0.8-3.5-2-4.3-3.6
	c-2.4-4.4-0.7-10.7,0.1-13.1c2-0.1,4-0.9,5.7-2c1.6,1.3,3.6,2.9,5.3,5c0,0,0,0,0,0c2,2.3,3.6,5.1,4,8.2
	C272.9,600.3,272.7,601.6,272.1,602.6z"/>
<path class="st0" d="M277.1,617c-0.2,0.3-0.5,0.5-0.7,0.8c-2.2,1.9-6.3,2.1-9.5,1c-2-0.7-3.7-1.8-4.5-3.3c-2.3-4.2-1.2-9-0.5-11.3
	c2.7,1.2,6,1.4,8.2,0.2c0.8-0.4,1.5-1,2-1.8c1.8,1.7,3.9,4.5,5.5,9.1C278.3,614,278.1,615.7,277.1,617z"/>
<path class="st0" d="M271.6,581.4c-1.2,1.4-2,3.1-2.4,5c-0.3,1.3-0.5,2.6-0.6,3.9c-1.7-2-3.6-3.7-5.3-5c1.9-1.3,3.5-3,4.5-4.8
	C269.1,581.1,270.4,581.3,271.6,581.4z"/>
<path class="st0" d="M544.3,653.7c-0.2,1.8-0.9,3.4-2.2,4.8c-1.6,1.7-5.8,2-11.6,1.4c-24.5-2.5-78.6-22.1-98.6-34.5
	c4.7-2.3,10.2-5.2,16-8.8c22.6,10.2,64.2,15.7,86.6,16.3C539.3,638.8,545.1,647.2,544.3,653.7z"/>
<path class="st0" d="M550.8,629.3c-0.1,1-0.5,1.9-1.2,2.5c-1.3,1-6.9,1.4-15.1,1.2c-22.5-0.7-64-6.2-86.6-16.3
	c7-4.3,14.3-9.6,21.2-15.9c17.9,5.2,57.2,16.3,79,18.7C549.8,623,551.1,626.7,550.8,629.3z"/>
<path class="st0" d="M564.7,613.8c-0.1,1.8-0.7,3.3-1.9,4.6c-1.7,1.8-7.2,1.9-14.7,1.1c-21.8-2.5-61.1-13.5-79-18.7
	c5.9-5.4,11.4-11.5,16-18.3c16.8,3.7,50.6,10.5,69.8,10.4C559.4,598.6,565.1,607.5,564.7,613.8z"/>
<path class="st0" d="M569.1,588.3L569.1,588.3c-0.2,0.3-0.3,0.7-0.5,1c-1.4,2.5-6.6,3.4-13.8,3.5c-19.2,0-53-6.8-69.8-10.4
	c3.9-5.8,7.2-12.2,9.4-19.1c23.8-2.8,48.9,2.4,63.5,3.9C564.2,572.4,572.2,581.1,569.1,588.3z"/>
<path class="st0" d="M557.2,542.3c0,2.8-2.8,4.6-7.3,5.7c-12.6,3.1-38.5,1.1-53,4.7c0.8-7,0.2-14.6-1.4-22.5
	c10.6-6.7,28.1-7.7,41.2-8.8C543.9,525.3,557.2,533.7,557.2,542.3z"/>
<path class="st0" d="M570.4,564.6c0,3-4.7,3.3-12.4,2.5c-14.5-1.5-39.7-6.7-63.5-3.9c0.5-1.4,0.9-2.8,1.3-4.3c0.5-2,0.9-4.1,1.2-6.2
	v0c14.5-3.5,40.4-1.6,53-4.7c7.4,3.4,17.7,9,20,14.6C570.2,563.2,570.4,563.9,570.4,564.6z"/>
<path class="st0" d="M536.6,521.3c-13.1,1.2-30.6,2.2-41.2,8.8c-1-4.9-2.5-10-4.3-15.2v0c12.9-6.4,39.8-5.9,52.1-9.1h0
	c5,2.4,9.8,5.8,10.4,9.8C554.3,519.4,546.8,520.4,536.6,521.3z"/>
<path class="st0" d="M536.1,486c-1.7,0.4-3.2,0.9-4.4,1.5c0.6,0.2,1.3,0.5,1.9,0.7c-8.9,4-37.4,2.3-48.3,11.7
	c-1.5-3.4-3.1-6.8-4.8-10.3c11.1-8.7,35.3-15.1,38.8-17c6.4,1.7,13.5,4.8,16.5,10.7C536.4,484.4,536.4,485.2,536.1,486z"/>
<path class="st0" d="M519.7,472.4c-0.1,0.1-0.2,0.1-0.4,0.2c-3.5,1.9-27.7,8.3-38.8,17c-2.5-5.1-5.1-10.3-7.9-15.4
	c5.9-19.3,27.9-25.1,33.2-30.5c9-0.7,18.4-0.2,18.7,5.4C525.4,459.6,521.6,470.5,519.7,472.4z"/>
<path class="st0" d="M543.3,505.8L543.3,505.8c-12.3,3.2-39.2,2.7-52.1,9.1c-1.7-5-3.7-10-5.9-15.1v0c10.9-9.4,39.4-7.7,48.3-11.7
	c7.8,3.1,15.6,7.5,16.1,12.8C549.9,503.3,547.4,504.8,543.3,505.8z"/>
<path class="st0" d="M505.9,443.7c-5.4,5.3-27.3,11.1-33.2,30.5c-3.2-6-6.5-11.9-9.8-17.8c4.1-14.1,14.7-20.6,22-24.8
	c7.7,1.1,17.6,3.4,21.4,8.1C507.6,441.1,507.3,442.4,505.9,443.7z"/>
<path class="st0" d="M484.9,431.6c-7.3,4.2-17.9,10.7-22,24.8c-3.8-6.8-7.6-13.5-11.2-20c2.6-8.2,8.7-15.6,15.9-20.9
	c9.8,2.1,22.1,5.4,24.6,9C493.8,426.8,490.2,428.6,484.9,431.6z"/>
<path class="st0" d="M794.1,75.2c-10.8,36.4-84.8,59.2-148.7,102.6l0,0c-5.6,3.8-11.1,7.7-16.5,11.9c-22.3,17.1-47.2,37.3-70.6,56.7
	c-27.8,23-53.3,44.8-69.5,58.7c-7.7,1.8-13.5,3.3-13.9,3.4c0.8-0.5,27-19,21.8-22.3c-5.1-3.3-38.5,15.6-39.4,16.1
	c0.8-0.7,29.4-26.2,24.2-29c-5.2-2.9-36.1,22.3-36.1,22.3s11.9-40.9,5.7-35.2c0,0,7.9-13.1,25.3-32.6
	C518.6,181.1,616.5,97.9,794.1,75.2z"/>
<path class="st0" d="M840.1,136.2c-64.2,44.9-195.7,97.3-195.7,97.3s-18-0.1-42.5,3.4h0c-13.2,1.9-28.3,4.9-43.5,9.5
	c23.4-19.4,48.3-39.6,70.6-56.7c5.4-4.1,10.9-8.1,16.5-11.9l0,0C698,161.3,776.1,140,840.1,136.2z"/>
<path class="st0" d="M528.3,306.6c-6.3,3.9-18.7,9-32.3,16.1l0,0c-15.2,7.9-31.9,18.2-43.6,31.8c-6.4-6.1-18,1.5-25.8,7.9
	c0.6-37,18.9-66.8,18.9-66.8s30.9-25.2,36.1-22.3c5.2,2.8-23.4,28.2-24.2,29c1-0.5,34.3-19.4,39.4-16.1c5.2,3.3-21.1,21.8-21.8,22.3
	c0.4-0.1,6.2-1.6,13.9-3.4c16-3.7,40.4-8.4,43.6-3.7C533.4,302.7,531.8,304.5,528.3,306.6z"/>
<path class="st0" d="M829.1,226c0,0-87.5,26.5-152.1,50.9h0c-21.4,8.1-40.3,15.9-52.7,22.5c0,0-1.7,31.4-87.6,30.9
	c6.9-2.3,10.8-4.1,9.6-6.2c-3.4-6.2-33.8-3.4-50.3-1.4c13.6-7.1,26-12.3,32.3-16.1c56.9,6.7,90.3-46.8,98.9-62.6
	c9.8,2.5,18,4.2,20.1,3.5C653,245.3,789.8,216,829.1,226z"/>
<path class="st0" d="M627.2,243.9c-8.6,15.9-42,69.3-98.9,62.7c3.5-2.1,5.1-3.8,4.2-5.2c-3.2-4.8-27.6,0-43.6,3.7
	c16.2-13.9,41.7-35.7,69.5-58.7c15.2-4.6,30.2-7.6,43.5-9.5h0C609.6,239.1,618.9,241.8,627.2,243.9z"/>
<path class="st0" d="M536.6,330.3c-7.7,2.5-19.2,5.6-31.7,10.3c-17.4,6.5-36.7,16.1-50.5,31.6c2-6.2,2.7-13.2-2.1-17.7
	c11.7-13.6,28.4-23.9,43.6-31.8l0,0c16.5-2,46.8-4.8,50.3,1.4C547.5,326.2,543.6,328.1,536.6,330.3z"/>
<path class="st0" d="M539.2,349c-4.1,1.9-10.7,4.3-18.6,7.4h0c-13.3,5.3-30.3,12.7-45.6,23.9c-5.7-14.7-27.1,5.2-27.1,5.2
	s4.2-6.1,6.6-13.2c13.7-15.5,33.1-25.1,50.5-31.6c16.2,0.1,37.8,0.9,39,4.4C544.3,346.2,542.5,347.4,539.2,349z"/>
<path class="st0" d="M481.7,408.3c-4.7,1.4-9.6,3.9-14.1,7.2c-7.1,5.3-13.2,12.7-15.9,20.9c-11.5-20.8-21.4-40.1-23.8-55.2
	c-1-6.4-1.4-12.7-1.3-18.7c7.7-6.4,19.3-14,25.8-7.9c4.7,4.5,4.1,11.5,2.1,17.7c-2.4,7.1-6.6,13.2-6.6,13.2s21.4-19.9,27.1-5.2
	c5.3,13.6-13,23.1-15.8,24.5C461.7,403.7,476,398.3,481.7,408.3z"/>
<path class="st0" d="M851.2,299.4c-48.5-1.4-143.3,7.1-151.8,10c-0.2,0.1-0.4,0.1-0.6,0.3c-4.4,2.6-13.3,18-36.2,30
	c-23.3,12.3-61,21-123.3,9.2c3.3-1.5,5.1-2.8,4.7-3.9c-1.2-3.5-22.8-4.3-39-4.4c12.5-4.7,24-7.8,31.7-10.3
	c85.8,0.5,87.6-30.9,87.6-30.9c12.4-6.6,31.3-14.4,52.7-22.5h0C725.8,278,813.4,282.3,851.2,299.4z"/>
<path class="st0" d="M836.9,361.5C832,361,782.8,347.7,726,342c-20.7-2.1-42.5-3.2-63.4-2.3c22.9-12,31.7-27.5,36.2-30
	C732.6,317.8,834.5,343.6,836.9,361.5z"/>
<path class="st0" d="M814.1,404.9c-21.8-11.7-51.4-21-76.7-27.5h0c0,0,0,0,0,0c-28.6-7.4-51.6-11.3-51.6-11.3s-45.4,8.3-125.8,4.1
	c-0.1-2.9-0.9-5.4-2.8-7.1c-5.3-5-22.8-6.4-36.6-6.8c7.9-3.1,14.5-5.5,18.6-7.4c62.3,11.8,100.1,3,123.3-9.2
	c21-0.9,42.7,0.2,63.4,2.3C750.2,353.1,792.5,375.5,814.1,404.9z"/>
<path class="st0" d="M772,404.9c-22.8-7.1-41.3-16.6-49.9-13.3c-4.9,1.9-40,13.3-82.2,19.4c-27.2,4-57.3,5.7-84,1.3v0
	c-2.6-16,4.6-32,4.1-42.1c80.4,4.2,125.8-4.1,125.8-4.1s23.1,3.9,51.6,11.3c0,0,0,0,0,0h0C752.1,387.9,769.8,402.3,772,404.9z"/>
<path class="st0" d="M664.2,454.3L664.2,454.3c-25.5,1.6-52.9,2.4-74.7,1.5c-11.1-10.4-27.5-23.2-32.3-38c-0.6-1.8-1-3.6-1.3-5.5
	c26.8,4.4,56.8,2.6,84-1.3c36.2,8.9,98.8,24.9,102.9,31C745.6,446.3,707.5,451.6,664.2,454.3z"/>
<path class="st0" d="M591.8,481.4c-1.8,0.4-3.2,0.5-3.2,0.5s-35.7-0.4-52.4,4.1c0.3-0.8,0.2-1.6-0.3-2.6c-3.1-5.9-10.2-9-16.5-10.7
	c0.2-0.1,0.3-0.2,0.4-0.2c1.9-1.9,5.7-12.8,5-23.3c-0.4-5.6-9.7-6.1-18.7-5.4c1.3-1.3,1.7-2.6,0.4-4.1c-3.8-4.7-13.8-7-21.4-8.1
	c5.3-3,8.9-4.7,7.2-7.1c-2.5-3.6-14.7-6.9-24.6-9c4.5-3.3,9.3-5.8,14.1-7.2c-5.6-10-20-4.5-22.5-3.5c2.8-1.4,21.1-10.9,15.8-24.5
	c15.2-11.2,32.3-18.6,45.6-23.9h0c13.8,0.3,31.4,1.8,36.6,6.8c1.9,1.8,2.7,4.2,2.8,7.1c0.5,10.1-6.7,26.2-4.1,42.1v0
	c0.3,1.8,0.7,3.7,1.3,5.5c4.8,14.9,21.2,27.6,32.3,38c5.5,5.2,9.7,9.8,10.5,13.7C601.6,477.7,595.7,480.5,591.8,481.4z"/>
<path class="st0" d="M747.1,495.5c0.6,9.7-23.8,10.8-53.6,8.5h0c-27.9-2.1-60.6-7.2-82.5-11c-5.5-4.2-13.1-8.5-19.2-11.6
	c3.9-1,9.8-3.8,8.2-11.9c-0.8-4-5-8.5-10.5-13.7c21.8,0.9,49.2,0.1,74.7-1.5h0C695.5,462.2,746.1,477.9,747.1,495.5z"/>
<path class="st0" d="M618,502.4c-0.1,2.3-3.2,3.1-8.2,3.1c-13.4,0-40.7-6-60.2-4.5c-0.5-5.2-8.2-9.7-16.1-12.8
	c1.3-0.6,2.2-1.3,2.5-2.2c16.7-4.4,52.4-4.1,52.4-4.1s1.4,0,3.2-0.5c6.1,3.1,13.7,7.4,19.2,11.6C615.2,496.3,618.2,499.6,618,502.4z
	"/>
<path class="st0" d="M767,546.1c-1.3,6.3-44.9,6.9-87.1,5.3h0c-22.8-0.8-45.3-2.3-60.4-3.9c-2.5-4-5.2-7.6-7.5-10.7
	c8.6,1.2,17.5-3,17-9.3c-0.3-4.7-12.1-15.8-19.1-22.1c5,0,8-0.8,8.2-3.1c0.1-2.7-2.8-6-7.1-9.3c21.8,3.8,54.6,8.8,82.5,11h0
	C723.6,517.5,768.5,539,767,546.1z"/>
<path class="st0" d="M629,575.8c-1.6,5.9-8.9,4.9-18.4,1.6c-12-4.2-27.8-12.2-40.7-14.8c-2.3-5.5-12.6-11.1-20-14.6
	c4.5-1.1,7.3-2.8,7.3-5.7c0-8.6-13.3-17-20.6-21c10.2-0.9,17.6-1.9,17-5.6c-0.6-4.1-5.4-7.4-10.4-9.8c4.1-1.1,6.6-2.6,6.4-4.9
	c19.6-1.5,46.8,4.5,60.2,4.5c7,6.3,18.8,17.5,19.1,22.1c0.5,6.3-8.4,10.5-17,9.3c2.3,3,5,6.7,7.5,10.7
	C625.6,557.1,631.1,568.4,629,575.8z"/>
<path class="st0" d="M767.1,596.7c-1.4,10-27.4,15.8-60.8,15.8h0c-25.8,0-56.2-3.7-83.1-11.7c-2.3-7.5-8.1-16.9-12.7-23.4
	c9.6,3.3,16.8,4.3,18.4-1.6c2.1-7.4-3.3-18.6-9.5-28.3c15.1,1.6,37.6,3.1,60.4,3.9h0C712.4,561.9,769.1,582.4,767.1,596.7z"/>
<path class="st0" d="M757.8,663c-3.7,11.5-29.7,16.1-60.7,16.2c-31.3,0.2-67.9-4.2-92.2-10.5c0.6-5.5-2.9-13.5-6-19.3
	c6.6,2.6,11.7,4,13.5,3.1c4.7-2.3,0.9-16-1.8-23.9c7.7,2.6,13.1,4,13.7,2.5c1.2-3.1-4.5-15-8.9-23.3c5.4,1.9,8.9,2,8.9-1.5
	c0-1.7-0.4-3.6-1-5.7c26.9,8,57.2,11.6,83.1,11.7h0C727.9,623.3,763.8,644.4,757.8,663z"/>
<path class="st0" d="M731.4,706.8c-1,6.4-35.1,13.3-85.2,4.7c14.1,9.1,25.6,20.3,16.1,29.1c-9.5,8.8-39.6,4.6-73.3-5.7h0
	c-31.9-9.8-67-25-90.6-40.1c6.4,1,11.5,1,10.9-2c0-0.1,0-0.2-0.1-0.3c0-0.1-0.1-0.2-0.1-0.3c0-0.1-0.1-0.2-0.1-0.3c0,0,0,0,0,0
	c0-0.1-0.1-0.2-0.2-0.3c-0.1-0.1-0.1-0.2-0.2-0.3s-0.1-0.2-0.2-0.3c-0.1-0.1-0.2-0.2-0.3-0.3c-0.4-0.5-0.8-0.9-1.3-1.4
	c-0.2-0.2-0.5-0.4-0.7-0.6c-1-0.8-2.1-1.7-3.4-2.5c-0.2-0.1-0.4-0.2-0.5-0.3c-0.4-0.2-0.7-0.5-1.1-0.7c-0.2-0.1-0.4-0.2-0.6-0.3
	c-0.3-0.2-0.7-0.4-1-0.6c-0.3-0.2-0.5-0.3-0.8-0.5c-0.4-0.2-0.8-0.5-1.2-0.7c-0.3-0.2-0.7-0.4-1-0.5c-0.3-0.1-0.5-0.3-0.8-0.4
	c-0.2-0.1-0.4-0.2-0.6-0.3c-0.2-0.1-0.4-0.2-0.6-0.3c-0.4-0.2-0.8-0.4-1.3-0.6c-0.3-0.2-0.6-0.3-0.9-0.4c-0.3-0.2-0.7-0.3-1-0.5
	c-0.1,0-0.2-0.1-0.2-0.1c-0.3-0.2-0.7-0.3-1-0.5c-0.7-0.3-1.3-0.6-2-0.9c-0.5-0.2-1-0.5-1.5-0.7c-0.4-0.2-0.8-0.3-1.2-0.5
	c-0.3-0.1-0.6-0.2-0.9-0.4c-1.2-0.5-2.2-0.9-3.1-1.2c-0.2-0.1-0.3-0.1-0.5-0.2c-0.2-0.1-0.3-0.1-0.5-0.2c-0.2-0.1-0.3-0.1-0.4-0.2
	c25.6,8.7,55.4,14,60.8,14c3.1,0,1-3.5-2.7-7.7c19.5,2.4,44.2,6.9,48.6,4.8c4-1.9-2.7-11.5-7.6-17.8c8.7,4.3,16.2,7.4,21.4,5.9
	c2.9-0.8,4.3-3,4.6-5.7c24.3,6.3,60.9,10.7,92.2,10.5C712.9,688.6,732.2,701.1,731.4,706.8z"/>
<path class="st0" d="M600.3,752.2c-5.5,6.3-28.7,2.8-48.9-2.7l2.3-0.1c0,0-37.3-4.8-78.7-43.2c37.3,4.4,1.2-16.7,0.5-17.1
	c0.5,0.2,13.2,4.2,22.8,5.8c0,0,0,0,0,0C522,710,557,725.3,588.9,735h0C598.4,741.4,604.3,747.6,600.3,752.2z"/>
<path class="st0" d="M624.2,606.4c0,3.5-3.5,3.3-8.9,1.5c-11.9-4.2-33-16.9-46.2-19.6c3.1-7.2-5-15.9-11.2-21.2
	c7.7,0.8,12.5,0.5,12.4-2.5c0-0.7-0.2-1.4-0.5-2.1c12.9,2.7,28.6,10.6,40.7,14.8c4.5,6.5,10.4,15.9,12.7,23.4
	C623.9,602.8,624.2,604.8,624.2,606.4z"/>
<path class="st0" d="M624.2,631.2c-0.6,1.4-6,0-13.7-2.5c-12.6-4.2-31.4-11.5-45.9-14.9c0.4-6.3-5.3-15.1-9.8-21
	c7.2,0,12.3-1,13.8-3.5c0.2-0.3,0.3-0.7,0.5-1h0c13.2,2.7,34.3,15.4,46.2,19.6C619.8,616.1,625.5,628,624.2,631.2z"/>
<path class="st0" d="M612.3,652.5c-1.8,0.9-6.9-0.5-13.5-3.1c-14.3-5.5-36-16.3-48-20.2c0.3-2.6-1.1-6.3-2.8-9.9
	c7.5,0.9,13,0.7,14.7-1.1c1.2-1.2,1.8-2.8,1.9-4.6c14.5,3.3,33.3,10.7,45.9,14.9C613.2,636.5,617,650.2,612.3,652.5z"/>
<path class="st0" d="M604.8,668.7c-0.3,2.7-1.6,4.8-4.6,5.7c-5.1,1.5-12.7-1.6-21.4-5.9c-10.7-5.3-23.1-12.4-34.6-14.8
	c0.7-6.4-5-14.9-9.8-20.8c8.2,0.2,13.8-0.1,15.1-1.2c0.7-0.6,1.1-1.4,1.2-2.5c12,3.9,33.7,14.7,48,20.2
	C601.9,655.3,605.4,663.3,604.8,668.7z"/>
<path class="st0" d="M540.6,689.1c-5.4,0-35.2-5.3-60.8-14c-0.1,0-0.2,0-0.2-0.1c-0.1,0-0.1,0-0.2-0.1c-0.1,0-0.1,0-0.2-0.1
	c-0.2-0.1-0.3-0.1-0.3-0.1c-10-3.4-19.3-7.4-26.2-11.8c-24.7-15.7-35.6-31.3-35.6-31.3s6.1-2.1,14.9-6.4
	c19.9,12.3,74.1,32,98.6,34.5c0.6,3.5,0.4,7.8-2.3,11.8v0c2.9,2.7,6.8,6.5,9.8,9.8C541.5,685.6,543.7,689.1,540.6,689.1z"/>
<path class="st0" d="M586.5,686.3c-4.4,2.1-29.1-2.4-48.6-4.8c-3-3.4-6.9-7.2-9.8-9.8v0c2.7-3.9,2.9-8.2,2.3-11.8
	c5.8,0.6,10,0.2,11.6-1.4c1.3-1.4,2-3,2.2-4.8c11.5,2.5,23.8,9.5,34.6,14.8C583.8,674.8,590.4,684.4,586.5,686.3z"/>
<path class="st0" d="M294.6,312.3c-0.1,12.3,2,21.9,5.1,29.5c-3.7,3-8.9,8.3-14.3,14.5c-3.6-13.1-4.8-28.9-2.7-50.1
	c5.2-52,37.3-59.2,37.3-59.2S294.9,268.1,294.6,312.3z"/>
<path class="st0" d="M235.4,586.3c-1.6,4.9-9.2,12.9-13.1,13.7c-3.8,0.8-6.8,1.7-8.6,2.1c0.1-1.3-0.3-2.4-1.1-3.1
	c-0.2-0.1-0.3-0.2-0.5-0.3c3-4,12.7-16.1,20.5-16.3c0.9,0,1.6,0.1,2.1,0.4C235.8,583.5,235.9,584.7,235.4,586.3z"/>
<path class="st0" d="M406,553.8L406,553.8c-11.8,10.2-28,15.8-43.2,18.7c7.2-10.7,9.7-24.3,8.1-30.7c-1.1-4.5-3.6-3.5-7-0.1
	c-2.2-5.8,3.7-12,7.4-12c-6-3.6-3.3-12.4,1.7-14c-8.5-2.1-9.7-9.7,1.9-13.3c-14.2-3.1-9.5-15.4-5.5-20.9c-16.9-1.4-8.6-11.4-5-17.6
	c-16.2,0.5-8.1-13.3-8.1-13.3s-22.6-18.3-43.2-45.6c-3.8-5.1-7.5-9.9-10.8-14.7c3.1-12.8,4.2-26.8,4.2-36.9
	c6.5,8.4,14.2,12.4,18.7,14.8c1,0.5,1.8,1,2.4,1.4c6.4,4.1,67.7,74,79.6,118.3C415,516.8,410.3,540.7,406,553.8z"/>
<path class="st0" d="M442,122.6c-10.1,31.4-16.8,52.5-19,70c-19.6,24.9-40.5,61.5-47.5,74.4c0,0,0,0,0,0s4.6-29.9-12.2-29.6
	c-10,0.2-20.6,12.4-27.6,22.1c0.8-3,1.7-6,2.6-8.9C358.6,186.1,412,127.6,442,122.6z"/>
<path class="st0" d="M404.2,369.6c13.8,34.5,9,56.8,7.3,62.4v0c-0.5,0.2-1,0.5-1.5,0.9c-1.6,1.1-3.3,2.8-4.6,5.3
	c-0.9-6.3,0.1-11.6-1.3-18.7c-1.8-8.9-54.9-47.4-44.5-109.4c3.5-20.9,13.2-35.1,24.5-44.7c8.1-6.8,17-11.4,25-14.4h0
	c14.3-5.3,26-5.8,26-5.8s-22.5,6.7-40.5,23.1c-10.5,9.5-19.4,22.2-21.5,38.9c-4.6,36.8,18.8,55.1,27.7,60.6v0
	C402.9,369,404.2,369.6,404.2,369.6z"/>
<path class="st0" d="M432,500.9c0,0,10.3,6.3,8.3,12.7c-2,6.4-10.8,7.1-10.8,7.1l5.7,7.7c0,0-5,5.8-15.4,5.6c-3.4-2,0-8.4,2.7-13.3
	c1.5-2.8,2.9-5,2.6-5.7c-0.4-0.8-1.5-2.2-2.2-4.1c-0.5-1.4-0.7-3.2-0.2-5.2v0c0.4-1.4,1.1-3,2.4-4.8c-2.5-4.4-3.8-10.6-4.5-15.3
	c0-0.1,0-0.1,0-0.2c-0.2-1.2-0.4-2.2-0.5-3.2c0-0.3-0.1-0.6-0.1-0.9c-6.4-5.8-2.9-15.5-2.9-15.5s-7.5-13.6-10.3-22.5
	c-0.6-1.8-1-3.6-1.2-5.2c1.3-2.5,2.9-4.2,4.6-5.3c0.5-0.4,1-0.6,1.5-0.9c-0.3,0.9-0.5,1.4-0.5,1.4s15.2,1.4,14,4
	c-1.2,2.6-6.2,9.5-6.2,9.5s16.6-0.7,16.3,5.3s-12.8,13.5-12.8,13.5s17.1-4.3,17.9,4.9s-10.8,12.6-10.8,12.6s16-1.1,15.6,7.7
	C444.6,499.9,432,500.9,432,500.9z"/>
<path class="st0" d="M422.5,520.8c-2.7,4.9-6.1,11.3-2.7,13.3c-0.9,2.6-2,5-3.3,7.3c-2.8,4.8-6.4,8.9-10.5,12.5
	c4.2-13.1,9-37,1.3-65.9c-11.9-44.2-73.2-114.1-79.6-118.3c-0.6-0.4-1.4-0.9-2.4-1.4c-1.3-18.5-2.5-62.3,10.3-108.7c0,0,0,0,0,0
	c7-9.8,17.6-21.9,27.6-22.1c16.8-0.4,12.2,29.6,12.2,29.6s0,0,0,0c0.2-0.1,4.1-1.5,8.8-1.5c-11.4,9.6-21.1,23.8-24.5,44.7
	c-10.3,62,42.8,100.5,44.5,109.4c1.4,7.1,0.4,12.4,1.3,18.7c0.2,1.6,0.6,3.4,1.2,5.2c2.9,8.9,10.3,22.5,10.3,22.5s-3.5,9.7,2.9,15.5
	c0,0.3,0.1,0.6,0.1,0.9c0.1,0.9,0.3,2,0.5,3.2c0,0.1,0,0.1,0,0.2c0.8,4.7,2.1,10.9,4.5,15.3c-1.3,1.7-2,3.3-2.4,4.8v0
	c-0.5,2.1-0.3,3.8,0.2,5.2c0.7,2,1.8,3.3,2.2,4.1C425.4,515.7,424.1,518,422.5,520.8z"/>
<path class="st0" d="M479.6,159.7c0,0-21.8,30.1-29.2,54.1c-18,13.8-34.2,30.1-41.1,37.3h0c-8.1,3-17,7.5-25,14.4
	c-4.7,0.1-8.5,1.5-8.8,1.5c7.1-12.8,27.9-49.4,47.5-74.4c4.5-5.6,8.8-10.7,13-14.7C462.6,151.9,479.6,159.7,479.6,159.7z"/>
<path class="st0" d="M402.8,344.1c-1.4,7.4-2,15.4-1.9,23.6c-8.9-5.5-32.4-23.8-27.7-60.6c2.1-16.6,11-29.4,21.5-38.9
	c3.9,2.8,6.9,8.1,7,17.6c8,4,10.6,15.2,11.4,23.1C409,318.6,405.4,330.2,402.8,344.1z"/>
<path class="st0" d="M495.8,190.7c-0.5,4.4-12.2,20.4-19.2,37.2c-17.5,19.4-25.3,32.5-25.3,32.5c-4.8,4.4-24.1,15.1-38.1,48.5
	c-0.8-7.9-3.4-19.1-11.4-23.1c-0.1-9.5-3.1-14.8-7-17.6c18-16.4,40.5-23.1,40.5-23.1s-11.7,0.5-26,5.8c6.9-7.2,23-23.4,41.1-37.3
	C465.6,202.1,482.2,192.1,495.8,190.7z"/>
<path class="st0" d="M715.9,874c10,7.1,23.3,9,23.3,9s-36.1,0.5-67.4-2.2c12.5-9.2,35.4-26.5,40.5-33.5c-6.4-8.3,10-16.9,18.5-20.2
	c-4.6-4.9-2.3-15-0.4-20.8c43.4,18.8,97.8,57,130,58.2C856.6,865.9,787.2,886.8,715.9,874z"/>
<path class="st0" d="M712.4,847.4c-5.1,7-28,24.3-40.5,33.5c-12.7-1.1-24.5-2.6-32.9-5c8.6,8.5,22.3,10,22.3,10s-32.8,2.8-57.8,3.8
	c13.5-11.3,54-25,54-25s-15.9-2.1-17.3-3.8c-1.4-1.7,30.2-13.8,30.2-13.8l-3.6-8.3l20-22.1l-10-2.2l12.6-5.4l-17.8-2.4l6.5-4.3
	l-6.5-5.8c9.3-1.1,18.5-1.3,27.2-0.2c9.4,1.2,20.1,4.8,31.7,9.8c-1.9,5.8-4.2,15.9,0.4,20.8C722.4,830.5,706,839.1,712.4,847.4z"/>
<path class="st0" d="M653.6,831.2l-25.1,20.4h9.5c0,0-17.8,30.9-61,37.8h0c-16.1-1.6-41.7-1.8-61.6-13.5l-12.9,0.8
	c2.4-15.2,7.1-46.2,9-60.4c0.1-0.6,0.1-1.2,0.1-1.8c3.8,1,8.2,2.1,12.6,3.4c8.1,13,19.2,21.2,46.1,11.4c18.7-6.8,51-22.3,84-29.6h0
	l5.5,5.9l-3.8,4.3l5.7,4.7L648,831.2L653.6,831.2L653.6,831.2z"/>
<path class="st0" d="M402.8,906.6c-0.4,0-0.8,0.1-1.2,0.1c-7.1,0.5-13,0.3-13,0.3s-15.9,1.9-14.4-1.7c0.4-1,2-9.8,12-15.8
	c2.1-1.2,4.5-2.3,7.3-3.2c0,0,0,0,0.1,0C396.5,886.1,403.7,893.6,402.8,906.6z"/>
<path class="st0" d="M393.3,886.2c-2.8,0.9-5.2,2-7.3,3.2c-10,6-11.6,14.7-12,15.8c-8.2,1.4-10.9-3.2-10.9-3.2s0.8-7.1,6.4-13.2
	c2.4-2.6,5.5-5,9.9-6.6c1.1-0.4,2.4-0.8,3.7-1.1c0.1,0.1,0.2,0.3,0.3,0.4c0.1,0,0.2,0,0.3,0.1c2.1,0.4,7.4,1.4,9,4.8
	C392.9,886.3,393.1,886.2,393.3,886.2z"/>
<path class="st0" d="M361.6,889.5c3.2-0.3,6-0.6,8-0.7c-5.5,6.1-6.4,13.2-6.4,13.2s-13.2,1.6-8.7-3.2
	C356.8,896.3,359.3,892.8,361.6,889.5z"/>
<path class="st0" d="M511.6,814.5c0,0.6-0.1,1.2-0.1,1.8c-1.8,14.2-6.6,45.3-9,60.4l-8.8,0.5c0,0-2.8,3.2-2.8,4.1
	c0,0.9,4.3,9.8-7.1,13.7c-11.4,3.9-27.1,0.2-33.9,1.2c-6.8,1.1-26.9,7.1-37.4,9.1c-3.1,0.6-6.4,0.9-9.6,1.2
	c0.9-13-6.3-20.4-9.4-20.4l0,0c0,0,0,0-0.1,0c-0.2,0-0.4,0.1-0.6,0.2c-1.6-3.4-6.9-4.4-9-4.8c-0.1,0-0.2,0-0.3-0.1
	c-0.1-0.1-0.2-0.3-0.3-0.4c-1.1-1.1-3.3-1.8-5-2.2c2.1-0.2,4.3-0.4,6.3-0.6c0.6,0,1.2-0.1,1.8-0.2c1.6-0.2,3.1-0.4,4.3-0.6
	c0.2,0,0.5-0.1,0.7-0.2c0.3-0.1,0.5-0.1,0.8-0.2c5.9-1.8,25-7.3,33-6.8c0,0-3.6-5.9-17.3-16.6c-10.2-7.9-29.9-20.6-43.2-40.2
	c-4.7-6.8-8.6-14.5-11-23.1c-9.4-33.3,17.1-41.8,27.1-41.8s32.4,6.8,46.1,9.3c13.7,2.5,39.4,4.6,49.7,11.6
	C486.6,776.1,512.3,795.8,511.6,814.5z"/>
<path class="st0" d="M686.7,816.7l-20,22.1l3.6,8.3c0,0-31.6,12.1-30.2,13.8c1.4,1.7,17.3,3.8,17.3,3.8s-40.5,13.7-54,25
	c-10.5,0.4-19.6,0.5-24.3,0c-0.7-0.1-1.5-0.2-2.2-0.2c43.2-6.9,61-37.8,61-37.8h-9.5l25.1-20.4H648l13.8-16.7l-5.7-4.7l3.8-4.3
	l-5.5-5.9c5.8-1.3,11.5-2.3,17.3-3h0l6.5,5.8l-6.5,4.3l17.8,2.4l-12.6,5.4L686.7,816.7z"/>
<path class="st0" d="M524.2,817.9c-4.5-1.3-8.8-2.5-12.6-3.4c0.7-18.7-25-38.4-35.1-45.1c-10.3-7-36-9.1-49.7-11.6
	c-13.7-2.5-36.2-9.3-46.1-9.3c-10,0-36.5,8.5-27.1,41.8c2.4,8.6,6.3,16.3,11,23.1c-17.6,0.8-26.3-10.4-26.3-10.4s1.1,8.2,1.1,9.3
	s-10.3-2.1-14.8-8.5c-6.7,0.3-16.4-4.9-22.2-8.5c3.4-5.5,9.2-8.2,12-7.3c-7.5-7.6-7.8-27-7.8-27l5.7,10l-1.1-25.5
	c0,0,8.2,4.1,10.3,13.8c2.1-8.2-6.4-27.8-6.4-27.8h19.5c0,0-14.3-13.9-22-19.7c10.7,4.6,28.2,1.8,28.2,1.8s-1.6-0.6-4.6-2.2
	c3.2-1.3,6.5-4.4,8-8.5c2-5.6,0.5-9.8-0.8-12c2.8-0.9,4.2-2.3,4.8-3.9c7.8,0.9,12.9-7,12.4-12.5c22.5,20.4,42.8,42.1,50.3,46.4
	c13.3,7.6,26.1,16.2,73.7,22.3c7.5,4.4,14.4,6.8,20.4,7.9l9.5,12.5h-10.9c0,0,13.3,13.3,16.2,17.6c2.8,4.2-3.5,0.2-3.8,0
	c0.3,0.7,9.5,23.9,8.1,36.1C524,817.6,524.1,817.8,524.2,817.9z"/>
<path class="st0" d="M304.9,339.5c-0.6,2.5-1.3,5.4-2.1,8.3c-1.6,5.6-3.5,11.2-5.3,13.8c-1.6,2.2-4.2,5.5-6.8,8.8
	c-4.3,5.4-8.7,10.7-8.9,11l8.2-4.6c-0.4,0.6-11.7,18.4-18.3,21.5c8.2-0.6,10.8-2.8,11.2-3.1c-0.8,1.1-10.1,14-14.3,17.6
	c6.9,0.5,3,10.9,3,10.9s0.1,23.9-14.8,32c-1.7-0.2-3.2-0.5-4.7-0.8c-12.6-3.2-25.7-9.1-26.2-16.6c-0.5-7.5,6.6-18.9,6.6-18.9
	s4.6-4,10.5-9.8c6.7-6.7,15.1-15.8,20.1-24.1c1.1-1.8,2.5-3.9,4.1-6.1c0,0,0,0,0,0c4.9-7,11.8-15.6,18.4-23.1
	c5.4-6.2,10.6-11.5,14.3-14.5c2.5-2,4.3-3,5-2.4C304.8,339.4,304.8,339.5,304.9,339.5z"/>
<path class="st0" d="M267.1,379.3C267.1,379.3,267.1,379.3,267.1,379.3c-1.6,2.3-3,4.3-4.1,6.2c-5,8.3-13.4,17.4-20.1,24.1
	c-4.1,1.4-11.2,4.1-20.4,8.5c14.8-38.8,49.4-70.2,49.4-70.2C273.1,354.9,269.7,369.4,267.1,379.3z"/>
<path class="st0" d="M304.7,448.4c-3.3,1.3-7,2.4-10.7,3.4c-12.8,3.4-27.1,5.1-37.4,3.9c14.8-8.1,14.8-32,14.8-32s3.9-10.3-3-10.9
	c4.2-3.6,13.5-16.5,14.3-17.6c-0.4,0.4-2.9,2.5-11.2,3.1c6.7-3.1,18-21,18.3-21.5l-8.2,4.6c0.2-0.3,4.6-5.6,8.9-11
	c2.6-3.2,5.2-6.5,6.8-8.8c1.9-2.5,3.8-8.1,5.3-13.8c0.8-2.9,1.5-5.8,2.1-8.3c1,1.3,1.6,6.6,1.6,13.9c0,10.1-1.1,24.1-4.2,36.9
	c-2.1,8.7-5.1,16.8-9.2,22.7c-1.1,9.7-3.6,14.9-3.6,14.9s8.9-2.5,11-1.4c-3.6,5.5-14.8,14.8-14.8,14.8S299.2,441.7,304.7,448.4z"/>
<path class="st0" d="M256.7,455.7c-0.2,0.1-0.5,0.3-0.8,0.4c0,0-17.6,10.8-36.1,18.9c-5.1,2.2-10.2,4.3-15.1,5.8
	c-1.2,0.4-2.5,0.8-3.8,1.2c-20.8,6-51.7,10-64.9,9h0c-1.5-0.1-2.7-0.3-3.7-0.5c0.4-0.5,0.8-1,1.2-1.6c30.6-38.4,66.1-60,89-70.9
	c9.2-4.4,16.3-7.1,20.4-8.5c-5.9,5.8-10.5,9.8-10.5,9.8s-7.1,11.4-6.6,18.9c0.5,7.5,13.5,13.4,26.2,16.6
	C253.4,455.2,255,455.5,256.7,455.7z"/>
<path class="st0" d="M240.2,518.5c-3.6,10.7-6.2,18.2-6.4,23.3c-2.9-0.7-13.7,4.6-20.1,15c-6.4,10.3-22.8,25-25.1,26
	c-2.3,1.1,13.5,0.5,13.5,0.5l-14.3,12.5c0,0,0.5,1.2,11.8-1.1c-1.2,5.9-9.4,13.9-9.9,14.4c0.5-0.3,7.4-4.9,9.9-3
	c-0.1,0.2-0.1,0.4-0.2,0.7c-2.9,8.3-14.7,20.2-21.2,26.2c-4.2,4-6.9,10.2-8.7,16.3c0,0,0,0,0,0c-1,3.3-1.8,6.7-2.4,9.6
	c-7.1-5-5.4-27.8-11.6-26.2c3.9-10.5,4.4-17.5,1.2-17.1c2.3-12.1,14.3-27.8,15.9-30.1c1.6-2.2-5.4,0.7-5.7,0.8
	c0.1-0.4,2.4-9.5,3.9-12.3c1.6-2.8,3.4-9.3-0.4-13.4c11.8-3,24.2-19.4,16.9-21.9c8.7-4.8,4.6-14.3,4.6-14.3s4.5-7.8,0-12.3
	c-0.9-0.9-1.9-1.5-3-1.9c3.6-2.4,7.9-3.5,10.6-2.6c4.1,1.4,17.3,2.9,17.3-8.2c0-8.1-8.4-14-16.2-17.6c1.3-0.4,2.6-0.8,3.8-1.2
	c4.9-1.6,10-3.6,15.1-5.8C233.7,483,243.5,508.7,240.2,518.5z"/>
<path class="st0" d="M217.1,499.6c0,11-13.2,9.6-17.3,8.2c-2.7-1-7.1,0.2-10.6,2.6c-4.3-1.5-9.8,0.6-13.2,1.7
	c-4.3,1.4-27.3-6.1-33.9-12.7c-3.8-3.8-5.4-6.7-6.1-8.4c13.2,1,44.1-3,64.9-9C208.7,485.6,217.1,491.4,217.1,499.6z"/>
<path class="st0" d="M253.4,631c-0.4-2-0.8-4.2-1.2-6.4v0c-2.3-13.4-4.5-29.6-5.2-35.6c-0.7,0-1.5,0-2.3,0
	c-8.2,10-39.5,47.8-52.8,57.9v0c-0.2,4.1-0.3,8.2-0.4,12c9.5-0.4,38.4-3.4,62.4-25.9C253.6,632.3,253.5,631.7,253.4,631z M231,643
	c-6.7,2.2-18.5,5.9-22.3,3c-3.8-3,2.5-13.8,13-22.1c10.5-8.3,21-19.5,22.1-9.3C245,624.7,237.6,640.8,231,643z"/>
<path class="st0" d="M243.8,614.5c-1.2-10.2-11.7,1-22.1,9.3c-10.5,8.3-16.8,19.2-13,22.1c3.8,3,15.7-0.8,22.3-3
	C237.6,640.8,245,624.7,243.8,614.5z M227.2,640c-4.3,1.1-18.3,6.8-10.2-5.2c0,0,14.5-17.6,20.4-14.9
	C243.3,622.6,231.4,638.9,227.2,640z"/>
<path class="st0" d="M271.6,581.4c-1.3-0.1-2.6-0.4-3.8-0.8c1.4-2.6,1.6-5.3-0.3-7.2c3.9-1.3,11.1-2.8,14.2,0.6
	c0.4,0.5,0.7,1,0.8,1.5C283.2,578.7,277.5,581.9,271.6,581.4z"/>
<path class="st0" d="M213.7,602.1c-0.1,3.2-2.6,7.6-6.4,8.3c-0.2-2.1-2-3.3-4.6-3.7c0,0,6.1-9.3,9.4-8c0.2,0.1,0.4,0.2,0.5,0.3
	C213.4,599.7,213.8,600.8,213.7,602.1z"/>
<path class="st0" d="M200.8,619.9c-6.4,5.2-8.3,16-9,26.9v0c-0.2,4.1-0.4,8.2-0.4,12c-0.2,9.7-0.4,17.9-3.2,20.4
	c-2.3-2.5-4.7-5.7-7.1-9.3c-4.5-6.9-8.7-15-11.5-20.6c0,0,0,0,0,0c1.8-6.1,4.4-12.2,8.7-16.3c6.4-6.1,18.2-17.9,21.2-26.2
	c1.2-0.2,2.4-0.2,3.4,0c2.6,0.3,4.4,1.6,4.6,3.7C207.5,612.7,205.8,615.9,200.8,619.9z"/>
<path class="st0" d="M234.2,906.9c-0.6,0-1.2,0-1.8-0.1c-6.9-0.4-10.8-2-10.8-2s1-4.3,4.9-7.8c1.3-1.2,2.9-2.3,4.9-3.1
	c0.2,0.4,0.4,0.8,0.6,1.2C233.4,898.3,234.3,902.2,234.2,906.9z"/>
<path class="st0" d="M334.6,731.4h-19.5c0,0,8.6,19.6,6.4,27.8c-2.1-9.6-10.3-13.8-10.3-13.8l1.1,25.5l-5.7-10c0,0,0.4,19.4,7.8,27
	c-2.8-0.9-8.6,1.8-12,7.3c-0.1,0.2-0.2,0.3-0.3,0.5c-1.2,0.9-5,8.5-10.9,24.4c-5.9,15.9-0.9,50.4-7.8,55.4c-7,5-8.9,14.5-12.3,21.3
	c-3.4,6.8-10.5,6.9-25.3,9.2c-4.4,0.7-8.2,0.9-11.5,0.8c0.1-4.7-0.8-8.6-2.2-11.8c-0.2-0.4-0.4-0.8-0.6-1.2
	c-1.5-2.8-3.4-5.1-5.3-6.8c-0.3-0.2-0.5-0.5-0.8-0.7h0c-3.1-2.5-6.2-3.8-7.4-4.3c0.2-0.2,0.4-0.3,0.6-0.4c0.1-0.1,0.3-0.2,0.5-0.3
	c0.1-0.1,0.3-0.2,0.5-0.3c0.2-0.2,0.5-0.3,0.8-0.4c0.2-0.1,0.5-0.3,0.8-0.4c0.2-0.1,0.5-0.2,0.7-0.3c0.6-0.3,1.2-0.6,1.8-0.8
	c0.3-0.1,0.6-0.2,0.9-0.3c0.5-0.2,0.9-0.3,1.4-0.5c0.3-0.1,0.6-0.2,1-0.3c0.2-0.1,0.5-0.2,0.8-0.2c0.5-0.2,1.1-0.3,1.6-0.4
	c15.7-3.6,18.9-22.8,18.9-22.8s-9.6,13.2,0-23.2c5.4-49.5-3.2-72.2-12.3-84.7c-9.1-12.5-36.1-44.9-45-43.8c0,0-2.9,1.9-6.2,10
	c-1.4-6.7,2.1-23.8,2.1-23.8s-7.8,7.1-8.3,2.6c-0.4-3.2,1.6-15.4,2.6-21.8c2.3,3.6,4.7,6.8,7.1,9.3c2.8-2.5,3-10.7,3.2-20.4
	c9.5-0.4,38.4-3.4,62.4-25.9c-0.1-0.6-0.3-1.3-0.4-1.9c3.4,0,9.6-0.2,14.3-1.3c0.3,0.7,0.7,1.4,1.2,2c0.4,0.5,0.8,0.8,1.3,1
	c1.5,2.7,3.8,6.9,6.6,11.8c0.6,1.4,1.3,2.7,2.2,3.9c0.1,0.2,0.2,0.3,0.4,0.5c1.6,2.7,3.4,5.6,5.3,8.6c0.6,1.4,1.4,2.8,2.5,4l0,0
	c6.5,9.9,13.9,20.2,21.2,27.6c7.5,7.6,14,13,19.1,16.8c-0.1,0.9,0,1.7,0.2,2.5c1.1,3.8,4.7,4.4,8.3,3c3,1.7,4.6,2.2,4.6,2.2
	s-17.5,2.7-28.2-1.8c-1.8-1.4-3.3-2.3-4.1-2.4c1.2,1,2.6,1.8,4.1,2.4C320.3,717.5,334.6,731.4,334.6,731.4z"/>
<path class="st0" d="M231.4,893.9c-2,0.8-3.6,1.9-4.9,3.1c-3.8,3.5-4.9,7.8-4.9,7.8s-9.2,3.6-12.4-1.2c0,0,2-8.9,12.1-15.1
	c1.2-0.7,2.5-1.4,4-2.1h0c0.3,0.2,0.5,0.5,0.8,0.7C228,888.9,229.9,891.1,231.4,893.9z"/>
<path class="st0" d="M225.3,886.4c-1.4,0.7-2.8,1.3-4,2.1c-10.1,6.2-12.1,15.1-12.1,15.1c-5.2-0.1-5.5-4-5.1-6.8
	c1.3-0.2,2.5-1.1,2.6-2c0.1-1,3-6.7,9.3-11.4c0.5-0.4,1-0.8,1.6-1.1c0.1-0.1,0.2-0.2,0.3-0.2h0C219.1,882.6,222.1,883.9,225.3,886.4
	z"/>
<path class="st0" d="M248.1,831.4c-9.6,36.4,0,23.2,0,23.2s-3.2,19.2-18.9,22.8c-0.6,0.1-1.1,0.3-1.6,0.4c-0.2,0.1-0.5,0.1-0.8,0.2
	c-0.3,0.1-0.6,0.2-1,0.3c-0.5,0.2-1,0.3-1.4,0.5c-0.3,0.1-0.6,0.2-0.9,0.3c-0.6,0.2-1.2,0.5-1.8,0.8c-0.2,0.1-0.5,0.2-0.7,0.3
	c-0.3,0.1-0.5,0.3-0.8,0.4c-0.3,0.1-0.5,0.3-0.8,0.4c-0.2,0.1-0.3,0.2-0.5,0.3c-0.2,0.1-0.3,0.2-0.5,0.3c-0.2,0.1-0.4,0.3-0.6,0.4h0
	c-0.4-0.1-0.5-0.2-0.5-0.2l0.2,0.4c-0.6,0.3-1.1,0.7-1.6,1.1l-2.7-2c0,0-0.3-0.3-0.7-0.7c-1.1-1.1-2.9-3.2-2.6-4.2v0
	c-1.9-1.4-2.7-5.4-3-8.1c0.1,0,0.3-0.1,0.5-0.1c8.5-2.4,11.5-20.4,13.8-41.3c2.4-20.9-5.7-71.4-5.7-71.4s-12.4-23.7-14.7-28.5
	c-2.3-4.8-4.8,6.2-6.7,3.3c-1.9-2.8-3.3-27.6-3.3-27.6c8.9-1.1,35.9,31.4,45,43.8C244.9,759.2,253.4,781.9,248.1,831.4z"/>
<path class="st0" d="M209.9,876.6L209.9,876.6c-7.3-0.2-12.1,8.4-12.1,8.4s-0.3,0.3-2.5,0.4c-1.4,0-3.7,0-7.1-0.4
	c2.1-7,10.4-14,18.8-16.5C207.2,871.2,208,875.2,209.9,876.6z"/>
<path class="st0" d="M212.6,880.8c-1.6,1.2-4.6,3.8-7.3,6.4c-5.6,0.8-8.2,4.8-10,2.5c-0.9-1.1-0.6-2.8,0-4.3
	c2.2-0.1,2.5-0.4,2.5-0.4s4.8-8.5,12.1-8.4C209.7,877.6,211.5,879.7,212.6,880.8z"/>
<path class="st0" d="M216,883.5c-6.3,4.8-9.2,10.4-9.3,11.4c-0.1,0.9-1.2,1.8-2.6,2c-1.1,0.1-2.4-0.3-3.4-2
	c-0.9-1.6,1.5-4.7,4.6-7.7c2.6-2.6,5.7-5.1,7.3-6.4c0.4,0.4,0.7,0.7,0.7,0.7L216,883.5z"/>
<path class="st0" d="M425,870.3c-8-0.5-27.1,5-33,6.8c-0.2,0.1-0.5,0.1-0.8,0.2c-0.2,0-0.5,0.1-0.7,0.2c-1.2,0.3-2.7,0.5-4.3,0.6
	c-0.6,0.1-1.2,0.1-1.8,0.2c-2.1,0.2-4.2,0.4-6.3,0.6h0c-0.5,0.1-1,0.1-1.5,0.2c-2,0.3-3.9,0.6-5.4,1c-0.4,0.1-0.8,0.2-1.1,0.4
	c-0.2,0.1-0.3,0.1-0.5,0.2s-0.3,0.1-0.5,0.2c0,0,0,0,0,0c-0.1,0.1-0.3,0.2-0.4,0.2c-0.2,0.1-0.5,0.3-0.7,0.4
	c-0.1,0.1-0.3,0.2-0.4,0.3c-1.7,1.7-3.8,4.6-6,7.7c-5.9,0.5-13.4,1.2-20.9,1.7c4.1-9.3-4.1-14.2-6.8-15.6c-0.1-0.1-0.2-0.1-0.3-0.2
	c0-0.1,0-0.3,0-0.4c-0.6-4.3-7.4-3.9-10.2-4.1c0.6-2-1.6-3.6-3.2-4.4c6-0.4,43.9-5.2,43.9-8.3c0-3.2-6.1-6.6-14.1-14.4
	c-8-7.8-29.6-33.3-29.9-34.2c-0.4-0.9-16.8-14.6-18-13.7c0.1-0.2,0.2-0.3,0.3-0.5c5.8,3.6,15.5,8.8,22.2,8.5
	c4.5,6.4,14.8,9.6,14.8,8.5s-1.1-9.3-1.1-9.3s8.7,11.2,26.3,10.4c13.3,19.6,33,32.3,43.2,40.2C421.5,864.4,425,870.3,425,870.3z"/>
<path class="st0" d="M340.7,891.2c-15,1-29.8,1.4-30.3-0.8c1.5-4.5,10.9-9.7,18.2-13.1c1.9-0.9,3.6-1.6,5-2.2c0,0.1,0,0.3,0,0.4
	c0.1,0,0.2,0.1,0.3,0.2C336.7,877,344.9,881.9,340.7,891.2z"/>
<path class="st0" d="M383.1,881.1c-1.3,0.3-2.5,0.7-3.7,1.1c-4.4,1.6-7.5,4-9.9,6.6c-2,0.2-4.7,0.5-8,0.7c2.2-3.1,4.3-6,6-7.7
	c0.1-0.1,0.2-0.2,0.4-0.3c0.2-0.2,0.4-0.3,0.7-0.4c0.1-0.1,0.3-0.2,0.4-0.2c0,0,0,0,0,0c0.1-0.1,0.3-0.1,0.5-0.2s0.3-0.1,0.5-0.2
	c0.4-0.1,0.7-0.2,1.1-0.4c1.6-0.5,3.4-0.8,5.4-1c0.5-0.1,1-0.1,1.5-0.2h0C379.8,879.2,382.1,879.9,383.1,881.1z"/>
<path class="st0" d="M279.9,629.5C279.9,629.5,279.9,629.5,279.9,629.5c-1.6,1.7-3.8,3-5.9,3.5c-1.3,0.3-2.6,0.3-3.7-0.2
	c-1-1.8-1.6-3-1.8-3.3c-0.3,0.1-0.5,0.1-0.8,0.2c-0.7-1.5-1-3.2-1.1-4.9c-0.2-2.3,0-4.5,0.3-6c3.3,1.1,7.3,0.8,9.5-1
	c1.9,1.7,4.2,4.2,5.3,6.6C282.4,625.9,281.5,627.8,279.9,629.5z"/>
<path class="st0" d="M266.6,624.8c-5.4,1.2-11.7,0.3-14.4-0.2v0c-2.4-13.4-4.5-29.6-5.2-35.6c3.1-0.1,5.4-0.8,5.8-1.3
	c0.1-0.2,0.2-0.6,0.3-1.1c1.5,0.8,3.1,1.1,4.7,1c-0.8,2.4-2.5,8.7-0.1,13.1c0.8,1.5,2.4,2.8,4.3,3.6c-0.7,2.3-1.8,7.1,0.5,11.3
	c0.8,1.5,2.5,2.7,4.5,3.3C266.7,620.3,266.4,622.5,266.6,624.8z"/>
<path class="st0" d="M244.6,588.9c-8.2,10-39.4,47.8-52.8,57.9c0.7-11,2.6-21.7,9-26.9c4.9-4,6.7-7.2,6.5-9.5
	c3.8-0.7,6.2-5.1,6.4-8.3c1.8-0.4,4.8-1.3,8.6-2.1c3.9-0.8,11.6-8.8,13.1-13.7C238.4,588.1,241.7,588.8,244.6,588.9z"/>
<path class="st1" d="M231,643c-6.6,2.2-18.5,5.9-22.3,3c-3.8-3,2.5-13.8,13-22.1c10.5-8.3,21-19.5,22.1-9.3
	C245,624.7,237.6,640.8,231,643z"/>
<path class="st0" d="M227.2,640c-4.3,1.1-18.3,6.8-10.2-5.2c0,0,14.5-17.6,20.4-14.9C243.3,622.6,231.4,638.9,227.2,640z"/>
<path class="st0" d="M267.8,580.6c-1,1.8-2.6,3.6-4.5,4.8c-1.7,1.1-3.7,1.9-5.7,2c-1.6,0.1-3.2-0.2-4.7-1c0.3-2.6-0.3-8.5-4.9-10.2
	c2.9-1.8,13.4-8,19-3.2c0.1,0.1,0.3,0.2,0.4,0.4C269.4,575.3,269.2,578,267.8,580.6z"/>
<path class="st0" d="M253,586.5c-0.1,0.5-0.2,0.9-0.3,1.1c-0.3,0.5-2.6,1.2-5.8,1.3c-0.2-1.6-0.3-2.5-0.3-2.5s-0.7,0.9-2,2.5
	c-2.9-0.2-6.2-0.9-9.2-2.6c0.5-1.6,0.4-2.8-0.7-3.4c1.6-2.3,6.9-8.2,12.3-6.9c0.4,0.1,0.7,0.2,1,0.3
	C252.7,578,253.3,583.9,253,586.5z"/>
<path class="st0" d="M362.8,572.5c-23.2,4.5-44.1,3-44.1,3s-1.2-0.2-3.2-0.5c3.2-1,7-2.2,11-3.6c8.5-3.1,17.6-7.4,22.4-12.3
	c5.8-5.9,11.1-13.4,15.1-17.4v0c3.4-3.4,5.9-4.3,7,0.1C372.5,548.2,370,561.8,362.8,572.5z"/>
<path class="st0" d="M326.4,571.4c-3.9,1.5-7.8,2.7-11,3.6c-6.5-0.9-21.7-2.4-32.9,0.4c-0.1-0.5-0.4-1-0.8-1.5
	c-3.1-3.4-10.3-2-14.2-0.6c-0.1-0.1-0.3-0.2-0.4-0.4c-5.7-4.8-16.2,1.4-19,3.2c-0.3-0.1-0.6-0.2-1-0.3c-5.5-1.3-10.7,4.7-12.3,6.9
	c-0.5-0.3-1.2-0.4-2.1-0.4c-7.7,0.2-17.5,12.3-20.5,16.3c-3.3-1.3-9.4,8-9.4,8c-1-0.2-2.2-0.1-3.4,0c0.1-0.2,0.1-0.5,0.2-0.7
	c-2.6-1.9-9.4,2.7-9.9,3c0.5-0.5,8.7-8.5,9.9-14.4c-11.2,2.3-11.8,1.1-11.8,1.1l14.3-12.5c0,0-15.9,0.5-13.5-0.5
	c2.3-1.1,18.7-15.7,25.1-26c6.4-10.3,17.3-15.7,20.1-15c0.2-5.2,2.9-12.7,6.4-23.3c3.2-9.7-6.5-35.5-20.5-43.5
	c18.6-8.1,36.1-18.9,36.1-18.9c0.3-0.1,0.5-0.3,0.8-0.4c10.2,1.2,24.6-0.5,37.4-3.9c6,3.3,15.4,9.5,20.7,19
	c-9.3-4.9-6.2-1.2-6.2-1.2s5.5,8.7,8.5,17.8c-2.5-4-7.3-6.6-7.6-6.8c0.2,0.5,8.8,16.4,8.2,29.8c-4.2-7.1-5.6-5.1-5.6-5.1
	s5.1,20.1,3.5,31.5c-3-6.4-7-8.8-7-8.8s3.1,17,6.3,20.7c-1.1,0.6-7.1-4.6-4,2.8C313.7,558.6,315.9,567.7,326.4,571.4z"/>
<path class="st0" d="M267.7,629.7c-4.7,1.2-10.9,1.3-14.3,1.3c-0.4-2-0.8-4.2-1.2-6.4c2.8,0.5,9,1.4,14.4,0.2
	C266.7,626.5,267,628.2,267.7,629.7z"/>
<path class="st0" d="M276.9,644.6c-2.9-5-5.2-9.1-6.6-11.8c1.1,0.5,2.4,0.6,3.7,0.2C274.2,635.3,275,640.3,276.9,644.6z"/>
<path class="st0" d="M288.6,646c-1,2.4-3.1,4.3-5.3,4.6c-1.3,0.2-2.7-0.3-3.9-1.6c-0.1-0.1-0.3-0.3-0.4-0.5
	c-0.9-1.2-1.6-2.5-2.2-3.9c-1.9-4.3-2.6-9.3-2.9-11.6c2.1-0.5,4.4-1.9,5.9-3.5c0,0,0,0,0,0c4.1,0.7,6.8,6.3,8.8,10.6
	C289.6,642,289.4,644.2,288.6,646z"/>
<path class="st0" d="M284.7,657.6c-1.9-3-3.6-5.8-5.3-8.6c1.2,1.3,2.5,1.8,3.9,1.6C283.4,652.3,283.6,654.9,284.7,657.6z"/>
<path class="st0" d="M297.5,662.4c-0.9,1.4-2.6,2.2-4.6,2c-1.5-0.1-3.1-0.8-4.6-2c-0.3-0.3-0.6-0.6-0.9-0.9l0,0
	c-0.9-1.3-1.7-2.7-2.5-4c-1.1-2.6-1.4-5.3-1.4-7c2.2-0.3,4.3-2.2,5.3-4.6c1.9,1.6,5,4.8,8,9.6C298.4,658.5,298.5,660.9,297.5,662.4z
	"/>
<path class="st0" d="M305.3,679.3c-0.8,0.2-1.8,0.2-2.9-0.3c-5.1-1.9-8.3-10.4-9.5-14.6c2,0.2,3.8-0.6,4.6-2
	c2.5,1.6,7.5,4.8,9.4,6.7c0.7,0.7,1.2,1.8,1.4,3.1C308.7,675.1,307.9,678.7,305.3,679.3z"/>
<path class="st0" d="M319.2,687.6C319.1,687.6,319.1,687.6,319.2,687.6c-7.6,3.6-12.3-4.6-13.9-8.2c2.6-0.7,3.4-4.3,3-7.1
	c3.9,1,10.4,5.2,12.7,9.1C322.4,683.7,322.3,686.1,319.2,687.6z"/>
<path class="st0" d="M333.5,690.2c-0.3,0.2-0.6,0.4-0.9,0.6c-5.5,3.4-10.7-0.5-13.5-3.2c3.1-1.5,3.2-3.8,1.8-6.3
	c3.6-0.9,9.8,0.4,12.9,2.7C336,685.6,336.6,687.8,333.5,690.2z"/>
<path class="st0" d="M348.1,687.1c-0.6,1.5-2.1,3-4.8,3.9c-0.4,0.1-0.8,0.2-1.2,0.3c-2.4,0.6-4.3,0.7-5.8,0.6
	c-1.6-0.1-2.8-0.5-3.6-1.1c0.3-0.2,0.6-0.4,0.9-0.6c3.1-2.4,2.5-4.6,0.3-6.2c1.6-1.9,5.1-5.1,9.2-4.5c0.6,0.1,1.1,0.3,1.7,0.5
	C347.3,681.2,349.1,684.3,348.1,687.1z"/>
<path class="st0" d="M360.5,674.6c-1.8-1.6-3.6-3.2-5.4-4.9c0.4,0,0.8,0,1.2,0.1C359,670.2,360.3,672.1,360.5,674.6z"/>
<path class="st0" d="M348.1,687.1c1-2.7-0.8-5.8-3.4-7.1c1.1-3.5,4-10.4,10.4-10.3c0,0,0,0,0,0c1.8,1.6,3.6,3.2,5.4,4.9
	C360.9,680,355.8,688,348.1,687.1z"/>
<path class="st0" d="M336.2,691.9c-3.2,3.4-8.1,9.2-8.6,14c-5.2-3.7-11.7-9.1-19.1-16.8c-7.3-7.4-14.7-17.7-21.2-27.6
	c0.3,0.3,0.6,0.6,0.9,0.9c1.5,1.2,3.1,1.9,4.6,2c1.2,4.2,4.4,12.7,9.5,14.6c1.1,0.4,2.1,0.5,2.9,0.3c1.6,3.6,6.4,11.8,13.9,8.3
	c0,0,0,0,0,0c2.7,2.7,8,6.6,13.5,3.2C333.4,691.3,334.6,691.7,336.2,691.9z"/>
<path class="st0" d="M344.1,702.9c-1.5,4.1-4.7,7.2-8,8.5c-3.6,1.5-7.2,0.8-8.3-3c-0.2-0.8-0.3-1.6-0.2-2.5c0.5-4.8,5.4-10.7,8.6-14
	c1.5,0.1,3.4,0,5.8-0.6c0.4-0.1,0.8-0.2,1.2-0.3C344.6,693.1,346.1,697.3,344.1,702.9z"/>
<path class="st1" d="M357.7,616.7c-3.8,2-10.9-1.8-14.3-10c-3.4-8.2-11-18.5-1.6-19.2c9.5-0.6,14.3,4.7,17.1,12.6
	C360.9,605.7,361.4,614.7,357.7,616.7z"/>
<path class="st0" d="M194.4,458.2c0,0,21.2,3,18.4-5C209.9,445.2,194.4,458.2,194.4,458.2z"/>
<path class="st0" d="M333.6,875c-1.4,0.6-3.1,1.4-5,2.2c-7.2,3.4-16.7,8.7-18.2,13.1c-11,0-7.5-2-7.5-2c2.5-6.7,18.3-16.2,20.2-17.4
	l0,0l0.2-0.1l0,0C326.2,871.1,333,870.7,333.6,875z"/>
<path class="st0" d="M323.4,870.9L323.4,870.9c0,0-0.1,0.1-0.2,0.1c-2,1.2-17.8,10.7-20.2,17.4c0,0-2,0.2-4.8-1.6
	c4.5-11.9,14.8-16.6,14.8-16.6s2.5-3.3,6.4-3.7c0.1,0,0.3,0,0.4,0c0.1,0,0.3,0,0.5,0c0,0,0,0,0,0C321.8,867.3,324,868.9,323.4,870.9
	z"/>
</svg>
