<?xml version="1.0" encoding="utf-8"?>
<!-- Generator: Adobe Illustrator 25.2.0, SVG Export Plug-In . SVG Version: 6.00 Build 0)  -->
<svg version="1.1" id="Layer_1" xmlns="http://www.w3.org/2000/svg" xmlns:xlink="http://www.w3.org/1999/xlink" x="0px" y="0px"
	 viewBox="0 0 1000 1000" style="enable-background:new 0 0 1000 1000;" xml:space="preserve">
<style type="text/css">
	.st0{fill:#FFFFFF;stroke:#000000;stroke-miterlimit:10;}
</style>
<path class="st0" d="M563.1,225.4c0-0.2-0.1-0.5-0.1-0.7c-4.3-19.2-27.8-45.6-73.4-44.9c-36.1,0.6-57.7,32.3-63.8,61.7
	c-0.2-0.1-0.3-0.2-0.4-0.2c2.4-40-1.5-85.7-4.2-110.2c1.9-5.1,3.2-8,3.2-8s36-27.1,67.2-27.1c31.2,0,51.1,3.3,75.9,26.6l0.8,2.5
	C565.8,145.9,561.8,188,563.1,225.4z"/>
<path class="st0" d="M587.5,220c0.2,23.1-11.1,72.1-17.3,97.2l-4-1.5l-13.2-3.5c-0.7,0.4-1.5,0.8-2.4,1.3
	c5.2-21.4,11.5-53.6,12.7-73.9c0.1-1.3,0.1-2.6,0.2-3.8c0.1-4.2,0-7.8-0.5-10.4c-1.3-37.4,2.7-79.5,5-100.4
	C577.8,157,587.3,188.9,587.5,220z"/>
<path class="st0" d="M553.1,246.5c-4.8,3.7-11,7.9-15.4,8.6c-8.3,1.4-31.6-25.7-43.3-26.4c-11.7-0.7-33.7,21.6-39.7,22.8
	c-3.3,0.7-7-0.9-9.6-2.5c2,0.3,3.8,0.4,5.4,0.1c9.7-1.7,28.9-27.1,43.3-26.9c14.4,0.2,33.4,26.5,42.5,27
	C541.1,249.7,547.3,249,553.1,246.5z"/>
<path class="st0" d="M526.1,263.8c-8.1,2-17,9.4-20.5,12.5c-0.4-3.3-4-9-10.2-8.5c-6,0.5-9.8,5.5-9.9,9.5c0,0.6,0.1,2.5,0.3,5
	c-3.4-6.3-9.3-11.2-14.1-14.3c-4-2.6-7.1-4-7.1-4c1.3-5.5,8.4-13.7,11.8-17.5c-0.1,1.1,0,1.9,0,1.9s11.9-8.2,19-8.6
	c7-0.4,18.3,7.2,18.7,7.5c0,0-0.1-0.1-0.2-0.3c3.4,2.8,8.6,7.7,11,13.1C525,260.2,525.5,261.5,526.1,263.8z"/>
<path class="st0" d="M528,284.4c-1.4,13-7.3,27.8-7.3,27.8s1.8,6.9,4,11v0c-0.4,3-0.7,6-1,9c-0.3,0.2-0.7,0.5-1,0.7
	c-6.1,1-15,0.3-19.6-0.2l-1.7-1.7c0.1-1.2,0.2-3.1,0.4-5.3c1.2-14.5,3.7-46.3,3.8-48.7c0-0.2,0-0.4,0-0.7
	c3.5-3.2,12.4-10.5,20.5-12.5C527.4,268.2,529,275.9,528,284.4z"/>
<path class="st0" d="M540.5,262c0,0-11.7,31.4-15.7,61.3c-2.2-4.1-4-11-4-11s5.9-14.8,7.3-27.8c0.9-8.5-0.7-16.3-1.9-20.6
	c-0.7-2.3-1.2-3.6-1.2-3.6C530.3,263.2,540.5,262,540.5,262z"/>
<path class="st0" d="M486.4,419.2c-8.8-2-15,5.8-18.6,9c-1.9-0.8-1-9.3-1-9.3s-5,2.1-9,4s-8.1-1-13.4,2.7
	c-5.4,3.7-18.9,14.9-18.9,14.9s-1.5,4.4-1.1,8.8c-0.8,0.7-1.7,1.4-2.7,2.2c-10.1-36.2-19.1-128.3-20.3-140.8
	c9.2-4,17.3-7.5,22.1-9.4c-5-12-18.5-47.9-20.1-82.8c-1.5-32.6,11.5-71.1,17.7-87.5c2.7,24.6,6.6,70.2,4.2,110.2
	c-0.1,1.4-0.2,2.8-0.3,4.1c-0.6,4-1,7.9-1,11.6c0,2.2,0,4.4,0.2,6.6c0.8,9.5,3.4,20.7,6.8,31.7v0c6.4,21.1,18,48.5,22.7,59.2
	c-1.8-1.1-3.3-1.8-4.4-2c-5.8-4.9-15.5-13.5-17.8-12.8c-2.2,0.7-8.9,5.2-5.5,13c-0.5,1.2-0.5,2.8,0.2,4.8c2.8,8,15.6,17.2,15.6,17.2
	l6.1,5.2c2.8,5.2,9.4,10.7,11,12.3c2.1,2.1,21.8,17.3,27.5,21.7C486.2,415.4,486.2,417.2,486.4,419.2z"/>
<path class="st0" d="M563.1,225.4c0-0.2-0.1-0.5-0.1-0.7c-4.3-19.2-27.8-45.6-73.4-44.9c-36.1,0.6-57.7,32.3-63.8,61.7
	c4.4,2.4,12.6,6.5,19.4,7.6c0,0,0,0,0,0c2,0.3,3.8,0.4,5.4,0.1c9.7-1.7,28.9-27.1,43.3-26.9c14.4,0.2,33.4,26.5,42.5,27
	c4.8,0.3,11-0.4,16.8-2.8c0,0,0,0,0,0c3.8-1.6,7.4-3.8,10.3-7c0.1-1.3,0.1-2.6,0.2-3.8C563.4,232.4,563.2,228.9,563.1,225.4z
	 M450.9,221.5c0,0,3.7-3.8,11.1-3.8c7.4,0,12.1,5.5,12.1,5.5C457.8,229.6,450.9,221.5,450.9,221.5z M518.4,223c0,0,8.2-9.3,20.4-0.7
	C531.3,226.1,521.8,225,518.4,223z"/>
<path class="st0" d="M489,342.6V378c-6.7-4.6-14.5-9.8-17.4-11.1c-4.1-1.9-12.4-8.9-18-12.3c-4.6-10.7-16.2-38.1-22.7-59.2
	c3.4,2,8,5.1,12.6,8.7c4,3.1,7.9,6.7,10.9,10.5c0.8,1,1.7,2,2.5,3.1c9.7,11.6,23.1,25.2,23.1,25.2S484.1,342.7,489,342.6z"/>
<path class="st0" d="M514.1,247.4c-0.4-0.3-11.7-7.8-18.7-7.5c-7.1,0.4-19,8.6-19,8.6s0-0.8,0-1.9c0.1-1.9,0.5-4.9,1.7-6.7
	c2-2.9,7-8.5,15.6-8.6c8,0,18.6,13.6,20.1,15.8v0C514.1,247.2,514.1,247.3,514.1,247.4z"/>
<path class="st0" d="M501.5,331c0,0.7-0.1,1.2-0.1,1.5c0,0.2,0,0.4,0,0.4h-10.7c0,0-0.1-0.7-0.2-2c2-2.1,5.2-5.6,5.2-5.6L501.5,331z
	"/>
<path class="st0" d="M501.9,325.7c-0.2,2.2-0.3,4-0.4,5.3l-5.9-5.8c0,0-3.2,3.5-5.2,5.6c-0.1-0.6-0.1-1.4-0.2-2.4
	c-0.1-0.9-0.2-1.9-0.3-3.1c1.9-2.1,4.3-4.8,4.3-4.8l-0.3-42.2c0,0-3.2-1.5-2.8-4.1c0.4-2.6,2.3-3.3,5-3.3c2.8-0.1,3.5,2.7,3.5,3.7
	s-1.4,3.2-2.4,3.5c-0.2,1.2-0.1,42.4-0.1,42.4L501.9,325.7z"/>
<path class="st0" d="M502.2,385.7c-0.9,0-1.7,0-2.3,0c0,0,0,0,0,0c-0.1-0.1-0.2-0.1-0.3-0.2c0,0-0.1-0.1-0.1-0.1
	c-1.5-1.1-5.7-4.1-10.4-7.3v-35.3c4.1-0.1,8.9-0.1,12.7-0.1L502.2,385.7z"/>
<path class="st0" d="M563.4,239.5c-1.2,20.4-7.5,52.6-12.7,73.9c-7.3,4.2-18.1,12.2-26.9,18.7c0.2-3,0.5-5.9,1-9v0
	c4-29.9,15.7-61.3,15.7-61.3s-10.2,1.2-15.6-1.8c-2.4-5.3-7.6-10.2-11-13.1v0c-1.6-2.1-12.1-15.8-20.1-15.8
	c-8.7,0-13.7,5.7-15.6,8.6c-1.2,1.8-1.6,4.8-1.7,6.7c-3.5,3.8-10.5,12-11.8,17.5c-3.6,1-12.8,0.8-17.1,5.8
	c-4.1,4.8-7.4,19.7-3.9,34.2c-4.6-3.6-9.3-6.7-12.6-8.7v0c-3.4-11-6-22.2-6.8-31.7c-0.2-2.1-0.2-4.3-0.2-6.6c0.4-3.8,0.8-7.7,1-11.6
	c0.2-1.3,0.5-2.6,0.7-3.9c4.4,2.4,12.6,6.5,19.4,7.6c0,0,0,0,0,0c2.7,1.6,6.4,3.1,9.6,2.5c5.9-1.2,28-23.5,39.7-22.8
	c11.7,0.7,35,27.8,43.3,26.4c4.4-0.8,10.6-4.9,15.4-8.6c0,0,0,0,0,0C556.8,245,560.5,242.7,563.4,239.5z"/>
<path class="st0" d="M487.2,298c-10,0.7-20.7-11.4-23.8-15.2c-0.5-0.7-0.9-1.1-0.9-1.1s3-8.4,9.1-13.7c4.8,3.1,10.7,8,14.1,14.3
	C486.1,286.3,486.6,291.9,487.2,298z"/>
<path class="st0" d="M488.6,312.6c-9.6,0.3-21-8.6-26.5-13.6c0.1-7,0.9-13.2,1.4-16.1c3.1,3.8,13.8,15.9,23.8,15.2
	C487.6,302.8,488.1,307.8,488.6,312.6z"/>
<path class="st0" d="M489.3,319.6c-10.5,2-24.6-11.5-27.1-14.1v0c-0.1-2.2-0.2-4.4-0.1-6.5c5.5,5,16.9,13.9,26.5,13.6
	C488.8,315,489.1,317.4,489.3,319.6z"/>
<path class="st0" d="M490.2,328.5c-8.3,2.1-23.5-11.6-26.9-14.8c0,0-0.1,0-0.1-0.1c-0.5-2.6-0.8-5.3-1-8.1
	c2.6,2.6,16.6,16.1,27.1,14.1c0.2,2.1,0.4,4.1,0.6,5.8C490,326.5,490.1,327.6,490.2,328.5z"/>
<path class="st0" d="M462.5,281.8c0,0,0.3,0.4,0.9,1.1c-0.5,2.9-1.3,9.1-1.4,16.1c0,2.1,0,4.3,0.1,6.5v0c0.2,2.7,0.5,5.5,1,8.1
	c0,0,0.1,0.1,0.1,0.1l-6.2,4c-0.9-1-1.7-2.1-2.5-3.1c-3-3.8-7-7.4-10.9-10.5c-3.4-14.5-0.1-29.5,3.9-34.2c4.3-5,13.5-4.8,17.1-5.8
	c0,0,3.1,1.4,7.1,4C465.6,273.3,462.5,281.8,462.5,281.8z"/>
<path class="st0" d="M522.8,332.9c-7.7,5.7-13.6,10.2-14.1,9.9c-0.4-0.2-3.2-0.3-7-0.3c-3.8,0-8.6,0.1-12.7,0.1
	c-4.9,0.1-8.8,0.2-8.8,0.2s-13.4-13.6-23.1-25.2l6.2-4c3.4,3.2,18.6,16.9,26.9,14.8c0.1,0.9,0.2,1.7,0.2,2.4c0.1,1.3,0.2,2,0.2,2
	h10.7c0,0,0-0.1,0-0.4c0.5,0.1,1.1,0.1,1.8,0.2C507.9,333.2,516.7,334,522.8,332.9z"/>
<path class="st0" d="M574.3,382.7c4,6.5-1,21-3.6,28.2c-1.5-1.9-3-3.5-4.5-4.4c-6.6-3.9-14.8-2-23.5-3.3c-2.6-0.4-5.9-1.7-9.3-3.5
	c-1.6-0.8-3.3-1.8-4.9-2.7c5.7-5.7,15.7-15.9,16.3-17.2c-6.2-5.9,0-15.4,3.7-13.8c1.2-5.1,11.9-25.3,19.2-38.5c0,0,0,0,0,0
	c2.2-4,4-7.3,5.2-9.4l18.3,7c0,0,0.2,0,0.5,0.1C589.8,335.4,582.5,373.5,574.3,382.7z"/>
<path class="st0" d="M581.2,429.3l-7.8,8.5c0,0-33.8-17.4-37.4-28c-1.5-4.3-2.2-7.6-2.5-10c3.4,1.8,6.7,3.1,9.3,3.5
	c8.7,1.2,16.9-0.6,23.5,3.3c1.4,0.9,3,2.4,4.5,4.4C576,417.8,581.2,429.3,581.2,429.3z"/>
<path class="st0" d="M610.7,449.8c-14.7-1.5-37.4-12-37.4-12l7.8-8.5c0,0,4.1,0.3,9.2,1.7c7.1,1.9,16.2,5.8,19.1,13.5
	C610.2,446.4,610.6,448.2,610.7,449.8C610.7,449.8,610.7,449.8,610.7,449.8z"/>
<path class="st0" d="M618.3,332c-2.2,9.9-9.4,41.5-16,53.6c-1,10.5-7.3,34.1-12,45.4c-5.1-1.4-9.2-1.7-9.2-1.7s-5.1-11.5-10.5-18.4
	c2.6-7.2,7.6-21.7,3.6-28.2c8.2-9.2,15.6-47.4,17.4-57.4C594,325.9,604.2,328.5,618.3,332z"/>
<path class="st0" d="M648.3,339.6c-4.7,11.9-26.2,68-28.4,114.2l-9.1-4l-0.1-0.1c-0.1-1.6-0.5-3.4-1.2-5.3
	c-2.9-7.7-12-11.6-19.1-13.5c4.7-11.3,11-34.9,12-45.4c6.6-12.1,13.8-43.7,16-53.6C627.1,334.2,637.4,336.9,648.3,339.6z"/>
<path class="st0" d="M679.4,347.6c-5,13.4-31.4,84.6-37.1,116.1l-22.4-9.9c2.2-46.2,23.7-102.3,28.4-114.2
	C658.4,342.2,669,344.9,679.4,347.6z"/>
<path class="st0" d="M800.7,656.2c-11.9-0.5-61.3,3.8-83.2-5.7c-18.2-7.9-44-28.3-71.8-60.5c9.4,0.1,39.5,1,52,8.2
	c15,8.5,12.8,23.5,12.8,23.5s21-3.6,28.2,3.2c9.6-6.1,21-4.6,21-4.6l5.3-27.8l-0.7-3.4c2.5-1.3,5-4.7,7.1-8.7l14.6,8.1
	c0,0-1,3.3,2.6,6c3.6,2.6,10.9,0.7,12.6-2.4c1.7-3.1-1.2-11.9-5-12.6c-3.8-0.7-7.8-1-7.8-1l-13-7.5c1.2-3.7,2-7.1,2.2-9.5
	c0.2-2.8-9.5-9.8-23.1-18.2l-1.7-7.9c0.8,0.4,1.5,0.7,2.3,1.1c-0.3-3.2-0.7-6.4-1.2-9.4l44.6,24.4c0,0,0.9,5.5,3.9,7
	c3,1.4,8,0.9,8-3c0-3.9-0.2-8.2-5.2-9.3s-6.2,1.1-6.2,1.1L753,521.7v0c-0.3-1.3-0.5-2.5-0.8-3.6c7.2,3.9,36.9,19.7,43.3,21.8
	c7.4,2.3,14.5,3.4,17.6,11.2v0c2.6,11.1,4.8,22.8,6.7,34.9C836.4,636.3,812.6,656.7,800.7,656.2z"/>
<path class="st0" d="M745.6,365.1c-16.2,10.6-44.9,38.9-62.9,111c-13.8-5.7-26.9-10-36.4-10.7c0,0,0,0,0,0l-3.9-1.7
	c5.7-31.5,32.1-102.7,37.1-116.1C710.3,355.5,739,363,745.6,365.1z"/>
<path class="st0" d="M777.6,453.5l-12.3,13.8c0,0-12.8,0.2-28.8,0c-13.4-0.2-32.4,11.8-38.2,15.7h0c-5.2-2.4-10.5-4.8-15.7-6.9
	c18-72.1,46.8-100.4,62.9-111c0.2,0.1,0.3,0.1,0.5,0.2c0,0,13.8,10.6,0,39.6C752.4,411.4,764.7,428.2,777.6,453.5z"/>
<path class="st0" d="M673.1,500c-14.3-5.8-41-10.1-41-10.1s14.7,20.7,29.5,34.3c-4.7,7.8-20.8,34.2-31.3,47.2
	c-0.9,1.2-1.8,2.2-2.7,3.1c0.1-0.2,0.8-1.7,1.8-4.2c4.1-9.8,12.9-33.7,5.5-41.6c-6.6-7-23.2,4.8-32.4,12.5c-4,3.3-6.6,5.8-6.6,5.8
	l-30.5-27.3l0,0c0,0,12.8-6.7,25.9-32.1c11.2-21.7,20.1-28.2,19.3-37.9c0,0,0.1,0,0.1,0l9.1,4l22.4,9.9l3.9,1.7
	c-1.1-0.1-2.1-0.1-3-0.1c0,0,51.7,42.7,109.6,70.2l1.7,7.9C726.7,526.4,682.7,503.9,673.1,500z"/>
<path class="st0" d="M755.1,536.6c-0.8-0.4-1.6-0.7-2.3-1.1c-57.9-27.5-109.6-70.2-109.6-70.2c1,0,2,0,3,0.1c0,0,0,0,0,0
	c9.5,0.7,22.6,5,36.4,10.7c5.2,2.1,10.5,4.5,15.7,6.9h0c11,5.1,21.7,10.6,30.5,15.2c12.6,6.7,21.2,11.7,21.2,11.7s1,3.2,2.1,8.2
	c0.2,1.1,0.5,2.3,0.8,3.6v0c0.3,1.7,0.7,3.6,1,5.5v0C754.4,530.2,754.8,533.4,755.1,536.6z"/>
<path class="st0" d="M775.3,571.1l-11.9-6.8c0.1,0.3,2.8,6.3,1.2,12.3l6.8,3.8v0c-2.1,4-4.6,7.4-7.1,8.7c-1.1,0.6-2.1,0.8-3.2,0.5
	c-6.5-1.5-56.8-35.8-81-51.9c-3.6-2.4-6.6-4.4-8.8-5.8c-3.1-2-6.5-4.7-9.8-7.8c-14.7-13.6-29.5-34.3-29.5-34.3s26.7,4.3,41,10.1
	c9.6,3.9,53.6,26.4,81.4,43.4c13.6,8.3,23.3,15.3,23.1,18.2C777.3,564,776.5,567.4,775.3,571.1z"/>
<path class="st0" d="M801.2,592.1c-1.7,3.1-9,5-12.6,2.4c-3.6-2.6-2.6-6-2.6-6l-14.6-8.1v0l-6.8-3.8c1.6-6-1-12-1.2-12.3l11.9,6.8
	l13,7.5c0,0,4,0.2,7.8,1C800,580.2,802.9,589,801.2,592.1z"/>
<path class="st0" d="M810.5,555.5c0,3.9-5,4.5-8,3c-3-1.4-3.9-7-3.9-7l-44.6-24.4v0c-0.3-1.9-0.7-3.8-1-5.5l46.2,25.6
	c0,0,1.2-2.1,6.2-1.1S810.5,551.6,810.5,555.5z"/>
<path class="st0" d="M832.6,560.5c-2.6,16.2-5,19.9-13.3,22.3c0,0-3.1-23.9-6.2-31.7v0c-3.1-7.8-10.2-8.8-17.6-11.2
	c-6.5-2-36.1-17.9-43.3-21.8c-1.1-4.9-2.1-8.2-2.1-8.2s-8.6-5-21.2-11.7l-5.4-13.1l9.7-12.4c0,0,28.2-7.5,58.2,10.7
	c8.2,5,16.6,11.9,24.5,21.5v0c0.1,1.3,0.2,2.5,0.3,3.8c-6.7-7.8-14.3-13.9-22.1-18.5c-25.9-15.5-53.3-15.7-53.3-15.7l-5.9,7.4
	l7.6,21.1l35.1,19.5c0,0,14.8,0.3,29.9,7c9.3,4.1,18.8,10.7,24.9,21.2v0C833,553.9,833.1,557.2,832.6,560.5z"/>
<path class="st0" d="M816,505c-8-9.6-16.3-16.5-24.5-21.5c-30-18.2-58.2-10.7-58.2-10.7l-9.7,12.4l5.4,13.1
	c-8.8-4.6-19.5-10.1-30.5-15.2c5.8-3.9,24.8-15.9,38.2-15.7c15.9,0.2,28.8,0,28.8,0l12.3-13.8l2.3-2.6c0,0,20.3,6.4,29.3,21.1
	C815.5,482.3,815.4,494.9,816,505z"/>
<path class="st0" d="M832.4,550.6c-6.2-10.5-15.6-17-24.9-21.2c-15.1-6.7-29.9-7-29.9-7L742.5,503l-7.6-21.1l5.9-7.4
	c0,0,27.4,0.2,53.3,15.7c7.8,4.7,15.4,10.7,22.1,18.5v0c0.3,3,0.7,5.6,1.6,7.8C820.9,524.5,830.1,537.5,832.4,550.6z"/>
<path class="st0" d="M421.7,451.5c-2.6,2.1-5.8,4.5-9,6.9l-0.5-2.9l-7.6,6.6c0,0-21.7-68.2-21.2-76.5c-2.4-5.4-9.9-47.6-12.2-60.8
	c9.4-4.8,20.3-9.8,30.1-14.1C402.6,323.1,411.6,415.3,421.7,451.5z"/>
<path class="st0" d="M401.3,465.1l0.2,1.4c-2.1,1.5-4.1,2.9-6,4.2c-3.7-3.8-6.5-5-7.9-5.4c0-0.5,0.1-1,0.2-1.5c0,0-9.5,4.4-20.7,9.1
	c-3.6-33.7-25.2-119.2-28.7-132.8c4.7-1.5,9.5-2.9,14-4.2c3.9-3.1,10.8-7,19-11.1c2.3,13.2,9.8,55.5,12.2,60.8
	c-0.5,8.3,21.2,76.5,21.2,76.5L401.3,465.1z"/>
<path class="st0" d="M350.9,479.5c-7.9,3-14.6,5.3-17.5,5.4c-1.8,0.1-4.8,0.6-8.4,1.5c-3.7-10.3-15.6-42.2-32-77.3
	c-13.6-29.2-26.7-40.8-33.6-45.2c5.3-0.8,10-1.3,12-1.2c3.2,0.1,16.3-4.6,26.9-8.7C306.3,372.6,338.1,446.4,350.9,479.5z"/>
<path class="st0" d="M367,472.9c-4.9,2.1-10.2,4.3-15.1,6.2c-0.4,0.1-0.7,0.3-1,0.4c-12.8-33.1-44.6-106.9-52.6-125.5
	c8-3.1,14.6-5.8,14.6-5.8s12.1-4,25.4-8.1C341.8,353.7,363.4,439.2,367,472.9z"/>
<path class="st0" d="M324.9,486.4c-4.7,1.2-10.6,2.9-16.7,4.8c-4-9.6-43.4-104.3-56.7-113.8c-6.4-4.6-11.4-6.2-15-6.6v0
	c0.5-2.8,12.7-5.5,22.7-7c6.9,4.4,20,16,33.6,45.2C309.3,444.2,321.2,476.1,324.9,486.4z"/>
<path class="st0" d="M308.3,491.3c-0.5,0.2-1.1,0.4-1.6,0.5c-5-10.8-33.1-70.5-44.4-86.5c-12.4-17.6-19.7-17.8-19.7-17.8
	s-1.5,0.1-3.4,1c-1.3-6.2-2.9-14.9-2.5-17.5c3.5,0.3,8.5,2,15,6.6C264.9,387,304.3,481.7,308.3,491.3z"/>
<path class="st0" d="M306.6,491.8c-0.2,0-0.4,0.1-0.5,0.2c-4.8-4.8-13.5-7.6-16.9-11.5c-3.7-4.3-31.7-58.5-41.7-72.9
	c-1.1-1.6-2.2-3-3.3-4.2h0c-4.5-5-8.8-7-11.9-7.7c1.8-4.1,4.6-6.2,6.8-7.2v0c1.9-0.9,3.4-1,3.4-1s7.4,0.2,19.7,17.8
	C273.5,421.3,301.6,481,306.6,491.8z"/>
<path class="st0" d="M244.2,403.4c-5.2,4.8-13,14.9-17.2,20.6c1-8.5,2.6-19.2,4.4-25.6c0.3-1,0.6-1.9,1-2.8
	C235.5,396.5,239.8,398.5,244.2,403.4z"/>
<path class="st0" d="M306.1,492c-11.6,3.8-23.5,8.1-29.3,10.8l-10-9.3v-5.7c0,0-22.9-28-47.9-12.5c0.2-4.8,5.2-47.2,5.2-47.2
	s1.2-1.6,3-4.1l0,0c4.2-5.7,12-15.9,17.2-20.6h0c1.1,1.2,2.2,2.6,3.3,4.2c10,14.4,38,68.6,41.7,72.9
	C292.6,484.4,301.3,487.2,306.1,492z"/>
<path class="st0" d="M388.5,561.6c-3.2,3.4-6.6,6.9-10,10.4c0,0,0,0,0,0c-11.7,12.1-24.2,24.7-35.1,35.1c-8.4,8-15.8,14.6-21.3,18.7
	c-26.1,19.5-71.9,33.2-84.2,33.9c-12.3,0.7-41,1.4-50.1,0c-9.1-1.4-15.7-9.8-17.5-14.2c-1.8-4.5-4.8-26.9-6.4-31.5
	c-1.6-4.5,2.6-10.8,5.6-27.6c0.2,0.1,0.3,0.2,0.5,0.2c0-1.3,0.2-3,0.5-4.9c0,0,0,0,0-0.1c1.3-4.7,4.1-11.5,7.6-19.6c0,0,0,0,0,0
	c7.5-10.5,26.1-4,26.1-4l-8.8,13.5c0,0,24.5-5.4,45.7-22.5c0.6,2.3,1.1,3.8,1.1,3.8s0.4-0.2,1.3-0.7c0.2,1.1,0.7,2.5,1.4,3.8l-1,0.5
	c-5.8,3.2-11,6.1-15.2,8.4c-5.7,3.1-9.3,5.2-9.3,5.2s0.3,3.8,0.8,8.8c-4.5,2.7-12.4,7.3-17,8.8c-4-1.4-12.8,1.9-14,6.7
	c-1.2,4.8,0.2,14.7,8.3,11.9s8.8-8.1,8.8-8.1l15.3-8c0.9,6,2.1,11.7,3.5,13.8c0,0,11.1-5.6,26.9-14.3c0.9,5.2,4.1,20.5,9,25.5
	c5.9,6.1,11,7.5,11.2,11c0.2,3.6,4.3,8.2,4.6,8.7c0.4,0.5,37.2-17.1,38.3-22.6c-4.8-7.1-8.9-22.5-7-25.1s20.5,17.5,20.5,17.5
	s26.9-13.9,33.1-23.3c-1.6-9.6-9.3-30.1-4.3-34.4C362.2,542.7,379,559.2,388.5,561.6z"/>
<path class="st0" d="M432.1,534.1c-0.1,0.1-0.1,0.2-0.2,0.2c-5.7,6.2-32.1,26.8-40.9,27.6c-0.8,0.1-1.6,0-2.5-0.3
	c-9.6-2.4-26.3-19-30.9-15.1c-5,4.3,2.7,24.8,4.3,34.4c-6.2,9.5-33.1,23.3-33.1,23.3s-18.5-20.1-20.5-17.5s2.1,18,7,25.1
	c-1.1,5.5-38,23.2-38.3,22.6c-0.4-0.5-4.5-5.2-4.6-8.7c-0.2-3.6-5.4-5-11.2-11c-4.9-5-8-20.3-9-25.5c36-19.8,96.2-55.9,104.8-79.4
	c-21.5,1.6-45.6,10.8-65.9,21.1c-9.2,4.7-24.9,13.1-39.3,21l-6.8,3.7c-0.7-1.3-1.1-2.7-1.4-3.8c4.1-2.3,18.3-10.4,50.2-28.7
	c29.7-17,49.4-35.4,57.2-43.2c0.3-0.3,0.6-0.6,0.9-0.9c4.9-1.9,10.2-4.1,15.1-6.2c11.2-4.8,20.7-9.1,20.7-9.1
	c-0.1,0.5-0.1,1-0.2,1.5c-0.4,3.5-0.2,7,0.5,10.5c4.6,26.4,33,51.2,33,51.2S425.9,531.9,432.1,534.1z"/>
<path class="st0" d="M378.5,572.1c-1.5,4.6-3.6,10.8-5.8,17.3c-3.6,10.5-7.7,21.9-10.8,29.3c-6.8-1.7-12.4-2.9-15.9-3.6
	c-1-3.2-1.9-5.9-2.5-8C354.3,596.8,366.8,584.2,378.5,572.1z"/>
<path class="st0" d="M492.4,608c-2.6,1.3-5.3,2.5-8.1,3.6c-1.6-16.8-3.5-33.2-5.2-48c3.7-1.4,7.2-2.9,10.4-4.4h0.8
	C490.9,574.6,491.7,591.4,492.4,608z"/>
<path class="st0" d="M494.1,654.2L494.1,654.2c-1.9,0.7-4,1.2-6.3,1.8c-0.9-14.4-2.2-29.5-3.6-44.3c2.8-1.1,5.5-2.3,8.1-3.6
	C493,624.1,493.6,640,494.1,654.2z"/>
<path class="st0" d="M495.2,695.4l-0.2,9.3c-2,0-4,0.2-5.9,0.4c0.5-13.8-0.1-30.9-1.2-49.1c2.3-0.5,4.4-1.1,6.3-1.8
	C494.7,671.1,495.1,685.7,495.2,695.4z"/>
<path class="st0" d="M499.7,704.8c-1.5-0.1-3-0.2-4.5-0.2c0.1-2.2,0.1-5.3,0.1-9.3l1-42c1.5-0.6,2.7-1.2,3.8-1.9
	c0.5,0.2,1,0.3,1.5,0.5C500.3,671.5,499.5,689.8,499.7,704.8z"/>
<path class="st0" d="M482.7,706.5c-4.9,1.5-9.4,4-13,7.7c-22.3-26.7-52.8-44.7-76.4-55.7c2-8.9,1.6-17.5-5.1-13.9
	c-2.1,1.1-5,4-8.4,8.1c-13.7-5.5-22.8-8.1-22.8-8.1c-3.6-7.1-8-20-11-29.5c3.5,0.7,9.1,1.8,15.9,3.6c8.5,2.2,18.8,5.2,29.1,9.2
	c0,0,0,0,0,0c8.1,3.1,16.2,6.9,23.4,11.3c10.2,6.2,20.7,13.2,30.5,21.2C460.8,673.3,474.9,688.6,482.7,706.5z"/>
<path class="st0" d="M374.2,705.2C374.2,705.2,374.2,705.2,374.2,705.2c-3.5,6-7.2,12.5-10.6,18.4c1.3-6.3,4.2-14.3,7.7-22.1
	C372.2,702.7,373.2,704,374.2,705.2z"/>
<path class="st0" d="M673.3,986.8c-6.9,0.8-82.1,9.9-94.5,9.2c-9-0.5-60.3-7.7-100.1-11.2c-15.5-59.3,12.7-186.8,17.4-206.7
	c10.1,0.3,20.7-1.7,27.1-7.9l0,0c6.3-0.5,21.2-1.8,39-4.1c0,0-49,74.5-39.5,157.7c16.7,7,41.5,3.7,67.9-5.3
	c16,16.5,46.6,43.5,82.6,51.7L673.3,986.8z"/>
<path class="st0" d="M478.7,984.8c-18.2-1.6-34-2.5-42.2-1.6c-6.1,0.7-11.5,1-16.1,1.3c-5.2-91.2,22.9-209.1,22.9-209.1
	c-1-3.9-2.1-7.7-3.3-11.4c11.2,1,21.2,1.9,28.5,2.5c1,1.8,2,3.2,3,4.3c3.5,3.8,13.8,7,24.8,7.3C491.4,798.1,463.2,925.5,478.7,984.8
	z"/>
<path class="st0" d="M420.3,984.5c-15.5,0.7-24.1-0.7-32.3-1.3c-10.7-0.7-74.4,0-74.4,0c2.4-7.1,7.6-43.7,7.6-43.7s-12.4,0.5-19,0
	c0,0,53.1-27.6,92.1-87.9c32.1-49.6,42-72.5,44.5-79c1.5,1.1,3,2,4.4,2.9C443.2,775.4,415.1,893.2,420.3,984.5z"/>
<path class="st0" d="M438.8,772.5c-2.5,6.5-12.4,29.4-44.5,79c-39,60.4-92.1,87.9-92.1,87.9c-6.7-0.5,1-19,1-19
	c2.8-4.2,64.7-51.6,122.8-157.7c0.3,0,0.5,0,0.8,0.1C431,766.6,435,769.9,438.8,772.5z"/>
<path class="st0" d="M359.5,730.8c-4.8,8.4-8.5,14.9-9.5,16.3c-1.4,1.9-5.8,4.7-10.9,8.3c-3.3,2.3-6.9,5.1-10.2,8.2
	c0.7-3,1.4-6,2.1-8.8c2.3-9.2,4.5-16.7,5.8-18.5c3-4.5,2.5-13.4,5.7-27.5c0.2-0.8,0.4-1.6,0.6-2.5c0,0,0,0,0-0.1
	C347.3,712.9,353,721.6,359.5,730.8z"/>
<path class="st0" d="M379.8,652.7c-2.7,3.1-5.6,7-8.6,11.1c-3.3-2.8-5.3-4.2-5.3-4.2c-1.3,0.6-2.5,1.3-3.6,1.9l-7-7.5
	c0.8-3.8,1.4-7,1.7-9.3C357,644.6,366.1,647.1,379.8,652.7z"/>
<path class="st0" d="M490.2,559.2h-0.8c-3.2,1.5-6.7,3-10.4,4.4c-3-25.2-5.9-45.5-7.1-54.1c1-0.5,1.9-1,2.9-1.5
	c5.9-3.2,10.4-6.8,11.5-10.3c0.4,0.1,0.8,0.2,1.1,0.2C487.6,503.1,488.8,528.1,490.2,559.2z"/>
<path class="st0" d="M499.9,499.7l-1.5,59.6l-1.1,46.9l-1.1,47.2l-1,42c-0.1-9.7-0.5-24.3-1-41.2v0c-0.5-14.2-1.1-30.1-1.8-46.2
	c-0.7-16.6-1.4-33.5-2.1-48.8c-1.4-31.1-2.6-56.1-2.9-61.2c4,0.9,6,1.9,9.7,1.9C497.9,499.9,498.8,499.8,499.9,499.7z"/>
<path class="st0" d="M629.5,570.3c-0.3-0.3-0.5-0.7-0.8-1.1c-9.2-12-18.1-21-26.1-28c9.3-7.7,25.8-19.5,32.4-12.5
	C642.4,536.6,633.6,560.6,629.5,570.3z"/>
<path class="st0" d="M645.6,590.1l-1.4,5.2c-39.3-5-121.1-31-134.8-35.4c3.2-31,6.2-55.9,7.2-63.8c9.6-2.2,12.2-3,13.6-9.5
	c1.7,8.3,17.6,17.1,17.6,17.1s12.4-0.7,15.5,4c3.1,4.8,2.1,12.1,2.1,12.1l0,0l30.5,27.3c0,0,2.6-2.5,6.6-5.8c8,6.9,16.9,16,26.1,28
	c0.3,0.4,0.6,0.7,0.8,1.1c-1,2.5-1.8,4-1.8,4.2c0,0,0,0,0,0l15.2,15.5C642.8,590.1,643.8,590.1,645.6,590.1z"/>
<path class="st0" d="M644.2,595.2l-9,33.7c-25,0.6-98.8-10.7-130.4-20.2c1.5-16.9,3.1-33.6,4.7-48.8
	C523.1,564.3,604.9,590.2,644.2,595.2z"/>
<path class="st0" d="M635.2,628.9l-1.8,6.8c-17.5,3.8-41.2,17.1-63.2,31.6c-26-1.8-54.7-10.8-68.6-15.3c0.9-14.1,2-28.8,3.3-43.3
	C536.4,618.2,610.1,629.5,635.2,628.9z"/>
<path class="st0" d="M633.3,635.7l-5.4,20.1c-0.6,0.4-1.2,0.9-1.9,1.4c-0.1,0-0.1,0.1-0.2,0.1c-52.2,15.9-98.3,58.5-98.3,58.5
	c-2.7-3-7.3-5.8-12.9-7.8c9.3-7.5,31.4-24.8,55.5-40.7C592.1,652.8,615.8,639.5,633.3,635.7z"/>
<path class="st0" d="M646.8,748c-4.3,1.7-9.1,3.3-14.2,4.8c0,0,0,0,0,0c-5.4-5-8.7-7.2-8.7-7.2s-5,4.2-12.4,12.4
	c-16.4,3.5-34,6.2-49.4,8.1c-17.8,2.3-32.6,3.6-39,4.1c1.1-1,2-2.2,2.8-3.5c10.9-17.1,10.9-40.4,1.5-50.9c0,0,46.2-42.6,98.3-58.5
	c-5.7,4.3-14.2,11.8-26.4,24.9c-27.6,29.5-47.5,82.2-47.5,82.2c32.3-23.4,63.4-58.5,81.2-80.3C636.9,702.7,642.1,727.5,646.8,748z"
	/>
<path class="st0" d="M695.4,856.9c-14.5,14.2-36.7,29.6-61,42.5c-14.3,7.6-29.3,14.3-43.9,19.2c-26.3,9-51.2,12.3-67.9,5.3
	c-9.5-83.2,39.5-157.7,39.5-157.7c15.4-2,33-4.6,49.4-8.1c-18.5,20.6-51.7,66.4-55.1,132.1c57-13.7,100.3-66.6,115.4-87.2
	c10.1,12.5,21.7,28.9,23.6,44C695.8,849.7,695.8,853.1,695.4,856.9z"/>
<path class="st0" d="M673.2,970.2c-36.1-8.2-66.7-35.2-82.6-51.7c14.6-4.9,29.6-11.6,43.9-19.2c4.6,7.8,18.2,28.2,38.4,37
	L673.2,970.2z"/>
<path class="st0" d="M672.9,933.3l0,3c-20.2-8.7-33.8-29.2-38.4-37c24.2-12.8,46.4-28.3,61-42.5
	C692.9,885.2,672.9,933.3,672.9,933.3z"/>
<path class="st0" d="M680.2,537.8c-3.9,6-21.6,33.2-33.3,47.6v0c-0.9,1.1-1.8,2.1-2.6,3c-0.5,0.6-1,1.1-1.5,1.6l-15.2-15.5
	c0,0,0,0,0,0c0.8-0.9,1.7-2,2.7-3.1c10.5-13.1,26.6-39.5,31.3-47.2c3.3,3.1,6.6,5.8,9.8,7.8C673.6,533.4,676.6,535.4,680.2,537.8z"
	/>
<path class="st0" d="M765.1,592.6l-5.3,27.8c0,0-11.4-1.4-21,4.6c-7.1-6.8-28.2-3.2-28.2-3.2s2.1-15-12.8-23.5
	c-12.5-7.2-42.6-8.1-52-8.2c0,0-0.1-0.1-0.1-0.1l0,0.1c-1.8,0-2.8,0-2.8,0c0.5-0.5,1-1,1.5-1.6c0.8-0.9,1.7-1.9,2.6-3v0
	c11.7-14.4,29.5-41.6,33.3-47.6c24.2,16.1,74.5,50.4,81,51.9c1.1,0.2,2.1,0,3.2-0.5L765.1,592.6z"/>
<path class="st0" d="M487.9,656c-12.4,2.8-29.8,4-43,4.4c-9.8-8-20.3-15-30.5-21.2c-7.2-4.4-15.3-8.1-23.4-11.3
	c16.4-1.2,59.9-2.9,93.3-16.2C485.7,626.5,487,641.6,487.9,656z"/>
<path class="st0" d="M489.1,705.1c-2.2,0.3-4.3,0.8-6.4,1.4c-7.8-17.9-21.9-33.2-37.9-46.1c13.2-0.4,30.6-1.5,43-4.4
	C489,674.2,489.5,691.3,489.1,705.1z"/>
<path class="st0" d="M570.1,667.3c-24.2,15.9-46.2,33.2-55.5,40.7c-4.5-1.6-9.6-2.8-14.9-3.2c-0.1-15,0.6-33.3,1.8-52.8
	C515.3,656.5,544.1,665.5,570.1,667.3z"/>
<path class="st0" d="M516.7,496.1c-1,7.9-4,32.7-7.2,63.8c-1.3-0.4-2-0.6-2-0.6s-3.7,0-9,0l1.5-59.6c2.4-0.3,5.6-0.9,9.9-2
	C512.5,497.1,514.7,496.6,516.7,496.1z"/>
<path class="st0" d="M504.8,608.7c-1.3,14.5-2.4,29.2-3.3,43.3c-0.5-0.2-1-0.3-1.5-0.5c-1.1,0.7-2.3,1.3-3.8,1.9l1.1-47.2
	C499.5,607,501.9,607.8,504.8,608.7z"/>
<path class="st0" d="M509.5,559.9c-1.6,15.2-3.2,31.9-4.7,48.8c-2.8-0.8-5.3-1.7-7.4-2.5l1.1-46.9c5.3,0,9,0,9,0
	S508.2,559.5,509.5,559.9z"/>
<path class="st0" d="M527.5,715.8c-2.7-3-7.3-5.8-12.9-7.8c-4.5-1.6-9.6-2.8-14.9-3.2c-1.5-0.1-3-0.2-4.5-0.2c0,1.3-0.1,2.3-0.2,2.9
	l0.1-2.9c-2,0-4,0.2-5.9,0.4c-2.2,0.3-4.3,0.8-6.4,1.4c-4.9,1.5-9.4,4-13,7.7c-13.8,14.2-7.9,40.5-1.4,52.3c1,1.8,2,3.2,3,4.3
	c3.5,3.8,13.8,7,24.8,7.3c10.1,0.3,20.7-1.7,27.1-7.9l0,0c1.1-1,2-2.2,2.8-3.5C537,749.6,537,726.3,527.5,715.8z M520.1,763.2
	c-6.8,9.1-33.4,9.8-43.4,1.3c-10-8.6-11.2-35.2-0.8-44.3c5.6-4.9,14.9-7.4,24-6.9c7.9,0.4,15.5,3.2,20.4,8.7
	C525.5,727.9,526.9,754.1,520.1,763.2z"/>
<path class="st0" d="M520.1,763.2c-6.8,9.1-33.4,9.8-43.4,1.3c-10-8.6-11.2-35.2-0.8-44.3c5.6-4.9,14.9-7.4,24-6.9
	c7.9,0.4,15.5,3.2,20.4,8.7C525.5,727.9,526.9,754.1,520.1,763.2z"/>
<path class="st0" d="M671.8,802.8c-15.1,20.7-58.4,73.6-115.4,87.2c3.4-65.7,36.6-111.4,55.1-132.1c7.3-8.2,12.4-12.4,12.4-12.4
	s3.3,2.2,8.7,7.2c0,0,0,0,0,0c5.6,5.2,13.5,13.6,22,25.7c0,0,0,0,0,0c1,3.3,1.9,5.6,2.6,6.5c1.5,2.2,4.2,5.4,7.7,9.4c0,0,0,0,0,0
	C667,797,669.4,799.8,671.8,802.8z"/>
<path class="st0" d="M371.1,663.8c-4.6,6.3-9.4,13.4-13.8,19.9c-4.3-5.7-6.8-9.1-6.8-9.1s0,0,0,0c0.1-0.3,0.1-0.6,0.2-0.9
	c0-0.1,0-0.1,0.1-0.2c0.2-0.6,0.5-1.4,1-2.3c0.1-0.2,0.2-0.4,0.4-0.6c1.5-2.5,4.5-5.9,10-9.1c1.1-0.6,2.3-1.3,3.6-1.9
	C365.9,659.6,367.8,661,371.1,663.8z"/>
<path class="st0" d="M389.7,681.4c-0.3,0.3-0.5,0.5-0.8,0.8c-2.8,3.1-8.5,12.4-14.7,23c-1-1.3-2-2.5-3-3.7
	c4.5-10.2,9.9-20,13.5-25.2C386.4,677.9,388,679.6,389.7,681.4z"/>
<path class="st0" d="M443.2,775.4c-1.4-0.9-2.9-1.8-4.4-2.9c-3.8-2.7-7.9-6-12-9.7c-0.2-0.2-0.4-0.3-0.5-0.5
	c-7.1-6.4-14.6-14-22-22.1c-6.4-7-12.8-14.3-18.7-21.4c5.1-8.5,10.9-18.3,14.7-25.7c14.5,17.4,30.1,41.3,39.7,70.8
	C441.1,767.7,442.2,771.5,443.2,775.4z"/>
<path class="st0" d="M362.3,661.5c-5.6,3.2-8.5,6.6-10,9.1c-0.2,0.1-0.4,0.2-0.6,0.3l-0.2-0.2v0l-3.1-4.1L327,637.8
	c0.1-0.1,0.2-0.1,0.4-0.2c3.6-1.9,5.4-4.5,6.2-7l21.7,23.3L362.3,661.5z"/>
<path class="st0" d="M334.2,626.6c0,1.3-0.2,2.7-0.6,4.1c-0.8,2.5-2.7,5-6.2,7c-0.1,0.1-0.2,0.1-0.4,0.2c-3.3,1.8-5.7,2.8-7.6,3.4
	c-3.8,1.2-5,0.1-6.1-1.4c-1.4-2,5.3-13.2,15-17.4C331.1,621.1,334.2,623.3,334.2,626.6z"/>
<path class="st0" d="M348.4,666.5c-6,3.3-10.9,8.9-10.9,8.9l-0.8-1.5l-17.4-32.8c1.8-0.5,4.3-1.6,7.6-3.4L348.4,666.5z"/>
<path class="st0" d="M351.5,670.7L351.5,670.7c0,0.1,0,0.2-0.1,0.4v0c-7.5,4-16.4,14.6-16.4,14.6l-0.5-0.9v0l-2.5-4.6l4.7-6.2
	l0.8,1.5c0,0,4.9-5.6,10.9-8.9L351.5,670.7z"/>
<path class="st0" d="M408.8,782.5c-6.2-3.3-12.7-8.7-19.3-15.2c-2.6-2.6-5.2-5.4-7.8-8.3c-4.2-4.7-8.3-9.7-12.3-14.8
	c2.7-3.8,5.4-7.8,7.8-11.8c2.1-3.5,5.1-8.3,8.2-13.5c6,7.1,12.3,14.4,18.7,21.4c0.8,5,1.7,11.8,2.7,20.9
	C407.5,767.2,408.1,774.3,408.8,782.5z"/>
<path class="st0" d="M357.4,683.7c-6.7,10.1-12.3,19.1-14.4,22.5c0,0,0,0,0,0c0,0,0,0,0,0c-4.5-7.1-7.5-12.1-8.2-13.2
	c-1.8-2.7-1.1-6-0.2-8.2l0.5,0.9c0,0,8.9-10.5,16.4-14.6c-0.2,0.8-0.4,1.6-0.6,2.5c0,0.1,0,0.1-0.1,0.2c-0.1,0.5-0.2,0.8-0.2,0.9
	c0,0,0,0,0,0S353.1,678,357.4,683.7z"/>
<path class="st0" d="M369.5,744.1c-3.8,5.3-7.4,10-9.7,13c-1.7,2.2-2.8,3.5-2.8,3.5l-32.8,33.9c0-6.9,2.1-19.3,4.7-31
	c3.3-3.1,7-5.8,10.2-8.2c5.1-3.7,9.5-6.4,10.9-8.3c1-1.4,4.7-7.9,9.5-16.3C362.7,735.2,366,739.7,369.5,744.1z"/>
<path class="st0" d="M404.8,682.2c-0.1,1.7-1.9,5.8-4.6,11c-3.9,7.4-9.6,17.2-14.7,25.7c-3.1,5.2-6,10-8.2,13.5
	c-2.4,3.9-5.1,8-7.8,11.8c-3.5-4.5-6.8-9-9.9-13.4c1.3-2.2,2.6-4.6,4-7.1v0c3.4-6,7.1-12.4,10.6-18.4c0,0,0,0,0,0
	c6.2-10.6,12-19.9,14.7-23c0.3-0.3,0.5-0.6,0.8-0.8C396.9,674.2,405.1,676.9,404.8,682.2z"/>
<path class="st0" d="M468.3,766.5c-7.3-0.7-17.2-1.5-28.5-2.5c-9.6-29.5-25.2-53.3-39.7-70.8c2.8-5.2,4.6-9.3,4.6-11
	c0.2-5.3-7.9-8.1-15.1-0.8c-1.7-1.8-3.4-3.5-5-5.1c0.9-1.2,1.6-2.2,2.2-2.9c2.4-2.6,4.9-8.8,6.2-14.8c23.6,11,54.1,29,76.4,55.7
	C455.9,728.5,461.8,754.7,468.3,766.5z"/>
<path class="st0" d="M393.3,658.5c-1.4,6-3.8,12.2-6.2,14.8c-0.6,0.7-1.4,1.7-2.2,2.9c-3.6,5.3-9,15.1-13.5,25.2
	c-3.5,7.8-6.4,15.8-7.7,22.1v0c-1.4,2.5-2.8,4.8-4,7.1c-6.5-9.1-12.2-17.8-16.5-24.6c2.1-3.4,7.7-12.3,14.4-22.5
	c4.4-6.6,9.2-13.6,13.8-19.9c3-4.1,6-8,8.6-11.1c3.4-4,6.3-7,8.4-8.1C394.9,641.1,395.3,649.7,393.3,658.5z"/>
<path class="st0" d="M389.6,767.3c-22.1,34.5-86.5,103.9-88.3,108.5l-6.7,4.8c0,0-2.9-22.8-2.3-37.1c4.4-13.8,27-41.3,31.9-49
	l32.8-33.9c0,0,1-1.3,2.8-3.5c2.4-3,6-7.7,9.7-13c4,5.1,8.1,10.1,12.3,14.8C384.3,761.9,386.9,764.7,389.6,767.3z"/>
<path class="st0" d="M426.2,762.3c-0.1,0.1-0.2,0.3-0.2,0.4c-58.1,106.1-120,153.5-122.8,157.7h-4.3c0,0-0.5-22.3,1-23.3
	c1.4-1,1.4-21.4,1.4-21.4c1.8-4.6,66.2-74,88.3-108.5c6.5,6.5,13.1,11.9,19.3,15.2c-0.7-8.3-1.4-15.4-2-21.4
	c-1-9.1-1.9-15.8-2.7-20.9C411.6,748.3,419.1,756,426.2,762.3z"/>
<path class="st0" d="M641,674.2c-2.2,2.8-4.9,6.1-7.9,9.8c-17.8,21.8-48.9,56.9-81.2,80.3c0,0,20-52.6,47.5-82.2
	c12.2-13,20.7-20.5,26.4-24.9c0.1,0,0.2,0,0.2-0.1c0.4,0.4,1.2,1.2,2.1,2.1c0,0,0,0,0,0C631.5,662.7,637.2,668.8,641,674.2z"/>
<path class="st0" d="M648.6,664.3c0,0-2.7,3.7-7.6,9.9c-3.9-5.5-9.6-11.5-12.9-14.9c0,0,0,0,0,0c-0.9-0.9-1.7-1.7-2.1-2.1
	c0,0,0,0-0.1-0.1c0.7-0.5,1.3-1,1.9-1.4c5.7-4,7.9-4.3,7.9-4.3l10.6,10.6L648.6,664.3z"/>
<polygon class="st0" points="673.8,630.8 646.4,662.1 638.1,653.8 665.3,626.5 665.8,626.1 673.6,630.7 "/>
<path class="st0" d="M673.6,630.7l-7.8-4.6l-0.4,0.4c-1.2-1.8-3.3-5.7-1.7-8.4c2.1-3.7,13.7,6,14.6,7.9
	C678.9,627.7,675.8,629.9,673.6,630.7z"/>
<path class="st0" d="M474.1,223.2c-16.3,6.4-23.2-1.7-23.2-1.7s3.7-3.8,11.1-3.8C469.4,217.8,474.1,223.2,474.1,223.2z"/>
<path class="st0" d="M221.7,589.8l-15.3,8c0,0-0.7,5.2-8.8,8.1c-8.1,2.8-9.5-7.1-8.3-11.9c1.2-4.8,10-8.1,14-6.7
	c4.6-1.5,12.4-6,17-8.8C220.7,582,221.1,586,221.7,589.8z"/>
<path class="st0" d="M357,509.9c-8.7,23.5-68.9,59.5-104.8,79.4c-15.8,8.7-26.9,14.3-26.9,14.3c-1.4-2.2-2.6-7.8-3.5-13.8
	c-0.6-3.8-1.1-7.8-1.4-11.2c-0.5-5-0.8-8.8-0.8-8.8s3.6-2,9.3-5.2l3.4,14.7l1,4.5l2.4,10.7c0,0,21.1-7.8,25.4-26.1
	c8.5-5.7,10.9-5.9,10.9-5.9l6.6,4.5c0,0,47.2-28.5,71.4-52.8c-24.3,6.2-82.3,31.1-82.3,31.1s0.7,7.8-1,8.3c-1.6,0.5-8.1,5.7-8.1,5.7
	l-6.9-7.3c14.3-7.8,30-16.3,39.3-21C311.3,520.7,335.5,511.5,357,509.9z"/>
<path class="st0" d="M350,514.2c-24.2,24.2-71.4,52.8-71.4,52.8l-6.6-4.5c0,0-2.4,0.2-10.9,5.9c-4.3,18.3-25.4,26.1-25.4,26.1
	l-2.4-10.7l-1-4.5l-3.4-14.7c4.1-2.3,9.4-5.2,15.2-8.4l1-0.5l6.8-3.7l6.9,7.3c0,0,6.4-5.2,8.1-5.7c1.7-0.5,1-8.3,1-8.3
	S325.7,520.3,350,514.2z"/>
<path class="st0" d="M241.2,548.9c-21.2,17.2-45.7,22.5-45.7,22.5l8.8-13.5c0,0-18.5-6.4-26.1,4c0,0,0,0,0,0
	c-4.3,6-6.6,13.9-7.6,19.6c0,0,0,0.1,0,0.1c-0.4,1.2-0.6,2.2-0.7,3.1c-0.1,0.5-0.2,1.1-0.3,1.6c-3.4-1.8-7.6-5.5-11.1-13.2
	c-7.9-16.9,5.7-40.2,12.8-53.2s-1.9-26.4,2.9-40.4s24.7-21.1,27.1-22.8c2.4-1.7,5.7,0,17.6,18.7c25-15.6,47.9,12.5,47.9,12.5v5.7
	l10,9.3c-8.2,3.7-26.4,13.1-36.6,18.4C235.7,525.7,239.3,541.5,241.2,548.9z"/>
<path class="st0" d="M505.7,277c-0.1,2.4-2.6,34.2-3.8,48.7l-4.9-5.1c0,0-0.1-41.2,0.1-42.4c1-0.2,2.4-2.4,2.4-3.5s-0.7-3.8-3.5-3.7
	s-4.6,0.7-5,3.3c-0.4,2.6,2.8,4.1,2.8,4.1l0.3,42.2c0,0-2.3,2.7-4.3,4.8c-0.2-1.7-0.4-3.7-0.6-5.8c-0.2-2.2-0.5-4.6-0.7-7
	c-0.5-4.7-1-9.8-1.4-14.5c-0.6-6.1-1.1-11.8-1.4-15.6c-0.2-2.6-0.3-4.4-0.3-5c0.1-4,3.9-9,9.9-9.5c6.2-0.5,9.9,5.2,10.2,8.5
	C505.7,276.6,505.7,276.8,505.7,277z"/>
<path class="st0" d="M570.3,317.2c-1,4.2-1.9,7.7-2.6,10.4c0,0,0,0,0,0c-7.2,13.2-18,33.4-19.2,38.5c-3.7-1.7-9.9,7.8-3.7,13.8
	c-0.7,1.4-10.7,11.5-16.3,17.2c-6.4-3.7-12.8-8-16.3-9.5c-3.4-1.4-7.2-1.8-9.9-2l-0.5-43.2c3.8,0,6.6,0.1,7,0.3
	c0.5,0.3,6.5-4.2,14.2-9.9c0.3-0.1,0.7-0.1,1-0.2c0-0.2,0-0.4,0-0.5c8.8-6.6,19.6-14.5,26.9-18.7c0.8-0.5,1.6-0.9,2.4-1.3l13.2,3.5
	L570.3,317.2z"/>
<path class="st0" d="M504.9,405.5c-2,6-17.1,9.7-17.1,9.7s-0.6-0.4-1.5-1.2c-5.7-4.4-25.4-19.6-27.5-21.7c-1.6-1.6-8.2-7.1-11-12.3
	c-1.5-2.8-1.9-5.5,0.2-7.4c5.8-5.7,12.8,2.7,17.6,5.7C470,380.9,499.6,401.8,504.9,405.5z"/>
<path class="st0" d="M505.1,404.1c0,0.5-0.1,0.9-0.2,1.3c-5.3-3.7-34.9-24.5-39.3-27.2c-4.8-3-11.8-11.4-17.6-5.7
	c-2,2-1.6,4.7-0.2,7.4l-6.1-5.2c0,0-12.8-9.3-15.6-17.2c-0.7-2-0.6-3.6-0.2-4.8c1.4-3.7,6.6-4.4,6.6-4.4l36.5,23.6
	c0,0,4.5,0.8,7.2,1.8c2.3,0.8,22,14.6,27.9,18.7c0,0,0,0,0,0C504.2,392.8,507,400.9,505.1,404.1z"/>
<path class="st0" d="M504,392.4c-5.9-4.1-25.6-17.9-27.9-18.7c-2.7-1-7.2-1.8-7.2-1.8l-36.5-23.6c0,0-5.2,0.7-6.6,4.4
	c-3.4-7.8,3.2-12.3,5.5-13c2.4-0.7,12,8,17.8,12.8c1.1,0.1,2.6,0.9,4.4,2c5.7,3.4,13.9,10.4,18,12.3c2.9,1.3,10.7,6.5,17.4,11.1
	c4.7,3.3,8.9,6.2,10.4,7.3c0,0,0.1,0.1,0.1,0.1c0.1,0.1,0.2,0.1,0.3,0.2c1,0.8,1.8,1.7,2.4,2.6c0,0,0,0,0,0
	C503.7,390.4,504,392.4,504,392.4z"/>
<path class="st0" d="M591.4,487.8c-13.1,25.4-25.9,32.1-25.9,32.1s1-7.4-2.1-12.1c-3.1-4.8-15.5-4-15.5-4s-15.9-8.8-17.6-17.1
	c-1.2-6-17.2-23.2-28.7-37c-4.4-5.2-8.1-10-10.1-13.4c-3.5-6-4.8-12.2-5.1-17c-0.2-2.1-0.1-3.9-0.1-5.2c1,0.8,1.5,1.2,1.5,1.2
	s15-3.7,17.1-9.7c0.1-0.4,0.2-0.9,0.2-1.3c1.9-3.2-0.9-11.3-1.1-11.7c0,0,0,0,0,0s-0.3-2-1.8-4.2c0,0,0,0,0,0l0-2.5
	c2.7,0.1,6.5,0.5,9.9,2c3.6,1.5,9.9,5.8,16.3,9.5c1.7,1,3.3,1.9,4.9,2.7c0.3,2.4,1,5.7,2.5,10c3.6,10.6,37.4,28,37.4,28
	s22.7,10.5,37.4,12C611.5,459.6,602.6,466,591.4,487.8z"/>
<path class="st0" d="M484.2,611.6c-33.4,13.4-76.9,15.1-93.3,16.2c0,0,0,0,0,0c-10.3-4-20.6-7-29.1-9.2c3.1-7.5,7.2-18.9,10.8-29.3
	c12.2-2.4,69.7-11.8,106.3-25.8C480.8,578.4,482.6,594.9,484.2,611.6z"/>
<path class="st0" d="M479,563.6c-36.6,13.9-94.1,23.3-106.3,25.8c2.2-6.5,4.3-12.7,5.8-17.3c0,0,0,0,0,0c3.4-3.5,6.8-7,10-10.4
	c0.9,0.2,1.8,0.3,2.5,0.3c8.8-0.7,35.2-21.4,40.9-27.6c0.1-0.1,0.1-0.2,0.2-0.2c5-5.3,12.2-7.8,14-11.2c0.2-0.5,0.4-0.9,0.4-1.4
	c0,0,9.2-5.5,19-9.3c2.2-0.8,4.3-1.8,6.3-2.7C473.1,518.1,476,538.4,479,563.6z"/>
<path class="st0" d="M497,499.9c-3.6,0-5.6-1-9.7-1.9c-0.4-0.1-0.7-0.2-1.1-0.2c-1,3.5-5.6,7.2-11.5,10.3
	c2.8-4.8,8.3-14.1,12.8-21.2C489.9,491.5,493.4,497.3,497,499.9z"/>
<path class="st0" d="M530.3,486.6c-1.4,6.5-4.1,7.3-13.6,9.5c-2,0.5-4.2,1-6.8,1.6c-4.4,1.1-7.5,1.7-9.9,2c-1.1,0.1-2.1,0.2-2.9,0.2
	c-3.6-2.5-7.1-8.4-9.4-13c-4.5,7.1-10,16.4-12.8,21.2c-0.9,0.5-1.9,1-2.9,1.5c-2,1-4.2,1.9-6.3,2.7c-9.8,3.8-19,9.3-19,9.3
	c0,0.5-0.2,0.9-0.4,1.4c-4.6-3.4-7.1-16-4.5-28.2v0c4.3-4.5,11.8-11.5,18.1-14.2c8.5-3.5,32.3-17.2,41.8-30.9
	C513.1,463.3,529.1,480.6,530.3,486.6z"/>
<path class="st0" d="M467.8,428.2c-3.9,3.6-31,10-41.8,19.6c-0.5,0.5-1.1,0.9-1.6,1.4c-0.4-4.4,1.1-8.8,1.1-8.8s13.5-11.2,18.9-14.9
	c5.4-3.7,9.4-0.8,13.4-2.7c4-1.9,9-4,9-4S465.9,427.4,467.8,428.2z"/>
<path class="st0" d="M501.6,449.6c-9.5,13.7-33.3,27.4-41.8,30.9c-6.4,2.6-13.8,9.7-18.1,14.2c0.6-2.9,1.5-5.8,2.7-8.5
	c6.5-14.2,19.9-41.5,20.1-42c-0.5,0.4-17.8,13.8-31.1,13.3c-6.5-0.2-8.6-4.2-9-8.3c0.6-0.5,1.1-1,1.6-1.4
	c10.8-9.6,37.9-16,41.8-19.6c3.6-3.3,9.7-11,18.6-9c0.4,4.8,1.6,11,5.1,17C493.5,439.6,497.2,444.4,501.6,449.6z"/>
<polygon class="st0" points="414.6,470.6 403.4,477.7 401.5,466.4 401.3,465.1 404.6,462.1 412.2,455.5 412.7,458.4 "/>
<path class="st0" d="M446.2,522.9c-1.8,3.4-9,5.9-14,11.2c-6.3-2.2-11.1-7.1-11.1-7.1s-28.4-24.8-33-51.2c1.8-1.2,4.4-3,7.5-5.1
	c1.9-1.3,3.9-2.7,6-4.2l1.9,11.2l11.2-7.1l-1.9-12.2c3.3-2.4,6.4-4.8,9-6.9c1-0.8,1.9-1.5,2.7-2.2c0.4,4.1,2.4,8.1,9,8.3
	c13.3,0.5,30.6-12.9,31.1-13.3c-0.2,0.4-13.6,27.7-20.1,42c-1.2,2.7-2.1,5.5-2.7,8.5v0C439.1,506.9,441.5,519.5,446.2,522.9z"/>
<path class="st0" d="M395.5,470.6c-3,2.1-5.7,3.9-7.5,5.1c-0.6-3.5-0.8-7-0.5-10.5C389,465.7,391.8,466.9,395.5,470.6z"/>
<path class="st0" d="M351,480c-7.7,7.8-27.5,26.2-57.2,43.2c-32,18.3-46.2,26.4-50.2,28.7c-0.9,0.5-1.3,0.7-1.3,0.7
	s-0.5-1.5-1.1-3.8c-2-7.3-5.5-23.2-1-27.8c10.1-5.3,28.4-14.7,36.6-18.4c5.8-2.6,17.8-7,29.3-10.8c0.5,0.5,0.9,1,1.3,1.5
	c0-0.1-0.3-0.7-0.8-1.7c0.5-0.2,1.1-0.4,1.6-0.5c6.1-2,12-3.7,16.7-4.8c3.6-0.9,6.6-1.5,8.4-1.5c2.9-0.1,9.7-2.4,17.5-5.4
	C350.9,479.7,351,479.8,351,480z"/>
<path class="st0" d="M538.8,222.3c-7.5,3.7-17,2.6-20.4,0.7C518.4,223,526.6,213.7,538.8,222.3z"/>
<path class="st0" d="M513.6,211.1l2,4.2c0,0,16.6-8.3,27.3-4.2C534.1,205,513.6,211.1,513.6,211.1z"/>
<path class="st0" d="M478.1,211.1l-2,4.2c0,0-16.6-8.3-27.3-4.2C457.7,205,478.1,211.1,478.1,211.1z"/>
</svg>
