<?xml version="1.0" encoding="utf-8"?>
<!-- Generator: Adobe Illustrator 25.2.0, SVG Export Plug-In . SVG Version: 6.00 Build 0)  -->
<svg version="1.1" baseProfile="tiny" id="Layer_1" xmlns="http://www.w3.org/2000/svg" xmlns:xlink="http://www.w3.org/1999/xlink"
	 x="0px" y="0px" viewBox="0 0 1000 1000" overflow="visible" xml:space="preserve">
<path fill="#FFFFFF" stroke="#000000" stroke-miterlimit="10" d="M531.96,128.84c0,0,0,0,0,0.01c-0.21,0.57-0.43,1.07-0.64,1.52
	c-2.14,0.79-2.73,8.19-2.73,8.19s-0.23-0.3-0.61-0.83c-0.99-1.39-3.06-4.36-5.03-7.74c-2.73-4.68-0.79-12.47-2.14-21.63
	c-1.37-9.15-9.16-11.49-9.16-11.49c-0.47-0.22-1.04-0.21-1.7-0.02c3.36-15.77-3.11-24.48-8.77-28.91c3.66-0.43,9.13-0.82,11.25,0.3
	c3.31,1.76,10.33,6.23,13.44,9.16c3.11,2.92,9.16,19.48,9.54,25.13C535.77,107.74,534.47,122.09,531.96,128.84z"/>
<path fill="#FFFFFF" stroke="#000000" stroke-miterlimit="10" d="M509.94,96.85c-3.42,0.95-9.44,6.4-18.74,7.22
	c-11.1,0.97-13.44-8.37-15.78-8.37c-4.28,4.48-2.92,17.14-2.92,17.14s-3.71-7.4-1.95-20.84c-5.65,5.85-6.62,22.98-3.31,29.23
	c-10.61-12.1-0.24-29.17,0.7-30.67c-0.79,1.03-7.09,9.5-9.46,16.45c-2.54,7.4-1.96,29.61-1.96,31.94c0,0.15-0.02,0.27-0.08,0.34
	v0.01c-0.64,1.01-5.29-5.24-6.73-2.87c-0.14-0.34-0.28-0.68-0.42-1.03v-0.01c-6.59-16.93-1.73-41.42-1.73-41.42
	s-2.73,1.55-5.27,3.11c0.79-7.4,5.65-10.33,5.65-10.33c-2.52-0.58-4.86-2.34-4.86-2.34s3.69-1.55,7.6-3.31
	c3.89-1.75,8.18-11.49,20.45-15.77c12.27-4.28,26.49,3.11,26.49,3.11s1.49-0.25,3.55-0.49C506.83,72.37,513.3,81.08,509.94,96.85z"
	/>
<path fill="#FFFFFF" stroke="#000000" stroke-miterlimit="10" d="M461.5,155.31c-6.02-3.4-9.12-7.84-10.68-11.85
	c-1.26-3.2-1.53-6.14-1.53-8.08c0.13,0.35,0.27,0.69,0.42,1.03c1.44-2.36,6.09,3.88,6.73,2.87
	C457.81,143.39,459.95,149.92,461.5,155.31z"/>
<path fill="#FFFFFF" stroke="#000000" stroke-miterlimit="10" d="M513.75,186.27c-4,8.23-10.69,12.42-15.9,13.66
	c-1.63,0.4-3.1,0.51-4.31,0.37c-5.58-0.64-12.21-5.58-16.11-9.61c-0.83-0.86-1.92-2.35-3.11-4.22c0,0,3.6-6.02,5.46-8.45
	c0.83,0.54,2.37,1.53,3.14,2.02c1.07,0.68,5.95,4.96,10.62,3.99c4.64-0.97,11.86-6.98,12.53-7.79
	C508.61,178.8,512.69,184.88,513.75,186.27z"/>
<path fill="#FFFFFF" stroke="#000000" stroke-miterlimit="10" d="M533.13,140.31c-0.59,3.37-4.12,5.48-6.54,6.55
	c0.66-3.01,1.1-6.49,1.38-9.13c0.38,0.54,0.61,0.83,0.61,0.83s0.59-7.4,2.73-8.19c0.22-0.45,0.44-0.95,0.64-1.52
	C532.76,132.13,533.71,137.01,533.13,140.31z"/>
<path fill="#FFFFFF" stroke="#000000" stroke-miterlimit="10" d="M513.85,186.03c-0.03,0.09-0.08,0.16-0.11,0.24
	c-1.06-1.39-5.14-7.46-7.68-10.02c-0.52-0.54-0.98-0.92-1.33-1.07c-0.04-0.02-0.09-0.04-0.14-0.05c-2.47-1.02-8.01-0.92-12.32-0.92
	c-4.19,0-9.9,1.78-11.5,2.79c-0.08,0.04-0.14,0.09-0.2,0.13c-0.2,0.15-0.47,0.47-0.8,0.91c-1.87,2.43-5.46,8.45-5.46,8.45
	s0.43-9.16,2.27-10.71c1.85-1.56,9.06-6.43,14.71-6.92c5.64-0.48,12.95,1.95,16.94,4.68C511.89,176.02,513.31,183.88,513.85,186.03z
	"/>
<line fill="none" stroke="#000000" stroke-miterlimit="10" x1="506.06" y1="176.24" x2="506.06" y2="176.23"/>
<path fill="#FFFFFF" stroke="#000000" stroke-miterlimit="10" d="M504.59,175.12c-2.71,0.92-8.51,2.81-11.95,3.17
	c-3.4,0.36-9.13-0.72-11.87-1.3c1.6-1.01,7.31-2.79,11.5-2.79C496.58,174.2,502.12,174.1,504.59,175.12z"/>
<path fill="#FFFFFF" stroke="#000000" stroke-miterlimit="10" d="M506.06,176.24c-0.67,0.81-7.88,6.82-12.53,7.79
	c-4.68,0.97-9.55-3.31-10.62-3.99c-0.77-0.49-2.31-1.49-3.14-2.02c0.33-0.44,0.6-0.75,0.8-0.91c0.05-0.04,0.12-0.09,0.2-0.13
	c2.74,0.58,8.47,1.66,11.87,1.3c3.43-0.36,9.24-2.25,11.95-3.17c0.05,0.01,0.1,0.03,0.14,0.05
	C505.08,175.33,505.54,175.71,506.06,176.24z"/>
<path fill="#FFFFFF" stroke="#000000" stroke-miterlimit="10" d="M522.95,129.99c-2.73-4.68-0.79-12.47-2.14-21.63
	c-1.37-9.15-9.16-11.49-9.16-11.49c-0.47-0.22-1.04-0.21-1.7-0.02c-3.42,0.95-9.44,6.4-18.74,7.22c-11.1,0.97-13.44-8.37-15.78-8.37
	c-4.28,4.48-2.92,17.14-2.92,17.14s-3.71-7.4-1.95-20.84c-5.65,5.85-6.62,22.98-3.31,29.23c-10.61-12.1-0.24-29.17,0.7-30.67
	c-0.79,1.03-7.09,9.5-9.46,16.45c-2.54,7.4-1.96,29.61-1.96,31.94c0,0.15-0.02,0.27-0.08,0.34v0.01c1.37,4.1,3.51,10.62,5.06,16.02
	c0.9,3.13,1.6,5.87,1.84,7.53c0.17,1.19,0.64,2.79,1.33,4.62c0.03-0.45,0.08-0.89,0.1-1.29c0.42,1.44,0.9,3.14,1.43,5.01
	c0.01,0.02,0.01,0.04,0.02,0.07c2.27,5.16,5.45,11.12,8.09,15.22c0,0,0.43-9.16,2.27-10.71c1.85-1.56,9.06-6.43,14.71-6.92
	c5.64-0.48,12.95,1.95,16.94,4.68c3.65,2.49,5.07,10.36,5.62,12.5c0.45-0.94,0.86-1.95,1.24-2.99c2.26-6.4,3.73-13.1,4.98-18.57
	c1.33-5.85,2.43-10.28,3.98-11.42c0.74-0.55,1.38-1.92,1.91-3.69c0.23-0.77,0.44-1.61,0.63-2.49c0.66-3.01,1.1-6.49,1.38-9.13
	C526.98,136.34,524.92,133.37,522.95,129.99z M471.37,142.87c-2.68-0.67-6.7-1.28-6.7-1.28s3.92-3.72,6.07-3.49
	c2.14,0.23,8.48,2.8,8.48,2.8S474.05,143.52,471.37,142.87z M465.87,133.04l-4.55,1.3l3.38-3.77c0,0,13.76,6.23,17.01,8.19
	L465.87,133.04z M495.92,165.97c-1.76,0.78-4.52,1.01-4.52,1.01s-8.63-2-9.26-3.39c0,0,1.56-1.27,3.79-0.69
	c2.24,0.59,5.78,3.22,5.78,3.22s5.17-4.21,8.95-3.38C499.47,164.81,497.68,165.2,495.92,165.97z M507.46,142.25
	c-1.86-0.19-8.57-1.36-8.57-1.36s7.78-3.71,9.93-3.9c2.14-0.2,6.33,3.9,6.33,3.9S509.31,142.44,507.46,142.25z M509.64,133.04
	l-13.51,5.06l14.93-7.53l4.94,1.95L509.64,133.04z"/>
<polygon fill="#FFFFFF" stroke="#000000" stroke-miterlimit="10" points="516,132.52 509.64,133.04 496.13,138.1 511.06,130.57 "/>
<path fill="#FFFFFF" stroke="#000000" stroke-miterlimit="10" d="M481.71,138.76l-15.84-5.72l-4.55,1.3l3.38-3.77
	C464.7,130.57,478.47,136.8,481.71,138.76z"/>
<path fill="#FFFFFF" stroke="#000000" stroke-miterlimit="10" d="M500.66,162.75c-1.19,2.07-2.98,2.45-4.74,3.22
	c-1.76,0.78-4.52,1.01-4.52,1.01s-8.63-2-9.26-3.39c0,0,1.56-1.27,3.79-0.69c2.24,0.59,5.78,3.22,5.78,3.22
	S496.88,161.92,500.66,162.75z"/>
<path fill="#FFFFFF" stroke="#000000" stroke-miterlimit="10" d="M471.52,236.14c-1.76-8.95-10.53-23.56-23.38-33.89
	c-2.91-2.33-6.32-4.44-9.86-6.32c-12.15-6.48-25.87-10.46-26.18-12.57c-0.39-2.73,7.4-10.53,11.88-14.58
	c4.48-4.05,8.19-11.52,13.44-16c3.8-3.25,10.16-7.31,13.39-9.31c1.56,4.01,4.66,8.45,10.68,11.85c0.9,3.13,1.6,5.87,1.84,7.53
	c0.17,1.19,0.64,2.79,1.33,4.62c-0.56,7.09-1.36,19.06-1.37,30.02c0,1.34,0.01,2.68,0.03,3.98
	C463.67,219.21,470.03,226.66,471.52,236.14z"/>
<path fill="#FFFFFF" stroke="#000000" stroke-miterlimit="10" d="M571.7,195.92c-0.17,0.42-13.41,4.48-26.59,11.85
	c-1.86-0.08-3.5-0.13-4.8-0.15c0.13,0.22,0.57,0.99,1.3,2.2c-5.37,3.25-10.52,7.06-14.58,11.4c-4.15,4.45-7.01,9.93-8.96,15.53
	c-1.9,0.78-3.5,1.43-4.2,1.72c0.59-9.51,2.01-19.5,5.1-26.47c1.14-2.55,2.28-6.25,3.37-10.44c3.51-13.5,6.38-32,5.99-32.77
	c-0.32-0.61-4.8-2.74-8.26-4.32c1.33-5.85,2.43-10.28,3.98-11.42c0.74-0.55,1.38-1.92,1.91-3.69c7.14-0.46,17.39-0.74,19.77,0.44
	c3.11,1.56,13.76,13.77,16.36,23.64C564.69,183.29,571.97,195.31,571.7,195.92z"/>
<path fill="#FFFFFF" stroke="#000000" stroke-miterlimit="10" d="M621.23,311.66c-22.1-14.07-35.46-48.59-51.34-64.6
	c-13.66-13.77-24.6-31.13-28.27-37.25c1.16-0.71,2.33-1.39,3.5-2.04c2.77,0.11,5.99,0.27,9.25,0.52c6,4,22.89,16.23,26.18,29.41
	c3.91,15.65,19.13,45.82,40.62,72.66C621.18,310.8,621.21,311.22,621.23,311.66z"/>
<path fill="#FFFFFF" stroke="#000000" stroke-miterlimit="10" d="M772.27,676.01c-17.05-34.64-40.94-70.88-70.71-121.34
	c-28.42-48.15-62.26-108.7-67.05-117.27c0.85-3.13,1.52-6.28,1.99-9.45c1.07-7.25,1.07-14.54-0.43-21.66
	c-0.69-3.29-1.7-6.54-3.07-9.74c-0.24-0.57-0.48-1.13-0.72-1.68c-20.65-47.14-45.32-59.18-51.74-63.79
	c-6.49-4.68-0.78-4.16-15.52-28.06c-5.67-9.2-13.88-17.28-21.83-23.74c-7.19-5.86-14.18-10.37-18.88-13.19
	c-1.56-0.94-2.86-1.69-3.85-2.23c1.15-0.52,2.43-1.14,3.84-1.87c11.56-5.98,5.85-29.35,4.03-29.06c-1.1,0.17-6.33,2.23-10.26,3.81
	c1.96-5.6,4.81-11.08,8.96-15.53c4.05-4.34,9.21-8.15,14.58-11.4c3.67,6.12,14.61,23.48,28.27,37.25
	c15.88,16.01,29.24,50.54,51.34,64.6c0.64,0.42,1.3,0.81,1.96,1.19c22.43,27.25,48.85,41.28,81.3,91.77
	c32.53,50.65,45.38,92.91,49.79,106.93c4.42,14.03,8.05,93.76,11.68,105.97C769.32,628.78,775.76,667.4,772.27,676.01z"/>
<path fill="#FFFFFF" stroke="#000000" stroke-miterlimit="10" d="M800.76,770.24c-5.71,10.13-36.48-3.11-58.69,12.85
	c-22.21,15.97-79.86,42.46-79.86,44.41c0,1.96,45.58-12.08,47.14-8.95c1.56,3.11-48.31,26.88-56.1,23.37
	c-7.78-3.51-10.12-15.59-10.12-15.59L606.5,831c0,0-4.68-21.42-6.62-24.54c-1.44-2.32-27.3-18.5-55.59-29.3
	c0.46-9.85,0.32-20.19-0.08-29.65v-0.01c-0.8-19.31-2.63-34.92-2.63-34.92l3.56-19.94c9.3,2.49,16.18,4.73,16.18,4.73
	s1.74-7.69,3.64-19.38c3.69-22.63,8.02-60.26,1.62-86.06c-1.05-4.24-2.39-8.15-4.09-11.63c0-0.02-0.01-0.03-0.02-0.05
	c-0.36-0.75-0.74-1.5-1.15-2.21c0.11,0.01,0.23,0.02,0.34,0.03c47.36,3.95,29.79,77.37,32.9,80.47c3.11,3.11,18.7,1.56,18.7,1.56
	s9.34,20.25,26.49,0c17.14-20.26,16.62-23.9,16.62-23.9l-7.79-14.54c0,0,14.22-16.04,4.48-42.14c-2.14-2.14-3.9-2.34-3.9-2.92
	c0-0.59,6.43-31.75,6.43-31.75l-13.25-5.9l-1.17-0.52l1.17-14.02l-6.67-1.02c-0.37-3.71-4.62-9.25-4.62-9.25s4.02-1.04,0-5.19
	c-1.32-1.37-3.41-2.42-5.85-3.21c0.09-0.44,0.16-0.86,0.23-1.29c0.8-4.71,1.21-8.94,1.33-11.86c1.46-1.86,3.46-11.24,4.68-20.83
	c1.08-8.62,1.54-17.43,0.4-21.1v-0.01c-0.08-0.24-0.15-0.45-0.24-0.64c1.28-2.18,1.95-5.84,2.2-10.15c0-0.01,0-0.01,0-0.02
	c0.25-0.81,0.48-1.63,0.7-2.44c4.79,8.57,38.64,69.12,67.05,117.27c29.77,50.46,53.66,86.7,70.71,121.34
	c-0.3,0.73-0.66,1.25-1.1,1.51C771.42,684.01,806.48,760.11,800.76,770.24z"/>
<path fill="#FFFFFF" stroke="#000000" stroke-miterlimit="10" d="M424.57,784.97c-14.47,3.57-27.87,5.86-38.56,4.35
	c-33.12-4.67-47.53-9.74-72.46-17.14c-24.93-7.4-29.99-9.74-58.43-10.13c-28.44-0.38-46.76-4.28-46.76-7.79
	c0-3.5,57.27-91.15,67.01-109.08c1.64-3.02,3.04-5.84,4.23-8.44c2.23,1.21,4.67,2.49,7.29,3.79c11.19,5.56,25.67,11.49,41.47,14.78
	c35.44,7.4,58.43,9.34,72.45,19.08c3.56,2.48,8.46,6.16,13.78,10.27l4.73,51.61c0,0-0.96,8.23-0.86,18.12
	c0.02,3.69,0.21,7.63,0.63,11.44c0.25,2.3,0.6,4.55,1.06,6.68c0.61,2.83,1.41,5.45,2.47,7.72
	C423.38,781.84,424.03,783.43,424.57,784.97z"/>
<path fill="#FFFFFF" stroke="#000000" stroke-miterlimit="10" d="M405.49,369.56c-0.71,1.39-1.66,4.23-2.6,7.93
	c-1.43,5.61-2.85,13.17-3.41,20.55c-0.68,9.01-0.1,17.74,3.29,22.36c-0.16,0.16-0.4,0.47-0.69,0.9
	c-3.77,5.41-16.84,29.88-16.84,29.88s-0.93,1.43-2.52,3.95c-2.57,4.01-6.86,10.78-11.91,18.9c-0.42-0.43-0.86-0.82-1.36-1.19
	c0.2,0.02,0.39,0.04,0.6,0.07c1.55-12.57,2.33-27.56,3.11-31.65c0.78-4.09,3.31-7.99,2.72-11.3c-0.58-3.31,1.56-18.9,1.56-18.9
	s-0.3-0.48-0.86-1.3c1.43-4.66,3.46-12.38,4.18-16.61c0.97-5.85,1.17-9.36,1.55-9.93c0.39-0.59,2.54-9.54,2.54-9.54
	s1.37-9.93,3.89-16.56c2.3-5.99,6.34-28.06,15.43-39.72c0.42,1.45,0.86,2.7,1.32,3.68C403.54,332.17,397.7,358.27,405.49,369.56z"/>
<path fill="#FFFFFF" stroke="#000000" stroke-miterlimit="10" d="M471.37,269.12c-3.67-2.58-11.65-7.99-19.95-12.37h-0.01
	c0,0,0-0.01-0.01-0.01c-2.19-1.16-4.4-2.24-6.56-3.17v-0.01c-0.7-0.31-1.39-0.59-2.07-0.86c-1.88-0.74-3.97-1.55-6.2-2.38h-0.01
	c-4.74-1.75-10.12-3.61-15.56-5.22c-3.2-0.95-6.42-1.83-9.51-2.54c-5.5-1.28-10.65-2.07-14.73-1.99c-1.38,0.02-2.63,0.14-3.75,0.38
	c-10.91,2.34-29.6,6.89-43.63,52.46c0,0-10.91,46.23-13.76,49.61c-2.85,3.38-1.43,6.1-2.79,8.34c-1.37,2.24-3.13,16.07-3.13,16.07
	l-1.55,21.43c0,0-7.73,7.19,0.33,16.43c0.34,0.38,0.71,0.78,1.1,1.17c-1.29,0.1-2.56,16.54,0.32,33.63
	c3.11,18.5,3.31,22.98,3.31,22.98s-1.95,7.79,1.95,13.25c0.79,2.92,1.17,6.61,1.37,9.59c0.2,2.97,0.2,5.21,0.2,5.21
	s0.07-0.31,0.24-0.85c-0.68,5.08-1.22,11.66-0.24,15.27c1.05,3.85,1.99,8.79,2.68,12.48c0.47,2.47,0.83,4.39,1.03,5.05
	c0.1,0.34,0.21,1.04,0.33,1.92c-3.48,6.5-6.22,12.14-7.74,16.19c-1.03,0.78-2.05,1.58-3.09,2.44c-22.95,18.77-47.78,54.41-53,62.23
	c-0.79,1.18-1.61,2.46-2.45,3.79c-25.02-12.56-46.64-13.14-46.64-13.14s20.25-95.05,23.76-98.56c3.51-3.51,0.78-25.32,3.89-28.04
	c3.11-2.73,24.93-64.29,33.51-80.25c8.57-15.97,49.08-98.56,60.37-125.83c11.3-27.27,28.44-42.07,41.68-45.97
	c7.55-2.22,23.98-10.14,36.7-16.56c0.01,0,0.01,0,0.01,0c6.86,2.67,26.98,11.33,41.84,37.26c-11.61-7.4-20.33-5.31-20.33-5.31
	l5.8,18.37C455.1,251.59,465.15,262.27,471.37,269.12z"/>
<path fill="#FFFFFF" stroke="#000000" stroke-miterlimit="10" d="M471.52,236.14c-0.5,1.21-0.96,2.16-1.28,2.8
	c-0.21-0.14-0.42-0.28-0.62-0.4c-14.85-25.92-34.97-34.59-41.84-37.26c4-2.01,7.63-3.87,10.5-5.34c3.54,1.88,6.95,3.99,9.86,6.32
	C461,212.57,469.77,227.19,471.52,236.14z"/>
<path fill="#FFFFFF" stroke="#000000" stroke-miterlimit="10" d="M488.86,726.99c0,0-1.95,15.19-5.85,30.78
	c-0.1,0.38-0.19,0.78-0.27,1.19c0,0,0,0,0,0.01c-0.66,3.17-0.98,7.07-1.08,11.3c-2.28,0.43-4.58,0.92-6.91,1.43
	c-0.2-1.65-0.43-3.36-0.7-5.1c-0.46-2.96-0.83-5.76-1.15-8.39c-0.45-3.86-0.76-7.38-0.96-10.55c-0.49-7.83-0.33-13.6-0.03-17.39
	c0.34-0.17,0.68-0.36,1.02-0.55c-0.08-1.49-0.19-3.19-0.32-5.07c-0.47-7.12-1.24-16.58-1.96-25.04c4-2.23,8.27-4.48,12.51-6.48
	L488.86,726.99z"/>
<path fill="#FFFFFF" stroke="#000000" stroke-miterlimit="10" d="M621.16,310.36c-21.5-26.84-36.71-57.01-40.62-72.66
	c-3.29-13.18-20.18-25.41-26.18-29.41c4.77,0.37,9.61,0.92,13.19,1.75c10.13,2.34,24.15,11.69,26.74,16.11
	c2.6,4.42,12.21,39.99,17.66,47.52C616.04,279.32,620.29,295.94,621.16,310.36z"/>
<path fill="#FFFFFF" stroke="#000000" stroke-miterlimit="10" d="M597.36,448.07c-1.02,2.72-2.28,12.57-3.27,21.44
	c-0.62,5.65-1.15,10.91-1.41,13.69c-1.77-1.01-3.78-1.89-6.04-2.55c-2.08-0.6-4.17-0.81-6.25-0.72c-3.42-17.86-2.7-36.55-2.7-36.55
	l-12.67-9.36l-2.54-11.88c-0.38-1.36-0.97-10.12-0.97-10.12s-0.01-0.17-0.02-0.5c-0.12-2.56-0.67-14.19-1.39-17.77
	c-0.11-0.55-0.22-0.91-0.34-1.02c-0.82-0.82-3.86-5.52-4.79-6.97c-0.17-0.27-0.27-0.43-0.27-0.43l-8.96-14.02
	c0,0,16.79-13.44,24.95-35.85c2.54,9.09,10.54,36.54,15.56,39.94c1.44,4.9,5.44,21.99,7.87,27.52c0.17,0.4,0.34,0.74,0.5,1.02
	c-4.9,7.85-1.89,16.2-1.01,18.3v0.01c0.14,0.32,0.23,0.49,0.23,0.49l0.78,10.51c0,0,0.26,7.05,1.62,11.9
	c-0.34,0.21-0.68,0.4-1.01,0.61c0.48,0.35,0.99,0.71,1.55,1.09C596.96,447.31,597.15,447.71,597.36,448.07z"/>
<path fill="#FFFFFF" stroke="#000000" stroke-miterlimit="10" d="M505.84,437.76c-1.93,0.24-4.02,0.48-6.24,0.72
	c-1.75,0.2-3.57,0.38-5.46,0.58c-10.19,1.05-21.92,2.19-31.8,3.75c-1.96,0.31-3.84,0.63-5.62,0.97c-1.14,0.22-2.55,0.47-4.18,0.75
	c-5.91,1.03-14.75,2.4-24.26,3.86c-17.57,2.68-37.47,5.56-45.56,6.73c1.6-2.51,2.52-3.95,2.52-3.95s13.07-24.47,16.84-29.88
	c5.34,1.24,14.11,3.2,19.38,3.97c5.72,0.84,26.74-1.21,46.11-0.6c0.01,0,0.01,0,0.01,0c7.72,0.24,15.17,0.92,21.28,2.36
	c3.29,0.78,6.36,1.91,9.19,3.29C499.91,433.46,502.61,436.05,505.84,437.76z"/>
<path fill="#FFFFFF" stroke="#000000" stroke-miterlimit="10" d="M628.67,394.69c-14.84-0.31-26.96,4.31-34.55,8.24
	c-2.43-5.53-6.43-22.62-7.87-27.52c-5.03-3.4-13.03-30.84-15.56-39.94v-0.01c0.46-1.22,0.89-2.47,1.28-3.76
	c0.82,1.31,1.6,2.26,2.34,2.74c4.42,2.85,34.57,22.07,47.02,45.18C624.8,386.09,627.13,390.99,628.67,394.69z"/>
<path fill="#FFFFFF" stroke="#000000" stroke-miterlimit="10" d="M631.43,405.86c0,0,0.01,0.1,0.04,0.28
	c-19.84,0.09-30.8,9.41-37.86,16.1c-0.89-2.1-3.89-10.45,1.01-18.3c-0.16-0.27-0.33-0.61-0.5-1.02c7.59-3.93,19.71-8.55,34.55-8.24
	C632.65,404.24,631.43,405.86,631.43,405.86z"/>
<path fill="#FFFFFF" stroke="#000000" stroke-miterlimit="10" d="M632.83,526.63c-6.14,0.43-30.06,0.14-55.23-7.33
	c-0.09-0.02-0.16-0.05-0.25-0.08c-2.17-0.7-4.32-1.39-6.37-2.05c-0.19-0.07-0.36-0.13-0.55-0.19c-2.66-0.94-5.32-1.97-7.96-3.08
	c-26.77-11.36-56.73-64.18-62.88-75.41c2.22-0.24,4.31-0.48,6.24-0.72c1.76,0.94,3.66,1.62,5.69,1.98h0.01
	c1.17,0.23,2.37,0.34,3.61,0.34c2.47,0,4.83-0.45,7.01-1.27c-0.02,0.34-0.27,7.74,7.02,15.09c7.46,7.53,26.94,27.02,27.47,34.55
	c0.93-0.39,1.9-0.83,2.91-1.32c5.19-2.46,11.34-5.79,17.73-6.86c1.03-0.17,2.07-0.28,3.1-0.33c2.08-0.09,4.18,0.12,6.25,0.72
	c2.26,0.66,4.27,1.54,6.04,2.55c1.75,0.99,3.27,2.09,4.55,3.18c3.62,3.04,5.39,5.96,5.39,5.96s0.49,0.19,1.21,0.58
	c-0.33,0.4-0.64,0.79-0.95,1.17c1.77,1.24,3.75,2.5,5.91,3.72v0.01c0.77,1.56,1.1,3.46,0.58,5.77c4.36-0.05,10.84,0.52,15.84,2.16
	c2.44,0.8,4.52,1.85,5.85,3.21c4.02,4.15,0,5.19,0,5.19s4.25,5.54,4.62,9.25C635.86,525.13,635.18,526.47,632.83,526.63z"/>
<path fill="#FFFFFF" stroke="#000000" stroke-miterlimit="10" d="M451.26,704.8l-1.18,7.41c-0.37,0.24-0.57,0.37-0.57,0.37
	s-19.29-15.83-34.92-27.91c-5.32-4.11-10.22-7.79-13.78-10.27c-14.02-9.74-37.01-11.68-72.45-19.08
	c-15.79-3.29-30.27-9.21-41.47-14.78c-2.62-1.3-5.06-2.58-7.29-3.79c-9.68-5.29-15.53-9.48-15.53-9.48s1.81-3.26,4.33-7.55
	c3.18,2.59,8.03,6.22,14.18,9.89c1.38,0.83,2.82,1.65,4.33,2.46c6.91,3.76,15.1,7.31,24.21,9.61c25.4,6.42,53.34,8.59,74.6,16.98
	c1.98,0.78,3.9,1.61,5.75,2.5C413.28,671.68,442.1,695.47,451.26,704.8z"/>
<path fill="#FFFFFF" stroke="#000000" stroke-miterlimit="10" d="M498.05,430.32c-2.83-1.38-5.9-2.51-9.19-3.29
	c-6.11-1.44-13.56-2.12-21.28-2.36c0,0,0,0-0.01,0c-21.37-10.93-50.75-23-51.75-23.16c-0.92-0.15-11.79-2.49-16.34-3.46
	c0.56-7.38,1.98-14.94,3.41-20.55c3.09-0.22,8.15-0.49,13.4-0.44c6.34,3.96,23.19,14.12,39.06,20.75c1.65,0.69,3.32,1.4,5.02,2.12
	h0.01c13.91,5.95,28.62,12.78,35.39,15.95c-0.32,1.39-0.48,2.84-0.48,4.33C495.29,423.91,496.29,427.36,498.05,430.32z"/>
<path fill="#FFFFFF" stroke="#000000" stroke-miterlimit="10" d="M467.57,424.67c-19.37-0.61-40.4,1.44-46.11,0.6
	c-5.27-0.77-14.03-2.73-19.38-3.97c0.28-0.43,0.52-0.73,0.69-0.9c-3.39-4.62-3.97-13.36-3.29-22.36c4.55,0.97,15.42,3.31,16.34,3.46
	C416.82,401.67,446.2,413.74,467.57,424.67z"/>
<path fill="#FFFFFF" stroke="#000000" stroke-miterlimit="10" d="M534.4,415.25v-0.01c-2.22-8.57-9.99-14.9-19.25-14.9
	c-9.49,0-17.42,6.65-19.39,15.54c-0.32,1.39-0.48,2.84-0.48,4.33c0,3.69,1.01,7.15,2.77,10.11c1.86,3.14,4.56,5.73,7.79,7.44
	c1.76,0.94,3.66,1.62,5.69,1.98h0.01c1.17,0.23,2.37,0.34,3.61,0.34c2.47,0,4.83-0.45,7.01-1.27c0-0.01,0-0.01,0-0.01
	c4.1-1.54,7.55-4.39,9.84-8.05h0.01c0.15-0.26,0.32-0.52,0.46-0.79v-0.01c0.32-0.55,0.6-1.11,0.85-1.69
	c1.09-2.46,1.71-5.18,1.71-8.04C535.02,418.5,534.81,416.83,534.4,415.25z M518.47,432.09c-5.17,0-9.36-4.19-9.36-9.34
	c0-5.17,4.19-9.36,9.36-9.36c5.16,0,9.34,4.19,9.34,9.36C527.81,427.91,523.63,432.09,518.47,432.09z"/>
<path fill="#FFFFFF" stroke="#000000" stroke-miterlimit="10" d="M527.81,422.75c0,5.16-4.19,9.34-9.34,9.34
	c-5.17,0-9.36-4.19-9.36-9.34c0-5.17,4.19-9.36,9.36-9.36C523.63,413.39,527.81,417.58,527.81,422.75z"/>
<path fill="#FFFFFF" stroke="#000000" stroke-miterlimit="10" d="M560.1,393.76c-5.83,6.79-20.1,17.41-25.7,21.48
	c-2.22-8.57-9.99-14.9-19.25-14.9c-9.49,0-17.42,6.65-19.39,15.54c-6.77-3.17-21.48-10-35.39-15.95h-0.01
	c-1.69-0.72-3.37-1.43-5.02-2.12c-15.87-6.63-32.72-16.8-39.06-20.75c3.51,0.03,7.1,0.23,10.24,0.69
	c10.71,1.55,48.49,7.99,63.5,9.54c12.51,1.3,52.17-0.79,64.94-1.52c0.93,1.45,3.97,6.15,4.79,6.97
	C559.88,392.85,559.99,393.22,560.1,393.76z"/>
<path fill="#FFFFFF" stroke="#000000" stroke-miterlimit="10" d="M533.32,428.26c1.09-2.46,1.71-5.18,1.71-8.04
	c0-1.72-0.22-3.38-0.62-4.96v-0.01c5.6-4.07,19.87-14.69,25.7-21.48c0.72,3.58,1.27,15.21,1.39,17.77
	C553.12,419.35,537.75,426.34,533.32,428.26z"/>
<path fill="#FFFFFF" stroke="#000000" stroke-miterlimit="10" d="M470.33,545.43c-1.86,10.91-2.46,23.09-0.8,36.22
	c-0.51,0.61-1.01,1.23-1.45,1.86c-7.15,9.89-6.4,32.95-5.34,49.61c0,0.01,0,0.01,0,0.02l-11.48,71.66
	c-9.16-9.33-37.98-33.13-59.79-43.64c-1.85-0.9-3.77-1.73-5.75-2.5c2.68-15.36,2.9-46.84,2.9-46.84c-0.11-1.31-0.15-2.69-0.14-4.11
	c0-0.01,0-0.01,0-0.02c0.24-25.13,18.83-66.51,18.83-70.93c0-4.67,27.27-56.88,32.98-63.85c3.99-4.87,9.37-19.79,12.25-28.36
	c1.63-0.28,3.04-0.54,4.18-0.75c1.78-0.34,3.66-0.67,5.62-0.97c1.74,7.62,6.75,23.89,17.43,41.74c2.73,4.58,5.54,9.24,8.26,13.86
	C482.54,507.31,473.99,523.85,470.33,545.43z"/>
<path fill="#FFFFFF" stroke="#000000" stroke-miterlimit="10" d="M524.3,272.87c-3.91,5.36-13.83,18.95-21.35,29.39
	c-5.21,7.24-9.28,12.95-9.42,13.36c-0.39,1.17-5.95,5.63-7.41-0.79c-0.27-1.17-1.57-3.75-3.6-7.26c-0.68-1.19-1.44-2.49-2.3-3.89
	c-8.94-14.78-25.84-39.4-35.39-50.11c2.15,0.93,4.37,2.01,6.56,3.17c0.01,0,0.01,0.01,0.01,0.01h0.01
	c7.59,10.24,24.36,33.17,31.48,45.26c0.57,0.97,1.08,1.88,1.52,2.7c0.77,1.45,1.31,2.64,1.57,3.51c2.86,9.34,5.72,4.67,5.72,4.67
	l8.49-12.2l20.9-29.98C522.1,271.37,523.17,272.1,524.3,272.87z"/>
<path fill="#FFFFFF" stroke="#000000" stroke-miterlimit="10" d="M479.28,331.2c-2.68,7.54-8.74,24.37-13.38,35.56
	c-1.49-13.29-6.55-40.13-9.29-50.77c-3.41-13.24-10.81-16.74-13.6-40.7c-1.65-14.09-4.44-21.38-6.44-24.98
	c2.23,0.83,4.32,1.64,6.2,2.38c0.68,0.27,1.37,0.56,2.07,0.86v0.01c9.55,10.71,26.45,35.33,35.39,50.11
	c-7.25,5.07-11.68,12.58-11.77,12.84C468.46,316.52,472.01,325.43,479.28,331.2z"/>
<path fill="#FFFFFF" stroke="#000000" stroke-miterlimit="10" d="M533.32,279.31c-2.81,7.34-13.08,29.7-17.97,49.94
	c-3.81,15.77-12.68,31.98-22.2,41.52c-9.18-0.24-18.91-0.52-26.94-0.77c-0.07-0.95-0.17-2.04-0.31-3.24
	c4.63-11.19,10.7-28.02,13.38-35.56c-7.28-5.77-10.82-14.68-10.82-14.68c0.09-0.26,4.52-7.77,11.77-12.84
	c0.85,1.4,1.62,2.7,2.3,3.89c2.02,3.51,3.32,6.09,3.6,7.26c1.46,6.42,7.02,1.96,7.41,0.79c0.14-0.4,4.21-6.12,9.42-13.36
	c7.52-10.44,17.43-24.03,21.35-29.39C527.06,274.75,530.15,276.94,533.32,279.31z"/>
<path fill="#FFFFFF" stroke="#000000" stroke-miterlimit="10" d="M632.27,394.87c-1.22-0.09-2.43-0.14-3.61-0.17
	c-1.54-3.71-3.87-8.6-7.34-15.06c-12.45-23.12-42.6-42.33-47.02-45.18c-0.74-0.48-1.52-1.43-2.34-2.74
	c-3.09-4.96-6.84-15.12-12.48-24.95c0,0,0,0,0-0.01c-1.64-2.87-3.44-5.72-5.44-8.39c-3.11-4.19-7.85-8.68-12.97-12.94
	c0.89-2.57,1.62-4.68,2.12-6.13c7.95,6.46,16.15,14.54,21.83,23.74c14.74,23.89,9.03,23.38,15.52,28.06
	C586.95,335.68,611.63,347.73,632.27,394.87z"/>
<path fill="#FFFFFF" stroke="#000000" stroke-miterlimit="10" d="M633.77,428.5c-7.03,1.58-14.79,4.75-21.94,8.24
	c-5.84,2.83-11.28,5.87-15.6,8.43c-1.36-4.85-1.62-11.9-1.62-11.9l-0.78-10.51c0,0-0.09-0.17-0.23-0.49v-0.01
	c7.06-6.69,18.02-16.01,37.86-16.1C631.75,407.95,633.26,418.16,633.77,428.5z"/>
<path fill="#FFFFFF" stroke="#000000" stroke-miterlimit="10" d="M577.28,480.27c-6.38,1.07-12.54,4.4-17.73,6.86
	c-7.81-26.63-24.53-38.42-24.53-38.42l-2.47-18.15c4.01-1.31,8.04-2.66,11.85-3.88l6.26,23.33l19.22,15.77L577.28,480.27z"/>
<path fill="#FFFFFF" stroke="#000000" stroke-miterlimit="10" d="M559.55,487.13c-1.01,0.49-1.98,0.93-2.91,1.32
	c-0.52-7.53-20-27.02-27.47-34.55c-7.29-7.36-7.04-14.75-7.02-15.09c0-0.01,0-0.01,0-0.01c4.1-1.54,7.55-4.39,9.84-8.05h0.01
	c0.19-0.07,0.37-0.12,0.55-0.19l2.47,18.15C535.02,448.72,551.74,460.5,559.55,487.13z"/>
<path fill="#FFFFFF" stroke="#000000" stroke-miterlimit="10" d="M570.44,516.98c-10.59-3.49-19.27-6.62-23.33-8.79
	c-10.62-5.64-26.67-19.56-33.35-25.52v-0.01c-9.18-19.03-16.84-36.97-19.62-43.6c1.89-0.2,3.72-0.38,5.46-0.58
	c6.14,11.24,36.11,64.06,62.88,75.41C565.11,515.01,567.78,516.04,570.44,516.98z"/>
<path fill="#FFFFFF" stroke="#000000" stroke-miterlimit="10" d="M564.96,678c-1.9,11.68-3.64,19.38-3.64,19.38
	s-6.87-2.24-16.18-4.73c-12.63-3.39-29.75-7.24-40.26-6.56c-5.9,0.38-13.77,3.28-21.72,7.04c-4.24,2-8.51,4.25-12.51,6.48
	c-3.19,1.78-6.22,3.55-8.92,5.19c0.15-3.63,0.42-9.65,0.69-16.48c1.25-0.74,3.78-2.24,6.9-4.15c8-4.91,19.86-12.53,23.69-16.78
	C498.05,661.82,537.51,665.35,564.96,678z"/>
<path fill="#FFFFFF" stroke="#000000" stroke-miterlimit="10" d="M475.66,786.86c-5.36-4.9-12.62-8.14-20.18-10.28
	c6.47-1.77,12.93-3.45,19.27-4.87C475.39,777.25,475.63,782.29,475.66,786.86z"/>
<path fill="#FFFFFF" stroke="#000000" stroke-miterlimit="10" d="M475.4,797.07c-0.27,5.14-0.66,9.53-0.73,13.3
	c-5.78-2.31-24.73-8.77-47.46-5.01c0.48-4.17,0.46-11.66-2.64-20.39c0,0,0.02,0,0.07-0.01C425.89,784.79,444.45,782.61,475.4,797.07
	z"/>
<path fill="#FFFFFF" stroke="#000000" stroke-miterlimit="10" d="M476.06,820.47c-20.24-4.39-41.02-0.43-48.96,0.84
	c-1.24-5.05-1.06-11.49-0.57-12.63c0.2-0.47,0.48-1.62,0.69-3.31c22.72-3.76,41.67,2.7,47.46,5.01
	C474.6,814.4,474.88,817.73,476.06,820.47z"/>
<path fill="#FFFFFF" stroke="#000000" stroke-miterlimit="10" d="M480.8,839.06c-0.01,0.01-0.01,0.01-0.01,0.02
	c0,0.01,0,0.01,0,0.01c-3.85,4.93-17.29,12.18-31.17,12.18c-5.62,0-9.84-1.7-12.86-3.74c-0.03-0.15-0.07-0.3-0.1-0.43
	c-0.37-1.36-0.61-2.89-0.8-4.48v-0.01c-0.77-6.37-0.77-13.78-4.92-15.24c-1.91-0.67-3.11-3.14-3.85-6.07
	c7.95-1.27,28.72-5.24,48.96-0.84c0.02,0.05,0.04,0.1,0.07,0.15C480.29,829.97,480.03,837.24,480.8,839.06z"/>
<path fill="#FFFFFF" stroke="#000000" stroke-miterlimit="10" d="M480.79,839.09l-16.35,40.74l-27.78-2.6c0,0,1.74-22.46,0.1-29.71
	c3.03,2.03,7.25,3.74,12.86,3.74C463.5,851.27,476.95,844.02,480.79,839.09z"/>
<path fill="#FFFFFF" stroke="#000000" stroke-miterlimit="10" d="M544.29,777.17c-0.17,3.8-0.44,7.53-0.81,11.1
	c-17.86-0.12-51.1-3.11-61.53-4.09c-0.26-4.68-0.4-9.48-0.3-13.91c12.08-2.31,23.48-3.31,33.3-1.6
	C524.42,770.32,534.5,773.42,544.29,777.17z"/>
<path fill="#FFFFFF" stroke="#000000" stroke-miterlimit="10" d="M543.48,788.27c-0.46,4.4-1.08,8.57-1.9,12.35
	c-0.07,0.31-0.13,0.61-0.21,0.92c-4.87,0.1-10.49,0-16.27-0.21h-0.02c-16.96-0.62-35.51-2.24-41.94-2.83
	c-0.45-4.22-0.9-9.19-1.19-14.32C492.39,785.16,525.63,788.15,543.48,788.27z"/>
<path fill="#FFFFFF" stroke="#000000" stroke-miterlimit="10" d="M540.42,805.86c-2.08,9.12-4.14,17.45-6.01,24.77h-9.45
	c-14.55,0-40.74,10.2-40.74,10.2c0.25-3.86,0.39-6.7,0.39-6.7v-11.28L540.42,805.86z"/>
<path fill="#FFFFFF" stroke="#000000" stroke-miterlimit="10" d="M534.41,830.62c-0.93,3.66-1.8,7.07-2.61,10.2
	c-11.61-1.07-48.22,8.51-48.22,8.51c0.25-2.92,0.47-5.95,0.63-8.51c0,0,26.2-10.2,40.74-10.2H534.41z"/>
<path fill="#FFFFFF" stroke="#000000" stroke-miterlimit="10" d="M531.8,840.82c-2.54,9.96-4.25,17.04-4.25,20.32
	c0,0.61-0.02,1.37-0.07,2.24c-9.75,3.2-23.07,3.91-31.23,8.14c-10.51,5.45-17.14,17.92-18.31,22.59
	c-3.11-20.25,3.51-28.82,4.68-36.22c0.35-2.26,0.68-5.36,0.95-8.56C483.58,849.33,520.19,839.75,531.8,840.82z"/>
<path fill="#FFFFFF" stroke="#000000" stroke-miterlimit="10" d="M535.87,938.53c-4.81,6.22-12.19,4.19-14.4,3.38
	c-0.42-0.15-0.66-0.26-0.66-0.26s-0.01,0.11-0.07,0.31c-15.02,0.84-36.31-6.79-42.49-9.16c-1.2,1.39-3.03,2.97-4.93,4.47
	c0.13-0.42,0.26-0.77,0.35-1.07c0.64-2.25,5.25-15.61,5.1-31.58v-0.01c1.6-3.4,3.56-7.08,5.69-10.48c0,0,0,0,0.01-0.01
	c3.98-6.33,8.54-11.68,12.36-12.46c8.96-1.81,14.74,1.04,28.12,10.65c0,0,14.02,10.91,13.5,19.22
	C537.94,919.83,541.58,931.13,535.87,938.53z"/>
<path fill="#FFFFFF" stroke="#000000" stroke-miterlimit="10" d="M527.48,863.38c-0.12,2.85-0.44,6.95-0.8,11.16
	c-6.33,1.25-12.13,0.08-21.8,2.44c-13.83,3.38-20.26,16.65-20.41,17.14c-0.01,0.01-0.01,0.01-0.01,0.01
	c-2.13,3.4-4.1,7.08-5.69,10.48c-0.02-3.41-0.27-6.93-0.82-10.49c1.17-4.67,7.79-17.14,18.31-22.59
	C504.41,867.29,517.73,866.58,527.48,863.38z"/>
<path fill="#FFFFFF" stroke="#000000" stroke-miterlimit="10" d="M520.74,941.95c-0.44,1.52-3.66,8.04-26.43,6.32
	c-22.82-1.73-22.01-7.76-21-10.99v-0.01c1.9-1.5,3.73-3.08,4.93-4.47C484.43,935.16,505.72,942.79,520.74,941.95z"/>
<path fill="#FFFFFF" stroke="#000000" stroke-miterlimit="10" d="M541.37,801.54c-0.32,1.46-0.63,2.89-0.95,4.31v0.01l-55.82,16.98
	v-12.48c0,0,0-0.02-0.01-0.07l40.48-8.96h0.02C530.88,801.54,536.5,801.64,541.37,801.54z"/>
<path fill="#FFFFFF" stroke="#000000" stroke-miterlimit="10" d="M541.58,712.58c0,0,1.84,15.61,2.63,34.92
	c-6.21-7.1-15.3-13.1-27.71-10.78c-17.66,3.32-28.46,14.79-33.77,22.23c0.09-0.42,0.17-0.81,0.27-1.19
	c3.9-15.59,5.85-30.78,5.85-30.78l-5.69-33.86c7.95-3.76,15.81-6.66,21.72-7.04c10.51-0.68,27.63,3.17,40.26,6.56L541.58,712.58z"/>
<path fill="#FFFFFF" stroke="#000000" stroke-miterlimit="10" d="M544.29,777.17c-9.79-3.75-19.87-6.84-29.33-8.49
	c-9.83-1.72-21.22-0.71-33.3,1.6c0.1-4.23,0.43-8.13,1.08-11.3c0-0.01,0-0.01,0-0.01c5.31-7.44,16.11-18.91,33.77-22.23
	c12.4-2.33,21.5,3.67,27.71,10.78v0.01C544.61,756.98,544.75,767.32,544.29,777.17z"/>
<path fill="none" stroke="#000000" stroke-miterlimit="10" d="M478.25,932.79c1.07-1.22,1.67-2.28,1.45-3.03
	c-0.97-3.31-3.22-3.9,0.04-8.37c3.27-4.48,15.54-21.95,23.91-22.77c8.38-0.81,35.13,12.47,35.19,32.33"/>
<path fill="#FFFFFF" stroke="#000000" stroke-miterlimit="10" d="M525.08,801.33l-40.48,8.96c-0.09-0.61-0.77-5.3-1.45-11.79
	C489.57,799.09,508.12,800.71,525.08,801.33z"/>
<path fill="#FFFFFF" stroke="#000000" stroke-miterlimit="10" d="M526.69,874.54c-0.75,8.63-1.73,17.76-1.73,17.76
	c-13.38-9.61-19.16-12.46-28.12-10.65c-3.83,0.78-8.38,6.13-12.36,12.46c0.14-0.49,6.58-13.76,20.41-17.14
	C514.55,874.61,520.36,875.78,526.69,874.54z"/>
<path fill="#FFFFFF" stroke="#000000" stroke-miterlimit="10" d="M472.92,885.54c0.96,4.68,0.24,14.82-2.2,22.29
	c0,0.01,0,0.01-0.01,0.02c-5.04,6-11.86,8.27-11.86,8.27c-10.51,4.87-26.88,3.31-30.38,0c-1.86-1.75-2.19-12.73-2.09-23.31
	c0,0,0.01-0.01,0-0.02c0.47-2.02,0.92-4.04,1.31-6.02c2.39-12,5.51-29.2,7.5-40.41c0.48,0.4,1.01,0.79,1.56,1.17
	c1.64,7.25-0.1,29.71-0.1,29.71l27.78,2.6l16.35-40.74C480.51,840.4,471.81,880.18,472.92,885.54z"/>
<path fill="#FFFFFF" stroke="#000000" stroke-miterlimit="10" d="M470.72,907.85c-0.39,1.22-0.84,2.37-1.33,3.41
	c-3.51,7.4-19.49,19.87-36.23,16.74c-14.86-2.77-10.4-19.24-6.77-35.19c-0.1,10.58,0.23,21.56,2.09,23.31
	c3.51,3.31,19.87,4.87,30.38,0C458.86,916.12,465.68,913.85,470.72,907.85z"/>
<path fill="#FFFFFF" stroke="#000000" stroke-miterlimit="10" d="M497.84,199.93c-1.46,8-10.74,30.76-10.74,30.76
	s-8.18-15-11.68-27.27c-2.2-7.67-6.37-22.3-9.19-32.17c2.27,5.16,5.45,11.12,8.09,15.22c1.19,1.87,2.28,3.36,3.11,4.22
	c3.9,4.02,10.53,8.96,16.11,9.61C494.74,200.44,496.21,200.33,497.84,199.93z"/>
<path fill="#FFFFFF" stroke="#000000" stroke-miterlimit="10" d="M514,266.14c0,0,2.85,1.74,7.1,4.57l-20.9,29.98l-8.49,12.2
	c0,0-2.85,4.68-5.72-4.67c-0.26-0.86-0.81-2.05-1.57-3.51c0.92-1.46,1.81-2.98,2.69-4.56c3.97-7.15,7.39-15.27,10.34-23.21
	c6.33-16.98,10.5-33.23,13.22-37.8c-10.65-21.3,1.81-28.31,4.68-29.35c1.48-0.54,4.43-4.3,6.99-8.24
	c-1.08,4.19-2.23,7.89-3.37,10.44c-3.09,6.97-4.51,16.96-5.1,26.47c-0.78,12.49-0.12,24.14,0.08,27.01c0,0.08,0.01,0.14,0.01,0.2
	c0,0.08,0.01,0.13,0.01,0.19c0.01,0.15,0.02,0.25,0.02,0.28C514,266.14,514,266.14,514,266.14z"/>
<path fill="#FFFFFF" stroke="#000000" stroke-miterlimit="10" d="M497.45,276.94c-2.95,7.95-6.37,16.07-10.34,23.21
	c-0.87,1.57-1.77,3.09-2.69,4.56c-0.44-0.82-0.95-1.73-1.52-2.7c-7.12-12.09-23.89-35.02-31.48-45.26
	c8.3,4.38,16.27,9.79,19.95,12.37c1.33,0.94,2.1,1.5,2.1,1.5l-3.71-30.78c0,0,0.11-0.19,0.3-0.56c0.05-0.1,0.12-0.22,0.19-0.35
	c0.32-0.63,0.78-1.58,1.28-2.8c-1.5-9.48-7.86-16.93-8.19-34.67c-0.02-1.3-0.03-2.63-0.03-3.98c3.84,10.16,9.24,22.97,14.06,28.91
	C484.74,235.5,488.99,262.87,497.45,276.94z"/>
<path fill="#FFFFFF" stroke="#000000" stroke-miterlimit="10" d="M522.35,201.55c-2.57,3.95-5.52,7.71-6.99,8.24
	c-2.86,1.04-15.32,8.04-4.68,29.35c-2.72,4.58-6.9,20.82-13.22,37.8c-8.46-14.07-12.71-41.43-20.09-50.54
	c-4.82-5.93-10.22-18.74-14.06-28.91c0.01-10.96,0.81-22.93,1.37-30.02c0.44,1.16,0.94,2.42,1.53,3.72
	c0.01,0.02,0.01,0.04,0.02,0.07c2.82,9.87,6.99,24.49,9.19,32.17c3.51,12.27,11.68,27.27,11.68,27.27s9.28-22.75,10.74-30.76
	c5.21-1.25,11.9-5.43,15.9-13.66c0.21,0.26,0.3,0.36,0.24,0.21c-0.03-0.09-0.08-0.24-0.13-0.45c0.45-0.94,0.86-1.95,1.24-2.99
	c2.26-6.4,3.73-13.1,4.98-18.57c3.46,1.57,7.95,3.71,8.26,4.32C528.73,169.55,525.86,188.05,522.35,201.55z"/>
<path fill="#FFFFFF" stroke="#000000" stroke-miterlimit="10" d="M473.47,270.62c0,0-0.77-0.56-2.1-1.5
	c-6.22-6.85-16.27-17.53-16.27-17.53l-5.8-18.37c0,0,8.72-2.09,20.33,5.31c0.15,0.25,0.3,0.5,0.44,0.75
	c-0.19,0.37-0.3,0.56-0.3,0.56L473.47,270.62z"/>
<path fill="#FFFFFF" stroke="#000000" stroke-miterlimit="10" d="M571.97,331.7c-0.39,1.29-0.82,2.54-1.28,3.76v0.01
	c-8.16,22.41-24.95,35.85-24.95,35.85s-4.73,0-11.12,0c12.69-13.26,21.26-48.8,24.86-64.57
	C565.12,316.59,568.87,326.74,571.97,331.7z"/>
<path fill="#FFFFFF" stroke="#000000" stroke-miterlimit="10" d="M559.48,306.74c0,0.01,0,0.01,0,0.01
	c-3.61,15.77-12.18,51.31-24.86,64.57h-13.43c-2.22,0-5.6-0.04-9.69-0.13c9.55-11.14,10.68-29.89,15.34-43.89
	c4.39-13.19,10.61-31.39,14.23-41.89c5.13,4.26,9.86,8.75,12.97,12.94C556.04,301.03,557.85,303.87,559.48,306.74z"/>
<path fill="#FFFFFF" stroke="#000000" stroke-miterlimit="10" d="M541.07,285.41c-3.62,10.5-9.84,28.7-14.23,41.89
	c-4.67,14-5.79,32.76-15.34,43.89c-5.22-0.1-11.64-0.25-18.34-0.43c9.52-9.54,18.38-25.75,22.2-41.52
	c4.89-20.24,15.16-42.59,17.97-49.94C535.91,281.24,538.53,283.29,541.07,285.41z"/>
<path fill="#FFFFFF" stroke="#000000" stroke-miterlimit="10" d="M543.19,279.28c-0.5,1.45-1.23,3.56-2.12,6.13
	c-2.54-2.12-5.16-4.16-7.75-6.1c-3.17-2.37-6.26-4.56-9.02-6.44c-1.14-0.78-2.21-1.5-3.2-2.16c-4.25-2.83-7.1-4.57-7.1-4.57
	s0,0,0-0.01c1.51-0.33,3.6-0.99,6.47-2.27c0.98,0.54,2.28,1.29,3.85,2.23C529.01,268.9,536,273.42,543.19,279.28z"/>
<path fill="#FFFFFF" stroke="#000000" stroke-miterlimit="10" d="M524.3,261.99c-1.41,0.73-2.69,1.34-3.84,1.87
	c-2.87,1.28-4.96,1.95-6.47,2.27c0-0.03-0.01-0.13-0.02-0.28c0-0.05-0.01-0.11-0.01-0.19c0-0.05-0.01-0.12-0.01-0.2
	c-0.2-2.86-0.85-14.51-0.08-27.01c0.7-0.28,2.3-0.94,4.2-1.72c3.93-1.58,9.16-3.64,10.26-3.81
	C530.15,232.64,535.87,256.01,524.3,261.99z"/>
<path fill="#FFFFFF" stroke="#000000" stroke-miterlimit="10" d="M562.48,422.16c-3.69,0.14-10.42,2.08-18.08,4.52
	c-3.8,1.22-7.84,2.57-11.85,3.88l-0.09-0.6v-0.01c0.32-0.55,0.6-1.11,0.85-1.69c4.43-1.91,19.8-8.91,28.17-16.72
	c0.01,0.33,0.02,0.5,0.02,0.5S562.1,420.8,562.48,422.16z"/>
<path fill="#FFFFFF" stroke="#000000" stroke-miterlimit="10" d="M580.38,479.94c-1.04,0.04-2.08,0.15-3.1,0.33l-7.39-14.48
	l-19.22-15.77l-6.26-23.33c7.66-2.45,14.38-4.38,18.08-4.52l2.54,11.88l12.67,9.36C577.68,443.39,576.96,462.08,580.38,479.94z"/>
<path fill="#FFFFFF" stroke="#000000" stroke-miterlimit="10" d="M594.09,469.51c0.98-8.87,2.25-18.72,3.27-21.44
	c-0.21-0.36-0.39-0.77-0.57-1.2c5.73,3.98,14.98,10.1,19.26,11.13C611.01,461.32,600.36,466.53,594.09,469.51z"/>
<path fill="#FFFFFF" stroke="#000000" stroke-miterlimit="10" d="M633.94,436.38c-0.02,1.19-0.05,2.35-0.13,3.46
	c0,0.01,0,0.01,0,0.02c-0.95,3.22-2.09,6.42-3.36,9.54c0.47,0.42,0.94,0.83,1.4,1.26v0.01c1.14,3.67,0.68,12.48-0.4,21.1
	c-6.48,5.08-13.43,8.5-19.74,10.79v0.01c-5.57,2.02-10.66,3.17-14.48,3.81c-1.28-1.09-2.8-2.19-4.55-3.18
	c0.26-2.79,0.79-8.04,1.41-13.69c6.27-2.98,16.92-8.2,21.96-11.52c-4.27-1.03-13.53-7.15-19.26-11.13c-0.2-0.52-0.38-1.1-0.55-1.7
	c4.32-2.56,9.76-5.6,15.6-8.43c7.15-3.49,14.91-6.66,21.94-8.24C633.91,431.16,633.98,433.83,633.94,436.38z"/>
<path fill="#FFFFFF" stroke="#000000" stroke-miterlimit="10" d="M625.43,504.47c-0.07,0.43-0.14,0.85-0.23,1.29
	c-4.99-1.64-11.48-2.22-15.84-2.16c0.52-2.31,0.19-4.21-0.58-5.77C613.51,500.49,619.12,502.96,625.43,504.47z"/>
<path fill="#FFFFFF" stroke="#000000" stroke-miterlimit="10" d="M631.44,471.78c-1.21,9.6-3.21,18.97-4.68,20.83
	c-0.12,2.92-0.54,7.15-1.33,11.86c-6.32-1.51-11.92-3.98-16.65-6.65v-0.01c-1.23-2.52-3.54-4.11-4.96-4.89
	c-0.72-0.39-1.21-0.58-1.21-0.58s-1.77-2.92-5.39-5.96c3.83-0.64,8.91-1.79,14.48-3.81v-0.01
	C618.01,480.28,624.96,476.86,631.44,471.78z"/>
<path fill="#FFFFFF" stroke="#000000" stroke-miterlimit="10" d="M639.75,660.12c-17.15,20.25-26.49,0-26.49,0
	s-15.59,1.55-18.7-1.56c-3.1-3.1,14.46-76.53-32.9-80.47c-5.5-14.49-13.34-33.58-16.9-42.17c26.35,33.89,95.5,109.65,95.5,109.65
	s10.66-11.43,16.11-9.36C656.37,636.22,656.89,639.86,639.75,660.12z"/>
<path fill="#FFFFFF" stroke="#000000" stroke-miterlimit="10" d="M641.17,538.45l1.17,0.52c-9.95-3.24-40.43-11.92-64.73-19.67
	c25.17,7.48,49.08,7.76,55.23,7.33c2.35-0.16,3.03-1.5,2.84-3.22l6.67,1.02L641.17,538.45z"/>
<path fill="#FFFFFF" stroke="#000000" stroke-miterlimit="10" d="M655.59,544.87c0,0-6.43,31.16-6.43,31.75
	c-21.04-6.7-93.36-44.47-115.11-55.94c-6.73-10.87-13.89-24.7-20.3-38.01c6.68,5.96,22.72,19.88,33.35,25.52
	c4.07,2.16,12.74,5.3,23.33,8.79c0.19,0.05,0.36,0.12,0.55,0.19c2.13,0.74,4.25,1.43,6.37,2.05c0.09,0.02,0.16,0.05,0.25,0.08
	c24.31,7.75,54.79,16.44,64.73,19.67L655.59,544.87z"/>
<path fill="#FFFFFF" stroke="#000000" stroke-miterlimit="10" d="M648.58,621.68l7.79,14.54c-5.45-2.08-16.11,9.36-16.11,9.36
	s-69.15-75.76-95.5-109.65c-0.79-1.88-1.36-3.26-1.66-3.98l1.43,3.68c-2.17-2.8-4.04-5.3-5.55-7.44c-1.61-2.28-3.26-4.8-4.93-7.5
	c21.75,11.46,94.07,49.24,115.11,55.94c0,0.58,1.76,0.78,3.9,2.92C662.8,605.64,648.58,621.68,648.58,621.68z"/>
<path fill="#FFFFFF" stroke="#000000" stroke-miterlimit="10" d="M502.62,525.8c-7.55,1.29-20.46,5.41-32.29,19.63
	c3.66-21.57,12.21-38.12,17.69-47.02C493.67,507.99,498.97,517.43,502.62,525.8z"/>
<path fill="#FFFFFF" stroke="#000000" stroke-miterlimit="10" d="M507.3,547.41c-2.72,12.4-26.78,21.25-37.76,34.24
	c-1.66-13.13-1.06-25.31,0.8-36.22c11.83-14.22,24.73-18.34,32.29-19.63C506.43,534.51,508.47,542.06,507.3,547.41z"/>
<path fill="#FFFFFF" stroke="#000000" stroke-miterlimit="10" d="M475.66,786.86c0.03,3.69-0.09,7.09-0.25,10.21
	c-30.95-14.46-49.51-12.27-50.77-12.11c-0.04,0.01-0.07,0.01-0.07,0.01c-0.55-1.54-1.19-3.13-1.95-4.73
	c-1.06-2.26-1.86-4.89-2.47-7.72c5.08-0.12,20.73-0.08,35.31,4.05c0,0,0,0,0.01,0C463.03,778.72,470.3,781.96,475.66,786.86z"/>
<path fill="#FFFFFF" stroke="#000000" stroke-miterlimit="10" d="M474.75,771.7c-6.34,1.42-12.8,3.1-19.27,4.87
	c-0.01,0-0.01,0-0.01,0c-14.58-4.13-30.23-4.18-35.31-4.05c-0.46-2.13-0.81-4.38-1.06-6.68c9.43,0.74,38.21,2.05,53.81-7.64
	c0.32,2.63,0.69,5.43,1.15,8.39C474.32,768.35,474.55,770.05,474.75,771.7z"/>
<path fill="#FFFFFF" stroke="#000000" stroke-miterlimit="10" d="M472.9,758.2c-15.6,9.69-44.37,8.38-53.81,7.64
	c-0.43-3.81-0.61-7.75-0.63-11.44c12.2,1.73,34.54,2.94,53.48-6.74C472.14,750.83,472.45,754.35,472.9,758.2z"/>
<path fill="#FFFFFF" stroke="#000000" stroke-miterlimit="10" d="M471.94,747.66c-18.94,9.68-41.28,8.47-53.48,6.74
	c-0.1-9.89,0.86-18.12,0.86-18.12l0.19,2.01c0,0,31.11,3.27,52.4-8.02C471.61,734.06,471.45,739.83,471.94,747.66z"/>
<path fill="#FFFFFF" stroke="#000000" stroke-miterlimit="10" d="M472.61,724.65c0,0-0.42,1.84-0.7,5.62
	c-21.29,11.29-52.4,8.02-52.4,8.02l-0.19-2.01l-4.73-51.61c15.63,12.09,34.92,27.91,34.92,27.91s0.2-0.13,0.57-0.37
	c1.5-1.02,5.86-3.9,11.65-7.41c2.7-1.64,5.73-3.41,8.92-5.19C471.37,708.07,472.14,717.54,472.61,724.65z"/>
<path fill="#FFFFFF" stroke="#000000" stroke-miterlimit="10" d="M463.67,649.22c0,6.33-0.68,24.55-1.25,39.11
	c-0.27,6.83-0.54,12.85-0.69,16.48c-5.79,3.51-10.15,6.39-11.65,7.41l1.18-7.41l11.48-71.66
	C463.17,640.09,463.67,645.93,463.67,649.22z"/>
<path fill="#FFFFFF" stroke="#000000" stroke-miterlimit="10" d="M564.96,678c-27.45-12.66-66.91-16.19-71.95-10.61
	c-3.84,4.25-15.69,11.87-23.69,16.78c-3.11,1.91-5.65,3.41-6.9,4.15c0.57-14.56,1.25-32.78,1.25-39.11c0-3.29-0.49-9.13-0.93-16.08
	c0-0.01,0-0.01,0-0.02c-1.06-16.66-1.8-39.72,5.34-49.61c0.45-0.62,0.94-1.25,1.45-1.86c10.98-13,35.04-21.84,37.76-34.24
	c1.17-5.34-0.86-12.9-4.68-21.61c-3.65-8.37-8.95-17.81-14.59-27.39c-2.72-4.62-5.53-9.28-8.26-13.86
	c-10.68-17.85-15.69-34.12-17.43-41.74c9.88-1.56,21.62-2.7,31.8-3.75c2.78,6.62,10.44,24.57,19.62,43.6v0.01
	c6.4,13.31,13.56,27.14,20.3,38.01c1.67,2.7,3.32,5.21,4.93,7.5c1.51,2.14,3.38,4.64,5.55,7.44l22.04,56.32
	C572.98,617.74,568.65,655.37,564.96,678z"/>
<path fill="#FFFFFF" stroke="#000000" stroke-miterlimit="10" d="M508.83,137c-2.15,0.2-9.93,3.9-9.93,3.9s6.71,1.17,8.57,1.36
	c1.85,0.19,7.69-1.36,7.69-1.36S510.97,136.8,508.83,137z M507.78,141.3c-0.7,0-1.27-0.57-1.27-1.28c0-0.7,0.57-1.28,1.27-1.28
	c0.71,0,1.28,0.58,1.28,1.28C509.06,140.74,508.49,141.3,507.78,141.3z"/>
<path fill="#FFFFFF" stroke="#000000" stroke-miterlimit="10" d="M470.74,138.1c-2.14-0.23-6.07,3.49-6.07,3.49s4.02,0.61,6.7,1.28
	c2.68,0.66,7.85-1.97,7.85-1.97S472.88,138.33,470.74,138.1z M471.94,141.92c-0.75,0-1.38-0.62-1.38-1.39
	c0-0.75,0.62-1.38,1.38-1.38c0.77,0,1.39,0.62,1.39,1.38C473.33,141.29,472.71,141.92,471.94,141.92z"/>
<path fill="#FFFFFF" stroke="#000000" stroke-miterlimit="10" d="M509.06,140.02c0,0.71-0.57,1.28-1.28,1.28
	c-0.7,0-1.27-0.57-1.27-1.28c0-0.7,0.57-1.28,1.27-1.28C508.49,138.75,509.06,139.33,509.06,140.02z"/>
<path fill="#FFFFFF" stroke="#000000" stroke-miterlimit="10" d="M473.33,140.53c0,0.77-0.62,1.39-1.39,1.39
	c-0.75,0-1.38-0.62-1.38-1.39c0-0.75,0.62-1.38,1.38-1.38C472.71,139.15,473.33,139.77,473.33,140.53z"/>
<path fill="#FFFFFF" stroke="#000000" stroke-miterlimit="10" d="M465.91,366.77c-0.47,1.13-0.93,2.2-1.36,3.19
	c-5.49-0.16-10.04-0.31-12.9-0.39c-4.1-0.13-10.5-0.17-17.26-0.17c3.17-7.56,9.25-23.16,8.62-29.82c-0.84-8.96-3.44-18.9-3.44-18.9
	s0.97-25.71-8.37-42.46c-6.7-12-9.28-26.1-10.2-33.13c5.44,1.62,10.82,3.48,15.56,5.22h0.01c2,3.61,4.79,10.9,6.44,24.98
	c2.79,23.96,10.19,27.47,13.6,40.7C459.36,326.63,464.42,353.48,465.91,366.77z"/>
<path fill="#FFFFFF" stroke="#000000" stroke-miterlimit="10" d="M434.4,369.39c-2.68,0-5.4,0.01-8.05,0.02
	c-4.63-9.03-12.24-26.46-9.75-39.58c-3.77-14.08-4.84-69.84-5.09-87.28c3.09,0.71,6.31,1.58,9.51,2.54
	c0.92,7.03,3.5,21.13,10.2,33.13c9.34,16.75,8.37,42.46,8.37,42.46s2.6,9.93,3.44,18.9C443.64,346.23,437.57,361.83,434.4,369.39z"
	/>
<path fill="#FFFFFF" stroke="#000000" stroke-miterlimit="10" d="M554.97,385.77c-12.78,0.73-52.43,2.82-64.94,1.52
	c-15.01-1.55-52.79-7.99-63.5-9.54c-3.14-0.46-6.73-0.66-10.24-0.69c-5.25-0.05-10.31,0.22-13.4,0.44c0.94-3.71,1.89-6.55,2.6-7.93
	c0,0,9.84-0.12,20.85-0.15c2.66-0.01,5.38-0.02,8.05-0.02c6.75,0,13.16,0.04,17.26,0.17c2.85,0.09,7.41,0.23,12.9,0.39
	c0.55,0.02,1.1,0.03,1.66,0.04c8.03,0.24,17.76,0.52,26.94,0.77c6.7,0.17,13.12,0.33,18.34,0.43c4.1,0.09,7.48,0.13,9.69,0.13h13.43
	c6.38,0,11.12,0,11.12,0l8.96,14.02C554.7,385.35,554.8,385.5,554.97,385.77z"/>
<path fill="#FFFFFF" stroke="#000000" stroke-miterlimit="10" d="M426.34,369.41c-11.02,0.03-20.85,0.15-20.85,0.15
	c-7.79-11.29-1.95-37.39,0-48.49c-0.46-0.98-0.91-2.23-1.32-3.68c-4.7-16.3-6.74-59.5-7.4-76.82c4.09-0.08,9.24,0.71,14.73,1.99
	c0.25,17.44,1.32,73.21,5.09,87.28C414.1,342.95,421.71,360.38,426.34,369.41z"/>
<path fill="#FFFFFF" stroke="#000000" stroke-miterlimit="10" d="M404.17,317.39c-9.09,11.66-13.14,33.73-15.43,39.72
	c-2.52,6.62-3.89,16.56-3.89,16.56s-2.14,8.95-2.54,9.54c-0.38,0.58-0.58,4.09-1.55,9.93c-0.71,4.23-2.74,11.96-4.18,16.61
	c-2.85-4.05-12.63-16.33-28.36-18.75c-10.36-1.61-16.39,6.57-19.73,14.28c-8.05-9.24-0.33-16.43-0.33-16.43l1.55-21.43
	c0,0,1.76-13.83,3.13-16.07c1.36-2.24-0.07-4.96,2.79-8.34c2.85-3.38,13.76-49.61,13.76-49.61c14.03-45.58,32.72-50.12,43.63-52.46
	c1.11-0.24,2.37-0.36,3.75-0.38C397.42,257.89,399.47,301.09,404.17,317.39z"/>
<path fill="#FFFFFF" stroke="#000000" stroke-miterlimit="10" d="M375.88,429.95c0.59,3.31-1.95,7.21-2.72,11.3
	c-0.79,4.09-1.56,19.08-3.11,31.65c-0.21-0.02-0.4-0.04-0.6-0.07c-24.66-2.67-31.24,13.42-32.47,17.4c0,0,0,0.01,0,0.02
	c-0.17,0.55-0.24,0.85-0.24,0.85s0-2.24-0.2-5.21c-0.2-2.97-0.58-6.67-1.37-9.59c-3.89-5.45-1.95-13.25-1.95-13.25
	s-0.2-4.48-3.31-22.98c-2.87-17.09-1.61-33.53-0.32-33.63c0.1,0.11,0.21,0.22,0.32,0.32c-0.1-0.22-0.21-0.33-0.32-0.32
	c-0.39-0.39-0.76-0.79-1.1-1.17c3.33-7.72,9.37-15.89,19.73-14.28c15.73,2.43,25.51,14.7,28.36,18.75c0.57,0.82,0.86,1.3,0.86,1.3
	S375.3,426.64,375.88,429.95z"/>
<path fill="#FFFFFF" stroke="#000000" stroke-miterlimit="10" d="M379.09,520.24c-3.41,3.11-11.1-0.69-13.43-4.3
	c-2.34-3.6-1.76-17.62-1.76-17.62s-6.03,9.93-9.64,10.32c0.05,0.2,0.1,0.44,0.14,0.7c-1.31-0.33-3.09-0.57-4.81-0.14
	c-0.01,0-0.01,0-0.01,0c-1.87,0.46-3.65,1.69-4.67,4.44c-0.08,0.17-0.13,0.36-0.2,0.56c-0.1,0.02-0.19,0.04-0.28,0.08
	c-2.15,0.57-3.99,1.92-5.03,3.74c-0.69-3.69-1.63-8.63-2.68-12.48c-0.98-3.61-0.44-10.19,0.24-15.27c0-0.01,0-0.02,0-0.02
	c1.24-3.98,7.81-20.07,32.47-17.4c0.49,0.37,0.94,0.77,1.36,1.19c7.55,7.43,2.89,19.92,3.72,27.21
	C375.4,508.94,382.5,517.11,379.09,520.24z"/>
<path fill="#FFFFFF" stroke="#000000" stroke-miterlimit="10" d="M368.53,549.75c-1.27-0.62-2.19-1.37-2.19-1.37s-2.92,0.58-4.87,0
	c-1.95-0.59-17.14-13.84-18.5-13.84c-1.07,0-1.73-6.19-2.2-9.56c-0.12-0.89-0.23-1.58-0.33-1.92c-0.2-0.66-0.56-2.58-1.03-5.05
	c1.04-1.81,2.87-3.17,5.03-3.74l0.79,2.58l3.19,10.39c0,0,10.71,11.4,12.47,14.32C362.64,544.48,365.26,547.22,368.53,549.75z"/>
<path fill="#FFFFFF" stroke="#000000" stroke-miterlimit="10" d="M452.54,444.54c-2.89,8.57-8.26,23.49-12.25,28.36
	c-5.72,6.97-32.98,59.18-32.98,63.85c0,4.43-18.59,45.81-18.83,70.93c-4.02-21.26-2.62-55.7,2.8-66.7
	c5.63-11.43,30.84-76.6,37.01-92.58C437.79,446.94,446.63,445.57,452.54,444.54z"/>
<path fill="#FFFFFF" stroke="#000000" stroke-miterlimit="10" d="M329.93,543.6c-8.39,17.68-24.53,46.41-33.52,55.23
	c-7.17,7.03-9.15,21.74-9.51,33.24c-1.51-0.81-2.95-1.63-4.33-2.46c-6.14-3.67-10.99-7.3-14.18-9.89c1.81-3.1,4-6.75,6.09-10.09
	c0.84-1.33,1.66-2.61,2.45-3.79C282.15,598.01,306.98,562.37,329.93,543.6z"/>
<path fill="#FFFFFF" stroke="#000000" stroke-miterlimit="10" d="M391.27,540.98c-5.42,11.01-6.82,45.44-2.8,66.7
	c0,0.01,0,0.01,0,0.02c-0.01,1.42,0.03,2.8,0.14,4.11c0,0-0.22,31.49-2.9,46.84c-21.27-8.39-49.2-10.57-74.6-16.98
	c-9.1-2.3-17.3-5.85-24.21-9.61c0.36-11.5,2.34-26.21,9.51-33.24c8.99-8.82,25.13-37.54,33.52-55.23c1.04-0.85,2.07-1.66,3.09-2.44
	c1.52-4.04,4.26-9.68,7.74-16.19c0.47,3.38,1.13,9.56,2.2,9.56c1.37,0,16.56,13.25,18.5,13.84c1.96,0.58,4.87,0,4.87,0
	s0.92,0.74,2.19,1.37c1.54,0.77,3.62,1.33,5.15,0.12c2.8-2.21,2.93-4.67,2.86-4.93c-0.07-0.26-5.24-6.2-8.83-7.08
	c-3.61-4.38-8.28-11.68-12.18-14.22c-0.17-6.85-0.67-11.88-1.13-14.3c-0.04-0.26-0.09-0.5-0.14-0.7c3.61-0.38,9.64-10.32,9.64-10.32
	s-0.58,14.02,1.76,17.62c2.33,3.61,10.02,7.41,13.43,4.3c3.41-3.13-3.69-11.3-4.58-19c-0.83-7.29,3.84-19.78-3.72-27.21
	c5.05-8.12,9.34-14.89,11.91-18.9c8.1-1.17,27.99-4.05,45.56-6.73C422.11,464.38,396.9,529.55,391.27,540.98z"/>
<path fill="#FFFFFF" stroke="#000000" stroke-miterlimit="10" d="M373.67,549.87c-1.53,1.21-3.61,0.64-5.15-0.12
	c-3.27-2.52-5.89-5.27-7.64-8.19c-1.76-2.92-12.47-14.32-12.47-14.32l-3.19-10.39l-0.79-2.58c0.1-0.03,0.19-0.05,0.28-0.08
	c0.07-0.2,0.12-0.38,0.2-0.56c1.02-2.74,2.8-3.98,4.67-4.44c0,0,0,0,0.01,0c1.72-0.43,3.5-0.19,4.81,0.14
	c0.46,2.42,0.95,7.44,1.13,14.3c3.89,2.54,8.57,9.84,12.18,14.22c3.6,0.89,8.77,6.82,8.83,7.08
	C376.6,545.2,376.47,547.66,373.67,549.87z"/>
<circle fill="#FFFFFF" stroke="#000000" stroke-miterlimit="10" cx="489.61" cy="314.22" r="18.5"/>
<path fill="#FFFFFF" stroke="#000000" stroke-miterlimit="10" d="M489.87,295.18c-4.44,0.02-10.94,1.38-17.53,8.06
	c-6.6,6.69-7.06,9.75-7.01,11.81c0.05,2.06,6.27,12.36,14.42,16.39s17.08,2.66,21.8-0.87c4.72-3.53,12.64-10.44,13.6-15.52
	C516.1,309.97,501.64,295.13,489.87,295.18z M505.93,323.05c-0.64,1.26-1.43,2.44-2.34,3.5c-0.98,1.15-2.09,2.18-3.32,3.06h-0.01
	c-2.68,1.91-5.9,3.11-9.39,3.33c-0.38,0.03-0.77,0.04-1.16,0.04c-0.62,0-1.24-0.03-1.84-0.09c-1.23-0.12-2.42-0.37-3.57-0.72
	c-1.65-0.51-3.2-1.25-4.61-2.19c-1.42-0.94-2.7-2.07-3.8-3.36c-0.88-1.03-1.65-2.15-2.29-3.36c-0.21-0.4-0.41-0.81-0.59-1.23
	c-1.16-0.49-4.16-2.23-4.31-7.02c-0.15-4.79,2.85-6.97,4.48-7.84c0.66-1.44,1.51-2.78,2.51-3.99c1.24-1.49,2.71-2.77,4.35-3.81
	c2.8-1.76,6.11-2.77,9.66-2.77h0.2c1.9,0.02,3.73,0.33,5.44,0.89c4.74,1.54,8.62,4.97,10.75,9.41c1.6,0.57,4.68,2.54,4.91,8.1
	C511.23,319.95,508.06,322.14,505.93,323.05z"/>
<path fill="#FFFFFF" stroke="#000000" stroke-miterlimit="10" d="M505.93,323.05c1.23-2.41,1.94-5.13,1.97-8.01
	c0.01-0.08,0.01-0.17,0.01-0.25c0-1.96-0.31-3.84-0.88-5.61c-0.25-0.78-0.55-1.54-0.91-2.28c1.6,0.57,4.68,2.54,4.91,8.1
	C511.23,319.95,508.06,322.14,505.93,323.05z"/>
<path fill="#FFFFFF" stroke="#000000" stroke-miterlimit="10" d="M471.53,315.32c0.07,2.38,0.59,4.65,1.49,6.71
	c-1.16-0.49-4.16-2.23-4.31-7.02c-0.15-4.79,2.85-6.97,4.48-7.84c-0.62,1.33-1.07,2.73-1.35,4.2c-0.22,1.11-0.32,2.25-0.32,3.42
	C471.52,314.97,471.52,315.14,471.53,315.32z"/>
<path fill="none" stroke="#000000" stroke-miterlimit="10" d="M471.53,315.32c1.37,0.52,4.15,1.65,6.53,3.06
	c-2.41,2.63-3.79,4.03-4.45,4.88c-0.21-0.4-0.41-0.81-0.59-1.23C472.12,319.96,471.6,317.7,471.53,315.32z"/>
<path fill="none" stroke="#000000" stroke-miterlimit="10" d="M476.91,314.61c-0.06,0.6,0.96,1.57,2.22,2.59
	c-0.02,0.02-0.03,0.03-0.04,0.05c-1.71-1.17-3.38-2.19-4.24-2.71c-1.35-0.81-2.37-2.06-3.01-3.17c0.28-1.47,0.73-2.88,1.35-4.2
	c0.66-1.44,1.51-2.78,2.51-3.99c0.63,0.97,2.51,3.84,4.98,7.18c-0.46,0.38-0.93,0.76-1.4,1.13
	C477.69,312.74,477.05,313.22,476.91,314.61z"/>
<path fill="none" stroke="#000000" stroke-miterlimit="10" d="M488.33,305.26c-1.95,0.5-4.17,2.26-6.57,4.21
	c-2.07-3.93-1.91-8.24-1.71-10.1c2.8-1.76,6.11-2.77,9.66-2.77h0.2C489.99,298.16,490.4,301,488.33,305.26z"/>
<path fill="none" stroke="#000000" stroke-miterlimit="10" d="M485.78,326.12c-1.21,1.3-2.24,2.3-2.96,2.75
	c-1.36,0.85-2.4,1.09-3.12,1.1c-1.42-0.94-2.7-2.07-3.8-3.36c-0.06-0.87,0.16-2.2,1.34-3.97c0.55-0.83,1.43-1.92,2.49-3.18
	c0.25,0.18,0.49,0.38,0.72,0.57C482.25,321.6,484.29,323.55,485.78,326.12z"/>
<path fill="none" stroke="#000000" stroke-miterlimit="10" d="M507.02,309.18c-1.13,1.3-2.71,1.71-5.76,3.09
	c-1.09-0.9-2.47-2.06-3.66-3.36c-2.07-2.27-4.52-3.4-6.99-3.72c2.32-4.65,1.54-7.03,4.74-7.71c4.74,1.54,8.62,4.97,10.75,9.41
	C506.47,307.64,506.77,308.4,507.02,309.18z"/>
<path fill="none" stroke="#000000" stroke-miterlimit="10" d="M487.87,332.89c-1.23-0.12-2.42-0.37-3.57-0.72
	c-0.08-0.3-0.14-0.67,0.11-1.32c0.11-0.29,0.98-1.39,2.27-2.89C487.31,329.41,487.74,331.05,487.87,332.89z"/>
<path fill="none" stroke="#000000" stroke-miterlimit="10" d="M500.26,329.61c-2.68,1.91-5.9,3.11-9.39,3.33
	c-0.31-1.69-1.54-4.09-2.98-6.39c0.68-0.78,1.42-1.61,2.2-2.46c0.48-0.52,0.97-1.04,1.46-1.56c0.38,0.34,0.76,0.67,1.13,0.98
	C495.97,326.33,498.64,328.08,500.26,329.61z"/>
<path fill="none" stroke="#000000" stroke-miterlimit="10" d="M507.9,315.04c-0.04,2.88-0.75,5.6-1.97,8.01
	c-0.64,1.26-1.43,2.44-2.34,3.5c-1.33-0.06-3.14-0.53-5.57-1.88c-1.22-0.68-2.39-1.39-3.5-2.14c1.75-1.07,3.4-2.39,4.01-3.01
	c1.1-1.1,4.71-4.81,4.67-5.4c-0.01-0.07-0.05-0.15-0.12-0.25C505.04,313.39,506.77,313.6,507.9,315.04z"/>
<path fill="#FFFFFF" stroke="#000000" stroke-miterlimit="10" d="M495.36,297.49c-3.21,0.68-2.43,3.06-4.74,7.71
	c-0.11,0.23-0.23,0.46-0.36,0.69c-0.26,0.49-0.56,0.99-0.89,1.5c-0.87,1.38-1.95,2.84-3.11,4.3c-0.5,0.64-1.02,1.28-1.55,1.91
	c-0.26,0.31-0.52,0.63-0.78,0.94c-0.44,0.52-0.87,1.03-1.31,1.54v0.01c-0.68,0.79-1.34,1.55-1.96,2.28
	c-0.24-0.17-0.49-0.35-0.73-0.52c0.24,0.18,0.48,0.37,0.71,0.55c-0.32,0.38-0.63,0.74-0.93,1.09c-1.06,1.26-1.94,2.35-2.49,3.18
	c-1.17,1.77-1.4,3.1-1.34,3.97c-0.88-1.03-1.65-2.15-2.29-3.36c0.66-0.85,2.04-2.25,4.45-4.88c0.33-0.35,0.67-0.73,1.04-1.13
	c0.01-0.02,0.02-0.03,0.04-0.05c1-1.11,2.15-2.4,3.46-3.91c0.06-0.06,0.11-0.13,0.17-0.2c0.26-0.3,0.52-0.61,0.8-0.92
	c0.14-0.17,0.29-0.34,0.44-0.51c0.4-0.47,0.78-0.92,1.13-1.37c0.6-0.76,1.12-1.49,1.57-2.18c0.67-1.01,1.2-1.96,1.63-2.85
	c2.06-4.26,1.66-7.1,1.58-8.66C491.81,296.62,493.64,296.93,495.36,297.49z"/>
<path fill="#FFFFFF" stroke="#000000" stroke-miterlimit="10" d="M479.1,317.25c-0.36,0.4-0.71,0.78-1.04,1.13
	c-2.37-1.41-5.16-2.54-6.53-3.06c-0.01-0.17-0.01-0.35-0.01-0.53c0-1.17,0.11-2.31,0.32-3.42c0.64,1.11,1.66,2.36,3.01,3.17
	C475.71,315.06,477.38,316.08,479.1,317.25z"/>
<path fill="none" stroke="#000000" stroke-miterlimit="10" d="M478.06,318.38c-2.41,2.63-3.79,4.03-4.45,4.88
	c-0.21-0.4-0.41-0.81-0.59-1.23c-0.9-2.07-1.42-4.33-1.49-6.71C472.9,315.84,475.68,316.97,478.06,318.38z"/>
<path fill="#FFFFFF" stroke="#000000" stroke-miterlimit="10" d="M483.57,312.17c-0.27,0.32-0.54,0.63-0.8,0.92
	c-0.03-0.04-0.07-0.09-0.09-0.13c-0.7-0.88-1.36-1.76-1.99-2.61c-2.47-3.33-4.36-6.21-4.98-7.18c1.24-1.49,2.71-2.77,4.35-3.81
	c-0.2,1.86-0.36,6.17,1.71,10.1c0.28,0.54,0.61,1.08,0.99,1.6c0.14,0.2,0.28,0.39,0.43,0.58
	C483.31,311.82,483.44,311.99,483.57,312.17z"/>
<path fill="none" stroke="#000000" stroke-miterlimit="10" d="M476.91,314.61c-0.06,0.6,0.96,1.57,2.22,2.59
	c-0.02,0.02-0.03,0.03-0.04,0.05c-1.71-1.17-3.38-2.19-4.24-2.71c-1.35-0.81-2.37-2.06-3.01-3.17c0.28-1.47,0.73-2.88,1.35-4.2
	c0.66-1.44,1.51-2.78,2.51-3.99c0.63,0.97,2.51,3.84,4.98,7.18c-0.46,0.38-0.93,0.76-1.4,1.13
	C477.69,312.74,477.05,313.22,476.91,314.61z"/>
<path fill="none" stroke="#000000" stroke-miterlimit="10" d="M488.33,305.26c-1.95,0.5-4.17,2.26-6.57,4.21
	c-2.07-3.93-1.91-8.24-1.71-10.1c2.8-1.76,6.11-2.77,9.66-2.77h0.2C489.99,298.16,490.4,301,488.33,305.26z"/>
<path fill="none" stroke="#000000" stroke-miterlimit="10" d="M485.78,326.12c-1.21,1.3-2.24,2.3-2.96,2.75
	c-1.36,0.85-2.4,1.09-3.12,1.1c-1.42-0.94-2.7-2.07-3.8-3.36c-0.06-0.87,0.16-2.2,1.34-3.97c0.55-0.83,1.43-1.92,2.49-3.18
	c0.25,0.18,0.49,0.38,0.72,0.57C482.25,321.6,484.29,323.55,485.78,326.12z"/>
<path fill="none" stroke="#000000" stroke-miterlimit="10" d="M507.02,309.18c-1.13,1.3-2.71,1.71-5.76,3.09
	c-1.09-0.9-2.47-2.06-3.66-3.36c-2.07-2.27-4.52-3.4-6.99-3.72c2.32-4.65,1.54-7.03,4.74-7.71c4.74,1.54,8.62,4.97,10.75,9.41
	C506.47,307.64,506.77,308.4,507.02,309.18z"/>
<path fill="#FFFFFF" stroke="#000000" stroke-miterlimit="10" d="M490.87,332.95c-0.38,0.03-0.77,0.04-1.16,0.04
	c-0.62,0-1.24-0.03-1.84-0.09c-0.13-1.84-0.57-3.48-1.19-4.94c0.37-0.44,0.78-0.9,1.21-1.39
	C489.34,328.86,490.56,331.26,490.87,332.95z"/>
<path fill="none" stroke="#000000" stroke-miterlimit="10" d="M487.87,332.89c-1.23-0.12-2.42-0.37-3.57-0.72
	c-0.08-0.3-0.14-0.67,0.11-1.32c0.11-0.29,0.98-1.39,2.27-2.89C487.31,329.41,487.74,331.05,487.87,332.89z"/>
<path fill="none" stroke="#000000" stroke-miterlimit="10" d="M500.26,329.61c-2.68,1.91-5.9,3.11-9.39,3.33
	c-0.31-1.69-1.54-4.09-2.98-6.39c0.68-0.78,1.42-1.61,2.2-2.46c0.48-0.52,0.97-1.04,1.46-1.56c0.38,0.34,0.76,0.67,1.13,0.98
	C495.97,326.33,498.64,328.08,500.26,329.61z"/>
<path fill="none" stroke="#000000" stroke-miterlimit="10" d="M507.9,315.04c-0.04,2.88-0.75,5.6-1.97,8.01
	c-0.64,1.26-1.43,2.44-2.34,3.5c-1.33-0.06-3.14-0.53-5.57-1.88c-1.22-0.68-2.39-1.39-3.5-2.14c1.75-1.07,3.4-2.39,4.01-3.01
	c1.1-1.1,4.71-4.81,4.67-5.4c-0.01-0.07-0.05-0.15-0.12-0.25C505.04,313.39,506.77,313.6,507.9,315.04z"/>
<path fill="#FFFFFF" stroke="#000000" stroke-miterlimit="10" d="M507.91,314.79c0,0.08,0,0.17-0.01,0.25
	c-1.13-1.44-2.86-1.65-4.83-1.15c-1.17,0.29-2.42,0.84-3.68,1.53c-0.66,0.36-1.55,1.04-2.56,1.94c-1.23,1.08-2.65,2.47-4.07,3.93
	c-0.01,0.01-0.02,0.01-0.02,0.01c0.01,0.01,0.01,0.01,0.01,0.01c-0.02,0.02-0.04,0.05-0.07,0.07c-0.38,0.39-0.75,0.78-1.13,1.18
	c-0.49,0.52-0.98,1.04-1.46,1.56c-0.78,0.85-1.52,1.68-2.2,2.46c-0.44,0.49-0.84,0.96-1.21,1.39c-1.28,1.5-2.15,2.61-2.27,2.89
	c-0.25,0.65-0.2,1.02-0.11,1.32c-1.65-0.51-3.2-1.25-4.61-2.19c0.72-0.01,1.76-0.25,3.12-1.1c0.72-0.45,1.75-1.45,2.96-2.75
	c0.34-0.36,0.69-0.76,1.07-1.17c0.39-0.43,0.79-0.87,1.2-1.34c0.48-0.53,0.97-1.08,1.47-1.64c0.16-0.18,0.33-0.38,0.51-0.56
	c0.05-0.05,0.09-0.1,0.13-0.15c0.35-0.39,0.71-0.78,1.07-1.16c1.44-1.55,2.91-3.05,4.33-4.29c0.71-0.62,1.41-1.18,2.08-1.63
	c0.45-0.31,0.88-0.58,1.3-0.79c0.86-0.44,1.63-0.81,2.33-1.13c3.05-1.39,4.63-1.79,5.76-3.09
	C507.6,310.95,507.91,312.83,507.91,314.79z"/>
<path fill="#FFFFFF" stroke="#000000" stroke-miterlimit="10" d="M486.84,324.96c-0.38,0.41-0.73,0.8-1.07,1.17
	c-1.49-2.57-3.52-4.53-5.34-6.08c-0.23-0.2-0.47-0.39-0.72-0.57c0.3-0.35,0.61-0.71,0.93-1.09c0.81,0.61,1.6,1.2,2.16,1.68
	c0.11,0.1,0.23,0.2,0.33,0.3c0.11,0.1,0.23,0.22,0.34,0.34c0.02,0.02,0.03,0.03,0.04,0.05c0.11,0.14,0.25,0.29,0.42,0.45
	C484.79,322.15,485.83,323.48,486.84,324.96z"/>
<path fill="#FFFFFF" stroke="#000000" stroke-miterlimit="10" d="M482.68,312.97c-0.03,0.11-0.06,0.22-0.08,0.33
	c-1.32,1.51-2.47,2.8-3.46,3.91c-1.26-1.02-2.29-1.99-2.22-2.59c0.13-1.4,0.78-1.88,2.38-3.13c0.47-0.37,0.94-0.75,1.4-1.13
	C481.32,311.2,481.98,312.08,482.68,312.97z"/>
<path fill="#FFFFFF" stroke="#000000" stroke-miterlimit="10" d="M488.33,305.26c-0.43,0.89-0.96,1.84-1.63,2.85
	c-0.76,0.37-1.44,0.87-2.04,1.46c-0.61,0.6-1.12,1.31-1.49,2.07c-0.14-0.19-0.29-0.38-0.43-0.58c-0.38-0.52-0.7-1.05-0.99-1.6
	C484.16,307.52,486.38,305.76,488.33,305.26z"/>
<path fill="#FFFFFF" stroke="#000000" stroke-miterlimit="10" d="M489.52,321.98c-0.5,0.55-1,1.1-1.47,1.64
	c-1.61-0.59-3.22-1.59-4.1-2.43c-0.14-0.16-0.28-0.31-0.42-0.45c-0.01-0.02-0.03-0.03-0.04-0.05c-0.15-0.18-0.38-0.4-0.67-0.64
	c-0.62-0.55-1.36-1.13-2.14-1.71c0.62-0.72,1.28-1.49,1.96-2.28c0.36,1.46,1.25,2.82,2.4,3.85
	C486.33,321.11,487.96,321.9,489.52,321.98z"/>
<path fill="#FFFFFF" stroke="#000000" stroke-miterlimit="10" d="M501.26,312.27c-0.69,0.32-1.47,0.69-2.33,1.13
	c-0.42,0.22-0.85,0.48-1.3,0.79c0-1.84-0.91-3.48-2.31-4.69c-0.55-0.48-1.19-0.89-1.87-1.22h-0.01c-0.99-0.48-2.08-0.79-3.2-0.88
	c-0.3-0.03-0.6-0.03-0.89-0.01c0.33-0.51,0.63-1.01,0.89-1.5c0.13-0.24,0.25-0.47,0.36-0.69c2.47,0.32,4.92,1.44,6.99,3.72
	C498.79,310.22,500.17,311.37,501.26,312.27z"/>
<path fill="#FFFFFF" stroke="#000000" stroke-miterlimit="10" d="M503.59,326.56c-0.98,1.15-2.09,2.18-3.32,3.06h-0.01
	c-1.62-1.53-4.29-3.29-7.58-6.09c-0.37-0.31-0.75-0.63-1.13-0.98c0.38-0.4,0.75-0.79,1.13-1.18c0.03-0.02,0.05-0.05,0.07-0.07
	c0,0,0-0.01-0.01-0.01c0.01,0.01,0.02,0,0.02-0.01c-0.01,0.01-0.01,0.01-0.01,0.01c0.57,0.43,1.16,0.85,1.76,1.25
	c1.11,0.75,2.28,1.46,3.5,2.14C500.45,326.02,502.27,326.49,503.59,326.56z"/>
<path fill="#FFFFFF" stroke="#000000" stroke-miterlimit="10" d="M503.2,314.14c0.04,0.59-3.57,4.3-4.67,5.4
	c-0.61,0.61-2.26,1.94-4.01,3.01c-0.61-0.4-1.19-0.82-1.76-1.25c0.01,0,0.01-0.01,0.01-0.01c1.69-0.8,3.19-2.2,4.07-3.93
	c1.01-0.89,1.9-1.58,2.56-1.94c1.26-0.69,2.51-1.23,3.68-1.53C503.15,313.99,503.19,314.07,503.2,314.14z"/>
<path fill="#FFFFFF" stroke="#000000" stroke-miterlimit="10" d="M490.03,321.42c-0.17,0.18-0.34,0.38-0.51,0.56
	c-1.55-0.08-3.19-0.87-4.49-2.05c0.26-1.13,0.55-2.15,0.86-3.08c0.5,0.57,1,1.13,1.51,1.66c0.84,0.89,1.65,1.71,2.45,2.46l0.01,0.01
	C489.9,321.13,489.95,321.27,490.03,321.42z"/>
<path fill="#FFFFFF" stroke="#000000" stroke-miterlimit="10" d="M485.89,316.85c-0.31,0.92-0.6,1.95-0.86,3.08
	c-1.15-1.04-2.04-2.39-2.4-3.85v-0.01c0.43-0.5,0.87-1.02,1.31-1.54C484.57,315.32,485.23,316.1,485.89,316.85z"/>
<path fill="#FFFFFF" stroke="#000000" stroke-miterlimit="10" d="M495.56,315.83c-1.42,1.24-2.89,2.74-4.33,4.29
	c-0.63-0.51-1.24-1.03-1.84-1.57c-0.05-1.29,0.2-2.59,0.6-3.92C491.74,315.35,494,315.68,495.56,315.83z"/>
<path fill="#FFFFFF" stroke="#000000" stroke-miterlimit="10" d="M487.55,312.98c-0.41,0.73-0.81,1.57-1.18,2.54
	c-0.58-0.62-1.13-1.26-1.65-1.92c0.52-0.63,1.04-1.27,1.55-1.91C486.63,312.1,487.06,312.54,487.55,312.98z"/>
<path fill="#FFFFFF" stroke="#000000" stroke-miterlimit="10" d="M489.99,314.62c-0.4,1.32-0.65,2.63-0.6,3.92
	c-1.06-0.97-2.07-1.97-3.02-3.02c0.38-0.97,0.77-1.81,1.18-2.54c0.3,0.28,0.64,0.56,0.99,0.83
	C488.95,314.13,489.44,314.4,489.99,314.62z"/>
<path fill="#FFFFFF" stroke="#000000" stroke-miterlimit="10" d="M493.45,308.28c-1.29,0.09-3.75,0.84-5.9,4.7
	c-0.49-0.44-0.92-0.88-1.29-1.29c1.16-1.46,2.24-2.92,3.11-4.3c0.29-0.02,0.59-0.02,0.89,0.01
	C491.37,307.49,492.46,307.8,493.45,308.28z"/>
<path fill="#FFFFFF" stroke="#000000" stroke-miterlimit="10" d="M497.64,314.19c-0.67,0.46-1.37,1.01-2.08,1.63
	c-1.56-0.15-3.82-0.47-5.57-1.2c0.08-0.28,0.17-0.55,0.27-0.83c0.73-2.13,3.63-3.65,5.07-4.29
	C496.72,310.71,497.64,312.35,497.64,314.19z"/>
<path fill="#FFFFFF" stroke="#000000" stroke-miterlimit="10" d="M495.32,309.5c-1.44,0.64-4.34,2.16-5.07,4.29
	c-0.1,0.28-0.18,0.55-0.27,0.83c-0.54-0.23-1.04-0.5-1.45-0.81c-0.35-0.27-0.69-0.55-0.99-0.83c2.16-3.85,4.61-4.6,5.9-4.7h0.01
	C494.14,308.61,494.77,309.02,495.32,309.5z"/>
</svg>
