<?xml version="1.0" encoding="utf-8"?>
<!-- Generator: Adobe Illustrator 25.2.0, SVG Export Plug-In . SVG Version: 6.00 Build 0)  -->
<svg version="1.1" baseProfile="tiny" id="Layer_1" xmlns="http://www.w3.org/2000/svg" xmlns:xlink="http://www.w3.org/1999/xlink"
	 x="0px" y="0px" viewBox="0 0 1000 1000" overflow="visible" xml:space="preserve">
<path fill="#FFFFFF" stroke="#000000" stroke-miterlimit="10" d="M587.77,277.1c0,0-35.76,8.57-45.82,19.74
	c-16.38-7.45-114.71-29.8-124.4-42.83c-9.68-13.04,31.66-26.45,31.66-26.45s5.21-4.1,5.96-6.7c0.06-0.22,0.15-0.76,0.23-1.57
	c0.96-8.65,3.31-48.27,5.36-59.52c-1.99-7.05-0.57-17.38,0.91-24.62c0.52-2.61,1.07-4.83,1.47-6.34c0.36-1.38,0.6-2.18,0.6-2.18
	s4.1-1.49,14.16-18.62c10.05-17.14,28.86-22.38,52.69-18.29c0,0,20.67-0.16,36.32,22.19c5.17,7.39,8.43,14.3,10.25,20.55
	c-3.09-4.88-7.23-10.19-11-11.06c-7.26-1.68-18.43,6.7-37.8,3.72c-19.36-2.98-27.37-5.48-33.89-3.95
	c-6.52,1.53-12.66,14.01-16.21,24.81c-3.53,10.8-20.86,35.01-18.99,69.09c1.86,34.07,24.39,55.12,41.15,59.59
	c16.76,4.47,46,3.35,56.24-14.52c3.92-6.83,7.15-14.99,9.84-23.52C588.86,244.66,587.77,277.1,587.77,277.1z"/>
<path fill="#FFFFFF" stroke="#000000" stroke-miterlimit="10" d="M578.78,148.7v-0.01c-2.41-5.41-8.14-5.28-14.21-3.82
	c1.6,1.87,3.54,4.93,3.82,8.95c0.5,6.95-2.73,14.27-9.06,18.12c-6.33,3.86-17.01,2.11-20.49-6.45c-1.5-3.71-0.84-7.23,0.4-10.02
	v-0.01c1.55-3.49,3.98-5.85,4.19-6.06c-2.26-0.17-2.84-0.79-2.84-0.79s3.47,0.13,13.9-6.08c10.43-6.22,20.46-7.98,24.2-2.75
	c-0.29-2.31-0.79-4.75-1.53-7.3c-3.09-4.88-7.23-10.19-11-11.06c-7.26-1.68-18.43,6.7-37.8,3.72c-19.36-2.98-27.37-5.48-33.89-3.95
	c-6.52,1.53-12.66,14.01-16.21,24.81c-3.53,10.8-20.86,35.01-18.99,69.09c1.86,34.07,24.39,55.12,41.15,59.59
	c16.76,4.47,46,3.35,56.24-14.52c3.92-6.83,7.15-14.99,9.84-23.52c1.4-4.42,2.64-8.94,3.77-13.43c2.37-9.47,4.17-18.75,5.57-26.55
	c1.63-9.03,1.33-17.79,0.59-24.43c-0.79-7.05-2.08-11.7-2.08-11.7c0.96-1.25,1.83-2.73,2.54-4.42
	C577.8,153.96,578.46,151.48,578.78,148.7z M485.09,150.09c-1.37-1.48-4.22-14.4,3.72-21.11c7.95-6.7,23.09,6.46,28.06,11.67
	c4.97,5.21,15.4,7.95,15.4,7.95s-4.85,0.74-12.66-1.74c-7.83-2.48-20.61-12.78-26.7-10.92C486.83,137.8,486.46,151.59,485.09,150.09
	z M489.93,163.13c-3.35-7.2,1.86-18.25,11.3-19.68c5.23-0.79,12.02,1.31,16.76,3.91c2.7,1.47,4.52,3.53,5.55,4.24
	c0.55,0.39,0.98,0.93,1.18,1.57c1.4,4.64-1.27,17.21-11.69,20.39C501.6,177.03,493.29,170.33,489.93,163.13z M532.27,224.21
	c-14.52,0.38-30.32-12.1-30.34-19.36c0,0,15.44,8,29.41,8c13.96,0,17.62-1.31,17.62-1.31S546.8,223.84,532.27,224.21z"/>
<path fill="#FFFFFF" stroke="#000000" stroke-miterlimit="10" d="M578.78,148.69c-2.41-5.41-8.14-5.28-14.21-3.82
	c-3.95,0.94-8.05,2.43-11.48,3.33c-0.59,0.16-1.16,0.29-1.7,0.41c-3.8,0.78-6.31,0.91-7.94,0.79c0,0,0,0-0.01,0
	c-2.26-0.17-2.84-0.79-2.84-0.79s3.47,0.13,13.9-6.08c10.43-6.22,20.46-7.98,24.2-2.75C579.09,143.01,579.09,145.99,578.78,148.69z"
	/>
<path fill="#FFFFFF" stroke="#000000" stroke-miterlimit="10" d="M532.27,148.61c0,0-4.85,0.74-12.66-1.74
	c-7.83-2.48-20.61-12.78-26.7-10.92c-6.08,1.86-6.45,15.64-7.82,14.15c-1.37-1.48-4.22-14.4,3.72-21.11
	c7.95-6.7,23.09,6.46,28.06,11.67C521.84,145.87,532.27,148.61,532.27,148.61z"/>
<path fill="#FFFFFF" stroke="#000000" stroke-miterlimit="10" d="M524.72,153.17c-0.2-0.64-0.63-1.18-1.18-1.57
	c-1.02-0.71-2.85-2.77-5.55-4.24c-4.74-2.6-11.53-4.7-16.76-3.91c-9.44,1.42-14.65,12.48-11.3,19.68
	c3.35,7.2,11.67,13.9,23.09,10.43C523.44,170.38,526.12,157.81,524.72,153.17z M517.75,157.82c-0.47,4.47-5.5,7.72-8.94,8.1
	c-3.45,0.38-10.43-2.79-9.86-10.15c0.55-7.36,9.81-7.92,11.91-7.45C512.95,148.8,518.21,153.35,517.75,157.82z"/>
<path fill="#FFFFFF" stroke="#000000" stroke-miterlimit="10" d="M510.85,148.33c-2.1-0.47-11.36,0.09-11.91,7.45
	c-0.56,7.36,6.42,10.52,9.86,10.15c3.45-0.38,8.47-3.63,8.94-8.1C518.21,153.35,512.95,148.8,510.85,148.33z M507.86,159.83
	c-1.52,0-2.75-1.23-2.75-2.75c0-1.53,1.23-2.75,2.75-2.75c1.52,0,2.75,1.22,2.75,2.75C510.61,158.6,509.38,159.83,507.86,159.83z"/>
<path fill="#FFFFFF" stroke="#000000" stroke-miterlimit="10" d="M559.33,171.94c-6.33,3.86-17.01,2.11-20.49-6.45
	c-1.5-3.71-0.84-7.23,0.4-10.02c1.77,9.37,5.97,10.83,11.46,10.48c5.5-0.34,8.38-5.53,7.91-10.27c-0.46-4.75-5.53-7.48-5.53-7.48
	c3.44-0.9,7.53-2.39,11.48-3.33c1.6,1.87,3.54,4.93,3.82,8.95C568.9,160.77,565.67,168.1,559.33,171.94z"/>
<circle fill="#FFFFFF" stroke="#000000" stroke-miterlimit="10" cx="507.86" cy="157.08" r="2.75"/>
<path fill="#FFFFFF" stroke="#000000" stroke-miterlimit="10" d="M558.61,155.68c-0.46-4.75-5.53-7.48-5.53-7.48
	c-0.59,0.16-1.16,0.29-1.7,0.41c-3.8,0.78-6.31,0.91-7.94,0.79c0,0,0,0-0.01,0c-0.21,0.21-2.64,2.57-4.19,6.06v0.01
	c1.77,9.37,5.97,10.83,11.46,10.48C556.2,165.61,559.08,160.43,558.61,155.68z M549.94,160.29c-1.48,0-2.69-1.2-2.69-2.67
	c0-1.48,1.2-2.67,2.69-2.67c1.47,0,2.67,1.19,2.67,2.67C552.62,159.09,551.41,160.29,549.94,160.29z"/>
<path fill="#FFFFFF" stroke="#000000" stroke-miterlimit="10" d="M552.62,157.61c0,1.47-1.2,2.67-2.67,2.67
	c-1.48,0-2.69-1.2-2.69-2.67c0-1.48,1.2-2.67,2.69-2.67C551.41,154.94,552.62,156.13,552.62,157.61z"/>
<path fill="#FFFFFF" stroke="#000000" stroke-miterlimit="10" d="M548.96,211.54c0,0-2.16,12.3-16.69,12.66
	c-14.52,0.38-30.32-12.1-30.34-19.36c0,0,15.44,8,29.41,8C545.3,212.85,548.96,211.54,548.96,211.54z"/>
<path fill="#FFFFFF" stroke="#000000" stroke-miterlimit="10" d="M463.14,128.82c-0.41,1.52-0.95,3.73-1.47,6.34
	c-21.66,0.51-52.92,3.51-52.92,3.51l-0.99-3.47c0,0-5.37-0.94-17.72,2.4c1.46-7.62,5.32-18.04,15.49-20.04
	C418.87,114.93,451.51,125,463.14,128.82z"/>
<path fill="#FFFFFF" stroke="#000000" stroke-miterlimit="10" d="M328.53,186.3c-0.22,1.02-0.41,2.07-0.56,3.13v0.01
	c-12.16,19.55-23.13,28.29-23.13,28.29c-0.28-0.23-5.4-6.6-10.95-12.09c-4.18-4.14-8.61-7.77-11.39-7.87
	c-3.53-0.14-6.81,5.85-9.05,11.31c0-3.89,0.06-6.87,0.17-8.7c0.93-15.64,28.49-69.09,41.35-57.61
	C324.09,150.93,327.38,173.77,328.53,186.3z"/>
<path fill="#FFFFFF" stroke="#000000" stroke-miterlimit="10" d="M298.88,338.2c-0.1,0.28-0.2,0.55-0.28,0.8
	c-4.74,3.01-8.7,6.95-10.97,9.54c-10.85-34.95-14.16-111.22-14.19-139.46c2.24-5.45,5.52-11.44,9.05-11.31
	c2.78,0.09,7.21,3.73,11.39,7.87l2.63,34.72v0.05c0,0-8.57-2.79-8.93,0.19C287.25,243.2,293.32,312.42,298.88,338.2z"/>
<path fill="#FFFFFF" stroke="#000000" stroke-miterlimit="10" d="M350.64,254.62c0,0-5.32,7.06-5.04,15.41
	c-2.78,3.05-6.31,6.96-6.38,7.19c-3.01-3.02-7.01-14.93-8.61-19.96c0.31,0.14,0.62,0.25,0.92,0.33c6.34-1.93,14.37-3.99,18.49-5.03
	C350.34,253.85,350.64,254.62,350.64,254.62z"/>
<path fill="#FFFFFF" stroke="#000000" stroke-miterlimit="10" d="M339.22,277.23c-0.11,0.36-24.93-2.75-32.86-3.09
	c-0.42-2.27-0.86-4.4-1.3-6.42v-0.04c-0.6-9.68-0.34-27.44-0.21-38.96c5.9,8.78,17.79,25.3,25.76,28.56
	C332.2,262.29,336.21,274.21,339.22,277.23z"/>
<path fill="#FFFFFF" stroke="#000000" stroke-miterlimit="10" d="M460.76,159.78c-2.05,11.24-4.4,50.87-5.36,59.52
	c-7.96-1.13-38.24-4.05-65.56,11.69c-2.3-1.73-4.85-3.15-7.67-4.14c-2.54-0.89-4.92-1.41-7.14-1.62
	c-35.62-15.76-43.62-35.63-45.42-43.27c4.91-16.33,17.73-27.32,38.9-36.58c8.74-3.82,15.86-6.25,21.51-7.77
	c12.35-3.34,17.72-2.4,17.72-2.4l0.99,3.47c0,0,31.26-3,52.92-3.51C460.18,142.4,458.77,152.72,460.76,159.78z"/>
<path fill="#FFFFFF" stroke="#000000" stroke-miterlimit="10" d="M577.42,225.76c-2.78-1.16-5.23-2-7.15-2.56
	c2.37-9.47,4.17-18.75,5.57-26.55c1.63-9.03,1.33-17.79,0.59-24.43c5.74,2.31,16.71,7.91,19.77,17.85
	C599.99,202.35,590.55,220.9,577.42,225.76z"/>
<path fill="#FFFFFF" stroke="#000000" stroke-miterlimit="10" d="M641.14,283.43c-17.63,34.51-75.23,36-97.82,35
	c-19.93-0.88-76.97-10.25-101.38-18.42c-1.53-0.5-2.94-1.01-4.19-1.52h-0.01c-1.68-0.74-2.83-1.27-3.35-1.52
	c-0.21-0.09-0.31-0.15-0.31-0.15c-10.68-13.17-24.59-19.61-24.59-19.61l-0.63-0.29c0.15-11.22-4.44-34.98-19.02-45.94
	c27.31-15.75,57.6-12.82,65.56-11.69c-0.08,0.8-0.17,1.35-0.23,1.57c-0.74,2.6-5.96,6.7-5.96,6.7s-41.34,13.41-31.66,26.45
	c9.69,13.03,108.01,35.38,124.4,42.83c10.06-11.17,45.82-19.74,45.82-19.74s1.1-32.44-21.26-40.47c1.4-4.42,2.64-8.94,3.77-13.43
	c1.91,0.56,4.37,1.4,7.15,2.56c13.12-4.86,22.57-23.42,18.78-35.69c-3.06-9.94-14.03-15.54-19.77-17.85
	c-0.79-7.05-2.08-11.7-2.08-11.7c0.96-1.25,1.83-2.73,2.54-4.42l2.92,1.89l15.4,9.98c0,0,15.64,8.83,18.38,24.65
	c5.09,9.55,9.72,17.66,11.46,20.67c0,0,0,0.01,0,0.02c0.45,0.79,0.7,1.22,0.7,1.22s6.44,6.7,12.11,17.16
	c1.65,3.04,3.24,6.41,4.58,10.02c1.17,3.12,2.16,6.45,2.84,9.91v0.01C647.23,261.48,646.75,272.44,641.14,283.43z"/>
<path fill="#FFFFFF" stroke="#000000" stroke-miterlimit="10" d="M350.02,252.58c-4.13,1.03-12.15,3.09-18.49,5.03
	c-0.3-0.08-0.61-0.2-0.92-0.33c-7.96-3.26-19.85-19.78-25.76-28.56v-0.01c0.08-6.38,0.13-10.86-0.02-10.97
	c0,0,10.97-8.74,23.13-28.29c-0.44,3.02-0.66,6.2-0.66,9.56c0,26.32,14.15,35.27,23.33,39.98
	C348.39,244.01,349.28,249.63,350.02,252.58z"/>
<path fill="#FFFFFF" stroke="#000000" stroke-miterlimit="10" d="M375.03,225.23c-16.67-1.61-24.4,13.75-24.4,13.75
	c-9.18-4.71-23.33-13.66-23.33-39.98c0-3.36,0.22-6.54,0.66-9.56v-0.01c0.25-0.39,0.49-0.78,0.73-1.18
	c-0.05-0.62-0.1-1.26-0.17-1.95c0.29-1.48,0.66-2.94,1.09-4.34C331.41,189.6,339.41,209.47,375.03,225.23z"/>
<path fill="#FFFFFF" stroke="#000000" stroke-miterlimit="10" d="M625.05,213.29c-1.74-3.01-6.37-11.12-11.46-20.67
	c-2.74-15.82-18.38-24.65-18.38-24.65l-15.4-9.98c4.92-0.98,21.41-3.1,37.01,7.96c6.79,4.81,9.45,13.56,10.09,22.76
	C627.54,197.54,626.29,206.77,625.05,213.29z"/>
<path fill="#FFFFFF" stroke="#000000" stroke-miterlimit="10" d="M667.84,278.77c0,0.19-0.06,0.14-0.2-0.11v-0.01
	c-1.59-3.06-12.31-34.59-29.78-46.96c-5.67-10.46-12.11-17.16-12.11-17.16s-0.25-0.43-0.7-1.22c0-0.01,0-0.02,0-0.02
	c1.24-6.52,2.49-15.75,1.86-24.58c5.59,3.38,19.55,12.84,26.4,26.94c1.61,3.3,3.11,7.46,4.5,12.05h0.01
	C663.96,247.93,667.84,276.65,667.84,278.77z"/>
<path fill="#FFFFFF" stroke="#000000" stroke-miterlimit="10" d="M666.91,377.29c-4.57,14.22-11.63,27.56-22.39,32.25h-0.01
	c-4.15,1.81-8.85,2.33-14.17,1.11c-0.04,0-0.07-0.01-0.11-0.02c-2.61-22.35-2.98-34.26-2.98-34.26l19.08-17.88l-1.95-59.4
	c0,0,24.82-39.63-1.93-57.37c-1.34-3.62-2.93-6.98-4.58-10.02c17.47,12.37,28.19,43.9,29.78,46.96v0.01
	c1.93,8.48,4.64,23.22,5.22,41.09c0.09,3,0.18,5.79,0.24,8.39C673.62,350.32,672.57,359.63,666.91,377.29z"/>
<path fill="#FFFFFF" stroke="#000000" stroke-miterlimit="10" d="M630.34,410.64c-6.36,5.22-23.18,18.63-29.16,19.53
	c-3.16,0.47-17.77-0.46-35.29-2.19c-11.48-1.15-24.22-2.63-35.79-4.31c-0.24-0.63-0.51-1.27-0.78-1.93
	c-14.49-34.3-66.59-97.29-86.98-121.25c15.45,6.58,49.51,19.82,75.43,20.93c34.61,1.49,60.56,4.53,60.56,4.53l20.23,50.96
	l24.05-1.72l1.89,36.12l5.72-0.69C630.26,410.63,630.29,410.64,630.34,410.64z"/>
<path fill="#FFFFFF" stroke="#000000" stroke-miterlimit="10" d="M408.86,276.93l-24.94-11.63c0,0-6.21,17.63-10.43,19.86
	c-1.88,1-4.91,2.59-8.56,2.98h-0.01c-2.48,0.27-5.22-0.01-8.09-1.43c-2.35-1.15-4.78-3.05-7.19-6.02c-2.84-3.5-3.93-7.19-4.04-10.66
	c-0.28-8.35,5.04-15.41,5.04-15.41s-0.29-0.77-0.62-2.05c-0.74-2.95-1.63-8.57,0.62-13.59c0,0,7.73-15.36,24.4-13.75
	c2.22,0.21,4.6,0.73,7.14,1.62c2.82,0.99,5.37,2.4,7.67,4.14C404.42,241.95,409,265.71,408.86,276.93z"/>
<path fill="#FFFFFF" stroke="#000000" stroke-miterlimit="10" d="M646.32,358.48l-19.08,17.88c0,0,0.37,11.91,2.98,34.26l-5.72,0.69
	l-1.89-36.12l-0.03-0.51l20.11-18.99l-3.17-60.71c0,0,9.5-17.88,10.7-28.31c0.79-6.87-2.56-12.2-4.95-15.05v-0.01
	c-0.68-3.46-1.67-6.78-2.84-9.91c26.75,17.73,1.93,57.37,1.93,57.37L646.32,358.48z"/>
<path fill="#FFFFFF" stroke="#000000" stroke-miterlimit="10" d="M650.23,266.67c-1.2,10.43-10.7,28.31-10.7,28.31l3.17,60.71
	l-20.11,18.99l0.03,0.51l-24.05,1.72l-20.23-50.96c0,0-25.96-3.04-60.56-4.53c-25.92-1.11-59.98-14.35-75.43-20.93
	c-0.14-0.17-0.27-0.32-0.4-0.47c24.41,8.17,81.45,17.54,101.38,18.42c22.59,0.99,80.2-0.49,97.82-35
	c5.61-10.99,6.09-21.95,4.14-31.81C647.67,254.47,651.03,259.81,650.23,266.67z"/>
<path fill="#FFFFFF" stroke="#000000" stroke-miterlimit="10" d="M644.51,409.53c-3.06,14.75-11.34,37.01-33.66,47.46
	c-1.49,0.7-3.1,1.41-4.84,2.14c-38.92,16.29-136.05,38.76-171.94,37.33c-4.38-0.18-8.56-0.61-12.53-1.25h-0.01
	c-9.38-1.49-17.6-4.12-24.47-7c22.56,0.05,62.69-2.45,100.76-17.82c37.83-15.28,58.45-32.52,68.07-42.42
	c17.51,1.73,32.13,2.66,35.29,2.19c5.99-0.9,22.8-14.3,29.16-19.53C635.65,411.86,640.36,411.34,644.51,409.53z"/>
<path fill="#FFFFFF" stroke="#000000" stroke-miterlimit="10" d="M565.89,427.97c-9.61,9.91-30.24,27.15-68.07,42.42
	c-38.07,15.37-78.2,17.87-100.76,17.82h-0.01c-15.18-6.38-23.81-14.1-23.81-14.1s-2.53-2.49-5.73-6.09c3.94-2.81,6.9-6.27,8.05-8.58
	c74.92,7.2,134-25.32,151.45-36.24h0.01c1.01,0.16,2.04,0.3,3.08,0.46C541.67,425.34,554.4,426.82,565.89,427.97z"/>
<path fill="#FFFFFF" stroke="#000000" stroke-miterlimit="10" d="M529.31,421.74c-0.66,0.43-1.43,0.92-2.3,1.47h-0.01
	c-11.14-1.67-20.93-3.5-27.14-5.33c-22.73-6.71-50.28-47.3-77.28-81.94c-22.91-29.38-49.99-44.03-57.66-47.79
	c3.65-0.39,6.68-1.97,8.56-2.98c4.22-2.24,10.43-19.86,10.43-19.86l24.94,11.63l0.63,0.29c0,0,13.91,6.45,24.59,19.61
	c0,0,0.1,0.05,0.31,0.15c0.95,0.5,2.07,1,3.35,1.52h0.01c1.25,0.55,2.79,1.23,4.59,1.99C462.72,324.44,514.82,387.43,529.31,421.74z
	"/>
<path fill="#FFFFFF" stroke="#000000" stroke-miterlimit="10" d="M527.01,423.21c-17.45,10.92-76.53,43.44-151.45,36.24
	c0.53-1.04,0.69-1.86,0.41-2.27c-0.15-0.21-0.43-0.62-0.84-1.18c7.08-5.25,12.25-18.95,0.84-31.29c-0.57-0.62-1.15-1.22-1.73-1.8
	c6.7-1.93,27.62-8.87,36.62-22.53c10.8-16.39,9.31-47.86-5.59-69.83c-11.66-17.2-34.85-33.26-55.26-36.74l6.83-7.09
	c2.86,1.42,5.61,1.7,8.09,1.43h0.01c7.67,3.76,34.74,18.41,57.66,47.79c27,34.64,54.55,75.23,77.28,81.94
	C506.08,419.71,515.87,421.54,527.01,423.21z"/>
<path fill="#FFFFFF" stroke="#000000" stroke-miterlimit="10" d="M606.01,466.71v13c0,0-23.46,24.95-73.74,30.91
	c-44.98,5.34-84.62,15.13-105.51-8.2c-1-1.11-1.94-2.28-2.84-3.54c14.61,0.95,67.92,3.51,112.45-6.31
	C570.38,485.07,593.82,473.71,606.01,466.71z"/>
<path fill="#FFFFFF" stroke="#000000" stroke-miterlimit="10" d="M606.01,459.13v7.58c-12.19,7-35.63,18.36-69.64,25.85
	c-44.53,9.82-97.84,7.26-112.45,6.31v-0.01c-0.85-1.15-1.63-2.36-2.37-3.65c3.97,0.65,8.15,1.08,12.53,1.25
	C469.96,497.89,567.09,475.42,606.01,459.13z"/>
<path fill="#FFFFFF" stroke="#000000" stroke-miterlimit="10" d="M622.4,483.43c-0.84,1.45-3.19,4.4-6.39,8.08
	c-2.29,2.62-5.01,5.62-7.93,8.71c-7.6,8.05-16.53,16.74-22.54,21.2c-11.55,8.57-33.52,7.82-60.71,9.69
	c-22.44,1.54-83.98-1.5-104.76-8.71c-4.4-1.52-6.97-3.23-6.97-5.12c0-7.29,8.25-12.34,13.67-14.86
	c20.9,23.33,60.53,13.54,105.51,8.2c50.28-5.96,73.74-30.91,73.74-30.91v-13c0.55-0.32,1.08-0.63,1.58-0.93h0.01
	C616.56,466.88,625.04,478.81,622.4,483.43z"/>
<path fill="#FFFFFF" stroke="#000000" stroke-miterlimit="10" d="M608.07,500.22c-6.41,21.25-22.58,51.11-39.07,71.53
	c-9.22,11.43-18.54,19.91-26.3,22.29c-13.91,4.26-26.34,4.48-34.02,3.97c0.25-0.45,0.5-0.91,0.75-1.36
	c6.68-2.1,26.94-9.72,26.94-24.95c0-4.9-2.29-9.47-6.29-13.56c-10.87-11.15-34.38-18.9-58.89-21.08
	c-33.37-2.97-31.31,6.25-44.52,14.04c-0.05,0.04-0.11,0.07-0.17,0.1c-5.25-10.74-6.31-22.35-6.44-28.82
	c20.78,7.21,82.32,10.25,104.76,8.71c27.19-1.87,49.16-1.12,60.71-9.69C591.54,516.96,600.47,508.26,608.07,500.22z"/>
<path fill="#FFFFFF" stroke="#000000" stroke-miterlimit="10" d="M710.89,564.58c-6.46,1.08-15.53,5.19-20.58,19.03
	c-8.44,23.09-1.48,46.69-1.48,46.69c-7.99-0.19-17.53-2.61-27.71-6.38c-36.24-13.44-80.58-44-92.11-52.16
	c16.49-20.43,32.66-50.28,39.07-71.53c2.93-3.09,5.64-6.09,7.93-8.71c15.14,11.31,89.74,67.15,94.42,72.5
	C710.57,564.19,710.73,564.38,710.89,564.58z"/>
<path fill="#FFFFFF" stroke="#000000" stroke-miterlimit="10" d="M718.21,582.88c-0.09,0.01-0.17,0.02-0.25,0.04
	c-0.01,0-0.01,0-0.01,0c-23.25,3.18-26.3,30.87-29.13,47.38c0,0-6.96-23.59,1.48-46.69c5.06-13.83,14.13-17.95,20.58-19.03
	C714,568.62,716.61,576.78,718.21,582.88z"/>
<path fill="#FFFFFF" stroke="#000000" stroke-miterlimit="10" d="M739.54,614.13c-5.02,6.06-10.77,12.29-16.93,17.71
	c-0.25,0.24-0.51,0.46-0.77,0.69c-12.67,10.97-30.33,18.29-43.65,21.89c-5.8-3.52-9.75-7.37-12.39-11.19
	c-5.06-7.31-5.34-14.56-4.69-19.32c10.18,3.77,19.72,6.2,27.71,6.38c2.83-16.51,5.88-44.2,29.13-47.38c0,0,0,0,0.01,0
	c0.09,0.07,0.2,0.14,0.31,0.21c5.09,3.29,13,9.73,17.82,20.04C737.62,606.43,738.83,610.07,739.54,614.13z"/>
<path fill="#FFFFFF" stroke="#000000" stroke-miterlimit="10" d="M758.55,587.43c-0.6,1.2-8.06,13.52-19.01,26.71
	c-0.71-4.06-1.92-7.7-3.45-10.96c6.37-5.57,12.74-10.08,17.06-12.85c0.3-0.19,0.59-0.38,0.87-0.55c0.68-0.42,1.29-0.79,1.83-1.11
	c0.92-0.54,1.63-0.93,2.1-1.15c0.16-0.07,0.29-0.14,0.39-0.16C758.4,587.37,758.46,587.39,758.55,587.43z"/>
<path fill="#FFFFFF" stroke="#000000" stroke-miterlimit="10" d="M758.59,725.52c0,0-18.13,37.43-65.99,45.43
	c-10.05-11.36-30.91-19.55-43.57-2.79c-11.17-9.87-25.88-24.95-25.33-43.02c0.09-3.07,1.29-7.27,3.21-12.15
	c7.13-18.16,24.27-45.55,32.01-57.51c-1.14-2.84,3.98-9.04,6.89-12.25c2.64,3.82,6.59,7.67,12.39,11.19
	c13.31-3.6,30.97-10.92,43.65-21.89c0.26-0.23,0.52-0.45,0.77-0.69c4.94,9.77,15.98,29.36,28.84,37.99
	c2.05-3.07,3.82-6.23,5.35-9.43l1.54,55.79L758.59,725.52z"/>
<path fill="#FFFFFF" stroke="#000000" stroke-miterlimit="10" d="M756.8,660.41c-1.53,3.2-3.3,6.35-5.35,9.43
	c-12.86-8.63-23.9-28.22-28.84-37.99c6.15-5.42,11.91-11.65,16.93-17.71c10.95-13.19,18.41-25.51,19.01-26.71
	c0.88,0.34,2.96,1.3,3.62,2.89C762.92,592.18,772.23,628.26,756.8,660.41z"/>
<path fill="#FFFFFF" stroke="#000000" stroke-miterlimit="10" d="M765.64,751.96c-1.74,5.13-5.57,9.9-10.52,14.21
	c-18.76,16.36-53.76,26.38-53.76,26.38s-5.4,16.58-24.59,19.18c-19.17,2.61-29.41-17.88-29.41-17.88s-7.6-8.22-15.87-18.93
	c-3.2-4.13-6.49-8.63-9.49-13.17v-0.01c-7.29-11.03-12.83-22.32-10.96-29.15c3.22-11.69,11.22-17.27,15.87-19.6
	c-1.92,4.88-3.11,9.08-3.21,12.15c-0.55,18.07,14.16,33.14,25.33,43.02c12.66-16.76,33.52-8.57,43.57,2.79
	c47.86-8,65.99-45.43,65.99-45.43l-0.25-9.32C766.36,718.33,773.23,729.6,765.64,751.96z"/>
<path fill="#FFFFFF" stroke="#000000" stroke-miterlimit="10" d="M777.71,779.15c0,0-13.04,35.2-25.88,43.02
	c-12.85-0.93-72.44-1.67-121.23-14.52c0-13.87,0.51-25.76,0.89-32.72c8.28,10.71,15.87,18.93,15.87,18.93s10.24,20.49,29.41,17.88
	c19.18-2.6,24.59-19.18,24.59-19.18s35-10.02,53.76-26.38l20.53,11.8L777.71,779.15z"/>
<path fill="#FFFFFF" stroke="#000000" stroke-miterlimit="10" d="M631.49,774.92c-0.38,6.96-0.89,18.85-0.89,32.72l-12.3-5.4
	l0.69-7.53l3.01-32.95C625,766.29,628.29,770.8,631.49,774.92z"/>
<path fill="#FFFFFF" stroke="#000000" stroke-miterlimit="10" d="M804.33,808.38c0,0-0.06,0.18-0.23,0.5
	c-1.43,2.83-10.68,16.71-52.28,13.28c12.84-7.82,25.88-43.02,25.88-43.02l-2.06-1.18c0.4-2.57,1.25-6.21,2.8-5.64
	c2.36,0.87,13.97,4.22,20.02,16.23C804.52,800.57,804.33,808.38,804.33,808.38z"/>
<path fill="#FFFFFF" stroke="#000000" stroke-miterlimit="10" d="M806.2,823.47c-5.04,3.45-26.73,11.26-52.89,9.86
	c-1.02-3.17-4.74-3.17-5.86-0.27c-3.73,0.27-31.47-0.93-32.59-1.4c-0.56-2.05-4.66-3.35-5.59-1.31c-3.26,0.56-32.31-2.79-32.31-2.79
	s-1.58-5.25-3.45-4.86c-1.86,0.39-3.91,4.95-3.91,4.95l-26.81-4.85c0,0-0.84-3.63-2.71-3.63c-1.86,0-4.56,3.45-4.56,3.45
	s-18.35-4.38-20.3-11.27c-1.59-5.6,1.76-13.62,3.76-16.66l-0.69,7.53l12.3,5.4c48.79,12.85,108.38,13.59,121.23,14.52
	c41.6,3.43,50.85-10.45,52.28-13.28C804.9,812.67,806.33,820.02,806.2,823.47z"/>
<path fill="#FFFFFF" stroke="#000000" stroke-miterlimit="10" d="M536.37,571.7c0,15.23-20.26,22.85-26.94,24.95
	c8.24-14.96,16.16-29.35,20.65-38.52C534.08,562.23,536.37,566.8,536.37,571.7z"/>
<path fill="#FFFFFF" stroke="#000000" stroke-miterlimit="10" d="M530.08,558.14c-4.48,9.16-12.4,23.55-20.65,38.52
	c-0.25,0.45-0.5,0.91-0.75,1.36c-11.08,20.1-22.58,41.01-27.06,51.52c-6.59,15.49-12.09,23.03-14.26,25.67
	c0.02-0.17,0.05-0.33,0.07-0.49v-0.01c5.32-8.45,27.24-47.06-5.17-62.6c-36.5-17.5-64.68,25.14-65.92,25.52
	c-0.64-9.16,23.1-68.63,30.33-86.52c13.22-7.8,11.15-17.01,44.52-14.04C495.7,539.24,519.21,546.99,530.08,558.14z"/>
<path fill="#FFFFFF" stroke="#000000" stroke-miterlimit="10" d="M467.43,674.71v0.01c-0.55,0.87-0.92,1.42-1.03,1.59
	c-0.03,0.03-0.04,0.05-0.04,0.05s2.24-33.9-17.14-41.71c-18.88-7.64-41.67-0.38-52.11,2.75h-0.01c-0.26,0.08-0.51,0.16-0.76,0.23
	c1.24-0.38,29.42-43.02,65.92-25.52C494.67,627.64,472.74,666.25,467.43,674.71z"/>
<path fill="#FFFFFF" stroke="#000000" stroke-miterlimit="10" d="M467.35,675.21c-0.94,6.07-4.14,15.6-14.47,23.58
	c-0.01-6.84-1.9-24.31-19.86-34.91c-19.8-11.69-36.56-4-43.31,0.88l-7.51,0.54c1.4-14.06,9.76-23.41,14.9-27.91h0.01
	c10.44-3.12,33.23-10.39,52.11-2.75c19.37,7.82,17.14,41.71,17.14,41.71s0.01-0.02,0.04-0.05
	C466.52,676.18,466.85,675.83,467.35,675.21z"/>
<path fill="#FFFFFF" stroke="#000000" stroke-miterlimit="10" d="M452.88,698.79c0,0.68-0.01,1.24-0.04,1.69v0.01
	c-0.03,0.76-0.08,1.18-0.08,1.18s-13.04,31.66-37.8,38.37c-24.76,6.7-35.69-12.66-39.36-31.28c-3.66-18.63,7.61-37.99,11.8-42.09
	c0.54-0.52,1.32-1.19,2.32-1.91c6.75-4.88,23.51-12.57,43.31-0.88C450.98,674.48,452.87,691.95,452.88,698.79z"/>
<path fill="#FFFFFF" stroke="#000000" stroke-miterlimit="10" d="M458.16,702.55l-35.29,90.28l-8.81,22.56
	c-4.89-0.89-21.64-4.51-48.15-16.38c-25.77-11.53-44.73-26.7-51.07-32.12l12.43-19.69l51.56-81.65l3.36-0.25l7.51-0.54
	c-1,0.72-1.78,1.39-2.32,1.91c-4.19,4.1-15.45,23.46-11.8,42.09c3.67,18.62,14.6,37.98,39.36,31.28
	c24.76-6.71,37.8-38.37,37.8-38.37s0.05-0.42,0.08-1.18L458.16,702.55z"/>
<path fill="#FFFFFF" stroke="#000000" stroke-miterlimit="10" d="M404.77,848.55c0,0-3.05-0.91-8.19-2.61
	c-0.93-0.3-1.92-0.64-2.98-0.99c-11.72-3.97-31.15-11.01-50.66-20.23c-16.66-7.87-28.32-18.31-35.53-26.29
	c-6.23-6.89-9.16-11.95-9.16-11.95l22.09-41.71c0,0,4.98,0,6.93,2.45l-12.43,19.69c6.34,5.42,25.31,20.6,51.07,32.12
	c26.51,11.87,43.26,15.5,48.15,16.38l8.81-22.56c2.3,0.8,5.63,2.41,6.11,5.06C429.72,801.99,404.77,848.55,404.77,848.55z"/>
<path fill="#FFFFFF" stroke="#000000" stroke-miterlimit="10" d="M393.6,844.94c-0.68,7.72-1.97,21.28-3.28,29.01
	c-8.59-7.85-26.85-18.99-52.59-19.7c-23.68-0.66-41.06,9.98-49.74,18.77c-1.09-5.07-2.43-14.02-0.92-24.47
	c0.98-6.79,5.56-18.33,10.36-29.08v-0.01c3.71-8.33,7.55-16.19,9.99-21.03c7.21,7.98,18.87,18.42,35.53,26.29
	C362.45,833.93,381.88,840.97,393.6,844.94z"/>
<path fill="#FFFFFF" stroke="#000000" stroke-miterlimit="10" d="M338.85,899.19c-37.37-0.74-54.75-6.7-56.99-15.88
	c-0.44-1.8,1.71-5.8,6.13-10.29c8.67-8.79,26.06-19.42,49.74-18.77c25.74,0.71,44,11.85,52.59,19.7c3.34,3.06,5.22,5.62,5.51,6.88
	C396.82,885.3,376.22,899.95,338.85,899.19z"/>
<path fill="#FFFFFF" stroke="#000000" stroke-miterlimit="10" d="M399.8,892.75c-2.98,6.45-37.24,24.83-75.47,21.6
	c-38.24-3.23-51.15-18.38-47.68-52.64c2.63-25.98,14.97-37.96,20.78-42.24c-4.8,10.75-9.37,22.29-10.36,29.08
	c-1.52,10.45-0.17,19.4,0.92,24.47c-4.42,4.49-6.57,8.5-6.13,10.29c2.24,9.18,19.62,15.14,56.99,15.88
	c37.37,0.75,57.97-13.9,56.98-18.37c-0.28-1.25-2.16-3.81-5.51-6.88c1.31-7.72,2.6-21.28,3.28-29.01c1.06,0.36,2.05,0.69,2.98,0.99
	C398.26,857.77,402.18,887.6,399.8,892.75z"/>
<path fill="#FFFFFF" stroke="#000000" stroke-miterlimit="10" d="M365.9,415.81c-0.61-0.44-1.2-0.86-1.79-1.24
	c0.36-0.88,2.06-5.73-1.31-10.22c-2.6-3.47-15.35-1.13-22.82,0.61c0.47-0.4,0.72-0.61,0.72-0.61s-4.03-0.06-10.05,0.67
	c-6.02-5.99-23.35-22.33-35.88-24.75c-10.21-1.97-20.43,3.26-26.15,7c-3.69-0.53-7.23-0.54-10.56-0.18l27.47-35.87
	c0.09-0.23,0.84-1.25,2.1-2.67c2.27-2.59,6.23-6.53,10.97-9.54c-0.61,1.72-0.94,2.82-0.96,3.06c0.09-0.17,0.6-1.17,1.49-2.74
	c0-0.01,0-0.01,0-0.01c0.17-0.3,0.36-0.64,0.56-0.98v-0.01c2.67-1.56,5.58-2.79,8.55-3.31c11.73-2.05,15.83,3.35,15.83,3.35
	s25.02-4.7,41.57,14.27c0.89,1,1.74,2.08,2.57,3.23C383.28,376.76,370.64,408.14,365.9,415.81z"/>
<path fill="#FFFFFF" stroke="#000000" stroke-miterlimit="10" d="M373.8,422.48c-2.65-2.61-5.34-4.82-7.9-6.67
	c4.73-7.67,17.38-39.05,2.31-59.95c-0.83-1.15-1.68-2.23-2.57-3.23c4.82-5.2,14.45-15.58,18.1-19.37
	c7.87,11.06,13.05,23.27,13.71,32.66C398.9,386.66,397.16,408.3,373.8,422.48z"/>
<path fill="#FFFFFF" stroke="#000000" stroke-miterlimit="10" d="M383.74,333.26c-3.65,3.79-13.28,14.17-18.1,19.37
	c-16.55-18.98-41.57-14.27-41.57-14.27s-4.1-5.4-15.83-3.35c-2.97,0.52-5.87,1.76-8.55,3.31c5.87-10.14,23.61-36.97,45.17-33.48
	C359.64,307.23,373.81,319.33,383.74,333.26z"/>
<path fill="#FFFFFF" stroke="#000000" stroke-miterlimit="10" d="M269.2,461.7c0.07,0.7,0.16,1.39,0.27,2.05
	c-21.55,1.72-23.38-32.27-5.5-42.77c14.05-8.25,24.45-4.46,29.45-1.8C278.7,429.73,267.47,444.21,269.2,461.7z"/>
<path fill="#FFFFFF" stroke="#000000" stroke-miterlimit="10" d="M302.83,481.94c0,0,1.91,1.89,4.56,4.32
	c-8.01,8.71-36.21,19.95-67.49,1.95c-32.03-18.42-31.28-65.99-11.91-86.59c0,0,12.12-12.61,30.07-14.53
	c3.33-0.37,6.88-0.36,10.56,0.18c4.61,0.66,9.46,2.12,14.48,4.67c13.45,6.83,21.16,13.37,25.59,18.58c-1.65,0.68-3.3,1.42-4.92,2.25
	c-5.27-5.71-22.82-21.56-50.71-15.61c-33.77,7.2-34.51,46.97-26.07,63.33c8.44,16.37,26.92,33.31,50.41,32.02
	c11.89-0.66,18.48-3.83,22.1-6.81c0.53-0.01,1.06-0.02,1.58-0.04c-0.24,0-0.69-0.04-1.22-0.26
	C301.33,484.11,302.26,482.89,302.83,481.94z"/>
<path fill="#FFFFFF" stroke="#000000" stroke-miterlimit="10" d="M269.47,463.75c2.81,17.47,18.25,22.02,30.03,21.93
	c-3.62,2.98-10.21,6.15-22.1,6.81c-23.49,1.3-41.96-15.64-50.41-32.02c-8.44-16.36-7.7-56.13,26.07-63.33
	c27.89-5.95,45.44,9.91,50.71,15.61c-1.19,0.61-2.37,1.25-3.53,1.95c-2.33,1.4-4.62,2.89-6.82,4.47c-4.99-2.66-15.39-6.46-29.45,1.8
	C246.08,431.48,247.92,465.48,269.47,463.75z"/>
<path fill="#FFFFFF" stroke="#000000" stroke-miterlimit="10" d="M330.66,405.02c-6.03,0.73-14.04,2.28-21.96,5.5
	c-4.43-5.2-12.14-11.74-25.59-18.58c-5.03-2.55-9.87-4.01-14.48-4.67c5.73-3.74,15.95-8.98,26.15-7
	C307.3,382.69,324.64,399.03,330.66,405.02z"/>
<path fill="#FFFFFF" stroke="#000000" stroke-miterlimit="10" d="M340.71,404.35c0,0-0.25,0.21-0.72,0.61
	c-4.55,3.82-29.23,25.51-38.71,52.28c-7.91,22.32-3.88,27.13-1.42,28.15c-0.11,0.1-0.23,0.21-0.36,0.3
	c-11.78,0.08-27.22-4.46-30.03-21.93c-0.11-0.66-0.2-1.35-0.27-2.05c-1.72-17.49,9.51-31.97,24.22-42.52
	c0.71,0.39,1.32,0.74,1.81,1.03c-5.44,4.19-10.34,9.23-12.61,14.67c-8.69,20.86-6.71,25.32-1.49,26.81
	c5.21,1.49,11.67,0.99,17.27-11.67c5.61-12.66,30.71-41.4,30.71-41.4s-7.75-0.06-11.73,0c-1.17,0.02-4.13,1.04-7.88,2.85
	c-0.25-0.31-0.51-0.64-0.79-0.97c7.92-3.22,15.93-4.76,21.96-5.5C336.68,404.29,340.71,404.35,340.71,404.35z"/>
<path fill="#FFFFFF" stroke="#000000" stroke-miterlimit="10" d="M375.56,459.45c-1.15,2.31-4.11,5.77-8.05,8.58
	c-4.28,3.07-9.73,5.38-15.32,4.64c0.13-0.34,0.19-0.53,0.19-0.53s-13.66-27.8-16.89-27.93c-1.82-0.07-6.22-1.35-9.73-2.47
	c0.95-8.54,11.7-18.01,16.93-19.29h0.01c4.4,1.45,9.04,3,9.68,3.26c1.14,0.45,18.49,24.31,22.75,30.29
	c0.41,0.56,0.69,0.97,0.84,1.18C376.25,457.59,376.09,458.4,375.56,459.45z"/>
<path fill="#FFFFFF" stroke="#000000" stroke-miterlimit="10" d="M352.38,472.13c0,0-0.06,0.19-0.19,0.53
	c-1.12,3.03-7.19,17.83-17.69,13.01c0,0-10.43-23.47-19.86-26.95c0.99-8.93,6.94-15.14,11.12-16.99h0.01
	c3.51,1.12,7.91,2.39,9.73,2.47C338.72,444.33,352.38,472.13,352.38,472.13z"/>
<path fill="#FFFFFF" stroke="#000000" stroke-miterlimit="10" d="M334.5,485.67c0,0-8.69,9.55-12.16,10.86
	c-2.28,0.86-9.94-5.66-14.95-10.27c-2.64-2.42-4.56-4.32-4.56-4.32s14.29,0.87,14.29-3.1c0-3.98-12.26-9.69-12.26-9.69
	s4.81-7.7,9.77-10.43C324.07,462.2,334.5,485.67,334.5,485.67z"/>
<path fill="#FFFFFF" stroke="#000000" stroke-miterlimit="10" d="M375.13,456c-4.25-5.98-21.61-29.84-22.75-30.29
	c-0.64-0.26-5.28-1.81-9.68-3.26c0.21-4.79,6.5-10.86,10.85-13.68c2.24,0.96,5.29,2.45,8.74,4.61c0.6,0.38,1.21,0.77,1.83,1.19
	c0.59,0.39,1.18,0.8,1.79,1.24c2.56,1.85,5.25,4.05,7.9,6.67c-0.54,0.33-1.1,0.66-1.66,0.98c0.13-0.03,0.88-0.21,2.09-0.55
	c0.59,0.57,1.16,1.18,1.73,1.8C387.37,437.04,382.21,450.75,375.13,456z"/>
<path fill="#FFFFFF" stroke="#000000" stroke-miterlimit="10" d="M364.12,414.57c-0.62-0.42-1.23-0.82-1.83-1.19
	c-0.97-2.34-3.26-6.89-5.94-6.05c-0.72,0.23-1.7,0.73-2.8,1.44c-4.35,2.82-10.64,8.89-10.85,13.68h-0.01
	c-5.22,1.27-15.98,10.75-16.93,19.29h-0.01c-4.18,1.85-10.13,8.06-11.12,16.99c-4.96,2.73-9.77,10.43-9.77,10.43
	s12.26,5.71,12.26,9.69c0,3.97-14.29,3.1-14.29,3.1c-0.57,0.95-1.5,2.16-2.98,3.44c-2.46-1.02-6.49-5.83,1.42-28.15
	c9.49-26.77,34.17-48.45,38.71-52.28c7.47-1.73,20.22-4.08,22.82-0.61C366.17,408.84,364.47,413.69,364.12,414.57z"/>
<path fill="#FFFFFF" stroke="#000000" stroke-miterlimit="10" d="M329.1,408.63c0,0-25.1,28.73-30.71,41.4
	c-5.6,12.66-12.06,13.17-17.27,11.67c-5.21-1.49-7.2-5.96,1.49-26.81c2.27-5.44,7.17-10.48,12.61-14.67
	c3.15-2.41,6.48-4.55,9.59-6.3c1.64-0.92,3.21-1.73,4.67-2.43c3.75-1.81,6.71-2.83,7.88-2.85
	C321.35,408.57,329.1,408.63,329.1,408.63z"/>
<path fill="#FFFFFF" stroke="#000000" stroke-miterlimit="10" d="M803.49,324.93c-7.49-5.06-21.58-22.78-27.5-30.45
	c0.65-3.96-0.29-8.47-2.37-12.92c-2.26-4.81-8.11-8.47-14.27-11.12c-1.04-1.79-4.04-4.71-8.02-8.17c8.83-1.37,21.67-1.8,33.15,3.74
	h0.01c15.61,13.78,20.15,37.82,20.78,49.07C805.41,317.68,804.82,321.15,803.49,324.93z"/>
<path fill="#FFFFFF" stroke="#000000" stroke-miterlimit="10" d="M797.07,348.6c-17.13,20.86-47.29,14.27-51.02,11.99
	c-3.72-2.3-23.83-15.7-23.83-15.7c-10.84-13.37-7.31-31.24-6.07-36.12c0.22,0.29,0.45,0.57,0.68,0.85c1.89,2.19,4.28,3.77,6.74,4.18
	c0.16,0.03,0.32,0.05,0.48,0.07c1.61,13,7.88,29.19,27.96,36.24c28.92,10.14,46.14-10.03,51.48-25.17c1.34-3.77,1.92-7.24,1.78-9.84
	c-0.64-11.25-5.17-35.29-20.78-49.07c4.51,2.17,8.82,5.27,12.59,9.59C817.56,299.07,814.21,327.75,797.07,348.6z"/>
<path fill="#FFFFFF" stroke="#000000" stroke-miterlimit="10" d="M722.21,344.88c0,0-31.44-13.3-49.11-16.75
	c-0.06-2.6-0.15-5.39-0.24-8.39c-0.59-17.87-3.29-32.6-5.22-41.09c0.14,0.25,0.2,0.3,0.2,0.11c0-2.12-3.88-30.85-10.01-51.07
	c3.98,1.16,9.97,3.89,15.39,10.29c1.58,1.11,5.92,3.1,11.71,5.53c-4.25,3.16-8.36,6.96-9.28,10.3c-1.97,7.19,0.21,15.92,5.39,22.21
	c0.15,4.04,1.53,8.86,5.41,12.42c5.64,5.16,7.72,4.67,8.23,4.38c3.4,3.96,12.42,13.95,16.91,13.75c1.07-0.05,2.08-0.16,3.01-0.29
	c0.44,0.87,0.95,1.7,1.54,2.47C714.9,313.64,711.38,331.51,722.21,344.88z"/>
<path fill="#FFFFFF" stroke="#000000" stroke-miterlimit="10" d="M725.18,259.16c-0.1,0.43-0.28,0.82-0.54,1.18
	c-37.8,23.09-29.8,32.4-29.8,32.4s-0.04,0.04-0.15,0.09c-0.51,0.29-2.59,0.78-8.23-4.38c-3.89-3.56-5.27-8.38-5.41-12.42
	c-0.11-2.93,0.43-5.43,1.13-6.76c0.78-1.48,13.32-11.17,22.28-17.97c2.73-2.08,5.14-3.89,6.77-5.12h0.01
	C717.77,245.16,726.5,254.11,725.18,259.16z"/>
<path fill="#FFFFFF" stroke="#000000" stroke-miterlimit="10" d="M803.49,324.93c-5.34,15.14-22.56,35.31-51.48,25.17
	c-20.08-7.04-26.35-23.24-27.96-36.24c5.01,0.64,10.17-1.82,12.65-6.38c3.75,2.1,14.17,6.59,23.91-1.16
	c9.8-1.21,14.41-5.88,15.38-11.84C781.91,302.15,796,319.87,803.49,324.93z"/>
<path fill="#FFFFFF" stroke="#000000" stroke-miterlimit="10" d="M775.99,294.48c-0.97,5.96-5.58,10.63-15.38,11.84
	c-1.12,0.14-2.31,0.23-3.56,0.27c-5.9,0.21-11.21-0.76-15.75-2.2c3.77,1.03,15.56-3.26,12.39-15.37
	c-1.44-5.48-6.28-14.81-11.57-23.88c-0.15-0.25-0.28-0.49-0.43-0.73c-4.39-7.5-9.02-14.74-12.19-19.4
	c7.35,5.52,15.74,12.01,21.81,17.27h0.01c3.98,3.46,6.98,6.38,8.02,8.17c6.16,2.64,12.02,6.31,14.27,11.12
	C775.69,286,776.63,290.52,775.99,294.48z"/>
<path fill="#FFFFFF" stroke="#000000" stroke-miterlimit="10" d="M741.29,304.38c-0.17-0.04-0.33-0.09-0.5-0.16
	c-0.87-0.31-1.77-0.8-2.65-1.41c-2.84-1.97-5.46-5.21-5.88-7.69c-0.56-3.38,11.93-7.97,11.93-7.97s0.19-9.69-6.52-12.66
	c2.42-6.52-8.11-13.7-13.03-14.15c0.26-0.37,0.44-0.75,0.54-1.18c1.32-5.05-7.41-14-13.95-12.98c2.03-1.69-1.13-8.38-2.61-9.31
	c-1.49-0.93-5.59-1.31-15.27,2.42c0.01-0.5,0.05-0.97,0.13-1.41v-0.01c1.69-10.02,19.79-4.76,19.79-4.76s7.37,5.25,16.23,11.89
	c3.18,4.66,7.81,11.9,12.19,19.4c-0.8,0.24-1.23,0.4-1.23,0.4s0.61,0.1,1.66,0.33c5.29,9.07,10.13,18.4,11.57,23.88
	C756.85,301.12,745.07,305.42,741.29,304.38z"/>
<path fill="#FFFFFF" stroke="#000000" stroke-miterlimit="10" d="M711.23,246.18h-0.01c-1.63,1.23-4.04,3.04-6.77,5.12
	c-8.95,6.8-21.49,16.49-22.28,17.97c-0.7,1.33-1.24,3.83-1.13,6.76c-5.18-6.29-7.37-15.03-5.39-22.21c0.92-3.34,5.03-7.15,9.28-10.3
	c3.21-2.39,6.49-4.43,8.55-5.63c-0.07,0.44-0.11,0.91-0.13,1.41c9.68-3.73,13.77-3.35,15.27-2.42
	C710.1,237.8,713.26,244.49,711.23,246.18z"/>
<path fill="#FFFFFF" stroke="#000000" stroke-miterlimit="10" d="M737.67,274.49c0,0-20.29,14.35-23.65,21.42
	c-1.55,3.27-1.06,7.09,0.59,10.39c-0.93,0.14-1.94,0.24-3.01,0.29c-4.48,0.2-13.51-9.79-16.91-13.75c0.1-0.05,0.15-0.09,0.15-0.09
	s-8-9.31,29.8-32.4C729.56,260.79,740.09,267.97,737.67,274.49z"/>
<path fill="#FFFFFF" stroke="#000000" stroke-miterlimit="10" d="M410.85,400.38c-9.01,13.66-29.93,20.6-36.62,22.53
	c-0.15-0.15-0.28-0.29-0.43-0.43c23.35-14.18,25.1-35.82,23.65-56.55c-0.66-9.39-5.84-21.61-13.71-32.66
	c-9.93-13.93-24.1-26.03-38.87-28.42c-21.56-3.49-39.3,23.34-45.17,33.48v0.01c-0.23,0.14-0.46,0.27-0.69,0.42
	c-0.04-0.18-0.08-0.37-0.13-0.55c1.99-5.49,6.28-15.84,12.55-25.21v-0.01c5.86-8.79,13.47-16.7,22.51-18.92
	c4.82-1.18,10.11-1.21,15.63-0.31l0.2,0.31l0.23-0.24c20.42,3.48,43.6,19.54,55.26,36.74C420.16,352.52,421.66,383.98,410.85,400.38
	z"/>
<path fill="#FFFFFF" stroke="#000000" stroke-miterlimit="10" d="M305.06,267.67c-3.18-14.72-6.48-23.07-8.55-27.31l-2.63-34.72
	c5.55,5.49,10.67,11.86,10.95,12.09c0.15,0.11,0.1,4.59,0.02,10.97v0.01C304.71,240.24,304.46,258,305.06,267.67z"/>
<path fill="#FFFFFF" stroke="#000000" stroke-miterlimit="10" d="M311.43,312.97v0.01c-6.27,9.37-10.56,19.73-12.55,25.21
	c-5.56-25.78-11.63-94.99-11.31-97.59c0.37-2.98,8.93-0.19,8.93-0.19v-0.05c2.07,4.24,5.37,12.59,8.55,27.31v0.04
	c0.19,3.2,0.48,5.51,0.89,6.41c0.13,0,0.26,0.01,0.41,0.01C308.28,284.35,310.07,297.12,311.43,312.97z"/>
<path fill="#FFFFFF" stroke="#000000" stroke-miterlimit="10" d="M356.83,286.71l-6.83,7.09c-0.14-0.03-0.28-0.05-0.43-0.07
	l-10.35-16.51c0.07-0.23,3.6-4.14,6.38-7.19c0.11,3.47,1.2,7.16,4.04,10.66C352.06,283.66,354.48,285.56,356.83,286.71z"/>
<path fill="#FFFFFF" stroke="#000000" stroke-miterlimit="10" d="M349.57,293.73c-5.52-0.9-10.81-0.87-15.63,0.31
	c-9.04,2.23-16.65,10.14-22.51,18.92c-1.36-15.85-3.16-28.62-5.08-38.84c7.93,0.34,32.75,3.45,32.86,3.09L349.57,293.73z"/>
<path fill="#FFFFFF" stroke="#000000" stroke-miterlimit="10" d="M760.6,306.32c-9.74,7.75-20.16,3.26-23.91,1.16
	c0.69-1.26,1.17-2.69,1.39-4.24c0.87,0.36,1.77,0.68,2.71,0.99c0.17,0.06,0.33,0.11,0.5,0.16c4.53,1.44,9.84,2.41,15.75,2.2
	C758.3,306.55,759.49,306.45,760.6,306.32z"/>
<path fill="#FFFFFF" stroke="#000000" stroke-miterlimit="10" d="M732.26,295.12c0.42,2.48,3.04,5.72,5.88,7.69
	c-0.01,0.14-0.03,0.28-0.05,0.42c-0.22,1.56-0.7,2.98-1.39,4.24c-2.49,4.57-7.65,7.02-12.65,6.38c-0.16-0.02-0.32-0.04-0.48-0.07
	c-2.46-0.41-4.85-1.99-6.74-4.18l-0.32-2.13c0,0-0.15,0.46-0.36,1.29c-0.59-0.76-1.1-1.6-1.54-2.47c-1.64-3.29-2.13-7.12-0.59-10.39
	c3.35-7.07,23.65-21.42,23.65-21.42c6.71,2.98,6.52,12.66,6.52,12.66S731.69,291.75,732.26,295.12z"/>
<ellipse fill="#FFFFFF" stroke="#000000" stroke-miterlimit="10" cx="553.31" cy="367.69" rx="16.97" ry="19.15"/>
<ellipse fill="#FFFFFF" stroke="#000000" stroke-miterlimit="10" cx="617.8" cy="342.36" rx="20.92" ry="23.6"/>
<ellipse fill="#FFFFFF" stroke="#000000" stroke-miterlimit="10" cx="622.89" cy="342.36" rx="12.96" ry="18.52"/>
<ellipse transform="matrix(0.9975 -0.0705 0.0705 0.9975 -21.5118 47.3306)" fill="#FFFFFF" stroke="#000000" stroke-miterlimit="10" cx="660.13" cy="328.58" rx="7.71" ry="19.15"/>
<path fill="#FFFFFF" stroke="#000000" stroke-miterlimit="10" d="M501.93,257.6c0,0-1.26,14.29,3.15,16.53
	c4.41,2.24,20.36,12.58,20.36,12.58s8.69-6.77,16.51-9.49c7.82-2.72,10.73-21.09,10.73-21.09s-19.91,6.45-27.24,6.45
	S501.93,257.6,501.93,257.6z"/>
</svg>
