<?xml version="1.0" encoding="utf-8"?>
<!-- Generator: Adobe Illustrator 23.0.5, SVG Export Plug-In . SVG Version: 6.00 Build 0)  -->
<svg version="1.1" baseProfile="tiny" id="Layer_1" xmlns="http://www.w3.org/2000/svg" xmlns:xlink="http://www.w3.org/1999/xlink"
	 x="0px" y="0px" viewBox="0 0 1000 1000" xml:space="preserve">
<rect x="0.5" y="1.5" fill="#FFFFFF" stroke="#000000" stroke-miterlimit="10" width="999" height="1000"/>
<path fill="#FFFFFF" stroke="#000000" stroke-miterlimit="10" d="M144.5,137.5c0,0,3-26,31-20c0,0,12-25,37-22s31,28,31,28
	s0.2,0,0.6,0.1c27.6,3.1,28.8,42.7,1.5,47.7c-5.9,1.1-13.2,1.2-22.1,1.2c-45,0-102,8-101-15S144.5,137.5,144.5,137.5z"/>
<path fill="#FFFFFF" stroke="#000000" stroke-miterlimit="10" d="M615.5,133.5c0,0,2-17.6,20.9-13.5c0,0,8.1-16.9,25-14.9
	c16.9,2,20.9,18.9,20.9,18.9s0.1,0,0.4,0c18.6,2.1,19.5,28.8,1,32.2c-4,0.7-8.9,0.8-14.9,0.8c-30.4,0-68.9,5.4-68.2-10.1
	S615.5,133.5,615.5,133.5z"/>
<path fill="#FFFFFF" stroke="#000000" stroke-miterlimit="10" d="M516.3,327.3c0,0,3.9-33.4,39.9-25.7c0,0,15.4-32.2,47.6-28.3
	s39.9,36,39.9,36s0.3,0,0.8,0.1c35.4,3.9,37,54.9,2,61.4c-7.6,1.4-17,1.6-28.5,1.6c-57.9,0-131.2,10.3-129.9-19.3
	C489.3,323.5,516.3,327.3,516.3,327.3z"/>
<path fill="#FFFFFF" stroke="#000000" stroke-miterlimit="10" d="M340.6,220.9c0,0,1.4-12.3,14.6-9.4c0,0,5.7-11.8,17.5-10.4
	c11.8,1.4,14.6,13.2,14.6,13.2s0.1,0,0.3,0c13,1.4,13.6,20.1,0.7,22.5c-2.8,0.5-6.2,0.6-10.4,0.6c-21.2,0-48.1,3.8-47.7-7.1
	S340.6,220.9,340.6,220.9z"/>
<path fill="#FFFFFF" stroke="#000000" stroke-miterlimit="10" d="M884.5,313.6v214.9l-3.6,3.4c-10.5,10.1-27.7,8-35.4-4.4V313.4
	c6.5,1.4,13.1,2.1,20,2.1c3.1,0,6.2-0.2,9.2-0.4C878,314.8,881.3,314.3,884.5,313.6z"/>
<path fill="#FFFFFF" stroke="#000000" stroke-miterlimit="10" d="M961.5,219.5c0,12-2.2,23.6-6.3,34.2
	c-24.1-27.7-60.2-34.3-78.7-35.8c0-0.1,0-0.3,0-0.4c0-1.2-0.2-2.3-0.5-3.4c10.7-7.2,40.3-22.3,84.7-7.2
	C961.2,211,961.5,215.2,961.5,219.5z"/>
<path fill="#FFFFFF" stroke="#000000" stroke-miterlimit="10" d="M960.7,206.9c-44.4-15.1-74,0-84.7,7.2c-0.2-0.8-0.5-1.5-0.9-2.2
	c0,0,26.9-36.9,77.8-32C956.8,188.3,959.4,197.4,960.7,206.9z"/>
<path fill="#FFFFFF" stroke="#000000" stroke-miterlimit="10" d="M953,179.8c-50.9-4.8-77.8,32-77.8,32c-1.1-2-2.7-3.7-4.7-4.8
	c3.8-12.3,19.7-54,62.5-55.9C941.3,159.4,948.1,169.1,953,179.8z"/>
<path fill="#FFFFFF" stroke="#000000" stroke-miterlimit="10" d="M932.9,151.2c-42.8,1.9-58.7,43.5-62.5,55.9
	c-1.4-0.8-3-1.3-4.6-1.5c1.3-15.5,8.2-62.5,41.6-72.5C916.9,137.7,925.5,143.8,932.9,151.2z"/>
<path fill="#FFFFFF" stroke="#000000" stroke-miterlimit="10" d="M907.4,133.1c-33.4,10-40.2,57-41.6,72.5c-0.4-0.1-0.9-0.1-1.3-0.1
	c-1.5,0-2.9,0.3-4.2,0.8c-17.1-31.9-5.5-67.2,1.3-82.7c1.3,0,2.6-0.1,4-0.1C880.5,123.5,894.7,127,907.4,133.1z"/>
<path fill="#FFFFFF" stroke="#000000" stroke-miterlimit="10" d="M860.3,206.3c-1.9,0.7-3.6,1.9-4.9,3.5
	c-24.6-21.1-25.6-61.4-24.7-79.7c9.6-3.8,20-6,30.9-6.4C854.7,139.1,843.1,174.3,860.3,206.3z"/>
<path fill="#FFFFFF" stroke="#000000" stroke-miterlimit="10" d="M855.3,209.7c-1.3,1.5-2.2,3.3-2.6,5.3
	c-30.8-4.9-50.3-41.8-58.2-60.2c9.9-10.8,22.2-19.4,36.1-24.8C829.7,148.3,830.8,188.6,855.3,209.7z"/>
<path fill="#FFFFFF" stroke="#000000" stroke-miterlimit="10" d="M852.9,220.5L852.9,220.5c-0.2,0.3-0.5,0.7-0.7,1
	c-36.2-1.2-62.4-28.6-73.6-42.7c4.1-8.8,9.5-16.9,16-24c7.9,18.4,27.4,55.3,58.2,60.2c-0.2,0.8-0.3,1.6-0.3,2.5
	C852.5,218.5,852.6,219.5,852.9,220.5z"/>
<path fill="#FFFFFF" stroke="#000000" stroke-miterlimit="10" d="M852.2,221.5c-5.9,7.9-25.4,23.3-82.1,8.1v0
	c-0.4-3.3-0.5-6.7-0.5-10.1c0-14.5,3.2-28.3,9-40.7C789.7,193,816,220.3,852.2,221.5z"/>
<path fill="#FFFFFF" stroke="#000000" stroke-miterlimit="10" d="M804.5,293.6c-13.6-11.2-24-26-29.8-43
	c19.3,1.7,63.9,2.6,82.6-23.6c0.1,0.1,0.3,0.2,0.5,0.3C857.8,237,854.1,269.2,804.5,293.6z"/>
<path fill="#FFFFFF" stroke="#000000" stroke-miterlimit="10" d="M868.2,229.9c-3.9,15.4-16.9,59.9-40,78.1
	c-8.7-3.7-16.7-8.5-23.8-14.4c49.6-24.3,53.3-56.6,53.2-66.2c1.9,1.3,4.3,2.1,6.8,2.1c1.1,0,2.2-0.2,3.2-0.4
	C867.8,229.3,868,229.6,868.2,229.9z"/>
<path fill="#FFFFFF" stroke="#000000" stroke-miterlimit="10" d="M874.7,315.1c-3,0.3-6.1,0.4-9.2,0.4c-6.9,0-13.5-0.7-20-2.1
	c-6-1.3-11.7-3.1-17.3-5.4c23-18.2,36-62.7,40-78.1C879.5,247.9,893.2,280.5,874.7,315.1z"/>
<path fill="#FFFFFF" stroke="#000000" stroke-miterlimit="10" d="M940.3,279.6c-8.9,11.1-20.2,20.1-33.1,26.4
	c0.4-35.7-19.4-65.2-33.1-81.3c0.8-1,1.4-2.2,1.8-3.4C891.7,222.5,921.8,231.6,940.3,279.6z"/>
<path fill="#FFFFFF" stroke="#000000" stroke-miterlimit="10" d="M955.2,253.7c-3.6,9.5-8.6,18.2-14.9,25.9
	c-18.6-48-48.7-57.1-64.4-58.4c0.3-1,0.5-2.2,0.6-3.3C895.1,219.4,931.2,226,955.2,253.7z"/>
<path fill="#FFFFFF" stroke="#000000" stroke-miterlimit="10" d="M876.5,217.5c0,0.1,0,0.3,0,0.4c0,1.2-0.2,2.3-0.6,3.3
	c-0.4,1.2-1,2.4-1.8,3.4c-1.4,1.9-3.4,3.4-5.7,4.2c-0.3,0.1-0.5,0.2-0.8,0.3c-1,0.3-2.1,0.4-3.2,0.4c-2.5,0-4.9-0.8-6.8-2.1
	c-0.2-0.1-0.3-0.2-0.5-0.3c-1.8-1.4-3.2-3.3-4-5.5c-0.1-0.3-0.2-0.7-0.3-1v0c-0.3-1-0.4-2-0.4-3c0-0.9,0.1-1.7,0.3-2.5
	c0.4-2,1.3-3.8,2.6-5.3c1.3-1.5,3-2.8,4.9-3.5c1.3-0.5,2.8-0.8,4.2-0.8c0.5,0,0.9,0,1.3,0.1c1.7,0.2,3.2,0.7,4.6,1.5
	c2,1.1,3.6,2.8,4.7,4.8c0.4,0.7,0.7,1.4,0.9,2.2C876.3,215.2,876.5,216.3,876.5,217.5z"/>
<path fill="#FFFFFF" stroke="#000000" stroke-miterlimit="10" d="M907.2,306c-4.7,2.3-9.6,4.2-14.7,5.7c-2.6,0.8-5.3,1.4-8,2
	c-3.2,0.6-6.5,1.1-9.8,1.4c18.5-34.5,4.8-67.2-6.5-85.2c0.1-0.4,0.2-0.7,0.3-1.1c2.3-0.8,4.2-2.3,5.7-4.2
	C887.8,240.8,907.7,270.3,907.2,306z"/>
<path fill="#FFFFFF" stroke="#000000" stroke-miterlimit="10" d="M857.2,227c-18.7,26.2-63.3,25.3-82.6,23.6v0
	c-2.3-6.7-3.9-13.7-4.6-21c56.7,15.2,76.2-0.3,82.1-8.1c0.3-0.4,0.5-0.7,0.7-1c0.1,0.4,0.2,0.7,0.3,1
	C854,223.7,855.4,225.6,857.2,227z"/>
<path fill="#FFFFFF" stroke="#000000" stroke-miterlimit="10" d="M135,428.5c0,6.8-1.3,13.4-3.6,19.4
	c-13.7-15.7-34.2-19.5-44.7-20.3c0-0.1,0-0.2,0-0.2c0-0.7-0.1-1.3-0.3-1.9c6.1-4.1,22.9-12.6,48.1-4.1
	C134.8,423.7,135,426.1,135,428.5z"/>
<path fill="#FFFFFF" stroke="#000000" stroke-miterlimit="10" d="M134.5,421.3c-25.2-8.5-42,0-48.1,4.1c-0.1-0.4-0.3-0.9-0.5-1.2
	c0,0,15.3-20.9,44.2-18.2C132.3,410.8,133.8,415.9,134.5,421.3z"/>
<path fill="#FFFFFF" stroke="#000000" stroke-miterlimit="10" d="M130.1,406c-28.9-2.7-44.2,18.2-44.2,18.2
	c-0.6-1.1-1.5-2.1-2.7-2.7c2.2-7,11.2-30.7,35.5-31.7C123.5,394.4,127.4,399.9,130.1,406z"/>
<path fill="#FFFFFF" stroke="#000000" stroke-miterlimit="10" d="M118.8,389.7c-24.3,1.1-33.3,24.7-35.5,31.7
	c-0.8-0.5-1.7-0.8-2.6-0.9c0.8-8.8,4.6-35.5,23.6-41.1C109.7,382.1,114.6,385.5,118.8,389.7z"/>
<path fill="#FFFFFF" stroke="#000000" stroke-miterlimit="10" d="M104.3,379.4c-19,5.7-22.8,32.4-23.6,41.1c-0.2,0-0.5,0-0.7,0
	c-0.8,0-1.7,0.2-2.4,0.4c-9.7-18.1-3.1-38.1,0.7-46.9c0.7,0,1.5,0,2.2,0C89,374,97.1,376,104.3,379.4z"/>
<path fill="#FFFFFF" stroke="#000000" stroke-miterlimit="10" d="M77.5,421c-1.1,0.4-2,1.1-2.8,2c-13.9-12-14.5-34.9-14-45.3
	c5.5-2.1,11.4-3.4,17.5-3.7C74.4,382.9,67.8,402.9,77.5,421z"/>
<path fill="#FFFFFF" stroke="#000000" stroke-miterlimit="10" d="M74.7,423c-0.7,0.8-1.2,1.9-1.5,3c-17.5-2.8-28.6-23.7-33.1-34.2
	c5.6-6.2,12.6-11,20.5-14.1C60.2,388.1,60.8,411,74.7,423z"/>
<path fill="#FFFFFF" stroke="#000000" stroke-miterlimit="10" d="M73.3,429.1L73.3,429.1c-0.1,0.2-0.3,0.4-0.4,0.6
	c-20.5-0.7-35.4-16.2-41.8-24.2c2.3-5,5.4-9.6,9.1-13.6c4.5,10.4,15.6,31.4,33.1,34.2c-0.1,0.5-0.1,0.9-0.1,1.4
	C73.1,427.9,73.2,428.5,73.3,429.1z"/>
<path fill="#FFFFFF" stroke="#000000" stroke-miterlimit="10" d="M72.9,429.6c-3.4,4.5-14.4,13.2-46.6,4.6v0
	c-0.2-1.9-0.3-3.8-0.3-5.8c0-8.3,1.8-16.1,5.1-23.1C37.5,413.4,52.4,429,72.9,429.6z"/>
<path fill="#FFFFFF" stroke="#000000" stroke-miterlimit="10" d="M45.8,470.6c-7.7-6.3-13.6-14.8-16.9-24.4c11,1,36.3,1.5,46.9-13.4
	c0.1,0.1,0.2,0.1,0.3,0.2C76.1,438.4,74,456.7,45.8,470.6z"/>
<path fill="#FFFFFF" stroke="#000000" stroke-miterlimit="10" d="M82,434.4c-2.2,8.8-9.6,34-22.7,44.3c-4.9-2.1-9.5-4.8-13.5-8.2
	C74,456.7,76.1,438.4,76.1,433c1.1,0.8,2.4,1.2,3.9,1.2c0.6,0,1.2-0.1,1.8-0.2C81.8,434.1,81.9,434.2,82,434.4z"/>
<path fill="#FFFFFF" stroke="#000000" stroke-miterlimit="10" d="M85.7,482.8c-1.7,0.2-3.5,0.3-5.2,0.3c-3.9,0-7.7-0.4-11.3-1.2
	c-0.9-0.2-1.8-0.4-2.7-0.6c-2.5-0.7-4.8-1.5-7.2-2.4c13.1-10.4,20.5-35.6,22.7-44.4C88.4,444.6,96.2,463.2,85.7,482.8z"/>
<path fill="#FFFFFF" stroke="#000000" stroke-miterlimit="10" d="M123,462.6c-5,6.3-11.5,11.4-18.8,15c0.2-20.3-11-37-18.8-46.2
	c0.4-0.6,0.8-1.2,1-1.9C95.4,430.2,112.5,435.4,123,462.6z"/>
<path fill="#FFFFFF" stroke="#000000" stroke-miterlimit="10" d="M131.4,447.9c-2,5.4-4.9,10.3-8.5,14.7
	c-10.5-27.2-27.6-32.4-36.6-33.1c0.2-0.6,0.3-1.2,0.3-1.9C97.3,428.5,117.8,432.2,131.4,447.9z"/>
<path fill="#FFFFFF" stroke="#000000" stroke-miterlimit="10" d="M86.7,427.4c0,0.1,0,0.2,0,0.2c0,0.7-0.1,1.3-0.3,1.9
	c-0.2,0.7-0.6,1.4-1,1.9c-0.8,1.1-1.9,1.9-3.2,2.4c-0.1,0.1-0.3,0.1-0.5,0.1c-0.6,0.2-1.2,0.2-1.8,0.2c-1.4,0-2.8-0.4-3.9-1.2
	c-0.1-0.1-0.2-0.1-0.3-0.2c-1-0.8-1.8-1.9-2.3-3.1c-0.1-0.2-0.1-0.4-0.2-0.6v0c-0.1-0.5-0.2-1.1-0.2-1.7c0-0.5,0.1-1,0.1-1.4
	c0.2-1.1,0.7-2.1,1.5-3c0.7-0.9,1.7-1.6,2.8-2c0.7-0.3,1.6-0.4,2.4-0.4c0.3,0,0.5,0,0.7,0c0.9,0.1,1.8,0.4,2.6,0.9
	c1.1,0.6,2,1.6,2.7,2.7c0.2,0.4,0.4,0.8,0.5,1.2C86.6,426,86.7,426.7,86.7,427.4z"/>
<path fill="#FFFFFF" stroke="#000000" stroke-miterlimit="10" d="M104.2,477.6c-2.7,1.3-5.5,2.4-8.4,3.2c-1.5,0.4-3,0.8-4.5,1.1
	c-0.3,0.1-0.6,0.1-0.9,0.2c-1.5,0.3-3.1,0.5-4.7,0.7c10.5-19.6,2.7-38.1-3.7-48.4c0.1-0.2,0.1-0.4,0.2-0.6c1.3-0.5,2.4-1.3,3.2-2.4
	C93.2,440.6,104.4,457.3,104.2,477.6z"/>
<path fill="#FFFFFF" stroke="#000000" stroke-miterlimit="10" d="M75.8,432.8c-10.6,14.9-35.9,14.4-46.9,13.4v0
	c-1.3-3.8-2.2-7.8-2.6-11.9c32.2,8.6,43.2-0.2,46.6-4.6c0.2-0.2,0.3-0.4,0.4-0.6c0.1,0.2,0.1,0.4,0.2,0.6
	C74,430.9,74.8,432,75.8,432.8z"/>
<path fill="#FFFFFF" stroke="#000000" stroke-miterlimit="10" d="M884.5,528.5V313.6c2.7-0.5,5.4-1.2,8-2v205.9
	C892.5,517.5,894.5,520.5,884.5,528.5z"/>
<path fill="#FFFFFF" stroke="#000000" stroke-miterlimit="10" d="M777.5,778.5c-12.7,22.6-16,45-16,45c5.7,0.2,11,0,16-0.5v86.5
	c-3.2,4.3-6.5,5.9-9.6,6c0-0.2,0-0.5,0.1-0.7c0-0.4,0-0.9,0-1.3c0-3.2-0.6-6.2-1.8-9c-0.8-1.9-1.9-3.8-3.1-5.4
	c-2.7-3.5-6.4-6.2-10.6-7.7V737.6c4.2,0.6,8.6,0.9,13,0.9c4.1,0,8.1-0.3,12-0.8V778.5z"/>
<path fill="#FFFFFF" stroke="#000000" stroke-miterlimit="10" d="M849.5,732.5c0,0-4.2,12.7-16,29.7c-11.1,16-28.8,35.9-56,52.5
	c-5,3.1-10.3,6-16,8.8c0,0,3.3-22.4,16-45c9.2-16.3,23.2-32.6,44.5-40.8C830.1,734.7,839.2,732.8,849.5,732.5z"/>
<path fill="#FFFFFF" stroke="#000000" stroke-miterlimit="10" d="M840,782.3c-9.3,19.2-27.4,37.4-62.5,40.7c-5,0.5-10.3,0.6-16,0.5
	c5.7-2.8,11-5.7,16-8.8c27.2-16.6,45-36.5,56-52.5c11.7-17,16-29.7,16-29.7S851.7,758.2,840,782.3z"/>
<path fill="#FFFFFF" stroke="#000000" stroke-miterlimit="10" d="M752.5,792.7v10.6c-77.1,8.4-99-65.8-99-65.8
	c2.4-0.8,4.8-1.4,7.1-2C680.3,743.2,730.9,764.8,752.5,792.7z"/>
<path fill="#FFFFFF" stroke="#000000" stroke-miterlimit="10" d="M752.5,776.1v16.6c-21.6-27.9-72.2-49.5-91.9-57.2
	C717.4,721.2,743.4,758,752.5,776.1z"/>
<path fill="#FFFFFF" stroke="#000000" stroke-miterlimit="10" d="M822.9,652.1c0,1.8-0.1,3.6-0.3,5.4c-1.2,8.3-5.1,15.9-10.2,22.1
	c-5.2,6.3-11.6,11.3-18.6,15.1c-7,3.8-14.8,6.4-22.9,7.2c-4,0.4-8.2,0.4-12.2-0.3c-4.1-0.6-8.1-2-11.8-3.9c-3.7-2-7.1-4.6-9.8-7.7
	c-1.4-1.5-2.7-3.2-3.8-5c-0.6-0.9-1.1-1.8-1.6-2.6c-0.5-0.9-0.9-1.8-1.4-2.7c-3.5-7.1-5.9-15.1-5.8-23.4c0.1-4.1,0.8-8.3,2.3-12.2
	c1.4-3.8,3.6-7.2,6.2-10.2c0.1-0.1,0.2-0.3,0.3-0.4c5.6-6.2,13.1-10.2,21.1-11.9c4-0.8,8.2-1.1,12.3-0.6c2.1,0.3,4.1,0.7,6.1,1.4
	c2,0.7,4,1.6,5.7,2.6c7.1,4.1,12.7,10.7,15.8,18.2c0.2,0.5,0.4,1,0.6,1.5c1.2,3.3,2,6.8,2.2,10.3c0.2,4.1-0.2,8.3-1.8,12.2
	c-1.5,3.9-4.3,7.6-8.1,9.8c-3.7,2.1-7.7,3.2-11.8,3.4c-4.1,0.2-8.2-0.3-12-1.8c-3.8-1.4-7.4-3.7-10.1-6.9c-2.7-3.2-4.4-7.2-4.6-11.4
	c-0.1-2.1,0-4.1,0.5-6.1c0.4-2,1.2-4,2.3-5.8c2.2-3.6,6.1-6.1,10.1-6.8c4-0.8,8.2-0.1,11.9,1.6c3.6,1.7,6.7,4.7,8.2,8.6
	c0.8,2,0.7,4.4-0.3,6.2c-0.9,1.9-2.5,3.3-4.2,4.3c-1.7,1-3.6,1.7-5.5,2.1c-1.9,0.3-4,0.3-5.9-0.3c-1-0.3-1.9-0.8-2.6-1.5
	c-0.8-0.7-1.3-1.6-1.7-2.5c-1-3.8,1.5-7,2.4-7.3c0.9-0.3,1.9-0.5,2.8-0.3c0.9,0.2,1.8,0.7,2.4,1.4c0.6,0.7,1.1,1.5,1.4,2.4
	c-0.4-0.8-0.9-1.6-1.5-2.3c-0.6-0.7-1.5-1.1-2.4-1.3c-0.9-0.1-1.8,0-2.6,0.4c-0.8,0.3-2.5,5-1.8,6.6c0.7,1.7,2.2,2.9,3.9,3.4
	c1.7,0.5,3.6,0.4,5.3,0.1c1.8-0.4,3.5-1.1,5-2.1c1.5-1,2.8-2.3,3.5-3.8c0.7-1.5,0.7-3.3,0.1-4.8c-0.7-1.6-1.8-3.1-3-4.3
	c-1.3-1.2-2.8-2.2-4.4-2.9c-3.2-1.5-7-1.9-10.3-1.1c-3.4,0.7-6.4,2.8-8.1,5.8c-1.7,2.9-2.3,6.6-2,10c0.3,3.4,1.8,6.7,4.1,9.2
	c2.3,2.6,5.3,4.4,8.7,5.6c3.3,1.1,6.9,1.6,10.4,1.3c3.5-0.3,6.9-1.4,9.8-3.1c2.8-1.7,4.8-4.5,5.9-7.6c1.2-3.2,1.5-6.7,1.3-10.2
	c-0.3-3.5-1.2-6.9-2.6-10.2c-0.3-0.7-0.6-1.3-0.9-1.9c-2.9-5.6-7.4-10.4-12.9-13.4c-5.9-3.5-13.2-3.9-20-2.4
	c-5.5,1.2-10.7,3.8-14.9,7.4c-1,0.9-2,1.8-2.8,2.8c-2.3,2.6-4.1,5.5-5.3,8.7c-1.2,3.2-1.8,6.6-1.8,10c-0.1,6.9,2.1,13.9,5.3,20.3
	c0.4,0.8,0.8,1.6,1.3,2.4c0.4,0.8,0.9,1.5,1.3,2.2c0.9,1.5,2,2.8,3.1,4.1c2.3,2.5,5,4.6,8,6.2c6,3.2,13.2,4.1,20.2,3.4
	c7-0.7,14-3.1,20.3-6.5c6.3-3.4,12-8,16.5-13.4c4.5-5.4,7.8-11.9,8.8-18.6c0.2-1.7,0.3-3.4,0.3-5.1l-0.1-1.4l-0.1-1.4
	c0-0.9-0.2-1.8-0.2-2.7c-0.4-3.6-1.1-7.1-2.1-10.5c-2-6.8-5.6-13.1-10.4-18.3c-4.8-5.2-10.8-9.3-17.3-12.4
	c-3.3-1.6-6.7-2.8-10.2-3.9c-1.7-0.5-3.5-1-5.3-1.4c-0.9-0.2-1.8-0.4-2.7-0.6c-0.9-0.2-1.8-0.4-2.6-0.5c-3.4-0.5-7-0.4-10.5,0
	c-3.6,0.4-7.1,1.2-10.6,2.2c-6.9,2.1-13.6,5.3-19.4,9.6c-5.9,4.2-10.9,9.6-14.7,15.7c-1.1,1.8-2.1,3.6-2.9,5.5
	c-2.1,4.7-3.6,9.7-4.4,14.8c-1.1,7.2-1,14.7,0,22c0.5,3.7,1.2,7.3,2.2,10.9c1,3.5,2.2,7,3.8,10.3c3.1,6.6,7.5,12.7,12.9,17.8
	c5.3,5.1,11.6,9.3,18.2,12.7c6.7,3.4,13.8,6,21,8c7.3,2,14.7,3.4,22.2,4.3c4.2,0.5,8.4,0.9,12.7,1.1c-0.4,0.2-0.8,0.3-1.3,0.4
	c-11.4-0.1-22.9-1.4-34.1-4c-7.4-1.7-14.8-4.1-21.7-7.4c-7-3.3-13.6-7.4-19.4-12.6c-5.8-5.2-10.6-11.5-14.2-18.5
	c-1.8-3.5-3.2-7.2-4.3-10.9c-1.1-3.8-1.9-7.5-2.5-11.4c-1.2-7.7-1.6-15.6-0.5-23.4c0.7-4.9,1.9-9.8,3.8-14.4
	c1.1-2.7,2.4-5.4,3.9-7.9c4-6.9,9.5-12.9,15.9-17.6c6.3-4.8,13.5-8.3,21.1-10.7c3.8-1.2,7.7-2.1,11.6-2.6c4-0.5,8-0.6,12.2-0.1
	c1.1,0.2,2,0.3,3,0.5c1,0.2,1.9,0.4,2.9,0.6c1.9,0.4,3.8,0.9,5.7,1.5c3.8,1.1,7.5,2.5,11.1,4.1c7.2,3.3,14,7.8,19.5,13.8
	c5.5,5.9,9.7,13.2,12,20.9c1.2,3.9,2,7.8,2.4,11.8c0.1,1,0.2,2,0.3,3l0.2,3C822.9,651.5,822.9,651.8,822.9,652.1z"/>
<path fill="#FFFFFF" stroke="#000000" stroke-miterlimit="10" d="M855.5,648.5c0,4.7-0.4,9.3-1.1,13.8c-2,13-6.8,25.1-13.8,35.6
	c-7,10.7-16.3,19.8-27.2,26.7c-5.6,3.5-11.7,6.5-18,8.8c-4.2-0.2-8.5-0.6-12.7-1.1c-7.5-0.9-15-2.3-22.2-4.3c-7.3-2-14.4-4.6-21-8
	c-6.7-3.4-12.9-7.6-18.2-12.7c-5.4-5.1-9.8-11.1-12.9-17.8c-1.6-3.3-2.8-6.8-3.8-10.3c-1-3.5-1.6-7.2-2.2-10.9c-1-7.3-1.1-14.8,0-22
	c0.8-5.1,2.3-10.1,4.4-14.8c0.9-1.9,1.8-3.7,2.9-5.5c3.8-6.2,8.8-11.5,14.7-15.7c5.9-4.3,12.5-7.5,19.4-9.6c3.5-1,7-1.8,10.6-2.2
	c3.6-0.4,7.2-0.5,10.5,0c0.8,0.1,1.7,0.3,2.6,0.5c0.9,0.2,1.8,0.4,2.7,0.6c1.8,0.4,3.6,0.9,5.3,1.4c3.5,1,6.9,2.3,10.2,3.9
	c6.5,3.1,12.5,7.2,17.3,12.4c4.8,5.2,8.4,11.5,10.4,18.3c1,3.4,1.7,6.9,2.1,10.5c0.1,0.9,0.2,1.8,0.2,2.7l0.1,1.4l0.1,1.4
	c0,1.7-0.1,3.4-0.3,5.1c-1,6.8-4.2,13.2-8.8,18.6c-4.5,5.4-10.2,10-16.5,13.4c-6.3,3.4-13.2,5.8-20.3,6.5c-7,0.7-14.1-0.2-20.2-3.4
	c-3-1.6-5.7-3.7-8-6.2c-1.2-1.3-2.2-2.6-3.1-4.1c-0.5-0.7-0.9-1.5-1.3-2.2c-0.4-0.8-0.8-1.6-1.3-2.4c-3.2-6.4-5.4-13.4-5.3-20.3
	c0-3.5,0.6-6.9,1.8-10c1.2-3.2,3-6.1,5.3-8.7c0.9-1,1.8-1.9,2.8-2.8c4.2-3.7,9.5-6.2,14.9-7.4c6.8-1.5,14.1-1,20,2.4
	c5.5,3,10,7.8,12.9,13.4c0.3,0.6,0.6,1.3,0.9,1.9c1.4,3.2,2.3,6.7,2.6,10.2c0.3,3.5-0.1,7-1.3,10.2c-1.1,3.2-3.2,5.9-5.9,7.6
	c-2.9,1.7-6.3,2.8-9.8,3.1c-3.5,0.3-7-0.1-10.4-1.3c-3.3-1.1-6.4-3-8.7-5.6c-2.3-2.5-3.8-5.8-4.1-9.2c-0.3-3.4,0.3-7.1,2-10
	c1.7-2.9,4.7-5,8.1-5.8c3.4-0.8,7.1-0.3,10.3,1.1c1.6,0.7,3.1,1.7,4.4,2.9c1.3,1.2,2.4,2.7,3,4.3c0.7,1.5,0.6,3.3-0.1,4.8
	c-0.7,1.5-2,2.8-3.5,3.8c-1.5,1-3.2,1.7-5,2.1c-1.8,0.4-3.6,0.4-5.3-0.1c-1.7-0.5-3.2-1.7-3.9-3.4c-0.7-1.6,0.9-6.3,1.8-6.6
	c0.8-0.3,1.8-0.5,2.6-0.4c0.9,0.1,1.7,0.6,2.4,1.3c0.7,0.7,1.1,1.5,1.5,2.3c-0.3-0.9-0.8-1.7-1.4-2.4c-0.6-0.7-1.5-1.2-2.4-1.4
	c-0.9-0.2-1.9,0-2.8,0.3c-0.9,0.3-3.3,3.5-2.4,7.3c0.4,0.9,0.9,1.8,1.7,2.5c0.8,0.7,1.7,1.2,2.6,1.5c1.9,0.7,4,0.7,5.9,0.3
	c2-0.3,3.8-1,5.5-2.1c1.7-1,3.3-2.5,4.2-4.3c1-1.9,1.1-4.3,0.3-6.2c-1.5-3.8-4.6-6.8-8.2-8.6c-3.6-1.8-7.8-2.4-11.9-1.6
	c-4,0.7-7.9,3.2-10.1,6.8c-1.1,1.8-1.9,3.8-2.3,5.8c-0.4,2-0.6,4.1-0.5,6.1c0.2,4.1,1.9,8.2,4.6,11.4c2.7,3.2,6.3,5.5,10.1,6.9
	c3.8,1.4,7.9,2,12,1.8c4.1-0.2,8.1-1.3,11.8-3.4c3.8-2.2,6.6-5.8,8.1-9.8c1.5-3.9,2-8.1,1.8-12.2c-0.2-3.5-0.9-7-2.2-10.3
	c-0.2-0.5-0.4-1-0.6-1.5c-3.1-7.5-8.7-14.1-15.8-18.2c-1.7-1-3.7-2-5.7-2.6c-2-0.7-4-1.1-6.1-1.4c-4.1-0.5-8.3-0.3-12.3,0.6
	c-8,1.7-15.5,5.8-21.1,11.9c-0.1,0.1-0.2,0.3-0.3,0.4c-2.6,3-4.8,6.5-6.2,10.2c-1.5,3.9-2.3,8.1-2.3,12.2
	c-0.2,8.3,2.3,16.3,5.8,23.4c0.4,0.9,0.9,1.8,1.4,2.7c0.5,0.9,1,1.8,1.6,2.6c1.1,1.7,2.4,3.4,3.8,5c2.8,3.1,6.1,5.7,9.8,7.7
	c3.7,2,7.7,3.3,11.8,3.9c4.1,0.7,8.2,0.7,12.2,0.3c8.1-0.8,15.8-3.4,22.9-7.2c7-3.8,13.5-8.8,18.6-15.1c5.1-6.2,9-13.8,10.2-22.1
	c0.2-1.8,0.4-3.6,0.3-5.4c0-0.3,0-0.5,0-0.8l-0.2-3c-0.1-1-0.2-2-0.3-3c-0.4-4-1.2-7.9-2.4-11.8c-2.3-7.7-6.5-15-12-20.9
	c-5.5-6-12.3-10.5-19.5-13.8c-3.6-1.7-7.3-3-11.1-4.1c-1.9-0.6-3.8-1-5.7-1.5c-1-0.2-1.9-0.4-2.9-0.6c-1-0.2-1.9-0.4-3-0.5
	c-4.2-0.5-8.2-0.4-12.2,0.1c-4,0.5-7.8,1.4-11.6,2.6c-7.5,2.4-14.7,5.9-21.1,10.7c-6.3,4.8-11.8,10.8-15.9,17.6
	c-1.5,2.5-2.8,5.2-3.9,7.9c-1.8,4.6-3.1,9.5-3.8,14.4c-1.1,7.8-0.8,15.7,0.5,23.4c0.6,3.8,1.4,7.6,2.5,11.4
	c1.1,3.8,2.6,7.4,4.3,10.9c3.5,7,8.4,13.3,14.2,18.5c5.8,5.2,12.4,9.4,19.4,12.6c7,3.3,14.3,5.7,21.7,7.4c11.2,2.6,22.7,3.9,34.1,4
	c-5.4,1.8-11,3.1-16.8,3.9c-3.9,0.5-7.9,0.8-12,0.8c-4.4,0-8.8-0.3-13-0.9c-43.5-6.3-77-43.8-77-89.1c0-6.2,0.6-12.3,1.8-18.1
	c8.4-41,44.7-71.9,88.2-71.9C815.2,558.5,855.5,598.8,855.5,648.5z"/>
<path fill="#FFFFFF" stroke="#000000" stroke-miterlimit="10" d="M584,606.4c-1.9,1.4-4.2,3-6.8,4.9c-1.7,1.2-3.5,2.4-5.5,3.8
	c-0.7,0.5-1.4,0.9-2.1,1.4c-2.3,1.6-4.6,2.5-6.7,3c3.1-4.8,6.7-10.1,10.9-15.9c1.5-2,3-4.1,4.6-6.3
	C579.8,600.6,581.8,603.6,584,606.4z"/>
<path fill="#FFFFFF" stroke="#000000" stroke-miterlimit="10" d="M999.5,409.5v333c0,0-52.7-47-145.1-80.2c0.7-4.5,1.1-9.1,1.1-13.8
	c0-49.7-40.3-90-90-90c-43.5,0-79.8,30.8-88.2,71.9c-34.1-0.4-70.4,2.3-108.7,9.2c5.8-9.8,12.2-17.5,17.1-22.7
	c1.6-1.7,3-3.1,4.2-4.2c8.4,7.4,19.5,11.8,31.5,11.8c26.5,0,48-21.5,48-48c0-20.7-13.1-38.4-31.5-45.1c4.4-4,8.9-8,13.6-12.1
	c4.3-3.7,8.8-7.3,13.4-11c4.6-3.6,9.3-7.2,14.1-10.8c5.5-4,11.2-8,17.1-12c4.8-3.2,9.8-6.4,14.9-9.5c4.6-2.8,9.4-5.6,14.2-8.3
	c5.5-3.1,11.2-6.1,17-9.1c18.8-9.5,39-18.2,60.8-25.5c6.8-2.3,13.8-4.5,21-6.5c4.9-1.4,9.9-2.8,15-4c2.1-0.5,4.3-1.1,6.4-1.6v106.4
	c7.7,12.4,24.9,14.5,35.4,4.4l3.6-3.4c10-8,8-11,8-11v-105c2-0.3,4-0.5,5.9-0.7c4.8-0.6,9.7-1.1,14.7-1.5c7.1-0.6,14.3-1.1,21.6-1.5
	C955.4,407.8,977,408,999.5,409.5z"/>
<path fill="#FFFFFF" stroke="#000000" stroke-miterlimit="10" d="M321.2,332.1c-1.8,4.3-5.3,8.4-10.7,11.4
	c-11.2,6.3-24.4,0.3-28.9-10.4c-1.9-4.5-2.2-10-0.1-15.6c3.9-10.7,10.7-12.5,15.9-12.1c3.2,0.3,6.1,1.8,8.5,4
	c0.1,0.1,0.3,0.3,0.4,0.4c1,0.8,2.6,1.7,4.9,2.5c1.2,0.4,2.6,0.8,4.3,1.1C322.2,314.8,324.8,323.7,321.2,332.1z"/>
<path fill="#FFFFFF" stroke="#000000" stroke-miterlimit="10" d="M358.5,263.5v5c0,0-12-1-24,11c-9.3,9.3-19.3,26-23.3,32.9
	c-2.3-0.8-3.9-1.7-4.9-2.5C310.8,301.3,332.7,262.6,358.5,263.5z"/>
<path fill="#FFFFFF" stroke="#000000" stroke-miterlimit="10" d="M375.5,427.4c-10.3,15.9-27.5,23.1-28,23.1c-1,0-88,33-115-9
	c0,0-1.5-3.9-3-10.2c-5.6-23.5-12-80.7,52.1-98.1c4.5,10.7,17.6,16.7,28.9,10.4c5.4-3,8.8-7.2,10.7-11.4c18.5,3.6,40.7,14,54.3,41.4
	C387.4,397.2,383.6,415,375.5,427.4z"/>
<path fill="#FFFFFF" stroke="#000000" stroke-miterlimit="10" d="M388.5,453.5c0,0.1-0.1,0.1-0.1,0.2
	c-31.2,66.7-161.9,20.8-166.9-0.2c-0.4-1.9-0.7-3.6-0.8-5.2c-0.7-10,4.6-14.8,8.9-17c1.5,6.3,3,10.2,3,10.2c27,42,114,9,115,9
	c0.6,0,17.8-7.2,28-23.1C392.5,434.4,388.5,453.5,388.5,453.5z"/>
<path fill="#FFFFFF" stroke="#000000" stroke-miterlimit="10" d="M409.6,484.1c-0.1,0.3-0.1,0.4-0.1,0.4c-6-4-11-2-11-2
	c-13,6,1,10-21,10s-3,24-16,30s-11-19-17-23s-9,8-17,13s-9-14-16-16s-5,9-10,12s-5-8-12-10s-14,18-18,9s-7-10-7-10
	c-15-4-15,24-25,24s-3-42-11-32s-19,11-18,4s-1-14-1-14c-3.6-5.4-7.6-0.3-11.3,2.6c-2.4,1.9-4.7,2.9-6.7-0.6
	c-4-7.2,19.7-26,29.2-33.2c0.1,1.6,0.4,3.3,0.8,5.2c5,21,135.7,66.9,166.9,0.2C414.1,460.4,410.4,480.8,409.6,484.1z"/>
<path fill="#FFFFFF" stroke="#000000" stroke-miterlimit="10" d="M414,532.8c0,0,0,0.1-0.1,0.1c-0.1,0.3-0.3,0.5-0.4,0.7
	c-15.4,27.2-53.8,38.3-93.5,39.6c-3.2,0.1-6.4,0.1-9.6,0.1c-42.9-0.2-85.3-11.2-99.9-24.8c-4.2-3.9-7.4-8.2-9.9-12.6
	c-0.1-0.2-0.3-0.5-0.4-0.7c-0.1-0.2-0.3-0.5-0.4-0.7c-0.1-0.2-0.2-0.3-0.2-0.5c-0.2-0.3-0.4-0.7-0.5-1.1c0-0.1-0.1-0.2-0.2-0.3
	c-0.2-0.5-0.4-1-0.7-1.5c0,0,0,0,0,0c-0.2-0.5-0.4-1-0.6-1.6c-0.2-0.5-0.4-1.1-0.6-1.6c-0.2-0.4-0.3-0.8-0.4-1.2
	c-0.2-0.5-0.3-1.1-0.5-1.7c-0.1-0.3-0.2-0.6-0.2-0.9v0c-0.1-0.3-0.1-0.5-0.2-0.8c0-0.1-0.1-0.2-0.1-0.3c0-0.2-0.1-0.4-0.1-0.6
	c-0.2-0.7-0.3-1.3-0.4-2c-0.1-0.3-0.1-0.5-0.2-0.8c-0.1-0.5-0.2-1-0.3-1.5c0-0.3-0.1-0.5-0.1-0.8c0-0.3-0.1-0.5-0.1-0.8
	c-1.7-13.5,1.2-26.3,3.8-34.4c3.7-3,7.7-8.1,11.3-2.6c0,0,2,7,1,14s10,6,18-4c0.8-1.1,1.5-1.5,2.1-1.5c0,0,0.1,0,0.1,0c0,0,0,0,0,0
	c0,0,0.1,0,0.1,0c0.1,0,0.1,0,0.2,0.1c0,0,0.1,0,0.1,0.1c0,0,0.1,0.1,0.1,0.1c0,0,0.1,0.1,0.1,0.1c0.1,0.1,0.1,0.1,0.2,0.2
	c0.1,0.1,0.1,0.2,0.2,0.3c0,0.1,0.1,0.2,0.1,0.3c0.1,0.1,0.1,0.2,0.1,0.3c0,0.1,0.1,0.3,0.1,0.4c0.1,0.2,0.1,0.5,0.2,0.7
	c0,0.1,0,0.2,0,0.2c0.1,0.3,0.1,0.5,0.2,0.8c0,0.3,0.1,0.7,0.2,1c0.1,0.6,0.1,1.2,0.2,1.9c0,0.4,0.1,0.9,0.1,1.3
	c0,0.5,0.1,0.9,0.1,1.4c0,0.5,0.1,1,0.1,1.5c0,1,0.1,2,0.2,3c0,0.5,0.1,1,0.1,1.5v0c0,0.5,0.1,1,0.1,1.6c0,0.5,0.1,1,0.1,1.6
	c0,0.5,0.1,1,0.1,1.6c0,0.5,0.1,0.9,0.1,1.3c0,0.3,0.1,0.6,0.1,0.9c0,0.3,0.1,0.5,0.1,0.8c0,0.2,0,0.3,0.1,0.5
	c0,0.3,0.1,0.6,0.1,0.9c0,0.2,0.1,0.5,0.1,0.7c0.1,0.5,0.2,0.9,0.3,1.4c0.1,0.3,0.1,0.6,0.2,0.9s0.2,0.6,0.2,0.9
	c0.1,0.3,0.2,0.6,0.3,0.8c0.1,0.3,0.2,0.5,0.3,0.8c0.3,0.8,0.6,1.4,1,2c0.2,0.2,0.3,0.4,0.5,0.6c0.1,0.1,0.2,0.2,0.3,0.3
	c0.2,0.2,0.4,0.4,0.7,0.5c0.1,0.1,0.2,0.1,0.3,0.1c0,0,0.1,0,0.1,0c0.1,0,0.2,0.1,0.3,0.1c0.1,0,0.2,0.1,0.3,0.1c0.1,0,0.1,0,0.2,0
	c0,0,0,0,0,0c0.1,0,0.2,0,0.3,0c0.1,0,0.3,0,0.4,0c0.1,0,0.2,0,0.3,0c0.1,0,0.2,0,0.2,0c0,0,0,0,0,0c0.1,0,0.3-0.1,0.4-0.1
	c0.1,0,0.2-0.1,0.3-0.1c0.2-0.1,0.4-0.2,0.6-0.3c0.1,0,0.2-0.1,0.3-0.2c0.1-0.1,0.2-0.1,0.3-0.2c0.1-0.1,0.2-0.2,0.3-0.3
	c0.1-0.1,0.2-0.2,0.3-0.2c0.2-0.1,0.4-0.3,0.5-0.5c0.2-0.2,0.4-0.4,0.6-0.7c0.1-0.2,0.3-0.4,0.4-0.6c0.1-0.2,0.3-0.4,0.4-0.6
	c0,0,0,0,0.1-0.1c0.1-0.1,0.2-0.3,0.3-0.4c0.2-0.3,0.3-0.5,0.5-0.8c0.2-0.4,0.4-0.7,0.6-1.1c0.1-0.2,0.2-0.3,0.3-0.5
	c0.2-0.3,0.4-0.7,0.5-1.1c0.1-0.2,0.2-0.4,0.3-0.5c0.1-0.2,0.2-0.5,0.3-0.7c0.2-0.3,0.3-0.7,0.5-1c0.2-0.4,0.3-0.8,0.5-1.1
	c0.3-0.6,0.6-1.2,0.9-1.8c0.3-0.6,0.6-1.2,0.9-1.8c0.1-0.2,0.2-0.4,0.3-0.6c0-0.1,0.1-0.2,0.2-0.3c0.1-0.2,0.2-0.4,0.3-0.5
	c0.1-0.2,0.2-0.4,0.4-0.7c0.1-0.1,0.2-0.3,0.2-0.4c0.2-0.3,0.3-0.5,0.5-0.8c0.1-0.3,0.3-0.5,0.5-0.8l0,0c0.2-0.2,0.3-0.5,0.5-0.7
	c0.5-0.7,1.1-1.4,1.7-2c0.2-0.2,0.3-0.3,0.5-0.5c0.2-0.2,0.4-0.4,0.7-0.5c0.1-0.1,0.2-0.2,0.3-0.3c0.1-0.1,0.2-0.1,0.3-0.2
	c0.1-0.1,0.2-0.2,0.4-0.2c0.1-0.1,0.2-0.1,0.3-0.2c0.1-0.1,0.3-0.1,0.4-0.2c0.1-0.1,0.2-0.1,0.4-0.2c0.2-0.1,0.3-0.1,0.5-0.2
	c0.1,0,0.2-0.1,0.3-0.1c0.1,0,0.2-0.1,0.3-0.1c0.1,0,0.2,0,0.3-0.1c0.1,0,0.2,0,0.3-0.1c0.2,0,0.3-0.1,0.5-0.1c0.1,0,0.2,0,0.3,0
	c0.1,0,0.2,0,0.3,0c0.2,0,0.3,0,0.5,0c0.2,0,0.5,0,0.7,0c0.5,0,0.9,0.1,1.4,0.2c0.2,0.1,0.5,0.1,0.7,0.2c0,0,3,1,7,10s11-11,18-9
	s7,13,12,10s3-14,10-12s8,21,16,16s11-17,17-13c0.1,0.1,0.2,0.2,0.3,0.3c0.1,0.1,0.1,0.1,0.2,0.2c0.1,0,0.1,0.1,0.2,0.2
	c0.1,0.1,0.1,0.2,0.2,0.3c0.2,0.2,0.4,0.5,0.5,0.8c0,0.1,0.1,0.1,0.1,0.2c0,0.1,0.1,0.1,0.1,0.2c0.1,0.1,0.2,0.3,0.3,0.5
	c0.1,0.2,0.2,0.3,0.2,0.5c0.2,0.3,0.3,0.7,0.4,1.1c0.2,0.4,0.3,0.8,0.4,1.2c0.1,0.2,0.1,0.4,0.2,0.6c0,0.1,0.1,0.3,0.1,0.4
	c0,0.1,0.1,0.3,0.1,0.4c0.2,0.6,0.3,1.2,0.5,1.8c0.1,0.2,0.1,0.4,0.2,0.7c0.1,0.3,0.2,0.7,0.3,1c0.1,0.2,0.1,0.3,0.1,0.5
	c0,0.1,0,0.1,0,0.2c0.1,0.3,0.2,0.6,0.2,0.8c0.3,1.1,0.6,2.1,0.9,3.1c0.1,0.3,0.2,0.6,0.3,1c0.1,0.2,0.1,0.3,0.2,0.5
	c0.1,0.2,0.1,0.3,0.2,0.5c0,0,0,0.1,0,0.1c0.1,0.3,0.3,0.7,0.4,1c0.1,0.2,0.2,0.4,0.3,0.6c0.2,0.5,0.5,1,0.7,1.5
	c0.1,0.1,0.1,0.2,0.2,0.3c0.1,0.1,0.2,0.3,0.3,0.5c0.1,0.1,0.1,0.2,0.2,0.3c0.1,0.1,0.2,0.2,0.3,0.3c0.1,0.1,0.2,0.2,0.3,0.3
	c0.2,0.3,0.5,0.5,0.8,0.8c0.1,0.1,0.2,0.2,0.3,0.2c0.1,0.1,0.2,0.1,0.2,0.2c0,0,0,0,0.1,0c0.1,0.1,0.3,0.2,0.4,0.3
	c0.1,0.1,0.2,0.1,0.3,0.2c0.1,0,0.2,0.1,0.3,0.1c0,0,0,0,0,0c0.1,0,0.3,0.1,0.4,0.2c0.1,0,0.3,0.1,0.4,0.1c0.1,0,0.1,0,0.2,0
	c0.1,0,0.3,0,0.4,0.1c0.2,0,0.4,0,0.6,0c1.1,0,2.3-0.3,3.7-0.9c0.2-0.1,0.4-0.2,0.6-0.3c0,0,0,0,0,0c0.1,0,0.2-0.1,0.3-0.1
	c0.2-0.1,0.3-0.2,0.5-0.3c0.2-0.1,0.3-0.3,0.5-0.4c0.1-0.1,0.2-0.1,0.3-0.2c0,0,0,0,0,0c0.1-0.1,0.2-0.2,0.3-0.3
	c0.1-0.1,0.2-0.2,0.3-0.3c0.2-0.3,0.4-0.5,0.6-0.8c0,0,0,0,0,0c0.1-0.1,0.2-0.3,0.3-0.4c0.3-0.4,0.5-0.9,0.7-1.4
	c0-0.1,0.1-0.3,0.1-0.4c0.1-0.4,0.2-0.7,0.3-1.1c0-0.2,0.1-0.4,0.1-0.5c0-0.2,0.1-0.3,0.1-0.5c0-0.2,0-0.4,0.1-0.6
	c0-0.2,0-0.4,0-0.7c0-0.2,0-0.4,0-0.6c0-0.3,0-0.6,0-0.9c0-9-4-20.1,11-20.1c22,0,8-4,21-10c0,0,5-2,11,2c0,0,0-0.2,0.1-0.4
	c5.2,9,7.4,20.3,8.3,28.1C418.7,519.3,417.4,526.5,414,532.8z"/>
<path fill="#FFFFFF" stroke="#000000" stroke-miterlimit="10" d="M310.4,573.3c-0.6,1.2-1.2,2.6-1.9,4.2c-6,13-7,2-18,0s-7,10-19,8
	s-19-10-27,6s-18,12-19,4s1-25-9-19s-20-2-20-11s-8-12-12-5c-1.7,3-3.6,4.2-5.2,4.5c-2.2,0.5-3.8-0.5-3.8-0.5
	c-2.3-9.4,16.7-23.1,25.1-28.6c2.4,4.4,5.7,8.6,9.9,12.6C225.1,562.1,267.5,573.1,310.4,573.3z"/>
<path fill="#FFFFFF" stroke="#000000" stroke-miterlimit="10" d="M430,557.7c-0.1,0.3-0.3,0.6-0.5,0.8c-3,3-10-13-16-1s-16,11-26,11
	s-4,18-12,27s-10-4-20-16s-8,0-21,8c-9.9,6.1-13.4-7.4-14.5-14.3c39.7-1.3,78.1-12.3,93.5-39.6c0.2-0.2,0.3-0.5,0.4-0.7
	c2.8,0.6,5.2,1.7,7.3,3.2C429.4,542.2,431.4,554.1,430,557.7z"/>
<path fill="#FFFFFF" stroke="#000000" stroke-miterlimit="10" d="M431.5,574.5c-32,64-186,43-227,26c-28-11.6-28-26.9-25.2-35.5
	c1.6-0.4,3.5-1.5,5.2-4.5c4-7,12-4,12,5s10,17,20,11s8,11,9,19s11,12,19-4s15-8,27-6s8-10,19-8s12,13,18,0c0.7-1.6,1.4-3,1.9-4.2
	c3.2,0,6.4,0,9.6-0.1c1.1,6.9,4.7,20.4,14.5,14.3c13-8,11-20,21-8s12,25,20,16s2-27,12-27s20,1,26-11s13,4,16,1
	c0.2-0.2,0.3-0.4,0.5-0.8C435.2,565.8,431.5,574.5,431.5,574.5z"/>
<path fill="#FFFFFF" stroke="#000000" stroke-miterlimit="10" d="M669.5,576.5c0,26.5-21.5,48-48,48c-12.1,0-23.1-4.5-31.5-11.8
	c-2.2-1.9-4.2-4-6-6.3c-2.2-2.8-4.1-5.8-5.7-9c-3.1-6.3-4.8-13.4-4.8-20.9c0-26.5,21.5-48,48-48c2.8,0,5.4,0.2,8,0.7
	c2.9,0.5,5.7,1.2,8.4,2.2C656.4,538.1,669.5,555.8,669.5,576.5z"/>
<path fill="#FFFFFF" stroke="#000000" stroke-miterlimit="10" d="M550.5,523.5c0,18.8-9.8,35.4-24.7,44.8c-4.2,2.7-8.8,4.7-13.6,6.1
	c-1,0.3-1.9,0.5-2.9,0.8c-3.8,0.9-7.7,1.3-11.8,1.3c-21.1,0-39.3-12.3-47.8-30.2c-3.3-6.9-5.2-14.7-5.2-22.8c0-29.3,23.7-53,53-53
	S550.5,494.2,550.5,523.5z"/>
<path fill="#FFFFFF" stroke="#000000" stroke-miterlimit="10" d="M490.5,630.5c0,2-0.1,4-0.4,6c-0.6,4.6-1.9,9-3.7,13
	c-3.6,8-9.4,14.7-16.7,19.5c0,0,0,0,0,0c-5.7,3.8-12.3,6.3-19.5,7.2c-1.9,0.2-3.8,0.4-5.7,0.4c-22.4,0-41.1-16-45.2-37.2
	c-0.3-1.7-0.6-3.5-0.7-5.3c-0.1-1.2-0.1-2.3-0.1-3.5c0-25.4,20.6-46,46-46S490.5,605.1,490.5,630.5z"/>
<path fill="#FFFFFF" stroke="#000000" stroke-miterlimit="10" d="M590,612.7c-1.2,1.1-2.6,2.5-4.2,4.2c-4.9,5.1-11.3,12.8-17.1,22.7
	c-10.4,17.7-18.7,42.3-11.6,71.3c-14.9,6.5-29.5-1.3-36.4-6.1c1.3-20-10.3-35.4-21.5-45.5c-4.6-4.2-9.2-7.4-12.8-9.7
	c1.8-4.1,3.1-8.5,3.7-13c9.1,4.7,33,15.5,43.4,5c10.5-10.5-14.4-51.2-24.2-66.3c1-0.2,2-0.5,2.9-0.8c4.9-1.4,9.4-3.5,13.6-6.1
	c0.8,3,1.8,7,3.2,11.4c0.4,1.4,0.9,2.9,1.4,4.4c6.1,17.6,16.9,39,32.2,35.5c2.2-0.5,4.4-1.5,6.7-3c0.7-0.5,1.4-0.9,2.1-1.4
	c2-1.4,3.9-2.6,5.5-3.8c2.7-1.9,4.9-3.5,6.8-4.9C585.8,608.7,587.8,610.8,590,612.7z"/>
<circle fill="#FFFFFF" stroke="#000000" stroke-miterlimit="10" cx="494.5" cy="508.5" r="7"/>
<circle fill="#FFFFFF" stroke="#000000" stroke-miterlimit="10" cx="518.5" cy="521.5" r="7"/>
<circle fill="#FFFFFF" stroke="#000000" stroke-miterlimit="10" cx="490.5" cy="539.5" r="7"/>
<circle fill="#FFFFFF" stroke="#000000" stroke-miterlimit="10" cx="483.5" cy="487.5" r="7"/>
<circle fill="#FFFFFF" stroke="#000000" stroke-miterlimit="10" cx="463.5" cy="508.5" r="7"/>
<circle fill="#FFFFFF" stroke="#000000" stroke-miterlimit="10" cx="465.5" cy="536.5" r="7"/>
<circle fill="#FFFFFF" stroke="#000000" stroke-miterlimit="10" cx="510.5" cy="484.5" r="7"/>
<circle fill="#FFFFFF" stroke="#000000" stroke-miterlimit="10" cx="532.5" cy="501.5" r="7"/>
<circle fill="#FFFFFF" stroke="#000000" stroke-miterlimit="10" cx="541.5" cy="525.5" r="7"/>
<circle fill="#FFFFFF" stroke="#000000" stroke-miterlimit="10" cx="522.5" cy="549.5" r="7"/>
<circle fill="#FFFFFF" stroke="#000000" stroke-miterlimit="10" cx="506.5" cy="564.5" r="7"/>
<circle fill="#FFFFFF" stroke="#000000" stroke-miterlimit="10" cx="480.5" cy="564.5" r="7"/>
<circle fill="#FFFFFF" stroke="#000000" stroke-miterlimit="10" cx="619.5" cy="558.5" r="8"/>
<circle fill="#FFFFFF" stroke="#000000" stroke-miterlimit="10" cx="611.5" cy="587.5" r="8"/>
<circle fill="#FFFFFF" stroke="#000000" stroke-miterlimit="10" cx="589.5" cy="579.5" r="8"/>
<circle fill="#FFFFFF" stroke="#000000" stroke-miterlimit="10" cx="641.5" cy="576.5" r="8"/>
<circle fill="#FFFFFF" stroke="#000000" stroke-miterlimit="10" cx="638.5" cy="605.5" r="8"/>
<circle fill="#FFFFFF" stroke="#000000" stroke-miterlimit="10" cx="595.5" cy="552.5" r="8"/>
<circle fill="#FFFFFF" stroke="#000000" stroke-miterlimit="10" cx="638.5" cy="542.5" r="8"/>
<circle fill="#FFFFFF" stroke="#000000" stroke-miterlimit="10" cx="655.5" cy="558.5" r="8"/>
<circle fill="#FFFFFF" stroke="#000000" stroke-miterlimit="10" cx="656.5" cy="591.5" r="8"/>
<circle fill="#FFFFFF" stroke="#000000" stroke-miterlimit="10" cx="600.5" cy="608.5" r="8"/>
<circle fill="#FFFFFF" stroke="#000000" stroke-miterlimit="10" cx="617.5" cy="537.5" r="8"/>
<circle fill="#FFFFFF" stroke="#000000" stroke-miterlimit="10" cx="620.5" cy="613.5" r="8"/>
<circle fill="#FFFFFF" stroke="#000000" stroke-miterlimit="10" cx="455.5" cy="613.5" r="9"/>
<circle fill="#FFFFFF" stroke="#000000" stroke-miterlimit="10" cx="444.5" cy="645.5" r="9"/>
<circle fill="#FFFFFF" stroke="#000000" stroke-miterlimit="10" cx="427.5" cy="617.5" r="9"/>
<circle fill="#FFFFFF" stroke="#000000" stroke-miterlimit="10" cx="421.5" cy="654.5" r="9"/>
<circle fill="#FFFFFF" stroke="#000000" stroke-miterlimit="10" cx="473.5" cy="633.5" r="9"/>
<path fill="#FFFFFF" stroke="#000000" stroke-miterlimit="10" d="M416.5,635.5c0,5-4,9-9,9c-3.6,0-6.7-2.1-8.2-5.2
	c-0.5-1.1-0.8-2.4-0.8-3.8c0-0.5,0-1,0.1-1.5c0.7-4.3,4.4-7.5,8.9-7.5C412.5,626.5,416.5,630.5,416.5,635.5z"/>
<circle fill="#FFFFFF" stroke="#000000" stroke-miterlimit="10" cx="436.5" cy="597.5" r="9"/>
<circle fill="#FFFFFF" stroke="#000000" stroke-miterlimit="10" cx="465.5" cy="654.5" r="9"/>
<circle fill="#FFFFFF" stroke="#000000" stroke-miterlimit="10" cx="443.5" cy="665.5" r="9"/>
<path fill="#FFFFFF" stroke="#000000" stroke-miterlimit="10" d="M845.5,325.3v19.3c-28.8-14.8-66-20.7-112-3
	c-111.6,42.7-89.4,150.8-81.9,177.8c-4.7,4-9.3,8.1-13.6,12.1c-2.7-1-5.5-1.7-8.4-2.2c-5.6-20.8-30.8-133.8,67-192.7
	C747.1,306,801.4,308.3,845.5,325.3z"/>
<path fill="#FFFFFF" stroke="#000000" stroke-miterlimit="10" d="M934.8,408.8c-7.3,0.3-14.5,0.8-21.6,1.5
	c-4.8-7.8-11.7-17.8-20.6-28.1v-30.7C915.3,369,930.9,390,934.8,408.8z"/>
<path fill="#FFFFFF" stroke="#000000" stroke-miterlimit="10" d="M845.5,344.5v21.1c-30.1-16.6-69.8-24.8-116-4.1
	c-82.4,36.9-69.8,123.1-64.5,146.9c-4.6,3.6-9.1,7.3-13.4,11c-7.5-27-29.7-135.1,81.9-177.8C779.5,323.9,816.7,329.8,845.5,344.5z"
	/>
<path fill="#FFFFFF" stroke="#000000" stroke-miterlimit="10" d="M845.5,365.6v16.8c-27.5-17.5-63.8-28.1-104-7.9
	c-69.3,34.6-66.7,97.8-62.4,123.1c-4.9,3.5-9.6,7.1-14.1,10.8c-5.2-23.7-17.8-110,64.5-146.9C775.7,340.8,815.4,349.1,845.5,365.6z"
	/>
<path fill="#FFFFFF" stroke="#000000" stroke-miterlimit="10" d="M913.1,410.3c-5,0.4-9.9,0.9-14.7,1.5c-1.7-2.3-3.7-4.8-5.9-7.4
	v-22.2C901.5,392.5,908.4,402.5,913.1,410.3z"/>
<path fill="#FFFFFF" stroke="#000000" stroke-miterlimit="10" d="M845.5,382.4v24.4c-22.2-19-58.7-38.7-101-16.3
	c-54.4,28.8-52,75.7-48.3,95.1c-5.9,3.9-11.6,7.9-17.1,12c-4.3-25.3-6.9-88.5,62.4-123.1C781.7,354.4,818,365,845.5,382.4z"/>
<path fill="#FFFFFF" stroke="#000000" stroke-miterlimit="10" d="M845.5,406.8v14.3c-2.2,0.5-4.3,1-6.4,1.6
	c-15.4-11.6-46.3-29.3-80.6-18.1c-36.9,12-45.4,52.4-47.4,71.6c-5.1,3.1-10,6.3-14.9,9.5c-3.8-19.4-6.2-66.4,48.3-95.1
	C786.8,368.1,823.3,387.8,845.5,406.8z"/>
<path fill="#FFFFFF" stroke="#000000" stroke-miterlimit="10" d="M839.1,422.6c-5.1,1.3-10.1,2.6-15,4c-9.5-9-27.3-17.9-57.6-9.1
	c-34.3,9.9-40.8,34.6-41.2,50.3c-4.9,2.7-9.6,5.5-14.2,8.3c2-19.2,10.5-59.6,47.4-71.6C792.8,393.3,823.7,411,839.1,422.6z"/>
<path fill="#FFFFFF" stroke="#000000" stroke-miterlimit="10" d="M824.1,426.6c-7.2,2-14.2,4.2-21,6.5c-5.8-3.2-15.9-6-32.6-2.7
	c-18.3,3.7-25.5,17.8-28.2,28.2c-5.8,3-11.4,6-17,9.1c0.4-15.7,6.8-40.4,41.2-50.3C796.8,408.8,814.5,417.7,824.1,426.6z"/>
<path fill="#FFFFFF" stroke="#000000" stroke-miterlimit="10" d="M803.1,433.2c-21.8,7.3-42,16-60.8,25.5
	c2.8-10.4,9.9-24.5,28.2-28.2C787.1,427.2,797.3,430,803.1,433.2z"/>
<path fill="#FFFFFF" stroke="#000000" stroke-miterlimit="10" d="M286,733.1c-4-11.5-10.7-24.8-21.5-32.6c-0.9-0.4-1.7-0.8-2.6-1.2
	s-1.7-0.8-2.6-1.1c-0.6-0.3-1.1-0.5-1.7-0.7c-0.5-0.2-1-0.4-1.4-0.6c-2.2-0.9-4.3-1.8-6.4-2.6c-4.3-1.7-8.5-3.1-12.5-4.5
	c0,0,0,0,0,0c-3-1-5.9-1.9-8.8-2.7h0c-0.8-0.2-1.5-0.4-2.3-0.6c-0.8-0.2-1.5-0.4-2.3-0.6c-1.5-0.4-3-0.8-4.5-1.1
	c-0.7-0.2-1.5-0.3-2.2-0.5c-0.7-0.2-1.4-0.3-2.2-0.5c-0.7-0.1-1.4-0.3-2.1-0.4c-0.7-0.1-1.4-0.3-2.1-0.4c-1.3-0.2-2.5-0.5-3.7-0.7
	c-0.3,0-0.6-0.1-0.9-0.1c-1-0.2-2.1-0.3-3.1-0.5c-0.4-0.1-0.9-0.1-1.3-0.2c-0.9-0.1-1.8-0.2-2.6-0.3c-0.6-0.1-1.1-0.1-1.7-0.2
	c-2.5-0.3-5-0.4-7.3-0.5c-0.4,0-0.9,0-1.3-0.1c-1,0-2-0.1-3-0.1c-0.3,0-0.5,0-0.8,0c-37-0.4-53.7,15-53.7,15s-39,21-29,65
	c0,0,0.4-0.4,1.3-1.2c0.1-0.1,0.2-0.2,0.3-0.3c0.5-0.4,1.1-0.9,1.9-1.5c0.4-0.3,0.8-0.6,1.2-0.9c0.4-0.3,0.9-0.6,1.3-1
	c0.4-0.3,0.7-0.5,1.1-0.8c0.9-0.6,1.9-1.3,3-2c0.6-0.4,1.3-0.8,1.9-1.2c0.3-0.2,0.7-0.4,1-0.6c0.7-0.4,1.4-0.8,2.2-1.3
	c1.1-0.6,2.3-1.3,3.6-1.9c0.6-0.3,1.3-0.6,1.9-1c0.6-0.3,1.3-0.6,2-0.9c-0.4-0.9-0.8-2-1.3-3.2c-0.8-2.3-1.7-5-2.2-8.1
	c-1.7-9-0.7-20.2,11.4-26.2c1.3-0.7,2.7-1.2,4.3-1.7c0.3-0.1,0.7-0.2,1-0.3c1.8-0.5,3.5-0.9,5.1-1.1c2.4-0.3,4.6-0.2,6.6,0.2
	c5,1,8.6,4,11.3,7.8c4.5,6.4,6.1,15.1,6.7,20.7c0.8-0.1,1.7-0.2,2.6-0.3c0.7-0.1,1.5-0.2,2.2-0.2c1.1-0.1,2.2-0.2,3.3-0.3
	c0.6,0,1.2-0.1,1.8-0.1c0.6-0.1,1.3-0.1,1.9-0.1c2.5-0.1,5-0.2,7.6-0.3c0.8,0,1.7,0,2.5,0c1.2,0,2.4,0,3.7,0c0.8,0,1.5,0,2.3,0.1
	c0.4,0,0.7,0,1.1,0c0.9,0,1.8,0.1,2.7,0.1c1.1,0.1,2.3,0.1,3.4,0.2c1.1,0.1,2.3,0.2,3.5,0.3c1.2,0.1,2.3,0.2,3.5,0.3
	s2.4,0.3,3.6,0.4c1.2,0.1,2.4,0.3,3.6,0.5c3.9,0.5,7.9,1.2,12,1.9c2.1,0.4,4.2,0.8,6.3,1.2c1,0.2,1.9,0.4,2.9,0.6
	c0.9,0.2,1.9,0.4,2.8,0.6c0.4,0.1,0.8,0.2,1.3,0.3c0.9,0.2,1.8,0.4,2.7,0.7c1,0.3,2.1,0.5,3.2,0.8c0.1,0,0.2,0,0.3,0.1
	c4-6.9,11.3-11.7,19.8-12.3c0.6-0.1,1.2-0.1,1.8-0.1c1.4,0,2.7,0.1,4.1,0.3c2.2,0.4,4.3,1,6.3,1.9c1.7,0.8,3.4,1.8,4.9,2.9
	c0.2,0.1,0.4,0.3,0.6,0.4C286.2,733.8,286.1,733.5,286,733.1z"/>
<path fill="#FFFFFF" stroke="#000000" stroke-miterlimit="10" d="M295.2,760.9l-0.6-0.9c-2.9,10.6-12.6,18.5-24.1,18.5
	c-1.7,0-3.4-0.2-5.1-0.5c-1.3-0.3-2.6-0.6-3.8-1.1h0c-0.4-0.1-0.8-0.3-1.1-0.5c-0.3-0.1-0.6-0.3-0.9-0.4c-0.2-0.1-0.4-0.2-0.6-0.3
	c-0.9-0.5-1.7-1-2.5-1.5c-0.2-0.1-0.3-0.2-0.5-0.3c-0.9-0.6-1.8-1.4-2.6-2.1h0c-1.8-1.7-3.4-3.6-4.6-5.8c-1.9-3.2-3-6.8-3.3-10.7
	c0-0.6-0.1-1.2-0.1-1.8c0-1.1,0.1-2.2,0.2-3.2c0.4-3.4,1.5-6.6,3.2-9.4c-0.1,0-0.2,0-0.3-0.1c-1.1-0.3-2.1-0.6-3.2-0.8
	c-0.9-0.2-1.8-0.5-2.7-0.7c-0.4-0.1-0.8-0.2-1.3-0.3c-1-0.2-1.9-0.4-2.8-0.6c-1-0.2-1.9-0.4-2.9-0.6c-2.1-0.5-4.2-0.9-6.3-1.2
	c-4.1-0.8-8.1-1.4-12-1.9c-1.2-0.2-2.4-0.3-3.6-0.5c-1.2-0.1-2.4-0.3-3.6-0.4s-2.3-0.2-3.5-0.3c-1.2-0.1-2.3-0.2-3.5-0.3
	c-1.1-0.1-2.3-0.1-3.4-0.2c-0.9,0-1.8-0.1-2.7-0.1c-0.4,0-0.7,0-1.1,0c-0.8,0-1.6,0-2.3-0.1c-1.2,0-2.5,0-3.7,0c-0.8,0-1.7,0-2.5,0
	c-2.6,0-5.2,0.1-7.6,0.3c-0.7,0-1.3,0.1-1.9,0.1c-0.6,0-1.2,0.1-1.8,0.1c-1.1,0.1-2.2,0.2-3.3,0.3c-0.8,0.1-1.5,0.2-2.2,0.2
	c-0.9,0.1-1.7,0.2-2.6,0.3c-1,0.1-1.9,0.3-2.9,0.4c-1.6,0.2-3.2,0.5-4.7,0.8c-0.8,0.1-1.5,0.3-2.3,0.4c-0.7,0.1-1.3,0.3-2,0.4
	c-0.1,0-0.2,0-0.3,0c-0.2,0-0.3,0.1-0.4,0.1c-1.6,0.3-3.2,0.7-4.7,1.1c-0.8,0.2-1.6,0.4-2.3,0.6c-0.8,0.2-1.6,0.4-2.4,0.6
	c-0.5,0.2-1.1,0.3-1.6,0.5c-7.4,2.1-13.8,4.6-19.2,7.1c-0.7,0.3-1.3,0.6-2,0.9c-0.7,0.3-1.3,0.6-1.9,1c-1.3,0.6-2.5,1.3-3.6,1.9
	c-0.8,0.4-1.5,0.9-2.2,1.3c-0.3,0.2-0.7,0.4-1,0.6c-0.7,0.4-1.3,0.8-1.9,1.2c-1.1,0.7-2.1,1.3-3,2c-0.4,0.3-0.8,0.5-1.1,0.8
	c-0.5,0.3-0.9,0.7-1.3,1c-0.4,0.3-0.8,0.6-1.2,0.9c-0.7,0.6-1.4,1.1-1.9,1.5c-0.1,0.1-0.2,0.2-0.3,0.3c-0.9,0.8-1.3,1.2-1.3,1.2
	s-33,39,5,70c17.1,13.9,32.7,13.3,50.3,9.3c9.9-2.3,20.5-5.6,32.3-8c13.8-2.8,29.3-4.3,47.4-1.4c5,0.8,9.7,1.3,14,1.4
	c31.8,1,47.2-15.2,51.4-33.8C305.7,785.3,302.8,771.7,295.2,760.9z M187.2,799.2c-2.3-1.2-4.3-2.9-6-4.8c-1.9-2.3-3.3-5-4.1-8
	c-0.4-1.6-0.6-3.2-0.6-4.9c0-7.6,4.2-14.2,10.4-17.5c2.9-1.6,6.1-2.5,9.6-2.5c0.2,0,0.4,0,0.6,0c4.6,0.1,8.8,1.8,12.2,4.6
	c2.9,2.4,5.1,5.6,6.3,9.3c0,0,0,0,0,0c0.6,1.9,0.9,3.9,0.9,6c0,8.8-5.6,16.2-13.5,18.9c-2,0.7-4.2,1.1-6.5,1.1
	C193.1,801.5,190,800.7,187.2,799.2z"/>
<path fill="#FFFFFF" stroke="#000000" stroke-miterlimit="10" d="M247.5,652.7c-1.8,5.9-6.3,18.7-12.5,27.6c-2,2.8-4.2,5.2-6.5,6.9
	h0c-0.8-0.2-1.5-0.4-2.3-0.6c-0.8-0.2-1.5-0.4-2.3-0.6c-1.5-0.4-3-0.8-4.5-1.1c-0.7-0.2-1.5-0.3-2.2-0.5c-0.7-0.2-1.4-0.3-2.2-0.5
	c-0.7-0.1-1.4-0.3-2.1-0.4c-0.7-0.1-1.4-0.3-2.1-0.4c-0.1-1.1-0.1-2.4-0.1-3.7c5.6,0.1,10.4-1.8,14.3-4.6
	c9.3-6.6,14.3-18.6,16.3-24.2C243.6,651,245.6,651.8,247.5,652.7z"/>
<path fill="#FFFFFF" stroke="#000000" stroke-miterlimit="10" d="M252.3,655.6c-0.6,6-2.6,19.4-9.7,28.8c-1.5,2-3.3,3.9-5.3,5.4
	c0,0,0,0,0,0c-3-1-5.9-1.9-8.8-2.7c2.3-1.7,4.5-4.1,6.5-6.9c6.3-8.9,10.7-21.7,12.5-27.6C249.2,653.5,250.8,654.5,252.3,655.6z"/>
<path fill="#FFFFFF" stroke="#000000" stroke-miterlimit="10" d="M253,690.1c-0.9,1.5-1.9,2.9-3.2,4.2c-4.3-1.7-8.5-3.1-12.5-4.5
	c2-1.5,3.8-3.4,5.3-5.4c7.1-9.4,9.1-22.8,9.7-28.8c1.7,1.3,3.3,2.8,4.7,4.5C257.8,666.7,258.5,680.6,253,690.1z"/>
<path fill="#FFFFFF" stroke="#000000" stroke-miterlimit="10" d="M257.9,692.8c-0.5,1.5-1,2.9-1.7,4.1c-2.2-0.9-4.3-1.8-6.4-2.6
	c1.3-1.3,2.3-2.7,3.2-4.2c5.5-9.5,4.8-23.4,4.1-30c0.1,0.1,0.1,0.2,0.2,0.2c1.2,1.5,2.4,3.2,3.4,5.1c0,0,0,0,0,0
	C260.8,671.8,260.7,684.1,257.9,692.8z"/>
<path fill="#FFFFFF" stroke="#000000" stroke-miterlimit="10" d="M259.8,693.8c-0.6,1.2-1.4,2.5-2.2,3.7c-0.5-0.2-1-0.4-1.4-0.6
	c0.7-1.2,1.2-2.6,1.7-4.1c2.8-8.7,2.9-21,2.8-27.3C264.6,672.6,266.1,682.1,259.8,693.8z"/>
<path fill="#FFFFFF" stroke="#000000" stroke-miterlimit="10" d="M233.7,650c-2.5,5.7-7.6,15.5-14.8,21.2c-2.4,1.9-5,3.3-7.8,4
	c0.2-2.5,0.7-5.1,1.4-7.6c2.2-7.4,7-14.5,17-16.9C230.9,650.3,232.3,650,233.7,650z"/>
<path fill="#FFFFFF" stroke="#000000" stroke-miterlimit="10" d="M241.5,650.6c-2,5.6-7,17.6-16.3,24.2c-4,2.8-8.7,4.7-14.3,4.6
	c0-1.3,0.1-2.8,0.2-4.3c2.8-0.7,5.4-2.1,7.8-4c7.3-5.7,12.3-15.5,14.8-21.2C236.3,649.8,239,650,241.5,650.6z"/>
<path fill="#FFFFFF" stroke="#000000" stroke-miterlimit="10" d="M146.2,738.4c-0.5,0.2-1.1,0.3-1.6,0.5c-7.4,2.1-13.8,4.6-19.2,7.1
	c-0.4-0.9-0.8-2-1.3-3.2c19-6,15.6-27.6,13.5-36c0.3-0.1,0.7-0.2,1-0.3c1.8-0.5,3.5-0.9,5.1-1.1
	C145.4,712.5,148.6,727.8,146.2,738.4z"/>
<path fill="#FFFFFF" stroke="#000000" stroke-miterlimit="10" d="M156,736c-0.2,0-0.3,0.1-0.4,0.1c-1.6,0.3-3.2,0.7-4.7,1.1
	c-0.8,0.2-1.6,0.4-2.3,0.6c-0.8,0.2-1.6,0.4-2.4,0.6c2.5-10.7-0.8-25.9-2.6-33c2.4-0.3,4.6-0.2,6.6,0.2
	C152.7,712.1,156.9,725.1,156,736z"/>
<path fill="#FFFFFF" stroke="#000000" stroke-miterlimit="10" d="M165.2,734.5c-1.6,0.2-3.2,0.5-4.7,0.8c-0.8,0.1-1.5,0.3-2.3,0.4
	c-0.7,0.1-1.3,0.3-2,0.4c-0.1,0-0.2,0-0.3,0c0.9-11-3.4-24-5.9-30.5c5,1,8.6,4,11.3,7.8C163.3,719.1,165.4,727.2,165.2,734.5z"/>
<path fill="#FFFFFF" stroke="#000000" stroke-miterlimit="10" d="M168.1,734.1c-1,0.1-1.9,0.3-2.9,0.4c0.1-7.3-1.9-15.3-3.8-21.1
	C165.9,719.8,167.5,728.5,168.1,734.1z"/>
<path fill="#FFFFFF" stroke="#000000" stroke-miterlimit="10" d="M133.2,708.6c-0.8,7.9-3.2,20.4-11.4,26.2
	C120.1,725.8,121.1,714.6,133.2,708.6z"/>
<path fill="#FFFFFF" stroke="#000000" stroke-miterlimit="10" d="M124,742.8c-0.8-2.3-1.7-5-2.2-8.1c8.2-5.8,10.7-18.3,11.4-26.2
	c1.3-0.7,2.7-1.2,4.3-1.7C139.6,715.2,143,736.8,124,742.8z"/>
<path fill="#FFFFFF" stroke="#000000" stroke-miterlimit="10" d="M289.3,737c-0.1,1.3-0.3,3-0.6,4.9c-0.5,3.2-1.3,7.2-2.5,11.3
	c-0.1,0.4-0.2,0.8-0.4,1.1c-0.3,1-0.6,1.9-1,2.8c-0.1,0.3-0.2,0.6-0.3,0.9c0,0,0,0.1-0.1,0.2l-0.4,0.9c-0.3,0.7-0.6,1.4-0.9,2
	c-0.1,0.3-0.3,0.7-0.5,1h0c-0.2,0.4-0.4,0.8-0.6,1.2c-0.5,1-1.1,2-1.7,3c-0.2,0.4-0.5,0.7-0.7,1.1c-0.3,0.5-0.7,1-1,1.4
	c-0.2,0.3-0.5,0.6-0.7,0.9c-0.3,0.4-0.6,0.8-1,1.1c-0.1,0.1-0.2,0.3-0.4,0.4c-0.2,0.2-0.4,0.5-0.7,0.7c-0.1,0.1-0.3,0.3-0.5,0.4
	c-0.2,0.2-0.5,0.5-0.8,0.7c0,0,0,0,0,0c-0.3,0.2-0.5,0.5-0.8,0.7c-0.3,0.2-0.5,0.4-0.8,0.6c-0.3,0.2-0.6,0.4-0.9,0.6
	c-0.3,0.2-0.5,0.3-0.8,0.5c-0.2,0.1-0.5,0.3-0.7,0.4c-0.3,0.2-0.6,0.3-0.9,0.4c-0.2,0.1-0.5,0.2-0.7,0.3c-0.2,0.1-0.5,0.2-0.7,0.3
	c-0.2,0.1-0.5,0.2-0.7,0.3c-0.2,0.1-0.3,0.1-0.5,0.2c-0.6,0.2-1.1,0.3-1.7,0.5c-1.3-0.3-2.6-0.6-3.8-1.1h0c-0.4-0.2-0.8-0.3-1.1-0.5
	c-0.3-0.1-0.6-0.3-0.9-0.4c-0.2-0.1-0.4-0.2-0.6-0.3c-0.9-0.5-1.7-1-2.5-1.5c-0.2-0.1-0.3-0.2-0.5-0.3c-0.9-0.6-1.8-1.4-2.6-2.1
	c9.5-2.7,17.7-12.5,23.7-21.9c3.9-6.2,6.9-12.3,8.6-16.2c0.2,0.1,0.4,0.3,0.6,0.4C287.4,735,288.4,736,289.3,737z"/>
<path fill="#FFFFFF" stroke="#000000" stroke-miterlimit="10" d="M295.5,753.5c0,0.2,0,0.3,0,0.5c0,2.1-0.3,4.1-0.9,6
	c-2.9,10.6-12.6,18.5-24.1,18.5c-1.7,0-3.4-0.2-5.1-0.5c0.6-0.1,1.2-0.3,1.7-0.5c0.2-0.1,0.4-0.1,0.5-0.2c0.2-0.1,0.5-0.2,0.7-0.3
	c0.2-0.1,0.5-0.2,0.7-0.3c0.2-0.1,0.5-0.2,0.7-0.3c0.3-0.1,0.6-0.3,0.9-0.4c0.3-0.1,0.5-0.3,0.7-0.4c0.3-0.2,0.6-0.3,0.8-0.5
	c0.3-0.2,0.6-0.4,0.9-0.6c0.3-0.2,0.5-0.4,0.8-0.6c0.3-0.2,0.5-0.4,0.8-0.7c0,0,0,0,0,0c0.3-0.2,0.5-0.5,0.8-0.7
	c0.2-0.1,0.3-0.3,0.5-0.4c0.2-0.2,0.4-0.4,0.7-0.7c0.1-0.1,0.3-0.3,0.4-0.4c0.3-0.4,0.7-0.8,1-1.1c0.2-0.3,0.5-0.6,0.7-0.9
	c0.4-0.5,0.7-0.9,1-1.4c0.2-0.4,0.5-0.7,0.7-1.1c0.6-1,1.2-2,1.7-3c0.2-0.4,0.4-0.8,0.6-1.2c0.2-0.3,0.3-0.7,0.5-1
	c0.3-0.7,0.6-1.4,0.9-2c0.1-0.3,0.3-0.6,0.4-0.9c0-0.1,0-0.1,0.1-0.2c0.1-0.3,0.2-0.6,0.3-0.9c0.3-1,0.7-1.9,1-2.8
	c0.1-0.4,0.2-0.8,0.4-1.1c1.2-4.1,2-8.1,2.5-11.3c0.3-2,0.5-3.7,0.6-4.9C293.2,741.4,295.5,747.2,295.5,753.5z"/>
<path fill="#FFFFFF" stroke="#000000" stroke-miterlimit="10" d="M268.7,728.6c-2,4-5.5,10.2-10.5,14.9c-3.5,3.3-7.6,5.9-12.5,6.8
	c0.4-3.4,1.5-6.6,3.2-9.4C253,734,260.3,729.2,268.7,728.6z"/>
<path fill="#FFFFFF" stroke="#000000" stroke-miterlimit="10" d="M274.6,728.8c-1.3,4-4.2,10.9-9.8,16.7c-4.5,4.7-10.7,8.6-19.2,9.7
	c0-0.6-0.1-1.2-0.1-1.8c0-1.1,0.1-2.2,0.2-3.2c4.9-0.8,9-3.5,12.5-6.8c5-4.8,8.5-11,10.5-14.9c0.6-0.1,1.2-0.1,1.8-0.1
	C271.9,728.5,273.2,728.6,274.6,728.8z"/>
<path fill="#FFFFFF" stroke="#000000" stroke-miterlimit="10" d="M280.8,730.7c-1.1,3.5-3.7,10.5-8.4,17.4
	c-5.1,7.5-12.7,15-23.6,17.8c-1.9-3.2-3-6.8-3.3-10.7c8.5-1,14.8-5,19.2-9.7c5.5-5.8,8.4-12.7,9.8-16.7
	C276.8,729.2,278.9,729.8,280.8,730.7z"/>
<path fill="#FFFFFF" stroke="#000000" stroke-miterlimit="10" d="M285.7,733.7c-1.7,3.9-4.7,10-8.6,16.2c-6,9.5-14.1,19.2-23.7,21.9
	h0c-1.8-1.7-3.4-3.6-4.6-5.8c10.9-2.8,18.6-10.3,23.6-17.8c4.7-7,7.3-14,8.4-17.4C282.6,731.5,284.2,732.5,285.7,733.7z"/>
<path fill="#FFFFFF" stroke="#000000" stroke-miterlimit="10" d="M181.2,794.4c-1.9-2.3-3.3-5-4.1-8c9.6-6.6,10.5-16.1,9.8-22.4
	c2.9-1.6,6.1-2.5,9.6-2.5c0.2,0,0.4,0,0.6,0C198.1,770.3,198.5,790.8,181.2,794.4z"/>
<path fill="#FFFFFF" stroke="#000000" stroke-miterlimit="10" d="M209.3,766.1c-0.9,9.8-4.8,29.2-22.1,33.1c-2.3-1.2-4.3-2.9-6-4.8
	c17.3-3.5,16.9-24,15.9-32.8C201.7,761.6,205.9,763.3,209.3,766.1z"/>
<path fill="#FFFFFF" stroke="#000000" stroke-miterlimit="10" d="M215.6,775.4C215.6,775.5,215.6,775.5,215.6,775.4
	c-1.4,7.3-4.7,18.5-12.6,25c-2,0.7-4.2,1.1-6.5,1.1c-3.4,0-6.5-0.8-9.3-2.3c17.3-3.9,21.2-23.3,22.1-33.1
	C212.2,768.5,214.4,771.7,215.6,775.4z"/>
<path fill="#FFFFFF" stroke="#000000" stroke-miterlimit="10" d="M216.5,781.5c0,8.8-5.6,16.2-13.5,18.9c7.9-6.5,11.2-17.7,12.6-25
	C216.2,777.4,216.5,779.4,216.5,781.5z"/>
<path fill="#FFFFFF" stroke="#000000" stroke-miterlimit="10" d="M177.1,786.4c-0.4-1.6-0.6-3.2-0.6-4.9c0-7.6,4.2-14.2,10.4-17.5
	C187.6,770.3,186.7,779.8,177.1,786.4z"/>
<path fill="#FFFFFF" stroke="#000000" stroke-miterlimit="10" d="M183.6,633c-1.2,0.8-2.5,1.6-3.7,2.4c-0.7-2.8-2-5.3-3.5-7.4
	C179.4,629.4,181.8,631.3,183.6,633z"/>
<path fill="#FFFFFF" stroke="#000000" stroke-miterlimit="10" d="M179.9,635.4c-3.4,2.2-6.8,4.5-10.2,6.8c0.2-6.6-2-12.4-4.2-16.5
	c4.2-0.1,7.9,0.9,10.9,2.3C177.9,630.1,179.2,632.6,179.9,635.4z"/>
<path fill="#FFFFFF" stroke="#000000" stroke-miterlimit="10" d="M169.7,642.2c-0.4,0.3-0.8,0.5-1.2,0.8c-2.4,1.7-4.8,3.4-7.2,5.2
	c-0.6-4-2-8.1-3.6-11.8c-1.3-3-2.8-5.8-4.1-8c1.2-0.6,2.4-1.1,3.6-1.5c2.9-0.9,5.7-1.3,8.2-1.4C167.7,629.8,169.9,635.6,169.7,642.2
	z"/>
<path fill="#FFFFFF" stroke="#000000" stroke-miterlimit="10" d="M161.4,648.3c-1.9,1.4-3.8,2.9-5.6,4.4c-2.3-6.5-7.9-11.9-11.9-15
	c1.5-2.6,3.5-4.9,6-6.7c1.2-0.9,2.5-1.7,3.9-2.4c1.3,2.2,2.7,4.9,4.1,8C159.4,640.1,160.8,644.2,161.4,648.3z"/>
<path fill="#FFFFFF" stroke="#000000" stroke-miterlimit="10" d="M155.8,652.7c-3.3,2.7-6.5,5.5-9.4,8.4c-6.3-8.1-5.9-15.4-3.8-20.8
	c0.4-0.9,0.8-1.8,1.3-2.6C147.9,640.8,153.5,646.1,155.8,652.7z"/>
<path fill="#FFFFFF" stroke="#000000" stroke-miterlimit="10" d="M341.5,920.5c0,0-20.2-0.4-39.4-2.4c-4.3-5.5-11-9.1-18.6-9.1
	c-4.1,0-7.9,1-11.3,2.9c-0.3-0.1-0.5-0.3-0.7-0.4c-14-8-43-5-93,9c-17.8,5-29,5.8-36,4.8c0-0.6,0-1.2,0-1.8c0-4.2-0.8-8.2-2.3-11.9
	c17.3-7.3,52.1-23.7,57.3-40.1c3.7-11.8-11.3-20.9-26.2-26.9c-4.7-1.9-9.4-3.5-13.4-4.7c9.9-2.3,20.5-5.6,32.3-8
	c13.8-2.8,29.3-4.3,47.4-1.4c5,0.8,9.7,1.3,14,1.4c-21.7,19.2-3.8,33.7,9,56.6C274.5,913.5,341.5,920.5,341.5,920.5z"/>
<path fill="#FFFFFF" stroke="#000000" stroke-miterlimit="10" d="M140.2,911.6c-4.7-11.2-15.7-19.1-28.7-19.1c-17.1,0-31,13.9-31,31
	s13.9,31,31,31c16.5,0,30-13,31-29.3c0-0.6,0-1.2,0-1.8C142.5,919.3,141.7,915.3,140.2,911.6z M111.5,949.5c-13.8,0-25-11.2-25-25
	s11.2-25,25-25c10.1,0,18.8,6,22.7,14.6c1.4,2.9,2.1,6.1,2.3,9.5c0,0.3,0,0.6,0,0.9C136.5,938.3,125.3,949.5,111.5,949.5z"/>
<path fill="#FFFFFF" stroke="#000000" stroke-miterlimit="10" d="M136.5,923.6c-0.1-3.4-0.9-6.6-2.3-9.5
	c-3.9-8.6-12.6-14.6-22.7-14.6c-13.8,0-25,11.2-25,25s11.2,25,25,25s25-11.2,25-25C136.5,924.2,136.5,923.9,136.5,923.6z
	 M112.5,940.5c-8.8,0-16-7.2-16-16c0-8.8,7.2-16,16-16s16,7.2,16,16C128.5,933.3,121.3,940.5,112.5,940.5z"/>
<circle fill="#FFFFFF" stroke="#000000" stroke-miterlimit="10" cx="112.5" cy="924.5" r="16"/>
<path fill="#FFFFFF" stroke="#000000" stroke-miterlimit="10" d="M305.2,923.5c-0.8-1.9-1.9-3.8-3.1-5.4c-4.3-5.5-11-9.1-18.6-9.1
	c-4.1,0-7.9,1-11.3,2.9c-7.3,4-12.2,11.7-12.2,20.6c0,13,10.5,23.5,23.5,23.5c12.5,0,22.8-9.8,23.5-22.2c0-0.4,0-0.9,0-1.3
	C307,929.3,306.4,926.3,305.2,923.5z M283.5,952.2c-10.5,0-19-8.5-19-18.9c0-9.3,6.7-17.1,15.6-18.7c1.1-0.2,2.2-0.3,3.3-0.3
	c3.6,0,7,1,9.8,2.7c3.2,2,5.8,4.9,7.4,8.3c1,2.2,1.6,4.7,1.7,7.2c0,0.2,0,0.5,0,0.7C302.5,943.7,294,952.2,283.5,952.2z"/>
<path fill="#FFFFFF" stroke="#000000" stroke-miterlimit="10" d="M302.4,932.6c-0.1-2.6-0.7-5-1.7-7.2c-1.6-3.5-4.2-6.3-7.4-8.3
	c-2.9-1.7-6.2-2.7-9.8-2.7c-1.1,0-2.3,0.1-3.3,0.3c-8.9,1.6-15.6,9.3-15.6,18.7c0,10.5,8.5,18.9,19,18.9s19-8.5,19-18.9
	C302.5,933,302.4,932.8,302.4,932.6z M284.3,945.4c-6.7,0-12.1-5.4-12.1-12.1c0-6.7,5.4-12.1,12.1-12.1s12.1,5.4,12.1,12.1
	C296.4,940,291,945.4,284.3,945.4z"/>
<circle fill="#FFFFFF" stroke="#000000" stroke-miterlimit="10" cx="284.3" cy="933.3" r="12.1"/>
<path fill="#FFFFFF" stroke="#000000" stroke-miterlimit="10" d="M587,811.1c-2.3-5.5-5.3-10.7-8.9-15.3
	c-12.2-15.7-31.2-25.8-52.5-25.8c-11.6,0-22.4,2.9-31.9,8.2C473,789.4,459,811.3,459,836.5c0,36.7,29.8,66.5,66.5,66.5
	c35.5,0,64.5-27.8,66.4-62.7c0-1.2,0.1-2.5,0.1-3.8C592,827.5,590.2,818.9,587,811.1z M525.5,892.3c-29.6,0-53.6-24-53.6-53.6
	c0-26.4,19-48.3,44.1-52.8c3.1-0.6,6.3-0.9,9.5-0.9c10.2,0,19.7,2.8,27.8,7.7c9.1,5.5,16.5,13.7,21,23.5c2.9,6.3,4.6,13.2,4.9,20.5
	c0,0.6,0,1.3,0,1.9C579.1,868.3,555.1,892.3,525.5,892.3z"/>
<path fill="#FFFFFF" stroke="#000000" stroke-miterlimit="10" d="M579.1,836.7c-0.3-7.3-2-14.2-4.9-20.5c-4.5-9.8-11.8-18-21-23.5
	c-8.1-4.9-17.6-7.7-27.8-7.7c-3.2,0-6.4,0.3-9.5,0.8c-25.1,4.5-44.1,26.4-44.1,52.8c0,29.6,24,53.6,53.6,53.6
	c29.6,0,53.6-24,53.6-53.6C579.1,838,579.1,837.3,579.1,836.7z M527.7,873c-19,0-34.3-15.4-34.3-34.3c0-19,15.4-34.3,34.3-34.3
	c19,0,34.3,15.4,34.3,34.3C562,857.6,546.6,873,527.7,873z"/>
<circle fill="#FFFFFF" stroke="#000000" stroke-miterlimit="10" cx="527.7" cy="838.7" r="34.3"/>
<path fill="#FFFFFF" stroke="#000000" stroke-miterlimit="10" d="M639.2,654.5c-0.8-1.9-1.9-3.8-3.1-5.4c-4.3-5.5-11-9.1-18.6-9.1
	c-4.1,0-7.9,1-11.3,2.9c-7.3,4-12.2,11.7-12.2,20.6c0,13,10.5,23.5,23.5,23.5c12.5,0,22.8-9.8,23.5-22.2c0-0.4,0-0.9,0-1.3
	C641,660.3,640.4,657.3,639.2,654.5z M617.5,683.2c-10.5,0-19-8.5-19-18.9c0-9.3,6.7-17.1,15.6-18.7c1.1-0.2,2.2-0.3,3.3-0.3
	c3.6,0,7,1,9.8,2.7c3.2,2,5.8,4.9,7.4,8.3c1,2.2,1.6,4.7,1.7,7.2c0,0.2,0,0.5,0,0.7C636.5,674.7,628,683.2,617.5,683.2z"/>
<path fill="#FFFFFF" stroke="#000000" stroke-miterlimit="10" d="M636.4,663.6c-0.1-2.6-0.7-5-1.7-7.2c-1.6-3.5-4.2-6.3-7.4-8.3
	c-2.9-1.7-6.2-2.7-9.8-2.7c-1.1,0-2.3,0.1-3.3,0.3c-8.9,1.6-15.6,9.3-15.6,18.7c0,10.5,8.5,18.9,19,18.9s19-8.5,19-18.9
	C636.5,664,636.4,663.8,636.4,663.6z M618.3,676.4c-6.7,0-12.1-5.4-12.1-12.1c0-6.7,5.4-12.1,12.1-12.1s12.1,5.4,12.1,12.1
	C630.4,671,625,676.4,618.3,676.4z"/>
<circle fill="#FFFFFF" stroke="#000000" stroke-miterlimit="10" cx="618.3" cy="664.3" r="12.1"/>
<path fill="#FFFFFF" stroke="#000000" stroke-miterlimit="10" d="M484.2,697.5c-0.8-1.9-1.9-3.8-3.1-5.4c-4.3-5.5-11-9.1-18.6-9.1
	c-4.1,0-7.9,1-11.3,2.9c-7.3,4-12.2,11.7-12.2,20.6c0,13,10.5,23.5,23.5,23.5c12.5,0,22.8-9.8,23.5-22.2c0-0.4,0-0.9,0-1.3
	C486,703.3,485.4,700.3,484.2,697.5z M462.5,726.2c-10.5,0-19-8.5-19-18.9c0-9.3,6.7-17.1,15.6-18.7c1.1-0.2,2.2-0.3,3.3-0.3
	c3.6,0,7,1,9.8,2.7c3.2,2,5.8,4.9,7.4,8.3c1,2.2,1.6,4.7,1.7,7.2c0,0.2,0,0.5,0,0.7C481.5,717.7,473,726.2,462.5,726.2z"/>
<path fill="#FFFFFF" stroke="#000000" stroke-miterlimit="10" d="M481.4,706.6c-0.1-2.6-0.7-5-1.7-7.2c-1.6-3.5-4.2-6.3-7.4-8.3
	c-2.9-1.7-6.2-2.7-9.8-2.7c-1.1,0-2.3,0.1-3.3,0.3c-8.9,1.6-15.6,9.3-15.6,18.7c0,10.5,8.5,18.9,19,18.9s19-8.5,19-18.9
	C481.5,707,481.4,706.8,481.4,706.6z M463.3,719.4c-6.7,0-12.1-5.4-12.1-12.1c0-6.7,5.4-12.1,12.1-12.1s12.1,5.4,12.1,12.1
	C475.4,714,470,719.4,463.3,719.4z"/>
<circle fill="#FFFFFF" stroke="#000000" stroke-miterlimit="10" cx="463.3" cy="707.3" r="12.1"/>
<path fill="#FFFFFF" stroke="#000000" stroke-miterlimit="10" d="M948.2,534.5c-0.8-1.9-1.9-3.8-3.1-5.4c-4.3-5.5-11-9.1-18.6-9.1
	c-4.1,0-7.9,1-11.3,2.9c-7.3,4-12.2,11.7-12.2,20.6c0,13,10.5,23.5,23.5,23.5c12.5,0,22.8-9.8,23.5-22.2c0-0.4,0-0.9,0-1.3
	C950,540.3,949.4,537.3,948.2,534.5z M926.5,563.2c-10.5,0-19-8.5-19-18.9c0-9.3,6.7-17.1,15.6-18.7c1.1-0.2,2.2-0.3,3.3-0.3
	c3.6,0,7,1,9.8,2.7c3.2,2,5.8,4.9,7.4,8.3c1,2.2,1.6,4.7,1.7,7.2c0,0.2,0,0.5,0,0.7C945.5,554.7,937,563.2,926.5,563.2z"/>
<path fill="#FFFFFF" stroke="#000000" stroke-miterlimit="10" d="M945.4,543.6c-0.1-2.6-0.7-5-1.7-7.2c-1.6-3.5-4.2-6.3-7.4-8.3
	c-2.9-1.7-6.2-2.7-9.8-2.7c-1.1,0-2.3,0.1-3.3,0.3c-8.9,1.6-15.6,9.3-15.6,18.7c0,10.5,8.5,18.9,19,18.9s19-8.5,19-18.9
	C945.5,544,945.4,543.8,945.4,543.6z M927.3,556.4c-6.7,0-12.1-5.4-12.1-12.1c0-6.7,5.4-12.1,12.1-12.1s12.1,5.4,12.1,12.1
	C939.4,551,934,556.4,927.3,556.4z"/>
<circle fill="#FFFFFF" stroke="#000000" stroke-miterlimit="10" cx="927.3" cy="544.3" r="12.1"/>
<path fill="#FFFFFF" stroke="#000000" stroke-miterlimit="10" d="M816.2,499.5c-0.8-1.9-1.9-3.8-3.1-5.4c-4.3-5.5-11-9.1-18.6-9.1
	c-4.1,0-7.9,1-11.3,2.9c-7.3,4-12.2,11.7-12.2,20.6c0,13,10.5,23.5,23.5,23.5c12.5,0,22.8-9.8,23.5-22.2c0-0.4,0-0.9,0-1.3
	C818,505.3,817.4,502.3,816.2,499.5z M794.5,528.2c-10.5,0-19-8.5-19-18.9c0-9.3,6.7-17.1,15.6-18.7c1.1-0.2,2.2-0.3,3.3-0.3
	c3.6,0,7,1,9.8,2.7c3.2,2,5.8,4.9,7.4,8.3c1,2.2,1.6,4.7,1.7,7.2c0,0.2,0,0.5,0,0.7C813.5,519.7,805,528.2,794.5,528.2z"/>
<path fill="#FFFFFF" stroke="#000000" stroke-miterlimit="10" d="M813.4,508.6c-0.1-2.6-0.7-5-1.7-7.2c-1.6-3.5-4.2-6.3-7.4-8.3
	c-2.9-1.7-6.2-2.7-9.8-2.7c-1.1,0-2.3,0.1-3.3,0.3c-8.9,1.6-15.6,9.3-15.6,18.7c0,10.5,8.5,18.9,19,18.9s19-8.5,19-18.9
	C813.5,509,813.4,508.8,813.4,508.6z M795.3,521.4c-6.7,0-12.1-5.4-12.1-12.1c0-6.7,5.4-12.1,12.1-12.1s12.1,5.4,12.1,12.1
	C807.4,516,802,521.4,795.3,521.4z"/>
<circle fill="#FFFFFF" stroke="#000000" stroke-miterlimit="10" cx="795.3" cy="509.3" r="12.1"/>
<path fill="#FFFFFF" stroke="#000000" stroke-miterlimit="10" d="M766.2,904.5c-0.8-1.9-1.9-3.8-3.1-5.4c-2.7-3.5-6.4-6.2-10.6-7.7
	c-2.5-0.9-5.2-1.4-8-1.4c-4.1,0-7.9,1-11.3,2.9c-7.3,4-12.2,11.7-12.2,20.6c0,13,10.5,23.5,23.5,23.5c12.3,0,22.4-9.5,23.4-21.5
	c0-0.2,0-0.5,0.1-0.7c0-0.4,0-0.9,0-1.3C768,910.3,767.4,907.3,766.2,904.5z M763.4,914.6c-0.2,10.3-8.6,18.6-18.9,18.6
	c-10.5,0-19-8.5-19-18.9c0-9.3,6.7-17.1,15.6-18.7c1.1-0.2,2.2-0.3,3.3-0.3c2.9,0,5.6,0.6,8,1.8c0.6,0.3,1.2,0.6,1.8,1
	c3.2,2,5.8,4.9,7.4,8.3c1,2.2,1.6,4.7,1.7,7.2c0,0.2,0,0.5,0,0.7C763.5,914.4,763.5,914.5,763.4,914.6z"/>
<path fill="#FFFFFF" stroke="#000000" stroke-miterlimit="10" d="M763.4,913.6c-0.1-2.6-0.7-5-1.7-7.2c-1.6-3.5-4.2-6.3-7.4-8.3
	c-0.6-0.3-1.2-0.7-1.8-1c-2.4-1.1-5.1-1.8-8-1.8c-1.1,0-2.3,0.1-3.3,0.3c-8.9,1.6-15.6,9.3-15.6,18.7c0,10.5,8.5,18.9,19,18.9
	c10.3,0,18.8-8.3,18.9-18.6c0-0.1,0-0.2,0-0.3C763.5,914,763.4,913.8,763.4,913.6z M745.3,926.4c-6.7,0-12.1-5.4-12.1-12.1
	c0-6.7,5.4-12.1,12.1-12.1c2.7,0,5.2,0.9,7.3,2.4c0,0,0,0,0,0c1.7,1.3,3,2.9,3.8,4.9c0.7,1.5,1,3.1,1,4.8
	C757.4,921,752,926.4,745.3,926.4z"/>
<path fill="#FFFFFF" stroke="#000000" stroke-miterlimit="10" d="M757.4,914.3c0,6.7-5.4,12.1-12.1,12.1s-12.1-5.4-12.1-12.1
	c0-6.7,5.4-12.1,12.1-12.1c2.7,0,5.2,0.9,7.3,2.4c0,0,0,0,0,0c1.7,1.3,3,2.9,3.8,4.9C757,910.9,757.4,912.5,757.4,914.3z"/>
<path fill="#FFFFFF" stroke="#000000" stroke-miterlimit="10" d="M90.4,482.1L89.3,551l-0.8,45.5c0,0,0,11-11,11s-11-9-11-9V481.2
	c0.9,0.2,1.8,0.4,2.7,0.6c3.7,0.8,7.5,1.2,11.3,1.2c1.8,0,3.5-0.1,5.2-0.3C87.3,482.6,88.9,482.4,90.4,482.1z"/>
<path fill="#FFFFFF" stroke="#000000" stroke-miterlimit="10" d="M486.4,649.5c-3.6,8-9.4,14.7-16.7,19.5c10.7-3.8,20.6-7,29.5-9.8
	C494.5,655,490,651.8,486.4,649.5z"/>
<path fill="#FFFFFF" stroke="#000000" stroke-miterlimit="10" d="M196.3,620.9c-0.8,3-3.4,6.2-8.8,9.6c-1.3,0.8-2.6,1.6-3.9,2.5
	c-1.8-1.7-4.2-3.5-7.2-4.9c-3-1.4-6.6-2.4-10.9-2.3c-2.5,0-5.3,0.4-8.2,1.4c-1.3,0.4-2.5,0.9-3.6,1.5c-1.4,0.7-2.7,1.5-3.9,2.4
	c-51.6-39.1-24.9-80.2-1-103.4c14.4-4.4,29.6-8.1,45.5-11c0,0.3,0.1,0.5,0.1,0.8c0,0.3,0.1,0.5,0.1,0.8c0.1,0.5,0.2,1,0.3,1.5
	c0,0.3,0.1,0.5,0.2,0.8c0.1,0.7,0.3,1.3,0.4,2c0,0.2,0.1,0.4,0.1,0.6c-22.6,7.2-63,26.4-43.1,68.4
	C152.5,591.5,170.5,611.5,196.3,620.9z"/>
<path fill="#FFFFFF" stroke="#000000" stroke-miterlimit="10" d="M171.3,844.6C95.6,892.5,37.2,892,0.5,882.3V609
	c17.2-14.6,39.3-31,66-46.1v35.6c0,0,0,9,11,9s11-11,11-11l0.8-45.5c18.1-8.8,38-16.9,59.6-23.4c-23.9,23.2-50.7,64.2,1,103.4
	c-2.4,1.8-4.5,4.1-6,6.7c-0.5,0.8-0.9,1.7-1.3,2.6c-2.2,5.5-2.6,12.8,3.8,20.8c-11,10.9-17.8,22.7-14.9,34.4c0,0-39,21-29,65
	c0,0-33,39,5,70c17.1,13.9,32.7,13.3,50.3,9.3C161.9,841.1,166.6,842.7,171.3,844.6z"/>
<path fill="#FFFFFF" stroke="#000000" stroke-miterlimit="10" d="M336.8,729.3c-1.7,1-3.4,1.9-5.1,2.9c-1.5,0.9-3.1,1.8-4.6,2.7
	c-1.1,0.6-2.2,1.3-3.3,1.9c-0.8,0.4-1.5,0.9-2.3,1.3c-1.7,1-3.4,2-5.1,3.1c-6.9,4.1-13.8,8.4-20.8,12.8c0-0.2,0-0.3,0-0.5
	c0-6.3-2.3-12.1-6.2-16.5c-0.9-1.1-1.9-2-3-2.9c-0.1-0.3-0.2-0.6-0.3-1c-4-11.5-10.7-24.8-21.5-32.6c0,0,0.4-1.4,0.8-3.8
	C289.2,709.2,314.9,721.5,336.8,729.3z"/>
<path fill="#FFFFFF" stroke="#000000" stroke-miterlimit="10" d="M533.5,641.5c-10.4,10.4-34.3-0.3-43.4-5c0.3-1.9,0.4-3.9,0.4-6
	c0-25.4-20.6-46-46-46s-46,20.6-46,46c0,1.2,0,2.3,0.1,3.5c-0.1,0.5-0.1,1-0.1,1.5c0,1.3,0.3,2.6,0.8,3.8
	c4.1,21.2,22.8,37.2,45.2,37.2c1.9,0,3.8-0.1,5.7-0.4c-1.4,0.5-2.8,1-4.1,1.6c-1.4,0.5-2.7,1.1-4.1,1.6c-2.6,1-5.3,2.1-8,3.2
	c-0.6,0.2-1.2,0.5-1.8,0.7c-9.1,3.7-18.6,7.8-28.4,12.2c-39.5-7.6-106.5-34.7-148.7-52.9c-11.9-18.8-35.9-36.4-82.6-42.1
	c0,0,27,8.3,23.8,20.4c-25.8-9.4-43.8-29.4-43.8-29.4c-19.9-42,20.5-61.2,43.1-68.4c0,0.1,0,0.2,0.1,0.3c0.1,0.3,0.1,0.5,0.2,0.8v0
	c0.1,0.3,0.2,0.6,0.2,0.9c0.2,0.6,0.3,1.1,0.5,1.7c0.1,0.4,0.3,0.8,0.4,1.2c0.2,0.5,0.4,1.1,0.6,1.6c0.2,0.5,0.4,1.1,0.6,1.6
	c0,0,0,0,0,0c0.2,0.5,0.4,1,0.7,1.5c0.1,0.1,0.1,0.2,0.2,0.3c0.2,0.3,0.3,0.7,0.5,1.1c0.1,0.2,0.1,0.3,0.2,0.5
	c0.1,0.2,0.2,0.5,0.4,0.7c0.1,0.2,0.3,0.5,0.4,0.7c-8.4,5.5-27.5,19.2-25.1,28.6c0,0,1.6,1,3.8,0.5c-2.8,8.6-2.8,23.9,25.2,35.5
	c41,17,195,38,227-26c0,0,3.7-8.7-1.5-16.8c1.4-3.6-0.6-15.6-8.8-21.6c9.4,3.1,18.9,6.5,28.5,10.2c8.5,17.8,26.8,30.2,47.8,30.2
	c4.1,0,8-0.5,11.8-1.3C519.1,590.3,544,631,533.5,641.5z"/>
<path fill="#FFFFFF" stroke="#000000" stroke-miterlimit="10" d="M813.5,724.6c-5.6,3.5-11.7,6.5-18,8.8c-0.4,0.2-0.8,0.3-1.3,0.4
	c-5.4,1.8-11,3.1-16.8,3.9v40.8c9.2-16.3,23.2-32.6,44.5-40.8C818.7,732.1,815.8,727.7,813.5,724.6z M840,782.3
	c-9.3,19.2-27.4,37.4-62.5,40.7v86.5c-3.2,4.3-6.5,5.9-9.6,6c-1,12-11.1,21.5-23.4,21.5c-13,0-23.5-10.5-23.5-23.5
	c0-8.9,4.9-16.6,12.2-20.6c3.4-1.9,7.2-2.9,11.3-2.9c2.8,0,5.5,0.5,8,1.4v-88.1c-77.1,8.4-99-65.8-99-65.8c2.4-0.8,4.8-1.4,7.1-2
	c56.8-14.3,82.8,22.5,91.9,40.6v-38.6c-43.5-6.3-77-43.8-77-89.1c0-6.2,0.6-12.3,1.8-18.1c-34.1-0.4-70.4,2.3-108.7,9.2
	c-10.4,17.7-18.7,42.3-11.6,71.3c-14.9,6.5-29.5-1.3-36.4-6.1c1.3-20-10.3-35.4-21.5-45.5c-8.9,2.8-18.8,6-29.5,9.8c0,0,0,0,0,0
	c-5.7,3.8-12.3,6.3-19.5,7.2c-1.4,0.5-2.8,1-4.1,1.6c-1.4,0.5-2.7,1.1-4.1,1.6c-2.6,1-5.3,2.1-8,3.2c-0.6,0.2-1.2,0.5-1.8,0.7
	c-9.1,3.7-18.6,7.8-28.4,12.2c-1.6,0.7-3.2,1.4-4.8,2.2c-1.1,0.5-2.2,1-3.2,1.5c-1.3,0.6-2.7,1.3-4,1.9c-4.1,1.9-8.2,3.9-12.3,5.9
	c-1,0.5-2.1,1-3.2,1.6c-1.5,0.8-3,1.5-4.6,2.3c-1.5,0.8-3.1,1.5-4.6,2.3c-9.3,4.7-18.7,9.7-28.3,15c-0.7,0.4-1.4,0.8-2.1,1.1h0
	c-1.7,1-3.4,1.9-5.1,2.9c-1.5,0.9-3.1,1.8-4.6,2.7c-1.1,0.6-2.2,1.3-3.3,1.9c-0.8,0.4-1.5,0.9-2.3,1.3c-1.7,1-3.4,2-5.1,3.1
	c-6.9,4.1-13.8,8.4-20.8,12.8c0,2.1-0.3,4.1-0.9,6l0.6,0.9c7.5,10.8,10.5,24.4,7.6,37.2c-4.1,18.5-19.5,34.8-51.4,33.8
	c-21.7,19.2-3.8,33.7,9,56.6c14,25,81,32,81,32s-20.2-0.4-39.4-2.4c1.3,1.6,2.3,3.5,3.1,5.4c1.2,2.8,1.8,5.8,1.8,9
	c0,0.5,0,0.9,0,1.3c-0.7,12.4-10.9,22.2-23.5,22.2c-13,0-23.5-10.5-23.5-23.5c0-8.9,4.9-16.6,12.2-20.6c-0.3-0.1-0.5-0.3-0.7-0.4
	c-14-8-43-5-93,9c-17.8,5-29,5.8-36,4.8c-0.9,16.3-14.4,29.3-31,29.3c-17.1,0-31-13.9-31-31s13.9-31,31-31c12.9,0,24,7.9,28.7,19.1
	c17.3-7.3,52.1-23.7,57.3-40.1c3.7-11.8-11.3-20.9-26.2-26.9C95.6,892.5,37.2,892,0.5,882.3v118.2l791.7,0.8
	C852.8,905.5,852.7,830.7,840,782.3z M439,706.5c0-8.9,4.9-16.6,12.2-20.6c3.4-1.9,7.2-2.9,11.3-2.9c7.5,0,14.3,3.6,18.6,9.1
	c1.3,1.6,2.3,3.5,3.1,5.4c1.2,2.8,1.8,5.8,1.8,9c0,0.5,0,0.9,0,1.3c-0.7,12.4-10.9,22.2-23.5,22.2C449.5,730,439,719.5,439,706.5z
	 M591.9,840.3C590,875.2,561,903,525.5,903c-36.7,0-66.5-29.8-66.5-66.5c0-25.2,14-47.1,34.6-58.3c9.5-5.2,20.3-8.2,31.9-8.2
	c21.4,0,40.4,10.1,52.5,25.8c3.6,4.6,6.6,9.8,8.9,15.3c3.3,7.8,5,16.4,5,25.4C592,837.8,591.9,839,591.9,840.3z M641,664.8
	c-0.7,12.4-10.9,22.2-23.5,22.2c-13,0-23.5-10.5-23.5-23.5c0-8.9,4.9-16.6,12.2-20.6c3.4-1.9,7.2-2.9,11.3-2.9
	c7.5,0,14.3,3.6,18.6,9.1c1.3,1.6,2.3,3.5,3.1,5.4c1.2,2.8,1.8,5.8,1.8,9C641,664,641,664.4,641,664.8z M854.4,662.3
	c-2,13-6.8,25.1-13.8,35.6c19.8,14.5,70.6,59.9,96.8,157.5c2.3,8.7,4.2,16.9,5.7,24.8c8.3-3.7,17.3-2.8,17.3-2.8s13,4,15,29
	c1.2,14.3-14.1,20.8-27.4,18.2c0.8,35.5-6.9,60.5-14.9,76.7l66.3,0.1v-259C999.5,742.5,946.8,695.5,854.4,662.3z"/>
<path fill="#FFFFFF" stroke="#000000" stroke-miterlimit="10" d="M933.2,1001.4l-141.1-0.1c60.6-95.8,60.6-170.6,47.9-219
	c11.7-24.1,9.5-49.8,9.5-49.8c-10.3,0.3-19.4,2.2-27.5,5.3c-3.3-5.7-6.2-10.1-8.5-13.2c10.8-6.9,20.1-16,27.2-26.7
	c19.8,14.5,70.6,59.9,96.8,157.5c2.3,8.7,4.2,16.9,5.7,24.8c-7.1,3.2-13.7,9.8-13.7,23.2c0,12.4,8.8,19.3,18.6,21.2
	C948.9,960.2,941.2,985.2,933.2,1001.4z"/>
<path fill="#FFFFFF" stroke="#000000" stroke-miterlimit="10" d="M573.7,603.7c-4.2,5.8-7.8,11.1-10.9,15.9
	c-15.4,3.5-26.1-17.9-32.2-35.5c-0.5-1.5-1-3-1.4-4.4C540.2,585.1,562.7,596.2,573.7,603.7z"/>
<path fill="#FFFFFF" stroke="#000000" stroke-miterlimit="10" d="M265.3,696.7c-0.4,2.5-0.8,3.8-0.8,3.8c-0.9-0.4-1.7-0.8-2.6-1.2
	s-1.7-0.8-2.6-1.1c-0.6-0.3-1.1-0.5-1.7-0.7c0.8-1.3,1.6-2.5,2.2-3.7c6.3-11.7,4.7-21.2,0.8-28.3c0,0,0,0,0,0
	c-1-1.9-2.2-3.5-3.4-5.1c-0.1-0.1-0.1-0.2-0.2-0.2c-1.4-1.7-3-3.2-4.7-4.5c-1.5-1.1-3.1-2.1-4.7-2.9c-1.9-0.9-3.9-1.7-6-2.1
	c-2.5-0.6-5.2-0.8-7.8-0.6c-1.4,0.1-2.8,0.3-4.2,0.6c-10,2.4-14.8,9.5-17,16.9c-0.8,2.6-1.2,5.2-1.4,7.6c-0.1,1.5-0.2,2.9-0.2,4.3
	c0,1.3,0,2.6,0.1,3.7c-1.3-0.2-2.5-0.5-3.7-0.7c-0.3,0-0.6-0.1-0.9-0.1c-1-0.2-2.1-0.3-3.1-0.5c-0.4-0.1-0.9-0.1-1.3-0.2
	c-0.9-0.1-1.8-0.2-2.6-0.3c-0.6-0.1-1.1-0.1-1.7-0.2c-2.5-0.3-5-0.4-7.3-0.5c-0.4,0-0.9,0-1.3-0.1c-1,0-2-0.1-3-0.1
	c-0.3,0-0.5,0-0.8,0c-37-0.4-53.7,15-53.7,15c-2.9-11.8,4-23.5,14.9-34.4c2.9-2.9,6-5.7,9.4-8.4c1.8-1.5,3.7-3,5.6-4.4
	c2.3-1.8,4.8-3.5,7.2-5.2c0.4-0.3,0.8-0.5,1.2-0.8c3.4-2.4,6.8-4.7,10.2-6.8c1.3-0.8,2.5-1.6,3.7-2.4c1.3-0.8,2.6-1.7,3.9-2.5
	c5.4-3.4,8-6.6,8.8-9.6c3.2-12.1-23.8-20.4-23.8-20.4c46.7,5.7,70.7,23.3,82.6,42.1C268.9,664.3,266.8,687.7,265.3,696.7z"/>
<path fill="#FFFFFF" stroke="#000000" stroke-miterlimit="10" d="M403.8,695.5c-1.6,0.7-3.2,1.4-4.8,2.2c-1.1,0.5-2.2,1-3.2,1.5
	c-1.3,0.6-2.7,1.2-4,1.9c-4.1,1.9-8.2,3.9-12.3,5.9c-1,0.5-2.1,1-3.2,1.6c-1.5,0.8-3,1.5-4.6,2.3c-1.5,0.8-3.1,1.5-4.6,2.3
	c-9.3,4.7-18.7,9.7-28.3,15c-0.7,0.4-1.4,0.8-2.1,1.1h0c-21.8-7.8-47.6-20.1-71.5-32.6c1.5-9,3.6-32.4-10.2-54.1
	C297.3,660.8,364.3,687.9,403.8,695.5z"/>
<path fill="#FFFFFF" stroke="#000000" stroke-miterlimit="10" d="M195.6,523.1c8.1-2.6,13.9-3.6,13.9-3.6"/>
<path fill="#FFFFFF" stroke="#000000" stroke-miterlimit="10" d="M948.1,924.7c-9.9-1.9-18.6-8.8-18.6-21.2c0-13.4,6.6-20,13.7-23.2
	c8.3-3.7,17.3-2.8,17.3-2.8s13,4,15,29C976.7,920.8,961.4,927.3,948.1,924.7z"/>
</svg>
