<?xml version="1.0" encoding="utf-8"?>
<!-- Generator: Adobe Illustrator 25.2.0, SVG Export Plug-In . SVG Version: 6.00 Build 0)  -->
<svg version="1.1" baseProfile="tiny" id="Layer_1" xmlns="http://www.w3.org/2000/svg" xmlns:xlink="http://www.w3.org/1999/xlink"
	 x="0px" y="0px" viewBox="0 0 1000 1000" overflow="visible" xml:space="preserve">
<path fill="#FFFFFF" stroke="#000000" stroke-miterlimit="10" d="M484.44,123.32l-7.81,9.71l2.97,15.09l-2.43-0.67l-4.04-14.42
	l-11.86-4.32c0,0-11.07-16.33-31.89-23.07c21.97-9.27,44.7-3.48,44.7-3.48l9.7-6.56c0,0,1.34,3.46,2.83,10.06
	c0.5,2.22,2.18,7.14,4.18,12.78l-14.29-13.04L484.44,123.32z"/>
<path fill="#FFFFFF" stroke="#000000" stroke-miterlimit="10" d="M493.75,146.1l-6.93,7.14c-0.14,0.14-0.28,0.27-0.41,0.39
	c-0.09,0.09-0.16,0.16-0.23,0.23c-0.16,0.15-0.29,0.29-0.42,0.43c-0.06,0.06-0.12,0.13-0.17,0.18l-0.32,0.33
	c-0.11,0.12-0.16,0.18-0.16,0.18l-6.73-2.96l-6.87,4.44l-14.16-6.33l-9.57-7.15l22.66,9.71l2.83-2.56c0,0,0.27-4.59-2.03-7.42
	c-2.28-2.83-12.94-3.11-17.79-5.12c-5.85-7.6-22.54-18.65-26.87-21.45c-0.23-2.92-1.39-5.53-2.89-7.75c1.88-1.06,3.79-1.97,5.7-2.77
	c20.82,6.75,31.89,23.07,31.89,23.07l11.86,4.32l4.04,14.42l2.43,0.67l-2.97-15.09l7.81-9.71l-7.95-17.93l14.29,13.04
	c0.42,1.18,0.85,2.41,1.3,3.65c0.14,4.46,0.42,13.31,0.32,13.91c-0.14,0.81-8.63,4.32-8.63,4.32l2.16,12.26L493.75,146.1z"/>
<path fill="#FFFFFF" stroke="#000000" stroke-miterlimit="10" d="M497.39,149.34c0-0.41,1.89-2.16,2.29-4.31
	c0.25-1.28-3.9-12.58-7.6-22.95c0.14,4.46,0.42,13.31,0.32,13.91c-0.14,0.81-8.63,4.32-8.63,4.32l2.16,12.26l7.82-6.47l-6.93,7.14
	c1.29-1.23,3.07-2.73,4.49-3.15c2.53-0.74,4.73-0.22,4.73-0.22s-1.82,5.4-4.32,5.76c-2.49,0.36-6.61-0.64-6.61-0.64l-6.73-2.96
	l-6.87,4.44l-14.16-6.33l-9.57-7.15l22.66,9.71l2.83-2.56c0,0,0.27-4.59-2.03-7.42c-2.28-2.83-12.94-3.11-17.79-5.12
	c-5.85-7.6-22.54-18.65-26.87-21.45c0.03,0.35,0.04,0.73,0.04,1.1c0,10.37,3.78,18.06,3.78,18.06l17.39,14.83l-7.19,0.72
	l-0.76,17.08c0,0-4.86-2.02-16.31-9.03c-11.46-7.01-14.96-26.83-14.96-26.83v-9.43l8.22-6.87l-3.77-7.15l2.28-5.25
	c-0.97-0.96-1.9-1.82-2.73-2.56c-0.45-0.17-0.64-0.19-0.64-0.19s-10.11,13.13-6.87,30.12c3.23,16.98,7.42,23.59,7.42,23.59
	s0.59,2.98,1.95,7.33l25.28,14.11l1.88-4.18l7.83,6.28l5.93-5.23l8.68-7.64l1.7-1.48l2.16-1.9c0,0,9.56,9.85,10.64,9.71
	c1.09-0.14,4.99-0.14,5.4-0.14c0.41,0,6.06-7.14,6.06-7.14l4.49,4.43l3.48-6.18l0.06-0.12v-0.01c-0.18-4.85-0.48-8.37-0.48-8.37
	S497.39,149.74,497.39,149.34z M456.98,159.58c-7.25-0.94-11.84-6.14-11.84-6.14s4.04-2.49,10.38-1.81
	c6.33,0.67,13.68,5.66,13.68,5.66S464.23,160.52,456.98,159.58z"/>
<path fill="#FFFFFF" stroke="#000000" stroke-miterlimit="10" d="M447.77,150.15l-7.19,0.72l-2.24,0.22l-13.07-13.34
	c0,0,0.14-15.51-2.16-23.19c-1.16-3.91-4.66-8.05-7.82-11.18c-0.97-0.96-1.9-1.82-2.73-2.56c1.25,0.47,4.49,2.1,10.96,7.68
	c0.05-0.03,0.11-0.06,0.16-0.09c1.5,2.22,2.66,4.82,2.89,7.75c0.03,0.35,0.04,0.73,0.04,1.1c0,10.37,3.78,18.06,3.78,18.06
	L447.77,150.15z"/>
<path fill="#FFFFFF" stroke="#000000" stroke-miterlimit="10" d="M440.57,150.86l-0.76,17.08c0,0-4.86-2.02-16.31-9.03
	c-11.46-7.01-14.96-26.83-14.96-26.83v-9.43l8.22-6.87l-3.77-7.15l2.28-5.25c3.16,3.14,6.66,7.28,7.82,11.18
	c2.29,7.68,2.16,23.19,2.16,23.19l13.07,13.34L440.57,150.86z"/>
<path fill="#FFFFFF" stroke="#000000" stroke-miterlimit="10" d="M461.26,187.35c0,0-8.74,9.48-8.69,17.76
	c-8.47-4.23-17.09-9.72-21.52-15.2c-0.16-0.13-0.31-0.26-0.46-0.41c-0.01,0-0.01-0.01-0.01-0.01c-8.71-7.55-13.71-19.96-16.18-27.84
	l25.28,14.11l1.88-4.18l7.83,6.28L461.26,187.35z"/>
<path fill="#FFFFFF" stroke="#000000" stroke-miterlimit="10" d="M497.52,180.07c-0.21,1.71-0.55,3.58-0.97,5.51
	c-0.11,0.48-0.21,0.96-0.32,1.45c-0.78,3.36-1.79,6.86-2.84,10.06l-2.08-4.35l1.48-16.65l2.73-6.57l2.5-4.34l0.05-0.1
	C498.19,169.89,498.11,175.45,497.52,180.07z"/>
<path fill="#FFFFFF" stroke="#000000" stroke-miterlimit="10" d="M469.21,157.29c0,0-4.98,3.23-12.23,2.29s-11.84-6.14-11.84-6.14
	s4.04-2.49,10.38-1.81C461.86,152.3,469.21,157.29,469.21,157.29z"/>
<path fill="#FFFFFF" stroke="#000000" stroke-miterlimit="10" d="M496.04,149.87c0,0-1.82,5.4-4.32,5.76
	c-2.49,0.36-6.61-0.64-6.61-0.64s0.05-0.06,0.16-0.18l0.32-0.33c0.05-0.05,0.11-0.12,0.17-0.18l0.42-0.43
	c0.07-0.07,0.15-0.15,0.23-0.23c0.13-0.13,0.27-0.26,0.41-0.39c1.29-1.23,3.07-2.73,4.49-3.15
	C493.84,149.36,496.04,149.87,496.04,149.87z"/>
<path fill="#FFFFFF" stroke="#000000" stroke-miterlimit="10" d="M460.33,239.62c-4.83,3.32-8.79,5.94-10.91,7.33
	c-0.43-1.46-1.13-1.27-2,0.03c-5.09-5.39-7.26-12.12-8.02-18.35c-0.02-0.15-0.03-0.31-0.05-0.46c-0.25-2.32-0.3-4.54-0.25-6.6
	c0.03-1.46,0.13-2.84,0.26-4.09c0.19-1.86,0.44-3.44,0.66-4.66C444.62,221.24,451.14,230.72,460.33,239.62z"/>
<path fill="#FFFFFF" stroke="#000000" stroke-miterlimit="10" d="M439.37,217.49c-0.13,1.25-0.22,2.63-0.26,4.09
	c-0.5,0.33-1.11,0.76-1.76,1.29c-0.15-0.79-0.35-1.54-0.62-2.08c0,0-7.8,3.43-11.33,9.9c0.23-0.68,0.51-1.33,0.8-1.95
	C429.74,221.21,436.56,218.37,439.37,217.49z"/>
<path fill="#FFFFFF" stroke="#000000" stroke-miterlimit="10" d="M469.35,376.09c0,0-3.38-2.77-7.12-6.93
	c-1.84-2.04-3.77-4.41-5.41-6.95c-0.06-0.1-0.13-0.19-0.19-0.29c-0.27-0.41-0.52-0.82-0.77-1.24c2.1-2.96,6.51-4.29,8.09-4.67
	l2.31,8.57L469.35,376.09z"/>
<path fill="#FFFFFF" stroke="#000000" stroke-miterlimit="10" d="M431.42,237.64c0,0-1.77-2.8-2.93-1.74
	c-1.16,1.06-6.17,9.71-6.04,13.85c-0.16-1.21-0.23-2.36-0.25-3.47c-0.05-5.49,1.45-9.99,2.89-14.69c0.1-0.31,0.19-0.61,0.31-0.91
	c1.4-0.57,4.6-1.56,7.39-2.4C431.48,230.77,430.72,233.89,431.42,237.64z"/>
<path fill="#FFFFFF" stroke="#000000" stroke-miterlimit="10" d="M426.2,228.74c-0.29,0.62-0.57,1.27-0.8,1.95
	c-0.12,0.3-0.21,0.6-0.31,0.91c-1.44,4.7-2.95,9.2-2.89,14.69c-0.5,0.39-31.39,25.12-35.58,66.96c-0.72,0.37-1.43,0.69-2.15,0.96
	c-0.74-1.63-1.39-3.27-1.94-4.85c-4.65-13.35,12.34-45.9,15.37-48.13c2.12-1.55,6.63-12.24,8.72-18.69c0.15-0.05,0.3-0.12,0.45-0.18
	C415.56,238.85,426.2,228.74,426.2,228.74z"/>
<path fill="#FFFFFF" stroke="#000000" stroke-miterlimit="10" d="M427.74,326.86c-1.92,2.18-4.22,4.37-6.87,6.2
	c-9.85-12.15-18.36-25.37-18.68-25.87c1.73-3.59,3.51-7,5.3-10.21C409.25,300.41,417.04,314.93,427.74,326.86z"/>
<path fill="#FFFFFF" stroke="#000000" stroke-miterlimit="10" d="M406.61,242.54c-2.09,6.45-6.6,17.14-8.72,18.69
	c-3.03,2.23-20.02,34.78-15.37,48.13c0.55,1.58,1.21,3.21,1.94,4.85c-4.66,1.81-9.2,1.69-12.35,1.17
	c-2.38-5.25-8.26-21.99-7.79-25.84c0.53-4.45,16.84-31.14,22.91-37.08C393.2,246.64,398.39,245.88,406.61,242.54z"/>
<path fill="#FFFFFF" stroke="#000000" stroke-miterlimit="10" d="M399.69,367.97c-2.39,1.79-4.82,3.54-6.49,4.75
	c-0.11,3.16-0.73,7.31-2.58,12.07c-1.77,4.55-6.51,10.03-11.44,14.89c0.13-7.68-2.28-18.35-7.03-33.49
	c-0.5-1.61-1.13-3.04-1.88-4.32l0.32-1.27h-1.11c-6.21-9.08-18.02-9.14-23.67-8.56l-0.6-0.35c5.62-4.08,9.96-5.38,9.96-5.38
	s11.45-11.46,12.81-12.81c0.23-0.85,1.52-4.04,2.73-7.42l7.17,1.89l5.26,27.84L399.69,367.97z"/>
<path fill="#FFFFFF" stroke="#000000" stroke-miterlimit="10" d="M403.12,365.34v0.01c-1.08,0.83-2.25,1.73-3.44,2.61l-16.55-12.16
	l-5.26-27.84l-7.17-1.89c1.5-4.12,2.92-8.5,2.25-9.17c-0.16-0.16-0.45-0.7-0.83-1.53c3.15,0.51,7.68,0.64,12.35-1.17
	c0.55,1.26,1.15,2.53,1.78,3.79c0.57,1.12,1.15,2.24,1.75,3.34c1.31,2.42,2.68,4.77,4,6.92c0.3,0.49,0.6,0.97,0.91,1.45
	c0,0,0,0,0,0.01c2.47,3.96,4.64,7.11,5.71,8.61c0.44,0.62,0.68,0.96,0.68,0.96S399.69,353.28,403.12,365.34z"/>
<path fill="#FFFFFF" stroke="#000000" stroke-miterlimit="10" d="M379.17,399.67c-6.94,6.82-14.25,12.41-14.25,12.41l-11.96,11.25
	c-0.25-0.33-0.5-0.7-0.77-1.14c-2.89-4.63-8.68-11.01-14.03-11.02l0.01-0.03c0,0-7.68-12.4-12.67-11.86
	c-3.12,0.33-5.23,3.39-6.54,6.79c0.78-6.35,2.22-14.83,4.9-23.18c0.63,1.33,1.5,2.59,2.66,3.72c2.49-11.12,4.38-18.87,4.56-19.65
	l0.01-0.01c2.01-3.22,4.15-5.96,6.31-8.29c-0.15,4.61,0.74,11.16,4.01,20.27c2.29-11.33,9.03-24.14,9.03-24.14l-4.63-2.75
	c5.66-0.58,17.46-0.52,23.67,8.56h-7.44l-9.84,19.54c6.73,0.14,15.9-9.78,15.9-9.78l2.17-8.5c0.75,1.28,1.38,2.71,1.88,4.32
	C376.89,381.33,379.3,391.99,379.17,399.67z"/>
<path fill="#FFFFFF" stroke="#000000" stroke-miterlimit="10" d="M420.86,333.06c-0.02,0.01-0.03,0.02-0.05,0.03
	c-2.99,2.05-6.71,3.32-10.4,4.08c-4.42,0.93-8.78,1.15-11.79,1.16c-1.07-1.5-3.24-4.65-5.71-8.61c0-0.01,0-0.01,0-0.01
	c2.72-8.07,5.91-15.61,9.27-22.52C402.51,307.69,411.01,320.91,420.86,333.06z"/>
<path fill="#FFFFFF" stroke="#000000" stroke-miterlimit="10" d="M479.11,387.24c-4.6,7.67-20.51,28.49-20.96,28.49
	c-0.39-0.14-49.49-58.06-51.03-59.87c0.97,1.57,27.6,44.44,45.32,64.77c-9.97-4.83-27.47-19.65-31.84-23.41
	c-0.11-1.26-0.17-1.95-0.27-1.92c-0.61,0.2-7.08-8.5-13.75-21.03c-1.41-2.64-2.54-5.71-3.47-8.92v-0.01
	c-3.44-12.06-3.82-26.05-3.82-26.05s-0.25-0.34-0.68-0.96c3.01-0.01,7.37-0.23,11.79-1.16c6.87,7.16,27.78,28.57,33.71,30.03
	c4.43-2.05,8.45-5.49,10.93-7.88c0.27,0.46,0.54,0.93,0.8,1.37c0.25,0.42,0.5,0.83,0.77,1.24c0.06,0.1,0.13,0.19,0.19,0.29
	c1.64,2.54,3.58,4.91,5.41,6.95c-0.94,0.59-10.51,6.54-11.76,6.93c-1.31,0.41-4.04,10.92-4.45,13.24c-0.41,2.33,3.03,9.4,3.03,9.4
	s0.06-0.04,0.18-0.13c0.14,1.24,1.3,6.39,11.05,6.3c-2.89-2.21-4.87-5.6-5.91-7.75c1.54-1.62,4.19-11.15,4.19-11.15
	c6.06,0,9.1-2.73,9.1-2.73S470.94,387.93,479.11,387.24z"/>
<path fill="#FFFFFF" stroke="#000000" stroke-miterlimit="10" d="M496.71,395.11c-0.63,1.85-1.72,4.29-3.51,6.33
	c-2.36-5.25-1.28-8.9-0.52-10.48C493.44,390.97,496.94,391.25,496.71,395.11z"/>
<path fill="#FFFFFF" stroke="#000000" stroke-miterlimit="10" d="M506.65,410.16c-2.87,11.05-10.76,39.95-17.71,52.57
	c-0.9-0.02-1.81-0.05-2.75-0.09c-18.55-0.68-41.76-14.08-48.9-18.6c-0.05-1.11-0.01-2.2,0.23-3.24
	c-14.61-14.61-16.37-36.94-16.92-43.58c4.37,3.76,21.87,18.57,31.84,23.41c3.21,3.68,6.13,6.62,8.54,8.44
	c12.43-13.17,23.18-28.92,28.54-37.22c0.28,2.34,1.63,6.32,1.79,6.76c0.2,0.53,1.01,3.47,1.83,4.08c0.57,0.43,3.79,3.11,5.68,4.7
	c-0.42,2.1,0.11,3.95,2.41,4.8C502.58,412.27,504.49,411.48,506.65,410.16z"/>
<path fill="#FFFFFF" stroke="#000000" stroke-miterlimit="10" d="M511.3,462.41l-5.09,9.45l-0.31,0.55
	c-5.09-0.28-11.56-0.76-18.95-1.63c-4.04-0.48-8.36-1.07-12.88-1.8c-20.13-3.27-32.36-10.65-36.32-13.37
	c1.57-2.92-0.23-7.33-0.46-11.56c7.14,4.53,30.35,17.92,48.9,18.6c0.94,0.03,1.86,0.06,2.75,0.09c4.09,0.12,7.77,0.14,11.06,0.1
	C504.55,462.77,508.31,462.6,511.3,462.41z"/>
<path fill="#FFFFFF" stroke="#000000" stroke-miterlimit="10" d="M555.6,551.66c-5.7,9.1-10.85,16.47-14,17.61
	c-7.47,2.71-29.93-13.71-36.96-19.07c0-0.01-0.01-0.01-0.01-0.01c-1.41-3.48-3.45-6.17-5.53-8.13c-1.64,0.91-3.59,2-5.72,3.2
	c0,0,0,0-0.01,0c-22.22-12.7-77.43-13.18-85.78-17.07c-6.59-3.07-9.93-28.45-10.77-42.95c21.22-15.64,39.22-27.08,40.69-29.29
	c0.07-0.12,0.15-0.25,0.22-0.36c3.96,2.72,16.19,10.11,36.32,13.37c4.53,0.74,8.84,1.32,12.88,1.8
	c7.93,10.06,24.57,29.73,38.75,37.02C539.49,521.17,551.4,543.33,555.6,551.66z"/>
<path fill="#FFFFFF" stroke="#000000" stroke-miterlimit="10" d="M486.58,549.25c-4.12,2.48-8.38,5.2-12.04,7.86
	c-56.36-15.48-110.39-19.22-135.5-19.31c4.42-5.98,9.69-12.11,15.98-18.13c11.51-11.04,24.86-21.75,37.42-31.15
	c-0.07,11.83,0.18,39.8,4.16,43.82C401.18,536.98,463.24,540.88,486.58,549.25z"/>
<path fill="#FFFFFF" stroke="#000000" stroke-miterlimit="10" d="M493.37,545.26c-2.13,1.22-4.43,2.56-6.78,3.99
	c-0.01,0-0.01,0-0.01,0c-23.34-8.37-85.4-12.27-89.98-16.92c-3.98-4.02-4.24-32-4.16-43.82c1.47-1.11,2.93-2.2,4.39-3.27
	c0.84,14.49,4.18,39.87,10.77,42.95C415.94,532.08,471.15,532.56,493.37,545.26z"/>
<path fill="#FFFFFF" stroke="#000000" stroke-miterlimit="10" d="M474.55,557.11c-3.27,2.38-6.06,4.71-7.9,6.78
	c-0.88,0.99-2.12,2.24-3.68,3.7c-15.1-4.61-31.72-7.89-47.98-10.2c-6.76-0.97-13.46-1.77-19.96-2.43
	c-9.02-0.92-17.67-1.58-25.58-2.04c-19.3-1.12-34.23-1.1-39.56-0.97c2.54-4.51,5.57-9.27,9.17-14.14
	C364.16,537.89,418.18,541.63,474.55,557.11z"/>
<path fill="#FFFFFF" stroke="#000000" stroke-miterlimit="10" d="M431.81,593.03c-4.14,3.16-8.44,6.35-12.76,9.5
	c-8.32-16.22-18.84-37.2-24.02-47.58c6.5,0.66,13.2,1.46,19.96,2.43L431.81,593.03z"/>
<path fill="#FFFFFF" stroke="#000000" stroke-miterlimit="10" d="M407.46,610.76c-4.79,3.33-9.49,6.47-13.9,9.3
	c-12.53-26.36-30.36-44.21-40.63-53.06h26.28C387.53,579.17,398.46,595.61,407.46,610.76z"/>
<path fill="#FFFFFF" stroke="#000000" stroke-miterlimit="10" d="M393.56,620.05c-0.82,0.52-1.62,1.02-2.41,1.53
	c-9.35,5.87-16,11.58-20.67,16.56c-23.43-34.32-45.66-45.68-45.66-45.68l-13.67,4.17c3.36-6.8,5.86-11.45,5.86-11.45
	s1.14-7.28,5.58-18.2h30.34C363.2,575.85,381.03,593.69,393.56,620.05z"/>
<path fill="#FFFFFF" stroke="#000000" stroke-miterlimit="10" d="M419.05,602.53c-3.87,2.81-7.77,5.58-11.59,8.23
	c-9-15.14-19.93-31.59-28.25-43.77h-56.62c1.82-4.48,4.19-9.58,7.29-15.05c5.34-0.13,20.27-0.15,39.56,0.97
	c7.91,0.46,16.56,1.12,25.58,2.04C400.21,565.32,410.72,586.31,419.05,602.53z"/>
<path fill="#FFFFFF" stroke="#000000" stroke-miterlimit="10" d="M370.48,638.14c-9.11,9.68-10.88,16.61-10.88,16.61
	c-1.21-0.36-2.38-0.77-3.54-1.22c-4.16-1.59-8.05-3.7-11.65-6.13c-17.94-12.02-28.61-31.48-28.61-31.48s-7.02,0-13.56,0
	c2.97-6.96,6.23-13.81,8.92-19.29l13.67-4.17C324.82,592.47,347.05,603.82,370.48,638.14z"/>
<path fill="#FFFFFF" stroke="#000000" stroke-miterlimit="10" d="M344.4,647.41c-10.09,8.23-16.62,29.18-16.62,29.18
	s-10-1.55-16.46-2.36c-7-12.59-15.38-17.6-17.51-27.83c-1.18-5.7,3.16-18.22,8.41-30.47c6.54,0,13.56,0,13.56,0
	S326.46,635.39,344.4,647.41z"/>
<path fill="#FFFFFF" stroke="#000000" stroke-miterlimit="10" d="M356.06,653.53c0,0-16.4,25.48-21.67,35.59
	c-2.6-2.34-12.22-4.34-18.75-5.48c-1.32-3.59-2.79-6.69-4.31-9.42c6.46,0.81,16.46,2.36,16.46,2.36s6.53-20.95,16.62-29.18
	C348.01,649.83,351.9,651.94,356.06,653.53z"/>
<path fill="#FFFFFF" stroke="#000000" stroke-miterlimit="10" d="M363.2,657.81c-7.17,6.93-11.4,24.05-18.28,41.42
	c-16.99-7.28-27.42-10.11-27.42-10.11c-0.34-1.01-0.68-2.05-1.04-3.11c-0.27-0.81-0.54-1.6-0.82-2.37
	c6.53,1.13,16.15,3.14,18.75,5.48c5.26-10.12,21.67-35.59,21.67-35.59c1.16,0.45,2.34,0.85,3.54,1.22
	C359.6,654.75,360.96,655.85,363.2,657.81z"/>
<path fill="#FFFFFF" stroke="#000000" stroke-miterlimit="10" d="M373.63,667.52c-2.92,16.2-21.07,42.03-28.71,46.68
	c-5.37,3.28-15.28-3.54-21.6-8.75c-1.91-4.92-3.8-10.28-5.82-16.32c0,0,10.43,2.83,27.42,10.11c6.88-17.38,11.11-34.49,18.28-41.42
	C365.76,660.06,369.47,663.41,373.63,667.52z"/>
<path fill="#FFFFFF" stroke="#000000" stroke-miterlimit="10" d="M380.57,674.7c-4.46,14.96-15.12,30.64-23.9,40.39
	c-4.5,4.99-8.51,8.43-10.92,9.43c-4.96,2.05-13.15-4.5-18.47-9.57v-0.01c-1.36-3.01-2.67-6.14-3.97-9.49
	c6.32,5.21,16.23,12.03,21.6,8.75c7.64-4.65,25.79-30.48,28.71-46.68C375.85,669.71,378.2,672.13,380.57,674.7z"/>
<path fill="#FFFFFF" stroke="#000000" stroke-miterlimit="10" d="M403.02,758.29c0,1.31,0.1,2.73,0.28,4.23
	c-17.31-8.52-39.34-37.43-46.62-47.43c8.77-9.74,19.43-25.42,23.9-40.39c7.64,8.29,15.46,18.19,19.74,27.77
	C410.56,725.39,403.02,740.76,403.02,758.29z"/>
<path fill="#FFFFFF" stroke="#000000" stroke-miterlimit="10" d="M420.54,812.48c-0.27,1.08-14.56,11.86-33.44,2.42
	c-4.55-2.27-8.3-3.59-11.4-4.29c-1.61-0.37-3.04-0.57-4.3-0.65c-6.39-0.41-8.56,2.22-8.56,1.71c0-0.81,7.28-5.93,5.66-22.11
	c-1.61-16.17-19.41-39.09-29.39-53.65c-4.74-6.93-8.45-13.54-11.83-20.96c5.33,5.07,13.51,11.62,18.47,9.57
	c2.41-1,6.41-4.44,10.92-9.43c7.28,10,29.31,38.91,46.62,47.43c2.05,16.5,14.42,42.65,16.84,48.71
	C420.42,811.94,420.56,812.38,420.54,812.48z"/>
<path fill="#FFFFFF" stroke="#000000" stroke-miterlimit="10" d="M462.97,567.59c-6.38,5.98-18.04,15.5-31.15,25.44l-16.83-35.65
	C431.25,559.7,447.86,562.98,462.97,567.59z"/>
<path fill="#FFFFFF" stroke="#000000" stroke-miterlimit="10" d="M428.26,266.05c-3.66,4.45-12.21,15.44-20.77,30.92
	c-1.79,3.21-3.58,6.63-5.3,10.21c-3.36,6.91-6.55,14.45-9.27,22.52c-0.31-0.48-0.61-0.96-0.91-1.45
	c6.29-25.28,27.03-60.35,32.73-69.71C425.62,260.86,426.77,263.34,428.26,266.05z"/>
<path fill="#FFFFFF" stroke="#000000" stroke-miterlimit="10" d="M424.74,258.54c-5.7,9.36-26.45,44.43-32.73,69.71
	c-1.32-2.15-2.69-4.49-4-6.92c3.53-34.57,35.35-67.02,35.35-67.02C423.71,255.66,424.17,257.07,424.74,258.54z"/>
<path fill="#FFFFFF" stroke="#000000" stroke-miterlimit="10" d="M525.68,384.8c-1.31-0.73-3.1-1.2-5.04-1.32
	c-3.14-0.2-13.24,12.34-16.52,15.26c-1.95,1.76-4.69,5.49-5.3,8.64c-1.89-1.59-5.11-4.27-5.68-4.7c-0.81-0.61-1.62-3.54-1.83-4.08
	c-0.16-0.44-1.52-4.42-1.79-6.76c-0.06-0.49-0.07-0.91-0.02-1.21c0.26-1.43-4.29-2.8-6.51-3.92c-0.9-4.18-0.34-10.1-0.14-11.91
	c0.02,0.01,0.05,0.04,0.07,0.06c0-0.21-0.01-0.43-0.01-0.62c-0.12-6.89,1.23-7.47,1.23-7.47s7.28-9,8.39-11.84
	c0.54-1.39,1.78-2.32,3.06-3.02l8.53,9.59l-10.98,13.35l-0.45,11.93v0.01l-0.16,4.13c0,0,0.05,0,0.15,0
	c-0.76,1.58-1.84,5.23,0.52,10.48c1.79-2.04,2.88-4.48,3.51-6.33c-0.01,0.34-0.06,0.72-0.14,1.11c-0.25,1.18,7.68-5.97,6.78-12.44
	c4.14-2.53,11.12-8.89,11.12-8.89l3.34-2.43c0,0,6.97,4.35,7.28,6.78C525.29,380.85,525.54,383.34,525.68,384.8z"/>
<path fill="#FFFFFF" stroke="#000000" stroke-miterlimit="10" d="M514.47,374.88c0,0-6.98,6.36-11.12,8.89
	c0.91,6.48-7.02,13.63-6.78,12.44c0.07-0.39,0.13-0.77,0.14-1.11c0.22-3.85-3.28-4.14-4.03-4.15c-0.1,0-0.15,0-0.15,0l0.16-4.13
	v-0.01l0.45-11.93l10.98-13.35c0,0,4.79-3.94,9.24-1.22c4.45,2.73,4.45,12.13,4.45,12.13L514.47,374.88z"/>
<path fill="#FFFFFF" stroke="#000000" stroke-miterlimit="10" d="M499,350.35c-0.68,0.42-2.07,0.88-3.4,1.59
	c-1.28,0.7-2.52,1.63-3.06,3.02c-1.11,2.84-8.39,11.84-8.39,11.84s-1.34,0.58-1.23,7.47c0,0-0.02,0.19-0.06,0.54
	c-2.19-2.22-8.31-1.05-8.31-1.05s-0.02-0.23-0.06-0.65c0-0.03,0-0.04,0-0.04c-0.22-2.32-0.91-9.97-0.64-13.46
	c0.05-0.68,0.3-1.54,0.69-2.49c1.97-4.86,7.49-12.31,7.49-12.31s3.1-8.5,6.34-9.04c3.23-0.53,9.43,4.99,9.43,4.99L499,350.35z"/>
<path fill="#FFFFFF" stroke="#000000" stroke-miterlimit="10" d="M570.17,373c-2.2,2.86-4.38,6.61-6.18,11.48
	c-4.49,1.94-10.54,4.22-15.38,5.56c-8.5,2.36-33.03,22.15-33.03,22.15c-0.22,5.08-11.63,39.19-15.58,50.63
	c-3.29,0.04-6.97,0.02-11.06-0.1c6.95-12.63,14.83-41.53,17.71-52.57c7.5-4.58,18.05-15.44,19.15-17.18c0.46-0.72,0.62-1.7,0.63-2.7
	c2.88-2.01,9.18-6.46,13.43-10c5.66-4.72,9.83-11.45,13.07-11.32c2.86,0.12,9.27,2.02,10.75,2.47c0.21,0.06,0.43,0.13,0.64,0.18
	C566.32,372.1,568.27,372.57,570.17,373z"/>
<path fill="#FFFFFF" stroke="#000000" stroke-miterlimit="10" d="M563.99,384.49c-0.88,2.38-1.66,5.03-2.32,7.97
	c-7.36,3.76-30.72,16.1-36.25,24.48c-0.73,4.76-5.82,25.18-8.14,34.4l-5.98,11.07c-2.99,0.19-6.76,0.36-11.3,0.42
	c3.95-11.44,15.36-45.55,15.58-50.63c0,0,24.54-19.79,33.03-22.15C553.45,388.7,559.5,386.43,563.99,384.49z"/>
<path fill="#FFFFFF" stroke="#000000" stroke-miterlimit="10" d="M561.68,392.46c-0.52,2.34-0.96,4.87-1.3,7.59
	c-12.05,5.22-28.41,19.25-29.02,19.99c-0.67,0.81-9.19,26.11-9.19,26.11c-2.55,2.42-4.29,4.1-4.29,4.1l-0.6,1.1
	c2.33-9.22,7.42-29.64,8.14-34.4C530.96,408.57,554.31,396.22,561.68,392.46z"/>
<path fill="#FFFFFF" stroke="#000000" stroke-miterlimit="10" d="M560.2,401.57c-0.41,3.84-0.47,7.47-0.25,10.91
	c-4.6,4.33-15.34,14.32-18.89,16.72c-3.18,2.16-13.12,11.45-18.9,16.94c0,0,8.52-25.29,9.19-26.11
	c0.61-0.74,16.97-14.77,29.02-19.99C560.32,400.55,560.26,401.06,560.2,401.57z"/>
<path fill="#FFFFFF" stroke="#000000" stroke-miterlimit="10" d="M560.6,418.21c-4.92,5.04-14.56,14.71-24.43,24.59
	c-6.75,6.75-13.6,13.59-19.14,19.11c-4.72,4.71-8.48,8.46-10.42,10.37c-0.22-0.23-0.35-0.38-0.41-0.44l5.09-9.45l5.98-11.07l0.6-1.1
	c0,0,1.74-1.68,4.29-4.1c5.78-5.49,15.72-14.78,18.9-16.94c3.55-2.4,14.29-12.39,18.89-16.72
	C560.08,414.46,560.3,416.37,560.6,418.21z"/>
<path fill="#FFFFFF" stroke="#000000" stroke-miterlimit="10" d="M596.56,516.1c-5.54-2.82-10.68-4.83-13.43-4.39
	c-4.89,0.78-17.11,23.28-27.52,39.95c-4.21-8.34-16.12-30.49-29.9-43.86c-14.18-7.29-30.82-26.96-38.75-37.02
	c7.4,0.88,13.86,1.36,18.95,1.63l-0.69,1.29c0,0,0.45-0.45,1.27-1.26c0.1,0,0.19,0.01,0.29,0.01c4.65,5.01,36.54,39.26,37.54,39.26
	c0.89-0.13,22.02-36.72,28.23-47.16c5.28,3.48,10.24,6.95,14.14,10.01v0.01c4.14,15.32,1.3,26.21,1.3,26.21
	S590.97,505.66,596.56,516.1z"/>
<path fill="#FFFFFF" stroke="#000000" stroke-miterlimit="10" d="M586.67,474.56c-3.91-3.06-8.86-6.53-14.14-10.01
	c-14.21-9.39-30.85-19-36.36-21.75c9.87-9.88,19.51-19.55,24.43-24.59c3.63,22.46,19.13,36.3,24.41,51.04
	C585.66,471.07,586.21,472.85,586.67,474.56z"/>
<path fill="#FFFFFF" stroke="#000000" stroke-miterlimit="10" d="M645.68,712.45c-4.28,0.16-14.02,1.02-20.97,1.68
	c-2.1-2.29-4.31-4.65-6.64-7.03c1.88-4.45,4.82-13.94,6.57-14.59c2.16-0.81,26.16-4.04,26.16-4.04S652.68,712.18,645.68,712.45z"/>
<path fill="#FFFFFF" stroke="#000000" stroke-miterlimit="10" d="M629.83,633.86l-38.22,3.49c0,0-12.95,19.3-18.36,29.22
	c-10.67-12.96-18.61-27.52-26.37-42.37C562.83,625.76,598.72,629.94,629.83,633.86z"/>
<path fill="#FFFFFF" stroke="#000000" stroke-miterlimit="10" d="M765.12,803.31c-9.21-7.47-16.8-9.35-22.88-8.52
	c-1.99,0.28-3.81,0.83-5.49,1.58c-9.06,4.08-13.5,13.67-13.96,12.59c-0.13-0.31-0.49-1.08-1.04-2.19
	c-2.81-5.76-10.61-20.86-17.84-29.89c-8.62-10.79-44.75-27.24-52.57-33.44c-1.36-1.08-2.99-2.69-4.89-4.73
	c10.74-0.26,26.72-0.95,34.55-2.82c6.76-8.89,6.33-34.38,5.54-48.12c5.2,2.77,10.6,6.04,15.76,9.84
	c21.3,15.64,38.56,63.63,44.76,78.72C753.26,791.45,765.12,792.52,765.12,803.31z"/>
<path fill="#FFFFFF" stroke="#000000" stroke-miterlimit="10" d="M681,735.91c-7.82,1.87-23.81,2.56-34.55,2.82
	c-3.29-3.53-7.37-8.37-12.23-13.94c12.56,0.51,31.59,1.23,32.49,0.88c1.28-0.52,4.3-27.62,0.57-46.61
	c5.36,2.03,12.12,4.91,19.26,8.73C687.33,701.53,687.75,727.02,681,735.91z"/>
<path fill="#FFFFFF" stroke="#000000" stroke-miterlimit="10" d="M666.71,725.66c-0.9,0.35-19.93-0.36-32.49-0.88
	c-2.89-3.33-6.06-6.93-9.51-10.66c6.95-0.65,16.69-1.52,20.97-1.68c7-0.27,5.12-23.99,5.12-23.99s-24,3.23-26.16,4.04
	c-1.75,0.65-4.7,10.14-6.57,14.59c-4.29-4.44-8.93-8.98-13.91-13.44c2.41-7.96,6.94-22.2,12.8-24.29c4.71-1.69,21.09-1.3,33.09-0.76
	c3.45,4.98,5.88,6.64,5.88,6.64s4.51,1.22,11.34,3.81C671.01,698.04,667.99,725.14,666.71,725.66z"/>
<path fill="#FFFFFF" stroke="#000000" stroke-miterlimit="10" d="M650.05,668.6c-12-0.54-28.38-0.93-33.09,0.76
	c-5.86,2.09-10.38,16.33-12.8,24.29c-0.63-0.58-1.26-1.13-1.9-1.7c-2.05-1.25-4.02-2.55-5.92-3.88c3.24-8.1,10.52-24.54,13.2-25.77
	c2.44-1.12,23.33-1.6,35.79-1.78C647,663.87,648.62,666.52,650.05,668.6z"/>
<path fill="#FFFFFF" stroke="#000000" stroke-miterlimit="10" d="M645.33,660.51c-12.45,0.18-33.34,0.66-35.79,1.78
	c-2.68,1.24-9.96,17.67-13.2,25.77c-3.71-2.59-7.15-5.34-10.36-8.21c5.37-8.59,14.01-22.98,17.36-24.85
	c3.32-1.85,25.02-2.38,38.42-2.53C642.96,655.53,644.16,658.19,645.33,660.51z"/>
<path fill="#FFFFFF" stroke="#000000" stroke-miterlimit="10" d="M641.76,652.49c-13.4,0.15-35.1,0.68-38.42,2.53
	c-3.35,1.87-12,16.25-17.36,24.85c-4.67-4.18-8.87-8.62-12.72-13.29c5.41-9.93,18.36-29.22,18.36-29.22l38.22-3.49
	c2.12,0.27,4.22,0.53,6.28,0.8C637.89,641.7,639.83,647.59,641.76,652.49z"/>
<path fill="#FFFFFF" stroke="#000000" stroke-miterlimit="10" d="M635.77,633.32l-5.93,0.54c-31.11-3.93-67-8.1-82.95-9.66
	c-0.6-1.14-1.18-2.28-1.78-3.43c-7.58-8.82-13.65-16.7-18.54-23.73c4.19,0.78,9.55,1.61,13.32,1.61
	c4.8,2.59,69.34,11.75,92.46,19.07c0.59,2.67,1.16,5.39,1.74,8.16C634.62,628.51,635.19,630.97,635.77,633.32z"/>
<path fill="#FFFFFF" stroke="#000000" stroke-miterlimit="10" d="M632.34,617.74c-23.12-7.32-87.65-16.48-92.46-19.07
	c-3.77,0-9.13-0.83-13.32-1.61v-0.01c-4.98-7.16-8.72-13.43-11.57-18.89c6.29,2.29,14.49,4.88,19.59,4.88
	c7.05,2.68,69.22,13.47,94.37,19.71v0.01C630.1,607.55,631.22,612.54,632.34,617.74z"/>
<path fill="#FFFFFF" stroke="#000000" stroke-miterlimit="10" d="M628.96,602.74c-25.14-6.24-87.31-17.03-94.37-19.71
	c-5.1,0-13.31-2.58-19.59-4.88c-2.95-5.67-4.94-10.45-6.34-14.47c8,5.4,33.22,21.75,38.88,17.46c6.73-5.12,35.12-55.65,41.25-52.95
	c3.01,1.32,10.76,4.6,17.96,7.74C615.63,554.07,622.45,575.2,628.96,602.74z"/>
<path fill="#FFFFFF" stroke="#000000" stroke-miterlimit="10" d="M606.75,535.93c-7.2-3.14-14.95-6.41-17.96-7.74
	c-6.13-2.7-34.52,47.82-41.25,52.95c-5.66,4.29-30.88-12.06-38.88-17.46v-0.01c-1.45-4.13-2.28-7.44-2.91-10.03
	c-0.3-1.23-0.67-2.37-1.1-3.44c7.03,5.36,29.49,21.78,36.96,19.07c3.15-1.14,8.3-8.51,14-17.61c10.42-16.67,22.64-39.17,27.52-39.95
	c2.74-0.45,7.89,1.57,13.43,4.39c2.61,4.89,5.78,10.99,9.49,18.39C606.28,534.97,606.52,535.45,606.75,535.93z"/>
<path fill="#FFFFFF" stroke="#000000" stroke-miterlimit="10" d="M572.53,464.55c-6.21,10.44-27.34,47.03-28.23,47.16
	c-0.99,0-32.88-34.26-37.54-39.26c-0.05-0.05-0.1-0.11-0.15-0.15v-0.01c1.93-1.91,5.7-5.67,10.42-10.37
	c5.54-5.53,12.39-12.37,19.14-19.11C541.68,445.56,558.33,455.16,572.53,464.55z"/>
<path fill="#FFFFFF" stroke="#000000" stroke-miterlimit="10" d="M526.43,390.27c-0.01,1-0.17,1.99-0.63,2.7
	c-1.1,1.74-11.64,12.6-19.15,17.18c-2.16,1.32-4.07,2.11-5.42,2.03c-2.31-0.85-2.83-2.7-2.41-4.8c0.62-3.16,3.35-6.88,5.3-8.64
	c3.28-2.92,13.38-15.46,16.52-15.26c1.94,0.13,3.72,0.6,5.04,1.32c0.07,0.73,0.12,1.21,0.12,1.21S526.45,388.18,526.43,390.27z"/>
<path fill="#FFFFFF" stroke="#000000" stroke-miterlimit="10" d="M483.91,389.37c-1.48-0.61-2.73-1.38-3.78-2.23
	c-0.22-0.18-0.43-0.36-0.63-0.55c-5.49-5.05-5.07-12.82-5.03-13.47c0.04,0.42,0.06,0.65,0.06,0.65s6.13-1.17,8.31,1.05
	c0,0,0,0,0,0.01c-0.2,1.81-0.76,7.73,0.14,11.91c0,0.02,0.01,0.05,0.01,0.07C483.21,387.79,483.5,388.66,483.91,389.37z"/>
<path fill="#FFFFFF" stroke="#000000" stroke-miterlimit="10" d="M490.51,175.49l-1.48,18.74l3.58,5.25c0,0.01-0.01,0.02-0.01,0.03
	c-1.52,4.38-3.02,7.89-3.99,9.24c-0.14,0.19-0.27,0.34-0.38,0.44c-2.03,1.76-7.68,3.51-14.29,3.51c-0.81,0-1.94-0.17-3.3-0.5
	c-2.41-0.58-5.58-1.62-9.09-3.03l7.94-8.6l4.99-18.87l-6.48-13.76l-2.28-4.44l2.16-1.9c0,0,9.56,9.85,10.64,9.71
	c1.09-0.14,4.99-0.14,5.4-0.14c0.41,0,6.06-7.14,6.06-7.14l4.49,4.43l-0.09,0.15L490.51,175.49z"/>
<path fill="#FFFFFF" stroke="#000000" stroke-miterlimit="10" d="M506.4,193.68c-0.96,3.84-3.03,8.93-7.41,14.71
	c-6.08,8.03-24.68,21.57-37.7,30.56c-0.04-1.96,0.12-5.3,1.44-8.25c1.57-3.52,6.01-14.02,7.89-18.5c1.36,0.33,2.49,0.5,3.3,0.5
	c6.61,0,12.26-1.75,14.29-3.51c0.12-0.1,0.25-0.25,0.38-0.44c0.97-1.36,2.48-4.87,3.99-9.24c0-0.01,0.01-0.02,0.01-0.03
	c0.26-0.73,0.5-1.47,0.75-2.24v-0.01c0.01-0.04,0.03-0.09,0.04-0.13c1.05-3.2,2.06-6.7,2.84-10.06c0.11-0.49,0.21-0.97,0.32-1.45
	c0.8,2.99,2.79,7.44,7.57,7.97C504.8,193.63,505.56,193.67,506.4,193.68z"/>
<path fill="#FFFFFF" stroke="#000000" stroke-miterlimit="10" d="M442.61,259.36c-0.04,0.14-0.09,0.28-0.13,0.42
	c-1.21,3.91-1.78,9.3-2.05,14.41c-0.62,1.81-1.2,4.45-1.73,7.53c-4.57-5.96-7.96-11.11-10.45-15.67c-1.48-2.71-2.64-5.2-3.52-7.51
	c-0.57-1.47-1.02-2.88-1.39-4.23c-0.43-1.6-0.73-3.12-0.91-4.56c4.62-3.69,8.98-12.11,8.98-12.11c0.18,0.97,0.46,2,0.85,3.06
	c0.97,2.65,2.05,5.07,3.12,7.24l-3.43-5.52c0,0-4.9,5.51-6.26,14.55c-0.14,0.91-0.25,1.84-0.3,2.81
	c3.13-4.51,10.04-11.75,10.04-11.75C438.11,253.37,440.86,257.2,442.61,259.36z"/>
<path fill="#FFFFFF" stroke="#000000" stroke-miterlimit="10" d="M530.49,212.28c-3.67,4.37-7.84,9.06-11.8,12.96
	c-0.66,0.54-1.29,1.11-1.88,1.7c-0.26,0.25-0.5,0.51-0.75,0.77c-0.06,0.06-0.14,0.13-0.2,0.19c-3.47-7.43-7.58-10.95-9.89-12.49
	c4.42-4.24,7.19-7.17,8.82-9.53c0.57,2.03,1.28,3.59,1.28,3.59C515.87,209,523.66,210.32,530.49,212.28z"/>
<path fill="#FFFFFF" stroke="#000000" stroke-miterlimit="10" d="M540.3,200.03c-1.45,1.91-4.35,5.66-7.92,9.98
	c-4.57-5.24-11.95-8.41-15.69-9.65c-0.1-2.12-1.26-4.56-2.41-6.5C520.46,194.22,528.89,195.44,540.3,200.03z"/>
<path fill="#FFFFFF" stroke="#000000" stroke-miterlimit="10" d="M514.78,205.88c-1.62,2.36-4.4,5.29-8.82,9.53
	c-1.13-0.74-1.85-0.99-1.85-0.99c-1.58,0.21-2.24,2.58-2.51,5.09c-0.62,0.58-1.26,1.16-1.92,1.78c-1.78,1.64-4.06,3.55-6.66,5.62
	c-1.47-1.8-2.52-2.76-2.52-2.76c-2.1,0.88-2.68,4.01-2.77,6.88c-3.13,2.38-6.51,4.87-9.96,7.35c-2.27-1.25-5.6-2.11-5.6-2.11
	c-1.63,0.58-2.15,5.1-2.06,7.57c-9.69,6.83-18.78,12.97-23.1,15.85l2.64-11.67c-0.06-0.43-0.14-0.79-0.23-1.08
	c2.11-1.39,6.07-4.01,10.91-7.33c0.32-0.22,0.64-0.45,0.97-0.67c13.02-8.99,31.61-22.53,37.7-30.56c4.38-5.77,6.45-10.86,7.41-14.71
	c2.09,0.05,4.69,0,7.88,0.18c1.15,1.94,2.32,4.38,2.41,6.5c-1.42-0.48-2.31-0.67-2.33-0.61
	C513.85,201.59,514.25,203.95,514.78,205.88z"/>
<path fill="#FFFFFF" stroke="#000000" stroke-miterlimit="10" d="M625.46,258.81c0,0-11.07,3-14.46,13.31
	c-5.31-3.99-13.83-4.18-22.31-2.91l-13.38-30.35l-6.2-31.14c13.59-1.29,26.47,2.37,36.8,12.27
	C618.71,232.24,628.42,237.77,625.46,258.81z"/>
<path fill="#FFFFFF" stroke="#000000" stroke-miterlimit="10" d="M588.69,269.2c-2.33,0.35-4.65,0.82-6.91,1.34l-14.02-28.12
	l-9.38-32.8c0.55-0.11,0.86-0.16,0.86-0.16c3.31-0.86,6.61-1.46,9.86-1.76l6.2,31.14L588.69,269.2z"/>
<path fill="#FFFFFF" stroke="#000000" stroke-miterlimit="10" d="M558.37,209.63c-4.78,0.95-27.92,5.89-39.68,15.61
	c3.96-3.9,8.13-8.59,11.8-12.96c1.56,0.45,3.06,0.93,4.41,1.43c-0.66-1.33-1.52-2.57-2.52-3.7c3.56-4.32,6.47-8.07,7.92-9.98
	c5.28,2.13,11.21,4.98,17.84,8.79L558.37,209.63z"/>
<path fill="#FFFFFF" stroke="#000000" stroke-miterlimit="10" d="M567.92,310.21c-2.85,1.89-7.59,4.92-12.86,7.72
	c-14.73-19.22-46.05-64.21-54.33-76.13c-0.19-0.69-0.39-1.38-0.63-2.04c4.58-3.34,8.4-6.13,10.95-8c2.19,1.32,4.82,2.95,7.97,4.91
	c-0.93-3.39-2.01-6.3-3.16-8.76c0.06-0.06,0.14-0.13,0.2-0.19c0.27-0.23,0.52-0.47,0.79-0.72c7.5,10.91,34.61,50.05,43.38,59.13
	C559.87,292.75,561.04,301.97,567.92,310.21z"/>
<path fill="#FFFFFF" stroke="#000000" stroke-miterlimit="10" d="M555.06,317.92c-2.12,1.13-4.32,2.23-6.53,3.2
	c-16.37-16.91-46.95-65.21-54.35-77.05c0.43-0.31,0.84-0.62,1.26-0.92c2.08,1.68,4.35,3.49,6.49,5.23c-0.21-2.35-0.64-4.55-1.21-6.6
	C509.01,253.72,540.33,298.7,555.06,317.92z"/>
<path fill="#FFFFFF" stroke="#000000" stroke-miterlimit="10" d="M548.53,321.12c-3.02,1.32-6.04,2.42-8.82,3.06
	c-2.84,0.65-8.03,1-14.54,1.12c-13.17-16.09-37.06-62.49-42.36-72.9c3.94-2.89,7.79-5.71,11.37-8.32
	C501.58,255.91,532.16,304.22,548.53,321.12z"/>
<path fill="#FFFFFF" stroke="#000000" stroke-miterlimit="10" d="M525.18,325.31c-3.43,0.07-7.2,0.07-11.21,0.01h-0.01
	c-5.18-5.66-11.23-15.04-17.03-25.12c-2.85-4.94-5.65-10.06-8.25-15.01c-6.13-11.61-11.22-22.2-13.54-27.13
	c1.08-0.8,2.17-1.6,3.24-2.39c1.65,2,3,3.61,3.38,4.04c0.49,0.55,0.43-2.61,0.07-6.6c0.33-0.23,0.66-0.48,0.98-0.72
	C488.12,262.82,512.01,309.21,525.18,325.31z"/>
<path fill="#FFFFFF" stroke="#000000" stroke-miterlimit="10" d="M488.68,285.19c-11.56,5.96-26.54,22.49-37.5,35.52
	c-7.86-2.6-12.23-15.33-14.37-24.6c0.52-4.96,1.16-10.11,1.9-14.39c0.49,0.64,1,1.3,1.54,1.97c0.02,3.27,0.12,5.44,0.12,5.44
	l1.32-5.84c5.83-4.78,19.51-14.98,33.45-25.24C477.46,262.99,482.55,273.58,488.68,285.19z"/>
<path fill="#FFFFFF" stroke="#000000" stroke-miterlimit="10" d="M513.96,325.32c-13.83-0.18-30.22-1-43-2.06
	c7.36-7.71,19.81-18.05,25.97-23.06C502.73,310.28,508.78,319.66,513.96,325.32z"/>
<path fill="#FFFFFF" stroke="#000000" stroke-miterlimit="10" d="M451.17,320.71c-5.91,7.05-10.66,13.07-13.04,15.85
	c-3.67-2.74-7.16-6.1-10.4-9.7c4.88-5.56,7.36-11.14,7.36-11.14s0.62-9.45,1.71-19.61C438.94,305.38,443.32,318.1,451.17,320.71z"/>
<path fill="#FFFFFF" stroke="#000000" stroke-miterlimit="10" d="M587.17,323.11c-1.36,0.54-44.76,9.98-44.76,9.98h-17.52
	l-15.1,10.78L499,350.35l-1.21-9.57c0,0-6.2-5.53-9.43-4.99c-3.24,0.54-6.34,9.04-6.34,9.04s-5.26-15.04-9.64-16.79
	c-2.01-0.8-3.04-1.5-4.26-1.63c0.81-0.97,1.77-2.03,2.84-3.14c12.78,1.06,29.17,1.88,43,2.06h0.01c4,0.06,7.78,0.06,11.21-0.01
	c6.51-0.12,11.7-0.47,14.54-1.12c2.77-0.64,5.8-1.74,8.82-3.06c2.21-0.97,4.41-2.07,6.53-3.2c5.27-2.8,10.01-5.83,12.86-7.72
	c3.85,4.61,9.49,8.9,17.65,12.26C586.1,322.69,586.63,322.91,587.17,323.11z"/>
<path fill="#FFFFFF" stroke="#000000" stroke-miterlimit="10" d="M620.92,296.81c-0.05,5.2-1.54,10.29-5.18,14.56
	c-3.19,3.74-8.04,6.83-15.02,8.82c-4.23,1.22-9.24,2.01-15.16,2.28c-8.16-3.36-13.8-7.65-17.65-12.26
	c-6.88-8.24-8.05-17.46-7.68-24.09c0.29-5.42,1.59-9.11,1.59-9.11s9.15-3.95,19.96-6.46c2.25-0.52,4.58-0.99,6.91-1.34
	c8.47-1.27,16.99-1.08,22.31,2.91c1.11,0.83,2.07,1.82,2.87,3C617.83,280.96,621,289.01,620.92,296.81z"/>
<path fill="#FFFFFF" stroke="#000000" stroke-miterlimit="10" d="M662.93,355.19l-10.78,10.79c0,0-4.88-1.86-10.1-0.39
	c11.65-14.53,11.85-42.72,5.51-55.15c-5.52-10.82-21.16-13.15-26.64-13.63c0.07-7.8-3.1-15.85-7.05-21.7c-0.8-1.17-1.76-2.17-2.87-3
	c3.39-10.31,14.46-13.31,14.46-13.31c3.5,1.61,26.15,11.18,25.35,42.19C662.13,320.69,662.93,355.19,662.93,355.19z"/>
<path fill="#FFFFFF" stroke="#000000" stroke-miterlimit="10" d="M642.05,365.59c-0.41,0.11-0.81,0.23-1.23,0.39
	c-3.67,1.4-7,10.32-26.91,11.89c13.03-17.63,16.44-29.68,17.32-35.1c0.8-0.26,1.55-0.53,2.23-0.85c10.52-4.86,2.03-10.44,0.81-10.17
	c-0.42,0.1-1.49-0.26-2.72-0.76c-0.52-9.1-10.86-16.56-15.82-19.62c3.64-4.27,5.12-9.36,5.18-14.56
	c5.48,0.48,21.12,2.81,26.64,13.63C653.9,322.86,653.71,351.06,642.05,365.59z"/>
<path fill="#FFFFFF" stroke="#000000" stroke-miterlimit="10" d="M631.24,342.77c-0.89,5.42-4.29,17.47-17.32,35.1
	c-3.08,0.23-6.55,0.31-10.49,0.14c8.4-7.65,9.54-27.17,9.7-33.25C619.32,344.8,626.25,344.37,631.24,342.77z"/>
<path fill="#FFFFFF" stroke="#000000" stroke-miterlimit="10" d="M598.5,343.94c0,0,6.72,0.78,14.63,0.82
	c-0.16,6.07-1.3,25.59-9.7,33.25c0,0,0,0-0.01,0c-8.64-0.35-19.51-1.84-33.25-5.01c-1.9-0.44-3.85-0.91-5.86-1.41
	c-0.21-0.05-0.43-0.12-0.64-0.18c-1.47-0.45-7.89-2.35-10.75-2.47c-2.51-7.39-7.24-19.64-12.37-24.71
	c-7.58-7.48-15.67-11.15-15.67-11.15h17.52c0,0,43.41-9.43,44.76-9.98c-0.54-0.2-1.08-0.42-1.6-0.64
	c5.91-0.28,10.93-1.07,15.16-2.28c0,0,8.32,6.68,12.67,15.7l-3.96,2.23C604.7,340.35,598.5,343.94,598.5,343.94z"/>
<path fill="#FFFFFF" stroke="#000000" stroke-miterlimit="10" d="M552.93,368.95c-3.24-0.13-7.42,6.61-13.07,11.32
	c-4.25,3.54-10.54,7.99-13.43,10c0.02-2.09-0.63-4.27-0.63-4.27s-0.04-0.48-0.12-1.21c-0.14-1.46-0.38-3.95-0.59-5.57
	c-0.31-2.42-7.28-6.78-7.28-6.78s0-9.4-4.45-12.13c-4.45-2.72-9.24,1.22-9.24,1.22l-8.53-9.59c1.33-0.72,2.72-1.17,3.4-1.59
	l10.79-6.48l15.1-10.78c0,0,8.09,3.67,15.67,11.15C545.69,349.31,550.42,361.56,552.93,368.95z"/>
<path fill="#FFFFFF" stroke="#000000" stroke-miterlimit="10" d="M631.56,330.99c-2.31-0.95-5.17-2.41-5.17-2.41l-13,7.31
	c-4.34-9.02-12.67-15.7-12.67-15.7c6.98-1.99,11.83-5.08,15.02-8.82C620.7,314.42,631.04,321.88,631.56,330.99z"/>
<path fill="#FFFFFF" stroke="#000000" stroke-miterlimit="10" d="M633.47,341.91c-0.68,0.32-1.43,0.6-2.23,0.85
	c-4.99,1.6-11.92,2.03-18.11,2c-7.91-0.04-14.63-0.82-14.63-0.82s6.2-3.6,10.94-5.83c1.72-0.81,3.26-1.44,4.23-1.65
	c-0.09-0.19-0.18-0.38-0.27-0.58l13-7.31c0,0,2.86,1.46,5.17,2.41c1.23,0.5,2.31,0.85,2.72,0.76
	C635.5,331.48,644,337.06,633.47,341.91z"/>
<path fill="#FFFFFF" stroke="#000000" stroke-miterlimit="10" d="M338.17,411.14l-0.01,0.03l-1.47,5.23c0,0-0.73-0.96-1.72-2.18
	c-2.03-2.47-5.2-6.01-5.83-4.83c-0.95,1.75-2.03,8.5-3.11,14.02c1.34,2.16,4.04,11.06,4.04,11.06s2.42,4.45,4.98,9.57
	c-5.8-1.62-13.48-9.04-13.34-10.79c0.14-1.75-5.12-9.57-5.12-9.57s0.01-0.34,0.02-0.92c0.06-2.03,0.27-7,0.79-10.67
	c0.06-0.44,0.14-0.91,0.25-1.4c0.3,0.06,0.57,0.13,0.8,0.18c0.12-1.39,0.29-3.01,0.5-4.79c0,0,0,0,0-0.01
	c1.31-3.39,3.43-6.46,6.54-6.79C330.49,398.74,338.17,411.14,338.17,411.14z"/>
<path fill="#FFFFFF" stroke="#000000" stroke-miterlimit="10" d="M360.27,447.61c-5.15,6.97-16.61,11.06-23.32,10.04
	c5.42-0.63,10.24-6.86,12.04-9.49c2.31,0.94,10.6-2.57,10.34-0.07C359.65,447.93,359.96,447.77,360.27,447.61z"/>
<path fill="#FFFFFF" stroke="#000000" stroke-miterlimit="10" d="M317.66,410.69c-0.11,0.49-0.18,0.96-0.25,1.4
	c-0.52,3.67-0.73,8.64-0.79,10.67c-6.85-0.97-15.04-4.62-18.62-7.17c-0.41,2.97-4.38,9.17-4.38,9.17s10.31,3.64,11.79,9.71
	c-0.07-0.05-0.16-0.11-0.23-0.14c-0.33-0.19-0.66-0.29-0.99-0.31c-1.2-0.11-2.35,0.77-3.26,1.75l-0.01,0.01
	c-1.11,1.22-1.85,2.59-1.85,2.59s-0.64-0.16-1.66-0.44c-0.05-0.02-0.12-0.03-0.18-0.05c-0.05-0.02-0.11-0.03-0.15-0.04
	c-1.22-0.33-2.86-0.78-4.61-1.26c-0.93-0.25-1.89-0.51-2.83-0.77c-1.81-0.5-3.15-1.92-4.1-3.54v-0.01
	c-1.33-2.35-1.81-5.08-1.57-5.88c0.41-1.34,3.23-16.71,7.95-20.63c4.72-3.91,7.56,1.36,8.5,1.36
	C301.17,407.1,312.75,409.62,317.66,410.69z"/>
<path fill="#FFFFFF" stroke="#000000" stroke-miterlimit="10" d="M305.42,451.45c-0.46,0-0.94,0.28-1.4,0.7
	c-1.46,1.36-2.79,4.15-2.79,4.15s-4.04-0.94-6.2-0.94c-0.51,0-1.34-0.19-2.32-0.51c-3.13-1.04-7.66-3.47-7.26-5.42
	c0.39-1.85,0.21-11.78,0.09-17.16c0.95,1.62,2.28,3.04,4.1,3.54c0.94,0.26,1.9,0.52,2.83,0.77v7.46c0,0,7.6,2.56,11.63,6.07
	C304.61,450.54,305.04,450.99,305.42,451.45z"/>
<path fill="#FFFFFF" stroke="#000000" stroke-miterlimit="10" d="M315.12,452c0,1.65-6.28,5.3-11.73,4.76
	c-0.75-0.06-1.46-0.21-2.16-0.46c0,0,1.32-2.8,2.79-4.15C305.79,452.46,310.37,453.06,315.12,452z"/>
<path fill="#FFFFFF" stroke="#000000" stroke-miterlimit="10" d="M315.57,472.3l-1.05,1.26c-1.85,0.94-4.86,2.38-6.35,2.56
	c-2.22,0.27-9.09-4.86-12.74-7.15c-3.32-2.07-2.83-12.24-2.71-14.12c0.97,0.32,1.8,0.51,2.32,0.51c2.16,0,6.2,0.94,6.2,0.94
	c0.69,0.25,1.41,0.39,2.16,0.46c0.06,0.73,0.41,2.36,2.03,4.93c2.28,2.97,3.91,7.28,3.77,7.96c-0.13,0.67,3.51,0,3.51,0l0.23,0.21
	L315.57,472.3z"/>
<path fill="#FFFFFF" stroke="#000000" stroke-miterlimit="10" d="M372.81,438.11c0.13,2.57-5.4,5.91-12.52,9.49
	c0,0.01-0.02,0.01-0.02,0.01c-0.31,0.16-0.62,0.32-0.94,0.48c0.26-2.5-8.04,1.01-10.34,0.07c-0.06-0.02-0.12-0.04-0.17-0.07
	c-0.84-0.5,0.03-2.58,1.34-4.85c1.86-3.19,4.59-6.76,4.59-6.76s4.58-4.45,4.58-5.39c0-0.52-5.29-2.07-10.68-3.69
	c-4.37-1.31-8.78-2.68-10.48-3.59c-2.77-1.48-3.15-6.61-3.2-9.59c0.99,1.22,1.72,2.18,1.72,2.18l1.47-5.23
	c5.36,0.01,11.14,6.39,14.03,11.02c0.27,0.44,0.52,0.81,0.77,1.14c2.59,3.51,4.21,1.84,9.74,3.31
	C368.77,428.27,372.69,435.41,372.81,438.11z"/>
<path fill="#FFFFFF" stroke="#000000" stroke-miterlimit="10" d="M359.33,431.1c0,0.94-4.58,5.39-4.58,5.39s-2.73,3.56-4.59,6.76
	c-0.3-0.39-0.65-0.84-1.08-1.37c-2.42-2.96-13.21,2.84-15.5,2.7c-2.29-0.14-5.53-2.97-8.09-4.04c-2.56-1.08-8.5,4.04-9.45,5.55
	c-0.94,1.5-3.1,1.06-6.61,0.12c-2.82-0.77-4.3,2.47-5.35,3.92c-4.03-3.51-11.63-6.07-11.63-6.07v-7.46
	c1.75,0.48,3.39,0.93,4.61,1.26c0.04,0.01,0.1,0.02,0.15,0.04c0.06,0.02,0.13,0.03,0.18,0.05c2.03,0.65,9.32,3.42,10.69,3.98
	c-1.15-3.96-2.35-6.48-2.92-7.59c0.07,0.03,0.16,0.09,0.23,0.14c-1.48-6.07-11.79-9.71-11.79-9.71s3.97-6.2,4.38-9.17
	c3.59,2.55,11.77,6.2,18.62,7.17c-0.01,0.58-0.02,0.92-0.02,0.92s5.26,7.82,5.12,9.57c-0.14,1.75,7.55,9.17,13.34,10.79
	c-2.56-5.12-4.98-9.57-4.98-9.57s-2.7-8.9-4.04-11.06c1.08-5.53,2.16-12.27,3.11-14.02c0.63-1.17,3.8,2.37,5.83,4.83
	c0.05,2.99,0.43,8.11,3.2,9.59c1.7,0.91,6.12,2.27,10.48,3.59C354.04,429.02,359.33,430.57,359.33,431.1z"/>
<path fill="#FFFFFF" stroke="#000000" stroke-miterlimit="10" d="M350.43,354.79c0,0-6.73,12.81-9.03,24.14
	c-3.28-9.1-4.16-15.66-4.01-20.27c0.22-7.36,3.07-9.8,3.07-9.8l4.74,2.82c-0.22,0.16-0.46,0.33-0.68,0.5
	c0.38-0.05,0.81-0.11,1.28-0.15L350.43,354.79z"/>
<path fill="#FFFFFF" stroke="#000000" stroke-miterlimit="10" d="M331.09,366.9c0,0,0,0.02-0.01,0.05l-0.01,0.01
	c-0.18,0.78-2.07,8.53-4.56,19.65c-1.15-1.13-2.03-2.39-2.66-3.72c-3.98-8.4,1.24-19.73,1.24-19.73L331.09,366.9z"/>
<path fill="#FFFFFF" stroke="#000000" stroke-miterlimit="10" d="M370.26,361.86l-2.17,8.5c0,0-9.17,9.91-15.9,9.78l9.84-19.54h7.44
	C369.75,361,370.02,361.41,370.26,361.86z"/>
<path fill="#FFFFFF" stroke="#000000" stroke-miterlimit="10" d="M423.35,254.31c0,0-31.82,32.46-35.35,67.02
	c-0.6-1.1-1.18-2.22-1.75-3.34c0.07-1.61,0.19-3.19,0.36-4.75c4.19-41.84,35.08-66.57,35.58-66.96c0.01,1.11,0.09,2.26,0.25,3.47
	C422.62,251.2,422.92,252.71,423.35,254.31z"/>
<path fill="#FFFFFF" stroke="#000000" stroke-miterlimit="10" d="M438.71,281.72c-0.74,4.28-1.38,9.42-1.9,14.39
	c-1.09,10.16-1.71,19.61-1.71,19.61s-2.49,5.58-7.36,11.14c-10.69-11.92-18.48-26.45-20.25-29.88
	c8.56-15.48,17.11-26.47,20.77-30.92C430.75,270.61,434.14,275.77,438.71,281.72z"/>
<path fill="#FFFFFF" stroke="#000000" stroke-miterlimit="10" d="M437.73,226.85c0,0-2.28,0.65-4.94,1.44
	c-2.79,0.84-5.99,1.84-7.39,2.4c3.53-6.48,11.33-9.9,11.33-9.9c0.27,0.54,0.47,1.29,0.62,2.08
	C437.69,224.75,437.73,226.85,437.73,226.85z"/>
<path fill="#FFFFFF" stroke="#000000" stroke-miterlimit="10" d="M478.38,255.67c-1.08,0.79-2.17,1.59-3.24,2.39
	c-13.94,10.26-27.62,20.46-33.45,25.24l5.34-23.61c4.31-2.88,13.4-9.02,23.1-15.85c0.02,0.65,0.07,1.16,0.17,1.41
	C470.59,246.06,475.08,251.66,478.38,255.67z"/>
<path fill="#FFFFFF" stroke="#000000" stroke-miterlimit="10" d="M511.05,231.75c-2.55,1.88-6.37,4.66-10.95,8
	c-1.94-5.86-4.94-10.24-7.07-12.84c2.6-2.07,4.88-3.98,6.66-5.62c0.66-0.62,1.3-1.21,1.92-1.78c-0.29,2.75-0.09,5.66-0.09,6.03
	C501.53,226.08,503.9,227.4,511.05,231.75z"/>
<path fill="#FFFFFF" stroke="#000000" stroke-miterlimit="10" d="M495.44,243.16c-0.42,0.3-0.83,0.61-1.26,0.92
	c-3.58,2.61-7.43,5.43-11.37,8.32c-0.32,0.23-0.65,0.48-0.98,0.72c-0.47-5.41-1.47-12.33-2.35-13.43c-0.36-0.46-0.98-0.91-1.71-1.3
	c3.45-2.49,6.83-4.97,9.96-7.35c-0.1,2.5,0.19,4.8,0.14,5.24C487.81,236.9,491.24,239.76,495.44,243.16z"/>
<path fill="#FFFFFF" stroke="#000000" stroke-miterlimit="10" d="M534.9,213.71c-1.34-0.5-2.85-0.98-4.41-1.43
	c-6.83-1.96-14.62-3.29-14.43-2.82c0,0-0.72-1.56-1.28-3.59c-0.53-1.93-0.93-4.29-0.42-6.13c0.02-0.06,0.91,0.13,2.33,0.61
	c3.74,1.24,11.12,4.41,15.69,9.65C533.38,211.14,534.24,212.38,534.9,213.71z"/>
<path fill="#FFFFFF" stroke="#000000" stroke-miterlimit="10" d="M519.02,236.66c-3.15-1.96-5.78-3.59-7.97-4.91
	c-7.15-4.35-9.52-5.67-9.52-6.21c0-0.37-0.2-3.28,0.09-6.03c0.27-2.51,0.93-4.88,2.51-5.09c0,0,0.72,0.26,1.85,0.99
	c2.32,1.54,6.42,5.06,9.89,12.49C517.01,230.36,518.09,233.27,519.02,236.66z"/>
<path fill="#FFFFFF" stroke="#000000" stroke-miterlimit="10" d="M501.93,248.39c-2.13-1.74-4.41-3.55-6.49-5.23
	c-4.21-3.4-7.63-6.26-7.57-6.88c0.05-0.44-0.23-2.74-0.14-5.24c0.1-2.87,0.67-6.01,2.77-6.88c0,0,1.05,0.96,2.52,2.76
	c2.12,2.6,5.12,6.98,7.07,12.84c-0.17,0.13-0.34,0.25-0.51,0.38c0.31,0.45,0.69,1,1.14,1.65
	C501.29,243.84,501.72,246.04,501.93,248.39z"/>
<path fill="#FFFFFF" stroke="#000000" stroke-miterlimit="10" d="M481.76,259.71c-0.38-0.44-1.73-2.05-3.38-4.04
	c-3.3-4.01-7.79-9.61-8.09-10.42c-0.1-0.25-0.15-0.76-0.17-1.41c-0.09-2.47,0.43-6.99,2.06-7.57c0,0,3.33,0.86,5.6,2.11
	c0.73,0.39,1.34,0.84,1.71,1.3c0.88,1.1,1.88,8.02,2.35,13.43C482.19,257.1,482.25,260.27,481.76,259.71z"/>
<path fill="#FFFFFF" stroke="#000000" stroke-miterlimit="10" d="M447.43,246.98c-0.78,1.17-1.68,3.23-2.61,5.8
	c-10.28-10.81-7.9-19.58-5.4-24.14C440.17,234.86,442.34,241.59,447.43,246.98z"/>
<path fill="#FFFFFF" stroke="#000000" stroke-miterlimit="10" d="M449.66,248.03l-2.64,11.67l-5.34,23.61
	c-0.38,0.32-0.74,0.62-1.06,0.89c-0.13-0.17-0.26-0.33-0.38-0.49c-0.03-2.65,0.01-6.01,0.19-9.51c0.27-5.11,0.84-10.5,2.05-14.41
	c0.04-0.14,0.09-0.28,0.13-0.42c0.74-2.38,1.47-4.63,2.2-6.59c0.94-2.56,1.84-4.62,2.61-5.8c0.86-1.3,1.57-1.49,2-0.03
	C449.52,247.24,449.59,247.6,449.66,248.03z"/>
<path fill="#FFFFFF" stroke="#000000" stroke-miterlimit="10" d="M472.18,181.42l-4.72,18.74l-8.03,8.12
	c-0.75-0.31-1.49-0.64-2.26-0.98c1.32-13.42,10.29-19.81,10.29-19.81l-12.12-14.87l8.68-7.64L472.18,181.42z"/>
<path fill="#FFFFFF" stroke="#000000" stroke-miterlimit="10" d="M467.46,187.49c0,0-8.97,6.39-10.29,19.81
	c-1.52-0.68-3.05-1.41-4.6-2.19c-0.05-8.28,8.69-17.76,8.69-17.76l-11.86-9.5l5.93-5.23L467.46,187.49z"/>
<path fill="#FFFFFF" stroke="#000000" stroke-miterlimit="10" d="M474.47,181.7l-4.99,18.87l-7.94,8.6
	c-0.68-0.29-1.39-0.58-2.1-0.89l8.03-8.12l4.72-18.74l-8.16-16.44l1.7-1.48l2.28,4.44L474.47,181.7z"/>
<path fill="#FFFFFF" stroke="#000000" stroke-miterlimit="10" d="M462.74,230.7c-1.32,2.95-1.48,6.29-1.44,8.25
	c-0.33,0.22-0.65,0.45-0.97,0.67c-9.19-8.9-15.71-18.38-20.3-26.79v-0.01c-5.77-10.6-8.45-19.49-9.43-23.31
	c0.15,0.15,0.3,0.28,0.46,0.41c4.43,5.48,13.04,10.97,21.52,15.2c1.55,0.78,3.08,1.5,4.6,2.19c0.77,0.34,1.52,0.67,2.26,0.98
	c0.72,0.31,1.42,0.6,2.1,0.89c3.51,1.41,6.68,2.45,9.09,3.03C468.75,216.67,464.31,227.17,462.74,230.7z"/>
<path fill="#FFFFFF" stroke="#000000" stroke-miterlimit="10" d="M444.81,252.78c-0.73,1.95-1.46,4.21-2.2,6.59
	c-1.75-2.17-4.5-5.99-7.17-11.33l-0.05-0.09c-1.07-2.17-2.15-4.59-3.12-7.24c-0.39-1.07-0.67-2.09-0.85-3.06
	c-0.69-3.76,0.06-6.87,1.37-9.35c2.66-0.79,4.94-1.44,4.94-1.44s-0.03-2.1-0.37-3.98c0.65-0.53,1.26-0.96,1.76-1.29
	c-0.05,2.06,0,4.28,0.25,6.6c0.02,0.15,0.03,0.31,0.05,0.46C436.91,233.19,434.53,241.97,444.81,252.78z"/>
<path fill="#FFFFFF" stroke="#000000" stroke-miterlimit="10" d="M435.44,248.03c0,0-6.92,7.24-10.04,11.75
	c0.05-0.97,0.16-1.9,0.3-2.81c1.37-9.04,6.26-14.55,6.26-14.55l3.43,5.52L435.44,248.03z"/>
<path fill="#FFFFFF" stroke="#000000" stroke-miterlimit="10" d="M431.42,237.64c0,0-4.35,8.42-8.98,12.11
	c-0.13-4.14,4.88-12.8,6.04-13.85C429.65,234.85,431.42,237.64,431.42,237.64z"/>
<path fill="#FFFFFF" stroke="#000000" stroke-miterlimit="10" d="M482.02,344.82c0,0-5.52,7.45-7.49,12.31
	c-1.08-1.02-2.47-2.36-3.81-3.72c-2.24-2.31-4.37-4.7-4.67-5.82c-1.92-0.41-4.25,2.33-4.25,2.33l2.73,5.97c0,0-0.21,0.04-0.58,0.14
	c-1.58,0.38-5.99,1.72-8.09,4.67c-0.26-0.44-0.53-0.91-0.8-1.37c-0.72-1.22-1.36-2.34-1.36-2.34s-5.76-8.9-5.76-12.34
	c0-3.44,6.17-11.53,13.24-15.57c3.83-2.19,5.51-2.83,6.94-2.68c1.22,0.13,2.25,0.83,4.26,1.63
	C476.75,329.78,482.02,344.82,482.02,344.82z"/>
<path fill="#FFFFFF" stroke="#000000" stroke-miterlimit="10" d="M470.96,323.26c-1.07,1.11-2.03,2.17-2.84,3.14
	c-1.43-0.15-3.11,0.49-6.94,2.68c-7.08,4.04-13.24,12.13-13.24,15.57c0,3.44,5.76,12.34,5.76,12.34s0.64,1.12,1.36,2.34
	c-2.48,2.39-6.5,5.83-10.93,7.88c-5.93-1.46-26.84-22.87-33.71-30.03c3.68-0.76,7.41-2.03,10.4-4.08c0.02-0.01,0.03-0.02,0.05-0.03
	c2.66-1.84,4.95-4.02,6.87-6.2c3.23,3.6,6.72,6.96,10.4,9.7c2.38-2.77,7.13-8.79,13.04-15.85c0.28,0.1,0.58,0.18,0.86,0.25
	C455.49,321.74,462.42,322.55,470.96,323.26z"/>
<path fill="#FFFFFF" stroke="#000000" stroke-miterlimit="10" d="M496.93,300.2c-6.16,5.02-18.6,15.36-25.97,23.06
	c-8.54-0.7-15.46-1.52-18.92-2.31c-0.29-0.06-0.59-0.15-0.86-0.25c10.96-13.03,25.95-29.56,37.5-35.52
	C491.28,290.13,494.08,295.25,496.93,300.2z"/>
<path fill="#FFFFFF" stroke="#000000" stroke-miterlimit="10" d="M489.52,391.85c-5.36,8.29-16.1,24.05-28.54,37.22
	c-2.41-1.83-5.33-4.76-8.54-8.44c-17.72-20.33-44.34-63.2-45.32-64.77c1.54,1.81,50.63,59.73,51.03,59.87
	c0.45,0,16.36-20.81,20.96-28.49c0.33-0.02,0.66-0.06,1.01-0.11c1.05,0.85,2.29,1.62,3.78,2.23c-0.41-0.7-0.69-1.58-0.91-2.56
	c0-0.02-0.01-0.05-0.01-0.07c2.22,1.12,6.77,2.49,6.51,3.92C489.44,390.94,489.46,391.36,489.52,391.85z"/>
<path fill="#FFFFFF" stroke="#000000" stroke-miterlimit="10" d="M470.71,353.4c-0.84,2.56-2.91,8.64-4.46,11.18l-2.31-8.57
	c0.36-0.1,0.58-0.14,0.58-0.14l-2.73-5.97c0,0,2.33-2.73,4.25-2.33C466.35,348.7,468.47,351.09,470.71,353.4z"/>
<path fill="#FFFFFF" stroke="#000000" stroke-miterlimit="10" d="M460.28,404.9c-9.74,0.1-10.91-5.06-11.05-6.3
	c0.82-0.55,4.19-2.71,5.08-1.39c0.02-0.02,0.04-0.04,0.05-0.06C455.41,399.3,457.38,402.7,460.28,404.9z"/>
<path fill="#FFFFFF" stroke="#000000" stroke-miterlimit="10" d="M479.5,386.58c-0.12,0.2-0.25,0.43-0.38,0.66
	c-8.18,0.69-11.45-3.97-11.45-3.97s-3.04,2.73-9.1,2.73c0,0-2.66,9.53-4.19,11.15c-0.01,0.02-0.03,0.04-0.05,0.06
	c-0.89-1.32-4.26,0.83-5.08,1.39c-0.12,0.09-0.18,0.13-0.18,0.13s-3.44-7.08-3.03-9.4c0.41-2.33,3.14-12.84,4.45-13.24
	c1.25-0.38,10.82-6.34,11.76-6.93c3.74,4.15,7.12,6.93,7.12,6.93l-3.1-11.51c1.55-2.54,3.62-8.62,4.46-11.18
	c1.34,1.37,2.73,2.7,3.81,3.72c-0.39,0.95-0.64,1.8-0.69,2.49c-0.27,3.49,0.42,11.14,0.64,13.46c0,0,0,0.01,0,0.04
	C474.43,373.76,474.01,381.53,479.5,386.58z"/>
<path fill="#FFFFFF" stroke="#000000" stroke-miterlimit="10" d="M371.41,809.96c-5.67,14.54-13.58,24.47-30.13,41.74
	c-12.86,13.42-15.5,24.63-16.04,28.7c-1.37-0.69-3.31-1.65-4.67-2.4c0.01,0,0.01,0,0.01,0c1.83-0.35,3.21-0.51,3.21-0.51
	s-1.62-9.61,5.15-19.21c0,0-10.78,2.74-13.42,16.54c-1.05-0.73-1.99-1.43-2.76-2.08c-0.03-0.12-0.11-0.45-0.18-0.79
	c0.01,0,0.01,0,0.02,0c0.65-0.01,1.07-0.02,1.07-0.02s-0.3-8.79,3.54-12.54c3.84-3.74,5.86-5.11,5.86-5.11s-0.74-0.07-1.92-0.04
	c3.38-1.16,6.98-1.92,6.98-1.92s15.98-15.98,17.99-19.41c1.66-2.82,12.76-16.4,16.72-21.23
	C362.85,812.18,365.01,809.56,371.41,809.96z"/>
<path fill="#FFFFFF" stroke="#000000" stroke-miterlimit="10" d="M317.21,859.39c-3.84,3.75-3.54,12.54-3.54,12.54
	s-0.42,0.01-1.07,0.02c-0.01,0-0.01,0-0.02,0c-1.86,0.03-5.65,0.02-7.5-0.43c-0.16-14.88,10.73-17.05,15.64-17.28h0.01
	c0.15,0,0.29-0.01,0.43-0.01c1.18-0.03,1.92,0.04,1.92,0.04S321.05,855.65,317.21,859.39z"/>
<path fill="#FFFFFF" stroke="#000000" stroke-miterlimit="10" d="M323.78,877.49c0,0-1.39,0.16-3.21,0.51c0,0,0,0-0.01,0h-0.01
	c-1.73,0.33-3.85,0.82-5.57,1.52c0.07-1.7,0.27-3.26,0.54-4.7c2.64-13.8,13.42-16.54,13.42-16.54
	C322.16,867.88,323.78,877.49,323.78,877.49z"/>
<path fill="#FFFFFF" stroke="#000000" stroke-miterlimit="10" d="M348.76,863.09c0,0-3.84,14.4-5.26,20.16
	c-0.64,0.06-2.45,0.88-4.53,1.87c-3.74,1.83-8.31,4.3-8.31,4.3s-0.41-2.48-0.02-6.26c0.3-3.07,1.11-7,3.05-11.2
	C338.03,862.59,348.76,863.09,348.76,863.09z"/>
<path fill="#FFFFFF" stroke="#000000" stroke-miterlimit="10" d="M375.71,810.61c-1.33,4.53-3.84,11.17-8,16.3
	c-6.97,8.57-36.28,36.42-38.76,55.48c-1.2-0.54-2.45-1.16-3.72-1.84c0.01-0.05,0.01-0.1,0.02-0.15c0.54-4.07,3.18-15.28,16.04-28.7
	c16.55-17.27,24.46-27.2,30.13-41.74C372.66,810.05,374.09,810.24,375.71,810.61z"/>
<path fill="#FFFFFF" stroke="#000000" stroke-miterlimit="10" d="M430.24,833.71c-1,4.45-12.53,10.12-28.1,17.99
	c-15.57,7.89-16.38,21.44-27.3,27.1c-9.05,4.7-27,6.62-35.87,6.32c2.07-0.99,3.88-1.8,4.53-1.87c1.42-5.76,5.26-20.16,5.26-20.16
	s-10.73-0.5-15.07,8.87c-1.94,4.19-2.75,8.12-3.05,11.2c-0.54-0.23-1.12-0.49-1.7-0.77c2.49-19.06,31.79-46.91,38.76-55.48
	c4.16-5.12,6.67-11.77,8-16.3c3.1,0.7,6.85,2.02,11.4,4.29c18.88,9.43,33.17-1.34,33.44-2.42c0.02-0.11-0.12-0.54-0.41-1.26
	C424.79,815.83,431.26,829.26,430.24,833.71z"/>
<path fill="#FFFFFF" stroke="#000000" stroke-miterlimit="10" d="M738.16,864.79c0,0-1.43,2.58-9.51,1.45
	c1.7-2.39,1.83-3.51,1.83-3.88c0-0.53,2.83-17.12-4.04-21.97c0,0-6.22,13.05-3.43,24.69c-0.33-0.09-0.67-0.18-1.02-0.28
	c-16.59-5.67-5.93-33.97-2.42-41.66c3.5-7.68,2.2-16.35,2.2-16.35c0.54,1.11,0.91,1.88,1.04,2.19c0.46,1.08,4.9-8.52,13.96-12.59
	C736.33,812.55,735.59,853.3,738.16,864.79z"/>
<path fill="#FFFFFF" stroke="#000000" stroke-miterlimit="10" d="M781.3,855.22c0.16,3.44-1.34,6.03-4.19,7.87
	c-1.23-15.21-8.07-20.94-8.07-20.94c-1.22,10.65,1.08,18.2,1.08,18.2s1.97,1.89,4.98,3.82c-4.42,2-10.99,2.72-19.01,2.37
	c-0.99,0.29-1.94,0.51-2.85,0.69c0.27-3.76,0.52-8.82,0.29-11.8c-0.41-5.19-4.04-12.6-4.04-12.6s-3.91,16.18-3.23,21.3
	c1.02,1.45,1.92,2.66,2.7,3.64c-2.41,0.11-4.38-0.15-5.93-0.55c0.35-7.1,1.62-32.42,2.42-47.03c0.58-10.48-1.53-19.7-3.2-25.37
	c6.08-0.83,13.67,1.05,22.88,8.52c0.31,2.82,3.64,12.67,4.72,22.1C770.91,834.86,780.89,846.58,781.3,855.22z"/>
<path fill="#FFFFFF" stroke="#000000" stroke-miterlimit="10" d="M745.44,820.17c-0.8,14.61-2.07,39.94-2.42,47.03
	c-3.35-0.88-4.86-2.41-4.86-2.41c-2.57-11.48-1.83-52.24-1.41-68.41c1.68-0.75,3.5-1.3,5.49-1.58
	C743.91,800.46,746.01,809.69,745.44,820.17z"/>
<path fill="#FFFFFF" stroke="#000000" stroke-miterlimit="10" d="M730.48,862.36c0,0.37-0.13,1.49-1.83,3.88
	c-0.8,1.11-1.93,2.49-3.56,4.21c-0.96-1.72-1.63-3.53-2.08-5.38c-2.8-11.63,3.43-24.69,3.43-24.69
	C733.3,845.24,730.48,861.82,730.48,862.36z"/>
<path fill="#FFFFFF" stroke="#000000" stroke-miterlimit="10" d="M753.24,867.22c-0.19,2.77-0.38,4.85-0.38,4.85
	s-1.22-0.9-3.91-4.31c-0.78-0.98-1.68-2.19-2.7-3.64c-0.67-5.12,3.23-21.3,3.23-21.3s3.64,7.42,4.04,12.6
	C753.76,858.41,753.51,863.47,753.24,867.22z"/>
<path fill="#FFFFFF" stroke="#000000" stroke-miterlimit="10" d="M777.25,865.46c-0.77-0.42-1.48-0.86-2.16-1.3
	c-3.01-1.93-4.98-3.82-4.98-3.82s-2.29-7.55-1.08-18.2c0,0,6.84,5.73,8.07,20.94C777.18,863.85,777.22,864.64,777.25,865.46z"/>
<path fill="#FFFFFF" stroke="#000000" stroke-miterlimit="10" d="M581.78,270.55c-10.81,2.51-19.96,6.46-19.96,6.46
	s-1.3,3.69-1.59,9.11c-8.77-9.07-35.88-48.22-43.38-59.13c0.61-0.57,1.22-1.15,1.84-1.75c11.76-9.72,34.9-14.66,39.68-15.61h0.01
	l9.38,32.8L581.78,270.55z"/>
<path fill="#FFFFFF" stroke="#000000" stroke-miterlimit="10" d="M308.11,441.92c-1.38-0.57-8.67-3.33-10.69-3.98
	c1.02,0.28,1.66,0.44,1.66,0.44s0.74-1.38,1.85-2.59l0.01-0.01c0.91-0.98,2.06-1.86,3.26-1.75c0.33,0.02,0.66,0.12,0.99,0.31
	C305.76,435.44,306.95,437.96,308.11,441.92z"/>
<path fill="#FFFFFF" stroke="#000000" stroke-miterlimit="10" d="M492.8,176.09l-1.48,16.65l2.08,4.35
	c-0.01,0.04-0.03,0.09-0.04,0.13v0.01c-0.25,0.77-0.49,1.52-0.75,2.24l-3.58-5.25l1.48-18.74l3.86-6.87l0.09-0.15l3.48-6.18
	c0.02,0.77,0.06,1.92,0.09,2.89l-2.5,4.34L492.8,176.09z"/>
</svg>
