<?xml version="1.0" encoding="utf-8"?>
<!-- Generator: Adobe Illustrator 25.2.0, SVG Export Plug-In . SVG Version: 6.00 Build 0)  -->
<svg version="1.1" baseProfile="tiny" id="Layer_1" xmlns="http://www.w3.org/2000/svg" xmlns:xlink="http://www.w3.org/1999/xlink"
	 x="0px" y="0px" viewBox="0 0 1000 1000" overflow="visible" xml:space="preserve">
<path fill="#FFFFFF" stroke="#000000" stroke-miterlimit="10" d="M687.24,154.57c-15.9-2.65-45.22-3.47-78.64,15.26
	c-50.25,28.16-79.12,63.09-76.63,78.42c2.08,12.73,18.43,67.41,43.34,100.73c-9.9-3.88-21.28-8.67-34.17-14.66h-0.01
	c-8.24-12.8-12.57-28.76-23.06-53.99c-18.54-44.56-76.63-36-67.6-63.09c6.77-20.3,48.48-43.6,68.97-54.01c0,0,0,0,0.01,0
	c6.85-3.48,11.33-5.52,11.33-5.52c67.96-38.49,122.14-19.48,122.14-19.48C665.36,142.37,676.84,148.09,687.24,154.57z"/>
<path fill="#FFFFFF" stroke="#000000" stroke-miterlimit="10" d="M530.78,157.71c0,0-4.48,2.04-11.33,5.52c-0.01,0-0.01,0-0.01,0
	c-61.23,3.18-147.76,47.71-169.26,59.25c-14.82,0.58-31.62,3.1-50.29,8.69c6.25-3.56,12.59-7.21,19.07-10.87
	c19.67-11.14,40.56-22.49,63.7-32.41c11.18-4.8,22.89-9.26,35.23-13.19C450.39,164.31,487.32,157.53,530.78,157.71z"/>
<path fill="#FFFFFF" stroke="#000000" stroke-miterlimit="10" d="M722.22,198.38c-3.06-0.25-6.28-0.28-9.64-0.01
	c-0.97-4.25,0.34-12.46,2.15-11.16C716.24,188.29,720.62,195.63,722.22,198.38z"/>
<path fill="#FFFFFF" stroke="#000000" stroke-miterlimit="10" d="M741.49,203.05c-3.32-1.38-7.21-2.67-11.57-3.57
	c-1.89-3.41-3.87-6.75-3.87-6.75s-0.9,2.76-1.74,5.84c-0.69-0.07-1.38-0.14-2.09-0.19c-1.6-2.75-5.98-10.09-7.49-11.17
	c-1.81-1.3-3.12,6.91-2.15,11.16c-9,0.71-19.02,3.49-29.62,9.79c-0.19,0.11-0.38,0.22-0.57,0.34
	c-21.39-6.05-29.23-10.32-29.23-10.32s-0.03,0.23-0.06,0.66c0,0.01,0,0.01,0,0.01c-0.19,2.13-0.66,9.18,0.12,19.01
	c-16.57,5.23-79.52,26.72-88.64,53.91c-9.88,29.5,19.79,43.03,43.91,89.19c-8.08-2.73-19.13-6.45-33.18-11.98
	c-24.91-33.32-41.26-88-43.34-100.73c-2.49-15.33,26.38-50.26,76.63-78.42c33.42-18.73,62.74-17.91,78.64-15.26
	c8.42,5.25,16.13,11,23.07,16.84c6.31,5.29,11.98,10.66,16.97,15.77C732.91,192.95,737.66,198.39,741.49,203.05z"/>
<path fill="#FFFFFF" stroke="#000000" stroke-miterlimit="10" d="M259.89,405.55c-19.43-24.23-34.95-58.05-34.94-89.99
	c0.01-30.91,14.57-60.08,54.21-77.07c2.51-1.07,5.11-2.1,7.82-3.07c4.4-1.58,8.7-3,12.91-4.25c18.67-5.59,35.47-8.11,50.29-8.69
	c50.08-1.95,77.47,18.4,77.47,18.4C436.68,332.6,299.34,454.74,259.89,405.55z"/>
<path fill="#FFFFFF" stroke="#000000" stroke-miterlimit="10" d="M455.87,736.03c-2.82,3.83-6.09,7.39-9.55,10.58
	c-10.54,9.74-22.77,16.1-28.94,16.51c-7.04,0.45-13.15-15.22-14.74-22.83c-0.27-1.26-0.41-2.3-0.41-3.01
	c0-4.99,6.95-11.59,11.05-23.71c-4.05-10.64-10.88-17.16-17.05-21.09c-7.16-4.56-13.43-5.64-13.43-5.64
	c-4.62-32.54,21.91-59.91,21.91-59.91c13.34,8.44,27.71,18.35,31.56,30.51c6.59,20.85,24.06,41.7,30.29,49.18
	C472.8,714.11,467.28,720.52,455.87,736.03z"/>
<path fill="#FFFFFF" stroke="#000000" stroke-miterlimit="10" d="M382.8,686.84c0,0-8.7,8.41-13.89,33.68
	c-3.86-2.58-10.73-6.86-14.8-7.48c-9.27-62.73-43.13-91.96-44.56-91.96c0,0-13.9,38.14-10.51,64.51c0.82,6.39,2.36,12.04,4.23,16.94
	c0,0.01,0.01,0.02,0.01,0.02c3.86,10.11,9.16,17.03,12.68,20.78c-6.03-5.42-11.66-4.82-12.79-4.63c-0.08-0.04-0.17-0.1-0.26-0.14
	c-0.93-3.91-17.06-70.31-34.7-79.3c-5.31,16.97-8.18,32.62-8.04,44.77c-7.97-22.53-13.23-23.98-13.23-23.98s-1.92,4.19-3.96,10.63
	c-7.91-20.89-24.35-39.99-36.79-61.36c-13.9-23.88-32.08-59.53-32.44-83.77c-0.35-24.09,39.81-95.17,44.94-108.49
	c12.59,1.85,27.63,7.56,32.65,23.43c9.03,28.51,17.11,69.38,32.79,80.31s46.57,12.36,46.57,12.36l19.45-42.46
	c20.59,21.08,22.77,42.23,22.14,57.78c-0.24,5.93-0.88,11.04-1.07,15.03c-0.72,14.98,0.53,35.65,10.69,47.23
	c4.24,4.84,13.25,10.14,22.8,16.19C404.71,626.93,378.18,654.3,382.8,686.84z"/>
<path fill="#FFFFFF" stroke="#000000" stroke-miterlimit="10" d="M410.43,778.98c-7.46,8.78-14.08,14.97-20.9,18.76
	c-9.35,5.2-19.08,5.86-31.85,2.42c-0.04-0.01-0.07-0.02-0.11-0.04c-17.82-5.59-47.66-21.68-49.26-26.66
	c-1.61-4.99,8.91-22.82,9.44-46.34c0.02-0.66,0.02-1.33,0-1.99v-0.01c-0.18-11.05-3.81-21.87-7.52-30.1
	c6.18-2.72,35.65,11.42,43.75,17.92c0.01,0.01,0.01,0.01,0.01,0.01c0.05,0.03,0.08,0.06,0.12,0.09c4.07,0.62,10.94,4.9,14.8,7.48
	c-0.52,2.51-1,5.18-1.43,8.02c-2.22,14.51-1.45,21.75,0.81,25.36c2.67,4.25,7.41,3.5,11.84,3.69c2.89,0.13,5.96,1.01,9.28,2.74
	C395.48,763.5,402.36,769.53,410.43,778.98z"/>
<path fill="#FFFFFF" stroke="#000000" stroke-miterlimit="10" d="M301.88,798c-10.82-0.01-20.6-2.35-29.24-5.78h-0.01
	c-0.01,0.01-0.01,0.01-0.02,0c-13.41-5.32-23.99-13.27-31.13-19.24c0.1-0.15-0.04-0.24-0.36-0.3c-2.83-2.38-5.1-4.42-6.77-5.82
	c-8.91-7.48-3.57-19.6,3.56-25.31c2.87-2.29,5.68-9.14,7.6-18.07c0.03-0.15,0.06-0.3,0.09-0.45c1.06-5.02,1.83-10.68,2.17-16.54
	c0,0,9.2-0.46,22.48,9.4c0.58,0.73,1.2,1.46,1.87,2.21c0.17,0.18,0.33,0.36,0.51,0.54l0.01,0.01c0.37,4.76,0.11,10.31-1.4,16.49
	c-5.17,21.21-14.26,34.93-13.01,37.42C259.39,774.87,275.95,791.07,301.88,798z"/>
<path fill="#FFFFFF" stroke="#000000" stroke-miterlimit="10" d="M541.13,334.32c-17.29-8.01-37.28-18.18-60.01-31.18
	c-16.51-9.45-52.52,12.12-73.55,31.36c-21.03,19.25-33.86,52.04-32.43,62.38c0.49,3.53,4.97,9.56,10.66,15.97l-35.65,77.85
	l-19.45,42.46c0,0-30.89-1.43-46.57-12.36s-23.76-51.8-32.79-80.31c-5.02-15.87-20.06-21.58-32.65-23.43
	c0.03-0.08,0.06-0.16,0.09-0.23c4.75-12.72,0.48-47.63,1.43-74.72c0.4-11.52,2.48-20.28,4.74-26.55
	c-0.01,31.94,15.51,65.76,34.94,89.99c39.45,49.19,176.79-72.95,167.76-164.67c0,0-27.39-20.35-77.47-18.4
	c21.5-11.54,108.03-56.07,169.26-59.25c-20.49,10.41-62.2,33.71-68.97,54.01c-9.03,27.09,49.06,18.53,67.6,63.09
	C528.56,305.56,532.89,321.52,541.13,334.32z"/>
<path fill="#FFFFFF" stroke="#000000" stroke-miterlimit="10" d="M624.23,581.27c-3.76,17.12-17.35,25.8-22.52,48.39
	c-0.21,0.92-0.41,1.86-0.59,2.83c-4.77,25.43-20.39,46.32-34.04,53.45c-5.1-4.07-8.26-6.41-8.26-6.41s-36.35-16.15-36.83,10.34
	c0,0-0.14-0.84-0.57-2.59c-0.01-0.02-0.01-0.05-0.02-0.08c-1.24-8.57-4.38-18.84-9.07-29.34v-0.01
	c-3.73-32.54-9.79-42.31-25.24-67.08v-0.01c14.08-3.41,43.38-6.2,79.34,14.64c32.31-17.59,47.76-24.32,37.78-11.69
	C614.52,587.58,620.25,583.43,624.23,581.27z"/>
<path fill="#FFFFFF" stroke="#000000" stroke-miterlimit="10" d="M567.08,685.94c-0.12,0.07-0.24,0.13-0.36,0.19
	c-13.72,6.95-44.73,3.74-44.73,3.74c0.48-26.49,36.83-10.34,36.83-10.34S561.98,681.87,567.08,685.94z"/>
<path fill="#FFFFFF" stroke="#000000" stroke-miterlimit="10" d="M713.69,474.86c-1.11,0.37-2.28,0.74-3.5,1.15
	c-2.1,4.69-4.29,9.03-6.55,13.04c-4.16,7.39-8.53,13.69-12.91,19.1c-2.54,3.13-5.08,5.97-7.58,8.54
	c-7.22,7.43-14.13,12.69-19.76,16.71c-3.7,2.64-6.84,4.75-9.16,6.59c-0.66,1.62-1.42,3.27-2.28,4.96v0.01
	c-6.53,2.26-14.49,5.03-23.27,8.11c16.64-25.24-19-0.91-55.6,8.12c-46.29-22.26-98.88-17.46-122.81-13.53
	c-2.55-5.66-4.87-11.69-7.93-18.48c3.95,1.7,8.48,3.06,13.71,3.98c-0.71-8.85-10.96-17.05-10.96-17.05s-9.73-0.96-18.92-5.42
	c-4.26-7.35-7.26-15.52-9.36-23.64c4.25,3.91,9.1,7.1,14.17,8.68c2.26-14.97-6.42-20.91-6.42-20.91s-5.09-1.53-11.04-4.86
	c-1.28-9.64-1.54-18.19-1.52-23.86c13.48,9.03,36.06,22.95,51.77,26.34c23.76,5.11,102.18,7.49,113.59,20.32
	c11.4,12.83,21.86,27.09,21.86,27.09s41.69-20.43,47.22-29.46C646.44,490.39,694.81,480.57,713.69,474.86z"/>
<path fill="#FFFFFF" stroke="#000000" stroke-miterlimit="10" d="M430.98,495.73c-5.07-1.58-9.92-4.77-14.17-8.68v-0.01
	c-9.2-8.44-15.61-20.3-15.53-26.71c3.56,4.14,8.11,7.32,12.24,9.63c5.95,3.33,11.04,4.86,11.04,4.86S433.24,480.76,430.98,495.73z"
	/>
<path fill="#FFFFFF" stroke="#000000" stroke-miterlimit="10" d="M651.95,544.96c-1.34,2.65-2.91,5.39-4.69,8.16
	c-0.01,0.01-0.01,0.01-0.01,0.02c-5.58,8.68-13.25,17.75-22.61,26.06c-0.12,0.7-0.25,1.39-0.41,2.07
	c-3.98,2.16-9.71,6.31-20.02,12.44c9.98-12.63-5.47-5.9-37.78,11.69c-35.96-20.84-65.26-18.05-79.34-14.64
	c-0.92-1.48-1.88-3.01-2.88-4.61c-20.8-14.12-28.01-25.31-33.94-38.49c23.93-3.93,76.52-8.73,122.81,13.53
	c36.6-9.03,72.24-33.36,55.6-8.12C637.46,549.99,645.42,547.22,651.95,544.96z"/>
<path fill="#FFFFFF" stroke="#000000" stroke-miterlimit="10" d="M713.85,713.22c0.05,2.55-3.65,10.59-7.13,17.69l-0.04,0.07
	l-2.05,3.13l-14.4,22.06l-14.62-27.45c0,0-21.38,17.82-40.99,30.3c-2.8-8.43-10.99-17.31-16.29-22.42c0.51-0.57,0.97-1.1,1.38-1.56
	c-9.85-11.33-21.25-22.24-31.5-31.34c-8.25-7.33-15.77-13.5-21.13-17.76c13.65-7.13,29.27-28.02,34.04-53.45
	c0.18-0.97,0.38-1.91,0.59-2.83c11.46-22.22,38.91-35,43.34-36.94c0.4-0.18,0.61-0.27,0.61-0.27
	c14.05,11.11,40.86,32.83,48.13,42.17c4.14,5.33,6.26,18.48,7.33,32.04c-1.23,1.87-2.2,3.51-2.81,4.8
	c-1.13,2.38,0.52,7.71,3.73,14.39v0.01c0.1,4.29,0.12,8.19,0.1,11.37C707.99,703.76,713.8,710.84,713.85,713.22z"/>
<path fill="#FFFFFF" stroke="#000000" stroke-miterlimit="10" d="M402.23,737.28c0,0.71,0.14,1.75,0.41,3.01
	c0,0-9.83,13.38-13.23,20.04c-3.32-1.73-6.39-2.61-9.28-2.74c-4.43-0.19-9.17,0.56-11.84-3.69c10.06-12.34,20.74-33.96,27.94-61.42
	c6.17,3.93,13,10.45,17.05,21.09C409.18,725.69,402.23,732.29,402.23,737.28z"/>
<path fill="#FFFFFF" stroke="#000000" stroke-miterlimit="10" d="M509.63,774.35c0,0-3.8,11.4-15.44,22.57
	c-6.03,5.78-9.63,12-11.71,16.66c-1.94,4.35-2.55,7.34-2.55,7.34c-36.36-18.77-44.2,5.7-55.6,6.89c-7.28,0.76-14.75-2.64-19.2-5.19
	v-0.01c-0.38-10.83-7.66-19.52-15.6-24.87c6.82-3.79,13.44-9.98,20.9-18.76c-8.07-9.45-14.95-15.48-21.02-18.65
	c3.4-6.66,13.23-20.04,13.23-20.04c1.59,7.61,7.7,23.28,14.74,22.83c6.17-0.41,18.4-6.77,28.94-16.51
	c8.72,12.17,27.01,37.79,27.55,39.14c16.4-10.69,26.13-41.88,26.13-41.88l3.34-1.7c0.75,2.56,2.55,11.87,4.03,19.82V762
	C508.61,768.66,509.63,774.35,509.63,774.35z"/>
<path fill="#FFFFFF" stroke="#000000" stroke-miterlimit="10" d="M479.84,859.21c0.08-0.39,0.09-0.63,0.09-0.63
	s-0.83-20.55-13.66-28.63c-0.79-0.49-9.27,19.86-5.59,29.06c1.66,0.73,3.04,1.36,4.19,1.92c-4.12,0.1-8.29-0.07-12.42-0.43
	c-0.73-16.85-11.25-31.62-11.25-31.62c-6.54,7.37-6.54,26.73-6.77,28.16c-0.04,0.25,0.17,0.54,0.59,0.85
	c-16.68-3.48-29.97-8.96-32.08-11.07c-3.94-3.94-1.64-2.03,1.1-15.03c0.24-1.13,0.48-2.37,0.72-3.74c0.33-1.86,0.45-3.68,0.37-5.43
	c4.45,2.55,11.92,5.95,19.2,5.19c11.4-1.19,19.24-25.66,55.6-6.89c0,0,2.4,2.7,4.87,7.11c-1.22,3.43-4.75,15.9,2.84,28.86
	C485.15,857.85,482.54,858.62,479.84,859.21z"/>
<path fill="#FFFFFF" stroke="#000000" stroke-miterlimit="10" d="M713.75,760.62c-1.42,9.09-14.25,27.45-23.17,39.92
	c-15.32-10.69-32.79,1.96-32.79,1.96c-3.21-1.24-22.28,4.82-30.12,5.17c-5.84,0.27-13.56-7.31-17.63-10.87
	c-0.01,0-0.01-0.01-0.01-0.01c-3.02-5.56-6.87-11.11-9.09-14.07c-4.28-5.7-2.2-10.27,2.32-22.87c3.05-8.5,10.54-17.99,15.07-23.25
	c5.3,5.11,13.49,13.99,16.29,22.42c19.61-12.48,40.99-30.3,40.99-30.3l14.62,27.45l14.4-22.06c0.08,0.17,0.17,0.33,0.26,0.51
	C709.14,742.88,714.64,754.94,713.75,760.62z"/>
<path fill="#FFFFFF" stroke="#000000" stroke-miterlimit="10" d="M644.96,591.89c0.03,0.27,0.06,0.55,0.09,0.83
	c-4.43,1.94-31.88,14.72-43.34,36.94c5.17-22.59,18.76-31.27,22.52-48.39c0.16-0.68,0.29-1.37,0.41-2.07
	c9.36-8.31,17.03-17.38,22.61-26.06c-1.44,8.24-3.64,24.15-2.29,38.74C644.96,591.88,644.96,591.88,644.96,591.89z"/>
<path fill="#FFFFFF" stroke="#000000" stroke-miterlimit="10" d="M706.04,834.82c-1.75,0.68-3.85,1.37-6.34,1.99
	c-1.04-5.96-4.52-19.11-15.44-24.68c0,0-2.28,10.51-2.6,15.06c-0.3,4.29,0.41,10.14,3.1,11.82c-1.43,0.1-2.94,0.17-4.51,0.21
	c-0.61,0.02-1.23,0.03-1.86,0.03c-0.96-4.79-7.03-22.18-16.32-24.89c0,0-4.53,16.5-3.79,23.79c-22.54-2.35-45.78-7.81-47.96-9.8
	c-2.92-2.68,2.74-11.77,3.99-18.18c0.6-3.09-1.48-8.23-4.27-13.37c4.07,3.56,11.79,11.14,17.63,10.87
	c7.84-0.35,26.91-6.41,30.12-5.17c0,0,17.47-12.65,32.79-1.96c6.28,3.81,10.9,8.18,14.29,12.36c-2.71-2.17-4.75-3.09-4.75-3.09
	c-4.37,3.66,4.81,24.77,4.81,24.77S705.33,834.69,706.04,834.82z"/>
<path fill="#FFFFFF" stroke="#000000" stroke-miterlimit="10" d="M847.74,383.37c0,0,0,0-0.01-0.01
	c-2.67-11.5-27.29-42.7-45.11-78.08c-17.82-35.41-17.58-65.94-17.58-65.94s4.06,0.87,10.4,2.69c1.89,1.35,3.77,2.81,5.6,4.41
	c0.6-0.66,1.26-1.36,1.99-2.09c16.63,5.4,40.88,15.34,55.08,30.63C878.48,296.91,862.94,355.49,847.74,383.37z"/>
<path fill="#FFFFFF" stroke="#000000" stroke-miterlimit="10" d="M785.99,350.66c-5.94-19.24-18.3-32.08-22.81-33.03
	c-4.52-0.95-96.71,50.14-96.71,50.14s-14.5,31.61-22.82,30.66c-8.31-0.95-12.35-25.19-19.48-31.13c-2.02-1.68-7.23-3.48-15.68-6.34
	c-8.08-2.73-19.13-6.45-33.18-11.98c-9.9-3.88-21.28-8.67-34.17-14.66h-0.01c-17.29-8.01-37.28-18.18-60.01-31.18
	c-16.51-9.45-52.52,12.12-73.55,31.36c-21.03,19.25-33.86,52.04-32.43,62.38c0.49,3.53,4.97,9.56,10.66,15.97
	c10.96,12.35,26.41,26.09,26.41,26.09s-0.19,2.68-0.21,7.16c13.48,9.03,36.06,22.95,51.77,26.34
	c23.76,5.11,102.18,7.49,113.59,20.32c11.4,12.83,21.86,27.09,21.86,27.09s41.69-20.43,47.22-29.46c0,0,48.37-9.82,67.25-15.53
	c0.93-0.28,1.78-0.55,2.56-0.81c4.15-1.31,7.47-2.31,10.33-3.24c0.47-1.55,0.95-3.07,1.42-4.56c0.22,1.22,0.55,2.47,1.03,3.73
	c8.52-2.99,13.23-6.09,26.54-17.85c20.44-18.06,35.89-41.35,37.31-48.48C794.31,396.52,791.93,369.91,785.99,350.66z M461.4,425.04
	c-1.43,2.26-8.08,4.51-12,1.43c-3.92-3.09-19.85-24.12-21.32-35.29c8.5,11.41,27.1,17.51,30.82,21.5
	C462.11,416.13,462.82,422.78,461.4,425.04z M472.56,389.04c-2.25,2.97-6.65,2.38-9.03,1.07c-2.37-1.31-11.4-13.07-13.06-26.26
	c7.36,11.53,17.69,12.17,20.67,15.57C472.8,381.32,474.82,386.07,472.56,389.04z M490.18,354.11c-1.34,1.42-4.64,3.56-9.18,0
	c-4.54-3.57-10.51-16.66-9.8-21.65c5.79,9.17,16.48,12.29,16.48,12.29C490.54,345.84,491.51,352.68,490.18,354.11z M751.42,345.79
	c2.13-0.95,11.05-11.4,11.05-11.4s0.47,1.9,0,9.03c-0.48,7.12-6.06,16.39-9.51,14.25C749.51,355.53,751.42,345.79,751.42,345.79z
	 M747.61,429.67c-4.51-1.42,0-12.47,0-12.47s6.54-2.62,18.54-14.02C766.62,412.45,752.13,431.1,747.61,429.67z M756.17,396.76
	c-9.39-2.97-1.9-16.39-1.9-16.39c5.11,1.42,17.23-14.26,17.23-14.26S767.93,394.03,756.17,396.76z"/>
<path fill="#FFFFFF" stroke="#000000" stroke-miterlimit="10" d="M848.49,386.31c-2.15,8.42-3.49,26.61-6.75,44.25
	c-0.74,0.17-1.53,0.46-2.36,0.92c-3.37,1.84-7.32,6.34-11.21,16.13c-9.98,25.07-48.3,67.96-58.64,66.89
	c-10.33-1.06-31.72-28.33-39.03-41.34c-0.6-1.06-1.08-2.13-1.47-3.18c8.52-2.99,13.23-6.09,26.54-17.85
	c20.44-18.06,35.89-41.35,37.31-48.48c1.43-7.13-0.95-33.74-6.89-52.99c-5.94-19.24-18.3-32.08-22.81-33.03
	c-4.52-0.95-96.71,50.14-96.71,50.14s-14.5,31.61-22.82,30.66c-8.31-0.95-12.35-25.19-19.48-31.13c-2.02-1.68-7.23-3.48-15.68-6.34
	c-24.12-46.16-53.79-59.69-43.91-89.19c9.12-27.19,72.07-48.68,88.64-53.91c0.61,7.63,1.97,16.95,4.8,26.93
	c-7.3,10.6-17.7,30.87-14.37,57.16c4.88-7.36,25.72-14.47,34.31-17.28c3.2,4.08,6.79,8.06,10.84,11.87
	c0.01-0.48,0.03-0.95,0.07-1.43c3.15,2.71,14.15,10.76,34.86,11.95c24.95,1.43,49.73-7.49,49.73-7.49l-9.64-16.73
	c3.74,1.03,15.84,4.84,23,12.9c-1.67-31.77-10.18-47.12-13.44-51.69c-0.09-4.62-0.52-9.86-1.76-13.58c0.08-0.11,0.16-0.23,0.24-0.35
	c1.33,0.42,3.06,1.04,5.08,1.85c5.04,2.03,11.84,5.31,18.5,10.06c-6.34-1.82-10.4-2.69-10.4-2.69s-0.24,30.53,17.58,65.94
	c17.82,35.38,42.44,66.58,45.11,78.08c0.01,0.01,0.01,0.01,0.01,0.01c0,0.01,0,0.01,0,0.01
	C848.17,384.52,848.43,385.51,848.49,386.31z"/>
<path fill="#FFFFFF" stroke="#000000" stroke-miterlimit="10" d="M880.53,681.15c-0.04,0.44-0.11,0.85-0.2,1.24
	c-1.67,6.89-7.61,14.13-9.75,23.34c-2.13,9.21,0,35.82-3.56,42.72c-3.56,6.89-66.77,37.54-70.34,37.3
	c-3.11-0.21-7.43-21.28-4.93-33.89c0.36-1.82,0.86-3.46,1.53-4.84c5.3-10.93,27.88-26.2,29.54-33.18
	c1.13-4.73-3.42-17.18-10.69-29.37c-3.46-5.79-7.52-11.52-11.88-16.34c-9.6-10.62-13.59-15.38-16.37-16.99
	c14.63-21.31,59.67-53.63,88.39-49.77c-0.21,4.14-0.36,8.27-0.48,12.31c-2-3.01-3.94-4.94-5.72-5.19
	c-2.12-0.31-16.87,28.03-9.27,80.07c0,0,0.19-0.16,0.53-0.44C862.31,684.31,875.61,679.47,880.53,681.15z"/>
<path fill="#FFFFFF" stroke="#000000" stroke-miterlimit="10" d="M874.62,573.55c-1.19,8.91-1.9,18.42-2.35,27.82
	c-28.72-3.86-73.76,28.46-88.39,49.77c-0.45-0.26-0.87-0.45-1.28-0.55c-1.78-24.85-18.95-44.06-23.67-48.9
	c-0.18-4.88-0.62-7.82-0.62-7.82c-3.01-1.04-10.56,3.23-18.35,8.83c-0.15-4.61-0.91-9.81-2.55-15.63
	c-9.03-32.08-24.89-28.25-23.56-58.66c0.67-15.14,6.77-38.23,12.73-57.6c0.86-0.28,1.67-0.56,2.45-0.83
	c0.39,1.05,0.87,2.12,1.47,3.18c7.31,13.01,28.7,40.28,39.03,41.34c10.34,1.07,48.66-41.82,58.64-66.89
	c3.89-9.79,7.84-14.29,11.21-16.13c0.6,0.45,1.24,0.94,1.91,1.46c13.33,10.36,38.53,33.58,44.74,64.81
	C888.94,499.32,879.96,533.52,874.62,573.55z"/>
<path fill="#FFFFFF" stroke="#000000" stroke-miterlimit="10" d="M743.34,660.41c0,0-0.03-0.04-0.09-0.11
	c-4.33-5.5-10.09-19.2-14.49-28.12c-2.37-4.79-4.35-8.21-5.5-8.25c-2.44-0.09-7.24,15.84-9.63,24.36
	c0.17-8.02,1.36-21.69,4.99-26.74c2.76-3.85,12.21-12.27,21.34-18.85c7.79-5.6,15.34-9.87,18.35-8.83c0,0,0.44,2.94,0.62,7.82
	C759.38,614.14,758.1,639.24,743.34,660.41z"/>
<path fill="#FFFFFF" stroke="#000000" stroke-miterlimit="10" d="M782.6,650.59c-0.62-0.18-1.21-0.18-1.84-0.05
	c-3.56,0.72-23.28,20.2-24.71,24.24c-1.43,4.04,9.03,25.9,8.32,29.47c-0.72,3.56-18.78,36.12-24.72,34.69
	c-4.45-1.07-27.99-33.1-37.61-53.08v-0.01c-3.21-6.68-4.86-12.01-3.73-14.39c0.61-1.29,1.58-2.93,2.81-4.8
	c2.96-4.54,7.43-10.45,11.87-16.07c0.21-0.26,0.42-0.52,0.62-0.78c0-0.42,0.01-0.86,0.02-1.32c1.28-1.47,3.02-3.22,4.81-4.66
	l0.01-0.01c2.61-2.11,5.34-3.56,6.95-2.54c3.39,2.14,16.62,17.58,17.85,19.02c0.06,0.07,0.09,0.11,0.09,0.11
	c14.76-21.17,16.04-46.27,15.59-58.72C763.65,606.53,780.82,625.74,782.6,650.59z"/>
<path fill="#FFFFFF" stroke="#000000" stroke-miterlimit="10" d="M743.25,660.3c-1.23-1.44-14.46-16.88-17.85-19.02
	c-1.61-1.02-4.34,0.43-6.95,2.54l-0.01,0.01c-1.79,1.44-3.53,3.19-4.81,4.66v-0.2c2.39-8.52,7.19-24.45,9.63-24.36
	c1.15,0.04,3.13,3.46,5.5,8.25C733.16,641.1,738.92,654.8,743.25,660.3z"/>
<path fill="#FFFFFF" stroke="#000000" stroke-miterlimit="10" d="M891.02,668.6c-0.05,0.45-0.12,0.9-0.21,1.34
	c-1.47-0.26-3.91,0-7.93,1.49c-1,0.37-2.04,0.82-3.1,1.33c-9.03,4.36-19.95,13.27-22.45,15.36c-0.34,0.28-0.53,0.44-0.53,0.44
	c-7.6-52.04,7.15-80.38,9.27-80.07c1.78,0.25,3.72,2.18,5.72,5.19C881.04,627.61,891.41,664.89,891.02,668.6z"/>
<path fill="#FFFFFF" stroke="#000000" stroke-miterlimit="10" d="M890.81,669.94c-0.82,4-3.45,7.76-8.58,12.68
	c-0.27-0.7-0.86-1.18-1.7-1.47c-4.92-1.68-18.22,3.16-23.2,6.97c2.5-2.09,13.42-11,22.45-15.36c1.06-0.51,2.1-0.96,3.1-1.33
	C886.9,669.94,889.34,669.68,890.81,669.94z"/>
<path fill="#FFFFFF" stroke="#000000" stroke-miterlimit="10" d="M490.18,354.11c-1.34,1.42-4.64,3.56-9.18,0
	c-4.54-3.57-10.51-16.66-9.8-21.65c5.79,9.17,16.48,12.29,16.48,12.29C490.54,345.84,491.51,352.68,490.18,354.11z"/>
<path fill="#FFFFFF" stroke="#000000" stroke-miterlimit="10" d="M472.56,389.04c-2.25,2.97-6.65,2.38-9.03,1.07
	c-2.37-1.31-11.4-13.07-13.06-26.26c7.36,11.53,17.69,12.17,20.67,15.57C472.8,381.32,474.82,386.07,472.56,389.04z"/>
<path fill="#FFFFFF" stroke="#000000" stroke-miterlimit="10" d="M461.4,425.04c-1.43,2.26-8.08,4.51-12,1.43
	c-3.92-3.09-19.85-24.12-21.32-35.29c8.5,11.41,27.1,17.51,30.82,21.5C462.11,416.13,462.82,422.78,461.4,425.04z"/>
<path fill="#FFFFFF" stroke="#000000" stroke-miterlimit="10" d="M456.05,533.16c-5.23-0.92-9.76-2.28-13.71-3.98
	c-12.33-5.29-19.04-13.96-23.89-23.41c2.35,1.99,5.01,3.61,7.72,4.92c9.19,4.46,18.92,5.42,18.92,5.42S455.34,524.31,456.05,533.16z
	"/>
<path fill="#FFFFFF" stroke="#000000" stroke-miterlimit="10" d="M762.47,343.42c-0.48,7.12-6.06,16.39-9.51,14.25
	c-3.45-2.14-1.54-11.88-1.54-11.88c2.13-0.95,11.05-11.4,11.05-11.4S762.94,336.29,762.47,343.42z"/>
<path fill="#FFFFFF" stroke="#000000" stroke-miterlimit="10" d="M747.61,429.67c-4.51-1.42,0-12.47,0-12.47s6.54-2.62,18.54-14.02
	C766.62,412.45,752.13,431.1,747.61,429.67z"/>
<path fill="#FFFFFF" stroke="#000000" stroke-miterlimit="10" d="M771.5,366.11c0,0-3.57,27.92-15.33,30.65
	c-9.39-2.97-1.9-16.39-1.9-16.39C759.38,381.79,771.5,366.11,771.5,366.11z"/>
<path fill="#FFFFFF" stroke="#000000" stroke-miterlimit="10" d="M717.91,482.07c-4.04,6.89-15.99,21.39-27.18,26.08
	c4.38-5.41,8.75-11.71,12.91-19.1C708.68,487.16,715.56,484.34,717.91,482.07z"/>
<path fill="#FFFFFF" stroke="#000000" stroke-miterlimit="10" d="M700.21,509.87c-4.96,9.91-22.44,24.41-36.82,23.53
	c5.63-4.02,12.54-9.28,19.76-16.71C687.19,516.63,693.44,515.4,700.21,509.87z"/>
<path fill="#FFFFFF" stroke="#000000" stroke-miterlimit="10" d="M703.59,262.15c-0.01,1.73-13.57,17.69-14.72,32.96
	c-0.04,0.48-0.06,0.95-0.07,1.43c-4.05-3.81-7.64-7.79-10.84-11.87c2.18-0.72,3.57-1.15,3.71-1.25c0.72-0.48,5.71-13.91,0-26.08
	c-5.7-12.18-10.69-19.55-17.11-20.74c0,0-2.88,2.88-6.54,8.19c-2.83-9.98-4.19-19.3-4.8-26.93c-0.78-9.83-0.31-16.88-0.12-19.01
	c0.83,1.49,1.85,2.93,3.09,4.13c2.42,2.33,13.04,12,27.81,22.5c0.18,0.7,0.72,2.69,1.65,5.25c-1.39-0.72-2.35-1.2-2.73-1.37
	c-2.49-1.07,3.92,21.74,4.46,22.63C687.91,252.88,703.59,260.37,703.59,262.15z"/>
<path fill="#FFFFFF" stroke="#000000" stroke-miterlimit="10" d="M754.39,210.29c0,0-4.75-3.88-12.9-7.24
	c-3.32-1.38-7.21-2.67-11.57-3.57c1.54,2.77,3.03,5.59,3.35,6.71c0.71,2.49-0.04,5.15-2.99,5.08c-3.78-0.09-7.17-2.32-7.44-5.08
	c-0.13-1.36,0.64-4.64,1.47-7.62c-0.69-0.07-1.38-0.14-2.09-0.19c-3.06-0.25-6.28-0.28-9.64-0.01c-9,0.71-19.02,3.49-29.62,9.79
	c2.69,5.85,9.3,15.6,25.45,26.28c6.29,4.16,11.67,7.51,16.2,10.2c13.63,8.08,19.65,10.21,20.12,10.37c0.01,0.01,0.02,0.01,0.03,0.01
	c4.1-2.85,20.68-25.49,21.91-31.01C767.9,218.49,754.39,210.29,754.39,210.29z M742.27,232.65c-1.41-0.24-10.08-7.21-11.27-8.17
	c0.57-2.89,2.85-13.58,5.39-14.19C739.42,216.79,743.78,232.92,742.27,232.65z"/>
<path fill="#FFFFFF" stroke="#000000" stroke-miterlimit="10" d="M744.76,255.02c-4.45,0.36-12.29-3.03-20.85-6.59
	c-1.2-0.35-2.55-0.81-4.03-1.37c0.17-0.07,0.34-0.15,0.5-0.23c-2.06-0.93-4.1-1.9-6.12-2.92c-10.99-5.5-21.38-12.12-30.26-18.43
	c-14.77-10.5-25.39-20.17-27.81-22.5c-1.24-1.2-2.26-2.64-3.09-4.13c0,0,0,0,0-0.01c0.03-0.43,0.06-0.66,0.06-0.66
	s7.84,4.27,29.23,10.32c0.19-0.12,0.38-0.23,0.57-0.34c2.69,5.85,9.3,15.6,25.45,26.28c6.29,4.16,11.67,7.51,16.2,10.2
	c13.63,8.08,19.65,10.21,20.12,10.37C744.74,255.02,744.75,255.02,744.76,255.02z"/>
<path fill="#FFFFFF" stroke="#000000" stroke-miterlimit="10" d="M742.27,232.65c-1.41-0.24-10.08-7.21-11.27-8.17
	c0.57-2.89,2.85-13.58,5.39-14.19C739.42,216.79,743.78,232.92,742.27,232.65z"/>
<path fill="#FFFFFF" stroke="#000000" stroke-miterlimit="10" d="M771.86,230.12c-0.14-0.05-0.27-0.09-0.4-0.13
	c0.06,0.15,0.11,0.31,0.16,0.48c-0.95,1.45-1.96,2.85-2.99,4.19c0,0.01,0,0.01,0,0.01c-0.66,0.86-1.33,1.69-2.01,2.51
	c-3.25,3.91-6.67,7.3-9.84,10.04c-1.08,0.93-2.12,1.79-3.12,2.56c-0.01,0-0.01,0-0.01,0c-4.21,3.27-7.58,5.13-8.89,5.24
	c4.1-2.85,20.68-25.49,21.91-31.01c1.23-5.52-12.28-13.72-12.28-13.72s6.95,1.6,26.55-3.92
	C779.97,215.1,776.41,223.17,771.86,230.12z"/>
<path fill="#FFFFFF" stroke="#000000" stroke-miterlimit="10" d="M763.97,281.02v0.01c-0.06,0.33-0.13,0.65-0.19,0.96
	c-0.14,0-0.29,0-0.44,0.01c-2.84,0.07-7.11,0.91-10.74,1.45c-4.81,0.71-28.24-0.09-33.68-1.07c-5.43-0.98-24.77,10.69-25.31,10.33
	c0,0,17.65-13.81,23.97-13.54c6.33,0.27,20.5,1.69,25.67,1.69C748.29,280.86,757.56,277.52,763.97,281.02z"/>
<path fill="#FFFFFF" stroke="#000000" stroke-miterlimit="10" d="M714.26,243.91c-10.99-5.5-21.38-12.12-30.26-18.43
	c0.18,0.7,0.72,2.69,1.65,5.25h0.01c2.36,6.47,7.25,16.64,15.26,19.18c6.04,1.91,13.26-0.23,18.95-2.85h0.01
	c0.17-0.07,0.34-0.15,0.5-0.23C718.32,245.9,716.28,244.93,714.26,243.91z M703.33,246.02c-3.74-0.37-6.38-6.48-7.64-10.13
	c5.43,2.75,11.79,5.9,17.53,8.43C711.09,245.13,707.03,246.39,703.33,246.02z"/>
<path fill="#FFFFFF" stroke="#000000" stroke-miterlimit="10" d="M713.22,244.32c-2.13,0.81-6.19,2.07-9.89,1.7
	c-3.74-0.37-6.38-6.48-7.64-10.13C701.12,238.64,707.48,241.79,713.22,244.32z"/>
<path fill="#FFFFFF" stroke="#000000" stroke-miterlimit="10" d="M786.82,295.74c-7.16-8.06-19.26-11.87-23-12.9l-0.16-0.28
	c0.04-0.18,0.08-0.37,0.12-0.57c0.06-0.31,0.13-0.63,0.19-0.96v-0.01c0.43-2.2,0.82-4.68,0.93-6.84c0.27-5.26-0.44-13.28-0.44-13.28
	s8.55-6.33,8.64-6.59c0.04-0.13,0.4-4.76,0.28-10.26C776.64,248.62,785.15,263.97,786.82,295.74z"/>
<path fill="#FFFFFF" stroke="#000000" stroke-miterlimit="10" d="M773.46,299.57c0,0-24.78,8.92-49.73,7.49
	c-20.71-1.19-31.71-9.24-34.86-11.95c1.15-15.27,14.71-31.23,14.72-32.96c0-1.78-15.68-9.27-16.21-10.16
	c-0.54-0.89-6.95-23.7-4.46-22.63c0.38,0.17,1.34,0.65,2.73,1.37h0.01c2.36,6.47,7.25,16.64,15.26,19.18
	c6.04,1.91,13.26-0.23,18.95-2.85h0.01c1.48,0.56,2.83,1.02,4.03,1.37c8.56,3.56,16.4,6.95,20.85,6.59
	c1.31-0.11,4.68-1.97,8.89-5.24c0,0,0,0,0.01,0c5.71,1.32,13.95-1.36,15.34-4.15c1.02-2.05,0.26-7.52-0.37-10.96c0,0,0,0,0-0.01
	c1.03-1.34,2.04-2.74,2.99-4.19c1.24,3.72,1.67,8.96,1.76,13.58c0.12,5.5-0.24,10.13-0.28,10.26c-0.09,0.26-8.64,6.59-8.64,6.59
	s0.71,8.02,0.44,13.28c-0.11,2.16-0.5,4.64-0.93,6.84c-6.41-3.5-15.68-0.16-20.72-0.16c-5.17,0-19.34-1.42-25.67-1.69
	c-6.32-0.27-23.97,13.54-23.97,13.54c0.54,0.36,19.88-11.31,25.31-10.33c5.44,0.98,28.87,1.78,33.68,1.07
	c3.63-0.54,7.9-1.38,10.74-1.45c0.15-0.01,0.3-0.01,0.44-0.01c-0.04,0.2-0.08,0.39-0.12,0.57l0.16,0.28L773.46,299.57z"/>
<path fill="#FFFFFF" stroke="#000000" stroke-miterlimit="10" d="M764.72,244.56c-1.72,1.76-5.33,2.42-7.94,2.66
	c3.17-2.74,6.59-6.13,9.84-10.04C766.76,239.1,766.69,242.54,764.72,244.56z"/>
<path fill="#FFFFFF" stroke="#000000" stroke-miterlimit="10" d="M769,245.63c-1.39,2.79-9.63,5.47-15.34,4.15
	c1-0.77,2.04-1.63,3.12-2.56c2.61-0.24,6.22-0.9,7.94-2.66c1.97-2.02,2.04-5.46,1.9-7.38c0.68-0.82,1.35-1.65,2.01-2.51
	C769.26,238.11,770.02,243.58,769,245.63z"/>
<path fill="#FFFFFF" stroke="#000000" stroke-miterlimit="10" d="M681.67,283.42c-0.14,0.1-1.53,0.53-3.71,1.25
	c-8.59,2.81-29.43,9.92-34.31,17.28c-3.33-26.29,7.07-46.56,14.37-57.16c3.66-5.31,6.54-8.19,6.54-8.19
	c6.42,1.19,11.41,8.56,17.11,20.74C687.38,269.51,682.39,282.94,681.67,283.42z"/>
<path fill="#FFFFFF" stroke="#000000" stroke-miterlimit="10" d="M310.23,695.02c3.71,8.23,7.34,19.05,7.52,30.1
	c-0.6-0.66-1.2-1.25-1.79-1.79c-3.52-3.75-8.82-10.67-12.68-20.78c0,0-0.01-0.01-0.01-0.02c-1.65-8.09-2.73-17.74,0.63-19.53
	c5.71-3.05,36.59,11.59,50.08,29.94C345.88,706.44,316.41,692.3,310.23,695.02z"/>
<path fill="#FFFFFF" stroke="#000000" stroke-miterlimit="10" d="M354.11,713.04c-0.04-0.03-0.07-0.06-0.12-0.09c0,0,0,0-0.01-0.01
	c-13.49-18.35-44.37-32.99-50.08-29.94c-3.36,1.79-2.28,11.44-0.63,19.53c-1.87-4.9-3.41-10.55-4.23-16.94
	c-3.39-26.37,10.51-64.51,10.51-64.51C310.98,621.08,344.84,650.31,354.11,713.04z"/>
<path fill="#FFFFFF" stroke="#000000" stroke-miterlimit="10" d="M302.91,718.56c-0.04-0.03-0.09-0.06-0.14-0.09
	c-15.65-21.69-34.92-26.46-35.45-26.64c0,0-0.23,4.21,0.63,10.06c0,0.01,0,0.01,0,0.02c0.62,4.3,1.83,9.47,4.15,14.51
	c0.13,0.29,0.26,0.57,0.4,0.86c0.05,0.44,0.1,0.9,0.13,1.36c-0.18-0.18-0.34-0.36-0.51-0.54c-0.67-0.75-1.29-1.48-1.87-2.21
	c-1.7-2.16-3.05-4.31-4.23-6.79v-0.01c-1.63-3.44-2.94-7.48-4.41-12.98c-0.93-3.46-1.4-7.52-1.44-12.08
	c-0.14-12.15,2.73-27.8,8.04-44.77C285.85,648.25,301.98,714.65,302.91,718.56z"/>
<path fill="#FFFFFF" stroke="#000000" stroke-miterlimit="10" d="M245.6,723.03c-0.03,0.15-0.06,0.3-0.09,0.45
	c-11.81-15.22-6.89-39.1-2.53-52.8c2.04-6.44,3.96-10.63,3.96-10.63s5.26,1.45,13.23,23.98c0.04,4.56,0.51,8.62,1.44,12.08
	c1.47,5.5,2.78,9.54,4.41,12.98c-3.76-3.39-11.9-10.27-18.09-12.18c-2.28-0.72-4.31-0.75-5.74,0.33
	C237.11,701.04,242.67,716.09,245.6,723.03z"/>
<path fill="#FFFFFF" stroke="#000000" stroke-miterlimit="10" d="M270.25,715.89c-13.28-9.86-22.48-9.4-22.48-9.4
	c-0.34,5.86-1.11,11.52-2.17,16.54c-2.93-6.94-8.49-21.99-3.41-25.79c1.43-1.08,3.46-1.05,5.74-0.33
	c6.19,1.91,14.33,8.79,18.09,12.18v0.01C267.2,711.58,268.55,713.73,270.25,715.89z"/>
<path fill="#FFFFFF" stroke="#000000" stroke-miterlimit="10" d="M512.33,657.85c-11.03-24.75-30.63-50.75-54.26-58.63
	c-25.55-8.52-45.98-0.92-56.02,3.55c-6.1-29.26-21.12-46.39-29.76-54.29c0.63-15.55-1.55-36.7-22.14-57.78l35.65-77.85
	c10.96,12.35,26.41,26.09,26.41,26.09s-0.19,2.68-0.21,7.16c-0.02,5.67,0.24,14.22,1.52,23.86c-4.13-2.31-8.68-5.49-12.24-9.63
	c-0.08,6.41,6.33,18.27,15.53,26.71v0.01c2.1,8.12,5.1,16.29,9.36,23.64c-2.71-1.31-5.37-2.93-7.72-4.92
	c4.85,9.45,11.56,18.12,23.89,23.41c3.06,6.79,5.38,12.82,7.93,18.48c5.93,13.18,13.14,24.37,33.94,38.49c1,1.6,1.96,3.13,2.88,4.61
	v0.01C502.54,615.54,508.6,625.31,512.33,657.85z"/>
<path fill="#FFFFFF" stroke="#000000" stroke-miterlimit="10" d="M542.64,765.93c-15.32,15.34-35,31.69-60.16,47.65
	c2.08-4.66,5.68-10.88,11.71-16.66c11.64-11.17,15.44-22.57,15.44-22.57s-1.02-5.69-2.26-12.35c4.37,3.86,11.82,7.47,23.89,5.81
	C535.82,767.18,539.56,766.54,542.64,765.93z"/>
<path fill="#FFFFFF" stroke="#000000" stroke-miterlimit="10" d="M583.1,713.57c-7.62,13.6-20.24,32.11-40.46,52.36
	c-3.08,0.61-6.82,1.25-11.38,1.88c-12.07,1.66-19.52-1.95-23.89-5.81v-0.01c-1.48-7.95-3.28-17.26-4.03-19.82
	c-0.04-0.15-0.08-0.28-0.12-0.38c4.58-5.49,10.81-14.4,14.82-27.1c11.04,2.16,28.21,4.02,48.86,1.2
	C573.99,714.92,579.24,714.17,583.1,713.57z"/>
<path fill="#FFFFFF" stroke="#000000" stroke-miterlimit="10" d="M588.21,703.7c-1.37,2.89-3.06,6.2-5.11,9.87
	c-3.86,0.6-9.11,1.35-16.2,2.32c-20.65,2.82-37.82,0.96-48.86-1.2c2.06-6.52,3.53-14.05,3.88-22.62v-0.01
	c0.04-0.72,0.06-1.45,0.07-2.19c0,0,31.01,3.21,44.73-3.74c0.12-0.06,0.24-0.12,0.36-0.19C572.44,690.2,579.96,696.37,588.21,703.7z
	"/>
<path fill="#FFFFFF" stroke="#000000" stroke-miterlimit="10" d="M302.77,718.47c-7.35-4.25-25.84-14.94-30.46-13.42
	c-0.16,3.43-0.22,6.58-0.22,9.27v0.01c0,0.74,0.01,1.43,0.01,2.09c-2.32-5.04-3.53-10.21-4.15-14.51c0-0.01,0-0.01,0-0.02
	c-0.86-5.85-0.63-10.06-0.63-10.06C267.85,692.01,287.12,696.78,302.77,718.47z"/>
<path fill="#FFFFFF" stroke="#000000" stroke-miterlimit="10" d="M357.57,800.12c-0.55-0.14-1.12-0.3-1.68-0.47
	c-26.38,7.85-27.8-0.35-49.54-1.78c-1.51,0.09-3,0.13-4.47,0.13c-25.93-6.93-42.49-23.13-43.65-25.44
	c-1.25-2.49,7.84-16.21,13.01-37.42c1.51-6.18,1.77-11.73,1.4-16.49l-0.01-0.01c-0.03-0.46-0.08-0.92-0.13-1.36
	c-0.14-0.29-0.27-0.57-0.4-0.86c0-0.66-0.01-1.35-0.01-2.09v-0.01c0-2.69,0.06-5.84,0.22-9.27c4.62-1.52,23.11,9.17,30.46,13.42
	c0.06,0.09,0.13,0.18,0.19,0.27c0,0,0.07-0.02,0.21-0.04c1.13-0.19,6.76-0.79,12.79,4.63c0.67,0.71,1.28,1.31,1.79,1.79v0.01
	c0.02,0.66,0.02,1.33,0,1.99c-0.53,23.52-11.05,41.35-9.44,46.34C309.91,778.44,339.75,794.53,357.57,800.12z"/>
<path fill="#FFFFFF" stroke="#000000" stroke-miterlimit="10" d="M266.74,829.56c-15.63-2.48-29.2-5.68-39.7-8.57
	c-14.58-4.01-23.23-7.41-23.23-7.41s7.9-16.96,20.91-18.38c3.61-0.4,9.05-0.8,15.18-1.18c3.65-0.22,7.54-0.44,11.43-0.65h0.01
	c3-0.17,5.99-0.33,8.88-0.48C257.33,799.79,253.01,815.75,266.74,829.56z"/>
<path fill="#FFFFFF" stroke="#000000" stroke-miterlimit="10" d="M404.76,828.05c-0.24,1.37-0.48,2.61-0.72,3.74
	c-20.14,1.38-58.71,3.35-98.23,1.72c-13.92-0.58-27.09-2.05-39.06-3.95c0,0,0,0-0.01,0c-13.73-13.81-9.41-29.77-6.52-36.67
	c4.54-0.24,8.81-0.46,12.39-0.67c0.01,0.01,0.01,0.01,0.02,0h0.01c8.64,3.43,18.42,5.77,29.24,5.78c1.47,0,2.96-0.04,4.47-0.13
	c21.74,1.43,23.16,9.63,49.54,1.78c0.56,0.17,1.13,0.33,1.68,0.47c0.04,0.02,0.07,0.03,0.11,0.04c12.77,3.44,22.5,2.78,31.85-2.42
	c7.94,5.35,15.22,14.04,15.6,24.87v0.01C405.21,824.37,405.09,826.19,404.76,828.05z"/>
<path fill="#FFFFFF" stroke="#000000" stroke-miterlimit="10" d="M224.72,795.2c3.61-0.4,9.05-0.8,15.18-1.18
	c0.03-2.19-0.1-4.83-0.5-7.68c-0.39-2.84-1.04-5.88-2.08-8.88c-4.61,4.76-11.35,11.5-11.35,11.5s-6.55,2.13-9.78-2.85
	s2.47-10.87,2.47-10.87s10-1.59,16.77-2.29c-2.24-4.52-5.55-8.67-10.35-11.58l-0.42,2.88c-7.72,1.72-10.33-6-10.33-6l0.79-0.82
	c-1-0.26-1.99-0.48-2.95-0.67c0.2,0.78,0.3,1.26,0.26,1.31c-4.88,5.76-12.3,0.53-12.3,0.53l1.05-2.51
	c-3.8,0.33-7.22,1.24-10.26,2.53l4.22,4.32c0,0,0.49,3.67-4.32,6.88c-4.81,3.21-10.3,1.32-10.3,1.32l-1.17-4.81
	c-1,0.96-1.91,1.91-2.75,2.85c-1.92,2.15-3.61,5.26-4.83,8.95c-1.23,3.67-1.98,7.91-2.04,12.36c-0.08,5.18,0.79,10.63,2.96,15.74
	c1.35,3.22,3.23,6.3,5.7,9.11c0.69,0.79,1.42,1.53,2.19,2.23c3.92,3.56,8.71,5.91,13.81,7.24l-0.23-2.26
	c5.7-4.81,11.32,2.23,11.32,2.23l-0.83,1.41c3.65,0.07,7.28-0.28,10.69-0.97c3.47-0.71,6.71-1.77,9.55-3.11
	c0.75-0.35,1.47-0.73,2.15-1.12c-14.58-4.01-23.23-7.41-23.23-7.41S211.71,796.62,224.72,795.2z M196.03,803l-19.6-1.74l14.07-13.55
	c0,0,5.71,2.5,7.49,6.6C199.77,798.41,196.03,803,196.03,803z"/>
<path fill="#FFFFFF" stroke="#000000" stroke-miterlimit="10" d="M212.43,758.07c-4.88,5.76-12.3,0.53-12.3,0.53l1.05-2.51
	l6.49-15.43c0,0,3.51,12.05,4.5,16.1C212.37,757.54,212.47,758.02,212.43,758.07z"/>
<path fill="#FFFFFF" stroke="#000000" stroke-miterlimit="10" d="M190.82,769.82c-4.81,3.21-10.3,1.32-10.3,1.32l-1.17-4.81
	l-6.31-26.04l17.88,18.33l4.22,4.32C195.14,762.94,195.63,766.61,190.82,769.82z"/>
<path fill="#FFFFFF" stroke="#000000" stroke-miterlimit="10" d="M196.03,803l-19.6-1.74l14.07-13.55c0,0,5.71,2.5,7.49,6.6
	C199.77,798.41,196.03,803,196.03,803z"/>
<path fill="#FFFFFF" stroke="#000000" stroke-miterlimit="10" d="M171.77,778.13c-1.23,3.67-1.98,7.91-2.04,12.36l-16.65-9.19
	L171.77,778.13z"/>
<path fill="#FFFFFF" stroke="#000000" stroke-miterlimit="10" d="M180.58,817.57l-21.26,8.63l13.37-19.97
	c1.35,3.22,3.23,6.3,5.7,9.11C179.08,816.13,179.81,816.87,180.58,817.57z"/>
<path fill="#FFFFFF" stroke="#000000" stroke-miterlimit="10" d="M225.97,840.29l-10.63-15.07c3.47-0.71,6.71-1.77,9.55-3.11
	L225.97,840.29z"/>
<path fill="#FFFFFF" stroke="#000000" stroke-miterlimit="10" d="M256.45,789.5l-5.11,3.87h-0.01c-3.89,0.21-7.78,0.43-11.43,0.65
	c0.03-2.19-0.1-4.83-0.5-7.68L256.45,789.5z"/>
<path fill="#FFFFFF" stroke="#000000" stroke-miterlimit="10" d="M241.48,772.98v0.01c-0.34,0.49-2.02,2.27-4.16,4.47
	c-4.61,4.76-11.35,11.5-11.35,11.5s-6.55,2.13-9.78-2.85s2.47-10.87,2.47-10.87s10-1.59,16.77-2.29c2.67-0.28,4.84-0.42,5.69-0.27
	C241.24,772.78,241.36,772.88,241.48,772.98z"/>
<path fill="#FFFFFF" stroke="#000000" stroke-miterlimit="10" d="M205.48,824.78l-0.83,1.41l-8.62,14.72l-1.64-16.1l-0.23-2.26
	C199.86,817.74,205.48,824.78,205.48,824.78z"/>
<path fill="#FFFFFF" stroke="#000000" stroke-miterlimit="10" d="M227.51,744.7l-2.43,16.67l-0.42,2.88c-7.72,1.72-10.33-6-10.33-6
	l0.79-0.82h0.01L227.51,744.7z"/>
<path fill="#FFFFFF" stroke="#000000" stroke-miterlimit="10" d="M521.92,692.06v0.01c-0.35,8.57-1.82,16.1-3.88,22.62
	c-4.01,12.7-10.24,21.61-14.82,27.1c0.04,0.1,0.08,0.23,0.12,0.38l-3.34,1.7c0,0-9.73,31.19-26.13,41.88
	c-0.54-1.35-18.83-26.97-27.55-39.14c3.46-3.19,6.73-6.75,9.55-10.58c11.41-15.51,16.93-21.92,10.69-29.41
	c-6.23-7.48-23.7-28.33-30.29-49.18c-3.85-12.16-18.22-22.07-31.56-30.51c-0.17-8.84-1.14-16.87-2.66-24.16
	c10.04-4.47,30.47-12.07,56.02-3.55c23.63,7.88,43.23,33.88,54.26,58.63v0.01c0.14,1.14,0.26,2.31,0.39,3.5
	c5.36,13.64,7.72,21.94,8.68,25.84c0.01,0.03,0.01,0.06,0.02,0.08C521.66,688.94,521.83,690.54,521.92,692.06z"/>
<path fill="#FFFFFF" stroke="#000000" stroke-miterlimit="10" d="M318.96,220.3c-6.48,3.66-12.82,7.31-19.07,10.87
	c-4.21,1.25-8.51,2.67-12.91,4.25c-2.71,0.97-5.31,2-7.82,3.07c-15.07-20.05-40.19-36.41-59.78-48.65
	C265.99,188.33,308.43,213.52,318.96,220.3z"/>
<path fill="#FFFFFF" stroke="#000000" stroke-miterlimit="10" d="M417.89,174.7c-12.34,3.93-24.05,8.39-35.23,13.19
	c-3.68-7.38-11.5-18.6-27.84-30.18C398.95,159.07,413.47,169.68,417.89,174.7z"/>
<path fill="#FFFFFF" stroke="#000000" stroke-miterlimit="10" d="M848.84,206.19c-9.05,6.42-34.25,26.47-45.81,38.16
	c-2.77-0.9-5.33-1.67-7.59-2.32c-6.66-4.75-13.46-8.03-18.5-10.06C786.01,227.01,821.41,208.5,848.84,206.19z"/>
<path fill="#FFFFFF" stroke="#000000" stroke-miterlimit="10" d="M753.79,157c-5.81,5.11-21.69,24.31-26.51,30.18
	c-4.99-5.11-10.66-10.48-16.97-15.77C717.76,167.53,735.25,158.01,753.79,157z"/>
<path fill="#FFFFFF" stroke="#000000" stroke-miterlimit="10" d="M730.28,211.27c-3.78-0.09-7.17-2.32-7.44-5.08
	c-0.13-1.36,0.64-4.64,1.47-7.62c0.84-3.08,1.74-5.84,1.74-5.84s1.98,3.34,3.87,6.75c1.54,2.77,3.03,5.59,3.35,6.71
	C733.98,208.68,733.23,211.34,730.28,211.27z"/>
<path fill="#FFFFFF" stroke="#000000" stroke-miterlimit="10" d="M502.62,858.35c0,0.95-9.03,1.18-14.98-1.46
	c-7.59-12.96-4.06-25.43-2.84-28.86c0.22-0.61,0.36-0.93,0.36-0.93C503.55,838.65,502.62,857.4,502.62,858.35z"/>
<path fill="#FFFFFF" stroke="#000000" stroke-miterlimit="10" d="M479.93,858.58c0,0-0.01,0.24-0.09,0.63
	c-0.26,1.32-1.25,4.28-5.02,4.79c-4.16,0.56-3.21,0.16-9.95-3.07c-1.15-0.56-2.53-1.19-4.19-1.92c-3.68-9.2,4.8-29.55,5.59-29.06
	C479.1,838.03,479.93,858.58,479.93,858.58z"/>
<path fill="#FFFFFF" stroke="#000000" stroke-miterlimit="10" d="M452.49,862.03c-8.52-0.69-15.43-2.66-17.46-4.14h-0.01
	c-0.42-0.31-0.63-0.6-0.59-0.85c0.23-1.43,0.23-20.79,6.77-28.16c0,0,10.52,14.77,11.25,31.62
	C452.47,861.01,452.49,861.52,452.49,862.03z"/>
<path fill="#FFFFFF" stroke="#000000" stroke-miterlimit="10" d="M678.47,840.47c-0.72,0.44-6.6,0.8-20.14-1.88
	c-0.02-0.14-0.04-0.29-0.05-0.44c-0.74-7.29,3.79-23.79,3.79-23.79c9.29,2.71,15.36,20.1,16.32,24.89
	C678.53,839.98,678.56,840.41,678.47,840.47z"/>
<path fill="#FFFFFF" stroke="#000000" stroke-miterlimit="10" d="M700.12,839.84c0,0-11.81,0.67-14.88-0.58
	c-0.17-0.07-0.33-0.15-0.48-0.25c-2.69-1.68-3.4-7.53-3.1-11.82c0.32-4.55,2.6-15.06,2.6-15.06c10.92,5.57,14.4,18.72,15.44,24.68
	C700.03,838.68,700.12,839.84,700.12,839.84z"/>
<path fill="#FFFFFF" stroke="#000000" stroke-miterlimit="10" d="M717.41,834.58c-4.93,1.12-9.37,0.59-11.37,0.24
	c-0.71-0.13-1.11-0.24-1.11-0.24s-9.18-21.11-4.81-24.77c0,0,2.04,0.92,4.75,3.09C709.23,816.39,715.32,823.15,717.41,834.58z"/>
<path fill="#FFFFFF" stroke="#000000" stroke-miterlimit="10" d="M822.82,713.84c-1.66,6.98-24.24,22.25-29.54,33.18
	c-0.67,1.38-1.17,3.02-1.53,4.84c-4.93,1-11.84,2.03-14.08,0.39c-3.56-2.62-1.66-20.91-0.71-27.21c0.95-6.3,26.14-15.68,28.52-18.3
	c1.59-1.76,4.75-14.27,6.65-22.27C819.4,696.66,823.95,709.11,822.82,713.84z"/>
</svg>
