<?xml version="1.0" encoding="utf-8"?>
<!-- Generator: Adobe Illustrator 23.0.5, SVG Export Plug-In . SVG Version: 6.00 Build 0)  -->
<svg version="1.1" baseProfile="tiny" id="Layer_1" xmlns="http://www.w3.org/2000/svg" xmlns:xlink="http://www.w3.org/1999/xlink"
	 x="0px" y="0px" viewBox="0 0 1000 1000" xml:space="preserve">
<image display="none" width="835" height="690" xlink:href="56F36A8C.png"  transform="matrix(1 0 0 1 102 170)">
</image>
<path fill="#FFFFFF" stroke="#000000" stroke-miterlimit="10" d="M824.6,150.4L824.6,150.4c-0.8-0.7-25.3-20.3-39.7-22
	c2.6-3.2,7.4-7.4,10.5-10c0.3-0.3,0.6-0.5,0.9-0.7C800.9,120,827.2,134,824.6,150.4z"/>
<path fill="#FFFFFF" stroke="#000000" stroke-miterlimit="10" d="M824.6,150.4c-8.1-4.5-27.3-2-39.7,0.4c-0.3,0.1-0.7,0.1-1,0.2
	c-3.3-4.8-2-16-0.7-19.9c0.2-0.7,0.9-1.6,1.7-2.7C799.3,130.1,823.8,149.8,824.6,150.4z"/>
<path fill="#FFFFFF" stroke="#000000" stroke-miterlimit="10" d="M795.5,118.4c-3.1,2.6-7.8,6.7-10.4,9.9l-0.5,0.1
	c-1.3,0-2.4-0.5-3.4-1.4c-3-2.7-4.5-8.9-7.6-15.2c-4.1-8.3-34.5-22.1-38.6-23.5c-2.2-0.7-2.8-2.6-3-4.2c-0.1-1.4,0.2-2.7,0.2-2.7
	c0-13.8,12.4-12.4,12.4-12.4c5.5-8.3,22.1-6.9,22.1-6.9c-12.4,2.8-8.3,13.8-8.3,13.8c6.9-11,16.6-4.1,16.6-4.1
	c-5.5,0-8.3,2.8-9.7,9.7c-1.4,6.9,8.3-4.1,8.3-4.1C789.3,78.5,794.4,110.6,795.5,118.4z"/>
<path fill="#FFFFFF" stroke="#000000" stroke-miterlimit="10" d="M781.2,127c-1.7,3.3-5.4,6.9-10.2,10.6
	c-9.2,7.1-22.3,14.3-32.3,19.5c-8.5,4.3-14.9,7.2-14.9,7.2c-0.4-0.4-0.6-0.9-0.6-1.4s0.2-1,0.6-1.4l12.4-12.4
	c-11-19.3-30.4-15.2-30.4-15.2c-11-1.4-6.9-9.7,0-12.4c6.9-2.8,2.8-4.1,2.8-4.1c-20.7-2.8-38.7,26.2-38.7,26.2
	c-1.3,1.3-2,0.7-2.4-0.2c-0.4-1-0.4-2.5-0.4-2.5c0,0-0.1,0.1-0.1,0.1c-1.8,1.7-4.3,1.2-5.6-0.4c-0.7-0.8-1.1-2-0.8-3.3
	c1.5-7.5,8-7.5,8-7.5c-8.3-2.8-13.8,8.3-13.8,8.3c-4.1-8.3,8.3-13.8,8.3-13.8c-5.5,0-9.7,4.1-9.7,4.1c9.7-42.4,65-44.4,78.5-44.2
	c0.1,1.6,0.8,3.5,3,4.2c4.1,1.4,34.5,15.2,38.6,23.5C776.7,118,778.3,124.3,781.2,127z"/>
<path fill="#FFFFFF" stroke="#000000" stroke-miterlimit="10" d="M751.7,106.2c-7.9-4.5-18.1-3.2-24,3.7c-2.6,3-4.3,7-2.4,11.8
	c3.5,8.8,30.7,15.8,34.5,2.3C762.2,115.5,757.6,109.6,751.7,106.2z"/>
<path fill="#FFFFFF" stroke="#000000" stroke-miterlimit="10" d="M753.2,109.4c-5.7-3.2-13-2.3-17.3,2.7c-1.9,2.2-3.1,5.1-1.7,8.5
	c2.5,6.3,22.1,11.4,24.9,1.7C760.9,116.1,757.5,111.8,753.2,109.4z"/>
<path fill="#FFFFFF" stroke="#000000" stroke-miterlimit="10" d="M755,112.3c-3.7-2.1-8.4-1.5-11.1,1.7c-1.2,1.4-2,3.3-1.1,5.5
	c1.6,4.1,14.2,7.3,16,1.1C759.9,116.6,757.8,113.9,755,112.3z"/>
<path fill="#FFFFFF" stroke="#000000" stroke-miterlimit="10" d="M765.3,189.1c-29,22.1-33.1,4.1-31.7-4.1c0.3-2,0.8-4.6,1.4-7.5
	c1.4-6.8,3.1-15.1,3.8-20.4c10.1-5.1,23.1-12.4,32.3-19.5c2,3,5.3,8.8,7.1,15.8C780.8,164.2,780,177.9,765.3,189.1z"/>
<path fill="#FFFFFF" stroke="#000000" stroke-miterlimit="10" d="M783.2,131.1c-1.3,3.9-2.6,15.1,0.7,19.9c0.3-0.1,0.7-0.1,1-0.2
	l0,0.2l-6.8,2.5c-1.8-7-5.1-12.8-7.1-15.8c4.7-3.7,8.4-7.3,10.2-10.6c1,0.9,2.1,1.4,3.4,1.4l0.5-0.1c0,0.1-0.1,0.1-0.1,0.2
	C784.1,129.5,783.5,130.4,783.2,131.1z"/>
<path fill="#FFFFFF" stroke="#000000" stroke-miterlimit="10" d="M738.7,157.1c-0.7,5.3-2.4,13.6-3.8,20.4
	c-14.1-5.4-19.3,1.9-19.3,1.9c1.4,13.8-9.7,12.4-9.7,12.4s2.8-16.6-2.8-17.9c-5.5-1.4-16.6,5.5-23.5,2.8c-6.9-2.8,5.5-12.4-6.9-20.7
	c-6.6-4.4-6.6-9.1-5.1-12.7c0.4,1,1,1.6,2.4,0.2c0,0,17.9-29,38.7-26.2c0,0,4.1,1.4-2.8,4.1c-6.9,2.8-11,11,0,12.4
	c0,0,19.3-4.1,30.4,15.2l-12.4,12.4c-0.4,0.4-0.6,0.9-0.6,1.4s0.2,1,0.6,1.4C723.9,164.2,730.2,161.4,738.7,157.1z"/>
<path fill="#FFFFFF" stroke="#000000" stroke-miterlimit="10" d="M739.1,423.7c0-0.1-0.1-0.3-0.1-0.4c-4.3-17.6-22-17.6-22-17.6
	c0-0.1-0.1-0.1-0.1-0.2c-4.6-6.7-12-9-19.9-9c-16,0-33.8,9.2-33.8,9.2c2-4,3.1-7.7,3.5-11.2c0.5-3.9,0.1-7.4-0.9-10.6
	c-1.5-5.2-4.5-9.5-7.9-13c-2.1-2.1-4.3-3.9-6.3-5.4c-4.9-3.6-9.1-5.3-9.1-5.3c0.1,0,0.1-0.1,0.2-0.2c1.4-1,2.7-2.1,3.9-3.2
	c27.4-25.6,10.5-84.2-1.4-126.4c-10-35.7,8.7-75.8,16.3-90c1.3,1.6,3.9,2.1,5.6,0.4c0,0,0.1-0.1,0.1-0.1c0,0,0,1.5,0.4,2.5
	c-1.4,3.5-1.4,8.3,5.1,12.7c12.4,8.3,0,17.9,6.9,20.7c6.9,2.8,17.9-4.1,23.5-2.8c5.5,1.4,2.8,17.9,2.8,17.9
	c-15.2,15.2-1.4,87,20.7,115.9c22.1,29,15.2,71.8,6.9,78.7c-8.3,6.9-5.5,11-5.5,11C746,411.3,739.1,423.7,739.1,423.7z"/>
<path fill="#FFFFFF" stroke="#000000" stroke-miterlimit="10" d="M636.2,350.2c-57.4-1-90.5,45-124.9,54.2c-0.4,0.1-0.9,0.2-1.3,0.3
	c-0.3,0.1-0.6,0.2-1,0.2c-19.8,4.5-6.5-11.8,5.9-24.4c1-1,2-2,3-3c7.1-3.8,15.8-9,26.4-16c0,0,24.8-16.6,75.9-16.6
	c-0.4-1.7-0.3-3.6,0-5.5c0.8-4.3,2.8-8.3,2.8-8.3C627.1,340,631.7,346.1,636.2,350.2z"/>
<path fill="#FFFFFF" stroke="#000000" stroke-miterlimit="10" d="M646.6,356.9c-1.2,1.1-2.5,2.2-3.9,3.2
	c-37.8,7.4-77.3,45.7-113.4,58.1c-5.2,1.8-9.3,2.7-12.5,3.1c-11.9,1.1-11.4-6.8-8.6-14c0.3-0.8,0.6-1.5,1-2.3c0.3-0.1,0.6-0.1,1-0.2
	c0.4-0.1,0.8-0.2,1.3-0.3c34.4-9.3,67.5-55.3,124.9-54.2C639.8,353.5,643.4,355.6,646.6,356.9z"/>
<path fill="#FFFFFF" stroke="#000000" stroke-miterlimit="10" d="M765.2,516.9c-7.1,1.6-13.2-0.6-18.4-4.7c-0.3-0.2-0.6-0.5-0.9-0.7
	c-8.5-7.2-14.3-19.4-17.6-27.7c13.8-21.3,12.9-46,10.6-60.3c0,0.1,0.1,0.3,0.1,0.4l11,6.9C788.7,458.3,777.6,490.3,765.2,516.9z"/>
<path fill="#FFFFFF" stroke="#000000" stroke-miterlimit="10" d="M518,377.6c-1,1-2,2-3,3c-5.5,3.1-21.3,11.9-37.4,19
	c-15,6.7-30.4,12.1-38.1,10.3c-2-0.5-3.3-1.2-3.9-2.1c-4.7-6.9,26.7-24.4,28.7-25.4c1,0,1.5-0.1,1.5-0.1
	c9.4-14.1,34.9-24.4,50.2-29.5c-7.9,3.9-18.6,12.2-29.5,29.5C486.5,382.3,482.6,396.7,518,377.6z"/>
<path fill="#FFFFFF" stroke="#000000" stroke-miterlimit="10" d="M765.2,516.9c-4.9,10.5-10,20.1-12.4,28.3
	c-0.3,1.2-0.7,2.4-1.2,3.7c-3.7-7.9-6.2-24.4-4.9-36.7C752,516.3,758.1,518.5,765.2,516.9z"/>
<path fill="#FFFFFF" stroke="#000000" stroke-miterlimit="10" d="M435.6,407.8c-12.2,7.3-31.2,16.3-56.8,21.4
	c-2.5,0.5-4.7,0.9-6.6,1.1c-4.1,0.5-7,0.4-8.9-0.1c-14.3-4,29.3-34.1,29.3-34.1c23.5-11.1,63.5-13.4,71.7-13.7
	C462.3,383.5,430.9,401,435.6,407.8z"/>
<path fill="#FFFFFF" stroke="#000000" stroke-miterlimit="10" d="M751.7,548.9c-11,30-56.8,84.7-56.8,84.7
	c-4.3,9.7-12.1,13.3-20.1,14.1c-12.5,1.3-25.4-4.4-25.4-4.4c-1.2-0.1-2.4-0.3-3.5-0.5c18.7-45,57.1-95.9,71.9-114.7
	c2.6,2.5,5.9,3.5,10.2,2.1c0,0,12-0.9,17.9-18.6c0.3,0.2,0.6,0.5,0.9,0.7C745.4,524.4,748,540.9,751.7,548.9z"/>
<path fill="#FFFFFF" stroke="#000000" stroke-miterlimit="10" d="M363.3,430.2c-14.5,9.3-34.5,20.4-53.9,25.4
	c-6.5,1.7-12.9,2.7-19,2.7c-3.8,0-6.5-0.5-8.3-1.5c-5.9-3.2-1.4-11.1,7-20c9.1-9.7,22.6-20.5,32.3-27.9c14.5,0.3,25.6-1.7,25.6-1.7
	c17.9-17.9,45.6-11,45.6-11S349,426.2,363.3,430.2z"/>
<path fill="#FFFFFF" stroke="#000000" stroke-miterlimit="10" d="M321.5,408.9c-9.7,7.3-23.2,18.2-32.3,27.9
	c-8.9-3.1-17.9-10.2-25-24.1c-23.5-45.6-117.3-102.1-117.3-102.1c-15.2-9.7-4.1-22.1-4.1-22.1c22.1-8.3,98,48.3,117.3,89.7
	C271.6,402.8,300.2,408.4,321.5,408.9z"/>
<path fill="#FFFFFF" stroke="#000000" stroke-miterlimit="10" d="M282.2,456.8c-88.1,3.7-173.7-93.9-173.7-93.9v0
	c-0.1-1.7-0.1-3.4-0.3-5.3c-2.8-37.3,38.6-46.9,38.6-46.9s93.9,56.6,117.3,102.1c7.1,13.8,16,20.9,25,24.1
	C280.8,445.7,276.3,453.6,282.2,456.8z"/>
<path fill="#FFFFFF" stroke="#000000" stroke-miterlimit="10" d="M309.4,455.6c-0.7,0.9-1.4,1.9-2,3c-0.2,0.3-0.4,0.6-0.6,0.9
	c-0.4,0.6-0.7,1.1-1.1,1.7c-0.1,0.2-0.2,0.3-0.3,0.5c-0.4,0.6-0.8,1.3-1.2,1.9c-0.7,1.2-1.4,2.4-2.1,3.6c-0.2,0.4-0.4,0.7-0.6,1.1
	c-0.8,1.4-1.5,2.7-2.2,4.2c-0.2,0.5-0.5,1-0.8,1.6c-0.1,0.2-0.2,0.4-0.3,0.7c-0.3,0.7-0.6,1.4-0.9,2.1c-0.2,0.4-0.4,0.8-0.5,1.3
	c0,0.1-0.1,0.1-0.1,0.2c-0.3,0.8-0.6,1.6-0.9,2.4c-0.3,0.9-0.6,1.7-0.9,2.6c-0.1,0.4-0.3,0.9-0.4,1.3c-0.7,2.2-1.2,4.3-1.6,6.5
	c-0.1,0.4-0.2,0.9-0.2,1.3c-0.1,0.4-0.1,0.9-0.2,1.3c-113.7,16.3-176-85-176-85c-21-22.3-7.1-14.7-8-45.7c0,0,85.6,97.6,173.7,93.9
	c1.8,1,4.5,1.5,8.3,1.5C296.5,458.2,302.9,457.3,309.4,455.6z"/>
<path fill="#FFFFFF" stroke="#000000" stroke-miterlimit="10" d="M298.8,518.1c-107.7,29.7-161.6-70.9-161.6-70.9
	c-40-1.4-20.7-38.6-20.7-38.6s62.3,101.3,176,85c-0.1,0.4-0.1,0.7-0.1,1.1c0,0.1,0,0.2,0,0.3c0,0.4-0.1,0.8-0.1,1.2
	c0,0.1,0,0.1,0,0.2c0,0.3,0,0.6,0,0.9c0,0.4,0,0.8,0,1.1v0.5c0,0.1,0,0.1,0,0.2c0,0.9,0,1.7,0.1,2.6c0,0.5,0.1,1,0.2,1.4
	c0,0.4,0.1,0.8,0.2,1.2c0,0.2,0.1,0.3,0.1,0.5c0.1,0.4,0.1,0.7,0.2,1.1c0.1,0.4,0.2,0.8,0.3,1.2c0,0.1,0,0.1,0.1,0.2
	c0.1,0.4,0.2,0.8,0.4,1.3c0.1,0.5,0.3,0.9,0.5,1.3c0.2,0.6,0.4,1.1,0.6,1.6s0.5,1.1,0.7,1.6c0.3,0.5,0.6,1,0.9,1.6
	c0.3,0.5,0.6,1,1,1.6c0.4,0.5,0.7,1,1.1,1.5C298.6,517.9,298.7,518,298.8,518.1z"/>
<path fill="#FFFFFF" stroke="#000000" stroke-miterlimit="10" d="M327.7,515.8c-0.1,1.1-0.2,2.3-0.3,3.5c-0.1,0.7-0.1,1.3-0.2,2
	c-0.1,1.4-0.3,2.9-0.4,4.4c-0.1,0.9-0.2,1.8-0.2,2.7c-0.2,1.6-0.3,3.2-0.4,4.9c-0.1,0.7-0.1,1.4-0.2,2.1c-0.2,2.4-0.4,4.8-0.6,7.2
	c-101.6,26.9-184.9-41.5-196.3-51.4c0-0.8,0-1.2,0-1.2c-19.3-23.5,8.3-42.8,8.3-42.8s53.9,100.6,161.6,70.9c0.4,0.4,0.8,0.8,1.2,1.2
	c0.1,0.1,0.2,0.2,0.4,0.3c0.4,0.3,0.8,0.6,1.2,0.8c0.1,0.1,0.3,0.2,0.4,0.2c0.3,0.2,0.6,0.3,0.9,0.5c0.2,0.1,0.3,0.2,0.5,0.2
	c0.2,0.1,0.4,0.1,0.6,0.2C310.3,523.8,318.7,521.3,327.7,515.8z"/>
<path fill="#FFFFFF" stroke="#000000" stroke-miterlimit="10" d="M325.2,542.6c-0.2,2.1-0.4,4.2-0.6,6.3c-0.1,1.1-0.2,2.2-0.3,3.3
	c-0.1,1.2-0.2,2.5-0.3,3.7c-0.1,1-0.2,2-0.2,3c-0.7,0.2-1.5,0.4-2.2,0.6c-72.6,20.4-127.8,5-127.8,5c-12.4,1.4-19.3,0-19.3,0
	c-42.8-5.5-16.6-46.9-16.6-46.9c-28,3.7-29.2-20.7-29-26.4C140.3,501.1,223.7,569.5,325.2,542.6z"/>
<path fill="#FFFFFF" stroke="#000000" stroke-miterlimit="10" d="M321.6,559.5c-0.6,0.2-1.3,0.4-1.9,0.6c-0.4,0.1-0.9,0.3-1.3,0.4
	c-0.1,0-0.2,0.1-0.3,0.1c-0.2,0.1-0.4,0.1-0.5,0.2c-1.1,0.4-2.2,0.9-3.3,1.4c-0.3,0.1-0.6,0.3-0.8,0.4c-0.2,0.1-0.5,0.2-0.7,0.3
	c-0.3,0.1-0.6,0.3-0.8,0.4c-0.2,0.1-0.5,0.2-0.7,0.4c-0.2,0.1-0.5,0.3-0.7,0.4c-0.6,0.3-1.2,0.7-1.8,1c-0.4,0.2-0.7,0.4-1.1,0.7
	c-0.4,0.2-0.7,0.5-1,0.7c-0.8,0.5-1.5,1-2.3,1.6c-0.6,0.4-1.2,0.9-1.8,1.3c-0.1,0-0.1,0.1-0.1,0.1c-0.7,0.5-1.3,1-1.9,1.6
	c-0.3,0.3-0.6,0.5-1,0.8c-0.3,0.3-0.6,0.6-1,0.8c-0.5,0.4-1,0.9-1.5,1.4c-1.5,1.4-2.9,2.8-4.3,4.3c-0.5,0.5-1,1-1.4,1.6
	c-0.2,0.3-0.5,0.6-0.7,0.8c-0.4,0.4-0.7,0.8-1,1.2c-0.6,0.7-1.2,1.4-1.8,2.2c-0.3,0.4-0.7,0.8-1,1.2c-0.9,1.1-1.8,2.3-2.7,3.5
	c-0.4,0.6-0.9,1.2-1.3,1.8c-0.4,0.6-0.9,1.2-1.3,1.8c-0.7,1-1.4,2-2.1,3c-0.5,0.8-1.1,1.6-1.6,2.4c-0.4,0.6-0.8,1.2-1.1,1.8
	c-0.4,0.6-0.8,1.2-1.1,1.8c-0.7,1.2-1.5,2.4-2.2,3.6c-40.5-4.8-67.2-15.8-67.2-15.8h-0.2c0.1-0.9,0.2-1.4,0.2-1.4
	c-16.6-8.3-12.4-23.5-12.4-23.5S249.1,579.9,321.6,559.5z"/>
<path fill="#FFFFFF" stroke="#000000" stroke-miterlimit="10" d="M273.4,605.2c-0.8,1.3-1.5,2.6-2.2,3.9c-0.2,0.5-0.5,0.9-0.7,1.4
	c-1.7,3.2-3.3,6.3-4.7,9.3c-0.2,0.3-0.3,0.7-0.5,1c-0.8,1.6-1.5,3.1-2.1,4.6c-0.6,1.2-1.1,2.4-1.5,3.5c-0.4,0.8-0.7,1.7-1,2.4
	c-0.2,0.5-0.4,1-0.6,1.5c-0.1,0.2-0.2,0.5-0.3,0.7c-1.2,2.9-2.1,5.2-2.7,6.9c-0.1,0.2-0.1,0.4-0.2,0.6c-0.2,0.5-0.3,0.9-0.4,1.3
	c-0.1,0.1-0.1,0.2-0.1,0.3c0,0.1-0.1,0.2-0.1,0.3l-0.1,0.2c-4.1-8.3,1.4-30.4,1.4-30.4l-31.7,4.1c-21.6,1.2-20.2-21.7-19.5-27.6h0.2
	C206.2,589.4,232.9,600.4,273.4,605.2z"/>
<path fill="#FFFFFF" stroke="#000000" stroke-miterlimit="10" d="M706.5,500.8c-10.2,45.7-40.6,22.4-40.6,22.4s-14.9-32.6,3.7-57.4
	c0.2,0,0.3-0.1,0.5-0.1C675.7,477.4,689.7,502,706.5,500.8z"/>
<path fill="#FFFFFF" stroke="#000000" stroke-miterlimit="10" d="M665.9,523.1C665.9,523.1,665.9,523.1,665.9,523.1
	c-0.6,0.3-1.2,0.6-1.7,0.9c-1.1,0.6-2.3,1.1-3.3,1.6c0,0,0,0,0,0c-1.1,0.5-2.1,0.9-3.2,1.3c0,0,0,0,0,0c-1,0.4-2,0.8-3,1.1
	c-0.5,0.2-1,0.3-1.4,0.5c-1,0.3-1.9,0.5-2.8,0.7c-10.8,2.5-18.1-0.3-23-5.6c-8.8-9.4-10-26.7-10-35.3c3-2.7,6-6.1,9.2-10.6
	c14.9,1.3,26-5.3,33.2-12.1c3.3,1,6.5,1,9.8,0.1C651,490.5,665.9,523.1,665.9,523.1z"/>
<path fill="#FFFFFF" stroke="#000000" stroke-miterlimit="10" d="M745.9,511.4C740,529.1,728,530,728,530c-4.3,1.4-7.6,0.4-10.2-2.1
	c-5.7-5.4-7.8-17.9-8.6-27.6c4.3-1,8.8-3.8,13.4-9c2.2-2.5,4.1-5.1,5.8-7.7C731.6,492,737.4,504.2,745.9,511.4z"/>
<path fill="#FFFFFF" stroke="#000000" stroke-miterlimit="10" d="M339.2,570.7c-13.9,18.6-48,61.1-81.1,76.8c-1,0.5-2.1,0.9-3.1,1.4
	c0.4-3.5,0.9-5.7,0.9-5.7l0.1-0.2c0-0.1,0.1-0.2,0.1-0.3c0-0.1,0.1-0.2,0.1-0.3c0.1-0.3,0.3-0.8,0.4-1.3c0.1-0.2,0.1-0.4,0.2-0.6
	c0.6-1.7,1.5-4,2.7-6.9c0.1-0.2,0.2-0.5,0.3-0.7c0.2-0.5,0.4-1,0.6-1.5c0.3-0.8,0.7-1.6,1-2.4c0.5-1.1,1-2.3,1.5-3.5
	c0.7-1.5,1.4-3,2.1-4.6c0.2-0.3,0.3-0.7,0.5-1c1.4-3,3-6.1,4.7-9.3c0.2-0.5,0.5-0.9,0.7-1.4c0.7-1.3,1.5-2.6,2.2-3.9
	c0.7-1.2,1.4-2.4,2.2-3.6c0.4-0.6,0.7-1.2,1.1-1.8c0.4-0.6,0.8-1.2,1.1-1.8c0.5-0.8,1-1.6,1.6-2.4c0.7-1,1.4-2,2.1-3
	c0.4-0.6,0.9-1.2,1.3-1.8c0.4-0.6,0.9-1.2,1.3-1.8c0.9-1.2,1.8-2.3,2.7-3.5c0.3-0.4,0.6-0.8,1-1.2c0.6-0.7,1.2-1.4,1.8-2.2
	c0.3-0.4,0.7-0.8,1-1.2c0.2-0.3,0.5-0.6,0.7-0.8c0.5-0.5,1-1.1,1.4-1.6c1.4-1.5,2.8-2.9,4.3-4.3c0.5-0.5,1-0.9,1.5-1.4
	c0.3-0.3,0.6-0.6,1-0.8c0.3-0.3,0.6-0.6,1-0.8c0.6-0.5,1.3-1.1,1.9-1.6c0,0,0.1-0.1,0.1-0.1c0.6-0.5,1.2-0.9,1.8-1.3
	c0.7-0.6,1.5-1.1,2.3-1.6c0.3-0.2,0.7-0.5,1-0.7c0.4-0.2,0.7-0.5,1.1-0.7c0.6-0.4,1.2-0.7,1.8-1c0.2-0.1,0.5-0.3,0.7-0.4
	c0.2-0.1,0.5-0.3,0.7-0.4c0.3-0.1,0.6-0.3,0.8-0.4c0.2-0.1,0.5-0.2,0.7-0.3c0.3-0.1,0.6-0.3,0.8-0.4c1.1-0.5,2.2-1,3.3-1.4
	c0.2-0.1,0.4-0.1,0.5-0.2c0.1,0,0.2-0.1,0.3-0.1c0.4-0.2,0.9-0.3,1.3-0.4c0.6-0.2,1.3-0.4,1.9-0.6c0.6-0.2,1.3-0.3,1.9-0.5
	c0,0,0.1,0.2,0.2,0.5C324.6,561.5,328.4,568.9,339.2,570.7z"/>
<path fill="#FFFFFF" stroke="#000000" stroke-miterlimit="10" d="M511.2,592.8c-0.9,4.4-6.9,30.1-22.4,61.9
	c-18.1,37.2-49.1,82.8-100.3,112.7l-1,1.4c-14.4,0.6-26.8-2.6-37.2-7.4c89.2-32.8,127.9-188.6,127.9-188.6s14.1,11.5,32.5,19.8
	C510.8,592.7,511,592.7,511.2,592.8z"/>
<path fill="#FFFFFF" stroke="#000000" stroke-miterlimit="10" d="M590,753.6c-8.3,19.3-15.2,23.5-31.7,31.7c-1,0.5-2,0.9-3,1.3
	c-14.6,5.3-21.9-6.8-21.9-6.8c-6.4,1.4-11.4,0.6-15.3-1c-7.9-3.3-10.9-10.1-10.9-10.1l-26.2-46.9c0,0,6.8-8.6,19-15.6
	c10.1-5.8,23.8-10.5,40.5-8.5c12.8,1.5,27.3,7,43.1,18.9c5.4,4.1,11,8.9,16.7,14.6C589.2,738.7,590,753.6,590,753.6z"/>
<path fill="#FFFFFF" stroke="#000000" stroke-miterlimit="10" d="M507.2,768.8c-44.2-5.5-48.3,24.8-48.3,24.8
	c-5.6,3.2-10.9,5.1-15.9,6.1c-12.6,2.6-23.4-1-31.8-6.4c-14.6-9.4-22.6-24.6-22.6-24.6c-0.4,0-0.7,0-1,0l1-1.4
	c51.2-29.9,82.3-75.5,100.3-112.7c1.3,17.4,4.4,38.1,11.2,51.6c-12.2,7-19,15.6-19,15.6L507.2,768.8z"/>
<path fill="#FFFFFF" stroke="#000000" stroke-miterlimit="10" d="M674.8,647.6c-6.1,44.7-32.3,52.2-32.3,52.2c0-8.3-8.3-8.3-8.3-8.3
	c-4.1,29-16.6,35.9-16.6,35.9c-7.7-0.4-13.2,1.3-17.2,3.9c-5.7-5.7-11.3-10.5-16.7-14.6c20.9-16,33-57.6,39.2-88.4
	c3,6.6,9.8,12.2,23,14.4c1.1,0.2,2.3,0.4,3.5,0.5C649.3,643.2,662.2,648.9,674.8,647.6z"/>
<path fill="#FFFFFF" stroke="#000000" stroke-miterlimit="10" d="M620.4,345.1c-51.1,0-75.9,16.6-75.9,16.6
	c-10.6,6.9-19.3,12.1-26.4,16c-35.4,19.1-31.6,4.7-31.6,4.7c10.8-17.3,21.6-25.6,29.5-29.5c7.1-2.4,12-3.6,12-3.6
	c20.7-16.6,62.1-8.3,62.1-8.3c-6.9-12.4-29-13.8-29-13.8c34.9-6.7,43.7,16.6,44.2,17.9c-4.1-19.3,15.2-22,15.2-22
	C610.7,342.3,620.4,345.1,620.4,345.1z"/>
<path fill="#FFFFFF" stroke="#000000" stroke-miterlimit="10" d="M651.6,365.6c-19.1,7.7-73.4,50.8-108.7,71.5
	c-10.9,6.4-20,10.6-25.7,11.1c-0.1,0-0.1,0-0.2,0c-2.8,0.2-4.8-0.5-5.7-2.4c-4.8-9.7-0.3-18.3,5.4-24.5c3.2-0.3,7.3-1.3,12.5-3.1
	c36.1-12.5,75.6-50.7,113.4-58.1c-0.1,0.1-0.1,0.1-0.2,0.2C642.4,360.2,646.6,362,651.6,365.6z"/>
<path fill="#FFFFFF" stroke="#000000" stroke-miterlimit="10" d="M666.7,394.6c-0.4,3.5-1.5,7.2-3.5,11.2
	c-18.4,21.3-34.8,31.8-42.9,36.1h0c-3.4,1.8-5.4,2.6-5.4,2.6c-0.7,0.3-1.4,0.6-2,0.9c-17.9,7.6-13.4-5.8-13.2-6.4l0,0
	C599.6,438.9,637,402.8,666.7,394.6z"/>
<path fill="#FFFFFF" stroke="#000000" stroke-miterlimit="10" d="M666.7,394.6c-29.7,8.1-67,44.3-67,44.3c-3.7,2.4-6.1,3.2-7.6,3.2
	c-4.7-0.1-0.7-8.7-0.7-8.7s44.8-44.8,74.5-49.4C666.8,387.2,667.2,390.8,666.7,394.6z"/>
<path fill="#FFFFFF" stroke="#000000" stroke-miterlimit="10" d="M665.8,384c-29.7,4.6-74.5,49.4-74.5,49.4
	c-17.9,12.4-22.1,1.4-22.1,1.4s63.8-51.5,88.6-63.8C661.3,374.5,664.3,378.8,665.8,384z"/>
<path fill="#FFFFFF" stroke="#000000" stroke-miterlimit="10" d="M657.9,371c-24.8,12.2-88.6,63.8-88.6,63.8
	c-4,3.2-7.4,5.4-10.3,6.8c-10.2,4.9-14.4,0.2-16.1-4.4c35.3-20.7,89.6-63.8,108.7-71.5C653.6,367.1,655.8,368.9,657.9,371z"/>
<path fill="#FFFFFF" stroke="#000000" stroke-miterlimit="10" d="M716.9,405.6c-7,15.8-26.1,54.2-46.8,60c-0.2,0-0.3,0.1-0.5,0.1
	c-3.2,0.8-6.5,0.9-9.8-0.1c-2.1-0.6-4.2-1.7-6.3-3.3c-25.7-19,23.8-53.4,43.5-65.8C704.8,396.6,712.3,398.9,716.9,405.6z"/>
<path fill="#FFFFFF" stroke="#000000" stroke-miterlimit="10" d="M728.3,483.7c-1.7,2.6-3.6,5.2-5.8,7.7c-4.6,5.2-9,8-13.4,9
	c-0.9,0.2-1.8,0.3-2.6,0.4c-16.8,1.2-30.8-23.4-36.5-35.1c20.7-5.8,39.8-44.3,46.8-60c0,0.1,0.1,0.1,0.1,0.2c0,0,17.7,0,22,17.6
	C741.2,437.7,742.2,462.4,728.3,483.7z"/>
<path fill="#FFFFFF" stroke="#000000" stroke-miterlimit="10" d="M653.5,462.4c2.1,1.5,4.2,2.6,6.3,3.3
	c-7.2,6.8-18.3,13.5-33.2,12.1c-0.7,0-1.4-0.1-2.1-0.2c-19.7-2.7-12.1-22.3-4.3-35.7h0c8.1-4.3,24.5-14.8,42.9-36.1
	c0,0,17.8-9.2,33.8-9.2C677.2,409,627.8,443.4,653.5,462.4z"/>
<path fill="#FFFFFF" stroke="#000000" stroke-miterlimit="10" d="M509.1,405c-0.3,0.7-0.7,1.5-1,2.3c-6.4,8.1-15.8,18.4-26.9,24.6
	c-5.3,3-10.9,5.1-16.8,5.7c-0.4,0-0.8,0.1-1.2,0.1c-6.2,0.3-8.3-2-7.9-5.8c0-0.2,0-0.3,0.1-0.5c0.1-0.3,0.1-0.7,0.2-1
	c0.1-0.3,0.1-0.5,0.2-0.8c0.1-0.3,0.2-0.6,0.3-0.8c0-0.1,0.1-0.2,0.1-0.4c0.1-0.2,0.2-0.5,0.3-0.8c0.2-0.6,0.5-1.1,0.8-1.7
	c0.1-0.2,0.2-0.5,0.4-0.7c1.3-2.5,3.1-5.2,5.1-8c0.5-0.7,1-1.4,1.6-2.1c2.9-3.8,6.2-7.6,9.2-11.1c0.3-0.3,0.6-0.6,0.8-0.9
	c1.1-1.2,2.2-2.4,3.2-3.4c16.1-7.2,31.8-15.9,37.4-19C502.6,393.2,489.3,409.5,509.1,405z"/>
<path fill="#FFFFFF" stroke="#000000" stroke-miterlimit="10" d="M517.2,448.2c-0.1,0.1-0.2,0.2-0.4,0.3v0
	c-7.2,6.9-17.6,15-31.7,22.1c-3.7,1.8-6.5,2.7-8.7,2.7c-0.3,0-0.5,0-0.7,0c-0.2,0-0.3,0-0.5-0.1c-0.1,0-0.2,0-0.2,0
	c-0.2,0-0.3-0.1-0.5-0.1c-0.1,0-0.2-0.1-0.3-0.1c0,0-0.1,0-0.1-0.1c-0.1,0-0.2-0.1-0.3-0.2c-0.1,0-0.1,0-0.2-0.1
	c-0.1-0.1-0.2-0.1-0.3-0.2c-0.1-0.1-0.2-0.2-0.4-0.3c-0.2-0.1-0.3-0.3-0.5-0.5c-0.1-0.1-0.2-0.3-0.4-0.5c-0.1-0.1-0.2-0.3-0.3-0.4
	c-0.2-0.4-0.4-0.8-0.5-1.3c-0.1-0.2-0.1-0.4-0.2-0.7c-0.2-1.1-0.3-2.4-0.3-3.8c0-0.3,0-0.7,0.1-1c0-0.3,0-0.6,0.1-0.9
	c0-0.3,0.1-0.6,0.1-0.9c0.2-1.6,0.6-3.4,1-5.2c0.2-0.7,0.3-1.4,0.5-2.1c0.2-1,0.5-1.9,0.8-2.9c0.2-0.5,0.3-1.1,0.5-1.6
	c0.1-0.4,0.2-0.8,0.4-1.1c0.2-0.6,0.4-1.2,0.6-1.8c0.7-1.9,1.4-3.8,2.1-5.6c0.2-0.6,0.5-1.1,0.7-1.7c0.7-1.6,1.3-3.2,2-4.8
	c0.2-0.6,0.5-1.1,0.7-1.6c0.3-0.7,0.6-1.3,0.9-1.9c11.1-6.3,20.6-16.5,26.9-24.6c-2.8,7.2-3.3,15.1,8.6,14
	c-5.7,6.2-10.2,14.9-5.4,24.5c1,1.9,2.9,2.6,5.7,2.4C517.1,448.2,517.1,448.2,517.2,448.2z"/>
<path fill="#FFFFFF" stroke="#000000" stroke-miterlimit="10" d="M592.1,442.1c-16,21.2-28.5,34.2-38.2,41.7v0
	c-0.5,0.4-1.1,0.8-1.6,1.2c-0.2,0.2-0.4,0.3-0.6,0.4c-0.4,0.3-0.9,0.6-1.3,0.9c-2.9,2-5.5,3.4-7.8,4.4c-0.3,0.1-0.6,0.3-0.9,0.4
	c-0.3,0.2-0.7,0.3-1,0.4c-0.2,0.1-0.5,0.2-0.7,0.2c-0.3,0.1-0.6,0.2-0.8,0.3c-0.4,0.1-0.7,0.2-1.1,0.3c-0.2,0.1-0.4,0.1-0.6,0.1
	c-0.1,0-0.1,0-0.2,0c-0.4,0.1-0.7,0.1-1,0.2c-0.1,0-0.2,0-0.4,0c-1.9,0.2-3.6,0.1-5.1-0.3c-0.2-0.1-0.5-0.1-0.7-0.2
	c-0.3-0.1-0.6-0.2-0.9-0.3c-1.7-0.7-3.1-1.9-4.3-3.2c-0.2-0.2-0.4-0.4-0.6-0.7c-0.7-0.9-1.3-1.9-1.8-2.9
	c12.6-8.6,25.5-22.2,36.6-43.6c2.9-1.4,6.3-3.6,10.3-6.8c0,0,4.1,11,22.1-1.4C591.4,433.4,587.4,442.1,592.1,442.1z"/>
<path fill="#FFFFFF" stroke="#000000" stroke-miterlimit="10" d="M612.8,445.3c-7.5,11.5-19.6,28.9-31,40.2
	c-12.8,12.8-24.7,17.9-28-1.7v0c9.7-7.5,22.2-20.5,38.2-41.7c1.5,0,3.9-0.9,7.6-3.2l0,0C599.4,439.5,594.9,452.9,612.8,445.3z"/>
<path fill="#FFFFFF" stroke="#000000" stroke-miterlimit="10" d="M626.6,477.8c-3.1,4.5-6.2,7.9-9.2,10.6
	c-11.4,10.3-21.3,8.4-28.5,3.5c-2.7-1.8-5.1-4.1-7-6.3c11.3-11.3,23.4-28.7,31-40.2c0.6-0.3,1.3-0.6,2-0.9c0,0,1.9-0.7,5.4-2.6
	c-7.8,13.4-15.4,33,4.3,35.7C625.2,477.7,625.9,477.8,626.6,477.8z"/>
<path fill="#FFFFFF" stroke="#000000" stroke-miterlimit="10" d="M477.7,399.6c-1,1.1-2.1,2.2-3.2,3.4c-0.3,0.3-0.5,0.6-0.8,0.9
	c-3,3.4-6.3,7.2-9.2,11.1c-0.5,0.7-1.1,1.4-1.6,2.1c-2,2.8-3.8,5.5-5.1,8c-0.1,0.2-0.3,0.5-0.4,0.7c-0.3,0.6-0.6,1.1-0.8,1.7
	c-0.1,0.3-0.2,0.5-0.3,0.8c-0.1,0.1-0.1,0.2-0.1,0.4c-0.1,0.3-0.2,0.6-0.3,0.8c-0.1,0.3-0.2,0.5-0.2,0.8
	c-38.8,16.8-62,23.6-75.2,24.7c-0.3,0-0.5,0-0.8,0.1c-23.3,1.6-14.4-15.1-7.5-24.8c1.9-0.2,4.1-0.6,6.6-1.1
	c25.6-5.1,44.6-14.1,56.8-21.4c0.6,0.9,1.9,1.6,3.9,2.1C447.2,411.7,462.6,406.3,477.7,399.6z"/>
<path fill="#FFFFFF" stroke="#000000" stroke-miterlimit="10" d="M481.2,431.9c-0.3,0.6-0.6,1.3-0.9,1.9c-0.2,0.5-0.5,1-0.7,1.6
	c-0.7,1.5-1.3,3.1-2,4.8c-0.2,0.6-0.5,1.1-0.7,1.7c-0.7,1.8-1.4,3.7-2.1,5.6c-0.2,0.6-0.4,1.2-0.6,1.8c-0.1,0.4-0.2,0.8-0.4,1.1
	c-0.2,0.5-0.3,1.1-0.5,1.6c-10.6,4.4-28.4,12.7-40,23.3c-4.3,1.1-8.3,2.1-12.2,3c-35.1,8.3-52.4,9.1-59.2,6.1
	c-10.9-4.8,5-19.5,17.6-29.3c0.2,0,0.5,0,0.8-0.1c13.2-1.1,36.4-7.9,75.2-24.7c-0.1,0.3-0.2,0.7-0.2,1c0,0.2-0.1,0.3-0.1,0.5
	c-0.4,3.8,1.7,6.1,7.9,5.8c0.4,0,0.8,0,1.2-0.1C470.3,437,475.9,434.9,481.2,431.9z"/>
<path fill="#FFFFFF" stroke="#000000" stroke-miterlimit="10" d="M461.6,496.9c0,0,7.6,2.4,19,2.1c0.6,0,1.2,0,1.8-0.1
	c0.2,0,0.3,0,0.5,0c0.4,0,0.8,0,1.2-0.1c1.1-0.1,2.2-0.2,3.3-0.3c-21.6,13.9-49.7,26.5-61.7,8.1c-7.5-11.5-2.2-22.2,7.7-31.3
	c11.5-10.6,29.3-18.9,40-23.3c-0.3,1-0.6,1.9-0.8,2.9c-0.2,0.7-0.4,1.4-0.5,2.1c-0.4,1.8-0.8,3.6-1,5.2c0,0.3-0.1,0.6-0.1,0.9
	c0,0.3-0.1,0.6-0.1,0.9c0,0.4,0,0.7-0.1,1c-0.1,1.4,0,2.7,0.3,3.8c0.1,0.2,0.1,0.5,0.2,0.7c0.1,0.5,0.3,0.9,0.5,1.3
	c0.1,0.2,0.2,0.3,0.3,0.4c0.1,0.2,0.2,0.3,0.4,0.5c0.2,0.2,0.3,0.3,0.5,0.5c0.1,0.1,0.2,0.2,0.4,0.3c0.1,0.1,0.2,0.1,0.3,0.2
	c0.1,0,0.1,0.1,0.2,0.1c0.1,0.1,0.2,0.1,0.3,0.2c0,0,0.1,0,0.1,0.1c0.1,0,0.2,0.1,0.3,0.1c0.2,0,0.3,0.1,0.5,0.1c0.1,0,0.2,0,0.2,0
	c0.2,0,0.3,0.1,0.5,0.1c0.2,0,0.5,0,0.7,0c2.2,0,5-0.8,8.7-2.7c14.1-7.1,24.5-15.2,31.7-22.1C516.8,448.6,503,499.7,461.6,496.9z"/>
<path fill="#FFFFFF" stroke="#000000" stroke-miterlimit="10" d="M559,441.6c-11.2,21.4-24,35-36.6,43.6c-1.8,1.3-3.7,2.4-5.5,3.5
	c-0.6,0.3-1.2,0.7-1.8,1c-5.2,2.8-10.3,4.9-15.2,6.3c-0.4,0.1-0.8,0.2-1.3,0.4c-0.3,0.1-0.6,0.2-0.9,0.2c-0.3,0.1-0.6,0.2-0.9,0.2
	c-0.1,0-0.2,0.1-0.3,0.1c-0.6,0.2-1.3,0.3-1.9,0.5c-0.9,0.2-1.7,0.3-2.6,0.5c-0.8,0.1-1.5,0.2-2.2,0.4c-0.7,0.1-1.4,0.2-2.1,0.3h0
	c-1.1,0.1-2.2,0.2-3.3,0.3c-0.4,0-0.8,0.1-1.2,0.1c-0.2,0-0.3,0-0.5,0c-0.6,0-1.2,0.1-1.8,0.1c-11.5,0.3-19-2.1-19-2.1
	c41.4,2.8,55.2-48.3,55.2-48.3v0c0.1-0.1,0.2-0.2,0.4-0.3c5.7-0.5,14.8-4.7,25.7-11.1C544.6,441.8,548.8,446.4,559,441.6z"/>
<path fill="#FFFFFF" stroke="#000000" stroke-miterlimit="10" d="M530.6,492.4c-4,5.7-9.2,13.3-13.7,20.9
	c-15.3,14-32.9,26-40.1,15.3c-2.7-4.1-2.6-8.6-0.7-13.3c2.4-5.8,7.5-11.7,13.5-17.2c0.7-0.1,1.5-0.2,2.2-0.4
	c0.8-0.2,1.7-0.3,2.6-0.5c0.6-0.1,1.3-0.3,1.9-0.5c0.1,0,0.2,0,0.3-0.1c0.3-0.1,0.6-0.2,0.9-0.2c0.3-0.1,0.6-0.2,0.9-0.2
	c0.4-0.1,0.8-0.2,1.3-0.4c4.9-1.4,10-3.5,15.2-6.3c0.6-0.3,1.2-0.7,1.8-1c1.8-1,3.7-2.2,5.5-3.5c0.5,1,1.1,2,1.8,2.9
	c0.2,0.2,0.4,0.4,0.6,0.7c1.1,1.3,2.6,2.4,4.3,3.2c0.3,0.1,0.6,0.2,0.9,0.3C530.1,492.3,530.4,492.4,530.6,492.4z"/>
<path fill="#FFFFFF" stroke="#000000" stroke-miterlimit="10" d="M588.9,491.9c-5.2,10.7-16.8,27.8-41.5,41.9
	c-1.1,0.6-2.1,1.2-3.3,1.8c-4.5,2.4-9.5,4.7-14.8,6.9c-11.4,4.6-17.8,4.7-20.6,2c-5.1-4.7,0.6-18,8.3-31.1
	c4.5-7.7,9.7-15.3,13.7-20.9c1.5,0.4,3.1,0.6,5.1,0.3c0.1,0,0.2,0,0.4,0c0.3,0,0.7-0.1,1-0.2c0.1,0,0.1,0,0.2,0
	c0.2,0,0.4-0.1,0.6-0.1c0.4-0.1,0.7-0.2,1.1-0.3c0.3-0.1,0.5-0.2,0.8-0.3c0.2-0.1,0.5-0.2,0.7-0.2c0.3-0.1,0.7-0.2,1-0.4
	c0.3-0.1,0.6-0.2,0.9-0.4c2.4-1,5-2.5,7.8-4.4c0.4-0.3,0.9-0.6,1.3-0.9c0.2-0.1,0.4-0.3,0.6-0.4c0.5-0.4,1-0.8,1.6-1.2
	c3.3,19.6,15.2,14.5,28,1.7C583.8,487.7,586.1,490,588.9,491.9z"/>
<path fill="#FFFFFF" stroke="#000000" stroke-miterlimit="10" d="M627.4,523.7c-3.8,4.6-8.5,9.5-14.2,14.7c-0.4,0.4-0.8,0.7-1.3,1.1
	c-0.4,0.4-0.9,0.8-1.3,1.1c-0.7,0.6-1.5,1.3-2.2,1.9c-4.2,3.5-8.9,7.1-14.2,10.7c-3.5,2.4-7.2,4.8-11.2,7.3
	c-47.9,29.4-40.8-9.1-35.7-26.6c24.7-14.1,36.3-31.2,41.5-41.9c7.2,4.9,17.1,6.8,28.5-3.5C617.4,497,618.7,514.3,627.4,523.7z"/>
<path fill="#FFFFFF" stroke="#000000" stroke-miterlimit="10" d="M665.9,523.1c-0.4,0.9-20.4,42.1-37.4,70c-0.8,1.4-1.7,2.7-2.5,4
	c1.4-3.1,2.6-5,2.6-5c-40.3,40.3-56.1,3.4-57.8-1c5.8-8.3,16.8-26.8,23.4-38c5.3-3.6,10-7.2,14.2-10.7c0.8-0.6,1.5-1.3,2.2-1.9
	c0.4-0.4,0.9-0.7,1.3-1.1c0.4-0.4,0.8-0.7,1.3-1.1c5.8-5.1,10.4-10.1,14.2-14.7c4.9,5.3,12.2,8.1,23,5.6c0.9-0.2,1.8-0.5,2.8-0.7
	c0.5-0.1,1-0.3,1.4-0.5c1-0.3,2-0.7,3-1.1c0,0,0,0,0,0c1-0.4,2.1-0.9,3.2-1.3c0,0,0,0,0,0c1.1-0.5,2.2-1,3.3-1.6
	C664.7,523.7,665.3,523.4,665.9,523.1z"/>
<path fill="#FFFFFF" stroke="#000000" stroke-miterlimit="10" d="M717.8,528c-14.9,18.9-53.2,69.8-71.9,114.7
	c-13.2-2.2-20-7.8-23-14.4c-4.8-10.6-0.1-24,3.2-31.2c0,0,0,0,0,0c0.8-1.3,1.6-2.6,2.5-4c17-27.9,36.9-69.1,37.4-70c0,0,0,0,0,0
	s30.4,23.4,40.6-22.4c0.9-0.1,1.7-0.2,2.6-0.4C710,510.1,712.1,522.5,717.8,528z"/>
<path fill="#FFFFFF" stroke="#000000" stroke-miterlimit="10" d="M362,484.4c-10.2,12.6-22.8,24.4-34.3,31.4c-9,5.4-17.4,8-23.7,5.7
	c-0.2-0.1-0.4-0.1-0.6-0.2c-0.2-0.1-0.3-0.1-0.5-0.2c-0.3-0.1-0.6-0.3-0.9-0.5c-0.1-0.1-0.3-0.2-0.4-0.2c-0.4-0.2-0.8-0.5-1.2-0.8
	c-0.1-0.1-0.2-0.2-0.4-0.3c-0.4-0.3-0.9-0.7-1.2-1.2c-0.1-0.1-0.2-0.3-0.4-0.4c-0.4-0.5-0.8-1-1.1-1.5c-0.3-0.5-0.7-1-1-1.6
	c-0.3-0.5-0.6-1-0.9-1.6c-0.3-0.5-0.5-1.1-0.7-1.6s-0.5-1.1-0.6-1.6c-0.2-0.4-0.3-0.9-0.5-1.3c-0.1-0.4-0.2-0.8-0.4-1.3
	c0-0.1,0-0.1-0.1-0.2c-0.1-0.4-0.2-0.8-0.3-1.2c-0.1-0.4-0.2-0.7-0.2-1.1c0-0.2-0.1-0.3-0.1-0.5c-0.1-0.4-0.1-0.8-0.2-1.2
	c-0.1-0.5-0.1-1-0.2-1.4c-0.1-0.9-0.1-1.7-0.1-2.6c0-0.1,0-0.1,0-0.2v-0.5c0-0.4,0-0.7,0-1.1c0-0.3,0-0.6,0-0.9c0-0.1,0-0.2,0-0.2
	c0-0.4,0-0.8,0.1-1.2c0-0.1,0-0.2,0-0.3c0-0.4,0.1-0.7,0.1-1.1c0.1-0.4,0.1-0.9,0.2-1.3c0.1-0.4,0.1-0.9,0.2-1.3
	c0.4-2.2,0.9-4.4,1.6-6.5c0.1-0.4,0.3-0.9,0.4-1.3c0.3-0.9,0.6-1.7,0.9-2.6c0.3-0.8,0.6-1.6,0.9-2.4c0-0.1,0-0.1,0.1-0.2
	c0.2-0.4,0.3-0.8,0.5-1.3c0.3-0.7,0.6-1.4,0.9-2.1c0.1-0.2,0.2-0.5,0.3-0.7c0.2-0.5,0.5-1.1,0.8-1.6c0.7-1.4,1.4-2.8,2.2-4.2
	c0.2-0.4,0.4-0.7,0.6-1.1c0.7-1.2,1.4-2.4,2.1-3.6c0.4-0.7,0.8-1.3,1.2-1.9c0.1-0.2,0.2-0.3,0.3-0.5c0.4-0.6,0.7-1.1,1.1-1.7
	c0.2-0.3,0.4-0.6,0.6-0.9c0.7-1,1.4-2,2-3c19.3-5,39.4-16.1,53.9-25.4c1.9,0.5,4.8,0.6,8.9,0.1c-7,9.7-15.8,26.4,7.5,24.8
	C367,464.9,351.1,479.6,362,484.4z"/>
<path fill="#FFFFFF" stroke="#000000" stroke-miterlimit="10" d="M384.3,556.3c-21.7,13.5-35.9,16-45.1,14.5
	c-10.8-1.8-14.6-9.2-15.4-11.2c0-0.2,0-0.4,0.1-0.6c0.1-1,0.2-2,0.2-3c0.1-1.2,0.2-2.4,0.3-3.7c0.1-1.1,0.2-2.2,0.3-3.3
	c0.2-2.1,0.4-4.2,0.6-6.3c0.2-2.4,0.4-4.9,0.6-7.2c0.1-0.7,0.1-1.4,0.2-2.1c0.2-1.7,0.3-3.3,0.4-4.9c0.1-0.9,0.2-1.8,0.2-2.7
	c0.1-1.5,0.3-3,0.4-4.4c0.1-0.7,0.1-1.3,0.2-2c0.1-1.2,0.2-2.4,0.3-3.5c11.6-7,24.1-18.8,34.3-31.4c6.8,3,24.1,2.2,59.2-6.1
	C403.5,494.5,379.9,522.8,384.3,556.3z"/>
<path fill="#FFFFFF" stroke="#000000" stroke-miterlimit="10" d="M489.6,498.2c-6,5.5-11.1,11.5-13.5,17.2
	c-8.3,10.8-16,24.3-17.5,38.2c-10.2,7-20,10.6-29,12.1c-13.8,2.3-25.7-0.5-33.8-3.6c-7.3-2.8-11.5-5.9-11.5-5.9
	c-4.4-33.4,19.2-61.8,36.9-78c3.8-0.9,7.9-1.9,12.2-3c-9.8,9-15.1,19.8-7.7,31.3c12,18.4,40.1,5.8,61.7-8.1h0
	C488.2,498.4,488.9,498.3,489.6,498.2z"/>
<path fill="#FFFFFF" stroke="#000000" stroke-miterlimit="10" d="M508.6,544.5c-9.7,10.1-20.9,21-30.3,28c-0.1,0.1-0.1,0.1-0.2,0.2
	c-5.5-24.6-19.3-19.1-19.3-19.1c-0.1,0-0.1,0.1-0.2,0.1c1.5-13.9,9.2-27.4,17.5-38.2c-1.9,4.7-2,9.2,0.7,13.3
	c7.2,10.8,24.8-1.3,40.1-15.3C509.2,526.5,503.5,539.8,508.6,544.5z"/>
<path fill="#FFFFFF" stroke="#000000" stroke-miterlimit="10" d="M594.2,553.1c-6.6,11.3-17.6,29.7-23.4,38
	c-0.1-0.3-0.2-0.4-0.2-0.4c-16.8,15.4-40.4,10.6-59.5,2c-0.2-0.1-0.4-0.2-0.5-0.2c0.2-0.2,0.5-0.5,0.7-0.7
	c12.8-12.7,31.1-34.6,32.8-56.3c1.1-0.6,2.2-1.2,3.3-1.8c-5.1,17.6-12.2,56,35.7,26.6C587.1,558,590.8,555.5,594.2,553.1z"/>
<path fill="#FFFFFF" stroke="#000000" stroke-miterlimit="10" d="M544.1,535.6c-1.7,21.8-20,43.6-32.8,56.3
	c-0.2,0.2-0.5,0.5-0.7,0.7c-18.3-8.3-32.5-19.8-32.5-19.8c0-0.1,0-0.1,0-0.2c0.1-0.1,0.1-0.1,0.2-0.2c9.3-7,20.6-17.9,30.3-28
	c2.9,2.7,9.2,2.5,20.6-2C534.6,540.3,539.6,538,544.1,535.6z"/>
<path fill="#FFFFFF" stroke="#000000" stroke-miterlimit="10" d="M395.9,562.1c-35.8,79.1-122,126.7-122,126.7
	c-0.6,0-1.1-0.1-1.6-0.1c-32.8-1.9-29.1-19.6-17.5-36.5c1.1-1.5,2.2-3.1,3.4-4.6c33.1-15.7,67.2-58.2,81.1-76.8
	c9.2,1.5,23.4-1,45.1-14.5C384.3,556.3,388.6,559.3,395.9,562.1z"/>
<path fill="#FFFFFF" stroke="#000000" stroke-miterlimit="10" d="M429.6,565.7c-5.9,29.7-31.1,122.1-118.8,162.6
	c-0.3,0.2-0.7,0.3-1,0.5c-16.8,7.6-29.2,11.9-38.1,13.6c-43.5,8.3-5.7-43.2,1.2-52.2c0.7-0.9,1-1.3,1-1.3s86.2-47.6,122-126.7
	C404,565.2,415.8,568,429.6,565.7z"/>
<path fill="#FFFFFF" stroke="#000000" stroke-miterlimit="10" d="M478.2,572.8c0,0-38.7,155.9-127.9,188.6c-10.5,3.9-21.7,6-33.6,6
	c-50,0-55-11.9-45-25.1c8.9-1.7,21.3-5.9,38.1-13.6c0.3-0.2,0.7-0.3,1-0.5c87.8-40.5,112.9-132.9,118.8-162.6
	c9-1.5,18.8-5.1,29-12.1c0.1,0,0.1-0.1,0.2-0.1c0,0,13.7-5.5,19.3,19.1C478.1,572.7,478.2,572.8,478.2,572.8z"/>
<path fill="#FFFFFF" stroke="#000000" stroke-miterlimit="10" d="M570.7,590.8c0,0-11.6,69.8-30.2,107c-16.7-2-30.4,2.7-40.5,8.5
	c-6.8-13.5-9.9-34.1-11.2-51.6c15.5-31.9,21.4-57.6,22.4-61.9C530.3,601.3,553.8,606.2,570.7,590.8z"/>
<path fill="#FFFFFF" stroke="#000000" stroke-miterlimit="10" d="M628.6,592.1c0,0-1.2,1.9-2.6,5c0,0,0,0,0,0
	c-3.3,7.1-8,20.6-3.2,31.2c-6.3,30.8-18.3,72.4-39.2,88.4c-15.9-11.9-30.4-17.4-43.1-18.9c18.5-37.2,30.2-107,30.2-107
	s0.1,0.2,0.2,0.4C572.5,595.6,588.3,632.5,628.6,592.1z"/>
<path fill="#FFFFFF" stroke="#000000" stroke-miterlimit="10" d="M566.5,905.6c-4.7,0.2-11,2.1-19.3,6.8c-9.5,5.2-18.6,7.6-26.9,8.1
	c-14.4,0.9-26.4-3.5-33.9-7.2c-5.2-2.7-8.2-5-8.2-5s-35.6-68.7-35.3-108.5c-12.6,2.6-23.4-1-31.8-6.4c6.2,25.5,19.1,78.9,20.2,87.2
	c1.4,11-23.5,27.6-31.7,41.4c0,0,0,0.1,0,0.4c5.3-3.1,12.4-3.1,12.4-3.1c6.9-1.4,4.1,5.5,4.1,5.5c-3.8-1.5-10,0.3-14.9,2.2
	c2.8,3.2,10.2,4.7,30.1-7.7c0,0,9.7-5.5,9.7,4.1s8.3,12.4,13.8,13.8c4.7,1.2,30.2,21.2,37,15.5c-1.7-4.1-5-8.8-10.8-7.2
	c0,0,4.6-9.3,11.3-4.7c-2.4-7.3-7.9-11-12.5-12.9c18.9,4.5,69.8,14.7,79.9-3.2c2.4-4.2,4.6-6.8,6.6-8.3
	C571,912.6,568.4,908,566.5,905.6z M472.7,926.2c0,0,3.2,0.2,7,1.8C475.3,926.9,472.7,926.2,472.7,926.2z"/>
<path fill="#FFFFFF" stroke="#000000" stroke-miterlimit="10" d="M580.3,924.8c0,0-5.4-14.5-14.1-8.3c4.7-3.9,2.1-8.6,0.3-10.9
	C582.8,904.8,580.3,924.8,580.3,924.8z"/>
<path fill="#FFFFFF" stroke="#000000" stroke-miterlimit="10" d="M520.3,920.5c-14.4,0.9-26.4-3.5-33.9-7.2
	c7.5-4.1,21.3-10.2,31.8-6.4C527,910.1,524.2,916,520.3,920.5z"/>
<path fill="#FFFFFF" stroke="#000000" stroke-miterlimit="10" d="M493.4,957.9c0,0-0.4-2.5-1.6-5.2c-1.7-4.1-5-8.8-10.8-7.2
	c0,0,4.6-9.3,11.3-4.7C498.9,945.5,493.4,957.9,493.4,957.9z"/>
<path fill="#FFFFFF" stroke="#000000" stroke-miterlimit="10" d="M416.1,924.8c-3.8-1.5-10,0.3-14.9,2.2c-4,1.6-7.2,3.3-7.2,3.3
	c0.5-3.8,2.7-6.3,5.5-7.9c5.3-3.1,12.4-3.1,12.4-3.1C418.8,917.9,416.1,924.8,416.1,924.8z"/>
<path fill="#FFFFFF" stroke="#000000" stroke-miterlimit="10" d="M698.2,902.2c-0.8,4.2-3.4,7.4-3.4,7.4c-6.9-5.5-82.8-6.9-82.8-6.9
	c0.3,3.8-0.3,6.6-1.4,8.5c-1-1.5-2.4-2.9-4.1-4.4c-15.2-12.4-12.4,1.4-12.4,1.4s4.4,3.2,8.3,7.7c-3.7,0.2-7.4-1.3-10.2-3.9
	c-6.5-5.9-20.7-18.6-27-21.8c-8.1-4.1-32.2,18.4-38.3,12.8c3.8-1.2,9.8-3.1,10.7-3.1c0,0,1.4-5.5-2.8-4.1c0,0-5,0.6-8.3,2.7
	c4-6.4,23.6-14.5,35.9-23.4c12.8-9.3-30.5-75.9-44.3-96.2c3.9,1.6,8.9,2.3,15.3,1c0,0,7.3,12.1,21.9,6.8
	c9.9,15.6,45.2,71.5,49.9,77.4c5.5,6.9,8.3,15.2,17.9,19.3c8.1,3.5,34.4-1.8,42.9-3.6c1.3-0.3,2.6-0.2,3.7,0.2c0,0,0,0,0,0
	c-1.8,1.2-2.9,3.3-2.8,5.5c0.1,1.2,0.5,1.9,1.7,0.6c1.4-1.4,2.9-2.5,4.5-3.4c2.1,4.1-5.3,8-6.9,8.8c7.3-2.9,13.5-3.8,17.6-4.1
	c4.5-0.3,9,1.4,12,4.8c1.4,1.7,2.2,3.4,2.5,5.1c-6.2-0.9-11.7-0.2-11.7-0.2s-9.7,8.3,4.1,5.5C693.4,902.2,695.9,902.1,698.2,902.2z"
	/>
<path fill="#FFFFFF" stroke="#000000" stroke-miterlimit="10" d="M537.5,900c-0.9,0-6.9,1.9-10.7,3.1c-1.8,0.6-3.1,1-3.1,1
	c-0.5-2.5,0.8-4.3,2.7-5.5c3.3-2.2,8.3-2.7,8.3-2.7C538.9,894.4,537.5,900,537.5,900z"/>
<path fill="#FFFFFF" stroke="#000000" stroke-miterlimit="10" d="M606.6,933.1c3.6-5.8,0-12.3-4.2-17.2c-3.9-4.5-8.3-7.7-8.3-7.7
	s-2.8-13.8,12.4-1.4c1.8,1.4,3.1,2.9,4.1,4.4C618.2,922.1,607.1,932.6,606.6,933.1z"/>
<path fill="#FFFFFF" stroke="#000000" stroke-miterlimit="10" d="M715.6,908.2c0,0-7.3-5.4-17.4-6c-2.4-0.1-4.9,0-7.5,0.5
	c-13.8,2.8-4.1-5.5-4.1-5.5s5.4-0.6,11.7,0.2C705,898.4,712.7,901.1,715.6,908.2z"/>
<path fill="#FFFFFF" stroke="#000000" stroke-miterlimit="10" d="M688,877.9c0,0-8,0.8-14.8,4.8c-1.6,1-3.1,2.1-4.5,3.4
	c-1.2,1.2-1.6,0.5-1.7-0.6c-0.1-2.2,1-4.2,2.8-5.5c0,0,0,0,0,0C673.3,877.5,680.3,874.1,688,877.9z"/>
</svg>
