<?xml version="1.0" encoding="utf-8"?>
<!-- Generator: Adobe Illustrator 25.2.0, SVG Export Plug-In . SVG Version: 6.00 Build 0)  -->
<svg version="1.1" baseProfile="tiny" id="Layer_1" xmlns="http://www.w3.org/2000/svg" xmlns:xlink="http://www.w3.org/1999/xlink"
	 x="0px" y="0px" viewBox="0 0 1000 1000" overflow="visible" xml:space="preserve">
<path fill="#FFFFFF" stroke="#000000" stroke-miterlimit="10" d="M881.08,198.63c0.16,0.63-5.97,11.17-13.37,25.97c0,0,0,0-0.01,0
	c0,0,0,0-0.01,0.01c0,0,0,0-0.01,0v0.01h-0.01c0,0-0.01,0-0.02,0.01c0,0.01-0.01,0.01-0.01,0.01s-0.01,0-0.02,0
	c-0.06,0.03-0.14,0.08-0.25,0.15c-27.28,15.79-92.23,44.95-105.28,48.87c-15.16,4.55-38.27,17.05-59.12,27.66
	c-20.84,10.61-60.63,23.12-78.82,31.84c-4.96,2.38-10.44,5.55-15.77,8.9c1.48-4.24,2.63-8.28,3.69-10.61
	c2.42-5.32,14.87-16.33,15.64-17.02c-1.14,0.69-28.52,17.57-30.94,21.19c-1.84,2.75-6.05,6.87-8.07,8.78
	c-1.31-2.84-2.06-4.42-2.06-4.42s5.68-14.4,65.55-36.76c59.88-22.36,101.18-40.93,113.31-45.85c12.13-4.93,56.84-16.68,76.93-34.49
	C862.51,205.07,880.7,197.11,881.08,198.63z"/>
<path fill="#FFFFFF" stroke="#000000" stroke-miterlimit="10" d="M627.71,314.43c-0.77,0.69-13.22,11.7-15.64,17.02
	c-1.06,2.33-2.21,6.37-3.69,10.61c-2,5.76-4.6,11.87-8.39,14.53c-1.35,0.95-2.88,1.91-4.46,2.83c-3.9,2.28-8.09,4.34-10.59,5.52
	c0.23-1.03,0.31-1.59,0.31-1.59s1.21-1.53,2.41-3.37c0.01-0.01,0.02-0.03,0.03-0.04c0.4-0.52,2.99-2.5,5.92-4.79
	c3.72-2.9,7.98-6.29,8.94-7.78c0.34-0.52,0.73-1.33,1.14-2.3c1.69-4.04,3.5-10.83,1.52-11.04c-2.25-0.24-10.35,11.12-14.68,14.33
	c-0.44,0.32-0.83,0.56-1.18,0.7c-0.25-1.32-0.6-2.78-1.07-4.26v-0.01c0.13-0.12,0.27-0.25,0.42-0.39c2.02-1.91,6.23-6.03,8.07-8.78
	C599.19,332,626.57,315.12,627.71,314.43z"/>
<path fill="#FFFFFF" stroke="#000000" stroke-miterlimit="10" d="M856.72,237.65c-0.01,0.02-0.02,0.04-0.04,0.06
	c-29.16,38.52-76.87,124.28-90.17,146.22c-15.16,25.02-45.98,45.23-65.68,61.39c-7.69,6.31-15.68,18.31-22.58,30.6
	c-4.73-10.46-9.09-20.01-12.03-23.65c-2.99-3.7-10.02-6.46-14.88-8.01c0-0.07-0.02-0.14-0.03-0.2c-4.42-4.75-9.29-12.02-12.01-16.27
	v-0.01c0.41-2.72,0.7-5.54,0.8-8.42c40.73-27.08,95.58-58.85,113.78-71.55C774.79,333.21,832.45,266.28,856.72,237.65z"/>
<path fill="#FFFFFF" stroke="#000000" stroke-miterlimit="10" d="M640.29,474.98c-0.88,0.81-1.83,1.56-2.85,2.25h-0.01
	c-8.38,5.66-18.4,2.26-26.85-5.49c-4.53-4.16-8.61-9.56-11.74-15.49c5.02-4.39,10.88-10,14.55-14.72c0,0,6.35,2.7,15.28,0.27
	c2.61-0.72,5.44-1.87,8.39-3.65c0.88-3.18,1.67-6.67,2.24-10.36c2.72,4.25,7.59,11.52,12.01,16.27c0.01,0.06,0.03,0.13,0.03,0.2
	C652.2,449.18,650.65,465.6,640.29,474.98z"/>
<path fill="#FFFFFF" stroke="#000000" stroke-miterlimit="10" d="M647.13,511.74c-7.3,2.98-13.65,6.36-17.67,9.37
	c-13.22,9.92-28.93,24.46-29.9,25.35c0.92-1.13,19.49-23.75,30.55-44.93C630.11,501.53,637.7,506.06,647.13,511.74z"/>
<path fill="#FFFFFF" stroke="#000000" stroke-miterlimit="10" d="M834.22,456.44c-11.71,68.75-31.84,82.36-58.61,114.19
	c-26.78,31.83-42.57,57.97-46.49,67.9c2.11-5.77,4.62-11.82,7.58-18.13c1.19-2.53,2.26-4.98,3.22-7.35v-0.01
	c1.13-2.77,2.12-5.44,2.96-8.01c13-39.51-6.17-55.5-21.72-55.5c-2.58,0-5.03,0.56-7.38,1.55c-0.39-0.73-0.87-1.66-1.41-2.76
	c19.37-21.13,51.72-58.26,69.3-88.85c25.26-43.96,19.2-109.64,37.89-149.81c7.5-16.11,16.73-33,25.09-47.43
	c-2.41,5.86-4.94,12.61-7.59,20.4C819.37,334.67,845.92,387.69,834.22,456.44z"/>
<path fill="#FFFFFF" stroke="#000000" stroke-miterlimit="10" d="M680.99,580.26c-1.59,1.16-3.23,2.17-4.92,3
	c-4.81,2.35-9.62,3.94-14.01,5.01c-0.82-1-1.71-1.96-2.67-2.88c-0.99-0.95-1.98-1.86-2.98-2.72c5.87-3.75,12.56-8.36,17.38-12.67
	c2.9-2.59,6.93-7.66,10.98-13.89C685.43,566.1,682.79,574.67,680.99,580.26z"/>
<path fill="#FFFFFF" stroke="#000000" stroke-miterlimit="10" d="M842.81,297.16c-2.28,37.51,14.02,157.26-8.34,210.69
	s-61.39,73.9-88.3,119.75c-26.9,45.85-27.28,78.06-27.28,78.06s-4.65-26.45,10.23-67.13c3.92-9.93,19.71-36.07,46.49-67.9
	c26.77-31.83,46.9-45.44,58.61-114.19c11.7-68.75-14.85-121.77,2.84-173.81c2.65-7.79,5.18-14.54,7.59-20.4
	c4.55-11.08,8.62-18.95,12.03-24.52c0.02-0.02,0.03-0.04,0.04-0.06c4.38-7.14,7.66-10.49,9.44-11.97c0.54-0.45,0.95-0.73,1.21-0.89
	c0.11-0.07,0.19-0.12,0.25-0.15c0.01,0,0.02,0,0.02,0s0.01,0,0.01-0.01c0.01-0.01,0.02-0.01,0.02-0.01h0.01v0.01
	C857.2,245.62,844.14,275.16,842.81,297.16z"/>
<path fill="#FFFFFF" stroke="#000000" stroke-miterlimit="10" d="M461.72,352.86c-5.29,2.49-9.26,5.27-12,7.45
	c-4.03-0.16-8.57,0.07-13.65,0.89c-13.63,2.2-22.31,8.68-28.89,16.82c-17.76-16.2-37.61-33.86-52.46-45.87
	c-34.35-27.78-66.67-96.47-60.64-130.84c0.01-0.01,0.01-0.02,0.01-0.03c5.05,31.83,19.7,49.01,36.88,58.11
	C347.59,268.18,438.4,317.62,461.72,352.86z"/>
<path fill="#FFFFFF" stroke="#000000" stroke-miterlimit="10" d="M298.01,484.39c-4.02,9.63-7.97,19.86-11.75,28.64
	c-5.8,13.47-12.65,21.74-14.91,24c-6.06,6.06-1.77,10.61-1.77,10.61s0,7.58-3.79,20.21c-0.72,2.42-1.95,4.74-3.46,6.91
	c-1.4,2.02-3.06,3.91-4.78,5.65c-42.15-92.1-41.96-165.85-38.66-199.47c27.58-78.96,66.19-172.92,75.19-179.65
	c-0.74,1.35-51.97,93.91-44.45,153.59C254.14,390.64,276.69,439.26,298.01,484.39z"/>
<path fill="#FFFFFF" stroke="#000000" stroke-miterlimit="10" d="M473.11,348.75c-4.32,1.12-8.11,2.56-11.39,4.11
	c-23.32-35.24-114.13-84.68-130.75-93.47c-17.18-9.1-31.83-26.28-36.88-58.11c0,0,0,0-0.01,0.01c-9,6.73-47.61,100.69-75.19,179.65
	c-13.61,38.99-24.53,74.32-27.87,93.69c-7.56,43.8,0.13,117.8,2.39,167.16c0,0.01,0,0.01,0,0.01c0.76,16.69,0.91,30.54-0.37,39.48
	c-5.06,35.37-30.82,65.18-30.82,65.18s13.64-44.97,13.13-76.29c-0.5-31.33-18.82-130.87-4.42-206.66
	c2.29-12.06,5.25-24.21,8.7-36.26c18.19-63.65,49.83-124.58,67.47-156.24c10.13-18.19,22.06-41.81,32.03-61.35
	c0-0.01,0.01-0.02,0.01-0.03c10.66-20.9,19.06-37.15,20.63-37.15c3.04,0,1.9,31.33,11.5,52.55c9.6,21.22,77.3,51.03,114.69,78.32
	C446.22,318.13,462.47,335.73,473.11,348.75z"/>
<path fill="#FFFFFF" stroke="#000000" stroke-miterlimit="10" d="M257.55,580.41c-2.18,2.19-4.47,4.13-6.51,5.72
	c-8.7-5.56-19.31-7.43-29.96,2.69c-13.24,12.58-22.04,34.25-27.67,52.97c-2.26-49.36-9.95-123.36-2.39-167.16
	c3.34-19.37,14.26-54.7,27.87-93.69C215.59,414.56,215.4,488.31,257.55,580.41z"/>
<path fill="#FFFFFF" stroke="#000000" stroke-miterlimit="10" d="M270.64,583.1c-1.67,3.32-4.22,6.91-6.89,10.35
	c-0.58,0.75-1.17,1.5-1.75,2.23c-4.04,5.04-7.94,9.47-9.09,11.83c-2.14,4.39-1.97,9.98-1.91,11.15c0.01,0.14,0.02,0.22,0.02,0.22
	l-6.55-3.28c0,0-1.41-6.32,1.37-10.99c0.51-0.87,1.6-2.35,3.03-4.21c2.14-2.77,5.04-6.35,7.95-9.88c1.18-1.43,2.36-2.85,3.49-4.21
	c2.19-2.62,4.18-4.98,5.61-6.68C269.45,579.04,270.64,583.1,270.64,583.1z"/>
<path fill="#FFFFFF" stroke="#000000" stroke-miterlimit="10" d="M856.68,237.71c-3.41,5.57-7.48,13.44-12.03,24.52
	c-8.36,14.43-17.59,31.32-25.09,47.43c-18.69,40.17-12.63,105.85-37.89,149.81c-17.58,30.59-49.93,67.72-69.3,88.85
	c-2.83-5.67-7.53-15.8-12.32-26.12c1.23-6.61,0.58-12.13-3.14-15.11c-1.42-1.14-3.16-1.99-5.15-2.59c-1.61-3.37-3.08-6.42-4.32-8.9
	c-3.04-6.08-6.19-13.06-9.19-19.68c6.9-12.29,14.89-24.29,22.58-30.6c19.7-16.16,50.52-36.37,65.68-61.39
	C779.81,361.99,827.52,276.23,856.68,237.71z"/>
<path fill="#FFFFFF" stroke="#000000" stroke-miterlimit="10" d="M866.16,225.68c-1.78,1.48-5.06,4.83-9.44,11.97
	c-24.27,28.63-81.93,95.56-102.84,110.16c-18.2,12.7-73.05,44.47-113.78,71.55c0.3-8.17-0.9-16.75-4.96-24.57
	c-4.37-8.41-11.33-14.4-18.73-18.64c31.22-18.84,80.18-47.79,112.71-64.22C776.16,288.18,854.24,234,866.16,225.68z"/>
<path fill="#FFFFFF" stroke="#000000" stroke-miterlimit="10" d="M279.13,209.66c-9.97,19.54-21.9,43.16-32.03,61.35
	c-17.64,31.66-49.28,92.59-67.47,156.24c-5.75-62.95,37.11-126.67,45.49-136.28C231.52,283.62,263.35,234.29,279.13,209.66z"/>
<path fill="#FFFFFF" stroke="#000000" stroke-miterlimit="10" d="M323.52,598.8c-0.07-0.02-0.15-0.05-0.22-0.06
	c-3.49-0.99-6.88,1.76-8.3,3.13c-0.45,0.43-0.7,0.72-0.7,0.72s-6.95-10.36-8.84-12.89c-1.9-2.52-14.15-1.01-17.05,6.82
	c0,0,0.15-13.35-12.62-8.96c0.04-1.82-0.73-2.9-1.69-3.54c3.13-18.65,9.6-42.72,22.77-51.79c5.19-3.57,9.9-3.69,14.1-1.74
	c-6.14,7.93-11.42,17.42-11.07,19.55c0.63,3.79,5.43,16.42,9.98,20.46C314.43,574.55,324.41,593.37,323.52,598.8z"/>
<path fill="#FFFFFF" stroke="#000000" stroke-miterlimit="10" d="M275.79,587.56c-0.85,2.43-1.98,4.85-3.22,7.18
	c-1.41,2.66-2.96,5.2-4.38,7.51c-0.13,0.22-0.26,0.43-0.39,0.64c-1.23,2.01-2.33,3.82-3.14,5.38c-2.69,5.17-1.63,9.32-1.72,12.69
	c0,0.33-0.01,0.64-0.05,0.95c-6.49,0.34-10.16-1.79-11.89-3.25c-0.06-1.17-0.23-6.76,1.91-11.15c1.15-2.36,5.05-6.79,9.09-11.83
	c0.58-0.73,1.17-1.48,1.75-2.23c2.67-3.44,5.22-7.03,6.89-10.35c0,0,1.96-0.08,3.46,0.92C275.06,584.66,275.83,585.74,275.79,587.56
	z"/>
<path fill="#FFFFFF" stroke="#000000" stroke-miterlimit="10" d="M288.41,596.52c-2.91,7.84-12.76,15.67-12.76,15.67
	s1.13,4.17-0.89,9.76c-0.77,0.12-8.2-0.7-11.82-0.99c0.09-3.37-0.97-7.52,1.72-12.69c0.81-1.56,1.91-3.37,3.14-5.38
	c0.13-0.21,0.26-0.42,0.39-0.64c1.42-2.31,2.97-4.85,4.38-7.51c1.24-2.33,2.37-4.75,3.22-7.18
	C288.56,583.17,288.41,596.52,288.41,596.52z"/>
<path fill="#FFFFFF" stroke="#000000" stroke-miterlimit="10" d="M265.92,579.63c-1.43,1.7-3.42,4.06-5.61,6.68
	c-1.13,1.36-2.31,2.78-3.49,4.21c-2.91,3.53-5.81,7.11-7.95,9.88c-4.04,1.37-5.14-0.96-5.23-3.63c-0.11-3.25,1.54-6.31,4.18-8.22
	c0.95-0.68,2.04-1.49,3.22-2.42c2.04-1.59,4.33-3.53,6.51-5.72c1.72-1.74,3.38-3.63,4.78-5.65
	C262.33,574.76,264.03,576.57,265.92,579.63z"/>
<path fill="#FFFFFF" stroke="#000000" stroke-miterlimit="10" d="M430.31,435.46l-1.89,4.43c-1.45,2.59-2.96,5.01-4.53,7.28
	c-5.52,8.01-11.66,14.08-17.93,18.78c-3.42,2.57-6.89,4.73-10.32,6.56c-3.17,1.71-6.31,3.15-9.35,4.39
	c-3.97,1.63-7.79,2.92-11.3,4.05c-0.11,0.22-0.21,0.44-0.33,0.66c-6.37-1.2-16.69-3.48-18.42-5.93c-0.72-1.01-1.01-3.86-0.46-7.74
	c0.26-1.84,0.71-3.91,1.39-6.12c2.28-7.44,7.19-16.51,16.41-23.92c1.97-1.59,4.14-3.1,6.52-4.49c2.74,4.84,20.19,1.78,34.22,0.81
	C421.15,433.75,427.18,433.78,430.31,435.46z"/>
<path fill="#FFFFFF" stroke="#000000" stroke-miterlimit="10" d="M379.73,431.93c0,0.5,0.1,0.94,0.29,1.34
	c-2.73,0.04-5.99,0.33-9.44,0.77c-12.2,1.53-26.66,4.81-27.81,5.07c1.54-0.45,2.35-0.61,2.35-0.61s5.44-8.68,14.45-17.84
	c8.54-8.68,20.3-17.79,33.68-20.28C389.87,406.01,379.73,423.52,379.73,431.93z"/>
<path fill="#FFFFFF" stroke="#000000" stroke-miterlimit="10" d="M374.66,481.61c-11.29,22.74-33.37,33.73-44.83,36.62
	c0.21-2.95,0.54-5.91,1.01-8.87c0,0,0,0,0-0.01c2.08-13.34,6.95-26.37,16.81-35.73c1.64-1.56,3.28-2.85,4.91-3.9
	c1.08-0.7,2.15-1.29,3.22-1.78c-0.55,3.88-0.26,6.73,0.46,7.74C357.97,478.13,368.29,480.41,374.66,481.61z"/>
<path fill="#FFFFFF" stroke="#000000" stroke-miterlimit="10" d="M283.95,639.08c-0.61-0.17-10.46-2.93-14.74-6.05
	c-4.43-3.22-6.32-11.12-6.32-11.12c0.04-0.31,0.05-0.62,0.05-0.95c3.62,0.29,11.05,1.11,11.82,0.99c0.19,0.34,2.72,3.37,2.72,7.86
	C277.48,634.12,283.5,638.73,283.95,639.08z"/>
<path fill="#FFFFFF" stroke="#000000" stroke-miterlimit="10" d="M264.96,637.36c-7.63-4.41-13.94-18.48-13.94-18.48
	s-0.01-0.08-0.02-0.22c1.73,1.46,5.4,3.59,11.89,3.25C262.89,621.91,261.36,631.96,264.96,637.36z"/>
<path fill="#FFFFFF" stroke="#000000" stroke-miterlimit="10" d="M253.02,630.25c-7.1-6.06-8.55-14.65-8.55-14.65l6.55,3.28
	C251.02,618.88,249.37,622.06,253.02,630.25z"/>
<path fill="#FFFFFF" stroke="#000000" stroke-miterlimit="10" d="M324.22,621.95c-0.38,0.7-0.95-4.87-5.4-10.46
	c-3.23-4.05-3.77-7.84-3.82-9.62c1.42-1.37,4.81-4.12,8.3-3.13C327.05,605.14,324.57,621.28,324.22,621.95z"/>
<path fill="#FFFFFF" stroke="#000000" stroke-miterlimit="10" d="M742.88,605.03c-0.84,2.57-1.83,5.24-2.96,8.01
	c-3.29-2.65-8.48-11.22-8.62-13.11c-4.17-1.89-7.2-6.6-7.2-6.6s-19.71-8.46-21.98-10.64c-2.27-2.18-11.56-0.47-11.65,4.55
	c-0.1,5.02,0.47,12.03,0.47,12.03s-8.24,0-9.85,1.9c-0.85-3.04-3.13-11.28-0.85-18.57c0.22-0.71,0.47-1.49,0.75-2.34
	c1.8-5.59,4.44-14.16,3.78-24.15v-0.01c-0.27-4.21-1.14-8.67-2.89-13.26c-2.05-5.36-6.31-10.82-11.43-16.97
	c-7-4.29-15.75-9.58-23.32-14.13c-9.43-5.68-17.02-10.21-17.02-10.21c-15.44-9.95-18.8-23.82-19.53-29.79
	c8.45,7.75,18.47,11.15,26.85,5.49h0.01c1.02-0.69,1.97-1.44,2.85-2.25c10.36-9.38,11.91-25.8,11.05-30.72
	c4.86,1.55,11.89,4.31,14.88,8.01c2.94,3.64,7.3,13.19,12.03,23.65c3,6.62,6.15,13.6,9.19,19.68c1.24,2.48,2.71,5.53,4.32,8.9
	c2.55,5.36,5.43,11.56,8.29,17.7c4.79,10.32,9.49,20.45,12.32,26.12c0.54,1.1,1.02,2.03,1.41,2.76c0.41,0.76,0.73,1.31,0.94,1.61
	c2.14,2.99,11.08,11.4,13.68,21.76c4.12,3.32,7.94,6.61,8.68,7.96c0.71,1.31,1.71,5.08,2.51,9.21l0.01,0.01
	c0.97,1.05,1.6,1.92,1.74,2.53C741.87,596.55,742.6,600.92,742.88,605.03z"/>
<path fill="#FFFFFF" stroke="#000000" stroke-miterlimit="10" d="M576.53,493.83c0.03,0.06,0.05,0.14,0.07,0.23
	c-1.61,0.06-3.66-0.13-6.26-0.74c-4.81,2.08-10.04,2.08-14.08,1.56c3.76-3.64,6.88-7.44,6.88-7.44l-0.73-0.57l11.39-1.7l2.79-5.12
	c0,0,3.6-1.48,6.88-2.97C583.86,479.58,581.54,488.94,576.53,493.83z"/>
<path fill="#FFFFFF" stroke="#000000" stroke-miterlimit="10" d="M563.14,487.44c0,0-3.12,3.8-6.88,7.44
	c-1.51,1.47-3.12,2.91-4.67,4.07c-0.63,0.48-1.24,0.9-1.84,1.26c-5.74,3.47-22.61-3.66-25.58-4.04c0,0,3.1-12.32,3.46-20.62
	c1.43-0.23,2.61-0.32,3.43-0.23c5.3,0.57,13.73,5.88,23.03,7.14c0.76,0.1,1.62,0.07,2.55-0.09l5.77,4.5L563.14,487.44z"/>
<path fill="#FFFFFF" stroke="#000000" stroke-miterlimit="10" d="M490.96,515.79c-1.17,4.11-3.3,13.27-2.44,22.91
	c-23.13-7.68-37.78-21.63-38.4-22.23c-5.89-10.29-8.28-23.33-8.75-31.3c0,0,14.55,8.99,31.01,5.94c5.89,1.59,11.48,0.59,14.72-0.32
	c-0.19,2.43,3.51,8.04,8.59,8.79c0.32,0.05,0.68,0.08,1.08,0.09c-5.19,2.29-13.98,7.48-7.52,14.5
	C489.78,514.74,490.35,515.28,490.96,515.79z"/>
<path fill="#FFFFFF" stroke="#000000" stroke-miterlimit="10" d="M489.01,487.88c-1.06,1.11-1.84,2.14-1.91,2.85v0.06
	c-3.24,0.91-8.83,1.91-14.72,0.32c-16.46,3.05-31.01-5.94-31.01-5.94c-8.17-8.41-14.84-28.99-17.48-38
	c1.57-2.27,3.08-4.69,4.53-7.28l1.89-4.43c0.16,0.08,0.31,0.17,0.45,0.26c0,0,1.7,1.42,4.49,3.68c0,0.01,0,0.01,0,0.01
	c1.12,7.99,4.34,22.51,13.26,29.66c6.44,7.14,19.64,13.77,19.64,13.77l7.83-2.79L489.01,487.88z"/>
<path fill="#FFFFFF" stroke="#000000" stroke-miterlimit="10" d="M527.63,475.55c-0.36,8.3-3.46,20.62-3.46,20.62
	c-4.92,0.95-21.17,3.78-27.39,3.5h-0.01c-0.4-0.01-0.76-0.04-1.08-0.09c-5.08-0.75-8.78-6.36-8.59-8.79v-0.06
	c0.07-0.71,0.85-1.74,1.91-2.85c1.52-1.57,3.61-3.29,5.04-4.42c0.79,0.17,1.63,0.18,2.51,0.01
	C504.36,481.97,519.82,476.78,527.63,475.55z"/>
<path fill="#FFFFFF" stroke="#000000" stroke-miterlimit="10" d="M523.08,514.73c-0.31,1.15-0.67,2.16-1.12,2.97
	c-2.96,5.35-21.45,6.01-31-1.91c-0.61-0.51-1.18-1.05-1.71-1.62c-6.46-7.02,2.33-12.21,7.52-14.5h0.01
	c6.22,0.28,22.47-2.55,27.39-3.5C524.17,496.17,524.87,507.83,523.08,514.73z"/>
<path fill="#FFFFFF" stroke="#000000" stroke-miterlimit="10" d="M553.29,510.88c-0.77,3.31-2.42,5.68-4.6,7.24
	c-3.23,2.31-7.63,2.86-12.07,2.11c-6.41-1.08-10.57-2.92-13.54-5.5c1.79-6.9,1.09-18.56,1.09-18.56c2.97,0.38,19.84,7.51,25.58,4.04
	c0.6-0.36,1.21-0.78,1.84-1.26C552.94,501.59,554.43,505.91,553.29,510.88z"/>
<path fill="#FFFFFF" stroke="#000000" stroke-miterlimit="10" d="M571.41,539.16l-0.01,0.01c-2.22,1.95-4.47,3.73-6.73,5.33
	c-4.02,2.85-8.1,5.18-12.17,7.09c-3.18,1.49-6.35,2.71-9.51,3.73c-3.36,1.08-6.69,1.93-9.97,2.58c0,0,0,0-0.01,0
	c-8.34,1.68-16.36,2.17-23.56,2.37c-8.53,0.24-13.03-0.76-17.56-2.63h-0.01c-3.92-1.62-7.87-3.89-14.46-6.56
	c-1.92-0.78-4.06-1.59-6.49-2.43c-1.12-0.38-2.18-0.75-3.21-1.11c-10.54-3.66-16.42-5.78-19.46-6.91c-0.26-0.1-0.5-0.18-0.71-0.26
	c-0.04-0.01-0.07-0.03-0.1-0.04c-0.61-0.29-1.2-0.53-1.77-0.68c-0.04-0.01-0.08-0.03-0.11-0.04c-0.04-0.01-0.07-0.02-0.09-0.03
	c-0.04-0.01-0.06-0.02-0.06-0.02c-1.77-4.3,4.68-23.11,4.68-23.11s0.01,0.01,0.02,0.02c0.62,0.6,15.27,14.55,38.4,22.23
	c9.7,3.22,20.9,5.34,33.19,4.9c12.83-0.46,22.51-2.31,29.76-4.65c16.6-5.37,20.51-13.34,20.51-13.34s0,0,0.01,0.01
	C572.48,529.4,571.98,534.88,571.41,539.16z"/>
<path fill="#FFFFFF" stroke="#000000" stroke-miterlimit="10" d="M544.43,605.55c-4.49,6.18-10.73,15.54-15.65,25.32
	c-8.33,16.56-14.65,20.6-23.74,33.99c-3.21,4.73-6.07,11.93-8.39,19.44c-1.53-1.29-4.59-1.33-8.29-0.67
	c-10.67,1.88-26.7,9.5-27.26,9.77c1.01-1.01,37.72-37.53,44.95-48.24c5.92-8.78,25.54-37.53,37.91-50.5
	C543.98,598.47,544.2,602.19,544.43,605.55z"/>
<path fill="#FFFFFF" stroke="#000000" stroke-miterlimit="10" d="M544.95,617.62c-0.01,0.06-0.01,0.13-0.02,0.19
	c-0.02,0.27-0.04,0.53-0.05,0.79c-3.72,4.8-8.92,12.53-12.48,19.93c-5.24,10.84-23.68,42.31-28.52,63.74
	c-1.24-4.87-2.95-13.34-6.93-17.7c-0.09-0.1-0.19-0.19-0.3-0.27c2.32-7.51,5.18-14.71,8.39-19.44
	c9.09-13.39,15.41-17.43,23.74-33.99c4.92-9.78,11.16-19.14,15.65-25.32C544.79,610.72,545.19,615.05,544.95,617.62z"/>
<path fill="#FFFFFF" stroke="#000000" stroke-miterlimit="10" d="M541.67,638.59c-5.56,6.31,2.02,17.68-3.97,24.76
	c-3.57,4.22-6.41,16.26-8.13,25.29c0.25-2.58,0.37-5.38,0.22-8.12c-0.5-9.09-9.6-0.5-12.63,9.1c-2.76,8.76-7,30.73-7.46,33.59
	c0-2.34-3.22-15.5-4.66-17.55c-0.38-0.54-0.74-1.76-1.16-3.39c4.84-21.43,23.28-52.9,28.52-63.74c3.56-7.4,8.76-15.13,12.48-19.93
	C544.42,626.23,547,632.53,541.67,638.59z"/>
<path fill="#FFFFFF" stroke="#000000" stroke-miterlimit="10" d="M552.5,551.59c-5.74,10.03-17.26,29.97-21.19,35.21
	c-5.3,7.07-27.54,28.55-33.6,28.8s-9.09-11.62-14.65-21.73c-2.47-4.48-4.85-6.66-6.73-7.69c-1.51-5.5-3.68-11.21-6.24-16.66
	c-6.21-13.18-14.73-24.89-21.89-28.81c0.02-0.03,0.04-0.06,0.06-0.08c3.04,1.13,8.92,3.25,19.46,6.91c1.03,0.36,2.09,0.73,3.21,1.11
	c2.43,0.84,4.57,1.65,6.49,2.43c1.29,3.15,3.87,8.85,9.55,20.31c11.75,23.74,7.71,36.12,25.14,22.48
	c12.41-9.71,24.79-28.52,30.88-38.55C546.15,554.3,549.32,553.08,552.5,551.59z"/>
<path fill="#FFFFFF" stroke="#000000" stroke-miterlimit="10" d="M470.09,569.52c-4.58,7.04-12.4,15.9-21.78,24.95
	c-17.06,16.46-39.28,33.54-56.44,41.36c-0.07,0.04-0.13,0.07-0.2,0.1c0-0.24,0-0.49,0.01-0.73c0.3-23.55,15.45-52.42,25.57-62.36
	c5.22-5.13,8.87-10.5,11.18-14.53h0.01c1.69-0.86,3.16-1.62,4.34-2.33c6.6-3.96,12.47-11.23,15.42-15.27
	C455.36,544.63,463.88,556.34,470.09,569.52z"/>
<path fill="#FFFFFF" stroke="#000000" stroke-miterlimit="10" d="M391.68,635.2c-0.01,0.24-0.01,0.49-0.01,0.73
	c0.07-0.03,0.13-0.06,0.2-0.1l-1.18,2.86l-1.72,4.16c-0.3,0.9-0.63,1.86-0.96,2.87c-0.45,1.01-0.95,2.05-1.51,3.11
	c-4.32,8.33-11.78,17.84-23.89,20.38h-0.01c-0.1,0.03-0.2,0.05-0.3,0.07c-1.66-2.52-2.9-5.13-3.74-7.85
	c-4.71-15.24,3.14-33.92,18.9-59.98c16.24-26.85,39.15-37.17,50.97-43.14c-2.31,4.03-5.96,9.4-11.18,14.53
	C407.13,582.78,391.98,611.65,391.68,635.2z"/>
<path fill="#FFFFFF" stroke="#000000" stroke-miterlimit="10" d="M396.23,691.97c-4.05,5.41-10.34,12.53-16.69,16.34
	c-10.42,6.26-12.31,18.57-14.97,24.26c-1.08,2.31-2.25,8.87-4.41,16.94c-2.39,9.01-6.01,19.9-12.07,28.9
	c-2.07,0.13-4.14,0.32-6.25,0.14c-3.23-5.25-8.6-6.7-13.57-6.37c2.19-3.96,3.82-8.71,5.07-13.95c4.46-18.72,3.93-43.76,6.22-62.17
	c1.72-13.85,8.46-23.79,13.97-29.79c1.91-2.1,3.68-3.71,5.03-4.84c0.84,2.72,2.08,5.33,3.74,7.85c0.1-0.02,0.2-0.04,0.3-0.07
	c-2.99,4.3-7.02,10.32-9.02,14.66c-3.22,7.01-0.08,24.06,6.35,26.15c5.8,1.88,16.31-8.88,20.41-18.65
	C382.31,691.7,388.84,692.65,396.23,691.97z"/>
<path fill="#FFFFFF" stroke="#000000" stroke-miterlimit="10" d="M388.01,645.72c-0.12,0.36-0.25,0.74-0.37,1.11
	c-0.21,0.66-0.44,1.34-0.67,2.04c-0.16,0.5-0.32,1-0.48,1.52c-0.52,1.63-1.05,3.34-1.58,5.09c-0.25,0.82-0.5,1.65-0.75,2.49
	c-0.06,0.21-0.12,0.41-0.18,0.62c-0.2,0.7-0.4,1.4-0.61,2.11c-0.65,2.33-1.28,4.69-1.86,7.01c-0.23,0.91-0.45,1.81-0.65,2.7
	c-0.1,0.45-0.2,0.9-0.3,1.34c-0.1,0.44-0.2,0.88-0.29,1.31c-0.46,2.18-0.85,4.29-1.13,6.25c-0.06,0.39-0.11,0.78-0.16,1.16
	s-0.09,0.75-0.13,1.12c-0.06,0.51-0.1,1.01-0.14,1.49c-0.03,0.3-0.05,0.6-0.06,0.9c-0.01,0.26-0.02,0.51-0.03,0.75
	c-0.01,0.32-0.02,0.64-0.02,0.95c0,2.46,0.34,4.4,1.13,5.58c0,0,0.21,0.04,0.61,0.11c-4.1,9.77-14.61,20.53-20.41,18.65
	c-6.43-2.09-9.57-19.14-6.35-26.15c2-4.34,6.03-10.36,9.02-14.66h0.01c12.11-2.54,19.57-12.05,23.89-20.38
	C387.06,647.77,387.56,646.73,388.01,645.72z"/>
<path fill="#FFFFFF" stroke="#000000" stroke-miterlimit="10" d="M353.53,666.27c-5.51,6-12.25,15.94-13.97,29.79
	c-2.29,18.41-1.76,43.45-6.22,62.17c-1.25,5.24-2.88,9.99-5.07,13.95h-0.01c-1.25,0.07-2.47,0.27-3.63,0.55
	c1.9-3.65,3.52-8.4,4.83-13.45h0.01c2.31-8.92,3.65-18.79,3.78-25.2c0.25-12.63-10.61-33.35-2.53-52.04
	C337.12,667.25,348.89,666.1,353.53,666.27z"/>
<path fill="#FFFFFF" stroke="#000000" stroke-miterlimit="10" d="M371.11,790.1c-1.89-0.99-3.97-1.55-6.15-1.6
	c-2.16-0.06-4.42,0.39-6.7,1.41c-7.93,3.57-9.48,18.45-9.78,24.73c-4.07-0.51-7.32-1.47-8.66-2.49c-2.55,0.72-4.94,1.28-7.17,1.7
	c3.7-11.05-2.63-20.68-5.47-24.69c-0.43-0.61-0.95-1-1.55-1.21h-0.01c-1.12-0.41-2.5-0.16-3.98,0.53c-3.3,1.53-7.1,5.27-9.68,9.01
	c-4.27,6.19-0.18,14.81-0.01,15.17c-0.68-0.31-1.32-0.65-1.94-1.02c-3.81,0.78-8.57,1.77-13.36,2.39c0.78-5.5-1.23-12.37-1.8-20.46
	c-0.08-1.08-0.27-2.05-0.55-2.93c-1.5-4.61-5.6-6.59-9.43-7.03c2.92-2.59,6.31-4.46,9.98-5.06c13.89-2.28,22.99-2.78,22.99-2.78
	c1.43-1.18,3.9-2.36,6.79-3.04c1.16-0.28,2.38-0.48,3.63-0.55h0.01c4.97-0.33,10.34,1.12,13.57,6.37c2.11,0.18,4.18-0.01,6.25-0.14
	c2.82-0.16,5.64-0.23,8.55,0.86c0.87,0.32,1.74,0.75,2.63,1.3c0.17,0.11,0.35,0.22,0.54,0.35h0.01
	C362.63,782.72,367.3,786.07,371.11,790.1z"/>
<path fill="#FFFFFF" stroke="#000000" stroke-miterlimit="10" d="M296.65,814.03c-4.31,0.56-8.63,0.83-12.3,0.39
	c0.93-1.86,1.4-3.03,1.4-3.03l1.42-20.55l0.33-4.84c0,0-1.82,1.35-3.87,4.89c-2.32,4-4.94,10.79-5.56,21.58
	c-1.15-0.73-2.07-1.66-2.68-2.85c-2.24-4.36-0.62-12.03,3.43-18.68c1.64-2.71,3.69-5.26,6.05-7.33c3.83,0.44,7.93,2.42,9.43,7.03
	c0.28,0.88,0.47,1.85,0.55,2.93C295.42,801.66,297.43,808.53,296.65,814.03z"/>
<path fill="#FFFFFF" stroke="#000000" stroke-miterlimit="10" d="M332.65,813.85c-3.78,0.72-7.11,1.04-10.09,0.99
	c0.89-3.37,1.36-7.01,2.22-12.87c1.71-11.61,1.06-13.48,1.06-13.48s0,0-0.01,0c-2.43-0.31-4.75,1.13-5.56,3.45
	c-1.57,4.47-3.94,12.81-3.83,22.23c-1.63-0.36-3.12-0.87-4.48-1.5c0,0,0,0-0.01-0.01c-0.17-0.36-4.26-8.98,0.01-15.17
	c2.58-3.74,6.38-7.48,9.68-9.01c1.48-0.69,2.86-0.94,3.98-0.53h0.01c0.6,0.21,1.12,0.6,1.55,1.21
	C330.02,793.17,336.35,802.8,332.65,813.85z"/>
<path fill="#FFFFFF" stroke="#000000" stroke-miterlimit="10" d="M359.93,810.16c0.25,0.55,0.38,2.29,0.76,4.49
	c-4.2,0.54-8.54,0.45-12.21-0.01c0.3-6.28,1.85-21.16,9.78-24.73c2.28-1.02,4.54-1.47,6.7-1.41
	C355.96,790.24,359.27,808.73,359.93,810.16z"/>
<path fill="#FFFFFF" stroke="#000000" stroke-miterlimit="10" d="M375.44,807.6c-1.95,2.67-4.98,4.48-8.47,5.65
	c0.03-12-2.01-24.75-2.01-24.75c2.18,0.05,4.26,0.61,6.15,1.6c0.01,0,0.01,0,0.01,0.01C376.11,795.41,379.62,801.88,375.44,807.6z"
	/>
<path fill="#FFFFFF" stroke="#000000" stroke-miterlimit="10" d="M287.5,786l-0.33,4.84l-1.42,20.55c0,0-0.47,1.17-1.4,3.03
	c-1.24,2.45-3.3,6.11-6.18,9.85c-0.3-4.38-0.3-8.3-0.1-11.8c0.62-10.79,3.24-17.58,5.56-21.58C285.68,787.35,287.5,786,287.5,786z"
	/>
<path fill="#FFFFFF" stroke="#000000" stroke-miterlimit="10" d="M324.78,801.97c-0.86,5.86-1.33,9.5-2.22,12.87h-0.01
	c-0.87,3.31-2.15,6.34-4.59,10.95c-1.04-3.92-1.48-7.86-1.52-11.62c-0.11-9.42,2.26-17.76,3.83-22.23c0.81-2.32,3.13-3.76,5.56-3.45
	c0.01,0,0.01,0,0.01,0S326.49,790.36,324.78,801.97z"/>
<path fill="#FFFFFF" stroke="#000000" stroke-miterlimit="10" d="M366.97,813.25c-0.02,4.54-0.33,8.96-1.16,12.54
	c-3.31-2.96-4.53-7.64-5.12-11.14c-0.38-2.2-0.51-3.94-0.76-4.49c-0.66-1.43-3.97-19.92,5.03-21.66
	C364.96,788.5,367,801.25,366.97,813.25z"/>
<path fill="#FFFFFF" stroke="#000000" stroke-miterlimit="10" d="M565.65,544.54c-3.56,3.71-6.07,7.98-9.29,13.53
	c-1.97,3.4-4.2,7.28-7.11,11.8c-2.8,4.35-4.21,9.78-4.84,15.45c-12.08,10.46-37.52,51.9-49.98,50.61
	c-6.98-0.72-11.83-8.13-14.88-15.07c-0.66-1.5-1.23-2.98-1.73-4.36c0-0.01,0-0.01,0-0.01c0.12-4.14,0.34-8.4,0.69-12.77
	c0.42-5.12-0.44-11.2-2.18-17.54c1.88,1.03,4.26,3.21,6.73,7.69c5.56,10.11,8.59,21.98,14.65,21.73s28.3-21.73,33.6-28.8
	c3.93-5.24,15.45-25.18,21.19-35.21c4.07-1.91,8.15-4.24,12.17-7.09C564.98,544.51,565.31,544.53,565.65,544.54z"/>
<path fill="#FFFFFF" stroke="#000000" stroke-miterlimit="10" d="M680.15,650.76c-1.54,7.26-3.51,13.66-4.33,16.12
	c-1.77,5.31-7.84,42.7-12.13,45.73c-4.3,3.03-9.1-30.82-12.38-36.13c-0.59-0.95-1.14-2.23-1.77-3.74c0,0-0.01-0.01-0.01-0.02
	c-2.84-6.81-7.29-18.23-23.7-24.75c0.09-0.09,0.17-0.16,0.26-0.24c-0.24,0.02-0.49,0.03-0.75,0.04c-7.84,0.42-20.07,0.03-36.43-3.62
	c-22.35-4.99-37.26-18.89-43.67-26c-0.11-0.12-0.21-0.23-0.31-0.34c0.01-0.06,0.01-0.13,0.02-0.19c0.24-2.57-0.16-6.9-0.52-12.07
	c-0.23-3.36-0.45-7.08-0.47-10.89c-0.02-3.09,0.1-6.25,0.45-9.34c0.63-5.67,2.04-11.1,4.84-15.45c2.91-4.52,5.14-8.4,7.11-11.8
	c4.6,0.27,11.93,0.97,20.42,2.37c5.86,6.8,10.09,22.97,19.46,42.27c10.86,22.39,44.46,40.68,57.09,33.32
	c11.19-6.53,9.1-23.88,6.89-30.2c3.71,2.51,8.34,5.87,12.35,9.52c4.19,3.79,7.7,7.89,8.8,11.62
	C683.13,632.91,681.92,642.41,680.15,650.76z"/>
<path fill="#FFFFFF" stroke="#000000" stroke-miterlimit="10" d="M672.57,615.35c-4.01-3.65-8.64-7.01-12.35-9.52
	c-0.28-0.82-0.57-1.45-0.83-1.85c-1.13-1.77-5.87-7.14-13.6-13.51c-0.31-0.26-0.63-0.52-0.96-0.78c-1.31-1.06-2.69-2.15-4.16-3.24
	c-2.57-6.13-6.04-13.06-10.47-19.06c6.3,2.19,16.35,6.69,26.21,15.28c1,0.86,1.99,1.77,2.98,2.72c0.96,0.92,1.85,1.88,2.67,2.88
	C668.88,596.44,671.58,606.86,672.57,615.35z"/>
<path fill="#FFFFFF" stroke="#000000" stroke-miterlimit="10" d="M640.67,586.45c-7.1-5.32-16.04-10.95-26.5-15.57
	c-11.91-5.27-25.74-8.51-37.39-10.44c-8.49-1.4-15.82-2.1-20.42-2.37c3.22-5.55,5.73-9.82,9.29-13.53c1.43,0.07,3.07,0.16,4.86,0.27
	c13.14,0.9,34.78,3.51,47.71,11.17c4.58,2.71,8.56,6.78,11.98,11.41C634.63,573.39,638.1,580.32,640.67,586.45z"/>
<path fill="#FFFFFF" stroke="#000000" stroke-miterlimit="10" d="M653.33,636.03c-12.63,7.36-46.23-10.93-57.09-33.32
	c-9.37-19.3-13.6-35.47-19.46-42.27c11.65,1.93,25.48,5.17,37.39,10.44c10.46,4.62,19.4,10.25,26.5,15.57
	c1.47,1.09,2.85,2.18,4.16,3.24c0.33,0.26,0.65,0.52,0.96,0.78c7.73,6.37,12.47,11.74,13.6,13.51c0.26,0.4,0.55,1.03,0.83,1.85
	C662.43,612.15,664.52,629.5,653.33,636.03z"/>
<path fill="#FFFFFF" stroke="#000000" stroke-miterlimit="10" d="M646.26,701.49c-5.4,9.14-11.65,11.85-19.16,17.68
	c-4.36-7.65-9.39-14.18-12.42-18.44c-6.32-8.84-5.56-21.72-3.79-32.08c1.27-7.42,10.05-16.27,14.94-20.68
	c16.41,6.52,20.86,17.94,23.7,24.75c0,0.01,0.01,0.02,0.01,0.02C650.19,681.84,650.25,694.74,646.26,701.49z"/>
<path fill="#FFFFFF" stroke="#000000" stroke-miterlimit="10" d="M713.7,817.97c-4.87-1.12-8.83-2.79-8.83-2.79
	c2.84-7.58-7.77-21.41-10.42-21.81c-2.66-0.39-7.96,5.13-12.22,13.85c-2.42,4.94-0.41,9.3,1.77,12.13
	c-4.96-0.8-11.08-1.72-18.54-2.4c-0.49,0.4-0.99,0.79-1.47,1.13c4.01-11.08,1.53-27.22-12.68-24.38
	c-10.87,2.18-14.08,11.67-15.01,17.83c-0.33-0.92-0.55-1.82-0.65-2.67c-8.59-4.29-3.29-12.88,0-19.96c3.28-7.07-0.26-24.25,0-42.44
	c0.13-9.44-3.83-19.02-8.55-27.29c7.51-5.83,13.76-8.54,19.16-17.68c3.99-6.75,3.93-19.65,3.28-28.75c0.63,1.51,1.18,2.79,1.77,3.74
	c3.28,5.31,8.08,39.16,12.38,36.13c4.29-3.03,10.36-40.42,12.13-45.73c0.82-2.46,2.79-8.86,4.33-16.12
	c6.61,28.56-13.17,100.83-5.85,117.17c7.58,16.93,28.29,10.87,42.6,15.42c4.23,1.34,7.58,3.81,10.07,6.87
	C726.97,790.22,704,796.11,713.7,817.97z"/>
<path fill="#FFFFFF" stroke="#000000" stroke-miterlimit="10" d="M717.18,814.99c0,0,5.51,0.27,10.94,2.41
	c-3.64,2.27-9.49,1.7-14.42,0.57c-9.7-21.86,13.27-27.75,13.27-27.75c2.81,3.43,4.53,7.59,5.22,11.73
	c-3.57-7.55-7.62-9.51-7.62-9.51C714.34,798.31,717.18,814.99,717.18,814.99z"/>
<path fill="#FFFFFF" stroke="#000000" stroke-miterlimit="10" d="M704.87,815.18c0,0-0.4,0.99-2.79,3.5
	c-1.38-18.5-7.63-23.97-7.63-23.97c-7.39,6.45,0,23.5,0,23.5s0.92,0.84,2.27,2.76c-2.9,0-7.05-0.73-12.71-1.62H684
	c-2.18-2.83-4.19-7.19-1.77-12.13c4.26-8.72,9.56-14.24,12.22-13.85C697.1,793.77,707.71,807.6,704.87,815.18z"/>
<path fill="#FFFFFF" stroke="#000000" stroke-miterlimit="10" d="M663.99,818.08c-3.1,2.29-6.02,3.64-8.74,4.27l0.73-24.6
	c0,0-4.26-5.31-6.11,1.51l3.21,23.46c-8.63,0.87-14.77-5.51-16.78-11.19c0.93-6.16,4.14-15.65,15.01-17.83
	C665.52,790.86,668,807,663.99,818.08z"/>
<path fill="#FFFFFF" stroke="#000000" stroke-miterlimit="10" d="M737.27,824.65c-1.9-3.57-5.51-5.83-9.15-7.25
	c-5.43-2.14-10.94-2.41-10.94-2.41s-2.84-16.68,7.39-22.55c0,0,4.05,1.96,7.62,9.51v0.01C734.5,806.85,736.6,814.08,737.27,824.65z"
	/>
<path fill="#FFFFFF" stroke="#000000" stroke-miterlimit="10" d="M702.22,831.85c-1.91-5.22-3.97-8.73-5.5-10.88
	c-1.35-1.92-2.27-2.76-2.27-2.76s-7.39-17.05,0-23.5c0,0,6.25,5.47,7.63,23.97C702.37,822.5,702.45,826.86,702.22,831.85z"/>
<path fill="#FFFFFF" stroke="#000000" stroke-miterlimit="10" d="M655.98,797.75l-0.73,24.6l-0.4,13.29l-1.77-12.92l-3.21-23.46
	C651.72,792.44,655.98,797.75,655.98,797.75z"/>
<path fill="#FFFFFF" stroke="#000000" stroke-miterlimit="10" d="M533.01,557.9c-6.88,5.33-18.6,13.17-28.73,8.69
	c-8.28-3.66-9.1-5.62-12.39-8.95c4.53,1.87,9.03,2.87,17.56,2.63C516.65,560.07,524.67,559.58,533.01,557.9z"/>
<path fill="#FFFFFF" stroke="#000000" stroke-miterlimit="10" d="M542.99,555.32c-6.09,10.03-18.47,28.84-30.88,38.55
	c-17.43,13.64-13.39,1.26-25.14-22.48c-5.68-11.46-8.26-17.16-9.55-20.31c6.59,2.67,10.54,4.94,14.46,6.56h0.01
	c3.29,3.33,4.11,5.29,12.39,8.95c10.13,4.48,21.85-3.36,28.73-8.69c0.01,0,0.01,0,0.01,0C536.3,557.25,539.63,556.4,542.99,555.32z"
	/>
<path fill="#FFFFFF" stroke="#000000" stroke-miterlimit="10" d="M551.47,538.95c-7.25,2.34-16.93,4.19-29.76,4.65
	c-12.29,0.44-23.49-1.68-33.19-4.9c-0.86-9.64,1.27-18.8,2.44-22.91c9.55,7.92,28.04,7.26,31,1.91c0.45-0.81,0.81-1.82,1.12-2.97
	c2.97,2.58,7.13,4.42,13.54,5.5c4.44,0.75,8.84,0.2,12.07-2.11C550.45,523.23,552.72,531.72,551.47,538.95z"/>
<path fill="#FFFFFF" stroke="#000000" stroke-miterlimit="10" d="M571.67,523.96c0.13,0.5,0.23,1.05,0.31,1.65
	c0,0-3.91,7.97-20.51,13.34c1.25-7.23-1.02-15.72-2.78-20.83c2.18-1.56,3.83-3.93,4.6-7.24c1.14-4.97-0.35-9.29-1.7-11.93
	c1.55-1.16,3.16-2.6,4.67-4.07c4.04,0.52,9.27,0.52,14.08-1.56c2.6,0.61,4.65,0.8,6.26,0.74
	C577.37,497.34,575.36,516.76,571.67,523.96z"/>
<path fill="#FFFFFF" stroke="#000000" stroke-miterlimit="10" d="M494.05,483.46c-1.43,1.13-3.52,2.85-5.04,4.42l-13.03-7.83
	l-7.83,2.79c0,0-13.2-6.63-19.64-13.77c-8.92-7.15-12.14-21.67-13.26-29.66c10.73,8.69,37.67,29.76,46.29,29.66
	c0.69-0.01,1.38-0.04,2.05-0.08h0.01C484.83,473.07,488.24,482.27,494.05,483.46z"/>
<path fill="#FFFFFF" stroke="#000000" stroke-miterlimit="10" d="M544.41,585.32c-0.35,3.09-0.47,6.25-0.45,9.34
	c-12.37,12.97-31.99,41.72-37.91,50.5c-7.23,10.71-43.94,47.23-44.95,48.24c-0.01,0-0.02,0.01-0.02,0.01s16.42-24.76,16.93-36.63
	c0.35-8.36-0.42-20.46-0.29-34.47c0.63-0.5,1.24-0.98,1.83-1.45c3.05,6.94,7.9,14.35,14.88,15.07
	C506.89,637.22,532.33,595.78,544.41,585.32z"/>
<path fill="#FFFFFF" stroke="#000000" stroke-miterlimit="10" d="M478.51,603.72c-0.35,4.37-0.57,8.63-0.69,12.77c0,0,0,0,0,0.01
	c-0.05,1.97-0.09,3.91-0.1,5.81c-7.14,5.69-16.53,13.76-24.14,20.37c-4.58,3.99-8.52,7.45-10.94,9.55
	c-4.49,3.9-8.67,10.41-13.44,17.05c13.62-19.6,18.17-57.38,19.11-74.81c9.38-9.05,17.2-17.91,21.78-24.95
	c2.56,5.45,4.73,11.16,6.24,16.66C478.07,592.52,478.93,598.6,478.51,603.72z"/>
<path fill="#FFFFFF" stroke="#000000" stroke-miterlimit="10" d="M488.36,683.63c-13.94,20.56-40.58,54.59-75.79,75.21
	c-17.69,10.36-35.74,17.35-52.75,22.08h-0.01c-0.19-0.13-0.37-0.24-0.54-0.35c-0.89-0.55-1.76-0.98-2.63-1.3
	c2.08-7.01,6.73-21.72,12.48-33.33c9.02-3.78,17.31-7.84,25.01-12.11c32.05-17.79,52.93-72.04,59.45-91.15
	c7.61-6.61,17-14.68,24.14-20.37c-0.13,14.01,0.64,26.11,0.29,34.47c-0.51,11.87-16.93,36.63-16.93,36.63s0.01-0.01,0.02-0.01
	C461.66,693.13,477.69,685.51,488.36,683.63z"/>
<path fill="#FFFFFF" stroke="#000000" stroke-miterlimit="10" d="M329.46,759.28c-1.31,5.05-2.93,9.8-4.83,13.45
	c-2.89,0.68-5.36,1.86-6.79,3.04c0,0-9.1,0.5-22.99,2.78c-3.67,0.6-7.06,2.47-9.98,5.06c-2.36,2.07-4.41,4.62-6.05,7.33
	c-21.79,0-54.14-3.11-64.81-16.94C261.04,772.76,298.65,767.4,329.46,759.28z"/>
<path fill="#FFFFFF" stroke="#000000" stroke-miterlimit="10" d="M399.12,691.63c-1.45,26.38-9.46,29.74-21.16,40.94
	c-3.09,2.95-6.09,7.81-8.84,13.37c-5.75,11.61-10.4,26.32-12.48,33.33c-2.91-1.09-5.73-1.02-8.55-0.86c6.06-9,9.68-19.89,12.07-28.9
	c2.16-8.07,3.33-14.63,4.41-16.94c2.66-5.69,4.55-18,14.97-24.26c6.35-3.81,12.64-10.93,16.69-16.34h0.01
	C397.19,691.89,398.15,691.78,399.12,691.63z"/>
<path fill="#FFFFFF" stroke="#000000" stroke-miterlimit="10" d="M407.18,378.02c-5.09,6.27-8.93,13.53-12.83,20.58
	c0,0-0.04,0.06-0.11,0.19c-0.17,0.27-0.51,0.82-0.98,1.59h-0.01c-13.38,2.49-25.14,11.6-33.68,20.28
	c-25.67-30.01-54.7-57.07-68.26-80.43c-25.24-43.49,2.18-136.91,2.77-138.92c-6.03,34.37,26.29,103.06,60.64,130.84
	C369.57,344.16,389.42,361.82,407.18,378.02z"/>
<path fill="#FFFFFF" stroke="#000000" stroke-miterlimit="10" d="M380.1,433.41c-2.38,1.39-4.55,2.9-6.52,4.49
	c-9.22,7.41-14.13,16.48-16.41,23.92c-0.68,2.21-1.13,4.28-1.39,6.12c-1.07,0.49-2.14,1.08-3.22,1.78c-1.63,1.05-3.27,2.34-4.91,3.9
	c-9.86,9.36-14.73,22.39-16.81,35.73c0,0.01,0,0.01,0,0.01c-0.47,2.96-0.8,5.92-1.01,8.87c-2.14,0.54-3.91,0.8-5.17,0.8
	c-1.44,0-3.17,0.86-5.04,2.29c-0.03,0.03-0.05,0.05-0.05,0.05c-0.98,0.75-2,1.67-3.03,2.7c-1.85,1.85-3.75,4.06-5.57,6.42
	c-4.2-1.95-8.91-1.83-14.1,1.74c-13.17,9.07-19.64,33.14-22.77,51.79c-1.5-1-3.46-0.92-3.46-0.92s-1.19-4.06-4.72-3.47
	c-1.89-3.06-3.59-4.87-3.59-4.87c1.51-2.17,2.74-4.49,3.46-6.91c3.79-12.63,3.79-20.21,3.79-20.21s-4.29-4.55,1.77-10.61
	c2.26-2.26,9.11-10.53,14.91-24c3.78-8.78,7.73-19.01,11.75-28.64c6.41-15.33,13.04-29.16,19.57-33.26
	c12.17-7.63,21.07-10.82,25.12-12c0,0,0.02-0.01,0.07-0.02c1.15-0.26,15.61-3.54,27.81-5.07c3.45-0.44,6.71-0.73,9.44-0.77
	C380.05,433.31,380.07,433.36,380.1,433.41z"/>
<path fill="#FFFFFF" stroke="#000000" stroke-miterlimit="10" d="M359.57,420.66c-9.01,9.16-14.45,17.84-14.45,17.84
	s-0.81,0.16-2.35,0.61c-0.05,0.01-0.07,0.02-0.07,0.02c-4.05,1.18-12.95,4.37-25.12,12c-6.53,4.1-13.16,17.93-19.57,33.26
	c-21.32-45.13-43.87-93.75-48.38-129.51c-7.52-59.68,43.71-152.24,44.45-153.59c0.01-0.01,0.01-0.01,0.01-0.01
	c0,0.01,0,0.02-0.01,0.03c-0.59,2.01-28.01,95.43-2.77,138.92C304.87,363.59,333.9,390.65,359.57,420.66z"/>
<path fill="#FFFFFF" stroke="#000000" stroke-miterlimit="10" d="M473.21,367.51c0,0-2.15,16.42-8.59,23.62
	c-1.42,1.59-3.51,4.11-5.96,7.09l-0.01,0.01c-3.83,4.69-8.51,10.51-12.8,15.68c-5.32,6.4-10.02,11.77-11.74,12.67l-3.8,8.88
	c-3.13-1.68-9.16-1.71-15.99-1.24c-14.03,0.97-31.48,4.03-34.22-0.81c0.07-0.05,0.03-0.15-0.08-0.14c-0.19-0.4-0.29-0.84-0.29-1.34
	c0-8.41,10.14-25.92,13.52-31.55h0.01c0.04-0.01,0.07-0.01,0.11-0.02c0.29-0.52,0.58-1.04,0.87-1.57c0.07-0.13,0.11-0.19,0.11-0.19
	c3.9-7.05,7.74-14.31,12.83-20.58c6.58-8.14,15.26-14.62,28.89-16.82c5.08-0.82,9.62-1.05,13.65-0.89
	C465.51,360.93,473.21,367.51,473.21,367.51z"/>
<path fill="#FFFFFF" stroke="#000000" stroke-miterlimit="10" d="M527.63,475.55c-7.81,1.23-23.27,6.42-31.07,7.92
	c-0.88,0.17-1.72,0.16-2.51-0.01c-5.81-1.19-9.22-10.39-10.45-14.47c9.93-0.68,18.1-5.23,26.62-5.35
	c9.09-0.13,20.96-10.11,20.96-10.11s0.38,0.32,1.07,0.87C532.65,459.02,532.59,467.94,527.63,475.55z"/>
<path fill="#FFFFFF" stroke="#000000" stroke-miterlimit="10" d="M584.16,466.05c-5.6,4.48-19.37,14.95-27.52,16.32
	c-0.93,0.16-1.79,0.19-2.55,0.09c-9.3-1.26-17.73-6.57-23.03-7.14c-0.82-0.09-2,0-3.43,0.23c4.96-7.61,5.02-16.53,4.62-21.15
	c3.37,2.66,14.26,10.68,26.09,13.41C568.13,470.06,577.8,468.27,584.16,466.05z"/>
<path fill="#FFFFFF" stroke="#000000" stroke-miterlimit="10" d="M583.35,476.65c0.05,0.11,0.09,0.25,0.12,0.43
	c-3.28,1.49-6.88,2.97-6.88,2.97l-2.79,5.12l-11.39,1.7l-5.77-4.5c8.15-1.37,21.92-11.84,27.52-16.32c2.62-0.92,4.68-1.91,5.95-2.74
	C589,467.96,586.9,474.18,583.35,476.65z"/>
<path fill="#FFFFFF" stroke="#000000" stroke-miterlimit="10" d="M514.6,410.48c-2.32-2.26-5.06-5.04-8.11-8.36
	c-9.89-10.74-24.95-9.85-24.95-9.85s-10.15,1.3-22.88,5.95c2.45-2.98,4.54-5.5,5.96-7.09c6.44-7.2,8.59-23.62,8.59-23.62
	s-7.7-6.58-23.49-7.2c2.74-2.18,6.71-4.96,12-7.45c3.28-1.55,7.07-2.99,11.39-4.11c6.01-1.55,13.05-2.49,21.16-2.22
	c2.95,7.52,5.61,14.23,8.58,17.46c0.1,1.53,0.32,3.04,0.67,4.53c0.82,3.51,2.12,7.12,3.74,10.71c0.92,8.3,2.66,21.05,5.1,27.05
	C512.96,407.76,513.73,409.16,514.6,410.48z"/>
<path fill="#FFFFFF" stroke="#000000" stroke-miterlimit="10" d="M589.99,354.51v-0.01c0,0-0.02-0.98-0.2-2.52
	c0,0-6.82-7.71-8.08-5.5s-7.58,7.14-11.87,6.13c-4.3-1.01,0.75-6.13,0.75-6.13c0.43-0.26,7.7-6.98,11.59-8.16
	c-4.75-1.16-10.95-10.22-10.95-10.22s0.72-0.18,1.94-0.54c-8.78-8.07-19.59-18.51-21.59-19.04c-2.84-0.75-15.53,0-18.19,1.14
	c-0.62,0.27-1.72,1.09-3.05,2.22c3.91,3.62,7.03,4.89,7.03,4.89s-7.95,9.75-17.24,9.75c-0.7-0.93-1.34-1.91-1.93-2.93
	c-0.97,1.26-4.9,6.54-8.55,13.71c4.7,4.45,8.21,7.72,8.21,8.14c0,0,1.13,10.45,0,11.97c-1.14,1.51-2.47,7.58-10.8,8.59
	c-1.51,0.18-2.89-0.57-4.21-2.01c0.1,1.53,0.32,3.04,0.67,4.53c0.82,3.51,2.12,7.12,3.74,10.71c7.8,17.32,22.98,34.15,27.59,37.29
	c4.34,2.96,9.73,3.32,11.89,3.34c0.61,0,0.96-0.02,0.96-0.02s7.2,3.03,10.89-0.85c3.37-3.55,4.01-5.72,4.53-6.7
	c0.05-0.09,0.1-0.18,0.15-0.25c0.57-0.82,11.24-11.56,14.52-29.24c4.13-7.43,6.05-13.46,6.88-16.74c0.11-0.42,0.2-0.8,0.27-1.12
	c0.23-1.03,0.31-1.59,0.31-1.59s1.21-1.53,2.41-3.37c0.01-0.01,0.02-0.03,0.03-0.04C588.96,357.98,590.21,355.68,589.99,354.51z
	 M526.26,338.33c0-2.68,12.25-12.37,18.95-6.94c6.69,5.43,12.75,14.14,16.29,15.09c3.54,0.95,2.27,5.62-2.65,3.6
	c-4.93-2.02-9.48-10.12-16.3-11.75C535.73,336.69,526.26,344,526.26,338.33z M534.72,348.12c0,0,4.17-5.68,8.15-5.68
	c3.98,0,8.43,6.63,8.43,6.63s-3.98,1.42-7.29,1.51C540.69,350.68,534.72,348.12,534.72,348.12z M564.37,397.39
	c-0.57,1.91-1.07,3.83-1.9,5.4c-1.24,2.32-3.21,3.86-7.29,3.41c-5.24-0.58-10.08-2.79-13.2-5.84c-0.95-0.92-1.74-1.92-2.33-2.97
	c-2.56-4.55-1.68-11.37-1.68-11.37s0.08-4.18,2.34-7.42c0.85-1.23,2.01-2.32,3.6-3c5.78-2.47,20.46-3.32,25.11,1.61
	c1.06,1.13,1.47,2.55,1.45,4.13C570.39,386.66,565.46,393.74,564.37,397.39z M578,361.2c-2.23-1.61-4.15-4.83-4.15-4.83
	c0.57-0.1,4.92-3.13,7.1-1.14c1.11,1.01,1.88,2.74,2.36,4.19c0.47,1.4,0.67,2.54,0.67,2.54S580.23,362.81,578,361.2z"/>
<path fill="#FFFFFF" stroke="#000000" stroke-miterlimit="10" d="M867.37,224.79c-0.26,0.16-0.67,0.44-1.21,0.89
	c-11.92,8.32-90,62.5-137.04,86.25c-32.53,16.43-81.49,45.38-112.71,64.22c-5.57-3.21-11.39-5.42-16.54-6.94v-0.01
	c-7.3-2.16-13.24-2.92-15.2-3.14c0.11-0.42,0.2-0.8,0.27-1.12c2.5-1.18,6.69-3.24,10.59-5.52c1.58-0.92,3.11-1.88,4.46-2.83
	c3.79-2.66,6.39-8.77,8.39-14.53c5.33-3.35,10.81-6.52,15.77-8.9c18.19-8.72,57.98-21.23,78.82-31.84
	c20.85-10.61,43.96-23.11,59.12-27.66C775.14,269.74,840.09,240.58,867.37,224.79z"/>
<path fill="#FFFFFF" stroke="#000000" stroke-miterlimit="10" d="M640.1,419.36c-0.1,2.88-0.39,5.7-0.8,8.42v0.01
	c-0.57,3.69-1.36,7.18-2.24,10.36c-2.95,1.78-5.78,2.93-8.39,3.65c-8.93,2.43-15.28-0.27-15.28-0.27c0.41-1.38,0.68-2.73,0.83-4.03
	c1.91-17.64-19.75-27.17-19.75-27.17s-1.77-4.64-10.49-4.05c-6.64,0.44-15.05,4.29-20.86,6.01c0.05-0.09,0.1-0.18,0.15-0.25
	c0.57-0.82,11.24-11.56,14.52-29.24c4.13-7.43,6.05-13.46,6.88-16.74c1.96,0.22,7.9,0.98,15.2,3.14v0.01
	c5.15,1.52,10.97,3.73,16.54,6.94c7.4,4.24,14.36,10.23,18.73,18.64C639.2,402.61,640.4,411.19,640.1,419.36z"/>
<path fill="#FFFFFF" stroke="#000000" stroke-miterlimit="10" d="M589.79,351.98c0,0-6.82-7.71-8.08-5.5s-7.58,7.14-11.87,6.13
	c-4.3-1.01,0.75-6.13,0.75-6.13c0.43-0.26,7.7-6.98,11.59-8.16c0.75-0.23,1.37-0.26,1.8,0.01c0.23-0.07,0.5-0.2,0.79-0.39
	c0.99,1.23,1.79,2.62,2.43,4.07c0.08,0.16,0.15,0.31,0.2,0.44c0.02,0.05,0.04,0.1,0.06,0.14c0.1,0.21,0.15,0.36,0.18,0.44
	c0.01,0.03,0.02,0.05,0.02,0.05c0.23,0.57,0.43,1.14,0.62,1.71v0.01c0.47,1.48,0.82,2.94,1.07,4.26
	C589.55,350.15,589.69,351.15,589.79,351.98z"/>
<path fill="#FFFFFF" stroke="#000000" stroke-miterlimit="10" d="M537.37,316.77c0,0-7.95,9.75-17.24,9.75
	c-0.7-0.93-1.34-1.91-1.93-2.93c-11.23-19.22-5.08-52.2-5.08-52.2s0.95,12.31,7.58,26.81c2.94,6.41,6.54,10.79,9.64,13.68
	C534.25,315.5,537.37,316.77,537.37,316.77z"/>
<path fill="#FFFFFF" stroke="#000000" stroke-miterlimit="10" d="M584.77,337.94c-0.29,0.19-0.56,0.32-0.79,0.39
	c-0.43-0.27-1.05-0.24-1.8-0.01c-4.75-1.16-10.95-10.22-10.95-10.22s0.72-0.18,1.94-0.54c4.9-1.41,17.91-5.54,24.58-11.2
	C605.68,309.63,590.41,334.31,584.77,337.94z"/>
<path fill="#FFFFFF" stroke="#000000" stroke-miterlimit="10" d="M558.85,350.08c-4.93-2.02-9.48-10.12-16.3-11.75
	c-6.82-1.64-16.29,5.67-16.29,0c0-2.68,12.25-12.37,18.95-6.94c6.69,5.43,12.75,14.14,16.29,15.09
	C565.04,347.43,563.77,352.1,558.85,350.08z"/>
<path fill="#FFFFFF" stroke="#000000" stroke-miterlimit="10" d="M551.3,349.07c0,0-3.98,1.42-7.29,1.51
	c-3.32,0.1-9.29-2.46-9.29-2.46s4.17-5.68,8.15-5.68C546.85,342.44,551.3,349.07,551.3,349.07z"/>
<path fill="#FFFFFF" stroke="#000000" stroke-miterlimit="10" d="M583.98,361.96c0,0-3.75,0.85-5.98-0.76
	c-2.23-1.61-4.15-4.83-4.15-4.83c0.57-0.1,4.92-3.13,7.1-1.14c1.11,1.01,1.88,2.74,2.36,4.19
	C583.78,360.82,583.98,361.96,583.98,361.96z"/>
<path fill="#FFFFFF" stroke="#000000" stroke-miterlimit="10" d="M554.93,356.58c-1.43,0.81-2.88,1.64-4.02,2.71
	c-0.56,0.5-0.99,1.22-0.75,1.45c0.08,0.14,0.3,0.34,0.6,0.5c0.28,0.16,0.64,0.28,1.05,0.47c1.6,0.66,3.07,1.69,4.32,2.9
	c1.24,1.22,2.22,2.63,3.24,3.75c1,1.17,2.13,1.84,3.6,2.08c0.69,0.13,1.37,0.1,2.05-0.09c0.69-0.17,1.39-0.52,2.25-0.82
	c0.43-0.15,0.93-0.27,1.44-0.27c0.28,0,0.49,0.02,0.68,0.05l0.59,0.06c0.76,0.06,1.48,0.04,1.93-0.37c0.5-0.38,0.69-1.18,0.77-1.96
	c0.09-0.79,0.03-1.62-0.01-2.44c0.25,0.79,0.5,1.59,0.56,2.44c0.04,0.43,0.05,0.87-0.04,1.32c-0.07,0.45-0.25,0.92-0.58,1.32
	c-0.33,0.41-0.82,0.66-1.28,0.8c-0.47,0.14-0.93,0.19-1.37,0.21c-0.22,0.01-0.43,0.01-0.64,0.01c-0.22-0.01-0.42,0-0.55,0.01
	c-0.3,0.04-0.61,0.13-0.94,0.28c-0.67,0.31-1.42,0.77-2.31,1.04c-0.88,0.3-1.88,0.4-2.82,0.28c-0.93-0.12-1.81-0.4-2.67-0.87
	c-0.84-0.47-1.56-1.1-2.14-1.75c-1.15-1.33-2.04-2.65-3.11-3.77c-1.04-1.15-2.28-2.06-3.65-2.82c-0.31-0.19-0.73-0.37-1.14-0.65
	c-0.39-0.28-0.84-0.63-1.05-1.26c-0.12-0.31-0.1-0.66-0.03-0.96c0.09-0.29,0.22-0.54,0.37-0.74c0.31-0.41,0.66-0.7,1.02-0.95
	C551.76,357.57,553.32,357,554.93,356.58z"/>
<path fill="#FFFFFF" stroke="#000000" stroke-miterlimit="10" d="M570.47,381.34c-0.08,5.32-5.01,12.4-6.1,16.05
	c-0.57,1.91-1.07,3.83-1.9,5.4c-0.19-2.71-0.65-8.11-1.24-8c-0.12,3.08-2.35,6.48-2.35,6.48l-2.18-3.22l-1.89,2.56l-1.62-2.75
	l-2.46,2.94l-1.25-3.03c0,0-1.12,0.28-2.58,2.46c-0.14-0.76-0.15-6.54-0.51-7.01c-1.09,3.26-3.2,5.84-4.41,7.14
	c-0.95-0.92-1.74-1.92-2.33-2.97c-2.56-4.55-1.68-11.37-1.68-11.37s0.08-4.18,2.34-7.42c1.13,1.75,2.56,3.86,2.7,3.63
	c0.24-0.38,2.8-3.6,2.8-3.6l2.08,1.61c0,0,0.66,3.32,0,6.35c2.08-2.47,3.41-7.2,3.41-7.2l2.08,1.61l2.94-1.9l2.37,2.37l2.94-1.61
	l1.89,2.18l1.71-0.57c0,0,0.66,2.94,0,5.12c3.03-3.51,3.31-4.64,3.79-4.64C569.23,381.95,569.84,381.67,570.47,381.34z"/>
<path fill="#FFFFFF" stroke="#000000" stroke-miterlimit="10" d="M562.47,402.79c-1.24,2.32-3.21,3.86-7.29,3.41
	c-5.24-0.58-10.08-2.79-13.2-5.84c1.21-1.3,3.32-3.88,4.41-7.14c0.36,0.47,0.37,6.25,0.51,7.01c1.46-2.18,2.58-2.46,2.58-2.46
	l1.25,3.03l2.46-2.94l1.62,2.75l1.89-2.56l2.18,3.22c0,0,2.23-3.4,2.35-6.48C561.82,394.68,562.28,400.08,562.47,402.79z"/>
<path fill="#FFFFFF" stroke="#000000" stroke-miterlimit="10" d="M570.47,381.34c-0.63,0.33-1.24,0.61-1.45,0.61
	c-0.48,0-0.76,1.13-3.79,4.64c0.66-2.18,0-5.12,0-5.12l-1.71,0.57l-1.89-2.18l-2.94,1.61l-2.37-2.37l-2.94,1.9l-2.08-1.61
	c0,0-1.33,4.73-3.41,7.2c0.66-3.03,0-6.35,0-6.35l-2.08-1.61c0,0-2.56,3.22-2.8,3.6c-0.14,0.23-1.57-1.88-2.7-3.63
	c0.85-1.23,2.01-2.32,3.6-3c5.78-2.47,20.46-3.32,25.11,1.61C570.08,378.34,570.49,379.76,570.47,381.34z"/>
<path fill="#FFFFFF" stroke="#000000" stroke-miterlimit="10" d="M517.86,345.44c0-0.42-3.51-3.69-8.21-8.14
	c-7.78-7.37-18.81-17.97-22.55-24.23c-6-10.04-13.89-34.29-13.89-34.29s-0.07,29.18,10.35,44.9c4.33,6.54,7.68,15.12,10.71,22.85
	c2.95,7.52,5.61,14.23,8.58,17.46c1.32,1.44,2.7,2.19,4.21,2.01c8.33-1.01,9.66-7.08,10.8-8.59
	C518.99,355.89,517.86,345.44,517.86,345.44z M513.12,353.62c-0.41,3.8-5.76,5.19-9.36-0.46c-0.35-0.54-0.68-1.14-0.99-1.81
	c-0.7-1.52-1.4-2.99-2.09-4.39c-2.81-5.66-5.64-10.19-8.78-12.93c-3.92-3.43-6.44-12.24-9.6-21.97
	c1.14,2.27,18.44,19.71,21.73,23.37c1.11,1.24,2.59,3.06,4.02,5.16c1.77,2.56,3.47,5.53,4.4,8.33
	C513,350.58,513.28,352.19,513.12,353.62z"/>
<path fill="#FFFFFF" stroke="#000000" stroke-miterlimit="10" d="M603.69,345.07c-0.41,0.97-0.8,1.78-1.14,2.3
	c-0.96,1.49-5.22,4.88-8.94,7.78c-2.93,2.29-5.52,4.27-5.92,4.79c1.27-1.96,2.52-4.26,2.3-5.43v-0.01c0,0-0.02-0.98-0.2-2.52
	c-0.1-0.83-0.24-1.83-0.44-2.92c0.35-0.14,0.74-0.38,1.18-0.7c4.33-3.21,12.43-14.57,14.68-14.33
	C607.19,334.24,605.38,341.03,603.69,345.07z"/>
<path fill="#FFFFFF" stroke="#000000" stroke-miterlimit="10" d="M513.12,353.62c-0.41,3.8-5.76,5.19-9.36-0.46
	c-0.35-0.54-0.68-1.14-0.99-1.81c-0.7-1.52-1.4-2.99-2.09-4.39c-2.81-5.66-5.64-10.19-8.78-12.93c-3.92-3.43-6.44-12.24-9.6-21.97
	c1.14,2.27,18.44,19.71,21.73,23.37c1.11,1.24,2.59,3.06,4.02,5.16c1.77,2.56,3.47,5.53,4.4,8.33
	C513,350.58,513.28,352.19,513.12,353.62z"/>
<path fill="#FFFFFF" stroke="#000000" stroke-miterlimit="10" d="M614.22,437.5c-0.15,1.3-0.42,2.65-0.83,4.03
	c-3.67,4.72-9.53,10.33-14.55,14.72c-3.57,3.13-6.71,5.64-8.32,6.79c-0.13,0.09-0.26,0.18-0.41,0.27c-1.27,0.83-3.33,1.82-5.95,2.74
	c-6.36,2.22-16.03,4.01-25.82,1.76c-11.83-2.73-22.72-10.75-26.09-13.41c-0.69-0.55-1.07-0.87-1.07-0.87s-11.87,9.98-20.96,10.11
	c-8.52,0.12-16.69,4.67-26.62,5.35h-0.01c-0.67,0.04-1.36,0.07-2.05,0.08c-8.62,0.1-35.56-20.97-46.29-29.66c0,0,0,0,0-0.01
	c-2.79-2.26-4.49-3.68-4.49-3.68c-0.14-0.09-0.29-0.18-0.45-0.26l3.8-8.88c1.72-0.9,6.42-6.27,11.74-12.67
	c4.29-5.17,8.97-10.99,12.8-15.68l0.01-0.01c12.73-4.65,22.88-5.95,22.88-5.95s15.06-0.89,24.95,9.85c3.05,3.32,5.79,6.1,8.11,8.36
	c0,0,0,0.01,0.01,0.01c4.61,6.95,12.3,11.52,16.13,12.48c4.07,1.01,10.71,1.42,16-3.11c0.61,0,0.96-0.02,0.96-0.02
	s7.2,3.03,10.89-0.85c3.37-3.55,4.01-5.72,4.53-6.7c5.81-1.72,14.22-5.57,20.86-6.01c8.72-0.59,10.49,4.05,10.49,4.05
	S616.13,419.86,614.22,437.5z"/>
<path fill="#FFFFFF" stroke="#000000" stroke-miterlimit="10" d="M546.74,419.86c-5.29,4.53-11.93,4.12-16,3.11
	c-3.83-0.96-11.52-5.53-16.13-12.48c-0.01,0-0.01-0.01-0.01-0.01c-0.87-1.32-1.64-2.72-2.24-4.2c-2.44-6-4.18-18.75-5.1-27.05
	c7.8,17.32,22.98,34.15,27.59,37.29C539.19,419.48,544.58,419.84,546.74,419.86z"/>
<path fill="#FFFFFF" stroke="#000000" stroke-miterlimit="10" d="M448.31,594.47c-0.94,17.43-5.49,55.21-19.11,74.81
	c-4.48,6.27-9.49,12.63-15.74,17.05c-4.26,3.01-9.39,4.56-14.34,5.3c-0.97,0.15-1.93,0.26-2.88,0.34h-0.01
	c-7.39,0.68-13.92-0.27-15.89-0.6c-0.4-0.07-0.61-0.11-0.61-0.11c-0.79-1.18-1.13-3.12-1.13-5.58c0-0.31,0.01-0.63,0.02-0.95
	c0.01-0.24,0.02-0.49,0.03-0.75c0.01-0.3,0.03-0.6,0.06-0.9c0.04-0.48,0.08-0.98,0.14-1.49c0.04-0.37,0.08-0.74,0.13-1.12
	s0.1-0.77,0.16-1.16c0.28-1.96,0.67-4.07,1.13-6.25c0.09-0.43,0.19-0.87,0.29-1.31c0.1-0.44,0.2-0.89,0.3-1.34
	c0.21-0.89,0.42-1.79,0.65-2.7c0.58-2.32,1.21-4.68,1.86-7.01c0.21-0.71,0.41-1.41,0.61-2.11c0.06-0.21,0.12-0.41,0.18-0.62
	c0.25-0.84,0.5-1.67,0.75-2.49c0.53-1.75,1.06-3.46,1.58-5.09c0.16-0.52,0.32-1.02,0.48-1.52c0.23-0.7,0.46-1.38,0.67-2.04
	c0.12-0.37,0.25-0.75,0.37-1.11c0.33-1.01,0.66-1.97,0.96-2.87l1.72-4.16l1.18-2.86C409.03,628.01,431.25,610.93,448.31,594.47z"/>
<path fill="#FFFFFF" stroke="#000000" stroke-miterlimit="10" d="M691.86,619.26c-5.69-3.79-10.77-18.09-10.77-18.09
	c1.61-1.9,9.85-1.9,9.85-1.9S690.34,615.09,691.86,619.26z"/>
</svg>
