<?xml version="1.0" encoding="utf-8"?>
<!-- Generator: Adobe Illustrator 25.2.0, SVG Export Plug-In . SVG Version: 6.00 Build 0)  -->
<svg version="1.1" baseProfile="tiny" id="Layer_1" xmlns="http://www.w3.org/2000/svg" xmlns:xlink="http://www.w3.org/1999/xlink"
	 x="0px" y="0px" viewBox="0 0 1000 1000" overflow="visible" xml:space="preserve">
<path fill="#FFFFFF" stroke="#000000" stroke-miterlimit="10" d="M394.2,580c-9.2,0.8-35.4,1.1-66.8,1.2
	c-60.2,0.1-139.7-0.8-155.5-1.1c-0.8,0-1.4,0-1.9,0c-6.7-0.2-11.5-0.8-14.8-1.5c0,5.5,0.2,11.5,0.7,16.9c1.4,2.9,3.8,4.2,9.3,5
	c0,0,0,0,0,0c2.7,0.4,6.2,0.7,10.8,0.9c7.7,0.5,18.4,0.9,33.4,2.1c23.2,1.8,66.7,3.4,110.3,4.2c34.3,0.6,68.5,0.8,92.9,0.1
	c33.9-0.9,59.3-3.9,73.8-6.1c2-6,6.6-16.7,11.8-28.5C480.1,574.2,417.9,578,394.2,580z M205.7,596.5c-12.6,0.4-16.8-1.9-17.8-3.9
	s-0.6-8.4-0.6-8.4l18.4,0.5C205.7,584.6,205.9,592,205.7,596.5z M265.5,597.7l-49.3-1.1v-11.8c0.3,0,49.3,1.1,49.3,1.1V597.7z
	 M303.9,597.7c-3.1,2.9-23.3,1.1-25.4,0c-2.1-1.1-1.2-11.8-1.2-11.8c3.4-0.1,29.5,0.6,29.5,0.6S307,594.9,303.9,597.7z"/>
<path fill="#FFFFFF" stroke="#000000" stroke-miterlimit="10" d="M601.8,510.8c-5.3-8.6-11.6-15.5-18.6-17.7c0,0,0,0,0,0
	c-2.2-0.7-4.5-0.9-6.9-0.6c-0.2,0-0.4,0.1-0.6,0.1c-6.3,1-11.8,3.5-16.8,7.1c-11.6,8.5-20.1,23.5-27.8,40.8
	c-4.4,9.7-10,20.8-15.3,30.7c-8.2,15.4-15.6,28-15.6,28s-3.3,0.7-9.5,1.8c-1.3,0.2-2.8,0.5-4.4,0.7c2-6,6.6-16.7,11.8-28.5h0
	c7.3-16.4,15.8-34.8,20.4-45.4c9.3-21.4,22.3-42.3,47.3-42.5c3.5,0,6.7,0.4,9.6,1.3c8.4,2.4,14.6,7.8,18.9,12.8c0,0,0,0.1,0.1,0.1
	c0,0,0,0,0,0.1C599.3,505.1,601.6,510.5,601.8,510.8z"/>
<path fill="#FFFFFF" stroke="#000000" stroke-miterlimit="10" d="M633.1,658.9l-0.6,0.2h-12c0,0-2-134.2-37.3-166
	c7,2.2,13.3,9.1,18.6,17.7c0,0,0,0,0,0c7.2,11.6,12.6,26.3,15.5,36.8c0.5,1.8,0.9,3.5,1.3,5.1c0.2,1,0.5,2.3,0.8,3.7
	c1.2,6.6,2.8,17.1,4.4,28.9c0.3,2,0.6,4.1,0.9,6.3c0.3,2.3,0.6,4.7,1,7.1c0.3,2.1,0.5,4.1,0.8,6.2c0.3,2.3,0.6,4.5,0.9,6.8
	c1.2,9.7,2.4,19.1,3.3,26.9v0c0.8,6.3,1.4,11.5,1.8,15.2C632.8,656.4,633,658.2,633.1,658.9z"/>
<path fill="#FFFFFF" stroke="#000000" stroke-miterlimit="10" d="M558.4,309.7c-0.5,8.4-5.2,81.1-8.9,91.4
	c-3.7,10.2-17.9,11.8-27.7,9.5c-8.2-1.9-58.8,0.6-91,5.7c0,0,0,0,0,0c-24.3,1.8-47.5,3.9-56.2,5c-12.4,1.5-48.8,8.3-75.4,13.8
	c4.3-21.7,31-78.6,34.6-86.2c0.3-0.5,0.4-0.8,0.4-0.8s17.8-17.1,89.1-35.6c36.6-9.5,69.4-15.6,93.8-18.3c0,0,0.1,0,0.1,0
	c11-0.2,27.2-0.3,32.6,1.2C558.1,297.6,558.8,301.3,558.4,309.7z"/>
<path fill="#FFFFFF" stroke="#000000" stroke-miterlimit="10" d="M342.5,625.4c-0.1-0.9-5.1-3.8-6.5-5.2l-156-10c0,0,0,0,0,0
	c-0.5,0.1-17.3,4.3-18,5.1c-0.6,0.7-1.2,41,10.7,62.4c1.7,0.8,3.6,1.5,5.7,2.2h0c4,1.2,9,2.1,15.2,2.6c3.8,0.3,8.8,0.9,14.5,1.6
	c10.2,1.3,22.9,3.1,36.3,5.1c11.8,1.8,24.2,3.7,36,5.5c12.9,2,25,3.9,34.9,5.3c12.5,1.9,21.4,3.1,23.6,3.1c1.5,0,5.6,0,11.4,0
	C350.7,688.9,342.7,626.7,342.5,625.4z M309.5,679.8c0,3.2-2.8,5.7-6,5.3c-4.1-0.5-10-1.2-17.1-2.1c-13.3-1.7-30.5-3.9-46.9-6
	c-11.9-1.6-23.2-3.1-32.3-4.4c-10.7-1.6-18.2-2.8-19.2-3.4c-2.8-1.6-4.8-12.5-5.8-19.6c-0.5-3.2,2.2-6,5.4-5.7
	c5.1,0.5,13.1,1.2,22.6,2.2c8.9,0.8,19,1.8,29.4,2.8c16.2,1.5,32.9,3.1,45.7,4.4c5.7,0.5,10.7,1,14.5,1.4c4.8,0.5,9.9,5.3,9.8,10.1
	C309.6,669.4,309.5,675.4,309.5,679.8z"/>
<path fill="#FFFFFF" stroke="#000000" stroke-miterlimit="10" d="M172.6,677.7c-10.8-5.2-11.5-13.4-13.3-22
	c-2.5-12.3-7.7-41.7-5.7-47c1.3-3.7,7.8-6.7,11.6-8.2c0,0,0,0,0,0c2.7,0.4,6.2,0.7,10.8,0.9c-3.1,2.2,1.4,6.6,3.9,8.8
	c-0.5,0.1-17.3,4.3-18,5.1C161.3,616,160.6,656.4,172.6,677.7z"/>
<path fill="#FFFFFF" stroke="#000000" stroke-miterlimit="10" d="M473.2,686.2c-0.4,1.3-0.8,2.6-1.1,3.7c0,0,0,0,0,0
	c-4.5,12.8-9.7,10.7-22.9,12c-11.7,1.2-72.6,1.2-98.8,1.2c0.4-14.2-7.7-76.4-7.9-77.7c-0.1-0.9-5.1-3.8-6.5-5.2
	c-0.8-0.8-0.6-1.2,1.8-0.7c6.9,1.4,111.2-4.5,125.5-5.9c14.2-1.4,20.1,0,22,5.4c0,0,0,0.1,0,0.1
	C487.1,624.4,477.9,669.3,473.2,686.2z"/>
<path fill="#FFFFFF" stroke="#000000" stroke-miterlimit="10" d="M239.5,676.9c-11.9-1.6-23.2-3.1-32.3-4.4
	c-0.1-10.9,1.6-20.4,3.1-26.5c8.9,0.8,19,1.8,29.4,2.8C238.4,654.9,237,666,239.5,676.9z"/>
<path fill="#FFFFFF" stroke="#000000" stroke-miterlimit="10" d="M210.3,645.9c-1.5,6.1-3.2,15.7-3.1,26.5
	c-10.7-1.6-18.2-2.8-19.2-3.4c-2.8-1.6-4.8-12.5-5.8-19.6c-0.5-3.2,2.2-6,5.4-5.7C192.8,644.3,200.8,645,210.3,645.9z"/>
<path fill="#FFFFFF" stroke="#000000" stroke-miterlimit="10" d="M286.4,683c-13.3-1.7-30.5-3.9-46.9-6c-2.5-10.9-1.1-22,0.2-28.2
	c16.2,1.5,32.9,3.1,45.7,4.4C288.9,664.4,288.8,674.7,286.4,683z"/>
<path fill="#FFFFFF" stroke="#000000" stroke-miterlimit="10" d="M309.7,664.6c-0.1,4.8-0.2,10.8-0.2,15.2c0,3.2-2.8,5.7-6,5.3
	c-4.1-0.5-10-1.2-17.1-2.1c2.4-8.3,2.6-18.6-1-29.8c5.7,0.5,10.7,1,14.5,1.4C304.6,655,309.8,659.8,309.7,664.6z"/>
<path fill="#FFFFFF" stroke="#000000" stroke-miterlimit="10" d="M574.6,443.8c0.2-27.1-7.4-70.6-7.1-88.6
	c0.2-18.1,0.9-66.1,0.9-66.1s0.2,2.6,7.7-1.6l-2.3-7.9c0,0-15.9-1.6-42.3-0.4h0c-28,1.2-67.9,5.4-113.1,17.8
	c-23.7,6.5-42,12.3-56.2,17.4c-2.7,1-5.2,1.9-7.6,2.8c-31.8,12.3-38.3,20.2-36.4,23.9c2.5,4.7,8.2,6.8,15.5,7.7
	c0.3-0.5,0.4-0.8,0.4-0.8s17.8-17.1,89.1-35.6c36.6-9.5,69.4-15.6,93.8-18.3c0,0,0.1,0,0.1,0c23.1-2.5,38.6-1.9,42.4,1.8
	c7.8,7.7,3.4,38.7,2.3,59.3c-1.1,20.7-4.5,51.5-10.7,56.9c-6.2,5.3-13.2,5.3-18,4.3c-1.7-0.4-3.9-0.8-7.2-1.2
	c3.3,0.5,12,2.1,16.6,5.7c5.7,4.5,13.5,14.5,19.6,26.3c11.5,22.2,12.9,32.2,13,34.4C574.9,470.3,574.5,456.5,574.6,443.8z
	 M342.5,337.9c0,0-5.9-2.3-4.1-4.4c1.8-2,5.4-4.4,6.3-3.9s5.1,3.5,5.1,3.5L342.5,337.9z M365.7,325.1c0,0-6.8-1.9-6.4-2
	c0.3-0.1,5.4-2.6,8.3-3.7c2,0.5,5.3,2.8,5.3,2.8L365.7,325.1z M403.4,312.1l-4.5-3.1c0,0,15.7-5,19.4-5.1c0.6,1.2,2.9,4.6,2.9,4.6
	S411.6,308.9,403.4,312.1z M437.3,303.9l-2.9-4l18.2-3.6l2.1,3.8C454.8,300.1,439.9,302.6,437.3,303.9z M492.9,292.6
	c-9.5,1.7-17.5,2.8-14.7,0.6c2.7-2.2,34-6.8,34.5-4C513.1,291.9,502.4,290.9,492.9,292.6z M560,290c-1.9,0.7-4.2,1.1-6.4,0.4
	c-4.9-1.4-22.6,0.5-26,0.4c-3.3-0.1-2.2-1.6,3.7-4.8c4.4-2.4,20.5-0.2,28.4,1.1C561.3,287.5,561.5,289.5,560,290z"/>
<path fill="#FFFFFF" stroke="#000000" stroke-miterlimit="10" d="M575.3,481.5c-0.2-2.1-1.5-12.2-13-34.4
	c-6.1-11.8-13.9-21.8-19.6-26.3c-4.6-3.6-13.3-5.2-16.6-5.7c-0.8-0.1-1.3-0.2-1.3-0.2c-6.3-0.8-15.8-1.5-30.9-1.8
	c-12.4-0.3-38.3,1.2-63.1,3.1c0,0,0,0,0,0c-24.3,1.8-47.5,3.9-56.2,5c-12.4,1.5-48.8,8.3-75.4,13.8c-11.2,2.3-20.7,4.5-25.9,5.9
	c-17.3,4.8-65.7,22.3-83.2,29c-17.5,6.8-25.8,15.3-25.8,20.3s-0.4,32.8-0.4,32.8s1.6,1.3,2.1,4.3c0-0.6,0-1.1,0-1.6
	c0.2-12.5-3.2-33.1,4.8-38.3c8-5.2,28.5-7.1,28.5-7.1c3.3-0.4,1.8,7.1,6.6,7.6c4.8,0.5,60.4-5.2,62.4-7c2-1.8,7.5-9.1,9.3-9.4
	c1.8-0.4,23.9-1.2,34.2-1.1c10.3,0.2,15.1,5.5,15.5,13.9c0.4,8.4-1.2,49.4-3.2,67.5c-2,18.2-9.5,18.3-15.9,19.1
	c-6.4,0.7-50.4,0-69,0c-18.5,0-63.8-1.1-67.7-4.8c-0.4-0.3-0.7-0.9-1-1.6l1.3,15.3c15.9,0.4,95.3,1.2,155.5,1.1
	c11.4-34.9,38.3-90.1,112.5-111.5c69.8-20.1,113-3.1,135.4,12.3v0C575.3,481.9,575.3,481.8,575.3,481.5z"/>
<path fill="#FFFFFF" stroke="#000000" stroke-miterlimit="10" d="M561.9,355.3c-1.1,20.7-4.5,51.5-10.7,56.9
	c-6.2,5.3-13.2,5.3-18,4.3c-1.7-0.4-3.9-0.8-7.2-1.2c-0.8-0.1-1.3-0.2-1.3-0.2c-6.3-0.8-15.8-1.5-30.9-1.8
	c-12.4-0.3-38.3,1.2-63.1,3.1c32.2-5.1,82.7-7.5,91-5.7c9.8,2.2,24.1,0.7,27.7-9.5c3.7-10.2,8.4-82.9,8.9-91.4
	c0.5-8.4-0.2-12.1-8.5-14.4c-5.3-1.5-21.6-1.4-32.6-1.2c23.1-2.5,38.6-1.9,42.4,1.8C567.5,303.6,563,334.6,561.9,355.3z"/>
<path fill="#FFFFFF" stroke="#000000" stroke-miterlimit="10" d="M349.8,333.1l-7.3,4.8c0,0-5.9-2.3-4.1-4.4c1.8-2,5.4-4.4,6.3-3.9
	S349.8,333.1,349.8,333.1z"/>
<path fill="#FFFFFF" stroke="#000000" stroke-miterlimit="10" d="M372.9,322.3l-7.2,2.8c0,0-6.8-1.9-6.4-2c0.4-0.1,5.4-2.6,8.3-3.6
	C369.5,320,372.9,322.3,372.9,322.3z"/>
<path fill="#FFFFFF" stroke="#000000" stroke-miterlimit="10" d="M421.1,308.5c0,0-9.5,0.4-17.7,3.6l-4.5-3.1c0,0,15.7-5,19.4-5.1
	C418.9,305.1,421.1,308.5,421.1,308.5z"/>
<path fill="#FFFFFF" stroke="#000000" stroke-miterlimit="10" d="M454.8,300.1c0,0-14.8,2.5-17.5,3.8l-2.9-4l18.2-3.6L454.8,300.1z"
	/>
<path fill="#FFFFFF" stroke="#000000" stroke-miterlimit="10" d="M492.9,292.6c-9.5,1.7-17.5,2.8-14.7,0.6c2.7-2.2,34-6.8,34.4-4
	C513.1,291.9,502.4,290.9,492.9,292.6z"/>
<path fill="#FFFFFF" stroke="#000000" stroke-miterlimit="10" d="M560,290c-1.9,0.7-4.2,1.1-6.4,0.4c-4.9-1.4-22.6,0.5-26,0.4
	c-3.3-0.1-2.2-1.6,3.7-4.8c4.4-2.3,20.5-0.2,28.4,1.1C561.3,287.5,561.5,289.5,560,290z"/>
<path fill="none" stroke="#000000" stroke-miterlimit="10" d="M577.8,319.2c-0.2-3.4,0-7.9,1.4-10.3c2.5-4.2,9.3-0.6,16.3,2.6
	c7,3.2,21,7.6,25.5,14.6c4.5,7,9.4,35.6,12.2,53.8c2.8,18.2,0.7,27.1-4.3,30.8c-5,3.6-39.2,4.9-42.8,3.5c-3.6-1.4-8.9-2.8-8.8-22.6"
	/>
<path fill="#FFFFFF" stroke="#000000" stroke-miterlimit="10" d="M579.9,307.9c-3.9,3.5-11.7-4.2-9.3-11.7c2.4-7.5,9.3-2.2,9.3-2.2
	s0.4,1,0.8,2.5c-2.2,0.4-3.5,0.6-3.5,0.6c-0.1,4.5,2.8,4.8,2.8,4.8s0.6-0.1,1.7-0.3C581.8,304.1,581.5,306.6,579.9,307.9z"/>
<path fill="#FFFFFF" stroke="#000000" stroke-miterlimit="10" d="M363,307.3c0,0-0.5,4.2-0.7,7.1c-2.7,1-5.2,1.9-7.6,2.8
	c0-2-0.2-4.4-0.2-4.4l-8.9-4.1l8-4.3l5.9,1.7L363,307.3z"/>
<path fill="#FFFFFF" stroke="#000000" stroke-miterlimit="10" d="M643.9,209.1l-0.1,17.3c-10.3-0.1-108.6,25.3-158.5,40.6
	c-42.2,12.9-106.8,33.2-125.9,39.2l-5.9-1.7l-0.2-7.1c0.1,0.1,0.2,0.2,0.3,0.3c4.8-1.4,276.1-82.2,287.1-82.7
	C643.2,209.8,643.9,209.1,643.9,209.1z"/>
<path fill="#FFFFFF" stroke="#000000" stroke-miterlimit="10" d="M619.7,261.1v28.7c-4.2,0.7-8.6,1.5-13,2.2l-0.7-28.1L619.7,261.1z
	"/>
<path fill="#FFFFFF" stroke="#000000" stroke-miterlimit="10" d="M652.3,427c-0.9,0.5-1.9,0.9-3,1.2c-6.6,1.8-38.2,7.9-43.5,10
	c-5.3,2.1-8-2.1-8.2-6.1c0,0,21-2.9,30.8-5c9-2,19.1-1.8,23.3-5.5c0.4-0.3,0.7-0.7,1-1c0.5-0.8,0.8-4.2,0.9-9.5
	c0.1-8.3-0.2-21.3-0.8-35.5c-0.1-1.3-0.1-2.6-0.2-4c-1.2-28.5-3.1-60.8-3.8-71.3c-0.1-2-0.2-3.2-0.3-3.4c-0.3-2.7-3-5.7-6.8-5.5
	c-1.4,0.1-11,1.7-22.1,3.6c-4.2,0.7-8.6,1.5-12.8,2.2c-2.5,0.4-4.9,0.9-7.3,1.3c0,0,0,0,0,0c-8,1.4-14.9,2.6-17.9,3.2
	c-1.1,0.2-1.7,0.3-1.7,0.3s-2.9-0.3-2.8-4.8c0,0,1.3-0.2,3.5-0.6c2.5-0.5,6.3-1.1,10.7-1.9c0,0,0,0,0,0c4.6-0.8,9.8-1.7,15.2-2.7
	c4.4-0.7,8.8-1.5,13-2.2c11.4-1.9,21-3.5,22.6-3.5c4.3,0,10.5,0,10.7,10.9c0,0.7,0,1.7,0.1,3.1c0.4,11.3,2.3,44,3.9,71.1
	c0.1,1.4,0.1,2.7,0.2,4.1c1,16.9,1.8,31.1,2,35.6c0,0.3,0,0.6,0,0.9C659.5,419.2,657,424.4,652.3,427z"/>
<path fill="#FFFFFF" stroke="#000000" stroke-miterlimit="10" d="M724.4,371.8l-28-12.3l-12.6-97.7l-31.4-37.2v-15.8
	c5.3,4.7,38.5,34.3,39.9,36.1c1.6,2,26.4,101.9,26.4,101.9L724.4,371.8z"/>
<path fill="#FFFFFF" stroke="#000000" stroke-miterlimit="10" d="M699.2,380.4l-9.5,4.8l-12.4-118.8L665,251.7l-21.2-25.3l0.1-17.3
	l7.8-0.9c0,0,0.2,0.2,0.7,0.6v15.8l31.4,37.2l12.6,97.7l1.9,14.4L699.2,380.4z"/>
<polygon fill="#FFFFFF" stroke="#000000" stroke-miterlimit="10" points="828.9,417.8 724.4,371.8 718.8,346.9 827.7,406.9 "/>
<polygon fill="#FFFFFF" stroke="#000000" stroke-miterlimit="10" points="829.8,425.9 826.2,424.4 825.7,424.1 808.5,416.8 
	803.9,414.9 781.7,405.4 772.8,401.7 772.8,401.7 745.7,390.2 735.2,385.7 703.2,372.1 698.3,374 696.5,359.5 724.4,371.8 
	828.9,417.8 "/>
<polygon fill="#FFFFFF" stroke="#000000" stroke-miterlimit="10" points="738.8,471.2 739,470.7 736.8,452.9 736.7,451.9 
	737.7,437.4 731.8,423.2 729.2,391.8 735.2,385.7 747.6,498.9 734.8,483.4 "/>
<polygon fill="#FFFFFF" stroke="#000000" stroke-miterlimit="10" points="774.9,485.7 777.9,473.8 773.4,457.9 776.4,445.6 
	770.4,432.7 768.3,406.7 772.8,401.7 785.3,498.4 "/>
<path fill="#FFFFFF" stroke="#000000" stroke-miterlimit="10" d="M803.2,487.4l4.9-10.6l-4.4-14.1l1.2-12.6l-4.8-10.5l-1.6-20.5
	l5.4-4.3l8,83.2C808.7,494.2,803.2,487.4,803.2,487.4z"/>
<path fill="#FFFFFF" stroke="#000000" stroke-miterlimit="10" d="M838.5,506.8l-5.5,0.7l-33.3,1.5h0l-26.8,1.2l-5.2,0.2l-46.9,2.1
	l-6.1,0.3l-6.5,0.3l-1.2,0.1l-0.4-13.7l41.1-0.5l11.1-0.2l26.6-0.3h0l6.2-0.1l20.4-0.3c0,0,0,0,0,0v0l4.6-0.1l16.5-0.2l-7.2-73.2
	l0.5-0.2l3.5,1.5L838.5,506.8z"/>
<path fill="#FFFFFF" stroke="#000000" stroke-miterlimit="10" d="M353.6,304.5l-8,4.3v-12.5c0,0,5.3-1.5,7.8,1.1L353.6,304.5z"/>
<path fill="#FFFFFF" stroke="#000000" stroke-miterlimit="10" d="M665,251.7l-45.4,9.3l-13.7,2.8l-74.4,15.3h0
	c-28,1.2-67.9,5.4-113,17.8c-23.7,6.5-42,12.3-56.2,17.4c0.3-2.8,0.7-7.1,0.7-7.1l-3.6-1.1c19.1-6,83.7-26.3,125.9-39.2
	c49.9-15.3,148.3-40.7,158.5-40.6L665,251.7z"/>
<path fill="#FFFFFF" stroke="#000000" stroke-miterlimit="10" d="M697.6,468l-6.6,14.4c-8.8,13.4-19.6,18-27.8,19.3
	c-3,0.5-5.6,0.5-7.8,0.4c-0.5-22.7-1.1-48.3-1.8-60.9c-0.2-3.7-0.6-8.5-1.2-14.3c4.7-2.6,7.2-7.7,7-15c0-0.2,0-0.5,0-0.9
	c4.6,0.1,8.9,0.2,10.8,0.2c4.9,0,5.2-2.8,5.2-4.8c0-1.9,0.2-16.2,0-23.2c-0.2-7-3-7.8-6.2-7.8c-1.6,0-6.9,0-11.9,0
	c-0.1-1.3-0.2-2.7-0.2-4.1c4.4-0.1,8.9-0.2,11.4-0.3c1.4,0,3.5-0.8,3.5-3.2c0-0.5-2.8-59.5-2.8-61.8c-0.1-2.3-1.6-6-5.7-5.9
	c-1.7,0-6,0-10.3,0c-0.1-1.4-0.1-2.4-0.1-3.1c-0.2-10.9-6.4-10.9-10.7-10.9c-1.6,0-11.2,1.5-22.6,3.5v-28.7l45.4-9.3l12.3,14.6
	l12.4,118.8l1.2,29.1l5,13.7l-3.1,19.5L697.6,468z"/>
<path fill="#FFFFFF" stroke="#000000" stroke-miterlimit="10" d="M811.9,498.1l-20.4,0.3l-1.1-10.8l12.9-0.1
	C803.2,487.4,808.7,494.2,811.9,498.1z"/>
<path fill="#FFFFFF" stroke="#000000" stroke-miterlimit="10" d="M785.3,498.4L785.3,498.4l-26.6,0.3c-0.3-3.3-0.9-8.2-1.6-14.1
	l17.8,1.1L785.3,498.4z"/>
<polygon fill="#FFFFFF" stroke="#000000" stroke-miterlimit="10" points="747.6,498.9 706.5,499.4 706.5,499.1 691,482.3 697.6,468 
	738.8,471.2 734.8,483.4 "/>
<path fill="#FFFFFF" stroke="#000000" stroke-miterlimit="10" d="M758.7,498.7l-11.1,0.2l-12.4-113.2l10.6,4.5
	c0.3,2.1,0.6,5.1,1.1,8.6c0.9,7.6,2.2,18.1,3.6,29.5c0.5,4,1,8.2,1.5,12.3c0.6,5,1.2,10,1.8,15c0.7,5.9,1.4,11.7,2,17.1
	c0.5,4.3,1,8.3,1.4,12C757.8,490.6,758.3,495.5,758.7,498.7z"/>
<polygon fill="#FFFFFF" stroke="#000000" stroke-miterlimit="10" points="791.5,498.3 785.3,498.4 785.3,498.4 785.3,498.4 
	772.8,401.7 772.8,401.7 781.7,405.4 782.5,412.7 785.1,437.2 786.2,447.7 787.6,461.5 789.1,475.4 789.1,475.4 790.4,487.6 "/>
<polygon fill="#FFFFFF" stroke="#000000" stroke-miterlimit="10" points="832.9,497.8 816.5,498 815.6,489.1 823.6,488.6 "/>
<polygon fill="#FFFFFF" stroke="#000000" stroke-miterlimit="10" points="823.6,488.6 828.4,479 823.6,465.4 826.2,455.6 
	821.6,443.1 820,426.6 825.7,424.5 832.9,497.8 "/>
<polygon fill="#FFFFFF" stroke="#000000" stroke-miterlimit="10" points="816.5,498 811.9,498.1 811.9,498.1 803.9,414.9 
	808.5,416.8 809,422.4 810.9,442 811.9,452.1 813.2,465.2 814.6,479.1 815.6,489.1 "/>
<path fill="#FFFFFF" stroke="#000000" stroke-miterlimit="10" d="M777.9,473.8l-3,11.9l-17.8-1.1c-0.4-3.6-0.9-7.7-1.4-12
	L777.9,473.8z"/>
<path fill="#FFFFFF" stroke="#000000" stroke-miterlimit="10" d="M777.9,473.8l-22.2-1.1c-0.6-5.4-1.3-11.2-2-17.1l19.8,2.3
	L777.9,473.8z"/>
<path fill="#FFFFFF" stroke="#000000" stroke-miterlimit="10" d="M776.4,445.6l-3,12.2l-19.8-2.3c-0.6-4.9-1.2-10-1.8-15
	L776.4,445.6z"/>
<path fill="#FFFFFF" stroke="#000000" stroke-miterlimit="10" d="M776.4,445.6l-24.5-5c-0.5-4.2-1-8.3-1.5-12.3l20.1,4.4
	L776.4,445.6z"/>
<polygon fill="#FFFFFF" stroke="#000000" stroke-miterlimit="10" points="803.9,414.9 798.5,419.2 798.4,419.3 782.5,412.7 
	781.7,405.4 "/>
<polygon fill="#FFFFFF" stroke="#000000" stroke-miterlimit="10" points="800.2,439.6 785.1,437.2 782.5,412.7 798.4,419.3 
	798.5,419.2 "/>
<path fill="#FFFFFF" stroke="#000000" stroke-miterlimit="10" d="M804.9,450.1l-1.2,12.6c0,0-11.7-0.9-16.1-1.2l-1.5-13.8
	L804.9,450.1z"/>
<polygon fill="#FFFFFF" stroke="#000000" stroke-miterlimit="10" points="804.9,450.1 786.2,447.7 785.1,437.2 800.2,439.6 "/>
<path fill="#FFFFFF" stroke="#000000" stroke-miterlimit="10" d="M789.1,475.4L789.1,475.4l-1.5-13.8c4.4,0.3,16.1,1.2,16.1,1.2
	l4.4,14.1C808.1,476.9,793.7,475.9,789.1,475.4z"/>
<path fill="#FFFFFF" stroke="#000000" stroke-miterlimit="10" d="M808.1,476.9l-4.9,10.6l-12.9,0.1l-1.3-12.2
	C793.7,475.9,808.1,476.9,808.1,476.9z"/>
<polygon fill="#FFFFFF" stroke="#000000" stroke-miterlimit="10" points="826.2,455.6 811.9,452.1 810.9,442 821.6,443.1 "/>
<polygon fill="#FFFFFF" stroke="#000000" stroke-miterlimit="10" points="826.2,455.6 823.6,465.4 813.2,465.2 811.9,452.1 "/>
<path fill="#FFFFFF" stroke="#000000" stroke-miterlimit="10" d="M828.4,479c0,0-11.4,0.1-13.8,0.2l-1.4-13.9l10.3,0.2L828.4,479z"
	/>
<path fill="#FFFFFF" stroke="#000000" stroke-miterlimit="10" d="M828.4,479l-4.8,9.6l-8,0.5l-1-10C817,479.1,828.4,479,828.4,479z"
	/>
<polygon fill="#FFFFFF" stroke="#000000" stroke-miterlimit="10" points="739,470.7 738.8,471.2 697.6,468 692.7,447.4 736.8,452.9 
	"/>
<path fill="#FFFFFF" stroke="#000000" stroke-miterlimit="10" d="M772.8,401.7L772.8,401.7l-4.5,5l-21.5-7.9
	c-0.4-3.5-0.8-6.5-1.1-8.6L772.8,401.7z"/>
<path fill="#FFFFFF" stroke="#000000" stroke-miterlimit="10" d="M770.4,432.7l-20.1-4.4c-1.4-11.4-2.6-21.9-3.6-29.5l21.5,7.9
	L770.4,432.7z"/>
<polygon fill="#FFFFFF" stroke="#000000" stroke-miterlimit="10" points="825.7,424.5 820,426.6 809,422.4 808.5,416.8 825.7,424.1 
	"/>
<polygon fill="#FFFFFF" stroke="#000000" stroke-miterlimit="10" points="821.6,443.1 810.9,442 809,422.4 820,426.6 "/>
<polygon fill="#FFFFFF" stroke="#000000" stroke-miterlimit="10" points="736.7,451.9 736.8,452.9 692.7,447.4 695.8,427.9 
	737.7,437.4 "/>
<polygon fill="#FFFFFF" stroke="#000000" stroke-miterlimit="10" points="737.7,437.4 695.8,427.9 690.8,414.3 731.8,423.2 "/>
<polygon fill="#FFFFFF" stroke="#000000" stroke-miterlimit="10" points="731.8,423.2 690.8,414.3 689.7,385.1 699.2,380.4 
	729.2,391.8 "/>
<polygon fill="#FFFFFF" stroke="#000000" stroke-miterlimit="10" points="735.2,385.7 729.2,391.8 699.2,380.4 698.3,374 
	703.2,372.1 "/>
<path fill="#FFFFFF" stroke="#000000" stroke-miterlimit="10" d="M652.6,371.5c-2.1,0-3.9,0.1-5.2,0.1c-1.2,0-2.2-0.1-3-0.2
	c-4.4-0.6-5-2.6-5.1-4c-0.4-4.3-1-16.5-1.6-28.8v0c-0.6-12.1-1.1-24.4-1.3-29.8c-0.1-2.3-1.1-8.5,5-8.5c0.1,0,3.4,0,7.5,0
	C649.5,310.7,651.4,343,652.6,371.5z"/>
<path fill="#FFFFFF" stroke="#000000" stroke-miterlimit="10" d="M671.9,367.9c0,2.3-2.1,3.1-3.5,3.2c-2.5,0.1-7.1,0.2-11.4,0.3
	c-1.6-27.2-3.4-59.8-3.9-71.1c4.3,0,8.6,0,10.3,0c4.1,0,5.6,3.7,5.7,5.9C669.1,308.4,671.9,367.4,671.9,367.9z"/>
<path fill="#FFFFFF" stroke="#000000" stroke-miterlimit="10" d="M653.5,411c-1.1,0-2.1-0.1-3.1-0.1c-3.4-0.1-6-0.2-6.6-0.2
	c-1.8-0.2-3.8-2.3-4-7.2s0-20.8,0-22.6c-0.1-3.9,3.1-5,5.4-5.3c1.2-0.1,2.1-0.1,2.1-0.1c0.4,0,2.6,0,5.5,0
	C653.3,389.7,653.7,402.6,653.5,411z"/>
<path fill="#FFFFFF" stroke="#000000" stroke-miterlimit="10" d="M675.3,406.5c0,1.9-0.4,4.8-5.2,4.8c-1.9,0-6.3-0.1-10.8-0.2
	c-0.2-4.5-1-18.7-2-35.6c5,0,10.3,0,11.9,0c3.2,0,5.9,0.8,6.2,7.8C675.5,390.4,675.3,404.6,675.3,406.5z"/>
<path fill="#FFFFFF" stroke="#000000" stroke-miterlimit="10" d="M832.3,537.6l-2.6,2.3l-6.8-23.2l-35.4,3.8c0,0-1.9,8.6-3.8,17.1
	c-1.8,8.1-3.7,16.1-3.8,16.1l-1.8-2c0.1-0.6,0.2-1.1,0.3-1.5l-1.1,0.7l8.1-34.9l38.9-3.1L832.3,537.6z"/>
<path fill="#FFFFFF" stroke="#000000" stroke-miterlimit="10" d="M716.7,599.1c-2.4,9-13.6,13.7-23,15.3c0,0,0,0,0,0
	c-6.9,0-12.9-0.1-12.9-0.1s-20.5,2.9-21.1-12.8l-0.4-7.3l3.7-1.2c2,1.4,7.6,4,22.3,4c20.4,0,20.4-16.8,20.4-20.4
	c0-3.6-0.1-18.6-18.6-18.6c-14.5,0-20.2,6-22,8.6c-0.5-2.6-1.1-4.5-1.8-6c2.9-16.8,19.7-15.2,19.7-15.2s6.5,0.1,14.2,0.2
	c5.6,1.3,13.3,4.2,16.8,10.3C720,565.9,719.7,587.8,716.7,599.1z"/>
<path fill="#FFFFFF" stroke="#000000" stroke-miterlimit="10" d="M680.8,614.2l-20,9.8l-1.1-22.6
	C660.3,617.1,680.8,614.2,680.8,614.2z"/>
<path fill="#FFFFFF" stroke="#000000" stroke-miterlimit="10" d="M729.6,589.5c-0.1,2.9-0.3,5.4-0.7,7.2c-0.3,1.5-0.9,3.1-1.7,4.6
	c-2.5,5-7.4,9.8-12.6,11.6c-0.7,0.2-1.4,0.4-2.1,0.5c-3.8,0.6-11.8,0.8-18.8,0.8c9.4-1.6,20.6-6.2,23-15.3c3-11.2,3.2-33.2-2.6-43.4
	c-3.5-6.1-11.1-9-16.8-10.3c2.5,0,5.1,0.1,7.7,0.1c8.2,0.1,15.7,0.3,16.5,0.4c1.2,0.2,3.5,2,5.2,6.1c0.4,1,0.8,2.1,1.1,3.4
	c0.5,1.8,0.8,3.8,0.9,6.2C729.5,569.8,730,581.2,729.6,589.5z"/>
<path fill="#FFFFFF" stroke="#000000" stroke-miterlimit="10" d="M761.7,601.4h-34.4c0.8-1.5,1.3-3.1,1.7-4.6
	c0.4-1.9,0.6-4.4,0.7-7.2h32c-0.5,0.1-3.2,0.4-2.8,6.5C758.9,596,759.7,601.4,761.7,601.4z"/>
<path fill="#FFFFFF" stroke="#000000" stroke-miterlimit="10" d="M744.7,589.5h-15.1c0.3-8.3-0.2-19.7-0.7-27.9
	c-0.1-2.4-0.5-4.4-0.9-6.2l18.9-0.6C746.3,558.7,744.4,572.6,744.7,589.5z"/>
<path fill="#FFFFFF" stroke="#000000" stroke-miterlimit="10" d="M705.8,576.4c0,3.6-0.1,20.4-20.4,20.4c-14.7,0-20.3-2.5-22.3-4
	l8.3-2.7l-0.5-5.3l-3.8-0.3c-0.5-8.2-1.1-14-1.9-18.1c1.8-2.6,7.5-8.6,22-8.6C705.7,557.8,705.8,572.8,705.8,576.4z"/>
<path fill="#FFFFFF" stroke="#000000" stroke-miterlimit="10" d="M660.9,625.1c-5.2,2.3-22.2,9.8-30.3,13.5
	c-1-7.8-2.1-17.2-3.3-26.9l32.4-10.2l1.1,22.6L660.9,625.1z"/>
<path fill="#FFFFFF" stroke="#000000" stroke-miterlimit="10" d="M689.5,627.5c0,0-45.7,21-57.1,26.2c-0.4-3.6-1.1-8.9-1.8-15.2v0
	c8-3.6,25-11.2,30.3-13.5l0,0.1L689.5,627.5z"/>
<path fill="#FFFFFF" stroke="#000000" stroke-miterlimit="10" d="M690.1,634.3l-57,24.6c-0.1-0.6-0.3-2.4-0.6-5.2
	c11.3-5.2,57.1-26.2,57.1-26.2L690.1,634.3z"/>
<path fill="#FFFFFF" stroke="#000000" stroke-miterlimit="10" d="M678.5,516.8c-4.5,8.5-11.6,25.2-14.2,27.5c-0.3,0.3-0.7,0.4-1,0.4
	h0c-2-0.1-5-3.6-7.1-6.8v0c-0.1-5.1-0.2-12.5-0.4-20.9l21.4-1.7L678.5,516.8z"/>
<path fill="#FFFFFF" stroke="#000000" stroke-miterlimit="10" d="M706.9,513.1l-18.2,1.4h0l-9.3,0.7l-2.3,0.2l-13.9-13.8
	c8.3-1.3,19-6,27.8-19.3l15.6,16.8l0,0.3L706.9,513.1z"/>
<path fill="#FFFFFF" stroke="#000000" stroke-miterlimit="10" d="M688.7,514.5c-1.1,1.3-2.5,3.1-3.5,5.3v0c-1.1,2.3-1.7,5-1.3,8
	c-1.5,0.1-8.9,7.8-10.5,11.6c-1.6,3.8-6.3,6.6-10.1,5.2c0.4,0,0.7-0.1,1-0.4c2.7-2.4,9.8-19.1,14.2-27.5c0.3-0.6,0.6-1.1,0.8-1.6
	L688.7,514.5z"/>
<path fill="#FFFFFF" stroke="#000000" stroke-miterlimit="10" d="M714.5,512.7c-4.1,5-4.7,12-4.7,12c-0.5,0-3.6,2.7-6.8,6.3
	c-2.5,2.8-3.8,5.5-6,4.5l0,0c-0.7-0.3-1.5-1-2.5-2.2c-3-3.7-7.2-10.1-9.3-13.4v0c1-2.2,2.4-4.1,3.5-5.3h0l18.2-1.4l1.2-0.1
	L714.5,512.7z"/>
<path fill="#FFFFFF" stroke="#000000" stroke-miterlimit="10" d="M667.1,584.5l-19.7-1.8l-0.5-4.6l-1.3,0.4
	c-0.2-4.5-0.4-9.2-0.4-12.2c0-14.1,15.7-8.9,15.7-8.9c1,0.7,1.8,1.7,2.5,3.1c0.7,1.5,1.3,3.4,1.8,6
	C666,570.5,666.6,576.3,667.1,584.5z"/>
<path fill="#FFFFFF" stroke="#000000" stroke-miterlimit="10" d="M659.7,601.4l-32.4,10.2c-0.3-2.3-0.6-4.5-0.9-6.8l32.9-10.8
	L659.7,601.4z"/>
<path fill="#FFFFFF" stroke="#000000" stroke-miterlimit="10" d="M671.3,590.2l-8.3,2.7l-3.7,1.2l-32.9,10.8
	c-0.3-2.1-0.5-4.1-0.8-6.2l45.2-13.8L671.3,590.2z"/>
<path fill="#FFFFFF" stroke="#000000" stroke-miterlimit="10" d="M670.8,584.8l-45.2,13.8c-0.3-2.4-0.6-4.8-1-7.1l21.2-7.7l1.6-0.6
	l-0.1-0.6l19.7,1.8L670.8,584.8z"/>
<path fill="#FFFFFF" stroke="#000000" stroke-miterlimit="10" d="M647.4,583.3l-1.6,0.6l-21.2,7.7c-0.3-2.1-0.6-4.2-0.9-6.3
	l21.8-6.7l1.3-0.4l0.5,4.6L647.4,583.3z"/>
<path fill="#FFFFFF" stroke="#000000" stroke-miterlimit="10" d="M660.9,557.4c0,0-15.8-5.2-15.7,8.9c0,3.1,0.2,7.7,0.4,12.2
	l-21.8,6.7c-1.6-11.8-3.2-22.3-4.4-28.9c8.8-0.4,36-1.3,39.9,0.1C659.8,556.7,660.4,557,660.9,557.4z"/>
<path fill="#FFFFFF" stroke="#000000" stroke-miterlimit="10" d="M727.7,517.4c-4.6,5.8-21.1,26.6-22.7,28.2c-2.6,0-5.2-0.1-7.7-0.1
	c-7.7-0.1-14.2-0.2-14.2-0.2s-16.8-1.5-19.7,15.2c-0.7-1.4-1.5-2.4-2.5-3.1c-0.5-0.4-1.1-0.6-1.7-0.9c-3.9-1.5-31.1-0.5-39.9-0.1
	c-0.3-1.4-0.5-2.6-0.8-3.7c-0.4-1.5-0.8-3.2-1.3-5.1c7-0.4,38.8-1.8,38.8-1.8s0-2.9-0.1-7.8c2.2,3.1,5.1,6.7,7.1,6.8h0
	c3.9,1.4,8.5-1.4,10.1-5.2c1.6-3.9,9.1-11.6,10.5-11.6c-0.4-3,0.2-5.7,1.3-8c2.1,3.3,6.3,9.8,9.3,13.4c1,1.2,1.8,1.9,2.5,2.2l0,0
	c2.5,2.2,5.6,1.9,9.4,1.2c3.8-0.6,7.8-11.2,10.2-10.9c-0.9-2.5-0.3-5.4,0.8-8L727.7,517.4z"/>
<path fill="#FFFFFF" stroke="#000000" stroke-miterlimit="10" d="M717.5,517.9c-1.1,2.6-1.8,5.5-0.8,8c-2.5-0.4-6.4,10.2-10.2,10.9
	c-3.8,0.6-6.8,1-9.4-1.2c2.3,1,3.6-1.8,6-4.5c3.3-3.7,6.4-6.3,6.8-6.3c0,0,0.6-6.9,4.7-12l6.1-0.3
	C719.7,513.8,718.4,515.7,717.5,517.9z"/>
<path fill="#FFFFFF" stroke="#000000" stroke-miterlimit="10" d="M767.9,514.5l-39,1.3c0,0-0.4,0.6-1.2,1.5l-10.3,0.5
	c0.9-2.2,2.2-4.1,3.2-5.5l46.9-2.1L767.9,514.5z"/>
<path fill="#FFFFFF" stroke="#000000" stroke-miterlimit="10" d="M785.4,516l-8.1,34.9l-50.5,1.1c-1.7-4.1-4-5.8-5.2-6.1
	c-0.9-0.2-8.4-0.3-16.5-0.4c1.6-1.5,18-22.3,22.7-28.2c0.8-1,1.2-1.5,1.2-1.5l39-1.3l2.4,28.1c0,0,4.1,0.4,4.6,0
	c0.3-0.2-0.9-17.1-1.8-28.3L785.4,516z"/>
<path fill="#FFFFFF" stroke="#000000" stroke-miterlimit="10" d="M774.9,542.6c-0.5,0.4-4.6,0-4.6,0l-2.4-28.1l-0.3-4.1l5.2-0.2
	c0.1,1.2,0.2,2.6,0.3,4.1C774,525.5,775.3,542.3,774.9,542.6z"/>
<path fill="#FFFFFF" stroke="#000000" stroke-miterlimit="10" d="M824.3,512.9l-38.9,3.1l-12.3-1.7c-0.1-1.5-0.2-2.9-0.3-4.1
	l26.8-1.2h0L824.3,512.9z"/>
<path fill="#FFFFFF" stroke="#000000" stroke-miterlimit="10" d="M327.4,484.5c-0.4-8.4-5.2-13.7-15.5-13.9
	c-10.3-0.2-32.4,0.7-34.2,1.1c-1.8,0.4-7.3,7.7-9.3,9.4c-2,1.8-57.6,7.5-62.4,7c-4.8-0.5-3.3-8-6.6-7.6c0,0-20.5,1.9-28.5,7.1
	c-8,5.2-4.6,25.8-4.8,38.3c0,0.5,0,1.1,0,1.6c0,11.6,1.4,30.9,4.5,37.2c0.3,0.7,0.7,1.2,1,1.6c3.9,3.8,49.2,4.8,67.7,4.8
	c18.5,0,62.6,0.7,69,0c6.4-0.7,13.9-0.9,15.9-19.1C326.2,533.8,327.8,492.9,327.4,484.5z M307.6,566.1c-6.6,2-125.1,0.5-128,0
	c-2.8-0.5-4.7-5.3-4.7-5.3s120.2-1.1,140.8-0.6C314.9,561.6,312.5,564.6,307.6,566.1z M317.9,554.2c0,0-139.4,3.3-144.5,2.6
	c-3.4-4.8-1.8-7.3-1.8-7.3s142.3-4.1,147.7-3.8L317.9,554.2z M319.4,540.4c0,0-13.9,2.1-28,2.5c-14.1,0.4-118.9,3.7-120.8,2.5
	c-0.7-5,0-7,0-7s101.1-3.7,111.2-4.1c10.2-0.3,37.6-1.4,37.6-1.4V540.4z M320.9,529.1c0,0-56.8,2.6-74.4,3.8
	c-17.6,1.2-75.9,2.9-75.9,2.9v-7.1c0,0,93-5,112.3-5.5c19.2-0.5,38-1.2,38-1.2V529.1z M320.9,514.9c0,0-53.7,6.4-93.2,7.4
	c-39.4,1-57.1,2.1-57.1,2.1v-7.1c0,0,79.2-3.6,101.6-5.9c22.3-2.4,48.7-3.7,48.7-3.7V514.9z M321.5,503.2c0,0-70.8,6.4-90,7.5
	c-19.2,1.1-61,3.6-61,3.6v-7c0,0,140.4-10.7,151-12.7V503.2z M170.6,503.2c0,0,0.7-5.5,7.1-6.8c6.4-1.2,119.2-12.5,126.2-12.5
	s17.3-0.5,17.6,6.8C300.5,492,170.6,503.2,170.6,503.2z"/>
<path fill="#FFFFFF" stroke="#000000" stroke-miterlimit="10" d="M315.7,560.1c-0.9,1.5-3.2,4.5-8.1,6c-6.6,2-125.1,0.5-128,0
	c-2.9-0.5-4.7-5.3-4.7-5.3S295.2,559.6,315.7,560.1z"/>
<path fill="#FFFFFF" stroke="#000000" stroke-miterlimit="10" d="M321.5,490.7c-21,1.2-151,12.5-151,12.5s0.7-5.5,7.1-6.8
	c6.4-1.2,119.2-12.5,126.2-12.5S321.2,483.4,321.5,490.7z"/>
<path fill="#FFFFFF" stroke="#000000" stroke-miterlimit="10" d="M321.5,494.6v8.6c0,0-70.8,6.4-90,7.5c-19.2,1.1-61,3.6-61,3.6v-7
	C170.6,507.3,311,496.6,321.5,494.6z"/>
<path fill="#FFFFFF" stroke="#000000" stroke-miterlimit="10" d="M320.9,507.6v7.2c0,0-53.7,6.4-93.1,7.4c-39.4,1-57.2,2.1-57.2,2.1
	v-7.1c0,0,79.2-3.6,101.6-5.9C294.5,509,320.9,507.6,320.9,507.6z"/>
<path fill="#FFFFFF" stroke="#000000" stroke-miterlimit="10" d="M320.9,522v7.1c0,0-56.8,2.6-74.4,3.8c-17.6,1.2-75.9,2.8-75.9,2.8
	v-7.1c0,0,93-5,112.3-5.5C302.1,522.7,320.9,522,320.9,522z"/>
<path fill="#FFFFFF" stroke="#000000" stroke-miterlimit="10" d="M319.4,533v7.5c0,0-13.9,2.1-28,2.5c-14.1,0.3-118.9,3.7-120.8,2.5
	c-0.7-5,0-7,0-7s101-3.7,111.2-4.1C291.9,534,319.4,533,319.4,533z"/>
<path fill="#FFFFFF" stroke="#000000" stroke-miterlimit="10" d="M319.4,545.7l-1.4,8.5c0,0-139.4,3.3-144.5,2.6
	c-3.4-4.8-1.8-7.3-1.8-7.3S314,545.4,319.4,545.7z"/>
<path fill="#FFFFFF" stroke="#000000" stroke-miterlimit="10" d="M205.7,596.5c-12.6,0.4-16.8-1.9-17.8-3.9c-1.1-2-0.6-8.4-0.6-8.4
	l18.4,0.5C205.7,584.6,205.9,592,205.7,596.5z"/>
<path fill="#FFFFFF" stroke="#000000" stroke-miterlimit="10" d="M265.5,585.8v11.9l-49.3-1.2v-11.8
	C216.5,584.8,265.5,585.8,265.5,585.8z"/>
<path fill="#FFFFFF" stroke="#000000" stroke-miterlimit="10" d="M303.9,597.7c-3.1,2.8-23.3,1.1-25.4,0c-2.1-1.1-1.2-11.8-1.2-11.8
	c3.4-0.1,29.5,0.6,29.5,0.6S307,594.9,303.9,597.7z"/>
<path fill="#FFFFFF" stroke="#000000" stroke-miterlimit="10" d="M575.3,482c-22.4-15.4-65.6-32.4-135.4-12.3
	c-74.3,21.4-101.1,76.6-112.5,111.5c31.4,0,57.5-0.4,66.8-1.2c23.8-2,86-5.8,104-6.8h0c7.3-16.4,15.8-34.8,20.4-45.4
	c9.3-21.4,22.3-42.3,47.3-42.5c3.5,0,6.7,0.4,9.6,1.3c8.4,2.4,14.6,7.8,18.9,12.8C593.5,498.1,587.5,490.3,575.3,482z M495,535.7
	c-3.3,5.4-9.2,11.3-20,14.3c-22.8,6.3-88.5,7.7-102.5,7.6s-12.8-12.7-1.9-30.3c10.9-17.6,25.2-16.6,46.3-22.8
	c21.2-6.2,58.2-10.7,68.8-7.8c9.6,2.6,12.9,10.4,13.3,23.4C499.1,525.5,497.8,531,495,535.7z"/>
<path fill="#FFFFFF" stroke="#000000" stroke-miterlimit="10" d="M656,538L656,538c-0.1-5.2-0.2-12.5-0.4-20.9
	c-0.1-4.7-0.2-9.8-0.3-15c-0.5-22.7-1.1-48.3-1.8-60.9c-0.2-3.7-0.6-8.5-1.2-14.3c-0.9,0.5-1.9,0.9-3,1.2c-6.6,1.8-38.2,7.8-43.5,10
	c-5.3,2.1-8-2.1-8.2-6.1c0,0,21-2.8,30.8-5c9-2,19.1-1.8,23.3-5.5c-0.4-3.4-0.8-6.9-1.3-10.7c-3.4-0.1-6-0.2-6.6-0.2
	c-1.8-0.2-3.8-2.3-4-7.2s0-20.8,0-22.6c-0.1-3.9,3.1-5,5.4-5.3c-0.2-1.4-0.5-2.8-0.7-4.2c-4.4-0.6-5-2.6-5.1-4
	c-0.4-4.3-1-16.5-1.6-28.8v0c-2.4-9.7-4.9-17-7.2-20c-2.1-2.8-6-5.9-10.8-8.9c-3.8-2.5-8.2-5-12.7-7.4c-2.5-1.3-5-2.6-7.4-3.8
	c0,0,0,0,0,0c-8,1.4-14.9,2.6-17.9,3.2c0.2,2.5-0.2,4.9-1.7,6.2c-3.9,3.5-11.7-4.2-9.3-11.7c2.4-7.5,9.3-2.2,9.3-2.2s0.4,1,0.8,2.5
	c2.6-0.5,6.3-1.1,10.7-1.9c-8.6-4-15.1-6.7-15.1-6.7l-0.1-0.4c-7.5,4.2-7.7,1.6-7.7,1.6s-0.7,48-0.9,66.1
	c-0.2,18.1,7.4,61.5,7.1,88.6c-0.1,12.6,0.2,26.5,0.6,37.7c0,0.3,0,0.4,0,0.4v0c12.1,8.3,18.2,16.2,19.1,17.3c0,0,0.1,0.1,0.1,0.1
	c0,0,0,0,0,0c4.8,5.7,7.1,11,7.3,11.4c0,0,0,0,0,0c7.2,11.6,12.6,26.3,15.5,36.8c7-0.4,38.8-1.8,38.8-1.8S656.1,542.9,656,538z
	 M586.6,410.5c-4.4-0.6-9.5-14-9.4-21.4c0.1-7.4-0.2-51.8,0-61.3c0.1-3.1,0.2-6,0.5-8.5c0,0,0,0,0,0c0.6-5.2,2-8.5,5.3-8.1
	c0,0,32.1,12.6,35.3,17.5c3.2,4.9,7.5,32.7,9.3,46.3c1.8,13.7,4.4,29.5-1,32.3C621.3,410.1,591,411.1,586.6,410.5z"/>
<path fill="#FFFFFF" stroke="#000000" stroke-miterlimit="10" d="M677.1,515.4l-21.4,1.7c-0.1-4.7-0.2-9.8-0.3-15
	c2.1,0.1,4.8,0,7.8-0.4L677.1,515.4z"/>
<path fill="#FFFFFF" stroke="#000000" stroke-miterlimit="10" d="M653.5,411c-0.1,5.3-0.4,8.8-0.9,9.5c-0.3,0.4-0.6,0.7-1,1
	c-0.4-3.4-0.8-6.9-1.3-10.7C651.4,410.9,652.4,410.9,653.5,411z"/>
<path fill="#FFFFFF" stroke="#000000" stroke-miterlimit="10" d="M652.8,375.5c-2.9,0-5.1,0-5.5,0c0,0-0.9-0.1-2.1,0.1
	c-0.2-1.4-0.5-2.8-0.7-4.2c0.9,0.1,1.9,0.2,3,0.2c1.3,0,3.1,0,5.2-0.1C652.7,372.8,652.7,374.2,652.8,375.5z"/>
<path fill="#FFFFFF" stroke="#000000" stroke-miterlimit="10" d="M626.7,407.2c-5.3,2.8-35.6,3.8-40,3.2c-4.4-0.6-9.5-14-9.4-21.4
	c0.1-7.4-0.2-51.8,0-61.3c0.1-3.1,0.2-6,0.5-8.6c0,0,0,0,0,0c0.6-5.2,2-8.6,5.3-8.1c0,0,32.1,12.6,35.3,17.5
	c3.2,4.9,7.5,32.7,9.3,46.3C629.4,388.6,632,404.4,626.7,407.2z"/>
<path fill="#FFFFFF" stroke="#000000" stroke-miterlimit="10" d="M485.7,496.6c-10.6-2.8-47.6,1.6-68.8,7.8
	c-21.1,6.2-35.4,5.3-46.3,22.8c-10.9,17.6-12.1,30.2,1.9,30.3c14,0.1,79.7-1.3,102.5-7.6c10.8-3,16.7-8.9,20-14.3
	c2.8-4.7,4.1-10.2,4-15.7C498.6,507,495.3,499.2,485.7,496.6z M485.5,534.9c-3.5,3.4-8.7,5.8-15,7.6c-7.9,2.1-17.6,3.3-28.3,4.2
	c-0.7,0.1-1.4,0.1-2.1,0.2c-6.5,0.5-15.4,0.9-24.6,1.2c-15.9,0.6-32.8,0.8-40.5,0.6c-1.9-0.1-3.2-0.1-3.9-0.2
	c-4.6-0.9,6.6-22.8,16.8-28.7c4.6-2.7,16.5-5.9,29.5-8.9c8.2-1.9,16.9-3.7,24.5-5.2c0,0,0,0,0,0c5.7-1.1,10.8-2.1,14.6-2.8
	c0.3-0.4,0.6-0.8,0.9-1.1c0.8,0.1,1.7,0.3,2.6,0.4c14.5-2.6,23,0.1,28.1,6.2C491.4,512.5,493.3,527.2,485.5,534.9z"/>
<path fill="#FFFFFF" stroke="#000000" stroke-miterlimit="10" d="M417.3,510.9c-18.9,10.7-35.9,30-42.4,37.8
	c-1.9-0.1-3.2-0.1-3.9-0.2c-4.6-0.9,6.6-22.8,16.8-28.7C392.4,517.1,404.3,513.9,417.3,510.9z"/>
<path fill="#FFFFFF" stroke="#000000" stroke-miterlimit="10" d="M415.5,548.1c-15.9,0.6-32.8,0.8-40.5,0.6
	c6.5-7.9,23.5-27.2,42.4-37.8c8.2-1.9,16.9-3.7,24.5-5.2c-12.4,4-31.1,11.3-37.8,21C397.1,536.7,405.2,544.1,415.5,548.1z"/>
<path fill="#FFFFFF" stroke="#000000" stroke-miterlimit="10" d="M456.5,502.8c-4.9,6.4-14.7,21.7-16.4,44
	c-6.5,0.5-15.4,0.9-24.6,1.2c-10.2-4-18.3-11.4-11.4-21.4c6.7-9.7,25.3-17,37.8-21c0,0,0,0,0,0C447.5,504.5,452.6,503.5,456.5,502.8
	z"/>
<path fill="#FFFFFF" stroke="#000000" stroke-miterlimit="10" d="M470.5,542.5c-7.9,2.1-17.6,3.3-28.3,4.2c-0.7,0.1-1.4,0.1-2.1,0.2
	c1.7-22.4,11.5-37.7,16.4-44c1-0.2,1.8-0.3,2.6-0.5c0.3,0,0.5-0.1,0.8-0.2c8.5,1.6,21.4,5.7,23.6,15.8
	C485.7,527.8,478.8,536.7,470.5,542.5z"/>
<path fill="#FFFFFF" stroke="#000000" stroke-miterlimit="10" d="M485.5,534.9c-3.5,3.4-8.7,5.8-15,7.6c8.3-5.8,15.2-14.7,13-24.5
	c-2.2-10.2-15.1-14.2-23.6-15.8c14.5-2.6,23,0.1,28.1,6.2C491.4,512.5,493.3,527.2,485.5,534.9z"/>
<path fill="#FFFFFF" stroke="#000000" stroke-miterlimit="10" d="M610.5,656.9c0-0.6-0.1-1.1-0.1-1.7c-1.7-30.6-9.8-53.5-18.9-67.4
	c0,0,0,0,0,0c-5.3-8.1-10.9-13.1-15.7-14.9c-0.3-0.1-0.5-0.2-0.8-0.3c-10.5,0.1-23.1,9.7-33,28.8c-13.9,26.7-22.8,126.2-5.7,166.8
	c7.2,17,21.1,34.5,35.2,28.1c0,0,0.1,0,0.1,0c0,0,0,0,0,0c3.5-1.7,7.1-4.8,10.6-9.9c15.7-22.8,28.6-64.5,28.5-119.8
	C610.8,663.3,610.7,660,610.5,656.9z M576.8,745.9c-5,3.8-10.5,1.8-15.2-4.8c-6.8-9.5-12-28.5-11.7-53.1c0.3-29.9,7.5-52.4,16-62.4
	c3.4-4,7.1-6,10.6-5.6c12.4,1.4,19.6,26.6,20.4,53.9C597.9,704.8,588.9,736.6,576.8,745.9z"/>
<path fill="#FFFFFF" stroke="#000000" stroke-miterlimit="10" d="M571.5,796.3c-16.3,8-49,2.8-60.1-0.8
	c-11.2-3.6-37.9-36.9-39.7-87.9c-0.2-5.8-0.1-11.7,0.3-17.7c0,0,0,0,0,0c0.4-1.1,0.8-2.3,1.1-3.7c4.8-16.9,14-61.8,12.1-67.2
	c0,0,0,0,0-0.1c2.1-7.4,4.1-13.6,5.5-17.9c6.2-1,9.5-1.8,9.5-1.8s7.3-12.5,15.6-28c10-0.7,46.2-2.8,59.2,1.3
	c-10.5,0.1-23.1,9.7-33,28.8c-13.9,26.7-22.8,126.2-5.7,166.8C543.4,785.2,557.4,802.7,571.5,796.3z"/>
<path fill="#FFFFFF" stroke="#000000" stroke-miterlimit="10" d="M490.8,601c-1.4,4.3-3.4,10.5-5.5,17.9c-1.9-5.4-7.9-6.8-22-5.4
	c-14.3,1.4-118.6,7.4-125.5,5.9c-2.4-0.5-2.6-0.1-1.8,0.7l-156-10c0,0,0,0,0,0c-2.5-2.1-7-6.6-3.9-8.8c7.7,0.5,18.4,0.9,33.4,2.1
	c23.1,1.8,66.7,3.4,110.3,4.2c34.3,0.6,68.5,0.8,92.9,0.1c33.9-0.9,59.3-3.9,73.8-6.1C488,601.4,489.4,601.2,490.8,601z"/>
<path fill="#FFFFFF" stroke="#000000" stroke-miterlimit="10" d="M280.4,694.6c-7.4,9.1-18.8,11.4-29.1,2.7
	c-2.9-2.4-5.1-5.2-6.9-8.2C256.2,690.9,268.6,692.8,280.4,694.6z"/>
<path fill="#FFFFFF" stroke="#000000" stroke-miterlimit="10" d="M315.3,700c-7.3,17.1-27,36.6-44.6,40.4
	c-20.7,4.5-47.1-10.7-58.5-39.9c-2.1-5.4-3.5-11-4.2-16.4c10.2,1.3,22.9,3.1,36.3,5.1c1.8,3,4.1,5.7,6.9,8.2
	c10.3,8.8,21.7,6.4,29.1-2.7C293.3,696.6,305.4,698.5,315.3,700z"/>
<path fill="#FFFFFF" stroke="#000000" stroke-miterlimit="10" d="M270.7,740.4c-22.3,5.7-49.4,4.3-71.8-17.1
	c-16.3-15.6-19.9-34.4-20.6-43.4c4,1.2,9,2.1,15.2,2.6c3.8,0.3,8.8,0.9,14.5,1.6c0.8,5.4,2.1,11,4.2,16.4
	C223.7,729.7,250.1,744.9,270.7,740.4z"/>
<path fill="#FFFFFF" stroke="#000000" stroke-miterlimit="10" d="M568.5,653.8c-9.1,17.5-2.1,71.3,9.7,69.4
	c-3,4.9-8.6,14.4-16.6,17.8c-6.8-9.5-12-28.5-11.7-53.1c0.3-29.9,7.5-52.4,16-62.4c3.7,5.2,10.7,14.9,15.4,19.7
	c0.2,0.2,0.3,0.4,0.5,0.7C577.8,642.6,572.2,646.7,568.5,653.8z"/>
<path fill="#FFFFFF" stroke="#000000" stroke-miterlimit="10" d="M576.8,745.9c-5,3.8-10.5,1.8-15.2-4.8c8-3.4,13.6-12.9,16.6-17.8
	h0c5.8-0.9,11.1-18.3,11.3-35.9c0.1-8.8-1.3-29.2-5.1-37.8c-0.7-1.6-1.6-2.8-2.5-3.6c-0.2-0.3-0.3-0.5-0.5-0.7
	c-4.7-4.8-11.8-14.6-15.4-19.7c3.4-4,7.1-6,10.6-5.6c12.4,1.4,19.6,26.6,20.4,53.9C597.9,704.8,588.9,736.6,576.8,745.9z"/>
<path fill="#FFFFFF" stroke="#000000" stroke-miterlimit="10" d="M589.6,687.3c-0.2,17.6-5.6,35-11.3,35.9h0
	c-11.8,1.9-18.8-51.9-9.7-69.4c3.7-7.1,9.3-11.2,13.3-7.9c1,0.8,1.8,2,2.5,3.6C588.2,658.1,589.7,678.5,589.6,687.3z"/>
<path fill="#FFFFFF" stroke="#000000" stroke-miterlimit="10" d="M778.1,551.8c-0.1,0.6-0.2,1.2-0.3,2l-30.9,1l-18.9,0.6
	c-0.3-1.3-0.7-2.4-1.1-3.4l50.5-1.1L778.1,551.8z"/>
<path fill="#FFFFFF" stroke="#000000" stroke-miterlimit="10" d="M798.7,590.5c-2.2-37.6-7.3-49.1-11.2-52.2
	c-1.5-1.2-2.9-1.1-3.8-0.7c-1.8,8.1-3.7,16.1-3.8,16.1l-2.1,0.1c-0.6,4.3-1.5,12-2.8,24.8c-2.2,22.6,2.8,58.7,7.5,66.1
	c1.9,3,5.7,5.4,9.2,2.6c0,0,0.1,0,0.1-0.1c2.2-1.8,4.3-5.7,5.7-12.8c0-0.1,0-0.1,0-0.2C799.2,625.2,799.9,611.4,798.7,590.5z
	 M788.5,625.9c-2.2-0.5-3.8-4.5-5-10.8c-0.9-4.6-1.5-10.4-2.2-17c-0.6-6.7-0.3-14.5,0.5-21c1-7.8,2.9-13.6,5-13
	c3.8,1.1,8.4,15.6,8.4,32.6C795.3,613.6,792.4,626.8,788.5,625.9z"/>
<path fill="#FFFFFF" stroke="#000000" stroke-miterlimit="10" d="M791.6,647.2c-3.9,3.8-17.8,4.1-26.4,3.9
	c-4.5-0.1-8.6-2.9-10.3-7.1c0,0,0-0.1-0.1-0.1c-2.5-6.3-6-17.2-8.4-33.5c-0.5-3-0.8-6-1-9h16.3c2,0,1.9-2.4,1.9-5.9
	c0.1-3.6-1.4-6-1.9-5.9h-16.9c-0.4-16.9,1.5-30.8,2.1-34.7l30.9-1c-0.6,4.3-1.5,12-2.8,24.8c-2.2,22.6,2.8,58.7,7.5,66.1
	C784.4,647.7,788.1,650.1,791.6,647.2z"/>
<path fill="#FFFFFF" stroke="#000000" stroke-miterlimit="10" d="M754.9,644.1c-0.9,2.5-2.3,4.2-3.6,5.2c-1.8,1.4-15.3,2.8-20.2,1.9
	c-4.9-0.9-7.1-3.6-10.8-12.7c-3.1-7.6-5.1-21.2-5.6-25.5c5.2-1.8,10.1-6.5,12.6-11.6h18.1c0.2,3,0.6,6,1,9
	c2.5,16.4,5.9,27.2,8.4,33.5C754.9,644,754.9,644,754.9,644.1z"/>
<path fill="#FFFFFF" stroke="#000000" stroke-miterlimit="10" d="M763.6,595.4c-0.1,3.6,0,5.9-1.9,5.9c-2,0-2.8-5.4-2.8-5.4
	c-0.4-6.1,2.3-6.4,2.8-6.5C762.2,589.4,763.7,591.9,763.6,595.4z"/>
<path fill="#FFFFFF" stroke="#000000" stroke-miterlimit="10" d="M795.3,596.6c0,17-2.9,30.1-6.8,29.3c-2.2-0.5-3.8-4.5-5-10.8
	c0.8-3.4,1.7-9.6,1.4-19.7c-0.3-9.8-1.8-15.4-3-18.4c1-7.8,2.9-13.6,5-13C790.7,565.1,795.3,579.6,795.3,596.6z"/>
<path fill="#FFFFFF" stroke="#000000" stroke-miterlimit="10" d="M783.5,615.1c-0.9-4.6-1.5-10.4-2.2-17c-0.6-6.7-0.3-14.5,0.5-21
	c1.3,3,2.8,8.6,3,18.4C785.2,605.5,784.3,611.7,783.5,615.1z"/>
<path fill="#FFFFFF" stroke="#000000" stroke-miterlimit="10" d="M823.8,583.4c-0.5-18.4-4.2-33.9-7.2-41.7c-1-2.5-1.8-4.2-2.5-5.1
	c-0.2,0.1-0.5,0.1-0.6,0.2c-2.9,1.2-7.6,18.7-8.2,35.8c-0.7,19.6,6.6,60.4,12.5,58.3c0,0,0,0,0,0
	C823.8,628.9,824.5,609.3,823.8,583.4z M819.4,608.2c-0.4,1.3-0.8,2.3-1.2,2.9c-0.1,0.1-0.2,0.2-0.3,0.3c-0.8,0.8-1.8,0.4-2.7-1.4
	c-0.2-0.3-0.3-0.6-0.5-1c-0.5-1.1-1-2.6-1.4-4.5v0c-1.2-4.6-2.2-11.6-3-21.3c-0.8-10-0.5-16.2,0.3-20c0.5-2.5,1.2-4,1.9-4.9
	c0.9-1.1,2.5-1,3.4,0.1C823.3,568.5,821.6,600.2,819.4,608.2z"/>
<path fill="#FFFFFF" stroke="#000000" stroke-miterlimit="10" d="M817.9,631c-4,5.2-14.6,4.2-20.5,3.2c1.8-8.9,2.5-22.7,1.3-43.7
	c-2.2-37.6-7.3-49.1-11.2-52.2c0.8-1.2,1.9-2.5,3.1-2.6c2.1-0.1,20.4-0.8,22.9,0.5c0.2,0.1,0.3,0.2,0.5,0.5
	c-0.2,0.1-0.5,0.1-0.6,0.2c-2.9,1.2-7.6,18.7-8.2,35.8C804.7,592.2,811.9,633,817.9,631C817.9,631,817.9,631,817.9,631z"/>
<path fill="#FFFFFF" stroke="#000000" stroke-miterlimit="10" d="M819.4,608.2c-0.4,1.3-0.8,2.3-1.2,2.9c-0.1,0.1-0.2,0.2-0.3,0.3
	c-0.8,0.8-1.8,0.4-2.7-1.4c-0.2-0.3-0.3-0.6-0.5-1c-0.5-1.1-1-2.6-1.4-4.5v0c1.3-3,1.9-9.6,1.3-19.5c-0.6-9.7-3.1-18.8-4-21.9
	c0.5-2.5,1.2-4,1.9-4.9c0.9-1.1,2.5-1,3.4,0.1C823.3,568.5,821.6,600.2,819.4,608.2z"/>
<path fill="#FFFFFF" stroke="#000000" stroke-miterlimit="10" d="M813.2,604.6c-1.2-4.6-2.2-11.6-3-21.3c-0.8-10-0.5-16.2,0.3-20
	c0.9,3.1,3.4,12.2,4,21.9C815.1,595,814.4,601.5,813.2,604.6z"/>
<path fill="#FFFFFF" stroke="#000000" stroke-miterlimit="10" d="M606.7,292c-5.4,0.9-10.7,1.9-15.2,2.7c0,0,0,0,0,0
	c-8.6-4-15.1-6.7-15.1-6.7l-0.1-0.4l-2.3-7.9c0,0-15.9-1.6-42.3-0.4l74.4-15.3L606.7,292z"/>
<path fill="#FFFFFF" stroke="#000000" stroke-miterlimit="10" d="M607,302.3c-2.5-1.3-5-2.6-7.4-3.8c2.3-0.4,4.8-0.8,7.3-1.3
	L607,302.3z"/>
<path fill="#FFFFFF" stroke="#000000" stroke-miterlimit="10" d="M648.8,300.3c-4,0-7.3,0-7.5,0c-6,0-5,6.3-5,8.5
	c0.2,5.4,0.8,17.7,1.3,29.8c-2.4-9.7-4.9-17-7.2-20c-2.1-2.8-6-5.8-10.8-8.9V295c11.2-1.9,20.7-3.5,22.1-3.6
	c3.7-0.3,6.4,2.8,6.8,5.5C648.6,297.1,648.7,298.3,648.8,300.3z"/>
<path fill="#FFFFFF" stroke="#000000" stroke-miterlimit="10" d="M619.7,295v14.7c-3.8-2.5-8.2-5-12.7-7.4l-0.1-5.1
	C611.1,296.5,615.5,295.7,619.7,295z"/>
<path fill="#FFFFFF" stroke="#000000" stroke-miterlimit="10" d="M591.5,587.8c-5.3-8.1-10.9-13.1-15.7-14.9
	c-0.3-0.1-0.5-0.2-0.8-0.3c-12.9-4.1-49.2-2-59.2-1.3c5.3-9.9,10.9-21,15.3-30.7c7.8-17.3,16.2-32.3,27.8-40.8
	C566.3,504.1,585.3,521.8,591.5,587.8z"/>
<path fill="#FFFFFF" stroke="#000000" stroke-miterlimit="10" d="M620.5,659.1c-4.7,0-7.9-1.1-10-2.2c0-0.6-0.1-1.1-0.1-1.7
	c-1.7-30.6-9.8-53.5-18.9-67.4c0,0,0,0,0,0c-6.2-66-25.2-83.6-32.5-88c5-3.6,10.5-6.1,16.8-7.1c0.2,0,0.4-0.1,0.6-0.1
	c2.4-0.3,4.6-0.1,6.9,0.6c0,0,0,0,0,0C618.5,524.9,620.5,659.1,620.5,659.1z"/>
<path fill="#FFFFFF" stroke="#000000" stroke-miterlimit="10" d="M829.7,539.8l-13.1,1.9c-1-2.5-1.8-4.2-2.5-5.1
	c-0.2-0.2-0.4-0.4-0.5-0.5c-2.5-1.3-20.8-0.6-22.9-0.5c-1.2,0.1-2.3,1.4-3.1,2.6c-1.5-1.2-2.9-1.1-3.8-0.7
	c1.9-8.5,3.8-17.1,3.8-17.1l35.4-3.8L829.7,539.8z"/>
<path fill="#FFFFFF" stroke="#000000" stroke-miterlimit="10" d="M171.8,580c-0.8,0-1.4,0-1.9,0c-6.7-0.2-11.5-0.8-14.8-1.5
	c0-10.5,0.7-19.4,0.7-19.4s-2.1-28.5,8-36c0,0,1.6,1.3,2.1,4.3c0,11.6,1.4,30.9,4.5,37.2L171.8,580z"/>
<line fill="none" stroke="#000000" stroke-miterlimit="10" x1="171.8" y1="580.1" x2="171.8" y2="580"/>
</svg>
