<?xml version="1.0" encoding="utf-8"?>
<!-- Generator: Adobe Illustrator 23.0.5, SVG Export Plug-In . SVG Version: 6.00 Build 0)  -->
<svg version="1.1" baseProfile="tiny" id="Layer_1" xmlns="http://www.w3.org/2000/svg" xmlns:xlink="http://www.w3.org/1999/xlink"
	 x="0px" y="0px" viewBox="0 0 1000 1000" xml:space="preserve">
<rect x="0.5" y="-0.5" fill="#FFFFFF" stroke="#000000" stroke-miterlimit="10" width="999" height="999"/>
<path fill="#FFFFFF" stroke="#000000" stroke-miterlimit="10" d="M87.4,388.6v103.6C53,492.5,22.1,507.4,0.5,531V418.6
	c17.7-10,45.4-23.3,82.1-34.4C83.4,386.1,85,387.5,87.4,388.6z"/>
<path fill="#FFFFFF" stroke="#000000" stroke-miterlimit="10" d="M141,28.1c0,0,79.3-54,98.9,24.6c0,0,29.3,55.3-39.1,45.4
	c0,0-22,40.5-64.7,18.4c0,0-57.4,27-69.6-12.3s20.7-52.8,20.7-52.8S88.6-5,141,28.1z"/>
<path fill="#FFFFFF" stroke="#000000" stroke-miterlimit="10" d="M357.1,63.5c0,0,1.2-30.7,42.7-29.5c41.5,1.2,30.5,36.8,30.5,36.8
	s25.6-14.7,43.9,8.6c0,0,30-21.8,55.6,3.2c11.9,11.7,13.3,30.3,3.5,43.9c-11.7,16.2-31.8,32.6-59.1,11.9c0,0-24.4,50.3-70.8,9.8
	c0,0-48.8,44.2-80.6-14.7c0,0-26.9-9.8-20.7-41.8C308.3,59.9,357.1,63.5,357.1,63.5z"/>
<path fill="#FFFFFF" stroke="#000000" stroke-miterlimit="10" d="M741.5,63.6c0,0-47.6,14.7-40.3,44.2s81.8,6.1,81.8,6.1
	s23.2,28.2,54.9,4.9c0,0,35.4,4.9,40.3-13.5c0,0,39.1,28.2,58.6-17.2c19.5-45.4-40.3-38.1-40.3-38.1s-2.4-31.9-36.6-35.6
	s-35.4,28.2-35.4,28.2s-17.1-23.3-51.3-13.5C739.1,39,741.5,63.6,741.5,63.6z"/>
<path fill="#FFFFFF" stroke="#000000" stroke-miterlimit="10" d="M832,220.1c-23.3-1.9-42.9-8.5-54.9-13.5
	c1.2-14.1,8.6-26.5,19.4-34.4C811.7,183.4,830.3,200.8,832,220.1z"/>
<path fill="#FFFFFF" stroke="#000000" stroke-miterlimit="10" d="M832,220.6c-15.9,1.9-31.3,13.5-41.8,23.5
	c-2.2-2.2-4.1-4.7-5.8-7.3c-4.8-7.5-7.5-16.3-7.5-25.9c0-1.4,0.1-2.9,0.2-4.3c12,5,31.6,11.6,54.9,13.5
	C832,220.3,832,220.5,832,220.6z"/>
<path fill="#FFFFFF" stroke="#000000" stroke-miterlimit="10" d="M832.5,224.2c-2.9,10.7-7.9,22.1-16.1,33.9
	c-10.2-1.8-19.3-6.8-26.2-14c10.5-10,25.9-21.6,41.8-23.5C832.1,221.9,832.3,223.1,832.5,224.2z"/>
<path fill="#FFFFFF" stroke="#000000" stroke-miterlimit="10" d="M856.2,246.6c-7.3,6.5-16.6,10.9-26.8,11.9
	c-1.6,0.2-3.2,0.2-4.9,0.2c-1.6,0-3.3-0.1-4.9-0.2c-1.1-0.1-2.2-0.3-3.3-0.5c8.2-11.8,13.2-23.2,16.1-33.9
	C835,237.3,845.4,243.7,856.2,246.6z"/>
<path fill="#FFFFFF" stroke="#000000" stroke-miterlimit="10" d="M871.6,218.1c-1.7,11.3-7.3,21.3-15.4,28.5
	c-10.8-3-21.3-9.3-23.7-22.5c0.3-1.2,0.6-2.5,0.9-3.7c0.7-0.1,1.5-0.1,2.2-0.1h0C847,221,859.1,220.5,871.6,218.1z"/>
<path fill="#FFFFFF" stroke="#000000" stroke-miterlimit="10" d="M872.1,210.9c0,2.5-0.2,4.9-0.5,7.2c-12.5,2.4-24.6,2.9-35.9,2.3
	c14.6-0.3,25.1-14.8,32.1-29.6C870.6,196.9,872.1,203.7,872.1,210.9z"/>
<path fill="#FFFFFF" stroke="#000000" stroke-miterlimit="10" d="M829.4,258.6V330h-9.8v-71.5c1.6,0.2,3.2,0.2,4.9,0.2
	C826.2,258.8,827.8,258.7,829.4,258.6z"/>
<path fill="#FFFFFF" stroke="#000000" stroke-miterlimit="10" d="M698.7,287.8c-0.1,0.4-0.2,0.9-0.3,1.3c-0.3,1.3-0.7,2.6-1.1,3.8
	c-0.1,0.2-0.2,0.5-0.3,0.7c-0.2,0.4-0.3,0.9-0.5,1.3c-0.2,0.4-0.3,0.8-0.5,1.2c-0.2,0.5-0.4,1-0.7,1.5c-0.3,0.6-0.6,1.2-0.9,1.8
	c-0.1,0.2-0.2,0.4-0.3,0.5c-0.2,0.4-0.4,0.8-0.6,1.1c0,0,0,0,0,0c-0.2,0.4-0.4,0.8-0.7,1.1c-0.1,0.2-0.3,0.4-0.4,0.6
	c-0.2,0.3-0.3,0.5-0.5,0.8c-0.6,0.9-1.3,1.8-1.9,2.7c-0.2,0.3-0.4,0.5-0.6,0.8c-0.3,0.4-0.7,0.8-1.1,1.3c-0.2,0.2-0.4,0.4-0.6,0.6
	l0,0c-0.2,0.2-0.4,0.4-0.6,0.7c-0.9,1-1.9,1.9-2.9,2.9c-0.3,0.3-0.6,0.6-0.9,0.8c0,0,0,0-0.1,0c-0.3,0.2-0.6,0.5-0.8,0.7
	c-2,1.7-4.3,3.3-6.8,4.9c-1.2,0.8-2.4,1.5-3.6,2.2c-0.6,0.3-1.1,0.6-1.6,0.9c-0.2,0.1-0.4,0.3-0.7,0.4c-0.5,0.3-1,0.5-1.5,0.8
	c-0.5,0.3-1,0.5-1.5,0.7c-1.1,0.5-2.2,1-3.3,1.5c-0.5,0.2-1,0.4-1.4,0.6c-0.5,0.2-0.9,0.4-1.4,0.5c-1,0.4-2,0.7-3,1
	c-0.3,0.1-0.6,0.2-0.9,0.3c-0.2,0.1-0.3,0.1-0.5,0.1c-0.3,0.1-0.5,0.2-0.8,0.2c-0.2,0-0.3,0.1-0.5,0.1c-0.3,0.1-0.6,0.2-0.9,0.2
	c-0.4,0.1-0.8,0.2-1.2,0.3c-0.6,0.1-1.1,0.3-1.7,0.4c-1.1,0.2-2.2,0.4-3.3,0.6c-0.3,0-0.5,0.1-0.8,0.1c-0.4,0.1-0.9,0.1-1.3,0.1
	c-0.7,0.1-1.5,0.1-2.2,0.2c-0.4,0-0.7,0-1.1,0c-0.9,0-1.9,0-2.8,0h0c-0.2,0-0.3,0-0.5,0c-0.1,0-0.1,0-0.2,0c-0.3,0-0.6,0-0.9,0
	c-0.2,0-0.3,0-0.4,0c-0.1,0-0.3,0-0.4,0c-0.3,0-0.6-0.1-0.8-0.1c-0.4,0-0.9-0.1-1.3-0.2c-0.2,0-0.4-0.1-0.6-0.1c0,0,0,0,0,0
	c-0.6-0.1-1.2-0.2-1.7-0.3c-0.4-0.1-0.8-0.2-1.2-0.2c-0.2,0-0.5-0.1-0.7-0.2c-0.4-0.1-0.7-0.2-1.1-0.3c-0.4-0.1-0.8-0.2-1.2-0.3
	c-0.3-0.1-0.6-0.2-0.9-0.3c-0.3-0.1-0.6-0.2-0.9-0.3c-0.1,0-0.2-0.1-0.2-0.1c-0.3-0.1-0.7-0.2-1-0.3c-0.2-0.1-0.5-0.2-0.7-0.3
	c-0.2-0.1-0.5-0.2-0.7-0.2c-0.3-0.1-0.7-0.3-1-0.4c-0.5-0.2-1-0.4-1.5-0.6c-0.5-0.2-0.9-0.4-1.4-0.6c-0.2-0.1-0.3-0.2-0.5-0.3
	c-0.4-0.2-0.9-0.4-1.3-0.7c-0.3-0.1-0.5-0.3-0.8-0.4c-1.2-0.6-2.3-1.3-3.4-2c-0.4-0.2-0.8-0.5-1.1-0.7c-13.3-8.9-22.1-22.6-25-37.5
	c6.8-15.8,24.1-43.7,61-41C684.7,245.4,695.4,272.1,698.7,287.8z"/>
<path fill="#FFFFFF" stroke="#000000" stroke-miterlimit="10" d="M774.5,300.6c-0.1-3.8-0.3-7.5-0.6-11.1
	C764,153.4,636.6,156.9,636.6,156.9c-48.8-1.2-120.8,39.3-126.9,110.5c-4.2,48.8,9.4,85,29.4,110.4c7.4,9.4,15.6,17.3,24.2,23.9
	c8.2,1,17.3,4.1,27,10.7c0,0,7.7,0.3,16.9,3c-2.7-21.6-5.8-73.7,27-76.7c39.2-3.5,57.7,6.2,54.5,71.6c2.7,0.8,5.7,2.1,8.9,4.1h0
	c0,0,0,0,0,0c0.4-0.6,15.8-22.8,36.9-18.5C758.9,377.3,775.7,347.2,774.5,300.6z M698.7,287.8c-0.1,0.4-0.2,0.9-0.3,1.3
	c-0.3,1.3-0.7,2.6-1.1,3.8c-0.1,0.2-0.2,0.5-0.3,0.7c-0.2,0.4-0.3,0.9-0.5,1.3c-0.2,0.4-0.3,0.8-0.5,1.2c-0.2,0.5-0.4,1-0.7,1.5
	c-0.3,0.6-0.6,1.2-0.9,1.8c0,0.1-0.1,0.1-0.1,0.2c-0.1,0.1-0.1,0.2-0.2,0.4c-0.2,0.4-0.4,0.8-0.6,1.1c0,0,0,0,0,0
	c-0.2,0.4-0.4,0.8-0.7,1.1c-0.1,0.2-0.3,0.4-0.4,0.6c-0.2,0.3-0.3,0.5-0.5,0.8c-0.1,0.2-0.3,0.4-0.4,0.5c-0.4,0.6-0.8,1.2-1.3,1.7
	c-0.1,0.1-0.2,0.3-0.3,0.4c-0.2,0.3-0.4,0.5-0.6,0.8c-0.3,0.4-0.7,0.8-1.1,1.3c-0.2,0.2-0.4,0.4-0.6,0.6c0,0,0,0,0,0l0,0
	c0,0,0,0-0.1,0.1c-0.2,0.2-0.4,0.4-0.5,0.6c-0.9,1-1.9,1.9-2.9,2.9c-0.2,0.2-0.4,0.4-0.6,0.6c-0.1,0.1-0.2,0.2-0.3,0.3
	c0,0,0,0-0.1,0c-0.3,0.2-0.6,0.5-0.8,0.7c-2,1.7-4.3,3.3-6.8,4.9c-1.2,0.8-2.4,1.5-3.6,2.2c-0.6,0.3-1.1,0.6-1.6,0.9
	c-0.2,0.1-0.4,0.3-0.7,0.4c-0.5,0.3-1,0.5-1.5,0.8c-0.5,0.3-1,0.5-1.5,0.7c-1.1,0.5-2.2,1-3.3,1.5c-0.5,0.2-1,0.4-1.4,0.6
	c-0.5,0.2-0.9,0.4-1.4,0.5c-1,0.4-2,0.7-3,1c-0.1,0-0.2,0.1-0.3,0.1c-0.2,0.1-0.4,0.1-0.7,0.2c-0.2,0.1-0.3,0.1-0.5,0.1
	c0,0,0,0-0.1,0c-0.2,0.1-0.5,0.1-0.7,0.2c-0.2,0-0.3,0.1-0.5,0.1c-0.3,0.1-0.6,0.2-0.9,0.2c-0.4,0.1-0.8,0.2-1.2,0.3
	c-0.6,0.1-1.1,0.3-1.7,0.4c-1.1,0.2-2.2,0.4-3.3,0.6c-0.3,0-0.5,0.1-0.8,0.1c-0.4,0.1-0.9,0.1-1.3,0.1c-0.7,0.1-1.5,0.1-2.2,0.2
	c-0.4,0-0.7,0-1.1,0c-0.9,0-1.9,0-2.8,0c-0.2,0-0.5,0-0.7,0c-0.3,0-0.6,0-0.9,0c0,0,0,0,0,0v0c-0.2,0-0.3,0-0.4,0
	c-0.1,0-0.3,0-0.4,0c-0.3,0-0.6-0.1-0.8-0.1c-0.4,0-0.9-0.1-1.3-0.2c-0.1,0-0.3,0-0.4,0c-0.1,0-0.2,0-0.2,0c0,0,0,0,0,0
	c-0.1,0-0.1,0-0.2,0c-0.5-0.1-1-0.2-1.5-0.2c-0.4-0.1-0.8-0.2-1.2-0.2c-0.2,0-0.5-0.1-0.7-0.2c-0.4-0.1-0.7-0.2-1.1-0.3
	c-0.4-0.1-0.8-0.2-1.2-0.3c-0.3-0.1-0.6-0.2-0.9-0.3c-0.3-0.1-0.6-0.2-0.9-0.3c-0.1,0-0.2-0.1-0.2-0.1c-0.3-0.1-0.7-0.2-1-0.3
	c-0.2-0.1-0.5-0.2-0.7-0.3c-0.2-0.1-0.5-0.2-0.7-0.2c-0.1-0.1-0.3-0.1-0.4-0.2c-0.2-0.1-0.4-0.2-0.7-0.3c-0.5-0.2-1-0.4-1.5-0.6
	c-0.2-0.1-0.4-0.2-0.6-0.3c-0.3-0.1-0.5-0.2-0.7-0.3c-0.2-0.1-0.3-0.2-0.5-0.3c-0.2-0.1-0.5-0.2-0.7-0.4c-0.2-0.1-0.4-0.2-0.6-0.3
	c-0.3-0.1-0.5-0.3-0.8-0.4c-1.2-0.6-2.3-1.3-3.4-2c-0.4-0.2-0.8-0.5-1.1-0.7c-13.3-8.9-22.1-22.6-25-37.5c-2.3-11.5-1-23.8,4.5-35
	c13.9-28.5,45.5-31.8,45.5-31.8C670.8,211.5,706.1,252.6,698.7,287.8z"/>
<path fill="#FFFFFF" stroke="#000000" stroke-miterlimit="10" d="M634.1,338.6c-32.8,2.9-29.8,55-27,76.7c4.3,1.2,8.8,3,13.1,5.4
	c4.4,2.5,8.5,5.8,11.5,10c0,0,2.1-5.3,6.5-8.8c4.1-3.3,10-5.2,18.2-0.3c2.2,1.3,4.5,3.1,7,5.5c0,0,0.7-2.9,2.5-6.3
	c3.3-6.2,10-14.2,22.7-10.5C691.9,344.8,673.4,335.1,634.1,338.6z M672,386.5c-4.7,0-8.5-3.8-8.5-8.6c0-4.7,3.8-8.6,8.5-8.6
	c4.7,0,8.5,3.8,8.5,8.6C680.5,382.7,676.7,386.5,672,386.5z"/>
<path fill="#FFFFFF" stroke="#000000" stroke-miterlimit="10" d="M680.5,377.9c0,4.7-3.8,8.6-8.5,8.6c-4.7,0-8.5-3.8-8.5-8.6
	c0-4.7,3.8-8.6,8.5-8.6C676.7,369.3,680.5,373.2,680.5,377.9z"/>
<path fill="#FFFFFF" stroke="#000000" stroke-miterlimit="10" d="M698.7,287.8c-3.2-15.8-14-42.4-49.9-45c-36.9-2.6-54.2,25.2-61,41
	c-2.3-11.5-1-23.8,4.5-35c13.9-28.5,45.5-31.8,45.5-31.8C670.8,211.5,706.1,252.6,698.7,287.8z"/>
<path fill="#FFFFFF" stroke="#000000" stroke-miterlimit="10" d="M698.7,287.8c-0.1,0.4-0.2,0.9-0.3,1.3c-0.3,1.3-0.7,2.6-1.1,3.8
	c-0.1,0.2-0.2,0.5-0.3,0.7c-0.2,0.4-0.3,0.9-0.5,1.3c-0.2,0.4-0.3,0.8-0.5,1.2c-0.2,0.5-0.4,1-0.7,1.5c-0.3,0.6-0.6,1.2-0.9,1.8
	c-0.1,0.2-0.2,0.4-0.3,0.5c-0.2,0.4-0.4,0.8-0.6,1.1c0,0,0,0,0,0c-0.2,0.4-0.4,0.8-0.7,1.1c-0.1,0.2-0.3,0.4-0.4,0.6
	c-0.2,0.3-0.3,0.5-0.5,0.8c-0.6,0.9-1.3,1.8-1.9,2.7c-0.2,0.3-0.4,0.5-0.6,0.8c-0.3,0.4-0.7,0.8-1.1,1.3c-0.2,0.2-0.4,0.4-0.6,0.6
	l0,0c-0.2,0.2-0.4,0.4-0.6,0.7c-0.9,1-1.9,1.9-2.9,2.9c-0.3,0.3-0.6,0.6-0.9,0.8c0,0,0,0-0.1,0c-0.3,0.2-0.6,0.5-0.8,0.7
	c-2,1.7-4.3,3.3-6.8,4.9c-1.2,0.8-2.4,1.5-3.6,2.2c-0.6,0.3-1.1,0.6-1.6,0.9c-0.2,0.1-0.4,0.3-0.7,0.4c-0.5,0.3-1,0.5-1.5,0.8
	c-0.5,0.3-1,0.5-1.5,0.7c-1.1,0.5-2.2,1-3.3,1.5c-0.5,0.2-1,0.4-1.4,0.6c-0.5,0.2-0.9,0.4-1.4,0.5c-1,0.4-2,0.7-3,1
	c-0.3,0.1-0.6,0.2-0.9,0.3c-0.2,0.1-0.3,0.1-0.5,0.1c-0.3,0.1-0.5,0.2-0.8,0.2c-0.2,0-0.3,0.1-0.5,0.1c-0.3,0.1-0.6,0.2-0.9,0.2
	c-0.4,0.1-0.8,0.2-1.2,0.3c-0.6,0.1-1.1,0.3-1.7,0.4c-1.1,0.2-2.2,0.4-3.3,0.6c-0.3,0-0.5,0.1-0.8,0.1c-0.4,0.1-0.9,0.1-1.3,0.1
	c-0.7,0.1-1.5,0.1-2.2,0.2c-0.4,0-0.7,0-1.1,0c-0.9,0-1.9,0-2.8,0h0c-0.2,0-0.3,0-0.5,0c-0.1,0-0.1,0-0.2,0c-0.3,0-0.6,0-0.9,0
	c-0.2,0-0.3,0-0.4,0c-0.1,0-0.3,0-0.4,0c-0.3,0-0.6-0.1-0.8-0.1c-0.4,0-0.9-0.1-1.3-0.2c-0.2,0-0.4-0.1-0.6-0.1c0,0,0,0,0,0
	c-0.6-0.1-1.2-0.2-1.7-0.3c-0.4-0.1-0.8-0.2-1.2-0.2c-0.2,0-0.5-0.1-0.7-0.2c-0.4-0.1-0.7-0.2-1.1-0.3c-0.4-0.1-0.8-0.2-1.2-0.3
	c-0.3-0.1-0.6-0.2-0.9-0.3c-0.3-0.1-0.6-0.2-0.9-0.3c-0.1,0-0.2-0.1-0.2-0.1c-0.3-0.1-0.7-0.2-1-0.3c-0.2-0.1-0.5-0.2-0.7-0.3
	c-0.2-0.1-0.5-0.2-0.7-0.2c-0.3-0.1-0.7-0.3-1-0.4c-0.5-0.2-1-0.4-1.5-0.6c-0.5-0.2-0.9-0.4-1.4-0.6c-0.2-0.1-0.3-0.2-0.5-0.3
	c-0.4-0.2-0.9-0.4-1.3-0.7c-0.3-0.1-0.5-0.3-0.8-0.4c-1.2-0.6-2.3-1.3-3.4-2c-0.4-0.2-0.8-0.5-1.1-0.7c-13.3-8.9-22.1-22.6-25-37.5
	c6.8-15.8,24.1-43.7,61-41C684.7,245.4,695.4,272.1,698.7,287.8z"/>
<path fill="#FFFFFF" stroke="#000000" stroke-miterlimit="10" d="M680.5,377.9c0,4.7-3.8,8.6-8.5,8.6c-4.7,0-8.5-3.8-8.5-8.6
	c0-4.7,3.8-8.6,8.5-8.6C676.7,369.3,680.5,373.2,680.5,377.9z"/>
<path fill="#FFFFFF" stroke="#000000" stroke-miterlimit="10" d="M742.8,398.8c0,0-29.3,2.5-42.7,23.3c0,0-25.6-9.8-36.6,11
	c0,0-17.1-17.2-31.7,3.7c0,0-24.4-24.6-43.9-11.1c0,0-17.1-27-59.8-16c0,0,14.5-10.8,35.3-8.2c8.2,1,17.3,4.1,27,10.7
	c0,0,7.7,0.3,16.9,3c4.3,1.2,8.8,3,13.1,5.4c4.4,2.5,8.5,5.8,11.5,10c0,0,2.1-5.3,6.5-8.8c4.1-3.3,10-5.2,18.2-0.3
	c2.2,1.3,4.5,3.1,7,5.5c0,0,0.7-2.9,2.5-6.3c3.3-6.2,10-14.2,22.7-10.5c2.7,0.8,5.7,2.1,8.9,4.1h0c0,0,0,0,0,0
	c0.4-0.6,15.8-22.8,36.9-18.5C737.2,396.3,739.9,397.3,742.8,398.8z"/>
<path fill="#FFFFFF" stroke="#000000" stroke-miterlimit="10" d="M1000.5,224.7v30.3l-88.4,33.7c2.2-1.8,4.4-3.5,6.6-5.2
	C953.1,256.5,984.1,233.6,1000.5,224.7z"/>
<path fill="#FFFFFF" stroke="#000000" stroke-miterlimit="10" d="M1000.5,254.9v18.1l-124.2,44.2c12-9.7,24-19.3,35.8-28.6
	L1000.5,254.9z"/>
<path fill="#FFFFFF" stroke="#000000" stroke-miterlimit="10" d="M1000.5,273.1v13.7l-1.4,8.7l-166,57.2c3.6-3,7.4-6.1,11.1-9.2
	c10.4-8.5,21.2-17.4,32.1-26.2L1000.5,273.1z"/>
<path fill="#FFFFFF" stroke="#000000" stroke-miterlimit="10" d="M999.1,295.4l-1,6.1l0,0.2l-3.5,21.2l-203.4,64.5
	c11.9-10,26.3-22,41.9-34.9L999.1,295.4z"/>
<path fill="#FFFFFF" stroke="#000000" stroke-miterlimit="10" d="M994.6,323l-4.9,29.8l-226.6,58.4c0.5-0.5,1.1-0.9,1.7-1.5
	c0.2-0.2,0.4-0.3,0.6-0.5c3.5-2.9,7.9-6.7,13.3-11.2c0.9-0.7,1.7-1.4,2.6-2.2c2-1.7,4.2-3.5,6.4-5.4c0.8-0.6,1.5-1.3,2.3-1.9
	c0.4-0.3,0.8-0.7,1.2-1L994.6,323z"/>
<path fill="#FFFFFF" stroke="#000000" stroke-miterlimit="10" d="M989.7,352.7l-5.2,31.8l-181.4,41.1c-0.7-0.3-1.5-0.6-2.2-0.9
	c-0.7-0.3-1.5-0.6-2.2-0.8c-0.8-0.3-1.6-0.6-2.4-0.8c-0.2-0.1-0.4-0.1-0.6-0.2c-0.5-0.2-0.9-0.3-1.4-0.4c-0.6-0.2-1.2-0.4-1.8-0.6
	c-0.8-0.3-1.6-0.5-2.5-0.7c-0.3-0.1-0.7-0.2-1-0.3c-2-0.6-3.9-1.1-5.9-1.5c-1.1-0.2-2.1-0.5-3.2-0.7c-1.1-0.2-2.1-0.4-3.2-0.6
	c0,0,0,0,0,0c-0.9-0.2-1.8-0.3-2.6-0.4c-0.4-0.1-0.8-0.1-1.2-0.2c0,0,0,0,0,0c-0.9-0.1-1.7-0.3-2.6-0.4c-1.1-0.1-2.1-0.3-3.2-0.4h0
	c-1.1-0.1-2.1-0.2-3.2-0.3c-1.1-0.1-2.1-0.1-3.2-0.2c-1.1-0.1-2.2-0.1-3.2-0.1c0,0,0,0,0.1-0.1c0,0,0.1-0.1,0.2-0.2
	c0.7-0.5,2.5-2.1,5.4-4.6L989.7,352.7z"/>
<path fill="#FFFFFF" stroke="#000000" stroke-miterlimit="10" d="M984.5,384.5l-6.2,37.9c-44.9,9.3-101.7,21-131.5,27.4
	c-0.2-0.1-0.4-0.3-0.5-0.4c-0.7-0.5-1.4-1-2.1-1.5c-0.2-0.2-0.5-0.3-0.7-0.5c-0.9-0.6-1.8-1.2-2.7-1.8c-1.9-1.3-3.9-2.6-5.9-3.8
	c-1.9-1.2-3.9-2.4-5.9-3.5c-2-1.1-3.9-2.3-5.9-3.3c-1-0.5-2-1.1-3-1.6c-0.7-0.4-1.5-0.8-2.2-1.2c-0.4-0.2-0.8-0.4-1.3-0.6
	c-0.8-0.4-1.6-0.8-2.4-1.2c0,0-0.1,0-0.1,0c-1-0.5-2-1-3.1-1.4c-0.8-0.4-1.6-0.7-2.4-1c-0.2-0.1-0.4-0.2-0.7-0.3c-1-0.4-2-0.8-3-1.3
	c-0.6-0.3-1.2-0.5-1.8-0.7L984.5,384.5z"/>
<path fill="#FFFFFF" stroke="#000000" stroke-miterlimit="10" d="M978.4,422.3l-6.1,37.2l-91.9,17.4c-1.2-1.1-2.4-2.2-3.6-3.3
	c-1.2-1.1-2.4-2.2-3.7-3.3c-0.8-0.7-1.5-1.3-2.3-2c-1.7-1.5-3.5-3-5.3-4.4c-0.9-0.7-1.8-1.4-2.7-2.2c-0.1-0.1-0.3-0.2-0.4-0.3
	c-0.8-0.6-1.6-1.2-2.3-1.8c-1.8-1.4-3.6-2.8-5.5-4.2c-0.1-0.1-0.3-0.2-0.4-0.3c-0.8-0.6-1.6-1.2-2.4-1.8c-0.9-0.7-1.8-1.3-2.6-1.9
	c0,0-0.1-0.1-0.1-0.1c-0.8-0.5-1.5-1.1-2.3-1.6C876.7,443.4,933.4,431.6,978.4,422.3z"/>
<path fill="#FFFFFF" stroke="#000000" stroke-miterlimit="10" d="M972.3,459.6l-6.7,40.9l-52.3,10.2c-0.6-0.7-1.2-1.3-1.8-2
	c-0.6-0.7-1.2-1.3-1.8-2c-0.6-0.7-1.2-1.3-1.8-2c-0.6-0.7-1.2-1.3-1.8-2c-0.8-0.8-1.5-1.7-2.3-2.5c-1.3-1.4-2.6-2.8-4-4.2
	c-0.8-0.8-1.6-1.6-2.3-2.4c-0.7-0.7-1.4-1.5-2.2-2.2c-1.2-1.2-2.4-2.4-3.6-3.6c-1.2-1.2-2.4-2.4-3.7-3.6c-0.5-0.5-1-1-1.5-1.4
	c-0.2-0.2-0.4-0.4-0.6-0.6c-0.8-0.8-1.7-1.6-2.5-2.4c-0.8-0.8-1.7-1.6-2.6-2.4c-0.1-0.1-0.3-0.2-0.4-0.4L972.3,459.6z"/>
<path fill="#FFFFFF" stroke="#000000" stroke-miterlimit="10" d="M965.6,500.5l-4.7,28.7l-1.4,8.5l-0.1,0.8l-20.1,4
	c-0.4-0.5-0.7-1-1.1-1.5c-0.4-0.5-0.7-1-1.1-1.4c-3-3.9-6.3-8.1-9.9-12.5c-1.1-1.4-2.3-2.8-3.4-4.2c-0.6-0.7-1.2-1.4-1.8-2.1
	c-0.7-0.9-1.5-1.8-2.3-2.7c-1.1-1.3-2.2-2.6-3.3-3.9c-0.6-0.7-1.3-1.5-1.9-2.2c-0.4-0.4-0.8-0.9-1.2-1.3L965.6,500.5z"/>
<path fill="#FFFFFF" stroke="#000000" stroke-miterlimit="10" d="M959.4,538.5l-4.3,26.1c0,0-3.6-5.6-10.1-14.5
	c-0.6-0.8-1.2-1.6-1.8-2.4c-0.6-0.8-1.2-1.7-1.9-2.5c-0.4-0.5-0.8-1.1-1.2-1.7c-0.3-0.3-0.5-0.7-0.8-1L959.4,538.5z"/>
<path fill="#FFFFFF" stroke="#000000" stroke-miterlimit="10" d="M955.1,564.6c-4.5,4.5-9.2,4.9-13,4c1.3-6.2,2.3-12.5,2.9-18.5
	C951.5,559,955.1,564.6,955.1,564.6z"/>
<path fill="#FFFFFF" stroke="#000000" stroke-miterlimit="10" d="M945,550c-0.6-0.8-1.2-1.6-1.8-2.4c-0.6-0.8-1.2-1.7-1.9-2.5
	c-0.4-0.5-0.8-1.1-1.2-1.7c-0.3-0.3-0.5-0.7-0.8-1c-0.4-0.5-0.7-1-1.1-1.5c-0.4-0.5-0.7-1-1.1-1.4c-3-3.9-6.3-8.1-9.9-12.5
	c-1.1-1.4-2.3-2.8-3.4-4.2c-0.6-0.7-1.2-1.4-1.8-2.1c-0.7-0.9-1.5-1.8-2.3-2.7c-1.1-1.3-2.2-2.6-3.3-3.9c-0.6-0.7-1.3-1.5-1.9-2.2
	c-0.4-0.4-0.8-0.9-1.2-1.3c-0.6-0.7-1.2-1.3-1.8-2c-0.6-0.7-1.2-1.3-1.8-2c-0.6-0.7-1.2-1.3-1.8-2c-0.6-0.7-1.2-1.3-1.8-2
	c-0.8-0.8-1.5-1.7-2.3-2.5c-1.3-1.4-2.6-2.8-4-4.2c-0.8-0.8-1.6-1.6-2.3-2.4c-0.7-0.7-1.4-1.5-2.2-2.2c-1.2-1.2-2.4-2.4-3.6-3.6
	c-1.2-1.2-2.4-2.4-3.7-3.6c-0.5-0.5-1-1-1.5-1.4c-0.2-0.2-0.4-0.4-0.6-0.6c-0.8-0.8-1.7-1.6-2.5-2.4c-0.8-0.8-1.7-1.6-2.6-2.4
	c-0.1-0.1-0.3-0.2-0.4-0.4c-1.2-1.1-2.4-2.2-3.6-3.3c-1.2-1.1-2.4-2.2-3.7-3.3c-0.8-0.7-1.5-1.3-2.3-2c-1.7-1.5-3.5-3-5.3-4.4
	c-0.9-0.7-1.8-1.4-2.7-2.2c-0.1-0.1-0.3-0.2-0.4-0.3c-0.8-0.6-1.6-1.2-2.3-1.8c-1.8-1.4-3.6-2.8-5.5-4.2c-0.1-0.1-0.3-0.2-0.4-0.3
	c-0.8-0.6-1.6-1.2-2.4-1.8c-0.9-0.7-1.8-1.3-2.6-1.9c0,0-0.1-0.1-0.1-0.1c-0.8-0.5-1.5-1.1-2.3-1.6c-0.2-0.1-0.4-0.3-0.5-0.4
	c-0.7-0.5-1.4-1-2.1-1.5c-0.2-0.2-0.5-0.3-0.7-0.5c-0.9-0.6-1.8-1.2-2.7-1.8c-1.9-1.3-3.9-2.6-5.9-3.8c-1.9-1.2-3.9-2.4-5.9-3.5
	c-2-1.1-3.9-2.3-5.9-3.3c-1-0.5-2-1.1-3-1.6c-0.7-0.4-1.5-0.8-2.2-1.2c-0.4-0.2-0.8-0.4-1.3-0.6c-0.8-0.4-1.6-0.8-2.4-1.2
	c0,0-0.1,0-0.1,0c-1-0.5-2-1-3.1-1.4c-0.8-0.4-1.6-0.7-2.4-1c-0.2-0.1-0.4-0.2-0.7-0.3c-1-0.4-2-0.8-3-1.3c-0.6-0.3-1.2-0.5-1.8-0.7
	c-0.7-0.3-1.5-0.6-2.2-0.9c-0.7-0.3-1.5-0.6-2.2-0.8c-0.8-0.3-1.6-0.6-2.4-0.8c-0.2-0.1-0.4-0.1-0.6-0.2c-0.5-0.2-0.9-0.3-1.4-0.4
	c-0.6-0.2-1.2-0.4-1.8-0.6c-0.8-0.3-1.6-0.5-2.5-0.7c-0.3-0.1-0.7-0.2-1-0.3c-2-0.6-3.9-1.1-5.9-1.5c-1.1-0.2-2.1-0.5-3.2-0.7
	c-1.1-0.2-2.1-0.4-3.2-0.6c0,0,0,0,0,0c-0.9-0.2-1.8-0.3-2.6-0.4c-0.4-0.1-0.8-0.1-1.2-0.2c0,0,0,0,0,0c-0.9-0.1-1.7-0.3-2.6-0.4
	c-1.1-0.1-2.1-0.3-3.2-0.4h0c-1.1-0.1-2.1-0.2-3.2-0.3c-1.1-0.1-2.1-0.1-3.2-0.2c-1.1-0.1-2.2-0.1-3.2-0.1c0,0-69.8,31.8-73.3,117.3
	c-0.1,2.6-0.2,5.2-0.2,7.9c0,0.7,0,1.3,0,2c0,0.1,0,0.2,0,0.3c0,1,0.1,2,0.1,3c0,0.7,0.1,1.4,0.1,2.2c0,0,2.4,47.9,20.8,66.3
	c0,0-36.6,22.1-15.9,30.7c20.8,8.6,45.2,0,45.2,0s3.7,44.2,62.3,11.1c0,0,28.1,39.3,68.4,2.5c0,0,32.9,34.4,50-7.4
	c0,0,27.6,9.6,26.5-11.8c-0.4-6.8-3.5-13.3-9-17.4c-1.7-1.3-3.5-2.3-5.3-2.7c0,0,9.7-25.2,15-51.3C943.4,562.3,944.4,556,945,550z
	 M918.5,591.6c0,14.7-20.8,2.5-17.1,0c3.7-2.5,3.7-2.5,3.7-2.5S918.5,576.9,918.5,591.6z M894.1,538.8c0,0,12.2-13.5,14.7-1.2
	C911.2,549.8,891.7,557.2,894.1,538.8z M867.3,508.1c0,0,17.1,1.2,11,11C872.1,529,855.1,520.4,867.3,508.1z M823.3,470
	c0,0,22,8.6,17.1,14.7C835.5,490.9,808.7,495.8,823.3,470z M773.3,483.5c0,0,9.8-14.7,17.1,1.2C797.7,500.7,769.6,494.6,773.3,483.5
	z M750.1,457.7c0,0,13.4,17.2-2.4,16C731.8,472.5,735.4,454.1,750.1,457.7z M740.3,559.7c-1.2,14.7-13.4,14.7-23.2,0
	C717.1,559.7,741.6,544.9,740.3,559.7z M715.9,493.4c0,0,20.7-1.2,13.4,14.7C722,524.1,698.8,504.4,715.9,493.4z M858.7,641.9
	c0,0-3.2-2.2-8-4c-6.9-2.5-17-4-25,4c0,0-15.9-6.1-30.5,6.1c0,0-7.3-19.7-23.2-8.6c0,0-6-4.6-13.7-5.9c-4.9-0.8-10.4-0.3-15.6,3.5
	c0,0,8.5-19.7-25.6-19.7c0,0,23.2-11,31.7,13.5c0,0,4.1-2,9.4-1.7c-0.6-19.6-1.7-58-0.8-63.4c1.2-7.4-1.2-50.3,46.4-51.6
	c47.6-1.2,53.7,38.1,52.5,61.4c-0.9,16.5-3.6,43.4-5.1,57.7c2,0.9,4.1,2.1,6.3,3.7c0,0,6.1-7.4,14.6,2.5
	C872.1,639.5,859.9,635.8,858.7,641.9z M879.5,569.5c0,0,17.1,2.5,8.5,8.6C879.5,584.2,861.2,580.5,879.5,569.5z M906.3,630.9
	c-6.1-2.5-18.3,7.4-18.3,7.4c3.7-12.3,18.3-11,18.3-11c7.3-9.8,15.9-2.5,15.9-2.5C914.9,622.3,906.3,630.9,906.3,630.9z"/>
<path fill="#FFFFFF" stroke="#000000" stroke-miterlimit="10" d="M803.8,514.2c-47.6,1.2-45.2,44.2-46.4,51.6
	c-0.9,5.5,0.2,43.8,0.8,63.4c3.9,0.3,8.5,1.9,12.6,6.6c0,0,14.6-13.5,28.1,6.1c0,0,11-11,24.4-2.5c0,0,2.6-4.4,8-7
	c4.6-2.3,11.2-3.2,19.9,0.9c1.5-14.4,4.2-41.3,5.1-57.7C857.5,552.3,851.4,513,803.8,514.2z M847.7,591.3c0,2.2-1.8,4-4,4h-0.8
	c-2.1,0-3.8-1.7-3.8-3.8v-11.7c0-2.3,1.9-4.1,4.1-4.1h0.1c2.4,0,4.3,2,4.3,4.4V591.3z"/>
<path fill="#FFFFFF" stroke="#000000" stroke-miterlimit="10" d="M872.1,639.5c0,0-12.2-3.7-13.4,2.5c0,0-3.2-2.2-8-4
	c-6.9-2.5-17-4-25,4c0,0-15.9-6.1-30.5,6.1c0,0-7.3-19.7-23.2-8.6c0,0-6-4.6-13.7-5.9c-4.9-0.8-10.4-0.3-15.6,3.5
	c0,0,8.5-19.7-25.6-19.7c0,0,23.2-11,31.7,13.5c0,0,4.1-2,9.4-1.7c3.9,0.3,8.5,1.9,12.6,6.6c0,0,14.6-13.5,28.1,6.1
	c0,0,11-11,24.4-2.5c0,0,2.6-4.4,8-7c4.6-2.3,11.2-3.2,19.9,0.9c2,0.9,4.1,2.1,6.3,3.7C857.5,637,863.6,629.7,872.1,639.5z"/>
<path fill="#FFFFFF" stroke="#000000" stroke-miterlimit="10" d="M740.3,559.7c-1.2,14.7-13.4,14.7-23.2,0
	C717.1,559.7,741.5,544.9,740.3,559.7z"/>
<path fill="#FFFFFF" stroke="#000000" stroke-miterlimit="10" d="M729.3,508.1c-7.3,16-30.5-3.7-13.4-14.7
	C715.9,493.4,736.7,492.1,729.3,508.1z"/>
<path fill="#FFFFFF" stroke="#000000" stroke-miterlimit="10" d="M747.7,473.7c-15.9-1.2-12.2-19.6,2.4-16
	C750.1,457.7,763.5,474.9,747.7,473.7z"/>
<path fill="#FFFFFF" stroke="#000000" stroke-miterlimit="10" d="M773.3,483.5c0,0,9.8-14.7,17.1,1.2
	C797.7,500.7,769.6,494.6,773.3,483.5z"/>
<path fill="#FFFFFF" stroke="#000000" stroke-miterlimit="10" d="M840.4,484.8c-4.9,6.1-31.7,11-17.1-14.7
	C823.3,470,845.3,478.6,840.4,484.8z"/>
<path fill="#FFFFFF" stroke="#000000" stroke-miterlimit="10" d="M878.2,519.1c-6.1,9.8-23.2,1.2-11-11
	C867.3,508.1,884.4,509.3,878.2,519.1z"/>
<path fill="#FFFFFF" stroke="#000000" stroke-miterlimit="10" d="M894.1,538.8c0,0,12.2-13.5,14.7-1.2
	C911.2,549.8,891.7,557.2,894.1,538.8z"/>
<path fill="#FFFFFF" stroke="#000000" stroke-miterlimit="10" d="M888,578.1c-8.5,6.1-26.8,2.5-8.5-8.6
	C879.5,569.5,896.5,571.9,888,578.1z"/>
<path fill="#FFFFFF" stroke="#000000" stroke-miterlimit="10" d="M918.5,591.6c0,14.7-20.8,2.5-17.1,0c3.7-2.5,3.7-2.5,3.7-2.5
	S918.5,576.9,918.5,591.6z"/>
<path fill="#FFFFFF" stroke="#000000" stroke-miterlimit="10" d="M922.2,624.8c-7.3-2.5-15.9,6.1-15.9,6.1
	c-6.1-2.5-18.3,7.4-18.3,7.4c3.7-12.3,18.3-11,18.3-11C913.6,617.4,922.2,624.8,922.2,624.8z"/>
<path fill="#FFFFFF" stroke="#000000" stroke-miterlimit="10" d="M847.7,580v11.3c0,2.2-1.8,4-4,4h-0.8c-2.1,0-3.8-1.7-3.8-3.8
	v-11.7c0-2.3,1.9-4.1,4.1-4.1h0.1C845.8,575.6,847.7,577.6,847.7,580z"/>
<path fill="#FFFFFF" stroke="#000000" stroke-miterlimit="10" d="M453.5,765.1c0,2-0.1,4.2-0.2,6.5c-0.7,20-3,50.6-10.8,65.5
	c-1.9,3.7-5.7,6.6-10.6,8.8l10.4-85c0.1,0.1,0.1,0.1,0.1,0.1c2.4-7.4,11-8.6,11-8.6s0,0.4,0,1.2
	C453.5,755.6,453.6,759.7,453.5,765.1z"/>
<path fill="#FFFFFF" stroke="#000000" stroke-miterlimit="10" d="M442.4,761l-10.4,85c-4.7,2.1-10.4,3.6-16.8,4.6l6.9-83.8
	c0,0,0,0,0,0C430.1,753.4,441.2,760.2,442.4,761z"/>
<path fill="#FFFFFF" stroke="#000000" stroke-miterlimit="10" d="M422,766.8l-6.9,83.8c-3.3,0.5-6.9,0.9-10.5,1.3
	c-2,0.2-4,0.3-6.1,0.4v-88.7c13.4-12.3,23.2,3.7,23.2,3.7C421.9,767.1,421.9,766.9,422,766.8z"/>
<path fill="#FFFFFF" stroke="#000000" stroke-miterlimit="10" d="M398.6,763.5v88.7c-6.1,0.3-12.4,0.4-18.6,0.3l-1.9-85.6v0
	C388.9,751.4,398.6,763.5,398.6,763.5z"/>
<path fill="#FFFFFF" stroke="#000000" stroke-miterlimit="10" d="M380,852.5c-4.9-0.1-9.7-0.3-14.3-0.5c-0.4,0-0.7,0-1.1-0.1
	l-9.1-82.6c0.3,0.2,0.4,0.3,0.4,0.3c9.8-13.5,22-2.5,22-2.5c0.1-0.1,0.1-0.2,0.2-0.3L380,852.5z"/>
<path fill="#FFFFFF" stroke="#000000" stroke-miterlimit="10" d="M364.5,852c-1.7-0.1-3.4-0.2-5-0.3c-3.9-0.3-7.6-0.6-11-0.8
	l-18.1-82c0.6,0.5,1,0.8,1,0.8c6.6-11.1,21.3-2.1,24-0.3L364.5,852z"/>
<path fill="#FFFFFF" stroke="#000000" stroke-miterlimit="10" d="M348.6,850.8c-6.7-0.6-11.9-1.1-14.7-1.3c-0.9-0.1-1.7-0.2-2.5-0.4
	l-18.2-76.4c7.4-9.6,14.6-5.8,17.2-3.9L348.6,850.8z"/>
<path fill="#FFFFFF" stroke="#000000" stroke-miterlimit="10" d="M331.4,849.1c-12.4-2.6-14.6-15.6-14.6-15.6L302.5,785l-1.4-4.6
	l-3.9-13.2c0.3-0.2,0.6-0.4,0.9-0.5c11.4-6.1,13.7,7.9,13.7,7.9c0.4-0.7,0.9-1.3,1.3-1.8L331.4,849.1z"/>
<path fill="#FFFFFF" stroke="#000000" stroke-miterlimit="10" d="M453.5,753.7c0-0.8,0-1.2,0-1.2s-8.5,1.2-11,8.6c0,0,0,0-0.1-0.1
	c-1.2-0.8-12.3-7.5-20.4,5.8c0,0,0,0,0,0c-0.1,0.1-0.2,0.3-0.2,0.4c0,0-9.8-16-23.2-3.7c0,0-9.7-12.1-20.6,3.4v0
	c-0.1,0.1-0.1,0.2-0.2,0.3c0,0-12.2-11.1-22,2.5c0,0-0.1-0.1-0.4-0.3c-2.7-1.8-17.3-10.8-24,0.3c0,0-0.4-0.4-1-0.8
	c-2.6-1.9-9.8-5.7-17.2,3.9c-0.4,0.6-0.9,1.2-1.3,1.8c0,0-2.3-14-13.7-7.9c-4.4-3.2-11.2-10.3,1.5-16.7c0,0,7.3-4.9,14.6,6.1
	c0,0,4.9-11.1,17.1-3.7c0,0,12.2-11.1,24.4-2.5c0,0,8.5-7.4,17.1,0c0,0,7.3-9.8,18.3-1.2c0,0,12.2-11.1,25.6,2.5
	c0,0,3.7-14.7,18.3-8.6c0,0,6.1-9.8,15.9-4.9C451.1,737.7,458.9,743.7,453.5,753.7z"/>
<path fill="#FFFFFF" stroke="#000000" stroke-miterlimit="10" d="M452.1,674.9c-4.3,0.6-12.2,0.3-23-5.9c-17.1-9.8-4.9,0-24.4,8.6
	c-12.5,5.5-15-2.1-18.7-7.9c-2.1-3.3-4.6-6-9.4-5.6c-4.5,0.4-5.7,5.6-6.1,12.3c-0.8,13.5,1.6,33.2-12.2,33.2
	c-13.4,0-12.5-12.8-12.9-25.5c-0.2-7-0.7-13.9-4.2-18.7c-9.8-13.5-23.2,17.2-42.7,20.9c-5.8,1.1-9-0.5-10.4-3.4
	c4.9-23.3,22.2-46.7,66.6-59.2c0,0,0.3-0.1,0.7-0.2c-3.1,8.1-0.8,13.1,2.9,16.2c2.6,2.2,5.6,3.3,8.8,3.5c5.3,0.3,10.7-2.3,13.6-7.2
	c2.7-4.7,2.2-9.5,0.4-13.5c0.6,0.1,1.3,0.1,2,0.2c0.4,0,0.8,0.1,1.3,0.1c0.8,0.1,1.6,0.2,2.4,0.3c0.6,0.1,1.2,0.2,1.9,0.3
	c0.5,0.1,1,0.2,1.5,0.2c0.1,0,0.3,0,0.4,0.1c0.4,0.1,0.9,0.2,1.3,0.2c0.8,0.2,1.6,0.3,2.4,0.5c0.8,0.2,1.6,0.4,2.4,0.6
	c0.5,0.1,1.1,0.3,1.6,0.4c0.5,0.1,1,0.3,1.5,0.4c0.1,0,0.1,0,0.2,0.1c0.6,0.2,1.1,0.3,1.7,0.5c0.5,0.2,1.1,0.4,1.6,0.5
	c0.6,0.2,1.2,0.4,1.7,0.6c0.5,0.2,1.1,0.4,1.6,0.6c0.5,0.2,1,0.4,1.5,0.6c0.2,0.1,0.4,0.2,0.7,0.3c0.4,0.2,0.8,0.3,1.2,0.5
	c0.6,0.2,1.1,0.5,1.7,0.7c0.6,0.3,1.1,0.5,1.7,0.8c0.3,0.1,0.5,0.3,0.8,0.4c0.1,0.1,0.2,0.1,0.3,0.1c0.1,0.1,0.2,0.1,0.3,0.2
	c0.3,0.1,0.6,0.3,0.8,0.4c0.4,0.2,0.7,0.4,1.1,0.6c0.4,0.2,0.8,0.5,1.3,0.7c0.6,0.3,1.1,0.7,1.7,1c0.4,0.2,0.7,0.5,1.1,0.7
	c1.2,0.8,2.5,1.6,3.7,2.5c0.4,0.3,0.8,0.6,1.2,0.9c0.4,0.3,0.8,0.6,1.2,0.9c1,0.8,2,1.6,3,2.5c0.4,0.3,0.8,0.7,1.2,1.1
	c0.5,0.5,1,0.9,1.5,1.4c0.6,0.6,1.2,1.1,1.7,1.7c0,0,0,0,0,0.1c0.4,0.4,0.8,0.8,1.1,1.2c0.4,0.4,0.7,0.8,1.1,1.2
	c0.2,0.2,0.4,0.4,0.6,0.7c0.4,0.4,0.8,0.9,1.1,1.3c0.5,0.6,1,1.2,1.5,1.9c0.4,0.5,0.8,1,1.2,1.6c0.5,0.7,1,1.4,1.5,2.1
	c0.4,0.6,0.8,1.2,1.2,1.8c0.4,0.6,0.8,1.2,1.1,1.7c0.4,0.7,0.8,1.4,1.2,2.1c0.4,0.6,0.7,1.3,1.1,1.9c0,0.1,0.1,0.1,0.1,0.2
	c0,0.1,0.1,0.1,0.1,0.2c0.3,0.6,0.6,1.2,0.9,1.8c0.1,0.2,0.2,0.4,0.3,0.7c0.3,0.5,0.5,1,0.8,1.6c0.1,0.3,0.3,0.6,0.4,0.9
	c0,0,0,0,0,0c0.2,0.4,0.4,0.9,0.6,1.3c0,0,0,0.1,0,0.1c0,0.1,0,0.1,0.1,0.2c0.2,0.5,0.4,1,0.6,1.4c0.2,0.5,0.4,0.9,0.6,1.4
	c0,0,0,0,0,0.1C451.6,673.6,451.8,674.3,452.1,674.9z"/>
<path fill="#FFFFFF" stroke="#000000" stroke-miterlimit="10" d="M453.5,678.8c-0.5-1.3-0.9-2.6-1.4-3.9c-4.3,0.6-12.2,0.3-23-5.9
	c-17.1-9.8-4.9,0-24.4,8.6c-12.5,5.5-15-2.1-18.7-7.9c-2.1-3.3-4.6-6-9.4-5.6c-4.5,0.4-5.7,5.6-6.1,12.3
	c-0.8,13.5,1.6,33.2-12.2,33.2c-13.4,0-12.5-12.8-12.9-25.5c-0.2-7-0.7-13.9-4.2-18.7c-9.8-13.5-23.2,17.2-42.7,20.9
	c-5.8,1.1-9-0.5-10.4-3.4c-0.2,0.9-0.4,1.9-0.5,2.8c-0.1,0.5-0.2,1.1-0.3,1.6c-0.1,0.7-0.2,1.4-0.3,2.1c0,0,0,0.1,0,0.1v0.1
	c-0.1,0.7-0.2,1.4-0.2,2.2c-0.1,0.5-0.1,1-0.1,1.6c0,0.6-0.1,1.1-0.1,1.7c0,0.4,0,0.8-0.1,1.2v0.2c-0.1,1.5-0.1,2.9,0,4.3
	c0,0,0,0.1,0,0.1c0.1,2.9,0.3,5.8,0.6,8.5c0.1,1.1,0.3,2.2,0.4,3.3c0,0,0,0,0,0c0.1,0.8,0.2,1.6,0.4,2.3c0,0,0,0,0,0
	c0.1,0.8,0.3,1.6,0.4,2.3c0.6,3.2,1.4,6.2,2.1,9.1c0.2,0.8,0.5,1.7,0.7,2.5c0.8,2.8,1.8,5.5,2.6,7.9c0.2,0.5,0.3,0.9,0.5,1.4
	c0.1,0.3,0.2,0.5,0.3,0.8c0.2,0.4,0.3,0.9,0.5,1.3c0.3,0.8,0.7,1.6,1,2.3c0.2,0.4,0.4,0.8,0.5,1.2c0.2,0.4,0.4,0.8,0.5,1.2
	c0.2,0.3,0.3,0.6,0.4,0.9c1.3,2.7,2.1,4.3,2.1,4.3s7.3-4.9,14.6,6.1c0,0,4.9-11,17.1-3.7c0,0,12.2-11,24.4-2.5c0,0,8.6-7.4,17.1,0
	c0,0,7.3-9.8,18.3-1.2c0,0,12.2-11.1,25.6,2.5c0,0,3.7-14.7,18.3-8.6c0,0,6.1-9.8,15.9-4.9c3.3-4.7,5.2-10.2,6.2-15.9
	C460.9,701.8,453.5,678.8,453.5,678.8z"/>
<ellipse fill="#FFFFFF" stroke="#000000" stroke-miterlimit="10" cx="324.1" cy="730.4" rx="17.1" ry="17.2"/>
<path fill="#FFFFFF" stroke="#000000" stroke-miterlimit="10" d="M347.3,721.8c-3.4,0-6.1-2.8-6.1-6.1c0-3.4,2.7-6.1,6.1-6.1
	c3.4,0,6.1,2.8,6.1,6.1C353.4,719,350.7,721.8,347.3,721.8z"/>
<ellipse fill="#FFFFFF" stroke="#000000" stroke-miterlimit="10" cx="397.4" cy="710.7" rx="4.9" ry="4.9"/>
<path fill="#FFFFFF" stroke="#000000" stroke-miterlimit="10" d="M424.2,740.2c-8.8,0-15.9-7.1-15.9-16c0-8.8,7.1-16,15.9-16
	s15.9,7.1,15.9,16C440.1,733,433,740.2,424.2,740.2z"/>
<ellipse fill="#FFFFFF" stroke="#000000" stroke-miterlimit="10" cx="324.1" cy="730.4" rx="17.1" ry="17.2"/>
<ellipse fill="#FFFFFF" stroke="#000000" stroke-miterlimit="10" cx="347.3" cy="715.6" rx="6.1" ry="6.1"/>
<ellipse fill="#FFFFFF" stroke="#000000" stroke-miterlimit="10" cx="397.4" cy="710.7" rx="4.9" ry="4.9"/>
<ellipse fill="#FFFFFF" stroke="#000000" stroke-miterlimit="10" cx="424.2" cy="724.2" rx="15.9" ry="16"/>
<path fill="#FFFFFF" stroke="#000000" stroke-miterlimit="10" d="M380.6,635.8c-2.9,4.9-8.3,7.5-13.6,7.2c-3.1-0.1-6.2-1.3-8.8-3.5
	c-3.6-3.1-5.9-8.1-2.9-16.2c0.3-0.7,0.6-1.5,0.9-2.2c0.9-2,3-3.1,5.2-3.1c0.7,0,1.5-0.1,2.4-0.3c1-0.2,2-0.6,3.1-1.2
	c0.7-0.4,1.5-0.9,2.3-1.5c2.7-2.2,8.1,1,11.1,6.3c0.2,0.4,0.4,0.7,0.6,1.1C382.8,626.3,383.3,631.1,380.6,635.8z"/>
<path fill="#FFFFFF" stroke="#000000" stroke-miterlimit="10" d="M367,616.5c-1.1,0.6-2.2,1-3.1,1.2c-3.2-14.3-20.2-22.4-20.2-22.4
	S358.3,590.7,367,616.5z"/>
<path fill="#FFFFFF" stroke="#000000" stroke-miterlimit="10" d="M368.1,365.6c0,0,7.3-60.2-52.5-67.5c0,0,25.6-40.5-33-56.5
	c0,0-13.4,0-9.8-18.4c3.7-18.4-8.5-38.1-34.2-35.6c0,0,20.8,28.2-9.8,39.3c-30.5,11-94,2.5-101.3,74.9c0,0-43.9,24.6-39,63.9
	c0,0-12.2,3.7-6.1,18.4c0,0.1,0.1,0.1,0.1,0.2c0.8,1.8,2.5,3.2,4.8,4.3c4.4,2.1,11.3,3,19.3,3.6c20.9,1.5,49.4,0.7,62.4,11.5
	c20.8,17.2,53.7-22.1,78.1-3.7c24.4,18.4,59.8,27,73.2,3.7c6.3-11,16.7-13,26.9-13.9c6.2-0.6,12.3-0.8,17.2-2.4
	c3.4-1.1,6.2-2.9,8.3-5.8c0.5-0.7,0.9-1.5,1.3-2.3C374.2,379.1,377.8,370.6,368.1,365.6z M308.3,299.4c-0.5,1-16.5,32.8-58.6,9.8
	C249.7,309.2,299.6,311.6,308.3,299.4z M161.3,367.5C161.3,367.5,161.3,367.5,161.3,367.5c-1.5,0.2-2.9,0.4-4.3,0.6c0,0,0,0,0,0
	c-6.8,1.5-14.2,5.4-20.6,3.3h0c-2.2-0.7-4.3-2.1-6.3-4.5c-11-13.5-26.9-14.7-26.9-14.7c19.5-12.3,20.8,6.1,40.3,6.1
	c13.7,0,20.1,5.4,22.8,8.6c0.3,0.3,0.5,0.6,0.7,0.9c0.6,0.8,0.9,1.4,0.9,1.5C165.8,367.9,163.6,367.5,161.3,367.5z M202.3,320
	c-6.1-1.4-12.6-0.6-18.2,2.4c-4.3,2.3-8.6,6.2-11.3,12.6c-7.3,17.2-20.8,8.6-19.5-1.2c0,0-1.2-30.7,32.9-34.4
	c34.2-3.7,31.7-19.6,34.2-31.9c2.3-11.7,20.1-33.4,38.7-23.8c2.5,1.3,4.4,3.6,4.8,6.4c0.4,3.1-0.8,6.9-8,8.9
	c-13.4,3.7-14.7,20.9-14.7,28.2C241.1,294.2,236.6,327.6,202.3,320z M296.1,398.8c-15.9,17.2-28.1-19.6-67.1-19.6
	c0,0,18.3-9.8,40.3,4.9c22,14.7,28.1,4.9,34.2,1.2c6.1-3.7,18.3-8.6,24.4-2.5C327.8,382.8,311.9,381.6,296.1,398.8z M338.8,341.1
	c-2.6,9.1-7.3,22.8-18.4,29.7h0c-9.8,6.1-24.7,6.9-47.5-5.2c0,0-0.5-0.3-1.3-0.7c-5.1-2.5-23.6-10.7-34.1-5.5
	c-3.1,1.5-6.2,2.9-9.2,3.8c-5.9,1.9-11.2,2.3-14.1,0.2h0c-1.5-1-2.3-2.7-2.3-5.2c0,0,1.2-28.2,28.1-25.8s61,30.7,74.4,2.5
	C327.8,306.7,343.7,323.9,338.8,341.1z"/>
<path fill="#FFFFFF" stroke="#000000" stroke-miterlimit="10" d="M255.8,258.8c-13.4,3.7-14.6,20.9-14.6,28.2
	c0,7.1-4.6,40.5-38.9,32.9c-6.1-1.4-12.6-0.6-18.1,2.4c-4.3,2.3-8.6,6.2-11.3,12.6c-7.3,17.2-20.7,8.6-19.5-1.2
	c0,0-1.2-30.7,33-34.4s31.7-19.6,34.2-31.9c2.3-11.7,20.1-33.4,38.6-23.8c2.5,1.3,4.4,3.6,4.8,6.4
	C264.2,253,263.1,256.8,255.8,258.8z"/>
<path fill="#FFFFFF" stroke="#000000" stroke-miterlimit="10" d="M308.2,299.4c-0.5,1-16.5,32.8-58.6,9.8
	C249.7,309.2,299.6,311.6,308.2,299.4z"/>
<path fill="#FFFFFF" stroke="#000000" stroke-miterlimit="10" d="M327.8,382.8c0,0-15.9-1.2-31.7,16c-15.9,17.2-28.1-19.6-67.1-19.6
	c0,0,18.3-9.8,40.3,4.9s28.1,4.9,34.2,1.2C309.5,381.6,321.7,376.7,327.8,382.8z"/>
<path fill="#FFFFFF" stroke="#000000" stroke-miterlimit="10" d="M167.9,369.3c-2.1-1.4-4.3-1.9-6.6-1.8c0,0,0,0,0,0
	c-1.4,0-2.8,0.2-4.2,0.6c0,0,0,0,0,0c-6.8,1.5-14.2,5.4-20.7,3.3h0c-2.2-0.7-4.3-2.1-6.3-4.5c-11-13.5-26.9-14.7-26.9-14.7
	c19.5-12.3,20.7,6.1,40.3,6.1c13.6,0,20.1,5.4,22.8,8.6C167.5,368.3,167.9,369.3,167.9,369.3z"/>
<path fill="#FFFFFF" stroke="#000000" stroke-miterlimit="10" d="M308.2,299.4c-0.5,1-16.5,32.8-58.6,9.8
	C249.7,309.2,299.6,311.6,308.2,299.4z"/>
<path fill="#FFFFFF" stroke="#000000" stroke-miterlimit="10" d="M327.8,382.8c0,0-15.9-1.2-31.7,16c-15.9,17.2-28.1-19.6-67.1-19.6
	c0,0,18.3-9.8,40.3,4.9s28.1,4.9,34.2,1.2C309.5,381.6,321.7,376.7,327.8,382.8z"/>
<path fill="#FFFFFF" stroke="#000000" stroke-miterlimit="10" d="M255.8,258.8c-13.4,3.7-14.6,20.9-14.6,28.2
	c0,7.1-4.6,40.5-38.9,32.9c-6.1-1.4-12.6-0.6-18.1,2.4c-4.3,2.3-8.6,6.2-11.3,12.6c-7.3,17.2-20.7,8.6-19.5-1.2
	c0,0-1.2-30.7,33-34.4s31.7-19.6,34.2-31.9c2.3-11.7,20.1-33.4,38.6-23.8c2.5,1.3,4.4,3.6,4.8,6.4
	C264.2,253,263.1,256.8,255.8,258.8z"/>
<path fill="#FFFFFF" stroke="#000000" stroke-miterlimit="10" d="M338.8,341.1c-2.6,9.1-7.3,22.8-18.4,29.7h0
	c-9.8,6.1-24.6,6.9-47.5-5.2c0,0-0.5-0.3-1.3-0.7c-5.1-2.5-23.6-10.7-34.1-5.5c-3.1,1.5-6.2,2.9-9.2,3.8c-5.9,1.9-11.2,2.3-14.1,0.2
	h0c-1.5-1-2.3-2.7-2.3-5.2c0,0,1.2-28.2,28.1-25.8c26.9,2.5,61,30.7,74.5,2.5C327.8,306.7,343.7,323.9,338.8,341.1z"/>
<path fill="#FFFFFF" stroke="#000000" stroke-miterlimit="10" d="M177.1,446.7c-0.2-1.2-0.4-2.5-0.6-3.7c-2.4-12-9-24-24.4-25.6
	c-1.2-0.1-2.4-0.2-3.7-0.2c-17.3,0-23.9,13.2-26.2,25.8c-0.2,1.2-0.4,2.5-0.6,3.7c-0.8,6.8-0.6,12.9-0.4,16.1
	c0.1-0.1,0.1-0.1,0.2-0.1c0,0,1.4-0.2,3.5-0.1c-0.1-3.3,0-9.4,1.2-15.9h22.1v21.2c1.2,0,2.4-0.1,3.7-0.2v-21h21.6
	c1.3,7.7,0.9,15.2,0.6,18.7c1.1,0,2,0.2,2.7,0.4C177.7,462,178.2,454.6,177.1,446.7z M148.4,443h-21.3c2.6-10.2,8.5-20.3,21.3-20.9
	V443z M152,443v-20.8c12.8,1.1,18.5,10.7,20.9,20.8H152z"/>
<path fill="#FFFFFF" stroke="#000000" stroke-miterlimit="10" d="M329.2,468.2c-5.1-1.4-13.7-1.5-22.2-1.7v-17.4h22.1
	C330.2,457.2,329.6,464.8,329.2,468.2z"/>
<path fill="#FFFFFF" stroke="#000000" stroke-miterlimit="10" d="M303.4,449.1v17.2c-7.5-0.3-14.4-0.8-18.3-2.5
	c-2.1-0.9-3.9-1.2-5.3-0.9c-0.3-3.2-0.5-8.3,0.1-13.8H303.4z"/>
<path fill="#FFFFFF" stroke="#000000" stroke-miterlimit="10" d="M257,504.4c-3.4,0-6.1,2.8-6.1,6.1c0,3.4,2.7,6.1,6.1,6.1
	s6.1-2.7,6.1-6.1C263.1,507.2,260.4,504.4,257,504.4z M320.5,403.7c-13.4,23.3-48.8,14.7-73.2-3.7c-24.4-18.4-57.4,20.9-78.1,3.7
	c-13.1-10.8-41.6-10-62.4-11.5l-0.2,11l-0.3,13.7l-0.3,12.7l-0.2,11.1l-0.2,11.6l-0.3,13l-0.2,9.3l-0.3,15l-0.1,2.9
	c0.7,0.1,1.3,0.2,2.1,0.4c0.2,0,0.5,0.1,0.7,0.2c0.7,0.2,1.5,0.4,2.3,0.7c0.2,0.1,0.4,0.2,0.6,0.3c0,0,0.1,0,0.1,0h0
	c5,0.9,9.9,2.2,14.7,3.7h0c0.1-0.1,0.2-0.1,0.3-0.2c0.2-0.1,0.3-0.2,0.5-0.4c0,0,0.1-0.1,0.1-0.1c0.2-0.2,0.4-0.3,0.7-0.5
	c0.2-0.1,0.4-0.3,0.6-0.4c0.9-0.5,1.9-1,2.9-1.3c0.1,0,0.3-0.1,0.4-0.1c0.1,0,0.3-0.1,0.4-0.1c0.2,0,0.3-0.1,0.5-0.1
	c0.3,0,0.5-0.1,0.8-0.1c0.2,0,0.4,0,0.7,0c1.5,0,3.1,0.4,4.8,1.2c12.2,6.1,9.8,0,19.5,0c9.8,0,7.3,4.9,14.6,4.9
	c6.5,0,9.1-7.7,20.6-6.9l0.1-9c0,0,0-40.5,35.4-40.5c35.1,0,40.2,32.7,39.1,51.2c4.3-0.3,11,0,13.4,4.1c3.7,6.1,12.2-14.7,26.9-2.5
	c14.6,12.3,9.8-3.7,25.6,0c10.2,2.4,12.3,5.7,14.5,5.3c0.1,0,0.1,0,0.2,0V389.8C337.2,390.7,326.8,392.7,320.5,403.7z M175.2,479.8
	c-4.9-2.5-6.1-12.3-11-6.1c-4.9,6.1-3.7,11.1-8.5,4.9c-4.9-6.1-4.9-7.4-9.8-3.7c-4.9,3.7-7.3,9.8-12.2,1.2c-4.9-8.6-6.1,3.7-9.8,4.9
	c-3.6,1.2-8.4-14.3-2.7-18.3c-0.2-3.2-0.5-9.3,0.4-16.1c0.1-1.2,0.3-2.4,0.6-3.7c2.3-12.6,8.8-25.8,26.2-25.8c1.3,0,2.5,0.1,3.7,0.2
	c15.4,1.6,22,13.6,24.4,25.6c0.3,1.2,0.5,2.5,0.6,3.7c1.1,7.9,0.6,15.3-0.2,19.2c0.3,0.1,0.6,0.3,0.8,0.5
	C181.3,470,180.1,482.3,175.2,479.8z M324.1,477.4c-4.9-7.4-6.1,4.9-9.8,6.1c-3.7,1.2-4.9-11.1-7.3-9.8c-2.4,1.2-11,13.5-14.7,8.6
	c-3.7-4.9-4.9-11.1-9.8-8.6c-4.9,2.5,0,7.4-6.1,7.4c-6.1,0-3.7-7.4-3.7-7.4s0.5-5.5,3.3-8.7c-0.4-3.3-0.9-9.3-0.3-15.9
	c0.1-1.6,0.3-3.3,0.6-4.9c2.2-12.2,8.8-24.6,26.8-24.6c1.3,0,2.5,0.1,3.7,0.2c14.6,1.6,21.1,12.8,24,24.4c0.4,1.6,0.7,3.3,1,4.9
	c1.5,9,1.1,17.4,0.8,20.6c0.5,0.4,0.9,0.9,1.1,1.5C336.3,478.6,329,484.8,324.1,477.4z"/>
<path fill="#FFFFFF" stroke="#000000" stroke-miterlimit="10" d="M148.4,422.1V443h-21.3C129.7,432.8,135.5,422.7,148.4,422.1z"/>
<path fill="#FFFFFF" stroke="#000000" stroke-miterlimit="10" d="M148.4,446.7v21.2c-4,0.1-7.5-0.2-9.8-1.5
	c-5.1-3-10.3-3.7-13.5-3.8c-0.1-3.3,0-9.4,1.2-15.9H148.4z"/>
<path fill="#FFFFFF" stroke="#000000" stroke-miterlimit="10" d="M174.2,465.4c-5-0.2-14.1,1.6-22.2,2.3v-21h21.6
	C174.9,454.4,174.5,461.9,174.2,465.4z"/>
<path fill="#FFFFFF" stroke="#000000" stroke-miterlimit="10" d="M172.9,443H152v-20.8C164.8,423.3,170.5,432.9,172.9,443z"/>
<path fill="#FFFFFF" stroke="#000000" stroke-miterlimit="10" d="M192.2,493.8L192.2,493.8l-0.9,57c-4.8-8-10.4-15.4-16.8-22
	c-13.6-14.1-30.5-24.9-49.5-30.9c0.1-0.1,0.2-0.1,0.3-0.2c0.1-0.1,0.3-0.2,0.5-0.4c0,0,0-0.1,0.1-0.1c0.2-0.2,0.4-0.3,0.7-0.5
	c0.2-0.1,0.4-0.3,0.6-0.4c0.9-0.5,1.9-1,2.9-1.3c0.1,0,0.3-0.1,0.4-0.1c0.2,0,0.3-0.1,0.4-0.1c0.2,0,0.3-0.1,0.5-0.1
	c0.3,0,0.5-0.1,0.8-0.1c0.2,0,0.4,0,0.7,0c1.5,0,3.1,0.4,4.8,1.2c12.2,6.1,9.8,0,19.5,0c9.8,0,7.3,4.9,14.6,4.9
	C178,500.7,180.7,493.1,192.2,493.8z"/>
<path fill="#FFFFFF" stroke="#000000" stroke-miterlimit="10" d="M347.3,502.3V548c-13,2.2-23.2,14.1-23.2,14.1
	c-19.5-14.7-36.6,3.7-36.6,3.7c-2.9-7.7-15.6-7.9-20.9-7.6c-0.3-15-0.8-48.4,0.2-62.4c0-0.1,0-0.3,0-0.4c4.3-0.3,11,0,13.4,4.1
	c3.7,6.1,12.2-14.7,26.9-2.5c14.6,12.3,9.8-3.7,25.6,0c10.2,2.4,12.3,5.7,14.5,5.3C347.2,502.3,347.3,502.3,347.3,502.3z"/>
<path fill="#FFFFFF" stroke="#000000" stroke-miterlimit="10" d="M364.8,408.4c-8-1.1-13.8-4.8-17.5-8v-10.6
	c6.2-0.6,12.3-0.8,17.2-2.4L364.8,408.4z"/>
<path fill="#FFFFFF" stroke="#000000" stroke-miterlimit="10" d="M365,422.5c-7.2-0.7-13.3-3.7-17.7-6.7v-15.5
	c3.7,3.2,9.5,6.9,17.5,8L365,422.5z"/>
<path fill="#FFFFFF" stroke="#000000" stroke-miterlimit="10" d="M365.2,434.2c-7.7,0.2-13.7-2.1-17.9-4.6v-13.7
	c4.4,2.9,10.5,5.9,17.7,6.7L365.2,434.2z"/>
<path fill="#FFFFFF" stroke="#000000" stroke-miterlimit="10" d="M365.4,445.3c-7.6,0.5-13.8-1.8-18-4.1v-11.7
	c4.2,2.5,10.1,4.8,17.9,4.6L365.4,445.3z"/>
<path fill="#FFFFFF" stroke="#000000" stroke-miterlimit="10" d="M365.5,456.3c-8.3,0.9-14.3-0.8-18.2-2.7v-12.4
	c4.2,2.3,10.4,4.6,18,4.1L365.5,456.3z"/>
<path fill="#FFFFFF" stroke="#000000" stroke-miterlimit="10" d="M365.7,471.1c-7.3,0.2-14-3.2-18.4-6v-11.5
	c3.9,1.9,9.8,3.5,18.2,2.7L365.7,471.1z"/>
<path fill="#FFFFFF" stroke="#000000" stroke-miterlimit="10" d="M365.9,481.6c-9.5,1.5-15.3-1-18.5-3.6v-12.9
	c4.3,2.8,11.1,6.2,18.4,6L365.9,481.6z"/>
<path fill="#FFFFFF" stroke="#000000" stroke-miterlimit="10" d="M366.1,497.3c-6-0.1-13.5-3.6-18.8-6.5V478c3.2,2.6,9,5.1,18.5,3.6
	L366.1,497.3z"/>
<path fill="#FFFFFF" stroke="#000000" stroke-miterlimit="10" d="M366.2,507.7c-7.9,0.9-14.5-2.2-18.9-5.3v-11.6
	c5.2,2.9,12.8,6.4,18.8,6.5L366.2,507.7z"/>
<path fill="#FFFFFF" stroke="#000000" stroke-miterlimit="10" d="M366.4,519.9c-8.9,1.9-15.1-0.1-19.1-2.8v-14.6
	c4.4,3.1,11,6.2,18.9,5.3L366.4,519.9z"/>
<path fill="#FFFFFF" stroke="#000000" stroke-miterlimit="10" d="M366.5,530.6c-7.9,1.9-14.5,0.5-19.2-1.3V517
	c4,2.7,10.1,4.8,19.1,2.8L366.5,530.6z"/>
<path fill="#FFFFFF" stroke="#000000" stroke-miterlimit="10" d="M366.7,544.4c-8,0.4-15.3-3.1-19.4-5.6v-9.6
	c4.7,1.8,11.4,3.2,19.2,1.3L366.7,544.4z"/>
<path fill="#FFFFFF" stroke="#000000" stroke-miterlimit="10" d="M366.9,553.5c-6.6-5.5-13.4-6.6-19.5-5.6v-9.1
	c4.1,2.5,11.3,5.9,19.4,5.6L366.9,553.5z"/>
<path fill="#FFFFFF" stroke="#000000" stroke-miterlimit="10" d="M106.7,392.2l-0.2,11c-5.3,2.1-12.5,5-19.1,7.6v-22.2
	C91.8,390.6,98.7,391.6,106.7,392.2z"/>
<path fill="#FFFFFF" stroke="#000000" stroke-miterlimit="10" d="M106.4,403.2l-0.3,13.7l-18.8,6.7v-12.9
	C93.9,408.2,101.2,405.3,106.4,403.2z"/>
<polygon fill="#FFFFFF" stroke="#000000" stroke-miterlimit="10" points="106.1,416.9 105.9,429.6 87.4,435.4 87.4,423.6 "/>
<polygon fill="#FFFFFF" stroke="#000000" stroke-miterlimit="10" points="105.9,429.6 105.6,440.8 87.4,447.4 87.4,435.4 "/>
<polygon fill="#FFFFFF" stroke="#000000" stroke-miterlimit="10" points="105.6,440.8 105.4,452.4 87.4,460.1 87.4,447.4 "/>
<polygon fill="#FFFFFF" stroke="#000000" stroke-miterlimit="10" points="105.4,452.4 105.1,465.3 87.4,472.5 87.4,460.1 "/>
<polygon fill="#FFFFFF" stroke="#000000" stroke-miterlimit="10" points="105.1,465.3 104.9,474.6 87.4,483.1 87.4,472.5 "/>
<path fill="#FFFFFF" stroke="#000000" stroke-miterlimit="10" d="M104.9,474.6l-0.3,15l-8.2,2.8h0c-0.3,0-0.6-0.1-0.9-0.1
	c-0.3,0-0.6,0-0.9,0c-0.9,0-1.7-0.1-2.6-0.1c-0.1,0-0.2,0-0.3,0c-1,0-2,0-3,0c-0.4,0-0.8,0-1.2,0v-9.1L104.9,474.6z"/>
<path fill="#FFFFFF" stroke="#000000" stroke-miterlimit="10" d="M104.6,489.6l-0.1,2.9l0,0.7c-2.7-0.4-5.4-0.6-8.2-0.8L104.6,489.6
	z"/>
<path fill="#FFFFFF" stroke="#000000" stroke-miterlimit="10" d="M175.2,479.8c-4.9-2.5-6.1-12.3-11-6.1c-4.9,6.1-3.7,11.1-8.5,4.9
	c-4.9-6.1-4.9-7.4-9.8-3.7c-4.9,3.7-7.3,9.8-12.2,1.2c-4.9-8.6-6.1,3.7-9.8,4.9c-3.6,1.2-8.4-14.3-2.7-18.3c0.1-0.1,0.1-0.1,0.2-0.1
	c0,0,1.4-0.2,3.5-0.1c3.3,0.1,8.4,0.8,13.5,3.8c2.2,1.3,5.8,1.6,9.8,1.5c1.2,0,2.4-0.1,3.7-0.2c8.1-0.6,17.2-2.5,22.2-2.3
	c1.1,0,2,0.2,2.7,0.4c0.3,0.1,0.6,0.3,0.8,0.5C181.3,470,180.1,482.3,175.2,479.8z"/>
<path fill="#FFFFFF" stroke="#000000" stroke-miterlimit="10" d="M324.1,477.4c-4.9-7.4-6.1,4.9-9.8,6.1c-3.7,1.2-4.9-11.1-7.3-9.8
	c-2.4,1.2-11,13.5-14.6,8.6s-4.9-11.1-9.8-8.6c-4.9,2.5,0,7.4-6.1,7.4s-3.7-7.4-3.7-7.4s0.5-5.5,3.3-8.7c0.9-1,2.1-1.8,3.6-2.1
	c1.5-0.3,3.2,0,5.3,0.9c3.9,1.7,10.8,2.2,18.3,2.5c1.2,0,2.4,0.1,3.7,0.1c8.5,0.2,17.1,0.3,22.2,1.7c1.5,0.4,2.7,0.9,3.6,1.6
	c0.5,0.4,0.9,0.9,1.1,1.5C336.3,478.6,329,484.8,324.1,477.4z"/>
<path fill="#FFFFFF" stroke="#000000" stroke-miterlimit="10" d="M332,449.1c-0.3-1.6-0.6-3.3-1-4.9c-2.9-11.5-9.4-22.8-24-24.4
	c-1.2-0.1-2.4-0.2-3.7-0.2c-18,0-24.6,12.4-26.8,24.6c-0.3,1.6-0.5,3.3-0.6,4.9c-0.6,6.6-0.1,12.6,0.3,15.9c0.9-1,2.1-1.8,3.6-2.1
	c-0.3-3.2-0.5-8.3,0.1-13.8h23.5v17.2c1.2,0,2.4,0.1,3.7,0.1v-17.4h22.1c1,8,0.5,15.7,0.1,19.1c1.5,0.4,2.7,0.9,3.6,1.6
	C333.1,466.5,333.5,458.1,332,449.1z M303.4,444.2h-22.7c2.3-10,8.2-19.7,22.7-20.8V444.2z M307,444.2v-20.9
	c13.2,0.6,18.9,10.4,21.3,20.9H307z"/>
<path fill="#FFFFFF" stroke="#000000" stroke-miterlimit="10" d="M303.4,423.4v20.8h-22.7C283,434.3,288.9,424.5,303.4,423.4z"/>
<path fill="#FFFFFF" stroke="#000000" stroke-miterlimit="10" d="M328.3,444.2H307v-20.9C320.3,423.9,326,433.8,328.3,444.2z"/>
<path fill="#FFFFFF" stroke="#000000" stroke-miterlimit="10" d="M227.7,444.2c-35.4,0-35.4,40.5-35.4,40.5l-0.1,9v0l-0.9,57
	c1.5,2.5,2.9,5.1,4.2,7.7h68.9c0,0,0.9-0.1,2.3-0.2c-0.3-15-0.8-48.4,0.2-62.4c0-0.1,0-0.3,0-0.4
	C267.9,476.9,262.9,444.2,227.7,444.2z M257,516.7c-3.4,0-6.1-2.7-6.1-6.1c0-3.4,2.7-6.1,6.1-6.1s6.1,2.8,6.1,6.1
	C263.1,513.9,260.4,516.7,257,516.7z"/>
<path fill="#FFFFFF" stroke="#000000" stroke-miterlimit="10" d="M263.1,510.6c0,3.4-2.7,6.1-6.1,6.1s-6.1-2.7-6.1-6.1
	c0-3.4,2.7-6.1,6.1-6.1S263.1,507.2,263.1,510.6z"/>
<path fill="#FFFFFF" stroke="#000000" stroke-miterlimit="10" d="M105.8,635.4c-0.1,0-0.2-0.1-0.3-0.1c0,0,0,0,0,0
	c-3.1-7-6.1-14.7-9-23.1c-23.5-69.1-66.6-81.6-96-81V531c21.6-23.6,52.5-38.6,86.8-38.9c0.4,0,0.8,0,1.2,0c1,0,2,0,3,0
	c0.1,0,0.2,0,0.3,0C110.3,522.4,135.3,579.6,105.8,635.4z"/>
<path fill="#FFFFFF" stroke="#000000" stroke-miterlimit="10" d="M105.5,635.3c-45.7-21.7-81.1-25.2-105-23.2v-81
	c29.4-0.6,72.5,11.9,96,81C99.4,620.5,102.4,628.2,105.5,635.3z"/>
<path fill="#FFFFFF" stroke="#000000" stroke-miterlimit="10" d="M105.6,635.6c-0.2,0.4-0.4,0.8-0.6,1.2
	c-33.5,30.6-71.2,51.1-98.3,63.4c-0.5-0.4-0.9-0.9-1.4-1.3c-1.7-1.6-3.3-3.3-4.8-5V612c23.9-2,59.3,1.5,105,23.2
	C105.5,635.4,105.6,635.5,105.6,635.6z"/>
<path fill="#FFFFFF" stroke="#000000" stroke-miterlimit="10" d="M84.5,732.7c-1.1,0-2.2-0.1-3.3-0.2c-0.1,0-0.2,0-0.3,0
	c-0.3,0-0.6,0-0.9-0.1c-0.7-0.1-1.5-0.1-2.2-0.2c-0.1,0-0.3,0-0.4,0c-0.9-0.1-1.8-0.2-2.6-0.3c-0.7-0.1-1.4-0.2-2.1-0.3
	c-0.1,0-0.2,0-0.3,0c-0.7-0.1-1.4-0.2-2-0.3c0,0,0,0,0,0c-0.5-0.1-1-0.1-1.4-0.2c-0.1,0-0.1,0-0.2,0c-0.8-0.1-1.5-0.3-2.2-0.4
	c-0.7-0.1-1.4-0.3-2.1-0.4c-0.8-0.2-1.7-0.4-2.5-0.6c-0.8-0.2-1.7-0.4-2.5-0.6c-0.6-0.2-1.2-0.3-1.8-0.5c-0.4-0.1-0.8-0.2-1.2-0.3
	c-0.6-0.2-1.3-0.4-1.9-0.6c-0.8-0.2-1.5-0.5-2.2-0.7c0,0-0.1,0-0.1-0.1c-0.3-0.1-0.7-0.2-1-0.3c-0.8-0.3-1.6-0.5-2.4-0.8
	c-2.4-0.8-4.7-1.7-7-2.7c-0.5-0.2-0.9-0.4-1.3-0.6c-0.4-0.2-0.7-0.3-1.1-0.5c-0.4-0.2-0.7-0.3-1-0.5c-0.5-0.2-1-0.5-1.6-0.8
	c-0.3-0.2-0.7-0.3-1-0.5c-0.4-0.2-0.8-0.4-1.2-0.6c-0.7-0.4-1.4-0.7-2.1-1.1c-0.5-0.2-0.9-0.5-1.4-0.8c-3.1-1.7-6.1-3.6-9-5.5
	c-0.3-0.2-0.7-0.5-1-0.7c-0.6-0.4-1.2-0.8-1.8-1.2c-0.7-0.5-1.4-1-2-1.5c-0.6-0.4-1.1-0.8-1.7-1.3c-0.5-0.4-1.1-0.9-1.6-1.3
	c-0.3-0.2-0.6-0.4-0.8-0.7c-0.2-0.2-0.4-0.3-0.6-0.5c-1.3-1-2.5-2.1-3.7-3.2c-0.7-0.6-1.3-1.2-2-1.8c27.1-12.3,64.8-32.9,98.3-63.4
	C86.3,672.7,82.7,706.4,84.5,732.7z"/>
<path fill="#FFFFFF" stroke="#000000" stroke-miterlimit="10" d="M206.3,633.6c-0.3,1.7-0.6,3.3-1,4.9c0,0.2-0.1,0.5-0.2,0.7
	c-0.2,0.7-0.3,1.4-0.5,2.1c-0.2,0.8-0.4,1.7-0.6,2.5c-0.2,0.7-0.4,1.4-0.6,2.1c-0.1,0.3-0.2,0.6-0.3,0.9c-0.5,1.6-0.9,3.1-1.5,4.6
	c-0.2,0.5-0.4,1.1-0.6,1.6c-0.1,0.3-0.2,0.7-0.4,1c-0.3,0.8-0.6,1.6-0.9,2.3c-0.3,0.6-0.5,1.3-0.8,1.9c0,0.1-0.1,0.2-0.1,0.4
	c-0.3,0.7-0.6,1.4-0.9,2.2c-0.3,0.6-0.5,1.2-0.8,1.9c-0.2,0.5-0.4,0.9-0.6,1.4c-0.9,1.9-1.8,3.7-2.8,5.5c-0.2,0.4-0.4,0.7-0.6,1.1
	c-0.2,0.3-0.3,0.6-0.5,1c-0.2,0.3-0.4,0.6-0.5,0.9c-0.7,1.3-1.5,2.5-2.2,3.7c-0.2,0.3-0.4,0.6-0.6,0.9c-0.4,0.6-0.8,1.3-1.2,1.9
	c-0.1,0.2-0.2,0.3-0.3,0.4c-0.4,0.6-0.8,1.1-1.1,1.7c-0.4,0.7-0.9,1.3-1.4,1.9c-1.4,1.9-2.8,3.8-4.3,5.7c-0.4,0.1-0.8,0.3-1.2,0.4
	c-0.3,0.1-0.6,0.2-0.9,0.4c-1.6,0.6-3.2,1.4-4.8,2.2c-0.4,0.2-0.7,0.4-1.1,0.6c-0.4,0.2-0.7,0.4-1.1,0.6c-2,1.2-4,2.5-5.9,4
	c-0.2,0.2-0.4,0.3-0.6,0.5c0,0,0,0-0.1,0.1c-0.2,0.1-0.4,0.3-0.5,0.4c-0.5,0.4-1,0.8-1.4,1.3c-0.4,0.3-0.8,0.7-1.1,1.1
	c-0.4,0.4-0.7,0.7-1.1,1.1c-0.4,0.4-0.7,0.8-1.1,1.1c-17.2-9.3-37.4-28.3-54.5-66.5c0.1-0.1,0.3-0.3,0.5-0.4
	C155.2,658.6,187.2,648.1,206.3,633.6z"/>
<path fill="#FFFFFF" stroke="#000000" stroke-miterlimit="10" d="M208.2,612.5c0,0.9,0,1.7,0,2.6c0,0.7,0,1.4-0.1,2.1
	c0,0.3,0,0.7,0,1c0,0.1,0,0.3,0,0.4c0,0.7-0.1,1.3-0.1,2c0,0.7-0.1,1.4-0.2,2.1c-0.1,0.9-0.2,1.7-0.2,2.5c0,0.4-0.1,0.8-0.1,1.3
	c0,0.4-0.1,0.9-0.2,1.3c-0.1,0.5-0.1,1-0.2,1.4c-0.1,0.6-0.2,1.2-0.3,1.9c-0.1,0.8-0.3,1.7-0.4,2.5c-19.1,14.5-51.2,25-100.1,2
	c29.6-27.3,55.8-62.6,68.2-106.9c6.4,6.7,12,14,16.8,22c1.5,2.5,2.9,5.1,4.2,7.7C203.6,574.7,208.2,593,208.2,612.5z"/>
<path fill="#FFFFFF" stroke="#000000" stroke-miterlimit="10" d="M365.6,852v17.1c0,3.7-18.3,4.9-18.3-2.5c0-7.4,12.2-4.9,12.2-4.9
	v-10.1c1.6,0.1,3.3,0.2,5,0.3C364.9,852,365.3,852,365.6,852z"/>
<path fill="#FFFFFF" stroke="#000000" stroke-miterlimit="10" d="M398.6,870.4v-18.1c2.1-0.1,4.1-0.2,6.1-0.4V863
	c0,0,12.2-4.9,13.4,3.7C419.3,875.3,398.6,870.4,398.6,870.4z"/>
<path fill="#FFFFFF" stroke="#000000" stroke-miterlimit="10" d="M290,801.6c4.9,2.5,3.7,8.6,3.7,8.6c0,4.9-4.9-1.2-4.9-1.2
	c-1.2,7.4-3.7,3.7-3.7,3.7s0-8.6-1.2-4.9c-1.2,3.7-2.4,1.2-2.4,1.2c0-7.4,4.9-8.6,4.9-8.6c0.9-12.2,10.5-18,14.9-20l1.4,4.6
	C291.9,788.1,290,801.6,290,801.6z"/>
<path fill="#FFFFFF" stroke="#000000" stroke-miterlimit="10" d="M479.1,742.6c0,0-6.1,3.7-6.1,7.4c0,3.6-10.2,17.4-19.7,21.7
	c0.1-2.3,0.1-4.5,0.2-6.5c5-3.1,13.5-9.4,13.5-16.4c0,0-6.1-2.5-1.2-6.1c0,0,0-6.1,3.7-6.1c0,0,1.2,0,1.2,1.2c0,0,0-2.5,3.7-1.2
	c0,0,2.4,1.2,1.2,3.7C475.5,740.2,481.6,740.2,479.1,742.6z"/>
<ellipse fill="#FFFFFF" stroke="#000000" stroke-miterlimit="10" cx="324.1" cy="730.4" rx="17.1" ry="17.2"/>
<ellipse fill="#FFFFFF" stroke="#000000" stroke-miterlimit="10" cx="424.2" cy="724.2" rx="15.9" ry="16"/>
<ellipse fill="#FFFFFF" stroke="#000000" stroke-miterlimit="10" cx="397.4" cy="710.7" rx="4.9" ry="4.9"/>
<ellipse fill="#FFFFFF" stroke="#000000" stroke-miterlimit="10" cx="347.3" cy="715.6" rx="6.1" ry="6.1"/>
<ellipse fill="#FFFFFF" stroke="#000000" stroke-miterlimit="10" cx="348.3" cy="715.6" rx="2.7" ry="2.7"/>
<ellipse fill="#FFFFFF" stroke="#000000" stroke-miterlimit="10" cx="397.3" cy="710.6" rx="2.7" ry="2.7"/>
<path fill="#FFFFFF" stroke="#000000" stroke-miterlimit="10" d="M384.2,725.1c0-5.4-4.4,2.5-9.8,2.5s-9.8-7.9-9.8-2.5
	c0,5.4,4.4,9.8,9.8,9.8S384.2,730.6,384.2,725.1z"/>
<g>
	<path fill="#FFFFFF" stroke="#000000" stroke-miterlimit="10" d="M454.7,430.3c-3.2-4.8-7.8-8.7-13.2-10.9
		c-3.4-1.4-7.2-2.2-11.2-2.2c-4.6,0-8.9,1.1-12.8,2.9c-5.1,2.5-9.4,6.5-12.3,11.4c-2.7,4.4-4.2,9.6-4.2,15.1
		c0,7.4,2.7,14.1,7.2,19.3c1.4,1.6,3,3.1,4.7,4.4c4.9,3.6,10.9,5.7,17.4,5.7c7.6,0,14.6-2.9,19.8-7.8c1-0.9,1.9-1.8,2.7-2.9
		c4.2-5.1,6.8-11.7,6.8-18.9C459.6,440.7,457.8,435,454.7,430.3z"/>
	<path fill="#FFFFFF" stroke="#000000" stroke-miterlimit="10" d="M430.3,443c2.7,0,4.9,2.2,4.9,4.9c0,2.7-2.2,4.9-4.9,4.9
		c-2.7,0-4.9-2.2-4.9-4.9C425.4,445.2,427.6,443,430.3,443z"/>
	<path fill="#FFFFFF" stroke="#000000" stroke-miterlimit="10" d="M415.7,449.1c-2,0-3.7-1.6-3.7-3.7c0-2,1.6-3.7,3.7-3.7
		c2,0,3.7,1.6,3.7,3.7C419.3,447.5,417.7,449.1,415.7,449.1z"/>
	<path fill="#FFFFFF" stroke="#000000" stroke-miterlimit="10" d="M441.4,453.4c-3,4.5-11.7,14.9-21.3,0.7c-0.1-0.2,0.1-0.4,0.3-0.3
		c2.9,2.3,11.3,7.3,20.6-0.7C441.3,452.8,441.6,453.1,441.4,453.4z"/>
	<ellipse fill="#FFFFFF" stroke="#000000" stroke-miterlimit="10" cx="443.7" cy="444.2" rx="2.4" ry="2.5"/>
</g>
<ellipse fill="#FFFFFF" stroke="#000000" stroke-miterlimit="10" cx="430.3" cy="447.9" rx="4.9" ry="4.9"/>
<path fill="#FFFFFF" stroke="#000000" stroke-miterlimit="10" d="M441.4,453.4c-3,4.5-11.7,14.9-21.3,0.7c-0.1-0.2,0.1-0.4,0.3-0.3
	c2.9,2.3,11.3,7.3,20.6-0.7C441.3,452.8,441.6,453.1,441.4,453.4z"/>
<path fill="#FFFFFF" stroke="#000000" stroke-miterlimit="10" d="M462,492.1c0,2.4-0.3,4.8-0.9,7.1c-2.6,10.5-10.7,18.8-21.1,21.5
	c-2.3,0.6-4.8,0.9-7.3,0.9c-1.3,0-2.5-0.1-3.7-0.2c-9.8-1.2-18.1-7.4-22.4-15.9c-1.5-2.9-2.5-6.1-2.9-9.5c-0.2-1.2-0.3-2.5-0.3-3.8
	c0-8.6,3.7-16.3,9.5-21.7c4.9,3.6,10.9,5.7,17.4,5.7c7.6,0,14.6-2.9,19.8-7.8c6.2,4.6,10.6,11.7,11.7,19.7
	C462,489.5,462,490.8,462,492.1z"/>
<path fill="#FFFFFF" stroke="#000000" stroke-miterlimit="10" d="M403.5,492.1c0,1.3,0.1,2.5,0.3,3.8c-7.1,6.6-17.6,13.7-22.2,3.6
	c-5.9-12.8,17.3-28,26.7-33.5c1.4,1.6,3,3.1,4.7,4.4C407.1,475.8,403.5,483.5,403.5,492.1z"/>
<path fill="#FFFFFF" stroke="#000000" stroke-miterlimit="10" d="M482.8,470c-6.5,6.5-13.5,15.2-21,18.1
	c-1.1-8.1-5.4-15.1-11.6-19.7c1-0.9,1.9-1.8,2.7-2.9c6.2-2.7,14.2-6.7,17.8-10.3C476.7,449.1,492.6,460.2,482.8,470z"/>
<path fill="#FFFFFF" stroke="#000000" stroke-miterlimit="10" d="M460.8,547.4c-7.4,0-12.3-3.4-15.4-8.2c-3.6-5.5-4.9-12.7-5.4-18.5
	c10.4-2.7,18.5-11,21.1-21.5c1.8,4,4.8,11,7.1,18.5C472.5,531.7,474.3,547.4,460.8,547.4z"/>
<path fill="#FFFFFF" stroke="#000000" stroke-miterlimit="10" d="M429.1,521.4c-1.3,21.6-13.4,29-25.6,22.3
	c-10.8-5.9-1-29.4,3.2-38.3C410.9,514,419.2,520.1,429.1,521.4z"/>
<path fill="#FFFFFF" stroke="#000000" stroke-miterlimit="10" d="M417.5,420.2c-5.1,2.5-9.4,6.5-12.3,11.4
	c-9.2-4.5-14.4-16.7-4.2-22.9C410.9,402.7,416,415.1,417.5,420.2z"/>
<path fill="#FFFFFF" stroke="#000000" stroke-miterlimit="10" d="M454.7,430.3c-3.2-4.8-7.8-8.7-13.2-10.9c2-4.9,6.2-12.7,12.2-12.8
	c1.1,0,2.2,0.2,3.5,0.7c0.9,0.4,1.6,0.9,2.3,1.4C466.2,414.5,462.5,427.8,454.7,430.3z"/>
<ellipse fill="#FFFFFF" stroke="#000000" stroke-miterlimit="10" cx="430.3" cy="447.9" rx="4.9" ry="4.9"/>
<path fill="#FFFFFF" stroke="#000000" stroke-miterlimit="10" d="M441.4,453.4c-3,4.5-11.7,14.9-21.3,0.7c-0.1-0.2,0.1-0.4,0.3-0.3
	c2.9,2.3,11.3,7.3,20.6-0.7C441.3,452.8,441.6,453.1,441.4,453.4z"/>
<path fill="#FFFFFF" stroke="#000000" stroke-miterlimit="10" d="M247.2,734c-40.1,9.8-84.9,1.1-99.8-2.4c0-0.5,0.1-0.9,0.2-1.4
	c0-0.3,0.1-0.6,0.1-0.8c0-0.1,0-0.1,0-0.1c0.1-0.7,0.2-1.5,0.4-2.2c0-0.1,0-0.2,0-0.3c0-0.3,0.1-0.6,0.2-0.9
	c0.1-0.4,0.2-0.7,0.3-1.1c0.1-0.4,0.2-0.7,0.3-1.1c0.1-0.5,0.2-0.9,0.4-1.4c0.2-0.6,0.3-1.1,0.5-1.7c0.2-0.6,0.4-1.1,0.6-1.7
	c0,0,0-0.1,0-0.1c0.1-0.3,0.2-0.6,0.3-0.8s0.2-0.6,0.3-0.8v0c0-0.1,0.1-0.2,0.1-0.3c0.1-0.3,0.3-0.7,0.4-1c0,0,0,0,0-0.1
	c0.2-0.5,0.5-1,0.7-1.6c0.2-0.4,0.4-0.7,0.6-1.1c0.1-0.2,0.2-0.4,0.3-0.6c0.3-0.5,0.6-1.1,0.9-1.6c0.6-1,1.2-2,1.8-2.9
	c0.2-0.2,0.3-0.5,0.5-0.7c0.2-0.3,0.4-0.5,0.6-0.8c0.4-0.6,0.8-1.1,1.3-1.6c0.7-0.8,1.4-1.7,2.1-2.5c0.3-0.4,0.7-0.8,1.1-1.1
	c0.4-0.4,0.7-0.7,1.1-1.1c0.4-0.4,0.7-0.7,1.1-1.1c0.5-0.4,1-0.9,1.4-1.3c0.2-0.1,0.3-0.3,0.5-0.4c0,0,0,0,0.1-0.1
	c0.2-0.2,0.4-0.3,0.6-0.5c1.8-1.5,3.8-2.8,5.9-4c0.3-0.2,0.7-0.4,1.1-0.6c0.4-0.2,0.7-0.4,1.1-0.6c1.6-0.8,3.1-1.5,4.8-2.2
	c0.3-0.1,0.6-0.2,0.9-0.4c0.4-0.1,0.8-0.3,1.2-0.4c5.1-1.7,10.5-2.7,16.2-2.7c0.6,0,1.3,0,1.9,0c0.6,0,1.3,0.1,1.9,0.1
	c0.7,0.1,1.4,0.1,2.1,0.2c0.5,0.1,1,0.1,1.6,0.2c0.2,0,0.5,0.1,0.7,0.1c0.2,0,0.5,0.1,0.7,0.1c0.4,0.1,0.9,0.2,1.3,0.3
	c0.3,0.1,0.5,0.1,0.8,0.2c0.4,0.1,0.8,0.2,1.2,0.3c0.4,0.1,0.8,0.2,1.2,0.3c0.3,0.1,0.7,0.2,1,0.3c0.8,0.2,1.6,0.5,2.4,0.8
	c0.3,0.1,0.6,0.2,0.9,0.3c0.4,0.2,0.9,0.3,1.3,0.5c0.5,0.2,1.1,0.5,1.6,0.7c0.4,0.2,0.7,0.3,1.1,0.5s0.7,0.4,1.1,0.5
	c0.4,0.2,0.7,0.4,1,0.5c0.1,0,0.1,0.1,0.2,0.1c0.7,0.4,1.3,0.8,2,1.1c0.7,0.4,1.4,0.9,2,1.3c0.3,0.2,0.7,0.5,1,0.7
	c0.7,0.5,1.3,1,1.9,1.4c0.3,0.2,0.5,0.4,0.8,0.6c0,0,0.1,0.1,0.1,0.1c0.1,0.1,0.1,0.1,0.2,0.2c0.5,0.5,1.1,0.9,1.6,1.4
	c0,0,0.1,0.1,0.1,0.1c0.5,0.5,1.1,1,1.6,1.6l0,0c0,0,0,0,0,0c0.5,0.5,1,1.1,1.5,1.6l0.1,0.1c0.5,0.5,0.9,1,1.3,1.5
	c0.1,0.1,0.1,0.2,0.2,0.2c0.4,0.5,0.9,1.1,1.3,1.6c0.2,0.3,0.4,0.5,0.6,0.8c0.2,0.3,0.4,0.6,0.6,0.9c0.1,0.2,0.2,0.3,0.3,0.5
	c0.4,0.5,0.7,1.1,1.1,1.6c0.2,0.3,0.4,0.6,0.5,0.9c0.2,0.3,0.4,0.6,0.5,0.9c0.4,0.8,0.9,1.6,1.3,2.4c0,0.1,0.1,0.2,0.2,0.3
	c0.2,0.5,0.4,0.9,0.6,1.4c0,0,0,0.1,0,0.1c0.1,0.2,0.2,0.5,0.3,0.7c0.2,0.4,0.3,0.7,0.5,1.1c0.6,1.5,1.1,3,1.6,4.5
	c0.1,0.4,0.2,0.7,0.3,1.1c0.1,0.4,0.2,0.8,0.3,1.2c0.1,0.4,0.2,0.8,0.3,1.2c0.1,0.4,0.2,0.8,0.3,1.2c0.1,0.4,0.2,0.8,0.2,1.2
	c0.1,0.4,0.2,0.9,0.2,1.3c0.1,0.8,0.2,1.5,0.3,2.3C247.1,732.4,247.1,733.2,247.2,734z"/>
<path fill="#FFFFFF" stroke="#000000" stroke-miterlimit="10" d="M247.2,736.5c0,5-0.7,9.8-2.1,14.3c-52.8,9.1-84.7,0.4-97-4.3
	c-0.6-3.2-1-6.6-1-10c0-1.6,0.1-3.3,0.2-4.9c14.9,3.5,59.7,12.2,99.8,2.4C247.2,734.8,247.2,735.7,247.2,736.5z"/>
<path fill="#FFFFFF" stroke="#000000" stroke-miterlimit="10" d="M245.2,750.8c-5.6,18.9-21.9,33.2-41.9,35.7c-2,0.2-4,0.4-6.1,0.4
	c-1.2,0-2.5,0-3.7-0.1c-22.6-1.6-41-18.4-45.4-40.2C160.5,751.2,192.4,759.9,245.2,750.8z"/>
<path fill="#FFFFFF" stroke="#000000" stroke-miterlimit="10" d="M203.3,786.5v110.9h-9.8V786.7c1.2,0.1,2.4,0.1,3.7,0.1
	C199.3,786.9,201.3,786.7,203.3,786.5z"/>
<path fill="#FFFFFF" stroke="#000000" stroke-miterlimit="10" d="M93.5,732.7v183.1H80V732.5c0.3,0,0.6,0.1,0.9,0.1
	c0.1,0,0.2,0,0.3,0c1.1,0.1,2.2,0.1,3.3,0.2c0.7,0,1.3,0,2,0.1c0.2,0,0.5,0,0.7,0c0.4,0,0.9,0,1.3,0
	C90.2,732.8,91.8,732.8,93.5,732.7z"/>
<path fill="#FFFFFF" stroke="#000000" stroke-miterlimit="10" d="M149.7,715.9c-0.9,0.5-1.8,1-2.6,1.5c-0.6,0.3-1.2,0.7-1.8,1
	c1.9-0.4,3.8-0.8,5.7-1.2v0c0-0.1,0.1-0.2,0.1-0.3c0.1-0.3,0.3-0.7,0.4-1c0,0,0,0,0-0.1c0.2-0.5,0.5-1,0.7-1.6
	C151.4,714.9,150.5,715.4,149.7,715.9z"/>
<path fill="#FFFFFF" stroke="#000000" stroke-miterlimit="10" d="M80,732.5v0.3c-4,0.9-7.9,1.8-11.7,2.6c-1.9,0.4-3.8,0.9-5.7,1.3
	c-0.9,0.2-1.8,0.4-2.7,0.6c-1.8,0.4-3.5,0.8-5.2,1.2c-0.2,0.1-0.4,0.1-0.6,0.1c-2.4,0.5-4.7,1.1-7,1.6c-1.8,0.4-3.6,0.8-5.3,1.2
	c-1.6,0.4-3.2,0.7-4.8,1.1c-1.7,0.4-3.3,0.8-5,1.1c-1.6,0.4-3.1,0.7-4.6,1.1c-1.6,0.4-3.1,0.7-4.6,1.1c-1,0.2-2,0.5-3,0.7
	c-0.5,0.1-1.1,0.3-1.6,0.4c-1.1,0.3-2.1,0.5-3.1,0.7c-0.8,0.2-1.6,0.4-2.5,0.6c-0.5,0.1-0.9,0.2-1.4,0.3c-0.5,0.1-0.9,0.2-1.4,0.3
	c-1.1,0.3-2.2,0.5-3.3,0.8c-1.5,0.4-3,0.7-4.5,1c-0.6,0.1-1.1,0.3-1.7,0.4v-57.2c1.6,1.7,3.2,3.4,4.8,5c0.5,0.5,0.9,0.9,1.4,1.3
	c0.6,0.6,1.3,1.2,2,1.8c1.2,1.1,2.5,2.2,3.7,3.2c0.2,0.2,0.4,0.3,0.6,0.5c0.3,0.2,0.6,0.5,0.8,0.7c0.5,0.5,1.1,0.9,1.6,1.3
	c0.6,0.4,1.1,0.9,1.7,1.3c0.7,0.5,1.4,1,2,1.5c0.6,0.4,1.2,0.8,1.8,1.2c0.4,0.3,0.7,0.5,1,0.7c2.9,2,5.9,3.8,9,5.5
	c0.5,0.3,0.9,0.5,1.4,0.8c0.7,0.4,1.4,0.7,2.1,1.1c0.4,0.2,0.8,0.4,1.2,0.6c0.3,0.2,0.7,0.3,1,0.5c0.5,0.3,1,0.5,1.6,0.8
	c0.3,0.2,0.7,0.3,1,0.5c0.4,0.2,0.7,0.3,1.1,0.5c0.4,0.2,0.9,0.4,1.3,0.6c2.3,1,4.6,1.9,7,2.7c0.8,0.3,1.6,0.6,2.4,0.8
	c0.3,0.1,0.7,0.2,1,0.3c0,0,0.1,0,0.1,0.1c0.7,0.2,1.5,0.5,2.2,0.7c0.7,0.2,1.3,0.4,1.9,0.6c0.4,0.1,0.8,0.2,1.2,0.3
	c0.6,0.2,1.2,0.3,1.8,0.5c0.8,0.2,1.7,0.4,2.5,0.6c0.8,0.2,1.7,0.4,2.5,0.6c0.7,0.2,1.4,0.3,2.1,0.4c0.7,0.2,1.5,0.3,2.2,0.4
	c0,0,0.1,0,0.2,0c0.5,0.1,0.9,0.2,1.4,0.2c0,0,0,0,0,0c0.7,0.1,1.4,0.2,2,0.3c0.1,0,0.2,0,0.3,0c0.7,0.1,1.4,0.2,2.1,0.3
	c0.9,0.1,1.8,0.2,2.6,0.3c0.1,0,0.3,0,0.4,0C78.5,732.4,79.3,732.4,80,732.5z"/>
<path fill="#FFFFFF" stroke="#000000" stroke-miterlimit="10" d="M405.2,431.5c-2.6,4.4-4.2,9.6-4.2,15.1c0,7.4,2.7,14.1,7.2,19.3
	c-9.4,5.5-32.6,20.7-26.7,33.5c4.6,10.1,15.1,3,22.2-3.6c0.4,3.4,1.4,6.6,2.9,9.5c-4.2,8.9-14,32.3-3.2,38.3
	c12.2,6.7,24.3-0.8,25.6-22.3c1.2,0.2,2.4,0.2,3.7,0.2c2.5,0,5-0.3,7.3-0.9c0.4,5.8,1.8,13.1,5.4,18.5c-28.4,28.9-50.5,59.6-65.1,82
	c-3-5.3-8.4-8.5-11.1-6.3c-0.8,0.6-1.6,1.1-2.3,1.5c-8.7-25.7-23.3-21.2-23.3-21.2s17.1,8.1,20.2,22.4c-0.9,0.2-1.7,0.3-2.4,0.3
	c-2.2,0-4.3,1.1-5.2,3.1c-0.4,0.8-0.7,1.5-0.9,2.2c-0.5,0.1-0.7,0.2-0.7,0.2c-44.4,12.5-61.7,35.9-66.6,59.2
	c-0.2,0.9-0.4,1.9-0.5,2.8c-0.1,0.5-0.2,1.1-0.3,1.6c-0.1,0.7-0.2,1.4-0.3,2.1c0,0,0,0.1,0,0.1v0.1c-0.1,0.7-0.2,1.4-0.2,2.2
	c-16.5,2.5-34.9,5.7-54.2,9.3l0,0c-0.5-0.5-1.1-1.1-1.6-1.6c0,0-0.1-0.1-0.1-0.1c-0.5-0.5-1.1-1-1.6-1.4c-0.1-0.1-0.2-0.1-0.2-0.2
	c0,0-0.1-0.1-0.1-0.1c-0.3-0.2-0.5-0.4-0.8-0.6c-0.6-0.5-1.3-1-1.9-1.4c-0.3-0.2-0.7-0.5-1-0.7c-0.7-0.5-1.3-0.9-2-1.3
	c-0.6-0.4-1.3-0.8-2-1.1c0,0-0.1-0.1-0.2-0.1c-0.3-0.2-0.7-0.4-1-0.5c-0.3-0.2-0.7-0.4-1.1-0.5s-0.7-0.3-1.1-0.5
	c-0.5-0.2-1.1-0.5-1.6-0.7c-0.4-0.2-0.9-0.3-1.3-0.5c-0.3-0.1-0.6-0.2-0.9-0.3c-0.8-0.3-1.6-0.5-2.4-0.8c-0.3-0.1-0.7-0.2-1.1-0.3
	c-0.4-0.1-0.8-0.2-1.2-0.3c-0.4-0.1-0.8-0.2-1.2-0.3c-0.3-0.1-0.5-0.1-0.8-0.2c-0.4-0.1-0.9-0.2-1.3-0.3c-0.2-0.1-0.5-0.1-0.7-0.1
	c-0.2,0-0.5-0.1-0.7-0.1c-0.5-0.1-1-0.2-1.6-0.2c-0.7-0.1-1.4-0.1-2.1-0.2c-0.6,0-1.2-0.1-1.9-0.1c-0.6,0-1.2,0-1.9,0
	c-5.7,0-11.1,0.9-16.2,2.7c1.5-1.8,3-3.7,4.4-5.7c0.5-0.6,0.9-1.3,1.4-1.9c0.4-0.6,0.8-1.1,1.1-1.7c0.1-0.1,0.2-0.3,0.3-0.4
	c0.4-0.6,0.8-1.3,1.2-1.9c0.2-0.3,0.4-0.6,0.6-0.9c0.8-1.2,1.5-2.5,2.2-3.7c0.2-0.3,0.4-0.6,0.5-0.9c0.2-0.3,0.4-0.6,0.5-1
	c0.2-0.4,0.4-0.7,0.6-1.1c1-1.8,1.9-3.6,2.8-5.5c0.2-0.5,0.4-0.9,0.6-1.4c0.3-0.6,0.6-1.2,0.8-1.9c0.3-0.7,0.6-1.4,0.9-2.2
	c0.1-0.1,0.1-0.2,0.1-0.4c0.3-0.6,0.5-1.2,0.8-1.9c0.3-0.8,0.6-1.6,0.9-2.3c0.1-0.3,0.3-0.7,0.4-1c0.2-0.5,0.4-1.1,0.6-1.6
	c0.5-1.5,1-3.1,1.5-4.6c0.1-0.3,0.2-0.6,0.3-0.9c0.2-0.7,0.4-1.4,0.6-2.1c0.2-0.8,0.4-1.7,0.6-2.5c0.2-0.7,0.3-1.4,0.5-2.1
	c0.1-0.2,0.1-0.5,0.2-0.7c0.4-1.6,0.7-3.3,1-4.9c0.1-0.8,0.3-1.7,0.4-2.5c0.1-0.6,0.2-1.2,0.3-1.9c0.1-0.5,0.1-1,0.2-1.4
	c0.1-0.4,0.1-0.9,0.2-1.3c0.1-0.4,0.1-0.8,0.1-1.3c0.1-0.8,0.2-1.7,0.2-2.5c0.1-0.7,0.1-1.4,0.2-2.1c0-0.7,0.1-1.3,0.1-2
	c0-0.1,0-0.3,0-0.4c0-0.3,0-0.7,0-1c0-0.7,0.1-1.4,0.1-2.1c0-0.9,0-1.7,0-2.6c0-19.4-4.6-37.8-12.7-54h68.9c0,0,0.9-0.1,2.3-0.2
	c5.3-0.3,18-0.2,20.9,7.6c0,0,17.1-18.4,36.6-3.7c0,0,10.2-11.9,23.2-14.1c6.1-1.1,12.9,0.1,19.5,5.6l-0.1-9.1l-0.2-13.8l-0.2-10.7
	l-0.2-12.2l-0.1-10.4l-0.2-15.8l-0.2-10.5l-0.2-14.8l-0.1-11l-0.2-11.1l-0.2-11.7l-0.2-14.1l-0.3-21.1c3.4-1.1,6.2-2.9,8.3-5.8
	c25.9,6.4,52.8,14.6,80.9,25.2c-6,0.1-10.2,7.9-12.2,12.8c-3.4-1.4-7.2-2.2-11.2-2.2c-4.6,0-8.9,1.1-12.8,2.9
	c-1.6-5-6.7-17.5-16.5-11.6C390.8,414.8,396,427.1,405.2,431.5z"/>
<path fill="#FFFFFF" stroke="#000000" stroke-miterlimit="10" d="M570.6,460.9c-38.4,9.6-72.9,31.2-102.3,56.8
	c-2.3-7.5-5.3-14.5-7.1-18.5c0.6-2.3,0.9-4.6,0.9-7.1c0-1.4-0.1-2.7-0.3-4c7.6-2.9,14.6-11.6,21-18.1c9.8-9.8-6.1-20.9-12.2-14.7
	c-3.5,3.6-11.6,7.6-17.8,10.3c4.2-5.1,6.8-11.7,6.8-18.9c0-6-1.8-11.7-4.9-16.3c7.8-2.5,11.5-15.9,4.8-21.5
	c5.8,2.2,11.6,4.5,17.4,6.9C507,428.1,538.3,443.1,570.6,460.9z"/>
<path fill="#FFFFFF" stroke="#000000" stroke-miterlimit="10" d="M976.4,892.3c-4.9,6.1-31.7,11-17.1-14.7
	C959.3,877.5,981.3,886.1,976.4,892.3z"/>
<path fill="#FFFFFF" stroke="#000000" stroke-miterlimit="10" d="M1000.1,871.6c-1-0.9-1.9-1.8-2.9-2.6c-1.1-1-2.2-2-3.3-3
	c-3.4-3-6.8-6-10.3-8.9c-1.2-1-2.3-2-3.5-2.9c-1.2-1-2.4-2-3.5-3c-2.5-2.1-5.1-4.2-7.6-6.3c-1.1-0.9-2.1-1.7-3.2-2.6
	c-2.4-2-4.9-3.9-7.4-5.9c-1.1-0.9-2.3-1.8-3.4-2.6c-4.2-3.3-8.4-6.5-12.8-9.7c-1-0.7-1.9-1.5-2.9-2.2c-1.3-1-2.6-1.9-3.9-2.9
	c-2.6-1.9-5.2-3.8-7.9-5.8c-1.1-0.8-2.2-1.6-3.4-2.4c-1.5-1.1-3.1-2.2-4.6-3.3c-1.3-1-2.7-1.9-4-2.9c-1.3-0.9-2.7-1.9-4-2.8
	c-4.1-2.8-8.2-5.7-12.3-8.5c-1.4-0.9-2.8-1.9-4.1-2.8c-5.5-3.7-11.1-7.5-16.7-11.1c-2.7-1.8-5.4-3.6-8.2-5.3
	c-4.3-2.8-8.7-5.6-13.1-8.4c-1.2-0.8-2.5-1.6-3.7-2.4c-0.9-0.6-1.9-1.2-2.8-1.7c-1.4-0.9-2.9-1.8-4.3-2.7c-0.7-0.4-1.4-0.9-2.1-1.3
	c-2.8-1.8-5.6-3.5-8.5-5.2c-2.9-1.8-5.9-3.6-8.9-5.4c-1.2-0.7-2.4-1.4-3.6-2.2c-1.7-1-3.4-2-5.1-3.1c-1.4-0.9-2.9-1.7-4.4-2.6
	c-4.5-2.7-9.1-5.4-13.6-8c-2.8-1.6-5.5-3.2-8.3-4.8c-16-9.2-32-18.2-47.8-26.8c-1.4-0.8-2.9-1.6-4.3-2.3c-10-5.4-20-10.7-29.8-15.9
	c-1.4-0.7-2.8-1.5-4.2-2.2c-4.2-2.2-8.3-4.4-12.5-6.5c-1.4-0.7-2.8-1.4-4.1-2.1c-10.1-5.2-20-10.2-29.6-15c-1.4-0.7-2.7-1.4-4.1-2
	c-4.7-2.3-9.3-4.6-13.9-6.9c-2.1-1-4.1-2-6.1-3c-3-1.5-5.9-2.9-8.8-4.3c-1.2-0.6-2.4-1.2-3.7-1.8c-4.9-2.4-9.7-4.6-14.3-6.9
	c-1.7-0.8-3.3-1.6-5-2.4c-1.6-0.8-3.3-1.5-4.9-2.3c-1.9-0.9-3.8-1.8-5.8-2.7c-1.1-0.5-2.2-1-3.3-1.6c-2-0.9-4-1.9-6-2.8
	c-1.1-0.5-2.3-1.1-3.4-1.6c-1.5-0.7-3-1.4-4.5-2.1c-0.9-0.4-1.9-0.9-2.8-1.3c-1.1-0.5-2.3-1.1-3.4-1.6c-0.9-0.4-1.8-0.8-2.7-1.3
	c-4.1-1.9-8.1-3.7-11.9-5.4c-1-0.5-2.1-0.9-3.1-1.4c-0.5-0.2-1.1-0.5-1.6-0.7c-0.9-0.4-1.7-0.8-2.6-1.2c-0.1,0-0.2-0.1-0.3-0.1
	c-0.8-0.4-1.5-0.7-2.3-1c-2.6-1.2-5.1-2.3-7.6-3.4c-0.9-0.4-1.7-0.8-2.6-1.1c-4.3-1.9-8.3-3.7-12-5.3
	c-33.9,17.3-63.5,36.3-90.7,52.6c0.6,0.6,1.2,1.1,1.7,1.7c0,0,0,0,0,0.1c0.4,0.4,0.8,0.8,1.1,1.2c0.4,0.4,0.7,0.8,1.1,1.2
	c0.2,0.2,0.4,0.4,0.6,0.7c0.4,0.4,0.8,0.9,1.1,1.3c0.5,0.6,1,1.2,1.5,1.9c0.4,0.5,0.8,1,1.2,1.6c0.5,0.7,1,1.4,1.5,2.1
	c0.4,0.6,0.8,1.2,1.2,1.8c0.4,0.6,0.8,1.2,1.1,1.7c0.4,0.7,0.8,1.4,1.2,2.1c0.4,0.6,0.7,1.3,1.1,1.9c0,0.1,0.1,0.1,0.1,0.2
	c0,0.1,0.1,0.1,0.1,0.2c0.3,0.6,0.6,1.2,0.9,1.8c0.1,0.2,0.2,0.4,0.3,0.7c0.3,0.5,0.5,1,0.8,1.6c0.1,0.3,0.3,0.6,0.4,0.9
	c0,0,0,0,0,0c0.2,0.4,0.4,0.8,0.6,1.3c0,0,0,0.1,0,0.1c0,0.1,0.1,0.1,0.1,0.2c0.2,0.5,0.4,1,0.6,1.4c0.2,0.5,0.4,0.9,0.6,1.4
	c0,0,0,0,0,0.1c0.3,0.6,0.5,1.2,0.8,1.9c0.5,1.3,1,2.6,1.4,3.9c0,0,7.4,23,3.8,43c44.2,36.8,184.8,159.4,245,276.7h298.2V872
	C1000.4,871.9,1000.2,871.8,1000.1,871.6z M487.4,672.9c-4.9,6.1-31.7,11-17.1-14.7C470.3,658.2,492.3,666.8,487.4,672.9z
	 M540.4,711.1c-4.9,6.1-31.7,11-17.1-14.7C523.3,696.4,545.3,705,540.4,711.1z M597.4,785.6c-4.9,6.1-31.7,11-17.1-14.7
	C580.3,770.9,602.3,779.5,597.4,785.6z M610.4,662.9c-4.9,6.1-31.7,11-17.1-14.7C593.3,648.1,615.3,656.7,610.4,662.9z M667.4,729.3
	c-4.9,6.1-31.7,11-17.1-14.7C650.3,714.5,672.3,723.1,667.4,729.3z M693.4,818.8c-4.9,6.1-31.7,11-17.1-14.7
	C676.3,804.1,698.3,812.7,693.4,818.8z M773.4,776.5c-4.9,6.1-31.7,11-17.1-14.7C756.3,761.8,778.3,770.4,773.4,776.5z M821.4,984.8
	c-4.9,6.1-31.7,11-17.1-14.7C804.3,970.1,826.3,978.7,821.4,984.8z M821.4,885.2c-4.9,6.1-31.7,11-17.1-14.7
	C804.3,870.5,826.3,879.1,821.4,885.2z M976.4,892.3c-4.9,6.1-31.7,11-17.1-14.7C959.3,877.5,981.3,886.1,976.4,892.3z"/>
<path fill="#FFFFFF" stroke="#000000" stroke-miterlimit="10" d="M487.4,672.9c-4.9,6.1-31.7,11-17.1-14.7
	C470.3,658.2,492.3,666.8,487.4,672.9z"/>
<path fill="#FFFFFF" stroke="#000000" stroke-miterlimit="10" d="M540.4,711.1c-4.9,6.1-31.7,11-17.1-14.7
	C523.3,696.4,545.3,705,540.4,711.1z"/>
<path fill="#FFFFFF" stroke="#000000" stroke-miterlimit="10" d="M610.4,662.9c-4.9,6.1-31.7,11-17.1-14.7
	C593.3,648.1,615.3,656.7,610.4,662.9z"/>
<path fill="#FFFFFF" stroke="#000000" stroke-miterlimit="10" d="M597.4,785.6c-4.9,6.1-31.7,11-17.1-14.7
	C580.3,770.9,602.3,779.5,597.4,785.6z"/>
<path fill="#FFFFFF" stroke="#000000" stroke-miterlimit="10" d="M693.4,818.8c-4.9,6.1-31.7,11-17.1-14.7
	C676.3,804.1,698.3,812.7,693.4,818.8z"/>
<path fill="#FFFFFF" stroke="#000000" stroke-miterlimit="10" d="M667.4,729.3c-4.9,6.1-31.7,11-17.1-14.7
	C650.3,714.5,672.3,723.1,667.4,729.3z"/>
<path fill="#FFFFFF" stroke="#000000" stroke-miterlimit="10" d="M773.4,776.5c-4.9,6.1-31.7,11-17.1-14.7
	C756.3,761.8,778.3,770.4,773.4,776.5z"/>
<path fill="#FFFFFF" stroke="#000000" stroke-miterlimit="10" d="M821.4,984.8c-4.9,6.1-31.7,11-17.1-14.7
	C804.3,970.1,826.3,978.7,821.4,984.8z"/>
<path fill="#FFFFFF" stroke="#000000" stroke-miterlimit="10" d="M821.4,885.2c-4.9,6.1-31.7,11-17.1-14.7
	C804.3,870.5,826.3,879.1,821.4,885.2z"/>
<path fill="#FFFFFF" stroke="#000000" stroke-miterlimit="10" d="M702.3,998.5H0.5V751.1c0.5-0.1,1.1-0.3,1.7-0.4
	c1.4-0.3,2.9-0.7,4.5-1c1.1-0.3,2.2-0.5,3.3-0.8c0.5-0.1,0.9-0.2,1.4-0.3c0.5-0.1,0.9-0.2,1.4-0.3c0.8-0.2,1.6-0.4,2.5-0.6
	c1-0.2,2.1-0.5,3.1-0.7c0.5-0.1,1.1-0.3,1.6-0.4c1-0.2,2-0.5,3-0.7c1.5-0.4,3-0.7,4.6-1.1c1.5-0.4,3.1-0.7,4.6-1.1
	c1.6-0.4,3.3-0.8,5-1.1c1.6-0.4,3.2-0.7,4.8-1.1c1.8-0.4,3.5-0.8,5.3-1.2c2.3-0.5,4.6-1.1,7-1.6c0.2,0,0.4-0.1,0.6-0.1
	c1.7-0.4,3.5-0.8,5.2-1.2c0.9-0.2,1.8-0.4,2.7-0.6c1.9-0.4,3.8-0.8,5.7-1.3c3.8-0.9,7.7-1.7,11.7-2.6v183h13.4V732.7
	c1.2,0,2.4-0.1,3.7-0.2c0.9-0.1,1.7-0.1,2.6-0.2c0.4,0,0.8-0.1,1.2-0.1c0,0,0.1,0,0.1,0c0.9-0.1,1.7-0.2,2.6-0.3
	c1.1-0.1,2.1-0.3,3.2-0.4c1-0.2,2.1-0.3,3.2-0.5c1-0.2,2-0.4,3-0.6c0,0,0.1,0,0.2,0c0.6-0.1,1.1-0.3,1.7-0.4
	c0.5-0.1,0.9-0.2,1.3-0.3c0.5-0.1,1-0.2,1.5-0.4c0.5-0.1,1-0.3,1.5-0.4c1-0.3,2-0.6,3.1-0.9c1-0.3,2-0.6,3-0.9c2-0.6,4-1.3,5.9-2.1
	c0.1,0,0.1-0.1,0.2-0.1c0.9-0.4,1.9-0.7,2.8-1.1c0.9-0.4,1.8-0.8,2.8-1.2c0.9-0.4,1.8-0.8,2.8-1.3c0,0,0,0,0.1,0
	c0.9-0.4,1.8-0.9,2.8-1.4c0.9-0.5,1.8-0.9,2.7-1.4c0,0,0,0,0,0c1.9-0.4,3.8-0.8,5.7-1.2v0c-0.1,0.3-0.2,0.6-0.3,0.8
	c-0.1,0.3-0.2,0.6-0.3,0.8c0,0,0,0.1,0,0.1c-0.2,0.5-0.4,1.1-0.6,1.7c-0.2,0.6-0.4,1.1-0.5,1.7c-0.1,0.5-0.3,0.9-0.4,1.4
	c-0.1,0.4-0.2,0.7-0.3,1.1c-0.1,0.4-0.2,0.7-0.3,1.1c-0.1,0.3-0.1,0.6-0.2,0.9c0,0.1,0,0.2,0,0.3c-0.2,0.7-0.3,1.5-0.4,2.2
	c0,0.1,0,0.1,0,0.1c0,0.3-0.1,0.5-0.1,0.8c-0.1,0.5-0.1,0.9-0.2,1.4c-0.2,1.6-0.2,3.2-0.2,4.9c0,3.4,0.3,6.8,1,10
	c4.4,21.9,22.8,38.6,45.4,40.2v110.7h9.8V786.5c20-2.4,36.3-16.7,41.9-35.7c1.3-4.5,2.1-9.3,2.1-14.3c0-0.8,0-1.7-0.1-2.5
	c0-0.8-0.1-1.7-0.2-2.5c-0.1-0.8-0.2-1.5-0.3-2.3c-0.1-0.5-0.1-0.9-0.2-1.3c-0.1-0.4-0.1-0.8-0.2-1.2c-0.1-0.4-0.2-0.8-0.3-1.2
	c-0.1-0.4-0.2-0.8-0.3-1.2c-0.1-0.4-0.2-0.8-0.3-1.2c-0.1-0.4-0.2-0.7-0.3-1.1c-0.5-1.5-1-3-1.6-4.5c-0.1-0.4-0.3-0.7-0.5-1.1
	c-0.1-0.2-0.2-0.5-0.3-0.7c0,0,0-0.1,0-0.1c-0.2-0.5-0.4-0.9-0.6-1.4c0-0.1-0.1-0.2-0.2-0.3c-0.4-0.8-0.8-1.6-1.3-2.4
	c-0.2-0.3-0.3-0.6-0.5-0.9c-0.2-0.3-0.3-0.6-0.5-0.9c-0.3-0.6-0.7-1.1-1.1-1.6c-0.1-0.2-0.2-0.3-0.3-0.5c-0.2-0.3-0.4-0.6-0.6-0.9
	c-0.2-0.3-0.4-0.5-0.6-0.8c-0.4-0.6-0.8-1.1-1.3-1.6c-0.1-0.1-0.1-0.2-0.2-0.2c-0.4-0.5-0.9-1-1.3-1.5l-0.1-0.1
	c-0.5-0.6-1-1.1-1.5-1.6c0,0,0,0,0,0c19.3-3.6,37.7-6.8,54.2-9.3c0,0.5-0.1,1-0.1,1.6c0,0.6-0.1,1.1-0.1,1.7c0,0.4,0,0.8,0,1.2v0.2
	c0,1.5,0,2.9,0,4.3c0,0,0,0.1,0,0.1c0.1,2.9,0.3,5.8,0.6,8.5c0.1,1.1,0.3,2.2,0.4,3.3c0,0,0,0,0,0c0.1,0.8,0.2,1.6,0.4,2.3
	c0,0,0,0,0,0c0.1,0.8,0.3,1.6,0.4,2.3c0.6,3.2,1.4,6.2,2.2,9.1c0.2,0.8,0.5,1.7,0.7,2.5c0.8,2.8,1.8,5.5,2.6,7.9
	c0.2,0.5,0.4,0.9,0.5,1.4c0.1,0.3,0.2,0.5,0.3,0.8c0.2,0.4,0.3,0.9,0.5,1.3c0.3,0.8,0.6,1.6,1,2.3c0.2,0.4,0.4,0.8,0.5,1.2
	c0.2,0.4,0.4,0.8,0.5,1.2c0.1,0.3,0.3,0.6,0.4,0.9c1.3,2.7,2.1,4.3,2.1,4.3c-12.7,6.4-5.9,13.4-1.5,16.7c-0.3,0.2-0.6,0.3-0.9,0.5
	l3.9,13.2c-4.4,2-13.9,7.7-14.9,20c0,0-4.9,1.2-4.9,8.6c0,0,1.2,2.5,2.4-1.2c1.2-3.7,1.2,4.9,1.2,4.9s2.4,3.7,3.7-3.7
	c0,0,4.9,6.1,4.9,1.2c0,0,1.2-6.1-3.7-8.6c0,0,1.9-13.5,12.6-16.6l14.3,48.5c0,0,2.2,13,14.6,15.6c0.8,0.2,1.6,0.3,2.5,0.4
	c2.8,0.2,8,0.8,14.7,1.3c3.3,0.3,7,0.6,11,0.8v10.1c0,0-12.2-2.5-12.2,4.9s18.3,6.1,18.3,2.5V852c4.6,0.2,9.4,0.4,14.3,0.5
	c6.2,0.1,12.5,0.1,18.6-0.3v18.1c0,0,20.8,4.9,19.5-3.7c-1.2-8.6-13.4-3.7-13.4-3.7v-11.2c3.6-0.3,7.1-0.7,10.5-1.2
	c6.4-1,12.1-2.5,16.8-4.6c4.9-2.2,8.6-5.1,10.6-8.8c7.8-14.9,10.1-45.5,10.8-65.5c9.5-4.3,19.7-18.1,19.7-21.7
	c0-3.7,6.1-7.4,6.1-7.4c2.5-2.5-3.7-2.5-3.7-2.5c1.2-2.5-1.2-3.7-1.2-3.7c-3.7-1.2-3.7,1.2-3.7,1.2c0-1.2-1.2-1.2-1.2-1.2
	c-3.7,0-3.7,6.1-3.7,6.1c-4.9,3.7,1.2,6.1,1.2,6.1c0,6.9-8.5,13.2-13.5,16.4c0.1-5.4,0.1-9.5,0.1-11.4c5.4-10.1-2.5-16-2.5-16
	c3.3-4.7,5.2-10.2,6.2-15.9C501.5,758.6,642,881.2,702.3,998.5z"/>
<path fill="#FFFFFF" stroke="#000000" stroke-miterlimit="10" d="M1000.5,536.1V872c-0.1-0.1-0.3-0.2-0.4-0.4
	c-1-0.9-1.9-1.8-2.9-2.6c-1.1-1-2.2-2-3.3-3c-3.4-3-6.8-6-10.3-8.9c-1.2-1-2.3-2-3.5-2.9c-1.2-1-2.4-2-3.5-3
	c-2.5-2.1-5.1-4.2-7.6-6.3c-1.1-0.9-2.1-1.7-3.2-2.6c-2.4-2-4.9-3.9-7.4-5.9c-1.1-0.9-2.3-1.8-3.4-2.6c-4.2-3.3-8.4-6.5-12.8-9.7
	c-1-0.7-1.9-1.5-2.9-2.2c-1.3-1-2.6-1.9-3.9-2.9c-2.6-1.9-5.2-3.8-7.9-5.8c-1.1-0.8-2.2-1.6-3.4-2.4c-1.5-1.1-3.1-2.2-4.6-3.3
	c-1.3-1-2.7-1.9-4-2.9c-1.3-0.9-2.7-1.9-4-2.8c-4.1-2.8-8.2-5.7-12.3-8.5c-1.4-0.9-2.8-1.9-4.1-2.8c-5.5-3.7-11.1-7.5-16.7-11.1
	c-2.7-1.8-5.4-3.6-8.2-5.3c-4.3-2.8-8.7-5.6-13.1-8.4c-1.2-0.8-2.5-1.6-3.7-2.4c-0.9-0.6-1.9-1.2-2.8-1.7c-1.4-0.9-2.9-1.8-4.3-2.7
	c-0.7-0.4-1.4-0.9-2.1-1.3c-2.8-1.8-5.6-3.5-8.5-5.2c-2.9-1.8-5.9-3.6-8.9-5.4c-1.2-0.7-2.4-1.4-3.6-2.2c-1.7-1-3.4-2-5.1-3.1
	c-1.4-0.9-2.9-1.7-4.4-2.6c-4.5-2.7-9.1-5.4-13.6-8c-2.8-1.6-5.5-3.2-8.3-4.8c-16-9.2-32-18.2-47.8-26.8c-1.4-0.8-2.9-1.6-4.3-2.3
	c-10-5.4-20-10.7-29.8-15.9c-1.4-0.7-2.8-1.5-4.2-2.2c-4.2-2.2-8.3-4.4-12.5-6.5c-1.4-0.7-2.8-1.4-4.1-2.1
	c-10.1-5.2-20-10.2-29.6-15c-1.4-0.7-2.7-1.4-4.1-2c-4.7-2.3-9.3-4.6-13.9-6.9c-2.1-1-4.1-2-6.1-3c-3-1.5-5.9-2.9-8.8-4.3
	c-1.2-0.6-2.4-1.2-3.7-1.8c-4.9-2.4-9.7-4.6-14.3-6.9c-1.7-0.8-3.3-1.6-5-2.4c-1.6-0.8-3.3-1.5-4.9-2.3c-1.9-0.9-3.8-1.8-5.8-2.7
	c-1.1-0.5-2.2-1-3.3-1.6c-2-0.9-4-1.9-6-2.8c-1.1-0.5-2.3-1.1-3.4-1.6c-1.5-0.7-3-1.4-4.5-2.1c-0.9-0.4-1.9-0.9-2.8-1.3
	c-1.1-0.5-2.3-1.1-3.4-1.6c-0.9-0.4-1.8-0.8-2.7-1.3c-4.1-1.9-8.1-3.7-11.9-5.4c-1-0.5-2.1-0.9-3.1-1.4c-0.5-0.2-1.1-0.5-1.6-0.7
	c-0.9-0.4-1.7-0.8-2.6-1.2c-0.1,0-0.2-0.1-0.3-0.1c-0.8-0.4-1.5-0.7-2.3-1c-2.6-1.2-5.1-2.3-7.6-3.4c-0.9-0.4-1.7-0.8-2.6-1.1
	c-4.3-1.9-8.3-3.7-12-5.3c44.6-22.8,96.8-42.7,161-50.3c0,0.7,0,1.3,0,2c0,0.1,0,0.2,0,0.3c0,1,0.1,2,0.1,3c0,0.7,0.1,1.4,0.1,2.2
	c0,0,2.4,47.9,20.8,66.3c0,0-36.6,22.1-15.9,30.7c20.8,8.6,45.2,0,45.2,0s3.7,44.2,62.3,11.1c0,0,28.1,39.3,68.4,2.5
	c0,0,32.9,34.4,50-7.4c0,0,27.6,9.6,26.5-11.8c-0.4-6.8-3.5-13.3-9-17.4c-1.7-1.3-3.5-2.3-5.3-2.7c0,0,9.7-25.2,15-51.3
	c3.8,0.9,8.6,0.6,13-4l4.3-26.1l0.1-0.8l1.4-8.5c6,0.7,11.9,1.4,17.8,2.4c1.9,0.3,3.8,0.7,5.7,1c0.9,0.2,1.7,0.3,2.6,0.5
	c1,0.2,1.9,0.4,2.8,0.6c0.9,0.2,1.8,0.4,2.6,0.6c0.9,0.2,1.8,0.4,2.7,0.6C996.9,535.3,998.7,535.7,1000.5,536.1z"/>
<path fill="#FFFFFF" stroke="#000000" stroke-miterlimit="10" d="M1000.5,302.4v233.8c-1.8-0.5-3.6-0.9-5.4-1.3
	c-0.9-0.2-1.8-0.4-2.7-0.6c-0.9-0.2-1.7-0.4-2.6-0.6c-0.9-0.2-1.9-0.4-2.8-0.6c-0.9-0.2-1.7-0.3-2.6-0.5c-1.9-0.4-3.8-0.7-5.7-1
	c-5.8-1-11.7-1.8-17.8-2.4l4.7-28.7l6.7-40.9l6.1-37.2l6.2-37.9l5.2-31.8l4.9-29.8l3.5-21.2l0-0.2c0.1,0,0.2,0.1,0.3,0.1
	C999.1,301.9,999.8,302.1,1000.5,302.4z"/>
<path fill="#FFFFFF" stroke="#000000" stroke-miterlimit="10" d="M918.7,283.5c-2.2,1.7-4.4,3.5-6.6,5.2
	c-11.8,9.3-23.8,18.9-35.8,28.6c-10.9,8.8-21.7,17.6-32.1,26.2c-65.1,28.6-141.2,76.7-207.3,157.4c-22.6-14.7-44.7-28-66.3-39.9
	c-32.3-17.9-63.6-32.8-93.7-45.2c13.2-8.9,34.5-22.6,62.1-38c7.4,9.4,15.6,17.3,24.2,23.9c-20.8-2.6-35.3,8.2-35.3,8.2
	c42.7-11,59.8,16,59.8,16c19.5-13.5,43.9,11.1,43.9,11.1c14.6-20.9,31.7-3.7,31.7-3.7c11-20.9,36.6-11,36.6-11
	c13.4-20.9,42.7-23.3,42.7-23.3c-2.9-1.5-5.6-2.5-8.3-3c24.5-18.5,41.2-48.6,40-95.2c-0.1-3.8-0.3-7.5-0.5-11.1
	c15-2.8,30.3-5,45.7-6.6V330h9.8v-48C858.8,279.7,888.8,279.9,918.7,283.5z"/>
<path fill="#FFFFFF" stroke="#000000" stroke-miterlimit="10" d="M844.2,343.4c-3.8,3.1-7.5,6.2-11.1,9.2
	c-15.6,12.9-30,24.9-41.9,34.9c-0.4,0.3-0.8,0.6-1.2,1c-0.8,0.6-1.5,1.3-2.3,1.9c-2.3,1.9-4.4,3.7-6.4,5.4c-0.9,0.7-1.8,1.5-2.6,2.2
	c-5.3,4.5-9.8,8.3-13.3,11.2c-0.2,0.2-0.4,0.4-0.6,0.5c-0.6,0.5-1.2,1-1.7,1.5c-2.9,2.5-4.8,4.1-5.4,4.6c-0.1,0.1-0.1,0.1-0.2,0.2
	c0,0-0.1,0.1-0.1,0.1s-69.8,31.8-73.3,117.3c-15.9-11.5-31.7-22.3-47.2-32.4C703.1,420.2,779.1,372.1,844.2,343.4z"/>
<path fill="#FFFFFF" stroke="#000000" stroke-miterlimit="10" d="M439.4,599.5c-4.9,6.1-31.7,11-17.1-14.7
	C422.3,584.7,444.3,593.3,439.4,599.5z"/>
<path fill="#FFFFFF" stroke="#000000" stroke-miterlimit="10" d="M636.9,500.9c-22.6-14.7-44.7-28-66.3-39.9
	c-38.4,9.5-72.9,31.2-102.3,56.8c4.3,14,6,29.7-7.4,29.7c-7.4,0-12.3-3.4-15.4-8.2c-28.4,28.9-50.5,59.6-65.1,82
	c0.2,0.4,0.4,0.7,0.6,1.1c0.7,0.1,1.3,0.1,2,0.2c0.4,0,0.9,0.1,1.3,0.1c0.8,0.1,1.6,0.2,2.4,0.3c0.6,0.1,1.2,0.2,1.9,0.3
	c0.5,0.1,1,0.2,1.5,0.2c0.1,0,0.3,0,0.4,0.1c0.4,0.1,0.9,0.2,1.3,0.2c0.8,0.2,1.6,0.3,2.4,0.5c0.8,0.2,1.6,0.4,2.4,0.6
	c0.5,0.1,1.1,0.3,1.6,0.4c0.5,0.1,1,0.3,1.5,0.4c0.1,0,0.1,0,0.2,0.1c0.6,0.2,1.1,0.3,1.7,0.5c0.6,0.2,1.1,0.4,1.7,0.5
	c0.6,0.2,1.2,0.4,1.7,0.6c0.5,0.2,1.1,0.4,1.6,0.6c0.5,0.2,1,0.4,1.5,0.6c0.2,0.1,0.4,0.2,0.7,0.3c0.4,0.2,0.8,0.3,1.2,0.5
	c0.6,0.2,1.1,0.5,1.7,0.7c0.6,0.3,1.1,0.5,1.7,0.8c0.3,0.1,0.5,0.3,0.8,0.4c0.1,0.1,0.2,0.1,0.3,0.1c0.1,0.1,0.2,0.1,0.3,0.2
	c0.3,0.1,0.6,0.3,0.8,0.4c0.4,0.2,0.7,0.4,1.1,0.6c0.4,0.2,0.8,0.5,1.3,0.7c0.6,0.3,1.1,0.7,1.7,1c0.4,0.2,0.7,0.5,1.1,0.7
	c1.2,0.8,2.4,1.6,3.7,2.5c0.4,0.3,0.8,0.6,1.2,0.9c0.4,0.3,0.8,0.6,1.2,0.9c1,0.8,2,1.6,3,2.5c0.4,0.3,0.8,0.7,1.2,1.1
	c0.5,0.5,1,0.9,1.5,1.4c27.2-16.4,56.8-35.3,90.7-52.6c44.6-22.8,96.8-42.7,161-50.3c0-2.7,0-5.3,0.2-7.9
	C668.2,521.8,652.4,511,636.9,500.9z M439.4,599.5c-4.9,6.1-31.7,11-17.1-14.7C422.3,584.7,444.3,593.3,439.4,599.5z M495.3,508.3
	c0,0,22,8.6,17.1,14.7C507.5,529.1,480.7,534,495.3,508.3z M522.4,567.3c-4.9,6.1-31.7,11-17.1-14.7
	C505.3,552.5,527.3,561.1,522.4,567.3z M601.4,512.9c-4.9,6.1-31.7,11-17.1-14.7C584.3,498.2,606.3,506.8,601.4,512.9z"/>
<path fill="#FFFFFF" stroke="#000000" stroke-miterlimit="10" d="M601.4,512.9c-4.9,6.1-31.7,11-17.1-14.7
	C584.3,498.2,606.3,506.8,601.4,512.9z"/>
<path fill="#FFFFFF" stroke="#000000" stroke-miterlimit="10" d="M522.4,567.3c-4.9,6.1-31.7,11-17.1-14.7
	C505.3,552.5,527.3,561.1,522.4,567.3z"/>
<path fill="#FFFFFF" stroke="#000000" stroke-miterlimit="10" d="M512.4,523c-4.9,6.1-31.7,11-17.1-14.7
	C495.3,508.3,517.3,516.8,512.4,523z"/>
<path fill="#FFFFFF" stroke="#000000" stroke-miterlimit="10" d="M160.3,702.5c-0.7,0.8-1.4,1.6-2.1,2.5c-0.4,0.5-0.8,1.1-1.3,1.6
	c-0.2,0.3-0.4,0.5-0.6,0.8c-0.2,0.2-0.3,0.5-0.5,0.7c-0.6,1-1.3,1.9-1.8,2.9c-0.3,0.5-0.6,1.1-0.9,1.6c-0.1,0.2-0.2,0.4-0.3,0.6
	c-0.2,0.4-0.4,0.7-0.6,1.1c-0.8,0.5-1.7,1.1-2.6,1.6c-0.9,0.5-1.8,1-2.6,1.5c-0.6,0.3-1.2,0.7-1.8,1c0,0,0,0,0,0
	c-0.9,0.5-1.8,1-2.7,1.4c-0.9,0.5-1.9,0.9-2.8,1.4c0,0,0,0-0.1,0c-0.9,0.4-1.8,0.9-2.8,1.3c-0.9,0.4-1.9,0.8-2.8,1.2
	c-0.9,0.4-1.9,0.7-2.8,1.1c-0.1,0-0.1,0.1-0.2,0.1c-1.9,0.7-3.9,1.4-5.9,2.1c-1,0.3-2,0.6-3,0.9c-1,0.3-2,0.6-3.1,0.9
	c-0.5,0.1-1,0.3-1.5,0.4c-0.5,0.1-1,0.3-1.5,0.4c-0.4,0.1-0.9,0.2-1.3,0.3c-0.6,0.1-1.1,0.2-1.7,0.4c-0.1,0-0.1,0-0.2,0
	c-1,0.2-2,0.4-3,0.6c-1,0.2-2.1,0.4-3.2,0.5c-1.1,0.2-2.1,0.3-3.2,0.4c-0.9,0.1-1.7,0.2-2.6,0.3c0,0-0.1,0-0.1,0
	c-0.4,0.1-0.8,0.1-1.2,0.1c-0.9,0.1-1.7,0.2-2.6,0.2c-1.2,0.1-2.4,0.2-3.7,0.2c-1.6,0.1-3.3,0.1-4.9,0.1c-0.4,0-0.9,0-1.3,0
	c-0.2,0-0.5,0-0.7,0c-0.7,0-1.3,0-2-0.1c-1.8-26.4,1.7-60.1,20.5-96c0.3-0.2,0.5-0.5,0.8-0.7C122.8,674.2,143.1,693.2,160.3,702.5z"
	/>
<path fill="#FFFFFF" stroke="#000000" stroke-miterlimit="10" d="M174.5,528.8c-12.4,44.3-38.6,79.6-68.2,106.9
	c-0.2-0.1-0.3-0.2-0.5-0.2c29.5-55.8,4.6-113-13.9-143.2c0.9,0,1.7,0.1,2.6,0.1c0.3,0,0.6,0,0.9,0c0.3,0,0.6,0,0.9,0.1h0
	c2.8,0.2,5.5,0.4,8.2,0.8c1.9,0.3,3.8,0.6,5.8,0.9h0c5,0.9,9.9,2.2,14.7,3.7h0C144,503.9,160.9,514.7,174.5,528.8z"/>
<path fill="#FFFFFF" stroke="#000000" stroke-miterlimit="10" d="M867.7,190.8c-7,14.8-17.5,29.3-32.1,29.6h0
	c-0.7,0-1.5-0.1-2.2-0.1c5.4-24.4-0.4-44.8-5.9-57.1C845.4,164.3,860.6,175.3,867.7,190.8z"/>
<path fill="#FFFFFF" stroke="#000000" stroke-miterlimit="10" d="M833.5,220.2c-0.5,0-1-0.1-1.5-0.1c-1.7-19.3-20.3-36.7-35.5-47.9
	c7.9-5.8,17.5-9.2,28-9.2c1,0,2.1,0,3.1,0.1C833.1,175.5,838.9,195.8,833.5,220.2z"/>
<path fill="#FFFFFF" stroke="#000000" stroke-miterlimit="10" d="M641.5,172.5c0,0-14,14.1-8,19.1
	C639.5,196.6,648.5,176.5,641.5,172.5z"/>
<path fill="#FFFFFF" stroke="#000000" stroke-miterlimit="10" d="M666.5,189.6c0,0-14,14.1-8,19.1
	C664.5,213.7,673.5,193.6,666.5,189.6z"/>
<path fill="#FFFFFF" stroke="#000000" stroke-miterlimit="10" d="M701.5,211.7c0,0-14,14.1-8,19.1
	C699.5,235.8,708.5,215.7,701.5,211.7z"/>
<path fill="#FFFFFF" stroke="#000000" stroke-miterlimit="10" d="M539.5,226.8c0,0-14,14.1-8,19.1
	C537.5,250.9,546.5,230.8,539.5,226.8z"/>
<path fill="#FFFFFF" stroke="#000000" stroke-miterlimit="10" d="M578.5,232.8c0,0-14,14.1-8,19.1
	C576.5,257,585.5,236.8,578.5,232.8z"/>
<path fill="#FFFFFF" stroke="#000000" stroke-miterlimit="10" d="M730.5,216.7c0,0-14,14.1-8,19.1S737.5,220.8,730.5,216.7z"/>
<path fill="#FFFFFF" stroke="#000000" stroke-miterlimit="10" d="M718.5,192.6c0,0-41,14.1-26,13.1
	C707.5,204.7,723.5,197.6,718.5,192.6z"/>
<path fill="#FFFFFF" stroke="#000000" stroke-miterlimit="10" d="M556.5,216.7c0,0,45,0,28,3S542.5,221.8,556.5,216.7z"/>
<path fill="#FFFFFF" stroke="#000000" stroke-miterlimit="10" d="M558.5,257c0,0-34,9.1-22,9.1S578.5,255,558.5,257z"/>
<path fill="#FFFFFF" stroke="#000000" stroke-miterlimit="10" d="M741.5,246.9c0,0-34,9.1-22,9.1S761.5,244.9,741.5,246.9z"/>
<path fill="#FFFFFF" stroke="#000000" stroke-miterlimit="10" d="M608.5,182.5c0,0-34,9.1-22,9.1S628.5,180.5,608.5,182.5z"/>
<path fill="#FFFFFF" stroke="#000000" stroke-miterlimit="10" d="M685.5,173.5c0,0-34,9.1-22,9.1S705.5,171.4,685.5,173.5z"/>
<path fill="#FFFFFF" stroke="#000000" stroke-miterlimit="10" d="M624.5,202.6c0,0-34,9.1-22,9.1S644.5,200.6,624.5,202.6z"/>
</svg>
