<?xml version="1.0" encoding="utf-8"?>
<!-- Generator: Adobe Illustrator 23.0.5, SVG Export Plug-In . SVG Version: 6.00 Build 0)  -->
<svg version="1.1" baseProfile="tiny" id="Layer_1" xmlns="http://www.w3.org/2000/svg" xmlns:xlink="http://www.w3.org/1999/xlink"
	 x="0px" y="0px" viewBox="0 0 1000 1000" xml:space="preserve">
<image display="none" width="851" height="864" xlink:href="24FF9485.png"  transform="matrix(1 0 0 1 74 68)">
</image>
<rect x="-0.5" y="-0.5" fill="#FFFFFF" stroke="#000000" stroke-miterlimit="10" width="1000" height="1000"/>
<path fill="#FFFFFF" stroke="#000000" stroke-miterlimit="10" d="M140,25.1c0,0,79.3-53.7,98.9,24.4c0,0,29.3,54.9-39.1,45.2
	c0,0-22,40.3-64.7,18.3c0,0-57.4,26.9-69.6-12.2s20.7-52.5,20.7-52.5S87.6-7.9,140,25.1z"/>
<path fill="#FFFFFF" stroke="#000000" stroke-miterlimit="10" d="M356.1,70.3c0,0,1.2-30.5,42.7-29.3c41.5,1.2,30.5,36.6,30.5,36.6
	s25.6-14.6,43.9,8.5c0,0,30-21.7,55.6,3.2c11.9,11.6,13.3,30.1,3.5,43.6c-11.7,16.2-31.8,32.4-59.1,11.8c0,0-24.4,50-70.8,9.8
	c0,0-48.8,43.9-80.6-14.6c0,0-26.9-9.8-20.7-41.5C307.3,66.6,356.1,70.3,356.1,70.3z"/>
<path fill="#FFFFFF" stroke="#000000" stroke-miterlimit="10" d="M740.5,70.3c0,0-47.6,14.6-40.3,43.9s81.8,6.1,81.8,6.1
	s23.2,28.1,54.9,4.9c0,0,35.4,4.9,40.3-13.4c0,0,39.1,28.1,58.6-17.1c19.5-45.2-40.3-37.8-40.3-37.8s-2.4-31.7-36.6-35.4
	s-35.4,28.1-35.4,28.1s-17.1-23.2-51.3-13.4C738.1,45.9,740.5,70.3,740.5,70.3z"/>
<path fill="#FFFFFF" stroke="#000000" stroke-miterlimit="10" d="M871.1,216.7c0,24.6-18.7,44.9-42.7,47.4c-1.6,0.2-3.2,0.2-4.9,0.2
	c-1.6,0-3.3-0.1-4.9-0.2c-14.8-1.5-27.5-9.8-35.2-21.6c-4.8-7.4-7.5-16.2-7.5-25.7c0-26.3,21.3-47.6,47.6-47.6
	C849.8,169.1,871.1,190.4,871.1,216.7z"/>
<path fill="#FFFFFF" stroke="#000000" stroke-miterlimit="10" d="M828.4,264.1v71h-9.8v-71c1.6,0.2,3.2,0.2,4.9,0.2
	C825.2,264.3,826.8,264.2,828.4,264.1z"/>
<path fill="#FFFFFF" stroke="#000000" stroke-miterlimit="10" d="M697.7,293.2c-3.2-15.7-14-42.1-49.9-44.7
	c-36.9-2.6-54.2,25-61,40.8c-2.3-11.5-1-23.6,4.5-34.8c13.9-28.3,45.5-31.6,45.5-31.6C669.8,217.3,705.1,258.2,697.7,293.2z"/>
<path fill="#FFFFFF" stroke="#000000" stroke-miterlimit="10" d="M697.7,293.2c-2.4,11.6-9.6,22.6-23,31
	c-26.9,16.8-48,12.3-62.8,2.4c-13.3-8.9-22.1-22.5-25-37.3c6.8-15.7,24.1-43.4,61-40.8C683.7,251,694.4,277.5,697.7,293.2z"/>
<path fill="#FFFFFF" stroke="#000000" stroke-miterlimit="10" d="M773.5,305.8c-0.1-3.8-0.3-7.4-0.5-11
	C763,159.5,635.6,163,635.6,163c-48.8-1.2-120.8,39.1-126.9,109.8c-4.2,48.5,9.4,84.4,29.4,109.7c7.4,9.3,15.6,17.2,24.2,23.7
	c8.2,1,17.3,4.1,27,10.6c0,0,7.7,0.3,16.9,3c-2.7-21.5-5.8-73.3,27-76.2c39.2-3.5,57.7,6.2,54.5,71.1c2.7,0.8,5.7,2.1,8.9,4.1h0
	c0,0,0,0,0,0c0.4-0.6,15.8-22.7,36.9-18.4C758,382.1,774.7,352.2,773.5,305.8z M697.7,293.2c-0.1,0.4-0.2,0.9-0.3,1.3
	c-0.1,0.3-0.1,0.5-0.2,0.7c0,0,0,0.1,0,0.1c-0.3,1-0.5,2-0.9,2.9c-0.2,0.6-0.4,1.1-0.6,1.7c-0.4,1-0.8,2-1.3,2.9
	c-0.1,0.2-0.2,0.5-0.3,0.7c-0.2,0.4-0.4,0.9-0.7,1.3c-0.2,0.4-0.5,0.9-0.7,1.3c-0.1,0.2-0.3,0.5-0.4,0.7c-0.3,0.4-0.5,0.8-0.8,1.3
	c-0.3,0.4-0.6,0.9-0.9,1.3c-0.4,0.6-0.9,1.2-1.3,1.8c-0.3,0.5-0.7,0.9-1.1,1.4c-0.1,0.1-0.2,0.2-0.3,0.4c-0.3,0.4-0.7,0.8-1.1,1.2
	c0,0-0.1,0.1-0.1,0.1c-0.4,0.4-0.8,0.9-1.2,1.3c0,0-0.1,0.1-0.1,0.1c-0.5,0.5-1,1-1.5,1.4c-0.4,0.4-0.8,0.8-1.3,1.2
	c-0.1,0.1-0.2,0.2-0.3,0.3c-0.3,0.2-0.6,0.5-0.9,0.7c-0.6,0.5-1.2,1-1.8,1.4c-0.6,0.5-1.3,1-1.9,1.4c-0.3,0.2-0.7,0.5-1,0.7
	c-0.7,0.5-1.4,0.9-2.1,1.3c-4.9,3.1-9.6,5.4-14.1,7.2c-0.7,0.3-1.3,0.5-2,0.7c0,0-0.1,0-0.1,0c-0.7,0.3-1.4,0.5-2.1,0.7
	c-0.4,0.1-0.8,0.2-1.2,0.4c-0.7,0.2-1.3,0.4-2,0.5c-0.4,0.1-0.7,0.2-1.1,0.3c-0.7,0.2-1.4,0.3-2,0.4c0,0,0,0-0.1,0
	c-0.7,0.1-1.3,0.2-2,0.3c-0.7,0.1-1.4,0.2-2.1,0.3c-2.5,0.3-5,0.4-7.3,0.3c-0.5,0-1,0-1.5-0.1c0,0,0,0,0,0c-0.6,0-1.2-0.1-1.7-0.1
	c-0.1,0-0.2,0-0.3,0c-0.5,0-0.9-0.1-1.4-0.2c-0.1,0-0.3,0-0.4-0.1c-2.1-0.3-4.1-0.7-6-1.3c-0.2-0.1-0.4-0.1-0.7-0.2
	c-0.6-0.2-1.2-0.4-1.8-0.6c-0.7-0.2-1.4-0.5-2.1-0.8c-0.4-0.2-0.9-0.3-1.3-0.5c-0.5-0.2-1-0.4-1.5-0.6c-0.7-0.3-1.3-0.6-2-0.9
	c-0.4-0.2-0.9-0.4-1.3-0.7c-1.6-0.9-3.1-1.8-4.6-2.8c-13.3-8.9-22.1-22.5-25-37.3c-2.3-11.5-1-23.6,4.5-34.8
	c13.9-28.3,45.5-31.6,45.5-31.6C669.8,217.3,705.1,258.2,697.7,293.2z"/>
<path fill="#FFFFFF" stroke="#000000" stroke-miterlimit="10" d="M687.6,414.8c-12.7-3.7-19.5,4.3-22.7,10.5
	c-3.2,0.4-6.4,0.6-9.5,0.8c-8.1-4.8-14.1-2.9-18.2,0.3c-6.2-0.1-12.2-0.6-18-1.2c-4.3-2.4-8.8-4.1-13.1-5.4
	c-2.7-21.5-5.8-73.3,27-76.2C672.4,340.2,690.9,349.8,687.6,414.8z"/>
<path fill="#FFFFFF" stroke="#000000" stroke-miterlimit="10" d="M697.7,293.2c-2.4,11.6-9.6,22.6-23,31
	c-26.9,16.8-48,12.3-62.8,2.4c-13.3-8.9-22.1-22.5-25-37.3c-2.3-11.5-1-23.6,4.5-34.8c13.9-28.3,45.5-31.6,45.5-31.6
	C669.8,217.3,705.1,258.2,697.7,293.2z"/>
<circle fill="#FFFFFF" stroke="#000000" stroke-miterlimit="10" cx="671" cy="382.7" r="8.5"/>
<path fill="#FFFFFF" stroke="#000000" stroke-miterlimit="10" d="M741.8,403.5c0,0-29.3,2.4-42.7,23.2c0,0-25.6-9.8-36.6,11
	c0,0-17.1-17.1-31.7,3.7c0,0-24.4-24.4-43.9-11c0,0-17.1-26.9-59.8-15.9c0,0,14.5-10.7,35.3-8.2c8.2,1,17.3,4.1,27,10.6
	c0,0,7.7,0.3,16.9,3c4.3,1.2,8.8,2.9,13.1,5.4c4.4,2.5,8.5,5.8,11.5,10c0,0,2.1-5.2,6.5-8.8c4.1-3.3,10-5.1,18.2-0.3
	c2.2,1.3,4.5,3.1,7,5.4c0,0,0.7-2.8,2.5-6.2c3.2-6.2,10-14.1,22.7-10.5c2.7,0.8,5.7,2.1,8.9,4.1h0c0,0,0,0,0,0
	c0.4-0.6,15.8-22.7,36.9-18.4C736.2,401,738.9,402,741.8,403.5z"/>
<path fill="#FFFFFF" stroke="#000000" stroke-miterlimit="10" d="M999.5,230.4v61.7l-2.4,14.7l0,0.2l-37.1,226l-1.4,8.4l-4.4,26.8
	c0,0-3.6-5.5-10.1-14.5c-0.6-0.8-1.2-1.6-1.8-2.4c-0.6-0.8-1.2-1.7-1.9-2.5c-0.4-0.5-0.8-1.1-1.2-1.6c-0.6-0.8-1.2-1.6-1.9-2.5
	c-0.4-0.5-0.7-1-1.1-1.4c-3-3.9-6.3-8-9.9-12.4c-1.1-1.4-2.3-2.7-3.4-4.1c-0.6-0.7-1.2-1.4-1.8-2.1c-0.7-0.9-1.5-1.8-2.3-2.7
	c-1.1-1.3-2.2-2.6-3.3-3.9c-0.6-0.7-1.3-1.5-1.9-2.2c-2.7-3-5.5-6.1-8.4-9.3c-0.8-0.8-1.5-1.7-2.3-2.5c-0.8-0.8-1.6-1.6-2.4-2.5
	c-0.5-0.6-1.1-1.1-1.6-1.7c-0.8-0.8-1.5-1.6-2.3-2.4c-0.7-0.7-1.4-1.5-2.2-2.2c-7-7-14.4-14.1-22.2-20.8c-0.8-0.7-1.5-1.3-2.3-2
	c-1.7-1.5-3.5-3-5.3-4.4c-0.9-0.7-1.8-1.4-2.7-2.2c-0.1-0.1-0.3-0.2-0.4-0.3c-0.8-0.6-1.5-1.2-2.3-1.8c-1.8-1.4-3.6-2.8-5.5-4.2
	c-0.1-0.1-0.3-0.2-0.4-0.3c-0.8-0.6-1.6-1.2-2.4-1.7c-0.9-0.7-1.8-1.3-2.7-1.9c0,0-0.1-0.1-0.1-0.1c-0.9-0.7-1.9-1.3-2.8-2
	c-0.7-0.5-1.4-1-2.1-1.5c-0.2-0.2-0.5-0.3-0.7-0.5c-0.9-0.6-1.8-1.2-2.7-1.8c-2-1.3-3.9-2.5-5.9-3.8c-2-1.2-3.9-2.4-5.9-3.5
	c-2-1.1-4-2.2-5.9-3.3c-1-0.5-2-1.1-3-1.6c-0.7-0.4-1.5-0.8-2.2-1.2c-0.4-0.2-0.8-0.4-1.3-0.6c-0.8-0.4-1.6-0.8-2.4-1.2
	c0,0-0.1,0-0.1,0c-1-0.5-2-1-3.1-1.4c-0.8-0.4-1.6-0.7-2.4-1c-0.2-0.1-0.5-0.2-0.7-0.3c-1-0.4-2-0.8-3-1.3c-2.1-0.8-4.2-1.6-6.3-2.4
	c-0.8-0.3-1.6-0.6-2.4-0.8c-0.2-0.1-0.4-0.1-0.7-0.2c-0.4-0.2-0.9-0.3-1.3-0.4c-0.6-0.2-1.2-0.4-1.8-0.6c-0.8-0.3-1.6-0.5-2.5-0.7
	c-0.3-0.1-0.7-0.2-1.1-0.3c-2-0.6-3.9-1.1-5.9-1.5c-1.1-0.2-2.1-0.5-3.2-0.7c-1-0.2-2.1-0.4-3.2-0.6c0,0,0,0,0,0
	c-0.9-0.2-1.8-0.3-2.6-0.4c-0.4-0.1-0.8-0.1-1.2-0.2c0,0,0,0,0,0c-0.9-0.1-1.7-0.3-2.6-0.3c-1.1-0.1-2.1-0.3-3.2-0.4h0
	c-1.1-0.1-2.1-0.2-3.2-0.3c-1.1-0.1-2.1-0.1-3.2-0.2c-1.1-0.1-2.2-0.1-3.2-0.1c0,0,39.2-33.2,86.8-72.1c24-19.6,50.1-40.6,74.5-59.6
	C952.1,262,983.1,239.3,999.5,230.4z"/>
<path fill="#FFFFFF" stroke="#000000" stroke-miterlimit="10" d="M954.1,568.2c-4.5,4.5-9.2,4.8-13,3.9c1.3-6.2,2.3-12.4,2.9-18.4
	C950.5,562.7,954.1,568.2,954.1,568.2z"/>
<path fill="#FFFFFF" stroke="#000000" stroke-miterlimit="10" d="M944,553.8c-0.6-0.8-1.2-1.6-1.8-2.4c-0.6-0.8-1.2-1.7-1.9-2.5
	c-0.4-0.5-0.8-1.1-1.2-1.6c-0.6-0.8-1.2-1.6-1.9-2.5c-0.4-0.5-0.7-1-1.1-1.4c-3-3.8-6.3-8-9.9-12.4c-1.1-1.4-2.3-2.7-3.4-4.1
	c-0.6-0.7-1.2-1.4-1.8-2.1c-0.7-0.9-1.5-1.8-2.3-2.7c-1.1-1.3-2.2-2.6-3.3-3.8c-0.6-0.7-1.3-1.5-1.9-2.2c-2.7-3-5.5-6.1-8.4-9.3
	c-2-2.2-4.1-4.4-6.3-6.6c-0.8-0.8-1.6-1.6-2.3-2.4c-0.7-0.7-1.4-1.5-2.2-2.2c-7-7-14.4-14.1-22.2-20.8c-0.8-0.7-1.5-1.3-2.3-2
	c-1.7-1.5-3.5-3-5.3-4.4c-0.9-0.7-1.8-1.4-2.7-2.2c-0.1-0.1-0.3-0.2-0.4-0.3c-0.8-0.6-1.5-1.2-2.3-1.8c-1.8-1.4-3.6-2.8-5.5-4.2
	c-0.1-0.1-0.3-0.2-0.4-0.3c-0.8-0.6-1.6-1.2-2.4-1.7c-0.9-0.6-1.8-1.3-2.6-1.9c0,0-0.1-0.1-0.1-0.1c-0.9-0.7-1.9-1.3-2.8-2
	c-0.7-0.5-1.4-1-2.1-1.5c-0.2-0.2-0.5-0.3-0.7-0.5c-0.9-0.6-1.8-1.2-2.7-1.8c-2-1.3-3.9-2.5-5.9-3.8c-1.9-1.2-3.9-2.4-5.9-3.5
	c-2-1.1-3.9-2.2-5.9-3.3c-1-0.5-2-1.1-3-1.6c-0.7-0.4-1.5-0.8-2.2-1.1c-0.4-0.2-0.8-0.4-1.3-0.6c-0.8-0.4-1.6-0.8-2.4-1.2
	c0,0-0.1,0-0.1,0c-1-0.5-2-1-3.1-1.4c-0.8-0.4-1.6-0.7-2.4-1c-0.2-0.1-0.5-0.2-0.7-0.3c-1-0.4-2-0.8-3-1.3c-2.1-0.8-4.2-1.6-6.3-2.4
	c-0.8-0.3-1.6-0.6-2.4-0.8c-0.2-0.1-0.4-0.1-0.6-0.2c-0.5-0.2-0.9-0.3-1.4-0.4c-0.6-0.2-1.2-0.4-1.8-0.6c-0.8-0.3-1.6-0.5-2.5-0.7
	c-0.3-0.1-0.7-0.2-1-0.3c-2-0.6-3.9-1.1-5.9-1.5c-1.1-0.2-2.1-0.5-3.2-0.7c-1-0.2-2.1-0.4-3.1-0.6c0,0,0,0,0,0
	c-0.9-0.2-1.8-0.3-2.6-0.4c-0.4-0.1-0.8-0.1-1.2-0.2c0,0,0,0,0,0c-0.9-0.1-1.7-0.3-2.6-0.4c-1.1-0.1-2.1-0.3-3.2-0.4h0
	c-1.1-0.1-2.1-0.2-3.2-0.3c-1.1-0.1-2.1-0.1-3.2-0.2c-1.1,0-2.1-0.1-3.2-0.1c0,0-69.8,31.6-73.3,116.5c-0.1,2.6-0.2,5.2-0.1,7.8
	c0,0.7,0,1.3,0,2c0,0.1,0,0.2,0,0.3c0,1,0,2,0.1,2.9c0,0.7,0.1,1.4,0.1,2.1c0,0,2.4,47.6,20.7,65.9c0,0-36.6,22-15.9,30.5
	c20.7,8.5,45.2,0,45.2,0s3.7,43.9,62.2,11c0,0,28.1,39.1,68.3,2.4c0,0,33,34.2,50-7.3c0,0,27.6,9.5,26.5-11.8
	c-0.4-6.8-3.5-13.2-9-17.3c-1.7-1.3-3.5-2.3-5.3-2.6c0,0,9.7-25,15-51C942.4,566,943.4,559.7,944,553.8z M857.7,645.1
	c0,0-3.2-2.2-8-4c-6.9-2.5-17-4-25,4c0,0-15.9-6.1-30.5,6.1c0,0-7.3-19.5-23.2-8.5c0,0-6-4.6-13.7-5.9c-4.9-0.8-10.4-0.3-15.6,3.4
	c0,0,8.5-19.5-25.6-19.5c0,0,23.2-11,31.7,13.4c0,0,4.1-2,9.4-1.6c3.9,0.3,8.5,1.9,12.6,6.5c0,0,14.6-13.4,28.1,6.1
	c0,0,11-11,24.4-2.4c0,0,9-15,27.9-6.1c2,0.9,4.1,2.1,6.3,3.6c0,0,6.1-7.3,14.6,2.4C871.1,642.7,858.9,639,857.7,645.1z"/>
<path fill="#FFFFFF" stroke="#000000" stroke-miterlimit="10" d="M871.1,642.7c0,0-12.2-3.7-13.4,2.4c0,0-3.2-2.2-8-4
	c-6.9-2.5-17-4-25,4c0,0-15.9-6.1-30.5,6.1c0,0-7.3-19.5-23.2-8.5c0,0-6-4.6-13.7-5.9c-4.9-0.8-10.4-0.3-15.6,3.4
	c0,0,8.5-19.5-25.6-19.5c0,0,23.2-11,31.7,13.4c0,0,4.1-2,9.4-1.6c3.9,0.3,8.5,1.9,12.6,6.5c0,0,14.6-13.4,28.1,6.1
	c0,0,11-11,24.4-2.4c0,0,9-15,27.9-6.1c2,0.9,4.1,2.1,6.3,3.6C856.5,640.2,862.6,632.9,871.1,642.7z"/>
<path fill="#FFFFFF" stroke="#000000" stroke-miterlimit="10" d="M716.1,563.3c0,0,24.4-14.6,23.2,0S725.9,578,716.1,563.3z"/>
<path fill="#FFFFFF" stroke="#000000" stroke-miterlimit="10" d="M714.9,497.4c0,0,20.7-1.2,13.4,14.6
	C721,528,697.8,508.4,714.9,497.4z"/>
<path fill="#FFFFFF" stroke="#000000" stroke-miterlimit="10" d="M749.1,462c0,0,13.4,17.1-2.4,15.9
	C730.8,476.7,734.4,458.4,749.1,462z"/>
<path fill="#FFFFFF" stroke="#000000" stroke-miterlimit="10" d="M772.3,487.7c0,0,9.8-14.6,17.1,1.2
	C796.7,504.8,768.6,498.7,772.3,487.7z"/>
<path fill="#FFFFFF" stroke="#000000" stroke-miterlimit="10" d="M822.3,474.3c0,0,22,8.5,17.1,14.6
	C834.5,495,807.7,499.9,822.3,474.3z"/>
<path fill="#FFFFFF" stroke="#000000" stroke-miterlimit="10" d="M866.3,512.1c0,0,17.1,1.2,11,11
	C871.1,532.8,854.1,524.3,866.3,512.1z"/>
<path fill="#FFFFFF" stroke="#000000" stroke-miterlimit="10" d="M893.1,542.6c0,0,12.2-13.4,14.6-1.2
	C910.2,553.6,890.7,560.9,893.1,542.6z"/>
<path fill="#FFFFFF" stroke="#000000" stroke-miterlimit="10" d="M878.5,573.1c0,0,17.1,2.4,8.5,8.5
	C878.5,587.8,860.2,584.1,878.5,573.1z"/>
<path fill="#FFFFFF" stroke="#000000" stroke-miterlimit="10" d="M904.1,592.6c0,0,13.4-12.2,13.4,2.4c0,14.6-20.7,2.4-17.1,0
	C904.1,592.6,904.1,592.6,904.1,592.6z"/>
<path fill="#FFFFFF" stroke="#000000" stroke-miterlimit="10" d="M887,641.5c0,0,12.2-9.8,18.3-7.3c0,0,8.5-8.5,15.9-6.1
	c0,0-8.5-7.3-15.9,2.4C905.3,630.5,890.7,629.3,887,641.5z"/>
<path fill="#FFFFFF" stroke="#000000" stroke-miterlimit="10" d="M757.2,632.5c-0.6-19.5-1.7-57.6-0.8-63.1
	c1.2-7.3-1.2-50,46.4-51.3s53.7,37.8,52.5,61c-0.9,16.4-3.6,43.1-5.1,57.4"/>
<rect x="838.2" y="579.2" fill="#FFFFFF" stroke="#000000" stroke-miterlimit="10" width="8.5" height="19.5"/>
<path fill="#FFFFFF" stroke="#000000" stroke-miterlimit="10" d="M452.5,767.6c0,2-0.1,4.2-0.2,6.5c-0.7,19.9-3,50.3-10.8,65.1
	c-1.9,3.7-5.7,6.6-10.6,8.7l10.4-84.5c0.1,0.1,0.1,0.1,0.1,0.1c2.4-7.3,11-8.5,11-8.5s0,0.4,0,1.2
	C452.5,758.1,452.6,762.2,452.5,767.6z"/>
<path fill="#FFFFFF" stroke="#000000" stroke-miterlimit="10" d="M441.4,763.4l-10.4,84.5c-4.7,2.1-10.4,3.6-16.8,4.6l6.9-83.3
	c0,0,0,0,0,0C429.1,755.9,440.2,762.6,441.4,763.4z"/>
<path fill="#FFFFFF" stroke="#000000" stroke-miterlimit="10" d="M421,769.2l-6.9,83.3c-3.3,0.5-6.9,0.9-10.5,1.2
	c-2,0.2-4,0.3-6.1,0.4V766c13.4-12.2,23.2,3.7,23.2,3.7C420.9,769.5,420.9,769.3,421,769.2z"/>
<path fill="#FFFFFF" stroke="#000000" stroke-miterlimit="10" d="M397.6,766v88.2c-6.1,0.3-12.4,0.4-18.6,0.3l-1.9-85.1v0
	C387.9,753.9,397.6,766,397.6,766z"/>
<path fill="#FFFFFF" stroke="#000000" stroke-miterlimit="10" d="M379,854.4c-4.9-0.1-9.7-0.3-14.3-0.5c-0.4,0-0.7,0-1.1-0.1
	l-9.1-82.1c0.3,0.2,0.4,0.3,0.4,0.3c9.8-13.4,22-2.4,22-2.4c0.1-0.1,0.1-0.2,0.2-0.3L379,854.4z"/>
<path fill="#FFFFFF" stroke="#000000" stroke-miterlimit="10" d="M363.5,853.9c-1.7-0.1-3.4-0.2-5-0.3c-3.9-0.3-7.6-0.5-11-0.8
	l-18.1-81.5c0.6,0.5,1,0.8,1,0.8c6.6-11.1,21.3-2.1,24-0.3L363.5,853.9z"/>
<path fill="#FFFFFF" stroke="#000000" stroke-miterlimit="10" d="M347.6,852.7c-6.7-0.6-11.9-1.1-14.7-1.3c-0.9-0.1-1.7-0.2-2.5-0.4
	l-18.2-75.9c7.4-9.6,14.6-5.8,17.2-3.9L347.6,852.7z"/>
<path fill="#FFFFFF" stroke="#000000" stroke-miterlimit="10" d="M330.4,851c-12.4-2.6-14.6-15.5-14.6-15.5l-14.3-48.2l-1.4-4.6
	l-3.9-13.1c0.3-0.2,0.6-0.4,0.9-0.5c11.4-6,13.7,7.8,13.7,7.8c0.4-0.7,0.9-1.3,1.3-1.8L330.4,851z"/>
<path fill="#FFFFFF" stroke="#000000" stroke-miterlimit="10" d="M452.5,756.2c0-0.8,0-1.2,0-1.2s-8.5,1.2-11,8.5c0,0,0,0-0.1-0.1
	c-1.2-0.8-12.3-7.5-20.4,5.8c0,0,0,0,0,0c-0.1,0.1-0.2,0.3-0.2,0.4c0,0-9.8-15.9-23.2-3.7c0,0-9.7-12-20.6,3.4v0
	c-0.1,0.1-0.1,0.2-0.2,0.3c0,0-12.2-11-22,2.4c0,0-0.1-0.1-0.4-0.3c-2.7-1.8-17.3-10.8-24,0.3c0,0-0.4-0.4-1-0.8
	c-2.6-1.9-9.8-5.7-17.2,3.9c-0.4,0.6-0.9,1.2-1.3,1.8c0,0-2.3-13.9-13.7-7.8c-4.4-3.2-11.2-10.2,1.5-16.6c0,0,7.3-4.9,14.6,6.1
	c0,0,4.9-11,17.1-3.7c0,0,12.2-11,24.4-2.4c0,0,8.5-7.3,17.1,0c0,0,7.3-9.8,18.3-1.2c0,0,12.2-11,25.6,2.4c0,0,3.7-14.6,18.3-8.5
	c0,0,6.1-9.8,15.9-4.9C450.1,740.3,457.9,746.2,452.5,756.2z"/>
<path fill="#FFFFFF" stroke="#000000" stroke-miterlimit="10" d="M451.1,677.9c-4.3,0.6-12.2,0.3-23-5.9c-17.1-9.8-4.9,0-24.4,8.5
	c-12.5,5.5-15-2.1-18.7-7.9c-2.1-3.3-4.6-6-9.4-5.5c-4.5,0.4-5.7,5.5-6.1,12.2c-0.8,13.4,1.6,33-12.2,33
	c-13.4,0-12.5-12.7-12.9-25.4c-0.2-6.9-0.7-13.8-4.2-18.6c-9.8-13.4-23.2,17.1-42.7,20.7c-5.8,1.1-9-0.5-10.4-3.4
	c4.9-23.2,22.2-46.4,66.6-58.9c0,0,0.2,0,0.7-0.1c-3.1,8-0.8,13,2.9,16.1c2.6,2.2,5.7,3.3,8.8,3.4c5.3,0.3,10.7-2.3,13.6-7.2
	c2.7-4.6,2.2-9.5,0.4-13.4c0.7,0,1.3,0.1,2,0.2c0.4,0,0.9,0.1,1.3,0.1c0.8,0.1,1.6,0.2,2.4,0.3c0.6,0.1,1.2,0.2,1.9,0.3
	c0.5,0.1,1,0.2,1.5,0.2c0.1,0,0.3,0,0.4,0.1c0.4,0.1,0.9,0.2,1.3,0.2c0.8,0.1,1.6,0.3,2.4,0.5c0.8,0.2,1.6,0.4,2.4,0.6
	c0.5,0.1,1.1,0.3,1.6,0.4c0.5,0.1,1,0.3,1.5,0.4c0.1,0,0.1,0,0.2,0c0.5,0.2,1.1,0.3,1.7,0.5c0.5,0.2,1.1,0.3,1.6,0.5
	c0.6,0.2,1.2,0.4,1.7,0.6c0.5,0.2,1.1,0.4,1.6,0.6c0.5,0.2,1,0.4,1.5,0.6c0.2,0.1,0.4,0.2,0.7,0.3c0.4,0.2,0.8,0.3,1.2,0.5
	c0.6,0.2,1.1,0.5,1.7,0.7c0.6,0.3,1.1,0.5,1.7,0.8c0.3,0.1,0.5,0.3,0.8,0.4c0.1,0,0.2,0.1,0.3,0.1c0.1,0.1,0.2,0.1,0.3,0.2
	c0.3,0.1,0.6,0.3,0.8,0.4c0.4,0.2,0.7,0.4,1.1,0.6c0.4,0.2,0.9,0.5,1.3,0.7c0.6,0.3,1.1,0.6,1.7,1c0.4,0.2,0.7,0.5,1.1,0.7
	c1.2,0.8,2.5,1.6,3.7,2.5c0.4,0.3,0.8,0.6,1.2,0.9c0.4,0.3,0.8,0.6,1.2,0.9c1,0.8,2,1.6,3,2.5c0.4,0.3,0.8,0.7,1.2,1.1
	c0.5,0.5,1,0.9,1.5,1.4c0.6,0.6,1.2,1.1,1.7,1.7c0,0,0,0,0,0.1c0.4,0.4,0.8,0.8,1.1,1.2c0.4,0.4,0.7,0.8,1.1,1.2
	c0.2,0.2,0.4,0.4,0.6,0.7c0.4,0.4,0.8,0.9,1.1,1.3c0.5,0.6,1,1.2,1.5,1.9c0.4,0.5,0.8,1,1.2,1.6c0.5,0.7,1,1.4,1.5,2.1
	c0.4,0.6,0.8,1.2,1.2,1.8c0.4,0.6,0.7,1.1,1.1,1.7c0.4,0.7,0.8,1.4,1.2,2.1c0.4,0.6,0.7,1.3,1.1,1.9c0,0.1,0.1,0.1,0.1,0.2
	c0,0,0.1,0.1,0.1,0.2c0.3,0.6,0.6,1.2,0.9,1.8c0.1,0.2,0.2,0.4,0.3,0.6c0.3,0.5,0.5,1,0.8,1.6c0.1,0.3,0.3,0.6,0.4,0.9c0,0,0,0,0,0
	c0.2,0.4,0.4,0.9,0.6,1.3c0,0,0,0.1,0,0.1c0,0.1,0,0.1,0.1,0.2c0.2,0.5,0.4,1,0.6,1.4c0.2,0.5,0.4,0.9,0.6,1.4c0,0,0,0,0,0.1
	C450.6,676.6,450.8,677.2,451.1,677.9z"/>
<path fill="#FFFFFF" stroke="#000000" stroke-miterlimit="10" d="M452.5,681.7c-0.5-1.3-0.9-2.6-1.4-3.9c-4.3,0.6-12.2,0.3-23-5.9
	c-17.1-9.8-4.9,0-24.4,8.5c-12.5,5.5-15-2.1-18.7-7.9c-2.1-3.3-4.6-6-9.4-5.5c-4.5,0.4-5.7,5.5-6.1,12.2c-0.8,13.4,1.6,33-12.2,33
	c-13.4,0-12.5-12.7-12.9-25.4c-0.2-6.9-0.7-13.8-4.2-18.6c-9.8-13.4-23.2,17.1-42.7,20.7c-5.8,1.1-9-0.5-10.4-3.4
	c-0.2,0.9-0.4,1.9-0.5,2.8c-0.1,0.5-0.2,1-0.3,1.6c-0.1,0.7-0.2,1.4-0.3,2.1c0,0,0,0,0,0.1v0c-0.1,0.7-0.2,1.4-0.2,2.1
	c0,0.5-0.1,1-0.1,1.6c0,0.6-0.1,1.1-0.1,1.7c0,0.4,0,0.8,0,1.2v0.2c0,1.5,0,2.9,0,4.3c0,0,0,0,0,0.1c0.1,2.9,0.3,5.7,0.6,8.5
	c0.1,1.1,0.3,2.2,0.4,3.3c0,0,0,0,0,0c0.1,0.8,0.2,1.6,0.4,2.3c0,0,0,0,0,0c0.1,0.8,0.3,1.6,0.4,2.3c0.6,3.2,1.4,6.2,2.1,9
	c0.2,0.8,0.5,1.6,0.7,2.4c0.9,2.8,1.8,5.5,2.6,7.8c0.2,0.5,0.4,0.9,0.5,1.4c0.1,0.3,0.2,0.5,0.3,0.8c0.2,0.4,0.3,0.9,0.5,1.3
	c0.3,0.8,0.6,1.6,1,2.3c0.2,0.4,0.4,0.8,0.5,1.2c0.2,0.4,0.4,0.8,0.5,1.1c0.1,0.3,0.3,0.6,0.4,0.9c1.3,2.7,2.1,4.3,2.1,4.3
	s7.3-4.9,14.6,6.1c0,0,4.9-11,17.1-3.7c0,0,12.2-11,24.4-2.4c0,0,8.5-7.3,17.1,0c0,0,7.3-9.8,18.3-1.2c0,0,12.2-11,25.6,2.4
	c0,0,3.7-14.6,18.3-8.5c0,0,6.1-9.8,15.9-4.9c3.3-4.6,5.2-10.1,6.2-15.8C459.9,704.6,452.5,681.7,452.5,681.7z M323.1,750.1
	c-9.4,0-17.1-7.7-17.1-17.1c0-9.4,7.7-17.1,17.1-17.1s17.1,7.7,17.1,17.1C340.2,742.4,332.6,750.1,323.1,750.1z M346.3,724.5
	c-3.4,0-6.1-2.7-6.1-6.1s2.7-6.1,6.1-6.1s6.1,2.7,6.1,6.1S349.7,724.5,346.3,724.5z M374.4,723.2c-5.4,0-9.8,7.8-9.8,2.4
	c0-5.4,4.4-9.8,9.8-9.8s9.8,4.4,9.8,9.8C384.2,731.1,379.8,723.2,374.4,723.2z M396.4,718.4c-2.7,0-4.9-2.2-4.9-4.9
	c0-2.7,2.2-4.9,4.9-4.9s4.9,2.2,4.9,4.9C401.2,716.2,399.1,718.4,396.4,718.4z M423.2,742.8c-8.8,0-15.9-7.1-15.9-15.9
	c0-8.8,7.1-15.9,15.9-15.9s15.9,7.1,15.9,15.9C439.1,735.7,432,742.8,423.2,742.8z"/>
<circle fill="#FFFFFF" stroke="#000000" stroke-miterlimit="10" cx="323.1" cy="733" r="17.1"/>
<circle fill="#FFFFFF" stroke="#000000" stroke-miterlimit="10" cx="346.3" cy="718.4" r="6.1"/>
<path fill="#FFFFFF" stroke="#000000" stroke-miterlimit="10" d="M384.2,725.7c0,5.4-4.4-2.4-9.8-2.4s-9.8,7.8-9.8,2.4
	c0-5.4,4.4-9.8,9.8-9.8S384.2,720.3,384.2,725.7z"/>
<circle fill="#FFFFFF" stroke="#000000" stroke-miterlimit="10" cx="396.4" cy="713.5" r="4.9"/>
<circle fill="#FFFFFF" stroke="#000000" stroke-miterlimit="10" cx="423.2" cy="726.9" r="15.9"/>
<path fill="#FFFFFF" stroke="#000000" stroke-miterlimit="10" d="M379.6,639c-2.9,4.9-8.3,7.5-13.6,7.2c-3.1-0.1-6.2-1.3-8.8-3.4
	c-3.6-3.1-5.9-8-2.9-16.1c0.3-0.7,0.6-1.5,1-2.2c0.9-2,3-3.1,5.2-3.1c0.7,0,1.5-0.1,2.4-0.3c1-0.2,2-0.6,3.1-1.2
	c0.7-0.4,1.5-0.9,2.3-1.5c2.7-2.2,8.1,1,11.1,6.3c0.2,0.4,0.4,0.7,0.6,1.1C381.8,629.5,382.3,634.4,379.6,639z"/>
<path fill="#FFFFFF" stroke="#000000" stroke-miterlimit="10" d="M366,619.8c-1.1,0.6-2.1,1-3.1,1.2c-3.2-14.2-20.2-22.3-20.2-22.3
	S357.3,594.2,366,619.8z"/>
<path fill="#FFFFFF" stroke="#000000" stroke-miterlimit="10" d="M367.1,370.5c0,0,7.3-59.8-52.5-67.1c0,0,25.6-40.3-33-56.1
	c0,0-13.4,0-9.8-18.3s-8.5-37.8-34.2-35.4c0,0,20.7,28.1-9.8,39.1s-94,2.4-101.3,74.5c0,0-43.9,24.4-39.1,63.5
	c0,0-12.2,3.7-6.1,18.3c0,0.1,0.1,0.1,0.1,0.2c0.8,1.8,2.5,3.2,4.8,4.3c4.5,2.1,11.3,3,19.3,3.6c20.9,1.5,49.4,0.7,62.4,11.4
	c20.7,17.1,53.7-22,78.1-3.7s59.8,26.9,73.2,3.7c6.3-10.9,16.7-12.9,26.9-13.9c6.2-0.6,12.3-0.8,17.2-2.4c3.4-1.1,6.2-2.8,8.3-5.8
	c0.5-0.7,0.9-1.5,1.3-2.3C373.2,383.9,376.8,375.4,367.1,370.5z M307.2,304.6c-0.5,1-16.5,32.6-58.6,9.7
	C248.7,314.4,298.6,316.8,307.2,304.6z M160.3,372.4C160.3,372.4,160.3,372.4,160.3,372.4c-1.5,0.2-2.9,0.4-4.3,0.6c0,0,0,0,0,0
	c-6.8,1.5-14.2,5.3-20.7,3.3h0c-2.2-0.7-4.3-2.1-6.3-4.5c-11-13.4-26.9-14.6-26.9-14.6c19.5-12.2,20.7,6.1,40.3,6.1
	c13.6,0,20.1,5.4,22.8,8.6c1.2,1.4,1.6,2.4,1.6,2.4C164.9,372.8,162.6,372.3,160.3,372.4z M201.3,325.1c-6.1-1.4-12.6-0.6-18.1,2.3
	c-4.3,2.3-8.6,6.1-11.3,12.5c-7.3,17.1-20.7,8.5-19.5-1.2c0,0-1.2-30.5,33-34.2s31.7-19.5,34.2-31.7c2.3-11.6,20.1-33.2,38.6-23.7
	c2.5,1.3,4.4,3.6,4.8,6.3c0.4,3-0.7,6.8-8,8.8c-13.4,3.7-14.6,20.7-14.6,28.1C240.1,299.5,235.6,332.7,201.3,325.1z M295.1,403.5
	c-15.9,17.1-28.1-19.5-67.1-19.5c0,0,18.3-9.8,40.3,4.9c22,14.6,28.1,4.9,34.2,1.2c6.1-3.7,18.3-8.5,24.4-2.4
	C326.8,387.6,310.9,386.4,295.1,403.5z M337.8,346.1c-2.6,9.1-7.3,22.7-18.4,29.5h0c-9.8,6-24.6,6.9-47.5-5.1c0,0-0.5-0.3-1.3-0.7
	c-5.1-2.5-23.6-10.7-34.1-5.4c-3.1,1.5-6.2,2.8-9.2,3.8c-5.9,1.9-11.2,2.3-14.1,0.2h0c-1.5-1-2.3-2.7-2.3-5.2
	c0,0,1.2-28.1,28.1-25.6c26.9,2.4,61,30.5,74.5,2.4C326.8,311.9,342.7,329,337.8,346.1z"/>
<path fill="#FFFFFF" stroke="#000000" stroke-miterlimit="10" d="M254.8,264.3c-13.4,3.7-14.6,20.7-14.6,28.1
	c0,7.1-4.6,40.3-38.9,32.7c-6.1-1.4-12.6-0.6-18.1,2.3c-4.3,2.3-8.6,6.1-11.3,12.5c-7.3,17.1-20.7,8.5-19.5-1.2
	c0,0-1.2-30.5,33-34.2s31.7-19.5,34.2-31.7c2.3-11.6,20.1-33.2,38.6-23.7c2.5,1.3,4.4,3.6,4.8,6.3
	C263.2,258.6,262.1,262.3,254.8,264.3z"/>
<path fill="#FFFFFF" stroke="#000000" stroke-miterlimit="10" d="M307.2,304.6c-0.5,1-16.5,32.6-58.6,9.7
	C248.7,314.4,298.6,316.8,307.2,304.6z"/>
<path fill="#FFFFFF" stroke="#000000" stroke-miterlimit="10" d="M326.8,387.6c0,0-15.9-1.2-31.7,15.9s-28.1-19.5-67.1-19.5
	c0,0,18.3-9.8,40.3,4.9c22,14.6,28.1,4.9,34.2,1.2C308.5,386.4,320.7,381.5,326.8,387.6z"/>
<path fill="#FFFFFF" stroke="#000000" stroke-miterlimit="10" d="M166.9,374.2c-2.1-1.4-4.3-1.8-6.6-1.8c0,0,0,0,0,0
	c-1.4,0-2.8,0.2-4.2,0.6c0,0,0,0,0,0c-6.8,1.5-14.2,5.3-20.7,3.3h0c-2.2-0.7-4.3-2.1-6.3-4.5c-11-13.4-26.9-14.6-26.9-14.6
	c19.5-12.2,20.7,6.1,40.3,6.1c13.6,0,20.1,5.4,22.8,8.6C166.5,373.2,166.9,374.2,166.9,374.2z"/>
<path fill="#FFFFFF" stroke="#000000" stroke-miterlimit="10" d="M307.2,304.6c-0.5,1-16.5,32.6-58.6,9.7
	C248.7,314.4,298.6,316.8,307.2,304.6z"/>
<path fill="#FFFFFF" stroke="#000000" stroke-miterlimit="10" d="M326.8,387.6c0,0-15.9-1.2-31.7,15.9s-28.1-19.5-67.1-19.5
	c0,0,18.3-9.8,40.3,4.9c22,14.6,28.1,4.9,34.2,1.2C308.5,386.4,320.7,381.5,326.8,387.6z"/>
<path fill="#FFFFFF" stroke="#000000" stroke-miterlimit="10" d="M254.8,264.3c-13.4,3.7-14.6,20.7-14.6,28.1
	c0,7.1-4.6,40.3-38.9,32.7c-6.1-1.4-12.6-0.6-18.1,2.3c-4.3,2.3-8.6,6.1-11.3,12.5c-7.3,17.1-20.7,8.5-19.5-1.2
	c0,0-1.2-30.5,33-34.2s31.7-19.5,34.2-31.7c2.3-11.6,20.1-33.2,38.6-23.7c2.5,1.3,4.4,3.6,4.8,6.3
	C263.2,258.6,262.1,262.3,254.8,264.3z"/>
<path fill="#FFFFFF" stroke="#000000" stroke-miterlimit="10" d="M337.8,346.1c-2.6,9.1-7.3,22.7-18.4,29.5h0
	c-9.8,6-24.6,6.9-47.5-5.1c0,0-0.5-0.3-1.3-0.7c-5.1-2.5-23.6-10.7-34.1-5.4c-3.1,1.5-6.2,2.8-9.2,3.8c-5.9,1.9-11.2,2.3-14.1,0.2h0
	c-1.5-1-2.3-2.7-2.3-5.2c0,0,1.2-28.1,28.1-25.6c26.9,2.4,61,30.5,74.5,2.4C326.8,311.9,342.7,329,337.8,346.1z"/>
<path fill="#FFFFFF" stroke="#000000" stroke-miterlimit="10" d="M176.1,451.1c-0.2-1.2-0.4-2.4-0.6-3.7c-2.4-11.9-9-23.8-24.4-25.4
	c-1.2-0.1-2.4-0.2-3.7-0.2c-17.3,0-23.9,13.2-26.2,25.6c-0.2,1.2-0.4,2.5-0.6,3.7c-0.8,6.7-0.6,12.8-0.4,16c0.1,0,0.1-0.1,0.2-0.1
	c0,0,1.4-0.2,3.5-0.1c-0.1-3.3,0-9.3,1.2-15.8h22.1v21.1c1.2,0,2.4-0.1,3.7-0.2v-20.9h21.6c1.3,7.7,0.9,15.1,0.6,18.6
	c1.1,0,2,0.2,2.7,0.4C176.7,466.3,177.2,458.9,176.1,451.1z M147.4,447.4h-21.3c2.6-10.2,8.5-20.1,21.3-20.7V447.4z M151,447.4
	v-20.7c12.8,1.1,18.5,10.6,20.9,20.7H151z"/>
<path fill="#FFFFFF" stroke="#000000" stroke-miterlimit="10" d="M328.2,472.4c-5.1-1.4-13.7-1.5-22.2-1.7v-17.2h22.1
	C329.2,461.5,328.6,469.1,328.2,472.4z"/>
<path fill="#FFFFFF" stroke="#000000" stroke-miterlimit="10" d="M302.4,453.5v17.1c-7.5-0.3-14.4-0.8-18.3-2.5
	c-2.1-0.9-3.9-1.2-5.3-0.9c-0.3-3.2-0.5-8.3,0.1-13.8H302.4z"/>
<path fill="#FFFFFF" stroke="#000000" stroke-miterlimit="10" d="M256,508.4c-3.4,0-6.1,2.7-6.1,6.1s2.7,6.1,6.1,6.1
	c3.4,0,6.1-2.7,6.1-6.1S259.4,508.4,256,508.4z M319.5,408.3c-13.4,23.2-48.8,14.6-73.2-3.7s-57.4,20.7-78.1,3.7
	c-13.1-10.8-41.6-9.9-62.4-11.4l-0.2,10.9l-0.3,13.6l-0.3,12.7l-0.2,11l-0.2,11.5l-0.3,12.9l-0.2,9.2l-0.3,14.9l-0.1,2.8
	c0.6,0.1,1.3,0.2,2.1,0.4c0.2,0,0.5,0.1,0.7,0.2c0.7,0.2,1.5,0.4,2.2,0.7c0.2,0.1,0.4,0.2,0.6,0.3c0,0,0,0,0.1,0h0
	c5,0.9,9.9,2.1,14.7,3.7h0c0.1-0.1,0.2-0.1,0.2-0.2c0.2-0.1,0.3-0.2,0.5-0.4c0,0,0,0,0.1-0.1c0.2-0.2,0.4-0.3,0.7-0.5
	c0.2-0.1,0.4-0.3,0.6-0.4c0.9-0.5,1.9-1,2.9-1.3c0.1,0,0.2-0.1,0.4-0.1c0.1,0,0.3-0.1,0.4-0.1c0.2,0,0.3-0.1,0.5-0.1
	c0.2,0,0.5-0.1,0.8-0.1c0.2,0,0.4,0,0.6,0c1.5,0,3.1,0.4,4.8,1.2c12.2,6.1,9.8,0,19.5,0c9.8,0,7.3,4.9,14.6,4.9
	c6.5,0,9.1-7.6,20.6-6.9l0.1-9c0,0,0-40.3,35.4-40.3c35.1,0,40.2,32.5,39.1,50.8c4.3-0.3,11,0,13.4,4.1c3.7,6.1,12.2-14.6,26.9-2.4
	c14.6,12.2,9.8-3.7,25.6,0c10.2,2.3,12.3,5.7,14.5,5.2c0.1,0,0.1,0,0.2,0V394.5C336.2,395.4,325.8,397.4,319.5,408.3z M174.2,484
	c-4.9-2.4-6.1-12.2-11-6.1c-4.9,6.1-3.7,11-8.5,4.9c-4.9-6.1-4.9-7.3-9.8-3.7c-4.9,3.7-7.3,9.8-12.2,1.2c-4.9-8.5-6.1,3.7-9.8,4.9
	c-3.6,1.2-8.4-14.3-2.7-18.2c-0.2-3.2-0.5-9.3,0.4-16c0.1-1.2,0.3-2.4,0.6-3.7c2.3-12.5,8.8-25.6,26.2-25.6c1.3,0,2.5,0.1,3.7,0.2
	c15.4,1.6,22,13.5,24.4,25.4c0.3,1.2,0.5,2.5,0.6,3.7c1.1,7.8,0.5,15.2-0.2,19c0.3,0.1,0.6,0.3,0.8,0.5
	C180.3,474.3,179.1,486.5,174.2,484z M323.1,481.6c-4.9-7.3-6.1,4.9-9.8,6.1c-3.7,1.2-4.9-11-7.3-9.8c-2.4,1.2-11,13.4-14.6,8.5
	c-3.7-4.9-4.9-11-9.8-8.5c-4.9,2.4,0,7.3-6.1,7.3s-3.7-7.3-3.7-7.3s0.5-5.5,3.3-8.6c-0.4-3.2-0.9-9.2-0.3-15.8
	c0.1-1.6,0.4-3.2,0.6-4.9c2.2-12.1,8.8-24.4,26.8-24.4c1.3,0,2.5,0.1,3.7,0.2c14.5,1.6,21.1,12.7,24,24.2c0.4,1.6,0.7,3.3,1,4.9
	c1.5,8.9,1.1,17.3,0.8,20.5c0.5,0.4,0.9,0.9,1.1,1.5C335.3,482.8,328,488.9,323.1,481.6z"/>
<path fill="#FFFFFF" stroke="#000000" stroke-miterlimit="10" d="M191.2,497.9L191.2,497.9l-0.9,56.6
	c-14.8-24.8-38.3-43.7-66.3-52.7c0.1-0.1,0.2-0.1,0.2-0.2c0.2-0.1,0.3-0.2,0.5-0.4c0,0,0,0,0.1-0.1c0.2-0.2,0.4-0.3,0.7-0.5
	c0.2-0.1,0.4-0.3,0.6-0.4c0.9-0.5,1.9-1,2.9-1.3c0.1,0,0.2-0.1,0.4-0.1c0.1,0,0.3-0.1,0.4-0.1c0.2,0,0.3-0.1,0.5-0.1
	c0.2,0,0.5-0.1,0.8-0.1c0.2,0,0.4,0,0.6,0c1.5,0,3.1,0.4,4.8,1.2c12.2,6.1,9.8,0,19.5,0c9.8,0,7.3,4.9,14.6,4.9
	C177,504.8,179.7,497.1,191.2,497.9z"/>
<path fill="#FFFFFF" stroke="#000000" stroke-miterlimit="10" d="M346.3,506.3v45.4c-13,2.2-23.2,14.1-23.2,14.1
	c-19.5-14.6-36.6,3.7-36.6,3.7c-2.9-7.7-15.6-7.8-20.9-7.5c-0.3-14.9-0.8-48.1,0.2-62.1c0-0.1,0-0.3,0-0.4c4.3-0.3,11,0,13.4,4.1
	c3.7,6.1,12.2-14.6,26.9-2.4c14.6,12.2,9.8-3.7,25.6,0c10.2,2.3,12.3,5.7,14.5,5.2C346.2,506.3,346.3,506.3,346.3,506.3z"/>
<path fill="#FFFFFF" stroke="#000000" stroke-miterlimit="10" d="M363.8,413c-8-1.1-13.8-4.7-17.5-7.9v-10.6
	c6.2-0.6,12.3-0.8,17.2-2.4L363.8,413z"/>
<path fill="#FFFFFF" stroke="#000000" stroke-miterlimit="10" d="M364,427c-7.2-0.7-13.3-3.7-17.7-6.6V405c3.7,3.2,9.5,6.9,17.5,7.9
	L364,427z"/>
<path fill="#FFFFFF" stroke="#000000" stroke-miterlimit="10" d="M364.2,438.6c-7.7,0.2-13.7-2.1-17.9-4.6v-13.6
	c4.4,2.9,10.5,5.9,17.7,6.6L364.2,438.6z"/>
<path fill="#FFFFFF" stroke="#000000" stroke-miterlimit="10" d="M364.3,449.7c-7.6,0.5-13.8-1.7-18-4.1V434
	c4.2,2.5,10.1,4.8,17.9,4.6L364.3,449.7z"/>
<path fill="#FFFFFF" stroke="#000000" stroke-miterlimit="10" d="M364.5,460.6c-8.3,0.9-14.3-0.8-18.2-2.7v-12.3
	c4.2,2.3,10.4,4.6,18,4.1L364.5,460.6z"/>
<path fill="#FFFFFF" stroke="#000000" stroke-miterlimit="10" d="M364.7,475.3c-7.3,0.2-14-3.1-18.4-6V458c3.9,1.9,9.8,3.5,18.2,2.7
	L364.7,475.3z"/>
<path fill="#FFFFFF" stroke="#000000" stroke-miterlimit="10" d="M364.8,485.7c-9.5,1.5-15.3-1-18.5-3.5v-12.8
	c4.3,2.8,11.1,6.2,18.4,6L364.8,485.7z"/>
<path fill="#FFFFFF" stroke="#000000" stroke-miterlimit="10" d="M365.1,501.4c-5.9-0.1-13.5-3.6-18.7-6.5v-12.8
	c3.2,2.6,9,5.1,18.5,3.5L365.1,501.4z"/>
<path fill="#FFFFFF" stroke="#000000" stroke-miterlimit="10" d="M365.2,511.7c-7.9,0.9-14.5-2.2-18.9-5.3V495
	c5.2,2.8,12.8,6.3,18.7,6.5L365.2,511.7z"/>
<path fill="#FFFFFF" stroke="#000000" stroke-miterlimit="10" d="M365.4,523.8c-8.9,1.9-15.1-0.1-19.1-2.8v-14.5
	c4.4,3.1,11,6.1,18.9,5.3L365.4,523.8z"/>
<path fill="#FFFFFF" stroke="#000000" stroke-miterlimit="10" d="M365.5,534.5c-7.8,1.8-14.5,0.5-19.2-1.3V521
	c4,2.7,10.2,4.7,19.1,2.8L365.5,534.5z"/>
<path fill="#FFFFFF" stroke="#000000" stroke-miterlimit="10" d="M365.7,548.2c-8.1,0.4-15.3-3.1-19.4-5.6v-9.5
	c4.7,1.8,11.4,3.2,19.2,1.3L365.7,548.2z"/>
<path fill="#FFFFFF" stroke="#000000" stroke-miterlimit="10" d="M365.8,557.2c-6.6-5.5-13.4-6.6-19.5-5.5v-9.1
	c4.1,2.5,11.4,5.9,19.4,5.6L365.8,557.2z"/>
<path fill="#FFFFFF" stroke="#000000" stroke-miterlimit="10" d="M105.7,396.9l-0.2,10.9c-5.3,2.1-12.5,5-19.1,7.5v-22
	C90.8,395.4,97.7,396.3,105.7,396.9z"/>
<path fill="#FFFFFF" stroke="#000000" stroke-miterlimit="10" d="M105.4,407.8l-0.3,13.6l-18.8,6.6v-12.8
	C92.9,412.8,100.2,409.9,105.4,407.8z"/>
<polygon fill="#FFFFFF" stroke="#000000" stroke-miterlimit="10" points="105.1,421.5 104.9,434.1 86.3,439.9 86.3,428.1 "/>
<polygon fill="#FFFFFF" stroke="#000000" stroke-miterlimit="10" points="104.9,434.1 104.6,445.2 86.3,451.7 86.3,439.9 "/>
<polygon fill="#FFFFFF" stroke="#000000" stroke-miterlimit="10" points="104.6,445.2 104.4,456.7 86.3,464.3 86.3,451.7 "/>
<polygon fill="#FFFFFF" stroke="#000000" stroke-miterlimit="10" points="104.4,456.7 104.1,469.6 86.3,476.7 86.3,464.3 "/>
<polygon fill="#FFFFFF" stroke="#000000" stroke-miterlimit="10" points="104.1,469.6 103.9,478.8 86.3,487.2 86.3,476.7 "/>
<path fill="#FFFFFF" stroke="#000000" stroke-miterlimit="10" d="M103.9,478.8l-0.3,14.9l-8.2,2.7h0c-0.3,0-0.6,0-0.9-0.1
	c-0.3,0-0.6,0-0.9,0c-1,0-2-0.1-2.9-0.1c-1,0-2,0-3,0c-0.4,0-0.8,0-1.2,0v-9L103.9,478.8z"/>
<path fill="#FFFFFF" stroke="#000000" stroke-miterlimit="10" d="M103.6,493.7l-0.1,2.8l0,0.7c-2.7-0.4-5.4-0.6-8.2-0.8L103.6,493.7
	z"/>
<path fill="#FFFFFF" stroke="#000000" stroke-miterlimit="10" d="M174.2,484c-4.9-2.4-6.1-12.2-11-6.1c-4.9,6.1-3.7,11-8.5,4.9
	c-4.9-6.1-4.9-7.3-9.8-3.7c-4.9,3.7-7.3,9.8-12.2,1.2c-4.9-8.5-6.1,3.7-9.8,4.9c-3.6,1.2-8.4-14.3-2.7-18.2c0.1,0,0.1-0.1,0.2-0.1
	c0,0,1.4-0.2,3.5-0.1c3.3,0.1,8.4,0.8,13.5,3.8c2.2,1.3,5.7,1.6,9.8,1.5c1.2,0,2.4-0.1,3.7-0.2c8.1-0.6,17.2-2.4,22.2-2.3
	c1.1,0,2,0.2,2.7,0.4c0.3,0.1,0.6,0.3,0.8,0.5C180.3,474.3,179.1,486.5,174.2,484z"/>
<path fill="#FFFFFF" stroke="#000000" stroke-miterlimit="10" d="M323.1,481.6c-4.9-7.3-6.1,4.9-9.8,6.1c-3.7,1.2-4.9-11-7.3-9.8
	c-2.4,1.2-11,13.4-14.6,8.5c-3.7-4.9-4.9-11-9.8-8.5c-4.9,2.4,0,7.3-6.1,7.3s-3.7-7.3-3.7-7.3s0.5-5.5,3.3-8.6
	c0.9-1,2.1-1.8,3.6-2.1c1.5-0.3,3.2,0,5.3,0.9c3.9,1.7,10.8,2.2,18.3,2.5c1.2,0,2.4,0.1,3.7,0.1c8.5,0.2,17.1,0.3,22.2,1.7
	c1.5,0.4,2.7,0.9,3.6,1.6c0.5,0.4,0.9,0.9,1.1,1.5C335.3,482.8,328,488.9,323.1,481.6z"/>
<path fill="#FFFFFF" stroke="#000000" stroke-miterlimit="10" d="M331,453.5c-0.3-1.6-0.6-3.2-1-4.9c-2.9-11.5-9.4-22.6-24-24.2
	c-1.2-0.1-2.4-0.2-3.7-0.2c-18,0-24.6,12.3-26.8,24.4c-0.3,1.6-0.5,3.3-0.6,4.9c-0.6,6.6-0.1,12.6,0.3,15.8c0.9-1,2.1-1.8,3.6-2.1
	c-0.3-3.2-0.5-8.3,0.1-13.8h23.5v17.1c1.2,0,2.4,0.1,3.7,0.1v-17.2h22.1c1,8,0.5,15.6,0.1,18.9c1.5,0.4,2.7,0.9,3.6,1.6
	C332.1,470.8,332.5,462.4,331,453.5z M302.4,448.6h-22.7c2.3-9.9,8.2-19.6,22.7-20.7V448.6z M306,448.6v-20.7
	c13.2,0.6,18.9,10.3,21.3,20.7H306z"/>
<path fill="#FFFFFF" stroke="#000000" stroke-miterlimit="10" d="M302.4,427.9v20.7h-22.7C282,438.7,287.9,429,302.4,427.9z"/>
<path fill="#FFFFFF" stroke="#000000" stroke-miterlimit="10" d="M327.3,448.6H306v-20.7C319.3,428.5,325,438.2,327.3,448.6z"/>
<path fill="#FFFFFF" stroke="#000000" stroke-miterlimit="10" d="M226.7,448.6c-35.4,0-35.4,40.3-35.4,40.3l-0.1,9v0l-0.9,56.6
	c1.5,2.5,2.9,5,4.2,7.6h68.8c0,0,0.9-0.1,2.3-0.2c-0.3-14.9-0.8-48.1,0.2-62.1c0-0.1,0-0.3,0-0.4
	C266.9,481.1,261.8,448.6,226.7,448.6z M256,520.6c-3.4,0-6.1-2.7-6.1-6.1s2.7-6.1,6.1-6.1c3.4,0,6.1,2.7,6.1,6.1
	S259.4,520.6,256,520.6z"/>
<circle fill="#FFFFFF" stroke="#000000" stroke-miterlimit="10" cx="256" cy="514.5" r="6.1"/>
<path fill="#FFFFFF" stroke="#000000" stroke-miterlimit="10" d="M207.2,615.8c0,28.8-10.2,55.3-27.2,75.9
	c-12.6,4.3-23,13.5-28.8,25.3c-0.8,0.5-1.7,1.1-2.6,1.6c-0.9,0.5-1.8,1-2.6,1.5c-0.6,0.3-1.2,0.7-1.8,1c0,0,0,0,0,0
	c-0.9,0.5-1.8,1-2.7,1.4c-0.9,0.5-1.9,0.9-2.8,1.4c0,0,0,0-0.1,0c-0.9,0.4-1.8,0.8-2.8,1.3c-0.9,0.4-1.9,0.8-2.8,1.2
	c-0.9,0.4-1.9,0.7-2.8,1.1c-0.1,0-0.1,0-0.2,0.1c-1.9,0.7-3.9,1.4-5.9,2.1c-1,0.3-2,0.6-3,0.9c-1,0.3-2,0.6-3.1,0.9
	c-0.5,0.1-1,0.3-1.5,0.4c-0.5,0.1-1,0.3-1.5,0.4c-0.4,0.1-0.9,0.2-1.3,0.3c-0.6,0.1-1.1,0.2-1.7,0.4c-0.1,0-0.1,0-0.2,0
	c-1,0.2-2,0.4-3,0.6c-1,0.2-2.1,0.4-3.2,0.5c-1.1,0.2-2.1,0.3-3.2,0.4c-0.9,0.1-1.7,0.2-2.6,0.3c0,0-0.1,0-0.1,0
	c-0.4,0-0.8,0.1-1.2,0.1c-0.9,0.1-1.7,0.2-2.6,0.2c-1.2,0.1-2.4,0.2-3.7,0.2c-1.6,0.1-3.3,0.1-4.9,0.1c-2.5,0-4.9-0.1-7.3-0.2
	c-0.1,0-0.2,0-0.3,0c-0.3,0-0.6,0-0.9-0.1c-31.4-2.2-59.5-16.5-79.5-38.4V534.9c21.6-23.5,52.5-38.3,86.8-38.7c0.4,0,0.8,0,1.2,0
	c1,0,2,0,3,0c1,0,2,0.1,2.9,0.1c0.3,0,0.6,0,0.9,0c0.3,0,0.6,0,0.9,0.1h0c2.8,0.2,5.5,0.4,8.2,0.8c1.9,0.3,3.8,0.5,5.8,0.9h0
	c5,0.9,9.9,2.1,14.7,3.7h0c28,8.9,51.5,27.9,66.3,52.7c1.5,2.5,2.9,5,4.2,7.6C202.6,578.3,207.2,596.5,207.2,615.8z"/>
<path fill="#FFFFFF" stroke="#000000" stroke-miterlimit="10" d="M364.6,853.9v17c0,3.7-18.3,4.9-18.3-2.4s12.2-4.9,12.2-4.9v-10
	c1.6,0.1,3.3,0.2,5,0.3C363.9,853.9,364.3,853.9,364.6,853.9z"/>
<path fill="#FFFFFF" stroke="#000000" stroke-miterlimit="10" d="M397.6,872.1v-18c2.1-0.1,4.1-0.2,6.1-0.4v11.1
	c0,0,12.2-4.9,13.4,3.7S397.6,872.1,397.6,872.1z"/>
<path fill="#FFFFFF" stroke="#000000" stroke-miterlimit="10" d="M289,803.8c4.9,2.4,3.7,8.5,3.7,8.5c0,4.9-4.9-1.2-4.9-1.2
	c-1.2,7.3-3.7,3.7-3.7,3.7s0-8.5-1.2-4.9c-1.2,3.7-2.4,1.2-2.4,1.2c0-7.3,4.9-8.5,4.9-8.5c0.9-12.2,10.5-17.9,14.9-19.9l1.4,4.6
	C290.9,790.4,289,803.8,289,803.8z"/>
<path fill="#FFFFFF" stroke="#000000" stroke-miterlimit="10" d="M478.1,745.2c0,0-6.1,3.7-6.1,7.3c0,3.5-10.2,17.3-19.7,21.5
	c0.1-2.3,0.1-4.5,0.2-6.5c5-3.1,13.5-9.4,13.5-16.3c0,0-6.1-2.4-1.2-6.1c0,0,0-6.1,3.7-6.1c0,0,1.2,0,1.2,1.2c0,0,0-2.4,3.7-1.2
	c0,0,2.4,1.2,1.2,3.7C474.5,742.8,480.6,742.8,478.1,745.2z"/>
<circle fill="#FFFFFF" stroke="#000000" stroke-miterlimit="10" cx="323.1" cy="733" r="17.1"/>
<circle fill="#FFFFFF" stroke="#000000" stroke-miterlimit="10" cx="423.2" cy="726.9" r="15.9"/>
<circle fill="#FFFFFF" stroke="#000000" stroke-miterlimit="10" cx="396.4" cy="713.5" r="4.9"/>
<circle fill="#FFFFFF" stroke="#000000" stroke-miterlimit="10" cx="346.3" cy="718.4" r="6.1"/>
<path fill="#FFFFFF" stroke="#000000" stroke-miterlimit="10" d="M384.2,725.7c0,5.4-4.4-2.4-9.8-2.4s-9.8,7.8-9.8,2.4
	c0-5.4,4.4-9.8,9.8-9.8S384.2,720.3,384.2,725.7z"/>
<path fill="#FFFFFF" stroke="#000000" stroke-miterlimit="10" d="M453.7,434.8c-3.2-4.8-7.8-8.6-13.2-10.8
	c-3.5-1.4-7.2-2.2-11.2-2.2c-4.6,0-8.9,1-12.8,2.9c-5.1,2.5-9.4,6.4-12.4,11.3c-2.6,4.4-4.2,9.5-4.2,15c0,7.3,2.7,14.1,7.2,19.2
	c1.4,1.6,3,3.1,4.7,4.4c4.9,3.6,10.9,5.7,17.4,5.7c7.6,0,14.6-2.9,19.8-7.7c1-0.9,1.9-1.8,2.7-2.8c4.2-5.1,6.8-11.6,6.8-18.7
	C458.6,445.1,456.8,439.5,453.7,434.8z M429.3,447.4c2.7,0,4.9,2.2,4.9,4.9c0,2.7-2.2,4.9-4.9,4.9c-2.7,0-4.9-2.2-4.9-4.9
	C424.4,449.6,426.6,447.4,429.3,447.4z M414.7,453.5c-2,0-3.7-1.6-3.7-3.7c0-2,1.6-3.7,3.7-3.7s3.7,1.6,3.7,3.7
	C418.3,451.9,416.7,453.5,414.7,453.5z M440.4,457.7c-3,4.4-11.7,14.8-21.3,0.7c-0.1-0.2,0.1-0.4,0.3-0.3c2.9,2.3,11.3,7.2,20.6-0.7
	C440.3,457.1,440.6,457.4,440.4,457.7z M442.7,451.1c-1.3,0-2.4-1.1-2.4-2.4c0-1.3,1.1-2.4,2.4-2.4c1.3,0,2.4,1.1,2.4,2.4
	C445.2,450,444.1,451.1,442.7,451.1z"/>
<circle fill="#FFFFFF" stroke="#000000" stroke-miterlimit="10" cx="414.7" cy="449.8" r="3.7"/>
<circle fill="#FFFFFF" stroke="#000000" stroke-miterlimit="10" cx="429.3" cy="452.3" r="4.9"/>
<path fill="#FFFFFF" stroke="#000000" stroke-miterlimit="10" d="M440.4,457.7c-3,4.4-11.7,14.8-21.3,0.7c-0.1-0.2,0.1-0.4,0.3-0.3
	c2.9,2.3,11.3,7.2,20.6-0.7C440.3,457.1,440.6,457.4,440.4,457.7z"/>
<circle fill="#FFFFFF" stroke="#000000" stroke-miterlimit="10" cx="442.7" cy="448.6" r="2.4"/>
<path fill="#FFFFFF" stroke="#000000" stroke-miterlimit="10" d="M461,496.2c0,2.4-0.3,4.8-0.9,7c-2.6,10.4-10.7,18.7-21.1,21.3
	c-2.3,0.6-4.8,0.9-7.3,0.9c-1.3,0-2.5-0.1-3.7-0.2c-9.8-1.2-18.1-7.3-22.4-15.8c-1.5-2.9-2.5-6.1-2.9-9.5c-0.2-1.2-0.2-2.5-0.2-3.8
	c0-8.5,3.7-16.2,9.5-21.6c4.9,3.6,10.9,5.7,17.4,5.7c7.6,0,14.6-2.9,19.8-7.7c6.2,4.6,10.6,11.6,11.6,19.6
	C461,493.6,461,494.9,461,496.2z"/>
<path fill="#FFFFFF" stroke="#000000" stroke-miterlimit="10" d="M402.5,496.2c0,1.3,0.1,2.5,0.2,3.8c-7.1,6.5-17.6,13.6-22.2,3.6
	c-5.9-12.7,17.3-27.8,26.7-33.3c1.4,1.6,3,3.1,4.7,4.4C406.1,480,402.5,487.7,402.5,496.2z"/>
<path fill="#FFFFFF" stroke="#000000" stroke-miterlimit="10" d="M481.8,474.3c-6.5,6.5-13.5,15.1-21,18c-1.1-8-5.4-15-11.6-19.6
	c1-0.9,1.9-1.8,2.7-2.8c6.2-2.7,14.2-6.7,17.8-10.2C475.7,453.5,491.6,464.5,481.8,474.3z"/>
<path fill="#FFFFFF" stroke="#000000" stroke-miterlimit="10" d="M459.8,551.1c-7.4,0-12.3-3.4-15.4-8.1c-3.6-5.4-4.9-12.6-5.4-18.4
	c10.4-2.7,18.6-10.9,21.1-21.3c1.8,4,4.8,11,7.1,18.4C471.5,535.6,473.3,551.1,459.8,551.1z"/>
<path fill="#FFFFFF" stroke="#000000" stroke-miterlimit="10" d="M428.1,525.3c-1.3,21.4-13.4,28.9-25.6,22.2
	c-10.8-5.9-1-29.2,3.2-38C409.9,517.9,418.2,524,428.1,525.3z"/>
<path fill="#FFFFFF" stroke="#000000" stroke-miterlimit="10" d="M416.5,424.7c-5.1,2.5-9.4,6.4-12.4,11.3
	c-9.2-4.5-14.4-16.6-4.2-22.8C409.9,407.3,415,419.7,416.5,424.7z"/>
<path fill="#FFFFFF" stroke="#000000" stroke-miterlimit="10" d="M453.7,434.8c-3.2-4.8-7.8-8.6-13.2-10.8c2-4.9,6.2-12.6,12.2-12.7
	c1.1,0,2.2,0.2,3.5,0.7c0.9,0.4,1.6,0.9,2.3,1.4C465.2,419,461.5,432.3,453.7,434.8z"/>
<circle fill="#FFFFFF" stroke="#000000" stroke-miterlimit="10" cx="442.7" cy="448.6" r="2.4"/>
<circle fill="#FFFFFF" stroke="#000000" stroke-miterlimit="10" cx="414.7" cy="449.8" r="3.7"/>
<circle fill="#FFFFFF" stroke="#000000" stroke-miterlimit="10" cx="429.3" cy="452.3" r="4.9"/>
<path fill="#FFFFFF" stroke="#000000" stroke-miterlimit="10" d="M440.4,457.7c-3,4.4-11.7,14.8-21.3,0.7c-0.1-0.2,0.1-0.4,0.3-0.3
	c2.9,2.3,11.3,7.2,20.6-0.7C440.3,457.1,440.6,457.4,440.4,457.7z"/>
<path fill="#FFFFFF" stroke="#000000" stroke-miterlimit="10" d="M246.2,736.6c-40.1,9.8-84.9,1.1-99.8-2.4c0-0.5,0.1-0.9,0.1-1.4
	c0-0.3,0.1-0.5,0.1-0.8c0,0,0-0.1,0-0.1c0.1-0.7,0.2-1.5,0.4-2.2c0-0.1,0-0.2,0-0.3c0-0.3,0.1-0.6,0.2-0.8c0.1-0.4,0.2-0.7,0.3-1.1
	c0.1-0.4,0.2-0.7,0.3-1.1c0.1-0.5,0.2-0.9,0.4-1.4c0.2-0.6,0.3-1.1,0.5-1.7c0.2-0.5,0.4-1.1,0.6-1.6c0,0,0-0.1,0-0.1
	c0.1-0.3,0.2-0.6,0.3-0.8c0.1-0.3,0.2-0.6,0.3-0.8v0c0-0.1,0.1-0.2,0.1-0.3c0.1-0.3,0.3-0.7,0.4-1c0,0,0,0,0-0.1
	c0.2-0.5,0.5-1,0.7-1.6c5.8-11.8,16.1-21,28.7-25.4c5.1-1.7,10.5-2.7,16.2-2.7c0.6,0,1.3,0,1.9,0c0.6,0,1.2,0.1,1.9,0.1
	c0.7,0.1,1.4,0.1,2.1,0.2c0.5,0.1,1,0.1,1.6,0.2c0.2,0,0.5,0.1,0.7,0.1c0.2,0,0.5,0.1,0.7,0.1c0.4,0.1,0.9,0.2,1.3,0.2
	c0.3,0,0.5,0.1,0.8,0.2c0.4,0.1,0.8,0.2,1.2,0.3c0.4,0.1,0.8,0.2,1.2,0.3c0.4,0.1,0.7,0.2,1,0.3c0.8,0.2,1.6,0.5,2.4,0.8
	c0.3,0.1,0.6,0.2,0.9,0.3c0.4,0.2,0.9,0.3,1.3,0.5c0.5,0.2,1.1,0.5,1.6,0.7c0.4,0.2,0.7,0.3,1.1,0.5c0.4,0.2,0.7,0.4,1.1,0.5
	c0.4,0.2,0.7,0.4,1,0.5c0,0,0.1,0,0.1,0.1c0.7,0.4,1.3,0.7,2,1.1c0.7,0.4,1.4,0.9,2.1,1.3c0.3,0.2,0.7,0.5,1,0.7
	c0.7,0.5,1.3,1,1.9,1.4c0.3,0.2,0.5,0.4,0.8,0.6c0,0,0.1,0,0.1,0.1c0.1,0.1,0.1,0.1,0.2,0.2c0.5,0.5,1.1,0.9,1.6,1.4
	c0,0,0.1,0.1,0.1,0.1c0.5,0.5,1.1,1,1.6,1.6l0,0c0,0,0,0,0,0c0.5,0.5,1,1,1.5,1.6c0,0,0,0,0.1,0.1c0.5,0.5,0.9,1,1.3,1.5
	c0.1,0.1,0.1,0.1,0.2,0.2c0.4,0.5,0.9,1.1,1.3,1.6c0.2,0.3,0.4,0.5,0.6,0.8c0.2,0.3,0.4,0.6,0.6,0.9c0.1,0.2,0.2,0.3,0.3,0.5
	c0.4,0.5,0.7,1.1,1.1,1.6c0.2,0.3,0.4,0.6,0.5,0.9c0.2,0.3,0.4,0.6,0.5,0.9c0.4,0.8,0.9,1.6,1.3,2.4c0,0.1,0.1,0.2,0.2,0.3
	c0.2,0.5,0.4,0.9,0.6,1.4c0,0,0,0.1,0,0.1c0.1,0.2,0.2,0.5,0.3,0.7c0.2,0.4,0.3,0.7,0.5,1.1c0.6,1.5,1.1,3,1.6,4.5
	c0.1,0.4,0.2,0.7,0.3,1.1c0.1,0.4,0.2,0.8,0.3,1.2c0.1,0.4,0.2,0.8,0.3,1.2c0.1,0.4,0.2,0.8,0.3,1.2c0.1,0.4,0.2,0.8,0.2,1.2
	c0.1,0.4,0.1,0.9,0.2,1.3c0.1,0.8,0.2,1.5,0.3,2.3C246.1,735,246.1,735.8,246.2,736.6z"/>
<path fill="#FFFFFF" stroke="#000000" stroke-miterlimit="10" d="M246.2,739.1c0,4.9-0.7,9.7-2.1,14.2c-52.8,9.1-84.7,0.4-97-4.3
	c-0.6-3.2-1-6.5-1-9.9c0-1.6,0.1-3.2,0.2-4.8c14.9,3.5,59.7,12.1,99.8,2.4C246.2,737.5,246.2,738.3,246.2,739.1z"/>
<path fill="#FFFFFF" stroke="#000000" stroke-miterlimit="10" d="M244.2,753.3c-5.6,18.8-21.9,33-41.9,35.5c-2,0.2-4,0.4-6.1,0.4
	c-1.2,0-2.5,0-3.7-0.1c-22.6-1.6-41-18.3-45.4-40C159.5,753.7,191.4,762.4,244.2,753.3z"/>
<path fill="#FFFFFF" stroke="#000000" stroke-miterlimit="10" d="M202.3,788.8V899h-9.8V789c1.2,0.1,2.4,0.1,3.7,0.1
	C198.3,789.1,200.3,789,202.3,788.8z"/>
<path fill="#FFFFFF" stroke="#000000" stroke-miterlimit="10" d="M92.4,735.3v182H79V735.1c0.3,0,0.6,0,0.9,0.1c0.1,0,0.2,0,0.3,0
	c2.4,0.2,4.9,0.2,7.3,0.2C89.2,735.4,90.8,735.4,92.4,735.3z"/>
<path fill="#FFFFFF" stroke="#000000" stroke-miterlimit="10" d="M148.7,718.7c-0.9,0.5-1.8,1-2.6,1.5c-0.6,0.3-1.2,0.7-1.8,1
	c1.9-0.4,3.8-0.8,5.7-1.2v0c0-0.1,0.1-0.2,0.1-0.3c0.1-0.3,0.3-0.7,0.4-1c0,0,0,0,0-0.1c0.2-0.5,0.5-1,0.7-1.6
	C150.4,717.6,149.5,718.2,148.7,718.7z M-0.5,696.8v56.8c0.5-0.1,1.1-0.3,1.7-0.4c1.4-0.3,2.9-0.7,4.5-1c1.1-0.3,2.2-0.5,3.3-0.8
	c0.5-0.1,0.9-0.2,1.4-0.3c0.5-0.1,0.9-0.2,1.4-0.3c0.8-0.2,1.6-0.4,2.5-0.6c1-0.2,2.1-0.5,3.1-0.7c0.5-0.1,1.1-0.3,1.6-0.4
	c1-0.2,2-0.5,3-0.7c1.5-0.4,3-0.7,4.6-1.1c1.5-0.4,3.1-0.7,4.6-1.1c1.6-0.4,3.3-0.8,5-1.1c1.6-0.4,3.2-0.7,4.8-1.1
	c1.8-0.4,3.5-0.8,5.3-1.2c2.3-0.5,4.6-1.1,7-1.6c0.2,0,0.4-0.1,0.6-0.1c1.7-0.4,3.5-0.8,5.2-1.2c0.9-0.2,1.8-0.4,2.7-0.6
	c1.9-0.4,3.8-0.8,5.7-1.3c3.8-0.9,7.7-1.7,11.7-2.6v-0.3C47.6,732.9,19.5,718.6-0.5,696.8z"/>
<path fill="#FFFFFF" stroke="#000000" stroke-miterlimit="10" d="M404.2,436c-2.6,4.4-4.2,9.5-4.2,15c0,7.3,2.7,14.1,7.2,19.2
	c-9.4,5.5-32.6,20.6-26.7,33.3c4.6,10,15.1,3,22.2-3.6c0.4,3.4,1.4,6.6,2.9,9.5c-4.2,8.9-14,32.1-3.2,38
	c12.2,6.6,24.3-0.8,25.6-22.2c1.2,0.2,2.4,0.2,3.7,0.2c2.5,0,5-0.3,7.3-0.9c0.4,5.8,1.8,13,5.4,18.4c-28.4,28.7-50.5,59.2-65.1,81.5
	c-3-5.3-8.4-8.4-11.1-6.3c-0.8,0.6-1.6,1.1-2.3,1.5c-8.7-25.6-23.3-21.1-23.3-21.1s17.1,8,20.2,22.3c-0.9,0.2-1.7,0.3-2.4,0.3
	c-2.2,0-4.2,1.1-5.2,3.1c-0.4,0.8-0.7,1.5-1,2.2c-0.5,0.1-0.7,0.1-0.7,0.1c-44.4,12.5-61.6,35.7-66.6,58.9c-0.2,0.9-0.4,1.9-0.5,2.8
	c-0.1,0.5-0.2,1-0.3,1.6c-0.1,0.7-0.2,1.4-0.3,2.1c0,0,0,0,0,0.1v0c-0.1,0.7-0.2,1.4-0.2,2.1c-16.5,2.5-34.9,5.7-54.2,9.3l0,0
	c-0.5-0.5-1.1-1-1.6-1.6c0,0-0.1-0.1-0.1-0.1c-0.5-0.5-1.1-1-1.6-1.4c-0.1-0.1-0.1-0.1-0.2-0.2c0,0-0.1,0-0.1-0.1
	c-0.3-0.2-0.5-0.4-0.8-0.6c-0.6-0.5-1.3-1-1.9-1.4c-0.3-0.2-0.7-0.5-1-0.7c-0.7-0.5-1.4-0.9-2.1-1.3c-0.6-0.4-1.3-0.8-2-1.1
	c0,0-0.1-0.1-0.1-0.1c-0.3-0.2-0.7-0.4-1-0.5c-0.4-0.2-0.7-0.4-1.1-0.5c-0.4-0.2-0.7-0.3-1.1-0.5c-0.5-0.2-1.1-0.5-1.6-0.7
	c-0.4-0.2-0.9-0.3-1.3-0.5c-0.3-0.1-0.6-0.2-0.9-0.3c-0.8-0.3-1.6-0.5-2.4-0.8c-0.3-0.1-0.7-0.2-1-0.3c-0.4-0.1-0.8-0.2-1.2-0.3
	c-0.4-0.1-0.8-0.2-1.2-0.3c-0.3-0.1-0.5-0.1-0.8-0.2c-0.4-0.1-0.9-0.2-1.3-0.2c-0.2,0-0.5-0.1-0.7-0.1c-0.2,0-0.5-0.1-0.7-0.1
	c-0.5-0.1-1-0.1-1.6-0.2c-0.7-0.1-1.4-0.1-2.1-0.2c-0.6,0-1.2-0.1-1.9-0.1c-0.6,0-1.2,0-1.9,0c-5.7,0-11.1,0.9-16.2,2.7
	c17-20.7,27.2-47.1,27.2-75.9c0-19.3-4.6-37.6-12.7-53.7h68.8c0,0,0.9-0.1,2.3-0.2c5.3-0.3,18-0.2,20.9,7.5c0,0,17.1-18.3,36.6-3.7
	c0,0,10.2-11.9,23.2-14.1c6.1-1,12.9,0,19.5,5.5l-0.1-9l-0.2-13.7l-0.1-10.7l-0.2-12.1l-0.1-10.3l-0.2-15.7l-0.1-10.4l-0.2-14.7
	l-0.1-10.9l-0.2-11.1L364,427l-0.2-14l-0.3-20.9c3.4-1.1,6.2-2.8,8.3-5.8c25.9,6.3,52.8,14.6,80.9,25c-6,0.1-10.2,7.9-12.2,12.7
	c-3.5-1.4-7.2-2.2-11.2-2.2c-4.6,0-8.9,1-12.8,2.9c-1.6-5-6.7-17.4-16.5-11.5C389.8,419.4,395,431.6,404.2,436z"/>
<path fill="#FFFFFF" stroke="#000000" stroke-miterlimit="10" d="M569.6,465.2c-38.4,9.5-72.9,31-102.3,56.4
	c-2.3-7.4-5.3-14.4-7.1-18.4c0.6-2.2,0.9-4.6,0.9-7c0-1.3-0.1-2.7-0.3-4c7.6-2.9,14.6-11.5,21-18c9.8-9.8-6.1-20.7-12.2-14.6
	c-3.5,3.5-11.6,7.5-17.8,10.2c4.2-5.1,6.8-11.6,6.8-18.7c0-6-1.8-11.6-4.9-16.2c7.8-2.5,11.5-15.8,4.8-21.4
	c5.8,2.2,11.6,4.5,17.4,6.9C506,432.6,537.3,447.5,569.6,465.2z"/>
<path fill="#FFFFFF" stroke="#000000" stroke-miterlimit="10" d="M999.5,873.8v125.7H701.3c-60.3-116.6-200.8-238.4-245-275
	c3.6-19.9-3.8-42.7-3.8-42.7c-0.5-1.3-0.9-2.6-1.4-3.9c-0.3-0.6-0.5-1.3-0.8-1.9c0,0,0,0,0-0.1c-0.2-0.5-0.4-0.9-0.6-1.4
	c-0.2-0.5-0.4-1-0.6-1.4c0-0.1,0-0.1-0.1-0.2c0,0,0-0.1,0-0.1c-0.2-0.4-0.4-0.9-0.6-1.3c0,0,0,0,0,0c-0.1-0.3-0.3-0.6-0.4-0.9
	c-0.3-0.5-0.5-1-0.8-1.6c-0.1-0.2-0.2-0.4-0.3-0.7c-0.3-0.6-0.6-1.2-0.9-1.8c0-0.1-0.1-0.1-0.1-0.2c0-0.1-0.1-0.1-0.1-0.2
	c-0.3-0.6-0.7-1.3-1.1-1.9c-0.4-0.7-0.8-1.4-1.2-2c-0.4-0.6-0.7-1.2-1.1-1.7c-0.4-0.6-0.8-1.2-1.2-1.8c-0.5-0.7-1-1.4-1.5-2.1
	c-0.4-0.5-0.8-1-1.2-1.6c-0.5-0.6-1-1.3-1.5-1.9c-0.4-0.4-0.7-0.9-1.1-1.3c-0.2-0.2-0.4-0.4-0.6-0.7c-0.3-0.4-0.7-0.8-1.1-1.2
	c-0.3-0.4-0.7-0.8-1.1-1.2c0,0,0,0,0-0.1c-0.6-0.6-1.1-1.2-1.7-1.7C458.5,631,488,612.2,522,595c3.6,1.6,7.6,3.3,12,5.2
	c0.9,0.4,1.7,0.8,2.6,1.1c2.4,1.1,5,2.2,7.6,3.4c0.8,0.3,1.5,0.7,2.3,1c0.1,0,0.2,0.1,0.3,0.1c0.9,0.4,1.7,0.8,2.6,1.2
	c0.5,0.2,1.1,0.5,1.6,0.7c1,0.5,2,0.9,3.1,1.4c3.8,1.7,7.8,3.5,11.9,5.4c0.9,0.4,1.8,0.8,2.7,1.3c1.1,0.5,2.3,1,3.4,1.6
	c0.9,0.4,1.9,0.8,2.8,1.3c1.5,0.7,3,1.4,4.5,2.1c1.1,0.5,2.2,1,3.4,1.6c2,0.9,4,1.8,6,2.8c1.1,0.5,2.2,1,3.3,1.5
	c1.9,0.9,3.8,1.8,5.8,2.7c1.6,0.8,3.2,1.5,4.9,2.3c1.6,0.8,3.3,1.6,5,2.4c4.7,2.2,9.5,4.5,14.3,6.8c1.2,0.6,2.4,1.2,3.7,1.8
	c2.9,1.4,5.8,2.8,8.8,4.3c2,1,4.1,2,6.1,3c4.5,2.2,9.2,4.5,13.8,6.8c1.4,0.7,2.7,1.3,4.1,2c9.7,4.8,19.5,9.8,29.6,15
	c1.4,0.7,2.7,1.4,4.1,2.1c4.1,2.1,8.3,4.3,12.5,6.5c1.4,0.7,2.8,1.5,4.2,2.2c9.8,5.1,19.7,10.4,29.8,15.8c1.4,0.8,2.9,1.5,4.3,2.3
	c15.8,8.5,31.8,17.4,47.8,26.6c2.8,1.6,5.5,3.2,8.3,4.8c4.5,2.6,9,5.3,13.6,7.9c1.5,0.8,2.9,1.7,4.4,2.6c1.7,1,3.4,2,5.1,3
	c1.2,0.7,2.4,1.4,3.6,2.2c3,1.8,5.9,3.6,8.9,5.4c2.8,1.7,5.7,3.5,8.5,5.2c0.7,0.4,1.4,0.8,2.1,1.3c1.4,0.9,2.9,1.8,4.3,2.7
	c0.9,0.6,1.8,1.2,2.8,1.7c1.2,0.8,2.5,1.6,3.7,2.3c4.4,2.8,8.8,5.5,13.1,8.3c2.7,1.8,5.5,3.5,8.2,5.3c5.6,3.7,11.2,7.4,16.7,11.1
	c1.4,0.9,2.8,1.9,4.1,2.8c4.1,2.8,8.2,5.6,12.3,8.4c1.4,0.9,2.7,1.9,4,2.8s2.7,1.9,4,2.8c1.5,1.1,3.1,2.2,4.6,3.3
	c1.1,0.8,2.3,1.6,3.4,2.4c2.6,1.9,5.3,3.8,7.9,5.7c1.3,1,2.6,1.9,3.9,2.9c1,0.7,2,1.4,2.9,2.2c4.3,3.2,8.6,6.4,12.8,9.7
	c1.1,0.9,2.3,1.7,3.4,2.6c2.5,1.9,5,3.9,7.4,5.8c1.1,0.8,2.1,1.7,3.2,2.6c2.6,2.1,5.1,4.1,7.6,6.2c1.2,1,2.4,2,3.5,2.9
	c1.2,1,2.3,1.9,3.5,2.9c3.5,3,6.9,5.9,10.3,8.9c1.1,1,2.2,2,3.3,3c1,0.9,2,1.7,2.9,2.6C999.2,873.5,999.4,873.6,999.5,873.8z"/>
<path fill="#FFFFFF" stroke="#000000" stroke-miterlimit="10" d="M701.3,999.5H-0.5V753.6c0.5-0.1,1.1-0.3,1.7-0.4
	c1.4-0.3,2.9-0.7,4.5-1c1.1-0.3,2.2-0.5,3.3-0.8c0.5-0.1,0.9-0.2,1.4-0.3c0.5-0.1,0.9-0.2,1.4-0.3c0.8-0.2,1.6-0.4,2.5-0.6
	c1-0.2,2.1-0.5,3.1-0.7c0.5-0.1,1.1-0.3,1.6-0.4c1-0.2,2-0.5,3-0.7c1.5-0.4,3-0.7,4.6-1.1c1.5-0.4,3.1-0.7,4.6-1.1
	c1.6-0.4,3.3-0.8,5-1.1c1.6-0.4,3.2-0.7,4.8-1.1c1.8-0.4,3.5-0.8,5.3-1.2c2.3-0.5,4.6-1,7-1.6c0.2,0,0.4-0.1,0.6-0.1
	c1.7-0.4,3.5-0.8,5.2-1.2c0.9-0.2,1.8-0.4,2.7-0.6c1.9-0.4,3.8-0.8,5.7-1.3c3.8-0.9,7.7-1.7,11.7-2.6v181.9h13.4v-182
	c1.2,0,2.4-0.1,3.7-0.2c0.9-0.1,1.7-0.1,2.6-0.2c0.4,0,0.8-0.1,1.2-0.1c0,0,0.1,0,0.1,0c0.9-0.1,1.7-0.2,2.6-0.3
	c1.1-0.1,2.1-0.3,3.2-0.4c1-0.2,2.1-0.3,3.2-0.5c1-0.2,2-0.4,3-0.6c0,0,0.1,0,0.2,0c0.6-0.1,1.1-0.3,1.7-0.4
	c0.5-0.1,0.9-0.2,1.3-0.3c0.5-0.1,1-0.2,1.5-0.4c0.5-0.1,1-0.3,1.5-0.4c1-0.3,2-0.6,3.1-0.9c1-0.3,2-0.6,3-0.9c2-0.6,4-1.3,5.9-2.1
	c0.1,0,0.1-0.1,0.2-0.1c0.9-0.4,1.9-0.7,2.8-1.1c0.9-0.4,1.8-0.8,2.8-1.2c0.9-0.4,1.8-0.8,2.8-1.3c0,0,0,0,0.1,0
	c0.9-0.4,1.8-0.9,2.8-1.4c0.9-0.5,1.8-0.9,2.7-1.4c0,0,0,0,0,0c1.9-0.4,3.8-0.8,5.7-1.2v0c-0.1,0.3-0.2,0.5-0.3,0.8
	c-0.1,0.3-0.2,0.6-0.3,0.8c0,0,0,0,0,0.1c-0.2,0.5-0.4,1.1-0.6,1.6c-0.2,0.6-0.4,1.1-0.5,1.7c-0.1,0.5-0.3,0.9-0.4,1.4
	c-0.1,0.3-0.2,0.7-0.3,1.1c-0.1,0.4-0.2,0.7-0.3,1.1c-0.1,0.3-0.1,0.6-0.2,0.8c0,0.1,0,0.2,0,0.3c-0.2,0.7-0.3,1.5-0.4,2.2
	c0,0,0,0.1,0,0.1c0,0.3-0.1,0.5-0.1,0.8c-0.1,0.5-0.1,0.9-0.2,1.4c-0.2,1.6-0.2,3.2-0.2,4.8c0,3.4,0.3,6.7,1,9.9
	c4.4,21.7,22.8,38.3,45.4,40v110h9.8V788.8c20-2.4,36.3-16.6,41.9-35.5c1.3-4.5,2.1-9.3,2.1-14.2c0-0.8,0-1.6-0.1-2.5
	c0-0.8-0.1-1.7-0.2-2.5c-0.1-0.8-0.2-1.5-0.3-2.3c-0.1-0.5-0.1-0.9-0.2-1.3c-0.1-0.4-0.1-0.8-0.2-1.2c-0.1-0.4-0.2-0.8-0.3-1.2
	c-0.1-0.4-0.2-0.8-0.3-1.2c-0.1-0.4-0.2-0.8-0.3-1.2c-0.1-0.4-0.2-0.7-0.3-1.1c-0.5-1.5-1-3-1.6-4.5c-0.1-0.4-0.3-0.7-0.5-1.1
	c-0.1-0.2-0.2-0.5-0.3-0.7c0,0,0-0.1,0-0.1c-0.2-0.5-0.4-0.9-0.6-1.4c0-0.1-0.1-0.2-0.2-0.3c-0.4-0.8-0.8-1.6-1.3-2.4
	c-0.2-0.3-0.3-0.6-0.5-0.9c-0.2-0.3-0.3-0.6-0.5-0.9c-0.3-0.5-0.7-1.1-1.1-1.6c-0.1-0.2-0.2-0.3-0.3-0.5c-0.2-0.3-0.4-0.6-0.6-0.9
	c-0.2-0.3-0.4-0.5-0.6-0.8c-0.4-0.5-0.8-1.1-1.3-1.6c-0.1-0.1-0.1-0.2-0.2-0.2c-0.4-0.5-0.9-1-1.3-1.5c0,0-0.1-0.1-0.1-0.1
	c-0.5-0.5-1-1.1-1.5-1.6c0,0,0,0,0,0c19.3-3.6,37.7-6.8,54.2-9.3c0,0.5-0.1,1-0.1,1.6c0,0.6-0.1,1.1-0.1,1.7c0,0.4,0,0.8,0,1.2v0.2
	c0,1.4,0,2.9,0,4.3c0,0,0,0,0,0.1c0.1,2.9,0.3,5.7,0.6,8.5c0.1,1.1,0.3,2.2,0.4,3.3c0,0,0,0,0,0c0.1,0.8,0.2,1.6,0.4,2.3
	c0,0,0,0,0,0c0.1,0.8,0.3,1.5,0.4,2.3c0.6,3.2,1.4,6.2,2.2,9c0.2,0.8,0.5,1.6,0.7,2.4c0.8,2.8,1.8,5.5,2.6,7.8
	c0.2,0.5,0.4,0.9,0.5,1.4c0.1,0.3,0.2,0.5,0.3,0.8c0.2,0.4,0.3,0.8,0.5,1.3c0.3,0.8,0.6,1.6,1,2.3c0.2,0.4,0.4,0.8,0.5,1.2
	c0.2,0.4,0.4,0.8,0.5,1.2c0.1,0.3,0.3,0.6,0.4,0.9c1.3,2.7,2.1,4.3,2.1,4.3c-12.7,6.4-5.9,13.4-1.5,16.6c-0.3,0.2-0.6,0.3-0.9,0.5
	l3.9,13.1c-4.4,2-13.9,7.7-14.9,19.9c0,0-4.9,1.2-4.9,8.5c0,0,1.2,2.4,2.4-1.2c1.2-3.7,1.2,4.9,1.2,4.9s2.4,3.7,3.7-3.7
	c0,0,4.9,6.1,4.9,1.2c0,0,1.2-6.1-3.7-8.5c0,0,1.9-13.4,12.6-16.5l14.3,48.2c0,0,2.2,13,14.6,15.5c0.8,0.2,1.6,0.3,2.5,0.4
	c2.8,0.2,8,0.8,14.7,1.3c3.3,0.3,7,0.6,11,0.8v10c0,0-12.2-2.4-12.2,4.9s18.3,6.1,18.3,2.4v-17c4.6,0.2,9.4,0.4,14.3,0.5
	c6.2,0.1,12.5,0,18.6-0.3v18c0,0,20.8,4.9,19.5-3.7c-1.2-8.5-13.4-3.7-13.4-3.7v-11.1c3.6-0.3,7.1-0.7,10.5-1.2
	c6.4-1,12.1-2.5,16.8-4.6c4.9-2.2,8.6-5,10.6-8.7c7.8-14.9,10.1-45.2,10.8-65.1c9.5-4.2,19.7-18,19.7-21.5c0-3.7,6.1-7.3,6.1-7.3
	c2.5-2.4-3.7-2.4-3.7-2.4c1.2-2.4-1.2-3.7-1.2-3.7c-3.7-1.2-3.7,1.2-3.7,1.2c0-1.2-1.2-1.2-1.2-1.2c-3.7,0-3.7,6.1-3.7,6.1
	c-4.9,3.7,1.2,6.1,1.2,6.1c0,6.9-8.5,13.1-13.5,16.3c0.1-5.4,0.1-9.4,0.1-11.4c5.4-10-2.5-15.9-2.5-15.9c3.3-4.6,5.2-10.1,6.2-15.8
	C500.5,761.1,641,882.9,701.3,999.5z"/>
<path fill="#FFFFFF" stroke="#000000" stroke-miterlimit="10" d="M999.5,540v333.8c-0.1-0.1-0.3-0.2-0.4-0.3c-1-0.9-1.9-1.8-2.9-2.6
	c-1.1-1-2.2-2-3.3-3c-3.4-3-6.8-5.9-10.3-8.9c-1.2-1-2.3-2-3.5-2.9c-1.2-1-2.3-2-3.5-2.9c-2.5-2.1-5.1-4.1-7.6-6.2
	c-1.1-0.9-2.1-1.7-3.2-2.6c-2.4-2-4.9-3.9-7.4-5.8c-1.1-0.9-2.3-1.8-3.4-2.6c-4.2-3.2-8.4-6.5-12.8-9.7c-1-0.7-2-1.5-2.9-2.2
	c-1.3-1-2.6-1.9-3.9-2.9c-2.6-1.9-5.2-3.8-7.9-5.7c-1.1-0.8-2.2-1.6-3.4-2.4c-1.5-1.1-3.1-2.2-4.6-3.3c-1.3-1-2.7-1.9-4-2.8
	s-2.7-1.9-4-2.8c-4.1-2.8-8.2-5.6-12.3-8.4c-1.4-0.9-2.8-1.9-4.1-2.8c-5.5-3.7-11.1-7.4-16.7-11.1c-2.7-1.8-5.4-3.5-8.2-5.3
	c-4.3-2.8-8.7-5.6-13.1-8.3c-1.2-0.8-2.5-1.6-3.7-2.3c-0.9-0.6-1.9-1.2-2.8-1.7c-1.4-0.9-2.9-1.8-4.3-2.7c-0.7-0.4-1.4-0.9-2.1-1.3
	c-2.8-1.7-5.6-3.5-8.5-5.2c-3-1.8-5.9-3.6-8.9-5.4c-1.2-0.7-2.4-1.4-3.6-2.2c-1.7-1-3.4-2-5.1-3c-1.5-0.9-2.9-1.7-4.4-2.6
	c-4.5-2.7-9-5.3-13.6-7.9c-2.8-1.6-5.5-3.2-8.3-4.8c-16-9.2-32-18.1-47.8-26.6c-1.4-0.8-2.9-1.6-4.3-2.3c-10-5.4-20-10.7-29.8-15.8
	c-1.4-0.7-2.8-1.5-4.2-2.2c-4.2-2.2-8.3-4.3-12.5-6.5c-1.4-0.7-2.8-1.4-4.1-2.1c-10.1-5.2-20-10.2-29.6-15c-1.4-0.7-2.7-1.4-4.1-2
	c-4.7-2.3-9.3-4.6-13.8-6.8c-2.1-1-4.1-2-6.1-3c-3-1.5-5.9-2.9-8.8-4.3c-1.2-0.6-2.4-1.2-3.7-1.8c-4.9-2.3-9.7-4.6-14.3-6.8
	c-1.7-0.8-3.3-1.6-5-2.4c-1.6-0.8-3.3-1.5-4.9-2.3c-1.9-0.9-3.8-1.8-5.8-2.7c-1.1-0.5-2.2-1-3.3-1.5c-2-0.9-4-1.9-6-2.8
	c-1.1-0.5-2.3-1-3.4-1.6c-1.5-0.7-3-1.4-4.5-2.1c-0.9-0.4-1.9-0.9-2.8-1.3c-1.1-0.5-2.3-1.1-3.4-1.6c-0.9-0.4-1.8-0.8-2.7-1.3
	c-4.1-1.9-8.1-3.7-11.9-5.4c-1-0.5-2.1-0.9-3.1-1.4c-0.5-0.2-1.1-0.5-1.6-0.7c-0.9-0.4-1.7-0.8-2.6-1.2c-0.1,0-0.2-0.1-0.3-0.1
	c-0.8-0.3-1.5-0.7-2.3-1c-2.6-1.2-5.1-2.3-7.6-3.4c-0.9-0.4-1.7-0.8-2.6-1.1c-4.3-1.9-8.3-3.6-12-5.2c44.6-22.6,96.8-42.5,161-50
	c0,0.7,0,1.3,0,2c0,0.1,0,0.2,0,0.3c0,1,0,2,0.1,3c0,0.7,0.1,1.4,0.1,2.1c0,0,2.4,47.6,20.8,65.9c0,0-36.6,22-15.9,30.5
	c20.8,8.5,45.2,0,45.2,0s3.7,43.9,62.3,11c0,0,28.1,39.1,68.4,2.4c0,0,33,34.2,50-7.3c0,0,27.6,9.5,26.5-11.8
	c-0.4-6.8-3.5-13.2-9-17.3c-1.7-1.3-3.5-2.3-5.3-2.7c0,0,9.7-25,15-51c3.8,0.9,8.6,0.5,13-3.9l4.4-26.8l1.4-8.4
	c6,0.7,11.9,1.4,17.8,2.4c1.9,0.3,3.8,0.6,5.7,1c0.9,0.2,1.7,0.3,2.6,0.5c0.9,0.2,1.9,0.4,2.8,0.6c0.9,0.2,1.8,0.4,2.6,0.6
	c0.9,0.2,1.8,0.4,2.7,0.6C995.9,539.1,997.7,539.5,999.5,540z"/>
<path fill="#FFFFFF" stroke="#000000" stroke-miterlimit="10" d="M999.5,501.3V540c-1.8-0.5-3.6-0.9-5.4-1.3
	c-0.9-0.2-1.8-0.4-2.7-0.6c-0.9-0.2-1.7-0.4-2.6-0.6c-0.9-0.2-1.9-0.4-2.8-0.6c-0.9-0.2-1.7-0.3-2.6-0.5c-1.9-0.4-3.8-0.7-5.7-1
	c0.6-1.2,1.2-2.4,1.9-3.6c0.3-0.5,0.5-1,0.8-1.5c1.5-2.8,3.1-5.6,4.8-8.3c0.4-0.7,0.8-1.3,1.2-2c0.5-0.7,0.9-1.4,1.4-2.1
	c0.8-1.2,1.5-2.3,2.3-3.5c0.4-0.6,0.8-1.1,1.1-1.7c0.4-0.6,0.8-1.1,1.2-1.7c0.8-1.1,1.6-2.2,2.3-3.3c0.4-0.5,0.8-1,1.1-1.6
	C997.1,504.5,998.3,502.9,999.5,501.3z"/>
<path fill="#FFFFFF" stroke="#000000" stroke-miterlimit="10" d="M999.5,307.6v193.7c-1.2,1.6-2.4,3.2-3.6,4.8
	c-0.4,0.5-0.8,1-1.1,1.6c-0.8,1.1-1.6,2.2-2.3,3.3c-0.4,0.6-0.8,1.1-1.2,1.7c-0.4,0.6-0.8,1.1-1.1,1.7c-0.8,1.2-1.5,2.3-2.3,3.5
	c-0.5,0.7-0.9,1.4-1.4,2.1c-0.4,0.7-0.8,1.3-1.2,2c-1.7,2.7-3.3,5.5-4.8,8.3c-0.3,0.5-0.5,1-0.8,1.5c-0.6,1.2-1.3,2.4-1.9,3.6
	c-5.8-1-11.7-1.8-17.8-2.4L997,307l0-0.2c0.1,0,0.2,0.1,0.3,0.1C998.1,307.1,998.8,307.4,999.5,307.6z"/>
<path fill="#FFFFFF" stroke="#000000" stroke-miterlimit="10" d="M-0.5,423.2c17.7-9.9,45.4-23.2,82.1-34.2"/>
<path fill="#FFFFFF" stroke="#000000" stroke-miterlimit="10" d="M917.7,288.8c-24.4,19-50.5,40-74.5,59.6
	c-65.2,28.5-141.2,76.3-207.3,156.5c-22.6-14.6-44.7-27.8-66.3-39.7c-32.3-17.8-63.6-32.6-93.7-44.9c13.1-8.8,34.5-22.5,62.1-37.8
	c7.4,9.3,15.6,17.2,24.2,23.7c-20.8-2.5-35.3,8.2-35.3,8.2c42.7-11,59.8,15.9,59.8,15.9c19.5-13.4,43.9,11,43.9,11
	c14.6-20.7,31.7-3.7,31.7-3.7c11-20.7,36.6-11,36.6-11c13.4-20.7,42.7-23.2,42.7-23.2c-2.8-1.5-5.6-2.5-8.3-3
	c24.5-18.4,41.2-48.3,40-94.7c-0.1-3.8-0.3-7.4-0.5-11c15-2.8,30.3-5,45.7-6.5v46.8h9.8v-47.7C857.8,285.1,887.8,285.3,917.7,288.8z
	"/>
<path fill="#FFFFFF" stroke="#000000" stroke-miterlimit="10" d="M843.2,348.5c-47.6,38.9-86.8,72.1-86.8,72.1
	s-69.8,31.6-73.3,116.5c-15.9-11.4-31.7-22.1-47.2-32.2C702.1,424.7,778.1,376.9,843.2,348.5z"/>
<path fill="#FFFFFF" stroke="#000000" stroke-miterlimit="10" d="M683.1,537.1c-0.1,2.6-0.2,5.2-0.1,7.8
	c-64.2,7.6-116.4,27.4-161,50c-33.9,17.2-63.5,36-90.7,52.3c-0.5-0.5-1-1-1.5-1.4c-0.4-0.4-0.8-0.7-1.2-1.1c-1-0.9-2-1.7-3-2.5
	c-0.4-0.3-0.8-0.6-1.2-0.9c-0.4-0.3-0.8-0.6-1.2-0.9c-1.2-0.9-2.4-1.7-3.7-2.5c-0.4-0.2-0.7-0.5-1.1-0.7c-0.6-0.3-1.1-0.7-1.7-1
	c-0.4-0.2-0.9-0.5-1.3-0.7c-0.4-0.2-0.7-0.4-1.1-0.6c-0.3-0.1-0.6-0.3-0.8-0.4c-0.1-0.1-0.2-0.1-0.3-0.2c-0.1,0-0.2-0.1-0.3-0.1
	c-0.3-0.1-0.5-0.3-0.8-0.4c-0.5-0.3-1.1-0.5-1.7-0.8c-0.5-0.2-1.1-0.5-1.7-0.7c-0.4-0.2-0.8-0.3-1.2-0.5c-0.2-0.1-0.5-0.2-0.7-0.3
	c-0.5-0.2-1-0.4-1.5-0.6c-0.5-0.2-1.1-0.4-1.6-0.6c-0.6-0.2-1.1-0.4-1.7-0.6c-0.5-0.2-1.1-0.4-1.6-0.5c-0.6-0.2-1.1-0.3-1.7-0.5
	c0,0-0.1,0-0.2,0c-0.5-0.1-1-0.3-1.5-0.4c-0.5-0.1-1.1-0.3-1.6-0.4c-0.8-0.2-1.6-0.4-2.4-0.6c-0.8-0.2-1.6-0.3-2.4-0.5
	c-0.4-0.1-0.9-0.2-1.3-0.2c-0.1,0-0.3,0-0.4-0.1c-0.5-0.1-1-0.2-1.5-0.2c-0.6-0.1-1.2-0.2-1.9-0.3c-0.8-0.1-1.6-0.2-2.4-0.3
	c-0.4,0-0.9-0.1-1.3-0.1c-0.7-0.1-1.4-0.1-2-0.2c-0.2-0.4-0.4-0.7-0.6-1.1c14.5-22.3,36.7-52.8,65.1-81.5c3.1,4.7,7.9,8.1,15.4,8.1
	c13.4,0,11.7-15.5,7.4-29.5c29.4-25.4,63.9-46.9,102.3-56.4c21.6,11.9,43.8,25.1,66.3,39.7C651.4,515,667.2,525.7,683.1,537.1z"/>
</svg>
