<?xml version="1.0" encoding="utf-8"?>
<!-- Generator: Adobe Illustrator 25.2.0, SVG Export Plug-In . SVG Version: 6.00 Build 0)  -->
<svg version="1.1" baseProfile="tiny" id="Layer_1" xmlns="http://www.w3.org/2000/svg" xmlns:xlink="http://www.w3.org/1999/xlink"
	 x="0px" y="0px" viewBox="0 0 1000 1000" overflow="visible" xml:space="preserve">
<polygon fill="#FFFFFF" stroke="#000000" stroke-miterlimit="10" points="23.8,587.1 394.4,802.4 983.3,697.8 494.2,589.7 "/>
<path fill="#FFFFFF" stroke="#000000" stroke-miterlimit="10" d="M220.5,429.5c-1.8,8.2-5,75.9-2.1,89.5c0,0,0,0,0,0.1
	c-3.6-0.5-11.7-1.5-16.4-0.7c-2.8,13-1.1,31.1-0.3,37.6l-7-6c0,0,0.7-12.7-4.8-46.7c-5.5-34-12.7-53.1-29-50.3
	c-16.2,2.8-19.9,21.5-21.2,63.1c0,0,0,0,0,0c0,0.5,0,0.9,0,1.4c-0.9-5.9-6.8-7.7-6.8-7.7s-1.1-9.6-1.8-42.6
	c-0.7-33,6.8-65.2,6.8-65.2l86.5,0.4c0,0,0.1,0,0.4,0l4.7,0C224.8,415.6,221.2,426.5,220.5,429.5z"/>
<path fill="#FFFFFF" stroke="#000000" stroke-miterlimit="10" d="M463.9,520.8c-0.5,10.8-4.5,40.3-33.2,50c-2-20.3-2.8-41.8-3-51.4
	l13-0.7C440.7,518.7,451,519.7,463.9,520.8z"/>
<path fill="#FFFFFF" stroke="#000000" stroke-miterlimit="10" d="M440.7,518.7l-13,0.7l-2.3,0.1c0,0-6.8-27.6-10.3-37
	c-3.6-9.4-10.7-5.9-25.3-7c-14.6-1.1-18.2-1.1-26.7,21.4c-5.1,13.3-7.7,41.9-9.1,63c-1.5-21.3-2.1-48.6-0.5-73.7
	c1.4-22.9,12.8-38.6,33.5-39.3c20.7-0.7,31-5.3,37.8,15.7C431.5,483.7,438.2,500.5,440.7,518.7z"/>
<path fill="#FFFFFF" stroke="#000000" stroke-miterlimit="10" d="M841,425.3c-15.9-11.4-30.4-7.9-33.9-6.8c-0.2-2.4-0.6-4.6-1.1-6.4
	c-3.6-13.1-9.7-14.5-9.7-14.5s-23.8-2.8-29.5-2.1c-5.7,0.7-7,4.9-11.5,5.8c-4.5,1-28.6,0.5-31.8-0.2c-3.2-0.7-5.3-5.9-6.8-5.7
	c-1.4,0.2-15.9-0.5-24.2-0.2c-8.4,0.4-45.9-1.7-47.2,1.6c-2.8,6-4.1,4.3-6.3,4.4c-2.2,0.1-28.6,0-32.8-0.1c-4.2-0.1-7-1.1-11.4-4.3
	c-4.4-3.2-8.8-4.9-8.8-4.9s-16.6,0.4-26.2,0c-9.6-0.4-11.2,1.6-13.5,6.4c-1.7,3.5-4.1,12.5-5.2,17c-0.2,0-0.4,0-0.7,0
	c-0.6,0-1.2,0-1.8,0c-15.1-0.4-37.4-1-55.9-1.5c-0.2-3.6-0.9-8.4-3.2-11.3c-4.1-5.1-65.9-5.2-74.9-6.5c-6.8-1-7.1-13.6-6.8-19.6
	c0.8,0,1.6-0.1,2.5-0.2c10.7-1.2,143.8-3.8,171.8-3.8c28,0,117.4,3,117.4,3s6.5,0.7,8.2-0.3c0,0,28.7,2.1,59.3,5.7
	c30.7,3.6,38.9,7,48.3,21.2c17.8-1.2,32.3-0.2,35.5,15.3C840.7,418.3,840.8,421.2,841,425.3z"/>
<path fill="#FFFFFF" stroke="#000000" stroke-miterlimit="10" d="M852.2,517.9c0,0-7.1,2.2-14.5,2.7c-1.2,0.1-2.4,0.1-3.5,0.1
	c-8.4-0.2-16.9-3.7-16.9-3.7h-2.9c1.9-4.4,2.9-10,2.7-16.2c-0.1-2.8-0.1-6.7-0.1-11.3c4.2,0.2,19.2,0.2,26.2-10.1
	c0,0,6.1,4.4,8.1,12.7C853.4,500.4,852.2,517.9,852.2,517.9z"/>
<path fill="#FFFFFF" stroke="#000000" stroke-miterlimit="10" d="M843.3,479.4c-7.1,10.3-22.1,10.3-26.2,10.1c0-2.4,0-5,0-7.7
	c13.5-2.4,20.1-8.2,20.1-8.2s0-5.9,0-13.3c0-4.2,0-9,0-13.5c0-6.5,0-12.4-0.1-15.4c-9-6.6-25.2-3.3-29.7-2.3c0-3.3-0.1-7.1-0.4-10.5
	c3.5-1.1,18-4.7,33.9,6.8C841.6,442.2,843.3,479.4,843.3,479.4z"/>
<path fill="#FFFFFF" stroke="#000000" stroke-miterlimit="10" d="M697.6,375.2c-1.8,1-8.2,0.3-8.2,0.3s-51.1-54.4-72.2-66.9
	c-9-0.6-35.5-3.6-66.3-4.5c-73.7-2.1-178.9-2.4-178.9-2.4s14.7,63.5,15.9,67.2c0.3,1.1,0.6,2.3,1.1,3.4c-3.6,0.7-10.6,2.6-17.5,8.1
	c-1.5-14.1-6.8-61.7-9.1-71.4c-2.6-11.4-13.5-13.5-27.7-12.8c-1.3,0.1-2.8,0.2-4.4,0.3c-16.4,1.6-48.4,7.7-55.1,14.2
	c-6.6,6.3-31.6,64.7-38.3,85.5c-0.8,2.5-1.4,4.5-1.6,5.8c-2.4,0.2-4.3,0.3-5.8,0.4c0.7-1.9,1.4-3.8,2-5.8c7.4-21,16.2-45,18.6-50
	c4.1-8.7,14.6-33.5,26-41.9c11.4-8.4,69.4-16.9,86.7-16.9c17.3,0,215.5-2.1,247.8,12.4C643,314.5,697.6,375.2,697.6,375.2z"/>
<path fill="#FFFFFF" stroke="#000000" stroke-miterlimit="10" d="M278.9,557.9l-47.3-7.4c-5.8-13.4-11.5-26-13.2-31.5c0,0,0,0,0-0.1
	c-2.8-13.5,0.4-81.3,2.1-89.5c0.7-3,4.3-14,8.8-27c0-0.1,0.1-0.1,0.1-0.2c1.5-0.1,3.4-0.2,5.8-0.4l13.6-2.3l0,0.1
	c0,0,24.5,0.8,40.4,0c0,0,5.5-0.2,5.5,2.8C268.8,409.2,273,496.1,278.9,557.9z"/>
<path fill="#FFFFFF" stroke="#000000" stroke-miterlimit="10" d="M233.1,571.6c-5.6-0.9-10-1.6-12.9-2.1c-2.4-0.4-3.7-0.6-3.7-0.6
	l-9.3-8c-0.5-6.4-2-24.7-1.1-31c2.1-0.3,8.1-1.2,8.1-1.2S226.4,557.1,233.1,571.6z"/>
<path fill="#FFFFFF" stroke="#000000" stroke-miterlimit="10" d="M231.5,396.5c-0.7,2-1.4,3.9-2,5.8c-2.6,0.1-4.1,0.2-4.7,0.2
	c-0.3,0-0.4,0-0.4,0l-86.5-0.4L231.5,396.5z"/>
<path fill="#FFFFFF" stroke="#000000" stroke-miterlimit="10" d="M318.2,309.1c-6.2,19.5-20.7,36.1-29,90.7c-15.9,0.8-40.4,0-40.4,0
	l0-0.1l28-80.6C276.8,319.1,304.6,309.1,318.2,309.1z"/>
<path fill="#FFFFFF" stroke="#000000" stroke-miterlimit="10" d="M689.3,375.5c0,0-89.4-3-117.4-3c-28,0-161.1,2.6-171.8,3.8
	c-0.9,0.1-1.8,0.2-2.5,0.2c-5,0.1-7.1-1.4-8.3-3.3v0c-0.2-0.3-0.3-0.5-0.4-0.8c-0.5-1.1-0.8-2.3-1.1-3.4
	c-1.2-3.8-15.9-67.2-15.9-67.2s105.3,0.2,178.9,2.4c30.8,0.9,57.3,4,66.3,4.5C638.2,321.1,689.3,375.5,689.3,375.5z"/>
<path fill="#FFFFFF" stroke="#000000" stroke-miterlimit="10" d="M543.9,516.8c-0.2-21.3-0.7-79.4-0.8-82.6c-0.1-1.4,0-2.6,0-3.4v0
	c0,0,0-0.1,0-0.1c0-0.6,0-1-0.1-1.3c0,0,0,0,0,0c-0.1-0.3-0.2-0.6-0.5-0.7c-0.1-0.1-0.2-0.1-0.4-0.1c-0.9-0.1-13.5,0-23.5,0.3
	c-6.6,0.1-12.1,0.3-12.5,0.5c-0.3,0.1-0.5,5.2-0.6,12.1c-0.1,5.4-0.1,12-0.1,17.9c0,5,0.1,9.5,0.3,12.8c0.1,2.2,0.2,3.9,0.4,4.7
	c0.4,2,2.9,5.8,5.9,9.9c4.6,6.2,10.3,13.1,11.6,15.1c2.1,3.2,1.4,15,1.4,15L543.9,516.8z M514.3,470.8l-0.2-32.7h16.9v46.1h-4.5
	L514.3,470.8z"/>
<path fill="#FFFFFF" stroke="#000000" stroke-miterlimit="10" d="M365.5,386.3c-7.6,4.5-8.1,13.5-8.1,13.5s-40.6,0.1-53.5,0.3
	c4.3-53.9,26.6-92.7,26.6-92.7s19.7,0,23.5,6.6C357.9,320.7,364.3,368,365.5,386.3z"/>
<path fill="#FFFFFF" stroke="#000000" stroke-miterlimit="10" d="M524.9,516.8c0,0-4,4.3-11.9,6.2c-1.4,0.3-4.5,0.4-8.7,0.3
	c-10.2-0.2-26.7-1.4-40.4-2.5c-12.9-1.1-23.2-2-23.2-2c-2.5-18.2-9.2-35-15.9-56c-6.8-21-17.1-16.4-37.8-15.7
	c-20.7,0.7-32.1,16.4-33.5,39.3c-1.6,25-1,52.3,0.5,73.7c0,0,0,0,0,0c0.2,3.4,0.5,6.7,0.8,9.8l-1.3-0.2l-74.5-11.6
	c-5.9-61.8-10.1-148.8,15.8-155.4c5.2-53.3,32.5-100.8,35.6-106c1.7-0.2,3.2-0.3,4.4-0.3c14.1-0.7,25.1,1.4,27.7,12.8
	c2.2,9.7,7.5,57.3,9.1,71.4c-2,1.6-4.1,3.5-6,5.8c-1.2-18.3-7.6-65.6-11.4-72.2c-3.8-6.6-23.5-6.6-23.5-6.6s-22.3,38.8-26.6,92.7
	c12.8-0.3,53.5-0.3,53.5-0.3s15.9,2,47-3.7c8.9,1.2,70.8,1.4,74.9,6.5c2.3,2.9,3.1,7.6,3.2,11.3c-18.4-0.5-33.1-0.8-33.5-0.7
	c-1.1,0.3-9.6,22.3-4.1,34.4c5.5,12.1,12.1,31.9,21.7,36.7c6.9,3.5,31.7,3.1,45.2,2.4c4.6,6.2,10.3,13.1,11.6,15.1
	C525.6,504.9,524.9,516.8,524.9,516.8z"/>
<path fill="#FFFFFF" stroke="#000000" stroke-miterlimit="10" d="M814.4,517c-2.3,5.6-5.9,9.4-10.1,10.6
	c-7.5,2.1-11.1,5.2-24.6-10.6h-2c-32.1,0.1-191.2,1.7-191.2,1.7l-14.3,10.7c0,0-25.3,2.5-32.1,0c-6.8-2.5-12.5-6.6-15.3-12.6l19,0
	c0,1.7,0,3.2,0,4.4h23l7.2-4.4l11-6.7l196.8-0.7l10.7,7.6c0,0,0,0,0,0L814.4,517z"/>
<path fill="#FFFFFF" stroke="#000000" stroke-miterlimit="10" d="M548.9,486.3v30.5h20.2l14.4-8.6l199.2-0.9l9.3,7.1l10.2-0.7v-29.5
	L548.9,486.3z M798.2,511.1h-6.3l-10.3-8.6L581,503.2l-13.6,7.8h-9.7v-20.2h240.5V511.1z"/>
<path fill="#FFFFFF" stroke="#000000" stroke-miterlimit="10" d="M542.9,429.3c-0.1-0.3-0.2-0.6-0.5-0.7c-0.1-0.1-0.2-0.1-0.4-0.1
	c-0.9-0.1-13.5,0-23.5,0.3V426H470v46.1h35.6c0.1,2.2,0.2,3.9,0.4,4.7c0.4,2,2.9,5.8,5.9,9.9c-13.5,0.7-38.3,1.1-45.2-2.4
	c-9.6-4.8-16.2-24.6-21.7-36.7c-5.5-12.1,3-34,4.1-34.4c0.4-0.1,15.1,0.2,33.5,0.7c18.5,0.5,40.8,1.1,55.9,1.5c0.6,0,1.2,0,1.8,0
	c0.2,0,0.4,0,0.7,0c-0.1,0.4-0.2,0.8-0.3,1.2v0C541.6,419.9,542.4,424.1,542.9,429.3z"/>
<polygon fill="#FFFFFF" stroke="#000000" stroke-miterlimit="10" points="531.1,438.1 531.1,484.2 526.6,484.2 514.3,470.8 
	514.2,438.1 "/>
<path fill="#FFFFFF" stroke="#000000" stroke-miterlimit="10" d="M518.5,426v2.8c-6.6,0.1-12.1,0.3-12.5,0.5
	c-0.3,0.1-0.5,5.2-0.6,12.1c-14.9,2.1-28,0.1-35.4-1.5V426H518.5z"/>
<path fill="#FFFFFF" stroke="#000000" stroke-miterlimit="10" d="M505.3,459.2c-11.7,2.9-27.5,1.2-35.3,0.1v-19.5
	c7.4,1.6,20.4,3.6,35.4,1.5C505.3,446.7,505.2,453.3,505.3,459.2z"/>
<path fill="#FFFFFF" stroke="#000000" stroke-miterlimit="10" d="M505.6,472.1H470v-12.8c7.8,1.2,23.7,2.8,35.3-0.1
	C505.3,464.2,505.4,468.8,505.6,472.1z"/>
<path fill="#FFFFFF" stroke="#000000" stroke-miterlimit="10" d="M837.2,460.3c0,7.5,0,13.3,0,13.3s-6.7,5.8-20.1,8.2
	c0-6.6,0-13.7,0-20.1C821.3,462.5,829.7,463.4,837.2,460.3z"/>
<path fill="#FFFFFF" stroke="#000000" stroke-miterlimit="10" d="M817.1,448c0-3.5,0-5.7,0-5.7l-10-4.3c0,0,0.3-4,0.3-9
	c4.5-1.1,20.7-4.3,29.7,2.3c0.1,3,0.1,8.9,0.1,15.4C832,447.6,822,447.9,817.1,448z"/>
<path fill="#FFFFFF" stroke="#000000" stroke-miterlimit="10" d="M814.4,517l-21.8,0c0.6,0,12.8-0.1,13.2-2.2
	c0.3-2.2,1.4-76.6,1.4-76.6l10,4.3c0,0,0,2.2,0,5.7c0,3.5,0,8.3-0.1,13.7c0,6.4,0,13.5,0,20.1c0,2.7,0,5.3,0,7.7
	c0,4.6,0.1,8.6,0.1,11.3C817.3,507,816.3,512.6,814.4,517z"/>
<path fill="#FFFFFF" stroke="#000000" stroke-miterlimit="10" d="M837.2,446.8c0,4.5,0,9.2,0,13.5c-7.5,3.1-15.9,2.2-20.1,1.5
	c0-5.4,0.1-10.2,0.1-13.7C822,447.9,832,447.6,837.2,446.8z"/>
<path fill="#FFFFFF" stroke="#000000" stroke-miterlimit="10" d="M852.2,517.9c0,0-7.1,2.2-14.5,2.7c-3,2.2-7,6.2-9.4,13.3
	c-4,12.4-22.6,13.1-27.8,9.7c-2-1.2-5.8-5.5-9.9-10.4H593.7l-14.3,12.1h-45.6l-29.5-22c-10.2-0.2-26.7-1.4-40.4-2.5
	c-0.5,10.8-4.5,40.3-33.2,50c0.9,8.8,2,17.4,3.4,24.7c16.1,0.6,87.1,3.6,117.2,5.1v-6.8c0,0,24.2-23.8,29-25.2
	c4.8-1.4,214.3-5,214.3-5s13.4,18.8,11.7,29.7c-0.2,1.3-0.4,2.7-0.6,4.1c8.7-1.8,31.1-6.3,39.7-4.1c2-5,3.7-11.4,4.6-19.2
	C853.1,548.1,852.2,517.9,852.2,517.9z M512.7,537.5c0,0,0,23.9,0,36.3s-11.3,11.3-11.3,11.3s-8.3,0-19.9,0
	c-11.6,0-10.5-10.5-10.5-10.5v-41.4c0-0.6,0.5-2.6,3-2.8c6.5-0.6,20.2,1.4,28.2,1.4C513.4,531.8,512.7,537.5,512.7,537.5z
	 M847,533.1c-0.4,7.8-1.7,30.1-3,39.7c-3.3,3.1-5.7,4.1-7.4,4c-3.1-0.2-3.8-4-3.8-4s-1.2-33.5,0.9-39.6c2.1-6.1,13.5-2.8,13.5-2.8
	S847.1,531.4,847,533.1z"/>
<path fill="#FFFFFF" stroke="#000000" stroke-miterlimit="10" d="M826.4,627.4c0,0-12.6,1.2-36,2.9c-0.8,0-1.5,0.1-2.3,0.2l-3.4-4.5
	l-245.2,3.6c0,0-4.6,5.2-7.3,9c-21.1-0.2-39.1-0.5-52.6-0.8c-16.7-0.4-26.4-0.7-26.4-0.7s-5-3.3-11.5-17.8v0
	c10.2-3,35.1-6.1,95.7-4.1l9.2,8.7h238.8c0,0,5-4.5,8.4-8.5c1.1-0.2,2-0.6,2.9-1h0L830,611C830.4,613.8,826.4,627.4,826.4,627.4z"/>
<path fill="#FFFFFF" stroke="#000000" stroke-miterlimit="10" d="M788.1,630.4c-23,1.6-55.9,3.6-97.3,5.3c-10.5,0.4-21.5,0.9-33,1.2
	c-45.8,1.5-90,1.8-125.6,1.5c2.7-3.7,7.3-9,7.3-9l245.2-3.6L788.1,630.4z"/>
<path fill="#FFFFFF" stroke="#000000" stroke-miterlimit="10" d="M845.3,593.2c-4.7,11.6-11.3,16.5-15.3,17.8l-33.3,3.3
	c6.2-3,7.8-10,8.9-16.9C814.3,595.5,836.8,591.1,845.3,593.2z"/>
<path fill="#FFFFFF" stroke="#000000" stroke-miterlimit="10" d="M502.3,531.8c-8,0-21.7-2-28.2-1.4c-2.5,0.2-3,2.2-3,2.8v41.4
	c0,0-1.1,10.5,10.5,10.5c11.6,0,19.9,0,19.9,0s11.3,1.2,11.3-11.3s0-36.3,0-36.3S513.4,531.8,502.3,531.8z M498.8,565.2l-9.3,9.3
	h-11.9v-36.6h21.2V565.2z"/>
<polygon fill="#FFFFFF" stroke="#000000" stroke-miterlimit="10" points="498.8,537.9 498.8,565.2 489.5,574.5 477.6,574.5 
	477.6,537.9 "/>
<path fill="#FFFFFF" stroke="#000000" stroke-miterlimit="10" d="M794.6,563.6c0,0-209.6,3.6-214.3,5c-4.8,1.4-29,25.2-29,25.2v21.9
	l59.4,0.2l12.3-14l131.2,1.9c0,0,14.3,10,31.8,11.9c3.1,0.3,5.6,0.2,7.8-0.3c1.1-0.2,2-0.6,2.9-1h0c6.2-3,7.8-10,8.9-16.9
	c0.2-1.4,0.4-2.8,0.6-4.1C808,582.3,794.6,563.6,794.6,563.6z M788.9,603.3c-10,8.1-35.6-6.2-35.6-6.2l-131.6,0.5
	c0,0-9,13.8-20.4,13.3c-11.4-0.5-26.6,0-26.6,0s11.4-38,28.5-38c17.1,0,183,0,183,0S798.9,595.2,788.9,603.3z"/>
<path fill="#FFFFFF" stroke="#000000" stroke-miterlimit="10" d="M788.9,603.3c-10,8.1-35.6-6.2-35.6-6.2l-131.6,0.5
	c0,0-9,13.8-20.4,13.3c-11.4-0.5-26.6,0-26.6,0s11.4-38,28.5-38c17.1,0,183,0,183,0S798.9,595.2,788.9,603.3z"/>
<path fill="#FFFFFF" stroke="#000000" stroke-miterlimit="10" d="M847.1,530.4c0,0,0,1-0.2,2.7c-3.3-0.1-9.8,0-10.4,2.3
	c-0.6,2.4-0.2,30.4-0.1,41.4c-3.1-0.2-3.8-4-3.8-4s-1.2-33.5,0.9-39.6C835.7,527.1,847.1,530.4,847.1,530.4z"/>
<path fill="#FFFFFF" stroke="#000000" stroke-miterlimit="10" d="M847,533.1c-0.4,7.8-1.7,30.1-3,39.7c-3.3,3.1-5.7,4.1-7.4,4
	c-0.2-11-0.5-38.9,0.1-41.4C837.1,533.2,843.6,533.1,847,533.1z"/>
<path fill="#FFFFFF" stroke="#000000" stroke-miterlimit="10" d="M793.8,615.3c-3.4,4-8.4,8.5-8.4,8.5H546.6l-9.2-8.7
	c4.4,0.1,9,0.3,13.8,0.5l59.4,0.2l12.3-14l131.2,1.9c0,0,14.3,10,31.8,11.9C789.1,615.9,791.7,615.8,793.8,615.3z"/>
<path fill="#FFFFFF" stroke="#000000" stroke-miterlimit="10" d="M357,588.5c-5.7,1.6-77.6-9.6-116.3-15.7
	c-2.6-6.8-5.9-14.6-9.1-22.2l47.3,7.4l74.5,11.6l1.3,0.2C355.4,577.3,356.2,583.7,357,588.5z"/>
<path fill="#FFFFFF" stroke="#000000" stroke-miterlimit="10" d="M359.5,598.1c0,0.6,0,1.2,0,1.9c-4.3,1.9-12.3,4.7-23.5,4.7
	c-17.3,0-125.6-26.6-125.6-26.6l9.9-1.5v-7c2.9,0.5,7.3,1.2,12.9,2.1c2.4,0.4,4.9,0.8,7.6,1.2c38.6,6.1,110.6,17.3,116.3,15.7
	l2.6,4.1C359.5,594.4,359.5,596.3,359.5,598.1z"/>
<path fill="#FFFFFF" stroke="#000000" stroke-miterlimit="10" d="M359.7,610.1L359.7,610.1c-1.3,1.6-3.1,2.9-5.1,3.6
	c-4.4,1.4-10.9,2.8-18.9,2.1c-13.4-1.1-89.9-16.9-115.3-23.7c-4.3-1.2-7.1-2-7.9-2.6c-3.8-2.4-3.4-6.7-2.8-9.3
	c0.3-1.3,0.7-2.2,0.7-2.2s108.3,26.6,125.6,26.6c11.2,0,19.3-2.7,23.5-4.7C359.5,603.5,359.6,606.8,359.7,610.1z"/>
<path fill="none" stroke="#000000" stroke-miterlimit="10" d="M142.2,546.9C142.2,546.9,142.2,546.9,142.2,546.9"/>
<path fill="#FFFFFF" stroke="#000000" stroke-miterlimit="10" d="M139.6,516.2c0.1,0.8,1.9,22.7,2.4,29c0,0,0,0,0,0
	c0,0.2-0.1,0.5-0.1,0.8c-0.1-0.3-0.2-0.8-0.3-1.3c-0.8-2.7-2.8-7.9-7.4-14.8c-3.3-8.8-1.4-20-1.4-20s5.9,1.8,6.8,7.7
	C139.6,517.1,139.6,516.6,139.6,516.2z"/>
<path fill="#FFFFFF" stroke="#000000" stroke-miterlimit="10" d="M837.7,520.6c-3,2.2-7,6.2-9.4,13.3c-4,12.4-22.6,13.1-27.8,9.7
	c-2-1.2-5.8-5.5-9.9-10.4H593.7l-14.3,12.1h-45.6l-29.5-22c4.2,0.1,7.3,0,8.7-0.3c7.8-1.9,11.9-6.2,11.9-6.2
	c2.9,5.9,8.5,10.1,15.3,12.6c6.8,2.5,32.1,0,32.1,0l14.3-10.7c0,0,159.1-1.6,191.2-1.7h2c13.5,15.8,17.1,12.7,24.6,10.6
	c4.2-1.2,7.8-5,10.1-10.6h2.9c0,0,8.4,3.5,16.9,3.7C835.3,520.7,836.5,520.7,837.7,520.6z"/>
<path fill="#FFFFFF" stroke="#000000" stroke-miterlimit="10" d="M240.7,572.8c-2.7-0.4-5.2-0.8-7.6-1.2c-6.7-14.5-18.9-43-18.9-43
	s-5.9,0.8-8.1,1.2c-0.9,6.3,0.6,24.7,1.1,31l-5.6-4.8c-0.8-6.6-2.5-24.6,0.3-37.6c4.7-0.8,12.8,0.1,16.4,0.7
	c1.8,5.5,7.5,18.1,13.2,31.5C234.9,558.2,238.2,566,240.7,572.8z"/>
<path fill="#FFFFFF" stroke="#000000" stroke-miterlimit="10" d="M220.3,569.5v7l-9.9,1.5c0,0-0.4,0.9-0.7,2.2
	c-5.8-0.4-16.7-1.4-17.9-3.7c-1.3-2.5-4.6-39.9-7.8-64.8c0-0.3-0.1-0.6-0.1-0.9c-1-7.3-1.9-13.4-2.7-17.1
	c-3.8-16.6-10.2-22.1-14-22.6c-3.8-0.5-16.6-2.6-18.5,7.8c-1.4,7.7-4.2,41.3-5.5,58.4c-0.3,2.4-0.7,5-0.9,7.8
	c-0.5-6.4-2.4-28.3-2.4-29c0,0,0,0,0,0c1.3-41.6,5-60.3,21.2-63.1c16.4-2.8,23.5,16.2,29,50.3c5.5,34,4.8,46.7,4.8,46.7l7,6l5.6,4.8
	l9.3,8C216.6,568.9,217.9,569.1,220.3,569.5z"/>
<path fill="#FFFFFF" stroke="#000000" stroke-miterlimit="10" d="M220.3,592.1c-0.5,18.6-7.3,49.7-18.8,54.6
	c-10.2,4.3-28.4,3.5-35.6,3c8.3-0.8,15.3-15.1,17.5-61.1c1.9-39.9-4.5-63.9-12.8-73.6c-2.9-3.4-6-5.1-9.1-5.1
	c-1.7,0-3.3,0.2-4.7,0.6c3.5-1,15.5-4,26.9,0.3c0,0.3,0.1,0.6,0.1,0.9c3.2,24.9,6.6,62.3,7.8,64.8c1.2,2.3,12,3.4,17.9,3.7
	c-0.6,2.6-1,7,2.8,9.3C213.2,590.1,216,591,220.3,592.1z"/>
<path fill="#FFFFFF" stroke="#000000" stroke-miterlimit="10" d="M432.2,625.9c-0.8-17.7-3.5-40.1-5.1-54.1v0
	c-0.5-4-0.9-7.3-1.2-9.7c-1.7-14.9-8.5-28.8-19.5-39c-2.6-2.4-5.1-4.2-7.2-4.9c-7.1-2.4-30.5,9.6-37.6,52.5
	c-1.1,6.5-1.8,13.8-2,21.8c0,1.8-0.1,3.6-0.1,5.5c0,0.6,0,1.2,0,1.9c0,3.5,0.1,6.8,0.2,10.1v0c1.8,57.1,17,84.7,33.5,90.3
	c0,0,0.2,0,0.5,0.2c0.1,0,0.2,0,0.2,0.1c0.3,0.1,0.6,0.1,1,0.3c0.1,0,0.2,0.1,0.4,0.1c0,0,0,0,0.1,0
	C412.7,704.6,434.7,680.9,432.2,625.9z M392.3,676.6c-7.8,1.4-22.8-11.4-24.6-66.9c-1.2-37.4,10.4-51.5,18.1-56.7
	c4.2-2.8,9.7-2.4,13.4,1c7.7,7,18,24.2,18,59.3C417.3,662,400.1,675.1,392.3,676.6z"/>
<path fill="#FFFFFF" stroke="#000000" stroke-miterlimit="10" d="M430.7,570.8c-1.2,0.4-2.4,0.8-3.6,1.1c-0.5-4-0.9-7.3-1.2-9.7
	c-1.7-14.9-8.5-28.8-19.5-39c-2.6-2.4-5.1-4.2-7.2-4.9c-7.1-2.4-30.5,9.6-37.6,52.5c-1.1,6.5-1.8,13.8-2,21.8l-2.6-4.1
	c-0.8-4.8-1.6-11.2-2.3-18.8c-0.3-3.1-0.5-6.3-0.8-9.8c0,0,0,0,0,0c1.4-21.2,4-49.8,9.1-63c8.6-22.5,12.1-22.5,26.7-21.4
	c14.6,1.1,21.7-2.5,25.3,7c3.6,9.5,10.3,37,10.3,37l2.3-0.1C428,528.9,428.7,550.4,430.7,570.8z"/>
<path fill="#FFFFFF" stroke="#000000" stroke-miterlimit="10" d="M551.3,600.5v15.1c-4.8-0.2-9.4-0.4-13.8-0.5
	c-60.6-2-85.5,1.1-95.7,4.1c-1.5-3.2-3-7-4.6-11.5c-1.2-3.3-2.2-7.6-3.1-12.3C450.1,596.1,521.2,599,551.3,600.5z"/>
<path fill="#FFFFFF" stroke="#000000" stroke-miterlimit="10" d="M479.7,637.7c-2.2,26.1-15,53.8-33.2,62.7
	c-17.2,8.5-43.6,2.6-51.2,0.6c17.4,3.6,39.3-20.2,36.9-75.1c-0.8-17.7-3.5-40.1-5.1-54.1v0c1.3-0.3,2.5-0.7,3.6-1.1
	c0.9,8.8,2,17.4,3.4,24.7c0.9,4.8,2,9,3.1,12.3c1.6,4.4,3.1,8.2,4.6,11.5v0c6.5,14.4,11.5,17.8,11.5,17.8S463,637.3,479.7,637.7z"/>
<path fill="#FFFFFF" stroke="#000000" stroke-miterlimit="10" d="M790,632.9c-3,16.3-13.9,55.8-36.8,63.6h0c-5,1.7-10.5,1.9-16.6,0
	c-36.7-11.1-44.5-51.7-45.8-60.8c41.3-1.7,74.2-3.7,97.3-5.3L790,632.9z"/>
<path fill="#FFFFFF" stroke="#000000" stroke-miterlimit="10" d="M826.4,627.4c0,0-0.8,69.4-73.2,69.1c22.9-7.8,33.8-47.3,36.8-63.6
	c0.2-1,0.3-1.9,0.4-2.7C813.9,628.6,826.4,627.4,826.4,627.4z"/>
<path fill="#FFFFFF" stroke="#000000" stroke-miterlimit="10" d="M417.3,613.3c0,48.7-17.1,61.8-25,63.2
	c-7.8,1.4-22.8-11.4-24.6-66.9c-1.2-37.4,10.4-51.5,18.1-56.7c4.2-2.8,9.7-2.4,13.4,1C406.9,561,417.3,578.2,417.3,613.3z"/>
<path fill="#FFFFFF" stroke="#000000" stroke-miterlimit="10" d="M404.4,396c-31.1,5.7-47,3.7-47,3.7s0.5-9,8.1-13.5
	c1.9-2.3,4-4.2,6-5.8c6.9-5.5,13.9-7.5,17.5-8.1c0.1,0.3,0.3,0.5,0.4,0.8v0c1.2,2,3.3,3.5,8.3,3.3
	C397.4,382.5,397.6,395.1,404.4,396z"/>
<path fill="#FFFFFF" stroke="#000000" stroke-miterlimit="10" d="M330.2,296.6c-3.1,5.2-30.5,52.7-35.6,106c0-3-5.5-2.8-5.5-2.8
	c8.3-54.6,22.8-71.2,29-90.7c-13.5,0-41.3,10-41.3,10l-28,80.6l-13.6,2.3c0.2-1.2,0.8-3.2,1.6-5.8c6.7-20.7,31.8-79.1,38.3-85.5
	C281.9,304.3,313.8,298.2,330.2,296.6z"/>
<path fill="#FFFFFF" stroke="#000000" stroke-miterlimit="10" d="M170.7,515c-2.9-3.4-6-5.1-9.1-5.1c-1.7,0-3.3,0.2-4.7,0.6
	c-0.1,0-0.2,0.1-0.3,0.1c-0.4,0.1-0.6,0.2-0.6,0.2c-7.2,2.6-10.7,11-12.9,26.6c-0.3,2.4-0.7,5-0.9,7.8c0,0,0,0,0,0
	c0,0.2-0.1,0.5-0.1,0.8c0,0.1,0,0.2,0,0.3c-0.7,7.1-1.2,15.3-1.8,24.7c-2.5,43.2,11.2,74.3,21.4,78.1c1.5,0.5,2.9,0.8,4.3,0.7h0
	c8.3-0.8,15.3-15.1,17.5-61.1C185.4,548.8,179,524.8,170.7,515z M171,585c-1.4,39.4-6.9,45.6-11.6,43.3
	c-4.8-2.3-13.1-26.3-13.1-51.8c0-21,3.3-38.4,9.2-43c1.8-1.4,4.3-0.9,5.6,0.9C164.4,539.5,172.1,554.3,171,585z"/>
<path fill="#FFFFFF" stroke="#000000" stroke-miterlimit="10" d="M183.8,510.8c-11.4-4.3-23.5-1.4-26.9-0.3c-0.1,0-0.2,0.1-0.3,0.1
	c-0.4,0.1-0.6,0.2-0.6,0.2c-7.2,2.6-10.7,11-12.9,26.6c1.3-17.1,4.1-50.7,5.5-58.4c1.9-10.5,14.7-8.3,18.5-7.8
	c3.8,0.5,10.2,5.9,14,22.6C181.9,497.5,182.8,503.6,183.8,510.8z"/>
<path fill="#FFFFFF" stroke="#000000" stroke-miterlimit="10" d="M171,585c-1.4,39.4-6.9,45.6-11.6,43.3
	c-4.8-2.3-13.1-26.3-13.1-51.8c0-21,3.3-38.4,9.2-43c1.8-1.4,4.3-0.9,5.6,0.9C164.4,539.5,172.1,554.3,171,585z"/>
<path fill="#FFFFFF" stroke="#000000" stroke-miterlimit="10" d="M807.1,418.6c-0.2-2.4-0.6-4.6-1.1-6.4
	c-3.6-13.1-9.7-14.5-9.7-14.5s-23.8-2.8-29.5-2.1c-5.7,0.7-7,4.9-11.5,5.8c-4.5,1-28.6,0.5-31.8-0.2c-3.2-0.7-5.3-5.9-6.8-5.7
	c-1.4,0.2-15.9-0.5-24.2-0.2c-8.4,0.4-45.9-1.7-47.2,1.6c-2.8,6-4.1,4.3-6.3,4.4c-2.2,0.1-28.6,0-32.8-0.1c-4.2-0.1-7-1.1-11.4-4.3
	c-4.4-3.2-8.8-4.9-8.8-4.9s-16.6,0.4-26.2,0c-9.6-0.4-11.2,1.6-13.5,6.4c-1.7,3.5-4.1,12.5-5.2,17c-0.1,0.4-0.2,0.8-0.3,1.2v0
	c1,3.3,1.8,7.5,2.3,12.7c0,0,0,0,0,0c0.1,0.3,0.1,0.8,0.1,1.3c0,0,0,0.1,0,0.1v0c0,0.9,0,2,0,3.4c0.1,3.2,0.6,61.3,0.8,82.6
	c0,1.7,0,3.2,0,4.4h23l7.2-4.4l11-6.7l196.8-0.7l10.7,7.6c0,0,0,0,0,0c0.6,0,12.8-0.1,13.2-2.2c0.3-2.2,1.4-76.6,1.4-76.6
	s0.3-4,0.3-9C807.5,425.8,807.4,422,807.1,418.6z M802.2,513.7l-10.2,0.7l-9.3-7.1l-199.2,0.9l-14.4,8.6h-20.2v-30.5l253.3-2.1
	V513.7z M802.2,475.5H548.9v-23.2h253.3V475.5z M805.1,440.7l-255.7-2.6l-0.5-21.5l256.2,2.3V440.7z"/>
<polygon fill="#FFFFFF" stroke="#000000" stroke-miterlimit="10" points="798.2,490.9 798.2,511.1 791.9,511.1 781.5,502.5 
	581,503.2 567.4,511.1 557.7,511.1 557.7,490.9 "/>
<path fill="#FFFFFF" stroke="#000000" stroke-miterlimit="10" d="M548.9,452.4v23.2h253.3v-23.2H548.9z M791.9,469.1H557.7V457
	h234.2V469.1z"/>
<rect x="557.7" y="457" fill="#FFFFFF" stroke="#000000" stroke-miterlimit="10" width="234.2" height="12.1"/>
<path fill="#FFFFFF" stroke="#000000" stroke-miterlimit="10" d="M548.9,416.6l0.5,21.5l255.7,2.6v-21.9L548.9,416.6z M799.7,436
	H555.9v-16l243.8,1.8V436z"/>
<polygon fill="#FFFFFF" stroke="#000000" stroke-miterlimit="10" points="799.7,421.7 799.7,436 555.9,436 555.9,419.9 "/>
</svg>
