<?xml version="1.0" encoding="utf-8"?>
<!-- Generator: Adobe Illustrator 25.2.0, SVG Export Plug-In . SVG Version: 6.00 Build 0)  -->
<svg version="1.1" id="Layer_1" xmlns="http://www.w3.org/2000/svg" xmlns:xlink="http://www.w3.org/1999/xlink" x="0px" y="0px"
	 viewBox="0 0 1000 1000" style="enable-background:new 0 0 1000 1000;" xml:space="preserve">
<style type="text/css">
	.st0{fill:#FFFFFF;stroke:#000000;stroke-miterlimit:10;}
</style>
<path class="st0" d="M236.3,578c-27.5,81.6-78.2,78.2-108.2,82.4c-16,2.3-39.3-11.9-54.6-37.6C60,600.3,52.8,569,61.9,532.4
	c10.6-41.8,32.1-65.2,52.9-78c18.1-11,35.9-14,45.9-14C182.2,440.5,263.8,496.3,236.3,578z"/>
<path class="st0" d="M314.7,601.1v0.4c0,0,0.1-0.1,0.1-0.1c-0.1,4.4-0.2,8.7-0.3,12.9l0.2,2.2c5.1-1.4,9.8-2,14.1-1.8
	c0.3,0,0.6,0,0.9,0.1c0.4,0,0.7,0,1.1,0.1c0.5,0,1,0.1,1.6,0.2c0.6,0.1,1.1,0.2,1.7,0.3c0.5,0.1,0.9,0.2,1.4,0.3
	c0.1,0,0.2,0,0.4,0.1c0.3,0.1,0.7,0.2,1,0.3c0.3,0.1,0.5,0.1,0.8,0.2c0.2,0,0.4,0.1,0.7,0.2c0.3,0.1,0.6,0.2,0.8,0.3
	c0.4,0.2,0.9,0.3,1.3,0.5c0.4,0.2,0.9,0.4,1.3,0.6c0.1,0,0.2,0.1,0.4,0.2c0.4,0.2,0.8,0.4,1.2,0.6c0.1,0,0.1,0.1,0.2,0.1
	c0.4,0.2,0.9,0.5,1.3,0.7c0.5,0.3,0.9,0.6,1.4,0.8c0.4,0.3,0.8,0.5,1.2,0.8c-0.5-0.3-1-0.7-1.4-1c-0.6-0.4-1.1-0.7-1.7-1
	c-0.6-0.3-1.2-0.6-1.8-0.9c-0.4-0.2-0.8-0.4-1.2-0.6c-0.4-0.2-0.9-0.4-1.3-0.5c-0.2-0.1-0.4-0.1-0.5-0.2c-0.5-0.2-1-0.4-1.5-0.5
	c0,0,0,0-0.1,0c-0.5-0.2-1-0.3-1.5-0.4c0,0,0,0-0.1,0c-0.5-0.1-0.9-0.2-1.4-0.3c-0.1,0-0.3-0.1-0.4-0.1c-0.4-0.1-0.9-0.2-1.4-0.3
	c-0.3,0-0.6-0.1-0.8-0.1c-0.4-0.1-0.9-0.1-1.3-0.2c-0.4,0-0.7-0.1-1.1-0.1c-0.8-0.1-1.6-0.1-2.4-0.1c-3.9,0-8,0.6-12.4,1.9l3,26
	c8.8,9.2,22.6,27.5,22.6,52.5c0,0.7,0,1.3,0,2c0,0.6,0,1.2-0.1,1.8c0,0.4,0,0.8-0.1,1.3c-0.1,1.2-0.2,2.5-0.4,3.7
	c-0.1,0.5-0.1,0.9-0.2,1.4c0,0.3-0.1,0.6-0.1,0.8c0,0.2,0,0.3-0.1,0.5c-0.1,0.4-0.1,0.9-0.2,1.3c-0.1,0.8-0.3,1.6-0.5,2.4
	c-0.1,0.2-0.1,0.5-0.2,0.7c0,0.1,0,0.1,0,0.2c-0.1,0.4-0.2,0.8-0.3,1.2c0,0,0,0,0,0c-0.1,0.3-0.1,0.5-0.2,0.8
	c-0.1,0.4-0.2,0.7-0.3,1.1c-0.1,0.4-0.2,0.8-0.3,1.1c-0.1,0.4-0.2,0.8-0.4,1.3c-0.2,0.7-0.5,1.5-0.8,2.3c0,0.1-0.1,0.2-0.1,0.3
	c-0.3,0.7-0.5,1.5-0.8,2.3c-0.5,1.2-1,2.5-1.5,3.7c0,0,0,0,0,0c0,0.1-0.1,0.2-0.1,0.4l0,0c-0.1,0.2-0.2,0.4-0.3,0.6
	c0,0.1-0.1,0.2-0.1,0.3c0.1-0.2,0.2-0.4,0.2-0.5c0.3-0.8,0.7-1.6,1-2.4c0.5-1.2,0.9-2.4,1.4-3.5c0.2-0.6,0.4-1.2,0.6-1.7
	c0.2-0.6,0.4-1.1,0.6-1.7c0,0,0,0,0,0c0.2-0.6,0.4-1.2,0.5-1.8c0.3-0.9,0.5-1.8,0.7-2.7c0.2-0.7,0.3-1.3,0.5-2
	c0.2-0.8,0.3-1.7,0.5-2.5c0.1-0.7,0.2-1.4,0.3-2.1c0.1-0.4,0.1-0.8,0.2-1.2c0-0.3,0.1-0.6,0.1-1c0.1-0.6,0.1-1.1,0.2-1.7
	c0.1-0.8,0.2-1.7,0.2-2.5c0-0.3,0-0.6,0-1c0.1-1.7,0.1-3.4,0-5.1c0-0.2,0-0.5,0-0.7c0,0,0-0.1,0-0.1c0-0.5,0-1.1-0.1-1.6
	c0,0,0-0.1,0-0.1c0-0.6-0.1-1.3-0.2-1.9c-0.1-0.6-0.1-1.1-0.2-1.7c0-0.4-0.1-0.8-0.2-1.2c-0.1-0.5-0.1-0.9-0.2-1.4
	c0-0.3-0.1-0.5-0.1-0.8c0,0,0-0.1,0-0.1c0-0.3-0.1-0.6-0.2-0.9c-0.1-0.8-0.3-1.5-0.5-2.3c-0.1-0.5-0.2-0.9-0.3-1.4
	c-0.4-1.7-0.9-3.4-1.5-5.1c-0.4-1.3-0.9-2.5-1.4-3.8c-0.5-1.2-1-2.4-1.5-3.6c-0.4-0.9-0.8-1.7-1.2-2.6c-0.3-0.6-0.6-1.2-1-1.8
	c0,0,0-0.1,0-0.1c-0.3-0.6-0.6-1.2-1-1.8c-0.2-0.4-0.5-0.8-0.7-1.2c-0.2-0.4-0.4-0.7-0.7-1.1c-0.3-0.6-0.7-1.1-1-1.7
	c-0.3-0.5-0.7-1.1-1-1.6c-0.2-0.3-0.5-0.7-0.7-1c-1.7-2.5-3.5-4.7-5.2-6.7c-0.4-0.4-0.7-0.9-1.1-1.3c-0.9-1-1.7-1.9-2.6-2.8
	c-1.8-1.9-3.4-3.4-4.6-4.5c0,0-0.1-0.1-0.1-0.1c-1.4-1.3-2.3-2-2.3-2c0,0-0.1,0-0.1,0c0,0,0,0,0,0c-15.7,4.9-18.1,48.8-18.1,48.8
	s1.8,2,4.6,5.7c-3,4-6.2,7.8-9.5,11.2c0,0-0.1,0.1-0.1,0.1c-0.5,0.5-1.1,1.1-1.6,1.7c-0.2,0.2-0.4,0.3-0.5,0.5c0,0-0.1,0.1-0.1,0.1
	c-13.4,12.9-29.7,21.7-48.6,27.2h0C219.7,702,205.7,702,205.7,702s0,0,0,0c-0.1,0-0.1,0-0.1,0s-13,13.9-14.6,37.1
	c-9.4,0.6-18.5,0.5-27.1-0.2c0,0,0-0.1,0-0.1c-6.9-23.3-29.5-41.8-29.5-41.8s-0.6,0.2-1.6,0.9c-0.3,0.2-0.6,0.4-1,0.7
	c-0.3,0.2-0.6,0.5-0.9,0.8c-0.1,0.1-0.2,0.2-0.3,0.3c-3.7,3.6-8.8,11.9-8.8,29.5c-1.8-0.7-3.5-1.4-5-2.2c0-0.1,0-0.2,0-0.3
	c-0.1-0.9-0.1-1.7-0.2-2.5c0-0.5,0-1,0-1.4c0-0.1,0-0.2,0-0.3c0-0.1,0-0.2,0-0.3c0-0.1,0-0.3,0-0.4c0-0.4,0.1-0.8,0.2-1.1l0-0.1v0
	c0,0,0-0.1,0-0.2c-6.3-16.9-24.9-33.3-24.9-33.3s-3.7,5.8-4.7,17c0,0.1,0,0.1,0,0.2c-8.1-11.9-11.4-35.8-12.9-56.2
	c8.1,12.8,27.7,29.1,75.6,29.6c0.4,0,0.9,0,1.3,0c1.3,0,2.6,0,3.8-0.1c0.1,0,0.3,0,0.4,0c0.9,0,1.7-0.1,2.6-0.1
	c0.5,0,1.1-0.1,1.6-0.1c1-0.1,2-0.2,2.9-0.3c0.6-0.1,1.2-0.1,1.8-0.2c1.2-0.1,2.4-0.3,3.6-0.5c0.6-0.1,1.2-0.2,1.8-0.3
	c1.8-0.3,3.5-0.6,5.2-1c0.6-0.1,1.1-0.3,1.7-0.4c0.5-0.1,1-0.2,1.5-0.4c0.9-0.2,1.8-0.5,2.8-0.7c0.7-0.2,1.3-0.4,2-0.6
	c0.7-0.2,1.3-0.4,2-0.6c1.1-0.3,2.1-0.7,3.2-1.1c0.8-0.3,1.6-0.6,2.4-0.9c0.8-0.3,1.6-0.6,2.4-0.9c0.4-0.2,0.9-0.4,1.3-0.5
	c0.8-0.3,1.5-0.7,2.3-1c0.1,0,0.3-0.1,0.4-0.2c1.3-0.6,2.5-1.2,3.8-1.8c0.4-0.2,0.8-0.4,1.2-0.6c0.4-0.2,0.9-0.5,1.3-0.7
	c0.7-0.4,1.4-0.8,2.1-1.2c0.7-0.4,1.4-0.8,2.1-1.2c0.6-0.4,1.2-0.7,1.8-1.1c0.1,0,0.2-0.1,0.2-0.2c0.7-0.4,1.4-0.9,2-1.3
	c0.7-0.4,1.3-0.9,2-1.3c0.7-0.5,1.3-0.9,2-1.4c0.8-0.6,1.6-1.2,2.4-1.8c0.8-0.6,1.6-1.2,2.4-1.8c0.8-0.7,1.7-1.4,2.5-2.1
	c0.6-0.5,1.2-1,1.8-1.5c0.1-0.1,0.2-0.1,0.2-0.2c0.6-0.5,1.2-1,1.7-1.6c0.3-0.3,0.6-0.6,0.9-0.9c0.7-0.6,1.3-1.2,1.9-1.8
	c0.6-0.6,1.3-1.3,1.9-1.9c0.6-0.6,1.1-1.1,1.6-1.7c2.5-2.6,4.9-5.3,7.1-8.1c0.2-0.3,0.4-0.5,0.6-0.8c0.3-0.4,0.7-0.8,1-1.3
	c0,0,0,0,0,0c0.3-0.4,0.7-0.9,1-1.3c0.2-0.2,0.3-0.4,0.5-0.6c0.1-0.2,0.3-0.4,0.4-0.6c0,0,0-0.1,0.1-0.1h0c0.3-0.4,0.6-0.9,1-1.3
	c1-1.3,1.9-2.6,2.8-3.9c0.7-0.9,1.3-1.8,1.9-2.8c0.3-0.5,0.6-0.9,0.9-1.4c0.3-0.5,0.7-1,1-1.6c0.6-1,1.2-2,1.8-2.9
	c0.3-0.5,0.6-1,0.9-1.5c0.4-0.6,0.7-1.2,1-1.8c0.3-0.6,0.7-1.2,1-1.8c0.3-0.6,0.6-1.2,1-1.8c1.3-2.4,2.4-4.7,3.5-7.1
	c0.3-0.6,0.5-1.1,0.8-1.7c0.3-0.6,0.5-1.2,0.8-1.7c0.3-0.6,0.5-1.1,0.7-1.7c0.5-1.1,0.9-2.3,1.3-3.4c0.2-0.5,0.4-1.1,0.6-1.6
	c0.2-0.5,0.4-1.1,0.6-1.6c0.2-0.5,0.4-1.1,0.6-1.6c0.4-1.1,0.7-2.1,1-3.2c0.1-0.4,0.3-0.9,0.4-1.3c0.3-1.1,0.6-2.2,0.9-3.2
	c0.2-0.9,0.4-1.7,0.6-2.5c0.1-0.6,0.3-1.2,0.4-1.7c0.3-1.2,0.5-2.4,0.7-3.5c0.1-0.5,0.2-0.9,0.2-1.4c0.1-1,0.3-2.1,0.4-3.2
	c0.1-0.7,0.2-1.3,0.2-2c0.2-1.3,0.3-2.7,0.4-4.1c0.1-0.7,0.1-1.4,0.2-2.2c0.1-0.6,0.1-1.2,0.1-1.8c0-0.7,0.1-1.4,0.1-2.1
	c0.1-1.3,0.1-2.6,0.2-3.9c0-0.5,0-1,0-1.5c0-1.7,0-3.4,0-5.2c0-0.4,0-0.8,0-1.2c0-0.7,0-1.3-0.1-2c0-0.7-0.1-1.3-0.1-2
	c-0.1-1.1-0.1-2.2-0.2-3.3c-0.1-1.1-0.2-2.2-0.3-3.4c-0.1-0.6-0.1-1.1-0.2-1.7c-0.1-0.6-0.1-1.1-0.2-1.7c-0.1-1.1-0.3-2.3-0.5-3.5
	c-0.4-2.9-1-5.8-1.7-8.8c-0.3-1.4-0.7-2.8-1-4.2c-0.2-0.9-0.5-1.7-0.7-2.6c-0.2-0.8-0.5-1.6-0.7-2.4c-0.2-0.6-0.3-1.1-0.5-1.7
	c-0.1-0.5-0.3-1-0.5-1.5c-0.1-0.5-0.3-0.9-0.5-1.4c-0.1-0.4-0.3-0.7-0.4-1.1c-0.3-0.8-0.6-1.7-0.9-2.5c-0.3-0.9-0.7-1.8-1-2.7
	c-0.4-1-0.8-1.9-1.2-2.9c-0.3-0.9-0.7-1.7-1.1-2.6c-0.4-0.9-0.8-1.8-1.3-2.8c-0.4-0.9-0.9-1.9-1.3-2.8c-0.5-0.9-0.9-1.9-1.4-2.8
	c-0.5-1-1-1.9-1.5-2.8c-1-1.9-2.1-3.8-3.3-5.8c-0.6-1-1.2-1.9-1.8-2.9c-10.2-16.5-24.8-33.9-45.5-51.7c6.8-29.2,8.7-42.9,11.2-42.9
	c2.7,0,107.4,0,138.4-31c1.2,1.3,2.5,2.6,3.7,3.8c0.1,0.1,0.1,0.1,0.2,0.2c1.9,1.9,3.9,3.7,5.9,5.3c0.7,0.6,1.4,1.1,2.1,1.7
	c1.4,1.1,2.9,2.2,4.4,3.2L356.6,407c0,0-23.1,47.7-35.7,101c-3,13-4.4,28.1-5.2,44.1v0c-0.1,2.3-0.2,4.5-0.3,6.8
	c0,1.2-0.1,2.5-0.1,3.7c-0.1,1.6-0.1,3.3-0.1,4.9c0,1.5-0.1,3.1-0.1,4.6c0,1.5-0.1,3.1-0.1,4.6c-0.1,6.1-0.2,12.1-0.3,18.2
	C314.8,597.1,314.7,599.1,314.7,601.1z"/>
<path class="st0" d="M435.7,227.4c-7.7,40.4-20.6,44.7-20.6,44.7c-0.3,0.6-0.5,1.1-0.8,1.7c-0.2,0.5-0.5,1-0.7,1.5
	c0,0,0,0.1-0.1,0.1c-0.7,1.5-1.5,3-2.3,4.5c-0.3,0.6-0.7,1.2-1,1.8c-0.5,0.9-1,1.7-1.4,2.6c-0.4,0.7-0.7,1.3-1.1,1.9
	c-0.4,0.7-0.8,1.4-1.3,2.1c-0.6,0.9-1.1,1.9-1.7,2.8c-0.1,0.2-0.2,0.3-0.3,0.4c-0.3,0.4-0.5,0.9-0.8,1.3c0,0,0,0,0,0c0,0,0,0,0,0
	c-0.5,0.8-1,1.5-1.5,2.3c-0.5,0.8-1,1.5-1.5,2.3c-0.4,0.6-0.8,1.2-1.2,1.8c-0.4,0.6-0.8,1.2-1.3,1.7c-0.4,0.6-0.8,1.2-1.3,1.7
	c-0.7,0.9-1.4,1.8-2,2.7c-0.6,0.8-1.2,1.5-1.8,2.3c-0.4,0.5-0.9,1.1-1.3,1.6c-0.4,0.5-0.9,1.1-1.3,1.6c-0.3,0.3-0.6,0.7-0.9,1
	c-1.4,1.7-2.9,3.4-4.3,5c-0.4,0.5-0.9,1-1.3,1.4c-0.2,0.2-0.3,0.4-0.5,0.6c-0.4,0.5-0.8,0.9-1.2,1.4c-0.8,0.9-1.6,1.8-2.4,2.6
	c-0.8,0.9-1.6,1.7-2.4,2.5c-1.1,1.1-2.2,2.2-3.3,3.3c-0.7,0.7-1.4,1.4-2.1,2c-0.4,0.4-0.9,0.9-1.3,1.3c-0.4,0.3-0.7,0.7-1.1,1
	c-0.2,0.2-0.4,0.4-0.6,0.5c-0.2,0.2-0.4,0.4-0.7,0.6c-0.9,0.9-1.8,1.7-2.7,2.4c-0.3,0.3-0.6,0.6-1,0.8c-1.1,1-2.1,1.8-3,2.6
	c-1,0.9-2,1.7-2.8,2.4c-0.4,0.3-0.8,0.7-1.2,1c-0.3,0.3-0.7,0.6-1,0.8c-1.3,1.1-2.3,1.8-2.9,2.2c-0.2,0.1-0.3,0.2-0.3,0.3
	c0,0,0,0-0.1,0c0,0-0.1,0-0.1,0c-31,31-135.7,31-138.4,31c-2.5,0-4.3,13.7-11.2,42.9c0,0,0,0.1,0,0.1c18.1,15.5,31.6,30.7,41.5,45.4
	c0.3,0.5,0.7,1,1,1.6c0.3,0.5,0.7,1,1,1.6c0.7,1,1.3,2.1,2,3.1c0.6,1,1.2,2,1.8,2.9c1.1,1.9,2.2,3.9,3.3,5.8c0.5,1,1,1.9,1.5,2.8
	c0.5,0.9,1,1.9,1.4,2.8c0.5,0.9,0.9,1.9,1.3,2.8c0.4,0.9,0.8,1.9,1.3,2.8c0.4,0.9,0.7,1.7,1.1,2.6c0.4,1,0.8,2,1.2,2.9
	c0.4,0.9,0.7,1.8,1,2.7c0.3,0.8,0.6,1.7,0.9,2.5c0.1,0.4,0.3,0.7,0.4,1.1c0.2,0.5,0.3,0.9,0.5,1.4c0.2,0.5,0.3,1,0.5,1.5
	c0.2,0.6,0.4,1.1,0.5,1.7c0.2,0.8,0.5,1.6,0.7,2.4c0.2,0.9,0.5,1.7,0.7,2.6c0.4,1.4,0.7,2.8,1,4.2c0.7,3,1.2,5.9,1.7,8.8
	c0.2,1.2,0.3,2.3,0.5,3.5c0.1,0.6,0.1,1.1,0.2,1.7c0.1,0.6,0.1,1.1,0.2,1.7c0.1,1.1,0.2,2.2,0.3,3.4c0.1,1.1,0.2,2.2,0.2,3.3
	c0,0.7,0.1,1.3,0.1,2c0,0.7,0,1.3,0.1,2c0,0.4,0,0.8,0,1.2c0,1.8,0,3.5,0,5.2c0,0.5,0,1,0,1.5c0,1.3-0.1,2.6-0.2,3.9
	c0,0.7-0.1,1.4-0.1,2.1c0,0.6-0.1,1.2-0.1,1.8c0,0.7-0.1,1.5-0.2,2.2c-0.1,1.4-0.3,2.8-0.4,4.1c-0.1,0.7-0.2,1.3-0.2,2
	c-0.1,1.1-0.3,2.1-0.4,3.2c-0.1,0.4-0.1,0.9-0.2,1.4c-0.2,1.1-0.4,2.3-0.7,3.5c-0.1,0.6-0.2,1.1-0.4,1.7c-0.2,0.8-0.4,1.7-0.6,2.5
	c-0.3,1-0.6,2.1-0.9,3.2c-0.1,0.4-0.3,0.9-0.4,1.3c-0.3,1-0.7,2.1-1,3.2c-0.2,0.5-0.4,1.1-0.6,1.6c-0.2,0.5-0.4,1.1-0.6,1.6
	c-0.2,0.5-0.4,1.1-0.6,1.6c-0.4,1.1-0.9,2.2-1.3,3.4c-0.2,0.6-0.5,1.1-0.7,1.7c-0.2,0.6-0.5,1.2-0.8,1.7c-0.3,0.6-0.5,1.1-0.8,1.7
	c-1.1,2.3-2.2,4.7-3.5,7.1c-0.3,0.6-0.6,1.2-1,1.8c-0.3,0.6-0.7,1.2-1,1.8c-0.3,0.6-0.7,1.2-1,1.8c-0.3,0.5-0.6,1-0.9,1.5
	c-0.6,1-1.2,2-1.8,2.9c-0.3,0.5-0.6,1-1,1.6c-0.3,0.5-0.6,0.9-0.9,1.4c-0.6,0.9-1.2,1.8-1.9,2.8c-0.4,0.7-0.9,1.3-1.4,1.9
	c-0.5,0.7-0.9,1.3-1.4,1.9c-0.3,0.4-0.6,0.9-1,1.3c0,0-0.1,0.1-0.1,0.1c-0.1,0.2-0.3,0.4-0.4,0.6c0,0-0.1,0.1-0.1,0.2
	c0,0-0.1,0.1-0.1,0.1c-0.1,0.1-0.1,0.2-0.2,0.3c-0.2,0.2-0.3,0.4-0.5,0.6c-0.2,0.2-0.3,0.4-0.5,0.6v0c-0.5,0.7-1.1,1.3-1.6,2
	c-0.1,0.2-0.3,0.3-0.4,0.5c0,0,0,0,0,0c-0.1,0.1-0.1,0.1-0.2,0.2c-0.1,0.1-0.2,0.2-0.3,0.3c-0.3,0.4-0.6,0.7-0.9,1.1
	c-0.6,0.7-1.2,1.4-1.8,2.1c-0.7,0.8-1.4,1.6-2.1,2.4c-0.2,0.2-0.4,0.4-0.6,0.6c-0.2,0.2-0.4,0.5-0.6,0.7c0,0-0.1,0.1-0.1,0.1
	c-0.5,0.6-1.1,1.1-1.6,1.7c-0.6,0.6-1.3,1.3-1.9,1.9c-0.6,0.6-1.3,1.2-1.9,1.8c-0.3,0.3-0.6,0.6-0.9,0.9c-0.6,0.5-1.2,1-1.7,1.6
	c-0.1,0.1-0.2,0.1-0.2,0.2c-0.6,0.5-1.2,1-1.8,1.5c-0.8,0.7-1.7,1.4-2.5,2.1c-0.8,0.6-1.6,1.2-2.4,1.8c-0.8,0.6-1.6,1.2-2.4,1.8
	c-0.7,0.5-1.3,0.9-2,1.4c-0.7,0.5-1.3,0.9-2,1.3c-0.7,0.4-1.3,0.9-2,1.3c-0.1,0.1-0.2,0.1-0.2,0.2c-0.6,0.4-1.2,0.7-1.8,1.1
	c-0.7,0.4-1.4,0.8-2.1,1.2c-0.7,0.4-1.4,0.8-2.1,1.2c-0.4,0.2-0.9,0.5-1.3,0.7c-0.3,0.2-0.7,0.3-1,0.5c0,0-0.1,0-0.2,0.1
	c-0.3,0.2-0.7,0.3-1,0.5c-0.3,0.2-0.6,0.3-1,0.5c-0.6,0.3-1.2,0.6-1.8,0.8c-0.1,0-0.1,0.1-0.2,0.1c-0.1,0-0.1,0.1-0.2,0.1
	c-0.8,0.3-1.5,0.7-2.3,1c-0.4,0.2-0.9,0.4-1.3,0.5c-0.8,0.3-1.6,0.6-2.4,0.9c-0.8,0.3-1.6,0.6-2.4,0.9c-1,0.4-2.1,0.7-3.2,1.1
	c-0.7,0.2-1.3,0.4-2,0.6c-0.7,0.2-1.3,0.4-2,0.6c-0.9,0.3-1.8,0.5-2.8,0.7c-0.5,0.1-1,0.3-1.5,0.4c-0.6,0.1-1.1,0.3-1.7,0.4
	c-0.4,0.1-0.8,0.2-1.2,0.2c-0.3,0.1-0.5,0.1-0.7,0.2c-0.1,0-0.2,0-0.3,0.1c-0.1,0-0.2,0-0.3,0c0,0-0.1,0-0.1,0c-0.1,0-0.1,0-0.2,0
	c0,0-0.1,0-0.1,0c-0.8,0.1-1.5,0.3-2.3,0.4c-0.6,0.1-1.2,0.2-1.8,0.3c-1.2,0.2-2.4,0.3-3.6,0.5c-0.6,0.1-1.2,0.1-1.8,0.2
	c-1,0.1-1.9,0.2-2.9,0.3c-0.5,0-1.1,0.1-1.6,0.1c-0.8,0-1.7,0.1-2.6,0.1c-0.1,0-0.3,0-0.4,0c-1.3,0-2.5,0.1-3.8,0.1
	c-0.4,0-0.9,0-1.3,0c-47.8-0.5-67.5-16.8-75.6-29.6v0c0,0,0,0,0,0c-0.6-9.8-0.8-18.7-1-25.1C88.7,648.7,112,663,128,660.7
	c23.8-3.4,60.4-2,88.3-41.5c0.3-0.4,0.6-0.8,0.8-1.2c0.3-0.4,0.6-0.8,0.8-1.2c0.3-0.4,0.6-0.8,0.8-1.2c0.3-0.4,0.6-0.8,0.8-1.3
	c0.3-0.4,0.5-0.7,0.7-1.1c0.3-0.5,0.6-1,0.9-1.4c0.3-0.4,0.5-0.9,0.8-1.3c0.3-0.4,0.5-0.9,0.8-1.3c0.1-0.1,0.2-0.3,0.2-0.4
	c0.4-0.8,0.9-1.6,1.3-2.4c0.5-1,1-1.9,1.5-2.9c0.5-0.9,0.9-1.8,1.4-2.8c0.5-1,1-2,1.5-3.1c0.3-0.6,0.6-1.2,0.8-1.8
	c0-0.1,0.1-0.2,0.2-0.4c2.3-5.2,4.5-10.9,6.6-17c27.5-81.6-54.1-137.5-75.6-137.5c-10,0-27.7,3-45.9,14c0-0.1,0.1-0.2,0.1-0.2l0,0
	c4.2-9.3,10.8-19.2,15.7-25.8c6.1-8.2,21.6-76.2,27.6-103.7c1.2,2.9,2.4,5.4,3.4,7.5c60.1,18.1,138.4,6.9,196.7-66.2
	c6.4-8,12-16.1,17-24.2c1.4-2.3,2.8-4.6,4-6.9c0.7-1.2,1.3-2.3,1.9-3.5c1.1-2,2.1-4.1,3.1-6.1c0.2-0.5,0.5-1,0.7-1.5
	c0.4-0.9,0.8-1.7,1.2-2.6c0.3-0.7,0.6-1.4,0.9-2.1c0.6-1.3,1.2-2.7,1.7-4c21.4-50.9,15.4-99.1-18-118.7c0.3,0.1,0.6,0.1,0.9,0.2
	c24.1,5.8,44.1,14.5,57,22c0,0,0.4,0.9,1.1,2.5c0,0,0,0,0,0.1c0.2,0.4,0.3,0.8,0.5,1.3c0.1,0.4,0.3,0.8,0.5,1.2
	C436.8,139.9,452.8,190.3,435.7,227.4z"/>
<path class="st0" d="M834.3,292.5c-0.6-1.6-1.3-3.1-1.9-4.6c-0.4-1-0.9-2.1-1.3-3.1c-1-2.3-2-4.6-3-6.9c-0.5-1.1-1-2.2-1.5-3.3
	c-0.5-1.1-1-2.1-1.5-3.2c-0.7-1.5-1.4-3-2.1-4.4c-0.7-1.5-1.4-2.9-2.1-4.4c-0.1-0.2-0.2-0.4-0.3-0.6c-1-2-2-4-3-6c-1-2-2-4-3.1-5.9
	c-1.3-2.4-2.6-4.7-3.8-7c-1.3-2.3-2.6-4.6-3.9-6.8c-0.2-0.3-0.4-0.7-0.6-1c-0.2-0.3-0.4-0.6-0.6-1c-0.4-0.7-0.8-1.3-1.2-2
	c0-0.1-0.1-0.2-0.2-0.3c-0.4-0.7-0.8-1.3-1.2-2c-0.2-0.3-0.4-0.7-0.6-1s-0.4-0.7-0.6-1c-0.5-0.8-1-1.6-1.5-2.4
	c-0.3-0.4-0.5-0.8-0.8-1.2c-0.4-0.6-0.7-1.2-1.1-1.7c0,0-0.1-0.1-0.1-0.2c-0.4-0.5-0.7-1.1-1.1-1.6c-0.1-0.1-0.2-0.3-0.3-0.4
	c-0.3-0.5-0.7-1-1-1.6c-0.4-0.7-0.9-1.3-1.3-2c-0.4-0.7-0.9-1.3-1.3-2c-0.5-0.7-0.9-1.3-1.4-2c-0.5-0.7-0.9-1.3-1.3-1.9
	c-0.7-1.1-1.5-2.1-2.2-3.1c-0.7-1-1.5-2.1-2.2-3.1c-0.5-0.7-1-1.4-1.6-2.1c-0.5-0.7-1.1-1.4-1.6-2.1c-1.2-1.6-2.4-3.1-3.6-4.7
	c-1.2-1.5-2.4-3-3.6-4.5c-1.3-1.6-2.6-3.1-3.8-4.6c-0.8-0.9-1.6-1.8-2.4-2.7c-0.3-0.4-0.7-0.8-1-1.2c-0.2-0.3-0.5-0.5-0.7-0.8
	c-3.9-4.4-7.8-8.4-11.6-12.2c-0.9-0.9-1.7-1.7-2.6-2.6c-0.9-0.8-1.7-1.7-2.6-2.5c-0.2-0.2-0.4-0.4-0.6-0.5c-0.5-0.5-1-0.9-1.5-1.3
	c-0.5-0.5-1-0.9-1.5-1.4c-2.6-2.4-5.2-4.6-7.7-6.7c-0.5-0.4-1-0.8-1.5-1.2c-0.5-0.4-1-0.8-1.5-1.2c-0.5-0.4-1-0.8-1.5-1.2
	c-0.5-0.4-1-0.8-1.5-1.1c-1.7-1.3-3.3-2.5-4.9-3.7c-0.5-0.4-1.1-0.8-1.6-1.2c-0.1-0.1-0.3-0.2-0.4-0.3c0,0,0,0,0,0
	c0,0-0.1,0-0.1-0.1c0,0,0,0-0.1,0c-0.1,0-0.1-0.1-0.2-0.1c0,0,0,0,0,0c0,0,0,0,0,0c-0.1-0.1-0.2-0.1-0.2-0.2c-0.7-0.5-1.4-1-2-1.4
	c-0.1-0.1-0.3-0.2-0.4-0.3c-0.7-0.4-1.3-0.9-1.9-1.3c-0.1-0.1-0.3-0.2-0.4-0.3c-0.1-0.1-0.3-0.2-0.4-0.3c-0.2-0.1-0.3-0.2-0.5-0.3
	c-0.1,0-0.2-0.1-0.3-0.2c-0.2-0.1-0.4-0.3-0.7-0.4c0,0-0.1,0-0.1-0.1c-0.9-0.6-1.8-1.2-2.7-1.7c-0.9-0.5-1.7-1-2.5-1.5
	c-0.8-0.5-1.6-1-2.4-1.4c-1-0.6-2.1-1.2-3.1-1.7c-0.5-0.3-1-0.5-1.5-0.8c-0.5-0.3-1-0.5-1.4-0.8c-0.5-0.2-0.9-0.5-1.4-0.7
	c-0.5-0.2-0.9-0.5-1.3-0.7c-0.3-0.1-0.5-0.3-0.7-0.4c-0.2-0.1-0.5-0.2-0.7-0.3c-0.2-0.1-0.4-0.2-0.6-0.3c-0.7-0.4-1.5-0.7-2.1-1
	c-0.7-0.3-1.4-0.6-2-0.9c-0.3-0.1-0.6-0.3-0.9-0.4c-0.3-0.1-0.6-0.3-0.9-0.4c-0.3-0.1-0.6-0.2-0.8-0.3c-0.1-0.1-0.2-0.1-0.4-0.1
	c-0.1,0-0.2-0.1-0.2-0.1c0,0-0.1,0-0.1,0c-0.6-0.3-1.2-0.5-1.7-0.7c-0.2-0.1-0.5-0.2-0.7-0.3c-0.6-0.2-1.1-0.4-1.6-0.6
	c-0.1,0-0.3-0.1-0.4-0.1c0,0,0,0,0,0c0,0-0.1,0-0.1,0c0,0,0,0,0,0c-0.2-0.1-0.3-0.1-0.5-0.2c0,0,0,0,0,0c-0.1,0-0.2,0-0.2-0.1
	c-0.1,0-0.3-0.1-0.4-0.1c-0.1,0-0.2-0.1-0.3-0.1c0,0-0.1,0-0.1,0c-0.1,0-0.2,0-0.2,0s-101-48.9-258.7-5.5c0,0,0.4,1,1.1,2.8
	c0,0,0,0,0,0.1c0.2,0.4,0.3,0.8,0.5,1.3c0.1,0.4,0.3,0.8,0.5,1.2c6,15.9,22,66.2,4.9,103.3c38.4-0.7,84-1.3,113.5,24.3
	c0.4,0.3,0.8,0.7,1.2,1c1.9,1.8,3.8,3.6,5.6,5.6c4.6,5.1,8.7,11.1,12.1,18.1c24.4,49.6,19.2,123,18.9,126.2l66,3.5
	c0,0-6.9-130.7,0-139.2c6.9-8.6,61-41.2,115.1-24.9c0,0,0,0.1,0,0.1c1.7,14.9,12.9,46.5,13.7,48.7h0c1.2,0,26.2-6.1,54.4,6.5
	C835.6,295.7,835,294.1,834.3,292.5z"/>
<path class="st0" d="M358.3,266.1c-58.5,73-136.6,84.2-196.7,66.2c-1-2-2.2-4.6-3.4-7.5c-14-32.9-39.7-119,37.7-188.5
	c56.8-51,124.5-51.7,175-39.8C415.6,122.6,411.4,199.8,358.3,266.1z"/>
<path class="st0" d="M898.4,326.8v26.1c-1.1-0.2-2.3-0.3-3.4-0.6c-0.1,0-0.3,0-0.4-0.1c-0.5-0.1-1-0.2-1.5-0.3
	c-0.9-0.2-1.8-0.4-2.7-0.7c-6.2-1.7-12.2-4.3-18-7.7c-0.4-0.3-0.9-0.5-1.3-0.8c-1.7-1-3.3-2.1-4.9-3.2c-1.1-0.7-2.1-1.5-3.2-2.3
	c0,0-0.1-0.1-0.1-0.1c-6-4.6-11.9-10.1-17.9-16.5c0,0.1,0,0.1,0,0.2c-0.1-0.1-0.1-0.1-0.2-0.2c-0.5-1.6-1.1-3.2-1.6-4.7
	c-0.5-1.6-1.1-3.1-1.7-4.7c-0.4-1-0.7-2-1.1-3c-0.9-2.4-1.8-4.8-2.7-7.1c-0.5-1.3-1-2.5-1.5-3.7c-0.6-1.6-1.3-3.2-1.9-4.7
	c-0.6-1.6-1.3-3.1-1.9-4.6c-0.4-1-0.9-2.1-1.3-3.1c-1-2.3-2-4.6-3-6.9c-0.5-1.1-1-2.2-1.5-3.3c-0.5-1.1-1-2.1-1.5-3.2
	c-0.7-1.5-1.4-3-2.1-4.4c-0.7-1.5-1.4-2.9-2.1-4.4c-0.1-0.2-0.2-0.4-0.3-0.6c-1-2-2-4-3-6c-1-2-2-4-3.1-5.9c-1.3-2.4-2.6-4.7-3.8-7
	c-1.3-2.3-2.6-4.6-3.9-6.8c-0.2-0.3-0.4-0.7-0.6-1c-0.8-1.5-1.7-2.9-2.6-4.3c-0.4-0.7-0.8-1.3-1.2-1.9c-0.2-0.3-0.4-0.7-0.6-1
	c-0.5-0.8-1-1.6-1.5-2.4c-0.5-0.8-1-1.6-1.5-2.3c-0.1-0.2-0.3-0.4-0.4-0.7c0,0-0.1-0.1-0.1-0.2c-0.4-0.5-0.7-1.1-1.1-1.6
	c-0.1-0.1-0.2-0.3-0.3-0.4c-0.3-0.5-0.7-1-1-1.6c-0.4-0.7-0.9-1.3-1.3-2c-0.4-0.7-0.9-1.3-1.3-2c-0.5-0.7-0.9-1.3-1.4-2
	c-0.5-0.7-0.9-1.3-1.3-1.9c-0.7-1.1-1.5-2.1-2.2-3.1c-0.7-1-1.5-2.1-2.2-3.1c-0.5-0.7-1-1.4-1.6-2.1c-0.5-0.7-1.1-1.4-1.6-2.1
	c-1.2-1.6-2.4-3.1-3.6-4.7c-1.2-1.5-2.4-3-3.6-4.5c-1.3-1.6-2.6-3.1-3.8-4.6c-0.8-0.9-1.6-1.8-2.4-2.7c-0.3-0.4-0.7-0.8-1-1.2
	c-0.2-0.3-0.5-0.5-0.7-0.8c-3.9-4.4-7.8-8.4-11.6-12.2c-0.9-0.9-1.7-1.7-2.6-2.6c-0.9-0.8-1.7-1.7-2.6-2.5c-0.2-0.2-0.4-0.4-0.6-0.5
	c-0.5-0.5-1-0.9-1.5-1.3c-0.5-0.5-1-0.9-1.5-1.4c-2.6-2.4-5.2-4.6-7.7-6.7c-0.5-0.4-1-0.8-1.5-1.2c-0.5-0.4-1-0.8-1.5-1.2
	c-0.5-0.4-1-0.8-1.5-1.2c-0.5-0.4-1-0.8-1.5-1.1c-1.7-1.3-3.3-2.5-4.9-3.7c-0.5-0.4-1.1-0.8-1.6-1.2c-0.1-0.1-0.3-0.2-0.4-0.3
	c0,0,0,0,0,0c0,0-0.1,0-0.1-0.1c0,0,0,0-0.1,0c-0.1,0-0.1-0.1-0.2-0.1c0,0,0,0,0,0c0,0,0,0,0,0c0,0,0,0,0,0
	c-0.1-0.1-0.2-0.1-0.2-0.2c-0.2-0.1-0.3-0.2-0.5-0.3c-0.1-0.1-0.3-0.2-0.4-0.3c-0.2-0.2-0.5-0.3-0.7-0.5c-0.4-0.3-0.8-0.6-1.2-0.8
	c-0.3-0.2-0.5-0.3-0.8-0.5c-0.1,0-0.1-0.1-0.2-0.1c-0.3-0.2-0.7-0.4-1-0.7c-0.1-0.1-0.3-0.2-0.4-0.3c-0.2-0.1-0.3-0.2-0.5-0.3
	c-0.1,0-0.2-0.1-0.2-0.2c-0.3-0.2-0.5-0.3-0.7-0.5c0,0-0.1,0-0.1-0.1c-0.9-0.6-1.8-1.2-2.7-1.7c-0.6-0.4-1.1-0.7-1.7-1
	c-0.3-0.2-0.6-0.3-0.8-0.5c-0.8-0.5-1.6-1-2.4-1.4c-1-0.6-2.1-1.2-3.1-1.7c-0.5-0.3-1-0.5-1.5-0.8c-0.5-0.3-1-0.5-1.4-0.8
	c-0.5-0.2-0.9-0.5-1.4-0.7c-0.5-0.2-0.9-0.5-1.3-0.7c-0.3-0.1-0.5-0.3-0.7-0.4c-0.2-0.1-0.5-0.2-0.7-0.3c-0.2-0.1-0.4-0.2-0.6-0.3
	c-0.7-0.4-1.5-0.7-2.1-1c-0.7-0.3-1.4-0.6-2-0.9c-0.3-0.1-0.6-0.3-0.9-0.4c-0.3-0.1-0.6-0.3-0.9-0.4c-0.3-0.1-0.6-0.2-0.8-0.3
	c-0.1,0-0.2-0.1-0.3-0.1c-0.1,0-0.2-0.1-0.3-0.1c0,0-0.1,0-0.1,0c-0.6-0.3-1.2-0.5-1.7-0.7c-0.2-0.1-0.5-0.2-0.7-0.3
	c-0.6-0.2-1.1-0.4-1.6-0.6c-0.1,0-0.3-0.1-0.4-0.1c0,0,0,0,0,0c0,0-0.1,0-0.1,0c0,0,0,0,0,0c-0.2-0.1-0.3-0.1-0.5-0.2c0,0,0,0,0,0
	c-0.1,0-0.2,0-0.2-0.1c-0.1,0-0.3-0.1-0.4-0.1c-0.1,0-0.2-0.1-0.3-0.1c0,0-0.1,0-0.1,0c3.6-6.2,23.1-8,23.1-8s0.5,0.2,1.3,0.6
	c2.5,1.1,8.5,3.9,16.5,8.4c1.2,0.7,2.4,1.3,3.6,2.1c1.8,1,3.6,2.2,5.6,3.4c1.9,1.2,3.8,2.4,5.8,3.7c0,0,0.1,0,0.1,0
	c1.2,0.8,2.5,1.6,3.7,2.5c0.5,0.3,1,0.7,1.5,1.1c0.5,0.4,1,0.7,1.6,1.1c0.5,0.4,1,0.7,1.6,1.1c0.7,0.5,1.5,1,2.2,1.6
	c1,0.8,2.1,1.6,3.2,2.4c0.5,0.4,1,0.7,1.5,1.1c0.3,0.2,0.6,0.4,0.9,0.7c1.2,0.9,2.4,1.8,3.5,2.8c0.6,0.5,1.2,1,1.8,1.4
	c0.6,0.5,1.2,1,1.8,1.5c0.5,0.4,0.9,0.7,1.4,1.1h0c0.5,0.4,1,0.9,1.6,1.3v0c0,0,0,0,0,0c0.5,0.4,1,0.9,1.5,1.3
	c0.2,0.2,0.4,0.3,0.6,0.5c0.5,0.4,1,0.8,1.5,1.3c0.7,0.6,1.4,1.2,2,1.8c0.5,0.4,1,0.9,1.5,1.3l0,0c0.1,0.1,0.3,0.3,0.4,0.4
	c0.5,0.5,1,0.9,1.6,1.4c0.3,0.3,0.6,0.6,0.9,0.8c0.6,0.6,1.3,1.2,1.9,1.8c0.7,0.6,1.3,1.2,2,1.9c0.3,0.3,0.6,0.6,1,1
	c0.3,0.3,0.7,0.7,1,1l0.7,0.7c0.6,0.6,1.3,1.3,1.9,1.9c0.9,0.9,1.8,1.8,2.7,2.8c0.6,0.6,1.1,1.2,1.7,1.8c0.6,0.6,1.1,1.2,1.7,1.8
	c2.3,2.5,4.5,5.1,6.8,7.8c2.7,3.3,5.4,6.7,8.1,10.3c2.9,3.9,5.8,8.1,8.6,12.3c0.7,1.1,1.4,2.1,2,3.2c0.6,0.9,1.2,1.9,1.7,2.9
	c0.5,0.8,1,1.7,1.5,2.5c0.4,0.7,0.9,1.5,1.3,2.3c3,5.3,5.8,10.8,8.5,16.6c15,32.6,28.1,53.7,38.6,67.2c0.8,1.1,1.6,2.1,2.4,3
	c0.4,0.5,0.8,1,1.2,1.4c1.2,1.4,2.3,2.7,3.4,3.9c0.1,0.1,0.3,0.3,0.4,0.4c0.3,0.3,0.7,0.7,1,1c8.5,9.1,14.8,12.9,18.5,14.2
	C898.3,326.8,898.4,326.8,898.4,326.8z"/>
<path class="st0" d="M898.4,326.8c0,0-0.1,0-0.1,0c-3.7-1.3-10-5.1-18.5-14.2c-0.3-0.3-0.6-0.7-1-1c-0.1-0.1-0.3-0.3-0.4-0.4
	c-11.7-13-27.2-35.9-45.6-75.8c-2.6-5.7-5.4-11.2-8.5-16.4c-0.4-0.8-0.9-1.5-1.3-2.3c-0.5-0.9-1-1.7-1.5-2.5c-0.6-1-1.2-1.9-1.7-2.9
	c-0.7-1.1-1.3-2.1-2-3.2c-2.7-4.3-5.6-8.4-8.6-12.3c-2.7-3.5-5.4-7-8.1-10.3c-2.2-2.7-4.5-5.3-6.8-7.8c-0.6-0.6-1.1-1.2-1.7-1.8
	c-0.6-0.6-1.1-1.2-1.7-1.8c-0.9-0.9-1.8-1.9-2.7-2.8c-0.3-0.3-0.6-0.6-0.9-0.9c-0.3-0.4-0.7-0.7-1-1l-0.7-0.7c-0.3-0.3-0.7-0.7-1-1
	c-0.3-0.3-0.6-0.6-1-1c-0.7-0.6-1.3-1.3-2-1.9c-0.7-0.6-1.3-1.2-1.9-1.8c-0.3-0.3-0.6-0.6-0.9-0.8c-0.5-0.5-1-1-1.6-1.4
	c-0.1-0.1-0.3-0.3-0.4-0.4l0,0c0,0,0,0,0,0c-1.2-1.1-2.3-2.1-3.5-3.1c-0.5-0.4-1-0.8-1.5-1.3c-0.2-0.2-0.4-0.4-0.6-0.5
	c-1-0.9-2.1-1.8-3.1-2.7h0c-1-0.9-2.1-1.8-3.2-2.6c-0.6-0.5-1.2-1-1.8-1.4c-1.2-0.9-2.4-1.9-3.5-2.8c-0.3-0.2-0.6-0.4-0.9-0.7
	c-0.5-0.4-1-0.7-1.5-1.1c-1.1-0.8-2.1-1.6-3.2-2.4c-0.7-0.5-1.5-1.1-2.2-1.6c-0.5-0.4-1-0.7-1.6-1.1c-0.5-0.4-1-0.7-1.6-1.1
	c-0.5-0.3-1-0.7-1.5-1.1c-1.3-0.9-2.5-1.7-3.7-2.5c0,0-0.1,0-0.1,0c-2-1.3-3.9-2.5-5.8-3.7c-1.9-1.2-3.8-2.3-5.6-3.4
	c-1.2-0.7-2.4-1.4-3.6-2.1c-8.1-4.6-14-7.4-16.5-8.5c24.9-6.4,110.2-22.8,161,36.4C918.9,206.5,907.5,290.4,898.4,326.8z"/>
<path class="st0" d="M848,372.2c-1.2-1.2-2.5-1.8-4-1.8c-0.1,0-0.2,0-0.3,0c-8.1-0.5-20.2,13.4-54.1,22.8
	c-40.4,11.1-72.2-10.4-72.2-10.4l-17.1,8.2l-9.3-11.4c0,0,4.3-0.8,23.1-6.9c13-56.9,44.9-74.4,59.9-79.5l-0.6,0.1
	c0.4-0.2,0.9-0.3,1.3-0.5c0.1,0,0.2-0.1,0.3-0.1c2-0.7,3.7-1.1,4.8-1.3c0,0,0.1,0,0.1,0c0.6-0.1,1.2-0.3,1.9-0.5
	c-0.8-2.3-12-33.8-13.7-48.7c-54.1-16.2-108.1,16.3-115,25c-6.9,8.7,0,139.2,0,139.2l-66.2-3.5c0,0,0,0,0-0.1l-0.1,0
	c0,0,6-75.6-18.9-126.3c-3.4-6.9-7.4-12.8-12-18c-1.8-2-3.7-3.9-5.6-5.6c-0.4-0.3-0.8-0.7-1.2-1c-29.5-25.5-75.1-24.9-113.5-24.2
	c-7.1,37.2-18.6,43.8-20.4,44.6c2.9,0.4,31.8,4.6,51.4,27.5c20.6,24.1,28.4,66.2,28.4,66.2l25.7,11l-0.1,0.3l-4.2,13.9l-21.9-12.4
	c-48.7,10.5-93.5,4.6-125-17.5L356.6,407c0,0-23.1,47.7-35.7,101c-3,13-4.4,28.1-5.2,44.1v0c-0.1,2.3-0.2,4.5-0.3,6.8
	c0,1.2-0.1,2.5-0.1,3.7c0,1.6-0.1,3.3-0.1,4.9c0,1.5-0.1,3.1-0.1,4.6c0,1.5-0.1,3.1-0.1,4.6c-0.1,6.1-0.2,12.1-0.3,18.2
	c0,2.1-0.1,4.1-0.1,6.1v0.4c0,0,0.1-0.1,0.1-0.1c8.1-7.6,24-16.5,46.9-3.8c34.8,19.3,48.9,97.4,39.1,134.1c-0.3,1.2-0.7,2.4-1,3.6
	c-0.3,1.2-0.7,2.4-1,3.5c-0.3,1-0.6,2-0.9,2.9c-0.2,0.5-0.3,1-0.5,1.4c-0.2,0.5-0.3,1-0.5,1.4c-0.5,1.4-1,2.8-1.5,4.2
	c-0.2,0.5-0.4,0.9-0.5,1.4c-10.7,27.2-28.2,45.2-57.6,38.5c-1-0.2-2-0.5-3-0.8l8.2,70.9c0,0,8.8,7.6,32.5,14
	c0-11.2,18.9-34.2,18.9-34.2c0,0,0.1,0,0.1,0c0.1-0.2,0.2-0.3,0.2-0.3c18.9,6.9,23.5,39.4,22.9,41.3c0,0.1-0.1,0.2-0.1,0.3
	c1.1,0.1,2.2,0.2,3.4,0.3c9.2,0.7,18.6,1.1,27.7,1.2c-0.6-1.3-1.1-2.8-1.6-4.5c-3.7-12.9,5-24.9,10.9-31.3c0.2-0.2,0.3-0.3,0.5-0.5
	c0.4-0.4,0.8-0.8,1.1-1.2c0.1-0.1,0.3-0.3,0.4-0.4c0.1-0.1,0.2-0.2,0.3-0.3c0.1-0.1,0.1-0.1,0.2-0.2c1.7-1.7,2.9-2.7,2.9-2.7
	s14,6.3,18.1,23.1c1.7,7.5,2.4,11.5,1.4,16.5c0,0.2-0.1,0.3-0.1,0.5c8.6-0.5,16.6-1.2,23.9-1.8c0,0-2.1-17.3,7.4-30.3
	c0.2-0.2,0.4-0.5,0.5-0.7c2-2.7,4.5-5.2,7.6-7.3c0,0,12.7,10.8,15.5,34.1c0,0.1,0,0.3,0,0.4c4.7-0.7,7.2-1.1,7.2-1.1
	s13.7-72.6,22.3-93.7c4.9-12.1,10.6-17,14.5-18.9l7.8,101.8c0,0,32.3,8,68.8,10.1c-1.2-7,5.6-23.8,16-30.2c0.2-0.2,0.5-0.3,0.7-0.4
	c1.5-1,3.1-1.7,4.7-2.1c0,0,17.7,6,28.4,30.6c0,0.1,0.1,0.2,0.1,0.2c3.9-0.7,7.6-1.5,11.1-2.4c0.6-1.4-4.8-20.8,15.1-31
	c0.3-0.2,0.5-0.3,0.8-0.4c0.1-0.1,0.3-0.1,0.4-0.2c0,0,0.1,0,0.1,0c5.1-2.5,12.9-5.3,22.4,8.3c0.6-1.3,1.4-2.4,2.4-3.4
	c0,0,0.1-0.1,0.1-0.1c3.9-4.1,10.5-5.1,10.5-5.1s0.8-0.2,2-0.3c0.3-0.5,0.5-0.7,0.5-0.7s-0.5-25.9-0.2-59.2c0-3.3,0.1-6.6,0.1-10
	c0.2-14.2,0.5-29.4,1.1-44.3c0.6-14.9,1.3-29.4,2.4-42.4c1.6-18.1,5.7-40.4,10.8-63.5c0.7-3.1,1.4-6.4,2.3-9.5
	c12.2-51.2,29-103.7,35-119.4c8.1-21.6,20.5-96.7,23.1-112.4c0-0.3,0.1-0.5,0.1-0.7s0.1-0.4,0.1-0.6c0-0.3,0.1-0.5,0.1-0.7
	c0-0.2,0-0.3,0.1-0.4c0-0.3,0.1-0.4,0.1-0.4C848.2,372.3,848.1,372.2,848,372.2z M740.9,476.8c-0.2-0.1-0.5-0.2-0.8-0.3h0
	c-0.3-0.1-0.5-0.2-0.8-0.3c-0.3-0.1-0.6-0.2-0.9-0.3c-0.3-0.1-0.7-0.2-1-0.4c-0.3-0.1-0.7-0.3-1.1-0.4c-10.6-3.8-32-11-43.4-11.5
	c-0.6,0-1.2,0-1.8,0c-0.3,0-0.7,0-1,0.1c-13.7,1.3-40.9,12.4-83.4,8.2c-42.5-4.3-58.8-9.4-90.6-7.7s-60.1,7.4-60.1,7.4
	s51.9-45.1,75.2-43.4c23.1,1.7,65.3,10.2,99.2,9.4c34-0.8,40.4-12.1,70.5,0.4c0.5,0.2,0.9,0.4,1.4,0.6c0.5,0.2,0.9,0.4,1.4,0.6
	c1.9,0.9,3.6,1.8,5.3,2.7c11.2,6.2,19.3,14.4,24.7,21.3c0.5,0.7,1,1.3,1.5,2c0.1,0.1,0.1,0.2,0.2,0.3c0.7,1,1.4,1.9,2,2.8
	c0.5,0.7,0.9,1.3,1.3,2c0.3,0.4,0.5,0.8,0.7,1.2c0.2,0.4,0.5,0.8,0.7,1.1c0.2,0.3,0.4,0.7,0.6,1c0.4,0.7,0.7,1.2,0.9,1.7
	c0.1,0.2,0.2,0.5,0.3,0.7c0.4,0.9,0.7,1.4,0.7,1.5C742.4,477.3,741.8,477.1,740.9,476.8z"/>
<path class="st0" d="M930.8,648.2c-0.7,13.6-2.8,30.3-7.8,42c0,0.1-0.1,0.1-0.1,0.2c0-0.1,0-0.1,0-0.2c-1.7,4-3.9,7.5-6.4,10
	c-5.7,5.6-11,8.2-15.6,9.4c-0.3,0.1-0.6,0.1-0.9,0.2c-0.2,0-0.4,0.1-0.6,0.1c-0.8,0.1-1.5,0.2-2.2,0.3c-0.4,0-0.8,0-1.2,0.1
	c-0.5,0-1,0-1.5,0c-0.2,0-0.3,0-0.5,0c-0.2,0-0.3,0-0.5,0c-0.3,0-0.6-0.1-0.9-0.1c-0.3,0-0.5-0.1-0.8-0.1c-3.9-0.7-6.2-2.2-6.2-2.2
	s0,0-0.1,0c0,0,0,0,0,0c0,0,0-0.1,0-0.1c0,0-1.3,0.7-3.6,1.6c4.5-6.8,7.2-13.7,8.5-20.4c3.4-16.6-9.2-45.6-13.1-45.8c0,0,0,0,0,0
	c-0.1,0-0.1,0-0.2,0c0,0-22.3,23.7-21.5,37.5c0.5,8,0.4,22.4-1.3,35.3c-0.4,0-0.8,0-1.2,0c-3.4-0.2-6.5-0.9-8.9-2.4c0,0-0.1,0-0.1,0
	c0,0,0,0,0,0c-1.8,0.4-3.5,0.7-5.2,0.9c-3.6,0.5-6.7,0.6-9.5,0.5c-0.3,0-0.6,0-0.9,0c-0.3,0-0.6,0-0.9-0.1c-0.3,0-0.6,0-0.9-0.1
	c-0.3,0-0.6-0.1-0.8-0.1c-0.8-0.1-1.6-0.2-2.4-0.4c-2.3-0.4-4.4-1-6.2-1.7c-1.4-0.5-2.7-1.1-4-1.6c1-4,1.8-8.2,2.3-12.5
	c6.3-47.8-17-81.5-24.9-91.5c12.2-51.2,29-103.7,35-119.4c8.1-21.6,19.9-96.6,22.3-112.1c0-0.3,0.1-0.5,0.1-0.7s0.1-0.4,0.1-0.6
	c0-0.3,0.1-0.5,0.1-0.7c0-0.2,0-0.3,0.1-0.4c0-0.3,0.1-0.4,0.1-0.4s-0.2-40-3.3-51.7c6,6.4,12,11.8,17.9,16.4c0,0,0.1,0,0.1,0.1
	c1,0.8,2.1,1.6,3.2,2.3c1.6,1.2,3.3,2.2,4.9,3.2c0.4,0.3,0.9,0.5,1.3,0.8c5.9,3.5,11.8,6.1,18,7.7c0.9,0.2,1.8,0.5,2.7,0.7
	c0.5,0.1,1,0.2,1.5,0.3c0.1,0,0.3,0.1,0.4,0.1c1.1,0.2,2.2,0.4,3.4,0.6v0c0,0,0.1,0,0.1,0l-7.4,102.4c0,0,5.2,8.8,12.2,21.7
	c0,0,0,0.1-0.1,0.1c0,0,0-0.1-0.1-0.1c-7.8,13.7-19.5,43.3-17.6,95.1c2,52.5,17.7,77.2,27.5,87.6c0.3,0.4,0.7,0.7,1,1
	c0.3,0.3,0.7,0.7,1,1c0.8,0.8,1.6,1.5,2.3,2.1c0.2,0.1,0.3,0.3,0.5,0.4c0.7,0.6,1.3,1,1.8,1.4c0.2,0.1,0.3,0.2,0.4,0.3
	c0.5,0.3,0.8,0.5,0.8,0.5s0.2-0.3,0.5-0.8c0.1-0.1,0.1-0.2,0.2-0.4c0.6-1,1.5-2.6,2.7-4.6c0.1-0.2,0.2-0.4,0.3-0.6
	c0.2-0.4,0.4-0.8,0.7-1.2c0.2-0.4,0.5-0.9,0.7-1.3c0.1-0.2,0.3-0.5,0.4-0.7C927.8,654.3,929.3,651.3,930.8,648.2z"/>
<path class="st0" d="M931.1,642.2c-0.1,1.8-0.1,3.8-0.2,5.8v0.1l0,0v0c-2.2,4.6-4.4,8.7-6.1,11.9c-0.1,0.2-0.2,0.4-0.3,0.6
	c-1.1,2-2.1,3.6-2.7,4.6c-0.1,0.1-0.2,0.3-0.2,0.4c-0.3,0.6-0.5,0.8-0.5,0.8s-0.3-0.2-0.8-0.5c-0.1-0.1-0.3-0.2-0.4-0.3
	c-0.5-0.3-1.1-0.8-1.8-1.4c-0.1-0.1-0.3-0.2-0.5-0.4c-0.7-0.6-1.5-1.3-2.3-2.1c-0.3-0.3-0.6-0.6-1-1c-0.3-0.3-0.7-0.7-1-1
	c-9.8-10.4-25.5-35.1-27.5-87.6c-1.9-51.8,9.8-81.4,17.6-95.1c0,0,0,0.1,0.1,0.1c5.3,9.9,11.7,22,17.7,34.6
	c-0.2,0.6-0.5,1.1-0.8,1.7c-1,2.4-2.2,5.4-3.2,8.8c0,0,0,0.1,0,0.1c-0.2,0.8-0.5,1.5-0.7,2.4c-0.2,0.5-0.3,1.1-0.5,1.6
	c-0.3,0.9-0.5,1.9-0.8,2.9c-0.4,1.5-0.8,3.1-1.1,4.7c-2.5,12.1-3.8,27.8-1.4,46.2c0.4,3.2,0.9,6.3,1.4,9.2c0.2,1,0.3,1.9,0.5,2.9
	c0.2,1,0.3,1.9,0.5,2.8c0,0,0,0,0,0c0.2,1.4,0.5,2.7,0.7,4c0.2,0.9,0.3,1.7,0.5,2.6c0.1,0.5,0.2,1.1,0.3,1.6
	c0.2,0.7,0.3,1.4,0.4,2.1c0,0.2,0.1,0.4,0.1,0.5c1.6,7.4,3.4,13.6,5.2,18.9c0.2,0.6,0.4,1.2,0.7,1.8c0.4,1.2,0.9,2.3,1.4,3.4
	c0.5,1.1,0.9,2.1,1.4,3.1C927.3,636.9,929.2,639.8,931.1,642.2z"/>
<path class="st0" d="M932.9,643.6c-0.1,0.1-0.1,0.4-0.2,0.5c-0.5-0.6-1.1-1.2-1.6-1.8c-7.7-9.8-13.9-27.6-18.6-62
	c-4.6-33.3,3.5-57.4,8.4-68.5c8.8,18.4,16.6,37.7,19,51.5C946.1,598.8,938.7,630.7,932.9,643.6z"/>
<path class="st0" d="M777.6,890.9c-8.8-4.7-58.8-20.9-58.2-22.2c0.6-1.3-4.7-20.5,14.6-30.8c0.3-0.1,0.5-0.3,0.8-0.4
	c0.1-0.1,0.3-0.1,0.4-0.2c0,0,0.1,0,0.1,0c5.1-2.5,12.9-5.3,22.4,8.3c0.1,0.1,0.2,0.2,0.2,0.3c0.7,1,1.4,2.2,2.2,3.4
	c4.9,8.3,8.9,16,11.8,22.8C775.2,879.6,777.2,885.9,777.6,890.9z"/>
<path class="st0" d="M815.3,890c0,0-28.6-12.8-43.3-18.2c-2.9-6.7-6.7-14.5-11.8-22.8c-0.7-1.2-1.4-2.3-2.2-3.4
	c0.5-1.4,1.3-2.5,2.2-3.5c0,0,0.1-0.1,0.1-0.1c3.9-4.1,10.5-5.1,10.5-5.1s0.8-0.2,2-0.3c0,0,0.1,0,0.1,0c5.7-0.7,21.5-0.8,31.3,16.9
	C816.6,875.7,815.3,890,815.3,890z"/>
<path class="st0" d="M770.8,837c0,0-6.6,0.9-10.5,5.1c4-3.7,10-4.6,10-4.6s0.8-0.2,2.2-0.4c0.1-0.2,0.3-0.3,0.4-0.5
	C771.6,836.8,770.8,837,770.8,837z M735.3,837.3C735.3,837.3,735.3,837.3,735.3,837.3c5.1-2.4,12.8-4.7,22.2,8.9
	c0.1-0.2,0.2-0.4,0.2-0.6C748.2,832,740.5,834.7,735.3,837.3z M707.7,871.1c-10.7-24.6-28.4-30.6-28.4-30.6
	c-1.7,0.4-3.2,1.2-4.7,2.1c1.3-0.8,2.7-1.4,4.1-1.7c0,0,17.7,6,28.4,30.6c0.2,0,0.5-0.1,0.7-0.1
	C707.8,871.3,707.8,871.2,707.7,871.1z M568,276.4c-3.4-7-7.5-12.9-12.1-18.1c4.6,5.1,8.6,11.1,12,18
	c24.9,50.7,18.9,126.3,18.9,126.3l0.1,0C587.2,399.4,592.4,326.1,568,276.4z M537.2,874.6c-2.9-23.3-15.5-34.1-15.5-34.1
	c-3.1,2.1-5.6,4.6-7.6,7.3c1.9-2.5,4.3-4.8,7.3-6.8c0,0,12.7,10.8,15.5,34.1c0.1,0,0.3,0,0.4-0.1
	C537.2,874.9,537.2,874.8,537.2,874.6z M495.1,365.7c0,0-7.8-42.1-28.4-66.2c-19.6-22.9-48.5-27.1-51.4-27.5c0,0,0,0,0,0
	c-0.1,0.1-0.2,0.1-0.2,0.1s31,3.5,51.6,27.5c20.6,24.1,28.4,66.2,28.4,66.2l25.6,11.2l0.1-0.3L495.1,365.7z M480.8,863.6
	c-4.1-16.9-18.1-23.1-18.1-23.1s-1.2,1-2.9,2.7c1.5-1.4,2.4-2.2,2.4-2.2s14,6.3,18.1,23.1c1.7,7.4,2.5,11.3,1.6,16.5
	c0.1,0,0.2,0,0.3,0h0c0-0.2,0.1-0.3,0.1-0.5C483.2,875.1,482.5,871.1,480.8,863.6z M394.1,838.3c0,0-0.1,0.1-0.2,0.3
	c18.9,7,23.5,39.5,22.8,41.3c0.1,0,0.2,0,0.3,0c0-0.1,0.1-0.2,0.1-0.3C417.6,877.8,413,845.2,394.1,838.3z"/>
<path class="st0" d="M495.1,365.7c0,0-7.8-42.1-28.4-66.2c-19.6-22.9-48.5-27.1-51.4-27.5c0,0,0,0,0,0c-0.1,0-0.2,0-0.2,0
	c-0.3,0.6-0.5,1.1-0.8,1.7c-0.2,0.5-0.5,1-0.7,1.5c0,0,0,0.1-0.1,0.1c-0.7,1.5-1.5,3-2.3,4.5c-0.3,0.6-0.7,1.2-1,1.8
	c-0.5,0.9-1,1.7-1.4,2.6c-0.4,0.7-0.7,1.3-1.1,1.9c-0.4,0.7-0.8,1.4-1.3,2.1c-0.6,0.9-1.1,1.9-1.7,2.8c-0.1,0.2-0.2,0.3-0.3,0.4
	c-0.3,0.4-0.5,0.9-0.8,1.3c0,0,0,0,0,0c0,0,0,0,0,0c-0.5,0.8-1,1.5-1.5,2.3c-0.5,0.8-1,1.5-1.5,2.3c-0.4,0.6-0.8,1.2-1.2,1.8
	c-0.4,0.6-0.8,1.2-1.3,1.7c-0.4,0.6-0.8,1.2-1.3,1.7c-0.7,0.9-1.4,1.8-2,2.7c-0.6,0.8-1.2,1.5-1.8,2.3c-0.4,0.5-0.9,1.1-1.3,1.6
	c-0.4,0.5-0.9,1.1-1.3,1.6c-0.3,0.3-0.6,0.7-0.9,1c-1.4,1.7-2.9,3.4-4.3,5c-0.4,0.5-0.9,1-1.3,1.4c-0.2,0.2-0.3,0.4-0.5,0.6
	c-0.4,0.5-0.8,0.9-1.2,1.4c-0.8,0.9-1.6,1.8-2.4,2.6c-0.8,0.9-1.6,1.7-2.4,2.5c-1.1,1.1-2.2,2.2-3.3,3.3c-0.7,0.7-1.4,1.4-2.1,2
	c-0.4,0.4-0.9,0.9-1.3,1.3c-0.4,0.3-0.7,0.7-1.1,1c-0.2,0.2-0.4,0.4-0.6,0.5c-0.2,0.2-0.4,0.4-0.7,0.6c-0.9,0.9-1.8,1.7-2.7,2.4
	c-0.3,0.3-0.6,0.6-1,0.8c-1.1,1-2.1,1.8-3,2.6c-1,0.9-2,1.7-2.8,2.4c-0.4,0.3-0.8,0.7-1.2,1c-0.3,0.3-0.7,0.6-1,0.8
	c-1.3,1.1-2.3,1.8-2.9,2.2c-0.2,0.1-0.3,0.2-0.3,0.3c0,0,0,0-0.1,0c0,0-0.1,0-0.1,0c1.2,1.3,2.5,2.6,3.7,3.8
	c0.1,0.1,0.1,0.1,0.2,0.2c1.9,1.9,3.9,3.6,5.9,5.3c0.7,0.6,1.4,1.1,2.1,1.7c1.4,1.1,2.9,2.2,4.4,3.2c31.5,22.1,76.3,28,125,17.5
	l21.9,12.4l4.2-13.9l0.1-0.3L495.1,365.7z M477.2,359.8c-37.8,20-64.8-11.8-64.8-30.4C454.3,319.2,479.5,358.6,477.2,359.8z"/>
<path class="st0" d="M400.8,731.8c-0.3,1.2-0.7,2.4-1,3.6c-0.3,1.2-0.7,2.4-1,3.5c-0.3,1-0.6,2-0.9,2.9c-0.2,0.5-0.3,1-0.5,1.4
	c-0.2,0.5-0.3,1-0.5,1.4c-0.5,1.4-1,2.8-1.5,4.2c-0.2,0.5-0.4,0.9-0.5,1.4c-10.8,26.9-28.2,44.8-57.5,38.2c-1-0.2-2-0.5-3-0.8
	c-31.2-9.5-46-53.3-48.9-83.4c0.2-0.2,0.3-0.3,0.5-0.5c0.5-0.5,1.1-1.1,1.6-1.7c0,0,0.1-0.1,0.1-0.1c0,0,0,0.1,0,0.1v0
	c2.6,14.3,14.4,68.6,44.9,70h2.2c34.7-1.2,45.4-52.5,45-73.5c0-0.4,0-0.8,0-1.2c0-0.5-0.1-1-0.1-1.4c0-0.4-0.1-0.8-0.1-1.1
	c-0.1-0.7-0.2-1.5-0.3-2.4c0,0,0-0.1,0-0.1c-0.1-0.7-0.2-1.4-0.3-2.1c0-0.3-0.1-0.6-0.1-0.9c0-0.3-0.1-0.5-0.1-0.8
	c-0.1-0.5-0.2-1-0.2-1.5c0-0.3-0.1-0.6-0.2-0.9c-0.1-0.5-0.2-1-0.3-1.6c-0.1-0.4-0.2-0.9-0.2-1.3c-0.2-0.9-0.3-1.9-0.5-2.9
	c-0.4-1.9-0.8-3.9-1.3-6c0,0,0,0,0-0.1c-0.2-1-0.5-2.1-0.8-3.1c-0.1-0.5-0.3-1.1-0.4-1.6c0,0,0,0,0-0.1c-0.3-1.1-0.6-2.2-0.9-3.3
	c-0.3-1.1-0.6-2.2-1-3.4c-0.3-1.1-0.7-2.3-1.1-3.4c-0.1-0.4-0.3-0.9-0.4-1.3c-0.1-0.2-0.2-0.4-0.2-0.7c-0.4-1-0.7-2.1-1.2-3.2
	c-0.2-0.6-0.4-1.1-0.7-1.7c-0.7-1.7-1.4-3.4-2.1-5.1c-0.5-1.1-1-2.2-1.5-3.2c-0.6-1.1-1.1-2.3-1.7-3.4c-0.3-0.5-0.6-1.1-0.9-1.6
	c-0.4-0.6-0.7-1.2-1.1-1.8c-0.3-0.4-0.5-0.8-0.8-1.3c-0.6-1-1.3-2-2-3c-0.3-0.5-0.7-1-1.1-1.4c-0.3-0.5-0.7-0.9-1.1-1.4
	c-0.4-0.4-0.7-0.9-1.1-1.3c0,0,0,0,0,0c-0.4-0.5-0.8-0.9-1.2-1.3c-0.2-0.2-0.3-0.4-0.5-0.6c-0.3-0.4-0.7-0.7-1.1-1.1
	c-0.2-0.2-0.4-0.4-0.6-0.6c-0.2-0.2-0.4-0.4-0.7-0.6c-0.1-0.1-0.1-0.1-0.2-0.1c-0.2-0.2-0.5-0.4-0.8-0.7c-0.4-0.4-0.9-0.8-1.4-1.2
	c0,0-0.1-0.1-0.2-0.1c-0.1-0.1-0.2-0.2-0.3-0.3c-0.1-0.1-0.1-0.1-0.2-0.2c-0.1-0.1-0.1-0.1-0.2-0.2c-0.3-0.2-0.6-0.4-0.8-0.6
	c0,0,0,0,0,0c-0.4-0.3-0.9-0.6-1.3-0.9c-0.4-0.3-0.9-0.6-1.4-0.8c-0.4-0.3-0.9-0.5-1.3-0.7c-0.1,0-0.1-0.1-0.2-0.1
	c-0.4-0.2-0.8-0.4-1.2-0.6c-0.1-0.1-0.2-0.1-0.4-0.2c-0.4-0.2-0.9-0.4-1.3-0.6c-0.4-0.2-0.9-0.4-1.3-0.5c-0.3-0.1-0.5-0.2-0.8-0.3
	c-0.2-0.1-0.4-0.2-0.7-0.2c-0.3-0.1-0.5-0.2-0.8-0.2c-0.3-0.1-0.6-0.2-1-0.3c-0.1,0-0.2-0.1-0.4-0.1c-0.5-0.1-0.9-0.2-1.4-0.3
	c-0.5-0.1-1.1-0.2-1.7-0.3c-0.5-0.1-1-0.1-1.6-0.2c-0.4,0-0.7-0.1-1.1-0.1c-0.3,0-0.6,0-0.9-0.1c-4.3-0.2-9,0.3-14.1,1.8l-0.2-2.2
	c0.1-4.2,0.2-8.5,0.3-12.9c8.1-7.6,24-16.5,46.9-3.8C396.5,616.9,410.6,695,400.8,731.8z"/>
<path class="st0" d="M334.7,772.2h-2.2c-30.6-1.4-42.4-56-45-70.1l0,0v0c3.4-3.5,6.6-7.2,9.6-11.3c7.7,10.1,22.4,32.7,23.1,57
	c2.6-3.6,5.1-7.1,7.2-10.6c0.3-0.5,0.6-1,0.9-1.5c0.5-0.9,1-1.8,1.6-2.8c7.5-13.8,10.3-26.5,10.3-37.8c0-24.9-13.8-43.3-22.6-52.5
	l-3-26c18.2-5.2,31.4,1.1,40.9,12.2c0,0,0,0,0,0c0.4,0.4,0.7,0.9,1.1,1.3c0.4,0.5,0.7,0.9,1.1,1.4c0.4,0.5,0.7,1,1.1,1.4
	c0.7,1,1.4,2,2,3c0.3,0.4,0.5,0.8,0.8,1.3c0.4,0.6,0.7,1.2,1.1,1.8c0.3,0.5,0.6,1.1,0.9,1.6c0.6,1.1,1.2,2.2,1.7,3.4
	c0.5,1.1,1,2.1,1.5,3.2c0.8,1.7,1.5,3.4,2.1,5.1c0.2,0.6,0.4,1.1,0.7,1.7c0.4,1,0.8,2.1,1.2,3.2c0.1,0.2,0.2,0.4,0.2,0.7
	c0.2,0.4,0.3,0.9,0.4,1.3c0.4,1.1,0.7,2.3,1.1,3.4c0.3,1.1,0.7,2.3,1,3.4c0.3,1.1,0.6,2.2,0.9,3.3c0,0,0,0,0,0.1
	c0.1,0.5,0.3,1.1,0.4,1.6c0.3,1.1,0.5,2.1,0.8,3.1c0,0,0,0,0,0.1c0.5,2.1,0.9,4.1,1.3,6c0.2,1,0.4,2,0.5,2.9
	c0.7,3.6,1.1,6.7,1.5,9.2c0,0,0,0.1,0,0.1c0.1,0.9,0.2,1.8,0.3,2.5c0,0.3,0.1,0.7,0.1,1c0,0.5,0.1,0.9,0.1,1.4
	C380.7,717.3,370.1,770.9,334.7,772.2z"/>
<path class="st0" d="M330,732.9c-0.5,0.9-1,1.8-1.6,2.8c-0.3,0.5-0.6,1-0.9,1.5c-2.1,3.5-4.4,7-7.2,10.6
	c-0.6-24.3-15.3-46.9-23.1-57c-2.8-3.6-4.6-5.7-4.6-5.7s2.4-43.7,18-48.8c0,0,0.1,0,0.1,0c0,0,0.9,0.7,2.3,2c0,0,0.1,0.1,0.1,0.1
	c1.2,1.1,2.8,2.5,4.6,4.5C330.3,655.8,353.9,688.7,330,732.9z"/>
<path class="st0" d="M240.1,793c0,0-41.6-16.5-48.9-53.5v-0.4c1.5-22.8,14.1-36.6,14.6-37.1c0,0,0,0,0,0s14,0,30.8,29.5h0
	c0,0,0,0,0,0C237.6,749.5,240.1,793,240.1,793z"/>
<path class="st0" d="M167.9,782.7c0,0-45.9-26.3-45.9-53.5c0-17.9,5.4-26.2,9-29.7c0.3-0.3,0.6-0.6,0.9-0.8c0.3-0.3,0.7-0.5,1-0.7
	c0.9-0.7,1.6-0.9,1.6-0.9s22.7,18.6,29.5,41.8c0,0,0,0.1,0,0.1c-0.1,1.2-0.1,2.5-0.1,3.8C163.8,758.7,167.9,782.7,167.9,782.7z"/>
<path class="st0" d="M125.2,766.6c0,0-33.5-21.7-37.2-44.7c-1.1-6.9-1.2-12.7-0.7-17.5c0,0,0,0,0,0c0-0.1,0-0.1,0-0.2
	c1-11.2,4.7-17,4.7-17s18.7,16.4,24.9,33.3c0,0,0,0.1,0,0.2v0c-0.1,0.4-0.1,0.8-0.2,1.2c0,0.1,0,0.3,0,0.4c0,0.1,0,0.2,0,0.3
	c0,0.1,0,0.2,0,0.3c0,0.5,0,0.9,0,1.4c0,0.8,0.1,1.6,0.2,2.5c0,0.1,0,0.2,0,0.3C118.1,741.3,125.2,766.6,125.2,766.6z"/>
<path class="st0" d="M417,879.7c0,0.1-0.1,0.2-0.1,0.3c-0.9,2.7-5,16.2-12.4,30c-5.8-21.8-28.1-25.7-29.3-36.4v-1
	c0-10.5,16.5-31.3,18.7-33.9c0.1-0.2,0.2-0.3,0.2-0.3C413,845.2,417.6,877.8,417,879.7z"/>
<path class="st0" d="M482.2,880.2c0,0.2-0.1,0.3-0.1,0.5h0c-1.3,6.6-5.4,15.2-13.8,34.6c-3.6-18.3-14-19.6-19.9-34.2
	c-0.6-1.3-1.1-2.8-1.6-4.5c-3.6-12.6,4.5-24.3,10.4-30.8c0.2-0.2,0.3-0.3,0.5-0.5c0.4-0.4,0.8-0.8,1.1-1.2c0.1-0.1,0.3-0.3,0.4-0.4
	c0.1-0.1,0.2-0.2,0.3-0.3c0.1-0.1,0.1-0.1,0.2-0.2c1.7-1.7,2.9-2.7,2.9-2.7s14,6.3,18.1,23.1C482.5,871.1,483.2,875.1,482.2,880.2z"
	/>
<path class="st0" d="M535.6,904.1c-8.1-15.2-29.2-25.8-29.2-25.8s-2.1-16.8,7-29.8c0.2-0.2,0.4-0.5,0.5-0.7c2-2.7,4.5-5.2,7.6-7.3
	c0,0,12.7,10.8,15.5,34.1c0,0.1,0,0.3,0,0.4C538.3,883.3,538,892.9,535.6,904.1z"/>
<path class="st0" d="M714.5,896.8c-15.4-7-53.3-15.7-55.8-22.8c-0.1-0.4-0.2-0.7-0.2-1.1c-1.1-6.9,5.4-23.1,15.4-29.9
	c0.2-0.2,0.5-0.3,0.7-0.4c1.5-1,3.1-1.7,4.7-2.1c0,0,17.7,6,28.4,30.6c0,0.1,0.1,0.2,0.1,0.2C710.8,878.3,713.2,886.7,714.5,896.8z"
	/>
<path class="st0" d="M800.1,696.1c-3.1,30-17,55.9-26.3,70.4c0.4-28.4,1.3-60.7,3.5-86.7c1.6-18.1,5.7-40.4,10.8-63.5
	C792.6,627.2,803.8,659,800.1,696.1z"/>
<path class="st0" d="M815.4,698.2c-0.6,4.3-1.3,8.6-2.3,12.5c-8,33.3-27.8,55.1-39.4,65.7c0-3.3,0.1-6.6,0.1-10l0,0
	c9.3-14.5,23.1-40.4,26.3-70.4c3.9-37.1-7.5-68.9-11.9-79.8c0.7-3.1,1.4-6.4,2.3-9.5C798.4,616.7,821.6,650.3,815.4,698.2z"/>
<path class="st0" d="M890.2,688.8c-1.4,6.6-4,13.6-8.6,20.4c0,0.1-0.1,0.1-0.1,0.2c-6.6,10.1-17.1,20-32.7,28.3c0,0,0-0.1,0.1-0.2
	c1.4-3.2,2.6-6.3,3.5-8.9c-0.2,0.3-0.5,0.6-0.8,0.8c0,0-0.1,0.1-0.2,0.1c1.2-4,2-8.8,2.7-13.9c1.7-12.9,1.8-27.4,1.3-35.3
	C854.7,666.7,877,643,877,643c0.1,0,0.1,0,0.2,0C881.5,644.1,893.7,672.4,890.2,688.8z"/>
<path class="st0" d="M910,742c-21,17.7-42.7,24.1-40.5,22.7c1.4-1,9.4-11.7,13.6-28.7c0.2-0.8,0.4-1.6,0.6-2.4
	c0.3-1.6,0.7-3.3,0.9-5c0.1-0.9,0.3-1.7,0.4-2.6c0.7-5.1,0.9-10.7,0.5-16.6c0-0.6-0.1-1.1-0.1-1.7v-0.1c0,0,0,0,0,0c0,0,0,0,0,0
	c0.4,0.3,3,1.8,7.1,2.3c0.3,0,0.6,0.1,0.9,0.1c0.2,0,0.3,0,0.5,0c0.2,0,0.3,0,0.5,0c0.5,0,1,0,1.5,0c0.4,0,0.8,0,1.2-0.1
	c0.7,0,1.5-0.1,2.2-0.3c0.2,0,0.4-0.1,0.6-0.1c0.3-0.1,0.6-0.1,0.9-0.2c4.6-1.1,10-3.8,15.6-9.4c2.5-2.5,4.7-6,6.4-10
	c0,0.1,0,0.1,0,0.2c0,0,0,0,0,0C924.6,702.1,925.9,728.5,910,742z"/>
<path class="st0" d="M885,726c-0.1,0.9-0.2,1.8-0.4,2.6c-0.3,1.7-0.6,3.4-0.9,5c-0.2,0.8-0.4,1.6-0.6,2.4
	c-9.9,8.2-29.4,22.4-48.5,25.4c6.4-8.2,11-16.6,14.2-23.9c0,0,0,0,0.1,0c7.7-4.1,14.2-8.7,19.6-13.5c5.4-4.8,9.7-9.8,13-14.8
	c0,0,0.1,0,0.1,0c0,0,0.1,0,0.2-0.1c2.3-0.9,3.6-1.6,3.6-1.6c0,0,0,0.1,0,0.1v0.1c0,0.6,0.1,1.1,0.1,1.7
	C885.9,715.3,885.6,720.9,885,726z"/>
<path class="st0" d="M854.3,715.8c-0.6,5-1.4,9.7-2.6,13.7c0,0,0,0.1,0,0.1c-3.9,4.3-9.9,10-18.1,15.5c-8.2,5.5-18.6,10.9-31.4,14.4
	c15.8-13.7,15.8-37.4,14.9-47.1c1.9,0.7,4,1.3,6.3,1.7c0.8,0.2,1.6,0.3,2.4,0.4c0.3,0,0.5,0.1,0.8,0.1c0.3,0,0.6,0.1,0.9,0.1
	c0.3,0,0.6,0.1,0.9,0.1c0.3,0,0.6,0,0.9,0c2.8,0.1,6,0,9.5-0.5c1.6-0.2,3.4-0.5,5.2-0.9c0,0,0,0,0,0c2.4,1.6,5.5,2.2,9,2.4
	c0.4,0,0.8,0,1.2,0H854.3z"/>
<path class="st0" d="M742.4,477.3c-0.1,0-0.6-0.2-1.5-0.6c-0.3-0.1-0.5-0.2-0.8-0.3h0c-0.3-0.1-0.5-0.2-0.8-0.3
	c-0.3-0.1-0.6-0.2-0.9-0.3c-0.3-0.1-0.7-0.2-1-0.4c-0.3-0.1-0.7-0.3-1.1-0.4c-10.6-3.8-32-11.1-43.4-11.5c-0.6,0-1.2,0-1.8,0
	c-0.3,0-0.7,0-1,0.1c-13.7,1.3-40.9,12.4-83.4,8.2c-42.5-4.3-58.8-9.4-90.6-7.7s-60.1,7.4-60.1,7.4s51.9-45.1,75.2-43.4
	c23.1,1.7,65.3,10.2,99.2,9.4c34-0.8,40.4-12.1,70.5,0.4c0.5,0.2,0.9,0.4,1.4,0.6c0.5,0.2,0.9,0.4,1.4,0.6c1.9,0.9,3.6,1.8,5.3,2.7
	c11.2,6.3,19.2,14.4,24.7,21.3c0.5,0.7,1,1.3,1.5,2c0.1,0.1,0.1,0.2,0.2,0.3c0.7,1,1.4,1.9,2,2.8c0.4,0.7,0.9,1.3,1.3,2
	c0.3,0.4,0.5,0.8,0.7,1.2c0.2,0.4,0.5,0.8,0.7,1.1c0.2,0.4,0.4,0.7,0.6,1c0.4,0.7,0.7,1.2,0.9,1.7c0.1,0.2,0.2,0.5,0.3,0.7
	C742.2,476.7,742.4,477.2,742.4,477.3z"/>
<path class="st0" d="M793,344.2c0,3.4-0.9,7.2-2.6,11c-0.2,0.5-0.5,1-0.7,1.5c-0.4,0.8-0.8,1.5-1.2,2.3v0c-0.6,1-1.2,2-1.9,3
	c0,0,0,0,0,0c-0.4,0.6-0.9,1.3-1.4,1.9c-0.5,0.6-1,1.2-1.5,1.8c-0.2,0.3-0.5,0.5-0.7,0.8c-0.5,0.5-0.9,1-1.4,1.5
	c-0.7,0.7-1.4,1.3-2.1,2c-0.4,0.4-0.9,0.8-1.3,1.2c-0.5,0.4-0.9,0.7-1.4,1.1c-1,0.7-1.9,1.4-3,2.1c-0.5,0.3-1,0.6-1.6,1
	c-0.3,0.1-0.5,0.3-0.8,0.4c-11.2,6.2-26.1,7.7-43.3-1.3C725.8,373.3,751,333.9,793,344.2z"/>
<path class="st0" d="M477.2,359.8c-37.8,20-64.8-11.8-64.8-30.4C454.3,319.2,479.5,358.6,477.2,359.8z"/>
<path class="st0" d="M844.9,320.7c-0.1-0.1-0.1-0.1-0.2-0.2c-0.5-1.6-1.1-3.2-1.6-4.7c-0.5-1.6-1.1-3.1-1.7-4.7c-0.4-1-0.7-2-1.1-3
	c-0.9-2.4-1.8-4.8-2.7-7.1c-0.5-1.3-1-2.5-1.5-3.7c-28.2-12.6-53.2-6.5-54.4-6.5h0c-0.7,0.2-1.3,0.3-1.9,0.5c0,0-0.1,0-0.1,0
	c-1.2,0.3-2.8,0.7-4.8,1.3c-0.1,0-0.2,0.1-0.3,0.1c-0.4,0.1-0.9,0.3-1.3,0.5l0.6-0.1c-15,5.1-46.9,22.6-59.9,79.5
	c-18.8,6-23.1,6.9-23.1,6.9l9.3,11.4l17.1-8.2c0,0,31.8,21.5,72.2,10.4c33.9-9.4,46-23.3,54.1-22.8c0.1,0,0.2,0,0.3,0
	c1.5,0.1,2.8,0.6,4,1.8c0.1,0.1,0.2,0.1,0.2,0.2C848.3,372.4,848,332.4,844.9,320.7z M790.4,355.2c-0.2,0.5-0.5,1-0.7,1.5
	c-0.4,0.8-0.8,1.5-1.2,2.3v0c-0.6,1-1.2,2-1.9,3c0,0,0,0,0,0c-0.4,0.6-0.9,1.3-1.4,1.9c-0.5,0.6-1,1.2-1.5,1.8
	c-0.2,0.3-0.5,0.5-0.7,0.8c-0.5,0.5-0.9,1-1.4,1.5c-0.7,0.7-1.4,1.3-2.1,2c-0.4,0.4-0.9,0.8-1.3,1.2c-0.5,0.4-0.9,0.7-1.4,1.1
	c-1,0.7-1.9,1.4-3,2.1c-0.5,0.3-1,0.7-1.6,1c-0.3,0.1-0.5,0.3-0.8,0.4c-11.2,6.2-26.1,7.8-43.3-1.3c-2.3-1.2,22.9-40.6,64.8-30.4
	C793,347.5,792.1,351.4,790.4,355.2z"/>
</svg>
