<?xml version="1.0" encoding="utf-8"?>
<!-- Generator: Adobe Illustrator 25.2.0, SVG Export Plug-In . SVG Version: 6.00 Build 0)  -->
<svg version="1.1" baseProfile="tiny" id="Layer_1" xmlns="http://www.w3.org/2000/svg" xmlns:xlink="http://www.w3.org/1999/xlink"
	 x="0px" y="0px" viewBox="0 0 1000 1000" overflow="visible" xml:space="preserve">
<path fill="#FFFFFF" stroke="#000000" stroke-miterlimit="10" d="M422.35,367.19c-8.42,10.62-14.66,21.77-19.26,32.67
	c-7.04,16.64-10.27,32.68-11.7,45.24c-21.87,15.97-36.96,11.48-36.96,11.48c1.36-8.75,2.89-17.06,4.53-24.93
	c9.56-45.87,23.08-76.82,31.07-92.44c-2.29-4.48-5.98-11.74-7.56-15.22c-2.37-5.23,3.33-33.74,7.13-41.82
	c0.35-0.74,0.92-1.49,1.68-2.24c0.87,9.69,3.13,23.87,8.9,28.85c5.58,4.81,9.61,6.14,12.93,8.21
	C413.54,331.69,415.53,351.83,422.35,367.19z"/>
<path fill="#FFFFFF" stroke="#000000" stroke-miterlimit="10" d="M459.23,347.63c-0.15,0.46-0.28,0.95-0.4,1.43
	c0,0.01,0,0.02,0,0.02c-0.48,1.89-0.81,3.92-0.96,6.09c-8.67-6.37-20.1-14.31-24.9-15.56c-8.2-2.13-9.8-9.09-14.26-16.75
	c-1.71-2.96-3.51-4.56-5.6-5.87c-3.32-2.07-7.35-3.4-12.93-8.21c-5.77-4.98-8.03-19.16-8.9-28.85c4.26-4.26,14.34-8.67,22.96-12.71
	c-1.34,7.79-3.82,24.29-1.24,26.59c3.39,3.03,6.96,2.32,9.99,7.49c3.03,5.17,11.76,24.41,11.76,24.41S449.65,336.76,459.23,347.63z"
	/>
<path fill="#FFFFFF" stroke="#000000" stroke-miterlimit="10" d="M650.38,256.63c-3.42,3.15-10.11,9.27-17.97,16.21
	c-1.92,1.7-3.91,3.45-5.94,5.21c-1.98,1.73-4.01,3.47-6.04,5.22c-0.75,0.64-1.5,1.28-2.25,1.91c-0.56,0.48-1.12,0.95-1.67,1.41
	c-3.63,3.06-7.22,6.01-10.62,8.71c-0.18,0.15-0.36,0.29-0.54,0.43c-0.07,0.06-0.13,0.11-0.2,0.16
	c-8.17,6.44-15.13,11.29-18.56,12.18c-12.35,1.66-17.83,0.24-20.8,4.28c-2.96,4.04-19.36,21.38-19.36,21.38l-18.29,4.52
	l-18.87,18.67c0.04-2.98-0.98-7.25-3-11.54l21.63-25.19c0,0,6.18,2.14,10.93-3.33c4.75-5.46,14.73-29.94,19.72-31.36
	c4.99-1.43,18.3-3.09,21.63-6.18c2.91-2.7,19.84-24.7,23.54-36.84C628.14,251.71,643.49,252.95,650.38,256.63z"/>
<path fill="#FFFFFF" stroke="#000000" stroke-miterlimit="10" d="M667.86,309.53v0.02c0.02,4.64-0.3,9.31-1.07,13.85
	c-24.16-0.96-40.17-6.31-60.68-26.56c-0.25-0.24-0.49-0.48-0.74-0.73c-0.07-0.07-0.15-0.15-0.22-0.22c0.07-0.05,0.13-0.1,0.2-0.16
	c0.18-0.14,0.36-0.28,0.54-0.43c3.4-2.7,6.99-5.65,10.62-8.71c0.55-0.46,1.11-0.93,1.67-1.41c0.75-0.63,1.5-1.27,2.25-1.91
	c2.03-1.73,4.05-3.48,6.04-5.22c2.03-1.76,4.02-3.51,5.94-5.21c7.86-6.94,14.55-13.06,17.97-16.21c0.68,0.37,1.28,0.76,1.8,1.18
	C658.73,263.16,667.74,286.12,667.86,309.53z"/>
<path fill="#FFFFFF" stroke="#000000" stroke-miterlimit="10" d="M603.72,242.48c-3.7,12.14-20.63,34.14-23.54,36.84
	c-3.33,3.09-16.64,4.75-21.63,6.18c-4.99,1.42-14.97,25.9-19.72,31.36c-4.75,5.47-10.93,3.33-10.93,3.33l-21.63,25.19
	c-3.72-7.88-10.83-15.85-21.14-16.16c-10.5-0.31-21.93,5.47-25.9,18.41c-9.58-10.87-24.48-21.92-24.48-21.92
	s-8.73-19.24-11.76-24.41c-3.03-5.17-6.6-4.46-9.99-7.49c-2.58-2.3-0.1-18.8,1.24-26.59c6.51-3.07,12.19-5.92,13.86-8.34
	c2.47-3.58,4.47-17.34,5.99-34.29c3.69-1.47,10.1-4.69,18.48-7.4c2.6,5.03,10.57,18.95,19.05,19.24
	c8.28,0.28,13.02-16.41,14.59-23.11c18.59,1.19,38.32,5.47,38.68,4.57c0.49-1.25-8.87-14.26-21.52-24.41
	c-4.13-3.31-9.37-5.49-14.57-6.92c-0.28-3.87-0.94-9.48-0.94-9.48s4.28,0.18,12.3-6.24c8.02-6.41,3.92-18.53,4.27-23.88
	c0.04-0.56,0.2-1.26,0.46-2.05c11.48,13.91,21.06,57.98,64.95,81.89C582.63,233.77,593.91,238.77,603.72,242.48z"/>
<path fill="#FFFFFF" stroke="#000000" stroke-miterlimit="10" d="M485.9,137.31c-7.09,8.08-14.1,13.12-16.93,15.53
	c-2.28,13.89-7.66,19.96-7.66,19.96c-7.41-0.41-6.6-12.83-11.23-18.18c-1.43-1.12-2.76-2.27-4-3.46
	c5.04-5.86,12.42-9.17,22.89-11.57C468.97,139.59,476.81,136.98,485.9,137.31z"/>
<path fill="#FFFFFF" stroke="#000000" stroke-miterlimit="10" d="M445,192.89c-1.5,1.3-3.2,2.94-5.08,5.22
	c-1.69,2.04-3.12,4.18-4.31,6.32c0.4-6.44,0.75-12.94,1.04-19.21c0.17-3.69,0.44-7.07,0.82-10.18c1.07,1.64,2.61,3.3,4.77,4.89
	C443.63,184.72,444.57,190.13,445,192.89z"/>
<path fill="#FFFFFF" stroke="#000000" stroke-miterlimit="10" d="M390.55,470.37c0,0-50.85,33.26-96.47,92.67
	c-22.13,28.82-40.47,59.32-53.48,83.08c-9.36,17.11-15.96,30.72-19.24,37.71c-4.75-6.73-10.5-4.6-14.88-1.07
	c-1.03-4.4-2.64-8.45-4.69-11.14c5.78-5.76,8.64-12.49,18.62-27.31c15.69-23.29,82.7-153.03,102.18-181.07
	c14.58-20.98,29.69-28.92,36.37-31.59c-1.64,7.87-3.17,16.18-4.53,24.93c0,0,15.09,4.49,36.96-11.48
	C389.65,460.27,390.55,470.37,390.55,470.37z"/>
<path fill="#FFFFFF" stroke="#000000" stroke-miterlimit="10" d="M221.36,683.83c-1.56,3.32-2.37,5.15-2.37,5.15s0,0-5.7,24.24
	c-1.72,2.18-3,5.46-3.94,9.27c0,0.01,0,0.01,0,0.01c-5.76,7.34-13.04,12.32-14.01,12.98c-0.03,0-0.06,0.03-0.1,0.06
	c-0.01,0.01-0.01,0.01-0.01,0.01c-1.9,1.91-10.46,28.52-11.88,34.22c-1.43,5.71,6.65,38.5,16.63,61.31
	c-25.66-15.21-29.47-66.54-29.47-66.54s13.31-46.09,12.36-48.47c0,0,21.15-5.47,24-14.97c1.41-4.72,1.13-11.9-0.39-18.34
	C210.86,679.23,216.61,677.1,221.36,683.83z"/>
<path fill="#FFFFFF" stroke="#000000" stroke-miterlimit="10" d="M228.02,798.29c-9.51,0.95-34.22-30.42-34.22-30.42
	s3.19-32.78,1.54-32.39c0.97-0.66,8.25-5.64,14.01-12.98c-2.96,12.01-2.6,29.28-2.24,33.97
	C207.58,762.64,224.22,781.65,228.02,798.29z"/>
<path fill="#FFFFFF" stroke="#000000" stroke-miterlimit="10" d="M206.87,701.1c-2.85,9.5-24,14.97-24,14.97
	c-0.95-2.38-13.78,17.11-18.53,42.77c-12.36-29.94,8.55-59.4,22.81-76.99c7.08-3.98,11.34-6.94,14.64-10.23
	c2.05,2.69,3.66,6.74,4.69,11.14C208,689.2,208.28,696.38,206.87,701.1z"/>
<path fill="#FFFFFF" stroke="#000000" stroke-miterlimit="10" d="M629.72,464.19c6.32,9.06,11.22,20.37,14.84,32.66
	c-10.39,14.35-34.8,26.15-34.8,26.15c-1.77,0.36-33.43,31.21-37.34,52.63c-4.13-0.42-11.36-1.17-21.83-2.3
	c-3.67-0.39-7.74-0.83-12.21-1.31c-1.58-0.18-3.22-0.36-4.9-0.54c-10.08-4.64-20.78-30.51-31.61-48.36
	c-4.56-7.52-9.64-13.08-13.29-16.56c1.74-2.7,2.73-4.55,2.73-5.3c0-5.71-9.51-15.69-9.51-15.69s3.41-5.67,1.1-15.67
	c5.55,1.94,12.31,5.05,18.88,9.97c-14.48-28.51-38.16-29.76-38.16-29.76l1.07-16.93c0,0-12.65-20.85-18.89-27.45
	c-6.24-6.59-14.61-9.26-14.61-9.26l3.67-12.31c26.13,20.22,98.54,21.59,135.81-1.24c0.52-0.32,1.03-0.64,1.54-0.95
	c0.7-0.44,1.39-0.88,2.06-1.31c0.3-0.19,0.59-0.38,0.88-0.57c0.48-0.31,0.95-0.62,1.41-0.93c0.46-0.31,0.92-0.61,1.36-0.92
	c5.83-3.97,10.48-7.77,14.21-11.54c0.29-0.29,0.57-0.58,0.84-0.86c1.41-1.48,2.68-2.96,3.82-4.44c0.38-0.49,0.74-0.97,1.08-1.46
	c0.11-0.14,0.21-0.29,0.31-0.43c0.36-0.51,0.7-1.02,1.03-1.54c0.57-0.88,1.1-1.77,1.58-2.66c0.17-0.3,0.32-0.6,0.48-0.9
	c0.17-0.32,0.33-0.64,0.49-0.96c0.13-0.28,0.27-0.57,0.4-0.85c0.3-0.65,0.59-1.31,0.86-1.98c0.23-0.56,0.44-1.13,0.65-1.7
	c0.56-1.56,1.04-3.15,1.45-4.79c0.09-0.33,0.17-0.66,0.24-0.99c0.26-1.07,0.48-2.16,0.68-3.28c0.11-0.59,0.21-1.19,0.3-1.8
	c0.02-0.1,0.03-0.21,0.05-0.33c0.04-0.25,0.08-0.5,0.11-0.76c0.28-1.98,0.5-4.03,0.68-6.16v-0.05c0.12-1.36,0.21-2.76,0.3-4.19
	c0.04-0.6,0.07-1.2,0.1-1.81v-0.07c0.07-1.27,0.13-2.57,0.18-3.91c8.86,4.85,18.65,11.79,28.74,19.9
	c-0.44,13.26,8.19,22.76,8.19,22.76s-7.48,8.43-17.46,16.99c-0.26,1.97-0.35,3.91-0.3,5.8c0.34,16.32,10.63,29.48,10.63,29.48
	l-13.54,11.41c0,0-48.36,25.19-57.74,48.71c11.06-11.4,50.9-27.62,60.69-40.18c5,9.95,13.44,14.28,13.44,14.28
	S636.14,455.28,629.72,464.19z"/>
<path fill="#FFFFFF" stroke="#000000" stroke-miterlimit="10" d="M763.38,469.42l-26.59-24.34v-0.01l-2.16-6.07
	c0,0-52.19-61.36-98.13-98.32c-10.09-8.11-19.88-15.05-28.74-19.9c-0.06-0.04-0.13-0.07-0.19-0.1c-0.11-7.58-0.64-17.56-1.46-23.84
	c20.51,20.25,36.52,25.6,60.68,26.56c0.77-4.54,1.09-9.21,1.07-13.85c13.56,19.89,53.16,76.91,66.65,85.13
	c4.34,2.64,9.59,5.96,14.99,9.49C768.28,485.02,763.38,469.42,763.38,469.42z"/>
<path fill="#FFFFFF" stroke="#000000" stroke-miterlimit="10" d="M607.58,324.69v0.07c-0.03,0.61-0.06,1.21-0.1,1.81
	c-0.09,1.43-0.18,2.83-0.3,4.19v0.05c-0.18,2.13-0.4,4.18-0.68,6.16c-0.03,0.26-0.07,0.51-0.11,0.76c-0.02,0.12-0.03,0.23-0.05,0.33
	c-0.09,0.61-0.19,1.21-0.3,1.8c-0.2,1.12-0.42,2.21-0.68,3.28c-0.07,0.33-0.15,0.66-0.24,0.99c-0.41,1.64-0.89,3.23-1.45,4.79
	c-0.21,0.57-0.42,1.14-0.65,1.7c-0.27,0.67-0.56,1.33-0.86,1.98c-0.13,0.28-0.27,0.57-0.4,0.85c-0.16,0.32-0.32,0.64-0.49,0.96
	c-0.16,0.3-0.31,0.6-0.48,0.9c-0.48,0.89-1.01,1.78-1.58,2.66c-0.33,0.52-0.67,1.03-1.03,1.54c-0.1,0.14-0.2,0.29-0.31,0.43
	c-0.34,0.49-0.7,0.97-1.08,1.46c-1.14,1.48-2.41,2.96-3.82,4.44c-0.27,0.28-0.55,0.57-0.84,0.86c-3.73,3.77-8.38,7.57-14.21,11.54
	c-0.44,0.31-0.9,0.61-1.36,0.92c-0.46,0.31-0.93,0.62-1.41,0.93c-0.29,0.19-0.58,0.38-0.88,0.57c-0.67,0.43-1.36,0.87-2.06,1.31
	c-0.51,0.31-1.02,0.63-1.54,0.95c-37.27,22.83-109.68,21.46-135.81,1.24c-0.53-0.4-1.04-0.82-1.53-1.24
	c-4.61-3.99-8.19-9.46-10.98-15.73c-6.82-15.36-8.81-35.5-9.24-50.2c2.09,1.31,3.89,2.91,5.6,5.87c4.46,7.66,6.06,14.62,14.26,16.75
	c4.8,1.25,16.23,9.19,24.9,15.56v0.01c-1.25,18.24,13.24,30.9,29.4,27.58c16.15-3.33,21.91-17.38,22-25.84l18.87-18.67l18.29-4.52
	c0,0,16.4-17.34,19.36-21.38c2.97-4.04,8.45-2.62,20.8-4.28c3.43-0.89,10.39-5.74,18.56-12.18c0.07,0.07,0.15,0.15,0.22,0.22
	c0.25,0.25,0.49,0.49,0.74,0.73c0.82,6.28,1.35,16.26,1.46,23.84C607.59,322.12,607.6,323.47,607.58,324.69z"/>
<path fill="#FFFFFF" stroke="#000000" stroke-miterlimit="10" d="M853.22,718.84c-3.58-2.49-7.58-4.61-11.51-6.37
	c-4.24-1.92-8.4-3.4-11.81-4.48c0.75-2.84,1.37-6.41,1.92-11.05c0.57-4.85-0.04-11.64-1.51-19.68
	c-5.85-32.11-25.34-84.29-37.7-113.74c-15.44-36.84-38.02-68.44-38.02-68.44l-17.8-50l26.59,24.34c0,0,4.9,15.6-13.88-65.25
	c14.99,9.78,31.21,21.14,32.78,24.02c2.13,3.92,23.52,42.41,38.85,111.56c15.32,69.15,27.35,151.49,27.35,151.49
	S850.68,703.21,853.22,718.84z"/>
<path fill="#FFFFFF" stroke="#000000" stroke-miterlimit="10" d="M827.54,829.18c-14.97,13.19-37.78,26.37-32.43,17.11
	c5.34-9.27,36.35-33.15,37.42-52.4c8.27-18.95,5.97-52.19,0.5-56.96c0.99-10.58,6.24-20.39,8.68-24.46
	c3.93,1.76,7.93,3.88,11.51,6.37c2.72,16.62,5.83,37.36,7.12,52.24C862.83,799.95,842.51,815.99,827.54,829.18z"/>
<path fill="#FFFFFF" stroke="#000000" stroke-miterlimit="10" d="M841.71,712.47c-2.44,4.07-7.69,13.88-8.68,24.46
	c-0.11-0.1-0.21-0.18-0.32-0.25c-5.7-3.74-9.09,15.51-9.09,15.51s-7.79,14.91-6.06,27.09c1.74,12.17-1.07,14.61-3.92,6.77
	c-2.85-7.84-8.2-36-2.49-55.6c10.37-11.53,15.62-10.48,18.75-22.46C833.31,709.07,837.47,710.55,841.71,712.47z"/>
<path fill="#FFFFFF" stroke="#000000" stroke-miterlimit="10" d="M832.53,793.89c-5.7,0-13.18,16.04-13.18,16.04
	s-34.58,3.57-38.86-28.51c11.05,11.05,29.59,18.17,34.93,14.25c5.35-3.92,17.11-24.59,14.62-33.15c-2.5-8.55-6.42-10.33-6.42-10.33
	s3.39-19.25,9.09-15.51c0.11,0.07,0.21,0.15,0.32,0.25C838.5,741.7,840.8,774.94,832.53,793.89z"/>
<path fill="#FFFFFF" stroke="#000000" stroke-miterlimit="10" d="M538.38,572.02c-5.57,3.66-11.66,7.67-18.01,11.96
	c-13.33,9-27.76,19.19-40.71,29.91c-18.49,15.32-34.44,37.49-45.74,55.07c-10.26,15.97-16.68,28.15-17.7,27.98
	c-0.78-0.13-3.92-1.26-7.68-2.69c-6.55-2.49-14.94-5.9-15.85-6.58c-1.42-1.07,8.2-14.25,12.48-23.16
	c4.27-8.92,17.22-58.22,22.93-72.96c2.57-6.66,15.71-24.55,29.36-42.7c12.59-16.77,25.61-33.75,31.12-42.29
	c3.65,3.48,8.73,9.04,13.29,16.56c10.83,17.85,21.53,43.72,31.61,48.36C535.16,571.66,536.8,571.84,538.38,572.02z"/>
<path fill="#FFFFFF" stroke="#000000" stroke-miterlimit="10" d="M648.61,595.36c-0.4,1.42-0.83,2.86-1.31,4.32c0,0,0,0,0,0.01
	c-4.84,15.09-13.34,32.07-21.07,46.01v0.01c-7.69,13.83-14.61,24.66-16.47,27.71c-0.38,0.63-0.77,1.37-1.14,2.23
	c-3.5,7.86-6.59,24.92-5.63,45.17c-1.95,2.17-14.17-8.31-24.02-17.81c-6.35-6.14-11.71-11.87-12.69-13.55
	c-2.25-3.85,3.86-22.11,7.19-40.26v-0.01c0.37-2.03,0.71-4.06,1-6.07c2.86-19.96-5.7-45.62-2.13-67.06
	c0.02-0.14,0.05-0.29,0.08-0.43c3.91-21.42,35.57-52.27,37.34-52.63c0,0,24.41-11.8,34.8-26.15
	C654.64,531.01,654.9,572.82,648.61,595.36z"/>
<path fill="#FFFFFF" stroke="#000000" stroke-miterlimit="10" d="M549.88,784.98c-25.31-16.04-53.47-6.06-76.28,0
	s-73.07,44.91-86.97,81.27c-2.49-13.55,4.28-45.27,18.18-59.17c12.12-5.35,26.73-11.05,26.73-11.05s-50.25-1.07-70.21,33.5
	c-3.57-8.91,13.54-39.2,26.73-43.12c16.04,3.92,37.42,1.78,55.6-4.64c17.61-6.21,28.19-15.02,28.84-15.56
	c5.97-0.25,12.89-1.57,16.79-5.82c1.06-1.16,1.96-2.24,2.74-3.26c16.29,9.98,28.5,2.19,28.5,2.19S544.18,766.45,549.88,784.98z"/>
<path fill="#FFFFFF" stroke="#000000" stroke-miterlimit="10" d="M492.03,757.13c-0.78,1.02-1.68,2.1-2.74,3.26
	c-3.9,4.25-10.82,5.57-16.79,5.82c0.02-0.02,0.03-0.03,0.03-0.03s-15.32-23.97-33.5-37.87c-16.6-12.69-27.85-20.34-30.49-34.06
	c3.76,1.43,6.9,2.56,7.68,2.69c1.02,0.17,7.44-12.01,17.7-27.98c6.94,3.86,18.62,10.68,21.33,14.26
	c3.92,5.17,15.86,58.75,33.68,71.82C489.98,755.81,491.01,756.5,492.03,757.13z"/>
<path fill="#FFFFFF" stroke="#000000" stroke-miterlimit="10" d="M725.6,748.27c-32.49,14.14-70.82-4.48-87.13-17.49
	c-1.49-13.64-2.85-25.3-4.35-30.16c-3.16-10.17-17.71-20.34-25.5-24.97c0.37-0.86,0.76-1.6,1.14-2.23
	c1.86-3.05,8.78-13.88,16.47-27.71c7.92,24.24,28.2,77.98,54.82,87.59c34.57,12.47,88.04-17.47,90.53-72
	C785.13,681.26,764.1,731.52,725.6,748.27z"/>
<path fill="#FFFFFF" stroke="#000000" stroke-miterlimit="10" d="M685.44,844.15c0,0-2.61,43.25-22.81,60.83
	c4.75-24.47,7.37-79.6-18.06-84.83c-25.42-5.23-18.06,60.12-2.14,84.83c-14.02-16.87-34.45-63.68-33.74-64.16
	c0.7-0.47,25.23-24.98,24.5-46.94c3.51,1.48,8.6,2.09,14.74-1.61c0.59,1.68,1.22,3.07,1.87,4.12
	C658.12,809.69,685.44,844.15,685.44,844.15z"/>
<path fill="#FFFFFF" stroke="#000000" stroke-miterlimit="10" d="M647.93,792.27c-6.14,3.7-11.23,3.09-14.74,1.61
	c0-0.19-0.01-0.39-0.02-0.58c-1.19-22.1-49.67-62.87-51.8-72.19c-1.1-4.81-1.89-12.13-2.4-18.1c9.85,9.5,22.07,19.98,24.02,17.81
	c-0.96-20.25,2.13-37.31,5.63-45.17c7.79,4.63,22.34,14.8,25.5,24.97c1.5,4.86,2.86,16.52,4.35,30.16
	C640.88,752.85,643.64,780.12,647.93,792.27z"/>
<path fill="#FFFFFF" stroke="#000000" stroke-miterlimit="10" d="M561.16,614.47l-40.79-30.49c6.35-4.29,12.44-8.3,18.01-11.96
	c4.47,0.48,8.54,0.92,12.21,1.31C552.15,580.19,556.15,597.23,561.16,614.47z"/>
<path fill="#FFFFFF" stroke="#000000" stroke-miterlimit="10" d="M574.47,643.12c-0.29,2.01-0.63,4.04-1,6.07
	c-4.28-8.93-8.58-21.88-12.31-34.72c-5.01-17.24-9.01-34.28-10.57-41.14c10.47,1.13,17.7,1.88,21.83,2.3
	c-0.03,0.14-0.06,0.29-0.08,0.43C568.77,597.5,577.33,623.16,574.47,643.12z"/>
<path fill="#FFFFFF" stroke="#000000" stroke-miterlimit="10" d="M830.31,677.26c-24.3-38.84-90.97-110.21-122.31-119.79
	c-9.79-39.24-38.09-129.01-81.07-171.24c-0.05-1.89,0.04-3.83,0.3-5.8c9.98-8.56,17.46-16.99,17.46-16.99s-8.63-9.5-8.19-22.76
	c45.94,36.96,98.13,98.32,98.13,98.32l2.16,6.07v0.01l17.8,50c0,0,22.58,31.6,38.02,68.44
	C804.97,592.97,824.46,645.15,830.31,677.26z"/>
<path fill="#FFFFFF" stroke="#000000" stroke-miterlimit="10" d="M626.97,435.65c-9.79,12.56-49.63,28.78-60.69,40.18
	c9.38-23.52,57.74-48.71,57.74-48.71C624.66,430.33,625.7,433.16,626.97,435.65z"/>
<path fill="#FFFFFF" stroke="#000000" stroke-miterlimit="10" d="M708,557.47c-2.44-0.75-4.66-1.12-6.63-1.08
	c-18.02,0.4-39.2,23.51-54.07,43.29c0.48-1.46,0.91-2.9,1.31-4.32c6.29-22.54,6.03-64.35-4.05-98.51
	c-3.62-12.29-8.52-23.6-14.84-32.66c6.42-8.91,10.69-14.26,10.69-14.26s-8.44-4.33-13.44-14.28c-1.27-2.49-2.31-5.32-2.95-8.53
	l13.54-11.41c0,0-10.29-13.16-10.63-29.48C669.91,428.46,698.21,518.23,708,557.47z"/>
<path fill="#FFFFFF" stroke="#000000" stroke-miterlimit="10" d="M407.8,539.73c-3.77,0.84-7.74,2.02-11.9,3.59
	c-37.32,14.11-130.9,82.84-155.3,102.8c13.01-23.76,31.35-54.26,53.48-83.08c45.62-59.41,96.47-92.67,96.47-92.67
	s-0.9-10.1,0.84-25.27c1.43-12.56,4.66-28.6,11.7-45.24c8.19,16.28,21.5,44.84,22.35,60.16
	C426.37,476.88,414.03,519.21,407.8,539.73z"/>
<path fill="#FFFFFF" stroke="#000000" stroke-miterlimit="10" d="M482.9,469.9v-0.01c-0.28-1.2-0.64-2.47-1.1-3.8
	c-4.28-12.36-18.18-15.98-18.18-15.98s23.68,1.25,38.16,29.76C495.21,474.95,488.45,471.84,482.9,469.9z"/>
<path fill="#FFFFFF" stroke="#000000" stroke-miterlimit="10" d="M491.31,501.26c0,0.75-0.99,2.6-2.73,5.3
	c-5.51,8.54-18.53,25.52-31.12,42.29c-7.17-5.41-24.08-14.85-49.66-9.12c6.23-20.52,18.57-62.85,17.64-79.71
	c-0.85-15.32-14.16-43.88-22.35-60.16c4.6-10.9,10.84-22.05,19.26-32.67c2.79,6.27,6.37,11.74,10.98,15.73
	c0.49,0.42,1,0.84,1.53,1.24l-3.67,12.31c0,0,8.37,2.67,14.61,9.26c6.24,6.6,18.89,27.45,18.89,27.45l-1.07,16.93
	c0,0,13.9,3.62,18.18,15.98c0.46,1.33,0.82,2.6,1.1,3.8v0.01c2.31,10-1.1,15.67-1.1,15.67S491.31,495.55,491.31,501.26z"/>
<path fill="#FFFFFF" stroke="#000000" stroke-miterlimit="10" d="M509.27,356.92c-0.09,8.46-5.85,22.51-22,25.84
	c11.4-7.06,14.73-16.47,14.51-26.51c-0.22-10.04-9.98-21.58-22.37-21.33c-11.12,0.23-17.26,8.21-19.95,12.97
	c-0.07-0.08-0.14-0.17-0.23-0.26c3.97-12.94,15.4-18.72,25.9-18.41c10.31,0.31,17.42,8.28,21.14,16.16
	C508.29,349.67,509.31,353.94,509.27,356.92z"/>
<path fill="#FFFFFF" stroke="#000000" stroke-miterlimit="10" d="M501.78,356.25c0.22,10.04-3.11,19.45-14.51,26.51
	c-16.16,3.32-30.65-9.34-29.4-27.58v-0.01c0.15-2.17,0.48-4.2,0.96-6.09c0,0,0-0.01,0-0.02c0.19-0.36,0.4-0.75,0.63-1.17
	c2.69-4.76,8.83-12.74,19.95-12.97C491.8,334.67,501.56,346.21,501.78,356.25z"/>
<path fill="#FFFFFF" stroke="#000000" stroke-miterlimit="10" d="M503.37,193.48c-4.13-3.31-9.37-5.49-14.57-6.92
	c-10.74-2.95-21.26-2.71-21.26-2.71s-0.35-13.19,6.78-26.02c3.31-5.97,12.8-12.91,22-18.62c-3.42-1.24-7.01-1.78-10.42-1.9
	c-7.09,8.08-14.1,13.12-16.93,15.53c-2.28,13.89-7.66,19.96-7.66,19.96c-7.41-0.41-6.6-12.83-11.23-18.18
	c-1.43-1.12-2.76-2.27-4-3.46c-1.46,1.69-2.72,3.6-3.8,5.76c6.12,5.3,10.9,12.49,11.18,19.98c0.43,11.23-2.54,10.9-8.46,15.99
	c-1.5,1.3-3.2,2.94-5.08,5.22c-1.69,2.04-3.12,4.18-4.31,6.32c-2.9,5.18-4.45,10.38-5.08,14.3c-0.55,3.37-0.42,5.8,0.12,6.47
	c0.37,0.45,1.54,0.15,3.44-0.61c3.69-1.47,10.1-4.69,18.48-7.4c4.13-1.35,8.73-2.57,13.73-3.4c5.67-0.94,12.71-0.94,19.91-0.47
	c18.59,1.19,38.32,5.47,38.68,4.57C525.38,216.64,516.02,203.63,503.37,193.48z M494.28,208.05c-10.29-1.43-22.13-2.17-30.66,0
	c-0.06,0.01-0.12,0.02-0.18,0.04c-14.28,3.71-24.71,11.83-29.02,12.78c-1.28,0.28-2.02-0.07-2.16-1.37c0,0,0.27-1.21,0.98-3.13
	v-0.01c0.44-1.17,1.04-2.61,1.85-4.21c0,0,0,0,0-0.01c2.15-4.24,5.75-9.57,11.57-13.83c4.75-3.49,10.98-6.26,19.1-7.15
	c5.81-0.63,11.39-0.08,16.58,1.19c19.36,4.72,33.43,19.39,34.01,20.01C515.91,212.25,506.11,209.7,494.28,208.05z"/>
<path fill="#FFFFFF" stroke="#000000" stroke-miterlimit="10" d="M486.21,213.32c-1.57,6.7-6.31,23.39-14.59,23.11
	c-8.48-0.29-16.45-14.21-19.05-19.24c4.13-1.35,8.73-2.57,13.73-3.4C471.97,212.85,479.01,212.85,486.21,213.32z"/>
<path fill="#FFFFFF" stroke="#000000" stroke-miterlimit="10" d="M446.08,151.16c-1.46,1.69-2.72,3.6-3.8,5.76
	c-5.39-4.66-11.82-7.87-17.15-8.53c-7.13-11.94-12.83-45.81,5.52-70.58C430.15,97.56,423.72,129.79,446.08,151.16z"/>
<path fill="#FFFFFF" stroke="#000000" stroke-miterlimit="10" d="M453.46,176.9c-0.28-7.49-5.06-14.68-11.18-19.98
	c-5.39-4.66-11.82-7.87-17.15-8.53l12.47,11.76c0,0-5.05,7.33-0.13,14.89c1.07,1.64,2.61,3.3,4.77,4.89
	c1.39,4.79,2.33,10.2,2.76,12.96C450.92,187.8,453.89,188.13,453.46,176.9z M448.77,179.52c-5.2-2.11-8.63-3.29-8.81-6.85
	c-0.16-3.45-0.68-7.18-0.72-7.43c0-0.01,0-0.01,0-0.01C439.27,165.1,449.16,171.52,448.77,179.52z"/>
<path fill="#FFFFFF" stroke="#000000" stroke-miterlimit="10" d="M517.09,127.71c0,0-1.73,0.84-4.51,2.28
	c-3.96,2.07-10.03,5.36-16.25,9.22c0,0,0,0-0.01,0c-3.42-1.24-7.01-1.78-10.42-1.9c7.62-8.69,15.32-20.88,18-37.04
	c5.06-30.54-1.73-40.23-2.02-40.63c0.42,0.22,14.01,7.67,16.99,30.83C521.9,113.99,517.09,127.71,517.09,127.71z"/>
<path fill="#FFFFFF" stroke="#000000" stroke-miterlimit="10" d="M504.43,146.96c0.04-0.56,0.2-1.26,0.46-2.05
	c1.26-3.91,4.86-10.24,7.69-14.92c-3.96,2.07-10.03,5.36-16.25,9.22c0,0,0,0-0.01,0c-9.2,5.71-18.69,12.65-22,18.62
	c-7.13,12.83-6.78,26.02-6.78,26.02s10.52-0.24,21.26,2.71c-0.28-3.87-0.94-9.48-0.94-9.48s4.28,0.18,12.3-6.24
	C508.18,164.43,504.08,152.31,504.43,146.96z M501.78,160.33c-0.76,3.34-20.11,18.98-25.01,14.52c2.98-10.87,15.9-19.11,19.82-19.6
	C500.51,154.76,502.54,156.99,501.78,160.33z"/>
<path fill="#FFFFFF" stroke="#000000" stroke-miterlimit="10" d="M447.69,207.73c-5.26,2.43-9.76,5.25-12.82,7.44
	c-0.6,0.42-1.14,0.82-1.63,1.19c0.44-1.17,1.04-2.61,1.85-4.21c0,0,0,0,0-0.01c2.15-4.24,5.75-9.57,11.57-13.83L447.69,207.73z"/>
<path fill="#FFFFFF" stroke="#000000" stroke-miterlimit="10" d="M463.62,202.86v5.19c-0.06,0.01-0.12,0.02-0.18,0.04
	c-14.28,3.71-24.71,11.83-29.02,12.78c-1.28,0.28-2.02-0.07-2.16-1.37c0,0,0.27-1.21,0.98-3.13v-0.01c0.49-0.37,1.03-0.77,1.63-1.19
	c3.06-2.19,7.56-5.01,12.82-7.44C452.52,205.5,458,203.6,463.62,202.86z"/>
<path fill="#FFFFFF" stroke="#000000" stroke-miterlimit="10" d="M482.34,192.35v10.67c-6.16-0.72-12.3-0.9-17.83-0.28
	c-0.3,0.03-0.6,0.07-0.89,0.12c-5.62,0.74-11.1,2.64-15.93,4.87l-1.03-9.42c4.75-3.49,10.98-6.26,19.1-7.15
	C471.57,190.53,477.15,191.08,482.34,192.35z"/>
<path fill="#FFFFFF" stroke="#000000" stroke-miterlimit="10" d="M516.35,212.36c-5.17-2.63-13.2-5.37-22.07-7.32
	c-3.87-0.85-7.91-1.55-11.94-2.02v-10.67C501.7,197.07,515.77,211.74,516.35,212.36z"/>
<path fill="#FFFFFF" stroke="#000000" stroke-miterlimit="10" d="M501.78,160.33c-0.76,3.34-20.11,18.98-25.01,14.52
	c2.98-10.87,15.9-19.11,19.82-19.6C500.51,154.76,502.54,156.99,501.78,160.33z"/>
<path fill="#FFFFFF" stroke="#000000" stroke-miterlimit="10" d="M448.77,179.52c-5.2-2.11-8.63-3.29-8.81-6.85
	c-0.16-3.45-0.68-7.18-0.72-7.43c0-0.01,0-0.01,0-0.01C439.27,165.1,449.16,171.52,448.77,179.52z"/>
</svg>
