<?xml version="1.0" encoding="utf-8"?>
<!-- Generator: Adobe Illustrator 25.2.0, SVG Export Plug-In . SVG Version: 6.00 Build 0)  -->
<svg version="1.1" baseProfile="tiny" id="Layer_1" xmlns="http://www.w3.org/2000/svg" xmlns:xlink="http://www.w3.org/1999/xlink"
	 x="0px" y="0px" viewBox="0 0 1000 1000" overflow="visible" xml:space="preserve">
<path fill="#FFFFFF" stroke="#000000" stroke-miterlimit="10" d="M482.26,115.4c-3.24,2.22-12,9.35-15.49,23.41
	c-0.21,0.8-0.39,1.63-0.55,2.48c-3.49-8.24-5.38-18.16-1.95-28.36C469.94,96.07,477.68,106.47,482.26,115.4z"/>
<path fill="#FFFFFF" stroke="#000000" stroke-miterlimit="10" d="M560.54,152.66c1.03-4.94,1.23-9.38,0.93-13.29
	c-0.89-11.39-6.14-18.39-8.2-20.74c1.26-1.36,2.43-2.77,3.26-4.1c3.03-4.81,9.62-8.91,11.76,10.34
	C569.41,134.96,565,145.2,560.54,152.66z"/>
<path fill="#FFFFFF" stroke="#000000" stroke-miterlimit="10" d="M483.99,162.11h-3.8c0,0-8.77-8.51-13.97-20.8
	c0-0.01,0-0.02,0-0.02c0.16-0.85,0.34-1.68,0.55-2.48c2.03,4.1,6.43,12.41,10.21,15.58C482.09,158.67,483.99,162.11,483.99,162.11z"
	/>
<path fill="#FFFFFF" stroke="#000000" stroke-miterlimit="10" d="M560.54,152.66c-4.04,6.76-8.11,11.24-8.11,11.24h-4.28
	c0,0,10.68-14.47,13.32-24.53C561.77,143.28,561.57,147.72,560.54,152.66z"/>
<path fill="#FFFFFF" stroke="#000000" stroke-miterlimit="10" d="M464.27,112.93c-3.43,10.2-1.54,20.12,1.95,28.36
	c0,0,0,0.01,0,0.02c5.2,12.29,13.97,20.8,13.97,20.8s-2.38,2.14-5.7,4.52c-3.33,2.37-2.38,25.19-2.38,25.19s-9.03-23.29-13.31-38.26
	c-1.4-4.9-2.06-9.86-2.3-14.57v-0.01c-0.51-9.66,0.72-18.25,0.88-23.2c0.24-7.37-0.48-37.79,12.36-50.85
	c5.54-5.64,9.79-8.27,12.84-9.44c1.24,11.38,2.34,36.49,2.96,52.97c0.35,9.15,0.55,15.63,0.55,15.63s-1.51-4.16-3.83-8.69
	C477.68,106.47,469.94,96.07,464.27,112.93z"/>
<path fill="#FFFFFF" stroke="#000000" stroke-miterlimit="10" d="M572.92,132.53c-0.05,3.58-0.8,9.61-2.24,16.8
	c0,0.01,0,0.01,0,0.02c-2.77,13.88-8.13,32.05-16.11,45.2c3.56-18-2.14-30.65-2.14-30.65s4.07-4.48,8.11-11.24
	c4.46-7.46,8.87-17.7,7.75-27.79c-2.14-19.25-8.73-15.15-11.76-10.34c-0.83,1.33-2,2.74-3.26,4.1c-3.32,3.59-7.26,6.77-7.26,6.77
	s1.09-4.65,2.4-11.58c2.81-14.87,6.67-40.21,3.06-52.44l2.56-1.92c0,0,11.94,5.7,15.69,17.82
	C573.46,89.4,573.1,122.01,572.92,132.53z"/>
<path fill="#FFFFFF" stroke="#000000" stroke-miterlimit="10" d="M548.41,113.82c-1.5,0.67-4,1.78-6.95,3.15
	c0.39-3.5,0.7-6.8,0.95-9.92c2.98-37.81-3.7-48.66-3.7-48.66c2.67-1.96,11.76,3.74,11.76,3.74l1-0.75
	C555.08,73.61,551.22,98.95,548.41,113.82z"/>
<path fill="#FFFFFF" stroke="#000000" stroke-miterlimit="10" d="M531.5,109.17c-0.01,0.01-0.01,0.01-0.01,0.01h-2.76
	c0,0,0.35-4.1-4.28-3.74c1.87-13.81,2.77-35.27-4.78-50.36l6.56,0.1c0,0,10.16,6.6,10.52,21.57
	C537.09,91.49,531.66,108.65,531.5,109.17z"/>
<path fill="#FFFFFF" stroke="#000000" stroke-miterlimit="10" d="M524.45,105.44c0,0-4.9,2.5-7.31,6.68
	c-1.78-3.65-6.24-7.21-6.24-7.21c-4.66-20.27,0.68-43.2,2.48-49.92l6.29,0.09C527.22,70.17,526.32,91.63,524.45,105.44z"/>
<path fill="#FFFFFF" stroke="#000000" stroke-miterlimit="10" d="M510.9,104.91c-3.38-0.9-4.27,4.27-4.27,4.27l-2.65-1.17
	l-0.56-0.25c-11.94-31.19,4.34-52.81,4.34-52.81h2.85l2.77,0.04C511.58,61.71,506.24,84.64,510.9,104.91z"/>
<path fill="#FFFFFF" stroke="#000000" stroke-miterlimit="10" d="M507.76,54.95c0,0-16.28,21.62-4.34,52.81l0.56,0.25l-11.21-2.76
	c-0.72-14.51-1.27-38.89,2.08-51.68c0.86-0.13,1.64-0.2,2.21-0.17c1.9-2.02,10.7-1.54,10.7-1.54V54.95z"/>
<path fill="#FFFFFF" stroke="#000000" stroke-miterlimit="10" d="M493.25,113.57c0.14,2.16,0.25,3.4,0.25,3.4l-7.96-8.51
	c-0.62-16.48-1.72-41.59-2.96-52.97c4.01-1.54,5.93-0.54,5.93-0.54s3.58-0.97,6.34-1.38c-3.35,12.79-2.8,37.17-2.08,51.68
	c0.15,3.04,0.31,5.65,0.44,7.63C493.22,113.12,493.24,113.35,493.25,113.57z"/>
<path fill="#FFFFFF" stroke="#000000" stroke-miterlimit="10" d="M542.41,107.05c-6.69-0.49-10.68,1.98-10.91,2.12
	c0.16-0.52,5.59-17.68,5.25-32.42c-0.36-14.97-10.52-21.57-10.52-21.57l1.25-3.37c0,0,9.44,3.55,11.23,6.58
	C538.71,58.39,545.39,69.24,542.41,107.05z"/>
<path fill="#FFFFFF" stroke="#000000" stroke-miterlimit="10" d="M542.41,107.05c-0.25,3.12-0.56,6.42-0.95,9.92
	c-9.1,4.2-22.45,10.81-23.96,13.96c-1.43-5.54-20.09-15.25-24.25-17.36c-0.01-0.22-0.03-0.45-0.04-0.69
	c-0.13-1.98-0.29-4.59-0.44-7.63l11.21,2.76l2.65,1.17c0,0,0.89-5.17,4.27-4.27c0,0,4.46,3.56,6.24,7.21
	c2.41-4.18,7.31-6.68,7.31-6.68c4.63-0.36,4.28,3.74,4.28,3.74h2.76c0,0,0,0,0.01-0.01C531.73,109.03,535.72,106.56,542.41,107.05z"
	/>
<path fill="#FFFFFF" stroke="#000000" stroke-miterlimit="10" d="M533.48,175.84c-0.24,1.78-9.8-0.18-15.8-0.06
	c-4.73,0.09-16.55,0.13-20.8-0.24c-0.53-0.05-0.85-0.5-0.82-0.96c0-0.2,0.08-0.41,0.26-0.59c2.19-2.18,8.36-7.04,14.58-6.78
	c8.56,0.36,13.85-0.94,16.16,0.73c1.98,1.43,5.46,4.9,6.26,6.99l0.01,0.01C533.46,175.28,533.51,175.59,533.48,175.84z"/>
<path fill="none" stroke="#000000" stroke-miterlimit="10" d="M494.24,175.03c0,0-17.27,2.98-14.65,30.67"/>
<path fill="#FFFFFF" stroke="#000000" stroke-miterlimit="10" d="M526.91,138.61l0.52,0.16l0.25,0.39
	c4.5,6.99,8.88,14.03,13.13,21.16c2.12,3.57,4.2,7.16,6.2,10.8c1.41,2.6,2.81,5.23,4.04,7.93c0.03-6.37-2.9-15.15-2.9-15.15
	s10.68-14.47,13.32-24.53c-0.89-11.39-6.14-18.39-8.2-20.74c-3.32,3.59-7.26,6.77-7.26,6.77s1.09-4.65,2.4-11.58
	c-1.5,0.67-4,1.78-6.95,3.15c-9.1,4.2-22.45,10.81-23.96,13.96c-1.43-5.54-20.09-15.25-24.25-17.36c0.14,2.16,0.25,3.4,0.25,3.4
	l-7.96-8.51c0.35,9.15,0.55,15.63,0.55,15.63s-1.51-4.16-3.83-8.69c-3.24,2.22-12,9.35-15.49,23.41c2.03,4.1,6.43,12.41,10.21,15.58
	c5.11,4.28,7.01,7.72,7.01,7.72s-5.94,5.59-6.41,12.48c-0.12,1.7-0.21,3.68-0.3,5.69c1.2-3.02,2.62-5.95,4.13-8.82
	c1.98-3.75,4.21-7.35,6.5-10.91c2.29-3.56,4.74-7.02,7.24-10.43c2.52-3.42,5.09-6.77,7.81-10.06l0.18-0.21l0.33-0.15l4.79-2.09
	l1.13,2.79l-4.62,1.73c-2.75,2.98-5.41,6.09-8.01,9.24c-2.66,3.25-5.27,6.55-7.73,9.95c-2.46,3.41-4.87,6.86-7.03,10.47
	c-1.72,2.88-3.34,5.82-4.73,8.88c-0.22,6.05-0.29,12.31-0.29,12.31l-0.61-0.14c0.32,2.39,1.32,8.99,3.22,12.87
	c0.71,1.45,1.54,2.53,2.5,2.86c0.19,1.35,1.92,3.51,4,5.19c-1.71-23.34,6.85-33.04,9.31-35.32c-0.03,0-0.06-0.01-0.09-0.02
	c-1.66-0.47-1.88-1.95-1.72-3.24c0.05-0.46,0.15-0.89,0.25-1.24c0,0,0,0,0-0.01c-2.21-2.21,6.79-9.48,12.3-10.93
	c5.37-1.41,7.73,0.96,10.88,0c3.15-0.95,5.5-1.57,8.05-0.98c2.52,0.59,12.42,6.09,8.59,13.5c0.1,0.17,0.2,0.35,0.29,0.53
	c4.34,1.97,15.17,8.52,13.36,24.23c0.72-2.05,1.36-4.23,1.88-6.19c0.31-1.77,1.41-8.3,1.81-13.8c0.02-0.27,0.03-0.54,0.04-0.82
	c-1.42-2.74-3.02-5.38-4.64-8c-2.19-3.51-4.46-6.97-6.77-10.4c-4.52-6.7-13.92-19.86-13.92-19.86l-2.97-0.76l0.81-2.89
	L526.91,138.61z M541.65,128.79c4.54,0.71,7.3,6.41,7.3,6.41s-6.06-2.31-10.24-2.05c-4.19,0.27-9.36-2.22-9.36-2.22
	S537.1,128.07,541.65,128.79z M495.04,132.65c-7.05-0.04-12.83-2.79-12.83-2.79s3.88-2.86,10.22-3.3
	c6.33-0.45,14.06,3.22,14.06,3.22S502.08,132.69,495.04,132.65z M525.47,142.73l-7.53,8.82h-5.66l-6.14-8.82
	c0,0.14,8.95,4.81,8.95,4.81L525.47,142.73z"/>
<path fill="#FFFFFF" stroke="#000000" stroke-miterlimit="10" d="M533.66,175.52c-0.11-0.2-0.23-0.39-0.33-0.58l-0.01-0.01
	c-0.8-2.09-4.28-5.56-6.26-6.99c-2.31-1.67-7.6-0.37-16.16-0.73c-6.22-0.26-12.39,4.6-14.58,6.78c-0.18,0.18-0.26,0.39-0.26,0.59
	c-1.12-0.02-1.84-0.26-2.22-0.64c0,0,0,0,0-0.01c-2.21-2.21,6.79-9.48,12.3-10.93c5.37-1.41,7.73,0.96,10.88,0
	c3.15-0.95,5.5-1.57,8.05-0.98C527.59,162.61,537.49,168.11,533.66,175.52z"/>
<path fill="#FFFFFF" stroke="#000000" stroke-miterlimit="10" d="M525.47,142.73l-7.53,8.82h-5.66l-6.14-8.82
	c0,0.14,8.95,4.81,8.95,4.81L525.47,142.73z"/>
<path fill="#FFFFFF" stroke="#000000" stroke-miterlimit="10" d="M551.05,179.05c0,0.14,0,0.28-0.01,0.42
	c-1.42-2.74-3.02-5.38-4.64-8c-2.19-3.51-4.46-6.97-6.77-10.4c-4.52-6.7-13.92-19.86-13.92-19.86l-2.97-0.76l0.81-2.89l3.36,1.05
	l0.52,0.16l0.25,0.39c4.5,6.99,8.88,14.03,13.13,21.16c2.12,3.57,4.2,7.16,6.2,10.8C548.42,173.72,549.82,176.35,551.05,179.05z"/>
<path fill="#FFFFFF" stroke="#000000" stroke-miterlimit="10" d="M509.39,140.4l-4.62,1.73c-2.75,2.98-5.41,6.09-8.01,9.24
	c-2.66,3.25-5.27,6.55-7.73,9.95c-2.46,3.41-4.87,6.86-7.03,10.47c-1.72,2.88-3.34,5.82-4.73,8.88c0.01-0.13,0.01-0.26,0.01-0.39
	c1.2-3.02,2.62-5.95,4.13-8.82c1.98-3.75,4.21-7.35,6.5-10.91c2.29-3.56,4.74-7.02,7.24-10.43c2.52-3.42,5.09-6.77,7.81-10.06
	l0.18-0.21l0.33-0.15l4.79-2.09L509.39,140.4z"/>
<path fill="#FFFFFF" stroke="#000000" stroke-miterlimit="10" d="M548.95,135.2c0,0-6.06-2.31-10.24-2.05
	c-4.19,0.27-9.36-2.22-9.36-2.22s7.75-2.86,12.3-2.14C546.19,129.5,548.95,135.2,548.95,135.2z"/>
<path fill="#FFFFFF" stroke="#000000" stroke-miterlimit="10" d="M506.49,129.78c0,0-4.41,2.91-11.45,2.87
	c-7.05-0.04-12.83-2.79-12.83-2.79s3.88-2.86,10.22-3.3C498.76,126.11,506.49,129.78,506.49,129.78z"/>
<path fill="#FFFFFF" stroke="#000000" stroke-miterlimit="10" d="M554.57,194.55h-5.46c0,0,0.03-0.16,0.08-0.46
	c0.31-1.77,1.41-8.3,1.81-13.8c0.02-0.27,0.03-0.54,0.04-0.82c0.49,0.93,0.95,1.88,1.39,2.84c-0.42-1.1-0.89-2.19-1.38-3.26
	c0.03-6.37-2.9-15.15-2.9-15.15h4.28C552.43,163.9,558.13,176.55,554.57,194.55z"/>
<path fill="#FFFFFF" stroke="#000000" stroke-miterlimit="10" d="M483.99,162.11c0,0-5.94,5.59-6.41,12.48
	c-0.12,1.7-0.21,3.68-0.3,5.69c-0.36,0.9-0.7,1.82-1.02,2.74c0.32-0.79,0.66-1.57,1.01-2.35c-0.22,6.05-0.29,12.31-0.29,12.31
	l-0.61-0.14l-4.26-1.02c0,0-0.95-22.82,2.38-25.19c3.32-2.38,5.7-4.52,5.7-4.52H483.99z"/>
<path fill="#FFFFFF" stroke="#000000" stroke-miterlimit="10" d="M512.86,220.69c0,0-6.29,1.07-8.31-0.95
	c-1.63-11.78,3.63-35.76,4.67-40.3c2.41-0.15,4.37-0.2,6.25-0.21C515.59,183.16,516.22,207.55,512.86,220.69z"/>
<path fill="#FFFFFF" stroke="#000000" stroke-miterlimit="10" d="M520.11,221.88c-2.97,1.78-7.25-1.19-7.25-1.19
	c3.36-13.14,2.73-37.53,2.61-41.46c0.92-0.01,1.82-0.01,2.74-0.01c0.97,0,2.3,0.17,3.78,0.38
	C522.68,184.52,525.63,208.32,520.11,221.88z"/>
<path fill="#FFFFFF" stroke="#000000" stroke-miterlimit="10" d="M504.55,219.74c-4.04,1.3-10.34-1.07-12.6-3.57
	c-3.78-16.05,5.69-32.66,8.14-36.6c1.61,0.24,3.49,0.31,6.05,0.1c1.11-0.1,2.13-0.17,3.08-0.23
	C508.18,183.98,502.92,207.96,504.55,219.74z"/>
<path fill="#FFFFFF" stroke="#000000" stroke-miterlimit="10" d="M491.95,216.17c-1.61,0.35-3.89-0.81-5.86-2.4v-0.01
	c-1.71-23.34,6.85-33.04,9.31-35.32c1.58,0.46,2.98,0.88,4.69,1.13C497.64,183.51,488.17,200.12,491.95,216.17z"/>
<path fill="#FFFFFF" stroke="#000000" stroke-miterlimit="10" d="M532.11,218.79c-2.61,2.97-9.27,3.68-12,3.09
	c5.52-13.56,2.57-37.36,1.88-42.28c2.47,0.36,5.35,0.84,7.61,0.79h0.01C531.83,184.41,538.24,198.47,532.11,218.79z"/>
<path fill="#FFFFFF" stroke="#000000" stroke-miterlimit="10" d="M532.74,179.67c-0.69,0.5-1.81,0.7-3.13,0.72h-0.01
	c-2.26,0.05-5.14-0.43-7.61-0.79c-1.48-0.21-2.81-0.38-3.78-0.38c-0.92,0-1.82,0-2.74,0.01c-1.88,0.01-3.84,0.06-6.25,0.21
	c-0.95,0.06-1.97,0.13-3.08,0.23c-2.56,0.21-4.44,0.14-6.05-0.1c-1.71-0.25-3.11-0.67-4.69-1.13c-0.03,0-0.06-0.01-0.09-0.02
	c-1.66-0.47-1.88-1.95-1.72-3.24c0.05-0.46,0.15-0.89,0.25-1.24c0.38,0.38,1.1,0.62,2.22,0.64c-0.03,0.46,0.29,0.91,0.82,0.96
	c4.25,0.37,16.07,0.33,20.8,0.24c6-0.12,15.56,1.84,15.8,0.06c0.15,0.06,0.3,0.13,0.47,0.21
	C534.48,177.13,534.63,178.3,532.74,179.67z"/>
<path fill="#FFFFFF" stroke="#000000" stroke-miterlimit="10" d="M547.31,200.28c-0.55,1.58-1.14,3.09-1.77,4.37
	c-2.97,6.06-8.56,13.19-13.43,14.14c6.13-20.32-0.28-34.38-2.5-38.4c1.32-0.02,2.44-0.22,3.13-0.72c1.89-1.37,1.74-2.54,1.21-3.62
	C538.29,178.02,549.12,184.57,547.31,200.28z"/>
<path fill="#FFFFFF" stroke="#000000" stroke-miterlimit="10" d="M567.58,200.07c-8.03,8.17-22.33,22.74-24.24,24.78
	c-2.17,2.31-4.46,17.29-3.06,29.71l-65.47-35.77v-6.78c-3.83-4.66-7.14-9.24-10.01-13.63l0.84-0.5c0,0-0.83-0.6-2.21-1.63
	c-12.77-20.25-15.97-35.93-15.97-35.93l1.02-2.41l8.02-18.92c0.24,4.71,0.9,9.67,2.3,14.57c4.28,14.97,13.31,38.26,13.31,38.26
	l4.26,1.02c0.32,2.39,1.32,8.99,3.22,12.87c0.71,1.45,1.54,2.53,2.5,2.86c0.19,1.35,1.92,3.51,4,5.19v0.01
	c1.97,1.59,4.25,2.75,5.86,2.4c2.26,2.5,8.56,4.87,12.6,3.57c2.02,2.02,8.31,0.95,8.31,0.95s4.28,2.97,7.25,1.19
	c2.73,0.59,9.39-0.12,12-3.09c4.87-0.95,10.46-8.08,13.43-14.14c0.63-1.28,1.22-2.79,1.77-4.37c0.72-2.05,1.36-4.23,1.88-6.19
	c-0.05,0.3-0.08,0.46-0.08,0.46h5.46c7.98-13.15,13.34-31.32,16.11-45.2C571.28,158.53,571.57,176.7,567.58,200.07z"/>
<path fill="#FFFFFF" stroke="#000000" stroke-miterlimit="10" d="M557.77,237.14c-2.13,11.23,5.17,16.22,5.17,16.76
	c0,0.53-6.95,5.34-6.95,5.34l-0.39,3.69l-15.32-8.37c-1.4-12.42,0.89-27.4,3.06-29.71c1.91-2.04,16.21-16.61,24.24-24.78
	c-0.61,3.57-1.32,7.25-2.14,11.05C565.44,211.12,559.91,225.92,557.77,237.14z"/>
<path fill="#FFFFFF" stroke="#000000" stroke-miterlimit="10" d="M463.43,196.25c-6.66-4.94-26.05-19.72-26.41-24.42l6.14-7.46
	l5.32-6.46l-1.02,2.41C447.46,160.32,450.66,176,463.43,196.25z"/>
<path fill="#FFFFFF" stroke="#000000" stroke-miterlimit="10" d="M464.8,198.38l-12.41,7.33c0,0-0.01,0-0.02-0.01
	c-0.72-0.69-23.8-22.48-27.31-25.3c-0.57-0.46-0.89-0.97-0.99-1.52c-0.59-2.87,4.52-6.89,8.71-11.18c3.38-3.46,7.84-3.6,10.38-3.33
	l-6.14,7.46c0.36,4.7,19.75,19.48,26.41,24.42C463.87,196.95,464.33,197.66,464.8,198.38z"/>
<path fill="#FFFFFF" stroke="#000000" stroke-miterlimit="10" d="M452.37,205.7c-0.94-0.56-29.36-17.59-32.29-22.04
	c-0.18-0.26-0.26-0.47-0.25-0.64c0.14-1.8,2.4-3.25,4.24-4.14c0.1,0.55,0.42,1.06,0.99,1.52
	C428.57,183.22,451.65,205.01,452.37,205.7z"/>
<path fill="#FFFFFF" stroke="#000000" stroke-miterlimit="10" d="M474.81,212.01v6.78l-68.76-26.99c4.23-1.08,10.88-5.78,14.03-8.14
	c2.93,4.45,31.35,21.48,32.29,22.04c0.01,0.01,0.02,0.01,0.02,0.01l12.41-7.33C467.67,202.77,470.98,207.35,474.81,212.01z"/>
<path fill="#FFFFFF" stroke="#000000" stroke-miterlimit="10" d="M548.75,311.93c-13.22-8.31-60.36-36.61-71.53-42.35
	c-12.47-6.42-54.53-23.88-54.53-23.88s-11.41-9.63-14.08-17.11c-2.06-1.59-4.42-3.6-6.67-5.58l63.7,21.32l78.32,53.59L548.75,311.93
	z"/>
<path fill="#FFFFFF" stroke="#000000" stroke-miterlimit="10" d="M571.03,354.74l-4.25-0.52c-1.59-2.16-3.39-4.51-5.35-7
	c-14.36-18.2-37.45-43.43-56.41-55.72c-8.77-5.69-20.3-11.17-32.16-16.05h-0.01c-22.48-9.28-46.08-16.43-54.09-18.82
	c-0.21-0.07-0.4-0.12-0.59-0.18c-4.47-2.69-7.67-5.67-9.96-8.51c-5.37-6.68-5.72-12.64-5.72-12.64s-3.33-3.33-7.41-6.97
	c-1.29-1.15-2.65-2.33-4.01-3.45c-1.04-0.86-2.08-1.69-3.08-2.43c-0.32-0.48-0.65-0.93-0.97-1.34c-6.18-7.87-13.05-4.94-13.05-4.94
	s-1.63-1.55-4.65-4.13c-6.83-5.82-20.78-16.88-39.07-27.05c-25.99-14.44-41.59-8.25-42.05-8.07c0.11-0.13,1.08-1.29,2.67-2.95
	c0.01-0.01,0.01-0.01,0.01-0.01c4.99-5.18,16.02-15.24,25.59-14.02c0.33,0.04,0.69,0.1,1.09,0.18c19.69,8.8,56.94,40.97,61.82,44.87
	c6.59-0.43,13.9,10.05,13.9,10.05s4.09,3.93,8.66,7.97c2.25,1.98,4.61,3.99,6.67,5.58c2.67,7.48,14.08,17.11,14.08,17.11
	s42.06,17.46,54.53,23.88c11.17,5.74,58.31,34.04,71.53,42.35c1.55,0.97,2.63,1.67,3.14,2.03
	C556.11,316.92,565.67,334.68,571.03,354.74z"/>
<path fill="#FFFFFF" stroke="#000000" stroke-miterlimit="10" d="M627.99,272.61l-26.73,18.53l7.84,38.5l-5.34,20.67l-3.52,4.55
	l-11.1,14.34l-16.12-5.88c-0.56-2.88-1.24-5.76-1.99-8.58c-5.36-20.06-14.92-37.82-19.14-40.78c-0.51-0.36-1.59-1.06-3.14-2.03
	l-4.79-14.01l-78.32-53.59l-63.7-21.32c-4.57-4.04-8.66-7.97-8.66-7.97s-7.31-10.48-13.9-10.05c-4.88-3.9-42.13-36.07-61.82-44.87
	c15.31,3.03,82.93,33.08,88.49,31.68l68.76,26.99l66.26,40.67l18.72,11.49l8.45,17.82l9.38,1.39l-3.33-13.04l24.83-22.81v-4.85
	c10.28,0.57,26.43-1.19,36.98,5.72c1.38,0.89,2.67,1.94,3.83,3.17L627.99,272.61z"/>
<path fill="#FFFFFF" stroke="#000000" stroke-miterlimit="10" d="M599.12,254.31l-24.83,22.81l3.33,13.04l-9.38-1.39l-8.45-17.82
	l-18.72-11.49l-66.26-40.67l65.47,35.77l15.32,8.37l0.39-3.69c0,0,6.95-4.81,6.95-5.34c0-0.54-7.3-5.53-5.17-16.76
	c2.14-11.22,7.67-26.02,7.67-26.02s9.98,21.92,15.15,26.02c5.17,4.1,13.72,6.95,18.17,12.3c0.12,0.01,0.24,0.01,0.36,0.02V254.31z"
	/>
<path fill="#FFFFFF" stroke="#000000" stroke-miterlimit="10" d="M626.39,301.84l-14.26,15.32l23.53-13.36
	c0,0,11.94-7.49,18.17-9.27c5.79-1.65,17.87,0.84,24.42,4.2v13.09c0,0-12.33-1.96-26.02,3.47c-2.83,1.11-5.71,2.54-8.55,4.37
	c8.55,6.89,8.79,24.24,8.79,24.24l-13.55,9.5c0,0-7.36-5.46-8.08-5.46c-0.61,0-7.29,9.01-9.22,11.64c-0.33,0.45-0.52,0.71-0.52,0.71
	h-14.73l-6.13-5.43l3.52-4.55l5.34-20.67l-7.84-38.5l26.73-18.53l11.94-14.26c-1.16-1.23-2.45-2.28-3.83-3.17
	c9.03-0.58,29.32-1.58,34.13,1.03c6.24,3.39,10.69,4.81,11.58,12.3c0.9,7.48-1.24,22.46-1.24,22.46s0.11,0.07,0.28,0.23
	c-6.21-1.57-14.94-3.42-22.38-3.62c-13.19-0.36-24.06,11.05-24.6,11.05C633.34,298.63,626.39,301.84,626.39,301.84z"/>
<path fill="#FFFFFF" stroke="#000000" stroke-miterlimit="10" d="M681.6,296.57c-0.38,0.87-0.99,1.86-1.92,2.95
	c-0.44-0.27-0.92-0.54-1.43-0.79c-6.55-3.36-18.63-5.85-24.42-4.2c-6.23,1.78-18.17,9.27-18.17,9.27l-23.53,13.36l14.26-15.32
	c0,0,6.95-3.21,7.48-3.21c0.54,0,11.41-11.41,24.6-11.05c7.44,0.2,16.17,2.05,22.38,3.62C681.49,291.77,682.94,293.51,681.6,296.57z
	"/>
<path fill="#FFFFFF" stroke="#000000" stroke-miterlimit="10" d="M561.43,347.22h-11.5l-18.13-10.45l-0.6-0.28l-22.97-10.65
	l-30.65-21.86l-4.72-28.53c11.86,4.88,23.39,10.36,32.16,16.05C523.98,303.79,547.07,329.02,561.43,347.22z"/>
<path fill="#FFFFFF" stroke="#000000" stroke-miterlimit="10" d="M531.2,336.49c-6.67,1.28-18.32,3.37-36.96,6.34
	c-0.11-0.09-0.22-0.18-0.33-0.27l1.49-1.34c0,0-1.16,0-3.16,0c-42.58-33.81-97-37.96-97-37.96l12.08-23.94v-0.01l11.44-22.68
	c8.01,2.39,31.61,9.54,54.09,18.82h0.01l4.72,28.53l30.65,21.86L531.2,336.49z"/>
<polygon fill="#FFFFFF" stroke="#000000" stroke-miterlimit="10" points="620.86,431.58 619.2,461.76 608.03,460.81 601.62,464.48 
	576.43,460.33 570.01,454.39 558.1,451.92 557.42,451.78 555.27,421.35 574.05,423.02 580.23,437.04 597.52,441.08 605.66,429.68 
	"/>
<path fill="#FFFFFF" stroke="#000000" stroke-miterlimit="10" d="M619.2,461.76v0.05l-0.53,10.13c-3.92-0.12-11.77-0.31-12.3,0.07
	c-0.71,0.52-8.85,7.57-8.85,7.57l-19.43-4.04l-8.08-8.56c0,0-7.42-1.51-12.93-2.19l0.29-3.66l0.73-9.21l11.91,2.47l6.42,5.94
	l25.19,4.15l6.41-3.67L619.2,461.76z"/>
<path fill="#FFFFFF" stroke="#000000" stroke-miterlimit="10" d="M618.67,471.94l-0.66,12.63c0,0-13.07,4.75-16.63,5.94
	c-3.57,1.19-9.03,14.02-9.03,14.02l-11.66-1.75c-0.23-0.6-0.46-1.2-0.7-1.81c-1.36-3.46-4.23-7.78-6.67-11.13
	c0-0.01-0.01-0.01-0.01-0.02c-2.13-2.89-3.92-5.05-4.15-5.32c-4.75-3.78-12.93-8.96-12.93-8.96l0.85-10.75
	c5.51,0.68,12.93,2.19,12.93,2.19l8.08,8.56l19.43,4.04c0,0,8.14-7.05,8.85-7.57C606.9,471.63,614.75,471.82,618.67,471.94z"/>
<path fill="#FFFFFF" stroke="#000000" stroke-miterlimit="10" d="M638.19,376.59c-6.06,10.59-16.97,26.12-16.97,26.12l-2.79-0.28
	l-11.47-1.15l-7.84,4.64l-19.6-4.64l-6.5-8.2c0,0-14.46-4.24-29.35-6.85c-1.27-0.22-2.54-0.43-3.81-0.63
	c-15.78-18.18-41.66-35.64-41.66-35.64l31.15-7.13l23.08,9.62l14.35,1.77c2.67,3.62,4.8,6.73,6.24,9.1l16.12,5.88l11.1-14.34
	l6.13,5.43h14.73c0,0,0.19-0.26,0.52-0.71l16.26,17.11L638.19,376.59z"/>
<path fill="#FFFFFF" stroke="#000000" stroke-miterlimit="10" d="M557.42,451.78l0.68,0.14l-0.73,9.21c0,0-56.76-45.49-66.48-51.01
	c-9.71-5.53-48.78-20.78-48.78-20.78l51.8-46.78c0.11,0.09,0.22,0.18,0.33,0.27c18.64-2.97,30.29-5.06,36.96-6.34l0.6,0.28
	l18.13,10.45h11.5c1.96,2.49,3.76,4.84,5.35,7l-14.35-1.77l-23.08-9.62l-31.15,7.13c0,0,25.88,17.46,41.66,35.64
	c1.27,0.2,2.54,0.41,3.81,0.63l9,34.89l2.6,0.23L557.42,451.78z"/>
<path fill="#FFFFFF" stroke="#000000" stroke-miterlimit="10" d="M493.91,342.56l-51.8,46.78l-2.69-1.2l-16.02-7.17l-9.8,13.72
	l-1.43,3.21h-9.8c12.47-12.48,39.74-56.14,39.74-56.14s-0.2-0.19-0.59-0.54h50.72C492.8,341.66,493.36,342.11,493.91,342.56z"/>
<path fill="#FFFFFF" stroke="#000000" stroke-miterlimit="10" d="M636.62,496.37l-0.07,2.69l-0.23,0.42l-4.29,7.66l0.58,5.25
	l1.09,9.96l-24.24,26.62l-9.74,3.56l-3.41-35.14c4.73,0.47,9.65,0.45,10.06-0.5c0.71-1.67,5.94-22.1,5.94-22.1l4.75,0.23
	c0,0,14.26-16.63,17.82-24.71c0.13,0.55,0.25,1.13,0.36,1.73c0.9,4.82,1.24,10.94,1.36,16.15
	C636.67,491.47,636.65,494.39,636.62,496.37z"/>
<path fill="#FFFFFF" stroke="#000000" stroke-miterlimit="10" d="M652.94,531.56c-1.05,2.1-4.52,4.82-7.19,6.7
	c-0.79-7.75-3.42-27.56-4.93-32.36c-0.89-2.86-2.8-5-4.5-6.42l0.23-0.42l0.07-2.69c0.03-1.98,0.05-4.9-0.02-8.18
	c4.71-0.42,12.55,0.54,12.42,11.47C652.05,503.22,654.73,527.99,652.94,531.56z"/>
<path fill="#FFFFFF" stroke="#000000" stroke-miterlimit="10" d="M643.36,601.14l2.01,89.73v0.01l-13.47,20.05
	c-0.3-4.85-0.63-12.04-0.99-20.78v-0.01c-1.9-45.87-4.44-134.53-4.96-152.97l8.46-10.54l-1.8-14.24l-0.58-5.25l4.29-7.66
	c1.7,1.42,3.61,3.56,4.5,6.42c1.51,4.8,4.14,24.61,4.93,32.36c0.15,1.46,0.24,2.49,0.24,2.92c0,2.68-4.59,48.48-2.65,58.99
	L643.36,601.14z"/>
<path fill="#FFFFFF" stroke="#000000" stroke-miterlimit="10" d="M630.91,690.14v0.01c-4.07,2.54-10.58,6.71-13.18,8.9v-0.14h0.04
	l-0.06-0.78v-0.06l-9.44-138.89l17.68-22.01C626.47,555.61,629.01,644.27,630.91,690.14z"/>
<path fill="#FFFFFF" stroke="#000000" stroke-miterlimit="10" d="M595.1,695.84c-8.61-5.58-20.86-13.5-28.24-18.2
	c-6.04-53.24-16.51-128.17-18.92-145.29l32.53,24.93L595.1,695.84z"/>
<path fill="#FFFFFF" stroke="#000000" stroke-miterlimit="10" d="M571.13,724.04c-11.48-8.26-31.25-22.43-39.23-27.77
	c-5.24-43.2-19.26-139.37-42.56-162.39c-10.11-9.99-20.9-16.58-30.78-20.93l26.62-16.97c0,0,0.62-13.38,0.89-22.87
	c7.72,5.69,25.25,17.87,25.25,17.87l13.07,23.31l23.55,18.06c2.41,17.12,12.88,92.05,18.92,145.29c0.93,8.23,1.76,15.95,2.44,22.85
	v0.01C570.26,710.24,570.91,718.36,571.13,724.04z"/>
<path fill="#FFFFFF" stroke="#000000" stroke-miterlimit="10" d="M486.2,466.46c0,1.67-0.05,4.01-0.13,6.65
	c-0.27,9.49-0.89,22.87-0.89,22.87l-26.62,16.97c-3.51-1.54-6.91-2.8-10.12-3.83l23.08-18.61l0.59-20.2l-22.45-17.98l17.31,0.87
	L486.2,466.46z"/>
<path fill="#FFFFFF" stroke="#000000" stroke-miterlimit="10" d="M472.11,470.31l-0.59,20.2l-23.08,18.61
	c-5.17-1.66-9.87-2.72-13.79-3.4l20.35-15.8v-21.03c0,0-17.33-13.08-23.59-17.49l18.25,0.93L472.11,470.31z"/>
<path fill="#FFFFFF" stroke="#000000" stroke-miterlimit="10" d="M455,468.89v21.03l-20.35,15.8c-6.8-1.17-11.27-1.19-11.89-1.19
	c-0.05,0-0.07,0-0.07,0l2.49-7.19l16.93-9.23v-19.7l-11.5-7.28l-0.3-9.78l1.09,0.05h0.01C437.67,455.81,455,468.89,455,468.89z"/>
<path fill="#FFFFFF" stroke="#000000" stroke-miterlimit="10" d="M586.41,747.62v7.84c-4.24,0.29-7.24,0.48-7.61,0.48
	c-1.42,0-44.55-38.5-44.55-38.5s-0.78-8.19-2.35-21.17c7.98,5.34,27.75,19.51,39.23,27.77v0.01c5.15,3.7,8.63,6.22,8.63,6.22v11.17
	L586.41,747.62z"/>
<path fill="#FFFFFF" stroke="#000000" stroke-miterlimit="10" d="M626.09,719.58c0,0,0.18,5.21,0.2,9.5h-26.57L569.3,700.5v-0.01
	c-0.68-6.9-1.51-14.62-2.44-22.85c7.38,4.7,19.63,12.62,28.24,18.2l0.1,0.93l1.43,14.02l21.38,1.54l-0.28-13.28
	c2.6-2.19,9.11-6.36,13.18-8.9c0.36,8.74,0.69,15.93,0.99,20.78L626.09,719.58z"/>
<path fill="#FFFFFF" stroke="#000000" stroke-miterlimit="10" d="M626.09,734.55c-0.47,1.19-8.08,7.6-8.08,7.6v11.13
	c-6.4,0.45-22.11,1.55-31.6,2.18v-7.84l-6.65-6.18v-11.17c0,0-3.48-2.52-8.63-6.22v-0.01c-0.22-5.68-0.87-13.8-1.83-23.54
	l30.42,28.58h26.57C626.32,731.77,626.27,734.09,626.09,734.55z"/>
<path fill="#FFFFFF" stroke="#000000" stroke-miterlimit="10" d="M645.99,718.51l-25.13,34.57c0,0-1.06,0.08-2.85,0.2v-11.13
	c0,0,7.61-6.41,8.08-7.6c0.18-0.46,0.23-2.78,0.2-5.47c-0.02-4.29-0.2-9.5-0.2-9.5l5.81-8.65l13.47-20.05L645.99,718.51z"/>
<path fill="#FFFFFF" stroke="#000000" stroke-miterlimit="10" d="M658.47,714.8l-20.14,32.22l-1.8,22.47l-2.12,26.37
	c0,0-57.98,54.14-106.94,40.77c1.94-7.24,3.4-13.23,3.33-15.82c-0.23-8.32-7.36-41.11-7.36-41.11s-2.62-46.81-3.57-60.6
	c-0.95-13.78-16.63-45.86-19.24-50.85c-2.62-4.99-7.13-48.71-8.56-59.64c-1.42-10.93-11.16-33.26-22.56-43.24c0,0-1.34,0-2.02,0.04
	c-13.69,1-46.99,15.02-71.25,25.97c4.51-7.59,9.38-17.97,14.33-31.48c10.97-29.98,8.91-52.64,8.91-52.64l3.28-2.73
	c0.62,0,5.09,0.02,11.89,1.19c3.92,0.68,8.62,1.74,13.79,3.4c3.21,1.03,6.61,2.29,10.12,3.83c9.88,4.35,20.67,10.94,30.78,20.93
	c23.3,23.02,37.32,119.19,42.56,162.39c1.57,12.98,2.35,21.17,2.35,21.17s43.13,38.5,44.55,38.5c0.37,0,3.37-0.19,7.61-0.48
	c9.49-0.63,25.2-1.73,31.6-2.18c1.79-0.12,2.85-0.2,2.85-0.2l25.13-34.57l-0.62-27.63v-0.01l-2.01-89.73
	c3.1-1.29,7.28-2.85,8.16-2.27c1.31,0.88,3.44,11.68,3.76,13.33c0.03,0.14,0.04,0.21,0.04,0.21S657.49,681.88,658.47,714.8z"/>
<path fill="#FFFFFF" stroke="#000000" stroke-miterlimit="10" d="M682.02,721.76l-5.85,0.68l-3.98,0.47c0,0-23.8,36.84-35.66,46.58
	l1.8-22.47l20.14-32.22l4.81-7.7l-1.98-95.18c2.09,0.15,3.89,0.67,4.47,1.92C667.24,616.96,677.39,658.99,682.02,721.76z"/>
<path fill="#FFFFFF" stroke="#000000" stroke-miterlimit="10" d="M663.28,707.1l-4.81,7.7c-0.98-32.92-3.15-102.39-3.15-102.39
	s-0.01-0.07-0.04-0.21c1.74-0.23,4.01-0.42,6.02-0.28L663.28,707.1z"/>
<path fill="#FFFFFF" stroke="#000000" stroke-miterlimit="10" d="M406.36,706.67c-2.61,24.66-4.35,48.5-5.06,58.85
	c-17.01-1.69-36.97,11.07-45.58,17.69c-0.01-0.26-0.03-0.44-0.04-0.54c-0.17-1.16,0.32-18.24,0.81-38.14c0-0.01,0-0.01,0-0.01
	C365.16,732.28,383.97,709.88,406.36,706.67z"/>
<path fill="#FFFFFF" stroke="#000000" stroke-miterlimit="10" d="M419.04,635.94c-1.21,2.92-2.26,5.97-3.13,9.14
	c-3.85,14.09-7.08,38.21-9.55,61.59c-22.39,3.21-41.2,25.61-49.87,37.85c0.58-22.92,1.17-49.56,0.79-59.87
	c-0.06-1.52-0.11-2.98-0.14-4.36C369.67,667.38,396.36,642.13,419.04,635.94z"/>
<path fill="#FFFFFF" stroke="#000000" stroke-miterlimit="10" d="M467.49,565.41c-0.63,4.92-2.06,11.1-5.24,16.23
	c-5.82,9.37-31.54,26.05-43.21,54.3c-22.68,6.19-49.37,31.44-61.9,44.35c-0.44-16.14,0.41-23.5,2.76-33.64
	c2.55-11.01,10.83-30.86,10.21-35.61c-0.07-0.56-0.15-1.07-0.24-1.55c5.01-0.46,9.56-1.21,12-2.19c3.92-1.57,8.88-6.67,14.37-15.92
	C420.5,580.43,453.8,566.41,467.49,565.41z"/>
<path fill="#FFFFFF" stroke="#000000" stroke-miterlimit="10" d="M528.43,886.39l-4.28,19.49l-170.14-3.33c0,0,1.19-8.14,0-10.46
	c-1.19-2.31-3.15-7.12-2.43-12.11c0.71-5,3.74-14.98,3.92-24.96c0.17-9.59,0.5-65.3,0.22-71.81c8.61-6.62,28.57-19.38,45.58-17.69
	c22.1,2.18,55.96,18.22,55.96,18.22s3.49,18.09,7.91,40.1c3.53,17.55,7.66,37.59,11.09,52.93c12.65,8.89,35.72,4.97,43.14,3.39
	C523.18,886.85,528.43,886.39,528.43,886.39z"/>
<path fill="#FFFFFF" stroke="#000000" stroke-miterlimit="10" d="M530.8,820.81c0.07,2.59-1.39,8.58-3.33,15.82
	c-0.82,3.04-1.72,6.31-2.63,9.64c-3.86,14.19-7.8,29.49-5.68,33.47c0.08,0.14,0.15,0.29,0.24,0.42c-7.42,1.58-30.49,5.5-43.14-3.39
	c-3.43-15.34-7.56-35.38-11.09-52.93l17.34-5.88c0,0-7.78-134.74-9.21-162.9c-0.99-19.47-2.49-67.79-3.79-89.69
	c11.4,9.98,21.14,32.31,22.56,43.24c1.43,10.93,5.94,54.65,8.56,59.64c2.61,4.99,18.29,37.07,19.24,50.85
	c0.95,13.79,3.57,60.6,3.57,60.6S530.57,812.49,530.8,820.81z"/>
<path fill="#FFFFFF" stroke="#000000" stroke-miterlimit="10" d="M482.51,817.96l-17.34,5.88c-4.42-22.01-7.91-40.1-7.91-40.1
	s-33.86-16.04-55.96-18.22c0.71-10.35,2.45-34.19,5.06-58.85c2.47-23.38,5.7-47.5,9.55-61.59c0.87-3.17,1.92-6.22,3.13-9.14
	c11.67-28.25,37.39-44.93,43.21-54.3c3.18-5.13,4.61-11.31,5.24-16.23c0.73-0.06,1.4-0.07,2.01-0.05l0.01,0.01
	c1.3,21.9,2.8,70.22,3.79,89.69C474.73,683.22,482.51,817.96,482.51,817.96z"/>
<path fill="#FFFFFF" stroke="#000000" stroke-miterlimit="10" d="M674.39,777.25c-16.37,18.47-59.94,63.28-59.94,63.28
	s-44.81,21.61-86.14,16.76c-1.28-4.06-2.47-7.83-3.47-11.02c0.91-3.33,1.81-6.6,2.63-9.64c48.96,13.37,106.94-40.77,106.94-40.77
	l2.12-26.37c11.86-9.74,35.66-46.58,35.66-46.58l3.98-0.47C676.61,731.26,677.54,757.19,674.39,777.25z"/>
<path fill="#FFFFFF" stroke="#000000" stroke-miterlimit="10" d="M683.71,815.11c-1.67,44.39-6.45,76.05-8.67,85.18l-56.17,0.91
	l-4.42-60.67c0,0,43.57-44.81,59.94-63.28c-0.3,1.91-0.63,3.76-1.01,5.54C670.19,800.4,675.16,811.57,683.71,815.11z"/>
<path fill="#FFFFFF" stroke="#000000" stroke-miterlimit="10" d="M618.87,901.2l-76.07,1.23c-0.44-0.67-8.49-26.06-14.49-45.14
	c41.33,4.85,86.14-16.76,86.14-16.76L618.87,901.2z"/>
<path fill="#FFFFFF" stroke="#000000" stroke-miterlimit="10" d="M683.71,815.11c-8.55-3.54-13.52-14.71-10.33-32.32
	c0.38-1.78,0.71-3.63,1.01-5.54c3.15-20.06,2.22-45.99,1.78-54.81l5.85-0.68c0.65,8.75,1.19,17.9,1.58,27.4
	C684.59,773.09,684.46,795.36,683.71,815.11z"/>
<path fill="#FFFFFF" stroke="#000000" stroke-miterlimit="10" d="M492.24,341.22h-50.72c-3.09-2.81-17.86-15.71-31.55-19.38
	l-10.87-13.71l-3.86-4.87C395.24,303.26,449.66,307.41,492.24,341.22z"/>
<path fill="#FFFFFF" stroke="#000000" stroke-miterlimit="10" d="M442.11,341.76c0,0-27.27,43.66-39.74,56.14
	c-3.22-0.39-8.69-2.11-13.9-3.97l-0.03-0.01c-3.87-1.37-7.59-2.81-10.11-3.81c-1.99-0.78-3.23-1.3-3.23-1.3l30.95-48.83l4.87-16.94
	l-0.95-1.2c13.69,3.67,28.46,16.57,31.55,19.38C441.91,341.57,442.11,341.76,442.11,341.76z"/>
<path fill="#FFFFFF" stroke="#000000" stroke-miterlimit="10" d="M340.35,277.96c0,0-4.28,5.94-7.72,5.34
	c-8.12-4.49-9.84-11.87-10.17-15.56l7.65-8.14C329.73,264.18,340.35,277.96,340.35,277.96z"/>
<path fill="#FFFFFF" stroke="#000000" stroke-miterlimit="10" d="M349.38,273.32c-1.9,3.92-9.03,4.64-9.03,4.64
	s-10.62-13.78-10.24-18.36l10.59-11.28C341.56,254.45,344.1,268.87,349.38,273.32z"/>
<path fill="#FFFFFF" stroke="#000000" stroke-miterlimit="10" d="M361.5,268.63c0,0-2.85,6.12-12.12,4.69
	c-5.28-4.45-7.82-18.87-8.68-25l6.9-7.34l10.8-4C362.03,247.06,361.5,268.63,361.5,268.63z"/>
<path fill="#FFFFFF" stroke="#000000" stroke-miterlimit="10" d="M375.1,271.42c-3.86,0.36-13.6-2.79-13.6-2.79
	s0.53-21.57-3.1-31.65l16.85-6.24C375.7,237.3,376.82,257.47,375.1,271.42z"/>
<path fill="#FFFFFF" stroke="#000000" stroke-miterlimit="10" d="M410.92,323.04l-4.87,16.94l-30.95,48.83
	c-1.84,1.4-3.02,3.9-3.79,6.56c-12.4-13.21-26.92-10.21-32.98-7.51c-4.63,2.05-15.31,1.92-20.9,1.68c-0.27-2.42-0.39-4.56-0.44-6.16
	c0.72-0.57,1.44-1.15,2.17-1.75c0.21-0.16,0.41-0.33,0.62-0.5c3.33-2.66,8.72-7.24,11.36-10.88c19.72-20.86,45.42-55.69,47.59-59.62
	c2.8,2.2,16.26-1.35,20.37-2.5l10.87,13.71L410.92,323.04z"/>
<path fill="#FFFFFF" stroke="#000000" stroke-miterlimit="10" d="M371.35,422.3c-8.34-1.89-32.71,4.61-40.68,9.08
	c-0.24-2.7-1.29-12.92-3.75-19.17c-6.32-4.09-8.64-14.82-9.49-22.67c5.59,0.24,16.27,0.37,20.9-1.68c6.06-2.7,20.58-5.7,32.98,7.51
	c-1.43,4.99-1.38,10.55-1.38,10.55L371.35,422.3z"/>
<path fill="#FFFFFF" stroke="#000000" stroke-miterlimit="10" d="M373.02,427.54c-3.55,4.94-10.13,6.87-17.07,7.34
	c-12.08,0.82-25.22-2.83-25.22-2.83s-0.02-0.24-0.06-0.67c7.97-4.47,32.34-10.97,40.68-9.08
	C374.19,422.93,375.17,424.54,373.02,427.54z"/>
<path fill="#FFFFFF" stroke="#000000" stroke-miterlimit="10" d="M557.37,461.13l-0.29,3.66l-0.85,10.75c0,0-58.69-36.3-75.27-46.99
	c-16.57-10.69-68.79-30.65-68.79-30.65l1.43-3.21l9.8-13.72l16.02,7.17l2.69,1.2c0,0,39.07,15.25,48.78,20.78
	C500.61,415.64,557.37,461.13,557.37,461.13z"/>
<path fill="#FFFFFF" stroke="#000000" stroke-miterlimit="10" d="M580.69,502.78l-5.69-0.86c0,0,0-7.21-1.68-12.08
	c2.44,3.35,5.31,7.67,6.67,11.13C580.23,501.58,580.46,502.18,580.69,502.78z"/>
<path fill="#FFFFFF" stroke="#000000" stroke-miterlimit="10" d="M584.51,545.64l-28.28-38.26l-8.32-16.4l-27.09-20.19v-9.66
	l-80.55-44.28h-7.13l-44.67-22.92c5.21,1.86,10.68,3.58,13.9,3.97h9.8c0,0,52.22,19.96,68.79,30.65
	c16.58,10.69,75.27,46.99,75.27,46.99s8.18,5.18,12.93,8.96c0.23,0.27,2.02,2.43,4.15,5.32c0,0.01,0.01,0.01,0.01,0.02
	c1.68,4.87,1.68,12.08,1.68,12.08l5.69,0.86c2.33,5.97,4.41,11.4,7.29,12.92c1.36,0.71,4.79,1.34,8.33,1.69l3.41,35.14h-15.21
	V545.64z"/>
<path fill="#FFFFFF" stroke="#000000" stroke-miterlimit="10" d="M625.95,537.17l-17.68,22.01l9.44,138.89v0.06l0.02,0.78v0.14
	l0.28,13.28l-21.38-1.54l-1.43-14.02l1.57,0.15c-0.54-0.35-1.1-0.71-1.67-1.08l-14.63-138.56l-32.53-24.93l-23.55-18.06
	l-13.07-23.31c0,0-17.53-12.18-25.25-17.87c0.08-2.64,0.13-4.98,0.13-6.65l34.86,24.05l12.12,23.52l38.73,29.95l12.6,3.98v4.57
	h15.21l9.74-3.56l24.24-26.62l-1.09-9.96l1.8,14.24L625.95,537.17z"/>
<path fill="#FFFFFF" stroke="#000000" stroke-miterlimit="10" d="M584.51,545.64v2.32l-12.6-3.98l-38.73-29.95l-12.12-23.52
	l-34.86-24.05l-19.23-13.26l-17.31-0.87l-18.25-0.93h-0.01c-0.43-0.3-0.8-0.55-1.11-0.76l0.02,0.71l-0.97-0.05l-7.34-4.64
	l-24.98-15.79l-0.52-1.12l-18.17-39.64c2.52,1,6.24,2.44,10.11,3.81l0.03,0.01l44.67,22.92h7.13l80.55,44.28v9.66l27.09,20.19
	l8.32,16.4L584.51,545.64z"/>
<path fill="#FFFFFF" stroke="#000000" stroke-miterlimit="10" d="M396.5,429.75l-12.31,1.47c0,0-3.21,4.64-10,9.86
	c-6.79,5.23-9.43,3.51-9.43,3.51l-4.72,5.79c0,0.01,0,0.01-0.01,0.02l-0.26,0.31l-3.82-15.83c6.94-0.47,13.52-2.4,17.07-7.34
	c2.15-3,1.17-4.61-1.67-5.24l-1.42-16.38c0,0-0.05-5.56,1.38-10.55c0.77-2.66,1.95-5.16,3.79-6.56c0,0,1.24,0.52,3.23,1.3
	L396.5,429.75z"/>
<path fill="#FFFFFF" stroke="#000000" stroke-miterlimit="10" d="M422,446.66l-9.83,8.09v4.63c0,0-8.05,3.04-15.47,5.51
	c-3.06,1.02-6.02,1.94-8.26,2.51c-3.51,0.89-8.77,4.42-13.37,9.43c-4.89,5.33-9.02,12.34-9.43,19.65c-0.05,0.88-0.05,1.76,0.02,2.64
	c-7.49-6.41-5.71-32.79-5.71-32.79s1.43-2.14,3.57-5.2c-3.45-3.03-3.77-7.6-3.49-10.73c0.01-0.01,0.01-0.01,0.01-0.02l4.72-5.79
	c0,0,2.64,1.72,9.43-3.51c6.79-5.22,10-9.86,10-9.86l12.31-1.47l0.52,1.12L422,446.66z"/>
<path fill="#FFFFFF" stroke="#000000" stroke-miterlimit="10" d="M357.04,610.04c-4.84-0.05-8.61-0.47-9.38-1.31
	c-2.14-2.32-3.39-7.49,1.6-21.21c4.99-13.72,19.73-52.12,16.4-88.4c-0.07-0.88-0.07-1.76-0.02-2.64c0.41-7.31,4.54-14.32,9.43-19.65
	c1.26,9.73,3.91,30.38,4.84,39.22C381.08,527.06,359.8,600.59,357.04,610.04z"/>
<path fill="#FFFFFF" stroke="#000000" stroke-miterlimit="10" d="M405.58,498.23c-1.96,4.64-4.64,9.03-4.64,9.03
	s-9.57,62.74-26.7,94.32c-1.44,2.66-2.94,5.1-4.49,7.26c-0.17,0.24-0.34,0.48-0.52,0.71c-4.1,0.36-8.46,0.53-12.19,0.49
	c2.76-9.45,24.04-82.98,22.87-93.99c-0.93-8.84-3.58-29.49-4.84-39.22c4.6-5.01,9.86-8.54,13.37-9.43c2.24-0.57,5.2-1.49,8.26-2.51
	C396.88,471.99,398.08,491.31,405.58,498.23z"/>
<path fill="#FFFFFF" stroke="#000000" stroke-miterlimit="10" d="M442.11,468.41v19.7l-16.93,9.23l-2.49,7.19c0,0,0.02,0,0.07,0
	l-3.28,2.73c0,0,2.06,22.66-8.91,52.64c-4.95,13.51-9.82,23.89-14.33,31.48c-5.49,9.25-10.45,14.35-14.37,15.92
	c-2.44,0.98-6.99,1.73-12,2.19c-0.04-0.23-0.08-0.45-0.12-0.65c1.55-2.16,3.05-4.6,4.49-7.26c17.13-31.58,26.7-94.32,26.7-94.32
	s2.68-4.39,4.64-9.03c-7.5-6.92-8.7-26.24-8.88-33.34c7.42-2.47,15.47-5.51,15.47-5.51v-4.63l9.83-8.09l7.34,4.64l0.97,0.05
	l0.3,9.78L442.11,468.41z"/>
<path fill="#FFFFFF" stroke="#000000" stroke-miterlimit="10" d="M327.7,304.51l-8.97,12.47c0,0,4.75,5.61,0.73,12.74l-8.12-3.67
	l0.85-15.18L299.36,289c0,0,2.14-6.41,1.19-20.37c-4.99-7.31-30.78-14.13-30.78-14.13c1.8-3.24,7.94-15.64,12.97-25.88v-0.01
	c1.46-2.94,2.81-5.71,3.94-8.02c1.08-2.19,1.95-3.99,2.52-5.15c0.27-0.05,1.08-0.97,2.33-2.42c4.25-2.35,16.28-7.76,29.33-2.61
	c12,4.73,17.58,18.27,19.68,25.06l-21.81,32.15l0.79,3.25l5.16,21.23L327.7,304.51z"/>
<path fill="#FFFFFF" stroke="#000000" stroke-miterlimit="10" d="M312.19,310.87l-0.85,15.18l-0.1,1.69l-8.58,7.6l-0.49-2.06v-0.01
	l-2.81-11.95l-19.55-0.24l-32.25-25.28l9.74-20.7l-0.71-3.03c0,0,10.16-13.23,13.18-17.57c0,0,25.79,6.82,30.78,14.13
	c0.95,13.96-1.19,20.37-1.19,20.37L312.19,310.87z"/>
<path fill="#FFFFFF" stroke="#000000" stroke-miterlimit="10" d="M302.17,333.27v0.01l-2.1,9.55c0,0-15.68,1.78-24.95-3.21
	c-1.06-0.57-2.5-1.41-4.22-2.43c-13.31-7.98-43.36-27.69-43.36-27.69l-0.58-15.57l-0.14-3.77l19.43-13.45l11.05-1.61l-9.74,20.7
	l32.25,25.28l19.55,0.24L302.17,333.27z"/>
<path fill="#FFFFFF" stroke="#000000" stroke-miterlimit="10" d="M407.32,279.32l-12.08,23.94l3.86,4.87
	c-4.11,1.15-17.57,4.7-20.37,2.5c-2.17,3.93-27.87,38.76-47.59,59.62c0.18-0.24,0.34-0.47,0.48-0.69
	c-0.36-9.8-5.71-36.71-12.89-38.67c0.27-0.39,0.52-0.79,0.73-1.17c4.02-7.13-0.73-12.74-0.73-12.74l8.97-12.47l-3.02-12.41
	c4.54-1.61,7.95-8.8,7.95-8.8c3.44,0.6,7.72-5.34,7.72-5.34s7.13-0.72,9.03-4.64c9.27,1.43,12.12-4.69,12.12-4.69
	s9.74,3.15,13.6,2.79c2.32,4.28,8.02,2.5,11.59,2.14c2.13,3.92,10.81,3.44,10.81,3.44l2.95,0.7l6.87,1.61V279.32z"/>
<path fill="#FFFFFF" stroke="#000000" stroke-miterlimit="10" d="M369.32,212.04l-23.45,3c0,0-23.7-16.21-29.94-20.49
	c-0.45-0.31-0.95-0.66-1.5-1.05c-6.91-4.92-20.51-14.88-26.24-4.48c-5.09,9.24-2.56,25.73-1.51,31.57
	c-1.13,2.31-2.48,5.08-3.94,8.02c-9.7-43.77,7.7-54.39,8.13-54.64c-1.59,1.66-2.56,2.82-2.67,2.95c0.46-0.18,16.06-6.37,42.05,8.07
	C348.54,195.16,362.49,206.22,369.32,212.04z"/>
<path fill="#FFFFFF" stroke="#000000" stroke-miterlimit="10" d="M314.43,193.5c-9.37,3.39-18.64,14.56-22.9,19.52
	c-1.05,0.57-1.62,0.96-1.62,0.96s-0.26,0.53-0.71,1.46c-0.57,1.16-1.44,2.96-2.52,5.15c-1.05-5.84-3.58-22.33,1.51-31.57
	C293.92,178.62,307.52,188.58,314.43,193.5z"/>
<path fill="#FFFFFF" stroke="#000000" stroke-miterlimit="10" d="M387.02,221.11l-23.38,1.84l-22.82,12.11l-0.28,0.41
	c-2.1-6.79-7.68-20.33-19.68-25.06c-13.05-5.15-25.08,0.26-29.33,2.61c4.26-4.96,13.53-16.13,22.9-19.52
	c0.55,0.39,1.05,0.74,1.5,1.05c6.24,4.28,29.94,20.49,29.94,20.49l23.45-3c3.02,2.58,4.65,4.13,4.65,4.13
	S380.84,213.24,387.02,221.11z"/>
<path fill="#FFFFFF" stroke="#000000" stroke-miterlimit="10" d="M261.84,411.52c-0.46,0.19-0.79,0.41-0.98,0.69
	c-0.93,1.4-7.44,20.33-14.22,35.18v0.01c-0.1,0.23-0.21,0.45-0.31,0.68c-4.02-10.89-10.32-27.32-13.45-32.18
	c4.82-4.28,6.06-7.31,6.06-7.31l-6.06-16.88l-6.7-16.35l-15.75-38.41l-8.84-4.43c9.44-17.98,21.56-33.79,25.37-38.59l0.58,15.57
	c0,0,30.05,19.71,43.36,27.69c-5.9,10.05-19.21,33.57-20.91,44.25C247.79,395.22,250.92,413.46,261.84,411.52z"/>
<path fill="#FFFFFF" stroke="#000000" stroke-miterlimit="10" d="M316.95,383.33c0.01,0,0.03-0.01,0.04-0.02
	c-0.01,0.02-0.01,0.05,0,0.07c-18.19,14.44-35.05,23.35-41.16,25.39c-5.42,1.81-11.52,1.75-13.99,2.75
	c-10.92,1.94-14.05-16.3-11.85-30.08c1.7-10.68,15.01-34.2,20.91-44.25c1.72,1.02,3.16,1.86,4.22,2.43
	c9.27,4.99,24.95,3.21,24.95,3.21s10.16,10.51,15.69,21.2c5.19,10.06,1.66,18.28,1.22,19.22
	C316.96,383.3,316.95,383.32,316.95,383.33z"/>
<path fill="#FFFFFF" stroke="#000000" stroke-miterlimit="10" d="M331.62,369.56c-0.14,0.22-0.3,0.45-0.48,0.69
	c-4.14,4.38-8.02,8.15-11.36,10.88c-0.21,0.17-0.41,0.34-0.62,0.5c-1.16,0.92-1.98,1.53-2.17,1.68c-0.01-0.02-0.01-0.04-0.01-0.06
	c0.44-0.94,3.97-9.16-1.22-19.22c-5.53-10.69-15.69-21.2-15.69-21.2l2.1-9.55l0.49,2.06l8.58-7.6l0.1-1.69l8.12,3.67
	c-0.21,0.38-0.46,0.78-0.73,1.17C325.91,332.85,331.26,359.76,331.62,369.56z"/>
<path fill="#FFFFFF" stroke="#000000" stroke-miterlimit="10" d="M189.04,354.05c0,0-31.16,50.83-37.29,61.69
	c-0.33-2.98-2.72-25.76,1.11-39.23c4.1-14.44,20.68-38.5,20.68-38.5l8.2,3.39L189.04,354.05z"/>
<path fill="#FFFFFF" stroke="#000000" stroke-miterlimit="10" d="M193.85,359.58l-34.04,55.96l-5.86,0.39l-2.16,0.14
	c0,0-0.01-0.11-0.04-0.33c6.13-10.86,37.29-61.69,37.29-61.69L193.85,359.58z"/>
<path fill="#FFFFFF" stroke="#000000" stroke-miterlimit="10" d="M226.18,375.36c-1.41,2.81-3.23,6.3-5.42,10.16
	c-9.62-12.19-26.91-25.94-26.91-25.94l-4.81-5.53l-7.3-12.65l4.99-7.72l11.94-2.62l2.92,1.46l8.84,4.43L226.18,375.36z"/>
<path fill="#FFFFFF" stroke="#000000" stroke-miterlimit="10" d="M239.24,476.49c0,0,0.67,12.75-7.54,30.67
	c-0.01,0.01-0.01,0.02-0.01,0.03c-0.26,0.53-0.5,1.08-0.77,1.62c9.98-22.82-27.8-25.9-37.07-27.33c-9.26-1.43-18.29-2.85-24.71-2.85
	c-6.41,0-16.16,6.41-18.42,17.82c-0.12-0.52-0.23-1.05-0.34-1.61v-0.01c-4.47-23.16,2.38-71.06,3.57-78.9l5.86-0.39l34.04-55.96
	c0,0,17.29,13.75,26.91,25.94c2.19-3.86,4.01-7.35,5.42-10.16l6.7,16.35l6.06,16.88c0,0-1.24,3.03-6.06,7.31
	c3.13,4.86,9.43,21.29,13.45,32.18c0.05,0.15,0.11,0.31,0.17,0.46C244.51,463.88,239.24,476.49,239.24,476.49z"/>
<path fill="#FFFFFF" stroke="#000000" stroke-miterlimit="10" d="M230.92,508.81c0.27-0.54,0.51-1.09,0.77-1.62
	c-1.38,4.95-3.32,10.24-5.84,13.29c-0.53,0.25-1.14,0.67-1.81,1.25c-6.48,5.55-18.83,25.14-28.52,32.52
	c-10.7,8.13-46.34,4.22-53.71,3.74c-0.01-0.53-0.02-1.07-0.02-1.61v-0.01c0-18.62,5.84-48.47,8.59-61.53
	c0.11,0.56,0.22,1.09,0.34,1.61c2.26-11.41,12.01-17.82,18.42-17.82c6.42,0,15.45,1.42,24.71,2.85
	C203.12,482.91,240.9,485.99,230.92,508.81z"/>
<path fill="#FFFFFF" stroke="#000000" stroke-miterlimit="10" d="M224.04,521.73c-3.05,8.22-7.89,22.18-9.26,31.78
	c-7.53,8.21-12.35,23.26-12.35,23.26l-7.39,10.93c0,0,4.74,46.57-7.02,53.23c-11.75,6.65-17.45-9.51-19.83-19.49
	c-2.38-9.98-2.14-33.5-6.89-38.26c-4.45-4.45-16.82-8.06-25.98-5.38c3.39-11.82,6.22-20.67,6.47-21.42c0,0.54,0.01,1.08,0.02,1.61
	c7.37,0.48,43.01,4.39,53.71-3.74C205.21,546.87,217.56,527.28,224.04,521.73z"/>
<path fill="#FFFFFF" stroke="#000000" stroke-miterlimit="10" d="M248.51,618.59c-0.47,9.61,2.07,23.39-9.97,24.43
	c0.5-5.69,1.17-14.56,0.7-17.54c-0.71-4.51-11.17-12.57-14.73-15.43c-3.57-2.87-11.65-8.33-16.64-7.14
	c-4.99,1.18-7.36,13.07-3.56,16.15c1.85,1.5,4.99,4.58,7.72,7.34c-5.03-1.63-14.74-4.65-15.09-3.77
	c-0.47,1.19-4.99,19.25-4.27,28.04c-7.13-0.71-21.63,8.08-21.63,8.08s-2.85-7.61-14.97-13.78c-10.24-3.03-17.28,7.84-20.53,14.47
	c-5.1-5.44-9.8-11.81-11.78-18.28c-2.89-9.42,5.29-41.47,11.56-63.36c9.16-2.68,21.53,0.93,25.98,5.38
	c4.75,4.76,4.51,28.28,6.89,38.26c2.38,9.98,8.08,26.14,19.83,19.49c11.76-6.66,7.02-53.23,7.02-53.23l7.39-10.93
	c0,0,4.82-15.05,12.35-23.26c-0.53,3.66-0.55,6.69,0.22,8.52c3.8,9.03,11.17,28.52,10.22,43.01c2.14,0,2.14,0,2.14,0
	s-3.09-14.73,6.89-17.34C244.23,585.08,248.98,608.85,248.51,618.59z"/>
<path fill="#FFFFFF" stroke="#000000" stroke-miterlimit="10" d="M217.38,631.9c0,0,0,18.65-5.7,29.64
	c-7.61,7.66-16.88,20.26-25.19,20.26c-8.32,0-15.92-3.09-15.92-3.09s-12.91-0.95-18.3-4.75c-3.02-2.14-10.21-7.56-16.73-14.52
	c3.25-6.63,10.29-17.5,20.53-14.47c12.12,6.17,14.97,13.78,14.97,13.78s14.5-8.79,21.63-8.08c-0.72-8.79,3.8-26.85,4.27-28.04
	c0.35-0.88,10.06,2.14,15.09,3.77C214.93,629.32,217.38,631.9,217.38,631.9z"/>
<path fill="#FFFFFF" stroke="#000000" stroke-miterlimit="10" d="M238.54,643.02c-0.16,0.02-0.32,0.03-0.49,0.04
	c-1.19,3.09-8.08,25.55-26.37,18.48c5.7-10.99,5.7-29.64,5.7-29.64s-2.45-2.58-5.35-5.5c-2.73-2.76-5.87-5.84-7.72-7.34
	c-3.8-3.08-1.43-14.97,3.56-16.15c4.99-1.19,13.07,4.27,16.64,7.14c3.56,2.86,14.02,10.92,14.73,15.43
	C239.71,628.46,239.04,637.33,238.54,643.02z"/>
<path fill="#FFFFFF" stroke="#000000" stroke-miterlimit="10" d="M391.07,224.88l-15.82,5.86l-16.85,6.24l-10.8,4l-6.9,7.34
	l-10.59,11.28l-7.65,8.14l-2.94,3.13l-0.79-3.25l21.81-32.15l0.28-0.41l22.82-12.11l23.38-1.84c0.32,0.41,0.65,0.86,0.97,1.34
	C388.99,223.19,390.03,224.02,391.07,224.88z"/>
<path fill="#FFFFFF" stroke="#000000" stroke-miterlimit="10" d="M332.63,283.3c0,0-3.41,7.19-7.95,8.8l-5.16-21.23l2.94-3.13
	C322.79,271.43,324.51,278.81,332.63,283.3z"/>
<path fill="#FFFFFF" stroke="#000000" stroke-miterlimit="10" d="M418.76,256.63l-11.44,22.68l-6.87-1.61
	c3.56-6.46,6.69-23.44,7.76-29.76c2.29,2.84,5.49,5.82,9.96,8.51C418.36,256.51,418.55,256.56,418.76,256.63z"/>
<path fill="#FFFFFF" stroke="#000000" stroke-miterlimit="10" d="M395.08,228.33c-0.62,6.98-3.19,32.4-8.39,45.23
	c-3.57,0.36-9.27,2.14-11.59-2.14c1.72-13.95,0.6-34.12,0.15-40.68l15.82-5.86C392.43,226,393.79,227.18,395.08,228.33z"/>
<path fill="#FFFFFF" stroke="#000000" stroke-miterlimit="10" d="M408.21,247.94c-1.07,6.32-4.2,23.3-7.76,29.76l-2.95-0.7
	c0,0-8.68,0.48-10.81-3.44c5.2-12.83,7.77-38.25,8.39-45.23c4.08,3.64,7.41,6.97,7.41,6.97S402.84,241.26,408.21,247.94z"/>
<path fill="#FFFFFF" stroke="#000000" stroke-miterlimit="10" d="M660.55,369.2l-1.94,0.64l-19.88,6.57
	c-0.05-0.17-0.1-0.34-0.16-0.5c-0.12,0.22-0.25,0.45-0.38,0.68l-0.31,0.1l-16.26-17.11c1.93-2.63,8.61-11.64,9.22-11.64
	c0.72,0,8.08,5.46,8.08,5.46l13.55-9.5c0,0-0.24-17.35-8.79-24.24c2.84-1.83,5.72-3.26,8.55-4.37c3.28,2.71,7.62,7.54,10.45,15.44
	c0.76,2.11,1.41,4.43,1.91,6.99C668.39,357.44,660.55,369.2,660.55,369.2z"/>
<path fill="#FFFFFF" stroke="#000000" stroke-miterlimit="10" d="M683.83,362.19c0,0-4.64-27.82-21.15-31.46
	c-2.83-7.9-7.17-12.73-10.45-15.44c13.69-5.43,26.02-3.47,26.02-3.47v-13.09c0.51,0.25,0.99,0.52,1.43,0.79
	c0.93-1.09,1.54-2.08,1.92-2.95c2.39,2.61,6.72,7.89,10.3,15.23c0.01,0.01,0.01,0.01,0.01,0.02
	C693.39,324.4,694.24,347.32,683.83,362.19z"/>
<path fill="#FFFFFF" stroke="#000000" stroke-miterlimit="10" d="M694.83,372.74l-1.36,0.42l-9.64-10.97
	c10.41-14.87,9.56-37.79,8.08-50.37c1.81,3.69,3.43,7.92,4.52,12.59C700.13,340.23,696.01,366.04,694.83,372.74z"/>
<path fill="#FFFFFF" stroke="#000000" stroke-miterlimit="10" d="M728.51,405.92l-3.31,2.14l-28.3,18.29l-19.96-6.18
	c0,0-0.58-1.06-1.48-2.7c-3-5.5-9.58-17.52-9.83-17.92c-0.24-0.38,2.48-10.06,4.05-15.56l18.63,15.56l9.63,2.56l20.63-9.53
	L728.51,405.92z"/>
<path fill="#FFFFFF" stroke="#000000" stroke-miterlimit="10" d="M718.57,392.58l-20.63,9.53l-9.63-2.56l-18.63-15.56
	c0.63-2.21,1.08-3.74,1.08-3.74l22.71-7.09l1.06,1.21c0,0,0.11-0.58,0.3-1.63h8.96L718.57,392.58z"/>
<path fill="#FFFFFF" stroke="#000000" stroke-miterlimit="10" d="M665.63,399.55c0.25,0.4,6.83,12.42,9.83,17.92
	c-18.07,8.28-34.17,27.87-39.33,34.59c-0.1,0.13-0.19,0.26-0.29,0.38c0,0.01-0.01,0.01-0.01,0.02c0.09-1.04,0.19-2.08,0.3-3.1
	c0.03-0.4,0.08-0.8,0.12-1.19c0.01-0.07,0.02-0.14,0.02-0.2c0.03-0.22,0.04-0.38,0.06-0.48l0.01-0.14
	c2.27-19.9,7.2-35.54,8.99-40.75c0.42,2.52,0.66,4.07,0.66,4.07l12.62-40.83l1.94-0.64c0,0,7.84-11.76,4.04-31.48
	c-0.5-2.56-1.15-4.88-1.91-6.99c16.51,3.64,21.15,31.46,21.15,31.46l9.64,10.97l-22.71,7.09c0,0-0.45,1.53-1.08,3.74
	C668.11,389.49,665.39,399.17,665.63,399.55z"/>
<path fill="#FFFFFF" stroke="#000000" stroke-miterlimit="10" d="M620.86,431.58l-15.2-1.9l-8.14,11.4l-17.29-4.04l-6.18-14.02
	l-18.78-1.67l-2.6-0.23l-9-34.89c14.89,2.61,29.35,6.85,29.35,6.85l6.5,8.2l19.6,4.64l7.84-4.64l11.47,1.15L620.86,431.58z"/>
<path fill="#FFFFFF" stroke="#000000" stroke-miterlimit="10" d="M658.61,369.84l-12.62,40.83c0,0-0.24-1.55-0.66-4.07
	c-1.18-6.86-3.74-20.9-6.6-30.19L658.61,369.84z"/>
<path fill="#FFFFFF" stroke="#000000" stroke-miterlimit="10" d="M645.33,406.6c-1.79,5.21-6.72,20.85-8.99,40.75l-0.01,0.14
	c-0.02,0.1-0.03,0.26-0.06,0.48l-4.95-6.24c0,0-7.77,12.64-12.12,20.07v-0.04l1.66-30.18l-2.43-29.15l2.79,0.28
	c0,0,10.91-15.53,16.97-26.12l0.54-0.18C641.59,385.7,644.15,399.74,645.33,406.6z"/>
<path fill="#FFFFFF" stroke="#000000" stroke-miterlimit="10" d="M759.9,482.53c-16.44,2.02-58.2,22.75-67.75,26.99
	c-5.63,2.5-13.1,5-19.03,7.05c-2.58-8.75,1.21-21.19,1.21-21.19s-18.06-13.19-30.99-28.4c-4.31-1.73-6.53-3.15-7.69-4.16
	c-0.15-0.14-0.29-0.27-0.41-0.39c0.06-2.2,0.18-4.36,0.32-6.49c0-0.09,0.01-0.18,0.02-0.27c0.07-1.08,0.16-2.15,0.25-3.21
	c0-0.01,0.01-0.01,0.01-0.02c0.1-0.12,0.19-0.25,0.29-0.38c5.16-6.72,21.26-26.31,39.33-34.59c0.9,1.64,1.48,2.7,1.48,2.7
	l19.96,6.18l28.3-18.29c0.27,0.86,14.04,44.74,18.52,52.03C747,465.45,754.56,474.76,759.9,482.53z"/>
<path fill="#FFFFFF" stroke="#000000" stroke-miterlimit="10" d="M763.2,562.98c0,0.72-20.2-4.03-20.2-4.03s-19.96,24-28.75,25.66
	c-6.53,1.23-12.01,11.58-14.4,16.82c-4.88-7.86-36.95-59.63-36.6-62.92c0.39-3.56,6.09-4.75,6.09-4.75s21.86-7.13,34.45-15.21
	c11.08-7.11,37.98-20.23,50.43-22.77c-2.3,1.81-4.17,4.04-4.8,5.42C747.99,504.29,763.2,562.27,763.2,562.98z"/>
<path fill="#FFFFFF" stroke="#000000" stroke-miterlimit="10" d="M774.83,494.79c-5.96-1.35-6.4,2.43-6.4,2.43s-0.48-1.24-5.23-3.86
	c-2.63-1.44-6.14,0.17-8.98,2.42c-12.45,2.54-39.35,15.66-50.43,22.77c-12.59,8.08-34.45,15.21-34.45,15.21s-9.03-7.13-6.06-13.07
	c0.4-0.79,4.49-2.27,9.84-4.12c5.93-2.05,13.4-4.55,19.03-7.05c9.55-4.24,51.31-24.97,67.75-26.99c1.98-0.24,3.58-0.22,4.73,0.14
	C773.71,485.49,774.73,492.69,774.83,494.79z"/>
<path fill="#FFFFFF" stroke="#000000" stroke-miterlimit="10" d="M792.99,682.42c-0.76,3.66-2.17,9.39-3.89,11.73
	c-5.34,0.48-15.33,3.21-22.22-5.34c-6.89-8.56-26.26-17.71-25.78-21.03c0,0-5.7-8.8-4.75-18.3c0.95-9.5-3.8-13.78-9.74-17.82
	s-13.55,6.05-13.55,6.05c0.71-3.14,1.19-10.57,1.19-10.57c2.61-1.42,19.49-11.16,23.29-11.64c3.8-0.48,17.82-6.18,17.82-6.18
	s3.84-2.46,7.63-3.93c-6.86,3.04-19.83,12.18-18.32,15.69c0.71,1.67,9.5,4.64,14.25,11.29c4.76,6.65-7.36,22.34-7.6,27.57
	c2.85,5.46,16.63,19.72,22.81,22.33C779.38,684.49,789.92,682.94,792.99,682.42z"/>
<path fill="#FFFFFF" stroke="#000000" stroke-miterlimit="10" d="M792.06,604.39c-2.64,0.58-5.38,1.93-7.71,2.56
	c-3.19,0.85-11.48-2.57-16.85-2.64c-0.15,0-0.29,0-0.44,0.01c-0.48,0.01-0.94,0.05-1.36,0.13c-0.68,0.13-1.6,0.45-2.65,0.91
	c-0.02,0.01-0.04,0.02-0.06,0.03c-3.79,1.47-7.63,3.93-7.63,3.93s-14.02,5.7-17.82,6.18c-3.8,0.48-20.68,10.22-23.29,11.64
	c0,0-12.36-10.93-10.22-17.34c-2.14-3.33-3.56-7.37-3.56-7.37s-0.22-0.35-0.62-1c2.39-5.24,7.87-15.59,14.4-16.82
	c8.79-1.66,28.75-25.66,28.75-25.66s20.2,4.75,20.2,4.03c0-0.71-15.21-58.69-13.78-61.78c0.63-1.38,2.5-3.61,4.8-5.42
	c2.84-2.25,6.35-3.86,8.98-2.42c4.75,2.62,5.23,3.86,5.23,3.86s0.44-3.78,6.4-2.43c0.02,0.38,0.01,0.59,0.01,0.59
	s6.9,5.35,9.27,12.24c2.38,6.89,1.66,69.86,1.66,69.86s5.47,3.09,6.18,13.31C792.48,598.36,792.23,602.66,792.06,604.39z"/>
<path fill="#FFFFFF" stroke="#000000" stroke-miterlimit="10" d="M817.96,684.81c-0.75,0.55-1.31,0.82-1.35,0.67
	c-0.18-0.59-8.74-10.81-4.58-16.99c0,0,0.7,0.18,1.8,0.68c-1.54-5.91-3.16-12.22-4.53-17.79c-0.66-2.7-1.38-5.18-2.12-7.46
	c-0.48,2.93-1.72,5.53-2.87,6.75c-1.9,2.02-13.78-8.2-16.52-19.97c-2.73-11.76,8.65-7.34,8.65-7.34
	c-2.22-3.88-4.49-18.08-4.49-18.08s0.05-0.29,0.11-0.89c-2.64,0.58-5.38,1.93-7.71,2.56c-3.19,0.85-11.48-2.57-16.85-2.64
	c-0.15,0-0.29,0-0.44,0.01c-0.48,0.01-0.94,0.05-1.36,0.13c-0.68,0.13-1.6,0.45-2.65,0.91c-0.02,0.01-0.04,0.02-0.06,0.03
	c-6.86,3.04-19.83,12.18-18.32,15.69c0.71,1.67,9.5,4.64,14.25,11.29c4.76,6.65-7.36,22.34-7.6,27.57
	c2.85,5.46,16.63,19.72,22.81,22.33c5.25,2.22,15.79,0.67,18.86,0.15c0.55-0.09,0.86-0.15,0.86-0.15s9.66,8.95,16.88,5.71
	c4.57,1.85,7.15,2.18,8.6,1.93C819.09,689,818.61,687.21,817.96,684.81z M788.75,677.52c-4.4,2.85-8.68-1.43-11.65-4.28
	c-2.97-2.85-2.26-9.98,0.95-11.64c3.21-1.66,9.03,2.61,12.24,7.13C790.29,668.73,793.14,674.67,788.75,677.52z M801.93,678.46
	c-3.09-1.06-5.11-2.15-8.31-8.61c-3.21-6.47,3.07-9.82,7.12-8.62c4.04,1.2,4.16,2.49,7.13,8.62
	C810.84,675.98,805.02,679.52,801.93,678.46z"/>
<path fill="#FFFFFF" stroke="#000000" stroke-miterlimit="10" d="M807.18,643.91c0,0.01,0,0.01,0,0.01
	c-0.48,2.93-1.72,5.53-2.87,6.75c-1.9,2.02-13.78-8.2-16.52-19.97c-2.73-11.76,8.65-7.34,8.65-7.34c0.17,0.29,0.34,0.52,0.5,0.69
	C798.93,626.04,803.4,632.33,807.18,643.91z"/>
<path fill="#FFFFFF" stroke="#000000" stroke-miterlimit="10" d="M785.54,727.66c1.95,2.74,4.1,10.17,3.04,13.49
	c-0.72,0.92-1.14,1.48-1.14,1.48l-29.47,13.45c0,0-15.68,4.13-14.73-4.18c0.95-8.32,11.41-15.45,11.41-15.45l0.75-0.39l5.19-2.7
	c0,0-4.04-16.16-2.38-21.03c0,0-6.24-4.97-11.15-10.68l-0.01-0.01c-2.78-3.24-5.13-6.71-5.66-9.63c-2.9,7.13-9.56,14.5-9.56,14.5
	s-2.97-6.53-14.37-7.6c-11.41-1.07-12.24,13.42-12.24,13.42c-8.52-12.79-7.62-34.82-6.53-45.7c4.64,3.02,14.67-4.79,12.89-12.81
	c-0.94-4.22-3.22-5.14-5.15-5.05c2.91-4.76,5.73-9.31,6.16-9.75c0.16-0.17,0.32-0.64,0.47-1.31c0,0,7.61-10.09,13.55-6.05
	s10.69,8.32,9.74,17.82c-0.95,9.5,4.75,18.3,4.75,18.3c-0.48,3.32,18.89,12.47,25.78,21.03c6.89,8.55,16.88,5.82,22.22,5.34
	C787.91,701.04,786.49,724.33,785.54,727.66z"/>
<path fill="#FFFFFF" stroke="#000000" stroke-miterlimit="10" d="M732.31,742.63c-7.13,0.95-21.62-1.9-27.09-30.3
	c0,0,0.83-14.49,12.24-13.42c11.4,1.07,14.37,7.6,14.37,7.6s6.18,10.22,4.04,22.57C739.68,736.45,739.44,741.68,732.31,742.63z"/>
<path fill="#FFFFFF" stroke="#000000" stroke-miterlimit="10" d="M804.19,699.14c-0.83,2.85-2.14,19.96-5.35,29.94
	c-4.01,4.19-8.27,9.53-10.26,12.07c1.06-3.32-1.09-10.75-3.04-13.49c0.95-3.33,2.37-26.62,3.56-33.51
	C793.85,697.36,799.68,699.5,804.19,699.14z"/>
<path fill="#FFFFFF" stroke="#000000" stroke-miterlimit="10" d="M813.58,703.42c0,0-3.09,16.63-14.74,25.66
	c3.21-9.98,4.52-27.09,5.35-29.94C809.77,705.08,813.58,703.42,813.58,703.42z"/>
<path fill="#FFFFFF" stroke="#000000" stroke-miterlimit="10" d="M819.52,690.59l-1.67,12.83h-4.27c0,0-3.81,1.66-9.39-4.28
	c4.04-3.68,6.54-11.16,6.54-11.16c4.57,1.85,7.15,2.18,8.6,1.93C819.46,690.35,819.52,690.59,819.52,690.59z"/>
<path fill="#FFFFFF" stroke="#000000" stroke-miterlimit="10" d="M810.73,687.98c0,0-2.5,7.48-6.54,11.16
	c-4.51,0.36-10.34-1.78-15.09-4.99c1.72-2.34,3.13-8.07,3.89-11.73c0.55-0.09,0.86-0.15,0.86-0.15S803.51,691.22,810.73,687.98z"/>
<path fill="#FFFFFF" stroke="#000000" stroke-miterlimit="10" d="M788.75,677.52c-4.4,2.85-8.68-1.43-11.65-4.28
	c-2.97-2.85-2.26-9.98,0.95-11.64c3.21-1.66,9.03,2.61,12.24,7.13C790.29,668.73,793.14,674.67,788.75,677.52z"/>
<path fill="#FFFFFF" stroke="#000000" stroke-miterlimit="10" d="M801.93,678.46c-3.09-1.06-5.11-2.15-8.31-8.61
	c-3.21-6.47,3.07-9.82,7.12-8.62c4.04,1.2,4.16,2.49,7.13,8.62C810.84,675.98,805.02,679.52,801.93,678.46z"/>
<path fill="#FFFFFF" stroke="#000000" stroke-miterlimit="10" d="M817.96,684.81c-0.75,0.55-1.31,0.82-1.35,0.67
	c-0.18-0.59-8.74-10.81-4.58-16.99c0,0,0.7,0.18,1.8,0.68c0.01,0,0.01,0,0.01,0c1.85,0.84,4.78,2.55,7.35,5.74
	C824.28,678.75,820.23,683.13,817.96,684.81z"/>
<path fill="#FFFFFF" stroke="#000000" stroke-miterlimit="10" d="M698.69,666.63c-4.63-3.01,0.54-14.74,4.51-16.91
	c0,0,1.48-0.88,3.23-0.95c1.93-0.09,4.21,0.83,5.15,5.05C713.36,661.84,703.33,669.65,698.69,666.63z"/>
<path fill="#FFFFFF" stroke="#000000" stroke-miterlimit="10" d="M760.59,733.36l-5.19,2.7c-3.82-1.7-10.76-5.57-10.85-11.25
	c-0.12-7.84,6.18-9.27,9.86-11.88c-2.05-2.21-5.18-7.44-7.35-11.28c4.91,5.71,11.15,10.68,11.15,10.68
	C756.55,717.2,760.59,733.36,760.59,733.36z"/>
<path fill="#FFFFFF" stroke="#000000" stroke-miterlimit="10" d="M636.27,447.97c0,0.06-0.01,0.13-0.02,0.2
	c-0.02,0.17-0.04,0.37-0.06,0.59c-0.03,0.2-0.05,0.4-0.06,0.6c-0.01,0.1-0.02,0.21-0.03,0.32c-0.1,0.92-0.19,1.85-0.27,2.78
	c-0.04,0.51-0.09,1.02-0.12,1.54c-0.05,0.55-0.09,1.11-0.13,1.67c-0.01,0.09-0.02,0.18-0.02,0.27c-0.16,2.03-0.3,4.24-0.41,6.39
	c-0.17,3.78-0.21,7.41,0.09,9.71c-0.11-0.6-0.23-1.18-0.36-1.73c-3.56,8.08-17.82,24.71-17.82,24.71l-4.75-0.23
	c0,0-5.23,20.43-5.94,22.1c-0.41,0.95-5.33,0.97-10.06,0.5c-3.54-0.35-6.97-0.98-8.33-1.69c-2.88-1.52-4.96-6.95-7.29-12.92
	l11.66,1.75c0,0,5.46-12.83,9.03-14.02c3.56-1.19,16.63-5.94,16.63-5.94l0.66-12.63l0.53-10.13v-0.01
	c4.35-7.43,12.12-20.07,12.12-20.07L636.27,447.97z"/>
</svg>
