<?xml version="1.0" encoding="utf-8"?>
<!-- Generator: Adobe Illustrator 25.2.0, SVG Export Plug-In . SVG Version: 6.00 Build 0)  -->
<svg version="1.1" baseProfile="tiny" id="Layer_1" xmlns="http://www.w3.org/2000/svg" xmlns:xlink="http://www.w3.org/1999/xlink"
	 x="0px" y="0px" viewBox="0 0 1000 1000" overflow="visible" xml:space="preserve">
<path fill="#FFFFFF" stroke="#000000" stroke-miterlimit="10" d="M608.69,368.8c-9.56,7.51-18.41,13.9-26.17,19.19
	c-0.64,0.45-1.28,0.88-1.91,1.3c-2.57,1.74-5.01,3.35-7.31,4.83c-3.71,2.41-7.06,4.48-9.97,6.24
	c-12.42-6.46-22.63-29.91-26.08-38.64c3.93-1.67,8.76-3.81,14.2-6.41c2.53-1.21,5.19-2.52,7.95-3.93c5.2-2.64,10.78-5.64,16.54-9
	C581.62,349.97,602,357.43,608.69,368.8z"/>
<path fill="#FFFFFF" stroke="#000000" stroke-miterlimit="10" d="M645.2,337.25c-12.77,12.13-25.15,22.63-36.51,31.55
	c-6.69-11.37-27.07-18.83-32.75-26.42c5.34-3.1,10.85-6.5,16.37-10.2c5.21,2.91,13.16,5.63,24.62,5.01
	C628.85,336.54,639.19,335.42,645.2,337.25z"/>
<path fill="#FFFFFF" stroke="#000000" stroke-miterlimit="10" d="M669.16,311.48c-5.05,6.45-10.68,12.82-16.96,19.01
	c-2.34,2.31-4.68,4.57-7,6.76c-6.01-1.83-16.35-0.71-28.27-0.06c-11.46,0.62-19.41-2.1-24.62-5.01c9.98-6.68,20.01-14.33,29.2-22.91
	c1-0.93,1.99-1.88,2.98-2.83c4.07,2.48,11.33,5.69,20.64,4.73C653.47,310.3,663.53,309.2,669.16,311.48z"/>
<path fill="#FFFFFF" stroke="#000000" stroke-miterlimit="10" d="M681.47,293.92c0,0,0,0-0.01,0.01
	c-3.65,5.86-7.74,11.73-12.3,17.55c-5.63-2.28-15.69-1.18-24.03-0.31c-9.31,0.96-16.57-2.25-20.64-4.73
	c6.91-6.7,13.38-13.86,19.32-21.14c3.72,1.33,12.77,4.02,20.01,1.87C671.98,284.74,682.05,285.2,681.47,293.92z"/>
<path fill="#FFFFFF" stroke="#000000" stroke-miterlimit="10" d="M681.47,293.92c0.58-8.72-9.49-9.18-17.65-6.75
	c-7.24,2.15-16.29-0.54-20.01-1.87c9.09-11.13,16.95-22.56,23.28-33.13c5.01,1.63,12.79,3.35,19.97,0.64
	c5.51-2.08,10.02-0.24,13.05,3.12C695.68,267.87,689.64,280.83,681.47,293.92z"/>
<path fill="#FFFFFF" stroke="#000000" stroke-miterlimit="10" d="M709.91,219.47c0,0,0,0,0,0.01c-1.6,9.71-4.58,22.36-9.8,36.45
	c-3.03-3.36-7.54-5.2-13.05-3.12c-7.18,2.71-14.96,0.99-19.97-0.64c4.78-7.98,8.69-15.46,11.6-21.95c0,0,0,0,0.01-0.01
	C679.3,229.68,703.24,208.35,709.91,219.47z"/>
<path fill="#FFFFFF" stroke="#000000" stroke-miterlimit="10" d="M709.91,219.47c-6.67-11.12-30.61,10.21-31.21,10.74
	c4.61-10.32,6.69-18.11,5.71-21.36c-3.03-10.04-13.83-8.52-20.84-24.44c-1.84-4.17-3.47-8.48-4.8-12.99v-0.01
	c3.66-7.7,9.34-10.85,14.14-12.08c4.21,9.66,11.32,17.61,20.6,22.05c13.45,6.44,17.24,9.28,18,19.89
	C711.7,204.02,711.4,210.49,709.91,219.47z"/>
<path fill="#FFFFFF" stroke="#000000" stroke-miterlimit="10" d="M672.91,159.33c-4.8,1.23-10.48,4.38-14.14,12.08
	c-2.71-9.19-4.19-19.14-3.7-30.09c4.29-4.46,9.54-9.02,14.52-11.21c-0.74,5.94-1.05,11.36-0.53,15.27
	C669.71,150.27,671.01,154.98,672.91,159.33z"/>
<path fill="#FFFFFF" stroke="#000000" stroke-miterlimit="10" d="M678.15,89.5c-0.23,0.84-6.35,23-8.56,40.61
	c-4.98,2.19-10.23,6.75-14.52,11.21c0.2-4.18,0.68-8.51,1.49-12.99C660.48,106.69,677.61,90.01,678.15,89.5z"/>
<path fill="#FFFFFF" stroke="#000000" stroke-miterlimit="10" d="M383.65,172.73c-3.17,6.34-7.07,10.82-11.19,14.33
	c-1.82-9.63-8.12-13.15-13.24-14.4c3.29-2.13,6.16-4.54,8.26-7.26c10.36-13.39,4.8-64.42-1.01-69.22c-5.81-4.8,6.32-4.04,10.11,5.81
	C380.37,111.84,395.53,148.98,383.65,172.73z"/>
<path fill="#FFFFFF" stroke="#000000" stroke-miterlimit="10" d="M372.46,187.06c-11.31,9.64-24.19,11.93-27.71,25.08
	c-0.4,1.49-0.66,3.15-0.8,4.95c-12.36-14.23-22.47-15.83-26.84-15.72c1.8-7.2,4.21-11.63,5.66-12.73
	c4.22-3.22,23.54-7.56,36.45-15.98C364.34,173.91,370.64,177.43,372.46,187.06z"/>
<path fill="#FFFFFF" stroke="#000000" stroke-miterlimit="10" d="M349.65,248.63c-12.66-1.35-26.73-9.45-34.1-14.24
	c-1.63-13.86-0.41-25.11,1.56-33.02c4.37-0.11,14.48,1.49,26.84,15.72C343.33,225.39,345.47,236.7,349.65,248.63z"/>
<path fill="#FFFFFF" stroke="#000000" stroke-miterlimit="10" d="M362.73,276.43c-18.63,2.52-29.05,1.62-34.87-0.03
	c-7.25-15.68-10.88-29.85-12.31-42.01c7.37,4.79,21.44,12.89,34.1,14.24C352.9,257.89,357.36,267.52,362.73,276.43z"/>
<path fill="#FFFFFF" stroke="#000000" stroke-miterlimit="10" d="M378.94,297.72c-16.2-2.41-26.16,6.15-31.07,12.28
	c-0.45-0.61-0.9-1.24-1.35-1.86c-7.94-11.11-14.04-21.73-18.66-31.74c5.82,1.65,16.24,2.55,34.87,0.03
	c4.2,6.98,8.96,13.52,14.1,19.08C377.51,296.24,378.21,296.98,378.94,297.72z"/>
<path fill="#FFFFFF" stroke="#000000" stroke-miterlimit="10" d="M419.03,328.7c-20.6-0.11-32.73,11.04-38.29,17.99
	c-11.47-10.57-22.71-22.76-32.87-36.69c4.91-6.13,14.87-14.69,31.07-12.28C389.21,308.16,404.21,319.21,419.03,328.7z"/>
<path fill="#FFFFFF" stroke="#000000" stroke-miterlimit="10" d="M445.26,344.04c-4.78,7.45-17.41,24-24.63,33.36
	c-12.69-8.15-26.44-18.32-39.89-30.71c5.56-6.95,17.69-18.1,38.29-17.99c0.01,0.01,0.01,0.01,0.02,0c0.01,0.01,0.02,0.01,0.03,0
	C428.29,334.59,437.37,339.88,445.26,344.04z"/>
<path fill="#FFFFFF" stroke="#000000" stroke-miterlimit="10" d="M500.62,390.94c-6.44,15.34-18.76,14.97-26.53,13.07
	c-1.77-0.43-6.92-2.21-14.37-5.48c-1.97-0.86-4.09-1.82-6.36-2.9c-9.07-4.3-20.4-10.31-32.73-18.23
	c7.22-9.36,19.85-25.91,24.63-33.36h0.01c7.65,4.04,14.12,7.01,18.33,8.43c3.45,1.17,6.96,2.41,10.35,3.63
	c2.48,0.89,4.89,1.77,7.17,2.62c9.06,3.36,15.9,6.07,15.9,6.07S507.06,375.59,500.62,390.94z"/>
<path fill="#FFFFFF" stroke="#000000" stroke-miterlimit="10" d="M580.39,538.35c-0.17-0.21-0.37-0.25-0.6-0.14
	c-2.04,0.99-6.08,14.49-6.78,33.82v0.01c-13.64,3.57-52.37,0.33-55.9,0.02v-43.94l2.8-2.28l3.93-3.18l4.4-3.58l1.94-1.57
	c0,0,1.95,0.03,4.99,0.1c9.99,0.21,31.78,0.82,35.56,1.98C575.65,521.11,577.55,527.74,580.39,538.35z"/>
<path fill="#FFFFFF" stroke="#000000" stroke-miterlimit="10" d="M581.91,641.61c0,0-7.8,1.07-17.26,2.33
	c-13.76,1.83-31.05,4.07-32.96,4.02c-3.22-0.1-5.11-2.75-5.11-2.75l-0.47-3.4l-8.71-63.48l-0.29-2.09v-4.18
	c3.53,0.31,42.26,3.55,55.9-0.02c0,0.07-0.01,0.15-0.01,0.22c-0.51,14.62,3.75,41.23,6.56,56.89
	C580.9,636.63,581.91,641.61,581.91,641.61z"/>
<path fill="#FFFFFF" stroke="#000000" stroke-miterlimit="10" d="M559.4,351.38c-2.76,1.41-5.42,2.72-7.95,3.93
	c-7.25-4.93-20.81-7.16-23.54-7.93c-3.29-0.93-6.83,1.94-11.12,1.68c-4.3-0.25-6.82-2.27-11.62-1.51
	c-2.98,0.47-14.99,6.38-24.05,11.17c-2.28-0.85-4.69-1.73-7.17-2.62c10.59-13.27,38.2-16.9,54.6-17.14
	C542.13,338.76,554.63,347.57,559.4,351.38z"/>
<path fill="#FFFFFF" stroke="#000000" stroke-miterlimit="10" d="M448.83,505.44c4.3,8.34,4.8,7.86,4.8,12.52
	c0,1.91-0.3,4.1-0.65,6.04l-26.02-0.72c0.12-0.23,0.26-0.45,0.4-0.66c0,0-8.97-5.43-14.15-6.19c-0.62-0.09-1.4-0.13-2.31-0.12
	c1.51-2.6,3.32-5.26,5.25-7.88c7.03-9.6,15.55-18.53,16.26-20.67c1.01-3.03,1.01-6.32-1.52-13.39c-2.52-7.08,7.08-23.24,8.34-27.03
	c-2.52-3.79-1.51-16.93-2.27-15.67c-0.73,1.23-4.76,11.15-5.04,11.84c0.15-0.81,2.63-13.84,6.3-21.18
	c2.82-5.64,11.1-19.82,15.14-26.7c2.27,1.08,4.39,2.04,6.36,2.9c0.51,3.5,1.22,8.4,1.88,13.38c-3.53,5.35-9.25,15.35-8.73,23.18
	c0.76,11.24-0.03,15.9-2.41,20.89c-2.39,5-4.98,6.51-5.2,10.56C445.04,470.58,444.54,497.1,448.83,505.44z"/>
<path fill="#FFFFFF" stroke="#000000" stroke-miterlimit="10" d="M504.64,429.95c2.42,0.01,4.63-0.42,4.63-0.42L504.64,429.95z
	 M504.64,429.95c2.42,0.01,4.63-0.42,4.63-0.42L504.64,429.95z M574.58,400.73c-0.35-2.35-0.85-4.74-1.28-6.61
	c-3.71,2.41-7.06,4.48-9.97,6.24c-8.26,5-13.07,7.44-13.07,7.44s-13.39,3.66-23.37-13.14c-9.97-16.8-0.57-28.6-0.57-28.6
	s4.13-1.46,10.93-4.34c3.93-1.67,8.76-3.81,14.2-6.41c-7.25-4.93-20.81-7.16-23.54-7.93c-3.29-0.93-6.83,1.94-11.12,1.68
	c-4.3-0.25-6.82-2.27-11.62-1.51c-2.98,0.47-14.99,6.38-24.05,11.17c9.06,3.36,15.9,6.07,15.9,6.07s10.04,10.8,3.6,26.15
	c-6.44,15.34-18.76,14.97-26.53,13.07c-1.77-0.43-6.92-2.21-14.37-5.48c0.51,3.5,1.22,8.4,1.88,13.38
	c0.99,7.45,1.88,15.11,1.88,18.63c0,7.95,6.57,25.01,7.08,26.52c0.28,0.86,1.25,11.6,2.38,21.68c0.88,7.8,1.84,15.2,2.67,17.35
	c1.43,3.71,7.36,14.93,14.4,21.87c2.31,2.27,4.74,4.08,7.17,5.03c-1.66-13.79,8.4-28.13,8.56-28.79c0,0,6.82-4.55,9.66-1.33
	c2.84,3.22,14.21,18.76,13.07,25.2c-0.06,0.33-0.13,0.67-0.23,1.01l1.94-1.57c0,0,1.95,0.03,4.99,0.1c0.9-0.56,1.76-1.17,2.59-1.81
	c2.67-2.07,6.53-3.74,10.9-5.21c8.3-21.13,2.74-56.18,2.74-56.18l10.23,11.56c0,0-0.38-6.44,0-10.8s7.96,2.65,7.96,2.65
	s-0.57-6.44-2.46-14.78c3.79-7.2,2.84-16.1,2.84-16.1s1.93-6.71,3.42-12.46c0.28-1.08,0.54-2.11,0.77-3.07
	c0.31-1.28,0.57-2.41,0.73-3.27c0.05-0.25,0.09-0.52,0.11-0.81C575.17,405.57,574.95,403.17,574.58,400.73z M514.59,457.02
	c1,0.75-0.08,1.42-0.08,1.42s-0.32-0.04-0.83-0.13c-0.01,0-0.01,0-0.02,0c-0.87-0.14-2.28-0.41-3.61-0.82
	c-1.79-0.55-4.24-0.54-5.01-1.28c-0.15-0.14-0.24-0.31-0.25-0.52c0,0,3.17-1.99,4.88-0.43C511.37,456.83,513.6,456.26,514.59,457.02
	z M476.75,437.04c-1.12-1.55-1.64-3.08-1.73-4.53c-1.45-9.22,4.82-15.42,12.91-14.4c6.25,0.79,14.25,10.29,21.34,11.42
	c0,0-8.52,9.22-11.68,11.11C494.43,442.54,481.55,443.67,476.75,437.04z M483.33,475.95c0.71-1.67,4.23-9.76,7.94-16.3
	c4.17-7.32,13.77-15.28,13.77-15.28l-0.56,2.82l-0.16,0.78c-0.02,0-0.19,0.08-1.86,1.4c-0.96,0.76-2.4,1.93-4.59,3.71
	C491.82,458.03,484.45,473.55,483.33,475.95z M532.05,476.7c-5.41,5.98-11.94,7.05-17.77,6.93c-0.4-0.01-0.8-0.02-1.19-0.04
	c-0.34-0.02-0.67-0.04-1-0.06c-0.33-0.02-0.65-0.04-0.97-0.07c-0.42-0.03-0.83-0.07-1.23-0.11c-0.5-0.04-0.99-0.09-1.47-0.13
	c-0.33-0.04-0.66-0.07-0.98-0.1c-6.61-0.63-12.62-7.15-13.29-7.89c-0.34,0.07-0.54,0.11-0.59,0.11c0.01-0.01,0.03-0.02,0.06-0.03
	c0.01-0.01,0.03-0.02,0.05-0.02c0.01-0.01,0.03-0.01,0.06-0.02c0.09-0.03,0.21-0.06,0.36-0.11c0.56-0.85,10.51-3.79,14.68-3.51
	c4.17,0.29,5.33,1.09,5.49,0.86c0.06-0.09,0.14-0.18,0.22-0.25c0.17-0.16,0.38-0.29,0.61-0.39c0.82-0.37,2.01-0.45,3.4-0.33
	c0.34,0.03,0.7,0.07,1.07,0.12c0.26,0.04,0.53,0.08,0.8,0.13c0.5,0.08,1.02,0.19,1.55,0.31c0.22,0.05,0.44,0.11,0.67,0.16
	c0.59,0.14,1.18,0.31,1.77,0.49c0.52,0.16,1.03,0.32,1.53,0.49c3.55,1.23,6.45,2.75,6.19,3.42
	C532.15,476.69,532.14,476.72,532.05,476.7z M518.62,457.69c0,0,1.38-3.42,3.22-3.41c1.84,0.01,2.65,2.53,2.65,2.53
	C520.45,457.25,518.62,457.69,518.62,457.69z M525.51,448.66l-0.19-3.22c0,0,14.52,11.94,19.7,28.42
	C537.76,462.94,525.51,448.66,525.51,448.66z M554.2,433.99l-0.06-0.01c0,0.04-0.01,0.08-0.02,0.12c-0.02,0.17-0.05,0.35-0.09,0.52
	c-0.02,0.12-0.04,0.24-0.08,0.37c-0.03,0.12-0.06,0.23-0.09,0.35c-0.04,0.12-0.08,0.25-0.12,0.37c-0.05,0.15-0.1,0.29-0.16,0.44
	c-0.16,0.39-0.34,0.78-0.56,1.15c-0.09,0.16-0.19,0.32-0.29,0.48c-0.1,0.14-0.2,0.29-0.31,0.44c-0.08,0.11-0.16,0.21-0.25,0.31
	c-0.48,0.61-1.07,1.19-1.75,1.72c-0.16,0.12-0.32,0.25-0.49,0.36c-0.17,0.12-0.34,0.24-0.52,0.35c-6.06,3.79-15.71,3.22-29.5-10.71
	c4.02-0.85,10.46-1.99,17.79-8.62C545.02,415,558.71,420.95,554.2,433.99z M520.32,430.31c0.12,0.01,0.26,0.03,0.43,0.04
	c0.07,0.01,0.14,0.01,0.21,0.02l-0.9-0.1C520.13,430.28,520.21,430.29,520.32,430.31z M509.27,429.53l-4.63,0.42
	C507.06,429.96,509.27,429.53,509.27,429.53z"/>
<path fill="#FFFFFF" stroke="#000000" stroke-miterlimit="10" d="M532.07,476.66c0,0.01-0.01,0.03-0.02,0.04
	c-1.71-0.24-13.56-1.96-19.28-1.16c0,0-11.59-1.18-16.92-0.68c4.33-0.9,13.58-2.61,16.92-0.93
	C519.94,471.82,530.55,476.03,532.07,476.66z"/>
<path fill="#FFFFFF" stroke="#000000" stroke-miterlimit="10" d="M505.04,444.37l-0.56,2.82l-0.16,0.78c-0.02,0-0.19,0.08-1.86,1.4
	c-0.96,0.76-2.4,1.93-4.59,3.71c-6.05,4.95-13.42,20.47-14.54,22.87c0.71-1.67,4.23-9.76,7.94-16.3
	C495.44,452.33,505.04,444.37,505.04,444.37z"/>
<path fill="#FFFFFF" stroke="#000000" stroke-miterlimit="10" d="M528.47,518.07c-0.06,0.33-0.13,0.67-0.23,1.01l-4.4,3.58
	c-9.72,2.86-20.15,2.83-26.63,0.34c-0.01,0-0.02-0.01-0.03-0.01c-1.66-13.79,8.4-28.13,8.56-28.79c0,0,6.82-4.55,9.66-1.33
	C518.24,496.09,529.61,511.63,528.47,518.07z"/>
<path fill="#FFFFFF" stroke="#000000" stroke-miterlimit="10" d="M523.84,522.66l-3.93,3.18l-22.35-0.61l-7.55-0.21v-7.06
	c2.31,2.27,4.74,4.08,7.17,5.03c0.01,0,0.02,0.01,0.03,0.01C503.69,525.49,514.12,525.52,523.84,522.66z"/>
<path fill="#FFFFFF" stroke="#000000" stroke-miterlimit="10" d="M517.11,576.24l0.29,2.09c-14.56,0.32-85.65,1.89-95.85,1.89
	c-0.41-0.15-0.84-0.29-1.27-0.41v-0.01c0.03-4.15,0.41-38.19,5.05-52.65c0.49-1.53,1.03-2.84,1.63-3.87l26.02,0.72l8.1,0.22
	l28.93,0.8l7.55,0.21l22.35,0.61l-2.8,2.28V576.24z"/>
<path fill="#FFFFFF" stroke="#000000" stroke-miterlimit="10" d="M693.89,564.25l-27.98-13.08l-5.88,6.82
	c0,0-17.94-12.13-43.2-16.17c0,0-6.31,0-13.32,5.85l-23.72-9.46c0.23-0.11,0.43-0.07,0.6,0.14c-2.84-10.61-4.74-17.24-9.66-18.76
	c-3.78-1.16-25.57-1.77-35.56-1.98c0.9-0.56,1.76-1.17,2.59-1.81c2.67-2.07,6.53-3.74,10.9-5.21c10.75-3.62,24.56-6,31.14-9.92
	c-0.23,0.99-0.44,1.78-0.61,2.25c-0.88,2.41-2.53,15.15,4.29,19.95c-3.28-7.58,2.03-14.14,4.3-19.7c2.27-5.56,5.81-9.85,5.81-9.85
	s8.08,11.87,8.12,19.26c0.03,7.39-4.58,16.61-4.58,16.61s11.36-10.36,10.86-17.57c-0.5-7.1-8.58-21.38-8.83-21.83
	c0.41,0.3,9.39,6.87,12.11,9.59c1.41,1.41,4.12,6.08,6.45,10.33c2.26,4.13,4.16,7.86,4.16,7.86s0.08-2.35-0.31-5.43
	c1.71,1.07,3.64,2.3,5.7,3.61c0.14,1.19,0.33,2.24,0.68,3.08c0.1-0.86,0.18-1.7,0.24-2.49c9.94,6.32,22.29,14.29,26.03,17.16
	c6.57,5.04,18.7,14.13,22.74,15.9C679.14,550.35,686.29,555.78,693.89,564.25z"/>
<path fill="#FFFFFF" stroke="#000000" stroke-miterlimit="10" d="M699.06,579.81l0.89-1.54l-4.8-2.34l3.36-6.19
	c3.07,3.89,6.06,8.22,8.67,12.91C704.06,581.13,701.14,580.28,699.06,579.81z"/>
<path fill="#FFFFFF" stroke="#000000" stroke-miterlimit="10" d="M740.68,732.37c-0.4,2.45-1.2,5.1-2.22,7.81
	c-12.76-29.96-35.59-26.47-42.49-30.46c-2.26-1.3-5.93-1.83-9.95-1.94c-4.7-0.13-9.86,0.32-13.78,0.78c-3.73,0.44-6.33,0.9-6.33,0.9
	s-9.74-1.28-19.63-2.82c-4.4-0.68-8.84-1.42-12.46-2.12c-0.82-0.16-1.58-0.26-2.3-0.31c-2.21-2.68-5.2-3.86-10.36-3.8
	c7.88-20.75,5.35-50.16,3.81-62.36c1.37-0.04,2.53-0.11,3.38-0.23c7.43-1.01,22.33,2.27,22.33,2.27s0.04-0.08,0.11-0.22
	c4.61,2.88,15.55,9.89,20.06,14.33c0.01,1,0,2.11-0.03,3.26c-3.38-0.01-8.21,0.35-10.38,2.34c-3.5,3.22,4.45,14.87,9.48,14.49
	c3.76-0.28,9.65-2.26,13.37-4.92c0,0,0,0,0.01,0c3.23,0.37,6.64-0.59,9.64-3.89c2.65-0.56,6.77-1.84,10.14-4.49
	c6.07,2.83,19.86,7.63,31.16-0.24c0,0,0.92-0.75,2.2-2.45c1.54,5.25,2.44,9.32,2.35,11.54c-0.38,9.67-8.72,28.99-5.87,38.09
	C735.76,717.02,742.58,721,740.68,732.37z"/>
<path fill="#FFFFFF" stroke="#000000" stroke-miterlimit="10" d="M663.27,759.08c-7.3,13.01-13.93,26.36-14.54,27.58
	c0.6-1.55,8.29-22.6-4.11-50.31c-7.61-17.03-9.01-27.17-13.1-32.14c0.72,0.05,1.48,0.15,2.3,0.31c3.62,0.7,8.06,1.44,12.46,2.12
	C653.6,719.25,669.22,748.5,663.27,759.08z"/>
<path fill="#FFFFFF" stroke="#000000" stroke-miterlimit="10" d="M709.78,751.59c-0.22-2.12-1.89-15.2-10.59-19.03
	c-7.09-3.12-20.33-16.82-26.95-24c3.92-0.46,9.08-0.91,13.78-0.78c5.23,4.98,14.3,13.95,17.72,19.47
	C708.28,734.59,709.6,749.33,709.78,751.59z"/>
<path fill="#FFFFFF" stroke="#000000" stroke-miterlimit="10" d="M738.46,740.18v0.01c-3.71,9.89-10.39,20.62-12.18,25.53
	c-2.27,6.25-2.46,26.52-29.17,39.22c-9.26,4.4-19.36,7.04-29.29,8.58h-0.01c-18.73,2.91-36.86,1.89-47.63,1.27
	c-15.29-0.88-21.78,16.66-27.92,10.14c0,0,0-0.01-0.01-0.02c-0.14-0.41-2.92-8.66-1.44-10.88c-2.7-3.49-6.06-19.21-9.98-32.8
	c-0.76-2.64-1.54-5.19-2.34-7.56c-4.17-12.38-13.13-46.98-15.74-57.19c-0.47-1.82-0.74-2.87-0.74-2.87s3.54-2.15,10.86-1.39
	c7.05,0.73,11.05-6.25,15.5,0.39c1.74-1.04,4.3-2.21,7.7-2.86c3.02-0.57,6.69-0.74,11.04-0.03c13.56,2.2,14.84-6.16,24.41-5.51
	c4.09,4.97,5.49,15.11,13.1,32.14c12.4,27.71,4.71,48.76,4.11,50.31c0.61-1.22,7.24-14.57,14.54-27.58
	c5.95-10.58-9.67-39.83-16.99-52.44c9.89,1.54,19.63,2.82,19.63,2.82s2.6-0.46,6.33-0.9c6.62,7.18,19.86,20.88,26.95,24
	c8.7,3.83,10.37,16.91,10.59,19.03c-0.18-2.26-1.5-17-6.04-24.34c-3.42-5.52-12.49-14.49-17.72-19.47c4.02,0.11,7.69,0.64,9.95,1.94
	C702.87,713.71,725.7,710.22,738.46,740.18z"/>
<ellipse transform="matrix(0.9239 -0.3827 0.3827 0.9239 -261.7738 236.7567)" fill="#FFFFFF" stroke="#000000" stroke-miterlimit="10" cx="464.24" cy="776.39" rx="4.99" ry="4.99"/>
<ellipse transform="matrix(0.2298 -0.9732 0.9732 0.2298 -386.5572 1064.3434)" fill="#FFFFFF" stroke="#000000" stroke-miterlimit="10" cx="479.15" cy="776.39" rx="5.43" ry="5.43"/>
<ellipse transform="matrix(0.9239 -0.3827 0.3827 0.9239 -259.5046 248.1644)" fill="#FFFFFF" stroke="#000000" stroke-miterlimit="10" cx="494.05" cy="776.39" rx="5.43" ry="5.43"/>
<ellipse transform="matrix(0.9239 -0.3827 0.3827 0.9239 -258.4344 253.545)" fill="#FFFFFF" stroke="#000000" stroke-miterlimit="10" cx="508.11" cy="776.39" rx="5.43" ry="5.43"/>
<path fill="#FFFFFF" stroke="#000000" stroke-miterlimit="10" d="M360.06,597.19c-0.38,0.58-0.75,1.12-1.13,1.6
	c0.22,0.08,0.48,0.13,0.76,0.16l-3.83,18.22c0,0,0.86,0.08,2.29,0.11c-1.9,4.98-6.57,17.62-5.51,18.84
	c0.64,0.74,2.16,2.11,3.54,3.32c-1.93,1.64-4.51,4.03-6.38,6.53c-0.83,1.11,0.74,1.43,3.59,1.28c2.04,4.52,7.21,15.34,11.62,19.34
	c-12.7,1.69-43.53,4.36-47.42,3.06c-4.17-1.39-11.24-14.4-14.15-18.19c-2.46-1.43-4.9-3.92-7.21-6.99
	c12.61,4.37,19.21-1.09,29.32-1.09c10.1,0,22.99,1.83,22.99,1.83s-1.01-7.39,1.04-10.8c2.05-3.41-1.3-11.49-5.09-18.83
	c-3.78-7.33,0.26-10.6,1.02-16.6c0.75-5.99-8.09-8.65-12.13-6.38s-12.89,39.16-23.24,44.65c-5.03,2.67-11.84,2.41-17.78,1.43
	c-4.72-7.93-8.43-17.23-9.76-22.33c-2.27-8.72-0.63-22.61,5.18-43.83c5.81-21.23,23.62-30.57,28.93-34.24c5.3-3.66,20.21,0,20.21,0
	s2.84,0.83,4.92,3.86c5.69-3.22,17.81-6.26,21.6-5.88c1.98,0.2,6.46-1.83,11.25-3.44c-1.38,5.29-3,15.5-2.86,34.15
	C369.36,575.47,364.74,589.95,360.06,597.19z"/>
<path fill="none" stroke="#000000" stroke-miterlimit="10" d="M367.42,666.24c-0.7,0.11-1.51,0.22-2.41,0.35"/>
<path fill="#FFFFFF" stroke="#000000" stroke-miterlimit="10" d="M349.58,634.41c-2.05,3.41-1.04,10.8-1.04,10.8
	s-12.89-1.83-22.99-1.83c-10.11,0-16.71,5.46-29.32,1.09h-0.01c-1.33-1.77-2.63-3.73-3.86-5.79c5.94,0.98,12.75,1.24,17.78-1.43
	c10.35-5.49,19.2-42.38,23.24-44.65s12.88,0.39,12.13,6.38c-0.76,6-4.8,9.27-1.02,16.6C348.28,622.92,351.63,631,349.58,634.41z"/>
<path fill="#FFFFFF" stroke="#000000" stroke-miterlimit="10" d="M416.15,508.43c-1.93,2.62-3.74,5.28-5.25,7.88
	c-6.71,0.07-20.26,2.64-23.71,4.42c-1.57,0.81-3.42,4.81-5.04,10.31c-2.37,0.22-4.96,0.94-7.46,1.78
	c-4.79,1.61-9.27,3.64-11.25,3.44c-3.79-0.38-15.91,2.66-21.6,5.88c-2.08-3.03-4.92-3.86-4.92-3.86s5.93-4.29,6.94-5.93
	c-5.18-4.8,5.43-10.23,14.15-17.31c8.72-7.07,19.52-5.75,23.56-5.87c4.04-0.13,12.44-3.73,17.75-3.73
	C402.68,505.44,410.72,507.17,416.15,508.43z"/>
<path fill="#FFFFFF" stroke="#000000" stroke-miterlimit="10" d="M427.36,522.62c-0.14,0.21-0.28,0.43-0.4,0.66
	c-0.6,1.03-1.14,2.34-1.63,3.87c-4.64,14.46-5.02,48.5-5.05,52.65c-12.5-3.75-32.77,0.32-40.54,2.14c-0.94-9.43-1.6-17.4-1.71-21.8
	c-0.23-9.31,1.7-20.88,4.12-29.1c1.62-5.5,3.47-9.5,5.04-10.31c3.45-1.78,17-4.35,23.71-4.42c0.91-0.01,1.69,0.03,2.31,0.12
	C418.39,517.19,427.36,522.62,427.36,522.62z"/>
<path fill="#FFFFFF" stroke="#000000" stroke-miterlimit="10" d="M655.19,633.2c-2.56,3.23-4.01,5.91-4.4,6.67
	c-0.07,0.14-0.11,0.22-0.11,0.22s-14.9-3.28-22.33-2.27c-0.85,0.12-2.01,0.19-3.38,0.23c-10.57,0.34-34.16-1.24-34.16-1.24
	s-2.08-4.25-3.63-9.09c-0.7-2.18-1.28-4.49-1.52-6.57c-0.2-1.73-0.17-6.03,0.14-11.71C595.38,612.39,636.94,625.29,655.19,633.2z"/>
<path fill="#FFFFFF" stroke="#000000" stroke-miterlimit="10" d="M668.23,601.03c-0.49,6.1-3.1,15.33-3.4,15.63
	c-0.38,0.38-8.71,6.07-17.3,6.38c-8.59,0.32-20.02-6-18.64-15.03c0.86-5.56,3.82-10.38,5.97-13.26c-3.6,8.23,2.93,17.4,9.51,19.96
	c7.96,3.09,19.51-1.96,22.86-10.05C667.76,603.39,668.08,602.18,668.23,601.03z"/>
<path fill="#FFFFFF" stroke="#000000" stroke-miterlimit="10" d="M695.15,575.93l4.8,2.34l-0.89,1.54l-7.95,13.8l-1.67,1.99
	l-8.26,9.86c-4.77-4.54-9.75-8.66-14.8-12.4c-0.24-0.34-0.48-0.67-0.74-0.98c11.42,4.61,16.69,4.13,16.97,3.76
	c0.28-0.37,8.55-16.25,8.8-16.75l0.01-0.01c0,0-12.3-21.12-29.52-18.5c-0.08,0-0.15,0.02-0.23,0.03l-12.98,12.13
	c0,0,2.46,8.13,8.86,14.19c-26.27-17.07-52.82-24.69-63.17-27.21c0.7-1.63,1.45-3.07,2.24-4.26c2.24-3.36,4.6-5.89,6.89-7.79
	c7.01-5.85,13.32-5.85,13.32-5.85c25.26,4.04,43.2,16.17,43.2,16.17l5.88-6.82l27.98,13.08l6.06,2.83l-1.44,2.66L695.15,575.93z"/>
<path fill="#FFFFFF" stroke="#000000" stroke-miterlimit="10" d="M668.31,599.26c0,0.54-0.03,1.13-0.08,1.75c0,0.01,0,0.01,0,0.02
	c-0.15,1.15-0.47,2.36-1,3.63c-3.35,8.09-14.9,13.14-22.86,10.05c-6.58-2.56-13.11-11.73-9.51-19.96c0.76-1.73,1.96-3.41,3.7-4.99
	c6.61-5.99,14.44-4.51,19.02-2.8c0.01,0,0.02,0,0.03,0.01c2.37,0.89,3.86,1.84,3.86,1.84c1.42,0.66,2.93,1.77,4.17,3.27
	c0.26,0.31,0.5,0.64,0.74,0.98c0.76,1.14,1.37,2.45,1.69,3.92c0.02,0.08,0.04,0.17,0.06,0.25c0.02,0.09,0.04,0.18,0.05,0.27
	c0.03,0.15,0.06,0.32,0.07,0.49c0.01,0.08,0.02,0.16,0.02,0.24c0.01,0.06,0.02,0.13,0.01,0.19c0.01,0.14,0.02,0.3,0.02,0.45
	C668.31,599,668.31,599.13,668.31,599.26z"/>
<path fill="#FFFFFF" stroke="#000000" stroke-miterlimit="10" d="M691.41,579.09c-0.25,0.5-8.52,16.38-8.8,16.75
	c-0.28,0.37-5.55,0.85-16.97-3.76c-1.24-1.5-2.75-2.61-4.17-3.27c0,0-1.49-0.95-3.86-1.84c-0.01-0.01-0.02-0.01-0.03-0.01
	c-0.01-0.01-0.02-0.02-0.03-0.03c-6.4-6.06-8.86-14.19-8.86-14.19l12.98-12.13c0.08-0.01,0.15-0.03,0.23-0.03
	c-0.57,2.54-1.04,7.27,1.76,11.49C667.74,578.21,678.81,585.24,691.41,579.09z"/>
<path fill="#FFFFFF" stroke="#000000" stroke-miterlimit="10" d="M691.42,579.08l-0.01,0.01c-12.6,6.15-23.67-0.88-27.75-7.02
	c-2.8-4.22-2.33-8.95-1.76-11.49C679.12,557.96,691.42,579.08,691.42,579.08z"/>
<path fill="#FFFFFF" stroke="#000000" stroke-miterlimit="10" d="M681.18,605.46l-4.46,5.33l-1.28,1.52c0,0-5.3,7.32-13.13,13.64
	c-2.94,2.36-5.31,4.94-7.12,7.25c-18.25-7.91-59.81-20.81-69.39-23.76c0.78-14.37,3.36-37.52,8.58-49.72
	c10.35,2.52,36.9,10.14,63.17,27.21c0.01,0.01,0.02,0.02,0.03,0.03c-4.58-1.71-12.41-3.19-19.02,2.8c-1.74,1.58-2.94,3.26-3.7,4.99
	c-2.15,2.88-5.11,7.7-5.97,13.26c-1.38,9.03,10.05,15.35,18.64,15.03c8.59-0.31,16.92-6,17.3-6.38c0.3-0.3,2.91-9.53,3.4-15.63
	c0-0.01,0-0.01,0-0.02c0.03-0.24,0.06-0.48,0.07-0.72c0.01-0.21,0.02-0.41,0.02-0.61c0.02-0.37,0.01-0.73-0.02-1.08
	c0-0.06,0-0.12-0.02-0.18c0.01-0.06,0-0.13-0.01-0.19c0-0.08-0.01-0.16-0.02-0.24c-0.01-0.17-0.04-0.34-0.07-0.49
	c-0.01-0.09-0.03-0.18-0.05-0.27c-0.02-0.08-0.04-0.17-0.06-0.25c-0.32-1.47-0.93-2.78-1.69-3.92
	C671.43,596.8,676.41,600.92,681.18,605.46z"/>
<path fill="#FFFFFF" stroke="#000000" stroke-miterlimit="10" d="M603.51,547.67c-2.29,1.9-4.65,4.43-6.89,7.79
	c-0.79,1.19-1.54,2.63-2.24,4.26c-5.22,12.2-7.8,35.35-8.58,49.72c-0.31,5.68-0.34,9.98-0.14,11.71c0.24,2.08,0.82,4.39,1.52,6.57
	l-7.62,1.43c-2.81-15.66-7.07-42.27-6.56-56.89c0-0.07,0.01-0.15,0.01-0.22v-0.01c0.7-19.33,4.74-32.83,6.78-33.82L603.51,547.67z"
	/>
<path fill="#FFFFFF" stroke="#000000" stroke-miterlimit="10" d="M698.01,631.79l-11.7,17.78c0,0-2.85,3.41-15.35,4.74
	c-0.03-0.03-0.07-0.07-0.11-0.11c-4.51-4.44-15.45-11.45-20.06-14.33c0.39-0.76,1.84-3.44,4.4-6.67c1.81-2.31,4.18-4.89,7.12-7.25
	c7.83-6.32,13.13-13.64,13.13-13.64l1.28-1.52c6.27,4.98,15.01,16.6,20.95,20.78C697.78,631.65,697.9,631.72,698.01,631.79z"/>
<path fill="#FFFFFF" stroke="#000000" stroke-miterlimit="10" d="M697.84,656.23c-0.85,2.93-2.11,5.72-3.95,8.12
	c-0.31,0.4-0.62,0.78-0.95,1.13c-3,3.3-6.41,4.26-9.64,3.89c-0.01,0-0.01,0-0.01,0c-6.72-0.76-12.64-7.24-12.52-10.33
	c0.02-0.53,0.04-1.06,0.05-1.58c0.03-1.15,0.04-2.26,0.03-3.26c0.04,0.04,0.08,0.08,0.11,0.11c12.5-1.33,15.35-4.74,15.35-4.74
	l11.7-17.78c0.08,0.05,0.17,0.09,0.25,0.14C699.04,636.24,700.52,646.95,697.84,656.23z"/>
<path fill="#FFFFFF" stroke="#000000" stroke-miterlimit="10" d="M683.29,669.37c-3.72,2.66-9.61,4.64-13.37,4.92
	c-5.03,0.38-12.98-11.27-9.48-14.49c2.17-1.99,7-2.35,10.38-2.34c-0.01,0.52-0.03,1.05-0.05,1.58
	C670.65,662.13,676.57,668.61,683.29,669.37z"/>
<path fill="#FFFFFF" stroke="#000000" stroke-miterlimit="10" d="M736.83,615.63c-0.04,0.02-0.09,0.05-0.13,0.07
	c-4.66,2.42-9.09,4.93-12.86,7.16c-1.94,1.14-3.71,2.21-5.24,3.16c-1.19-2.99-3.62-5.34-5.71-6.92c0.88-2,1.36-3.69,1.27-4.58
	c-0.16-1.62-2.55-5.31-5.43-9.14c1.64-1.9,3.75-4.29,5.72-6.32c1.75-1.8,3.38-3.33,4.49-4
	C723.83,597.62,733.65,604.06,736.83,615.63z"/>
<path fill="#FFFFFF" stroke="#000000" stroke-miterlimit="10" d="M720.22,594.81c-0.22-0.24-0.67-0.13-1.28,0.25
	c-1.11,0.67-2.74,2.2-4.49,4c-1.97,2.03-4.08,4.42-5.72,6.32c-3.86-5.17-8.62-10.57-9.92-11.33c-1.73-1-6.96,0.69-9.37,1.55
	l1.67-1.99l7.95-13.8c2.08,0.47,5,1.32,8.12,2.84v0.01C711.83,584.92,716.9,588.66,720.22,594.81z"/>
<path fill="#FFFFFF" stroke="#000000" stroke-miterlimit="10" d="M712.89,619.1c-2.73,6.26-9.36,15.53-14.63,12.83
	c-0.03-0.14-0.06-0.28-0.08-0.4l-0.17,0.26c-0.11-0.07-0.23-0.14-0.34-0.22c-5.94-4.18-14.68-15.8-20.95-20.78l4.46-5.33l8.26-9.86
	c2.41-0.86,7.64-2.55,9.37-1.55c1.3,0.76,6.06,6.16,9.92,11.33c2.88,3.83,5.27,7.52,5.43,9.14
	C714.25,615.41,713.77,617.1,712.89,619.1z"/>
<path fill="#FFFFFF" stroke="#000000" stroke-miterlimit="10" d="M719.27,630.81c-0.6,5.54-2.19,12.69-5.52,18.09
	c-1.59,2.59-3.57,4.76-6.05,6.18h-0.01c-0.48,0.28-0.97,0.53-1.49,0.74c-3.32,1.37-6.14,1.18-8.36,0.41
	c2.68-9.28,1.2-19.99,0.42-24.3c5.27,2.7,11.9-6.57,14.63-12.83c2.09,1.58,4.52,3.93,5.71,6.92
	C719.18,627.47,719.46,629.07,719.27,630.81z"/>
<path fill="#FFFFFF" stroke="#000000" stroke-miterlimit="10" d="M743.53,636.81c-1,11.58-4.67,18.26-7.09,21.49
	c-1.28,1.7-2.2,2.45-2.2,2.45s-12.89-8.89-20.49-11.85c3.33-5.4,4.92-12.55,5.52-18.09c0.19-1.74-0.09-3.34-0.67-4.79
	c1.53-0.95,3.3-2.02,5.24-3.16c3.77-2.23,8.2-4.74,12.86-7.16C739.79,618.41,744.57,624.65,743.53,636.81z"/>
<path fill="#FFFFFF" stroke="#000000" stroke-miterlimit="10" d="M734.24,660.75c-11.3,7.87-25.09,3.07-31.16,0.24
	c1.91-1.49,3.58-3.42,4.61-5.91h0.01c2.48-1.42,4.46-3.59,6.05-6.18C721.35,651.86,734.24,660.75,734.24,660.75z"/>
<path fill="#FFFFFF" stroke="#000000" stroke-miterlimit="10" d="M707.69,655.08c-1.03,2.49-2.7,4.42-4.61,5.91
	c-3.37,2.65-7.49,3.93-10.14,4.49c0.33-0.35,0.64-0.73,0.95-1.13c1.84-2.4,3.1-5.19,3.95-8.12c2.22,0.77,5.04,0.96,8.36-0.41
	C706.72,655.61,707.21,655.36,707.69,655.08z"/>
<path fill="#FFFFFF" stroke="#000000" stroke-miterlimit="10" d="M583.51,282.11l-12.03,31.71c0,0-6.2-1.1-15.84-2.37
	c-17.57-2.33-46.56-5.22-70.14-3.08c-5.23,0.47-10.2,1.19-14.72,2.22c-0.08,0.02-0.15,0.03-0.22,0.05l-3.33-28.69l-2.99-25.73
	c0,0,8.08,17.84,17.75,26.55c4.07,3.67,8.42,5.72,12.57,4.15c5.29-2.01,9.44-8.43,12.57-15.65c5.16-11.92,7.51-26.04,7.51-26.04
	s1.26,5.94,3.5,13.31c3.12,10.31,8.14,23.43,14.24,27.07c0.01,0,0.02,0.01,0.03,0.01c1.7,1.01,3.49,1.28,5.35,0.54
	c13.04-5.22,25.35-17.76,25.76-18.17c-0.22,0.78-5.65,20.06,0.6,25.23c0.92,0.77,2.09,1.22,3.57,1.27
	C577.27,294.8,582.06,285.54,583.51,282.11z"/>
<path fill="#FFFFFF" stroke="#000000" stroke-miterlimit="10" d="M517.11,317.99c-30.06-0.19-41.21-3.05-44.92-5.8
	c-0.73-0.55-1.17-1.09-1.41-1.6c4.52-1.03,7.51-1.56,12.74-2.03c6.34,2.15,20.56,5.13,37.65,5.26c15.31,0.11,27.26-1.25,34.47-2.37
	c9.64,1.27,15.84,2.37,15.84,2.37S576.03,318.37,517.11,317.99z"/>
<path fill="none" stroke="#000000" stroke-miterlimit="10" d="M419.05,328.7c-0.01,0-0.01,0-0.02,0"/>
<path fill="#FFFFFF" stroke="#000000" stroke-miterlimit="10" d="M563.33,400.36c-8.26,5-13.07,7.44-13.07,7.44
	s-13.39,3.66-23.37-13.14c-9.97-16.8-0.57-28.6-0.57-28.6s4.13-1.46,10.93-4.34C540.7,370.45,550.91,393.9,563.33,400.36z"/>
<path fill="#FFFFFF" stroke="#000000" stroke-miterlimit="10" d="M554.14,433.98c0,0.04-0.01,0.08-0.02,0.12
	c-0.02,0.18-0.05,0.35-0.09,0.52c-0.02,0.12-0.04,0.24-0.08,0.37c-0.03,0.12-0.06,0.23-0.09,0.35c-0.04,0.12-0.08,0.25-0.12,0.37
	c-0.05,0.15-0.1,0.3-0.16,0.44c-0.16,0.39-0.34,0.78-0.56,1.15c-0.1,0.16-0.19,0.32-0.29,0.48c-0.1,0.14-0.2,0.29-0.31,0.44
	c-0.08,0.11-0.16,0.21-0.25,0.31c-0.48,0.61-1.07,1.19-1.75,1.72c-0.16,0.12-0.32,0.25-0.49,0.36c-0.17,0.12-0.34,0.24-0.52,0.35
	c-6.06,3.79-15.71,3.22-29.5-10.71l0.06,0.01c0.02,0,0.05,0.01,0.09,0.01c0.07,0.01,0.15,0.02,0.26,0.04
	c0.12,0.01,0.26,0.03,0.43,0.04c0.07,0.01,0.14,0.01,0.21,0.02l0.25,0.02c1.18,0.09,3.05,0.13,5.16-0.18
	c0.25-0.04,0.5-0.08,0.76-0.13c0.51-0.09,1.03-0.21,1.56-0.35h0.01c0.28,0.5,0.62,1.05,1.03,1.59c1.48,1.94,3.85,3.83,7.33,3.39
	c1.99-0.25,3.74-1,5.19-2.02c2.81-1.99,4.47-5.04,4.44-7.66c1.53,0.08,2.89,0.45,3.99,1.23c0.58,0.41,1.09,0.87,1.53,1.38
	c0.33,0.38,0.62,0.78,0.87,1.2C554,430.39,554.36,432.19,554.14,433.98z"/>
<path fill="#FFFFFF" stroke="#000000" stroke-miterlimit="10" d="M546.69,425.03c0.03,2.62-1.63,5.67-4.44,7.66
	c-1.45,1.02-3.2,1.77-5.19,2.02c-3.48,0.44-5.85-1.45-7.33-3.39c-0.41-0.54-0.75-1.09-1.03-1.59c0.46-0.11,0.92-0.25,1.38-0.42
	C534,427.91,541.31,424.7,546.69,425.03z"/>
<path fill="#FFFFFF" stroke="#000000" stroke-miterlimit="10" d="M509.27,429.53c0,0-8.52,9.22-11.68,11.11
	c-3.16,1.9-16.04,3.03-20.84-3.6c-1.12-1.55-1.64-3.08-1.73-4.53c-0.27-4.74,4.11-8.59,7.16-9.27c1.24-0.27,3.14,0.01,5.26,0.58
	c-0.33,2.15-0.43,5.41,1.45,7.55c0.65,0.76,1.55,1.37,2.76,1.76c3.82,1.21,6.23-0.74,7.63-2.7c0.34-0.46,0.62-0.93,0.85-1.35
	c1.2,0.66,2.9,0.86,4.51,0.87C507.06,429.96,509.27,429.53,509.27,429.53z"/>
<path fill="#FFFFFF" stroke="#000000" stroke-miterlimit="10" d="M500.13,429.08c-0.23,0.42-0.51,0.89-0.85,1.35
	c-1.4,1.96-3.81,3.91-7.63,2.7c-1.21-0.39-2.11-1-2.76-1.76c-1.88-2.14-1.78-5.4-1.45-7.55c4.71,1.28,10.5,3.98,12.55,5.19
	C500.04,429.04,500.08,429.06,500.13,429.08z"/>
<path fill="#FFFFFF" stroke="#000000" stroke-miterlimit="10" d="M524.49,456.81c-4.04,0.44-5.87,0.88-5.87,0.88
	s1.38-3.42,3.22-3.41C523.68,454.29,524.49,456.81,524.49,456.81z"/>
<path fill="#FFFFFF" stroke="#000000" stroke-miterlimit="10" d="M514.51,458.44c0,0-0.32-0.04-0.83-0.13c-0.01,0-0.01,0-0.02,0
	c-2.76-0.69-7.29-1.76-7.29-1.76s-0.57-0.07-1.33-0.34c-0.15-0.14-0.24-0.31-0.25-0.52c0,0,3.17-1.99,4.88-0.43
	c1.7,1.57,3.93,1,4.92,1.76C515.59,457.77,514.51,458.44,514.51,458.44z"/>
<path fill="#FFFFFF" stroke="#000000" stroke-miterlimit="10" d="M545.02,473.86c-7.26-10.92-19.51-25.2-19.51-25.2l-0.19-3.22
	C525.32,445.44,539.84,457.38,545.02,473.86z"/>
<path fill="#FFFFFF" stroke="#000000" stroke-miterlimit="10" d="M532.05,476.7c-5.41,5.98-11.94,7.05-17.77,6.93
	c-0.4-0.01-0.8-0.02-1.19-0.04c-0.34-0.02-0.67-0.04-1-0.06c-0.33-0.02-0.65-0.04-0.97-0.07c-0.42-0.03-0.83-0.07-1.23-0.11
	c-0.5-0.04-0.99-0.09-1.47-0.13c-0.33-0.04-0.66-0.07-0.98-0.1c-6.61-0.63-12.62-7.15-13.29-7.89c0.4-0.09,0.98-0.22,1.7-0.37
	c5.33-0.5,16.92,0.68,16.92,0.68C518.49,474.74,530.34,476.46,532.05,476.7z"/>
<path fill="#FFFFFF" stroke="#000000" stroke-miterlimit="10" d="M532.07,476.66c-1.52-0.63-12.13-4.84-19.3-2.73
	c-3.34-1.68-12.59,0.03-16.92,0.93c-0.71,0.07-1.31,0.17-1.76,0.3c0.56-0.85,10.51-3.79,14.68-3.51c4.17,0.29,5.33,1.09,5.49,0.86
	c0.06-0.09,0.14-0.18,0.22-0.25c0.17-0.16,0.38-0.29,0.61-0.39c0.82-0.37,2.01-0.45,3.4-0.33c0.34,0.03,0.7,0.07,1.07,0.12
	c0.26,0.04,0.53,0.08,0.8,0.13c0.5,0.08,1.02,0.19,1.55,0.31c0.22,0.05,0.44,0.11,0.67,0.16c0.59,0.15,1.19,0.32,1.77,0.49
	c0.52,0.16,1.03,0.32,1.53,0.49C529.43,474.47,532.33,475.99,532.07,476.66z"/>
<path fill="#FFFFFF" stroke="#000000" stroke-miterlimit="10" d="M440.04,768.92c-0.03,0.27-0.05,0.4-0.05,0.4
	c-2.02,9.98-27.28,33.97-45.98,47.62c-18.69,13.64-28.29,64.67-28.29,64.67l-18.64-0.64c19.94-42.45,58.45-141.67,70.66-173.36
	C428.9,734.37,440.59,762.48,440.04,768.92z"/>
<path fill="#FFFFFF" stroke="#000000" stroke-miterlimit="10" d="M440.04,768.92c0.55-6.44-11.14-34.55-22.3-61.31
	c-5.99-14.37-11.81-28.36-15.51-38.38c0.75-1.56,1.34-2.8,1.76-3.68c15.4-0.75,27.47-4.61,27.47-4.61l-0.78-5.66l26.54-3.75
	C452.43,681.89,440.95,762.59,440.04,768.92z"/>
<path fill="#FFFFFF" stroke="#000000" stroke-miterlimit="10" d="M417.74,707.61c-12.21,31.69-50.72,130.91-70.66,173.36
	l-69.28-2.39c0,0,38.9-45.76,49.19-78.49c27.64-33.82,65.26-110.18,75.24-130.86C405.93,679.25,411.75,693.24,417.74,707.61z"/>
<path fill="#FFFFFF" stroke="#000000" stroke-miterlimit="10" d="M402.23,669.23c-9.98,20.68-47.6,97.04-75.24,130.86
	c0.52-1.66,0.97-3.29,1.34-4.88c6.31-27.36,42.43-102.46,54.31-126.76c3.53-2.29,7.78-5.25,11.28-7.72
	c1.99,2.62,4.12,4.14,6.09,4.94c0.31,0,0.62-0.01,0.93-0.02h0.01C401.34,666.78,401.77,667.97,402.23,669.23z"/>
<path fill="#FFFFFF" stroke="#000000" stroke-miterlimit="10" d="M592.26,824.93c-5.56-0.67-9.6-7.49-13.95-10.9
	c-4.36-3.41-6.83-7.39-10.43-18.19c-2.68-8.05-6.52-20-8.31-25.56c7.03,3.58,14.59,7.48,21.26,10.95
	c3.92,13.59,7.28,29.31,9.98,32.8c-1.48,2.22,1.3,10.47,1.44,10.88C592.26,824.92,592.26,824.93,592.26,824.93z"/>
<path fill="#FFFFFF" stroke="#000000" stroke-miterlimit="10" d="M693.89,881.61h-87.22c-17.67-35.31-46.25-59.34-48.07-61.89
	c-1.56-2.2-11.92-43.4-15.47-57.66c4.39,2.13,10.21,5.04,16.44,8.21v0.01c1.79,5.56,5.63,17.51,8.31,25.56
	c3.6,10.8,6.07,14.78,10.43,18.19c4.35,3.41,8.39,10.23,13.95,10.9c6.14,6.52,12.63-11.02,27.92-10.14
	c10.77,0.62,28.9,1.64,47.63-1.27h0.01c6.41,16.12,16.81,28.82,22.4,36.13C697.17,858.75,693.89,881.61,693.89,881.61z"/>
<path fill="#FFFFFF" stroke="#000000" stroke-miterlimit="10" d="M487.27,860.26h-14.73l-0.85-60.66l-0.18-12.85
	c4.5-0.04,9.84-0.06,15.02-0.06l0.12,12.17L487.27,860.26z"/>
<path fill="#FFFFFF" stroke="#000000" stroke-miterlimit="10" d="M606.67,881.61H365.72c0,0,9.6-51.03,28.29-64.67
	c18.7-13.65,43.96-37.64,45.98-47.62c0,0,0.02-0.13,0.05-0.4c0.91-6.33,12.39-87.03,17.18-117.39l54.28-7.66
	c4.38,18.64,14.53,59,22.07,66.93c-2.08-0.63-3.85-1.3-5.16-1.99c-9.35-4.93-11.24-13.52-16.29-15.28
	c-1.96-0.69-7.31-1.51-13.2-2.27v-4.93l4.54-4.46v-12.88h-21.88v13.07l2.84,3.03v4.48c-3.48-0.38-5.97-0.63-6.35-0.69
	c-1.32-0.19-5.68-1.7-7.2,0c-1.51,1.71-6.34,8.53,0.76,12.98c-2.37,1.8-4.07,5.02-4.55,8.43c-0.47,3.42,3.7,8.82,3.7,8.82
	s-3.51,3.78-2.84,8.43c0.66,4.64,3.79,7.58,3.79,7.58s-3.41,3.6-2.94,6.82c0.47,3.22,6.06,9.06,11.37,11.08
	c0.17,0.07,0.38,0.13,0.63,0.19v13.58h-13.74c-7.1,0-9.88,4.29-10.77,9.22c-0.88,4.93,1.14,10.86,15.16,10.74h0.07l0.18,12.85
	c-4.84,0.03-11.04,0.3-15.59,0.49c-8.13,0.33-19.9-5.48-19.9-5.48s10.11,11.72,16.67,12.72c6.57,1.01,14.4,7.33,17.5,9.61
	c3.11,2.27-6.13,0.25-8.65-0.51c-2.53-0.76-5.06,0.76-19.71,3.03c-14.65,2.28-9.35,4.8-12.29,4.46c-2.93-0.33-10.95-0.67-27.49-5.72
	c-16.54-5.05,0,2.27,0,2.27s2.14,2.78,15.51,7.33s9.62,4.04,22.32,3.79s16.1,6.06,14.58,5.3c-1.51-0.75-5.3,1.52-11.37,1.77
	c-6.06,0.26-11.87,7.08-19.45,8.85c-7.58,1.76-10.1,1.26-19.96-1.52c-9.85-2.78-10.29-3.03-10.29-3.03s8.27,5.81,10.8,6.82
	c2.52,1.01,8.34,5.81,31.32,10.48c22.99,4.67,2.78-0.88,14.4,0.63c11.63,1.52,0,0-2.02,5.56s3.79,3.79,9.15,6.32
	c5.36,2.52,6.52,2.78,16.5,2.86c9.98,0.09,6.94-1.09,13.55-0.34c6.61,0.76,4.76,0,6.78,0c2.02,0,20.21-5.05,28.55-8.84
	c8.34-3.79,14.15,0.76,19.33,0c5.18-0.76,6.44-1.26,4.16-2.27c-2.27-1.01-5.81-2.78-6.82-5.31c-1.01-2.52-8.59-9.6-12.12-13.89
	c-3.54-4.3-6.57-1.52-8.6-2.27c-2.04-0.76-6.56-7.58-7.05-13.39s-2.54-5.06-3.39-5.4c-0.85-0.33-0.92-2.94,2.11-3.19
	c3.03-0.26,1.77,2.27,6.57,5.66c4.8,3.38,5.56,4.19,13.39,4.95c6.61,0.63,8.54,2.53,8.98,3.11c-0.34-0.57-1.5-2.71-3.17-8.06
	c-2.02-6.47-4.55-0.11-9.85-1.46c-5.31-1.35-3.79-0.92-6.14-4.71c-2.35-3.79-3.72-3.03-6.46-5.46c-2.74-2.43-5.43-1.24-5.43-1.24
	s3.88-6.18,3.39-7.95c-0.49-1.77,0.99-1.77,4.53-6.57c3.54-4.8,1.77-0.51,5.56-1.4c3.79-0.88,14.4-6.38,14.4-6.38s-7.58-0.3-12.05,0
	c-4.48,0.31-11.45,0.71-13.97,0.07c-2.53-0.64-5.05,3.42-7.29,4.93l-1.29,0.21l-0.09-9.71c3.87,0.01,6.39,0.03,6.39,0.03
	s9.6-0.76,10.74-8.91c1.14-8.15-6.44-9.85-8.9-10.42c-2.47-0.57-19.52-0.63-19.52-0.63c5.63,0,9.98,0,9.98,0v-11.88
	c13.9,0.83,30.79,1.82,36.63,4.17c1.39,0.56,3.65,1.61,6.51,2.98c3.55,14.26,13.91,55.46,15.47,57.66
	C560.42,822.27,589,846.3,606.67,881.61z"/>
<path fill="#FFFFFF" stroke="#000000" stroke-miterlimit="10" d="M503.46,668.99v12.88l-4.54,4.46v4.93
	c-5.02-0.65-10.44-1.26-14.5-1.69v-4.48l-2.84-3.03v-13.07H503.46z"/>
<path fill="#FFFFFF" stroke="#000000" stroke-miterlimit="10" d="M509.53,767.42c-2.47-0.57-19.52-0.63-19.52-0.63h-22.96
	c-7.1,0-9.88,4.29-10.77,9.22c-0.88,4.93,1.14,10.86,15.16,10.74h0.07c4.5-0.04,9.84-0.06,15.02-0.06c5.51,0,10.84,0.02,14.77,0.03
	c3.87,0.01,6.39,0.03,6.39,0.03s9.6-0.76,10.74-8.91C519.57,769.69,511.99,767.99,509.53,767.42z M464.24,781.38
	c-2.75,0-4.99-2.23-4.99-4.99c0-2.76,2.24-4.99,4.99-4.99c2.76,0,4.99,2.23,4.99,4.99C469.23,779.15,467,781.38,464.24,781.38z
	 M479.15,781.82c-3,0-5.43-2.43-5.43-5.43s2.43-5.43,5.43-5.43s5.43,2.43,5.43,5.43S482.15,781.82,479.15,781.82z M494.05,781.82
	c-3,0-5.43-2.43-5.43-5.43s2.43-5.43,5.43-5.43s5.43,2.43,5.43,5.43S497.05,781.82,494.05,781.82z M508.11,781.82
	c-3,0-5.43-2.43-5.43-5.43s2.43-5.43,5.43-5.43s5.43,2.43,5.43,5.43S511.11,781.82,508.11,781.82z"/>
<path fill="#FFFFFF" stroke="#000000" stroke-miterlimit="10" d="M499.99,754.91v11.88c0,0-4.35,0-9.98,0h-9.22v-13.58
	C483.62,753.92,491.21,754.39,499.99,754.91z"/>
<path fill="#FFFFFF" stroke="#000000" stroke-miterlimit="10" d="M559.57,770.28v-0.01c-6.23-3.17-12.05-6.08-16.44-8.21
	c-2.86-1.37-5.12-2.42-6.51-2.98c-5.84-2.35-22.73-3.34-36.63-4.17c-8.78-0.52-16.37-0.99-19.2-1.7c-0.25-0.06-0.46-0.12-0.63-0.19
	c-5.31-2.02-10.9-7.86-11.37-11.08c-0.47-3.22,2.94-6.82,2.94-6.82s-3.13-2.94-3.79-7.58c-0.67-4.65,2.84-8.43,2.84-8.43
	s-4.17-5.4-3.7-8.82c0.48-3.41,2.18-6.63,4.55-8.43c-7.1-4.45-2.27-11.27-0.76-12.98c1.52-1.7,5.88-0.19,7.2,0
	c0.38,0.06,2.87,0.31,6.35,0.69c4.06,0.43,9.48,1.04,14.5,1.69c5.89,0.76,11.24,1.58,13.2,2.27c5.05,1.76,6.94,10.35,16.29,15.28
	c1.31,0.69,3.08,1.36,5.16,1.99c8.1,2.48,20.89,4.52,29.18,5.68c2.61,10.21,11.57,44.81,15.74,57.19c0.8,2.37,1.58,4.92,2.34,7.56
	C574.16,777.76,566.6,773.86,559.57,770.28z"/>
<path fill="#FFFFFF" stroke="#000000" stroke-miterlimit="10" d="M596.07,709.75c-3.4,0.65-5.96,1.82-7.7,2.86
	c-4.45-6.64-8.45,0.34-15.5-0.39c-7.32-0.76-10.86,1.39-10.86,1.39s0.27,1.05,0.74,2.87c-8.29-1.16-21.08-3.2-29.18-5.68
	c-7.54-7.93-17.69-48.29-22.07-66.93l14.61-2.06l0.47,3.4c0,0,1.89,2.65,5.11,2.75c1.91,0.05,19.2-2.19,32.96-4.02
	c-3.15,8.73-8.86,30.09,5.7,40.49C587.13,696.41,593.9,701.59,596.07,709.75z"/>
<path fill="#FFFFFF" stroke="#000000" stroke-miterlimit="10" d="M631.52,704.21c-9.57-0.65-10.85,7.71-24.41,5.51
	c-4.35-0.71-8.02-0.54-11.04,0.03c-2.17-8.16-8.94-13.34-25.72-25.32c-14.56-10.4-8.85-31.76-5.7-40.49
	c9.46-1.26,17.26-2.33,17.26-2.33s-1.01-4.98-2.35-12.46l7.62-1.43c1.55,4.84,3.63,9.09,3.63,9.09s23.59,1.58,34.16,1.24
	c1.54,12.2,4.07,41.61-3.81,62.36C626.32,700.35,629.31,701.53,631.52,704.21z"/>
<path fill="#FFFFFF" stroke="#000000" stroke-miterlimit="10" d="M391.25,656.27c-4.5-2.73-7.91-7.55-10.51-13.89
	c-1.21-2.94-2.24-6.2-3.13-9.74c-1.32-5.27-2.32-11.15-3.09-17.45c-0.75-6.14-1.28-12.68-1.68-19.46c-0.4-6.88-0.66-14-0.87-21.19
	c-0.08-2.67-0.12-5.19-0.14-7.57c-0.14-18.65,1.48-28.86,2.86-34.15c2.5-0.84,5.09-1.56,7.46-1.78c-2.42,8.22-4.35,19.79-4.12,29.1
	c0.11,4.4,0.77,12.37,1.71,21.8c2.39,23.82,6.62,56.94,8.52,65.35C389.07,650.89,390.1,653.85,391.25,656.27z"/>
<path fill="#FFFFFF" stroke="#000000" stroke-miterlimit="10" d="M372.84,595.73c-3.98,1.5-10.13,3.56-13.15,3.22l0.37-1.76
	c4.68-7.24,9.3-21.72,11.77-30.22c0.02,2.38,0.06,4.9,0.14,7.57C372.18,581.73,372.44,588.85,372.84,595.73z"/>
<path fill="#FFFFFF" stroke="#000000" stroke-miterlimit="10" d="M374.52,615.19c-6.1,2.02-12.91,2.17-16.37,2.09
	c-1.43-0.03-2.29-0.11-2.29-0.11l3.83-18.22c3.02,0.34,9.17-1.72,13.15-3.22C373.24,602.51,373.77,609.05,374.52,615.19z"/>
<path fill="#FFFFFF" stroke="#000000" stroke-miterlimit="10" d="M377.61,632.64c-6.47,3.98-18.68,9.16-18.68,9.16
	s-1.3-1.09-2.75-2.36c-1.38-1.21-2.9-2.58-3.54-3.32c-1.06-1.22,3.61-13.86,5.51-18.84c3.46,0.08,10.27-0.07,16.37-2.09
	C375.29,621.49,376.29,627.37,377.61,632.64z"/>
<path fill="#FFFFFF" stroke="#000000" stroke-miterlimit="10" d="M380.74,642.38c-5.83,1.32-20.4,4.49-27.35,4.87
	c-2.85,0.15-4.42-0.17-3.59-1.28c1.87-2.5,4.45-4.89,6.38-6.53c1.45,1.27,2.75,2.36,2.75,2.36s12.21-5.18,18.68-9.16
	C378.5,636.18,379.53,639.44,380.74,642.38z"/>
<path fill="#FFFFFF" stroke="#000000" stroke-miterlimit="10" d="M526.11,641.81l-14.61,2.06l-54.28,7.66l-26.54,3.75l-10.4-75.06
	c0,0,0-0.14,0-0.41c0.43,0.12,0.86,0.26,1.27,0.41c10.2,0,81.29-1.57,95.85-1.89L526.11,641.81z"/>
<path fill="#FFFFFF" stroke="#000000" stroke-miterlimit="10" d="M431.46,660.94c0,0-12.07,3.86-27.47,4.61
	c-1,0.05-2.01,0.09-3.04,0.1h-0.01c-0.31,0.01-0.62,0.02-0.93,0.02c-1.97-0.8-4.1-2.32-6.09-4.94c-0.93-1.23-1.83-2.7-2.67-4.46
	c-1.15-2.42-2.18-5.38-2.99-8.98c-1.9-8.41-6.13-41.53-8.52-65.35c7.77-1.82,28.04-5.89,40.54-2.14v0.01c0,0.27,0,0.41,0,0.41
	l10.4,75.06L431.46,660.94z"/>
<path fill="#FFFFFF" stroke="#000000" stroke-miterlimit="10" d="M393.92,660.73c-3.5,2.47-7.75,5.43-11.28,7.72
	c-1.7,1.1-3.22,2.05-4.42,2.72c-6.44,3.6-12.5-3.98-12.5-3.98c-0.23-0.18-0.47-0.37-0.71-0.6c-4.41-4-9.58-14.82-11.62-19.34
	c6.95-0.38,21.52-3.55,27.35-4.87c2.6,6.34,6.01,11.16,10.51,13.89C392.09,658.03,392.99,659.5,393.92,660.73z"/>
<path fill="#FFFFFF" stroke="#000000" stroke-miterlimit="10" d="M487.36,274.88c-0.76,3.51-5.37,7.89-5.37,7.89
	c-9.67-8.71-17.75-26.55-17.75-26.55l2.99,25.73c0,0-10.19-15.69-8.1-23.83c2.08-8.15,0.38-10.24,3.79-16.11
	c3.41-5.87,10.42-17.81,10.61-25.2c0.19-7.39-2.97-28.23-2.97-28.23s7.32,14.4,8.46,31.07c1.14,16.68-1.89,23.5,0,28.23
	c1.9,4.74,2.27,3.79,4.93,9.1C486.6,262.28,488.12,271.36,487.36,274.88z"/>
<path fill="#FFFFFF" stroke="#000000" stroke-miterlimit="10" d="M472.19,312.19c-2.92,0.71-11.36,2.37-14.01-1.21
	c-3.22-4.36-5.31-15.54-5.31-19.52c0-3.98-1.32-9.09-3.41-10.8c-2.08-1.7-7.2-6.06-7.77-8.14c-0.56-2.09-3.03-5.5-2.27-5.69
	c0.76-0.19,12.13,7,13.83,8.05c1.71,1.05,4.74,5.4,4.74,5.4l9.24,1.67l3.33,28.69c0.07-0.02,0.14-0.03,0.22-0.05
	C471.02,311.1,471.46,311.64,472.19,312.19z"/>
<path fill="#FFFFFF" stroke="#000000" stroke-miterlimit="10" d="M518.14,258.54c-2.24-7.37-3.5-13.31-3.5-13.31
	s-2.35,14.12-7.51,26.04c0,0-6.55-13.53-4.35-24.71c2.2-11.18,7.5-11.56,8.64-18.38c1.14-6.82,2.84-11.84-2.84-17.01
	c-5.69-5.16-11.18-12.74-7.96-22.59c1.21-3.71,3.39-10.37,5.64-17.25c-1.92,7.49-3.09,14.74-1.66,18.2
	c2.4,5.81,6.66,12.56,9.96,18.09c1.65,2.76,3.05,5.21,3.87,7.11c2.46,5.68,3.15,15.72,1.48,17.24c-1.67,1.51-1.62,8.71,0.91,12.5
	C523.36,248.26,518.14,258.54,518.14,258.54z"/>
<path fill="#FFFFFF" stroke="#000000" stroke-miterlimit="10" d="M547.23,271.76c0.38,10.55-13.05,14.55-14.82,13.86
	c-0.01,0-0.02-0.01-0.03-0.01c-6.1-3.64-11.12-16.76-14.24-27.07c0,0,5.22-10.28,2.68-14.07c-2.53-3.79-2.58-10.99-0.91-12.5
	c1.67-1.52,0.98-11.56-1.48-17.24c-0.82-1.9-2.22-4.35-3.87-7.11c-0.04-2.96,0.06-6.34,0.46-9.57c1.07-8.56,15.35-30.5,15.35-30.5
	s-5.12,19.89-8.85,29.18c-3.74,9.28,2.6,20.65,2.6,20.65s3.41-7.2,5.49-11.56c2.08-4.36,7.39-7.39,11.56-12.31
	c4.17-4.93,3.22-18.57,3.22-18.57s3.41,9.85,1.52,16.67c-1.9,6.82-10.8,24.25-12.7,33.16c-1.89,8.9,4.36,17.05,10.8,27.76
	c0.19,0.31,0.36,0.61,0.54,0.9C550.24,263.12,546.86,261.46,547.23,271.76z"/>
<path fill="#FFFFFF" stroke="#000000" stroke-miterlimit="10" d="M574.89,256.6c-0.37,2.65-1.13,8.91-6.44,20.65
	c-5.3,11.75-4.33,15.97-4.33,15.97c-6.25-5.17-0.82-24.45-0.6-25.23c-0.41,0.41-12.72,12.95-25.76,18.17
	c-1.86,0.74-3.65,0.47-5.35-0.54c1.77,0.69,15.2-3.31,14.82-13.86c-0.37-10.3,3.01-8.64-2.68-18.33c1.92-3.2,3.85-6.18,4.2-8.2
	c0.76-4.36,2.08-13.07,4.36-17.43c2.27-4.36,3.78-8.15,7.2-19.71c2.93-9.93-0.44-19.3-1.44-21.74c1.11,2.51,5.25,12.12,5.41,16.06
	c0.19,4.55,1.71,25.96-0.37,31.64c-1.74,4.76,0.22,15.75,0.33,16.17c0-0.03-0.05-0.37-0.19-1.1c-1-5.2,3.64-6.35,7.52-14.31
	c1.83-3.77,2.17-9.34,2.01-14.14c0.76,8.16,1.65,18.72,1.31,20.2C574.33,243.34,575.27,253.95,574.89,256.6z"/>
<path fill="none" stroke="#000000" stroke-miterlimit="10" d="M558.87,186.35c-0.03-0.06-0.05-0.12-0.08-0.18
	c-0.05-0.11-0.09-0.2-0.12-0.27"/>
<path fill="#FFFFFF" stroke="#000000" stroke-miterlimit="10" d="M501.97,860.26h-14.7l-0.62-61.4l-0.12-12.17
	c5.51,0,10.84,0.02,14.77,0.03l0.09,9.71L501.97,860.26z"/>
<path fill="#FFFFFF" stroke="#000000" stroke-miterlimit="10" d="M541.93,866.45c-5.18,0.76-10.99-3.79-19.33,0
	c-8.34,3.79-26.53,8.84-28.55,8.84c-2.02,0-0.17,0.76-6.78,0c-6.61-0.75-3.57,0.43-13.55,0.34c-9.98-0.08-11.14-0.34-16.5-2.86
	c-5.36-2.53-11.17-0.76-9.15-6.32s13.65-4.04,2.02-5.56c-11.62-1.51,8.59,4.04-14.4-0.63c-22.98-4.67-28.8-9.47-31.32-10.48
	c-2.53-1.01-10.8-6.82-10.8-6.82s0.44,0.25,10.29,3.03c9.86,2.78,12.38,3.28,19.96,1.52c7.58-1.77,13.39-8.59,19.45-8.85
	c6.07-0.25,9.86-2.52,11.37-1.77c1.52,0.76-1.88-5.55-14.58-5.3s-8.95,0.76-22.32-3.79s-15.51-7.33-15.51-7.33s-16.54-7.32,0-2.27
	c16.54,5.05,24.56,5.39,27.49,5.72c2.94,0.34-2.36-2.18,12.29-4.46c14.65-2.27,17.18-3.79,19.71-3.03
	c2.52,0.76,11.76,2.78,8.65,0.51c-3.1-2.28-10.93-8.6-17.5-9.61c-6.56-1-16.67-12.72-16.67-12.72s11.77,5.81,19.9,5.48
	c4.55-0.19,10.75-0.46,15.59-0.49l0.85,60.66h29.43l-0.58-63.83l1.29-0.21c2.24-1.51,4.76-5.57,7.29-4.93
	c2.52,0.64,9.49,0.24,13.97-0.07c4.47-0.3,12.05,0,12.05,0s-10.61,5.5-14.4,6.38c-3.79,0.89-2.02-3.4-5.56,1.4
	c-3.54,4.8-5.02,4.8-4.53,6.57c0.49,1.77-3.39,7.95-3.39,7.95s2.69-1.19,5.43,1.24c2.74,2.43,4.11,1.67,6.46,5.46
	c2.35,3.79,0.83,3.36,6.14,4.71c5.3,1.35,7.83-5.01,9.85,1.46c1.67,5.35,2.83,7.49,3.17,8.06c-0.44-0.58-2.37-2.48-8.98-3.11
	c-7.83-0.76-8.59-1.57-13.39-4.95c-4.8-3.39-3.54-5.92-6.57-5.66c-3.03,0.25-2.96,2.86-2.11,3.19c0.85,0.34,2.9-0.41,3.39,5.4
	s5.01,12.63,7.05,13.39c2.03,0.75,5.06-2.03,8.6,2.27c3.53,4.29,11.11,11.37,12.12,13.89c1.01,2.53,4.55,4.3,6.82,5.31
	C548.37,865.19,547.11,865.69,541.93,866.45z"/>
<path fill="#FFFFFF" stroke="#000000" stroke-miterlimit="10" d="M472.94,478.74c-1.99,4.5-4.14,9.59-5.92,15.33
	c-2.49,8.07-4.63,20.67-5.94,30.15l-8.1-0.22c0.35-1.94,0.65-4.13,0.65-6.04c0-4.66-0.5-4.18-4.8-12.52
	c-4.29-8.34-3.79-34.86-3.57-38.9c0.22-4.05,2.81-5.56,5.2-10.56c2.38-4.99,3.17-9.65,2.41-20.89c-0.52-7.83,5.2-17.83,8.73-23.18
	c0.99,7.45,1.88,15.11,1.88,18.63c0,7.95,6.57,25.01,7.08,26.52C470.84,457.92,471.81,468.66,472.94,478.74z"/>
<path fill="#FFFFFF" stroke="#000000" stroke-miterlimit="10" d="M490.01,517.96v7.06l-28.93-0.8c1.31-9.48,3.45-22.08,5.94-30.15
	c1.78-5.74,3.93-10.83,5.92-15.33c0.88,7.8,1.84,15.2,2.67,17.35C477.04,499.8,482.97,511.02,490.01,517.96z"/>
<path fill="#FFFFFF" stroke="#000000" stroke-miterlimit="10" d="M597.13,529.19c0,0,4.61-9.22,4.58-16.61
	c-0.04-7.39-8.12-19.26-8.12-19.26s-3.54,4.29-5.81,9.85c-2.27,5.56-7.58,12.12-4.3,19.7c-6.82-4.8-5.17-17.54-4.29-19.95
	c0.17-0.47,0.38-1.26,0.61-2.25c1.83-5.16,0.75-11.4-1.28-17.19c-1.31-3.75-3.01-7.3-4.57-10.26c-3.85-7.29-1.49-11.71,1.93-25.23
	c0.11-0.44,0.23-0.89,0.34-1.35c3.6-14.59,0.95-14.97,1.14-21.61c0.13-4.47-1.89-10.39-3.2-13.62c0.31-1.28,0.57-2.41,0.73-3.27
	c0.05-0.25,0.09-0.52,0.11-0.81c0.17-1.76-0.05-4.16-0.42-6.6c2.06,0.57,5.42,1.85,5.81,4.21c0.57,3.43,1.52,8.17,3.6,11.2
	c2.08,3.03,3.03-1.33,3.22,5.49s0.19,15.35,0,19.14c-0.19,3.79,2.65,6.25,5.12,15.44c1.39,5.19,1.49,11,1.53,15.47
	c0.03,3.44,0.01,6.1,0.52,7.06c1.17,2.2,1.49,8.6,4.78,11.05c0.25,0.45,8.33,14.73,8.83,21.83
	C608.49,518.83,597.13,529.19,597.13,529.19z"/>
<path fill="#FFFFFF" stroke="#000000" stroke-miterlimit="10" d="M628.19,516.34c-0.31-0.2-0.62-0.4-0.92-0.59
	c-0.59-4.92-0.34-12.15-6.65-15.61c-2.79-1.53-5.41-3.34-7.67-5.12c2.67,3.13,5.28,6.56,6.41,8.91c1.26,2.63,1.89,5.67,2.21,8.21
	c0.39,3.08,0.31,5.43,0.31,5.43s-1.9-3.73-4.16-7.86c-2.33-4.25-5.04-8.92-6.45-10.33c-2.72-2.72-11.7-9.29-12.11-9.59
	c-3.29-2.45-3.61-8.85-4.78-11.05c-0.51-0.96-0.49-3.62-0.52-7.06c-0.04-4.47-0.14-10.28-1.53-15.47
	c-2.47-9.19-5.31-11.65-5.12-15.44c0.19-3.79,0.19-12.32,0-19.14s-1.14-2.46-3.22-5.49c-2.08-3.03-3.03-7.77-3.6-11.2
	c-0.39-2.36-3.75-3.64-5.81-4.21c-0.35-2.35-0.85-4.74-1.28-6.61c2.3-1.48,4.74-3.09,7.31-4.83c0.97,0.95,1.94,1.94,2.79,2.89
	c0.94,1.04,1.74,2.03,2.26,2.86c2.37,3.79,1.61,10.03,5.15,13.1c3.54,3.07,6.06,1.05,7.33,8.88c1.26,7.83-3.54,24-1.27,28.3
	c2.28,4.29,7.08,15.17,7.08,17.31c0,2.14-2.53,10.22,0,13c2.52,2.78,10.86,14.91,14.65,18.19
	C622.23,496.97,629.55,498.71,628.19,516.34z"/>
<path fill="#FFFFFF" stroke="#000000" stroke-miterlimit="10" d="M579.8,500.67c-6.58,3.92-20.39,6.3-31.14,9.92
	c8.3-21.13,2.74-56.18,2.74-56.18l10.23,11.56c0,0-0.38-6.44,0-10.8s7.96,2.65,7.96,2.65s-0.57-6.44-2.46-14.78
	c3.79-7.2,2.84-16.1,2.84-16.1s1.93-6.71,3.42-12.46c0.28-1.08,0.54-2.11,0.77-3.07c1.31,3.23,3.33,9.15,3.2,13.62
	c-0.19,6.64,2.46,7.02-1.14,21.61c-0.11,0.46-0.23,0.91-0.34,1.35c-3.42,13.52-5.78,17.94-1.93,25.23
	c1.56,2.96,3.26,6.51,4.57,10.26C580.55,489.27,581.63,495.51,579.8,500.67z"/>
<path fill="#FFFFFF" stroke="#000000" stroke-miterlimit="10" d="M554.2,433.99l-0.06-0.01c0.22-1.79-0.14-3.59-1.06-5.14
	c-0.25-0.42-0.54-0.82-0.87-1.2c-0.44-0.51-0.95-0.97-1.53-1.38c-1.1-0.78-2.46-1.15-3.99-1.23c-5.38-0.33-12.69,2.88-16.61,4.28
	c-0.46,0.17-0.92,0.31-1.38,0.42h-0.01c-0.53,0.14-1.05,0.26-1.56,0.35c-0.26,0.05-0.51,0.09-0.76,0.13
	c-2.11,0.31-3.98,0.27-5.16,0.18l-0.25-0.02l-0.9-0.1l-0.09-0.01l-0.06-0.01c4.02-0.85,10.46-1.99,17.79-8.62
	C545.02,415,558.71,420.95,554.2,433.99z"/>
<path fill="#FFFFFF" stroke="#000000" stroke-miterlimit="10" d="M509.27,429.53l-4.63,0.42c-1.61-0.01-3.31-0.21-4.51-0.87
	c-0.05-0.02-0.09-0.04-0.14-0.07c-2.05-1.21-7.84-3.91-12.55-5.19c-2.12-0.57-4.02-0.85-5.26-0.58c-3.05,0.68-7.43,4.53-7.16,9.27
	c-1.45-9.22,4.82-15.42,12.91-14.4C494.18,418.9,502.18,428.4,509.27,429.53z"/>
</svg>
