<?xml version="1.0" encoding="utf-8"?>
<!-- Generator: Adobe Illustrator 25.2.0, SVG Export Plug-In . SVG Version: 6.00 Build 0)  -->
<svg version="1.1" baseProfile="tiny" id="Layer_1" xmlns="http://www.w3.org/2000/svg" xmlns:xlink="http://www.w3.org/1999/xlink"
	 x="0px" y="0px" viewBox="0 0 1000 1000" overflow="visible" xml:space="preserve">
<path fill="#FFFFFF" stroke="#000000" stroke-miterlimit="10" d="M20.1,684.4c0,0,448.1,151.9,463.6,150.5
	c15.5-1.4,497.7-91.1,497.7-91.1L337.6,641.6L20.1,684.4z"/>
<path fill="#FFFFFF" stroke="#000000" stroke-miterlimit="10" d="M662.2,316.6v65.8c-4.4-0.7-8.7-1.3-13-1.9v-55.7l-77.9-17.6
	c0,0-4.3,9.5-17.1,8.6c-12.8-1-20-16.6-20-16.6l-89.8-18.1l-4.8,4.3l-10.3,319l-7.5,1.2c1.8-59.5,4.4-136.1,4.9-139
	c0.7-3.3-4.6-5.1-7.8-5.8l2.5-65.8l2.3-61.7l1.9-49.5l0.7-19.5L662.2,316.6z"/>
<path fill="#FFFFFF" stroke="#000000" stroke-miterlimit="10" d="M421.6,394.9l-2.5,65.8l-0.2,5l-5.3,141.1l-0.1,3.2l-29,0.5
	l-186.5,3.1l-18.3,0.3l-25.4,0.4l-15.7,0.3l-42,0.7l-3.5,0.1l7.6-120.3c8.9,20.8,32.6,64,76.4,66.5c57.9,3.3,139.6-125,184.3-149.2
	C391.9,395.6,411.6,394.2,421.6,394.9z"/>
<path fill="#FFFFFF" stroke="#000000" stroke-miterlimit="10" d="M104.7,429.6l-3.6,57.6v0c15,9.7,63.5,37.6,103.2,21
	c46.9-19.5,122-166.6,219.6-175l1.9-49.5L104.7,429.6z M216.2,453.5c-2.4,19.1-12.6,33.6-22.9,32.4c-10.3-1.3-16.7-17.8-14.3-37
	c2.4-19.2,12.7-33.7,22.9-32.4C212.2,417.8,218.6,434.3,216.2,453.5z"/>
<polygon fill="#FFFFFF" stroke="#000000" stroke-miterlimit="10" points="426.5,264.2 425.8,283.7 104.7,429.6 105.5,416.7 
	426.3,264.2 "/>
<path fill="#FFFFFF" stroke="#000000" stroke-miterlimit="10" d="M649.3,324.8v55.7c-7.4-1-14.4-1.8-20.9-2.4
	c-56.3-5.2-40.4-5.5-78.9-1.4c-38.5,4-67.7,16.4-74.8,18.8c-5,1.7-10,5.7-13.2,14.4c-1.4,3.6-2.5,8-3.2,13.4c0,0.3-0.1,0.6-0.1,1v0
	c-3.3,4-9.2,14.9-10.6,43c-1.7,34.6-2.6,48.9,4,54v0c-0.6,12.6-0.8,21.7-0.4,23.4c4.3,5-0.2,25-0.2,25s-4.3,2.3-4.7,12.5
	c-2.9,0.4-6.6,1.3-6.6,1.3l-0.8,19.4l-9.4,1.5l10.3-319l4.8-4.3l89.8,18.1c0,0,7.1,15.7,20,16.6c12.8,0.9,17.1-8.6,17.1-8.6
	L649.3,324.8z"/>
<path fill="#FFFFFF" stroke="#000000" stroke-miterlimit="10" d="M796.2,510.2c0.5-19.3-9.9-67-13.1-71.3
	c-3.5-4.6-48.2,2.1-54.5,6.7c-0.5,0.3-0.9,1-1.2,1.8c-7.1-7.9-26-17.2-65.2-25.3c-36.6-7.5-75.1-15.3-83.9-17.1
	c0.7-12.7,5.2-17.1,15.6-18c11.4-1,102.9,14,144,20.2c40.5,6.1,56.5,15.6,57,15.9c0,0,0,0,0,0s18.1,72.6,19.9,98.2
	c0,0.1,0,0.3,0,0.4C809.5,516.2,803.5,512.6,796.2,510.2z"/>
<path fill="#FFFFFF" stroke="#000000" stroke-miterlimit="10" d="M578.4,405c-0.1,1.2-0.1,2.5-0.1,3.9c0,13.9,3.6,50.2,4.5,63.6
	c0.1,1.7,0.2,3,0.2,3.9c0.2,7.8-1.4,20.5,19.5,23.2c0.5,0.1,1,0.1,1.5,0.2l3.7,10.7c-10.1-7.5-24.5-8.5-31.3-8.5
	c0.5-26.8-3.1-93.4-5.6-102.1c-2.6-9-10-11.4-23-9.5c-7.8,1.1-33.1,7.6-52.2,12.6c-12.8,3.4-22.9,6.1-22.9,6.1h0l-11.3,0.6
	c3.3-8.7,8.2-12.7,13.2-14.4c7.1-2.4,36.4-14.7,74.8-18.8c38.5-4,22.6-3.8,78.9,1.4c6.5,0.6,13.5,1.4,20.9,2.4
	c4.2,0.6,8.6,1.2,13,1.9c54.1,8.3,118.4,23.4,122.5,25.4c4.9,2.3,10.1,15,10.2,15.4c-0.5-0.3-16.5-9.8-57-15.9
	c-41.1-6.2-132.6-21.2-144-20.2C583.5,387.9,579.1,392.3,578.4,405z"/>
<path fill="#FFFFFF" stroke="#000000" stroke-miterlimit="10" d="M562.9,581l-63.2,2.7h0c-18.1-1.2-52.1-1.6-53.4-1.6
	c0.4-10.2,4.7-12.5,4.7-12.5s12.5,0.8,29.4,2c1.5,0.1,3,0.2,4.5,0.3C512.7,574,549.7,577.4,562.9,581z"/>
<path fill="#FFFFFF" stroke="#000000" stroke-miterlimit="10" d="M570.9,399.9c-2.6-9-10-11.4-23-9.5c-7.8,1.1-33.1,7.6-52.2,12.6
	c-0.7,3.1-1.4,7-2,11.4c-0.5,3.7-1,7.8-1.4,12.1c-0.4,3.6-0.7,7.4-1,11.2c-0.4,4.9-0.7,9.8-1,14.6c-0.3,5-0.6,9.9-0.8,14.2
	c-0.5,11.4-0.8,19.6-0.8,19.6s-1-0.2-2.5-0.4l-1.4,86.2c27.9,2.1,64.9,5.5,78.1,9.1h0c0.6,0.1,1.1,0.3,1.5,0.5
	c4.4,1.4,7.8,2.5,10.3,3.4c0.3-27.1,0.9-63.8,1.5-79.4c0-1.1,0.1-2.2,0.1-3.4C577,475.2,573.4,408.5,570.9,399.9z M563.5,499.4
	l-66.3-10.7c0,0,3.1-46.4,6.4-67c0.8-5.1,3.5-8,4-9c2.6-5,49.2-15.2,54.4-10.2c5.2,5,5.5,78.4,5.5,88.6
	C567.5,501.3,563.5,499.4,563.5,499.4z"/>
<path fill="#FFFFFF" stroke="#000000" stroke-miterlimit="10" d="M567.5,491.1c0,10.2-4,8.3-4,8.3l-66.3-10.7c0,0,3.1-46.4,6.4-67
	c0.8-5.1,3.5-8,4-9c2.6-5,49.2-15.2,54.4-10.2C567.3,407.5,567.5,480.9,567.5,491.1z"/>
<path fill="#FFFFFF" stroke="#000000" stroke-miterlimit="10" d="M814.9,521.8c-2.4,0.5-47.1-0.7-87.5-5.7
	c-39.5-4.9-101.1-13.4-123.5-16.3c-0.5-0.1-1-0.1-1.5-0.2c-20.9-2.7-19.2-15.3-19.5-23.2c0-0.9-0.1-2.2-0.2-3.9c0.9,0,2,0,3.3,0.1
	c8.7,0.3,25,1,43.8,2.9c31.4,3.3,70,10.1,92.6,24.1c2.8,0.4,5.5,0.8,8.1,1.1c31,4,51,4.5,65.7,9.5
	C803.5,512.6,809.5,516.2,814.9,521.8z"/>
<path fill="#FFFFFF" stroke="#000000" stroke-miterlimit="10" d="M629.8,475.5c-18.8-2-35-2.7-43.8-2.9c2.8-3.1,10.5-10.3,24.3-10.2
	C622.5,462.4,628.1,470.6,629.8,475.5z"/>
<path fill="#FFFFFF" stroke="#000000" stroke-miterlimit="10" d="M819.3,530.5c-1.6,0.8-8.6,6.2-46.5,2.8
	c-38-3.4-98.2-12.1-119-12.3c-18.3-0.2-39.9-8.2-44.9-10.1c-0.7-0.3-1.1-0.4-1.1-0.4l-3.7-10.7c22.3,2.9,84,11.4,123.5,16.3
	c40.4,5,85.1,6.2,87.5,5.7c0-0.1,0-0.3,0-0.4C816.5,523.3,818.4,526.4,819.3,530.5z"/>
<path fill="#FFFFFF" stroke="#000000" stroke-miterlimit="10" d="M825.6,597.1c-0.6,20.3-4.9,24.2-6.1,24.8
	c-0.2,0.1-0.3,0.1-0.3,0.1s-3.6,0.8-10.2,1.7c7.9-20.9-3.4-62.5-3.4-62.5l-46.8-2.4c0,0-3.4,4-8.9,7.3c-3.7,2.2-8.3,4-13.5,3.9
	c-5.8-0.1-12.7-3.3-18.5-6.9h0c-7.2-4.3-12.7-9.1-12.7-9.1l-61.1-5L632.9,599l6.8,13.1l0,0c0.7,1,1.4,2.4,2.1,3.8
	c-16.4-2.2-29-4.3-33.7-6c0.3-1.2,0.6-2.7,0.8-4.5c1.9-14.9,1.4-48.7,1.7-67.8c0.2-14.4-1-22.8-1.8-26.7c5,1.9,26.6,9.9,44.9,10.1
	c20.9,0.2,81.1,8.9,119,12.3c38,3.4,44.9-2,46.5-2.8C828.1,532.4,826.3,573.6,825.6,597.1z"/>
<path fill="#FFFFFF" stroke="#000000" stroke-miterlimit="10" d="M805.7,561.2l-46.8-2.4c0,0-3.4,4-8.9,7.3l53.9,3.4l1.7,21.6h-14.5
	c0,0,0,0-2.9-3.3c-16.6,1.4-110.9-6.4-110.9-6.4l-2,1.9l-29.5-4.5l3.3-21.2l68.6,5.5c-7.2-4.3-12.7-9.1-12.7-9.1l-61.1-5L632.9,599
	l6.8,13.1l0,0c0.7,1,1.4,2.4,2.1,3.8c31.2,4.1,76,8.4,104.2,10c28.1,1.6,50.7-0.5,63-2.2C816.9,602.8,805.7,561.2,805.7,561.2z
	 M807.3,621.5l-16.6,1.2l-5-5.7l-108.3-4.9l-3.6,3.1L646,613l-4-7.7l2.1-17.5c0.7,0,63.2,6.4,103.4,8.6c40.2,2.1,61.1,1.9,61.1,1.9
	L807.3,621.5z"/>
<path fill="#FFFFFF" stroke="#000000" stroke-miterlimit="10" d="M824.3,623.1c-4,2-11,5.4-14,5.4c-44.7,3.1-146.8-4.4-161.6-5.6v0
	c-1.8-2.3-2.9-3.7-2.9-3.7l-2.9-0.5c-0.3-0.8-0.8-1.8-1.2-2.7c31.2,4.1,76,8.4,104.2,10c28.1,1.6,50.7-0.5,63-2.2
	c6.6-0.9,10.2-1.7,10.2-1.7s0.1,0,0.3-0.1C821,622.4,822.7,622.8,824.3,623.1z"/>
<path fill="#FFFFFF" stroke="#000000" stroke-miterlimit="10" d="M828.4,693.2c-1.9-2.7-14.6-0.4-14.6-0.4s1.7-7.4,6.6-11.9
	c3.3-3,8.2-3.1,11.2-2.8c0.3-1.4,1.6-8.5,1.7-14.5c0-6.8-1.9-39.6-1.9-39.6s-14.9,6.6-16.4,6.6c0.2,3-12.8,28.5-16,31.9l0.7,32.5
	c2.8,0.6,6.5,1.6,6,4.8c16-0.2,24-0.4,26.7-1.4c0.2-0.1,0.3-0.2,0.5-0.5C829.9,696.8,829.8,695.2,828.4,693.2z M806.2,671.8
	c-3.2-0.6,1-9,6.2-17.5c5.2-8.4,8.6-17.9,11.9-18.5c3.3-0.6,5.5-2.4,5.3,0.5c0,1.1,0.1,4.6,0.2,8.8v0c0.2,7.1,0.3,16.1-0.7,18.2
	c-1.1,2.3-7.6,6.1-14.2,7.9h0C811.9,672,808.8,672.3,806.2,671.8z"/>
<path fill="#FFFFFF" stroke="#000000" stroke-miterlimit="10" d="M831.4,624c0,0-14.9,6.6-16.4,6.6c0.2,3-12.8,28.5-16,31.9
	c-3.1,3.3-21.1,0.8-22.4,0.7c6.9-0.3,11.8-0.8,13.5-1.4c7.7-3,15.1-19.3,18.7-28.8c0.7-1.8,1.2-3.3,1.6-4.5c3,0,10-3.4,14-5.4
	C828,623.7,831.4,624,831.4,624z"/>
<path fill="#FFFFFF" stroke="#000000" stroke-miterlimit="10" d="M832.7,697.9c-2.8-1-2.9-2.6-4.3-4.6c-1.9-2.7-14.6-0.4-14.6-0.4
	s1.7-7.4,6.6-11.9c3.3-3,8.2-3.1,11.2-2.8c0,0.2,0,0.2,0,0.2S834.5,694.7,832.7,697.9z"/>
<path fill="#FFFFFF" stroke="#000000" stroke-miterlimit="10" d="M810.3,628.5c-0.4,1.2-0.9,2.7-1.6,4.5c-2.7,0.1-8.7,0.3-17.8,0.4
	c-12,0.1-29.4,0.1-51.5-0.4c-18.5-0.4-37.7-1.7-53.8-3c-14.6-1.2-26.8-2.4-33.9-3.2c-1.1-1.4-2.1-2.7-3-3.8
	C663.5,624,765.6,631.5,810.3,628.5z"/>
<path fill="#FFFFFF" stroke="#000000" stroke-miterlimit="10" d="M790.9,633.3c-0.8,2.1-2.3,5.6-3.2,6c-1.2,0.5-98.5-2.8-100.5-2.8
	c-1.6,0-1.7-4.7-1.6-6.5c-14.6-1.2-26.8-2.4-33.9-3.2c6.6,8.5,17.2,22.2,22.9,29.4c2,2.5,3.3,4.2,3.7,4.6c1.7,1.9,68.4,3.8,98.2,2.5
	h0.1c6.9-0.3,11.8-0.8,13.5-1.4c7.7-3,15.1-19.3,18.7-28.8C806,633.1,800,633.2,790.9,633.3z M792.5,653.4c-0.7,0.7-5,5.2-8.5,5.7
	c-1,0.1-9.7,0.1-21.7-0.1c-1.2,0-2.4,0-3.7,0c-15.3-0.2-34.8-0.6-50.4-0.9c-1.7,0-3.3-0.1-4.9-0.1c-13-0.3-22.4-0.5-22.4-0.5
	s-5.2-5.3-5-7.5c0.2-2.1,4.1-7.3,8.4-7.3c1.2,0,10.3,0.2,22.6,0.6c1.3,0,2.7,0.1,4.1,0.1c15.2,0.5,34.1,1,49.7,1.5
	c1.3,0,2.6,0.1,3.9,0.1c14.4,0.5,24.9,0.8,25.1,0.9C790.4,646.1,793.2,652.7,792.5,653.4z"/>
<path fill="#FFFFFF" stroke="#000000" stroke-miterlimit="10" d="M790.9,633.3c-0.8,2.1-2.3,5.6-3.2,6c-1.2,0.5-98.5-2.8-100.5-2.8
	c-1.6,0-1.7-4.7-1.6-6.5c16.2,1.3,35.3,2.5,53.8,3C761.5,633.4,778.9,633.5,790.9,633.3z"/>
<path fill="#FFFFFF" stroke="#000000" stroke-miterlimit="10" d="M638.1,666.3c-9.6-1.1-18.9-2.4-21.7-3c-6.1-1.2-16.8-13-16.8-13
	v-26.5c0,0,7,1.2,14.8,2.6c0.4,4.9,1.2,13.1,2.5,14.9C618.4,643.3,632,659.3,638.1,666.3z"/>
<path fill="#FFFFFF" stroke="#000000" stroke-miterlimit="10" d="M662.2,667.7c-0.8,1-12.6,0-24.1-1.3h0c-6.2-7.1-19.7-23.1-21.1-25
	c-1.2-1.7-2.1-10-2.5-14.9c9.2,1.7,19.5,3.7,21,4.5C638.4,632.6,663.7,665.9,662.2,667.7z"/>
<path fill="#FFFFFF" stroke="#000000" stroke-miterlimit="10" d="M829.9,645.1L829.9,645.1c-2.8,3-8.8,9.7-10.7,14.1
	c-1.2,2.9-2.9,7.7-4.2,11.9h0c-3.1,0.8-6.2,1.2-8.7,0.7c-3.2-0.6,1-9,6.2-17.5c5.2-8.4,8.6-17.9,11.9-18.5c3.3-0.6,5.5-2.4,5.3,0.5
	C829.6,637.4,829.8,640.9,829.9,645.1z"/>
<path fill="#FFFFFF" stroke="#000000" stroke-miterlimit="10" d="M829.2,663.3c-1.1,2.3-7.6,6.1-14.2,7.9c1.3-4.2,3-9,4.2-11.9
	c1.9-4.4,7.9-11.1,10.7-14.1C830.1,652.2,830.2,661.2,829.2,663.3z"/>
<path fill="#FFFFFF" stroke="#000000" stroke-miterlimit="10" d="M647.8,689.2c-0.5,1.6-25.8,0.9-25.8,0.9s-6.6,4.8-16.9,0
	c-10.3-4.8-7.3-18.9-7.3-18.9s34,4.5,37.8,5C639.3,676.8,648.3,687.6,647.8,689.2z"/>
<path fill="#FFFFFF" stroke="#000000" stroke-miterlimit="10" d="M799,662.5c-3.1,3.3-21.1,0.8-22.4,0.7h-0.1
	c-29.8,1.3-96.5-0.6-98.2-2.5c-0.4-0.4-1.8-2.1-3.7-4.6c-2.2,1.3-4.7,4.2-4.3,10c0.4,5.7,0.3,18.1,0.2,27.6c0.7-0.2,1.4-0.3,2.1-0.3
	c7,0,123,0.7,126,1.4c0.3,0.1,0.7,0.2,1,0.2L799,662.5z M787.6,687.3c-2.9,0.1-96.2-1.3-99.6-1.2c-3.3,0.1-4.3-2.2-4.8-7.3
	c-0.5-5,1-9.1,4.4-8.5c0,0,96.1,1.9,96.9,2.2c0.8,0.4,4.2-0.4,4.6,4.5C789.7,681.9,790.4,687.2,787.6,687.3z"/>
<path fill="#FFFFFF" stroke="#000000" stroke-miterlimit="10" d="M787.6,687.3c-2.9,0.1-96.2-1.3-99.6-1.2c-3.3,0.1-4.3-2.2-4.8-7.3
	c-0.5-5,1-9.1,4.4-8.5c0,0,96.1,1.9,96.9,2.2c0.8,0.4,4.2-0.4,4.6,4.5C789.7,681.9,790.4,687.2,787.6,687.3z"/>
<path fill="#FFFFFF" stroke="#000000" stroke-miterlimit="10" d="M803.9,569.5l-53.9-3.4c-3.7,2.2-8.3,4-13.5,3.9
	c-5.8-0.1-12.7-3.3-18.5-6.9h0l-68.6-5.5l-3.3,21.2l29.5,4.5l2-1.9c0,0,94.3,7.8,110.9,6.4c2.9,3.3,2.9,3.3,2.9,3.3h14.5
	L803.9,569.5z M782.8,581.4c-22,0.7-103.4-7-103.4-7V565l37.7,4.5c0,0,5.1,2.8,16.3,3.7c11.2,0.9,16.4-1.1,16.4-1.1l33,2.3
	C782.8,574.4,783.5,580.5,782.8,581.4z"/>
<path fill="#FFFFFF" stroke="#000000" stroke-miterlimit="10" d="M782.8,581.4c-22,0.7-103.4-7-103.4-7V565l37.7,4.5
	c0,0,5.1,2.8,16.3,3.7c11.2,0.9,16.4-1.1,16.4-1.1l33,2.3C782.8,574.4,783.5,580.5,782.8,581.4z"/>
<path fill="#FFFFFF" stroke="#000000" stroke-miterlimit="10" d="M808.5,598.3l-1.2,23.2l-16.6,1.2l-5-5.7l-108.3-4.9l-3.6,3.1
	L646,613l-4-7.7l2.1-17.5c0.7,0,63.2,6.4,103.4,8.6C787.6,598.5,808.5,598.3,808.5,598.3z"/>
<path fill="#FFFFFF" stroke="#000000" stroke-miterlimit="10" d="M792.5,653.4c-0.7,0.7-5,5.2-8.5,5.7c-1,0.1-9.7,0.1-21.7-0.1
	c0.7-3.2,1.7-10.2,2.3-14c14.4,0.5,24.9,0.8,25.1,0.9C790.4,646.1,793.2,652.7,792.5,653.4z"/>
<path fill="#FFFFFF" stroke="#000000" stroke-miterlimit="10" d="M760.7,645c-0.4,2.5-1.5,10.2-2.1,14c-15.3-0.2-34.8-0.6-50.4-0.9
	c1.5-4.9,2.4-11.3,2.8-14.6C726.2,643.9,745.1,644.5,760.7,645z"/>
<path fill="#FFFFFF" stroke="#000000" stroke-miterlimit="10" d="M706.9,643.3c-0.7,3.5-2.1,10.5-3.6,14.6
	c-13-0.3-22.4-0.5-22.4-0.5s-5.2-5.3-5-7.5c0.2-2.1,4.1-7.3,8.4-7.3C685.6,642.7,694.6,643,706.9,643.3z"/>
<path fill="#FFFFFF" stroke="#000000" stroke-miterlimit="10" d="M711,643.5c-0.4,3.3-1.3,9.7-2.8,14.6c-1.7,0-3.3-0.1-4.9-0.1
	c1.5-4.2,2.9-11.2,3.6-14.6C708.3,643.4,709.6,643.4,711,643.5z"/>
<path fill="#FFFFFF" stroke="#000000" stroke-miterlimit="10" d="M764.6,645.1c-0.5,3.7-1.6,10.8-2.3,14c-1.2,0-2.4,0-3.7,0
	c0.6-3.8,1.7-11.5,2.1-14C762,645,763.3,645,764.6,645.1z"/>
<path fill="#FFFFFF" stroke="#000000" stroke-miterlimit="10" d="M480.3,571.5c-16.9-1.3-29.4-2-29.4-2s4.5-20,0.2-25
	c0,0,24.5,8.8,27.3,15C480.5,563.9,480.5,569,480.3,571.5z"/>
<path fill="#FFFFFF" stroke="#000000" stroke-miterlimit="10" d="M458.1,424.2c-1.7,14.6-5.2,66.2-6.6,97c-6.6-5.1-5.7-19.4-4-54
	C448.9,439.1,454.8,428.1,458.1,424.2z"/>
<path fill="#FFFFFF" stroke="#000000" stroke-miterlimit="10" d="M486.2,485.7l-1.4,86.2c-1.5-0.1-3-0.2-4.5-0.3
	c0.2-2.6,0.2-7.6-1.8-12c-2.8-6.2-27.3-15-27.3-15c-0.4-1.8-0.2-10.9,0.4-23.4v0c1.4-30.8,4.9-82.4,6.6-97v0c0.1-0.4,0.1-0.7,0.1-1
	c0.7-5.4,1.8-9.8,3.2-13.4l11.3-0.6c-0.4,2-0.9,4.7-1.5,7.8c-0.5,2.8-1,5.9-1.4,9.4c-0.5,3.7-0.9,7.7-1.3,12
	c-0.4,4.1-0.6,8.5-0.8,13.1c0,0.3,0,0.6,0,0.9c-0.1,5.2-0.3,9.4-0.4,12.9c-0.5,14.6-0.5,16.1,3.4,17.2
	C474.2,483.6,482.1,485,486.2,485.7z"/>
<path fill="#FFFFFF" stroke="#000000" stroke-miterlimit="10" d="M495.6,403c-0.7,3.1-1.4,7-2,11.4c-8.6-0.5-17.4,1.3-22.4,2.6
	c0.5-3.2,1-5.8,1.5-7.8h0C472.7,409.1,482.8,406.4,495.6,403z"/>
<path fill="#FFFFFF" stroke="#000000" stroke-miterlimit="10" d="M493.6,414.4c-0.5,3.7-1,7.8-1.4,12.1c-7.4-2.8-17.6-1.2-22.4-0.1
	c0.5-3.5,0.9-6.7,1.4-9.4C476.2,415.7,485,413.9,493.6,414.4z"/>
<path fill="#FFFFFF" stroke="#000000" stroke-miterlimit="10" d="M492.2,426.5c-0.4,3.6-0.7,7.4-1,11.2c-6.5-0.4-16.5,0.3-22.7,0.7
	c0.4-4.3,0.8-8.4,1.3-12C474.6,425.3,484.8,423.6,492.2,426.5z"/>
<path fill="#FFFFFF" stroke="#000000" stroke-miterlimit="10" d="M491.3,437.7c-0.4,4.9-0.7,9.8-1,14.6c-7.2-2.8-18.1-1.5-22.5-0.8
	c0.1-4.6,0.4-9,0.8-13.1C474.7,438,484.7,437.3,491.3,437.7z"/>
<path fill="#FFFFFF" stroke="#000000" stroke-miterlimit="10" d="M490.3,452.3c-0.3,5-0.6,9.9-0.8,14.2c-5.6-1.4-16.8-1.3-22.2-1.2
	c0.1-3.5,0.3-7.8,0.4-12.9c0-0.3,0-0.6,0-0.9C472.2,450.8,483.1,449.5,490.3,452.3z"/>
<path fill="#FFFFFF" stroke="#000000" stroke-miterlimit="10" d="M489.5,466.6c-0.5,11.4-0.8,19.6-0.8,19.6s-1-0.2-2.5-0.4
	c-4.1-0.7-12-2.1-15.5-3.1c-3.9-1.2-3.9-2.6-3.4-17.2C472.7,465.2,483.9,465.2,489.5,466.6z"/>
<path fill="#FFFFFF" stroke="#000000" stroke-miterlimit="10" d="M643,618.7l-55-10c0,0-11,31.3-13.7,47.5
	c-8.3,0.2-21.5,0.5-29.8-0.1c-0.1,0-0.1,0-0.2,0c-1-0.1-1.9-0.1-2.7-0.2c0,0-0.1,0-0.1,0c-2.1-0.2-3.6-0.5-4.3-0.9
	c-3.4-1.9-9.5-13.7-12.9-20.9c3.9,3.4,7.1,4.6,7.1,4.6h37.2c0,0,1.7-15.5,6.2-23.4c0-1.5,0-4,0-7.2c4,0.8,9,1.9,9,1.9l6.6-7.1
	c0,0,8.6,1.1,18.6,2.6c-0.2,1.8-0.5,3.4-0.8,4.5c4.7,1.7,17.3,3.9,33.7,6C642.2,616.9,642.6,617.8,643,618.7z"/>
<path fill="#FFFFFF" stroke="#000000" stroke-miterlimit="10" d="M500.3,623.2c-2.6-1-5.4-1.5-8.2-1.7h0l-0.6,0
	c-13.9-0.5-42.5,16.3-46.2,56.4c-0.3,3-0.4,6.1-0.4,9.4c0.2,44.5,20.7,66.6,42.9,67.6c1.2,0.1,2.5,0,3.7,0
	c23.5-1.4,41.8-25.7,42.8-61.5C535.1,661.7,521,630.8,500.3,623.2z M519.1,688.2c-1.2,22.9-10.2,36.7-20.2,41.9
	c-10,5.2-37.5,3.1-38.3-37.9c-0.6-35.6,20.7-44.1,26.3-45.7c0.9-0.3,1.8-0.4,2.8-0.4C503.6,646.3,520.2,666,519.1,688.2z"/>
<path fill="#FFFFFF" stroke="#000000" stroke-miterlimit="10" d="M556,694c-0.3,2.8-0.7,5.7-1.1,8.3l-0.4,0.1
	c-0.3,3-0.8,6.2-1.3,9.6c0,0.1,0,0.2,0,0.2c-2.4,13.5-11.1,29.1-20.8,35.8c-14.5,10-35.1,8.4-44.5,6.9c1.2,0.1,2.5,0,3.7,0
	c23.5-1.4,41.8-25.7,42.8-61.5c0.8-31.6-13.2-62.5-34-70.1c-2.6-1-5.4-1.5-8.2-1.7c6-1.3,13.3-2.2,21.6-1.7c0.2,0.3,0.3,0.6,0.5,0.8
	c0.3,0.6,0.7,1.2,1,1.9c2.9,5.3,6.2,9,9.1,11.5c3.4,7.2,9.5,19,12.9,20.9c0.7,0.4,2.2,0.7,4.3,0.9c0,0,0.1,0,0.1,0
	c1.3,9.3,3.7,30,2.3,37.5c3.4,0.1,7.3,0.4,11.3,0.7C555.5,694,555.8,694,556,694z"/>
<path fill="#FFFFFF" stroke="#000000" stroke-miterlimit="10" d="M674.5,656.1c-5.7-7.2-16.2-20.8-22.9-29.4c-1.1-1.4-2.1-2.7-3-3.8
	v0c-1.8-2.3-2.9-3.7-2.9-3.7l-2.9-0.5l-55-10c0,0-11,31.3-13.7,47.5c-0.2,1-0.3,2-0.4,2.9c-1,9.3-1.2,21.8-1.2,29.8
	c0,2.1,0,3.8,0,5.2c0,1.9,0,2.9,0,2.9s0.7,0,2,0.1h0c1.6,0.1,4.1,0.2,7.3,0.4c20.4,1,68.1,3.4,80,3.6c1.4-2.3,4.4-6.4,8.4-7.5
	c0.1-9.5,0.2-21.9-0.2-27.6C669.8,660.3,672.4,657.5,674.5,656.1z M647.8,689.2c-0.5,1.6-25.8,0.9-25.8,0.9s-6.6,4.8-16.9,0
	c-10.3-4.8-7.3-18.9-7.3-18.9s34,4.5,37.8,5C639.3,676.8,648.3,687.6,647.8,689.2z M662.2,667.7c-0.8,1-12.6,0-24.1-1.3h0
	c-9.6-1.1-18.9-2.4-21.7-3c-6.1-1.2-16.8-13-16.8-13v-26.5c0,0,7,1.2,14.8,2.6c9.2,1.7,19.5,3.7,21,4.5
	C638.4,632.6,663.7,665.9,662.2,667.7z"/>
<path fill="none" stroke="#000000" stroke-miterlimit="10" d="M554.5,702.5"/>
<path fill="#FFFFFF" stroke="#000000" stroke-miterlimit="10" d="M519.1,688.2c-1.2,22.9-10.2,36.7-20.2,41.9
	c-10,5.2-37.5,3.1-38.3-37.9c-0.6-35.6,20.7-44.1,26.3-45.7c0.9-0.3,1.8-0.4,2.8-0.4C503.6,646.3,520.2,666,519.1,688.2z"/>
<path fill="#FFFFFF" stroke="#000000" stroke-miterlimit="10" d="M746.6,700.3c-1.9,13-11.4,56.6-53.3,48.1c0,0-0.1,0-0.1,0
	c-19.3-5.1-27-17.5-30-26.5c13,0,22.4-0.1,22.4-0.1l3.2-15.4l22.5,5.3c0,0,5.4-4.2,3.4-7.6c-2-0.4-8.1-1.9-13.7-3.3
	C714.9,700.6,731.1,700.5,746.6,700.3z"/>
<path fill="none" stroke="#000000" stroke-miterlimit="10" d="M663.2,721.9c-2-5.9-2-10.3-2-10.3"/>
<path fill="#FFFFFF" stroke="#000000" stroke-miterlimit="10" d="M768,700.1c-1,9.7-8.1,50.3-54.3,50.6c-8,0-14.7-0.8-20.4-2.3
	c42,8.6,51.5-35,53.3-48.1C754,700.3,761.3,700.2,768,700.1z"/>
<path fill="#FFFFFF" stroke="#000000" stroke-miterlimit="10" d="M138.6,614.5l-0.1,2.2c0,1.4-1,2.6-2.2,3.1
	c-0.4,0.2-0.8,0.2-1.2,0.2l-35.1,0.4c-2.1,0-3.7-1.8-3.5-3.8l0.1-1.4L138.6,614.5z"/>
<path fill="#FFFFFF" stroke="#000000" stroke-miterlimit="10" d="M150.6,628.7c-0.2-0.1-0.5-0.1-0.8-0.2c-4-0.7-15.7,1.2-15.5,37
	c0,1.5,0,3,0.1,4.6c0.9,27,5.9,36,11,36.6c0.1,0,0.3,0,0.4,0h0.3c2.7-0.1,5.4-2.4,7.5-5.6c0.1-0.1,0.1-0.2,0.2-0.3
	c6.2-9.5,6.5-17.9,6.9-36.8C161.2,645.2,153.7,629.8,150.6,628.7z M149.8,688.3c-0.5,1.2-1.1,2.2-1.7,3c-4.8,6.5-10.9,0.2-10.9-22.5
	c0-18.6,6.2-25,9.5-27.2c1.3-0.8,2.9-0.5,3.9,0.6c1.1,1.3,1.9,3.1,2.6,5.2C156.6,658.9,153.7,679.9,149.8,688.3z"/>
<path fill="#FFFFFF" stroke="#000000" stroke-miterlimit="10" d="M192.6,627.3c-0.5-0.2-1-0.3-1.5-0.4h0
	c-4.9-0.6-12.8,3.7-16.1,22.5c-0.7,3.8-1.2,8.3-1.4,13.4c-0.5,11.8-0.5,21.3,0.3,28.6c0.2,1.8,0.4,3.5,0.7,5.1
	c1.7,9.8,5.1,14.5,10.8,15c0.3,0,0.7,0,1,0l0.3,0c9.6-0.7,15.1-18.5,17.3-41.5C206.2,646.2,197.9,629.5,192.6,627.3z M190.7,691.9
	c-0.2,0.3-0.3,0.6-0.5,0.8c-5.3,8.8-13.3,4.3-13.2-22.9c0.1-27.2,11-28.6,11.7-28.4c0.5,0.1,2.8,0.5,4.8,4.2c1,1.8,1.8,4.3,2.4,8
	C197.4,664.4,195.7,682.7,190.7,691.9z"/>
<path fill="#FFFFFF" stroke="#000000" stroke-miterlimit="10" d="M218.4,679.1c-1.2,11.8-6.6,22.6-9.8,28c-0.5,0.8-1.1,1.5-1.8,2.1
	c-1.3,1.1-3,1.8-4.7,1.8l-15.5,0.7c9.6-0.7,15.1-18.5,17.3-41.5c2.3-24-6-40.7-11.3-42.9c-0.5-0.2-1-0.3-1.5-0.4
	c0,0,11.5-0.9,14.2-0.1c0.2,0.1,0.5,0.2,0.9,0.4C210.2,630,222,643.9,218.4,679.1z"/>
<path fill="#FFFFFF" stroke="#000000" stroke-miterlimit="10" d="M235.6,672.7c0,1.1-0.1,2.2-0.1,3.3c-1.6,28.8-14.4,35.9-21,35.7
	c-4.1-0.1-6.4-1.5-7.6-2.5c0.7-0.6,1.3-1.3,1.8-2.1c3.2-5.4,8.6-16.2,9.8-28c3.6-35.2-8.2-49.1-12.2-51.8c5-2.6,17.7-0.4,17.7-0.4
	s10.2,11.5,11.6,36.9C235.6,666.6,235.7,669.5,235.6,672.7z"/>
<path fill="#FFFFFF" stroke="#000000" stroke-miterlimit="10" d="M379.7,668.7c0,4.3-0.5,8-2,9.2c-0.1,0.1-0.3,0.2-0.6,0.4
	c-0.4,0.2-0.9,0.4-1.5,0.5c-8.3,2.4-36.1,3.3-50.4,3.6c-2.7,0-4.9,0.1-6.4,0.1h-0.5c-0.8,0-1.8,0-3,0c-9-0.1-26.5-0.7-38.7-1.1
	c-1.2,0-2.3-0.1-3.4-0.1c-5.2-0.2-9-0.3-9.8-0.4c-3.1-0.2-3.3-2.9-3.3-2.9s-0.2-3.6-0.3-8c-0.1-4.3-0.1-9.3,0.3-12.3
	c0-0.2,0.1-0.4,0.1-0.6c0.3-2,2.2-3.7,4.6-4.9c4.3-2.3,9.9-3.4,9.9-3.4s16.1,0,32.9,0h30.1c0,0,0.8,0,2,0H370c2.6,0,4.9,1.1,6.5,2.8
	v0c1.2,1.3,2,3,2.3,4.9C379.2,660.2,379.7,664.7,379.7,668.7z"/>
<path fill="#FFFFFF" stroke="#000000" stroke-miterlimit="10" d="M574.6,608.1c0,3.2,0,5.7,0,7.2c-4.5,8-6.2,23.4-6.2,23.4h-37.2
	c-4.6-39.9-16.5-51.6-20.8-53.7c-1-0.5-5.1-0.9-10.8-1.3l63.2-2.7h0c0.6,0.1,1.1,0.3,1.5,0.5c4.4,1.4,7.8,2.5,10.3,3.4
	C574.7,594.1,574.6,602.3,574.6,608.1z"/>
<path fill="#FFFFFF" stroke="#000000" stroke-miterlimit="10" d="M531.3,638.7c0,0-3.1-1.2-7.1-4.6c-2.9-2.5-6.2-6.2-9.1-11.5
	c-0.3-0.6-0.7-1.2-1-1.9c-0.2-0.3-0.3-0.5-0.5-0.8c-7-12.4-19-28.5-35.1-29.4c-17.3-1-26,12.4-26,12.4h-13.7l0.8-19.4
	c0,0,3.7-0.9,6.6-1.3c1.4,0.1,35.3,0.5,53.4,1.6h0c5.7,0.4,9.8,0.8,10.8,1.3C514.8,587.1,526.7,598.8,531.3,638.7z"/>
<path fill="#FFFFFF" stroke="#000000" stroke-miterlimit="10" d="M513.7,619.8c-8.3-0.5-15.6,0.4-21.6,1.7h0l-0.6,0
	c-13.9-0.5-42.5,16.3-46.2,56.4c-4,0.4-14.8,1.4-17.7,1.6c-0.2-2.7-0.5-5.4-0.8-7.4c0.4-53.8,25.7-69.3,25.7-69.3s8.7-13.3,26-12.4
	C494.7,591.3,506.6,607.5,513.7,619.8z"/>
<path fill="#FFFFFF" stroke="#000000" stroke-miterlimit="10" d="M315.3,682.4c-1.3,9.7-5.8,25.4-21,23.2c0,0-0.1,0-0.1,0
	c0,0,0,0,0,0c-13.9-2-16.9-17.3-17.6-24.3C288.8,681.7,306.3,682.2,315.3,682.4z"/>
<path fill="#FFFFFF" stroke="#000000" stroke-miterlimit="10" d="M325.2,682.3c0.1,3.1-0.9,7.5-2.6,11.5c-1.8,4.2-4.4,8-7.6,9.9
	c-6.8,4-19,2.1-20.6,1.8c15.1,2.1,19.6-13.5,21-23.2c1.1,0,2.1,0,3,0h0.5C320.3,682.4,322.5,682.4,325.2,682.3z"/>
<path fill="#FFFFFF" stroke="#000000" stroke-miterlimit="10" d="M376.5,681c-2.2,10.2-8.3,27.3-25.4,29.2c-15,1.6-23.6-7-28.5-16.3
	c1.7-4.1,2.7-8.4,2.6-11.5c14.3-0.2,42-1.2,50.4-3.6C375.6,679.6,375.8,680.4,376.5,681z"/>
<path fill="#FFFFFF" stroke="#000000" stroke-miterlimit="10" d="M393,691.8c-4.6,8.3-10.4,13.5-13.3,17.1
	c-4.5,1.7-28.6,1.3-28.6,1.3c17.1-1.8,23.3-19,25.4-29.2c0.9,0.8,2.8,1.4,6.2,1.4c2,0,4.4,0.1,6.9,0.2
	C390.2,686.2,391.2,689.4,393,691.8z"/>
<path fill="#FFFFFF" stroke="#000000" stroke-miterlimit="10" d="M273.2,681.2c-1.1,1.4-3.4,3.2-8,3.5c-7.5,0.5-14.7-8.7-14.7-8.7
	h-15.1c0.1-1.1,0.1-2.2,0.1-3.3c0.1-3.1,0-6.1-0.1-8.9l11.4-1.3l12.9,7.3c0.1,4.4,0.3,8,0.3,8s0.2,2.6,3.3,2.9
	C264.2,680.8,268,681,273.2,681.2z"/>
<path fill="#FFFFFF" stroke="#000000" stroke-miterlimit="10" d="M418.5,606l-5,0.8l5.3-141.1c1.7,0.4,3.6,1,3.9,2.1
	C423.3,469,420.6,546.4,418.5,606z"/>
<path fill="#FFFFFF" stroke="#000000" stroke-miterlimit="10" d="M426.9,466.5c-0.6,2.9-3.1,79.5-4.9,139
	c-0.4,13.7-0.8,26.4-1.1,37.2v0c-0.5,17.6-0.8,29.8-0.8,31.9c0,9-5.7,9.3-9,9.3c-1.9,0-7.7-0.5-14.1-0.8c-2.4-0.2-4.9-0.3-7.2-0.4
	c-2.5-0.1-4.9-0.2-6.9-0.2c-3.4,0-5.2-0.5-6.2-1.4c0.2-1,0.4-2,0.5-2.8c0.2-0.1,0.4-0.2,0.6-0.4c1.5-1.2,2-4.8,2-9.2v1.1
	c0.1,4.3,1.5,6.9,3.8,7.8c0.7,0.3,2.8,0.5,5.6,0.8c2.6,0.2,5.7,0.5,8.8,0.7c5.1,0.4,10.2,0.7,12.5,1c5.2,0.5,6.1-3.4,5.9-6.6
	c0-0.8,0.4-14.9,1.1-35.3c0-0.3,0-0.5,0-0.8l-0.9,0l-18.3-0.9l-17.7-0.9c-0.4,13.1-0.8,28.5-0.9,33.1c0-4-0.4-8.5-0.9-12.3
	c-0.2-1.9-1.1-3.6-2.3-4.9v0c0.4-13.2,0.9-27.8,1.1-33.1c1.4-0.2,2.6-0.5,3.6-0.9c-0.1,2.8-0.3,8.1-0.5,14.2c5.4-0.2,30.5,0,37,0.1
	c0.3-8,0.6-16.7,0.9-25.9c2.1-59.5,4.7-137,4.3-138.3c-0.4-1.1-2.2-1.7-3.9-2.1l0.2-5C422.2,461.4,427.6,463.2,426.9,466.5z"/>
<path fill="#FFFFFF" stroke="#000000" stroke-miterlimit="10" d="M418.5,606c-0.3,9.2-0.6,17.9-0.9,25.9c-6.5,0-31.6-0.2-37-0.1
	c0.2-6.1,0.4-11.4,0.5-14.2c1.4-0.5,2.3-1.1,2.4-1.8l0.9-5.4l29-0.5l0.1-3.2L418.5,606z"/>
<path fill="#FFFFFF" stroke="#000000" stroke-miterlimit="10" d="M384.4,610.4l-0.9,5.4c-0.1,0.7-1,1.2-2.4,1.8
	c-1,0.3-2.2,0.6-3.6,0.9c-2.6,0.5-5.8,0.7-9.4,0.7l-9,0l-72.9,0.2l-26.5,0.1l-5.1,0l-42,0.1c-9.2,0-16.5-1.8-15.6-3.8l0.9-2.2
	L384.4,610.4z"/>
<path fill="#FFFFFF" stroke="#000000" stroke-miterlimit="10" d="M179.6,613.8l0,2c0,1.9-1,3.3-2.1,3.4l-21.2,0.4
	c-1.3,0-2.2-1.8-2.1-3.8l0.1-1.4L179.6,613.8z"/>
<path fill="#FFFFFF" stroke="#000000" stroke-miterlimit="10" d="M259.7,669.8l-12.9-7.3l-11.4,1.3c-1.4-25.4-11.6-36.9-11.6-36.9
	s-12.7-2.2-17.7,0.4c-0.4-0.2-0.7-0.4-0.9-0.4c-2.7-0.9-14.2,0.1-14.2,0.1h0c-4.9-0.6-12.8,3.7-16.1,22.5c-1.6-8.2-6-16.4-11.2-21.6
	c-5-1.1-10.2-0.3-13.8,0.6c-4-0.7-15.7,1.2-15.5,37h-5.7c-1.5-18.1,5.1-38.7,7.6-45.7c1.3-0.5,2.2-1.7,2.2-3.1l0.1-2.2l15.7-0.3
	l-0.1,1.4c-0.1,2.1,0.9,3.9,2.1,3.8l21.2-0.4c1.1,0,2-1.5,2.1-3.4l0-2l18.3-0.3l-0.9,2.2c-0.9,2.1,6.4,3.9,15.6,3.8l42-0.1
	c0.5,9.1,1.9,36.4,1.5,38.2c-0.1,0-0.1,0-0.1,0.1c0,0,0,0,0.1-0.1c0.4-0.1,2.1-0.1,3.8,0C259.6,660.6,259.6,665.6,259.7,669.8z"/>
<path fill="#FFFFFF" stroke="#000000" stroke-miterlimit="10" d="M144.5,670.2c0,12.8,1.5,19,3.6,21.2c-4.8,6.5-10.9,0.2-10.9-22.5
	c0-18.6,6.2-25,9.5-27.2c1.3-0.8,2.9-0.5,3.9,0.6c1.1,1.3,1.9,3.1,2.6,5.2C150.7,649,144.5,654.3,144.5,670.2z"/>
<path fill="#FFFFFF" stroke="#000000" stroke-miterlimit="10" d="M149.8,688.3c-0.5,1.2-1.1,2.2-1.7,3c-2.2-2.2-3.7-8.3-3.6-21.2
	c0-15.9,6.3-21.2,8.7-22.7C156.6,658.9,153.7,679.9,149.8,688.3z"/>
<path fill="#FFFFFF" stroke="#000000" stroke-miterlimit="10" d="M184.4,669.1c-0.6,12.7,3.1,19.4,6.3,22.8
	c-0.2,0.3-0.3,0.6-0.5,0.8c-5.3,8.8-13.3,4.3-13.2-22.9c0.1-27.2,11-28.6,11.7-28.4c0.5,0.1,2.8,0.5,4.8,4.2
	C190.7,647.3,185.2,652.9,184.4,669.1z"/>
<path fill="#FFFFFF" stroke="#000000" stroke-miterlimit="10" d="M190.7,691.9c-3.2-3.4-7-10.2-6.3-22.8c0.8-16.2,6.4-21.8,9.2-23.5
	c1,1.8,1.8,4.3,2.4,8C197.4,664.4,195.7,682.7,190.7,691.9z"/>
<path fill="#FFFFFF" stroke="#000000" stroke-miterlimit="10" d="M438.9,602.8c0,0-1.5,3.4-8.3,16.7c-3,5.8-4.9,18-5.7,29.8
	c-0.7-1.2-2.2-4-4-6.7v0c0.3-10.8,0.7-23.5,1.1-37.2l7.5-1.2L438.9,602.8z"/>
<path fill="#FFFFFF" stroke="#000000" stroke-miterlimit="10" d="M426.8,672.1c0,2.4,0,4.9,0.1,7.5c0,0,0,0,0,0
	c-2.4-0.5-3.1-15.1-2-30.3c0.8-11.8,2.8-23.9,5.7-29.8c6.8-13.3,8.3-16.7,8.3-16.7h13.7C452.6,602.8,427.2,618.3,426.8,672.1z"/>
<path fill="#FFFFFF" stroke="#000000" stroke-miterlimit="10" d="M426.9,690.1c-2.2,8-14.6,9.6-27.5,6.2c-2.8-0.7-4.9-2.3-6.5-4.5
	c-1.7-2.4-2.7-5.6-3.3-9.2c2.4,0.1,4.8,0.2,7.2,0.4c6.4,0.4,12.2,0.8,14.1,0.8c3.3,0,9-0.2,9-9.3c0-2.1,0.3-14.4,0.8-31.9
	c1.9,2.7,3.4,5.5,4,6.7c-1.1,15.1-0.4,29.8,2,30.3c0,0,0,0,0,0c0,0,0.3,0,0.7-0.1C427.9,683.2,427.8,687.1,426.9,690.1z"/>
<path fill="#FFFFFF" stroke="#000000" stroke-miterlimit="10" d="M398.2,636.5c-3.3,3.2-8.2,9.5-8.7,19.6c-0.3,6.9-1,15.2-0.4,22.4
	c-2.8-0.3-5-0.5-5.6-0.8c-2.3-0.9-3.8-3.6-3.8-7.8v-1.1c0-4.6,0.5-20,0.9-33.1L398.2,636.5z"/>
<path fill="#FFFFFF" stroke="#000000" stroke-miterlimit="10" d="M416.3,673.6c0.2,3.2-0.7,7.1-5.9,6.6c-2.3-0.2-7.3-0.6-12.5-1
	c-3.1-0.2-6.2-0.5-8.8-0.7c-0.6-7.2,0.1-15.4,0.4-22.4c0.5-10.1,5.3-16.4,8.7-19.6l18.3,0.9c0.3,0.3,0.6,0.6,0.9,0.9
	C416.7,658.7,416.3,672.7,416.3,673.6z"/>
<path fill="#FFFFFF" stroke="#000000" stroke-miterlimit="10" d="M796.2,510.2c-14.8-5-34.8-5.5-65.7-9.5c-1.9-12-6.3-44.7-3.1-53.3
	c0.3-0.9,0.7-1.5,1.2-1.8c6.3-4.5,51-11.3,54.5-6.7C786.4,443.1,796.7,490.8,796.2,510.2z"/>
<path fill="#FFFFFF" stroke="#000000" stroke-miterlimit="10" d="M730.5,500.7c-2.6-0.3-5.3-0.7-8.1-1.1
	c-22.6-14-61.2-20.8-92.6-24.1c-1.7-4.9-7.3-13.1-19.5-13.1c-13.7-0.1-21.5,7.1-24.3,10.2c-1.2,0-2.4-0.1-3.3-0.1
	c-1-13.4-4.5-49.7-4.5-63.6c0-1.4,0-2.7,0.1-3.9c8.8,1.8,47.2,9.6,83.9,17.1c39.2,8,58.1,17.4,65.2,25.3
	C724.2,456,728.6,488.6,730.5,500.7z"/>
<path fill="#FFFFFF" stroke="#000000" stroke-miterlimit="10" d="M582.4,703.7c-6.5,1.9-21.4,6.3-29.3,8.5c0,0,0-0.1,0-0.2
	c0.6-3.4,1-6.6,1.3-9.6l0.4-0.1l19.8-5.2h0c1.6,0.1,4.1,0.2,7.3,0.4C582.2,699.3,582.3,701.4,582.4,703.7z"/>
<path fill="#FFFFFF" stroke="#000000" stroke-miterlimit="10" d="M689.8,700.9l-1.1,5.4l-3.2,15.4c0,0-9.3,0-22.4,0.1
	c-29.5,0.1-77.7,0.2-78.7-0.1c-0.8-0.3-1.6-10-2.1-18c-0.1-2.3-0.3-4.4-0.3-6.2c20.4,1,68.1,3.4,80,3.6c1,0,1.7,0,2.1,0
	c0.8,0,3,0,6.1-0.1C674.9,701,681.7,701,689.8,700.9z"/>
<path fill="#FFFFFF" stroke="#000000" stroke-miterlimit="10" d="M805.6,699.8L805.6,699.8c-5,0.1-19.6,0.2-37.6,0.4
	c-6.8,0.1-14,0.1-21.4,0.2c-15.5,0.2-31.7,0.3-45.7,0.4h0c-3.9,0-7.7,0.1-11.2,0.1c-8.1,0.1-14.9,0.2-19.5,0.2
	c-3.1,0-5.3,0.1-6.1,0.1c-0.5,0-1.2,0-2.1,0c1.4-2.3,4.4-6.4,8.4-7.5c0.7-0.2,1.4-0.3,2.1-0.3c7,0,123,0.7,126,1.4
	c0.3,0.1,0.7,0.2,1,0.2C802.4,695.6,806.1,696.6,805.6,699.8z"/>
<path fill="#FFFFFF" stroke="#000000" stroke-miterlimit="10" d="M711.3,711.6l-22.5-5.3l1.1-5.4c3.5,0,7.2-0.1,11.2-0.1h0
	c5.6,1.4,11.7,2.9,13.7,3.3C716.6,707.4,711.3,711.6,711.3,711.6z"/>
<path fill="#FFFFFF" stroke="#000000" stroke-miterlimit="10" d="M264.6,652.1c-2.3,1.3-4.2,2.9-4.6,4.9c0,0.2-0.1,0.4-0.1,0.6
	c-1.7,0-3.4-0.1-3.8,0c0.4-1.7-1-29.1-1.5-38.2l5.1,0l1.3,30.4L264.6,652.1z"/>
<path fill="#FFFFFF" stroke="#000000" stroke-miterlimit="10" d="M307.4,648.7c-16.7,0-32.9,0-32.9,0s-5.6,1.1-9.9,3.4l-3.6-2.2
	l-1.3-30.4l26.5-0.1C286,626.9,287,647.1,307.4,648.7z"/>
<path fill="#FFFFFF" stroke="#000000" stroke-miterlimit="10" d="M377.6,618.4c-0.2,5.3-0.6,19.9-1.1,33.1c-1.6-1.8-3.9-2.8-6.5-2.8
	h-30.4c3.6-0.1,11.3-1,15.3-6.2c3.9-5,4.4-17,4.4-23.3l9,0C371.7,619.2,375,618.9,377.6,618.4z"/>
<path fill="#FFFFFF" stroke="#000000" stroke-miterlimit="10" d="M359.2,619.2c0,6.2-0.5,18.2-4.4,23.3c-4,5.2-11.6,6.1-15.3,6.2
	h-32.1c-20.4-1.5-21.4-21.8-21.1-29.3L359.2,619.2z"/>
<path fill="#FFFFFF" stroke="#000000" stroke-miterlimit="10" d="M423.9,333.2l-2.3,61.7c-10-0.7-29.6,0.7-60.3,17.3
	C316.6,436.5,234.9,564.8,177,561.5c-43.8-2.5-67.5-45.7-76.4-66.5c0,0,0,0,0,0l0.5-7.8c15,9.7,63.5,37.6,103.2,21
	C251.1,488.6,326.2,341.6,423.9,333.2z"/>
<path fill="#FFFFFF" stroke="#000000" stroke-miterlimit="10" d="M216.2,453.5c-2.4,19.1-12.6,33.6-22.9,32.4
	c-10.3-1.3-16.7-17.8-14.3-37c2.4-19.2,12.7-33.7,22.9-32.4C212.2,417.8,218.6,434.3,216.2,453.5z"/>
<path fill="#FFFFFF" stroke="#000000" stroke-miterlimit="10" d="M610.6,537.6c-0.3,19.1,0.2,52.9-1.7,67.8
	c-10-1.5-18.6-2.6-18.6-2.6l-6.6,7.1c0,0-5-1.1-9-1.9c0-5.8,0.1-14,0.2-23.3c0.3-27.1,0.9-63.8,1.5-79.4c0-1.1,0.1-2.2,0.1-3.4
	c6.8,0,21.2,1,31.3,8.5c0,0,0.4,0.1,1.1,0.4C609.6,514.8,610.8,523.1,610.6,537.6z"/>
<path fill="#FFFFFF" stroke="#000000" stroke-miterlimit="10" d="M573.8,659.1c-1,9.3-1.2,21.8-1.2,29.8c0,2.1,0,3.8,0,5.2
	c-4.6,0.6-10.7,0.3-16.7-0.1c-0.3,0-0.5,0-0.8,0c-4-0.2-7.9-0.5-11.3-0.7c1.3-7.4-1.1-28.2-2.3-37.5c0-0.3-0.1-0.6-0.1-0.9
	c0.8,0.1,1.8,1,2.8,1.2c0.1,0,0.1,0,0.2,0c8.3,0.5,21.5,0.3,29.8,0.1C574.1,657.2,573.9,658.2,573.8,659.1z"/>
<path fill="#FFFFFF" stroke="#000000" stroke-miterlimit="10" d="M173.8,691.6c0.2,1.8,0.4,3.5,0.7,5.1c-0.8,2.7-2.1,5.9-4.2,8.3
	c-0.8,0.9-1.8,1.3-3,1.3c-5.4,0.1-17.9,0.4-21,0.4c2.7-0.1,5.4-2.4,7.5-5.6c0.1-0.1,0.1-0.2,0.2-0.3c6.2-9.5,6.5-17.9,6.9-36.8
	c0.4-18.9-7.1-34.3-10.2-35.4c-0.2-0.1-0.5-0.1-0.8-0.2c3.6-0.9,8.8-1.8,13.8-0.6c5.3,5.2,9.6,13.4,11.2,21.6
	c-0.7,3.8-1.2,8.3-1.4,13.4C173.1,674.7,173.1,684.2,173.8,691.6z"/>
</svg>
