<?xml version="1.0" encoding="utf-8"?>
<!-- Generator: Adobe Illustrator 25.2.0, SVG Export Plug-In . SVG Version: 6.00 Build 0)  -->
<svg version="1.1" baseProfile="tiny" id="Layer_1" xmlns="http://www.w3.org/2000/svg" xmlns:xlink="http://www.w3.org/1999/xlink"
	 x="0px" y="0px" viewBox="0 0 1000 1000" overflow="visible" xml:space="preserve">
<path fill="#FFFFFF" stroke="#000000" stroke-miterlimit="10" d="M639.1,93.4c-0.4,7.3-4.4,17.5-6.5,26.5c-0.3,1.4-0.6,3.3-0.7,5.4
	c-0.3,3.6-0.3,8.1-0.2,12.9c-0.8-2.3-2.4-5.9-5.4-9.9v0c-0.8-9.6-2.7-23.2-7.1-29.8c-5.5-8.3-14.2-13.7-17.8-15.8
	c-1.1-10.6-2.5-25.3-4-31.8c21.1,4.7,27.1,19.4,31.2,22.2c4.1,2.8,7.5,8,10,14.8C639.1,89.5,639.2,91.3,639.1,93.4z"/>
<path fill="#FFFFFF" stroke="#000000" stroke-miterlimit="10" d="M580.9,82.5c-4,1.6-13.1,6.5-17.1,19.3
	c-3.2,10.1-2.5,25.3-1.5,35.7v0c-2.2,5.3-4.3,11.7-5.6,19c-0.9-9.7-2.1-19-4.3-30.7c-2.3-12.3-11.4-25-15.1-28.6
	c-0.3-0.3-0.5-0.5-0.8-0.7c-3-2.3-2.7-10.3,0-13.7c2.7-3.4,9.1-11.6,16.2-20.3c6.3-7.7,17.2-10.1,19.8-10.6
	c1.9,3.1,6.3,11.7,8.1,27.5C580.8,80.6,580.9,81.6,580.9,82.5z"/>
<path fill="#FFFFFF" stroke="#000000" stroke-miterlimit="10" d="M632.6,177.5c-0.5,4.1-2.1,7.5-4.7,10c-0.1,0-0.1,0-0.2,0
	c0,0,0,0.1,0,0.1c-1.7,1.6-3.8,3-6.3,4c-1.8,0.8-3.8,1.4-6,1.8c-10.2,2.1-22.5,2.1-38.5-2c-1-0.2-1.9-0.5-2.8-0.9h-0.1
	c-13.6-5.1-16.3-19.6-17.1-30.1c-0.1-1.3-0.2-2.6-0.3-3.9c1.2-7.3,3.3-13.7,5.6-19v0c1.1-2.8,2.3-5.2,3.4-7.4c1.5-3,2.9-5.5,3.9-7.2
	c3.1-5.8,10.3-17.6,11.3-33.2c0.2-2.3,0.2-4.7,0-7.1c-0.1-1-0.1-2-0.3-2.9c-1.8-15.8-6.2-24.4-8.1-27.5c-0.6-0.9-1-1.4-1-1.4
	c2.9-8.7,8.3-2.3,8.3-2.3s1.3-4.9,4.2-5c2.9-0.1,5.8,3.4,5.8,3.4s3.9-3.4,6.5,1.4c0.3,0.6,0.6,1.5,0.9,2.7c1.5,6.5,2.9,21.2,4,31.8
	c0.3,3.2,0.6,6.1,0.9,8.2c0.1,1,0.3,1.8,0.4,2.4c1.4,7.5,9,20.2,18.8,29.5c0.3,0.3,0.7,0.6,1,1c1.5,1.5,2.8,3,3.9,4.5v0
	c3,4,4.6,7.5,5.4,9.9C631.9,153.3,633.3,171.7,632.6,177.5z"/>
<path fill="#FFFFFF" stroke="#000000" stroke-miterlimit="10" d="M580.9,89.7c-4.2,2.4-13.6,9.2-14.6,22c-0.6,7-0.6,13.4-0.5,18.5
	c-1.1,2.2-2.3,4.6-3.4,7.4c-1-10.4-1.7-25.7,1.5-35.7c4-12.7,13.1-17.7,17.1-19.3C581.1,85,581.1,87.4,580.9,89.7z"/>
<path fill="#FFFFFF" stroke="#000000" stroke-miterlimit="10" d="M580.9,89.7c-1,15.7-8.2,27.5-11.3,33.2c-0.9,1.8-2.3,4.2-3.9,7.2
	c-0.1-5,0-11.4,0.5-18.5C567.3,98.9,576.7,92.1,580.9,89.7z"/>
<path fill="#FFFFFF" stroke="#000000" stroke-miterlimit="10" d="M626.3,128.3c-1.1-1.4-2.4-2.9-3.9-4.5
	c-3.6-17.8-15.3-29-20.1-32.9c-0.3-2.1-0.6-5-0.9-8.2c3.6,2,12.3,7.5,17.8,15.8C623.5,105.1,625.5,118.8,626.3,128.3z"/>
<path fill="#FFFFFF" stroke="#000000" stroke-miterlimit="10" d="M622.4,123.9c-0.3-0.3-0.6-0.6-1-1c-9.8-9.3-17.3-22-18.8-29.5
	c-0.1-0.6-0.2-1.4-0.4-2.4C607.1,94.9,618.8,106.1,622.4,123.9z"/>
<path fill="#FFFFFF" stroke="#000000" stroke-miterlimit="10" d="M574.2,190.6c-1.9,0.1-3.7,0.3-5.3,0.4c-2.8,0.2-5.2,0.3-7-0.5
	c-1.3-0.6-2.3-1.5-2.9-3.2c-1.8-5.5-11-16-16.6-23.3c-1-3.2-2.1-6.2-3.2-9.2c2.8-2.3,10.1-2.2,10.1-2.2l-3.8-6.4
	c0,0-5.3,4.4-11.1-5.9c-5.7-10.3,10-16.2,10-16.2s-12.1-3.8-14-13.3c-1.4-7,4-11.6,6.9-13.5c3.7,3.6,12.8,16.3,15.1,28.6
	c2.2,11.6,3.4,20.9,4.3,30.7c0.1,1.3,0.2,2.6,0.3,3.9C557.9,171.1,560.6,185.5,574.2,190.6z"/>
<path fill="#FFFFFF" stroke="#000000" stroke-miterlimit="10" d="M638.3,146.1c-0.4,5.8,5.2,4.8,7,9.2c1.8,4.4-2.7,10.1-4.4,13.7
	c-1.7,3.6-0.4,8.7-4.2,13.4c-0.7,0.8-1.5,1.6-2.3,2.2c0,0,0,0,0,0c-2.2,1.6-4.7,2.5-6.5,2.9c2.6-2.6,4.2-5.9,4.7-10
	c0.7-5.8-0.7-24.2-0.9-39.3c-0.1-4.8,0-9.3,0.2-12.9c1.5,0.2,3.5,1.1,5.6,2.4c4.1,2.5,8.3,6.4,9.1,7.8
	C647.9,138,638.6,140.3,638.3,146.1z"/>
<path fill="#FFFFFF" stroke="#000000" stroke-miterlimit="10" d="M674.6,163.3c-2.1,11.3-5.8,23.6-9.8,38.1
	c-8.1,29.5-31.4,51.3-53.2,56.6c-2,0.5-3.9,0.9-5.8,1.2c-1.7-1.5-2.7-2.6-2.7-2.6c-0.3,1-1,2.1-2,3.3h0c-16.8,2-30.8-2.2-47.4-13.3
	c-15.9-10.6-25.3-45.5-34.3-67.1c0,0,0,0,0,0c-2.3-5.5-4.5-10.1-6.8-13.2c-11.4-15.5-9-5.2-9,1c-4.5,4.3-8.8-3.8-8.8-3.8
	s-8.7-24.4,4.9-34.1c3.2-2.3,7.5-3.7,13.4-4c12.3-0.4,20,12.5,26.3,29.6c-1,0.8-1.4,2-0.6,3.6c0.7,1.4,2.1,3.4,3.8,5.6
	c8.2,25.2,15.2,55.3,29.8,66.3c27,20.2,50.5,3.8,54.7-13.6c2.7-11.1,5.7-24.3,7.6-32.3c0,0,0,0,0,0c0.8-0.6,1.6-1.3,2.3-2.2
	c3.8-4.8,2.5-9.9,4.2-13.4c1.7-3.6,6.2-9.3,4.4-13.7c-1.8-4.4-7.4-3.3-7-9.2c0.4-5.8,9.6-8.2,8.3-10.6c-0.8-1.5-5-5.3-9.1-7.8
	c2.3-5.1,7.2-13.2,12.3-15.5c2.2-1,4.8-1.7,7.6-1.6c6.1,0.2,13,4.4,16.9,19.2C677.2,140.9,676.8,151.6,674.6,163.3z"/>
<path fill="#FFFFFF" stroke="#000000" stroke-miterlimit="10" d="M680.5,77.4c0.3,10-10.9,15-17.6,21.1c-3.1,2.9-4.7,7.8-5.5,12.1
	c-2.8-0.1-5.4,0.7-7.6,1.6c-5.1,2.3-10,10.3-12.3,15.5c-2.1-1.3-4.1-2.3-5.6-2.4c0.2-2.1,0.4-4,0.7-5.4c2.1-9,6-19.2,6.5-26.5
	c4.6-5.4,12-13.8,17.4-17.9C664.8,69,680.1,67.4,680.5,77.4z"/>
<path fill="#FFFFFF" stroke="#000000" stroke-miterlimit="10" d="M519.3,179.5c-2.6,1.7-5,3.7-6.8,4.2c-4.4,1.3-13.5-0.7-17.4-3.1
	c-3.8-2.4-2.6-9.1-11.7-28.7c-4.5-9.8-7.7-15.2-9.8-18.2c0,0,0,0,0,0c-0.2-0.3-0.3-0.5-0.5-0.7c-6-34-33.9-46.3-39.2-49
	c0.7-15.8,12.5-16.8,12.5-16.8s20.4,8.8,35.6,25.2c11.7,12.6,16.1,29.7,17.5,36.9c-13.6,9.8-4.9,34.1-4.9,34.1s4.3,8.1,8.8,3.8
	c0-6.2-2.4-16.4,9-1C514.8,169.4,517,174,519.3,179.5z"/>
<path fill="#FFFFFF" stroke="#000000" stroke-miterlimit="10" d="M553.6,246.5c-15.9-10.6-25.3-45.5-34.3-67.1c0,0,0,0,0,0
	c-2.6,1.7-5,3.7-6.8,4.2c-4.4,1.3-13.5-0.7-17.4-3.1c-3.8-2.4-2.6-9.1-11.7-28.7c-4.5-9.8-7.7-15.2-9.8-18.2c0,0,0,0,0,0
	c-0.1-0.1-0.3-0.2-0.5-0.4c-6-5-18.1-10.3-18.1-10.3s-2-4.6-6.2-4.5c-4.2,0.1-11.2,8.1-11.9,14.2c-0.7,6.1,2.3,9,6.1,7.1
	c2,0.7,14.1,3.9,20.9,15.2c6.8,11.2,8,21.4,8.8,22.2c0.9,0.7,3.8-3.6,7.6,3c3.8,6.6,5.6,12.8,5.6,12.8s6.1,6.1,13.8,14.7
	c9.5,10.7,21.4,25.4,26.8,37.1c2.7,2.5,6.3,5.2,10.5,7.9c14.8,9.4,36.5,18.5,45.1,17c8.5-1.4,15.6-5.8,19-9.8
	C584.2,261.8,570.2,257.6,553.6,246.5z M535.8,241.4c-10.6-13.8-9.9-18.1-8-19.8c1.9-1.7,7.3,5.7,13.1,16.1
	C546.7,248.2,546.3,255.2,535.8,241.4z"/>
<path fill="#FFFFFF" stroke="#000000" stroke-miterlimit="10" d="M714.6,312.1c-1.3,0.6-2.9,1-4.8,1.3c-1,0.1-2.1,0.2-3.2,0.2
	c-9.1-0.2-26.2-4-26.2-4c-8-2.1-16.3-20.1-22.4-36.9c7.8-2.4,15.3-11.9,22.4-19.4c7.9-8.5,8.8-20.9,5.9-26.1c-3-5.2-8.9,0-8.9,0
	c3,2.6-15.1,29-21.1,40.6c-2.6-7.6-4.7-14.5-6-19.1c3.5-3.5,6.7-7.2,9.3-10.7c4.3-5.9,8.8-14.1,12.4-22.9c5.3,1.8,15,5.8,19.3,11.9
	c0.9,1.3,1.6,2.7,1.9,4.2c1,4.3-0.4,9-2.5,13.5c-3.5,7.3-9.2,14.1-11,17.5c-2.8,5.5-4.8,20.3,3.8,29.8c8.5,9.5,15.9,13.9,20.8,8.9
	C707.6,303.1,711.1,307.1,714.6,312.1z"/>
<path fill="#FFFFFF" stroke="#000000" stroke-miterlimit="10" d="M680.4,181.7c-0.1,3.2-0.5,6.6-1.2,10.3c0,0,0,0,0,0
	c-1.4,7.3-4,15.3-7.2,22.9c-3.7,8.8-8.1,17-12.4,22.9c-2.6,3.5-5.8,7.2-9.3,10.7c-9.9,9.8-22,18-29.9,17.1
	c-6.7-0.8-11.7-4.1-14.6-6.5c1.9-0.3,3.8-0.7,5.8-1.2c21.9-5.2,45.2-27.1,53.2-56.6c4-14.5,7.7-26.8,9.8-38.1
	C677.2,165.8,680.6,171.1,680.4,181.7z"/>
<path fill="#FFFFFF" stroke="#000000" stroke-miterlimit="10" d="M537,252.5c-0.5,4.3-1.7,11.4-4.3,17.2
	c-3.1,6.8-10.1,10.8-16.8,14.3c-1.6,0.8-3.1,1.6-4.6,2.4c-0.1-0.2-0.3-0.4-0.5-0.6c-0.1,0.3-0.2,0.7-0.3,1c-0.2,0.1-0.5,0.2-0.7,0.4
	c-12.8-16.6-36.1-12.7-38.6-12.7c-0.2,0-0.2,0-0.2-0.1c0.2-0.6-0.1-28.1,5.7-43.1c4.5-11.5,17.1-20.4,23-23.9
	c9.5,10.7,21.4,25.4,26.8,37.1C529.1,247.2,532.8,249.9,537,252.5z"/>
<path fill="#FFFFFF" stroke="#000000" stroke-miterlimit="10" d="M509.7,287.3c-12.8-16.6-36.1-12.7-38.6-12.7
	c-4.7,4.9-19.7,21.5-25.9,35.1c-5.6,12.3-10.4,24-13.6,31.3c-1,2.3-1.8,4.2-2.5,5.5c-0.9,1.8-1.6,3.6-1.8,5.2
	c-0.5,2.7,0.1,4.8,2.6,5.8c0.4,0.2,0.9,0.3,1.5,0.4c1.5,0.2,4.1,0.6,7.2,0.9c6,0.6,13.8,1.2,19.4,0.7c2.7-0.2,4.9-0.8,6-1.6
	c3.4-2.6,13.6-15.1,21.5-26.2l0,0c3.1-4.3,5.8-8.4,7.7-11.6c2.2-3.8,4.9-8.3,7.6-13v0c0.9-1.6,1.9-3.3,2.7-5c0.3-0.6,0.7-1.3,1-1.9
	c0.1-0.2,0.2-0.5,0.4-0.7c0.5-1,1-2,1.5-3.1c0,0,0,0,0,0c0.4-0.8,0.8-1.6,1.1-2.4c1.1-2.5,2.1-4.9,2.9-7.1
	C510.2,287,510,287.2,509.7,287.3z M462.9,350.5c-4.6,2.4-9.2,3.6-13.6,3.2c-11.7-0.9-4.5-29.2,8.8-49.2
	c13.3-20,30.7-26.4,39.2-21.1c3.2,2,5.1,5.4,6.2,9C497.1,303.6,479.1,333.8,462.9,350.5z"/>
<path fill="#FFFFFF" stroke="#000000" stroke-miterlimit="10" d="M503.5,292.4c-6.4,11.2-24.4,41.4-40.6,58
	c-4.6,2.4-9.2,3.6-13.6,3.2c-11.7-0.9-4.5-29.2,8.8-49.2c13.3-20,30.7-26.4,39.2-21.1C500.5,285.3,502.4,288.8,503.5,292.4z"/>
<path fill="#FFFFFF" stroke="#000000" stroke-miterlimit="10" d="M458,359.6c-0.1,1.8-0.4,5-1.1,8c-0.4,1.8-0.8,3.5-1.5,5
	c-2.8-2.7-12.4-8.9-16.8-13.7C444.6,359.6,452.4,360.1,458,359.6z"/>
<path fill="#FFFFFF" stroke="#000000" stroke-miterlimit="10" d="M439.8,476.3c-3.1-3.6-15.2-3.1-21.6,3.5c-0.1-0.1-0.1-0.3-0.2-0.4
	c-2.6-5.9,1.4-10.2,1.4-10.2s13.3-7.6,21.5,1.6c0,0,0.1,0.1,0.3,0.3C441.6,471.8,442.4,473.6,439.8,476.3z"/>
<path fill="#FFFFFF" stroke="#000000" stroke-miterlimit="10" d="M506.5,548.1c-0.5-0.7-6.2-13.2-8.2-16.8c-2-3.6-7-6.8-8.4-8.9
	c-1.4-2.1-7.5-7-18.9-8.2c-11.4-1.2-15.6,6.1-15.6,6.1c-7-1.7-16.2,8.5-17.5,11.6c0,0,0,0,0,0c-1.6-1.8-2.9-0.4-2.9-0.4l-5.6-3.8
	c-2-4.2-9.8-20.5-12.5-30.8c-2.3-8.9-0.3-15.1,0.9-17.6c0.1,0.1,0.1,0.3,0.2,0.4c6.4-6.6,18.5-7.1,21.6-3.5
	c20.3,0.9,20,14.1,30.2,21.9c13.4,2.8,12.7,6.1,12.7,6.1s0.9,0.7,13.2,8.5c10.3,6.1,8.4,11.6,8.4,11.6s1.6,5,1.6,6.4
	C505.8,532.3,507,548.9,506.5,548.1z"/>
<path fill="#FFFFFF" stroke="#000000" stroke-miterlimit="10" d="M443.8,632.3c-0.8-0.2-5.6-1.9-5.6-1.9s-5.2-10-7.2-13
	c-2-3-4.6-10.7-4.4-11.9c0.2-1.2-4.8-19.7-5.2-23.3c-0.5-3.6,1.4-7.7,4.3-12c2.9-4.3,5.4-23,5.4-23c-5.7-10.2-1-18.4-1-18.4
	s-0.2-0.4-0.5-1l5.6,3.8c0,0-1.4,12.1,3.8,21.5c-2.2,7.4-6.5,22.7-7.9,27.3c-1.8,5.6,3,20,3.3,26.6c0.4,6.7,4.8,13.4,6.1,15
	C441.7,623.5,445.3,628.6,443.8,632.3z"/>
<path fill="#FFFFFF" stroke="#000000" stroke-miterlimit="10" d="M474.6,647.9c-5.8-3.2-17-17.2-21.4-21.9c-4.4-4.6-5.8-11-5.7-11.6
	c0.1-0.6-9.4-20-11.8-24.1c-2.4-4.2-0.4-6.2,0.6-7.5c1-1.3,2.8-23.9,3.2-28.6c-0.2-0.3-0.4-0.7-0.6-1c-5.2-9.4-3.8-21.5-3.8-21.5
	s1.3-1.4,2.9,0.4c0,0,0,0,0,0c-0.6,7.1,5.1,18.7,4.9,21c-0.2,2.4-1.4,27-3.2,29.7c-1.8,2.7,2.6,7.4,3.1,8.9
	c0.5,1.5,6.5,12.1,9.2,20.4c2.6,8.3,5.8,9.1,7,11.5c0.8,1.6,4,5.6,8.5,12.5C469.5,639.3,471.9,643.2,474.6,647.9z"/>
<path fill="#FFFFFF" stroke="#000000" stroke-miterlimit="10" d="M478.8,641.2c0,0-6-1.7-11.5-5.2c-4.5-6.9-7.7-10.9-8.5-12.5
	c-1.2-2.4-4.4-3.2-7-11.5c-2.6-8.3-8.7-18.9-9.2-20.4c-0.5-1.5-4.9-6.2-3.1-8.9c1.8-2.7,3-27.3,3.2-29.7c0.2-2.3-5.5-13.8-4.9-21
	c1.2-3,10.5-13.3,17.5-11.6c0,0-0.8,14.5-1.1,24.5c-0.2,10-3.3,35.4-3.3,35.4s3.7,3.7,1.1,7.5c-0.4,2.7,6.4,22.6,7.7,23.4
	s11.2,15.9,13.8,20C476.2,635.2,478.8,641.2,478.8,641.2z"/>
<path fill="#FFFFFF" stroke="#000000" stroke-miterlimit="10" d="M691.3,226.9c-4.3-6.1-14-10.2-19.3-11.9
	c3.2-7.6,5.8-15.6,7.2-22.9C683.2,197.5,692.6,212,691.3,226.9z"/>
<path fill="#FFFFFF" stroke="#000000" stroke-miterlimit="10" d="M704.3,300.8c-5,5-12.3,0.5-20.8-8.9c-8.6-9.4-6.6-24.2-3.8-29.8
	c1.8-3.4,7.5-10.2,11-17.5C698.1,255.7,704.3,277,704.3,300.8z"/>
<path fill="#FFFFFF" stroke="#000000" stroke-miterlimit="10" d="M709.5,325c-1.7,4.2-12.8,9.8-25.3-0.3c-0.2-0.9-0.4-1.5-0.4-1.5
	s-0.3-9.1-3.4-13.7c0,0,17.1,3.8,26.2,4c1.2,0,2.2,0,3.2-0.2C710.2,316.5,710.7,321.9,709.5,325z"/>
<path fill="#FFFFFF" stroke="#000000" stroke-miterlimit="10" d="M757.2,402.7c0,0-6.8,6.3-10.2,8.1c-0.6,0.3-1,0.5-1.3,0.5
	c-2.3,0-15.9-23-29.8-36.2s-25-36.7-27.6-40.5c-2-2.7-3.4-7.6-4.1-10c12.5,10,23.6,4.5,25.3,0.3c1.2-3.1,0.8-8.5,0.4-11.6
	c1.9-0.2,3.4-0.7,4.8-1.3c2.3,3.3,4.6,7.1,6.9,11.1c-2.1-0.8-4.8-1.3-6.7,0.8c-3.3,3.8,1.7,31.1,13.2,48.7
	c10.8,16.4,26.2,37.9,26.8,22.9C756.2,399.6,757,402.1,757.2,402.7C757.2,402.7,757.2,402.7,757.2,402.7z"/>
<path fill="#FFFFFF" stroke="#000000" stroke-miterlimit="10" d="M754.8,395.6C754.8,395.6,754.8,395.6,754.8,395.6
	c-0.7,14.9-16.1-6.5-26.8-22.9c-11.5-17.6-16.5-44.9-13.2-48.7c1.8-2.1,4.6-1.6,6.7-0.8c7.3,12.8,14.2,28.1,20,40.1
	C747.7,376.6,752.3,388.5,754.8,395.6z"/>
<path fill="#FFFFFF" stroke="#000000" stroke-miterlimit="10" d="M680.4,253.2c-7.1,7.5-14.5,17.1-22.4,19.4
	c-0.1-0.1-0.1-0.3-0.2-0.4c-0.1,0.2-0.2,0.4-0.3,0.5c-0.8,0.2-1.7,0.4-2.6,0.4h-0.1c-1-0.1-0.3-2.2,1.3-5.4v0
	c6-11.6,24.1-38.1,21.1-40.6c0,0,5.9-5.2,8.9,0C689.3,232.3,688.4,244.7,680.4,253.2z"/>
<path fill="#FFFFFF" stroke="#000000" stroke-miterlimit="10" d="M763.4,413.2c0,0.2,0,0.4,0,0.4s-2.3,0.5-5.1,1
	c-4.2,0.7-9.4,1.4-9.8,0.3c0-0.5,0.9-1,1.5-1.3c0.4-0.1,0.6-0.2,0.7-0.3c-0.1,0-0.4,0.1-0.7,0.3c-0.9,0.2-2.2-0.1-3.1-2.8
	c3.4-1.8,10.2-8.1,10.2-8.1s0,0,0-0.1c1.5,0.5,3.5,1.8,4.1,4.5C763.5,408.4,763.5,412.1,763.4,413.2z"/>
<path fill="#FFFFFF" stroke="#000000" stroke-miterlimit="10" d="M758.3,414.6c0,2.9-1,7.8-3.4,15.4c-3.3,10.1-7.1,21.2-10.2,23.8
	c-3.1,2.6-6.6,6.3-6.7,9.3c-0.1,1-0.8,2.5-1.9,4.1c-0.2-2.8-0.4-5.2-0.6-6.8c-0.5-5.7,0.7-17.3,2.4-20.6
	c1.7-3.2,10.2-23.4,10.6-24.8C748.9,416,754.1,415.3,758.3,414.6z"/>
<path fill="#FFFFFF" stroke="#000000" stroke-miterlimit="10" d="M770.8,515.4c-0.4-3.8-7.5-27.3-6.9-32.4c0.6-5.1-3-14-2.6-23.9
	c0.1-4.2,1.5-8.9,3-13.7c-2.1,2-3.8,3.8-5,5.6c-2.7,4.3-7.5,8.7-10.5,10.8c-3,2.1-8.7,8.3-10,13.4c-0.5,1.9-1.4,3.4-2.5,4.6
	c-0.2,2.7-0.6,5-1.3,6.4c-2.5,4.8-5.8,6.3-8.5,9c-2.7,2.7-6.7,7.5-9.8,10.7c-3.1,3.2-9.9,5.6-11.4,8.5c-1.5,3,3.4,6.7,5.3,7.2
	c1.9,0.6,11.8-8.4,13.7-10.3c1.9-1.9,5.7-6,8-8.8c2.2-2.9,11.6-4.9,13.5-13c1.3-5.5,0.8-13,0.4-17.2c2,10.5,11.4,35.2,12.8,41.7
	c-3.1,3-25.8,44.3-25.8,44.3s3.3,0.2,7.5,0.5c4.2,0.2,4.2-5.7,7-8.8c2.8-3.1,10.7-12.7,11.9-14.6
	C760.8,533.7,771.1,519.2,770.8,515.4z M745.8,469.4c0,0,0.2,1.2,0.4,3.1C745.9,471.3,745.8,470.2,745.8,469.4z"/>
<path fill="#FFFFFF" stroke="#000000" stroke-miterlimit="10" d="M764.2,445.4c-2.1,2-3.8,3.8-5,5.6c-2.7,4.3-7.5,8.7-10.5,10.8
	c-3,2.1-8.7,8.3-10,13.4c-0.5,1.9-1.4,3.4-2.5,4.6c-1.9,2.1-4.3,3.3-5.7,4.1c-2.2,1.2-5.2,8.2-8.8,9.1c-3.6,1-13,7.4-13,7.4
	l6.9-12.4c0,0,7.1-4.3,8.6-7.1c1.4-2.8,2.5-6.5,5.1-7.5c1.7-0.6,4.7-3.6,6.6-6.4c1.1-1.5,1.8-3,1.9-4.1c0.1-3,3.6-6.6,6.7-9.3
	c3.1-2.6,6.9-13.7,10.2-23.8c2.5-7.6,3.4-12.5,3.4-15.4c2.8-0.5,5.1-1,5.1-1s0-0.1,0-0.4c1.4,1.6,4,5.7,4.5,13.3
	C768.3,432.5,766.2,439,764.2,445.4z"/>
<path fill="#FFFFFF" stroke="#000000" stroke-miterlimit="10" d="M657.6,272.8c-1.1,2.3-2.9,5.9-5.2,10.3c-0.6,0.5-1.2,1-1.9,1.5
	c-5.3,3.7-13.9,5.1-19.4,4.3c-4.5-0.7-10.1-5.5-12.9-9.6c-1.1-1.6-1.8-3.1-1.8-4.2c-0.1-3.8,2.4-1.1,2.4-1.1s0.2,0.2,0.5,0.5
	c2.1,2.2,10.6,10.3,18.8,9.8c8.8-0.6,14.3-4.9,16.9-11.1h0.1C655.9,273.1,656.8,273,657.6,272.8z"/>
<path fill="#FFFFFF" stroke="#000000" stroke-miterlimit="10" d="M606.1,333.9c6.2,6.6,17.8,2.5,23.7,0.2c-0.6,0.3-1.2,0.6-1.8,0.8
	c0,3-5.7,8.2-16.9,9.1c-1.8,0.1-3.5,0-5-0.3c-1.3-0.2-2.5-0.6-3.7-1c-1.1-0.4-2.2-0.9-3.2-1.4c0,0,0,0,0,0c-3.5-1.9-5.9-4.2-6.9-5.2
	c3.5-0.7,4.4-2.8,7.5-5.7c3.1-2.8,3.7-8.6,2.7-9.2c-1-0.6-8.1,2.1-11.2,7.3c-2.9-6-12.9-5.8-12.9-5.8c-1.9,0-2,2.6-0.4,5.4
	c-4.1,1.8-13.5,5.5-22.3,6.4c-11.8,1.2-21.4-4.2-28.4-6.8c-5.1,1.4-10.9-1.2-15.5-4.2c0,0,0,0,0,0c-0.4-0.5-0.9-1-1.3-1.5
	c-5-6-8.3-12-9.6-14.8v0c0.9-1.6,1.9-3.3,2.7-5c0.5,0.8,1,1.6,1.6,2.4c16.5,24.5,22.6,14.3,22.6,14.3s6.8,14.6,30.1,9.8
	c18.1-3.7,26.3-13.6,29.1-18c0.2,0.4,0.4,0.8,0.6,1.2c1.7,2.9,10.6,8.3,14.1,7.6c2.8-0.5,3.9-2,5.8-4c-0.3,2.6,0.5,6.7,3.3,9.3
	c5.6,5.2,8.2,5.7,13.8,4.5c2.8-0.6,5.6-1.4,8-2.5c-0.2,1.3-1.6,3.7-8.8,5.9c-10.5,3.3-15.5-0.9-17.3-4.7
	C604.7,324.2,599.8,327.3,606.1,333.9z"/>
<path fill="#FFFFFF" stroke="#000000" stroke-miterlimit="10" d="M648.7,297.6c-1.1,1-2.3,1.9-3.6,2.7c-9.2,5.4-21.4,2.4-27.7-3.8
	c-0.4-0.4-0.7-0.7-1-1.1c0.8-2.7,0.8-5.2,0.1-5.6c-0.4-0.2-1.4-0.1-2.8,0.4c-0.3-2.9,2-4.4,2.6-4.3c1,0.1,3.8,14.2,19.9,11.7
	c13.4-2.1,14.5-9.8,14.3-13c0.7-0.5,1.3-1,1.9-1.5c0,0.1-0.1,0.2-0.2,0.3C658.5,289.2,648.7,297.6,648.7,297.6z"/>
<path fill="#FFFFFF" stroke="#000000" stroke-miterlimit="10" d="M643.7,310.7C643.7,310.7,643.7,310.8,643.7,310.7
	c-0.1,0.1-0.2,0.2-0.4,0.3c0,0,0,0,0,0.1c-0.9,1-3.5,3.6-6.7,5.4c-1.7,0.9-3.5,1.6-5.3,1.8c-6.5,0.6-13-3.9-16-7.1
	c-3-3.2-4.9-13.7,0.5-5.8c5.4,8,17.2,6.8,23.8,3.6c4.7-2.3,5.5-6.6,5.5-8.9c1.2-0.7,2.5-1.6,3.6-2.7
	C648.2,299.2,652.1,303.3,643.7,310.7z"/>
<path fill="#FFFFFF" stroke="#000000" stroke-miterlimit="10" d="M638,322.3c-0.6,0.6-1.2,1.2-1.8,1.8c0,0.1,0,0.2,0,0.3
	c-1,0.9-2.3,1.7-3.7,2.4c-2.4,1.1-5.2,2-8,2.5c-5.6,1.1-8.2,0.7-13.8-4.5c-2.8-2.6-3.5-6.7-3.3-9.3c0.2-1.8,0.9-2.8,1.9-1.9
	c0.4,0.4,0.9,1.2,1.4,2.5c3.2,8.3,9.8,9.4,16.6,8.3c4.9-0.8,8-5.4,9.3-7.9c3.2-1.8,5.8-4.4,6.7-5.4
	C643.8,314.3,641.9,318.2,638,322.3z"/>
<path fill="#FFFFFF" stroke="#000000" stroke-miterlimit="10" d="M629.8,334c-5.9,2.4-17.5,6.4-23.7-0.2c-6.2-6.6-1.4-9.7,0.4-5.9
	c1.8,3.8,6.8,8,17.3,4.7c7.2-2.2,8.6-4.6,8.8-5.9c1.4-0.7,2.7-1.5,3.7-2.4C636.8,327.9,633.8,331.9,629.8,334z"/>
<path fill="#FFFFFF" stroke="#000000" stroke-miterlimit="10" d="M599.2,341.2c-3.8,2.3-10.4,6.8-16.3,12.6
	c-9,8.9-22.5,10.1-28.3,4.4c-3.8-3.7-4.7-7.5-4.8-9.8c10.2-0.2,21.6-1.1,26.4-4.2c7.3-4.6,12.4-7.2,14.6-8.2h0
	c0.6,0.1,1.1,0.1,1.5,0c0,0,0.1,0,0.1,0C593.3,337,595.7,339.3,599.2,341.2z"/>
<path fill="#FFFFFF" stroke="#000000" stroke-miterlimit="10" d="M645.1,300.2c0,2.3-0.8,6.6-5.5,8.9c-6.6,3.2-18.4,4.3-23.8-3.6
	c-5.4-8-3.6,2.6-0.5,5.8c3,3.2,9.6,7.7,16,7.1c1.9-0.2,3.7-0.9,5.3-1.8c-1.3,2.5-4.4,7.1-9.3,7.9c-6.8,1.1-13.5,0-16.6-8.3
	c-0.5-1.3-0.9-2.1-1.4-2.5c3-2.9,3.5-8.4,2.5-9c-0.4-0.2-1.7,0-3.3,0.7c1.4-1.2,2.7-2.9,4.8-4.8c1.5-1.4,2.5-3.3,3.1-5.2
	c0.3,0.4,0.7,0.7,1,1.1C623.7,302.7,635.9,305.6,645.1,300.2z"/>
<path fill="#FFFFFF" stroke="#000000" stroke-miterlimit="10" d="M656.3,267.7c-1.7,3.3-2.4,5.4-1.3,5.4
	c-2.6,6.2-8.1,10.5-16.9,11.1c-8.2,0.5-16.6-7.6-18.8-9.8c0-1.1-0.2-1.9-0.5-2.1c-1.2-0.7-9.6,2.4-13.3,8.6
	c-3.5-7.1-15.2-6.8-15.2-6.8c-1.7,0-2.2,1.9-1.4,4.2c-10,2.9-23,15.5-37.2,16.2c-15.7,0.7-19.2-7.2-19.2-7.2s-4.3,4.6-10,3
	c-3.1-0.9-5.2-3.8-6.5-6.2c6.7-3.5,13.7-7.6,16.8-14.3c2.7-5.8,3.8-12.9,4.3-17.2c14.8,9.4,36.5,18.5,45.1,17
	c8.5-1.4,15.6-5.8,19-9.8h0c1.5-0.2,3.1-0.4,4.7-0.7c2.9,2.4,7.9,5.8,14.6,6.5c7.9,0.9,20.1-7.3,29.9-17.1
	C651.6,253.2,653.7,260.1,656.3,267.7L656.3,267.7z"/>
<path fill="#FFFFFF" stroke="#000000" stroke-miterlimit="10" d="M619.3,274.5c-0.3-0.3-0.5-0.5-0.5-0.5s-2.5-2.7-2.4,1.1
	c0,1.1,0.7,2.6,1.8,4.2c-0.6,1.5-1.5,2.9-2.7,4c-3.7,3.3-4.7,5.9-8.9,6.7c-3.6,0.7-11.7-3.9-15.3-7.3v0c0.5-2.5,0.3-4.8,0.3-4.8
	c-0.9,0.1-1.9,0.3-2.9,0.6c-0.7-2.3-0.3-4.2,1.4-4.2c0,0,11.8-0.3,15.2,6.8c3.7-6.2,12.1-9.3,13.3-8.6
	C619.1,272.6,619.3,273.4,619.3,274.5z"/>
<path fill="#FFFFFF" stroke="#000000" stroke-miterlimit="10" d="M591.3,282.6L591.3,282.6c-0.5,2.3-1.5,4.8-4,5.6
	c-5,1.6-20,8.1-31.9,11.4c-11.9,3.3-24.2-5.2-24.2-5.2s-9.8,5.5-20-7.9c1.5-0.8,3-1.6,4.6-2.4c1.3,2.4,3.4,5.3,6.5,6.2
	c5.7,1.6,10-3,10-3s3.6,8,19.2,7.2c14.3-0.6,27.2-13.3,37.2-16.2c1-0.3,1.9-0.5,2.9-0.6C591.7,277.8,591.8,280.1,591.3,282.6z"/>
<path fill="#FFFFFF" stroke="#000000" stroke-miterlimit="10" d="M636.2,297.5c-16.1,2.5-18.9-11.6-19.9-11.7
	c-0.6,0-2.9,1.4-2.6,4.3c-3.1,1.1-7.9,3.9-10.5,8.2c-3.5-7.1-15.2-6.8-15.2-6.8c-1.5,0-2,1.5-1.6,3.4c-6,4.1-25.3,13.7-38.2,13.6
	c-13.7-0.1-19.4-6.9-19.4-6.9s-3.6,2.8-7,3.2c-2.6,0.3-10.7-7.4-14.2-10.8c1.1-2.5,2.1-4.9,2.9-7.1c0.3-0.2,0.5-0.3,0.8-0.4
	c10.2,13.4,20,7.9,20,7.9s12.4,8.5,24.2,5.2c11.9-3.3,26.9-9.8,31.9-11.4c2.4-0.8,3.5-3.2,4-5.6c3.6,3.4,11.7,8,15.3,7.3
	c4.2-0.8,5.2-3.4,8.9-6.7c1.2-1.1,2.1-2.5,2.7-4c2.8,4.1,8.4,8.9,12.9,9.6c5.6,0.8,14.1-0.6,19.4-4.3
	C650.7,287.8,649.7,295.4,636.2,297.5z"/>
<path fill="#FFFFFF" stroke="#000000" stroke-miterlimit="10" d="M616.4,295.3c-0.6,1.9-1.6,3.8-3.1,5.2c-2.1,1.9-3.3,3.5-4.8,4.8
	c-1,0.4-2,1-3.1,1.7c-0.3,0.1-0.7,0.2-1,0.3c-4.2,0.8-14.6-5.6-16.7-9c-0.1-0.2-0.3-0.5-0.4-0.7c0.9-1.4,1-2.6,0-3.4
	c-0.3,0.2-0.6,0.5-1,0.7c-0.4-2,0.1-3.4,1.6-3.4c0,0,11.8-0.3,15.2,6.8c2.5-4.3,7.4-7.1,10.5-8.2c1.4-0.5,2.4-0.6,2.8-0.4
	C617.2,290.1,617.2,292.7,616.4,295.3z"/>
<path fill="#FFFFFF" stroke="#000000" stroke-miterlimit="10" d="M587.3,297.6c-3.3,5.2-17.9,13.4-27.8,16c-12.5,3.3-31-5-31-5
	s-5.8,9.7-22.1-12.1c0,0,0,0,0,0c0.4-0.8,0.8-1.6,1.1-2.4c3.5,3.5,11.6,11.1,14.2,10.8c3.4-0.4,7-3.2,7-3.2s5.7,6.8,19.4,6.9
	c12.9,0.1,32.2-9.5,38.2-13.6c0.4-0.3,0.7-0.5,1-0.7C588.3,295,588.2,296.2,587.3,297.6z"/>
<path fill="#FFFFFF" stroke="#000000" stroke-miterlimit="10" d="M599.8,330.4c-3.1,2.8-4,5-7.5,5.7c-0.3-0.3-0.5-0.5-0.5-0.5
	s-0.4,0.2-1.1,0.5h0c-2.7-0.4-6.7-2.5-9.5-4.6c4.3-2.8-1.1-4.4-1.1-4.4s-0.8,0.4-2.2,1c-1.5-2.7-1.4-5.4,0.4-5.4
	c0,0,10-0.3,12.9,5.8c3.1-5.2,10.3-7.9,11.2-7.3C603.5,321.8,602.9,327.5,599.8,330.4z"/>
<path fill="#FFFFFF" stroke="#000000" stroke-miterlimit="10" d="M581.2,331.4c-0.1,0.1-0.2,0.1-0.3,0.2c-4.9,2.9-15.1,7.7-26.3,7.7
	c-11.2,0-27.3-7.7-27.3-7.7s-3.6,1.4-9.3-1.4l0,0c-0.8-1-1.8-2.1-2.8-3.2c-1.2-1.2-2.4-2.3-3.5-3.6c4.5,2.9,10.4,5.6,15.5,4.2
	c7,2.6,16.6,8,28.4,6.8c8.8-0.9,18.2-4.6,22.3-6.4c1.4-0.6,2.2-1,2.2-1S585.5,328.6,581.2,331.4z"/>
<path fill="#FFFFFF" stroke="#000000" stroke-miterlimit="10" d="M605.5,307c-1.8,1.2-3.6,2.8-4.8,4.8c-2.9-6-12.9-5.8-12.9-5.8
	c-1.5,0-1.8,1.6-1.2,3.6c-3.9,2.8-15.2,9.9-30.7,12.8c-19.4,3.7-27.4-8.2-27.4-8.2s-2.1,1.6-7.1,2.2c-3.9,0.4-12.5-10.6-16.2-15.6
	c0,0,0,0,0,0c-0.2-0.2-0.3-0.5-0.5-0.7c0.1-0.2,0.2-0.5,0.4-0.7c0.5-1,1-2,1.5-3.1c16.4,21.8,22.1,12.1,22.1,12.1s18.5,8.3,31,5
	c9.9-2.6,24.4-10.8,27.8-16c0.1,0.2,0.2,0.5,0.4,0.7c2,3.4,12.5,9.8,16.7,9C604.8,307.2,605.1,307.1,605.5,307z"/>
<path fill="#FFFFFF" stroke="#000000" stroke-miterlimit="10" d="M586.9,310.6c-2.8,4.3-11,14.2-29.1,18
	c-23.3,4.8-30.1-9.8-30.1-9.8s-6.1,10.2-22.6-14.3c-0.5-0.8-1-1.6-1.6-2.4c0.3-0.6,0.7-1.3,1-1.9c0.1,0.2,0.3,0.4,0.5,0.7
	c0,0,0,0,0,0c3.7,5,12.4,16,16.2,15.6c5-0.5,7.1-2.2,7.1-2.2s8,11.9,27.4,8.2c15.5-3,26.8-10.1,30.7-12.8
	C586.6,310,586.7,310.3,586.9,310.6z"/>
<path fill="#FFFFFF" stroke="#000000" stroke-miterlimit="10" d="M609.3,313.6c-1-1-1.7,0-1.9,1.9c-1.9,2-3,3.5-5.8,4
	c-3.5,0.7-12.4-4.8-14.1-7.6c-0.2-0.4-0.5-0.8-0.6-1.2c-0.1-0.3-0.3-0.6-0.3-0.9c-0.6-2-0.2-3.6,1.2-3.6c0,0,10-0.3,12.9,5.8
	c1.2-2,3-3.6,4.8-4.8c1.3-0.4,2.2-1,3.1-1.7c1.6-0.7,3-1,3.3-0.7C612.8,305.2,612.3,310.7,609.3,313.6z"/>
<path fill="#FFFFFF" stroke="#000000" stroke-miterlimit="10" d="M570.6,363.9c-2,4.7-6.9,11.5-8,11.2c-1-0.3-12.8-11-16.4-14.3
	c1.4-1.6,2.6-3,3.5-4c2.3,4.1,6,7.2,12.3,7.7C565.4,364.8,568.1,364.6,570.6,363.9z"/>
<path fill="#FFFFFF" stroke="#000000" stroke-miterlimit="10" d="M602.4,342.6c-3.3,2.2-9.7,6.6-16,11.5c0,0-0.1,0.1-0.1,0.1
	c-3.9,3-7,5.5-10.1,7.3c-1.8,1.1-3.6,1.9-5.6,2.4c-2.5,0.7-5.2,0.9-8.6,0.6c-6.2-0.6-10-3.6-12.3-7.7c-0.5-0.8-0.9-1.6-1.2-2.5
	c0,0,0,0,0,0c-0.8-1.8-1.3-3.8-1.8-5.8c1,0,2,0,3,0c0.2,2.2,1,6.1,4.8,9.8c5.8,5.7,19.4,4.5,28.3-4.4c5.9-5.9,12.5-10.3,16.3-12.6
	c0,0,0,0,0,0C600.2,341.7,601.2,342.2,602.4,342.6z"/>
<path fill="#FFFFFF" stroke="#000000" stroke-miterlimit="10" d="M603.5,345.3c0.1,0.5,2.9,3.9-2.6,5.2c1,0.9,2.1,3.8-1.5,4.9
	c0.7,1.8-1.8,5.9-4.8,6.3c1.4,0.9,0,2.5-1.2,3.4c-0.5,0.4-1,0.6-1.3,0.7c-0.4,0.1-1-0.5-1.8-1.5c-1.1-1.5-2.2-3.8-2.3-5.7
	c0-0.3-0.1-0.7-0.1-1c-0.3-1.4-1-2.6-1.6-3.4c6.3-4.9,12.7-9.2,16-11.5c1.2,0.4,2.4,0.8,3.7,1C605.6,344.3,604.8,345,603.5,345.3z"
	/>
<path fill="#FFFFFF" stroke="#000000" stroke-miterlimit="10" d="M596,379.8c-2.6-1.6-4.5-2.1-5.8-2.2c0-4.5,0.1-10.4,0.2-13.4
	c0.7,1,1.4,1.6,1.8,1.5c0.3-0.1,0.8-0.3,1.3-0.7C594.4,367.7,596.3,373.8,596,379.8z"/>
<path fill="#FFFFFF" stroke="#000000" stroke-miterlimit="10" d="M572.7,554.1c-1.2,1.4-2,2.2-2,2.3c0.2,0-0.2-34.7-12.1-34.9
	c-11.9-0.2-14.7,12.1-16.4,18c-1,3.7-2.7,8.2-5.9,10.6c-1.9,1.4-4.3,2.1-7.5,1.3c-8.3-2.1-11.2-33.8-11.6-35.2
	c-0.5-1.4-18.3-37.5-29-59.9c-2.4-5.1-4.7-11-6.7-17.2c-6.7-21.3-9.8-46.8-2.6-59.3c2.6-4.6,6.8-7.8,11.3-10.1
	c11.3-5.6,25.3-5.1,25.3-5.1c-0.4,0.1-0.9,0.2-1.3,0.4c-1,0.3-2,0.7-2.9,1.2c-14.4,7.4-14.1,32.8-4.8,64.5
	c8.1,27.8,23.3,43.8,36.8,55.9h0c3.3,3,6.5,5.6,9.4,8.2c3,2.6,5.7,5.5,8.1,8.4c10,12,15.4,26,17.1,34.4
	C579.5,544.9,575.3,551.1,572.7,554.1z"/>
<path fill="#FFFFFF" stroke="#000000" stroke-miterlimit="10" d="M543.4,486.6c-13.6-12.1-28.8-28.2-36.8-55.9
	c-9.2-31.7-9.6-57.1,4.8-64.5c2,1,4.7,3.5,8,9.6c6.7,12.5,17.5,39.2,17.4,49.8C536.7,434.4,539.3,470.3,543.4,486.6z"/>
<path fill="#FFFFFF" stroke="#000000" stroke-miterlimit="10" d="M561,503.3c-2.4-3-5.1-5.8-8.1-8.4c-3-2.6-6.1-5.3-9.4-8.2h0
	c-4.2-16.4-6.7-52.2-6.6-61c0.1-10.6-10.7-37.3-17.4-49.8c-3.3-6.1-6-8.6-8-9.6c0.9-0.5,1.8-0.9,2.9-1.2c2.6,0.2,5.4,1.2,8.1,3.3
	c1.6,1.3,3.3,3,4.9,5c0.8,0.9,1.5,1.9,2.3,2.9c0.6,0.9,1.3,1.8,1.9,2.8c5.1,7.9,9.9,18.6,13.6,30.5c0.1,0.3,0.2,0.6,0.3,0.9
	C550.8,429,558.7,473.9,561,503.3z"/>
<path fill="#FFFFFF" stroke="#000000" stroke-miterlimit="10" d="M594.2,404.3c-0.1,0.8-0.6,1.5-2.2,1.5c-0.3,0-0.8,0-1.3,0.1
	c-2.3,0.4-6.3,1.8-10.5,3.6c-6.2,2.7-12.8,6.5-14.7,9.6c-3-4.1-13.2-5.4-18-7.8c-1-0.5-1.9-1.1-2.7-1.8c-3.7-12-8.5-22.6-13.6-30.5
	c7.6,4,13.5,15.6,17.7,22.9c0,0,0,0,0,0c0.7,1.1,1.3,2.2,1.9,3.1c0.3,0.4,0.5,0.8,0.8,1.1c2.1,0,15.7,5.7,16.9,5.2
	c0.5-0.2,1.8-1,3.5-1.9c1-0.5,2-1.2,3.1-1.8c2.1-1.2,4.4-2.5,6.2-3.4c4.5-2.3,9.3-1.6,9.3-1.6c-1.4-2.1,0.1-15.1,0-15.7
	c-0.1-0.6-3.8-0.6-4-2.1c0-0.1,0-0.5,0-1.1c0-0.5,0-1.2,0-2c0.2-5.9,0.9-18.7,1.2-24.2c0.1,0.3,0.1,0.7,0.1,1
	c0.1,1.9,1.2,4.2,2.3,5.7c-0.1,2.9-0.2,8.9-0.2,13.4c0,3.2,0,5.6,0.2,5.6c0.5,0,3.3,0.8,3.6,1.5c0.1,0.4-0.6,3.3-1.1,6.7
	c-0.5,3.3-0.8,7,0.1,9.2C593,400.7,594.4,402.8,594.2,404.3z"/>
<path fill="#FFFFFF" stroke="#000000" stroke-miterlimit="10" d="M613.2,519.6c0.5-22.8,0.6-63-3-80.5c-4.2-20.2-12.2-30.7-16-34.8
	c0.2-1.5-1.2-3.6-1.2-3.6c-0.9-2.2-0.6-5.9-0.1-9.2c3.9,3.4,19.6,19.2,21,49C615.2,466.5,614,499.1,613.2,519.6z"/>
<path fill="#FFFFFF" stroke="#000000" stroke-miterlimit="10" d="M613.2,519.6c0,0.1,0,0.2,0,0.3v0.1c-0.2,6.2-0.4,11.2-0.5,14.6
	c-0.2,0.7-0.5,1.5-0.8,2.3c-3.7,10.2-11.5,25.3-11.5,25.3s0.6,0.4-1.6-0.2c-0.4-0.1-0.9-0.3-1.6-0.5c0.2-5,2.5-40.1-2.5-65.2
	c-4.6-23.1-4-81.2-3.9-90.4c0.5-0.1,1-0.1,1.3-0.1c1.5,0,2.1-0.7,2.2-1.5c3.8,4.1,11.8,14.6,16,34.8
	C613.8,456.5,613.7,496.7,613.2,519.6z"/>
<path fill="#FFFFFF" stroke="#000000" stroke-miterlimit="10" d="M572.7,554.1c-1.2,1.4-2,2.2-2,2.3c0.2,0-0.2-34.7-12.1-34.9
	c-11.9-0.2-14.7,12.1-16.4,18c-1,3.7-2.7,8.2-5.9,10.6c0,2.2,0.2,4.1,0.5,5.8c0.7,3.2,2.1,5.7,3.9,7.5c5.5,5.7,15.3,5.8,23.3,5.5
	c0.3,0,0.6,0,0.9-0.1C572.4,568,573.1,559.7,572.7,554.1z M564.9,568.9c-0.1-2.5-0.1-3.9,0-3.3C565,566.7,565,567.8,564.9,568.9z"/>
<path fill="#FFFFFF" stroke="#000000" stroke-miterlimit="10" d="M597.2,561.5c-24.1-8.7-17.9-133.4-16.9-152
	c4.1-1.8,8.1-3.2,10.5-3.6c-0.1,9.2-0.7,67.3,3.9,90.4C599.7,521.4,597.4,556.5,597.2,561.5z"/>
<path fill="#FFFFFF" stroke="#000000" stroke-miterlimit="10" d="M611.8,571.8c-0.7,8.9-1.3,33-3,38.1c-2.8-0.4-26.2,11-26.2,11
	s-0.4-0.3-1-0.9c-3.6-3.2-15.3-13.5-15.3-14c0-0.2-0.1-3.8-0.3-8.9c-0.1-2.1-0.2-4.4-0.3-6.8c-0.3-7.9-0.6-16.8-0.7-21.5
	c7.5-0.9,8.2-9.2,7.8-14.8c2.6-3,6.8-9.2,5.3-16.5c-1.7-8.4-7.1-22.3-17.1-34.4c-2.3-29.4-10.1-74.2-15.8-92.9
	c-0.1-0.3-0.2-0.6-0.3-0.9c0.8,0.6,1.7,1.2,2.7,1.8c4.8,2.5,15,3.7,18,7.8c1.9-3.2,8.4-6.9,14.7-9.6c-1,18.6-7.2,143.3,16.9,152
	c0.7,0.2,1.2,0.4,1.6,0.5c2.2,0.6,1.6,0.2,1.6,0.2s7.8-15.2,11.5-25.3C612,545.9,612.3,565.1,611.8,571.8z"/>
<path fill="#FFFFFF" stroke="#000000" stroke-miterlimit="10" d="M564.9,568.9c-0.8,7.6-6.8,16.8-11.8,23.1
	c-2.5,3.2-4.8,5.6-6.1,6.7c-1,0.3-1.5,0.7-1,0.7c-7.8,7.6-15.9,18.2-22.4,27.6c3.5-11.1,5.6-19.3,4.5-23c-1.3-4.4-3.8-6.2-6.7-6.3
	c0,0,0,0,0.1-0.1c12.6-12.7,17.5-26.9,19.3-34c5.5,5.7,15.3,5.8,23.3,5.5C564.3,569,564.6,569,564.9,568.9z"/>
<path fill="#FFFFFF" stroke="#000000" stroke-miterlimit="10" d="M540.8,563.5c-1.8,7.1-6.7,21.3-19.3,34c0,0,0,0-0.1,0.1
	c-14,14.2-30.5,35.4-41.9,65.3c2-14.4,4.3-26.7,6.6-34.7c10.9-37.3,29.3-63.8,36.4-69.1c5.1-3.8,11.2-3.5,14.4-3
	C537.6,559.2,539,561.6,540.8,563.5z"/>
<path fill="#FFFFFF" stroke="#000000" stroke-miterlimit="10" d="M551.7,599.9c-5.8,5.1-31.1,64.2-46.2,104.6
	c-0.4,1.2-0.9,2.3-1.3,3.5c-6,16.2-9,32.7-10.3,48.5c-5.6-36.8,19.2-96,29.9-129.5c6.5-9.3,14.6-20,22.4-27.6c0.1,0,0.5-0.2,1-0.7
	C548.5,598.3,550.7,598.2,551.7,599.9z"/>
<path fill="#FFFFFF" stroke="#000000" stroke-miterlimit="10" d="M523.7,627c-10.7,33.5-35.5,92.7-29.9,129.5
	c-0.3,3.5-0.5,7-0.7,10.5v0c-0.1,1.7-0.1,3.3-0.2,4.9c-0.5,14.9,0.1,28.7,0.3,40.5c0,2,0,4,0,5.9c0,0.9-0.1,1.8-0.1,2.8v0
	c-2.4,1.4-4.9,2.1-7.4,2.2c-2.9,0.1-5.7-0.5-8.2-1.5c-4.1-1.6-7.4-4.2-8.7-5.9c-4.5-10.2-1.9-20.4-1.9-20.4s0.7-11.5,2-28.6
	c1-13.4,2.4-30.3,4-47.8c1.8-19.2,4-39.1,6.4-56.1c0,0,0,0,0,0c11.4-29.9,27.9-51.1,41.9-65.3c2.9,0.2,5.4,2,6.7,6.3
	C529.3,607.6,527.2,615.9,523.7,627z"/>
<path fill="none" stroke="#000000" stroke-miterlimit="10" d="M493.1,767C493.1,767,493.1,767,493.1,767"/>
<path fill="#FFFFFF" stroke="#000000" stroke-miterlimit="10" d="M511.5,918.8c-6.2-10.9-10.7-4-12.6-2.1c-0.5,0.5-1,0.6-1.7,0.6v0
	c-0.5-5.6-12.1-17.4-13.1-19.1s1.9-17.3,1.9-30.7c0-10.5-0.4-34.6-0.3-44.2c2.5-0.1,5-0.8,7.4-2.2c-0.3,25.6,7,64.8,8.4,69.2
	c1.5,6.9,4,14.9,5.2,17.6C506.8,907.8,510.3,911.2,511.5,918.8z"/>
<path fill="#FFFFFF" stroke="#000000" stroke-miterlimit="10" d="M497.3,917.2c-2,0-4.8-1.7-7.3,0.2c-6.3-6.2-12.2,1.4-12.2,1.4
	l-10.2-8.3c2.1-6.9-2.8-23-1.2-33.5c1.3-8.6,8.8-43.4,11.3-55.2c2.5,1,5.3,1.6,8.2,1.5c-0.1,9.6,0.3,33.7,0.3,44.2
	c0,13.3-2.9,29-1.9,30.7S496.8,911.6,497.3,917.2z"/>
<path fill="#FFFFFF" stroke="#000000" stroke-miterlimit="10" d="M467.5,910.5c0,0-1.2,1.7-5.7,8.3c-2.4-8.5-7.4-4-7.4-4
	s-2.1-8.3-1.2-14.2c1-6-2.6-3.6-3.3-10.5c-0.7-6.9,6.4-24.7,7.1-30.6c0.7-5.9-4.3-17.1-3.1-19.7c0.8-1.6,1.3-3.7,0.9-8.4
	c4.8-4.6,13.4-14.2,14.1-15.3c1.3,1.7,4.5,4.2,8.7,5.9c-2.5,11.8-10,46.6-11.3,55.2C464.7,887.4,469.7,903.6,467.5,910.5z"/>
<path fill="#FFFFFF" stroke="#000000" stroke-miterlimit="10" d="M469,815.9c-0.7,1.1-9.3,10.7-14.1,15.3c-0.2-2.8-0.8-6.5-1.8-11.5
	c-2.8-13.8,2.8-32.8,5.9-40.6c0.5,14.3,8.1,16.4,8.1,16.4S464.5,805.7,469,815.9z"/>
<path fill="#FFFFFF" stroke="#000000" stroke-miterlimit="10" d="M527,911.9l-20.2-4c-1.2-2.7-3.7-10.7-5.2-17.6
	c1.4,4.5,4.5,4.3,10.5,8.1c5.9,3.8,6.9,1.4,9,3.6c0.7-1.2,6.4,0,6.6,0.7C527.9,903.3,527,911.9,527,911.9z"/>
<path fill="#FFFFFF" stroke="#000000" stroke-miterlimit="10" d="M461.8,918.8c0,0-0.5,1.1-5.8,10.7c-3-6.2-1.5-14.7-1.5-14.7
	S459.5,910.2,461.8,918.8z"/>
<path fill="#FFFFFF" stroke="#000000" stroke-miterlimit="10" d="M490,917.4c0,0-1.7,10.9-6,17c-3.3-4.9-6.2-15.6-6.2-15.6
	S483.7,911.2,490,917.4z"/>
<path fill="#FFFFFF" stroke="#000000" stroke-miterlimit="10" d="M511.5,918.8c0,0-0.8,6-5.9,14c-2.7-4.6-6.7-16.2-6.7-16.2
	C500.8,914.7,505.3,907.8,511.5,918.8z"/>
<path fill="#FFFFFF" stroke="#000000" stroke-miterlimit="10" d="M538.5,912.9c-1.3-1.5-11.5-1-11.5-1s0.9-8.6,0.7-9.3
	C527.7,902.6,532.6,904.6,538.5,912.9z"/>
<path fill="#FFFFFF" stroke="#000000" stroke-miterlimit="10" d="M473.1,719c-1.7,17.5-3,34.4-4,47.8c-4.8-2.7-9.4-2.3-17.2-4.4
	c-9.5-2.6-12.1-11.2-9.7-18.3c1.5-4.4,6-6.9,10.4-9.2c2.7-1.4,5.3-2.8,7-4.5c1.2-1.1,3-2.7,5-4.4c1.7-1.5,3.7-3,5.5-4.5
	C471.1,720.6,472.1,719.8,473.1,719z"/>
<path fill="#FFFFFF" stroke="#000000" stroke-miterlimit="10" d="M464.5,725.9c-2,1.7-3.8,3.3-5,4.4c-1.7,1.7-4.3,3.1-7,4.5
	c-2.2-3.7-4.9-12.6-2.6-31.4c1,3.7,3,7.6,5.4,11.2C458.3,719.1,461.8,723.2,464.5,725.9z"/>
<path fill="#FFFFFF" stroke="#000000" stroke-miterlimit="10" d="M470,721.5c-1.8,1.5-3.8,3-5.5,4.5c-2.7-2.8-6.2-6.8-9.1-11.3
	c0-5.6,0.3-14.4,1.8-22.3C458.6,703.5,466.7,716.6,470,721.5z"/>
<path fill="#FFFFFF" stroke="#000000" stroke-miterlimit="10" d="M574.7,638.9c-3.6,2.8-42.8,43.1-58.8,64.6
	c-16,21.5-15.8,34.9-15.8,48.7c0,5.6,1.2,9.9,2.9,13.7c-2.5,3.4-6.2,9.4-6.8,9c0,0,0,0,0,0c-1.2-3-2.3-5.8-3-7.9v0
	c0.2-3.5,0.4-7,0.7-10.5c1.4-15.7,4.3-32.2,10.3-48.5c0.4-1.1,0.9-2.3,1.3-3.5c13.3-17.6,36.2-37,42.2-48.9c4.6-9.2,8-20.9,9.8-28.2
	C564.4,635.1,574.7,638.9,574.7,638.9z"/>
<path fill="#FFFFFF" stroke="#000000" stroke-miterlimit="10" d="M538.7,809.2c-1.5,2.8-2,8.6-2,8.6s-22.3-2.4-24.2-1.9
	c-1.9,0.5-5.9-0.7-10.9-1.7c-3.5-0.7-6.7-1.4-8.4-1.8c-0.2-11.8-0.7-25.6-0.3-40.5c1,0.8,2.2,1.8,3.2,3c0,0,0,0,0,0c0,0,0,0,0,0
	c1.5,3.5,3.2,7.2,5,9.7c4.6,6.8,4.3,15.3,6.4,16.4C509.7,802.1,532,803.3,538.7,809.2z"/>
<path fill="#FFFFFF" stroke="#000000" stroke-miterlimit="10" d="M544.8,803.8c0,0-1,2.1-3.1,4.5c-1.3-1.2-2.3-0.5-3,0.9
	c-6.6-5.9-29-7.1-31.1-8.2c-2.1-1.1-1.8-9.6-6.4-16.4c-1.8-2.6-3.5-6.2-5-9.7c0.6,0.4,4.3-5.6,6.8-9c2.4,5.6,5.8,9.8,7.8,14.8
	c3.2,8.3,4.6,11.9,8.9,18.3C523.9,805.4,544.8,803.8,544.8,803.8z"/>
<path fill="#FFFFFF" stroke="#000000" stroke-miterlimit="10" d="M603.2,634.2c-5.7,6.1-25.3,7.8-28.5,4.6c0,0-10.3-3.8-17.3-11.5
	c-3.7-4.1-6.5-9.3-6.2-15.6c0.5-11.8,8.9-14.3,14.7-14.5c0.2,5.1,0.3,8.8,0.3,8.9c0,0.5,11.7,10.8,15.3,14c0.6,0.6,1,0.9,1,0.9
	s23.4-11.4,26.2-11C612.9,618.9,608.9,628.2,603.2,634.2z"/>
<path fill="#FFFFFF" stroke="#000000" stroke-miterlimit="10" d="M557.5,627.4c-1.9,7.3-5.2,19.1-9.8,28.2
	c-5.9,11.9-28.9,31.3-42.2,48.9c15.2-40.4,40.5-99.6,46.2-104.6c-1-1.7-3.2-1.5-4.6-1.2c1.3-1.1,3.5-3.5,6.1-6.7
	c6-2.1,10-2.1,12.5-1.6c0.1,2.4,0.2,4.7,0.3,6.8c-5.8,0.3-14.2,2.8-14.7,14.5C551,618.1,553.8,623.3,557.5,627.4z"/>
<path fill="#FFFFFF" stroke="#000000" stroke-miterlimit="10" d="M555.7,815.9c-1.8-0.8-4.6-1.4-6.7-1.8c-6-8.4-10.2-4.9-10.2-4.9
	l0,0c0.8-1.4,1.7-2.1,3-0.9c2.1-2.4,3.1-4.5,3.1-4.5S551,807.6,555.7,815.9z"/>
<path fill="#FFFFFF" stroke="#000000" stroke-miterlimit="10" d="M551.2,817.8c-3.8-0.9-14.5,0-14.5,0s0.5-5.7,2-8.6l0,0
	c0,0,4.2-3.5,10.2,4.9C549.7,815.1,550.4,816.4,551.2,817.8z"/>
<path fill="#FFFFFF" stroke="#000000" stroke-miterlimit="10" d="M625.1,209.3c-0.6,4.2-1.4,7.9-2.1,9.9
	c-2.7,7.1-34.7,14.1-37.9,12.7c-1.7-0.7-6.8-4.6-11.4-8.4c3.1,1,9.9,1.9,12,1.3c1.5-0.5,2.5-2.7,3.2-4.5c0.2-0.5,0.3-0.9,0.4-1.2
	c0.9,0.6,1.8,1.1,2.8,1.5h0c0.9,0.4,1.9,0.7,3,0.9c0.6,0.2,1.3,0.3,1.9,0.3c0.5,0.1,1,0.1,1.5,0.2c0.9,0.1,1.9,0.1,2.8,0.1
	c1.4,0,2.7-0.1,3.9-0.3h0c1.7-0.2,3.2-0.6,4.5-1.2c1.7-0.7,3.1-1.7,4.1-2.9c0.4-0.5,0.8-1,1-1.6c0.6-1.4,1.3-4.1,2.1-7.2
	C619,209.3,623.6,209.3,625.1,209.3z"/>
<path fill="#FFFFFF" stroke="#000000" stroke-miterlimit="10" d="M588.8,220.2c-0.6,1.8-1.7,4-3.2,4.5c-2.1,0.6-8.9-0.3-12-1.3
	c0,0,0,0,0,0c-4.2-3.5-8-7-7.9-7.8c0-0.7-0.6-5.1-1.4-10.1c2.5,1.8,5.5,3,8.1,3.2c2.5,0.1,7.2,0.6,9.9,1.2c0.6,1.4,1.4,2.8,2.2,4.1
	c1,1.5,2.1,2.9,3.4,4C588.1,218.8,588.4,219.5,588.8,220.2z"/>
<path fill="#FFFFFF" stroke="#000000" stroke-miterlimit="10" d="M582.3,209.8c-2.6-0.6-7.4-1.1-9.9-1.2c-2.6-0.1-5.6-1.3-8.1-3.2v0
	c-0.3-2-0.6-4.1-1-6.2c3.6-0.2,9.4-0.3,13,0.8c2.4,3.4,4.7,6.8,5.7,9.2C582.1,209.5,582.2,209.7,582.3,209.8z"/>
<path fill="#FFFFFF" stroke="#000000" stroke-miterlimit="10" d="M627.1,193.7c-0.3,2.2-0.5,4.7-0.8,7.1c-2,1.6-5.7,4.1-8.4,4.5
	c0.3-1.2,0.6-2.5,0.9-3.8C621.3,199.6,624.9,196,627.1,193.7z"/>
<path fill="#FFFFFF" stroke="#000000" stroke-miterlimit="10" d="M626.2,200.8c-0.3,2.9-0.7,5.8-1.1,8.4c-1.5,0-6.1,0-8.1-0.3
	c0.3-1.1,0.6-2.4,0.9-3.6C620.6,204.9,624.2,202.4,626.2,200.8z"/>
<path fill="#FFFFFF" stroke="#000000" stroke-miterlimit="10" d="M576.4,200.1c-3.6-1.1-9.5-1-13-0.8c-0.5-3.4-1.1-6.6-1.4-8.7
	c1.8,0.8,4.2,0.7,7,0.5c1.3,1.2,3,3.2,4.8,5.5C574.6,197.7,575.5,198.9,576.4,200.1z"/>
<path fill="#FFFFFF" stroke="#000000" stroke-miterlimit="10" d="M621.5,191.7c-0.5,1.4-1,3.1-1.5,5.1c-1.8-0.1-3.4,0.2-4.9,0.6
	c-1.1,0.3-2.3,0.7-3.4,1.1c-1,0.4-2.1,0.7-3.1,1.1c-1.4,0.4-3,0.8-4.6,0.9c-0.5,0-1,0.1-1.5,0.1c-0.6,0-1.1,0-1.7,0
	c-1.2-0.1-2.3-0.2-3.4-0.3c-1.6-0.2-3-0.6-4.3-0.9c-1.5-0.4-2.9-0.9-4.3-1.3c-1-0.3-1.9-0.5-2.9-0.8c-0.5-0.1-1.1-0.2-1.7-0.3
	c-3.3-0.4-7.7-0.3-10.5-0.2c-1.8-2.3-3.5-4.3-4.8-5.5c1.6-0.1,3.4-0.3,5.3-0.4h0.1c0.9,0.3,1.8,0.6,2.8,0.9c16,4.1,28.3,4.1,38.5,2
	C617.7,193,619.7,192.4,621.5,191.7z"/>
<path fill="#FFFFFF" stroke="#000000" stroke-miterlimit="10" d="M593.2,199.1c-0.1,1.9-0.4,5.1-0.8,7.6c0,0,0,0,0,0
	c-0.2,1.3-0.6,2.5-0.9,3.2c-1.2-0.6-2.5-2.1-3.2-3c0,0,0,0,0,0c0.5-3.8,0.6-7.3,0.6-9.2C590.3,198.2,591.7,198.7,593.2,199.1z"/>
<path fill="#FFFFFF" stroke="#000000" stroke-miterlimit="10" d="M597.4,200.1c-0.3,1.9-0.8,5.2-1.5,7.9c-0.4,1.3-0.8,2.5-1.3,3.3
	c-1-0.6-1.8-2.8-2.3-4.5c0,0,0,0,0,0c0.5-2.6,0.7-5.7,0.8-7.6C594.5,199.5,595.9,199.8,597.4,200.1z"/>
<path fill="#FFFFFF" stroke="#000000" stroke-miterlimit="10" d="M600.8,200.4c-0.2,1.6-0.8,5-1.5,7.7c-0.3,1.3-0.7,2.5-1,3.2
	c-1-1-1.8-2.2-2.5-3.3c0.8-2.7,1.3-6,1.5-7.9C598.5,200.2,599.6,200.3,600.8,200.4z"/>
<path fill="#FFFFFF" stroke="#000000" stroke-miterlimit="10" d="M604,200.4c0,2-0.2,5.7-1.3,8.9c-0.3,0.9-0.7,1.8-1.2,2.6
	c-0.9-0.8-1.6-2.4-2-3.8c0.6-2.7,1.2-6.1,1.5-7.7c0.5,0,1.1,0,1.7,0C603,200.4,603.5,200.4,604,200.4z"/>
<path fill="#FFFFFF" stroke="#000000" stroke-miterlimit="10" d="M607.6,208.6c-0.8,2.4-1.9,3.2-1.9,3.2c-1.1,0.1-2.4-1.5-3.1-2.6
	c1.1-3.2,1.3-6.9,1.3-8.9c1.7-0.1,3.2-0.5,4.6-0.9C608.8,203.8,608.3,206.7,607.6,208.6z"/>
<path fill="#FFFFFF" stroke="#000000" stroke-miterlimit="10" d="M611.2,208.8c-0.5,1.7-1,2.5-1,2.5l-2.6-2.6c0.7-1.9,1.2-4.9,1-9.2
	c1.1-0.3,2.1-0.7,3.1-1.1C612.3,203.3,611.8,206.7,611.2,208.8z"/>
<path fill="#FFFFFF" stroke="#000000" stroke-miterlimit="10" d="M588.9,197.8c0,1.8-0.2,5.4-0.6,9.2c0,0,0,0,0,0
	c-0.1,1-0.2,2-0.4,3c-0.9-1-1.5-2.5-2-4.3c-1-3.2-1.4-7-1.6-8.9c0.6,0.1,1.2,0.2,1.7,0.3C587,197.3,587.9,197.5,588.9,197.8z"/>
<path fill="#FFFFFF" stroke="#000000" stroke-miterlimit="10" d="M585.8,205.7c-0.4,1.5-1.3,4.8-1.3,8.2c-0.8-1.3-1.5-2.7-2.2-4.1
	c-0.1-0.2-0.2-0.4-0.3-0.6c-1-2.3-3.2-5.8-5.7-9.2c-0.9-1.2-1.8-2.4-2.6-3.5c2.8-0.1,7.2-0.2,10.5,0.2
	C584.4,198.8,584.8,202.5,585.8,205.7z"/>
<path fill="#FFFFFF" stroke="#000000" stroke-miterlimit="10" d="M587.9,218c-1.4-1.2-2.5-2.5-3.4-4c0-3.4,0.9-6.7,1.3-8.2
	c0.5,1.7,1.2,3.3,2,4.3C587.8,210,586.8,214.1,587.9,218z"/>
<path fill="#FFFFFF" stroke="#000000" stroke-miterlimit="10" d="M592,220.6c-1-0.4-2-1-2.8-1.5c-0.5-0.3-0.9-0.7-1.3-1
	c-1.1-3.9-0.1-8-0.1-8c0.2-1,0.3-2,0.4-3c0.7,0.9,1.9,2.4,3.2,3C591.4,210,590.2,215.9,592,220.6z"/>
<path fill="#FFFFFF" stroke="#000000" stroke-miterlimit="10" d="M595.1,221.5c-1.1-0.2-2.1-0.5-3-0.9h0c-1.8-4.7-0.7-10.6-0.7-10.6
	c0.4-0.8,0.7-1.9,0.9-3.2c0.5,1.7,1.3,3.9,2.3,4.5C594.6,211.2,594.3,217.9,595.1,221.5z"/>
<path fill="#FFFFFF" stroke="#000000" stroke-miterlimit="10" d="M598.5,222c-0.5,0-1-0.1-1.5-0.2c-0.7-0.1-1.3-0.2-1.9-0.3
	c-0.7-3.6-0.5-10.3-0.5-10.3c0.5-0.8,0.9-2,1.3-3.3c0.6,1,1.5,2.3,2.5,3.3C598.3,211.2,598.8,218.6,598.5,222z"/>
<path fill="#FFFFFF" stroke="#000000" stroke-miterlimit="10" d="M601.3,222.1c-0.9,0-1.8,0-2.8-0.1c0.3-3.4-0.2-10.8-0.2-10.8
	c0.3-0.7,0.7-1.8,1-3.2c0.5,1.4,1.2,3,2,3.8C601.4,211.8,601.8,218,601.3,222.1z"/>
<path fill="#FFFFFF" stroke="#000000" stroke-miterlimit="10" d="M605.2,221.8L605.2,221.8c-1.2,0.2-2.6,0.3-3.9,0.3
	c0.5-4.1,0.1-10.2,0.1-10.2c0.5-0.8,0.9-1.7,1.2-2.6c0.7,1.1,2,2.7,3.1,2.6C605.7,211.8,606.1,217.7,605.2,221.8z"/>
<path fill="#FFFFFF" stroke="#000000" stroke-miterlimit="10" d="M609.7,220.6c-1.3,0.5-2.8,0.9-4.5,1.2c0.9-4.1,0.5-10,0.5-10
	s1-0.8,1.9-3.2l2.6,2.6C610.2,211.2,610.8,216.5,609.7,220.6z"/>
<path fill="#FFFFFF" stroke="#000000" stroke-miterlimit="10" d="M634.5,184.6c-1.9,8-4.9,21.2-7.6,32.3
	c-4.2,17.4-27.7,33.7-54.7,13.6c-14.6-10.9-21.5-41.1-29.8-66.3c5.6,7.3,14.8,17.7,16.6,23.3c0.6,1.7,1.5,2.6,2.9,3.2
	c0.3,2.1,0.9,5.3,1.4,8.7c0.3,2,0.7,4.2,1,6.2v0c0.8,5.1,1.4,9.4,1.4,10.1c0,0.9,3.7,4.3,7.9,7.8c0,0,0,0,0,0
	c4.6,3.8,9.7,7.7,11.4,8.4c3.2,1.4,35.2-5.5,37.9-12.7c0.8-2,1.5-5.7,2.1-9.9c0.4-2.7,0.8-5.6,1.1-8.4c0.3-2.5,0.6-4.9,0.8-7.1v0
	c0.3-2.3,0.5-4.4,0.7-6c0.1,0,0.1-0.1,0.2-0.2C629.8,187,632.3,186.1,634.5,184.6z"/>
<path fill="#FFFFFF" stroke="#000000" stroke-miterlimit="10" d="M613.7,210c-0.8,0.3-1.7-0.5-2.4-1.2c0.6-2,1.1-5.4,0.5-10.4
	c1.1-0.4,2.2-0.8,3.4-1.1C615.3,199.4,615.3,203.7,613.7,210z"/>
<path fill="#FFFFFF" stroke="#000000" stroke-miterlimit="10" d="M613.8,217.8c-1,1.2-2.4,2.2-4.1,2.9c1.1-4.1,0.5-9.4,0.5-9.4
	s0.5-0.8,1-2.5c0.7,0.8,1.7,1.5,2.4,1.2C613.7,210,614.2,214.4,613.8,217.8z"/>
<path fill="#FFFFFF" stroke="#000000" stroke-miterlimit="10" d="M620,196.8c-0.4,1.5-0.8,3.1-1.2,4.8c-0.3,1.3-0.6,2.5-0.9,3.8
	c-0.3,1.2-0.6,2.5-0.9,3.6c-0.8,3.1-1.5,5.7-2.1,7.2c-0.2,0.6-0.6,1.1-1,1.6c0.3-3.4-0.2-7.8-0.2-7.8c1.7-6.3,1.6-10.6,1.5-12.7
	C616.6,196.9,618.2,196.7,620,196.8z"/>
<path fill="#FFFFFF" stroke="#000000" stroke-miterlimit="10" d="M627.8,187.7c-0.2,1.7-0.5,3.7-0.7,6v0c-2.2,2.2-5.8,5.9-8.3,7.9
	c0.4-1.7,0.8-3.3,1.2-4.8c0.5-1.9,1-3.7,1.5-5.1C624,190.6,626.1,189.3,627.8,187.7z"/>
<path fill="#FFFFFF" stroke="#000000" stroke-miterlimit="10" d="M549.7,356.8c-0.9,1-2.1,2.4-3.5,4c-1.2,1.3-2.5,2.7-3.8,4.2
	c-4.5,4.8-9.7,9.8-12.9,11.3c-0.7-1-1.5-2-2.3-2.9c7.6-3.9,17.8-15,21.3-19C548.8,355.2,549.2,356,549.7,356.8z"/>
<path fill="#FFFFFF" stroke="#000000" stroke-miterlimit="10" d="M573.3,397.9c-2.1,3.5-1.6,8.7-1.1,11.5c-1.7,1-3,1.7-3.5,1.9
	c-1.2,0.5-14.8-5.2-16.9-5.2c-0.2-0.3-0.5-0.7-0.8-1.1c4.4-1.6,4.3-5.7,6.5-10.3c2.3-5,6.2-7.7,11.2-12.3c1.6-1.5,4.2-1.8,7-1.6
	C576.2,384.8,576.1,393.3,573.3,397.9z"/>
<path fill="#FFFFFF" stroke="#000000" stroke-miterlimit="10" d="M575.9,397.7c-1.8,3.1-1.1,7.8-0.6,9.8c-1.1,0.6-2.2,1.2-3.1,1.8
	c-0.5-2.8-1-7.9,1.1-11.5c2.8-4.6,2.9-13.1,2.4-17.1c0.7,0,1.3,0.1,2,0.2C577.7,382.8,578.1,394,575.9,397.7z"/>
<path fill="#FFFFFF" stroke="#000000" stroke-miterlimit="10" d="M590.8,402.5c0,0-4.8-0.7-9.3,1.6c-1.8,1-4.1,2.2-6.2,3.4
	c-0.5-2-1.2-6.7,0.6-9.8c2.2-3.8,1.8-14.9,1.7-16.7c3.6,0.6,7.2,1.9,9.1,2.6c0,0.6,0,0.9,0,1.1c0.2,1.5,3.9,1.5,4,2.1
	C590.9,387.5,589.3,400.4,590.8,402.5z"/>
<path fill="#FFFFFF" stroke="#000000" stroke-miterlimit="10" d="M587.9,357.5c-0.3,5.4-1,18.2-1.2,24.2c-4.1-2.2-12.8-5.1-19.5-1.8
	c2.6-3.2,7.2-14.1,8.9-18.3c3.1-1.8,6.2-4.3,10.1-7.3c0,0,0.1-0.1,0.1-0.1C587,355,587.6,356.2,587.9,357.5z"/>
<path fill="#FFFFFF" stroke="#000000" stroke-miterlimit="10" d="M549.1,401.9c-4.2-7.3-10.1-19-17.7-22.9c-0.6-1-1.2-1.9-1.9-2.8
	c3.3-1.5,8.4-6.5,12.9-11.3c0,0,12,8.5,14.7,13.7C559.1,382.6,552.6,395.6,549.1,401.9z"/>
<path fill="#FFFFFF" stroke="#000000" stroke-miterlimit="10" d="M586.8,381.7c0,0.8,0,1.5,0,2c-1.9-0.7-5.5-2-9.1-2.6
	c-0.7-0.1-1.3-0.2-2-0.2c-2.8-0.2-5.4,0.1-7,1.6c-5,4.6-8.8,7.3-11.2,12.3c-2.2,4.6-2.1,8.7-6.5,10.3c-0.6-0.9-1.2-1.9-1.9-3.1
	c0,0,0,0,0,0c3.5-6.3,10-19.4,8-23.3c-2.7-5.2-14.7-13.7-14.7-13.7c1.4-1.5,2.7-2.9,3.8-4.2c3.6,3.3,15.3,14,16.4,14.3
	c1.1,0.3,6-6.5,8-11.2c2-0.5,3.8-1.4,5.6-2.4c-1.7,4.2-6.3,15.2-8.9,18.3C573.9,376.5,582.7,379.5,586.8,381.7z"/>
<path fill="#FFFFFF" stroke="#000000" stroke-miterlimit="10" d="M456.2,373.4c-0.1-0.2-0.4-0.5-0.7-0.8
	c-2.8-2.7-12.4-8.9-16.8-13.7c-3.1-0.3-5.7-0.7-7.2-0.9c-0.5-0.1-1-0.2-1.5-0.4c-2.1,2.2-5.9,7.1-9.4,15c-2.3,5.3-4.5,12-5.9,20.2
	c-0.8,4.9-1.3,10.3-1.3,16.3c-0.2,37.5,5.9,60.1,5.9,60.1s13.3-7.6,21.5,1.6c0,0,0.1,0.1,0.3,0.3c0,0.1,0.1,0.1,0.2,0.2
	c2.5-6.8,4.2-22,5.4-35.8v0c0.9-10.1,1.4-19.4,1.8-24.2c1-11.4,0.4-27.2,6.1-30.9C460.3,376.8,457.6,375.9,456.2,373.4z M443.5,432
	c-1.1,8.9-2.2,16.4-2.8,19.3c-1.8,7.7-6.4,6.3-6.4,6.3s-4.9,1.9-8.4-3.8c-3-4.8-2.5-28.3-1.8-48.3c0.1-3.8,0.2-7.5,0.4-10.8
	c0.2-4.9,0.6-8.7,1.2-11.6c2.1-9.8,6.5-10,9.5-10c3.9,0,10.5,4.3,11.4,16.3C447.1,396.8,445.3,416.6,443.5,432z"/>
<path fill="#FFFFFF" stroke="#000000" stroke-miterlimit="10" d="M443.5,432c-1.1,8.9-2.2,16.4-2.8,19.3c-1.8,7.7-6.4,6.3-6.4,6.3
	s-4.9,1.9-8.4-3.8c-3-4.8-2.5-28.3-1.8-48.3c0.1-3.8,0.2-7.5,0.4-10.8c0.2-4.9,0.6-8.7,1.2-11.6c2.1-9.8,6.5-10,9.5-10
	c3.9,0,10.5,4.3,11.4,16.3C447.1,396.8,445.3,416.6,443.5,432z"/>
<path fill="#FFFFFF" stroke="#000000" stroke-miterlimit="10" d="M430,357.6c-2.1,2.2-5.9,7.1-9.4,15c-0.8-2.5-1.3-5.2-1.2-7.8
	c0.2-6.4,5.1-10.9,8-13C426.8,354.5,427.4,356.6,430,357.6z"/>
<path fill="#FFFFFF" stroke="#000000" stroke-miterlimit="10" d="M431.6,341.1c-1,2.3-1.8,4.2-2.5,5.5c-0.9,1.8-1.6,3.6-1.8,5.2
	c-2.9,2.1-7.8,6.5-8,13c-0.1,2.6,0.4,5.3,1.2,7.8c-2.3,5.3-4.5,12-5.9,20.2c-6.7-9-13-17.3-16.6-21.4c15.9-7.9,24.1-23.7,28-34.8
	C428.3,338.2,430.1,339.7,431.6,341.1z"/>
<path fill="#FFFFFF" stroke="#000000" stroke-miterlimit="10" d="M426.2,336.6c-4,11.1-12.1,26.9-28,34.8c-0.3-0.4-0.6-0.7-0.9-1
	c-2.4-2.6-12.4-9.4-26-18c28.5-4.7,33.6-19.8,33.5-29.8C414.1,327.8,421,332.6,426.2,336.6z"/>
<path fill="#FFFFFF" stroke="#000000" stroke-miterlimit="10" d="M404.7,322.5c0.1,10-4.9,25.1-33.5,29.8
	c-10.9-7-24.2-15.1-37.6-23.4c27.8-1.7,34.8-15.1,36.5-22.9c1,0.4,2.1,0.9,3.2,1.4C386,312.7,396.4,317.8,404.7,322.5z"/>
<path fill="#FFFFFF" stroke="#000000" stroke-miterlimit="10" d="M370.1,306c-1.7,7.8-8.7,21.3-36.5,22.9h0
	c-13.3-8.2-26.8-16.5-38.5-23.8c27.7,3.9,45.4-4.8,52.9-9.6C353.7,298.6,361.1,302.1,370.1,306z"/>
<path fill="#FFFFFF" stroke="#000000" stroke-miterlimit="10" d="M348,295.5c-7.5,4.9-25.2,13.5-52.9,9.6c0,0,0,0,0,0
	c-17.1-10.7-30.4-19.1-33.3-21.9c-9.5-9.1-8.6-17.4-8.3-20c0.2-2.6,8.5-11.4,13.5-14.3c0.9-0.5,4.4-0.6,9.6-0.4
	c-0.3,11.6,5.1,39,61.2,40.5C340.1,290.9,343.5,293.1,348,295.5z"/>
<path fill="#FFFFFF" stroke="#000000" stroke-miterlimit="10" d="M337.8,289c-56.1-1.5-61.5-28.9-61.2-40.5c7.6,0.3,18.7,1.2,31,1.8
	c-11.8,18.8,18.3,30.5,27.3,33.4C334.1,285,335.1,286.8,337.8,289z"/>
<path fill="#FFFFFF" stroke="#000000" stroke-miterlimit="10" d="M353.7,281.5c-2.6,0.1-5.2,0.2-7.8,0.1c-6.4-0.1-10,0.6-11,2.2
	c-9-3-39.1-14.7-27.3-33.4h0c8.6,0.5,17.8,0.8,26.6,0.9C336,259.8,340.8,273.4,353.7,281.5z"/>
<path fill="#FFFFFF" stroke="#000000" stroke-miterlimit="10" d="M385.9,275.8c-9.6,3-21,5.1-32.2,5.7h0
	c-13-8.1-17.7-21.7-19.4-30.3c10.3,0.1,20.1-0.3,28.1-1.6h0C364.6,257.5,370.5,270.8,385.9,275.8z"/>
<path fill="#FFFFFF" stroke="#000000" stroke-miterlimit="10" d="M413.9,259.9c-3.4,3.2-6.8,5.8-9.3,7.5c-4.2,3-10.8,6-18.6,8.4h0
	c-15.4-5-21.4-18.3-23.6-26.2c4.5-0.7,8.5-1.7,11.6-3c3.4-1.4,6.2-3,8.5-4.7C385.5,248.5,394.7,263,413.9,259.9z"/>
<path fill="#FFFFFF" stroke="#000000" stroke-miterlimit="10" d="M413.9,259.9c-19.2,3.1-28.3-11.4-31.5-18
	c4.2-3.1,6.6-6.6,7.3-10.4c9.6,3.1,27.7,7,36.2-3.3C428.4,242.4,421.2,252.9,413.9,259.9z"/>
<path fill="#FFFFFF" stroke="#000000" stroke-miterlimit="10" d="M425.8,228.1c-8.4,10.4-26.6,6.4-36.2,3.3
	c0.8-4.2-0.3-8.7-3.4-13.3c16.7-3.8,19.3-15.7,19.2-23.3c2.9,2.9,5.5,5.8,7.9,8.8C420.8,212.8,424.6,221,425.8,228.1z"/>
<path fill="#FFFFFF" stroke="#000000" stroke-miterlimit="10" d="M386.3,218.2c-3-4.6-7.8-9.3-14.4-13.9
	c13.1-5.8,13.7-20.3,13.2-27.1c7.6,5.8,14.5,11.7,20.4,17.7C405.6,202.5,403,214.5,386.3,218.2z"/>
<path fill="#FFFFFF" stroke="#000000" stroke-miterlimit="10" d="M371.9,204.3c-1.7-1.2-3.5-2.4-5.4-3.6
	c-5.9-3.7-13.5-8.5-21.9-13.9c20.5-5.4,22.5-16.8,22.1-22.3c6.4,4.1,12.5,8.4,18.2,12.8C385.6,184,385,198.4,371.9,204.3z"/>
<path fill="#FFFFFF" stroke="#000000" stroke-miterlimit="10" d="M344.7,186.8c-7.2-4.6-15-9.5-23-14.3c14.3-4,20.5-16.4,22.4-21.4
	c7.8,4.2,15.4,8.6,22.7,13.3C367.2,170,365.2,181.4,344.7,186.8z"/>
<path fill="#FFFFFF" stroke="#000000" stroke-miterlimit="10" d="M344.1,151.1c-1.9,4.9-8.1,17.4-22.4,21.4h0
	c-7.7-4.6-15.5-9.1-23-13.1c9.9-6.2,16.3-14.7,19.8-20.6C327.1,142.5,335.7,146.6,344.1,151.1z"/>
<path fill="#FFFFFF" stroke="#000000" stroke-miterlimit="10" d="M318.5,138.8c-3.5,5.9-9.9,14.4-19.8,20.6
	c-8.4-4.5-16.6-8.4-23.8-11.2c10.5-5.3,14-14.5,15.2-20.1C299.3,131,308.9,134.6,318.5,138.8z"/>
<path fill="#FFFFFF" stroke="#000000" stroke-miterlimit="10" d="M290.1,128.1c-1.2,5.5-4.8,14.8-15.2,20.1h0
	c-5.8-2.2-11-3.7-15.4-4.2c8.6-10.1,10-17,9.4-21.3c0.2,0,0.3,0.1,0.5,0.1C276,124,282.9,125.9,290.1,128.1z"/>
<path fill="#FFFFFF" stroke="#000000" stroke-miterlimit="10" d="M259.5,144c-1.5-0.2-3-0.2-4.3-0.2c-3.9,0.2-7.4,0.9-10.4,1.8
	c1.9-11.2-1.3-19.8-4.4-24.9c8-0.8,17.5-0.3,28.6,1.9C269.4,126.9,268.1,133.9,259.5,144z"/>
<path fill="#FFFFFF" stroke="#000000" stroke-miterlimit="10" d="M235,150.4c-7.7,5.5-10.3,12.5-10.3,12.5s-16.4-18.5-26.9-8.3
	c2.4-6.7,5.9-13.5,11.2-19.3C216.1,135.4,229,137.4,235,150.4z"/>
<path fill="#FFFFFF" stroke="#000000" stroke-miterlimit="10" d="M244.7,145.6c-3.9,1.2-7.1,2.9-9.7,4.8c-6-13-18.9-15-26-15.2
	c6.8-7.4,16.7-13,31.2-14.5C243.4,125.9,246.6,134.5,244.7,145.6z"/>
<path fill="#FFFFFF" stroke="#000000" stroke-miterlimit="10" d="M470.6,445.8c-1.4,0.4-3,0.6-4.6,0.6c-4.4,0-8.9-2.2-12.7-5.1
	c-7.8-40.1,3.8-53.2,10.2-57.2c0.1,0.4,0.2,0.7,0.4,1.1c1,2.6,2.8,3.6,4.4,4C465.2,400.2,459.2,428,470.6,445.8z"/>
<path fill="#FFFFFF" stroke="#000000" stroke-miterlimit="10" d="M548.5,354.3C548.5,354.3,548.5,354.3,548.5,354.3
	c-3.5,4-13.6,15.1-21.3,19c-1.6-2-3.3-3.6-4.9-5c-2.7-2.1-5.5-3.1-8.1-3.3c0.4-0.1,0.8-0.2,1.3-0.4c0,0-14-0.5-25.3,5.1
	c2.5-5.3,12.7-16.5,17.7-21.6c2.3,4.3,8.3,6.6,9.2,6.8c1,0.2,7.4-4.9,11.4-8.2l1.2,1.2c0,0,7.6,0.5,16.9,0.5h0
	C547.1,350.5,547.7,352.4,548.5,354.3z"/>
<path fill="#FFFFFF" stroke="#000000" stroke-miterlimit="10" d="M528.6,346.8c-4,3.3-10.4,8.5-11.4,8.2c-0.9-0.2-6.9-2.6-9.2-6.8
	c-1.3-2.4-1.4-5.3,1.2-8.9c4.3-6,8.6-6.5,11.2-6c4.4,6.2,5,10.2,5,10.2L528.6,346.8z"/>
<path fill="#FFFFFF" stroke="#000000" stroke-miterlimit="10" d="M590.7,336c-2.1,1-7.3,3.6-14.6,8.2c-4.8,3.1-16.2,4-26.4,4.2
	c-1,0-2,0-3,0h0c-9.2,0-16.9-0.5-16.9-0.5l-1.2-1.2l-3.2-3.2c0,0-0.6-4-5-10.2c-0.7-1-1.5-2-2.4-3.1c5.7,2.7,9.3,1.4,9.3,1.4
	s16.2,7.7,27.3,7.7c11.2,0,21.4-4.8,26.3-7.7c0.1-0.1,0.2-0.1,0.3-0.2C584,333.5,588,335.6,590.7,336z"/>
<path fill="#FFFFFF" stroke="#000000" stroke-miterlimit="10" d="M520.4,333.4c-2.7-0.5-6.9,0-11.2,6c-2.5,3.5-2.4,6.5-1.2,8.9
	c-5,5.1-15.3,16.3-17.7,21.6c-4.5,2.2-8.6,5.5-11.3,10.1c-7.2,12.5-4.1,38.1,2.6,59.3c-2.5,2.5-6,5.5-10.9,6.7
	c-11.4-17.8-5.4-45.6-2.4-56.7c1.2,0.3,2.2,0.2,2.6,0.2c1,0-4.2-10.3,9.7-36.5c10.2-19.2,23.1-27.6,29.2-30.6
	c0.6,0.4,1.2,0.8,1.8,1.2c0,0,0,0,0,0c1.1,1.2,2.2,2.4,3.5,3.6c1,1.1,2,2.2,2.8,3.2l0,0C518.9,331.3,519.7,332.4,520.4,333.4z"/>
<path fill="#FFFFFF" stroke="#000000" stroke-miterlimit="10" d="M453.3,441.3c-2.5-1.8-4.7-3.9-6.6-5.8v0
	c0.9-10.1,1.4-19.4,1.8-24.2c1-11.4,0.4-27.2,6.1-30.9c5.7-3.7,3-4.5,1.6-7c-0.1-0.2-0.4-0.5-0.7-0.8c0.6-1.5,1.1-3.2,1.5-5
	c3.2,4.6,5.4,12.3,6.6,16.5C457.1,388.2,445.5,401.2,453.3,441.3z"/>
<path fill="#FFFFFF" stroke="#000000" stroke-miterlimit="10" d="M224.7,162.9c-7.1,9.9-10.7,27.2-13.9,36.1
	c-0.4-0.6-0.7-1.1-1.1-1.5v0c-5.3-6.4-11.8-2-14.3,0.1h0c-0.4,0.4-0.7,0.7-0.9,0.8c0.4-0.5,1.6-2.7,3.3-12.9c2-12.1,0-30.9,0-30.9
	C208.3,144.4,224.7,162.9,224.7,162.9z"/>
<path fill="#FFFFFF" stroke="#000000" stroke-miterlimit="10" d="M206.7,225.2c-0.2-0.2-0.4-0.4-0.5-0.6c-0.2-0.2-0.4-0.4-0.6-0.7
	c-8.6-9.6-10.7-21.7-11.1-24.8c0.3-0.6,0.6-1.2,0.9-1.7h0c2.5-2.1,9-6.5,14.3-0.1v0C209.9,203,210.1,216.7,206.7,225.2z"/>
<path fill="#FFFFFF" stroke="#000000" stroke-miterlimit="10" d="M206.2,224.6c-0.4,1.1-1.2,2-2.8,1.5c-3.2-1.1-12.8-8.7-11.8-17.5
	c0.5-3.8,1.7-7,2.9-9.4c0.4,3.1,2.4,15.2,11.1,24.8C205.7,224.2,205.9,224.4,206.2,224.6z"/>
<path fill="#FFFFFF" stroke="#000000" stroke-miterlimit="10" d="M535.8,241.4c-10.6-13.8-9.9-18.1-8-19.8
	c1.9-1.7,7.3,5.7,13.1,16.1C546.7,248.2,546.3,255.2,535.8,241.4z"/>
</svg>
