<?xml version="1.0" encoding="utf-8"?>
<!-- Generator: Adobe Illustrator 25.2.0, SVG Export Plug-In . SVG Version: 6.00 Build 0)  -->
<svg version="1.1" baseProfile="tiny" id="Layer_1" xmlns="http://www.w3.org/2000/svg" xmlns:xlink="http://www.w3.org/1999/xlink"
	 x="0px" y="0px" viewBox="0 0 1000 1000" overflow="visible" xml:space="preserve">
<path fill="#FFFFFF" stroke="#000000" stroke-miterlimit="10" d="M500.9,134.62c0,0-2.37-0.93-5.75-2.18
	c-3.61-1.36-8.38-3.11-12.56-4.54c-2.13-0.73-4.11-1.38-5.72-1.87c-7.72-2.29-14.01-17.15-30.32-16.01
	c-16.3,1.14-23.74,12.58-23.74,12.58s-4.62,0.76-10.58,2.74c-5.01,1.66-10.97,4.19-15.93,7.85c-0.63,0.46-1.23,0.93-1.81,1.42
	c-4.32-16.1-9.74-24.51-13.94-28.87c6.24-4.08,29.53-17.89,58.84-17.76c32.33,0.16,50.89,18.48,60.17,33.31
	C500.15,127.47,500.9,134.62,500.9,134.62z"/>
<path fill="#FFFFFF" stroke="#000000" stroke-miterlimit="10" d="M373.54,184.39c-2.8,8.47-6.8,15.35-9.15,20.42
	c1.42-4.43,2.5-8.49,2.5-10.62c0-6.22,0-27.68-8.16-34.12c0.01-0.11,0.02-0.22,0.04-0.32c1.25-0.05,2.12-0.1,2.12-0.1h-2.11
	c1.1-9.9,3.17-18.38,5.56-25.48c3.92,2.21,9.61,8.02,11.85,23.19C377.7,167.61,376.12,176.67,373.54,184.39z"/>
<path fill="#FFFFFF" stroke="#000000" stroke-miterlimit="10" d="M397.64,199.29l-13.74-0.59l-10.36-14.3
	c2.58-7.73,4.17-16.78,2.65-27.04c-2.24-15.17-7.92-20.97-11.85-23.19c6.18-18.25,14.57-27.3,14.57-27.3s0.57-0.41,1.65-1.12
	c4.2,4.36,9.62,12.77,13.94,28.87c0.58-0.49,1.18-0.96,1.81-1.42C398.6,153.57,397.89,189.34,397.64,199.29z"/>
<path fill="#FFFFFF" stroke="#000000" stroke-miterlimit="10" d="M513.15,186.6c-1.17,3.33-4.74,13.24-6.58,15.31h-7.43
	c0.57-6.58,3.88-49.09-3.98-69.47c3.38,1.25,5.75,2.18,5.75,2.18s-0.76-7.15-1.34-13.31c3.72,5.93,5.95,11.32,6.99,14.75
	c1.28,4.23,3.14,14.42,4.61,27.11v0.01C512.02,170.39,512.74,178.41,513.15,186.6z"/>
<path fill="#FFFFFF" stroke="#000000" stroke-miterlimit="10" d="M487.08,201.91h-7.56l-20.81,17.38c-3.5,0.39-6.49,0.57-8.97,0.61
	c-4.68,0.11-7.6-0.23-8.93-0.45l0.6-2.46l-17.46-16.59l-8.2-0.35c3.25-36.28-1.44-64.54-3.53-74.72c5.96-1.99,10.58-2.74,10.58-2.74
	s7.44-11.44,23.74-12.58c16.31-1.14,22.61,13.72,30.32,16.01c1.61,0.48,3.59,1.13,5.72,1.87
	C484.88,135.01,489.62,155.89,487.08,201.91z"/>
<path fill="#FFFFFF" stroke="#000000" stroke-miterlimit="10" d="M415.76,200.07l-18.12-0.78c0.25-9.94,0.96-45.72-1.34-66.09
	c4.96-3.66,10.92-6.19,15.93-7.85C414.31,135.53,419.01,163.79,415.76,200.07z"/>
<path fill="#FFFFFF" stroke="#000000" stroke-miterlimit="10" d="M423.96,200.42l-8.2-0.35l-18.12-0.78l-13.74-0.59l-4.57,18.31
	l32.9,22.88l25.17-6.58l3.41-13.84l0.6-2.46L423.96,200.42z M437.4,225.3c0,0-23.74,5.44-32.03,3.43
	c-8.31-2-15.46-12.58-15.46-12.58l2.01-11.16c0,0,18.31,0,26.6,1.14c8.29,1.14,18.88,14.59,18.88,14.59V225.3z"/>
<path fill="#FFFFFF" stroke="#000000" stroke-miterlimit="10" d="M437.4,220.73v4.57c0,0-23.74,5.44-32.03,3.43
	c-8.31-2-15.46-12.58-15.46-12.58l2.01-11.16c0,0,18.31,0,26.6,1.14C426.82,207.28,437.4,220.73,437.4,220.73z"/>
<path fill="#FFFFFF" stroke="#000000" stroke-miterlimit="10" d="M499.13,201.91c-0.06,0.57-0.08,0.87-0.08,0.87s-6.01,1.07-12.01,0
	c0.01-0.29,0.04-0.58,0.05-0.87h-7.56l-20.81,17.38l0.87,9.88c0,0,22.52,10.28,27.03,8.57c4.5-1.72,19.96-15.88,19.96-15.88v-19.96
	H499.13z M495.82,220.8c0,0-2.32,11.06-14.37,11.8c-12.05,0.73-19.31-5.57-19.31-5.57v-7.09c0,0,16.1-14.39,33.68-13.09
	C497.98,211.14,495.82,220.8,495.82,220.8z"/>
<path fill="#FFFFFF" stroke="#000000" stroke-miterlimit="10" d="M495.82,220.8c0,0-2.32,11.06-14.37,11.8
	c-12.05,0.73-19.31-5.57-19.31-5.57v-7.09c0,0,16.1-14.39,33.68-13.09C497.98,211.14,495.82,220.8,495.82,220.8z"/>
<path fill="#FFFFFF" stroke="#000000" stroke-miterlimit="10" d="M499.13,201.91h-12.05c2.54-46.02-2.2-66.9-4.49-74.01
	c4.18,1.43,8.94,3.18,12.56,4.54C503.01,152.82,499.7,195.33,499.13,201.91z"/>
<path fill="#FFFFFF" stroke="#000000" stroke-miterlimit="10" d="M358.78,159.66c0,0.04-0.01,0.06-0.01,0.1
	c-2.56,0.08-6.69,0.19-8.04-0.1c0.43-5.3-3.14-12.59-3.14-12.59l0.05-0.61l3.38-40.73h4.57l2.07,53.93H358.78z"/>
<path fill="#FFFFFF" stroke="#000000" stroke-miterlimit="10" d="M366.89,194.19c0,2.13-1.08,6.19-2.5,10.62
	c-0.01,0.02-0.01,0.04-0.02,0.06c-2.73,8.49-6.71,18.29-6.71,18.29s0.06,4.65,2.2,11.51c-2.8,2.47-6.58,4.57-8.57,6.93
	c-2.08,2.49-5.2,2.97-7.78,0.06c-1.13-1.28-2.17-3.21-2.95-5.92c-2.56-8.86-0.13-76.37,0.72-82.96c0.57-4.39,4.08-5.85,6.34-6.33
	l-0.05,0.61c0,0,3.58,7.3,3.14,12.59c1.35,0.29,5.48,0.18,8.04,0.1c-0.01,0.11-0.02,0.22-0.04,0.32
	C366.89,166.52,366.89,187.97,366.89,194.19z"/>
<path fill="#FFFFFF" stroke="#000000" stroke-miterlimit="10" d="M448.63,262.63c-21.89-1.29-39.69,20.38-39.69,20.38
	s-3.14-1.16-7.95-3.67c0.25-3.01,0.77-7.03,1.79-8.56c-4.86-2.58-26.01-27.12-26.01-27.12l-0.88,17.14
	c-0.72-0.72-1.43-1.48-2.14-2.25c-7.81-8.56-11.83-17.25-13.89-23.88c-2.14-6.86-2.2-11.51-2.2-11.51s3.97-9.8,6.71-18.29
	c0.01-0.02,0.01-0.04,0.02-0.06c2.35-5.07,6.34-11.94,9.15-20.42l10.36,14.3l-4.57,18.31l32.9,22.88l25.17-6.58l3.41-13.84
	c1.34,0.22,4.25,0.55,8.93,0.45C450.21,227.53,451.23,248.85,448.63,262.63z"/>
<path fill="#FFFFFF" stroke="#000000" stroke-miterlimit="10" d="M402.79,270.78c-1.02,1.53-1.54,5.55-1.79,8.56
	c-6.55-3.44-16.2-9.44-25.1-18.54l0.88-17.14C376.78,243.66,397.93,268.21,402.79,270.78z"/>
<path fill="#FFFFFF" stroke="#000000" stroke-miterlimit="10" d="M408.94,283.01c-5.78,5.86-10,15.79-10.58,16.58v0.01
	c-0.02,0.02-0.04,0.04-0.05,0.04c-0.28,0-9.9-5.67-20.51-12.7c-7.97-5.27-16.52-11.3-22.07-16.26c-7.17-9.45-10.7-22.01-12.22-29.01
	c2.58,2.91,5.69,2.43,7.78-0.06c1.99-2.36,5.77-4.47,8.57-6.93c2.06,6.63,6.08,15.32,13.89,23.88c0.71,0.77,1.42,1.53,2.14,2.25
	c8.9,9.1,18.55,15.1,25.1,18.54C405.8,281.86,408.94,283.01,408.94,283.01z"/>
<path fill="#FFFFFF" stroke="#000000" stroke-miterlimit="10" d="M485.1,290.09c-0.1,0.96-0.53,2.01-1.19,3.12
	c-1.77,2.99-5.27,6.33-8.69,9.17c-4.18,3.47-8.25,6.2-8.9,6.63c2.88-5.54,3.49-18.86-4.92-24.61c-8.8-6.01-22.21-2.9-30.67,5.57
	c-6.12,6.12-7.66,15.73-8.03,20.86c-6.58-1.11-19.33-8.32-24.33-11.24v-0.01c0.58-0.78,4.8-10.71,10.58-16.58
	c0,0,17.8-21.67,39.69-20.38c20.16,0.85,32.61,19.09,32.61,19.09s0.64-0.55,1.73-1.64c0.48,0.95,0.96,2.06,1.35,3.29
	c0.07,0.22,0.13,0.43,0.2,0.66v0.01C485.04,285.89,485.33,287.96,485.1,290.09z"/>
<path fill="#FFFFFF" stroke="#000000" stroke-miterlimit="10" d="M509.34,236.88c-2.4,7.37-5.45,13.95-8.67,19.63
	c-6.85,12.16-14.39,20.28-17.7,23.57c-1.1,1.08-1.73,1.64-1.73,1.64s-12.45-18.24-32.61-19.09c2.6-13.78,1.58-35.1,1.11-42.72
	c2.48-0.05,5.47-0.23,8.97-0.61l0.87,9.88c0,0,22.52,10.28,27.03,8.57c4.5-1.72,19.96-15.88,19.96-15.88v-19.96
	c1.84-2.07,5.42-11.98,6.58-15.31C514.09,204.98,513.48,224.17,509.34,236.88z"/>
<path fill="#FFFFFF" stroke="#000000" stroke-miterlimit="10" d="M526.65,234.17c-0.24,2.84-0.65,5.65-1.2,8.43
	c-0.07,0.4-0.16,0.79-0.24,1.18c-0.07,0.39-0.17,0.78-0.26,1.18c0,0.02-0.01,0.04-0.01,0.06c-4.82,19.78-23.29,36.32-29.85,41.68
	l-9.75-3.02c5.96-2.74,15.16-8.28,21.24-18.12c-2.07-3.9-4.13-6.86-5.89-9.04c3.21-5.68,6.27-12.27,8.67-19.63
	c4.14-12.71,4.74-31.9,3.8-50.28c-0.41-8.19-1.13-16.2-1.97-23.43v-0.01l3.03-9.09C514.21,154.07,529.23,203.99,526.65,234.17z"/>
<path fill="#FFFFFF" stroke="#000000" stroke-miterlimit="10" d="M524.93,245.02c-4.13,18.05-13.94,34.31-21.55,45.22
	c-0.78,1.11-1.53,2.17-2.25,3.17h-0.01c-2.28,3.15-4.25,5.72-5.65,7.56l0.42-14.01l-0.82-0.25
	C501.64,281.34,520.12,264.8,524.93,245.02z"/>
<path fill="#FFFFFF" stroke="#000000" stroke-miterlimit="10" d="M506.56,265.56c-6.08,9.84-15.28,15.37-21.24,18.12l-1-0.3
	c-0.39-1.23-0.87-2.34-1.35-3.29c3.31-3.29,10.85-11.41,17.7-23.57C502.43,258.7,504.49,261.66,506.56,265.56z"/>
<path fill="#FFFFFF" stroke="#000000" stroke-miterlimit="10" d="M495.9,286.95l-0.42,14.01l-11.57-7.75
	c0.66-1.11,1.1-2.15,1.19-3.12c0.23-2.13-0.06-4.2-0.57-6.04v-0.01c0.25-0.11,0.52-0.23,0.79-0.36l9.75,3.02L495.9,286.95z"/>
<path fill="#FFFFFF" stroke="#000000" stroke-miterlimit="10" d="M556.4,320.56c0,0-1.97-1.43-5.57-2.85
	c-5.84-2.29-15.96-4.53-28.89-0.47c0.99-9.92-14.58-20.15-20.8-23.84c0.72-1,1.47-2.06,2.25-3.17c7.21,1.3,25.58,4.86,38.43,9.4
	C558.12,305.4,556.4,320.56,556.4,320.56z"/>
<path fill="#FFFFFF" stroke="#000000" stroke-miterlimit="10" d="M521.94,317.24c-5.73,1.79-12.01,4.82-18.73,9.62
	c-0.94-0.04-1.9-0.12-2.9-0.25v-10.65l-25.09-13.57c3.42-2.84,6.92-6.19,8.69-9.17l11.57,7.75c1.4-1.84,3.37-4.41,5.65-7.56h0.01
	C507.36,297.08,522.92,307.32,521.94,317.24z"/>
<path fill="#FFFFFF" stroke="#000000" stroke-miterlimit="10" d="M466.32,309.01c-0.06,0.04-0.1,0.06-0.1,0.06
	c1.07-16.62-11.69-18.77-15.23-19.31c-3.54-0.53-16.95,1.61-17.82,13.3c-0.83,11.35,6.51,14.34,6.95,14.51
	c-9.93-0.95-15.59-4.86-17.13-6.67c-0.1-0.01-0.2-0.04-0.3-0.06c0.37-5.13,1.91-14.75,8.03-20.86c8.46-8.47,21.87-11.58,30.67-5.57
	C469.81,290.15,469.2,303.48,466.32,309.01z"/>
<path fill="#FFFFFF" stroke="#000000" stroke-miterlimit="10" d="M450.99,289.77c-3.54-0.53-16.95,1.61-17.82,13.3
	c-0.83,11.35,6.51,14.34,6.95,14.51c2.5,0.25,5.26,0.3,8.29,0.08c0.16-0.01,0.3-0.02,0.46-0.04h0.01c8.7-0.71,13.17-3.56,15.36-5.79
	c0.01,0,0.01,0,0.01,0c0.84-0.84,1.36-1.6,1.65-2.11c0.23-0.41,0.31-0.65,0.31-0.65C467.29,292.45,454.53,290.31,450.99,289.77z
	 M448.79,315.95c-6.81,0-7.51-4.61-7.51-4.61c0.28,0,16.53,0,16.53,0S455.6,315.95,448.79,315.95z M441.92,299.52
	c0,0,0.87-5.89,7.79-5.89c6.91,0,8.9,5.59,8.9,5.59L441.92,299.52z"/>
<path fill="#FFFFFF" stroke="#000000" stroke-miterlimit="10" d="M458.6,299.22l-16.68,0.3c0,0,0.87-5.89,7.79-5.89
	C456.62,293.63,458.6,299.22,458.6,299.22z"/>
<path fill="#FFFFFF" stroke="#000000" stroke-miterlimit="10" d="M457.81,311.34c0,0-2.2,4.61-9.02,4.61
	c-6.81,0-7.51-4.61-7.51-4.61C441.56,311.34,457.81,311.34,457.81,311.34z"/>
<path fill="#FFFFFF" stroke="#000000" stroke-miterlimit="10" d="M448.87,317.62c-10.04,4.07-26.94,9.74-42.4,9.23
	c-20.9-0.7-28.74-14.35-30.4-17.79c0-0.01,0-0.01,0-0.01c-0.23-0.51-0.34-0.78-0.34-0.78l1.36-14.06l0.7-7.27
	c10.62,7.03,20.24,12.7,20.51,12.7c0.01,0,0.02-0.01,0.05-0.04c5,2.93,17.74,10.14,24.33,11.24c0.1,0.02,0.2,0.05,0.3,0.06
	c1.54,1.81,7.2,5.72,17.13,6.67c2.5,0.25,5.26,0.3,8.29,0.08C448.57,317.65,448.72,317.63,448.87,317.62z"/>
<path fill="#FFFFFF" stroke="#000000" stroke-miterlimit="10" d="M377.1,294.21l-3.24-5.19l-28.33,14.63c0,0,0.24,7.76,0.99,14.36
	c0.46,4.18,1.11,7.87,2.02,8.85c15.99-3.94,23.07-9.14,23.38-9.27c0.18-0.08,2.34-4.63,4.15-8.52c0-0.01,0-0.01,0-0.01
	c-0.23-0.51-0.34-0.78-0.34-0.78L377.1,294.21z M349.94,323.14c0,0-0.23-5.26,1.28-7.19c1.5-1.94,14.7-5.59,14.7-5.59l2.58,5.59
	L349.94,323.14z"/>
<path fill="#FFFFFF" stroke="#000000" stroke-miterlimit="10" d="M368.5,315.95l-18.55,7.19c0,0-0.23-5.26,1.28-7.19
	c1.5-1.94,14.7-5.59,14.7-5.59L368.5,315.95z"/>
<path fill="#FFFFFF" stroke="#000000" stroke-miterlimit="10" d="M500.3,315.95v10.65c-13.8-1.81-31.97-12.33-36.04-14.77
	c0.84-0.84,1.36-1.6,1.65-2.11c0.14-0.22,0.28-0.46,0.41-0.71c0.65-0.43,4.72-3.17,8.9-6.63L500.3,315.95z"/>
<path fill="#FFFFFF" stroke="#000000" stroke-miterlimit="10" d="M550.83,317.71c-3.24,1.77-9.4,6.63-15.17,19.56
	c-14.77,1.5-63.35,6.72-92.61,8.17c-20.79,1.05-30.43,8.6-36.13,18.45c-1.2-0.52-2.58-0.95-4.13-1.29c-0.6-0.13-1.18-0.22-1.76-0.25
	c-1.73-19.9-61.53-29.05-77.8-30.87c4.5-5.33,8.49-8.97,11.12-11.15l2.91-0.57h0.01l9.25-1.77c0.46,4.18,1.11,7.87,2.02,8.85
	c15.99-3.94,23.07-9.14,23.38-9.27c0.18-0.08,2.34-4.63,4.15-8.52c1.66,3.44,9.5,17.09,30.4,17.79c15.46,0.51,32.36-5.16,42.4-9.23
	h0.01c8.7-0.71,13.17-3.56,15.36-5.79c0.01,0,0.01,0,0.01,0c4.07,2.44,22.25,12.97,36.04,14.77c1,0.13,1.96,0.22,2.9,0.25
	c6.72-4.8,13-7.82,18.73-9.62C534.86,313.18,544.99,315.42,550.83,317.71z"/>
<path fill="#FFFFFF" stroke="#000000" stroke-miterlimit="10" d="M333.99,311.34c-2.59,1.7-8.13,5.59-14.71,11.89
	c-13,12.46-30.08,34.38-36.72,67.49c-4.13-1.29-7.75-2.72-10.91-4.2c-11.2-5.18-16.34-10.61-16.34-10.61s-13.1,3.27-25.22,11.83
	c0,0-0.01,0.01-0.04,0.02c-0.19,0.11-1.28,0.72-3.02,1.73c1.16-23.64,36.02-61.86,37.29-62.62c1.29-0.75,8.15-0.31,12.23-2.03
	c4.07-1.71,10.29-3.85,17.37-7.04c7.08-3.19,11.8-2.82,18.45-3.47C319.04,313.7,327.41,309.26,333.99,311.34z"/>
<path fill="#FFFFFF" stroke="#000000" stroke-miterlimit="10" d="M334.35,320.35c-2.64,2.18-6.62,5.81-11.12,11.15
	c-2.03,2.43-4.19,5.2-6.37,8.35c-7.7,11.12-15.77,26.88-20.78,48.23c-1.81,7.7-3.3,14.83-4.48,21.4c-0.59,3.24-1.1,6.33-1.53,9.31
	c-4.56,31.24-1.11,48.88,8.87,59.97c0,0-1.11-0.23-2.8-1.24c-4.08-2.46-11.56-9.46-14.96-28.78c-1.66-9.38-2.35-21.67-1.22-37.76
	c0.11-1.59,0.24-3.21,0.39-4.88c0.48-5.37,1.23-10.5,2.21-15.37c6.63-33.11,23.72-55.03,36.72-67.49L334.35,320.35z"/>
<path fill="#FFFFFF" stroke="#000000" stroke-miterlimit="10" d="M359.87,445.86v20.62l-8.29,2.26v-16.59l-61.5-33.37
	c0.43-2.97,0.94-6.07,1.53-9.31L359.87,445.86z"/>
<path fill="#FFFFFF" stroke="#000000" stroke-miterlimit="10" d="M778.07,594.88c-13.35,10.29-36.16,19.63-48.04,24.11
	c-1.54-2.65-2.76-4.77-3.56-6.22c-7.08-12.64-11.79-10.94-27-31.49c13.37-8.08,47.85-29.48,58.73-33.13
	c6.28,9.96,11.35,18.76,13.76,23.07c-2.31,2.66-3.88,4.61-3.88,4.61L778.07,594.88z"/>
<path fill="#FFFFFF" stroke="#000000" stroke-miterlimit="10" d="M758.2,548.14c-10.88,3.65-45.36,25.05-58.73,33.13
	c-0.01-0.01-0.02-0.04-0.04-0.05c-2.07-2.79-4.07-5.74-6-8.75c11.75-8.63,43.12-26.85,59.04-33.15
	C754.45,542.3,756.38,545.27,758.2,548.14z"/>
<path fill="#FFFFFF" stroke="#000000" stroke-miterlimit="10" d="M752.47,539.32c-15.91,6.31-47.29,24.52-59.04,33.15
	c-2-3.11-3.9-6.27-5.69-9.4c13.37-8.79,43.27-27.01,58.11-33.33C748.11,532.88,750.34,536.1,752.47,539.32z"/>
<path fill="#FFFFFF" stroke="#000000" stroke-miterlimit="10" d="M745.85,529.74c-14.84,6.32-44.73,24.55-58.11,33.33
	c-2.17-3.78-4.18-7.51-5.99-11c8.93-4.62,44.73-23.04,59.08-29.08C742.51,525.16,744.2,527.42,745.85,529.74z"/>
<path fill="#FFFFFF" stroke="#000000" stroke-miterlimit="10" d="M740.83,522.98c-14.35,6.04-50.15,24.46-59.08,29.08
	c-2.8-5.42-5.13-10.28-6.79-13.92c11.21-2.19,46.01-9.64,61.74-20.31C738.08,519.48,739.45,521.2,740.83,522.98z"/>
<path fill="#FFFFFF" stroke="#000000" stroke-miterlimit="10" d="M837.11,707.43c-14.1-1.34-29.72,3.2-31.26,3.38
	c0,0-13.09-3.86-23.81-12.66c-4.33-3.55-13.11-16.13-22.48-30.7c13.84-5.5,37.17-15.41,44.79-22.48L837.11,707.43z"/>
<path fill="#FFFFFF" stroke="#000000" stroke-miterlimit="10" d="M858.33,703.3l-11.08,6.44c-2.02-0.82-4.19-1.41-6.43-1.81
	c-1.22-0.22-2.47-0.39-3.72-0.51l-32.76-62.45l-26.28-50.1l-9.99-19.06c0,0,1.57-1.95,3.88-4.61c3.09-3.58,7.51-8.43,11.28-11.65
	c2.38-2.05,4.5-3.43,5.87-3.43c2.77,0,22.5,42.39,40.18,81.67c-10.29-2.3-18.59,8.02-18.59,8.02l5.43,11.08
	c0,0,11.2-7.74,17.42-9.61c5.95,13.28,11.47,25.76,15.79,35.55c0.3,0.69,0.71,1.6,1.18,2.68c0.08,0.18,0.17,0.36,0.24,0.55
	c0.75,1.67,1.61,3.67,2.5,5.69c0.16,0.35,0.31,0.71,0.46,1.06c0.47,1.06,0.94,2.12,1.37,3.12c0.16,0.34,0.3,0.67,0.43,0.99
	c1.04,2.37,1.93,4.39,2.41,5.5c0.04,0.08,0.07,0.16,0.1,0.23c0.07,0.14,0.12,0.28,0.17,0.37c0.04,0.08,0.07,0.16,0.08,0.2
	C858.32,703.28,858.33,703.3,858.33,703.3z"/>
<path fill="#FFFFFF" stroke="#000000" stroke-miterlimit="10" d="M833.56,647.28c-6.22,1.87-17.42,9.61-17.42,9.61l-5.43-11.08
	c0,0,8.29-10.32,18.59-8.02C830.73,640.98,832.16,644.15,833.56,647.28z"/>
<path fill="#FFFFFF" stroke="#000000" stroke-miterlimit="10" d="M804.35,644.98c-7.62,7.07-30.95,16.97-44.79,22.48
	c-11.12-17.3-23.11-37.4-29.53-48.47c11.88-4.48,34.69-13.82,48.04-24.11L804.35,644.98z"/>
<path fill="#FFFFFF" stroke="#000000" stroke-miterlimit="10" d="M783.24,559.55c-3.77,3.23-8.19,8.08-11.28,11.65
	c-2.41-4.31-7.48-13.11-13.76-23.07c-1.82-2.88-3.74-5.84-5.73-8.82c-2.13-3.21-4.36-6.44-6.62-9.58c-1.65-2.31-3.33-4.57-5.02-6.75
	c-1.37-1.78-2.74-3.5-4.13-5.14c-4.91-5.91-9.76-10.8-14.1-13.64c-6.97-16.69-25.65-40.95-36.98-51.87
	c5.04-4.36,8.38-9.99,8.67-15.91c0,0,36.46,46.34,55.77,69.08C765.3,523.44,778.4,549.41,783.24,559.55z"/>
<path fill="#FFFFFF" stroke="#000000" stroke-miterlimit="10" d="M694.29,436.42c-0.29,5.92-3.62,11.56-8.67,15.91
	c-6.07,5.28-14.63,8.75-23.31,8.75c-15.88,0-33.03-9.65-49.13-20.25c-10.35-6.81-20.51-11.75-26.46-14.41
	c2.85-4.43,8.03-12.33,8.66-12.33c0.85,0,67.37,4.08,68.87-9c0.07-1.22,0.02-2.61-0.12-4.14
	C673.73,419.23,694.29,436.42,694.29,436.42z"/>
<path fill="#FFFFFF" stroke="#000000" stroke-miterlimit="10" d="M664.25,405.09c-1.5,13.09-68.02,9-68.87,9
	c-0.63,0-5.8,7.9-8.66,12.33c-1.11,1.72-1.87,2.91-1.87,2.91l-34.38-3.08c-6.37-15.63-11.53-34.9-10.45-53.14
	c1.78-30.23,13.09-47.64,16.78-52.58c4.2-0.19,39.79-1.35,65.38,13.96c25,14.96,40.26,49.43,41.94,66.45
	C664.28,402.48,664.32,403.88,664.25,405.09z"/>
<path fill="#FFFFFF" stroke="#000000" stroke-miterlimit="10" d="M530.98,413.16c0,0-6.9-0.2-14.05,0
	C509.78,413.35,421.1,445,421.1,445l-2.8,21.57l-0.06,0.45h-21.78c0.84-8.61,4.62-46.94,4.74-55.33
	c6.57-5.14,14.46-19.85,14.46-28.48c0-4.47-0.19-8.62-1.56-12.06c1.66-3.47,5.25-9.76,10.15-11.4
	c6.66-2.22,86.86-18.71,109.11-16.81c-1.67,4.53-3.27,9.82-4.71,16.02C524.93,375.07,526.18,394.4,530.98,413.16z"/>
<path fill="#FFFFFF" stroke="#000000" stroke-miterlimit="10" d="M535.66,337.27c-0.78,1.73-1.55,3.62-2.3,5.67
	c-22.26-1.9-102.46,14.59-109.11,16.81c-4.9,1.64-8.49,7.93-10.15,11.4c-1.22-3.08-3.37-5.59-7.17-7.25
	c5.69-9.86,15.34-17.41,36.13-18.45C472.31,343.99,520.89,338.77,535.66,337.27z"/>
<path fill="#FFFFFF" stroke="#000000" stroke-miterlimit="10" d="M401.2,411.69c-0.12,8.39-3.9,46.72-4.74,55.33h-7.2
	c0,0,0.01-0.25,0.04-0.72v-0.07c0-0.07,0.01-0.16,0.01-0.23v-0.01c0-0.01,0-0.01,0-0.01c0-0.08,0.01-0.17,0.01-0.26
	s0.01-0.19,0.01-0.3c0.4-6.37,1.9-30.5,4.37-51.49c1.7,0.19,3.43-0.1,5.08-0.76C399.55,412.84,400.37,412.35,401.2,411.69z"/>
<path fill="#FFFFFF" stroke="#000000" stroke-miterlimit="10" d="M545.08,449.25c-18.96,9.1-87.59,38.17-101.49,44.05l-18.98-20.84
	l-1.5-2.01l3.11-19.57c0,0,89.88-35.71,106.31-32.09C535.67,429.49,539.96,439.88,545.08,449.25z"/>
<path fill="#FFFFFF" stroke="#000000" stroke-miterlimit="10" d="M570.14,479.92c-21.9,17.44-74.97,42.13-90.14,49.03
	c-2.62,1.19-4.12,1.85-4.12,1.85l-0.22,2.84l-4.2,54.38l-5.66-4.53c1.76-29.85,3.19-55.71,3.07-59.23
	c24.91-9.58,80.23-41.16,95.01-49.68c1.6,1.54,3.24,2.97,4.9,4.3C569.23,479.25,569.69,479.6,570.14,479.92z"/>
<path fill="#FFFFFF" stroke="#000000" stroke-miterlimit="10" d="M468.87,524.27c0.12,3.52-1.31,29.37-3.07,59.23l-22.97-18.36
	l6.01-66.08l3.72,3.6h0.01l11.69,11.27c0,0,64.79-24.41,94.6-44.61c1.64,1.87,3.31,3.64,5.02,5.27
	C549.11,483.11,493.78,514.69,468.87,524.27z"/>
<path fill="#FFFFFF" stroke="#000000" stroke-miterlimit="10" d="M558.86,469.32c-29.81,20.2-94.6,44.61-94.6,44.61l-11.69-11.27
	c11.57-5.1,83.28-36.84,97.43-45.2C552.77,461.76,555.74,465.73,558.86,469.32z"/>
<path fill="#FFFFFF" stroke="#000000" stroke-miterlimit="10" d="M550,457.46c-14.14,8.37-85.86,40.1-97.43,45.2h-0.01l-3.72-3.6
	l-5.25-5.77c13.9-5.87,82.53-34.95,101.49-44.05C546.65,452.09,548.27,454.83,550,457.46z"/>
<path fill="#FFFFFF" stroke="#000000" stroke-miterlimit="10" d="M430.82,557.85l-18.66,17.97l-15.3,0.65l3.07,66.76h40.34
	c0,0,1.34-64.57,2.56-78.09L430.82,557.85z M435.26,638.94l-29.33,1.5l-2.43-58l10.16-0.42c0,0,13.16-12.74,15.45-13.59
	c2.29-0.85,6.15,0.58,6.15,0.58V638.94z"/>
<path fill="#FFFFFF" stroke="#000000" stroke-miterlimit="10" d="M532.52,418.78c-16.43-3.61-106.31,32.09-106.31,32.09l-3.11,19.57
	l-4.8-3.88l2.8-21.57c0,0,88.67-31.65,95.82-31.84c7.15-0.2,14.05,0,14.05,0C531.46,415.04,531.98,416.91,532.52,418.78z"/>
<path fill="#FFFFFF" stroke="#000000" stroke-miterlimit="10" d="M581.98,484.06c-2.84,0.75-6.68-0.34-11.85-4.14
	c-0.45-0.32-0.9-0.67-1.36-1.04c-1.66-1.32-3.3-2.76-4.9-4.3c-1.71-1.64-3.38-3.41-5.02-5.27c-3.12-3.59-6.09-7.56-8.86-11.86
	c-1.72-2.62-3.35-5.37-4.91-8.21c-5.13-9.37-9.41-19.75-12.57-30.47c-0.54-1.87-1.06-3.74-1.54-5.62
	c-4.79-18.76-6.04-38.09-2.32-54.2c1.43-6.2,3.03-11.5,4.71-16.02c0.75-2.05,1.52-3.94,2.3-5.67c5.77-12.93,11.93-17.79,15.17-19.56
	c3.6,1.42,5.57,2.85,5.57,2.85s0.14-0.01,0.41-0.02c-3.7,4.95-15,22.36-16.78,52.58c-1.08,18.24,4.08,37.51,10.45,53.14
	c2.68,6.65,5.6,12.63,8.34,17.6c3.64,6.58,6.97,11.39,9.1,13.58c5.08,5.24,6.62-2.03,7.08-7.27c4.8,2.17,9.74,4.72,14.34,7.63
	C589.92,468.61,589.17,482.17,581.98,484.06z"/>
<path fill="#FFFFFF" stroke="#000000" stroke-miterlimit="10" d="M575,450.16c-0.46,5.24-2,12.51-7.08,7.27
	c-2.13-2.19-5.47-6.99-9.1-13.58C563.38,445.37,569.08,447.48,575,450.16z"/>
<path fill="#FFFFFF" stroke="#000000" stroke-miterlimit="10" d="M736.7,517.84c-15.73,10.67-50.54,18.12-61.74,20.31
	c-1.91-4.14-2.99-6.69-2.99-6.69s-12.3-13.95-24.74-23.39c-12.45-9.44-28.69-21.45-44.99-39.69c-3.53-3.95-8.02-7.48-12.91-10.58
	c-4.6-2.91-9.53-5.47-14.34-7.63c-5.92-2.68-11.62-4.79-16.18-6.31c-2.74-4.97-5.66-10.95-8.34-17.6l34.38,3.08
	c0,0,0.76-1.19,1.87-2.91c5.95,2.66,16.11,7.6,26.46,14.41c16.1,10.59,33.25,20.25,49.13,20.25c8.68,0,17.24-3.47,23.31-8.75
	c11.33,10.92,30.01,35.19,36.98,51.87C726.93,507.04,731.79,511.93,736.7,517.84z"/>
<path fill="#FFFFFF" stroke="#000000" stroke-miterlimit="10" d="M282.57,390.72c-0.99,4.88-1.73,10-2.21,15.37
	c-0.14,1.66-0.28,3.29-0.39,4.88c-10.73,1.61-32.85,4.92-36.51,5.14c-3.68,0.2-29.33,0.1-41.57,0.04l-1.01-10.89
	c2.29-1.44,4.56-2.85,6.77-4.21c5.28-1.06,16.3-3.11,37.25-6.48c14.23-2.29,22.25-5.32,26.77-8.04
	C274.81,388,278.44,389.43,282.57,390.72z"/>
<path fill="#FFFFFF" stroke="#000000" stroke-miterlimit="10" d="M201.98,417.25l-20.32,15.16l-10.74-3.66c0,0-0.05-0.01-0.13-0.04
	l-1.71-0.59c6.66-6.39,19.55-15.14,31.79-22.87l1.01,10.89L201.98,417.25z"/>
<path fill="#FFFFFF" stroke="#000000" stroke-miterlimit="10" d="M271.66,386.52c-4.53,2.72-12.54,5.75-26.77,8.04
	c-20.95,3.37-31.96,5.42-37.25,6.48c8.23-5.04,15.49-9.28,19.41-11.53c-0.02,0.19-0.04,0.39-0.04,0.57c1.01-0.81,2.03-1.56,3.06-2.3
	c0.02-0.01,0.04-0.02,0.04-0.02c12.12-8.56,25.22-11.83,25.22-11.83S260.46,381.34,271.66,386.52z"/>
<path fill="#FFFFFF" stroke="#000000" stroke-miterlimit="10" d="M195.4,501.06c0,0-4.15,8.55-13.3,14.93
	c-15.04-8.05-36.67-42.9-41.16-50.3c5.71-1.94,10.06-5.61,11.29-10.92c0.89-0.04,1.7-0.06,2.41-0.06c8.64,0,7.97-8.81,5.59-13.17
	c-0.14-0.25-0.29-0.49-0.43-0.71c3.3,0.57,5.92-0.61,7.5-2.59c4.27,3.62,13.56,12.28,18.96,23.49
	C193.44,476.64,198.97,493.09,195.4,501.06z"/>
<path fill="#FFFFFF" stroke="#000000" stroke-miterlimit="10" d="M182.1,515.99c-5.06,3.54-11.63,6.42-19.88,6.81
	c-0.6,0.02-1.23,0.05-1.84,0.06c-21.39,0.22-45.35-13.87-53.46-39.17c0-0.01,0-0.01,0-0.01c-0.51-1.6-0.95-3.24-1.34-4.92
	c-0.01-0.04-0.01-0.06-0.02-0.1c-4.3-19.12-5.66-44.72-3.33-63.79c-0.25,2.66-3.01,41.42,12.15,48.79
	c8.39,4.08,18.76,4.67,26.57,2.03C145.43,473.08,167.06,507.93,182.1,515.99z"/>
<path fill="#FFFFFF" stroke="#000000" stroke-miterlimit="10" d="M154.64,454.71c-0.71,0-1.52,0.02-2.41,0.06
	c-10.44,0.46-31.58,3.24-37.64-0.06c-6.57-3.58-7.01-15.16-0.43-17.01c0.43-0.12,0.99-0.22,1.66-0.3c8.5-0.96,34.71,1.66,44.41,4.14
	C162.61,445.9,163.28,454.71,154.64,454.71z"/>
<path fill="#FFFFFF" stroke="#000000" stroke-miterlimit="10" d="M152.23,454.77c-1.23,5.31-5.59,8.98-11.29,10.92
	c-7.81,2.64-18.18,2.05-26.57-2.03c-15.16-7.37-12.4-46.13-12.15-48.79c0-0.05,0.01-0.08,0.01-0.11c0.84-6.9,2.17-12.93,4-17.49
	c0.82-2.05,1.75-3.79,2.78-5.19c4.13-5.59,8.73-9.06,13.68-11.03c-5.68,7.63,0.24,16.54,3.35,17.31c0.17,0.04,0.39,0.1,0.65,0.16
	c-2.48-0.37-5.04-0.28-8.52,1.42c-6.18,3.01-7.82,15.97,5.36,18.62c-1.75-0.29-3.01-0.46-3.64-0.46c-4.62,0-14.12,13.41-4.07,19.3
	c-0.67,0.08-1.23,0.18-1.66,0.3c-6.57,1.85-6.14,13.43,0.43,17.01C120.65,458.01,141.79,455.23,152.23,454.77z"/>
<path fill="#FFFFFF" stroke="#000000" stroke-miterlimit="10" d="M166.07,426.98c0.29,0.26,0.54,0.54,0.78,0.83
	c-9.47-2.15-32.95-7.46-42.87-9.16c-0.16-0.02-0.31-0.06-0.47-0.08c-13.18-2.65-11.53-15.61-5.36-18.62
	c3.48-1.7,6.04-1.79,8.52-1.42c0.88,0.19,2.3,0.47,4.11,0.82c0.04,0.01,0.07,0.01,0.11,0.02c10.77,2.07,34.9,6.33,40.03,7.16
	c3.01,0.48,4.45,1.31,5.14,2.06c-1,0.26-2.09,0.4-3.26,0.36C177.38,412.39,177.38,426.26,166.07,426.98z"/>
<path fill="#FFFFFF" stroke="#000000" stroke-miterlimit="10" d="M176.06,408.58c-0.69-0.75-2.13-1.58-5.14-2.06
	c-5.13-0.83-29.25-5.09-40.03-7.16c-0.04-0.01-0.07-0.01-0.11-0.02c-1.43-0.29-2.76-0.63-4.11-0.82c-0.26-0.06-0.48-0.12-0.65-0.16
	c-3.11-0.77-9.03-9.68-3.35-17.31c5.89-2.36,12.28-2.58,19-1.7h0.01c0.93,0.12,1.84,0.26,2.78,0.42c2.4,0.41,4.84,0.88,7.28,1.41
	c5.71,1.24,11.39,2.83,16.26,4.85c1.01,0.42,1.99,0.85,2.91,1.31c3.49,1.7,6.43,3.66,8.44,5.93
	C184.82,399.41,182.36,406.85,176.06,408.58z"/>
<path fill="#FFFFFF" stroke="#000000" stroke-miterlimit="10" d="M281.18,448.73c-6.09,4.57-34.57,25.57-52.88,33.45
	c-20.6,8.86-32.9,18.88-32.9,18.88c3.58-7.97-1.96-24.43-9.15-39.33c-5.41-11.21-14.69-19.86-18.96-23.49
	c2.15-2.68,2.38-6.85-0.2-10.17c-0.07-0.08-0.14-0.18-0.23-0.26c2.11,0.48,3.52,0.81,3.94,0.9c0.08,0.02,0.13,0.04,0.13,0.04
	l10.74,3.66l20.32-15.16l-0.1-1.11c12.24,0.06,37.88,0.17,41.57-0.04c3.66-0.22,25.79-3.53,36.51-5.14
	C278.83,427.06,279.52,439.35,281.18,448.73z"/>
<path fill="#FFFFFF" stroke="#000000" stroke-miterlimit="10" d="M167.29,438.25c-1.58,1.97-4.2,3.15-7.5,2.59
	c0.14,0.22,0.29,0.46,0.43,0.71c-9.7-2.48-35.91-5.1-44.41-4.14c-10.05-5.89-0.55-19.3,4.07-19.3c0.63,0,1.89,0.17,3.64,0.46
	c0.16,0.02,0.31,0.06,0.47,0.08c9.92,1.7,33.39,7.01,42.87,9.16c0.08,0.08,0.16,0.18,0.23,0.26
	C169.67,431.4,169.44,435.56,167.29,438.25z"/>
<path fill="#FFFFFF" stroke="#000000" stroke-miterlimit="10" d="M343.72,684.63c0,0-10.3,31.54-3.86,42.27l-7.3-4.72l-28.33-0.59
	l1.75-13.09l0.01-0.05l3.62-27.12l2.74,0.23l9.52,0.78l0.23,0.01l15.95,1.31l5.66,0.47V684.63z"/>
<path fill="#FFFFFF" stroke="#000000" stroke-miterlimit="10" d="M346.17,718.97l-0.31,3l1.5,1.72l-6.1,2.61l-1.41,0.6
	c-6.44-10.73,3.86-42.27,3.86-42.27v-0.49l6.01,0.49l-0.33,3.12L346.17,718.97z"/>
<rect x="436.62" y="683.36" fill="#FFFFFF" stroke="#000000" stroke-miterlimit="10" width="6.21" height="36.46"/>
<polygon fill="#FFFFFF" stroke="#000000" stroke-miterlimit="10" points="488.53,718.97 486.64,719 449.71,719.82 449.71,682.49 
	459.78,681.79 464.26,681.48 484.64,680.05 486.6,679.91 486.86,684.93 488.34,714.93 "/>
<polygon fill="#FFFFFF" stroke="#000000" stroke-miterlimit="10" points="514.06,716.61 491.37,719.12 491.17,714.84 489.71,684.78 
	489.47,679.91 496.62,679.66 511.85,679.11 512.1,683.46 513.91,714.04 "/>
<path fill="#FFFFFF" stroke="#000000" stroke-miterlimit="10" d="M595.8,714.99c0,0-11.15,12.56-14.37,15.55
	c-3.21,3.01-4.5,1.5-13.51,0c-1.34-0.22-2.96-0.46-4.77-0.7c-0.88-0.12-1.79-0.23-2.74-0.35c0,0,8.15-19.55,8.43-21.38
	C584.74,709.25,595.8,714.99,595.8,714.99z"/>
<path fill="#FFFFFF" stroke="#000000" stroke-miterlimit="10" d="M568.84,708.12c0.14-0.98-2.97-15.02-6.27-28.61
	c9.27,0.52,19.18,2.11,24.98,6.1c4.18,14.52,8.26,29.39,8.26,29.39S584.74,709.25,568.84,708.12z"/>
<path fill="#FFFFFF" stroke="#000000" stroke-miterlimit="10" d="M578.76,658.17c-9.05-3.66-17.25-5.12-24.23-5.41
	c-2.73-2.89-9.79-7.89-15.34-11.64c3.36,0.02,6.07,0.1,7.27,0.24c0.53,0.06,1.35,0.31,2.36,0.71v0.01
	C556.62,645.12,576.61,656.68,578.76,658.17z"/>
<path fill="#FFFFFF" stroke="#000000" stroke-miterlimit="10" d="M587.54,685.61c-5.8-4-15.71-5.59-24.98-6.1
	c-2.91-12-5.98-23.63-7.09-25.55c-0.19-0.34-0.52-0.73-0.95-1.19c6.98,0.29,15.18,1.75,24.23,5.41c0,0.01,0,0.01,0.01,0.01
	c0.04,0.02,0.06,0.05,0.08,0.06C579.67,658.87,583.64,672.09,587.54,685.61z"/>
<path fill="#FFFFFF" stroke="#000000" stroke-miterlimit="10" d="M562.56,679.5c-11.81-0.66-22.6,0.41-22.6,0.41
	c-3.11-11.01-6.26-21.75-7.32-23.98c3.91-1.44,11.58-3.58,21.87-3.17c0.43,0.46,0.76,0.85,0.95,1.19
	C556.58,655.87,559.65,667.5,562.56,679.5z"/>
<path fill="#FFFFFF" stroke="#000000" stroke-miterlimit="10" d="M568.84,708.12c-0.52-0.04-1.04-0.07-1.57-0.1
	c-13.78-0.7-18.39-1.26-19.59-1.44c-0.26-0.04-0.36-0.06-0.36-0.06s-3.65-13.49-7.36-26.6c0,0,10.79-1.07,22.6-0.41
	C565.86,693.1,568.98,707.14,568.84,708.12z"/>
<path fill="#FFFFFF" stroke="#000000" stroke-miterlimit="10" d="M554.52,652.77c-10.29-0.41-17.96,1.72-21.87,3.17
	c-0.05-0.11-0.1-0.19-0.13-0.25c-1.42-2.37-12.21-10.29-17.84-14.33c2.95-0.06,15.89-0.29,24.51-0.23
	C544.74,644.88,551.79,649.88,554.52,652.77z"/>
<path fill="#FFFFFF" stroke="#000000" stroke-miterlimit="10" d="M543.46,706.1c0,0-5.49,18.44-8.37,13.72
	c-0.71-1.17-1.47-2.88-2.19-4.79c-0.22-0.53-0.41-1.07-0.61-1.63c-1.97-5.5-3.64-11.82-3.64-11.82s-1.76-6.38-3.89-14.64
	c0-0.02-0.01-0.06-0.02-0.1c-0.34-1.31-0.69-2.67-1.04-4.07c-0.3-1.2-0.61-2.43-0.93-3.67c-0.11-0.47-0.23-0.94-0.35-1.41
	c-3.39-13.8-6.55-28.24-4.5-27.17c0,0,10.09,4.29,11.8,10.51C531.45,667.26,543.46,706.1,543.46,706.1z"/>
<path fill="#FFFFFF" stroke="#000000" stroke-miterlimit="10" d="M317.97,644.94l-19.53,11.81l-12.87,56.64l15.45,23.38l1.61-9.21
	v-0.01l3.35-19.04l0.01-0.05l3.62-27.12l2.74,0.23l7.22-36.31L317.97,644.94z M299.31,725.19l-8.16-11.8l11.59-53.21l10.94-6.66
	L299.31,725.19z"/>
<path fill="#FFFFFF" stroke="#000000" stroke-miterlimit="10" d="M327.84,646.88c0,0-0.34,21.9-5.19,33.74c0,0,0,0-0.01,0.01
	c-0.24,0.6-0.49,1.17-0.76,1.71l-9.52-0.78l7.22-36.31L327.84,646.88z"/>
<path fill="#FFFFFF" stroke="#000000" stroke-miterlimit="10" d="M330.84,498.42l12.88,65.44l-5.32,5.41
	c-4.12-31.53-9.61-40.69-12.56-46.4c-16.77-5.85-25.08-17-28.98-24.56c0,0,0,0,0-0.01c-1.1-9.92-0.85-18.06-0.72-20.78
	c1.7,1.01,2.8,1.24,2.8,1.24c-9.98-11.1-13.43-28.74-8.87-59.97l61.5,33.37v16.59l0.93,3.72L330.84,498.42z"/>
<path fill="#FFFFFF" stroke="#000000" stroke-miterlimit="10" d="M338.4,569.26l-4.72,4.79c-0.23-1.43-0.46-2.84-0.69-4.23
	c-0.12-0.7-0.23-1.38-0.35-2.07c-0.95-5.67-1.9-10.92-2.78-15.61c-0.18-0.95-0.35-1.87-0.52-2.76c-1.43-7.55-2.64-13.42-3.3-17
	c-0.07-0.39-0.14-0.75-0.2-1.07c-0.13-0.73-0.23-1.34-0.29-1.79c-21.24-7.7-26.05-17.32-27.13-21.16c-0.01-0.01-0.01-0.04-0.01-0.05
	c-0.11-0.51-0.2-1.01-0.3-1.5c-0.01-0.1-0.01-0.14-0.01-0.14c-0.53-2.87-0.93-5.68-1.23-8.35c3.9,7.56,12.21,18.71,28.98,24.56
	C328.79,528.57,334.28,537.73,338.4,569.26z"/>
<polygon fill="#FFFFFF" stroke="#000000" stroke-miterlimit="10" points="313.69,653.53 299.31,725.19 291.15,713.39 302.74,660.18 
	"/>
<path fill="#FFFFFF" stroke="#000000" stroke-miterlimit="10" d="M557.99,569c-0.36-0.1-0.75-0.2-1.16-0.34h-0.01
	c-16.23-5.06-64.36-32.53-76.83-39.71c15.17-6.9,68.24-31.59,90.14-49.03c5.16,3.8,9,4.89,11.85,4.14
	C586,525.34,563.96,566.08,557.99,569z"/>
<polygon fill="#FFFFFF" stroke="#000000" stroke-miterlimit="10" points="496.62,679.66 489.47,679.91 489.71,684.78 486.86,684.93 
	486.6,679.91 484.64,680.05 482.59,602.33 497.76,616.34 "/>
<path fill="#FFFFFF" stroke="#000000" stroke-miterlimit="10" d="M548.82,642.08c-1.01-0.4-1.83-0.65-2.36-0.71
	c-1.2-0.14-3.91-0.22-7.27-0.24c-8.62-0.06-21.56,0.17-24.51,0.23c-0.4,0.01-0.61,0.01-0.61,0.01s-2.43,4.3-1.29,13.03
	c0.94,7.15,5.92,19.21,7.68,23.31h-6.39l0.55,5.61l-2.52,0.16l-0.25-4.36l-15.23,0.55l1.14-63.32l-15.17-14.01l2.05,77.72
	l-20.38,1.43l7.2-93.44v-0.01l4.2-54.38c13.06,12.21,52.49,47.77,77.25,56.06C549.37,610.07,545.54,636.85,548.82,642.08z"/>
<path fill="#FFFFFF" stroke="#000000" stroke-miterlimit="10" d="M556.82,568.67c-0.79,4-2.32,11.87-3.91,21.04
	c-24.76-8.29-64.19-43.86-77.25-56.06l0.22-2.84c0,0,1.49-0.66,4.12-1.85C492.47,536.14,540.59,563.61,556.82,568.67z"/>
<path fill="#FFFFFF" stroke="#000000" stroke-miterlimit="10" d="M338.06,683.67l-15.95-1.31c0.3-1.01,0.51-1.61,0.53-1.72
	c0.01-0.01,0.01-0.01,0.01-0.01c4.85-11.85,5.19-33.74,5.19-33.74s-0.22-30.25,0-38.4c-12.45-15.66-12.23-53.64-12.23-65.87
	c-9.76-8.37-14.72-21.73-17.19-34.25c1.08,3.84,5.9,13.46,27.13,21.16c0.06,0.46,0.16,1.06,0.29,1.79c0.06,0.33,0.13,0.69,0.2,1.07
	c0.66,3.58,1.87,9.45,3.3,17c0.17,0.89,0.34,1.81,0.52,2.76c0.88,4.69,1.83,9.94,2.78,15.61c0.12,0.69,0.23,1.37,0.35,2.07
	c0.23,1.38,0.46,2.79,0.69,4.23c1.07,6.68,2.13,13.83,3.08,21.27c0.19,1.56,0.4,3.14,0.58,4.74c0.19,1.6,0.37,3.2,0.55,4.8
	c0.1,0.81,0.18,1.61,0.26,2.43c0.08,0.81,0.17,1.63,0.25,2.43c0.08,0.82,0.17,1.64,0.24,2.46c0.02,0.19,0.04,0.39,0.06,0.59
	c0.11,1.17,0.22,2.34,0.33,3.52c0.04,0.43,0.07,0.88,0.11,1.32c0.34,3.95,0.63,7.92,0.85,11.89c0.1,1.66,0.18,3.32,0.25,4.98
	C341.02,651.7,340.6,668.74,338.06,683.67z"/>
<path fill="#FFFFFF" stroke="#000000" stroke-miterlimit="10" d="M410.3,698.8c-0.53-3.94-1.96-7.57-4.07-10.65
	c-0.64-0.95-1.35-1.85-2.12-2.68c-1.24-1.37-2.65-2.59-4.17-3.6c-2.28-1.54-4.82-2.66-7.54-3.26c-1.5-0.34-3.06-0.51-4.66-0.51
	c-0.71,0-1.41,0.04-2.09,0.11c-6.96,0.66-13.03,4.66-16.75,10.47c-2.19,3.39-3.58,7.4-3.89,11.73c-0.05,0.61-0.07,1.24-0.07,1.88
	c0,2.06,0.24,4.06,0.7,5.96c0.98,4.09,2.94,7.78,5.61,10.73c4.13,4.62,9.99,7.51,16.49,7.51c6.49,0,12.35-2.89,16.49-7.51
	c3.19-3.54,5.37-8.13,6.06-13.22c0.16-1.13,0.24-2.29,0.24-3.47C410.55,701.1,410.46,699.94,410.3,698.8z M385.29,717.04
	c-6.79,0-12.29-6.34-12.29-14.17c0-7.81,5.5-14.16,12.29-14.16c6.78,0,12.28,6.34,12.28,14.16
	C397.57,710.7,392.07,717.04,385.29,717.04z"/>
<path fill="#FFFFFF" stroke="#000000" stroke-miterlimit="10" d="M397.57,702.87c0,7.82-5.5,14.17-12.28,14.17
	c-6.79,0-12.29-6.34-12.29-14.17c0-7.81,5.5-14.16,12.29-14.16C392.07,688.71,397.57,695.06,397.57,702.87z"/>
<path fill="#FFFFFF" stroke="#000000" stroke-miterlimit="10" d="M323,750.9c-8.72,3.53-18.97,7.26-26.7,12.04
	c-1.35,0.83-3.14,2.48-5.27,4.79c-2.23-5.08-3.55-10.55-4.33-15.06c8.67-9.9,14.33-15.9,14.33-15.9L323,750.9z"/>
<path fill="#FFFFFF" stroke="#000000" stroke-miterlimit="10" d="M291.03,767.73c-15.76,16.99-50.27,69.59-64.19,95.6
	c-6.48-0.66-12.48-1.24-17.76-1.72c18.45-38.82,56.74-85.12,77.61-108.93C287.48,757.19,288.8,762.65,291.03,767.73z"/>
<path fill="#FFFFFF" stroke="#000000" stroke-miterlimit="10" d="M338.35,742.99c-3.13,2.77-8.8,5.28-15.35,7.91l-21.98-14.13
	l1.61-9.21v-0.01l3.35-19.04l-1.75,13.09l28.33,0.59l7.3,4.72l1.41-0.6C342.34,730,343.85,738.14,338.35,742.99z"/>
<path fill="#FFFFFF" stroke="#000000" stroke-miterlimit="10" d="M531.82,871.45c-4.94,1.75-9.19,3.55-13.04,5.31
	c-17.46,8.02-26.65,15.42-52.5,13.63c-49.49-3.44-113.56-4.3-152.6-14.17c-21.87-5.53-58.69-10.02-86.84-12.89
	c13.92-26,48.43-78.61,64.19-95.6c2.13-2.31,3.92-3.96,5.27-4.79c7.73-4.78,17.99-8.51,26.7-12.04c6.55-2.62,12.22-5.14,15.35-7.91
	c5.5-4.85,3.98-12.99,2.91-16.7l6.1-2.61l-1.5-1.72l0.31-3h25.09c4.13,4.62,9.99,7.51,16.49,7.51c6.49,0,12.35-2.89,16.49-7.51
	h32.37v0.85h6.21v-3.29l6.87-0.24v3.53l36.93-0.82c0.18,8.32,1.19,41.01,6.1,57.04C496.81,789.29,519.41,842.53,531.82,871.45z"/>
<path fill="#FFFFFF" stroke="#000000" stroke-miterlimit="10" d="M528.1,715.53l-10.17,1.07l-0.26-2.7l-3.05-30.6l-0.55-5.61h6.39
	c0.39,0.89,0.61,1.41,0.61,1.41h1.71c0.31,1.24,0.63,2.47,0.93,3.67c0.35,1.4,0.7,2.76,1.04,4.07c0.01,0.04,0.02,0.07,0.02,0.1
	l2.38,16.58c0,0-0.07,4.9,0.63,10.04C527.87,714.22,527.97,714.88,528.1,715.53z"/>
<polygon fill="#FFFFFF" stroke="#000000" stroke-miterlimit="10" points="517.66,713.91 513.91,714.04 512.1,683.46 514.62,683.31 
	"/>
<polygon fill="#FFFFFF" stroke="#000000" stroke-miterlimit="10" points="491.17,714.84 488.34,714.93 486.86,684.93 489.71,684.78 
	"/>
<path fill="#FFFFFF" stroke="#000000" stroke-miterlimit="10" d="M547.68,706.58l-9.58,20.49c-1.1-0.11-1.72-0.17-1.72-0.17
	s-2.58,1.5-6.01-4.29c-1.08-1.83-1.81-4.41-2.28-7.08c-0.13-0.65-0.23-1.31-0.33-1.97c-0.7-5.14-0.63-10.04-0.63-10.04l-2.38-16.58
	c2.13,8.26,3.89,14.64,3.89,14.64s1.66,6.32,3.64,11.82c0.2,0.55,0.4,1.1,0.61,1.63c0.72,1.91,1.48,3.62,2.19,4.79
	c2.88,4.72,8.37-13.72,8.37-13.72s-12.01-38.84-13.74-45.06c-1.71-6.22-11.8-10.51-11.8-10.51c-2.05-1.07,1.11,13.37,4.5,27.17
	c0.12,0.47,0.24,0.94,0.35,1.41h-1.71c0,0-0.23-0.52-0.61-1.41c-1.76-4.09-6.74-16.16-7.68-23.31c-1.14-8.73,1.29-13.03,1.29-13.03
	s0.22,0,0.61-0.01c5.63,4.03,16.42,11.95,17.84,14.33c0.04,0.06,0.08,0.14,0.13,0.25c1.06,2.23,4.21,12.97,7.32,23.98
	c3.71,13.11,7.36,26.6,7.36,26.6S547.42,706.54,547.68,706.58z"/>
<path fill="#FFFFFF" stroke="#000000" stroke-miterlimit="10" d="M568.84,708.12c-0.28,1.83-8.43,21.38-8.43,21.38
	c-8.1-1.01-18.31-2.03-22.31-2.43l9.58-20.49c1.19,0.18,5.8,0.75,19.59,1.44C567.8,708.05,568.32,708.08,568.84,708.12z"/>
<path fill="#FFFFFF" stroke="#000000" stroke-miterlimit="10" d="M598.73,860.15c-32.46,1.71-52.53,6.25-66.91,11.3
	c-12.41-28.93-35.01-82.16-39.08-95.42c-4.91-16.02-5.92-48.72-6.1-57.04l1.89-0.04l-0.19-4.03l2.83-0.1l0.2,4.29l22.69-2.52
	l-0.16-2.56l3.76-0.13l0.26,2.7l10.17-1.07c0.47,2.67,1.19,5.25,2.28,7.08c3.43,5.79,6.01,4.29,6.01,4.29s0.63,0.06,1.72,0.17
	c4,0.4,14.21,1.42,22.31,2.43c0.95,0.12,1.87,0.23,2.74,0.35l-2.46,6.78c0,0,17.59,14.3,14.87,22.03
	c-2.72,7.73-11.16,12.72-11.16,12.72S589.33,801.34,598.73,860.15z"/>
<path fill="#FFFFFF" stroke="#000000" stroke-miterlimit="10" d="M909.69,844.9c0,0-7.73,3.86-10.3-3.43
	c-0.76-2.14-0.73-4.96-0.34-7.87c0.99-6.96,4.2-14.43,4.2-14.43s-5.57-17.17-5.15-24.03c0,0-12.92-10.46-23.73-21.6
	c-0.01,0-0.01-0.01-0.01-0.01c-4.83-4.97-9.22-10.06-11.87-14.43c-8.58-14.17-21.89,1.29-27.89,3c-3.37,0.96-7.01,2.88-9.56,4.66
	h-0.01c-1.97,1.41-3.3,2.74-3.3,3.49c0,1.72,3.43,20.18-5.59,19.31c-9-0.85-9.73-29.6-10-33.9c-0.29-4.29,15.16-13.29,15.16-19.73
	c0-3.03-3.18-10-12.36-17.65c14.42-0.46,38.55,0.23,59.94,7.76c1.24,3.74,2.22,7.56,2.62,11.17c21.03,22.31,32.61,38.19,38.62,45.91
	c6.01,7.72,7.3,23.16,8.58,28.31C919.98,816.58,909.69,844.9,909.69,844.9z"/>
<path fill="#FFFFFF" stroke="#000000" stroke-miterlimit="10" d="M868.87,726.03c-21.39-7.54-45.52-8.22-59.94-7.76
	c-1.02-0.84-2.13-1.71-3.31-2.58c-10.68-7.82-21.45-15.24-23.58-17.54c10.73,8.8,23.81,12.66,23.81,12.66
	c1.54-0.18,17.17-4.72,31.26-3.38c1.25,0.12,2.5,0.29,3.72,0.51c2.24,0.4,4.41,0.99,6.43,1.81l11.08-6.44
	C858.33,703.3,864.94,714.21,868.87,726.03z"/>
<path fill="#FFFFFF" stroke="#000000" stroke-miterlimit="10" d="M903.25,819.16c0,0-3.21,7.48-4.2,14.43
	c-2.99-1.93-4.44-5.36-5.09-8.93v-0.01c-1.13-6.36,0.28-13.22,0.28-13.22S894.88,817.65,903.25,819.16z"/>
<path fill="#FFFFFF" stroke="#000000" stroke-miterlimit="10" d="M889.51,792.98c-0.45,0.65-0.89,1.23-1.31,1.72
	c-2.29-2.34-5.61-5.36-10.22-8.74c-3.42-2.52-7.55-5.22-12.5-7.99c-13.9-7.8-31.85-10.39-40.45-11.22c2.55-1.78,6.19-3.7,9.56-4.66
	c6.01-1.71,19.31-17.17,27.89-3c2.65,4.37,7.04,9.46,11.87,14.43c0,0,0,0.01,0.01,0.01C877.44,779.87,882.43,788.03,889.51,792.98z"
	/>
<path fill="#FFFFFF" stroke="#000000" stroke-miterlimit="10" d="M893.95,824.65c-8.61-3.42-7.66-13.64-7.66-13.64s1.63,2,7.93,0.42
	C894.23,811.43,892.82,818.29,893.95,824.65z"/>
<path fill="#FFFFFF" stroke="#000000" stroke-miterlimit="10" d="M894.23,811.43c-6.31,1.58-7.93-0.42-7.93-0.42
	c-4.29-3.86-3.65-12.88-3.65-12.88s2.35,0.34,5.55-3.43c0.37,0.39,0.72,0.75,1.05,1.1C888.8,805.99,894.23,811.43,894.23,811.43z"/>
<path fill="#FFFFFF" stroke="#000000" stroke-miterlimit="10" d="M888.2,794.7c-3.2,3.77-5.55,3.43-5.55,3.43
	c-2.13-2.94-3.79-8.64-4.67-12.17C882.59,789.34,885.91,792.36,888.2,794.7z"/>
<path fill="#FFFFFF" stroke="#000000" stroke-miterlimit="10" d="M903.25,819.16c-8.37-1.5-9.02-7.73-9.02-7.73
	s-5.43-5.44-4.98-15.64c0.04-0.9,0.12-1.84,0.26-2.82c0,0,1.29,4.51,8.58,2.15C897.67,801.99,903.25,819.16,903.25,819.16z"/>
<path fill="#FFFFFF" stroke="#000000" stroke-miterlimit="10" d="M898.09,795.13c-7.3,2.36-8.58-2.15-8.58-2.15
	c-7.08-4.95-12.07-13.11-15.14-19.44C885.18,784.67,898.09,795.13,898.09,795.13z"/>
<path fill="#FFFFFF" stroke="#000000" stroke-miterlimit="10" d="M169.59,382.52c-0.9-1.78-2.34-3.49-4.59-4.68
	c-5.71-3.01-11.15,1.31-13.24,3.35c-2.44-0.53-4.89-1-7.28-1.41c-0.94-0.16-1.85-0.3-2.78-0.42c2.38-2.02,6.99-5.59,10.87-15.02
	c5.36-13.1,15.69-13.74,18.36-10.52C173.36,356.76,174.67,369.69,169.59,382.52z"/>
<path fill="#FFFFFF" stroke="#000000" stroke-miterlimit="10" d="M170.94,387.35c-0.93-0.46-1.9-0.89-2.91-1.31
	c-4.88-2.02-10.56-3.61-16.26-4.85c2.09-2.03,7.54-6.36,13.24-3.35c2.25,1.19,3.68,2.9,4.59,4.68
	C170.42,384.17,170.79,385.9,170.94,387.35z"/>
<path fill="#FFFFFF" stroke="#000000" stroke-miterlimit="10" d="M382.55,493.06l-30.05-20.6l-21.67,25.95l12.88,65.44l7.93-6.01
	c0,0,22.1,16.52,25.53,17.97c3.43,1.47,12.45-3.38,12.45-3.38L382.55,493.06z M375.33,570.28l-23.32-15.87l-11.41-60.94l11.27-12.01
	l24.61,15.02l5.28,73.79H375.33z"/>
<polygon fill="#FFFFFF" stroke="#000000" stroke-miterlimit="10" points="381.76,570.28 375.33,570.28 352.02,554.41 340.6,493.48 
	351.87,481.46 376.48,496.49 "/>
<path fill="#FFFFFF" stroke="#000000" stroke-miterlimit="10" d="M387.06,638.08c0,0-21.74-1.43-28.04-4.57
	c0-11.16-7.73-68.37-7.73-68.37c7.02,1.72,20.03,15.73,20.03,15.73l12.16,2.58L387.06,638.08z"/>
<path fill="#FFFFFF" stroke="#000000" stroke-miterlimit="10" d="M435.26,569v69.93l-29.33,1.5l-2.43-58l10.16-0.42
	c0,0,13.16-12.74,15.45-13.59C431.4,567.57,435.26,569,435.26,569z"/>
<path fill="#FFFFFF" stroke="#000000" stroke-miterlimit="10" d="M435.26,653.53v34.16l-29.02,0.46c-0.64-0.95-1.35-1.85-2.12-2.68
	v-32.73L435.26,653.53z"/>
<path fill="#FFFFFF" stroke="#000000" stroke-miterlimit="10" d="M387.06,650.47l-1.4,27.74c-6.96,0.66-13.03,4.66-16.75,10.47
	l-11.71-0.55l3.03-37.66H387.06z"/>
<path fill="#FFFFFF" stroke="#000000" stroke-miterlimit="10" d="M415.66,383.21c0,8.63-7.89,23.34-14.46,28.48
	c-0.83,0.66-1.65,1.16-2.42,1.47c-1.65,0.66-3.38,0.95-5.08,0.76c-0.78-0.08-1.55-0.28-2.3-0.59c-1.17-0.48-2.28-1.23-3.24-2.3
	c-2.66-2.91-4.38-8.15-3.97-16.47c0.58-11.86,3.41-23.46,8.87-28.94c2.21-2.23,4.86-3.44,7.97-3.26c0.58,0.04,1.16,0.12,1.76,0.25
	c1.55,0.34,2.93,0.77,4.13,1.29c3.8,1.66,5.96,4.17,7.17,7.25C415.47,374.59,415.66,378.74,415.66,383.21z"/>
<path fill="#FFFFFF" stroke="#000000" stroke-miterlimit="10" d="M401.04,362.36c-3.11-0.18-5.75,1.04-7.97,3.26v-0.14
	c0-9.16-12.59-10.3-35.4-16.02c-16.66-4.18-33.13-7.9-40.8-9.61c2.18-3.15,4.33-5.92,6.37-8.35
	C339.51,333.31,399.3,342.46,401.04,362.36z"/>
<path fill="#FFFFFF" stroke="#000000" stroke-miterlimit="10" d="M393.7,413.92c-2.47,20.98-3.97,45.12-4.37,51.49
	c0,0.11-0.01,0.2-0.01,0.3s-0.01,0.18-0.01,0.26c0,0,0,0,0,0.01v0.01c0,0.07-0.01,0.16-0.01,0.23v0.07
	c-0.02,0.47-0.04,0.72-0.04,0.72h-5.07l3.97-55.99c0.96,1.07,2.07,1.82,3.24,2.3C392.15,413.64,392.92,413.83,393.7,413.92z"/>
<path fill="#FFFFFF" stroke="#000000" stroke-miterlimit="10" d="M384.19,394.56c-0.41,8.32,1.31,13.56,3.97,16.47l-3.97,55.99
	h-24.32v-21.16l-68.27-36.38c1.18-6.57,2.67-13.7,4.48-21.4c5.01-21.34,13.07-37.1,20.78-48.23c7.67,1.71,24.14,5.43,40.8,9.61
	c22.81,5.72,35.4,6.86,35.4,16.02v0.14C387.6,371.1,384.77,382.7,384.19,394.56z"/>
<path fill="#FFFFFF" stroke="#000000" stroke-miterlimit="10" d="M443.59,493.3l-18.98-20.84l-32.19,21.45l4.44,82.56l15.3-0.65
	l18.66-17.97l12.01,7.3l6.01-66.08L443.59,493.3z M427.68,553.4c-2.43,3.44-18.88,18.03-18.88,18.03h-8.44l-3.43-73.95l26.17-15.02
	l9,11.88C432.11,494.34,426.1,538.82,427.68,553.4z"/>
<path fill="#FFFFFF" stroke="#000000" stroke-miterlimit="10" d="M389.63,572.44c0,0-9.02,4.85-12.45,3.38
	c-3.43-1.46-25.53-17.97-25.53-17.97l-7.93,6.01c6.01,17.8,10.73,76.59,10.73,76.59l37.97,2.79L389.63,572.44z M359.02,633.51
	c0-11.16-7.73-68.37-7.73-68.37c7.02,1.72,20.03,15.73,20.03,15.73l12.16,2.58l3.58,54.63
	C387.05,638.08,365.31,636.65,359.02,633.51z"/>
<path fill="#FFFFFF" stroke="#000000" stroke-miterlimit="10" d="M365.65,708.24h-8.92l0.51-7.84h7.79
	c-0.05,0.61-0.07,1.24-0.07,1.88C364.96,704.34,365.2,706.34,365.65,708.24z"/>
<path fill="#FFFFFF" stroke="#000000" stroke-miterlimit="10" d="M371.26,718.97h-25.09l3.23-31.22l3.9,0.18l3.9,0.19l11.71,0.55
	c-2.19,3.39-3.58,7.4-3.89,11.73h-7.79l-0.51,7.84h8.92C366.62,712.33,368.59,716.02,371.26,718.97z"/>
<path fill="#FFFFFF" stroke="#000000" stroke-miterlimit="10" d="M392.41,643.24v35.37c-1.5-0.34-3.06-0.51-4.66-0.51
	c-0.71,0-1.41,0.04-2.09,0.11l1.4-27.74h-26.82l-3.03,37.66l-3.9-0.19l1.14-47.49L392.41,643.24z"/>
<path fill="#FFFFFF" stroke="#000000" stroke-miterlimit="10" d="M410.3,705.75c0.16-1.13,0.24-2.29,0.24-3.47
	c0-1.18-0.08-2.34-0.24-3.48l11.83-0.76l0.53,7.08L410.3,705.75z"/>
<path fill="#FFFFFF" stroke="#000000" stroke-miterlimit="10" d="M436.62,687.67v31.3h-32.37c3.19-3.54,5.37-8.13,6.06-13.22
	l12.36-0.63l-0.53-7.08l-11.83,0.76c-0.53-3.94-1.96-7.57-4.07-10.65l29.02-0.46L436.62,687.67z"/>
<path fill="#FFFFFF" stroke="#000000" stroke-miterlimit="10" d="M440.66,683.36h-4.04v4.31l-1.36,0.02v-34.16l-31.14-0.79v32.73
	c-1.24-1.37-2.65-2.59-4.17-3.6l1.26-34.98h38.4L440.66,683.36z"/>
<path fill="#FFFFFF" stroke="#000000" stroke-miterlimit="10" d="M471.46,588.03v0.01l-7.2,93.44l-4.48,0.31
	c0.48-7.69,3.56-56.83,6.02-98.29L471.46,588.03z"/>
<polygon fill="#FFFFFF" stroke="#000000" stroke-miterlimit="10" points="449.71,687.11 449.71,716.29 442.83,716.53 442.83,687.52 
	"/>
<path fill="#FFFFFF" stroke="#000000" stroke-miterlimit="10" d="M465.8,583.5c-2.46,41.46-5.54,90.6-6.02,98.29l-10.08,0.7v4.62
	l-6.87,0.41v-4.17h-2.17l-1.05-36.48h-38.4l-1.26,34.98c-2.28-1.54-4.82-2.66-7.54-3.26v-35.37l-2.78-70.8l-7.08-79.38l-30.05-20.6
	l-0.93-3.72l8.29-2.26v0.54h58.36l0.06-0.45l4.8,3.88l1.5,2.01l-32.19,21.45l4.44,82.56l3.07,66.76h40.34c0,0,1.34-64.57,2.56-78.09
	L465.8,583.5z"/>
<path fill="#FFFFFF" stroke="#000000" stroke-miterlimit="10" d="M427.68,553.4c-2.43,3.44-18.88,18.03-18.88,18.03h-8.44
	l-3.43-73.95l26.17-15.02l9,11.88C432.11,494.34,426.1,538.82,427.68,553.4z"/>
<path fill="#FFFFFF" stroke="#000000" stroke-miterlimit="10" d="M105.56,478.66c-0.34,4.13-1.61,8.73-5.71,8.25
	c-7.3-0.87-6.86-30.47-7.15-34.48c-1.85-3.85-0.28-29.31,4.15-31.03c0.1-13.37,5.56-20.67,9.38-24.12c-1.83,4.56-3.15,10.59-4,17.49
	c0,0.02-0.01,0.06-0.01,0.11C99.9,433.94,101.26,459.54,105.56,478.66z"/>
<path fill="#FFFFFF" stroke="#000000" stroke-miterlimit="10" d="M160.38,522.86c-4.82,12.83-31.68,2.29-46.23-13.51
	c-10.81-11.75-9.16-21.26-7.24-25.67C115.03,508.99,138.99,523.08,160.38,522.86z"/>
<path fill="#FFFFFF" stroke="#000000" stroke-miterlimit="10" d="M354.44,640.44l-1.14,47.49l-3.9-0.18l0.33-3.12l-6.01-0.49
	l-5.66-0.47c2.54-14.93,2.96-31.97,2.19-49.18c-0.07-1.66-0.16-3.32-0.25-4.98c-0.23-3.97-0.52-7.95-0.85-11.89
	c-0.04-0.45-0.07-0.89-0.11-1.32c-0.11-1.18-0.22-2.35-0.33-3.52c-0.02-0.2-0.04-0.4-0.06-0.59c-0.07-0.82-0.16-1.64-0.24-2.46
	c-0.08-0.81-0.17-1.63-0.25-2.43c-0.08-0.82-0.17-1.63-0.26-2.43c-0.18-1.6-0.36-3.2-0.55-4.8c-0.18-1.6-0.39-3.18-0.58-4.74
	c-0.95-7.44-2.01-14.59-3.08-21.27l4.72-4.79l5.32-5.41C349.72,581.66,354.44,640.44,354.44,640.44z"/>
</svg>
