<?xml version="1.0" encoding="utf-8"?>
<!-- Generator: Adobe Illustrator 23.0.5, SVG Export Plug-In . SVG Version: 6.00 Build 0)  -->
<svg version="1.1" baseProfile="tiny" id="Layer_1" xmlns="http://www.w3.org/2000/svg" xmlns:xlink="http://www.w3.org/1999/xlink"
	 x="0px" y="0px" viewBox="0 0 1000 1000" xml:space="preserve">
<path fill="#FFFFFF" stroke="#000000" stroke-miterlimit="10" d="M528.5,185.6l-1.6,5.3l-3.1,10.1l-26.9,13.7l-3.3,1.7l-8.3,4.2
	l-4.6,2.3l4.1-4.1l4.8-4.8l2.9-3l12.7-12.8l1.8-8.1l1.8-8.3c1.3-1,2.5-1.7,3.7-2.2c6-2.6,10.7,0.3,13.4,2.9
	C527.6,184.1,528.5,185.6,528.5,185.6z"/>
<path fill="#FFFFFF" stroke="#000000" stroke-miterlimit="10" d="M452.6,199.8c-3.4,4.8-6.5,9.9-9.1,15
	c-10.8-13.2-28.6-37.3-28.6-37.3l29.8,10.6C447.1,191.7,450.4,196.7,452.6,199.8z"/>
<path fill="#FFFFFF" stroke="#000000" stroke-miterlimit="10" d="M481.6,241.2L481.6,241.2c-0.1,0.8-0.3,1.8-0.4,2.8l-6.9,1.2
	l-25-16.2l18.5,4c3.5,3.7,7.2,7.5,8.4,7.8c1,0.3,3.2,0.2,5.4,0C481.6,241,481.6,241.1,481.6,241.2z"/>
<path fill="#FFFFFF" stroke="#000000" stroke-miterlimit="10" d="M565,219.9c0,1.4-0.1,2.4-0.3,2.8c-0.6,1.4-7.1,8.9-11.5,13.4
	c-2,2-3.5,3.3-3.9,3.2c-0.7-0.2-2-0.6-3-1c0.3-1.2,0.7-2.5,1-3.8c6-1.6,12-11.7,12-11.7s3.2-10.5-0.5-11.6c-2.1-0.6-4.8,1.9-6.8,4.2
	c0.3-1.2,0.6-2.4,0.8-3.6l0,0c0.3-0.4,0.7-0.8,1.1-1.2c3-3.3,7.7-8.3,8.6-8.2c0.6,0.1,1.3,3.5,1.7,7.5l0,0c0.2,1.3,0.3,2.6,0.4,3.9
	C564.9,216,565,218.2,565,219.9z"/>
<path fill="#FFFFFF" stroke="#000000" stroke-miterlimit="10" d="M559.4,222.7c0,0-6,10.2-12,11.7c1.6-6.1,3.2-13,4.7-19.1l0,0
	c2-2.3,4.8-4.8,6.8-4.2C562.6,212.2,559.4,222.7,559.4,222.7z"/>
<path fill="#FFFFFF" stroke="#000000" stroke-miterlimit="10" d="M575.8,229.6l-23.1,13.5l-7,0.4c-0.1-0.5-0.3-1-0.4-1.5
	c0.3-1.2,0.7-2.4,1-3.7c1.1,0.4,2.4,0.8,3,1c0.4,0.1,1.9-1.3,3.9-3.2c2.5-1.6,7.4-4.7,12.2-7.8l2.5,0.8h0.1L575.8,229.6z"/>
<path fill="#FFFFFF" stroke="#000000" stroke-miterlimit="10" d="M593.5,188.7L565,219.9c0-1.7-0.1-3.9-0.3-6.2
	C569.3,209.4,592,190,593.5,188.7z"/>
<path fill="#FFFFFF" stroke="#000000" stroke-miterlimit="10" d="M601,180.1c-0.6,1-21.6,38.3-22.1,39.2c-0.2,0.4-4.7,3.4-10.1,6.8
	c-1.1,0.7-2.2,1.4-3.3,2.1c-4.8,3.1-9.7,6.2-12.2,7.8c4.4-4.4,10.8-12,11.5-13.4c0.2-0.4,0.3-1.4,0.3-2.8l28.5-31.2
	c-1.5,1.3-24.2,20.7-28.8,25c-0.1-1.3-0.2-2.6-0.4-3.9l0,0c2.5-3.2,8.5-8.3,14.9-13.4C589.2,188.5,600.4,180.6,601,180.1z"/>
<path fill="#FFFFFF" stroke="#000000" stroke-miterlimit="10" d="M509,225.7l-2.3,3.3c0,0-1.4,0.3-3.5,0.6l0,0l-0.2-0.2l1.8-2.8
	l-1.5-4.4C506.5,224.2,508.8,225.6,509,225.7L509,225.7z"/>
<path fill="#FFFFFF" stroke="#000000" stroke-miterlimit="10" d="M587.2,178.2c-0.8,3.9-3.8,10.1-6.4,15.1l-12.9,5.3l8.8-16.6
	l-26,19.4c1.3-3.6,3.2-10,2.8-12.7l0,0c1.8-2.1,4-4.7,6.2-7.4l0,0c4.8-3.9,14.2-10.5,14.2-10.5l9.5-34.7l-12.3,24.5
	c0.1-2.8,0.2-6.7,0.2-11v-0.2c8.4-14.4,16.5-34,16.5-34S588.6,171.1,587.2,178.2z"/>
<path fill="#FFFFFF" stroke="#000000" stroke-miterlimit="10" d="M583.4,136.2l-9.5,34.7c0,0-9.5,6.6-14.2,10.5
	c5.3-6.5,10.5-13.9,11.1-17.6c0.1-0.7,0.2-1.8,0.3-3.1l0,0L583.4,136.2z"/>
<path fill="#FFFFFF" stroke="#000000" stroke-miterlimit="10" d="M571.1,160.6L571.1,160.6c-0.1,1.3-0.2,2.4-0.3,3.1
	c-0.6,3.8-5.9,11.1-11.1,17.6l0,0c-2.2,2.7-4.3,5.3-6.2,7.4c-0.1-0.4-0.2-0.7-0.4-0.9c-2-2.5-9.1,0-9.1,0s-3.7,0.5-5.8,0.8l22.3-26
	l6.9-36.1l-4.5,12l-8.1,21.9l-23.1,29.7c-1.9,0.5-3.6,0.9-3.6,0.9l-1.4-0.1l1.6-5.3c0,0-0.9-1.5-2.6-3.1
	c8.5-10.4,23.4-33.5,33.5-49.8c6.3-10.1,10.8-17.5,10.8-17.5s0.8,19.6,0.9,34.2v0.2C571.2,154,571.2,157.9,571.1,160.6z"/>
<path fill="#FFFFFF" stroke="#000000" stroke-miterlimit="10" d="M559.5,132.8c-10.2,16.2-25.1,39.4-33.5,49.8
	c-2.7-2.6-7.4-5.5-13.4-2.9c1.2-3.6,2.5-8.6,3.9-14.4c4.1-17.1,8.7-41.8,12.3-62.5l0,0c3.7-21.2,6.4-38.1,6.4-38.1L559.5,132.8z"/>
<path fill="#FFFFFF" stroke="#000000" stroke-miterlimit="10" d="M528.8,102.7L528.8,102.7c-3.6,20.7-8.2,45.4-12.3,62.5
	c-4.6-8.8-15-29.9-19.3-50.8C504.3,100,519,66.1,519,66.1S525.1,88.6,528.8,102.7z"/>
<path fill="#FFFFFF" stroke="#000000" stroke-miterlimit="10" d="M516.4,165.2c-1.4,5.8-2.7,10.8-3.9,14.4c-1.2,0.5-2.4,1.2-3.7,2.2
	l-1.8,8.3l-2-0.1c0.2-2.3,1.1-14.9-6-20.1c-6.7-4.9-16.3-2.3-18.8-1.4c-2.7-3.8-4.9-8.6-4.9-14c0-8.9,2.1-25.2,8.4-41.1l0,0
	c2.9-7.4,6.8-14.7,11.8-21.2c-0.6,7,0.1,14.5,1.7,22.2C501.5,135.3,511.8,156.4,516.4,165.2z"/>
<path fill="#FFFFFF" stroke="#000000" stroke-miterlimit="10" d="M483.7,113.4c-6.3,15.9-8.4,32.2-8.4,41.1c0,5.4,2.3,10.2,4.9,14
	c-0.4,0.1-0.7,0.2-0.7,0.2s-2.2,2-5.5,5.5c-2.5-3.1-10.7-13.6-19.6-27.3c4.4-42,26.4-78.3,24.2-62.6
	C477.3,93.2,480.5,104.5,483.7,113.4L483.7,113.4z"/>
<path fill="#FFFFFF" stroke="#000000" stroke-miterlimit="10" d="M567.5,126.4l-6.9,36.1l-22.3,26l0,0c-0.8,0.1-1.3,0.2-1.5,0.3
	c-0.3,0.1-2.8,0.7-5,1.3l23.1-29.7l8.1-21.9L567.5,126.4z"/>
<path fill="#FFFFFF" stroke="#000000" stroke-miterlimit="10" d="M547,266.9c-0.8,7.3-3.2,14-5.8,19.5
	c-15.4,2.1-23.2,11.2-23.2,11.2s0,0-0.1,0c-0.9-0.8-10.8-9.9-29.9-10.2c-1.8,0-3.6,0-5.2,0.1c-3.2-10-3.5-21.6-3-31.2
	c0.3-4.7,0.8-8.9,1.3-12.1l1.4-0.2c0.8,2.1,1.7,3.9,2.7,5.2c8.6,12.1,25.3,25.9,27.6,26.1s5.2,1.4,8.4-0.5
	c3.2-2,17.8-17.6,21.2-24.2c0.7-1.3,1.5-3.7,2.4-6.8l0.9-0.1c0.6,2.6,1.3,5.8,1.6,9.6C547.6,257.1,547.6,261.7,547,266.9z"/>
<path fill="#FFFFFF" stroke="#000000" stroke-miterlimit="10" d="M482.9,287.4c-13.6,0.7-20.8,4.6-22.7,5.9
	c-1.8-2.8-3.6-5.7-5.2-8.3l0.1-11.9c8-9.5,18.7-14.7,25-16.9C479.4,265.8,479.7,277.4,482.9,287.4z"/>
<polygon fill="#FFFFFF" stroke="#000000" stroke-miterlimit="10" points="455.1,255.7 455,273.1 454.9,285 454.9,294.9 445.2,301.3 
	454.8,345.3 440.2,323.4 437.7,281.9 437,270.6 438.2,271.1 "/>
<polygon fill="#FFFFFF" stroke="#000000" stroke-miterlimit="10" points="559,327.2 549.8,334.1 532.1,340.5 510.4,339.6 "/>
<path fill="#FFFFFF" stroke="#000000" stroke-miterlimit="10" d="M580.9,295.1L580.9,295.1c-0.1,0-0.2,0.1-0.2,0.1
	c-8.5,4.9-18.8,10-27.6,14.3l0,0l-35.5,7.3l-16.2,3.3c-3.3,0.1-6.6,0.3-9.9,0.4l0,0l-17.8-5.4l-16.6-10.6c-1.5-2.1-2.3-3.3-2.3-3.3
	v-6.4l0.1-9.9c1.6,2.6,3.4,5.5,5.2,8.3c3.9,6,8,11.5,10.3,12.8c3.9,2.1,28,3.7,47.2,3.6c8.9,0,16.7-0.4,21-1.2
	c13.5-2.6,33.7-9.5,37.3-14.7c0.3-0.4,0.5-0.8,0.8-1.3c2.4,1.2,3.8,2,3.8,2L580.9,295.1z"/>
<path fill="#FFFFFF" stroke="#000000" stroke-miterlimit="10" d="M591,272.1v16.6c-2.8,2-6.3,4.1-10.1,6.3l-0.4-0.7
	c0,0-1.3-0.9-3.8-2c2-4.1,3.1-11.1,3.5-14.9l0,0c-3.1-4.3-6.2-7.9-9.1-10.8c3.7-1.8,10.8-5.2,12-4.3C584.1,263,588,268.1,591,272.1z
	"/>
<path fill="#FFFFFF" stroke="#000000" stroke-miterlimit="10" d="M557.5,374.5c0,0-37.5,14.7-38.5,14.7s-39-16.4-39-16.4l38.7,25.2
	l55.8-22.3L557.5,374.5z M519,380.4l33.7-11.2l10-15.7C562.7,353.6,522.1,378.5,519,380.4z M609.5,271.1
	c-10.2-4-18.5-16.6-18.5-16.6v40.9l-9.6,19.6l-4.5,9.3l-2.7,5.6c0,0-9.2,8.7-21.6,18.9c-3.5,2.9-7.3,5.9-11.2,8.8
	c-8.9,6.8-18.5,13.3-27.1,17.6c-5.8-5.4-12-12.3-18.3-19.7c-4.8-5.6-9.5-11.5-14-17.2s-8.7-11.3-12.4-16.3
	c-5.6-7.6-10-13.9-12.5-17.4c-1.5-2.1-2.3-3.3-2.3-3.3v-6.4l-9.7,6.4l9.6,44l-14.6-21.9l-2.5-41.5c-9.7-5.4-21.2,6.7-21.2,6.7
	l-0.3-12.5c0,0,0,0-10.7-7.8c-10.9,38.2,3.1,66.7,3.4,67.3l-8.1-7.5l1.1,5.4l1.7,8.1l0.3,1.5l11.9,30.2l0.4,1.1l8.6,4.5l0.2,0.6
	l4.8,14.1l1.1,0.4l-20.5-72.7l4.3-10.5l20.9,55.1l27.1,19.8l-24.2,1.8l15.1,19.4l-9.8,6.3l5.7,1.7l0.4,0.1l22.9-2.2
	c3.9-0.8,8.2-1.4,12.8-1.8l11.1-7c0,0,60.1,4,76.3,1.2c1-0.4,1.8-0.7,2.5-1c5.5-2.2,6.2-2.8,6.2-2.8l3.1-14l7-5.4l1.3-1l1.7-10.7
	c-1.2-21.7,17.3-83.9,17.3-83.9l6.2-6.7l-0.2,1.1l2.6,0.5c0.1-0.3,3.1-1.5,7.3-3l2.7-11.3C630.4,267.3,619.7,275.2,609.5,271.1z"/>
<path fill="#FFFFFF" stroke="#000000" stroke-miterlimit="10" d="M437.7,281.9c-9.7-5.4-21.2,6.7-21.2,6.7l-0.3-12.5
	c0,0,0,0-10.7-7.8c-10.9,38.2,3.1,66.7,3.4,67.3l-8.1-7.5l-9-44l-0.7-3.5l9.5-25.7l17.8,16.9l8.5-5.7l10.2,4.5L437.7,281.9z"/>
<polygon fill="#FFFFFF" stroke="#000000" stroke-miterlimit="10" points="438.2,387.6 453.3,407 443.5,413.3 441.1,412.5 
	438.9,397.3 430.7,394.2 410.2,321.5 414.5,310.9 435.3,366 462.4,385.8 "/>
<path fill="#FFFFFF" stroke="#000000" stroke-miterlimit="10" d="M618.1,279.9l-0.2,1.1l-15.1,76l-0.6,2.9l-7.1,7.9l-0.4,2.6
	c-1.2-21.7,17.3-83.9,17.3-83.9L618.1,279.9z"/>
<path fill="#FFFFFF" stroke="#000000" stroke-miterlimit="10" d="M627.7,278.6l-3.5,14.5l-14,57.9l-0.8,0.9c-2.5,2-4.8,3.7-6.7,5.2
	l15.1-76l2.6,0.5C620.5,281.3,623.5,280.1,627.7,278.6z"/>
<path fill="#FFFFFF" stroke="#000000" stroke-miterlimit="10" d="M655.1,269.2c-0.1,0.4-6.1,28.2-11.4,45.6
	c-2,6.7-3.9,11.8-5.3,13.3c-1.3,1.4-4.8,4.4-9.1,7.9c9.4-18.8,16-56.9,16-56.9l-10.7,2.6c0,0-0.2,2.1,2.6,4.8
	c-1.7,3.8-8.6,5.7-13.1,6.5l3.5-14.5C637.7,275,654.6,269.4,655.1,269.2z"/>
<path fill="#FFFFFF" stroke="#000000" stroke-miterlimit="10" d="M645.4,279.2c0,0-6.6,38.1-16,56.9l0,0c-1.9,1.5-3.9,3.2-6.1,4.9
	c-4.6,3.7-9.6,7.5-13.9,10.9l0.8-0.9l14-57.9c4.5-0.8,11.4-2.8,13.1-6.5c-2.8-2.6-2.6-4.8-2.6-4.8L645.4,279.2z"/>
<path fill="#FFFFFF" stroke="#000000" stroke-miterlimit="10" d="M640.4,337.3c-2.4,3.7-5.9,7.7-10.9,12h-0.8c-2-3.5-4-6.4-5.3-8.4
	c2.1-1.7,4.2-3.4,6.1-4.9l0,0c4.4-3.5,7.8-6.5,9.1-7.9c1.4-1.5,3.3-6.7,5.3-13.3C645.4,318.4,647.5,326.5,640.4,337.3z"/>
<path fill="#FFFFFF" stroke="#000000" stroke-miterlimit="10" d="M637.1,385c-6.4,18.1-15.2,24-25.7,20.4c-0.2-0.1-0.4-0.2-0.7-0.3
	c-8-3-15.9-10.8-19.2-23l1.3-1l1.7-10.7l0.4-2.6l7.1-7.9l7.3-8.1c4.3-3.3,9.3-7.2,13.9-10.9c1.4,1.9,3.3,4.9,5.3,8.4
	C634.4,359.3,641,374,637.1,385z"/>
<path fill="#FFFFFF" stroke="#000000" stroke-miterlimit="10" d="M665.4,393c-10.5,2.5-27.4,15.6-33.9,31.9
	c-2.5,6.2-2.9,11.3-2.3,15.5c-9.1-8.8-10.6-18.2-10.3-24.6c-4.5-4-7-8.2-8.2-10.6c0.2,0.1,0.5,0.2,0.7,0.3
	c10.5,3.6,19.3-2.4,25.7-20.4c3.9-10.9-2.7-25.6-8.4-35.6h0.8c5-4.3,8.5-8.3,10.9-12c3.3,4.4,8.4,13.6,5.2,25.4
	c4.8,5.7,6.3,20.2,4.8,26C653.8,389.5,659.6,390.4,665.4,393z"/>
<path fill="#FFFFFF" stroke="#000000" stroke-miterlimit="10" d="M660,431.9c0.2,6.3,7.3,21.5,11.2,28.9c-7.6,5.5-9.9-2.9-9.9-2.9
	l-25.7-5.2c0,0-5.2-4-6.4-12.3c-0.6-4.1-0.2-9.3,2.3-15.5c6.5-16.3,23.5-29.4,33.9-31.9c1.6-0.4,3-0.5,4.2-0.4
	c8.7,0.9,12.7,13.1,13.3,14.9c-3.6,2.5-11.2,7.6-13.4,9.1C666.7,418.6,659.8,424.8,660,431.9z"/>
<path fill="#FFFFFF" stroke="#000000" stroke-miterlimit="10" d="M678.1,457.1c1.7,5.3,7,8.8,9.3,13.3l0,0
	c-2.6-0.6-10.5-9.3-15.9-9.8c-0.1,0.1-0.2,0.1-0.2,0.2c-3.8-7.4-11-22.6-11.2-28.9c-0.2-7.1,6.6-13.3,9.5-15.3
	c2.1-1.5,9.7-6.7,13.4-9.1c0,0.1,0.1,0.2,0.1,0.2l5.9,0.8c0,0-13.1,18.1-10.5,21.9c1.9,2.8,5.8,3.8,9.6,3.5c0.2,0.8,0.7,1.6,1.4,2.5
	c-3.8,0.8-9.2,2.9-6.7,8.7c0.3,0.7,0.7,1.4,1.2,2.1C681,449,676.6,452.5,678.1,457.1z"/>
<path fill="#FFFFFF" stroke="#000000" stroke-miterlimit="10" d="M695.5,424.6c0.2,0.2,0.4,0.4,0.6,0.6c-3.5,1.3-9.3,4.2-8.2,8.6
	c-3.8,0.4-7.7-0.7-9.6-3.5c-2.6-3.8,10.5-21.9,10.5-21.9s8.8-3.7,12.8-1s4.9,9.1,4.9,9.1s0.4,0.3,1.2,1
	C705.2,418,698.4,419.4,695.5,424.6z"/>
<path fill="#FFFFFF" stroke="#000000" stroke-miterlimit="10" d="M717.4,441.5c0,0.1,0,0.1,0,0.2c-5-3.8-17.3-13-21.2-16.5
	c-0.2-0.2-0.5-0.4-0.6-0.6c2.9-5.3,9.7-6.7,12.2-7c2.7,2.2,9.2,7.7,12.5,11.2C724.4,433.2,721.1,438.4,717.4,441.5z"/>
<path fill="#FFFFFF" stroke="#000000" stroke-miterlimit="10" d="M717.4,441.7c-0.2,3.9-2.4,10.3-5.6,10.7c-5.2-3-15.5-9-21.7-15.3
	c-0.3-0.3-0.5-0.5-0.7-0.8c-0.7-0.9-1.2-1.8-1.4-2.5c-1.1-4.4,4.7-7.3,8.2-8.6C700.1,428.7,712.4,437.9,717.4,441.7z"/>
<path fill="#FFFFFF" stroke="#000000" stroke-miterlimit="10" d="M711.6,452.4c0.7,2.9-2.7,11.8-8.4,12.5
	c-5.1-6.8-15-11.3-19.3-17.8c-0.5-0.7-0.8-1.4-1.2-2.1c-2.5-5.8,2.9-8,6.7-8.7c0.2,0.3,0.4,0.5,0.7,0.8c6.2,6.3,16.5,12.3,21.7,15.3
	C711.7,452.4,711.6,452.4,711.6,452.4z"/>
<path fill="#FFFFFF" stroke="#000000" stroke-miterlimit="10" d="M703.1,465c-0.3,0.1-0.7,0.1-1.1,0.1c-5.2,6.4-12,5.9-14.7,5.4
	c-2.3-4.5-7.6-8-9.3-13.3c-1.5-4.5,3-8.1,5.8-9.9C688.1,453.7,698,458.1,703.1,465z"/>
<path fill="#FFFFFF" stroke="#000000" stroke-miterlimit="10" d="M403.4,341.7c-8.1-7.1-24.9-22.1-29.8-28.8c-1.5-2-2.5-4.9-3.3-8.2
	l0,0c-2.5-10.9-1.7-25.7-1.7-25.7l6.7,1.5c-0.6,6.2-1.3,19.1,1.5,23.2c2.8,4,17.3,21,24.9,29.8L403.4,341.7z"/>
<path fill="#FFFFFF" stroke="#000000" stroke-miterlimit="10" d="M415.7,373.4c-7.4-4-14.7-17.7-19.2-24.1c-0.2-0.3-0.3-0.5-0.5-0.7
	c-4.2-5.6-20.9-23.3-24.3-27c-0.4-0.4-0.6-0.7-0.6-0.7l-0.6-16.2c0.8,3.2,1.8,6.1,3.3,8.2c4.8,6.7,21.6,21.7,29.8,28.8l0.3,1.5
	L415.7,373.4z"/>
<path fill="#FFFFFF" stroke="#000000" stroke-miterlimit="10" d="M396.5,349.3c-1.2,1.6-3,4.1-4.9,7.6c-1.8-0.7-7.3-3.3-13.9-10.1
	c-0.6-0.6-1.1-1.2-1.7-1.8c-6.5-7.1-5.4-18-4.4-23.4c3.5,3.6,20.2,21.4,24.3,27C396.1,348.8,396.3,349,396.5,349.3z"/>
<path fill="#FFFFFF" stroke="#000000" stroke-miterlimit="10" d="M411.9,417.9c-0.9,0.7-1.7,1.2-2.4,1.5
	c-4.5,1.9-15.7-0.5-22.1-11.1c-2.7-4.5-4.5-10.5-4.5-18.3c0-14.3,4.5-25.8,8.6-33.2c1.9-3.5,3.7-6,4.9-7.6
	c4.5,6.4,11.8,20.1,19.2,24.1l0.4,1.1l8.6,4.5l0.2,0.6C426,398.2,418.1,412.9,411.9,417.9z"/>
<path fill="#FFFFFF" stroke="#000000" stroke-miterlimit="10" d="M383,390.1c0,7.8,1.8,13.8,4.5,18.3c-7.9-3.8-13.6-1.2-13.6-1.2
	c-6.6-8.2-5.5-25.1,1.6-31.9c-6.3-13-1.4-23.5,2.3-28.5c6.6,6.8,12.1,9.3,13.9,10.1C387.5,364.3,383,375.7,383,390.1z"/>
<path fill="#FFFFFF" stroke="#000000" stroke-miterlimit="10" d="M408,453.2c-1.8-7.3-6.3-18.5-18.1-27.7c-12-9.3-23.5-5.9-30.6-1.8
	c1.2-6.5,6.9-12.3,14.6-16.5c0,0,5.7-2.6,13.6,1.2c6.3,10.6,17.6,13,22.1,11.1c0.8-0.3,1.6-0.8,2.4-1.5
	C413.4,426.1,415.9,446.6,408,453.2z"/>
<path fill="#FFFFFF" stroke="#000000" stroke-miterlimit="10" d="M351.2,464.7c-0.2,0.4-0.4,0.8-0.7,1.2
	c-1.5,2.2-13.4,14.5-19.9,21.2c-2.4-1.6-5-3.1-4.9-4.6c0.2-2.3-1.4-14.6,2.8-18.1c3.5-2.9,10.7-7.4,13-8.9c2.3-0.6,6.2-1.1,7.5,1.8
	C350.7,460.9,352.2,462.4,351.2,464.7z"/>
<path fill="#FFFFFF" stroke="#000000" stroke-miterlimit="10" d="M365.1,503.7c-2.2,0.4-5.5,4.5-7.9,3.2c-2.6-1.3-4.6-5.3-6.6-5.8
	c-0.3-0.1-0.8-0.1-1.2,0c5.4-6.2,13.5-16.6,14.1-25c4-0.5,10.4-0.3,11.5,5.2c0,0.2,0.1,0.3,0.1,0.5
	C375.4,486.5,370.1,496,365.1,503.7z"/>
<path fill="#FFFFFF" stroke="#000000" stroke-miterlimit="10" d="M384.5,489.5l-1.7,1l-1.1,4.5l-8.7,11c0,0-5.3-2.4-7.5-2.4
	c-0.1,0-0.2,0-0.4,0c4.9-7.8,10.2-17.3,9.9-21.8C378.1,480.6,384.1,479.7,384.5,489.5z"/>
<path fill="#FFFFFF" stroke="#000000" stroke-miterlimit="10" d="M409.2,460.8l-15.9,16.6l-1.1,7.5l-7.7,4.7c-0.5-9.8-6.4-9-9.5-7.6
	c0-0.2,0-0.3-0.1-0.5c-1-5.5-7.5-5.7-11.5-5.2c0.1-0.8,0-1.6,0-2.4c5.1-0.8,7.2-7.6,7.5-9.8c0.4-2.6-4.8-5.4-8.6-11
	c-2.8-4.1-7.7-8.5-10.2-10.6c-0.3-11.6,0.1-13.4,0.1-13.4c0.1-0.2,2.7-2.9,7-5.4c7.1-4.1,18.6-7.5,30.6,1.8
	c11.8,9.2,16.4,20.4,18.1,27.7C409.2,457.8,409.2,460.8,409.2,460.8z"/>
<path fill="#FFFFFF" stroke="#000000" stroke-miterlimit="10" d="M370.9,464.1c-0.3,2.1-2.4,8.9-7.5,9.8l0,0c0-0.1,0-0.3,0-0.4
	c-1.3-8-7.5-9.2-12.1-8.8c1-2.3-0.5-3.8-2.2-7.3c-1.4-2.9-5.3-2.4-7.5-1.8c0.5-0.3,0.8-0.5,0.8-0.5s-2.3-8.1,10-12.6l0,0
	c2.4,2.1,7.4,6.5,10.2,10.6C366.1,458.7,371.3,461.5,370.9,464.1z"/>
<path fill="#FFFFFF" stroke="#000000" stroke-miterlimit="10" d="M363.5,476.2c-0.6,8.3-8.7,18.8-14.1,25c-2.3,0.4-5.8,2.1-8.9,0.2
	c-3.7-2.3-4.9-8.8-6.8-11.6c-0.6-1-1.8-1.8-3-2.7c6.5-6.7,18.3-19,19.9-21.2c0.3-0.4,0.5-0.8,0.7-1.2c4.6-0.4,10.8,0.8,12.1,8.8
	c0,0.1,0,0.3,0,0.4l0,0C363.5,474.6,363.5,475.4,363.5,476.2z"/>
<path fill="#FFFFFF" stroke="#000000" stroke-miterlimit="10" d="M401.8,333.5c-7.6-8.8-22.1-25.8-24.9-29.8
	c-2.9-4.1-2.1-17-1.5-23.2l16.3,3.7l9,44L401.8,333.5z"/>
<path fill="#FFFFFF" stroke="#000000" stroke-miterlimit="10" d="M562.7,353.6l-10,15.7L519,380.4
	C522.1,378.5,562.7,353.6,562.7,353.6z"/>
<path fill="#FFFFFF" stroke="#000000" stroke-miterlimit="10" d="M574.6,375.7L518.8,398L480,372.8c0,0,38,16.4,39,16.4
	s38.5-14.7,38.5-14.7L574.6,375.7z"/>
<path fill="#FFFFFF" stroke="#000000" stroke-miterlimit="10" d="M575.2,404.4l-2.7,10.9c-12.8-2.7-28.5-2.9-39.5-2.6l0,0
	c-9.1-1.7-20.9-1.9-39.7-1.9c-2.8,0-5.4,0.1-8,0.3l11.1-7c0,0,60.1,4,76.3,1.2C573.6,405,574.5,404.7,575.2,404.4z"/>
<path fill="#FFFFFF" stroke="#000000" stroke-miterlimit="10" d="M551.5,419.9c-9.9-2.3-17.3-3.1-17.3-3.1
	c-43.6-3.7-78.6,9.9-84.6,12.4c0.4-2.9,1.7-4.8,1.7-4.8l-0.9-4c5.4-2.6,12.8-5.6,22.1-7.5c3.9-0.8,8.2-1.4,12.8-1.8
	c2.6-0.2,5.2-0.3,8-0.3c18.8,0,30.7,0.2,39.7,1.9l0,0C540.2,414,545.7,416.2,551.5,419.9z"/>
<path fill="#FFFFFF" stroke="#000000" stroke-miterlimit="10" d="M574.4,416.1l-0.5,11.2c-7.5-3.4-15.5-5.7-22.3-7.4
	c-5.9-3.7-11.3-5.8-18.5-7.1c11-0.3,26.7-0.1,39.5,2.6l-0.1,0.5L574.4,416.1z"/>
<path fill="#FFFFFF" stroke="#000000" stroke-miterlimit="10" d="M573.8,427.2l-0.4,7.9c-11.5-2.8-30.1-4.7-51.3-6.5
	c-20.5-1.7-53.8,5.6-72.4,10.1c0.3-0.8,0.6-1.6,1.1-2.2c-1.4-2.6-1.5-5.2-1.2-7.3c6-2.5,41-16.1,84.6-12.4c0,0,7.4,0.7,17.3,3.1
	C558.3,421.5,566.3,423.8,573.8,427.2z"/>
<path fill="#FFFFFF" stroke="#000000" stroke-miterlimit="10" d="M576.3,447.7c-5.1-1.7-10.3-3.2-15.5-4.3c-1.5-1.5-2.5-2.4-2.5-2.4
	l-1.3,1.6c-6.1-1.2-12.2-2-18.2-2.4c-2.2-0.2-4.4-0.3-6.5-0.4c-4.2-0.2-8.3-0.2-12.3-0.1c-3.2,0.1-6.3,0.2-9.3,0.4
	c-32,2.2-57.1,11.3-60.7,13.7c0,0-0.2-1.1-0.5-2.7c-0.5-3.2-1.1-8.7,0.1-12.4c18.6-4.5,51.8-11.8,72.4-10.1
	c21.3,1.8,39.8,3.6,51.3,6.5v0.4c0,0,1.3,3,2.4,9.4C576,445.8,576.1,446.7,576.3,447.7z"/>
<path fill="#FFFFFF" stroke="#000000" stroke-miterlimit="10" d="M472.5,412.9c-9.3,1.9-16.8,4.9-22.1,7.5l-1.2-5.4l0.4,0.1
	L472.5,412.9z"/>
<path fill="#FFFFFF" stroke="#000000" stroke-miterlimit="10" d="M430.4,658.1c-1.1,1.1-12.5,38.8-12.5,38.8l-17.8-21.7
	c0,0-2.1-51.3-2.5-54.5l-1.8,57.8l11.8,27.1l20,6.8l10.7-33.2c0,0,32.8-52,35.3-54.2C476,622.8,431.4,657,430.4,658.1z M482.4,537.3
	l-6.1,34.2l-16,24.9l2.9,4.6l39.6-31.7L482.4,537.3z M464.8,485.5l-0.5,52.8l14.7-24.2L464.8,485.5z M500.6,524.4l10.2-84.2
	c-32,2.2-57.1,11.3-60.7,13.7c0,0-0.2-1.1-0.5-2.7l-10,18.4l-12.5,46.3l-1.4,2.4L430,605c0,0,10.7,11.4,11.8,11
	c1-0.4,58.5-35.7,61.2-37.4l-60.1,46.6l-23.9-15l2.6-85.2l-11.9,19.7l-14.6,49.9l-38.9,70.9l6.4,39.9l-13.9,36.7l14.2,21.3l7.7,11.6
	l1.6,2.4c0,0,1.3,0.3,3.7,0.9c6.3,1.5,19.9,4.6,33.7,6.9c8.8,1.4,17.8,2.5,25,2.6c1.8,0,3.4,0,4.9-0.1c3.4-0.2,6.3-0.8,8.2-1.7
	c6.1-13.5,13.9-27.5,13.9-27.5l8.2-7.8c0,0,2.1-35.3,2.9-37.1c0.6-1.5,30.2-93.5,40.6-125.8C509.1,568.5,500.6,524.4,500.6,524.4z"
	/>
<path fill="#FFFFFF" stroke="#000000" stroke-miterlimit="10" d="M657.8,672.4c0,0-7.8,56.4-24.5,76.6c1.6-6.1,3.3-12.7,5-19.2
	l-11.2,4.3l-22.6-2.4l-47.5-42l-3.6-23.8l44.4,38.3l25.2,23.3l13.5-11.9l7.1-6.4c2.9-10.9,5-18.8,5-18.8L657.8,672.4
	c0,0,4.6-28.2,4.6-29.2c0-1.1-20.7-18.2-28.9-41s-26.4-77.7-29.9-83c-4.5-10.4-12.1-62.4-27.8-74.1c0.1,0.8,0.3,1.7,0.4,2.7
	c-5.1-1.7-10.3-3.2-15.5-4.3c5.8,5.7,20.1,20.3,22.1,27.9c2.5,9.6,9.6,45.6,9.6,45.6l-5.7,2.1c0,0,20.3,62.7,9.6,93.7
	c-2.9-36.3-15.7-92.3-15.7-92.3l-7.1-28.9l-27.4-34.9l10.9-14.1c-6.1-1.2-12.2-2-18.2-2.4c2.4,12,8.4,51.9,8.7,73.5
	c-2.8-14.9-13-63.3-15.3-73.9c-4.2-0.2-8.3-0.2-12.3-0.1c-2.7,16.2-10.3,80-10.3,80l4.4,65.5c1.7-5.3,2.7-8.5,2.7-8.5L553,697.5
	l5.3,12.1l4.6,49.2l19.2,10l0,0l12.1,6.4c0,0,32.1,7.5,33.5,7.5c0.4,0,3-1.5,6.7-3.7c5.8-3.5,14.2-8.9,20.8-13.3
	c5.4-3.6,9.5-6.5,10-7.2c1.4-2.1,20.7-43.1,20.7-43.1L657.8,672.4z M569.1,748.8l-1.4-9.7l26.8,9L569.1,748.8z M661.1,744
	c-0.7,0.7-19,21.1-19,21.1l2.1-6.6c0,0-2.9,1.9-18.8,13.1c7.1-21.9,29.9-40.6,29.9-40.6l5-19C660.4,711.9,661.8,743.3,661.1,744z
	 M614.6,688.8l-5.3-38.5l-19.6-1.1l-20-15c0,0,6.4,11.8,11.4,30.7s37.8,37.1,37.8,37.1s20.7-55.3,21.4-70.6
	C638.2,646,614.6,688.8,614.6,688.8z M569.7,569l-21-5.4c0,0,29.2,43.5,29.9,42.4C579.3,605,569.7,569,569.7,569z M622.5,594.7
	c-1.1-7.5-19.2-64.1-19.2-64.1s8.6,65.2,8.6,73.4s-16,22.1-16,22.1L534.2,578l48.8,56.7l30.6,2.5
	C613.6,637.1,623.5,602.1,622.5,594.7z"/>
<path fill="#FFFFFF" stroke="#000000" stroke-miterlimit="10" d="M547.6,513.7c-2.8-14.9-13-63.3-15.3-73.9c2.2,0.1,4.3,0.2,6.5,0.4
	C541.3,452.3,547.3,492.2,547.6,513.7z"/>
<path fill="#FFFFFF" stroke="#000000" stroke-miterlimit="10" d="M613.6,637.1l-30.6-2.5l-48.8-56.7l61.7,48.1c0,0,16-13.9,16-22.1
	s-8.6-73.4-8.6-73.4s18.2,56.7,19.2,64.1C623.5,602.1,613.6,637.1,613.6,637.1z"/>
<path fill="#FFFFFF" stroke="#000000" stroke-miterlimit="10" d="M374,909.5c-1,1.5-2,2.9-3,3.9c-6.4,6.9-32.1,18.1-46.8,19.5
	c-7.5-11.7-3.7-32.3,0.5-43.4c4.2,4.8,10.1,10.5,16.3,13.8C348.6,907.5,363.9,909,374,909.5z"/>
<path fill="#FFFFFF" stroke="#000000" stroke-miterlimit="10" d="M410,849c-0.3,0.7-0.5,1.2-0.5,1.2c0,1-2.4,6.4-6.2,6.9
	c-0.2,4.8-7.1,17.6-12.8,24.2c-4.3,5-9.5,16.6-14.5,25.1c-0.7,1.1-1.3,2.1-1.9,3.1c-10.1-0.5-25.4-2-33.1-6.1
	c-6.2-3.3-12-9-16.3-13.8l0,0c0.6-1.5,1.1-2.8,1.7-3.9c0.1-0.2,0.2-0.4,0.3-0.6c4.5-9.1,18.4-37.8,21.1-43.3l21.4,16.4L410,849z"/>
<path fill="#FFFFFF" stroke="#000000" stroke-miterlimit="10" d="M369.8,843.6l4.6-49.7c0,0-6.6-9.8-6.6-10.7c0-0.5,1.6-4.8,2.8-8.1
	l1.6,2.4c0,0,1.3,0.3,3.7,0.9l7.7,10.7L369.8,843.6z"/>
<path fill="#FFFFFF" stroke="#000000" stroke-miterlimit="10" d="M434.7,787.9c-13.7,16.3-26.8,51.6-26.8,51.6s-32.8,6.2-33.9,5.3
	s7.3-16.6,7.8-20s-0.2,15.3-0.2,15.3l21.9-12.5l6-42.5C418.5,786.7,427.4,787.8,434.7,787.9z"/>
<path fill="#FFFFFF" stroke="#000000" stroke-miterlimit="10" d="M439.6,787.8c-10,20.5-26.6,54.3-29.7,61.2l-40.9,9.1l-21.4-16.4
	c0.3-0.6,0.5-1,0.5-1l-5.5-8.8l6.2-8.5l14.1-59.9l7.7,11.6c-1.3,3.3-2.8,7.6-2.8,8.1c0,0.9,6.6,10.7,6.6,10.7l-4.6,49.7l13.9-54.5
	l-7.7-10.7c6.3,1.5,19.9,4.6,33.7,6.9l-6,42.5l-21.9,12.5c0,0,0.7-18.7,0.2-15.3s-8.9,19.1-7.8,20s33.9-5.3,33.9-5.3
	s13-35.3,26.8-51.6C436.4,787.9,438.1,787.9,439.6,787.8z"/>
<path fill="#FFFFFF" stroke="#000000" stroke-miterlimit="10" d="M655.7,835.8c-6.4,4.3-12.7,8.1-13.2,8c-0.8-0.3-22.8-5.5-32.7-7.9
	c-2.9-0.7-4.7-1.1-4.7-1.1L582.5,769l12.1,6.4c0,0,32.1,7.5,33.5,7.5c0.4,0,3-1.5,6.7-3.7c3.6,15.1,12.9,54,12.9,54L655.7,835.8z"/>
<path fill="#FFFFFF" stroke="#000000" stroke-miterlimit="10" d="M670.2,825.1c-0.2,0.3-0.9,1-2,1.9c-2.7,2.2-7.7,5.7-12.6,8.9
	l-7.9-2.7c0,0-9.4-38.9-12.9-54c5.8-3.5,14.2-8.9,20.8-13.3C660.3,783.1,671.2,823.3,670.2,825.1z"/>
<path fill="#FFFFFF" stroke="#000000" stroke-miterlimit="10" d="M688.4,927.7c0,0-38.6-10.8-47-29.1c7.5,1.2,24.8,3.6,35.2,1.1
	c6.4-1.5,12.1-6,16.3-10.3c1.1,3.7,2.1,7.6,2.8,11.5C698.9,919.6,688.4,927.7,688.4,927.7z"/>
<path fill="#FFFFFF" stroke="#000000" stroke-miterlimit="10" d="M692.9,889.6c-4.2,4.3-9.9,8.7-16.3,10.3
	c-10.4,2.5-27.8,0.1-35.2-1.1c-0.2-0.5-0.4-1-0.6-1.5c-0.1-0.3-0.2-0.6-0.3-1c-5.9-19.8-24.1-39.2-24.1-39.2l-0.4-9.3l-5.3-2.9l-1-9
	c9.9,2.4,31.9,7.6,32.7,7.9c0.5,0.2,6.8-3.7,13.2-8c4.9-3.2,9.9-6.7,12.6-8.9c3.6,4.9,7.3,10.2,7.5,11.3c0.5,2.1-3.4,3.2-3.4,3.2
	s2.5,6.6,6.4,15c2.6,5.6,7.8,15.2,11.9,26.5C691.5,885.1,692.3,887.3,692.9,889.6z"/>
<path fill="#FFFFFF" stroke="#000000" stroke-miterlimit="10" d="M473.5,625c-2.5,2.1-35.3,54.2-35.3,54.2l-10.7,33.2l-20-6.8
	l-11.8-27.1l1.8-57.8c0.4,3.2,2.5,54.5,2.5,54.5l17.8,21.7c0,0,11.4-37.8,12.5-38.8C431.4,657,476,622.8,473.5,625z"/>
<path fill="#FFFFFF" stroke="#000000" stroke-miterlimit="10" d="M578.6,606.1c-0.7,1.1-29.9-42.4-29.9-42.4l21,5.4
	C569.7,569,579.3,605,578.6,606.1z"/>
<path fill="#FFFFFF" stroke="#000000" stroke-miterlimit="10" d="M596.5,612.8c-2.9-36.3-15.7-92.3-15.7-92.3l-7.1-28.9l-27.4-34.9
	l10.9-14.1c1.2,0.2,2.5,0.5,3.7,0.8c5.8,5.7,20.1,20.3,22.1,27.9c2.5,9.6,9.6,45.6,9.6,45.6l-5.7,2.1
	C586.8,519.1,607.2,581.8,596.5,612.8z"/>
<path fill="#FFFFFF" stroke="#000000" stroke-miterlimit="10" d="M509.8,519.8l4.4,65.5l0,0c-0.3,0.8-0.5,1.7-0.8,2.6
	c-4.3-19.4-12.8-63.5-12.8-63.5l10.2-84.2c3-0.2,6.2-0.4,9.3-0.4C517.4,456,509.8,519.8,509.8,519.8z"/>
<path fill="#FFFFFF" stroke="#000000" stroke-miterlimit="10" d="M643.7,709.1c-1.6,6.2-3.5,13.4-5.4,20.7l-11.2,4.3l-22.6-2.4
	l-47.5-42l-3.6-23.8l44.4,38.3l25.2,23.3l13.5-11.9L643.7,709.1z"/>
<path fill="#FFFFFF" stroke="#000000" stroke-miterlimit="10" d="M657.8,672.4c0,0-7.8,56.4-24.5,76.6c1.6-6.1,3.3-12.7,5-19.2
	c1.9-7.3,3.8-14.5,5.4-20.7c2.9-10.9,5-18.8,5-18.8L657.8,672.4z"/>
<polygon fill="#FFFFFF" stroke="#000000" stroke-miterlimit="10" points="594.6,748 569.1,748.8 567.7,739 "/>
<path fill="#FFFFFF" stroke="#000000" stroke-miterlimit="10" d="M661.1,744c-0.7,0.7-19,21.1-19,21.1l2.1-6.6
	c0,0-2.9,1.9-18.8,13.1c7.1-21.9,29.9-40.6,29.9-40.6l5-19C660.4,711.9,661.8,743.3,661.1,744z"/>
<path fill="#FFFFFF" stroke="#000000" stroke-miterlimit="10" d="M640.3,631.4c-0.7,15.3-21.4,70.6-21.4,70.6s-32.8-18.2-37.8-37.1
	c-5-18.9-11.4-30.7-11.4-30.7l20,15l19.6,1.1l5.3,38.5C614.6,688.8,638.2,646,640.3,631.4z"/>
<polygon fill="#FFFFFF" stroke="#000000" stroke-miterlimit="10" points="502.7,569.4 463.2,601.1 460.3,596.4 476.3,571.5 
	482.4,537.3 "/>
<polygon fill="#FFFFFF" stroke="#000000" stroke-miterlimit="10" points="479.1,514 464.3,538.2 464.8,485.5 "/>
<path fill="#FFFFFF" stroke="#000000" stroke-miterlimit="10" d="M503,578.7l-60.1,46.6l-23.9-15l2.6-85.2l4.1-6.8L430,605
	c0,0,10.7,11.4,11.8,11C442.8,615.7,500.3,580.3,503,578.7z"/>
<path fill="#FFFFFF" stroke="#000000" stroke-miterlimit="10" d="M492.5,211l-2.9,3c-3-1.7-5.4-3.1-6.7-3.6
	c-0.3-0.1-0.5-0.2-0.7-0.3c-2.3-0.5-3.8,0.6-3.8,0.6s0.3-6.1,4.4-6.1C484.3,204.6,488.2,207.4,492.5,211z M496.9,214.7l-3.3,1.7
	c1.1,0.7,2.2,1.3,3.4,2c2.3,1.4,4.5,2.7,6.4,3.9c3.2,1.9,5.4,3.3,5.7,3.5C508.7,225.4,503,220,496.9,214.7z"/>
<path fill="#FFFFFF" stroke="#000000" stroke-miterlimit="10" d="M544.5,207.8c-1.7-3.4-3.1-5-5.3-2.9s-20.8,18.8-22.3,20.1
	c0.2-0.1,0.6-0.5,1.3-1l0.1,0.2l3.5,4.7l4.9-0.5l0,0l12.1-1.2c0,0,4.5-14.4,4.5-15.2c-0.1-0.5-1.8-2.4-2.8-3.5
	C543,207.6,544.3,208.2,544.5,207.8z M525.9,243.3c-0.2-1.7-0.5-3-1-3.3c-1.9-1.3-5.6,1.7-9,1.7c-3.5,0-9.3-1.3-9.3-1.3
	s-1.7-0.2-2.4,1.1c-0.2,0.3-0.2,1.4-0.2,2.9c0,3.2,0.3,8.3,0.7,12.4l3.1-1.6l0.7-0.3c0,0-0.2,6.7,0,7c0.2,0.4,6.3,3.1,7.6,3.2
	s5.1-2.7,5.8-3.2s0.7-8.8,0.7-8.8h0.4l3.3,0.3C526.3,249.9,526.2,246,525.9,243.3z M550.7,201.5L550.7,201.5
	c1.3-3.7,3.2-10,2.8-12.7l0,0c-0.1-0.4-0.2-0.7-0.4-0.9c-2-2.5-9.1,0-9.1,0s-3.7,0.5-5.8,0.8l0,0c-0.8,0.1-1.3,0.2-1.5,0.3
	c-0.3,0.1-2.8,0.7-5,1.3c-1.9,0.5-3.6,0.9-3.6,0.9l-1.4-0.1l-3.1,10.1l-26.9,13.7c6.1,5.3,11.8,10.7,12.2,11l0,0l-2.3,3.3
	c0,0-1.4,0.3-3.5,0.6l0,0c-4.7,0.7-12.7,1.5-14.6-0.7c-1.2-1.3-2.3-4.7-3.3-8.4l-4.6,2.3l4.1-4.1c-0.9-3.4-1.6-6.7-1.9-8.5
	c-0.3-0.1-0.5-0.2-0.7-0.3c-2.3-0.5-3.8,0.6-3.8,0.6s0.3-6.1,4.4-6.1c1.5,0,5.4,2.8,9.8,6.4l12.7-12.8l1.8-8.1l-2-0.1h-1
	c0,0-1.1-0.7-9.3-4.5c-2.9-1.3-7.3-1.3-11.8-0.8c-1.9,1.7-5.8,5.3-10.7,9.7l0,0c0.6,4.8,1.5,11,2.6,17.4c0.3,1.7,0.6,3.5,0.9,5.3
	l0,0c1.3,6.9,2.8,13.9,4.5,19.8c0.4,1.4,0.8,2.8,1.3,4.1c0,0,0.1,0,0.2,0c0,0.1,0,0.2-0.1,0.3l0,0c0.3,0.9,0.6,1.8,1,2.6
	c0.8,2.1,1.7,3.9,2.7,5.2c8.6,12.1,25.3,25.9,27.6,26.1c2.3,0.2,5.2,1.4,8.4-0.5c3.2-2,17.8-17.6,21.2-24.2c0.7-1.3,1.5-3.7,2.4-6.8
	c0.2-0.5,0.3-1,0.5-1.6c0.3-1.2,0.7-2.4,1-3.7c0.3-1.2,0.7-2.5,1-3.8c1.6-6.1,3.2-13,4.7-19.1l0,0c0.3-1.2,0.6-2.4,0.8-3.6l0,0
	c0.2-0.7,0.3-1.4,0.5-2.1l-3.6-5.5C549.8,204.2,550.2,203.1,550.7,201.5z M525.8,262c-0.5,2.1-6.2,8.6-10.2,7.6s-9.5-3.7-10.2-7.6
	c-0.2-1.1-0.4-3-0.6-5.2l3.1-1.6l0.7-0.3c0,0-0.2,6.7,0,7c0.2,0.4,6.3,3.1,7.6,3.2s5.1-2.7,5.8-3.2s0.7-8.8,0.7-8.8h0.4l3.3,0.3
	C526.2,257.5,526,261.1,525.8,262z"/>
<path fill="#FFFFFF" stroke="#000000" stroke-miterlimit="10" d="M580.8,193.3c-0.6,1.1-1.2,2.2-1.7,3.1
	c-6.4,5.1-12.4,10.2-14.9,13.4c-0.5-4-1.1-7.4-1.7-7.5c-1-0.1-5.6,4.8-8.6,8.2l-0.6-0.9l-3.6-5.5c0,0,0.4-1.1,1-2.7l0,0l26-19.4
	l-8.8,16.6L580.8,193.3z"/>
<path fill="#FFFFFF" stroke="#000000" stroke-miterlimit="10" d="M453.3,154.4c-10-14.6-14.8-26.3-15.3-27.4
	c0.5,1.9,8.4,32.2,29.8,54c-2.8,3.1-5.9,6.7-9,10.6l-17-34.5l5.9,27.3l7.7,11.6c-0.9,1.3-1.9,2.5-2.8,3.8c-2.2-3.1-5.5-8.1-7.8-11.8
	c-1.7-2.7-3-4.6-3-4.6s-10.2-61.5-9-76.8c5.6,14,13.9,28.3,21.7,40.2c8.9,13.7,17.1,24.2,19.6,27.3c-0.8,0.8-1.6,1.7-2.5,2.6
	C464.2,169.2,458.1,161.5,453.3,154.4z"/>
<path fill="#FFFFFF" stroke="#000000" stroke-miterlimit="10" d="M471.5,176.8c-1.2,1.3-2.4,2.6-3.8,4.1
	c-21.4-21.8-29.3-52.1-29.8-54c0.5,1.1,5.3,12.8,15.3,27.4C458.1,161.5,464.2,169.2,471.5,176.8z"/>
<path fill="#FFFFFF" stroke="#000000" stroke-miterlimit="10" d="M458.8,191.6c-1.1,1.4-2.3,2.9-3.4,4.4l-7.7-11.6l-5.9-27.3
	L458.8,191.6z"/>
<path fill="#FFFFFF" stroke="#000000" stroke-miterlimit="10" d="M480.2,236.9c-1.1-0.5-2.9-1.4-4.1-1.5c-1.8-0.2-9.8-10.3-9.8-10.3
	s-1.2-10.2-0.7-11.8s1.8-1.4,2.7-1.4c0.7,0,5.2,3.5,7.5,5.2l0,0C477.1,224,478.6,231,480.2,236.9z"/>
<path fill="#FFFFFF" stroke="#000000" stroke-miterlimit="10" d="M481.5,240.9c-2.1,0.2-4.4,0.3-5.4,0c-1.1-0.4-4.9-4.1-8.4-7.8
	c-0.5-0.5-0.9-1-1.3-1.5l0,0c-2.7-2.9-4.9-5.5-5.1-6c-0.5-1.2-0.2-19.1,2.1-21.6l0.1-0.1c0.1-0.1,0.3-0.2,0.4-0.2
	c2.1,0,7.9,5.4,10.8,8.2c0.3,1.7,0.6,3.5,0.9,5.3c-2.3-1.8-6.8-5.2-7.5-5.2c-0.9,0-2.1-0.2-2.7,1.4c-0.5,1.6,0.7,11.8,0.7,11.8
	s8,10.2,9.8,10.3c1.2,0.1,3,0.9,4.1,1.5C480.7,238.3,481.1,239.7,481.5,240.9z"/>
<path fill="#FFFFFF" stroke="#000000" stroke-miterlimit="10" d="M461.4,225.6c0.2,0.5,2.4,3.1,5.1,6c-4.7-2.5-12.5-6.7-15.4-8.5
	c-0.8-0.5-2.7-2.5-5.1-5.4c4.5-3.9,10.5-9.3,16.5-14.5c0.1-0.1,0.2-0.1,0.2-0.2l0.1-0.1c3.3-2.9,6.5-5.9,9.5-8.5
	c0.6,4.8,1.5,11,2.6,17.4c-2.9-2.8-8.7-8.2-10.8-8.2c-0.1,0-0.3,0.1-0.4,0.2l-0.1,0.1C461.1,206.5,460.9,224.4,461.4,225.6z"/>
<path fill="#FFFFFF" stroke="#000000" stroke-miterlimit="10" d="M505,190h-1c0,0-1.1-0.7-9.3-4.5c-2.9-1.3-7.3-1.3-11.8-0.8
	c-1.9,1.7-5.8,5.3-10.7,9.7l0,0c-2.9,2.6-6.2,5.5-9.5,8.5l-0.1,0.1c-0.1,0.1-0.2,0.1-0.2,0.2c-5.9,5.3-11.9,10.6-16.5,14.5
	c-2.5,2.1-4.5,3.9-5.8,4.9c0.9-2.6,2.1-5.2,3.4-7.9c2.5-5.1,5.7-10.2,9.1-15c0.9-1.3,1.8-2.6,2.8-3.8c1.1-1.5,2.3-3,3.4-4.4
	c3.1-3.9,6.2-7.5,9-10.6c1.3-1.5,2.6-2.9,3.8-4.1c0.9-1,1.7-1.8,2.5-2.6c3.3-3.4,5.5-5.5,5.5-5.5s0.2-0.1,0.7-0.2
	c2.6-0.8,12.1-3.5,18.8,1.4C506.1,175.1,505.2,187.7,505,190z"/>
<path fill="#FFFFFF" stroke="#000000" stroke-miterlimit="10" d="M526.2,253.5c-0.1,4-0.3,7.7-0.5,8.5c-0.5,2.1-6.2,8.6-10.2,7.6
	s-9.5-3.7-10.2-7.6c-0.2-1.1-0.4-3-0.6-5.2l3.1-1.6l0.7-0.3c0,0-0.2,6.7,0,7c0.2,0.4,6.3,3.1,7.6,3.2s5.1-2.7,5.8-3.2
	s0.7-8.8,0.7-8.8h0.4L526.2,253.5z"/>
<path fill="#FFFFFF" stroke="#000000" stroke-miterlimit="10" d="M523,253.1h-0.4c0,0,0,8.3-0.7,8.8s-4.5,3.3-5.8,3.2
	c-1.3-0.1-7.4-2.8-7.6-3.2c-0.2-0.4,0-7,0-7l-0.7,0.3c0.1-0.7,0.3-1.6,0.6-2.4c0.2-0.5,0.3-1,0.5-1.5c2.4,0.2,6.5,0.8,7.3,2.3
	c1.5-1.2,4.6-1.6,6.5-1.7C522.8,252.3,522.9,252.7,523,253.1z"/>
<path fill="#FFFFFF" stroke="#000000" stroke-miterlimit="10" d="M522.7,251.8c-1.9,0.2-5,0.5-6.5,1.7c-0.8-1.4-4.9-2-7.3-2.3
	c0.6-1.5,1.4-2.7,2.5-3c3.1-0.8,8.9-1.4,10.2,0.6C522.1,249.6,522.4,250.7,522.7,251.8z"/>
<path fill="#FFFFFF" stroke="#000000" stroke-miterlimit="10" d="M526.2,253.5l-3.3-0.3c-0.1-0.4-0.2-0.9-0.3-1.3
	c-0.3-1.1-0.6-2.2-1.1-2.9c-1.3-2-7.1-1.4-10.2-0.6c-1.1,0.3-1.9,1.5-2.5,3c-0.2,0.5-0.4,1-0.5,1.5c-0.3,0.9-0.4,1.7-0.6,2.4
	l-3.1,1.6c-0.4-4.1-0.7-9.2-0.7-12.4c2.2,0.5,6.3,1.1,11.2,1.2c4.6,0.1,8.4-1.3,10.7-2.3C526.2,246,526.3,249.9,526.2,253.5z"/>
<path fill="#FFFFFF" stroke="#000000" stroke-miterlimit="10" d="M525.9,243.3c-2.3,1.1-6.1,2.4-10.7,2.3c-4.9-0.1-8.9-0.8-11.2-1.2
	c0-1.5,0.1-2.6,0.2-2.9c0.7-1.3,2.4-1.1,2.4-1.1s5.8,1.3,9.3,1.3c3.4,0,7.1-3,9-1.7C525.4,240.3,525.7,241.5,525.9,243.3z"/>
<path fill="#FFFFFF" stroke="#000000" stroke-miterlimit="10" d="M527.1,227.9l-0.3,0.6l0,0l-4.9,0.5l-3.5-4.7l-0.1-0.2
	c1-0.7,2.5-1.8,4.2-3.1l0,0l1.7,4.9L527.1,227.9z"/>
<path fill="#FFFFFF" stroke="#000000" stroke-miterlimit="10" d="M544.5,207.8c-0.2,0.4-1.5-0.2-4,0.9c-0.4,0.2-0.9,0.4-1.4,0.7
	c-2.6,1.6-5.8,3.8-8.9,6c-2.8,2-5.5,3.9-7.8,5.6c-1.7,1.3-3.2,2.3-4.2,3.1c-0.7,0.5-1.1,0.8-1.3,1c1.5-1.3,20.1-18.1,22.3-20.1
	C541.4,202.8,542.9,204.4,544.5,207.8z"/>
<path fill="#FFFFFF" stroke="#000000" stroke-miterlimit="10" d="M543.3,212.2c0.1,0.7-4.5,15.2-4.5,15.2l-12.1,1.2l0.3-0.6l2.3-4.3
	l0.8-8.1c3.1-2.2,6.3-4.4,8.9-6c0.5-0.3,0.9-0.6,1.4-0.7C541.6,209.8,543.3,211.7,543.3,212.2z"/>
<path fill="#FFFFFF" stroke="#000000" stroke-miterlimit="10" d="M489.6,214l-4.8,4.8c-0.9-3.4-1.6-6.7-1.9-8.5
	C484.2,210.9,486.6,212.3,489.6,214z M503.1,229.4l-3.9-3.6l-2.2-7.5c-1.1-0.7-2.2-1.3-3.4-2l-8.3,4.2c1,3.7,2.2,7.1,3.3,8.4
	c2,2.2,10,1.4,14.6,0.7L503.1,229.4z"/>
<path fill="#FFFFFF" stroke="#000000" stroke-miterlimit="10" d="M504.9,226.7l-1.8,2.8l-3.9-3.6l-2.2-7.5c2.3,1.4,4.5,2.7,6.4,3.9
	L504.9,226.7z"/>
<path fill="#FFFFFF" stroke="#000000" stroke-miterlimit="10" d="M530.3,215.5l-0.8,8.1l-2.3,4.3l-2.9-1.9l-1.7-4.9l0,0
	C524.7,219.4,527.5,217.4,530.3,215.5z"/>
<path fill="#FFFFFF" stroke="#000000" stroke-miterlimit="10" d="M518,297.5l-0.3,12.2c-19.2,0.1-43.3-1.5-47.2-3.6
	c-2.3-1.3-6.4-6.8-10.3-12.8c2-1.3,9.1-5.2,22.7-5.9c1.6-0.1,3.4-0.1,5.2-0.1C507.2,287.5,517.1,296.6,518,297.5z"/>
<path fill="#FFFFFF" stroke="#000000" stroke-miterlimit="10" d="M580.3,277.4L580.3,277.4c-0.4,3.8-1.5,10.8-3.5,15
	c-5.2-2.5-15.6-6.5-29-6.5c-2.3,0-4.5,0.2-6.5,0.4c2.6-5.4,4.9-12.1,5.8-19.5c0.6-5.1,0.6-9.7,0.3-13.7c4.6,0.5,13.4,3,23.9,13.5
	C574.1,269.6,577.2,273.1,580.3,277.4z"/>
<path fill="#FFFFFF" stroke="#000000" stroke-miterlimit="10" d="M576.8,292.4c-0.2,0.5-0.5,0.9-0.8,1.3
	c-3.6,5.2-23.8,12.1-37.3,14.7c-4.3,0.8-12.1,1.2-21,1.2l0.3-12.2h0.1c0,0,7.8-9.1,23.2-11.2c2-0.3,4.2-0.4,6.5-0.4
	C561.2,285.9,571.6,289.9,576.8,292.4z"/>
<path fill="#FFFFFF" stroke="#000000" stroke-miterlimit="10" d="M553,309.5c-11.6,5.6-20.9,9.6-20.9,9.6s-14.9,0.4-30.7,1.1
	l16.2-3.3L553,309.5z"/>
<path fill="#FFFFFF" stroke="#000000" stroke-miterlimit="10" d="M491.5,320.6c-8.6,0.4-16.7,0.9-21.8,1.4
	c-5.6-7.6-10-13.9-12.5-17.4l16.6,10.6L491.5,320.6z"/>
<path fill="#FFFFFF" stroke="#000000" stroke-miterlimit="10" d="M591,288.8v6.6l-9.6,19.6l-17,13.8l-14.6,5.3l9.3-7l-48.6,12.4
	l-28.4-1.3c-4.5-5.7-8.7-11.3-12.4-16.3c5.2-0.5,13.2-1,21.8-1.4l0,0c3.3-0.1,6.6-0.3,9.9-0.4c15.9-0.6,30.7-1.1,30.7-1.1
	s9.3-4,20.9-9.6l0,0c8.9-4.3,19.1-9.4,27.6-14.3c0.1,0,0.2-0.1,0.2-0.1l0,0C584.7,292.9,588.2,290.8,591,288.8z"/>
<path fill="#FFFFFF" stroke="#000000" stroke-miterlimit="10" d="M541.3,357.6c-8.9,6.8-18.5,13.3-27.1,17.6
	c-5.8-5.4-12-12.3-18.3-19.7c8,3.5,20.1,8.9,20.5,8.9c0.5,0,11.6-6.4,11.6-6.4L541.3,357.6z"/>
<path fill="#FFFFFF" stroke="#000000" stroke-miterlimit="10" d="M581.4,315l-4.5,9.3l-2.7,5.6c0,0-9.2,8.7-21.6,18.9l6-10.7
	l-8.4,2.3l14.3-11.6L581.4,315z"/>
<path fill="#FFFFFF" stroke="#000000" stroke-miterlimit="10" d="M550.1,340.3l8.4-2.3l-6,10.7c-3.5,2.9-7.3,5.9-11.2,8.8L528,358
	c0,0-11,6.4-11.6,6.4c-0.3,0-12.5-5.3-20.5-8.9c-4.8-5.6-9.5-11.5-14-17.2l28.4,1.3l21.7,1l17.7-6.4l14.6-5.3L550.1,340.3z"/>
</svg>
