<?xml version="1.0" encoding="utf-8"?>
<!-- Generator: Adobe Illustrator 25.2.0, SVG Export Plug-In . SVG Version: 6.00 Build 0)  -->
<svg version="1.1" id="Layer_1" xmlns="http://www.w3.org/2000/svg" xmlns:xlink="http://www.w3.org/1999/xlink" x="0px" y="0px"
	 viewBox="0 0 1000 1000" style="enable-background:new 0 0 1000 1000;" xml:space="preserve">
<style type="text/css">
	.st0{fill:#FFFFFF;stroke:#000000;stroke-miterlimit:10;}
	.st1{fill:none;stroke:#000000;stroke-miterlimit:10;}
</style>
<path class="st0" d="M559.9,119.6C559.9,119.6,559.9,119.6,559.9,119.6c-0.2,0.6-0.4,1.1-0.6,1.5c-2.1,0.8-2.7,8.2-2.7,8.2
	s-0.2-0.3-0.6-0.8c-1-1.4-3.1-4.4-5-7.7c-2.7-4.7-0.8-12.5-2.1-21.6c-1.4-9.2-9.2-11.5-9.2-11.5c-0.5-0.2-1-0.2-1.7,0
	c3.4-15.8-3.1-24.5-8.8-28.9c3.7-0.4,9.1-0.8,11.2,0.3c3.3,1.8,10.3,6.2,13.4,9.2c3.1,2.9,9.2,19.5,9.5,25.1
	C563.7,98.5,562.4,112.9,559.9,119.6z"/>
<path class="st0" d="M537.9,87.6c-3.4,0.9-9.4,6.4-18.7,7.2c-11.1,1-13.4-8.4-15.8-8.4c-4.3,4.5-2.9,17.1-2.9,17.1s-3.7-7.4-2-20.8
	c-5.6,5.8-6.6,23-3.3,29.2c-10.6-12.1-0.2-29.2,0.7-30.7c-0.8,1-7.1,9.5-9.5,16.4c-2.5,7.4-2,29.6-2,31.9c0,0.1,0,0.3-0.1,0.3v0
	c-0.6,1-5.3-5.2-6.7-2.9c-0.1-0.3-0.3-0.7-0.4-1v0c-6.6-16.9-1.7-41.4-1.7-41.4s-2.7,1.6-5.3,3.1c0.8-7.4,5.6-10.3,5.6-10.3
	c-2.5-0.6-4.9-2.3-4.9-2.3s3.7-1.6,7.6-3.3c3.9-1.8,8.2-11.5,20.5-15.8c12.3-4.3,26.5,3.1,26.5,3.1s1.5-0.2,3.5-0.5
	C534.8,63.2,541.2,71.9,537.9,87.6z"/>
<path class="st0" d="M489.4,146.1c-6-3.4-9.1-7.8-10.7-11.9c-1.3-3.2-1.5-6.1-1.5-8.1c0.1,0.4,0.3,0.7,0.4,1
	c1.4-2.4,6.1,3.9,6.7,2.9C485.7,134.2,487.9,140.7,489.4,146.1z"/>
<path class="st0" d="M541.7,177.1c-4,8.2-10.7,12.4-15.9,13.7c-1.6,0.4-3.1,0.5-4.3,0.4c-5.6-0.6-12.2-5.6-16.1-9.6
	c-0.8-0.9-1.9-2.4-3.1-4.2c0,0,3.6-6,5.5-8.4c0.8,0.5,2.4,1.5,3.1,2c1.1,0.7,6,5,10.6,4c4.6-1,11.9-7,12.5-7.8
	C536.5,169.6,540.6,175.7,541.7,177.1z"/>
<path class="st0" d="M561.1,131.1c-0.6,3.4-4.1,5.5-6.5,6.6c0.7-3,1.1-6.5,1.4-9.1c0.4,0.5,0.6,0.8,0.6,0.8s0.6-7.4,2.7-8.2
	c0.2-0.4,0.4-0.9,0.6-1.5C560.7,122.9,561.6,127.8,561.1,131.1z"/>
<path class="st0" d="M541.8,176.8c0,0.1-0.1,0.2-0.1,0.2c-1.1-1.4-5.1-7.5-7.7-10c-0.5-0.5-1-0.9-1.3-1.1c0,0-0.1,0-0.1-0.1
	c-2.5-1-8-0.9-12.3-0.9c-4.2,0-9.9,1.8-11.5,2.8c-0.1,0-0.1,0.1-0.2,0.1c-0.2,0.1-0.5,0.5-0.8,0.9c-1.9,2.4-5.5,8.4-5.5,8.4
	s0.4-9.2,2.3-10.7c1.9-1.6,9.1-6.4,14.7-6.9c5.6-0.5,13,1.9,16.9,4.7C539.8,166.8,541.2,174.7,541.8,176.8z"/>
<line class="st1" x1="534" y1="167" x2="534" y2="167"/>
<path class="st0" d="M532.5,165.9c-2.7,0.9-8.5,2.8-12,3.2c-3.4,0.4-9.1-0.7-11.9-1.3c1.6-1,7.3-2.8,11.5-2.8
	C524.5,165,530.1,164.9,532.5,165.9z"/>
<path class="st0" d="M534,167c-0.7,0.8-7.9,6.8-12.5,7.8c-4.7,1-9.6-3.3-10.6-4c-0.8-0.5-2.3-1.5-3.1-2c0.3-0.4,0.6-0.8,0.8-0.9
	c0,0,0.1-0.1,0.2-0.1c2.7,0.6,8.5,1.7,11.9,1.3c3.4-0.4,9.2-2.2,12-3.2c0,0,0.1,0,0.1,0.1C533,166.1,533.5,166.5,534,167z"/>
<path class="st0" d="M550.9,120.8c-2.7-4.7-0.8-12.5-2.1-21.6c-1.4-9.2-9.2-11.5-9.2-11.5c-0.5-0.2-1-0.2-1.7,0
	c-3.4,0.9-9.4,6.4-18.7,7.2c-11.1,1-13.4-8.4-15.8-8.4c-4.3,4.5-2.9,17.1-2.9,17.1s-3.7-7.4-2-20.8c-5.6,5.8-6.6,23-3.3,29.2
	c-10.6-12.1-0.2-29.2,0.7-30.7c-0.8,1-7.1,9.5-9.5,16.4c-2.5,7.4-2,29.6-2,31.9c0,0.1,0,0.3-0.1,0.3v0c1.4,4.1,3.5,10.6,5.1,16
	c0.9,3.1,1.6,5.9,1.8,7.5c0.2,1.2,0.6,2.8,1.3,4.6c0-0.4,0.1-0.9,0.1-1.3c0.4,1.4,0.9,3.1,1.4,5c0,0,0,0,0,0.1
	c2.3,5.2,5.5,11.1,8.1,15.2c0,0,0.4-9.2,2.3-10.7c1.9-1.6,9.1-6.4,14.7-6.9c5.6-0.5,13,1.9,16.9,4.7c3.6,2.5,5.1,10.4,5.6,12.5
	c0.5-0.9,0.9-1.9,1.2-3c2.3-6.4,3.7-13.1,5-18.6c1.3-5.9,2.4-10.3,4-11.4c0.7-0.6,1.4-1.9,1.9-3.7c0.2-0.8,0.4-1.6,0.6-2.5
	c0.7-3,1.1-6.5,1.4-9.1C554.9,127.1,552.9,124.2,550.9,120.8z M499.3,133.7c-2.7-0.7-6.7-1.3-6.7-1.3s3.9-3.7,6.1-3.5
	c2.1,0.2,8.5,2.8,8.5,2.8S502,134.3,499.3,133.7z M493.8,123.8l-4.5,1.3l3.4-3.8c0,0,13.8,6.2,17,8.2L493.8,123.8z M523.9,156.8
	c-1.8,0.8-4.5,1-4.5,1s-8.6-2-9.3-3.4c0,0,1.6-1.3,3.8-0.7c2.2,0.6,5.8,3.2,5.8,3.2s5.2-4.2,9-3.4
	C527.4,155.6,525.6,156,523.9,156.8z M535.4,133c-1.9-0.2-8.6-1.4-8.6-1.4s7.8-3.7,9.9-3.9c2.1-0.2,6.3,3.9,6.3,3.9
	S537.2,133.2,535.4,133z M537.6,123.8l-13.5,5.1l14.9-7.5l4.9,1.9L537.6,123.8z"/>
<polygon class="st0" points="543.9,123.3 537.6,123.8 524.1,128.9 539,121.4 "/>
<path class="st0" d="M509.6,129.6l-15.8-5.7l-4.5,1.3l3.4-3.8C492.6,121.4,506.4,127.6,509.6,129.6z"/>
<path class="st0" d="M528.6,153.5c-1.2,2.1-3,2.4-4.7,3.2c-1.8,0.8-4.5,1-4.5,1s-8.6-2-9.3-3.4c0,0,1.6-1.3,3.8-0.7
	c2.2,0.6,5.8,3.2,5.8,3.2S524.8,152.7,528.6,153.5z"/>
<path class="st0" d="M499.5,226.9c-1.8-8.9-10.5-23.6-23.4-33.9c-2.9-2.3-6.3-4.4-9.9-6.3c-12.1-6.5-25.9-10.5-26.2-12.6
	c-0.4-2.7,7.4-10.5,11.9-14.6s8.2-11.5,13.4-16c3.8-3.2,10.2-7.3,13.4-9.3c1.6,4,4.7,8.4,10.7,11.9c0.9,3.1,1.6,5.9,1.8,7.5
	c0.2,1.2,0.6,2.8,1.3,4.6c-0.6,7.1-1.4,19.1-1.4,30c0,1.3,0,2.7,0,4C491.6,210,498,217.5,499.5,226.9z"/>
<path class="st0" d="M599.6,186.7c-0.2,0.4-13.4,4.5-26.6,11.9c-1.9-0.1-3.5-0.1-4.8-0.1c0.1,0.2,0.6,1,1.3,2.2
	c-5.4,3.2-10.5,7.1-14.6,11.4c-4.2,4.4-7,9.9-9,15.5c-1.9,0.8-3.5,1.4-4.2,1.7c0.6-9.5,2-19.5,5.1-26.5c1.1-2.6,2.3-6.2,3.4-10.4
	c3.5-13.5,6.4-32,6-32.8c-0.3-0.6-4.8-2.7-8.3-4.3c1.3-5.9,2.4-10.3,4-11.4c0.7-0.6,1.4-1.9,1.9-3.7c7.1-0.5,17.4-0.7,19.8,0.4
	c3.1,1.6,13.8,13.8,16.4,23.6C592.6,174.1,599.9,186.1,599.6,186.7z"/>
<path class="st0" d="M649.2,302.5c-22.1-14.1-35.5-48.6-51.3-64.6c-13.7-13.8-24.6-31.1-28.3-37.2c1.2-0.7,2.3-1.4,3.5-2
	c2.8,0.1,6,0.3,9.2,0.5c6,4,22.9,16.2,26.2,29.4c3.9,15.6,19.1,45.8,40.6,72.7C649.1,301.6,649.1,302,649.2,302.5z"/>
<path class="st0" d="M800.2,666.8c-17.1-34.6-40.9-70.9-70.7-121.3c-0.7-1.1-1.3-2.3-2-3.4c-2-3.4-4-6.9-6.1-10.4
	c-1.8-3.1-3.7-6.3-5.5-9.4c-1.8-3.1-3.7-6.3-5.5-9.5c-1.4-2.4-2.7-4.7-4.1-7.1c-0.4-0.8-0.9-1.6-1.3-2.3c-0.9-1.6-1.8-3.1-2.7-4.7
	c-1.3-2.3-2.7-4.6-4-6.9c-1.3-2.3-2.6-4.5-3.9-6.8c-3.4-6-6.7-11.7-9.7-17.1c-0.9-1.5-1.7-3-2.5-4.5c-0.3-0.5-0.5-1-0.8-1.4
	c-0.7-1.3-1.4-2.5-2.1-3.8c-0.3-0.6-0.7-1.2-1-1.8c-0.8-1.3-1.5-2.7-2.2-4c-1.2-2.1-2.3-4.2-3.4-6.1c-5.2-9.2-8.8-15.7-10.2-18.1
	c0.8-3.1,1.5-6.3,2-9.5c1.1-7.2,1.1-14.5-0.4-21.7c-0.7-3.3-1.7-6.5-3.1-9.7c-0.2-0.6-0.5-1.1-0.7-1.7c-1.9-4.4-3.9-8.5-5.9-12.4
	c-0.6-1-1.1-2.1-1.7-3.1c-1.4-2.5-2.8-4.9-4.1-7.2c-0.3-0.5-0.6-0.9-0.8-1.4c-0.8-1.3-1.6-2.5-2.4-3.7c-0.7-1-1.3-2-2-2.9
	c-0.7-1.1-1.5-2.1-2.2-3.1c-0.2-0.3-0.5-0.7-0.7-1c-3.6-4.8-7.1-8.8-10.5-12.2c-0.3-0.3-0.6-0.6-0.9-0.9c-0.6-0.6-1.2-1.2-1.8-1.7
	c-0.9-0.8-1.7-1.6-2.6-2.3c-0.3-0.2-0.5-0.5-0.8-0.7c-0.5-0.5-1.1-0.9-1.6-1.4c-1.1-0.9-2.1-1.7-3.1-2.4c-0.5-0.4-1-0.7-1.4-1.1
	c-1.3-1-2.5-1.8-3.6-2.6c-2.4-1.7-4.4-2.8-5.6-3.7c-1.4-1-2.2-1.8-2.8-2.6v0c-0.2-0.2-0.3-0.5-0.5-0.7v0c-0.2-0.4-0.4-0.8-0.6-1.2
	c-0.1-0.2-0.1-0.3-0.2-0.5c-0.1-0.3-0.2-0.7-0.4-1.1c-0.6-1.8-1.5-4.2-3.3-8.1c-0.2-0.4-0.4-0.9-0.7-1.3c-0.1-0.2-0.2-0.5-0.3-0.7
	c-0.2-0.5-0.5-1-0.8-1.5c-0.5-1-1.1-2.1-1.8-3.3c-0.3-0.6-0.7-1.2-1.1-1.8v0c-0.2-0.4-0.5-0.8-0.7-1.2c-0.7-1.2-1.5-2.6-2.4-4
	c-5.7-9.2-13.9-17.3-21.8-23.7c-7.2-5.9-14.2-10.4-18.9-13.2c-1.6-0.9-2.9-1.7-3.8-2.2c1.1-0.5,2.4-1.1,3.8-1.9
	c11.6-6,5.9-29.3,4-29.1c-1.1,0.2-6.3,2.2-10.3,3.8c2-5.6,4.8-11.1,9-15.5c4-4.3,9.2-8.2,14.6-11.4c3.7,6.1,14.6,23.5,28.3,37.2
	c15.9,16,29.2,50.5,51.3,64.6c0.6,0.4,1.3,0.8,2,1.2c22.4,27.2,48.8,41.3,81.3,91.8c32.5,50.7,45.4,92.9,49.8,106.9
	c4.4,14,8,93.8,11.7,106C797.3,619.6,803.7,658.2,800.2,666.8z"/>
<path class="st0" d="M828.7,761c-5.7,10.1-36.5-3.1-58.7,12.9c-22.2,16-79.9,42.5-79.9,44.4c0,2,45.6-12.1,47.1-9
	c1.6,3.1-48.3,26.9-56.1,23.4c-7.8-3.5-10.1-15.6-10.1-15.6l-36.6,4.7c0,0-4.7-21.4-6.6-24.5c-1.4-2.3-27.3-18.5-55.6-29.3
	c0.5-9.9,0.3-20.2-0.1-29.7v0c-0.8-19.3-2.6-34.9-2.6-34.9l3.6-19.9c9.3,2.5,16.2,4.7,16.2,4.7s1.7-7.7,3.6-19.4
	c3.7-22.6,8-60.3,1.6-86.1c-1-4.2-2.4-8.1-4.1-11.6c0,0,0,0,0,0c-0.4-0.8-0.7-1.5-1.2-2.2c0.1,0,0.2,0,0.3,0
	c47.4,4,29.8,77.4,32.9,80.5c3.1,3.1,18.7,1.6,18.7,1.6s9.3,20.2,26.5,0c17.1-20.3,16.6-23.9,16.6-23.9l-7.8-14.5
	c0,0,14.2-16,4.5-42.1c-2.1-2.1-3.9-2.3-3.9-2.9c0-0.6,6.4-31.8,6.4-31.8l-13.3-5.9l-1.2-0.5l1.2-14l-6.7-1
	c-0.4-3.7-4.6-9.2-4.6-9.2s4-1,0-5.2c-1.3-1.4-3.4-2.4-5.8-3.2c0.1-0.4,0.2-0.9,0.2-1.3c0.8-4.7,1.2-8.9,1.3-11.9
	c1.5-1.9,3.5-11.2,4.7-20.8l0,0c1.1-8.6,1.5-17.4,0.4-21.1v0h0v0c-0.5-0.4-0.9-0.8-1.4-1.2c1.3-3.1,2.4-6.3,3.3-9.5c0,0,0,0,0,0
	c0,0,0,0,0,0v0c0.2-0.8,0.5-1.6,0.7-2.4c1.3,2.4,5,8.9,10.2,18.1c1.1,1.9,2.2,4,3.4,6.1c0.7,1.3,1.5,2.6,2.2,4
	c0.3,0.6,0.7,1.2,1,1.8c0.7,1.2,1.4,2.5,2.1,3.8c0.3,0.5,0.5,1,0.8,1.4c0.8,1.5,1.7,3,2.5,4.5c3,5.4,6.3,11.1,9.7,17.1
	c1.3,2.2,2.6,4.5,3.9,6.8c1.3,2.3,2.6,4.6,4,6.9c0.9,1.6,1.8,3.1,2.7,4.7c0.5,0.8,0.9,1.6,1.3,2.3c1.4,2.4,2.7,4.7,4.1,7.1
	c1.8,3.1,3.7,6.3,5.5,9.5c1.8,3.2,3.7,6.3,5.5,9.4c2,3.5,4.1,7,6.1,10.4c0.7,1.1,1.3,2.3,2,3.4c29.8,50.5,53.7,86.7,70.7,121.3
	c-0.3,0.7-0.7,1.2-1.1,1.5C799.4,674.8,834.4,750.9,828.7,761z"/>
<path class="st0" d="M659.8,441.5c1.1,3.7,0.7,12.5-0.4,21.1l0,0c0,0,0,0,0,0C660.5,453.9,660.9,445.1,659.8,441.5L659.8,441.5
	L659.8,441.5z"/>
<path class="st0" d="M661.7,430.6L661.7,430.6C661.7,430.6,661.7,430.6,661.7,430.6c0,0.1,0,0.1,0,0.1L661.7,430.6
	C661.7,430.6,661.7,430.6,661.7,430.6C661.7,430.6,661.7,430.6,661.7,430.6z"/>
<path class="st0" d="M452.5,775.8c-14.5,3.6-27.9,5.9-38.6,4.3c-33.1-4.7-47.5-9.7-72.5-17.1s-30-9.7-58.4-10.1
	c-28.4-0.4-46.8-4.3-46.8-7.8c0-3.5,57.3-91.2,67-109.1c1.6-3,3-5.8,4.2-8.4c2.2,1.2,4.7,2.5,7.3,3.8c11.2,5.6,25.7,11.5,41.5,14.8
	c35.4,7.4,58.4,9.3,72.5,19.1c3.6,2.5,8.5,6.2,13.8,10.3l4.7,51.6c0,0-1,8.2-0.9,18.1c0,3.7,0.2,7.6,0.6,11.4
	c0.2,2.3,0.6,4.5,1.1,6.7c0.6,2.8,1.4,5.5,2.5,7.7C451.3,772.6,452,774.2,452.5,775.8z"/>
<path class="st0" d="M433.4,360.4c-0.7,1.4-1.7,4.2-2.6,7.9c-1.4,5.6-2.9,13.2-3.4,20.5c-0.7,9-0.1,17.7,3.3,22.4
	c-0.2,0.2-0.4,0.5-0.7,0.9c-3.8,5.4-16.8,29.9-16.8,29.9s-0.9,1.4-2.5,4c-2.6,4-6.9,10.8-11.9,18.9c-0.4-0.4-0.9-0.8-1.4-1.2
	c0.2,0,0.4,0,0.6,0.1c1.5-12.6,2.3-27.6,3.1-31.6s3.3-8,2.7-11.3c-0.6-3.3,1.6-18.9,1.6-18.9s-0.3-0.5-0.9-1.3
	c1.4-4.7,3.5-12.4,4.2-16.6c1-5.9,1.2-9.4,1.5-9.9c0.4-0.6,2.5-9.5,2.5-9.5s1.4-9.9,3.9-16.6c2.3-6,6.3-28.1,15.4-39.7
	c0.4,1.5,0.9,2.7,1.3,3.7C431.5,323,425.6,349.1,433.4,360.4z"/>
<path class="st0" d="M499.3,259.9c-3.7-2.6-11.6-8-20-12.4h0c0,0,0,0,0,0c-2.2-1.2-4.4-2.2-6.6-3.2v0c-0.7-0.3-1.4-0.6-2.1-0.9
	c-1.9-0.7-4-1.6-6.2-2.4h0c-4.7-1.8-10.1-3.6-15.6-5.2c-3.2-0.9-6.4-1.8-9.5-2.5c-5.5-1.3-10.6-2.1-14.7-2c-1.4,0-2.6,0.1-3.8,0.4
	c-10.9,2.3-29.6,6.9-43.6,52.5c0,0-10.9,46.2-13.8,49.6s-1.4,6.1-2.8,8.3c-1.4,2.2-3.1,16.1-3.1,16.1l-1.5,21.4
	c0,0-7.7,7.2,0.3,16.4c0.3,0.4,0.7,0.8,1.1,1.2c-1.3,0.1-2.6,16.5,0.3,33.6c3.1,18.5,3.3,23,3.3,23s-2,7.8,2,13.2
	c0.8,2.9,1.2,6.6,1.4,9.6c0.2,3,0.2,5.2,0.2,5.2s0.1-0.3,0.2-0.9c-0.7,5.1-1.2,11.7-0.2,15.3c1,3.9,2,8.8,2.7,12.5
	c0.5,2.5,0.8,4.4,1,5c0.1,0.3,0.2,1,0.3,1.9c-3.5,6.5-6.2,12.1-7.7,16.2c-1,0.8-2,1.6-3.1,2.4c-23,18.8-47.8,54.4-53,62.2
	c-0.8,1.2-1.6,2.5-2.5,3.8c-25-12.6-46.6-13.1-46.6-13.1s20.2-95,23.8-98.6c3.5-3.5,0.8-25.3,3.9-28c3.1-2.7,24.9-64.3,33.5-80.2
	c8.6-16,49.1-98.6,60.4-125.8c11.3-27.3,28.4-42.1,41.7-46c7.5-2.2,24-10.1,36.7-16.6c0,0,0,0,0,0c6.9,2.7,27,11.3,41.8,37.3
	c-11.6-7.4-20.3-5.3-20.3-5.3l5.8,18.4C483,242.4,493.1,253.1,499.3,259.9z"/>
<path class="st0" d="M499.5,226.9c-0.5,1.2-1,2.2-1.3,2.8c-0.2-0.1-0.4-0.3-0.6-0.4c-14.9-25.9-35-34.6-41.8-37.3
	c4-2,7.6-3.9,10.5-5.3c3.5,1.9,7,4,9.9,6.3C488.9,203.4,497.7,218,499.5,226.9z"/>
<path class="st0" d="M516.8,717.8c0,0-2,15.2-5.9,30.8c-0.1,0.4-0.2,0.8-0.3,1.2c0,0,0,0,0,0c-0.7,3.2-1,7.1-1.1,11.3
	c-2.3,0.4-4.6,0.9-6.9,1.4c-0.2-1.7-0.4-3.4-0.7-5.1c-0.5-3-0.8-5.8-1.1-8.4c-0.5-3.9-0.8-7.4-1-10.5c-0.5-7.8-0.3-13.6,0-17.4
	c0.3-0.2,0.7-0.4,1-0.5c-0.1-1.5-0.2-3.2-0.3-5.1c-0.5-7.1-1.2-16.6-2-25c4-2.2,8.3-4.5,12.5-6.5L516.8,717.8z"/>
<path class="st0" d="M649.1,301.2c-21.5-26.8-36.7-57-40.6-72.7c-3.3-13.2-20.2-25.4-26.2-29.4c4.8,0.4,9.6,0.9,13.2,1.8
	c10.1,2.3,24.2,11.7,26.7,16.1c2.6,4.4,12.2,40,17.7,47.5C644,270.1,648.2,286.7,649.1,301.2z"/>
<path class="st0" d="M625.3,438.9c-1,2.7-2.3,12.6-3.3,21.4c-0.6,5.6-1.2,10.9-1.4,13.7c-1.8-1-3.8-1.9-6-2.5
	c-2.1-0.6-4.2-0.8-6.2-0.7c-3.4-17.9-2.7-36.5-2.7-36.5l-12.7-9.4l-2.5-11.9c-0.4-1.4-1-10.1-1-10.1s0-0.2,0-0.5
	c-0.1-2.6-0.7-14.2-1.4-17.8c-0.1-0.5-0.2-0.9-0.3-1c-0.8-0.8-3.9-5.5-4.8-7c-0.2-0.3-0.3-0.4-0.3-0.4l-9-14c0,0,16.8-13.4,25-35.9
	c2.5,9.1,10.5,36.5,15.6,39.9c1.4,4.9,5.4,22,7.9,27.5c0.2,0.4,0.3,0.7,0.5,1c-4.9,7.9-1.9,16.2-1,18.3v0c0.1,0.3,0.2,0.5,0.2,0.5
	l0.8,10.5c0,0,0.3,7,1.6,11.9c-0.3,0.2-0.7,0.4-1,0.6c0.5,0.4,1,0.7,1.5,1.1C624.9,438.1,625.1,438.5,625.3,438.9z"/>
<path class="st0" d="M533.8,428.6c-1.9,0.2-4,0.5-6.2,0.7c-1.8,0.2-3.6,0.4-5.5,0.6c-10.2,1-21.9,2.2-31.8,3.8c-2,0.3-3.8,0.6-5.6,1
	c-1.1,0.2-2.5,0.5-4.2,0.8c-5.9,1-14.8,2.4-24.3,3.9c-17.6,2.7-37.5,5.6-45.6,6.7c1.6-2.5,2.5-4,2.5-4s13.1-24.5,16.8-29.9
	c5.3,1.2,14.1,3.2,19.4,4c5.7,0.8,26.7-1.2,46.1-0.6c0,0,0,0,0,0c7.7,0.2,15.2,0.9,21.3,2.4c3.3,0.8,6.4,1.9,9.2,3.3
	C527.8,424.3,530.5,426.8,533.8,428.6z"/>
<path class="st0" d="M656.6,385.5L656.6,385.5L656.6,385.5c-14.9-0.3-27,4.3-34.6,8.2v0c-2.4-5.5-6.4-22.6-7.9-27.5
	c-5-3.4-13-30.8-15.6-39.9v0c0.5-1.2,0.9-2.5,1.3-3.7c0,0,0,0,0,0c0.8,1.3,1.6,2.3,2.3,2.7c4.4,2.9,34.6,22.1,47,45.2
	C652.7,376.9,655.1,381.8,656.6,385.5z"/>
<path class="st0" d="M659.4,396.7c0,0,0,0.1,0,0.3c-13,0.1-22.2,4.1-29,8.8c-1.9,1.3-3.7,2.7-5.3,4.1c-1.3,1.1-2.5,2.2-3.6,3.3
	c-0.9-2.1-3.9-10.4,1-18.3c-0.2-0.3-0.3-0.6-0.5-1v0c7.6-3.9,19.7-8.6,34.5-8.2c0,0,0,0,0,0v0c0,0,0,0,0,0
	C660.6,395,659.4,396.7,659.4,396.7z"/>
<path class="st0" d="M660.8,517.4c-6.1,0.4-30.1,0.1-55.2-7.3c-0.1,0-0.2,0-0.2-0.1c-2.2-0.7-4.3-1.4-6.4-2
	c-0.2-0.1-0.4-0.1-0.5-0.2c-2.7-0.9-5.3-2-8-3.1c-26.8-11.4-56.7-64.2-62.9-75.4c2.2-0.2,4.3-0.5,6.2-0.7c1.8,0.9,3.7,1.6,5.7,2h0
	c1.2,0.2,2.4,0.3,3.6,0.3c2.5,0,4.8-0.5,7-1.3c0,0.3-0.3,7.7,7,15.1c7.5,7.5,26.9,27,27.5,34.5c0.9-0.4,1.9-0.8,2.9-1.3
	c5.2-2.5,11.3-5.8,17.7-6.9c1-0.2,2.1-0.3,3.1-0.3c2.1-0.1,4.2,0.1,6.2,0.7c2.3,0.7,4.3,1.5,6,2.5c1.8,1,3.3,2.1,4.5,3.2
	c3.6,3,5.4,6,5.4,6s0.5,0.2,1.2,0.6c-0.3,0.4-0.6,0.8-1,1.2c1.8,1.2,3.8,2.5,5.9,3.7v0c0.8,1.6,1.1,3.5,0.6,5.8
	c4.4,0,10.8,0.5,15.8,2.2c2.4,0.8,4.5,1.9,5.8,3.2c4,4.1,0,5.2,0,5.2s4.2,5.5,4.6,9.2C663.8,515.9,663.1,517.3,660.8,517.4z"/>
<path class="st0" d="M479.2,695.6L478,703c-0.4,0.2-0.6,0.4-0.6,0.4s-19.3-15.8-34.9-27.9c-5.3-4.1-10.2-7.8-13.8-10.3
	c-14-9.7-37-11.7-72.4-19.1c-15.8-3.3-30.3-9.2-41.5-14.8c-2.6-1.3-5.1-2.6-7.3-3.8c-9.7-5.3-15.5-9.5-15.5-9.5s1.8-3.3,4.3-7.5
	c3.2,2.6,8,6.2,14.2,9.9c1.4,0.8,2.8,1.7,4.3,2.5c6.9,3.8,15.1,7.3,24.2,9.6c25.4,6.4,53.3,8.6,74.6,17c2,0.8,3.9,1.6,5.8,2.5
	C441.2,662.5,470,686.3,479.2,695.6z"/>
<path class="st0" d="M526,421.1c-2.8-1.4-5.9-2.5-9.2-3.3c-6.1-1.4-13.6-2.1-21.3-2.4c0,0,0,0,0,0c-21.4-10.9-50.8-23-51.8-23.2
	c-0.9-0.1-11.8-2.5-16.3-3.5c0.6-7.4,2-14.9,3.4-20.5c3.1-0.2,8.1-0.5,13.4-0.4c6.3,4,23.2,14.1,39.1,20.8c1.6,0.7,3.3,1.4,5,2.1h0
	c13.9,6,28.6,12.8,35.4,16c-0.3,1.4-0.5,2.8-0.5,4.3C523.2,414.7,524.2,418.2,526,421.1z"/>
<path class="st0" d="M495.5,415.5c-19.4-0.6-40.4,1.4-46.1,0.6c-5.3-0.8-14-2.7-19.4-4c0.3-0.4,0.5-0.7,0.7-0.9
	c-3.4-4.6-4-13.4-3.3-22.4c4.5,1,15.4,3.3,16.3,3.5C444.8,392.5,474.1,404.5,495.5,415.5z"/>
<path class="st0" d="M562.3,406L562.3,406c-2.2-8.6-10-14.9-19.2-14.9c-9.5,0-17.4,6.6-19.4,15.5c-0.3,1.4-0.5,2.8-0.5,4.3
	c0,3.7,1,7.1,2.8,10.1c1.9,3.1,4.6,5.7,7.8,7.4c1.8,0.9,3.7,1.6,5.7,2h0c1.2,0.2,2.4,0.3,3.6,0.3c2.5,0,4.8-0.5,7-1.3c0,0,0,0,0,0
	c4.1-1.5,7.5-4.4,9.8-8h0c0.2-0.3,0.3-0.5,0.5-0.8v0c0.3-0.5,0.6-1.1,0.8-1.7c1.1-2.5,1.7-5.2,1.7-8
	C563,409.3,562.7,407.6,562.3,406z M546.4,422.9c-5.2,0-9.4-4.2-9.4-9.3c0-5.2,4.2-9.4,9.4-9.4c5.2,0,9.3,4.2,9.3,9.4
	C555.7,418.7,551.6,422.9,546.4,422.9z"/>
<path class="st0" d="M555.7,413.5c0,5.2-4.2,9.3-9.3,9.3c-5.2,0-9.4-4.2-9.4-9.3c0-5.2,4.2-9.4,9.4-9.4
	C551.6,404.2,555.7,408.4,555.7,413.5z"/>
<path class="st0" d="M588,384.6c-5.8,6.8-20.1,17.4-25.7,21.5c-2.2-8.6-10-14.9-19.2-14.9c-9.5,0-17.4,6.6-19.4,15.5
	c-6.8-3.2-21.5-10-35.4-16h0c-1.7-0.7-3.4-1.4-5-2.1c-15.9-6.6-32.7-16.8-39.1-20.8c3.5,0,7.1,0.2,10.2,0.7
	c10.7,1.5,48.5,8,63.5,9.5c12.5,1.3,52.2-0.8,64.9-1.5c0.9,1.5,4,6.1,4.8,7C587.8,383.6,587.9,384,588,384.6z"/>
<path class="st0" d="M561.3,419.1c1.1-2.5,1.7-5.2,1.7-8c0-1.7-0.2-3.4-0.6-5v0c5.6-4.1,19.9-14.7,25.7-21.5
	c0.7,3.6,1.3,15.2,1.4,17.8C581.1,410.1,565.7,417.1,561.3,419.1z"/>
<path class="st0" d="M498.3,536.2c-1.9,10.9-2.5,23.1-0.8,36.2c-0.5,0.6-1,1.2-1.5,1.9c-7.1,9.9-6.4,33-5.3,49.6c0,0,0,0,0,0
	l-11.5,71.7c-9.2-9.3-38-33.1-59.8-43.6c-1.9-0.9-3.8-1.7-5.8-2.5c2.7-15.4,2.9-46.8,2.9-46.8c-0.1-1.3-0.1-2.7-0.1-4.1c0,0,0,0,0,0
	c0.2-25.1,18.8-66.5,18.8-70.9c0-4.7,27.3-56.9,33-63.9c4-4.9,9.4-19.8,12.2-28.4c1.6-0.3,3-0.5,4.2-0.8c1.8-0.3,3.7-0.7,5.6-1
	c1.7,7.6,6.8,23.9,17.4,41.7c2.7,4.6,5.5,9.2,8.3,13.9C510.5,498.1,501.9,514.6,498.3,536.2z"/>
<path class="st0" d="M552.2,263.7c-3.9,5.4-13.8,19-21.3,29.4c-5.2,7.2-9.3,13-9.4,13.4c-0.4,1.2-6,5.6-7.4-0.8
	c-0.3-1.2-1.6-3.8-3.6-7.3c-0.7-1.2-1.4-2.5-2.3-3.9c-8.9-14.8-25.8-39.4-35.4-50.1c2.1,0.9,4.4,2,6.6,3.2c0,0,0,0,0,0h0
	c7.6,10.2,24.4,33.2,31.5,45.3c0.6,1,1.1,1.9,1.5,2.7c0.8,1.5,1.3,2.6,1.6,3.5c2.9,9.3,5.7,4.7,5.7,4.7l8.5-12.2l20.9-30
	C550,262.2,551.1,262.9,552.2,263.7z"/>
<path class="st0" d="M507.2,322c-2.7,7.5-8.7,24.4-13.4,35.6c-1.5-13.3-6.5-40.1-9.3-50.8c-3.4-13.2-10.8-16.7-13.6-40.7
	c-1.6-14.1-4.4-21.4-6.4-25c2.2,0.8,4.3,1.6,6.2,2.4c0.7,0.3,1.4,0.6,2.1,0.9v0c9.5,10.7,26.5,35.3,35.4,50.1
	c-7.2,5.1-11.7,12.6-11.8,12.8C496.4,307.3,499.9,316.2,507.2,322z"/>
<path class="st0" d="M561.3,270.1c-2.8,7.3-13.1,29.7-18,49.9c-3.8,15.8-12.7,32-22.2,41.5c-9.2-0.2-18.9-0.5-26.9-0.8
	c-0.1-1-0.2-2-0.3-3.2c4.6-11.2,10.7-28,13.4-35.6c-7.3-5.8-10.8-14.7-10.8-14.7c0.1-0.3,4.5-7.8,11.8-12.8c0.9,1.4,1.6,2.7,2.3,3.9
	c2,3.5,3.3,6.1,3.6,7.3c1.5,6.4,7,2,7.4,0.8c0.1-0.4,4.2-6.1,9.4-13.4c7.5-10.4,17.4-24,21.3-29.4
	C555,265.5,558.1,267.7,561.3,270.1z"/>
<path class="st0" d="M662.4,428.2c1.3,2.4,5,8.9,10.2,18.1C667.4,437.1,663.8,430.6,662.4,428.2c-0.2,0.8-0.5,1.6-0.7,2.4
	c0.1-1.1,0.1-2.2,0.1-3.4c0-2.5,0-5.2-0.2-7.9h0c-0.5-10.3-2-20.5-2.3-22.3c-11.4,0-19.8,3.1-26.3,7c6.5-3.9,14.9-7,26.3-7
	c0-0.2,0-0.3,0-0.3s1.2-1.6-2.8-11.2c0,0,0,0,0,0v0c-1.5-3.7-3.9-8.6-7.3-15.1c-12.4-23.1-42.6-42.3-47-45.2
	c-0.7-0.5-1.5-1.4-2.3-2.7c0,0,0,0,0,0c-3.1-5-6.8-15.1-12.5-25c0,0,0,0,0,0c-1.6-2.9-3.4-5.7-5.4-8.4c-3.1-4.2-7.8-8.7-13-12.9
	c0.9-2.6,1.6-4.7,2.1-6.1c7.9,6.5,16.1,14.5,21.8,23.7c0.9,1.4,1.7,2.7,2.4,3.9c0.2,0.4,0.5,0.8,0.7,1.2v0c0.4,0.6,0.7,1.2,1.1,1.8
	c0.7,1.2,1.3,2.3,1.8,3.3c0.3,0.5,0.5,1,0.8,1.5c0.1,0.2,0.2,0.5,0.3,0.7c0.2,0.5,0.4,0.9,0.7,1.3c1.8,3.8,2.7,6.3,3.3,8.1
	c0.1,0.4,0.3,0.8,0.4,1.1c0.1,0.2,0.1,0.3,0.2,0.5c0.2,0.5,0.4,0.9,0.6,1.2v0c0.1,0.3,0.3,0.5,0.5,0.7v0c0.6,0.8,1.4,1.6,2.8,2.6
	c1.2,0.9,3.2,2,5.6,3.7c1.1,0.8,2.3,1.6,3.6,2.6c0.5,0.3,0.9,0.7,1.4,1.1c1,0.8,2,1.6,3.1,2.4c0.5,0.4,1.1,0.9,1.6,1.4
	c0.3,0.2,0.6,0.5,0.8,0.7c0.8,0.7,1.7,1.5,2.6,2.3c0.6,0.6,1.2,1.1,1.8,1.7l0.9,0.9c3.3,3.4,6.8,7.4,10.5,12.2
	c0.2,0.3,0.5,0.7,0.7,1c0.7,1,1.5,2,2.2,3.1c0.7,1,1.3,1.9,2,2.9c0.8,1.2,1.6,2.4,2.4,3.7c0.3,0.4,0.5,0.9,0.8,1.4
	c1.4,2.3,2.8,4.7,4.1,7.2c0.6,1,1.1,2,1.7,3.1c2,3.8,4,7.9,5.9,12.4c0.2,0.6,0.5,1.1,0.7,1.7c1.4,3.2,2.4,6.5,3.1,9.7
	c1.5,7.1,1.5,14.4,0.4,21.7C664,421.9,663.3,425.1,662.4,428.2z"/>
<path class="st0" d="M676,452.4c-1.2-2.1-2.3-4.2-3.4-6.1C673.7,448.2,674.8,450.3,676,452.4z"/>
<path class="st0" d="M627.2,336.1c-0.9-0.8-1.7-1.6-2.6-2.3C625.5,334.5,626.4,335.3,627.2,336.1z"/>
<path class="st0" d="M656.6,385.5L656.6,385.5C656.6,385.5,656.6,385.5,656.6,385.5c-1.6-3.7-3.9-8.6-7.3-15.1
	c-12.4-23.1-42.6-42.3-47-45.2c-0.7-0.5-1.5-1.4-2.3-2.7c0,0,0,0,0,0c0.8,1.3,1.6,2.3,2.3,2.7c4.4,2.9,34.6,22.1,47,45.2
	C652.7,376.9,655.1,381.8,656.6,385.5L656.6,385.5C656.6,385.5,656.6,385.5,656.6,385.5C656.6,385.5,656.6,385.5,656.6,385.5z"/>
<path class="st0" d="M661.7,419.3L661.7,419.3c-0.4,0.1-0.9,0.2-1.3,0.3c0,0,0,0,0,0c-1.8,0.5-3.6,1-5.4,1.6
	c-2.3,0.8-4.6,1.6-6.9,2.6c-0.5,0.2-0.9,0.4-1.4,0.6c-1.8,0.8-3.7,1.6-5.5,2.5c-0.5,0.2-0.9,0.4-1.4,0.7c-5.8,2.8-11.3,5.9-15.6,8.4
	c0,0,0,0,0,0c-1.4-4.9-1.6-11.9-1.6-11.9l-0.8-10.5c0,0-0.1-0.2-0.2-0.5v0c1.1-1,2.3-2.2,3.6-3.3c1.6-1.4,3.3-2.8,5.3-4.1
	c6.8-4.6,16-8.7,29-8.7C659.7,398.7,661.2,408.9,661.7,419.3z"/>
<path class="st0" d="M605.2,471.1c-6.4,1.1-12.5,4.4-17.7,6.9c-7.8-26.6-24.5-38.4-24.5-38.4l-2.5-18.1c4-1.3,8-2.7,11.8-3.9
	l6.3,23.3l19.2,15.8L605.2,471.1z"/>
<path class="st0" d="M587.5,477.9c-1,0.5-2,0.9-2.9,1.3c-0.5-7.5-20-27-27.5-34.5c-7.3-7.4-7-14.8-7-15.1c0,0,0,0,0,0
	c4.1-1.5,7.5-4.4,9.8-8h0c0.2-0.1,0.4-0.1,0.5-0.2l2.5,18.1C563,439.5,579.7,451.3,587.5,477.9z"/>
<path class="st0" d="M598.4,507.8c-10.6-3.5-19.3-6.6-23.3-8.8c-10.6-5.6-26.7-19.6-33.3-25.5v0c-9.2-19-16.8-37-19.6-43.6
	c1.9-0.2,3.7-0.4,5.5-0.6c6.1,11.2,36.1,64.1,62.9,75.4C593,505.8,595.7,506.8,598.4,507.8z"/>
<path class="st0" d="M592.9,668.8c-1.9,11.7-3.6,19.4-3.6,19.4s-6.9-2.2-16.2-4.7c-12.6-3.4-29.8-7.2-40.3-6.6
	c-5.9,0.4-13.8,3.3-21.7,7c-4.2,2-8.5,4.2-12.5,6.5c-3.2,1.8-6.2,3.5-8.9,5.2c0.1-3.6,0.4-9.7,0.7-16.5c1.2-0.7,3.8-2.2,6.9-4.2
	c8-4.9,19.9-12.5,23.7-16.8C526,652.6,565.4,656.1,592.9,668.8z"/>
<path class="st0" d="M503.6,777.7c-5.4-4.9-12.6-8.1-20.2-10.3c6.5-1.8,12.9-3.5,19.3-4.9C503.3,768,503.6,773.1,503.6,777.7z"/>
<path class="st0" d="M503.3,787.9c-0.3,5.1-0.7,9.5-0.7,13.3c-5.8-2.3-24.7-8.8-47.5-5c0.5-4.2,0.5-11.7-2.6-20.4c0,0,0,0,0.1,0
	C453.8,775.6,472.4,773.4,503.3,787.9z"/>
<path class="st0" d="M504,811.3c-20.2-4.4-41-0.4-49,0.8c-1.2-5-1.1-11.5-0.6-12.6c0.2-0.5,0.5-1.6,0.7-3.3
	c22.7-3.8,41.7,2.7,47.5,5C502.5,805.2,502.8,808.5,504,811.3z"/>
<path class="st0" d="M508.7,829.9C508.7,829.9,508.7,829.9,508.7,829.9C508.7,829.9,508.7,829.9,508.7,829.9
	c-3.9,5-17.3,12.2-31.2,12.2c-5.6,0-9.8-1.7-12.9-3.7c0-0.2-0.1-0.3-0.1-0.4c-0.4-1.4-0.6-2.9-0.8-4.5v0c-0.8-6.4-0.8-13.8-4.9-15.2
	c-1.9-0.7-3.1-3.1-3.9-6.1c8-1.3,28.7-5.2,49-0.8c0,0,0,0.1,0.1,0.2C508.2,820.8,508,828,508.7,829.9z"/>
<path class="st0" d="M508.7,829.9l-16.4,40.7l-27.8-2.6c0,0,1.7-22.5,0.1-29.7c3,2,7.2,3.7,12.9,3.7
	C491.4,842.1,504.9,834.8,508.7,829.9z"/>
<path class="st0" d="M572.2,768c-0.2,3.8-0.4,7.5-0.8,11.1c-17.9-0.1-51.1-3.1-61.5-4.1c-0.3-4.7-0.4-9.5-0.3-13.9
	c12.1-2.3,23.5-3.3,33.3-1.6C552.4,761.1,562.4,764.2,572.2,768z"/>
<path class="st0" d="M571.4,779.1c-0.5,4.4-1.1,8.6-1.9,12.3c-0.1,0.3-0.1,0.6-0.2,0.9c-4.9,0.1-10.5,0-16.3-0.2h0
	c-17-0.6-35.5-2.2-41.9-2.8c-0.5-4.2-0.9-9.2-1.2-14.3C520.3,776,553.6,778.9,571.4,779.1z"/>
<path class="st0" d="M568.4,796.7c-2.1,9.1-4.1,17.5-6,24.8h-9.5c-14.5,0-40.7,10.2-40.7,10.2c0.2-3.9,0.4-6.7,0.4-6.7v-11.3
	L568.4,796.7z"/>
<path class="st0" d="M562.3,821.4c-0.9,3.7-1.8,7.1-2.6,10.2c-11.6-1.1-48.2,8.5-48.2,8.5c0.2-2.9,0.5-6,0.6-8.5
	c0,0,26.2-10.2,40.7-10.2H562.3z"/>
<path class="st0" d="M559.7,831.6c-2.5,10-4.2,17-4.2,20.3c0,0.6,0,1.4-0.1,2.2c-9.8,3.2-23.1,3.9-31.2,8.1
	c-10.5,5.5-17.1,17.9-18.3,22.6c-3.1-20.2,3.5-28.8,4.7-36.2c0.4-2.3,0.7-5.4,1-8.6C511.5,840.1,548.1,830.5,559.7,831.6z"/>
<path class="st0" d="M563.8,929.3c-4.8,6.2-12.2,4.2-14.4,3.4c-0.4-0.2-0.7-0.3-0.7-0.3s0,0.1-0.1,0.3c-15,0.8-36.3-6.8-42.5-9.2
	c-1.2,1.4-3,3-4.9,4.5c0.1-0.4,0.3-0.8,0.4-1.1c0.6-2.2,5.2-15.6,5.1-31.6v0c1.6-3.4,3.6-7.1,5.7-10.5c0,0,0,0,0,0
	c4-6.3,8.5-11.7,12.4-12.5c9-1.8,14.7,1,28.1,10.7c0,0,14,10.9,13.5,19.2C565.9,910.6,569.5,921.9,563.8,929.3z"/>
<path class="st0" d="M555.4,854.2c-0.1,2.8-0.4,7-0.8,11.2c-6.3,1.2-12.1,0.1-21.8,2.4c-13.8,3.4-20.3,16.7-20.4,17.1c0,0,0,0,0,0
	c-2.1,3.4-4.1,7.1-5.7,10.5c0-3.4-0.3-6.9-0.8-10.5c1.2-4.7,7.8-17.1,18.3-22.6C532.3,858.1,545.7,857.4,555.4,854.2z"/>
<path class="st0" d="M548.7,932.7c-0.4,1.5-3.7,8-26.4,6.3c-22.8-1.7-22-7.8-21-11v0c1.9-1.5,3.7-3.1,4.9-4.5
	C512.4,926,533.7,933.6,548.7,932.7z"/>
<path class="st0" d="M569.3,792.3c-0.3,1.5-0.6,2.9-1,4.3v0l-55.8,17v-12.5c0,0,0,0,0-0.1l40.5-9h0
	C558.8,792.3,564.4,792.4,569.3,792.3z"/>
<path class="st0" d="M569.5,703.4c0,0,1.8,15.6,2.6,34.9c-6.2-7.1-15.3-13.1-27.7-10.8c-17.7,3.3-28.5,14.8-33.8,22.2
	c0.1-0.4,0.2-0.8,0.3-1.2c3.9-15.6,5.9-30.8,5.9-30.8l-5.7-33.9c8-3.8,15.8-6.7,21.7-7c10.5-0.7,27.6,3.2,40.3,6.6L569.5,703.4z"/>
<path class="st0" d="M572.2,768c-9.8-3.8-19.9-6.8-29.3-8.5c-9.8-1.7-21.2-0.7-33.3,1.6c0.1-4.2,0.4-8.1,1.1-11.3c0,0,0,0,0,0
	c5.3-7.4,16.1-18.9,33.8-22.2c12.4-2.3,21.5,3.7,27.7,10.8v0C572.5,747.8,572.7,758.1,572.2,768z"/>
<path class="st1" d="M506.2,923.6c1.1-1.2,1.7-2.3,1.5-3c-1-3.3-3.2-3.9,0-8.4c3.3-4.5,15.5-22,23.9-22.8
	c8.4-0.8,35.1,12.5,35.2,32.3"/>
<path class="st0" d="M553,792.1l-40.5,9c-0.1-0.6-0.8-5.3-1.5-11.8C517.5,789.9,536.1,791.5,553,792.1z"/>
<path class="st0" d="M554.6,865.3c-0.8,8.6-1.7,17.8-1.7,17.8c-13.4-9.6-19.2-12.5-28.1-10.7c-3.8,0.8-8.4,6.1-12.4,12.5
	c0.1-0.5,6.6-13.8,20.4-17.1C542.5,865.4,548.3,866.6,554.6,865.3z"/>
<path class="st0" d="M500.9,876.3c1,4.7,0.2,14.8-2.2,22.3c0,0,0,0,0,0c-5,6-11.9,8.3-11.9,8.3c-10.5,4.9-26.9,3.3-30.4,0
	c-1.9-1.8-2.2-12.7-2.1-23.3c0,0,0,0,0,0c0.5-2,0.9-4,1.3-6c2.4-12,5.5-29.2,7.5-40.4c0.5,0.4,1,0.8,1.6,1.2
	c1.6,7.2-0.1,29.7-0.1,29.7l27.8,2.6l16.4-40.7C508.4,831.2,499.7,871,500.9,876.3z"/>
<path class="st0" d="M498.7,898.6c-0.4,1.2-0.8,2.4-1.3,3.4c-3.5,7.4-19.5,19.9-36.2,16.7c-14.9-2.8-10.4-19.2-6.8-35.2
	c-0.1,10.6,0.2,21.6,2.1,23.3c3.5,3.3,19.9,4.9,30.4,0C486.8,906.9,493.6,904.6,498.7,898.6z"/>
<path class="st0" d="M525.8,190.7c-1.5,8-10.7,30.8-10.7,30.8s-8.2-15-11.7-27.3c-2.2-7.7-6.4-22.3-9.2-32.2
	c2.3,5.2,5.5,11.1,8.1,15.2c1.2,1.9,2.3,3.4,3.1,4.2c3.9,4,10.5,9,16.1,9.6C522.7,191.2,524.1,191.1,525.8,190.7z"/>
<path class="st0" d="M541.9,256.9c0,0,2.8,1.7,7.1,4.6l-20.9,30l-8.5,12.2c0,0-2.9,4.7-5.7-4.7c-0.3-0.9-0.8-2-1.6-3.5
	c0.9-1.5,1.8-3,2.7-4.6c4-7.1,7.4-15.3,10.3-23.2c6.3-17,10.5-33.2,13.2-37.8c-10.6-21.3,1.8-28.3,4.7-29.4c1.5-0.5,4.4-4.3,7-8.2
	c-1.1,4.2-2.2,7.9-3.4,10.4c-3.1,7-4.5,17-5.1,26.5c-0.8,12.5-0.1,24.1,0.1,27c0,0.1,0,0.1,0,0.2c0,0.1,0,0.1,0,0.2
	C541.9,256.8,541.9,256.9,541.9,256.9C541.9,256.9,541.9,256.9,541.9,256.9z"/>
<path class="st0" d="M525.4,267.7c-3,8-6.4,16.1-10.3,23.2c-0.9,1.6-1.8,3.1-2.7,4.6c-0.4-0.8-1-1.7-1.5-2.7
	c-7.1-12.1-23.9-35-31.5-45.3c8.3,4.4,16.3,9.8,20,12.4c1.3,0.9,2.1,1.5,2.1,1.5l-3.7-30.8c0,0,0.1-0.2,0.3-0.6
	c0-0.1,0.1-0.2,0.2-0.4c0.3-0.6,0.8-1.6,1.3-2.8c-1.5-9.5-7.9-16.9-8.2-34.7c0-1.3,0-2.6,0-4c3.8,10.2,9.2,23,14.1,28.9
	C512.7,226.3,516.9,253.7,525.4,267.7z"/>
<path class="st0" d="M550.3,192.3c-2.6,3.9-5.5,7.7-7,8.2c-2.9,1-15.3,8-4.7,29.4c-2.7,4.6-6.9,20.8-13.2,37.8
	c-8.5-14.1-12.7-41.4-20.1-50.5c-4.8-5.9-10.2-18.7-14.1-28.9c0-11,0.8-22.9,1.4-30c0.4,1.2,0.9,2.4,1.5,3.7c0,0,0,0,0,0.1
	c2.8,9.9,7,24.5,9.2,32.2c3.5,12.3,11.7,27.3,11.7,27.3s9.3-22.8,10.7-30.8c5.2-1.2,11.9-5.4,15.9-13.7c0.2,0.3,0.3,0.4,0.2,0.2
	c0-0.1-0.1-0.2-0.1-0.4c0.5-0.9,0.9-1.9,1.2-3c2.3-6.4,3.7-13.1,5-18.6c3.5,1.6,8,3.7,8.3,4.3C556.7,160.3,553.8,178.8,550.3,192.3z
	"/>
<path class="st0" d="M501.4,261.4c0,0-0.8-0.6-2.1-1.5c-6.2-6.9-16.3-17.5-16.3-17.5l-5.8-18.4c0,0,8.7-2.1,20.3,5.3
	c0.1,0.2,0.3,0.5,0.4,0.8c-0.2,0.4-0.3,0.6-0.3,0.6L501.4,261.4z"/>
<path class="st0" d="M599.9,322.5c-0.4,1.3-0.8,2.5-1.3,3.8v0c-8.2,22.4-25,35.9-25,35.9s-4.7,0-11.1,0
	c12.7-13.3,21.3-48.8,24.9-64.6C593.1,307.4,596.8,317.5,599.9,322.5z"/>
<path class="st0" d="M587.4,297.5C587.4,297.5,587.4,297.5,587.4,297.5c-3.6,15.8-12.2,51.3-24.9,64.6h-13.4c-2.2,0-5.6,0-9.7-0.1
	c9.5-11.1,10.7-29.9,15.3-43.9c4.4-13.2,10.6-31.4,14.2-41.9c5.1,4.3,9.9,8.8,13,12.9C584,291.8,585.8,294.7,587.4,297.5z"/>
<path class="st0" d="M569,276.2c-3.6,10.5-9.8,28.7-14.2,41.9c-4.7,14-5.8,32.8-15.3,43.9c-5.2-0.1-11.6-0.2-18.3-0.4
	c9.5-9.5,18.4-25.8,22.2-41.5c4.9-20.2,15.2-42.6,18-49.9C563.8,272,566.5,274.1,569,276.2z"/>
<path class="st0" d="M571.1,270.1c-0.5,1.5-1.2,3.6-2.1,6.1c-2.5-2.1-5.2-4.2-7.8-6.1c-3.2-2.4-6.3-4.6-9-6.4
	c-1.1-0.8-2.2-1.5-3.2-2.2c-4.2-2.8-7.1-4.6-7.1-4.6s0,0,0,0c1.5-0.3,3.6-1,6.5-2.3c1,0.5,2.3,1.3,3.8,2.2
	C556.9,259.7,563.9,264.2,571.1,270.1z"/>
<path class="st0" d="M552.2,252.8c-1.4,0.7-2.7,1.3-3.8,1.9c-2.9,1.3-5,2-6.5,2.3c0,0,0-0.1,0-0.3c0,0,0-0.1,0-0.2c0,0,0-0.1,0-0.2
	c-0.2-2.9-0.8-14.5-0.1-27c0.7-0.3,2.3-0.9,4.2-1.7c3.9-1.6,9.2-3.6,10.3-3.8C558.1,223.4,563.8,246.8,552.2,252.8z"/>
<path class="st0" d="M590.4,413c-3.7,0.1-10.4,2.1-18.1,4.5c-3.8,1.2-7.8,2.6-11.8,3.9l-0.1-0.6v0c0.3-0.5,0.6-1.1,0.8-1.7
	c4.4-1.9,19.8-8.9,28.2-16.7c0,0.3,0,0.5,0,0.5S590,411.6,590.4,413z"/>
<path class="st0" d="M608.3,470.7c-1,0-2.1,0.1-3.1,0.3l-7.4-14.5l-19.2-15.8l-6.3-23.3c7.7-2.5,14.4-4.4,18.1-4.5l2.5,11.9
	l12.7,9.4C605.6,434.2,604.9,452.9,608.3,470.7z"/>
<path class="st0" d="M622,460.3c1-8.9,2.2-18.7,3.3-21.4c-0.2-0.4-0.4-0.8-0.6-1.2c5.7,4,15,10.1,19.3,11.1
	C638.9,452.1,628.3,457.3,622,460.3z"/>
<path class="st0" d="M661.9,427.2c0,1.2-0.1,2.3-0.1,3.4v0c0,0,0,0,0,0c0,0,0,0,0,0c-0.9,3.2-2.1,6.4-3.3,9.5
	c0.5,0.4,0.9,0.8,1.4,1.2v0h0v0c1.1,3.7,0.7,12.5-0.4,21.1l0,0c-6.5,5.1-13.4,8.5-19.7,10.8v0c-5.6,2-10.7,3.2-14.5,3.8
	c-1.3-1.1-2.8-2.2-4.5-3.2c0.3-2.8,0.8-8,1.4-13.7c6.3-3,16.9-8.2,22-11.5c-4.3-1-13.5-7.1-19.3-11.1c-0.2-0.5-0.4-1.1-0.5-1.7
	c4.3-2.6,9.8-5.6,15.6-8.4c0.4-0.2,0.9-0.4,1.4-0.7c1.8-0.9,3.6-1.7,5.5-2.5c0.5-0.2,0.9-0.4,1.4-0.6c2.3-1,4.6-1.8,6.9-2.6
	c1.4-0.5,2.7-0.9,4.1-1.2c0.4-0.1,0.9-0.2,1.3-0.4c0,0,0,0,0,0c0.4-0.1,0.9-0.2,1.3-0.3h0C661.8,422,661.9,424.6,661.9,427.2z"/>
<path class="st0" d="M653.4,495.3c-0.1,0.4-0.1,0.9-0.2,1.3c-5-1.6-11.5-2.2-15.8-2.2c0.5-2.3,0.2-4.2-0.6-5.8
	C641.4,491.3,647.1,493.8,653.4,495.3z"/>
<path class="st0" d="M659.4,462.6c-1.2,9.6-3.2,19-4.7,20.8c-0.1,2.9-0.5,7.1-1.3,11.9c-6.3-1.5-11.9-4-16.7-6.6v0
	c-1.2-2.5-3.5-4.1-5-4.9c-0.7-0.4-1.2-0.6-1.2-0.6s-1.8-2.9-5.4-6c3.8-0.6,8.9-1.8,14.5-3.8v0C645.9,471.1,652.9,467.7,659.4,462.6z
	"/>
<path class="st0" d="M667.7,650.9c-17.2,20.2-26.5,0-26.5,0s-15.6,1.5-18.7-1.6c-3.1-3.1,14.5-76.5-32.9-80.5
	c-5.5-14.5-13.3-33.6-16.9-42.2c26.3,33.9,95.5,109.7,95.5,109.7s10.7-11.4,16.1-9.4C684.3,627,684.8,630.7,667.7,650.9z"/>
<path class="st0" d="M669.1,529.2l1.2,0.5c-10-3.2-40.4-11.9-64.7-19.7c25.2,7.5,49.1,7.8,55.2,7.3c2.3-0.2,3-1.5,2.8-3.2l6.7,1
	L669.1,529.2z"/>
<path class="st0" d="M683.5,535.7c0,0-6.4,31.2-6.4,31.8c-21-6.7-93.4-44.5-115.1-55.9c-6.7-10.9-13.9-24.7-20.3-38
	c6.7,6,22.7,19.9,33.3,25.5c4.1,2.2,12.7,5.3,23.3,8.8c0.2,0,0.4,0.1,0.5,0.2c2.1,0.7,4.2,1.4,6.4,2c0.1,0,0.2,0,0.2,0.1
	c24.3,7.8,54.8,16.4,64.7,19.7L683.5,535.7z"/>
<path class="st0" d="M676.5,612.5l7.8,14.5c-5.5-2.1-16.1,9.4-16.1,9.4s-69.2-75.8-95.5-109.7c-0.8-1.9-1.4-3.3-1.7-4l1.4,3.7
	c-2.2-2.8-4-5.3-5.5-7.4c-1.6-2.3-3.3-4.8-4.9-7.5c21.8,11.5,94.1,49.2,115.1,55.9c0,0.6,1.8,0.8,3.9,2.9
	C690.7,596.4,676.5,612.5,676.5,612.5z"/>
<path class="st0" d="M530.6,516.6c-7.5,1.3-20.5,5.4-32.3,19.6c3.7-21.6,12.2-38.1,17.7-47C521.6,498.8,526.9,508.2,530.6,516.6z"/>
<path class="st0" d="M535.2,538.2c-2.7,12.4-26.8,21.2-37.8,34.2c-1.7-13.1-1.1-25.3,0.8-36.2c11.8-14.2,24.7-18.3,32.3-19.6
	C534.4,525.3,536.4,532.9,535.2,538.2z"/>
<path class="st0" d="M503.6,777.7c0,3.7-0.1,7.1-0.2,10.2c-31-14.5-49.5-12.3-50.8-12.1c0,0-0.1,0-0.1,0c-0.5-1.5-1.2-3.1-2-4.7
	c-1.1-2.3-1.9-4.9-2.5-7.7c5.1-0.1,20.7-0.1,35.3,4c0,0,0,0,0,0C491,769.5,498.2,772.8,503.6,777.7z"/>
<path class="st0" d="M502.7,762.5c-6.3,1.4-12.8,3.1-19.3,4.9c0,0,0,0,0,0c-14.6-4.1-30.2-4.2-35.3-4c-0.5-2.1-0.8-4.4-1.1-6.7
	c9.4,0.7,38.2,2,53.8-7.6c0.3,2.6,0.7,5.4,1.1,8.4C502.3,759.1,502.5,760.8,502.7,762.5z"/>
<path class="st0" d="M500.8,749c-15.6,9.7-44.4,8.4-53.8,7.6c-0.4-3.8-0.6-7.8-0.6-11.4c12.2,1.7,34.5,2.9,53.5-6.7
	C500.1,741.6,500.4,745.1,500.8,749z"/>
<path class="st0" d="M499.9,738.5c-18.9,9.7-41.3,8.5-53.5,6.7c-0.1-9.9,0.9-18.1,0.9-18.1l0.2,2c0,0,31.1,3.3,52.4-8
	C499.5,724.9,499.4,730.6,499.9,738.5z"/>
<path class="st0" d="M500.5,715.4c0,0-0.4,1.8-0.7,5.6c-21.3,11.3-52.4,8-52.4,8l-0.2-2l-4.7-51.6c15.6,12.1,34.9,27.9,34.9,27.9
	s0.2-0.1,0.6-0.4c1.5-1,5.9-3.9,11.6-7.4c2.7-1.6,5.7-3.4,8.9-5.2C499.3,698.9,500.1,708.3,500.5,715.4z"/>
<path class="st0" d="M491.6,640c0,6.3-0.7,24.5-1.2,39.1c-0.3,6.8-0.5,12.8-0.7,16.5c-5.8,3.5-10.1,6.4-11.6,7.4l1.2-7.4l11.5-71.7
	C491.1,630.9,491.6,636.7,491.6,640z"/>
<path class="st0" d="M592.9,668.8c-27.5-12.7-66.9-16.2-72-10.6c-3.8,4.2-15.7,11.9-23.7,16.8c-3.1,1.9-5.6,3.4-6.9,4.2
	c0.6-14.6,1.2-32.8,1.2-39.1c0-3.3-0.5-9.1-0.9-16.1c0,0,0,0,0,0c-1.1-16.7-1.8-39.7,5.3-49.6c0.5-0.6,0.9-1.2,1.5-1.9
	c11-13,35-21.8,37.8-34.2c1.2-5.3-0.9-12.9-4.7-21.6c-3.6-8.4-9-17.8-14.6-27.4c-2.7-4.6-5.5-9.3-8.3-13.9
	c-10.7-17.9-15.7-34.1-17.4-41.7c9.9-1.6,21.6-2.7,31.8-3.8c2.8,6.6,10.4,24.6,19.6,43.6v0c6.4,13.3,13.6,27.1,20.3,38
	c1.7,2.7,3.3,5.2,4.9,7.5c1.5,2.1,3.4,4.6,5.5,7.4l22,56.3C600.9,608.5,596.6,646.2,592.9,668.8z"/>
<path class="st0" d="M536.8,127.8c-2.2,0.2-9.9,3.9-9.9,3.9s6.7,1.2,8.6,1.4c1.8,0.2,7.7-1.4,7.7-1.4S538.9,127.6,536.8,127.8z
	 M535.7,132.1c-0.7,0-1.3-0.6-1.3-1.3c0-0.7,0.6-1.3,1.3-1.3c0.7,0,1.3,0.6,1.3,1.3C537,131.5,536.4,132.1,535.7,132.1z"/>
<path class="st0" d="M498.7,128.9c-2.1-0.2-6.1,3.5-6.1,3.5s4,0.6,6.7,1.3c2.7,0.7,7.9-2,7.9-2S500.8,129.1,498.7,128.9z
	 M499.9,132.7c-0.8,0-1.4-0.6-1.4-1.4c0-0.8,0.6-1.4,1.4-1.4c0.8,0,1.4,0.6,1.4,1.4C501.3,132.1,500.6,132.7,499.9,132.7z"/>
<path class="st0" d="M537,130.8c0,0.7-0.6,1.3-1.3,1.3c-0.7,0-1.3-0.6-1.3-1.3c0-0.7,0.6-1.3,1.3-1.3
	C536.4,129.5,537,130.1,537,130.8z"/>
<path class="st0" d="M501.3,131.3c0,0.8-0.6,1.4-1.4,1.4c-0.8,0-1.4-0.6-1.4-1.4c0-0.8,0.6-1.4,1.4-1.4
	C500.6,129.9,501.3,130.6,501.3,131.3z"/>
<path class="st0" d="M493.8,357.6c-0.5,1.1-0.9,2.2-1.4,3.2c-5.5-0.2-10-0.3-12.9-0.4c-4.1-0.1-10.5-0.2-17.3-0.2
	c3.2-7.6,9.2-23.2,8.6-29.8c-0.8-9-3.4-18.9-3.4-18.9s1-25.7-8.4-42.5c-6.7-12-9.3-26.1-10.2-33.1c5.4,1.6,10.8,3.5,15.6,5.2h0
	c2,3.6,4.8,10.9,6.4,25c2.8,24,10.2,27.5,13.6,40.7C487.3,317.4,492.4,344.3,493.8,357.6z"/>
<path class="st0" d="M462.3,360.2c-2.7,0-5.4,0-8,0c-4.6-9-12.2-26.5-9.8-39.6c-3.8-14.1-4.8-69.8-5.1-87.3c3.1,0.7,6.3,1.6,9.5,2.5
	c0.9,7,3.5,21.1,10.2,33.1c9.3,16.8,8.4,42.5,8.4,42.5s2.6,9.9,3.4,18.9C471.6,337,465.5,352.6,462.3,360.2z"/>
<path class="st0" d="M582.9,376.6c-12.8,0.7-52.4,2.8-64.9,1.5c-15-1.5-52.8-8-63.5-9.5c-3.1-0.5-6.7-0.7-10.2-0.7
	c-5.2,0-10.3,0.2-13.4,0.4c0.9-3.7,1.9-6.5,2.6-7.9c0,0,9.8-0.1,20.9-0.1c2.7,0,5.4,0,8,0c6.8,0,13.2,0,17.3,0.2
	c2.9,0.1,7.4,0.2,12.9,0.4c0.5,0,1.1,0,1.7,0c8,0.2,17.8,0.5,26.9,0.8c6.7,0.2,13.1,0.3,18.3,0.4c4.1,0.1,7.5,0.1,9.7,0.1h13.4
	c6.4,0,11.1,0,11.1,0l9,14C582.6,376.1,582.7,376.3,582.9,376.6z"/>
<path class="st0" d="M454.3,360.2c-11,0-20.9,0.1-20.9,0.1c-7.8-11.3-2-37.4,0-48.5c-0.5-1-0.9-2.2-1.3-3.7
	c-4.7-16.3-6.7-59.5-7.4-76.8c4.1-0.1,9.2,0.7,14.7,2c0.2,17.4,1.3,73.2,5.1,87.3C442,333.7,449.6,351.2,454.3,360.2z"/>
<path class="st0" d="M432.1,308.2c-9.1,11.7-13.1,33.7-15.4,39.7c-2.5,6.6-3.9,16.6-3.9,16.6s-2.1,9-2.5,9.5
	c-0.4,0.6-0.6,4.1-1.5,9.9c-0.7,4.2-2.7,12-4.2,16.6c-2.9-4-12.6-16.3-28.4-18.8c-10.4-1.6-16.4,6.6-19.7,14.3
	c-8-9.2-0.3-16.4-0.3-16.4l1.5-21.4c0,0,1.8-13.8,3.1-16.1c1.4-2.2-0.1-5,2.8-8.3c2.9-3.4,13.8-49.6,13.8-49.6
	c14-45.6,32.7-50.1,43.6-52.5c1.1-0.2,2.4-0.4,3.8-0.4C425.4,248.7,427.4,291.9,432.1,308.2z"/>
<path class="st0" d="M403.8,420.7c0.6,3.3-2,7.2-2.7,11.3c-0.8,4.1-1.6,19.1-3.1,31.6c-0.2,0-0.4,0-0.6-0.1
	c-24.7-2.7-31.2,13.4-32.5,17.4c0,0,0,0,0,0c-0.2,0.5-0.2,0.9-0.2,0.9s0-2.2-0.2-5.2s-0.6-6.7-1.4-9.6c-3.9-5.5-2-13.2-2-13.2
	s-0.2-4.5-3.3-23c-2.9-17.1-1.6-33.5-0.3-33.6c0.1,0.1,0.2,0.2,0.3,0.3c-0.1-0.2-0.2-0.3-0.3-0.3c-0.4-0.4-0.8-0.8-1.1-1.2
	c3.3-7.7,9.4-15.9,19.7-14.3c15.7,2.4,25.5,14.7,28.4,18.8c0.6,0.8,0.9,1.3,0.9,1.3S403.2,417.4,403.8,420.7z"/>
<path class="st0" d="M407,511c-3.4,3.1-11.1-0.7-13.4-4.3c-2.3-3.6-1.8-17.6-1.8-17.6s-6,9.9-9.6,10.3c0,0.2,0.1,0.4,0.1,0.7
	c-1.3-0.3-3.1-0.6-4.8-0.1c0,0,0,0,0,0c-1.9,0.5-3.6,1.7-4.7,4.4c-0.1,0.2-0.1,0.4-0.2,0.6c-0.1,0-0.2,0-0.3,0.1
	c-2.1,0.6-4,1.9-5,3.7c-0.7-3.7-1.6-8.6-2.7-12.5c-1-3.6-0.4-10.2,0.2-15.3c0,0,0,0,0,0c1.2-4,7.8-20.1,32.5-17.4
	c0.5,0.4,0.9,0.8,1.4,1.2c7.5,7.4,2.9,19.9,3.7,27.2C403.3,499.7,410.4,507.9,407,511z"/>
<path class="st0" d="M396.5,540.5c-1.3-0.6-2.2-1.4-2.2-1.4s-2.9,0.6-4.9,0c-2-0.6-17.1-13.8-18.5-13.8c-1.1,0-1.7-6.2-2.2-9.6
	c-0.1-0.9-0.2-1.6-0.3-1.9c-0.2-0.7-0.6-2.6-1-5c1-1.8,2.9-3.2,5-3.7l0.8,2.6l3.2,10.4c0,0,10.7,11.4,12.5,14.3
	C390.6,535.3,393.2,538,396.5,540.5z"/>
<path class="st0" d="M480.5,435.3c-2.9,8.6-8.3,23.5-12.2,28.4c-5.7,7-33,59.2-33,63.8c0,4.4-18.6,45.8-18.8,70.9
	c-4-21.3-2.6-55.7,2.8-66.7c5.6-11.4,30.8-76.6,37-92.6C465.7,437.7,474.6,436.4,480.5,435.3z"/>
<path class="st0" d="M357.9,534.4c-8.4,17.7-24.5,46.4-33.5,55.2c-7.2,7-9.1,21.7-9.5,33.2c-1.5-0.8-3-1.6-4.3-2.5
	c-6.1-3.7-11-7.3-14.2-9.9c1.8-3.1,4-6.8,6.1-10.1c0.8-1.3,1.7-2.6,2.5-3.8C310.1,588.8,334.9,553.2,357.9,534.4z"/>
<path class="st0" d="M419.2,531.8c-5.4,11-6.8,45.4-2.8,66.7c0,0,0,0,0,0c0,1.4,0,2.8,0.1,4.1c0,0-0.2,31.5-2.9,46.8
	c-21.3-8.4-49.2-10.6-74.6-17c-9.1-2.3-17.3-5.8-24.2-9.6c0.4-11.5,2.3-26.2,9.5-33.2c9-8.8,25.1-37.5,33.5-55.2
	c1-0.8,2.1-1.7,3.1-2.4c1.5-4,4.3-9.7,7.7-16.2c0.5,3.4,1.1,9.6,2.2,9.6c1.4,0,16.6,13.2,18.5,13.8c2,0.6,4.9,0,4.9,0
	s0.9,0.7,2.2,1.4c1.5,0.8,3.6,1.3,5.1,0.1c2.8-2.2,2.9-4.7,2.9-4.9s-5.2-6.2-8.8-7.1c-3.6-4.4-8.3-11.7-12.2-14.2
	c-0.2-6.8-0.7-11.9-1.1-14.3c0-0.3-0.1-0.5-0.1-0.7c3.6-0.4,9.6-10.3,9.6-10.3s-0.6,14,1.8,17.6c2.3,3.6,10,7.4,13.4,4.3
	c3.4-3.1-3.7-11.3-4.6-19c-0.8-7.3,3.8-19.8-3.7-27.2c5-8.1,9.3-14.9,11.9-18.9c8.1-1.2,28-4,45.6-6.7
	C450,455.2,424.8,520.3,419.2,531.8z"/>
<path class="st0" d="M401.6,540.7c-1.5,1.2-3.6,0.6-5.1-0.1c-3.3-2.5-5.9-5.3-7.6-8.2c-1.8-2.9-12.5-14.3-12.5-14.3l-3.2-10.4
	l-0.8-2.6c0.1,0,0.2,0,0.3-0.1c0.1-0.2,0.1-0.4,0.2-0.6c1-2.7,2.8-4,4.7-4.4c0,0,0,0,0,0c1.7-0.4,3.5-0.2,4.8,0.1
	c0.5,2.4,1,7.4,1.1,14.3c3.9,2.5,8.6,9.8,12.2,14.2c3.6,0.9,8.8,6.8,8.8,7.1C404.5,536,404.4,538.5,401.6,540.7z"/>
<circle class="st0" cx="517.5" cy="305" r="18.5"/>
<path class="st0" d="M517.8,286c-4.4,0-10.9,1.4-17.5,8.1c-6.6,6.7-7.1,9.8-7,11.8s6.3,12.4,14.4,16.4s17.1,2.7,21.8-0.9
	c4.7-3.5,12.6-10.4,13.6-15.5C544,300.8,529.6,285.9,517.8,286z M533.9,313.8c-0.6,1.3-1.4,2.4-2.3,3.5c-1,1.1-2.1,2.2-3.3,3.1h0
	c-2.7,1.9-5.9,3.1-9.4,3.3c-0.4,0-0.8,0-1.2,0c-0.6,0-1.2,0-1.8-0.1c-1.2-0.1-2.4-0.4-3.6-0.7c-1.7-0.5-3.2-1.2-4.6-2.2
	c-1.4-0.9-2.7-2.1-3.8-3.4c-0.9-1-1.6-2.1-2.3-3.4c-0.2-0.4-0.4-0.8-0.6-1.2c-1.2-0.5-4.2-2.2-4.3-7c-0.1-4.8,2.9-7,4.5-7.8
	c0.7-1.4,1.5-2.8,2.5-4c1.2-1.5,2.7-2.8,4.4-3.8c2.8-1.8,6.1-2.8,9.7-2.8h0.2c1.9,0,3.7,0.3,5.4,0.9c4.7,1.5,8.6,5,10.8,9.4
	c1.6,0.6,4.7,2.5,4.9,8.1C539.2,310.7,536,312.9,533.9,313.8z"/>
<path class="st0" d="M533.9,313.8c1.2-2.4,1.9-5.1,2-8c0-0.1,0-0.2,0-0.2c0-2-0.3-3.8-0.9-5.6c-0.2-0.8-0.5-1.5-0.9-2.3
	c1.6,0.6,4.7,2.5,4.9,8.1C539.2,310.7,536,312.9,533.9,313.8z"/>
<path class="st0" d="M499.5,306.1c0.1,2.4,0.6,4.6,1.5,6.7c-1.2-0.5-4.2-2.2-4.3-7c-0.1-4.8,2.9-7,4.5-7.8c-0.6,1.3-1.1,2.7-1.4,4.2
	c-0.2,1.1-0.3,2.2-0.3,3.4C499.5,305.8,499.5,305.9,499.5,306.1z"/>
<path class="st1" d="M499.5,306.1c1.4,0.5,4.1,1.6,6.5,3.1c-2.4,2.6-3.8,4-4.5,4.9c-0.2-0.4-0.4-0.8-0.6-1.2
	C500.1,310.8,499.5,308.5,499.5,306.1z"/>
<path class="st1" d="M504.8,305.4c-0.1,0.6,1,1.6,2.2,2.6c0,0,0,0,0,0c-1.7-1.2-3.4-2.2-4.2-2.7c-1.4-0.8-2.4-2.1-3-3.2
	c0.3-1.5,0.7-2.9,1.4-4.2c0.7-1.4,1.5-2.8,2.5-4c0.6,1,2.5,3.8,5,7.2c-0.5,0.4-0.9,0.8-1.4,1.1C505.6,303.5,505,304,504.8,305.4z"/>
<path class="st1" d="M516.3,296.1c-2,0.5-4.2,2.3-6.6,4.2c-2.1-3.9-1.9-8.2-1.7-10.1c2.8-1.8,6.1-2.8,9.7-2.8h0.2
	C517.9,289,518.3,291.8,516.3,296.1z"/>
<path class="st1" d="M513.7,316.9c-1.2,1.3-2.2,2.3-3,2.8c-1.4,0.9-2.4,1.1-3.1,1.1c-1.4-0.9-2.7-2.1-3.8-3.4
	c-0.1-0.9,0.2-2.2,1.3-4c0.5-0.8,1.4-1.9,2.5-3.2c0.2,0.2,0.5,0.4,0.7,0.6C510.2,312.4,512.2,314.3,513.7,316.9z"/>
<path class="st1" d="M535,300c-1.1,1.3-2.7,1.7-5.8,3.1c-1.1-0.9-2.5-2.1-3.7-3.4c-2.1-2.3-4.5-3.4-7-3.7c2.3-4.6,1.5-7,4.7-7.7
	c4.7,1.5,8.6,5,10.8,9.4C534.4,298.4,534.7,299.2,535,300z"/>
<path class="st1" d="M515.8,323.7c-1.2-0.1-2.4-0.4-3.6-0.7c-0.1-0.3-0.1-0.7,0.1-1.3c0.1-0.3,1-1.4,2.3-2.9
	C515.2,320.2,515.7,321.8,515.8,323.7z"/>
<path class="st1" d="M528.2,320.4c-2.7,1.9-5.9,3.1-9.4,3.3c-0.3-1.7-1.5-4.1-3-6.4c0.7-0.8,1.4-1.6,2.2-2.5c0.5-0.5,1-1,1.5-1.6
	c0.4,0.3,0.8,0.7,1.1,1C523.9,317.1,526.6,318.9,528.2,320.4z"/>
<path class="st1" d="M535.8,305.8c0,2.9-0.8,5.6-2,8c-0.6,1.3-1.4,2.4-2.3,3.5c-1.3-0.1-3.1-0.5-5.6-1.9c-1.2-0.7-2.4-1.4-3.5-2.1
	c1.8-1.1,3.4-2.4,4-3c1.1-1.1,4.7-4.8,4.7-5.4c0-0.1,0-0.1-0.1-0.2C533,304.2,534.7,304.4,535.8,305.8z"/>
<path class="st0" d="M523.3,288.3c-3.2,0.7-2.4,3.1-4.7,7.7c-0.1,0.2-0.2,0.5-0.4,0.7c-0.3,0.5-0.6,1-0.9,1.5
	c-0.9,1.4-2,2.8-3.1,4.3c-0.5,0.6-1,1.3-1.5,1.9c-0.3,0.3-0.5,0.6-0.8,0.9c-0.4,0.5-0.9,1-1.3,1.5v0c-0.7,0.8-1.3,1.5-2,2.3
	c-0.2-0.2-0.5-0.4-0.7-0.5c0.2,0.2,0.5,0.4,0.7,0.5c-0.3,0.4-0.6,0.7-0.9,1.1c-1.1,1.3-1.9,2.4-2.5,3.2c-1.2,1.8-1.4,3.1-1.3,4
	c-0.9-1-1.6-2.1-2.3-3.4c0.7-0.9,2-2.2,4.5-4.9c0.3-0.4,0.7-0.7,1-1.1c0,0,0,0,0,0c1-1.1,2.1-2.4,3.5-3.9c0.1-0.1,0.1-0.1,0.2-0.2
	c0.3-0.3,0.5-0.6,0.8-0.9c0.1-0.2,0.3-0.3,0.4-0.5c0.4-0.5,0.8-0.9,1.1-1.4c0.6-0.8,1.1-1.5,1.6-2.2c0.7-1,1.2-2,1.6-2.9
	c2.1-4.3,1.7-7.1,1.6-8.7C519.7,287.4,521.6,287.7,523.3,288.3z"/>
<path class="st0" d="M507,308c-0.4,0.4-0.7,0.8-1,1.1c-2.4-1.4-5.2-2.5-6.5-3.1c0-0.2,0-0.4,0-0.5c0-1.2,0.1-2.3,0.3-3.4
	c0.6,1.1,1.7,2.4,3,3.2C503.6,305.9,505.3,306.9,507,308z"/>
<path class="st1" d="M506,309.2c-2.4,2.6-3.8,4-4.5,4.9c-0.2-0.4-0.4-0.8-0.6-1.2c-0.9-2.1-1.4-4.3-1.5-6.7
	C500.8,306.6,503.6,307.8,506,309.2z"/>
<path class="st0" d="M511.5,303c-0.3,0.3-0.5,0.6-0.8,0.9c0,0-0.1-0.1-0.1-0.1c-0.7-0.9-1.4-1.8-2-2.6c-2.5-3.3-4.4-6.2-5-7.2
	c1.2-1.5,2.7-2.8,4.4-3.8c-0.2,1.9-0.4,6.2,1.7,10.1c0.3,0.5,0.6,1.1,1,1.6c0.1,0.2,0.3,0.4,0.4,0.6
	C511.2,302.6,511.4,302.8,511.5,303z"/>
<path class="st1" d="M504.8,305.4c-0.1,0.6,1,1.6,2.2,2.6c0,0,0,0,0,0c-1.7-1.2-3.4-2.2-4.2-2.7c-1.4-0.8-2.4-2.1-3-3.2
	c0.3-1.5,0.7-2.9,1.4-4.2c0.7-1.4,1.5-2.8,2.5-4c0.6,1,2.5,3.8,5,7.2c-0.5,0.4-0.9,0.8-1.4,1.1C505.6,303.5,505,304,504.8,305.4z"/>
<path class="st1" d="M516.3,296.1c-2,0.5-4.2,2.3-6.6,4.2c-2.1-3.9-1.9-8.2-1.7-10.1c2.8-1.8,6.1-2.8,9.7-2.8h0.2
	C517.9,289,518.3,291.8,516.3,296.1z"/>
<path class="st1" d="M513.7,316.9c-1.2,1.3-2.2,2.3-3,2.8c-1.4,0.9-2.4,1.1-3.1,1.1c-1.4-0.9-2.7-2.1-3.8-3.4
	c-0.1-0.9,0.2-2.2,1.3-4c0.5-0.8,1.4-1.9,2.5-3.2c0.2,0.2,0.5,0.4,0.7,0.6C510.2,312.4,512.2,314.3,513.7,316.9z"/>
<path class="st1" d="M535,300c-1.1,1.3-2.7,1.7-5.8,3.1c-1.1-0.9-2.5-2.1-3.7-3.4c-2.1-2.3-4.5-3.4-7-3.7c2.3-4.6,1.5-7,4.7-7.7
	c4.7,1.5,8.6,5,10.8,9.4C534.4,298.4,534.7,299.2,535,300z"/>
<path class="st0" d="M518.8,323.7c-0.4,0-0.8,0-1.2,0c-0.6,0-1.2,0-1.8-0.1c-0.1-1.8-0.6-3.5-1.2-4.9c0.4-0.4,0.8-0.9,1.2-1.4
	C517.3,319.7,518.5,322.1,518.8,323.7z"/>
<path class="st1" d="M515.8,323.7c-1.2-0.1-2.4-0.4-3.6-0.7c-0.1-0.3-0.1-0.7,0.1-1.3c0.1-0.3,1-1.4,2.3-2.9
	C515.2,320.2,515.7,321.8,515.8,323.7z"/>
<path class="st1" d="M528.2,320.4c-2.7,1.9-5.9,3.1-9.4,3.3c-0.3-1.7-1.5-4.1-3-6.4c0.7-0.8,1.4-1.6,2.2-2.5c0.5-0.5,1-1,1.5-1.6
	c0.4,0.3,0.8,0.7,1.1,1C523.9,317.1,526.6,318.9,528.2,320.4z"/>
<path class="st1" d="M535.8,305.8c0,2.9-0.8,5.6-2,8c-0.6,1.3-1.4,2.4-2.3,3.5c-1.3-0.1-3.1-0.5-5.6-1.9c-1.2-0.7-2.4-1.4-3.5-2.1
	c1.8-1.1,3.4-2.4,4-3c1.1-1.1,4.7-4.8,4.7-5.4c0-0.1,0-0.1-0.1-0.2C533,304.2,534.7,304.4,535.8,305.8z"/>
<path class="st0" d="M535.8,305.6c0,0.1,0,0.2,0,0.2c-1.1-1.4-2.9-1.6-4.8-1.1c-1.2,0.3-2.4,0.8-3.7,1.5c-0.7,0.4-1.5,1-2.6,1.9
	c-1.2,1.1-2.6,2.5-4.1,3.9c0,0,0,0,0,0c0,0,0,0,0,0c0,0,0,0-0.1,0.1c-0.4,0.4-0.8,0.8-1.1,1.2c-0.5,0.5-1,1-1.5,1.6
	c-0.8,0.9-1.5,1.7-2.2,2.5c-0.4,0.5-0.8,1-1.2,1.4c-1.3,1.5-2.2,2.6-2.3,2.9c-0.2,0.6-0.2,1-0.1,1.3c-1.6-0.5-3.2-1.2-4.6-2.2
	c0.7,0,1.8-0.2,3.1-1.1c0.7-0.5,1.8-1.5,3-2.8c0.3-0.4,0.7-0.8,1.1-1.2c0.4-0.4,0.8-0.9,1.2-1.3c0.5-0.5,1-1.1,1.5-1.6
	c0.2-0.2,0.3-0.4,0.5-0.6c0,0,0.1-0.1,0.1-0.1c0.4-0.4,0.7-0.8,1.1-1.2c1.4-1.5,2.9-3,4.3-4.3c0.7-0.6,1.4-1.2,2.1-1.6
	c0.5-0.3,0.9-0.6,1.3-0.8c0.9-0.4,1.6-0.8,2.3-1.1c3-1.4,4.6-1.8,5.8-3.1C535.5,301.7,535.8,303.6,535.8,305.6z"/>
<path class="st0" d="M514.8,315.8c-0.4,0.4-0.7,0.8-1.1,1.2c-1.5-2.6-3.5-4.5-5.3-6.1c-0.2-0.2-0.5-0.4-0.7-0.6
	c0.3-0.4,0.6-0.7,0.9-1.1c0.8,0.6,1.6,1.2,2.2,1.7c0.1,0.1,0.2,0.2,0.3,0.3c0.1,0.1,0.2,0.2,0.3,0.3c0,0,0,0,0,0
	c0.1,0.1,0.2,0.3,0.4,0.5C512.7,312.9,513.8,314.3,514.8,315.8z"/>
<path class="st0" d="M510.6,303.8c0,0.1-0.1,0.2-0.1,0.3c-1.3,1.5-2.5,2.8-3.5,3.9c-1.3-1-2.3-2-2.2-2.6c0.1-1.4,0.8-1.9,2.4-3.1
	c0.5-0.4,0.9-0.8,1.4-1.1C509.3,302,509.9,302.9,510.6,303.8z"/>
<path class="st0" d="M516.3,296.1c-0.4,0.9-1,1.8-1.6,2.9c-0.8,0.4-1.4,0.9-2,1.5c-0.6,0.6-1.1,1.3-1.5,2.1
	c-0.1-0.2-0.3-0.4-0.4-0.6c-0.4-0.5-0.7-1-1-1.6C512.1,298.3,514.3,296.6,516.3,296.1z"/>
<path class="st0" d="M517.5,312.8c-0.5,0.5-1,1.1-1.5,1.6c-1.6-0.6-3.2-1.6-4.1-2.4c-0.1-0.2-0.3-0.3-0.4-0.5c0,0,0,0,0,0
	c-0.1-0.2-0.4-0.4-0.7-0.6c-0.6-0.5-1.4-1.1-2.1-1.7c0.6-0.7,1.3-1.5,2-2.3c0.4,1.5,1.2,2.8,2.4,3.9
	C514.3,311.9,515.9,312.7,517.5,312.8z"/>
<path class="st0" d="M529.2,303.1c-0.7,0.3-1.5,0.7-2.3,1.1c-0.4,0.2-0.9,0.5-1.3,0.8c0-1.8-0.9-3.5-2.3-4.7
	c-0.5-0.5-1.2-0.9-1.9-1.2h0c-1-0.5-2.1-0.8-3.2-0.9c-0.3,0-0.6,0-0.9,0c0.3-0.5,0.6-1,0.9-1.5c0.1-0.2,0.2-0.5,0.4-0.7
	c2.5,0.3,4.9,1.4,7,3.7C526.7,301,528.1,302.2,529.2,303.1z"/>
<path class="st0" d="M531.5,317.4c-1,1.1-2.1,2.2-3.3,3.1h0c-1.6-1.5-4.3-3.3-7.6-6.1c-0.4-0.3-0.8-0.6-1.1-1
	c0.4-0.4,0.8-0.8,1.1-1.2c0,0,0,0,0.1-0.1c0,0,0,0,0,0c0,0,0,0,0,0c0,0,0,0,0,0c0.6,0.4,1.2,0.9,1.8,1.2c1.1,0.8,2.3,1.5,3.5,2.1
	C528.4,316.8,530.2,317.3,531.5,317.4z"/>
<path class="st0" d="M531.1,304.9c0,0.6-3.6,4.3-4.7,5.4c-0.6,0.6-2.3,1.9-4,3c-0.6-0.4-1.2-0.8-1.8-1.2c0,0,0,0,0,0
	c1.7-0.8,3.2-2.2,4.1-3.9c1-0.9,1.9-1.6,2.6-1.9c1.3-0.7,2.5-1.2,3.7-1.5C531.1,304.8,531.1,304.9,531.1,304.9z"/>
<path class="st0" d="M518,312.2c-0.2,0.2-0.3,0.4-0.5,0.6c-1.5-0.1-3.2-0.9-4.5-2c0.3-1.1,0.5-2.1,0.9-3.1c0.5,0.6,1,1.1,1.5,1.7
	c0.8,0.9,1.6,1.7,2.5,2.5l0,0C517.8,311.9,517.9,312.1,518,312.2z"/>
<path class="st0" d="M513.8,307.6c-0.3,0.9-0.6,2-0.9,3.1c-1.1-1-2-2.4-2.4-3.9v0c0.4-0.5,0.9-1,1.3-1.5
	C512.5,306.1,513.2,306.9,513.8,307.6z"/>
<path class="st0" d="M523.5,306.6c-1.4,1.2-2.9,2.7-4.3,4.3c-0.6-0.5-1.2-1-1.8-1.6c0-1.3,0.2-2.6,0.6-3.9
	C519.7,306.1,521.9,306.5,523.5,306.6z"/>
<path class="st0" d="M515.5,303.8c-0.4,0.7-0.8,1.6-1.2,2.5c-0.6-0.6-1.1-1.3-1.6-1.9c0.5-0.6,1-1.3,1.5-1.9
	C514.6,302.9,515,303.3,515.5,303.8z"/>
<path class="st0" d="M517.9,305.4c-0.4,1.3-0.6,2.6-0.6,3.9c-1.1-1-2.1-2-3-3c0.4-1,0.8-1.8,1.2-2.5c0.3,0.3,0.6,0.6,1,0.8
	C516.9,304.9,517.4,305.2,517.9,305.4z"/>
<path class="st0" d="M521.4,299.1c-1.3,0.1-3.8,0.8-5.9,4.7c-0.5-0.4-0.9-0.9-1.3-1.3c1.2-1.5,2.2-2.9,3.1-4.3c0.3,0,0.6,0,0.9,0
	C519.3,298.3,520.4,298.6,521.4,299.1z"/>
<path class="st0" d="M525.6,305c-0.7,0.5-1.4,1-2.1,1.6c-1.6-0.1-3.8-0.5-5.6-1.2c0.1-0.3,0.2-0.5,0.3-0.8c0.7-2.1,3.6-3.6,5.1-4.3
	C524.7,301.5,525.6,303.1,525.6,305z"/>
<path class="st0" d="M523.3,300.3c-1.4,0.6-4.3,2.2-5.1,4.3c-0.1,0.3-0.2,0.5-0.3,0.8c-0.5-0.2-1-0.5-1.5-0.8
	c-0.4-0.3-0.7-0.5-1-0.8c2.2-3.9,4.6-4.6,5.9-4.7h0C522.1,299.4,522.7,299.8,523.3,300.3z"/>
</svg>
