<?xml version="1.0" encoding="utf-8"?>
<!-- Generator: Adobe Illustrator 25.2.0, SVG Export Plug-In . SVG Version: 6.00 Build 0)  -->
<svg version="1.1" baseProfile="tiny" id="Layer_1" xmlns="http://www.w3.org/2000/svg" xmlns:xlink="http://www.w3.org/1999/xlink"
	 x="0px" y="0px" viewBox="0 0 1000 1000" overflow="visible" xml:space="preserve">
<path fill="#FFFFFF" stroke="#000000" stroke-miterlimit="10" d="M473.65,184.7c-0.3,0.45-0.69,0.93-1.13,1.46h-0.01
	c-6.23,7.35-24.92,22.97-8.74,52.49c-1.96,0.35-3.91,0.88-5.76,1.66c-13.08-16.6-6.75-35.83-4.97-40.36c0-0.01,0.01-0.01,0.01-0.02
	C457.37,194.48,465.18,186.19,473.65,184.7z"/>
<path fill="#FFFFFF" stroke="#000000" stroke-miterlimit="10" d="M488.38,181.14c-0.64,1.2-2.35,3.12-4.44,5.83h-0.01
	c-6.49,8.42-16.72,24.54-10.54,51.09c-3.03-0.06-6.35,0.02-9.62,0.59c-16.18-29.52,2.51-45.14,8.74-52.49h0.01
	C476.37,184.38,482.7,181.82,488.38,181.14z"/>
<path fill="#FFFFFF" stroke="#000000" stroke-miterlimit="10" d="M518.14,181.14c0,0-1.04,0.08-2.75,0.34h-0.01
	c-5.42,0.8-17.6,3.31-25.04,10.35c-9.36,8.86-12.38,36.84-11.16,46.45c-1.71-0.06-3.68-0.18-5.79-0.22
	c-6.18-26.55,4.05-42.67,10.54-51.09h0.01c4.76-2.53,13.47-6.6,21.01-7.08C516,179.18,518.14,181.14,518.14,181.14z"/>
<path fill="#FFFFFF" stroke="#000000" stroke-miterlimit="10" d="M548.14,183.04c0,0.4-5.06,0.28-11.66,0.82h-0.04
	c-6.91,0.57-15.49,1.9-21.68,5.36c-11.98,6.69-25.69,22.58-23.26,46.92c-2.74,0.84-5.53,1.62-7.66,2.03
	c-1.11,0.21-2.72,0.19-4.66,0.11c-1.22-9.61,1.8-37.59,11.16-46.45c7.44-7.04,19.62-9.55,25.04-10.35h0.01
	c3.19,0.55,9.58,1.56,13.39,1.56C534,183.04,548.14,182.21,548.14,183.04z"/>
<path fill="#FFFFFF" stroke="#000000" stroke-miterlimit="10" d="M592.75,209.58c-0.74-0.67-7.08-6.27-18.11-10.62
	c-11.76-4.63-33.51-5.53-46.69,0c-12.35,5.17-20.61,23.48-19.79,32.22c-2.75,0.38-5.09,0.94-6.77,1.64c0,0-4.84,1.76-9.89,3.32
	c-2.43-24.34,11.28-40.23,23.26-46.92c6.19-3.46,14.77-4.79,21.68-5.36h0.04c8.87,0.42,20.29,1.71,28.71,5.3
	C580.4,195.65,591.85,208.54,592.75,209.58z"/>
<path fill="#FFFFFF" stroke="#000000" stroke-miterlimit="10" d="M592.8,209.63c-1.7-0.77-3.38-1.44-5.07-2l-0.01-0.01
	c-32.5-10.89-63.38,17.33-69.42,22.99c-3.63-0.06-7.13,0.15-10.14,0.57c-0.82-8.74,7.44-27.05,19.79-32.22
	c13.18-5.53,34.93-4.63,46.69,0c11.03,4.35,17.37,9.95,18.11,10.62C592.77,209.6,592.79,209.62,592.8,209.63z"/>
<path fill="#FFFFFF" stroke="#000000" stroke-miterlimit="10" d="M603.33,225.51c-1.16-1-3.07-1.86-5.53-2.53
	c-13.61-3.71-44.1-1.77-58.51,11.85c-5.41-2.86-13.47-4.11-20.99-4.22c6.04-5.66,36.92-33.88,69.42-22.99l0.01,0.01
	C592.12,210.88,599.4,217.17,603.33,225.51z"/>
<path fill="#FFFFFF" stroke="#000000" stroke-miterlimit="10" d="M604.22,238.17c-0.74-0.49-1.72-0.92-2.9-1.3
	c-11.45-3.65-41.65-1.86-53.61,6.96c-1.37-2.12-2.74-4.07-4.08-5.66c-1.09-1.29-2.57-2.4-4.34-3.34
	c14.41-13.62,44.9-15.56,58.51-11.85C598.91,225.18,600.85,229.53,604.22,238.17z"/>
<path fill="#FFFFFF" stroke="#000000" stroke-miterlimit="10" d="M458.01,240.31c-3.78,1.58-7.17,4.22-9.55,8.55
	c-8.38,15.24-7.6,34.46-7.6,34.46s-0.26-1.15-0.67-3.15c-2.03-10.02-7.57-41.49-1.24-59.11c7.61-21.15,14.5-22.1,14.5-22.1
	s-0.16,0.34-0.4,0.97c0,0.01-0.01,0.01-0.01,0.02C451.26,204.48,444.93,223.71,458.01,240.31z"/>
<path fill="#FFFFFF" stroke="#000000" stroke-miterlimit="10" d="M606.9,280.58c-9.98-13.01-47.05-13.54-47.05-13.54s0,0-0.01-0.01
	c-0.21-0.5-6-13.64-12.13-23.2c11.96-8.82,42.16-10.61,53.61-6.96C603.08,241.66,607.03,255.24,606.9,280.58z"/>
<path fill="#FFFFFF" stroke="#000000" stroke-miterlimit="10" d="M613.63,312.32c-4.06,0.04-16.36-2.54-37.39-2.44
	c1.58,7.39,2.26,14.75,1.25,21.14c-3.92,24.77-22.1,37.07-29.76,40.63c-12.3-6.59-15.75-17.4-18.72-22.16
	c-2.97-4.75-4.99-7.01-16.87-9.14c-7.72-1.39-15.99,0.83-20.84,2.55c-2.61,0.93-4.23,1.72-4.23,1.72s-0.61,0.39-1.57,1.02
	c-3.16,2.05-10.17,6.69-12.09,8.61c-2.49,2.49-1.34,18.2,0,31.57c-4.77-2.93-9.1-9.93-12.3-16.97c0.47,7.51,2.26,24.32,8.91,33.28
	c6.55,8.82,12.4,14.13,16.87,17.22c0.64,0.44,1.26,0.84,1.84,1.19c0.77,0.47,1.49,0.86,2.15,1.19c0.53-4.63,6.06-1.96,15.32,0
	c9.09-1.78,11.23-4.63,11.23-4.63s5.88,3.03,12.65,0.71c1.08-0.37,2.6-0.94,4.46-1.71v-0.01c9.8-4.06,28.91-13.66,41.35-28.04
	c14.79-17.11,19.42-47.05,19.42-47.05s6.6,34.93,6.6,35.82c4.03-1.58,10.78,13.32,10.97,13.76c0,0,0,0,0.01,0.01
	c0,0-2.43-17.87-4.93-21.79C613.06,362.52,619.93,332.13,613.63,312.32z M530.44,385.2c0,0-15.15,0.89-18.36-0.18
	c-3.2-1.07-14.88-0.54-14.88-0.54s-3.92,2.41-9.71,10.07c-7.31-7.04-9.18-22.36-7.93-29.94c0.39-2.36,1.92-4.37,3.84-6.02
	c4.22-3.62,10.33-5.47,10.33-5.47c13.18-2.66,20.49,3.2,25.83,10.65c0.56,0.77,1.09,1.56,1.61,2.36c3.52,5.43,7.72,10.66,9.27,14.43
	C531.45,383.03,530.46,385.23,530.44,385.2z"/>
<path fill="#FFFFFF" stroke="#000000" stroke-miterlimit="10" d="M614.19,306.4c-0.72-0.18-1.51-0.38-2.37-0.59
	c-8.47-2.1-23.34-5.62-39.02-8.55c-17.93-3.33-36.91-5.9-48.6-4.68c-21.69,2.26-48.19,9.28-59.21,12.99
	c-3.49,0.34-7.11,0.69-10.48,1.02c9.22-4.91,26.53-13.17,33.87-14.31c10.22-1.6,16.48-0.06,33.07-4.03
	c14.99-3.6,33.43-7.06,45.47-6.45c1.28,0.06,2.49,0.17,3.62,0.33c7.81,1.11,26.82,6.9,38.59,10.62c0.73,0.23,1.43,0.45,2.1,0.67
	c0.1,2.18,0.18,4.02,0.3,4.81C611.73,299.52,613.17,303.16,614.19,306.4z"/>
<path fill="#FFFFFF" stroke="#000000" stroke-miterlimit="10" d="M473.41,354.25c-2.49,2.49-1.34,18.2,0,31.57
	c-4.77-2.93-9.1-9.93-12.3-16.97c-2.37-5.19-4.12-10.41-4.99-14.04c-2.05-8.55-7.75-15.59-9.8-18.36c0,0,17.82-11.79,22.63-13.69
	c1.84-0.73,4.91-2.01,8.42-3.38c-1.87,4.11-4.75,10.51-4.91,11.46c-0.24,1.43,3.62,10.47,13.04,14.8
	C482.34,347.69,475.33,352.33,473.41,354.25z"/>
<path fill="#FFFFFF" stroke="#000000" stroke-miterlimit="10" d="M559.84,267.03c-0.21-0.04-7.11-1.6-17.99-1.6
	c-11.05,0-46.52,11.41-53.47,11.95c-6.95,0.53-21.03,3.74-26.79,5.16c-5.29,1.31-16,2.63-20.39,3.93l-1.01-6.3
	c0.41,2,0.67,3.15,0.67,3.15s-0.78-19.22,7.6-34.46c2.38-4.33,5.77-6.97,9.55-8.55c1.85-0.78,3.8-1.31,5.76-1.66
	c3.27-0.57,6.59-0.65,9.62-0.59c2.11,0.04,4.08,0.16,5.79,0.22c1.94,0.08,3.55,0.1,4.66-0.11c2.13-0.41,4.92-1.19,7.66-2.03
	c5.05-1.56,9.89-3.32,9.89-3.32c1.68-0.7,4.02-1.26,6.77-1.64c3.01-0.42,6.51-0.63,10.14-0.57c7.52,0.11,15.58,1.36,20.99,4.22
	c1.77,0.94,3.25,2.05,4.34,3.34c1.34,1.59,2.71,3.54,4.08,5.66C553.84,253.39,559.63,266.53,559.84,267.03z"/>
<path fill="#FFFFFF" stroke="#000000" stroke-miterlimit="10" d="M615.25,311.35c-0.02,0.25-0.07,0.45-0.16,0.6
	c-0.16,0.25-0.64,0.36-1.46,0.37c-4.06,0.04-16.36-2.54-37.39-2.44c-2.11,0-4.3,0.04-6.59,0.11c-29.59,0.89-67.49,2.79-75.09,3.98
	c-1.71,0.27-3.69,0.76-5.8,1.39c-3.7,1.1-7.78,2.6-11.39,4.02c-3.51,1.37-6.58,2.65-8.42,3.38c-4.81,1.9-22.63,13.69-22.63,13.69
	s0-0.01-0.01-0.01c-0.3-0.09-5.32-1.84-4.8-10.01c0,0,1.12-0.72,2.84-1.77c4.16-2.56,11.82-7.07,15.52-8.08
	c3.81-1.04,17.24-8.56,24.22-12.56h0.01c9.58-0.56,19.64-0.89,26.62-0.74c6.4,0.13,37.5,1.42,64.8,3.46
	c15.51,1.15,29.8,2.56,37.62,4.14C613.91,311.03,614.61,311.19,615.25,311.35z"/>
<path fill="#FFFFFF" stroke="#000000" stroke-miterlimit="10" d="M611.23,293.42c-0.67-0.22-1.37-0.44-2.1-0.67
	c-11.77-3.72-30.78-9.51-38.59-10.62c-1.13-0.16-2.34-0.27-3.62-0.33c-12.04-0.61-30.48,2.85-45.47,6.45
	c-16.59,3.97-22.85,2.43-33.07,4.03c-7.34,1.14-24.65,9.4-33.87,14.31c-0.01,0-0.01,0.01-0.02,0.01c-1.77,0.17-3.46,0.34-5.02,0.5
	c-2.68,0.27-4.99,0.5-6.63,0.67c-1.67,0.16-2.65,0.26-2.65,0.26s-2.78-4.46-1.89-6.6c1.12,0.3,2.48,0.01,4.02-0.54
	c2.14-0.76,4.61-2.01,7.21-2.84c4.45-1.43,4.1-0.54,10.69-1.96c6.6-1.43,29.59-10.87,43.13-11.94c13.55-1.07,24.95-5.53,32.08-8.2
	c3.22-1.2,14.92-1.44,28.81-0.11c14.54,1.39,31.47,4.51,43.58,10.03c1.07,0.48,2.1,0.99,3.08,1.51
	C611.05,289.32,611.15,291.5,611.23,293.42z"/>
<path fill="#FFFFFF" stroke="#000000" stroke-miterlimit="10" d="M610.9,287.38c-0.98-0.52-2.01-1.03-3.08-1.51
	c-12.11-5.52-29.04-8.64-43.58-10.03c-13.89-1.33-25.59-1.09-28.81,0.11c-7.13,2.67-18.53,7.13-32.08,8.2
	c-13.54,1.07-36.53,10.51-43.13,11.94c-6.59,1.42-6.24,0.53-10.69,1.96c-2.6,0.83-5.07,2.08-7.21,2.84
	c-1.54,0.55-2.9,0.84-4.02,0.54c-2.32-3.74-1.57-13.18,1.89-14.61c0.28-0.12,0.62-0.23,1.01-0.35c4.39-1.3,15.1-2.62,20.39-3.93
	c5.76-1.42,19.84-4.63,26.79-5.16c6.95-0.54,42.42-11.95,53.47-11.95c10.88,0,17.78,1.56,17.99,1.6c0.01,0.01,0.01,0.01,0.01,0.01
	s37.07,0.53,47.05,13.54c0,0,2.13-0.35,3.2,1.79C610.48,283.13,610.73,285.08,610.9,287.38z"/>
<path fill="#FFFFFF" stroke="#000000" stroke-miterlimit="10" d="M484.09,304.02c-6.98,4-20.41,11.52-24.22,12.56
	c-3.7,1.01-11.36,5.52-15.52,8.08c-1.72,1.05-2.84,1.77-2.84,1.77c-2.85-4.32-1.32-18.4-1.32-18.4s0.98-0.1,2.65-0.26
	c1.64-0.17,3.95-0.4,6.63-0.67c1.56-0.16,3.25-0.33,5.02-0.5c0.01,0,0.01-0.01,0.02-0.01c3.37-0.33,6.99-0.68,10.48-1.02
	c1.35-0.13,2.68-0.26,3.96-0.39C473.4,304.75,478.67,304.35,484.09,304.02z"/>
<path fill="#FFFFFF" stroke="#000000" stroke-miterlimit="10" d="M615.25,311.35c-0.64-0.16-1.34-0.32-2.11-0.47
	c-7.82-1.58-22.11-2.99-37.62-4.14c-27.3-2.04-58.4-3.33-64.8-3.46c-6.98-0.15-17.04,0.18-26.62,0.74h-0.01
	c-5.42,0.33-10.69,0.73-15.14,1.16c-1.28,0.13-2.61,0.26-3.96,0.39c11.02-3.71,37.52-10.73,59.21-12.99
	c11.69-1.22,30.67,1.35,48.6,4.68c15.68,2.93,30.55,6.45,39.02,8.55c0.86,0.21,1.65,0.41,2.37,0.59
	C614.84,308.44,615.33,310.31,615.25,311.35z"/>
<path fill="#FFFFFF" stroke="#000000" stroke-miterlimit="10" d="M504.54,330.25c-0.24,3.2-4.28,2.37-10.22,4.63
	c-4.76,1.81-3.65,6.3-3.02,8.02c-2.61,0.93-4.23,1.72-4.23,1.72s-0.61,0.39-1.57,1.02c-9.42-4.33-13.28-13.37-13.04-14.8
	c0.16-0.95,3.04-7.35,4.91-11.46c3.61-1.42,7.69-2.92,11.39-4.02C491.58,323.16,504.77,327.21,504.54,330.25z"/>
<path fill="#FFFFFF" stroke="#000000" stroke-miterlimit="10" d="M577.49,331.02c-3.92,24.77-22.1,37.07-29.76,40.63
	c-12.3-6.59-15.75-17.4-18.72-22.16c-2.97-4.75-4.99-7.01-16.87-9.14c-7.72-1.39-15.99,0.83-20.84,2.55
	c-0.63-1.72-1.74-6.21,3.02-8.02c5.94-2.26,9.98-1.43,10.22-4.63c0.23-3.04-12.96-7.09-15.78-14.89c2.11-0.63,4.09-1.12,5.8-1.39
	c7.6-1.19,45.5-3.09,75.09-3.98c2.29-0.07,4.48-0.11,6.59-0.11C577.82,317.27,578.5,324.63,577.49,331.02z"/>
<path fill="#FFFFFF" stroke="#000000" stroke-miterlimit="10" d="M530.44,385.2c0,0-15.15,0.89-18.36-0.18
	c-3.2-1.07-14.88-0.54-14.88-0.54s-3.92,2.41-9.71,10.07c-7.31-7.04-9.18-22.36-7.93-29.94c0.39-2.36,1.92-4.37,3.84-6.02
	c-0.16,2.84-0.33,7.45-0.06,10.08c-0.15,0.25-0.28,0.48-0.4,0.7c-0.42,0.76-0.71,1.35-0.8,1.57c0,0,0.61-0.05,1.59-0.2h0.01
	c0.53,2.04,2.4,8,6.16,9.11c4.54,1.34,5.78-2.76,10.95-2.23c5.05,0.53,16.82-0.4,14.96-11.74c2.07-0.76,3.75-2.11,3.75-2.11
	c0.56,0.77,1.09,1.56,1.61,2.36c3.52,5.43,7.72,10.66,9.27,14.43C531.45,383.03,530.46,385.23,530.44,385.2z"/>
<path fill="#FFFFFF" stroke="#000000" stroke-miterlimit="10" d="M500.85,377.62c-5.17-0.53-6.41,3.57-10.95,2.23
	c-3.76-1.11-5.63-7.07-6.16-9.11c0.14-0.02,0.29-0.05,0.44-0.07c1.5-0.23,3.65-0.65,5.8-1.33c3.93-1.25,9.44-2.32,10.87-2.14
	c1.43,0.18,10.88-0.41,13.55-0.92c0.48-0.09,0.95-0.23,1.41-0.4C517.67,377.22,505.9,378.15,500.85,377.62z"/>
<path fill="#FFFFFF" stroke="#000000" stroke-miterlimit="10" d="M519.56,363.77c-2.15-0.4-8.37-3.17-12.64-1.74
	c-4.28,1.42-16.22,1.25-18.54,1.25c-1.57,0-3.72,3.11-5.04,5.39c-0.27-2.63-0.1-7.24,0.06-10.08c4.22-3.62,10.33-5.47,10.33-5.47
	C506.91,350.46,514.22,356.32,519.56,363.77z"/>
<path fill="#FFFFFF" stroke="#000000" stroke-miterlimit="10" d="M519.56,363.77c0,0-1.68,1.35-3.75,2.11
	c-0.46,0.17-0.93,0.31-1.41,0.4c-2.67,0.51-12.12,1.1-13.55,0.92c-1.43-0.18-6.94,0.89-10.87,2.14c-2.15,0.68-4.3,1.1-5.8,1.33
	c-0.15,0.02-0.3,0.05-0.44,0.07h-0.01c-0.98,0.15-1.59,0.2-1.59,0.2c0.09-0.22,0.38-0.81,0.8-1.57c0.12-0.22,0.25-0.45,0.4-0.7
	c1.32-2.28,3.47-5.39,5.04-5.39c2.32,0,14.26,0.17,18.54-1.25C511.19,360.6,517.41,363.37,519.56,363.77z"/>
<path fill="#FFFFFF" stroke="#000000" stroke-miterlimit="10" d="M601.91,376.82c-22.35,17.67-49.76,31.8-67.45,39.52l0.08-0.24
	v-0.01c9.8-4.06,28.91-13.66,41.35-28.04c14.79-17.11,19.42-47.05,19.42-47.05S601.91,375.93,601.91,376.82z"/>
<path fill="#FFFFFF" stroke="#000000" stroke-miterlimit="10" d="M534.54,416.1l-0.08,0.24c-8,3.49-14.01,5.67-16.67,6.28
	c-0.93,0.26-2,0.49-3.17,0.69c-9.41,1.67-25.35,1.81-25.35,1.81l-0.13-1.07l-0.41-3.51c0.77,0.47,1.49,0.86,2.15,1.19
	c0.53-4.63,6.06-1.96,15.32,0c9.09-1.78,11.23-4.63,11.23-4.63s5.88,3.03,12.65,0.71C531.16,417.44,532.68,416.87,534.54,416.1z"/>
<path fill="#FFFFFF" stroke="#000000" stroke-miterlimit="10" d="M514.62,423.31c-0.26,1.34-0.92,3.72-2.54,7.87
	c-0.73,1.87-1.74,3.69-2.95,5.42v0.01c-3.73,5.36-9.29,9.85-13.92,12.04c-0.26,0.13-0.52,0.24-0.77,0.35
	c-0.71-4.1-4.63-14.61-6.06-19.6c-0.76-2.65-0.06-4.35,0.76-5.35l0.13,1.07C489.27,425.12,505.21,424.98,514.62,423.31z"/>
<path fill="#FFFFFF" stroke="#000000" stroke-miterlimit="10" d="M509.13,436.61c-0.79,4.75-1.69,10.82-2.05,13.26
	c-0.1,0.69-0.16,1.09-0.16,1.09l-3.39,2.85c0,0-5.7,16.04-8.2,21.21c0.1-1.53,0.08-3.14,0-4.69v-0.01
	c-0.22-4.23-0.89-7.95-0.89-7.95l0.01-0.17l0.76-13.55C499.84,446.46,505.4,441.97,509.13,436.61z"/>
<path fill="#FFFFFF" stroke="#000000" stroke-miterlimit="10" d="M618.48,400.97c0,0-55,25.1-65.1,31.75
	c-10.14,4.31-18.98,7.74-26.25,10.39l1.05-6.93l0.28-0.9h0.01l84.13-45.09c0,0,0.1,0.14,0.28,0.39c0,0,0,0,0.01,0.01
	C614.09,392.25,618.64,398.73,618.48,400.97z"/>
<path fill="#FFFFFF" stroke="#000000" stroke-miterlimit="10" d="M625.07,407.12c0,0-37.78,11.05-69.32,24.59
	c-0.8,0.34-1.59,0.68-2.37,1.01c10.1-6.65,65.1-31.75,65.1-31.75C620.44,401.06,625.07,407.12,625.07,407.12z"/>
<path fill="#FFFFFF" stroke="#000000" stroke-miterlimit="10" d="M612.88,390.58c-0.18-0.25-0.28-0.39-0.28-0.39l-84.13,45.09
	l5.99-18.94c17.69-7.72,45.1-21.85,67.45-39.52C605.94,375.24,612.69,390.14,612.88,390.58z"/>
<path fill="#FFFFFF" stroke="#000000" stroke-miterlimit="10" d="M534.46,416.34l-5.99,18.94h-0.01l-0.16,0.09l-0.12,0.81
	l-1.05,6.93c-9.69,3.55-16.58,5.72-20.05,6.76c0.36-2.44,1.26-8.51,2.05-13.26v-0.01c1.21-1.73,2.22-3.55,2.95-5.42
	c1.62-4.15,2.28-6.53,2.54-7.87c1.17-0.2,2.24-0.43,3.17-0.69C520.45,422.01,526.46,419.83,534.46,416.34z"/>
<path fill="#FFFFFF" stroke="#000000" stroke-miterlimit="10" d="M704.24,527.36c-3.86-4.11-7.77-7.13-11.47-9.34v-0.01h-0.01
	c-1.97-4.21-5.44-10.81-10.43-17.61c-0.03-0.04-0.06-0.08-0.09-0.14c0,0,0,0-0.01-0.01c-0.29-0.51-0.8-1.78-1.54-3.57
	c-1.53-3.7-4.02-9.63-7.57-15.74c-3.85-6.62-8.96-13.44-15.43-17.86c-15.69-10.69-32.44-23.88-60.6-22.1
	c-28.15,1.78-60.95,20.67-86.79,49.19c-13.67,15.08-23.09,26.5-29.06,48.2c-3.47,4.91-6.18,8.8-7.91,11.11
	c0.9-2.55,1.93-5.91,2.69-9.77c1.65-8.33,17.35-32.08,18.42-35.88c1.07-3.8-7.96-10.69-8.91-10.69c-0.79,0,7.1-17.03,9.8-22.81
	c0.08,1.55,0.1,3.16,0,4.69c2.5-5.17,8.2-21.21,8.2-21.21l3.39-2.85c0,0,0.06-0.4,0.16-1.09c3.47-1.04,10.36-3.21,20.05-6.76
	c7.27-2.65,16.11-6.08,26.25-10.39c0.78-0.33,1.57-0.67,2.37-1.01c31.54-13.54,69.32-24.59,69.32-24.59s6.24-2.68,8.74,2.67
	c2.49,5.35,7.13,26.56,23.88,42.95c16.75,16.4,31.36,44.91,37.42,54.54C698.7,512.98,702.04,521.3,704.24,527.36z"/>
<path fill="#FFFFFF" stroke="#000000" stroke-miterlimit="10" d="M665.97,517.73c0,0,3.59,3.79,8.16,8.98c0,0-14.56-0.48-35.28,0.41
	c-28.45,1.22-68.53,5.03-98.48,16.23c7.16-9.72,15.55-20.45,24.44-29.78c0.96-1,1.92-2,2.91-3c27.26-10.84,75.32-25.36,111.33-14.41
	c1.12,1.36,2.18,2.73,3.18,4.09c0.01,0.01,0.01,0.01,0.01,0.01c0.03,0.06,0.06,0.1,0.09,0.14c4.99,6.8,8.46,13.4,10.43,17.61
	c-11.59-6.96-21.17-6.1-21.17-6.1L665.97,517.73z"/>
<path fill="#FFFFFF" stroke="#000000" stroke-miterlimit="10" d="M679.05,496.16c-36.01-10.95-84.07,3.57-111.33,14.41
	c20.77-21.2,46.19-40.49,77.85-35.55C659.9,477.26,671.03,486.44,679.05,496.16z"/>
<path fill="#FFFFFF" stroke="#000000" stroke-miterlimit="10" d="M736.94,572.03l-1.43,0.36c0,0-0.12,2.73-1.43,5.58
	c-0.94-1.16-2.03-2.33-3.23-3.52c-8.92-8.81-23.83-17.82-28.55-20.58c-8.98-15.63-24.03-34.01-29.04-39.98
	c-1.06-1.27-1.67-1.98-1.67-1.98s9.58-0.86,21.17,6.1h0.01v0.01c3.7,2.21,7.61,5.23,11.47,9.34c1.49,1.57,2.96,3.31,4.42,5.22
	l9.77,18.43l1.46,2.76c0.69,0.16,1.59,0.42,2.65,0.84C731.68,563.19,736.94,572.03,736.94,572.03z"/>
<path fill="#FFFFFF" stroke="#000000" stroke-miterlimit="10" d="M741.81,595.14c0,0-25.31-25.49-33.15-27.09
	c-1.04-4.04-3.36-8.96-6.36-14.18c4.72,2.76,19.63,11.77,28.55,20.58L741.81,595.14z"/>
<path fill="#FFFFFF" stroke="#000000" stroke-miterlimit="10" d="M518.32,635.71l-71.97,38.08c8.49-13.75,19.07-30.92,26.54-43.15
	c4.96-8.1,8.54-14.03,9.25-15.36c1.31-2.45,8.41-11.08,16.16-20.09C505.78,607.37,518.32,635.71,518.32,635.71z"/>
<path fill="#FFFFFF" stroke="#000000" stroke-miterlimit="10" d="M680.69,496.68c-0.54-0.19-1.09-0.36-1.64-0.52
	c-8.02-9.72-19.15-18.9-33.48-21.14c-31.66-4.94-57.08,14.35-77.85,35.55c-0.99,1-1.95,2-2.91,3c-8.89,9.33-17.28,20.06-24.44,29.78
	v0.01h-0.01c-9.99,13.57-17.58,25.15-20.8,28.19c-1.87,1.78-6.45,6.77-11.8,12.79c-3.02,3.42-6.3,7.17-9.46,10.85
	c-7.75,9.01-14.85,17.64-16.16,20.09c-0.71,1.33-4.29,7.26-9.25,15.36c0.14-14.38,0.49-26.96,1.08-38.05v-0.01
	c10.98-22.97,41.12-77.04,79.41-107.76c36.21-29.04,69.05-31.71,97.69-18.09c7.65,3.63,15.01,8.43,22.05,14.21
	C676.67,487.05,679.16,492.98,680.69,496.68z"/>
<path fill="#FFFFFF" stroke="#000000" stroke-miterlimit="10" d="M673.12,480.94c-7.04-5.78-14.4-10.58-22.05-14.21
	c-31.98-23.1-50.59-20.6-86.26-10.78c-30.39,8.37-66.36,58.04-83.57,82.42c5.97-21.7,15.39-33.12,29.06-48.2
	c25.84-28.52,58.64-47.41,86.79-49.19c28.16-1.78,44.91,11.41,60.6,22.1C664.16,467.5,669.27,474.32,673.12,480.94z"/>
<path fill="#FFFFFF" stroke="#000000" stroke-miterlimit="10" d="M651.07,466.73c-28.64-13.62-61.48-10.95-97.69,18.09
	c-38.29,30.72-68.43,84.79-79.41,107.76c1.26-23.97,3.63-41,7.27-54.21c17.21-24.38,53.18-74.05,83.57-82.42
	C600.48,446.13,619.09,443.63,651.07,466.73z"/>
<path fill="#FFFFFF" stroke="#000000" stroke-miterlimit="10" d="M476.02,539.71c-0.76,3.86-1.79,7.22-2.69,9.77
	c1.73-2.31,4.44-6.2,7.91-11.11c-3.64,13.21-6.01,30.24-7.27,54.21v0.01c-0.59,11.09-0.94,23.67-1.08,38.05
	c-7.47,12.23-18.05,29.4-26.54,43.15l-0.01,0.01l-1.48,0.78c-20.04-17.65-29.22-39.02-32-60.08c3.83-15.47,9.73-33.43,14.01-45.84
	c0,0,0.01-0.01,0.01-0.02c5.53-7.43,11.44-17.06,14.21-26.55c4.99-17.11,11.65-17.11,18.78-21.86c3.27-2.18,8.95-8.07,14.12-13.8
	c6.11-6.75,11.54-13.29,11.54-13.29c0.95,0,9.98,6.89,8.91,10.69C493.37,507.63,477.67,531.38,476.02,539.71z"/>
<path fill="#FFFFFF" stroke="#000000" stroke-miterlimit="10" d="M495.33,470.33c-2.7,5.78-10.59,22.81-9.8,22.81
	c0,0-5.43,6.54-11.54,13.29l0.85-17.33l1.18-18.34l18.43-8.56l-0.01,0.17C494.44,462.37,495.11,466.09,495.33,470.33L495.33,470.33z
	"/>
<path fill="#FFFFFF" stroke="#000000" stroke-miterlimit="10" d="M474.84,489.1l-0.85,17.33c-5.17,5.73-10.85,11.62-14.12,13.8
	c-7.13,4.75-13.79,4.75-18.78,21.86c-2.77,9.49-8.68,19.12-14.21,26.55c0,0.01-0.01,0.02-0.01,0.02
	c-4.28,12.41-10.18,30.37-14.01,45.84c-1.36-10.19-1.21-20.31-0.07-29.9c-7.92,8.89-24.21,29.25-24.21,29.25
	c-0.48-1.42,32.32-78.12,32.32-78.12s8.07-12.18,16.07-21.68C444.96,499.32,474.84,489.1,474.84,489.1z"/>
<path fill="#FFFFFF" stroke="#000000" stroke-miterlimit="10" d="M623.74,720.03c-0.31,2.14-0.64,4.22-0.97,6.16
	c-0.88,5.08-1.82,9.23-2.75,11.23c-1.55,3.33-2.38,9.47-2.83,15.06c-85.77,1.84-126.38-19.38-163.52-41.67
	c-4.22-2.54-8.39-5.08-12.58-7.61c-3.97-2.4-7.65-5.11-11.07-8.06c-5.68-4.92-10.62-10.5-14.9-16.38
	c-10.12-13.87-16.6-29.36-20.62-41.75v-0.05c-2.11-6.5-3.54-12.13-4.47-16.21c-0.94-4.09-1.36-6.62-1.45-6.9
	c0,0,16.29-20.36,24.21-29.25c-1.14,9.59-1.29,19.71,0.07,29.9c2.78,21.06,11.96,42.43,32,60.08c0.22,0.2,0.43,0.39,0.65,0.58
	c7.51,6.51,16.52,12.5,27.26,17.77c5.8,2.85,12.1,5.49,18.94,7.89c57.44,20.12,110.09,20.25,131.29,19.24
	C623.25,720.05,623.5,720.04,623.74,720.03z"/>
<path fill="#FFFFFF" stroke="#000000" stroke-miterlimit="10" d="M619.76,684.64c-46.58-1.78-84.86-20.89-84.86-20.89l-62.13,29.18
	c-10.74-5.27-19.75-11.26-27.26-17.77c0.28-0.45,0.56-0.9,0.83-1.36l0.01-0.01l71.97-38.08c0,0-12.54-28.34-20.02-40.52
	c3.16-3.68,6.44-7.43,9.46-10.85c6.11,14.3,21.64,47.51,37.38,55.65c11.87,6.13,29.35,10.3,41.77,12.7
	C594.17,661.08,609.21,676.63,619.76,684.64z"/>
<path fill="#FFFFFF" stroke="#000000" stroke-miterlimit="10" d="M627.63,689.42c-0.26,1.65-0.68,5.32-1.22,9.96
	c-0.01,0.02-0.01,0.04-0.01,0.06c0,0.01,0,0.01,0,0.02c-0.01,0.02-0.01,0.03-0.01,0.03c-0.68,5.81-1.56,13.1-2.54,19.82
	c-0.36,0.32-0.65,0.57-0.85,0.75c-21.2,1.01-73.85,0.88-131.29-19.24c-6.84-2.4-13.14-5.04-18.94-7.89l62.13-29.18
	c0,0,38.28,19.11,84.86,20.89c2.47,1.89,4.69,3.36,6.51,4.22C626.75,689.09,627.21,689.28,627.63,689.42z"/>
<path fill="#FFFFFF" stroke="#000000" stroke-miterlimit="10" d="M721.48,790.96c-0.93,0.95-1.77,1.6-2.49,1.82
	c-4.63,1.43-5.82,7.37-5.82,7.37l-18.41,5.7c0,0-18.18-17.58-28.79-24.24c-10.6-6.65-35.02,2.85-35.02,2.85l-22.81-2.37l8.56-17.59
	c0,0,0.32-0.6,0.93-1.6c-1.21,4.54-1.1,9.07,5.01,7.54c11.4-2.85,22.81-7.84,24.71-10.69c1.54-2.32,3.36-13.1,3.98-17.06
	c11.38-1.3,23.11-1.47,23.11-1.47l15.21,16.16L721.48,790.96z"/>
<path fill="#FFFFFF" stroke="#000000" stroke-miterlimit="10" d="M738.95,765.97c-1.04,0.74-1.89,1.39-2.49,2.22
	c-2.06,2.83-7.85,13.68-12.65,20.01l-31.63-35.61l-16.79-17.79l-34.93,2.85c0,0-11.44,3.7-21.3,14.78
	c-0.66,0.02-1.32,0.04-1.97,0.05c0.45-5.59,1.28-11.73,2.83-15.06c0.93-2,1.87-6.15,2.75-11.23c2.08-1.73,4.97-4.12,8.01-6.63
	c0.01,0,0.01,0,0.01,0c1.39-1.16,2.82-2.33,4.22-3.48c-2.35,6.15-5.49,14.6-3.1,15.39c3.56,1.19,24,0.24,31.12-9.03
	c4.72-6.13,7.15-12.59,8.25-16.24c10.11,0.27,20.15,1.04,23.48,2.46c7.24,3.09,12.23,17.59,12.23,17.59S724.63,739.17,738.95,765.97
	z"/>
<path fill="#FFFFFF" stroke="#000000" stroke-miterlimit="10" d="M755.61,742.99c-5.41,13.09-10.37,18.19-14.03,21.05
	c-9.41-29.64-26.51-38.98-26.51-38.98s0.24-6.18,0-7.13c-0.23-0.95-8.31-11.17-15.92-16.16c-7.6-4.99-47.52-1.19-52.27,0
	c-4.04,1.01-18.71,13.74-23.03,17.54c0.98-6.72,1.86-14.01,2.54-19.82c0,0,0-0.01,0.01-0.03c0-0.01,0-0.01,0-0.02
	c0-0.02,0-0.04,0.01-0.06c0.14-0.8,1.04-5.96,2.95-13.3c0.54-0.42,1.13-0.88,1.78-1.37c8.23-6.21,24.81-17.1,33.32-18.34
	c0.17-0.02,0.35-0.05,0.53-0.07c-2.98,5.53-9.82,18.33-10.75,20.74c-1.19,3.09,4.28,3.8,13.78,4.51c9.51,0.72,20.38-3.31,26.74-13.9
	c3.63-6.06,5.4-9.1,6.26-10.6c10.74,1.32,20.66,3.72,25.22,7.63c10.64,9.13,10.46,25.56,10.46,25.56L755.61,742.99z"/>
<path fill="#FFFFFF" stroke="#000000" stroke-miterlimit="10" d="M756.78,740.03c-0.39,1.03-0.78,2.02-1.17,2.96l-18.91-42.75
	c0,0,0.18-16.43-10.46-25.56c-4.56-3.91-14.48-6.31-25.22-7.63c-13.92-1.72-29.23-1.64-36.03-0.75c-0.18,0.02-0.36,0.05-0.53,0.07
	c-8.51,1.24-25.09,12.13-33.32,18.34c-0.48,0.02-0.95,0.03-1.43,0.04c0.56-2.1,1.19-4.36,1.91-6.73
	c6.19-4.56,21.43-15.04,33.08-16.88c15.21-1.9,53.94,0,63.44,7.84c9.51,7.84,12.6,30.89,12.6,30.89S752.62,725.77,756.78,740.03z"/>
<path fill="#FFFFFF" stroke="#000000" stroke-miterlimit="10" d="M769.25,720.38c-2.49,6.38-1.42,18.94-1.42,18.94
	s-3.21,1.07-11.05,0.71c-4.16-14.26-16.04-40.16-16.04-40.16s-3.09-23.05-12.6-30.89c-9.5-7.84-48.23-9.74-63.44-7.84
	c-11.65,1.84-26.89,12.32-33.08,16.88c1.61-5.3,3.62-11.16,6.1-17.07c6.6-15.76,16.49-31.86,30.66-38.54
	c0.98-0.46,1.96-0.9,2.95-1.3c1.11,2.67,3.42,8.77,2.87,12.23c-0.71,4.51-8.31,14.57,6.66,15.72c14.97,1.15,30.17,5.66,36.11-7.88
	c3.55-8.08,2.36-17.5,0.82-23.8c10.97,1.98,18.31,5.03,18.31,5.03s11.05,4.63,20.32,10.93c-0.36,20.55,15.33,44.67,17.47,52.87
	c0.08,0.32,0.15,0.65,0.21,1C775.69,695.91,771.65,714.26,769.25,720.38z"/>
<path fill="#FFFFFF" stroke="#000000" stroke-miterlimit="10" d="M716.97,641.18c-5.94,13.54-21.14,9.03-36.11,7.88
	c-14.97-1.15-7.37-11.21-6.66-15.72c0.55-3.46-1.76-9.56-2.87-12.23c16.54-6.82,33.89-5.98,46.46-3.73
	C719.33,623.68,720.52,633.1,716.97,641.18z"/>
<path fill="#FFFFFF" stroke="#000000" stroke-miterlimit="10" d="M701.02,667.05c-0.86,1.5-2.63,4.54-6.26,10.6
	c-6.36,10.59-17.23,14.62-26.74,13.9c-9.5-0.71-14.97-1.42-13.78-4.51c0.93-2.41,7.77-15.21,10.75-20.74
	C671.79,665.41,687.1,665.33,701.02,667.05z"/>
<path fill="#FFFFFF" stroke="#000000" stroke-miterlimit="10" d="M741.58,764.04c-0.98,0.77-1.86,1.37-2.63,1.93
	c-14.32-26.8-31.96-39.72-31.96-39.72s-4.99-14.5-12.23-17.59c-3.33-1.42-13.37-2.19-23.48-2.46c-11.87-0.3-23.83,0.09-25.12,0.93
	c-1,0.66-5.86,4.6-11.15,8.95c-1.4,1.15-2.83,2.32-4.22,3.48c0,0,0,0-0.01,0c-3.04,2.51-5.93,4.9-8.01,6.63
	c0.33-1.94,0.66-4.02,0.97-6.16c0.04-0.24,0.08-0.48,0.11-0.72c4.32-3.8,18.99-16.53,23.03-17.54c4.75-1.19,44.67-4.99,52.27,0
	c7.61,4.99,15.69,15.21,15.92,16.16c0.24,0.95,0,7.13,0,7.13S732.17,734.4,741.58,764.04z"/>
<path fill="#FFFFFF" stroke="#000000" stroke-miterlimit="10" d="M671.28,706.2c-1.1,3.65-3.53,10.11-8.25,16.24
	c-7.12,9.27-27.56,10.22-31.12,9.03c-2.39-0.79,0.75-9.24,3.1-15.39c5.29-4.35,10.15-8.29,11.15-8.95
	C647.45,706.29,659.41,705.9,671.28,706.2z"/>
<path fill="#FFFFFF" stroke="#000000" stroke-miterlimit="10" d="M723.81,788.2c-0.81,1.07-1.6,2.01-2.33,2.76l-31.83-33.58
	l-15.21-16.16c0,0-11.73,0.17-23.11,1.47c-7.43,0.84-14.72,2.17-18.47,4.23c-2.52,1.38-4.84,3.27-6.88,5.3
	c-3.98,3.92-6.93,8.37-8.35,10.68c-0.61,1-0.93,1.6-0.93,1.6s0-4.23,0.32-9.49V755c0.7-0.9,1.42-1.75,2.14-2.57
	c9.86-11.08,21.3-14.78,21.3-14.78l34.93-2.85l16.79,17.79L723.81,788.2z"/>
<path fill="#FFFFFF" stroke="#000000" stroke-miterlimit="10" d="M651.33,742.69c-0.62,3.96-2.44,14.74-3.98,17.06
	c-1.9,2.85-13.31,7.84-24.71,10.69c-6.11,1.53-6.22-3-5.01-7.54c1.42-2.31,4.37-6.76,8.35-10.68c2.04-2.03,4.36-3.92,6.88-5.3
	C636.61,744.86,643.9,743.53,651.33,742.69z"/>
<path fill="#FFFFFF" stroke="#000000" stroke-miterlimit="10" d="M681.23,535.01c-33.71-3.72-87.82,21.74-105.52,50.38
	c-14.37,23.26-6.62,45.49-3.28,55.85c-7.61-6.41-15.93-15-21.36-20.85c-2.94-11.85-4.62-28.6-0.31-42.66
	c5.92-19.35,67.44-43.12,88.09-50.61c20.72-0.89,35.28-0.41,35.28-0.41C676.37,529.24,678.83,532.1,681.23,535.01z"/>
<path fill="#FFFFFF" stroke="#000000" stroke-miterlimit="10" d="M583.91,649.06c0.72,0.95,1.75,2.18,3,3.63
	c-12.42-2.4-29.9-6.57-41.77-12.7c-15.74-8.14-31.27-41.35-37.38-55.65c5.35-6.02,9.93-11.01,11.8-12.79
	c3.22-3.04,10.81-14.62,20.8-28.19h0.01v-0.01c29.95-11.2,70.03-15.01,98.48-16.23c-20.65,7.49-82.17,31.26-88.09,50.61
	c-4.31,14.06-2.63,30.81,0.31,42.66c5.43,5.85,13.75,14.44,21.36,20.85C576.69,644.82,580.72,647.72,583.91,649.06z"/>
<path fill="#FFFFFF" stroke="#000000" stroke-miterlimit="10" d="M774.1,687.21c-0.06-0.35-0.13-0.68-0.21-1
	c-2.14-8.2-17.83-32.32-17.47-52.87c-12.12-14.38-18.37-33.09-18.37-33.09l3.76-5.11l-10.96-20.69c1.2,1.19,2.29,2.36,3.23,3.52
	c1.31-2.85,1.43-5.58,1.43-5.58l1.43-0.36c0,0-5.26-8.84-14.4-17.42c4.47,1.73,11.87,6.24,19.27,17.89
	c11.76,18.54,9.44,21.03,9.44,21.03s20.85,40.28,24.6,58.1C779.59,669.45,781.98,682.51,774.1,687.21z"/>
<path fill="#FFFFFF" stroke="#000000" stroke-miterlimit="10" d="M741.81,595.14l-3.76,5.11l-0.7,0.95l-33.68-26.56l4.99-6.59
	C716.5,569.65,741.81,595.14,741.81,595.14z"/>
<path fill="#FFFFFF" stroke="#000000" stroke-miterlimit="10" d="M708.66,568.05l-4.99,6.59c0,0-3.2-6.93-6.86-14.64
	c-1.53-3.21-3.14-6.56-4.63-9.59c-0.99-2.01-2.58-4.47-4.51-7.13c-1.9-2.64-4.14-5.48-6.44-8.27c-2.4-2.91-4.86-5.77-7.1-8.3
	c-4.57-5.19-8.16-8.98-8.16-8.98l5.62-5.82c0,0,0.61,0.71,1.67,1.98c5.01,5.97,20.06,24.35,29.04,39.98
	C705.3,559.09,707.62,564.01,708.66,568.05z"/>
<path fill="#FFFFFF" stroke="#000000" stroke-miterlimit="10" d="M687.67,543.28c-32.39-5.35-88.08,24.59-101.74,53.46
	c-13.66,28.87-2.02,52.32-2.02,52.32c-3.19-1.34-7.22-4.24-11.48-7.82c-3.34-10.36-11.09-32.59,3.28-55.85
	c17.7-28.64,71.81-54.1,105.52-50.38C683.53,537.8,685.77,540.64,687.67,543.28z"/>
<path fill="#FFFFFF" stroke="#000000" stroke-miterlimit="10" d="M631.05,606.71c-8.76,33.47-3.25,63.56-1.21,72.66
	c0.46-0.36,1.06-0.81,1.78-1.35c-0.72,2.37-1.35,4.63-1.91,6.73c-3.35,0.05-6.67,0.02-9.95-0.11
	c-10.55-8.01-25.59-23.56-32.85-31.95c-1.25-1.45-2.28-2.68-3-3.63c0,0-11.64-23.45,2.02-52.32
	c13.66-28.87,69.35-58.81,101.74-53.46c1.93,2.66,3.52,5.12,4.51,7.13C692.18,550.41,641.14,568.19,631.05,606.71z"/>
<path fill="#FFFFFF" stroke="#000000" stroke-miterlimit="10" d="M696.81,560c-9.01,2.94-42.91,15.88-53.38,46.71
	c-8.9,26.19-7.23,45.72-5.71,54.24c-2.48,5.91-4.49,11.77-6.1,17.07c-0.72,0.54-1.32,0.99-1.78,1.35
	c-2.04-9.1-7.55-39.19,1.21-72.66c10.09-38.52,61.13-56.3,61.13-56.3C693.67,553.44,695.28,556.79,696.81,560z"/>
<path fill="#FFFFFF" stroke="#000000" stroke-miterlimit="10" d="M756.42,633.34c-9.27-6.3-20.32-10.93-20.32-10.93
	s-7.34-3.05-18.31-5.03c-12.57-2.25-29.92-3.09-46.46,3.73c-0.99,0.4-1.97,0.84-2.95,1.3c-14.17,6.68-24.06,22.78-30.66,38.54
	c-1.52-8.52-3.19-28.05,5.71-54.24c10.47-30.83,44.37-43.77,53.38-46.71c3.66,7.71,6.86,14.64,6.86,14.64l33.68,26.56l0.7-0.95
	C738.05,600.25,744.3,618.96,756.42,633.34z"/>
<path fill="#FFFFFF" stroke="#000000" stroke-miterlimit="10" d="M405.19,740.22c-3.3,1.45-6.78,2.66-9.24,2.66
	c-4.45,0-15.58,1.97-24.2,3.97c5.22-20.52-5.63-56.56-6.7-59.34c-1.18-3.08-10.69-10.93-14.25-12.85c-3.07-1.65-26.23-5.2-32.6-6.15
	c7.21-4.46,15.5-9.64,23.04-14.52c10.08,3.24,30.94,10.92,30.94,10.92l0.99,8.35l23.44,6.81l1.59,32.51h4
	C402.9,717.27,404.31,727.59,405.19,740.22z"/>
<path fill="#FFFFFF" stroke="#000000" stroke-miterlimit="10" d="M371.75,746.85c-3.34,0.77-6.31,1.55-8.36,2.22
	c-7.37,2.4-11.41-0.96-16.87,3.52c-4.61,3.77-26.57,5.26-33.39,5.64c0.55-1.01,0.93-2.08,1.15-3.16
	c4.75-5.07,13.55-15.23,17.27-24.55c5.23-13.07,1.42-42.53,0-43.48c-1.05-0.7-16.1-4.33-25.44-6.03l0.1-1.33l0.14-1.84l0.17-2.17
	c3.2-1.95,7.24-4.42,11.68-7.16c6.37,0.95,29.53,4.5,32.6,6.15c3.56,1.92,13.07,9.77,14.25,12.85
	C366.12,690.29,376.97,726.33,371.75,746.85z"/>
<path fill="#FFFFFF" stroke="#000000" stroke-miterlimit="10" d="M306.36,770.92c-1.52,2.86-4.04,4.91-7.4,6.36
	c-5.57,2.41-13.43,3.15-22.78,3.15c-14.68,0-22.04-7.66-28.37-17.7c1.44-1.89,3.24-5.46,2.95-11.28
	c5.56,3.01,19.46,10.77,27.09,12.1c8.58,1.51,24.54,0.97,30.17-0.81C308.44,764.52,308.33,767.21,306.36,770.92z"/>
<path fill="#FFFFFF" stroke="#000000" stroke-miterlimit="10" d="M277.61,699.45c-5.29-2.43-14.13,7.6-13.4,13.99v0.01
	c0,0-11.26,10-10.2,17.69c-4.12,1.99-4.8,14.06-3.25,20.3v0.01c0.29,5.82-1.51,9.39-2.95,11.28c-0.13-0.2-0.25-0.4-0.38-0.6
	c-6.42-10.34-7.84-40.64-6.06-47.05c1.78-6.42,13.19-39.92,27.09-37.39c3.61,0.66,7.41,1.14,11.06,1.5
	C275.67,686.39,277.61,699.45,277.61,699.45z"/>
<path fill="#FFFFFF" stroke="#000000" stroke-miterlimit="10" d="M282.49,679.45l-1.55,26.31l-3.33-6.31c0,0-1.94-13.06,1.91-20.26
	C280.52,679.28,281.51,679.37,282.49,679.45z"/>
<path fill="#FFFFFF" stroke="#000000" stroke-miterlimit="10" d="M318.68,715.88c-0.54-0.12-1.37-0.06-2.58,0.15
	c-5.46,0.95-17.11,2.61-18.77,0.47c-1.66-2.13-15.87-9.74-15.87-9.74l-0.52-1l1.55-26.31c4.19,0.34,8.03,0.51,10.96,0.6h0.01
	c0.14,0.46,0.29,0.97,0.38,1.26c0.19,0.62,3.49,3.83,6.83,2.94c1.74-0.46,3.4-2.01,4.59-3.39c0.37-0.42,0.69-0.83,0.95-1.18
	l-0.1,1.33l-0.83,11.05c-0.22-0.01-0.34-0.03-0.34-0.03s-8.8,7.84-10.46,10.22c-1.66,2.37,0.24,8.79,1.9,9.98
	c1.66,1.19,12.83-2.62,13.55-2.38C310.51,710.05,316.46,714.29,318.68,715.88z"/>
<path fill="#FFFFFF" stroke="#000000" stroke-miterlimit="10" d="M396.61,680.07l-23.44-6.81l-0.99-8.35c0,0-20.86-7.68-30.94-10.92
	c8.65-5.59,16.31-10.78,20.25-14c1.63-1.33,3.38-2.69,5.21-4.03c4.95,1.07,12.61,2.6,12.61,2.6l3.57,8.44c0,0,8.11,2.43,12.36,4.97
	L396.61,680.07z"/>
<path fill="#FFFFFF" stroke="#000000" stroke-miterlimit="10" d="M395.24,651.97c-4.25-2.54-12.36-4.97-12.36-4.97l-3.57-8.44
	c0,0-7.66-1.53-12.61-2.6c8.32-6.14,18.05-12.09,23.33-15.21c0.93,4.08,2.36,9.71,4.47,16.21v0.05L395.24,651.97z"/>
<path fill="#FFFFFF" stroke="#000000" stroke-miterlimit="10" d="M311.11,758.33c0,0,0.75-0.03,2.02-0.1
	c-0.81,1.5-2.01,2.85-3.68,3.9c-0.35,0.22-0.83,0.42-1.43,0.61c-5.63,1.78-21.59,2.32-30.17,0.81c-7.63-1.33-21.53-9.09-27.09-12.1
	v-0.01c-1.55-6.24-0.87-18.31,3.25-20.3c6.22,4.31,19.75,13.33,25.5,14.59c7.33,1.61,28.56,4.53,34.44,2.83
	c0.61,1.94,0.8,4.25,0.33,6.51c-0.78,0.84-1.46,1.54-1.98,2.07C311.55,757.9,311.11,758.33,311.11,758.33z"/>
<path fill="#FFFFFF" stroke="#000000" stroke-miterlimit="10" d="M318.45,724.11c-0.26,2.39-0.96,3.93-1.87,4.95
	c-1.72,1.92-4.15,2.03-5.7,2.65c-2.38,0.95-12.36,0.95-25.19-2.61c-10.05-2.8-18.35-11.86-21.48-15.65v-0.01
	c-0.73-6.39,8.11-16.42,13.4-13.99l3.33,6.31l0.52,1c0,0,14.21,7.61,15.87,9.74c1.66,2.14,13.31,0.48,18.77-0.47
	c1.21-0.21,2.04-0.27,2.58-0.15c0.43,0.31,0.72,0.52,0.8,0.58C319.95,717.51,318.9,719.94,318.45,724.11z"/>
<path fill="#FFFFFF" stroke="#000000" stroke-miterlimit="10" d="M319.5,716.47c0,0-0.01-0.01-0.02-0.01
	c-0.12-0.31-0.37-0.5-0.8-0.58c-2.22-1.59-8.17-5.83-8.75-6.03c-0.72-0.24-11.89,3.57-13.55,2.38c-1.66-1.19-3.56-7.61-1.9-9.98
	c1.66-2.38,10.46-10.22,10.46-10.22s0.12,0.02,0.34,0.03c1.17,0.12,5.09,0.35,7.5-1.46c2.85-2.14,9.74-2.85,12.59,0
	C328.22,693.45,336.92,712.16,319.5,716.47z"/>
<path fill="#FFFFFF" stroke="#000000" stroke-miterlimit="10" d="M331.55,730.52c-3.72,9.32-12.52,19.48-17.27,24.55
	c0.47-2.26,0.28-4.57-0.33-6.51c0.22-0.07,0.42-0.13,0.59-0.21c4.89-2.14,4.42-12.84,2.75-17.35c-0.28-0.77-0.52-1.41-0.71-1.94
	c0.91-1.02,1.61-2.56,1.87-4.95c0.45-4.17,1.5-6.6,1.03-7.65c0.01,0,0.02,0.01,0.02,0.01c17.42-4.31,8.72-23.02,5.87-25.87
	c-2.85-2.85-9.74-2.14-12.59,0c-2.41,1.81-6.33,1.58-7.5,1.46l0.83-11.05c9.34,1.7,24.39,5.33,25.44,6.03
	C332.97,687.99,336.78,717.45,331.55,730.52z"/>
<path fill="#FFFFFF" stroke="#000000" stroke-miterlimit="10" d="M293.14,664.91c0,0,0.36,1.69,1.96,2.5
	c1.61,0.8,6.24,2.67,6.24,2.67s4.1-3.21,6-5.31l-0.82,10.9l-0.17,2.17c-0.39-0.33-0.9-0.75-1.45-1.19
	c-1.45-1.14-3.14-2.36-3.38-1.99c-0.45,0.66-8.38,4.33-8.38,4.33s0.15,0.5,0.31,1.06c-2.93-0.09-6.77-0.26-10.96-0.6l2.28-36.63
	c3.28,0.51,6.47,0.79,9.07,0.73c3.91-0.09,9.65-1.11,15.29-2.55l-1.58,21.04c-1.14-0.51-3.59-1.58-5.5-2.3
	C299.47,663.31,293.14,664.91,293.14,664.91z"/>
<path fill="#FFFFFF" stroke="#000000" stroke-miterlimit="10" d="M307.55,662.04l-0.21,2.73c-1.9,2.1-6,5.31-6,5.31
	s-4.63-1.87-6.24-2.67c-1.6-0.81-1.96-2.5-1.96-2.5s6.33-1.6,8.91-5.17C303.96,660.46,306.41,661.53,307.55,662.04z"/>
<path fill="#FFFFFF" stroke="#000000" stroke-miterlimit="10" d="M327.54,632.83c0,2.28-9.06,5.79-18.41,8.17
	c-5.64,1.44-11.38,2.46-15.29,2.55c-2.6,0.06-5.79-0.22-9.07-0.73c-9.8-1.53-20.46-5.09-19.04-7.58c1.66-2.91,16.71-6.54,20.51-7.41
	l-0.4,6.25l26.11-3.44l0.22-3.72C322.23,627.92,327.54,630.6,327.54,632.83z"/>
<polygon fill="#FFFFFF" stroke="#000000" stroke-miterlimit="10" points="313.91,598.13 312.17,626.92 311.95,630.64 285.84,634.08 
	286.24,627.83 287.75,603.93 298.4,601.57 305.11,600.08 "/>
<polygon fill="#FFFFFF" stroke="#000000" stroke-miterlimit="10" points="344.86,83.47 313.91,598.13 305.11,600.08 331.55,123.4 
	298.4,601.57 287.75,603.93 317.77,130.52 "/>
<polygon fill="#FFFFFF" stroke="#000000" stroke-miterlimit="10" points="331.55,123.4 305.11,600.08 298.4,601.57 "/>
<path fill="#FFFFFF" stroke="#000000" stroke-miterlimit="10" d="M306.35,677.84l-0.14,1.84c-0.26,0.35-0.58,0.76-0.95,1.18
	c-1.19,1.38-2.85,2.93-4.59,3.39c-3.34,0.89-6.64-2.32-6.83-2.94c-0.09-0.29-0.24-0.8-0.38-1.26h-0.01
	c-0.16-0.56-0.31-1.06-0.31-1.06s7.93-3.67,8.38-4.33c0.24-0.37,1.93,0.85,3.38,1.99C305.45,677.09,305.96,677.51,306.35,677.84z"/>
<path fill="#FFFFFF" stroke="#000000" stroke-miterlimit="10" d="M294.57,790.91l-9.18,5.7l7.57,3.3l4.62-2.22
	c-0.19,2.65-0.38,5.46-0.58,8.38l-3.95-1.7c0,0-7.84,5.79-7.66,6.06l7.31,2.4l3.95-1.75c-0.18,2.69-0.37,5.45-0.57,8.24l-3.38-1.47
	l-6.77,4.04l6.77,2.26l3.11-0.89c-0.17,2.39-0.34,4.8-0.51,7.19l-2.6-1.43l-7.31,4.16l5.41,3.32l4.16-1.33
	c-0.21,2.96-0.42,5.89-0.63,8.74l-2.94-1.23c0,0-5.94,4.28-6.53,4.75l5.1,2.86l4.01-1.48c-0.18,2.56-0.37,5.04-0.55,7.41l-3.34-0.82
	l-6.06,3.92l5.35,2.85l3.67-0.85c-0.85,10.93-1.52,18.57-1.77,19.14c-0.95,2.14-7.25,12-10.93,12.48c-3.68,0.48-9.74-8.91-9.74-8.91
	l5.58-103.6c9.35,0,17.21-0.74,22.78-3.15c-0.2,2.98-0.59,8.66-1.08,15.88L294.57,790.91z"/>
<path fill="#FFFFFF" stroke="#000000" stroke-miterlimit="10" d="M297.88,793.16c-0.1,1.45-0.2,2.96-0.3,4.53l-4.62,2.22l-7.57-3.3
	l9.18-5.7L297.88,793.16z"/>
<path fill="#FFFFFF" stroke="#000000" stroke-miterlimit="10" d="M297,806.07c-0.11,1.64-0.23,3.31-0.35,5.01l-3.95,1.75l-7.31-2.4
	c-0.18-0.27,7.66-6.06,7.66-6.06L297,806.07z"/>
<path fill="#FFFFFF" stroke="#000000" stroke-miterlimit="10" d="M296.08,819.32c-0.09,1.31-0.18,2.62-0.27,3.94l-3.11,0.89
	l-6.77-2.26l6.77-4.04L296.08,819.32z"/>
<path fill="#FFFFFF" stroke="#000000" stroke-miterlimit="10" d="M295.3,830.45c-0.11,1.58-0.22,3.16-0.34,4.72l-4.16,1.33
	l-5.41-3.32l7.31-4.16L295.3,830.45z"/>
<path fill="#FFFFFF" stroke="#000000" stroke-miterlimit="10" d="M294.33,843.91c-0.12,1.66-0.24,3.3-0.36,4.9l-4.01,1.48l-5.1-2.86
	c0.59-0.47,6.53-4.75,6.53-4.75L294.33,843.91z"/>
<path fill="#FFFFFF" stroke="#000000" stroke-miterlimit="10" d="M293.42,856.22c-0.13,1.77-0.26,3.47-0.38,5.1l-3.67,0.85
	l-5.35-2.85l6.06-3.92L293.42,856.22z"/>
<path fill="#FFFFFF" stroke="#000000" stroke-miterlimit="10" d="M314.54,748.35c-0.17,0.08-0.37,0.14-0.59,0.21
	c-5.88,1.7-27.11-1.22-34.44-2.83c-5.75-1.26-19.28-10.28-25.5-14.59c-1.06-7.69,10.2-17.69,10.2-17.69
	c3.13,3.79,11.43,12.85,21.48,15.65c12.83,3.56,22.81,3.56,25.19,2.61c1.55-0.62,3.98-0.73,5.7-2.65c0.19,0.53,0.43,1.17,0.71,1.94
	C318.96,735.51,319.43,746.21,314.54,748.35z"/>
<path fill="#FFFFFF" stroke="#000000" stroke-miterlimit="10" d="M414.72,848.39c1.19,1.42-10.87-5.71-10.87-5.71
	s-0.06-1.83-0.11-5.05c-0.17-10.47-0.31-35.64,1.59-60.18c0.99-12.67,0.64-25.89-0.14-37.23c-0.88-12.63-2.29-22.95-2.99-27.64
	h14.54C421.01,738.96,413.53,846.96,414.72,848.39z"/>
<path fill="#FFFFFF" stroke="#000000" stroke-miterlimit="10" d="M479.71,771.57c-5.34,0.15-16.37-1.84-24.52-3.49
	c-5.67-1.16-9.94-2.15-9.94-2.15v-16.86c3.45,0.81,6.72,1.51,9.77,2.13c14.94,3.03,24.69,3.88,24.69,3.88
	S480.9,760.35,479.71,771.57z"/>
<path fill="#FFFFFF" stroke="#000000" stroke-miterlimit="10" d="M649.4,867.74h-0.01c-5.12,1.62-10.37,2.7-15.14,3.3
	c-6.15,0.79-11.49,0.8-14.7,0.16c-2.33-0.47-6.46-1.12-11.34-1.86c0.79-5.36-5.29-16.95-15.04-20.77
	c-11.64-4.56-20.67-5.41-20.67-5.41l-14.26-10.46c5.35-1.42,10.7-9.98,10.7-9.98s12.47,3.21,19.06-2.85
	c7.85,4.46,13.73,8.2,24.78,2.32c0,0,0.01,0,0.02,0.01c0.81,0.54,27.93,18.56,29.86,16.92C642.66,839.12,654.98,851.49,649.4,867.74
	z"/>
<path fill="#FFFFFF" stroke="#000000" stroke-miterlimit="10" d="M680.14,845.14c-3.79,4.87-8.18,9.79-12.83,13.58
	c-4.88,3.98-11.29,6.95-17.91,9.02c5.58-16.25-6.74-28.62-6.74-28.62c1.96-1.67,5.88-6.42,8.9-9.51c3.02-3.09,5.41-13.66,5.41-13.66
	s-6.68-19.59-20.83-28.77c7.19-0.33,20.77-0.05,29.03,5.75C675.86,800.43,683.54,811.44,680.14,845.14z"/>
<path fill="#FFFFFF" stroke="#000000" stroke-miterlimit="10" d="M692.8,825.93c-0.35,0.7-5.4,9.87-12.66,19.21
	c3.4-33.7-4.28-44.71-14.97-52.21c-8.26-5.8-21.84-6.08-29.03-5.75c-1.63-1.06-3.36-1.98-5.19-2.72c0,0,24.42-9.5,35.02-2.85
	c10.61,6.66,28.79,24.24,28.79,24.24S695.71,813.45,692.8,825.93z"/>
<path fill="#FFFFFF" stroke="#000000" stroke-miterlimit="10" d="M692.8,825.93c2.91-12.48,1.96-20.08,1.96-20.08l18.41-5.7
	C716.26,817.14,693.33,824.86,692.8,825.93z"/>
<path fill="#FFFFFF" stroke="#000000" stroke-miterlimit="10" d="M656.97,815.95c0,0-2.39,10.57-5.41,13.66
	c-3.02,3.09-6.94,7.84-8.9,9.51c-1.93,1.64-29.05-16.38-29.86-16.92c8.55,4.6,16.77-4.92,18.34-9.15L656.97,815.95z"/>
<path fill="#FFFFFF" stroke="#000000" stroke-miterlimit="10" d="M631.14,813.05c0.07-0.17,0.13-0.34,0.17-0.49
	c0,0-15.86-9.09-17.46-10.51c-1.61-1.43-12.3-8.67-15.51-9.51c-3.11-0.8-13.49-9.82-14.14-10.38c1.7,1.04,2.91,1.89,2.91,1.89
	s9.98-6.95,15.33-6.77c5.35,0.17,5.7,4.81,5.7,4.81l22.81,2.37c1.83,0.74,3.56,1.66,5.19,2.72c14.15,9.18,20.83,28.77,20.83,28.77
	L631.14,813.05z"/>
<path fill="#FFFFFF" stroke="#000000" stroke-miterlimit="10" d="M631.31,812.56c-0.04,0.15-0.1,0.32-0.17,0.49
	c-1.57,4.23-9.79,13.75-18.34,9.15c-0.01-0.01-0.02-0.01-0.02-0.01s-10.82-11.11-11.77-11.35s-14.02-4.28-14.49-6.41
	c-0.48-2.14-21.27-10.34-18.83-21.09c0,0,3.56-4.64,7.3-4.92c2.32-0.17,6.4,2.02,9.18,3.71c0.01,0.01,0.02,0.02,0.03,0.03
	c0.65,0.56,11.03,9.58,14.14,10.38c3.21,0.84,13.9,8.08,15.51,9.51C615.45,803.47,631.31,812.56,631.31,812.56z"/>
<path fill="#FFFFFF" stroke="#000000" stroke-miterlimit="10" d="M612.78,822.19c-11.05,5.88-16.93,2.14-24.78-2.32
	c-4.71-2.61-16.45-13.07-20.51-17.58c-3.59-0.24-15.19-9.75-18.99-14.26c-5.23-3.09-16.99-16.46-16.99-16.46
	c-1.78-3.74,1.96-9.98,6.42-9.98c4.45,0,29.76,21.75,29.76,21.75c-2.44,10.75,18.35,18.95,18.83,21.09
	c0.47,2.13,13.54,6.17,14.49,6.41S612.78,822.19,612.78,822.19z"/>
<path fill="#FFFFFF" stroke="#000000" stroke-miterlimit="10" d="M588,819.87c-6.59,6.06-19.06,2.85-19.06,2.85
	s-16.64-16.39-22.58-22.51c-11.88-2.56-18.06-10.28-24.24-15.75c-8.79-4.51-19.13-18.53-19.13-18.53s0,0-0.01-0.01
	c-0.16-0.39-4.11-9.73,2.69-12.35c6.95-2.67,15.68,8.02,25.84,18c0,0,11.76,13.37,16.99,16.46c3.8,4.51,15.4,14.02,18.99,14.26
	C571.55,806.8,583.29,817.26,588,819.87z"/>
<path fill="#FFFFFF" stroke="#000000" stroke-miterlimit="10" d="M568.94,822.72c0,0-5.35,8.56-10.7,9.98
	c-4.45,0-27.44-16.93-32.61-21.56c-9.63-4.28-16.22-17.17-16.22-17.17s-9.62-4.57-16.04-13.84c-6.42-9.27-5.88-12.3-1.25-15.69
	c4.53-3.3,10.58,1.27,10.86,1.48c0.01,0.01,0.01,0.01,0.01,0.01s10.34,14.02,19.13,18.53c6.18,5.47,12.36,13.19,24.24,15.75
	C552.3,806.33,568.94,822.72,568.94,822.72z"/>
<path fill="#FFFFFF" stroke="#000000" stroke-miterlimit="10" d="M480.9,833.96l-30.84,1.46l-10.15,0.48v-16.03
	c0,0,4.73-0.32,10.98-0.7c11.66-0.73,28.62-1.7,30.01-1.32C483.03,818.44,480.9,833.96,480.9,833.96z"/>
<path fill="#FFFFFF" stroke="#000000" stroke-miterlimit="10" d="M642.66,936.07c-13.25-14.97-257.17-15.68-257.17-15.68
	s-0.46-8.21-0.75-19.2c25.02-2.05,94.1-7.73,159.07-3.77c35.99,2.19,70.72,7.33,95.99,17.68
	C641.2,921.29,642.36,928.42,642.66,936.07z"/>
<path fill="#FFFFFF" stroke="#000000" stroke-miterlimit="10" d="M639.8,915.1c-25.27-10.35-60-15.49-95.99-17.68
	c-7.08-4.96-16.09-10.67-26.26-15.67c13.27,0.14,27.17,0.08,35.93-0.57c17.85-1.34,56.6-3.31,81.34-0.59
	c0.21,7.3-0.11,13.6-1.34,12.37C631.75,891.22,636.47,900.52,639.8,915.1z"/>
<path fill="#FFFFFF" stroke="#000000" stroke-miterlimit="10" d="M543.81,897.42c-64.97-3.96-134.05,1.72-159.07,3.77
	c-0.28-10.67-0.41-23.97,0.19-34.94c30.38,0.28,100.91,1.95,123.52,11.36c3.12,1.3,6.16,2.69,9.1,4.14
	C527.72,886.75,536.73,892.46,543.81,897.42z"/>
<path fill="#FFFFFF" stroke="#000000" stroke-miterlimit="10" d="M548.51,861.72c-0.74-0.02-1.46-0.03-2.15-0.03
	c-7.47,0-35.43-5.2-41.23-13.18c-1.21-1.67-1.46-3.46-0.35-5.35c6.41-10.93,40.16-4.99,42.77-2.85
	C547.55,840.31,542.34,854.15,548.51,861.72z"/>
<path fill="#FFFFFF" stroke="#000000" stroke-miterlimit="10" d="M608.21,869.34c-13.8-2.08-33.6-4.75-35.71-5.27
	c-2.63-0.66-15-2.13-23.99-2.35c-6.17-7.57-0.96-21.41-0.96-21.41c2.61,2.13,24.95,2.85,24.95,2.85s9.03,0.85,20.67,5.41
	C602.92,852.39,609,863.98,608.21,869.34z"/>
<path fill="#FFFFFF" stroke="#000000" stroke-miterlimit="10" d="M617.19,752.48c-0.06,0.86-0.11,1.7-0.17,2.52v0.01
	c-0.32,5.26-0.32,9.49-0.32,9.49l-8.56,17.59c0,0-0.35-4.64-5.7-4.81c-5.35-0.18-15.33,6.77-15.33,6.77s-1.21-0.85-2.91-1.89
	c-0.01-0.01-0.02-0.02-0.03-0.03c-2.78-1.69-6.86-3.88-9.18-3.71c-3.74,0.28-7.3,4.92-7.3,4.92s-25.31-21.75-29.76-21.75
	c-4.46,0-8.2,6.24-6.42,9.98c-10.16-9.98-18.89-20.67-25.84-18c-6.8,2.62-2.85,11.96-2.69,12.35c-0.28-0.21-6.33-4.78-10.86-1.48
	c-4.63,3.39-5.17,6.42,1.25,15.69c6.42,9.27,16.04,13.84,16.04,13.84s6.59,12.89,16.22,17.17c5.17,4.63,28.16,21.56,32.61,21.56
	l14.26,10.46c0,0-22.34-0.72-24.95-2.85c-2.61-2.14-36.36-8.08-42.77,2.85c-1.11,1.89-0.86,3.68,0.35,5.35
	c-18.61-0.03-43.47,0.02-55.26,0.05c0-2.44,0.02-7.26,0.19-13.14l30.84-1.46c0,0,2.13-15.52,0-16.11
	c-1.39-0.38-18.35,0.59-30.01,1.32c0.54-6.95,1.34-13.85,2.56-19.26c1.3-5.78,1.73-18.04,1.74-31.83
	c8.15,1.65,19.18,3.64,24.52,3.49c1.19-11.22,0-16.49,0-16.49s-9.75-0.85-24.69-3.88c-0.32-16.64-0.99-32.71-1.35-40.39
	C490.81,733.1,531.42,754.32,617.19,752.48z"/>
<path fill="#FFFFFF" stroke="#000000" stroke-miterlimit="10" d="M416.74,712.58H398.2l-1.59-32.51l-1.37-28.1l-0.74-14.96
	c4.02,12.39,10.5,27.88,20.62,41.75l1.42,29.66L416.74,712.58z"/>
<path fill="#FFFFFF" stroke="#000000" stroke-miterlimit="10" d="M430.02,695.14c-4.04,5.38-10.39,10.78-13.48,13.28l-1.42-29.66
	C419.4,684.64,424.34,690.22,430.02,695.14z"/>
<path fill="#FFFFFF" stroke="#000000" stroke-miterlimit="10" d="M455.19,768.08c-0.01,13.79-0.44,26.05-1.74,31.83
	c-1.22,5.41-2.02,12.31-2.56,19.26c-6.25,0.38-10.98,0.7-10.98,0.7v16.03l10.15-0.48c-0.17,5.88-0.19,10.7-0.19,13.14
	c0,1.11,0.01,1.73,0.01,1.73s-27.7,1.82-35.16-1.9c-1.19-1.43,6.29-109.43,2.02-135.81l-0.2-4.16c3.09-2.5,9.44-7.9,13.48-13.28
	c3.42,2.95,7.1,5.66,11.07,8.06c4.19,2.53,8.36,5.07,12.58,7.61c0.36,7.68,1.03,23.75,1.35,40.39c-3.05-0.62-6.32-1.32-9.77-2.13
	v16.86C445.25,765.93,449.52,766.92,455.19,768.08z"/>
<path fill="#FFFFFF" stroke="#000000" stroke-miterlimit="10" d="M634.82,880.59c-24.74-2.72-63.49-0.75-81.34,0.59
	c-8.76,0.65-22.66,0.71-35.93,0.57c-2.94-1.45-5.98-2.84-9.1-4.14c-22.61-9.41-93.14-11.08-123.52-11.36
	c0.51-9.21,1.53-16.78,3.41-19.77c4.75-7.55,11.97-8.74,15.4-8.85c0.05,3.22,0.11,5.05,0.11,5.05s12.06,7.13,10.87,5.71
	c7.46,3.72,35.16,1.9,35.16,1.9s-0.01-0.62-0.01-1.73c11.79-0.03,36.65-0.08,55.26-0.05c5.8,7.98,33.76,13.18,41.23,13.18
	c0.69,0,1.41,0.01,2.15,0.03c8.99,0.22,21.36,1.69,23.99,2.35c2.11,0.52,21.91,3.19,35.71,5.27c4.88,0.74,9.01,1.39,11.34,1.86
	c3.21,0.64,8.55,0.63,14.7-0.16C634.52,874.05,634.72,877.42,634.82,880.59z"/>
</svg>
