<?xml version="1.0" encoding="utf-8"?>
<!-- Generator: Adobe Illustrator 25.2.0, SVG Export Plug-In . SVG Version: 6.00 Build 0)  -->
<svg version="1.1" baseProfile="tiny" id="Layer_1" xmlns="http://www.w3.org/2000/svg" xmlns:xlink="http://www.w3.org/1999/xlink"
	 x="0px" y="0px" viewBox="0 0 1000 1000" overflow="visible" xml:space="preserve">
<path fill="#FFFFFF" stroke="#000000" stroke-miterlimit="10" d="M501.14,188.65c-7.28-1.16-14.57-0.89-21.28,0.08
	c-1.3-4.16-3.52-11.23-4.44-13.98c2.27-4.07,5.27-15.82,6.45-20.95c4.07-3.18,7.48-6.39,8.44-8.73c2.24-5.45,2.02-15.03,3.05-19
	c0.16,0.97,0.46,2.78,0.81,5.13c1.08,7.08,2.69,19.07,2.85,28.04c0,0,0.71,15.15-3.63,21.21
	C494.2,182.64,498.5,186.46,501.14,188.65z"/>
<path fill="#FFFFFF" stroke="#000000" stroke-miterlimit="10" d="M548.4,188.28c-8.54,1.96-16.68,4.35-17.94,4.72
	c-0.11,0.03-0.17,0.05-0.17,0.05s-2.86-0.06-28.76-4.34c-0.13-0.02-0.26-0.04-0.39-0.06c-2.64-2.19-6.94-6.01-7.75-8.2
	c4.34-6.06,3.63-21.21,3.63-21.21C502.93,162.07,524.81,163.74,548.4,188.28z"/>
<path fill="#FFFFFF" stroke="#000000" stroke-miterlimit="10" d="M607.04,236c0,2.2-0.56,9.81-1.17,17.34c0,0-0.01,0.05-0.02,0.16
	c0,0.03,0,0.06-0.01,0.09c-0.07,0.52-0.26,1.81-0.59,3.43c0,0.01,0,0.01,0,0.01c-1.1,5.45-3.77,14.68-8.86,11.57
	c-0.68-0.42-1.41-1.06-2.18-1.95c-8.01-9.3-38.07-21.36-51.28-27.76c-1.3-0.63-2.44-1.2-3.38-1.71c-0.09-0.17-0.19-0.37-0.28-0.6
	c-2.8-6.5-7.82-37.41-8.81-43.58c1.26-0.37,9.4-2.76,17.94-4.72c0.15,0.14,0.28,0.29,0.42,0.43c10.69-0.24,10.69-0.24,10.69-0.24
	s25.19,11.17,31.61,16.63C597.53,210.57,607.04,231.24,607.04,236z"/>
<path fill="#FFFFFF" stroke="#000000" stroke-miterlimit="10" d="M450.92,179.2c0,0,0,11.99-2.98,18.34
	c-2.45-1.01-7.59-2.99-13.94-4.62c12.09-9.78,2.12-22.81-1.5-26.84c-0.04-1-0.59-15.71-0.72-19.14c2.06,2.8,6.1,8.22,9.55,12.44
	l-0.6,7.62L450.92,179.2z"/>
<path fill="#FFFFFF" stroke="#000000" stroke-miterlimit="10" d="M434,192.92c-6.39-1.65-14.01-2.95-21.34-2.55
	c-8.6,0.47-16.29,4.51-21.9,8.53l-0.47-3.84c0.33-0.03,0.51-0.05,0.51-0.05s8.2-8.8,16.87-16.28c8.67-7.49,24.83-12.6,24.83-12.6
	s0-0.02,0-0.05C436.12,170.11,446.09,183.14,434,192.92z"/>
<path fill="#FFFFFF" stroke="#000000" stroke-miterlimit="10" d="M373.1,243.48c2.45,2.28,4.77,4.26,6.9,5.96
	c-5.78,3.72-21.08,13.5-24.36,14.82c-0.09-0.13-0.17-0.27-0.26-0.4c0,0,0,0,0-0.01c-5.03-8.09-11.14-19.99-9.25-27.62
	c3.09-12.47,21.62-36.12,25.54-37.9c3.49-1.59,15.94-2.98,18.62-3.27l0.47,3.84l0.52,4.3C391.28,203.2,374.4,218.41,373.1,243.48z"
	/>
<path fill="#FFFFFF" stroke="#000000" stroke-miterlimit="10" d="M498.58,106.95c0,7.67-0.14,13.55-0.14,13.55l-4.35,3.96
	l-0.87,0.79c0,0,0.05,0.28,0.14,0.8v0.01c-1.03,3.97-0.81,13.55-3.05,19c-0.96,2.34-4.37,5.55-8.44,8.73
	c-7.25,5.7-16.59,11.31-17.85,11.77c-1.96,0.71-12.74,0.62-17.65-0.71c-1.09-0.83-2.96-2.94-5.04-5.48
	c-3.45-4.22-7.49-9.64-9.55-12.44c0-0.01,0-0.01,0-0.01c-0.01-0.42-0.02-0.67-0.02-0.7c0-0.17-1.15-9.81-2.46-18.7
	c-0.41-2.75-0.83-5.43-1.24-7.73c0.72,0.55,1.69,1.3,2.67,2.06l2.9,22.68l12.66,16.66l4.63-5.25l7.22,0.26l5.61,4.99
	c0,0,19.16-14.08,20.94-15.96c0.32-3.95,4.49-19.65,5.3-22.68C489.99,122.55,496.88,110.46,498.58,106.95z"/>
<path fill="#FFFFFF" stroke="#000000" stroke-miterlimit="10" d="M489.99,122.55c0.09-0.33,0.14-0.51,0.14-0.51
	s-4.64-0.05-10.7-0.65c-1.46-0.14-3.34-0.42-5.36-0.75c-0.19-1.98,0.02-4.87,0.11-6.09c6.55-1.08,6.84-5.9,8.55-8.66
	c0.65-1.06-0.02-2.42-1.26-2.52c-1.56-0.13-3.28-0.2-5.02-0.17c1.24-20.65,11.27-32.45,15.28-36.38c2.2,2.25,3.8,4.53,4.58,6.63
	c1.74,4.7,2.19,19.11,2.26,30.75c0.01,0.94,0.01,1.86,0.01,2.75C496.88,110.46,489.99,122.55,489.99,122.55z"/>
<path fill="#FFFFFF" stroke="#000000" stroke-miterlimit="10" d="M459.74,108.44c1.34,1.96,2.09,6.33,11.52,6.33
	c1.09,0,2.06-0.08,2.92-0.22c-0.09,1.22-0.3,4.11-0.11,6.09c-6.38-1.07-14.12-2.75-14.12-2.75s-0.18-2.44-4.28-2.28
	c-4.1,0.16-4.51,2.4-4.51,2.4l-16.4,6.95c1.2-2.55,1.79-8.03,1.95-9.7c3.87,0.32,10.09-0.54,11.45-1.47
	c1.69-1.16,3.85-4.99,2.98-5.79c-2.74-2.54-8.77-3.57-14.56-3.84c0.94-17.24-2.08-28.59-4.3-34.28c1.35-2.8,3.02-5.28,5.09-7.12
	c10.46-9.27,24.72-9.03,24.72-9.03c11.37,0.18,23.13,6.46,29.64,13.09c-4.01,3.93-14.04,15.73-15.28,36.38
	c-2.69,0.03-5.41,0.31-7.53,0.96C465.43,105.23,458.4,106.48,459.74,108.44z"/>
<path fill="#FFFFFF" stroke="#000000" stroke-miterlimit="10" d="M434.34,114.77c0.56,0.25,1.39,0.41,2.37,0.49
	c-0.16,1.67-0.75,7.15-1.95,9.7c0,0-2.03-1.57-4.03-3.11c-0.98-0.76-1.95-1.51-2.67-2.06c-0.32-1.81-0.64-3.38-0.93-4.58
	c-0.86-3.52-1.02-7.52-0.96-10.8c0-0.01,0-0.01,0-0.01c0.09-3.85,0.51-6.71,0.51-6.71s0.15-16.49,5.6-27.81
	c2.22,5.69,5.24,17.04,4.3,34.28c-5.8-0.26-9.99-0.89-8.74,1.34C429.09,107.73,431.58,113.52,434.34,114.77z"/>
<path fill="#FFFFFF" stroke="#000000" stroke-miterlimit="10" d="M620.99,311.24c-14.44,4.97-34.62,32.24-34.39,37.86
	c-0.56-0.87-1.19-1.67-1.89-2.42c-3.35-3.67-7.96-6-11.11-7.35c-1.06-8.15-1.49-14.94-1.49-14.94c23.9-9.32,24.76-43.62,24.28-55.79
	c5.09,3.11,7.76-6.12,8.86-11.57c0.1,0.08,0.2,0.17,0.31,0.25c3.21,2.7,7.25,6.41,9.79,9.84c4.76,6.42,4.04,14.97,5.71,26.62
	C621.87,299.45,621.32,305.4,620.99,311.24z"/>
<path fill="#FFFFFF" stroke="#000000" stroke-miterlimit="10" d="M627.47,381.9c0.16,2.87,1.18,8.12,0.96,15.38
	c-12.25-20.1-31.83-20.4-45.04-16.47c1.88-11.92,1.68-25.91,1.32-34.13c0.7,0.75,1.33,1.55,1.89,2.42
	c-0.23-5.62,19.95-32.89,34.39-37.86c-0.35,6.05-0.44,11.99,1.49,17.43c3.81,10.69,10.7,27.33,10.93,31.84
	C633.65,365.03,627.24,377.62,627.47,381.9z"/>
<path fill="#FFFFFF" stroke="#000000" stroke-miterlimit="10" d="M583.39,380.81c-4.66,1.39-8.53,3.31-11,5.07
	c0.52-7.49,1.81-22.33,4.23-30.12c-1.32-5.02-2.31-11.03-3.02-16.43c3.15,1.35,7.76,3.68,11.11,7.35
	C585.07,354.9,585.27,368.89,583.39,380.81z"/>
<path fill="#FFFFFF" stroke="#000000" stroke-miterlimit="10" d="M628.43,397.28c-0.07,2.65-0.32,5.57-0.84,8.74
	c-2.51-6.31-9-15.53-22.93-20.68c-14.62-5.41-29.24,3.52-34.52,7.31c0.31-1.98,0.72-3.98,1.25-6c0.3-0.25,0.63-0.51,1-0.77
	c2.47-1.76,6.34-3.68,11-5.07C596.6,376.88,616.18,377.18,628.43,397.28z"/>
<path fill="#FFFFFF" stroke="#000000" stroke-miterlimit="10" d="M627.59,406.02c-0.16,1.04-0.36,2.11-0.59,3.2
	c-2.85,13.55-11.88,28.04-11.88,28.04s-2.44,14.32-5.28,25.73c-5.24-0.53-27.3-2.85-30.13-4.94c-0.83,7.13-1.72,10.1-1.72,10.1
	s16.31,6.94,28.06,6.75c-0.07,0.13-0.13,0.26-0.2,0.38c0.05,1.22-0.24,3.43-0.75,6.15l-16.59,5.73l-13.37-5.97l-13.79-16.82
	c0.19-0.02,0.3-0.02,0.3-0.02s-0.47-2.61,4.04-5.94c2.62-8.55,6.42-21.62,7.13-26.85c0.64-4.72-5.48-20.65-2.68-38.9v-0.01
	c5.28-3.79,19.9-12.72,34.52-7.31C618.59,390.49,625.08,399.71,627.59,406.02z"/>
<path fill="#FFFFFF" stroke="#000000" stroke-miterlimit="10" d="M609.84,462.99c-1.24,5.02-2.57,9.47-3.79,11.91
	c-11.75,0.19-28.06-6.75-28.06-6.75s0.89-2.97,1.72-10.1C582.54,460.14,604.6,462.46,609.84,462.99z"/>
<path fill="#FFFFFF" stroke="#000000" stroke-miterlimit="10" d="M605.1,481.43c-0.54,2.88-1.31,6.35-2.18,9.87
	c-4.5,0.91-17.51,2.46-19.05,2.16c-1.55-0.3-15.8-8.79-15.8-8.79l-2.14,9.09c0,0,14.38,10.93,14.79,11.05
	c1.43-0.24,11.13-0.58,22.2-13.51c-1.88,7.68-4.19,15.58-5.32,18.09c-0.24,0.53-0.42,0.82-0.54,0.82c-1.19,0-22.1,7.13-22.1,7.13
	s-19.96-17.82-19.72-18.53c0.23-0.72-0.01-14.5-0.01-14.5l-11.07-13.11l-0.57-0.67c0,0,2.42-0.93,4.82-1.52
	c1.43-0.34,2.85-0.56,3.74-0.38c2.28-3.54,7.84-4.16,9.2-4.26l13.79,16.82l13.37,5.97L605.1,481.43z"/>
<path fill="#FFFFFF" stroke="#000000" stroke-miterlimit="10" d="M449.38,198.16c-0.64,1.46-1.43,3.38-2.28,5.67l-18.52,18.68
	l-24.95,0.55l10.46,20.06l-4.92,15.21c-7.54,0.76-13.38,1.07-13.38,1.07s-5.02-1.83-13.13-7.9v-0.01c-0.85-0.62-1.74-1.31-2.66-2.05
	c-2.13-1.7-4.45-3.68-6.9-5.96c1.3-25.07,18.18-40.28,18.18-40.28l-0.52-4.3c5.61-4.02,13.3-8.06,21.9-8.53
	c7.33-0.4,14.95,0.9,21.34,2.55c6.35,1.63,11.49,3.61,13.94,4.62C448.68,197.85,449.17,198.07,449.38,198.16z"/>
<path fill="#FFFFFF" stroke="#000000" stroke-miterlimit="10" d="M562.16,315.81c-2.89,3.76-7.92,10-12.95,14.76
	c-5.85-6.15-18.92-14.67-18.92-14.67l-1.49-5.29c0,0-8.64-2.91-19.36-6.23c-11.03-3.41-24.27-7.26-32.5-8.8
	c-14.62,8.02-34.4,14.08-45.63,16.93c-8.39-0.61-31-12.57-37.34-16.01c-1.07-0.58-1.68-0.92-1.68-0.92l-13.59,11.93
	c-2.91-7.46-5.26-14.07-5.6-17.99c-0.88-10.04,7.36-32.28,9.56-38.02c8.11,6.07,13.13,7.9,13.13,7.9s5.84-0.31,13.38-1.07
	l-2.92,9.03l29.51-10.22l27.52,12.08l-1.52-12.42c11.67,2.7,24.66,4.41,30.15,3.43c8.11-1.43,39.06-18.9,47.36-23.65
	c0.09,0.23,0.19,0.43,0.28,0.6c0.94,0.51,2.08,1.08,3.38,1.71c-1.15,10.55-2.77,37.93,3.28,53.42
	C550.04,302.14,556.6,310.22,562.16,315.81z"/>
<path fill="#FFFFFF" stroke="#000000" stroke-miterlimit="10" d="M539.27,236.58c-8.3,4.75-39.25,22.22-47.36,23.65
	c-5.49,0.98-18.48-0.73-30.15-3.43l-1.96-16.05l19.1-20.44l-25.93-0.47l-5.87-16.01c0.85-2.29,1.64-4.21,2.28-5.67h0.01
	c0.07,0.03,0.1,0.05,0.1,0.05s13.32-7.02,30.37-9.48c6.71-0.97,14-1.24,21.28-0.08c0.13,0.02,0.26,0.04,0.39,0.06
	c25.9,4.28,28.76,4.34,28.76,4.34s0.06-0.02,0.17-0.05C531.45,199.17,536.47,230.08,539.27,236.58z"/>
<path fill="#FFFFFF" stroke="#000000" stroke-miterlimit="10" d="M572.11,324.39c0,0-4.5-3.09-9.95-8.58
	c-5.56-5.59-12.12-13.67-15.95-23.5c-6.05-15.49-4.43-42.87-3.28-53.42c13.21,6.4,43.27,18.46,51.28,27.76
	c0.77,0.89,1.5,1.53,2.18,1.95C596.87,280.77,596.01,315.07,572.11,324.39z"/>
<path fill="none" stroke="#000000" stroke-miterlimit="10" d="M602.92,491.3c-11.07,12.93-20.77,13.27-22.2,13.51
	c-0.41-0.12-14.79-11.05-14.79-11.05l2.14-9.09c0,0,14.25,8.49,15.8,8.79C585.41,493.76,598.42,492.21,602.92,491.3z"/>
<path fill="#FFFFFF" stroke="#000000" stroke-miterlimit="10" d="M597.91,511.61l-6.31,4.24l-3.99,2.68l-9.77-0.41l-7.07-0.3
	l-7.07-3.97l-10.39-5.83l-3.85,1.92c-0.07-2.16-0.46-12.73-1.48-18.66c-0.26-1.5-0.56-2.71-0.91-3.4
	c-1.27-2.55-6.87-5.29-10.57-6.77c0.41-2.53,0.72-4.99,1.39-6.15c1.03-1.82,4.47-3.16,6.27-3.76l11.07,13.11
	c0,0,0.24,13.78,0.01,14.5c-0.24,0.71,19.72,18.53,19.72,18.53s20.91-7.13,22.1-7.13c0.12,0,0.3-0.29,0.54-0.82
	C597.73,510.06,597.83,510.82,597.91,511.61z"/>
<path fill="#FFFFFF" stroke="#000000" stroke-miterlimit="10" d="M563.7,513.85l-0.68,9.22c-0.31,0-1.39,0.01-2.74,0.03
	c-2.68,0.01-6.41,0.03-7.24-0.03c-1.27-0.08-5.78-7-6.28-7.77l2.71-4.97c0,0,0-0.14-0.01-0.39l3.85-1.92L563.7,513.85z"/>
<path fill="#FFFFFF" stroke="#000000" stroke-miterlimit="10" d="M577.84,518.12l-1.3,6.78c-1.5-0.24-4.28,2.36-6.66,2.36
	c-2.5,0-6.77-4.19-6.77-4.19s-0.03,0-0.09,0l0.68-9.22l7.07,3.97L577.84,518.12z"/>
<path fill="#FFFFFF" stroke="#000000" stroke-miterlimit="10" d="M592.61,523.66c-0.34-0.03-0.54-0.05-0.54-0.05
	s-1.16,2.58-4.37,3.65c-3.21,1.07-9.53-1.78-10.96-2.31c-0.06-0.03-0.13-0.04-0.2-0.05l1.3-6.78l9.77,0.41l3.99-2.68L592.61,523.66z
	"/>
<path fill="#FFFFFF" stroke="#000000" stroke-miterlimit="10" d="M597.68,523.43c-0.42,0.57-3.75,0.34-5.07,0.23l-1.01-7.81
	l6.31-4.24C598.37,516.48,598.05,522.94,597.68,523.43z"/>
<path fill="#FFFFFF" stroke="#000000" stroke-miterlimit="10" d="M388.05,331.67c-3.05,2.7-5.86,4.74-8.4,6.28
	c-7.98,4.85-13.26,4.72-14.63,3.97c-1.96-1.07-17.82-15.33-20.14-21.03c-1.01-2.5-1.99-4.65-2.49-7.78c0,0,0,0,0-0.01
	c-0.64-4.02-0.49-9.64,1.42-19.66c2.73-14.36,9.16-25.71,11.57-29.58c0.09,0.13,0.17,0.27,0.26,0.4
	c3.28-1.32,18.58-11.1,24.36-14.82c0.92,0.74,1.81,1.43,2.66,2.05v0.01c-2.2,5.74-10.44,27.98-9.56,38.02
	c0.34,3.92,2.69,10.53,5.6,17.99C381.76,315.35,385.43,324.12,388.05,331.67z"/>
<path fill="#FFFFFF" stroke="#000000" stroke-miterlimit="10" d="M402.21,503.15c-2.14,24.17-5.94,99.02-4.28,109.48
	c0.19,1.2-0.51,2.37-1.57,3.42c-2.48,2.42-6.93,4.18-6.93,4.18s-1.24-1.48-2.84-3.56c-2.24-2.93-5.2-7.06-6.42-9.98
	c-0.81-1.94-3.69-12.58-6.77-26.53c3.8-1.47,7.66-3.09,9.8-4.36c-0.95-47.29,12.83-101.51,12.83-101.51l-14.48-23.46
	c3.04-7.84,5.66-14.04,6.97-17.09c0.55,0.25,0.99,0.4,1.27,0.4c2.14,0,12.74,0,12.74,0s3.21-3.92,3.21-4.45
	c0-0.21-0.18-6.72-0.4-14.53l3.31-0.16C407.85,426.78,404.1,481.63,402.21,503.15z"/>
<path fill="#FFFFFF" stroke="#000000" stroke-miterlimit="10" d="M410.24,392.89h-1.2v0.06c-1.42,0.01-3,0.02-4.33,0.02v-0.08
	c-0.08-2.89-0.13-4.72-0.13-4.72s-1.1-0.17-2.85-0.44c-2.7-0.41-6.95-1.05-11.01-1.64c-0.36-2.24-0.57-4.93-0.68-7.85
	c-0.4-10.32,0.49-23.64,1.35-31.16c0.38-3.33-1.09-8.92-3.34-15.41c-2.62-7.55-6.29-16.32-9.35-24.16l13.59-11.93
	c0,0,0.61,0.34,1.68,0.92c3.37,11.15,11.15,35.29,17.38,42.21C410.67,348.63,402.1,379.41,410.24,392.89z"/>
<path fill="#FFFFFF" stroke="#000000" stroke-miterlimit="10" d="M351.47,497.92c-0.77,1.54-9.15,5.82-9.68,5.16
	c-0.03-0.04-0.07-0.1-0.1-0.18c-0.46-1.12-0.72-5.67-2.34-7.84c-1.72-2.31-4.06-7.06-4.06-7.06s-4.95-6.91-7.99-7.75
	c0.71-3.69,2.58-8.1,7.24-10.28c5.79-2.71,10.3-2.47,12.72-1.99v0.01c1.02,1.26,1.74,2.63,1.96,4.03
	c0.89,5.76,0.71,13.18,1.54,16.99C351.59,492.81,352.25,496.37,351.47,497.92z"/>
<path fill="#FFFFFF" stroke="#000000" stroke-miterlimit="10" d="M364.66,389.5v8.74c-0.86,1.1-1.73,2.14-2.61,3.13v-9.2
	c0,0-3.86-6.23-11.53-11.88c-7.66-5.64-18.06-8.26-27.32-8.85c-6.69-0.43-11.8,2.89-14.13,4.77c0.05-0.52,0.12-1.04,0.21-1.55
	c9.52-10.26,29.6-8.29,37.2-3.52C354.15,375.96,364.66,389.5,364.66,389.5z"/>
<path fill="#FFFFFF" stroke="#000000" stroke-miterlimit="10" d="M362.05,392.17v9.2c-6.04,6.82-12.63,11.47-16.99,18.78
	c-5.53,9.27-11.22,32.62-9.44,40.99c-4.21,0.36-28.82-1.66-28.82-1.66l-7.85,5.99c0.01-3.78,0.13-8.21,0.48-13.24
	c0.08-1.21,0.2-2.54,0.34-3.97c2.69-0.41,11.07,1.06,11.07,1.06s2.85-3.5,0.77-6.24c-1.59-2.09-7.97-1.4-11.15-0.96
	c2.33-19.06,7.34-48.41,8.42-63.84c0-0.05,0.01-0.11,0.01-0.16c0.04-0.65,0.1-1.28,0.18-1.91c2.33-1.88,7.44-5.2,14.13-4.77
	c9.26,0.59,19.66,3.21,27.32,8.85C358.19,385.94,362.05,392.17,362.05,392.17z"/>
<path fill="#FFFFFF" stroke="#000000" stroke-miterlimit="10" d="M310.84,449.32c0,0-8.38-1.47-11.07-1.06
	c0.19-1.88,0.42-3.94,0.69-6.14c3.18-0.44,9.56-1.13,11.15,0.96C313.69,445.82,310.84,449.32,310.84,449.32z"/>
<path fill="#FFFFFF" stroke="#000000" stroke-miterlimit="10" d="M347.26,467.98c-2.42-0.48-6.93-0.72-12.72,1.99
	c-4.66,2.18-6.53,6.59-7.24,10.28c-0.66,3.33-0.38,6.07-0.38,6.07s-16.35,10.73-21.78,10.73c-3.63,0-5.91-8.06-7.02-13.42
	c0.2-0.58,0.38-1.1,0.54-1.52c1.45,0.39,4.45,1.09,7.46,1.22c4.19,0.18,11.76-2.4,11.76-2.4v-7.85c0,0-4.01,1.96-10.16,2.41
	c-3.71,0.27-6.73,0.02-8.55-0.21c-0.11-2.49-0.23-5.78-0.22-9.81l7.85-5.99c0,0,24.61,2.02,28.82,1.66
	C338.09,461.14,344.09,464.06,347.26,467.98z"/>
<path fill="#FFFFFF" stroke="#000000" stroke-miterlimit="10" d="M341.69,502.9c-0.56,2.6-1.89,7.26-4.12,7.7
	c-3.12,0.62-18.62-4.72-18.62-4.72s-7.93,2.85-10.78,1.42c-2.86-1.42-2.94-3.38-2.94-3.38s-4.1,0.53-4.55-0.36
	c-0.44-0.89-1.78-4.54-1.78-4.54s-2.32,2.94-2.85-2.77c-0.37-3.87,0.99-9.34,2.07-12.62c1.11,5.36,3.39,13.42,7.02,13.42
	c5.43,0,21.78-10.73,21.78-10.73s-0.28-2.74,0.38-6.07c3.04,0.84,7.99,7.75,7.99,7.75s2.34,4.75,4.06,7.06
	C340.97,497.23,341.23,501.78,341.69,502.9z"/>
<path fill="#FFFFFF" stroke="#000000" stroke-miterlimit="10" d="M317.88,473.08v7.85c0,0-7.57,2.58-11.76,2.4
	c-3.01-0.13-6.01-0.83-7.46-1.22c0.27-0.71,0.49-1.16,0.6-1.27c0.22-0.22,0.07-2.13-0.09-5.56c1.82,0.23,4.84,0.48,8.55,0.21
	C313.87,475.04,317.88,473.08,317.88,473.08z"/>
<path fill="#FFFFFF" stroke="#000000" stroke-miterlimit="10" d="M379.65,337.95c-1.65,12.06-7.07,48.69-12.93,57.43
	c-0.67,1-1.36,1.95-2.06,2.86v-8.74c0,0-10.51-13.54-18.18-18.36c-7.6-4.77-27.68-6.74-37.2,3.52
	c2.56-16.19,15.37-26.16,19.03-31.32c3.18-4.48,11.18-23.31,14.08-30.23c0.5,3.13,1.48,5.28,2.49,7.78
	c2.32,5.7,18.18,19.96,20.14,21.03C366.39,342.67,371.67,342.8,379.65,337.95z"/>
<path fill="#FFFFFF" stroke="#000000" stroke-miterlimit="10" d="M390.72,386.09c-2.42-0.35-4.78-0.68-6.71-0.93
	c0.61-6.22,4.05-7.01,6.03-6.92C390.15,381.16,390.36,383.85,390.72,386.09z"/>
<path fill="#FFFFFF" stroke="#000000" stroke-miterlimit="10" d="M401.73,387.73c-3.08,0.5-6.77,1.99-7.57,6.14
	c-1.43,7.39,0,33.68,0,33.68s-4.23,2.79-11.02,2.93c-3.5-2.36-6.99-4.98-6.99-4.98s0.1-33.68,0.01-36
	c-0.09-2.32,1.33-4.72,3.38-4.81c0.49-0.02,2.18,0.17,4.47,0.47c1.93,0.25,4.29,0.58,6.71,0.93
	C394.78,386.68,399.03,387.32,401.73,387.73z"/>
<path fill="#FFFFFF" stroke="#000000" stroke-miterlimit="10" d="M405.74,429.69c0,0.53-3.21,4.45-3.21,4.45s-10.6,0-12.74,0
	c-0.28,0-0.72-0.15-1.27-0.4c-1.34-0.63-3.36-1.9-5.38-3.26c6.79-0.14,11.02-2.93,11.02-2.93s-1.43-26.29,0-33.68
	c0.8-4.15,4.49-5.64,7.57-6.14c1.75,0.27,2.85,0.44,2.85,0.44s0.05,1.83,0.13,4.72v0.08c0.16,5.4,0.41,14.43,0.63,22.19
	C405.56,422.97,405.74,429.48,405.74,429.69z"/>
<path fill="#FFFFFF" stroke="#000000" stroke-miterlimit="10" d="M501.63,431.63c-0.01,0.01-0.01,0.01-0.01,0.02
	c-0.44,1.51-3.12,3.03-6.06,3.83c-2.94,0.8-21.83,1.34-27.35,1.34c-5.53,0-6.15-4.37-6.15-4.37v-39.56c0-0.8,0.16-1.52,0.45-2.13
	l5.76,5.16v22.86c0,0-0.36,2.68,3.32,3.04c3.18,0.3,24.34,0.08,30.11,0.02C501.79,425.6,501.9,430.64,501.63,431.63z"/>
<path fill="#FFFFFF" stroke="#000000" stroke-miterlimit="10" d="M541.19,418.74c-5.87,0.03-20.65,0.09-23.5-0.01
	c-3.56-0.12-4.28-2.73-4.28-2.73v-22.46l-7.12-8.24c1.09-0.05,2.47-0.09,4.02-0.14h0.01c6.53-0.18,16.2-0.38,21.51-0.49
	c2.34-0.04,3.83-0.07,3.83-0.07l4.99,4.72L541.19,418.74z"/>
<path fill="#FFFFFF" stroke="#000000" stroke-miterlimit="10" d="M501.7,421.84c-5.77,0.06-26.93,0.28-30.11-0.02
	c-3.68-0.36-3.32-3.04-3.32-3.04v-22.86l-5.76-5.16c0.52-1.11,1.46-1.85,2.67-1.97c0.63-0.06,4.09-0.09,8.59-0.09
	c8.89-0.03,21.84,0.03,25.09,0.09c0.54,0.01,1,0.16,1.41,0.45c3.33,2.27,2.71,12.7,2.87,18.26c0.17,6.24-1.43,9.53-1.52,10.07
	C501.59,417.77,501.64,419.57,501.7,421.84z"/>
<polygon fill="#FFFFFF" stroke="#000000" stroke-miterlimit="10" points="456.18,395.03 456.18,415.43 451.19,421.98 416.88,420.6 
	411.35,414.36 411.35,395.03 "/>
<path fill="#FFFFFF" stroke="#000000" stroke-miterlimit="10" d="M438.98,339.6c-1.19,6.63-7.41,32.22-2.25,53.29h-26.49
	c-8.14-13.48,0.43-44.26,1.11-54.18c-6.23-6.92-14.01-31.06-17.38-42.21c6.34,3.44,28.95,15.4,37.34,16.01
	C434.34,325.16,440.23,332.65,438.98,339.6z"/>
<path fill="#FFFFFF" stroke="#000000" stroke-miterlimit="10" d="M549.21,330.57c-2.74,2.59-5.48,4.75-7.88,5.82
	c0,0-4.82,25.31-8.29,42.39c-0.07,0.37-0.15,0.74-0.23,1.1c-12.73-1.07-19.41,2.76-22.49,5.28h-0.01c-1.55,0.05-2.93,0.09-4.02,0.14
	c-0.41,0.01-0.78,0.03-1.1,0.04c-3.76,0.17-4.75,2.18-4.92,3.9c-0.41-0.29-0.87-0.44-1.41-0.45c-3.25-0.06-16.2-0.12-25.09-0.09
	l4.77-5.06c0,0-2.31-32.28-1.6-42.44c8.78-4.39,26.48-28.4,32.5-36.82c10.72,3.32,19.36,6.23,19.36,6.23l1.49,5.29
	C530.29,315.9,543.36,324.42,549.21,330.57z"/>
<path fill="#FFFFFF" stroke="#000000" stroke-miterlimit="10" d="M524.95,613.89c-0.69,6.68-2.36,20.98-4.83,29.32l-0.53-1.83
	c-19.48-19.96-45.15-62.26-45.86-65.82c-0.71-3.56-8.08-46.34-8.08-46.34c-3.8,28.28-19.25,56.08-19.25,56.08s0.24,24.95-1.66,33.51
	c-0.7,3.16-3.02,6.73-5.68,9.99v0.01c-2.32,2.86-4.9,5.47-6.85,7.34c-1.85,1.77-3.15,2.86-3.15,2.86s-12.12-1.19-17.35-6.42
	c-0.98-0.98-2.21-2.26-3.54-3.68c-4.01-4.24-9.06-9.82-11.81-12.86c1.06-1.05,1.76-2.22,1.57-3.42
	c-1.66-10.46,2.14-85.31,4.28-109.48c1.89-21.52,5.64-76.37,6.44-88.15l0.12-0.01l7.04,8.02l36,1.42l7.49-8.2l-0.03-0.95h2.79v17.17
	c0,0,0.62,4.37,6.15,4.37c5.52,0,24.41-0.54,27.35-1.34c2.94-0.8,5.62-2.32,6.06-3.83c0-0.01,0-0.01,0.01-0.02l4.15-0.07
	C506.54,452.23,512.01,589.4,524.95,613.89z"/>
<path fill="#FFFFFF" stroke="#000000" stroke-miterlimit="10" d="M476.94,341.2c-0.71,10.16,1.6,42.44,1.6,42.44l-4.77,5.06
	c-4.5,0-7.96,0.03-8.59,0.09c-1.21,0.12-2.15,0.86-2.67,1.97c-0.29,0.61-0.45,1.33-0.45,2.13h-25.33
	c-5.16-21.07,1.06-46.66,2.25-53.29c1.25-6.95-4.64-14.44-7.67-27.09c11.23-2.85,31.01-8.91,45.63-16.93
	c8.23,1.54,21.47,5.39,32.5,8.8C503.42,312.8,485.72,336.81,476.94,341.2z"/>
<path fill="#FFFFFF" stroke="#000000" stroke-miterlimit="10" d="M656.23,936.03v13.79c0,0-9.27,6.65-19.49,10.21
	c-10.22,3.57-23.76,5.47-33.27,0c-4.18-2.4-8.64-6.89-12.33-11.14c0,0,0,0,0-0.01c0.98-2.8,2.53-6.78,4.6-10.6
	c5.12,4.62,11.86,9.19,20.33,12.01c28.18-4.97,37.75-13.02,39.74-14.99C656.08,935.77,656.23,936.03,656.23,936.03z"/>
<path fill="#FFFFFF" stroke="#000000" stroke-miterlimit="10" d="M569.2,741.55l-4.7,0.35c0,0-9.63,15.62-14.83,23.54
	c-0.21-0.63-0.41-1.27-0.61-1.92c-6.24-20.23-8.53-48.24-9.34-62.8c3.34,2.89,8.69,7.96,10.29,11.95c1.19-0.32,2.49-0.66,3.81-1
	L569.2,741.55z"/>
<path fill="#FFFFFF" stroke="#000000" stroke-miterlimit="10" d="M545.81,636.76c-7.73-3.47-16.3-3.27-20.51,4.38
	c-1.59,2.89-2.35,6.97-2.44,11.61l-2.74-9.54c2.47-8.34,4.14-22.64,4.83-29.32c0.11,0.22,0.23,0.44,0.35,0.64
	C531.31,624.86,538.84,632.22,545.81,636.76z"/>
<path fill="#FFFFFF" stroke="#000000" stroke-miterlimit="10" d="M595.74,938.28c-2.07,3.82-3.62,7.8-4.6,10.6
	c-4.68-5.41-8.1-10.47-8.1-10.47s1.2-9.27,1.39-13.51C586.29,927.85,590,933.1,595.74,938.28z"/>
<path fill="#FFFFFF" stroke="#000000" stroke-miterlimit="10" d="M649.34,924.82c-2.88-1.42-5.71-2.33-5.71-2.33
	s-4.75,5.94-6.18,9.74c-6.17-1.9-17.11,2.38-17.11,2.38s-6.41-3.57-16.15-6.42c-3.37,2.05-6.21,5.97-8.45,10.09
	c-5.74-5.18-9.45-10.43-11.31-13.38v-0.01c0.02-0.37,0.03-0.69,0.03-0.97c0-3.57-4.99-9.98-5.46-15.21
	c-0.48-5.23,6.18-17.82,6.18-17.82s-0.72-2.62-0.95-8.8c-0.24-6.17,4.27-10.69,5.22-14.02c0.47-1.66-3.25-13.49-7.28-25.55
	c4.39,1.99,10.89,5.26,12.27,7.73c2.14,3.8,2.86,6.66,2.86,6.66l20.67-3.09c0,0-0.42-9.31,3.78-15.19l0.26,20.89
	c0,0,11.64,17.58,13.3,22.57c1.67,4.99-1.18,10.7-1.18,10.7s4.99,11.17,4.75,18.29C642.37,914.67,646.18,920,649.34,924.82z"/>
<path fill="#FFFFFF" stroke="#000000" stroke-miterlimit="10" d="M621.3,802.73l0.45,35.89v0.01c-4.2,5.88-3.78,15.19-3.78,15.19
	l-20.67,3.09c0,0-0.72-2.86-2.86-6.66c-1.38-2.47-7.88-5.74-12.27-7.73c-4.05-12.11-8.4-24.46-9.11-26.96
	c-1.4-4.88-14.59-22.7-23.39-50.12c5.2-7.92,14.83-23.54,14.83-23.54l4.7-0.35l0.06,0.11l6.89-0.63l11.4-1.03
	c0,0,18.52,15.33,36.3,23.6C623.51,784.61,621.3,802.73,621.3,802.73z"/>
<path fill="#FFFFFF" stroke="#000000" stroke-miterlimit="10" d="M623.85,763.6c-17.78-8.27-36.3-23.6-36.3-23.6l-11.4,1.03
	l-6.95,0.52l-15.38-29.88c5.52-1.41,11.4-2.8,11.4-2.8l1.66-45.63c0,0,7.43-4.77,11.75-16.15c4.74,11.96,9.05,24.26,11.54,31.6
	c8.08,7.84,31.36,47.05,31.36,47.05C623.59,737.18,624.07,750.92,623.85,763.6z"/>
<path fill="#FFFFFF" stroke="#000000" stroke-miterlimit="10" d="M541.28,423.63l-6.25,5.47l-2.31,2.01l-26.94,0.45l-4.15,0.07
	c0.27-0.99,0.16-6.03,0.07-9.79c-0.06-2.27-0.11-4.07-0.08-4.27c0.09-0.54,1.69-3.83,1.52-10.07c-0.16-5.56,0.46-15.99-2.87-18.26
	c0.17-1.72,1.16-3.73,4.92-3.9c0.32-0.01,0.69-0.03,1.1-0.04l7.12,8.24V416c0,0,0.72,2.61,4.28,2.73c2.85,0.1,17.63,0.04,23.5,0.01
	L541.28,423.63z"/>
<path fill="#FFFFFF" stroke="#000000" stroke-miterlimit="10" d="M532.81,379.88c-0.34,1.7-0.67,3.31-0.98,4.79
	c-5.31,0.11-14.98,0.31-21.51,0.49C513.4,382.64,520.08,378.81,532.81,379.88z"/>
<path fill="#FFFFFF" stroke="#000000" stroke-miterlimit="10" d="M546.18,422.83l-2.08,2.06l-5.19,5.15l-3.88-0.94l6.25-5.47
	l-0.09-4.89l-0.54-29.42l-4.99-4.72c0,0-1.49,0.03-3.83,0.07c0.31-1.48,0.64-3.09,0.98-4.79c0.08-0.36,0.16-0.73,0.23-1.1
	c1.88,0.1,4.94,0.29,4.94,0.29l7.66,6.27L546.18,422.83z"/>
<path fill="#FFFFFF" stroke="#000000" stroke-miterlimit="10" d="M570.25,586.61c-0.26,12.4-0.85,26.73-1.77,37.52
	c-0.67,7.86-1.52,13.84-2.55,15.83c-1.7,3.28-7.75,3.22-15.16-0.38c-1.57-1.1-3.24-2.05-4.96-2.82c-6.97-4.54-14.5-11.9-20.51-22.23
	c-0.12-0.2-0.24-0.42-0.35-0.64c-12.94-24.49-18.41-161.66-19.17-182.33l26.94-0.45l2.31-2.01l3.88,0.94l5.19-5.15
	c0.82,4.69,2.39,14.42,3.42,24.49l-14.35,3.92l-18.09,30.04c0,0,14.97,67.27,18.18,87.23c5.7,4.63,29.67,16.04,29.67,16.04H570.25z"
	/>
<path fill="#FFFFFF" stroke="#000000" stroke-miterlimit="10" d="M655.81,935.3c-1.99,1.97-11.56,10.02-39.74,14.99
	c-8.47-2.82-15.21-7.39-20.33-12.01c2.24-4.12,5.08-8.04,8.45-10.09c9.74,2.85,16.15,6.42,16.15,6.42s10.94-4.28,17.11-2.38
	c1.43-3.8,6.18-9.74,6.18-9.74s2.83,0.91,5.71,2.33C652.41,929.48,654.87,933.66,655.81,935.3z"/>
<path fill="#FFFFFF" stroke="#000000" stroke-miterlimit="10" d="M442.6,633.3v41.59c0,0-0.19,0.24-0.55,0.68
	c-3.33,4.13-20.83,25.8-22.97,29.02c0.17,7.01,3.75,41.96,5.48,58.62c-14.28-8.7-30.2-17.27-30.2-17.27l-6.23-0.63
	c-1.58-24.04,2.79-45.29,5.01-54.23h0.01c1.5,0.66,3.16,1.08,5.02,1.21c19.6,1.43,34.04-32.79,34.04-32.79v-23.35
	c1.95-1.87,4.53-4.48,6.85-7.34L442.6,633.3z"/>
<path fill="#FFFFFF" stroke="#000000" stroke-miterlimit="10" d="M442.01,774.83c-4.16-3.28-10.62-7.47-17.45-11.62
	c-1.73-16.66-5.31-51.61-5.48-58.62c2.14-3.22,19.64-24.89,22.97-29.02c3.58,8.9,13.04,33.61,13.62,47.08
	C456.2,735.03,449.23,758.46,442.01,774.83z"/>
<path fill="#FFFFFF" stroke="#000000" stroke-miterlimit="10" d="M442.01,774.83c-2.49,5.63-5,10.42-7.25,13.64
	c-0.08,4.63-0.74,16.43-1.54,29.74c-6.99,7.74-20.76,16.77-21.27,17.07c-0.6,0.36-3.33,14.38-3.33,14.38h-13.78
	c0,0-1.54-10.1-1.31-12.71c-1.6-1.35-3.65-4.77-5.2-7.64l-2.28-28.96c0,0-8.32-9.98-12.6-52.04c1.43-2.85,3.33-4.16,3.33-4.16
	l11.35,1.16l6.23,0.63c0,0,15.92,8.57,30.2,17.27C431.39,767.36,437.85,771.55,442.01,774.83z"/>
<path fill="#FFFFFF" stroke="#000000" stroke-miterlimit="10" d="M440.33,908.45c-1.35,4.3-2.48,10.14-2.24,17.31
	c-19.07,9.62-37.61,6.77-37.61,6.77l-4.27,1.02c-1.36-2.49-9.33-10.29-9.33-10.29l-28.52,8.5l-7.36-4.04l0.74-7.65
	c0.09-0.01,0.18-0.01,0.27-0.02c1.76-4.14,3.68-7.86,6.12-11.26c4.31-0.06,11.17,1.46,19.36,9.13c9.81-3.57,14.97-11.23,14.97-11.23
	s-7-10.12-15.26-12.76c1.22-0.57,2.51-1.13,3.86-1.68c2.85-4.45,0.62-9.62,2.49-12.56s7.58-14.88,7.58-14.88l-2.8-35.5
	c1.55,2.87,3.6,6.29,5.2,7.64c-0.23,2.61,1.31,12.71,1.31,12.71h13.78c0,0,2.73-14.02,3.33-14.38c0.51-0.3,14.28-9.33,21.27-17.07
	c-1.47,24.3-3.45,53.67-3.45,53.67s9.51,4.27,3.09,19.48c2.5,2.9,5.45,9.01,7.47,17.08C440.33,908.44,440.33,908.44,440.33,908.45z"
	/>
<path fill="#FFFFFF" stroke="#000000" stroke-miterlimit="10" d="M392.46,906.69c0,0-5.16,7.66-14.97,11.23
	c-8.19-7.67-15.05-9.19-19.36-9.13c4.17-5.77,9.88-10.58,19.07-14.86C385.46,896.57,392.46,906.69,392.46,906.69z"/>
<path fill="#FFFFFF" stroke="#000000" stroke-miterlimit="10" d="M442.74,931.04c-6.32,4.52-38.63,9.03-38.63,9.03
	s-2.75,1.76-7.49,4.03c0,0,0.95-8.07-0.41-10.55l4.27-1.02c0,0,18.54,2.85,37.61-6.77c-0.24-7.17,0.89-13.01,2.24-17.31
	C441.97,914.94,443.01,922.68,442.74,931.04z"/>
<path fill="#FFFFFF" stroke="#000000" stroke-miterlimit="10" d="M396.21,933.55l-18.18,4.33c0,0-1.43,3.38-2.14,3.56
	c-0.71,0.18-24.42,5.17-37.07,5.17c-8.65,0-20.73-4.09-27.49-6.67c0.53-0.74,1.23-1.44,2.18-2.06c4.79-3.38,16.66-16.29,38.23-17.81
	l-0.74,7.65l7.36,4.04l28.52-8.5C386.88,923.26,394.85,931.06,396.21,933.55z"/>
<path fill="#FFFFFF" stroke="#000000" stroke-miterlimit="10" d="M396.62,944.1c-8.12,3.88-22.11,9.26-38.2,9.82
	c-25.48,0.89-48.11-6.78-48.11-6.78s-1.31-3.92,1.02-7.2c6.76,2.58,18.84,6.67,27.49,6.67c12.65,0,36.36-4.99,37.07-5.17
	c0.71-0.18,2.14-3.56,2.14-3.56l18.18-4.33C397.57,936.03,396.62,944.1,396.62,944.1z"/>
<path fill="#FFFFFF" stroke="#000000" stroke-miterlimit="10" d="M408.17,628.91c-2.85-1.29-6.23-2.26-10.36-2.26
	c-5.03,0-8.7,2.36-11.3,5.9c0.03-6.66,0.06-12.53,0.08-15.88c1.6,2.08,2.84,3.56,2.84,3.56s4.45-1.76,6.93-4.18
	C399.11,619.09,404.16,624.67,408.17,628.91z"/>
<path fill="#FFFFFF" stroke="#000000" stroke-miterlimit="10" d="M388.13,745.31l-11.35-1.16c0,0-1.9,1.31-3.33,4.16
	c-1.6-26.84,5.9-54.58,10.25-68.54c1.89,5.1,4.85,9.32,9.44,11.31C390.92,700.02,386.55,721.27,388.13,745.31z"/>
<path fill="#FFFFFF" stroke="#000000" stroke-miterlimit="10" d="M432.21,636.15v23.35c0,0-14.44,34.22-34.04,32.79
	c-1.86-0.13-3.52-0.55-5.02-1.21h-0.01c-4.59-1.99-7.55-6.21-9.44-11.31c-3.98-10.79-3.12-25.54-2.46-31.74
	c0.58-5.47,2.17-11.3,5.27-15.48c2.6-3.54,6.27-5.9,11.3-5.9c4.13,0,7.51,0.97,10.36,2.26c1.33,1.42,2.56,2.7,3.54,3.68
	c5.23,5.23,17.35,6.42,17.35,6.42S430.36,637.92,432.21,636.15z"/>
<path fill="#FFFFFF" stroke="#000000" stroke-miterlimit="10" d="M501,125.08c-1.29,2.08-5.16,4.94-6.83,6.12
	c-0.35-2.35-0.65-4.16-0.81-5.13v-0.01c0.19-0.76,0.42-1.31,0.73-1.59l4.35-3.96c0,0,0.14-5.88,0.14-13.55c0-0.89,0-1.81-0.01-2.75
	c1.45-0.76,4.42-1.97,5.58,2.34C505.57,111.84,502.66,122.41,501,125.08z"/>
<path fill="#FFFFFF" stroke="#000000" stroke-miterlimit="10" d="M429.3,127.53c-4.1-0.85-6.26-6.23-6.6-7.73
	c-0.36-1.61-1.78-13.84,0.3-15.57c1.44-1.19,2.6-0.41,3.17,0.18c0,0,0,0,0,0.01c-0.06,3.28,0.1,7.28,0.96,10.8
	c0.29,1.2,0.61,2.77,0.93,4.58C428.47,122.1,428.89,124.78,429.3,127.53z"/>
<path fill="#FFFFFF" stroke="#000000" stroke-miterlimit="10" d="M479.43,121.39c-1.46-0.14-3.34-0.42-5.36-0.75
	c-6.38-1.07-14.12-2.75-14.12-2.75s-0.18-2.44-4.28-2.28c-4.1,0.16-4.51,2.4-4.51,2.4l-16.4,6.95c0,0-2.03-1.57-4.03-3.11l2.9,22.68
	l12.66,16.66l4.63-5.25l7.22,0.26l5.61,4.99c0,0,19.16-14.08,20.94-15.96c0.32-3.95,4.49-19.65,5.3-22.68
	c0.09-0.33,0.14-0.51,0.14-0.51S485.49,121.99,479.43,121.39z M456.13,118.59l2.71,13.6l-6.63-0.2l0.36-1.22l2.24-7.68
	L456.13,118.59z M455.34,148.93l-3.68-3.57h8.14L455.34,148.93z M459.61,140.56c-1.29,0.43-2.59,0.84-3.89,1.24l-0.13,0.04
	l-0.13-0.03c-1.5-0.36-2.98-0.74-4.46-1.14c-0.6,0.18-1.14,0.27-1.72,0.39c-0.61,0.12-1.23,0.23-1.85,0.33
	c-1.24,0.2-2.48,0.37-3.73,0.5c1.2-0.38,2.4-0.73,3.6-1.07l1.81-0.5c0.59-0.17,1.22-0.34,1.74-0.53l0.13-0.04l0.13,0.03
	c1.49,0.32,2.97,0.67,4.44,1.04c1.3-0.39,2.61-0.76,3.93-1.12l0.12-0.03l0.11,0.03c2.18,0.63,4.35,1.31,6.49,2.1
	C463.98,141.47,461.79,141.04,459.61,140.56z"/>
<path fill="#FFFFFF" stroke="#000000" stroke-miterlimit="10" d="M481.47,103.38c-1.56-0.13-3.28-0.2-5.02-0.17
	c-2.69,0.03-5.41,0.31-7.53,0.96c-3.49,1.07-10.52,2.32-9.18,4.28c1.34,1.96,2.09,6.33,11.52,6.33c1.09,0,2.06-0.08,2.92-0.22
	c6.55-1.08,6.84-5.9,8.55-8.66C483.38,104.84,482.71,103.48,481.47,103.38z M465.84,110.1c-0.34-0.3,4.68-5.93,13.64,0.22
	C476.54,112.55,471.68,115.22,465.84,110.1z"/>
<path fill="#FFFFFF" stroke="#000000" stroke-miterlimit="10" d="M451.14,108.01c-2.74-2.54-8.77-3.57-14.56-3.84
	c-5.8-0.26-9.99-0.89-8.74,1.34s3.74,8.02,6.5,9.27c0.56,0.25,1.39,0.41,2.37,0.49c3.87,0.32,10.09-0.54,11.45-1.47
	C449.85,112.64,452.01,108.81,451.14,108.01z M440.46,113.04c-3.74-0.16-7.11-3.43-7.11-3.43s2.6-2.58,6.46-2.58s6,2.58,6,2.58
	S444.21,113.2,440.46,113.04z"/>
<path fill="#FFFFFF" stroke="#000000" stroke-miterlimit="10" d="M465.84,110.1c5.84,5.12,10.7,2.45,13.64,0.22
	C470.52,104.17,465.5,109.8,465.84,110.1z M471.99,112.5c-1.24,0-2.25-1.01-2.25-2.25s1.01-2.25,2.25-2.25
	c1.25,0,2.25,1.01,2.25,2.25S473.24,112.5,471.99,112.5z"/>
<path fill="#FFFFFF" stroke="#000000" stroke-miterlimit="10" d="M439.81,107.03c-3.86,0-6.46,2.58-6.46,2.58s3.37,3.27,7.11,3.43
	c3.75,0.16,5.35-3.43,5.35-3.43S443.67,107.03,439.81,107.03z M440.36,112.53c-1.38,0-2.5-1.12-2.5-2.49c0-1.38,1.12-2.5,2.5-2.5
	s2.49,1.12,2.49,2.5C442.85,111.41,441.74,112.53,440.36,112.53z"/>
<circle fill="#FFFFFF" stroke="#000000" stroke-miterlimit="10" cx="471.99" cy="110.25" r="2.25"/>
<path fill="#FFFFFF" stroke="#000000" stroke-miterlimit="10" d="M442.85,110.04c0,1.37-1.11,2.49-2.49,2.49s-2.5-1.12-2.5-2.49
	c0-1.38,1.12-2.5,2.5-2.5S442.85,108.66,442.85,110.04z"/>
<path fill="#FFFFFF" stroke="#000000" stroke-miterlimit="10" d="M466.2,141.8c-2.22-0.33-4.41-0.76-6.59-1.24
	c-1.29,0.43-2.59,0.84-3.89,1.24l-0.13,0.04l-0.13-0.03c-1.5-0.36-2.98-0.74-4.46-1.14c-0.6,0.18-1.14,0.27-1.72,0.39
	c-0.61,0.12-1.23,0.23-1.85,0.33c-1.24,0.2-2.48,0.37-3.73,0.5c1.2-0.38,2.4-0.73,3.6-1.07l1.81-0.5c0.59-0.17,1.22-0.34,1.74-0.53
	l0.13-0.04l0.13,0.03c1.49,0.32,2.97,0.67,4.44,1.04c1.3-0.39,2.61-0.76,3.93-1.12l0.12-0.03l0.11,0.03
	C461.89,140.33,464.06,141.01,466.2,141.8z"/>
<polygon fill="#FFFFFF" stroke="#000000" stroke-miterlimit="10" points="459.8,145.36 455.34,148.93 451.66,145.36 "/>
<polygon fill="#FFFFFF" stroke="#000000" stroke-miterlimit="10" points="458.84,132.19 452.21,131.99 452.57,130.77 454.81,123.09 
	456.13,118.59 "/>
<path fill="#FFFFFF" stroke="#000000" stroke-miterlimit="10" d="M475.42,174.75c0.92,2.75,3.14,9.82,4.44,13.98
	c-17.05,2.46-30.37,9.48-30.37,9.48s-0.03-0.02-0.1-0.05h-0.01c-0.21-0.09-0.7-0.31-1.44-0.62c2.98-6.35,2.98-18.34,2.98-18.34
	L440.73,167l0.6-7.62c2.08,2.54,3.95,4.65,5.04,5.48c4.91,1.33,15.69,1.42,17.65,0.71c1.26-0.46,10.6-6.07,17.85-11.77
	C480.69,158.93,477.69,170.68,475.42,174.75z"/>
<polygon fill="#FFFFFF" stroke="#000000" stroke-miterlimit="10" points="461.76,256.8 463.28,269.22 435.76,257.14 406.25,267.36 
	409.17,258.33 414.09,243.12 403.63,223.06 428.58,222.51 447.1,203.83 452.97,219.84 478.9,220.31 459.8,240.75 "/>
<path fill="#FFFFFF" stroke="#000000" stroke-miterlimit="10" d="M549.47,510.33l-2.71,4.97c-0.03-0.05-0.05-0.07-0.05-0.07
	s-5.17-3.12-8.02-5.61c-2.85-2.5-1.31-5.17-1.31-5.17s3.09-9.09,4.96-11.14c1.24-1.35,3.94-1.85,5.64-2.03
	c1.02,5.93,1.41,16.5,1.48,18.66C549.47,510.19,549.47,510.33,549.47,510.33z"/>
<path fill="#FFFFFF" stroke="#000000" stroke-miterlimit="10" d="M547.98,491.28c-1.7,0.18-4.4,0.68-5.64,2.03
	c-1.87,2.05-4.96,11.14-4.96,11.14c-2.02-1.42-7.07-6.68-7.78-8.46c-0.71-1.79,1.7-5.44,4.37-7.67c1.44-1.2,2.05-4.25,2.53-7.21
	c3.7,1.48,9.3,4.22,10.57,6.77C547.42,488.57,547.72,489.78,547.98,491.28z"/>
<path fill="#FFFFFF" stroke="#000000" stroke-miterlimit="10" d="M570.25,586.61h-7.32c0,0-23.97-11.41-29.67-16.04
	c-3.21-19.96-18.18-87.23-18.18-87.23l18.09-30.04l14.35-3.92c0.7,6.88,1.14,13.92,0.89,19.63c-2.4,0.59-4.82,1.52-4.82,1.52
	l0.57,0.67c-1.8,0.6-5.24,1.94-6.27,3.76c-0.67,1.16-0.98,3.62-1.39,6.15c-0.48,2.96-1.09,6.01-2.53,7.21
	c-2.67,2.23-5.08,5.88-4.37,7.67c0.71,1.78,5.76,7.04,7.78,8.46c0,0-1.54,2.67,1.31,5.17c2.85,2.49,8.02,5.61,8.02,5.61
	s0.02,0.02,0.05,0.07c0.5,0.77,5.01,7.69,6.28,7.77c0.83,0.06,4.56,0.04,7.24,0.03c2.89,8.56,9.37,28.92,9.93,40.34
	C570.43,568.09,570.44,576.73,570.25,586.61z"/>
<path fill="#FFFFFF" stroke="#000000" stroke-miterlimit="10" d="M383.2,575.8c-2.14,1.27-6,2.89-9.8,4.36
	c-4.85-21.93-10.19-52.06-8.74-69.51c1.44-17.26,10.2-42.54,16.89-59.82l14.48,23.46C396.03,474.29,382.25,528.51,383.2,575.8z"/>
<path fill="#FFFFFF" stroke="#000000" stroke-miterlimit="10" d="M578.63,647.09c-4.32,11.38-11.75,16.15-11.75,16.15l-1.66,45.63
	c0,0-5.88,1.39-11.4,2.8c-1.32,0.34-2.62,0.68-3.81,1c-1.6-3.99-6.95-9.06-10.29-11.95c-0.13-2.32-0.22-4.29-0.28-5.84
	c9.97,6.37,23.37,6.96,24.11-15.72c0.84-25.42,1.19-24.95-7.08-34.5c-1.63-1.88-3.57-3.61-5.7-5.08c7.41,3.6,13.46,3.66,15.16,0.38
	c1.03-1.99,1.88-7.97,2.55-15.83C571.74,630.37,575.29,638.65,578.63,647.09z"/>
<path fill="#FFFFFF" stroke="#000000" stroke-miterlimit="10" d="M563.55,679.16c-0.74,22.68-14.14,22.09-24.11,15.72
	c-1.21-0.77-2.37-1.63-3.45-2.54c-7.5-6.33-13.4-25.51-13.13-39.58c0-0.01,0-0.01,0-0.01c0.09-4.64,0.85-8.72,2.44-11.61
	c4.21-7.65,12.78-7.85,20.51-4.38c1.7,1.11,3.36,2.05,4.96,2.82c2.13,1.47,4.07,3.2,5.7,5.08
	C564.74,654.21,564.39,653.74,563.55,679.16z"/>
<path fill="#FFFFFF" stroke="#000000" stroke-miterlimit="10" d="M592.69,367.63c-62.8,0-113.7,50.9-113.7,113.7
	s50.9,113.7,113.7,113.7c62.8,0,113.7-50.9,113.7-113.7S655.49,367.63,592.69,367.63z M638.88,543.79c-0.6,0.45-1.2,0.89-1.83,1.32
	c-12.55,8.87-27.88,14.08-44.44,14.08c-16.15,0-31.15-4.98-43.54-13.45c-0.44-0.29-0.86-0.58-1.28-0.87
	c-19.59-14.01-32.36-36.94-32.36-62.86c0-7.91,1.19-15.54,3.41-22.73c0.15-0.48,0.29-0.96,0.45-1.44
	c10.09-30.64,38.85-52.8,72.81-53.02h1.16c34.51,0.29,63.61,23.21,73.18,54.64v0.01c2.18,7.11,3.35,14.69,3.35,22.52
	C669.8,507.27,657.65,529.7,638.88,543.79z"/>
<path fill="#FFFFFF" stroke="#000000" stroke-miterlimit="10" d="M409.04,392.95l-0.24,19.8c0,0,0,0.01,0,0.03
	c-0.01,0.16-0.06,0.93-0.15,2.22l-3.31,0.16c-0.22-7.76-0.47-16.79-0.63-22.19C406.04,392.97,407.62,392.96,409.04,392.95z"/>
<path fill="#FFFFFF" stroke="#000000" stroke-miterlimit="10" d="M459.27,415.28l-0.78-22.39h-45.47c0,0-1.81,0.03-3.98,0.06
	l-0.24,19.8c0,0,0,0.01,0,0.03l-0.03,2.21l7.04,8.02l36,1.42l7.49-8.2L459.27,415.28z M456.18,415.43l-4.99,6.55l-34.31-1.38
	l-5.53-6.24v-19.33h44.83V415.43z"/>
<polygon fill="#FFFFFF" stroke="#000000" stroke-miterlimit="10" points="462.06,392.89 462.06,415.28 459.27,415.28 458.49,392.89 
	"/>
<path fill="#FFFFFF" stroke="#000000" stroke-miterlimit="10" d="M594.47,307.18c-98.85,0-178.98,78.88-178.98,176.16
	c0,97.28,80.13,176.15,178.98,176.15c98.83,0,178.98-78.86,178.98-176.15C773.45,386.06,693.31,307.18,594.47,307.18z
	 M592.11,628.73c-80.5,0-145.76-65.25-145.76-145.76c0-80.49,65.25-145.76,145.76-145.76c80.49,0,145.76,65.27,145.76,145.76
	C737.86,563.48,672.6,628.73,592.11,628.73z"/>
<path fill="#FFFFFF" stroke="#000000" stroke-miterlimit="10" d="M592.11,337.22c-80.5,0-145.76,65.27-145.76,145.76
	c0,80.5,65.25,145.76,145.76,145.76c80.49,0,145.76-65.25,145.76-145.76C737.86,402.49,672.6,337.22,592.11,337.22z M592.69,595.02
	c-62.8,0-113.7-50.9-113.7-113.7s50.9-113.7,113.7-113.7c62.8,0,113.7,50.9,113.7,113.7S655.49,595.02,592.69,595.02z"/>
<path fill="#FFFFFF" stroke="#000000" stroke-miterlimit="10" d="M563.2,492.11l-15.4,52.76c-19.59-14.01-32.36-36.94-32.36-62.86
	c0-7.91,1.19-15.54,3.41-22.73L563.2,492.11z"/>
<path fill="#FFFFFF" stroke="#000000" stroke-miterlimit="10" d="M592.11,404.83l-16.86,53.02H519.3
	C529.38,427.2,558.15,405.04,592.11,404.83z"/>
<path fill="#FFFFFF" stroke="#000000" stroke-miterlimit="10" d="M637.05,545.11c-12.55,8.87-27.88,14.08-44.44,14.08
	c-16.15,0-31.15-4.98-43.54-13.45l43.61-31.65L637.05,545.11z"/>
<path fill="#FFFFFF" stroke="#000000" stroke-miterlimit="10" d="M666.44,459.47l-55.76-1.63l-17.42-53.02
	C627.78,405.12,656.88,428.03,666.44,459.47z"/>
<path fill="#FFFFFF" stroke="#000000" stroke-miterlimit="10" d="M669.8,482.01c0,25.27-12.15,47.69-30.91,61.78l-16.85-51.45
	l44.41-32.86C668.62,466.59,669.8,474.17,669.8,482.01z"/>
<path fill="#FFFFFF" stroke="#000000" stroke-miterlimit="10" d="M666.44,459.48l-44.41,32.86l16.85,51.45
	c-0.6,0.45-1.2,0.89-1.83,1.32l-44.37-31.03l-43.61,31.65c-0.44-0.29-0.86-0.58-1.28-0.87l15.4-52.76l-44.35-32.83
	c0.15-0.48,0.29-0.96,0.45-1.44h55.95l16.86-53.02h1.16l17.42,53.02l55.76,1.63V459.48z"/>
</svg>
