<?xml version="1.0" encoding="utf-8"?>
<!-- Generator: Adobe Illustrator 25.2.0, SVG Export Plug-In . SVG Version: 6.00 Build 0)  -->
<svg version="1.1" baseProfile="tiny" id="Layer_1" xmlns="http://www.w3.org/2000/svg" xmlns:xlink="http://www.w3.org/1999/xlink"
	 x="0px" y="0px" viewBox="0 0 1000 1000" overflow="visible" xml:space="preserve">
<path fill="#FFFFFF" stroke="#000000" stroke-miterlimit="10" d="M570.93,155.5c0,0,1.17-20.48-10.34-32.59
	c-0.72,5.76-3.25,10.76-3.25,10.76s5.04,6.42,5.21,7.04c0.05,0.16,0.22,1.05,0.46,2.3c1.2,0.31,2.48,0.83,3.82,1.62
	c-1.26,0.03-2.41-0.04-3.53-0.07c0.44,2.39,0.98,5.34,1.31,7.17c0.21,0.22,0.32,0.35,0.32,0.35s-0.09,0.01-0.24,0.03
	c0.15,0.83,0.24,1.35,0.24,1.35s3.95,9.08,3.77,11.58c-0.17,2.49-6.95,11.31-6.95,11.31s-1.33-7.75-1.16-11.58
	c0.18-3.83-7.57-8.47-7.57-8.47s0.14-2.09,0.3-4.71c-0.13-0.04-0.23-0.07-0.3-0.1c0,0,0.11-0.11,0.32-0.28
	c0.09-1.31,0.17-2.74,0.25-4.09c-0.83,0.49-1.72,1.09-2.68,1.79c-0.59-1.67-0.59-1.67-0.59-1.67c0.37-0.28,1.56-1.57,3.41-2.72
	c0.1-1.86,0.14-3.2,0.09-3.28c-0.18-0.26-7.84-5.52-7.84-5.52s0.8-1.6,1.16-2.59c0.27-0.73,2.59-11.27,3.74-16.73
	c-2.31-0.9-4.88-1.55-7.75-1.89c-15.98-1.9-30.3,17.82-31.37,24.95c-1.07,7.13-2.85,18.71-2.85,18.71s2.23,6.6,1.43,8.92
	c-0.09,0.27-0.18,0.66-0.28,1.15c4.37,2.46,14.31,12.65,15.34,14.8c6.59-9.54,18.89-12.66,19.15-12.66
	c0.27,0,13.01,1.52,19.25,11.94c4.09-4.15,6.89-9.9,8.21-13.01C571.46,164.26,570.93,155.5,570.93,155.5z M529.05,141.78
	c5.23-0.36,10.81,4.87,10.81,4.87l-0.95,2.26c0,0-6.18-4.87-8.97-4.99c-2.79-0.12-9.92,4.04-9.92,4.04S523.82,142.13,529.05,141.78z
	 M522.47,152.19c0,0,4.35-3.73,6.94-3.64c2.58,0.09,7.66,3.39,7.66,3.39c-1.6,0.53-4.28,1.62-7.93,1.51
	C525.49,153.34,522.47,152.19,522.47,152.19z M556.16,170.99c-0.33,0.34-0.77,0.6-1.28,0.68c-0.52,0.08-1.02-0.04-1.45-0.24
	c-0.84-0.4-1.47-1-2.1-1.5c-0.29-0.24-0.66-0.51-0.8-0.51h-0.01c-0.01,0-0.02,0.02-0.08,0.08c-0.17,0.22-0.38,0.39-0.59,0.52
	c-0.86,0.5-1.76,0.62-2.64,0.63c-0.89,0-1.77-0.12-2.64-0.55c-0.21-0.11-0.42-0.26-0.62-0.44l-0.08-0.1
	c-0.33,0.07-0.73,0.21-1.11,0.34c-0.79,0.25-1.61,0.49-2.47,0.61c-0.86,0.11-1.81,0.13-2.67-0.34c-0.42-0.23-0.79-0.6-1-1
	c-0.26-0.38-0.38-0.84-0.46-1.29c-0.09-0.92,0.21-1.8,0.63-2.54c0.9-1.46,2.22-2.57,3.66-3.38c-1.31,0.99-2.53,2.17-3.23,3.62
	c-0.35,0.7-0.55,1.48-0.43,2.21c0.14,0.71,0.57,1.42,1.19,1.7c0.62,0.31,1.41,0.28,2.17,0.16c0.78-0.13,1.54-0.38,2.31-0.65
	c0.4-0.14,0.76-0.28,1.23-0.4c0.07-0.01,0.13-0.02,0.23-0.03c0.06,0,0.07-0.01,0.17,0c0.09,0.02,0.16,0.01,0.34,0.16l0.15,0.17
	l0.05,0.07c0.11,0.1,0.24,0.19,0.39,0.27c0.62,0.3,1.42,0.42,2.18,0.41c0.76,0,1.56-0.12,2.14-0.46l0.19-0.13l0.14-0.15
	c0.07-0.08,0.21-0.25,0.38-0.34c0.18-0.1,0.41-0.14,0.59-0.11c0.68,0.14,0.95,0.48,1.3,0.74c0.64,0.55,1.22,1.12,1.87,1.44
	c0.64,0.34,1.3,0.27,1.84-0.22c0.54-0.44,0.77-1.16,0.68-1.92c-0.08-0.77-0.38-1.52-0.76-2.24c-0.74-1.44-1.77-2.74-2.95-3.9
	c1.33,1,2.46,2.25,3.38,3.66c0.44,0.72,0.81,1.51,0.96,2.39C557.12,169.28,556.89,170.34,556.16,170.99z"/>
<path fill="#FFFFFF" stroke="#000000" stroke-miterlimit="10" d="M539.85,146.65l-0.95,2.26c0,0-6.18-4.87-8.97-4.99
	c-2.79-0.12-9.92,4.04-9.92,4.04s3.8-5.83,9.03-6.18C534.27,141.42,539.85,146.65,539.85,146.65z"/>
<path fill="#FFFFFF" stroke="#000000" stroke-miterlimit="10" d="M556.15,170.99c-0.33,0.34-0.77,0.6-1.28,0.68
	c-0.52,0.08-1.02-0.04-1.45-0.24c-0.84-0.4-1.47-1-2.1-1.5c-0.29-0.24-0.66-0.51-0.8-0.51h-0.01c-0.01,0-0.02,0.02-0.08,0.08
	c-0.17,0.22-0.38,0.39-0.59,0.52c-0.86,0.5-1.76,0.62-2.64,0.63c-0.89,0-1.77-0.12-2.64-0.55c-0.21-0.11-0.42-0.26-0.62-0.44
	l-0.08-0.1c-0.33,0.07-0.73,0.21-1.11,0.34c-0.79,0.25-1.61,0.49-2.47,0.61c-0.86,0.11-1.81,0.13-2.67-0.34c-0.42-0.23-0.79-0.6-1-1
	c-0.26-0.38-0.38-0.84-0.46-1.29c-0.09-0.92,0.21-1.8,0.63-2.54c0.9-1.46,2.22-2.57,3.66-3.38c-1.31,0.99-2.53,2.17-3.23,3.62
	c-0.35,0.7-0.55,1.48-0.43,2.21c0.14,0.71,0.57,1.42,1.19,1.7c0.62,0.31,1.41,0.28,2.17,0.16c0.78-0.13,1.54-0.38,2.31-0.65
	c0.4-0.14,0.76-0.28,1.23-0.4c0.07-0.01,0.13-0.02,0.23-0.03c0.06,0,0.07-0.01,0.17,0c0.09,0.02,0.16,0.01,0.34,0.16l0.15,0.17
	l0.05,0.07c0.11,0.1,0.24,0.19,0.39,0.27c0.62,0.3,1.42,0.42,2.18,0.41c0.76,0,1.56-0.12,2.14-0.46l0.19-0.13l0.14-0.15
	c0.07-0.08,0.21-0.25,0.38-0.34c0.18-0.1,0.41-0.14,0.59-0.11c0.68,0.14,0.95,0.48,1.3,0.74c0.64,0.55,1.22,1.12,1.87,1.44
	c0.64,0.34,1.3,0.27,1.84-0.22c0.54-0.44,0.77-1.16,0.68-1.92c-0.08-0.77-0.38-1.52-0.76-2.24c-0.74-1.44-1.77-2.74-2.95-3.9
	c1.33,1,2.46,2.25,3.38,3.66c0.44,0.72,0.81,1.51,0.96,2.39C557.11,169.28,556.88,170.34,556.15,170.99z"/>
<path fill="#FFFFFF" stroke="#000000" stroke-miterlimit="10" d="M564.68,152.11c-0.94,0.12-4.42,0.56-5.39,0.72
	c-1.01,0.16-4.72-0.82-5.98-1.24c0.01-0.13,0.02-0.25,0.02-0.38c0.92-0.79,3.69-2.96,6.1-2.66c2.34,0.29,4.43,2.35,5.17,3.18
	C564.63,151.86,564.65,151.99,564.68,152.11z"/>
<path fill="#FFFFFF" stroke="#000000" stroke-miterlimit="10" d="M568.69,165.04c-0.17,2.49-6.95,11.31-6.95,11.31
	s-1.33-7.75-1.16-11.58c0.18-3.83-7.57-8.47-7.57-8.47s0.14-2.09,0.3-4.71c1.26,0.42,4.97,1.4,5.98,1.24
	c0.97-0.16,4.45-0.6,5.39-0.72c0.15,0.83,0.24,1.35,0.24,1.35S568.87,162.54,568.69,165.04z"/>
<path fill="#FFFFFF" stroke="#000000" stroke-miterlimit="10" d="M564.6,151.73c-0.74-0.83-2.83-2.89-5.17-3.18
	c-2.41-0.3-5.18,1.87-6.1,2.66c0.09-1.31,0.17-2.74,0.25-4.09c4.14-2.49,6.85-2.63,9.71-2.56
	C563.73,146.95,564.27,149.9,564.6,151.73z"/>
<path fill="#FFFFFF" stroke="#000000" stroke-miterlimit="10" d="M563,143.01c-3.89-1.02-7.07,0.15-9.28,1.51
	c0.1-1.86,0.14-3.2,0.09-3.28c-0.18-0.26-7.84-5.52-7.84-5.52s0.8-1.6,1.16-2.59c0.27-0.73,2.59-11.27,3.74-16.73
	c3.96,1.55,7.15,3.82,9.71,6.51c-0.72,5.76-3.25,10.76-3.25,10.76s5.04,6.42,5.21,7.04C562.59,140.87,562.76,141.76,563,143.01z"/>
<path fill="#FFFFFF" stroke="#000000" stroke-miterlimit="10" d="M577.88,200.41c-1.42-6.06-5.52-28.51-5.52-28.51
	c-0.11-0.61-0.23-1.52-0.35-2.59c-1.32,3.11-4.12,8.86-8.21,13.01c-6.24-10.42-18.98-11.94-19.25-11.94
	c-0.26,0-12.56,3.12-19.15,12.66c-1.03-2.15-10.97-12.34-15.34-14.8c-0.7,3.72-1.33,12.92-1.33,12.92
	c-1.07,1.97-3.56,13.19-3.56,18.72c0,1.35,0.85,3.52,2.5,6.07c5.09,7.9,17.81,19.48,36.53,21.91c9.35,1.21,16.64-1.54,22.02-5.75
	C575.1,215.14,578.77,204.18,577.88,200.41z M557.34,190.25c-2.15-2.25-7.28-4.75-12.14-4.75c-4.86,0-10.31,7.12-10.67,6.41
	c-0.21-0.42-0.48-0.64-1.46-1.86c-0.76-0.94-0.78-2.26-0.05-3.22c1.04-1.37,2.61-3.37,4.41-5.21c2.5-2.57,5.43-4.84,7.9-4.67
	c3.1,0.2,6.25,2.17,8.58,4.28c1.69,1.51,2.94,3.1,3.43,4.15C558.52,187.88,559.5,192.51,557.34,190.25z"/>
<path fill="#FFFFFF" stroke="#000000" stroke-miterlimit="10" d="M510.33,167.09c-0.09,0.27-0.18,0.66-0.28,1.15
	c-0.7,3.72-1.33,12.92-1.33,12.92c-4.45-3.56-6.41-13.9-5.7-20.13c0.71-6.24,5.88-2.86,5.88-2.86S511.13,164.77,510.33,167.09z"/>
<path fill="#FFFFFF" stroke="#000000" stroke-miterlimit="10" d="M572.35,171.9c-0.11-0.61-0.23-1.52-0.35-2.59
	c-0.55-5.05-1.08-13.81-1.08-13.81s0-2.85,2.85,0.71C576.62,159.78,572.35,171.9,572.35,171.9z"/>
<path fill="#FFFFFF" stroke="#000000" stroke-miterlimit="10" d="M606.92,284.09v18.48c-8.93-8.05-20.78-13.43-28.92-14.95
	c-5.86-1.09-10.7-3.8-15.55-6.79c-4.87-3-9.76-6.28-15.71-8.48c-9.58-3.54-30.73-10.86-38.57-13.57c-1.55-0.54-2.58-0.89-2.9-1
	c0.44-0.01,0.76-0.03,0.96-0.04c3.03-0.21,23.88-18.12,23.88-18.12s-36.89-24.59-52.4-22.63c0,0,1.61-4.64,6.06-6.24
	c1.9-0.69,4.16-0.24,6.53,0.4c0,0,0.02,0.01,0.06,0.02c1.3,0.5,22.31,8.68,37.85,23.76c19.25,6.06,23.29,7.48,27.92,11.52
	c1.03,0.9,1.62,1.58,1.95,2.16c1.16,2.01-0.72,2.74,2.74,6.99c2.19,2.68,13.22,9.43,23.98,15.71
	C594.97,277.25,604.9,282.78,606.92,284.09z"/>
<path fill="#FFFFFF" stroke="#000000" stroke-miterlimit="10" d="M530.11,239.62c0,0-20.85,17.91-23.88,18.12
	c-0.2,0.01-0.52,0.03-0.96,0.04c-6.3,0.18-35.79,0.24-38.87-0.43c-3.3-0.71-18.81-15.32-30.39-18.62
	c-11.58-3.3-19.96,10.51-19.96,10.51c2.85-15.86,21.21-18.17,33.5-19.96c12.3-1.78,28.16-12.29,28.16-12.29
	C493.22,215.03,530.11,239.62,530.11,239.62z"/>
<path fill="#FFFFFF" stroke="#000000" stroke-miterlimit="10" d="M508.17,258.78c-8.4,3.81-18.42,7.76-27.57,11.18
	c-1.16,0.43-2.31,0.86-3.43,1.27c-13.02,4.79-23.46,8.25-23.46,8.25s-28.99-28.87-45.16-23.29c-8.6,2.97-12.11,11.99-13.44,20.65
	c0.31-23.97,18.15-26.57,20.94-27.6c0,0,8.38-13.81,19.96-10.51c11.58,3.3,27.09,17.91,30.39,18.62c3.08,0.67,32.57,0.61,38.87,0.43
	C505.59,257.89,506.62,258.24,508.17,258.78z"/>
<path fill="#FFFFFF" stroke="#000000" stroke-miterlimit="10" d="M493.7,293.15c-0.2,2.86-0.89,7.37-3.04,12.18
	c-0.73,1.66-1.65,3.36-2.78,5.04c-0.29,0.43-0.59,0.88-0.93,1.36c-4.91,7.2-14,19.78-19.2,26.94c-1.68-1.99-3.2-3.76-4.35-5.18
	c5.15-14.1,1.7-22.23,8.26-28.29c2.84-2.62,7.04-6.22,11.03-9.56h0.01c1.1,0.74,2.12,1.15,2.98,1.07
	C487.45,296.55,490.41,295.16,493.7,293.15z"/>
<path fill="#FFFFFF" stroke="#000000" stroke-miterlimit="10" d="M477.17,271.23c-2.23,2.27-4.24,6.23-6.06,11.12
	c-6.76,18.17-10.79,49.23-13,54.76c-5.31-0.6-23.94-5.22-34.03-8.01c-2.1-0.57-3.83-1.07-5-1.44c-4.86-1.54-13.77-1.88-21.5-1.22
	c-3.04,0.26-5.9,0.67-8.26,1.22c-3.92-2.85,3.56-19.43,8.37-32.08c-1.9-7.37-2.65-13.54-2.58-18.71v-0.01c0,0,0,0,0-0.01v-0.01
	c1.33-8.66,4.84-17.68,13.44-20.65c16.17-5.58,45.16,23.29,45.16,23.29S464.15,276.02,477.17,271.23z"/>
<path fill="#FFFFFF" stroke="#000000" stroke-miterlimit="10" d="M424.98,365.44c-1.1,1.57-2.07,3.07-2.86,4.22
	c-11.51-5.35-25.79-4.12-31.91-3.24c1.48-3.02,3.19-6.22,5.09-10.51c4.01-9.05,3.23-21.84,2.29-29.47
	c7.73-0.66,16.64-0.32,21.5,1.22c1.17,0.37,2.9,0.87,5,1.44c-2.73,8.75-5.39,20.32-3.4,27.79
	C421.52,359.98,423.07,362.85,424.98,365.44z"/>
<path fill="#FFFFFF" stroke="#000000" stroke-miterlimit="10" d="M422.12,369.66c0,0-3.97,5.73-5.18,16.44
	c-2.79-2.76-15.13-14.29-28.35-16.18c0.5-1.18,1.04-2.33,1.62-3.5C396.33,365.54,410.61,364.31,422.12,369.66z"/>
<path fill="#FFFFFF" stroke="#000000" stroke-miterlimit="10" d="M483.99,364.47c-0.16-1.96-1.01-4.26-2.3-6.74
	c-3.24-6.21-9.25-13.5-13.94-19.06c-1.68-1.99-3.2-3.76-4.35-5.18c-0.3,0.83-0.63,1.68-1,2.55c-2.24,5.32-5.3,10.55-8.7,15.42
	c2.26,3.1,4.6,6.76,4.6,8.58c0,3.5,5.88,9.62,8.79,14.85c2.91,5.23,2.02,12.12,4.28,12.53c0.86,0.16,2.94-1.53,5.16-4.28l-2-6.44
	c0.13,0.34,1.2,3.15,2,6.44c1.48-1.83,3.03-4.13,4.33-6.65c1.85-3.58,3.2-7.63,3.16-11.46
	C484.02,364.85,484.01,364.66,483.99,364.47z M477.6,376.64c0.57-0.03,1.55-0.08,2.82-0.13L477.6,376.64z"/>
<path fill="#FFFFFF" stroke="#000000" stroke-miterlimit="10" d="M522.52,580.43c0,3.33-5.95,16.4-12.36,14.97
	c-0.82-0.18-2.81-1.14-5.7-2.69c-5.19-2.8-13.3-7.5-22.74-13.01c-9.42-5.5-20.18-11.79-30.72-17.78c-0.67-0.38-1.35-0.76-2.02-1.15
	c0,0-0.02-0.01-0.07-0.04c-0.02-0.01-0.05-0.03-0.08-0.05c-2.16-1.39-26.59-17.11-23.86-22.9c2.22-4.72,18.57-1.91,31.93,3.4
	c3.82,1.51,7.38,3.23,10.31,5.03c13.19,8.14,17.19,10.75,26.55,13.31c0,0,1.61-0.6,3.48-1.65c0.59,0.55,1.14,1.1,1.63,1.65
	c7.69,4.44,13.43,8.66,17.34,12.24C520.46,575.61,522.52,578.7,522.52,580.43z"/>
<path fill="#FFFFFF" stroke="#000000" stroke-miterlimit="10" d="M531.46,549.62c-3.37,17.27-5.86,34.86-6.57,42.81
	c-1.19,13.31-4.87,20.32-10.57,27.09c-2.21,2.62-2.73,4.69-2.68,6.73c-6.9-1.17-19.26-3.67-25.24-7.32
	c-0.02-0.01-0.04-0.03-0.07-0.04c4.58-8.03,10.49-16.83,18.13-26.18c2.89,1.55,4.88,2.51,5.7,2.69
	c6.41,1.43,12.36-11.64,12.36-14.97c0-1.73-2.06-4.82-6.31-8.67c2.57-5.67,8.62-14.78,14.25-21.11L531.46,549.62z"/>
<path fill="#FFFFFF" stroke="#000000" stroke-miterlimit="10" d="M511.57,637.94c-2.61,8.55-10.57,20.31-10.45,28.16
	c0.12,7.84-6.18,12.59-9.03,13.54c0,0.4-0.01,0.79-0.03,1.16c-6.17,1.2-19.15,3.04-30.15,0.38c-11.44-2.76-25.45-15.84-31.15-21.55
	c0.93-2.07,2-4.5,3.15-7.15c17.56,12.42,36.79,14.33,36.79,14.33s-0.84-19.03,15.62-47.92c0.03,0.01,0.05,0.03,0.07,0.04
	c5.98,3.65,18.34,6.15,25.24,7.32C511.7,629.5,513.18,632.69,511.57,637.94z"/>
<path fill="#FFFFFF" stroke="#000000" stroke-miterlimit="10" d="M492.06,680.8c-0.37,10.55-4.25,8.23-4.25,8.23
	s0.57,4.66-1.23,11.7c-7.43,2.72-17.84,3.38-24.67,3.74c-7.24,0.4-33.99-0.82-43.2-1.27c0.03-0.62,0.03-0.99,0.01-1.1
	c-0.35-1.97,2.41-3.48,3.39-6.69c0.98-3.21-0.36-7.81,2.73-10.9c-1.66-9.27,1.67-14.49,2.85-17.82c0.26-0.72,1.42-3.32,3.07-7.06
	c5.7,5.71,19.71,18.79,31.15,21.55C472.91,683.84,485.89,682,492.06,680.8z"/>
<path fill="#FFFFFF" stroke="#000000" stroke-miterlimit="10" d="M486.58,700.73c-0.68,2.62-1.68,5.57-3.16,8.73
	c-0.75,1.59-1.47,3.06-2.16,4.4c-7.89,1.32-23.34,2.16-26,1.78c-2.57-0.37-26.45-0.17-37.26-0.06c0.39-5.99,0.65-10.42,0.71-12.38
	c9.21,0.45,35.96,1.67,43.2,1.27C468.74,704.11,479.15,703.45,486.58,700.73z"/>
<path fill="#FFFFFF" stroke="#000000" stroke-miterlimit="10" d="M481.26,713.86c-4.37,8.52-7.5,12.42-7.71,15.09
	c-0.23,3.09,0,7.13-0.23,11.4c-0.14,2.48-3.55,7.35-7.31,14.48c-5.01,0.82-11.11,1.82-15.74,2.87
	c-16.21-4.67-27.89-21.5-33.05-30.33c0-0.01,0-0.01,0-0.01c0.3-4.34,0.56-8.31,0.78-11.77v-0.01c10.81-0.11,34.69-0.31,37.26,0.06
	C457.92,716.02,473.37,715.18,481.26,713.86z"/>
<path fill="#FFFFFF" stroke="#000000" stroke-miterlimit="10" d="M466.01,754.83c-1.86,3.52-3.81,7.59-5.49,12.19
	c-25.47,0.62-39.57-1.36-45.82-2.64c0.18-2.56,0.35-5.15,0.53-7.74c5.49,0.49,12.84,1.06,17.57,1.06
	c-5.78-2.45-12.46-9.4-16.66-14.29c0.38-5.64,0.75-11.07,1.08-16.04c5.16,8.83,16.84,25.66,33.05,30.33
	C454.9,756.65,461,755.65,466.01,754.83z"/>
<path fill="#FFFFFF" stroke="#000000" stroke-miterlimit="10" d="M460.52,767.02c-0.8,2.16-1.53,4.44-2.17,6.84
	c-0.44,1.65-0.8,3.36-1.09,5.11v0.01c-8.88,3.52-19.56,3.14-19.56,3.14l-23.32-12.95c0.1-1.58,0.21-3.18,0.32-4.79
	C420.95,765.66,435.05,767.64,460.52,767.02z"/>
<path fill="#FFFFFF" stroke="#000000" stroke-miterlimit="10" d="M457.26,778.98c-0.74,4.48-1.02,9.2-1.03,13.72
	c-7.65,0.65-30.42,1.88-43.1-5.07c-1.17-0.64-2.77-1.69-3.88-2.56c2.98-7.4,5.02-14.4,5.02-14.4c0.04-0.5,0.07-1,0.11-1.5
	l23.32,12.95C437.7,782.12,448.38,782.5,457.26,778.98z"/>
<path fill="#FFFFFF" stroke="#000000" stroke-miterlimit="10" d="M458.35,816.63l-6.89-3.56c-10.22-4.7-22.58-7.43-34.7-7.61
	c-1.64-0.02-3.23-0.01-4.75,0.01c-9.72,0.12-16.28,0.59-10.57-5.89c2.82-3.2,5.58-8.97,7.81-14.51c1.11,0.87,2.71,1.92,3.88,2.56
	c12.68,6.95,35.45,5.72,43.1,5.07C456.22,805.44,458.35,816.63,458.35,816.63z"/>
<path fill="#FFFFFF" stroke="#000000" stroke-miterlimit="10" d="M451.14,832.12c-6.54,2.31-13.77,4.69-18.34,5.66
	c-6.08,1.29-15.47-2.93-22.14-6.55c0.48-6.25,0.86-13.87,1.11-21.02c0.04-1.09,0.12-2.7,0.24-4.74c1.52-0.02,3.11-0.03,4.75-0.01
	c12.12,0.18,24.48,2.91,34.7,7.61C451.46,813.07,450.03,820.98,451.14,832.12z"/>
<path fill="#FFFFFF" stroke="#000000" stroke-miterlimit="10" d="M460.96,876.51c-5.46,15.68-34.93,20.2-48,5.7
	c-13.07-14.49-4.99-34.21-3.8-38.73c0.56-2.12,1.07-6.65,1.5-12.25c6.67,3.62,16.06,7.84,22.14,6.55c4.57-0.97,11.8-3.35,18.34-5.66
	c0.08,0.92,0.19,1.85,0.32,2.81C453.12,847.52,466.43,860.83,460.96,876.51z"/>
<path fill="#FFFFFF" stroke="#000000" stroke-miterlimit="10" d="M432.8,757.7c-4.73,0-12.08-0.57-17.57-1.06
	c0.3-4.46,0.61-8.91,0.91-13.23C420.34,748.3,427.02,755.25,432.8,757.7z"/>
<path fill="#FFFFFF" stroke="#000000" stroke-miterlimit="10" d="M481.72,579.7c-1.26,3.95-4.24,10.5-11.01,15.81
	c-5.88,4.62-14.01,10.32-23.38,10.24c-1.13-7.7-0.95-14.77,3.83-19.62c-4.6-6.33-3.63-14.31-0.16-24.21
	C461.54,567.91,472.3,574.2,481.72,579.7z"/>
<path fill="#FFFFFF" stroke="#000000" stroke-miterlimit="10" d="M663.77,740.23c0,0-2.14,2.24-5.54,5.41
	c-6.76,6.29-18.54,16.28-28.5,19.72c-11.06,3.82-15.89-0.24-17.81-4.06v-0.01c-0.68-1.35-0.99-2.66-1.08-3.59
	c-0.14-1.49-1.03-8.96-2.12-17.44c4.11,3.07,10.65,6.7,18.34,6.39c10.88-0.44,23.71-8.4,30.26-12.57
	C659.79,736.52,663.77,740.23,663.77,740.23z"/>
<path fill="#FFFFFF" stroke="#000000" stroke-miterlimit="10" d="M657.32,734.08c-6.55,4.17-19.38,12.13-30.26,12.57
	c-7.69,0.31-14.23-3.32-18.34-6.39v-0.01c-0.7-5.48-1.49-11.36-2.22-16.32c5.32,3.42,14.27,7.4,25.02,7.04
	c10.86-0.37,16.71-4.58,19.31-7.2c1.5,2.46,4.21,3.81,4.21,3.81s0,3.74,0.36,4.46C655.5,732.25,656.28,733.05,657.32,734.08z"/>
<path fill="#FFFFFF" stroke="#000000" stroke-miterlimit="10" d="M650.83,723.77c-2.6,2.62-8.45,6.83-19.31,7.2
	c-10.75,0.36-19.7-3.62-25.02-7.04v-0.01c-0.85-5.86-1.62-10.41-2.07-11.49c-1.43-3.38-3.21-4.99-6.06-7.13
	c-1.03-0.78-2.55-3.78-4.15-7.51c0,0,25-0.15,30.17-2.82c3.92-2.04,16.48-12.81,22.29-17.86c0.49,5.76,0.93,10.81,1.23,13.94
	c1.07,11.22,1.43,19.07,1.43,19.07s0.71,5.52,0.53,10.15C649.82,721.6,650.22,722.78,650.83,723.77z"/>
<path fill="#FFFFFF" stroke="#000000" stroke-miterlimit="10" d="M646.68,677.1v0.01c-5.81,5.05-18.37,15.82-22.29,17.86
	c-5.17,2.67-30.17,2.82-30.17,2.82c-1.33-3.1-2.72-6.7-3.95-9.95c6.17-0.52,16.37-1.49,30.55-3.21
	c-13.72-2.33-30.28-11.63-37.18-15.78v-0.01c-0.93-3.12-1.9-6.41-2.77-9.29c8.13,3,27.92,10.45,33.54,13.67
	c7.12,4.1,14.61,7.49,14.61,7.49s9.83-6.17,16.96-11.79C646.22,671.72,646.46,674.48,646.68,677.1z"/>
<path fill="#FFFFFF" stroke="#000000" stroke-miterlimit="10" d="M645.98,668.92c-7.13,5.62-16.96,11.79-16.96,11.79
	s-7.49-3.39-14.61-7.49c-5.62-3.22-25.41-10.67-33.54-13.67c-1.23-4.09-2.25-7.31-2.64-7.89c-0.67-1-0.08-3.34,0.19-5.43
	c3.34,3.33,12.5,9.01,36.34,9.89c0.18,3.74,0.72,5.88,0.72,5.88s20.55-0.8,29.04-9.73C644.98,657.28,645.49,663.17,645.98,668.92z"
	/>
<path fill="#FFFFFF" stroke="#000000" stroke-miterlimit="10" d="M644.52,652.27c-8.49,8.93-29.04,9.73-29.04,9.73
	s-0.54-2.14-0.72-5.88c-23.84-0.88-33-6.56-36.34-9.89c0.16-1.24,0.21-2.39-0.19-3.12c-1.07-1.97-4.1-3.39-3.39-5.89
	c0.22-0.76,0.3-2.96,0.32-5.67c5.99,3.64,20.77,11.59,36.93,12.27c14.19,0.6,25.21-4.88,30.88-8.51c-0.04,1.96-0.01,3.38,0.13,4.05
	C643.4,640.79,643.92,645.81,644.52,652.27z"/>
<path fill="#FFFFFF" stroke="#000000" stroke-miterlimit="10" d="M645.41,595.75c-0.57,11.18-2.26,30.78-2.44,39.56
	c-5.67,3.63-16.69,9.11-30.88,8.51c-16.16-0.68-30.94-8.63-36.93-12.27c0.02-6.19-0.32-15-0.32-15v-1.08
	c0.48-0.83,0.97-1.71,1.45-2.61c4.68,3.66,13.34,8.57,24.75,7.08C616.61,617.89,633.86,602.51,645.41,595.75z"/>
<path fill="#FFFFFF" stroke="#000000" stroke-miterlimit="10" d="M645.6,590.17c0,1.41-0.07,3.33-0.18,5.58
	c-11.55,6.76-28.8,22.14-44.37,24.19c-11.41,1.49-20.07-3.42-24.75-7.08c1.67-3.07,3.28-6.37,4.25-9c0-0.01,0.01-0.02,0.01-0.02
	c0.13-0.35,0.25-0.69,0.35-1.01c1.78-5.53,10.52-9.09,14.79-10.87c4.28-1.79,2.68-8.38,4.64-11.94c1.96-3.57,7.84-2.5,9.44-3.03
	c1.61-0.54,2.14-35.65,2.68-41.53c0.22-2.5,1.74-7.92,3.55-14.86c3.16,9.46,8.21,25.61,8.21,25.61l11.6-6.53l-10.21-41.89l4.67,3.75
	c0,0,0.69-4.12,1.07-7.43c1.61,3.86,2.84,7.74,3.79,11.48c0,0,0,0,0,0.01c3.52,13.85,3.18,26.03,3.57,30.28
	c0.6,6.41,2.08,6.89,2.97,15.62c0.89,8.73-1.78,12.65,0.89,20.5C645.25,579.84,645.6,580.19,645.6,590.17z"/>
<path fill="#FFFFFF" stroke="#000000" stroke-miterlimit="10" d="M620.82,684.63c-14.18,1.72-24.38,2.69-30.55,3.21
	c-1.34-3.55-2.48-6.66-3.13-8.2c-0.75-1.77-2.08-6.07-3.5-10.79C590.54,673,607.1,682.3,620.82,684.63z"/>
<path fill="#FFFFFF" stroke="#000000" stroke-miterlimit="10" d="M685.16,807.07c-27.27-3.57-42.24-14.97-49.19-18.9
	c-6.95-3.92-18.53-1.96-23.17-8.37c-2.49-3.46-2.3-9.61-1.59-14.54c12.6,3.49,27.02,7.17,31.77,7.17c6.3,0,18.97-7.41,26.93-13.82
	c1.38,1.39,2.84,2.82,4.38,4.26c11.58,10.87,31.36,22.81,36,27.98C714.92,796.02,712.43,810.63,685.16,807.07z"/>
<path fill="#FFFFFF" stroke="#000000" stroke-miterlimit="10" d="M669.91,758.61c-7.96,6.41-20.63,13.82-26.93,13.82
	c-4.75,0-19.17-3.68-31.77-7.17c0.21-1.46,0.46-2.81,0.71-3.96c1.92,3.82,6.75,7.88,17.81,4.06c9.96-3.44,21.74-13.43,28.5-19.72
	C660.71,748.69,664.73,753.39,669.91,758.61z"/>
<path fill="#FFFFFF" stroke="#000000" stroke-miterlimit="10" d="M488.59,331.22c-1.3,1.64-4.56,9.43-3.3,12.22
	c0.11,0.25,0.26,0.46,0.45,0.62c-2.67,0.71-1.72,8.37-1.72,8.37l-2.33,5.3c-3.24-6.21-9.25-13.5-13.94-19.06
	c5.2-7.16,14.29-19.74,19.2-26.94l2.6,8.62l0.11,0.36c0,0-2.22,7.46-1.27,10.09v0.01C488.44,330.97,488.51,331.1,488.59,331.22z"/>
<path fill="#FFFFFF" stroke="#000000" stroke-miterlimit="10" d="M440.6,367.47c-2.44,2.59-4.74,4.85-6.72,6.7
	c-0.05,0.04-0.1,0.09-0.14,0.14c-0.81,0.77-1.53,1.56-2.17,2.36c-2.36,2.95-3.65,6.06-4.35,8.7c-0.66,2.46-0.8,4.51-0.83,5.65
	c-0.02,0.63,0.01,0.98,0.01,0.98s0.42,2.46,1.48,7.18c-2.61-2.02-6.34-4.42-11.29-6.51c-0.01-2.26,0.11-4.36,0.32-6.3
	c0.01-0.09,0.02-0.18,0.03-0.27c1.21-10.71,5.18-16.44,5.18-16.44c0.79-1.15,1.76-2.65,2.86-4.22c3-4.29,6.99-9.1,11.16-8.49
	C441.84,357.78,442.21,364.69,440.6,367.47z"/>
<path fill="#FFFFFF" stroke="#000000" stroke-miterlimit="10" d="M624.19,441.79c-0.02,2.86-0.07,7.2-0.17,12.3
	c-0.11,4.82-0.26,10.31-0.5,15.88v0.01c-0.13,3.1-0.28,6.23-0.47,9.27c-0.18,2.9-0.38,5.72-0.62,8.38c-0.21,2.3-0.49,4.62-0.83,6.94
	c-0.88,5.99-2.14,11.96-3.45,17.46c-3.94-4.47-12.12-13.94-14.26-18.09c-2.85-5.53-9.27-20.32-13.72-26.02
	c-3.15-4.04-8.17-10.26-10.83-13.56c1.55-1.78,2.76-3.35,3.05-4.15c5.88,1.36,32.02-6.12,38.6-16.48
	C621.68,435.51,622.83,438.44,624.19,441.79z"/>
<path fill="#FFFFFF" stroke="#000000" stroke-miterlimit="10" d="M563.29,529.72c-5.18,1.62-6.68,3.85-13.92,0.34
	c-4.57-2.22-9.11-2.69-12.99-2.42c-3.41,0.25-6.31,1.07-8.29,1.8c-0.49-6.27-1.3-14.27-2.4-18.3c-0.03-0.11-0.06-0.22-0.09-0.33
	c-2.02-6.89-4.39-7.61-4.39-7.61s-2.14-5.58-3.21-10.81c-0.55-2.7-1.39-7.27-2.07-11.14v-0.01c-0.64-3.62-1.14-6.62-1.14-6.91
	c0-0.22-1.45-3.71-3.4-8.69c-2.59-6.65-6.06-15.93-8.08-23.56c0.45-1.48,0.81-2.66,1.07-3.51c3.65,0.99,6.99,1.83,9.58,2.38
	c12.36,2.61,30.89,15.2,33.51,16.16c2.61,0.95,8.79,0,8.79,0l1.41,0.63L563.29,529.72z"/>
<path fill="#FFFFFF" stroke="#000000" stroke-miterlimit="10" d="M577.53,565.94h-11.41l-2.83-36.22l-5.62-71.98l13.08,5.78
	c0,0,0.09-0.09,0.24-0.25l4.18,65.6L577.53,565.94z"/>
<path fill="#FFFFFF" stroke="#000000" stroke-miterlimit="10" d="M525.68,511.14c-0.3,7.41-0.56,14.23-0.56,15.35
	c0,2.62-11.41,0-11.41,0l2.21-45.24c0.68,3.87,1.52,8.44,2.07,11.14c1.07,5.23,3.21,10.81,3.21,10.81s2.37,0.72,4.39,7.61
	C525.62,510.92,525.65,511.03,525.68,511.14z"/>
<path fill="#FFFFFF" stroke="#000000" stroke-miterlimit="10" d="M511.38,465.64c-1.99,11.44-4.81,27.33-6.58,36.03
	c-10.33,1.08-16.27,10.09-16.27,10.09l-3.45-19.33c8.42-19.45,15.31-40.87,18.22-50.35C505.32,449.71,508.79,458.99,511.38,465.64z"
	/>
<path fill="#FFFFFF" stroke="#000000" stroke-miterlimit="10" d="M502.45,438.58c-3.82,2.44-11.69,7.54-19.1,12.74
	c-5.26,3.7-10.3,7.45-13.48,10.35c-1.5,1.35-2.58,2.52-3.09,3.4c-3.68,6.41-7.78,37.96-7.78,37.96s-1.96-31.07,3.21-39.51
	c3.26-5.31,7.78-14.14,10.73-22.84c1.24-3.64,2.2-7.27,2.66-10.6c5.47,1.71,16.91,5.23,26.73,7.93v0.01
	C502.36,438.21,502.4,438.39,502.45,438.58z"/>
<path fill="#FFFFFF" stroke="#000000" stroke-miterlimit="10" d="M620.99,433.73c-6.58,10.36-32.72,17.84-38.6,16.48
	c-0.29,0.8-1.5,2.37-3.05,4.15c-3,3.49-7.28,7.83-8.36,8.91c-0.15,0.16-0.24,0.25-0.24,0.25l-13.08-5.78l-1.41-0.63
	c0,0-6.18,0.95-8.79,0c-2.62-0.96-21.15-13.55-33.51-16.16c-2.59-0.55-5.93-1.39-9.58-2.38c0.28-0.96,0.43-1.48,0.43-1.48
	s-0.65,0.41-1.77,1.12c-0.23-0.07-0.47-0.13-0.7-0.19v-0.01c-9.82-2.7-21.26-6.22-26.73-7.93c-0.4-0.12-0.76-0.23-1.09-0.33
	c0.07-0.52,0.11-0.8,0.11-0.8s-4.51-5.35-5.82-6.3c-1.3-0.95,0.48-2.5,2.62-3.33c1.41-0.55,2.26-7.38,2.7-12.88
	c7.72,3.97,38.89,19.83,48.86,22.63c11.41,3.2,58.46,9.27,69.51,6.41c6.95-1.8,16.77-7.11,23.1-10.8c1.95-1.14,3.57-2.13,4.67-2.81
	c0.07,1.79,0.1,3.5,0.11,4.99c0.01,2.99-0.08,5.06-0.08,5.06S620.55,432.59,620.99,433.73z"/>
<path fill="#FFFFFF" stroke="#000000" stroke-miterlimit="10" d="M633.62,465.5c-3.63-4.51-7.75-9.28-9.6-11.41
	c0.1-5.1,0.15-9.44,0.17-12.3c2.86,7.04,6.66,15.97,9.11,20.07C633.34,462.14,633.46,463.45,633.62,465.5z"/>
<path fill="#FFFFFF" stroke="#000000" stroke-miterlimit="10" d="M586.43,536.21c-1.35,4.79-4.77,51.73-5.87,67.63
	c0,0-0.01,0.01-0.01,0.02c-0.97,2.63-2.58,5.93-4.25,9c-0.54-0.42-1.02-0.82-1.45-1.2l-2.45-2.38c0.05,0.06,0.14,0.17,0.28,0.32
	c0.13,0.13,0.29,0.3,0.48,0.49c0.41,0.42,0.98,0.96,1.69,1.57v3.81c-1.4,2.43-2.7,4.52-3.56,5.71c-2.32,3.21-3.21,7.91-4.46,5.83
	c-1.25-2.08-2.67-7.96-5.52-9.57c-2.85-1.6-4.46,1.78-7.13-3.74c-2.67-5.53-2.67-18.54-5.7-19.25c-3.03-0.71-4.99,0.89-4.99,0.89
	s0.77-8.91-4.34-15.68c-5.11-6.77-6.36-0.89-4.75-8.73c0.89-4.33-0.95-13.84-2.77-21.49l2.35-2.41c1.78-1.64,3.42-2.81,4.78-3.28
	c-0.97-1.84-2.13-3.46-3.44-4.88c-0.02-0.03-0.04-0.05-0.06-0.08c-0.37-0.46-0.8-0.92-1.26-1.35c-2.2-2.06-5.12-3.65-5.55-3.88
	l-0.05-0.03c-0.09-1.21-0.19-2.6-0.31-4.09c1.98-0.73,4.88-1.55,8.29-1.8c3.88-0.27,8.42,0.2,12.99,2.42
	c7.24,3.51,8.74,1.28,13.92-0.34l2.83,36.22h11.41l-2.36-37.07C580.84,530.04,584.52,533.71,586.43,536.21z"/>
<path fill="#FFFFFF" stroke="#000000" stroke-miterlimit="10" d="M503.3,442.08c-2.91,9.48-9.8,30.9-18.22,50.35
	c-4.41,10.2-9.24,19.86-14.14,26.96c-4.48-0.12-7.73-0.18-10.08-0.21c-3.39-0.03-4.9,0-5.51,0.04c0.6-1.04,3.83-6.72,7.93-14.78
	c7.32-14.41,17.39-36.43,20.07-53.12c7.41-5.2,15.28-10.3,19.1-12.74C502.68,439.69,502.97,440.86,503.3,442.08z"/>
<path fill="#FFFFFF" stroke="#000000" stroke-miterlimit="10" d="M483.35,451.32c-2.68,16.69-12.75,38.71-20.07,53.12
	c2.33-14.47,4.65-29.76,6.59-42.77C473.05,458.77,478.09,455.02,483.35,451.32z"/>
<path fill="#FFFFFF" stroke="#000000" stroke-miterlimit="10" d="M620.26,421.87c-1.1,0.68-2.72,1.67-4.67,2.81
	c-6.33,3.69-16.15,9-23.1,10.8c-11.05,2.86-58.1-3.21-69.51-6.41c-9.97-2.8-41.14-18.66-48.86-22.63c0.23-2.79,0.35-5.24,0.39-6.36
	c-2.14-3.45,0.47-9.15,2.73-8.8c0.59,0,18.18,0.72,33.38,6.66c15.21,5.94,47.29,20.08,74.74,19.01c21.49-0.84,30.11-6.27,32.83-8.59
	C619.5,411.69,620.05,417.08,620.26,421.87z"/>
<path fill="#FFFFFF" stroke="#000000" stroke-miterlimit="10" d="M580.31,236.01c-1.89,6.55-3.27,17.21-3.27,17.21
	c-5.18-2.2-12.24-3.66-18.96-4.61c-0.33-0.58-0.92-1.26-1.95-2.16c-4.63-4.04-8.67-5.46-27.92-11.52
	c-15.54-15.08-36.55-23.26-37.85-23.76c3.16,0.84,6.5,1.99,9.45,1.18c3.53-0.97,6.39-4.35,7.85-6.4
	c5.09,7.9,17.81,19.48,36.53,21.91c9.35,1.21,16.64-1.54,22.02-5.75C570.11,225.88,575.92,231.54,580.31,236.01z"/>
<path fill="#FFFFFF" stroke="#000000" stroke-miterlimit="10" d="M590.77,247.99c-0.71,4.65-1.65,10.52-1.65,10.52
	c-3.12-1.41-7.14-3.19-12.08-5.29c0,0,1.38-10.66,3.27-17.21c2.65,2.7,4.79,4.96,5.67,6.11
	C587.19,243.68,588.98,245.68,590.77,247.99z"/>
<path fill="#FFFFFF" stroke="#000000" stroke-miterlimit="10" d="M597.12,262.25c0,0-2.66-1.33-8-3.74c0,0,0.94-5.87,1.65-10.52
	C593.87,251.98,596.97,256.91,597.12,262.25z"/>
<path fill="#FFFFFF" stroke="#000000" stroke-miterlimit="10" d="M645.06,393.6l0.52,2.34c-0.8-3.57-2.69-8.54-3.97-11.71
	c1.2-0.63,4.5-2.38,7.31-4.25c2.68,2.09,6.21,4.95,8.9,7.82C651.93,388.41,645.06,393.6,645.06,393.6z"/>
<path fill="#FFFFFF" stroke="#000000" stroke-miterlimit="10" d="M618.19,408.36c-2.72,2.32-11.34,7.75-32.83,8.59
	c-27.45,1.07-59.53-13.07-74.74-19.01c-15.2-5.94-32.79-6.66-33.38-6.66c0.14-0.75,0.18-1.58,0.15-2.45
	c4.08-0.38,10.16-0.55,16.36,0.67c10.87,2.14,49.55,10.69,49.55,10.69v2.68c0,0,39.74,4.45,51.68,4.45c8.49,0,16.97-1.17,21.17-1.84
	C616.98,405.96,617.65,406.98,618.19,408.36z"/>
<path fill="#FFFFFF" stroke="#000000" stroke-miterlimit="10" d="M616.34,402.83c-0.04,0.94-0.1,1.84-0.18,2.65
	c-4.2,0.67-12.68,1.84-21.17,1.84c-11.94,0-51.68-4.45-51.68-4.45v-2.68c0,0-38.68-8.55-49.55-10.69
	c-6.2-1.22-12.28-1.05-16.36-0.67c-0.06-1.82-0.42-3.83-0.87-5.69c1.48-1.83,3.03-4.13,4.33-6.65c7.69-0.28,25-0.53,34.11,2.32
	c11.94,3.74,42.24,10.69,42.24,10.69s28.87,2.14,32.79,2.85c3.62,0.67,20.03,0.1,26.16-2.24c0,0,0.13,2.2,0.2,5.11
	C616.42,397.55,616.45,400.34,616.34,402.83z"/>
<path fill="#FFFFFF" stroke="#000000" stroke-miterlimit="10" d="M687.36,507.3c-2.48-0.93-4.58-1.62-5.54-1.73l2.23-1.25
	c-0.67,0.3-1.37,0.71-2.23,1.25c-0.09-0.01-0.16-0.01-0.23-0.01c1.87-3.17,2.8-4.48,2.8-4.48s-5.62,1.73-11.24,5.48
	c-2.28-1.21-7.37-4.36-10.47-9.58c0.08-0.22,0.13-0.53,0.17-0.91c0.14-1.5-0.03-4.1-0.71-6.78c-0.35-1.42-0.85-2.87-1.51-4.18
	c-0.21-0.4-0.43-0.79-0.66-1.16c-2-3.17-4.19-3.52-5.32-3.45c-0.41,0.02-0.68,0.1-0.75,0.12l-0.01,0.01h-0.01
	c-0.45-0.39-0.97-1.63-1.51-4.51c-0.83-4.41-1.54-7.61-2.04-9.68c3.22-0.46,10.36-1.08,17.44,1.12c9.55,2.97,11.91,3.28,15.78,2.53
	C684.38,476.21,687.88,502.4,687.36,507.3z"/>
<path fill="#FFFFFF" stroke="#000000" stroke-miterlimit="10" d="M687.12,467.56c-0.93,1.45-2.45,2.17-3.57,2.53
	c-3.87,0.75-6.23,0.44-15.78-2.53c-7.08-2.2-14.22-1.58-17.44-1.12c-0.48-1.94-0.78-2.89-0.85-2.92
	c-0.14-0.06-9.77-4.99-12.08-17.23c-9.09-6.89-13.77-17.94-13.77-17.94l-3.26-1.49c-0.01-1.49-0.04-3.2-0.11-4.99
	c-0.21-4.79-0.76-10.18-2.07-13.51c-0.54-1.38-1.21-2.4-2.04-2.88c0.08-0.81,0.14-1.71,0.18-2.65c2.53-1.27,10.92-5.15,16.21-3.35
	c1.63,1.9,2.8,3.03,3.61,3.69c1.17,0.96,1.6,0.97,1.6,0.97l9.09-2.56l-1.26-5.64l-0.52-2.34c0,0,6.87-5.19,12.76-5.8
	c0.54,0.57,1.04,1.14,1.5,1.7c4.45,5.53,11.05,32.97,14.61,42.6C677.5,441.72,688.72,465.07,687.12,467.56z"/>
<path fill="#FFFFFF" stroke="#000000" stroke-miterlimit="10" d="M636.15,403.17c-0.81-0.66-1.98-1.79-3.61-3.69
	c-5.29-1.8-13.68,2.08-16.21,3.35c0.11-2.49,0.08-5.28,0.02-7.61c4.52-1.49,14.1-4.83,14.1-4.83s-0.08-1.05-0.17-2.66
	c-0.02-0.26-0.03-0.53-0.05-0.82C630.49,389.51,631.91,398.99,636.15,403.17z"/>
<path fill="#FFFFFF" stroke="#000000" stroke-miterlimit="10" d="M540.33,358.79c-3.41-0.26-6.86-0.64-10.22-1.19
	c-18.54-3.03-32.26-18.36-32.97-20.49c-0.43-1.29-5.11-4.2-8.76-6.3v-0.01c-0.95-2.63,1.27-10.09,1.27-10.09l-0.11-0.36
	c4.69,0.07,12.96,0.48,14.73,2.5c2.49,2.85,7.66,9.98,11.4,12.29c3.75,2.32,15.15,8.56,16.22,10.16
	C532.63,346.41,537.42,354.11,540.33,358.79z"/>
<path fill="#FFFFFF" stroke="#000000" stroke-miterlimit="10" d="M616.16,390.11c-6.13,2.34-22.54,2.91-26.16,2.24
	c-3.92-0.71-32.79-2.85-32.79-2.85s-30.3-6.95-42.24-10.69c-9.11-2.85-26.42-2.6-34.11-2.32c1.85-3.58,3.2-7.63,3.16-11.46
	c0-0.18-0.01-0.37-0.03-0.56c5.39-0.2,14.07-0.39,22.49,0.06c1.05,0.06,2.1,0.12,3.14,0.2c12.19,0.9,47.77,7.27,59.93,10.52
	c2.24,0.59,3.69,1.09,4.05,1.42c2.32,2.14,5.71,12.83,5.71,12.83l9.98-11.58c0,0,6.09-0.53,11.98-1.25
	c5.91-0.71,11.63-1.6,10.83-2.32C615.13,376.59,616.16,390.11,616.16,390.11z"/>
<path fill="#FFFFFF" stroke="#000000" stroke-miterlimit="10" d="M653.44,375.36c0.15,1.15-1.99,2.94-4.52,4.62
	c-2.81,1.87-6.11,3.62-7.31,4.25c-0.68-1.68-1.19-2.86-1.27-3.04c-0.01-0.02-0.01-0.03-0.01-0.03c-1.17-4.78-3.27-13.04-3.65-13.04
	c-0.53,0-4.99,1.6-6.23,3.2c-0.86,1.1-0.55,9.65-0.26,14.92v0.05c0.02,0.18,0.03,0.35,0.03,0.51c0.01,0.03,0.01,0.07,0.01,0.11
	c0.02,0.29,0.03,0.56,0.05,0.82c0.09,1.61,0.17,2.66,0.17,2.66s-9.58,3.34-14.1,4.83c-0.07-2.91-0.2-5.11-0.2-5.11
	s-1.03-13.52-4.06-15.76c0.8,0.72-4.92,1.61-10.83,2.32c-0.11-3.75-0.08-10.66,1.17-17.37c0.23-1.26,0.51-2.52,0.84-3.74
	c1.95-1.44,9.77-7.89,12.32-20.12c2.92-14.02,0.9-20.67,0.9-20.67c-0.21-0.44-0.44-0.87-0.67-1.3c0.2-0.31,0.39-0.61,0.57-0.91
	c3.9,0.89,9.86,3.39,14.38,9.49c0.89,1.19,1.72,2.53,2.47,4.01c6.89,13.66,7.96,31.12,11.29,36.11
	C647.85,367.16,653.08,372.63,653.44,375.36z"/>
<path fill="#FFFFFF" stroke="#000000" stroke-miterlimit="10" d="M646.84,401.58l-9.09,2.56c0,0-0.43-0.01-1.6-0.97
	c-4.24-4.18-5.66-13.66-5.92-16.26c0-0.04,0-0.08-0.01-0.11c0-0.16-0.01-0.33-0.03-0.51v-0.05c-0.29-5.27-0.6-13.82,0.26-14.92
	c1.24-1.6,5.7-3.2,6.23-3.2c0.38,0,2.48,8.26,3.65,13.04c0,0,0,0.01,0.01,0.03c0.48,1.93,0.8,3.28,0.8,3.28s0.17-0.09,0.47-0.24
	c1.28,3.17,3.17,8.14,3.97,11.71L646.84,401.58z"/>
<path fill="#FFFFFF" stroke="#000000" stroke-miterlimit="10" d="M431.57,387.43c-1.33,2.27-3.54,3.21-5.18,3.59
	c0.03-1.14,0.17-3.19,0.83-5.65c0.7-2.64,1.99-5.75,4.35-8.7C431.57,376.67,433.9,383.46,431.57,387.43z"/>
<path fill="#FFFFFF" stroke="#000000" stroke-miterlimit="10" d="M416.94,386.1c-0.01,0.09-0.02,0.18-0.03,0.27
	c-0.21,1.94-0.33,4.04-0.32,6.3c-1.86-0.8-3.9-1.55-6.11-2.22c-10.12-3.06-19.57-3.04-26.05-1.42c0.64-8.47,1.9-13.54,3.69-17.99
	c0.15-0.38,0.31-0.75,0.47-1.12C401.81,371.81,414.15,383.34,416.94,386.1z"/>
<path fill="#FFFFFF" stroke="#000000" stroke-miterlimit="10" d="M431.15,415.05c-2.02,5.7-13.9,29.46-15.27,34.33
	c-1.36,4.87-1.01,26.97-0.77,32.91s-5.96,3.72-5.96,3.72s-5.8-4.19-13.53-5.02c-7.72-0.84-17.34,2.73-18.16,2.27
	c-0.81-0.45-3.93-0.97-3.93-2.39c0-1.43,2.85-11.41,3.56-23.76c0.71-12.36-4.28-60.12,0-64.5c1.45-1.49,4-2.75,7.34-3.58
	c6.48-1.62,15.93-1.64,26.05,1.42c2.21,0.67,4.25,1.42,6.11,2.22c4.95,2.09,8.68,4.49,11.29,6.51c3.21,2.46,4.73,4.34,4.73,4.34
	C433.84,406.02,433.17,409.34,431.15,415.05z"/>
<path fill="#FFFFFF" stroke="#000000" stroke-miterlimit="10" d="M639.87,495.31c-1.1-1.85-2.89-4.68-4.96-7.91
	c-3.63-5.65-8.13-12.5-11.39-17.42v-0.01c0.24-5.57,0.39-11.06,0.5-15.88c1.85,2.13,5.97,6.9,9.6,11.41
	c3.25,4.03,6.1,7.86,6.63,9.43C641.53,478.79,646.38,487.12,639.87,495.31z"/>
<path fill="#FFFFFF" stroke="#000000" stroke-miterlimit="10" d="M652.37,514.85l-4.28,5.46l-12.92-21.18v-0.01l-3.71-6.08
	l-2.45-4.01l-0.02-0.05l-5.94-9.73c0.19-3.04,0.34-6.17,0.47-9.27c3.26,4.92,7.76,11.77,11.39,17.42c2.07,3.23,3.86,6.06,4.96,7.91
	c0.36,0.6,0.65,1.1,0.85,1.48C643.46,501.9,652.37,514.85,652.37,514.85z"/>
<path fill="#FFFFFF" stroke="#000000" stroke-miterlimit="10" d="M631.34,494.11c-0.38,3.31-1.07,7.43-1.07,7.43l-4.67-3.75l-4-3.22
	c0.34-2.32,0.62-4.64,0.83-6.94c0.24-2.66,0.44-5.48,0.62-8.38l5.94,9.73l0.02,0.05C629.87,490.71,630.64,492.41,631.34,494.11z"/>
<path fill="#FFFFFF" stroke="#000000" stroke-miterlimit="10" d="M509.34,279.67c-1.74,2.58-4.98,5.67-8.56,8.5
	c-2.32,1.83-4.78,3.56-7.09,4.97c0,0.01,0,0.01,0,0.01c-3.29,2.01-6.25,3.4-8.02,3.56c-0.86,0.08-1.88-0.33-2.98-1.07h-0.01
	c-3.93-2.65-8.92-9.44-11.57-13.29c1.82-4.89,3.83-8.85,6.06-11.12c1.12-0.41,2.27-0.84,3.43-1.27c2.8,2.92,8.49,7.81,15.74,8.57
	C498.88,278.8,503.6,279.21,509.34,279.67z"/>
<path fill="#FFFFFF" stroke="#000000" stroke-miterlimit="10" d="M568.3,300.48c-6.06,3-11.67,6.66-13.53,7.22
	c-3.19,0.95-27.05,8.33-39.89,8.13c-0.74-0.01-1.45-0.04-2.12-0.11c-9.09-0.89-18.15-7.26-22.11-10.39
	c2.15-4.81,2.84-9.32,3.04-12.18c0,0,0,0,0-0.01c2.31-1.41,4.77-3.14,7.09-4.97c3.65,3.13,11.99,8.87,23.34,8.23
	c15.49-0.88,36.7-5.05,36.7-5.05S559.92,296.89,568.3,300.48z"/>
<path fill="#FFFFFF" stroke="#000000" stroke-miterlimit="10" d="M562.45,280.83c-1.37,0.8-2.77,1.43-4.06,1.62
	c-3.6,0.54-31.26-1.35-49.05-2.78c-5.74-0.46-10.46-0.87-13-1.14c-7.25-0.76-12.94-5.65-15.74-8.57
	c9.15-3.42,19.17-7.37,27.57-11.18c7.84,2.71,28.99,10.03,38.57,13.57C552.69,274.55,557.58,277.83,562.45,280.83z"/>
<path fill="#FFFFFF" stroke="#000000" stroke-miterlimit="10" d="M616.59,295.39c-3.05,3.02-5.48,7.35-6.8,9.99
	c-0.91-0.97-1.87-1.9-2.87-2.81v-18.48c0.2,0.13,0.33,0.22,0.36,0.26C610.53,282.98,617.13,284.71,616.59,295.39z"/>
<path fill="#FFFFFF" stroke="#000000" stroke-miterlimit="10" d="M630.77,322.05c-4.52-6.1-10.48-8.6-14.38-9.49
	c4.01-6.56,3.53-10.92,0.1-15.84c0.05-0.46,0.08-0.9,0.1-1.33c0.54-10.68-6.06-12.41-9.31-11.04c-0.03-0.04-0.16-0.13-0.36-0.26
	c-2.02-1.31-11.95-6.84-22.12-12.78c-10.76-6.28-21.79-13.03-23.98-15.71c-3.46-4.25-1.58-4.98-2.74-6.99
	c6.72,0.95,13.78,2.41,18.96,4.61c4.94,2.1,8.96,3.88,12.08,5.29c5.34,2.41,8,3.74,8,3.74c5.11,1.07,23.41,7.01,31.72,24.24
	C634.31,297.81,632.59,312.98,630.77,322.05z"/>
<path fill="#FFFFFF" stroke="#000000" stroke-miterlimit="10" d="M616.39,312.56c-0.44-0.1-0.86-0.18-1.24-0.24h-0.01
	c-1.47-2.46-3.29-4.78-5.35-6.94c1.32-2.64,3.75-6.97,6.8-9.99c-0.02,0.43-0.05,0.87-0.1,1.33
	C619.92,301.64,620.4,306,616.39,312.56z"/>
<path fill="#FFFFFF" stroke="#000000" stroke-miterlimit="10" d="M615.59,335.44c-2.55,12.23-10.37,18.68-12.32,20.12
	c-0.29,0.21-0.45,0.32-0.45,0.32s1.01-5.36,1.47-11.8c0-0.01,0-0.01,0-0.01c0.43-6.05,0.37-13.04-1.47-17.42
	c-3.8-9.03-26.14-22.57-34.52-26.17c-8.38-3.59-7.48-9.13-7.48-9.13s-21.21,4.17-36.7,5.05c-11.35,0.64-19.69-5.1-23.34-8.23
	c3.58-2.83,6.82-5.92,8.56-8.5c17.79,1.43,45.45,3.32,49.05,2.78c1.29-0.19,2.69-0.82,4.06-1.62c4.85,2.99,9.69,5.7,15.55,6.79
	c8.14,1.52,19.99,6.9,28.92,14.95c1,0.91,1.96,1.84,2.87,2.81c2.06,2.16,3.88,4.48,5.35,6.94h0.01c0.23,0.38,0.45,0.77,0.67,1.15
	c0.23,0.43,0.46,0.86,0.67,1.3C616.49,314.77,618.51,321.42,615.59,335.44z"/>
<path fill="#FFFFFF" stroke="#000000" stroke-miterlimit="10" d="M601.26,376.67c-5.89,0.72-11.98,1.25-11.98,1.25l-9.98,11.58
	c0,0-3.39-10.69-5.71-12.83c-0.36-0.33-1.81-0.83-4.05-1.42c0.03-4.26,0.2-10.94,0.86-16.45c1.55-0.06,2.71-0.08,3.37-0.04
	c3.48,0.24,22.16,0.61,28.66,0.54C601.18,366.01,601.15,372.92,601.26,376.67z"/>
<path fill="#FFFFFF" stroke="#000000" stroke-miterlimit="10" d="M604.29,344.08c-0.46,6.44-1.47,11.8-1.47,11.8
	s0.16-0.11,0.45-0.32c-0.33,1.22-0.61,2.48-0.84,3.74c-6.5,0.07-25.18-0.3-28.66-0.54c-0.66-0.04-1.82-0.02-3.37,0.04
	c0.42-3.5,1.04-6.53,1.95-8.15c1.59-2.83,3.83-7.32,5.68-11.96c0.01,0.01,0.01,0.01,0.02,0.02c7.89-2.06,17.43-4.61,26.24,5.36
	C604.29,344.07,604.29,344.07,604.29,344.08z"/>
<path fill="#FFFFFF" stroke="#000000" stroke-miterlimit="10" d="M604.29,344.07c-8.81-9.97-18.35-7.42-26.24-5.36
	c-0.01-0.01-0.01-0.01-0.02-0.02c-2.68-2.47-8.48,0.02-8.48,0.02c-6.71-4.63-33.56-6.06-34.45-7.13
	c-0.67-0.8-13.7-10.77-20.22-15.75c12.84,0.2,36.7-7.18,39.89-8.13c1.86-0.56,7.47-4.22,13.53-7.22
	c8.38,3.6,30.72,17.14,34.52,26.17C604.66,331.03,604.72,338.02,604.29,344.07z"/>
<path fill="#FFFFFF" stroke="#000000" stroke-miterlimit="10" d="M506.48,364.53c-8.42-0.45-17.1-0.26-22.49-0.06
	c-0.16-1.96-1.01-4.26-2.3-6.74l2.33-5.3c0,0-0.95-7.66,1.72-8.37c-0.19-0.16-0.34-0.37-0.45-0.62c2.99,1.33,8.01,3.58,8.5,3.82
	C494.43,347.6,496.79,357.67,506.48,364.53z"/>
<path fill="#FFFFFF" stroke="#000000" stroke-miterlimit="10" d="M570.4,358.8c-0.66,5.51-0.83,12.19-0.86,16.45
	c-12.16-3.25-47.74-9.62-59.93-10.52c-1.04-0.08-2.09-0.14-3.14-0.2c-9.69-6.86-12.05-16.93-12.69-17.27
	c-0.49-0.24-5.51-2.49-8.5-3.82c-1.26-2.79,2-10.58,3.3-12.22c-0.08-0.12-0.15-0.25-0.2-0.41c3.65,2.1,8.33,5.01,8.76,6.3
	c0.71,2.13,14.43,17.46,32.97,20.49c3.36,0.55,6.81,0.93,10.22,1.19C552.58,359.7,564.43,359.01,570.4,358.8z"/>
<path fill="#FFFFFF" stroke="#000000" stroke-miterlimit="10" d="M578.03,338.69c-1.85,4.64-4.09,9.13-5.68,11.96
	c-0.91,1.62-1.53,4.65-1.95,8.15c-5.97,0.21-17.82,0.9-30.07-0.01c-2.91-4.68-7.7-12.38-8.44-13.49
	c-1.07-1.6-12.47-7.84-16.22-10.16c-3.74-2.31-8.91-9.44-11.4-12.29c-1.77-2.02-10.04-2.43-14.73-2.5l-2.6-8.62
	c0.34-0.48,0.64-0.93,0.93-1.36c1.13-1.68,2.05-3.38,2.78-5.04c3.96,3.13,13.02,9.5,22.11,10.39c0.67,0.07,1.38,0.1,2.12,0.11
	c6.52,4.98,19.55,14.95,20.22,15.75c0.89,1.07,27.74,2.5,34.45,7.13C569.55,338.71,575.35,336.22,578.03,338.69z"/>
<path fill="#FFFFFF" stroke="#000000" stroke-miterlimit="10" d="M482.69,295.64c-3.99,3.34-8.19,6.94-11.03,9.56
	c-6.56,6.06-3.11,14.19-8.26,28.29c-0.3,0.83-0.63,1.68-1,2.55c-2.24,5.32-5.3,10.55-8.7,15.42c-4.17,6.02-8.85,11.51-13.1,16.01
	c1.61-2.78,1.24-9.69-4.46-10.52c-4.17-0.61-8.16,4.2-11.16,8.49c-1.91-2.59-3.46-5.46-4.29-8.55c-1.99-7.47,0.67-19.04,3.4-27.79
	c10.09,2.79,28.72,7.41,34.03,8.01c2.21-5.53,6.24-36.59,13-54.76C473.77,286.2,478.76,292.99,482.69,295.64z"/>
<path fill="#FFFFFF" stroke="#000000" stroke-miterlimit="10" d="M662.85,496.07c-0.14,0.17-0.27,0.34-0.42,0.52
	c-0.46-0.75-1.01-1.52-1.62-2.31c0-0.01-0.01-0.02-0.02-0.03c-0.03-0.05-0.07-0.1-0.1-0.14c-0.01-0.02-0.03-0.04-0.05-0.05
	c0-0.01-0.02-0.02-0.02-0.02c-0.56-0.32-1.79,3.23-2.44,6.46c-0.36,1.8-0.55,3.51-0.34,4.38c0.33,1.37-0.23,1.98-1.17,2.12
	c-0.77,0.13-1.81-0.08-2.79-0.44c-0.22-0.08-0.42-0.19-0.59-0.33c-0.53-0.38-0.84-0.98-1.02-1.65c-0.21-0.74-0.27-1.56-0.33-2.27
	c-0.04-0.48-0.08-0.91-0.16-1.23c-0.07-0.3-0.23-0.9-0.43-1.66c-0.47-1.86-1.22-4.72-1.76-6.85c-0.25-0.97-0.45-1.79-0.58-2.3
	c-0.2-0.82,0.1-2.15,0.55-3.46c-0.21-1.08-0.06-2.27,0.92-3.36c0.22-0.25,0.49-0.49,0.81-0.73c0.01-0.01,0.01-0.01,0.01-0.01
	c1.15-0.86,1.98-1.54,2.58-2.08h0.01l0.01-0.01c0.07-0.02,0.34-0.1,0.75-0.12c1.13-0.07,3.32,0.28,5.32,3.45
	c0.23,0.37,0.45,0.76,0.66,1.16c0.66,1.31,1.16,2.76,1.51,4.18C662.82,491.97,662.99,494.57,662.85,496.07z"/>
<path fill="#FFFFFF" stroke="#000000" stroke-miterlimit="10" d="M664.08,515.81c-0.47,0.86-0.89,1.76-1.22,2.7
	c0.17,1.33,0.48,2.89,0.66,4.49v0.01c0.02,0.14,0.03,0.27,0.04,0.41c-0.09-0.02-0.18-0.03-0.26-0.05c-4.97-0.95-8.91-2.22-9.15-2.58
	c-0.87-1.34-0.91-9.3-0.86-14.56c0.17,0.14,0.37,0.25,0.59,0.33c0.98,0.36,2.02,0.57,2.79,0.44c2.39,2.53,4.9,5.45,7.41,8.8V515.81z
	"/>
<path fill="#FFFFFF" stroke="#000000" stroke-miterlimit="10" d="M422.36,499.74c-3.53,8.7-12.3,12.99-20.94,15.87
	c-3.24,1.08-6.46,1.96-9.37,2.8c-8.67,2.51-21.55-0.07-26.91-4.87c-1.25-1.12-2.09-2.36-2.38-3.68c-0.64-2.93,1.34-7.93,3.86-12.77
	c1.46,0.9,2.9,1.77,4.33,2.61c3.1-5.58,5.89-8.79,5.89-8.79s0.23-2.87,0.61-7.65c0.82,0.46,10.44-3.11,18.16-2.27
	c7.73,0.83,13.53,5.02,13.53,5.02c1.92,8.76,7.94,8.96,11.54,11.85C421.23,498.3,421.8,498.94,422.36,499.74z"/>
<path fill="#FFFFFF" stroke="#000000" stroke-miterlimit="10" d="M362.76,509.86c0.29,1.32,1.13,2.56,2.38,3.68
	c-0.31,1.1-0.61,2.23-0.88,3.4c-9.76-6.76-19.22-14.01-27.34-20.39c-19.96-15.68-47.76-38.26-64.16-44.43
	c-16.39-6.18-42.77-8.56-42.77-8.56s-9.03-9.03-5.7-13.31c3.32-4.27,12.35-12.12,23.76-5.22c7.6-1.19,47.04,12.79,81.74,44.67
	c11.75,10.79,24.76,19.97,36.83,27.39C364.1,501.93,362.12,506.93,362.76,509.86z"/>
<path fill="#FFFFFF" stroke="#000000" stroke-miterlimit="10" d="M497.24,557.87c-1.87,1.05-3.48,1.65-3.48,1.65
	c-9.36-2.56-13.36-5.17-26.55-13.31c-2.93-1.8-6.49-3.52-10.31-5.03c-13.36-5.31-29.71-8.12-31.93-3.4
	c-2.73,5.79,21.7,21.51,23.86,22.9c-12.85-7.27-25.21-13.97-34.2-18.05c0,0-0.01,0-0.02-0.01c-0.03,0-0.08-0.02-0.16-0.04
	c-0.07-0.02-0.15-0.05-0.26-0.08c-0.11-0.03-0.24-0.07-0.38-0.12c-1.82-0.59-6.1-2.18-7.37-4.42c-1.56-2.75-1.32-8.36,1.12-12.78
	c1.28-2.31,2.46-4.17,3.53-5.52c1.15,0.37,3.41,1.08,6.47,2.09v0.01c2.71,0.89,6.04,2.01,9.82,3.32c8.66,3,19.6,6.99,30.41,11.45
	C473.87,543.16,489.67,550.83,497.24,557.87z"/>
<path fill="#FFFFFF" stroke="#000000" stroke-miterlimit="10" d="M635.81,539.68l-11.6,6.53c0,0-5.05-16.15-8.21-25.61
	c0.26-0.98,0.52-1.98,0.78-3.02c0.45-1.78,0.92-3.63,1.37-5.55c1.31-5.5,2.57-11.47,3.45-17.46l4,3.22L635.81,539.68z"/>
<path fill="#FFFFFF" stroke="#000000" stroke-miterlimit="10" d="M618.16,512.03c-0.45,1.92-0.92,3.77-1.37,5.55
	c-0.41,0.26-0.91,0.56-1.49,0.91c-7.55,4.6-27.53,16.75-28.69,17.33c-0.05,0.03-0.11,0.16-0.18,0.39c-1.91-2.5-5.59-6.17-11.26-7.34
	l-4.18-65.6c1.08-1.08,5.36-5.42,8.36-8.91c2.66,3.3,7.68,9.52,10.83,13.56c4.45,5.7,10.87,20.49,13.72,26.02
	C606.04,498.09,614.22,507.56,618.16,512.03z"/>
<path fill="#FFFFFF" stroke="#000000" stroke-miterlimit="10" d="M616.01,520.6c-1.81,6.94-3.33,12.36-3.55,14.86
	c-0.54,5.88-1.07,40.99-2.68,41.53c-1.6,0.53-7.48-0.54-9.44,3.03c-1.96,3.56-0.36,10.15-4.64,11.94
	c-4.27,1.78-13.01,5.34-14.79,10.87c-0.1,0.32-0.22,0.66-0.35,1.01c1.1-15.9,4.52-62.84,5.87-67.63c0.07-0.23,0.13-0.36,0.18-0.39
	c1.16-0.58,21.14-12.73,28.69-17.33C615.52,519.14,615.76,519.85,616.01,520.6z"/>
<path fill="#FFFFFF" stroke="#000000" stroke-miterlimit="10" d="M486.33,618.89c-16.46,28.89-15.62,47.92-15.62,47.92
	s-19.23-1.91-36.79-14.33c-3.46-2.44-6.85-5.29-10.02-8.62c-19.25-20.21-24.95-55.11-24.95-55.11s4.28,1.42,24.71,3.09
	c8.32,10.3,16.37,13.85,23.67,13.91c9.37,0.08,17.5-5.62,23.38-10.24c6.77-5.31,9.75-11.86,11.01-15.81
	c9.44,5.51,17.55,10.21,22.74,13.01C496.82,602.06,490.91,610.86,486.33,618.89z"/>
<path fill="#FFFFFF" stroke="#000000" stroke-miterlimit="10" d="M499.29,529.4l-4.19,9.27c0,0,7.66,7.48,7.75,12.47
	c0.05,2.9-3.02,5.26-5.61,6.73c-7.57-7.04-23.37-14.71-39.45-21.34c0.97-5.16,2.01-11.05,3.08-17.35c2.35,0.03,5.6,0.09,10.08,0.21
	c4.9-7.1,9.73-16.76,14.14-26.96l3.45,19.33c0,0,5.94-9.01,16.27-10.09c1.77-8.7,4.59-24.59,6.58-36.03c1.95,4.98,3.4,8.47,3.4,8.69
	c0,0.29,0.5,3.29,1.14,6.91v0.01l-2.21,45.24c0,0,11.41,2.62,11.41,0c0-1.12,0.26-7.94,0.56-15.35c1.1,4.03,1.91,12.03,2.4,18.3
	c0.12,1.49,0.22,2.88,0.31,4.09C515.88,526.79,499.29,529.4,499.29,529.4z"/>
<path fill="#FFFFFF" stroke="#000000" stroke-miterlimit="10" d="M539.85,146.65l-0.95,2.26c0,0-6.18-4.87-8.97-4.99
	c-2.79-0.12-9.92,4.04-9.92,4.04s3.8-5.83,9.03-6.18C534.27,141.42,539.85,146.65,539.85,146.65z"/>
<path fill="#FFFFFF" stroke="#000000" stroke-miterlimit="10" d="M537.06,151.94c-1.6,0.53-4.28,1.62-7.93,1.51
	c-3.65-0.11-6.67-1.26-6.67-1.26s4.35-3.73,6.94-3.64C531.98,148.64,537.06,151.94,537.06,151.94z"/>
<path fill="#FFFFFF" stroke="#000000" stroke-miterlimit="10" d="M566.82,144.63c-1.26,0.03-2.41-0.04-3.53-0.07
	c-2.86-0.07-5.57,0.07-9.71,2.56c-0.83,0.49-1.72,1.09-2.68,1.79c-0.59-1.67-0.59-1.67-0.59-1.67c0.37-0.28,1.56-1.57,3.41-2.72
	c2.21-1.36,5.39-2.53,9.28-1.51C564.2,143.32,565.48,143.84,566.82,144.63z"/>
<path fill="#FFFFFF" stroke="#000000" stroke-miterlimit="10" d="M557.33,190.25c-2.15-2.25-7.28-4.75-12.14-4.75
	c-4.86,0-10.31,7.12-10.67,6.41c-0.21-0.42-0.48-0.64-1.46-1.86c-0.76-0.94-0.78-2.26-0.05-3.22c1.04-1.37,2.61-3.37,4.41-5.21
	c1.83,1.14,4.97,2.76,8.12,2.83c3.57,0.07,6.85-2.06,8.36-3.22c1.69,1.51,2.94,3.1,3.43,4.15
	C558.51,187.88,559.49,192.51,557.33,190.25z"/>
<path fill="#FFFFFF" stroke="#000000" stroke-miterlimit="10" d="M553.9,181.23c-1.51,1.16-4.79,3.29-8.36,3.22
	c-3.15-0.07-6.29-1.69-8.12-2.83c2.5-2.57,5.43-4.84,7.9-4.67C548.42,177.15,551.57,179.12,553.9,181.23z"/>
<path fill="#FFFFFF" stroke="#000000" stroke-width="0.5" stroke-miterlimit="10" d="M556.15,170.99c-0.33,0.34-0.77,0.6-1.28,0.68
	c-0.52,0.08-1.02-0.04-1.45-0.24c-0.84-0.4-1.47-1-2.1-1.5c-0.29-0.24-0.66-0.51-0.8-0.51h-0.01c-0.01,0-0.02,0.02-0.08,0.08
	c-0.17,0.22-0.38,0.39-0.59,0.52c-0.86,0.5-1.76,0.62-2.64,0.63c-0.89,0-1.77-0.12-2.64-0.55c-0.21-0.11-0.42-0.26-0.62-0.44
	l-0.08-0.1c-0.33,0.07-0.73,0.21-1.11,0.34c-0.79,0.25-1.61,0.49-2.47,0.61c-0.86,0.11-1.81,0.13-2.67-0.34c-0.42-0.23-0.79-0.6-1-1
	c-0.26-0.38-0.38-0.84-0.46-1.29c-0.09-0.92,0.21-1.8,0.63-2.54c0.9-1.46,2.22-2.57,3.66-3.38c-1.31,0.99-2.53,2.17-3.23,3.62
	c-0.35,0.7-0.55,1.48-0.43,2.21c0.14,0.71,0.57,1.42,1.19,1.7c0.62,0.31,1.41,0.28,2.17,0.16c0.78-0.13,1.54-0.38,2.31-0.65
	c0.4-0.14,0.76-0.28,1.23-0.4c0.07-0.01,0.13-0.02,0.23-0.03c0.06,0,0.07-0.01,0.17,0c0.09,0.02,0.16,0.01,0.34,0.16l0.15,0.17
	l0.05,0.07c0.11,0.1,0.24,0.19,0.39,0.27c0.62,0.3,1.42,0.42,2.18,0.41c0.76,0,1.56-0.12,2.14-0.46l0.19-0.13l0.14-0.15
	c0.07-0.08,0.21-0.25,0.38-0.34c0.18-0.1,0.41-0.14,0.59-0.11c0.68,0.14,0.95,0.48,1.3,0.74c0.64,0.55,1.22,1.12,1.87,1.44
	c0.64,0.34,1.3,0.27,1.84-0.22c0.54-0.44,0.77-1.16,0.68-1.92c-0.08-0.77-0.38-1.52-0.76-2.24c-0.74-1.44-1.77-2.74-2.95-3.9
	c1.33,1,2.46,2.25,3.38,3.66c0.44,0.72,0.81,1.51,0.96,2.39C557.11,169.28,556.88,170.34,556.15,170.99z"/>
<path fill="#FFFFFF" stroke="#000000" stroke-miterlimit="10" d="M429.59,519.6c-0.05,1.53-1.06,3.59-2.22,5.48
	c-3.78-1.31-7.11-2.43-9.82-3.32v-0.01c-1.1-5.73-3.33-6.03-6.47-2.09c-1.07,1.35-2.25,3.21-3.53,5.52
	c-2.44,4.42-2.68,10.03-1.12,12.78c1.27,2.24,5.55,3.83,7.37,4.42c0.14,0.05,0.27,0.09,0.38,0.12c0.11,0.03,0.19,0.06,0.26,0.08
	c0.08,0.02,0.13,0.04,0.16,0.04c0.01,0.01,0.02,0.01,0.02,0.01c-2.4,2.77-7.6,8.47-9.62,8.34c-2.67-0.18-16.4-10.16-16.4-10.16
	s-8.55,1.78-11.05-3.21c-6.05,0.18-8.55-4.46-8.55-4.46s-1.78,1.97-6.24-2.31c-0.07-4.97,0.52-9.63,1.5-13.89
	c0.27-1.17,0.57-2.3,0.88-3.4c5.36,4.8,18.24,7.38,26.91,4.87c2.91-0.84,6.13-1.72,9.37-2.8c8.64-2.88,17.41-7.17,20.94-15.87
	C426.05,504.9,429.69,516.41,429.59,519.6z"/>
<path fill="#FFFFFF" stroke="#000000" stroke-miterlimit="10" d="M787.25,586.39c-3.36,0.06-8.8-0.33-16.92-2.19
	c-0.01,0-0.01-0.01-0.02-0.01c-0.05-0.02-0.11-0.03-0.17-0.04c-0.9-0.24-2.68-0.71-4.53-1.2h-0.01c-2.26-0.6-4.64-1.23-5.68-1.55
	c-21.05-6.39-33.3-26.87-35.82-31.45c-0.04-0.08-0.08-0.15-0.12-0.21c-0.01-0.01-0.01-0.02-0.02-0.03c1.97-1.56,5.09-4.11,6.6-5.34
	c-0.4,4.87,5.17,12.83,8.23,14.79c3.11,1.99,5.22-0.62,5.22-0.62s2.86,3.48,3.98,4.72c1.11,1.24,4.97-0.75,4.97-0.75
	s3.36,5.72,8.33,10.56C766.19,577.88,771.22,580.11,787.25,586.39z"/>
<path fill="#FFFFFF" stroke="#000000" stroke-miterlimit="10" d="M730.59,544.14c-0.01,0.08-0.02,0.16-0.03,0.24v0.01
	c-1.51,1.23-4.63,3.78-6.6,5.34c0,0-0.01,0-0.02,0.01c-8.34-2.77-18.93-13.54-24.4-19.88c-0.19-0.22-0.37-0.43-0.54-0.64
	c-0.18-0.21-0.35-0.41-0.51-0.6l-0.01-0.01l-5.22-4.82c0.46,0.22,7.81,3.87,9.86,4.32c-2.27-2.53-3.5-3.86-4.15-4.57
	c1.32,1.35,4.31,4.28,7.3,6.2c3.27,3.66,7.56,8.3,10.89,11.29C723.38,546.63,728.85,544.02,730.59,544.14z"/>
<path fill="#FFFFFF" stroke="#000000" stroke-miterlimit="10" d="M787.88,586.64c-38.15,19.01-74.19,11.19-74.19,11.19
	s-5.96-17.27-16.41-30.94c-8.97-11.74-23.62-23.3-27.57-26.33c0.25,0.02,0.5,0.04,0.75,0.04c-1.58-2.75,4.1-4.61,6.76-4.1
	c2.66,0.51,26.16,22.06,33.99,30.01c7.83,7.95,20.25,19.63,32.8,20.5c9.95,0.69,18.41-2.6,21.5-4c1.63,0.43,3.18,0.82,4.63,1.15
	c0.06,0.02,0.12,0.03,0.17,0.04c0.01,0,0.02,0.01,0.02,0.01c8.13,1.86,13.57,2.24,16.92,2.19
	C787.46,586.47,787.67,586.55,787.88,586.64z"/>
<path fill="#FFFFFF" stroke="#000000" stroke-miterlimit="10" d="M765.6,582.97c-0.03,0.01-0.06,0.03-0.1,0.05
	c-3.08,1.39-11.55,4.68-21.49,3.99c-12.55-0.87-24.98-12.55-32.81-20.5c-7.83-7.95-31.33-29.5-33.99-30.01
	c-2.65-0.51-8.34,1.35-6.75,4.1c-0.25-0.01-0.5-0.02-0.75-0.04c-0.44-0.04-0.88-0.1-1.33-0.18c-0.51-2.81-1.18-8.68,1.84-9.94
	c4.01-1.68,6.71-0.93,6.71-0.93s2.05-3.45,5.31-1.96c1.97-2.7,3.17-4.6,5.41-3.41c2.2,1.15,10.57,4.37,10.83,4.47l0.01,0.01
	c0.16,0.19,0.33,0.39,0.51,0.6c0.17,0.21,0.35,0.42,0.54,0.64c5.47,6.34,16.06,17.11,24.4,19.88c0.01,0.01,0.03,0.02,0.04,0.02
	c0.03,0.06,0.07,0.13,0.11,0.21c2.52,4.58,14.78,25.06,35.82,31.45C760.96,581.74,763.34,582.37,765.6,582.97z"/>
<path fill="#FFFFFF" stroke="#000000" stroke-miterlimit="10" d="M704.72,516.55c-1.68,1.49-3.73,2.34-4.48,2.24
	c-0.74-0.09-2.14-2.14-1.77-3.36c0.01-0.01,0.01-0.02,0.02-0.04c-3.43,0.27-9.32,0.67-13.57,0.61c-0.22,0-0.43-0.01-0.64-0.01
	c-0.21-0.01-0.41-0.01-0.61-0.02c-0.4-0.02-0.78-0.04-1.13-0.07c-0.76-0.06-1.52-0.09-2.25-0.09c-0.3,0-0.59,0.01-0.88,0.02
	c-0.23,0-0.45,0.01-0.67,0.03h-0.03c-0.16,0.01-0.31,0.02-0.46,0.04c-0.06,0-0.11,0.01-0.16,0.01s-0.09,0.01-0.14,0.02
	c-0.2,0.02-0.41,0.04-0.6,0.07c-0.02,0-0.05,0.01-0.07,0.01c-0.33,0.04-0.65,0.1-0.96,0.16c-0.34,0.06-0.66,0.14-0.98,0.22
	c-0.24,0.06-0.48,0.13-0.71,0.21c-0.26,0.09-0.51,0.18-0.75,0.28c-0.2,0.08-0.39,0.16-0.57,0.26c-0.14,0.06-0.27,0.13-0.4,0.21
	c-0.08,0.04-0.15,0.08-0.22,0.13c-0.09,0.05-0.18,0.11-0.27,0.17c-0.01,0.01-0.02,0.01-0.03,0.02c-0.1,0.07-0.2,0.14-0.29,0.22
	c-0.02,0.01-0.03,0.02-0.05,0.03c-0.04,0.03-0.08,0.06-0.11,0.09c-0.01,0.01-0.02,0.02-0.03,0.03c-0.06,0.05-0.11,0.09-0.16,0.14
	c-0.09,0.07-0.16,0.15-0.24,0.23c-0.08,0.07-0.15,0.15-0.22,0.24c-0.22,0.26-0.41,0.54-0.56,0.84c-0.09,0.16-0.16,0.33-0.22,0.51
	c-0.07,0.2-0.14,0.42-0.2,0.65c-0.08,0.25-0.15,0.51-0.22,0.78c-0.07,0.24-0.13,0.49-0.2,0.74s-0.13,0.49-0.19,0.74
	c-0.12,0.44-0.24,0.9-0.36,1.35c-0.07,0.26-0.14,0.52-0.22,0.78c-0.08,0.28-0.17,0.56-0.26,0.84c-0.08,0.28-0.18,0.55-0.27,0.81
	c-0.05,0.14-0.1,0.27-0.15,0.4c-0.08,0.23-0.18,0.45-0.28,0.67c-0.06,0.15-0.13,0.29-0.2,0.43c-0.03,0.07-0.07,0.13-0.1,0.2
	c-0.08,0.15-0.16,0.29-0.24,0.42c-0.08,0.14-0.16,0.27-0.25,0.39c-0.05,0.07-0.09,0.13-0.13,0.18c-0.05,0.06-0.1,0.11-0.14,0.17
	c-0.05,0.06-0.1,0.13-0.15,0.18c-0.06,0.06-0.12,0.13-0.18,0.18c-0.09,0.08-0.17,0.15-0.26,0.22c-0.1,0.08-0.2,0.15-0.3,0.21
	c-0.02,0.01-0.03,0.02-0.05,0.02c-0.09,0.06-0.19,0.11-0.29,0.14c-0.04,0.02-0.09,0.04-0.14,0.06c-0.08,0.03-0.16,0.05-0.25,0.07
	c-0.92,0.19-2.3,0.15-3.79,0.01c-2.38,2.01-6.46,3.3-6.46,3.3s6.56,5.3,13.16,6.44c-0.51-2.81-1.18-8.68,1.84-9.94
	c4.01-1.68,6.71-0.93,6.71-0.93s2.05-3.45,5.31-1.96c1.97-2.7,3.17-4.6,5.41-3.41c2.2,1.15,10.57,4.37,10.83,4.47l-5.22-4.82
	c0.46,0.22,7.81,3.87,9.86,4.32c-2.27-2.53-3.5-3.86-4.15-4.57c1.32,1.35,4.31,4.28,7.3,6.2c1.66,1.06,3.33,1.82,4.71,1.82
	c0.99,2.42,3.7,5.99,3.7,5.99S717.2,525.78,704.72,516.55z M690.11,516.65c-0.54,0.08-2.41,0.36-4.41,0.83
	c-0.16,0.04-0.33,0.08-0.49,0.12c-0.17,0.03-0.33,0.08-0.5,0.13c-0.38,0.1-0.75,0.2-1.11,0.31c-0.04,0.01-0.08,0.02-0.12,0.04
	c-0.14,0.04-0.27,0.08-0.41,0.13c-0.13,0.04-0.26,0.08-0.39,0.13c-0.19,0.07-0.38,0.14-0.56,0.22c-0.77,0.31-1.41,0.67-1.79,1.06
	c-0.08,0.08-0.16,0.15-0.24,0.22c-0.08,0.07-0.16,0.15-0.25,0.21c-0.18,0.15-0.37,0.28-0.57,0.41c-0.01,0.01-0.02,0.02-0.04,0.02
	c-0.25,0.17-0.52,0.32-0.8,0.47c-0.01,0-0.03,0.01-0.05,0.02c-0.47,0.24-0.96,0.46-1.44,0.64c-0.16,0.06-0.31,0.12-0.47,0.18
	c-0.31,0.12-0.62,0.22-0.9,0.31c-0.13,0.04-0.26,0.08-0.39,0.12c-0.02,0-0.04,0.01-0.05,0.02c-0.12,0.03-0.23,0.06-0.34,0.09
	c-0.26,0.07-0.48,0.13-0.66,0.18c-0.07,0.01-0.13,0.03-0.18,0.04c-0.05,0.01-0.09,0.02-0.13,0.03c-0.02,0.01-0.04,0.01-0.05,0.01
	c-0.03,0.01-0.06,0.02-0.09,0.02c-0.08,0.02-0.12,0.03-0.12,0.03s1.1-1.67,2.64-3.26c0.26-0.26,0.52-0.52,0.8-0.77
	c0.62-0.56,1.29-1.07,1.97-1.42c0.1-0.06,0.2-0.11,0.3-0.15c0.3-0.15,0.61-0.26,0.91-0.33c0.24-0.06,0.47-0.09,0.71-0.09
	c1.2-0.02,2.61-0.02,3.96-0.01c0.63,0,1.26,0.01,1.84,0.01c1.71,0.01,3.1,0.03,3.52,0c0.03,0,0.05,0,0.05,0
	C690.25,516.63,690.2,516.63,690.11,516.65z"/>
<path fill="#FFFFFF" stroke="#000000" stroke-miterlimit="10" d="M698.48,515.39c-3.43,0.27-9.32,0.67-13.57,0.61
	c-0.22,0-0.43-0.01-0.64-0.01c-0.21-0.01-0.41-0.01-0.61-0.02c-0.4-0.02-0.78-0.04-1.13-0.07c-0.76-0.06-1.52-0.09-2.25-0.09
	c-0.3,0-0.59,0.01-0.88,0.02c-0.23,0-0.45,0.01-0.67,0.03h-0.03c-0.16,0.01-0.31,0.02-0.46,0.04c-0.06,0-0.11,0.01-0.16,0.01
	s-0.09,0.01-0.14,0.02c-0.2,0.02-0.41,0.04-0.6,0.07c-0.02,0-0.05,0.01-0.07,0.01c-0.33,0.04-0.65,0.1-0.96,0.16
	c-0.34,0.06-0.66,0.14-0.98,0.22c-0.24,0.06-0.48,0.13-0.71,0.21c-0.26,0.09-0.51,0.18-0.75,0.28c-0.2,0.08-0.39,0.16-0.57,0.26
	c-0.14,0.06-0.27,0.13-0.4,0.21c-0.08,0.04-0.15,0.08-0.22,0.13c-0.09,0.05-0.18,0.11-0.27,0.17c-0.01,0.01-0.02,0.01-0.03,0.02
	c-0.1,0.07-0.2,0.14-0.29,0.22c-0.02,0.01-0.03,0.02-0.05,0.03c-0.04,0.03-0.08,0.06-0.11,0.09c-0.01,0.01-0.02,0.02-0.03,0.03
	c-0.05,0.04-0.11,0.08-0.16,0.14c-0.09,0.07-0.16,0.15-0.24,0.23c-0.08,0.07-0.15,0.15-0.22,0.24c-0.22,0.26-0.41,0.54-0.56,0.84
	c-0.09,0.16-0.16,0.33-0.22,0.51c-0.07,0.2-0.14,0.42-0.2,0.65c-0.08,0.25-0.15,0.51-0.22,0.78c-0.07,0.24-0.13,0.49-0.2,0.74
	c-0.07,0.25-0.13,0.49-0.19,0.74c-0.12,0.44-0.24,0.9-0.36,1.35c-1.96-0.19-3.93-0.49-5.77-0.84c-0.01-0.14-0.02-0.27-0.04-0.41V523
	c1.25-2.06,4.09-6.48,7.29-9.76c1.15-1.16,2.33-2.19,3.51-2.9c3.67-2.23,5.87-3.74,7.5-4.77c0.96,0.11,3.06,0.8,5.54,1.73v0.01
	c5.81,2.18,13.7,5.64,13.9,5.7C701.53,513.11,698.9,514.2,698.48,515.39z"/>
<path fill="#FFFFFF" stroke="#000000" stroke-miterlimit="10" d="M669.33,524.26c-0.07,0.26-0.14,0.52-0.22,0.78
	c-0.08,0.28-0.17,0.56-0.26,0.84c-0.08,0.28-0.18,0.55-0.27,0.81c-0.05,0.14-0.1,0.27-0.15,0.4c-0.09,0.23-0.18,0.46-0.28,0.67
	c-0.06,0.15-0.13,0.29-0.2,0.43c-0.03,0.07-0.07,0.13-0.1,0.2c-0.08,0.15-0.16,0.29-0.24,0.42c-0.08,0.14-0.16,0.27-0.25,0.39
	c-0.05,0.07-0.09,0.13-0.13,0.18c-0.05,0.06-0.1,0.11-0.14,0.17c-0.05,0.06-0.1,0.13-0.15,0.18c-0.06,0.06-0.12,0.13-0.18,0.18
	c-0.09,0.08-0.17,0.15-0.26,0.22c-0.1,0.08-0.2,0.15-0.3,0.21c-0.02,0.01-0.03,0.02-0.05,0.02c-0.09,0.06-0.19,0.11-0.29,0.14
	c-0.04,0.02-0.09,0.04-0.14,0.06c-0.08,0.03-0.16,0.05-0.25,0.07c-0.92,0.19-2.3,0.15-3.79,0.01c0.74-0.62,1.31-1.32,1.56-2.06
	c0.51-1.6,0.5-3.4,0.32-5.16C665.4,523.77,667.37,524.07,669.33,524.26z"/>
<path fill="#FFFFFF" stroke="#000000" stroke-miterlimit="10" d="M681.59,505.56c0.07,0,0.14,0,0.23,0.01
	c-1.63,1.03-3.83,2.54-7.5,4.77c-1.18,0.71-2.36,1.74-3.51,2.9c-3.2,3.28-6.04,7.7-7.29,9.76c-0.18-1.6-0.49-3.16-0.66-4.49
	c0.33-0.94,0.75-1.84,1.22-2.7v-0.01c0.15-0.27,0.3-0.53,0.46-0.78c0.16-0.26,0.32-0.51,0.49-0.76c0.12-0.19,0.25-0.37,0.39-0.55
	c0.15-0.22,0.31-0.43,0.48-0.64c0.08-0.11,0.16-0.21,0.25-0.31c0.01-0.02,0.03-0.03,0.04-0.05c0.16-0.2,0.32-0.4,0.5-0.59
	c0.19-0.23,0.4-0.45,0.6-0.67c0.21-0.22,0.41-0.44,0.63-0.65c0.19-0.19,0.38-0.38,0.58-0.56c0.02-0.02,0.04-0.04,0.06-0.06
	c0.04-0.03,0.07-0.07,0.11-0.1c0.15-0.15,0.3-0.29,0.46-0.42c0.14-0.13,0.28-0.25,0.42-0.38c0.01-0.01,0.03-0.02,0.04-0.03
	c0.22-0.19,0.44-0.38,0.66-0.55c0.2-0.17,0.39-0.32,0.59-0.47c0.25-0.21,0.5-0.4,0.76-0.58c0.18-0.14,0.36-0.27,0.55-0.4
	c0.33-0.24,0.67-0.47,1-0.69c5.62-3.75,11.24-5.48,11.24-5.48S683.46,502.39,681.59,505.56z"/>
<path fill="#FFFFFF" stroke="#000000" stroke-miterlimit="10" d="M690.25,516.62c-0.01,0.01-0.06,0.01-0.15,0.03
	c-0.54,0.08-2.41,0.36-4.41,0.83c-0.16,0.04-0.33,0.08-0.49,0.12c-0.17,0.03-0.33,0.08-0.5,0.13c-0.37,0.09-0.75,0.2-1.11,0.31
	c-0.04,0.01-0.08,0.02-0.12,0.04c-0.14,0.04-0.27,0.08-0.41,0.13c-0.13,0.04-0.26,0.08-0.39,0.13c-0.19,0.07-0.38,0.14-0.56,0.22
	c-0.77,0.31-1.41,0.67-1.79,1.06c-0.08,0.08-0.16,0.15-0.24,0.22c-0.08,0.07-0.16,0.15-0.25,0.21c-0.18,0.15-0.37,0.28-0.57,0.41
	c-0.01,0.01-0.02,0.02-0.04,0.02c-0.25,0.17-0.52,0.32-0.8,0.47c-0.01,0-0.03,0.01-0.05,0.02c-0.47,0.24-0.96,0.46-1.44,0.64
	c-0.16,0.06-0.31,0.12-0.47,0.18c-0.31,0.12-0.62,0.22-0.9,0.31c-0.13,0.04-0.26,0.08-0.39,0.12c-0.02,0-0.04,0.01-0.05,0.02
	c-0.12,0.03-0.23,0.06-0.34,0.09c-0.26,0.07-0.48,0.13-0.66,0.18c-0.07,0.01-0.13,0.03-0.18,0.04c-0.05,0.01-0.09,0.02-0.13,0.03
	c-0.02,0.01-0.04,0.01-0.05,0.01c-0.03,0.01-0.06,0.02-0.09,0.02c-0.08,0.02-0.12,0.03-0.12,0.03s1.1-1.67,2.64-3.26
	c0.83,0.54,1.78,0.75,2.49,0.62c0.26-0.04,0.49-0.12,0.68-0.25c0.65-0.45,0.86-2.27,0.81-3.04c0.24-0.06,0.47-0.09,0.71-0.09
	c1.2-0.02,2.61-0.02,3.96-0.01c0.63,0,1.26,0.01,1.84,0.01c1.71,0.01,3.1,0.03,3.52,0C690.23,516.62,690.25,516.62,690.25,516.62z"
	/>
<path fill="#FFFFFF" stroke="#000000" stroke-miterlimit="10" d="M679.36,519.75c-0.19,0.13-0.42,0.21-0.68,0.25
	c-0.71,0.13-1.66-0.08-2.49-0.62c0.26-0.26,0.52-0.52,0.8-0.77c0.62-0.56,1.29-1.07,1.97-1.42c0.1-0.06,0.2-0.11,0.3-0.15
	c0.3-0.15,0.61-0.26,0.91-0.33C680.22,517.48,680.01,519.3,679.36,519.75z"/>
<path fill="#FFFFFF" stroke="#000000" stroke-miterlimit="10" d="M673.15,506.56c-0.33,0.22-0.67,0.45-1,0.69
	c-0.19,0.13-0.37,0.26-0.55,0.4c-0.26,0.18-0.51,0.37-0.76,0.58c-0.2,0.15-0.39,0.3-0.59,0.47c-0.22,0.17-0.44,0.36-0.66,0.55
	c-0.01,0.01-0.03,0.02-0.04,0.03c-0.14,0.13-0.28,0.25-0.42,0.38c-0.16,0.13-0.31,0.27-0.46,0.42c-0.04,0.03-0.07,0.07-0.11,0.1
	c-0.02,0.02-0.04,0.04-0.06,0.06c-0.2,0.18-0.39,0.37-0.58,0.56c-0.22,0.21-0.42,0.43-0.63,0.65c-0.2,0.22-0.41,0.44-0.6,0.67
	c-0.18,0.19-0.34,0.39-0.5,0.59c-0.01,0.02-0.03,0.03-0.04,0.05c-0.09,0.1-0.17,0.2-0.25,0.31c-0.17,0.21-0.33,0.42-0.48,0.64
	c-0.14,0.18-0.27,0.36-0.39,0.55c-0.17,0.25-0.33,0.5-0.49,0.76c-0.16,0.25-0.31,0.51-0.46,0.78c-2.51-3.35-5.02-6.27-7.41-8.8
	c0.94-0.14,1.5-0.75,1.17-2.12c-0.21-0.87-0.02-2.58,0.34-4.38c0.65-3.23,1.88-6.78,2.44-6.46c0,0,0.02,0.01,0.02,0.02
	c0.05,0.06,0.1,0.12,0.15,0.19c0.01,0.01,0.02,0.02,0.02,0.03l0.43,0.61l0.85,1.23l0.33,0.48l0.12,0.17l0.05,0.07
	c0.02,0.02,0.03,0.03,0.04,0.05c0.01,0.03,0.03,0.06,0.05,0.09C665.78,502.2,670.87,505.35,673.15,506.56z"/>
<path fill="#FFFFFF" stroke="#000000" stroke-miterlimit="10" d="M651.94,502.31c-0.54-0.5-1.07-0.99-1.59-1.45
	c-1.5-1.34-2.91-2.51-4.19-3.54c-3.61-2.9-6.2-4.64-7.06-5.65c-0.05-0.07-0.09-0.15-0.11-0.23v-0.01
	c-1.04-2.93,8.12-10.95,8.12-10.95s0.4,0.34,1.09,0.94c0.58,0.51,1.36,1.2,2.28,2.03c-0.98,1.09-1.13,2.28-0.92,3.36
	c-0.45,1.31-0.75,2.64-0.55,3.46c0.13,0.51,0.33,1.33,0.58,2.3c0.54,2.13,1.29,4.99,1.76,6.85c0.2,0.76,0.36,1.36,0.43,1.66
	C651.86,501.4,651.9,501.83,651.94,502.31z"/>
<path fill="#FFFFFF" stroke="#000000" stroke-miterlimit="10" d="M648.2,481.42c-0.69-0.6-1.09-0.94-1.09-0.94
	s-9.16,8.02-8.12,10.95c-1.68-0.85-3.56-1.78-4.85-2.97c0.92-1.73,2.66-4.45,4.18-6.02c2.36-2.42,2.67-5.84,6.15-5.96
	c0,0.25,0.75,1.06,2.49,2.61C647.85,479.88,648.13,480.75,648.2,481.42z"/>
<path fill="#FFFFFF" stroke="#000000" stroke-miterlimit="10" d="M644.47,476.47c-3.48,0.12-3.79,3.54-6.15,5.96
	c-1.53,1.57-3.27,4.29-4.18,6.02c-0.79-0.72-1.36-1.54-1.53-2.48c-0.5-2.8,7.15-12.74,8.7-14.17c1.55-1.43,3.11,0.62,3.79,1.74
	C645.78,474.67,644.47,476.22,644.47,476.47z"/>
<path fill="#FFFFFF" stroke="#000000" stroke-miterlimit="10" d="M538.76,543.75c-1.36,0.47-3,1.64-4.78,3.28l-2.35,2.41l-0.17,0.18
	l-1,1.03c-5.63,6.33-11.68,15.44-14.25,21.11c-3.91-3.58-9.65-7.8-17.34-12.24c-0.49-0.55-1.04-1.1-1.63-1.65
	c2.59-1.47,5.66-3.83,5.61-6.73c-0.09-4.99-7.75-12.47-7.75-12.47l4.19-9.27c0,0,16.59-2.61,29.11,4.13l0.05,0.03
	c0.43,0.23,3.35,1.82,5.55,3.88c-0.01,0.02-0.01,0.05-0.02,0.07c0.44,0.41,0.87,0.84,1.28,1.28c0.02,0.03,0.04,0.05,0.06,0.08
	C536.63,540.29,537.79,541.91,538.76,543.75z"/>
</svg>
