<?xml version="1.0" encoding="utf-8"?>
<!-- Generator: Adobe Illustrator 25.2.0, SVG Export Plug-In . SVG Version: 6.00 Build 0)  -->
<svg version="1.1" id="Layer_1" xmlns="http://www.w3.org/2000/svg" xmlns:xlink="http://www.w3.org/1999/xlink" x="0px" y="0px"
	 viewBox="0 0 1000 1000" style="enable-background:new 0 0 1000 1000;" xml:space="preserve">
<style type="text/css">
	.st0{fill:#FFFFFF;stroke:#000000;stroke-miterlimit:10;}
</style>
<path class="st0" d="M394.4,501.2c-1.6,9-5.8,4.6-5.8,4.6l-3.6-15.9c0.1-7.6,2.1-10.3,3.6-11.2c0,0.1,0,0.1,0,0.1s6.5,8,7.3,10
	C396.8,490.8,394.4,501.2,394.4,501.2z"/>
<path class="st0" d="M346.3,464.7c-6.1,0.7-10.9,2.6-14.5,4.8c-0.9,0.5-1.7,1.1-2.4,1.6c-5.1,3.8-7.2,7.8-7.4,8.1
	c0.3-4.1,1.5-7.3,3.2-9.9c1-1.5,2-2.7,3.1-3.8c4.4-4.1,9.4-5.5,9.4-5.5S340.9,461.7,346.3,464.7z"/>
<path class="st0" d="M355.3,470c-14.4,2-23.9,10.9-27.7,15.3c-2-2-3.9-4-5.7-6c0,0,0,0,0,0c0.2-0.3,2.3-4.4,7.4-8.1
	c0.8-0.6,1.6-1.1,2.4-1.6c3.6-2.2,8.4-4.1,14.5-4.8C348.9,466.2,351.9,468,355.3,470z"/>
<path class="st0" d="M363.2,475c-13.6,2.2-24.8,11.4-29.7,16c-2-1.9-4-3.8-5.9-5.7c3.8-4.4,13.3-13.3,27.7-15.3
	C357.8,471.6,360.4,473.2,363.2,475z"/>
<path class="st0" d="M374.2,482.6c-16.8,2.4-26.9,11.6-31.4,16.6c-3.1-2.6-6.3-5.4-9.4-8.3c4.9-4.6,16-13.8,29.7-16
	C366.7,477.3,370.4,479.9,374.2,482.6z"/>
<path class="st0" d="M384.2,490.2c-12.2,2.4-24.7,11-31.9,16.7c-3.1-2.4-6.3-4.9-9.5-7.6c4.4-5.1,14.6-14.3,31.4-16.6
	C377.5,485,380.9,487.5,384.2,490.2z"/>
<path class="st0" d="M394,498.3c-12.1,3-25.5,11.6-31.7,15.9c-3.1-2.2-6.4-4.6-9.9-7.3c7.2-5.7,19.6-14.3,31.9-16.7
	C387.5,492.8,390.7,495.5,394,498.3z"/>
<path class="st0" d="M397.1,501.1c0.3,3.4,0.5,6,0.5,8.1c-10.1,2.3-21.1,7.5-27.2,10.7c-2.4-1.6-5.1-3.5-8.2-5.6
	c6.2-4.3,19.6-13,31.7-16c0.9,0.8,1.9,1.6,2.8,2.5C396.9,500.9,397,501,397.1,501.1z"/>
<path class="st0" d="M397.7,509.2c0,5-0.9,7-2.8,9.3c-2.7,3.3-15.6,7-15.6,7s-3.4-2-8.8-5.6C376.6,516.7,387.5,511.5,397.7,509.2z"
	/>
<path class="st0" d="M467.9,215.2c-1.1,14.3-12.3,49.7-21.8,57.2c-0.8,0.6-1.5,1-2.3,1.3c-1.6,0.5-3.9,0.9-6.5,1.2
	c-2.7,0.3-5.8,0.6-9.2,0.8c-1.7,0.1-3.4,0.2-5.1,0.2c-0.9,0-1.7,0.1-2.6,0.1c-0.9,0-1.8,0-2.7,0.1c-1.3,0-2.6,0.1-3.9,0.1
	c-10.3,0.2-19.9,0.1-23.1,0.1c-0.6,0-1,0-1.1,0c-0.1,0-0.2-0.1-0.5-0.4c0-0.1-0.1-0.1-0.2-0.2c-0.1-0.1-0.1-0.1-0.2-0.2
	c-0.3-0.3-0.7-0.8-1.2-1.3c-0.1-0.1-0.2-0.2-0.3-0.3c-0.3-0.3-0.6-0.7-1-1.1c-0.2-0.3-0.5-0.5-0.7-0.8c-0.4-0.4-0.8-0.9-1.2-1.4
	c-0.5-0.6-1.1-1.3-1.6-2c-0.3-0.4-0.6-0.7-0.9-1.1c-0.1-0.2-0.3-0.4-0.4-0.6c-0.3-0.4-0.6-0.8-0.9-1.2c-0.6-0.8-1.2-1.6-1.8-2.4
	c-0.3-0.4-0.6-0.8-0.9-1.2c-0.1-0.2-0.3-0.4-0.5-0.6c-0.3-0.4-0.6-0.8-0.9-1.2c-2-2.7-3.9-5.5-5.4-8c-0.2-0.4-0.5-0.8-0.7-1.1
	c-1.1-1.9-2-3.6-2.5-5c-0.1-0.2-0.1-0.4-0.2-0.5c2.9-21.2,17.4-36.9,38.8-41.7c6.9-1.5,12.8-2.3,17.8-2.6
	c10.4-0.7,16.2,0.7,16.2,0.7s24.3,0,27.2,8.2C468,211.3,468.1,213,467.9,215.2z"/>
<path class="st0" d="M377.2,351.3c4.8,18.8,8.3,43.2-1.6,55.4c-23.5-12.6-54.5-65.8-51.5-75.4v0c0-0.2,0.1-0.3,0.1-0.4
	c2.4-12.5,14.7-55.1,20.3-64.3c4.6-7.5,18.5-17.1,23.2-20.3c0.5,1.4,1.4,3.1,2.5,5c0.2,0.4,0.5,0.8,0.7,1.1c1.5,2.5,3.4,5.3,5.4,8
	c0.3,0.4,0.6,0.8,0.9,1.2c0.2,0.2,0.3,0.4,0.5,0.6c0.3,0.4,0.6,0.8,0.9,1.2c0.6,0.8,1.2,1.6,1.8,2.4c0.3,0.4,0.6,0.8,0.9,1.2
	c0.1,0.2,0.3,0.4,0.4,0.6c0.3,0.4,0.6,0.7,0.9,1.1c0.6,0.7,1.1,1.4,1.6,2c0.4,0.5,0.8,0.9,1.2,1.4c0.2,0.3,0.5,0.6,0.7,0.8
	c0.3,0.4,0.7,0.8,1,1.1c0.1,0.1,0.2,0.2,0.3,0.3c0.5,0.5,0.9,1,1.2,1.3c0.1,0.1,0.1,0.1,0.2,0.2s0.1,0.1,0.2,0.2
	c0.3,0.3,0.5,0.4,0.5,0.4c0.1,0,0.5,0,1.1,0c-3,4.7-9.1,15.2-11.2,28c-0.8,4.9-2,8.7-3.3,11.7c-0.4,1-0.9,1.9-1.3,2.7
	c-0.9,1.6-1.7,3-2.5,4c-0.1,0.2-0.3,0.3-0.4,0.5c-0.3,0.3-0.5,0.6-0.7,0.8c-1.3,1.4-2.2,1.9-2.2,1.9S373.6,337,377.2,351.3z"/>
<path class="st0" d="M446.1,272.4c-0.9,2.2-2.1,4.9-3.6,8.1c-3.4,7.3-8.1,16.7-13.8,26v0c-2.5,4.1-5.2,8.1-8,11.9
	c-0.8,1-1.5,2-2.3,3c-0.3,0.4-0.6,0.8-0.9,1.1c-0.6,0.8-1.2,1.5-1.9,2.2c-0.3,0.4-0.6,0.7-0.9,1.1c-1.3,1.4-2.5,2.8-3.8,4
	c-12.3,12.6-24.3,19.5-33.7,21.3c-3.7-14.3-8.1-25.4-8.1-25.4s0.9-0.5,2.2-1.9c0.2-0.2,0.5-0.5,0.7-0.8c0.1-0.2,0.3-0.3,0.4-0.5
	c0.8-1,1.7-2.3,2.5-4c0.4-0.8,0.9-1.7,1.3-2.7c1.3-3,2.4-6.9,3.3-11.7c2.1-12.8,8.2-23.3,11.2-28c3.2,0,12.7,0.1,23.1-0.1
	c1.3,0,2.6,0,3.9-0.1c0.9,0,1.8-0.1,2.7-0.1c0.9,0,1.7-0.1,2.6-0.1c1.8-0.1,3.5-0.1,5.1-0.2c3.3-0.2,6.5-0.4,9.2-0.8
	c2.7-0.3,4.9-0.7,6.5-1.2C444.5,273.5,445.3,273,446.1,272.4z"/>
<path class="st0" d="M375.7,406.6c-0.7,2-1.3,6.2-1.8,11.4c-2.7-2.5-8.6-5.8-21.2-5.8c-14.4-0.1-24.1,9.6-28.5,15.8
	c-5.2-12.8-11-27.5-12.9-38.9c-3.4-20.2,7-38.8,7-40v-11.6c0-2,3.4-4.6,5.9-6.3C321.1,340.9,352.2,394.1,375.7,406.6z"/>
<path class="st0" d="M388.6,478.6c-1.4,0.9-3.5,3.6-3.6,11.2l-10.8,15.9c0,0-6.9-4.8-12.5-2.6c-1.8,0.8-3,2.5-3,4.5
	c-2.5-2.2-6.7-5.3-9-3.7c-1.1,0.7-2,1.6-2.6,2.5c-1.1-1.6-3.4-4.1-6.6-3.9c-1.7,0.1-3,0.2-4.1,0.5c-1.8-4.3-6.4-5-8.2-5
	c-0.2-7.1,3.7-21.6,5.3-33.2c3.1,0.3,23-12.2,30.8-12.2c4.9,0,7.8,0.5,10.4,0.6c0.6,2.2,1.4,4,2.3,5
	C383.1,464.4,388.1,477.3,388.6,478.6z"/>
<path class="st0" d="M372.2,529.4c-5.1,1.2-8.7-5.1-10.6-7.5c0,0-2.1-8-2.9-13.4c0-0.3-0.1-0.5,0-0.8c0-2,1.2-3.7,3-4.5
	c5.5-2.3,12.5,2.6,12.5,2.6S377.3,528.2,372.2,529.4z"/>
<path class="st0" d="M361.6,521.9c-4.3-0.5-7.5-1-14.5-8.2c-1.7-2.3-1.5-5-0.1-7.2c0.6-1,1.5-1.8,2.6-2.5c2.3-1.5,6.5,1.5,9,3.7
	c0,0.3,0,0.5,0,0.8C359.5,513.9,361.6,521.9,361.6,521.9z"/>
<path class="st0" d="M347.2,513.7c-11.3-1.5-13.1-7-13.1-7c-0.3-2.1,0.5-3.1,2.3-3.6c1-0.3,2.4-0.4,4.1-0.5c3.2-0.2,5.5,2.3,6.6,3.9
	C345.6,508.7,345.5,511.4,347.2,513.7z"/>
<path class="st0" d="M334.1,506.7c0,0-1.6,0.7-5.2-5.3c-0.5-0.7-0.7-1.9-0.7-3.4c1.9,0.1,6.4,0.8,8.2,5
	C334.6,503.6,333.8,504.6,334.1,506.7z"/>
<path class="st0" d="M373.2,426.6C373.2,426.6,373.2,426.6,373.2,426.6c0,0-4.5-4.8-16.9-6.4c-12.4-1.6-21.6,6.9-26.5,11.1
	c-1.2,1.1-2.4,1.8-3.4,2.4c-0.6,0.3-1.1,0.5-1.5,0.7c-2,0.6-3.1,0-3.3-1.2c-0.1-0.6,0.8-2.5,2.5-5c4.3-6.2,14.1-15.9,28.5-15.8
	c12.6,0.1,18.6,3.4,21.2,5.8c1.6,1.5,2,2.6,2,2.6C380,427.4,373.6,426.6,373.2,426.6z"/>
<path class="st0" d="M379.7,452.7c-1.8,0.5-3.3,0.5-5,0.5c-2.7-0.1-5.6-0.6-10.4-0.6c-7.8,0-27.7,12.5-30.8,12.2
	c-2.8-0.2-3.5-5.6-0.3-8.7c0,0,0.1,0,0.1,0c0.1,0,0.4-0.2,0.8-0.5c3-2,13.2-9.7,26.5-11.3c5.1-0.6,9.5,0,12.9,1.1
	c0.8,0.2,1.5,0.5,2.2,0.8C380.7,448.7,382.5,452,379.7,452.7z"/>
<path class="st0" d="M375.6,446.4c-0.7-0.3-1.4-0.6-2.2-0.8c-3.4-1.1-7.8-1.7-12.9-1.1c-13.3,1.6-23.5,9.3-26.5,11.3
	c0-0.1,0-0.2,0-0.3c-0.3,0.2-0.6,0.5-0.9,0.7c-1-1-6.7-17.4-8.2-21.9c0.5-0.1,1-0.4,1.5-0.7c1-0.5,2.1-1.3,3.4-2.4
	c5-4.2,14.1-12.6,26.5-11.1c12.4,1.6,16.9,6.4,16.9,6.4s0,0,0,0c0,0,0,0,0,0C373.3,427.7,374.8,442.1,375.6,446.4z"/>
<path class="st0" d="M489.2,410.1c-2.8-0.3-5.4-0.7-7.8-1c-1.1-0.1-2.1-0.3-3.1-0.4c-0.1,0-0.2,0-0.3,0c-1-0.1-1.9-0.3-2.8-0.4
	c-0.8-0.1-1.5-0.2-2.2-0.3c-0.5-0.1-1-0.2-1.5-0.2c-1-0.2-1.9-0.3-2.8-0.5c-0.7-0.1-1.3-0.2-2-0.3c-0.1,0-0.2,0-0.2,0
	c-1.3-0.2-2.4-0.5-3.4-0.7c-0.1,0-0.1,0-0.2,0c-0.3-0.1-0.5-0.1-0.8-0.2c-0.3-0.1-0.7-0.1-1-0.2h0c-9-13.3-17.6-41.7-17.6-41.7
	c-15.6-7.1-26.2-21.8-32.7-34.1c1.3-1.3,2.5-2.6,3.8-4c0.3-0.3,0.6-0.7,0.9-1.1c0.6-0.7,1.2-1.5,1.9-2.2c0.3-0.4,0.6-0.8,0.9-1.1
	c0.8-1,1.6-2,2.3-3c2.8-3.8,5.5-7.8,8-11.9c0.4,0.7,1,1.6,1.7,2.5c0.3,0.5,0.7,0.9,1.1,1.4c0.4,0.5,0.9,1,1.4,1.5
	c0.1,0.1,0.2,0.2,0.4,0.4c0.2,0.2,0.4,0.4,0.7,0.6c0.1,0.1,0.1,0.1,0.2,0.2c0.2,0.2,0.4,0.4,0.7,0.6c0,0,0.1,0.1,0.1,0.1
	c0.8,0.7,1.6,1.3,2.5,2c0.1,0,0.2,0.1,0.2,0.2c1,0.8,2.1,1.5,3.4,2.3c0,0.8,0,1.6,0,2.6c0,0.2,0,0.4,0.1,0.6c0,0.1,0,0.2,0,0.3
	c0,0.3,0.1,0.6,0.1,0.9c0,0.1,0,0.1,0,0.2c0,0,0,0,0,0c0.1,0.4,0.2,0.8,0.3,1.3c0,0,0,0,0,0c0,0.2,0.1,0.5,0.2,0.7c0,0,0,0,0,0
	c0.1,0.2,0.1,0.5,0.2,0.7c0.1,0.1,0.1,0.3,0.1,0.4c0.1,0.2,0.2,0.5,0.3,0.7c0.1,0.2,0.2,0.5,0.3,0.7c0,0,0,0,0,0
	c0.1,0.2,0.2,0.5,0.3,0.7c0,0,0,0,0,0c0.1,0.2,0.2,0.5,0.4,0.7c0.1,0.1,0.1,0.2,0.2,0.4c0.6,1,1.3,2,2.2,2.9c0,0,0,0,0,0
	c0.3,0.3,0.6,0.6,0.9,1c0.2,0.2,0.3,0.3,0.5,0.5c0.2,0.2,0.3,0.3,0.5,0.5c0.3,0.3,0.7,0.6,1.1,0.8c0,0,0.1,0,0.1,0.1
	c0.4,0.3,0.8,0.6,1.3,0.9c0,0,0,0,0,0c0.7,0.4,1.3,0.8,2.1,1.2l0,0c0.4,0.2,0.7,0.4,1.1,0.5c0.4,0.2,0.8,0.3,1.2,0.5
	c0.4,0.2,0.8,0.3,1.3,0.5c0,0,0,0,0,0c0.5,0.2,1.1,0.4,1.7,0.6c0.6,0.2,1.2,0.4,1.8,0.5c0,0,0,0,0,0c0.8,0.7,1.6,1.5,2.5,2.3
	c0.2,0.2,0.4,0.4,0.6,0.6c1.5,1.5,3,3.2,4.5,5c0.4,0.5,0.8,1,1.2,1.6c3.7,4.9,6.9,10.8,8.3,17.5c2.1,10,5.3,22,8.6,32.3
	c0.6,1.8,1.2,3.5,1.7,5.2C487.8,406.3,488.5,408.3,489.2,410.1z"/>
<path class="st0" d="M598.5,206.9c-4.9,1.3-8.5,3.4-11,5.1h0c-11.2-2.8-21.3-2.2-30.1,0.2c0.2-1.3,0.5-2.7,0.7-4.2
	c1-7.9,1.3-18.4,1.3-27.7C568.4,180.8,585.3,184.8,598.5,206.9z"/>
<path class="st0" d="M512.8,209.2c0,0-0.1,0-0.3,0c-0.1,0-0.1,0-0.2,0c-16.9-1.8-34.1,2-43.4,5.7c-0.3,0.1-0.6,0.2-0.9,0.4
	c0.1-2.2,0.1-3.9-0.3-4.9c-2.9-8.2-27.2-8.2-27.2-8.2s-5.8-1.3-16.2-0.7c11.9-9.8,33.8-16.9,46.1-20.9L512.8,209.2z"/>
<path class="st0" d="M559.4,180.4c0,9.3-0.3,19.8-1.3,27.7c-0.2,1.5-0.4,2.9-0.7,4.2c-6.2,1.7-11.7,4.2-16.6,7.1
	c-0.1,0-0.2,0.1-0.2,0.1c-9.1-5.9-18.7-9-27.9-10.3l-42.4-28.6c1.3-0.4,2.5-0.8,3.5-1.1c2.8-0.9,5.6-2.4,8.4-4.4
	c5.5-3.9,10.7-9.2,14.5-13.7c4.3,7.9,18.8,19.9,21.5,21c2.9,1.2,21.2,2.4,23.1,0c1.8-2.2,14.7-15,17.5-19.9c-1.5,3.6-3.3,9.1-0.7,10
	c0.3,0.1,0.7,0.1,1.1,0.1C559.4,175,559.4,177.6,559.4,180.4z"/>
<path class="st0" d="M653.8,269.3c-1.7,8.6-4,14.9-4.5,15.9c-0.1,0.2-0.2,0.3-0.5,0.4c-2.4,0.8-11.5-6.3-16.5-16.7c0,0,0,0,0,0
	c-1.2-2.5-2.2-5.1-2.8-7.9c-3.4-15.6-25-38.6-25-38.6c-5.1-4.9-11-8.1-16.8-10.3c2.4-1.8,6.1-3.9,11-5.1c8.4-2.2,20.6-2,36.5,6.4
	C657.8,225.5,657.1,252.1,653.8,269.3z"/>
<path class="st0" d="M703.5,383.3c-4.5-2.6-13.3-4.9-29.2-3.5c-18.4,1.6-29.5,14.9-34.9,23.6c-3.8-14-1.8-45.7-1.1-54.5
	c5.1,1.2,9.8,1.2,13-0.5c9.2-5,14.8-22.8,10.6-37.6c-3-10.7-9.7-20.7-13.1-25.4c0.2-0.1,0.4-0.2,0.5-0.4c0.5-1,2.8-7.3,4.5-15.9
	c5.1,4.2,13.1,12,15.5,21.7c3.7,14.8,0.2,24.3,5,30.5c4.8,6.3,15.4,14.3,19.1,31.5C699.6,360.3,703.1,373.7,703.5,383.3z"/>
<path class="st0" d="M651.3,348.5c-3.1,1.7-7.9,1.8-13,0.5c-9.7-2.3-20.5-9.3-23.5-18.2c0,0,4.2-18.1,0.2-33.5
	c4-2.5,6.9-5.2,8.4-7.2c2.8-4,6.7-14.7,8.9-21.1c5.1,10.4,14.2,17.5,16.5,16.7c3.4,4.6,10.1,14.6,13.1,25.4
	C666.1,325.7,660.4,343.5,651.3,348.5z"/>
<path class="st0" d="M705,459.7c-0.1,0-0.2,0.1-0.4,0.1c-17.3-9.2-29.9,2.6-29.9,2.6s-0.2,0.1-0.5,0.2
	c-1.2-13.5-19.7-56.1-23.4-65.1c1.9-1.8,4.1-3.7,6.8-5.4c3.7,10.5,20.2,58.1,20.5,60.9c6.3-1.9,16.1-3.2,26.5-0.3
	C708,454,709.5,458.4,705,459.7z"/>
<path class="st0" d="M707.8,388c-0.2,1.8-3.2,2.6-3.2,2.6s0,0,0,0.1c-7.4-3.2-26.1-9.8-41.3-2c-2.1,1.1-4,2.2-5.7,3.3
	c-2.7,1.8-4.9,3.6-6.8,5.4c-5.3,5.2-7.8,10.2-8.8,13.1c-0.6,1.6-0.8,2.5-0.8,2.7c-0.2,0.5-5.8-1.9-5.8-1.9s1.3-3.3,4-7.8
	c5.4-8.8,16.5-22.1,34.9-23.6c16-1.4,24.7,0.9,29.2,3.5C706.8,385.2,707.9,387.2,707.8,388z"/>
<path class="st0" d="M704.6,452.6c-10.4-2.9-20.2-1.6-26.5,0.3c-0.3-2.9-16.8-50.5-20.5-60.9c1.7-1.1,3.6-2.2,5.7-3.3
	c15.3-7.8,34-1.2,41.3,2C704.6,393.2,705.2,448.8,704.6,452.6z"/>
<path class="st0" d="M674.2,462.5c-0.7,0.2-1.9,0.6-3.2,0.8c-1,0.1-2,0.2-2.7,0c-2.2-0.5-5-22-12.7-33.3
	c-6.6-9.6-9.7-10.1-13.7-19.5c1.1-3,3.5-8,8.8-13.1C654.5,406.4,673,449,674.2,462.5z"/>
<path class="st0" d="M712.3,497.7c-0.6,4.8-3,8-3,8s0,0,0,0c-1,0.4-2.2,0.8-3.4,1.3c0,0-0.1-0.1-0.1-0.1v0c-2.1-2.9-6.3,0.3-6.3,0.3
	s-0.2-0.1-0.5-0.4c-1.3-0.8-5-2.6-8.8-0.6c0,0,0,0,0,0c-5.6-5.7-11.1-1.9-13.6,0.6c-2.5-3.4-4.3-11.6-4.8-14
	c0.2-5.2,8-21.7,3.3-24.2c-2.8-1.5-6-1.1-8.2-0.5c1.6-1.8,3.1-3.6,4.2-4.9c1.3-0.2,2.5-0.5,3.2-0.8c0.3-0.1,0.5-0.2,0.5-0.2
	s12.5-11.7,29.9-2.6c0.1,0,0.3-0.1,0.4-0.1l3.6,26C708.6,485.7,713,492.9,712.3,497.7z"/>
<path class="st0" d="M690.1,506.2c-0.1,4.6-0.5,16.2-1.4,18.7c-1.1,3-8.9,14.1-9.3,14.6c0,0,0,0,0,0s-7.1,8.7-10,5.6
	c-2.9-3,1.8-7.7,3.5-9.5c-0.6-2.9,4.5-10.6,4.5-10.6s-0.2-12.1,0-17.2c-0.3-0.2-0.6-0.6-0.9-1C679,504.3,684.5,500.5,690.1,506.2z"
	/>
<path class="st0" d="M698.9,506.8c-0.4,4.5-1.4,13.9-2.3,16c-1.3,2.7-6.4,11.6-6.4,11.6c-5.8,3.4-10.4,5-10.8,5.1
	c0.4-0.5,8.2-11.6,9.3-14.6c0.9-2.4,1.3-14,1.4-18.7c0,0,0,0,0,0C694,504.2,697.6,506,698.9,506.8z"/>
<path class="st0" d="M705.8,506.9L705.8,506.9c-0.3,3.8-1.2,12.7-3.4,16.4c-1.5,2.5-3.2,5.4-4.5,7.6c-1.7,1-3.5,1.7-5.3,2
	c-0.8,0.5-1.6,1-2.4,1.5c0,0,5.1-8.9,6.4-11.6c1-2,1.9-11.4,2.3-16c0.4,0.2,0.5,0.4,0.5,0.4S703.7,503.9,705.8,506.9z"/>
<path class="st0" d="M707.8,520.2c-1.4,3.8-5.4,8.1-10,10.6c1.3-2.2,3-5.1,4.5-7.6c2.2-3.7,3.1-12.6,3.4-16.4c0,0,0.1,0.1,0.1,0.1
	c1.2-0.5,2.4-0.9,3.4-1.3C709.3,506.3,709.7,515.1,707.8,520.2z"/>
<path class="st0" d="M671.7,492.9c-0.1-0.4-0.1-0.6-0.1-0.6s0.7,7.1-1.8,14c-2.6,6.9-7.9,13.3-12.9,11.7c-5-1.6-0.2-12.7,1.3-17.8
	c1.5-5.1,1.8-23.8,2.4-24.6c0.3-0.4,3.3-3.9,6.2-7.4c2.2-0.6,5.5-1,8.2,0.5C679.7,471.2,671.9,487.7,671.7,492.9z"/>
<path class="st0" d="M614.8,330.8c0,0-0.2,5.4-2.3,13.9c-2.7-2.1-7-4.9-13.8-8.5c-19.6-10.6-34.7-3.9-41.7-2.9
	c-15.2-9.2-48.8,11.7-61.4,3.8c-0.1-0.1-0.3-0.2-0.4-0.3c-8.6-6.1-13.2-22-15.2-30.9c5.4,1.6,22.1,3,35.7,2.1
	c32.2-2.2,38.7-16.3,38.7-16.3s9.2,10.8,29.4,12.7c13,1.2,23.8-2.6,31-7C619,312.7,614.8,330.8,614.8,330.8z"/>
<path class="st0" d="M612.5,344.7c-2.1,8.8-6.1,20.8-13.8,33.5c-1.2-2.1-2.5-3.9-3.9-5.4v0c-0.4-0.5-0.8-0.9-1.2-1.3
	c-0.8-0.8-1.6-1.6-2.5-2.3c-0.4-0.3-0.9-0.7-1.3-1c-0.4-0.3-0.9-0.6-1.3-0.8c-1.8-1.1-3.6-1.9-5.5-2.5c-8.4-2.6-17.8-1-26.7,0.3
	c0,0,0,0,0,0v0c0,0,0,0,0,0c0.1-0.4,0.2-0.7,0.3-1.1c3.5-14.6,0.5-30.9,0.5-30.9c1-0.1,2.2-0.4,3.5-0.7c7.9-1.8,21.4-5.5,38.2,3.6
	c1.7,0.9,3.2,1.8,4.6,2.6c0.4,0.2,0.7,0.4,1,0.6c1.7,1,3.1,1.9,4.4,2.7c0.5,0.3,1,0.6,1.4,1C611.1,343.6,611.9,344.1,612.5,344.7z"
	/>
<path class="st0" d="M599.2,408.3c-4.2,1.3-9.7,2.4-16.2,3.2c3.2-5.5,2.9-11.9,2.2-16.1c1.7-1.6,8.3-8.7,9.7-22.6
	c1.4,1.6,2.7,3.4,3.9,5.4C600.3,390.8,599.7,402.4,599.2,408.3z"/>
<path class="st0" d="M598.6,413.2c-0.3,0.1-0.6,0.2-0.8,0.3c-6.4,2.2-30.7,6.1-52,5.6c-11.9-0.3-35.4-2.5-54.6-4.6
	c-15.3-1.7-28-3.3-30-3.9c-0.4-0.1-0.8-0.2-1.2-0.4c-3.9-1.8-6-6.1-1.5-5.1c0,0,0.9,0.2,2.9,0.6c4.3,0.9,13.5,2.6,28,4.4
	c6.4,0.8,13.7,1.5,22.1,2.2c3.6,0.3,7.2,0.5,10.8,0.7c22,1.2,44.5,0.6,60.9-1.5c6.5-0.8,12-1.9,16.2-3.2c1.2-0.4,2.2-0.8,3.2-1.2
	C606.6,404.7,604.4,410.8,598.6,413.2z"/>
<path class="st0" d="M598.6,422.8c-0.2,0.1-0.3,0.1-0.5,0.1c-1,0-1.8-1.2-1.8-2.7c0-1.5,0.8-2.7,1.8-2.7c0.1,0,0.2,0,0.2,0
	c0-1.8,0.2-3.4,0.3-4.3c-0.3,0.1-0.6,0.2-0.8,0.3c-6.4,2.2-30.7,6.1-52,5.6c-11.9-0.3-35.4-2.5-54.6-4.6c-15.3-1.7-28-3.3-30-3.9
	c-0.4-0.1-0.8-0.2-1.2-0.4l-1,12.7l0,0.6c0,0,23.1,5.8,38.2,12.9c15.1,7.1,48,21.5,58,19.1c9.7-2.3,38-29.3,44.4-29.9
	C599,424.9,598.8,423.9,598.6,422.8z M482.8,426.6c-2.1,0-3.7-1.7-3.7-3.7c0-2,1.7-3.7,3.7-3.7s3.7,1.7,3.7,3.7
	C486.5,425,484.9,426.6,482.8,426.6z M515.5,433.8c-2.7,0-4.8-2.2-4.8-4.8s2.2-4.8,4.8-4.8c2.7,0,4.8,2.2,4.8,4.8
	S518.2,433.8,515.5,433.8z M554.9,452.9c-5.8,0-10.4-6.8-10.4-15.2c0-8.4,4.7-15.2,10.4-15.2c5.8,0,10.4,6.8,10.4,15.2
	C565.3,446.1,560.7,452.9,554.9,452.9z M582.8,431c-2.3,0-4.2-2.2-4.2-4.8s1.9-4.8,4.2-4.8c2.3,0,4.2,2.2,4.2,4.8
	C587,428.9,585.2,431,582.8,431z"/>
<path class="st0" d="M602.9,428.8c-0.5,1.1-1.7,2.1-3,2.6c-2.9,1.1-35.2,27.8-38.4,28.4c-3.2,0.6-10.3,3.7-27-2.9
	c-16.7-6.6-73.9-27.5-76.9-28.8c-1-0.4-1.5-1.1-1.8-1.8c-0.5-1.5,0.6-3.1,3.1-3.4l0,0.6c0,0,23.1,5.8,38.2,12.9
	c15.1,7.1,48,21.5,58,19.1c9.7-2.3,38-29.3,44.4-29.9c0.2,0,0.3,0,0.4,0C602.9,426,603.5,427.4,602.9,428.8z"/>
<path class="st0" d="M520.3,429c0,2.7-2.2,4.8-4.8,4.8c-2.7,0-4.8-2.2-4.8-4.8s2.2-4.8,4.8-4.8C518.2,424.1,520.3,426.3,520.3,429z"
	/>
<path class="st0" d="M565.3,437.7c0,8.4-4.7,15.2-10.4,15.2c-5.8,0-10.4-6.8-10.4-15.2c0-8.4,4.7-15.2,10.4-15.2
	C560.7,422.5,565.3,429.3,565.3,437.7z"/>
<path class="st0" d="M587,426.2c0,2.7-1.9,4.8-4.2,4.8c-2.3,0-4.2-2.2-4.2-4.8s1.9-4.8,4.2-4.8C585.2,421.4,587,423.6,587,426.2z"/>
<path class="st0" d="M599.9,420.2c0,1.2-0.5,2.3-1.3,2.6c-0.2,0.1-0.3,0.1-0.5,0.1c-1,0-1.8-1.2-1.8-2.7c0-1.5,0.8-2.7,1.8-2.7
	c0.1,0,0.2,0,0.2,0C599.2,417.8,599.9,418.9,599.9,420.2z"/>
<path class="st0" d="M486.5,422.9c0,2.1-1.7,3.7-3.7,3.7s-3.7-1.7-3.7-3.7c0-2,1.7-3.7,3.7-3.7C484.9,419.2,486.5,420.9,486.5,422.9
	z"/>
<path class="st0" d="M624,477.1c0,0-5.3-1-11.9-7.4c-6.3-6.2-11.8-14.1-12.2-14.7c0.4,0.8,6.6,12.9,7.4,20.7
	c0.8,8-13.2,15.7-13.2,15c0-0.7,4.5-2.5,5.8-11.8c1.3-9.3-10.9-15.7-15.6-7.9c-4.7,7.9,6.9,10.1,6.9,10.1s-4.8,0.7-10,0
	c-2.8-0.4-5.8-1.3-8.2-3c1.8,7.1,0.6,24.2-6.9,38.4c3.4-12-2.7-29.4-2.7-29.4s0,14.8-1.3,19.8c-1.3,5-21,24.7-27.8,29.2
	c-1.3,0.9-2.4,2.1-3.3,3.6v0c-3.9,6.1-4.8,15.9-5,15.5c-0.3-0.5,0.6-14.9,0.8-16.2c0-0.4,0-1.5-0.2-2.8c0,0,0,0,0,0
	c-0.5-3.4-2.1-8.3-5.1-5c-3.7,4-1.7,10.7-1.2,12.1c-0.3-0.7-1.3-2.9-2.3-5.2c-1.3-2.9,0-10.9,2.4-17c2.4-6.1,3.5-31.2,3.5-31.2
	s-3.2,17.5-13.2,23c-9.6,5.3-23.2,4.1-24.1,4c0.7,0,8.6-0.2,16.9-7.1c8.7-7.2,3.5-28.3,3.5-28.3s-5.1,7.2-6.7,10.3
	c-1.6,3,0.6,12.4,0,12.2c-0.6-0.2-5.8-11.7-6.4-15.9c-0.6-4.2,4.8-22,4.8-22s-8.4,12.5-12.1,17.4c-3.8,4.8-19.3,5.9-19.3,5.9
	s11.4-5.8,13.5-14.3c2.1-8.5-2.9-23.3-2.9-23.3s-6.1,5.3-12.5,13.1c-4.8-6.7-3.2-17.7-1.9-18.5c-8.7,3.9-14.8,14.4-15.3,12.6
	c-0.2-0.9,1.1-4.9,2.5-8.9c0,0,0,0,0,0c1.5-4.1,3-8.1,3-8.1s-9.2,4.5-14.6,9.6c-1.4-8.2-0.5-6.6,0-10.8
	c-9.1-1.3-16.9-14.6-16.9-14.6s15.4,10.1,22.8,10.2c6.9,0.1,10.5-9,10.9-10.1c0.2,0.7,0.8,1.4,1.8,1.8c3,1.3,60.2,22.2,76.9,28.8
	c16.7,6.6,23.8,3.5,27,2.9c3.2-0.6,35.5-27.3,38.4-28.4c1.3-0.5,2.5-1.5,3-2.6c3.7,1.9,9.2,9.3,10.5,13.2c1.1,3.4-0.4,8.1-1,12.4v0
	c-0.2,1.3-0.3,2.6-0.2,3.8C612.7,463.2,624,477.1,624,477.1z"/>
<path class="st0" d="M526.5,536.2C526.5,536.2,526.5,536.2,526.5,536.2c-12.5,25.9-46.7,94.6-65.1,110.5c-0.5,0.4-0.9,0.8-1.4,1.2
	c-14.7,3.5-27.1,15.2-28,16.1c0.1-0.2,0.5-0.8,1.2-1.6c0,0,0,0,0,0c1.8-2.6,5.4-8.1,8.7-14.9c4.6-9.6,3.9-40,3.9-40s-21,13-31.8,13
	c-1.4,0-2.7-0.2-3.8-0.6c-7-2.1-9.3-9.8-9.6-11.1c0-0.1,0-0.2,0-0.2c-1.2-0.5-7.7-44.1,10.4-86.8c14.5-34.1,32.9-62,39.7-71.8
	c-1.4,3.9-2.7,8-2.5,8.9c0.5,1.8,6.6-8.8,15.3-12.6c-1.3,0.8-2.9,11.8,1.9,18.5c6.4-7.8,12.5-13.1,12.5-13.1s5,14.8,2.9,23.3
	c-2.1,8.5-13.5,14.3-13.5,14.3s15.5-1.1,19.3-5.9c3.8-4.8,12.1-17.4,12.1-17.4s-5.5,17.8-4.8,22c0.6,4.2,5.8,15.7,6.4,15.9
	c0.6,0.1-1.6-9.2,0-12.2c1.6-3,6.7-10.3,6.7-10.3s5.1,21-3.5,28.3c-8.3,6.9-16.2,7.1-16.9,7.1c1,0.1,14.5,1.3,24.1-4
	c10-5.5,13.2-23,13.2-23s-1.1,25.1-3.5,31.2c-2.4,6.1-3.7,14.1-2.4,17c1,2.3,2,4.5,2.3,5.2c-0.5-1.4-2.5-8.1,1.2-12.1
	C524.5,527.9,526,532.7,526.5,536.2z"/>
<path class="st0" d="M460,647.9c-6,5.3-12.6,11.7-19,18.3c-17.3,17.8-33.3,36.5-33.8,37.1c0-0.1,0.2-1.1,0.4-2.6c0,0,0,0,0,0
	c0.9-6.5,2.7-23.9-2.1-32.6c-2.2-3.9-5.8-7.5-9.5-10.5c-1.9-1.6-3.9-3-5.7-4.1c0.1,0,0.1,0,0.2-0.1c-6-22.8,9.6-42.5,9.9-44.6
	c0.3,1.3,2.6,9,9.6,11.1c-3.9,6.2-9.1,17.8-6.4,27.5c3.9,13.9,13.4,17,18.4,17c4.8,0.1,10.8-2,11.2-2.1c-0.6,0.9-1,1.5-1.2,1.6
	C432.9,663.2,445.3,651.4,460,647.9z"/>
<path class="st0" d="M441,666.2c-0.6,11-2.8,50.5-5.9,60.3c-0.7,2.1-1.4,4.5-2.3,7.2c-6.2-1.8-33,3.4-37.4,0.6
	c4.6-12.7,9.2-25.3,12.1-33.5c-0.2,1.5-0.4,2.4-0.4,2.6C407.7,702.8,423.7,684,441,666.2z"/>
<path class="st0" d="M396,657.7c-9.8,4.2-33,18.5-39,60.9c-4.4-1.6-8.5-4.2-11.1-5.8c-0.4-0.2-0.8-0.4-1.1-0.4
	c0.3-2.2,0.5-4.2,0.9-5.9c5.7-31.8,37.3-50.1,44.6-52.9C392.1,654.7,394.1,656.1,396,657.7z"/>
<path class="st0" d="M423.5,760.5c-0.6,1.2-1.1,2-1.4,2.4c-2.4,2.2-15.7,25.8-27,44.1c0,0.1-0.1,0.2-0.1,0.2
	c-4.2-3.2-10.1-7.9-17-14.5c-10.4-9.8-22.3-35.3-27.8-47.7c1.8,1.7,3.7,3.4,5.4,5.1c4.9,4.7,21,8.3,30.3,9.8
	c3.5,0.6,6.1,0.8,6.8,0.8c2.4-0.2,5.8-0.2,7.7-0.5c1.9-0.2,9.2,1.2,12.5,0.7c3.4-0.5,3.6-1,5.1-3.1
	C419.3,755.9,419.6,757.3,423.5,760.5z"/>
<path class="st0" d="M395,807.2c-2.8,4.6-4.6,10-5.9,15.7c-7.5-5-14.3-11.3-20.3-18c-4.4-4.9-8.3-10.1-11.8-15
	c-6.5-9.3-11.3-18.1-14.2-23.9v0c0-9.8,0.1-19.3,0.4-28.1c1.9,2.4,4.4,4.9,7,7.3c5.5,12.5,17.5,37.9,27.8,47.7
	C384.9,799.3,390.8,804,395,807.2z"/>
<path class="st0" d="M388.8,824.4c-0.9,4.6-1.4,9.4-1.7,13.9c-23.8,5.3-37.5-2.2-43.7-7.4c0-5.7-0.1-12.4-0.2-19.6
	c-0.1-4.7-0.1-9.6-0.2-14.6c3.2-2.5,8.2-5.7,14-6.9c3.5,5,7.4,10.1,11.8,15c-6.4,0.5-14.8,2.8-21.5,5.1
	C354.1,814.8,368.7,823.2,388.8,824.4z"/>
<path class="st0" d="M357.1,789.8c-5.9,1.2-10.9,4.5-14,6.9c-0.1-10-0.2-20.5-0.2-30.8C345.8,771.7,350.6,780.5,357.1,789.8z"/>
<path class="st0" d="M386.5,862.9C386.5,862.9,386.5,862.9,386.5,862.9c-11.6-12-29.1-3.9-36.2,0.2c-4.2-2.7-7.7-4.7-10.4-6
	c1.5-2.9,2.6-5.3,3-6.7c0.5-2,0.6-9.2,0.6-19.3c6.2,5.1,19.9,12.7,43.7,7.4C386.3,850.1,387.1,860.3,386.5,862.9z"/>
<path class="st0" d="M382.9,910.6c0,0.4-0.1,0.8-0.4,1.4c-7.1,2.4-16.4,5.1-20.8,4.9c-7.7-0.5-7.8-8.2-7.8-8.2s-6.1,7.7-18.4,4.3
	c-7.6-2.1-12.7-11-15.5-17.6c8.1-7.8,21.6-14.1,28.5-17.1c11.6,7.3,25.4,17.2,33.9,26.8C382.6,907.7,382.9,909.7,382.9,910.6z"/>
<path class="st0" d="M348.4,878.3c-6.9,2.9-20.5,9.3-28.5,17.1c-0.5-1.1-0.9-2.2-1.3-3.1c4.1-6.5,9.6-15.2,14.4-23.1
	C336.7,871.2,342.2,874.4,348.4,878.3z"/>
<path class="st0" d="M382.5,912c-2.1,4.5-12,13.9-20.4,15c-9.4,1.2-27.2,1.2-32.3,0c-5-1.2-16.9-14.5-17.1-15.2
	c-0.2-0.7-0.2-8.4,0-9.9c0.1-0.4,2.5-4.2,5.9-9.6c0.3,0.9,0.8,2,1.3,3.1c2.8,6.5,7.9,15.5,15.5,17.6c12.3,3.4,18.4-4.3,18.4-4.3
	s0.1,7.7,7.8,8.2C366.1,917.1,375.4,914.4,382.5,912z"/>
<path class="st0" d="M382.3,905.1c-8.5-9.6-22.4-19.5-33.9-26.8c-6.2-3.9-11.7-7.1-15.4-9.2c2.7-4.5,5.1-8.7,6.9-12.1
	c2.7,1.3,6.2,3.3,10.4,6c2.4,1.6,5.1,3.5,8,5.6c6.7,5.1,14.3,11.7,22.2,20.2C381,894.5,381.8,900.7,382.3,905.1z"/>
<path class="st0" d="M386.4,862.9c-0.6,2.3-2.2,4.4-3.6,7c-9.4-8.9-21-3.3-24.6-1.2c-2.8-2.2-5.5-4-8-5.6
	C357.3,859,374.8,850.8,386.4,862.9z"/>
<path class="st0" d="M380,880.5c0,2.4,0.2,5.3,0.5,8.4c-7.9-8.4-15.5-15.1-22.2-20.2c3.5-2.1,15.2-7.7,24.6,1.2
	C381.3,872.6,380,875.8,380,880.5z"/>
<path class="st0" d="M588.6,543.9c-14.5,23.7-25.4,57.3-30.5,74.7c-9.5-23.8-23.2-66.5-27.1-78.9v0c0.9-1.5,2-2.7,3.3-3.6
	c6.8-4.5,26.5-24.2,27.8-29.2c1.3-5,1.3-19.8,1.3-19.8s6.1,17.4,2.7,29.4c7.5-14.1,8.7-31.3,6.9-38.4c2.4,1.7,5.4,2.6,8.2,3
	L588.6,543.9z"/>
<path class="st0" d="M628.3,667c-7.8,16.5-20.3,44.5-22.7,67.2c-0.4,0.1-0.8,0.1-1.3,0.2c-5.6-17.2-17.4-44.4-28.2-56
	c-3.3-3.5-5.6-7.4-7.1-11.5v0c-4.7-11.9-3.2-25-3.7-32.9c-1.7-2.3-4.3-7.9-7.2-15.3c5.1-17.4,16-51.1,30.5-74.7l0.2,1.9
	c0,0,20.9,15.9,32.1,64.7c0,0,7.4,10.6,7.4,14.5c0,3.9-4.3,25.4-4.3,25.4S626.1,653.5,628.3,667z"/>
<path class="st0" d="M620.9,610.5c-11.2-48.8-32.1-64.7-32.1-64.7l-0.2-1.9l-7.3-62.7c5.2,0.8,10,0,10,0s-11.6-2.2-6.9-10.1
	s16.9-1.4,15.6,7.9c-1.3,9.3-5.8,11.1-5.8,11.8c0,0.7,14-7,13.2-15c-0.8-7.8-7-19.9-7.4-20.7c0.4,0.6,5.8,8.6,12.2,14.7
	c6.6,6.4,11.9,7.4,11.9,7.4s-11.2-14-11.7-19c-0.1-1.2,0-2.5,0.2-3.8c10.3,16.6,27.4,48.5,27.8,80
	C640.8,579.7,620.9,610.5,620.9,610.5z"/>
<path class="st0" d="M604.3,734.3c-0.5,0-1,0.1-1.6,0.2c-7.7,0.8-5.9,3.7-15.3-0.5c-9.3-4.2-10.8-4.2-15.6-5c-4.8-0.8-3-1.3-8-1.9
	c-5-0.6-13-6.4-13-6.4s-0.2-2-1.5-3c-0.2-26.4,12.7-43.6,19.7-50.8c1.6,4,3.8,7.9,7.1,11.5C586.9,689.9,598.7,717.2,604.3,734.3z"/>
<path class="st0" d="M632.2,720.3c-6,0.5-6.1,4.7-10.5,8c-4.7,3.5-12,4.7-12.5,4.7c-0.4,0,0.8,0.6-3.6,1.2
	c2.5-22.7,14.9-50.6,22.7-67.2c1.4,8,2.8,19.6,3.8,36.4C632.5,708.5,632.5,714.2,632.2,720.3z"/>
<path class="st0" d="M622.9,787.9c-1.1,5.5-2.2,10.8-3.3,15.8c-12-13.1-42.4-33.8-61.4-39.8c-1.1-2.9-2.1-5.9-3.2-9.4
	c4.9,1.8,9.6,1.3,11.8,1.9c2.4,0.7,3.8,1.6,5.9,2.2c1.2,0.4,5.1-0.6,10.6-1.1C595.2,763.5,611.9,773.9,622.9,787.9z"/>
<path class="st0" d="M619.7,803.6c-1.2,5.6-2.4,10.6-3.4,15c-29.6,2-43.9-2.3-50.4-5.6c0.8-7.3,1.1-14,0.8-19.4
	c-0.8-11.9-4.5-19.6-8.4-29.8C577.3,769.8,607.7,790.5,619.7,803.6z"/>
<path class="st0" d="M612.2,835.1c0,0,0.1,0.1,0.2,0.2c-26.8,2.7-41.7-2-48.7-5.6c0.8-5.7,1.6-11.4,2.1-16.7
	c6.5,3.3,20.8,7.6,50.4,5.6C613.9,828.7,612.2,835.1,612.2,835.1z"/>
<path class="st0" d="M623.3,862.9c-14-4.6-46.4-0.9-64.2,1.7c0.7-9.3,2.8-22.1,4.6-34.8c7,3.7,21.9,8.3,48.7,5.6
	c0.9,1.1,4.8,5.9,11,13.2C624,854,624.3,860.3,623.3,862.9z"/>
<path class="st0" d="M637.7,864.1c-0.4,3-1.4,7.2-2.7,11.9c-1.5,5.1-3.3,10.8-5.1,16.3c-1.6,4.8-3.1,9.4-4.5,13.3
	c-6.5-1.9-11.5-4.6-15.6-7.5c1.5-10.8,6.3-21.6,6.3-21.6s-32.2,5.1-43.7,7.9c0,0,0,0,0,0c-6.3-1.3-11.5-3.5-12.8-8
	c-0.8-2.5-0.8-6.7-0.4-12c17.8-2.6,50.1-6.2,64.2-1.7c1-2.6,0.7-8.9,0.1-14.4c1.1,1.3,2.3,2.8,3.6,4.2
	C629.9,856.1,633.7,860.2,637.7,864.1z"/>
<path class="st0" d="M616.1,876.6c0,0-4.8,10.8-6.3,21.6c-3.4-2.3-6.3-4.7-9.1-6.9c-5.7-4.5-18.4-4.7-28.3-6.8
	C583.9,881.7,616.1,876.6,616.1,876.6z"/>
<path class="st0" d="M660.8,894.2c-6.5,4.3-23.7,0.2-30.8-1.8c1.8-5.5,3.7-11.2,5.1-16.3c4.1-0.4,9.2-0.9,14.4-1.3
	c5,4.1,9.5,7.1,12.3,7.6c0.5,0.1,1,0.2,1.5,0.4C664.8,886,665.8,890.9,660.8,894.2z"/>
<path class="st0" d="M649.4,874.7c-5.3,0.5-10.4,1-14.4,1.3c1.3-4.7,2.3-8.9,2.7-11.9C641.6,867.9,645.6,871.6,649.4,874.7z"/>
<path class="st0" d="M679.1,897.4c0,5.1-4.2,11.2-31.2,11.2c-9.2,0-16.5-1.1-22.5-3c1.3-4,2.9-8.6,4.5-13.3c7.2,2,24.3,6.1,30.8,1.8
	c5-3.3,4-8.1,2.4-11.5C670.1,884.7,679.1,892.6,679.1,897.4z"/>
<path class="st0" d="M441.9,647.4c-3.2,6.8-6.8,12.3-8.7,14.9c0,0,0,0,0,0c-0.4,0.1-6.3,2.2-11.2,2.1c-5-0.1-14.5-3.1-18.4-17
	c-2.7-9.8,2.6-21.3,6.4-27.5c1.1,0.4,2.4,0.6,3.8,0.6c10.9,0,31.8-13,31.8-13S446.5,637.8,441.9,647.4z"/>
<path class="st0" d="M407.6,700.8C407.6,700.8,407.6,700.8,407.6,700.8c-2.9,8.2-7.5,20.8-12.1,33.5c-4.7-3.1-5-2-13.9-3.2
	c-8.9-1.2-12.5-9.6-20.7-11.3c-1.3-0.3-2.6-0.7-3.8-1.1c6-42.4,29.2-56.7,39-60.9c3.7,3,7.3,6.6,9.5,10.5
	C410.3,676.8,408.5,694.2,407.6,700.8z"/>
<path class="st0" d="M434.9,753.7c-4.1,7-3.1,12.8-9.2,8.4c-0.8-0.6-1.6-1.2-2.2-1.7c-3.9-3.2-4.2-4.5-5.5-2.7
	c-1.5,2.2-1.7,2.7-5.1,3.1c-3.4,0.5-10.6-1-12.5-0.7c-1.9,0.2-5.3,0.2-7.7,0.5c-0.7,0.1-3.3-0.2-6.8-0.8c-9.4-1.5-25.4-5.1-30.3-9.8
	c-1.7-1.7-3.6-3.3-5.4-5.1c-2.5-2.4-5-4.9-7-7.3c-2.1-2.6-3.6-5.2-3.8-7.7c-0.3-4.4,1.8-12,3.1-16.1c0.3-1,1.3-1.6,2.3-1.6
	c0.4,0,0.8,0.1,1.1,0.4c2.5,1.7,6.7,4.2,11.1,5.8c1.3,0.5,2.6,0.9,3.8,1.1c8.2,1.7,11.8,10.1,20.7,11.3c8.9,1.2,9.2,0.1,13.9,3.2
	c4.4,2.8,31.1-2.4,37.4-0.6c0.5,0.2,0.9,0.3,1.1,0.6C436.8,737.6,439,746.7,434.9,753.7z"/>
<path class="st0" d="M633.5,752.8c-1.3,1.8-3.1,3-5,3.8c-4.7,2-10.5,1.6-14.2,1.5c-5.3-0.2-4.7,1.5-17.2-0.3
	c-5.1-0.7-9.7-0.6-13.5-0.3c-5.5,0.5-9.3,1.5-10.6,1.1c-2.1-0.7-3.5-1.6-5.9-2.2c-2.2-0.6-7-0.1-11.8-1.9c-0.4-0.1-0.8-0.3-1.2-0.5
	c-5.3-2.4-10.8-36.3-7.1-36.8c1.1-0.1,1.9,0.1,2.5,0.5c1.4,1,1.5,3,1.5,3s8,5.8,13,6.4c5,0.7,3.2,1.1,8,1.9c4.8,0.8,6.3,0.8,15.6,5
	c9.3,4.2,7.5,1.3,15.3,0.5c0.6-0.1,1.1-0.1,1.6-0.2c0.4,1.1,0.7,2.1,1,3c0.1-1.1,0.2-2.1,0.3-3.2c4.4-0.7,3.2-1.2,3.6-1.2
	c0.5,0,7.9-1.1,12.5-4.7c4.4-3.3,4.5-7.5,10.5-8c0.4,0,0.8,0,1.2,0C640.7,720.2,638,746.7,633.5,752.8z"/>
<path class="st0" d="M628.4,756.7c-1.6,10.7-3.5,21.3-5.5,31.2c-11-14-27.7-24.3-39.5-30.3c3.8-0.3,8.4-0.5,13.5,0.3
	c12.5,1.8,11.9,0.2,17.2,0.3C617.9,758.2,623.7,758.6,628.4,756.7z"/>
<path class="st0" d="M389.1,822.9c-0.1,0.5-0.2,1-0.3,1.5c-20.1-1.2-34.7-9.6-41.5-14.5c6.7-2.3,15.1-4.6,21.5-5.1
	C374.8,811.5,381.6,817.8,389.1,822.9z"/>
<path class="st0" d="M594.9,372.8c-1.4,13.9-8,21-9.7,22.6c-0.2,0.2-0.4,0.3-0.4,0.3s-19-5.5-28-3.2c4.7-6.7-0.5-27.3-0.5-27.3
	C569.8,363.2,584.3,360.5,594.9,372.8z"/>
<path class="st0" d="M583,411.5c-16.4,2.1-38.8,2.6-60.9,1.5c-7.2-7.2-6.7-16.4-5.7-20.7c9.7,3.5,36.9-0.5,40.4,0.2
	c9-2.2,28,3.2,28,3.2s0.1-0.1,0.4-0.3C585.9,399.6,586.2,406,583,411.5z"/>
<path class="st0" d="M556.6,364.1c-0.1,0.4-0.2,0.7-0.3,1.1h0c-4.2-1.8-30.6,3.6-44.6,0.5c-1.4-0.3-2.7-0.9-3.9-1.7h0
	c-2.3-1.5-4.2-3.8-5.8-6.5c-0.7-1.2-1.4-2.6-1.9-3.9c-0.2-0.5-0.4-0.9-0.6-1.4c-0.5-1.3-0.9-2.6-1.3-3.8c-0.1-0.2-0.2-0.5-0.2-0.7
	c-0.3-1-0.6-2-0.8-3c0,0,0,0,0,0c-0.3-1.1-0.5-2.2-0.7-3.2c-0.3-1.6-0.6-3.1-0.8-4.3c12.6,7.9,46.2-13,61.4-3.8
	C557.1,333.2,560.1,349.5,556.6,364.1z"/>
<path class="st0" d="M632.2,268.9C632.2,268.9,632.2,268.9,632.2,268.9c-2.2,6.4-6.2,17.2-8.9,21.2c-1.4,2.1-4.3,4.8-8.4,7.2
	c-7.2,4.4-18,8.3-31,7c-20.2-1.9-29.4-12.7-29.4-12.7c2.3-34.3-7.5-60.1-13.7-72.3c4.8-2.9,10.4-5.4,16.6-7.1
	c8.8-2.4,18.9-3,30.1-0.2h0c5.9,2.2,11.7,5.5,16.8,10.3c0,0,21.7,23,25,38.6C630,263.7,631,266.4,632.2,268.9z"/>
<path class="st0" d="M510,382.1c-30.4-8.5-26-24.5-39.2-40.9c-4.3-0.2-7.9-0.7-11.1-1.5c0,0,0,0,0,0v0c-1.3-0.3-2.5-0.7-3.6-1.1
	c0,0,0,0,0,0c-0.4-0.2-0.9-0.3-1.3-0.5c-0.8-0.3-1.6-0.7-2.4-1.1c-0.7-0.4-1.4-0.8-2.1-1.2c0,0,0,0,0,0c-1.8-1.1-3.2-2.4-4.4-3.6
	c0,0,0,0,0,0c-0.9-1-1.6-1.9-2.2-2.9c-0.1-0.1-0.1-0.2-0.2-0.4c-0.1-0.2-0.3-0.5-0.4-0.7c0,0,0,0,0,0c-0.1-0.2-0.2-0.5-0.3-0.7
	c0,0,0,0,0,0c-0.1-0.2-0.2-0.5-0.3-0.7c-0.1-0.2-0.2-0.5-0.3-0.7c0-0.1-0.1-0.3-0.1-0.4c-0.1-0.5-0.3-0.9-0.4-1.4c0,0,0,0,0,0
	c-0.1-0.4-0.2-0.9-0.3-1.3c0-0.1,0-0.1,0-0.2c-0.1-0.3-0.1-0.6-0.1-0.9c0-0.1,0-0.2,0-0.3c-0.1-1.2-0.1-2.3-0.1-3.2v0
	c7,4.4,17.4,8.7,32.9,11.4c12.9,14.9,22.1,23.2,28.1,27.8c1.6,2.7,3.5,5,5.8,6.5c0,0.4,0,0.8,0.1,1.3c0,0.6,0.1,1.2,0.1,1.9
	C508.3,371.4,508.8,377.2,510,382.1z"/>
<path class="st0" d="M557.9,390.2c-0.3,0.9-0.6,1.7-1.1,2.3v0c0,0,0,0,0,0c-3.5-0.7-30.7,3.3-40.4-0.2h0v0c-0.5-0.2-1-0.4-1.4-0.6
	c-0.4-0.2-0.8-0.5-1.1-0.8v0c-0.4-0.4-0.8-1-1.2-1.5c-0.4-0.6-0.7-1.3-1-2c-0.6-1.5-1.2-3.3-1.6-5.2c-1.2-4.9-1.8-10.7-2-14.9
	c-0.1-0.7-0.1-1.3-0.1-1.9c0-0.5-0.1-0.9-0.1-1.3h0c1.2,0.8,2.5,1.4,3.9,1.7c14,3,40.4-2.3,44.6-0.5
	C556.3,365.2,560.5,382,557.9,390.2z"/>
<path class="st0" d="M522.1,413c-3.6-0.2-7.2-0.4-10.8-0.7c-8.4-0.7-15.8-1.4-22.1-2.2c-4.5-11.6-9.5-29.5-12.4-43.4
	c-2.5-12-10.6-21.3-17.1-27c3.1,0.8,6.8,1.3,11.1,1.5c13.2,16.4,8.8,32.4,39.2,40.9c0.9,3.8,2.2,7.1,3.9,8.8c0.6,0.6,1.4,1,2.5,1.4
	C515.4,396.5,514.9,405.8,522.1,413z"/>
<path class="st0" d="M557.1,136.8c0,0-4.3,6-13,4.8c12.3-7.9,16.3-23.2,16.3-23.2l-7.9,6.1c0.2-0.3,4-5.7,3.8-7.6
	c-0.1-1.9-1.3-7.3-1.6-8.9c-0.2-1.6,0.5-11.4,0.5-11.4s-4.7,10-10.6,11.4c3.5-3.6,4.6-12.1,4.6-12.1s-6.4,9.2-18.4,12.1
	c8.2-2.8,12-11.5,12.3-12c-0.5,0.5-13.4,12.3-21.4,12c5.8-1.7,18.1-19.5,15.9-22.9c-3.8,5.1-23.9,14.2-28.9,21.7
	c-3.1-15.7,11.6-22.2,12.5-22.9c0,0-8.9-0.3-14.2,13.5c-2.1,5.5-6.1,9.1-10.2,11.4c-0.9,12.5-2.8,44.1-0.8,50.3
	c0.2,0.7,0.5,1.4,1,2.2c4.3,7.9,18.8,19.9,21.5,21c2.9,1.2,21.2,2.4,23.1,0c1.8-2.2,14.7-15,17.5-19.9c0,0,0,0,0,0
	c0-0.1,0.1-0.2,0.2-0.4c0.1-0.3,0.3-0.6,0.4-0.9c0,0,0,0,0,0c0.1-0.4,0.2-1.2,0.2-2.2l-9.3-4.6c0,0,5.1-0.5,9.8-5.7
	c0-0.7,0-1.4,0-2.1c-1.6,1.4-3.4,2.7-5.3,3.9C558,141.6,557.1,136.8,557.1,136.8z M537.3,120.6c0,0,6.8-6.6,14.9-0.6
	C549.8,123,544.2,125,537.3,120.6z M536.7,114.2c2-0.9,7.4-2.8,10.8-2.9c4.5-0.1,7.6,1.7,7.6,1.7s-6,0-8.9,0c-2.9,0-9.8,1.9-9.8,1.9
	S536.1,114.5,536.7,114.2z M501.6,110.7c0.7-0.2,6.7-1.5,9.8-1.5c3.3,0,11.6,6.1,11.6,6.1c-0.4,0.2-0.8,0.1-0.8,0.1s-7.5-2.9-9-4.2
	C511.5,109.9,502.6,110.6,501.6,110.7z M512.8,122.8c-4-0.4-7.5-3.8-7.5-3.8s3.9-2.8,8-2c4.1,0.8,7.1,3.8,7.1,3.8
	S516.8,123.2,512.8,122.8z M539.4,156.9c-0.8,2.3-3.2,6.7-8.5,6.9c-5.4,0.2-9.1-4.8-10.6-7.3c-2.7-1.2-4.3-2.4-4.3-2.4
	s0.2-0.1,0.5-0.1c0,0,0,0,0,0c2-0.5,9.1-2.3,11.1-2.3c2.2,0,3.6,0.9,3.6,0.9s2.9-1,5.1-0.9c2.2,0.1,8.4,1.4,8.4,1.4
	S542.9,155.3,539.4,156.9z"/>
<path class="st0" d="M539.4,156.9c-0.8,2.3-3.2,6.7-8.5,6.9c-5.4,0.2-9.1-4.8-10.6-7.3c2.8,1.2,6.7,2.4,11.2,2.2
	C534.7,158.6,537.4,157.9,539.4,156.9z"/>
<path class="st0" d="M578.3,147.7c-3,18.1-14.1,24.9-19,24.9c-0.4,0-0.8-0.1-1.1-0.1c-2.7-0.9-0.8-6.3,0.7-10c0,0,0,0,0,0
	c0.1-0.1,0.1-0.2,0.2-0.2v0c0.2-0.3,0.3-0.5,0.3-0.8c0-0.1,0-0.1,0-0.2c0,0,0,0,0,0c0.5-1.2,0.9-1.9,0.9-1.9l-0.7-0.3l-9.3-4.6
	c0,0,5.1-0.5,9.8-5.7c1.3-1.4,2.6-3.3,3.7-5.6c-1.1,1.2-2.3,2.4-3.6,3.5c-1.6,1.4-3.4,2.7-5.3,3.9c3.1-8.7,2.1-13.5,2.1-13.5
	s-4.3,6-13,4.8c12.3-7.9,16.3-23.2,16.3-23.2l-7.9,6.1c0.2-0.3,4-5.7,3.8-7.6c-0.1-1.9-1.3-7.3-1.6-8.9c-0.2-1.6,0.5-11.4,0.5-11.4
	s-4.7,10-10.6,11.4c3.5-3.6,4.6-12.1,4.6-12.1s-6.4,9.2-18.4,12.1c8.2-2.8,12-11.5,12.3-12c-0.5,0.5-13.4,12.3-21.4,12
	c5.8-1.7,18.1-19.5,15.9-22.9c-3.8,5.1-23.9,14.2-28.9,21.7c-3.1-15.7,11.6-22.2,12.5-22.9c0,0-8.8-0.3-14.2,13.5
	c-3.2,8.1-10.4,11.5-10.2,11.4c-0.9,12.5-2.8,44.1-0.8,50.3c0.2,0.7,0.5,1.4,1,2.2c-3.8,4.4-9,9.8-14.5,13.7c-0.4-0.8-1.2-2-2.6-3.8
	c-2.9-3.6-18.3-18.1-16.4-20.5c-6.5-15.7,13.5-46.8,16.1-50.4c2.6-3.6,13.7-26,30.8-34.4c17.1-8.4,28-3.8,28-3.8s15.2,2.4,28,27.7
	c5.7,11.4,8.1,22.2,7.1,31.8C575.9,124.9,580.7,133.1,578.3,147.7z"/>
<path class="st0" d="M555.1,113c0,0-6,0-8.9,0c-2.9,0-9.8,1.9-9.8,1.9s-0.3-0.4,0.3-0.7c2-0.9,7.4-2.8,10.8-2.9
	C552,111.2,555.1,113,555.1,113z"/>
<path class="st0" d="M523,115.3c-0.4,0.2-0.8,0.1-0.8,0.1s-7.5-2.9-9-4.2c-1.7-1.4-10.6-0.6-11.6-0.6c0.7-0.2,6.7-1.5,9.8-1.5
	C514.7,109.2,523,115.3,523,115.3z"/>
<path class="st0" d="M537.3,120.6c6.9,4.4,12.5,2.4,14.9-0.6C544.1,114,537.3,120.6,537.3,120.6z M545.1,122.6c-1.1,0-2-0.9-2-2
	s0.9-2,2-2c1.1,0,2,0.9,2,2S546.2,122.6,545.1,122.6z"/>
<path class="st0" d="M513.2,117c-4.1-0.8-8,2-8,2s3.5,3.3,7.5,3.8c4,0.5,7.5-2,7.5-2S517.3,117.8,513.2,117z M512.8,122.2
	c-1.2,0-2.1-0.9-2.1-2.2c0-1.2,1-2.2,2.1-2.2c1.2,0,2.2,1,2.2,2.2C515,121.2,514,122.2,512.8,122.2z"/>
<path class="st0" d="M523,115.3c1.6,1.8,2.8,3.9,3.7,6.1c0.5,1.1,0.8,2.3,1.1,3.4c0.3,1.2,0.2,2.6-0.1,3.8c-0.7,2.4-1.9,4.4-2.5,6.7
	c-0.7,2.2-0.1,4.6,1.3,6.6c-0.8-0.9-1.5-1.9-1.9-3.1s-0.4-2.5-0.2-3.7c0.5-2.4,1.7-4.6,2.2-6.8c0.3-1.1,0.4-2.2,0.2-3.3
	c-0.2-1.1-0.5-2.3-0.9-3.4c-0.4-1.1-0.8-2.2-1.3-3.3C524.2,117.4,523.6,116.3,523,115.3z"/>
<path class="st0" d="M522.5,138c-0.5,0.7-0.8,1.5-0.8,2.3c0,0.4,0.1,0.8,0.3,1.1c0.2,0.3,0.5,0.6,0.8,0.8c0.6,0.4,1.4,0.5,2.2,0.5
	c0.8,0,1.6-0.2,2.4-0.5l0.2-0.1l0.2,0.1c0.4,0.2,0.9,0.4,1.4,0.6c0.5,0.1,1,0.2,1.5,0.2c1,0,1.9-0.3,2.6-0.9l0.2-0.2l0.2,0.1
	c1.1,0.4,2.5,0.6,3.5,0c0.5-0.3,0.9-0.8,1-1.4c0.2-0.6,0.2-1.3,0.2-2c0.2,0.6,0.3,1.3,0.2,2c-0.1,0.7-0.4,1.4-1,1.9
	c-0.6,0.5-1.4,0.6-2.1,0.7c-0.7,0-1.4-0.1-2.1-0.3l0.5-0.1c-0.4,0.4-0.9,0.8-1.5,1c-0.6,0.2-1.2,0.3-1.8,0.3c-0.6,0-1.2-0.1-1.7-0.3
	c-0.5-0.2-1.1-0.4-1.6-0.7l0.4,0c-0.9,0.3-1.8,0.5-2.7,0.5c-0.9,0-1.9-0.2-2.7-0.8c-0.4-0.3-0.7-0.7-0.9-1.1
	c-0.2-0.4-0.2-0.9-0.2-1.4C521.4,139.4,521.9,138.6,522.5,138z"/>
<path class="st0" d="M544.5,153.2c0,0-1.7,2.1-5.2,3.7c-2,0.9-4.7,1.7-8,1.8c-4.5,0.2-8.4-1-11.2-2.2c-2.7-1.2-4.3-2.4-4.3-2.4
	s0.2-0.1,0.5-0.1c0,0,0,0,0,0c0.4,0,7.7,0.7,14.9,0.7C538.8,154.7,544.5,153.2,544.5,153.2z"/>
<path class="st0" d="M544.5,153.2c0,0-5.8,1.5-13.2,1.5c-7.2,0-14.5-0.7-14.9-0.7c2-0.5,9.1-2.3,11.1-2.3c2.2,0,3.6,0.9,3.6,0.9
	s2.9-1,5.1-0.9C538.3,151.8,544.5,153.2,544.5,153.2z"/>
<path class="st0" d="M547.1,120.6c0,1.1-0.9,2-2,2s-2-0.9-2-2s0.9-2,2-2C546.2,118.6,547.1,119.5,547.1,120.6z"/>
<path class="st0" d="M512.8,117.9c1.2,0,2.2,1,2.2,2.2s-1,2.2-2.2,2.2c-1.2,0-2.1-1-2.1-2.2S511.6,117.9,512.8,117.9z"/>
<path class="st0" d="M502,357.4c-6-4.6-15.2-12.9-28.1-27.8c-15.5-2.7-25.9-7-32.9-11.4c-1.2-0.8-2.4-1.5-3.4-2.3
	c-0.1-0.1-0.2-0.1-0.2-0.2c-0.9-0.7-1.7-1.4-2.5-2c0,0-0.1-0.1-0.1-0.1c-0.2-0.2-0.5-0.4-0.7-0.6c-0.1-0.1-0.2-0.1-0.2-0.2
	c-0.2-0.2-0.5-0.4-0.7-0.6c-0.1-0.1-0.3-0.3-0.4-0.4c-0.5-0.5-0.9-1-1.4-1.5c-0.4-0.5-0.8-0.9-1.1-1.4c-0.7-0.9-1.2-1.7-1.7-2.5v0
	c5.7-9.2,10.4-18.7,13.8-26c0.3,0.3,0.6,0.5,0.9,0.8c0.3,0.3,0.6,0.6,0.9,0.9c0.3,0.3,0.6,0.6,0.9,0.9c0.5,0.4,1,0.9,1.5,1.3
	c0.2,0.2,0.5,0.4,0.8,0.7c0.6,0.5,1.2,1,1.8,1.6c1.1,0.9,2.2,1.8,3.3,2.7c0.5,0.4,0.9,0.8,1.4,1.1c0.7,0.5,1.3,1,2,1.5
	c0.4,0.3,0.8,0.6,1.2,0.9c1.2,0.9,2.4,1.7,3.6,2.6c0.8,0.6,1.7,1.1,2.5,1.7c0.6,0.4,1.1,0.7,1.7,1.1c0.6,0.4,1.2,0.8,1.8,1.1
	c0.9,0.6,1.8,1.1,2.8,1.6c0.8,0.5,1.7,0.9,2.5,1.4c0.9,0.5,1.8,1,2.8,1.4c0.6,0.3,1.2,0.6,1.8,0.8c0.3,0.1,0.6,0.3,0.9,0.4
	s0.6,0.2,0.9,0.4c0.3,0.1,0.6,0.2,0.9,0.4c0.1,0,0.2,0.1,0.4,0.1c0.1,0,0.3,0.1,0.4,0.1v0c0.1,0.5,0.2,1,0.4,1.6
	c0.7,2.7,1.5,6,2.6,9.3c0.1,0.3,0.2,0.7,0.3,1c1.1,3,2.3,6.1,3.8,9c0.3,0.5,0.6,1.1,0.9,1.6c0.3,0.5,0.6,1.1,1,1.6
	c0.2,0.3,0.3,0.5,0.5,0.8c0.3,0.5,0.7,1,1.1,1.5c0.1,0.2,0.3,0.4,0.4,0.5c0.2,0.3,0.4,0.5,0.6,0.8c0.4,0.5,0.8,1,1.3,1.4
	c0.2,0.2,0.4,0.4,0.6,0.5c0.1,0.1,0.3,0.2,0.4,0.3c0.1,0.1,0.2,0.2,0.4,0.3c0.1,0.1,0.3,0.2,0.4,0.3c0.2,0.2,0.4,0.3,0.6,0.4
	c0.1,0.1,0.3,0.2,0.4,0.3v0c0.2,1.2,0.4,2.7,0.8,4.3c0.2,1,0.4,2.1,0.7,3.2c0,0,0,0,0,0c0.2,1,0.5,2,0.8,3c0.1,0.2,0.1,0.5,0.2,0.7
	c0.4,1.3,0.8,2.6,1.3,3.8c0.2,0.5,0.4,0.9,0.6,1.4C500.6,354.9,501.3,356.2,502,357.4z"/>
<path class="st0" d="M554.8,286.4C554.8,286.4,554.8,286.4,554.8,286.4c-0.1,1.7-0.2,3.5-0.3,5.2v0c0,0-0.6,1.4-2.5,3.3
	c-0.2,0.2-0.4,0.4-0.6,0.6c-4.4,4.3-14.5,10.9-35.6,12.3c-13.6,0.9-30.3-0.5-35.7-2.1c-0.2,0-0.3-0.1-0.4-0.1
	c-0.1,0-0.2-0.1-0.4-0.1c-0.3-0.1-0.6-0.2-0.9-0.4c-0.3-0.1-0.6-0.2-0.9-0.4s-0.6-0.3-0.9-0.4c-0.6-0.3-1.2-0.5-1.8-0.8
	c-0.9-0.4-1.8-0.9-2.8-1.4c-0.8-0.4-1.7-0.9-2.5-1.4c-0.9-0.5-1.8-1.1-2.8-1.6c-0.6-0.4-1.2-0.7-1.8-1.1c-0.6-0.4-1.1-0.7-1.7-1.1
	c-0.8-0.5-1.7-1.1-2.5-1.7c-1.2-0.8-2.4-1.7-3.6-2.6c-0.4-0.3-0.8-0.6-1.2-0.9c-0.7-0.5-1.4-1-2-1.5c-0.5-0.4-1-0.7-1.4-1.1
	c-1.1-0.9-2.2-1.8-3.3-2.7c-0.6-0.5-1.2-1-1.8-1.6c-0.3-0.2-0.5-0.4-0.8-0.7c-0.5-0.4-1-0.9-1.5-1.3c-0.3-0.3-0.6-0.6-0.9-0.9
	c-0.3-0.3-0.6-0.6-0.9-0.9c-0.3-0.3-0.6-0.5-0.9-0.8c1.5-3.2,2.7-6,3.6-8.1c9.5-7.5,20.8-42.9,21.8-57.2c0.3-0.1,0.6-0.3,0.9-0.4
	c9.3-3.7,26.5-7.5,43.4-5.7c0.1,0,0.1,0,0.2,0c0.2,0,0.3,0,0.3,0c9.2,1.3,18.8,4.4,27.9,10.3c0.1,0,0.2-0.1,0.2-0.1l0,0
	c3.5,6.8,8.1,17.9,11,32.4c0.5,2.2,0.9,4.4,1.2,6.7c0.1,0.8,0.2,1.6,0.4,2.4C554.6,268.6,555.2,277.2,554.8,286.4z"/>
<path class="st0" d="M328.3,465.6c-1.1,1.1-2.2,2.3-3.1,3.8c-9.1-3.8-27.3-11.4-31.9-12.9c-0.5,0.1-0.9,0.2-1.3,0.3
	c-1.2-3.5-3.2-12,1.5-17c3.1-3.2,7.4-3.5,11.1-2.7c3.6,0.8,6.6,2.6,7,3.7C312.3,442.5,321.7,457.4,328.3,465.6z"/>
<path class="st0" d="M337.6,460.1c0,0-5,1.3-9.4,5.5c-6.6-8.2-16-23.2-16.7-24.8c-0.5-1-3.4-2.9-7-3.7c1.9-3.3,5.7-7.6,12.7-7.9
	L337.6,460.1z"/>
<path class="st0" d="M325.2,469.4c-1.7,2.6-2.9,5.8-3.2,9.9c0,0,0,0,0,0l-32.8-11.4c0,0-4.8-8.6,2.8-11c0.4-0.1,0.8-0.2,1.3-0.3
	C297.8,458,316.1,465.6,325.2,469.4z"/>
<path class="st0" d="M443.1,510.1c-4.6,3.8-8.9,5-12.8,5c-4.6,0-8.6-1.7-11.7-2.9c-1.2-0.5-2.2-0.8-3.1-1.1
	c-0.7-0.1-1.2-0.2-1.8-0.1c-4.7,0.6-14.5,2.4-11.2,13.3c-12.3-4.5-18.4,11.4-13.2,18.3c0.6,0.8,1.2,1.6,1.8,2.5c0,0,0,0.1,0.1,0.1
	c2.2,3.2,4.7,7.1,6.2,11.1c2,5.5,2.1,11.1-2.8,15.1c-9.7,7.8-19.4-2.1-19.4-2.1s5.2-0.2,5.9-3.4c0.7-3.2-5.1-9.2-7.9-20.8
	c-2.7-11.7,6.2-19.6,6.2-19.6s12.9-3.7,15.6-7c1.9-2.3,2.8-4.4,2.8-9.3c0-2.1-0.2-4.7-0.5-8.1c-0.1-0.1-0.2-0.2-0.4-0.3
	c4.4-3.5,13.8-10.1,20.9-11.5c9.5-1.9,17.1,6.9,18.8,5.3c1.7-1.5,2.6-12,2.6-12S456.4,499.1,443.1,510.1z"/>
<path class="st0" d="M415,540.6c-9-2.2-18,1.4-23.6,4.5c-0.1,0-0.1,0-0.2,0c-0.6-0.9-1.3-1.7-1.8-2.5c-5.2-6.9,0.9-22.8,13.2-18.3
	c-3.3-10.9,6.5-12.7,11.2-13.3c0.5-0.1,1.1,0,1.8,0.1C411.5,519.2,410.2,531.7,415,540.6z"/>
<path class="st0" d="M622.8,701.7c-6.8-2.8-163-126.1-171.6-131c-8.5-4.9-18.6-3.3-18.6-3.3s1.1-8.7-6.9-15.4
	c-6.1-5.1-25.5-6.5-34.3-6.8c5.6-3.1,14.7-6.7,23.6-4.5c-4.8-8.9-3.5-21.4,0.5-29.5c0.9,0.2,2,0.6,3.1,1.1c-0.1,2.8,0,6.7,0.8,12.2
	c2.6,18.9,29.7,21.6,29.7,21.6s1.3,7.6,6.7,16.2s170.2,132.7,170.2,132.7S626.9,696.1,622.8,701.7z"/>
<path class="st0" d="M684.8,744.4c-6.9-5.3-35.6-11.2-53.8-13.2c-10.5-18.8-68.7-58.3-92.6-63.1c-11.4-19.9-47.4-52.4-68-69.5
	c-20.7-17.1-37.3-22-37.3-22s-5-7.3-15.5-14.8c-7.5-5.3-15.8-5.3-20.1-5.4c-1.5-4-4-8-6.2-11.1c0,0,0.1,0,0.1-0.1
	c8.8,0.3,28.2,1.7,34.3,6.8c8,6.7,6.9,15.4,6.9,15.4s10.1-1.6,18.6,3.3c8.5,4.9,164.8,128.2,171.6,131c4.1-5.5,3.3-6.8,3.3-6.8
	s-164.8-124-170.2-132.7c-5.5-8.7-6.7-16.2-6.7-16.2s-27.1-2.7-29.7-21.6c-0.8-5.5-1-9.4-0.8-12.2c3.1,1.2,7.1,2.9,11.7,2.9
	c3,11,8.4,18.3,25.9,25.1c28.6,42,86.1,78.6,113.4,86.1c16.5,28.1,85.4,71.2,85.4,71.2S666.7,727.5,684.8,744.4z"/>
</svg>
