<?xml version="1.0" encoding="utf-8"?>
<!-- Generator: Adobe Illustrator 25.2.0, SVG Export Plug-In . SVG Version: 6.00 Build 0)  -->
<svg version="1.1" baseProfile="tiny" id="Layer_1" xmlns="http://www.w3.org/2000/svg" xmlns:xlink="http://www.w3.org/1999/xlink"
	 x="0px" y="0px" viewBox="0 0 1000 1000" overflow="visible" xml:space="preserve">
<path fill="#FFFFFF" stroke="#000000" stroke-miterlimit="10" d="M440.42,280.49c-6.38-1.04-16.76,5.55-34.41,26.5
	c-11.47,13.59-16.43,31.52-18.58,45.23c-7.05,5.94-27.72,30.2-29.26,35.29c-1.78,5.95-37.44,38.04-45.75,34.01
	c-7.14-3.46-30.44-9.39-39.55-48.28v-0.01c-1.51-6.46-2.64-13.84-3.24-22.27c-0.7-9.89-0.55-18.51,0.31-26.06
	c20.19,17.61,46.79,32.76,68.62,37.65c-29.37-20.17-36.42-65.47-38.1-87.85c5.7-3.59,11.78-6.61,17.89-9.6
	c15.56-7.6,29.5-9.38,38.45-9.52c6.43-0.13,10.28,0.6,10.28,0.6s38.04-5.94,51.7,2.98C432.46,268.06,440.42,280.49,440.42,280.49z"
	/>
<path fill="#FFFFFF" stroke="#000000" stroke-miterlimit="10" d="M338.56,362.54c-21.83-4.89-48.43-20.04-68.62-37.65
	c3.11-27.31,15.47-40.74,30.52-50.2C302.14,297.07,309.19,342.38,338.56,362.54z"/>
<path fill="#FFFFFF" stroke="#000000" stroke-miterlimit="10" d="M398.85,385.25c-1.68,7.28-4.15,15.57-7.21,24.37
	c-3.55,10.23-7.9,21.12-12.7,31.84c-5.09,11.37-10.68,22.55-16.39,32.51c-11.92,20.87-24.3,36.5-33.47,37.74
	c-21.99,2.98-35.06-24.96-39.23-37.44c-1.81-5.41-4.74-15.22-7.99-25.92c-4.25-13.94-9.04-29.45-12.65-38.85
	c-3.65-9.52-0.06-24.87,3.68-36.26c9.12,38.89,32.41,44.81,39.55,48.28c8.32,4.03,43.98-28.06,45.75-34.01
	c1.54-5.09,22.21-29.35,29.26-35.29c-1.74,11.15-1.63,19.51-1.63,20.43C385.81,374.12,390.87,377.05,398.85,385.25z"/>
<path fill="#FFFFFF" stroke="#000000" stroke-miterlimit="10" d="M399.77,632.35c-14.85,0.59-17.23,30.9-20.79,43.96
	c-3.58,13.08-11.29,21.99-18.43,27.33c-0.03,0.03-0.06,0.05-0.09,0.06c-2.94-6.55-7.19-13.19-13.28-19.37
	c-23.17-23.47-21.09-19.02-21.09-19.02s-2.16,17.14,0.4,41.33c-0.12-0.01-0.26-0.01-0.4-0.03c-0.38-0.35-0.75-0.7-1.11-1.08
	c-24.71-23.81-33.54-61.22-45.24-94.59c-3.23-9.19-7.64-19.93-12.22-31.34c25.87-2.98,66.21-26.02,66.21-26.02s-18.34-0.29-45.68,0
	c-12.45,0.14-25.27-7.04-35.54-14.9c-5.55-18.07-8.77-35.41-6.05-48.97c4.96-24.83,25.71-36.97,35.39-41.38
	c3.25,10.7,6.18,20.51,7.99,25.92c4.16,12.48,17.23,40.41,39.23,37.44c9.18-1.24,21.56-16.87,33.47-37.74
	c17.12,19.08,17.78,43.05,20.01,59.72c2.38,17.83-11.29,32.1-15.46,48.14c-4.16,16.04,2.98,50.52,2.98,50.52
	S374.81,629.37,399.77,632.35z"/>
<path fill="#FFFFFF" stroke="#000000" stroke-miterlimit="10" d="M333.73,553.6c0,0-40.34,23.05-66.21,26.02
	c-5.29-13.18-10.82-27.26-15-40.93c10.27,7.87,23.08,15.04,35.54,14.9C315.38,553.31,333.73,553.6,333.73,553.6z"/>
<path fill="#FFFFFF" stroke="#000000" stroke-miterlimit="10" d="M398.48,832.68c-32.47-20.84-50.78-49.63-60.96-77.44
	c-6.33-17.28-9.53-34.19-11.04-48.59c-2.56-24.18-0.4-41.33-0.4-41.33s-2.08-4.45,21.09,19.02c6.09,6.18,10.34,12.82,13.28,19.37
	c8.27,18.36,6.33,35.97,6.33,40.35c0,5.01,8.49,8.14,11.13,8.98c0,0,0.03,0.01,0.08,0.03c0.04,0.01,0.08,0.03,0.13,0.04
	c0.36,0.11,0.56,0.17,0.56,0.17s1.05,5.81,2.71,14.32C385.54,788.77,393.5,826.62,398.48,832.68z"/>
<path fill="#FFFFFF" stroke="#000000" stroke-miterlimit="10" d="M337.53,755.24c-6.63-3.85-14.22-9.05-14.9-9.99
	c-0.9-1.25,1.55-30.45,2.35-39.7c0.36,0.38,0.74,0.73,1.11,1.08c0.14,0.01,0.28,0.01,0.4,0.03
	C328,721.05,331.2,737.96,337.53,755.24z"/>
<path fill="#FFFFFF" stroke="#000000" stroke-miterlimit="10" d="M403.89,837.91c-7.13,4.55-16.98,11.87-18.38,18.31
	c-1.03,4.75-3.31,14.87-5.45,24.36c-0.64-0.01-1.26-0.04-1.88-0.08c-10.5-0.58-17.18-3.78-17.18-3.78s-0.23-10.03,5.35-22.51
	c5.56-12.48,15.16-9.58,27.63-17.61c1.18-0.75,2.29-1.63,3.35-2.6C398.32,834.8,400.52,836.39,403.89,837.91z"/>
<path fill="#FFFFFF" stroke="#000000" stroke-miterlimit="10" d="M406.85,767.07c-2.79,2.09-5.41,3.51-7.08,3.74
	c-2.76,0.38-12.07-1.69-18.38-3.21c-1.66-8.5-2.71-14.32-2.71-14.32s-0.2-0.06-0.56-0.17c1.66,0.44,13.48,3.61,26.51,5.46v0.01
	C405.37,761.45,406.12,764.29,406.85,767.07z"/>
<path fill="#FFFFFF" stroke="#000000" stroke-miterlimit="10" d="M423.92,841.57c-7.15,5.2-16.83,17.03-20.43,43.61
	c-0.68-0.24-1.29-0.51-1.81-0.81h-0.01c-11.65,1.85-18.22-0.1-21.88-2.59c0.1-0.4,0.19-0.8,0.28-1.2
	c2.14-9.49,4.43-19.61,5.45-24.36c1.4-6.44,11.25-13.75,18.38-18.31C408.46,839.99,415.19,841.94,423.92,841.57z"/>
<path fill="#FFFFFF" stroke="#000000" stroke-miterlimit="10" d="M486.24,734.78c-7.13,28.96-18.94,27.85-30.29,54.37
	c-5.3,12.4-5.41,29.57-4.01,44.35c-10.87,5.56-20.23,7.74-28.02,8.07c-8.73,0.38-15.46-1.58-20.03-3.65
	c-3.36-1.53-5.56-3.11-6.55-3.9c0.43-0.39,0.85-0.79,1.25-1.21c0.41,0.48,0.81,0.71,1.19,0.7c-0.39-0.24-0.76-0.49-1.15-0.74
	c9.49-9.75,14.52-27.48,14.52-37.15c0-4.44-2.9-15.69-6.29-28.55c2.7-2,5.54-4.63,7.83-7.4c4.9,0.35,9.64,0.38,13.77-0.15
	c18.87-2.38,21.98-8.22,21.98-10.28c0-2.05-12.18-25.82-14.1-26.86c-1.94-1.05-11.89,1.93-18.13-0.75
	c-4.7-2.01-13.6-8.4-18.93-13.92c1.9-4.34,4.69-9.19,7.82-14.19c6.49,10.53,29.71,23.26,43.5,24.1
	c14.72,0.9,21.39-21.62,21.39-21.62c0-0.93,2.09-6.08,5.4-12.68C483.99,699.59,489.89,719.91,486.24,734.78z"/>
<path fill="#FFFFFF" stroke="#000000" stroke-miterlimit="10" d="M457.04,864.02c-7.35,8.47-30.97,20.73-43.68,22.07
	c-4.35,0.46-7.55-0.05-9.88-0.91c3.6-26.58,13.28-38.41,20.43-43.61c7.79-0.33,17.16-2.5,28.02-8.07
	C453.52,850.32,457.04,864.02,457.04,864.02z"/>
<path fill="#FFFFFF" stroke="#000000" stroke-miterlimit="10" d="M451.94,613.33c-8.17-0.49-22.04-10.93-33.11-20.48
	c1.09-5.71,3.44-13.62,6.26-22.27C431.03,583.52,440.25,606.78,451.94,613.33z"/>
<path fill="#FFFFFF" stroke="#000000" stroke-miterlimit="10" d="M459.19,571.88c-0.73,0.63-17.61-12.57-27.62-20.49
	c1.03-3,2.04-5.98,3.01-8.87C441.02,552.25,450.4,565.02,459.19,571.88z"/>
<path fill="#FFFFFF" stroke="#000000" stroke-miterlimit="10" d="M395.46,702.76c0.7,1.44,2.06,3.15,3.8,4.95
	c5.33,5.51,14.23,11.9,18.93,13.92c6.24,2.68,16.19-0.3,18.13,0.75c1.93,1.04,14.1,24.81,14.1,26.86c0,2.06-3.11,7.9-21.98,10.28
	c-4.13,0.53-8.87,0.5-13.77,0.15c-3.33-0.24-6.74-0.63-10.05-1.09v-0.01c-13.03-1.85-24.85-5.03-26.51-5.46
	c-0.05-0.01-0.09-0.03-0.13-0.04c-0.05-0.01-0.08-0.03-0.08-0.03c-2.64-0.84-11.13-3.96-11.13-8.98c0-4.38,1.94-21.99-6.33-40.35
	c0.03-0.01,0.06-0.04,0.09-0.06c7.14-5.34,14.85-14.25,18.43-27.33c3.56-13.07,5.94-43.38,20.79-43.96
	c13.52-2.09,20.51,8.47,27.33,17.23c0.63,0.8,1.78,1.81,2.76,2.59c0,0.01,0,0.01,0,0.03c0.14,0.1,0.28,0.2,0.41,0.29
	c8.6,5.91,24.72,6.28,25.5,9.13c0.89,3.26-1.93,10.99-1.78,16.94c0.14,5.94-9.37,34.01-10.85,33.86
	c-1.49-0.14-15.59-7.72-17.23-9.65c-1.64-1.93-3.41-22.88-3.71-24.51c-0.09-0.45-1.36-1.18-3.3-2.05c-0.09,0.14-0.17,0.28-0.26,0.41
	c-0.13-0.05-0.25-0.11-0.38-0.16c-5.34-2.36-14.58-6.1-18.49-7.85C394.12,666.07,392.65,696.97,395.46,702.76z"/>
<path fill="#FFFFFF" stroke="#000000" stroke-miterlimit="10" d="M518.02,618.97c-7.72,14.27-18.12,29.71-27.92,43.09
	c-4.9,6.66-9.43,14.68-12.73,21.26c-3.31,6.6-5.4,11.75-5.4,12.68c0,0-6.68,22.52-21.39,21.62c-13.79-0.84-37.01-13.57-43.5-24.1
	c3.55-5.69,7.55-11.57,11.19-17.07c0.12,0.05,0.25,0.11,0.38,0.16c0.09-0.14,0.18-0.28,0.26-0.41c1.94,0.88,3.21,1.6,3.3,2.05
	c0.3,1.63,2.08,22.58,3.71,24.51c1.64,1.94,15.74,9.52,17.23,9.65c1.49,0.15,10.99-27.92,10.85-33.86
	c-0.15-5.95,2.66-13.68,1.78-16.94c-0.78-2.85-16.89-3.21-25.5-9.13c-0.14-0.09-0.28-0.19-0.41-0.29c0-0.01,0-0.01,0-0.03
	c0.56-15.61-11.03-41.45-11.68-53.11c-0.09-1.56,0.15-3.68,0.64-6.21c11.07,9.55,24.95,19.99,33.11,20.48
	c-11.69-6.55-20.91-29.81-26.85-42.75c2.01-6.18,4.28-12.75,6.48-19.19c10.02,7.93,26.9,21.12,27.62,20.49
	c-8.79-6.85-18.17-19.63-24.61-29.36c2.29-6.78,4.36-13.12,5.84-18.37c28.76-22.62,65.42,29.45,65.42,29.45
	c11.35,13.92,16.24,27.65,17.14,39.59C523.76,603.45,521.6,612.38,518.02,618.97z"/>
<path fill="#FFFFFF" stroke="#000000" stroke-miterlimit="10" d="M451.94,454.66c-16.67,1.2-33.34,1.19-45.77,0.88
	c-9.33-5.14-20.14-10.58-27.25-14.08c4.8-10.72,9.15-21.61,12.7-31.84C399.02,423.19,415.54,442.56,451.94,454.66z"/>
<path fill="#FFFFFF" stroke="#000000" stroke-miterlimit="10" d="M459.19,482.58h-25.78c-2.85-5.31-5.75-9.88-7.74-12.9
	L459.19,482.58z"/>
<path fill="#FFFFFF" stroke="#000000" stroke-miterlimit="10" d="M621.3,519.15c-12.02,2.63-26.01,28.51-26.01,28.51
	s-7.73,37.44-43.39,46.35c-0.63,0.15-1.24,0.3-1.85,0.44c-11.58,2.56-20.42,1.4-27.06-1.26c-0.9-11.94-5.79-25.67-17.14-39.59
	c0,0-36.66-52.07-65.42-29.45c1.06-3.75,1.81-6.94,2.14-9.33c1.33-9.82-3.83-22.32-9.15-32.24h25.78l-33.52-12.9
	c-0.54-0.81-1-1.53-1.39-2.1c-1.63-2.45-9.19-7.11-18.11-12.04c12.43,0.31,29.1,0.33,45.77-0.88c-36.4-12.1-52.92-31.47-60.31-45.04
	c3.06-8.8,5.54-17.09,7.21-24.37c3.33,3.41,7.15,7.74,11.33,13.25c7.44,9.82,18.66,18.44,32.44,23.61h0.01
	c9,22.77,24.66,35.54,34.1,48.29c11.89,16.04,6.24,21.39,14.87,41.53c8.62,20.12,42.49,39.59,60.91,41.66
	c1.99-0.24,4.1-0.93,6.28-1.96c16.98-8.07,37.99-37.25,37.99-37.25s0.78-31.66,14.47-52.5c0.35,18.51,2.43,42.2,8.29,53.69
	C620.07,516.66,620.67,517.85,621.3,519.15z"/>
<path fill="#FFFFFF" stroke="#000000" stroke-miterlimit="10" d="M620.68,622.24c7.14-0.89,12.89-2.51,17.39-4.28
	c-0.09,0.34-0.2,0.66-0.3,1c-9.63,30.54-13.79,40.65-18.76,47.8v0.01c-1.18,1.69-2.39,3.19-3.73,4.78
	c-7.03,8.32-17.63,19.61-27.73,27.33c-6.48,4.95-15.27-1.93-20.76-7.52c4.7-6.84,3.81-18.12,3.23-38.84
	c-0.5-17.48-15.29-48.63-19.98-58.09c0.61-0.14,1.23-0.29,1.85-0.44c35.66-8.92,43.39-46.35,43.39-46.35s13.99-25.88,26.01-28.51
	c2.98,6.11,6.71,14.49,10.15,24.2v0.01l-6.15,38.33l12.1-18.27c2.86,12.03,4.55,24.92,3.69,37.42
	C635.55,610.83,627.75,620.71,620.68,622.24z"/>
<path fill="#FFFFFF" stroke="#000000" stroke-miterlimit="10" d="M663.95,827.14c0.06,0.45,0.12,0.71,0.12,0.71
	s-4.31,3.28-17.68,8.32c-0.86,0.33-1.74,0.61-2.63,0.86c-13,3.7-29.27,0.15-39.58-2.64c-7.4-2-21.14-11.83-29.32-18.03
	c2.28-12.62,4.89-28.12,4.36-35.75c-0.89-13.08-17.23-26.75-24.36-38.33c-7.13-11.59,7.13-43.98,11.88-50.82
	c0.02-0.02,0.04-0.06,0.05-0.09c5.49,5.59,14.28,12.47,20.76,7.52c10.1-7.73,20.71-19.02,27.73-27.33c1.34-1.59,2.55-3.09,3.73-4.78
	c2.89,5.01,5.89,11.32,7.46,17.86c1.46,6.09,0.23,11.28-1.75,15.28c4.61,6.7,9.9,16.79,10.07,28.1
	c0.3,20.21-29.41,53.18-16.04,71.61c11.12,15.32,37.44,19.74,45.99,20.81C663.42,822.38,663.74,825.7,663.95,827.14z"/>
<path fill="#FFFFFF" stroke="#000000" stroke-miterlimit="10" d="M692.74,869.45c0,0-22.88,0.89-38.63,0
	c-15.76-0.89-28.53-10.7-36.85-14.27c-8.32-3.56-45.47-15.16-45.47-20.21c0-2.1,1.44-9.62,3.06-18.62
	c8.18,6.2,21.92,16.03,29.32,18.03c10.3,2.79,26.57,6.34,39.58,2.64c7.53,5.46,22.01-1.41,26.68,0.63
	c3.08,1.35,11.44,14.17,17.01,23.11C690.53,865.7,692.74,869.45,692.74,869.45z"/>
<path fill="#FFFFFF" stroke="#000000" stroke-miterlimit="10" d="M706.85,844.34l-4.75,3.26l-19.76-22.43l-18.39,1.96
	c-0.21-1.44-0.53-4.75,0.8-6.7c0.61-0.9,1.56-1.5,3.04-1.5c5.64,0,14.55-6.24,18.87-2.38C690.96,820.42,706.85,844.34,706.85,844.34
	z"/>
<path fill="#FFFFFF" stroke="#000000" stroke-miterlimit="10" d="M708.34,860.38l-20.88,0.38c-5.56-8.94-13.93-21.76-17.01-23.11
	c-4.68-2.04-19.16,4.84-26.68-0.63c0.89-0.25,1.76-0.54,2.63-0.86c13.37-5.04,17.68-8.32,17.68-8.32s-0.06-0.26-0.12-0.71
	l18.39-1.96l19.76,22.43L708.34,860.38z"/>
<path fill="#FFFFFF" stroke="#000000" stroke-miterlimit="10" d="M646.57,420.4c-2.2,7.06-6.99,16.49-17.36,24.82
	c-1.74,1.4-3.64,2.76-5.7,4.09c-4.95,3.18-8.99,7.55-12.28,12.57c-13.69,20.84-14.47,52.5-14.47,52.5s-21.01,29.18-37.99,37.25
	c0.55-25.9,1.45-78.84-0.34-85.09c17.89-15.48,20.83-53.76,21.31-67.5c17.16,2.66,29.35,11.13,36.19,17.06
	C624.5,423.53,635.05,424.29,646.57,420.4z"/>
<path fill="#FFFFFF" stroke="#000000" stroke-miterlimit="10" d="M558.44,466.54c1.79,6.25,0.89,59.19,0.34,85.09
	c-2.18,1.04-4.29,1.73-6.28,1.96c-18.42-2.08-52.29-21.54-60.91-41.66c-8.63-20.13-2.98-25.48-14.87-41.53
	c-9.44-12.75-25.1-25.52-34.1-48.29c21.21,7.97,48.44,7.72,77.19-9.05c24.01-14,44.09-16.49,59.93-14.02
	C579.27,412.79,576.33,451.06,558.44,466.54z"/>
<path fill="#FFFFFF" stroke="#000000" stroke-miterlimit="10" d="M641.09,600.84c-0.4,5.83-1.35,11.58-3.01,17.12v0.01
	c-4.5,1.76-10.25,3.39-17.39,4.28C627.75,620.71,635.55,610.83,641.09,600.84z"/>
<path fill="#FFFFFF" stroke="#000000" stroke-miterlimit="10" d="M637.4,563.41l-12.1,18.27l6.15-38.33
	C633.65,549.58,635.73,556.35,637.4,563.41z"/>
<path fill="#FFFFFF" stroke="#000000" stroke-miterlimit="10" d="M696.61,315.3c-6.71-16.18-16.86-25.5-25.66-25.21
	c-3.5,0.1-6.78,1.71-9.55,5c-9.8,11.59-58.83,18.28-58.83,18.28l-11.14,12.03c-20.06-0.89-15.16-14.27-40.56-13.82
	c-25.41,0.45-101.47-25.7-107.41-29.86c-0.89-0.63-1.9-1.05-3.03-1.24c-6.38-1.04-16.76,5.55-34.41,26.5
	c-11.47,13.59-16.43,31.52-18.58,45.23c-1.74,11.15-1.63,19.51-1.63,20.43c0,1.48,5.06,4.4,13.04,12.6
	c3.33,3.41,7.15,7.74,11.33,13.25c7.44,9.82,18.66,18.44,32.44,23.61h0.01c21.21,7.97,48.44,7.72,77.19-9.05
	c24.01-14,44.09-16.49,59.93-14.02c17.16,2.66,29.35,11.13,36.19,17.06c8.57,7.43,19.12,8.19,30.64,4.3
	c12.08-4.06,25.21-13.27,38.23-25.25c13.59-12.52,18.71-28.03,19.08-43.21C704.2,338.75,700.96,325.81,696.61,315.3z M587.81,387.73
	c-15.08,0-27.31-12.23-27.31-27.31c0-15.08,12.23-27.3,27.31-27.3s27.31,12.22,27.31,27.3C615.12,375.5,602.89,387.73,587.81,387.73
	z"/>
<path fill="#FFFFFF" stroke="#000000" stroke-miterlimit="10" d="M710.93,445.23c-7.89,25.72-22.31,42.25-35.71,61.12
	c-11.14-7.18-20.36-17.34-27.7-27.76c-8.65-12.28-14.73-24.91-18.31-33.37c10.37-8.33,15.16-17.76,17.36-24.82
	c12.08-4.06,25.21-13.27,38.23-25.25c13.59-12.52,18.71-28.03,19.08-43.21c5,4.56,10.25,13.49,12.34,30.96
	c0.16,2.1,0.3,4.16,0.41,6.19C717.88,412.37,715.5,430.34,710.93,445.23z"/>
<path fill="#FFFFFF" stroke="#000000" stroke-miterlimit="10" d="M740.29,347.23c-2.06,21.38-12.74,34.24-23.66,41.86
	c-0.11-2.03-0.25-4.09-0.41-6.19c-2.09-17.47-7.34-26.4-12.34-30.96c0.33-13.19-2.91-26.13-7.26-36.64
	c-6.71-16.18-16.86-25.5-25.66-25.21c4.25-6.51,12.18-17.11,21.22-21.58c3.58-1.78,7.33-2.6,11.09-1.84c1.2,0.25,2.4,0.65,3.59,1.24
	c3.7,1.81,7.39,4.15,10.89,7.08c1.28,1.06,2.53,2.21,3.74,3.44c0.96,15.66,1.2,53.48-7.94,68.8c12.34-2.89,21.14-15.86,26.6-27.08
	C741.12,328.16,741.25,337.15,740.29,347.23z"/>
<path fill="#FFFFFF" stroke="#000000" stroke-miterlimit="10" d="M740.14,320.14c-5.45,11.23-14.25,24.2-26.6,27.08
	c9.14-15.32,8.9-53.14,7.94-68.8C730.49,287.48,737.77,301,740.14,320.14z"/>
<path fill="#FFFFFF" stroke="#000000" stroke-miterlimit="10" d="M692.17,268.51c-9.04,4.48-16.97,15.07-21.22,21.58
	c-3.5,0.1-6.78,1.71-9.55,5c-9.8,11.59-58.83,18.28-58.83,18.28l-11.14,12.03c-20.06-0.89-15.16-14.27-40.56-13.82
	c-25.41,0.45-101.47-25.7-107.41-29.86c-0.89-0.63-1.9-1.05-3.03-1.24c0,0-7.97-12.43-21.63-21.34c-13.67-8.92-51.7-2.98-51.7-2.98
	s-3.85-0.73-10.28-0.6c7.59-8.84,33.69-29.52,58.21-40.84c7.09,17.73,30.31,58.73,96.62,73.24c-21.41-8.37-38.68-66.46-45.97-94.91
	c6.98-3.66,13.68-7.73,21.46-12.95c0.15-0.1,0.3-0.21,0.46-0.33c0.31,12.89,2.94,32.14,14.69,42.23
	c-5.94-24.26-3.8-43.86-0.96-56.06c0.01,0,0.01-0.01,0.01-0.01c5.05-5.8,10.78-12.6,17.16-19.39l7.87,9.94l-8.25,19.39
	c0,0,7.55-2.16,16.93-0.43h0.06c3.15,0.58,6.49,1.59,9.82,3.26c-3.98,9.28-11.22,29.91-7.41,50.42
	c5.13,27.63,48.58,73.31,48.58,73.31s16.27-26.96,13.37-43.23c5.51-6.39,19.08-23.88,19.81-40c2.58-0.18,5.21-0.45,7.89-0.84
	c0.14,3,0.29,5.4,0.39,6.74c0.12,1.78,3.43,4.69,8.22,8.13c2.03,8.77,5.78,34.12-10.44,60.07c26.03-16.27,31.57-29.2,32.21-45.9
	c7.33,4.69,13.69,8.99,15.92,11.73C676.69,263.2,685,266.39,692.17,268.51z"/>
<path fill="#FFFFFF" stroke="#000000" stroke-miterlimit="10" d="M511.63,287.97c-66.31-14.5-89.53-55.51-96.62-73.24
	c2.46-1.15,4.93-2.2,7.34-3.13c19.31-7.43,31.69-12.44,43.31-18.54C472.96,221.51,490.23,279.6,511.63,287.97z"/>
<path fill="#FFFFFF" stroke="#000000" stroke-miterlimit="10" d="M502.28,222.01c-11.75-10.09-14.38-29.33-14.69-42.23
	c3.8-2.7,8.39-7.7,13.73-13.83C498.48,178.15,496.34,197.75,502.28,222.01z"/>
<path fill="#FFFFFF" stroke="#000000" stroke-miterlimit="10" d="M642.23,169.42c0,4.9-5.35,8.02-11.14,14.25
	c-1.38,1.48-2.31,4.23-2.95,7.64c-0.55-0.05-1.09-0.09-1.61-0.13l-1.01-17.54l-1.3,0.84l2.86-5.29l-15.16,6.01l-28.97-8.47
	l2.08,5.18l-2.74-2.06c0,0-7.83,1.75-13.99,12.38c-7.14-4.5-14.8-6.4-21.81-6.94c-4.11-0.34-7.99-0.19-11.39,0.16h-0.06
	c-9.38-1.74-16.93,0.43-16.93,0.43l8.25-19.39l-7.87-9.94c2.19-2.34,4.44-4.66,6.78-6.95c0.94,0.93,1.75,1.59,2.43,1.96
	c2.64,1.46,8.02,2.23,14.49,3.19c2.7,5.01,8.82,14.35,17.37,15.98c11.82,2.23,20.84-1.26,20.84-1.26c0.35,0.41,0.69,0.83,1,1.26
	c-1.98-4.86-4.19-8.72-6.35-11.73c-3.99-5.6-10.04-9.33-16.81-10.6c-5.81-1.09-14.47-3.41-22.43-8.3c3.05-2.5,6.2-4.85,9.47-6.99
	c10.87,1.53,30.44,5.5,37.01,15.12c-0.41-7.28-9.97-17.79-17.02-24.62c2.06-0.6,4.15-1.08,6.28-1.43
	c8.34,7.31,32.49,28.81,37.26,36.51c1.71-7.65-0.73-22.91-2.34-31.34c3.05,1.39,5.85,2.98,8.42,4.71c1.31,7,2.84,17.43,1.28,21.28
	c4.39-3.61,7.06-9.03,8.52-12.94c3.13,3.33,5.71,6.85,7.85,10.37c-0.93,0.55-1.85,1.04-2.78,1.45
	c-12.48,5.58-10.48,18.51-10.48,18.51c0.19-0.54,0.45-1.06,0.78-1.56c2.21,0.63,8.57,2.29,11.49,1.56c1.93-0.49,4.65-4,6.79-7.95
	C641.42,161.04,642.23,167.72,642.23,169.42z"/>
<path fill="#FFFFFF" stroke="#000000" stroke-miterlimit="10" d="M628.14,191.31c-0.14,0.69-0.25,1.41-0.36,2.15
	c-0.16-0.01-0.34-0.01-0.51-0.01c-5.44-0.08-14.22-0.08-27.6,0.25c-19.79,0.5-28.42,6.28-32.57,9.93c-0.34-0.36-0.66-0.73-0.99-1.1
	c3.51-3.73,17.62-14.65,60.42-11.34C627.05,191.23,627.59,191.26,628.14,191.31z"/>
<path fill="#FFFFFF" stroke="#000000" stroke-miterlimit="10" d="M624.67,130.41c-1.45,3.91-4.13,9.33-8.52,12.94
	c1.56-3.85,0.04-14.28-1.28-21.28C618.63,124.59,621.87,127.42,624.67,130.41z"/>
<path fill="#FFFFFF" stroke="#000000" stroke-miterlimit="10" d="M608.8,148.69c-4.78-7.7-28.92-29.2-37.26-36.51
	c5.11-0.88,10.4-1.01,15.87-0.25c7.25,1,13.57,2.9,19.06,5.43C608.08,125.78,610.52,141.03,608.8,148.69z"/>
<path fill="#FFFFFF" stroke="#000000" stroke-miterlimit="10" d="M582.28,138.22c-6.58-9.62-26.15-13.59-37.01-15.12
	c6.29-4.14,12.95-7.47,19.99-9.5C572.32,120.43,581.87,130.94,582.28,138.22z"/>
<path fill="#FFFFFF" stroke="#000000" stroke-miterlimit="10" d="M657.51,247.42c-0.64,16.71-6.18,29.63-32.21,45.9
	c16.22-25.95,12.47-51.3,10.44-60.07C641.75,237.57,650.12,242.69,657.51,247.42z"/>
<polygon fill="#FFFFFF" stroke="#000000" stroke-miterlimit="10" points="627.07,169.19 624.21,174.48 611.26,182.79 591.42,171.19 
	592.31,177.43 585.02,171.92 582.95,166.74 611.92,175.21 "/>
<path fill="#FFFFFF" stroke="#000000" stroke-miterlimit="10" d="M568.29,182.23c-2.26,3.89-4.3,8.97-5.64,15.58
	c-0.06-0.1-0.14-0.21-0.2-0.33c-4.73-9.83-11.1-15.54-17.54-18.77c-3.33-1.68-6.66-2.69-9.82-3.26c3.4-0.35,7.28-0.5,11.39-0.16
	C553.49,175.83,561.15,177.73,568.29,182.23z"/>
<path fill="#FFFFFF" stroke="#000000" stroke-miterlimit="10" d="M599.44,259.22c2.9,16.27-13.37,43.23-13.37,43.23
	s-43.45-45.68-48.58-73.31c-3.8-20.51,3.44-41.14,7.41-50.42c6.44,3.23,12.82,8.94,17.54,18.77c0.06,0.11,0.14,0.23,0.2,0.33
	c1.03,1.66,2.18,3.24,3.45,4.71c0.33,0.38,0.65,0.74,0.99,1.1c10.92,11.74,29.66,17.22,52.15,15.59
	C618.52,235.34,604.95,252.83,599.44,259.22z"/>
<path fill="#FFFFFF" stroke="#000000" stroke-miterlimit="10" d="M626.52,191.19c-42.8-3.31-56.91,7.61-60.42,11.34
	c-1.28-1.48-2.43-3.05-3.45-4.71c1.34-6.61,3.38-11.69,5.64-15.58c6.16-10.63,13.99-12.38,13.99-12.38l2.74,2.06l7.29,5.51
	l-0.89-6.24l19.83,11.59l12.95-8.3l1.3-0.84L626.52,191.19z"/>
<path fill="#FFFFFF" stroke="#000000" stroke-miterlimit="10" d="M641.57,215.55c-4.93,1.24-9.74,2.19-14.43,2.84
	c-2.68,0.39-5.31,0.66-7.89,0.84c-22.49,1.63-41.24-3.85-52.15-15.59c4.15-3.65,12.78-9.43,32.57-9.93
	c13.38-0.33,22.16-0.33,27.6-0.25c0.14,0.09,0.3,0.2,0.48,0.31C631.37,196.29,642.69,205.05,641.57,215.55z"/>
<path fill="#FFFFFF" stroke="#000000" stroke-miterlimit="10" d="M580.4,159.46c0,0-9.03,3.49-20.84,1.26
	c-8.55-1.63-14.67-10.97-17.37-15.98C554.89,146.65,571.8,149.29,580.4,159.46z"/>
<path fill="#FFFFFF" stroke="#000000" stroke-miterlimit="10" d="M581.4,160.73c-0.31-0.44-0.65-0.85-1-1.26
	c-8.59-10.18-25.51-12.82-38.21-14.72c-6.48-0.96-11.85-1.73-14.49-3.19c-0.68-0.38-1.49-1.04-2.43-1.96
	c-10.04-9.83-33.52-47.97-34.32-49.25c0.91,0.88,25.43,24.48,39.64,36.06c1.68,1.36,3.44,2.6,5.23,3.69
	c7.97,4.89,16.62,7.21,22.43,8.3c6.76,1.28,12.82,5,16.81,10.6C577.21,152.01,579.42,155.86,581.4,160.73z"/>
<path fill="#FFFFFF" stroke="#000000" stroke-miterlimit="10" d="M647.8,145.35c-1.4,1.26-4.25,2.39-7.65,3.58
	c-0.95,0.34-1.94,0.68-2.96,1.01c-6.69,2.28-14.34,4.94-17.14,9.23c-0.33,0.5-0.59,1.03-0.78,1.56c0,0-2-12.93,10.48-18.51
	c0.93-0.41,1.85-0.9,2.78-1.45c11.67-6.89,23.62-23.82,24.86-27.73C658.72,108.8,652.48,141.11,647.8,145.35z"/>
<path fill="#FFFFFF" stroke="#000000" stroke-miterlimit="10" d="M638.33,152.78c-2.14,3.95-4.86,7.47-6.79,7.95
	c-2.93,0.73-9.28-0.94-11.49-1.56c2.8-4.29,10.45-6.95,17.14-9.23C637.6,150.9,637.98,151.85,638.33,152.78z"/>
<path fill="#FFFFFF" stroke="#000000" stroke-miterlimit="10" d="M740.95,622.24c0.15,7.6,3.1,19.36,4.4,32.44
	c-2.14-6.51-3.73-10.6-3.73-10.6l-4.01,27.18c0,0-0.51,1.1-1.38,3.03c-23.15-0.78-33.74-23.15-43.49-37.79
	c-9.85-14.75-28.96-13.09-32.86-12.58c0,0,0,0-0.01,0c-0.45,0.05-0.7,0.1-0.7,0.1s11.58-16.93,11.95-32.39
	c0.38-15.46-11.52-16.19-25.77-40.91c-10.2-17.69-2.85-53.28,2.16-72.12c7.34,10.42,16.56,20.58,27.7,27.76
	c13.4-18.87,27.82-35.4,35.71-61.12c14.25,12.92,27.53,35.91,35.85,51.63c-2.49,15.77-8.82,39.35-12.44,43.36
	c-5.34,5.94-10.32,10.49-10.32,10.49s17.13,5.24,29.61-10.35C749.68,570.69,740.8,614.63,740.95,622.24z"/>
<path fill="#FFFFFF" stroke="#000000" stroke-miterlimit="10" d="M753.63,540.37c-12.48,15.59-29.61,10.35-29.61,10.35
	s4.98-4.55,10.32-10.49c3.63-4.01,9.95-27.6,12.44-43.36c3.68,6.93,6.38,12.45,7.77,15.07
	C756.24,515.11,755.47,526.26,753.63,540.37z"/>
<path fill="#FFFFFF" stroke="#000000" stroke-miterlimit="10" d="M755.49,723.41c-5.76,28.12-47.45,93.52-48.63,95.33
	c0.33-2.04,11.94-74.66,9.28-86.52c-0.1-0.46-0.23-0.84-0.38-1.1c1.86-14.69,15.97-46.85,20.47-56.84c0.86-1.93,1.38-3.03,1.38-3.03
	l4.01-27.18c0,0,1.59,4.09,3.73,10.6C750.75,671.11,759.67,702.98,755.49,723.41z"/>
<path fill="#FFFFFF" stroke="#000000" stroke-miterlimit="10" d="M715.77,731.13c0.15,0.26,0.28,0.64,0.38,1.1
	c-7.49,6.33-18.58,15.21-25.33,18.37c-10.92,5.13-9.58-2.45-13.59-4.9c-4.01-2.45-24.07-10.48-24.07-10.48s0.61-1.88,1.54-4.36
	c1.64-4.41,4.29-10.75,6.3-11.9c3.15-1.78,21.81-0.89,24.03-3.49c2.23-2.6,4.45-14.34,7.73-24c0.88-2.59,0.74-6-0.09-9.65
	c-0.84-3.7-2.39-7.67-4.33-11.27c-3.24-6.05-7.55-11.08-11.34-12.2c-8.24-2.45-13.37,7.35-14.93,10.92
	c-0.94,2.14,1.1,10.72,3.51,18.34v0.01c1.6,5.05,3.36,9.69,4.51,11.73c1.1,1.96-0.56,4.93-3.24,7.79
	c-4.31,4.61-11.28,8.94-13.48,8.25c-0.98-0.31-3.26-2.81-6.06-6.31c-7.38-9.22-18.34-25.33-18.67-26.52
	c-0.45-1.63,8.03-16.42,11.59-21.76c3.58-5.35,1.11-24.3,1.16-25.41c0.04-0.71,10.79-7.04,18.48-11.47c0.01,0,0.01,0,0.01,0
	c3.9-0.51,23.01-2.18,32.86,12.58c9.75,14.64,20.34,37.01,43.49,37.79C731.73,684.28,717.63,716.44,715.77,731.13z"/>
<path fill="#FFFFFF" stroke="#000000" stroke-miterlimit="10" d="M692.66,681.81c-3.84,7.16-11.34,20.66-15.22,24.22
	c-2.55,2.34-6.81,2.04-10.59,1.1c2.68-2.86,4.34-5.83,3.24-7.79c-1.15-2.04-2.91-6.68-4.51-11.73c3.29,1.01,7.01,1.43,10.74,0.36
	c7.57-2.16,11.18-10.74,12.02-17.43C690.27,674.15,691.82,678.11,692.66,681.81z"/>
<path fill="#FFFFFF" stroke="#000000" stroke-miterlimit="10" d="M615.12,360.42c0,15.08-12.23,27.31-27.31,27.31
	s-27.31-12.23-27.31-27.31c0-15.08,12.23-27.3,27.31-27.3S615.12,345.34,615.12,360.42z"/>
<circle fill="#FFFFFF" stroke="#000000" stroke-miterlimit="10" cx="629.64" cy="156.93" r="2.57"/>
<circle fill="#FFFFFF" stroke="#000000" stroke-miterlimit="10" cx="562.49" cy="156.38" r="3.61"/>
</svg>
