<?xml version="1.0" encoding="utf-8"?>
<!-- Generator: Adobe Illustrator 25.2.0, SVG Export Plug-In . SVG Version: 6.00 Build 0)  -->
<svg version="1.1" baseProfile="tiny" id="Layer_1" xmlns="http://www.w3.org/2000/svg" xmlns:xlink="http://www.w3.org/1999/xlink"
	 x="0px" y="0px" viewBox="0 0 1000 1000" overflow="visible" xml:space="preserve">
<path fill="#FFFFFF" stroke="#231F20" stroke-miterlimit="10" d="M757.8,103.8c0,0-3.8,122.3-92.8,149c-15.3-6.6-15.1-22.2-12.1-32
	c3.6,4.6,8.8,8.2,21.4,5.3c9.5-2.2,17.2-8.8,23-15.8c3.1-3.7,5.7-7.6,7.7-11c15.8-18.6,28.9-49.7,36.8-68.5c0.2-0.5,0.4-0.9,0.6-1.4
	c-0.1,7,0,12.5,0.6,11.3C744.5,137.5,757.8,103.8,757.8,103.8z"/>
<path fill="#FFFFFF" stroke="#231F20" stroke-miterlimit="10" d="M696,208.2c-4.3,3.4-8.8,5.9-13.3,7.5
	c-10.3-20.3-50.6-48.2-53.9-53c-2.2-3.3,0.5-5.8,2.8-7.2c4.8,2.1,13.3,6.4,27,15C678.1,182.7,691.6,201.6,696,208.2z"/>
<path fill="#FFFFFF" stroke="#231F20" stroke-miterlimit="10" d="M682.7,215.7c-9.8,3.5-19.5,2.8-26.8-1.5c-2.1-1.2-3.9-2.6-5.6-4.3
	c-52.4-54.9-23.7-56.3-23.7-56.3s0.5,0.1,1.8,0.6c0.8,0.3,1.9,0.7,3.3,1.3c-2.3,1.4-5,3.9-2.8,7.2
	C632.1,167.6,672.4,195.4,682.7,215.7z"/>
<path fill="#FFFFFF" stroke="#231F20" stroke-miterlimit="10" d="M771.5,145c-15.3,62.4-57.7,93.7-57.7,93.7s-14.4,12.1-40.7,15.6
	c-0.8,0.1-1.6,0.2-2.4,0.3c-2-0.5-3.9-1.1-5.5-1.8c88.9-26.7,92.8-149,92.8-149s-13.3,33.7-14.7,36.8c-0.6,1.3-0.7-4.3-0.6-11.3v0
	c5.9-15.1,10.2-42.3,9.6-58.9v0c3.2-8.5,2.8-17.4,2.1-23.2c3.4,1.2,6.3,2.9,8.4,4.8C771.1,59.8,786.8,82.7,771.5,145z"/>
<path fill="#FFFFFF" stroke="#231F20" stroke-miterlimit="10" d="M855.7,225.2c-14.5,14-36.4,33.5-45.9,51.6
	c-2.8,5.3-7.4,9.8-12.6,13.5c0,0,0,0,0,0c-4.7,1.7-9.4,3.1-14,4.1c-27.2,5.9-58.6,0-74.1-3.8c-1.8-7.8-4.6-15-5.8-17.8
	c7.7-7.9,9.8-20.1,10.2-27.5c0,0,0,0,0,0c0.6-1.6,1.2-3.2,1.8-4.9c7,6.4,35.3,29.8,67.1,23.4c17.9-3.6,37.1-13.9,53.1-27.5
	c0,0,0,0,0,0c14.3-9.1,40.3-31.2,43.4-72.6C882.3,182.5,870.2,211.2,855.7,225.2z"/>
<path fill="#FFFFFF" stroke="#231F20" stroke-miterlimit="10" d="M876.3,221.7c-13.4,27.5-45.7,56.3-79,68.6
	c5.2-3.7,9.8-8.2,12.6-13.5c9.5-18.1,31.4-37.5,45.9-51.6c14.5-14,26.6-42.8,23.3-61.5c-3.1,41.4-29,63.4-43.4,72.6
	c16.9-14.3,30.4-32.1,34.9-49.5c5.4-20.4,0.7-41.4-15.2-52.7c-1-4.4-1.8-8.7-2.5-12.5c7.3,2.3,14.3,6.4,19.9,12.8
	C890.9,155,891.6,190.3,876.3,221.7z"/>
<path fill="#FFFFFF" stroke="#231F20" stroke-miterlimit="10" d="M855.3,134c-10.5-7.5-26-10.8-46.8-6.8c9.4-7.2,27.8-10.9,44.3-5.7
	C853.5,125.3,854.3,129.6,855.3,134z"/>
<path fill="none" stroke="#231F20" stroke-miterlimit="10" d="M754.2,47.2L754.2,47.2c-10.6-3.6-25.1-1.8-28.3,17.6
	c4.2-3.1,16.4-15,23.2-7.7c1.8,2,2.8,6.8,3,13.3"/>
<line fill="none" stroke="#231F20" stroke-miterlimit="10" x1="752.1" y1="70.4" x2="752.1" y2="70.4"/>
<path fill="#FFFFFF" stroke="#231F20" stroke-miterlimit="10" d="M575.8,195.5C563.5,217,549.6,248,550,258c0.1,1.7,0.3,3.5,0.7,5.2
	c1.7,8.3,6.3,15.8,7.2,14.8c1.1-1.2,1.1-21.4,2-22.1c0.9-0.7,13-23.2,13.4-23.9c-0.2,0.7-7,27.4,10.2,84.6
	c-5.3,10.7-13.4,28.9-12.5,33.3c0.9,4.5,3.2,8.2,5.4,7c0.8-0.5,3.8-5.6,7.2-11.9c5.1-9.6,11.1-22.1,11.9-25.5
	c1.2-5.7-10.5-32.2-10.2-32.8c-13.2-49.6-3.9-79.5,4-96.5c-4.6,11.6-1.1,34.1-1.1,34.1l13-15.3c0,0,5.5,14.8,5.3,14.3
	c-0.2-0.5-3.7-21.9-7-39.4c-2.7-14.8,10.9-19,15.2-19.9v0c0-12.4,6.4-17.1,7.6-17.9C615,148,587.5,175.1,575.8,195.5z M589.1,190.2
	c0.3-0.7,0.6-1.4,1-2C589.7,188.8,589.4,189.5,589.1,190.2z"/>
<path fill="#FFFFFF" stroke="#231F20" stroke-miterlimit="10" d="M703.4,272.8c1.2,2.8,4,10,5.8,17.8c-1.7-0.4-3.2-0.8-4.4-1.1
	c-5.8,3-9.9,5.2-13.6,10.3c-3.2,4.4-8.7,5.5-13.4,5.5c-1.7,0-3.3-0.2-4.7-0.4c-1.7-0.2-3-0.6-3.6-0.7c-2.2-0.6-3.7-0.1-4.9,0.3
	c8.8-4.4,36.5-27,49.1-59.2C713.2,252.7,711.1,264.9,703.4,272.8z"/>
<path fill="#FFFFFF" stroke="#231F20" stroke-miterlimit="10" d="M697.3,210.3c-5.8,7.1-13.5,13.6-23,15.8
	c-12.6,2.9-17.8-0.8-21.4-5.3c0.8-2.7,1.9-5,2.9-6.6c7.3,4.2,17,5,26.8,1.5c4.5-1.6,9-4.1,13.3-7.5
	C696.7,209.2,697.1,209.9,697.3,210.3z"/>
<path fill="#FFFFFF" stroke="#231F20" stroke-miterlimit="10" d="M655.9,214.3c-1,1.5-2.1,3.8-2.9,6.6c-3.1-3.9-5.1-8.5-9.6-10.2
	c-9.8-3.7-13.2,7.7-11.4,19.8c-9.8-7.3-5.9-16.6-7.1-31c-1.2-14.4-10.3-21.8-10.3-35.5v0c0-12.4,6.4-17.1,7.6-17.9h0
	c0.4-0.1,0.7-0.1,1-0.1c3.9,0.8,4.7,5.3,5.3,8.2c-1.2-0.5-1.8-0.6-1.8-0.6s-28.7,1.4,23.7,56.3C651.9,211.6,653.8,213.1,655.9,214.3
	z"/>
<path fill="#FFFFFF" stroke="#231F20" stroke-miterlimit="10" d="M672.5,267.2c-2.3,5.8-8.9,9.9-10.6,37.7c-0.6-0.1-1-0.5-1.3-1.1
	c-0.9-1.5-1-4.3-1.7-6.9c-0.4-1.8-1.9-5-4.3-8.6c0,0,0,0,0,0c-2.3-3.7-5.5-7.9-9.3-11.7c-0.9-0.9-2.1-2.2-3.5-3.7
	c-10.1-10.9-31.2-34.4-39.6-26.6c-9.6,8.9-16.8,39.9-17.1,40.5c-13.2-49.6-3.9-79.5,4-96.5c-4.6,11.6-1.1,34.1-1.1,34.1l13-15.3
	c0,0,5.5,14.8,5.3,14.3c-0.2-0.5-3.7-21.9-7-39.4c-2.7-14.8,10.9-19,15.2-19.9c0,13.7,9.1,21,10.3,35.5c1.2,14.4-2.7,23.7,7.1,31
	c-1.8-12.1,1.6-23.5,11.4-19.8c4.5,1.7,6.5,6.3,9.6,10.2c-3,9.8-3.2,25.5,12.1,32c1.7,0.7,3.5,1.3,5.5,1.8c0.8-0.1,1.6-0.2,2.4-0.3
	C673.6,257.7,674.1,263.4,672.5,267.2z"/>
<path fill="#FFFFFF" stroke="#231F20" stroke-miterlimit="10" d="M713.7,245.3C713.7,245.3,713.6,245.3,713.7,245.3
	c-12.5,32.3-40.3,54.8-49.1,59.2c0,0,0,0,0,0c-0.9,0.3-1.8,0.6-2.7,0.4c1.7-27.8,8.3-31.9,10.6-37.7c1.6-3.8,1.1-9.5,0.5-12.9
	c26.3-3.5,40.7-15.6,40.7-15.6S713.9,241.4,713.7,245.3z"/>
<path fill="#FFFFFF" stroke="#231F20" stroke-miterlimit="10" d="M673.1,304.9c-2.1,2.2-6.1,4.5-8.8,3.8c-2.8-0.8-2.5-3.5-2.4-3.8
	c0,0,0,0,0,0c-0.6-0.2-1-0.5-1.3-1.1c-1.3,7.4-5.5,23.8-7.4,27.7c-1.8,3.6-9,3.8-13.4-3.4c-4.2-0.8-9,0.1-11.6-6.2
	c-3.1-7.6,6.7-9.6,7.2-9.7c-10.9,7-4.3,12.2-1.8,11.9c1.1-1.1,8.5-0.5,9.1,5.1c-0.9-0.5-1.9-0.8-2.9-1c5,4,12,4.7,12.9,1
	c0.9-3.7,7.9-25.3,7.9-25.3c-0.9-1.5-1-4.3-1.7-6.9c-0.4-1.8-1.9-5-4.3-8.6c0,0,0,0,0,0c-6-5.7-14.4-10.7-18.7-11.8
	c-5.6-1.4-11.2-1.2-13.7-5.4c7.3-1.2,14.8,0.4,19.7,1.8c-10.1-10.9-31.2-34.4-39.6-26.6c-9.6,8.9-16.8,39.9-17.1,40.5
	c-0.4,0.5,11.4,27.1,10.2,32.8c-0.8,3.4-6.7,15.9-11.9,25.5c7.6,25,26.7,29.2,32,25.8c3.6-2.2,23-20.8,36.6-34.2c0,0,0,0,0,0
	c7.2-7.2,12.9-12.9,13.6-14.1c2.1-3.3,0.8-7.4,5.3-11.5c4.3-1,6.1-3.9,6.8-5.6C676.1,305.3,674.5,305.1,673.1,304.9z M643.5,291.4
	c0,0-3.6,0.7-7.7-0.5c-4.1-1.2-6.9-5.4-8.6-9.4C640.4,278.5,643.5,291.4,643.5,291.4z M636,349c0,0-7.2,0.1-11.5-3.1
	c-4.3-3.2-10.2-10-10.3-12.1c0.6,0.3,1.2,0.6,1.8,0.8c5.4,2.2,8.9,1.3,16.2,7.6C640.4,346.4,636,349,636,349z"/>
<path fill="#FFFFFF" stroke="#231F20" stroke-miterlimit="10" d="M654.6,288.2c-6-5.7-14.4-10.7-18.7-11.8
	c-5.6-1.4-11.2-1.2-13.7-5.4c7.3-1.2,14.9,0.4,19.7,1.8c1.4,1.5,2.6,2.8,3.5,3.7C649.1,280.3,652.2,284.5,654.6,288.2z"/>
<path fill="#FFFFFF" stroke="#231F20" stroke-miterlimit="10" d="M652,336.5c-6.5,18-17.9,24.7-24.8,27.8
	c-7.2,3.3-18.1,12.8-20,12.9c-1.9,0.1-3-4-3-4l-14.7,5.5c-3.1-6.7-10.8-22.4-13.4-21.8c0.8-0.5,3.8-5.6,7.2-11.9
	c7.6,25,26.7,29.1,32,25.8C618.9,368.5,638.4,350,652,336.5z"/>
<path fill="#FFFFFF" stroke="#231F20" stroke-miterlimit="10" d="M627.3,281.5c1.7,4,4.5,8.2,8.6,9.4c4.1,1.2,7.7,0.5,7.7,0.5
	S640.4,278.5,627.3,281.5z M633.6,287.9c-1.4,0-2.5-1.1-2.5-2.5c0-1.4,1.1-2.5,2.5-2.5c1.4,0,2.5,1.1,2.5,2.5
	C636,286.8,634.9,287.9,633.6,287.9z"/>
<path fill="#FFFFFF" stroke="#231F20" stroke-miterlimit="10" d="M636,285.4c0,1.4-1.1,2.5-2.5,2.5c-1.4,0-2.5-1.1-2.5-2.5
	c0-1.4,1.1-2.5,2.5-2.5C634.9,283,636,284.1,636,285.4z"/>
<path fill="#FFFFFF" stroke="#231F20" stroke-miterlimit="10" d="M669.5,304.2c-2.2-0.6-3.7-0.1-4.9,0.3c0,0,0,0,0,0
	c-0.9,0.3-1.8,0.6-2.7,0.4c0,0,0,0,0,0c-0.1,0.3-0.5,3.1,2.4,3.8c2.8,0.7,6.7-1.6,8.8-3.8C671.4,304.7,670.1,304.4,669.5,304.2z
	 M666.6,307.9c-1,0-1.8-0.8-1.8-1.8s0.8-1.8,1.8-1.8s1.8,0.8,1.8,1.8S667.6,307.9,666.6,307.9z"/>
<path fill="#FFFFFF" stroke="#231F20" stroke-miterlimit="10" d="M668.4,306.1c0,1-0.8,1.8-1.8,1.8s-1.8-0.8-1.8-1.8
	s0.8-1.8,1.8-1.8S668.4,305.1,668.4,306.1z"/>
<path fill="#FFFFFF" stroke="#231F20" stroke-miterlimit="10" d="M642.7,329.1c-0.9-0.5-1.9-0.8-2.9-1c-4.2-0.8-9,0.1-11.6-6.2
	c-3.1-7.6,6.7-9.6,7.2-9.7c-10.9,7-4.3,12.2-1.8,11.9C634.7,322.9,642.1,323.5,642.7,329.1z"/>
<path fill="#FFFFFF" stroke="#231F20" stroke-miterlimit="10" d="M660.5,303.8c-1.3,7.4-5.5,23.8-7.4,27.7c-1.8,3.6-9,3.8-13.4-3.4
	c5,4,12,4.7,12.9,1C653.6,325.4,660.5,303.8,660.5,303.8z"/>
<path fill="#FFFFFF" stroke="#231F20" stroke-miterlimit="10" d="M636,349c0,0-8.1-5.6-13.9-9.6c-2.4-1.7-4.5-3.4-6.1-4.7
	c5.4,2.2,8.9,1.3,16.2,7.6C640.4,346.4,636,349,636,349z"/>
<path fill="#FFFFFF" stroke="#231F20" stroke-miterlimit="10" d="M636,349c0,0-7.2,0.1-11.5-3.1c-4.3-3.2-10.2-10-10.3-12.1
	c0.6,0.3,1.2,0.6,1.8,0.8c1.6,1.4,3.7,3,6.1,4.7C628,343.5,636,349,636,349z"/>
<path fill="#FFFFFF" stroke="#231F20" stroke-miterlimit="10" d="M583.3,316.7c-17.2-57.3-10.4-83.9-10.2-84.6
	c-0.4,0.7-12.5,23.2-13.4,23.9c-0.9,0.7-0.9,20.9-2,22.1c-0.9,1-5.4-6.5-7.2-14.8c-2.3,1.5-7.3,3.2-18,1.7
	c6.2,2.2,10.6,3.2,12.8,3.6c-3.3-0.4-10.5-0.9-17.3,2c6.2-0.5,17.1,2.2,17.1,2.2s-8.4,3.9-20.5,3.9c1.7,3.2,6.3,3.7,9.8,3.5
	c2-0.3,3.5-0.4,3.9-0.5c-0.5,0.1-2,0.4-3.9,0.5c-6.1,0.8-17.4,2.5-22.6,5.2c6.1,2.7,9.1,7,23.2,3.8c14.1-3.2-3.2,5.3-11.8,6.6
	c-8.5,1.2-19.1-2.9-30.5,1.1c-11,3.8-28.1,22.3-29.3,23.6c1-0.8,10.2-8.5,22.7-12.6c13.2-4.3,27.5-2,29.8-1.8
	c2.2,0.2,12.5-1.7,13.1-1.8c-0.9,0.3-20.9,8.2-26.7,10.4c-5.3,2.1-20.4,13-23.4,15.1c-0.3,0.2-0.4,0.3-0.5,0.4
	c0.4-0.1,7.2-2.3,14.7-4.2h0c7.7-2,16-3.9,18.9-3.4c5.9,1.1,34.9-4.3,58.5,27.5C569.9,345.5,577.9,327.4,583.3,316.7z M545.5,268.6
	c0.9,0.1,1.5,0.2,1.7,0.3C547,268.9,546.5,268.8,545.5,268.6z"/>
<path fill="#FFFFFF" stroke="#231F20" stroke-miterlimit="10" d="M512.4,322.5c-2.9-0.5-11.3,1.4-18.9,3.4h0c-5.2,2.5-12.2,6-18.2,9
	c-4.4,2.2-8.2,4.2-10.2,5.3c-6.9,4-29,20.4-34.5,27.1c-5.5,6.6-20.2,21.4-26.1,27.1c-5.9,5.7-23.4,29.7-24.7,30.7
	c-0.3,0.2-3.5,7.1-8.3,17.8c-3.5,7.7-7.8,17.4-12.5,28c-15.4,34.6-35.1,79.2-43.3,97.3c-14.3,31.4-33.5,103.4-39.2,116.9
	c-5.7,13.5-17.1,41.4-29.9,86.3c-12.8,44.9-9.3,87-13.5,98.4c-4.3,11.4-20,55-16.8,81.3c11.9-2.2,35.4-5.1,57.4,1.7
	c31,9.6,64.2-3.2,90.9,0c20.5,2.5,51.8,3.3,65.2,3.5c-0.1-2.7-0.1-5.7-0.1-8.9c0-24,2.1-58.8,2.8-75.1c1-23.3-3.3-87.9,0-124.7
	c3.3-36.8,3.8-131.4,3.3-150.9c-0.5-19.5,15.2-104.6,16.6-125.7c0.9-13,3.1-43.7,4.7-65.3v0c0.6-8,1.1-14.8,1.4-19
	c-3.7,10.5-7.3,21.7-9.7,29c-4.3,0-4.9-23.9-4.9-23.9s-6.3,22-21.8,79.2c-6.9-34.9,21-99.4,21.8-101.2v0c0,0,0,0,0,0
	c3.2-3.7,5.8-6.4,7.3-7.6c4.7-3.9,15.4-13.5,24.6-20c10.8-14.2,30.4-15.3,51.7-13c22.7,2.4,43.5,20.9,43.5,20.9
	C547.3,318.3,518.2,323.6,512.4,322.5z M324.9,775.6c2.8,52-34.2,96.6-44.2,117.8c-9.7,20.5-18,47.6-18.5,49.4
	c0.5-2.6,11-58.1,26.3-88.4c15.7-31,24.7-41.6,29.9-73.1c5.2-31.4-16.4-77.2,6.4-109.6C328.1,667.2,322,723.5,324.9,775.6z
	 M366.5,611c14.9-29.1,33.2-90.7,35-93.2c0,0,7.7,15.8,0,49.2c-7.7,33.4-37.7,84.2-34.8,104.7C366.7,671.7,351.6,640.2,366.5,611z
	 M403.3,867.5c-0.1,2.2-0.2,3.8-0.4,4.8C402.2,874.7,402.5,872.6,403.3,867.5c0.9-31.5-15.9-175.7,1.7-167.2
	C427.4,711.1,407.5,838.5,403.3,867.5z M425.9,390.6c-3.8,17.6-19.8,83.9-49.7,106.2c1.5-21.4,31.8-77.3,44.8-100.4
	c3.6-6.4,5.8-10.2,5.8-10.2S426.5,387.8,425.9,390.6z"/>
<path fill="#FFFFFF" stroke="#231F20" stroke-miterlimit="10" d="M324.9,775.6c2.8,52-34.2,96.6-44.2,117.8
	c-9.7,20.5-18,47.6-18.5,49.4c0.5-2.6,11-58.1,26.3-88.4c15.7-31,24.7-41.6,29.9-73.1c5.2-31.4-16.4-77.2,6.4-109.6
	C328.1,667.2,322,723.5,324.9,775.6z"/>
<path fill="#FFFFFF" stroke="#231F20" stroke-miterlimit="10" d="M493.4,325.9c-5.2,2.5-12.2,6-18.2,9c-4.4,2.2-8.2,4.2-10.2,5.4
	c-6.9,4-29,20.4-34.5,27.1c-5.5,6.7-20.2,21.4-26.1,27.1c-5.9,5.7-23.4,29.7-24.7,30.6c-0.3,0.2-3.5,7.1-8.3,17.8
	c-3.5,7.7-7.8,17.4-12.5,28c-15.4,34.6-35.1,79.2-43.3,97.3c-14.3,31.4-33.5,103.4-39.2,116.9c-5.7,13.5-17.1,41.3-29.9,86.3
	c-12.8,44.9-9.3,87-13.5,98.4c-4.3,11.4-20,55-16.8,81.3c-4.9,0.9-7.8,1.7-7.8,1.7s-8.5-18.2,5.4-54.5c13.9-36.4,6.4-104.8,31-160.4
	c24.6-55.6,32.1-89.8,42.8-121.9c10.7-32.1,82.9-188.4,85-190s27.1-29.6,28.3-32.1c1.2-2.5,9.3-9.6,13.5-14
	c4.3-4.4,21.2-20.9,35.8-33.2c10.1-8.5,22.4-14.1,29-16.8c-0.3,0.2-0.4,0.3-0.5,0.4C479.1,330.1,485.9,327.9,493.4,325.9z"/>
<path fill="#FFFFFF" stroke="#231F20" stroke-miterlimit="10" d="M559.5,349c-9-1.7-18.5-8.7-40.2-6.9c-20.7,1.7-34.2,12-52.8,36.4
	c0.1-1.7,0.2-3.3,0.4-4.9c5.6-8.4,18.3-26.2,35.1-31.3C524.1,335.5,555.1,340,559.5,349z"/>
<path fill="#FFFFFF" stroke="#231F20" stroke-miterlimit="10" d="M598.2,407.2c-0.3-0.6-11.6-26.7-21.7-39.7
	c-10.2-13.2-24.5-22.5-48-22.6c-22.3-0.2-45,13.7-62.3,37.2c0.1-1.2,0.1-2.3,0.2-3.5c18.6-24.4,32.2-34.7,52.8-36.4
	c21.7-1.8,31.2,5.2,40.2,6.9c-4.4-9.1-35.4-13.5-57.6-6.7c-16.8,5.1-29.5,22.9-35.1,31.3c0.3-3.3,0.6-6.5,1.1-9.4c0,0,0,0,0,0
	c1.1-7.9,2.9-14.5,5.8-19.2c0.6-1,1.3-2,2-2.9c10.8-14.2,30.4-15.3,51.7-13.1c22.7,2.4,43.5,20.9,43.5,20.9c0.9,4.5,3.2,8.2,5.4,7
	c2.7-0.6,10.3,15.2,13.4,21.8c0.8,1.8,1.3,2.9,1.3,2.9s0.5,0.8,1.3,2c1,1.6,2.5,4.1,3.8,6.8v0c1.4,2.8,2.6,5.9,2.8,8.3
	C599,401.9,598.5,404.6,598.2,407.2z"/>
<path fill="#FFFFFF" stroke="#231F20" stroke-miterlimit="10" d="M598.8,415.6c-5.5-8.4-5.5-8.4-5.5-8.4
	c-19.4-51.5-36-59.2-68.1-59.9c-26.8-0.6-51.7,29.9-59.3,39.9c0.1-1.8,0.2-3.5,0.3-5.2v0c17.3-23.5,40-37.4,62.3-37.2
	c23.5,0.2,37.8,9.5,48,22.6c10,13,21.4,39.1,21.7,39.7c0,0,0,0,0,0C597.8,410,597.6,412.7,598.8,415.6z"/>
<path fill="#FFFFFF" stroke="#231F20" stroke-miterlimit="10" d="M574.6,786.5c0,2.8,0.7,8.4,1.3,12.4c-5.5,4.6-11.5,9.9-17.2,12.3
	c-2.4-15.2,1-44.6,6.2-62c4-13.4,4.1-38.6,3.9-52.6c0.9,7,1.5,14.6,4.3,25.7c0.3,1.3,0.7,2.7,1.1,4.2c1,3.6,2.3,7.5,3.9,11.8
	C576.9,752.7,574.6,782.9,574.6,786.5z"/>
<path fill="#FFFFFF" stroke="#231F20" stroke-miterlimit="10" d="M601.3,781.6C601.3,781.6,601.3,781.6,601.3,781.6
	c-1.5,4.9-6.1,7.3-13.4,9.4c-3.4,1-7.5,4.2-11.9,7.9c-0.6-4-1.3-9.6-1.3-12.4c0-3.6,2.3-33.8,3.4-48.2c0,0.1,0,0.1,0.1,0.2
	c3.2,8.8,6.8,15.9,10.1,21.6C594.3,770.5,599.7,776.7,601.3,781.6z"/>
<path fill="#FFFFFF" stroke="#231F20" stroke-miterlimit="10" d="M627.6,603.3c-0.1,0.9-0.3,1.8-0.5,2.9c0,0,0,0,0,0
	c-0.5,2.8-1.2,6.2-2.1,10.2v0c-8,36.4-30,115.2-36.8,143.7c-3.4-5.7-6.9-12.8-10.1-21.6c0-0.1,0-0.1-0.1-0.2
	c-1.6-4.3-2.8-8.2-3.9-11.8c5.6-6.1,20.7-23.8,28.7-47c7-20.1,12-37.7,14.7-54.3c1.2-7.2,1.9-14.2,2.2-21.2c0.1-1.8,0.2-4.1,0.3-6.8
	c0-1.1,0.1-2.2,0.2-3.3c0,0,0,0,0,0c0.4-8.5,0.9-19.7,1.5-31.8c0.5-9.9,1-20.3,1.5-30.4v0c1.2-25.1,2.3-47.4,2.4-51
	c0.2-6.5-12.8-55.2-18-70.7c3.7,7.7,13.7,29.6,19.9,61.5C635,509,631.9,574.8,627.6,603.3z"/>
<path fill="#FFFFFF" stroke="#231F20" stroke-miterlimit="10" d="M598.8,415.6c-1.2-2.9-1-5.5-0.6-8.4c0,0,0,0,0,0
	c0.3-2.6,0.9-5.3,0.6-8.4c-0.2-2.4-1.4-5.5-2.8-8.3c2.1,1.7,4.4,4.1,4.7,7.2C601.5,403.9,596.6,405.4,598.8,415.6z"/>
<path fill="#FFFFFF" stroke="#231F20" stroke-miterlimit="10" d="M625.7,480.7c-0.1,3.6-1.2,25.9-2.4,51v0c-0.5,10-1,20.5-1.5,30.4
	c-0.6,12.1-1.1,23.4-1.5,31.8c0,0,0,0,0,0c-0.1,1.2-0.1,2.3-0.2,3.3c-0.1,2.7-0.2,5-0.3,6.8c-0.3,6.9-1,13.9-2.2,21.2
	c-2.7,16.5-7.8,34.2-14.7,54.3c-8,23.2-23.1,41-28.7,47c-0.4-1.5-0.8-2.8-1.1-4.2c9.6-10.3,24.9-37.4,34.3-65.8
	c3.6-10.7,5.8-23.4,7.3-36.2c1.1-9.2,1.7-18.5,2.1-27c0.1-1.2,0.1-2.4,0.2-3.6c0.5-12,0.5-22.3,0.7-28.5c0-0.7,0.1-1.5,0.1-2.3
	c0.1-1.2,0.1-2.6,0.2-4.1c0.3-7.5,0.9-17.5,1.3-28.2v0c0.8-18.3,1.4-38.7,0.4-52.1c-1.8-23.8-18.7-48.7-20.9-58.9
	c-2.2-10.2,2.7-11.6,2-17.8c-0.4-3.1-2.6-5.6-4.7-7.2v0c-1.3-2.6-2.7-5.1-3.8-6.8c2.7,0.6,7.2,2.1,10.2,5.7c3.7,4.6,2.9,12,3.5,15.9
	c0.1,0.8,0.2,1.4,0.5,1.8c0.2,0.4,0.7,1.4,1.3,2.7c0,0,0,0,0,0C612.9,425.4,625.9,474.1,625.7,480.7z"/>
<path fill="#FFFFFF" stroke="#231F20" stroke-miterlimit="10" d="M582.8,475.1l-3.1,36.7c0,0,21.2,32,38.1,43.1
	c-0.1,1.4-0.1,2.8-0.2,4.1c-12.5-10.9-38-41.1-38-41.1s-0.2,16.4-5.3,21.4c9.4,9.7,32,37.4,42.5,50.5c0,1.2-0.1,2.4-0.2,3.6
	c-15.7-17.6-51.7-49.2-51.7-49.2l-19,12.2c0,0,50.5,37.2,68.6,64.1c-1.5,12.8-3.7,25.5-7.3,36.2c-9.4,28.3-24.8,55.5-34.3,65.8
	c-2.8-11.1-3.4-18.7-4.3-25.7c0,0,0,0,0,0c-0.4-3-0.9-5.8-1.7-8.7c-0.9-3.4-1.8-5.7-2.6-7.5v0c-2.5-5.2-5.2-7.6-10.2-23.3
	c-0.7-2.1-1.4-4.2-2.1-6.3c-3.9-11-9-22.1-14-30.7l0,0c-2.2-3.9-4.4-7.3-6.5-10c-1.5-2-3-3.6-4.3-4.7c0,0,0-0.1,0-0.3
	c0-1.9,2-13.2,3.1-19.2c0,0.1,0.1,0.3,0.1,0.4c1.2-1.7,2.1-3.2,2.8-4.5c0,0.1,0,0.2,0,0.3c4.3-4.8,6-13.1,6-13.1s2.1-5.2,3.3-8.1
	c0.5-1.2,1.1-8.5,1.7-17.8c0.4-5.7,0.7-12.1,1.1-18.3c13.5-18.5,41.1-89.3,46.9-104.4c1,5.7,1.7,11.7,1.1,15.1
	c-1.4,7.5,0,18.8,0,18.8s19.7,47.9,20.9,53.6c2.4-10.7,4.8-22.5,5.5-33.4c1,13.4,0.4,33.8-0.4,52.1
	C606.4,510.1,582.8,475.1,582.8,475.1z"/>
<path fill="#FFFFFF" stroke="#231F20" stroke-miterlimit="10" d="M617.7,558.9c0,0.8,0,1.6-0.1,2.3c-0.2,6.2-0.2,16.5-0.7,28.5
	c-10.5-13-33.1-40.8-42.5-50.5c5.1-5,5.3-21.4,5.3-21.4S605.2,548,617.7,558.9z"/>
<path fill="#FFFFFF" stroke="#231F20" stroke-miterlimit="10" d="M619.2,526.6L619.2,526.6c-0.5,10.7-1,20.8-1.3,28.2
	c-17-11-38.1-43.1-38.1-43.1l3.1-36.7C582.8,475.1,606.4,510.1,619.2,526.6z"/>
<path fill="#FFFFFF" stroke="#231F20" stroke-miterlimit="10" d="M619.7,474.5c-0.7,10.8-3.1,22.7-5.5,33.4
	c-1.2-5.7-20.9-53.6-20.9-53.6s-1.4-11.3,0-18.8c0.6-3.4-0.1-9.4-1.1-15.1c-0.7-3.8-1.4-7.3-2-9.8c1.8-0.7,3.1-3.4,3.1-3.4
	s0,0,5.5,8.4C601,425.8,617.9,450.8,619.7,474.5z"/>
<path fill="#FFFFFF" stroke="#231F20" stroke-miterlimit="10" d="M616.8,593.3c-0.4,8.5-1,17.8-2.1,27
	c-18.1-26.9-68.6-64.1-68.6-64.1l19-12.2C565.1,544.1,601.1,575.8,616.8,593.3z"/>
<path fill="#FFFFFF" stroke="#231F20" stroke-miterlimit="10" d="M635.7,830.2c-1.4,0-15.9-19.5-16.5-20.2
	c0.5,0.9,17.4,33.8,14.4,37.8c-2,2.7-11.4-2.9-18.3-7c-1.2-3.5-3.9-7.7-5.7-10.3c1.5-2.7,1.9-5.8,1-9c-1.2-4.9-1.7-7.7-2.8-9.1
	c0.1-0.1,0.1-0.2,0-0.2c-1-1.4-3.9-9.3-4.3-11.3c-0.4-2-2.9-0.8-2.9-0.8c1.1-2.3-2.5-5.2-2.5-5.2s4.5-3.6,3.6-11.4
	c-0.1-0.6-0.2-1.2-0.4-1.8c0,0,0,0,0,0c-1.6-4.9-6.9-11.1-13-21.5C595,731.6,617,652.7,625,616.4c6.3,37.2-8.8,105.5-0.9,133.7
	c-0.1,7.6-0.4,30.5,1.6,42C628.1,806,637.1,830.2,635.7,830.2z"/>
<path fill="none" stroke="#231F20" stroke-miterlimit="10" d="M625.7,590.2c0,0,0.6,6.3,1.4,15.9"/>
<path fill="#FFFFFF" stroke="#231F20" stroke-miterlimit="10" d="M666.6,947.4h-3c-0.4-2.4-0.8-5.4-1.3-8.9
	c-0.3-2.2-0.7-4.5-1.1-7.1c-5-33.3-14.1-94.3-16.6-114.9c-3.6-28.9-7.5-37.1-18.9-62c-0.6-1.3-1.2-2.8-1.6-4.5
	c-7.8-28.2,7.3-96.5,0.9-133.7v0c0.9-3.9,1.6-7.4,2.1-10.2c1.5,18.9,3.4,50.9,1.8,74.5c-2.5,35.7-7.2,58.6-1.3,70
	c5.9,11.4,13.4,25,16.3,37.8c2.3,10.4,10.6,98,19,142.5c0.4,2.4,0.9,4.7,1.3,6.8C665,941.4,665.8,944.7,666.6,947.4z"/>
<path fill="#FFFFFF" stroke="#231F20" stroke-miterlimit="10" d="M571.5,435c2-7.1,3-13.6,2.9-19.5c0-1.9-0.2-3.8-0.5-5.6
	c-0.5-3.2-1.8-7.3-3.9-11.7l0,0c0,0,0,0,0-0.1c-10.7-30.5-31.6-35.6-49.9-37.1c61.5-14.3,63.6,43.5,66.8,48.1
	c1.1,1.7,2.3,1.9,3.3,1.5c0.6,2.5,1.4,6.1,2,9.8c-5.8,15.1-33.4,85.8-46.9,104.4c0.5-8.4,1-16.5,1.5-21.8c1.4-15.7,1-16.6,12.4-38.5
	C564.7,453.8,568.9,444,571.5,435L571.5,435z"/>
<path fill="#FFFFFF" stroke="#231F20" stroke-miterlimit="10" d="M528.8,491.4c0.5,12.8,9.7,35.9,9.7,35.9s-22.8-23-49.1-31.8
	c0-0.2,0.3-4.6,0.8-11c8.1-0.4,23.4-2.2,34.7-9.9c16.2-10.9,15.2-24.7,14.3-31.6c-1-6.9,5.9-18.8,14.7-9c0,0-0.7-13.2-9.3-18.3
	c-1.7-1-3.7-1.9-5.9-2.6c-8.3-2.5-20.1-1.9-32.3,8.6c3.4-5.1,7.3-9.4,10.1-12.3c4.5-2.4,9.4-4.2,14.2-4.9
	c16.9,2.3,29.1,16.4,31.3,35.2C563,440.8,536.8,479.5,528.8,491.4z"/>
<path fill="#FFFFFF" stroke="#231F20" stroke-miterlimit="10" d="M532.3,454c-0.5,8.1-9.2,16.3-27.2,23.7
	c6.6-4.7,14.5-12.8,15.4-18.1c1.3-7.6-9-15.2-6.7-23.3c1.5-5.2,5.7-7.4,8.5-8.4c0,0.1,0,0.3-0.1,0.4c-1.5,8.6,3.9,11.2,8.8,12
	C531.6,444.6,532.6,449.3,532.3,454z"/>
<path fill="#FFFFFF" stroke="#231F20" stroke-miterlimit="10" d="M553.9,433.9c-1.9-8.8-10.5-13.8-18.8-7.6c-4.7,3.5-4.8,8.4-4.1,14
	c-4.8-0.7-10.2-3.4-8.8-12c0-0.1,0-0.3,0.1-0.4c2.1-10.5,11.3-13.8,16.3-14.9c2.2,0.7,4.2,1.6,5.9,2.6
	C553.2,420.7,553.9,433.9,553.9,433.9z"/>
<path fill="#FFFFFF" stroke="#231F20" stroke-miterlimit="10" d="M538.7,413c-5,1.1-14.3,4.5-16.3,14.9c-2.8,1-7,3.2-8.5,8.4
	c-2.4,8.1,8,15.7,6.7,23.3c-0.9,5.3-8.8,13.4-15.4,18.1c-1.5,0.6-3,1.2-4.6,1.8c-0.7-0.6-1.6-1.4-2.6-2.5c-2.5-2.5-1-22,0-23
	c0.9-1,4.5-1.4,4.5-1.4s-6.2-11.2,0-24c1.2-2.5,2.6-4.8,4.1-7C518.6,411,530.4,410.4,538.7,413z"/>
<path fill="#FFFFFF" stroke="#231F20" stroke-miterlimit="10" d="M516.5,409.2c-2.8,2.9-6.7,7.2-10.1,12.3c-1.5,2.2-2.9,4.6-4.1,7
	c-6.2,12.8,0,24,0,24s-3.6,0.4-4.5,1.4c-1,1-2.5,20.5,0,23c1,1,1.9,1.9,2.6,2.5c-3.1,1.2-6.5,2.3-10.1,3.4
	c1.6-19.6,4.8-55.4,7.5-59.3C500.1,420.4,507.6,413.9,516.5,409.2z"/>
<path fill="#FFFFFF" stroke="#231F20" stroke-miterlimit="10" d="M566.1,439c-1.3,0.5-2.6,0.8-4.1,0.6
	c-2.3-18.8-14.4-32.9-31.3-35.2c-2.5-0.3-5.2-0.4-7.9-0.2c-12.6,1-22.5,8.5-28.3,14.3c-3.8,3.8-5.9,6.8-5.9,6.8l-23-27.4v0
	c0-0.8,0.1-1.6,0.1-2.4c0,0,0,0,0,0c1.3-1.4,2.8-2.9,4.3-4.5c1.7,3.3,5.7,10.7,9.7,14.3c5.2,4.8,8.3,12.6,14.7,5.9
	c5.5-5.7,15-16.9,32.4-15.6c3.1,0.2,6.5,0.9,10.1,2C559.6,404.9,565,422.8,566.1,439z"/>
<path fill="#FFFFFF" stroke="#231F20" stroke-miterlimit="10" d="M571.5,435c-2.6,9-6.8,18.8-12.3,29.5
	c-11.4,21.9-10.9,22.8-12.4,38.5c-0.5,5.3-1,13.4-1.5,21.8c-0.4,6.2-0.8,12.7-1.1,18.3c-27.8-37.5-57.5-42-57.5-42l0.6-6.4l1-10.3
	l0.1-1.1l6.1-64.9c5.8-5.8,15.7-13.3,28.3-14.3c2.7-0.2,5.4-0.1,7.9,0.2c-4.7,0.7-9.6,2.5-14.2,4.9c-8.9,4.6-16.4,11.1-18.7,14.3
	c-2.8,3.9-6,39.7-7.5,59.3c0,0.5-0.1,1.1-0.1,1.6c-0.5,6.5-0.8,10.8-0.8,11c26.4,8.9,49.1,31.8,49.1,31.8s-9.3-23-9.7-35.9
	c8.1-11.9,34.2-50.6,33.3-51.8c1.5,0.2,2.8-0.1,4.1-0.6C568.2,438.2,570,436.6,571.5,435z"/>
<path fill="#FFFFFF" stroke="#231F20" stroke-miterlimit="10" d="M544.2,543.2c-0.6,9.3-1.2,16.7-1.7,17.8c-1.2,2.8-3.3,8.1-3.3,8.1
	s-1.7,8.3-6,13.1c0-0.1,0-0.2,0-0.3v0c1.6-3,1.9-4.6,1.9-4.6l-1.5,1.8c1.7-12.4,3.3-20.4-15.6-35.4c-12.1-9.6-29-8.9-43.7,0.3
	c0,0,0,0,0,0c-8.7,5.5-16.7,14-22.3,25.1c4.5-54,9.5-110.5,11.4-129.7c1.3-13.2,1.6-27.6,2-41.5l23,27.4c0,0,2.1-3.1,5.9-6.8
	l-6.1,64.9l-0.1,1.1l-1,10.3l-0.6,6.4C486.7,501.1,516.4,505.7,544.2,543.2z"/>
<path fill="#FFFFFF" stroke="#231F20" stroke-miterlimit="10" d="M553.9,433.9c-8.8-9.7-15.7,2.1-14.7,9c1,6.9,1.9,20.7-14.3,31.6
	c-11.3,7.7-26.6,9.5-34.7,9.9c0-0.5,0.1-1,0.1-1.6c3.6-1.1,7-2.2,10.1-3.4c1.6-0.6,3.2-1.2,4.6-1.8c18-7.3,26.7-15.5,27.2-23.7
	c0.3-4.7-0.7-9.4-1.2-13.8c-0.7-5.6-0.6-10.5,4.1-14C543.5,420.1,552,425.1,553.9,433.9z"/>
<path fill="#FFFFFF" stroke="#231F20" stroke-miterlimit="10" d="M533.7,579L533.7,579l-2.6,3.1c0,0-0.3,1.5-0.7,3.8
	c-8-24.9-42.7-37.8-56-42c14.7-9.2,31.6-9.9,43.7-0.3C537,558.6,535.3,566.6,533.7,579z"/>
<path fill="#FFFFFF" stroke="#231F20" stroke-miterlimit="10" d="M531.6,610c-6.8-5.2-17.8-11.4-32.1-11.4
	c-20.7,0-38.9,21.3-40,55.2c-0.2-1.3-0.4-2.6-0.5-3.8c-2.5-26.5,6.1-48.8,31.2-57.4c23.6-8,36,10.2,37,12.6c0,0.2,0,0.3,0,0.3
	C528.7,606.5,530.1,608,531.6,610z"/>
<path fill="#FFFFFF" stroke="#231F20" stroke-miterlimit="10" d="M538.1,620c-6.7-4.9-24.1-14.9-41.8-4.3
	c-20.2,12.1-29.9,28.8-30.1,59.2c-3-6.8-5.5-14-6.7-21c0,0,0,0,0,0c0,0,0,0,0,0c0,0,0,0,0,0c1-33.9,19.3-55.2,40-55.2
	c14.3,0,25.3,6.3,32.1,11.4C533.7,612.7,535.9,616.1,538.1,620z"/>
<path fill="#FFFFFF" stroke="#231F20" stroke-miterlimit="10" d="M538.1,620L538.1,620c-6.7-4.9-24.1-14.9-41.8-4.3
	c-20.2,12.1-29.9,28.8-30.1,59.2c0,0,0,0,0,0c0,0,0,0,0,0v0c6.2,13.8,14.8,25.9,19.8,31.4c1.5-16.1,6.6-47.1,23.4-56.9
	c19.7-11.4,34-6.5,42.6,1.4C548.2,639.8,543.1,628.7,538.1,620z M483.8,697.9c-9.1-11.4-13.7-29.6-13.7-29.6
	c2.1-23,15.3-34.8,15.3-34.8S486.5,675.9,483.8,697.9z"/>
<path fill="#FFFFFF" stroke="#231F20" stroke-miterlimit="10" d="M483.8,697.9c-9.1-11.4-13.7-29.6-13.7-29.6
	c2.1-23,15.3-34.8,15.3-34.8S486.5,675.9,483.8,697.9z"/>
<path fill="#FFFFFF" stroke="#231F20" stroke-miterlimit="10" d="M564.4,680.3L564.4,680.3c-1,6.3-4.1,21.6-12.2,39.4
	c-9.9,21.8-19,45.6-16.5,81.5c-0.7-0.9-1.3-1.7-2-2.6c0,0,0,0,0,0c-4-9.5-9.1-24.7-14.5-31.2c-2.1-2.5-4.7-8.2-7.2-14.9
	c-2.6-6.6-5.2-14.1-7.3-20.1v0c-1.9-5.5-3.4-9.7-4.1-10.9c-2.2-3.6-6.5-9.8-11.3-12.3c-0.7-0.4-1.9-1.4-3.3-2.9c0,0,0,0,0,0
	c1.5-16.1,6.6-47.1,23.4-56.9c19.7-11.4,34-6.5,42.6,1.4c0.8,2.1,1.5,4.2,2.1,6.3C559.2,672.8,562,675.1,564.4,680.3z"/>
<path fill="#FFFFFF" stroke="#231F20" stroke-miterlimit="10" d="M564.9,749.2c-5.2,17.4-8.6,46.8-6.2,62c-3,1.3-5.9,1.7-8.6,0.9
	c-5.6-1.6-10.5-6.2-14.3-11c-2.5-35.9,6.6-59.7,16.5-81.5c8.1-17.8,11.2-33.1,12.2-39.4c0.9,1.9,1.7,4.2,2.6,7.5
	c0.8,2.9,1.3,5.8,1.7,8.7c0,0,0,0,0,0C569,710.6,568.9,735.8,564.9,749.2z"/>
<path fill="#FFFFFF" stroke="#231F20" stroke-miterlimit="10" d="M600.6,800c-0.3,0.6-2.4,2-5.6,3.9c-10,5.7-30.1,15.2-37.1,15
	c-4.3-0.1-8.6-1.9-12.4-4.7c-3.9-2.8-7.2-6.7-9.4-10.9c-0.1-0.7-0.1-1.4-0.2-2.1c3.8,4.8,8.8,9.3,14.3,11c2.7,0.8,5.6,0.3,8.6-0.9
	c5.7-2.4,11.7-7.7,17.2-12.3c4.4-3.7,8.5-6.9,11.9-7.9c7.3-2.1,11.9-4.5,13.4-9.4c0.2,0.6,0.3,1.2,0.4,1.8
	c0.9,7.8-3.6,11.4-3.6,11.4S601.6,797.7,600.6,800z"/>
<path fill="#FFFFFF" stroke="#231F20" stroke-miterlimit="10" d="M586.3,815.4c-1.4,1.6-2.4,2.6-2.4,2.6s0.4-0.1,1.2-0.2
	c-4.2,3.9-11.8,10.6-14.2,10.8c-3.1,0.2-11.9,0.3-14.9,0.1c-0.4,0-0.6,0-0.8-0.1c-1-0.2-5.8-0.8-8.5-4.4c-1.6-2.1-2.5-5.2-1.3-10
	c3.8,2.8,8.1,4.6,12.4,4.7c7,0.1,27.2-9.4,37.1-15C593,807.6,588.9,812.5,586.3,815.4z"/>
<path fill="#FFFFFF" stroke="#231F20" stroke-miterlimit="10" d="M607.8,812.3c-1.3,1.4-18.1,4.6-22.8,5.5c-0.8,0.1-1.2,0.2-1.2,0.2
	s1-1,2.4-2.6c2.7-2.9,6.8-7.8,8.7-11.5c3.2-1.8,5.4-3.3,5.6-3.9c0,0,2.5-1.2,2.9,0.8c0.4,2,3.3,9.9,4.3,11.3
	C607.9,812.1,607.9,812.2,607.8,812.3z"/>
<path fill="#FFFFFF" stroke="#231F20" stroke-miterlimit="10" d="M609.6,830.5c-1.7,3-4.9,5.6-9.7,7.7c-9,3.9-30.3-0.7-38.1-2.5
	c-1.6-0.4-2.8-0.9-3.6-1.6c-2.1-1.6-2.3-3.9-2.2-5.4c3,0.2,11.8,0.1,14.9-0.1c2.5-0.2,10.1-6.9,14.2-10.8c4.7-0.9,21.5-4.1,22.8-5.5
	c1.1,1.4,1.6,4.3,2.8,9.1C611.5,824.7,611.1,827.8,609.6,830.5z"/>
<path fill="#FFFFFF" stroke="#231F20" stroke-miterlimit="10" d="M615.8,843.7c0-0.9-0.2-1.8-0.6-2.9c-1.2-3.5-3.9-7.7-5.7-10.3
	c-1.7,3-4.9,5.6-9.7,7.7c-9,3.9-30.3-0.7-38.1-2.5c-1.6-0.4-2.8-0.9-3.6-1.6c0.3,6.2,1,20.7-0.2,23.5c-0.4,1-0.6,2.8-0.6,4.9v0
	c-0.1,4.9,0.5,11.4-0.2,12.8c-1.1,1.9,2.3,6.9,6.5,5.3c4.2-1.5,8.6-18.8,9.5-18.8c0.9,0-8.4,26,2.2,27c8.7,0.8,12.3-15.7,13.5-22.5
	c-1.2,7.8-3.9,28.5,1.5,27.1c6.8-1.8,8.6-7.2,10-13.4c1.1-4.8,2.3-13.9,2.7-17.7c-0.6,5.5-1.9,22.7,4.9,21.5c3-0.5,4.9-5.6,6-12
	c0.5-2.8,0.8-5.8,1.1-8.9C615.9,854.4,615.8,846.1,615.8,843.7z M589.1,865.4c0-0.3,0.1-0.6,0.1-0.9
	C589.2,864.8,589.2,865.1,589.1,865.4z"/>
<path fill="#FFFFFF" stroke="#231F20" stroke-miterlimit="10" d="M619.1,869.4c-0.4,1.2-3,1.9-5,2.4c0.5-2.8,0.8-5.8,1.1-8.9
	C616.9,864.7,619.6,868,619.1,869.4z"/>
<path fill="#FFFFFF" stroke="#231F20" stroke-miterlimit="10" d="M661.2,931.4c-8.4,2.5-21.7,5.5-37.2,5.5
	c-22.7,0-73-24.8-86.6-31.7c7.5-16.1,14.9-32,20-42.8c-0.1,5,0.5,11.4-0.2,12.8c-1.1,1.9,2.3,6.9,6.5,5.3c4.2-1.5,8.6-18.8,9.5-18.8
	c0.9,0-8.4,26,2.2,27c8.7,0.8,12.3-15.6,13.5-22.5c-1.2,7.8-3.9,28.5,1.5,27.1c6.8-1.8,8.6-7.2,10-13.4c1.1-4.8,2.3-13.9,2.7-17.7
	c-0.6,5.5-1.9,22.7,4.9,21.5c3-0.5,4.9-5.6,6-12c2-0.4,4.5-1.2,5-2.4c0.5-1.4-2.2-4.7-3.9-6.5c0.7-8.5,0.6-16.8,0.6-19.2
	c0-0.8-0.2-1.8-0.6-2.9c6.9,4,16.3,9.6,18.3,7c3.1-4-13.9-36.8-14.4-37.8c0.6,0.7,15.1,20.2,16.5,20.2c1.4,0-7.6-24.2-10-38.1
	c-2-11.5-1.7-34.4-1.6-42c0.4,1.6,1,3.1,1.6,4.5c11.4,25,15.3,33.2,18.9,62C647.1,837.1,656.2,898.1,661.2,931.4z"/>
<path fill="#FFFFFF" stroke="#231F20" stroke-miterlimit="10" d="M663.6,947.4H517.9c4.9-10.7,11.4-24.8,18.1-39.1
	c10.8,5.7,63.1,32.6,91.2,34.3c16.9,1,28.3-1.5,35.1-4.1C662.8,942,663.2,945,663.6,947.4z"/>
<path fill="#FFFFFF" stroke="#231F20" stroke-miterlimit="10" d="M662.2,938.5c-6.8,2.6-18.2,5.2-35.1,4.1
	c-28-1.7-80.3-28.6-91.2-34.3c0.5-1,0.9-2.1,1.4-3.1c13.6,6.9,63.9,31.7,86.6,31.7c15.4,0,28.8-3,37.2-5.5
	C661.6,933.9,661.9,936.3,662.2,938.5z"/>
<path fill="#FFFFFF" stroke="#231F20" stroke-miterlimit="10" d="M558,857.5c-0.4,1-0.6,2.8-0.6,4.9v0c-5,10.8-12.5,26.6-20,42.8
	c-0.5,1-1,2.1-1.4,3.1c-6.6,14.2-13.2,28.4-18.1,39.1h-11.2c10.3-21.2,42.8-87.9,45.5-92c-10.4-18.7-7.6-27.9-5.6-31.2
	c2.7,3.5,7.5,4.2,8.5,4.4c0.2,0,0.4,0.1,0.8,0.1c-0.1,1.5,0.2,3.8,2.2,5.4C558.5,840.3,559.1,854.8,558,857.5z"/>
<path fill="#FFFFFF" stroke="#231F20" stroke-miterlimit="10" d="M552.3,855.4c-2.7,4-35.2,70.8-45.5,92h-39.9
	c11.8-43.6,38.9-166,45.2-194.9c2.6,6.6,5.2,12.4,7.2,14.9c5.4,6.5,10.5,21.7,14.5,31.2c0,0,0,0,0,0c0.5,1.1,0.9,2.2,1.4,3.2
	c0.2,0.5,0.5,1,0.8,1.5c2.2,4.2,5.6,8.1,9.4,10.9c-1.2,4.7-0.3,7.8,1.3,10C544.7,827.5,541.9,836.7,552.3,855.4z"/>
<path fill="#FFFFFF" stroke="#231F20" stroke-miterlimit="10" d="M512.1,752.5c-6.4,28.9-33.4,151.2-45.2,194.9h-6.4l44.3-214.9
	C506.9,738.4,509.5,745.9,512.1,752.5z"/>
<path fill="#FFFFFF" stroke="#231F20" stroke-miterlimit="10" d="M504.8,732.4L504.8,732.4l-44.3,215h-24.2
	c0.5-24.9,2.4-94.3,7.4-114.1c6.2-24.2-2.4-115.5,0.5-161.6c0.8-12.3,2.2-32,4.1-55c2.5,9,8.3,29,10.8,33.2c0.1,1.3,0.3,2.5,0.5,3.8
	c0,0,0,0,0,0c0,0,0,0,0,0c0,0,0,0,0,0c1.2,7,3.6,14.3,6.7,21c0,0,0,0,0,0c0,0,0,0,0,0v0c6.2,13.8,14.8,25.9,19.8,31.4c0,0,0,0,0,0
	c1.4,1.5,2.6,2.5,3.3,2.9c4.8,2.5,9.1,8.7,11.3,12.3C501.4,722.7,502.9,726.9,504.8,732.4z"/>
<path fill="#FFFFFF" stroke="#231F20" stroke-miterlimit="10" d="M425.9,390.6c-3.8,17.6-19.8,83.9-49.7,106.2
	c1.5-21.4,31.8-77.3,44.8-100.4C422.6,394.5,424.3,392.6,425.9,390.6z"/>
<path fill="#FFFFFF" stroke="#231F20" stroke-miterlimit="10" d="M475.6,342.1c-0.7,0.9-1.4,1.9-2,2.9c-2.8,4.7-4.6,11.3-5.8,19.2
	c0,0,0,0,0,0c-2.9,4.7-6.3,13.3-9.5,22.4c-3.7,10.5-7.3,21.7-9.7,28.9c-4.3,0-4.9-23.9-4.9-23.9s-6.3,22-21.8,79.2
	c-6.9-34.9,21-99.4,21.8-101.2v0c0,0,0,0,0,0c3.2-3.6,5.8-6.4,7.3-7.6C455.7,358.2,466.5,348.6,475.6,342.1z"/>
<path fill="#FFFFFF" stroke="#231F20" stroke-miterlimit="10" d="M593.3,407.2c0,0-1.3,2.7-3.1,3.4c-1,0.4-2.2,0.2-3.3-1.5
	c-3.2-4.6-5.2-62.4-66.8-48.1c18.3,1.5,39.2,6.6,49.9,37.1c-4.3-9.2-12-19.8-23.2-26.8c-7.3-4.6-16.2-7.6-26.5-7.6
	c-18.9,0-37.6,14.5-50.3,27.3c-1.5,1.5-2.9,3-4.3,4.5c0.1-2.8,0.2-5.5,0.3-8.2c7.5-10.1,32.5-40.5,59.3-39.9
	C557.3,348,573.8,355.7,593.3,407.2z"/>
<path fill="#FFFFFF" stroke="#231F20" stroke-miterlimit="10" d="M526.7,395.7c-17.4-1.3-27,9.9-32.4,15.6
	c-6.4,6.6-9.5-1.2-14.7-5.9c-4-3.7-8-11.1-9.7-14.3c12.7-12.7,31.4-27.3,50.3-27.3c10.4,0,19.2,3,26.5,7.6
	c-5.4-0.5-16.5-0.6-24.7,5.9C514.6,383.2,521.3,391.2,526.7,395.7z"/>
<path fill="#FFFFFF" stroke="#231F20" stroke-miterlimit="10" d="M571.5,435L571.5,435c-1.5,1.6-3.3,3.2-5.4,4
	c-1.1-16.2-6.6-34-29.3-41.2c-3.6-1.2-7-1.8-10.1-2c-5.5-4.5-12.1-12.5-4.6-18.5c8.2-6.5,19.3-6.4,24.7-5.9
	c11.2,7,18.9,17.6,23.2,26.8c0,0,0,0,0,0.1l0,0c1.8,5,3.3,10.8,4.4,17.3C574.6,421.4,573.6,427.9,571.5,435z"/>
<path fill="#FFFFFF" stroke="#231F20" stroke-miterlimit="10" d="M530.4,585.9c-1.1,6-3.1,17.4-3.1,19.2c-1-2.4-13.4-20.6-37-12.6
	c-25.1,8.6-33.7,30.8-31.2,57.4c-2.5-4.2-8.3-24.2-10.8-33.2c0-0.1,0-0.3,0-0.5v0c1.2-14.8,2.5-30.8,3.8-47.2v0
	c5.6-11.2,13.5-19.7,22.3-25.1c0,0,0,0,0,0C487.7,548.1,522.4,561,530.4,585.9z"/>
<path fill="#FFFFFF" stroke="#231F20" stroke-miterlimit="10" d="M401.5,567.1c-7.7,33.4-37.7,84.2-34.8,104.7
	c0,0-15.1-31.6-0.2-60.7c14.9-29.1,33.2-90.7,35-93.2C401.5,517.9,409.2,533.7,401.5,567.1z"/>
<path fill="#FFFFFF" stroke="#231F20" stroke-miterlimit="10" d="M403.3,867.4c0.9-31.5-15.9-175.7,1.7-167.2
	C427.4,711.1,407.5,838.5,403.3,867.4z"/>
<path fill="#FFFFFF" stroke="#231F20" stroke-miterlimit="10" d="M467.9,364.2c-0.5,3-0.8,6.1-1.1,9.4c-0.1,1.6-0.3,3.2-0.4,4.9
	c-0.1,1.1-0.2,2.3-0.2,3.5v0c-0.1,1.7-0.2,3.5-0.3,5.2c-0.1,2.7-0.2,5.5-0.3,8.2c0,0,0,0,0,0c-0.4,0.4-0.7,0.8-1.1,1.2l1,1.2v0
	c-0.4,13.8-0.7,28.3-2,41.5c-1.9,19.2-6.9,75.8-11.4,129.7v0c-1.4,16.3-2.7,32.4-3.8,47.2v0c0,0.2,0,0.3,0,0.5
	c-1.8,23-3.3,42.8-4.1,55c-2.9,46.1,5.7,137.3-0.5,161.6c-5,19.8-6.9,89.2-7.4,114.1h-6.8c0-24.1,2.1-58.9,2.8-75.1
	c1-23.3-3.3-87.9,0-124.7c3.3-36.8,3.8-131.4,3.3-150.9c-0.5-19.5,15.2-104.5,16.6-125.7c0.9-13.1,3.1-43.7,4.7-65.4v0
	c0.6-8,1.1-14.8,1.4-19C461.6,377.5,465,369,467.9,364.2z"/>
</svg>
