<?xml version="1.0" encoding="utf-8"?>
<!-- Generator: Adobe Illustrator 23.0.5, SVG Export Plug-In . SVG Version: 6.00 Build 0)  -->
<svg version="1.1" baseProfile="tiny" id="Layer_1" xmlns="http://www.w3.org/2000/svg" xmlns:xlink="http://www.w3.org/1999/xlink"
	 x="0px" y="0px" viewBox="0 0 1000 1000" xml:space="preserve">
<path fill="#FFFFFF" stroke="#231F20" stroke-miterlimit="10" d="M69.6,649.5c13.7-14.1,63.1-18.2,71.6-13.9s36.4,5.3,62,11.8
	s125.1,7.5,141.1,7.5c16,0,5.3-18.2,48.1,2.1s120.8,18.2,190.3,18.2s49.2-4.3,104.8,2.1c55.6,6.4,78.1,2.1,112.3,2.1
	s108,2.1,131.5,21.4c23.5,19.2-27.8,54.5-39.6,73.8c-11.8,19.2-11.8,54.5-113.3,37.4C677,795,660.9,788.6,567.9,787.5
	c-93-1.1-257.7,11.8-332.6-5.3c-74.9-17.1-116.6,1.1-134.7-26.7C82.4,727.6,34.3,685.9,69.6,649.5z"/>
<path fill="#FFFFFF" stroke="#231F20" stroke-miterlimit="10" d="M612.5,663.9l12-16.7c-6.9,10.5-13.9,19.7-20.9,27.8
	c-2.7,3.2-5.5,6.2-8.2,9c-18.6,19.3-37,30.9-54,37.4c-0.2-0.1-0.4-0.2-0.5-0.2c1.4-1.1,2.8-2.2,4.2-3.4c0.6-0.5,1.2-1,1.8-1.5
	c1.9-1.6,3.8-3.2,5.6-4.9c0.3-0.3,0.7-0.6,1-0.9c0.7-0.7,1.5-1.4,2.2-2c0.7-0.7,1.4-1.4,2.1-2.1c0.5-0.5,1-1,1.5-1.5
	c1-1,2-2.1,3-3.1c0.6-0.6,1.1-1.2,1.7-1.8c1.4-1.5,2.7-3,4-4.5c0.6-0.7,1.2-1.4,1.7-2.1c0.4-0.5,0.9-1.1,1.3-1.6
	c3.3-4.2,6.3-8.4,8.9-12.6c0.2-0.4,0.4-0.7,0.6-1.1c0.6-1,1.2-1.9,1.7-2.9c0.4-0.6,0.7-1.2,1-1.9c0.4-0.7,0.8-1.4,1.2-2.2
	c0.3-0.5,0.5-1,0.8-1.6c0.3-0.6,0.6-1.1,0.8-1.7c0.3-0.7,0.7-1.4,1-2c0.3-0.6,0.6-1.2,0.8-1.9c0.8-1.8,1.6-3.7,2.3-5.6
	c0.2-0.6,0.5-1.2,0.7-1.8c0.2-0.7,0.5-1.3,0.7-2c0.2-0.6,0.4-1.2,0.6-1.7c0,0,0,0,0,0c0.2-0.5,0.3-1,0.5-1.5
	c0.2-0.7,0.4-1.4,0.6-2.1c0.5-1.8,1-3.5,1.4-5.3c0.2-0.7,0.3-1.4,0.5-2.2c0.1-0.6,0.3-1.1,0.4-1.7c0.4-1.8,0.7-3.6,1-5.4
	c0-0.1,0-0.3,0.1-0.4c0.2-1.6,0.4-3.2,0.6-4.8c0-0.1,0-0.1,0-0.2c0.1-1.2,0.2-2.4,0.3-3.6c0-0.6,0.1-1.2,0.1-1.8
	c0-0.6,0.1-1.2,0.1-1.8c0.1-1.7,0.1-3.3,0.1-5c0-11.5-1.5-22.5-4-32.7c-0.8-3.4-1.7-6.7-2.7-9.9c-1.4-4.8-3-9.4-4.6-13.7
	c-0.6-1.4-1.1-2.9-1.7-4.3c-2.2-5.6-4.5-10.7-6.5-15.2c-17.8-39.2-95.1-78.4-137.8-13.3c-14.5,22-21.1,42.8-23,61.3
	c-9.1-3.4-15.9-7.2-20.8-11.1c5.6-19.9,3.3-50.1,9.1-66.9c7.5-21.7,18.1-29.9,23.3-43.3c5.2-13.3,11.9-34.2-27.1-59.9
	c-39-25.7-58.9-9.5-73.7,1.4c-4.9,3.6-9.6,9.1-13.4,15.4l-0.4-0.2c0.5-1.7,16.6-24.2,17.1-27.6c0.5-3.3,6.4-15,11.2-17.6
	c4.8-2.6,10.5-2.9,15.2,5.7c0.5-3.1-0.5-19.3-0.5-19.3l15.2,15.7c0,0,0.1-1.8,0-4.7c0-0.3,0-0.5,0-0.8c0-0.3,0-0.6,0-0.9
	c0-1.2-0.1-2.6-0.3-4c0-0.4-0.1-0.8-0.1-1.2c-0.2-2.3-0.6-4.8-1.1-7.5c-0.1-0.4-0.2-0.9-0.3-1.3c0-0.2-0.1-0.5-0.2-0.7l1.3,4.7
	c2.5,1.6,63.7,38.2,110.9,48.7c5.4,1.2,10.8,2.3,16.1,3.5c42.4,8.8,82.4,17.2,112.2,56.8C643.8,517.9,641.7,602.2,612.5,663.9z"/>
<path fill="#FFFFFF" stroke="#231F20" stroke-miterlimit="10" d="M674.9,546.5c-9,27.1-23.4,57.2-45.3,92.7c-0.3,0.5-0.7,1.1-1,1.6
	c13.9-30,17.4-52.7,16.7-84.4c-0.7-33.6-10.3-63.5-27.5-86.4c-31.7-42.1-75-51.1-117-59.9c-5.3-1.1-10.7-2.2-16-3.4
	c-45.2-10-113.1-50-115.6-51.5c-0.4-1.2-0.8-2.4-1.3-3.5c-0.1-0.4-0.3-0.8-0.5-1.2c6.4-3.3,36.8,0.7,36.8,0.7s-6.4-12.1-13.3-14.5
	c1.1-0.3,3.1-0.3,5.5-0.2c0,0,0,0,0,0c11.7,6.4,24.6,12.3,38.1,16.4c3.3,1,6.6,1.9,9.9,2.7l-2.4-0.5c2.1,1.2,64.1,36.5,90.2,40.3
	c13.3,2,27.4,1.2,39.8,0.5c11.8-0.6,12.9-0.3,12.9-0.3c-2.5-3-5.6-7.7-5.8-8c0,0,0,0,0,0s-3.7,0.1-7.5,0.3
	c-12,0.7-25.6,1.4-38.2-0.5c-24.6-3.6-66.4-27.1-66.9-27.4l-6.2-1.3c42.5,6.9,82.4,0.1,105.3,1c2.8,9.1,6.8,17.4,11.6,24.7
	c0.4,0.6,0.8,1.2,1.2,1.8c0.3,0.4,0.5,0.8,0.8,1.2l0,0c0.1,0.1,0.1,0.2,0.2,0.3c0.1,0.1,0.1,0.2,0.2,0.3c0.7,1,1.4,2,2.1,3
	c0.4,0.6,0.9,1.2,1.4,1.8c0.5,0.6,0.9,1.3,1.4,1.9c2.4,3.2,4.9,6.4,7.6,9.8c0.5,0.7,1.1,1.4,1.6,2c0.9,1.1,1.8,2.3,2.8,3.4
	c0.2,0.2,0.4,0.5,0.6,0.7c0.6,0.7,1.1,1.4,1.7,2.1c1,1.2,2,2.5,3,3.7c0.2,0.2,0.3,0.4,0.5,0.6c1.7,2,3.3,4.1,5.1,6.2
	c1.3,1.6,2.7,3.3,4,4.9c1.1,1.4,2.3,2.8,3.4,4.2c1.4,1.7,2.7,3.4,4.1,5.1c1.2,1.5,2.5,3.1,3.7,4.7c3.2,4,6.3,8.2,9.5,12.4
	c0.6,0.8,1.2,1.7,1.8,2.5c0.7,1,1.5,2,2.2,3.1c0.5,0.7,1,1.3,1.4,2c0.6,0.8,1.2,1.7,1.8,2.6c0.5,0.7,0.9,1.3,1.4,2
	c0.1,0.2,0.3,0.4,0.4,0.6c0.5,0.7,0.9,1.4,1.4,2.1c1.5,2.2,3,4.5,4.4,6.8c0.4,0.6,0.7,1.1,1.1,1.7c2.2,3.6,4.4,7.2,6.4,10.8
	c0.5,0.9,1,1.8,1.5,2.8c0,0,0,0,0,0c0.5,0.9,1,1.8,1.4,2.7c0.3,0.5,0.5,1,0.8,1.5c1.2,2.4,2.4,4.8,3.5,7.2c0.4,0.8,0.8,1.7,1.1,2.5
	c0.8,1.9,1.7,3.8,2.4,5.7c0.4,0.9,0.8,1.9,1.1,2.9c0.4,0.9,0.7,1.9,1.1,2.9c0.4,1,0.7,1.9,1,2.9c0.3,0.8,0.5,1.6,0.8,2.4
	c0.1,0.4,0.3,0.8,0.4,1.2c0.6,1.8,1.1,3.5,1.5,5.3c0.3,0.9,0.5,1.8,0.7,2.8c0.5,1.9,0.9,3.7,1.2,5.6c0,0,0,0.1,0,0.1
	c0.1,0.5,0.2,0.9,0.3,1.4c0.1,0.7,0.3,1.4,0.4,2.1c0.2,0.9,0.3,1.8,0.4,2.7c0,0,0,0.1,0,0.1C674.6,544.5,674.8,545.5,674.9,546.5z"
	/>
<path fill="#FFFFFF" stroke="#231F20" stroke-miterlimit="10" d="M318.3,336.5c5.1-22.5-4.9-41.8-5.5-42.7l0-0.8h0c0,0,0,0,0,0
	c-0.7,0-1.4,0.1-2.1,0.1c4.1,9.3,5.2,19.2,5.2,24.7c0,12.8-11.9,61.8-11.9,65.1s-20.4-22.3-31.4-28.5c-10.9-6.2-20.9-21.9-20.9-21.9
	s-2.2-7-3.3-16.3c-3.5,3-6.8,6.4-9.9,10.2c-34.9,42.8-36.4,32.1-51.7,60.6c-12.7,23.7-14.6,40-14.9,44.8c-0.1,1,0,1.5,0,1.5
	s6.6,23,15,29.9c0,0,0,0,0,0c0.4,0.3,0.7,0.5,1.1,0.8c2.7,1.7,7.3,3.7,12.8,5.5c11.6,3.9,27.1,7.4,36.2,6.7c1.1-0.1,2.1-0.2,3.1-0.5
	c11.8-2.8,13.9-7.5,13.9-7.5s-0.5,7.1-0.9,14.3c-0.4,6.9-0.7,13.8-0.5,14.5c0.2,1,4.8,7.8,24,2.1c8.3-2.5,19.5-7.4,34.2-16.2
	c-1.3-5.4-2.9-10.7-4.3-15.9c-2.7-9.7-0.8-21.5,3.8-32.3c-2.2-13.6-3.8-29-3.4-36.7C307.1,386.9,313,359.5,318.3,336.5z
	 M238.7,410.9c-4.8,11-24.8,17.8-35.5,5c-10.7-12.8-8.7-28.9,0-38.1s27.8-6.4,33.3,3.7C242.1,391.7,243.5,399.9,238.7,410.9z"/>
<path fill="#FFFFFF" stroke="#231F20" stroke-miterlimit="10" d="M830.1,298.7c-5.4,5.6-11.6,9.3-18.4,11.7h0
	c-19.3-14.1-51.6-35.1-70-40.2c-27.6-7.6-70.8-25.7-91.7,22.8c-20.9,48.5,106,171.1,100.3,255.7c-4.3,64.5-56,133.2-114.6,172.7
	c-45.5,11.8-75.1,8.4-94.3,0.1c17-6.5,35.4-18.2,54-37.4l1.7,1.7c10.2-9.3,79.5-61.1,78.6-127.5c0-3.9-0.3-7.8-0.8-11.6
	c-7.9-66-72.5-123.7-97.6-161.8c-4.8-7.3-8.8-15.6-11.6-24.7c-13-41.4-2.4-98.6,63.4-145c80.3-56.6,148.8-23.8,159.2-16.6
	C798.7,205.5,871.5,255.9,830.1,298.7z"/>
<path fill="#FFFFFF" stroke="#231F20" stroke-miterlimit="10" d="M773.1,461.2c36.6,59.9,21.4,207.2-113.1,252.8
	c-8.6,2.9-16.7,5.3-24.3,7.3c58.6-39.5,110.3-108.2,114.6-172.7C756,464.1,629.1,341.5,650,293c20.9-48.5,64.2-30.4,91.7-22.8
	c18.4,5.1,50.7,26.1,70,40.2c-45.4,15.9-116.5-29.4-131.8-2.2C662.4,339.6,736.5,401.3,773.1,461.2z"/>
<path fill="#FFFFFF" stroke="#231F20" stroke-miterlimit="10" d="M540.8,721.2c-0.4,0.3-0.8,0.6-1.1,0.9
	c-22.1,8.1-41.6,7.7-55.7,4.6c-51.3,10-83.4,3.8-83.4,3.8s-2.1,2.6-6.9,4.5c0,0,0,0,0-0.1c-3.3-8.9-14-7.3-14-7.8c0,0,0,0,0,0
	c0.1-0.5,2.5-7.8,3.2-10.9c0.7-3.1-10.7-7.4-10.7-7.4s-1.5,5.2-10,20.4c-0.1-0.2-0.1-0.4-0.2-0.6c-3.4-8.9-15.6-5.6-20.5-3.8
	c1.4-3,4.5-7.4,7.6-11.7l8.6-11c-1.5,1.9-5.1,6.3-8.6,11l-7.9,10.1l-0.3,0.3c-2-7.9-10-5.5-10.4-5.3c0.6-0.8,21.8-25.8,26.4-24.9
	c0.2,0,0.4,0.1,0.6,0.1c5.5,1.4,23.5,8.8,23.5,8.8s13.9,1.4,22.6,1.3c8.7-0.2,37.4,1.6,43.1-3.4c5.3-4.6-1.1-9.9-10.3-27.7
	c-0.7-1.4-1.5-2.9-2.2-4.4c-6.8-14.2-20.6-42.3-16.8-78.5c1.9-18.6,8.5-39.3,23-61.3c42.8-65.1,120-25.9,137.8,13.3
	C595.4,579.4,625.3,655.1,540.8,721.2z"/>
<path fill="#FFFFFF" stroke="#231F20" stroke-miterlimit="10" d="M339.3,725.7c0,0,0.1,0,0.2-0.1c-1.9,1.3-5.5,3.6-11.3,7
	c-0.4-8.9,2.3-14.3,2.3-14.3s0,0,0,0c0.4-0.1,8.4-2.6,10.4,5.3L339.3,725.7z"/>
<path fill="#FFFFFF" stroke="#231F20" stroke-miterlimit="10" d="M429,468.4c-5.2,13.3-15.8,21.5-23.3,43.3
	c-5.8,16.8-3.5,46.9-9.1,66.9c-1.7,5.9-4,10.9-7.5,14.4c-15.2,15.2-75.8,4.8-90.3-0.5c-14.5-5.2-19.5-2.4-30.9-1.2
	c-1.6,0.2-3.4,0.1-5.2-0.1h0c-10.8-1.2-23.6-7.9-24.4-7.5c-1,0.5-25,10.8-22.2,14.4c2.1,2.7,2.1,6-0.1,7.3c-0.7,0.4-1.6,0.7-2.7,0.7
	c-4.2,0-11.3-2.5-14-7.4l0,0c-0.3-0.5-0.5-1.1-0.7-1.7c-1.8-6,2.9-8.1,5.8-9.5c2.9-1.4,18.4-12.9,18.4-12.9s-1.5-0.1-9.3,0.2
	c-7.8,0.3-32.2-1.9-35.5-2.8c-3.3-0.9-9.9-2-14.2-2.6c-4.3-0.6-9.3-5.3-13.1-8.7c-0.3-0.3-0.5-0.5-0.7-0.7c-0.1-0.1-0.1-0.1-0.1-0.2
	c0,0,0-0.1-0.1-0.1l5.2-7.5c0.8,0,1.7,0,2.5,0.3c4.3,1.3,9.4,3.9,13.9,5.5c4.5,1.6,8.9,1,15.4,1.2c6.3,0.2,25.4,2.2,26.9,2.3
	c-1.1-0.3-11.5-2.8-13-2.7c-1.5,0.1-15.4-4.3-21.5-7.1c-6.1-2.9-9.9-2.5-12.4-5.6c-2.4-3,4.5-10.7,4.9-11l0,0c0,0,5.7,2.7,8.4,4.6
	c2.7,1.9,5.7,0.8,12.4,2.6c6.7,1.8,20.3,9,28,10.6c7.7,1.6,7.7-3.9,7.7-3.9L209,538.3l0,0c0,0,0.5-0.3,3.7-2.7
	c3.8-2.7,2.3-7.8,2.3-7.8s34.2,17.1,47.8,20c7.2,1.5,15.5,1.2,23.6-2.5h0c7.1-3.2,14-9,19.9-18.3c9.1-14.5,7.8-29.6,4.3-44
	c-1.3-5.4-2.9-10.7-4.3-15.9c-2.7-9.7-0.8-21.5,3.8-32.3c1.4-3.3,3-6.5,4.8-9.4c3.8-6.4,8.5-11.8,13.4-15.4
	c14.7-10.9,34.7-27.1,73.7-1.4C440.9,434.1,434.2,455.1,429,468.4z"/>
<path fill="#FFFFFF" stroke="#231F20" stroke-miterlimit="10" d="M315.9,317.7c0,12.8-11.9,61.8-11.9,65.1c-9-39.5-29-50.8-39-69.4
	c-1.1-2.1-2.1-4.4-3.1-6.8c-3.1-8.3-5.1-17.9-6.4-26.2c3.7-4.2,9-7.3,16.6-8.3c0.7-0.1,1.4-0.2,2.1-0.3c20.3-2,30.9,9,36.3,21.2
	C314.8,302.3,315.9,312.3,315.9,317.7z"/>
<path fill="#FFFFFF" stroke="#231F20" stroke-miterlimit="10" d="M304,382.8c0,3.3-20.4-22.3-31.4-28.5
	c-10.9-6.2-20.9-21.9-20.9-21.9s-2.2-7-3.3-16.3c-1.4-11.5-1-26.4,7.1-35.7c1.2,8.3,3.2,18,6.4,26.2c0.9,2.4,1.9,4.7,3.1,6.8
	C275,332,295,343.4,304,382.8z"/>
<path fill="#FFFFFF" stroke="#231F20" stroke-miterlimit="10" d="M334.5,293.4c-0.2,0-0.3,0-0.5,0c-4.2-0.4-11.8-0.9-21.2-0.5h0
	c0,0,0,0,0,0c-0.7,0-1.4,0.1-2.1,0.1c-5.4-12.2-16.1-23.2-36.3-21.2c0.3-7,4.2-19.3,28-15.7C324.3,259.5,331.8,280,334.5,293.4z"/>
<path fill="#FFFFFF" stroke="#231F20" stroke-miterlimit="10" d="M236.6,381.5c-5.5-10.2-24.6-13-33.3-3.7
	c-8.7,9.3-10.7,25.3,0,38.1c10.7,12.8,30.6,6.1,35.5-5C243.5,399.9,242.1,391.7,236.6,381.5z M226.4,407.9
	c-6.8,9.3-21.9,7.5-21.9,7.5s-5.7-17.8,0-28.3c5.7-10.5,26.4-3.6,26.4-3.6S233.2,398.6,226.4,407.9z"/>
<path fill="#FFFFFF" stroke="#231F20" stroke-miterlimit="10" d="M230.9,383.5c0,0-20.7-7-26.4,3.6c-5.7,10.5,0,28.3,0,28.3
	s15.1,1.8,21.9-7.5C233.2,398.6,230.9,383.5,230.9,383.5z M220.1,395.2c-4,2.6-10.2,4-10.3-0.6c-0.1-4.6,4.8-8.4,8-9.2
	c3.2-0.7,9,0.6,9.8,3.8C228.2,392.4,224.2,392.6,220.1,395.2z"/>
<path fill="#FFFFFF" stroke="#231F20" stroke-miterlimit="10" d="M220.1,395.2c-4,2.6-10.2,4-10.3-0.6c-0.1-4.6,4.8-8.4,8-9.2
	c3.2-0.7,9,0.6,9.8,3.8C228.2,392.4,224.2,392.6,220.1,395.2z"/>
<path fill="#FFFFFF" stroke="#231F20" stroke-miterlimit="10" d="M186.9,463.1c-8.8,0.5-18.3-2.7-21.2-12.6
	c-2.4-8.5,2.8-15.3,6.3-18.8c-0.1,1,0,1.5,0,1.5S178.5,456.1,186.9,463.1z"/>
<path fill="#FFFFFF" stroke="#231F20" stroke-miterlimit="10" d="M222.8,574.4c0,0-15.4,11.5-18.4,12.9c-2.9,1.4-7.6,3.6-5.8,9.5
	c0.2,0.6,0.4,1.2,0.7,1.7c-4.5-2-8.8-3.8-12.5-5c-11.8-3.9-28.4-8.6-38-34.6c0.3,0.3,0.6,0.5,0.9,0.7l0-0.1c0,0,0,0.1,0.1,0.1
	c0,0,0.1,0.1,0.1,0.2c0.2,0.2,0.5,0.5,0.7,0.7c3.8,3.4,8.8,8.1,13.1,8.7c4.3,0.6,10.9,1.7,14.2,2.6c3.3,0.9,27.7,3,35.5,2.8
	C221.3,574.3,222.8,574.4,222.8,574.4z"/>
<path fill="#FFFFFF" stroke="#231F20" stroke-miterlimit="10" d="M286.4,545.3L286.4,545.3c-8.1,3.7-16.4,4-23.6,2.5
	c-13.5-2.9-47.8-20-47.8-20s-12.5-5.8-21-7.7c2.9,5.5,15,18.2,15,18.2l19.3,10.5c0,0,0,5.5-7.7,3.9c-7.7-1.6-21.3-8.9-28-10.6
	c-6.7-1.8-9.6-0.7-12.4-2.6c-2.7-1.9-8.4-4.6-8.4-4.6l-20.3-6.2c0,0,8.5,12.6,15.4,17.2c2.5,3.1,6.3,2.7,12.4,5.6
	c6.1,2.8,20,7.3,21.5,7.1c1.5-0.1,11.9,2.4,13,2.7c-1.5-0.1-20.6-2.2-26.9-2.3c-6.5-0.2-11,0.4-15.4-1.2c-4.5-1.6-9.6-4.3-13.9-5.5
	c-0.8-0.3-1.7-0.3-2.5-0.3l0,0l-9.4-3.9c-0.4-1.7-0.8-3.6-1.2-5.5c-7.8-40.6,22.5-49.2,28.5-52.7c6.1-3.6,12.8-10,25-18.9
	c0.9-0.6,1.8-1.2,2.8-1.6c11.6,3.9,27.1,7.4,36.2,6.7c5.3,2.1,10.7,4.4,16.1,6.4c-0.4,6.9-0.7,13.8-0.5,14.5c0.2,1,4.8,7.8,24,2.1
	C286.5,512.1,290,529.2,286.4,545.3z"/>
<path fill="#FFFFFF" stroke="#231F20" stroke-miterlimit="10" d="M262.7,591.1c-7.9,8.3-18.4,14.5-27.4,16.7
	c-5.3,1.3-12.2-0.1-19.3-2.6c2.2-1.4,2.2-4.6,0.1-7.3c-2.8-3.6,21.2-13.9,22.2-14.4C239.1,583.2,251.9,590,262.7,591.1z"/>
<path fill="#FFFFFF" stroke="#231F20" stroke-miterlimit="10" d="M404.3,351.2c0,0-30.4-4-36.8-0.7c0.2,0.4,0.3,0.8,0.5,1.2
	c0.5,1.2,0.9,2.3,1.3,3.5c0.6,2,1.2,4,1.6,5.9v0c0.1,0.2,0.1,0.5,0.2,0.7c0.1,0.5,0.2,0.9,0.3,1.3c0.5,2.6,0.8,5.1,1.1,7.5
	c0,0.4,0.1,0.8,0.1,1.2c0.1,1.5,0.2,2.8,0.3,4c0,0.3,0,0.6,0,0.9c0,0.3,0,0.5,0,0.8c0.1,2.9,0,4.7,0,4.7l-15.2-15.7
	c0,0,0.9,16.2,0.5,19.3c-4.8-8.6-10.5-8.3-15.2-5.7c-4.8,2.6-10.7,14.3-11.2,17.6c-0.5,3.3-16.6,25.9-17.1,27.6l0.4,0.2
	c-1.8,3-3.4,6.1-4.8,9.4c-2.2-13.6-3.8-29-3.4-36.7c0.5-11.2,6.4-38.5,11.7-61.5c5.1-22.5-4.9-41.8-5.5-42.7l0-0.8
	c9.4-0.5,17,0,21.2,0.5c0.1,0.1,0.3,0.2,0.5,0.3c1.2,0.6,3.5,1.8,6.5,3.3c8.7,4.4,22.9,11.2,29.7,12.6c10.2,2.1,21.6,5.9,28.5,4
	L391,321c0,0-1.2,2.8,10.7,6.4c11.9,3.6,11.9,11.4,11.9,11.4s-10.1-1.8-17-2.3c0,0,0,0,0,0c-2.4-0.1-4.4-0.1-5.5,0.2
	C397.9,339.1,404.3,351.2,404.3,351.2z"/>
<path fill="#FFFFFF" stroke="#231F20" stroke-miterlimit="10" d="M446.7,700.2c-5.7,5-34.4,3.2-43.1,3.4c-8.7,0.2-22.6-1.3-22.6-1.3
	s-18-7.4-23.5-8.8c-0.4-0.2-0.8-0.3-1.2-0.3c3.9-2.6,1.2-7.8-1.7-11v0h0c0,0,0,0,0,0c2.7-1.6,1.2-4.6,0.5-5.8
	c-0.2-0.3-0.3-0.5-0.3-0.5s7.7,2.7,10.7,0.4c10.8,7.8,20.7,4.6,25.1,2.4c0.6,1,0.9,1.6,0.9,1.6s19.2,2,31.7,4.2
	c7.4,1.3,11.3-6,13.3-12C445.6,690.3,452,695.5,446.7,700.2z"/>
<path fill="#FFFFFF" stroke="#231F20" stroke-miterlimit="10" d="M390.5,678.7c-4.4,2.2-14.3,5.4-25.1-2.4c0,0,0,0,0,0
	c-0.1-0.4-6.7-16.6-1.3-16.6c5.5,0,12.1,9.7,12.1,9.7s7.4,0,9,1.4C386.5,671.8,389.1,676.3,390.5,678.7z"/>
<path fill="#FFFFFF" stroke="#231F20" stroke-miterlimit="10" d="M332.5,702.7c-2.1,1.2-4.8,3.1-7.5,5.8c-0.3-5.2,1.4-8.7,2.4-10.3
	C328.6,699.9,330.5,702.1,332.5,702.7z"/>
<path fill="#FFFFFF" stroke="#231F20" stroke-miterlimit="10" d="M356.3,693.2c-6.6-0.8-19.8,10.3-23.3,9.6c-0.2,0-0.3-0.1-0.5-0.1
	c-2-0.6-3.9-2.8-5.1-4.5c-0.2-0.3-0.3-0.5-0.5-0.7c6.7-8.4,11.4-16.5,18-16.7c4.5-0.2,8,0.8,9.7,1.4h0v0
	C357.5,685.4,360.2,690.6,356.3,693.2z"/>
<path fill="#FFFFFF" stroke="#231F20" stroke-miterlimit="10" d="M361.9,728.7c-1.2,1.2-5.2,4.6-16.6,10.8c-3-5.6-3.9-11.1-4.1-14.3
	c0,0,0,0,0,0c0.1-0.1,0.1-0.2,0.2-0.4C346.3,723.1,358.5,719.8,361.9,728.7z"/>
<path fill="#FFFFFF" stroke="#231F20" stroke-miterlimit="10" d="M393.6,734.9c-2.5,2.5-6.8,6.4-11.9,9.6c-3-4.6-2.1-16.9-2.1-17.4
	C379.6,727.6,390.3,726,393.6,734.9z"/>
<path fill="#FFFFFF" stroke="#231F20" stroke-miterlimit="10" d="M313.5,690c-1.3,1.1-4.5,3.5-10.8,6c-0.5-7.7,5.8-12.9,5.8-12.9
	C308.5,684.4,312.5,688.9,313.5,690z"/>
<path fill="#FFFFFF" stroke="#231F20" stroke-miterlimit="10" d="M324.1,697.5c-3.3,1.2-8.5,3.1-13.6,5.5c0.3-5.6,3.7-10.7,5.1-12.6
	C316.6,693.1,318.8,696.4,324.1,697.5z"/>
<path fill="#FFFFFF" stroke="#231F20" stroke-miterlimit="10" d="M354.7,675.9c0,0,0.1,0.2,0.3,0.5c-3-2.1-10.9-7.6-14.7-11
	c-4.8-4.3-12.8,13.5-15.5,16.6c-1.9,2.3-7,5.7-9.6,7.3c-0.1,0-0.1,0.1-0.2,0.1h0l-0.8-0.1c0,0-0.2,0.3-0.8,0.8c-1-1.1-5-5.6-5-6.9
	c0-1.4,8.1-7.4,12.1-9c4-1.7,7.6-16.4,16.6-16.6c8.9-0.2,27.6,18.2,28.2,18.8c0,0,0,0,0,0C362.4,678.6,354.7,675.9,354.7,675.9z"/>
<path fill="#FFFFFF" stroke="#231F20" stroke-miterlimit="10" d="M354.6,682.2C354.6,682.2,354.6,682.2,354.6,682.2
	c-1.7-0.6-5.1-1.5-9.7-1.4c-6.6,0.2-11.3,8.3-18,16.7c-0.2-0.3-0.4-0.6-0.5-0.8c-0.6,0.2-1.4,0.5-2.3,0.8c-5.3-1.2-7.5-4.5-8.5-7.1
	c-0.1-0.3-0.2-0.7-0.3-1c0-0.1,0-0.1,0-0.2c2.6-1.7,7.7-5.1,9.6-7.3c2.6-3.1,10.7-20.9,15.5-16.6c3.8,3.4,11.6,8.9,14.7,11
	C355.8,677.5,357.3,680.6,354.6,682.2z"/>
<path fill="#FFFFFF" stroke="#231F20" stroke-miterlimit="10" d="M212.7,535.7c-3.3,2.3-3.7,2.6-3.7,2.7l0,0c0,0-12.1-12.7-15-18.2
	c8.6,1.9,21,7.7,21,7.7S216.5,533,212.7,535.7z"/>
<path fill="#FFFFFF" stroke="#231F20" stroke-miterlimit="10" d="M171.8,534.9c-0.3,0.4-7.3,8-4.9,11c-6.9-4.6-15.4-17.2-15.4-17.2
	L171.8,534.9L171.8,534.9z"/>
<path fill="#FFFFFF" stroke="#231F20" stroke-miterlimit="10" d="M155,552L155,552l-5.2,7.5l0,0.1c-0.3-0.2-0.6-0.4-0.9-0.7v0
	c-4.6-3.7-11.4-14.3-11.4-14.3l8.2,3.4L155,552z"/>
<path fill="#FFFFFF" stroke="#231F20" stroke-miterlimit="10" d="M213.3,606c-10.6,7.9-33.1,5-33.1,5s6.4-1.4,10.5-3.8
	c4-2.4,8.7-8.5,8.7-8.5l0,0C202,603.4,209.2,606,213.3,606z"/>
<g>
	<path fill="#FFFFFF" stroke="#231F20" stroke-miterlimit="10" d="M628.6,640.8L628.6,640.8c-1.4,2.2-2.8,4.4-4.1,6.5v0l-12,16.7
		c29.2-61.7,31.3-146.1-1.1-189.1c-29.8-39.7-69.9-48-112.2-56.8c-5.3-1.1-10.8-2.3-16.1-3.5c-47.2-10.5-108.4-47.1-110.9-48.7
		l-1.3-4.7v0c-0.4-1.9-1-3.9-1.6-5.9c2.5,1.5,70.4,41.5,115.6,51.5c5.3,1.2,10.8,2.3,16,3.4c41.9,8.8,85.3,17.8,117,59.9
		c17.2,22.9,26.8,52.8,27.5,86.4C646,588.1,642.5,610.8,628.6,640.8z"/>
	<path fill="#FFFFFF" stroke="#231F20" stroke-miterlimit="10" d="M369.2,355.2c0.6,2,1.2,4,1.6,5.9L369.2,355.2
		C369.1,355.1,369.2,355.1,369.2,355.2z"/>
</g>
<g>
	<path fill="#FFFFFF" stroke="#231F20" stroke-miterlimit="10" d="M584.9,395.9c0,0-1.1-0.4-12.9,0.3c-12.4,0.7-26.4,1.4-39.8-0.5
		c-26.1-3.9-88.1-39.1-90.2-40.3l2.4,0.5c5.3,1.3,10.7,2.4,15.9,3.2l6.2,1.3c0.5,0.3,42.3,23.8,66.9,27.4
		c12.5,1.9,26.2,1.1,38.2,0.5c3.8-0.2,7.5-0.3,7.5-0.3s0,0,0,0C579.3,388.1,582.4,392.8,584.9,395.9z"/>
	<path fill="#FFFFFF" stroke="#231F20" stroke-miterlimit="10" d="M460.4,359c-5.3-0.9-10.6-1.9-15.9-3.2L460.4,359z"/>
</g>
</svg>
