<?xml version="1.0" encoding="utf-8"?>
<!-- Generator: Adobe Illustrator 25.2.0, SVG Export Plug-In . SVG Version: 6.00 Build 0)  -->
<svg version="1.1" baseProfile="tiny" id="Layer_1" xmlns="http://www.w3.org/2000/svg" xmlns:xlink="http://www.w3.org/1999/xlink"
	 x="0px" y="0px" viewBox="0 0 1000 1000" overflow="visible" xml:space="preserve">
<path fill="#FFFFFF" stroke="#000000" stroke-miterlimit="10" d="M613.93,227.07c-6.15-12.22-11.99-18.93-27.37-28.62
	c-16.12-10.16-58.71-2.35-75.24-6.32c-2.37-0.56-4.21-1.37-5.35-2.52c-5.78-5.77-4.93-15.31-3.35-21.73
	c0.86,0.08,1.33,0.13,1.33,0.13s51.53-26.9,85.26,12.13C602.09,195.04,609.83,211.05,613.93,227.07z"/>
<path fill="#FFFFFF" stroke="#000000" stroke-miterlimit="10" d="M611.57,300.26c-0.06-2-0.15-3.93-0.25-5.8v-0.01
	c-1.77-31.46-9.34-45.29-24-57.09c-15.54-12.51-62.15-22.74-62.15-22.74s-2.18,0.6-5.7,1.64c-14.09-8.09-12.28-17.85-8.15-24.13
	c16.53,3.97,59.12-3.84,75.24,6.32c15.38,9.69,21.22,16.4,27.37,28.62C620.56,253,617.66,278.95,611.57,300.26z"/>
<path fill="#FFFFFF" stroke="#000000" stroke-miterlimit="10" d="M519.47,216.26c-14.44,4.3-51.44,16.2-52.66,25.65
	c-1.52,11.74-10.99,79.95-10.99,79.95s-7.72-23.23-15.16-22.35c-0.47,0.06-0.89,0.2-1.25,0.42c2.99-16.81,5.61-29.22,5.61-29.22
	l-6.08-9.73c4.7-8.32,11.88-23.56,13.22-40.8c1.11-14.32-2.14-28.11-5.29-37.61c1.14-1.78,2.35-3.24,3.65-4.33
	c1.16-0.98,2.42-1.88,3.74-2.69c5.61-3.46,12.5-5.5,19.35-6.67h0.01c12.58-2.14,25-1.34,29-1c-1.58,6.42-2.43,15.96,3.35,21.73
	c1.14,1.15,2.98,1.96,5.35,2.52C507.19,198.41,505.38,208.17,519.47,216.26z"/>
<path fill="#FFFFFF" stroke="#000000" stroke-miterlimit="10" d="M587.32,237.36c-15.54-12.51-62.15-22.74-62.15-22.74
	s-2.18,0.6-5.7,1.64c-14.44,4.3-51.44,16.2-52.66,25.65c-1.52,11.74-10.99,79.95-10.99,79.95s-1.23,12.97,1.78,29.97
	c0.01,0.02,0.01,0.04,0.01,0.07c3.42,19.19,12.23,43.49,34.31,60.06c0.01,0.01,0.03,0.02,0.04,0.03
	c12.64,8.64,25.73,17.46,37.76,21.28c19.26,6.12,39.02-2.08,47.12-8.85c0.51-0.43,0.97-0.85,1.38-1.26
	c1.17-1.15,1.95-2.23,2.27-3.15c2.28-6.44,7.58-21.98,16.68-42.82c6.91-15.83,12.07-61.64,14.15-82.73v-0.01
	C609.55,262.99,601.98,249.16,587.32,237.36z M536.14,333.06c3.11-1.6,6.49,2.9,6.49,2.9S533.04,334.66,536.14,333.06z
	 M481.84,280.81c-3.54,4.8,4.93-18.19,14.28-20.72c6.29-1.7,22.3,2.3,29.48,4.43c1.75,0.52,1.59,3.05-0.21,3.34
	c-3.14,0.5-11.52-0.08-17.15-0.19C495.36,267.42,485.38,276.01,481.84,280.81z M491.19,289.97c-0.13,0.06-0.25,0.13-0.38,0.19
	c0.07-0.1,0.14-0.21,0.21-0.31c4.21-6.21,11.54-12.19,19.37-11.57c7.96,0.64,19.45,10.87,19.2,11.12c0,0-0.01,0.01-0.04,0.02
	c-0.78,0.42-13.37,7.18-21.81,7.31C501.15,296.82,494.19,292.22,491.19,289.97z M565.8,370.62c0.08,2.13-0.24,6.96-4.49,8.27
	c-5.5,1.71-21.36,2.85-25.72,0.95c-3.35-1.45-10.29-7.73-13.31-10.54c-3.26,0.09-5.7,0.18-5.7,0.18s9.16-8.33,14.27-9.97
	c5.12-1.65,14.02,2.14,17.62,1.57c3.6-0.56,10.33-3.28,12.84-2.59c2.51,0.7,8.01,11.5,8.01,12.45
	C569.32,371.34,567.81,371.06,565.8,370.62z M570.38,332.53c-0.2,0.54-0.53,1.05-0.83,1.46c-0.3,0.43-0.66,0.85-1.07,1.23
	c-0.8,0.8-1.93,1.32-2.91,1.6c-0.98,0.29-1.88,0.52-2.76,0.86c-0.87,0.34-1.72,0.72-2.55,1.18c-0.42,0.21-0.83,0.46-1.23,0.71
	c-0.41,0.24-0.81,0.5-1.2,0.78c-0.76,0.51-1.66,1.16-2.59,1.63c-1.87,0.98-3.99,1.53-6.08,1.58c-4.23,0.13-8.1-1.45-11.76-2.18
	c-0.46-0.08-0.91-0.14-1.36-0.17l-1.48-0.05c-1.07-0.09-2.12-0.32-3.13-0.69c-1-0.4-1.93-0.95-2.76-1.64
	c-0.83-0.68-1.51-1.52-2.08-2.42c-0.57-0.9-0.94-1.89-1.25-2.88c-0.25-1.01-0.45-2.04-0.46-3.06c-0.18-2.11,0.55-4.2,1.57-5.92
	c1.04-1.74,2.36-3.26,3.78-4.65c1.42-1.38,2.96-2.63,4.6-3.72c-2.98,2.54-5.79,5.4-7.54,8.82c-0.86,1.71-1.39,3.54-1.14,5.38
	c0.07,0.94,0.29,1.85,0.54,2.74c0.32,0.87,0.67,1.72,1.19,2.47c0.52,0.74,1.11,1.42,1.83,1.97c0.71,0.54,1.49,0.97,2.33,1.29
	c0.84,0.29,1.73,0.46,2.63,0.51l1.46,0.02c0.54,0.02,1.06,0.08,1.58,0.16c2.04,0.34,3.92,0.94,5.8,1.36
	c1.87,0.44,3.74,0.74,5.58,0.67c1.84-0.07,3.63-0.49,5.25-1.34c0.83-0.42,1.53-0.91,2.41-1.5c0.41-0.28,0.84-0.56,1.28-0.81
	c0.43-0.27,0.87-0.52,1.33-0.76c0.89-0.49,1.85-0.88,2.82-1.23c0.97-0.35,1.98-0.58,2.89-0.83c0.91-0.25,1.62-0.57,2.24-1.15
	c0.6-0.56,1.24-1.35,1.56-2.04c0.67-1.52,0.42-3.46-0.16-5.23c-0.57-1.79-1.46-3.52-2.49-5.15c-1.78-2.9-4.02-5.51-6.47-7.93
	c0.28,0.98,0.54,1.97,0.83,2.96c0.43,1.51,0.63,3.04,0.67,4.58c0.09,3.06-0.56,6.2-2.17,8.82c-1.59,2.64-4.08,4.59-6.81,5.83
	c2.65-1.41,4.96-3.48,6.38-6.08c1.43-2.59,1.91-5.61,1.69-8.53c-0.11-1.46-0.36-2.92-0.79-4.3l-1.59-4.21
	c-1.06-2.81-2.08-5.63-3.07-8.48c-0.96-2.85-1.94-5.71-2.65-8.69c-0.35-1.49-0.65-3.01-0.82-4.55c-0.08-0.73-0.13-1.66,0.03-2.5
	c0.14-0.84,0.42-1.61,0.73-2.35c0.63-1.47,1.5-2.77,2.42-4c0.92-1.24,1.94-2.38,3-3.47c1.05-1.1,2.18-2.11,3.32-3.1
	c1.15-0.99,2.32-1.94,3.56-2.8c-2.12,2.14-4.16,4.34-6.03,6.66c-1.84,2.32-3.62,4.75-4.66,7.38c-0.24,0.65-0.45,1.31-0.53,1.96
	c-0.09,0.66-0.03,1.24,0.07,2c0.17,1.44,0.47,2.87,0.83,4.3c0.73,2.86,1.61,5.72,2.53,8.57c0.89,2.86,1.8,5.73,2.64,8.62
	c0.11,0.37,0.22,0.73,0.34,1.1c2.78,2.19,5.28,4.76,7.41,7.63c1.15,1.62,2.2,3.36,2.94,5.28c0.35,0.96,0.63,1.97,0.74,3.03
	C570.88,330.32,570.79,331.46,570.38,332.53z M557.46,335.37c0.16-0.24,3.22-4.62,6.31-3.23
	C566.92,333.55,557.7,335.33,557.46,335.37z M577.78,300.64c-5.71-0.96-12.1-6.79-13.94-8.57c-0.34-0.33-0.52-0.52-0.52-0.52
	s7.2-6.57,16.92-6.32c9.12,0.23,11.69,8.69,11.97,9.74c0.02,0.04,0.03,0.08,0.03,0.11C592.24,295.08,584.54,301.78,577.78,300.64z
	 M600.2,289.4c0,0-6.82-17.34-13.14-17.51c-4.37-0.12-13.83-0.08-19.23-0.04c-1.07,0.01-1.42-1.42-0.47-1.91
	c6.03-3.04,18.26-8.02,24.76-2.27C600.96,275.51,600.2,289.4,600.2,289.4z"/>
<path fill="#FFFFFF" stroke="#000000" stroke-miterlimit="10" d="M561.31,378.89c-5.5,1.71-21.36,2.85-25.72,0.95
	c-3.35-1.45-10.29-7.73-13.31-10.54c5.12-0.16,12.24-0.3,15.01-0.07c4.55,0.38,16.3-0.19,19.9-0.19c2.09,0,5.83,0.95,8.61,1.58
	C565.88,372.75,565.56,377.58,561.31,378.89z"/>
<path fill="#FFFFFF" stroke="#000000" stroke-miterlimit="10" d="M517.84,285.99c-9.93-4.1-19.37,0.34-26.65,3.98
	c3,2.25,9.96,6.85,16.55,6.76c8.44-0.13,21.03-6.89,21.81-7.31C529.26,289.49,527.11,289.81,517.84,285.99z M508.12,295.46
	c-3.42,0-6.19-2.45-6.19-5.46c0-3.02,2.77-5.46,6.19-5.46s6.2,2.44,6.2,5.46C514.32,293.01,511.54,295.46,508.12,295.46z"/>
<path fill="#FFFFFF" stroke="#000000" stroke-miterlimit="10" d="M491.92,411.96c-10.66-7.28-21-14.42-30.13-18.32
	c-0.09-0.05-0.19-0.09-0.28-0.12l-3.9-41.62C461.03,371.09,469.84,395.39,491.92,411.96z"/>
<path fill="#FFFFFF" stroke="#000000" stroke-miterlimit="10" d="M461.51,393.52c-1.04-0.44-2.07-0.84-3.08-1.18
	c0,0-0.01-0.01-0.02-0.01c-6.07-3.37-19.3-15.91-23.05-62.13c-0.1-1.26-0.2-2.53-0.3-3.8c0-0.01,0-0.01,0-0.02
	c0.73-4.88,1.49-9.73,2.27-14.41c0.74,8.22,3.03,19.28,4.09,29.41c1.25,11.9,0.55,21.57,3.41,21.79
	c7.25,0.56,12.57-10.9,12.77-11.34c0.01,0.02,0.01,0.04,0.01,0.07L461.51,393.52z"/>
<path fill="#FFFFFF" stroke="#000000" stroke-miterlimit="10" d="M606.45,464.54c-0.77,0.36-1.94,0.86-3.47,1.44c0,0,0,0.01-0.01,0
	c-12.04,4.57-46.51,14.42-87.84,8.03c-46.61-7.2-69.54-20.08-79.96-32.21c12.5-22.74,26.34-39.79,26.34-39.79s0.13,0.61,0.66,1.69
	c2.26,4.52,11.79,17.27,49.74,27.68c33.41,9.16,55.33,1.27,65.2-4.05c0.39-0.22,0.76-0.42,1.11-0.62c3.28-1.87,4.93-3.29,4.93-3.29
	S593.38,454.68,606.45,464.54z"/>
<path fill="#FFFFFF" stroke="#000000" stroke-miterlimit="10" d="M750.15,797.19c-1.52-4.82-3.96-10.15-7.84-15.47
	c-7.77-10.61,1.89-25.96-3.6-34.3c-5.5-8.34-4.55-28.8-5.88-30.88c-1.32-2.09-0.19-19.71,1.33-25.2c1.51-5.5,6.82-29.56,8.91-34.3
	c2.09-4.73-3.61-11.37-4.93-16.86c-1.33-5.5,9.47-21.22,2.65-30.13s-5.12-42.63-5.12-43.58c0-0.94-1.13-1.89-2.84-3.03
	c-1.7-1.13-1.89-17.24-5.3-24.44c-3.41-7.2-12.13-30.69-12.13-30.69c-25.14-15.15-92.76-36.33-112.42-42.33h-0.01
	c-12.04,4.57-46.51,14.42-87.84,8.03c-46.61-7.2-69.54-20.08-79.96-32.21l-4.32,3.16c0.35,13.59,0.72,22.86,0.72,22.86
	s-0.61,3.5-2.61,8.37c0.79,1.69,12.45,26.81,12.08,37.8c-0.25,7.58,1.01,14.99,3.12,22.57c1.05,3.79,2.31,7.62,3.7,11.53
	c4.17,11.75,6.82,69.35,9.1,83.37c2.27,14.02-0.76,53.43,0,65.56c0.76,12.13-3.41,36.38-6.07,41.69c-2.65,5.3,1.14,24.25,1.9,26.9
	c0.56,1.96,4.23,8.06,6.56,17.39c41.14-4.31,93.62-7.16,147.1-2.99c68.91,5.38,104.75,22.69,122.54,35.93
	c2.08-0.79,4.96-1.94,8.11-3.42c4.86-2.27,10.38-5.3,14.66-8.89C751.39,801.63,750.87,799.47,750.15,797.19z M717.17,728.73
	c-20.16-8.85-54.19-50.7-56.02-52.97c1.31,2,23.2,36.33,7.51,86.82c-5.55-10.61-39.41-44.46-41.93-76.8
	c-9.6,45.98-24.76,83.37-24.76,81.85c0-1.51-25.77-42.44-16.17-85.39c-11.62,21.73-69.22,41.94-69.73,40.42
	c-0.5-1.51,23.75-62.14,50.53-73.77c-45.47,12.13-79.83,22.74-79.83,22.74s13.64-60.63,69.72-61.14
	c-30.82-7.07-80.33-43.95-80.33-43.95s60.63-11.12,86.4,7.07c-29.81-38.4-59.12-59.12-59.12-59.12s40.42,1.02,68.21,25.77
	c-19.7-43.95-20.71-58.1-20.71-58.1s38.27,16.17,55.51,65.18c-1.96-40.93,2.09-51.54,2.09-51.54s35.83,23.21,31.84,64.6
	c0.35-1.76,7.76-35.9,53.55-20.14c-8.59,22.23-23.25,43.46-23.25,43.46s30.83-9.6,62.15,14.65c-0.5,15.16-41.94,23.75-41.94,23.75
	s34.87,11.62,41.94,60.63c-17.38-0.5-51.37-31.27-52.52-32.3C681.23,652.24,711.21,709.83,717.17,728.73z"/>
<path fill="#FFFFFF" stroke="#000000" stroke-miterlimit="10" d="M606.45,780.01c-53.48-4.17-105.96-1.32-147.1,2.99
	c-22.48,2.35-41.57,5.14-55.58,7.45c-12.61,2.08-21.1,3.78-24.26,4.43c-0.9,0.19-1.37,0.29-1.37,0.29l-1.43,39.65v0.01l-1.6,44.09
	c0,0,65.17-7.2,178.86-6.45c113.68,0.76,170.9,6.45,170.9,6.45l0.59-47.6l0.06-5.2l0.11-8.97c0,0,1.29-0.42,3.36-1.21
	C711.2,802.7,675.36,785.39,606.45,780.01z M490.56,818.92c-4.61,0-8.34-3.74-8.34-8.34c0-4.61,3.73-8.34,8.34-8.34
	c4.6,0,8.33,3.73,8.33,8.34C498.89,815.18,495.16,818.92,490.56,818.92z M555.23,818.92c-4.6,0-8.34-3.74-8.34-8.34
	c0-4.61,3.74-8.34,8.34-8.34c4.61,0,8.34,3.73,8.34,8.34C563.57,815.18,559.84,818.92,555.23,818.92z M617.92,822.47
	c-4.61,0-8.34-3.73-8.34-8.33c0-4.61,3.73-8.34,8.34-8.34c4.6,0,8.33,3.73,8.33,8.34C626.25,818.74,622.52,822.47,617.92,822.47z
	 M669.55,830.81c-4.61,0-8.34-3.73-8.34-8.34c0-4.6,3.73-8.33,8.34-8.33c4.6,0,8.33,3.73,8.33,8.33
	C677.88,827.08,674.15,830.81,669.55,830.81z"/>
<path fill="#FFFFFF" stroke="#000000" stroke-miterlimit="10" d="M498.89,810.58c0,4.6-3.73,8.34-8.33,8.34
	c-4.61,0-8.34-3.74-8.34-8.34c0-4.61,3.73-8.34,8.34-8.34C495.16,802.24,498.89,805.97,498.89,810.58z"/>
<path fill="#FFFFFF" stroke="#000000" stroke-miterlimit="10" d="M804.45,641.32c-3.31,14.74-10.71,34.27-18.44,52.46
	c-11.72,27.61-24.19,52.13-24.19,52.13s0.05,3.06,0.02,7.72c-0.05,8.26-0.34,21.55-1.57,31.68v0.01c-0.44,3.53-0.98,6.68-1.67,9.09
	c-0.96,3.34-3.53,6.45-6.84,9.22c-0.37-2-0.89-4.16-1.61-6.44c-1.52-4.82-3.96-10.15-7.84-15.47c-7.77-10.61,1.89-25.96-3.6-34.3
	c-5.5-8.34-4.55-28.8-5.88-30.88c-1.32-2.09-0.19-19.71,1.33-25.2c1.51-5.5,6.82-29.56,8.91-34.3c2.09-4.73-3.61-11.37-4.93-16.86
	c-1.33-5.5,9.47-21.22,2.65-30.13s-5.12-42.63-5.12-43.58c0-0.94-1.13-1.89-2.84-3.03c-1.7-1.13-1.89-17.24-5.3-24.44
	c-3.41-7.2-12.13-30.69-12.13-30.69c8.34,1.13,69.54,32.4,69.54,32.4S812.79,604.18,804.45,641.32z"/>
<path fill="#FFFFFF" stroke="#000000" stroke-miterlimit="10" d="M690.89,622.12c0,0,41.44-8.59,41.94-23.75
	c-31.32-24.25-62.15-14.65-62.15-14.65s14.66-21.23,23.25-43.46c-45.79-15.76-53.2,18.38-53.55,20.14
	c3.99-41.39-31.84-64.6-31.84-64.6s-4.05,10.61-2.09,51.54c-17.24-49.01-55.51-65.18-55.51-65.18s1.01,14.15,20.71,58.1
	c-27.79-24.75-68.21-25.77-68.21-25.77s29.31,20.72,59.12,59.12c-25.77-18.19-86.4-7.07-86.4-7.07s49.51,36.88,80.33,43.95
	c-56.08,0.51-69.72,61.14-69.72,61.14s34.36-10.61,79.83-22.74c-26.78,11.63-51.03,72.26-50.53,73.77
	c0.51,1.52,58.11-18.69,69.73-40.42c-9.6,42.95,16.17,83.88,16.17,85.39c0,1.52,15.16-35.87,24.76-81.85
	c2.52,32.34,36.38,66.19,41.93,76.8c15.69-50.49-6.2-84.82-7.51-86.82c1.83,2.27,35.86,44.12,56.02,52.97
	c-5.96-18.9-35.94-76.49-36.86-78.28c1.15,1.03,35.14,31.8,52.52,32.3C725.76,633.74,690.89,622.12,690.89,622.12z M658.47,632.48
	c-0.92,2.71-2.06,5.29-3.41,7.7c-6.28,11.2-16.98,18.68-30.24,18.94c-0.24,0.01-0.48,0.01-0.72,0.01c-1.13,0-2.25-0.07-3.35-0.21
	c-10.64-1.31-20.09-8.73-26.71-18.74c-2.07-3.14-3.87-6.54-5.33-10.08c-2.83-6.84-4.43-14.23-4.43-21.37
	c0-6.68,0.69-12.67,2.4-17.93c0.98-3,2.29-5.78,4-8.31c1.97-2.94,4.49-5.57,7.63-7.87c4.02-2.95,9.98-2.92,15.91-2.51
	c2.84,0.2,5.66,0.49,8.26,0.58c0.55,0.03,1.09,0.04,1.62,0.04c13.79,0,24.87,7.44,31.22,18.87c1.11,2,2.08,4.12,2.89,6.34
	c1.95,5.35,3,11.29,3,17.58C661.21,621.52,660.26,627.25,658.47,632.48z"/>
<path fill="none" stroke="#000000" stroke-miterlimit="10" d="M615.04,630.83l0.45,0.88c1.18-0.16,2.73-0.41,4.38-0.79
	L615.04,630.83z M627.18,595.79c-0.07,0.04-0.15,0.08-0.23,0.12l0.33,0.05L627.18,595.79z"/>
<polygon fill="#FFFFFF" stroke="#000000" stroke-miterlimit="10" points="606.62,630.67 595.27,630.45 600.71,618.84 "/>
<path fill="none" stroke="#000000" stroke-miterlimit="10" d="M615.04,630.83l0.45,0.88c1.18-0.16,2.73-0.41,4.38-0.79
	L615.04,630.83z M627.18,595.79c-0.07,0.04-0.15,0.08-0.23,0.12l0.33,0.05L627.18,595.79z"/>
<path fill="#FFFFFF" stroke="#000000" stroke-miterlimit="10" d="M661.21,615.52c0,6-0.95,11.73-2.74,16.96l-10.02-16.66l9.76-17.88
	C660.16,603.29,661.21,609.23,661.21,615.52z"/>
<path fill="#FFFFFF" stroke="#000000" stroke-miterlimit="10" d="M655.32,591.6l-23.45-3.3l-9.39-15.61
	c0.55,0.03,1.09,0.04,1.62,0.04C637.89,572.73,648.97,580.17,655.32,591.6z"/>
<path fill="#FFFFFF" stroke="#000000" stroke-miterlimit="10" d="M614.22,572.11l-5.67,12.9l-17.87-2.52
	c1.97-2.94,4.49-5.57,7.63-7.87C602.33,571.67,608.29,571.7,614.22,572.11z"/>
<path fill="#FFFFFF" stroke="#000000" stroke-miterlimit="10" d="M596.96,611.35l-8.25,18.75c-2.83-6.84-4.43-14.23-4.43-21.37
	c0-6.68,0.69-12.67,2.4-17.93L596.96,611.35z"/>
<path fill="#FFFFFF" stroke="#000000" stroke-miterlimit="10" d="M620.75,658.92c-10.64-1.31-20.09-8.73-26.71-18.74h17.34
	L620.75,658.92z"/>
<path fill="#FFFFFF" stroke="#000000" stroke-miterlimit="10" d="M655.06,640.18c-6.28,11.2-16.98,18.68-30.24,18.94l10.34-18.94
	H655.06z"/>
<path fill="#FFFFFF" stroke="#000000" stroke-miterlimit="10" d="M605.15,592.73l-9.88-1.44l5.6,11.19l-3.91,8.87l-10.28-20.55
	c0.98-3,2.29-5.78,4-8.31l17.87,2.52L605.15,592.73z"/>
<path fill="#FFFFFF" stroke="#000000" stroke-miterlimit="10" d="M635.16,640.18l-10.34,18.94c-0.24,0.01-0.48,0.01-0.72,0.01
	c-1.13,0-2.25-0.07-3.35-0.21l-9.37-18.74h8.34l3.03,6.06l3.13-6.06H635.16z"/>
<path fill="#FFFFFF" stroke="#000000" stroke-miterlimit="10" d="M658.21,597.94l-9.76,17.88l-5.39-8.94l4.13-8.01l-9.82-1.43
	l-5.5-9.14l23.45,3.3C656.43,593.6,657.4,595.72,658.21,597.94z"/>
<path fill="#FFFFFF" stroke="#000000" stroke-miterlimit="10" d="M648.45,615.82l-5.39-8.94l-5.69-9.44l-5.5-9.14l-9.39-15.61
	c-2.6-0.09-5.42-0.38-8.26-0.58l-5.67,12.9l-3.4,7.72l-4.28,9.75l-3.91,8.87l-8.25,18.75c1.46,3.54,3.26,6.94,5.33,10.08h61.02
	c1.35-2.41,2.49-4.99,3.41-7.7L648.45,615.82z M640,631.3l-9.45-0.18l-10.67-0.2c0,0,0,0-0.01,0c-1.65,0.38-3.2,0.63-4.38,0.79
	l-0.45-0.88l-8.42-0.16l-11.35-0.22l5.44-11.61v-0.01l4.03-8.61l7.69-16.42l3.62-7.73l2.34-5.01l3.48,5.83l5.31,8.9l0.1,0.17
	l3.53,5.93l7.95,13.32l5.23,8.78l4.46,7.47L640,631.3z"/>
<polygon fill="#FFFFFF" stroke="#000000" stroke-miterlimit="10" points="605.15,592.73 600.87,602.48 595.27,591.29 "/>
<polygon fill="#FFFFFF" stroke="#000000" stroke-miterlimit="10" points="625.88,640.18 622.75,646.24 619.72,640.18 "/>
<polygon fill="#FFFFFF" stroke="#000000" stroke-miterlimit="10" points="647.19,598.87 643.06,606.88 637.37,597.44 "/>
<path fill="#FFFFFF" stroke="#000000" stroke-miterlimit="10" d="M627.18,595.79c-0.07,0.04-0.15,0.08-0.23,0.12
	c0,0.01,0,0.01-0.01,0l-14.51-2.11l3.62-7.73l5.82,0.82L627.18,595.79z"/>
<polygon fill="#FFFFFF" stroke="#000000" stroke-miterlimit="10" points="621.87,586.89 616.05,586.07 618.39,581.06 "/>
<polygon fill="#FFFFFF" stroke="#000000" stroke-miterlimit="10" points="643.99,623.99 640,631.3 630.55,631.12 638.76,615.21 "/>
<polygon fill="#FFFFFF" stroke="#000000" stroke-miterlimit="10" points="615.04,630.83 606.62,630.67 600.71,618.84 600.71,618.83 
	604.74,610.22 611.61,623.97 "/>
<path fill="#FFFFFF" stroke="#000000" stroke-miterlimit="10" d="M629.38,624.92c-0.67,3.25-5.36,5.04-9.5,6c0,0,0,0-0.01,0
	l-4.83-0.09l-3.43-6.86c2.17-1.08,5.54-3,7.25-5.2c2.66-3.41-5.49-10.33-3.98-13.93c1.2-2.84,8.87-7.2,12.06-8.93
	c0.01,0.01,0.01,0.01,0.01,0l0.33,0.05l3.53,5.93c-1.83,1.43-4.81,4.21-6.07,7.59C622.94,614.32,630.61,618.96,629.38,624.92z"/>
<path fill="#FFFFFF" stroke="#000000" stroke-miterlimit="10" d="M618.86,618.77c-1.71,2.2-5.08,4.12-7.25,5.2l-6.87-13.75
	l7.69-16.42l14.51,2.11c-3.19,1.73-10.86,6.09-12.06,8.93C613.37,608.44,621.52,615.36,618.86,618.77z"/>
<path fill="#FFFFFF" stroke="#000000" stroke-miterlimit="10" d="M638.76,615.21l-8.21,15.91l-10.67-0.2c4.14-0.96,8.83-2.75,9.5-6
	c1.23-5.96-6.44-10.6-4.64-15.44c1.26-3.38,4.24-6.16,6.07-7.59L638.76,615.21z"/>
<polygon fill="#FFFFFF" stroke="#000000" stroke-miterlimit="10" points="648.45,631.46 640,631.3 643.99,623.99 "/>
<path fill="#FFFFFF" stroke="#000000" stroke-miterlimit="10" d="M379.51,794.88c-0.9,0.19-1.37,0.29-1.37,0.29l-1.43,39.65
	c-10.16-3.66-25.49-2.12-34.19,0.52c-12.51,3.79-42.07-5.31-67.46-63.29s-36-176.59-37.13-195.16
	c-1.14-18.56,16.29-99.66,28.8-121.64c7.31-12.85,17.46-18.57,24.64-21.11c-0.08,2.26-0.09,5.19,0.13,8.59v0.01
	c-5.44,5.95-11.31,17.1-11.51,37.52c-0.13,12.63,0.86,24.21,2.69,34.67v0.01c-4.15,11.36-11.19,34.79-5.34,49.83
	c7.95,20.46,21.6,33.72,24.63,41.49c3.03,7.77,10.56,39.98,10.01,46.8c-0.54,6.82,5.15,12.51,6.66,23.5
	c1.52,10.99,1.52,32.97,1.9,37.51c0.38,4.55,3.41,31.08,3.41,37.9s12.12,17.05,9.09,30.31c-3.03,13.27,0.38,22.74,2.28,23.5
	C337.01,806.46,360.7,789.65,379.51,794.88z"/>
<path fill="#FFFFFF" stroke="#000000" stroke-miterlimit="10" d="M459.35,783c-22.48,2.35-41.57,5.14-55.58,7.45
	c-2.95-12.1-12.13-52.04-10.85-75.62c1.44-26.79,8.77-124.48,9.42-133.15c23.88-12.91,39.33-35.84,41.82-45.12
	c1.05,3.79,2.31,7.62,3.7,11.53c4.17,11.75,6.82,69.35,9.1,83.37c2.27,14.02-0.76,53.43,0,65.56c0.76,12.13-3.41,36.38-6.07,41.69
	c-2.65,5.3,1.14,24.25,1.9,26.9C453.35,767.57,457.02,773.67,459.35,783z"/>
<path fill="#FFFFFF" stroke="#000000" stroke-miterlimit="10" d="M403.77,790.45c-12.61,2.08-21.1,3.78-24.26,4.43
	c-18.81-5.23-42.5,11.58-44.19,10.9c-1.9-0.76-5.31-10.23-2.28-23.5c3.03-13.26-9.09-23.49-9.09-30.31s-3.03-33.35-3.41-37.9
	c-0.38-4.54-0.38-26.52-1.9-37.51c-1.51-10.99-7.2-16.68-6.66-23.5c0.55-6.82-6.98-39.03-10.01-46.8
	c-3.03-7.77-16.68-21.03-24.63-41.49c-5.85-15.04,1.19-38.47,5.34-49.83c3.7,21.26,10.84,37.84,19.1,48.88
	c12.31,16.49,24.63,28.04,67.07,27.1c12.38-0.28,23.65-3.91,33.49-9.24c-0.65,8.67-7.98,106.36-9.42,133.15
	C391.64,738.41,400.82,778.35,403.77,790.45z"/>
<path fill="#FFFFFF" stroke="#000000" stroke-miterlimit="10" d="M427.4,541.08c1.33,3.6-9.28,15.35-11.56,14.59
	c-2.27-0.75-16.29-5.68-31.07,7.77c-13.45-11.37-27.85,1.52-27.85,1.52s-13.65-8.53-24.83-3.79c-4.16-9.48-20.11-19.33-20.11-19.33
	s-10.58-36.95-15.7-42.82c-2.29-8.45-1.81-25.07-1.07-36.93c2.62,7.9,6.94,16.08,13.96,23.1c22.17,22.17,74.27,25.77,96.25,16.1
	c8.61-3.78,14.49-9.74,18.45-15.59c0.82,10.69,2.57,32.29,3.64,36.25C428.95,527.25,426.07,537.48,427.4,541.08z"/>
<path fill="#FFFFFF" stroke="#000000" stroke-miterlimit="10" d="M438.94,260.98c-2.14,3.8-3.77,6.15-4.09,6.6
	c-0.02,0.03-0.03,0.06-0.04,0.07c-0.01,0.01-0.01,0.02-0.01,0.02c-0.47,0.87-0.98,1.78-1.54,2.74c0,0,0,0,0,0.01
	c-6.17,10.53-17.74,25.11-33.9,23.4c-10.94-1.16-28.61-6.23-37.29-15.16c-7.32-7.53-11.36-12.44-13.27-14.92
	c-1.01-1.31-1.43-1.95-1.43-1.95s-39.17,152.66-55.63,167.5c0,0-0.26,1.8-0.37,4.85c-0.08,2.26-0.09,5.19,0.13,8.59v0.01
	c0.37,5.56,1.37,12.31,3.71,19.31v0.04c2.62,7.9,6.94,16.08,13.96,23.1c22.17,22.17,74.27,25.77,96.25,16.1
	c8.61-3.78,14.49-9.74,18.45-15.59c2.27-3.35,3.92-6.66,5.09-9.51c2-4.87,2.61-8.37,2.61-8.37s-0.37-9.27-0.72-22.86
	c-0.66-25.66-1.27-66.71,0.72-89.75c0.78-9.04,2.04-19,3.49-28.81c0-0.01,0-0.01,0-0.02c0.73-4.88,1.49-9.73,2.27-14.41v-0.02
	c0.7-4.17,1.4-8.21,2.08-12.02c2.99-16.81,5.61-29.22,5.61-29.22L438.94,260.98z M308.54,450c-3.14,0-5.69-3.66-5.69-8.17
	c0-4.52,2.55-8.18,5.69-8.18c3.14,0,5.68,3.66,5.68,8.18C314.22,446.34,311.68,450,308.54,450z M344.66,309.86
	c-2.72,0-4.92-3.45-4.92-7.7c0-4.26,2.2-7.71,4.92-7.71c2.72,0,4.93,3.45,4.93,7.71C349.59,306.41,347.38,309.86,344.66,309.86z
	 M384.3,464.35c-3.96,0-7.17-3.21-7.17-7.18c0-3.96,3.21-7.17,7.17-7.17c3.96,0,7.17,3.21,7.17,7.17
	C391.47,461.14,388.26,464.35,384.3,464.35z M411.17,373.53c-4.15,0-7.52-3.37-7.52-7.52c0-4.15,3.37-7.52,7.52-7.52
	c4.15,0,7.51,3.37,7.51,7.52C418.68,370.16,415.32,373.53,411.17,373.53z"/>
<path fill="#FFFFFF" stroke="#000000" stroke-miterlimit="10" d="M444.16,536.56c-2.49,9.28-17.94,32.21-41.82,45.12
	c-9.84,5.33-21.11,8.96-33.49,9.24c-42.44,0.94-54.76-10.61-67.07-27.1c-8.26-11.04-15.4-27.62-19.1-48.88v-0.01
	c-1.83-10.46-2.82-22.04-2.69-34.67c0.2-20.42,6.07-31.57,11.51-37.52c0.37,5.56,1.37,12.31,3.71,19.31v0.04
	c-0.74,11.86-1.22,28.48,1.07,36.93c5.12,5.87,15.7,42.82,15.7,42.82s15.95,9.85,20.11,19.33c11.18-4.74,24.83,3.79,24.83,3.79
	s14.4-12.89,27.85-1.52c14.78-13.45,28.8-8.52,31.07-7.77c2.28,0.76,12.89-10.99,11.56-14.59c-1.33-3.6,1.55-13.83,0.11-19.13
	c-1.07-3.96-2.82-25.56-3.64-36.25c2.27-3.35,3.92-6.66,5.09-9.51c0.79,1.69,12.45,26.81,12.08,37.8
	C440.79,521.57,442.05,528.98,444.16,536.56z"/>
<path fill="#FFFFFF" stroke="#000000" stroke-miterlimit="10" d="M457.6,351.83c-0.2,0.44-5.52,11.9-12.77,11.34
	c-2.86-0.22-2.16-9.89-3.41-21.79c-1.06-10.13-3.35-21.19-4.09-29.41v-0.02c0.7-4.17,1.4-8.21,2.08-12.02
	c0.36-0.22,0.78-0.36,1.25-0.42c7.44-0.88,15.16,22.35,15.16,22.35S454.59,334.83,457.6,351.83z"/>
<path fill="#FFFFFF" stroke="#000000" stroke-miterlimit="10" d="M435.36,169.91c-3.03-4.17-28.8-29.56-37.52-30.7
	c-8.71-1.14-29.67,21.98-29.67,21.98s-8.93,0.94-10.32-18.9v-0.01c0.47-1.41,0.95-2.8,1.45-4.16c0-0.01,0.01-0.02,0.01-0.03
	c6.35-8.32,17.91-23.74,32.47-26.54c6.58-1.27,12.05-0.62,16.43,0.8c0.01,0,0.02,0.01,0.02,0.01c3.62,1.96,8.52,4.93,13.09,8.75
	c3.83,3.2,7.44,6.99,9.87,11.28C431.19,132.39,430.68,161.32,435.36,169.91z"/>
<path fill="#FFFFFF" stroke="#000000" stroke-miterlimit="10" d="M408.21,112.35c-4.38-1.42-9.85-2.07-16.43-0.8
	c-14.56,2.8-26.12,18.22-32.47,26.54c6.16-17.38,12.78-31.18,13.14-32.98c0.76-3.79-5.68-65.99,12.13-68.05s18.19,72.59,18.19,72.59
	S404.97,110.59,408.21,112.35z"/>
<path fill="#FFFFFF" stroke="#000000" stroke-miterlimit="10" d="M418.68,366.01c0,4.15-3.36,7.52-7.51,7.52
	c-4.15,0-7.52-3.37-7.52-7.52c0-4.15,3.37-7.52,7.52-7.52C415.32,358.49,418.68,361.86,418.68,366.01z"/>
<path fill="#FFFFFF" stroke="#000000" stroke-miterlimit="10" d="M349.59,302.16c0,4.25-2.21,7.7-4.93,7.7
	c-2.72,0-4.92-3.45-4.92-7.7c0-4.26,2.2-7.71,4.92-7.71C347.38,294.45,349.59,297.9,349.59,302.16z"/>
<path fill="#FFFFFF" stroke="#000000" stroke-miterlimit="10" d="M314.22,441.83c0,4.51-2.54,8.17-5.68,8.17
	c-3.14,0-5.69-3.66-5.69-8.17c0-4.52,2.55-8.18,5.69-8.18C311.68,433.65,314.22,437.31,314.22,441.83z"/>
<path fill="#FFFFFF" stroke="#000000" stroke-miterlimit="10" d="M391.47,457.17c0,3.97-3.21,7.18-7.17,7.18
	c-3.96,0-7.17-3.21-7.17-7.18c0-3.96,3.21-7.17,7.17-7.17C388.26,450,391.47,453.21,391.47,457.17z"/>
<ellipse transform="matrix(0.2298 -0.9732 0.9732 0.2298 -361.2316 1164.7246)" fill="#FFFFFF" stroke="#000000" stroke-miterlimit="10" cx="555.23" cy="810.58" rx="8.34" ry="8.34"/>
<path fill="#FFFFFF" stroke="#000000" stroke-miterlimit="10" d="M626.25,814.14c0,4.6-3.73,8.33-8.33,8.33
	c-4.61,0-8.34-3.73-8.34-8.33c0-4.61,3.73-8.34,8.34-8.34C622.52,805.8,626.25,809.53,626.25,814.14z"/>
<path fill="#FFFFFF" stroke="#000000" stroke-miterlimit="10" d="M677.88,822.47c0,4.61-3.73,8.34-8.33,8.34
	c-4.61,0-8.34-3.73-8.34-8.34c0-4.6,3.73-8.33,8.34-8.33C674.15,814.14,677.88,817.87,677.88,822.47z"/>
<path fill="#FFFFFF" stroke="#000000" stroke-miterlimit="10" d="M525.39,267.86c-3.14,0.5-11.52-0.08-17.15-0.19
	c-12.88-0.25-22.86,8.34-26.4,13.14c-3.54,4.8,4.93-18.19,14.28-20.72c6.29-1.7,22.3,2.3,29.48,4.43
	C527.35,265.04,527.19,267.57,525.39,267.86z"/>
<path fill="#FFFFFF" stroke="#000000" stroke-miterlimit="10" d="M600.2,289.4c0,0-6.82-17.34-13.14-17.51
	c-4.37-0.12-13.83-0.08-19.23-0.04c-1.07,0.01-1.42-1.42-0.47-1.91c6.03-3.04,18.26-8.02,24.76-2.27
	C600.96,275.51,600.2,289.4,600.2,289.4z"/>
<path fill="#FFFFFF" stroke="#000000" stroke-miterlimit="10" d="M529.59,289.4c0,0-0.01,0.01-0.04,0.02
	c-0.29,0.07-2.44,0.39-11.71-3.43c-9.93-4.1-19.37,0.34-26.65,3.98c-0.06-0.04-0.12-0.08-0.17-0.12
	c4.21-6.21,11.54-12.19,19.37-11.57C518.35,278.92,529.84,289.15,529.59,289.4z"/>
<path fill="#FFFFFF" stroke="#000000" stroke-miterlimit="10" d="M592.21,294.97c-0.41-0.97-5.64-4.81-11.34-4.81
	c-4.34,0-12.81,1.24-17.03,1.91c1.84,1.78,8.23,7.61,13.94,8.57c6.76,1.14,14.46-5.56,14.46-5.56
	C592.24,295.05,592.23,295.01,592.21,294.97z M578.78,300.38c-2.62,0-4.73-2.12-4.73-4.73c0-2.62,2.11-4.73,4.73-4.73
	c2.61,0,4.73,2.11,4.73,4.73C583.51,298.26,581.39,300.38,578.78,300.38z"/>
<path fill="#FFFFFF" stroke="#000000" stroke-miterlimit="10" d="M592.21,294.97c-0.41-0.97-5.64-4.81-11.34-4.81
	c-4.34,0-12.81,1.24-17.03,1.91c-0.34-0.33-0.52-0.52-0.52-0.52s7.2-6.57,16.92-6.32C589.36,285.46,591.93,293.92,592.21,294.97z"/>
<path fill="#FFFFFF" stroke="#000000" stroke-miterlimit="10" d="M569.32,370.94c0,0.4-1.51,0.12-3.52-0.32
	c-2.78-0.63-6.52-1.58-8.61-1.58c-3.6,0-15.35,0.57-19.9,0.19c-2.77-0.23-9.89-0.09-15.01,0.07c-3.26,0.09-5.7,0.18-5.7,0.18
	s9.16-8.33,14.27-9.97c5.12-1.65,14.02,2.14,17.62,1.57c3.6-0.56,10.33-3.28,12.84-2.59C563.82,359.19,569.32,369.99,569.32,370.94z
	"/>
<path fill="#FFFFFF" stroke="#000000" stroke-miterlimit="10" d="M542.63,335.96c0,0-9.59-1.3-6.49-2.9
	C539.25,331.46,542.63,335.96,542.63,335.96z"/>
<path fill="#FFFFFF" stroke="#000000" stroke-miterlimit="10" d="M557.46,335.37c0.16-0.24,3.22-4.62,6.31-3.23
	C566.92,333.55,557.7,335.33,557.46,335.37z"/>
<path fill="#FFFFFF" stroke="#000000" stroke-miterlimit="10" d="M578.78,290.92c-2.62,0-4.73,2.11-4.73,4.73
	c0,2.61,2.11,4.73,4.73,4.73c2.61,0,4.73-2.12,4.73-4.73C583.51,293.03,581.39,290.92,578.78,290.92z M580.68,295.65
	c-0.73,0-1.32-0.59-1.32-1.33c0-0.73,0.59-1.32,1.32-1.32c0.74,0,1.33,0.59,1.33,1.32C582.01,295.06,581.42,295.65,580.68,295.65z"
	/>
<path fill="#FFFFFF" stroke="#000000" stroke-miterlimit="10" d="M582.01,294.32c0,0.74-0.59,1.33-1.33,1.33
	c-0.73,0-1.32-0.59-1.32-1.33c0-0.73,0.59-1.32,1.32-1.32C581.42,293,582.01,293.59,582.01,294.32z"/>
<path fill="#FFFFFF" stroke="#000000" stroke-miterlimit="10" d="M508.12,284.54c-3.42,0-6.19,2.44-6.19,5.46
	c0,3.01,2.77,5.46,6.19,5.46s6.2-2.45,6.2-5.46C514.32,286.98,511.54,284.54,508.12,284.54z M509.98,290.16
	c-0.58,0-1.04-0.62-1.04-1.39c0-0.77,0.46-1.39,1.04-1.39c0.57,0,1.04,0.62,1.04,1.39C511.02,289.54,510.55,290.16,509.98,290.16z"
	/>
<path fill="#FFFFFF" stroke="#000000" stroke-miterlimit="10" d="M511.02,288.77c0,0.77-0.47,1.39-1.04,1.39
	c-0.58,0-1.04-0.62-1.04-1.39c0-0.77,0.46-1.39,1.04-1.39C510.55,287.38,511.02,288,511.02,288.77z"/>
<path fill="#FFFFFF" stroke="#000000" stroke-miterlimit="10" d="M560.58,316.56c0.43,1.51,0.63,3.04,0.67,4.58
	c0.09,3.06-0.56,6.2-2.17,8.82c-1.59,2.64-4.08,4.59-6.81,5.83c2.65-1.41,4.96-3.48,6.38-6.08c1.43-2.59,1.91-5.61,1.69-8.53
	c-0.11-1.46-0.36-2.92-0.79-4.3l-1.59-4.21c-1.06-2.81-2.08-5.63-3.07-8.48c-0.96-2.85-1.94-5.71-2.65-8.69
	c-0.35-1.49-0.65-3.01-0.82-4.55c-0.08-0.73-0.13-1.66,0.03-2.5c0.14-0.84,0.42-1.61,0.73-2.35c0.63-1.47,1.5-2.77,2.42-4
	c0.92-1.24,1.94-2.38,3-3.47c1.05-1.1,2.18-2.11,3.32-3.1c1.15-0.99,2.32-1.94,3.56-2.8c-2.12,2.14-4.16,4.34-6.03,6.66
	c-1.84,2.32-3.62,4.75-4.66,7.38c-0.24,0.65-0.45,1.31-0.53,1.96c-0.09,0.66-0.03,1.24,0.07,2c0.17,1.44,0.47,2.87,0.83,4.3
	c0.73,2.86,1.61,5.72,2.53,8.57c0.89,2.86,1.8,5.73,2.64,8.62c0.11,0.37,0.22,0.73,0.34,1.1c0.02,0.09,0.04,0.18,0.07,0.27
	c0,0,0.01,0,0.01,0.01C560.03,314.58,560.29,315.57,560.58,316.56z"/>
<path fill="#FFFFFF" stroke="#000000" stroke-miterlimit="10" d="M570.38,332.53c-0.2,0.54-0.53,1.05-0.83,1.46
	c-0.3,0.43-0.66,0.85-1.07,1.23c-0.8,0.8-1.93,1.32-2.91,1.6c-0.98,0.29-1.88,0.52-2.76,0.86c-0.87,0.34-1.72,0.72-2.55,1.18
	c-0.42,0.21-0.83,0.46-1.23,0.71c-0.41,0.24-0.81,0.5-1.2,0.78c-0.76,0.51-1.66,1.16-2.59,1.63c-1.87,0.98-3.99,1.53-6.08,1.58
	c-4.23,0.13-8.1-1.45-11.76-2.18c-0.46-0.08-0.91-0.14-1.36-0.17l-1.48-0.05c-1.07-0.09-2.12-0.32-3.13-0.69
	c-1-0.4-1.93-0.95-2.76-1.64c-0.83-0.68-1.51-1.52-2.08-2.42c-0.57-0.9-0.94-1.89-1.25-2.88c-0.25-1.01-0.45-2.04-0.46-3.06
	c-0.18-2.11,0.55-4.2,1.57-5.92c1.04-1.74,2.36-3.26,3.78-4.65c1.42-1.38,2.96-2.63,4.6-3.72c-2.98,2.54-5.79,5.4-7.54,8.82
	c-0.86,1.71-1.39,3.54-1.14,5.38c0.07,0.94,0.29,1.85,0.54,2.74c0.32,0.87,0.67,1.72,1.19,2.47c0.52,0.74,1.11,1.42,1.83,1.97
	c0.71,0.54,1.49,0.97,2.33,1.29c0.84,0.29,1.73,0.46,2.63,0.51l1.46,0.02c0.54,0.02,1.06,0.08,1.58,0.16
	c2.04,0.34,3.92,0.94,5.8,1.36c1.87,0.44,3.74,0.74,5.58,0.67c1.84-0.07,3.63-0.49,5.25-1.34c0.83-0.42,1.53-0.91,2.41-1.5
	c0.41-0.28,0.84-0.56,1.28-0.81c0.43-0.27,0.87-0.52,1.33-0.76c0.89-0.49,1.85-0.88,2.82-1.23c0.97-0.35,1.98-0.58,2.89-0.83
	c0.91-0.25,1.62-0.57,2.24-1.15c0.6-0.56,1.24-1.35,1.56-2.04c0.67-1.52,0.42-3.46-0.16-5.23c-0.57-1.79-1.46-3.52-2.49-5.15
	c-1.78-2.9-4.02-5.51-6.47-7.93c0-0.01-0.01-0.01-0.01-0.01c-0.35-0.35-0.7-0.68-1.05-1.02c0.33,0.25,0.66,0.5,0.98,0.75
	c2.78,2.19,5.28,4.76,7.41,7.63c1.15,1.62,2.2,3.36,2.94,5.28c0.35,0.96,0.63,1.97,0.74,3.03
	C570.88,330.32,570.79,331.46,570.38,332.53z"/>
<path fill="#FFFFFF" stroke="#000000" stroke-miterlimit="10" d="M452.16,220.18c-1.34,17.24-8.52,32.48-13.22,40.8l-0.55-0.89
	c0,0-1.21,3.13-3.54,7.49c-0.02,0.03-0.03,0.06-0.04,0.07c-0.01,0.01-0.01,0.02-0.01,0.02c-0.47,0.87-0.98,1.78-1.54,2.74
	c0,0,0,0,0,0.01c-6.17,10.53-17.74,25.11-33.9,23.4c-10.94-1.16-28.61-6.23-37.29-15.16c-7.32-7.53-11.36-12.44-13.27-14.92
	l2.05-13.5c0,0-9.85-28.42-1.32-53.05c-3.05-15.3,2.12-36.61,8.32-54.9c1.39,19.84,10.32,18.9,10.32,18.9s-15.04,17.43-5.19,28.42
	c0.06-0.07,0.12-0.14,0.19-0.21c-1.65,9.83-4.06,30.21,5,26.74c11.86-4.55,18.47-15.92,29.46-15.92s21.81,22.74,27.12,12.51
	c5.3-10.24,4.92-23.12,4.92-23.12c4.62-7.77,5.81-14.72,5.96-19.38c1.2,1.33,3.5,2.06,5.97,2.45c0.52,0.08,1.05,0.15,1.58,0.2
	c0.96,2.2,2.31,5.53,3.69,9.69C450.02,192.07,453.27,205.86,452.16,220.18z"/>
<path fill="#FFFFFF" stroke="#000000" stroke-miterlimit="10" d="M424.75,212.73c-5.31,10.23-16.13-12.51-27.12-12.51
	s-17.6,11.37-29.46,15.92c-9.06,3.47-6.65-16.91-5-26.74c11.02-12.44,30.92-25.53,38.84-19.87c7.96,5.68,25.39,9.85,27.66,20.08
	C429.67,189.61,430.05,202.49,424.75,212.73z"/>
<path fill="#FFFFFF" stroke="#000000" stroke-miterlimit="10" d="M435.63,170.23c-0.15,4.66-1.34,11.61-5.96,19.38
	c-2.27-10.23-19.7-14.4-27.66-20.08c-7.92-5.66-27.82,7.43-38.84,19.87c-0.07,0.07-0.13,0.14-0.19,0.21
	c-9.85-10.99,5.19-28.42,5.19-28.42s20.96-23.12,29.67-21.98c8.72,1.14,34.49,26.53,37.52,30.7
	C435.44,170.02,435.53,170.13,435.63,170.23z"/>
<path fill="#FFFFFF" stroke="#000000" stroke-miterlimit="10" d="M473.61,168.88c-6.85,1.17-13.74,3.21-19.35,6.67l-2.99-2.61
	c0,0-4.01,0.35-8.09-0.06c-0.84-1.91-1.38-2.97-1.38-2.97l-0.2,2.77c-2.47-0.39-4.77-1.12-5.97-2.45c-0.1-0.1-0.19-0.21-0.27-0.32
	c-4.68-8.59-4.17-37.52-4.17-37.52C438.62,129.42,466.79,140.28,473.61,168.88z"/>
<path fill="#FFFFFF" stroke="#000000" stroke-miterlimit="10" d="M577.11,427.33c-9.87,5.32-31.79,13.21-65.2,4.05
	c-37.95-10.41-47.48-23.16-49.74-27.68c-0.02-3.69-0.21-7.39-0.38-10.06c9.13,3.9,19.47,11.04,30.13,18.32
	c0.01,0.01,0.03,0.02,0.04,0.03c12.64,8.64,25.73,17.46,37.76,21.28c19.26,6.12,39.02-2.08,47.12-8.85
	C576.74,425.31,576.78,426.31,577.11,427.33z"/>
<path fill="#FFFFFF" stroke="#000000" stroke-miterlimit="10" d="M790.25,814.13c-11.34-4.61-34.04,3.31-51.04,10.75h-0.01
	c-5.31,2.32-10.06,4.6-13.74,6.44l0.06-5.2l0.11-8.97c0,0,1.29-0.42,3.36-1.21c2.08-0.79,4.96-1.94,8.11-3.42
	c4.86-2.27,10.38-5.3,14.66-8.89c3.31-2.77,5.88-5.88,6.84-9.22c0.69-2.41,1.23-5.56,1.67-9.09v-0.01
	c1.23-10.13,1.52-23.42,1.57-31.68c6.82,0.16,18.4,0.34,25.41-0.02c0.73-0.04,1.42-0.08,2.04-0.13c0.29-0.72,0.51-1.75,0.66-3.04
	C789.95,750.44,791.57,788.73,790.25,814.13z"/>
<path fill="#FFFFFF" stroke="#000000" stroke-miterlimit="10" d="M789.95,750.44c-0.15,1.29-0.37,2.32-0.66,3.04
	c-0.62,0.05-1.31,0.09-2.04,0.13c-7.01,0.36-18.59,0.18-25.41,0.02c0.03-4.66-0.02-7.72-0.02-7.72s12.47-24.52,24.19-52.13
	C788.08,710.65,791.23,739.63,789.95,750.44z"/>
<path fill="#FFFFFF" stroke="#000000" stroke-miterlimit="10" d="M790.25,878.92c-0.96,1.14-65.38,0-65.38,0l0.59-47.6
	c3.68-1.84,8.43-4.12,13.74-6.44h0.01c17-7.44,39.7-15.36,51.04-10.75C790.25,814.13,791.2,877.78,790.25,878.92z"/>
</svg>
