<?xml version="1.0" encoding="utf-8"?>
<!-- Generator: Adobe Illustrator 25.2.0, SVG Export Plug-In . SVG Version: 6.00 Build 0)  -->
<svg version="1.1" baseProfile="tiny" id="Layer_1" xmlns="http://www.w3.org/2000/svg" xmlns:xlink="http://www.w3.org/1999/xlink"
	 x="0px" y="0px" viewBox="0 0 1000 1000" overflow="visible" xml:space="preserve">
<path fill="#FFFFFF" stroke="#000000" stroke-miterlimit="10" d="M496.99,90.55c-4.22-0.66-11.93-0.79-16.78,5.68
	c-6.61,8.82-8.87,31.83-3.25,49.69c-1.74,3.83-3.26,7.83-4.64,11.51c-7.6-0.71-27.45-5.06-30.61-7.38c-3.38-2.5-4.1-16.22-4.1-16.22
	s3.03-16.75,5.71-20.49c0.79-1.1,0.74-1.73,0.28-2.06c6.01-7.22,25.73-27.91,51.02-22.73C495.45,89.21,496.23,89.87,496.99,90.55z"
	/>
<path fill="#FFFFFF" stroke="#000000" stroke-miterlimit="10" d="M482.91,81.08c-21.44-0.13-39.19,18.98-41.02,20.14
	c-1.96,1.25-24.59,1.78-27.27,0c-1.76-1.17,6.3-10.85,12-17.32c14.31-8.2,32.76-13.03,50.91-5.32
	C479.42,79.38,481.21,80.22,482.91,81.08z"/>
<path fill="#FFFFFF" stroke="#000000" stroke-miterlimit="10" d="M443.6,111.28c6.01-7.22,25.73-27.91,51.02-22.73
	c-3.33-2.67-7.18-5.18-11.69-7.47c-0.01,0-0.01,0-0.02,0c-21.44-0.13-39.19,18.98-41.02,20.14c-1.96,1.25-24.59,1.78-27.27,0
	c-1.76-1.17,6.3-10.85,12-17.32c-12.17,6.98-21.35,16.39-24.81,22.62c0.91,3.3,1.94,8.42,1.29,12.92l-2.93,10.91
	c0.07,0.04,0.13,0.07,0.2,0.1c-0.72,1.96-1.25,21.56,1.24,24.77c2.5,3.21,6.42,6.41,8.56,11.58c1.52,3.68-0.21,11.34-1.33,15.44
	c-0.32,1.18,0.78,2.24,1.94,1.89c0.22-0.06,0.44-0.13,0.68-0.21c5.34-1.6,15.45-4.46,19.56-4.46c0.25,0,0.53-0.01,0.85-0.03
	c6.8-0.36,27.58-4.59,33.37-7.99c1.8-1.05,3.48-4.71,5.35-9.48c0.56-1.42,1.13-2.95,1.73-4.53c-7.6-0.71-27.45-5.06-30.61-7.38
	c-3.38-2.5-4.1-16.22-4.1-16.22l-11.76-10.33l-0.14-1.11l-0.93-7.45l14.26-3.56C439.04,111.38,442.5,110.49,443.6,111.28z
	 M441.71,161.75c-5.82,9.03-16.93,2.74-16.93,2.74S431.26,155.69,441.71,161.75z"/>
<path fill="#FFFFFF" stroke="#000000" stroke-miterlimit="10" d="M403.1,119.44c-11.92-2.01-19.51-5.39-23.38-7.53
	c3.33-0.67,14.96-3.07,22.07-5.35c0.01-0.01,0.01-0.03,0.02-0.04C402.72,109.82,403.75,114.94,403.1,119.44z"/>
<path fill="#FFFFFF" stroke="#000000" stroke-miterlimit="10" d="M403.1,119.44l-2.93,10.91c-8.56-4.05-21.37-18.26-21.37-18.26
	s0.33-0.06,0.92-0.18C383.59,114.05,391.18,117.43,403.1,119.44z"/>
<path fill="#FFFFFF" stroke="#000000" stroke-miterlimit="10" d="M508.01,153.44l-0.16-0.17l-1.98-2.15c0,0-0.18-28.16-14.97-22.28
	c-6.07,2.41-10.46,9.41-13.94,17.08c-5.62-17.86-3.36-40.87,3.25-49.69c4.85-6.47,12.56-6.34,16.78-5.68l0.01,0.01
	C525.44,115.99,508.01,153.44,508.01,153.44z"/>
<path fill="#FFFFFF" stroke="#000000" stroke-miterlimit="10" d="M443.32,113.34c-2.68,3.74-5.71,20.49-5.71,20.49l-11.76-10.33
	l-0.14-1.11l16-8.7c0,0,0.65-0.92,1.89-2.41C444.06,111.61,444.11,112.24,443.32,113.34z"/>
<path fill="#FFFFFF" stroke="#000000" stroke-miterlimit="10" d="M443.6,111.28c-1.24,1.49-1.89,2.41-1.89,2.41l-16,8.7l-0.93-7.45
	l14.26-3.56C439.04,111.38,442.5,110.49,443.6,111.28z"/>
<path fill="#FFFFFF" stroke="#000000" stroke-miterlimit="10" d="M430.54,185.04c-2.13,1.66-4.63,0.95-7.24,1.78
	c-1.49,0.47-3.09,2.1-4.97,3.19c-1.41,0.84-2.99,1.36-4.78,0.85c-3.09-0.89-2.56-4.94-2.09-6.94c5.34-1.6,15.45-4.46,19.56-4.46
	c0.25,0,0.53-0.01,0.85-0.03C432.64,181.25,431.9,183.99,430.54,185.04z"/>
<path fill="#FFFFFF" stroke="#000000" stroke-miterlimit="10" d="M434.23,195.61c0,0-0.03,0.02-0.1,0.05
	c-1.11,0.1-10.25-0.48-14.4-0.05c0.26-0.78,0.17-1.71-0.11-2.66C422.51,192.45,428.01,192.22,434.23,195.61z"/>
<path fill="#FFFFFF" stroke="#000000" stroke-miterlimit="10" d="M467.69,213c-4.74,1.03-8.94,0.41-11.72,1.15
	c-0.84,0.22-2.17,0.65-3.8,1.15c-6.22,1.9-16.93,4.82-22.58,1.34c-5.03-3.1-5.5-7.45-5.38-10.82c0.05-1.41,0.2-2.64,0.16-3.55
	c-0.05-1.27-0.51-2.32-1.05-3.11c3.55-0.2,9.94-3.1,10.81-3.5c0.1-0.01,0.14-0.03,0.1-0.05c-6.22-3.39-11.72-3.16-14.61-2.66
	c-0.29-1.02-0.8-2.06-1.29-2.94c1.88-1.09,3.48-2.72,4.97-3.19c2.61-0.83,5.11-0.12,7.24-1.78c1.36-1.05,2.1-3.79,1.33-5.61
	c6.8-0.36,27.58-4.59,33.37-7.99c1.8-1.05,3.48-4.71,5.35-9.48C474.96,170.34,486.73,197.22,467.69,213z"/>
<path fill="#FFFFFF" stroke="#000000" stroke-miterlimit="10" d="M434.13,195.66c-0.87,0.4-7.26,3.3-10.81,3.5h-0.01
	c-0.68,0.04-1.26-0.02-1.67-0.22c-2.73-1.31-1.91-3.33-1.91-3.33C423.88,195.18,433.02,195.76,434.13,195.66z"/>
<path fill="#FFFFFF" stroke="#000000" stroke-miterlimit="10" d="M452.34,409.59c-1.6,4.76,0,17.24,0,17.24
	c-2.02,0.39-4.15,1.02-6.13,2.01c-4.43-0.41-8.57-0.85-12.35-1.28c-2.16-8.23-3.9-16.49-5.87-19.63
	c-6.35-2.48-11.48-5.18-14.78-7.09c-0.33-5.77-0.61-9.54-0.61-9.54s-4.63-12-4.39-20.56c0.09-3.25-0.18-5.73-0.65-8.02
	c3.88,1.72,8.66,3.2,13.34,3c0.7-0.03,1.4-0.1,2.1-0.21c4.99,3.21,8.44,17.47,11.35,20.68c2.5,2.75,11.63,11.14,22.72,15.6
	C456.54,404.02,453.58,405.93,452.34,409.59z"/>
<path fill="#FFFFFF" stroke="#000000" stroke-miterlimit="10" d="M575.84,421.5c-8.03,2.63-16.74,4.63-25.83,6.12
	c1.51-2.85,2.8-5.54,3.62-7.75c3.57-9.62,1.07-18.36,1.07-18.36s10-3.23,15.89-4.39C569.93,408.84,575.41,414.74,575.84,421.5z"/>
<path fill="#FFFFFF" stroke="#000000" stroke-miterlimit="10" d="M574.44,380.62c-0.02,3.95-2.9,3.34-3.82,15.9
	c-0.01,0.2-0.03,0.4-0.03,0.6c-5.89,1.16-15.89,4.39-15.89,4.39s2.5,8.74-1.07,18.36c-0.82,2.21-2.11,4.9-3.62,7.75
	c-5.26,0.86-10.65,1.55-16.11,2.1c-0.64-0.38-1.34-0.67-2.09-0.9v-0.01c2.39-12.31-0.63-27.3-0.63-27.3s6.24-4.27,12.65-8.37
	c4.79-3.06,11.75-14.01,14.98-19.38C564.67,377.95,570.77,379.82,574.44,380.62z"/>
<path fill="#FFFFFF" stroke="#000000" stroke-miterlimit="10" d="M574.43,380.13c0.01,0.17,0.01,0.34,0.01,0.49
	c-3.67-0.8-9.77-2.67-15.63-6.86c-0.24-0.17-0.48-0.34-0.72-0.52c-6.74-5.04,1.47-10.17,6.74-12.71c0.24,0.34,0.37,0.53,0.37,0.53
	s5.92-0.09,9.64,1.22C573.49,370.04,574.3,377.6,574.43,380.13z"/>
<path fill="#FFFFFF" stroke="#000000" stroke-miterlimit="10" d="M578.58,443.22c-0.14,2.29-2.29,4.81-7.15,7.14
	c-3.42,1.65-8.19,3.2-14.54,4.52c-7.08,1.46-16.13,2.63-27.49,3.31c-20.05,1.19-51.78,1.31-77.2,0.73
	c-19.35-0.43-35.05-1.28-39.12-2.36h-0.01c-0.19-0.05-0.34-0.1-0.47-0.15c1.63-5.91,1.87-18.72,1.6-31.42
	c4.07,0.61,10.9,1.58,19.66,2.57c1.29,4.96,2.73,9.9,4.47,13.72v0.01c-0.33,16.48,21.58,14.58,21.58,14.58l0.25-5.31
	c7.79,0.44,42.37,2.27,59.79,1.35v5.57c0,0,19.82,1.91,19.79-12.64c2.62-4.07,6.96-11,10.27-17.22c9.09-1.49,17.8-3.49,25.83-6.12
	c0.04,0.54,0.04,1.09,0.01,1.64C575.38,430.74,578.94,437.51,578.58,443.22z"/>
<path fill="#FFFFFF" stroke="#000000" stroke-miterlimit="10" d="M433.86,427.56c-8.76-0.99-15.59-1.96-19.66-2.57
	c-0.19-8.9-0.62-17.76-0.99-24.15c3.3,1.91,8.43,4.61,14.78,7.09C429.96,411.07,431.7,419.33,433.86,427.56z"/>
<path fill="#FFFFFF" stroke="#000000" stroke-miterlimit="10" d="M441.42,332.15l-20.52,33.57c-4.68,0.2-9.46-1.28-13.34-3v-0.01
	c-0.79-3.74-2.14-6.92-3.39-11.93c-2.02-8.08-1.67-14.85-1.55-18.41c0.1-3.05-0.75-6.54-2.56-8.67c-0.31-0.36-0.64-0.69-1-0.96
	c1.11-7.67,0.99-14.47,0.08-20.62c0.03-2.89,0.06-7.15,0.08-11.97l39.28,42.13L441.42,332.15z"/>
<path fill="#FFFFFF" stroke="#000000" stroke-miterlimit="10" d="M407.12,210.87c-1.96,5.43-5.45,15.74-7.34,25.34v0.01
	c-6.07,1.52-21.89,9.93-21.89,9.93c-2.61-12.24-2.3-23.39-1.28-25.08c0.02-0.03,0.03-0.05,0.04-0.06c0-0.02,0.01-0.03,0.01-0.03
	c9.54,1.52,26.47-6.33,29.59-9.45C406.47,211.31,406.76,211.09,407.12,210.87z"/>
<path fill="#FFFFFF" stroke="#000000" stroke-miterlimit="10" d="M413.97,244.62c-7.69,4.36-13.59,7.7-14.85,8.35
	c-0.46-1.63-0.65-3.6-0.63-5.78c0.03-3.29,0.53-7.06,1.29-10.97v-0.01c1.89-9.6,5.38-19.91,7.34-25.34
	c2.44-1.51,7.8-2.98,12.33-4.02C417.2,214.24,410.96,236.35,413.97,244.62z"/>
<path fill="#FFFFFF" stroke="#000000" stroke-miterlimit="10" d="M456.46,220.78c-8.5,4.54-28.46,15.89-42.49,23.84
	c-3.01-8.27,3.23-30.38,5.48-37.77c1.8-0.42,3.46-0.77,4.76-1.03c-0.12,3.37,0.35,7.72,5.38,10.82c5.65,3.48,16.36,0.56,22.58-1.34
	C453.46,216.84,454.92,218.71,456.46,220.78z"/>
<path fill="#FFFFFF" stroke="#000000" stroke-miterlimit="10" d="M615.83,357.92c-0.87,3.25-1.78,3.98-1.78,3.98
	s-25.74,1.9-34.98,0.47c-0.5-3.56-0.92-6.82-1.23-9.5c-1.51,2.94-2.44,6.19-3,9.41c-3.72-1.31-9.64-1.22-9.64-1.22
	s-0.13-0.19-0.37-0.53c-1.67-2.35-8.66-12.09-16.5-21.12l-0.03-0.05l-1.2-1.67c6.02-5.79,28.86-34.39,34.89-41.97
	c1.19,3.96,1.47,7.42,1.47,7.42l11.52-45.8c0.07-0.2,0.14-0.41,0.21-0.62c3.75,8.69,20.47,48.68,21.89,73.51
	C617.97,345.8,616.93,353.84,615.83,357.92z"/>
<path fill="#FFFFFF" stroke="#000000" stroke-miterlimit="10" d="M521.42,194.94c-1.9,5.65-5.74,15.83-9.31,19.27
	c-2.6,2.5-6.31,7.57-9.28,11.95h-0.01c-3.43,1.2-7.14,2.13-11.03,2.66c-4.67,0.63-9.94,0.44-15.06-0.14
	c9.22-6.54,29.26-21.2,33.24-28.73c1.33-2.52,2.39-4.57,3.22-6.2c0.04,0.05,0.07,0.09,0.11,0.14
	C515.93,194.13,518.64,194.48,521.42,194.94z"/>
<path fill="#FFFFFF" stroke="#000000" stroke-miterlimit="10" d="M528.33,196.24c-0.95,5.99-3.07,12.25-4.64,15.29
	c-2.41,4.71-10.32,10.94-20.86,14.63c2.97-4.38,6.68-9.45,9.28-11.95c3.57-3.44,7.41-13.62,9.31-19.27
	C523.69,195.31,526,195.75,528.33,196.24z"/>
<path fill="#FFFFFF" stroke="#000000" stroke-miterlimit="10" d="M513.19,193.75c-0.83,1.63-1.89,3.68-3.22,6.2
	c-3.98,7.53-24.02,22.19-33.24,28.73c-6.3-0.72-12.37-2.03-16.77-3.13c-0.45-0.64-0.91-1.26-1.36-1.88
	c6.92-3.69,24.29-8.05,34.44-16.65c9.54-8.09,14.39-18.37,16.15-22.75C510.08,188.04,511.38,191.32,513.19,193.75z"/>
<path fill="#FFFFFF" stroke="#000000" stroke-miterlimit="10" d="M521.85,227.22c-7.72,10.37-14.47,23.88-14.47,23.88
	s-3.97,0.16-9.27,0.3c-4.41,0.12-9.75,0.23-14.47,0.23c-5.24,0-9.72-0.13-11.39-0.53c-2.91-6.77-12.11-17.79-15.43-21.66
	c1.67-0.68,3.24-1.27,4.68-1.74c7.07,9.98,14.07,20.73,14.07,20.73s20.5-1.61,29.59-0.9c4.5-11.37,9-18.31,12.65-22.56
	L521.85,227.22z"/>
<path fill="#FFFFFF" stroke="#000000" stroke-miterlimit="10" d="M596.57,248.53c-0.24,3.13-0.67,5.96-1.38,8.19
	c-0.07,0.21-0.14,0.42-0.21,0.62c-5.64-4.19-58.38-34.4-68.53-40.2c1.36-3.02,4.28-11.61,5.73-20.04
	c26.23,6.15,54.41,18.58,63.3,23.18C596.18,226.59,597.29,238.95,596.57,248.53z"/>
<path fill="#FFFFFF" stroke="#000000" stroke-miterlimit="10" d="M611.71,253.2c-0.05,0.02-0.11,0.03-0.16,0.04
	c-6.96,1.06-12.35-2.47-14.98-4.71c0.72-9.58-0.39-21.94-1.09-28.25c0.65,0.34,1.2,0.63,1.64,0.88c7.68,4.36,13.65,10.66,18.15,17.8
	C616.54,245.52,616.59,252.32,611.71,253.2z"/>
<path fill="#FFFFFF" stroke="#000000" stroke-miterlimit="10" d="M626.73,279.61c-5.75,0.12-9.31-1.07-9.31-1.07l-0.03-0.11
	l-0.39-1.75l-5.29-23.48c4.88-0.88,4.83-7.68,3.56-14.24C623.45,251.93,626.79,267.68,626.73,279.61z"/>
<path fill="#FFFFFF" stroke="#000000" stroke-miterlimit="10" d="M652.62,445.55c-14,12.78-32.21,13.35-38.84,13.71
	c-10.55-19.01-18.85-47.14-25.81-60.12c-4.09-7.64-7.09-24.11-8.9-36.77c9.24,1.43,34.98-0.47,34.98-0.47s0.91-0.73,1.78-3.98
	c3.3-1.66,7.25-4.03,10.88-7.2c0.95-0.83,1.87-1.71,2.76-2.65c0.73,4.98,1.53,9.07,2.4,11.74c4.1,12.66,13.55,35.82,16.04,58.28
	C648.84,426.44,650.64,436.21,652.62,445.55z"/>
<path fill="#FFFFFF" stroke="#000000" stroke-miterlimit="10" d="M658.91,472.38c0,0-3.1,2.56-13.79,6.12
	c-10.69,3.57-20.7,4.23-20.7,4.23c-0.9-2.66-1.95-5.51-3.18-8.46c6.54,2.02,27.44-7.29,30.89-9.07c1.45-0.75,3.06-1.62,4.3-2.93
	C657.34,466.05,658.19,469.49,658.91,472.38z"/>
<path fill="#FFFFFF" stroke="#000000" stroke-miterlimit="10" d="M657.59,516.52c0,0-5.81,13.09-12.66,16.27
	c-0.15-2.09-0.49-3.67-1.12-4.38c-0.35-0.4-0.7-0.73-1.04-1c-0.92-13.6-17.14-16.2-17.14-16.2c-0.8-4.64,2.5-11.08,2.97-11.37
	c0.13-0.08-0.03-1.51-0.53-3.92c1.17-0.04,3.67,0.02,7.54,0.76c5.17,0.99,15.32-1.48,19.54-2.51l-0.65,20.69L657.59,516.52z"/>
<path fill="#FFFFFF" stroke="#000000" stroke-miterlimit="10" d="M642.77,527.41c-2.74-2.15-5.15-0.11-9.12,1.71
	c-0.27,0.13-0.58,0.29-0.91,0.48c-2.6,1.48-6.92,4.77-10.91,7.62c-3.84,2.75-7.37,5.08-8.76,5c-0.6-0.04-1.25-0.28-1.86-0.68
	c-2.49-1.6-4.53-5.77-1.53-9.48c3.75-4.63,16.76-16.22,15.95-20.85C625.63,511.21,641.85,513.81,642.77,527.41z"/>
<path fill="#FFFFFF" stroke="#000000" stroke-miterlimit="10" d="M660.39,526.36c-0.43,9.36-2.53,23.68-5.45,34.73
	c-3.74-4.3-10.2-3.82-12.19-3.56c0.59-3.57,1.71-11.22,2.1-17.84c0.15-2.56,0.2-4.95,0.08-6.9c6.85-3.18,12.66-16.27,12.66-16.27
	l-3.09-1.66l0.65-20.69c0.34-0.08,0.64-0.16,0.9-0.22c1.55-0.37,3.81-1.6,5.61-3.51C661.76,501.12,660.83,516.57,660.39,526.36z"/>
<path fill="#FFFFFF" stroke="#000000" stroke-miterlimit="10" d="M654.94,561.09c-1.39,5.26-2.96,9.77-4.62,12.67
	c-5.17,9-19.16,14.35-20.5,5.26c-0.2-1.37-0.16-2.57,0.06-3.6c1.17-5.79,7.78-6.56,7.78-6.56s4.37-7.93,4.73-9.36
	c0.05-0.2,0.18-0.9,0.36-1.97C644.74,557.27,651.2,556.79,654.94,561.09z"/>
<path fill="#FFFFFF" stroke="#000000" stroke-miterlimit="10" d="M507.93,176.75c-0.38,0.31-0.81,0.67-1.27,1.08
	c-2.38,2.07-5.7,5.31-8.81,9.53c-3.87,5.24-19.98,17.97-29.92,25.59c-0.08,0.02-0.16,0.04-0.24,0.05
	c19.04-15.78,7.27-42.66,2.9-51.04c0.56-1.42,1.13-2.95,1.73-4.53c1.38-3.68,2.9-7.68,4.64-11.51c3.48-7.67,7.87-14.67,13.94-17.08
	c14.79-5.88,14.97,22.28,14.97,22.28l1.98,2.15c-0.4,5.55-0.65,12.21-0.3,18.68C507.64,173.57,507.76,175.18,507.93,176.75z"/>
<path fill="#FFFFFF" stroke="#000000" stroke-miterlimit="10" d="M532.18,197.1c-1.45,8.43-4.37,17.02-5.73,20.04
	c-0.29,0.65-0.5,1.04-0.62,1.12c-0.58,0.41-3.71,1.69-8.02,6.71c-3.65,4.25-8.15,11.19-12.65,22.56c-9.09-0.71-29.59,0.9-29.59,0.9
	s-7-10.75-14.07-20.73c-0.52-0.72-1.03-1.44-1.54-2.15c4.4,1.1,10.47,2.41,16.77,3.13c5.12,0.58,10.39,0.77,15.06,0.14
	c3.89-0.53,7.6-1.46,11.03-2.66h0.01c10.54-3.69,18.45-9.92,20.86-14.63c1.57-3.04,3.69-9.3,4.64-15.29
	C529.61,196.51,530.89,196.8,532.18,197.1z"/>
<path fill="#FFFFFF" stroke="#000000" stroke-miterlimit="10" d="M532.18,197.1c-1.29-0.3-2.57-0.59-3.85-0.86
	c1-6.3,0.71-12.29-2.85-13.93c-4.99-2.3-13.17-3.69-17.4-4.28c-0.05-0.42-0.1-0.85-0.15-1.28c-0.17-1.57-0.29-3.18-0.38-4.8
	c8.21,0.49,20.62,2.29,23.98,8.57C533.53,184.25,533.29,190.63,532.18,197.1z"/>
<path fill="#FFFFFF" stroke="#000000" stroke-miterlimit="10" d="M528.33,196.24c-2.33-0.49-4.64-0.93-6.91-1.3
	c-2.78-0.46-5.49-0.81-8.12-1.05c-0.04-0.05-0.07-0.09-0.11-0.14c-1.81-2.43-3.11-5.71-4-9.48c0-0.01,0-0.01,0-0.01
	c-0.48-1.97-0.84-4.05-1.11-6.23c4.23,0.59,12.41,1.98,17.4,4.28C529.04,183.95,529.33,189.94,528.33,196.24z"/>
<path fill="#FFFFFF" stroke="#000000" stroke-miterlimit="10" d="M594.98,257.34l-11.52,45.8c0,0-0.28-3.46-1.47-7.42
	c-0.43-1.41-0.97-2.88-1.66-4.28c-0.5-1.03-1.08-2.02-1.75-2.92c-2.7-3.64-2.57-15.48-2.14-23.3c0.05-0.89,0.1-1.73,0.15-2.5
	c0.2-2.85,0.39-4.73,0.39-4.73l-55.13-30.77l-4.04-2.25c4.31-5.02,7.44-6.3,8.02-6.71c0.12-0.08,0.33-0.47,0.62-1.12
	C536.6,222.94,589.34,253.15,594.98,257.34z"/>
<path fill="#FFFFFF" stroke="#000000" stroke-miterlimit="10" d="M629.47,348.07c-0.89,0.94-1.81,1.82-2.76,2.65
	c-0.35-4.45-1.16-14.21-1.97-19.6c-1.07-7.13-4.1-26.2-7.32-34.58c-2.27-5.88-0.99-13.88-0.03-18.11l0.03,0.11
	c0,0,3.56,1.19,9.31,1.07c-0.01,1.63-0.08,3.17-0.21,4.64C625.26,298.6,626.77,329.47,629.47,348.07z"/>
<path fill="#FFFFFF" stroke="#000000" stroke-miterlimit="10" d="M615.83,357.92c1.1-4.08,2.14-12.12,1.25-27.69
	c-1.42-24.83-18.14-64.82-21.89-73.51c0.71-2.23,1.14-5.06,1.38-8.19c2.63,2.24,8.02,5.77,14.98,4.71c0.05-0.01,0.11-0.02,0.16-0.04
	l5.29,23.48l0.39,1.75c-0.96,4.23-2.24,12.23,0.03,18.11c3.22,8.38,6.25,27.45,7.32,34.58c0.81,5.39,1.62,15.15,1.97,19.6
	C623.08,353.89,619.13,356.26,615.83,357.92z"/>
<path fill="#FFFFFF" stroke="#000000" stroke-miterlimit="10" d="M656.43,462.27c-1.24,1.31-2.85,2.18-4.3,2.93
	c-3.45,1.78-24.35,11.09-30.89,9.07c-6.53-2.02-9.96-13.65-7.46-15.01c6.63-0.36,24.84-0.93,38.84-13.71h0.01
	c0.26,0.05,3.73,0.8,5.44,8C659.1,457.87,658.11,460.49,656.43,462.27z"/>
<path fill="#FFFFFF" stroke="#000000" stroke-miterlimit="10" d="M661.66,490.44c-1.8,1.91-4.06,3.14-5.61,3.51
	c-0.26,0.06-0.56,0.14-0.9,0.22c-4.22,1.03-14.37,3.5-19.54,2.51c-3.87-0.74-6.37-0.8-7.54-0.76c-0.51,0.02-0.77,0.05-0.77,0.05
	s-6.18-8.79-2.88-13.24c0,0,10.01-0.66,20.7-4.23c10.69-3.56,13.79-6.12,13.79-6.12s0,0,0.01,0c0.21,0.08,2.92,1.19,5.21,8.26
	C665.44,484.71,663.89,488.09,661.66,490.44z"/>
<path fill="#FFFFFF" stroke="#000000" stroke-miterlimit="10" d="M452.34,426.83c-2.02,0.39-4.15,1.02-6.13,2.01
	c-4.19,2.07-7.68,5.75-7.88,12.22c0,0.07-0.01,0.15,0,0.22v0.01c-0.33,16.48,21.58,14.58,21.58,14.58l0.25-5.31l0.8-16.66l0.18-3.84
	l0.18-3.81C461.32,426.25,457.14,425.89,452.34,426.83z M456.45,451.83l-8.56-0.39l0.48-20.82h8.43L456.45,451.83z"/>
<path fill="#FFFFFF" stroke="#000000" stroke-miterlimit="10" d="M446.21,428.84c-4.19,2.07-7.68,5.75-7.88,12.22
	c0,0.07-0.01,0.15,0,0.22c-1.74-3.82-3.18-8.76-4.47-13.72C437.64,427.99,441.78,428.43,446.21,428.84z"/>
<path fill="#FFFFFF" stroke="#000000" stroke-miterlimit="10" d="M539.73,444.29c-0.28-8.1-2.15-12.47-5.83-14.57
	c-0.77,0.07-1.55,0.15-2.33,0.22c0.09-0.37,0.17-0.74,0.24-1.12v-0.01c-1.72-0.54-3.72-0.76-6.03-0.75
	c-1.76,0.01-3.7,0.13-5.83,0.37v29.05c0,0,19.82,1.91,19.79-12.64C539.74,444.66,539.74,444.48,539.73,444.29z M531.42,454.15
	l-7.96,0.59v-22.45h7.96V454.15z"/>
<path fill="#FFFFFF" stroke="#000000" stroke-miterlimit="10" d="M550.01,427.62c-3.31,6.22-7.65,13.15-10.27,17.22
	c0-0.18,0-0.36-0.01-0.55c-0.28-8.1-2.15-12.47-5.83-14.57C539.36,429.17,544.75,428.48,550.01,427.62z"/>
<polygon fill="#FFFFFF" stroke="#000000" stroke-miterlimit="10" points="456.8,430.62 456.45,451.83 447.89,451.44 448.37,430.62 
	"/>
<polygon fill="#FFFFFF" stroke="#000000" stroke-miterlimit="10" points="531.42,432.29 531.42,454.15 523.46,454.74 523.46,432.29 
	"/>
<path fill="#FFFFFF" stroke="#000000" stroke-miterlimit="10" d="M460.96,433.9l-0.8,16.66c7.79,0.44,42.37,2.27,59.79,1.35v-16.94
	C495.08,436,466.72,434.28,460.96,433.9z M465.79,445.93c-1.68,0-3.05-1.37-3.05-3.05c0-1.69,1.37-3.05,3.05-3.05
	c1.69,0,3.06,1.36,3.06,3.05C468.85,444.56,467.48,445.93,465.79,445.93z M514.86,445.93c-1.68,0-3.05-1.37-3.05-3.05
	c0-1.69,1.37-3.05,3.05-3.05c1.69,0,3.06,1.36,3.06,3.05C517.92,444.56,516.55,445.93,514.86,445.93z"/>
<path fill="#FFFFFF" stroke="#000000" stroke-miterlimit="10" d="M468.85,442.88c0,1.68-1.37,3.05-3.06,3.05
	c-1.68,0-3.05-1.37-3.05-3.05c0-1.69,1.37-3.05,3.05-3.05C467.48,439.83,468.85,441.19,468.85,442.88z"/>
<path fill="#FFFFFF" stroke="#000000" stroke-miterlimit="10" d="M517.92,442.88c0,1.68-1.37,3.05-3.06,3.05
	c-1.68,0-3.05-1.37-3.05-3.05c0-1.69,1.37-3.05,3.05-3.05C516.55,439.83,517.92,441.19,517.92,442.88z"/>
<path fill="#FFFFFF" stroke="#000000" stroke-miterlimit="10" d="M365.97,252.35l-6.77,22.45l3.74,1.61c0,0-16.93,51.86-20.14,57.56
	c-2.8,4.98-10.64,16.77-12.93,24.06c-3.53-2.5-6.07-4.89-7.83-6.83c0.3-0.4,0.63-0.82,0.98-1.25c4.75-5.94,19.96-65.35,28.99-85.78
	c8.7-19.7,23.52-41.54,24.6-43.1c-1.02,1.69-1.33,12.84,1.28,25.08L365.97,252.35z"/>
<path fill="#FFFFFF" stroke="#000000" stroke-miterlimit="10" d="M361.75,412.35v0.01c-3.1,15.73-7.14,27.63-10.66,39.77
	c-2.17,7.45-4.56,20.92-6.43,32.66c-2.39-4.45-6.98-9.19-15.76-11.45c-16.92-4.37-23.32-0.7-23.32-0.7
	c0.92-15.74,1.35-42.03,2.29-57.14c1.14-18.2,4.1-25.39,6.3-30.43C320.44,386.89,337.83,393.23,361.75,412.35z"/>
<path fill="#FFFFFF" stroke="#000000" stroke-miterlimit="10" d="M367.75,375.92c-0.39,1.84-1.49,7.65-3.92,24.35
	c-0.63,4.29-1.32,8.29-2.08,12.08c-23.92-19.12-41.31-25.46-47.58-27.28c0.23-0.51,0.44-1,0.65-1.47c2.23-5.16,0.63-14.25,1.34-19.6
	c0.66-4.96,1.91-7.69,5.88-12.8c1.76,1.94,4.3,4.33,7.83,6.83c2.37,1.68,5.18,3.41,8.5,5.07c1.71,0.87,3.57,1.71,5.56,2.53
	C354.79,370.08,362.77,373.63,367.75,375.92z"/>
<path fill="#FFFFFF" stroke="#000000" stroke-miterlimit="10" d="M342.79,497.04c-0.5,3.39-0.89,6.14-1.13,7.88
	c-2.47-2.29-18.24-15.69-40.29-7.57c0.67-2.81,1.33-5.51,1.88-7.91c0,0,0,0,0.01-0.01c0.37-0.16,9.53-4.11,19.31-2.37
	C332.55,488.84,342.78,497.04,342.79,497.04C342.78,497.04,342.78,497.04,342.79,497.04z"/>
<path fill="#FFFFFF" stroke="#000000" stroke-miterlimit="10" d="M342,518.34c-0.06-0.07-0.13-0.13-0.19-0.19
	c-6.04-6.19-12.69-9.08-16.72-10.36v-0.01c-2.31-0.73-3.76-0.94-3.76-0.94s-1.61,1.96-5.17,4.28c-10.82,0.49-16.36,3.11-19.05,5.23
	c0.89-4.9,2.63-12.23,4.26-19c22.05-8.12,37.82,5.28,40.29,7.57c0.22,0.2,0.34,0.32,0.34,0.32S342.89,511.3,342,518.34z"/>
<path fill="#FFFFFF" stroke="#000000" stroke-miterlimit="10" d="M330.15,541.77l-8.46,0.43l-2.41,0.12l-1.52,0.08
	c0,0-3.65-8.74-4.9-9.98c-1.25-1.25-2.85,0.53-6.95,5.7c-0.09,0-0.18,0-0.28,0.01c-2.18,0.01-4.41,0.36-6.35,5
	c-0.05,0.11-0.09,0.22-0.14,0.34c-2.85-4.01-4.81,5.43-4.81,5.43s-0.98-1.87-2.41,0.54c-0.01-0.09-0.01-0.2-0.01-0.33
	c0.01-0.02,0.01-0.03,0.01-0.03c0.13-3.78,4.21-22.78,4.63-28.78c0.07-0.98,0.27-2.32,0.56-3.94v-0.01
	c2.69-2.12,8.23-4.74,19.05-5.23c3.56-2.32,5.17-4.28,5.17-4.28s1.45,0.21,3.76,0.94v0.01c-0.2,6.28-4.21,18.48-4.21,18.48
	L330.15,541.77z"/>
<path fill="#FFFFFF" stroke="#000000" stroke-miterlimit="10" d="M400.06,323.7c-7.34,5.77-21.87,30.21-24.2,36.71
	c-0.14,12.83-7.93,14.73-7.93,14.73s-0.05,0.18-0.18,0.78c-4.98-2.29-12.96-5.84-23.82-10.29c-1.99-0.82-3.85-1.66-5.56-2.53
	c1.88-3.05,4.04-6.88,4.61-9.17c1.07-4.28,23.88-57.74,28.37-76.99c4.48-19.25,9.02-21.72,9.02-21.72c0.44,1.31,0.93,2.62,1.46,3.9
	c5.06,12.25,14.65,24.75,17.31,43c0.91,6.15,1.03,12.95-0.08,20.62C399.42,323.01,399.75,323.34,400.06,323.7z"/>
<path fill="#FFFFFF" stroke="#000000" stroke-miterlimit="10" d="M380.37,255.22c0,0-4.54,2.47-9.02,21.72
	c-4.49,19.25-27.3,72.71-28.37,76.99c-0.57,2.29-2.73,6.12-4.61,9.17c-3.32-1.66-6.13-3.39-8.5-5.07
	c2.29-7.29,10.13-19.08,12.93-24.06c3.21-5.7,20.14-57.56,20.14-57.56l-3.74-1.61l6.77-22.45l11.92-6.2
	C378.53,249.15,379.34,252.21,380.37,255.22z"/>
<path fill="#FFFFFF" stroke="#000000" stroke-miterlimit="10" d="M347.26,494.19c0.09,2.86-4.22,2.85-4.47,2.85
	c-0.01,0-0.01,0-0.01,0s-10.23-8.2-20.21-9.98c-9.78-1.74-18.94,2.21-19.31,2.37c-0.01,0.01-0.01,0.01-0.01,0.01
	s-2.13-10.92,2.33-16.8c0,0,6.4-3.67,23.32,0.7c8.78,2.26,13.37,7,15.76,11.45v0.01C346.89,488.92,347.22,492.78,347.26,494.19z"/>
<path fill="#FFFFFF" stroke="#000000" stroke-miterlimit="10" d="M509.19,184.26C509.19,184.26,509.19,184.26,509.19,184.26
	c-1.76,4.39-6.61,14.67-16.15,22.76c-10.15,8.6-27.52,12.96-34.44,16.65c-0.72-1-1.44-1.96-2.13-2.89c1.59-0.85,2.76-1.45,3.44-1.76
	c0,0,3.32-2.46,8.02-6.07c9.94-7.62,26.05-20.35,29.92-25.59c3.11-4.22,6.43-7.46,8.81-9.53c0.4,0.05,0.88,0.12,1.42,0.2
	C508.35,180.21,508.71,182.29,509.19,184.26z"/>
<path fill="#FFFFFF" stroke="#000000" stroke-miterlimit="10" d="M483.64,251.63c-0.06,11.87-0.41,65.58-1.89,69.81
	c-1.19,3.4-6.75,5.88-9.83,7.02l-1.81-12.73l-15.45-1.45l-55.39-47.39c0.01-2,0-3.89-0.02-5.61c10.58-6.64,39.78-24.59,57.57-31.84
	c3.32,3.87,12.52,14.89,15.43,21.66C473.92,251.5,478.4,251.63,483.64,251.63z"/>
<path fill="#FFFFFF" stroke="#000000" stroke-miterlimit="10" d="M399.22,290.15c-0.02,4.82-0.05,9.08-0.08,11.97
	c-2.66-18.25-12.25-30.75-17.31-43c-0.53-1.28-1.02-2.59-1.46-3.9l18.12-8.03c-0.02,2.18,0.17,4.15,0.63,5.78
	c0.07,1.39,0.12,4.4,0.13,8.31c0.02,1.72,0.03,3.61,0.02,5.61C399.29,274.1,399.26,282.79,399.22,290.15z"/>
<path fill="#FFFFFF" stroke="#000000" stroke-miterlimit="10" d="M399.78,236.22c-0.76,3.91-1.26,7.68-1.29,10.97l-18.12,8.03
	c-1.03-3.01-1.84-6.07-2.48-9.07C377.89,246.15,393.71,237.74,399.78,236.22z"/>
<path fill="#FFFFFF" stroke="#000000" stroke-miterlimit="10" d="M576.98,257.99c0,0-0.19,1.88-0.39,4.73
	c-0.05,0.77-0.1,1.61-0.15,2.5l-49.54,45.76H513l-1.4,15.6c-3.31-1.58-10.46-5.17-12.26-7.52c-2.13-2.76-1.4-56.36-1.23-67.66
	c5.3-0.14,9.27-0.3,9.27-0.3s6.75-13.51,14.47-23.88L576.98,257.99z"/>
<path fill="#FFFFFF" stroke="#000000" stroke-miterlimit="10" d="M580.33,291.44c-10.76,15.17-38.1,39.32-38.1,39.32h-31.01
	l0.08-0.89l0.3-3.29l1.4-15.6h13.9l49.54-45.76c-0.43,7.82-0.56,19.66,2.14,23.3C579.25,289.42,579.83,290.41,580.33,291.44z"/>
<path fill="#FFFFFF" stroke="#000000" stroke-miterlimit="10" d="M472.25,330.76l-30.83,1.39l-2.92,0.13l-39.28-42.13
	c0.04-7.36,0.07-16.05,0.05-23.26l55.39,47.39l15.45,1.45l1.81,12.73l0.22,1.51L472.25,330.76z"/>
<path fill="#FFFFFF" stroke="#000000" stroke-miterlimit="10" d="M519.95,430.78v4.19c-24.87,1.03-53.23-0.69-58.99-1.07l0.18-3.84
	C478.91,431.29,499.53,431.92,519.95,430.78z"/>
<path fill="#FFFFFF" stroke="#000000" stroke-miterlimit="10" d="M531.08,378.4c-1.01,2.1-8.44,17.88-7.62,23.03
	c0.83,5.33,2.69,14.16,2.32,26.63c-1.76,0.01-3.7,0.13-5.83,0.37v2.35c-20.42,1.14-41.04,0.51-58.81-0.72l0.18-3.81
	c0,0-4.18-0.36-8.98,0.58c0,0-1.6-12.48,0-17.24c1.24-3.66,4.2-5.57,4.73-7.8c0.17-0.66,0.11-1.35-0.27-2.13
	c-1.66-3.37-8.91-20.84-8.91-20.84s27.72,1.37,31.77,1.67c1.8-2.26,3.82-4.04,3.82-4.04l18-0.42l3.92,3.27l25.78-1.13
	C531.18,378.17,531.15,378.25,531.08,378.4z"/>
<path fill="#FFFFFF" stroke="#000000" stroke-miterlimit="10" d="M531.81,428.81c-1.72-0.54-3.72-0.76-6.03-0.75
	c0.37-12.47-1.49-21.3-2.32-26.63c-0.82-5.15,6.61-20.93,7.62-23.03c-0.8,1.97-6.36,16.32,0.1,23.11
	C531.18,401.51,534.2,416.5,531.81,428.81z"/>
<polygon fill="#FFFFFF" stroke="#000000" stroke-miterlimit="10" points="545.44,361.9 541.63,372.05 507.38,373.24 503.26,369.32 
	510.52,337.83 536.88,337.83 "/>
<path fill="#FFFFFF" stroke="#000000" stroke-miterlimit="10" d="M508.49,332.28l-7.73,38.46c0,0-11.76,0-17.7,0
	c-1.31-7.72-9.86-38.46-9.86-38.46H508.49z"/>
<polygon fill="#FFFFFF" stroke="#000000" stroke-miterlimit="10" points="479.66,371.04 474.33,375.5 444.74,374.25 438.32,366.23 
	447.89,340.39 472.25,340.39 "/>
<path fill="#FFFFFF" stroke="#000000" stroke-miterlimit="10" d="M511.6,326.58l-0.3,3.29c-5.84-0.5-33.1-0.02-39.16,0.1l-0.22-1.51
	c3.08-1.14,8.64-3.62,9.83-7.02c1.48-4.23,1.83-57.94,1.89-69.81c4.72,0,10.06-0.11,14.47-0.23c-0.17,11.3-0.9,64.9,1.23,67.66
	C501.14,321.41,508.29,325,511.6,326.58z"/>
<path fill="#FFFFFF" stroke="#000000" stroke-miterlimit="10" d="M356.44,556.83c-5.8-7.22-7.31-11.05-7.31-11.05
	s-5.35-2.76-5.97-3.92c-1.16,0.45-5.7,3.12-9.27,2.32c0,0-1.07,5.34-3.74,6.86c-5.05-2.94-7.43-6.65-8.46-8.84l8.46-0.43l-9.27-15.5
	c0,0,4.01-12.2,4.21-18.48c4.03,1.28,10.68,4.17,16.72,10.36c1.62,2.95,5.12,8.7,9.37,11.86c5.88,4.37,9.44,6.24,10.96,9.98
	c1.51,3.74-0.09,11.32,1.6,14.26C365.44,557.19,362.23,564.05,356.44,556.83z"/>
<path fill="#FFFFFF" stroke="#000000" stroke-miterlimit="10" d="M325.78,564.85c-3.4-8.64-11.9-0.62-12.25-0.29
	c0-0.01,0-0.01,0-0.02c-0.09-0.65-0.13-1.03-0.13-1.03s-1.95-3.09-3.94-8.55c3.23-1.19,9.02-5.98,9.82-12.64l2.41-0.12
	c1.03,2.19,3.41,5.9,8.46,8.84C330.59,552.82,327.3,562.36,325.78,564.85z"/>
<path fill="#FFFFFF" stroke="#000000" stroke-miterlimit="10" d="M330.77,590.43c-2.85,3.29-12.47-5.62-13.99-8.29
	c-1.27-2.25-2.8-13.97-3.25-17.57v-0.01c0.35-0.33,8.85-8.35,12.25,0.29c0.72,2.59,2.14,11.41,2.14,11.41
	S333.62,587.13,330.77,590.43z"/>
<path fill="#FFFFFF" stroke="#000000" stroke-miterlimit="10" d="M319.28,542.32c-0.8,6.66-6.59,11.45-9.82,12.64
	c-1.57-4.28-3.15-10.01-3.83-16.83c0.1-0.01,0.19-0.01,0.28-0.01c4.1-5.17,5.7-6.95,6.95-5.7c1.25,1.24,4.9,9.98,4.9,9.98
	L319.28,542.32z"/>
<path fill="#FFFFFF" stroke="#000000" stroke-miterlimit="10" d="M294.46,564.19c-0.52,0.9-0.76,1.64-0.76,1.64
	s-1.42-0.44-1.78,0.98c-0.63-1.33-3.65-3.12-3.3-4.81c0.35-1.64,3.12-12.23,3.29-12.89c0,0.13,0,0.24,0.01,0.33
	c1.43-2.41,2.41-0.54,2.41-0.54s-1.25,10.43-0.36,11.41C294.5,560.89,294.53,562.77,294.46,564.19z"/>
<path fill="#FFFFFF" stroke="#000000" stroke-miterlimit="10" d="M309.46,554.96c-2.34-1.33-3.46-0.28-5.98,2.63
	c0,0-2.65-2.36-3.54-3.87s-0.66-10.59-0.66-10.59c1.94-4.64,4.17-4.99,6.35-5C306.31,544.95,307.89,550.68,309.46,554.96z"/>
<path fill="#FFFFFF" stroke="#000000" stroke-miterlimit="10" d="M303.48,557.59c-0.86,0.99-1.89,2.2-3.18,3.61
	c-3.04-0.75-4.9,1.38-5.84,2.99c0.07-1.42,0.04-3.3-0.49-3.88c-0.89-0.98,0.36-11.41,0.36-11.41s1.96-9.44,4.81-5.43
	c0.05-0.12,0.09-0.23,0.14-0.34c0,0-0.23,9.08,0.66,10.59S303.48,557.59,303.48,557.59z"/>
<path fill="#FFFFFF" stroke="#000000" stroke-miterlimit="10" d="M313.53,564.54c0,0.01,0,0.01,0,0.02v0.01c-0.01,0-0.01,0-0.01,0
	c-0.15,0.63-0.37,1.39-0.68,2.2c-0.44,1.16-1.07,2.43-1.94,3.52c-3.83-2.91-8.55,1.96-9.54,4.27c-0.11-0.11-0.24-0.21-0.37-0.29
	c-2.11-1.4-6.2,0.08-5.86,3.86c-1.32-0.77-2.61-0.59-3.4-0.34c-0.49,0.16-0.79,0.34-0.79,0.34l0.12-1.37l0.86-9.95
	c0.36-1.42,1.78-0.98,1.78-0.98s0.24-0.74,0.76-1.64c0.94-1.61,2.8-3.74,5.84-2.99c1.29-1.41,2.32-2.62,3.18-3.61
	c2.52-2.91,3.64-3.96,5.98-2.63c1.99,5.46,3.94,8.55,3.94,8.55S313.44,563.89,313.53,564.54z"/>
<path fill="#FFFFFF" stroke="#000000" stroke-miterlimit="10" d="M294.72,599.94c-0.93-0.87-1.96-2.09-2.84-3.69
	c-1.94-3.53-0.62-14.89-0.15-18.46c0.79-0.25,2.08-0.43,3.4,0.34C295.13,578.13,291.94,592.32,294.72,599.94z"/>
<path fill="#FFFFFF" stroke="#000000" stroke-miterlimit="10" d="M307.65,603.31c-0.4,1.83-1.21,4.92-2.18,5.41
	c-1.4,0.72-5.38,0-9.78-6.77c-0.38-0.59-0.71-1.26-0.97-2v-0.01c-2.78-7.62,0.41-21.81,0.41-21.81c-0.34-3.78,3.75-5.26,5.86-3.86
	c-0.64,4.17-1.72,13.37,0.37,18.06C304.01,598.23,305.64,601.86,307.65,603.31z"/>
<path fill="#FFFFFF" stroke="#000000" stroke-miterlimit="10" d="M315.42,603.5c-1.79,2.61-5.35,1.3-7.49,0
	c-0.09-0.06-0.19-0.12-0.28-0.19c-2.01-1.45-3.64-5.08-6.29-10.98c-2.09-4.69-1.01-13.89-0.37-18.06c0.13,0.08,0.26,0.18,0.37,0.29
	c0.99-2.31,5.71-7.18,9.54-4.27c0.87-1.09,1.5-2.36,1.94-3.52c3.88,5.31-0.18,17.6-0.51,21.8c1.07,1.94,1.51,8.27,1.51,8.27
	S317.2,600.88,315.42,603.5z"/>
<path fill="#FFFFFF" stroke="#000000" stroke-miterlimit="10" d="M636.79,538.04c-0.99,3.41-3.6,5.72-6.82,7.15c0,0,0,0,0,0.01
	c-5.94,2.65-13.95,2.37-17.64,0.67c-4.16-1.91-2.49-3.53-1.12-4.33c0.61,0.4,1.26,0.64,1.86,0.68c1.39,0.08,4.92-2.25,8.76-5
	c2.88-0.19,8.66-0.69,9.98-1.57c0.76-0.5,1.2-1.75,1.46-3.03c0.58,2.33,1.59,4.57,3.37,5.19
	C636.69,537.88,636.74,537.96,636.79,538.04z"/>
<path fill="#FFFFFF" stroke="#000000" stroke-miterlimit="10" d="M639.27,541.23c-0.37,3.92-0.87,9.92-0.93,13.78
	c-2.87,1.87-7.25,4.65-10.09,6.07c-4.52,2.26-12.83-0.71-16.99-5.23c-4.16-4.51,2.97-5.35,2.97-5.35s6.89,0.6,10.22,0
	c2.18-0.39,4.3-3.32,5.52-5.3c0-0.01,0-0.01,0-0.01c3.22-1.43,5.83-3.74,6.82-7.15C637.67,539.37,638.14,540.93,639.27,541.23z"/>
<path fill="#FFFFFF" stroke="#000000" stroke-miterlimit="10" d="M644.85,539.69c-0.39,6.62-1.51,14.27-2.1,17.84
	c-0.18,1.07-0.31,1.77-0.36,1.97c-0.36,1.43-4.73,9.36-4.73,9.36s-6.61,0.77-7.78,6.56c-6.92,0.51-8.99-0.87-8.88-5.31
	c0.12-4.87,11.29-4.28,12.65-4.52c-0.41-2.13,3.75-6.06,4.93-7.01c-0.21-0.46-0.28-1.79-0.24-3.57c0.06-3.86,0.56-9.86,0.93-13.78
	C639.98,542.13,644.85,539.69,644.85,539.69z"/>
<path fill="#FFFFFF" stroke="#000000" stroke-miterlimit="10" d="M644.85,539.69c0,0-4.87,2.44-5.58,1.54
	c-1.13-0.3-1.6-1.86-2.48-3.19c-0.05-0.08-0.1-0.16-0.15-0.23c-1.78-0.62-2.79-2.86-3.37-5.19c0.36-1.73,0.38-3.5,0.38-3.5
	c3.97-1.82,6.38-3.86,9.12-1.71c0.34,0.27,0.69,0.6,1.04,1c0.63,0.71,0.97,2.29,1.12,4.38C645.05,534.74,645,537.13,644.85,539.69z"
	/>
<path fill="#FFFFFF" stroke="#000000" stroke-miterlimit="10" d="M455.97,496.91c0,0-6.08,2.89-10.52,12.03
	c-5.77-1.74-12.68-2.86-20.01-1.99c-18.88,2.26-22.1,6.1-22.28,6.34c1.54-5.99,3.07-11.29,4.29-15.33
	c-1.75-2.19-4.3-6.11-4.77-10.72c-0.59-5.97,7.69-24.75,10.39-30.68h0.01c4.07,1.08,19.77,1.93,39.12,2.36
	c-0.46,4.73-2.01,20.21-2.38,21.72c-0.44,1.79,0,11.29,0,11.29L455.97,496.91z"/>
<path fill="#FFFFFF" stroke="#000000" stroke-miterlimit="10" d="M461.44,516.41c0,0-3.09,7.96-3.33,13.78
	c-5.3-0.26-11.01-2.84-16.92-5.25c-4.95-2.01-10.05-3.9-15.16-4.2c-11.22-0.65-22.39,7.95-28.45,18.56c0,0.01-0.01,0.01-0.01,0.02
	c-1.84-10.44,5.58-26.02,5.58-26.02l0.01-0.01c0.18-0.24,3.4-4.08,22.28-6.34c7.33-0.87,14.24,0.25,20.01,1.99
	C455.01,511.83,461.44,516.41,461.44,516.41z"/>
<path fill="#FFFFFF" stroke="#000000" stroke-miterlimit="10" d="M588.92,652.43c-32.05,5.38-53.59,1-63.15-1.89
	c-3.26-8.87-6.57-19.9-8.85-32.49c-6.06-33.51-21.39-54-23.17-55.19s-8.37,4.93-10.69,10.64c-1.06,2.6-4.75,14.68-8.44,27.03
	c-9.8-30.1-38.43-32.2-38.43-32.2s2.85-21.21,4.99-43.31c0-0.03,0.01-0.05,0.01-0.08c5.91,2.41,11.62,4.99,16.92,5.25
	c0.24-5.82,3.33-13.78,3.33-13.78s-6.43-4.58-15.99-7.47c4.44-9.14,10.52-12.03,10.52-12.03l-6.15-4.98c0,0-0.44-9.5,0-11.29
	c0.37-1.51,1.92-16.99,2.38-21.72c25.42,0.58,57.15,0.46,77.2-0.73c11.36-0.68,20.41-1.85,27.49-3.31
	c2.8,5.86-0.41,17.16,1.38,22.41c2.14,6.27,7.84,14.05,8.55,29.66c0.71,15.62,12.83,53.18,17.71,66.37c0.29,0.77,0.55,1.67,0.8,2.68
	c-3.35,0.64-7.09,1.17-11.02,1.42c-1.79,8.91-0.89,17.64-0.89,17.64s6.76-0.61,14.16-1.64C589,613.43,588.67,640.78,588.92,652.43z"
	/>
<path fill="#FFFFFF" stroke="#000000" stroke-miterlimit="10" d="M474.62,600.53c-4.42,14.71-8.83,29.82-8.83,29.82
	s-9.11-17.83-29.78-23.88c-20.67-6.06-42.42,11.04-42.42,11.04s1.43-32.79,2.14-60.14c0.15-5.63,0.84-11.81,1.85-18.07
	c6.06-10.61,17.23-19.21,28.45-18.56c5.11,0.3,10.21,2.19,15.16,4.2c0,0.03-0.01,0.05-0.01,0.08c-2.14,22.1-4.99,43.31-4.99,43.31
	S464.82,570.43,474.62,600.53z"/>
<path fill="#FFFFFF" stroke="#000000" stroke-miterlimit="10" d="M605.67,589.36c-0.7,0.45-1.83,0.88-3.26,1.29
	c-3.71,1.08-9.44,2.03-14.83,2.77c-7.4,1.03-14.16,1.64-14.16,1.64s-0.9-8.73,0.89-17.64c3.93-0.25,7.67-0.78,11.02-1.42
	c7.25-1.38,12.71-3.27,14.43-3.89c0.37-0.14,0.57-0.22,0.57-0.22C604.25,572.25,610.66,586.15,605.67,589.36z"/>
<path fill="#FFFFFF" stroke="#000000" stroke-miterlimit="10" d="M599.76,572.11c-1.72,0.62-7.18,2.51-14.43,3.89
	c-0.25-1.01-0.51-1.91-0.8-2.68c-4.88-13.19-17-50.75-17.71-66.37c-0.71-15.61-6.41-23.39-8.55-29.66
	c-1.79-5.25,1.42-16.55-1.38-22.41c6.35-1.32,11.12-2.87,14.54-4.52c-0.08,6.02,0.21,15.38,2.52,19.77
	c3.56,6.77,7.13,6.05,8.02,14.52c0.89,8.47-0.18,13,0,15.19C582.15,501.97,592.78,531.51,599.76,572.11z"/>
<path fill="#FFFFFF" stroke="#000000" stroke-miterlimit="10" d="M606.95,668.85c-23.9,5.29-62.45,4.97-70.77,4.83
	c-1.05-1.84-5.66-10.18-10.41-23.14c9.56,2.89,31.1,7.27,63.15,1.89c-0.25-11.65,0.08-39-1.34-59.01
	c5.39-0.74,11.12-1.69,14.83-2.77C605.38,616.55,606.52,647.81,606.95,668.85z"/>
<path fill="#FFFFFF" stroke="#000000" stroke-miterlimit="10" d="M607.16,682.89c-3.91,1.78-11.43,4.27-24.12,5.34
	c-20.67,1.75-31.9-0.85-31.9-0.85h-13.53c-0.81-7.23-1.2-13.31-1.2-13.31s-0.08-0.13-0.23-0.39c8.32,0.14,46.87,0.46,70.77-4.83
	C607.06,674.31,607.13,679.08,607.16,682.89z"/>
<path fill="#FFFFFF" stroke="#000000" stroke-miterlimit="10" d="M607.22,692.6v2.4c-3.09,2.38-9.58,5.03-22.93,4.32
	c-20.43-1.1-37.54-9.42-46.55-10.87c-0.04-0.36-0.09-0.72-0.13-1.07h13.53c0,0,11.23,2.6,31.9,0.85
	c12.69-1.07,20.21-3.56,24.12-5.34C607.22,688.38,607.22,691.89,607.22,692.6z"/>
<path fill="#FFFFFF" stroke="#000000" stroke-miterlimit="10" d="M607.22,695v42.99c0,0.31-0.14,0.99-0.39,1.93
	c-0.44-6.93-1.24-17.72-2.28-24.55c-0.55-3.71-1.18-6.25-1.85-6.37c-8.51,10.64-27.7,8.51-31.61,7.95h-0.01
	c-0.45-0.07-0.69-0.11-0.69-0.11l-6.66,30.66l6.79,7.03l6.52,6.75l-7.64,53.26c-18.74,2.37-31.09-6.1-33.16-7.64
	c0.74-0.4,1.35-0.66,1.63-0.77c0.03-0.02,0.07-0.03,0.1-0.04c0.05-0.01,0.07-0.02,0.07-0.02c1.24-0.45,2.54-1.14,2.41-2.02
	c-0.24-1.66-2.86-33.98,1.42-42.54c-9.27-10.45,3.09-46.33,1.19-50.85c-2.48-2.08-4.24-12.88-5.32-22.21
	c9.01,1.45,26.12,9.77,46.55,10.87C597.64,700.03,604.13,697.38,607.22,695z"/>
<path fill="#FFFFFF" stroke="#000000" stroke-miterlimit="10" d="M606.83,739.92c-1.47,5.52-6.5,19.93-6.5,19.93s0,27.33-4.99,45.15
	c-9.54,5.8-18.27,8.58-25.94,9.54l7.64-53.26l-6.52-6.75l6.97-29.85c2.07-0.04,18.57-0.59,27.06-9.31
	C605.59,722.2,606.39,732.99,606.83,739.92z"/>
<path fill="#FFFFFF" stroke="#000000" stroke-miterlimit="10" d="M453.54,659.42c0-0.01,0-0.01,0-0.01
	c10.14-11.91,12.25-29.06,12.25-29.06s-9.11-17.83-29.78-23.88c-20.67-6.06-42.42,11.04-42.42,11.04s-4.5,14.16,0.99,28.53
	c-0.94,3.5-1.99,9.25-0.99,15.14c-1.78,9.98-3.74,32.97-6.23,45.27c-2.5,12.29-5.53,34.04-4.99,51.14
	c0.47,15.23,3.92,21.7,4.29,33.49c1.54,0.13,3.9,0.36,6.71,0.71c-0.64-11.9-2.08-47.62,2.29-63.54c5.3-19.25,9.34-40.02,9.34-40.02
	l28.51,4.14c0,0-7.6,41.11-7.36,53.22c0.24,12.12-1.49,50.17-2.44,54.78c-1.24,2.31-2.31,4.45-2.31,4.45s7.29,0.59,12.99,3.3
	c11.04-42.34,13.95-89.96,15.04-92.05c1.13-2.14,3.33-8.2,1.73-11.23c-1.61-3.03,0-9.8,4.81-17.64c4.81-7.84,0.53-13.01-1.52-19.07
	C453.68,665.86,453.48,662.6,453.54,659.42z M444.21,666.7c0,0-1.25,1.61-7.49,4.24c-14.08-9.67-33.5-8.16-33.5-8.16l-6.77-7.8
	c0,0-0.52-1.96-0.03-4.85c0.42-2.49,1.58-5.69,4.48-8.91c4.5-5.02,9.29-17.19,11.6-23.57c0.94-2.59,3.26-4.44,6-4.75
	c14.64-1.62,25.59,2.96,29.63,11.21C452.58,633.2,444.21,666.7,444.21,666.7z"/>
<path fill="#FFFFFF" stroke="#000000" stroke-miterlimit="10" d="M444.21,666.7c0,0-1.25,1.61-7.49,4.24
	c-14.08-9.67-33.5-8.16-33.5-8.16l-6.77-7.8c0,0-0.52-1.96-0.03-4.85c0.42-2.49,1.58-5.69,4.48-8.91c4.5-5.02,9.29-17.19,11.6-23.57
	c0.94-2.59,3.26-4.44,6-4.75c14.64-1.62,25.59,2.96,29.63,11.21C452.58,633.2,444.21,666.7,444.21,666.7z"/>
<path fill="#FFFFFF" stroke="#000000" stroke-miterlimit="10" d="M431.26,853.36c-0.53,2.73-0.53,6.81-0.21,11.52
	c-12.85-0.29-22.45-5.35-24.66-5.35c-1.62,0-12.44,3.2-18.59,6.94c-0.32-10.08-9.3-14.45-8.63-26.02
	c0.72-12.5,0.88-27.96,1.06-31.89c-1.07-2.85-2.5-9.8,2.07-9.8c0.3-4.45,2.38-7.84,2.38-7.84s0.72,0.05,1.98,0.16
	c1.54,0.13,3.9,0.36,6.71,0.71c9.46,1.18,24.08,3.71,30.34,8.58c-1.24,2.31-2.31,4.45-2.31,4.45s7.29,0.59,12.99,3.3
	c1.32,0.62,2.55,1.36,3.58,2.23C443.5,814.98,433.51,841.83,431.26,853.36z"/>
<path fill="#FFFFFF" stroke="#000000" stroke-miterlimit="10" d="M426.15,745.59c0.24,12.12-1.49,50.17-2.44,54.78
	c-6.26-4.87-20.88-7.4-30.34-8.58c-0.64-11.9-2.08-47.62,2.29-63.54c5.3-19.25,9.34-40.02,9.34-40.02l28.51,4.14
	C433.51,692.37,425.91,733.48,426.15,745.59z"/>
<path fill="#FFFFFF" stroke="#000000" stroke-miterlimit="10" d="M437.79,918.58c0,0-0.24,0.14-0.61,0.4
	c-1.38,0.97-4.64,3.6-4.73,6.97c-0.02,0.8-0.03,1.91-0.05,3.2c-7.43-0.68-22.34-5.95-34.17-7.42c-9.01-1.11-19.38,5.82-24.91,10.18
	c0.38-5.34,1.52-11.2,4.23-16.06c5.84-10.47,7.15-30.74,6.58-40.14c0.57-0.52,1.25-1.11,2.02-1.73c0.85,7.83,4.49,32.93,16.35,35.63
	c14.08,3.21,15.51-5.34,15.51-14.08c0-7.17,6.61-21.56,8.97-26.46c1.56,0.35,3.06,0.59,4.49,0.63c1.48,14.62,5.05,32.51,5.37,35.93
	C437.32,910.62,437.79,918.58,437.79,918.58z"/>
<path fill="#FFFFFF" stroke="#000000" stroke-miterlimit="10" d="M431.47,869.7c-1.43-0.04-2.93-0.28-4.49-0.63
	c-5.99-1.35-12.93-4.37-20.59-4.37c-7.24,0-15.45,5.38-20.24,9.28c-0.77,0.62-1.45,1.21-2.02,1.73c-0.11-1.79-0.29-3.19-0.52-4.05
	c-0.44-1.67,1.39-3.49,4.19-5.19c6.15-3.74,16.97-6.94,18.59-6.94c2.21,0,11.81,5.06,24.66,5.35
	C431.16,866.43,431.3,868.04,431.47,869.7z"/>
<path fill="#FFFFFF" stroke="#000000" stroke-miterlimit="10" d="M432.4,929.15c-0.03,2.56-0.08,5.8-0.28,8.59
	c-0.24,3.28-0.69,5.95-1.58,6.15c-0.2,0.05-0.66,0.24-1.36,0.53c-6.54-3.13-21.03-9.33-31.49-8.25c-9.76,1-18.38,7.8-22.65,11.77
	c-0.35-0.17-0.7-0.35-1.05-0.54c0,0-1.26-7.11-0.67-15.49c5.53-4.36,15.9-11.29,24.91-10.18
	C410.06,923.2,424.97,928.47,432.4,929.15z"/>
<path fill="#FFFFFF" stroke="#000000" stroke-miterlimit="10" d="M429.18,944.42c-6.44,2.7-32.9,14.19-54.14,3.52
	c4.27-3.97,12.89-10.77,22.65-11.77C408.15,935.09,422.64,941.29,429.18,944.42z"/>
<path fill="#FFFFFF" stroke="#000000" stroke-miterlimit="10" d="M426.98,869.07c-2.36,4.9-8.97,19.29-8.97,26.46
	c0,8.74-1.43,17.29-15.51,14.08c-11.86-2.7-15.5-27.8-16.35-35.63c4.79-3.9,13-9.28,20.24-9.28
	C414.05,864.7,420.99,867.72,426.98,869.07z"/>
<path fill="#FFFFFF" stroke="#000000" stroke-miterlimit="10" d="M440.64,931.89c-1.35,5.08-3.02,7.58-8.52,5.85
	c0.2-2.79,0.25-6.03,0.28-8.59c0.02-1.29,0.03-2.4,0.05-3.2c0.09-3.37,3.35-6,4.73-6.97C438.79,921.9,441.69,927.95,440.64,931.89z"
	/>
<path fill="#FFFFFF" stroke="#000000" stroke-miterlimit="10" d="M590.01,862.65c-8.99-2.39-17.37,1.56-26.19,4.87
	c-1.37,0.51-2.74,1-4.13,1.46c-7.56,2.47-14.58-4.44-18.16-8.88v-0.01c-0.01-0.82-0.02-1.65-0.02-2.52c0-16.57-9.8-41.52-9.62-45.44
	c0.11-2.5,2.58-4.27,4.35-5.23c2.07,1.54,14.42,10.01,33.16,7.64c7.67-0.96,16.4-3.74,25.94-9.54
	C602.82,810.74,590.61,860.26,590.01,862.65z"/>
<path fill="#FFFFFF" stroke="#000000" stroke-miterlimit="10" d="M622.25,892.86c0,0-23.88-1.78-32.26,1.96
	c-8.2-6.26-20.95-21.08-26.17-27.3c8.82-3.31,17.2-7.26,26.19-4.87c-0.01,0.06-0.02,0.09-0.02,0.09S612.98,884.13,622.25,892.86z"/>
<path fill="#FFFFFF" stroke="#000000" stroke-miterlimit="10" d="M589.99,894.82c-12.83,5.35-25.49,1.43-32.08,0.89
	c-1.12-4.33-10.48-12.63-14.45-15.99c-0.61-2.56-1.77-8.8-1.93-19.62c3.58,4.44,10.6,11.35,18.16,8.88
	c1.39-0.46,2.76-0.95,4.13-1.46C569.04,873.74,581.79,888.56,589.99,894.82z"/>
<path fill="#FFFFFF" stroke="#000000" stroke-miterlimit="10" d="M643.63,902.49c0,0-8.19-5.53-23.7,1.78
	c-15.5,7.3-36.53,11.4-40.81,8.37c-4.28-3.03-11.94-2.85-18.71-1.07c-1.43-5.52-11.59-9.26-19.61-7.12
	c-0.53-4.64,3.03-23.35,3.03-23.35s-0.15-0.45-0.37-1.38c3.97,3.36,13.33,11.66,14.45,15.99c6.59,0.54,19.25,4.46,32.08-0.89
	c8.38-3.74,32.26-1.96,32.26-1.96C636.5,892.33,643.63,902.49,643.63,902.49z"/>
<path fill="#FFFFFF" stroke="#000000" stroke-miterlimit="10" d="M643.63,914.96c-4.63-3.41-23.52,4.46-44.73,8.91
	c-21.21,4.46-36.62-2.14-36.62-2.14v2.5c0,0-4.64,2.67-21.48,0c-3.92-8.29,0-19.78,0-19.78c8.02-2.14,18.18,1.6,19.61,7.12
	c6.77-1.78,14.43-1.96,18.71,1.07c4.28,3.03,25.31-1.07,40.81-8.37c15.51-7.31,23.7-1.78,23.7-1.78S644.35,907.15,643.63,914.96z"/>
<path fill="#FFFFFF" stroke="#000000" stroke-miterlimit="10" d="M604.55,715.37c-8.49,8.72-24.99,9.27-27.06,9.31
	c-0.14,0-0.21,0-0.21,0s-3.58-4.56-6.19-7.73c3.91,0.56,23.1,2.69,31.61-7.95C603.37,709.12,604,711.66,604.55,715.37z"/>
<path fill="#FFFFFF" stroke="#000000" stroke-miterlimit="10" d="M577.49,724.68l-6.97,29.85l-6.79-7.03l6.66-30.66
	c0,0,0.24,0.04,0.69,0.11h0.01c2.61,3.17,6.19,7.73,6.19,7.73S577.35,724.68,577.49,724.68z"/>
<path fill="#FFFFFF" stroke="#000000" stroke-miterlimit="10" d="M467.93,212.95c-4.7,3.61-8.02,6.07-8.02,6.07
	c-0.68,0.31-1.85,0.91-3.44,1.76h-0.01c-1.54-2.07-3-3.94-4.29-5.48c1.63-0.5,2.96-0.93,3.8-1.15c2.78-0.74,6.98-0.12,11.72-1.15
	C467.77,212.99,467.85,212.97,467.93,212.95z"/>
<path fill="#FFFFFF" stroke="#000000" stroke-miterlimit="10" d="M461.5,227.7c-1.44,0.47-3.01,1.06-4.68,1.74
	c-17.79,7.25-46.99,25.2-57.57,31.84c-0.01-3.91-0.06-6.92-0.13-8.31c1.26-0.65,7.16-3.99,14.85-8.35
	c14.03-7.95,33.99-19.3,42.49-23.84h0.01c0.69,0.93,1.41,1.89,2.13,2.89c-0.68,0.37-1.26,0.72-1.72,1.07
	c0.9,0.25,1.93,0.52,3.08,0.81C460.47,226.26,460.98,226.98,461.5,227.7z"/>
<path fill="#FFFFFF" stroke="#000000" stroke-miterlimit="10" d="M441.71,161.75c-5.82,9.03-16.93,2.74-16.93,2.74
	S431.26,155.69,441.71,161.75z"/>
<path fill="#FFFFFF" stroke="#000000" stroke-miterlimit="10" d="M564.83,360.53c-1.67-2.35-8.66-12.09-16.5-21.12l-0.03-0.05
	c-0.45-0.51-0.9-1.02-1.35-1.53c0.05-0.04,0.1-0.09,0.15-0.14l-4.97-6.93h-30.91l0.08-0.89c-5.84-0.5-33.1-0.02-39.16,0.1l0.11,0.79
	l-30.83,1.39l-20.52,33.57c0.7-0.03,1.4-0.1,2.1-0.21c4.99,3.21,8.44,17.47,11.35,20.68c2.5,2.75,11.63,11.14,22.72,15.6
	c0.17-0.66,0.11-1.35-0.27-2.13c-1.66-3.37-8.91-20.84-8.91-20.84s27.72,1.37,31.77,1.67c1.8-2.26,3.82-4.04,3.82-4.04l18-0.42
	l3.92,3.27l25.78-1.13c0,0-0.03,0.08-0.1,0.23c-0.8,1.97-6.36,16.32,0.1,23.11c0,0,6.24-4.27,12.65-8.37
	c4.79-3.06,11.75-14.01,14.98-19.38c-0.24-0.17-0.48-0.34-0.72-0.52C551.35,368.2,559.56,363.07,564.83,360.53z M474.33,375.5
	l-29.59-1.25l-6.42-8.02l9.57-25.84h24.36l7.41,30.65L474.33,375.5z M500.76,370.74c0,0-11.76,0-17.7,0
	c-1.31-7.72-9.86-38.46-9.86-38.46h35.29L500.76,370.74z M541.63,372.05l-34.25,1.19l-4.12-3.92l7.26-31.49h26.36l8.56,24.07
	L541.63,372.05z"/>
<path fill="#FFFFFF" stroke="#000000" stroke-miterlimit="10" d="M581.99,295.72c-6.03,7.58-28.87,36.18-34.89,41.97l-4.97-6.93h0.1
	c0,0,27.34-24.15,38.1-39.32C581.02,292.84,581.56,294.31,581.99,295.72z"/>
</svg>
