<?xml version="1.0" encoding="utf-8"?>
<!-- Generator: Adobe Illustrator 25.2.0, SVG Export Plug-In . SVG Version: 6.00 Build 0)  -->
<svg version="1.1" baseProfile="tiny" id="Layer_1" xmlns="http://www.w3.org/2000/svg" xmlns:xlink="http://www.w3.org/1999/xlink"
	 x="0px" y="0px" viewBox="0 0 1000 1000" overflow="visible" xml:space="preserve">
<path fill="#FFFFFF" stroke="#000000" stroke-miterlimit="10" d="M594.63,151.31l-5.35,51.33c-2.11,0.58-4.43,1.95-6.86,3.95
	l-25.93,14.94c0,0-18.53-97.66-90.18-115.49c22.96-19.52,25.5-27.96,72.49-39.45c23.57-1.98,35.51,4.52,35.51,4.52
	S554,74.68,559.7,83.94c5.7,9.27,18.89,21.75,18.89,21.75s-0.36,16.39,4.63,27.8C588.21,144.9,594.63,151.31,594.63,151.31z"/>
<path fill="#FFFFFF" stroke="#000000" stroke-miterlimit="10" d="M538.8,66.59c-46.99,11.49-49.53,19.93-72.49,39.45
	c0,0-19.14,2.31-26.5,42.04c3.78-25.74,14.49-50.97,39.69-63.42C503.95,72.57,523.75,67.85,538.8,66.59z"/>
<path fill="#FFFFFF" stroke="#000000" stroke-miterlimit="10" d="M556.49,221.53c0,0-2.4-1.03-6.21-2.43
	c-0.06-0.02-0.13-0.05-0.2-0.07c-3.11-11.66-6.58-22.04-10.31-31.29c-1.09-2.71-2.2-5.33-3.34-7.85
	c-7.58-16.91-15.98-29.58-24.25-39.08c-3.18-3.65-6.33-6.82-9.41-9.61c0,0,0,0-0.01,0c-19.69-17.68-36.45-18.74-36.45-18.74
	s-18.17,10.18-23.16,35.73c-4.99,25.54,5.34,75.12,5.34,75.12l-4.63,2.5c0,0-0.02-0.07-0.05-0.22c-0.21-0.89-1.03-4.42-1.98-9.85
	c-0.87-4.9-1.84-11.33-2.58-18.75c-0.05-0.44-0.09-0.89-0.14-1.35c-0.05-0.61-0.11-1.22-0.16-1.84c-1.18-13.42-1.5-29.61,0.84-45.61
	c0-0.01,0-0.03,0.01-0.04c0-0.02,0.01-0.05,0.01-0.07c7.36-39.73,26.5-42.04,26.5-42.04C537.96,123.87,556.49,221.53,556.49,221.53z
	"/>
<path fill="#FFFFFF" stroke="#000000" stroke-miterlimit="10" d="M550.28,219.1c-21.3,21.95-70.04,35.8-92.7,37.54
	c-15.83-8.49-14.85-24.71-13.77-31.05c0.03,0.15,0.05,0.22,0.05,0.22l4.63-2.5c0,0-10.33-49.58-5.34-75.12
	c4.99-25.55,23.16-35.73,23.16-35.73s16.76,1.06,36.45,18.74c-6.95,2.14-25.8,8.77-29.85,19.04c-0.19,0.47-0.36,0.95-0.52,1.43
	c-4.78,1.56-11.78,5.29-13.38,13.9c-2.5,13.36,9,19.81,9,19.81s3.09,3.01,4.36,3.99v3.39c-3.32,1.16-8.94,3.94-13.72,10.23
	c-7.31,9.63-8.73,35.11-8.73,35.11s16.93-9.98,22.45-18.35c0.14-0.21,0.27-0.42,0.4-0.63c2.13,5.5,7.1,14.13,16.41,9.64
	c-2.4,7.38-3.08,12.02-3.08,12.02s23.88-4.46,37.24-13.9c13.37-9.45,19.43-16.04,19.43-16.04s-2.45-7.58-8.05-13.42
	c-2.67-2.78-6.05-5.17-10.22-6.16v-0.01c-0.03-0.01-0.06-0.01-0.09-0.02c0,0-3.79,0.26-8.79,2.2c-0.06-1.37,0.02-2.79,0.14-4.06
	c2.98-1.44,5.31-3.25,7-4.84c4.24-0.83,8.81-2.32,13.67-4.64c1.14,2.52,2.25,5.14,3.34,7.85c3.73,9.25,7.2,19.63,10.31,31.29
	C550.15,219.05,550.22,219.08,550.28,219.1z"/>
<path fill="#FFFFFF" stroke="#000000" stroke-miterlimit="10" d="M683.01,354.02c-5.04,4.22-9.47,7.06-12.46,8.42
	c-1.9-5.94-12.59-31.6-40.39-48c0,0-16.88-5.23-35.53,3.56c-18.21-9.37-33.27-31.9-40.46-61.46c4.86-19.93,17.54-41.11,28.25-49.95
	l6.86-3.95c0,0,19.96-19.84,52.99-16.99c33.03,2.85,77.94,29.46,80.08,82.93C724,309.83,700.05,339.77,683.01,354.02z"/>
<path fill="#FFFFFF" stroke="#000000" stroke-miterlimit="10" d="M412.37,320.65c-4.43-3.82-8.49-8.15-11.97-12.63
	c-0.96-1.23-1.88-2.47-2.75-3.71c0.59-1.04,1.68-1.69,2.84-1.78c0.94-0.07,1.91,0.23,2.69,0.99c3.13,3.04,6.69,8.12,8.6,14.07
	C412.13,318.67,412.32,319.7,412.37,320.65z"/>
<path fill="#FFFFFF" stroke="#000000" stroke-miterlimit="10" d="M535.06,298.45c-5.66,21.81-12.9,28.94-18.72,31.08
	c-5.83,2.14-26.42-7.13-26.42-7.13c1.49-0.61,2.99-1.24,4.48-1.89c0,0,32.23,11.57,32.55-16.79
	C529.76,301.99,532.47,300.23,535.06,298.45z"/>
<path fill="#FFFFFF" stroke="#000000" stroke-miterlimit="10" d="M526.95,303.71v0.01c-0.32,28.36-32.55,16.79-32.55,16.79
	C498.43,313.27,513.01,302.26,526.95,303.71z"/>
<path fill="#FFFFFF" stroke="#000000" stroke-miterlimit="10" d="M684.81,405.45c-3.33,33.74-22.1,53.7-26.61,58.69
	c-2.73,3.01-4.07-2.73-7.22-15.18v-0.01c-2.06-8.16-4.9-19.21-9.42-32.57c-5.22-15.45-11.59-29.61-17.75-41.62
	c-2.86-5.56-5.67-10.65-8.3-15.21c-4.11-7.12-7.79-12.91-10.54-17.07c-8.32-12.59-10.34-24.48-10.34-24.48
	c18.65-8.79,35.53-3.56,35.53-3.56c27.8,16.4,38.49,42.06,40.39,48c2.99-1.36,7.42-4.2,12.46-8.42c0.28,10.64-2.71,14.11-3.67,24.1
	c-1.15,12.02,2.42,17.3,5.24,26.54v0.01C684.66,404.93,684.73,405.19,684.81,405.45z"/>
<path fill="#FFFFFF" stroke="#000000" stroke-miterlimit="10" d="M730.27,577.96c-3.42,27.99-11.05,36.87-13.53,39.07
	c-0.18-0.48-0.27-0.75-0.27-0.75c0.62-1.66,1.64-4.63,2.24-7.67c0.91-4.56,0.89-9.26-2.77-9.97c-6.51-1.26-13.58,16.02-15.13,20.07
	l-0.04-0.08c0.56-1.95,1.79-6.67,1.71-10.65v-0.01c0.01-0.01,0.01-0.02,0-0.03c0.01-0.02,0.01-0.03,0-0.05
	c0.72-7.19,0.31-15.07-4.84-15.19c-8.16-0.21-16.5,17.47-18.69,22.46c-0.04-0.25-0.07-0.5-0.11-0.75v-0.01
	c1.38-6.68,5.05-27.32-2.11-28.12c-8.55-0.95-20.44,14.26-22.1,30.18c-3.56-3.33-13.54-21.62-13.54-21.62s6.89-5.23,6.89-23.77
	c0-15.77-8.09-20.19-10.5-21.14c-0.42-0.18-0.67-0.24-0.67-0.24s5.46-35.65,5.7-62.74c0.17-19.04,5.39-31.98,8.47-37.99
	c3.15,12.45,4.49,18.19,7.22,15.18c4.51-4.99,23.28-24.95,26.61-58.69c-0.08-0.26-0.15-0.52-0.23-0.78
	c8.57,7.2,19.89,18.22,27.66,31.49c-0.88-0.44-1.79-0.86-2.73-1.25c0,0-16.5,0.48-17.57,17.59c-1.07,17.11,6.41,32.43,14.61,39.56
	c5.14,4.47,13.08,1.33,19.08-3.94c1.38,8.88,2.66,18.03,3.68,27.23c-3.25-3.42-7.44-6.18-12.84-7.84c0,0-25.6,3.09-31.66,32.67
	c-6.06,29.59,16.27,48.83,31.66,45.27C721.97,584.18,726.6,581.5,730.27,577.96z"/>
<path fill="#FFFFFF" stroke="#000000" stroke-miterlimit="10" d="M647.98,571.07c0,18.54-6.89,23.77-6.89,23.77
	s-1.19-0.84-4.28-6.72c0.26-0.25,0.51-0.51,0.73-0.78h0.01c8.54-9.64-0.9-25.61-3.1-29.03c-0.27-0.43-0.43-0.66-0.43-0.66l3.46-7.72
	C639.89,550.88,647.98,555.3,647.98,571.07z"/>
<path fill="#FFFFFF" stroke="#000000" stroke-miterlimit="10" d="M637.55,587.34h-0.01c-10.76,0.1-21.99,7.22-24.9,9.19
	c0.69-3.5,0.83-7.87-0.01-13.4c-0.61-4.03-1.76-7.8-2.83-10.69c7.96-2.49,19.69-10.56,24.65-14.13
	C636.65,561.73,646.09,577.7,637.55,587.34z"/>
<path fill="#FFFFFF" stroke="#000000" stroke-miterlimit="10" d="M612.64,596.53c-1.23,6.22-4.21,9.7-6.6,12.09
	c-3.75,3.74-7.84,11.23-13.55,29.58c-18.71-50.43,14.97-71.29,14.97-71.29s1.11,2.17,2.34,5.53c1.07,2.89,2.22,6.66,2.83,10.69
	C613.47,588.66,613.33,593.03,612.64,596.53z"/>
<path fill="#FFFFFF" stroke="#000000" stroke-miterlimit="10" d="M678.84,614.4c-0.11-0.88-0.21-1.8-0.3-2.75
	c0-7.24-1-19.59-8.17-14.62c-8.94,6.21-11.32,20.32-11.7,23.58v0.01c-0.04,0.35-0.06,0.58-0.06,0.65c0,0.71-3.98-4.81-3.98-4.81
	c1.66-15.92,13.55-31.13,22.1-30.18C683.89,587.08,680.22,607.72,678.84,614.4z"/>
<path fill="#FFFFFF" stroke="#000000" stroke-miterlimit="10" d="M688.45,640.12c-0.59,13.33-6.01,39.13-32.33,66.16
	c8.73-21.56,5.52-46.87,7.3-53.82c0.69-2.68,1.91-5.27,3.16-7.45c0.01,0.05,0.01,0.1,0.01,0.14c0.02-0.09,0.04-0.19,0.08-0.29
	c1.75-3.03,3.52-5.23,3.87-5.65c0.02-0.02,0.03-0.03,0.05-0.05c3.75-3.83,9.32-7.67,13.19-8.71c2.38-0.65,4.12-0.24,4.42,1.87
	C688.42,633.89,688.61,636.56,688.45,640.12z"/>
<path fill="#FFFFFF" stroke="#000000" stroke-miterlimit="10" d="M683.78,630.45c-3.87,1.04-9.44,4.88-13.19,8.71
	c-0.02,0.02-0.03,0.03-0.05,0.05c-1.98,2.02-3.44,4.05-3.87,5.65c-0.03,0.05-0.06,0.1-0.09,0.15c-0.24-6.27-5.42-18.74-7.91-24.39
	v-0.01c0.38-3.26,2.76-17.37,11.7-23.58c7.17-4.97,8.17,7.38,8.17,14.62c0,2.79-0.15,4.81-0.15,4.81s0-0.01,0.01-0.02v-0.01
	c0.05-0.12,0.24-0.57,0.55-1.27c0.37,2.59,0.85,4.85,1.39,6.81C681.44,625.99,682.77,628.74,683.78,630.45z"/>
<path fill="#FFFFFF" stroke="#000000" stroke-miterlimit="10" d="M702.48,607.89c-0.08-3.85-1.4-6.98-5.73-6.22
	c-7.76,1.36-13.54,13.74-16.41,20.3c-0.54-1.96-1.02-4.22-1.39-6.81c2.19-4.99,10.53-22.67,18.69-22.46
	C702.79,592.82,703.2,600.7,702.48,607.89z"/>
<path fill="#FFFFFF" stroke="#000000" stroke-miterlimit="10" d="M708.14,633.51c-4.44,2.81-11.14,10.01-14.01,16.08l-5.68-9.47
	c0.16-3.56-0.03-6.23-0.25-7.8c-0.3-2.11-2.04-2.52-4.42-1.87c-1.01-1.71-2.34-4.46-3.44-8.48c2.87-6.56,8.65-18.94,16.41-20.3
	c4.33-0.76,5.65,2.37,5.73,6.22c0.01,0.02,0.01,0.03,0,0.05c0.01,0.01,0.01,0.02,0,0.03v0.01c-0.45,4.5-1.33,8.71-1.75,10.57v0.01
	c-0.09,0.39-0.16,0.67-0.19,0.83c-0.01,0.04-0.02,0.07-0.03,0.09c0.05-0.12,0.15-0.38,0.3-0.76l0.43,0.87L708.14,633.51z"/>
<path fill="#FFFFFF" stroke="#000000" stroke-miterlimit="10" d="M713.73,642.43c-0.11,7.54-1.73,17.56-4.22,24.21v0.01
	c-0.21,0.56-0.42,1.09-0.64,1.6c-4.46,10.27-12.83,23.77-26.2,35.71c10.34-12.83,8.2-42.59,10.34-51.32
	c0.24-0.96,0.62-1.99,1.12-3.05c2.87-6.07,9.57-13.27,14.01-16.08c1.85-1.16,3.3-1.57,3.94-0.83
	C713.3,634.1,713.8,637.8,713.73,642.43z"/>
<path fill="#FFFFFF" stroke="#000000" stroke-miterlimit="10" d="M718.71,608.61c-1.49-13-13.95,5.07-17.47,10.98l-0.43-0.87v-0.01
	c1.55-4.05,8.62-21.33,15.13-20.07C719.6,599.35,719.62,604.05,718.71,608.61z"/>
<path fill="#FFFFFF" stroke="#000000" stroke-miterlimit="10" d="M723.44,631.88c-3.39,1.73-7.32,7.03-9.71,10.55
	c0.07-4.63-0.43-8.33-1.65-9.75c-0.64-0.74-2.09-0.33-3.94,0.83l-6.9-13.92c3.52-5.91,15.98-23.98,17.47-10.98
	c-0.6,3.04-1.62,6.01-2.24,7.67c-0.3,0.81-0.5,1.31-0.52,1.36c0.05-0.03,0.33-0.2,0.79-0.61C717.55,619.25,720.12,626,723.44,631.88
	z"/>
<path fill="#FFFFFF" stroke="#000000" stroke-miterlimit="10" d="M726.87,665.29c-3.51,9.65-19.8,28.97-20.31,29.58
	c0.18-0.54,6.04-17.42,2.95-28.22v-0.01c2.49-6.65,4.11-16.67,4.22-24.21c2.39-3.52,6.32-8.82,9.71-10.55
	c1.57-0.79,3.02-0.83,4.14,0.43C732.39,637.67,730.43,655.49,726.87,665.29z"/>
<path fill="#FFFFFF" stroke="#000000" stroke-miterlimit="10" d="M729.31,515.35c-3.25-3.42-7.44-6.18-12.84-7.84
	c0,0-25.6,3.09-31.66,32.67c-6.06,29.59,16.27,48.83,31.66,45.27c5.5-1.27,10.13-3.95,13.8-7.49v-0.01
	c6.63-6.36,10.18-15.52,10.18-24.22C740.45,543.45,739.53,526.12,729.31,515.35z M731.27,567.05c-8.34,6.06-20.91-0.32-21.33-12.61
	c-0.54-15.68,12.41-23.53,16.93-22.81c1.08,0.17,2.55,0.85,4.09,2.01v0.01c4.92,3.7,10.51,12.39,5.89,25.42
	C735.54,562.76,733.57,565.38,731.27,567.05z"/>
<path fill="#FFFFFF" stroke="#000000" stroke-miterlimit="10" d="M736.85,559.07c-1.31,3.69-3.28,6.31-5.58,7.98
	c-8.34,6.06-20.91-0.32-21.33-12.61c-0.54-15.68,12.41-23.53,16.93-22.81c1.08,0.17,2.55,0.85,4.09,2.01v0.01
	C735.88,537.35,741.47,546.04,736.85,559.07z"/>
<path fill="#FFFFFF" stroke="#000000" stroke-miterlimit="10" d="M441.72,404.26c-0.77-3.21-5.46-8.78-10.36-13.54l-0.01-0.01
	c-2.71-2.65-5.49-5.04-7.69-6.65c-2.9-2.11-3.42-6.11-3.15-9.76c0.3-4.13,1.61-7.82,1.61-7.82c1.58,0.8,3.05,1.77,4.41,2.87
	C439.12,379.45,442.79,400.4,441.72,404.26z"/>
<path fill="#FFFFFF" stroke="#000000" stroke-miterlimit="10" d="M592.03,397.22c3.8-5.4,7.95-13.61,7.95-17.91
	c0-5.15-17.02,16.63-32.18,26.9h-0.01c-0.03,0.01-0.06,0.01-0.09,0.02c12.01-12.5,21.83-43.02,10.89-31.2
	c-11.17,12.36-40.98,25.64-40.98,25.64c-1.45-0.69-2.93-1.42-4.44-2.2c3.79-3.43,9.34-8.83,13.34-14.41
	c6.66-9.26,8.56-32.79-1.66-21.62c-6.74,7.37-23.53,14.95-34.16,19.25l-1.23-0.88l-15.38-11.26l-7.45-5.45c0,0-1.85,1.02-4.56,2.99
	c-14.93-9.56-27.34-16.88-32.75-16.29c-9.91,1.08-18.21,11.46-22.79,18.55c-1.36-1.1-2.83-2.07-4.41-2.87c0,0-1.31,3.69-1.61,7.82
	c-0.87-0.67-1.72-1.38-2.54-2.13c-24.33-21.45-29.34-59.03-30.19-79.1v-0.01c-0.35-8.25,0-13.55,0-13.55
	c-0.25,6.52,3.56,15.74,9.87,24.8c-0.24,0.43-0.4,0.93-0.44,1.49c-0.29,4.02-0.02,9.88,2.63,16.07c4,9.32,11.81,7.09,12.5,0.34
	c0.58,0,1.16-0.05,1.73-0.12c10.03,8.18,21.78,13.67,33.12,12.55c11.28-1.12,26.77-5.67,42.73-12.24c0,0,20.59,9.27,26.42,7.13
	c5.82-2.14,13.06-9.27,18.72-31.08c7.42-5.1,13.83-10.39,18.58-15.61c-2.34-7.48-1.8-16.75,0.53-26.3
	c7.19,29.56,22.25,52.09,40.46,61.46c0,0,2.02,11.89,10.34,24.48c2.75,4.16,6.43,9.95,10.54,17.07c2.63,4.56,5.44,9.65,8.3,15.21
	C615.85,382.55,604.39,390.9,592.03,397.22z"/>
<path fill="#FFFFFF" stroke="#000000" stroke-miterlimit="10" d="M599.98,379.31c0,4.3-4.15,12.51-7.95,17.91
	c-7.93,4.06-16.23,7.29-24.23,8.99C582.96,395.94,599.98,374.16,599.98,379.31z"/>
<path fill="#FFFFFF" stroke="#000000" stroke-miterlimit="10" d="M526.95,303.72v-0.01c-13.94-1.45-28.52,9.56-32.55,16.8
	c-1.49,0.65-2.99,1.28-4.48,1.89c0,0,9.45-27.23,45.14-23.95C532.47,300.23,529.76,301.99,526.95,303.72z"/>
<path fill="#FFFFFF" stroke="#000000" stroke-miterlimit="10" d="M412.34,322.21c-0.69,6.75-8.5,8.98-12.5-0.34
	c-2.65-6.19-2.92-12.05-2.63-16.07c0.04-0.56,0.2-1.06,0.44-1.49c0.87,1.24,1.79,2.48,2.75,3.71c0.26,3.78,1.3,8.25,4.35,11.35
	C406.93,321.59,409.68,322.27,412.34,322.21z"/>
<path fill="#FFFFFF" stroke="#000000" stroke-miterlimit="10" d="M412.34,322.21c-2.66,0.06-5.41-0.62-7.59-2.84
	c-3.05-3.1-4.09-7.57-4.35-11.35c3.48,4.48,7.54,8.81,11.97,12.63C412.4,321.19,412.39,321.71,412.34,322.21z"/>
<path fill="#FFFFFF" stroke="#000000" stroke-miterlimit="10" d="M494.08,369.55c-0.15,1.49-0.38,3.14-0.7,4.85
	c-0.66,3.37-1.72,6.94-3.46,9.78c0,0-14.22,1.31-29.43,20.08c-0.18-18.87,14.04-31.7,21.58-37.17c2.71-1.97,4.56-2.99,4.56-2.99
	L494.08,369.55z"/>
<path fill="#FFFFFF" stroke="#000000" stroke-miterlimit="10" d="M542.23,380.81c-0.67,4.53-7.17,10.3-13.82,15.12
	c-7.37,5.35-14.93,9.52-14.93,9.52l-23.56-21.27c1.74-2.84,2.8-6.41,3.46-9.78c0.32-1.71,0.55-3.36,0.7-4.85l15.38,11.26l1.23,0.88
	l5.17,3.68C515.86,385.37,543.66,371.23,542.23,380.81z"/>
<path fill="#FFFFFF" stroke="#000000" stroke-miterlimit="10" d="M492.11,427.79c0.03,1.05,0.05,1.66,0.05,1.66
	s-21.22,10.22-31.67,27.09c0,0,8.69-40.64,31.67-44.44c-0.02,0.51-0.03,1.02-0.04,1.53C491.96,419.54,492.05,425.11,492.11,427.79z"
	/>
<path fill="#FFFFFF" stroke="#000000" stroke-miterlimit="10" d="M529.15,437.18c-0.27,2.42-1,4.49-2.46,5.7
	c-1.27,1.05-3.07,1.11-5.25,0.5c-7.31-1.99-18.91-11.39-29.33-15.59c-0.06-2.68-0.15-8.25,0.01-14.16
	c4.08,1.58,21.42,8.2,25.34,8.04c4.46-0.18,9.23-1.96,9.23-1.96S529.96,429.99,529.15,437.18z"/>
<path fill="#FFFFFF" stroke="#000000" stroke-miterlimit="10" d="M567.56,406.37c0.07-0.04,0.15-0.09,0.22-0.15
	c-4.12,5.17-20.57,16.88-28.22,22.31c-4.5,3.2-8.16,6.49-10.41,8.65c0.81-7.19-2.46-17.47-2.46-17.47s11.05-10.48,17-16.33
	c-1.96-0.8-3.99-1.71-6.08-2.71c0,0,29.81-13.28,40.98-25.64c10.94-11.82,1.12,18.7-10.89,31.2
	C567.65,406.28,567.6,406.33,567.56,406.37z"/>
<path fill="#FFFFFF" stroke="#000000" stroke-miterlimit="10" d="M546.51,384.06c-4,5.58-9.55,10.98-13.34,14.41
	c-1.56-0.8-3.15-1.65-4.76-2.54c6.65-4.82,13.15-10.59,13.82-15.12c1.43-9.58-26.37,4.56-26.37,4.56l-5.17-3.68
	c10.63-4.3,27.42-11.88,34.16-19.25C555.07,351.27,553.17,374.8,546.51,384.06z"/>
<path fill="#FFFFFF" stroke="#000000" stroke-miterlimit="10" d="M528.7,477.7c-0.71-0.39-1.75,0.13-3.05,1.37
	c-3.8,0.79-10.45,2.24-19.24,4.44c-14.25,3.56-52.75,35.11-61.66,39.03c-16.57-8.02-20.14-37.78-20.5-39.92
	c0.9-1.35,5.65-3.2,9.02-4.38c3.03,24.08,15.76,28.79,15.76,28.79s18.71-10.51,31.01-19.6c12.29-9.09,26.91-19.96,34.57-20.32
	c0.01-0.13,0.03-0.27,0.05-0.4C520.98,469.64,526.89,475.73,528.7,477.7z"/>
<path fill="#FFFFFF" stroke="#000000" stroke-miterlimit="10" d="M588.21,687.92c-8.59-3.69-13.86-7.03-17.34-10.37
	c-6.77-6.46-6.82-12.88-11.53-21.7c-50.17-44.44-69.85-88.84-74.14-99.72c0.85-0.44,1.43-0.74,1.43-0.74s-0.56-1.63-1.15-4.36
	c-1.77-8.2-3.79-26.35,8.52-40.08c7.99-8.92,15.2-14.62,20.39-15.62c5.44-1.03,8.67,3.12,8.24,14.2c0.26-0.87,0.57-1.75,0.91-2.65
	c0.11,5.83,0.59,8.38,2.83,15.78c-0.7-0.08-1.41-0.12-2.14-0.12c0,0-13.18,12.3-3.74,33.15c9.45,20.85,21.56,19.83,21.56,19.83
	c15.56,52.46,27.89,59.73,34.76,71.06c3.43,4.45,6.35,8.62,8.41,13.78C587.88,667,589.12,675.29,588.21,687.92z"/>
<path fill="#FFFFFF" stroke="#000000" stroke-miterlimit="10" d="M492.12,413.63c0.01-0.51,0.02-1.02,0.04-1.53
	c-22.98,3.8-31.67,44.44-31.67,44.44c10.45-16.87,31.67-27.09,31.67-27.09s-0.02-0.61-0.05-1.66c10.42,4.2,22.02,13.6,29.33,15.59
	c-1.94,4.24-5.68,13.43-6.78,23.33c-0.02,0.13-0.04,0.27-0.05,0.4c-7.66,0.36-22.28,11.23-34.57,20.32
	c-12.3,9.09-31.01,19.6-31.01,19.6s-12.73-4.71-15.76-28.79c-0.04-0.26-0.07-0.52-0.1-0.79c0.21-5.97,0.84-19.52,1.06-34.53
	c2.87,3.54,6.56,7.92,11.23,13.62c-0.42-21.51-8.23-36.09-11.45-41.21c-0.39-9.85-1.19-18.68-2.65-24.61
	c4.9,4.76,9.59,10.33,10.36,13.54c1.07-3.86-2.6-24.81-15.19-34.91c4.58-7.09,12.88-17.47,22.79-18.55
	c5.41-0.59,17.82,6.73,32.75,16.29c-7.54,5.47-21.76,18.3-21.58,37.17c15.21-18.77,29.43-20.08,29.43-20.08l23.56,21.27
	c0,0,7.56-4.17,14.93-9.52c1.61,0.89,3.2,1.74,4.76,2.54c1.51,0.78,2.99,1.51,4.44,2.2c2.09,1,4.12,1.91,6.08,2.71
	c-5.95,5.85-17,16.33-17,16.33s-4.77,1.78-9.23,1.96C513.54,421.83,496.2,415.21,492.12,413.63z"/>
<path fill="#FFFFFF" stroke="#000000" stroke-miterlimit="10" d="M445.46,456.54c-4.67-5.7-8.36-10.08-11.23-13.62
	c-6.85-8.5-8.9-12.21-8.02-17.87c1.25-8.02,6.42-11.76,6.42-11.76s0.53,0.69,1.38,2.04C437.23,420.45,445.04,435.03,445.46,456.54z"
	/>
<path fill="#FFFFFF" stroke="#000000" stroke-miterlimit="10" d="M523.54,506.88c-0.34,0.9-0.65,1.78-0.91,2.65
	c0.43-11.08-2.8-15.23-8.24-14.2c-5.19,1-12.4,6.7-20.39,15.62c-12.31,13.73-10.29,31.88-8.52,40.08c-0.79,1.65-1.23,2.58-1.23,2.58
	s0.3,0.88,0.95,2.52c-1.22,0.63-2.99,1.53-4.32,2.18c-0.56,0.27-1.05,0.5-1.38,0.64c-9.03-1.18-28.75-12.11-42.77-30.65
	c-2.66-3.52-4.77-7.35-6.43-11.25v-1.28c-0.05,0.01-0.22,0.03-0.49,0.08c-6.52-16.26-5.56-33.23-5.56-33.23
	c0.36,2.14,3.93,31.9,20.5,39.92c8.91-3.92,47.41-35.47,61.66-39.03c8.79-2.2,15.44-3.65,19.24-4.44c2.37-0.49,3.63-0.73,3.63-0.73
	C533.72,487.16,527.02,497.71,523.54,506.88z"/>
<path fill="#FFFFFF" stroke="#000000" stroke-miterlimit="10" d="M623.86,698.71c-0.18,5.79-6.95,16.13-10.65,16.13
	s-1.47,8.02-6.64,8.02c-4.54,0-23.77-12.37-29.72-16.83c-0.83-0.62-1.4-1.09-1.64-1.35c-1.57-1.71-3.59-19.85-4.34-27.13
	c3.48,3.34,8.75,6.68,17.34,10.37c0.91-12.63-0.33-20.92-2.99-27.56c8.79,3.76,32.14,18.77,33.11,23.47
	c0.19,0.89,0.48,1.75,0.83,2.59C620.86,690.41,624.01,693.92,623.86,698.71z"/>
<path fill="#FFFFFF" stroke="#000000" stroke-miterlimit="10" d="M639.72,742.27c-0.64,7.47-1.44,15.3-2.26,22.47
	c-1.76,15.44-3.56,27.79-3.8,26.91c-0.33-1.22-15.26-14.15-28.4-26.32c-8-7.41-15.32-14.54-18.29-18.59
	c-5.64-7.7-8.79-29.24-10.12-40.71c5.95,4.46,25.18,16.83,29.72,16.83c5.17,0,2.94-8.02,6.64-8.02s10.47-10.34,10.65-16.13
	c0.15-4.79-3-8.3-4.7-12.29c7.11,4.25,20.46,13.87,21.63,26.63C641.33,718.98,640.75,730.16,639.72,742.27z"/>
<path fill="#FFFFFF" stroke="#000000" stroke-miterlimit="10" d="M669.36,885.21c-3.75-2.74-6.93-4.16-9.63-4.63
	c-1.18-4.85-2.43-9.33-3.44-11.59c-2.05,1.65-1.74,7.26-1.1,11.72c-8.72,2.29-10.3,16.38-10.3,16.38l-0.62-4.84l-2.99-23.37
	c2.84-9.8,9.62-15.09,17.18-5.84c1.78,4.29,4.86,11.03,10,20.52v0.01C668.75,884.11,669.05,884.65,669.36,885.21z"/>
<path fill="#FFFFFF" stroke="#000000" stroke-miterlimit="10" d="M659.86,864.9c-0.47-0.68-0.93-1.3-1.4-1.86
	c-7.56-9.25-14.34-3.96-17.18,5.84c-0.1,0.33-0.19,0.67-0.28,1.01c-6.42-34.14-26.71-83.57-35.74-104.56
	c13.14,12.17,28.07,25.1,28.4,26.32c0.24,0.88,2.04-11.47,3.8-26.91c0.82-7.17,1.62-15,2.26-22.47
	C643.97,765.36,651.99,837.91,659.86,864.9z"/>
<path fill="#FFFFFF" stroke="#000000" stroke-miterlimit="10" d="M686.71,907.79c-2.43-7.29-12.81-18.63-18.25-24.22
	c0.29,0.54,0.59,1.08,0.9,1.64c-3.75-2.74-6.93-4.16-9.63-4.63c2.18,8.9,4.09,19.03,3.69,18.89c-6.23-2.32-7.13-12.83-7.13-12.83
	s-0.64-2.65-1.1-5.93c-8.72,2.29-10.3,16.38-10.3,16.38l-0.62-4.84c-2.22,8.42-5.95,26.03-0.81,33.83
	c6.89,10.46,29.47,33.41,41.35,33.41C696.69,959.49,690.04,917.77,686.71,907.79z M678.39,938.5
	c-12.29-17.82-10.51-22.99-10.51-22.99v-27.8C667.88,887.71,680.89,917.51,678.39,938.5z"/>
<path fill="#FFFFFF" stroke="#000000" stroke-miterlimit="10" d="M507.3,637.49c0,0-0.35,0.38-0.95,1.11
	c-3.46,4.22-15.34,20.08-15.8,39.7c-2.76-1.55-5.59-3.88-8.23-6.52c-7.08-7.06-12.83-16.37-12.44-18.96
	c0.53-3.57,4.45-2.5,3.92-11.77c-0.54-9.26-36-52.21-39.92-68.97c-1.02-4.37-1.76-10.52-2.29-17.22
	c-1.07-13.86-1.26-30.07-1.29-37.81c1.66,3.9,3.77,7.73,6.43,11.25c14.02,18.54,33.74,29.47,42.77,30.65
	c0.33-0.14,0.82-0.37,1.38-0.64c1.26,11.23,6.13,52.83,9.67,59.75C494.65,626.08,507.3,637.49,507.3,637.49z"/>
<path fill="#FFFFFF" stroke="#000000" stroke-miterlimit="10" d="M527.97,663.59l-1.24,13.82l-9.62,8.2c0,0-6.06,22.63-10.75,24.77
	c-4.7,2.14-12.96-2.85-14.38-5.97c-0.76-1.66-3.53-4.04-5.96-5.92c-1.81-11.3-3.13-21.88-3.7-26.71c2.64,2.64,5.47,4.97,8.23,6.52
	c0.46-19.62,12.34-35.48,15.8-39.7C509.77,642.33,519.12,652.65,527.97,663.59z"/>
<path fill="#FFFFFF" stroke="#000000" stroke-miterlimit="10" d="M540.56,730.29c-1.21,1.21-2.55,2.25-4.03,3.08
	c-12.3,6.95-24.41,34.04-31.54,38.32c0.22-2.24-1.28-7.42-3.48-14.16c0,0,0,0,0-0.01c-3.04-9.34-7.42-21.65-10.42-33.24
	c-1.9-7.36-3.64-16.8-5.07-25.79c2.43,1.88,5.2,4.26,5.96,5.92c1.42,3.12,9.68,8.11,14.38,5.97c4.69-2.14,10.75-24.77,10.75-24.77
	l9.62-8.2l1.24-13.82c7.83,9.66,15.25,19.82,17.83,26.3C551.29,703.69,549.46,721.49,540.56,730.29z"/>
<path fill="#FFFFFF" stroke="#000000" stroke-miterlimit="10" d="M486.83,877.52c-4.14-12.96-9.76-19.62-15.15-23.03
	c5.66-3.36,12.44-9.28,17.98-19.71c0.23-0.43,0.46-0.88,0.67-1.34c11.02,3.51,16.98,18.44,19.22,20.58c1.8,1.72,4.7-2.65,6.07-5.01
	c1.77,4.67,5.37,13.93,6.3,14.99C522.65,864.84,506.52,871.1,486.83,877.52z"/>
<path fill="#FFFFFF" stroke="#000000" stroke-miterlimit="10" d="M515.45,837.45c-0.08,9.01,0.29,10.81,0.58,10.85
	c-0.12,0.2-0.25,0.44-0.41,0.71c-1.37,2.36-4.27,6.73-6.07,5.01c-2.24-2.14-8.2-17.07-19.22-20.58
	c9.04-18.8,10.83-60.24,11.18-75.91c2.2,6.74,3.7,11.92,3.48,14.16c7.13-4.28,19.24-31.37,31.54-38.32
	c1.48-0.83,2.82-1.87,4.03-3.08c-1.5,8.09-4.43,22.25-8.48,34.27C526.02,782.56,515.57,822.66,515.45,837.45z"/>
<path fill="#FFFFFF" stroke="#000000" stroke-miterlimit="10" d="M486.83,877.52c-13.81,4.51-29.37,9.1-42.08,11.97
	c-30.83,6.95-49.19,8.91-47.41,6.06c0.45-0.71,4-3.86,9.16-8.18c-0.05,0.58-0.08,1.11-0.07,1.58c11.77-2.13,21.21-17.36,21.21-17.36
	s-0.05-0.41-0.13-1.13c3.87-3.01,7.72-5.94,11.3-8.57c-0.04,1.25,0.06,1.94,0.06,1.94c8.73,6.41,13.9-9.42,13.9-9.42
	s-0.19-0.67-0.49-1.74c1.85-1.08,3.19-1.68,3.88-1.68c2.89,0,9.04-0.59,15.52,3.5C477.07,857.9,482.69,864.56,486.83,877.52z"/>
<path fill="#FFFFFF" stroke="#000000" stroke-miterlimit="10" d="M452.77,854.41c0,0-5.17,15.83-13.9,9.42c0,0-0.1-0.69-0.06-1.94
	c0.11-3.78,1.47-12.71,10.57-23.55c-0.13,2.87,1.94,10.8,2.9,14.33C452.58,853.74,452.77,854.41,452.77,854.41z"/>
<path fill="#FFFFFF" stroke="#000000" stroke-miterlimit="10" d="M427.51,870.46c0.08,0.72,0.13,1.13,0.13,1.13
	s-9.44,15.23-21.21,17.36c-0.01-0.47,0.02-1,0.07-1.58c1.09-10.66,13.4-37.67,22.03-45.11
	C425.47,849.62,427.02,866.03,427.51,870.46z"/>
<path fill="#FFFFFF" stroke="#000000" stroke-miterlimit="10" d="M678.39,938.5c-12.29-17.82-10.51-22.99-10.51-22.99v-27.8
	C667.88,887.71,680.89,917.51,678.39,938.5z"/>
<path fill="#FFFFFF" stroke="#000000" stroke-miterlimit="10" d="M663.42,899.47c-6.23-2.32-7.13-12.83-7.13-12.83
	s-0.64-2.65-1.1-5.93c-0.64-4.46-0.95-10.07,1.1-11.72c1.01,2.26,2.26,6.74,3.44,11.59C661.91,889.48,663.82,899.61,663.42,899.47z"
	/>
<path fill="#FFFFFF" stroke="#000000" stroke-miterlimit="10" d="M549.26,556.36c-1.96,9.22-7.21,19.16-7.21,19.16
	s-12.11,1.02-21.56-19.83c-9.44-20.85,3.74-33.15,3.74-33.15c0.73,0,1.44,0.04,2.14,0.12c6.27,0.68,11.53,4.29,15.48,8.91
	c-3.32,3.13-9.59,10.64-3.89,18.77C540.83,554.44,545.1,556,549.26,556.36z"/>
<path fill="#FFFFFF" stroke="#000000" stroke-miterlimit="10" d="M549.26,556.36c-4.16-0.36-8.43-1.92-11.3-6.02
	c-5.7-8.13,0.57-15.64,3.89-18.77c4.19,4.88,6.92,10.88,7.87,15.74C550.23,549.92,549.95,553.09,549.26,556.36z"/>
<path fill="#FFFFFF" stroke="#000000" stroke-miterlimit="10" d="M431.59,554.86c-8.87,0.04-14.38-10.58-14.38-10.58
	s-0.44-6.77,0-17.02c1.72-8.79,10.41-10.99,12.6-11.41c0.16,0.4,0.33,0.8,0.49,1.2C430.33,524.79,430.52,541,431.59,554.86z"/>
<path fill="#FFFFFF" stroke="#000000" stroke-miterlimit="10" d="M417.97,372.17c-5.53,12.29-13.22,33.58-20.31,52.24
	c-7.29,19.18-13.96,35.59-17.01,36.64c-6.74,2.33-14.85-36.98-10.74-55.59c0.09-0.41,0.19-0.81,0.29-1.2
	c10.05-24.81,9.04-38.44,7.98-52.76c-0.48-6.66-0.98-13.48-0.38-21.65c1.48-19.99,7.42-32.3,9.98-36.78
	C388.63,313.14,393.64,350.72,417.97,372.17z"/>
<path fill="#FFFFFF" stroke="#000000" stroke-miterlimit="10" d="M404.41,477.57c0,0-12.83,49.07-14.49,61.19
	c-0.62,4.51-2.36,11.96-4.71,19.99l-2.87-1.98c-2.15-6.02-6.02-14.33-10.24-11.36c-6.42,4.51-10.88,31.67-3.3,37.34
	c2.56,1.91,4.82,2.54,6.69,2.52c-1.63,3.35-3.26,6.1-4.82,7.9c-7.84,9.03-24.47,22.1-24.47,22.1c0.71-20.91-17.35-35.64-17.35-35.64
	v9.5c0,0,0.29,0.18,0.79,0.53c-0.63,3.04-1.98,9.29-3.74,16.2c-2.34-1.98-4.65-4.39-6.77-7.3c-3.89-5.31-7.16-12.29-8.9-21.46
	c2.21,1.03,2.94,1.1,2.94,1.1s2.89-4.11,5.96-10.55c3.45-7.23,7.1-17.38,7.1-27.94c0-7.47-1.11-14.23-2.51-19.78
	c-2.33-9.29-5.45-15.15-5.45-15.15s-0.65,0.24-1.75,0.72c2.6-10.09,5.17-17.96,6.47-21.76c0.55-1.61,0.87-2.49,0.87-2.49
	s3.84-2.66,8.7-9.53c1.99-2.79,4.14-6.28,6.27-10.57c3.5-7.06,5.99-14.09,7.62-19.52c1.13-3.72,1.86-6.7,2.25-8.41
	c0.24-1.05,0.35-1.63,0.35-1.63s11.2-16.43,20.86-26.13c-4.11,18.61,4,57.92,10.74,55.59c3.05-1.05,9.72-17.46,17.01-36.64
	C401.42,435.3,406.82,455.65,404.41,477.57z"/>
<path fill="#FFFFFF" stroke="#000000" stroke-miterlimit="10" d="M346.2,615.27c0,0-1.72-0.17-4.42-0.93
	c0.49-14.57-9.26-22.62-12.14-24.68c-0.5-0.35-0.79-0.53-0.79-0.53v-9.5C328.85,579.63,346.91,594.36,346.2,615.27z"/>
<path fill="#FFFFFF" stroke="#000000" stroke-miterlimit="10" d="M332.56,471.72c-4.86,6.87-8.7,9.53-8.7,9.53s-0.32,0.88-0.87,2.49
	c-5.48-3.66-8.65-11.04-9.55-13.39c2.11-1.33,4.52-3.68,6.27-7.8C322.19,464.89,327.48,469.53,332.56,471.72z"/>
<path fill="#FFFFFF" stroke="#000000" stroke-miterlimit="10" d="M348.7,433.22c-0.39,1.71-1.12,4.69-2.25,8.41
	c-9.59,2.3-20.95,8.32-24.47,10.26c0.07-2.45-0.17-4.62-0.53-6.44c0.35-0.38,0.72-0.73,1.1-1.03
	C327.47,440.58,341.03,435.76,348.7,433.22z"/>
<path fill="#FFFFFF" stroke="#000000" stroke-miterlimit="10" d="M321.98,451.89c-0.06,2.45-0.44,5.18-1.33,8.09
	c-0.28,0.93-0.6,1.78-0.94,2.57c-1.75,4.12-4.16,6.47-6.27,7.8c-0.18-0.47-0.27-0.74-0.27-0.74s2.12-17.53,8.28-24.16
	C321.81,447.27,322.05,449.44,321.98,451.89z"/>
<path fill="#FFFFFF" stroke="#000000" stroke-miterlimit="10" d="M346.45,441.63c-1.63,5.43-4.12,12.46-7.62,19.52
	c-2.13,4.29-4.28,7.78-6.27,10.57c-5.08-2.19-10.37-6.83-12.85-9.17c0.34-0.79,0.66-1.64,0.94-2.57c0.89-2.91,1.27-5.64,1.33-8.09
	C325.5,449.95,336.86,443.93,346.45,441.63z"/>
<path fill="#FFFFFF" stroke="#000000" stroke-miterlimit="10" d="M319.13,567.65c-3.07,6.44-5.96,10.55-5.96,10.55
	s-0.73-0.07-2.94-1.1c-1.86-0.87-4.77-2.42-9.17-5.19c0.46-4.3,0.42-8.18,0.02-11.65c2.01,0,4.73,0.17,7.65,0.98
	C312.22,562.2,315.99,564.07,319.13,567.65z"/>
<path fill="#FFFFFF" stroke="#000000" stroke-miterlimit="10" d="M323.72,519.93c-2.91,2.37-7.66,6.58-12.55,10.9
	c-6.01,5.32-12.22,10.81-15.44,13.26c-1.7-2.84-3.51-4.95-4.95-6.38c0.54-5.15,1.64-9.9,3.14-13.45
	c4.26-10.08,17.76-16.67,22.6-18.76c1.1-0.48,1.75-0.72,1.75-0.72S321.39,510.64,323.72,519.93z"/>
<path fill="#FFFFFF" stroke="#000000" stroke-miterlimit="10" d="M301.06,571.91c-0.54-0.34-1.1-0.69-1.68-1.07
	c-7.85-5.08-9.94-20.32-8.6-33.13c1.44,1.43,3.25,3.54,4.95,6.38c2.37,3.92,4.56,9.25,5.35,16.17
	C301.48,563.73,301.52,567.61,301.06,571.91z"/>
<path fill="#FFFFFF" stroke="#000000" stroke-miterlimit="10" d="M326.23,539.71c0,10.56-3.65,20.71-7.1,27.94
	c-3.14-3.58-6.91-5.45-10.4-6.41c-2.92-0.81-5.64-0.98-7.65-0.98c-0.79-6.92-2.98-12.25-5.35-16.17c3.22-2.45,9.43-7.94,15.44-13.26
	c4.89-4.32,9.64-8.53,12.55-10.9C325.12,525.48,326.23,532.24,326.23,539.71z"/>
<path fill="#FFFFFF" stroke="#000000" stroke-miterlimit="10" d="M376.59,582.91c1.1,0.1,2.55,0.24,4.14,0.42
	c-0.9,0.74-2.72,1.92-5.24,1.94c-1.87,0.02-4.13-0.61-6.69-2.52c-7.58-5.67-3.12-32.83,3.3-37.34c4.22-2.97,8.09,5.34,10.24,11.36
	l-7.87-5.42c-9.99,15.45,0,31.4,0,31.4S375.29,582.8,376.59,582.91z"/>
<path fill="#FFFFFF" stroke="#000000" stroke-miterlimit="10" d="M390.87,585.27c-0.31-0.1-0.64-0.21-0.99-0.3
	c-2.64-0.75-6.15-1.28-9.15-1.64c-1.59-0.18-3.04-0.32-4.14-0.42c-1.3-0.11-2.12-0.16-2.12-0.16s-9.99-15.95,0-31.4l7.87,5.42
	l2.87,1.98l6.76,4.66l0.8,0.55C392.77,563.96,388.97,580.69,390.87,585.27z"/>
<path fill="#FFFFFF" stroke="#000000" stroke-miterlimit="10" d="M410.35,624.54c-6.16-15.98-16.69-33.5-20.47-39.57
	c0.35,0.09,0.68,0.2,0.99,0.3c-1.9-4.58,1.9-21.31,1.9-21.31l-0.8-0.55c2.1-2.69,5.32-6.12,5.79-5.64
	C398.47,558.48,423.9,578.91,410.35,624.54z"/>
<path fill="#FFFFFF" stroke="#000000" stroke-miterlimit="10" d="M341.78,614.34c0,0-8.03,19.84-11.43,28.07
	c-0.88,2.12-1.45,3.47-1.5,3.51c-0.05,0.05-0.52-0.55-1.25-1.54c-0.01-0.01-0.01-0.02-0.01-0.02c-2.69-3.67-8.89-12.61-10.38-13.17
	c0.26-0.44,0.52-0.92,0.78-1.44l1.14,0.48v-2.93c2.48-5.75,4.86-13.98,6.77-21.44c1.76-6.91,3.11-13.16,3.74-16.2
	C332.52,591.72,342.27,599.77,341.78,614.34z"/>
<path fill="#FFFFFF" stroke="#000000" stroke-miterlimit="10" d="M325.9,605.86c-1.91,7.46-4.29,15.69-6.77,21.44v-28.74
	C321.25,601.47,323.56,603.88,325.9,605.86z"/>
<path fill="#FFFFFF" stroke="#000000" stroke-miterlimit="10" d="M338.82,696.29c-0.49-0.42-16.26-14.07-23.28-32.78
	c-7.13-19.01-3.09-36.12-3.09-36.12l5.54,2.35v0.01c-0.26,0.52-0.52,1-0.78,1.44c1.49,0.56,7.69,9.5,10.38,13.17
	c0,0,0,0.01,0.01,0.02c0.19,0.51,3.18,8.9,4.11,23.17c0.06,0.89,0.13,1.77,0.23,2.65C333.37,683.69,338.65,695.89,338.82,696.29z"/>
<path fill="#FFFFFF" stroke="#000000" stroke-miterlimit="10" d="M368.77,682.99c-3.66,0.7-25.48-8.07-36.83-12.79
	c-0.1-0.88-0.17-1.76-0.23-2.65c-0.93-14.27-3.92-22.66-4.11-23.17c0.73,0.99,1.2,1.59,1.25,1.54c0.05-0.04,0.62-1.39,1.5-3.51
	l13.23,17.18C343.58,659.59,350.71,679.43,368.77,682.99z"/>
<path fill="#FFFFFF" stroke="#000000" stroke-miterlimit="10" d="M712.24,436.16c-0.88-0.44-1.79-0.86-2.73-1.25
	c0,0-16.5,0.48-17.57,17.59c-1.07,17.11,6.41,32.43,14.61,39.56c5.14,4.47,13.08,1.33,19.08-3.94c3.57-3.14,6.46-7.04,7.65-10.55
	C736.36,468.55,733.41,446.62,712.24,436.16z M730.42,468.47c-0.52,5.4-2.3,10.47-5.93,12.55c-1.52,0.87-3.37,1.21-5.58,0.83
	c-7.49-1.31-14.73-21.27-4.99-29.11c1.69-1.36,3.32-2.01,4.84-2.1C726.02,450.18,731.03,462.15,730.42,468.47z"/>
<path fill="#FFFFFF" stroke="#000000" stroke-miterlimit="10" d="M730.42,468.47c-0.52,5.4-2.3,10.47-5.93,12.55
	c-1.52,0.87-3.37,1.21-5.58,0.83c-7.49-1.31-14.73-21.27-4.99-29.11c1.69-1.36,3.32-2.01,4.84-2.1
	C726.02,450.18,731.03,462.15,730.42,468.47z"/>
<path fill="#FFFFFF" stroke="#000000" stroke-miterlimit="10" d="M441.83,215.74c-8.71,5.34-40.2,26.7-54.05,63.77
	c0,0-0.35,5.3,0,13.55v0.01c-2.56,4.48-8.5,16.79-9.98,36.78c-0.6,8.17-0.1,14.99,0.38,21.65c-4.71-3.75-10.21-9.49-15.83-18.53
	c-14.02-22.57-13.3-68.43,15.69-103.36c26.54-31.99,56.25-33.88,61.07-33.97c0.05,0.46,0.09,0.91,0.14,1.35
	C439.99,204.41,440.96,210.84,441.83,215.74z"/>
<path fill="#FFFFFF" stroke="#000000" stroke-miterlimit="10" d="M504.98,191.97c-1.93,2.87-6.55,7.36-10.5,9.87
	c-0.88,0.55-1.72,1.01-2.5,1.33c-0.26,0.11-0.53,0.2-0.84,0.27c0.5-4.41-0.64-11.31-1.4-15.19
	C493.91,190.18,499.02,192.12,504.98,191.97z"/>
<path fill="#FFFFFF" stroke="#000000" stroke-miterlimit="10" d="M522.76,184.53c-1.69,1.59-4.02,3.4-7,4.84
	c-2.31,1.11-5.01,2-8.1,2.4c-0.91,0.11-1.81,0.18-2.68,0.2c-5.96,0.15-11.07-1.79-15.24-3.72c-3.59-1.65-6.49-3.3-8.63-3.61
	c-4.99-0.72-8.2,4.45-8.2,4.99c0,0.11-0.21-0.01-0.54-0.26c-1.27-0.98-4.36-3.99-4.36-3.99s1.97-4.4,3.52-8.36
	c0.61,0.58,7.28,6.5,18.49-1.47C494.65,181.14,506.26,187.76,522.76,184.53z"/>
<path fill="#FFFFFF" stroke="#000000" stroke-miterlimit="10" d="M534.72,197.42c-7.29,4.21-34.78,21.06-48.62,43.36
	c0,0,0.68-4.64,3.08-12.02c1.68-5.15,4.2-11.64,7.92-18.82c0.02-0.03,0.03-0.06,0.05-0.09c4.92-9.44,12.54-14.11,18.47-16.42
	c5-1.94,8.79-2.2,8.79-2.2c0.03,0.01,0.06,0.01,0.09,0.02v0.01C528.67,192.25,532.05,194.64,534.72,197.42z"/>
<path fill="#FFFFFF" stroke="#000000" stroke-miterlimit="10" d="M542.77,210.84c0,0-6.06,6.59-19.43,16.04
	c-13.36,9.44-37.24,13.9-37.24,13.9c13.84-22.3,41.33-39.15,48.62-43.36C540.32,203.26,542.77,210.84,542.77,210.84z"/>
<path fill="#FFFFFF" stroke="#000000" stroke-miterlimit="10" d="M472.37,192.76v6.61c-3.69,3.55-17.82,18.2-22.45,38.73
	c0,0,1.42-25.48,8.73-35.11C463.43,196.7,469.05,193.92,472.37,192.76z"/>
<path fill="#FFFFFF" stroke="#000000" stroke-miterlimit="10" d="M477.54,202.59c-0.35,4.17-1.44,11.09-4.77,16.53
	c-0.13,0.21-0.26,0.42-0.4,0.63c-5.52,8.37-22.45,18.35-22.45,18.35c4.63-20.53,18.76-35.18,22.45-38.73v2.02
	C472.37,201.39,474.56,201.98,477.54,202.59z"/>
<path fill="#FFFFFF" stroke="#000000" stroke-miterlimit="10" d="M491.14,203.44h-0.01c-3.38,0.88-9.31,0.01-13.59-0.85
	c-2.98-0.61-5.17-1.2-5.17-1.2v-12.02c0.33,0.25,0.54,0.37,0.54,0.26c0-0.54,3.21-5.71,8.2-4.99c2.14,0.31,5.04,1.96,8.63,3.61
	C490.5,192.13,491.64,199.03,491.14,203.44z"/>
<path fill="#FFFFFF" stroke="#000000" stroke-miterlimit="10" d="M497.15,209.85c-0.02,0.03-0.03,0.06-0.05,0.09
	c-3.72,7.18-6.24,13.67-7.92,18.82c-9.31,4.49-14.28-4.14-16.41-9.64c3.33-5.44,4.42-12.36,4.77-16.53
	c4.28,0.86,10.21,1.73,13.59,0.85h0.01c0.31-0.07,0.58-0.16,0.84-0.27c0.78-0.32,1.62-0.78,2.5-1.33
	C495.22,203.48,496.51,206.63,497.15,209.85z"/>
<path fill="#FFFFFF" stroke="#000000" stroke-miterlimit="10" d="M515.76,189.37c-0.12,1.27-0.2,2.69-0.14,4.06
	c-5.93,2.31-13.55,6.98-18.47,16.42c-0.64-3.22-1.93-6.37-2.67-8.01c3.95-2.51,8.57-7,10.5-9.87c0.87-0.02,1.77-0.09,2.68-0.2
	C510.75,191.37,513.45,190.48,515.76,189.37z"/>
<path fill="#FFFFFF" stroke="#000000" stroke-miterlimit="10" d="M512.18,140.81c-6.57,3.72-22.45,14.8-22.16,34.74
	c4.63,5.59,16.24,12.21,32.74,8.98c4.24-0.83,8.81-2.32,13.67-4.64C528.85,162.98,520.45,150.31,512.18,140.81z M515.6,170.2
	c-2.95,0.71-14,1.5-14.71,0.26c0,0,15.15-6.67,17.82-6.85S518.54,169.49,515.6,170.2z"/>
<path fill="#FFFFFF" stroke="#000000" stroke-miterlimit="10" d="M512.18,140.81c-6.57,3.72-22.45,14.8-22.16,34.74
	c-11.21,7.97-17.88,2.05-18.49,1.47c-0.03-0.03-0.05-0.05-0.05-0.05s-3.3-13.04,0.91-25.3c0.16-0.48,0.33-0.96,0.52-1.43
	c4.05-10.27,22.9-16.9,29.85-19.04c0.01,0,0.01,0,0.01,0C505.85,133.99,509,137.16,512.18,140.81z"/>
<path fill="#FFFFFF" stroke="#000000" stroke-miterlimit="10" d="M515.6,170.2c-2.95,0.71-14,1.5-14.71,0.26
	c0,0,15.15-6.67,17.82-6.85S518.54,169.49,515.6,170.2z"/>
<path fill="#FFFFFF" stroke="#000000" stroke-miterlimit="10" d="M472.39,151.67c-4.78,1.56-11.78,5.29-13.38,13.9
	c-2.5,13.36,9,19.81,9,19.81s1.97-4.4,3.52-8.36c-0.03-0.03-0.05-0.05-0.05-0.05S468.18,163.93,472.39,151.67z M460.25,167.99
	c-0.17-0.26,0.36-4.56,1.34-4.39c0.98,0.18,4.72,7.85,4.72,7.85S460.43,168.24,460.25,167.99z"/>
<path fill="#FFFFFF" stroke="#000000" stroke-miterlimit="10" d="M466.31,171.45c0,0-5.88-3.21-6.06-3.46
	c-0.17-0.26,0.36-4.56,1.34-4.39C462.57,163.78,466.31,171.45,466.31,171.45z"/>
<path fill="#FFFFFF" stroke="#000000" stroke-miterlimit="10" d="M556.49,221.53c0,0-2.4-1.03-6.21-2.43
	c-21.3,21.95-70.04,35.8-92.7,37.54c-15.83-8.49-14.85-24.71-13.77-31.05c-0.21-0.89-1.03-4.42-1.98-9.85
	c-8.71,5.34-40.2,26.7-54.05,63.77c-0.25,6.52,3.56,15.74,9.87,24.8c0.59-1.04,1.68-1.69,2.84-1.78c0.94-0.07,1.91,0.23,2.69,0.99
	c3.13,3.04,6.69,8.12,8.6,14.07c0.35,1.08,0.54,2.11,0.59,3.06c0.56,0.49,1.13,0.97,1.7,1.44c10.03,8.18,21.78,13.67,33.12,12.55
	c11.28-1.12,26.77-5.67,42.73-12.24c0,0,9.45-27.23,45.14-23.95c7.42-5.1,13.83-10.39,18.58-15.61c-2.34-7.48-1.8-16.75,0.53-26.3
	c4.86-19.93,17.54-41.11,28.25-49.95L556.49,221.53z M463.27,311.44c-11.48,12.45-47.93,2.29-37.25-28.13
	c10.68-30.41,37.8-16.48,44.23-9.41C476.68,280.97,474.75,298.99,463.27,311.44z"/>
<path fill="#FFFFFF" stroke="#000000" stroke-miterlimit="10" d="M463.27,311.44c-11.48,12.45-47.93,2.29-37.25-28.13
	c10.68-30.41,37.8-16.48,44.23-9.41C476.68,280.97,474.75,298.99,463.27,311.44z"/>
</svg>
