<?xml version="1.0" encoding="utf-8"?>
<!-- Generator: Adobe Illustrator 25.2.0, SVG Export Plug-In . SVG Version: 6.00 Build 0)  -->
<svg version="1.1" baseProfile="tiny" id="Layer_1" xmlns="http://www.w3.org/2000/svg" xmlns:xlink="http://www.w3.org/1999/xlink"
	 x="0px" y="0px" viewBox="0 0 1000 1000" overflow="visible" xml:space="preserve">
<path fill="#FFFFFF" stroke="#000000" stroke-miterlimit="10" d="M486.6,405.4c-9.3-6.4-19.2-15.7-117.6,13.5
	c13.5-59.2,93.4-106.9,93.4-106.9C467.3,317.3,511.2,357.6,486.6,405.4z"/>
<path fill="#FFFFFF" stroke="#000000" stroke-miterlimit="10" d="M524.6,216.7c0,0-19.1,79.6-62.2,95.3c0,0-80.6-15-129-12.1
	c56.1-94.9,151.7-86.4,163.5-85c0.8,0.1,1.2,0.2,1.2,0.2s-0.1-0.1-0.4-0.2C501.3,214.7,517.7,214.2,524.6,216.7z"/>
<path fill="#FFFFFF" stroke="#000000" stroke-miterlimit="10" d="M641.6,250c-7.6-13.7-33.8-40.2-62.4-46.3
	c-24.4-5.2-50.2,2.8-59.8,6.3c2.5,3.2,4.5,5.8,5.2,6.8c0,0-19.1,79.6-62.2,95.3c5,5.3,48.8,45.6,24.2,93.4c2.4,1.7,8.4,5.8,16.6,11
	c22.8,14.4,62.3,36.3,87.5,33.2c3.2-0.4,6.2-0.9,9-1.5c0-0.1,0-0.2-0.1-0.3c-31.3,3.8-84.8-24.2-84.1-58.4
	c0.6-32.1,26.4-28.8,32.8-27.4c0.1-19.7,16.6-55.3,42.5-45.9c10.7,3.9,18.3,12.4,23.6,22c9.1,16.5,11.7,36.4,12.3,42.4
	c3.3-1,6.6-1.8,10.1-2.2C674.5,348,656.9,277.7,641.6,250z M532.2,267.8c-1.4,0,15-42.1,31-64.2c23.5,29.6,35.3,54.2,35.3,54.2
	L532.2,267.8z"/>
<path fill="#FFFFFF" stroke="#000000" stroke-miterlimit="10" d="M524.6,216.7c-6.9-2.5-23.3-2-27-1.9h0
	c-3.8-1.6-31.8-13.4-52.3-14.1c17.8-7.8,59.9-8.5,59.9-8.5s8.5,10.3,14.3,17.7C522,213.1,524,215.7,524.6,216.7z"/>
<path fill="#FFFFFF" stroke="#000000" stroke-miterlimit="10" d="M656.3,357.6C656.3,357.6,656.3,357.6,656.3,357.6
	c-9.5,13.8-18.9,20.7-18.9,20.7c-0.2,0-0.4,0-0.7,0.1c37.8-30.4,20.2-100.6,4.9-128.4c-7.6-13.7-33.8-40.2-62.4-46.3
	c-24.4-5.2-50.2,2.8-59.8,6.3c-5.8-7.3-14.3-17.7-14.3-17.7s-23.5-25-34.9-30.7c33.5-4.3,72,14.3,72,14.3s-3.6-15.7-10.7-26.4
	c27,6.4,95.8,32.6,127.4,82.5c6.8,10.8,11.9,22.7,14.5,35.8C681.5,309.5,668.8,339.4,656.3,357.6z"/>
<path fill="#FFFFFF" stroke="#000000" stroke-miterlimit="10" d="M614.4,338.1c-9.3,4.3-23.9,16-16.6,46.5c13.3,0.8,21.4-1.9,28.8-4
	C626,374.5,623.5,354.6,614.4,338.1z M604.2,356.2c0.9-4.9,7.6-15,8.3-8.8C613.2,353.6,603.3,361.1,604.2,356.2z"/>
<path fill="#FFFFFF" stroke="#000000" stroke-miterlimit="10" d="M597.8,384.5c-2.6-0.2-5.5-0.5-8.5-0.9
	c-26-3.9-39.6-21.4-39.6-21.4s-0.5-0.2-1.4-0.3c0.1-19.7,16.6-55.3,42.5-45.9c10.7,3.9,18.3,12.4,23.6,22
	C605,342.4,590.5,354.1,597.8,384.5z"/>
<path fill="#FFFFFF" stroke="#000000" stroke-miterlimit="10" d="M631,429c-0.3,0.2-0.4,0.2-0.4,0.2c-38,9.8-53.1-23.7-53.5-24.6
	C577.7,405.2,600.5,427,631,429z"/>
<path fill="#FFFFFF" stroke="#000000" stroke-miterlimit="10" d="M631.4,429c-0.2,0-0.3,0-0.4,0c-30.5-2-53.3-23.8-53.9-24.4
	c0.4,0.9,15.5,34.5,53.5,24.6c0,0-1,2.8-4.7,6.5c-3.6,3.5-9.7,7.7-19.9,10.7c0,0,0,0,0,0c-2,0.6-4.1,1-6.3,1.3
	c-31.3,3.8-84.8-24.2-84.1-58.4c0.6-32.1,26.4-28.8,32.8-27.4c0.9,0.2,1.4,0.3,1.4,0.3s13.5,17.5,39.6,21.4c3.1,0.5,5.9,0.8,8.5,0.9
	c13.3,0.8,21.4-1.9,28.8-4c3.3-1,6.6-1.8,10.1-2.2c0.2,0,0.4,0,0.7-0.1c6.8-0.5,14,1.6,19.5,5.4c-0.2,0.4-0.4,0.8-0.5,1.1
	c-3.6-0.8-7.7,0.2-11.5,1.8c-6.2,2.6-11.4,6.6-11.4,6.6s2.8,9.6,10,11.3c1.1,0.3,2.5,0.2,4,0c7.8-1.3,19.4-8.6,15-15.6
	c2,2.7,3.3,5.7,3.4,8.9C666.2,409.2,669,419.1,631.4,429z"/>
<path fill="#FFFFFF" stroke="#000000" stroke-miterlimit="10" d="M647.5,404.6c-1.5,0.3-2.9,0.3-4,0c-7.1-1.7-10-11.3-10-11.3
	s5.2-4.1,11.4-6.6c3.7-1.5,7.9-2.5,11.5-1.8c1.7,0.4,3.2,1.1,4.6,2.3c0,0,0.1,0,0.1,0.1c0.5,0.5,1,1.1,1.4,1.7c0,0,0,0,0,0.1
	C666.9,396,655.3,403.3,647.5,404.6z"/>
<path fill="#FFFFFF" stroke="#000000" stroke-miterlimit="10" d="M687.3,320.9c-2.9,7.7-10.8,17-17.9,24.3c0,0,0,0,0,0
	c-6.7,6.9-12.8,12-13.1,12.4c12.5-18.1,25.2-48.1,17.1-89.8c-2.5-13.1-7.6-25-14.5-35.8c4.6,2.1,8.5,4.8,11.9,8l0,0
	c14.7,13.8,19.3,36.3,19.6,54.6C690.6,306.2,689.1,316.1,687.3,320.9z"/>
<path fill="#FFFFFF" stroke="#000000" stroke-miterlimit="10" d="M734.3,235.7c-1.6,16.4-29.1,44.7-43.9,58.9
	c-0.3-18.3-4.9-40.8-19.6-54.6C681.5,241.3,708.7,243.5,734.3,235.7z"/>
<path fill="#FFFFFF" stroke="#000000" stroke-miterlimit="10" d="M669.4,345.2c-3.1,11.4-8.5,30-12.5,38.5c-5.5-3.8-12.7-6-19.5-5.4
	c0,0,9.4-6.9,18.9-20.7c0,0,0,0,0,0C656.7,357.2,662.7,352.1,669.4,345.2z"/>
<path fill="#FFFFFF" stroke="#000000" stroke-miterlimit="10" d="M604.2,356.2c0.9-4.9,7.6-15,8.3-8.8
	C613.2,353.6,603.3,361.1,604.2,356.2z"/>
<path fill="#FFFFFF" stroke="#000000" stroke-miterlimit="10" d="M598.5,257.8l-66.3,10c-1.4,0,15-42.1,31-64.2
	C586.8,233.2,598.5,257.8,598.5,257.8z"/>
<path fill="#FFFFFF" stroke="#000000" stroke-miterlimit="10" d="M601.8,466.1c-4.9-0.6-13-1.4-26.5-2.6
	c-48.5-4.3-66.7,27.8-74.8,64.9c-7.4,33.3,19.2,36.1,32.8,31.7c-24.2,21.7-91.6,11.8-91.6,11.8c-1.1-7.5,4.3-79.5,16-103
	c0,0,38.8-21.3,41.5-47.2c1.9-1.8,3.1-3.6,4-5.3c22.8,14.4,62.3,36.3,87.5,33.2c3.2-0.4,6.2-0.9,9-1.5
	C600.4,451.9,601.5,458.4,601.8,466.1z"/>
<path fill="#FFFFFF" stroke="#000000" stroke-miterlimit="10" d="M499.2,421.6c-2.7,25.9-41.5,47.2-41.5,47.2
	c-29.4,2-62.9,22.9-80.2,35.3c-1.9-7.4-5.9-14.9-13.1-20.1c-5.2-3.8-10.5-8-16.6-10.6c44.1-21.1,89.7-37.4,121.6-41
	C485.7,430.6,494.5,426.1,499.2,421.6z"/>
<path fill="#FFFFFF" stroke="#000000" stroke-miterlimit="10" d="M638.4,520.5c-4.3,1.1-92.3,32.1-101,37.8
	c-0.5,0.3-1.1,0.6-1.7,0.9h0c-0.7,0.3-1.5,0.6-2.4,0.9c-24.2,21.7-91.6,11.8-91.6,11.8c-4.3,2.1-51.3,20-59.9,48.1
	c-1.6,5.3-3.3,10.7-5,15.8c-0.8,2.5-1.6,4.9-2.3,7.3c-4.2,12.9-8,24-10,29.9c10,13.2,42,18.4,53.8-5.2l0-0.2l1.8-15
	c1.5-9.6,3.9-18.7,7.4-21.9c8.2-7.5,33.1-20.7,55.2-20.3c22.1,0.4,56.7-6.1,84.1-20.7c27.5-14.6,53.1-13.5,53.1-13.5
	s11.5,43.8,27.2,66.1c7.8-2.2,31.3-13.9,40.3-25.8c2.7-3.6,5.1-6.3,7.2-8.3C682.2,587,642,519.6,638.4,520.5z"/>
<path fill="#FFFFFF" stroke="#000000" stroke-miterlimit="10" d="M429.3,670.8c-1,7.7-4.9,18.3-13,26.5
	c-6.2,6.3-14.8,11.2-26.5,12.5c-25.4,2.7-47.5-14.5-52.5-36.3c-0.3-1.3-0.5-2.6-0.7-3.9c-2.8-21,19.4-33.2,40.2-33.8
	c-0.8,2.5-1.6,4.9-2.3,7.3c-4.3,1.9-13.9,7.8-13.1,22c0.2,2.8,1.2,5.5,3.1,7.8c10,13.2,42,18.4,53.8-5.2l0-0.2l1.8-15
	C423.9,655.2,430.5,661.1,429.3,670.8z"/>
<path fill="#FFFFFF" stroke="#000000" stroke-miterlimit="10" d="M374.5,643.1c-4.2,12.9-8,24-10,29.9c-1.8-2.4-2.9-5-3.1-7.8
	C360.6,650.9,370.2,645,374.5,643.1z"/>
<path fill="#FFFFFF" stroke="#000000" stroke-miterlimit="10" d="M601.9,472.1c-0.2,12.2-2.8,26.1-11.1,36.8
	c-16.6,21.3-38.7,22.1-55.1,50.2h0c-0.7,0.3-1.5,0.6-2.4,0.9c-13.6,4.4-40.1,1.6-32.8-31.7c8.2-37.1,26.4-69.1,74.8-64.9
	c13.4,1.2,21.6,2,26.5,2.6C601.9,468,602,470,601.9,472.1z"/>
<path fill="#FFFFFF" stroke="#000000" stroke-miterlimit="10" d="M729.9,489c-33.3,1-66.5-10.9-87.9-15.9c-16.4-3.8-32.2-2.2-40.1-1
	c0-2.1,0-4.1-0.1-6c-0.3-7.7-1.4-14.1-2.2-18c2.2-0.5,4.3-1,6.3-1.6c0,0,0,0,0,0c10.2-3,16.3-7.2,19.9-10.7
	c10.5,0.7,29,2.8,44.3,8.5c14.5,5.4,40.1,5.5,56.9,4.9C728.9,453.9,736.4,474.9,729.9,489z"/>
<path fill="#FFFFFF" stroke="#000000" stroke-miterlimit="10" d="M418.2,758.2c0,0-14.3,0.3-23.9-0.7c-9.6-1.1-14.3,4.3-14.3,4.3
	s0.4-3.9-0.3-9.9c-1-8-4.1-19.6-13.3-30c-16-18.2-29.9-15.1-53.2-7.2c-1.1-10.2,19.1-23.9,18.8-24.4c-0.4-0.5,0.6-2.5-1.7-4.5
	c-1.4-1.2,3.2-7.5,7-12.3c5,21.7,27.2,39,52.5,36.3c11.6-1.2,20.3-6.2,26.5-12.5c-1.5,3.6-3.2,7.6-4.9,11.7v0
	c-6.4,3.6-16.3,8.6-21.7,8.6c6.3,3.9,9.8,26.7,9.8,26.7s8.8-11.1,22-7.4C422.1,748.9,418.2,758.2,418.2,758.2z"/>
<path fill="#FFFFFF" stroke="#000000" stroke-miterlimit="10" d="M379.8,751.9c-5.3,3.1-13.9,9.5-21.8,12
	c-11,3.6-39.9-23.9-50.3-24.2c-7.2-0.2-23.4,5.9-32.7,9.6c2.9-7.4,7.1-13.3,11.7-18c12-12.4,26.7-16.6,26.7-16.6
	c23.3-7.8,37.2-10.9,53.2,7.2C375.7,732.3,378.8,743.9,379.8,751.9z"/>
<path fill="#FFFFFF" stroke="#000000" stroke-miterlimit="10" d="M741.3,649.5c-0.1-0.1-0.2-0.2-0.3-0.3c-9.7-9.8-29.5,15-46.9,24.6
	c-15.8,8.6-25.3,6.1-27.4,4.8h0c-0.2-0.1-0.4-0.3-0.4-0.4c-0.4-0.9-11.8-11.6-21.2-14.6c-9.5-3-3.9-21.4,0-21c0.4,0,1.1-0.1,2.1-0.3
	c7.8-2.2,31.3-13.9,40.3-25.8c2.7-3.6,5.1-6.3,7.2-8.3c1.6-1.6,3.1-2.8,4.3-3.7c2.8-2.1,6.7-1.8,9.2,0.6c4.6,4.3,9.9,12.2,12.1,16.2
	C723.3,626.7,739.5,634.4,741.3,649.5z"/>
<path fill="#FFFFFF" stroke="#000000" stroke-miterlimit="10" d="M752.4,665.3c-21.6,10.1-41.8,41.6-45,55
	c-3.4,13.9-8.7,2.3-19.4-2.5s-20.3,1.6-20.3,1.6s0-0.1,0-0.2c0-0.9-0.1-4-0.2-8.4l-0.2,0c-0.2-10.7-0.4-24.9-0.6-32.2h0
	c2.1,1.3,11.6,3.8,27.4-4.8c17.5-9.5,37.2-34.4,46.9-24.6c1.3,2.6,5.1,9.6,11.3,15.9l0,0C752.3,665.2,752.4,665.2,752.4,665.3z"/>
<path fill="#FFFFFF" stroke="#000000" stroke-miterlimit="10" d="M858.7,723.3c-7.8,0-27.4,20.3-42.1,23.2
	c-14.6,2.8-40.6,10.7-61.5,2.1c-20.8-8.5-33-10.3-38.3-9.3c-5.3,1.1-45.4,11-50.4-3.2c-1.9-5.5-0.9-11.4,1-16.4
	c0.1-0.2,0.1-0.4,0.2-0.6c0,0.2,0,0.2,0,0.2s9.6-6.4,20.3-1.6s16,16.4,19.4,2.5c3.2-13.3,23.4-44.9,45-55c0,0,0,0,0.1,0l0.5,0.3
	l34.7,20.5c-3.4,1.8-8.2,4.6-13.3,8.3h0c-12.1,8.8-25.7,22.6-25.1,40c12.5-0.7,25.3,0.3,38.1,4.6c12.8,4.3,47.4-11.4,55.6-21.7
	c2.2-2.7,5.3-4.4,8.8-5.4C854.7,715.2,857.1,719,858.7,723.3z"/>
<path fill="#FFFFFF" stroke="#000000" stroke-miterlimit="10" d="M421.6,737c-13.2-3.7-22,7.4-22,7.4s-3.6-22.8-9.8-26.7
	c5.4,0,15.3-5,21.7-8.6c-0.1,0.3-0.3,0.7-0.4,1c4.2,4.7,6.9,9.8,8.5,14.8C420.9,729,421.5,733.1,421.6,737z"/>
<path fill="#FFFFFF" stroke="#000000" stroke-miterlimit="10" d="M380,761.8c0,0-5,10.4-20.2,17.9h0c-5.4,0.2-12.2-0.8-19-5.4
	c-14.6-10-29.2-21.4-38.8-22.1c-6-0.4-17.5,7.3-25.4,13.3c-3.1-4.4-4.1-9.5-2-15c0.1-0.4,0.3-0.7,0.4-1.1c9.3-3.8,25.6-9.9,32.7-9.6
	c10.3,0.4,39.2,27.8,50.3,24.2c8-2.6,16.5-9,21.8-12C380.5,757.9,380,761.8,380,761.8z"/>
<path fill="#FFFFFF" stroke="#000000" stroke-miterlimit="10" d="M359.8,779.7c-3.5,1.7-7.6,3.3-12.2,4.6
	c-19.7,5.3-59.7-2.4-71-18.8c7.9-6,19.5-13.7,25.4-13.3c9.6,0.7,24.2,12.1,38.8,22.1C347.6,778.9,354.4,779.9,359.8,779.7z"/>
<path fill="#FFFFFF" stroke="#000000" stroke-miterlimit="10" d="M979.8,683.8C979.8,683.8,979.8,683.8,979.8,683.8
	c0,0.1,0,0.1-0.1,0.2c-0.1,0.4-0.5,1.4-1.2,3c0,0,0,0.1,0,0.1c-0.1,0.3-0.3,0.5-0.5,0.8c-12.9,20.3-91.5,71.8-228.7,86.1
	S207.2,811,148.7,813.8c3.2-2.5,6.1-5,8.7-7.5c3.7,0.2,6.1,0.4,6.1,0.4l31.2-13.2c0,0-8.9-4-20.5-8.2c1.8-3.3,3.1-6.5,4.1-9.5h0
	c0,0,0,0,0,0c0.2-0.7,0.5-1.4,0.6-2.1c4.5-9.7,26.3,0.2,24.7-23.4c0,0-9.4-3.6-21.6-6.7l104.6-12.3c-4.6,4.7-8.8,10.7-11.7,18
	c-0.1,0.4-0.3,0.7-0.4,1.1c-2,5.6-1,10.6,2,15c11.4,16.4,51.4,24.1,71,18.8c4.6-1.3,8.7-2.8,12.2-4.6h0
	c15.3-7.5,20.2-17.9,20.2-17.9s4.6-5.3,14.3-4.3c9.6,1.1,23.9,0.7,23.9,0.7s3.9-9.4,3.4-21.3c-0.2-3.8-0.8-8-2.1-12.1l247.7-14.1
	l0.2,0c0.1,4.3,0.2,7.5,0.2,8.4c-0.1,0.2-0.2,0.4-0.2,0.6c-2,5-3,10.9-1,16.4c5,14.3,45.1,4.3,50.4,3.2c5.4-1.1,17.5,0.7,38.3,9.3
	c20.9,8.6,46.9,0.7,61.5-2.1c14.6-2.9,34.2-23.2,42.1-23.2c-1.6-4.3-4-8.1-6.9-11.5c-10.3-11.7-27.4-17.7-40.9-20.9
	c17.8-2.2,39-5.7,62.5-11.1C936.9,665.4,983.8,667.1,979.8,683.8z"/>
<path fill="#FFFFFF" stroke="#000000" stroke-miterlimit="10" d="M851.8,711.9c-3.4,1-6.6,2.6-8.8,5.4c-8.2,10.3-42.8,26-55.6,21.7
	c-12.8-4.3-25.7-5.4-38.1-4.6c-0.6-17.4,13-31.2,25.1-40h0c5.1-3.7,9.9-6.5,13.3-8.3l2.9,1.7c0,0,8.8,0.5,20.2,3.2
	C824.4,694.1,841.5,700.2,851.8,711.9z"/>
<path fill="#FFFFFF" stroke="#000000" stroke-miterlimit="10" d="M375.4,528c-5.2,5.2-20,5.5-20,5.5s-5.9-18.1-26.6-27.5
	c-20.7-9.4-43.7,0-43.7,0s0.5-0.5,1.4-1.5c0,0,0,0,0,0c5.7-6,27.6-28,41.4-32.1c7.8-2.3,14.2-1.4,20,1.1c6.1,2.6,11.4,6.8,16.6,10.6
	c7.2,5.2,11.2,12.7,13.1,20.1C380.2,514.6,378.5,524.9,375.4,528z"/>
<path fill="#FFFFFF" stroke="#000000" stroke-miterlimit="10" d="M380.1,599.3c-2.6,2.4-21.9,0-29.9-3.6c-8.1-3.6-10-26.4-11.9-26.6
	c-1.9-0.2-21.4-17.3-34.9-17.8c-12.8-0.5-30.7,16.3-46.1,27.8c-7.1-0.4-12.8-7.4-12.8-10.7c0-3.2,5.4-25.6,8.5-38.2
	c0.1-0.1,0.2-0.2,0.3-0.3c8.1-10.3,25.4-20.9,33.2-25.4c-0.9,0.9-1.4,1.5-1.4,1.5s23-9.4,43.7,0c20.7,9.4,26.6,27.5,26.6,27.5
	s13.8,29.2,14.7,35.9C371.1,576,382.8,596.9,380.1,599.3z"/>
<path fill="#FFFFFF" stroke="#000000" stroke-miterlimit="10" d="M257.3,579c-0.9,0.7-1.8,1.3-2.6,1.9c-1.7,17.1-20.2,20-20.2,20
	s-10.9,4.3-16.9,5.2s-6.4-10.9-6.4-10.9s-7.6-5.7-4-10c3.5-4.2,34.9-41.2,45.8-55.1c-3.1,12.6-8.5,35-8.5,38.2
	C244.5,571.7,250.2,578.7,257.3,579z"/>
<path fill="#FFFFFF" stroke="#000000" stroke-miterlimit="10" d="M774.8,483.8c-0.1,2.1-0.6,3.7-1.5,5c-5.3,8-23,3.2-23,3.2
	s-16.6,5.3-20.5-3c0,0,0,0,0-0.1c6.5-14.1-1-35-2.8-39.8c-0.3-0.7-0.4-1-0.4-1s-4.6-5.1,1.1-8.3c5.7-3.2,25.1,3.7,25.1,3.7
	s8.4-10,16.2-2.3c0,0,0.1,0.1,0.1,0.1c3.9,3.7,5.5,10.6,6,18.4C775.7,467.6,775.1,476.4,774.8,483.8z"/>
<path fill="#FFFFFF" stroke="#000000" stroke-miterlimit="10" d="M849.5,490.9c-3.8,10.7-4.8,17.1-10,10.2
	c-5.2-6.9-13.3-26.9-24.7-27.6h-0.1c2.2-9.8,21.2-8.5,23.6-7.6c0,0,0,0,0,0c0,0,0.1,0.1,0.1,0.1C840.1,467.8,853,480.8,849.5,490.9z
	"/>
<path fill="#FFFFFF" stroke="#000000" stroke-miterlimit="10" d="M838.3,466c-2.4-0.9-21.4-2.2-23.6,7.6
	c-6.7-0.4-15.6,6.8-25.2,11.5c3-6.6,7.3-14.2,14.8-19c15.2-9.7,25.4-5.2,29.9-7.2c4.5-1.9,6.9-12.3,1.4-14.3
	c-5.5-1.9-32.1,1.9-42.1,7.9c-6.1,3.6-13.5,6-18.4,7.3c-0.5-7.8-2-14.7-6-18.4c6.9-2.9,26.6-10.8,38.6-11.7c5-0.4,11.6-2.1,18.7-4
	c3.4,5.8,11.7,17.9,23,20.4C846.6,449.3,836.6,459.6,838.3,466z"/>
<path fill="#FFFFFF" stroke="#000000" stroke-miterlimit="10" d="M834.2,458.8c-4.5,1.9-14.7-2.6-29.9,7.2
	c-7.5,4.8-11.7,12.4-14.8,19h0c-5.3,2.6-10.8,4.5-16.2,3.8c0.9-1.3,1.4-3,1.5-5c0.3-7.4,0.8-16.2,0.3-24.1
	c4.9-1.3,12.4-3.7,18.4-7.3c10-5.9,36.6-9.8,42.1-7.9C841.1,446.5,838.8,456.9,834.2,458.8z"/>
<path fill="#FFFFFF" stroke="#000000" stroke-miterlimit="10" d="M870.1,489c-9.9-3.8-29.6-21.1-31.7-22.9c-0.1-0.1-0.1-0.1-0.1-0.1
	c0,0,0,0,0,0c-1.7-6.4,8.3-16.7,11.2-20c0,0,27.3,16.4,29,28.8C880.1,487.1,880.6,493,870.1,489z"/>
<path fill="#FFFFFF" stroke="#000000" stroke-miterlimit="10" d="M896.3,449.4c-3.3,5.4-14,6-22.1,0c-8.1-6-24.7-3.4-24.7-3.4
	c-11.3-2.5-19.6-14.6-23-20.4c13.9-3.7,29.8-7.7,39.4-2.8C880.5,430.3,899.6,444,896.3,449.4z"/>
<path fill="#FFFFFF" stroke="#000000" stroke-miterlimit="10" d="M178.9,773.7c-0.3,0.6-0.5,1.3-0.6,2.1c0,0,0,0,0,0h0
	c-18.2,1.9-34.9-4.1-34.9-4.1s0-0.5,0-1.4c-0.1-5.4-0.3-25.2,0-30.7v0c11-2,26.2,0.7,38.6,3.9c12.2,3.1,21.6,6.7,21.6,6.7
	C205.3,773.9,183.5,764,178.9,773.7z"/>
<path fill="#FFFFFF" stroke="#000000" stroke-miterlimit="10" d="M194.7,793.5l-31.2,13.2c0,0-2.4-0.1-6.1-0.4
	c-6.1-0.4-15.9-0.9-24.4-1.4h0c-0.2,0-0.4,0-0.6,0c10.1-3.8,2.9-20.5,0.2-28.1c-0.1-0.2-0.1-0.4-0.2-0.5c11.4-0.7,28.5,4.3,41.9,9.1
	C185.8,789.5,194.7,793.5,194.7,793.5z"/>
<path fill="#FFFFFF" stroke="#000000" stroke-miterlimit="10" d="M132.3,804.9c0.2,0,0.4,0,0.6,0c-29,3-103.3-17.7-103.3-17.7
	s42.5-6.7,64.4-11c16.2-3.2,31.5-0.9,38.5,0.6C135.2,784.4,142.4,801.1,132.3,804.9z"/>
<path fill="#FFFFFF" stroke="#000000" stroke-miterlimit="10" d="M143.3,770.4c-17,6.4-37.2-6.5-93.5-18.3
	c66.4-16.1,87.3-14.3,93.5-12.5C143,745.3,143.3,765,143.3,770.4z"/>
<path fill="#FFFFFF" stroke="#000000" stroke-miterlimit="10" d="M978.5,687c-3.2,6.8-13.5,23.2-41.8,39.9
	C899.6,748.8,824,773.5,749.3,783c-74.8,9.5-590.1,39.5-590.1,39.5l-10.5-8.6c58.5-2.8,463.4-25.7,600.6-39.9s215.8-65.8,228.7-86.1
	C978.2,687.5,978.3,687.3,978.5,687z"/>
<path fill="#FFFFFF" stroke="#000000" stroke-miterlimit="10" d="M660.8,359.6c0-2.5-5,9.2-3.5,9.3
	C658.8,369,660.8,361.1,660.8,359.6z"/>
</svg>
