<?xml version="1.0" encoding="utf-8"?>
<!-- Generator: Adobe Illustrator 25.2.0, SVG Export Plug-In . SVG Version: 6.00 Build 0)  -->
<svg version="1.1" baseProfile="tiny" id="Layer_1" xmlns="http://www.w3.org/2000/svg" xmlns:xlink="http://www.w3.org/1999/xlink"
	 x="0px" y="0px" viewBox="0 0 1000 1000" overflow="visible" xml:space="preserve">
<path fill="#FFFFFF" stroke="#000000" stroke-miterlimit="10" d="M547.15,234.26c-1.55,1.8-3.06,3.9-3.83,5.94
	c-7.42-0.5-15.12,1.22-20.8,3.59c-2.17,0.91-4.1,2.59-5.78,4.65c-9.65,1.88-28.27,5.64-34.67,7.89c-7.5,2.64-28.72,7.18-34.8,8.45
	c-0.33-0.06-0.67-0.11-1.03-0.16c5.37-4.73,28-31.64,35.25-40.3c5.63,3.66,14.18,7.61,20.63,5.04c7.84-3.12,6.77-15.06,6.77-15.06
	l1.01-2.83c2.67,1.25,13.38,6.46,20.41,12.66C537.87,230.8,540.43,232.68,547.15,234.26z"/>
<path fill="#FFFFFF" stroke="#000000" stroke-miterlimit="10" d="M587.1,297.67c-3.13,5.56-8.74,11.17-15.69,16.46
	c-14.44,10.98-34.65,20.56-50.37,25.37c-15.35,4.69-51.36,8.26-74.12,10.14c-8.72,0.72-15.49,1.2-18.41,1.39
	c10.41-6.9,5.15-36.51,4.98-37.46c13.01,5.41,33.43,6.93,48.22,2.04c19.43-6.41,64.52-26.91,71.82-35.46
	c7.31-8.56,14.62-26.91,4.64-34.75c-4.2-3.31-9.46-4.84-14.85-5.2c0.77-2.04,2.28-4.14,3.83-5.94c0.46,0.11,0.95,0.21,1.45,0.32
	c7.85,1.67,19.13-1.9,31.13,12.36S596.72,280.56,587.1,297.67z"/>
<path fill="#FFFFFF" stroke="#000000" stroke-miterlimit="10" d="M553.53,280.15c-7.3,8.55-52.39,29.05-71.82,35.46
	c-14.79,4.89-35.21,3.37-48.22-2.04c-4.07-1.7-7.42-3.77-9.64-6.15c0,0,3.46-10.49,10.8-18.61c2.24-2.48,4.85-4.74,7.83-6.4
	c0.3-0.18,0.61-0.34,0.92-0.5c13.36-6.75,24.95-16.02,37.42-16.2c6.38-0.09,18.1-0.74,28.04-1.35c1.3-4.07,3.91-11.06,7.88-15.92
	c1.68-2.06,3.61-3.74,5.78-4.65c5.68-2.37,13.38-4.09,20.8-3.59c5.39,0.36,10.65,1.89,14.85,5.2
	C568.15,253.24,560.84,271.59,553.53,280.15z"/>
<path fill="#FFFFFF" stroke="#000000" stroke-miterlimit="10" d="M446.54,456.52l-1.22,1.17l-7.81,7.51c0,0-9.64-2.13-17.18-6.75
	c-3.43-2.09-6.43-4.71-7.88-7.87c-4.64-10.09,1.06-16.27-10.58-20.91c-11.64-4.63-25.07-3.32-31.01,3.45
	c-5.54,6.31-6.95,13.55,5.2,21.62c0,0,0.12,0.07,0.34,0.21c0.79,0.53,1.63,1.05,2.54,1.57c0,0-15.8-0.83-22.57-13.78
	c-1.64-3.13-2.22-6.69-2.09-10.39c0-0.01,0-0.01,0-0.01c0.16-4.45,1.35-9.09,2.97-13.4c0.07-0.21,0.15-0.42,0.23-0.63
	c1.3-3.35,2.84-6.48,4.34-9.15c4.97,3.65,15.69,11.13,15.69,11.13s10.97-3.09,22.89,3.56c11.93,6.65,13.71,10.81,15.25,15.8
	c1.55,4.99,2.14,11.41,3.21,12.12c1.07,0.72,17.11,8.68,17.11,8.68s5.58-5.8,9.28-8.44C446.61,454.87,446.54,456.52,446.54,456.52z"
	/>
<path fill="#FFFFFF" stroke="#000000" stroke-miterlimit="10" d="M412.95,478.86c-1.83-1.58-3.16-2.81-3.8-3.42
	c-0.05-0.05-0.1-0.1-0.15-0.14c-0.83-0.79-5.06-3.51-10.23-6.73c-0.09-0.18-0.17-0.34-0.26-0.5c-0.03,0.08-0.07,0.17-0.12,0.26
	c-8.73-5.42-19.9-12.13-21.99-13.38c-0.22-0.14-0.34-0.21-0.34-0.21c-12.15-8.07-10.74-15.31-5.2-21.62
	c5.94-6.77,19.37-8.08,31.01-3.45c11.64,4.64,5.94,10.82,10.58,20.91c1.45,3.16,4.45,5.78,7.88,7.87
	C416.71,461.38,410.16,468.34,412.95,478.86z"/>
<path fill="#FFFFFF" stroke="#000000" stroke-miterlimit="10" d="M510.58,498.88c-0.23,0.42-16.81,5.17-17.88,4.22
	c-0.29-0.26-0.89-1.22-1.61-2.54c-1.91-3.53-4.61-9.62-4.09-11.48c0.71-2.56,4.99-1.49,5.7-0.42c0.15,0.23,0.34,0.65,0.55,1.17
	c0.77,1.93,1.77,5.25,1.77,5.25s0.38-0.2,0.93-0.44c1.13-0.5,2.96-1.21,3.64-0.81c-1.27-1.23-3.11-4.04-3.9-5.29
	c4.12-1.98,12.04-4.93,14.89,0.12C510.58,488.66,510.82,498.47,510.58,498.88z"/>
<path fill="#FFFFFF" stroke="#000000" stroke-miterlimit="10" d="M548.49,382.98c-0.47,3.94-1.91,14.49-2.24,25.78
	c-2.5,3.7-4.62,6.91-6.44,10.56c-1.39,2.78-4.07,7.31-6.46,11.24c-8.77-0.15-19.53-0.46-28.35-1.06
	c-7.02-0.48-19.58-0.41-32.38-0.14v-8.24l-1.64-3.55c0.01,0,0.01,0,0.01,0s13.31,0.02,23.24,0c9.94-0.02,11.72,3.95,17.96,0.01
	c6.24-3.95,5.53-20.7,5.53-20.7s20-8.21,28.31-18.07C546.83,380.15,547.65,381.54,548.49,382.98z"/>
<path fill="#FFFFFF" stroke="#000000" stroke-miterlimit="10" d="M547.72,430.73c-2.76-0.01-8.05-0.05-14.37-0.17
	c2.39-3.93,5.07-8.46,6.46-11.24c1.82-3.65,3.94-6.86,6.44-10.56C546.02,416.34,546.3,424.26,547.72,430.73z"/>
<path fill="#FFFFFF" stroke="#000000" stroke-miterlimit="10" d="M571.41,314.13c-1.01,5.03-3.53,16.86-6.53,25.96
	c0,7.48,0,12.55,0,12.55s-14.14,25.83-16.39,30.34c-0.84-1.44-1.66-2.83-2.46-4.17c-8.87-14.97-14.77-23.87-14.77-23.87
	s-9.98,12.71-31.35,15.56c-21.37,2.86-41.01-7.84-52.06-12.45c-0.43-3.1-0.73-6.03-0.93-8.41c22.76-1.88,58.77-5.45,74.12-10.14
	C536.76,334.69,556.97,325.11,571.41,314.13z"/>
<path fill="#FFFFFF" stroke="#000000" stroke-miterlimit="10" d="M445.25,452.01c-3.7,2.64-9.28,8.44-9.28,8.44
	s-16.04-7.96-17.11-8.68c-1.07-0.71-1.66-7.13-3.21-12.12c-1.54-4.99-3.32-9.15-15.25-15.8c-11.92-6.65-22.89-3.56-22.89-3.56
	s-10.72-7.48-15.69-11.13c1.48-2.65,2.93-4.84,4.05-6.34c4.83-6.44,9.46-14.24,9.75-14.72c0.01-0.01,0.01-0.02,0.01-0.02
	s14,4.52,25.05,2.39c7.22-1.4,10.43-2.74,11.79-3.51c0.73-0.4,0.93-0.65,0.93-0.65l2.38,1.12l5.93,2.8c0,0,1.72,2.19,3.82,5.7
	c2.84,4.75,6.4,11.92,7.35,19.37c0.01,0.08,0.02,0.17,0.04,0.25c0.62,4.79,1.86,10.04,3.32,14.98c1.52,5.16,3.28,9.99,4.85,13.6
	c0.98,2.27,1.88,4.06,2.6,5.15C444.35,450.28,444.86,451.2,445.25,452.01z"/>
<path fill="#FFFFFF" stroke="#000000" stroke-miterlimit="10" d="M561.91,475.3c-2.26,0.21-7.88,0.17-12,0.1
	c-1.65-1.13-3.32-2.31-5-3.53l-0.29-4.06l-7.48-6.24c0,0-2.44-0.05-5.97-0.16c-0.01,0-0.01,0-0.01,0c-0.01-0.01-0.02-0.02-0.02-0.02
	c11.4,0.03,19.05-3.1,22.99-5.08C555.98,463.61,558.52,470.79,561.91,475.3z"/>
<path fill="#FFFFFF" stroke="#000000" stroke-miterlimit="10" d="M551.01,440.52c-7.96,0.26-24.78,0.79-43.09,1.38
	c-1.86-1.64-2.92-2.6-2.92-2.6s-10.63-7.67-12.95-7.67s-19.43,5.35-19.43,5.35l8.11,5.81c-17.45,0.57-32.9,1.09-39.64,1.34
	c-1.57-3.61-3.33-8.44-4.85-13.6c7.49-0.31,22.08-0.86,36.38-1.17c12.8-0.27,25.36-0.34,32.38,0.14c8.82,0.6,19.58,0.91,28.35,1.06
	c6.32,0.12,11.61,0.16,14.37,0.17c1.32,0.01,2.07,0.01,2.07,0.01S550.14,434.77,551.01,440.52z"/>
<path fill="#FFFFFF" stroke="#000000" stroke-miterlimit="10" d="M551.87,445.72c-7.73,1.08-22.56,2.12-36.18,2.92
	c-3.23-2.76-5.91-5.09-7.77-6.74c18.31-0.59,35.13-1.12,43.09-1.38C551.26,442.14,551.54,443.89,551.87,445.72z"/>
<path fill="#FFFFFF" stroke="#000000" stroke-miterlimit="10" d="M552.85,450.78c-10.79,2.78-21.16,3.8-29.87,3.99
	c-2.63-2.18-5.09-4.25-7.29-6.13c13.62-0.8,28.45-1.84,36.18-2.92C552.16,447.35,552.49,449.05,552.85,450.78z"/>
<path fill="#FFFFFF" stroke="#000000" stroke-miterlimit="10" d="M554.13,456.31c-3.94,1.98-11.59,5.11-22.99,5.08
	c-2.84-2.26-5.59-4.49-8.16-6.62c8.71-0.19,19.08-1.21,29.87-3.99C553.23,452.6,553.66,454.46,554.13,456.31z"/>
<path fill="#FFFFFF" stroke="#000000" stroke-miterlimit="10" d="M693.97,512.54l-8.91,10.99c0,0-31.9-10.93-53.64-13.99
	c-10.88-1.52-20.81-1.13-30.5-1.49h-0.01c-9.7-0.36-19.13-1.47-29.02-6.02c-0.7-0.32-1.42-0.67-2.15-1.03
	c-1.19-0.58-2.41-1.22-3.66-1.89c-16.08-8.66-36.41-23.86-43.14-28.99v-4.92c-1.56-1.55-3.28-2.96-5.11-4.27h-0.01
	c-3.96-2.82-8.44-5.09-13.13-6.91c-0.01,0-0.01-0.01-0.01-0.01c-4.4-1.72-8.94-3.05-13.38-4.08c-0.01,0-0.01,0-0.02,0
	c-0.29-0.07-0.57-0.13-0.86-0.2h-0.01l-9.68-6.94l-8.11-5.81c0,0,17.11-5.35,19.43-5.35S505,439.3,505,439.3s1.06,0.96,2.92,2.6
	c1.86,1.65,4.54,3.98,7.77,6.74c2.2,1.88,4.66,3.95,7.29,6.13c2.57,2.13,5.32,4.36,8.16,6.62c-0.33,0-0.66-0.01-0.99-0.01
	c0.35,0.01,0.69,0.02,1.01,0.03c0,0,0,0,0.01,0c4.44,3.53,9.12,7.12,13.74,10.46c1.68,1.22,3.35,2.4,5,3.53
	c5.46,3.75,10.69,6.98,15.21,9.16c3.8,1.84,8.21,3.21,13.04,4.26c22.77,4.95,54.66,2.73,73.93,8.75
	C675.44,504.88,693.97,512.54,693.97,512.54z"/>
<path fill="#FFFFFF" stroke="#000000" stroke-miterlimit="10" d="M544.91,471.87c-4.62-3.34-9.3-6.93-13.74-10.46
	c3.53,0.11,5.97,0.16,5.97,0.16l7.48,6.24L544.91,471.87z"/>
<path fill="#FFFFFF" stroke="#000000" stroke-miterlimit="10" d="M440.95,496.19c0.08,0.17,0.13,0.26,0.13,0.26
	s-24.36-3.33-28.13-17.59c-2.79-10.52,3.76-17.48,7.38-20.41c7.54,4.62,17.18,6.75,17.18,6.75c1.47,0.48,2.89,0.83,4.25,1.08
	c-7.85,11.13-2.94,24.95-1.21,29c-0.54-0.13-1.09-0.27-1.63-0.43C438.92,494.85,439.72,495.38,440.95,496.19z"/>
<path fill="#FFFFFF" stroke="#000000" stroke-miterlimit="10" d="M501.79,521.87c0.1,0.26,1.04,0.42,2.47,0.51
	c-1.14,4.49-1.07,9.17-0.84,12.2c-0.24-0.08-0.46-0.16-0.68-0.23c-5.34-1.79-46.57-28.64-49.3-30.18c-2.03-1.15-9-5.69-12.49-7.98
	c-0.09-0.2-0.23-0.51-0.4-0.91c0.54,0.13,1.07,0.24,1.6,0.33c12.51,2.12,41.28,4.86,47.34,5.42c0,0,6.3,7.42,8.98,8.37
	c0.44,0.16,1.27,0.18,2.35,0.1c1.74,1.44,4.23,3.27,6.8,5.08C503.42,516.86,501.53,521.15,501.79,521.87z"/>
<path fill="#FFFFFF" stroke="#000000" stroke-miterlimit="10" d="M523.53,537.2c-3.19,4.11-14.48-0.65-20.11-2.62
	c-0.23-3.03-0.3-7.71,0.84-12.2c3.58,0.23,10.21-0.02,14.22-0.48C518.83,522.37,526.79,533.01,523.53,537.2z"/>
<path fill="#FFFFFF" stroke="#000000" stroke-miterlimit="10" d="M520.36,498.02c-0.16,2.16-0.45,4.17-0.98,5.26
	c-1.3,2.68-13.12,5.81-18.56,6.22c-1.08,0.08-1.91,0.06-2.35-0.1c-2.68-0.95-8.98-8.37-8.98-8.37c0.73,0.07,1.13,0.11,1.13,0.11
	l0.47-0.58c0.72,1.32,1.32,2.28,1.61,2.54c1.07,0.95,17.65-3.8,17.88-4.22c0.24-0.41,0-10.22,0-10.22c4.14,0.7,9.28,0.72,9.93,2.81
	v0.01C520.53,493.24,520.52,495.72,520.36,498.02z"/>
<path fill="#FFFFFF" stroke="#000000" stroke-miterlimit="10" d="M531.26,491.69c0,0-0.73-0.03-1.83-0.07
	c-1.44-0.05-3.52-0.1-5.41-0.08c-1.34,0-2.59,0.05-3.46,0.15c-0.01-0.07-0.03-0.14-0.05-0.21v-0.01c-0.65-2.09-5.79-2.11-9.93-2.81
	c-2.85-5.05-10.77-2.1-14.89-0.12c-0.13-0.21-0.23-0.37-0.3-0.47c-0.02-0.04-0.04-0.07-0.05-0.09c-0.02-0.03-0.03-0.05-0.03-0.05
	c-1.88-3.38-4.18-8.14-4.69-12.1c-0.67-5.2,2.61-8.4,5.16-10.36h0.01c20.78,4.4,27.15,13.39,27.15,13.39
	c2.59,3.65,5.52,8.29,7.11,10.87C530.8,490.93,531.26,491.69,531.26,491.69z"/>
<path fill="#FFFFFF" stroke="#000000" stroke-miterlimit="10" d="M499.59,493.83c-0.68-0.4-2.51,0.31-3.64,0.81
	c-0.55,0.24-0.93,0.44-0.93,0.44s-1-3.32-1.77-5.25c-0.21-0.52-0.4-0.94-0.55-1.17c-0.71-1.07-4.99-2.14-5.7,0.42
	c-0.52,1.86,2.18,7.95,4.09,11.48l-0.47,0.58c0,0-12.12-12.48-14.79-20.14c-2.06-5.9,1.66-14.13,3.49-17.6
	c4.55,0.19,9.63,0.73,15.11,1.8c0.46,0.09,0.91,0.18,1.35,0.27c-2.55,1.96-5.83,5.16-5.16,10.36c0.51,3.96,2.81,8.72,4.69,12.1
	c0,0,0.01,0.02,0.03,0.05c0.01,0.02,0.03,0.05,0.05,0.09c0.09,0.17,0.19,0.33,0.27,0.49c0.01-0.01,0.02-0.01,0.03-0.02
	C496.48,489.79,498.32,492.6,499.59,493.83z"/>
<path fill="#FFFFFF" stroke="#000000" stroke-miterlimit="10" d="M522.82,501.14c-1.25,1.48-4.51,6.89-5.82,12.47
	c-3.88-0.99-7-0.33-9.38,0.97c-2.57-1.81-5.06-3.64-6.8-5.08c5.44-0.41,17.26-3.54,18.56-6.22c0.53-1.09,0.82-3.1,0.98-5.26
	C521.04,499.03,521.87,500.11,522.82,501.14z"/>
<path fill="#FFFFFF" stroke="#000000" stroke-miterlimit="10" d="M490.62,501.14c0,0-0.4-0.04-1.13-0.11
	c-6.06-0.56-34.83-3.3-47.34-5.42c-0.53-0.09-1.06-0.2-1.6-0.33c-1.73-4.05-6.64-17.87,1.21-29c8.79,1.6,15.12-1.08,15.12-1.08
	s8.81-2.41,22.44-1.8c-1.83,3.47-5.55,11.7-3.49,17.6C478.5,488.66,490.62,501.14,490.62,501.14z"/>
<path fill="#FFFFFF" stroke="#000000" stroke-miterlimit="10" d="M533.13,503.97v0.01c-2.09,6.48-9.51,16.53-11.62,17.36
	c-0.51,0.2-1.61,0.39-3.03,0.56c-4.01,0.46-10.64,0.71-14.22,0.48c-1.43-0.09-2.37-0.25-2.47-0.51c-0.26-0.72,1.63-5.01,5.83-7.29
	c2.38-1.3,5.5-1.96,9.38-0.97c1.31-5.58,4.57-10.99,5.82-12.47c-0.95-1.03-1.78-2.11-2.46-3.12c0.16-2.3,0.17-4.78,0.15-6.54
	c0.02,0.07,0.04,0.14,0.05,0.21c0.87-0.1,2.12-0.15,3.46-0.15c1.89-0.02,3.97,0.03,5.41,0.08c1.33,1.71,3.62,5.12,4.2,8.81
	C533.78,501.36,533.58,502.58,533.13,503.97z"/>
<path fill="#FFFFFF" stroke="#000000" stroke-miterlimit="10" d="M546.41,506.66c0,1.79-2.32,15.69-2.5,16.58
	c-0.18,0.89-7.48,0-7.48-6.42c0-6.41,0-7.13,0-7.13s-2.47-2.42-3.3-5.71v-0.01c0.45-1.39,0.65-2.61,0.5-3.54
	c-0.58-3.69-2.87-7.1-4.2-8.81c1.1,0.04,1.83,0.07,1.83,0.07s-0.46-0.76-1.21-1.96c3.66,1.43,8.03,3.29,9.76,4.64
	C543.02,496.86,546.41,504.88,546.41,506.66z"/>
<path fill="#FFFFFF" stroke="#000000" stroke-miterlimit="10" d="M490.41,449.73c-13.22-2.97-25.15-3.3-28.06-3.3
	c-1.87,0-3.61,1.23-5.08,2.85h-13.58c-0.72-1.09-1.62-2.88-2.6-5.15c6.74-0.25,22.19-0.77,39.64-1.34L490.41,449.73z"/>
<path fill="#FFFFFF" stroke="#000000" stroke-miterlimit="10" d="M457.27,449.28c-2.82,3.09-4.67,7.6-4.67,7.6l-7.28,0.81l1.22-1.17
	c0,0,0.07-1.65-1.29-4.51c-0.39-0.81-0.9-1.73-1.56-2.73H457.27z"/>
<path fill="#FFFFFF" stroke="#000000" stroke-miterlimit="10" d="M522.94,465.2v4.92c0,5.55,0,8.74,0,8.74s-6.37-8.99-27.15-13.39
	h-0.01c-0.44-0.09-0.89-0.18-1.35-0.27c-5.48-1.07-10.56-1.61-15.11-1.8c-13.63-0.61-22.44,1.8-22.44,1.8s-6.33,2.68-15.12,1.08
	c-1.36-0.25-2.78-0.6-4.25-1.08l7.81-7.51l7.28-0.81c0,0,1.85-4.51,4.67-7.6c1.47-1.62,3.21-2.85,5.08-2.85
	c2.91,0,14.84,0.33,28.06,3.3h0.01l0.3,0.23h0.01c0.18-0.01,0.36-0.02,0.55-0.03c0.01,0,0.01,0,0.02,0
	c4.44,1.03,8.98,2.36,13.38,4.08c0,0,0,0.01,0.01,0.01c4.69,1.82,9.17,4.09,13.13,6.91h0.01
	C519.66,462.24,521.38,463.65,522.94,465.2z"/>
<path fill="#FFFFFF" stroke="#000000" stroke-miterlimit="10" d="M715.72,619.77c-3.38,5.91-7.88,12.57-13.37,18.06
	c-13.19,13.19-18.89,4.64-33.86,12.83c-14.98,8.2-27.93,31.25-27.93,31.25s-82.21-55.13-87.92-62.73
	c-5.7-7.61-65.94-44.68-72.41-46.1c-6.48-1.43-55.9,39.44-62.08,43.25c-6.18,3.8-41.35,28.99-48.95,35.17
	c-3.37,2.73-10.46,8.07-17.82,13.07c-0.24-0.23-0.33-0.47-0.39-0.64c-0.97-2.76,1.93-10.33,9.67-16.78
	c4.89-4.08,13.1-7.54,21.04-10.88c10.26-4.32,19.96-8.41,24.56-14.3l1.49-1.92c7.07-9.13,16.75-21.62,27.92-22.72l3.21-0.31
	l-0.55-3.18c-0.88-5.18-3.77-9.3-8.14-11.6c-5.24-2.75-12.12-2.54-18.89,0.59c-5,2.32-7.98,7.58-11.14,13.15
	c-5.01,8.84-10.21,18-23.98,17.59c-8.72-0.26-15.23-4.23-18.34-11.19c-4.01-8.97-1.53-21.11,6.16-30.22
	c8.37-9.9,19.92-8.04,32.15-6.07c8.45,1.36,16.42,2.64,23.34-0.08c12.01-4.73,10.22-20.76,8.91-32.46
	c-0.5-4.43-1.25-11.12-0.23-12.36c2.3-2.75,12.22-0.45,18.49,2.27l7.59,3.3l-3.72-7.4c-0.38-0.75-9.48-18.37-31.09-19.13
	c-10.68-0.4-16.75,7.57-22.13,14.59c-6.68,8.72-10.55,13.04-18.95,7.93c-2.98-1.81-6.45-4.56-6.02-7.37
	c0.79-5.25,12.9-10.82,19.45-12.47c0.2-0.05,20.32-5.18,23.32-12.21c0.66-1.55,0.58-3.18-0.23-4.6c-1.07-1.89-3.42-6.27-5.73-10.66
	c0.64,0.61,1.97,1.84,3.8,3.42c3.77,14.26,28.13,17.59,28.13,17.59s-0.05-0.09-0.13-0.26c3.49,2.29,10.46,6.83,12.49,7.98
	c2.73,1.54,43.96,28.39,49.3,30.18c0.22,0.07,0.44,0.15,0.68,0.23c5.63,1.97,16.92,6.73,20.11,2.62c3.26-4.19-4.7-14.83-5.05-15.3
	c1.42-0.17,2.52-0.36,3.03-0.56c2.11-0.83,9.53-10.88,11.62-17.36c0.83,3.29,3.3,5.71,3.3,5.71s0,0.72,0,7.13
	c0,6.42,7.3,7.31,7.48,6.42c0.18-0.89,2.5-14.79,2.5-16.58c0-1.78-3.39-9.8-6.6-12.29c-1.73-1.35-6.1-3.21-9.76-4.64
	c-1.59-2.58-4.52-7.22-7.11-10.87c0,0,0-3.19,0-8.74c6.73,5.13,27.06,20.33,43.14,28.99l-19.29,21.85l9.38-4.79
	c0.17-0.09,17.76-8.93,29.96-2.17c5.45,3.02,11.22,7.75,16.79,12.33c7.89,6.48,16.05,13.18,23.98,15.63
	c3.81,1.18,6.86,1.62,9.29,1.62c2.77,0,4.75-0.58,6.13-1.28c0.79,0.77,1.56,1.52,2.28,2.26c4.89,4.96,10.52,11,15.96,16.98
	c-4.42-1.69-9.27-2.64-13.72-1.5c-5.09,1.3-8.87,5.04-11.23,11.13l-1.69,4.36l4.32-1.79c9.47-3.93,14.01-1.06,17.51,2.62
	c0.61,0.64,1.76,2.11,3.09,3.81c6.39,8.15,18.01,22.97,27.43,22.97c0.48,0,0.94-0.04,1.4-0.11c2.71-0.46,4.91-2.15,6.59-5.06
	c4.51,4.43,10,9.89,15.28,15.33c0,0,0.03,0.03,0.09,0.08C711.71,615.54,713.77,617.69,715.72,619.77z"/>
<path fill="#FFFFFF" stroke="#000000" stroke-miterlimit="10" d="M691.28,595.06c-1.14,2.39-2.58,3.74-4.27,4.02
	c-7.29,1.25-19.72-14.61-25.02-21.38c-1.51-1.93-2.6-3.32-3.34-4.1c-4.88-5.14-10.3-6.81-17.15-5.15c1.67-2.38,3.76-3.88,6.32-4.53
	c6.85-1.75,15.46,2.89,20.57,6.29l0.01,0.01c8.92,9.99,15.89,18.07,15.89,18.07S687.08,590.96,691.28,595.06z"/>
<path fill="#FFFFFF" stroke="#000000" stroke-miterlimit="10" d="M639.06,539.23c-2.02,0.53-5.43,0.63-10.97-1.09
	c-7.19-2.22-15.04-8.67-22.63-14.9c-5.71-4.7-11.62-9.55-17.39-12.74c-8.57-4.75-18.9-3.09-25.86-0.97l7.53-8.53
	c0.73,0.36,1.45,0.71,2.15,1.03c9.89,4.55,19.32,5.66,29.02,6.02h0.01C610.08,515,627.07,528.19,639.06,539.23z"/>
<path fill="#FFFFFF" stroke="#000000" stroke-miterlimit="10" d="M423.57,517.33c-2.67,3.18-1.99,9.23-1.14,16.89
	c1.16,10.32,2.6,23.16-5.14,26.21c-5.39,2.12-12.58,0.96-20.19-0.26c-12.71-2.05-27.12-4.37-37.68,8.12
	c-9.29,10.99-12.06,25.33-7.06,36.53c4.04,9.05,12.66,14.43,23.64,14.74c17.39,0.51,24.04-11.21,29.38-20.62
	c2.78-4.91,5.19-9.15,8.45-10.66c5.05-2.34,9.99-2.61,13.57-0.73c1.87,0.99,3.28,2.49,4.16,4.43
	c-12.05,3.09-21.49,15.28-28.55,24.39l-1.48,1.91c-3.64,4.66-13.05,8.63-22.16,12.46c-8.34,3.52-16.97,7.15-22.55,11.8
	c-8.82,7.35-13.65,17.17-11.5,23.36c0.25,0.74,0.6,1.4,1.03,1.99c-7.52,4.83-14.47,8.59-17.07,8.06c-3.8,2.63-2.85,7.86-2.85,7.86
	s5.94,21.39-1.91,40.28c-7.84,18.89-13.54,25.31-16.03,33.15c-2.5,7.84-6.96,27.09-13.37,32.43c1.25,6.6,4.99,13.01,0,22.99
	c1.96,13.01-2.85,42.6-2.85,42.6s-15.51,12.83-27.27,11.4c-7.55-0.91-10.25-3.15-18.21-6.33c-4.43-1.78-10.49-3.84-19.93-6.14
	c-17.83-4.34-38.76-14.06-50.44-19.89c-5.6-2.8-9.08-4.71-9.08-4.71s24.59-29.58,44.19-92.31c19.61-62.74,16.04-61.31,40.28-111.57
	c0,0,65.23-75.92,86.97-96.77c21.74-20.85,36-33.68,43.84-38.49c5.52-3.39,12.41-14.99,15.77-22.12c0.12,0.08,0.25,0.16,0.38,0.24
	c2.42,4.63,8.36,16,10.65,20.07c-1.5,2.08-10.14,6.2-19.09,8.45c-0.22,0.06-22.18,5.88-23.93,17.4c-0.73,4.87,2.24,9.37,8.84,13.39
	c13.39,8.14,20.85-1.59,26.84-9.41c4.92-6.44,9.57-12.53,17.15-12.25c9.52,0.34,16.14,4.59,20.32,8.6
	C433.8,513.51,427.06,513.18,423.57,517.33z"/>
<path fill="#FFFFFF" stroke="#000000" stroke-miterlimit="10" d="M246.79,860.33c-8.43,12.19-30.59,43.1-42.74,48.99
	c-0.27-0.67-0.56-1.32-0.89-1.94c-3.92-7.9-11.25-12.29-19.44-14.6c-3.94-1.12-8.08-1.75-12.13-2.05h-0.01
	c-2.44-0.19-4.84-0.26-7.15-0.24c-2.78,0.01-5.42,0.14-7.81,0.33c-2.93,0.24-5.5,0.56-7.49,0.85c-2.81,0.42-4.49,0.78-4.49,0.78
	l31.78-58.15c11.68,5.83,32.61,15.55,50.44,19.89C236.3,856.49,242.36,858.55,246.79,860.33z"/>
<path fill="#FFFFFF" stroke="#000000" stroke-miterlimit="10" d="M867.5,866.77c-0.07,0.6-0.98-0.38-3.02-1.85
	c-1.96-1.42-4.97-3.3-9.28-4.65v-0.01c-3.1-0.98-6.88-1.68-11.43-1.76c-2.82-0.05-5.93,0.14-9.36,0.66c-0.91,0.14-1.84,0.3-2.8,0.49
	c-3.38,0.66-6.41,1.44-9.11,2.3c-15.91,5.08-20.39,13.17-17.7,18.17c0.03,0.06,0.07,0.13,0.11,0.19c0.47,0.81,1.15,1.55,1.99,2.16
	c-5.7-1.67-10.22-7.15-10.22-15.7c-3.8-6.57-7.61-18.06-9.39-24.09c0.45-0.38,0.77-0.65,0.92-0.78c0.03-0.03,0.06-0.06,0.1-0.09
	c7.04-5.94,17.19-13.57,23.11-14.75c7.77-1.55,20.62-5.02,34.93-7.53h0.03c0.69-0.12,1.38-0.24,2.08-0.36
	c0.14-0.02,0.27-0.04,0.41-0.06c0.03,0.08,0.06,0.16,0.09,0.24c4.24,11.3,12.27,32.5,13.31,33.89
	C863.69,855.14,867.73,864.86,867.5,866.77z"/>
<path fill="#FFFFFF" stroke="#000000" stroke-miterlimit="10" d="M833.4,886.42c-0.22-0.91-0.62-1.81-1.19-2.65
	c-2.97-4.39-5.71-6.41-5.82-9.03c-0.11-2.32-2.38-9.07-3.89-12.79c-15.91,5.08-20.39,13.17-17.7,18.17
	c0.03,0.06,0.07,0.13,0.11,0.19c1.89,0.99,4.81,2.53,5.67,4.18c1.31,2.49,8.44,11.76,15.69,10.69
	C832.13,894.31,834.34,890.26,833.4,886.42z M828.35,888.52c-4.99,0.9-10.87-4.63-10.87-4.63s0.17-2.49,3.38-3.68
	c4.41-1.64,7.49,0,7.49,0S833.34,887.63,828.35,888.52z"/>
<path fill="#FFFFFF" stroke="#000000" stroke-miterlimit="10" d="M845.51,885.08c-0.35-2.73-8.07-14.02-7.96-14.73
	c0.09-0.51-1.97-7.34-3.14-11.19c-0.91,0.14-1.84,0.3-2.8,0.49c-3.38,0.66-6.41,1.44-9.11,2.3c1.51,3.72,3.78,10.47,3.89,12.79
	c0.11,2.62,2.85,4.64,5.82,9.03c0.57,0.84,0.97,1.74,1.19,2.65c8.02,10.83,11.97,2.57,12.12-0.75v-0.01
	C845.54,885.44,845.53,885.25,845.51,885.08z M842.78,886.15c-3.74,0.47-7.36-3.68-7.36-3.68c0.41-0.2,6.65-1.19,6.65-1.19
	s2.11,2.08,2.2,3.53C844.32,885.47,843.95,886,842.78,886.15z"/>
<path fill="#FFFFFF" stroke="#000000" stroke-miterlimit="10" d="M854.49,881.11c-0.96-4.54-6.51-12.17-7.67-13.14
	c-0.41-2.3-2.07-6.87-3.05-9.47c-2.82-0.05-5.93,0.14-9.36,0.66c1.17,3.85,3.23,10.68,3.14,11.19c-0.11,0.71,7.61,12,7.96,14.73
	c0.02,0.17,0.03,0.36,0.01,0.58v0.01c3.67,2.11,7.14,0.6,8.79-2.02C854.69,883.05,854.71,882.16,854.49,881.11z M850.8,882.88
	c-1.96,0.48-5.26-3.4-5.26-3.4l1.99-0.58c0.42,0,2.97-0.47,3.63-1.37c0.51,0.84,0.86,1.74,1,2.55
	C852.39,881.45,852.03,882.59,850.8,882.88z"/>
<path fill="#FFFFFF" stroke="#000000" stroke-miterlimit="10" d="M861.61,876.16c-1.08-4.41-5.52-10.09-5.52-10.09
	s-0.46-3.38-0.89-5.8v-0.01c-3.1-0.98-6.88-1.68-11.43-1.76c0.98,2.6,2.64,7.17,3.05,9.47c1.16,0.97,6.71,8.6,7.67,13.14
	c1.75,0.56,3.83,0.69,5.88-0.43C861.91,879.84,862.09,878.13,861.61,876.16z M856.62,878.96c-1.42-1.48-1.99-3.68-1.99-3.68
	s3.3,0.44,4.67-0.66c0.31,0.47,0.47,0.95,0.52,1.41C860.08,878.25,857.8,880.19,856.62,878.96z"/>
<path fill="#FFFFFF" stroke="#000000" stroke-miterlimit="10" d="M864.48,864.92c-1.96-1.42-4.97-3.3-9.28-4.65
	c0.43,2.42,0.89,5.8,0.89,5.8s4.44,5.68,5.52,10.09c1.51,0.02,3.09-0.19,3.98-0.82C867,874.34,865.51,868.4,864.48,864.92z
	 M863.99,873.26c-0.89,0.06-1.49-1.37-1.49-1.37l2.14-0.89C864.64,871,864.88,873.2,863.99,873.26z"/>
<path fill="#FFFFFF" stroke="#000000" stroke-miterlimit="10" d="M203.16,907.38c-1.23,1.39-3.79,4.03-6.36,5.14
	c-3.56,1.55-3.32,0.72-6.06,2.98c-2.73,2.25-13.19,12.83-20.08,12c-5.23-0.64-9.23-2.5-10.38-4.61c-0.37-0.67-0.45-1.36-0.19-2.05
	c0.08-0.21,0.18-0.42,0.3-0.63c7.73,1.92,13.3-2.4,15.26-6.08c-2.43-1.25-8.55-1.54-8.55-1.54c0.1-0.18,0.18-0.36,0.24-0.54
	c0.95-2.73,4.04-7.6,7.36-9.74c2.29-1.47,6.51-6.51,9.02-9.53C191.91,895.09,199.24,899.48,203.16,907.38z"/>
<path fill="#FFFFFF" stroke="#000000" stroke-miterlimit="10" d="M156.62,890.82c-1.59,3-3.93,6.29-6.27,7.92
	c-1.7,1.18-4.65,2.6-6.74,4.67c-0.24-0.65-0.45-1.36-0.59-2.11c0.73-0.35,2.3-1.18,2.93-2.08c0.71-1.01-1.1-1.68-1.66-1.86
	c1.37-2.12,3.5-4.35,4.84-5.69C151.12,891.38,153.69,891.06,156.62,890.82z"/>
<path fill="#FFFFFF" stroke="#000000" stroke-miterlimit="10" d="M164.43,890.49c-0.89,3.33-5.69,7.77-10.99,10.27
	c-3.52,1.66-6.23,5.48-7.88,8.89c-0.67,1.38-1.17,2.69-1.48,3.76c-0.85-0.31-2.38-1.11-2.8-3.31c0.5,0.04,2.46,0.02,2.78-2.15
	c0.36-2.49-0.8-4.17-0.8-4.17c0.11-0.13,0.23-0.25,0.35-0.37c2.09-2.07,5.04-3.49,6.74-4.67c2.34-1.63,4.68-4.92,6.27-7.92
	C159.01,890.63,161.65,890.5,164.43,890.49z"/>
<path fill="#FFFFFF" stroke="#000000" stroke-miterlimit="10" d="M145.95,899.22c-0.63,0.9-2.2,1.73-2.93,2.08
	c-0.02-0.06-0.03-0.12-0.04-0.18c-0.18-1.02,0.4-2.37,1.31-3.76C144.85,897.54,146.66,898.21,145.95,899.22z"/>
<path fill="#FFFFFF" stroke="#000000" stroke-miterlimit="10" d="M144.06,907.95c-0.32,2.17-2.28,2.19-2.78,2.15
	c-0.12-0.59-0.16-1.28-0.08-2.09c0.16-1.66,0.96-3.05,2.06-4.23C143.26,903.78,144.42,905.46,144.06,907.95z"/>
<path fill="#FFFFFF" stroke="#000000" stroke-miterlimit="10" d="M171.58,890.73c-1.44,2.36-3.2,5.44-7.01,9.08
	c-4.6,4.4-8.64,7.37-11.37,10.93c-0.21,0.27-0.42,0.55-0.63,0.83c-1.72,2.3-3.48,4.78-4.29,6.42c-1.34,0.51-3.4-0.17-4.22-1.36
	c7.34-4.08,1.82-6.82,1.5-6.98c1.65-3.41,4.36-7.23,7.88-8.89c5.3-2.5,10.1-6.94,10.99-10.27
	C166.74,890.47,169.14,890.54,171.58,890.73z"/>
<path fill="#FFFFFF" stroke="#000000" stroke-miterlimit="10" d="M144.06,916.63c-0.21-0.28-0.33-0.58-0.37-0.9
	c-0.05-0.46,0.08-1.28,0.39-2.32c0.31-1.07,0.81-2.38,1.48-3.76C145.88,909.81,151.4,912.55,144.06,916.63z"/>
<path fill="#FFFFFF" stroke="#000000" stroke-miterlimit="10" d="M175.65,914.13c-1.96,3.68-7.53,8-15.26,6.08
	c1.4-2.5,5.45-5.22,6.71-7.62C167.1,912.59,173.22,912.88,175.65,914.13z"/>
<path fill="#FFFFFF" stroke="#000000" stroke-miterlimit="10" d="M183.72,892.78c-2.51,3.02-6.73,8.06-9.02,9.53
	c-3.32,2.14-6.41,7.01-7.36,9.74c-0.06,0.18-0.14,0.36-0.24,0.54c-1.26,2.4-5.31,5.12-6.71,7.62c-0.12,0.21-0.22,0.42-0.3,0.63
	c-0.26,0.69-0.18,1.38,0.19,2.05c-1.43,0.69-3.85,1.75-5.66,1.99c-2.73,0.36-6.29-4.28-6.77-5.23c3.39,1.9,10.22-3.32,9.51-5.52
	c-0.72-2.2-4.79-2.56-4.79-2.56c0.21-0.28,0.42-0.56,0.63-0.83c2.73-3.56,6.77-6.53,11.37-10.93c3.81-3.64,5.57-6.72,7.01-9.08h0.01
	C175.64,891.03,179.78,891.66,183.72,892.78z"/>
<path fill="#FFFFFF" stroke="#000000" stroke-miterlimit="10" d="M147.85,919.65c-0.14-0.28,0.04-0.87,0.43-1.66
	c0.81-1.64,2.57-4.12,4.29-6.42c0,0,4.07,0.36,4.79,2.56C158.07,916.33,151.24,921.55,147.85,919.65z"/>
<path fill="#FFFFFF" stroke="#000000" stroke-miterlimit="10" d="M828.35,888.52c-4.99,0.9-10.87-4.63-10.87-4.63
	s0.17-2.49,3.38-3.68c4.41-1.64,7.49,0,7.49,0S833.34,887.63,828.35,888.52z"/>
<path fill="#FFFFFF" stroke="#000000" stroke-miterlimit="10" d="M844.27,884.81c0.05,0.66-0.32,1.19-1.49,1.34
	c-3.74,0.47-7.36-3.68-7.36-3.68c0.41-0.2,6.65-1.19,6.65-1.19S844.18,883.36,844.27,884.81z"/>
<path fill="#FFFFFF" stroke="#000000" stroke-miterlimit="10" d="M850.8,882.88c-1.96,0.48-5.26-3.4-5.26-3.4l1.99-0.58
	c0.42,0,2.97-0.47,3.63-1.37c0.51,0.84,0.86,1.74,1,2.55C852.39,881.45,852.03,882.59,850.8,882.88z"/>
<path fill="#FFFFFF" stroke="#000000" stroke-miterlimit="10" d="M856.62,878.96c-1.42-1.48-1.99-3.68-1.99-3.68s3.3,0.44,4.67-0.66
	c0.31,0.47,0.47,0.95,0.52,1.41C860.08,878.25,857.8,880.19,856.62,878.96z"/>
<path fill="#FFFFFF" stroke="#000000" stroke-miterlimit="10" d="M863.99,873.26c-0.89,0.06-1.49-1.37-1.49-1.37l2.14-0.89
	C864.64,871,864.88,873.2,863.99,873.26z"/>
<path fill="#FFFFFF" stroke="#000000" stroke-miterlimit="10" d="M357.66,136.89c-3.79,2.06-9.6,6.29-13.34,9.12
	c-2.01-5.37-4.55-10.3-7.73-13.52c0,0,10.15-6.13,15.92-5.84h0.01c0.05,0,0.1,0,0.14,0.01c0.02,0.03,0.03,0.06,0.04,0.09
	C354.39,130.92,356.2,134.89,357.66,136.89z"/>
<path fill="#FFFFFF" stroke="#000000" stroke-miterlimit="10" d="M376.39,159.14c-5.89,17.29-16.22,31.01-16.22,31.01l-9.89-5.7
	c0,0,1.69-2.41,0.44-11.41c-0.64-4.65-2.53-16.67-6.4-27.03c3.74-2.83,9.55-7.06,13.34-9.12c0.36,0.5,0.71,0.87,1.02,1.1
	c3.69,2.67,3.63-2.38,5.77-6.83c0.48-0.34,1.06-0.59,1.71-0.78c4.5-1.32,12.27,0.63,14.97,1.39c0.61,0.17,0.96,0.28,0.96,0.28
	S382.27,141.85,376.39,159.14z"/>
<path fill="#FFFFFF" stroke="#000000" stroke-miterlimit="10" d="M422.5,268.68c0,0-0.84-0.39-2.29-0.9l-0.01-0.01
	c-5.65-4.69-13.88-11.64-21.63-18.71c1.61,0,2.9,0.04,3.66,0.14c1.66,0.23,4.54,1.61,7.55,3.33c3.49,1.99,7.14,4.42,9.3,6.01
	c0.9,0.67,1.54,1.19,1.8,1.47c0.51,0.54,0.86,1.91,1.11,3.45C422.29,265.33,422.43,267.46,422.5,268.68z"/>
<path fill="#FFFFFF" stroke="#000000" stroke-miterlimit="10" d="M350.96,99.44c-2.34,5.54-3.51,10-3.9,12.94l-10.31-0.36h-0.01
	l-0.69-0.02c0.95-3.22,3.45-10.91,7.07-16.37C347.81,88.56,354.17,91.83,350.96,99.44z"/>
<path fill="#FFFFFF" stroke="#000000" stroke-miterlimit="10" d="M359.75,132.29c-0.61,1.26-3.63-3.61-7.05-5.54
	c-0.01-0.03-0.02-0.06-0.04-0.09c-2.1-5.23-4.01-10.75-4.81-13.1c2.65,0.51,6.23,1.75,7.98,4.83
	C358.8,123.61,360.47,130.8,359.75,132.29z"/>
<path fill="#FFFFFF" stroke="#000000" stroke-miterlimit="10" d="M381.13,131.77c-2.7-0.76-10.47-2.71-14.97-1.39
	c0.89-4.03,4.42-18.02,10.17-18.17C382.22,112.05,382.25,125.11,381.13,131.77z"/>
<path fill="#FFFFFF" stroke="#000000" stroke-miterlimit="10" d="M335.12,112.41c-0.48,2.2-2.68,12.11-3.83,16.67
	c-1.15-0.36-2.37-0.51-3.65-0.42c-1.08,0.08-2.12,0.22-3.11,0.42C324.66,125.68,325.81,115.19,335.12,112.41z"/>
<path fill="#FFFFFF" stroke="#000000" stroke-miterlimit="10" d="M335.37,178.87c-4.6,2.17-15.11,7.2-16.9,8.52
	c-1.8,1.31-5.57,10.95-7.39,15.65l-0.1-0.06c0,0-9.53-8.82-9.45-29.94c0.09-21.12,4.37-28.52,4.37-28.52s5.03-12.77,18.63-15.44
	c0.99-0.2,2.03-0.34,3.11-0.42c1.28-0.09,2.5,0.06,3.65,0.42c0.64,0.19,1.25,0.45,1.85,0.77
	C332.63,138.59,335.07,173.26,335.37,178.87z"/>
<path fill="#FFFFFF" stroke="#000000" stroke-miterlimit="10" d="M350.28,184.45c0,0-1.45,0.2-3.57,0.58
	c-4.52,0.82-12.07,2.49-15.11,4.93c-0.23,0.17-0.43,0.35-0.6,0.54c-2.76,3.02-10.08,11.74-13.37,15.84
	c-0.1,0.11-0.19,0.23-0.27,0.33l-6.28-3.63c1.82-4.7,5.59-14.34,7.39-15.65c1.79-1.32,12.3-6.35,16.9-8.52
	c0.03,0.45,0.04,0.72,0.03,0.76C335.31,180.26,350.28,184.45,350.28,184.45z"/>
<path fill="#FFFFFF" stroke="#000000" stroke-miterlimit="10" d="M350.28,184.45c0,0-14.97-4.19-14.88-4.82
	c0.01-0.04,0-0.31-0.03-0.76c-0.3-5.61-2.74-40.28-2.23-49.02c1.22,0.65,2.37,1.55,3.45,2.64c3.18,3.22,5.72,8.15,7.73,13.52
	c3.87,10.36,5.76,22.38,6.4,27.03C351.97,182.04,350.28,184.45,350.28,184.45z"/>
<path fill="#FFFFFF" stroke="#000000" stroke-miterlimit="10" d="M384.32,262.42l-13.9,21.47l-13.37,1.34l-7.13,11.4l7.13,19.25
	c0,0-5.79-4.48-10.69-21.71c-4.23-14.86-7.86-28.24-11.46-36.95c-0.58-1.39-1.16-2.66-1.73-3.8c-4.19-8.29-11.23-14.26-11.67-23.97
	c-0.04-0.96-0.13-2-0.24-3.09l7.66,3.12l8.61-8.2l4.1-12.78l-10.03-18.54c3.04-2.44,10.59-4.11,15.11-4.93l12.92,20.98
	c0,0-8.46,22.72-1.42,30.03c3.38,3.51,8.23,6.6,12.37,8.88c4.48,2.46,8.12,3.95,8.12,3.95l0.44,1.05L384.32,262.42z"/>
<path fill="#FFFFFF" stroke="#000000" stroke-miterlimit="10" d="M341.63,208.5l-4.1,12.78l-8.61,8.2l-7.66-3.12
	c-0.67-6.38-2.38-14.5-3.51-19.46c-0.04-0.19-0.09-0.38-0.12-0.56c3.29-4.1,10.61-12.82,13.37-15.84c0.17-0.19,0.37-0.37,0.6-0.54
	L341.63,208.5z"/>
<path fill="#FFFFFF" stroke="#000000" stroke-miterlimit="10" d="M352.66,126.66c-0.04-0.01-0.09-0.01-0.14-0.01h-0.01
	c-5.77-0.29-15.92,5.84-15.92,5.84c-1.08-1.09-2.23-1.99-3.45-2.64c-0.6-0.32-1.21-0.58-1.85-0.77c1.15-4.56,3.35-14.47,3.83-16.67
	c0.29-0.09,0.58-0.17,0.88-0.24c0.24-0.06,0.49-0.11,0.74-0.15h0.01l10.31,0.36c-0.05,0.37-0.09,0.71-0.12,1.03
	c0.28,0.04,0.59,0.09,0.91,0.15C348.65,115.91,350.56,121.43,352.66,126.66z"/>
<path fill="#FFFFFF" stroke="#000000" stroke-miterlimit="10" d="M439.3,181.67c-1.39,3.62-3.42,10.54-5.69,18.87l0.87-12.57
	l0.79-11.64C436.63,177.97,438,179.9,439.3,181.67z"/>
<path fill="#FFFFFF" stroke="#000000" stroke-miterlimit="10" d="M398.56,249.06c-5.39,0.02-14.41,0.54-19.42,0.86l-0.44-1.05
	c0,0-3.64-1.49-8.12-3.95c-4.14-2.28-8.99-5.37-12.37-8.88c-7.04-7.31,1.42-30.03,1.42-30.03l-12.92-20.98
	c2.12-0.38,3.57-0.58,3.57-0.58l9.89,5.7c0,0,9.8,25.48,19.42,39.21c1.82,2.6,4.66,5.79,8.07,9.27
	C390.91,241.95,394.67,245.51,398.56,249.06z"/>
<path fill="#FFFFFF" stroke="#000000" stroke-miterlimit="10" d="M420.2,267.77c-4.76-1.71-16-4.83-25.1-0.27
	c-11.88,5.94-19.6,24.95-19.6,24.95h-8.8l-6.06,10.33l4.81,10.69c-0.08,0.97,0.02,1.89,0.3,2.74c0.43,1.29,0.91,2.31,1.41,3.09
	c-2.32-0.06-7.71-0.51-10.11-3.42l-7.13-19.25l7.13-11.4l13.37-1.34l13.9-21.47l-5.18-12.5c5.01-0.32,14.03-0.84,19.42-0.86h0.01
	C406.32,256.13,414.55,263.08,420.2,267.77z"/>
<path fill="#FFFFFF" stroke="#000000" stroke-miterlimit="10" d="M433.01,202.77c-1.36,5.07-2.79,10.59-4.21,16.16v0.01
	c-3.83,11.2-10.09,25.44-19.02,33.59c-3.01-1.72-5.89-3.1-7.55-3.33c-0.76-0.1-2.05-0.14-3.66-0.14h-0.01
	c-3.89-3.55-7.65-7.11-10.9-10.43C400.81,221.63,429.03,205.06,433.01,202.77z"/>
<path fill="#FFFFFF" stroke="#000000" stroke-miterlimit="10" d="M422.54,269.7C422.54,269.71,422.54,269.71,422.54,269.7
	c-1.31-0.04-2.86,0.09-4.58,0.38c-8.54,1.39-21.27,6.55-29.04,13.34c-8.94,7.8-20.16,18.79-22.88,27.13
	c-0.34,1.02-0.54,1.99-0.59,2.92l-4.81-10.69l6.06-10.33h8.8c0,0,7.72-19.01,19.6-24.95c9.1-4.56,20.34-1.44,25.1,0.27l0.01,0.01
	C421.05,268.47,421.83,269.12,422.54,269.7z"/>
<path fill="#FFFFFF" stroke="#000000" stroke-miterlimit="10" d="M427.56,280.01c-0.01-0.01-0.02-0.01-0.02-0.01
	c-0.01-0.01-0.02-0.03-0.03-0.05c-0.2-0.37-1.23-2.12-3.4-3.68c-4.65-3.35-14.5-5.85-32.58,7.86
	c-26.38,20.01-20.9,33.26-20.38,34.37c0.03,0.04,0.04,0.07,0.04,0.07c0.73,2.69,2.26,2.63,2.26,2.63s-3.54,2.37-6.29-1.9
	c-0.5-0.78-0.98-1.8-1.41-3.09c-0.28-0.85-0.38-1.77-0.3-2.74c0.05-0.93,0.25-1.9,0.59-2.92c2.72-8.34,13.94-19.33,22.88-27.13
	c7.77-6.79,20.5-11.95,29.04-13.34c1.72-0.29,3.27-0.42,4.58-0.37h0.01c1.52,0.05,2.7,0.33,3.44,0.87
	C430.42,273.85,427.65,279.8,427.56,280.01z"/>
<path fill="#FFFFFF" stroke="#000000" stroke-miterlimit="10" d="M397,370.39c-10.29-7.96-19.97-10.06-28.71-10.86
	c-13.23-18.54-26.86-48.78-30.76-59.6c-3.35-9.31-14.54,2.07-14.96,2.5c0.34-9.75-2.66-22.95,6.47-38.5
	c1.55-2.63,3.54-4.84,5.86-6.71c3.6,8.71,7.23,22.09,11.46,36.95c4.9,17.23,10.69,21.71,10.69,21.71c2.4,2.91,7.79,3.36,10.11,3.42
	c2.75,4.27,6.29,1.9,6.29,1.9c6.45,7.11,14.35,12.71,18.32,16.39c1.28,1.19,2.66,2.48,4.09,3.8C396.39,350.9,397,363.39,397,370.39z
	"/>
<path fill="#FFFFFF" stroke="#000000" stroke-miterlimit="10" d="M342.35,354.94c3.7,7.91,1.56,16.89-0.34,21.46
	c-4.92-7.31-18.26-26.09-19.86-35.48c-1.9-11.17-1.9-24.47,0-34.45c0.24-1.27,0.37-2.62,0.42-4.04c0.42-0.43,11.61-11.81,14.96-2.5
	c3.9,10.82,17.53,41.06,30.76,59.6C358.26,358.61,349.46,359.39,342.35,354.94z"/>
<path fill="#FFFFFF" stroke="#000000" stroke-miterlimit="10" d="M409.84,383.55c-5.67-1.62-19.79-4.17-34.21,4.53
	c-19.66-12.64-29.61-3.32-30.72-2.18c-0.1-1.96-0.37-5.04-1.14-6.72c-0.19-0.42-0.82-1.39-1.76-2.78c1.9-4.57,4.04-13.55,0.34-21.46
	c7.11,4.45,15.91,3.67,25.94,4.59c8.74,0.8,18.42,2.9,28.71,10.86C401.16,373.24,405.92,378.59,409.84,383.55z"/>
<path fill="#FFFFFF" stroke="#000000" stroke-miterlimit="10" d="M412.47,386.96c-1.36,0.77-4.57,2.11-11.79,3.51
	c-11.05,2.13-25.05-2.39-25.05-2.39c14.42-8.7,28.54-6.15,34.21-4.53C410.78,384.72,411.66,385.87,412.47,386.96z"/>
<path fill="#FFFFFF" stroke="#000000" stroke-miterlimit="10" d="M375.63,388.08c0,0,0,0.01-0.01,0.02
	c-0.29,0.48-4.92,8.28-9.75,14.72c-1.12,1.5-2.57,3.69-4.05,6.34c-1.5,2.67-3.04,5.8-4.34,9.15c-0.08,0.21-0.16,0.42-0.23,0.63
	c-1.78-2.37-3.68-5.89-5.18-8.86c0-0.01-0.01-0.03-0.02-0.04c-1.26-2.52-2.21-4.65-2.53-5.36c-0.02-0.05-0.04-0.09-0.05-0.13
	l-0.04-0.08l-0.02-0.04c-3.2-8.13-4.45-16.7-4.45-16.7s0-0.75-0.05-1.83C346.02,384.76,355.97,375.44,375.63,388.08z"/>
<path fill="#FFFFFF" stroke="#000000" stroke-miterlimit="10" d="M524.29,156.23c-0.46,2.38-2.86,7.53-3.17,8.19l-0.03,0.07
	l-7.65,4.42L524.29,156.23z"/>
<path fill="#FFFFFF" stroke="#000000" stroke-miterlimit="10" d="M512.54,171.44c3.39,1.18,7.79,2.31,7.79,2.31
	c0.12-0.35,0.76-9.26,0.76-9.26S513.61,170.13,512.54,171.44z M519.16,172.52c-0.73,0-1.31-1.31-1.31-2.93
	c0-1.61,0.58-2.92,1.31-2.92c0.72,0,1.3,1.31,1.3,2.92C520.46,171.21,519.88,172.52,519.16,172.52z"/>
<path fill="#FFFFFF" stroke="#000000" stroke-miterlimit="10" d="M520.33,183.73c-0.41,1.63-1.02,3.56-1.72,5.57
	c-0.52-1.81-1.35-3.5-2.22-5.13c-1.15-2.13-2.46-4.15-3.66-6.22c-0.3-0.51-0.6-1.03-0.83-1.56c-0.2-0.54-0.37-1.12-0.42-1.7
	c-0.11-1.15,0.19-2.41,1.06-3.25c3.39,1.18,7.79,2.31,7.79,2.31C520.21,174.11,522.11,176.6,520.33,183.73z"/>
<path fill="#FFFFFF" stroke="#000000" stroke-miterlimit="10" d="M444.17,176.72c0,0.54,0.77,1.46,1.77,2.71
	c-9.72,0.33-5.9-5.39-10.44-9.48c-1.06-0.95-1.93-2.14-2.61-3.42v-0.01c0-0.01-0.01-0.01-0.01-0.02c-0.73-2.39-1.35-5.03-1.84-7.85
	c0-0.01,0-0.02,0-0.02c0.07-1.78,0.54-3.26,1.37-4.01c1.56-1.41,7.05,1.15,10.93,3.24v0.01c1.67,1.91,3,3.72,3.71,4.73l0.01,0.01
	c0.35,0.51,0.55,0.81,0.55,0.81C449.28,165.75,444.17,175.77,444.17,176.72z"/>
<path fill="#FFFFFF" stroke="#000000" stroke-miterlimit="10" d="M447.29,186.48c-0.78,0.29-1.73,0.44-2.65,0.46
	c-0.91,0.02-2.09-1.1-3.41-2.73c-0.62-0.76-1.27-1.63-1.93-2.54c-1.3-1.77-2.67-3.7-4.03-5.34c-0.93-1.14-1.86-2.13-2.75-2.82
	c-4.02-3.12-7.31-17.29-2.34-21.52c0.31-0.28,0.66-0.51,1.04-0.69c3.72-1.79,8.64,2.57,12.12,6.56c-3.88-2.09-9.37-4.65-10.93-3.24
	c-0.83,0.75-1.3,2.23-1.37,4.01c0,0,0,0.01,0,0.02c-0.09,2.37,0.51,5.3,1.84,7.85c0,0.01,0.01,0.01,0.01,0.02v0.01
	c0.68,1.28,1.55,2.47,2.61,3.42c4.54,4.09,0.72,9.81,10.44,9.48c0.77,0.94,1.69,2.07,2.51,3.35
	C449.71,184.74,448.82,185.9,447.29,186.48z"/>
<path fill="#FFFFFF" stroke="#000000" stroke-miterlimit="10" d="M542.68,148.47c-1.23-1.84-2.48-3.63-3.7-5.32
	c-0.14-5.99-0.59-10.21-0.59-10.21l-9.06-2.3c-0.14-0.16-0.21-0.25-0.21-0.25l-4.75-1.01l4.96,1.26c0.96,1.16,5.11,6.18,9.65,12.51
	c0.07,3.02,0.06,6.49-0.13,10.09c-6.39-9.14-13.3-17.98-13.3-17.98s-0.98-0.18-4.04-0.46c-2.16-0.19-5.38-0.43-10.03-0.67
	c3,8.72-1.67,21.58-7.61,34.99c-0.11,0.23-0.21,0.47-0.32,0.71c-2.06,4.62-4.26,9.31-6.33,13.9c-0.05-3.64,0.57-7.53,1.42-11.27
	c0.28-1.18,0.58-2.35,0.88-3.48c0.16-0.58,0.32-1.16,0.48-1.72c2.08-7.3,4.31-12.98,2.74-13.04c1.61-6.18-3.56-16.82-3.56-16.82
	s-4.1-3.21-9.45-3.27c0.13,3.46-4.41,11.59-7.24,19.09v0.01c-0.95,2.5-1.7,4.93-2.03,7.1c-0.09,0.59-0.15,1.16-0.17,1.7
	c-0.09,2.03,0.55,4.75,1.56,7.72c-0.95,0.15-1.56,0.26-1.56,0.26s0.85,0.54,2.1,1.26c3.29,8.84,9.34,19.15,9.96,20.21
	c-1.07-1.48-15.49-21.54-16.52-28.06c-0.06-0.38-0.09-0.79-0.09-1.25v-0.01c-0.16-7.65,6.44-25.27,5.97-29.63
	c0,2.67-16.58,13.79-19.07,15.38c-3.38,9.27,1.52,20.85,4.64,27.54c3.12,6.68-2.94,16.12-2.94,16.12s1.24-10.87,0-14.7
	c-1.25-3.83-7.31-8.55-7.31-8.55s-2.76,12.2-1.43,21c-2.4-3.86-2.94-20.56-3.2-22.49c-0.19-1.35-3.41-3.22-5.34-4.22l-0.01-0.01
	c-0.71-1.01-2.04-2.82-3.71-4.73v-0.01c-3.48-3.99-8.4-8.35-12.12-6.56c-0.38,0.18-0.73,0.41-1.04,0.69
	c-4.97,4.23-1.68,18.4,2.34,21.52c0.89,0.69,1.82,1.68,2.75,2.82l-0.79,11.64c-3.21-4.85-5.35-14.32-9.44-25.74
	c-4.52-12.6-8.55-19.9-8.55-19.9s0-5.77-4.52-15.39c-4.51-9.62-6.42-26.26-6.42-26.26l6.66,11.29l5.46-9.62l3.12-11.65v-4.04
	l6.88-1.9c0,0-4.77-6.65-3.82-13.3c13.76,10.73,33.7,16.65,34.44,16.86l-17.55-11.15c0.44,0.17,7.57,2.94,14.48,5.93
	c7.13,3.09,14.02,8.08,23.09,7.6c-4.1-3.67-23.4-12.89-24.69-13.51c1.51,0.54,25.72,9.36,29.4,13.04c3.8,3.8,25.9,16.39,26.61,16.47
	c0.72,0.07-15.44-16.47-14.97-16.47c10.55,6.6,29.44,27.83,32.21,32.22c0,0,0,0,0.01,0.01h0.01c0.6,0.43,15.95,11.33,16.13,18.5
	C543.06,142.78,542.97,145.41,542.68,148.47z"/>
<path fill="none" stroke="#000000" stroke-miterlimit="10" d="M541.47,157.06c0.56-3,0.96-5.95,1.21-8.59
	c4.21,6.28,8.13,13.08,9.61,18.36c3.74,13.39-5.88,31.69-6.95,32.05c-1.07,0.36,6.59-15.86,3.56-29.05
	C547.74,166.81,544.84,162.07,541.47,157.06c-0.85-1.27-1.73-2.55-2.62-3.82c-0.42,8.29-1.79,17.29-5.28,23.19
	C537.58,172.32,540.06,164.53,541.47,157.06"/>
<path fill="#FFFFFF" stroke="#000000" stroke-miterlimit="10" d="M500,167.26c-0.16,0.56-0.32,1.14-0.48,1.72
	c-9.26-2.72-16.02-9.84-16.02-9.84l-3.04,1.19c0.33-2.17,1.08-4.6,2.03-7.1c0,0,6.89,5.82,10.63,9.47
	C494.78,164.32,497.5,165.95,500,167.26z"/>
<path fill="#FFFFFF" stroke="#000000" stroke-miterlimit="10" d="M524.37,155.57c0-1.54-0.98-12.94-2.86-20.77
	c-2.16-0.19-5.38-0.43-10.03-0.67c3,8.72-1.67,21.58-7.61,34.99c1.26,0.56,2.08,0.89,2.08,0.89c-0.81-0.02-1.61-0.08-2.4-0.18
	c-2.06,4.62-4.26,9.31-6.33,13.9c-0.05-3.64,0.57-7.53,1.42-11.27c0,0-4.91,2.54-7.8,2.45c-1.92-0.06-5.97-2.21-8.45-3.64
	c3.29,8.84,9.34,19.15,9.96,20.21c-1.07-1.48-15.49-21.54-16.52-28.06c-0.06-0.38-0.09-0.79-0.09-1.25v-0.01
	c-0.16-7.65,6.44-25.27,5.97-29.63c0,2.67-16.58,13.79-19.07,15.38c-3.38,9.27,1.52,20.85,4.64,27.54
	c3.12,6.68-2.94,16.12-2.94,16.12s1.24-10.87,0-14.7c-1.25-3.83-7.31-8.55-7.31-8.55s-2.76,12.2-1.43,21
	c-2.4-3.86-2.94-20.56-3.2-22.49c-0.19-1.35-3.41-3.22-5.34-4.22c0.35,0.51,0.55,0.81,0.55,0.81c1.67,2.33-3.44,12.35-3.44,13.3
	c0,0.54,0.77,1.46,1.77,2.71c0.77,0.94,1.69,2.07,2.51,3.35c1.26,1.96,0.37,3.12-1.16,3.7c0.94,5.57,3.66,20.85,5.55,22.74
	c2.32,2.31,20.45,8.91,25.47,12.83c0.89,0.7,1.97,1.47,3.18,2.27c5.63,3.66,14.18,7.61,20.63,5.04c7.84-3.12,6.77-15.06,6.77-15.06
	l1.01-2.83l0.81-2.27l-6.27,0.64l-10.56-1.07h5.64c0,0,7.28-0.35,9.37-0.76c0.91-0.17,1.82-0.42,2.55-0.65l0.04-0.1l0.37-0.91
	l0.99-2.42c0,0,1.09-2.52,2.47-5.95c-0.31,0.2-0.63,0.37-0.98,0.53c-0.6,0.26-1.31,0.41-1.98,0.34c-1.36-0.15-2.4-0.7-3.54-0.89
	c-1.15-0.25-2.28-0.31-3.42-0.11c-0.57,0.09-1.21,0.23-1.87,0.2c-0.68-0.05-1.25-0.17-1.9-0.47c-0.64-0.33-1.07-0.89-1.37-1.46
	c-0.29-0.58-0.47-1.19-0.58-1.8c-0.21-1.23-0.21-2.48,0.11-3.7c0.08-0.3,0.19-0.6,0.37-0.89c0.18-0.28,0.39-0.5,0.62-0.72
	c0.47-0.42,1.03-0.74,1.62-0.91c1.2-0.36,2.48-0.17,3.56,0.36c-1.12-0.43-2.38-0.5-3.47-0.1c-1.07,0.41-2.04,1.26-2.22,2.38
	c-0.25,1.12-0.21,2.33,0.03,3.45c0.25,1.1,0.76,2.26,1.67,2.69c0.44,0.19,1.07,0.31,1.59,0.32c0.54,0.03,1.09-0.1,1.69-0.21
	c1.23-0.23,2.54-0.17,3.74,0.07c1.23,0.21,2.4,0.75,3.44,0.84c1.04,0.1,2.03-0.48,2.95-1.18c0.22-0.16,0.44-0.34,0.66-0.52v-0.01
	c0.67-1.69,1.37-3.51,2.03-5.32c-0.38-2.19-1.37-4.29-2.35-6.35c-1.06-2.14-2.28-4.2-3.41-6.33c-0.27-0.54-0.54-1.08-0.75-1.67
	c-0.18-0.59-0.32-1.19-0.33-1.81c-0.06-1.22,0.37-2.51,1.32-3.27c1.07-1.31,8.55-6.95,8.55-6.95l-7.65,4.42l10.85-12.68
	C524.34,155.97,524.37,155.75,524.37,155.57z M508.21,213.67l-2.38,3.15l-2.37-2.91L508.21,213.67z M500,167.26
	c-2.5-1.31-5.22-2.94-6.88-4.56c-3.74-3.65-10.63-9.47-10.63-9.47v-0.01c2.83-7.5,7.37-15.63,7.24-19.09
	c5.35,0.06,9.45,3.27,9.45,3.27s5.17,10.64,3.56,16.82C504.31,154.28,502.08,159.96,500,167.26z M499.52,168.98
	c-0.3,1.13-0.6,2.3-0.88,3.48c0,0-3.56-3.61-5.7-3.96c-1.63-0.27-8.08,0.74-11.09,1.25c-1.01-2.97-1.65-5.69-1.56-7.72
	c0.02-0.54,0.08-1.11,0.17-1.7l3.04-1.19C483.5,159.14,490.26,166.26,499.52,168.98z"/>
<path fill="#FFFFFF" stroke="#000000" stroke-miterlimit="10" d="M492.94,168.5c-1.63-0.27-8.08,0.74-11.09,1.25
	c0.17,0.5,0.35,1.01,0.54,1.52c2.48,1.43,6.53,3.58,8.45,3.64c2.89,0.09,7.8-2.45,7.8-2.45S495.08,168.85,492.94,168.5z
	 M491.77,174.61c-1.27,0-2.3-1.27-2.3-2.85c0-1.57,1.03-2.85,2.3-2.85c1.27,0,2.3,1.28,2.3,2.85
	C494.07,173.34,493.04,174.61,491.77,174.61z"/>
<path fill="#FFFFFF" stroke="#000000" stroke-miterlimit="10" d="M494.07,171.76c0,1.58-1.03,2.85-2.3,2.85
	c-1.27,0-2.3-1.27-2.3-2.85c0-1.57,1.03-2.85,2.3-2.85C493.04,168.91,494.07,170.19,494.07,171.76z"/>
<path fill="#FFFFFF" stroke="#000000" stroke-miterlimit="10" d="M520.46,169.59c0,1.62-0.58,2.93-1.3,2.93
	c-0.73,0-1.31-1.31-1.31-2.93c0-1.61,0.58-2.92,1.31-2.92C519.88,166.67,520.46,167.98,520.46,169.59z"/>
<path fill="#FFFFFF" stroke="#000000" stroke-miterlimit="10" d="M518.6,194.8c-0.28,0.6-0.8,1.13-1.23,1.52
	c-0.44,0.42-0.91,0.82-1.4,1.2c-0.21,0.16-0.43,0.32-0.66,0.46c-0.31,0.2-0.63,0.37-0.98,0.53c-0.6,0.26-1.31,0.41-1.98,0.34
	c-1.36-0.15-2.4-0.7-3.54-0.89c-1.15-0.25-2.28-0.31-3.42-0.11c-0.57,0.09-1.21,0.23-1.87,0.2c-0.68-0.05-1.25-0.17-1.9-0.47
	c-0.64-0.33-1.07-0.89-1.37-1.46c-0.29-0.58-0.47-1.19-0.58-1.8c-0.21-1.23-0.21-2.48,0.11-3.7c0.08-0.3,0.19-0.6,0.37-0.89
	c0.18-0.28,0.39-0.5,0.62-0.72c0.47-0.42,1.03-0.74,1.62-0.91c1.2-0.36,2.48-0.17,3.56,0.36c-1.12-0.43-2.38-0.5-3.47-0.1
	c-1.07,0.41-2.04,1.26-2.22,2.38c-0.25,1.12-0.21,2.33,0.03,3.45c0.25,1.1,0.76,2.26,1.67,2.69c0.44,0.19,1.07,0.31,1.59,0.32
	c0.54,0.03,1.09-0.1,1.69-0.21c1.23-0.23,2.54-0.17,3.74,0.07c1.23,0.21,2.4,0.75,3.44,0.84c1.04,0.1,2.03-0.48,2.95-1.18
	c0.22-0.16,0.44-0.34,0.66-0.52v-0.01c0.23-0.18,0.45-0.38,0.68-0.59c0.46-0.41,0.8-0.75,1.04-1.24c0.5-0.93,0.53-2.1,0.36-3.23
	c-0.01-0.09-0.03-0.17-0.05-0.26c-0.38-2.19-1.37-4.29-2.35-6.35c-1.06-2.14-2.28-4.2-3.41-6.33c-0.27-0.54-0.54-1.08-0.75-1.67
	c-0.18-0.59-0.32-1.19-0.33-1.81c-0.06-1.22,0.37-2.51,1.32-3.27c-0.87,0.84-1.17,2.1-1.06,3.25c0.05,0.58,0.22,1.16,0.42,1.7
	c0.23,0.53,0.53,1.05,0.83,1.56c1.2,2.07,2.51,4.09,3.66,6.22c0.87,1.63,1.7,3.32,2.22,5.13c0.17,0.55,0.3,1.11,0.4,1.69
	C519.2,192.22,519.22,193.58,518.6,194.8z"/>
<path fill="#FFFFFF" stroke="#000000" stroke-miterlimit="10" d="M511.44,207.36l-0.5,1.2l-0.23,0.64l-6.27,0.64l-10.56-1.07h5.64
	c0,0,7.28-0.35,9.37-0.76C509.8,207.84,510.71,207.59,511.44,207.36z"/>
<polygon fill="#FFFFFF" stroke="#000000" stroke-miterlimit="10" points="508.21,213.67 505.83,216.82 503.46,213.91 "/>
<path fill="#FFFFFF" stroke="#000000" stroke-miterlimit="10" d="M447.85,358.05c-8.59,9.23-25.31,12.45-25.31,12.45
	s-6.53,2.27-25.54-0.11c0-7-0.61-19.49-1.14-29c5.7,5.24,12.12,10.79,16.11,11.17c4.99,0.48,14.97-1.42,14.97-1.42
	s0.55-0.03,1.56-0.1c0,0,0.01,0,0.01-0.01c2.92-0.19,9.69-0.67,18.41-1.39C447.12,352.02,447.42,354.95,447.85,358.05z"/>
<path fill="#FFFFFF" stroke="#000000" stroke-miterlimit="10" d="M454.98,379.42c0,0-14.41,0-21.64,0c-5.89,0-15.55,2.71-17.56,8.01
	l-2.38-1.12c0,0-0.2,0.25-0.93,0.65c-0.81-1.09-1.69-2.24-2.63-3.41c-3.92-4.96-8.68-10.31-12.84-13.16
	c19.01,2.38,25.54,0.11,25.54,0.11s16.72-3.22,25.31-12.45C449,366.21,451.12,375.56,454.98,379.42z"/>
<path fill="#FFFFFF" stroke="#000000" stroke-miterlimit="10" d="M460.65,394.62c0,0-13.51-0.47-23.14,0
	c-4.82,0.24-9,0.81-11.98,1.31c-2.1-3.51-3.82-5.7-3.82-5.7l-5.93-2.8c2.01-5.3,11.67-8.01,17.56-8.01c7.23,0,21.64,0,21.64,0
	C457.02,385.09,459.28,391.04,460.65,394.62z"/>
<path fill="#FFFFFF" stroke="#000000" stroke-miterlimit="10" d="M546.03,378.81c-8.31,9.86-28.31,18.07-28.31,18.07l-2.86-6.06
	c0,0-11.4-10.33-20.63-12.47c-9.22-2.14-34.26,0-39.25,1.07c-3.86-3.86-5.98-13.21-7.13-21.37c11.05,4.61,30.69,15.31,52.06,12.45
	c21.37-2.85,31.35-15.56,31.35-15.56S537.16,363.84,546.03,378.81z"/>
<path fill="#FFFFFF" stroke="#000000" stroke-miterlimit="10" d="M517.72,396.88c0,0-18.54-4.63-27.1-5.35
	c-8.55-0.71-29.97,3.09-29.97,3.09c-1.37-3.58-3.63-9.53-5.67-15.2c4.99-1.07,30.03-3.21,39.25-1.07
	c9.23,2.14,20.63,12.47,20.63,12.47L517.72,396.88z"/>
<path fill="#FFFFFF" stroke="#000000" stroke-miterlimit="10" d="M472.62,421.12v8.24c-14.3,0.31-28.89,0.86-36.38,1.17
	c-1.46-4.94-2.7-10.19-3.32-14.98c5.42,0.79,11.98,1.45,18.23,1.29c13.98-0.34,19.55,0.68,19.83,0.73L472.62,421.12z"/>
<path fill="#FFFFFF" stroke="#000000" stroke-miterlimit="10" d="M512.19,417.58c-6.24,3.94-8.02-0.03-17.96-0.01
	c-9.93,0.02-23.24,0-23.24,0s0,0-0.01,0l-9.05-19.62c0,0-0.49-1.28-1.28-3.33c0,0,21.42-3.8,29.97-3.09
	c8.56,0.72,27.1,5.35,27.1,5.35S518.43,413.63,512.19,417.58z"/>
<path fill="#FFFFFF" stroke="#000000" stroke-miterlimit="10" d="M470.98,417.57c-0.28-0.05-5.85-1.07-19.83-0.73
	c-6.25,0.16-12.81-0.5-18.23-1.29c-0.02-0.08-0.03-0.17-0.04-0.25c-0.95-7.45-4.51-14.62-7.35-19.37c2.98-0.5,7.16-1.07,11.98-1.31
	c9.63-0.47,23.14,0,23.14,0c0.79,2.05,1.28,3.33,1.28,3.33L470.98,417.57z"/>
<path fill="#FFFFFF" stroke="#000000" stroke-miterlimit="10" d="M428.17,521.19c-1.02,1.24-0.27,7.93,0.23,12.36
	c1.31,11.7,3.1,27.73-8.91,32.46c-6.92,2.72-14.89,1.44-23.34,0.08c-12.23-1.97-23.78-3.83-32.15,6.07
	c-7.69,9.11-10.17,21.25-6.16,30.22c3.11,6.96,9.62,10.93,18.34,11.19c13.77,0.41,18.97-8.75,23.98-17.59
	c3.16-5.57,6.14-10.83,11.14-13.15c6.77-3.13,13.65-3.34,18.89-0.59c4.37,2.3,7.26,6.42,8.14,11.6l0.55,3.18l-3.21,0.31
	c-11.17,1.1-20.85,13.59-27.92,22.72l-1.49,1.92c-4.6,5.89-14.3,9.98-24.56,14.3c-7.94,3.34-16.15,6.8-21.04,10.88
	c-7.74,6.45-10.64,14.02-9.67,16.78c0.06,0.17,0.15,0.41,0.39,0.64c-1.68,1.13-3.37,2.25-5.03,3.32c-0.43-0.59-0.78-1.25-1.03-1.99
	c-2.15-6.19,2.68-16.01,11.5-23.36c5.58-4.65,14.21-8.28,22.55-11.8c9.11-3.83,18.52-7.8,22.16-12.46l1.48-1.91
	c7.06-9.11,16.5-21.3,28.55-24.39c-0.88-1.94-2.29-3.44-4.16-4.43c-3.58-1.88-8.52-1.61-13.57,0.73c-3.26,1.51-5.67,5.75-8.45,10.66
	c-5.34,9.41-11.99,21.13-29.38,20.62c-10.98-0.31-19.6-5.69-23.64-14.74c-5-11.2-2.23-25.54,7.06-36.53
	c10.56-12.49,24.97-10.17,37.68-8.12c7.61,1.22,14.8,2.38,20.19,0.26c7.74-3.05,6.3-15.89,5.14-26.21
	c-0.85-7.66-1.53-13.71,1.14-16.89c3.49-4.15,10.23-3.82,15.98-2.51c-4.18-4.01-10.8-8.26-20.32-8.6
	c-7.58-0.28-12.23,5.81-17.15,12.25c-5.99,7.82-13.45,17.55-26.84,9.41c-6.6-4.02-9.57-8.52-8.84-13.39
	c1.75-11.52,23.71-17.34,23.93-17.4c8.95-2.25,17.59-6.37,19.09-8.45c-2.29-4.07-8.23-15.44-10.65-20.07
	c5.17,3.22,9.4,5.94,10.23,6.73c0.05,0.04,0.1,0.09,0.15,0.14c2.31,4.39,4.66,8.77,5.73,10.66c0.81,1.42,0.89,3.05,0.23,4.6
	c-3,7.03-23.12,12.16-23.32,12.21c-6.55,1.65-18.66,7.22-19.45,12.47c-0.43,2.81,3.04,5.56,6.02,7.37
	c8.4,5.11,12.27,0.79,18.95-7.93c5.38-7.02,11.45-14.99,22.13-14.59c21.61,0.76,30.71,18.38,31.09,19.13l3.72,7.4l-7.59-3.3
	C440.39,520.74,430.47,518.44,428.17,521.19z"/>
<path fill="#FFFFFF" stroke="#000000" stroke-miterlimit="10" d="M642.32,542.3c-1.38,0.7-3.36,1.28-6.13,1.28
	c-2.43,0-5.48-0.44-9.29-1.62c-7.93-2.45-16.09-9.15-23.98-15.63c-5.57-4.58-11.34-9.31-16.79-12.33
	c-12.2-6.76-29.79,2.08-29.96,2.17l-9.38,4.79l19.29-21.85c1.25,0.67,2.47,1.31,3.66,1.89l-7.53,8.53
	c6.96-2.12,17.29-3.78,25.86,0.97c5.77,3.19,11.68,8.04,17.39,12.74c7.59,6.23,15.44,12.68,22.63,14.9
	c5.54,1.72,8.95,1.62,10.97,1.09C640.2,540.28,641.28,541.3,642.32,542.3z"/>
<path fill="#FFFFFF" stroke="#000000" stroke-miterlimit="10" d="M694.26,597.97c-1.68,2.91-3.88,4.6-6.59,5.06
	c-0.46,0.07-0.92,0.11-1.4,0.11c-9.42,0-21.04-14.82-27.43-22.97c-1.33-1.7-2.48-3.17-3.09-3.81c-3.5-3.68-8.04-6.55-17.51-2.62
	l-4.32,1.79l1.69-4.36c2.36-6.09,6.14-9.83,11.23-11.13c4.45-1.14,9.3-0.19,13.72,1.5c0,0,0,0.01,0.01,0.01
	c2.7,2.95,5.33,5.88,7.82,8.66c-5.11-3.4-13.72-8.04-20.57-6.29c-2.56,0.65-4.65,2.15-6.32,4.53c6.85-1.66,12.27,0.01,17.15,5.15
	c0.74,0.78,1.83,2.17,3.34,4.1c5.3,6.77,17.73,22.63,25.02,21.38c1.69-0.28,3.13-1.63,4.27-4.02
	C692.21,595.96,693.21,596.94,694.26,597.97z"/>
<path fill="#FFFFFF" stroke="#000000" stroke-miterlimit="10" d="M578.16,488.82c-4.83-1.05-9.24-2.42-13.04-4.26
	c-4.52-2.18-9.75-5.41-15.21-9.16c4.12,0.07,9.74,0.11,12-0.1C561.91,475.3,570.59,482.68,578.16,488.82z"/>
<path fill="#FFFFFF" stroke="#000000" stroke-miterlimit="10" d="M481.49,224.32c-7.25,8.66-29.88,35.57-35.25,40.3
	c-0.19-0.03-0.38-0.05-0.57-0.07c2.19-27.9-3.93-61.9-4.44-80.34c1.32,1.63,2.5,2.75,3.41,2.73c0.92-0.02,1.87-0.17,2.65-0.46
	c0.94,5.57,3.66,20.85,5.55,22.74c2.32,2.31,20.45,8.91,25.47,12.83C479.2,222.75,480.28,223.52,481.49,224.32z"/>
<path fill="#FFFFFF" stroke="#000000" stroke-miterlimit="10" d="M428.8,218.94c-3.98,15.66-7.85,31.74-9.72,39.6
	c-2.16-1.59-5.81-4.02-9.3-6.01C418.71,244.38,424.97,230.14,428.8,218.94z"/>
<path fill="#FFFFFF" stroke="#000000" stroke-miterlimit="10" d="M516.74,248.44c-3.97,4.86-6.58,11.85-7.88,15.92
	c-9.94,0.61-21.66,1.26-28.04,1.35c-12.47,0.18-24.06,9.45-37.42,16.2c-0.31,0.16-0.62,0.32-0.92,0.5
	c-0.13-9.25,3.14-17.28,3.14-17.28c0.01,0,0.01-0.01,0.02-0.01c0.11-0.02,0.69-0.14,1.63-0.34c6.08-1.27,27.3-5.81,34.8-8.45
	C488.47,254.08,507.09,250.32,516.74,248.44z"/>
<path fill="#FFFFFF" stroke="#000000" stroke-miterlimit="10" d="M445.67,264.55c-0.02,0.2-0.03,0.39-0.05,0.58
	c0,0-3.27,8.03-3.14,17.28c-2.98,1.66-5.59,3.92-7.83,6.4c-2.06-2.93-4.59-5.99-7.09-8.8c0.09-0.21,2.86-6.16-1.57-9.43
	c-0.74-0.54-1.92-0.82-3.44-0.87h-0.01c0,0,0,0,0-0.01c0-0.07-0.01-0.45-0.04-1.02c-0.07-1.22-0.21-3.35-0.51-5.22
	C427.9,263.48,438.87,263.66,445.67,264.55z"/>
<path fill="#FFFFFF" stroke="#000000" stroke-miterlimit="10" d="M445.67,264.55c-6.8-0.89-17.77-1.07-23.68-1.09
	c-0.25-1.54-0.6-2.91-1.11-3.45c-0.26-0.28-0.9-0.8-1.8-1.47c1.87-7.86,5.74-23.94,9.72-39.6v-0.01c3.17-9.25,4.68-16.43,4.68-16.43
	l0.13-1.92v-0.02c0-0.01,0.01-0.01,0-0.02c2.27-8.33,4.3-15.25,5.69-18.87c0.66,0.91,1.31,1.78,1.93,2.54
	C441.74,202.65,447.86,236.65,445.67,264.55z"/>
<path fill="#FFFFFF" stroke="#000000" stroke-miterlimit="10" d="M428.51,351.03c0,0.01-0.01,0.01-0.01,0.01
	c-1.01,0.07-1.56,0.1-1.56,0.1s-9.98,1.9-14.97,1.42c-3.99-0.38-10.41-5.93-16.11-11.17c-1.43-1.32-2.81-2.61-4.09-3.8
	c-3.97-3.68-11.87-9.28-18.32-16.39c-0.78-0.85-1.53-1.73-2.26-2.63c0,0-0.01-0.03-0.04-0.07c-0.52-1.11-6-14.36,20.38-34.37
	c18.08-13.71,27.93-11.21,32.58-7.86c1.09,1.15,2.24,2.39,3.4,3.68c0.01,0.02,0.02,0.04,0.03,0.05c0.01,0.01,0.01,0.02,0.01,0.02
	s0,0,0.01-0.01c2.5,2.81,5.03,5.87,7.09,8.8c-7.34,8.12-10.8,18.61-10.8,18.61c2.22,2.38,5.57,4.45,9.64,6.15
	C433.66,314.52,438.92,344.13,428.51,351.03z"/>
<path fill="#FFFFFF" stroke="#000000" stroke-miterlimit="10" d="M886.82,815.73c-2.19,0.09-23.94,2.61-37.86,3.62
	c-0.03-0.08-0.06-0.16-0.09-0.24c-0.14,0.02-0.27,0.04-0.41,0.06c-0.7,0.12-1.39,0.24-2.08,0.36h-0.03
	c-14.31,2.51-27.16,5.98-34.93,7.53c-5.92,1.18-16.07,8.81-23.11,14.75c0,0-0.03,0.03-0.1,0.09c-0.15,0.13-0.47,0.4-0.92,0.78
	c-2.38,1.99-8.32,6.76-10.57,6.76c-2.85,0-10.45-11.17-11.4-32.56c-9.03-9.98-25.9-23.29-26.62-29.7
	c-0.71-6.42,1.67-10.22-5.22-17.11c-6.9-6.89-52.05-13.07-92.92-88.16c0,0,12.95-23.05,27.93-31.25
	c14.97-8.19,20.67,0.36,33.86-12.83c5.49-5.49,9.99-12.15,13.37-18.06c0.08-0.13,0.15-0.26,0.22-0.39c2.34,2.27,4.93,4.9,7.08,7.28
	c5.35,5.94,13.19,12.24,20.67,17.47c7.49,5.23,43.13,36.21,63.72,64.45c20.58,28.25,23.73,36.3,35.61,43.91
	c11.88,7.6,18.35,27.8,21.65,33.74s6.86,9.03,13.28,17.11C883.93,810.86,885.99,815.36,886.82,815.73z"/>
</svg>
