<?xml version="1.0" encoding="utf-8"?>
<!-- Generator: Adobe Illustrator 23.0.5, SVG Export Plug-In . SVG Version: 6.00 Build 0)  -->
<svg version="1.1" baseProfile="tiny" id="Layer_1" xmlns="http://www.w3.org/2000/svg" xmlns:xlink="http://www.w3.org/1999/xlink"
	 x="0px" y="0px" viewBox="0 0 1000 1000" xml:space="preserve">
<path fill="#FFFFFF" stroke="#000000" stroke-miterlimit="10" d="M578.4,243c-13.9-1.9-20.9,1.6-32.6,5.2c-0.4,0.1-0.9,0.3-1.3,0.4
	c-25.7-6.5-39.7-3.8-48.4-0.8c-12.9-8-25.7-8.7-34-7.7h0c-3.5-4.2-8.7-7.3-16.3-8.4c6.1-10.4,16.8-17.8,22.7-21.3l-0.3-0.5
	c0.5-5.7,0.5-11.9,0.3-18.2c0.1,0.1,0.2,0.1,0.3,0.2c9.2,5.3,19.2-2,19.2-2s0-0.3,0.1-0.7c2-0.3,5.7,0.3,10.7,5.4
	c7.8,8.1,35.1,19.2,48.8,1.1c0.6,3,4.1,21.9,6.1,24.7C555.5,223,569.5,231.9,578.4,243z"/>
<path fill="#FFFFFF" stroke="#000000" stroke-miterlimit="10" d="M545.1,121.7c-17.3-23.2-30.7-23.1-33.3-22.9
	c0.2,2.1,0.3,4.7,0.2,6.8c-6.5,0.4-11.3,5.8-13.9,9.8c-18.8-10.7-31.3-2.3-31.3-2.3c-3.8,3.2-6.5,16.2-3.8,31.6
	c0.9,5.2,2,11.9,3,19.4c1.9-1.4,3.9-2.8,3.9-2.8c19.4-1.5,18.4,23.3,18.1,28c2-0.3,5.7,0.3,10.7,5.4c7.8,8.1,35.1,19.2,48.8,1.1
	c0-0.3-0.1-0.4-0.1-0.4c2.2-4.5,4.9-25,2.8-30.2c-2-5.3-2.4-29.4-2.4-29.4s3.2-5.3,4.1-7C552.7,126.9,552.7,123.7,545.1,121.7z
	 M498.5,158.8l29.1-6.6c0,0-4.2,7.8-12.9,8.9C505.9,162.1,498.5,158.8,498.5,158.8z M521.5,173.5c0,0,0,0.1-0.1,0.2
	C521.4,173.6,521.5,173.6,521.5,173.5z M520.6,180.1c-1-1.6,0.4-5.2,0.8-6.3c-0.3,1.1-1,5,5.5,6.8
	C524.7,181.6,521.8,181.9,520.6,180.1z M540.4,161c-0.8-0.1-1.5-0.1-2.2,0.1c-0.7,0.2-1.3,0.4-1.9,0.8c-0.6,0.4-1,0.9-1.5,1.4
	l-0.3,0.3l-0.4,0.1c-0.8,0.2-1.6,0.4-2.4,0.9c-0.7,0.5-1.4,1.1-2,1.8c-0.6,0.7-1.2,1.5-1.7,2.4c-0.5,0.8-1,1.7-1.5,2.7
	c0-1.1,0.2-2.1,0.4-3.1c0.3-1,0.7-2,1.3-3c0.6-0.9,1.3-1.8,2.3-2.5c0.9-0.6,1.9-1,2.9-1.2c0.2-0.2,0.4-0.4,0.7-0.6
	c0.4-0.3,0.7-0.5,1.2-0.7c0.8-0.5,1.8-0.7,2.7-0.7c0.9,0,1.8,0.2,2.6,0.6c0.8,0.4,1.5,0.9,2,1.6C542,161.3,541.2,161.1,540.4,161z
	 M541.2,150.3c-2.7,2.6-5.3-1.4-5.3-1.4l11.9-15.2C547.8,133.7,543.9,147.7,541.2,150.3z"/>
<path fill="#FFFFFF" stroke="#000000" stroke-miterlimit="10" d="M512.1,105.6c-6.5,0.4-11.3,5.8-13.9,9.8
	c-18.7-10.7-31.3-2.3-31.3-2.3c-0.8-9.2-18.3-14.6-31.3-6.2c-12.9,8.4-16.2,29.1-16.5,35.9c-0.3,6.7,6.7,12.9,8.1,15.1
	c1.4,2.2-1.9,13.2-6.2,13c-4.3-0.3-27.5-57.2,7-79.6s83.4,7.5,83.4,7.5s0.1,0,0.4-0.1C512,100.9,512.1,103.5,512.1,105.6z"/>
<path fill="#FFFFFF" stroke="#000000" stroke-miterlimit="10" d="M464.9,286.1c-0.1,0.6-0.3,1.2-0.6,1.9c-2.3,6-9.7,16.8-9.7,16.8
	s-9,7.4-17.5,12c-3.3,1.8-6.5,3.1-9.1,3.5c-9.4,1.4-16.9-11.4-16.9-11.4s-10.3-19.4-3.8-43.9c6.5-24.5,30.6-30.6,38.4-33
	c0-0.1,0.1-0.2,0.1-0.2c7.6,1.1,12.8,4.2,16.3,8.4h0C474.1,254.6,465.7,282.1,464.9,286.1z"/>
<path fill="#FFFFFF" stroke="#000000" stroke-miterlimit="10" d="M449.8,402.4c-8.3-1.3-35.7,0.9-45,2.8c0.7-8.6,1.2-14.6,1.4-16.1
	c0.8-6.3,4.1-23.3,3.2-30.2c-9.1-22.7,1.6-50,1.6-50s7.5,12.7,16.9,11.4c2.6-0.4,5.8-1.7,9.1-3.5c-3,9.7-9,32.5-5,44.2
	c2.6,7.6,8.4,15.2,13.6,20.8v0C447.1,387.3,448.5,394.5,449.8,402.4z"/>
<path fill="#FFFFFF" stroke="#000000" stroke-miterlimit="10" d="M465.7,529.8c-7.4-0.9-7.8-4.1-7.8-4.1s-5.3,10.4-6.3,10.5
	c-0.6,0.1-2.5-2-4.2-4.1c-1.6-2-3.1-3.9-3.1-3.9s-0.4,8.8-5,7.8c-4.6-0.9-6.5-8.1-6.5-8.1s-3.9,5.8-7.8,4.7
	c-3.9-1.1-8.2-6.9-8.2-6.9s-1.7,5.1-9.6,1.1c-7.8-4-6.3-18.6-7.6-31c-0.1-0.9-0.1-2.3-0.1-4.1c6.6,5.7,16.4,8.6,21.9,6.7
	c8.9-3,27.5-25.1,33.2-25.6c0,0,0.1,0,0.1,0c1.9-0.2,3-0.1,3.6-0.1c0,0.1,0,0.2,0,0.2c0.4,0.5,10.5,14.2,13.6,19.6
	c3.1,5.4-2.4,12.9-3.4,18.9C467.6,517.6,473.1,530.8,465.7,529.8z"/>
<path fill="#FFFFFF" stroke="#000000" stroke-miterlimit="10" d="M573.8,486.4c0-2.4-0.1-4.8-0.1-7.1c-1.9,0.2-3.7,0.3-5.5,0.3
	l-3.9,39.1l-12.3-44.3h0c-11.6-7.3-20.7-21.2-33.6-34.6c-4-4.1-8.3-7.3-12.7-9.6c-9.7,7.4-28.9,23.2-31.7,33.1
	c2.1-14.9,7.3-29.6,11.4-39.5c-4.2-0.5-7.9-0.6-10.7-0.5c-4.8,7-12.4,19.7-16.9,34.2c0.4,1.9,0.9,3.8,1.3,5.6
	c1.1,4.9,1.7,8.8,1.1,9.3c-1,0.9-0.7,0.6-1.9,0.5c0,0.1,0,0.2,0.1,0.2c0.4,0.5,10.5,14.2,13.6,19.6c3.1,5.4-2.4,12.9-3.4,18.9
	c-0.9,5.9,4.6,19.1-2.8,18.2s-7.8-4.1-7.8-4.1s-5.3,10.4-6.3,10.5c-0.6,0.1-2.5-2-4.2-4.1l-9.3,30.4l-1.1,5.9l-16,31
	c3,21.3,11,72.6,11,72.6s-5.7,36.8-8.9,34.4c-3.2-2.4-14.6-25.1-14.6-25.1l14.2,2.8l2.8-21.4l-4.9-62.6l-0.1,0.2l0.8,19.7l-6.7,4.6
	l-0.3,27.5c0,0-30.5,35.3-32.1,45.6c-1.6,10.3,9.2,26.2,9.2,26.2s-3,12.1,0,24c3,11.9,19.7,29.4,19.7,29.4l10.5,0.5c0,0,0,0,0,0
	l5.5-2.2l5.5,6.3l2.4-0.8l7.1,6.9l18.4-8.3l11.7,4.3c0,0,2.9-0.7,6.6-1.7c6.3-1.6,15.2-4.1,17-5.4c3.1-2,11.1-18.8,11.1-18.8
	l7.3-4.4l4.6-2.7l4-44.1l18.6-26.9l1-25.7l12.3-21.7v0l7.1-12.5l1-1.8l0.6-1.1l-1.8-11l-1.4-8.4l3.8-3.6l2.7-2.5l-2.3-2.9
	L573.8,486.4L573.8,486.4z M508,455.3c-0.3,1.7-10.9,57-11.3,58.6c-0.4,1.6,0.8,60.3,0.8,60.3l-11.3-66.8L508,455.3z M506,716.7
	c-6.9,8.1-44.5,22.7-44.5,22.7l-15-21.5l-11.3-49.8l24.3,12.1c0,0,11.7,32.4,11.7,34.8c0,2.4,30-0.8,30-0.8l41.5-59.9
	C541.7,656,512.8,708.7,506,716.7z M480.9,648.7c-4.8-2-25.5-55-25.5-55s23.9,32.8,32,42.9c8.1,10.1,42.5-24.3,70.8-54.6
	C546.9,610.6,485.8,650.7,480.9,648.7z"/>
<path fill="#FFFFFF" stroke="#000000" stroke-miterlimit="10" d="M478.8,782.3c-2.6,15-5.4,37.5-7.3,54.1v0
	c-5.6,4-16.6,12.2-22.1,18.4c-7.5,8.5-25.9,13.4-30.6,7.8c-2.5-3-6.8-10.3-10.1-16.3c0,0,0,0,0,0c0.5-28.4,12.5-67.4,12.8-68.4
	l5.5-2.2l5.5,6.3l2.4-0.8l7.1,6.9l18.4-8.3l11.7,4.2C472.2,784,475.1,783.3,478.8,782.3z"/>
<path fill="#FFFFFF" stroke="#000000" stroke-miterlimit="10" d="M471.1,840.3c-1.1,9.5-1.7,16.4-1.8,17.7c-0.3,4-7.8,9.7-7.8,9.7
	s-2.7,20.2-7,27.2c-4.3,7-21.9,16.7-29.4,20c-7.6,3.2-20.5,9.4-20.5,9.4s-3.2-2.2-5.4-22.9c-2.2-20.8,7-27.2,10.5-41.6
	c0-0.2-0.1-0.5-0.1-0.7c1.9,4.4,5.9,10.9,13.4,12.9c11.6,3.1,26.6-5.9,31.8-12.7C459.3,853.6,465.2,844.8,471.1,840.3z"/>
<path fill="#FFFFFF" stroke="#000000" stroke-miterlimit="10" d="M471.6,836.4c-0.1,1.3-0.3,2.6-0.4,3.9
	c-5.9,4.5-11.9,13.3-16.4,19.1c-5.3,6.7-20.2,15.8-31.8,12.7c-7.4-2-11.4-8.5-13.4-12.9c-0.7-3.9-0.9-8.3-0.8-12.9
	c3.4,6.1,7.6,13.4,10.1,16.3c4.7,5.5,23.1,0.7,30.6-7.8C455,848.6,466,840.4,471.6,836.4z"/>
<path fill="#FFFFFF" stroke="#000000" stroke-miterlimit="10" d="M650.1,668.3c-0.4,1.8-10.1,18-10.1,18l-0.8,40.6l-18,13.9
	c0,0-1.3,11.1-4.3,13.4c-3,2.2-16.6,6.5-16.6,6.5l-9.7,10l-1.8-0.6l-7.6-2.3L571,778l-15.1-9.4l-12.1,0.5l-9.5,5.3
	c0,0-0.9-0.4-2.3-1.2c-4.7-2.7-15.1-9.6-17.7-19.4l4.6-2.7l4-44.1l18.6-26.9l1-25.7l12.3-21.7c1.1,6.3,2.6,15.6,4.9,29.3
	c5.3,31.9,33.8,63.8,37.3,67.6l-45.4-47l6.5,33.2l28.7,37.2c0,0,36-19.8,41.7-30.4c5.7-10.5,5.7-29.1,5.7-29.1s-4,17-19,26.7
	c-15,9.7-17.8,9.7-17.8,9.7l0.1-0.3l4.4-17.5l-12.5-32.4L562,620.2l1-1.8c12.1,18.3,37.6,55.9,45,59c9.7,4,28.7-23.1,28.7-23.1
	l-2.4-42.1l-8.5,36.8L606,665.3l-17.4-18.6l-20.8-44.8l29.3-24.8l13.8-55.4l-12.5,14.6l-10.9,28.7l-9.3,8
	c-0.3-12.1-1.7-71.1-2.4-93.8c17.5-3,21.5-19.2,27.8-33.6l6.2,40.5l-2.4,28.7c0,0,6.5-29.1,7.7-32c1-2.2-6.3-28.9-9.7-41
	c2-4,4.3-7.8,7.3-10.9c0.1,0.3,0.3,0.6,0.4,0.9c3.5,7.9,9.2,21.2,13.9,34.6c1.3,3.6,2.5,7.2,3.6,10.8c1.3,4.2,2.4,8.3,3.2,12.1
	c0,25.9,0,25.9,0,25.9s2.7,8.7,5.7,19.3c4.3,15.2,9.2,34.3,7.7,37.7c-2.6,5.7-3.2,7.5-3.2,7.5l1.3,16.5l-4.2,9.3
	C640.9,605.4,650.5,666.5,650.1,668.3z"/>
<path fill="#FFFFFF" stroke="#000000" stroke-miterlimit="10" d="M616.5,835.8c-7.4,3-18.7,7.1-26.3,7.3
	c-10.3,0.4-43-17.1-52.7-22.4c-2-15-4.5-38.6-5.4-47.6c1.4,0.8,2.3,1.2,2.3,1.2l9.4-5.3l12.1-0.5L571,778l10-10.3l7.6,2.3
	c0.9,11.6,5.1,27.8,8.7,38.6c4.3,12.8,11.1,15,16.2,22.4C614.9,833,615.8,834.6,616.5,835.8z"/>
<path fill="#FFFFFF" stroke="#000000" stroke-miterlimit="10" d="M618.2,840.3C618.2,840.3,618.2,840.3,618.2,840.3
	c0,0.1-19.4,10.2-26.7,10.2c-6.8,0-42.3-14.8-50.8-17.2c-0.5-0.2-1-0.3-1.3-0.3c-0.5-1.9-1.2-6.4-2-12.2
	c9.7,5.3,42.4,22.7,52.7,22.4c7.6-0.3,18.9-4.3,26.3-7.3C618.2,838.8,618.3,840,618.2,840.3z"/>
<path fill="#FFFFFF" stroke="#000000" stroke-miterlimit="10" d="M623.6,880.7c-27.1-2-57.3-20-57.3-20s-13.1-0.2-19.8-5.9
	c-5.2-4.4-5.7-16.4-5.7-21.6c8.5,2.5,43.9,17.2,50.8,17.2c7.3,0,26.7-10.1,26.7-10.1s0,0,0-0.1c6.7,4.6,23.4,26.4,30.4,33.6
	C656.3,881.8,650.7,882.8,623.6,880.7z"/>
<path fill="#FFFFFF" stroke="#000000" stroke-miterlimit="10" d="M563.9,291.5c-7-2.8-53,15.7-55.6,17.1c-2.6,1.4-28.3-7.9-35-11.7
	c-2.9-1.7-6.2-5.3-8.9-8.8c0.3-0.7,0.5-1.4,0.6-1.9c0.8-3.9,9.3-31.5-2.7-45.9c8.3-1,21.1-0.3,34,7.7c8.7-3,22.7-5.7,48.4,0.8
	c0.4-0.1,0.9-0.3,1.3-0.4C551.7,253.4,563.1,266.4,563.9,291.5z"/>
<path fill="#FFFFFF" stroke="#000000" stroke-miterlimit="10" d="M645.2,526.7c-0.3,2.6-3.6,4.8-5.9,7.7c-3-10.6-5.7-19.3-5.7-19.3
	s0,0,0-25.9c-0.8-3.8-1.9-7.9-3.2-12.1c4.1,1.1,7.1,2.9,7.8,3.3c0.5,4.5,0.9,7.5,1,8c0.2,1.6,4.4,5.3,3.7,19.5
	C644.6,516.4,645.6,523.2,645.2,526.7z"/>
<path fill="#FFFFFF" stroke="#000000" stroke-miterlimit="10" d="M623.3,400.6c-5-1.1-12.9,4.5-16.5,7.4c-1.8-4.2-3.2-6.9-3.2-6.9
	s-3.6-4-3.2-6.1c0.2-1-0.3-5.6-0.8-10.2c4.7-4.6,12.5-13.2,13.8-21.5c1.4-9-1.8-24.6-3.6-32v0c0.6-1.9,1.2-4.3,1.8-7.3
	c0.7-3.5,0.6-6.7,0.2-9.6c1.5,0.9,3.4,0.9,5.4-1.8c-0.1,3-0.1,5.4,0.3,6.9c1.6,6.5,8.1,30.8,0,59.9
	C617.5,379.4,620.1,388.7,623.3,400.6z"/>
<path fill="#FFFFFF" stroke="#000000" stroke-miterlimit="10" d="M617.2,312.5c-1.9,2.7-3.8,2.7-5.4,1.8c-0.9-6.1-3.5-10.8-5.3-13.5
	c1.3-0.8,2.2-1.4,2.2-1.4c6.1-23.6-22.6-49.5-29.5-55.3c-0.3-0.4-0.6-0.8-0.9-1.2c3.9,0.5,8.4,1.5,13.6,3c0,0,17.4,8.3,23.1,26.1
	C619.4,285.8,617.6,302.6,617.2,312.5z"/>
<path fill="#FFFFFF" stroke="#000000" stroke-miterlimit="10" d="M608.8,299.4c0,0-0.9,0.6-2.2,1.4c-3.2,2-8.7,5.3-9.1,5.1
	c-0.6-0.4-27.1-11.1-33.4-14.4c-0.1,0-0.1-0.1-0.2-0.1c-0.7-25-12.2-38.1-18.1-43.2c11.8-3.7,18.7-7.2,32.6-5.2
	c0.3,0.4,0.6,0.8,0.9,1.2C586.2,250,614.9,275.9,608.8,299.4z"/>
<path fill="#FFFFFF" stroke="#000000" stroke-miterlimit="10" d="M599.1,373.9c-0.4,1.3,0,6.1,0.5,10.8c0.5,4.6,1,9.2,0.8,10.2
	c-0.4,2,3.2,6.1,3.2,6.1s2,33.6-29.9,32c-32-1.6-43.3-14-50.2-19.4s-18.6-20.6-37.2-21.2c0,0-1,0-2.2,0.4c0.3-4.7,1.7-8.1,3.1-10.3
	c-6-5.8-8.6-15-9.7-22.1v0c-0.3-1.9-0.5-3.6-0.6-5.1l9-4.9c0,0,23.5,0.3,38-15.4c14.6-15.7,23.5-25.9,45.6-23.2
	c21.7,2.6,32.8,17.8,36.2,27.2c-0.4,0.3-0.7,0.3-0.7,0.3S599.9,371.3,599.1,373.9z"/>
<path fill="#FFFFFF" stroke="#000000" stroke-miterlimit="10" d="M611.6,323.9c-0.6,3-1.2,5.4-1.8,7.3v0c-1.7,5.2-3.3,7.1-4.2,7.7
	c-3.5-9.5-14.5-24.6-36.2-27.2c-22.1-2.7-31,7.5-45.6,23.2c-14.6,15.6-38,15.4-38,15.4l-9,4.9l-4.1,2.2c-5.6-3.7-10.2-7.8-13.8-11.5
	c0.4-2.7,0.6-5.5,0.6-8.4c-0.1-20.6-4.8-32.8-4.8-32.8s7.3-10.8,9.7-16.8c2.8,3.6,6.1,7.2,8.9,8.8c6.7,3.8,32.4,13.2,35,11.7
	c2.6-1.4,48.6-19.8,55.6-17.1c0.1,0,0.1,0.1,0.2,0.1c6.3,3.2,32.8,14,33.4,14.4c0.4,0.3,5.9-3.1,9.1-5.1c1.8,2.7,4.4,7.4,5.3,13.5
	C612.3,317.2,612.3,320.5,611.6,323.9z"/>
<path fill="#FFFFFF" stroke="#000000" stroke-miterlimit="10" d="M639.3,471.3c-0.8-0.6-1.6-1.1-2.5-1.6v0c-3.4-1.9-7.1-2.9-10-3.3
	c-4.7-13.4-10.4-26.7-13.9-34.6c0-0.4,0-0.9,0-1.3c-0.3-5.2-1.8-10.9-3.6-15.8c2-1.8,7.6-6.4,15.8-7.1c0.7-0.1,1.4-0.1,2.2-0.1
	c4.2,11.4,9.5,33.4,11.1,43.3C639.4,457.7,639.6,465.5,639.3,471.3z"/>
<path fill="#FFFFFF" stroke="#000000" stroke-miterlimit="10" d="M639.3,471.3c-0.2,5-0.6,8.6-1,9.2c0,0-0.1,0-0.2-0.1
	c-0.7-0.4-3.7-2.2-7.8-3.3c-1.1-3.5-2.3-7.1-3.6-10.8c2.8,0.5,6.5,1.5,10,3.3v0C637.7,470.2,638.5,470.7,639.3,471.3z"/>
<path fill="#FFFFFF" stroke="#000000" stroke-miterlimit="10" d="M627.2,407.5c-0.7,0-1.5,0-2.2,0.1c-8.1,0.7-13.8,5.2-15.8,7.1
	c-0.9-2.5-1.8-4.8-2.6-6.7c3.6-2.8,11.6-8.5,16.5-7.4c0.2,0,0.4,0.1,0.6,0.2C624.8,401.6,626,404.1,627.2,407.5z"/>
<path fill="#FFFFFF" stroke="#000000" stroke-miterlimit="10" d="M450.8,409L450.8,409c-4.9-0.7-12-1.1-22.3-0.7
	c-11.4,0.4-19,1.7-24.3,3.4c-2.4,0.8-4.3,1.7-5.9,2.6c1.5-4.7,2.8-7.7,3.4-8.2c0.3-0.3,1.4-0.6,3-0.9c9.2-1.9,36.7-4.2,45-2.8
	c0.9,0.1,1.6,0.3,2,0.5c1.2,0.7,2.1,3.2,2.6,6.8C453.3,409.4,452.2,409.2,450.8,409z"/>
<path fill="#FFFFFF" stroke="#000000" stroke-miterlimit="10" d="M460.1,472.5c-1.1,0.9-0.7,0.6-1.9,0.5c-0.6-0.1-1.7-0.1-3.6,0.1
	c0,0-0.1,0-0.1,0c-5.7,0.5-24.3,22.7-33.2,25.6c-5.4,1.8-15.3-1.1-21.9-6.7c-4.7-4.1-7.6-10-8-16.2c0-0.2,0-0.4,0-0.6
	c2,2.7,4.8,5.9,8.2,8.6c3.3,2.5,7.1,4.5,11.4,5c14,1.6,25.6-19.2,31.8-22.1c3.2-1.5,8.7-2.5,13.3-3c0.4,0,0.7-0.1,1-0.1
	c0.6-0.1,1.2-0.1,1.8-0.2C460.1,468.1,460.8,472,460.1,472.5z"/>
<path fill="#FFFFFF" stroke="#000000" stroke-miterlimit="10" d="M459,463.2c-0.6,0.1-1.2,0.1-1.8,0.2c-0.3,0-0.7,0.1-1,0.1
	c-4.6,0.6-10.1,1.5-13.3,3c-6.2,3-17.8,23.7-31.8,22.1c-4.3-0.5-8.2-2.5-11.4-5c-3.4-2.7-6.2-5.9-8.2-8.6c-1.6-25.6,3.3-48.8,7-60.7
	v0c1.5-0.9,3.5-1.8,5.9-2.6c5.2-1.7,12.9-3,24.3-3.4c10.3-0.4,17.4,0,22.3,0.7v0c1.3,0.2,2.5,0.4,3.5,0.6c1.4,9.2,0.7,25,0.4,30.5
	c0,0,0,0,0,0c0,0.5,0,1-0.1,1.3c-0.1,1.2,0.3,3.5,0.9,6.4c0.6,2.9,1.4,6.3,2.1,9.7C458.2,459.5,458.7,461.4,459,463.2z"/>
<path fill="#FFFFFF" stroke="#000000" stroke-miterlimit="10" d="M488.1,189.2c0,0.5-0.1,0.7-0.1,0.7s-10,7.4-19.2,2.1
	c4.4-4,0.4-20.5-2-23.6c-0.1-0.1-0.2-0.3-0.3-0.4c-1.3-1.3-2.9-1.1-4.1-0.6c-0.1,0-0.3,0.1-0.4,0.2c0.2-0.4,0.3-0.7,0.4-0.8
	c0.5-0.4,2-1.6,3.6-2.8v0c1.9-1.4,3.9-2.8,3.9-2.8C489.4,159.8,488.4,184.6,488.1,189.2z"/>
<path fill="#FFFFFF" stroke="#000000" stroke-miterlimit="10" d="M527.6,152.1c0,0-4.2,7.8-12.9,8.9c-8.8,1.1-16.2-2.3-16.2-2.3
	L527.6,152.1z"/>
<path fill="#FFFFFF" stroke="#000000" stroke-miterlimit="10" d="M547.8,133.7c0,0-3.9,14-6.6,16.6c-2.7,2.6-5.3-1.4-5.3-1.4
	L547.8,133.7z"/>
<path fill="#FFFFFF" stroke="#000000" stroke-miterlimit="10" d="M526.8,180.6c-2.1,1-5.1,1.3-6.3-0.5c-1-1.6,0.4-5.2,0.8-6.3
	C521,174.9,520.4,178.7,526.8,180.6z"/>
<path fill="#FFFFFF" stroke="#000000" stroke-miterlimit="10" d="M542.7,161.6c-0.8-0.3-1.5-0.5-2.3-0.6c-0.8-0.1-1.5-0.1-2.2,0.1
	c-0.7,0.2-1.3,0.4-1.9,0.8c-0.6,0.4-1.1,0.9-1.5,1.4l-0.3,0.3l-0.4,0.1c-0.8,0.1-1.6,0.4-2.4,0.9c-0.7,0.5-1.4,1.1-2,1.8
	c-0.6,0.7-1.2,1.5-1.7,2.4c-0.5,0.9-1,1.7-1.5,2.7c0-1.1,0.2-2.1,0.4-3.1c0.3-1,0.7-2,1.3-3c0.6-0.9,1.3-1.8,2.3-2.5
	c0.9-0.6,1.9-1,2.9-1.2c0.2-0.2,0.4-0.4,0.7-0.6c0.4-0.3,0.7-0.6,1.2-0.7c0.8-0.5,1.8-0.7,2.7-0.7c0.9,0,1.8,0.2,2.6,0.6
	C541.5,160.5,542.2,161,542.7,161.6z"/>
<path fill="#FFFFFF" stroke="#000000" stroke-miterlimit="10" d="M458.9,346c-2.3,16.1-10.8,27.2-14.3,32.5c0.4,1,0.7,2.2,1,3.4
	c-5.2-5.7-11-13.2-13.6-20.8c-4-11.7,2.1-34.5,5-44.2c8.5-4.6,17.5-12,17.5-12s4.7,12.1,4.8,32.8C459.5,340.5,459.3,343.3,458.9,346
	z"/>
<path fill="#FFFFFF" stroke="#000000" stroke-miterlimit="10" d="M613.4,363.2c-1.3,8.3-9.1,16.9-13.8,21.5
	c-0.5-4.7-0.9-9.5-0.5-10.8c0.8-2.6,5.9-34.6,5.9-34.6s0.2,0,0.7-0.4c0.9-0.6,2.6-2.5,4.2-7.7C611.6,338.7,614.8,354.2,613.4,363.2z
	"/>
<path fill="#FFFFFF" stroke="#000000" stroke-miterlimit="10" d="M432,672.1c0,0-5.7,36.8-8.9,34.4c-3.2-2.4-14.6-25.1-14.6-25.1
	l14.2,2.8l2.8-21.4l-4.9-62.6v0l0.3-0.7C423.9,620.9,432,672.1,432,672.1z"/>
<path fill="#FFFFFF" stroke="#000000" stroke-miterlimit="10" d="M558.2,581.9c-11.3,28.7-72.4,68.8-77.3,66.8
	c-4.8-2-25.5-55-25.5-55s23.9,32.8,32,42.9C495.5,646.6,529.9,612.2,558.2,581.9z"/>
<path fill="#FFFFFF" stroke="#000000" stroke-miterlimit="10" d="M542.6,654.4c-0.9,1.6-29.8,54.3-36.6,62.3
	c-6.9,8.1-44.5,22.7-44.5,22.7l-15-21.4l-11.3-49.8l24.3,12.1c0,0,11.7,32.4,11.7,34.8c0,2.4,29.9-0.8,29.9-0.8L542.6,654.4z"/>
<path fill="#FFFFFF" stroke="#000000" stroke-miterlimit="10" d="M601.9,712.2l-4.5,17.8l-0.4-0.4c-3.5-3.9-32-35.7-37.3-67.6
	c-2.3-13.7-3.8-23-4.9-29.3v0l7.1-12.5l27.3,59.6L601.9,712.2z"/>
<path fill="#FFFFFF" stroke="#000000" stroke-miterlimit="10" d="M634.3,693.6c0,0,0,18.6-5.7,29.1c-5.7,10.5-41.7,30.3-41.7,30.3
	l-28.7-37.2l-6.5-33.2l45.4,47l0.4,0.4c0,0,2.8,0,17.8-9.7C630.2,710.6,634.3,693.6,634.3,693.6z"/>
<path fill="#FFFFFF" stroke="#000000" stroke-miterlimit="10" d="M505.7,430.2c-9.7,7.4-28.9,23.2-31.7,33.1
	c2.1-14.9,7.3-29.6,11.4-39.5C491.5,424.6,498.6,426.4,505.7,430.2z"/>
<path fill="#FFFFFF" stroke="#000000" stroke-miterlimit="10" d="M568.2,479.6l-3.9,39.1l-12.3-44.3
	C556.8,477.5,562.1,479.4,568.2,479.6z"/>
<path fill="#FFFFFF" stroke="#000000" stroke-miterlimit="10" d="M612.9,430.5c-0.1,0.1-0.2,0.2-0.4,0.4v0c-3,3.1-5.3,6.9-7.3,10.9
	c-0.6,1.2-1.2,2.5-1.8,3.8c-6.3,14.3-10.3,30.6-27.8,33.6c-0.1,0-0.1,0-0.2,0c-0.3,0.1-0.7,0.1-1,0.2c-0.3,0-0.5,0.1-0.8,0.1
	c-1.9,0.2-3.7,0.3-5.5,0.3c-6.1-0.2-11.4-2.1-16.3-5.2h0c-11.6-7.3-20.7-21.2-33.6-34.6c-4-4.1-8.3-7.3-12.7-9.6
	c-7-3.8-14.2-5.6-20.3-6.4c-4.2-0.5-7.9-0.6-10.7-0.5c0.5-0.8,1-1.4,1.5-2c-2.3-2.9-1.7-6-0.5-8.3c1.4-2.5,3.3-8.3,3.9-14.5
	c0.3-3.7,2.6-5.2,4.4-5.8c1.2-0.4,2.2-0.4,2.2-0.4c18.6,0.6,30.3,15.8,37.2,21.2s18.2,17.8,50.2,19.4c32,1.6,29.9-32,29.9-32
	s1.4,2.8,3.2,6.9c0.8,2,1.7,4.3,2.6,6.7C611,419.6,612.6,425.3,612.9,430.5z"/>
<path fill="#FFFFFF" stroke="#000000" stroke-miterlimit="10" d="M636.7,654.3c0,0-19,27.1-28.7,23.1c-7.3-3.1-32.9-40.7-45-59
	l0.6-1.1l-1.8-11l-1.4-8.4l3.8-3.6l3.5,7.6l20.8,44.8l17.4,18.6l19.8-16.2l8.5-36.8L636.7,654.3z"/>
<path fill="#FFFFFF" stroke="#000000" stroke-miterlimit="10" d="M610.8,521.6L597.1,577l-29.3,24.8l-3.5-7.6l2.7-2.5l0.8-0.7
	c0,0,0.4-3.8,1-10.3l9.2-7.8l9.3-8l10.9-28.7L610.8,521.6z"/>
<path fill="#FFFFFF" stroke="#000000" stroke-miterlimit="10" d="M568.8,580.7c-0.6,6.5-1,10.3-1,10.3l-0.8,0.7l-2.3-2.9l9.1-102.3
	C574.1,520.7,570.6,561.9,568.8,580.7z"/>
<path fill="#FFFFFF" stroke="#000000" stroke-miterlimit="10" d="M568.8,580.7c1.8-18.8,5.3-60,5-94.2v0l0.6-7.2
	c0.3,0,0.7-0.1,1-0.2c0.1,0,0.1,0,0.2,0c0.7,22.7,2.1,81.7,2.4,93.8L568.8,580.7z"/>
<path fill="#FFFFFF" stroke="#000000" stroke-miterlimit="10" d="M497.5,574.2l-11.3-66.8l21.8-52.2c-0.3,1.7-10.9,57-11.3,58.6
	C496.3,515.5,497.5,574.2,497.5,574.2z"/>
<path fill="#FFFFFF" stroke="#000000" stroke-miterlimit="10" d="M614.9,482.8c-1.2,2.8-7.7,32-7.7,32l2.4-28.7l-6.2-40.5
	c0.6-1.3,1.2-2.6,1.8-3.8C608.5,453.8,615.8,480.6,614.9,482.8z"/>
<path fill="#FFFFFF" stroke="#000000" stroke-miterlimit="10" d="M468.8,192c-9.4-5.6-7.8-20.4-7-22.9c0.2-0.7,0.4-1.2,0.6-1.5
	c1.3-0.5,2.8-0.8,4.1,0.6c0.1,0.1,0.2,0.2,0.3,0.4C469.3,171.5,473.2,188,468.8,192z"/>
<path fill="#FFFFFF" stroke="#000000" stroke-miterlimit="10" d="M463.3,167c0,0-0.3-0.2-0.8,0.5"/>
</svg>
