<?xml version="1.0" encoding="utf-8"?>
<!-- Generator: Adobe Illustrator 23.0.5, SVG Export Plug-In . SVG Version: 6.00 Build 0)  -->
<svg version="1.1" baseProfile="tiny" id="Layer_1" xmlns="http://www.w3.org/2000/svg" xmlns:xlink="http://www.w3.org/1999/xlink"
	 x="0px" y="0px" viewBox="0 0 1000 1000" xml:space="preserve">
<path fill="#FFFFFF" stroke="#231F20" stroke-miterlimit="10" d="M563.2,210c-1-1.4-2-2.7-2.9-3.7c-0.4-0.4-0.7-0.8-1.1-1.1
	c-2.1-1.8-4.1-2.3-6.5-0.6c-0.1,0.1-0.3,0.2-0.4,0.3c0,0,0.1,0,0.1,0.1c4.4,3.3,2.5,12,0.2,24.9c-1,5.8-4.1,11.3-7.2,15.7
	c-1.4,2-2.7,3.7-3.9,5.1c7.4-5.5,14.5-10.5,15.3-10.2c1.4,0.7,2,8,2,8s-2.1-2.1-3.4-2.1c-0.2,0-1.3,0.5-2.9,1.4
	c0,3-0.4,8.9-3.5,11.4c-4,3.3-21.4,4-23.4,4c-0.7,0.4-1.2,0.7-1.3,0.8c1.4-1.2,7.5-6,14-10.9c0.7-6.1,3.4-31.8,3.3-34.9
	c-0.2-3.6-6.6,0-6.6,0c-0.3,0.2-0.5,0.4-0.7,0.6c-0.4,0.3-0.7,0.6-1.1,0.8c-0.3,0.2-0.7,0.5-1,0.7c0,0-0.1,0.1-0.1,0.1
	c-0.1,0.1-0.2,0.1-0.3,0.2c-0.2,0.1-0.3,0.2-0.5,0.3c-0.2,0.1-0.4,0.2-0.6,0.3c-0.2,0.1-0.5,0.2-0.7,0.3c-0.2,0.1-0.4,0.2-0.6,0.2
	c-0.5,0.2-1,0.3-1.4,0.4c-0.1,0-0.3,0.1-0.4,0.1c-0.7,0.1-1.3,0.2-1.6,0.2c0,0,0,0,0,0h-0.1c-3.8,0.7-8,0.6-11-1.6
	c-0.4-0.3-0.7-0.6-1.1-0.9h0c-6.3,4.8-10.4,11.6-13.2,19.5c-0.9,2.5-1.6,5.2-2.2,7.9c7.4,6.7,16.2,15,16.7,15.4l-1.1-0.8l-0.3,0.5
	c0,0-0.4,2-1.4,2c-1.1,0-18.3-3.2-18.8-3.8c-0.4-0.5-4.9-13.1-5.7-15.4l-5.8-0.5c0,0,5-6.1,6.6-5.7c0.3,0.1,1.2,0.8,2.5,1.9
	c-1.8-8.6-2.9-17.6-2.2-20.2c0.8-2.8,5.1-9.6,8.7-15c-3.1-2-9.1-5.5-10.7-4.8c-0.5,0.2-1.4,1.8-2.5,4.2c-1.5,3.3-3.2,8.1-4.7,13.3
	c-0.9,3.2-1.8,6.5-2.4,9.7c-0.2,0.9-0.3,1.8-0.5,2.7c0,0.2,0,0.3-0.1,0.5c-0.3,2.2-0.5,4.3-0.4,6.1c0.1,2.4,0.4,4.7,0.9,7v0
	c0.1,0.6,0.3,1.2,0.4,1.8c0.1,0.3,0.1,0.5,0.2,0.8c0.2,1,0.5,1.9,0.8,2.8c0.1,0.4,0.3,0.8,0.4,1.2c1.2,3.7,2.5,7,3.5,9.7
	c0.6,1.8,1,3.3,1.1,4.5c0.1,1.9,0.7,4.4,1.5,7c1.3,4.2,3.3,8.4,4.7,10.1c0.8,0.9,3.3,3.4,6.5,6.4c6.5,6.2,15.8,14.5,18.1,15.4
	c3.4,1.3,9.3,1.4,13-1.1c2.9-2,12.2-11.1,17.8-16.7c1.5-1.5,2.8-2.8,3.6-3.6c0.7-0.7,1.8-2.6,3-5.2c1.2-2.5,2.6-5.6,4-8.9
	c2.3-5.5,4.8-11.5,6.5-15.9c1.1-2.7,2-4.9,2.4-6c0.2-0.4,0.3-0.7,0.3-0.8c0.1-0.1,0.1-0.5,0.2-1c0.1-0.9,0.2-2.2,0.3-3.9
	C566.2,231.9,566.1,213.9,563.2,210z M519.3,268.7l1.2-3.7l2.3,9.3l-1.8,1.4l-0.9,0.7l-2.7-2L519.3,268.7z M528.2,294.9
	c-4.5,5.1-15.1,4.4-17.5-1.4c-1.7-4-0.2-8.3,0.8-10.6c-0.4-0.3-0.7-0.5-0.7-0.5v-0.1c0-0.8,0.7-1.4,1.5-1.3c0.1,0,0.1,0,0.2,0
	c0.2,0.1,0.4,0.1,0.6,0.2c0.7,0.2,1.5,0.4,2.4,0.5c0.4,0.1,0.9,0.1,1.3,0.2c0.2,0,0.5,0.1,0.7,0.1c0.3,0,0.6,0,1,0h0.4
	c0.2,0,0.3,0,0.5,0c0.2,0,0.4,0,0.6,0c2.4-0.3,4.8-1.5,6.3-2.5c1.1-0.7,2.4-0.6,3.5,0.1l0.5,0.3c0,0-0.5,0.5-1.3,1.3
	C529.7,283.1,532.2,290.5,528.2,294.9z"/>
<path fill="#FFFFFF" stroke="#231F20" stroke-miterlimit="10" d="M513.8,261.8l-0.3,0.5c0,0-0.4,2-1.4,2c-1.1,0-18.3-3.2-18.8-3.8
	c-0.4-0.5-4.9-13.1-5.7-15.4l2.6,0.2l2.2,1.5c1.3,5.2,2.8,9.4,4.1,10.8c0.3-2.4,0.7-4.8,1.1-7.1l2.6,1.8l0,0l3.3,8l5.3,1.5l2.6-1.8
	h0L513.8,261.8z"/>
<polygon fill="#FFFFFF" stroke="#231F20" stroke-miterlimit="10" points="511.3,260 508.7,261.8 503.5,260.3 500.2,252.3 
	500.2,252.3 "/>
<path fill="#FFFFFF" stroke="#231F20" stroke-miterlimit="10" d="M528.2,294.9c-4.5,5.1-15.1,4.4-17.5-1.4c-1.7-4-0.2-8.3,0.8-10.6
	c0.6,0.4,1.5,1,2.7,1.5c-0.6,2.5-1.1,6.2,0.4,7.8c2.3,2.4,9.3,3.4,11.5-1.3c1.5-3.1,0.4-5.9-0.6-7.4c1.4-0.8,2.5-1.6,3.4-2.3
	C529.7,283.1,532.2,290.5,528.2,294.9z"/>
<path fill="#FFFFFF" stroke="#231F20" stroke-miterlimit="10" d="M552.5,247.7c0,3-0.4,8.9-3.5,11.4c-4,3.3-21.4,4-23.4,4
	c1.2-0.7,3.2-1.9,5.5-3.2h0l3,1.9l5.4-2.1l0.4-4.9h0C544.7,252.1,549.5,249.3,552.5,247.7z"/>
<path fill="#FFFFFF" stroke="#231F20" stroke-miterlimit="10" d="M646,265.4L646,265.4c-0.4-4.4-0.8-7.3-0.8-7.3s-17.8-1.4-21.4-0.6
	c-6.8-2.7-28.6-10.2-38-8.2c-2-1-4.3-2.2-6.5-3.3c-1.3-0.6-2.7-1.3-4-1.8c-0.8,2.1-1.9,4.5-3.2,7.1c-0.2,0.4-0.4,0.7-0.5,1.1
	c0.2,0.1,0.4,0.3,0.5,0.4c4,3.2,10.9,9.2,12.5,13.1c2.3,5.5,3.9,34.9,3.4,44.2c-0.2,3.8-0.7,6.2-1.2,7.6c0,0,0,0,0,0
	c-0.7,2-1.4,2.2-1.4,2.2s-0.4,9.8-13,25.5c-3.1,3.8-7.7,9.2-12.9,15.1c-5.7,6.5-12.1,13.7-18,20.3v0c-10.8,12-19.9,22-19.9,22
	s-7.5-5.3-17.1-12.8c-5.9-4.7-12.6-10.2-18.6-15.8c-8-7.4-15-15.1-17.9-21.3c-8.1-17-7.7-34.2-7.5-37.2v0c0-0.3,0-0.4,0-0.4
	c0,0.1-0.2,0.5-3-13.2v0c-0.1-0.6-0.2-1.2-0.4-1.8c-2.1-10.3,4.3-28.3,9.3-40.3c-1.2-1.7-1.9-4.1-2.3-6.8c-0.1-0.8-0.2-1.7-0.3-2.5
	c-19.7,0.4-49.5,2.4-62.9,10.5l-0.9,0c0.1,2.3,0.2,4.9,0.3,7.7c0.8,21.2,2,54.7,2.5,56.8c0.4,1.9,5.2,13.7,11.4,23.4v0
	c2,3.1,4,5.9,6.2,8.2c1.6,1.7,3.1,3,4.7,3.9c1,4.2,2.2,8.3,3.5,12.2c0.6,1.8,1.3,3.6,2,5.3c0,0,2.7,9.4,6.5,18.9
	c3.3,8.4,7.3,16.8,10.9,18.8c0,0.1,0,0.2,0,0.3c3.8,1.1,9.8,3.5,15.9,7.9c10.2,7.4,32.5,10.5,37.2,13.7c8.8,0.4,27.9-3.7,35.6-5.2
	c0,0,0,0,0,0c0.1,0,0.2,0,0.3-0.1c7.2-1.4,32.3-13.3,47.8-14.1c1.4-1.4,10.4-10.1,18.1-18.6c4.9-5.5,9.3-10.8,10.6-13.9
	c0.5-1.1,0.9-2.3,1.2-3.5c0,0,0,0,0,0c2.1-7.7,1.8-16.8,6.2-23.2c2.2-3.2,3.8-5.4,4.8-6.8v0c1.3-1.9,1.8-2.5,1.8-2.5s0.8-1.8,2-4.9
	c4.2-10.4,13.8-34.9,16.3-46.6C647.7,289,646.8,274.2,646,265.4z M429.7,308.1l7.1,22.4l-3.9,23.9l-2.5-21l-8.9-26.4l13.2-30.3
	l13.2-10L429.7,308.1z M592.5,345.8c20.3-51.7,6.1-83.8,6.1-83.8l14.3,21.7C612.8,283.8,606.4,312.6,592.5,345.8z"/>
<path fill="#FFFFFF" stroke="#231F20" stroke-miterlimit="10" d="M689.6,571.2c-22.8-6.6-46.5-9.4-66.8-10.4c-0.1,0-0.2,0-0.3,0
	c-8.2-0.4-15.8-0.5-22.6-0.5c0,0,0,0,0,0c-3.5,0-6.8,0.1-9.8,0.2h0c-2.6-1.5-18.6-9.4-52.4-1.9c6.4-16.4,47-56,47-56
	s-46.3,20.3-62.7,43.1c-3.3,4.6-6.5,10.6-9.4,17.1l-2.4-0.3l-97.7,15.3c0,0,54.2,5.3,59.9,6.8c5.7,1.4-17.8,3.2-31.7,13.2
	c-13.9,10-32.4,35.3-32.4,35.3l64.9-24.6c0,0-47.4,31.4-68.4,33.5l-28.9,33.2c0,0,21.4-2.7,72.6-23.7
	c-10.2,10.2-24.2,20.4-31.3,25.4h0L332.3,704c0,0,6.8-36.3,8.6-36.3c1.8,0-21.8-32.1-22.1-39.9c-0.3-5.8,25.3-29.3,38.6-41
	c32.8-12.2,69.9-23.4,93.6-22.4c0,0-56.3-9.5-119.2,14.2c23.4-22.2,90.4-85.6,91.7-88.1c0,0,22.8,24.5,38.9,25.5
	c14.1,0.9,45.7-9.4,52-11.5c-5.9,1.3-33.8,5.3-51.7,1.1c-19.6-4.6-31.8-23.8-31.8-23.8c-0.6-9.6,7.5-25.3,13.3-35.4
	c4,3.3,14.9,12.7,15.7,16.6c0.9,4.8,6.2,32.8,6.2,32.8s13.1-17.8,28.8-21.4c15.7-3.6,27.6-4.8,35.2-7.8c7.6-3.1,32.1-4,32.1-4
	s22-1.8,31.3-10.5c3.6,10.6,5.2,25.8,5.6,27.9c0.9-0.8,4.4,0,5.3,2.1c1.5-0.6,6.4,1.4,6.4,4.8c0,3.3-1.7,5.2-1.7,5.2l70.1,72.7
	C679.1,564.8,684.3,568,689.6,571.2z"/>
<path fill="#FFFFFF" stroke="#231F20" stroke-miterlimit="10" d="M536.5,433.2c-3.8,2.6-7.8,5.1-10.9,6.9c-1.6,0.9-3,1.6-3.9,2
	c-5.9,2.3-19,1.9-24.1,1.2c-5.1-0.7-20.3-3.1-28.5-8.7c-6.4-4.4-16.2-8.1-20.2-9.5c-0.3-2.8-0.6-5.7-1-8.2c3.8,1.2,9.8,3.5,15.9,7.9
	c10.2,7.4,32.5,10.5,37.2,13.7C509.8,438.7,528.9,434.7,536.5,433.2z"/>
<path fill="#FFFFFF" stroke="#231F20" stroke-miterlimit="10" d="M401.1,702.1c0.7,5.2-12.8,53-17.1,56.3
	c-4.3,3.3-29,15.4-35.4,14.7c-0.9-0.1-1.8-0.1-2.7-0.1c-5.2,0.2-10,2.6-20.1,6.1c-11.9,4-10.2,6.6-28-0.5
	c-13.7-5.5-18.1-13.5-20.4-19.3c15.9-0.9,61-4.3,78.5-15.1c17.3-10.7,31.2-30.3,45.7-42.7C401.3,701.8,401.2,702,401.1,702.1z"/>
<path fill="#FFFFFF" stroke="#231F20" stroke-miterlimit="10" d="M417.1,676.9c-2.8,2-4.6,3.2-4.6,3.2s-0.7,1.6-1.7,3.9
	c-15.9,8.6-75.6,41.1-80.3,43.5c-5.3,2.8-27.1,5.7-27.1,5.7s-27.2-46.1-12.9-105.5l0.4-0.7c0,0,3.4-7.9,6.7-15.5
	c11.9-5.4,34.5-15.4,59.7-24.8c-13.3,11.7-38.9,35.2-38.6,41c0.4,7.8,23.9,39.9,22.1,39.9c-1.8,0-8.6,36.3-8.6,36.3L417.1,676.9z"/>
<path fill="#FFFFFF" stroke="#231F20" stroke-miterlimit="10" d="M410.8,684c-2.4,5.2-6.6,14.3-9.2,17.6c0,0,0,0-0.1,0.1
	c-14.5,12.3-28.3,32-45.7,42.7c-17.5,10.8-62.7,14.2-78.5,15.1c-0.7-1.7-1.2-3.3-1.7-4.5c-2.1-5.2-8.9-8.1-8.9-8.1
	s-8.6-34.9-9.6-46.3c-1.1-11.4,20-41,20-41l3.9-16l9.5-15.7c-14.3,59.4,12.9,105.5,12.9,105.5s21.7-2.8,27.1-5.7
	C335.1,725.1,394.9,692.6,410.8,684z"/>
<path fill="#FFFFFF" stroke="#231F20" stroke-miterlimit="10" d="M451,564.3c-23.7-1-60.9,10.2-93.6,22.4
	c-25.2,9.4-47.9,19.4-59.7,24.8c2.8-6.4,5.5-12.6,6.2-13.8c1.4-2.5,20-11.8,20-11.8s3-2.9,8-7.6c0,0,0,0,0,0
	C394.7,554.8,451,564.3,451,564.3z"/>
<path fill="#FFFFFF" stroke="#231F20" stroke-miterlimit="10" d="M603.5,588.2c-14-17.7-16.5-24.2-16-26.5c0.4-1.4,2.3-1.2,2.5-1.2
	c-2.6-1.5-18.6-9.4-52.4-1.9c6.4-16.4,47-56,47-56s-46.3,20.3-62.7,43.1c-3.3,4.6-6.5,10.6-9.4,17.1c-4.8,10.7-8.9,22.9-12.1,33.5
	c7.4-7.8,12.6-13.2,12.6-13.2s35.5,39.9,57.7,61.9c35.2,8.1,88.4,2.6,88.4,2.6S628.8,620.2,603.5,588.2z"/>
<path fill="#FFFFFF" stroke="#231F20" stroke-miterlimit="10" d="M744.1,655.7c0,12-1.3,29-6.6,46.5c-29.6,22.4-65.8,22.3-66.9,22.3
	c-0.7-0.7-26.5-21-51.7-28.8c-0.1-2.5,0-4.1,0-4.1c-7.8-8.9-7.5-16.4-7.5-16.4s-12.5-8.5-25.7-16.8c-3-1.9-8.4-6.8-15-13.3
	c35.2,8.1,88.4,2.6,88.4,2.6s-30.3-27.5-55.6-59.5c-14-17.7-16.5-24.2-16-26.5c0,0,0,0,0.1,0c0.1,0,0.4,0,0.7,0.1
	c0.2,0,0.4,0,0.6,0.1c0,0,0,0,0,0c0.1,0,0.2,0,0.3,0c0.2,0,0.4,0,0.6,0.1c0.2,0,0.4,0,0.6,0.1c0.1,0,0.2,0,0.4,0
	c0.2,0,0.3,0,0.5,0.1c0.3,0,0.6,0.1,0.9,0.1c0.2,0,0.5,0.1,0.7,0.1c0.6,0.1,1.3,0.2,2.1,0.3c0.2,0,0.4,0,0.5,0.1
	c0.7,0.1,1.3,0.2,2.1,0.3c0.2,0,0.4,0.1,0.6,0.1c0.1,0,0.2,0,0.3,0.1c0.6,0.1,1.1,0.2,1.7,0.3c0.6,0.1,1.1,0.2,1.7,0.3
	c0.6,0.1,1.3,0.2,1.9,0.3c1.9,0.3,3.8,0.7,5.9,1.1c0.4,0.1,0.7,0.1,1.1,0.2c3.6,0.7,7.5,1.5,11.6,2.4c0.7,0.1,1.3,0.3,2,0.4
	c0.1,0,0.1,0,0.2,0c0.4,0.1,0.7,0.2,1.1,0.2c4.7,1.1,9.7,2.3,14.9,3.6c0.6,0.2,1.3,0.3,1.9,0.5c1.8,0.5,3.6,1,5.4,1.5
	c1.7,0.5,3.3,0.9,5,1.4c1.7,0.5,3.4,1,5.1,1.5c1.6,0.5,3.2,1,4.9,1.5c0.3,0.1,0.5,0.2,0.8,0.3c1.5,0.5,3,1,4.5,1.5
	c0.9,0.3,1.9,0.6,2.8,1c0.8,0.3,1.7,0.6,2.5,0.9c3.8,1.3,7.5,2.7,11.3,4.2c0.7,0.3,1.5,0.6,2.2,0.9c0.9,0.3,1.7,0.7,2.6,1.1
	c2.6,1.1,5.2,2.2,7.8,3.4c4.3,1.9,8.5,4,12.7,6.1c1,0.5,1.9,1,2.9,1.5v0c0.6,1.1,1.2,2.1,1.8,3c8.8,8.1,10.5,27.1,10.5,27.1
	l13.1,13.1l1.2,7.6C739.4,650.1,741.3,652.3,744.1,655.7z"/>
<path fill="#FFFFFF" stroke="#231F20" stroke-miterlimit="10" d="M737.5,702.1c-7.1,23.3-21.4,47.5-49.6,62
	c-5.4-1.9-12.9-4.2-20.6-6.5c-15.6-4.6-31.7-9-32.4-9.5c-1.1-0.7-6.4-23.2-11.4-31c-3.5-5.5-4.4-15.8-4.6-21.6
	c25.2,7.9,51,28.1,51.7,28.8c0,0,0,0,0,0c0,0,0,0,0,0v0C671.7,724.5,707.8,724.5,737.5,702.1z"/>
<path fill="#FFFFFF" stroke="#231F20" stroke-miterlimit="10" d="M767.5,685.7c0,2.4-12.1,47.8-12.1,47.8s-4.3,2.6-5.5,2.8
	c-0.4,0.1-0.9,1.1-1.6,2.6c0,0,0,0,0,0c-1.1,2.5-2.4,6.5-4.4,10.3c-3.1,5.9-6.7,7.4-11.4,6.9c-4.8-0.5-10.2,5.7-16.9,8.3
	c-6.7,2.6-10.2,6.7-23.3,1.4c-1.3-0.5-2.8-1.1-4.5-1.7c28.2-14.5,42.5-38.7,49.6-62c5.4-17.5,6.6-34.5,6.6-46.5
	C752.1,665.2,767.5,684,767.5,685.7z"/>
<path fill="#FFFFFF" stroke="#231F20" stroke-miterlimit="10" d="M622.4,560.7c-8.2-0.4-15.8-0.5-22.6-0.5
	C605.3,560,612.7,560.1,622.4,560.7z"/>
<path fill="#FFFFFF" stroke="#231F20" stroke-miterlimit="10" d="M712.9,599.3c-1-0.5-1.9-1-2.9-1.5c-4.2-2.2-8.4-4.2-12.7-6.1
	c-2.6-1.2-5.2-2.3-7.8-3.4c-0.9-0.4-1.7-0.7-2.6-1.1c-0.7-0.3-1.5-0.6-2.2-0.9c-3.8-1.5-7.5-2.9-11.3-4.2c-0.8-0.3-1.7-0.6-2.5-0.9
	c-0.9-0.3-1.9-0.6-2.8-1c-1.5-0.5-3-1-4.5-1.5c-0.3-0.1-0.5-0.2-0.8-0.3c-1.6-0.5-3.3-1-4.9-1.5c-1.7-0.5-3.4-1-5.1-1.5
	c-1.7-0.5-3.4-1-5-1.4c-1.8-0.5-3.6-1-5.4-1.5c-0.7-0.2-1.3-0.3-1.9-0.5c-5.2-1.4-10.2-2.5-14.9-3.6c-0.4-0.1-0.7-0.2-1.1-0.2
	c-0.1,0-0.1,0-0.2,0c-0.6-0.2-1.3-0.3-2-0.4c-4.1-0.9-8-1.7-11.6-2.4c-0.4-0.1-0.7-0.1-1.1-0.2c-2.1-0.4-4.1-0.8-5.9-1.1
	c-0.7-0.1-1.3-0.2-1.9-0.3c-0.6-0.1-1.2-0.2-1.7-0.3c-0.6-0.1-1.2-0.2-1.7-0.3c-0.1,0-0.2,0-0.3-0.1c-0.2,0-0.4-0.1-0.6-0.1
	c-0.7-0.1-1.4-0.2-2.1-0.3c-0.2,0-0.4-0.1-0.5-0.1c-0.8-0.1-1.5-0.2-2.1-0.3c-0.3,0-0.5-0.1-0.7-0.1c-0.3,0-0.6-0.1-0.9-0.1
	c-0.2,0-0.3,0-0.5-0.1c-0.1,0-0.2,0-0.4,0c-0.2,0-0.4-0.1-0.6-0.1c-0.2,0-0.4,0-0.6-0.1c-0.1,0-0.2,0-0.3,0c0,0,0,0,0,0
	c-0.2,0-0.4,0-0.6-0.1c-0.3,0-0.6-0.1-0.7-0.1c-0.1,0-0.1,0-0.1,0c0.4-1.4,2.3-1.2,2.5-1.2h0c3-0.1,6.3-0.2,9.8-0.2c0,0,0,0,0,0
	c6.8-0.1,14.4,0.1,22.6,0.5c0.1,0,0.2,0,0.3,0c20.3,1,44.1,3.8,66.8,10.4c4,2.4,8,4.9,9.7,5.9C702.9,579.2,708.2,590.9,712.9,599.3z
	"/>
<path fill="#FFFFFF" stroke="#231F20" stroke-miterlimit="10" d="M512.5,562.8c-4.8,10.7-8.9,22.9-12.1,33.5l0,0
	c-15,15.7-39.1,41.1-48.4,51.3c-1.1,1.3-2.3,2.5-3.6,3.8c0,0,0,0,0,0c-51.2,20.9-72.6,23.7-72.6,23.7l28.9-33.2
	c21-2.1,68.4-33.5,68.4-33.5l-64.9,24.6c0,0,18.5-25.3,32.4-35.3c13.9-10,37.4-11.8,31.7-13.2c-5.7-1.4-59.9-6.8-59.9-6.8l97.7-15.3
	L512.5,562.8z"/>
<path fill="#FFFFFF" stroke="#231F20" stroke-miterlimit="10" d="M584.4,431.1c-6.1,1.9-21.9,6.8-24.6,7.9c-3.5,1.4-15.5,5-20.3,5.7
	c-4.9,0.7-7.4,1-13.1,1.9c-5.7,0.9-25.5,1.2-32.8,1.9c-0.2,0-0.4,0-0.6,0.1c-5,0.5-7.9,1.3-11,0.7c-1.1-0.2-2.2-0.5-3.4-1
	c-4.9-2.1-10.7-7.6-17.6-10.7c-4-1.8-8.4-3.8-11.4-5.2c-0.2-2.1-0.4-4.7-0.7-7.4c4,1.4,13.8,5.1,20.2,9.5c8.2,5.6,23.4,8,28.5,8.7
	c5.1,0.7,18.2,1.1,24.1-1.2c0.9-0.4,2.3-1,3.9-2c3.2,0.4,8.4,0.9,13,0.1c6.9-1.3,15.3-7.3,21.9-8.4c5.8-1.1,19.1-4.9,23.9-7.5
	C584.4,426.3,584.4,428.7,584.4,431.1z"/>
<path fill="#FFFFFF" stroke="#231F20" stroke-miterlimit="10" d="M584.6,436.6c-0.5,0.3-1.1,0.7-1.7,1c-5.1,3-5.3,2-12.4,3.2
	c-7,1.2-12.7,5.7-20.6,8.9c-7.8,3.2-13.1,2.9-23,3.6c-10,0.7-15.6-0.8-20.7-1.4c-3.1-0.3-9-2-13.2-3.3c0.2,0,0.4,0,0.6-0.1
	c7.3-0.7,27.1-1,32.8-1.9c5.7-1,8.2-1.2,13.1-1.9c4.9-0.7,16.9-4.3,20.3-5.7c2.8-1.1,18.5-6,24.6-7.9
	C584.5,433,584.5,434.9,584.6,436.6z"/>
<path fill="#FFFFFF" stroke="#231F20" stroke-miterlimit="10" d="M584.7,419c-0.1,0.1-0.2,0.2-0.2,0.2s-0.1,2.1-0.1,5
	c-4.8,2.5-18.1,6.4-23.9,7.5c-6.5,1.2-15,7.1-21.9,8.4c-4.6,0.9-9.8,0.3-13-0.1c3-1.8,7-4.3,10.9-6.9c0,0,0,0,0,0
	c0.1,0,0.2,0,0.3-0.1C544.1,431.7,569.2,419.8,584.7,419z"/>
<path fill="#FFFFFF" stroke="#231F20" stroke-miterlimit="10" d="M593.3,452.1c-9.4,8.7-31.3,10.5-31.3,10.5s-24.5,1-32.1,4
	c-7.6,3.1-19.5,4.3-35.2,7.8c-15.7,3.6-28.8,21.4-28.8,21.4s-5.2-28-6.2-32.8c-0.8-3.9-11.7-13.3-15.7-16.6c3.3-5.6,5.9-9.5,5.9-9.5
	s0-0.1,0-0.4c9,3.3,13.9,8.3,16.9,11.2c3.6,3.3,4.8,2,11.3,2.9c1.2,0.2,2.4,0.5,3.5,0.9c4.9,1.8,9,5.6,14.1,6.6
	c6.3,1.2,23.9,0,23.9,0s15.3,2.5,32.1,0.2c12.9-1.7,27.8-11.9,33.9-16.5C588.8,442.1,591.3,446.4,593.3,452.1z"/>
<path fill="#FFFFFF" stroke="#231F20" stroke-miterlimit="10" d="M571.2,245.1c-0.2,1.6-0.9,3.6-1.8,5.6c-0.8,1.8-1.8,3.7-2.9,5.5
	c-3.3,5.6-7,10.5-7,10.5l-3.6,1.6c2.3-5.5,4.8-11.5,6.5-15.9c1.1-2.7,2-4.9,2.4-6C566.8,245.3,569.9,244,571.2,245.1z"/>
<path fill="#FFFFFF" stroke="#231F20" stroke-miterlimit="10" d="M586.8,317.8c-0.7,2-1.5,2.2-1.5,2.2s-0.4,9.8-13,25.5
	c-3.1,3.8-7.7,9.2-12.9,15.1c-21.3,8.4-57.8,12.4-73.6,13.7c-8-7.4-15-15.1-17.9-21.3c-8.1-17-7.7-34.2-7.5-37.2
	c5.2,7.6,15,21.9,17.1,23.9c2.9,2.7,17.8,16,42.1,16c24.2,0.1,40-11.1,47.6-17.3C572.6,334,580.7,325.5,586.8,317.8z"/>
<path fill="#FFFFFF" stroke="#231F20" stroke-miterlimit="10" d="M541.5,380.8c-10.8,12-19.9,22-19.9,22s-7.5-5.3-17.1-12.8
	L541.5,380.8z"/>
<path fill="#FFFFFF" stroke="#231F20" stroke-miterlimit="10" d="M559.5,360.5c-5.7,6.5-12.1,13.7-18,20.3v0l-37,9.2
	c-5.9-4.7-12.6-10.2-18.6-15.8C501.7,372.9,538.2,369,559.5,360.5z"/>
<path fill="#FFFFFF" stroke="#231F20" stroke-miterlimit="10" d="M521.5,340.3c-14.9-0.1-31.5-1.2-36.3-5.3
	c-7.3-6.3-17.2-19.7-21.9-29.8c3.1,2,7,4.3,9.8,5.3c4.4,1.6,17.4,1.8,36.5,12.2c3.5,1.9,7.2,4.2,11.2,6.9L521.5,340.3z"/>
<path fill="#FFFFFF" stroke="#231F20" stroke-miterlimit="10" d="M545.2,285.9l-12.9,38c-5,2.3-8.9,4.4-11.1,6.1
	c-0.2-0.1-0.4-0.3-0.6-0.4c-3.9-2.7-7.6-5-11.2-6.9c-2.1-4.4-10.3-21.7-11.5-25.1c-0.8-2.1-1.3-6-1.7-9.2
	c6.5,6.2,15.8,14.5,18.1,15.4c3.4,1.3,9.3,1.4,13-1.1C530.3,300.7,539.6,291.5,545.2,285.9z"/>
<path fill="#FFFFFF" stroke="#231F20" stroke-miterlimit="10" d="M576.2,311.7c-0.3,2.2-0.7,3.8-1.1,4.4c-2.6,4-22.5,23.2-27.8,23.5
	c-2.4,0.2-13.6,0.8-25.9,0.7l-0.8-10.7c0.2,0.1,0.4,0.3,0.6,0.4c2.2-1.7,6.1-3.8,11.1-6.1C544.7,318.2,563.2,312,576.2,311.7z"/>
<path fill="#FFFFFF" stroke="#231F20" stroke-miterlimit="10" d="M509.5,322.7c-19.1-10.4-32.1-10.6-36.5-12.2
	c-2.7-1-6.7-3.3-9.8-5.3c-0.9-1.8-1.5-3.5-2-5.1c-1.8-5.8,3.5-22.6,8.3-35.8c3.7,4.5,7,7.4,10.2,8.3c2.2,0.6,4-0.1,5.3-0.8
	c1.3,4.2,3.3,8.4,4.7,10.1c0.8,0.9,3.3,3.4,6.5,6.4c0.4,3.2,1,7.1,1.7,9.2C499.3,301,507.5,318.3,509.5,322.7z"/>
<path fill="#FFFFFF" stroke="#231F20" stroke-miterlimit="10" d="M552.6,229.9c-1,5.8-4.1,11.3-7.2,15.7c0.8-7.2,3.3-30,3.1-34.7
	c0-1.2-0.4-2-0.8-2.7c-1.2-1.6-3.4-1.9-4.7-1.9c2.1-1,4.1-1.7,5.9-2c1.4-0.2,2.6,0,3.4,0.5c0,0,0.1,0,0.1,0.1
	C556.8,208.3,555,217,552.6,229.9z"/>
<path fill="#FFFFFF" stroke="#231F20" stroke-miterlimit="10" d="M545.5,245.6c-1.4,2-2.7,3.7-3.9,5.1c-2,2.4-3.5,3.8-3.5,3.8
	s0-0.5,0.1-1.3c0.7-6.1,3.4-31.8,3.3-34.9c-0.2-3.6-6.6,0-6.6,0c-0.3,0.2-0.5,0.4-0.7,0.6c-0.4,0.3-0.7,0.6-1.1,0.8
	c-0.3,0.2-0.7,0.5-1,0.7c0,0-0.1,0.1-0.1,0.1c-0.1,0.1-0.2,0.1-0.3,0.2c-0.2,0.1-0.3,0.2-0.5,0.3c-0.2,0.1-0.4,0.2-0.6,0.3
	c-0.2,0.1-0.5,0.2-0.7,0.3c-0.2,0.1-0.4,0.2-0.6,0.2c-0.5,0.2-1,0.3-1.4,0.4c-0.1,0-0.3,0.1-0.4,0.1c-0.7,0.1-1.3,0.2-1.6,0.2
	c0,0,0,0,0,0h-0.1c-0.3,0-0.5,0-0.5,0s0.9-1.3,2.3-3.1c0.9-1.2,2-2.7,3.2-4.2c1-1.2,3.2-3.1,5.9-5c2-1.3,4.2-2.6,6.4-3.7
	c1.3,0,3.5,0.3,4.7,1.9c0.5,0.6,0.8,1.5,0.8,2.7C548.8,215.5,546.3,238.3,545.5,245.6z"/>
<path fill="#FFFFFF" stroke="#231F20" stroke-miterlimit="10" d="M580.8,183.8c-9,8.9-16.7,17.9-20.5,22.5c-0.4-0.4-0.7-0.8-1.1-1.1
	c2.9-6.9,7.3-19.8,7.4-33c0-8.2-2.7-17.1-6.4-25.3v0c1.3-3.5,3.4-9.3,6.5-15.8c2.8-6.2,6.5-13.1,10.8-19.5
	C576.2,119.2,583.6,159.5,580.8,183.8z"/>
<path fill="#FFFFFF" stroke="#231F20" stroke-miterlimit="10" d="M591.1,174.4c-3.5,3-7,6.2-10.3,9.4c2.8-24.3-4.6-64.6-3.3-72.2
	c0,0,7.7,25.5,11.2,38.1C590.8,157.2,591.2,167.1,591.1,174.4z"/>
<path fill="#FFFFFF" stroke="#231F20" stroke-miterlimit="10" d="M602,166.3c-0.2,2-0.4,4.6-0.7,7.6c0,0,0,0,0,0
	c-6.5,23-21.5,56.5-28.2,65c-1.3,0.7-2.7,1.7-4.1,2.8c-1.1-0.4-2.2-0.7-3.3-0.9c0.5-8.8,0.4-26.8-2.5-30.8c-1-1.4-2-2.7-2.9-3.7
	c3.8-4.6,11.5-13.7,20.5-22.5c3.3-3.2,6.8-6.4,10.3-9.4C594.7,171.3,598.4,168.5,602,166.3z"/>
<path fill="#FFFFFF" stroke="#231F20" stroke-miterlimit="10" d="M601.3,173.9c-1.4,13.3-4.7,34.8-11.3,46.8c-0.3,0.5-0.6,1-0.9,1.5
	c-5.4,9.6-9.9,15.5-12.8,18.9c0.4-1.4,0.5-2.4,0.1-2.7c-0.6-0.6-1.9-0.2-3.4,0.5C579.8,230.4,594.8,196.9,601.3,173.9z"/>
<path fill="#FFFFFF" stroke="#231F20" stroke-miterlimit="10" d="M607.4,212.5c0,0-18.7,25.2-28.2,33.6c-1.3-0.6-2.6-1.3-4-1.8
	c0.5-1.2,0.8-2.2,1-3.1c2.9-3.3,7.4-9.3,12.8-18.9L607.4,212.5z"/>
<path fill="#FFFFFF" stroke="#231F20" stroke-miterlimit="10" d="M519.3,196.2c-4,0.3-12.2,2.2-16.6,13.7
	c-2.4,6.4-3.6,15.7-2.2,29.4c-0.9,2.5-1.6,5.2-2.2,7.9c-0.3,1.1-0.5,2.2-0.7,3.3c-0.5,2.3-0.8,4.7-1.1,7.1
	c-1.3-1.4-2.8-5.6-4.1-10.8c-0.5-1.9-1-4-1.4-6c-1.8-8.6-2.9-17.6-2.2-20.2c0.8-2.8,5.1-9.6,8.7-15c1.1-1.7,2.2-3.3,3.1-4.5
	c1.3-1.8,2.1-3,2.1-3s3.4-3.6,9.6-3.7c1.3,0,2.8,0.1,4.3,0.5C517.6,195.1,518.5,195.6,519.3,196.2z"/>
<path fill="#FFFFFF" stroke="#231F20" stroke-miterlimit="10" d="M548.9,204.4c-1.7,0.2-3.8,1-5.9,2c-2.2,1-4.4,2.3-6.4,3.7
	c10.7-19.8,6.4-67.8,6.4-67.8s-14,31.8-16.9,38c-1.9,4.1-3.8,12.8-4.9,18.1c-0.6-0.8-1.3-1.6-2.1-2.2c-0.8-0.6-1.8-1.1-2.8-1.3
	c-1.6-0.4-3-0.5-4.3-0.5c-0.1-3,0.2-8.7,2.7-15.2c0.7-1.7,1.5-3.5,2.5-5.4c2.4-4.4,5.9-10,9.6-16.3c0.3-0.5,0.6-1,0.8-1.4
	c0.3-0.5,0.6-1,0.8-1.5c1.5-2.6,3-5.3,4.4-8c0.4-0.7,0.8-1.5,1.1-2.2c0.3-0.7,0.7-1.3,1-2c1.5-3.2,3-6.3,4.2-9.5
	c0.3-0.8,0.6-1.5,0.9-2.3v0c0.3-0.8,0.5-1.5,0.8-2.3c0.1-0.4,0.3-0.8,0.4-1.2c0.1-0.4,0.2-0.8,0.4-1.2c0.5-1.5,0.8-3,1.2-4.5
	c0,0,0,0,0.1,0.1c0,0.1,0.1,0.1,0.2,0.3C545.6,124.3,559.3,142.2,548.9,204.4z"/>
<path fill="#FFFFFF" stroke="#231F20" stroke-miterlimit="10" d="M512.2,194.4c-6.2,0.1-9.6,3.7-9.6,3.7s-0.8,1.2-2.1,3
	c-2.8-2.7-7.2-7.2-12.1-12.8c1.5-10.9,5.5-35.5,13.1-47.8c0,8,9.1,29.3,13.3,38.8C512.4,185.7,512.1,191.4,512.2,194.4z"/>
<path fill="#FFFFFF" stroke="#231F20" stroke-miterlimit="10" d="M530.6,63.4c-0.9,17.6-10.1,51.7-14.8,68.2
	c3.5,11.9,8.6,21.4,11.2,25.9c0.3-0.5,0.6-1,0.8-1.4c0.3-0.5,0.6-1,0.8-1.5c1.5-2.6,3-5.3,4.4-8c0.4-0.7,0.8-1.5,1.1-2.2
	c0.3-0.7,0.7-1.3,1-2c1.5-3.2,3-6.3,4.2-9.5c0.3-0.8,0.6-1.5,0.9-2.3v0c0.3-0.8,0.5-1.5,0.8-2.3c0.1-0.4,0.3-0.8,0.4-1.2
	s0.2-0.8,0.4-1.2c0.5-1.5,0.8-3,1.2-4.5c0,0,0,0,0.1,0.1c0,0.1,0.1,0.1,0.2,0.3c4.9,4.5,11.9,14.2,17,25.2c1.3-3.5,3.5-9.3,6.5-15.9
	C559,115.4,539.1,75.3,530.6,63.4z M533.1,104.2l-0.4-32.7c0,0,22.5,47.5,26.1,61.9C552.8,119.6,533.1,104.2,533.1,104.2z"/>
<path fill="#FFFFFF" stroke="#231F20" stroke-miterlimit="10" d="M566.6,172.3c-0.1,13.2-4.5,26.1-7.4,33c-2.1-1.8-4.1-2.3-6.5-0.6
	c-0.1,0.1-0.3,0.2-0.4,0.3c-0.8-0.6-2-0.7-3.4-0.5c10.4-62.2-3.4-80.1-5.7-82.6c4.9,4.5,11.9,14.2,17,25.2v0
	C564,155.2,566.7,164.1,566.6,172.3z"/>
<path fill="#FFFFFF" stroke="#231F20" stroke-miterlimit="10" d="M527,157.5c-3.7,6.3-7.2,11.9-9.6,16.3c-1,1.8-1.8,3.6-2.5,5.4
	c-4.2-9.5-13.3-30.8-13.3-38.8c-7.6,12.4-11.7,36.9-13.1,47.8c-2.5-2.9-5.1-6-7.7-9.4c-0.7-12.1,0.8-22.9,4.2-32.8v0
	c4.5-13,12.4-24.5,23-35.5c1.3-1.4,2.7-2.7,4.1-4.1c-0.1,8.9,1.5,17.5,3.7,25.2C519.3,143.4,524.3,153,527,157.5z"/>
<path fill="#FFFFFF" stroke="#231F20" stroke-miterlimit="10" d="M500.6,201c-0.9,1.3-1.9,2.8-3.1,4.5c-3.1-2-9.1-5.5-10.7-4.8
	c-0.5,0.2-1.4,1.8-2.5,4.2c-9-11.3-22.7-44.5-22.7-44.5s-0.7,14.7,0.5,26.4c1,9.4,12.8,25.5,17.4,31.5c-0.9,3.2-1.8,6.5-2.4,9.7
	c-2.7-4.3-7.2-11.6-11.6-19.3c-5.3-9.1-10.5-18.8-12.5-24.5c-0.4-1.1-0.7-2.4-0.9-3.8c-2.7-16.3,3.1-53.2,3.1-53.2
	s-0.3,2.4,6.6,18.5c0.1,0.3,0.3,0.7,0.4,1c1.1,2.6,2.4,5.5,3.9,8.8c3.8,8.2,9.1,16.3,14.6,23.4c2.6,3.4,5.2,6.6,7.7,9.4
	C493.4,193.8,497.8,198.3,500.6,201z"/>
<path fill="#FFFFFF" stroke="#231F20" stroke-miterlimit="10" d="M507.9,110.5c-10.6,11-18.5,22.5-23,35.5c-1-3.1-1.9-7.3-2-12.2
	c-0.1-4.3,0.4-9.1,2.1-14.2c0.1-0.3,0.2-0.7,0.3-1v0c5.9-16.9,18-36.8,18-36.8S505.5,97.7,507.9,110.5z"/>
<path fill="#FFFFFF" stroke="#231F20" stroke-miterlimit="10" d="M484.3,204.9c-1.5,3.3-3.2,8.1-4.7,13.3
	c-4.6-5.9-16.5-22.1-17.4-31.5c-1.2-11.6-0.5-26.4-0.5-26.4S475.3,193.5,484.3,204.9z"/>
<path fill="#FFFFFF" stroke="#231F20" stroke-miterlimit="10" d="M536.7,210c-2.7,1.8-4.9,3.7-5.9,5c-1.2,1.5-2.3,2.9-3.2,4.2
	c-0.4-4.1-1.8-15-6.2-20.8c1.1-5.3,3-14,4.9-18.1c2.9-6.2,16.9-38,16.9-38S547.4,190.2,536.7,210z"/>
<path fill="#FFFFFF" stroke="#231F20" stroke-miterlimit="10" d="M558.9,133.5c-6.1-13.9-25.8-29.2-25.8-29.2l-0.4-32.7
	C532.7,71.6,555.2,119.1,558.9,133.5z"/>
<path fill="#FFFFFF" stroke="#231F20" stroke-miterlimit="10" d="M525.3,222.3c0,0,0.2,0,0.5,0c-3.8,0.7-8,0.6-11-1.6
	c-0.4-0.3-0.7-0.6-1.1-0.9h0c-6.3,4.8-10.4,11.6-13.2,19.5c-1.4-13.6-0.2-23,2.2-29.4c4.4-11.5,12.6-13.5,16.6-13.7
	c0.8,0.6,1.5,1.3,2.1,2.2c4.4,5.8,5.8,16.7,6.2,20.8C526.2,221,525.3,222.3,525.3,222.3z"/>
<path fill="#FFFFFF" stroke="#231F20" stroke-miterlimit="10" d="M558.8,248.5c0,0-2.1-2.1-3.4-2.1c-0.2,0-1.3,0.5-2.9,1.4
	c-3,1.6-7.8,4.3-12.6,7.1h0c-3.1,1.8-6.2,3.6-8.8,5.1h0c-2.3,1.4-4.3,2.5-5.5,3.2c-0.7,0.4-1.2,0.7-1.3,0.8c1.4-1.2,7.5-6,14-10.9
	c-0.1,0.8-0.1,1.3-0.1,1.3s1.5-1.4,3.5-3.8c7.4-5.5,14.5-10.5,15.3-10.2C558.3,241.2,558.8,248.5,558.8,248.5z"/>
<path fill="#FFFFFF" stroke="#231F20" stroke-miterlimit="10" d="M514.9,262.5l-1.1-0.8l-2.5-1.8h0l-11.1-7.8l-2.6-1.8
	c0.2-1.1,0.4-2.2,0.7-3.3C505.6,253.8,514.5,262.1,514.9,262.5z"/>
<path fill="#FFFFFF" stroke="#231F20" stroke-miterlimit="10" d="M492.3,246.8l-2.2-1.5l-2.6-0.2l-5.8-0.5c0,0,5-6.1,6.6-5.7
	c0.3,0.1,1.2,0.8,2.5,1.9C491.3,242.8,491.8,244.9,492.3,246.8z"/>
<path fill="#FFFFFF" stroke="#231F20" stroke-miterlimit="10" d="M539.9,254.8l-0.4,4.9l-5.4,2.1l-3-1.9
	C533.7,258.4,536.8,256.6,539.9,254.8z"/>
<path fill="#FFFFFF" stroke="#231F20" stroke-miterlimit="10" d="M526.2,290.9c-2.2,4.6-9.2,3.7-11.5,1.3c-1.5-1.6-1-5.3-0.4-7.8
	c1.6,0.6,3.7,1.1,6.1,0.8c2-0.2,3.7-0.9,5.2-1.8C526.5,285,527.7,287.8,526.2,290.9z"/>
<path fill="#FFFFFF" stroke="#231F20" stroke-miterlimit="10" d="M530.3,279.8c0,0-0.5,0.5-1.3,1.3c-0.8,0.7-2,1.6-3.4,2.3
	c-1.5,0.8-3.3,1.5-5.2,1.8c-2.4,0.3-4.5-0.2-6.1-0.8c-1.2-0.5-2.1-1-2.7-1.5c-0.4-0.3-0.7-0.5-0.7-0.5v-0.1c0-0.8,0.7-1.4,1.5-1.3
	c0.1,0,0.1,0,0.2,0c0.2,0.1,0.4,0.1,0.6,0.2c0.7,0.2,1.5,0.4,2.4,0.5c0.4,0.1,0.9,0.1,1.3,0.2c0.2,0,0.5,0.1,0.7,0.1
	c0.3,0,0.6,0,1,0h0.4c0.2,0,0.3,0,0.5,0c0.2,0,0.4,0,0.6,0c2.4-0.3,4.8-1.5,6.3-2.5c1.1-0.7,2.4-0.6,3.5,0.1L530.3,279.8z"/>
<path fill="#FFFFFF" stroke="#231F20" stroke-miterlimit="10" d="M592.5,345.8c20.3-51.7,6.1-83.8,6.1-83.8l14.3,21.7
	C612.8,283.8,606.4,312.6,592.5,345.8z"/>
<path fill="#FFFFFF" stroke="#231F20" stroke-miterlimit="10" d="M658.6,320.5c-9.3,10.8-22.6,20.6-29.3,25.2
	c4.2-10.4,13.8-34.9,16.3-46.6c2.1-10.1,1.3-24.9,0.4-33.7c4.6,2,14.9,8.3,20.2,24.6c0.3-0.1,0.7-0.1,1-0.1
	C668,294.2,669.3,308,658.6,320.5z"/>
<path fill="#FFFFFF" stroke="#231F20" stroke-miterlimit="10" d="M665.5,328.1c-3.5,3-7.2,5.7-11,8.3c-11.6,8-23.5,13.9-29,16.5
	c1.3-1.8,1.8-2.5,1.8-2.5s0.8-1.8,2-4.9c6.7-4.6,20.1-14.4,29.3-25.2c10.7-12.5,9.4-26.3,8.7-30.6c3.1,0,5.6,3.1,5.6,3.1h8.2
	C681,293,683.9,312.6,665.5,328.1z"/>
<path fill="#FFFFFF" stroke="#231F20" stroke-miterlimit="10" d="M420.3,357.3c-3.1,0-13.9-0.7-30.2-7.4c-1.9-0.8-3.7-1.8-5.3-2.9
	c-14.9-10.2-18.2-32.4-18.2-32.4l9.7-7.3c1.4,7.8,6.4,22.8,23.4,33.3c6.8,4.1,11.3,6.8,14.4,8.4v0
	C416.1,352.2,418.2,355,420.3,357.3z"/>
<path fill="#FFFFFF" stroke="#231F20" stroke-miterlimit="10" d="M414.1,349.1c-3-1.6-7.6-4.3-14.4-8.4c-17-10.4-22-25.5-23.4-33.3
	v0l1-0.7c0,0,1.9-8.8,8-21.6c4.6-9.8,11.8-14.5,15-16.1c0.8,21.2,2,54.7,2.5,56.8C403.2,327.6,407.9,339.4,414.1,349.1z"/>
<path fill="#FFFFFF" stroke="#231F20" stroke-miterlimit="10" d="M428.6,373.4c-0.5,8.6-3.3,29.5-19.6,43.1
	c-5.7-13.1-26.1-19.7-26.1-19.7s-2.7-0.4-6.7-0.3c-1.5-5.2-3.4-14.4-1.5-25.4c2-11.7,7.1-20.1,10.1-24.2c1.6,1.1,3.4,2.1,5.3,2.9
	c16.3,6.6,27,7.3,30.2,7.4c1.6,1.7,3.1,3,4.7,3.9C426.1,365.4,427.2,369.6,428.6,373.4z"/>
<path fill="#FFFFFF" stroke="#231F20" stroke-miterlimit="10" d="M437,397.6c-1,5-4.7,19.8-14.3,30.1c0,0-3.6,15.5-7.6,16.9
	c-2.1,0.8-6,3.4-9.5,6c5.8-12.3,8.7-21.5,3.4-34c0,0,0-0.1-0.1-0.2c16.3-13.6,19.1-34.5,19.6-43.1c0.6,1.8,1.3,3.6,2,5.3
	C430.5,378.7,433.3,388.1,437,397.6z"/>
<path fill="#FFFFFF" stroke="#231F20" stroke-miterlimit="10" d="M383.9,460.5c-1.4,2.7-3.1,5.2-5.3,7.2c0,0-37.3,0.3-39.3-0.8
	c-0.9-0.5-1.4-1.1-1.6-1.6l0.1,0c13.7-8.2,10.9-23,8.5-30c-2-5.8-12.7-14.5-16.6-17.5c0.3-0.8,0.4-3.5,0.3-5.1
	c1.3-0.3,12-3.2,15.2-4.3c3.4-1.3,5.9-2.8,5.9-2.8c3.4-3.2,7.4-5.3,11.3-6.6c5.6,4.1,16.9,13,20.9,20.6
	C387.7,427.9,390.5,447.5,383.9,460.5z"/>
<path fill="#FFFFFF" stroke="#231F20" stroke-miterlimit="10" d="M405.6,450.7c-3.1,2.3-6,4.5-7.4,5.3c-2.1,1.1-9.4,3.7-14.3,4.6
	c6.5-13.1,3.7-32.6-0.7-41.1c-4-7.6-15.2-16.5-20.9-20.6c5-1.7,10-2.2,13.8-2.3c4-0.1,6.7,0.3,6.7,0.3s20.4,6.6,26.1,19.7
	c0,0,0,0.1,0.1,0.2C414.3,429.2,411.4,438.4,405.6,450.7z"/>
<path fill="#FFFFFF" stroke="#231F20" stroke-miterlimit="10" d="M337.7,465.2L337.7,465.2c-0.4-0.5-0.3-1-0.3-1s-8.4,1.1-9.2,0.4
	c-0.7-0.7-3.8-1.6-5.3-1.6c-0.4,0-1.1,0-1.9,0c2.9-2.8,14.8-14.6,15.1-20.1c0.3-5.9-2.5-11.8-6.2-10.8c0.2-2.9-0.4-8.2-6.5-10.1
	c0,0,5.5-3.4,6.1-4.2c0,0,0.1-0.1,0.1-0.2c3.9,3,14.6,11.7,16.6,17.5C348.6,442.2,351.4,457,337.7,465.2z"/>
<path fill="#FFFFFF" stroke="#231F20" stroke-miterlimit="10" d="M336,442.9c-0.2,5.5-12.2,17.3-15.1,20.1c-2.6-0.1-6.5-0.6-7.9-2.3
	c-1.8-2.2-3.2-3.9-3.2-3.9s-0.1,0-0.3,0l0-0.4c2.1-10.2,15.6-22,19.6-24.1c0.2-0.1,0.5-0.2,0.7-0.3
	C333.5,431.1,336.3,437.1,336,442.9z"/>
<path fill="#FFFFFF" stroke="#231F20" stroke-miterlimit="10" d="M329.9,432.1c-0.2,0.1-0.5,0.2-0.7,0.3c-4,2-17.5,13.9-19.6,24.1
	l0,0.4c-1.6,0.1-9.1-0.1-9.4-9h0.1c0.5-7.8,14.4-28.3,23-25.8C329.5,423.9,330,429.3,329.9,432.1z"/>
<path fill="#FFFFFF" stroke="#231F20" stroke-miterlimit="10" d="M323.3,422.1c-8.6-2.6-22.6,17.9-23,25.8h-0.1c0-0.1,0-0.3,0-0.4
	c-8.1-1.3-10.4-6.1-8.2-11.4c-0.1-0.1-0.2-0.1-0.3-0.2c4.8-22.8,22.8-25.3,22.8-25.3s4.2,0.4,6.5,3.3
	C323.2,416.7,323.3,422.1,323.3,422.1z"/>
<path fill="#FFFFFF" stroke="#231F20" stroke-miterlimit="10" d="M314.5,410.5c0,0-18,2.5-22.8,25.3c-5.7-4-8-7.1-3.5-13.8
	c1.2-12.5,3.7-22.3,8.6-25.4c5-3.1,16.3,2.6,17.3,5c0-0.1,0-0.1,0.1-0.2C314.5,405.1,314.5,410.5,314.5,410.5z"/>
<path fill="#FFFFFF" stroke="#231F20" stroke-miterlimit="10" d="M329.6,417.7c0,0.1-0.1,0.1-0.1,0.2c-0.6,0.8-6.1,4.2-6.1,4.2
	s-0.1-5.3-2.3-8.3c-2.2-2.9-6.5-3.3-6.5-3.3s0-5.4-0.3-9.1c1.6-3.7,8.6-5.5,11.7-2.6c3.1,2.9,3.8,13.8,3.8,13.8s0,0,0.1,0
	C329.9,414.2,329.9,416.9,329.6,417.7z"/>
<path fill="#FFFFFF" stroke="#231F20" stroke-miterlimit="10" d="M585.6,441.8c-6.2,4.6-21,14.8-33.9,16.5
	c-16.8,2.3-32.1-0.2-32.1-0.2s-17.6,1.2-23.9,0c-5.1-1-9.2-4.8-14.1-6.6l0.4-2.1c3.1,0.5,5.9-0.2,11-0.7c4.2,1.3,10.1,2.9,13.2,3.3
	c5.1,0.6,10.7,2.1,20.7,1.4c10-0.7,15.2-0.4,23-3.6c7.8-3.2,13.5-7.7,20.6-8.9c7-1.2,7.3-0.2,12.4-3.2c0.6-0.3,1.2-0.7,1.7-1
	c0.1,1.9,0.2,3.7,0.3,5.2C585.1,441.8,585.4,441.8,585.6,441.8z"/>
<path fill="#FFFFFF" stroke="#231F20" stroke-miterlimit="10" d="M482.1,449.4l-0.4,2.1c-1.1-0.4-2.3-0.7-3.5-0.9
	c-6.5-0.8-7.7,0.5-11.3-2.9c-3-2.8-7.9-7.9-16.9-11.2c-0.1-0.6-0.2-2.1-0.3-4.1c3,1.4,7.4,3.4,11.4,5.2c6.9,3.1,12.7,8.5,17.6,10.7
	C479.9,448.9,481,449.2,482.1,449.4z"/>
<path fill="#FFFFFF" stroke="#231F20" stroke-miterlimit="10" d="M248.6,895.3c-4.3,1.7-9,3-13.8,3.7c-0.6-4.8-0.8-9.1-0.6-13
	C237.9,886.5,243.7,888.6,248.6,895.3z"/>
<path fill="#FFFFFF" stroke="#231F20" stroke-miterlimit="10" d="M265.3,886.6c-4.3,2.8-10,6.2-16.6,8.7c-5-6.8-10.8-8.8-14.5-9.4
	c0.2-6.1,1.1-11.2,2.4-15.5c4.1-0.1,10.4,0.3,15.7,3.2C257.6,876.6,262.3,882.5,265.3,886.6z"/>
<path fill="#FFFFFF" stroke="#231F20" stroke-miterlimit="10" d="M345.9,773c-14.9,27.2-23,47.5-24.8,50.6c-1.5,2.5-7.3,8.5-9.8,11
	c-7.8,1.3-26.4,4.3-35.9,2.7c-9.6-1.6-15.5-8.6-17.6-11.5c0.1-0.2,0.3-0.5,0.4-0.7c-11.6-20.9,8.4-78.4,8.4-78.4s6.8,2.9,8.9,8.1
	c0.5,1.2,1,2.8,1.7,4.5c2.3,5.8,6.7,13.8,20.4,19.3c17.8,7.1,16.2,4.5,28,0.5C335.9,775.6,340.7,773.2,345.9,773z"/>
<path fill="#FFFFFF" stroke="#231F20" stroke-miterlimit="10" d="M311.3,834.6c-0.7,0.7-1.1,1.1-1.1,1.1s-0.3,8-4.5,14.1
	c-4.1,6.1-31.2,31-32.1,31c-0.1,0-0.5,0.2-1.1,0.7c-2.5-5.1-6.8-11.8-13.2-16.5c-7.7-5.7-15.4-4.3-19.6-2.8c2.5-5.3,5.3-9,7-12
	c3.9-7.2,7.9-19,11.1-24.3c2,2.8,7.9,9.9,17.6,11.5C284.9,838.8,303.5,835.9,311.3,834.6z"/>
<path fill="#FFFFFF" stroke="#231F20" stroke-miterlimit="10" d="M272.6,881.5c-1.3,1-3.9,2.9-7.3,5.2c-2.9-4.2-7.7-10-13-13
	c-5.4-3-11.7-3.4-15.7-3.2c0.9-3.2,2.1-5.9,3.2-8.3v0c4.2-1.5,11.9-2.9,19.6,2.8C265.8,869.7,270,876.4,272.6,881.5z"/>
<path fill="#FFFFFF" stroke="#231F20" stroke-miterlimit="10" d="M760.4,810.6c0,0-0.5,0.9-1.5,2.2c-2.8,4.1-9.5,12.9-16.6,15.4
	c-9.2,3.3-24,2.8-36-4.5c-0.2-0.1-0.5-0.3-0.7-0.4c-10.2-6.4-31.8-51.4-38.4-65.6c7.7,2.3,15.2,4.6,20.6,6.5
	c1.8,0.6,3.3,1.2,4.5,1.7c13.1,5.2,16.6,1.2,23.3-1.4c6.7-2.6,12.1-8.8,16.9-8.3c4.8,0.5,8.3-0.9,11.4-6.9c1.9-3.7,3.3-7.7,4.4-10.3
	C751.6,757.8,760.4,810.6,760.4,810.6z"/>
<path fill="#FFFFFF" stroke="#231F20" stroke-miterlimit="10" d="M782.2,865.9c-4.5,1-9.6,2.7-13.3,6c-4.7,4.2-8.3,10.6-10.5,15
	c-4.5-2-8.7-4.4-11.8-7.4c1.6-4.5,5.3-12.2,12.9-17.3c5.4-3.6,12.7-4.9,18.9-5.2c0.2,0.4,0.4,0.7,0.5,1.1
	C780.1,860.3,781.1,863,782.2,865.9z"/>
<path fill="#FFFFFF" stroke="#231F20" stroke-miterlimit="10" d="M787.6,883.7c-5.8,1.7-9.5,5.3-11.7,8.8c-5.5-1.2-11.7-3-17.5-5.5
	c2.2-4.4,5.8-10.8,10.5-15c3.7-3.3,8.8-5,13.3-6C784.2,871.6,786.1,878.2,787.6,883.7z"/>
<path fill="#FFFFFF" stroke="#231F20" stroke-miterlimit="10" d="M790.4,894.9c0,0-6.4-0.6-14.5-2.5c2.2-3.4,5.9-7.1,11.7-8.8
	C789.3,890.1,790.4,894.9,790.4,894.9z"/>
<path fill="#FFFFFF" stroke="#231F20" stroke-miterlimit="10" d="M778.5,857c-6.3,0.3-13.6,1.5-18.9,5.2
	c-7.6,5.2-11.3,12.8-12.9,17.3c-0.2-0.2-0.4-0.4-0.6-0.6c-12.7-13-36.3-32-37.8-41.7c-0.6-4.3-1.3-9.3-1.9-13.5
	c12,7.3,26.8,7.8,36,4.5c7.1-2.5,13.8-11.3,16.6-15.4c1.1,2.3,3.3,7.7,2.6,12.8c1.9,2.4,4.2,11.9,4.3,12.4
	C765.9,838.4,772.9,846.1,778.5,857z"/>
<path fill="#FFFFFF" stroke="#231F20" stroke-miterlimit="10" d="M716.1,441.8c-3.1,2.5-7.4,5.9-11.1,8.6
	c-7,5.2-31.2,10.2-33.5,10.2c-0.5,0-1.3-0.3-2.2-0.7h0c-3.9-1.7-10.9-6.1-12.7-8.1c-2.3-2.5-12.3-10.9-9.6-29.2
	c1-6.8,4.2-12.8,7.8-17.7c5.6-7.5,12.3-12.4,13.7-13h0c9.6-1,31.6-3.1,36.9-2.4c-1.8,2.5-4.8,7.9-3.1,13.3c-1.2,0.5-2.3,1.2-3.1,2.2
	c-3.4,3.9-9.6,19.1-1.9,28C702.5,439.1,709.5,441.5,716.1,441.8z"/>
<path fill="#FFFFFF" stroke="#231F20" stroke-miterlimit="10" d="M731.1,430.5c-0.2,0-0.3,0-0.3,0s-0.5,2.3-3.4,4.3
	c-2.4,1.7-5.6,3-6.5,3.3c-7.3-3.8-14.2-10.8-14.2-10.8c-0.1,0-1.2-0.1-4.4-8.8c-2.7-7.2,3.8-10,6.4-10.8c0.3,0.8,0.8,1.6,1.3,2.2
	C711.8,411.9,726.6,425.3,731.1,430.5z"/>
<path fill="#FFFFFF" stroke="#231F20" stroke-miterlimit="10" d="M739.3,421.8c-0.4,1.7-1.8,6.3-3.2,7.6c-1.5,1.3-4.2,1.2-5,1.1
	c-4.5-5.2-19.2-18.6-21.1-20.7c-0.6-0.6-1-1.4-1.3-2.2c-0.8-2.1-0.7-4.5,0.2-6.2c0.1-0.2,0.2-0.3,0.3-0.5c1.2-1.7,5.9-2.9,8.5-3.5h0
	c4.1,2.4,10.6,11.8,11.8,14.3C730.4,413.7,736.4,419.2,739.3,421.8z"/>
<path fill="#FFFFFF" stroke="#231F20" stroke-miterlimit="10" d="M749.3,410.7c-0.1,1.3-0.6,5.7-2.8,8.5c-2.7,3.4-7,2-7,2
	s-0.1,0.2-0.2,0.6c-2.9-2.6-8.9-8.1-9.9-10.1c-1.2-2.5-7.7-11.9-11.8-14.3h0c-0.2-0.1-0.5-0.3-0.7-0.3c-2.3-5,5.3-8.2,8.6-9.3
	c0.3,0.9,0.6,1.6,0.6,1.6s4.5-1.7,6.9,1.7c2.4,3.3,6.2,10.9,8.4,13.6C743,406.3,746.8,409,749.3,410.7z"/>
<path fill="#FFFFFF" stroke="#231F20" stroke-miterlimit="10" d="M756.4,405.5c-2.1,4.1-7.1,4.8-7.1,4.8s0,0.1,0,0.4
	c-2.5-1.6-6.3-4.3-7.8-6.1c-2.3-2.6-6.1-10.2-8.4-13.6c-2.4-3.3-6.9-1.7-6.9-1.7s-0.3-0.7-0.6-1.6c-0.4-1.2-0.7-2.8-0.3-4
	c0.5-1.5,3.8-5.1,5.7-7.1h0c3.1-0.9,10.2-2.5,14.3-0.2c5.3,3,7.1,19.1,7.1,19.1S758.6,401.4,756.4,405.5z"/>
<path fill="#FFFFFF" stroke="#231F20" stroke-miterlimit="10" d="M725.6,387.8c-3.3,1.1-10.8,4.3-8.6,9.3c0.2,0.1,0.4,0.2,0.7,0.3
	c-2.6,0.5-7.3,1.8-8.5,3.5c-0.1,0.1-0.2,0.3-0.3,0.5c-1.5,0-4.3,0.3-6.7,1.3c-1.7-5.3,1.3-10.8,3.1-13.3c0.4,0.1,0.8,0.1,1,0.2
	c1.4-2.5,5.9-4.1,5.9-4.1s5.5-10,9.3-12.3c3.7-2.3,8.2,3.9,8.2,3.9s0.6-0.2,1.5-0.5c-1.9,2-5.2,5.6-5.7,7.1
	C724.9,385,725.2,386.6,725.6,387.8z"/>
<path fill="#FFFFFF" stroke="#231F20" stroke-miterlimit="10" d="M668.6,391.8c0,0-0.1,0-0.2,0.1h0c-1.4,0.7-8.1,5.5-13.7,13
	c-4.1,1.9-10.4,5.5-15.3,11.3c-15.9,2.8-22.5-21.9-24.8-33.2c0,0,0,0,0,0c2.1-7.7,1.8-16.8,6.2-23.2c2.2-3.2,3.8-5.4,4.8-6.8v0
	c5.6-2.6,17.4-8.6,29-16.5C658.4,341,668.7,356.4,668.6,391.8z"/>
<path fill="#FFFFFF" stroke="#231F20" stroke-miterlimit="10" d="M724.7,439.6l-0.4,1.4c-2.5,0.5-5.3,0.8-8.2,0.7
	c-6.5-0.3-13.5-2.7-18.9-8.9c-7.7-8.9-1.5-24.1,1.9-28c0.8-1,1.9-1.7,3.1-2.2c2.4-1,5.2-1.3,6.7-1.3c-0.9,1.7-1,4.2-0.2,6.2
	c-2.6,0.8-9.1,3.6-6.4,10.8c3.2,8.7,4.3,8.8,4.4,8.8c0,0,6.9,7.1,14.2,10.8C722.1,438.7,723.4,439.2,724.7,439.6z"/>
<path fill="#FFFFFF" stroke="#231F20" stroke-miterlimit="10" d="M669.2,459.9c-8,1.2-17.5,0.1-25.1-1.3
	c-6.1-4.6-11.1-11.2-11.9-20.6c-0.7-9.3,2.6-16.4,7.1-21.7c4.9-5.8,11.2-9.4,15.3-11.3c-3.6,4.9-6.8,10.9-7.8,17.7
	c-2.7,18.3,7.3,26.7,9.6,29.2C658.3,453.8,665.3,458.2,669.2,459.9z"/>
<path fill="#FFFFFF" stroke="#231F20" stroke-miterlimit="10" d="M644.1,458.6c-7.5-1.4-13.2-3.3-13.6-3.7c-0.9-0.9-3.2-4.5-4.6-9.1
	c-1.4-4.6-11.2-17.3-17.1-25c-3.6-4.8-5.2-14-5.9-20.4c4.9-5.5,9.3-10.8,10.6-13.9c0.5-1.1,0.9-2.3,1.2-3.5
	c2.2,11.3,8.9,36,24.8,33.2c-4.5,5.3-7.8,12.5-7.1,21.7C632.9,447.3,638,454,644.1,458.6z"/>
<path fill="#FFFFFF" stroke="#231F20" stroke-miterlimit="10" d="M576.2,311.7c-13,0.3-31.5,6.5-43.8,12.2l12.9-38
	c1.5-1.5,2.8-2.8,3.6-3.6c0.7-0.7,1.8-2.6,3-5.2c2.5-0.8,6.9-2.6,8.8-4.9c1.1-1.4,4.6-7.4,8-14c1.1,1,2.1,2,3.1,3
	c3,3,5.6,5.8,5.8,6.9C578.1,270.7,577.9,300,576.2,311.7z"/>
<path fill="#FFFFFF" stroke="#231F20" stroke-miterlimit="10" d="M482.5,260.4c-1.7,1.3-2.6,6.4-2.6,6.4s-3.2-2.5-5.9-6.6
	c-0.7-1-1-2.6-1.2-4.3c-0.2-1.7-0.1-3.6,0-5.4c0.2-2.6,0.6-4.9,0.7-5.8c0.9,0.7,1.8,1.6,2.7,2.4c0.8,0.8,1.6,1.5,2.3,2.2
	c0.1,0.4,0.3,0.8,0.4,1.2C480.2,254.4,481.5,257.7,482.5,260.4z"/>
<path fill="#FFFFFF" stroke="#231F20" stroke-miterlimit="10" d="M485.1,271.9c-1.3,0.8-3.1,1.5-5.3,0.8c-3.2-0.9-6.5-3.8-10.2-8.3
	c-1-1.2-2-2.6-3.1-4c-0.1-0.1-0.1-0.2-0.2-0.3c-1.2-1.7-1.9-4.1-2.3-6.8c0-0.7,0.2-1.6,0.4-2.5c0.9-3.5,2.8-7.9,4.3-8.5
	c0.8-0.3,2.7,0.9,4.7,2.6c-0.2,0.9-0.5,3.2-0.7,5.8c-0.1,1.8-0.2,3.6,0,5.4c0.1,1.7,0.5,3.2,1.2,4.3c2.7,4.1,5.9,6.6,5.9,6.6
	s0.9-5.1,2.6-6.4c0.6,1.8,1,3.3,1.1,4.5C483.7,266.8,484.3,269.3,485.1,271.9z"/>
<path fill="#FFFFFF" stroke="#231F20" stroke-miterlimit="10" d="M588,310.1c-0.2,3.8-0.7,6.2-1.2,7.6c0,0,0,0,0,0
	c-6.1,7.8-14.2,16.3-19.6,20.6c-7.6,6.1-23.3,17.4-47.6,17.3c-24.2-0.1-39.1-13.4-42.1-16c-2.1-2-12-16.3-17.1-23.9v0
	c0-0.3,0-0.4,0-0.4c0,0.1-0.2,0.5-3-13.2v0c-0.1-0.6-0.2-1.2-0.4-1.8c-2.1-10.4,4.3-28.3,9.3-40.3c0.1,0.1,0.1,0.2,0.2,0.3
	c1.1,1.5,2.1,2.8,3.1,4c-4.8,13.1-10.1,30-8.3,35.8c0.5,1.5,1.2,3.3,2,5.1c4.7,10,14.6,23.4,21.9,29.8c4.7,4.1,21.3,5.2,36.3,5.3
	c12.3,0.1,23.4-0.5,25.9-0.7c5.3-0.4,25.2-19.5,27.8-23.5c0.4-0.6,0.8-2.2,1.1-4.4c1.7-11.6,1.9-41,1.4-43.5
	c-0.2-1.2-2.8-3.9-5.8-6.9c-1-1-2.1-2-3.1-3c1-1.9,2-3.9,2.9-5.8c0.2,0.1,0.3,0.3,0.5,0.4c4,3.2,10.9,9.2,12.5,13.1
	C586.9,271.5,588.6,300.9,588,310.1z"/>
<path fill="#FFFFFF" stroke="#231F20" stroke-miterlimit="10" d="M576.3,241.1c-1,1.1-1.7,1.9-2.3,2.5c0.4,0.2,0.8,0.4,1.3,0.6
	c-0.8,2.1-1.9,4.5-3.2,7.1c-0.2,0.4-0.4,0.7-0.5,1.1c-0.9,1.9-1.9,3.9-2.9,5.8c-3.4,6.6-6.9,12.6-8,14c-1.8,2.3-6.3,4.1-8.8,4.9
	c1.2-2.5,2.6-5.6,4-8.9l3.6-1.6c0,0,3.8-4.9,7-10.5c1.1-1.8,2.1-3.7,2.9-5.5c0.9-2,1.6-3.9,1.8-5.6c-1.3-1.1-4.3,0.2-6.3,1.3
	c0.2-0.4,0.3-0.7,0.3-0.8c0.1-0.1,0.1-0.5,0.2-1c1-0.9,2.3-1.9,3.6-3c1.4-1.1,2.8-2.1,4.1-2.8c1.5-0.8,2.7-1.1,3.4-0.5
	C576.8,238.7,576.7,239.7,576.3,241.1z"/>
<path fill="#FFFFFF" stroke="#231F20" stroke-miterlimit="10" d="M514.3,504.5c-6.3,2-37.9,12.4-52,11.5
	c-16-1.1-38.9-25.5-38.9-25.5v0c-1.2-2.6,3.6-8.3,7.4-8.6c0,0,12.2,19.1,31.8,23.8C480.5,509.8,508.3,505.8,514.3,504.5z"/>
<path fill="#FFFFFF" stroke="#231F20" stroke-miterlimit="10" d="M477.8,246.7c-0.4-0.4-0.7-1-1.1-1.5c-2.6-3.8-5.7-9.7-8.4-9.2
	c-0.5,0.1-1,0.4-1.5,0.8c-8.7-7.8-19.8-18.9-22.8-26.6c-5.1-13.2-15-52.6-15-52.6s0.6,0.6,1.5,1.5c6.7,12.6,22.3,41.7,25.6,47.3
	c2.5,4.1,9.3,12.1,14.6,18.1c2.5,2.8,4.6,5.1,5.9,6.5c-0.3,2.2-0.5,4.3-0.4,6.1c0.1,2.4,0.4,4.7,0.9,7v0c0.1,0.6,0.3,1.2,0.4,1.8
	C477.6,246.2,477.7,246.5,477.8,246.7z"/>
<path fill="#FFFFFF" stroke="#231F20" stroke-miterlimit="10" d="M478.6,249.5c-0.7-0.7-1.5-1.5-2.3-2.2c-0.9-0.9-1.8-1.7-2.7-2.4
	c-2-1.7-3.9-2.9-4.7-2.6c-1.5,0.6-3.5,4.9-4.3,8.5c-0.2,0.9-0.4,1.8-0.4,2.5c-0.1-0.8-0.2-1.7-0.3-2.5c-0.6-6.5,0.9-12,3.1-14
	c0.5-0.4,0.9-0.7,1.5-0.8c2.6-0.5,5.8,5.4,8.4,9.2c0.4,0.6,0.7,1.1,1.1,1.5C478,247.7,478.3,248.6,478.6,249.5z"/>
<path fill="#FFFFFF" stroke="#231F20" stroke-miterlimit="10" d="M477.2,227.8c-0.2,0.9-0.3,1.8-0.5,2.7c0,0.2,0,0.3-0.1,0.5
	c-1.3-1.4-3.4-3.8-5.9-6.5c-5.3-6-12.1-14-14.6-18.1c-3.3-5.5-18.9-34.7-25.6-47.3c0.5,0.5,1.1,1.1,1.8,1.8
	c4.8,4.8,13.6,13.8,19.8,19.4c0.3,1.4,0.6,2.7,0.9,3.8c2.1,5.7,7.3,15.4,12.5,24.5C470.1,216.2,474.5,223.5,477.2,227.8z"/>
<path fill="#FFFFFF" stroke="#231F20" stroke-miterlimit="10" d="M485.3,118.7L485.3,118.7c-0.1,0.3-0.2,0.7-0.3,1
	c-1.7,5-2.2,9.8-2.1,14.2c0.1,4.9,1.1,9.1,2,12.2v0c-3.4,9.9-4.9,20.6-4.2,32.8c-5.5-7.1-10.8-15.2-14.6-23.4
	c-1.5-3.3-2.8-6.2-3.9-8.8c-0.2-0.3-0.3-0.7-0.4-1l10.8-53.1L485.3,118.7z"/>
<polygon fill="#FFFFFF" stroke="#231F20" stroke-miterlimit="10" points="522.9,274.3 521.1,275.7 520.2,276.4 517.5,274.3 
	519.3,268.7 520.5,265 "/>
<polygon fill="#FFFFFF" stroke="#231F20" stroke-miterlimit="10" points="429.7,308.1 436.8,330.6 432.9,354.5 430.4,333.4 
	421.5,307.1 434.7,276.8 447.8,266.8 "/>
</svg>
