<?xml version="1.0" encoding="utf-8"?>
<!-- Generator: Adobe Illustrator 25.2.0, SVG Export Plug-In . SVG Version: 6.00 Build 0)  -->
<svg version="1.1" baseProfile="tiny" id="Layer_1" xmlns="http://www.w3.org/2000/svg" xmlns:xlink="http://www.w3.org/1999/xlink"
	 x="0px" y="0px" viewBox="0 0 1000 1000" overflow="visible" xml:space="preserve">
<path fill="#FFFFFF" stroke="#000000" stroke-miterlimit="10" d="M464.7,48c-1.6,1.6-2.9,3-3.8,4l-34,1.7l-12.6,17.8
	c-1.5-0.9-3.1-1.9-4.6-2.9c2.4-5.1,5.4-10.7,9.2-16.7c11.5-18.2,24.6-27.5,35.6-32.1C456.9,26.1,461.2,37.9,464.7,48z"/>
<path fill="#FFFFFF" stroke="#000000" stroke-miterlimit="10" d="M555.3,98.4c-0.6,5.7-17.2,23.2-58.2,28.2h0
	c-6.3,0.8-13.1,1.2-20.6,1.3c-12.7,0.2-23-0.3-31.4-1.1c0,0,0,0,0,0c-28.7-2.8-35-9.8-37.9-11.9c-1.8-1.3-5.3-6.6-5.3-16.5
	c0-7.3,1.9-17.2,7.8-29.9c1.5,1,3,2,4.6,2.9l-0.1,0.2c0,0,14.1,10.5,15.2,11.5c0,0-2,31.4-2.5,31.8c-0.5,0.4,14.3,0,14.3,0h44.1
	l21.4-8.7l-0.2-22.4c7.6-2.4,24.6-8.2,39.2-15.6c6.5,13.8,9.4,26,9.5,29.6C555.3,98,555.3,98.2,555.3,98.4z"/>
<path fill="#FFFFFF" stroke="#000000" stroke-miterlimit="10" d="M545.8,68.1c-14.6,7.4-31.6,13.2-39.2,15.6l0-4.7l19.2-15.7
	c0,0-12.1-12.6-13.2-12.6c-0.6,0-17.2,0.4-31.5,0.7c-5.9,0.1-11.3,0.3-15.1,0.3c-3.1,0.1-5.1,0.1-5.1,0.1h0c0.9-1,2.2-2.3,3.8-4
	c7.3-7.4,21.1-20.4,36.5-27.5C523.2,29.9,537.5,50.4,545.8,68.1z"/>
<path fill="#FFFFFF" stroke="#000000" stroke-miterlimit="10" d="M501.2,20.5c-15.4,7.1-29.2,20-36.5,27.5
	c-3.5-10.1-7.8-21.9-10.1-28.2c14-5.8,24.6-4.3,24.6-4.3C487.3,15.9,494.6,17.7,501.2,20.5z"/>
<path fill="#FFFFFF" stroke="#000000" stroke-miterlimit="10" d="M582.6,119.9c-0.1-0.1-0.1-0.2-0.2-0.3
	c-7.9-10.2-18.1-20.3-27-21.9c0,0.3,0,0.5,0,0.7c-0.6,5.7-17.2,23.2-58.2,28.2h0c-9.1,8.4-14.3,24.2-14.3,24.2s-3.1,21.6-3.7,22.1
	c-0.6,0.5-6.3,0.2-7.4-1.3c-1.1-1.5,1.4-18.9,1.4-18.9l-7.5-9.6c0,0-2.6-1-18.8,0.8c-3,1.8-5.2,4.3-6.8,7c-5.5,9.4-3.5,22-3.5,22
	h-7.2c0,0,1.2-18.7,3.7-23c-3.5-0.3-20.1-7-28.9-10.6c0,0,0,0,0,0c0,0,0,0,0,0c-7.1-1.8-22,2.5-28,14.4c0,0,0.9,0.4,2.4,1
	c2.9,1.2,8.1,3.3,13,5.1c4.5,1.7,8.6,3.1,10.5,3.3c1,2.5,2.6,7.2,10.4,11.2c4.4,2.2,10.6,4.2,19.8,5.4c4.1,0.5,8.2,1,12.3,1.4
	c7.4,0.7,14.7,1.1,21.6,0.8c12.9-0.5,24.3-3.2,32.6-10c15.9-12.1,24.6-14.3,43-19.4c5.9-1.7,10.7-2.9,14.5-4c8.2-2.2,12-3.2,12-4
	C568.2,143.1,567.8,126.3,582.6,119.9z M459.7,177.8c-3-0.1-14.4-1.6-14.4-1.6c-0.6-11.1,0.8-21,5-29.4l13.9-0.8
	C460.2,152.2,457.3,165.9,459.7,177.8z"/>
<path fill="#FFFFFF" stroke="#000000" stroke-miterlimit="10" d="M436.6,172.9h-7.2c0,0,1.2-18.7,3.7-23c-3.5-0.3-20.1-7-28.9-10.6
	c0.1,0,0.2,0.1,0.3,0.1c-3.6-11.3-9.4-19.9-13.4-24.9c-0.1-0.1-0.2-0.2-0.3-0.4c0.2-0.1,0.5-0.2,0.7-0.2c0.6-6.6,3.7-10.7,6.9-13.2
	c-0.5,6.6-0.7,21,7.3,24.5c3,1.3,8.5,1.9,14.6,2.2c0,0,0,0,0,0c5.2,4.9,16.1,16.5,19.7,23.7C434.6,160.3,436.6,172.9,436.6,172.9z"
	/>
<path fill="#FFFFFF" stroke="#000000" stroke-miterlimit="10" d="M445.2,126.9c-7.1,0.4-16.6,0.8-24.8,0.4c0,0,0,0,0,0
	c-6.2-0.2-11.6-0.9-14.6-2.2c-8-3.4-7.8-17.9-7.3-24.5c1.2-0.9,2.4-1.7,3.5-2.2c0,9.9,3.4,15.2,5.3,16.5
	C410.1,117,416.4,124.1,445.2,126.9z"/>
<path fill="#FFFFFF" stroke="#000000" stroke-miterlimit="10" d="M497.1,126.6c-9.1,8.4-14.3,24.2-14.3,24.2s-3.1,21.6-3.7,22.1
	c-0.6,0.5-6.3,0.2-7.4-1.3c-1.1-1.5,1.4-18.9,1.4-18.9l-7.5-9.6c0,0-2.6-1-18.8,0.8c-3,1.8-5.2,4.3-6.8,7
	c-3.6-7.1-14.6-18.8-19.7-23.7c8.2,0.3,17.7,0,24.8-0.4c0,0,0,0,0,0c8.4,0.8,18.7,1.2,31.4,1.1C484,127.9,490.8,127.4,497.1,126.6z"
	/>
<path fill="#FFFFFF" stroke="#000000" stroke-miterlimit="10" d="M459.7,177.8c-3-0.1-14.4-1.6-14.4-1.6c-0.6-11.1,0.8-21,5-29.4
	l13.9-0.8C460.2,152.2,457.3,165.9,459.7,177.8z"/>
<path fill="#FFFFFF" stroke="#000000" stroke-miterlimit="10" d="M377.9,135.7c-0.1,0.6-0.3,1.1-0.4,1.7c-0.5,2.1-0.9,4-1.1,5.6
	c-6.6,9.1-11,32.9-11,32.9s-2,5.7-15.2,18c-15.7,5.3-20.1,1.8-20.1,1.8s1.8-19.4,12.7-33.8C351.8,149.8,371.6,138.9,377.9,135.7z"/>
<path fill="#FFFFFF" stroke="#000000" stroke-miterlimit="10" d="M391.4,159.8c-1.4,3.8-3.1,8.2-4.7,12.8
	c-5,13.5-21.9,31.5-27.9,34.2c-3.4,1.5-8.6,2.4-13.4,2.3c-3.9-0.1-7.5-0.8-9.7-2.3c-3.6-2.4-3-6-2.3-7.8c2.3,0.2,14.5-0.2,18.5-2.2
	c4.8-4.3,17.1-19.1,17.1-19.1s3.6-15,9.6-23.1C381.4,155.8,386.5,158,391.4,159.8z"/>
<path fill="#FFFFFF" stroke="#000000" stroke-miterlimit="10" d="M378.4,154.6c-6,8.2-9.6,23.1-9.6,23.1s-12.4,14.8-17.1,19.1
	c-4,2-16.2,2.3-18.5,2.2c-0.2,0-0.4,0-0.4,0c-0.4-0.2-2.8-3.3-2.8-3.3s4.5,3.6,20.1-1.8c13.2-12.3,15.2-18,15.2-18s4.4-23.8,11-32.9
	c-1.4,8.6-0.3,10.6-0.3,10.6S376.9,154,378.4,154.6z"/>
<path fill="#FFFFFF" stroke="#000000" stroke-miterlimit="10" d="M661.7,158.2c-3.1,2.4-18.5,6.2-25.7,8.3
	c-7.1,2.1-37.1,3.3-37.1,3.3s-19-11.4-19-12.3c0-1-1.9-28.3-1.9-28.3s2.9-4.9,8.6-9c4.5-3.2,10.8-5.9,18.7-5.3
	C623.5,116.4,653.6,141.5,661.7,158.2z"/>
<path fill="#FFFFFF" stroke="#000000" stroke-miterlimit="10" d="M652.7,201.1c-0.5,0.4-0.7,0.5-0.7,0.5l-5-22.6
	c0,0-2.1,1.7-15.7,5.7c-13.5,4-39.5-2.9-39.5-2.9L570,165.5l-0.6-6.6l-1.3-14.6c0-1.2-0.4-18,14.4-24.4c-0.1-0.1-0.1-0.2-0.2-0.3
	c1.4,0.2,2.9,0.4,4.3,0.6c-5.7,4.1-8.6,9-8.6,9s1.9,27.3,1.9,28.3c0,1,19,12.3,19,12.3s29.9-1.2,37.1-3.3c7.1-2.1,22.6-5.9,25.7-8.3
	C669.9,186.2,656.1,198.6,652.7,201.1z"/>
<path fill="#FFFFFF" stroke="#000000" stroke-miterlimit="10" d="M597.4,302.8c-1.2,3.3-2.9,7.1-5.1,11.2c-3.5-4.3-9-18.3-12.5-28.4
	c-1.1-3.2-2-6.1-2.6-8.1c-0.3-1-0.6-1.9-1-2.7c-1.4-3.4-3.4-5.9-5.1-7.6v0c1-4-0.5-15.5-0.5-15.5s-1.3-10.3-2.1-15.9
	c6-1.7,9.5-3,9.5-3s9.5,18.4,14.6,37.8l-6.7,3.2l7.3,26l3.2-1.4C596.7,299.9,597,301.4,597.4,302.8z"/>
<path fill="#FFFFFF" stroke="#000000" stroke-miterlimit="10" d="M574.5,335.9c3.8,19.2,7.1,29-8.5,50.4c-8.3-2.4-18.9-3.9-30.9-4.5
	c-5.7-8.4-13.5-19.5-21.9-31.2c6.4-8,16.2-20.9,21.5-25.3c1.2-1,2.3-2.1,3.5-3.3c5.6-5.9,10.4-13.4,16.3-17
	c5.3-3.2,19.1-14.2,25.5-19.4c3.5,10.2,8.9,24.1,12.5,28.4C588.3,321.4,582.6,329.4,574.5,335.9z"/>
<path fill="#FFFFFF" stroke="#000000" stroke-miterlimit="10" d="M370.7,216c-3.2,6.9-12.5,21.3,9,44.1c-0.9,1.7-1.4,5.3-1.5,10
	c0,1.4,0,2.9,0,4.5c-4.6-1.7-26.4-9.9-37.6-15.3c0.9-1.6,1.8-3.2,2.6-4.9c-2.2-19.7,0.7-38.3,2-45.3c4.8,0.1,10.1-0.8,13.4-2.3
	c6.1-2.7,22.9-20.7,27.9-34.2c1.7-4.6,3.3-9,4.7-12.8c4.5,1.7,8.6,3.1,10.5,3.3c1,2.5,2.6,7.2,10.4,11.2
	C400.9,191.2,373.6,209.8,370.7,216z"/>
<path fill="#FFFFFF" stroke="#000000" stroke-miterlimit="10" d="M387.6,324.9L387.6,324.9c-1.6,9.8-4.8,25.4-11.2,40.3c0,0,0,0,0,0
	c0,0,0,0,0,0s0,0,0,0c-2.9,5.4-6.3,10.8-10.2,15.8c-6-5.4-17-14.1-32.7-22.3c-15.8-8.3-29.6-12.4-37.7-14.3
	c10.9-33.1,32-53.4,35.5-55.3c0,0-11.2,35.6,8.8,47.3c17.5,10.2,39.1-8.5,46.7-23.5c0.2,0.3,0.4,0.7,0.6,1c0.2,0.7,0.3,1.7,0.4,3
	C387.8,318.9,387.8,321.6,387.6,324.9z"/>
<path fill="#FFFFFF" stroke="#000000" stroke-miterlimit="10" d="M348.8,401.9c-1.8,2.3-3.5,4.6-5.3,7
	c-13.8,18.4-26.6,37.8-26.6,37.8s-2.8-5-9.4-8.4c-4.2-2.2-9.9-3.8-17.4-3.2c-11.1,1-17.7,10.7-21.2,18.7c-1,2.3-1.8,4.4-2.4,6.2
	c0.2-1.6,0.3-3.3,0.5-4.9c2.5-21.1,10.2-49.7,18.3-76.8c1-3.3,2-6.5,2.9-9.7c3.1,0.7,6.8,1.7,11.1,3.4
	C314.3,377.6,336.1,390.8,348.8,401.9z"/>
<path fill="#FFFFFF" stroke="#000000" stroke-miterlimit="10" d="M320.7,476.4c-1.8-1.2-3.6-3.5-3.6-3.5s-3-2.8-3.8-7.9
	c0.5-4.5-3.8-19.8-5.9-26.7c6.6,3.5,9.4,8.4,9.4,8.4S322.6,460.9,320.7,476.4z"/>
<path fill="#FFFFFF" stroke="#000000" stroke-miterlimit="10" d="M291.3,474.5c-0.6,2.3-1.3,5.1-1.9,7.2l-13.8,4.8l-10.2-8.3
	c0.2-6,0.6-12.1,1.2-18.3v0c0.6-1.8,1.3-3.9,2.4-6.2c0.3,4.2,2.1,10.8,9.6,14.3C283.9,470.6,288,472.5,291.3,474.5z"/>
<path fill="#FFFFFF" stroke="#000000" stroke-miterlimit="10" d="M327.4,501.3c0,0-5.2,12.6-8.8,16.4c-3.5,3.8-16.6,16.3-19.2,17.8
	h0c-4.9-0.2-10.4-1.8-15-6.9c6.6-0.2,17.7-2.2,26.4-11.8c7.5-8.2,10.2-13.6,11.2-16.7c3.7-2.3,4.5-6.1,4.1-9.9
	C327.3,496.1,327.2,500.9,327.4,501.3z"/>
<path fill="#FFFFFF" stroke="#000000" stroke-miterlimit="10" d="M386.6,312.9c-7.6,15-29.1,33.8-46.7,23.5
	c-20-11.6-8.8-47.3-8.8-47.3c0.2-2,0.4-4,0.8-5.8c10.8,6.3,33.1,18.2,50.5,19.4C383.6,306.6,385,310.1,386.6,312.9z"/>
<path fill="#FFFFFF" stroke="#000000" stroke-miterlimit="10" d="M663.2,237.3l-70.5,33.3c-5.1-19.4-14.6-37.8-14.6-37.8
	c2.1-2.4,3.2-6.3,3.8-9.7c20.7,19.5,56.7,20,61.1,17.5c3.6-2,9-18.6,11.7-27.9C655.8,215.8,659.1,224.8,663.2,237.3z"/>
<path fill="#FFFFFF" stroke="#000000" stroke-miterlimit="10" d="M681.3,296c-9.4-6.8-21.1-8.3-31.8,10.3c-2.2,3.9-4.2,7.8-5.9,11.8
	c-15.7,4.4-24.7,16-29.3,26.4c0.2-3.8,0.8-7.9,1.9-12.1c-3.5-5.3-14.9-13.4-19-29.6c-0.3-1.4-0.7-2.9-0.9-4.4l2.8-1.2l72.6-31.9
	c2.5,8.5,5,17.5,7.3,26.8C679.8,293.4,680.6,294.7,681.3,296z"/>
<path fill="#FFFFFF" stroke="#000000" stroke-miterlimit="10" d="M693.9,368c-0.1,4.8-0.1,9.7-0.2,14.7c0,2.2-0.1,4.5-0.2,6.7
	c-0.6,21.8-2,42.5-4.7,49.5c-1.3,3.5-2.5,6.3-3.5,8.6c-11.2-7-21.6-8.9-27.5-9.4c-1.1-2.4-3.3-4.6-7-6.2
	c-16.4-7.3-19.8-2.3-19.8-2.3c1.1-7.7,1.9-25.5,1-33c-0.1-0.9-0.2-1.6-0.4-2.1c-0.5-2-3.7-5.8-7.3-11.7c0,0,0,0,0-0.1
	c-0.7-1.6-2.7-13.7,8.6-25v0c1.4-1.4,3.1-2.9,5-4.2C655,341,683.8,348.6,693.9,368z"/>
<path fill="#FFFFFF" stroke="#000000" stroke-miterlimit="10" d="M693.5,327.5c-6.2-5.3-15.9-10-31.1-11.1
	c-7.1-0.5-13.3,0.1-18.7,1.7c1.7-4,3.7-7.9,5.9-11.8c10.7-18.7,22.4-17.2,31.8-10.3C686,304.1,692.4,313.9,693.5,327.5z"/>
<path fill="#FFFFFF" stroke="#000000" stroke-miterlimit="10" d="M648.2,461c-5.9,3.4-16.8,6.4-24.8,17.5c0,0-8.2,9.5-9.3,10.3
	c-1.1,0.9,2.7,9.6-2.8,15.9c-5.5,6.2-13,8.2-16.8,3.9c-3.7-4.3,2.9-14.6,2.9-14.6s-3.6-5.4-0.2-12.5c3.4-7.1,8-13,10.3-23.2
	c5.9-6.8,16-21.6,23.5-28.7c0,0,3.4-5,19.8,2.3c3.6,1.6,5.8,3.8,7,6.2C661.8,446.7,652.8,458.4,648.2,461z"/>
<path fill="#FFFFFF" stroke="#000000" stroke-miterlimit="10" d="M685.3,447.6c-3.3,7.7-5,11.1-6.1,21.3c-0.5,4.9-1.4,14.9-2.5,25.9
	c-0.1,0.5-0.1,0.9-0.2,1.3v0c-0.2,1.9-0.4,3.9-0.7,5.9c-6.5,4.6-31.6-2-31.6-2l-0.1,0.1c-0.4,0.8-2.6,4.9-9.2,8
	c-1.4,0.7-2.6,0.9-3.5,0.8c1.7-2.1,3.1-3.8,3.3-4c0.5-0.5-5.2-7.3-3.4-17.8c-0.7-3-8-8.6-8-8.6c8-11,18.9-14.1,24.8-17.5
	c4.6-2.6,13.6-14.3,9.6-22.8C663.7,438.7,674.1,440.6,685.3,447.6z"/>
<path fill="#FFFFFF" stroke="#000000" stroke-miterlimit="10" d="M631.3,543.6c-5.8,0-10.2-0.1-11.3,0c-3.6,0.4-8,6.6-10.9,3.9
	c-2.9-2.7,0-8.7,0-8.7s2.8-5.8,8.8-8c6.1-2.1,5.2-2.9,5.2-2.9s-1-3.5-0.2-6.8c1.6,1.1,3.4,2.3,4.5,2.7c1.5,0.6,2.9,4.2,3.7,6.6
	l-3.7,8.5L631.3,543.6z"/>
<path fill="#FFFFFF" stroke="#000000" stroke-miterlimit="10" d="M618,530.8c-6.1,2.1-8.8,8-8.8,8s-9.5-1.6-7-5.3
	c2.5-3.8,21-5.5,21-5.5S624,528.6,618,530.8z"/>
<path fill="#FFFFFF" stroke="#000000" stroke-miterlimit="10" d="M654.7,212.7c-2.8,9.3-8.2,25.9-11.7,27.9
	c-4.3,2.5-40.4,1.9-61.1-17.5c-3.1-2.9-5.8-6.2-8.1-10c-14.9-25-13.8-46.6-10-57.3c-3.5-2.5-6.1-5.4-7.7-7.3c8.2-2.2,12-3.2,12-4
	l1.3,14.6l0.6,6.6l21.9,16.4c0,0,25.9,6.9,39.5,2.9c13.5-4,15.7-5.7,15.7-5.7l5,22.6c0,0,0.3-0.2,0.7-0.5l0.6,4l0.9,6.4
	C654.2,211.5,654.4,211.9,654.7,212.7z"/>
<path fill="#FFFFFF" stroke="#000000" stroke-miterlimit="10" d="M581.9,223.1c-0.6,3.4-1.7,7.3-3.8,9.7c0,0-3.5,1.3-9.5,3
	c-12.2,3.5-34.8,9-58.5,9.1c-23.9,0.2-41.7-6.1-53.9-9.9c1.7-23.5,6.9-43.4,9.8-53.2c12.9-0.5,24.3-3.2,32.6-10
	c15.9-12.1,24.6-14.3,43-19.4c5.9-1.7,10.7-2.9,14.5-4c1.6,2,4.2,4.8,7.7,7.3c-3.9,10.7-4.9,32.3,10,57.3
	C576,216.9,578.8,220.2,581.9,223.1z"/>
<path fill="#FFFFFF" stroke="#000000" stroke-miterlimit="10" d="M313.4,464.9c-9.5,1.6-15.7,9.1-18,12.5c-1.2-1-2.5-2-4.1-2.9
	c-3.2-1.9-7.4-3.9-12.9-6.4c-7.5-3.5-9.3-10.1-9.6-14.3c3.6-8,10.2-17.7,21.2-18.7c7.5-0.6,13.2,1,17.4,3.2
	C309.5,445,313.9,460.4,313.4,464.9z"/>
<path fill="#FFFFFF" stroke="#000000" stroke-miterlimit="10" d="M317.1,472.8c-8.9,0.4-15,6.2-17.8,9.7c-0.1-0.2-0.2-0.3-0.2-0.5
	c-0.9-1.8-2.2-3.3-3.7-4.7c2.3-3.4,8.5-10.9,18-12.5C314.1,470,317.1,472.8,317.1,472.8z"/>
<path fill="#FFFFFF" stroke="#000000" stroke-miterlimit="10" d="M321.9,500.1c-0.6,0.4-1.2,0.7-1.9,1c-3.8,1.5-6.8,1.1-9.3-0.4
	c-4-2.3-6.6-7.3-8.6-11.8c-1.1-2.5-2-4.8-2.7-6.4c2.8-3.5,8.9-9.3,17.8-9.7c0,0,1.8,2.3,3.6,3.5c0,0,0,0,0,0c0,0,0,0,0,0
	c0,0.1,0.1,0.2,0.2,0.3c0.1,0.1,0.2,0.3,0.3,0.5c0.2,0.3,0.5,0.8,0.8,1.3c0.2,0.3,0.3,0.6,0.5,0.9c0,0,0,0,0,0
	c1.8,3.6,2.9,7.3,3.6,10.7c0,0,0,0.1,0,0.1C326.4,494,325.6,497.8,321.9,500.1z"/>
<path fill="#FFFFFF" stroke="#000000" stroke-miterlimit="10" d="M302.1,488.9c-4,2.1-9.6,7.6-9.6,7.6s-0.8-1.7-1.7-3.7
	c-1.4-3.1-3-7.2-2.6-7.7c0.2-0.2,0.7-1.6,1.2-3.5c0.6-2.1,1.3-4.9,1.9-7.2c1.6,0.9,2.9,1.9,4.1,2.9c1.6,1.4,2.8,2.9,3.7,4.7
	c0.1,0.1,0.2,0.3,0.2,0.5C300.1,484.1,301,486.4,302.1,488.9z"/>
<path fill="#FFFFFF" stroke="#000000" stroke-miterlimit="10" d="M444.5,181c-1.8,8.3-6.9,32.5-8.9,52.8
	c-8.7,3.5-18.8,11.2-28.7,16.6c-12.7,7-23.4,10-27.1,9.6c-21.5-22.8-12.2-37.1-9-44.1c2.9-6.3,30.1-24.9,41.6-41.8
	c4.4,2.2,10.6,4.2,19.8,5.4C436.3,180.2,440.4,180.7,444.5,181z"/>
<path fill="#FFFFFF" stroke="#000000" stroke-miterlimit="10" d="M513.7,381.3c-9.5,0.1-19.6,0.6-29.9,1.5
	c4.7-4.9,11.4-12.4,16.7-18.1L513.7,381.3z"/>
<path fill="#FFFFFF" stroke="#000000" stroke-miterlimit="10" d="M535,381.8c-6.7-0.4-13.9-0.5-21.4-0.4l-13.3-16.7l-17.6-22.1
	L440,288.7v0c0-0.3,0-0.6,0-0.9l19.5-9.8c2.5,3.3,9.9,13.2,19.4,25.9v0c7.9,10.6,17.2,23.2,26.2,35.6c2.7,3.7,5.4,7.4,8,11.1
	C521.6,362.3,529.4,373.3,535,381.8z"/>
<path fill="#FFFFFF" stroke="#000000" stroke-miterlimit="10" d="M409.5,393.8c-9,2-15.6,3.8-19.8,5h-1.2
	c-2.3-10.8-2.8-24.3-2.5-37.4c4.1-0.6,9.6-1.9,11.9-4.8c0.6-0.7,1.3-1.6,2.3-2.6C398,362.7,395.1,381.8,409.5,393.8z"/>
<path fill="#FFFFFF" stroke="#000000" stroke-miterlimit="10" d="M446,328.3c-3.1,2.5-7.9,5.3-14.9,6.8c-12.2,2.5-25,13.1-30.8,19.1
	c-1,1-1.8,1.9-2.3,2.6c-2.3,2.9-7.8,4.2-11.9,4.8c0-0.5,0-1,0-1.5c14.8-23,41-61.1,48.6-72.2l1.6,1.9l3.3-1.7l0.5,0.7v0
	C440.6,299.5,442.2,318.6,446,328.3z"/>
<path fill="#FFFFFF" stroke="#000000" stroke-miterlimit="10" d="M482.8,342.6c-13.6-1-28.7-4.9-33.7-9.1c-1.2-1-2.2-2.8-3.1-5.1
	c-3.8-9.7-5.4-28.8-6-39.6L482.8,342.6z"/>
<path fill="#FFFFFF" stroke="#000000" stroke-miterlimit="10" d="M434.7,287.8c-7.6,11.1-33.8,49.2-48.6,72.2
	c-0.4,0.5-0.7,1.1-1,1.6c-5.4,8.4-9.1,14.5-9.4,16c-1.2,5.1,4.3,19.8,6.7,25.9c-2,2.7-4.9,6.7-6.7,9.1c-2.2-6.5-7.9-27,0.8-47.2
	c0,0,0-0.1,0-0.1c0,0,0,0,0,0s0,0,0,0c0,0,0,0,0,0c4.2-7.8,7.5-15.9,10.4-23.7c0.3-6.3,0.7-12,0.8-16.6v0c1-6,1.3-9.8,1.3-10.1
	c0,0,0,0,0,0c4-6.3,9.7-14.4,15.7-22.7c5.3-7.4,10.9-15,15.8-21.8L434.7,287.8z"/>
<path fill="#FFFFFF" stroke="#000000" stroke-miterlimit="10" d="M446.9,446.3c-3.6,0-7,0.1-10.2,0.2c-0.2-4.2-0.6-13.8-0.6-18.6
	c3.2-0.2,6.6-0.5,10.2-0.6C446.4,432.1,446.6,440.7,446.9,446.3z"/>
<path fill="#FFFFFF" stroke="#000000" stroke-miterlimit="10" d="M385.4,403.1l-2.6,53.2c-5.6,0.3-11.1,4.3-11.1,4.3s-0.6-46,2.1-46
	c0.1,0,0.8-0.8,1.8-2.1c1.9-2.4,4.8-6.4,6.7-9.1c1.2-1.7,2.1-3,2.1-3s0.1,0,0.2-0.1l0.2,2.7L385.4,403.1z"/>
<path fill="#FFFFFF" stroke="#000000" stroke-miterlimit="10" d="M394.7,402l-1.3,53.3l-9.9,1c-0.3,0-0.5,0-0.8,0l2.6-53.2
	L394.7,402z"/>
<path fill="#FFFFFF" stroke="#000000" stroke-miterlimit="10" d="M384.9,461.4c0,0-6.6,1.6-8.3,4.6c-2.4-2.5-4.9-5.3-4.9-5.3
	s5.5-4,11.1-4.3v0L384.9,461.4z"/>
<path fill="#FFFFFF" stroke="#000000" stroke-miterlimit="10" d="M564.9,449.6l-3-53.7v52.7l-12.6-2.9l-2.6-59.4h12.1l2.8,4.8
	l-0.2-3.7l5.4-0.4c-0.3-0.2-0.6-0.4-0.9-0.7c-8.3-2.4-18.9-3.9-30.9-4.5c-6.7-0.4-13.9-0.5-21.4-0.4c-9.5,0.1-19.6,0.6-29.9,1.5
	c-10.5,0.8-21.3,2-32.1,3.5c-17.4,2.4-31.5,5.1-42.2,7.5c-9,2-15.6,3.8-19.8,5h9.7v5.6c5.8-0.3,16.9-2.7,31.8-5.9
	c3-0.6,6.1-1.3,9.3-2c1-0.2,2.1-0.4,3.2-0.6c7.7-1.2,17.3-1.7,26.4-1.7c-0.1-0.2-0.2-0.5-0.4-0.7c-3.2-0.5-3.4-7.4-3.4-7.4l14.8-0.9
	l8-0.5c0,0-2.2,7.9-3.3,9.9c7.7,0.5,13.3,1.2,14,1.8c0,0,6.6-3.2,3-5.5c-3.6-2.3-6.1-6.2-6.1-6.2h21.9c0,0-0.4,0.6-1.1,1.5
	c-1.5,2.2-4.2,6.1-4.1,6.9c0.2,1.1,5.2,2.7,5.2,2.7v45.8h-17.6c-2.4,4.6-4.3,5.8-4.3,5.8s-4.3-0.2-11-0.5c-4.4-0.2-9.8-0.4-15.6-0.5
	c-7.6-0.2-15.8-0.3-23.4-0.2c-3.6,0-7,0.1-10.2,0.2c-4.8,0.2-9,0.5-12,1c-11.8,1.9-20.8,3.3-25.3,3.9v8.8l-14.5,1.1
	c0,0-6.6,1.6-8.3,4.6c0.4,0.5,0.8,0.9,1.2,1.3c0.3,0.3,0.5,0.6,0.8,0.8c0.8,0.8,1.4,1.4,1.7,1.6c0.8,0.7,1.5-1.1,12.4-4.1
	c0,0,0,0,0,0c9.9-2.7,28.3-6.5,63-10.4c13.8-1.6,26.5-2.4,38-2.9c49.2-1.8,76.8,5,76.8,5l1.4-2L564.9,449.6z M527.7,441.8l-2.1-57.6
	l11.5,0.5l3.7,0.2c0,0,2.7,4.5,2.8,5.7c0.2,1.2-2.5,1.6-1.4,3c1.1,1.4,1.4,48.1,1.4,48.1H527.7z"/>
<path fill="#FFFFFF" stroke="#000000" stroke-miterlimit="10" d="M577.2,396.2v51.5l-7.5-2.4l0-0.2l-1.8-49.9l-6.5-7.8l5.4-0.4
	C575.7,393.5,577.2,396.2,577.2,396.2z"/>
<polygon fill="#FFFFFF" stroke="#000000" stroke-miterlimit="10" points="577.2,447.6 577.2,447.8 571.9,455.4 564.9,449.6 
	569.7,445.1 569.8,445.2 "/>
<path fill="#FFFFFF" stroke="#000000" stroke-miterlimit="10" d="M570.5,471.2c-14.9-0.5-77.5-0.3-110.1,37.2
	c1-1.7,14.8-42.8,33.3-56c49.2-1.8,76.8,5,76.8,5C570.2,463.5,570.3,467.8,570.5,471.2z"/>
<path fill="#FFFFFF" stroke="#000000" stroke-miterlimit="10" d="M580.4,522.6c-66.6-9.1-103.6,10.1-115.7,18.5
	c-0.2-5.9-0.3-10.7-0.5-11.7c0-0.2-0.1-0.6-0.2-1.1c0.7,0,32-37.4,111.2-37.3c1.1,3.7,2.2,8.7,3.5,16
	C579.4,511.6,580,516.9,580.4,522.6z"/>
<path fill="#FFFFFF" stroke="#000000" stroke-miterlimit="10" d="M580.8,576.8c-73.9-6.1-104.1,2.7-112.9,5
	c0.5-5.8,0.8-11.3,0.2-14.3c-0.2-0.7-0.4-1.3-0.6-1.7c-0.4-0.6-0.8-1.7-1.1-3.2c6.7-5,41.5-27.2,114.9-18
	C581.4,555.9,581.2,567.3,580.8,576.8z"/>
<path fill="#FFFFFF" stroke="#000000" stroke-miterlimit="10" d="M581.3,544.6c-73.4-9.1-108.1,13-114.9,18
	c-0.8-3.9-1.2-10.3-1.5-16.4c-0.1-1.7-0.2-3.4-0.2-5v0c12-8.4,49.1-27.6,115.7-18.5C580.9,529.5,581.2,537,581.3,544.6z"/>
<path fill="#FFFFFF" stroke="#000000" stroke-miterlimit="10" d="M580.8,576.8c-0.6,12.8-1.4,22.3-2.1,23.6
	c-1.8,3.6-1.4,19.6-4.3,24.6c-2.9,5-10,43.1-11.8,48.1c-1.8,5,1.4,13.9,0.4,20.3c-1.1,6.4-3.6,15-3.2,18.5
	c0.4,3.6,13.2,40.3,12.1,70.9c-0.2,4.9-0.5,9.9-0.9,14.8h0c0,0-2.3,11.3-44.7,9.7c-42.4-1.6-41.2-8.9-41.2-8.9s0,0-0.9-8.6
	c-0.9-8.5,3.4-24.6,3.6-28.2c0.2-3.6-3.6-8.2-1.8-11.8c1.8-3.6,6.1-15.9,3.9-26c-2.1-10.2-4.1-26-8.7-36.9
	c-4.6-10.9-5.7-53.5-6.7-59c-0.7-3.8-3-11.3-4.9-18.4c-0.5-2.1-1.1-4.1-1.5-6c-0.2-1-0.5-2.1-0.6-3c-0.6-3-0.4-7.5,0-12.5
	c0.1-2.1,0.3-4.2,0.5-6.3C476.7,579.5,506.9,570.7,580.8,576.8z"/>
<path fill="#FFFFFF" stroke="#000000" stroke-miterlimit="10" d="M469.6,609.6c-20.6,2-63.4-1.8-82-3.7c-1.8-6.2-4-14.1-6.5-22.9
	c16.2,1.7,60,5.8,86.3,5.1c-0.3,4.9-0.5,9.5,0,12.5c0.2,1,0.4,2,0.6,3C468.5,605.5,469,607.5,469.6,609.6z"/>
<path fill="#FFFFFF" stroke="#000000" stroke-miterlimit="10" d="M487.8,761.7c-0.2,3.6-4.5,19.6-3.6,28.2c0.9,8.6,0.9,8.6,0.9,8.6
	s-1.1,0.3-2.8,0.9h0c-7.3,0.5-34,2-40.5,1.4c-0.6-2.1-1.2-4.4-1.8-6.9c-5.6-24.4-9.9-67.1-8.9-76.5c-10.7-15-15.3-37.4-20-46.7
	c-4.6-9.3-17.5-27.4-17.7-30.7c-0.2-3.2-1.9-18.2-1.9-20c0-0.6-1.6-5.9-3.9-14.1c18.6,1.9,61.4,5.7,82,3.7
	c1.9,7.1,4.2,14.6,4.9,18.4c1,5.5,2.1,48.1,6.7,59c4.6,10.9,6.6,26.7,8.7,36.9c2.1,10.2-2.1,22.5-3.9,26
	C484.2,753.5,488,758.1,487.8,761.7z"/>
<path fill="#FFFFFF" stroke="#000000" stroke-miterlimit="10" d="M485.4,955.2c-10.2,3.1-34.8,10-50.5,10.5
	c-1.1-19.1-15.7-42.6-22.1-44.2c12.5-4.6,30.7-30.8,33-37.8c1.9-5.6,4.1-29.3,4.8-38.1c-0.6,0-0.9-0.1-0.9-0.1s-0.1-2.3-0.5-6.2
	c6.4,0.3,14.5,0.1,23.7-1.6c0,0,0,0,0,0c0.9,1,4.5,3.5,12,5.8c-0.1,1-0.2,2.4-0.3,4.3c-1.3,0.2-5.4,0-10.2-0.3
	c-0.6,7.9-2.5,29-5.7,37.9c-1,2.7-3.5,6.8-6.7,11.3c-4.1,5.8-9.3,12.4-14.1,18.3c-7,8.5-12.9,15.3-12.9,15.3l4.5,3.9
	c0,0,13,0.6,26.1-1.2c6.8-0.9,13.7-2.5,18.9-5.2C483.2,934,482.2,944.2,485.4,955.2z"/>
<path fill="#FFFFFF" stroke="#000000" stroke-miterlimit="10" d="M512.6,909.5c-4,1-18.9,16.4-22.5,18.1c-1.1,0.5-2.1-0.2-3.1-1.3
	c-0.6-0.8-1.2-1.8-1.7-2.9c0.2-0.8,0.3-1.2,0.3-1.2l1-4.1c0,0,0,0,0,0l3.5-14.1c0,0-2-9.6-1.6-17.1c-5.3-9.8-4.7-29.5-4-39.1
	c0.1-1.9,0.3-3.4,0.3-4.3c4.7,1.4,11,2.7,19.1,3.5c0,0.1,0,0.2,0,0.3C505.6,858.6,513.5,898.1,512.6,909.5z"/>
<path fill="#FFFFFF" stroke="#000000" stroke-miterlimit="10" d="M468.1,567.5c-44.8-3-82-0.5-91.1,0.2c-1.7-6.5-3.4-13.2-5-20
	c10.4-1.8,47.9-7.1,92.9-1.4c0.3,6.1,0.7,12.5,1.5,16.4c0.3,1.5,0.6,2.6,1.1,3.2C467.7,566.2,467.9,566.8,468.1,567.5z"/>
<path fill="#FFFFFF" stroke="#000000" stroke-miterlimit="10" d="M465,546.2c-45-5.7-82.5-0.3-92.9,1.4c-0.8-3.3-1.5-6.7-2.3-10
	c-1.3-6-2-11.9-2.2-17.6c17.7-0.4,78.3,0.3,96.4,8.3c0,0,0,0,0,0c0.1,0.5,0.2,0.9,0.2,1.1c0.2,0.9,0.3,5.8,0.5,11.7v0
	C464.8,542.8,464.9,544.5,465,546.2z"/>
<path fill="#FFFFFF" stroke="#000000" stroke-miterlimit="10" d="M464,528.4c-18.1-8.1-78.7-8.7-96.4-8.3c-0.2-6.3,0.2-12.3,1-17.8
	c17.9,0.7,72,3.8,92.2,8.8v0C461.6,515.4,463.3,524.8,464,528.4z"/>
<path fill="#FFFFFF" stroke="#000000" stroke-miterlimit="10" d="M460.8,510.9c-20.2-4.9-74.3-8-92.2-8.8c2.2-15.9,7.3-28.3,10-34
	c0.8,0.8,1.4,1.4,1.7,1.6c0.8,0.7,1.5-1.1,12.4-4.1c0,0,0,0,0,0c5.2,2,12,6.2,17.4,15.3c10.2,17.1,46.8,31.4,50.3,27.5
	C460.3,508.5,460.5,509.4,460.8,510.9z"/>
<path fill="#FFFFFF" stroke="#000000" stroke-miterlimit="10" d="M467.9,581.8c-0.2,2.1-0.3,4.2-0.5,6.3
	c-26.3,0.7-70.1-3.4-86.3-5.1c-1.3-4.9-2.7-10-4.1-15.3c9.1-0.7,46.2-3.1,91.1-0.2C468.7,570.5,468.4,576,467.9,581.8z"/>
<path fill="#FFFFFF" stroke="#000000" stroke-miterlimit="10" d="M575.2,491C496,491,464.8,528.4,464,528.4c0,0,0,0,0,0
	c-0.7-3.5-2.4-12.9-3.2-17.4v0c-0.3-1.5-0.5-2.5-0.5-2.5c32.6-37.5,95.3-37.7,110.1-37.2C571,480.4,572.8,482.6,575.2,491z"/>
<path fill="#FFFFFF" stroke="#000000" stroke-miterlimit="10" d="M572.1,941.9c0,0-3.7-1.2-9.4-2.3c-3.8-8.8-11.4-27.7-11.8-35.4
	c-0.4-8.2,0.6-42.8,1-56.3c0-0.7,0-1.4,0.1-2c5.4-0.6,9.4-1.3,12.5-2.2c-0.5,2.7-0.8,4.3-0.8,4.3s-1.3,1.2-4.6,10
	s-1.7,12.4-0.5,17.3c1.2,5-2.6,13.5-4,18.3c-1.4,4.8-0.9,7.1,3.3,14C562.2,914.5,572.1,941.9,572.1,941.9z"/>
<path fill="#FFFFFF" stroke="#000000" stroke-miterlimit="10" d="M590.1,976.5c-0.6,6.8-2.8,13.6-8.8,17.1
	c-13.4,7.8-28.3,6.4-53.7,4.6c-25.3-1.8-29.9-14.3-29.9-14.3s-9.3-0.4-12.5-5.3c-0.3-1.2-0.4-3-0.4-5.1c0.1-5.1,0.8-12.2,1.5-16.9
	c5.9,7.8,10.5,9.5,11.9,9.2c1.4-0.4,6.4,5.1,6.4,5.1s8.4,16.6,44.1,14.5C571.7,984,584.1,979.5,590.1,976.5z"/>
<path fill="#FFFFFF" stroke="#000000" stroke-miterlimit="10" d="M590.1,976.5c-6,3-18.4,7.5-41.4,8.9
	c-35.6,2.1-44.1-14.5-44.1-14.5s-1-10.1,6.7-19.3c0.7,0.9,1.1,1.6,1.2,1.9c-0.1,0.1-0.1,0.1,0,0.1c0,0,0-0.1,0-0.1
	c0.5-0.6,4.7-3.4,4.7-3.4l-0.4-3.6c1.9-1.4,4.2-2.8,6.8-4c4-1.9,8.3-3,12.6-3.7c4.5-0.7,9-0.9,13.2-0.7c5,0.2,9.6,0.9,13.3,1.6
	c5.7,1.1,9.4,2.3,9.4,2.3s15.1,12.8,16.2,16C588.9,959.7,590.8,968.1,590.1,976.5z"/>
<path fill="none" stroke="#000000" stroke-miterlimit="10" d="M594.7,973.6c0,0-1.3,1.2-4.6,2.9"/>
<path fill="#FFFFFF" stroke="#000000" stroke-miterlimit="10" d="M434.8,965.8c0,0-37.8-1.1-64.5-4.2c-1.4-0.9-2.4-1.9-3.2-3.1
	c0,0,0,0,0,0c-4-5.9-0.6-14.2-0.6-14.2l24.7-18.8l21.4-3.9C419.2,923.2,433.8,946.7,434.8,965.8z"/>
<path fill="#FFFFFF" stroke="#000000" stroke-miterlimit="10" d="M486.4,956.6c-0.6,4.7-1.4,11.8-1.5,16.9
	c-7.3,1.7-19.9,5.6-36.8,7.3c-22.1,2.2-78.2-0.9-80.5-4.3c-1.7-2.4-0.9-12.7-0.4-18c0.8,1.1,1.8,2.2,3.2,3.1
	c26.6,3.1,64.5,4.2,64.5,4.2c15.8-0.5,40.3-7.4,50.5-10.5v0C485.7,955.7,486,956.2,486.4,956.6z"/>
<path fill="#FFFFFF" stroke="#000000" stroke-miterlimit="10" d="M391.3,925.5l-24.7,18.8c0,0-7.3-22.3-7.7-37.6
	C372.5,918.5,391.3,925.5,391.3,925.5z"/>
<path fill="#FFFFFF" stroke="#000000" stroke-miterlimit="10" d="M516.8,946.4c-2.2,1.6-4,3.4-5.5,5.2c-2.5-3.3-7.6-9.7-7.6-9.7
	l11.4-11.4L516.8,946.4z"/>
<path fill="none" stroke="#000000" stroke-miterlimit="10" d="M517.2,950c0,0-4.1,2.8-4.7,3.4c-0.1-0.3-0.6-1-1.2-1.9
	c1.5-1.8,3.3-3.5,5.5-5.2L517.2,950z"/>
<path fill="#FFFFFF" stroke="#000000" stroke-miterlimit="10" d="M490.1,904.1l-3.5,14.1c-6.2-8.1-17.3-16.4-24.8-21.3
	c3.2-4.6,5.7-8.6,6.7-11.3c3.2-8.9,5.1-30,5.7-37.9c4.9,0.3,8.9,0.5,10.2,0.3c-0.7,9.6-1.2,29.3,4,39.1
	C488.1,894.5,490.1,904.1,490.1,904.1z"/>
<path fill="#FFFFFF" stroke="#000000" stroke-miterlimit="10" d="M465.4,933.2c-13.1,1.8-26.1,1.2-26.1,1.2l-4.5-3.9
	c0,0,6-6.8,12.9-15.3C451.6,918.7,460.8,927.1,465.4,933.2z"/>
<path fill="#FFFFFF" stroke="#000000" stroke-miterlimit="10" d="M486.6,918.2C486.6,918.2,486.6,918.2,486.6,918.2l-1,4.1
	c0,0-0.1,0.4-0.3,1.2c-0.3,1-0.7,2.5-1,4.5c-5.1,2.7-12,4.3-18.9,5.2c-4.6-6.1-13.8-14.5-17.6-18c4.8-5.9,10-12.5,14.1-18.3
	C469.4,901.7,480.4,910.1,486.6,918.2z"/>
<path fill="#FFFFFF" stroke="#000000" stroke-miterlimit="10" d="M472.8,837.8c-9.2,1.7-17.3,1.9-23.7,1.6
	c-10.1-0.5-16.2-2.5-16.2-2.5s-5.6-25.1-6.4-32.2c0.7,1.6,2.6,3,6.9,3.3c2.5,0.2,6.1,0.1,10.3,0c8.3-0.2,18.8-0.9,26.6-1.5v0
	C468.9,810.9,470.8,835.7,472.8,837.8z"/>
<path fill="#FFFFFF" stroke="#000000" stroke-miterlimit="10" d="M482.3,799.3c-0.1,0-0.2,0.1-0.4,0.1c-4,1.4-10.6,4.1-11.6,7.1
	c-7.8,0.6-18.3,1.2-26.6,1.5c-4.2,0.1-7.8,0.1-10.3,0c-4.3-0.3-6.2-1.6-6.9-3.3c-0.1-0.8-0.1-1.4,0-1.7c0.5-2,9.8-7.2,13.6-9.3
	c0.6,2.5,1.2,4.8,1.8,6.9C448.3,801.3,475,799.8,482.3,799.3z"/>
<path fill="#FFFFFF" stroke="#000000" stroke-miterlimit="10" d="M562.7,939.5c-3.7-0.7-8.3-1.4-13.3-1.6c-3.5-9.4-12-33-13.2-41.5
	c-1.2-8.7-0.4-38-0.1-48.9c0-0.2,0-0.3,0-0.5c6.4-0.4,11.6-0.8,15.9-1.3c0,0.6,0,1.2-0.1,2c-0.4,13.5-1.4,48.1-1,56.3
	C551.3,911.8,559,930.7,562.7,939.5z"/>
<path fill="#FFFFFF" stroke="#000000" stroke-miterlimit="10" d="M549.4,938c-4.2-0.2-8.7,0-13.2,0.7c-0.2-7.7-0.8-34.6-1.4-41.9
	c-0.6-7.2-7.2-39-9.3-49.1c1,0,2-0.1,3.1-0.1h0c2.7-0.1,5.2-0.2,7.5-0.4c0,0.1,0,0.3,0,0.5c-0.3,10.9-1,40.2,0.1,48.9
	C537.4,905,545.9,928.6,549.4,938z"/>
<path fill="#FFFFFF" stroke="#000000" stroke-miterlimit="10" d="M536.2,938.6c-4.3,0.7-8.5,1.8-12.6,3.7c-2.6,1.2-4.9,2.6-6.8,4
	l-1.8-15.9l-11.4,11.4c0,0,5.2,6.3,7.6,9.7c-7.7,9.2-6.7,19.3-6.7,19.3s-5-5.5-6.4-5.1c-1.4,0.3-5.9-1.4-11.9-9.2
	c0.1-0.6,0.2-1.2,0.2-1.7c-0.4,0.1-0.8,0.2-1.2,0.4c-3.1-11-2.2-21.2-1.1-27.3c1-0.5,1.9-1.1,2.8-1.7c0.9,1.2,2,1.8,3.1,1.3
	c3.6-1.7,18.5-17.1,22.5-18.1c1-11.4-7-50.9-8.6-62.2c0-0.1,0-0.2,0-0.3c1.2,0.1,2.4,0.2,3.6,0.3c0,0,0,0,0,0
	c5.2,0.3,11.2,0.5,17.9,0.3c2.1,10.1,8.7,41.9,9.3,49.1C535.4,904,536,931,536.2,938.6z"/>
<path fill="#FFFFFF" stroke="#000000" stroke-miterlimit="10" d="M576.3,836.4c-2.7,3-4.8,5.4-11.8,7.3c-3.1,0.8-7.1,1.5-12.5,2.2
	c-4.3,0.5-9.6,0.9-15.9,1.3c-2.4,0.1-4.9,0.3-7.5,0.4h0c-1,0-2.1,0-3.1,0c0,0,0,0.1,0,0.1c-6.7,0.2-12.7,0.1-17.9-0.3c0,0,0,0,0,0
	c-1.2-0.1-2.5-0.2-3.6-0.3c-8.2-0.7-14.4-2.1-19.1-3.5c-7.5-2.3-11.1-4.8-12-5.8c0,0,0,0,0,0c-2-2.2-3.9-27-2.5-31.3v0
	c1-3,7.6-5.7,11.6-7.1c0.1,0,0.2-0.1,0.4-0.1h0c1.6-0.6,2.8-0.9,2.8-0.9s-1.2,7.3,41.2,8.9c42.4,1.6,44.7-9.7,44.7-9.7h0v0l7.7,5.6
	C578.7,803.3,581.5,830.7,576.3,836.4z"/>
<polygon fill="#FFFFFF" stroke="#000000" stroke-miterlimit="10" points="399.4,459.7 399.4,460.3 384.9,461.4 382.7,456.4 
	383.5,456.3 393.4,455.3 "/>
<path fill="#FFFFFF" stroke="#000000" stroke-miterlimit="10" d="M399.4,398.9l-4.6,3.1l-9.4,1.1l-0.5,0.1l-0.2-2.7
	c0.5-0.2,1.8-0.6,4-1.3c0.3-0.1,0.7-0.2,1.1-0.3H399.4z"/>
<path fill="#FFFFFF" stroke="#000000" stroke-miterlimit="10" d="M518.8,396v45.8h-17.6c1-2,2.2-4.7,3.3-8.2
	c-1.3-0.6-2.7-1.1-4.2-1.6l-0.4-32.9c0,0,0,0,0,0c0.5-1.1,0.5-1.9,0-2.4c0,0,6.6-3.2,3-5.5c-3.6-2.3-6.1-6.2-6.1-6.2h19.7l1.2,1.5
	c-1.5,2.2-4.2,6.1-4.1,6.9C513.8,394.4,518.8,396,518.8,396z"/>
<path fill="#FFFFFF" stroke="#000000" stroke-miterlimit="10" d="M504.5,433.6c-1.1,3.5-2.3,6.2-3.3,8.2c-2.4,4.6-4.3,5.8-4.3,5.8
	s-4.3-0.2-11-0.5c-4.4-0.2-9.8-0.4-15.6-0.5c-7.6-0.2-15.8-0.3-23.4-0.2c-0.2-5.6-0.5-14.2-0.6-19c7.5-0.3,15.7-0.5,23.8-0.1
	c5.4,0.2,10.7,0.7,15.8,1.5c5.2,0.8,10.1,1.8,14.4,3.3C501.8,432.5,503.2,433,504.5,433.6z"/>
<path fill="#FFFFFF" stroke="#000000" stroke-miterlimit="10" d="M543.6,441.8h-15.9l-2.1-57.6l11.5,0.5l3.7,0.2
	c0,0,2.7,4.5,2.8,5.7c0.2,1.2-2.5,1.6-1.4,3C543.2,395.1,543.6,441.8,543.6,441.8z"/>
<polygon fill="#FFFFFF" stroke="#000000" stroke-miterlimit="10" points="561.9,395.9 561.9,448.6 549.3,445.7 546.7,386.3 
	558.8,386.3 561.6,391.1 "/>
<polygon fill="#FFFFFF" stroke="#000000" stroke-miterlimit="10" points="569.7,445.1 564.9,449.6 561.9,395.9 561.9,391.5 
	561.6,391.1 561.4,387.4 568,395.2 "/>
<path fill="#FFFFFF" stroke="#000000" stroke-miterlimit="10" d="M489.2,384.9c0,0-2.2,7.9-3.3,9.9c-4.7-0.3-10.1-0.5-15.8-0.5
	c-0.1-0.2-0.2-0.5-0.4-0.7c-3.2-0.5-3.4-7.4-3.4-7.4l14.8-0.9L489.2,384.9z"/>
<path fill="#FFFFFF" stroke="#000000" stroke-miterlimit="10" d="M485.9,428.7c-5.1-0.8-10.4-1.2-15.8-1.5l-0.2-15.8
	c5.1-0.2,10.3-0.1,15.6,0.3C485.6,417.1,485.8,423.2,485.9,428.7z"/>
<path fill="#FFFFFF" stroke="#000000" stroke-miterlimit="10" d="M432,416.6c-8.8,2.1-14.3,4.1-14.3,4.3c0,0.5-13.8,1-18.3,1.2
	v-17.6c5.8-0.3,16.9-2.7,31.8-5.9L432,416.6z"/>
<path fill="#FFFFFF" stroke="#000000" stroke-miterlimit="10" d="M436.7,446.6c-4.8,0.2-9,0.5-12,1c-11.8,1.9-20.8,3.3-25.3,3.9v-17
	c4.3-1,12.1-3.1,18.2-4.3c2.7-0.5,9.6-1.5,18.5-2.2C436.1,432.8,436.5,442.4,436.7,446.6z"/>
<path fill="#FFFFFF" stroke="#000000" stroke-miterlimit="10" d="M470.1,427.3c-8.1-0.4-16.3-0.3-23.8,0.1
	c-3.6,0.2-7.1,0.4-10.2,0.6c-9,0.7-15.8,1.6-18.5,2.2c-6.1,1.2-13.9,3.4-18.2,4.3v-12.3c4.5-0.2,18.3-0.7,18.3-1.2
	c0-0.2,5.5-2.2,14.3-4.3c3.4-0.8,7.4-1.7,11.7-2.4c7.7-1.4,16.7-2.5,26.2-2.8L470.1,427.3z"/>
<polygon fill="#FFFFFF" stroke="#000000" stroke-miterlimit="10" points="399.4,398.9 399.4,459.7 393.4,455.3 394.7,402 "/>
<path fill="#FFFFFF" stroke="#000000" stroke-miterlimit="10" d="M499.9,399.1C499.9,399.1,499.9,399.1,499.9,399.1
	c-1.3,2.7-5.5,7.2-10.7,13c-1.2-0.1-2.5-0.2-3.7-0.3c-5.3-0.4-10.5-0.4-15.6-0.3c-9.5,0.3-18.4,1.4-26.2,2.8v-18.1
	c7.7-1.2,17.3-1.7,26.4-1.7c5.7,0,11.1,0.2,15.8,0.5c7.7,0.5,13.3,1.2,14,1.8L499.9,399.1z"/>
<path fill="#FFFFFF" stroke="#000000" stroke-miterlimit="10" d="M443.8,396.1v18.1c-4.3,0.8-8.3,1.6-11.7,2.4l-0.8-18
	c3-0.6,6.1-1.3,9.3-2C441.6,396.5,442.6,396.3,443.8,396.1z"/>
<path fill="#FFFFFF" stroke="#000000" stroke-miterlimit="10" d="M500.3,432c-4.3-1.4-9.2-2.5-14.4-3.3c-0.1-5.6-0.2-11.6-0.3-17
	c1.2,0.1,2.4,0.2,3.7,0.3c5.2-5.8,9.5-10.2,10.7-12.9L500.3,432z"/>
<path fill="#FFFFFF" stroke="#000000" stroke-miterlimit="10" d="M493.7,452.5c-18.5,13.2-32.3,54.3-33.3,56
	c-3.4,3.9-40.1-10.3-50.3-27.5c-5.4-9.1-12.1-13.3-17.4-15.3c9.9-2.7,28.3-6.5,63-10.4C469.5,453.8,482.2,452.9,493.7,452.5z"/>
<path fill="#FFFFFF" stroke="#000000" stroke-miterlimit="10" d="M644.2,500.1l-13,30.3c-0.8-2.4-2.1-6-3.7-6.6
	c-1.1-0.4-2.9-1.6-4.5-2.7c-1.9-1.3-3.6-2.6-3.9-2.6c-0.5-0.2,8.4-15.2,8.4-15.2s0.1,5.3,3.9,5.6c0,0,0,0,0,0
	c0.9,0.1,2.1-0.1,3.5-0.8C641.6,505,643.8,500.9,644.2,500.1z"/>
<path fill="#FFFFFF" stroke="#000000" stroke-miterlimit="10" d="M687.4,500.8c0,0-0.3,1.6-0.8,4.1l0,0c-1.7,1.9-5.5,3.3-11.5,3.6v0
	c-6.2,0.3-14.8-0.6-26-3.4c-0.3-0.1-0.6-0.2-0.9-0.2c-3-2.3-3.9-4.9-3.9-4.9s25.1,6.6,31.6,2c1.6-1.1,2.1-3,0.7-5.9v0
	c0-0.4,0.1-0.9,0.2-1.3C679.6,495.2,685.5,496.6,687.4,500.8z"/>
<path fill="#FFFFFF" stroke="#000000" stroke-miterlimit="10" d="M649.1,505.1l-16.2,38.5c-0.5,0-1,0-1.5,0l-3.8-4.7l3.7-8.5
	l13-30.3l0.1-0.1c0,0,0.9,2.6,3.9,4.9C648.5,505,648.8,505,649.1,505.1z"/>
<path fill="#FFFFFF" stroke="#000000" stroke-miterlimit="10" d="M686.6,504.9c-2,9.7-7.7,33.4-16.3,39.9c-10.9,8.2-38,0-38,0
	l0.5-1.2l16.2-38.5c11.2,2.8,19.8,3.7,26,3.4v0C681.1,508.2,684.8,506.8,686.6,504.9z"/>
<path fill="#FFFFFF" stroke="#000000" stroke-miterlimit="10" d="M310.7,500.7c-3.9,3.5-11.8,10.3-17.8,13.9
	c-5.8,3.5-12.2,2.1-15.6,1c-1.1-4.5-0.7-8.2,0.2-11.1c0,0,0,0,0,0c1.6-4.8,4.6-7.3,4.6-7.3l8.7-4.4c0.9,2,1.7,3.7,1.7,3.7
	s5.6-5.5,9.6-7.6C304,493.4,306.7,498.4,310.7,500.7z"/>
<path fill="#FFFFFF" stroke="#000000" stroke-miterlimit="10" d="M290.8,492.8l-8.7,4.4c0,0-3,2.5-4.6,7.3
	c-5-6.6-9.5-18.2-12.3-26.1c0-0.1,0-0.2,0-0.2l10.2,8.3l13.8-4.8c-0.5,1.8-1,3.2-1.2,3.5C287.7,485.7,289.4,489.7,290.8,492.8z"/>
<path fill="#FFFFFF" stroke="#000000" stroke-miterlimit="10" d="M312.1,532.9c-0.1,0-0.2,0.1-0.4,0.3c-2.6,1.6-4.8,2.8-6.1,3.3
	c-4,1.4-25,3.6-32.8-9c-5.8-9.2-8-28-7.4-49c2.8,7.9,7.3,19.5,12.3,26.1c0,0,0,0,0,0c-0.9,2.9-1.4,6.6-0.2,11.1c0.7,2.8,2,6,4.2,9.4
	c0.9,1.4,1.8,2.6,2.8,3.6c4.7,5.1,10.2,6.8,15,6.9h0C306,535.8,311.5,533.2,312.1,532.9z"/>
<path fill="#FFFFFF" stroke="#000000" stroke-miterlimit="10" d="M326.7,523.4c-3.2,2-9.4,6.3-14.5,9.4c0,0,0,0-0.1,0
	c-0.6,0.3-6.1,2.9-12.7,2.7c2.6-1.5,15.7-14,19.2-17.8c3.6-3.8,8.8-16.4,8.8-16.4c0.2,0.7,1.7,3.8,2.6,7.4
	C330.9,512.2,331.7,520.3,326.7,523.4z"/>
<path fill="#FFFFFF" stroke="#000000" stroke-miterlimit="10" d="M311.7,533.2c-1.1,0.8-4.2,2.9-8.7,7c-25.8,4.5-36.5-6.6-44.4-27.9
	c-7.8-21.3,5.3-35.2,5.3-35.2l1.2,1c0,0.1,0.1,0.2,0.1,0.3c-0.6,21.1,1.7,39.8,7.4,49c7.8,12.6,28.8,10.5,32.8,9
	C306.9,536,309.1,534.8,311.7,533.2z"/>
<path fill="#FFFFFF" stroke="#000000" stroke-miterlimit="10" d="M321.9,500.1c-1,3.2-3.7,8.6-11.2,16.7
	c-8.7,9.6-19.8,11.5-26.4,11.8c-1-1-1.9-2.2-2.8-3.6c-2.2-3.4-3.5-6.6-4.2-9.4c3.4,1.1,9.8,2.5,15.6-1c6-3.6,13.9-10.4,17.8-13.9
	c2.5,1.5,5.6,1.9,9.3,0.4C320.7,500.8,321.4,500.5,321.9,500.1z"/>
<path fill="#FFFFFF" stroke="#000000" stroke-miterlimit="10" d="M693.7,382.7c0.1-5,0.2-9.9,0.2-14.7c0,0,0,0.1,0.1,0.1
	C696.7,373.5,696.1,378.5,693.7,382.7z"/>
<path fill="#FFFFFF" stroke="#000000" stroke-miterlimit="10" d="M701.3,378.9c-1.8,3.8-4.3,7.5-7.8,10.6c0.1-2.2,0.1-4.5,0.2-6.7
	c2.4-4.3,3.1-9.2,0.3-14.6c0,0,0-0.1-0.1-0.1c-10.1-19.5-38.9-27.1-56-14.5c-1.9,1.4-3.5,2.8-5,4.2v0c-11.3,11.3-9.4,23.4-8.6,25
	c0,0,0,0.1,0,0.1c3.5,5.8,6.8,9.7,7.3,11.7c0.1,0.6,0.3,1.3,0.4,2.1c-3.5-1.1-6.6-2.9-9.1-5.1c-3.2-4.8-6.1-11.9-4.5-20.9v0
	c0.7-4,2.2-8.4,5-13.1c3.2-5.4,7.3-9.4,11.8-12.3c17-11,40.6-6.4,51.7-1c2.7,1.3,5,3,7,5C700.7,356.1,703.5,366.7,701.3,378.9z"/>
<path fill="#FFFFFF" stroke="#000000" stroke-miterlimit="10" d="M701.3,378.9c2.2-12.2-0.6-22.8-7.3-29.6c-2-2-4.4-3.7-7-5
	c-11.1-5.4-34.7-10-51.7,1c-4.5,2.9-8.6,6.9-11.8,12.3c-2.8,4.7-4.4,9.1-5,13.1v0c-1.5,9,1.3,16,4.5,20.9
	c-9.7-8.4-12.8-23-12.3-32.5c0.2-3.6,1.4-8.9,3.8-14.5c0,0,0,0,0,0c4.6-10.4,13.6-22,29.3-26.4c5.4-1.5,11.6-2.2,18.7-1.7
	c15.2,1.1,24.9,5.8,31.1,11.1c9.6,8.2,10.8,17.9,10.8,17.9S708.4,363.8,701.3,378.9z"/>
<path fill="#FFFFFF" stroke="#000000" stroke-miterlimit="10" d="M371.6,386.3c0,0-6.5,19-16.5,21.7c-1.7-1.9-3.8-4-6.2-6.1
	c-12.7-11.1-34.5-24.3-49.5-30c-4.4-1.7-8-2.8-11.1-3.4c-2.5-0.5-4.6-0.8-6.4-0.9c-0.8-12,6.3-24.7,6.3-24.7s2.8,0.4,7.6,1.5
	c8.1,1.9,22,6.1,37.7,14.3c15.7,8.2,26.7,17,32.7,22.3C369.8,384.3,371.6,386.3,371.6,386.3z"/>
<path fill="#FFFFFF" stroke="#000000" stroke-miterlimit="10" d="M355.1,408c-0.4,0.1-0.9,0.2-1.3,0.3c-4.2,0.5-7.6,0.7-10.2,0.6
	c1.8-2.4,3.5-4.7,5.3-7C351.3,404.1,353.4,406.1,355.1,408z"/>
<path fill="#FFFFFF" stroke="#000000" stroke-miterlimit="10" d="M288.2,368.5c-1,3.2-1.9,6.4-2.9,9.7c-2.3-3.2-3.3-6.9-3.5-10.6
	C283.6,367.7,285.7,367.9,288.2,368.5z"/>
<polygon fill="#FFFFFF" stroke="#000000" stroke-miterlimit="10" points="673.4,264.6 671.9,265.3 599.3,297.2 596.5,298.4 
	593.3,299.8 586,273.8 592.7,270.6 663.2,237.3 664.8,236.6 "/>
<path fill="#FFFFFF" stroke="#000000" stroke-miterlimit="10" d="M571.2,267.2L571.2,267.2c-0.1,0.5-0.3,0.8-0.5,1
	c-1.8,2.1-18.1,8.2-32.7,8.2c-14.6,0-13.5,8.9-19.2,14.9c-1.7,1.8-3.2,3.3-4.9,4.7c-7.6-5.9-17.1-13.3-24.7-18.5
	c-6.7-4.7-16.4-11.1-24.4-16.2l-0.6-9.7l-7.7-0.4c-0.2-1.5-0.5-3.1-0.8-4.8c0.1-3.9,0.3-7.7,0.5-11.5c12.2,3.8,30,10.1,53.9,9.9
	c23.7-0.2,46.3-5.6,58.5-9.1c0.8,5.5,2.1,15.9,2.1,15.9S572.2,263.2,571.2,267.2z"/>
<path fill="#FFFFFF" stroke="#000000" stroke-miterlimit="10" d="M500.4,364.6c-5.3,5.8-12,13.2-16.7,18.1
	c-10.5,0.8-21.3,2-32.1,3.5c-17.4,2.4-31.5,5.1-42.2,7.5c-14.4-12.1-11.4-31.2-9.2-39.7c5.9-6,18.6-16.5,30.8-19.1
	c7-1.5,11.8-4.3,14.9-6.8c0.9,2.3,2,4.1,3.1,5.1c5,4.3,20.1,8.2,33.7,9.1L500.4,364.6z"/>
<path fill="#FFFFFF" stroke="#000000" stroke-miterlimit="10" d="M388.6,399.2c-2.1,0.6-3.5,1.1-4,1.3c-0.2,0-0.2,0.1-0.2,0.1
	s-0.9,1.2-2.1,3c-2.4-6-7.9-20.8-6.7-25.9c0.4-1.5,4-7.6,9.4-16c0.3,0,0.7-0.1,1-0.1c-0.2,13.1,0.2,26.6,2.5,37.4
	C388.6,399,388.6,399.1,388.6,399.2z"/>
<path fill="#FFFFFF" stroke="#000000" stroke-miterlimit="10" d="M576.3,274.7c-4.9,3.8-13.2,10.6-16.9,14.4
	c-5.3,5.6-21.8,10.1-28.3,13.7c-1.2,0.6-2.4,2-3.7,3.8c-0.6-0.7-1.2-1.2-1.9-1.6c-2-1.4-6.4-4.8-11.7-8.9c1.6-1.4,3.2-2.9,4.9-4.7
	c5.7-6,4.6-14.9,19.2-14.9c14.6,0,30.9-6.1,32.7-8.2c0.2-0.2,0.3-0.6,0.5-1C572.9,268.8,574.9,271.3,576.3,274.7z"/>
<path fill="#FFFFFF" stroke="#000000" stroke-miterlimit="10" d="M527.4,306.6c-6,8.4-13.7,26.9-22.3,32.9
	c-9.1-12.4-18.4-25-26.2-35.6c5,1.1,11.6,1.8,18,0c8.8-2.5,13.2-4.7,17-7.8c5.3,4.1,9.6,7.5,11.7,8.9
	C526.2,305.4,526.8,306,527.4,306.6z"/>
<path fill="#FFFFFF" stroke="#000000" stroke-miterlimit="10" d="M579.8,285.6c-6.4,5.2-20.2,16.2-25.5,19.4
	c-5.8,3.5-10.7,11-16.3,17c-1.1,1.2-2.3,2.3-3.5,3.3c-5.3,4.5-15.1,17.3-21.5,25.3c-2.6-3.6-5.3-7.4-8-11.1
	c8.6-6,16.3-24.5,22.3-32.9c1.3-1.8,2.6-3.2,3.7-3.8c6.5-3.6,22.9-8.1,28.3-13.7c3.7-3.8,12-10.5,16.9-14.4c0.4,0.8,0.7,1.8,1,2.7
	C577.8,279.5,578.7,282.4,579.8,285.6z"/>
<path fill="#FFFFFF" stroke="#000000" stroke-miterlimit="10" d="M382.4,302.8c-17.3-1.2-39.7-13.1-50.5-19.4
	c-4-2.3-6.3-3.9-6.3-3.9s4.9-20.4,9.4-23.3c1.1,0.8,3.1,1.9,5.6,3.1c11.2,5.4,33,13.6,37.6,15.3C378.5,283.2,379.8,294,382.4,302.8z
	"/>
<path fill="#FFFFFF" stroke="#000000" stroke-miterlimit="10" d="M506.5,79.1l19.2-15.7c0,0-12.1-12.6-13.2-12.6
	c-0.6,0-17.2,0.4-31.5,0.7c-5.9,0.1-11.3,0.3-15.1,0.3c-3.1,0.1-5.1,0.1-5.1,0.1h0l-34,1.7l-12.6,17.8l-0.1,0.2
	c0,0,14.1,10.5,15.2,11.5c0,0-2,31.4-2.5,31.8c-0.5,0.4,14.3,0,14.3,0h44.1l21.4-8.7l-0.2-22.4L506.5,79.1z M440.2,68.7
	c-2.3,1.1-9.9-3.3-10.8-3.8c-0.9-0.5-0.2-7.8,1.6-9.2c1.9-1.3,24-1.6,24.6,1.4C456.5,61.1,442.5,67.6,440.2,68.7z M487.4,104.2
	c-1.5,2.8-15,1.4-22.7,1.3c-7.7-0.1-10.6,2.9-20.7-3.2c-3.5-2.1,5.7-21.9,23.5-21.6C485.4,81,489,101.4,487.4,104.2z M478,59.8
	c0,0,4-6.3,4.5-6.2c0,0,25.1,0.1,25.2,0s0.2,8.6,0,9.3c-0.2,0.7-9.7,6.7-11.8,6.5C494,69.3,478,59.8,478,59.8z"/>
<path fill="#FFFFFF" stroke="#000000" stroke-miterlimit="10" d="M440.2,68.7c-2.3,1.1-9.9-3.3-10.8-3.8c-0.9-0.5-0.2-7.8,1.6-9.2
	c1.9-1.3,24-1.6,24.6,1.4C456.5,61.1,442.5,67.6,440.2,68.7z"/>
<path fill="#FFFFFF" stroke="#000000" stroke-miterlimit="10" d="M467.6,80.7c-17.8-0.2-27,19.5-23.5,21.6c10.1,6.1,13,3.1,20.7,3.2
	c7.7,0.1,21.1,1.5,22.7-1.3C489,101.4,485.4,81,467.6,80.7z M483.3,99.6c-1.1,2.2-8.9,1-13.3,0.3c-4.7-0.7-9.7,0.4-12.8,1
	c-2.2,0.4-4.9-0.3-6.1-0.8h0c-1.8,0.7-3,1.1-3.1,0.4c0,0,10.1-12.5,17.4-11.4c7.4-1.3,19.3,7.5,19.9,10.2
	C485.5,100,484.7,100,483.3,99.6z"/>
<path fill="#FFFFFF" stroke="#000000" stroke-miterlimit="10" d="M507.7,62.9c-0.2,0.7-9.7,6.7-11.8,6.5c-2-0.1-17.9-9.6-17.9-9.6
	s4-6.3,4.5-6.2c0,0,25.1,0.1,25.2,0S508,62.2,507.7,62.9z"/>
<path fill="#FFFFFF" stroke="#000000" stroke-miterlimit="10" d="M483.3,99.6c-4-1.1-12.9-5.2-18.4-4.5c-4.8,0.7-10.4,3.6-13.8,5h0
	c-1.8,0.7-3,1.1-3.1,0.4c0,0,10.1-12.5,17.4-11.4c7.4-1.3,19.3,7.5,19.9,10.2C485.5,100,484.7,100,483.3,99.6z"/>
<path fill="#FFFFFF" stroke="#000000" stroke-miterlimit="10" d="M483.3,99.6c-1.1,2.2-8.9,1-13.3,0.3c-4.7-0.7-9.7,0.4-12.8,1
	c-2.2,0.4-4.9-0.3-6.1-0.8c3.4-1.4,9-4.2,13.8-5C470.4,94.3,479.3,98.5,483.3,99.6z"/>
<path fill="#FFFFFF" stroke="#000000" stroke-miterlimit="10" d="M513.9,296c-3.8,3.1-8.2,5.3-17,7.8c-6.4,1.8-13,1.1-18,0v0
	c-9.5-12.7-16.9-22.6-19.4-25.9l6.2-3.1l-0.9-13.5c8,5,17.7,11.5,24.4,16.2C496.8,282.7,506.3,290.1,513.9,296z"/>
<path fill="#FFFFFF" stroke="#000000" stroke-miterlimit="10" d="M404.6,292.1c-6,8.3-11.7,16.4-15.7,22.7c0,0,0,0,0,0
	c-0.4,0.7-0.9,1.4-1.3,2c-0.1-1.3-0.2-2.3-0.4-3c-0.2-0.3-0.4-0.6-0.6-1c-1.7-2.8-3.1-6.2-4.2-10.1c-2.6-8.8-3.9-19.5-4.1-28.2
	c0-1.6,0-3.1,0-4.5C381.7,277,389.5,288.3,404.6,292.1z"/>
<path fill="#FFFFFF" stroke="#000000" stroke-miterlimit="10" d="M435.5,233.9c-0.5,5.4-0.9,10.6-0.9,15.1c-0.2,0.4-0.4,0.8-0.6,1.2
	l-6.1-0.3L417.6,267l2.7,3.3c-4.9,6.8-10.5,14.4-15.8,21.8c-15.1-3.8-22.9-15.1-26.3-22c0.1-4.7,0.6-8.3,1.5-10
	c3.7,0.4,14.4-2.6,27.1-9.6C416.7,245.1,426.8,237.3,435.5,233.9z"/>
<path fill="#FFFFFF" stroke="#000000" stroke-miterlimit="10" d="M455.7,246.5c0.3,1.7,0.5,3.3,0.8,4.8l-22.5-1.1
	c0.2-0.5,0.5-0.9,0.6-1.2c0-4.5,0.3-9.7,0.9-15.1c2.1-20.4,7.1-44.5,8.9-52.8c7.4,0.7,14.7,1.1,21.6,0.8c-3,9.8-8.1,29.7-9.8,53.2
	C456,238.7,455.8,242.6,455.7,246.5z"/>
<polygon fill="#FFFFFF" stroke="#000000" stroke-miterlimit="10" points="465.7,274.9 459.5,278 440,287.8 439.5,288.1 436.2,289.7 
	434.7,287.8 420.3,270.3 417.6,267 427.9,249.9 434,250.2 456.5,251.3 464.2,251.6 464.8,261.3 "/>
<path fill="#FFFFFF" stroke="#000000" stroke-miterlimit="10" d="M404.5,139.3c-0.1,0-0.2-0.1-0.3-0.1c0,0,0,0,0,0c0,0,0,0,0,0
	c-7.1-1.8-22,2.5-28,14.4c0,0-1.1-2,0.3-10.6c0.3-1.6,0.6-3.5,1.1-5.6c0.1-0.6,0.3-1.1,0.4-1.7c2.8-7.2,11.2-18.6,13.2-21.2
	C395.1,119.5,400.8,128,404.5,139.3z"/>
</svg>
