<?xml version="1.0" encoding="utf-8"?>
<!-- Generator: Adobe Illustrator 25.2.0, SVG Export Plug-In . SVG Version: 6.00 Build 0)  -->
<svg version="1.1" baseProfile="tiny" id="Layer_1" xmlns="http://www.w3.org/2000/svg" xmlns:xlink="http://www.w3.org/1999/xlink"
	 x="0px" y="0px" viewBox="0 0 1000 1000" overflow="visible" xml:space="preserve">
<path fill="#FFFFFF" stroke="#000000" stroke-miterlimit="10" d="M649,117.7c0,0-20.7-2.7-29.2,0c-54.3,13.7-51.8-43-84.8-70.8
	c-22.2-18.7-43.7-13.5-55.4-8.2c2.7-10.2,2.1-20.1,2.1-20.1c10.4-1.2,42.3-3.7,60.5,10.8c22,17.5,40.5,64.9,56.9,74.8
	S621.9,105.4,649,117.7z"/>
<path fill="#FFFFFF" stroke="#000000" stroke-miterlimit="10" d="M654.7,176.7c-3.9-5.3-16-23.2-16-23.2s-16-3.9-22.5-7.1
	s-21-3.9-21-3.9s14.6,18.9,36.7,13.9c-6.8,5-19.6,3.9-27.8,1.1c8.9,5.7,15.7,14.6,31.4,8.5c-7.4,7.4-29.9,2.6-30.3,2.5
	c-34-28.9-53.7-80.2-72.4-103.7C514.1,41.3,478,43.5,478,43.5c0.6-1.6,1.1-3.1,1.5-4.7c11.7-5.4,33.3-10.5,55.4,8.2
	c33,27.8,30.5,84.5,84.8,70.8c15.3,0.5,23.9,9.1,34.9,28.7c-16.8-15.3-25.3-19.2-26.4-19.6C641.2,136.8,650.8,148.9,654.7,176.7z"/>
<path fill="#FFFFFF" stroke="#000000" stroke-miterlimit="10" d="M663.3,184.6c-21,10-47,6.8-61.7-7.5
	c-14.6-14.3-22.5-21.4-28.9-22.4c-0.6-0.1-1.2-0.1-1.7-0.1c-5.5,0.2-9,5.8-9,5.8c2-46.8-36-88.2-57.1-90.5
	c-14.7-1.6-31.1-7.4-39.7-10.8c6.5-3.1,10.4-9.1,12.8-15.5c0,0,36.1-2.3,54.8,21.3c18.7,23.5,38.4,74.9,72.4,103.7
	C605.8,169.2,631.3,196.2,663.3,184.6z"/>
<path fill="#FFFFFF" stroke="#000000" stroke-miterlimit="10" d="M562,160.3c0,0-3.3-7.3-6.8-13.6c0,0,0,0,0,0
	c-1.7-3.1-3.5-5.9-4.9-7.4c-4-4.3-7.7-4.6-8.1-4.6c0,0,0,0,0,0s-1.4-31-20.3-40.3c-18.9-9.3-41-10.7-44.9-13.9s-27.4,0-27.4,0
	s-0.1,0-0.3,0c-0.1,0-0.1,0-0.2,0c-0.3,0-0.8,0.1-1.3,0.2c-0.1,0-0.3,0.1-0.4,0.1c-0.3,0.1-0.6,0.1-0.9,0.2c-0.1,0-0.3,0.1-0.4,0.1
	c-0.7,0.2-1.4,0.4-2.1,0.8c-0.3,0.1-0.5,0.2-0.8,0.4c-0.2,0.1-0.4,0.2-0.5,0.3c-0.2,0.1-0.4,0.2-0.5,0.3c-0.5,0.3-1.1,0.7-1.5,1.2
	c-0.2,0.1-0.3,0.3-0.4,0.4c-0.3,0.3-0.6,0.6-0.8,1c1.9-8.6,7.2-21.3,21.9-25c1.5-0.4,2.9-0.9,4.2-1.5c8.6,3.4,25,9.2,39.7,10.8
	C526.1,72.2,564,113.5,562,160.3z"/>
<path fill="#FFFFFF" stroke="#000000" stroke-miterlimit="10" d="M507.5,183.5c0,0-19.6,1.1-28.5-8.2c-5.3-5.5-7.9-10.6-9.9-15.1
	c-1.4-3.2-2.4-6.1-3.7-8.7c-1.1-2.3-3.6-4.6-6.5-6.7c-5.4-3.9-12.4-7.2-15.6-8.6c-2.7-1.1,0.7,4.9,5.7,11.3
	c4.3,5.5,9.7,11.2,13.6,12.9c0.8,0.3,1.5,0.7,2.1,1.1c6.5,4,7.8,10.7,7.8,10.7s-5.3-4.9-11.6-9c-2.3-1.5-4.8-2.9-7.2-3.8
	c-8.9-3.6-20-23.5-20-23.5l-1.5-6l-0.7-2.6L424.1,98c-2.3-15.3,1.5-25.9,7.9-33.8c7.2-8.9,17.7-14.6,26.9-20c2-1.2,4.1-2.9,6.1-4.8
	c8.5-8,16.6-20.6,16.6-20.6s0.6,9.9-2.1,20.1c-0.4,1.6-0.9,3.2-1.5,4.7c-2.4,6.4-6.4,12.3-12.8,15.5c-1.3,0.6-2.7,1.2-4.2,1.5
	c-14.7,3.7-20,16.4-21.9,25c-0.3,0.3-0.5,0.7-0.7,1.1c-0.1,0.1-0.1,0.2-0.1,0.3c0,0.1-0.1,0.2-0.2,0.4c0,0.1-0.1,0.2-0.1,0.3
	c0,0.1-0.1,0.2-0.1,0.3c0,0.2-0.1,0.3-0.1,0.5c-0.1,0.2-0.1,0.4-0.1,0.7c0,0.2-0.1,0.5-0.1,0.7c-0.1,1.2,0,2.5,0.4,4
	c3.2,12.1,34.6,45.3,39.9,54.5c2.4,4.2,4.7,9.3,6.9,14.1c2.7,5.8,5.3,11.2,8.1,13.7C497.9,180.6,507.5,183.5,507.5,183.5z"/>
<path fill="#FFFFFF" stroke="#000000" stroke-miterlimit="10" d="M465.1,39.3c-2,1.9-4.1,3.6-6.1,4.8c-9.2,5.4-19.7,11-26.9,20
	c-17.1,6.1-21.7,57.4-23.8,83.3c-2,24.7-16.2,40.2-17.5,41.6l-0.1,0.1c0,0,0,0,0,0c-3.9,3.4-11.9,8.4-20,1.8
	c10.7-0.3,16.4-5,18.5-18.9c-6.3,0-14.7,4.8-15,5c25.5-21,23.1-108.1,45.4-130.4C442,24.3,465.1,39.3,465.1,39.3z"/>
<path fill="#FFFFFF" stroke="#000000" stroke-miterlimit="10" d="M427,177.4c2.3,15.9,0.3,16.8,0.3,16.8s-3.1,2.5-7.6,6
	c-8.4,6.4-21.9,15.8-30,17.5c-0.1,0-0.1,0-0.2,0c5.9-5.2,16.4-24.4,17.9-27.4c-1.8,2.9-14.1,21.4-31.5,17.8
	c8.8-3.5,16.9-20.8,17.1-21.4c-0.1,0.1-1,1.1-2.4,2.4c1.3-1.4,15.4-16.9,17.5-41.6c2.1-26,6.7-77.2,23.8-83.3
	c-6.4,8-10.2,18.6-7.9,33.8c0,0-5.9,29.1-0.7,59.6c0.2,1.2,0.4,2.3,0.7,3.5C425.5,167.8,426.4,173.1,427,177.4z"/>
<path fill="#FFFFFF" stroke="#000000" stroke-miterlimit="10" d="M481.7,18.7c0,0-8,12.6-16.6,20.6c0,0-23.1-15-45.4,7.3
	c-22.3,22.3-19.9,109.4-45.4,130.4c0.2-0.6,7.9-19.7,10.3-28c2.4-8.2-8.8-6-9.3-5.9c0.2-0.4,8.2-14.8,11-30.3
	c2.8-15.7,8.5-56,32.8-77.7s59.2-16,59.2-16S479.5,19,481.7,18.7z"/>
<path fill="#FFFFFF" stroke="#000000" stroke-miterlimit="10" d="M419.7,200.2c-6.8,14.4-21.1,47.5-23.8,78.7
	c-3.6,41.4-6.9,38.5-6.9,38.5v36.4c0,0-23.5,3-27,8.4c-0.4-1.8-0.7-3.6-1-5.3c-2.7-15.5-4.1-36.6-2.8-58.1v0
	c0.8-11.7,2.3-23.5,5-34.6c2.1-8.5,4.8-16.6,8.2-23.9c3.3-6.9,7.2-13,12-18l6.2-4.7C397.9,216,411.3,206.5,419.7,200.2z"/>
<path fill="#FFFFFF" stroke="#000000" stroke-miterlimit="10" d="M605.6,368.5c-1.3,9-4.5,30-8,41.3c-27.3-4.7-58.8-9.2-90.3-11.6
	c-67.2-5.1-114.8-0.1-133,2.5c-4.9-12.1-9.6-25.6-12.4-38.5c3.5-5.4,27-8.4,27-8.4s59.4-9.5,137.2,0.7c-3.2-0.3-22-0.2-22-0.2
	s-6.1,33-4.3,38.3c1.8,5.3,20.7,3.5,20.7,3.5l12.1-17.9c0,0-3.8-23.2-6.3-23.7c8.8,1.1,17.8,2.5,27,4.2h0c4,0.7,8.1,1.5,12.2,2.4
	c0.8,0.2,1.6,0.3,2.4,0.5c0,0,0-0.1,0-0.1c5.9,0.9,21.4,3.4,33.4,6.1C603,367.9,604.4,368.2,605.6,368.5z"/>
<path fill="#FFFFFF" stroke="#000000" stroke-miterlimit="10" d="M391,546.9c-0.6,0.8-1.4,2.3-2.2,4.4c-1.2-0.4-2.5-0.8-3.8-1
	c-18.2-4.1-48.5,1.4-61.9,4.2c-2.3-28.5-8-105.6-11.9-112.6c-3.4-6.1,0.8-10,6.3-14.9c7.7,7,31.5,25,74.8,27.9
	c0.3,10.3,1.2,23.4,3.7,33.1C387.4,501.1,389.8,524.4,391,546.9z"/>
<path fill="#FFFFFF" stroke="#000000" stroke-miterlimit="10" d="M323.2,421.6c-15,2.1-7.8-15.7-4.3-22.1c3.6-6.4,7.5-35.7,5.7-59.2
	c6.6-7.7,12.9-30.5,15.4-39.9c6.6-0.7,13.1-1.2,18.2-1.7c-1.4,21.4,0.1,42.5,2.8,58.1c0.3,1.8,0.6,3.5,1,5.3
	c2.8,12.9,7.5,26.5,12.4,38.5c5.8,14.4,11.9,26.7,15.2,33.1c1.6,3,2.5,4.8,2.5,4.8s0,0.3,0,0.8c0,2.1-0.1,8,0.1,15.4
	c-43.3-2.9-67.1-20.9-74.8-27.9C319.3,425.3,321.3,423.6,323.2,421.6z"/>
<path fill="#FFFFFF" stroke="#000000" stroke-miterlimit="10" d="M340,300.5c-2.4,9.4-8.8,32.2-15.4,39.9
	c-12.2-16.2-15.8-37-12.1-58v0c3.4-4.4,7.3-7.8,11.4-10.4c-0.5,8.8,0.5,18.8,3.8,29.8C331.6,301.3,335.8,300.9,340,300.5z"/>
<path fill="#FFFFFF" stroke="#000000" stroke-miterlimit="10" d="M335.4,235.8c-2.6,4.1-5.3,9.2-7.4,15.4v0c-2.1,6-3.7,13-4,20.8
	c-4.1,2.6-8,6-11.4,10.4c1.5-8.6,4.2-17.2,8-25.6v0c1.2-2.7,2.6-5.4,4.1-8.1C327.6,243.4,331.3,239.2,335.4,235.8z"/>
<path fill="#FFFFFF" stroke="#000000" stroke-miterlimit="10" d="M387.9,553.5c-2.1,5.3-4.6,13.2-7.2,21.7v0
	c-5.4,17.6-11.1,38.3-13.4,46.9c-4.5-2.5-17-8.4-32.6-7.4c-4,0.2-8.1,1-12.4,2.3c0.8-14.6,2.5-46.7,1.7-52.4
	c-0.2-1.2-0.5-4.8-0.9-10.1c13.4-2.8,43.7-8.3,61.9-4.2C385.7,551.1,386.7,552.2,387.9,553.5z"/>
<path fill="#FFFFFF" stroke="#000000" stroke-miterlimit="10" d="M341.4,665.3c-0.1,0.9-0.4,1.7-0.7,2.4c-1.2,2.5-19.6,2.5-26.5,3
	c-7,0.5-16.2-20.1-16.2-20.1c-1.8-2-3.6-9.8,2-15.8c5.5-6,21.9-10.6,21.9-10.6s0.2-2.8,0.4-7.3c4.3-1.3,8.5-2,12.4-2.3
	c1.3,5.5,0,14.7,0,14.7s-0.3,1.8-0.7,4.4c-5-2.4-13.9,2.6-13.9,2.6l-3.7,5.7c0,0,5.5,3.7,6.1,8c2.2-0.3,5.2,0.3,7.2,0.8
	c-1,4.3,1.5,15.3,8.1,14.9C339,665.7,340.3,665.5,341.4,665.3z"/>
<path fill="#FFFFFF" stroke="#000000" stroke-miterlimit="10" d="M368.6,627.5c-0.3,2.4-0.8,5.7-1.7,9.4
	c-1.8,7.8-15.7,19.8-16.2,27.1c-0.5,7.2-26,20.4-26.9,20.8c0,0,0,0,0,0c-3.1,1.7-7.7,1.4-13.2-0.4c-5.5-1.8-12.1-16.6-12.1-16.6
	c-10.9-11.2-3.8-17.8-0.5-17.3c0,0,9.3,20.7,16.2,20.1c7-0.5,25.4-0.5,26.5-3c0.3-0.7,0.5-1.6,0.7-2.4c4.9-0.9,7.6-3.4,9.5-10.8
	c2.3-9.1,1.8-17.1,6.2-18.9C360.3,634.3,365.6,630.3,368.6,627.5z"/>
<path fill="#FFFFFF" stroke="#000000" stroke-miterlimit="10" d="M334.5,693.4c-0.2,1.4-11.9,8.2-11.9,8.2
	c-6.2,3.8-12.7,0.3-12.7,0.3c-5.5-2.5-15.5-12.1-15.7-15.2c-0.2-3,3.4-16.2,4.3-18.9c0,0,6.6,14.8,12.1,16.6
	c5.5,1.8,10.1,2,13.2,0.4c0,0,0,0,0,0c0.3,0,2.7-0.3,5.7-0.3C332.7,684.5,334.6,692,334.5,693.4z"/>
<path fill="#FFFFFF" stroke="#000000" stroke-miterlimit="10" d="M322.7,712.8c-8.4,3.4-11.9-7.1-12.8-10.9c0,0,6.5,3.4,12.7-0.3
	C322.5,701.6,331.1,709.4,322.7,712.8z"/>
<path fill="#FFFFFF" stroke="#000000" stroke-miterlimit="10" d="M349.2,470.1l-15.3,163.7c-0.9,5.4-2.6,14-3.9,16
	c-0.2,0.3-0.3,0.7-0.5,1.2c-2-0.5-5-1.2-7.2-0.8c-0.5-4.3-6.1-8-6.1-8l16.2-172.7L349.2,470.1z"/>
<path fill="#FFFFFF" stroke="#000000" stroke-miterlimit="10" d="M369,623.2c0,0-0.1,1.6-0.5,4.4v0c-3,2.8-8.2,6.8-11.5,8.1
	c-4.5,1.8-3.9,9.8-6.2,18.9c-1.9,7.4-4.6,9.8-9.5,10.8c-1.1,0.2-2.3,0.4-3.7,0.5c-6.6,0.5-9.1-10.5-8.1-14.9
	c0.1-0.5,0.2-0.9,0.5-1.2c1.3-1.9,3-10.6,3.9-16c0.4-2.5,0.7-4.4,0.7-4.4s1.3-9.2,0-14.7c15.6-1,28.1,4.9,32.6,7.4
	C368.4,622.7,369,623.2,369,623.2z"/>
<path fill="#FFFFFF" stroke="#000000" stroke-miterlimit="10" d="M642.5,441.8c-7.3,6.8-14.9,13.5-21.4,19.3
	c-21,0.6-86.9,2.6-114,2.9c-29,0.3-95.4,0.1-108.8,0c-4.1-12.6-6.2-24.6-6.2-24.6c0-0.5,0-0.8,0-0.8s-1-1.7-2.5-4.8
	c12.8-1.8,44.6-5.6,86.2-4.7C524,430,614.5,438.2,642.5,441.8z"/>
<path fill="#FFFFFF" stroke="#000000" stroke-miterlimit="10" d="M403.4,544.2c0.2,0.7,0.5,1.4,0.8,2.1c-4.1,2.2-5.3,10.3-5.6,17.2
	c-4.5-3.7-8.1-7.3-10.7-10c0.3-0.8,0.6-1.5,0.9-2.2v0c0.8-2.1,1.6-3.6,2.2-4.4c-1.2-22.6-3.6-45.9,5-58.9
	c-2.5-9.7-3.4-22.9-3.7-33.1c-0.2-7.4-0.1-13.3-0.1-15.4c0,0,2.2,12,6.2,24.6c3.1,9.5,7.2,19.5,12.4,24.9
	C410.7,489,389.2,504.1,403.4,544.2z"/>
<path fill="#FFFFFF" stroke="#000000" stroke-miterlimit="10" d="M600.1,366.4c0.7,0.2,1.5,0.5,2.2,0.7c-0.2,0.2-0.4,0.3-0.6,0.5
	c-12-2.7-27.5-5.2-33.4-6.1c1.1-9.7,3.2-22.5,5.9-36.7c8.5-45.4,22.9-104.8,31.7-122.9c22.5-12.2,45.6,6.5,45.6,6.5
	S599.6,304.1,600.1,366.4z"/>
<path fill="#FFFFFF" stroke="#000000" stroke-miterlimit="10" d="M510,189.2c0,0,9.1,22.5,9.1,40.5c-3.8,3.3-8,6.5-12.7,9.1
	c2.5-18.6-4-36.1-12.3-44c-15.1-14.4-43.3,1.5-40.1,18.3c1.3,7.2,3.6,17.3,6.5,24.9c-3-2.5-5.7-5.5-8.1-8.6
	c-4.4-19.6-0.4-40.2-0.4-40.2s-1.4,0.7-8.2-3.2c-4.4-2.5-7.9-10.8-9.9-16.4c2.5,1.9,5,3,7.4,2.9c6.4-0.4,12.7-5.7,19.7-9.3
	c6.3,4,11.6,9,11.6,9s-1.3-6.7-7.8-10.7c1.4-0.6,2.9-1,4.4-1.3c1.9,4.6,4.6,9.7,9.9,15.1c8.9,9.3,28.5,8.2,28.5,8.2
	s-9.6-2.9-14.6-7.5c-2.7-2.5-5.4-7.9-8.1-13.7c9,2.7,15.8,5.6,25.2,3.4c3.7-0.9,7.9-3.7,12.2-7.6l-5.9,18L510,189.2z"/>
<path fill="#FFFFFF" stroke="#000000" stroke-miterlimit="10" d="M535,186c0,0,1.9,12.2,2.9,23.2v0c-1.3,1.6-2.6,3.2-4,4.9
	c-4,4.7-8.9,10.4-14.8,15.5c0-18-9.1-40.5-9.1-40.5l6.2-13l5.9-18c6-5.4,12.1-12.8,16.9-19.2l3.1,17.6L535,186z"/>
<path fill="#FFFFFF" stroke="#000000" stroke-miterlimit="10" d="M555.2,146.7c-1.1,7.6-2.7,19.8-2.4,28.9
	c0.3,12.4-6.1,22.7-14.9,33.6c-1.1-11-2.9-23.2-2.9-23.2l7.2-29.6l-3.1-17.6c1.1-1.5,2.1-2.8,3-4.2c0.4,0,4.1,0.3,8.1,4.6
	C551.7,140.8,553.5,143.6,555.2,146.7C555.2,146.7,555.2,146.7,555.2,146.7z"/>
<path fill="#FFFFFF" stroke="#000000" stroke-miterlimit="10" d="M592.9,194.8c-3.9,19-35.6,50.2-62.8,60.3c-4,1.5-7.8,2.5-11.5,2.9
	c-16.9,2.1-31.9-5.5-41.8-12.3c1,0.1,2,0.2,3,0.2c10.1,0.1,18.9-2.7,26.6-7.1c4.7-2.6,8.9-5.8,12.7-9.1c5.9-5.2,10.9-10.8,14.8-15.6
	c1.4-1.6,2.7-3.3,4-4.9v0c8.8-10.9,15.2-21.2,14.9-33.6c-0.2-9.1,1.3-21.3,2.4-28.9c3.5,6.2,6.8,13.6,6.8,13.6s3.5-5.6,9-5.8
	C577,161.5,588.4,176.8,592.9,194.8z"/>
<path fill="#FFFFFF" stroke="#000000" stroke-miterlimit="10" d="M605.8,201.9c-8.8,18.1-23.2,77.5-31.7,122.9
	c-9.1-8-21.1-9.4-21.1-9.4L562,293l-9.1-4.9c-6-5.6-18.4-18.5-22.9-33.1c27.2-10,58.9-41.3,62.8-60.3
	C600.1,200,605.8,201.9,605.8,201.9z"/>
<path fill="#FFFFFF" stroke="#000000" stroke-miterlimit="10" d="M757.2,360.7c-4.2,22.9-29.2,36.8-43.3,38.1
	c-12,1.1-22.2,12.5-26.7,19.2c-0.9-2.4-1.9-4.9-2.8-7.3c-1.3-3.3-2.5-6.6-3.7-9.7c-1.5-3.9-2.9-7.5-4.1-10.8c-0.6-1.5-1.1-3-1.7-4.4
	c30.1,4.8,61.7-3.8,61.7-3.8C743.7,380.5,752.2,373.1,757.2,360.7z"/>
<path fill="#FFFFFF" stroke="#000000" stroke-miterlimit="10" d="M822.7,669.6c-4.2-0.4-12-0.6-25.2,0.7c-14.8,1.4-23,3.9-26.9,5.4
	c-2-13.1-6.1-36-11.9-52.7c-0.8-1.2-1.5-2.4-2.2-3.6c6.2-9.1,15.7-20.3,23.3-18.1c8.2,2.3,28.9,16.2,43,25.7
	C822.8,644.3,822.8,660.3,822.7,669.6z"/>
<path fill="#FFFFFF" stroke="#000000" stroke-miterlimit="10" d="M769.7,343.5c-0.2,9.1-0.6,22.3-1.2,30.4
	c-1.1,13.2,2.5,14.3-32.4,35.6c-23.6,14.4-35,23.2-41,28.3c-2.3-5.8-5.1-12.7-7.8-19.8c4.5-6.7,14.7-18.2,26.7-19.2
	c14.2-1.2,39.1-15.1,43.3-38.1c2.7-6.7,4.5-14.8,4.5-24.3c0-1.7,0-3.4-0.1-5.1C764,334.9,766.8,339.1,769.7,343.5z"/>
<path fill="#FFFFFF" stroke="#000000" stroke-miterlimit="10" d="M791.6,392.5c-5.4,10.8-19.2,21.3-33.7,30.2
	c-12.2,7.5-46.2,24.8-56.8,30.1c-0.7-2-1.5-4.2-2.6-6.6c-1-2.3-2.2-5.2-3.5-8.4c6-5.2,17.4-13.9,41-28.3
	c34.9-21.4,31.4-22.5,32.4-35.6c0.7-8.1,1-21.3,1.2-30.4c8.3,12.6,17.4,26.4,19.1,29.5C790.1,375.6,790.8,383,791.6,392.5z"/>
<path fill="#FFFFFF" stroke="#000000" stroke-miterlimit="10" d="M800.7,451.5c-5.3-3.9-13.1-7.9-19.8-4.6
	c-11.4,5.7-23.1,29.6-23.1,29.6l-1,12.4l-0.9,10.5c0,0-27.5-4-33.6,14.9c-2.7-14.7-3.9-24.4-3.9-24.4s-11.4-14.7-13.3-17.6
	c-1.7-2.5,0.7-6.1-4.1-19.5c10.6-5.3,44.6-22.6,56.8-30.1c14.5-8.9,28.4-19.4,33.7-30.2c1,13.4,2.1,30.8,5,43.5
	C797.8,441.1,799.2,446.3,800.7,451.5z"/>
<path fill="#FFFFFF" stroke="#000000" stroke-miterlimit="10" d="M810,488.1c-5.2-5.9-11.7-11.3-18.4-12.7
	c-12-2.4-27.3,7.8-34.8,13.5l1-12.4c0,0,11.7-23.9,23.1-29.6c6.7-3.3,14.5,0.7,19.8,4.6C804.1,463.2,807.8,475.2,810,488.1z"/>
<path fill="#FFFFFF" stroke="#000000" stroke-miterlimit="10" d="M822.3,575.1c-7-8.7-16.4-20.5-18.6-22.7
	c-3.6-3.6-14.6-8.9-31.6-8.2c-11.3,0.5-26.5,17.6-35.3,29c-2.3-7.2-4.3-14.4-6.2-21.4v0c6.5-5.2,17.7-13.8,23.9-19.3
	c8.9-7.8,24.6-23.5,43.8-16.8c6.1,2.1,11.5,6.3,16,11.1c0,0,0,0,0,0c2.1,10.6,4.8,16.5,6.5,19.4
	C821.6,547.5,822.1,559.2,822.3,575.1z"/>
<path fill="#FFFFFF" stroke="#000000" stroke-miterlimit="10" d="M822.8,626.9c-14-9.4-34.8-23.3-43-25.7c-7.6-2.2-17.1,9-23.3,18.1
	c-4-6.7-7.7-14.2-11-22.2c7.5-10,21.2-25.9,32.3-25.9c14,0,34.8,19.9,44.8,28.8C822.7,609,822.8,618.1,822.8,626.9z"/>
<path fill="#FFFFFF" stroke="#000000" stroke-miterlimit="10" d="M822.7,600.1c-10-8.9-30.8-28.8-44.8-28.8
	c-11.1,0-24.8,15.9-32.3,25.9c-3.2-7.7-6.2-15.8-8.8-24c8.8-11.3,24-28.5,35.3-29c17-0.7,28,4.6,31.6,8.2c2.2,2.2,11.7,14,18.6,22.7
	C822.5,582.7,822.6,591.3,822.7,600.1z"/>
<path fill="#FFFFFF" stroke="#000000" stroke-miterlimit="10" d="M814.3,526.9c-4.5-4.8-9.8-9-16-11.1c-19.2-6.8-34.9,8.9-43.8,16.8
	c-6.3,5.5-17.4,14.2-23.9,19.3c-3.6-13.9-6.3-27-8.3-37.5c6.2-18.9,33.6-14.9,33.6-14.9l0.9-10.5c7.4-5.7,22.7-15.9,34.8-13.5
	c6.7,1.4,13.2,6.8,18.4,12.7c0.9,5.3,1.5,10.7,1.8,16.3C812.2,513.5,813.2,520.9,814.3,526.9z"/>
<path fill="#FFFFFF" stroke="#000000" stroke-miterlimit="10" d="M830.1,695.2c0,0-1.7-0.1-4.6,0c-11.6,0.1-42.2,1.5-58.4,12.9
	c-0.2,0.2-0.4,0.3-0.7,0.5c-2.6-25.4,1.2-31.4,1.2-31.4s0.9-0.6,3-1.4c3.9-1.6,12.1-4.1,26.9-5.4c13.2-1.2,21-1,25.2-0.7
	c3.1,0.3,4.2,0.7,4.2,0.7L830.1,695.2z"/>
<path fill="#FFFFFF" stroke="#000000" stroke-miterlimit="10" d="M822.8,794.4c0.9,3-2.3,20.4-4.5,25.3c-8.2-8.6-16.1-5.1-20.8-1.5
	c-0.3-3.2-0.4-9.1-0.3-14.6c1.4-1.4,2.3-2.3,2.5-2.4c-0.1,0.1-1,0.7-2.5,1.6c0.1-4.4,0.3-8.4,0.5-10.8c-0.4-0.8-0.7-1.7-0.9-2.7
	c-2.2-11.2,5.9-35.6-8.2-42.2c-11.9-5.5-18.2,3.5-22.2,18c-0.9,3.2-1.7,6.6-2.4,10.2c-5.8-3.2-14-2.6-19.3-1.8
	c1.7-10.3,3.5-20.4,3.6-26c0.3-11.7,13.3-31.7,18.6-39.3c16.2-11.4,46.8-12.8,58.4-12.9C839,768.1,821.9,791.3,822.8,794.4z"/>
<path fill="#FFFFFF" stroke="#000000" stroke-miterlimit="10" d="M818.3,819.7c-0.1,0.3-0.2,0.5-0.4,0.7c-2.1,3.6-7.1,55.6-16,50.6
	c-7.9-4.4-7.4-37.6-5.1-48.4c0.3-1.4,0.6-2.4,1-2.9c-0.1-0.4-0.2-0.9-0.2-1.5C802.3,814.6,810.1,811.2,818.3,819.7z"/>
<path fill="#FFFFFF" stroke="#000000" stroke-miterlimit="10" d="M764.1,775.2c-0.2,1.2-0.5,2.3-0.7,3.5
	c-1.4,21.4-14.3,33.9-20.3,30.3c-3.7-2.2-1-19.3,1.7-35.6C750.1,772.6,758.3,772,764.1,775.2z"/>
<path fill="#FFFFFF" stroke="#000000" stroke-miterlimit="10" d="M797.8,819.7c-0.3,0.5-0.7,1.5-1,2.9c-6.4,5.7-14.5,17.3-21.3,14.2
	c-7.1-3.2,14.3-25.7,21.8-33.3c-0.1,5.6-0.1,11.4,0.3,14.6C797.6,818.8,797.7,819.3,797.8,819.7z"/>
<path fill="#FFFFFF" stroke="#000000" stroke-miterlimit="10" d="M797.8,791.9c-0.2,2.4-0.4,6.4-0.5,10.8
	c-4.3,2.8-13.1,8.5-17.8,10.6c-3.9-7.8,9.2-15.3,9.2-15.3s3.7-2.8,8.2-8.8C797.1,790.2,797.4,791.2,797.8,791.9z"/>
<path fill="#FFFFFF" stroke="#000000" stroke-miterlimit="10" d="M796.9,789.2c-4.6,6-8.2,8.8-8.2,8.8s-2.4-8.9-4.6-20
	c-1.8-9.4-14.1-12.4-17.6-13c4-14.5,10.3-23.5,22.2-18C802.8,753.6,794.6,778,796.9,789.2z"/>
<path fill="#FFFFFF" stroke="#000000" stroke-miterlimit="10" d="M686.4,228.2c-3.2-3.1-15.3-3.1-28.2,5.1
	c-5.5,3.5-11.2,8.4-16.4,15.3c-3.1,4-5.9,8.7-8.5,14.1c-6.3,13.2-10.8,30.7-11.7,53.8c0,1.4-0.1,2.8-0.1,4.2
	c-0.2,8.3,0.6,15.7,2.2,22.1v0c-2.2,3.6-10,15.6-21.4,24.2c-0.7-0.2-1.5-0.5-2.2-0.7c-0.5-62.3,51.3-157.9,51.3-157.9
	S673.5,211.8,686.4,228.2z"/>
<path fill="#FFFFFF" stroke="#000000" stroke-miterlimit="10" d="M759.7,312.2c-8.1,11.3-18.7,17-18.7,17s-5.7,21.4-12.1,27.1
	c-6.4,5.7-37.3,4.6-37.3,4.6s-27.9-19.6-35-24.2c-5.6,3.9-31.5,8.4-32.2,8.5c-0.2-0.8-0.5-1.6-0.7-2.5v0c-1.6-6.4-2.4-13.8-2.2-22.1
	c0-1.4,0.1-2.8,0.1-4.2l28.2-23.9l32.8,14l15.3,26.9l21-5.3l8.4-14.7l1.6,17.9l8.4-27.1l13,3.6l-9.3-15.3l0.3-9.2
	c1.5-4.1,2.9-8.5,4-12.8C752.7,283.6,757.3,297.9,759.7,312.2z"/>
<path fill="#FFFFFF" stroke="#000000" stroke-miterlimit="10" d="M741.3,283.4l0.5-14.2l-11,9.7l-12-14.6c2-6.8,4.2-13.4,6.2-17.9
	c4.1,3.2,8,6.9,11.4,11.2c3.3,4.2,6.3,8.6,8.9,13.1C744.2,275,742.8,279.3,741.3,283.4z"/>
<path fill="#FFFFFF" stroke="#000000" stroke-miterlimit="10" d="M693.9,248.7h-5.7c0,0-3.2-2.5-7.4-7.5c-2.8-3.3-14.9-6.3-22.6-8
	c12.9-8.1,25-8.1,28.2-5.1c0.2,0.2,0.4,0.5,0.5,0.7c-0.8-0.2-1.2-0.3-1.2-0.3C693.2,237.1,693.9,248.7,693.9,248.7z"/>
<path fill="#FFFFFF" stroke="#000000" stroke-miterlimit="10" d="M706.9,235.7c-3.6,7.8-5.2,28.8-5.2,28.8l-5.3,2.9
	c0,0-9.6-10-11.8-12.1c-1.7-1.7-30.9-5.2-42.8-6.6c5.2-6.9,10.9-11.8,16.4-15.3c7.8,1.6,19.9,4.6,22.6,8c4.2,5,7.4,7.5,7.4,7.5h5.7
	c0,0-0.7-11.6-8.2-20.1c0,0,0.4,0.1,1.2,0.3c0,0,0,0.1,0.1,0.1c0,0,0-0.1-0.1-0.1C689.9,229.6,697.8,231.6,706.9,235.7z"/>
<path fill="#FFFFFF" stroke="#000000" stroke-miterlimit="10" d="M761.7,336.4c0,9.5-1.7,17.6-4.5,24.3c-5,12.4-13.5,19.8-20.7,21.3
	c0,0-31.6,8.6-61.7,3.8c-21.9-3.5-43-14.2-50.5-40.5c0.7-0.1,26.5-4.7,32.2-8.5c7.1,4.6,35,24.2,35,24.2s30.9,1.1,37.3-4.6
	c6.4-5.7,12.1-27.1,12.1-27.1s10.6-5.8,18.7-17c1,6.4,1.6,12.7,1.9,19C761.6,333,761.7,334.7,761.7,336.4z"/>
<path fill="#FFFFFF" stroke="#000000" stroke-miterlimit="10" d="M718.1,266.6l3.1,18.4l-9.8,7.5l-12.8,5.2c0,0-11-22-20.3-28.1
	c-8-5.2-36.8-6.7-44.9-7c2.6-5.4,5.5-10.1,8.5-14.1c11.9,1.4,41.1,4.9,42.8,6.6c2.1,2.1,11.8,12.1,11.8,12.1l5.3-2.9
	c0,0,1.6-21,5.2-28.8c5.8,2.6,12.2,6.1,18.1,10.7c-2.1,4.5-4.2,11.1-6.2,17.9l-1.4-1.6L718.1,266.6z"/>
<path fill="#FFFFFF" stroke="#000000" stroke-miterlimit="10" d="M727.2,313.6l-8.4,14.7l-21,5.3l-15.3-26.9l-32.8-14l-28.2,23.9
	c0.9-23,5.4-40.6,11.7-53.8c8.1,0.3,37,1.9,44.9,7c9.3,6.1,20.3,28.1,20.3,28.1l12.8-5.2l14.6,7.1L727.2,313.6z"/>
<path fill="#FFFFFF" stroke="#000000" stroke-miterlimit="10" d="M674.2,647.7c-0.4,8.1-0.7,16.2-0.8,24.2
	c-7.8-5.6-20.9-13-35.9-13.6c-21.8-1-54,17.5-98.4,27.5c-5.2,1.2-10.5,2.2-16,3.1c-36.2,5.9-69.3-3.5-86.6-10
	c21.2-7.3,41.3-18.7,56.5-28.8c18.8,1.2,72.6,4,93.8-0.4C611.6,644.7,641.7,636.7,674.2,647.7z"/>
<path fill="#FFFFFF" stroke="#000000" stroke-miterlimit="10" d="M676.3,726.6l-5.5-13.1c0,0-25.4-18-42.3-22.5
	c-3.6-1-7.6-2.2-11.8-3.3c11.2,0.3,37.1,1.4,56.7,6.1C673.8,705.8,674.6,717.1,676.3,726.6z"/>
<path fill="#FFFFFF" stroke="#000000" stroke-miterlimit="10" d="M673.5,693.7c-19.5-4.7-45.5-5.8-56.7-6.1
	c-14.1-3.9-30.5-6.7-41.4,5.4c-10.9-0.9-25.5-4.3-36.2-7.2c44.4-10,76.6-28.5,98.4-27.5c15,0.7,28.1,8.1,35.9,13.6
	C673.3,679.4,673.3,686.7,673.5,693.7z"/>
<path fill="#FFFFFF" stroke="#000000" stroke-miterlimit="10" d="M674.7,638.8c-0.2,3-0.3,5.9-0.4,8.9c-32.5-11-62.6-3-87.2,2
	c-21.3,4.4-75,1.6-93.8,0.4c8.4-5.5,15.3-10.6,20.3-14.4c29.8-1.8,55-6.6,63.4-6.6c13.8,0,10.5,3.3,13.8,6.7c0.8,0.8,3.2,1.1,6.5,1
	c10.6-0.2,30.8-4,39.1-6.2L664,623C666.6,627.7,670.5,634,674.7,638.8z"/>
<path fill="#FFFFFF" stroke="#000000" stroke-miterlimit="10" d="M677.9,566.1c-4.6,0.9-9.8,1.9-14.3,2.9c-0.3-18-5.7-64.5-3.3-69.5
	c2.1-4.4-0.5-30-1.9-42.9c5-6.1,9.8-11.9,12.6-15.4c-0.1,0.6-0.2,1.2-0.2,1.9C668.6,464.2,677.1,528.9,677.9,566.1z"/>
<path fill="#FFFFFF" stroke="#000000" stroke-miterlimit="10" d="M675.5,425.9c-2,4.6-3.6,9.7-4.4,15.3c-2.9,3.5-7.6,9.3-12.6,15.4
	c-9.6,11.7-20.2,24.8-21,26.1c-1.3,2.4-9.9,10.2-9.5,26.3c0.4,16,0.5,29.4-3.7,39.5c-3.1,7.5,1,17,2.9,24.3
	c-8.7,0.7-27.9,2.6-34.7,6.8c0.3-0.4,10.7-13,12.3-35.3c0.1-1.1,0.1-2.2,0.2-3.4c0.1-2.4,0-5-0.1-7.6c-0.7-10.9-2-20.4-2.7-28.7
	c-0.2-2.5-0.4-5-0.5-7.3c-0.4-10.5,1-18.7,7.4-24.9c2.9-2.9,7.2-6.7,12-11.1c6.5-5.8,14.1-12.5,21.4-19.3
	c7.2-6.6,14.1-13.3,19.5-19.2C667.7,424,672.3,425.1,675.5,425.9z"/>
<path fill="#FFFFFF" stroke="#000000" stroke-miterlimit="10" d="M579.9,768c-35.8,2.8-105.6,26.3-134.4,22.2
	c-30.1-4.3-99.6-35.3-118.3-43.8c4.4-11.4,8.5-22,12.2-31.4c0.3-0.2,0.7-0.3,1-0.5c14.1,1.2,40,3.8,51.9,10.1
	c16.8,8.9,42.1,29.2,65.2,32.8c19.9,3.1,85.9-36.9,116.2-48.3L579.9,768z"/>
<path fill="#FFFFFF" stroke="#000000" stroke-miterlimit="10" d="M696.9,877.8c-0.4,6.4-1.7,12.9-4.6,18.9
	c-2.3,9.7-2.8,29.2-2.8,45.2c-14.9,4.4-37.3,10.7-49.5,12.9c-16.7,3.1-60.6,6.9-73.1,9c-2.1-15.3-11.1-80.6-15.7-88.5
	c-5.2-9-15.2-20.9-15.2-20.9s-16.6-0.5-19.5-4.8c-5.8,6.2-26.4,33.3-48.3,61.7c-33.7-12.9-90.2-5.5-121.4-11.5
	c-25.8-4.9-51.5-26.2-65.3-38.8c12.4-28.8,30.6-75.8,45.8-114.8c18.6,8.5,88.2,39.5,118.3,43.8c28.8,4.1,98.6-19.4,134.4-22.2
	l11.5,110.9c0,0,28.6-14.7,69-10.2C671.7,870,684,872.8,696.9,877.8z"/>
<path fill="#FFFFFF" stroke="#000000" stroke-miterlimit="10" d="M468.1,911.4c-25.1,32.5-51.9,66.7-60.1,72.8
	c-121.2-7.1-182-11.4-182-11.4s29.9-64.2,44.2-87.9c2.5-4.2,6.4-12.6,11.2-23.8c13.8,12.7,39.5,33.9,65.3,38.8
	C377.9,905.9,434.4,898.5,468.1,911.4z"/>
<path fill="#FFFFFF" stroke="#000000" stroke-miterlimit="10" d="M689.9,967.1H567.3c0,0-0.2-1.2-0.4-3.2c12.5-2.2,56.4-6,73.1-9
	c12.2-2.2,34.5-8.5,49.5-12.9C689.5,955.8,689.9,967.1,689.9,967.1z"/>
<path fill="#FFFFFF" stroke="#000000" stroke-miterlimit="10" d="M513.4,635.7c-4.9,3.8-11.9,8.9-20.3,14.4
	c-15.3,10-35.3,21.5-56.5,28.8c-3.4,1.2-6.9,2.3-10.4,3.2c-37.2,10.2-71.1,25.3-85.8,32.3c-0.3,0-0.6,0-0.8-0.1
	c2.9-7.3,5.4-13.8,7.5-19.1v0c14.3-9.8,40.3-26.9,57.3-34.6c14.1-6.4,38.9-17.7,57.5-26.1c15,1.9,30.6,2.1,45.2,1.5
	C509.3,636,511.4,635.9,513.4,635.7z"/>
<path fill="#FFFFFF" stroke="#000000" stroke-miterlimit="10" d="M462,634.5c-18.7,8.5-43.5,19.8-57.5,26.1
	c-17.1,7.7-43,24.8-57.3,34.6c2.6-6.5,4.6-11.2,5.8-13.8c6.4-13.7,18.7-38.2,24.6-67.7c3.5-0.8,11.1-3.6,11.6-4.1
	c0.5-0.5,11.8,12.5,54.7,21.7c2.8,0.6,5.8,1.2,9,1.8C455.8,633.7,458.9,634.1,462,634.5z"/>
<path fill="#FFFFFF" stroke="#000000" stroke-miterlimit="10" d="M445.4,583.5l-1.6,47.8c-43-9.2-54.3-22.1-54.7-21.7
	c-0.4,0.4-8.1,3.3-11.6,4.1c2.4-12.1,3.8-25.1,3.2-38.6v0c2.6-8.5,5.2-16.4,7.2-21.7c2.6,2.7,6.2,6.3,10.7,10
	c7.6,6.3,17.6,13,28.9,16.7h0c3.2,1.1,6.6,1.9,10,2.4C439.8,582.9,442.4,583.2,445.4,583.5z"/>
<path fill="#FFFFFF" stroke="#000000" stroke-miterlimit="10" d="M665.7,622.5L664,623l-27.8,7.6c4.8-15.2-4.6-58.2-4.6-58.2
	l27.9-3.6l0.1,1l4.6,40.4L665.7,622.5z"/>
<path fill="#FFFFFF" stroke="#000000" stroke-miterlimit="10" d="M701.3,608.2l-9,0.5l-15.9,0.9l-12.2,0.7l-4.6-40.4
	c1.2-0.3,2.6-0.6,4.1-0.9c4.5-1,9.7-2,14.3-2.9c5.5-1,10-1.7,11.3-1.6C693.2,565,701.3,608.2,701.3,608.2z"/>
<path fill="#FFFFFF" stroke="#000000" stroke-miterlimit="10" d="M684.7,645.8c-3.1-0.3-6.6-3.1-10-7c-4.1-4.8-8-11.1-10.7-15.8
	l1.7-0.5l-1.4-12.3l12.2-0.7l15.9-0.9C692.6,617.5,691.9,632.5,684.7,645.8z"/>
<path fill="#FFFFFF" stroke="#000000" stroke-miterlimit="10" d="M616.1,371.7c-1.2,8.5-4.3,28.8-8.1,39.9
	c-3.4-0.6-6.8-1.2-10.3-1.8c3.5-11.2,6.7-32.2,8-41.3c1.9,0.5,3.6,0.9,5.1,1.4c0.2,0.1,0.4,0.1,0.6,0.2
	C613,370.7,614.5,371.2,616.1,371.7z"/>
<path fill="#FFFFFF" stroke="#000000" stroke-miterlimit="10" d="M662,422.7c-5.4,5.8-12.3,12.5-19.5,19.2
	c-28-3.6-118.5-11.8-166.7-12.7c-41.5-0.8-73.4,2.9-86.2,4.7c-3.3-6.4-9.4-18.7-15.2-33.1c18.2-2.6,65.8-7.7,133-2.5
	c31.5,2.4,63,6.9,90.3,11.6c3.5,0.6,6.9,1.2,10.3,1.8C630.2,415.7,649,419.7,662,422.7z"/>
<path fill="#FFFFFF" stroke="#000000" stroke-miterlimit="10" d="M680.6,401c-3.1,2.9-7.3,7.4-12.3,14.2c-1.7,2.3-3.8,4.8-6.3,7.5
	c-13-3-31.8-7-54-11c3.8-11.1,6.9-31.4,8.1-39.9c25.1,8.2,48.5,15.1,60.4,18.5C677.7,393.4,679.1,397.1,680.6,401z"/>
<path fill="#FFFFFF" stroke="#000000" stroke-miterlimit="10" d="M609.1,472.2c-6.4,6.3-7.8,14.4-7.4,24.9
	c-13.8,3.1-56.8,11.6-106.3,9.3c-60.2-2.8-84.7-17.5-84.7-17.5c-5.1-5.4-9.3-15.4-12.4-24.9c13.5,0.1,79.8,0.3,108.8,0
	c27.1-0.3,93-2.2,114-2.9C616.3,465.5,612,469.3,609.1,472.2z"/>
<path fill="#FFFFFF" stroke="#000000" stroke-miterlimit="10" d="M556.3,291.1l-7.8,18.2c0,0-70.9-7.5-102.3-11.5
	c-31.4-4-23.5-4.2-25-9.9c30.3-11.5,46.8-33.2,52.9-42.7c0.8,0.2,1.7,0.4,2.6,0.5c10,6.8,25,14.4,41.8,12.3
	c3.7-0.5,7.5-1.5,11.5-2.9c4.5,14.5,16.9,27.5,22.9,33.1C555,290.1,556.3,291.1,556.3,291.1z"/>
<path fill="#FFFFFF" stroke="#000000" stroke-miterlimit="10" d="M526.5,354.4C526.5,354.4,526.5,354.4,526.5,354.4
	c-0.1,0-0.2,0-0.2,0c-3.2-0.3-22-0.2-22-0.2s-6.1,33-4.3,38.3c1.8,5.3,20.7,3.5,20.7,3.5l12.1-17.9
	C532.8,378.1,529,354.9,526.5,354.4z M516.8,388.3c-1.4,2-8.2,4.4-11,0c-2.9-4.5,2.9-27.2,2.9-27.2l12.8-1.5
	C521.4,359.6,518.2,386.3,516.8,388.3z"/>
<path fill="#FFFFFF" stroke="#000000" stroke-miterlimit="10" d="M521.4,359.6c0,0-3.2,26.7-4.6,28.7c-1.4,2-8.2,4.4-11,0
	c-2.9-4.5,2.9-27.2,2.9-27.2L521.4,359.6z"/>
<path fill="#FFFFFF" stroke="#000000" stroke-miterlimit="10" d="M676.5,390.2c-11.9-3.4-35.3-10.3-60.4-18.5
	c-1.5-0.5-3.1-1-4.6-1.5c-0.2-0.1-0.4-0.1-0.6-0.2c-1.7-0.6-3.4-1.1-5.1-1.7c-1.1-0.4-2.3-0.8-3.4-1.2c11.5-8.7,19.2-20.6,21.4-24.2
	c0.2,0.8,0.4,1.7,0.7,2.5c7.5,26.3,28.6,37,50.5,40.5C675.3,387.1,675.9,388.6,676.5,390.2z"/>
<path fill="#FFFFFF" stroke="#000000" stroke-miterlimit="10" d="M574.1,324.8c-2.7,14.2-4.7,26.9-5.9,36.7
	c-1.6-0.2-2.5-0.4-2.5-0.4c-4.1-0.9-8.2-1.7-12.2-2.4h0c-25.9-16.2-73.5-11.4-95.2-16.6c-23.9-5.7-43.8-6.9-43.8-6.9l-9.6-14.5
	l16.4-14.6c0,0,18.9-3.2,51,3.2c32.1,6.4,80.8,6.1,80.8,6.1S565,316.8,574.1,324.8z"/>
<path fill="#FFFFFF" stroke="#000000" stroke-miterlimit="10" d="M604.9,540.8c-22.1,4-86,3.5-107,1c-23.9-2.9-59.5-3.9-74.1-3.9
	c-14.6,0-19.2-18.2-18.9-23.8c0.4-5.6,16.8-10.8,16.8-10.8s51,8.9,99.8,9.1c37.7,0.1,68.6-5.4,80.7-7.9c0.7,8.3,2,17.8,2.7,28.7
	C605,535.8,605,538.3,604.9,540.8z"/>
<path fill="#FFFFFF" stroke="#000000" stroke-miterlimit="10" d="M508.5,586.3l-1.2,49.8c-14.7,0.6-30.2,0.4-45.2-1.5
	c-3.1-0.4-6.2-0.9-9.3-1.4c-3.1-0.6-6.1-1.2-9-1.8l1.6-47.8C460.6,585,484.4,586,508.5,586.3z"/>
<path fill="#FFFFFF" stroke="#000000" stroke-miterlimit="10" d="M663.7,568.9c-1.5,0.3-2.8,0.6-4.1,0.9l-0.1-1l-27.9,3.6
	c0,0-1.7,0.1-4.4,0.3c-1.9-7.3-6-16.8-2.9-24.3c4.2-10.1,4-23.4,3.7-39.5c-0.3-16,8.2-23.9,9.5-26.3c0.7-1.3,11.4-14.4,21-26.1
	c1.5,12.9,4.1,38.5,1.9,42.9C658,504.4,663.4,550.9,663.7,568.9z"/>
<path fill="#FFFFFF" stroke="#000000" stroke-miterlimit="10" d="M636.2,630.6c-8.3,2.2-28.5,6-39.1,6.2c1.5-29.9-3-46.5-6.8-55v0
	c0.3-0.9,1.1-1.6,2.2-2.3c0,0,0,0,0,0c6.8-4.2,26-6.1,34.7-6.8c2.7-0.2,4.4-0.3,4.4-0.3S640.9,615.4,636.2,630.6z"/>
<path fill="#FFFFFF" stroke="#000000" stroke-miterlimit="10" d="M604.9,540.8c0,1.1-0.1,2.3-0.2,3.4c-4.5,0-80.5,6.8-91.5,5.8
	c-11.1-1.1-39.9-6.4-67.7-5.8c-22.2,0.5-37.1,0.2-42.1,0.1c-14.1-40.1,7.4-55.3,7.4-55.3s24.4,14.6,84.7,17.5
	c49.5,2.3,92.5-6.2,106.3-9.3c0.1,2.3,0.2,4.8,0.5,7.3c-12.1,2.5-43,8-80.7,7.9c-48.8-0.2-99.8-9.1-99.8-9.1s-16.4,5.2-16.8,10.8
	c-0.3,5.6,4.3,23.8,18.9,23.8c14.6,0,50.3,1.1,74.1,3.9C518.9,544.2,582.8,544.8,604.9,540.8z"/>
<path fill="#FFFFFF" stroke="#000000" stroke-miterlimit="10" d="M604.8,544.2c-1.6,22.3-11.9,34.9-12.3,35.3c0,0,0,0,0,0
	c-1.1,0.7-1.9,1.5-2.2,2.3v0c-0.1,0.2-0.1,0.5-0.2,0.7c-12.5,2.9-44.5,4-76.8,3.7c-13-10.1-26.4-19.9-45.3-19.6
	c-18.4,0.3-33.9,9.1-40.4,13.6h0c-11.3-3.7-21.3-10.4-28.9-16.7c0.3-6.9,1.5-15,5.6-17.2c-0.3-0.7-0.5-1.4-0.8-2.1
	c5.1,0.1,19.9,0.4,42.1-0.1c27.8-0.7,56.7,4.7,67.7,5.8C524.2,551,600.3,544.1,604.8,544.2z"/>
<path fill="#FFFFFF" stroke="#000000" stroke-miterlimit="10" d="M513.3,586.3c-1.6,0-3.2,0-4.8,0c-24.1-0.3-47.8-1.3-63.1-2.8
	c-2.9-0.3-5.6-0.6-7.8-0.9c-3.4-0.5-6.8-1.3-10-2.4c6.6-4.4,22-13.3,40.4-13.6C486.9,566.4,500.3,576.2,513.3,586.3z"/>
<path fill="#FFFFFF" stroke="#000000" stroke-miterlimit="10" d="M597.1,636.8c-3.3,0.1-5.7-0.2-6.5-1c-3.3-3.3,0-6.7-13.8-6.7
	c-8.3,0-33.6,4.8-63.4,6.6c-2,0.1-4.1,0.2-6.2,0.3l1.2-49.8c1.6,0,3.2,0,4.8,0c32.3,0.3,64.3-0.8,76.8-3.7c0-0.2,0.1-0.5,0.2-0.7
	C594.1,590.4,598.5,606.9,597.1,636.8z"/>
<path fill="#FFFFFF" stroke="#000000" stroke-miterlimit="10" d="M572.5,696.7l1.3,12.4c-30.2,11.4-96.2,51.4-116.2,48.3
	c-23.2-3.6-48.5-23.9-65.2-32.8c-12-6.4-37.8-8.9-51.9-10.1c14.6-6.9,48.6-22.1,85.8-32.3c3.5-1,6.9-2,10.4-3.2
	c17.3,6.5,50.4,15.9,86.6,10c5.5-0.9,10.8-1.9,16-3.1c10.7,2.8,25.2,6.3,36.2,7.2C574.4,694.1,573.4,695.3,572.5,696.7z"/>
<path fill="#FFFFFF" stroke="#000000" stroke-miterlimit="10" d="M679.9,749.3c-9.4-0.4-26.1-1.9-40.1-7c-2.9-1.1-6-2-9.2-2.8
	c-19.6-4.9-43-5.3-43-5.3L577,707.9l-4.5-11.2c0,0,45.6,0.5,53.2,4.9c7.6,4.4,50.9,26.4,50.9,26.4
	C677.9,734.7,678.9,741.9,679.9,749.3z"/>
<path fill="#FFFFFF" stroke="#000000" stroke-miterlimit="10" d="M696.9,877.8c-12.9-5.1-25.2-7.9-36.6-9.1
	c2.8-33.1-24.5-114.1-29.7-129.2c3.2,0.8,6.3,1.7,9.2,2.8c14,5.1,30.7,6.6,40.1,7c5.1,39.6,6.1,85.3,9.4,90.9
	C692.1,845,697.9,861.2,696.9,877.8z"/>
<path fill="#FFFFFF" stroke="#000000" stroke-miterlimit="10" d="M660.3,868.7c-40.4-4.5-69,10.2-69,10.2L579.9,768l-6.1-58.9
	c1.1-0.4,2.2-0.8,3.3-1.2l10.7,26.3c0,0,23.3,0.4,43,5.3C635.9,754.6,663.2,835.6,660.3,868.7z"/>
<path fill="#FFFFFF" stroke="#000000" stroke-miterlimit="10" d="M676.6,728c0,0-43.2-22-50.9-26.4c-7.6-4.5-53.2-4.9-53.2-4.9
	c0.9-1.4,1.8-2.6,2.8-3.7c11-12.1,27.3-9.3,41.4-5.4c4.2,1.1,8.2,2.4,11.8,3.3c16.9,4.5,42.3,22.5,42.3,22.5l5.5,13.1
	C676.4,727.1,676.5,727.6,676.6,728z"/>
<path fill="#FFFFFF" stroke="#000000" stroke-miterlimit="10" d="M363.2,264.2c-2.7,11-4.2,22.8-5,34.6v0c-5.1,0.4-11.6,1-18.2,1.7
	c-4.2,0.4-8.4,0.8-12.3,1.3c-3.3-11-4.3-20.9-3.8-29.8C341.6,260.7,363.2,264.2,363.2,264.2z"/>
<path fill="#FFFFFF" stroke="#000000" stroke-miterlimit="10" d="M383.5,222.3c-4.8,5-8.7,11.1-12,18c-10.2,0.1-28.9,1.7-43.5,10.8
	c2.1-6.1,4.8-11.2,7.4-15.4c0,0,0,0,0,0C354.9,219.4,383.5,222.3,383.5,222.3z"/>
<path fill="#FFFFFF" stroke="#000000" stroke-miterlimit="10" d="M371.5,240.3c-3.5,7.2-6.2,15.3-8.2,23.9c0,0-21.6-3.5-39.3,7.8
	c0.4-7.8,2-14.8,4-20.8v0C342.6,242,361.2,240.4,371.5,240.3z"/>
<path fill="#FFFFFF" stroke="#000000" stroke-miterlimit="10" d="M750.2,307.9l-13-3.6l-8.4,27.1l-1.6-17.9l-1.2-13.8l-14.6-7.1
	l9.8-7.5l-3.1-18.4c0.2-0.8,0.5-1.6,0.7-2.4l12,14.6l11-9.7l-0.5,14.2l-0.3,9.2L750.2,307.9z"/>
<path fill="#FFFFFF" stroke="#000000" stroke-miterlimit="10" d="M542.1,134.7c0,0-1.4-31-20.3-40.3c-18.9-9.3-41-10.7-44.9-13.9
	s-27.4,0-27.4,0s-0.1,0-0.3,0c-0.1,0-0.1,0-0.2,0c-0.3,0-0.8,0.1-1.3,0.2c-0.1,0-0.3,0.1-0.4,0.1c-0.3,0.1-0.6,0.1-0.9,0.2
	c-0.1,0-0.3,0.1-0.4,0.1c-0.7,0.2-1.4,0.4-2.1,0.8c-0.3,0.1-0.5,0.2-0.8,0.4c-0.2,0.1-0.4,0.2-0.5,0.3c-0.2,0.1-0.4,0.2-0.5,0.3
	c-0.5,0.3-1.1,0.7-1.5,1.2c-0.2,0.1-0.3,0.3-0.4,0.4c-0.3,0.3-0.6,0.6-0.8,1c-0.3,0.3-0.5,0.7-0.7,1.1c-0.1,0.1-0.1,0.2-0.1,0.3
	c0,0.1-0.1,0.2-0.2,0.4c0,0.1-0.1,0.2-0.1,0.3c0,0.1-0.1,0.2-0.1,0.3c0,0.2-0.1,0.3-0.1,0.5c-0.1,0.2-0.1,0.4-0.1,0.7
	c0,0.2-0.1,0.5-0.1,0.7c-0.1,1.2,0,2.5,0.4,4c3.2,12.1,34.6,45.3,39.9,54.5c2.4,4.2,4.7,9.3,6.9,14.1c9,2.7,15.8,5.6,25.2,3.4
	c3.7-0.9,7.9-3.7,12.2-7.6c6-5.4,12.1-12.8,16.9-19.2C540.2,137.4,541.2,136,542.1,134.7C542.1,134.7,542.1,134.7,542.1,134.7z
	 M505.8,130.3c-0.7,0.9-1.6,1.7-2.6,2.6c1.3-0.1,3.2,0,5.2,0.2c2.6,0.3,5.7,1.1,8.5,2.7c-2.9,6.9-11.7,12.2-17.1,11.7
	c-5.3-0.6-13.4-6.5-13.4-6.5c-1.4,0.3-2.8,0.4-3.9,0.4c0,0,6.9-1.1,16.3-10.6c9.4-9.5,19.4-8.8,26.3-7.2
	C521.1,124.8,510.7,124.3,505.8,130.3z"/>
<path fill="#FFFFFF" stroke="#000000" stroke-miterlimit="10" d="M525.2,123.5c-4.2,1.3-14.5,0.8-19.4,6.8c-0.7,0.9-1.6,1.7-2.6,2.6
	c-2.4,2.1-5.6,3.9-8.8,5.4c-2.7,1.2-5.5,2.2-7.9,2.7c-1.4,0.3-2.8,0.4-3.9,0.4c0,0,6.9-1.1,16.3-10.6
	C508.3,121.2,518.3,122,525.2,123.5z"/>
<path fill="#FFFFFF" stroke="#000000" stroke-miterlimit="10" d="M503.9,141.9c-5.2,1.8-8.5-2.1-9.5-3.7c3.2-1.5,6.4-3.3,8.8-5.4
	c1.3-0.1,3.2-0.1,5.2,0.2C508.5,133,510.4,139.7,503.9,141.9z"/>
<path fill="#FFFFFF" stroke="#000000" stroke-miterlimit="10" d="M517,135.7c-2.9,6.9-11.7,12.2-17,11.7c-5.3-0.6-13.4-6.5-13.4-6.5
	c2.4-0.5,5.2-1.5,7.9-2.7c1,1.6,4.3,5.5,9.5,3.7c6.4-2.2,4.5-8.9,4.5-8.9C511.1,133.4,514.1,134.1,517,135.7z"/>
<path fill="#FFFFFF" stroke="#000000" stroke-miterlimit="10" d="M458.9,144.7c-2.4,0.8-6.9,2.3-9.9,2.7c-5-6.4-8.4-12.5-5.7-11.3
	C446.6,137.5,453.6,140.8,458.9,144.7z"/>
<path fill="#FFFFFF" stroke="#000000" stroke-miterlimit="10" d="M469.1,160.2c-1.5,0.3-3,0.7-4.4,1.3c-0.6-0.4-1.3-0.8-2.1-1.1
	c-3.8-1.7-9.3-7.4-13.6-12.9c3-0.4,7.5-1.8,9.9-2.7c2.9,2.1,5.4,4.4,6.5,6.7C466.8,154,467.8,157,469.1,160.2z"/>
<path fill="#FFFFFF" stroke="#000000" stroke-miterlimit="10" d="M460.9,163.1c-7,3.6-13.3,8.9-19.7,9.3c-2.4,0.2-4.9-1-7.4-2.9
	c-3.8-3-7.5-7.7-10.4-12c-5.3-30.5,0.7-59.6,0.7-59.6l7.4,29.1c-0.8,0-1.7,0.2-2.5,0.6c0.6,0.5,1.9,1.3,3.2,2l1.5,6
	c0,0,11,20,20,23.5C456.1,160.2,458.6,161.6,460.9,163.1z"/>
<path fill="#FFFFFF" stroke="#000000" stroke-miterlimit="10" d="M506.3,238.8c-7.7,4.3-16.6,7.2-26.6,7.1c-1,0-2-0.1-3-0.2
	c-0.7-0.5-1.4-0.9-2-1.4c-0.2,0.3-0.4,0.6-0.6,0.9c-5.1-1.2-9.7-3.8-13.7-7.2c-2.9-7.6-5.1-17.8-6.5-24.9
	c-3.1-16.8,25-32.7,40.1-18.3C502.3,202.7,508.9,220.2,506.3,238.8z"/>
<path fill="#FFFFFF" stroke="#000000" stroke-miterlimit="10" d="M458.3,342.1c21.7,5.2,69.3,0.4,95.2,16.6
	c-9.2-1.7-18.2-3.1-27-4.2c0,0,0,0,0,0c-0.1,0-0.1,0-0.2,0c-77.9-10.1-137.2-0.7-137.2-0.7v-36.4c0,0,3.3,2.9,6.9-38.5
	c2.7-31.2,16.9-64.3,23.8-78.7c4.5-3.4,7.6-6,7.6-6s2-0.9-0.3-16.8c4,8,10.1,20.3,11,24.3c0.8,3.4,5.7,16.6,14.3,27.7
	c2.4,3.1,5.1,6.1,8.1,8.6c4,3.4,8.6,6,13.7,7.2c-6,9.5-22.5,31.3-52.9,42.7c1.4,5.7-6.4,6,25,9.9c31.4,4,102.3,11.5,102.3,11.5
	l7.8-18.2c0,0-1.3-1.1-3.4-3l9.1,4.9l-9.1,22.4c0,0-48.7,0.3-80.8-6.1c-32.1-6.4-51-3.2-51-3.2l-16.4,14.6l9.6,14.5
	C414.5,335.2,434.4,336.4,458.3,342.1z"/>
<path fill="#FFFFFF" stroke="#000000" stroke-miterlimit="10" d="M452.3,229.4c-8.6-11.1-13.5-24.3-14.3-27.7c-0.9-4-7-16.4-11-24.3
	c-0.6-4.3-1.5-9.6-2.9-16.3c-0.2-1.2-0.5-2.3-0.7-3.5c2.9,4.3,6.6,9.1,10.4,12c2,5.6,5.5,13.9,9.9,16.4c6.8,3.9,8.2,3.2,8.2,3.2
	S447.9,209.8,452.3,229.4z"/>
</svg>
