<?xml version="1.0" encoding="utf-8"?>
<!-- Generator: Adobe Illustrator 25.2.0, SVG Export Plug-In . SVG Version: 6.00 Build 0)  -->
<svg version="1.1" baseProfile="tiny" id="Layer_1" xmlns="http://www.w3.org/2000/svg" xmlns:xlink="http://www.w3.org/1999/xlink"
	 x="0px" y="0px" viewBox="0 0 1000 1000" overflow="visible" xml:space="preserve">
<path fill="#FFFFFF" stroke="#000000" stroke-miterlimit="10" d="M590.71,749.02l-2.31,0.08h-0.01l-24.55,0.87
	c0,0-8.6,3.4-21.9,0.81c-5.97-1.16-12.89-3.52-20.4-7.94c-47.53-6.18-60.36-14.73-73.67-22.33c-7.5-4.29-27.86-25.97-50.32-46.41
	c-0.18-2.47-1.5-4.42-4.21-4.8c-0.42-0.05-0.82-0.09-1.2-0.09c-0.01,0-0.02-0.01-0.02-0.01c-2.35-2.07-4.71-4.12-7.08-6.12
	c31.53,3.16,49.71,17.26,75.19,31.76c27.57,15.69,51.8,10.93,51.8,10.93C553.38,744.27,590.71,749.02,590.71,749.02z"/>
<path fill="#FFFFFF" stroke="#000000" stroke-miterlimit="10" d="M392.12,669.2c-6.38-0.07-9.26,6.74-10.4,10.29
	c-0.54-0.26-1.1-0.44-1.69-0.53c-4.06-0.6-7.58,2.64-9.18,4.54c-3.08-2.3-9.26-3.53-12.86-2.67c-2.35-3.96-8.8-8.11-12.72-9.11
	c-0.2-1.32-0.68-2.48-1.36-3.14c-1.91-1.82-6.89-5.05-9.41-6.65c0.99-1.55,0.97-3.91-0.8-6.77c-3.02-4.87-6.18-8.03-8.03-9.63
	c0.79-1.84,0.96-3.97,0.07-5.88c-2.02-4.29-4.66-9.94-8.79-10.63c1.58-1.68,2.45-3.63,1.78-5.18c-1.05-2.41-3.39-4.86-5.3-6.58
	c0.28-0.23,0.53-0.49,0.73-0.78c6.53,7.85,17.04,15.04,32.49,20.99c10.09,3.88,21.86,12.03,33.8,21.79
	c1.53,1.24,3.06,2.52,4.59,3.82C387.41,665.08,389.77,667.13,392.12,669.2z"/>
<path fill="#FFFFFF" stroke="#000000" stroke-miterlimit="10" d="M395.95,599.67c-2.77-7.9-7.66-13.25-17.11-12.62
	c-9.44,0.62-1.78,10.97,1.61,19.16c3.39,8.2,10.51,11.94,14.26,9.98C398.45,614.23,397.91,605.23,395.95,599.67z M532.53,529.67
	c-1.04-4.93-2.49-9.99-4.28-15.16v-0.01c-1.7-4.95-3.7-9.98-5.93-15.07v-0.01c-1.49-3.41-3.08-6.84-4.75-10.29
	c-2.47-5.12-5.12-10.27-7.85-15.42c-3.18-5.97-6.48-11.93-9.78-17.83c-3.78-6.77-7.57-13.46-11.19-19.99
	c-11.55-20.83-21.38-40.08-23.77-55.19c-1.01-6.38-1.38-12.66-1.28-18.74c0.64-37,18.87-66.8,18.87-66.8s11.88-40.87,5.7-35.17
	c-4.79,4.42-24.14,15.12-38.13,48.49c-4.06,9.68-7.67,21.26-10.34,35.15c-1.43,7.44-1.98,15.38-1.87,23.65v0.01
	c2.02,1.26,3.29,1.86,3.29,1.86c13.77,34.55,8.97,56.81,7.33,62.43v0.01c-0.27,0.92-0.45,1.39-0.45,1.39s15.22,1.43,14.03,4.04
	c-1.19,2.61-6.18,9.51-6.18,9.51s16.64-0.72,16.28,5.34s-12.83,13.55-12.83,13.55s17.11-4.28,17.94,4.89s-10.81,12.57-10.81,12.57
	s16.04-1.07,15.56,7.72c-0.47,8.79-13.07,9.87-13.07,9.87s10.34,6.29,8.32,12.71c-2.02,6.41-10.81,7.13-10.81,7.13l5.7,7.72
	c0,0-4.99,5.82-15.36,5.57c-0.88,2.59-1.97,5.02-3.29,7.26c-2.83,4.79-6.41,8.92-10.53,12.48v0.01c-11.81,10.22-28,15.75-43.23,18.7
	c-23.18,4.5-44.14,3.03-44.14,3.03s-1.18-0.21-3.19-0.49c-6.51-0.88-21.68-2.43-32.93,0.42c0.69,3.23-5.04,6.39-10.89,5.95
	c-1.2,1.42-2.03,3.09-2.42,5.05c-0.26,1.31-0.46,2.61-0.59,3.92c0,0,0,0,0,0.01c1.97,2.34,3.6,5.14,4.04,8.24
	c0.23,1.66-0.01,2.96-0.59,3.96c1.79,1.72,3.89,4.53,5.46,9.06c0.79,2.29,0.52,4.04-0.41,5.28c6.53,7.85,17.04,15.04,32.49,20.99
	c10.09,3.88,21.86,12.03,33.8,21.79c13.39-0.78,34.82-3.1,43.66-10.04c21.86-4.75,29.94-17.96,29.94-17.96s6.08-2.07,14.9-6.38
	c4.71-2.29,10.2-5.21,15.96-8.8c6.96-4.32,14.32-9.61,21.2-15.89c5.89-5.38,11.41-11.49,16.02-18.35
	c3.91-5.81,7.16-12.16,9.41-19.08c0.47-1.41,0.89-2.85,1.27-4.31c0.53-2.03,0.91-4.11,1.16-6.24v-0.01
	C534.8,545.15,534.2,537.59,532.53,529.67z"/>
<path fill="#FFFFFF" stroke="#000000" stroke-miterlimit="10" d="M535.36,694.47c-0.01,0-0.01,0-0.01,0
	c-9.68-1.57-22.34-5.65-22.83-5.8c0.75,0.43,36.79,21.47-0.49,17.1c0,0-24.23,4.76-51.8-10.93c-25.48-14.5-43.66-28.6-75.19-31.76
	c-1.53-1.3-3.06-2.58-4.59-3.82c13.39-0.78,34.82-3.1,43.66-10.04c21.86-4.75,29.94-17.96,29.94-17.96s10.93,15.58,35.65,31.27
	c6.89,4.37,16.18,8.34,26.16,11.78c0,0,0.11,0.04,0.33,0.12c0.05,0.02,0.1,0.04,0.17,0.06c0.06,0.02,0.13,0.04,0.19,0.07
	c0.07,0.03,0.14,0.05,0.22,0.08c0.13,0.05,0.27,0.1,0.43,0.16c0.15,0.06,0.32,0.13,0.49,0.2c0.16,0.06,0.33,0.13,0.51,0.19
	c0.85,0.34,1.91,0.76,3.1,1.25c0.3,0.12,0.6,0.25,0.91,0.37c0.38,0.16,0.78,0.33,1.19,0.51c0.5,0.21,1.02,0.43,1.55,0.66
	c0.64,0.28,1.3,0.57,1.97,0.88c0.33,0.15,0.67,0.3,1,0.45c0.08,0.04,0.15,0.07,0.23,0.11c0.33,0.15,0.67,0.31,1,0.46
	c0.29,0.14,0.58,0.27,0.88,0.42c0.42,0.21,0.85,0.41,1.27,0.62c0.21,0.1,0.42,0.2,0.63,0.31c0.21,0.1,0.42,0.21,0.63,0.32
	c0.27,0.13,0.54,0.27,0.81,0.41c0.35,0.18,0.69,0.36,1.04,0.54c0.42,0.23,0.84,0.46,1.25,0.69c0.27,0.15,0.54,0.3,0.8,0.45
	c0.33,0.19,0.66,0.38,0.98,0.57c0.2,0.11,0.39,0.23,0.58,0.34c0.38,0.23,0.75,0.46,1.11,0.69c0.18,0.11,0.36,0.23,0.54,0.35
	c1.28,0.83,2.44,1.68,3.42,2.53c0.24,0.2,0.47,0.41,0.69,0.62c0.49,0.46,0.92,0.93,1.28,1.39c0.09,0.11,0.18,0.23,0.26,0.34
	c0.09,0.11,0.16,0.23,0.23,0.34s0.14,0.23,0.2,0.34c0.06,0.1,0.11,0.21,0.16,0.31c0.01,0.01,0.01,0.02,0.02,0.03
	c0.05,0.11,0.1,0.22,0.13,0.33c0.05,0.11,0.08,0.21,0.11,0.32c0.03,0.11,0.06,0.22,0.08,0.33
	C546.81,695.45,541.73,695.51,535.36,694.47z"/>
<path fill="#FFFFFF" stroke="#000000" stroke-miterlimit="10" d="M309.11,602.14c-0.47,0.81-1.16,1.42-1.99,1.82
	c-2.24,1.14-5.52,0.91-8.24-0.24c-1.88-0.8-3.49-2.04-4.32-3.57c-2.4-4.42-0.67-10.71,0.15-13.13c2-0.13,3.96-0.91,5.67-2.05
	c1.65,1.26,3.59,2.94,5.28,4.96c0,0,0,0,0,0.01c1.97,2.34,3.6,5.14,4.04,8.24C309.93,599.84,309.69,601.14,309.11,602.14z"/>
<path fill="#FFFFFF" stroke="#000000" stroke-miterlimit="10" d="M314.16,616.48c-0.2,0.29-0.45,0.55-0.73,0.78
	c-2.21,1.87-6.26,2.1-9.53,1.04c-2-0.65-3.71-1.78-4.54-3.3c-2.27-4.19-1.21-9.01-0.48-11.28c2.72,1.15,6,1.38,8.24,0.24
	c0.83-0.4,1.52-1.01,1.99-1.82c1.79,1.72,3.89,4.53,5.46,9.06C315.36,613.49,315.09,615.24,314.16,616.48z"/>
<path fill="#FFFFFF" stroke="#000000" stroke-miterlimit="10" d="M308.67,580.96c-1.2,1.42-2.03,3.09-2.42,5.05
	c-0.26,1.31-0.46,2.61-0.59,3.92c-1.69-2.02-3.63-3.7-5.28-4.96c1.91-1.29,3.51-3.02,4.49-4.85
	C306.1,580.6,307.39,580.87,308.67,580.96z"/>
<path fill="#FFFFFF" stroke="#000000" stroke-miterlimit="10" d="M581.36,653.2c-0.21,1.78-0.9,3.39-2.24,4.76
	c-1.62,1.66-5.78,2.02-11.61,1.41c-24.51-2.52-78.63-22.14-98.56-34.49c4.71-2.29,10.2-5.21,15.96-8.8
	c22.6,10.19,64.17,15.65,86.63,16.34C576.38,638.3,582.09,646.77,581.36,653.2z"/>
<path fill="#FFFFFF" stroke="#000000" stroke-miterlimit="10" d="M587.87,628.79c-0.11,1.04-0.49,1.89-1.22,2.47
	c-1.28,1.02-6.92,1.41-15.11,1.16c-22.46-0.69-64.03-6.15-86.63-16.34c6.96-4.32,14.32-9.61,21.2-15.89
	c17.87,5.22,57.19,16.26,78.98,18.74C586.81,622.48,588.15,626.22,587.87,628.79z"/>
<path fill="#FFFFFF" stroke="#000000" stroke-miterlimit="10" d="M601.7,613.28c-0.1,1.76-0.69,3.32-1.91,4.57
	c-1.74,1.77-7.17,1.94-14.7,1.08c-21.79-2.48-61.11-13.52-78.98-18.74c5.89-5.38,11.41-11.49,16.02-18.35
	c16.81,3.67,50.59,10.47,69.77,10.43C596.39,598.16,602.11,606.98,601.7,613.28z"/>
<path fill="#FFFFFF" stroke="#000000" stroke-miterlimit="10" d="M606.16,587.83h-0.01c-0.14,0.33-0.3,0.66-0.49,0.99
	c-1.43,2.46-6.57,3.43-13.76,3.45c-19.18,0.04-52.96-6.76-69.77-10.43c3.91-5.81,7.16-12.16,9.41-19.08
	c23.79-2.78,48.92,2.42,63.45,3.91C601.19,571.95,609.24,580.58,606.16,587.83z"/>
<path fill="#FFFFFF" stroke="#000000" stroke-miterlimit="10" d="M594.25,541.81c0,2.85-2.79,4.59-7.27,5.7
	c-12.6,3.1-38.53,1.14-53.01,4.69c0.83-7.05,0.23-14.61-1.44-22.53c10.58-6.67,28.09-7.68,41.15-8.83
	C580.95,524.79,594.25,533.18,594.25,541.81z"/>
<path fill="#FFFFFF" stroke="#000000" stroke-miterlimit="10" d="M607.4,564.15c0.05,3.05-4.68,3.31-12.41,2.52
	c-14.53-1.49-39.66-6.69-63.45-3.91c0.47-1.41,0.89-2.85,1.27-4.31c0.53-2.03,0.91-4.11,1.16-6.24v-0.01
	c14.48-3.55,40.41-1.59,53.01-4.69c7.4,3.42,17.69,9.01,19.96,14.56C607.23,562.77,607.39,563.46,607.4,564.15z"/>
<path fill="#FFFFFF" stroke="#000000" stroke-miterlimit="10" d="M573.68,520.84c-13.06,1.15-30.57,2.16-41.15,8.83
	c-1.04-4.93-2.49-9.99-4.28-15.16v-0.01c12.91-6.43,39.76-5.9,52.06-9.14h0.01c5.03,2.43,9.76,5.76,10.39,9.84
	C591.29,518.97,583.83,519.95,573.68,520.84z"/>
<path fill="#FFFFFF" stroke="#000000" stroke-miterlimit="10" d="M573.18,485.52c-1.69,0.44-3.19,0.93-4.43,1.48
	c0.63,0.23,1.26,0.47,1.89,0.72c-8.92,4.03-37.41,2.31-48.32,11.7c-1.49-3.41-3.08-6.84-4.75-10.29
	c11.1-8.67,35.28-15.09,38.78-16.95c6.36,1.67,13.45,4.81,16.51,10.7C573.39,483.9,573.48,484.77,573.18,485.52z"/>
<path fill="#FFFFFF" stroke="#000000" stroke-miterlimit="10" d="M556.71,471.95c-0.07,0.07-0.19,0.15-0.36,0.23
	c-3.5,1.86-27.68,8.28-38.78,16.95c-2.47-5.12-5.12-10.27-7.85-15.42c5.95-19.33,27.87-25.12,33.24-30.45
	c9.01-0.74,18.36-0.17,18.74,5.4C562.41,459.12,558.61,470.05,556.71,471.95z"/>
<path fill="#FFFFFF" stroke="#000000" stroke-miterlimit="10" d="M580.32,505.36h-0.01c-12.3,3.24-39.15,2.71-52.06,9.14
	c-1.7-4.95-3.7-9.98-5.93-15.07v-0.01c10.91-9.39,39.4-7.67,48.32-11.7c7.83,3.09,15.62,7.5,16.07,12.75
	C586.91,502.78,584.43,504.28,580.32,505.36z"/>
<path fill="#FFFFFF" stroke="#000000" stroke-miterlimit="10" d="M542.96,443.26c-5.37,5.33-27.29,11.12-33.24,30.45
	c-3.18-5.97-6.48-11.93-9.78-17.83c4.09-14.06,14.68-20.62,22.02-24.79c7.66,1.1,17.59,3.39,21.44,8.07
	C544.61,440.63,544.3,441.93,542.96,443.26z"/>
<path fill="#FFFFFF" stroke="#000000" stroke-miterlimit="10" d="M521.96,431.09c-7.34,4.17-17.93,10.73-22.02,24.79
	c-3.78-6.77-7.57-13.46-11.19-19.99c2.65-8.19,8.71-15.58,15.85-20.89c9.84,2.1,22.09,5.36,24.56,8.95
	C530.82,426.36,527.22,428.11,521.96,431.09z"/>
<path fill="#FFFFFF" stroke="#000000" stroke-miterlimit="10" d="M831.16,74.76c-10.81,36.39-84.8,59.21-148.67,102.56l-0.01,0.01
	c-5.58,3.78-11.07,7.73-16.45,11.85c-22.29,17.1-47.24,37.31-70.6,56.66c-27.78,23.01-53.32,44.8-69.47,58.7
	c-7.73,1.79-13.49,3.33-13.91,3.44c0.75-0.53,27-19.05,21.84-22.33c-5.14-3.27-38.46,15.6-39.42,16.15
	c0.82-0.74,29.37-26.17,24.22-28.98c-5.23-2.85-36.12,22.34-36.12,22.34s11.88-40.87,5.7-35.17c0,0,7.86-13.15,25.31-32.55
	C555.66,180.64,653.5,97.44,831.16,74.76z"/>
<path fill="#FFFFFF" stroke="#000000" stroke-miterlimit="10" d="M877.14,135.71c-64.16,44.91-195.68,97.31-195.68,97.31
	s-18.04-0.15-42.54,3.35h-0.02c-13.22,1.9-28.31,4.85-43.47,9.47c23.36-19.35,48.31-39.56,70.6-56.66
	c5.38-4.12,10.87-8.07,16.45-11.85l0.01-0.01C735,160.84,813.18,139.55,877.14,135.71z"/>
<path fill="#FFFFFF" stroke="#000000" stroke-miterlimit="10" d="M565.35,306.1c-6.32,3.85-18.67,9.04-32.29,16.15l-0.01,0.01
	c-15.17,7.92-31.89,18.25-43.59,31.81c-6.43-6.08-18.04,1.47-25.76,7.89c0.64-37,18.87-66.8,18.87-66.8s30.89-25.19,36.12-22.34
	c5.15,2.81-23.4,28.24-24.22,28.98c0.96-0.55,34.28-19.42,39.42-16.15c5.16,3.28-21.09,21.8-21.84,22.33
	c0.42-0.11,6.18-1.65,13.91-3.44c15.98-3.69,40.42-8.43,43.58-3.68C570.48,302.27,568.82,303.99,565.35,306.1z"/>
<path fill="#FFFFFF" stroke="#000000" stroke-miterlimit="10" d="M866.09,225.54c0,0-87.53,26.54-152.14,50.93h-0.01
	c-21.42,8.08-40.32,15.92-52.68,22.49c0,0-1.74,31.36-87.58,30.9c6.92-2.27,10.81-4.09,9.64-6.19c-3.44-6.19-33.77-3.42-50.26-1.42
	c13.62-7.11,25.97-12.3,32.29-16.15c56.9,6.67,90.29-46.76,98.9-62.65c9.78,2.52,18.01,4.24,20.06,3.47
	C690.01,244.78,826.88,215.56,866.09,225.54z"/>
<path fill="#FFFFFF" stroke="#000000" stroke-miterlimit="10" d="M664.25,243.45c-8.61,15.89-42,69.32-98.9,62.65
	c3.47-2.11,5.13-3.83,4.19-5.24c-3.16-4.75-27.6-0.01-43.58,3.68c16.15-13.9,41.69-35.69,69.47-58.7
	c15.16-4.62,30.25-7.57,43.47-9.47h0.02C646.6,238.61,655.98,241.32,664.25,243.45z"/>
<path fill="#FFFFFF" stroke="#000000" stroke-miterlimit="10" d="M573.68,329.86c-7.72,2.53-19.21,5.62-31.7,10.3
	c-17.39,6.51-36.72,16.12-50.45,31.57c2.04-6.19,2.67-13.17-2.07-17.66c11.7-13.56,28.42-23.89,43.59-31.81l0.01-0.01
	c16.49-2,46.82-4.77,50.26,1.42C584.49,325.77,580.6,327.59,573.68,329.86z"/>
<path fill="#FFFFFF" stroke="#000000" stroke-miterlimit="10" d="M576.25,348.5c-4.14,1.91-10.73,4.27-18.62,7.39h-0.01
	c-13.32,5.27-30.35,12.72-45.59,23.92c-5.7-14.68-27.09,5.17-27.09,5.17s4.24-6.1,6.59-13.25c13.73-15.45,33.06-25.06,50.45-31.57
	c16.15,0.09,37.77,0.87,38.96,4.42C581.32,345.72,579.56,346.97,576.25,348.5z"/>
<path fill="#FFFFFF" stroke="#000000" stroke-miterlimit="10" d="M518.69,407.79c-4.74,1.38-9.63,3.88-14.09,7.21
	c-7.14,5.31-13.2,12.7-15.85,20.89c-11.55-20.83-21.38-40.08-23.77-55.19c-1.01-6.38-1.38-12.66-1.28-18.74
	c7.72-6.42,19.33-13.97,25.76-7.89c4.74,4.49,4.11,11.47,2.07,17.66c-2.35,7.15-6.59,13.25-6.59,13.25s21.39-19.85,27.09-5.17
	c5.27,13.56-12.97,23.1-15.79,24.5C498.74,403.27,513.06,397.83,518.69,407.79z"/>
<path fill="#FFFFFF" stroke="#000000" stroke-miterlimit="10" d="M888.19,298.96c-48.47-1.42-143.29,7.13-151.84,9.98
	c-0.19,0.06-0.38,0.15-0.59,0.27c-4.44,2.57-13.32,17.99-36.18,30.04c-23.27,12.27-61.03,21.05-123.33,9.25
	c3.31-1.53,5.07-2.78,4.69-3.92c-1.19-3.55-22.81-4.33-38.96-4.42c12.49-4.68,23.98-7.77,31.7-10.3
	c85.84,0.46,87.58-30.9,87.58-30.9c12.36-6.57,31.26-14.41,52.68-22.49h0.01C762.88,277.52,850.43,281.84,888.19,298.96z"/>
<path fill="#FFFFFF" stroke="#000000" stroke-miterlimit="10" d="M873.93,360.98c-4.92-0.49-54.14-13.74-110.91-19.47
	c-20.73-2.09-42.48-3.18-63.44-2.26c22.86-12.05,31.74-27.47,36.18-30.04C769.63,317.32,871.55,343.15,873.93,360.98z"/>
<path fill="#FFFFFF" stroke="#000000" stroke-miterlimit="10" d="M851.12,404.47c-21.75-11.71-51.37-20.99-76.67-27.53h-0.01
	c0,0-0.01,0-0.01-0.01c-28.56-7.38-51.62-11.28-51.62-11.28s-45.4,8.3-125.77,4.1c-0.14-2.92-0.93-5.35-2.79-7.11
	c-5.26-4.98-22.85-6.42-36.62-6.75c7.89-3.12,14.48-5.48,18.62-7.39c62.3,11.8,100.06,3.02,123.33-9.25
	c20.96-0.92,42.71,0.17,63.44,2.26C787.21,352.58,829.5,374.98,851.12,404.47z"/>
<path fill="#FFFFFF" stroke="#000000" stroke-miterlimit="10" d="M809.06,404.47c-22.81-7.13-41.34-16.64-49.9-13.31
	c-4.9,1.91-40.04,13.28-82.18,19.4c-27.18,3.95-57.27,5.71-84.03,1.33v-0.01c-2.6-15.96,4.6-32.05,4.09-42.13
	c80.37,4.2,125.77-4.1,125.77-4.1s23.06,3.9,51.62,11.28c0,0.01,0.01,0.01,0.01,0.01h0.01
	C789.15,387.44,806.88,401.84,809.06,404.47z"/>
<path fill="#FFFFFF" stroke="#000000" stroke-miterlimit="10" d="M701.24,453.87h-0.01c-25.53,1.64-52.88,2.39-74.72,1.53
	c-11.09-10.39-27.5-23.16-32.26-38.02c-0.58-1.82-1.01-3.65-1.3-5.49c26.76,4.38,56.85,2.62,84.03-1.33
	c36.22,8.86,98.82,24.92,102.86,30.98C782.67,445.79,744.56,451.09,701.24,453.87z"/>
<path fill="#FFFFFF" stroke="#000000" stroke-miterlimit="10" d="M628.81,480.97c-1.81,0.44-3.19,0.49-3.19,0.49
	s-35.71-0.35-52.44,4.06c0.3-0.75,0.21-1.62-0.32-2.64c-3.06-5.89-10.15-9.03-16.51-10.7c0.17-0.08,0.29-0.16,0.36-0.23
	c1.9-1.9,5.7-12.83,4.99-23.29c-0.38-5.57-9.73-6.14-18.74-5.4c1.34-1.33,1.65-2.63,0.44-4.1c-3.85-4.68-13.78-6.97-21.44-8.07
	c5.26-2.98,8.86-4.73,7.2-7.14c-2.47-3.59-14.72-6.85-24.56-8.95c4.46-3.33,9.35-5.83,14.09-7.21c-5.63-9.96-19.95-4.52-22.45-3.48
	c2.82-1.4,21.06-10.94,15.79-24.5c15.24-11.2,32.27-18.65,45.59-23.92h0.01c13.77,0.33,31.36,1.77,36.62,6.75
	c1.86,1.76,2.65,4.19,2.79,7.11c0.51,10.08-6.69,26.17-4.09,42.13v0.01c0.29,1.84,0.72,3.67,1.3,5.49
	c4.76,14.86,21.17,27.63,32.26,38.02c5.52,5.17,9.73,9.75,10.51,13.7C638.65,477.22,632.72,480.01,628.81,480.97z"/>
<path fill="#FFFFFF" stroke="#000000" stroke-miterlimit="10" d="M784.11,495c0.56,9.73-23.77,10.82-53.64,8.53h-0.01
	c-27.89-2.14-60.62-7.22-82.45-10.97c-5.48-4.24-13.13-8.49-19.2-11.59c3.91-0.96,9.84-3.75,8.21-11.87
	c-0.78-3.95-4.99-8.53-10.51-13.7c21.84,0.86,49.19,0.11,74.72-1.53h0.01C732.5,461.7,783.11,477.47,784.11,495z"/>
<path fill="#FFFFFF" stroke="#000000" stroke-miterlimit="10" d="M655.08,501.89c-0.11,2.28-3.19,3.09-8.15,3.08
	c-13.43-0.02-40.66-5.97-60.22-4.5c-0.45-5.25-8.24-9.66-16.07-12.75c1.31-0.59,2.2-1.3,2.54-2.2c16.73-4.41,52.44-4.06,52.44-4.06
	s1.38-0.05,3.19-0.49c6.07,3.1,13.72,7.35,19.2,11.59C652.27,495.86,655.22,499.15,655.08,501.89z"/>
<path fill="#FFFFFF" stroke="#000000" stroke-miterlimit="10" d="M804.07,545.61c-1.26,6.29-44.87,6.91-87.12,5.34h-0.02
	c-22.85-0.85-45.3-2.34-60.44-3.92c-2.52-3.95-5.17-7.62-7.5-10.67c8.6,1.17,17.47-3,17.02-9.28c-0.33-4.65-12.07-15.83-19.08-22.11
	c4.96,0.01,8.04-0.8,8.15-3.08c0.14-2.74-2.81-6.03-7.07-9.33c21.83,3.75,54.56,8.83,82.45,10.97h0.01
	C760.65,517.07,805.49,538.5,804.07,545.61z"/>
<path fill="#FFFFFF" stroke="#000000" stroke-miterlimit="10" d="M666.03,575.31c-1.64,5.89-8.86,4.91-18.42,1.57
	c-12.04-4.21-27.77-12.15-40.67-14.81c-2.27-5.55-12.56-11.14-19.96-14.56c4.48-1.11,7.27-2.85,7.27-5.7
	c0-8.63-13.3-17.02-20.57-20.97c10.15-0.89,17.61-1.87,17.03-5.64c-0.63-4.08-5.36-7.41-10.39-9.84c4.11-1.08,6.59-2.58,6.39-4.89
	c19.56-1.47,46.79,4.48,60.22,4.5c7.01,6.28,18.75,17.46,19.08,22.11c0.45,6.28-8.42,10.45-17.02,9.28
	c2.33,3.05,4.98,6.72,7.5,10.67C662.68,556.67,668.09,567.88,666.03,575.31z"/>
<path fill="#FFFFFF" stroke="#000000" stroke-miterlimit="10" d="M804.11,596.23c-1.44,9.96-27.36,15.84-60.76,15.77h-0.01
	c-25.83-0.05-56.15-3.66-83.08-11.69c-2.29-7.53-8.14-16.89-12.65-23.43c9.56,3.34,16.78,4.32,18.42-1.57
	c2.06-7.43-3.35-18.64-9.54-28.28c15.14,1.58,37.59,3.07,60.44,3.92h0.02C749.39,561.45,806.17,581.94,804.11,596.23z"/>
<path fill="#FFFFFF" stroke="#000000" stroke-miterlimit="10" d="M794.81,662.53c-3.74,11.51-29.66,16.1-60.72,16.24
	c-31.32,0.15-67.88-4.21-92.22-10.53c0.59-5.45-2.92-13.45-6-19.26c6.64,2.56,11.71,3.99,13.51,3.09
	c4.69-2.35,0.88-16.04-1.79-23.91c7.72,2.57,13.09,3.96,13.67,2.52c1.25-3.12-4.46-15.03-8.94-23.26c5.42,1.89,8.94,2,8.94-1.45
	c0-1.69-0.36-3.61-1-5.66c26.93,8.03,57.25,11.64,83.08,11.69h0.01C764.97,622.8,800.85,643.91,794.81,662.53z"/>
<path fill="#FFFFFF" stroke="#000000" stroke-miterlimit="10" d="M768.43,706.37c-0.95,6.38-35.1,13.28-85.21,4.73
	c14.07,9.11,25.56,20.34,16.06,29.13c-9.46,8.76-39.61,4.63-73.29-5.66h-0.01c-31.9-9.75-66.97-25.02-90.62-40.1
	c6.37,1.04,11.45,0.98,10.89-2c-0.02-0.11-0.05-0.22-0.08-0.33c-0.03-0.11-0.06-0.21-0.11-0.32c-0.03-0.11-0.08-0.22-0.13-0.33
	c-0.01-0.01-0.01-0.02-0.02-0.03c-0.05-0.1-0.1-0.21-0.16-0.31c-0.06-0.11-0.13-0.23-0.2-0.34s-0.14-0.23-0.23-0.34
	c-0.08-0.11-0.16-0.23-0.26-0.34c-0.36-0.46-0.79-0.93-1.28-1.39c-0.22-0.21-0.45-0.42-0.69-0.62c-0.98-0.85-2.14-1.7-3.42-2.53
	c-0.18-0.12-0.36-0.24-0.54-0.35c-0.36-0.23-0.73-0.46-1.11-0.69c-0.19-0.11-0.38-0.23-0.58-0.34c-0.32-0.19-0.65-0.38-0.98-0.57
	c-0.26-0.15-0.53-0.3-0.8-0.45c-0.41-0.23-0.83-0.46-1.25-0.69c-0.35-0.18-0.69-0.36-1.04-0.54c-0.27-0.14-0.54-0.28-0.81-0.41
	c-0.21-0.11-0.42-0.22-0.63-0.32c-0.21-0.11-0.42-0.21-0.63-0.31c-0.43-0.22-0.85-0.42-1.27-0.62c-0.3-0.15-0.59-0.28-0.88-0.42
	c-0.33-0.15-0.67-0.31-1-0.46c-0.08-0.04-0.15-0.07-0.23-0.11c-0.33-0.15-0.67-0.3-1-0.45c-0.67-0.31-1.33-0.6-1.97-0.88
	c-0.53-0.23-1.05-0.45-1.55-0.66c-0.41-0.18-0.81-0.35-1.19-0.51c-0.31-0.12-0.61-0.25-0.91-0.37c-1.19-0.49-2.25-0.91-3.1-1.25
	c-0.18-0.06-0.35-0.13-0.51-0.19c-0.17-0.07-0.34-0.14-0.49-0.2c-0.16-0.06-0.3-0.11-0.43-0.16c25.62,8.71,55.43,14.02,60.85,14.02
	c3.12,0,0.96-3.52-2.68-7.67c19.5,2.4,44.21,6.9,48.57,4.82c3.96-1.89-2.67-11.5-7.59-17.77c8.66,4.28,16.24,7.38,21.38,5.89
	c2.94-0.85,4.28-2.95,4.57-5.69c24.34,6.32,60.9,10.68,92.22,10.53C749.96,688.08,769.27,700.67,768.43,706.37z"/>
<path fill="#FFFFFF" stroke="#000000" stroke-miterlimit="10" d="M637.3,751.75c-5.49,6.3-28.74,2.84-48.9-2.65l2.31-0.08
	c0,0-37.33-4.75-78.68-43.25c37.28,4.37,1.24-16.67,0.49-17.1c0.49,0.15,13.15,4.23,22.83,5.8c0,0,0,0,0.01,0
	c23.65,15.08,58.72,30.35,90.62,40.1h0.01C635.48,740.89,641.32,747.14,637.3,751.75z"/>
<path fill="#FFFFFF" stroke="#000000" stroke-miterlimit="10" d="M661.26,605.97c0,3.45-3.52,3.34-8.94,1.45
	c-11.89-4.15-32.95-16.89-46.16-19.59c3.08-7.25-4.97-15.88-11.17-21.16c7.73,0.79,12.46,0.53,12.41-2.52
	c-0.01-0.69-0.17-1.38-0.46-2.08c12.9,2.66,28.63,10.6,40.67,14.81c4.51,6.54,10.36,15.9,12.65,23.43
	C660.9,602.36,661.26,604.28,661.26,605.97z"/>
<path fill="#FFFFFF" stroke="#000000" stroke-miterlimit="10" d="M661.26,630.68c-0.58,1.44-5.95,0.05-13.67-2.52
	c-12.57-4.2-31.39-11.54-45.89-14.88c0.41-6.3-5.31-15.12-9.8-21.01c7.19-0.02,12.33-0.99,13.76-3.45c0.19-0.33,0.35-0.66,0.49-0.99
	h0.01c13.21,2.7,34.27,15.44,46.16,19.59C656.8,615.65,662.51,627.56,661.26,630.68z"/>
<path fill="#FFFFFF" stroke="#000000" stroke-miterlimit="10" d="M649.38,652.07c-1.8,0.9-6.87-0.53-13.51-3.09
	c-14.34-5.53-36.01-16.31-48-20.19c0.28-2.57-1.06-6.31-2.78-9.86c7.53,0.86,12.96,0.69,14.7-1.08c1.22-1.25,1.81-2.81,1.91-4.57
	c14.5,3.34,33.32,10.68,45.89,14.88C650.26,636.03,654.07,649.72,649.38,652.07z"/>
<path fill="#FFFFFF" stroke="#000000" stroke-miterlimit="10" d="M641.87,668.24c-0.29,2.74-1.63,4.84-4.57,5.69
	c-5.14,1.49-12.72-1.61-21.38-5.89c-10.72-5.29-23.1-12.39-34.56-14.84c0.73-6.43-4.98-14.9-9.82-20.78
	c8.19,0.25,13.83-0.14,15.11-1.16c0.73-0.58,1.11-1.43,1.22-2.47c11.99,3.88,33.66,14.66,48,20.19
	C638.95,654.79,642.46,662.79,641.87,668.24z"/>
<path fill="#FFFFFF" stroke="#000000" stroke-miterlimit="10" d="M577.62,688.66c-5.42,0-35.23-5.31-60.85-14.02
	c-0.08-0.03-0.15-0.05-0.22-0.08c-0.06-0.03-0.13-0.05-0.19-0.07c-0.07-0.02-0.12-0.04-0.17-0.06c-0.22-0.08-0.33-0.12-0.33-0.12
	c-9.98-3.44-19.27-7.41-26.16-11.78c-24.72-15.69-35.65-31.27-35.65-31.27s6.08-2.07,14.9-6.38c19.93,12.35,74.05,31.97,98.56,34.49
	c0.56,3.51,0.37,7.83-2.33,11.76v0.01c2.86,2.65,6.8,6.46,9.76,9.85C578.58,685.14,580.74,688.66,577.62,688.66z"/>
<path fill="#FFFFFF" stroke="#000000" stroke-miterlimit="10" d="M623.51,685.81c-4.36,2.08-29.07-2.42-48.57-4.82
	c-2.96-3.39-6.9-7.2-9.76-9.85v-0.01c2.7-3.93,2.89-8.25,2.33-11.76c5.83,0.61,9.99,0.25,11.61-1.41c1.34-1.37,2.03-2.98,2.24-4.76
	c11.46,2.45,23.84,9.55,34.56,14.84C620.84,674.31,627.47,683.92,623.51,685.81z"/>
<path fill="#FFFFFF" stroke="#000000" stroke-miterlimit="10" d="M331.68,311.79c-0.07,12.34,1.98,21.94,5.1,29.45
	c-3.68,2.99-8.87,8.34-14.29,14.5c-3.6-13.13-4.82-28.93-2.69-50.13c5.22-52.03,37.3-59.16,37.3-59.16S331.91,267.59,331.68,311.79z
	"/>
<path fill="#FFFFFF" stroke="#000000" stroke-miterlimit="10" d="M272.47,585.83c-1.56,4.92-9.23,12.9-13.12,13.73
	c-3.78,0.8-6.77,1.74-8.6,2.1c0.05-1.29-0.28-2.41-1.05-3.06c-0.16-0.13-0.33-0.23-0.51-0.3c3-3.99,12.73-16.13,20.47-16.33
	c0.94-0.02,1.65,0.13,2.14,0.42C272.86,583.01,272.98,584.26,272.47,585.83z"/>
<path fill="#FFFFFF" stroke="#000000" stroke-miterlimit="10" d="M443.05,553.34L443.05,553.34c-11.81,10.23-28,15.76-43.23,18.71
	c7.25-10.72,9.69-24.31,8.13-30.71c-1.08-4.46-3.56-3.5-6.95-0.11c-2.19-5.8,3.71-12.01,7.4-12.01c-5.96-3.57-3.3-12.36,1.69-14.02
	c-8.55-2.14-9.74-9.74,1.9-13.31c-14.25-3.09-9.5-15.44-5.46-20.91c-16.87-1.42-8.56-11.4-4.99-17.58
	c-16.16,0.47-8.08-13.31-8.08-13.31s-22.58-18.3-43.25-45.62c-3.84-5.07-7.47-9.87-10.82-14.66c3.07-12.76,4.21-26.75,4.18-36.86
	c6.55,8.39,14.25,12.41,18.73,14.82c0.97,0.53,1.79,0.98,2.41,1.38c6.41,4.13,67.72,74.05,79.6,118.28
	C452.08,516.36,447.3,540.26,443.05,553.34z"/>
<path fill="#FFFFFF" stroke="#000000" stroke-miterlimit="10" d="M479,122.17c-10.1,31.35-16.82,52.53-19.04,69.98
	c-19.64,24.94-40.45,61.52-47.55,74.35c-0.01,0.01-0.01,0.01-0.01,0.01s4.58-29.93-12.17-29.57c-10.01,0.22-20.64,12.38-27.59,22.14
	c0.82-2.97,1.7-5.96,2.64-8.95C395.6,185.61,449.06,127.16,479,122.17z"/>
<path fill="#FFFFFF" stroke="#000000" stroke-miterlimit="10" d="M441.22,369.15c13.77,34.55,8.97,56.81,7.33,62.43v0.01
	c-0.49,0.24-0.98,0.53-1.48,0.88c-1.64,1.13-3.28,2.82-4.56,5.31c-0.93-6.32,0.12-11.64-1.29-18.7
	c-1.78-8.91-54.89-47.41-44.55-109.43c3.48-20.9,13.19-35.08,24.54-44.69c8.07-6.83,16.95-11.36,25.02-14.36h0.01
	c14.29-5.31,25.99-5.82,25.99-5.82s-22.52,6.7-40.52,23.05c-10.47,9.5-19.4,22.25-21.5,38.85c-4.64,36.77,18.84,55.08,27.72,60.6
	v0.01C439.95,368.55,441.22,369.15,441.22,369.15z"/>
<path fill="#FFFFFF" stroke="#000000" stroke-miterlimit="10" d="M469.02,500.47c0,0,10.34,6.29,8.32,12.71
	c-2.02,6.41-10.81,7.13-10.81,7.13l5.7,7.72c0,0-4.99,5.82-15.36,5.57c-3.43-1.98-0.01-8.42,2.7-13.3c1.54-2.78,2.86-5.05,2.56-5.7
	c-0.37-0.8-1.53-2.17-2.19-4.13c-0.49-1.43-0.71-3.17-0.17-5.23v-0.01c0.37-1.43,1.1-3.02,2.36-4.76c-2.46-4.4-3.75-10.6-4.53-15.27
	c-0.01-0.07-0.02-0.13-0.03-0.19c-0.2-1.17-0.36-2.25-0.5-3.16c-0.05-0.31-0.1-0.6-0.14-0.87c-6.39-5.82-2.88-15.53-2.88-15.53
	s-7.48-13.58-10.33-22.45c-0.59-1.84-0.97-3.57-1.21-5.22c1.28-2.49,2.92-4.18,4.56-5.31c0.5-0.35,0.99-0.64,1.48-0.88
	c-0.27,0.92-0.45,1.39-0.45,1.39s15.22,1.43,14.03,4.04c-1.19,2.61-6.18,9.51-6.18,9.51s16.64-0.72,16.28,5.34
	s-12.83,13.55-12.83,13.55s17.11-4.28,17.94,4.89s-10.81,12.57-10.81,12.57s16.04-1.07,15.56,7.72
	C481.62,499.39,469.02,500.47,469.02,500.47z"/>
<path fill="#FFFFFF" stroke="#000000" stroke-miterlimit="10" d="M459.57,520.3c-2.71,4.88-6.13,11.32-2.7,13.3
	c-0.88,2.59-1.97,5.02-3.29,7.26c-2.83,4.79-6.41,8.92-10.53,12.48c4.25-13.08,9.03-36.98,1.26-65.91
	c-11.88-44.23-73.19-114.15-79.6-118.28c-0.62-0.4-1.44-0.85-2.41-1.38c-1.32-18.51-2.49-62.31,10.33-108.68c0,0,0-0.01,0.01-0.01
	c6.95-9.76,17.58-21.92,27.59-22.14c16.75-0.36,12.17,29.57,12.17,29.57s0,0,0.01-0.01c0.25-0.08,4.11-1.46,8.8-1.54
	c-11.35,9.61-21.06,23.79-24.54,44.69c-10.34,62.02,42.77,100.52,44.55,109.43c1.41,7.06,0.36,12.38,1.29,18.7
	c0.24,1.65,0.62,3.38,1.21,5.22c2.85,8.87,10.33,22.45,10.33,22.45s-3.51,9.71,2.88,15.53c0.04,0.27,0.09,0.56,0.14,0.87
	c0.14,0.91,0.3,1.99,0.5,3.16c0.01,0.06,0.02,0.12,0.03,0.19c0.78,4.67,2.07,10.87,4.53,15.27c-1.26,1.74-1.99,3.33-2.36,4.76v0.01
	c-0.54,2.06-0.32,3.8,0.17,5.23c0.66,1.96,1.82,3.33,2.19,4.13C462.43,515.25,461.11,517.52,459.57,520.3z"/>
<path fill="#FFFFFF" stroke="#000000" stroke-miterlimit="10" d="M516.59,159.24c0,0-21.75,30.11-29.25,54.08
	c-18.05,13.83-34.18,30.05-41.1,37.28h-0.01c-8.07,3-16.95,7.53-25.02,14.36c-4.69,0.08-8.55,1.46-8.8,1.54
	c7.1-12.83,27.91-49.41,47.55-74.35c4.45-5.64,8.83-10.69,12.98-14.73C499.68,151.4,516.59,159.24,516.59,159.24z"/>
<path fill="#FFFFFF" stroke="#000000" stroke-miterlimit="10" d="M439.8,343.63c-1.43,7.44-1.98,15.38-1.87,23.65
	c-8.88-5.52-32.36-23.83-27.72-60.6c2.1-16.6,11.03-29.35,21.5-38.85c3.91,2.79,6.89,8.06,7.01,17.59c8,3.99,10.6,15.19,11.42,23.06
	C446.08,318.16,442.47,329.74,439.8,343.63z"/>
<path fill="#FFFFFF" stroke="#000000" stroke-miterlimit="10" d="M532.81,190.25c-0.49,4.43-12.16,20.4-19.23,37.19
	c-17.45,19.4-25.31,32.55-25.31,32.55c-4.79,4.42-24.14,15.12-38.13,48.49c-0.82-7.87-3.42-19.07-11.42-23.06
	c-0.12-9.53-3.1-14.8-7.01-17.59c18-16.35,40.52-23.05,40.52-23.05s-11.7,0.51-25.99,5.82c6.92-7.23,23.05-23.45,41.1-37.28
	C502.61,201.62,519.24,191.63,532.81,190.25z"/>
<path fill="#FFFFFF" stroke="#000000" stroke-miterlimit="10" d="M752.98,873.54c9.98,7.12,23.29,9.03,23.29,9.03
	s-36.11,0.48-67.38-2.16c12.5-9.18,35.41-26.49,40.53-33.49c-6.42-8.32,9.98-16.87,18.53-20.2c-4.59-4.92-2.28-15.04-0.4-20.84
	c43.44,18.8,97.81,57.02,130.02,58.15C893.66,865.46,824.27,886.37,752.98,873.54z"/>
<path fill="#FFFFFF" stroke="#000000" stroke-miterlimit="10" d="M749.42,846.92c-5.12,7-28.03,24.31-40.53,33.49
	c-12.67-1.06-24.54-2.64-32.9-4.97c8.56,8.55,22.34,9.98,22.34,9.98s-32.8,2.83-57.75,3.83c13.47-11.33,53.95-24.98,53.95-24.98
	s-15.92-2.14-17.35-3.8c-1.42-1.67,30.18-13.79,30.18-13.79l-3.56-8.31l19.96-22.1l-9.98-2.18l12.59-5.43l-17.82-2.37l6.55-4.28
	l-6.46-5.75c9.33-1.11,18.5-1.3,27.23-0.19c9.38,1.2,20.14,4.82,31.68,9.81c-1.88,5.8-4.19,15.92,0.4,20.84
	C759.4,830.05,743,838.6,749.42,846.92z"/>
<path fill="#FFFFFF" stroke="#000000" stroke-miterlimit="10" d="M690.67,830.76l-25.13,20.44h9.5c0,0-17.75,30.9-60.98,37.78h-0.01
	c-16.08-1.64-41.66-1.75-61.62-13.54l-12.91,0.77c2.36-15.15,7.14-46.17,8.99-60.42c0.08-0.58,0.12-1.17,0.14-1.75
	c3.83,0.98,8.18,2.14,12.63,3.43c8.06,13.03,19.21,21.25,46.12,11.39c18.65-6.83,51.04-22.35,83.95-29.63h0.01l5.54,5.87l-3.8,4.28
	l5.71,4.71l-13.79,16.67H690.67z"/>
<path fill="#FFFFFF" stroke="#000000" stroke-miterlimit="10" d="M439.82,906.08c-0.41,0.03-0.82,0.06-1.23,0.08
	c-7.09,0.46-13.05,0.27-13.05,0.27s-15.86,1.86-14.44-1.71c0.35-1.03,1.96-9.82,11.95-15.77c2.06-1.23,4.46-2.33,7.29-3.22
	c0.02-0.01,0.04-0.01,0.06-0.01C433.49,885.64,440.75,893.08,439.82,906.08z"/>
<path fill="#FFFFFF" stroke="#000000" stroke-miterlimit="10" d="M430.34,885.73c-2.83,0.89-5.23,1.99-7.29,3.22
	c-9.99,5.95-11.6,14.74-11.95,15.77c-8.2,1.43-10.87-3.2-10.87-3.2s0.82-7.09,6.37-13.2c2.35-2.59,5.55-5,9.9-6.63
	c1.14-0.42,2.35-0.79,3.66-1.1c0.12,0.13,0.23,0.27,0.32,0.41c0.08,0.02,0.17,0.03,0.27,0.06c2.12,0.39,7.41,1.4,9,4.82
	C429.92,885.79,430.12,885.73,430.34,885.73z"/>
<path fill="#FFFFFF" stroke="#000000" stroke-miterlimit="10" d="M398.65,889.06c3.22-0.29,5.97-0.56,7.95-0.74
	c-5.55,6.11-6.37,13.2-6.37,13.2s-13.19,1.6-8.73-3.21C393.8,895.82,396.29,892.34,398.65,889.06z"/>
<path fill="#FFFFFF" stroke="#000000" stroke-miterlimit="10" d="M548.65,814.04c-0.02,0.58-0.06,1.17-0.14,1.75
	c-1.85,14.25-6.63,45.27-8.99,60.42l-8.83,0.53c0,0-2.85,3.21-2.85,4.1c0,0.89,4.27,9.8-7.13,13.73
	c-11.41,3.92-27.09,0.17-33.87,1.24c-6.77,1.07-26.91,7.13-37.42,9.09c-3.09,0.57-6.43,0.94-9.6,1.18c0.93-13-6.33-20.44-9.42-20.36
	l0.02-0.02c-0.03,0.01-0.05,0.02-0.08,0.03c-0.22,0-0.42,0.06-0.59,0.15c-1.59-3.42-6.88-4.43-9-4.82c-0.1-0.03-0.19-0.04-0.27-0.06
	c-0.09-0.14-0.2-0.28-0.32-0.41c-1.07-1.14-3.3-1.83-4.95-2.2c2.11-0.24,4.28-0.43,6.34-0.64c0.6-0.05,1.19-0.11,1.76-0.18
	c1.6-0.18,3.08-0.38,4.32-0.64c0.25-0.05,0.49-0.11,0.72-0.16c0.26-0.06,0.51-0.13,0.75-0.2c5.88-1.79,24.95-7.31,32.97-6.78
	c0,0-3.56-5.88-17.28-16.57c-10.18-7.92-29.87-20.61-43.21-40.2c-4.67-6.84-8.56-14.52-11-23.13
	c-9.42-33.27,17.14-41.82,27.12-41.82c9.98,0,32.43,6.77,46.15,9.27c13.73,2.49,39.39,4.63,49.73,11.58
	C523.6,775.66,549.38,795.31,548.65,814.04z"/>
<path fill="#FFFFFF" stroke="#000000" stroke-miterlimit="10" d="M723.76,816.27l-19.96,22.1l3.56,8.31c0,0-31.6,12.12-30.18,13.79
	c1.43,1.66,17.35,3.8,17.35,3.8s-40.48,13.65-53.95,24.98c-10.49,0.43-19.59,0.53-24.29-0.03c-0.72-0.09-1.46-0.17-2.23-0.24
	c43.23-6.88,60.98-37.78,60.98-37.78h-9.5l25.13-20.44h-5.65l13.79-16.67l-5.71-4.71l3.8-4.28l-5.54-5.87
	c5.77-1.28,11.54-2.3,17.27-2.97h0.01l6.46,5.75l-6.55,4.28l17.82,2.37l-12.59,5.43L723.76,816.27z"/>
<path fill="#FFFFFF" stroke="#000000" stroke-miterlimit="10" d="M561.28,817.47c-4.45-1.29-8.8-2.45-12.63-3.43
	c0.73-18.73-25.05-38.38-35.07-45.12c-10.34-6.95-36-9.09-49.73-11.58c-13.72-2.5-36.17-9.27-46.15-9.27
	c-9.98,0-36.54,8.55-27.12,41.82c2.44,8.61,6.33,16.29,11,23.13c-17.62,0.82-26.3-10.42-26.3-10.42s1.07,8.2,1.07,9.27
	s-10.34-2.14-14.79-8.55c-6.71,0.35-16.38-4.9-22.17-8.5c3.4-5.55,9.24-8.22,12.01-7.3c-7.49-7.61-7.84-26.97-7.84-26.97l5.7,9.98
	L348.19,745c0,0,8.2,4.14,10.34,13.76c2.14-8.19-6.42-27.8-6.42-27.8h19.52c0,0-14.32-13.91-22.01-19.67
	c10.69,4.58,28.16,1.85,28.16,1.85s-1.64-0.59-4.63-2.25c3.24-1.32,6.49-4.36,7.95-8.47c2.01-5.64,0.5-9.77-0.8-11.96
	c2.75-0.89,4.24-2.32,4.81-3.87c7.76,0.91,12.87-7.05,12.44-12.49c22.46,20.44,42.82,42.12,50.32,46.41
	c13.31,7.6,26.14,16.15,73.67,22.33c7.51,4.42,14.43,6.78,20.4,7.94l9.54,12.5h-10.93c0,0,13.3,13.3,16.16,17.58
	c2.78,4.17-3.48,0.21-3.8,0.01c0.26,0.68,9.48,23.93,8.07,36.11C561.08,817.15,561.18,817.31,561.28,817.47z"/>
<path fill="#FFFFFF" stroke="#000000" stroke-miterlimit="10" d="M341.94,339.05c-0.6,2.52-1.32,5.44-2.13,8.34
	c-1.58,5.65-3.47,11.23-5.34,13.77c-1.65,2.24-4.22,5.52-6.81,8.77c-4.32,5.41-8.69,10.74-8.9,11l8.21-4.61
	c-0.35,0.56-11.68,18.4-18.34,21.55c8.25-0.65,10.77-2.76,11.16-3.14c-0.76,1.07-10.13,14-14.3,17.58
	c6.88,0.53,2.96,10.87,2.96,10.87s0.09,23.88-14.75,32.02c-1.68-0.19-3.25-0.47-4.68-0.83c-12.65-3.21-25.66-9.09-26.19-16.58
	c-0.54-7.48,6.59-18.89,6.59-18.89s4.63-4,10.52-9.84c6.73-6.67,15.1-15.76,20.13-24.08c1.11-1.84,2.49-3.9,4.06-6.14
	c0,0,0-0.01,0.01-0.02c4.94-7.04,11.81-15.65,18.35-23.08c5.42-6.16,10.61-11.51,14.29-14.5c2.49-2.04,4.3-2.99,5-2.36
	C341.83,338.93,341.88,338.98,341.94,339.05z"/>
<path fill="#FFFFFF" stroke="#000000" stroke-miterlimit="10" d="M304.14,378.82c-0.01,0.01-0.01,0.02-0.01,0.02
	c-1.57,2.24-2.95,4.3-4.06,6.14c-5.03,8.32-13.4,17.41-20.13,24.08c-4.07,1.39-11.24,4.08-20.4,8.45
	c14.78-38.78,49.44-70.25,49.44-70.25C310.11,354.46,306.76,368.91,304.14,378.82z"/>
<path fill="#FFFFFF" stroke="#000000" stroke-miterlimit="10" d="M341.78,447.95c-3.34,1.26-6.97,2.4-10.73,3.39
	c-12.79,3.39-27.15,5.08-37.35,3.86c14.84-8.14,14.75-32.02,14.75-32.02s3.92-10.34-2.96-10.87c4.17-3.58,13.54-16.51,14.3-17.58
	c-0.39,0.38-2.91,2.49-11.16,3.14c6.66-3.15,17.99-20.99,18.34-21.55l-8.21,4.61c0.21-0.26,4.58-5.59,8.9-11
	c2.59-3.25,5.16-6.53,6.81-8.77c1.87-2.54,3.76-8.12,5.34-13.77c0.81-2.9,1.53-5.82,2.13-8.34c0.96,1.31,1.6,6.59,1.63,13.9
	c0.03,10.11-1.11,24.1-4.18,36.86c-2.09,8.68-5.08,16.8-9.2,22.74c-1.07,9.74-3.56,14.91-3.56,14.91s8.91-2.5,11.05-1.43
	c-3.57,5.53-14.8,14.79-14.8,14.79S336.25,441.18,341.78,447.95z"/>
<path fill="#FFFFFF" stroke="#000000" stroke-miterlimit="10" d="M293.7,455.2c-0.25,0.14-0.5,0.27-0.76,0.4
	c0,0-17.58,10.78-36.15,18.93c-5.07,2.23-10.22,4.26-15.1,5.82c-1.23,0.39-2.51,0.78-3.83,1.16c-20.77,5.96-51.68,9.99-64.89,9.01
	h-0.01c-1.47-0.1-2.71-0.27-3.7-0.51c0.42-0.53,0.83-1.05,1.25-1.58c30.63-38.41,66.08-59.96,89.03-70.92
	c9.16-4.37,16.33-7.06,20.4-8.45c-5.89,5.84-10.52,9.84-10.52,9.84s-7.13,11.41-6.59,18.89c0.53,7.49,13.54,13.37,26.19,16.58
	C290.45,454.73,292.02,455.01,293.7,455.2z"/>
<path fill="#FFFFFF" stroke="#000000" stroke-miterlimit="10" d="M277.26,517.99c-3.56,10.69-6.24,18.18-6.42,23.35
	c-2.85-0.72-13.72,4.63-20.13,14.97c-6.42,10.33-22.82,24.95-25.13,26.02c-2.32,1.07,13.54,0.53,13.54,0.53l-14.26,12.48
	c0,0,0.54,1.24,11.77-1.07c-1.21,5.87-9.44,13.91-9.95,14.41c0.5-0.34,7.37-4.9,9.95-3.01c-0.07,0.22-0.14,0.44-0.22,0.67
	c-2.92,8.35-14.74,20.17-21.17,26.24c-4.25,4.02-6.87,10.2-8.67,16.27c0,0,0,0,0,0.01c-1,3.35-1.75,6.66-2.38,9.57
	c-7.13-4.99-5.35-27.81-11.58-26.2c3.92-10.52,4.45-17.47,1.24-17.11c2.32-12.12,14.26-27.8,15.87-30.06
	c1.56-2.21-5.38,0.69-5.7,0.82c0.09-0.41,2.35-9.49,3.91-12.29c1.61-2.85,3.39-9.26-0.35-13.36c11.76-3.03,24.24-19.43,16.93-21.89
	c8.73-4.79,4.63-14.29,4.63-14.29s4.46-7.84,0-12.3c-0.89-0.89-1.9-1.49-2.98-1.87c3.56-2.36,7.93-3.53,10.65-2.58
	c4.09,1.42,17.28,2.85,17.28-8.2c0-8.14-8.37-13.96-16.23-17.59c1.32-0.38,2.6-0.77,3.83-1.16c4.88-1.56,10.03-3.59,15.1-5.82
	C270.78,482.48,280.51,508.27,277.26,517.99z"/>
<path fill="#FFFFFF" stroke="#000000" stroke-miterlimit="10" d="M254.09,499.1c0,11.05-13.19,9.62-17.28,8.2
	c-2.72-0.95-7.09,0.22-10.65,2.58c-4.33-1.5-9.81,0.56-13.24,1.7c-4.27,1.42-27.26-6.06-33.86-12.66c-3.81-3.81-5.42-6.67-6.09-8.4
	c13.21,0.98,44.12-3.05,64.89-9.01C245.72,485.14,254.09,490.96,254.09,499.1z"/>
<path fill="#FFFFFF" stroke="#000000" stroke-miterlimit="10" d="M280.83,614.05c-1.19-10.22-11.65,0.95-22.14,9.27
	c-10.49,8.31-16.84,19.18-13.03,22.14c3.8,2.96,15.68-0.76,22.33-2.96C274.65,640.29,282.01,624.27,280.83,614.05z M290.41,630.56
	c-0.4-2.02-0.8-4.19-1.2-6.44v-0.01c-2.35-13.38-4.46-29.57-5.22-35.64c-0.73,0.04-1.5,0.04-2.31,0
	c-8.2,10.03-39.45,47.83-52.82,57.9v0.01c-0.25,4.06-0.35,8.15-0.44,12.01c9.54-0.38,38.38-3.44,62.39-25.9
	C290.68,631.86,290.55,631.22,290.41,630.56z"/>
<path fill="#FFFFFF" stroke="#000000" stroke-miterlimit="10" d="M308.67,580.96c-1.28-0.09-2.57-0.36-3.8-0.84
	c1.38-2.57,1.56-5.31-0.3-7.22c3.91-1.34,11.12-2.81,14.18,0.61c0.44,0.5,0.71,1,0.81,1.5C320.25,578.24,314.52,581.4,308.67,580.96
	z"/>
<path fill="#FFFFFF" stroke="#000000" stroke-miterlimit="10" d="M250.75,601.66c-0.11,3.25-2.61,7.59-6.36,8.31
	c-0.16-2.06-1.99-3.31-4.55-3.65c0,0,6.08-9.28,9.35-8.02c0.18,0.07,0.35,0.17,0.51,0.3C250.47,599.25,250.8,600.37,250.75,601.66z"
	/>
<path fill="#FFFFFF" stroke="#000000" stroke-miterlimit="10" d="M237.87,619.43c-6.38,5.24-8.3,15.97-9.01,26.94v0.01
	c-0.25,4.06-0.35,8.15-0.44,12.01c-0.23,9.67-0.45,17.86-3.24,20.39c-2.33-2.46-4.74-5.72-7.07-9.3
	c-4.51-6.9-8.73-14.95-11.54-20.62c0-0.01,0-0.01,0-0.01c1.8-6.07,4.42-12.25,8.67-16.27c6.43-6.07,18.25-17.89,21.17-26.24
	c1.22-0.16,2.39-0.17,3.43-0.02c2.56,0.34,4.39,1.59,4.55,3.65C244.57,612.2,242.8,615.39,237.87,619.43z"/>
<path fill="#FFFFFF" stroke="#000000" stroke-miterlimit="10" d="M271.24,906.41c-0.6-0.02-1.19-0.05-1.75-0.09
	c-6.85-0.42-10.8-1.95-10.8-1.95s1.04-4.29,4.86-7.81c1.29-1.2,2.9-2.3,4.9-3.12c0.21,0.39,0.4,0.79,0.58,1.2
	C270.47,897.82,271.36,901.7,271.24,906.41z"/>
<path fill="#FFFFFF" stroke="#000000" stroke-miterlimit="10" d="M371.63,730.96h-19.52c0,0,8.56,19.61,6.42,27.8
	c-2.14-9.62-10.34-13.76-10.34-13.76l1.07,25.53l-5.7-9.98c0,0,0.35,19.36,7.84,26.97c-2.77-0.92-8.61,1.75-12.01,7.3
	c-0.1,0.16-0.2,0.32-0.29,0.48c-1.25,0.89-4.99,8.55-10.87,24.41c-5.88,15.87-0.89,50.44-7.84,55.4
	c-6.95,4.97-8.91,14.47-12.3,21.28c-3.38,6.82-10.51,6.91-25.3,9.25c-4.36,0.69-8.24,0.86-11.55,0.77
	c0.12-4.71-0.77-8.59-2.21-11.77c-0.18-0.41-0.37-0.81-0.58-1.2c-1.48-2.84-3.38-5.06-5.31-6.78c-0.28-0.25-0.55-0.48-0.83-0.72
	h-0.01c-3.13-2.55-6.16-3.82-7.37-4.27c0.21-0.15,0.43-0.28,0.65-0.41c0.15-0.1,0.3-0.19,0.46-0.28c0.15-0.1,0.3-0.19,0.46-0.27
	c0.24-0.15,0.5-0.29,0.76-0.43c0.25-0.14,0.52-0.28,0.78-0.41c0.23-0.12,0.46-0.23,0.69-0.34c0.58-0.29,1.18-0.56,1.81-0.81
	c0.29-0.12,0.58-0.24,0.88-0.35c0.46-0.18,0.93-0.35,1.42-0.51c0.32-0.11,0.64-0.21,0.97-0.3c0.25-0.08,0.5-0.15,0.75-0.22
	c0.54-0.15,1.09-0.29,1.65-0.42c15.68-3.56,18.89-22.81,18.89-22.81s-9.62,13.19,0-23.17c5.35-49.54-3.21-72.18-12.29-84.65
	c-9.09-12.48-36.12-44.91-44.97-43.84c0,0-2.86,1.9-6.18,9.98c-1.43-6.66,2.1-23.77,2.1-23.77s-7.81,7.13-8.28,2.64
	c-0.35-3.25,1.55-15.37,2.63-21.82c2.33,3.58,4.74,6.84,7.07,9.3c2.79-2.53,3.01-10.72,3.24-20.39c9.54-0.38,38.38-3.44,62.39-25.9
	c-0.13-0.63-0.26-1.27-0.4-1.93c3.43,0,9.57-0.17,14.31-1.33c0.31,0.74,0.72,1.43,1.22,2.03c0.39,0.47,0.84,0.81,1.34,1.05
	c1.46,2.7,3.75,6.87,6.64,11.84c0.61,1.39,1.33,2.72,2.19,3.88c0.12,0.16,0.25,0.32,0.38,0.46c1.63,2.74,3.4,5.63,5.28,8.59
	c0.58,1.39,1.4,2.76,2.54,3.96l0.01,0.01c6.46,9.91,13.91,20.17,21.2,27.61c7.47,7.63,13.97,13.01,19.13,16.75
	c-0.1,0.88-0.05,1.72,0.18,2.5c1.12,3.75,4.71,4.44,8.32,2.98c2.99,1.66,4.63,2.25,4.63,2.25s-17.47,2.73-28.16-1.85
	c-1.84-1.38-3.31-2.29-4.1-2.43c1.18,0.98,2.57,1.78,4.1,2.43C357.31,717.05,371.63,730.96,371.63,730.96z"/>
<path fill="#FFFFFF" stroke="#000000" stroke-miterlimit="10" d="M268.45,893.44c-2,0.82-3.61,1.92-4.9,3.12
	c-3.82,3.52-4.86,7.81-4.86,7.81s-9.23,3.56-12.44-1.25c0,0,2.03-8.91,12.1-15.1c1.2-0.74,2.51-1.43,3.95-2.08h0.01
	c0.28,0.24,0.55,0.47,0.83,0.72C265.07,888.38,266.97,890.6,268.45,893.44z"/>
<path fill="#FFFFFF" stroke="#000000" stroke-miterlimit="10" d="M262.3,885.94c-1.44,0.65-2.75,1.34-3.95,2.08
	c-10.07,6.19-12.1,15.1-12.1,15.1c-5.21-0.11-5.53-3.96-5.07-6.75c1.34-0.15,2.48-1.11,2.58-1.98c0.11-1.05,2.96-6.65,9.29-11.41
	c0.5-0.38,1.02-0.75,1.57-1.1c0.1-0.08,0.2-0.15,0.3-0.21h0.01C256.14,882.12,259.17,883.39,262.3,885.94z"/>
<path fill="#FFFFFF" stroke="#000000" stroke-miterlimit="10" d="M285.1,830.94c-9.62,36.36,0,23.17,0,23.17
	s-3.21,19.25-18.89,22.81c-0.56,0.13-1.11,0.27-1.65,0.42c-0.25,0.07-0.5,0.14-0.75,0.22c-0.33,0.09-0.65,0.19-0.97,0.3
	c-0.49,0.16-0.96,0.33-1.42,0.51c-0.3,0.11-0.59,0.23-0.88,0.35c-0.63,0.25-1.23,0.52-1.81,0.81c-0.23,0.11-0.46,0.22-0.69,0.34
	c-0.26,0.13-0.53,0.27-0.78,0.41c-0.26,0.14-0.52,0.28-0.76,0.43c-0.16,0.08-0.31,0.17-0.46,0.27c-0.16,0.09-0.31,0.18-0.46,0.28
	c-0.22,0.13-0.44,0.26-0.65,0.41h-0.01c-0.35-0.12-0.54-0.18-0.54-0.18l0.24,0.39c-0.55,0.35-1.07,0.72-1.57,1.1l-2.7-1.96
	c0,0-0.31-0.29-0.74-0.73c-1.07-1.1-2.9-3.16-2.65-4.18v-0.01c-1.94-1.37-2.71-5.42-3.01-8.13c0.15-0.05,0.31-0.1,0.46-0.14
	c8.49-2.37,11.46-20.43,13.84-41.34c2.38-20.91-5.7-71.36-5.7-71.36s-12.36-23.69-14.68-28.45c-2.31-4.75-4.81,6.18-6.71,3.33
	c-1.9-2.85-3.32-27.56-3.32-27.56c8.85-1.07,35.88,31.36,44.97,43.84C281.89,758.76,290.45,781.4,285.1,830.94z"/>
<path fill="#FFFFFF" stroke="#000000" stroke-miterlimit="10" d="M246.96,876.1v0.01c-7.32-0.17-12.12,8.36-12.12,8.36
	s-0.31,0.35-2.52,0.41c-1.43,0.04-3.67-0.04-7.14-0.41c2.05-7,10.42-14,18.77-16.5C244.25,870.68,245.02,874.73,246.96,876.1z"/>
<path fill="#FFFFFF" stroke="#000000" stroke-miterlimit="10" d="M249.61,880.29c-1.59,1.25-4.64,3.76-7.27,6.38
	c-5.6,0.75-8.18,4.85-9.99,2.55c-0.85-1.09-0.59-2.77-0.03-4.34c2.21-0.06,2.52-0.41,2.52-0.41s4.8-8.53,12.12-8.36
	C246.71,877.13,248.54,879.19,249.61,880.29z"/>
<path fill="#FFFFFF" stroke="#000000" stroke-miterlimit="10" d="M253.05,882.98c-6.33,4.76-9.18,10.36-9.29,11.41
	c-0.1,0.87-1.24,1.83-2.58,1.98c-1.15,0.13-2.45-0.34-3.4-1.98c-0.92-1.59,1.54-4.73,4.56-7.72c2.63-2.62,5.68-5.13,7.27-6.38
	c0.43,0.44,0.74,0.73,0.74,0.73L253.05,882.98z"/>
<path fill="#FFFFFF" stroke="#000000" stroke-miterlimit="10" d="M462.07,869.79c-8.02-0.53-27.09,4.99-32.97,6.78
	c-0.24,0.07-0.49,0.14-0.75,0.2c-0.23,0.05-0.47,0.11-0.72,0.16c-1.24,0.26-2.72,0.46-4.32,0.64c-0.58,0.06-1.16,0.12-1.76,0.18
	c-2.06,0.21-4.23,0.4-6.34,0.64h-0.01c-0.51,0.06-1.02,0.13-1.52,0.19c-2,0.27-3.88,0.59-5.44,1.04c-0.39,0.11-0.76,0.23-1.11,0.36
	c-0.17,0.06-0.34,0.13-0.5,0.2c-0.16,0.07-0.31,0.14-0.46,0.21c-0.01,0-0.01,0-0.01,0c-0.15,0.07-0.29,0.15-0.43,0.23
	c-0.25,0.13-0.47,0.28-0.67,0.44c-0.14,0.1-0.26,0.21-0.37,0.32c-1.73,1.72-3.83,4.61-6.04,7.68c-5.9,0.53-13.42,1.16-20.87,1.65
	c4.12-9.31-4.09-14.18-6.83-15.59c-0.11-0.06-0.21-0.11-0.3-0.16c-0.01-0.14-0.02-0.27-0.04-0.4c-0.61-4.32-7.41-3.89-10.18-4.11
	c0.62-2.02-1.61-3.59-3.22-4.43c5.97-0.44,43.91-5.23,43.91-8.35c0-3.2-6.06-6.59-14.08-14.43c-8.02-7.84-29.58-33.33-29.94-34.22
	c-0.35-0.89-16.75-14.61-18-13.72c0.09-0.16,0.19-0.32,0.29-0.48c5.79,3.6,15.46,8.85,22.17,8.5c4.45,6.41,14.79,9.62,14.79,8.55
	s-1.07-9.27-1.07-9.27s8.68,11.24,26.3,10.42c13.34,19.59,33.03,32.28,43.21,40.2C458.51,863.91,462.07,869.79,462.07,869.79z"/>
<path fill="#FFFFFF" stroke="#000000" stroke-miterlimit="10" d="M377.78,890.71c-15.04,0.98-29.78,1.38-30.3-0.79
	c1.51-4.46,10.94-9.68,18.18-13.12c1.85-0.88,3.56-1.64,4.95-2.24c0.02,0.13,0.03,0.26,0.04,0.4c0.09,0.05,0.19,0.1,0.3,0.16
	C373.69,876.53,381.9,881.4,377.78,890.71z"/>
<path fill="#FFFFFF" stroke="#000000" stroke-miterlimit="10" d="M420.16,880.59c-1.31,0.31-2.52,0.68-3.66,1.1
	c-4.35,1.63-7.55,4.04-9.9,6.63c-1.98,0.18-4.73,0.45-7.95,0.74c2.21-3.07,4.31-5.96,6.04-7.68c0.11-0.11,0.23-0.22,0.37-0.32
	c0.2-0.16,0.42-0.31,0.67-0.44c0.14-0.08,0.28-0.16,0.43-0.23c0,0,0,0,0.01,0c0.15-0.07,0.3-0.14,0.46-0.21
	c0.16-0.07,0.33-0.14,0.5-0.2c0.35-0.13,0.72-0.25,1.11-0.36c1.56-0.45,3.44-0.77,5.44-1.04c0.5-0.06,1.01-0.13,1.52-0.19h0.01
	C416.86,878.76,419.09,879.45,420.16,880.59z"/>
<path fill="#FFFFFF" stroke="#000000" stroke-miterlimit="10" d="M316.95,629.02c-0.01,0-0.01,0-0.01,0
	c-1.54,1.65-3.78,3.04-5.93,3.54c-1.34,0.31-2.65,0.28-3.73-0.25c-1-1.84-1.6-3-1.75-3.29c-0.26,0.07-0.53,0.14-0.81,0.21
	c-0.66-1.5-0.97-3.21-1.08-4.9c-0.16-2.3,0.05-4.53,0.26-6.03c3.27,1.06,7.32,0.83,9.53-1.04c1.91,1.72,4.25,4.17,5.3,6.58
	C319.4,625.39,318.53,627.34,316.95,629.02z"/>
<path fill="#FFFFFF" stroke="#000000" stroke-miterlimit="10" d="M303.64,624.33c-5.4,1.19-11.67,0.3-14.43-0.21v-0.01
	c-2.35-13.38-4.46-29.57-5.22-35.64c3.12-0.13,5.43-0.84,5.75-1.33c0.12-0.18,0.22-0.57,0.28-1.12c1.51,0.83,3.11,1.12,4.69,1
	c-0.82,2.42-2.55,8.71-0.15,13.13c0.83,1.53,2.44,2.77,4.32,3.57c-0.73,2.27-1.79,7.09,0.48,11.28c0.83,1.52,2.54,2.65,4.54,3.3
	C303.69,619.8,303.48,622.03,303.64,624.33z"/>
<path fill="#FFFFFF" stroke="#000000" stroke-miterlimit="10" d="M281.68,588.47c-8.2,10.03-39.45,47.83-52.82,57.9
	c0.71-10.97,2.63-21.7,9.01-26.94c4.93-4.04,6.7-7.23,6.52-9.46c3.75-0.72,6.25-5.06,6.36-8.31c1.83-0.36,4.82-1.3,8.6-2.1
	c3.89-0.83,11.56-8.81,13.12-13.73C275.44,587.6,278.76,588.31,281.68,588.47z"/>
<path fill="none" stroke="#000000" stroke-miterlimit="10" d="M267.99,642.5c-6.65,2.2-18.53,5.92-22.33,2.96
	c-3.81-2.96,2.54-13.83,13.03-22.14c10.49-8.32,20.95-19.49,22.14-9.27C282.01,624.27,274.65,640.29,267.99,642.5z"/>
<path fill="none" stroke="#000000" stroke-miterlimit="10" d="M253.97,634.37c0,0,14.52-17.63,20.44-14.94
	c5.92,2.69-5.94,18.99-10.22,20.11S245.89,646.37,253.97,634.37z"/>
<path fill="#FFFFFF" stroke="#000000" stroke-miterlimit="10" d="M304.87,580.12c-0.98,1.83-2.58,3.56-4.49,4.85
	c-1.71,1.14-3.67,1.92-5.67,2.05c-1.58,0.12-3.18-0.17-4.69-1c0.31-2.57-0.3-8.46-4.89-10.24c2.87-1.84,13.38-8,19.04-3.25
	c0.14,0.12,0.28,0.24,0.4,0.37C306.43,574.81,306.25,577.55,304.87,580.12z"/>
<path fill="#FFFFFF" stroke="#000000" stroke-miterlimit="10" d="M290.02,586.02c-0.06,0.55-0.16,0.94-0.28,1.12
	c-0.32,0.49-2.63,1.2-5.75,1.33c-0.2-1.57-0.31-2.46-0.31-2.46s-0.72,0.89-2,2.46c-2.92-0.16-6.24-0.87-9.21-2.64
	c0.51-1.57,0.39-2.82-0.67-3.44c1.62-2.26,6.85-8.18,12.32-6.92c0.36,0.08,0.69,0.19,1.01,0.31
	C289.72,577.56,290.33,583.45,290.02,586.02z"/>
<path fill="#FFFFFF" stroke="#000000" stroke-miterlimit="10" d="M399.82,572.05c-23.18,4.5-44.14,3.03-44.14,3.03
	s-1.18-0.21-3.19-0.49c3.21-0.95,7.02-2.18,10.96-3.63c8.5-3.14,17.57-7.36,22.4-12.28c5.81-5.93,11.12-13.41,15.15-17.44v-0.01
	c3.39-3.39,5.87-4.35,6.95,0.11C409.51,547.74,407.07,561.33,399.82,572.05z"/>
<path fill="#FFFFFF" stroke="#000000" stroke-miterlimit="10" d="M363.45,570.96c-3.94,1.45-7.75,2.68-10.96,3.63
	c-6.51-0.88-21.68-2.43-32.93,0.42c-0.1-0.5-0.37-1-0.81-1.5c-3.06-3.42-10.27-1.95-14.18-0.61c-0.12-0.13-0.26-0.25-0.4-0.37
	c-5.66-4.75-16.17,1.41-19.04,3.25c-0.32-0.12-0.65-0.23-1.01-0.31c-5.47-1.26-10.7,4.66-12.32,6.92c-0.49-0.29-1.2-0.44-2.14-0.42
	c-7.74,0.2-17.47,12.34-20.47,16.33c-3.27-1.26-9.35,8.02-9.35,8.02c-1.04-0.15-2.21-0.14-3.43,0.02c0.08-0.23,0.15-0.45,0.22-0.67
	c-2.58-1.89-9.45,2.67-9.95,3.01c0.51-0.5,8.74-8.54,9.95-14.41c-11.23,2.31-11.77,1.07-11.77,1.07l14.26-12.48
	c0,0-15.86,0.54-13.54-0.53c2.31-1.07,18.71-15.69,25.13-26.02c6.41-10.34,17.28-15.69,20.13-14.97c0.18-5.17,2.86-12.66,6.42-23.35
	c3.25-9.72-6.48-35.51-20.47-43.46c18.57-8.15,36.15-18.93,36.15-18.93c0.26-0.13,0.51-0.26,0.76-0.4
	c10.2,1.22,24.56-0.47,37.35-3.86c6.04,3.26,15.44,9.5,20.71,18.97c-9.27-4.89-6.18-1.21-6.18-1.21s5.46,8.67,8.55,17.82
	c-2.53-4.03-7.29-6.61-7.59-6.76c0.25,0.48,8.77,16.38,8.19,29.76c-4.16-7.08-5.59-5.06-5.59-5.06s5.11,20.08,3.45,31.49
	c-2.97-6.42-7.01-8.79-7.01-8.79s3.09,16.99,6.29,20.67c-1.06,0.59-7.12-4.64-4.03,2.85C350.73,558.1,352.92,567.22,363.45,570.96z"
	/>
<path fill="#FFFFFF" stroke="#000000" stroke-miterlimit="10" d="M304.72,629.23c-4.74,1.16-10.88,1.33-14.31,1.33
	c-0.4-2.02-0.8-4.19-1.2-6.44c2.76,0.51,9.03,1.4,14.43,0.21C303.75,626.02,304.06,627.73,304.72,629.23z"/>
<path fill="#FFFFFF" stroke="#000000" stroke-miterlimit="10" d="M313.92,644.15c-2.89-4.97-5.18-9.14-6.64-11.84
	c1.08,0.53,2.39,0.56,3.73,0.25C311.27,634.86,312.02,639.81,313.92,644.15z"/>
<path fill="#FFFFFF" stroke="#000000" stroke-miterlimit="10" d="M325.67,645.53c-1.03,2.41-3.13,4.32-5.31,4.58
	c-1.34,0.16-2.7-0.3-3.87-1.62c-0.13-0.14-0.26-0.3-0.38-0.46c-0.86-1.16-1.58-2.49-2.19-3.88c-1.9-4.34-2.65-9.29-2.91-11.59
	c2.15-0.5,4.39-1.89,5.93-3.54c0,0,0,0,0.01,0c4.13,0.69,6.77,6.34,8.79,10.63C326.63,641.56,326.46,643.69,325.67,645.53z"/>
<path fill="#FFFFFF" stroke="#000000" stroke-miterlimit="10" d="M321.77,657.08c-1.88-2.96-3.65-5.85-5.28-8.59
	c1.17,1.32,2.53,1.78,3.87,1.62C320.4,651.79,320.67,654.47,321.77,657.08z"/>
<path fill="#FFFFFF" stroke="#000000" stroke-miterlimit="10" d="M334.5,661.93c-0.89,1.44-2.64,2.2-4.64,2.02
	c-1.48-0.12-3.1-0.77-4.6-2.02c-0.34-0.28-0.65-0.57-0.94-0.88l-0.01-0.01c-0.87-1.33-1.71-2.65-2.54-3.96
	c-1.1-2.61-1.37-5.29-1.41-6.97c2.18-0.26,4.28-2.17,5.31-4.58c1.85,1.6,5.01,4.76,8.03,9.63
	C335.47,658.02,335.49,660.38,334.5,661.93z"/>
<path fill="#FFFFFF" stroke="#000000" stroke-miterlimit="10" d="M342.29,678.85c-0.8,0.21-1.75,0.15-2.89-0.28
	c-5.1-1.92-8.32-10.4-9.54-14.62c2,0.18,3.75-0.58,4.64-2.02c2.52,1.6,7.5,4.83,9.41,6.65c0.68,0.66,1.16,1.82,1.36,3.14
	C345.72,674.58,344.91,678.18,342.29,678.85z"/>
<path fill="#FFFFFF" stroke="#000000" stroke-miterlimit="10" d="M356.19,687.1c-0.01,0.01-0.03,0.01-0.04,0.02
	c-7.51,3.56-12.22-4.66-13.86-8.27c2.62-0.67,3.43-4.27,2.98-7.13c3.92,1,10.37,5.15,12.72,9.11
	C359.42,683.25,359.32,685.59,356.19,687.1z"/>
<path fill="#FFFFFF" stroke="#000000" stroke-miterlimit="10" d="M370.53,689.73c-0.29,0.22-0.58,0.42-0.88,0.6
	c-5.51,3.4-10.74-0.49-13.46-3.23c3.13-1.51,3.23-3.85,1.8-6.27c3.6-0.86,9.78,0.37,12.86,2.67
	C373.06,685.15,373.67,687.36,370.53,689.73z"/>
<path fill="#FFFFFF" stroke="#000000" stroke-miterlimit="10" d="M385.11,686.59c-0.57,1.55-2.06,2.98-4.81,3.87
	c-0.38,0.13-0.79,0.24-1.22,0.34c-2.41,0.57-4.31,0.7-5.82,0.59c-1.62-0.13-2.78-0.55-3.61-1.06c0.3-0.18,0.59-0.38,0.88-0.6
	c3.14-2.37,2.53-4.58,0.32-6.23c1.6-1.9,5.12-5.14,9.18-4.54c0.59,0.09,1.15,0.27,1.69,0.53
	C384.34,680.75,386.12,683.86,385.11,686.59z"/>
<path fill="#FFFFFF" stroke="#000000" stroke-miterlimit="10" d="M397.55,674.1c-1.8-1.64-3.59-3.25-5.41-4.89
	c0.38,0,0.78,0.04,1.2,0.09C396.05,669.68,397.37,671.63,397.55,674.1z"/>
<path fill="#FFFFFF" stroke="#000000" stroke-miterlimit="10" d="M385.11,686.59c1.01-2.73-0.77-5.84-3.39-7.1
	c1.14-3.55,4.02-10.36,10.4-10.29c0,0,0.01,0.01,0.02,0.01c1.82,1.64,3.61,3.25,5.41,4.89C397.98,679.54,392.87,687.5,385.11,686.59
	z"/>
<path fill="#FFFFFF" stroke="#000000" stroke-miterlimit="10" d="M373.26,691.39c-3.19,3.37-8.08,9.25-8.61,14.02
	c-5.16-3.74-11.66-9.12-19.13-16.75c-7.29-7.44-14.74-17.7-21.2-27.61c0.29,0.31,0.6,0.6,0.94,0.88c1.5,1.25,3.12,1.9,4.6,2.02
	c1.22,4.22,4.44,12.7,9.54,14.62c1.14,0.43,2.09,0.49,2.89,0.28c1.64,3.61,6.35,11.83,13.86,8.27c0.01-0.01,0.03-0.01,0.04-0.02
	c2.72,2.74,7.95,6.63,13.46,3.23C370.48,690.84,371.64,691.26,373.26,691.39z"/>
<path fill="#FFFFFF" stroke="#000000" stroke-miterlimit="10" d="M381.1,702.42c-1.46,4.11-4.71,7.15-7.95,8.47
	c-3.61,1.46-7.2,0.77-8.32-2.98c-0.23-0.78-0.28-1.62-0.18-2.5c0.53-4.77,5.42-10.65,8.61-14.02c1.51,0.11,3.41-0.02,5.82-0.59
	c0.43-0.1,0.84-0.21,1.22-0.34C381.6,692.65,383.11,696.78,381.1,702.42z"/>
<path fill="none" stroke="#000000" stroke-miterlimit="10" d="M394.71,616.19c-3.75,1.96-10.87-1.78-14.26-9.98
	c-3.39-8.19-11.05-18.54-1.61-19.16c9.45-0.63,14.34,4.72,17.11,12.62C397.91,605.23,398.45,614.23,394.71,616.19z"/>
<path fill="#FFFFFF" stroke="#000000" stroke-miterlimit="10" d="M231.48,457.7c0,0,21.23,2.97,18.36-4.99
	C246.96,444.75,231.48,457.7,231.48,457.7z"/>
<path fill="#FFFFFF" stroke="#000000" stroke-miterlimit="10" d="M370.61,874.56c-1.39,0.6-3.1,1.36-4.95,2.24
	c-7.24,3.44-16.67,8.66-18.18,13.12c-11.05-0.02-7.49-1.95-7.49-1.95c2.45-6.74,18.27-16.24,20.24-17.4l0.03,0.03l0.16-0.14
	l0.01-0.01C363.2,870.67,370,870.24,370.61,874.56z"/>
<path fill="#FFFFFF" stroke="#000000" stroke-miterlimit="10" d="M360.43,870.45l-0.01,0.01c-0.03,0.01-0.09,0.05-0.19,0.11
	c-1.97,1.16-17.79,10.66-20.24,17.4c0,0-1.96,0.18-4.81-1.6c4.46-11.94,14.79-16.58,14.79-16.58s2.5-3.32,6.36-3.7
	c0.14-0.02,0.28-0.03,0.42-0.04c0.12-0.01,0.26-0.01,0.45-0.03c0,0,0,0,0.01,0C358.82,866.86,361.05,868.43,360.43,870.45z"/>
</svg>
