<?xml version="1.0" encoding="utf-8"?>
<!-- Generator: Adobe Illustrator 25.2.0, SVG Export Plug-In . SVG Version: 6.00 Build 0)  -->
<svg version="1.1" baseProfile="tiny" id="Layer_1" xmlns="http://www.w3.org/2000/svg" xmlns:xlink="http://www.w3.org/1999/xlink"
	 x="0px" y="0px" viewBox="0 0 1000 1000" overflow="visible" xml:space="preserve">
<path fill="#FFFFFF" stroke="#000000" stroke-miterlimit="10" d="M567.5,159.8c-1.3-0.3-2-7.4-4.6-12.1
	c-2.6-4.8-10.9-11.9-11.6-18.8c-0.7-6.9-0.2-8.8-6.4-13.1c-6.2-4.3-14.7-5.5-18.1-8.3c-3.3-2.9-23.5-14.2-23.5-14.2s-1.4,7.6-5,7.1
	c-3.6-0.5-18.1-13.6-35.4-21.4c-17.3-7.8-28.8-8.1-28.8-8.1s19.2,20.2,23.3,31.4c3.5,9.6,7.5,14.5,9.3,16.2
	c-2.2-1.8-8.4-6.5-13.8-7.4c-6.8-1.1-9.1-2.1-9.3-2.1c0.3,0.5,11.2,15.3,13.3,20.4c2.1,5.2,8.8,18.8,2.6,18.8
	c-6.1,0-22.8-7.6-23.3-7.8c0.2,0.5,16.7,29.9,22.1,30.9c5.5,0.9,13.3,8.5,12.3,17.6c-0.5,4.5-2,7.5-2.4,10.4
	c-0.5,2.9,0.2,5.5,4.1,9.4c7.8,7.6,35.2,31.8,49.2,32.8c13.9,0.9,25,1.4,34.2-35.5c0.1-0.4,0.2-0.7,0.3-1.1
	c2.8-11.6,14.9-15.7,16-23.9c1.2-8.2-0.4-19.8,2.7-25.9C572.6,157,568.8,160.2,567.5,159.8z M555.7,198.8
	c-5.5,7.6-1.2,17.6-7.1,20.7c-4.4,2.3-8.6,3.9-10.5,4.6c0.8,1.8,2.7,2.4,2.7,2.4l-8.3,7.6c-1.7,1.6-4.3,1.5-6,0
	c-2-1.8-5.2-3.2-8.2-7c1.2,0,2.2-0.4,3-1.1c-4.7-1.5-21.3-5.9-21.7-5.9c-0.3,0-3.2-15-6.8-27.1c-11-5.4-31.9-34-32.5-34.9
	c0.3,0.2,4.2,2.6,15.7,2.6c-4.5-9.6-10.1-32.4-10.2-33c0.3,0.2,6.5,3.3,10.2,1.4c-1.7-5.5-6.7-25.7-6.7-25.7s15.4,9.3,21,12.3
	c5.6,3.1,8,7.4,11.8,8.6c3.8,1.2,6.6-2.4,6.6-2.4s9.8,1.4,15.5,9.5c7.8,0.7,10-4.8,10-4.8s13.3,16.2,16.9,26.6
	c3.6,10.4,4,17.1,5.2,18.1c1.2,0.9,3.8,0.9,3.8,0.9S561.2,191.2,555.7,198.8z"/>
<path fill="#FFFFFF" stroke="#000000" stroke-miterlimit="10" d="M560,172.2c0,0-2.6,0-3.8-0.9c-1.2-1-1.7-7.6-5.2-18.1
	c-3.6-10.5-16.9-26.6-16.9-26.6s-2.1,5.5-10,4.8c-5.7-8.1-15.5-9.5-15.5-9.5s-2.8,3.6-6.6,2.4c-3.8-1.2-6.2-5.5-11.8-8.6
	c-5.6-3.1-21-12.3-21-12.3s5,20.2,6.7,25.7c-3.7,1.9-9.9-1.3-10.2-1.4c0.1,0.6,5.8,23.4,10.2,33c-11.4,0-15.4-2.4-15.7-2.6
	c0.7,0.9,21.5,29.5,32.5,34.9c3.6,12.1,6.5,27.1,6.8,27.1c0.4,0,17,4.4,21.7,5.9c2-1.8,2.7-4.9,2.7-4.9s8.6,0.7,13.8,0.7
	c-0.1,1,0.1,1.8,0.4,2.4c1.9-0.7,6.2-2.3,10.5-4.6c5.9-3.1,1.7-13.1,7.1-20.7C561.2,191.2,560,172.2,560,172.2z M548.2,208.5
	c0,0-5.7-0.4-7.8,3.2c-2.1,3.6-3.2,4.5-3.2,4.5l-14.3,1.1c0,0-0.6-10.1-12.7-6.6c-9.6-12.1-17.9-26.6-17-41.5
	c0.9-15,15.7-21.2,15.7-21.2s7.1,2.9,14.1,14.6h16.6l2.3-14.6c0,0,13.2,8,13,26.7C554.6,193.4,548.2,208.5,548.2,208.5z"/>
<path fill="#FFFFFF" stroke="#000000" stroke-miterlimit="10" d="M541.8,147.9l-2.3,14.6h-16.6c-7-11.8-14.1-14.6-14.1-14.6
	s-14.8,6.2-15.7,21.2c-0.9,15,7.5,29.4,17,41.5c12.1-3.5,12.7,6.6,12.7,6.6l14.3-1.1c0,0,1.1-0.9,3.2-4.5c2.1-3.6,7.8-3.2,7.8-3.2
	s6.4-15.1,6.6-33.9C555,155.9,541.8,147.9,541.8,147.9z M523.1,197.1c-20.1-0.9-16-23.3-16-23.3
	C517.9,175.5,524.1,185.9,523.1,197.1z M541.6,197.1c-1.4,0.4-2.5-15.9,9.4-19.8C553.5,188.7,548.5,195,541.6,197.1z"/>
<path fill="#FFFFFF" stroke="#000000" stroke-miterlimit="10" d="M523.1,197.1c-20.1-0.9-16-23.3-16-23.3
	C517.9,175.5,524.1,185.9,523.1,197.1z"/>
<path fill="#FFFFFF" stroke="#000000" stroke-miterlimit="10" d="M541.6,197.1c-1.4,0.4-2.5-15.9,9.4-19.8
	C553.5,188.7,548.5,195,541.6,197.1z"/>
<path fill="#FFFFFF" stroke="#000000" stroke-miterlimit="10" d="M540.8,226.5l-8.3,7.6c-1.7,1.6-4.3,1.5-6,0c-2-1.8-5.2-3.2-8.2-7
	c1.2,0,2.2-0.4,3-1.1c2-1.8,2.7-4.9,2.7-4.9s8.6,0.7,13.8,0.7c-0.1,1,0.1,1.8,0.4,2.4C538.9,225.9,540.8,226.5,540.8,226.5z"/>
<path fill="#FFFFFF" stroke="#000000" stroke-miterlimit="10" d="M566,238.5c0,0,0,0-0.1,0.1c-1.2,1.3-12,17.2-12,17.2
	s-7.3-3.6-8.4-4.8c-1.1-1.2-3.2-3.4-4.7-2.8c-1.5,0.5,9.4,21.9-1.9,24.6c-11.2,2.7-17.3,4.3-17.3,4.3s-5.3-3.4-20-10
	c-14.6-6.6-34.2-34.9-39.2-38.3c-2.1-1.4-4.1-1.3-5.8-0.8c0,0,0,0-0.1,0c0,0-0.1,0-0.2,0.1c-0.4,0.2-0.8,0.3-1.2,0.5
	c0-0.3,0-0.7,0-1.2c0,0,0,0,0,0c0-2.3,0.8-5.7,3.7-9.3c4.9-6,5.2-17.4,7-18.5c0.8-0.5,1.7-0.5,2.4-0.3c-0.5,2.9,0.2,5.5,4.1,9.4
	c7.8,7.6,35.2,31.8,49.2,32.8c13.9,0.9,25,1.4,34.2-35.5c2.5,8.5,9.3,26,10.2,31.9C566,238,566,238.2,566,238.5z"/>
<path fill="#FFFFFF" stroke="#000000" stroke-miterlimit="10" d="M474.7,248.5c0,0-2.9,7.6-8.5,15.7c-16.6,2.4-25,18.8-33.2,33
	c-8.3,14.3-16.2,12.3-29,13.1c-8.5,0.5-10-0.6-10.8-2.3v0c-0.4-0.8-0.5-1.8-1.3-2.7c-2.4-2.8,2.8-37.3,6.4-45.1
	c3.6-7.8,39.2-29.2,48.7-29.6c1.5-0.1,3.3,0.3,5.2,1.1c0.1,0,0.2,0.1,0.3,0.1C462.1,235.8,474.7,248.5,474.7,248.5z"/>
<path fill="#FFFFFF" stroke="#000000" stroke-miterlimit="10" d="M547.7,337.1c-15.9,5.9-32.1,7.1-34.5,6.6
	c-2.4-0.5-13.3-13.1-23.5-11.9c-9.5,1.1-37.9,11.2-46.6,16.8c-0.7,0.4-1.2,0.9-1.7,1.2c-4.9-4.4-7.4-9-8.7-13c0.8-3.7,1.3-6,1.3-6
	s-1.1-1.3-2.7-3.2c0-0.2,0-0.4,0-0.4c1.2,0,2.1-12.9,9.5-17c7.4-4.2,9.7-21.7,17.6-32.4c7.9-10.7,19.2-13.5,19.2-13.5
	s20,19.5,35.2,19.5c15.2,0,38.7-3.3,38.7-3.3s7,10.2,9.7,17c0.5,1.2,0.8,2.3,1,3.2C563.3,306.7,563.6,331.2,547.7,337.1z"/>
<path fill="#FFFFFF" stroke="#000000" stroke-miterlimit="10" d="M434.1,330.9c0,0-0.5,2.3-1.3,6c-2.9,13-10,42.9-12.9,45.3
	c-0.8,0.6-2,1-3.5,1.1c-5.9,0.4-15.9-2.7-17.8-5.3c-1.8-2.6-5.8-7.8-10.4-12.5c-1.3-1.4-2.7-2.7-4.1-3.9c1-10.7,2.4-38.2,2.4-38.2
	s2.3-0.7,5.7-1.7c9.1-2.7,25.8-7.6,26.8-7.6c1,0,8.5,8.8,12.6,13.7C433,329.6,434.1,330.9,434.1,330.9z"/>
<path fill="#FFFFFF" stroke="#000000" stroke-miterlimit="10" d="M601.8,316.9c-0.6,0-1.2-0.2-1.8-0.4c-8.3-2.7-11.9-18.4-14.5-22.8
	c-0.2-0.4-0.4-0.7-0.6-0.9c-2.9-2.7-17.1,9.6-18.2,9.5c-0.3-0.1-1.8-3.1-3.6-7.3c-3.9-8.9-9.6-22.7-9.6-22.7s10-13.2,16-17.8
	c5.9-4.5,3.4-12.4,3.2-12.8c0.5,0.3,30.3,20.9,32.8,27.5C608.1,275.7,604.2,299.9,601.8,316.9z"/>
<path fill="#FFFFFF" stroke="#000000" stroke-miterlimit="10" d="M607.8,377.2c0,0.1-0.1,0.2-0.1,0.3c-4.3,4.3-11.9,11.8-11.9,11.8
	s-11.2-3.8-17.3-6.5c-1.9-0.9-3.3-1.6-3.7-2.1c-0.9-1.2-4.2-12-6.3-21.8c0.5-2.1,1.1-4.1,1.7-5.7c4.3-11.7,11.7-25.4,14-36.3
	c0.1-0.3,0.1-0.7,0.2-1c3.1,3.1,11,10.9,16.2,16.3c2.8,3,4.9,5.3,4.9,5.7C605.6,339.3,610.5,368.4,607.8,377.2z"/>
<path fill="#FFFFFF" stroke="#000000" stroke-miterlimit="10" d="M651.5,476.7c-1.4-8.9-38-37.2-38.1-39.4
	c-0.2-2.1-10-34.2-9.5-39.9c0.4-4.1,5.8-9.2,8.8-11.7c1.2-1,2.1-1.7,2.1-1.7s18.9,13.9,28,29.4C651.9,429,656.7,466,651.5,476.7z"/>
<path fill="#FFFFFF" stroke="#000000" stroke-miterlimit="10" d="M601.1,404.7c-1.2,15-4.3,43.7-4.3,43.7s-11,7.3-15.4,12.4
	c-0.6,0.7-1.1,1.4-1.4,2c-11.1-21.4-13.7-50.4-2.9-71.5c0,0,0.6,0.3,1.7,0.7C583.9,394.3,598.6,401,601.1,404.7z"/>
<path fill="#FFFFFF" stroke="#000000" stroke-miterlimit="10" d="M628.8,488c-3.3,5.3-5.4-7.7-16.3-9.9c-9.6-2-16.9,5.2-22.7,6.6
	c-0.8,0.2-1.5,0.3-2.2,0.2c-6.1-0.4-6.9-13.7-6.9-13.7c1-0.5,2.3-1.3,3.7-2.3c8.7-6.5,23.4-21.9,29-22.1c6.4-0.2,13.7,9.6,19.6,20.7
	C638.9,478.5,632.1,482.6,628.8,488z"/>
<path fill="#FFFFFF" stroke="#000000" stroke-miterlimit="10" d="M434.2,478C434.1,478,434.1,478,434.2,478
	c-0.3-0.2-0.5-0.4-0.8-0.6c-7.3-5.7-41-22.2-45.3-28.4c-4.5-6.4-5.2-37.8-10.2-45.1c-3.5-5.1-7.6-8.3-9.8-9.7c-1-0.6-1.6-1-1.6-1
	s2.5-15.6,14.2-19.2c0,0,1,0.4,2.6,1.5c4.1,2.8,11.9,10.2,15.7,25.8c5.6,0.7,19.3,4.2,27.7,8.9c3,1.7,5.3,3.5,6.4,5.3
	C436.9,422.6,437.9,476.1,434.2,478z"/>
<path fill="#FFFFFF" stroke="#000000" stroke-miterlimit="10" d="M367.3,446.8c-8.1,1.3-16.4,3.8-16.4,7.9c0,0.1,0,0.2,0,0.3
	c-4.5-15.9-2.6-32.8,10.5-55.1c0,0,0.8,0.4,2,0.9c0.2,0.1,0.3,0.2,0.5,0.3c2.4,1.2,5.6,3,5.8,4C369.9,406.7,365.9,441.9,367.3,446.8
	z"/>
<path fill="#FFFFFF" stroke="#000000" stroke-miterlimit="10" d="M388.2,537.7l-9.3-2.1c0,0-7.6-11.6-7.6-12.3s7.8-9.5,12.6-10
	L388.2,537.7z"/>
<path fill="#FFFFFF" stroke="#000000" stroke-miterlimit="10" d="M560.5,430.4v45c0,0-0.3,0.3-0.8,0.9c-0.2,0.2-0.4,0.5-0.7,0.8
	c-4.4,5.1-18,20.5-25.6,28.7c-9.3,10-11.9,6.9-21.6,4.5c-5-23.3-28.3-38.7-37.5-44.9c-9.3-6.2-21.6,2.6-21.6,2.6s-0.4-0.2-1-0.7
	c-0.4-0.3-0.9-0.8-1.3-1.3c-0.6-0.8-1.2-1.8-1.4-3.1c-0.6-3.6,5.8-36.8,4.7-63c-1.1-26.1-9.3-36.1-9.3-36.1c1.2-1.5,2.5-2.9,3.9-4.3
	c16.3-15.7,42.9-21.4,42.9-21.4l11.3,9.7c0,0-3.2,15.9-5.3,55.8c22.7,24.6,46.7,27.4,57.6,27.2C558.3,430.8,560.5,430.4,560.5,430.4
	z"/>
<path fill="#FFFFFF" stroke="#000000" stroke-miterlimit="10" d="M584.4,315.8c0,0,0.1,0.1,0.1,0.1c-0.1,0.3-0.1,0.7-0.2,1
	c-2.2,10.9-9.6,24.6-14,36.3c-0.6,1.7-1.2,3.6-1.7,5.7c-3.9,15.7-5.4,41.3-5.8,49.3c-0.4,7.2-4.3,10.5-5.9,11.5
	c-0.4,0.3-0.6,0.4-0.6,0.4s-12.7,1.3-19,1.7c-6.3,0.4-30.4-21.6-34.8-28.8c-4.4-7.1,8.4-37.1,9.9-38.5c1.4-1.4,31.1-7.6,41.3-12.8
	c10.2-5.2,19-34.5,19-34.5s6.8-3.1,8-3.1c1,0,3.5,4.4,4.3,5.9C584.6,311.9,584.5,313.9,584.4,315.8z"/>
<path fill="#FFFFFF" stroke="#000000" stroke-miterlimit="10" d="M572.4,553.6c-2.1,12.6-16.2,63.7-21.8,69.8
	c-0.2,0.2-0.4,0.4-0.6,0.5c-5,2.6-10.2-15.2-15-15.7c-3.3-0.3-14.1,2-20.2-0.6h0c-2.6-1.1-4.3-3.2-4.3-6.7
	c0.2-7.7-2.7-37.3-4.7-57.1v0c2.4-6.7,4.4-12.7,5.8-17.1c6.6,0.4,16.3-0.7,23.9-8.5c11.1-11.3,21.6-30.2,24.3-35.1
	c0.2-0.4,0.4-0.7,0.5-0.9c0.1-0.2,0.2-0.4,0.2-0.4s4,3.7,4.5,4.2C565.5,486.6,574.5,540.5,572.4,553.6z"/>
<path fill="#FFFFFF" stroke="#000000" stroke-miterlimit="10" d="M511.6,526.7c-1.4,4.4-3.4,10.4-5.8,17.1v0
	c-9.3,26.3-23.9,64.2-27.8,66.6c-1.1,0.6-2.5,0.5-4.1-0.2c-7.4-3.1-19.1-17.7-19.7-22.2c-0.6-4.8-8.5-10.5-13.2-13.5
	c-0.7-0.5-1.3-0.9-1.8-1.2c-1.4-0.9-0.9-12,0.3-26.3c6.7,9.5,18.3,29.6,19.8,33.7c1.9,5.2,16.7,8.7,16.7,8.7s-5.2-49.7-6.4-53.6
	c-1.2-3.9-7-8.8-17.9-17.8c-0.4-0.4-0.8-0.7-1.2-1.1c-0.3-0.3-0.6-0.5-0.9-0.8c0,0-0.1-0.1-0.1-0.1c-0.8-0.8-1.6-1.5-2.3-2.3
	c-0.3-0.4-0.7-0.7-1-1.1s-0.6-0.7-0.9-1.1c0,0,0,0,0,0c-0.6-0.7-1.1-1.4-1.7-2.2c1.4-11.7,2.6-21.6,3.2-26v-0.1
	c0.2-1.6,0.3-2.4,0.3-2.4s0.1,0,0.2-0.1c0.3-0.2,0.9-0.5,1.8-0.9c5-2.6,18.4-8.9,24.2-5.5c7.1,4.3,39.2,42.3,40.4,44.4
	C513.9,519,513.1,522,511.6,526.7z"/>
<path fill="#FFFFFF" stroke="#000000" stroke-miterlimit="10" d="M556.5,650.8c0,3.6-9.8,25.2-9.8,25.4c0,0,0,0,0,0
	c-0.6,0.3-9.8,1.8-11.1,0c-1.4-1.9-8.6-26.6-8.1-29.5c0.5-2.8,5.7-17.1,7.1-17.3c1.4-0.2,11.5-3.2,15.2,1.2c0,0.1,0.1,0.1,0.1,0.2
	C553.4,635.1,556.5,647.3,556.5,650.8z"/>
<path fill="#FFFFFF" stroke="#000000" stroke-miterlimit="10" d="M534.8,693.1c0,0.7,0,13.1,0,13.1s-25.1-1.5-35.3-5.5
	c-2.1-0.8-3.6-1.8-4.1-2.8c-2.9-6.2,11.2-46.8,18.3-47.8c0.6-0.1,1.1-0.2,1.6-0.2c5-0.6,2.4,0.2,2.4,0.2s-2.4,27.8,0,29.9
	C520.1,682.1,534.8,692.4,534.8,693.1z"/>
<path fill="#FFFFFF" stroke="#000000" stroke-miterlimit="10" d="M553.6,703.8c-0.8,1.6-2.1,2.6-3.6,3.3c-4.3,2-10.2,1.2-10.2,1.2
	s-2.6-24.7-1.5-24.5c1.4,0.2,5.3-0.7,8.8-1.6c3.4-1,6.5-1.9,6.5-1.9S556.5,697.8,553.6,703.8z"/>
<path fill="#FFFFFF" stroke="#000000" stroke-miterlimit="10" d="M456.3,697c-0.1,0.2-0.2,0.5-0.4,0.7c-2.5,3.9-14.2,13.9-17.2,13.8
	c-3.3-0.1-19-8.8-18.2-8.7c0.4,0,1-8.2,9.3-13c7.1-4,18.6-6.9,23.1-10.7c0.8-0.7,1.3-1.3,1.6-2.1C456.9,678.3,457.5,693.9,456.3,697
	z"/>
<path fill="#FFFFFF" stroke="#000000" stroke-miterlimit="10" d="M421.5,677.9c0,0-5.1,10.3-6.2,17.9c-1.1,7.6-1.7,22.8-1.7,22.8
	s-4.2-1.3-7.7-3.2c-2.3-1.3-4.4-2.9-4.6-4.6c-0.5-4.2,0.1-18.2,6.8-27.7c4.4-6.3,8.3-12.5,10.5-16c0.7-1.1,2.2-0.9,2.7,0.1
	c0.1,0.1,0.1,0.2,0.1,0.4C422.1,670.1,422.5,673.7,421.5,677.9z"/>
<path fill="#FFFFFF" stroke="#000000" stroke-miterlimit="10" d="M472.9,620.5c-0.3,0.4-5.8,15.2-7.6,14.5c-0.7-0.3-1.9-1.1-3.3-2
	c-2.2-1.5-4.6-3.1-5.5-2.8c-1.3,0.5-12.3-2.2-16.9-3.1c-1-0.2-2.3-0.3-3.8-0.6c-2-8.2-4.1-18-5.6-25.8c-0.3-1.6-0.5-3.5-0.7-5.6
	c2.3-5.7,4.8-10.1,6.2-10.3c1-0.1,2.2-0.1,3.5,0c3.4,0.2,7.5,1.1,9.3,2.9c3.9,3.8,15.6,22.5,18.1,25.1c1.5,1.6,3.6,4,4.9,5.6
	C472.5,619.5,473,620.3,472.9,620.5z"/>
<path fill="#FFFFFF" stroke="#000000" stroke-miterlimit="10" d="M426.6,645.8c-1.9-1.2-3.9-3-5.9-5.5c-0.6-0.7-1.2-1.5-1.8-2.4
	c-12.1-17.4-15.9-29.2-15.7-38c0.2-7.8,2.7-27.7,3.2-32.1c0.1-0.6,0.1-0.9,0.1-0.9s14.6-10.1,24.1-2.3c-1,10.4-1.6,22.2-1,30.5
	c0.1,2.1,0.4,4,0.7,5.6c1.5,7.9,3.6,17.6,5.6,25.8c0.7,2.7,1.3,5.2,2,7.5c1.2,4.2,2.3,7.4,3.1,8.6
	C443,645.7,435.7,651.8,426.6,645.8z"/>
<path fill="#FFFFFF" stroke="#000000" stroke-miterlimit="10" d="M469.7,535.8c-1.2-3.9-7-8.8-17.9-17.8c-0.4-0.4-0.8-0.7-1.2-1.1
	c-0.3-0.3-0.6-0.5-0.9-0.8c0,0-0.1-0.1-0.1-0.1c-0.8-0.8-1.6-1.5-2.3-2.3c-0.3-0.4-0.7-0.7-1-1.1s-0.6-0.7-0.9-1.1c0,0,0,0,0,0
	c-0.6-0.7-1.1-1.4-1.7-2.2c0,0.1,0,0.2,0,0.3c-1.3-1.6-3.2-4-4.9-6.9c-4.3-1-14.7,0.1-32.1,22.9c0,0-9-5.2-5.1-15
	c3.9-9.7,19.4-24.2,20.8-24.5c1.1-0.2,7.9-0.1,12.3,1.3c-0.4-3.6-0.9-7.1-1.2-10c-7.3-5.7-41-22.2-45.3-28.4
	c-4.5-6.4-5.2-37.8-10.2-45.1c-3.5-5.1-7.6-8.3-9.8-9.7c-1-0.6-1.6-1-1.6-1s-1,3.1-2.5,7.8c2.4,1.2,5.6,3,5.8,4
	c0.2,1.7-3.8,36.8-2.4,41.7c-8.1,1.3-16.4,3.8-16.4,7.9c0,0.1,0,0.2,0,0.3c0.1,1.3,0.2,2.9,0.4,4.6c8.8,1.2,37.7,5.3,44.5,9.9
	c8.1,5.5,10.7,23.3,10.7,23.3s-34.7-6.2-42.3,0c-7.4,6-6.3,9.3-6.2,9.5c4.2,8,10.7,41.7,11.4,60.6c0,1.3,0.1,2.5,0.1,3.6
	c0,0,0.1,0,0.1,0c2.5-0.4,9.3-1.2,16.3,0.7c3.8-5.6,15.3-1.6,20.6,0.6c0.1-0.6,0.1-0.9,0.1-0.9s14.6-10.1,24.1-2.3
	c0,0,0.8-30.5,9.1-17.6v0c6.7,9.5,18.3,29.6,19.8,33.7c1.9,5.2,16.7,8.7,16.7,8.7S470.9,539.7,469.7,535.8z M378.9,535.5
	c0,0-7.6-11.6-7.6-12.3s7.8-9.5,12.6-10l4.3,24.5L378.9,535.5z"/>
<path fill="#FFFFFF" stroke="#000000" stroke-miterlimit="10" d="M420.7,640.3c-5.6,1.7-14.2-3-17.5-6.4c-1.7-1.8-6.1-7.8-10.4-14.5
	c-5.2-8.1-10.3-17.2-10.9-21.6c-1-8.1,3.9-30.6,3.9-30.6c3.8-5.6,15.3-1.6,20.6,0.6c-0.5,4.4-3,24.4-3.2,32.1
	c-0.2,8.8,3.6,20.7,15.7,38C419.5,638.8,420.1,639.6,420.7,640.3z"/>
<path fill="#FFFFFF" stroke="#000000" stroke-miterlimit="10" d="M392.8,619.4c-7.4-6-21.1-22.5-23.3-27.1c-1.9-3.8-1-18.2-0.4-25.6
	c0-0.1,0-0.1,0-0.2c0.1,0,0.2,0,0.4-0.1c0,0,0.1,0,0.1,0c2.5-0.4,9.3-1.2,16.3,0.7c0,0-5,22.6-3.9,30.6
	C382.5,602.2,387.6,611.3,392.8,619.4z"/>
<path fill="#FFFFFF" stroke="#000000" stroke-miterlimit="10" d="M426.6,410.2c-8.4-4.7-22.1-8.2-27.7-8.9
	c-3.8-15.6-11.7-22.9-15.7-25.8c2.1-3,4-6.6,4.8-10c4.6,4.7,8.6,9.9,10.4,12.5c1.9,2.7,11.9,5.8,17.8,5.3c0.1,2.2,0.5,5,1.6,8
	C419.8,396.2,424,403.5,426.6,410.2z"/>
<path fill="#FFFFFF" stroke="#000000" stroke-miterlimit="10" d="M441,503.7c0,0-0.4-0.3-1.2-0.7c-0.3-0.1-0.7-0.3-1.2-0.4
	c-4.3-1-14.7,0.1-32.1,22.9c0,0-9-5.2-5.1-15c3.9-9.7,19.4-24.2,20.8-24.5c1.1-0.2,7.9-0.1,12.3,1.3c0.3,0.1,0.6,0.2,0.9,0.3
	c1.1,0.4,1.9,0.9,2.5,1.5C440.5,492.3,441,503.7,441,503.7z"/>
<path fill="#FFFFFF" stroke="#000000" stroke-miterlimit="10" d="M600.7,332.2c-5.2-5.5-13.1-13.2-16.2-16.3
	c0.4-1.9,0.5-3.8,0.5-5.5c0,0-0.1-0.2-0.2-0.4c0.4-6.2,0.7-12.4,0.8-16.3c2.6,4.4,6.2,20.2,14.5,22.8
	C600,320.1,599.9,326.3,600.7,332.2z"/>
<path fill="#FFFFFF" stroke="#000000" stroke-miterlimit="10" d="M653.7,511.1c-2.1-6.8-2.1-34.4-2.1-34.4
	c-1.4-8.9-38-37.2-38.1-39.4c-0.2-2.1-10-34.2-9.5-39.9c0.4-4.1,5.8-9.2,8.8-11.7c-1.7-2.7-3.7-6.2-5-8.5c0,0.1-0.1,0.2-0.1,0.3
	c-4.3,4.3-11.9,11.8-11.9,11.8s-11.2-3.8-17.3-6.5c0.4,2.5,0.7,6,0.3,9.4c5,2.2,19.7,9,22.2,12.6c-1.2,15-4.3,43.7-4.3,43.7
	s-11,7.3-15.4,12.4c0.8,1.6,2.2,4.5,3,8c8.7-6.5,23.4-21.9,29-22.1c6.4-0.2,13.7,9.6,19.6,20.7c5.9,11-0.9,15.1-4.2,20.5
	c-3.3,5.3-5.4-7.7-16.3-9.9c-9.6-2-16.9,5.2-22.7,6.6c-0.2,11.2-8.5,27.7-10.5,32.5c-2.1,5.2,4.5,26.7,20.3,54
	c10.5,0.3,7.1-18.7,5.3-23.7c-1.8-5-2.1-18.9-2.3-30.1c11.1,1.5,18.5,15.9,22.8,28.5c4.8,7.6,10.3,16.2,12.2,17.6
	c-0.4,3.5-3.5,13.6-5,21.7c-0.5,3-0.8,5.7-0.7,7.7c-3.1,5.7-7.9,13.4-8,19.2c-0.7,5.5,0.9,19.6,2.9,20.5c2,0.9,30.8-50.2,30.8-52.6
	s0.9-33,1.2-35.1S655.8,517.9,653.7,511.1z M632.7,510.3c-3,0.1,3.9-21.1,3.9-21.1c7.7-0.3,8.3,5.3,9.5,10.8
	C647.3,505.5,635.7,510.2,632.7,510.3z"/>
<path fill="#FFFFFF" stroke="#000000" stroke-miterlimit="10" d="M632.7,510.3c-3,0.1,3.9-21.1,3.9-21.1c7.7-0.3,8.3,5.3,9.5,10.8
	C647.3,505.5,635.7,510.2,632.7,510.3z"/>
<path fill="#FFFFFF" stroke="#000000" stroke-miterlimit="10" d="M632,592.9c-3.1,5.7-7.9,13.4-8,19.2c-9.6,8.5-17.6,9.1-15.3,1.1
	c2.3-8,7.5-11.8,7.5-11.8s7.6-12.9,16.6-16.3C632.2,588.2,631.8,590.9,632,592.9z"/>
<path fill="#FFFFFF" stroke="#000000" stroke-miterlimit="10" d="M637.7,563.5c-0.4,3.5-3.5,13.6-5,21.7c-9,3.4-16.6,16.3-16.6,16.3
	s-4.1-5.9,4.1-16.8s10.3-18.7,10.3-19.4c0-0.3-1.6-9.3-5-19.4C630.2,553.5,635.8,562.1,637.7,563.5z"/>
<path fill="#FFFFFF" stroke="#000000" stroke-miterlimit="10" d="M623.6,903.7c-10.2,3.9-40.6,5.3-57.9-10.7
	c-17.3-16-37.4-33.5-49.5-38.5c-11.9-4.9-20.2-34.7-20.5-35.6c0.5,0.8,17,23.2,22.3,15.7c5.3-7.7,0-43.5-3.9-58.1
	c-3.5-13.1-14.5-58.8-14.5-75.8c10.2,4,35.3,5.5,35.3,5.5s0-12.4,0-13.1c0-0.7-14.7-10.9-17.1-13.1c-2.4-2.1,0-29.9,0-29.9
	s2.6-0.8-2.4-0.2c2.4-18.3,0.8-34-0.4-42.2c6.1,2.6,16.9,0.3,20.2,0.6c4.8,0.5,10,18.3,15,15.7c0.2-0.1,0.4-0.3,0.6-0.5
	c-0.3,1.7-0.6,4.6-0.7,7.3c0-0.1-0.1-0.1-0.1-0.2c-3.7-4.4-13.8-1.4-15.2-1.2c-1.4,0.2-6.7,14.5-7.1,17.3
	c-0.5,2.8,6.6,27.6,8.1,29.5c1.4,1.8,10.5,0.4,11.1,0c0.1,1.7,0.2,3.8,0.4,6c-3.5,1-7.4,1.9-8.8,1.6c-1.1-0.2,1.5,24.5,1.5,24.5
	s5.9,0.8,10.2-1.2c-2.2,13.2-12.5,78.6-10,107.4c2.9,32.1,15.7,32.6,29.8,39.2c14.1,6.6,33.9,7.3,46.5,16.6
	c12.6,9.3,15.7,21.7,15.7,25.8c-11-4.6-25-14.1-30.5-17.1c-5.5-3-22.1,2.5-9.3,4.8C605,886.1,616.1,889.1,623.6,903.7z"/>
<path fill="#FFFFFF" stroke="#000000" stroke-miterlimit="10" d="M447.5,880.3c-8.9-16.6-10.1-29.9-8.9-74.1s14.7-64.2,16.8-78.2
	c1.5-9.7,0.9-23,0.4-30.3c-2.5,3.9-14.2,13.9-17.2,13.8c-3.3-0.1-19-8.8-18.2-8.7c0.4,0,1-8.2,9.3-13c7.1-4,18.6-6.9,23.1-10.7
	c-0.1-2.3,0-5.8,0.2-9.5c-2.1,4.1-4.6,7.6-7.5,9.4c-11.1,1.6-17,0-17,0s-2.1-7.4-2.7-16.7c-1.3,1.4-2.8,3-4.3,4.9
	c0.1,0.1,0.1,0.2,0.1,0.4c0.6,2.5,1,6.2,0,10.3c0,0-5.1,10.3-6.2,17.9c-1.1,7.6-1.7,22.8-1.7,22.8s-4.2-1.3-7.7-3.2
	c0,38.3,16.8,87.4,13.1,126.5c-3.8,40.4-20,38.5-25.7,61.6c-5.7,23,22.3,40.1,26.1,39c3.8-1.2-0.7-20.9-3.1-25.2
	c-2.4-4.3-4.3-19.5,6.9-20.2c11.2-0.7,12.6,4.3,7.1,16.4c-5.5,12.1-1.2,29-1.2,29s17.1-10.7,23.8-22.3
	C459.7,908.4,456.4,897,447.5,880.3z M424.9,746c0,0-7.1-16.9-4.5-19.7c2.6-2.8,3.5-11.9,3.5-11.9s10.9,1.5,14.8,1.7
	s6.4-4.5,6.4-4.5l4.8,11.8L424.9,746z"/>
<path fill="#FFFFFF" stroke="#000000" stroke-miterlimit="10" d="M449.8,723.3L424.9,746c0,0-7.1-16.9-4.5-19.7
	c2.6-2.8,3.5-11.9,3.5-11.9s10.9,1.5,14.8,1.7s6.4-4.5,6.4-4.5L449.8,723.3z"/>
<path fill="#FFFFFF" stroke="#000000" stroke-miterlimit="10" d="M452.9,669.6C452.9,669.6,452.9,669.6,452.9,669.6
	c-2.1,4.1-4.6,7.6-7.5,9.4c-11.1,1.6-17,0-17,0s-2.1-7.4-2.7-16.7c-0.4-5.3-0.3-11.1,0.9-16.5c9.1,5.9,16.4-0.2,14.4-3.2
	c-0.8-1.2-1.9-4.4-3.1-8.6c3.7-0.1,7.9,0.3,10.2,2.4c3,2.7,6.4,5.6,8.9,7.4c1.2,0.9,2.1,1.5,2.7,1.7
	C460.8,646,458,659.6,452.9,669.6z"/>
<path fill="#FFFFFF" stroke="#000000" stroke-miterlimit="10" d="M462,633c-1.5,3.1-3.5,7.4-5.1,10.8c-2.4-1.8-5.9-4.6-8.9-7.4
	c-2.3-2.1-6.5-2.6-10.2-2.4c-0.6-2.2-1.3-4.8-2-7.5c1.5,0.2,2.8,0.4,3.8,0.6c4.6,0.9,15.6,3.7,16.9,3.1
	C457.4,629.8,459.9,631.5,462,633z"/>
<path fill="#FFFFFF" stroke="#000000" stroke-miterlimit="10" d="M474,610.2c-0.3,2.2-0.9,5-2.3,8.2c-1.3-1.7-3.3-4-4.9-5.6
	c-2.5-2.7-14.1-21.3-18.1-25.1c-1.9-1.8-5.9-2.7-9.3-2.9c0.1-3.8,1-7.5,1.8-10.3c4.7,3.1,12.5,8.8,13.2,13.5
	C454.8,592.5,466.5,607.1,474,610.2z"/>
<path fill="#FFFFFF" stroke="#000000" stroke-miterlimit="10" d="M559.8,483.1c-2.7,5-13.2,23.8-24.3,35.1
	c-7.6,7.7-17.3,8.8-23.9,8.5c1.5-4.7,2.2-7.6,2-8c-1.2-2.1-33.3-40.2-40.4-44.4c-5.7-3.4-19.1,2.9-24.2,5.5
	c1.4-3.4,2.1-8.2,2.5-12.4c0.6,0.5,1,0.7,1,0.7s12.4-8.7,21.6-2.6c9.3,6.2,32.6,21.6,37.5,44.9c9.7,2.4,12.4,5.4,21.6-4.5
	c7.7-8.2,21.2-23.7,25.6-28.7C559,479,559.1,481.3,559.8,483.1z"/>
<path fill="#FFFFFF" stroke="#000000" stroke-miterlimit="10" d="M406.5,492.8c0,0-34.7-6.2-42.3,0c-7.4,6-6.3,9.3-6.2,9.5
	c-0.4-0.2-13.2-7.4-9.3-43c0,0,1,0.1,2.6,0.3c8.8,1.2,37.7,5.3,44.5,9.9C403.9,474.9,406.5,492.8,406.5,492.8z"/>
<path fill="#FFFFFF" stroke="#000000" stroke-miterlimit="10" d="M585.5,293.7c-0.2,3.8-0.5,10-0.8,16.3c-0.8-1.4-3.3-5.9-4.3-5.9
	c-1.2,0-8,3.1-8,3.1s-8.8,29.2-19,34.5c-10.2,5.2-39.9,11.4-41.3,12.8c-1.4,1.4-14.3,31.4-9.9,38.5c4.4,7.1,28.5,29.1,34.8,28.8
	c6.3-0.3,19-1.7,19-1.7s0.2-0.1,0.6-0.4c-1,3.3-1.8,7.2-2.2,11.2c-10.8,0.2-34.9-2.6-57.6-27.2c2.1-39.9,5.3-55.8,5.3-55.8
	l-11.3-9.7c0,0-26.6,5.6-42.9,21.4c-1.7-4-3.8-8.1-5.1-10.7c8.6-5.6,37.1-15.7,46.6-16.8c10.2-1.2,21.2,11.4,23.5,11.9
	c2.4,0.5,18.5-0.7,34.5-6.6c15.9-5.9,15.7-30.4,14.7-36.4c-0.1-0.9-0.5-2-1-3.2c0.6-0.8,1.2-1.7,1.7-2.6c1.8,4.1,3.3,7.2,3.6,7.3
	c1.1,0.2,15.3-12.1,18.2-9.5C585.1,293,585.3,293.3,585.5,293.7z"/>
<path fill="#FFFFFF" stroke="#000000" stroke-miterlimit="10" d="M569.6,254.5c-6.1,4.6-16,17.8-16,17.8s5.6,13.8,9.6,22.7
	c-0.5,0.9-1.1,1.8-1.7,2.6c-2.7-6.7-9.7-17-9.7-17s-23.5,3.3-38.7,3.3c-15.2,0-35.2-19.5-35.2-19.5s-11.4,2.9-19.2,13.5
	c-7.8,10.7-10.2,28.3-17.6,32.4c-7.4,4.1-8.3,17-9.5,17c0,0,0,0.1,0,0.4c-4.1-4.9-11.5-13.7-12.6-13.7c-1,0-17.8,4.9-26.8,7.6
	l1.1-13.6c0.8,1.6,2.2,2.7,10.8,2.3c12.8-0.7,20.8,1.2,29-13.1c8.3-14.3,16.6-30.7,33.2-33c5.7-8.1,8.5-15.7,8.5-15.7
	s-12.6-12.7-22.3-16.8c-0.1,0-0.2-0.1-0.3-0.1c0.6-1.4,2-2.5,3.1-3c0.5-0.3,0.9-0.5,1.2-0.6c0.1,0,0.1,0,0.2-0.1c0.1,0,0.1,0,0.1,0
	c1.7-0.6,3.8-0.7,5.8,0.8c5,3.4,24.6,31.7,39.2,38.3c14.6,6.6,20,10,20,10s6.1-1.6,17.3-4.3c11.2-2.7,0.3-24.1,1.9-24.6
	c1.5-0.5,3.7,1.6,4.7,2.8c1.1,1.2,8.4,4.8,8.4,4.8s10.8-15.9,12-17.2c0.9,0.4,2,0.9,3.1,1.3c1.1,0.7,2.4,1.3,3.8,1.8
	C572.9,242.1,575.5,250,569.6,254.5z"/>
<ellipse fill="none" stroke="#000000" stroke-miterlimit="10" cx="531.3" cy="312" rx="13" ry="15.8"/>
<ellipse fill="none" stroke="#000000" stroke-miterlimit="10" cx="532.7" cy="312.4" rx="9.6" ry="13.8"/>
</svg>
