<?xml version="1.0" encoding="utf-8"?>
<!-- Generator: Adobe Illustrator 25.2.0, SVG Export Plug-In . SVG Version: 6.00 Build 0)  -->
<svg version="1.1" baseProfile="tiny" id="Layer_1" xmlns="http://www.w3.org/2000/svg" xmlns:xlink="http://www.w3.org/1999/xlink"
	 x="0px" y="0px" viewBox="0 0 1000 1000" overflow="visible" xml:space="preserve">
<path fill="#FFFFFF" stroke="#000000" stroke-miterlimit="10" d="M590.54,467.8c-0.7,4.99-6.07,11.4-6.07,11.4s-4.64,5.35-6.42,8.2
	c-1.78,2.85,0.95,7.61,1.47,9.39c0.52,1.78-0.64,1.75-0.64,1.75l-5.79-6.86c0,0-1.6-11.32-0.98-12.56
	c0.46-0.92,8.39-8.4,12.52-12.25c1.46-1.37,2.45-2.28,2.45-2.28s0.28-0.26,0.79-0.7C589.42,464.29,590.88,465.31,590.54,467.8z"/>
<path fill="#FFFFFF" stroke="#010101" stroke-miterlimit="10" d="M594.67,481.81c-7.42,5.27-10.04,12.98-10.9,16.51
	c-1.65-0.53-3.3-1.08-4.92-1.67c0,0,0,0,0-0.01c0-0.23,0.02-3.09,1.76-6.66c0.25-0.53,0.54-1.07,0.87-1.62
	c1.37-2.27,3.45-4.69,6.63-6.86C589.95,481.54,592.16,481.64,594.67,481.81z"/>
<path fill="#FFFFFF" stroke="#010101" stroke-miterlimit="10" d="M600.48,482.29c-6.92,5.2-10.44,13.52-11.79,17.49
	c-1.65-0.44-3.28-0.93-4.92-1.45c0.86-3.54,3.48-11.25,10.9-16.51C596.47,481.93,598.41,482.08,600.48,482.29z"/>
<path fill="#FFFFFF" stroke="#010101" stroke-miterlimit="10" d="M608.81,483.29c-8.6,6.2-11.56,14.23-12.55,18.34
	c-2.48-0.53-5.03-1.16-7.58-1.86c1.35-3.96,4.87-12.29,11.79-17.49C603.08,482.54,605.88,482.87,608.81,483.29z"/>
<path fill="#FFFFFF" stroke="#010101" stroke-miterlimit="10" d="M616.55,484.57c-6.07,4.91-10.47,13.29-12.79,18.53
	c-2.4-0.42-4.91-0.91-7.48-1.47c0.98-4.1,3.94-12.14,12.55-18.34C611.3,483.65,613.89,484.06,616.55,484.57z"/>
<path fill="#FFFFFF" stroke="#010101" stroke-miterlimit="10" d="M624.31,486.24c-5.83,5.17-10.76,13.87-12.93,18.05
	c-2.34-0.32-4.9-0.71-7.62-1.19c2.33-5.24,6.72-13.62,12.79-18.53C619.07,485.05,621.67,485.6,624.31,486.24z"/>
<path fill="#FFFFFF" stroke="#010101" stroke-miterlimit="10" d="M626.86,486.87c1.17,1.77,2.03,3.16,2.63,4.32
	c-4.96,4.22-9.5,10.29-11.96,13.83c-1.77-0.19-3.85-0.43-6.15-0.73c2.17-4.17,7.11-12.88,12.93-18.05c0.75,0.18,1.5,0.36,2.26,0.55
	C626.67,486.82,626.76,486.84,626.86,486.87z"/>
<path fill="#FFFFFF" stroke="#010101" stroke-miterlimit="10" d="M581.99,481.46c0,0-2.38,2.18-3.6,5.75
	c-6.06-2.63-15.59-8.19-16.48-8.89c-0.55-0.44-2.73-0.59-4.97,0.01c0.11-2.36,0.96-5.9,4.72-8.08L581.99,481.46z"/>
<path fill="#FFFFFF" stroke="#000000" stroke-miterlimit="10" d="M464.47,144.7c-1.29-16.85,1.3-26.48,3.23-31.1
	c-14.34,1.48-28.67,16.31-29.14,31.04c-0.47,15.09,1.55,30.66,5.11,38.14c1.6,3.35,4.89,9.85,8.77,16.18
	c1.35,2.2,2.77,4.38,4.22,6.4c0,0,0,0,0.01,0.01c1.18,1.65,2.39,3.2,3.58,4.55l0.01,0.01c0.95,1.09,1.9,2.06,2.83,2.86
	c1.52,1.33,2.99,2.23,4.35,2.55c1.2,0.28,2.62,0.26,4.18-0.02C470.18,202.58,466.07,165.69,464.47,144.7z M463.4,172.42
	c-4.37,3.29-9.81,3.74-13.95,1.84c-4.14-1.9-4.41-7.6,0.94-8.17C455.73,165.51,464,171.96,463.4,172.42z"/>
<path fill="#FFFFFF" stroke="#000000" stroke-miterlimit="10" d="M495.48,124.09c-7.61-8.08-18.54-11.05-26.74-10.58
	c-0.35,0.02-0.69,0.05-1.04,0.09c-1.93,4.62-4.52,14.25-3.23,31.1c1.6,20.99,5.71,57.88,7.15,70.62c1.52-0.26,3.18-0.77,4.9-1.48
	c1.16-3.94,7.93-26.6,12.45-32.13c3.5-4.28,10.59-7.99,14.45-9.81c0.05-0.36,0.11-0.73,0.18-1.1c0.09-0.55,0.19-1.11,0.31-1.68
	c0.1-0.48,0.18-1.03,0.26-1.62c0.17-1.4,0.26-3.1,0.27-5C504.55,150.6,501.67,130.68,495.48,124.09z M491.38,169.09
	c-0.27,1.01-2.5,6-5.26,6s-13.28-1.87-13.28-1.87s9.09-8.14,13.28-8.26S491.64,168.08,491.38,169.09z"/>
<path fill="#FFFFFF" stroke="#000000" stroke-miterlimit="10" d="M503.42,171.9c-1.12,7.38-0.72,13.22-4.86,22.64
	c-0.49,1.11-1.12,2.24-1.89,3.36c-0.97,1.46-2.16,2.92-3.5,4.33c-1.35,1.43-2.85,2.82-4.44,4.13c-3.85,3.17-8.21,5.85-12.21,7.48
	c1.16-3.94,7.93-26.6,12.45-32.13C492.47,177.43,499.56,173.72,503.42,171.9z"/>
<path fill="#FFFFFF" stroke="#000000" stroke-miterlimit="10" d="M444.2,195.86c-3.01,3.57-9.35,11.71-9.5,16.99
	c-0.06,2.1-1.1,4.5-2.53,6.83c-3.25,5.35-8.52,10.3-8.52,10.3s-0.77-0.25-1.91-0.77l-4.25-4.57l-1.12,1.18
	c-1.76-1.53-3.34-3.52-4.05-6.02c1.51-1.28,3.03-2.61,4.54-3.96h0.01c0.52-0.47,1.03-0.93,1.55-1.4c0.01-0.01,0.01-0.01,0.01-0.01
	c9.71-8.76,18.63-17.65,22.07-18.49C441.66,195.66,442.92,195.66,444.2,195.86z"/>
<path fill="#FFFFFF" stroke="#000000" stroke-miterlimit="10" d="M432.17,219.68c1.43-2.33,2.47-4.73,2.53-6.83
	c0.15-5.28,6.49-13.42,9.5-16.99c3.03,0.45,6.15,1.94,8.24,3.1c1.35,2.2,2.77,4.38,4.22,6.4c0,0,0,0,0.01,0.01
	C457.36,210.52,455.94,221.03,432.17,219.68z"/>
<path fill="#FFFFFF" stroke="#000000" stroke-miterlimit="10" d="M415.93,215.71c-2.29,1.28-5.81,3.5-9.09,6.64
	c-0.64,0.62-1.19,1.7-1.66,3.14v0.01c-1.07,3.35-1.68,8.62-2.02,14.26l-17.65,18.63l0.32,0.31c-2.77,0.04-5.22-0.03-5.84-0.31
	c-0.89-0.41-6.17-6.9-10.66-12.55c4.4-10.85,15.97-27.73,22.07-30.3C396.18,213.52,408.41,214.71,415.93,215.71z"/>
<path fill="#FFFFFF" stroke="#000000" stroke-miterlimit="10" d="M398.1,270.63c-0.02,0.84-0.05,1.88-0.08,3.08v0.01
	c-0.38,0.66-0.75,1.34-1.12,2.08v0.01c-0.89,1.79-1.73,3.78-2.41,5.94c-2.86,9.03-18.69,20.59-18.69,20.59s-4.9-2.5-7.84-7.31
	s-2.11-34.66-0.21-44.29c0.28-1.39,0.82-3.06,1.58-4.9c4.49,5.65,9.77,12.14,10.66,12.55c0.62,0.28,3.07,0.35,5.84,0.31
	L398.1,270.63z"/>
<path fill="#FFFFFF" stroke="#000000" stroke-miterlimit="10" d="M411.57,343.57c-6.28,7.86-16.43,16.6-16.43,16.6
	s-0.11,0.28-0.31,1.59c-6.39,1.49-23.84,5.05-34.88,2.36c0.6-11-3.22-17.21-5.78-20.1c3.44-4.87,13.99-19.96,15.48-24.13
	c0,0,1.11,0.58,2.87,0.76h0.01l8.89,11.18l21.92,10.96L411.57,343.57z"/>
<path fill="#FFFFFF" stroke="#000000" stroke-miterlimit="10" d="M394.83,361.76c-0.31,2-0.82,6.4-1.47,15.87
	c-1.07,15.69-12.66,43.13-25.25,55.07c-12.6,11.94-15.03,27.8-15.03,27.8s-0.01,0-0.04-0.01c-0.54-0.18-6.36-2.12-13.75-3.94
	c1.63-6.69,4.65-19.86,3.99-23.67c-0.89-5.17,6.29-15.44,7.72-32.08c1.43-16.63,12.48-17.58,9.62-20.2
	c-2.02-1.85-4.21-5.18-5.32-6.97c1.31-0.12,2.4-0.29,3.3-0.39c0.79-3.35,1.21-6.38,1.35-9.12
	C370.99,366.81,388.44,363.25,394.83,361.76z"/>
<path fill="#FFFFFF" stroke="#000000" stroke-miterlimit="10" d="M351,400.8c-1.43,16.64-8.61,26.91-7.72,32.08
	c0.66,3.81-2.36,16.98-3.99,23.67c-0.97-0.24-1.97-0.48-2.98-0.71c0.55-4.19,2.18-18.59-0.7-23.14c-3.38-5.34,3.92-19.42,3.92-19.42
	s-3.03-2.5-3.03-12.48c0-5.12-3.89-9.39-7.69-12.34c0.7-3.71,1.39-6.85,2.08-9.13c1.01-3.34,2.68-6.88,4.66-10.35
	c9.17,4.95,15.55,5.06,19.75,4.65c1.11,1.79,3.3,5.12,5.32,6.97C363.48,383.22,352.43,384.17,351,400.8z"/>
<path fill="#FFFFFF" stroke="#000000" stroke-miterlimit="10" d="M359.95,364.12c-0.14,2.74-0.56,5.77-1.35,9.12
	c-0.9,0.1-1.99,0.27-3.3,0.39c-4.2,0.41-10.58,0.3-19.75-4.65c6.89-12.08,17.53-23.43,17.53-23.43s0.4-0.56,1.09-1.53
	C356.73,346.91,360.55,353.12,359.95,364.12z"/>
<path fill="#FFFFFF" stroke="#000000" stroke-miterlimit="10" d="M335.61,432.7c2.88,4.55,1.25,18.95,0.7,23.14
	c-0.59-0.14-1.19-0.27-1.79-0.4c-7.06-1.52-14.77-2.65-20.47-2.06c6.65-5.75,10.87-44.23,14.76-64.92c3.8,2.95,7.69,7.22,7.69,12.34
	c0,9.98,3.03,12.48,3.03,12.48S332.23,427.36,335.61,432.7z"/>
<path fill="#FFFFFF" stroke="#000000" stroke-miterlimit="10" d="M426.8,632.72c-0.13,2.04-0.48,4.41-0.98,6.92
	c-2.28,11.53-7.57,26.11-7.57,26.11s-8.67,10.09-26.31-3.51c-3.15-4.25-8.42-8.19-10.52-12.41c-3.33-6.65,0-36.83,0-36.83
	l9.98-11.17l5.61-0.87l3.5-0.55C400.51,600.41,423,622.98,426.8,632.72z"/>
<path fill="#FFFFFF" stroke="#000000" stroke-miterlimit="10" d="M458.84,663.68c-6.21,1.46-13.82,12.1-17.89,18.36
	c-1-5.84-2.24-11.21-3.57-11.95c-3.03-1.69-33.06,23.97-38.68,22.19c-0.5-0.16-1.02-0.44-1.56-0.84
	c-1.62-8.66-2.79-15.62-2.96-19.25c-0.05-0.96-0.03-1.7,0.07-2.16c0.61-2.78-0.5-5.34-2.31-7.79c17.64,13.6,26.31,3.51,26.31,3.51
	s5.29-14.58,7.57-26.11c5.61,0.3,17.4,0.33,26.47-3.8c0.47,0.49,1.07,1.17,1.84,2.11C457.54,642.16,455.87,654.5,458.84,663.68z"/>
<path fill="#FFFFFF" stroke="#000000" stroke-miterlimit="10" d="M529.99,548.42c-15.45,6.43-46.59,14.26-56.11,16.46
	c-2.54-5.43-4.17-9.64-4.31-11.29c-0.17-2.03-0.94-3.31-1.92-3.8c1.93-5.05,9.95-25.15,20.58-38.97
	c6.44-8.38,15.44-22.08,23.11-32.77C512.77,494.71,517.45,535.08,529.99,548.42z"/>
<path fill="#FFFFFF" stroke="#000000" stroke-miterlimit="10" d="M574.54,677.8c-6.95,6.6-16.21,19.28-22.39,21.34
	c-5.68,1.89-16.29-4.84-22.79-9.59c-0.45-5.11-0.87-10.79-0.62-11.68c0.04-0.15-0.07-0.42-0.3-0.78
	c11.93,0.58,25.67-2.19,25.67-2.19l6.95-45.09c0,0-8.38-17.29-18.36-19.78c0,5.88-15.86,14.26-16.39,14.79
	c-0.47,0.47-18.61-2.39-23.55-3.18c-1.01-5.6-1.78-10.87-2.06-15.06c-6.93-6.14-15.74-20.29-22.22-32.52
	c12.98-2.11,44.84-8.02,57.83-16.96c0.83,1.81,1.71,3.28,2.65,4.28c6.21,6.63,11.2,6.72,14.5,5.59v1.36
	c0,31.36,15.2,64.63,15.2,64.63l4.76,7.6l2.05,4.14v0.01l4.22,8.51C578.55,659.44,573.95,671.06,574.54,677.8z"/>
<path fill="#FFFFFF" stroke="#000000" stroke-miterlimit="10" d="M561.06,629.81l-6.95,45.09c0,0-13.74,2.77-25.67,2.19
	c-2.31-3.46-16.57-15.38-16.57-15.38s-5.84-21.83-9.11-40.07c4.94,0.79,23.08,3.65,23.55,3.18c0.53-0.53,16.39-8.91,16.39-14.79
	C552.68,612.52,561.06,629.81,561.06,629.81z"/>
<path fill="#FFFFFF" stroke="#000000" stroke-miterlimit="10" d="M536.31,557.1c-12.99,8.94-44.85,14.85-57.83,16.96
	c-1.73-3.26-3.29-6.38-4.6-9.18c9.52-2.2,40.66-10.03,56.11-16.46c1.07-0.45,2.07-0.89,2.97-1.32
	C533.95,550.94,535.07,554.41,536.31,557.1z"/>
<path fill="#FFFFFF" stroke="#000000" stroke-miterlimit="10" d="M465.77,695.22c0,0-9.27,16.16-14.02,33.5
	c-1.36,4.99-2.4,11.77-3.18,18.9c0-3.57-16.36,4.27-16.36,4.27s2.14-19.96,5.52-25.66c3.39-5.71,6.32-20.28,5.35-28.34
	c0,0,0-0.03-0.01-0.07c-0.09-0.85-0.91-8.65-2.12-15.78c4.07-6.26,11.68-16.9,17.89-18.36c0.55,1.7,1.25,3.28,2.18,4.69
	C466.96,677.4,465.77,695.22,465.77,695.22z"/>
<path fill="#FFFFFF" stroke="#000000" stroke-miterlimit="10" d="M460.18,570.76c-0.22,1.37-0.45,2.78-0.67,4.21
	c-18.1,0.23-61.49-11.67-70.92-14.32c-1.56-5.36-2.95-11.41-3.78-18.38C393.4,548.53,424.71,569.53,460.18,570.76z"/>
<path fill="#FFFFFF" stroke="#000000" stroke-miterlimit="10" d="M490.78,423.31c-12.73,7.09-29.68,1.02-29.68,1.02V400.8
	c6.34-0.6,13.16-0.59,18.34-0.44c0.07,1.28,0.17,2.36,0.3,3.21c0.66-0.74,1.61-1.81,2.76-3.1c3.35,0.15,5.49,0.33,5.49,0.33
	s0,0,0.01-0.01C488.48,404.78,489.63,414.16,490.78,423.31z"/>
<path fill="#FFFFFF" stroke="#000000" stroke-miterlimit="10" d="M534.6,345.69c-0.24,1.34-0.93,5.34-1.84,10.51v0.01
	c-0.74,4.16-1.62,9.07-2.51,13.98c-0.84-0.63-1.71-1.35-2.6-2.14c-7.07-6.19-15.41-16.14-18.54-19.98l9-12.85l0.04-0.23
	C522.55,338.48,529.16,343.4,534.6,345.69z"/>
<path fill="#FFFFFF" stroke="#000000" stroke-miterlimit="10" d="M526.72,399.59c-0.29,14.74,0.25,34.3,0.69,46.85
	c-0.98-1.65-2-3.27-3.06-4.86c0.26-11.1-1.79-40.78-1.79-40.78s-1.18-5.58-2.85-6.3c-1.2-0.52-6.98-0.28-13.55-0.12
	c10.52-10.67,19.17-22.95,21.49-26.33c0.89,0.79,1.76,1.51,2.6,2.14c-0.79,4.34-1.6,8.66-2.34,12.43
	C527.23,386.1,526.87,392.24,526.72,399.59z"/>
<path fill="#FFFFFF" stroke="#000000" stroke-miterlimit="10" d="M606.66,317.31c-3.23-0.39-6.57,0.28-9.84,1.37
	c-9.12-6.66-17.6-20.39-21.69-27.43c0.18,0.11,0.36,0.2,0.54,0.3c5.2,2.75,9.43,1.82,12.77-0.66c6.84-5.09,9.93-16.74,9.93-16.74
	s1.06-4.76,2.08-11.34c4.11,7.99,9.11,18.38,10.51,24.29C612.75,294.63,608.96,309.49,606.66,317.31z"/>
<path fill="#FFFFFF" stroke="#000000" stroke-miterlimit="10" d="M620.43,344.32c-6.55,2.76-13.57,8.02-18.11,17.99
	c-3.34,7.08-5.76,12.65-7.51,16.99c-4.17,10.36-4.52,13.66-4.52,13.66s-11.18-19.73-18.86-27.46c-0.3-3.89-0.34-7.79-0.03-11.75
	c-9.57-8.08-16.39-17.2-21.26-26.21c-7.57-13.98-10.46-27.68-11.67-36.75c10.41,10.12,34.36,32.99,39.34,34.09
	c4.39,0.98,11.5-3.71,19.01-6.2c2.73,1.99,5.52,3.35,8.26,3.71c0,0,4.99,8.19,5.88,14.97C615.01,339.8,618.06,342.05,620.43,344.32z
	"/>
<path fill="#FFFFFF" stroke="#000000" stroke-miterlimit="10" d="M586.9,452.22c-0.38-11.94-1.56-30.46-5.17-42.86
	c-4.49-15.42-9.19-29.52-10.3-43.86c7.68,7.73,18.86,27.46,18.86,27.46S591.04,437.86,586.9,452.22z"/>
<path fill="#FFFFFF" stroke="#000000" stroke-miterlimit="10" d="M631.1,434.13c-3.21,8.2-1.07,28.16-1.07,28.16
	s1.61,2.11-3.71-0.69c-1.76-0.93-4.28-2.4-7.87-4.66c-6.3-3.97-13.08-3.15-18.72-0.96c-3.31,1.28-6.22,3.03-8.41,4.55
	c-2.64,1.84-4.24,3.36-4.24,3.36s0.04-4.22-0.14-10.54c5.18-5.3,12.24-13.14,13.56-17.85c2.14-7.61,5.23-17.35,8.8-24.72
	c3.15-6.52,12.47-25.93,24.47-32.41c0.17,0.05,0.34,0.1,0.51,0.16C638.03,397.83,634.04,426.61,631.1,434.13z"/>
<path fill="#FFFFFF" stroke="#000000" stroke-miterlimit="10" d="M634.2,378.14c-0.14,0.07-0.28,0.15-0.43,0.23
	c-13.84-4-31.67-0.73-38.96,0.93c1.75-4.34,4.17-9.91,7.51-16.99c4.54-9.97,11.56-15.23,18.11-17.99
	c7.66,7.32,8.28,14.79,12.63,29.21C633.5,374.99,633.88,376.53,634.2,378.14z"/>
<path fill="#FFFFFF" stroke="#000000" stroke-miterlimit="10" d="M520.66,195.2c-0.92-0.72-1.42-1.13-1.42-1.13
	s-2.93,1.28-4.93,5.62c0.64-8.12,4.12-22.38,4.21-23.32c0.06-0.55-3.46-2.79-7.27-4.99c-2.56-1.48-5.25-2.94-7.08-3.88
	c0.17-1.4,0.26-3.1,0.27-5c4.92,2.81,15.53,8.91,18.6,10.9C526.39,175.57,523.2,187.23,520.66,195.2z"/>
<path fill="#FFFFFF" stroke="#000000" stroke-miterlimit="10" d="M421.19,315.61c-1.09,6.83-3.09,17.01-5.93,22.5
	c-0.88-5.19-1.76-8.42-1.76-8.42c-0.66-1.54-1.84-3.65-3.27-6l5.58,1.32v-9.4H421.19z"/>
<path fill="#FFFFFF" stroke="#000000" stroke-miterlimit="10" d="M481.05,350.91c-0.07,1.1-0.15,2.33-0.23,3.66
	c-5.67-3.76-18.67-16.41-30.97-17.1c-8.35-0.47-16,4.86-20.79,9.54c-0.77-10.38-1.66-19.19-2.1-23.33l0.79,1.33h8.38l3.32-7.97
	l12.54,14.03l5.75-5.03C460.76,329.35,470.65,340.12,481.05,350.91z"/>
<path fill="#FFFFFF" stroke="#000000" stroke-miterlimit="10" d="M550.14,327.54c-0.46,0.59-0.92,1.18-1.38,1.76
	c-1.1,1.39-2.21,2.73-3.28,4.01c-4.63,5.5-8.76,9.8-10.23,11.31c-0.37,0.38-0.57,0.58-0.57,0.58s-0.03,0.17-0.08,0.49
	c-5.44-2.29-12.05-7.21-16.45-10.7l1.21-6.37l16.44-15.68l-0.12-6.3c0.03-0.05,0.06-0.09,0.07-0.12c0.1-0.23,0.04-1.31-0.13-2.91
	c-0.73-6.85-3.43-23.28-3.43-23.28c-6.05-30.6-19.02-32.54-21.11-32.65c-0.16-2.1-0.72-4.63-2.24-6.74c-0.72-1-1.99-2.34-3.6-3.83
	l7.86-7.9c0.26,0.93,0.56,1.6,0.91,1.93c2.02,1.9,7.37,2.97,7.37,2.97s-3-9.94,0.05-18.57c2.28-6.45,6.35-10.99,9.55-13.03
	c0.84,0.56,1.73,1.11,2.64,1.68c0.01,0,0.01,0.01,0.02,0.01c2.8,1.74,5.88,3.54,9.16,5.24c0.48,0.25,0.97,0.5,1.46,0.75
	c-0.44,0.57-0.9,1.19-1.36,1.87c-0.94,1.37-1.89,2.95-2.76,4.72c-0.18,0.35-0.35,0.71-0.51,1.08c-0.17,0.37-0.33,0.75-0.49,1.13
	s-0.31,0.77-0.46,1.17c-0.18,0.47-0.34,0.94-0.49,1.42c-0.09,0.27-0.17,0.55-0.25,0.83c-0.42,1.4-0.75,2.87-0.97,4.41
	c-0.05,0.33-0.09,0.66-0.13,1c-0.37,3.32-0.23,6.93,0.69,10.8c-4.99,4.46-6.23,10.7-4.09,13.19c1.21,1.42,2.18,4.87,3.41,7.76v0.08
	c-0.2,6.97,0.28,16.67,0.68,21.39c0.14,1.62,0.31,5.06,0.94,9.75C539.68,299.86,542.57,313.56,550.14,327.54z"/>
<path fill="#FFFFFF" stroke="#000000" stroke-miterlimit="10" d="M493.17,202.23c-1.73,5.62-5.26,16.58-8.26,22.39h-0.01
	c-0.98-0.08-2.12,0.06-3.38,0.36l7.21-18.62C490.32,205.05,491.82,203.66,493.17,202.23z"/>
<path fill="#FFFFFF" stroke="#000000" stroke-miterlimit="10" d="M530.98,202.51c-3.2,2.04-7.27,6.58-9.55,13.03
	c-3.05,8.63-0.05,18.57-0.05,18.57s-5.35-1.07-7.37-2.97c-0.35-0.33-0.65-1-0.91-1.93c-1.2-4.4-1.3-14.64-0.52-22.78
	c0.03-0.32,0.07-0.64,0.11-0.94c0.32-2.35,0.91-4.25,1.61-5.78c0.01-0.01,0.01-0.01,0.01-0.02c2-4.34,4.93-5.62,4.93-5.62
	s0.5,0.41,1.42,1.13C522.55,196.66,526.21,199.41,530.98,202.51z"/>
<path fill="#FFFFFF" stroke="#000000" stroke-miterlimit="10" d="M588.44,290.89c-3.34,2.48-7.57,3.41-12.77,0.66
	c-0.18-0.1-0.36-0.19-0.54-0.3c-15.57-8.51-26.37-27.32-26.37-27.32s-5.17,0.54-8.47,0c-1.43-0.23-2.51-2.07-3.44-4.28v-0.08
	c-1.23-2.89-2.2-6.34-3.41-7.76c-2.14-2.49-0.9-8.73,4.09-13.19c-3.08-12.91,2.59-23.07,6.73-28.43c0.55,0.28,1.11,0.56,1.68,0.83
	c0.13,0.07,0.26,0.13,0.39,0.19c6.52-2.13,12.38-1.63,16.95-0.38c-3.17,5.55-8.73,18.29-3.17,32.5
	c7.13,18.22,16.16,27.73,19.72,36.05C581.57,283.44,585.12,287.66,588.44,290.89z"/>
<path fill="#FFFFFF" stroke="#000000" stroke-miterlimit="10" d="M600.45,262.81c-1.02,6.58-2.08,11.34-2.08,11.34
	s-3.09,11.65-9.93,16.74c-3.32-3.23-6.87-7.45-8.61-11.51c-3.56-8.32-12.59-17.83-19.72-36.05c-5.56-14.21,0-26.95,3.17-32.5
	c6.1,1.68,9.9,4.71,9.9,4.71s25.19,2.77,28.28,16.79C603.27,240.55,601.89,253.5,600.45,262.81z"/>
<path fill="#FFFFFF" stroke="#000000" stroke-miterlimit="10" d="M596.82,318.68c-7.51,2.49-14.62,7.18-19.01,6.2
	c-4.98-1.1-28.93-23.97-39.34-34.09c-0.63-4.69-0.8-8.13-0.94-9.75c-0.4-4.72-0.88-14.42-0.68-21.39c0.93,2.21,2.01,4.05,3.44,4.28
	c3.3,0.54,8.47,0,8.47,0s10.8,18.81,26.37,27.32C579.22,298.29,587.7,312.02,596.82,318.68z"/>
<path fill="#FFFFFF" stroke="#000000" stroke-miterlimit="10" d="M431.79,245.78l-28.87,27.94l-2.91-3.22
	c1.69-2.51,3.03-3.96,3.03-3.96s-0.01-0.28-0.03-0.8L427.16,241L431.79,245.78z"/>
<path fill="#FFFFFF" stroke="#000000" stroke-miterlimit="10" d="M542.97,483.02c0,0-3.31,4.34-6.85,9.44
	c-3.71-8.38-11.75-19.06-11.75-19.06s0.57-3.57,1.64-10.82c-1.91-1.35-7.75,5.84-14.67,15.47c-7.67,10.69-16.67,24.39-23.11,32.77
	c-10.63,13.82-18.65,33.92-20.58,38.97c-1.25-0.65-2.83-0.02-3.92,1.91c-4.76-12.29-31.94-30.04-36.69-36.48
	c-4.99-6.77-17.11-36-20.67-41.88c-2.07-3.41-6.06-4.72-9.04-5.22c0.74-1.38,1.19-2.09,1.19-2.09l0.2-2.28
	c4.89,0.04,13.79-5.78,16.25-9.19c4.29,4.73,14.83,14.27,31.32,15.87c1.04,0.1,2.09,0.17,3.17,0.23
	c21.13,0.97,50.03-7.6,69.94-24.66h0.01c2.3-0.13,3.92-0.24,4.34-0.29c0.35-0.04,0.53-1.61,0.6-4.13c1.06,1.59,2.08,3.21,3.06,4.86
	C534.2,457.78,539.23,470.28,542.97,483.02z"/>
<path fill="#FFFFFF" stroke="#000000" stroke-miterlimit="10" d="M452.47,608.01c-3.35,6.7-2.09,24.94-1.93,27.12
	c0.01-0.34,0.21-0.84,1.75,0.71c-9.07,4.13-20.86,4.1-26.47,3.8c0.5-2.51,0.85-4.88,0.98-6.92c-3.8-9.74-26.29-32.31-26.29-32.31
	l-3.5,0.55c0.22-3.03,0.42-5.74,0.56-7.92c0.28-4.21-0.83-8.56-2.52-13.53c-1.81-5.36-4.3-11.45-6.46-18.86
	c9.43,2.65,52.82,14.55,70.92,14.32C457.34,588.31,454.57,603.8,452.47,608.01z"/>
<path fill="#FFFFFF" stroke="#000000" stroke-miterlimit="10" d="M463.73,551.7c-0.46,0.8-0.83,1.83-1.05,3.08
	c-0.41,2.3-1.33,8.53-2.5,15.98c-35.47-1.23-66.78-22.23-75.37-28.49c-0.63-5.25-0.94-11.03-0.78-17.43
	c0.35-14.05,2.47-25.82,4.99-35.05c2.98-10.94,6.51-18.31,8.31-21.67c2.98,0.5,6.97,1.81,9.04,5.22
	c3.56,5.88,15.68,35.11,20.67,41.88C431.79,521.66,458.97,539.41,463.73,551.7z"/>
<path fill="#FFFFFF" stroke="#000000" stroke-miterlimit="10" d="M396.9,275.81c-1.37,11.48-9.03,34.36-14.65,40.52
	c-3.66,3.99-7.3,4.55-9.72,4.32h-0.01c-1.76-0.18-2.87-0.76-2.87-0.76c-1.07-4.45,6.15-17.55,6.15-17.55s15.83-11.56,18.69-20.59
	C395.17,279.59,396.01,277.6,396.9,275.81z"/>
<path fill="#FFFFFF" stroke="#000000" stroke-miterlimit="10" d="M416.37,225.82l-13.21,13.94c0.34-5.64,0.95-10.91,2.02-14.26
	v-0.01c0.47-1.44,1.02-2.52,1.66-3.14c3.28-3.14,6.8-5.36,9.09-6.64c0.32,0.04,0.63,0.08,0.93,0.13c-1.51,1.35-3.03,2.68-4.54,3.96
	C413.03,222.3,414.61,224.29,416.37,225.82z"/>
<path fill="#FFFFFF" stroke="#000000" stroke-miterlimit="10" d="M430,238.09l-2.84,2.91l-24.15,24.74l-3.79,3.88l-1.05-1.17
	c0,0-0.03,0.81-0.07,2.18l-12.27-11.93l-0.32-0.31l17.65-18.63l13.21-13.94l1.12-1.18l4.25,4.57l5.59,6.01l1.99,2.14L430,238.09z"/>
<polygon fill="#FFFFFF" stroke="#000000" stroke-miterlimit="10" points="448.6,260.29 444.22,264.42 418.65,288.53 416.45,290.61 
	401.77,274.83 402.92,273.72 431.79,245.78 433.99,243.65 "/>
<polygon fill="#FFFFFF" stroke="#000000" stroke-miterlimit="10" points="469.54,284.36 438.36,312.94 426.68,299.13 427.94,298.09 
	428.06,297.99 428.07,297.99 429.91,296.47 454.49,275.38 458.14,272.25 461.42,275.73 "/>
<polygon fill="#FFFFFF" stroke="#000000" stroke-miterlimit="10" points="483.71,303.32 477.26,308.97 457.74,326.04 451.99,331.07 
	439.45,317.04 438.5,315.97 471.47,286.86 482.77,302.05 "/>
<path fill="#FFFFFF" stroke="#000000" stroke-miterlimit="10" d="M535.68,306.64c-1.19,1.78-15.08,14.05-15.08,14.05
	s-15.56,0.76-19.44,0.27c-0.53-0.06-0.85-0.15-0.87-0.27c-0.18-0.98,2.14-10.78,2.14-10.78l-11.77-0.94l-4.81,11.72l-8.59-11.72
	l6.45-5.65l-0.94-1.27l49.42-21.72c0,0,2.7,16.43,3.43,23.28L535.68,306.64z"/>
<path fill="#FFFFFF" stroke="#000000" stroke-miterlimit="10" d="M535.8,312.94l-16.44,15.68l-1.21,6.37l-0.04,0.23l-9,12.85
	l-0.98,1.41l-11.05-11.05l4.08-17.47c3.88,0.49,19.44-0.27,19.44-0.27s13.89-12.27,15.08-14.05L535.8,312.94z"/>
<path fill="#FFFFFF" stroke="#000000" stroke-miterlimit="10" d="M532.19,280.33l-49.42,21.72l-11.3-15.19l-32.97,29.11l0.95,1.07
	l-3.32,7.97h-8.38l-0.79-1.33v-0.01l-4.79-8.06h-6.36v9.4l-5.58-1.32c-4.43-7.31-11.25-16.95-12.06-19.07
	c-0.38-0.98-0.49-5.72-0.48-11.47c13.9,0.24,15.98,13.91,15.98,13.91l8.5-0.71l1.73-6.95l4-1.35l0.04,0.04l-1.26,1.04l11.68,13.81
	l31.18-28.58l-8.12-8.63l47.87-27.2l1.51-0.86c0,0,0.1,0,0.28,0.01C513.17,247.79,526.14,249.73,532.19,280.33z"/>
<path fill="#FFFFFF" stroke="#000000" stroke-miterlimit="10" d="M509.29,248.53l-47.87,27.2l-3.28-3.48l-3.65,3.13l-10.27-10.96
	l4.38-4.13l-14.61-16.64l-2.2,2.13l-4.63-4.78l2.84-2.91l-0.68-0.73c3.72-3.4,8.83-9.75,12.16-9.61c4.27,0.18,11.22,9.45,17.82,8.91
	c6.59-0.53,21.2-9.98,27.44-8.19C492.6,230.14,507.92,239.69,509.29,248.53z"/>
<path fill="#FFFFFF" stroke="#000000" stroke-miterlimit="10" d="M488.73,206.36l-7.21,18.62c-3.66,0.89-8.28,3.11-12.43,5.06
	l-6-17.25c1.52,1.33,2.99,2.23,4.35,2.55c1.2,0.28,2.62,0.26,4.18-0.02c1.52-0.26,3.18-0.77,4.9-1.48
	C480.52,212.21,484.88,209.53,488.73,206.36z"/>
<path fill="#FFFFFF" stroke="#000000" stroke-miterlimit="10" d="M511.08,247.68c-0.18-0.01-0.28-0.01-0.28-0.01l-1.51,0.86
	c-1.37-8.84-16.69-18.39-22.55-20.06c-6.24-1.79-20.85,7.66-27.44,8.19c-6.6,0.54-13.55-8.73-17.82-8.91
	c-3.33-0.14-8.44,6.21-12.16,9.61l-1.99-2.14c4-4,12.31-12.14,13.79-12.28c1.96-0.18,14.08,9.8,18.18,10.52
	c1.32,0.23,3.77-0.68,6.72-2.01c0.98-0.43,2.01-0.91,3.07-1.41c4.15-1.95,8.77-4.17,12.43-5.06c1.26-0.3,2.4-0.44,3.38-0.36h0.01
	c0.08,0,0.15,0.01,0.23,0.02c5.1,0.63,14.59,7.39,20.1,12.47c1.61,1.49,2.88,2.83,3.6,3.83
	C510.36,243.05,510.92,245.58,511.08,247.68z"/>
<path fill="#FFFFFF" stroke="#000000" stroke-miterlimit="10" d="M513.1,229.21l-7.86,7.9c-5.51-5.08-15-11.84-20.1-12.47
	c-0.08-0.01-0.15-0.02-0.23-0.02c3-5.81,6.53-16.77,8.26-22.39c1.34-1.41,2.53-2.87,3.5-4.33l6.04,2.86l6.78,3.21l3.2,1.52
	c-0.04,0.3-0.08,0.62-0.11,0.94C511.8,214.57,511.9,224.81,513.1,229.21z"/>
<path fill="#FFFFFF" stroke="#000000" stroke-miterlimit="10" d="M469.09,230.04c-1.06,0.5-2.09,0.98-3.07,1.41l-5.76-21.52
	c0.95,1.09,1.9,2.06,2.83,2.86L469.09,230.04z"/>
<path fill="#FFFFFF" stroke="#000000" stroke-miterlimit="10" d="M466.02,231.45c-2.95,1.33-5.4,2.24-6.72,2.01
	c-4.1-0.72-16.22-10.7-18.18-10.52c-1.48,0.14-9.79,8.28-13.79,12.28l-5.59-6.01c1.14,0.52,1.91,0.77,1.91,0.77s5.27-4.95,8.52-10.3
	c23.77,1.35,25.19-9.16,24.5-14.31c1.18,1.65,2.39,3.2,3.58,4.55l0.01,0.01L466.02,231.45z"/>
<path fill="#FFFFFF" stroke="#000000" stroke-miterlimit="10" d="M502.97,446.51c-4.89,0.01-8.78-0.18-9.04-0.8
	c-0.03-0.08-0.08-0.27-0.14-0.56c-0.38-1.91-1.23-8.13-2.18-15.43c-0.27-2.07-0.55-4.23-0.83-6.41c-1.15-9.15-2.3-18.53-2.78-22.52
	v-0.01c0.07-0.31,1.24-4.56,6.91-5.89C496.95,401.44,503.26,423.67,502.97,446.51z"/>
<path fill="#FFFFFF" stroke="#000000" stroke-miterlimit="10" d="M420.09,412.21c-0.09,2.25-0.81,11.24-1.7,20.31
	c-0.48,4.81-1.01,9.64-1.52,13.51c-0.51,3.85-1,6.74-1.41,7.7c-0.11,0.25-0.27,0.53-0.49,0.83c-2.46,3.41-11.36,9.23-16.25,9.19
	l5.51-62.59c0,0,0.1-0.09,0.28-0.27c3.18,0.36,6.67,1.23,9.16,3.12C419.55,408.47,420.27,407.57,420.09,412.21z"/>
<path fill="#FFFFFF" stroke="#000000" stroke-miterlimit="10" d="M404.51,400.89c-0.18,0.18-0.28,0.27-0.28,0.27l-5.51,62.59
	c-0.95-0.01-1.76-0.24-2.33-0.75c-3.1-2.8-7.28-6.2-8.84-9.21c-0.33-0.64-0.55-1.25-0.61-1.84c-0.09-0.81-0.2-3.98-0.17-8.37
	c0.06-13.99,1.49-40.43,9.62-42.78C396.39,400.8,400.17,400.39,404.51,400.89z"/>
<path fill="#FFFFFF" stroke="#000000" stroke-miterlimit="10" d="M573.09,550.98c0.09,1.01-4.81,10.4-6.59,13.16
	c-1.79,2.76-3.84,1.16-10.79,1.78c-0.63,0.37-1.38,0.75-2.25,1.05c-0.05-17.18-1.01-42.17-6.42-67.72
	c-1.14-5.41-2.49-10.84-4.07-16.23c0,0,9.27,0.65,16.66,4.84c7.4,4.19,7.76,24.86,10.25,28.96c2.5,4.1,2.59,20.32,2.59,20.32
	s-2.59-0.27-3.39,0.89c-0.18,0.26-0.08,1.02,0.19,2.05C570.19,543.58,573.02,550.2,573.09,550.98z"/>
<path fill="#FFFFFF" stroke="#000000" stroke-miterlimit="10" d="M553.46,566.97c-3.3,1.13-8.29,1.04-14.5-5.59
	c-0.94-1-1.82-2.47-2.65-4.28c-1.24-2.69-2.36-6.16-3.35-10c-3.89-15.13-5.79-36.21-5.23-39.9c0.36-2.39,3.53-7.58,6.89-12.54
	c0.5-0.75,1-1.48,1.5-2.2c3.54-5.1,6.85-9.44,6.85-9.44c1.58,5.39,2.93,10.82,4.07,16.23C552.45,524.8,553.41,549.79,553.46,566.97z
	"/>
<path fill="#FFFFFF" stroke="#000000" stroke-miterlimit="10" d="M527.73,507.2c-0.56,3.69,1.34,24.77,5.23,39.9
	c-0.9,0.43-1.9,0.87-2.97,1.32c-12.54-13.34-17.22-53.71-18.65-70.37c6.92-9.63,12.76-16.82,14.67-15.47
	c-1.07,7.25-1.64,10.82-1.64,10.82s8.04,10.68,11.75,19.06c-0.5,0.72-1,1.45-1.5,2.2C531.26,499.62,528.09,504.81,527.73,507.2z"/>
<path fill="#FFFFFF" stroke="#000000" stroke-miterlimit="10" d="M594.39,686.64c-0.36,1.81-27.45,39.59-30.48,39.59
	c-0.03,0-0.06,0-0.09-0.01c-3.1-0.28-26.84-14.63-34.47-21.07c-0.9-0.76-1.58-1.41-1.97-1.91c-3.75-4.81-7.85-17.82-3.57-18
	c0,0,2.24,1.9,5.55,4.31c6.5,4.75,17.11,11.48,22.79,9.59c6.18-2.06,15.44-14.74,22.39-21.34c2.66-2.53,4.98-4.17,6.66-3.97
	C587.26,674.54,594.74,684.84,594.39,686.64z"/>
<path fill="#FFFFFF" stroke="#000000" stroke-miterlimit="10" d="M606.81,859.24c-0.13,1.45-0.37,2.9-0.72,4.32
	c-1.48,5.96-5.08,11.43-12.71,13.92c-21.15,6.89-39.21,0-39.21,0s-11.41-17.59-1.43-28.76c0,0,3.92-2.25,10.93,3.33
	s8.32,4.87,8.44,4.87s17.82-11.11,22.81-11.41C599.23,845.26,607,850.57,606.81,859.24z"/>
<path fill="#FFFFFF" stroke="#000000" stroke-miterlimit="10" d="M602.71,828.25c-1.21-0.46-2.42-1-3.63-1.62
	c-10.32-5.22-20.25-15.09-26.97-17.12c-0.44,1.06-10.34,9.42-15.44,13.68c-1.78,1.49-2.98,2.48-2.98,2.48l-3.79,4.74
	c0.15-0.41,3.23-8.97,5.48-17.91l16.73-13.92c0,0,19.3,12.87,31.93,18.54c0.25,1.03,0.45,1.86,0.58,2.38
	C605.06,821.31,603.48,824.84,602.71,828.25z"/>
<path fill="#FFFFFF" stroke="#000000" stroke-miterlimit="10" d="M555.38,812.5c1.93-7.64,3.26-15.56,1.64-18.91
	c-3.56-7.36-7.84-25.9-6.18-25.66c0.23,0.03,0.73,0.23,1.43,0.56c4.3,2.04,16.08,9,18.53,12.27l1.31,17.82L555.38,812.5z"/>
<path fill="#FFFFFF" stroke="#000000" stroke-miterlimit="10" d="M606.81,859.24c0.19-8.67-7.58-13.98-11.89-13.73
	c-4.99,0.3-22.69,11.41-22.81,11.41s-1.43,0.71-8.44-4.87s-10.93-3.33-10.93-3.33c-0.95-13.54,0.95-23.05,0.95-23.05
	s1.2-0.99,2.98-2.48c2.11,4.59,8.6,14.75,24.23,13.18c11.29-1.14,16.12-5.84,18.18-9.74c1.21,0.62,2.42,1.16,3.63,1.62
	c-0.34,1.51-0.52,3-0.3,4.31c0.71,4.28,2.29,8.32,2.29,8.32S607.7,849.96,606.81,859.24z"/>
<path fill="#FFFFFF" stroke="#000000" stroke-miterlimit="10" d="M604.04,817.12c-12.63-5.67-31.93-18.54-31.93-18.54l-1.31-17.82
	c11.05-8.05,19.64-23.02,32.69-26.97c-0.72,15.37-1.33,28.08-0.37,31.25c2.38,7.84-3.57,12.36-2.62,16.87
	C601.27,805.53,603.04,812.97,604.04,817.12z"/>
<path fill="#FFFFFF" stroke="#000000" stroke-miterlimit="10" d="M603.49,753.79c-13.05,3.95-21.64,18.92-32.69,26.97
	c-3.13-5.64-6.27-45.13-6.98-54.54c0.03,0.01,0.06,0.01,0.09,0.01c3.03,0,30.12-37.78,30.48-39.59c0.35-1.8-7.13-12.1-13.19-12.81
	c-1.68-0.2-4,1.44-6.66,3.97c-0.59-6.74,4.01-18.36,5.15-24.58l5.01,10.11c5.46,4.54,14.14,13.56,17.8,27.17
	C605.79,702.76,604.53,731.17,603.49,753.79z"/>
<path fill="#FFFFFF" stroke="#000000" stroke-miterlimit="10" d="M570.8,780.76c-2.45-3.27-14.23-10.23-18.53-12.27
	c-3.4-17.56-17.39-50.65-22.92-63.34c7.63,6.44,31.37,20.79,34.47,21.07C564.53,735.63,567.67,775.12,570.8,780.76z"/>
<path fill="#FFFFFF" stroke="#000000" stroke-miterlimit="10" d="M599.08,826.63c-2.06,3.9-6.89,8.6-18.18,9.74
	c-15.63,1.57-22.12-8.59-24.23-13.18c5.1-4.26,15-12.62,15.44-13.68C578.83,811.54,588.76,821.41,599.08,826.63z"/>
<path fill="#FFFFFF" stroke="#000000" stroke-miterlimit="10" d="M401.7,714.88c0,0-2.2-4.6-12.62-17.61
	c-0.83-1.12-1.59-2.23-2.27-3.34l-0.01-0.01c-8.55-13.67-7.17-25.81-5.12-26.06c1.37-0.17,3.08,0.88,4.65,2.24
	c0.06,5.89,6.03,17.85,10.81,21.34C398.45,698.43,400.07,706.52,401.7,714.88z"/>
<path fill="#FFFFFF" stroke="#000000" stroke-miterlimit="10" d="M397.14,691.44c-4.78-3.49-10.75-15.45-10.81-21.34
	c0.98,0.84,1.9,1.8,2.66,2.66c1.25,1.43,3.64,0.37,5.19-0.57C394.35,675.82,395.52,682.78,397.14,691.44z"/>
<path fill="#FFFFFF" stroke="#000000" stroke-miterlimit="10" d="M443.07,697.82c-0.18-0.73-1.75-6.89-5.6-2.78
	c-4.1,4.37-35.77,19.84-35.77,19.84c-1.63-8.36-3.25-16.45-4.56-23.44c0.54,0.4,1.06,0.68,1.56,0.84
	c5.62,1.78,35.65-23.88,38.68-22.19c1.33,0.74,2.57,6.11,3.57,11.95C442.16,689.17,442.98,696.97,443.07,697.82z"/>
<path fill="#FFFFFF" stroke="#000000" stroke-miterlimit="10" d="M437.73,726.23c-3.38,5.7-5.52,25.66-5.52,25.66
	s-18.18,8.91-22.08,10.99c-0.12,0.06-0.23,0.11-0.35,0.16c-1.09-11.9-4.64-30.6-8.08-48.16c0,0,31.67-15.47,35.77-19.84
	c3.85-4.11,5.42,2.05,5.6,2.78c0.01,0.04,0.01,0.07,0.01,0.07C444.05,705.95,441.12,720.52,437.73,726.23z"/>
<path fill="#FFFFFF" stroke="#000000" stroke-miterlimit="10" d="M409.78,763.04c-3.11,1.19-7.18-3.09-8.68-4.84
	c-0.38-0.44-0.59-0.72-0.59-0.72s-1.09-26.8-5.19-34.28c-2.98-5.44-6.66-20.96-8.51-29.27c0.68,1.11,1.44,2.22,2.27,3.34
	c10.42,13.01,12.62,17.61,12.62,17.61C405.14,732.44,408.69,751.14,409.78,763.04z"/>
<path fill="#FFFFFF" stroke="#000000" stroke-miterlimit="10" d="M448.57,747.62c0,0.04-0.01,0.09-0.01,0.13
	c-0.01,0.11-0.02,0.23-0.03,0.37c-0.06,0.44-0.1,0.9-0.15,1.35c-9.04,1.46-30.61,12.34-38.42,15.7c-1.38,0.59-2.33,0.95-2.7,0.98
	c-2.38,0.17-4.12-2.36-8.25-6.17v-0.01c0.59-0.86,1.44-1.43,2.09-1.77c1.5,1.75,5.57,6.03,8.68,4.84c0.12-0.05,0.23-0.1,0.35-0.16
	c3.9-2.08,22.08-10.99,22.08-10.99S448.57,744.05,448.57,747.62z"/>
<path fill="#FFFFFF" stroke="#000000" stroke-miterlimit="10" d="M447.33,797.29c-3.03,2.96-8.17,4.32-14.94,4.32
	c-4.74,0-7.32,2.36-8.69,5.3c-13.22-2.15-20.26-10.66-23.21-12.96c-4.54,1.11-7.59,0.28-9.39-0.66c1.26-1.81,2.6-3.51,3.93-4.86
	c5.78-5.89,4.03-21.03,3.32-25.18c-0.24-1.38,0.1-2.46,0.66-3.27c4.13,3.81,5.87,6.34,8.25,6.17c0.37-0.03,1.32-0.39,2.7-0.98
	c7.81-3.36,29.38-14.24,38.42-15.7c0.03-0.01,0.06-0.02,0.09-0.02c-0.2,6.77,0.29,27.19,1.74,36.84
	C450.94,791.18,449.89,794.8,447.33,797.29z"/>
<path fill="#FFFFFF" stroke="#000000" stroke-miterlimit="10" d="M422.41,818.01c0,0-1.79,0-10.8-2.85
	c-9.02-2.85-21.28-13.9-27.52-8.73c-0.55,0.13,2.81-7.11,7.01-13.14c1.8,0.94,4.85,1.77,9.39,0.66c2.95,2.3,9.99,10.81,23.21,12.96
	C421.45,811.7,422.41,818.01,422.41,818.01z"/>
<path fill="#FFFFFF" stroke="#000000" stroke-miterlimit="10" d="M451.04,826.09c-10.96,3.73-31.13,1.72-31.13,1.72
	s-0.12,0.04-0.35,0.12c0.88-5.61,2.85-9.92,2.85-9.92s-0.96-6.31,1.29-11.1c1.37-2.94,3.95-5.3,8.69-5.3
	c6.77,0,11.91-1.36,14.94-4.32C453.23,807.92,452.26,819.68,451.04,826.09z"/>
<path fill="#FFFFFF" stroke="#000000" stroke-miterlimit="10" d="M449.85,830.93c0,0,0.89,1.6-8.37,4.55
	c-9.27,2.94-21.93,2.13-21.93,2.13c-0.62-3.29-0.46-6.67,0.01-9.68c0.23-0.08,0.35-0.12,0.35-0.12s20.17,2.01,31.13-1.72
	C450.47,829.1,449.85,830.93,449.85,830.93z"/>
<path fill="#FFFFFF" stroke="#000000" stroke-miterlimit="10" d="M419.55,837.61c0,0-4.9,5.62-28.15,12.48
	c-23.26,6.86-38.41-4.1-38.41-4.1s-0.08-7.93-0.01-12.36c3.73,2.15,9.9,4.4,19.41,4.4c10.8,0,25.39-3.56,35.55-6.48c0,0,0,0,0.01,0
	c5.95-1.71,10.37-3.2,11.61-3.62C419.09,830.94,418.93,834.32,419.55,837.61z"/>
<path fill="#FFFFFF" stroke="#000000" stroke-miterlimit="10" d="M407.94,831.55c-10.16,2.92-24.75,6.48-35.55,6.48
	c-9.51,0-15.68-2.25-19.41-4.4v-0.01c0-0.19,0.01-0.37,0.01-0.55c1.35-2.25,3.66-4.35,6.43-6.27c2.02,2,4.94,3.67,9.16,4.44
	C380.41,833.38,399.88,832.19,407.94,831.55z"/>
<path fill="#FFFFFF" stroke="#000000" stroke-miterlimit="10" d="M422.41,818.01c0,0-1.97,4.31-2.85,9.92
	c-1.24,0.42-5.66,1.91-11.61,3.62c-0.01,0-0.01,0-0.01,0c-8.06,0.64-27.53,1.83-39.36-0.31c-4.22-0.77-7.14-2.44-9.16-4.44
	c8.94-6.19,22.62-10.52,23.78-12.35c1.51-2.41,0.89-8.02,0.89-8.02c6.24-5.17,18.5,5.88,27.52,8.73
	C420.62,818.01,422.41,818.01,422.41,818.01z"/>
<path fill="#FFFFFF" stroke="#000000" stroke-miterlimit="10" d="M395.05,579.51c-1.74,2.91-4.36,5.53-8.29,6.99
	c-12.48,4.64-14.97-27.08-16.04-31.45s-0.71-5.97-4.27-7.04c-3.57-1.07-4.99-34.57-5.36-36c-0.36-1.43,13.55-12.01,13.55-12.01
	s1.43-3.67,3.12-7.95c1.15-2.9,7.37-2.69,11.26-2.26c-2.52,9.23-4.64,21-4.99,35.05c-0.16,6.4,0.15,12.18,0.78,17.43
	c0.83,6.97,2.22,13.02,3.78,18.38C390.75,568.06,393.24,574.15,395.05,579.51z"/>
<polygon fill="#FFFFFF" stroke="#000000" stroke-miterlimit="10" points="454.49,275.38 429.91,296.47 428.07,297.99 428.06,297.99 
	427.9,298.05 418.65,288.53 444.22,264.42 "/>
<path fill="#FFFFFF" stroke="#000000" stroke-miterlimit="10" d="M633.77,378.37c-12,6.48-21.32,25.89-24.47,32.41
	c-3.57,7.37-6.66,17.11-8.8,24.72c-1.32,4.71-8.38,12.55-13.56,17.85c-0.01-0.37-0.03-0.75-0.04-1.13
	c4.14-14.36,3.39-59.26,3.39-59.26s0.35-3.3,4.52-13.66C602.1,377.64,619.93,374.37,633.77,378.37z"/>
<path fill="#FFFFFF" stroke="#000000" stroke-miterlimit="10" d="M627.85,494.57c-1.66-1.34-7.67-1.36-10.46-1.28
	c1.62-4.9-6.15-2.79-9.88-1.12c-0.18-2.91-6.15-11.83-13.66-3.19c0.01-0.1,0.01-0.18,0-0.26c-0.24-1.78-9.38-10.22-9.38-10.22
	s5.37-6.41,6.07-11.4c0.34-2.49-1.12-3.51-2.67-3.91c0.72-0.62,1.91-1.58,3.45-2.66c2.37-0.09,6.82,0.34,9.18,4.31
	c3.23,5.42,9.15,20.88,27.51,24.24C628.28,491.2,628.33,493.22,627.85,494.57z"/>
<path fill="#FFFFFF" stroke="#000000" stroke-miterlimit="10" d="M607.51,492.17c0.02,0.13,0.01,0.25,0,0.35
	c-0.35,2.62-7.96,8.44-7.96,8.44s-2.14,7.94-5.55,9.29s-6.86,0.91-8.98-0.3s-4.19-3.01-4.53-7.48c-0.09-1.15,0.31-2.3,1.14-3.1
	c0.78-0.76,1.13-0.88,2.14-0.84c0.62,0.03,1.83,0.55,2.71,0.96c2.81,1.3,2.63-0.43,2.63-0.43s4.58-7.99,4.74-10.09
	C601.36,480.34,607.33,489.26,607.51,492.17z"/>
<path fill="#FFFFFF" stroke="#000000" stroke-miterlimit="10" d="M617.39,493.29c-0.13,0.41-0.34,0.86-0.61,1.37
	c-4.51,8.44-8.79,11.05-9.98,13.9c-0.06,0.14-0.13,0.29-0.23,0.45c-1.77,3.15-9.79,10.61-13.26,1.9c5.42-4.97,6.24-9.95,6.24-9.95
	s7.61-5.82,7.96-8.44c0.01-0.1,0.02-0.22,0-0.35C611.24,490.5,619.01,488.39,617.39,493.29z"/>
<path fill="#FFFFFF" stroke="#000000" stroke-miterlimit="10" d="M627.95,496.21c-2.73,3.68-7.97,8.55-10.34,10.57
	c-2.08,1.77-7.66,3.46-11.04,2.23c0.1-0.16,0.17-0.31,0.23-0.45c1.19-2.85,5.47-5.46,9.98-13.9c0.27-0.51,0.48-0.96,0.61-1.37
	c2.79-0.08,8.8-0.06,10.46,1.28C628.36,494.98,628.46,495.52,627.95,496.21z"/>
<path fill="#FFFFFF" stroke="#000000" stroke-miterlimit="10" d="M626.56,481.6c-9.42-2.53-13.41-11.42-19.03-19.37
	c-2.53-3.59-5.37-5.38-7.8-6.25c5.64-2.19,12.42-3.01,18.72,0.96c3.59,2.26,6.11,3.73,7.87,4.66c-0.14,5.69-0.35,16.99,0.09,19.28
	C626.45,481.09,626.5,481.33,626.56,481.6z"/>
<path fill="#FFFFFF" stroke="#000000" stroke-miterlimit="10" d="M628.01,489.08c-18.36-3.36-24.28-18.82-27.51-24.24
	c-2.36-3.97-6.81-4.4-9.18-4.31c2.19-1.52,5.1-3.27,8.41-4.55c2.43,0.87,5.27,2.66,7.8,6.25c5.62,7.95,9.61,16.84,19.03,19.37
	C626.95,483.41,627.66,486.32,628.01,489.08z"/>
<path fill="#FFFFFF" stroke="#000000" stroke-miterlimit="10" d="M551.83,403.45c-0.23-0.57-3.78-9.7-3.99-22.51
	c1.55,1.59,3.03,2.94,4.38,4.15C550.72,396.93,551.76,403.01,551.83,403.45z"/>
<path fill="#FFFFFF" stroke="#000000" stroke-miterlimit="10" d="M553.93,374.87c-0.16,0.8-0.32,1.59-0.46,2.36
	c-1.56-1.64-3.35-3.66-5.38-6.26v-0.01c0.42-13.78,0.58-31.23-2.61-37.65c1.07-1.28,2.18-2.62,3.28-4.01
	C548.76,329.3,557.85,355.71,553.93,374.87z"/>
<path fill="#FFFFFF" stroke="#000000" stroke-miterlimit="10" d="M557.85,409.36c0.01-4.02,3.12-16.35-2.94-21.87
	c-0.82-0.75-1.72-1.54-2.69-2.4c-1.35-1.21-2.83-2.56-4.38-4.15c-4.94-5.03-10.59-12.39-15.08-24.73v-0.01
	c0.91-5.17,1.6-9.17,1.84-10.51c0.38,0.16,0.75,0.31,1.11,0.44c1.69,5.51,4.86,14.51,8.95,20.26c1.22,1.7,2.35,3.21,3.43,4.57v0.01
	c2.03,2.6,3.82,4.62,5.38,6.26c1.81,1.93,3.32,3.35,4.56,4.56c2.85,2.79,7.84,11.17,7.66,20.97c-0.18,9.8,1.07,33.83,3.39,37.5
	C561.24,432.88,557.85,413.37,557.85,409.36z"/>
<path fill="#FFFFFF" stroke="#000000" stroke-miterlimit="10" d="M506.06,374.96c-4.76,4.57-17.23,18.43-23.56,25.51
	c-0.93-0.04-1.96-0.08-3.06-0.11c-0.18-3.18-0.18-7.55-0.09-12.46v-0.01c0.07-3.65,0.2-7.59,0.36-11.56
	c0.19-4.56,0.41-9.15,0.64-13.36c0.16-3.06,0.32-5.91,0.47-8.4c0.08-1.33,0.16-2.56,0.23-3.66
	C490.61,360.84,500.6,370.79,506.06,374.96z"/>
<path fill="#FFFFFF" stroke="#000000" stroke-miterlimit="10" d="M524.35,441.58c-0.07,2.52-0.25,4.09-0.6,4.13
	c-0.42,0.05-2.04,0.16-4.34,0.29h-0.01c-4.32,0.22-10.99,0.49-16.43,0.51c0.29-22.84-6.02-45.07-8.06-51.62
	c1.05-0.24,2.26-0.39,3.65-0.39c2.51,0,5.11-0.05,7.6-0.12c6.57-0.16,12.35-0.4,13.55,0.12c1.67,0.72,2.85,6.3,2.85,6.3
	S524.61,430.48,524.35,441.58z"/>
<path fill="#FFFFFF" stroke="#000000" stroke-miterlimit="10" d="M527.65,368.05c-2.32,3.38-10.97,15.66-21.49,26.33
	c-2.49,0.07-5.09,0.12-7.6,0.12c-1.39,0-2.6,0.15-3.65,0.39c-5.67,1.33-6.84,5.58-6.91,5.89v0.01c-0.01,0.01-0.01,0.01-0.01,0.01
	s-2.14-0.18-5.49-0.33c6.33-7.08,18.8-20.94,23.56-25.51c-5.46-4.17-15.45-14.12-25.01-24.05c-10.4-10.79-20.29-21.56-23.31-24.87
	l19.52-17.07l8.59,11.72l4.81-11.72l11.77,0.94c0,0-2.32,9.8-2.14,10.78c0.02,0.12,0.34,0.21,0.87,0.27l-4.08,17.47l11.05,11.05
	l0.98-1.41C512.24,351.91,520.58,361.86,527.65,368.05z"/>
<path fill="#FFFFFF" stroke="#000000" stroke-miterlimit="10" d="M491.38,169.09c-0.27,1.01-2.5,6-5.26,6s-13.28-1.87-13.28-1.87
	s9.09-8.14,13.28-8.26S491.64,168.08,491.38,169.09z"/>
<path fill="#FFFFFF" stroke="#000000" stroke-miterlimit="10" d="M463.4,172.42c-4.37,3.29-9.81,3.74-13.95,1.84
	c-4.14-1.9-4.41-7.6,0.94-8.17C455.73,165.51,464,171.96,463.4,172.42z"/>
<path fill="#FFFFFF" stroke="#000000" stroke-miterlimit="10" d="M513.19,181.12c-1.65,6.99-5.3,13.88-3.7,22.85l-6.78-3.21
	c-0.29-7.37,3.12-16.03,3.93-21.3c0.52-3.4-0.97-6.15-2.41-7.94c-0.21-0.26-0.42-0.5-0.63-0.72c0.09-0.55,0.19-1.11,0.31-1.68
	c0.1-0.48,0.18-1.03,0.26-1.62c1.83,0.94,4.52,2.4,7.08,3.88C512.77,173.79,514.11,177.22,513.19,181.12z"/>
<path fill="#FFFFFF" stroke="#000000" stroke-miterlimit="10" d="M587,151.72c-0.28,0.4-0.78,0.6-1.54,0.52c0,0,0,0-0.01,0
	c-0.11-0.01-0.22-0.03-0.33-0.05c-4.46-0.89-13.01-5.35-17.47-3.74c-2.91,1.04-6.32,0.65-7.9-0.61c-0.09-0.06-0.17-0.13-0.24-0.2
	c0.11-0.17,0.22-0.33,0.32-0.48c0.61-0.9,1.15-1.61,1.59-2.1c5.52-6.06,17.64-6.42,21.38-3.03
	C585.75,144.7,588.25,150.02,587,151.72z"/>
<path fill="#FFFFFF" stroke="#000000" stroke-miterlimit="10" d="M585.45,152.24c-2.63,0.97-7.94,3.38-10.67,7.79
	c-6.79,10.97-24.48,39.8-26.19,44.38c-0.53,1.41-3.73,3.5-5.79,5.03c-3.28-1.7-6.36-3.5-9.16-5.24c-0.01,0-0.01-0.01-0.02-0.01
	c1.21-1.1,2.55-2.39,2.67-2.81c0.35-1.25-1.43-5.35-0.72-7.31c0.64-1.76,16.88-34.9,24.18-46.23c1.58,1.26,4.99,1.65,7.9,0.61
	c4.46-1.61,13.01,2.85,17.47,3.74C585.23,152.21,585.34,152.23,585.45,152.24z"/>
<path fill="#FFFFFF" stroke="#000000" stroke-miterlimit="10" d="M342.09,500c0,0-4.75,6.43-7.6,7.73
	c-2.86,1.31-11.77-1.19-15.45-2.85c-0.96-0.43-2.39-1.71-4-3.37c-2.97-3.09-6.54-7.49-8.72-10.25c-1.16-1.46-1.92-2.45-2.01-2.54
	c-0.19-0.18-0.28-4.9-0.17-9.79c1.93,0.5,4.38-0.4,6.46-1.52c1.38,1.18,4.27,3.71,7.06,6.6c3.29,3.39,6.46,7.28,6.96,10.06
	c0.95-1.43,8.44-0.73,8.44-0.73s7.96-7.83,11.29-6.99c0.27,0.07,0.49,0.19,0.66,0.37C347.14,488.75,344.12,497.45,342.09,500z"/>
<path fill="#FFFFFF" stroke="#000000" stroke-miterlimit="10" d="M355.28,488.25c-2.62,4.27-13.19,11.75-13.19,11.75
	c2.03-2.55,5.05-11.25,2.92-13.28c1.09-0.92,2.07-1.32,2.07-1.32s-1.19-7.61,0-9.27c0.96-1.34,5.88-1.76,7.72-1.87
	C355.86,479.63,356.68,485.96,355.28,488.25z"/>
<path fill="#FFFFFF" stroke="#000000" stroke-miterlimit="10" d="M326.76,487.53c-1.03-0.2-3.39-2.7-5.73-5.46
	c-0.04-0.05-0.08-0.09-0.12-0.14c-2.99-3.54-5.91-7.46-5.91-7.46s-1.95,1.63-4.4,2.94c-2.08,1.12-4.53,2.02-6.46,1.52
	c0.09-4.56,0.36-9.27,0.88-10.64c1.07-2.85,9.03-14.91,9.03-14.91c5.7-0.59,13.41,0.54,20.47,2.06c-0.46,3.17-1.76,10.39-4.46,14.39
	c2.88,1.9,3.12,9.63,3.12,9.63s7.25,0.71,9.62,3.56C345.18,485.87,329.14,488.01,326.76,487.53z"/>
<path fill="#FFFFFF" stroke="#000000" stroke-miterlimit="10" d="M480.82,354.57c-0.15,2.49-0.31,5.34-0.47,8.4
	c-6.01,1.15-15.59,2.84-19.25,2.72c-5.5-0.18-12.99-7.84-12.99-7.84s-4.85,4.81-8.06,5.27c-2.06,0.3-6.99-2.55-10.25-4.62
	c-0.21-3.94-0.47-7.82-0.74-11.49c4.79-4.68,12.44-10.01,20.79-9.54C462.15,338.16,475.15,350.81,480.82,354.57z"/>
<path fill="#FFFFFF" stroke="#000000" stroke-miterlimit="10" d="M480.35,362.97c-0.23,4.21-0.45,8.8-0.64,13.36
	c-3.09,1.66-8.2,3.88-13.22,3.71c-7.97-0.27-15.39-5.48-15.39-5.48s-4.63,4.14-9.8,5.39c-2.65,0.64-7.14-2.22-10.9-5.17
	c-0.08-5.31-0.3-10.85-0.6-16.28c3.26,2.07,8.19,4.92,10.25,4.62c3.21-0.46,8.06-5.27,8.06-5.27s7.49,7.66,12.99,7.84
	C464.76,365.81,474.34,364.12,480.35,362.97z"/>
<path fill="#FFFFFF" stroke="#000000" stroke-miterlimit="10" d="M427.9,298.05l-4,1.35l-1.73,6.95l-8.5,0.71
	c0,0-2.08-13.67-15.98-13.91c0.02-6.53,0.19-14.36,0.33-19.43v-0.01c0.05-0.09,0.1-0.18,0.15-0.26c0.63-1.1,1.25-2.09,1.84-2.95
	l2.91,3.22l-1.15,1.11l14.68,15.78l2.2-2.08L427.9,298.05z"/>
<path fill="#FFFFFF" stroke="#000000" stroke-miterlimit="10" d="M415.26,338.11v0.01c-0.05,0.11-0.1,0.21-0.16,0.31
	c-0.86,1.59-2.1,3.34-3.53,5.14l-8.23-0.78l-21.92-10.96l-8.89-11.18c2.42,0.23,6.06-0.33,9.72-4.32
	c5.62-6.16,13.28-29.04,14.65-40.52v-0.01c0.37-0.74,0.74-1.42,1.12-2.08c-0.14,5.07-0.31,12.9-0.33,19.43
	c-0.01,5.75,0.1,10.49,0.48,11.47c0.81,2.12,7.63,11.76,12.06,19.07c1.43,2.35,2.61,4.46,3.27,6
	C413.5,329.69,414.38,332.92,415.26,338.11z"/>
<path fill="#FFFFFF" stroke="#000000" stroke-miterlimit="10" d="M430.22,388.12c-0.23,4.75-0.68,8.91-1.42,12.09l-20.89-3.81
	c2.55-4.18,5.84-11.46,7.9-23.22c2.31-13.2,0.89-26.68-0.55-35.06v-0.01c2.84-5.49,4.84-15.67,5.93-22.5h0.98l4.79,8.06v0.01
	c0.44,4.14,1.33,12.95,2.1,23.33c0.27,3.67,0.53,7.55,0.74,11.49c0.3,5.43,0.52,10.97,0.6,16.28
	C430.47,379.5,430.42,384.03,430.22,388.12z"/>
<path fill="#FFFFFF" stroke="#000000" stroke-miterlimit="10" d="M479.71,376.33c-0.16,3.97-0.29,7.91-0.36,11.56v0.01
	c-4.71,2.42-13.16,6.71-16.67,8.09c-4.99,1.96-12.99-5.35-12.99-5.35s-4.29,3.03-9.64,3.55c-3.45,0.33-7.43-3.39-9.83-6.07
	c0.2-4.09,0.25-8.62,0.18-13.34c3.76,2.95,8.25,5.81,10.9,5.17c5.17-1.25,9.8-5.39,9.8-5.39s7.42,5.21,15.39,5.48
	C471.51,380.21,476.62,377.99,479.71,376.33z"/>
<path fill="#FFFFFF" stroke="#000000" stroke-miterlimit="10" d="M461.1,400.8V423c-2.18,0.46-6.39,1.24-11.25,1.58
	c-5.8,0.41-12.53,0.2-17.82-1.93c-3.37-8.01-2.6-17.1-1.73-22.17l1.73,0.32C432.03,400.8,451.92,397.71,461.1,400.8z"/>
<path fill="#FFFFFF" stroke="#000000" stroke-miterlimit="10" d="M479.44,400.36c-5.18-0.15-12-0.16-18.34,0.44
	c-9.18-3.09-29.07,0-29.07,0l-1.73-0.32l-1.5-0.27c0.74-3.18,1.19-7.34,1.42-12.09c2.4,2.68,6.38,6.4,9.83,6.07
	c5.35-0.52,9.64-3.55,9.64-3.55s8,7.31,12.99,5.35c3.51-1.38,11.96-5.67,16.67-8.09C479.26,392.81,479.26,397.18,479.44,400.36z"/>
<path fill="#FFFFFF" stroke="#000000" stroke-miterlimit="10" d="M449.85,424.58v15.62c-16.99-0.52-26.39-4.27-31.46-7.68
	c0.89-9.07,1.61-18.06,1.7-20.31c0.18-4.64-0.54-3.74-6.42-8.2c-2.49-1.89-5.98-2.76-9.16-3.12c0.56-0.54,1.84-1.93,3.4-4.49
	l20.89,3.81l1.5,0.27c-0.87,5.07-1.64,14.16,1.73,22.17C437.32,424.78,444.05,424.99,449.85,424.58z"/>
<path fill="#FFFFFF" stroke="#000000" stroke-miterlimit="10" d="M491.61,429.72c-4.56,4.08-15.77,10.86-39.62,10.53
	c-0.73-0.01-1.44-0.03-2.14-0.05v-15.62c4.86-0.34,9.07-1.12,11.25-1.58v1.33c0,0,16.95,6.07,29.68-1.02
	C491.06,425.49,491.34,427.65,491.61,429.72z"/>
<path fill="#FFFFFF" stroke="#000000" stroke-miterlimit="10" d="M450.8,453.78l-1.34,16.88c-1.08-0.06-2.13-0.13-3.17-0.23
	c-16.49-1.6-27.03-11.14-31.32-15.87c0.22-0.3,0.38-0.58,0.49-0.83c0.41-0.96,0.9-3.85,1.41-7.7
	C422.8,448.62,434.82,452.92,450.8,453.78z"/>
<path fill="#FFFFFF" stroke="#000000" stroke-miterlimit="10" d="M519.4,446c-19.91,17.06-48.81,25.63-69.94,24.66l1.34-16.88
	c0.08,0,0.16,0.01,0.24,0.01c18.69,0.96,36.47-5.9,42.75-8.64c0.06,0.29,0.11,0.48,0.14,0.56c0.26,0.62,4.15,0.81,9.04,0.8
	C508.41,446.49,515.08,446.22,519.4,446z"/>
<path fill="#FFFFFF" stroke="#000000" stroke-miterlimit="10" d="M493.79,445.15c-6.28,2.74-24.06,9.6-42.75,8.64
	c-0.08,0-0.16-0.01-0.24-0.01c-15.98-0.86-28-5.16-33.93-7.75c0.51-3.87,1.04-8.7,1.52-13.51c5.07,3.41,14.47,7.16,31.46,7.68
	c0.7,0.02,1.41,0.04,2.14,0.05c23.85,0.33,35.06-6.45,39.62-10.53C492.56,437.02,493.41,443.24,493.79,445.15z"/>
<path fill="#FFFFFF" stroke="#000000" stroke-miterlimit="10" d="M387.55,453.79l-32.04,20.44c0,0-0.27,0.01-0.71,0.03
	c-0.92-4.65-2.02-8.59-2.02-8.59s-0.08-0.69-0.06-1.8v-0.01l34.05-20.28c-0.03,4.39,0.08,7.56,0.17,8.37
	C387,452.54,387.22,453.15,387.55,453.79z"/>
<path fill="#FFFFFF" stroke="#000000" stroke-miterlimit="10" d="M315.04,501.51c-21.96,14.14-119.64,77.02-126.81,80.6
	c-8.56-0.24-6.42-11.29-6.42-11.29l124.51-79.56C308.5,494.02,312.07,498.42,315.04,501.51z"/>
<path fill="#FFFFFF" stroke="#000000" stroke-miterlimit="10" d="M354.8,474.26c-1.84,0.11-6.76,0.53-7.72,1.87
	c-1.19,1.66,0,9.27,0,9.27s-0.98,0.4-2.07,1.32c-0.17-0.18-0.39-0.3-0.66-0.37c-3.33-0.84-11.29,6.99-11.29,6.99
	s-7.49-0.7-8.44,0.73c-0.5-2.78-3.67-6.67-6.96-10.06c-2.79-2.89-5.68-5.42-7.06-6.6c2.45-1.31,4.4-2.94,4.4-2.94
	s2.92,3.92,5.91,7.46c0.04,0.05,0.08,0.09,0.12,0.14c2.34,2.76,4.7,5.26,5.73,5.46c2.38,0.48,18.42-1.66,16.04-4.51
	c-2.37-2.85-9.62-3.56-9.62-3.56s-0.24-7.73-3.12-9.63c2.7-4,4-11.22,4.46-14.39c0.6,0.13,1.2,0.26,1.79,0.4
	c1.01,0.23,2.01,0.47,2.98,0.71c7.39,1.82,13.21,3.76,13.75,3.94c-0.24,1.31-0.31,2.47-0.32,3.37v0.01c-0.02,1.11,0.06,1.8,0.06,1.8
	S353.88,469.61,354.8,474.26z"/>
<path fill="#FFFFFF" stroke="#010101" stroke-miterlimit="10" d="M588.11,481.49c-3.17,2.17-5.26,4.6-6.63,6.86
	c-0.33,0.55-0.62,1.1-0.87,1.62c-1.73,3.57-1.75,6.43-1.76,6.66c-1.02-2.33-1.28-4.5-1.09-6.42c0.1-1.09,0.33-2.09,0.64-3.01
	c1.22-3.56,3.6-5.75,3.6-5.75S584.25,481.38,588.11,481.49z"/>
<path fill="#FFFFFF" stroke="#010101" stroke-miterlimit="10" d="M629.49,491.18c1.46,2.74,1.55,4.12,1.17,5.97
	c-0.54,2.64-6.62,8.4-6.62,8.4s-2.47-0.13-6.51-0.55C619.99,501.47,624.54,495.41,629.49,491.18z"/>
<path fill="#FFFFFF" stroke="#010101" stroke-miterlimit="10" d="M654.96,478.49c-1.44,3.42-3.5,5.35-5.67,6.48
	c-2.53,1.33-5.23,1.57-7.31,1.81c-0.78,0.09-1.49,0.19-2.05,0.33c-0.41,0.11-0.75,0.24-1.01,0.43c-2.43,1.73-7.35,5.54-2.34,10.64
	c-8.14,1.07-6.88,11.66-1.98,13.98c0.53,0.25,1.12,0.54,1.73,0.85c0.02,0.01,0.04,0.02,0.06,0.03c2.15,1.1,4.66,2.56,6.64,4.36
	c2.71,2.45,4.42,5.55,2.82,9.2c-3.12,7.13-11.38,4.47-11.38,4.47s2.81-1.62,2.26-3.59c-0.56-1.98-5.51-3.57-10.4-9.25
	c-4.89-5.69-2.28-12.65-2.28-12.65s6.08-5.77,6.62-8.4c0.38-1.86,0.29-3.23-1.17-5.97c-0.61-1.14-1.46-2.54-2.63-4.32
	c-0.1-0.03-0.2-0.05-0.3-0.08c1.44-3.23,4.7-9.6,8.25-12.46c4.7-3.78,11.46-1.15,11.94-2.5c0.48-1.34-2.06-7.38-2.06-7.38
	S659.15,468.55,654.96,478.49z"/>
<path fill="#FFFFFF" stroke="#010101" stroke-miterlimit="10" d="M648.25,503.58c-5.6,1.39-9.58,6.02-11.8,9.36
	c-0.04,0.01-0.08,0.04-0.13,0.05c-0.62-0.31-1.2-0.59-1.73-0.85c-4.89-2.32-6.16-12.9,1.98-13.98c-5-5.09-0.09-8.9,2.34-10.64
	c0.26-0.19,0.6-0.32,1.01-0.43C640.07,492.72,642.98,500.05,648.25,503.58z"/>
<path fill="#FFFFFF" stroke="#010101" stroke-miterlimit="10" d="M810.15,532.44c-4.57,0.44-126.99-22.51-133.13-22.75
	c-6.15-0.24-11.28,3.59-11.28,3.59s-1.9-5.14-8.29-6.53c-4.89-1.06-16.03,3.82-21.01,6.18c2.22-3.33,6.2-7.97,11.8-9.36
	c-5.27-3.53-8.18-10.86-8.32-16.48c0.57-0.14,1.27-0.23,2.05-0.33c0.74,1.58,1.97,3.7,3.98,6.5c6.95,9.7,22.74,3.33,22.74,3.33
	s2.92,3.84,8.46,7.05c5.54,3.21,132.86,24.07,132.86,24.07S810.83,528.17,810.15,532.44z"/>
<path fill="#FFFFFF" stroke="#010101" stroke-miterlimit="10" d="M856.95,538.09c-5.36-0.9-22.98,4.16-33.65,8.28
	c-11.32-7.38-55-12.36-69.66-8.05c-12.08-7.73-41.46-15.27-57.9-18.76c-16.44-3.48-27.07-1.37-27.07-1.37s-4.88-2.57-12.9-3.67
	c-5.7-0.78-10.28,1.63-12.72,2.86c-1.99-1.81-4.5-3.26-6.64-4.36c0.01-0.03,0.04-0.05,0.06-0.09c4.98-2.37,16.13-7.25,21.01-6.18
	c6.39,1.39,8.29,6.53,8.29,6.53s5.13-3.83,11.28-3.59c6.14,0.24,128.56,23.18,133.13,22.75c0.68-4.27-0.13-4.71-0.13-4.71
	s-127.33-20.85-132.87-24.06s-8.46-7.05-8.46-7.05s-15.79,6.37-22.74-3.33c-2.01-2.8-3.25-4.92-3.98-6.5
	c2.09-0.24,4.78-0.48,7.31-1.81c4.86,5.21,10,7.72,21.67,6.38c28.06,14.95,70.55,18.56,87.86,14.78
	c17.33,10.77,68.03,14.63,68.03,14.63S842.01,534,856.95,538.09z"/>
<path fill="#FFFFFF" stroke="#010101" stroke-miterlimit="10" d="M578.4,487.2c-0.31,0.92-0.54,1.92-0.64,3.01
	c-6.14,0.52-18.46,1.61-21.42,2.12c-0.24,0.19-0.45,0.38-0.64,0.56c-1.67-1.61-5.3-5.72-4.11-9.88c0.76-2.69,3.09-4.09,5.36-4.7
	c2.24-0.61,4.42-0.45,4.97-0.01C562.81,479.02,572.34,484.58,578.4,487.2z"/>
<path fill="#FFFFFF" stroke="#010101" stroke-miterlimit="10" d="M577.76,490.22c-0.19,1.92,0.07,4.09,1.09,6.42
	c0,0.01,0,0.01,0,0.01l-21.52,3.2c0,0-5.15-3.36-1.64-6.95c0.19-0.18,0.4-0.38,0.64-0.56C559.3,491.83,571.62,490.73,577.76,490.22z
	"/>
</svg>
