<?xml version="1.0" encoding="utf-8"?>
<!-- Generator: Adobe Illustrator 25.2.0, SVG Export Plug-In . SVG Version: 6.00 Build 0)  -->
<svg version="1.1" baseProfile="tiny" id="Layer_1" xmlns="http://www.w3.org/2000/svg" xmlns:xlink="http://www.w3.org/1999/xlink"
	 x="0px" y="0px" viewBox="0 0 1000 1000" overflow="visible" xml:space="preserve">
<path fill="#FFFFFF" stroke="#000000" stroke-miterlimit="10" d="M584.93,174.66c-9.05,0.45-17.11,1.69-17.85,2.66
	c-1.55,2.02-7.37,7.24-8.44,9.38c-0.93,1.85-0.87,2.46-1.45,11.8c-1.66,2.69-4.49,6.08-7.81,5.19c-2.8-0.74-4.79-2.95-6.04-4.89
	c0.21-0.52,0.33-0.81,0.33-0.81s0.16-1.37,0.48-3.5c1.22,0.78,1.96,1.01,1.96,1.01c5.7-5.05,2.2-9.48,2.2-9.48s-0.86-0.46-2.29-1.32
	c1.06-4.52,2.49-9.14,4.31-11.9c1.21-1.85,3.81-3.94,7.16-6.02c0.48,1.57,1.06,2.97,1.75,4.12c5.11-2.61,9.98-5.23,9.98-5.23
	s-0.8-1.63-1.88-4.01c5.7-2.53,11.73-4.58,16.41-5.48C583.99,163.62,584.54,170.44,584.93,174.66z"/>
<path fill="#FFFFFF" stroke="#000000" stroke-miterlimit="10" d="M627.92,204.67c0,0,0,0,0,0.01c-5.07,11.76-10.03,11.36-12.63,9.97
	c1.15-3.15,2.27-6.66,2.76-9.53c1.19-6.89-0.36-22.58-8.2-27.8c-2.9-1.94-9.32-2.72-16.33-2.83c0.35-3.5,0.53-8.87-0.61-14.64
	c-0.21-1.07-0.42-2.18-0.63-3.33c3.77,0.96,9.6,2.97,15.34,6.99c-0.95,1.66-1.69,2.76-1.69,2.76c3.09,8.55,7.6,7.6,7.6,7.6
	s0.53-1.01,1.46-3.79c0.27,0.31,0.54,0.62,0.8,0.94c3.59,4.34,6.29,10.65,8.31,17.2c-1.35,1.8-2.26,3.01-2.37,3.15
	c-0.66,0.68-1.12,4.13,2.5,10.3c0.74-1.43,1.49-2.92,2.22-4.45C627.03,199.83,627.52,202.34,627.92,204.67z"/>
<path fill="#FFFFFF" stroke="#000000" stroke-miterlimit="10" d="M635.05,239.83c-2.75-0.33-4.57-0.17-5.63,0.03
	c-1.19-2.12-9.14-13.1-15.44-21.81c0.42-1.04,0.87-2.19,1.31-3.4c2.6,1.39,7.56,1.79,12.63-9.97c1.23,7.18,1.65,12.44,1.65,12.44
	S637.44,233.16,635.05,239.83z"/>
<path fill="#FFFFFF" stroke="#000000" stroke-miterlimit="10" d="M558.23,266.66c-0.36,0.89-31.19,13.73-34.93,17.65
	c-1.07-0.73-2-1.55-2.8-2.45c-0.28-0.4-0.51-0.67-0.62-0.77c-0.02-0.01-0.03-0.03-0.04-0.04c-7.72-10.01-1.23-27.7-0.29-28.82
	c1.07-1.25,6.78-1.61,12.12-2.85c5.35-1.25,2.5-20.97,2.74-25.25c0.2-3.79,7.3-21.34,8.93-25.33c1.25,1.94,3.24,4.15,6.04,4.89
	c3.32,0.89,6.15-2.5,7.81-5.19c-0.1,1.43-0.2,3.08-0.33,4.96c-0.57,8.44,1.62,13.53,3.47,16.27c-1.34,1.36-2.22,2.32-2.4,2.62
	c-7.26,11.99-4.41,21.02-0.68,26.51C555.3,257.03,558.54,265.88,558.23,266.66z"/>
<path fill="#FFFFFF" stroke="#000000" stroke-miterlimit="10" d="M609.85,177.32c-2.9-1.94-9.32-2.72-16.33-2.83
	c-0.26,2.56-0.61,4.13-0.61,4.13s-5.28,2.55-7.53,0.45c0,0-0.19-1.65-0.45-4.41c-9.05,0.45-17.11,1.69-17.85,2.66
	c-1.55,2.02-7.37,7.24-8.44,9.38c-0.93,1.85-0.87,2.46-1.45,11.8c-0.1,1.43-0.2,3.08-0.33,4.96c-0.57,8.44,1.62,13.53,3.47,16.27
	c4.24-4.3,13.01-12.52,18.16-15.68c6.77-4.16,11.76-3.56,14.01-3.33c2.26,0.24,11.65,3.21,13.79,6.54
	c0.79,1.23,3.95,5.61,7.69,10.79c0.42-1.04,0.87-2.19,1.31-3.4c1.15-3.15,2.27-6.66,2.76-9.53
	C619.24,198.23,617.69,182.54,609.85,177.32z M570.26,179.07c3.92-0.1,12.12,2.65,12.12,2.65c0.35,0.96-0.63,2.25-0.63,2.25
	s-4.72-1.51-10.69-2.85c-1.6,0.36-7.13,5.52-7.13,5.52S567.58,179.87,570.26,179.07z M574.87,189.05c-3.13-0.36-9.51,0.89-9.51,0.89
	s5.08-4.72,7.83-5.12c2.76-0.4,7.4,1.65,7.4,1.82C580.59,186.64,578.01,189.41,574.87,189.05z M597.75,199.77
	c-0.59,2.44-4.51-0.82-6.79-1.06c-2.28-0.24-2.35,0.41-2.35,0.41s-4.82,2.43-6.8-0.41c-1.98-2.84,7.03-12.69,7.03-12.69
	C592.62,186.11,598.35,197.33,597.75,199.77z M607.15,189.32c0,0-1.78,1.24-4.81,0.71c-3.03-0.53-5.71-3.74-5.71-3.74
	s5.53-2.5,8.47-0.98c2.85,1.46,6.19,5.78,6.4,6.05L607.15,189.32z M605.19,180.94c-1.67-0.15-7.07,2.68-9.45,3.39
	c-1.18,0.35-0.44-1.16-0.44-1.16s5.79-3.92,9.53-4.1c3.64-0.17,6.52,4.96,6.67,5.25C611.27,184.13,607.6,181.15,605.19,180.94z"/>
<path fill="#FFFFFF" stroke="#000000" stroke-miterlimit="10" d="M581.75,183.97c0,0-4.72-1.51-10.69-2.85
	c-1.6,0.36-7.13,5.52-7.13,5.52s3.65-6.77,6.33-7.57c3.92-0.1,12.12,2.65,12.12,2.65C582.73,182.68,581.75,183.97,581.75,183.97z"/>
<path fill="#FFFFFF" stroke="#000000" stroke-miterlimit="10" d="M611.5,184.32c-0.23-0.19-3.9-3.17-6.31-3.38
	c-1.67-0.15-7.07,2.68-9.45,3.39c-1.18,0.35-0.44-1.16-0.44-1.16s5.79-3.92,9.53-4.1C608.47,178.9,611.35,184.03,611.5,184.32z"/>
<path fill="#FFFFFF" stroke="#000000" stroke-miterlimit="10" d="M611.5,191.36l-4.35-2.04c0,0-1.78,1.24-4.81,0.71
	c-3.03-0.53-5.71-3.74-5.71-3.74s5.53-2.5,8.47-0.98C607.95,186.77,611.29,191.09,611.5,191.36z"/>
<path fill="#FFFFFF" stroke="#000000" stroke-miterlimit="10" d="M580.59,186.64c0,0-2.58,2.77-5.72,2.41
	c-3.13-0.36-9.51,0.89-9.51,0.89s5.08-4.72,7.83-5.12C575.95,184.42,580.59,186.47,580.59,186.64z"/>
<path fill="#FFFFFF" stroke="#000000" stroke-miterlimit="10" d="M588.84,186.02c0,0-9.01,9.85-7.03,12.69
	c1.98,2.84,6.8,0.41,6.8,0.41s0.07-0.65,2.35-0.41c2.28,0.24,6.2,3.5,6.79,1.06C598.35,197.33,592.62,186.11,588.84,186.02z
	 M584.78,197.4c-0.24-1.19,0.12-0.84,2.81-1.07C587.59,196.33,585.02,198.58,584.78,197.4z M594.17,198.71
	c-0.9-0.13-1.91-1.73-2.56-2.3C592.23,196.84,595.02,198.82,594.17,198.71z"/>
<path fill="#FFFFFF" stroke="#000000" stroke-miterlimit="10" d="M587.59,196.33c0,0-2.57,2.25-2.81,1.07
	C584.54,196.21,584.9,196.56,587.59,196.33z"/>
<path fill="#FFFFFF" stroke="#000000" stroke-miterlimit="10" d="M593.52,174.49c-0.26,2.56-0.61,4.13-0.61,4.13
	s-5.28,2.55-7.53,0.45c0,0-0.19-1.65-0.45-4.41c-0.39-4.22-0.94-11.04-1.18-18.48c-0.3-9.62-0.09-20.28,1.63-27.69
	c3.39,6.79,5.16,18.5,6.9,28.03c0.21,1.15,0.42,2.26,0.63,3.33C594.05,165.62,593.87,170.99,593.52,174.49z"/>
<path fill="#FFFFFF" stroke="#000000" stroke-miterlimit="10" d="M617.22,162.35c-0.88,3.43-1.64,5.94-2.23,7.73
	c-0.93,2.78-1.46,3.79-1.46,3.79s-4.51,0.95-7.6-7.6c0,0,0.74-1.1,1.69-2.76c1.67-2.93,3.97-7.61,3.89-11.02
	c-0.11-5.35-4.15-12.96-2.79-15.21c1.37-2.26,9.21-9.39,9.21-9.39s-2.85,10.46-2.49,12.83C615.79,143.1,619.48,153.55,617.22,162.35
	z"/>
<path fill="#FFFFFF" stroke="#000000" stroke-miterlimit="10" d="M569.22,165.67c0,0-4.87,2.62-9.98,5.23
	c-0.69-1.15-1.27-2.55-1.75-4.12c-2.76-8.92-2.45-23.15-2.65-26.89c-0.24-4.39-6.53-14.85-6.53-14.85l13.78,11.05
	c0,0-1.31,6.65,0.59,13.42c1.11,3.96,3.15,8.81,4.66,12.15C568.42,164.04,569.22,165.67,569.22,165.67z"/>
<path fill="#FFFFFF" stroke="#000000" stroke-miterlimit="10" d="M638.48,169.02c-0.23,0.62-5.88,15.52-12.03,28.2
	c-0.73,1.53-1.48,3.02-2.22,4.45c-3.62-6.17-3.16-9.62-2.5-10.3c0.11-0.14,1.02-1.35,2.37-3.15
	C628.63,182.17,638.1,169.52,638.48,169.02z"/>
<path fill="#FFFFFF" stroke="#000000" stroke-miterlimit="10" d="M546.11,195.5c0,0-0.74-0.23-1.96-1.01
	c-3.24-2.07-9.89-7.98-15.33-23.59c6.15,6.71,13.53,11.58,17.19,13.8c0.01,0,0.01,0,0.01,0c1.43,0.86,2.29,1.32,2.29,1.32
	S551.81,190.45,546.11,195.5z"/>
<path fill="#FFFFFF" stroke="#000000" stroke-miterlimit="10" d="M516.1,294.47c-6.13,4.94-17.18,16.26-25.14,25.64
	c-4.66,5.51-8.27,10.35-9.19,12.85c-2.49,6.77-11.4,12.83-11.4,12.83s-9.54,6.47-23.48,1.37c3.21-4.11,8.24-30.32,28.11-46.99
	c16.98-14.25,40.03-15.73,46.53-15.86C522.02,286.7,521.32,290.25,516.1,294.47z"/>
<path fill="#FFFFFF" stroke="#000000" stroke-miterlimit="10" d="M495.96,393.55c-10.86,10.14-34.41,31.78-56.1,34.72
	c-0.88,0.12-1.76,0.21-2.64,0.27c-23.17,1.49-23.53-24.29-23.53-24.29s-1.07-3.21-4.99-9.27c0.39-0.95,0.79-1.86,1.21-2.74
	c8.28-17.62,20.89-21.5,20.89-21.5s12.83-19.6,16.04-23.52c0.02-0.02,0.03-0.04,0.05-0.06c13.94,5.1,23.48-1.37,23.48-1.37
	s8.91-6.06,11.4-12.83c0.92-2.5,4.53-7.34,9.19-12.85c-2.22,9.92-3.8,25.91,5.42,36.07C494.6,366.08,492.21,383.94,495.96,393.55z"
	/>
<path fill="#FFFFFF" stroke="#000000" stroke-miterlimit="10" d="M564.12,429.52c-14.95,10.08-40.6,7.77-48.02,6.89
	c-0.16-1.8-0.53-3.73-1.08-5.74c0,0,0,0,0-0.01c1.28-4.43,3.87-12.49,8.24-22.41c5.44-4.45,23.33-18.23,30.69-13.27
	c5.34,3.59,6.55,5.26,7.58,6.04c-0.15,7.41-0.32,25.31,1.51,27.52C563.32,428.88,563.68,429.2,564.12,429.52z"/>
<path fill="#FFFFFF" stroke="#000000" stroke-miterlimit="10" d="M642.54,457.39c0.73-7.3,0.44-13.93,0.1-13.93
	c-0.47,0-15.64,16.64-22.08,23.36c3.27-10.77,4.51-22.95,2-21.76c-2.37,1.13-11.68,10.99-18.31,18.08
	c-0.47-14.86-7.53-28.77-7.53-28.77s-9.11,18.23-14.69,28.85c-0.86-13.85-5.27-27.33-6.33-27.84c-1.13-0.54-10.6,10.18-15.02,32.6
	c-2.92-16.9-8.92-28.8-8.92-28.8s-5.56,6.97-7.92,17.98c-3.23-6.65-8.25-12.1-8.25-12.1s-5.93,16-6.86,27.61l-7.07-23.16
	c0,0-4.61,15.39-5.99,29.23c-0.4-2.29-1.09-5.43-2.28-9.1l0.46-10.86c0,0,0.71-4.99,2.25-18.78c0.12-1.11,0.12-2.32,0-3.59
	c7.42,0.88,33.07,3.19,48.02-6.89c0.01,0.01,0.01,0.01,0.01,0c3.19,2.3,10.22,3.94,16.02,3.78c6.14-0.17,30.99-9.45,35.37-14.04
	c5.49,0.32,21.23-1.22,24.51-4.5c2.67-2.67,5.74,2,9.96,5.09c1.04,0.77,2.14,1.43,3.33,1.88c0.17,5.77,0.45,12.95,0.86,20.14
	C651.69,445.42,646.18,453.15,642.54,457.39z"/>
<path fill="#FFFFFF" stroke="#000000" stroke-miterlimit="10" d="M563.31,321.81c-5.43,2.43-32.14,15.08-44.11,33.61
	c-9.18,14.19-15.92,33.35-19.25,43.95c-0.34-0.54-0.53-0.83-0.53-0.83c-1.25-0.95-2.24-2.3-3.02-3.96c0.05-0.53,0.11-1.07,0.17-1.6
	c0,0,0.01,0,0.01-0.01c1.39-11.35,5.17-21.28,10.27-29.9c16.71-28.23,47.58-42.25,54.7-45.19
	C561.99,319.08,562.6,320.41,563.31,321.81z"/>
<path fill="#FFFFFF" stroke="#000000" stroke-miterlimit="10" d="M567.71,329.24c-6.24,4.1-24.25,16.77-40.85,36.69
	c-14.6,17.52-19.45,34.87-21.04,43.39c-2.56-4.68-4.86-8.37-5.87-9.95c3.33-10.6,10.07-29.76,19.25-43.95
	c11.97-18.53,38.68-31.18,44.11-33.61C564.54,324.18,566.09,326.75,567.71,329.24z"/>
<path fill="#FFFFFF" stroke="#000000" stroke-miterlimit="10" d="M569.91,332.51c-4.59,4-20.34,17.92-35.21,33.24
	c-15.14,15.6-22.8,44.07-24.67,51.82c-1.37-2.92-2.83-5.73-4.21-8.25c1.59-8.52,6.44-25.87,21.04-43.39
	c16.6-19.92,34.61-32.59,40.85-36.69C568.44,330.35,569.18,331.45,569.91,332.51z"/>
<path fill="#FFFFFF" stroke="#000000" stroke-miterlimit="10" d="M574.19,338.32c-5.22,4.93-35.11,33.25-43.23,43.65
	c-6.33,8.11-13.93,30.61-17.79,42.96c-0.93-2.47-2.01-4.95-3.14-7.36c1.87-7.75,9.53-36.22,24.67-51.82
	c14.87-15.32,30.62-29.24,35.21-33.24C571.44,334.71,572.94,336.72,574.19,338.32z"/>
<path fill="#FFFFFF" stroke="#000000" stroke-miterlimit="10" d="M575.7,340.18c-9.17,6.8-17.08,14.42-23.88,22.31h-0.01
	c-13.53,15.68-22.66,32.4-28.55,45.76c-4.37,9.92-6.96,17.98-8.24,22.41c-0.49-1.86-1.13-3.78-1.85-5.72v-0.01
	c3.86-12.35,11.46-34.85,17.79-42.96c8.12-10.4,38.01-38.72,43.23-43.65C574.75,339.03,575.26,339.66,575.7,340.18z"/>
<path fill="#FFFFFF" stroke="#000000" stroke-miterlimit="10" d="M673.63,364.69c-0.73,4.67-1.75,10.1-3.18,15.77
	c-5.54,2.44-20.09,6.24-28.1,6.81c-9.45,0.67-25.13,20.72-32.8,20.01c-1.15-0.11-2.18-0.42-3.1-0.88c-4.17-2.05-6.07-7-6.67-8.89
	c0.99,0.32,1.58,0.5,1.58,0.5l7.27-10.05c6.19,0.37,14.29,0.5,16.61-0.69c3.74-1.91,20.2-14.57,26.32-14.03
	C655.52,373.58,666.45,368.38,673.63,364.69z"/>
<path fill="#FFFFFF" stroke="#000000" stroke-miterlimit="10" d="M759.16,386.88c0,0,0,0,0,0.01c-1.94,12.1-9.18,23.53-14.34,27.52
	c-6.24,4.81-22.81,6.59-22.81,6.59c-16.04-13.54-35.64-36.36-35.64-36.36c-3.34-4.17-6.98-12.06-10.47-21.14
	c-0.51-1.33-1.02-2.69-1.52-4.07c0.03-0.28,0.07-0.55,0.1-0.82c-0.15-0.08-0.32-0.16-0.49-0.24c-6.38-17.68-11.91-37.89-13.53-43.93
	c0.07-0.02,0.14-0.03,0.2-0.05c8.3,5.91,35.56,25.2,48.16,32.65c14.97,8.85,20.85,9.98,20.85,9.98s3.97-11.31,4.76-26.18
	c5.27,4.41,12.89,11.86,16.63,20.66C756.44,364.14,757.19,379.88,759.16,386.88z"/>
<path fill="#FFFFFF" stroke="#000000" stroke-miterlimit="10" d="M791.74,454.96c-4.52-5.59-12-10.68-23.04-6.04
	c-16.23,6.82-23.27,34.84-25.42,45.62c-9.56-18.93-15.57-52.87-15.57-52.87s-1.07-3.92-5.7-20.67c0,0,16.57-1.78,22.81-6.59
	c5.16-3.99,12.4-15.42,14.34-27.52c0.24,0.89,0.51,1.63,0.81,2.21c2.67,5.17,17.47,19.42,27.27,45.98
	C789.27,440.59,790.73,447.44,791.74,454.96z"/>
<path fill="#FFFFFF" stroke="#000000" stroke-miterlimit="10" d="M792.58,591.73c-0.15,1.06-0.69,2.13-1.44,3.17
	c-1.78-0.13-4.46-0.04-6.79,0.12c-0.11-1.77-9.41-0.01-14.58,1.11c-1.28-1.51-9.01-6.66-11.94-6.36c-0.79,0.08-2.16-0.44-3.8-1.29
	c-3.56-1.84-8.4-5.23-11.31-7.35c0.53-0.29,0.85-0.45,0.85-0.45s-0.35-14.43,3.21-16.57c3.11-1.86,2.15-10.63-9.93-12.97
	c1.46-2.55,3.31-5.54,5.65-7.88c4.82-4.81,9.45-3.57,9.45-3.57s0.01-0.25,0.02-0.71c0,0,15.31-12.48,23.62-12.36
	c6.39,0.09,13.76,7.34,16.83,10.69v0.01C792.1,553.84,793.07,588.53,792.58,591.73z"/>
<path fill="#FFFFFF" stroke="#000000" stroke-miterlimit="10" d="M746.78,564.11c-3.56,2.14-3.21,16.57-3.21,16.57
	s-0.32,0.16-0.85,0.45c-2.39,1.28-9.18,5.09-11.8,8.29c-2.21,2.7-3.66,8.35-4.34,11.61c-0.04-0.01-0.07-0.02-0.11-0.03
	c-3.21-0.89-9.63-11.23-9.63-13.01c0-1.78,5.7-14.79,6.42-15.86c0.71-1.07,3.21-9.63,3.21-10.52s4.99-3.92,6.77-4.99
	c0.91-0.55,2.06-2.78,3.61-5.48C748.93,553.48,749.89,562.25,746.78,564.11z"/>
<path fill="#FFFFFF" stroke="#000000" stroke-miterlimit="10" d="M754.03,588.48c-2.03,4.79-6.9,14.68-13.24,17.38
	c-0.48-0.35-0.78-0.58-0.78-0.58h-4.99l-5.35-3.39c0,0,0,0-3.09-0.86c0.68-3.26,2.13-8.91,4.34-11.61c2.62-3.2,9.41-7.01,11.8-8.29
	C745.63,583.25,750.47,586.64,754.03,588.48z"/>
<path fill="#FFFFFF" stroke="#000000" stroke-miterlimit="10" d="M769.87,596.54c-1.02,0.16-15.15,9.07-25.38,11.51
	c-1.41-0.62-2.85-1.58-3.7-2.19c6.34-2.7,11.21-12.59,13.24-17.38c1.64,0.85,3.01,1.37,3.8,1.29c2.93-0.3,10.66,4.85,11.94,6.36
	C769.98,596.37,770.03,596.52,769.87,596.54z"/>
<path fill="#FFFFFF" stroke="#000000" stroke-miterlimit="10" d="M791.14,594.9c-1.82,2.46-4.9,4.72-7.29,6.1
	c-2.63,1.52-7.41,1-9.67,1.03c3.53-1.64,8.76-4.36,10.03-6.55c0.1-0.17,0.14-0.33,0.14-0.46
	C786.68,594.86,789.36,594.77,791.14,594.9z"/>
<path fill="#FFFFFF" stroke="#000000" stroke-miterlimit="10" d="M793.87,495.97c-0.34-0.12-18.13-5.99-27.54,1.07
	c-8.06,6.04-13.98,18.99-15.6,22.8c-0.13-0.95-0.28-1.9-0.45-2.88c0-0.01,0-0.01,0-0.01c2.85-8.55,12.8-35.8,24.6-38.8
	c10.41-2.65,16.5,4.39,18.94,8.2C793.87,489.61,793.89,492.83,793.87,495.97z"/>
<path fill="#FFFFFF" stroke="#000000" stroke-miterlimit="10" d="M734.43,330.84c-0.79,14.87-4.76,26.18-4.76,26.18
	s-5.88-1.13-20.85-9.98c-12.6-7.45-39.86-26.74-48.16-32.65c2.19-0.54,3.61-0.86,3.61-0.86l-11.32-6.81l13.81-8.59l-6.79-1.68
	c10.65-4.13,21.51-15.26,30.14-26.58c-1.24,0.93-3.46,1.84-6.19,2.7c1.52-1.78,3.61-4.2,6.12-7.08c3.01,0.66,6.09,1.62,9.19,2.93
	c2.62,1.09,5.26,2.45,7.9,4.1c3.01,1.86,6.02,4.11,9,6.8C732.35,293.96,735.31,314.54,734.43,330.84z"/>
<path fill="#FFFFFF" stroke="#000000" stroke-miterlimit="10" d="M439.86,428.27c-7.4,11.41-21.42,26.59-43.28,26.59
	c-34.69,0-48-5.7-48-5.7c-5.05,0-12-1.2-17.29-2.29c3.59-5.6,13.69-21.39,12.9-23.37c-0.79-1.98-5.92-16.96-7.64-22
	c5.06-1.96,26.66-10.06,41.68-11.15c14.22-1.04,27.58,1.13,31.68,1.89c-0.42,0.88-0.82,1.79-1.21,2.74
	c3.92,6.06,4.99,9.27,4.99,9.27s0.36,25.78,23.53,24.29C438.1,428.48,438.98,428.39,439.86,428.27z"/>
<path fill="#FFFFFF" stroke="#000000" stroke-miterlimit="10" d="M331.29,446.87c-0.82-0.17-1.61-0.34-2.34-0.5l-10.93-16.38
	c0.39-0.38,0.72-0.83,0.98-1.38c1.66-3.48,1.83-10-0.04-14.36c3.84-0.22,6.07-0.7,7.41-2.28c2.44-2.87,3.34-13.4-2.74-16.64
	c0.64-0.2,1.17-0.36,1.55-0.47c3.19-0.94,2.09-4.21,1.48-5.55c2.99,1.6,5.18,0.29,7.93-0.26c-0.47,0.42-1.01,0.76-1.63,1.02
	c0.54,2.58,2.5,11.86,2.5,11.86s0.38-0.16,1.09-0.43c1.72,5.04,6.85,20.02,7.64,22C344.98,425.48,334.88,441.27,331.29,446.87z"/>
<path fill="#FFFFFF" stroke="#000000" stroke-miterlimit="10" d="M334.6,389.05L334.6,389.05c-2.76,0.55-4.95,1.86-7.94,0.26
	c-0.89-0.47-1.85-1.2-2.91-2.29c-0.88-0.9-1.49-1.94-1.9-3.02c-1.65-4.39,0.02-9.55,0.17-9.98c0.01-0.02,0.01-0.03,0.01-0.03
	c0.13-0.27,0.26-0.52,0.39-0.75c4.51-7.88,12.92,1.49,14.1,2.67C337.64,377.03,338.76,385.47,334.6,389.05z"/>
<path fill="#FFFFFF" stroke="#000000" stroke-miterlimit="10" d="M321.85,384c-6.57-0.88-22.53,4.5-26.49,6.08
	c-3.22,1.29-12.78,2.55-17.83,3.13c-1.95-5.44-0.2-10.26,1.43-11.89c1.66-1.67,5.94-3.81,17.94-4.76c0.11-0.01,0.21-0.02,0.31-0.03
	c11.62-0.95,7.68-2.82,11.57-3.17c2.82-0.26,4.65-0.7,8.07-0.05c1.33,0.26,2.91,0.68,4.88,1.35c0.09-0.22,0.19-0.44,0.29-0.64
	C321.87,374.45,320.2,379.61,321.85,384z"/>
<path fill="#FFFFFF" stroke="#000000" stroke-miterlimit="10" d="M325.18,394.86c-0.38,0.11-0.91,0.27-1.55,0.47
	c-6.13,1.84-22.89,6.98-27.09,7.73c-3.96,0.71-14.6,4.46-19.98,8.06c-0.8-1.22-3.26-5.11-3.66-7.59c-0.47-2.97,2.02-7.24,4.75-9.98
	c-0.04-0.11-0.09-0.23-0.12-0.34c5.05-0.58,14.61-1.84,17.83-3.13c3.96-1.58,19.92-6.96,26.49-6.08c0.41,1.08,1.02,2.12,1.9,3.02
	c1.06,1.09,2.02,1.82,2.91,2.29C327.27,390.65,328.37,393.92,325.18,394.86z"/>
<path fill="#FFFFFF" stroke="#000000" stroke-miterlimit="10" d="M326.37,411.97c-1.34,1.58-3.57,2.06-7.41,2.28
	c-4,0.22-9.76,0.14-18.12,0.69c-11.54,0.75-19.21,5.04-22.73,7.52c-4.2-2.36-1.29-10.96-1.29-10.96s-0.09-0.14-0.26-0.38
	c5.38-3.6,16.02-7.35,19.98-8.06c4.2-0.75,20.96-5.89,27.09-7.73C329.71,398.57,328.81,409.1,326.37,411.97z"/>
<path fill="#FFFFFF" stroke="#000000" stroke-miterlimit="10" d="M319,428.61c-0.26,0.55-0.59,1-0.98,1.38
	c-3.47,3.39-11.63,0.54-18.15,1.82c-6.28,1.24,0.59,9.38,2.62,12.31c-0.85,0.33-1.68,0.73-2.5,1.2h-0.01
	c-3.25-0.76-6.01-1.64-8.36-2.59l-0.9-1.41c0,0-0.14,0.32-0.39,0.86c-15.91-7.04-11.2-17.58-12.08-19.64
	c-0.05-0.02-0.1-0.05-0.14-0.08c3.52-2.48,11.19-6.77,22.73-7.52c8.36-0.55,14.12-0.47,18.12-0.69
	C320.83,418.61,320.66,425.13,319,428.61z"/>
<path fill="#FFFFFF" stroke="#000000" stroke-miterlimit="10" d="M797.22,464.6l-2.14,24c0,0-0.41-0.93-1.26-2.25
	c-2.44-3.81-8.53-10.85-18.94-8.2c-11.8,3-21.75,30.25-24.6,38.8c0,0,0,0,0,0.01c-0.54,1.6-0.82,2.54-0.82,2.54
	s-4.33-18.79-6.94-20.69c0,0,0.23-1.61,0.76-4.27c2.15-10.78,9.19-38.8,25.42-45.62c11.04-4.64,18.52,0.45,23.04,6.04v0.01
	C795.51,459.61,797.22,464.6,797.22,464.6z"/>
<path fill="#FFFFFF" stroke="#000000" stroke-miterlimit="10" d="M793.88,495.97v43.01c0,0-0.53-0.65-1.46-1.66v-0.01
	c-3.07-3.35-10.44-10.6-16.83-10.69c-8.31-0.12-23.62,12.36-23.62,12.36c0.05-2.3,0.08-9.92-1.24-19.13c0,0,0,0,0-0.01
	c1.62-3.81,7.54-16.76,15.6-22.8c9.41-7.06,27.2-1.19,27.54-1.07C793.88,495.97,793.88,495.97,793.88,495.97z"/>
<path fill="#FFFFFF" stroke="#000000" stroke-miterlimit="10" d="M784.35,595.02c0,0.13-0.04,0.29-0.14,0.46
	c-1.27,2.19-6.5,4.91-10.03,6.55c-0.65,0.01-1.08,0.06-1.2,0.22c-0.53,0.71-23.7,6.41-26.2,6.41c-0.67,0-1.47-0.25-2.29-0.61
	c10.23-2.44,24.36-11.35,25.38-11.51c0.16-0.02,0.11-0.17-0.1-0.41C774.94,595.01,784.24,593.25,784.35,595.02z"/>
<path fill="#FFFFFF" stroke="#000000" stroke-miterlimit="10" d="M736.62,252.58c-8.54,5.79-23.26,15.73-29.49,19.94
	c-2.64-1.65-5.28-3.01-7.9-4.1C705.15,264.17,719.49,255.49,736.62,252.58z"/>
<polygon fill="#FFFFFF" stroke="#000000" stroke-miterlimit="10" points="685.83,212.49 671.01,243.95 671,243.96 652.5,262.21 
	657.28,242.99 "/>
<path fill="#FFFFFF" stroke="#000000" stroke-miterlimit="10" d="M690.11,269.87c-8.63,11.32-19.49,22.45-30.14,26.58l-6.57-1.63
	c0,0-1.32-0.16-3.28-0.05c1.58-13.47,7.73-16.7,7.73-16.7s16.27-2.4,26.07-5.49v-0.01C686.65,271.71,688.87,270.8,690.11,269.87z"/>
<path fill="#FFFFFF" stroke="#000000" stroke-miterlimit="10" d="M666.76,298.13l-13.81,8.59l-4.37,2.72c0,0-16.75-1.96-11.05-8.92
	c3.65-4.44,9.12-5.54,12.59-5.75c1.96-0.11,3.28,0.05,3.28,0.05l6.57,1.63L666.76,298.13z"/>
<path fill="#FFFFFF" stroke="#000000" stroke-miterlimit="10" d="M748.21,197.52c-3.93,6.37-40.88,48.12-58.17,67.97
	c-2.51,2.88-4.6,5.3-6.12,7.08v0.01c-9.8,3.09-26.07,5.49-26.07,5.49s-6.15,3.23-7.73,16.7c-3.47,0.21-8.94,1.31-12.59,5.75
	c-5.7,6.96,11.05,8.92,11.05,8.92l4.37-2.72l11.32,6.81c0,0-1.42,0.32-3.61,0.86c-0.09-0.06-0.18-0.13-0.26-0.19
	c0.02,0.08,0.04,0.16,0.06,0.24c-7.1,1.75-21.67,5.67-22.21,8.36c-0.72,3.57,5.52,3.92,5.52,3.92l-12.47,4.81l-1.73,4.99h-7.9
	l-1.24,9.27l-12.84-3.56c0,0-24.61,0.61-29.51-0.15h-0.01c-3.89-10.44-12.39-34.37-11.29-42.09c0.72-4.97,4.07-11.42,7.38-16.74
	c0.01,0,0.01-0.01,0.02-0.01c0-0.01,0.01-0.01,0.01-0.01c7.48-5.45,17.44-11.68,27.17-17.46c17.72-10.52,31.29-17.42,31.71-17.63
	l-9.44,15.32l6-6.24c-2.92,4.37-7.53,10.55-11.52,12.65c-6.42,3.39-10.52,1.07-10.52,1.07l-5.34,6.06c0,0,0.18-6.06-3.21-3.56
	c-3.39,2.49-20.99,19.96-23.24,30.83c-2.25,10.87,0.78,18.35,0.78,18.35l10.34-5.34l0.45-1.24c3.26,2.72,8.28,6.82,8.64,6.58
	c0.27-0.18-1.46-5.2-3.19-10c3.63,2.45,8.3,5.32,9.25,4.48c0.83-0.75-0.65-5.51-2.27-9.89l8.86,5.43l-4.43-10.99l7.28,4.04
	l-3.19-12.19c0.06,0.02,0.11,0.04,0.17,0.07c5.34-2.85,16.39-7.84,19.96-16.93c2.83-7.23,3.75-18.17,4-22.35l12.32-12.81
	l10.19-10.59c-0.82,1.27-15.21,23.53-12.79,31.32c4.81-11.76,17.11-27.27,17.11-27.27l-2,8.05l-4.78,19.22l18.5-18.25l0.01-0.01
	l54.73-54c-0.42,0.57-13.72,18.65-14.42,21.29c-0.72,2.67-5.71,16.93-6.24,18C704.54,230.31,736.8,199.31,748.21,197.52z"/>
<path fill="#FFFFFF" stroke="#000000" stroke-miterlimit="10" d="M632.45,254.29c-0.25,4.18-1.17,15.12-4,22.35
	c-3.57,9.09-14.62,14.08-19.96,16.93c-0.06-0.03-0.11-0.05-0.17-0.07c-5.49-2.42-3.06,6.31-4.56,6.49
	c-0.06,0.01-0.12,0.02-0.18,0.04c-0.32,0.08-0.75,0.29-1.23,0.57c-1.25,0.73-2.88,1.96-4,2.83c-0.75,0.59-1.27,1.02-1.27,1.02
	l-0.84,0.57l-4.97,3.39l-1.5,1.03l-0.3,0.82l-2.1,5.78l-0.45,1.24l-10.34,5.34c0,0-3.03-7.48-0.78-18.35
	c2.25-10.87,19.85-28.34,23.24-30.83c3.39-2.5,3.21,3.56,3.21,3.56l5.34-6.06c0,0,4.1,2.32,10.52-1.07
	c3.99-2.1,8.6-8.28,11.52-12.65L632.45,254.29z"/>
<path fill="#FFFFFF" stroke="#000000" stroke-miterlimit="10" d="M611.51,305.69l-7.28-4.04l-0.65-1.62
	c0.06-0.02,0.12-0.03,0.18-0.04c1.5-0.18-0.93-8.91,4.56-6.49L611.51,305.69z"/>
<path fill="#FFFFFF" stroke="#000000" stroke-miterlimit="10" d="M596.01,322.62c-0.36,0.24-5.38-3.86-8.64-6.58l2.1-5.78l0.3-0.82
	l1.5-1.03c0.47,1.28,1.01,2.73,1.55,4.2v0.01C594.55,317.42,596.28,322.44,596.01,322.62z"/>
<path fill="#FFFFFF" stroke="#000000" stroke-miterlimit="10" d="M608.66,312.64l-8.86-5.43c-0.49-1.34-1-2.64-1.45-3.78
	c1.12-0.87,2.75-2.1,4-2.83c0.48-0.28,0.91-0.49,1.23-0.57l0.65,1.62L608.66,312.64z"/>
<path fill="#FFFFFF" stroke="#000000" stroke-miterlimit="10" d="M602.07,317.1c-0.95,0.84-5.62-2.03-9.25-4.48v-0.01
	c-0.54-1.47-1.08-2.92-1.55-4.2l4.97-3.39l0.84-0.57c0,0,0.52-0.43,1.27-1.02c0.45,1.14,0.96,2.44,1.45,3.78
	C601.42,311.59,602.9,316.35,602.07,317.1z"/>
<path fill="#FFFFFF" stroke="#000000" stroke-miterlimit="10" d="M612.58,382.5l-3.95,5.46l-7.27,10.05c0,0-0.59-0.18-1.58-0.5
	c-2.14-0.68-6.16-2.01-10.19-3.59c-5.88-2.31-21.38,8.01-25.3,7.84c-1.52-0.07-2.1-0.22-2.76-0.74c-1.03-0.78-2.24-2.45-7.58-6.04
	c-7.36-4.96-25.25,8.82-30.69,13.27c5.89-13.36,15.02-30.08,28.55-45.76h0.01l5.52-0.12c0,0,4.45-4.64,12.65-5.92
	c8.2-1.28,14.79,6.09,25.31,10.73c4.96,2.19,9.09,5.71,12.06,8.84C610.69,379.52,612.58,382.5,612.58,382.5z"/>
<path fill="#FFFFFF" stroke="#000000" stroke-miterlimit="10" d="M673.99,358.37c-3.55-1.78-9.41-4.55-12.04-4.91
	c-3.92-0.54-16.93-0.54-21.56,3.56c-3.4,3-22.87,13.57-33.03,19c-2.97-3.13-7.1-6.65-12.06-8.84
	c-10.52-4.64-17.11-12.01-25.31-10.73c-8.2,1.28-12.65,5.92-12.65,5.92l-5.52,0.12c6.8-7.89,14.71-15.51,23.88-22.31
	c0.77,0.92,1.33,1.51,1.6,1.69c0.12,0.08,0.38,0.15,0.77,0.21h0.01c4.9,0.76,29.51,0.15,29.51,0.15l12.84,3.56l1.24-9.27h7.9
	l1.73-4.99l12.47-4.81c0,0-6.24-0.35-5.52-3.92c0.54-2.69,15.11-6.61,22.21-8.36C662.08,320.48,667.61,340.69,673.99,358.37z"/>
<path fill="#FFFFFF" stroke="#000000" stroke-miterlimit="10" d="M674.38,359.43c-0.21,1.6-0.45,3.36-0.75,5.25v0.01
	c-7.18,3.69-18.11,8.89-22.07,8.55c-6.12-0.54-22.58,12.12-26.32,14.03c-2.32,1.19-10.42,1.06-16.61,0.69l3.95-5.46
	c0,0-1.89-2.98-5.22-6.48c10.16-5.43,29.63-16,33.03-19c4.63-4.1,17.64-4.1,21.56-3.56c2.63,0.36,8.49,3.13,12.04,4.91
	C674.12,358.73,674.25,359.08,674.38,359.43z"/>
<path fill="#FFFFFF" stroke="#000000" stroke-miterlimit="10" d="M670.45,380.46c-3.24,12.9-8.57,27.05-17.25,36.33
	c-1.02,1.1-2.09,2.13-3.21,3.06c-4.22-3.09-7.29-7.76-9.96-5.09c-3.28,3.28-19.02,4.82-24.51,4.5c-1.07-0.06-1.75-0.2-1.87-0.4
	c-0.52-0.92-4.93-8.53-7.2-12.46c0.92,0.46,1.95,0.77,3.1,0.88c7.67,0.71,23.35-19.34,32.8-20.01
	C650.36,386.7,664.91,382.9,670.45,380.46z"/>
<path fill="#FFFFFF" stroke="#000000" stroke-miterlimit="10" d="M615.52,419.26c-4.38,4.59-29.23,13.87-35.37,14.04
	c-5.8,0.16-12.83-1.48-16.02-3.78c0,0.01,0,0.01-0.01,0c-0.44-0.32-0.8-0.64-1.08-0.98c-1.83-2.21-1.66-20.11-1.51-27.52
	c0.66,0.52,1.24,0.67,2.76,0.74c3.92,0.17,19.42-10.15,25.3-7.84c4.03,1.58,8.05,2.91,10.19,3.59c0.6,1.89,2.5,6.84,6.67,8.89
	c2.27,3.93,6.68,11.54,7.2,12.46C613.77,419.06,614.45,419.2,615.52,419.26z"/>
<path fill="#FFFFFF" stroke="#000000" stroke-miterlimit="10" d="M517.59,497.1l-6.95,12.47c0,0-2.44-9.21-3.54-21.89v-0.01
	c-0.77-8.99-0.87-19.72,1.05-30.14c2.37,4.36,4.05,8.5,5.24,12.11c1.19,3.67,1.88,6.81,2.28,9.1c-0.23,2.2-0.37,4.37-0.39,6.42
	c-0.04,3.6,0.78,6.77,2.07,9.52L517.59,497.1z"/>
<path fill="#FFFFFF" stroke="#000000" stroke-miterlimit="10" d="M530.78,485.09l-0.78,22.7c0,0-8.6-4.42-12.65-13.11
	c-1.29-2.75-2.11-5.92-2.07-9.52c0.02-2.05,0.16-4.22,0.39-6.42c1.38-13.84,5.99-29.23,5.99-29.23l7.07,23.16c0,0.01,0,0.01,0,0.01
	c-0.17,2.2-0.17,4.23,0.09,5.97C529.12,480.67,529.82,482.86,530.78,485.09z"/>
<path fill="#FFFFFF" stroke="#000000" stroke-miterlimit="10" d="M546.09,479.83c-0.67,11.91-1.94,25.82-1.94,25.82
	s-9.13-10.67-13.37-20.56c-0.96-2.23-1.66-4.42-1.96-6.44c-0.26-1.74-0.26-3.77-0.09-5.97c0,0,0,0,0-0.01
	c0.93-11.61,6.86-27.61,6.86-27.61s5.02,5.45,8.25,12.1c-0.59,2.74-0.98,5.73-1.03,8.93C542.73,470.56,544.09,475.31,546.09,479.83z
	"/>
<path fill="#FFFFFF" stroke="#000000" stroke-miterlimit="10" d="M562.22,484.91c0.04,5.43-0.4,11.09-1.5,16.82
	c0,0-9.46-10.2-14.63-21.9c-2-4.52-3.36-9.27-3.28-13.74c0.05-3.2,0.44-6.19,1.03-8.93c2.36-11.01,7.92-17.98,7.92-17.98
	s6,11.9,8.92,28.8c-0.46,2.33-0.86,4.79-1.2,7.38L562.22,484.91z"/>
<path fill="#FFFFFF" stroke="#000000" stroke-miterlimit="10" d="M582.11,470.46c-0.29,6.55-2.94,12.78-5.96,17.85
	c-4.35,7.28-9.47,12.18-9.47,12.18l-4.46-15.58l-2.74-9.55c0.34-2.59,0.74-5.05,1.2-7.38c4.42-22.42,13.89-33.14,15.02-32.6
	c1.06,0.51,5.47,13.99,6.33,27.84C582.18,465.64,582.22,468.08,582.11,470.46z"/>
<path fill="#FFFFFF" stroke="#000000" stroke-miterlimit="10" d="M602.07,477.67c-2.41,6.33-6.29,11.32-10.37,15.14
	c-7.98,7.49-16.73,10.53-16.73,10.53s0.54-7.3,1.18-15.03c3.02-5.07,5.67-11.3,5.96-17.85c0.11-2.38,0.07-4.82-0.08-7.24
	c5.58-10.62,14.69-28.85,14.69-28.85s7.06,13.91,7.53,28.77C604.4,468.03,603.84,473.03,602.07,477.67z"/>
<path fill="#FFFFFF" stroke="#000000" stroke-miterlimit="10" d="M620.56,466.82l-0.01,0.01c-0.6,1.96-1.26,3.88-1.99,5.66v0.01
	c-1.24,3.05-2.66,5.7-4.19,7.49c-7.33,8.55-21.57,24.95-21.75,24.42c-0.08-0.24-0.5-5.62-0.92-11.6c4.08-3.82,7.96-8.81,10.37-15.14
	c1.77-4.64,2.33-9.64,2.18-14.53c6.63-7.09,15.94-16.95,18.31-18.08C625.07,443.87,623.83,456.05,620.56,466.82z"/>
<path fill="#FFFFFF" stroke="#000000" stroke-miterlimit="10" d="M642.54,457.39c-0.29,2.88-0.73,5.86-1.39,8.58
	c-0.66,2.68-1.52,5.12-2.66,6.95c-0.75,1.21-1.58,2.42-2.46,3.62h-0.01c-5.25,7.16-12.13,13.61-12.13,13.61l-1.09-3.61l-4.24-14.04
	v-0.01c0.73-1.78,1.39-3.7,1.99-5.66l0.01-0.01c6.44-6.72,21.61-23.36,22.08-23.36C642.98,443.46,643.27,450.09,642.54,457.39z"/>
<path fill="#FFFFFF" stroke="#000000" stroke-miterlimit="10" d="M656.05,464v0.01c-0.01,0.14-0.02,0.26-0.03,0.4v0.01
	c-0.39,5.1-1.24,9.84-2.87,12.9c-0.12,0.23-0.24,0.46-0.37,0.68c-5,9.37-6.93,13.22-6.93,13.22l-2.64-14.19l-2.06-11.06
	c0.66-2.72,1.1-5.7,1.39-8.58c3.64-4.24,9.15-11.97,11.64-15.52c0.81-1.16,1.3-1.87,1.3-1.87S656.85,452.76,656.05,464z"/>
<path fill="#FFFFFF" stroke="#000000" stroke-miterlimit="10" d="M311.75,317.28c0.13,1.44,0.25,2.81,0.36,4.1
	c-11.43-3.35-17.24-6.03-20.19-7.83c-1.68-4.56-6.51-18.56-7.97-32.5c-1.78-16.97,10.34-48.63,10.34-48.63s7.48,16.9,11.28,22.12
	c3.81,5.23,8.56,17.35,8.8,21.63C314.6,280.45,310.56,304.21,311.75,317.28z"/>
<path fill="#FFFFFF" stroke="#000000" stroke-miterlimit="10" d="M313.99,341.16c-8.57-6.72-17.37-6.3-17.37-6.3
	c-6.1-4.04-4.12-19.77-4.12-19.77s-0.22-0.55-0.58-1.54c2.95,1.8,8.76,4.48,20.19,7.83c0.93,10.48,1.31,16.21,1.31,16.21
	S313.68,339.09,313.99,341.16z"/>
<path fill="#FFFFFF" stroke="#000000" stroke-miterlimit="10" d="M314.38,353.21c-5.22-4.46-18.79-6.17-18.79-6.17
	s-3.32-9.33,1.03-12.18c0,0,8.8-0.42,17.37,6.3C314.71,345.98,315.72,353.91,314.38,353.21z"/>
<path fill="#FFFFFF" stroke="#000000" stroke-miterlimit="10" d="M315.03,362.19c-7.65-6.42-18.41-1.07-18.41-1.07
	c-4.67-3.21-1.03-14.08-1.03-14.08s13.57,1.71,18.79,6.17C316.03,355.06,317.12,363.14,315.03,362.19z"/>
<path fill="#FFFFFF" stroke="#000000" stroke-miterlimit="10" d="M314.67,368.77c-7.46-2.54-19.06,0.22-19.49,0.32
	c0.12-1.92,0.49-6.09,1.44-7.97c0,0,10.76-5.35,18.41,1.07C317.39,365.28,315.47,367.9,314.67,368.77z"/>
<path fill="#FFFFFF" stroke="#000000" stroke-miterlimit="10" d="M316.85,373.31c-3.42-0.65-5.25-0.21-8.07,0.05
	c-3.89,0.35,0.05,2.22-11.57,3.17l-2.09-6.42c0,0,0.01-0.39,0.06-1.01v-0.01c0.43-0.1,12.03-2.86,19.49-0.32
	c-0.18,0.2-0.3,0.31-0.3,0.31S316.07,371.5,316.85,373.31z"/>
<line fill="none" stroke="#000000" stroke-miterlimit="10" x1="312.12" y1="321.38" x2="312.11" y2="321.38"/>
<path fill="none" stroke="#000000" stroke-miterlimit="10" d="M295.18,369.1C295.17,369.1,295.17,369.1,295.18,369.1"/>
<path fill="#FFFFFF" stroke="#000000" stroke-miterlimit="10" d="M328.95,446.37c0,0-0.01,0-0.02-0.01
	c-0.66-0.31-14.82-6.87-26.44-2.24c-2.03-2.93-8.9-11.07-2.62-12.31c6.52-1.28,14.68,1.57,18.15-1.82L328.95,446.37z"/>
<path fill="#FFFFFF" stroke="#000000" stroke-miterlimit="10" d="M337.87,453.76c-12.6-1.34-28.7,1.13-36.94,2.67
	c-1.43-1.72-2.37-2.82-2.37-2.82l-6.94-10.88c2.35,0.95,5.11,1.83,8.36,2.59h0.01c0.82-0.47,1.65-0.87,2.5-1.2
	c11.62-4.63,25.78,1.93,26.44,2.24c0.01,0.01,0.02,0.01,0.02,0.01s0.66,0.52,1.76,1.4C332.38,449.13,335.05,451.31,337.87,453.76z"
	/>
<path fill="#FFFFFF" stroke="#000000" stroke-miterlimit="10" d="M354.95,482.33c-8.8-7.43-16.81,12.01-16.58,12.69
	c0.16,0.49-0.71,13.27-1.11,21.25c-0.2,0.34-0.38,0.66-0.56,0.97c-2.09,3.68-5.15,9.69-8.38,16.95c0,0,0,0,0,0.01
	c-0.42,0.95-0.85,1.91-1.27,2.9c-5.25-15.48-13.99-41.2-14.81-43.51c-0.48-1.35-0.57-4.09-0.5-6.85c0-0.01,0-0.01,0-0.02
	c1.71-4.3,3.02-9.09,1.91-12.02c-1.15-3.06-4.74-8.1-8.11-12.5c8.42,0.03,26.88,1.26,45.15,10.21v0.01c0.58,1.3,1.55,3.31,3.12,6.23
	C354.53,479.98,354.87,481.12,354.95,482.33z"/>
<path fill="#FFFFFF" stroke="#000000" stroke-miterlimit="10" d="M311.74,486.72c0.09-4.01,0.5-8.07,0.5-8.07
	s-8.33-13.81-21.4-11.85c-7.38,1.11-10.44,4.58-11.7,8.01c-3.21-6.06,0.53-14.78,3.03-17.28c2.11-2.11,6.79-12.31,8.16-15.35
	c0.41,0.19,0.84,0.37,1.29,0.55l6.94,10.88c0,0,0.94,1.1,2.37,2.82c0.53,0.65,1.14,1.4,1.79,2.2c0.88,1.09,1.84,2.31,2.82,3.57
	c3.37,4.4,6.96,9.44,8.11,12.5C314.76,477.63,313.45,482.42,311.74,486.72z"/>
<path fill="#FFFFFF" stroke="#000000" stroke-miterlimit="10" d="M327.05,537.1c-5.78,13.41-11.77,30.29-13.52,44.65
	c-0.83,6.86-1.27,11.02-1.98,14.33c-0.65,3.04-1.54,5.36-3.18,8.39c-2.71,4.99-7.45,11.92-16.58,27.18
	c-10.9,18.24-16.85,39.45-20.03,55.42c-2.86,14.32-3.49,24.43-3.49,24.43s-8.74,7.67-16.36,12.77c-2.61-7.95-4.85-16.69-6.4-26.12
	c2.33,0.39,3.75,0.75,3.75,0.75s11.17-16.51-2.26-23.52c0,0-1.42,0.39-3.6,1.36c-0.3-8.52,0.03-17.45,1.18-26.75
	c0.65-0.02,0.76-0.04,0.76-0.04s14.41-9.1,2.7-18.21c0.79-3.01,1.68-5.97,2.64-8.84c1.9-5.71,4.07-11.11,6.31-16.05
	c1.31-2.89,2.64-5.62,3.96-8.15c4.44-8.55,8.7-14.92,11.25-17.91c1-1.16,1.74-1.82,2.13-1.89c2.18-4.94,6.01-22.77,5.04-30.17
	c0-0.01,0-0.01,0-0.02c3.02-15.44,4.4-56.6,4.4-56.6l4.46-7.84c0,0-5.88-3.39-9.09-9.45v-0.01c1.26-3.43,4.32-6.9,11.7-8.01
	c13.07-1.96,21.4,11.85,21.4,11.85s-0.41,4.06-0.5,8.07c0,0.01,0,0.01,0,0.02c-0.07,2.76,0.02,5.5,0.5,6.85
	C313.06,495.9,321.8,521.62,327.05,537.1z"/>
<path fill="#FFFFFF" stroke="#000000" stroke-miterlimit="10" d="M283.77,492.11c0,0-1.38,41.16-4.4,56.6
	c-0.22-1.67-0.69-2.81-1.48-3.14c-4.28-1.78-9.44,1.07-16.93,6.24c0-8.91,6.42-16.75,9.62-20.49c3.21-3.75,9.98-21.21,9.98-21.21
	s-16.93-3.74-26.55,2.49C259.53,501.38,283.77,492.11,283.77,492.11z"/>
<path fill="#FFFFFF" stroke="#000000" stroke-miterlimit="10" d="M353.46,491.89c-5.61,7.69-12.45,17.92-16.2,24.38
	c0.4-7.98,1.27-20.76,1.11-21.25c-0.23-0.68,7.78-20.12,16.58-12.69C355.12,484.61,354.36,487.18,353.46,491.89z"/>
<path fill="#FFFFFF" stroke="#000000" stroke-miterlimit="10" d="M406.51,683.01c-7.59-2.28-14.71-4.96-17.41-7.51
	c-3.27-3.11-11.23-16.49-18.97-30.62c-8.26-15.06-16.26-30.98-18.1-36.22c-0.04-0.12-0.09-0.24-0.12-0.37
	c-0.71-2.06-1.43-4.57-2.15-7.34c-2.93-11.11-6.04-26.4-9.14-33.45c-2.38-5.42-8.15-21.52-12.3-33.3c0-0.01,0-0.01,0-0.01
	c3.23-7.26,6.29-13.27,8.38-16.95c0.18-0.31,0.36-0.63,0.56-0.97c3.75-6.46,10.59-16.69,16.2-24.38c-0.77,3.98-1.63,9.5-2.14,17.68
	c-0.06,1.04-0.1,2.12-0.1,3.25c0,4.92,0.6,10.58,1.54,16.44c1.07,6.68,2.6,13.64,4.21,20.12c1.01,4.06,2.05,7.92,3.03,11.41
	c2.71,9.54,4.98,16.24,4.98,16.24s3.65,7.89,11.98,25.26c1.64,3.4,3.46,7.17,5.46,11.32c2.07,4.26,4.33,8.93,6.8,14
	c0.06,0.13,0.13,0.26,0.19,0.4c2.56,5.3,4.87,10.82,6.91,16.45c1.52,4.15,2.9,8.35,4.13,12.56c-2.56-1.02-4.01-1.1-4.1-1.01
	c-6.06,5.94,4.75,19.84,4.75,19.84s1.57-0.13,4.03-0.12C405.64,678.19,406.1,680.62,406.51,683.01z"/>
<path fill="#FFFFFF" stroke="#000000" stroke-miterlimit="10" d="M408.23,726.94c-3.8,19.01-15.69,62.73-20.44,107.41
	c-31.36-28.52-15.68-123.09-17.11-143.05c-1.14-15.96-12.3-33.44-16.73-39.08l16.18-7.34c7.74,14.13,15.7,27.51,18.97,30.62
	c2.7,2.55,9.82,5.23,17.41,7.51C409.65,701.2,410.14,717.38,408.23,726.94z"/>
<path fill="#FFFFFF" stroke="#000000" stroke-miterlimit="10" d="M323.61,666.53c-2.94-1.91-6.04-3.45-7.22-2.44
	c-1.21,1.04-4.3,2.33-7.16,3.38c-3.89-16.15-7.46-26.55-7.46-26.55s-3.32,1.43-9.98,23.29c-1.48,4.86-1.31,14.82-0.43,27.61
	c-6.98-5.91-14.28-5.83-19.6-4.75c3.18-15.97,9.13-37.18,20.03-55.42c9.13-15.26,13.87-22.19,16.58-27.18
	C313.68,614.92,322.83,637.04,323.61,666.53z"/>
<path fill="#FFFFFF" stroke="#000000" stroke-miterlimit="10" d="M286.56,833.4c7.61-33.27-23.28-78.9-31.84-101.23
	c-0.97-2.54-1.91-5.17-2.81-7.9c7.62-5.1,16.36-12.77,16.36-12.77s0.63-10.11,3.49-24.43c5.32-1.08,12.62-1.16,19.6,4.75v0.01
	C294.41,736.58,306.15,816.03,286.56,833.4z"/>
<path fill="#FFFFFF" stroke="#000000" stroke-miterlimit="10" d="M344.23,696.52c-0.78,7.61,2.22,93.15-7.09,169.19
	c-11.2-67.48-15.41-111.68-19.68-151.6c-1.89-17.6-5.16-33.91-8.23-46.64c2.86-1.05,5.95-2.34,7.16-3.38
	c1.18-1.01,4.28,0.53,7.22,2.44c1.16,0.76,2.3,1.58,3.29,2.3c1.77,1.33,3.03,2.39,3.03,2.39l8.2-10.34l5.35,8.91l2.29-3.85
	l5.26-8.81C348.99,668.5,344.82,690.81,344.23,696.52z"/>
<path fill="#FFFFFF" stroke="#000000" stroke-miterlimit="10" d="M348.36,463.83c-15.24-7.92-36.99-5.95-45.64-5.2
	c-0.65-0.8-1.26-1.55-1.79-2.2c8.24-1.54,24.34-4.01,36.94-2.67h0.01C341.9,457.21,346.21,461.14,348.36,463.83z"/>
<path fill="#FFFFFF" stroke="#000000" stroke-miterlimit="10" d="M350.69,472.41c-18.27-8.95-36.73-10.18-45.15-10.21
	c-0.98-1.26-1.94-2.48-2.82-3.57c8.65-0.75,30.4-2.72,45.64,5.2c0,0,0,0,0.01,0.01c0.53,0.68,0.93,1.28,1.16,1.77
	c2.14,4.69,0.36,4.85,0.36,4.85S350.08,471.04,350.69,472.41z"/>
<path fill="#FFFFFF" stroke="#000000" stroke-miterlimit="10" d="M370.13,644.88l-16.18,7.34l-2.92,4.9v0.01l-5.26,8.81
	c-4.68-14.9,2-43,6.14-57.65c0.03,0.13,0.08,0.25,0.12,0.37C353.87,613.9,361.87,629.82,370.13,644.88z"/>
<path fill="#FFFFFF" stroke="#000000" stroke-miterlimit="10" d="M345.77,665.94l-2.29,3.85c-7.42-27.55,1.3-56.03,6.28-68.84
	c0.72,2.77,1.44,5.28,2.15,7.34C347.77,622.94,341.09,651.04,345.77,665.94z"/>
<path fill="#FFFFFF" stroke="#000000" stroke-miterlimit="10" d="M382.09,544.21c-12.86-8-23.55-12.69-29.33-14.95
	c-0.94-5.86-1.54-11.52-1.54-16.44C356.83,516.5,369.26,525.94,382.09,544.21z"/>
<path fill="#FFFFFF" stroke="#000000" stroke-miterlimit="10" d="M377.04,571.77c-6.8-5.44-9.88-9.51-17.04-10.98
	c-0.98-3.49-2.02-7.35-3.03-11.41C362.13,551.15,374.74,556.92,377.04,571.77z"/>
<path fill="#FFFFFF" stroke="#000000" stroke-miterlimit="10" d="M272.2,580.79c-2.55,2.99-6.81,9.36-11.25,17.91
	c-2.77-4.4-7.96-11.89-11.93-13.38C257.93,578.68,268.35,579.99,272.2,580.79z"/>
<path fill="#FFFFFF" stroke="#000000" stroke-miterlimit="10" d="M256.99,606.85c-2.24,4.94-4.41,10.34-6.31,16.05
	c-5.54-2.76-13.6-6.14-18.53-5.27C237.81,607.64,250.13,606.58,256.99,606.85z"/>
<path fill="#FFFFFF" stroke="#000000" stroke-miterlimit="10" d="M245.34,649.95c0,0-0.11,0.02-0.76,0.04
	c-1.75,0.05-7.46,0.13-25.74-0.04c10.46-16.16,29.19-18.22,29.19-18.22l0.01,0.01C259.75,640.85,245.34,649.95,245.34,649.95z"/>
<path fill="#FFFFFF" stroke="#000000" stroke-miterlimit="10" d="M249.26,698.9c0,0-1.42-0.36-3.75-0.75
	c-5.21-0.87-14.96-1.88-23.34,0.75c5.04-13.4,15.65-19.68,21.23-22.16c2.18-0.97,3.6-1.36,3.6-1.36
	C260.43,682.39,249.26,698.9,249.26,698.9z"/>
<path fill="#FFFFFF" stroke="#000000" stroke-miterlimit="10" d="M426.64,680.49c-6.74-4.07-16.2-4.74-21.51-4.76
	c-2.46-0.01-4.03,0.12-4.03,0.12s-10.81-13.9-4.75-19.84c0.09-0.09,1.54-0.01,4.1,1.01v0.01
	C405.52,659.06,414.95,664.84,426.64,680.49z"/>
<path fill="#FFFFFF" stroke="#000000" stroke-miterlimit="10" d="M412.27,646.8c-4.36-2.37-10.84-2.62-15.95-2.34
	c-2.04-5.63-4.35-11.15-6.91-16.45C394.69,630.14,405.09,635.52,412.27,646.8z"/>
<path fill="#FFFFFF" stroke="#000000" stroke-miterlimit="10" d="M393.73,612.76c-2.66-1.14-8.28,0.06-11.31,0.85
	c-2-4.15-3.82-7.92-5.46-11.32C380.81,603.18,389.5,606.64,393.73,612.76z"/>
<path fill="#FFFFFF" stroke="#000000" stroke-miterlimit="10" d="M326.9,668.83c-0.99-0.72-2.13-1.54-3.29-2.3
	c-0.78-29.49-9.93-51.61-15.24-62.06c1.64-3.03,2.53-5.35,3.18-8.39C319.45,611.97,332.49,643.42,326.9,668.83z"/>
<path fill="#FFFFFF" stroke="#000000" stroke-miterlimit="10" d="M343.48,669.79l-5.35-8.91l-8.2,10.34c0,0-1.26-1.06-3.03-2.39
	c5.59-25.41-7.45-56.86-15.35-72.75c0.71-3.31,1.15-7.47,1.98-14.33c1.75-14.36,7.74-31.24,13.52-44.65
	c0.42-0.99,0.85-1.95,1.27-2.9c4.15,11.78,9.92,27.88,12.3,33.3c3.1,7.05,6.21,22.34,9.14,33.45
	C344.78,613.76,336.06,642.24,343.48,669.79z"/>
<path fill="#FFFFFF" stroke="#000000" stroke-miterlimit="10" d="M683.59,553.9c0,0,0,0,0,0.01c-9.1,13.12-24.73,37.05-28.95,52.44
	c-6.06,22.1-9.98,49.9-19.24,68.08c-4.38,8.57-9.14,17.7-12.51,26.19v0.01c-3.5,8.8-5.48,16.91-3.96,23
	c-2.02-1.21-9.37-2.73-33.79-2.51c-14.59,0.13-25.13,0.02-33.78-0.15c-15.02-0.3-24.34-0.79-39.27-0.56
	c-6.94,0.1-13.14-0.57-18.42-1.56c18.48-18.45,37.66-39.38,49.13-56.9c27.53-42.06,41.63-113.22,41.63-113.22s0.64-0.64,1.69-1.67
	c2.79-2.75,8.52-8.25,13.13-11.89c1.99-1.58,3.77-2.81,5.02-3.32c5.23-2.14,24.71,1.07,43.9-1.78
	c15.92-2.36,17.98-14.03,23.31-21.61C674.18,518.07,678.5,535.33,683.59,553.9z"/>
<path fill="#FFFFFF" stroke="#000000" stroke-miterlimit="10" d="M551.36,720.97l-25.75,77.26h-33.74h-25.42c0,0,0-12.83-9.03-41.59
	c-0.28-0.89-0.54-1.82-0.78-2.77c9.52-8.58,23.08-21.1,37.03-35.02c5.28,0.99,11.48,1.66,18.42,1.56
	C527.02,720.18,536.34,720.67,551.36,720.97z"/>
<path fill="#FFFFFF" stroke="#000000" stroke-miterlimit="10" d="M683.59,794.54c0,0-26.81-28.87-40.59-49.54
	c-4.59-6.87-12.11-24.24-20.11-44.37v-0.01c3.37-8.49,8.13-17.62,12.51-26.19c9.26-18.18,13.18-45.98,19.24-68.08
	c4.22-15.39,19.85-39.32,28.95-52.44c5.94,21.67,12.9,45.1,19.53,60.28c13.54,31.01,4.28,83.76,4.28,100.16
	c0,16.39,44.44,80.19,42.89,80.19C736.85,794.54,683.59,794.54,683.59,794.54z"/>
<path fill="#FFFFFF" stroke="#000000" stroke-miterlimit="10" d="M662.97,479.5c-2.69-0.54-6.39-1.06-10.19-1.5
	c0.13-0.22,0.25-0.45,0.37-0.68c1.63-3.06,2.48-7.8,2.87-12.9c0.04,0.05,0.07,0.11,0.1,0.16v0.01c0,0,0,0.01,0.01,0.01
	C659.11,469.44,661.24,474.43,662.97,479.5z"/>
<path fill="#FFFFFF" stroke="#000000" stroke-miterlimit="10" d="M552.51,554.79c-15.25,14.36-65.47,61.22-86.91,81.22
	c5.84-24.28,19.86-63.52,19.86-63.52s8.31-31.85,9.03-34.94c0.03-0.13,0.08-0.35,0.16-0.65
	C507.26,533.41,535.9,529.07,552.51,554.79z"/>
<path fill="#FFFFFF" stroke="#000000" stroke-miterlimit="10" d="M622.8,486.54c-8.15,7.14-18.33,16.32-25.9,21.13
	c-4.27,2.72-8.72,7.58-12.93,13.04c-3.21,4.17-6.29,8.69-9.04,12.86c-5.04,7.67-8.98,14.16-10.64,15.16
	c-3.75,2.27-6.6,0.94-7.31,1.83c-0.09,0.11-1.71,1.64-4.47,4.23c-16.61-25.72-45.25-21.38-57.86-17.89
	c1.29-5.27,9.02-35.72,12.45-49.22c1.1,12.68,3.54,21.89,3.54,21.89l6.95-12.47l-0.24-2.42c4.05,8.69,12.65,13.11,12.65,13.11
	l0.78-22.7c4.24,9.89,13.37,20.56,13.37,20.56s1.27-13.91,1.94-25.82c5.17,11.7,14.63,21.9,14.63,21.9
	c1.1-5.73,1.54-11.39,1.5-16.82l4.46,15.58c0,0,5.12-4.9,9.47-12.18c-0.64,7.73-1.18,15.03-1.18,15.03s8.75-3.04,16.73-10.53
	c0.42,5.98,0.84,11.36,0.92,11.6c0.18,0.53,14.42-15.87,21.75-24.42c1.53-1.79,2.95-4.44,4.19-7.49L622.8,486.54z"/>
<path fill="#FFFFFF" stroke="#000000" stroke-miterlimit="10" d="M586.12,547.06c-1.05,1.03-1.69,1.67-1.69,1.67
	s-14.1,71.16-41.63,113.22c-11.47,17.52-30.65,38.45-49.13,56.9c-13.95,13.92-27.51,26.44-37.03,35.02
	c-7.59-29.73,2.57-87.57,6.48-103.92c0.18-3.35,1.11-8.23,2.48-13.94c21.44-20,71.66-66.86,86.91-81.22
	c2.76-2.59,4.38-4.12,4.47-4.23c0.71-0.89,3.56,0.44,7.31-1.83c1.66-1,5.6-7.49,10.64-15.16c2.23,0.24,5.04,1.45,7.24,5.41
	C583.82,541.95,585.13,544.75,586.12,547.06z"/>
<path fill="#FFFFFF" stroke="#000000" stroke-miterlimit="10" d="M643.21,477.03c-3.41-0.29-6.13-0.47-7.18-0.49
	c0.88-1.2,1.71-2.41,2.46-3.62c1.14-1.83,2-4.27,2.66-6.95L643.21,477.03z"/>
<path fill="#FFFFFF" stroke="#000000" stroke-miterlimit="10" d="M675.32,504.42c-1.51,1.1-2.74,2.48-3.84,4.04
	c-5.33,7.58-7.39,19.25-23.31,21.61c-19.19,2.85-38.67-0.36-43.9,1.78c-1.25,0.51-3.03,1.74-5.02,3.32
	c-0.53-3.56-1.75-7.71-4.49-10.45c-3.02-3.02-7.23-4.04-10.79-4.01c4.21-5.46,8.66-10.32,12.93-13.04
	c7.57-4.81,17.75-13.99,25.9-21.13l1.09,3.61c0,0,6.88-6.45,12.13-13.61h0.01c1.05,0.02,3.77,0.2,7.18,0.49l2.64,14.19
	c0,0,1.93-3.85,6.93-13.22c3.8,0.44,7.5,0.96,10.19,1.5c1.82,0.37,3.18,0.76,3.79,1.14C669.97,482.66,689.57,494.09,675.32,504.42z"
	/>
<path fill="#FFFFFF" stroke="#000000" stroke-miterlimit="10" d="M599.25,535.17c-4.61,3.64-10.34,9.14-13.13,11.89
	c-0.99-2.31-2.3-5.11-3.95-8.08c-2.2-3.96-5.01-5.17-7.24-5.41c2.75-4.17,5.83-8.69,9.04-12.86c3.56-0.03,7.77,0.99,10.79,4.01
	C597.5,527.46,598.72,531.61,599.25,535.17z"/>
<path fill="#FFFFFF" stroke="#000000" stroke-miterlimit="10" d="M629.46,239.93c-0.01-0.02-0.02-0.04-0.04-0.07
	c-1.19-2.12-9.14-13.1-15.44-21.81c-3.74-5.18-6.9-9.56-7.69-10.79c-2.14-3.33-11.53-6.3-13.79-6.54
	c-2.25-0.23-7.24-0.83-14.01,3.33c-5.15,3.16-13.92,11.38-18.16,15.68c-1.34,1.36-2.22,2.32-2.4,2.62
	c-7.26,11.99-4.41,21.02-0.68,26.51c2.72,4.03,5.91,6.16,5.91,6.16l3.8-8.44c0,0,5.94,4.04,13.9,3.21
	c-0.36,7.01,10.93,14.5,10.93,14.5s9.39-9.15,10.7-16.76C614.01,249.67,631.12,243.02,629.46,239.93z M594.67,228.33
	c-1.51-1.18-5.97-3.1-5.97-3.1s-2.76,3.92-7.39,2.94c-4.64-0.98-7.76-9-5.88-12.74c0.27-0.76,0.63-1.48,1.05-2.16
	c-0.05-0.04-0.09-0.08-0.13-0.11c0.1-0.06,0.2-0.1,0.3-0.15c3.75-5.76,11.96-8.54,11.96-8.54c8.67,1.63,11.83,5.86,13.01,9.83
	c0.02,0.1,0.05,0.19,0.07,0.28c0.61,2.22,0.62,4.33,0.65,5.84C602.43,224.69,596.19,229.5,594.67,228.33z"/>
<path fill="#FFFFFF" stroke="#000000" stroke-miterlimit="10" d="M601.53,214.43c-0.7,0.99-1.73,2.29-2.58,2.6
	c-1.43,0.53-5.44-1.87-7.45-2.05c-2.02-0.18-6.99,1.25-9.39,1.51c-1.86,0.19-4.11-1.98-5.63-3.22c0.05-0.09,0.11-0.17,0.17-0.26
	c2.92-1.44,7.22-2.9,12.41-2.66C596.74,210.69,599.42,212.54,601.53,214.43z"/>
<path fill="#FFFFFF" stroke="#000000" stroke-miterlimit="10" d="M602.34,220.42c0.09,4.27-6.15,9.08-7.67,7.91
	c-1.51-1.18-5.97-3.1-5.97-3.1s-2.76,3.92-7.39,2.94c-4.64-0.98-7.76-9-5.88-12.74c0.27-0.76,0.63-1.48,1.05-2.16
	c1.52,1.24,3.77,3.41,5.63,3.22c2.4-0.26,7.37-1.69,9.39-1.51c2.01,0.18,6.02,2.58,7.45,2.05c0.85-0.31,1.88-1.61,2.58-2.6
	c0.06,0.06,0.11,0.1,0.16,0.15C602.3,216.8,602.31,218.91,602.34,220.42z"/>
<path fill="#FFFFFF" stroke="#000000" stroke-miterlimit="10" d="M601.62,214.3c-0.03,0.04-0.06,0.08-0.09,0.13
	c-2.11-1.89-4.79-3.74-12.47-4.08c-5.19-0.24-9.49,1.22-12.41,2.66c3.75-5.76,11.96-8.54,11.96-8.54
	C597.28,206.1,600.44,210.33,601.62,214.3z"/>
<path fill="#FFFFFF" stroke="#000000" stroke-miterlimit="10" d="M506.85,363.07c-5.1,8.62-8.88,18.55-10.27,29.9
	c0,0.01-0.01,0.01-0.01,0.01c-0.2,0.19-0.4,0.38-0.61,0.57c-3.75-9.61-1.36-27.47,0.42-37.37
	C498.95,359.02,502.36,361.41,506.85,363.07z"/>
<path fill="#FFFFFF" stroke="#000000" stroke-miterlimit="10" d="M566.98,288.94c-2.5,2.22-4.21,4.17-4.83,5.7
	c-2.43,5.97-3.21,13.73-1.08,21.75c0.13,0.47,0.29,0.97,0.48,1.49c-7.12,2.94-37.99,16.96-54.7,45.19
	c-4.49-1.66-7.9-4.05-10.47-6.89c-9.22-10.16-7.64-26.15-5.42-36.07c7.96-9.38,19.01-20.7,25.14-25.64
	c5.22-4.22,5.92-7.77,5.43-10.16c1.14-0.02,1.77,0,1.77,0L566.98,288.94z"/>
<path fill="#FFFFFF" stroke="#000000" stroke-miterlimit="10" d="M578.07,342.08c-0.39-0.06-0.65-0.13-0.77-0.21
	c-0.27-0.18-0.83-0.77-1.6-1.69c-0.44-0.52-0.95-1.15-1.51-1.86c-1.25-1.6-2.75-3.61-4.28-5.81c-0.73-1.06-1.47-2.16-2.2-3.27
	c-1.62-2.49-3.17-5.06-4.4-7.43c-0.71-1.4-1.32-2.73-1.76-3.93c-0.19-0.52-0.35-1.02-0.48-1.49c-2.13-8.02-1.35-15.78,1.08-21.75
	c0.62-1.53,2.33-3.48,4.83-5.7c1.96-1.76,4.39-3.67,7.18-5.69c-3.31,5.32-6.66,11.77-7.38,16.74
	C565.68,307.71,574.18,331.64,578.07,342.08z"/>
<path fill="#FFFFFF" stroke="#000000" stroke-miterlimit="10" d="M632.45,254.29c0.07-1.08,0.09-1.71,0.09-1.71
	s-1.14,1.99-2.91,4.64l-6,6.24l9.44-15.32c-0.42,0.21-13.99,7.11-31.71,17.63c-9.73,5.78-19.69,12.01-27.17,17.46
	c0,0-0.01,0-0.01,0.01c-0.01,0-0.01,0.01-0.02,0.01c-2.79,2.02-5.22,3.93-7.18,5.69l-43.68-4.63c3.74-3.92,34.57-16.76,34.93-17.65
	c0.31-0.78-2.93-9.63-0.98-17.8c2.72,4.03,5.91,6.16,5.91,6.16l3.8-8.44c0,0,5.94,4.04,13.9,3.21c-0.36,7.01,10.93,14.5,10.93,14.5
	s9.39-9.15,10.7-16.76c11.52,2.14,28.63-4.51,26.97-7.6c-0.01-0.02-0.02-0.04-0.04-0.07c1.06-0.2,2.88-0.36,5.63-0.03
	c0.69,0.08,1.44,0.19,2.25,0.34c3.64,0.68,6.06,1.08,7.47,1.31L632.45,254.29z"/>
</svg>
