<?xml version="1.0" encoding="utf-8"?>
<!-- Generator: Adobe Illustrator 23.0.5, SVG Export Plug-In . SVG Version: 6.00 Build 0)  -->
<svg version="1.1" baseProfile="tiny" id="Layer_1" xmlns="http://www.w3.org/2000/svg" xmlns:xlink="http://www.w3.org/1999/xlink"
	 x="0px" y="0px" viewBox="0 0 1000 1000" xml:space="preserve">
<path fill="#FFFFFF" stroke="#000000" stroke-miterlimit="10" d="M568.9,95.4c-23.5-22.5-112.3-15-112.3-15
	c1.1-7.5,10.7-11.8,25.7-18.2c11.9-5.1,6.9-20.3,4.4-26.4c-0.8-1.8,0.1-4,2-4.6c10.9-3.5,23.2,26.7,52.4,37.4
	C573.1,80.4,568.9,95.4,568.9,95.4z"/>
<path fill="#FFFFFF" stroke="#000000" stroke-miterlimit="10" d="M574.2,115.7c-24.6-11.8-128.4-7.5-128.4-7.5s-3.2-4.3-4.3-15
	c-1.1-10.7,15-12.8,15-12.8s88.8-7.5,112.3,15C580.6,106.1,574.2,115.7,574.2,115.7z"/>
<path fill="#FFFFFF" stroke="#000000" stroke-miterlimit="10" d="M609.5,156.4c2.1,5.9,1.1,9.9-0.5,12.4
	c-27.7-42.9-65.8-40.2-65.8-40.2c-82.4,9.4-119.4-4.5-130.7-10.4c0.1-12,14.1-12,14.1-12c2.1,11.8,19.3,2.1,19.3,2.1
	s103.8-4.3,128.4,7.5c3.3,0.6,6.6,1.7,9.8,3c13.8,5.8,26.5,17.2,30.8,25.9C620.2,155.3,609.5,156.4,609.5,156.4z"/>
<path fill="#FFFFFF" stroke="#000000" stroke-miterlimit="10" d="M591.3,242c0-48.1-40.6-64.2-88.8-71.7
	c-15.3-2.4-32.6,0.7-49.5,4.6c0,0-0.1,0-0.1,0c-4.7,1.1-9.4,2.3-14,3.4c-0.1,0-0.1,0-0.2,0c-17.3,4.3-33.3,8.2-44.9,6.2
	c-8.6-1.5-14.9-6.2-17.6-16.4c-6.9-26.3,12.6-36,27.2-39.6c-2.2,13.9-1.5,40.4,43.4,18.3c2.4-0.2,4.9-0.6,7.5-1.2
	c20.3-4.3,115.5-2.1,144.4,34.2c0,0,1.7,0.5,3.4-0.1l6.3,11.8C628.8,234.5,591.3,242,591.3,242z"/>
<path fill="#FFFFFF" stroke="#000000" stroke-miterlimit="10" d="M591.3,242c-2.1,9.6-6.4,21.2-14.8,20.3c-0.1,0-0.1,0-0.2,0
	c-8.6-1.1,0-13.9,0-13.9c-20.3,8.6-19.3-12.8-26.7-11.8s-1.1-15-17.1-7.5s-16-1.1-23.5-9.6c-5.4-6.2-6.9,3.3-7.3,9
	c-0.3,3.5-3.1,6.4-6.6,6.3c-9.1-0.3-11.2-20.1-19.2-22.8c-9.6-3.2-1.1,26.7-13.9,34.2s-12.8-30-23.5-35.3s-9.6,26.7-20.3,31
	c-2.1,0.8-3.9,0.7-5.3-0.1c-6.1-3.2-7.5-17-7.5-17c5.3-26.7,22.5-35.3,22.5-35.3c-17.6,2.4-28.1,20.4-32.2,29.3
	c-5.9-10.6,7.6-25,7.6-25s9.9-8.2,35.8-15.4c0.1,0,0.1,0,0.2,0c4.6-1.1,9.3-2.3,14-3.4c0,0,0.1,0,0.1,0c16.8-3.9,34.1-7,49.5-4.6
	C550.7,177.8,591.3,193.8,591.3,242z"/>
<path fill="#FFFFFF" stroke="#000000" stroke-miterlimit="10" d="M446.9,146.8c-44.8,22.1-45.6-4.5-43.4-18.3c4.2-1,8-1.6,10.7-1.8
	C420,142.5,431.1,148.3,446.9,146.8z"/>
<path fill="#FFFFFF" stroke="#000000" stroke-miterlimit="10" d="M605.2,172.4c0.3,2.4,0,4.1-0.6,5.2c-0.6,1.3-1.5,1.9-2.5,2.2
	c-1.7,0.5-3.4,0.1-3.4,0.1c-28.9-36.4-124.1-38.5-144.4-34.2c-2.6,0.5-5.1,0.9-7.5,1.2c-15.8,1.5-26.9-4.4-32.7-20.2
	c-0.2-0.4-0.3-0.9-0.5-1.3c-0.9-2.8-1.3-5.2-1.3-7.2c11.4,5.9,48.3,19.9,130.7,10.4c0,0,38.1-2.7,65.8,40.2
	C607.4,171.3,605.2,172.4,605.2,172.4z"/>
<path fill="#FFFFFF" stroke="#000000" stroke-miterlimit="10" d="M427.7,189.5c0,0-17.1,8.6-22.5,35.3c-3.2,1.1-8.6-4.3-8.6-4.3
	c-0.4-0.6-0.8-1.1-1.2-1.7C399.6,210,410,191.9,427.7,189.5z"/>
<path fill="#FFFFFF" stroke="#000000" stroke-miterlimit="10" d="M438.8,178.4c-25.9,7.3-35.8,15.4-35.8,15.4c-6,0-8.3-5.8-9.2-9.2
	C405.5,186.6,421.5,182.7,438.8,178.4z"/>
<path fill="#FFFFFF" stroke="#000000" stroke-miterlimit="10" d="M568.9,283.3l-10.7,29.3c-56.7-53.5-145.5-18.2-145.5-18.2v-29.7
	C432.1,256.6,493.5,237.9,568.9,283.3z"/>
<path fill="#FFFFFF" stroke="#000000" stroke-miterlimit="10" d="M576.5,262.3l-7.7,21c-75.4-45.4-136.8-26.7-156.2-18.6v-22.8
	c1.5,0.8,3.3,0.9,5.3,0.1c10.7-4.3,9.6-36.4,20.3-31s10.7,42.8,23.5,35.3s4.3-37.4,13.9-34.2c8,2.7,10.1,22.4,19.2,22.8
	c3.5,0.1,6.3-2.8,6.6-6.3c0.4-5.7,1.9-15.2,7.3-9c7.5,8.6,7.5,17.1,23.5,9.6s9.6,8.6,17.1,7.5s6.4,20.3,26.7,11.8
	c0,0-8.6,12.8,0,13.9C576.4,262.3,576.5,262.3,576.5,262.3z"/>
<path fill="#FFFFFF" stroke="#000000" stroke-miterlimit="10" d="M558.2,312.5l-11.8,7.5c-46-57.8-126.2-18.2-126.2-18.2l-7.5-7.5
	C412.7,294.4,501.5,259.1,558.2,312.5z"/>
<path fill="#FFFFFF" stroke="#000000" stroke-miterlimit="10" d="M543.2,332.9c-1.8-1-3.2-1.6-4.4-1.9c-6.7-2-5.8,4.9-14.8,9.4
	c-10.7,5.3-7.5-12.8-13.9-10.7s-5.3,11.8-15,8.6c-9.6-3.2-4.3-15-17.1-7.5c-12.8,7.5-7.5-16-16-5.3s-13.9,13.9-20.3,4.3
	c-6.4-9.6,0-11.8-11.8,4.3c-5.4,7.4-8.8,9.6-10.9,9.8c-2.4,0.2-3-2.3-3-2.3c-1.7-20.9,0.6-32.9,4-39.9l0.3,0.3
	c0,0,80.2-39.6,126.2,18.2C546.4,320,554.9,339.3,543.2,332.9z"/>
<path fill="#FFFFFF" stroke="#000000" stroke-miterlimit="10" d="M537.9,357.8l-1.1,35.7l0,0.4c-0.3-0.2-0.5-0.4-0.8-0.6
	c0,0,0,0-0.1,0C504.2,370.4,418,375.7,418,375.7l0.1-5.4l0.3-9.4C437.4,355.6,492.4,343.1,537.9,357.8z"/>
<path fill="#FFFFFF" stroke="#000000" stroke-miterlimit="10" d="M538.8,330.9l-0.9,26.8c-45.5-14.7-100.5-2.2-119.5,3l0.2-9.1
	l0.2-8c2.1-0.2,5.4-2.3,10.9-9.8c11.8-16,5.3-13.9,11.8-4.3c6.4,9.6,11.8,6.4,20.3-4.3s3.2,12.8,16,5.3c12.8-7.5,7.5,4.3,17.1,7.5
	c9.6,3.2,8.6-6.4,15-8.6s3.2,16,13.9,10.7C533,335.8,532.1,329,538.8,330.9z"/>
<path fill="#FFFFFF" stroke="#000000" stroke-miterlimit="10" d="M547.5,426.5c-2.1,0.8-4.6,1.3-7.5,1.6
	c-13.9,1.1-5.3-7.5-13.9-11.8s-8.6,8.6-15,2.1c-6.4-6.4-4.3-4.3-12.8-1.1c-8.6,3.2-6.4-10.7-11.8-12.8s-4.3,10.7-12.8,9.6
	c-8.6-1.1-10.7-17.1-19.3-8.6s-10.7,8.6-15,3.2c-4.3-5.3-4.3-3.2-13.9,4.3c-9.6,7.5-9.6-3.2-10.7-6.4c-1.1-3.2-8.6,9.6-8.6,9.6
	c-5.8,6.2-9.2,7.6-11.2,6.9c-3.6-1.2-2.7-9.1-2.7-9.1c-2.1-35.3,25.7-38.5,25.7-38.5s86.2-5.3,117.9,17.6l0,0c0,0,0,0,0,0
	c0.3,0.2,0.5,0.4,0.8,0.6l0-0.4c3.7,0.9,18.4,5,20.3,14.3C558.8,416.3,555.8,423.4,547.5,426.5z"/>
<path fill="#FFFFFF" stroke="#000000" stroke-miterlimit="10" d="M547.5,444.7v31.5c-4.3-2.9-8.6-5.4-12.9-7.8
	c-7.9-4.3-15.6-7.6-23.3-10.3c-6.2-2.1-12.2-3.8-18.2-5.1c-19.3-4.1-37.2-3.9-52.4-1.9c-13.9,1.8-25.4,5.2-33.8,8.2
	c-6.9,2.5-11.6,4.7-13.5,5.7c-0.3,0.2-0.5,0.3-0.7,0.4c-0.2,0.1-0.3,0.2-0.3,0.2l1.8-27.7C421.3,427.7,488.2,409.2,547.5,444.7z"/>
<path fill="#FFFFFF" stroke="#000000" stroke-miterlimit="10" d="M547.5,426.5v18.2c-59.3-35.4-126.2-17-153.3-6.8l0.8-13l0.1-1.6
	c2,0.7,5.4-0.8,11.2-6.9c0,0,7.5-12.8,8.6-9.6c1.1,3.2,1.1,13.9,10.7,6.4c9.6-7.5,9.6-9.6,13.9-4.3c4.3,5.3,6.4,5.3,15-3.2
	s10.7,7.5,19.3,8.6c8.6,1.1,7.5-11.8,12.8-9.6s3.2,16,11.8,12.8c8.6-3.2,6.4-5.3,12.8,1.1c6.4,6.4,6.4-6.4,15-2.1s0,12.8,13.9,11.8
	C542.8,427.8,545.3,427.3,547.5,426.5z"/>
<path fill="#FFFFFF" stroke="#000000" stroke-miterlimit="10" d="M604.7,177.6c0.6-1.2,0.8-2.8,0.6-5.2c0,0,2.2-1.1,3.8-3.6
	c1.6-2.5,2.7-6.5,0.5-12.4c0,0,10.7-1.1,5.3-11.8c-4.3-8.7-17.1-20.1-30.8-25.9c7.7-10.3,33.3-38.4,61.8-0.9
	c0.6,0.8,1.1,1.5,1.6,2.3c0.9,1.3,1.7,2.7,2.3,4.1C665.7,156.6,620.3,190.3,604.7,177.6z"/>
<path fill="#FFFFFF" stroke="#000000" stroke-miterlimit="10" d="M751.8,115.7c0,0-2.1,1.1-2.1,3.2c0,0-42.9-29.3-99.8,5.3
	c-0.7-1.4-1.4-2.7-2.3-4.1C657.9,114.4,715.8,84.7,751.8,115.7z"/>
<path fill="#FFFFFF" stroke="#000000" stroke-miterlimit="10" d="M351.7,242c0,0-18.2-11.8-28.9,2.1s-31,11.8-31,11.8
	c-18.2-13.9,8.6-25.7,8.6-25.7c-4.3-2.1,0-7.5,0-7.5c1.2-0.7,2.2-1.3,3.3-2c27.2-18.3,5.3-46.1,5.3-46.1S358.1,205.6,351.7,242z"/>
<path fill="#FFFFFF" stroke="#000000" stroke-miterlimit="10" d="M379.5,271.9c0,0-10,22.9-79,13c0.3-0.1,0.6-0.1,0.9-0.1
	c29.4-3.9,58.8-6.9,72.6-28C376.7,260.7,378.7,265.6,379.5,271.9z"/>
<path fill="#FFFFFF" stroke="#000000" stroke-miterlimit="10" d="M374,256.7c-13.8,21.1-43.2,24.1-72.6,28c-0.3,0-0.6,0.1-0.9,0.1
	c-19.4,2.9-38.6,15.3-50.7,24.5c1-2.2,1.8-4.7,2.4-7.6c0.4-2,1.3-4.2,2.6-6.6c9.1-16.5,37-39.4,37-39.4s20.3,2.1,31-11.8
	s28.9-2.1,28.9-2.1S365.8,244.4,374,256.7z"/>
<path fill="#FFFFFF" stroke="#000000" stroke-miterlimit="10" d="M418.9,343.7l-0.2,8c-35.4-7.6-119.8-3.4-145.1,3.6
	c-25.8,7.2-24.7,29.4-24.6,30.9l0,0.1c-10.3-1.7-11-16.6-14.2-27.9c10.2-14.1,35.4-43.2,70.8-48c44.1-6,84.5,3,107-19.6v3.6l7.2,7.2
	c-3.4,6.9-5.7,19-4,39.9C415.9,341.4,416.5,343.9,418.9,343.7z"/>
<path fill="#FFFFFF" stroke="#000000" stroke-miterlimit="10" d="M412.7,280.7v10.1c-22.5,22.6-62.9,13.6-107,19.6
	c-35.5,4.8-60.6,34-70.8,48c-0.8-2.7-1.7-5.3-3-7.4c-0.2-0.4-0.4-0.7-0.6-1.1c9.6-15.4,34.3-46.5,77.6-48.1
	c54.5-2,91.9-3.1,101.3-23C411,279.4,411.9,280,412.7,280.7z"/>
<path fill="#FFFFFF" stroke="#000000" stroke-miterlimit="10" d="M410.2,278.9c-9.4,19.9-46.8,21-101.3,23
	c-43.3,1.6-68,32.7-77.6,48.1c-4.9-9.8,8-12,7-19.2c-0.9-6.2,7-10.9,11.5-21.3c12.1-9.3,31.4-21.7,50.7-24.5c69,10,79-13,79-13
	S395.6,268.8,410.2,278.9z"/>
<path fill="#FFFFFF" stroke="#000000" stroke-miterlimit="10" d="M418.7,351.7l-0.2,9.1l-0.3,9.4c-7.6-0.8-15.2-1.2-22.7-1.3
	c0.4-1.9,0.5-4,0.1-6.1c-2.1-11.8-16-12.8-16-12.8s-12.7,10.5-10.6,19.7c-54,3.8-101.7,20.1-119.2,26.7c-0.5-6.2-0.7-10-0.7-10
	l0-0.1c-0.1-1.5-1.2-23.7,24.6-30.9C298.9,348.3,383.2,344.1,418.7,351.7z"/>
<path fill="#FFFFFF" stroke="#000000" stroke-miterlimit="10" d="M418.2,370.2l-0.1,5.4c0,0-27.8,3.2-25.7,38.5c0,0-0.9,7.9,2.7,9.1
	l-0.1,1.6c-10.7,0.8-22.5,2.1-34.8,3.6c-39.1,4.7-82,11.6-101.5,14.9c-1.6-4.8-2.9-9.8-4-14.8c18.6,6.4,32-12.6,23.2-27.3
	c-6.8-11.4-20.1-2.3-27.2,3.9c-0.4-3.3-0.7-6.3-1-8.9c17.5-6.6,65.2-23,119.2-26.7c0.5,2.1,1.8,4.2,4.2,6
	c10.5,7.9,20.4,2.1,22.4-6.7C403,369,410.6,369.5,418.2,370.2z"/>
<path fill="#FFFFFF" stroke="#000000" stroke-miterlimit="10" d="M392.4,465.8c-4.8,8.7-12.6,13.4-22.2,15.8
	c-10.8,2.6-23.9,2.3-37.5,1.2c-11.1-8.9-30.2-9.5-42.2-3.4c-15.9-1.2-25.8-17.4-31.9-36c19.5-3.3,62.4-10.3,101.5-14.9
	c-3.3,4-5.2,9.8-2.1,17.9c0,0-5.3,21.4,16,22.5C374.2,468.7,383.7,472.8,392.4,465.8z"/>
<path fill="#FFFFFF" stroke="#000000" stroke-miterlimit="10" d="M395.5,368.9c-2,8.8-11.8,14.6-22.4,6.7c-2.4-1.8-3.7-3.9-4.2-6
	c-2.1-9.1,10.6-19.7,10.6-19.7s13.9,1.1,16,12.8C396,364.9,395.9,367,395.5,368.9z"/>
<path fill="#FFFFFF" stroke="#000000" stroke-miterlimit="10" d="M254.7,428.6c-1.8-0.6-3.7-1.5-5.6-2.7c0,0-11.8-8.6-3.2-16
	c0,0,1.9-2.1,4.8-4.7c7.1-6.2,20.4-15.3,27.2-3.9C286.7,415.9,273.3,435,254.7,428.6z"/>
<path fill="#FFFFFF" stroke="#000000" stroke-miterlimit="10" d="M300.4,446.3c0,0-15,5.3-10.7,18.2S326,459.1,300.4,446.3z"/>
<path fill="#FFFFFF" stroke="#000000" stroke-miterlimit="10" d="M394.1,437.8l-1.8,27.7c0,0,0.1-0.1,0.3-0.2
	c-0.1,0.1-0.2,0.3-0.2,0.4c-8.7,7-18.2,2.9-18.2,2.9c-21.4-1.1-16-22.5-16-22.5c-3.1-8-1.2-13.8,2.1-17.9
	c12.2-1.5,24.1-2.7,34.8-3.6L394.1,437.8z"/>
<path fill="#FFFFFF" stroke="#000000" stroke-miterlimit="10" d="M300.4,222.7c0,0-4.3,5.3,0,7.5c0,0-26.7,11.8-8.6,25.7
	c0,0-27.9,22.9-37,39.4c-31.9-11.3-30.8-40.3-16.8-66.1c1.3-2.4,2.7-4.7,4.1-7c0.8-1.3,1.7-2.5,2.6-3.8c16.4-23.4,47.6-5.4,58.9,2.3
	C302.6,221.4,301.5,222,300.4,222.7z"/>
<path fill="#FFFFFF" stroke="#000000" stroke-miterlimit="10" d="M242.2,222.2c-1.5,2.3-2.9,4.6-4.1,7
	c-88.4-39.2-146.3,4.2-146.3,4.2l-6.4-5.3C129.5,189.6,220.6,215.3,242.2,222.2z"/>
<path fill="#FFFFFF" stroke="#000000" stroke-miterlimit="10" d="M347.9,533c0,0.6,0,1.3,0,1.9c0,0.5,0,1.1,0,1.6
	c0,0.6,0,1.3-0.1,1.9v0c0,0.1,0,0.2,0,0.2c0,0.6-0.1,1.2-0.1,1.8c0,0.6-0.1,1.2-0.1,1.8c0,0.2,0,0.4-0.1,0.6
	c-0.1,0.6-0.1,1.1-0.2,1.7c-0.1,0.4-0.1,0.9-0.2,1.3c0,0.4-0.1,0.7-0.1,1.1c-0.1,0.6-0.2,1.2-0.3,1.8c-0.1,0.6-0.2,1.1-0.3,1.7
	c-0.2,1.3-0.5,2.5-0.8,3.7c-0.1,0.6-0.3,1.2-0.5,1.8v0c-0.2,0.6-0.3,1.2-0.5,1.7c-0.2,0.6-0.4,1.1-0.6,1.7c-0.6,1.8-1.3,3.4-2.1,5
	c-0.1,0.3-0.3,0.7-0.5,1c-0.3,0.6-0.6,1.1-0.9,1.6c-0.2,0.3-0.3,0.6-0.5,0.8c-0.1,0.2-0.3,0.4-0.4,0.6c-0.6,0.9-1.3,1.8-1.9,2.5
	c-2.3-2.3-4.8-4.3-7.4-6.2c19.5-25.7,10.4-68.9-2.1-75.7c-13.9-7.5-30-1.1-32.1,10.7c-2.1,11.8,30,9.6,31,2.1
	c1.1-7.5-15-11.8-19.3-7.5c-2.1,2.1-1.6,4-0.5,5.3c1.3,1.6,3.3,2.5,5.4,2.7c1.7,0.1,3.1-0.3,5.2-1c0.4-0.1,0.7,0.4,0.4,0.6
	c-3.6,2.9-14.7,6.3-15.7-5.5c-0.6-6.5,15.6-11.6,24.6-4.3c10.7,8.7,21.4,43.1-1.7,69.4c-0.5-0.3-1-0.6-1.5-0.8
	c-0.5-0.2-1-0.5-1.4-0.7c-2.1-1-2.7-1.2-3.3-1.5h0c-0.4-0.2-0.8-0.3-1.3-0.5c-0.2-0.1-0.3-0.1-0.5-0.2c-0.3-0.1-0.5-0.2-0.8-0.3
	c-0.4-0.1-0.9-0.3-1.3-0.4c-0.4-0.1-0.9-0.3-1.3-0.4c-0.4-0.1-0.9-0.3-1.4-0.4c-0.5-0.1-0.9-0.2-1.4-0.3c-0.4-0.1-0.7-0.2-1.1-0.2
	c-0.6-0.1-1.1-0.2-1.7-0.3c6.3-6.2,16-19.7,12.2-42c0,0-28.9,17.1-39.6-11.8c-3.9-10.5,1-18.2,9.4-22.5c12-6.2,31.1-5.5,42.2,3.4
	c2.5,2,4.6,4.5,6.1,7.4c3.9,7.6,6.7,17.4,8,27.7C347.6,522.8,347.9,527.9,347.9,533z"/>
<path fill="#FFFFFF" stroke="#000000" stroke-miterlimit="10" d="M330.3,564.7c-1.6-1.1-3.2-2.1-4.8-3.1
	c23.1-26.3,12.4-60.6,1.7-69.4c-9-7.3-25.2-2.2-24.6,4.3c1.1,11.8,12.2,8.4,15.7,5.5c0.3-0.3,0-0.8-0.4-0.6c-2.1,0.7-3.5,1.1-5.2,1
	c-2.1-0.1-4.1-1-5.4-2.7c-1.1-1.3-1.6-3.2,0.5-5.3c4.3-4.3,20.3,0,19.3,7.5c-1.1,7.5-33.2,9.6-31-2.1c2.1-11.8,18.2-18.2,32.1-10.7
	C340.7,495.8,349.8,539,330.3,564.7z"/>
<path fill="#FFFFFF" stroke="#000000" stroke-miterlimit="10" d="M367.9,648.4c-3.2-0.3-6.5-0.1-9.7,0.6c-1.2,0.2-2.4,0.5-3.5,0.9
	c-0.4,0.1-0.9,0.3-1.5,0.5c-9.4-0.7-22.5-1.6-36.9-2.1c-22.2-0.9-47.4-1.1-66.8,1.1c-12.7,1.4-23,3.8-28.3,7.6c0,0-0.5-3.7-0.7-9.6
	c0-0.2,0-0.4,0-0.6c-0.4-18,2.8-55.5,33.2-77c1.9,2.5,4.5,6,7.4,10c0.2,0.3,0.4,0.6,0.6,0.9c0.4,0.6,0.8,1.2,1.3,1.8
	c0.2,0.3,0.4,0.6,0.6,0.9c1.3,1.9,2.6,3.8,4,5.8c0.4,0.7,0.9,1.3,1.3,2c0,0.1,0.1,0.1,0.1,0.2c0.6,1,1.3,2,1.9,3
	c0.7,1.1,1.4,2.3,2.2,3.4c0.4,0.6,0.8,1.3,1.2,1.9c1.2,1.9,2.3,3.8,3.4,5.7c0.4,0.6,0.7,1.3,1.1,1.9c1.9,3.4,3.8,6.8,5.3,10.1
	c0.2,0.5,0.4,0.9,0.6,1.4c0,0.1,0.1,0.1,0.1,0.2c0.2,0.4,0.4,0.9,0.6,1.3c0.1,0.3,0.3,0.7,0.4,1c0.2,0.5,0.4,1,0.6,1.5
	c0.3,0.7,0.5,1.4,0.8,2.1c0.3,0.8,0.5,1.5,0.8,2.2c0.1,0.3,0.2,0.6,0.3,0.9c0.1,0.3,0.2,0.6,0.3,0.9c0.1,0.5,0.3,1,0.4,1.4
	c0,0.1,0.1,0.2,0.1,0.3c0.3,1.2,2,1.2,2.3,0c0-0.1,0.1-0.2,0.1-0.3c0.5-1.9,1-4.2,1.6-6.8c0.1-0.3,0.1-0.5,0.2-0.8
	c0.1-0.3,0.1-0.7,0.2-1c0.1-0.4,0.1-0.7,0.2-1.1c0.3-1.4,0.6-3,0.8-4.6c0.1-0.8,0.3-1.6,0.4-2.4c0.4-2.7,0.7-5.4,1-8.3
	c0.1-0.7,0.1-1.4,0.2-2.1c0,0,0-0.1,0-0.1c0.1-0.9,0.1-1.8,0.2-2.7c0-0.8,0.1-1.6,0.1-2.4c0.2-5.8,0-11.7-0.8-17.4
	c-0.1-1-0.3-2-0.5-2.9c-0.5-2.6-1.1-5.2-1.9-7.7c-0.1-0.4-0.2-0.8-0.4-1.2c-1.3-3.9-3.1-7.5-5.3-10.8c-0.4-0.7-0.9-1.3-1.4-1.9
	c2.2-0.4,4.4-0.8,6.5-1c0.4,0.7,0.9,1.6,1.3,2.4c0.2,0.4,0.5,0.8,0.7,1.3c0.1,0.2,0.2,0.4,0.4,0.7c0.1,0.2,0.3,0.5,0.4,0.7
	c0.2,0.3,0.3,0.6,0.5,0.9c10.4,19.4,29.3,58.3,31.2,65.9c1.1,4.4,3.6,6.7,5.9,6.1c1.9-0.5,3.8-2.9,4.6-7.6c0.1-0.3,0.1-0.6,0.1-1
	c0-0.1,0-0.2,0-0.4c0.1-0.7,0.1-1.3,0.2-2.1c0.1-1.3,0.1-2.6,0-4.1c0-0.7-0.1-1.3-0.1-2c0-0.6-0.1-1.2-0.1-1.8
	c-1.9-18.8-9.5-43.3-18.6-55.5c0.6,0.2,1.2,0.5,3.3,1.5c0.5,0.2,1,0.5,1.4,0.7c0.5,0.3,1,0.5,1.5,0.8c1.7,0.9,3.3,2,4.8,3.1
	c2.6,1.9,5.1,4,7.4,6.2c7,6.9,12.7,15.3,17,24.3c4.4,8.9,7.5,18.3,9.6,26.9C366.9,632.6,368,642,367.9,648.4z"/>
<path fill="#FFFFFF" stroke="#000000" stroke-miterlimit="10" d="M296.3,598c0,0.8-0.1,1.6-0.1,2.4c-0.1,0.9-0.1,1.8-0.2,2.7
	c0,0,0,0.1,0,0.1c-0.1,0.7-0.1,1.4-0.2,2.1c-0.3,2.9-0.6,5.7-1,8.3c-0.1,0.8-0.3,1.6-0.4,2.4c-0.3,1.6-0.5,3.1-0.8,4.6
	c-0.1,0.4-0.1,0.7-0.2,1.1c-0.1,0.4-0.1,0.7-0.2,1c-0.1,0.3-0.1,0.6-0.2,0.8c-0.5,2.6-1.1,4.9-1.6,6.8c-0.3,1.3-2.2,1.3-2.5,0
	c-0.1-0.5-0.2-0.9-0.4-1.4c-0.1-0.3-0.2-0.6-0.3-0.9c-0.1-0.3-0.2-0.6-0.3-0.9c-0.2-0.7-0.5-1.5-0.8-2.2c-0.2-0.7-0.5-1.4-0.8-2.1
	c-0.2-0.5-0.4-1-0.6-1.5c-0.1-0.3-0.3-0.7-0.4-1c-0.2-0.4-0.4-0.9-0.6-1.3c0-0.1-0.1-0.1-0.1-0.2c-0.2-0.4-0.4-0.9-0.6-1.4
	c-1.5-3.3-3.3-6.7-5.3-10.1c-0.4-0.6-0.7-1.3-1.1-1.9c-1.1-1.9-2.2-3.8-3.4-5.7c-0.4-0.7-0.8-1.3-1.2-1.9c-0.7-1.1-1.4-2.3-2.2-3.4
	c-0.6-1-1.3-2-1.9-3c0-0.1-0.1-0.1-0.1-0.2c-0.4-0.7-0.9-1.4-1.3-2c-1.4-2-2.7-4-4-5.8c-0.2-0.3-0.4-0.6-0.6-0.9
	c-0.4-0.6-0.9-1.2-1.3-1.8c-0.2-0.3-0.4-0.6-0.6-0.9c-2.9-4-5.4-7.5-7.4-10c0.5-0.3,0.9-0.7,1.4-1c8,10.2,29.8,39.1,33.9,52.9
	c0.2,0.6,1,0.5,1-0.1c1-13.2,2.9-52-7.9-64.5c1.3-0.3,2.6-0.6,3.9-0.9c0.5,0.6,1,1.3,1.4,1.9c2.2,3.3,4,6.9,5.3,10.8
	c0.1,0.4,0.3,0.8,0.4,1.2c0.8,2.5,1.4,5,1.9,7.7c0.2,1,0.3,1.9,0.5,2.9C296.4,586.3,296.5,592.3,296.3,598z"/>
<path fill="#FFFFFF" stroke="#000000" stroke-miterlimit="10" d="M290.1,621.5c0,0.6-0.9,0.7-1,0.1c-4.1-13.8-25.9-42.6-33.9-52.9
	c6.9-4.7,15.1-8.5,24.9-11.2c0.7-0.2,1.4-0.4,2.1-0.5C292.9,569.4,291.1,608.2,290.1,621.5z"/>
<path fill="#FFFFFF" stroke="#000000" stroke-miterlimit="10" d="M338,622.1c0,0.7-0.1,1.4-0.2,2.1c0,0.1,0,0.2,0,0.4
	c-0.7,5.2-2.7,8-4.7,8.6c-2.3,0.6-4.8-1.6-5.9-6.1c-1.9-8.7-21.4-47.9-31.7-66.8c-0.1-0.2-0.2-0.5-0.4-0.7c-0.1-0.2-0.2-0.5-0.4-0.7
	c-0.2-0.4-0.5-0.9-0.7-1.3c-0.5-0.9-0.9-1.7-1.3-2.4c1.1-0.1,2.2-0.2,3.3-0.2c5.2,10.2,32.4,64.3,33.4,71.1c1.1,7.5,7.5,2.1,6.4-5.3
	c-1.1-7.5-1.1-21.4-4.3-27.8c-2.6-5.3-11.1-27.2-14-34.8c0.2,0.1,0.4,0.1,0.5,0.2c0.4,0.2,0.9,0.3,1.3,0.5h0
	c9.1,12.2,16.7,36.8,18.6,55.5c0.1,0.6,0.1,1.2,0.1,1.8c0.1,0.7,0.1,1.4,0.1,2C338.1,619.5,338.1,620.8,338,622.1z"/>
<path fill="#FFFFFF" stroke="#000000" stroke-miterlimit="10" d="M329.3,626c-1-6.8-28.2-60.8-33.4-71.1c4.4-0.2,8.6,0,12.6,0.7
	c0.6,0.1,1.2,0.2,1.7,0.3c0.4,0.1,0.7,0.1,1.1,0.2c0.5,0.1,0.9,0.2,1.4,0.3c0.5,0.1,0.9,0.2,1.4,0.4c0.4,0.1,0.9,0.3,1.3,0.4
	c0.4,0.1,0.9,0.3,1.3,0.4c0.3,0.1,0.5,0.2,0.8,0.3c2.9,7.6,11.3,29.6,14,34.8c3.2,6.4,3.2,20.3,4.3,27.8
	C336.7,628.1,330.3,633.4,329.3,626z"/>
<path fill="#FFFFFF" stroke="#000000" stroke-miterlimit="10" d="M406.9,459.3c-9.3,20.1-39.2,70.3-48.9,80.6
	c-1.1-0.6-2.2-1-3.3-1.2c0.4-8.2,7.1-30.5,12.1-46.1c1.4-4.3,2.6-8.1,3.5-10.9c9.6-2.4,17.4-7.1,22.2-15.8c0.1-0.1,0.2-0.3,0.2-0.4
	c0.2-0.1,0.4-0.2,0.7-0.4C395.3,464,400,461.8,406.9,459.3z"/>
<path fill="#FFFFFF" stroke="#000000" stroke-miterlimit="10" d="M509.3,497.5c0,0.7,0,1.3,0,1.9c0,0.5,0,1.1-0.1,1.6
	c0,0.5-0.1,1.1-0.1,1.6c0,0.3,0,0.6-0.1,0.9c-0.1,0.9-0.2,1.7-0.3,2.6c-0.1,0.7-0.2,1.4-0.3,2.1c-0.1,0.5-0.2,0.9-0.2,1.4
	c-0.1,0.5-0.2,1-0.3,1.4c-0.1,0.5-0.2,1.1-0.3,1.6c-0.1,0.5-0.2,1.1-0.4,1.6c-0.1,0.5-0.3,1.1-0.4,1.6c-0.1,0.6-0.3,1.2-0.5,1.7
	c-0.1,0.5-0.3,0.9-0.4,1.4c-0.1,0.5-0.3,0.9-0.4,1.4c-0.4,1.1-0.7,2.1-1.1,3.1c-0.6-0.1-1.2-0.1-1.9-0.1c-8.3,0-15,6.7-15,15
	c0,3.9,1.5,7.5,4,10.2c-0.1,0.1-0.2,0.3-0.2,0.4c-0.3,0.5-0.6,0.9-0.9,1.4c-1.5,2.3-2.8,4.4-3.9,6.2c-10.4,17-79.7,57.2-96,66.5
	c-0.8-0.4-1.7-0.7-2.5-0.9c4.1-13.2,21-69.5,24.8-105.2c2.9-27.9,18.5-52.9,28-65.7c15.2-2,33.1-2.2,52.4,1.9c0.7,1,1.5,2,2.2,3
	c0.7,1,1.3,2,2,2.9c0.9,1.5,1.8,2.9,2.7,4.4c1.2,2.1,2.2,4.1,3.2,6.2c0.3,0.7,0.6,1.3,0.9,2c0.9,2,1.6,4,2.2,6
	c0.1,0.3,0.2,0.6,0.3,1c0.1,0.3,0.2,0.5,0.2,0.8c0.3,1.1,0.6,2.3,0.9,3.4c0.6,2.4,1,4.8,1.3,7.2c0.1,0.8,0.2,1.6,0.2,2.4
	C509.3,494,509.3,495.8,509.3,497.5z"/>
<path fill="#FFFFFF" stroke="#000000" stroke-miterlimit="10" d="M560.5,544.1c-0.1,1.1-0.2,1.6-0.2,1.6c-0.6-0.2-1.3-0.4-1.9-0.8
	c-4.8-2.7-9-10.1-11.7-19.5c3.6-1.7,6.1-5.4,6.1-9.7c0-5.9-4.8-10.7-10.7-10.7c-0.2,0-0.4,0-0.6,0c-6.7-15-23.1-37.5-30.2-47
	c7.6,2.7,15.4,6.1,23.3,10.3c0.5,4.1,2.4,8.9,5,14.1c1.4,2.8,3,5.8,4.7,8.9c0.2,0.4,0.5,0.9,0.7,1.3c0.7,1.3,1.4,2.6,2.2,4
	c0.4,0.7,0.7,1.3,1.1,2c0.5,0.9,1,1.8,1.5,2.7c0.5,1,1.1,2,1.6,3c0.9,1.6,1.7,3.3,2.6,4.9c0.2,0.4,0.4,0.7,0.5,1.1
	c0.9,1.8,1.6,3.6,2.3,5.4c0.2,0.6,0.4,1.2,0.6,1.8c0.1,0.3,0.2,0.7,0.3,1c0.1,0.3,0.2,0.7,0.3,1c0.1,0.3,0.2,0.7,0.3,1
	s0.2,0.6,0.3,1c0.4,1.4,0.7,2.8,1,4.2c0.1,0.3,0.1,0.6,0.2,0.8c0,0.2,0.1,0.3,0.1,0.5c0.1,0.3,0.1,0.6,0.2,0.9
	c0.1,0.6,0.2,1.2,0.3,1.7c0,0.3,0.1,0.6,0.1,0.8c0.1,0.5,0.1,1.1,0.2,1.6c0,0.3,0.1,0.5,0.1,0.8c0.1,0.5,0.1,1.1,0.1,1.6
	c0,0.2,0,0.4,0,0.7c0,0.2,0,0.4,0,0.6c0,0.2,0,0.4,0,0.6C560.9,539.8,560.7,542.5,560.5,544.1z"/>
<path fill="#FFFFFF" stroke="#000000" stroke-miterlimit="10" d="M380.6,565l-16.2,57.2c-2.1-8.7-5.3-18-9.6-26.9
	C360.8,583,370.2,568,380.6,565z"/>
<path fill="#FFFFFF" stroke="#000000" stroke-miterlimit="10" d="M340.6,566.9c0.3-0.5,0.6-1.1,0.9-1.6c0.2-0.3,0.3-0.6,0.5-1
	c0.8-1.6,1.5-3.2,2.1-5c0.2-0.6,0.4-1.1,0.6-1.7c0.2-0.6,0.4-1.2,0.5-1.7v0c0.2-0.6,0.3-1.2,0.5-1.8c0.3-1.2,0.6-2.5,0.8-3.7
	c0.1-0.5,0.2-1.1,0.3-1.7c0.1-0.6,0.2-1.2,0.3-1.8c0.1-0.4,0.1-0.7,0.1-1.1c0.1-0.4,0.1-0.9,0.2-1.3c0.1-0.6,0.1-1.1,0.2-1.7
	c0-0.2,0-0.4,0.1-0.6c0.1-0.6,0.1-1.2,0.1-1.8c0-0.6,0.1-1.2,0.1-1.8c0-0.1,0-0.2,0-0.2c2-0.2,4.4-0.3,6.8,0.3
	c1.1,0.2,2.2,0.6,3.3,1.2c3.2,1.7,5.9,5.1,6.6,11.2C366.4,566.5,346.6,569.6,340.6,566.9z"/>
<path fill="#FFFFFF" stroke="#000000" stroke-miterlimit="10" d="M347.9,533c0-5-0.3-10.2-1-15.2c3.7-7.1,11-19.2,19.8-25.3
	c-5,15.6-11.7,37.9-12.1,46.1c-2.4-0.6-4.8-0.5-6.8-0.3v0c0-0.6,0.1-1.2,0.1-1.9c0-0.5,0-1.1,0-1.6
	C347.9,534.2,347.9,533.6,347.9,533z"/>
<path fill="#FFFFFF" stroke="#000000" stroke-miterlimit="10" d="M567.1,566.7c-0.3,2-0.6,3.8-0.8,5.3c-3.5,2.3-6.7,5.3-9.6,8.8
	c-0.9,1.1-1.8,2.3-2.7,3.6c-2.9-6.4-8.9-15.9-18.4-13c0,0,0,0.1-0.1,0.4c0,0.1,0,0.2-0.1,0.3c0,0.1-0.1,0.2-0.1,0.3
	c0,0.1-0.1,0.3-0.1,0.4c-0.1,0.5-0.3,1.1-0.5,1.8c-0.1,0.3-0.2,0.6-0.3,1c-0.4,1.6-1,3.5-1.7,5.8c-0.2,0.6-0.4,1.1-0.6,1.7
	c-0.5,1.7-1.2,3.5-1.9,5.4c-0.5,1.3-1,2.7-1.5,4c-0.2,0.5-0.4,0.9-0.5,1.4c-3.1-6.4-9.7-10.8-17.3-10.8c-10.6,0-19.3,8.6-19.3,19.3
	s8.6,19.3,19.3,19.3c1.3,0,2.5-0.1,3.6-0.4c-1,1.6-2,3.1-3.1,4.6c-0.3,0.4-0.6,0.8-0.9,1.3c-0.5,0.7-1.1,1.5-1.7,2.2
	c-0.4,0.5-0.8,1-1.2,1.5c-0.4,0.5-0.8,1-1.3,1.5c-0.4,0.5-0.8,1-1.3,1.5c-0.3,0.3-0.6,0.7-0.9,1c-0.5,0.6-1,1.1-1.6,1.6
	c-0.5,0.5-1,1-1.5,1.5c-0.3,0.3-0.5,0.5-0.8,0.7c-0.4,0.4-0.8,0.7-1.2,1.1c-0.3,0.3-0.6,0.5-0.9,0.8c-0.1,0.1-0.3,0.2-0.4,0.4
	c-0.3,0.2-0.5,0.4-0.8,0.6c-0.5,0.4-1,0.8-1.6,1.2c-0.3,0.2-0.7,0.5-1,0.7c-1,0.7-2,1.4-3.1,2c-4.2-11.1-15.1-14.2-23.8-14.8
	c-9-0.6-18.1,2.3-24.5,8.6c-12.9,12.6-6.7,28.6-2.1,36.8c-7.1,1.3-14.2,2.7-21.4,4l-3,0.6l-3,0.5c-2,0.4-3.9,0.7-5.9,1.1l-5.9,0.9
	c-2,0.3-3.9,0.5-5.9,0.8c-7.8,0.9-15.7,1.3-23.2,0.8c-3.7-0.4-7.3-0.9-10.6-1.9c-3.2-1-6.1-2.4-7.9-4.2c-1.9-1.8-2.9-3.9-3-6.6
	c-0.1-1.3,0.2-2.8,0.6-4.2c0.2-0.7,0.5-1.4,0.8-2.2c0.4-0.7,0.7-1.4,1.1-2c0.8-1.3,1.8-2.5,2.8-3.3c0.2-0.1,0.5-0.4,0.7-0.5
	c0.2-0.1,0.3-0.3,0.8-0.4c0.8-0.3,1.6-0.7,2.4-0.9c3.3-1.1,6.9-1.5,10.4-1.2c3.5,0.3,6.8,1.5,9,3.6c2.2,2,3,5.4,2.4,9
	c-0.3,1.8-0.8,3.5-1.8,4.9c-1,1.4-2.4,2.5-4.2,3.2c-1.7,0.7-3.7,1-5.7,1c-2,0-4.1-0.2-6.1-0.6c1.9,0.9,3.9,1.6,6,1.9
	c2.1,0.4,4.3,0.5,6.6,0.1c1.1-0.2,2.2-0.6,3.3-1.1c1.1-0.5,2.1-1.3,2.9-2.1c1.8-1.7,2.9-3.9,3.7-6.1c0.7-2.2,1.2-4.6,0.9-7.2
	c-0.1-1.3-0.5-2.5-0.9-3.8c-0.5-1.2-1.1-2.4-1.9-3.5c-1.6-2.1-3.6-3.8-5.8-5c-2.2-1.2-4.5-2-6.8-2.6c-1.5-0.3-3-0.6-4.5-0.7
	c0.1-6.4-1-15.8-3.5-26.2l16.2-57.2c-10.4,3.1-19.7,18-25.8,30.2c-4.4-8.9-10-17.4-17-24.3c0.7-0.8,1.3-1.6,1.9-2.5
	c0.1-0.2,0.3-0.4,0.4-0.6c0.2-0.3,0.3-0.6,0.5-0.8c6,2.7,25.8-0.4,24-15.9c-0.7-6.2-3.4-9.5-6.6-11.2c9.8-10.2,39.7-60.5,48.9-80.6
	c8.4-3,19.9-6.3,33.8-8.2c-9.4,12.8-25,37.8-28,65.7c-3.8,35.7-20.7,92-24.8,105.2c-1-0.2-2-0.4-3-0.4c-7.1,0-12.8,5.7-12.8,12.8
	c0,7.1,5.7,12.8,12.8,12.8s12.8-5.7,12.8-12.8c0-5.1-3-9.5-7.3-11.6c16.3-9.3,85.7-49.5,96-66.5c1.1-1.9,2.5-4,3.9-6.2
	c0.3-0.5,0.6-0.9,0.9-1.4c0.1-0.1,0.2-0.2,0.2-0.4c2.7,3,6.6,4.8,11,4.8c8.3,0,15-6.7,15-15c0-7.6-5.7-13.9-13.1-14.9
	c0.4-1,0.7-2.1,1.1-3.1c0.1-0.5,0.3-0.9,0.4-1.4c0.1-0.4,0.3-0.9,0.4-1.4c0.2-0.6,0.3-1.2,0.5-1.7c0.1-0.5,0.3-1,0.4-1.6
	c0.1-0.5,0.3-1.1,0.4-1.6c0.1-0.5,0.2-1.1,0.3-1.6c0.1-0.5,0.2-1,0.3-1.4c0.1-0.5,0.2-0.9,0.2-1.4c0.1-0.7,0.2-1.4,0.3-2.1
	c0.1-0.8,0.2-1.7,0.3-2.6c0-0.3,0.1-0.6,0.1-0.9c0-0.5,0.1-1,0.1-1.6c0-0.5,0.1-1.1,0.1-1.6c0-0.6,0-1.3,0-1.9
	c0-1.7-0.1-3.5-0.2-5.3c-0.1-0.8-0.1-1.6-0.2-2.4c-0.3-2.4-0.7-4.7-1.3-7.2c-0.3-1.1-0.6-2.3-0.9-3.4c-0.1-0.3-0.2-0.6-0.2-0.8
	c-0.1-0.3-0.2-0.6-0.3-1c-0.6-2-1.4-4-2.2-6c-0.3-0.7-0.6-1.3-0.9-2c-0.9-2-2-4.1-3.2-6.2c-0.2-0.4-0.4-0.7-0.6-1.1
	c-0.4-0.7-0.9-1.5-1.3-2.2c-0.2-0.4-0.5-0.7-0.7-1.1c-0.6-1-1.3-1.9-2-2.9c-0.7-1-1.4-2-2.2-3c5.9,1.3,12,2.9,18.2,5.1
	c7.1,9.4,23.6,32,30.2,47c-5.6,0.3-10.1,5-10.1,10.7c0,5.9,4.8,10.7,10.7,10.7c1.6,0,3.2-0.4,4.6-1c2.7,9.4,6.9,16.8,11.7,19.5
	c-2.2,1.1-4.2,3.1-5.6,6.2C547.8,562,561.1,565.6,567.1,566.7z"/>
<path fill="#FFFFFF" stroke="#000000" stroke-miterlimit="10" d="M574.9,535.3c-1.1,3.3-2.1,6.5-2.9,9.6c-3.1-1.1-7.5-2-11.4-0.8
	c0.2-1.6,0.4-4.3,0.2-7.8c0-0.2,0-0.4,0-0.6c0-0.2,0-0.4,0-0.6c0-0.2,0-0.4,0-0.7c0-0.5-0.1-1-0.1-1.6c0-0.3,0-0.5-0.1-0.8
	c-0.1-0.5-0.1-1.1-0.2-1.6c0-0.3-0.1-0.6-0.1-0.8c-0.1-0.6-0.2-1.1-0.3-1.7c-0.1-0.3-0.1-0.6-0.2-0.9c0-0.2-0.1-0.3-0.1-0.5
	c0-0.3-0.1-0.6-0.2-0.8c-0.3-1.4-0.6-2.8-1-4.2c-0.1-0.3-0.2-0.6-0.3-1s-0.2-0.7-0.3-1c-0.1-0.3-0.2-0.7-0.3-1
	c-0.1-0.3-0.2-0.7-0.3-1c-0.2-0.6-0.4-1.2-0.6-1.8c-0.7-1.8-1.4-3.6-2.3-5.4l3.3-6.7c4.4,4.9,8.6,10.7,12,17.5
	C571.9,525.6,573.6,530.3,574.9,535.3z"/>
<path fill="#FFFFFF" stroke="#000000" stroke-miterlimit="10" d="M550.4,697c-0.2,4.1-1.1,7.9-2.6,11.5c-0.4,0.9-0.8,1.8-1.2,2.6
	c0,0,0,0,0,0c-2.2,4.3-5.2,8.4-9.5,11.4c-2.1,1.5-4.7,2.7-7.4,3.3c-2.7,0.6-5.6,0.5-8.2-0.3c-2.6-0.8-4.8-2-6.8-3.5
	c-2-1.5-3.7-3.3-5.1-5.4c-2.7-4.2-3.5-9.6-2.1-14.3c0.7-2.3,1.9-4.5,3.6-6.2c1.6-1.7,3.8-3,6.1-3.5c2.3-0.5,4.6-0.2,6.7,0.5
	c2.1,0.7,3.9,1.9,5.4,3.3c-1.9-1-3.8-1.7-5.8-2c-1.9-0.3-3.9-0.1-5.6,0.7c-3.4,1.4-5.4,4.8-5.8,8.2c-0.4,3.4,0.7,6.9,2.8,9.3
	c1.1,1.2,2.4,2.3,3.9,3.1c1.5,0.8,3,1.4,4.5,1.6c2.9,0.4,5.4-0.6,7.7-2.6c2.3-2.1,4.1-5,5.3-8.2c1.2-3.2,1.8-6.6,1.7-9.8
	c-0.1-3.2-1.1-6-2.5-7.9c-0.2-0.2-0.4-0.4-0.6-0.7c-0.2-0.3-0.5-0.6-0.8-0.8c-0.6-0.5-1.1-1-1.7-1.5c-1.1-0.9-2.3-1.5-3.7-2
	c-2.6-1-6-1.5-9.6-1.6c-7.3-0.1-15.3,0.8-23.3,1.9c-8,1.1-16.1,2.5-24.1,3.9c-8.1,1.4-16.2,2.8-24.3,4.3l-24.4,4.4l-3,0.5l-3.1,0.5
	c-2.1,0.3-4.2,0.7-6.3,1l-6.4,0.8c-2.1,0.3-4.3,0.4-6.4,0.6c-8.6,0.6-17.4,0.8-26.4-0.4c-4.5-0.7-9.1-1.6-13.6-3.3l-3.4-1.5
	c-1.1-0.6-2.3-1.2-3.4-1.9c-1.1-0.8-2.2-1.5-3.3-2.4c-1-1-2.1-1.8-3-2.9c-0.1-0.1-0.2-0.3-0.3-0.4c-1.8-2-3.1-4.5-4-7.1
	c-1-2.8-1.2-5.7-1.1-8.5c0.1-2.8,0.9-5.4,1.8-7.9c1-2.4,2.3-4.7,3.9-6.7c1.6-2,3.5-3.9,5.9-5.5c0.7-0.4,1.2-0.8,1.9-1.1
	c0.2-0.1,0.4-0.2,0.6-0.2c0.5-0.2,1.1-0.4,1.5-0.5c1.2-0.4,2.3-0.7,3.5-0.9c3.2-0.6,6.5-0.8,9.7-0.6c1.5,0.1,3,0.4,4.5,0.7
	c2.3,0.5,4.7,1.4,6.8,2.6c2.2,1.2,4.2,2.8,5.8,5c0.8,1,1.4,2.2,1.9,3.5c0.4,1.2,0.8,2.5,0.9,3.8c0.3,2.6-0.2,5-0.9,7.2
	c-0.7,2.2-1.9,4.4-3.7,6.1c-0.9,0.8-1.9,1.6-2.9,2.1c-1.1,0.5-2.2,0.9-3.3,1.1c-2.2,0.4-4.4,0.3-6.6-0.1c-2.1-0.4-4.1-1-6-1.9
	c2,0.4,4.1,0.6,6.1,0.6c2,0,4-0.3,5.7-1c1.7-0.7,3.2-1.8,4.2-3.2c1-1.4,1.6-3.1,1.8-4.9c0.6-3.6-0.2-6.9-2.4-9
	c-2.2-2.1-5.5-3.3-9-3.6c-3.5-0.3-7.1,0.1-10.4,1.2c-0.8,0.3-1.6,0.6-2.4,0.9c-0.5,0.2-0.6,0.3-0.8,0.4c-0.2,0.1-0.5,0.4-0.7,0.5
	c-1,0.8-2,2-2.8,3.3c-0.4,0.6-0.7,1.4-1.1,2c-0.3,0.7-0.6,1.4-0.8,2.2c-0.4,1.4-0.7,2.9-0.6,4.2c0.1,2.7,1.1,4.8,3,6.6
	c1.8,1.8,4.6,3.3,7.9,4.2c3.3,1,6.9,1.5,10.6,1.9c7.5,0.5,15.3,0.1,23.2-0.8c2-0.3,3.9-0.5,5.9-0.8l5.9-0.9c2-0.3,3.9-0.7,5.9-1.1
	l3-0.5l3-0.6c7.1-1.4,14.2-2.7,21.4-4c1-0.2,2-0.4,3.1-0.6c8.2-1.4,16.3-2.9,24.6-4.2c7.9-1.2,15.9-2.4,23.9-3.2
	c0.3,0,0.7-0.1,1-0.1c4.2-0.4,8.5-0.8,12.8-1c4.3-0.2,8.8-0.2,13.4,0.2c2.3,0.2,4.7,0.5,7.1,1c0.6,0.1,1.1,0.2,1.7,0.4
	c1.9,0.5,3.8,1.2,5.7,2.1c0.7,0.3,1.4,0.7,2.1,1.1c0,0,0,0,0,0c1.7,1,3.3,2.1,4.7,3.4c1,0.9,1.9,1.8,2.8,2.8
	c0.4,0.5,0.8,0.9,1.2,1.5c0.4,0.6,0.9,1.2,1.3,1.8c1.6,2.5,2.6,5.2,3.2,7.8c0.1,0.3,0.1,0.6,0.2,0.9
	C550.4,692.4,550.5,694.7,550.4,697z"/>
<path fill="#FFFFFF" stroke="#000000" stroke-miterlimit="10" d="M662.7,790.7c-1.8,0.7-3.6,1.3-5.4,2h0c-0.8,0.3-1.6,0.6-2.3,1
	c-0.9,0.4-1.7,0.7-2.6,1.1c-0.8,0.4-1.7,0.7-2.5,1.1c-0.8,0.4-1.7,0.8-2.5,1.2c-0.7,0.3-1.4,0.7-2.1,1c-0.9,0.4-1.8,0.9-2.6,1.4
	c-38-19.6-82.1-71.2-94.9-86.7l-0.1-4.3c1.5-3.6,2.4-7.5,2.6-11.5c0.1-2.2,0-4.5-0.4-6.9c26.3,33.7,68.3,75.8,110.9,70.2
	C662.3,772.3,663,782.7,662.7,790.7z"/>
<path fill="#FFFFFF" stroke="#000000" stroke-miterlimit="10" d="M660.9,760.3c-42.7,5.6-84.7-36.5-110.9-70.2
	c-0.1-0.3-0.1-0.6-0.2-0.9c-0.6-2.7-1.6-5.3-3.2-7.8c-0.4-0.6-0.9-1.2-1.3-1.8c-0.4-0.6-0.8-1-1.2-1.5c-0.9-1-1.8-1.9-2.8-2.8
	c-1.4-1.3-3-2.4-4.7-3.4c0,0,0,0,0,0c-2.7-3.9-5-7.4-6.9-10.4v0c1.1-8.2,2.9-19.5,5.8-31.4c1-3.9,2-7.9,3.2-11.9
	c13.3,22.3,69.3,110.1,113.8,93.1c0.5,2.2,0.9,4.4,1.4,6.6c0,0.2,0.1,0.4,0.1,0.6c0.5,2.4,0.9,4.7,1.4,7c0.3,1.6,0.6,3.1,0.9,4.6
	c0.1,0.8,0.3,1.5,0.4,2.3c0.2,1,0.3,1.9,0.5,2.9c0.2,1.2,0.4,2.3,0.6,3.5c0.4,2.5,0.8,4.9,1.2,7.3c0.3,1.8,0.5,3.5,0.8,5.2
	c0,0.2,0.1,0.4,0.1,0.7l0.2,1.6C660.3,755.8,660.6,758.1,660.9,760.3z"/>
<path fill="#FFFFFF" stroke="#000000" stroke-miterlimit="10" d="M652.5,711.3c-44.5,17-100.5-70.8-113.8-93.1
	c1.2-3.8,2.5-7.7,3.9-11.4c13.1,18.8,59.3,79.9,102.3,73.1C647.7,690.4,650.2,701,652.5,711.3z"/>
<path fill="#FFFFFF" stroke="#000000" stroke-miterlimit="10" d="M644.9,679.9c-43,6.8-89.2-54.3-102.3-73.1
	c3.1-8.2,6.9-15.9,11.5-22.4c0.9-1.2,1.8-2.4,2.7-3.6c7,11.8,26.1,41.2,53.4,57.8c-3.2,8.8,0.4,25.8,0.4,25.8h15
	c0,0,0.7-9.9-0.8-18.5c3.5,1.4,7.2,2.5,10.9,3.3C639,659.2,642.1,669.5,644.9,679.9z"/>
<path fill="#FFFFFF" stroke="#000000" stroke-miterlimit="10" d="M635.7,649.2c-3.7-0.8-7.4-1.9-10.9-3.3c-1.1-6.9-3.6-13-8.8-12.5
	c-2.9,0.3-4.7,2.3-5.8,5.2c-27.3-16.7-46.4-46-53.4-57.8c2.9-3.5,6.1-6.5,9.6-8.8c2-1.3,4.2-2.4,6.4-3.2
	c5.2,10.5,21.5,39.1,47.7,41.1c0.7,1.5,1.4,3,2.1,4.5c0.3,0.7,0.7,1.5,1,2.2c0.7,1.5,1.3,3.1,2,4.7c0.3,0.8,0.7,1.6,1,2.4
	c0.3,0.8,0.7,1.6,1,2.4c0.3,0.8,0.7,1.6,1,2.5c0.3,0.8,0.6,1.6,1,2.5c0.3,0.8,0.6,1.7,1,2.5v0h0c0.3,0.8,0.6,1.7,0.9,2.5
	c0.3,0.9,0.6,1.7,0.9,2.6C633.3,642.2,634.5,645.7,635.7,649.2z"/>
<path fill="#FFFFFF" stroke="#000000" stroke-miterlimit="10" d="M620.4,609.9c-26.1-1.9-42.5-30.6-47.7-41.1
	c2.5-0.9,5.1-1.5,7.9-1.7c4.2-0.3,8.4,1.1,12.5,3.9c-1.1,8.1,0,21.6,19.5,23.7C615.2,599.3,617.9,604.4,620.4,609.9z"/>
<path fill="#FFFFFF" stroke="#000000" stroke-miterlimit="10" d="M612.6,594.7c-19.4-2-20.6-15.6-19.5-23.7
	C599.8,575.6,606.3,583.9,612.6,594.7z"/>
<path fill="#FFFFFF" stroke="#000000" stroke-miterlimit="10" d="M536.5,671.8c-0.7-0.4-1.4-0.8-2.1-1.1c-1.9-0.9-3.8-1.6-5.7-2.1
	c0.2-2,0.5-4.4,0.9-7.2C531.5,664.4,533.8,667.9,536.5,671.8z"/>
<path fill="#FFFFFF" stroke="#000000" stroke-miterlimit="10" d="M882.8,909.2c-121.7,73.6-254.6,19.8-304.3-5.6
	c-5.6-2.9-10.2-5.4-13.6-7.3c3.7-10.6,9.1-23.6,17-37c7.5,11.7,22.6,29,50.8,42c22.7,10.5,53.9,18.1,96.6,17.8
	c83.5-0.7,129.8-15.4,152.3-25.9C882.4,899.3,882.7,904.8,882.8,909.2z"/>
<path fill="#FFFFFF" stroke="#000000" stroke-miterlimit="10" d="M864.8,845.4c-14.5,7.9-56.7,27.3-123.7,29.8
	c-67.7,2.6-121.7-29.2-140.5-41.9c4.1-4.7,8.6-9.3,13.4-13.6c0.5-0.5,1.1-0.9,1.6-1.4c9.8,12.3,40.4,38.5,123.3,37.7
	c74.4-0.7,103.2-16.7,113.9-26.6C857.5,834.6,861.4,839.9,864.8,845.4z"/>
<path fill="#FFFFFF" stroke="#000000" stroke-miterlimit="10" d="M852.8,829.4c-10.7,9.9-39.4,25.8-113.9,26.6
	c-82.9,0.8-113.5-25.4-123.3-37.7c0.9-0.8,1.9-1.6,2.8-2.4c1.1-1,2.3-1.9,3.5-2.8c0.3-0.2,0.6-0.4,0.9-0.7c1.6-1.2,3.2-2.4,4.8-3.5
	c0.7-0.5,1.4-1,2.1-1.4c1.5-1,3-2,4.6-3c0.3-0.2,0.7-0.4,1-0.6c0.3-0.2,0.7-0.4,1-0.6c0.7-0.4,1.4-0.8,2.1-1.2
	c14.2,8.6,46,23.4,94.1,21.9c44.3-1.4,74.8-11.6,90.4-18.4C835.2,812.5,845,820.7,852.8,829.4z"/>
<path fill="#FFFFFF" stroke="#000000" stroke-miterlimit="10" d="M822.9,805.4c-15.6,6.8-46.1,17-90.4,18.4
	c-48.1,1.5-79.9-13.3-94.1-21.9c0.4-0.2,0.7-0.4,1.1-0.6c0.3-0.2,0.6-0.4,1-0.5c0.8-0.4,1.5-0.9,2.3-1.3c0.9-0.5,1.7-0.9,2.6-1.4
	c0.7-0.4,1.4-0.7,2.1-1c0.8-0.4,1.6-0.8,2.5-1.2c0.8-0.4,1.6-0.7,2.5-1.1c0.9-0.4,1.7-0.8,2.6-1.1c0.8-0.3,1.6-0.6,2.3-1h0
	c9.2,8.2,32,23,76.3,21.5c39.2-1.4,62.5-10.3,74.1-16.4c0.1,0,0.2,0.1,0.3,0.1c1.3,0.6,2.6,1.1,3.8,1.7
	C815.7,801.5,819.4,803.4,822.9,805.4z"/>
<path fill="#FFFFFF" stroke="#000000" stroke-miterlimit="10" d="M807.7,797.8c-11.6,6.2-34.9,15-74.1,16.4
	c-44.2,1.6-67.1-13.2-76.3-21.5c1.8-0.7,3.6-1.4,5.4-2c9-3.2,18.8-5.7,29.4-7.3c1.8-0.3,3.7-0.5,5.6-0.8c0.4-0.1,0.8-0.1,1.2-0.1h0
	c4.4,5.9,18.1,20.2,45.4,16.8c22.8-2.8,32.8-7.6,36.9-10.5c0.1,0,0.1,0,0.2,0c1.1,0.3,2.2,0.6,3.2,0.9c0.9,0.3,1.9,0.5,2.8,0.8
	c2,0.6,4,1.2,6,1.9c0.4,0.1,0.8,0.3,1.2,0.4c0.5,0.2,1.1,0.4,1.6,0.5c0.4,0.1,0.8,0.3,1.2,0.4c0.8,0.3,1.5,0.5,2.3,0.8
	c0.6,0.2,1.2,0.4,1.8,0.7c0.4,0.2,0.9,0.3,1.3,0.5c0.6,0.2,1.1,0.4,1.7,0.7c0,0,0.1,0,0.1,0.1c0.4,0.2,0.9,0.4,1.3,0.5
	C806.5,797.3,807.1,797.5,807.7,797.8z"/>
<path fill="#FFFFFF" stroke="#000000" stroke-miterlimit="10" d="M781.2,788.8c-4.1,2.9-14.1,7.6-36.9,10.5
	c-27.3,3.4-41-10.8-45.4-16.8c0.8-0.1,1.6-0.2,2.4-0.3c0.7-0.1,1.3-0.1,2-0.2c0.7-0.1,1.3-0.1,2-0.2c0.2,0,0.5,0,0.7-0.1
	c1.9-0.1,3.9-0.3,5.8-0.3c1.5,4.1,5.8,11.9,17.5,13.5c14.7,2,36.5-1.5,45.1-7.8c0.3,0.1,0.6,0.1,0.9,0.2c0.3,0.1,0.6,0.1,0.9,0.2
	c0.8,0.2,1.6,0.4,2.4,0.6C779.4,788.3,780.3,788.6,781.2,788.8z"/>
<path fill="#FFFFFF" stroke="#000000" stroke-miterlimit="10" d="M762.5,760.6c-2.3,7.4-4.2,15.2-5.7,23.3c-5-0.7-10.3-1.3-15.7-1.8
	c-3-0.3-6-0.5-8.9-0.6c2-6.4,5-15.4,9.1-26.1C746.4,755.2,753.9,756,762.5,760.6z"/>
<path fill="#FFFFFF" stroke="#000000" stroke-miterlimit="10" d="M773.7,731.6c-4.3,9-8.1,18.7-11.2,29c-8.6-4.6-16.1-5.5-21.1-5.2
	c3.3-8.4,7.3-17.9,12.1-28c0.4-0.9,0.9-1.9,1.4-2.8c2.9,0.3,6.3,1,9.8,2.2C767.7,727.9,770.8,729.4,773.7,731.6z"/>
<path fill="#FFFFFF" stroke="#000000" stroke-miterlimit="10" d="M790,703.1c-4.8,7.1-9.3,14.7-13.4,22.8c-1,1.9-1.9,3.8-2.8,5.8
	c-2.9-2.2-6-3.7-9-4.8c-3.5-1.3-6.9-1.9-9.8-2.2c4.5-9.1,9.6-18.7,15.4-28.3C776.7,697.1,784.8,699,790,703.1z"/>
<path fill="#FFFFFF" stroke="#000000" stroke-miterlimit="10" d="M806.1,682.1c-3.1,3.6-6.2,7.3-9.1,11.3c-2.4,3.1-4.7,6.4-7,9.7
	c-5.2-4.1-13.3-5.9-19.7-6.8c5.7-9.4,12-18.9,19.1-28.2c0.5,0.3,1,0.6,1.5,1C795.3,671.8,801.4,676.4,806.1,682.1z"/>
<path fill="#FFFFFF" stroke="#000000" stroke-miterlimit="10" d="M835.6,653.4c-9.8,8-19.9,17.5-29.6,28.7
	c-4.7-5.7-10.7-10.3-15.2-13.1c-0.5-0.3-1-0.7-1.5-1c0.3-0.4,0.6-0.8,0.9-1.2c6.5-8.5,13.7-16.8,21.5-24.6
	C818.6,643.8,828.6,647,835.6,653.4z"/>
<path fill="#FFFFFF" stroke="#000000" stroke-miterlimit="10" d="M850,642.6c-4.6,3.3-9.4,6.9-14.3,10.8
	c-7.1-6.5-17.1-9.7-23.9-11.2c6-6,12.4-11.8,19.1-17.1C836.1,628.2,844.8,634.3,850,642.6z"/>
<path fill="#FFFFFF" stroke="#000000" stroke-miterlimit="10" d="M888,621.1c-3.3,1.4-7.3,3.2-11.9,5.6c-6.3,3.3-13.6,7.5-21.6,12.8
	c-1.5,1-3,2-4.5,3.1c-5.1-8.3-13.9-14.4-19.1-17.5c1.6-1.3,3.3-2.6,5-3.8c7.9-5.9,16.2-11.2,25.2-15.9c0,0,0,0,0,0
	c4.3-2.3,8.8-4.4,13.4-6.3C879.5,603.4,885.8,610.7,888,621.1z"/>
<path fill="#FFFFFF" stroke="#000000" stroke-miterlimit="10" d="M913,613.8c-8.1,1.5-15.5,3.7-21.1,5.7c-1.1,0.4-2.5,0.9-3.9,1.6
	c-2.1-10.3-8.4-17.7-13.5-22.1c10.6-4.5,21.8-8,33.7-10.3C912,593.6,915.8,602,913,613.8z"/>
<path fill="#FFFFFF" stroke="#000000" stroke-miterlimit="10" d="M945.8,612.6L945.8,612.6c-10.2-1.8-22.1-0.8-32.9,1.3
	c2.9-11.9-1-20.2-4.7-25.1c5.4-1.1,11-1.9,16.7-2.5c9-0.9,18,0.1,26.5,2.8C952.6,595.8,952.5,605.1,945.8,612.6z"/>
<path fill="#FFFFFF" stroke="#000000" stroke-miterlimit="10" d="M980.3,608.5c-2.1,6.1-5.9,13.5-12.4,17.9
	c-4.3-8.1-12.4-12.2-22-13.9c6.7-7.5,6.8-16.8,5.5-23.6c8.4,2.7,16.2,7.1,22.9,13.2C976.4,604.1,978.4,606.2,980.3,608.5z"/>
<path fill="#FFFFFF" stroke="#000000" stroke-miterlimit="10" d="M992.4,649.7c-4.9,4.8-13,10.4-23.9,9.5c1.5-4.6,2.4-10.2,2.6-17.1
	c0.2-6.3-1-11.4-3.2-15.5c6.6-4.5,10.3-11.9,12.4-17.9c5.9,7.2,10.6,16.6,12,28.5C992.8,641.3,992.8,645.5,992.4,649.7z"/>
<path fill="#FFFFFF" stroke="#000000" stroke-miterlimit="10" d="M992.4,649.7c-1.3,13.1-7,25.4-15.9,35.2
	c-10.6,0.4-20.2-3.4-26.4-6.6c7.6-2.5,14.7-7.5,18.4-19.1C979.4,660,987.5,654.5,992.4,649.7z"/>
<path fill="#FFFFFF" stroke="#000000" stroke-miterlimit="10" d="M976.4,684.9c-2.5,2.8-5.3,5.4-8.4,7.7
	c-14.1,10.8-32.8,20.4-44.8,8c-2.3-2.4-3.6-5.6-3-8.9c0.5-3.2,2.7-7,9.1-9.1c5.3-1.8,13.2-1.9,20.7-4.4h0
	C956.2,681.5,965.9,685.3,976.4,684.9z"/>
<path fill="#FFFFFF" stroke="#000000" stroke-miterlimit="10" d="M861,605.3c-8.9,4.7-17.3,10-25.2,15.9c-3.8-0.4-7.4-0.5-11-0.2
	c5.8-9,6.7-18.2,6.6-23.8C840.8,598.2,850.6,600.9,861,605.3z"/>
<path fill="#FFFFFF" stroke="#000000" stroke-miterlimit="10" d="M824.9,621c-3.7,0.2-7.3,0.8-10.8,1.7c2.1-9.8-0.3-18.9-2.9-25.2
	c6.5-1,13.2-1.1,20.3-0.3C831.6,602.8,830.7,612,824.9,621z"/>
<path fill="#FFFFFF" stroke="#000000" stroke-miterlimit="10" d="M814.1,622.7c-6.4,1.6-12.3,4.1-17.9,7.5
	c-2.2-7.5-10.5-15.6-16.5-20.6c9.6-6.2,20-10.4,31.5-12.1h0C813.8,603.8,816.2,612.9,814.1,622.7z"/>
<path fill="#FFFFFF" stroke="#000000" stroke-miterlimit="10" d="M796.2,630.2c-4.4,2.6-8.5,5.8-12.5,9.3c-0.3,0.3-0.6,0.6-0.9,0.8
	c-0.8,0.7-1.6,1.5-2.4,2.2c-0.4-0.5-0.7-1-1.2-1.6c-0.2-0.2-0.4-0.5-0.6-0.7c-0.1-0.2-0.3-0.4-0.4-0.5c-0.3-0.4-0.6-0.7-0.9-1
	c-0.3-0.4-0.7-0.7-1-1.1c-0.1-0.1-0.2-0.2-0.3-0.3c-0.4-0.3-0.7-0.7-1.1-1c-0.4-0.4-0.8-0.8-1.3-1.1c-0.5-0.4-1-0.9-1.6-1.3
	c-0.1-0.1-0.1-0.1-0.2-0.1c-0.6-0.5-1.2-0.9-1.8-1.4c-0.6-0.4-1.2-0.9-1.8-1.3c-0.1,0-0.1-0.1-0.2-0.1c-0.6-0.4-1.2-0.8-1.8-1.2
	c0,0-0.1-0.1-0.1-0.1h0c-0.5-0.3-1-0.7-1.6-1c-1.6-0.9-3.1-1.8-4.6-2.6c5.2-5.5,10.8-10.3,16.7-14.5c1-0.7,2-1.4,3-2
	C785.7,614.7,794,622.7,796.2,630.2z"/>
<path fill="#FFFFFF" stroke="#000000" stroke-miterlimit="10" d="M780.4,642.5c-5.9,5.7-11.3,12.4-16.2,19.6
	c-7.1-5.5-17.1-9.6-23.1-11.9c0.7-1,1.4-2.1,2.1-3.1c0.1-0.2,0.3-0.4,0.4-0.6c0.5-0.7,1-1.4,1.5-2.2c0.2-0.3,0.4-0.6,0.7-0.9
	c0.7-1,1.3-1.9,2-2.8c0.6-0.8,1.2-1.6,1.8-2.4c0.1-0.1,0.1-0.2,0.2-0.2c0.5-0.7,1-1.3,1.5-1.9c0.1-0.2,0.3-0.3,0.4-0.5
	c0.5-0.6,1-1.2,1.4-1.8c0.7-0.9,1.5-1.7,2.2-2.6c0.7-0.8,1.4-1.6,2.1-2.3c0.1-0.1,0.2-0.2,0.3-0.3c0.7-0.8,1.5-1.6,2.3-2.4
	c1.5,0.8,3,1.6,4.6,2.6c0.5,0.3,1,0.6,1.6,1h0c0,0,0.1,0.1,0.1,0.1c0.6,0.4,1.2,0.8,1.8,1.2c0.1,0,0.1,0.1,0.2,0.1
	c0.6,0.4,1.2,0.9,1.8,1.3c0.6,0.4,1.2,0.9,1.8,1.4c0.1,0,0.1,0.1,0.2,0.1c0.5,0.4,1.1,0.8,1.6,1.3c0.4,0.4,0.9,0.7,1.3,1.1
	c0.4,0.3,0.7,0.7,1.1,1c0.1,0.1,0.2,0.2,0.3,0.3c0.4,0.4,0.7,0.7,1,1.1c0.3,0.3,0.6,0.7,0.9,1c0.1,0.2,0.3,0.3,0.4,0.5
	c0.2,0.2,0.4,0.5,0.6,0.7C779.7,641.5,780.1,642,780.4,642.5z"/>
<path fill="#FFFFFF" stroke="#000000" stroke-miterlimit="10" d="M764.2,662.1c-4.5,6.6-8.6,13.6-12.3,20.9
	c-5.9-6.4-15.4-10.6-22.4-12.9c3.5-6.8,7.4-13.5,11.5-19.9C747.2,652.5,757.2,656.6,764.2,662.1z"/>
<path fill="#FFFFFF" stroke="#000000" stroke-miterlimit="10" d="M751.9,683c-4.2,8.2-7.9,16.6-11.2,25c-8.6-5.1-18.8-5-26.2-4
	c4.3-11.3,9.3-22.8,15.1-33.9C736.5,672.5,746,676.6,751.9,683z"/>
<path fill="#FFFFFF" stroke="#000000" stroke-miterlimit="10" d="M732.9,730c-3.8,11.7-6.7,22.7-8.9,31.9c-7-3.3-18.8-3.6-26.6-2.9
	c2.2-8.8,4.9-18.9,8.3-29.8C714.4,728.1,725.3,727.5,732.9,730z"/>
<path fill="#FFFFFF" stroke="#000000" stroke-miterlimit="10" d="M724.1,762c-1.9,8-3.3,14.6-4.2,19.3c-1.1,0-2.2,0-3.4,0.1
	c-0.3,0-0.5,0-0.8,0c-0.8,0-1.6,0-2.3,0.1c-0.5,0-1.1,0-1.6,0.1c-2,0.1-3.9,0.2-5.8,0.3c-0.2,0-0.5,0-0.7,0.1
	c-0.7,0.1-1.4,0.1-2,0.2c-0.7,0.1-1.3,0.1-2,0.2c-0.8,0.1-1.6,0.2-2.4,0.3h0c-0.4,0-0.8,0.1-1.2,0.1c-1.9,0.2-3.7,0.5-5.6,0.8
	c1.1-5.6,2.8-14,5.3-24.3C705.3,758.3,717.1,758.6,724.1,762z"/>
<path fill="#FFFFFF" stroke="#000000" stroke-miterlimit="10" d="M873.6,680.9c-3.9,5.1-9.3,9.5-17,12.5c-38.5,15-39.6-5.3-39.6-5.3
	c1.1-20.3,18.2-16,18.2-16c0.6,0.1,1.1,0.1,1.6,0.2C842.7,681.5,861.1,681.8,873.6,680.9z"/>
<path fill="#FFFFFF" stroke="#000000" stroke-miterlimit="10" d="M873.6,680.9c-12.4,0.9-30.9,0.6-36.7-8.7
	c12.5,1.1,17.6-4.8,19.2-12.3c9.1-1,19.5-8.5,25.2-13.1C882.4,657.9,881.1,670.9,873.6,680.9z"/>
<path fill="#FFFFFF" stroke="#000000" stroke-miterlimit="10" d="M856,659.9c1.4-6.8,0-14.9-1.5-20.3c7.9-5.3,15.3-9.6,21.6-12.8
	c2,4.4,4.3,11.8,5.1,20.1C875.5,651.4,865.1,658.9,856,659.9z"/>
<path fill="#FFFFFF" stroke="#000000" stroke-miterlimit="10" d="M517.5,775.7c-2.1,31-18.2,18.2-28.9,26.7
	c-4.5,3.6-4.6,6.2-3.3,8.1l-1.4,0l-42.4,1.1v-85.2c0.4,0,0.7,0,1.1,0C483.3,726.5,519.7,744.7,517.5,775.7z"/>
<path fill="#FFFFFF" stroke="#000000" stroke-miterlimit="10" d="M441.6,726.5v85.2l-18.2,0.5l-16.4,0.4c1.5-1.8,1.3-3.7,0.6-5.2
	c-1.1-2.4-3.7-3.8-6.4-3.8c-15.6-0.1-27-9-28-32.2C372,747.1,405.2,726.9,441.6,726.5z"/>
<path fill="#FFFFFF" stroke="#000000" stroke-miterlimit="10" d="M531.4,780c4.3-38.5-30-66.3-87.7-66.3
	c-49.3,0-88.8,32.1-85.6,69.5c1.9,22.4,18.1,28.5,30.8,29.9l-31.7,0.8c2.7-2.8,4.2-6.8,3.1-12.5c-2.4-12.9-7.9-24.6-16-31.7v-82.2
	c0.1,0.1,0.2,0.3,0.3,0.4c0.9,1.2,2,2,3,2.9c1,0.9,2.2,1.6,3.3,2.4c1.1,0.6,2.2,1.3,3.4,1.9l3.4,1.5c4.6,1.7,9.1,2.6,13.6,3.3
	c9,1.2,17.8,1,26.4,0.4c2.1-0.2,4.3-0.3,6.4-0.6l6.4-0.8c2.1-0.3,4.2-0.7,6.3-1l3.1-0.5l3-0.5l24.4-4.4c8.1-1.5,16.2-3,24.3-4.3
	c8.1-1.4,16.2-2.8,24.1-3.9c8-1.1,16-2,23.3-1.9c3.6,0.1,7,0.6,9.6,1.6c1.3,0.5,2.5,1.2,3.7,2c0.6,0.4,1.1,0.9,1.7,1.5
	c0.3,0.3,0.6,0.6,0.8,0.8c0.2,0.2,0.4,0.4,0.6,0.7c1.4,1.9,2.4,4.7,2.5,7.9c0.1,3.2-0.5,6.6-1.7,9.8c-1.2,3.2-3,6.1-5.3,8.2
	c-2.3,2-4.8,3-7.7,2.6c-1.4-0.2-2.9-0.7-4.5-1.6c-1.5-0.8-2.8-1.8-3.9-3.1c-2.2-2.4-3.2-5.8-2.8-9.3c0.4-3.4,2.4-6.8,5.8-8.2
	c1.6-0.8,3.6-0.9,5.6-0.7c2,0.3,3.9,1,5.8,2c-1.6-1.3-3.4-2.5-5.4-3.3c-2-0.7-4.4-1-6.7-0.5c-2.3,0.5-4.5,1.7-6.1,3.5
	c-1.7,1.7-2.9,3.9-3.6,6.2c-1.4,4.6-0.7,10,2.1,14.3c1.3,2.1,3.1,4,5.1,5.4c1.9,1.4,4.2,2.7,6.8,3.5c2.6,0.8,5.5,0.9,8.2,0.3
	c2.7-0.6,5.2-1.8,7.4-3.3c4.3-3,7.3-7.1,9.5-11.4c0,0,0,0,0,0c0.4-0.9,0.8-1.7,1.2-2.6l0.1,4.3l1.6,55.8l0.2,5.8l1,34.4l-37,1
	C521.8,805.4,529.6,796.8,531.4,780z"/>
<path fill="#FFFFFF" stroke="#000000" stroke-miterlimit="10" d="M531.4,780c-1.9,16.8-9.6,25.4-17.7,29.8l-28.3,0.7
	c-1.3-1.9-1.2-4.5,3.3-8.1c10.7-8.6,26.7,4.3,28.9-26.7c2.1-31-34.2-49.2-74.9-49.2c-0.4,0-0.7,0-1.1,0
	c-36.3,0.4-69.5,20.5-68.5,44.9c1,23.2,12.4,32.1,28,32.2c2.7,0,5.2,1.4,6.4,3.8c0.7,1.5,0.9,3.4-0.6,5.2l-2.6,0.1l-15.4,0.4
	c-12.7-1.3-28.8-7.4-30.8-29.9c-3.2-37.4,36.3-69.5,85.6-69.5C501.5,713.7,535.7,741.5,531.4,780z"/>
<circle fill="#FFFFFF" stroke="#000000" stroke-miterlimit="10" cx="456.5" cy="783.2" r="5.3"/>
<circle fill="#FFFFFF" stroke="#000000" stroke-miterlimit="10" cx="427.7" cy="783.2" r="7.5"/>
<path fill="#FFFFFF" stroke="#000000" stroke-miterlimit="10" d="M554.1,584.4c-4.6,6.4-8.4,14.2-11.5,22.4
	c-1.4,3.7-2.7,7.6-3.9,11.4c-1.2,4-2.3,7.9-3.2,11.9l-41.6,28.8c-0.1-2.4-0.3-5.1-0.9-8.2c-0.3-1.8-0.8-3.5-1.3-5
	c1-0.6,2.1-1.3,3.1-2c0.3-0.2,0.7-0.5,1-0.7c0.5-0.4,1.1-0.8,1.6-1.2c0.3-0.2,0.5-0.4,0.8-0.6c0.1-0.1,0.3-0.2,0.4-0.4
	c0.3-0.3,0.6-0.5,0.9-0.8c0.4-0.4,0.8-0.7,1.2-1.1c0.3-0.2,0.5-0.5,0.8-0.7c0.5-0.5,1-1,1.5-1.5c0.5-0.5,1-1.1,1.6-1.6
	c0.3-0.3,0.6-0.6,0.9-1c0.4-0.5,0.9-1,1.3-1.5c0.4-0.5,0.8-1,1.3-1.5c0.4-0.5,0.8-1,1.2-1.5c0.6-0.7,1.1-1.5,1.7-2.2
	c0.3-0.4,0.6-0.8,0.9-1.3c1.1-1.5,2.1-3,3.1-4.6c8.9-1.7,15.6-9.5,15.6-18.9c0-3-0.7-5.9-1.9-8.4v0c0.2-0.5,0.4-1,0.5-1.4
	c0.5-1.4,1-2.7,1.5-4c0.7-1.9,1.3-3.8,1.9-5.4c0.2-0.6,0.4-1.2,0.6-1.7c0.7-2.3,1.3-4.2,1.7-5.8c0.1-0.3,0.2-0.7,0.3-1
	c0.2-0.7,0.4-1.3,0.5-1.8c0-0.1,0.1-0.3,0.1-0.4c0-0.1,0.1-0.2,0.1-0.3c0-0.1,0-0.2,0.1-0.3c0.1-0.2,0.1-0.4,0.1-0.4
	C545.2,568.5,551.2,578,554.1,584.4z"/>
<path fill="#FFFFFF" stroke="#000000" stroke-miterlimit="10" d="M535.4,630c-2.9,12-4.7,23.3-5.8,31.4v0c-0.4,2.8-0.7,5.2-0.9,7.2
	c-0.6-0.1-1.1-0.3-1.7-0.4c-2.4-0.5-4.8-0.9-7.1-1c-4.6-0.4-9-0.4-13.4-0.2c-4.3,0.2-8.6,0.6-12.8,1c-0.3,0-0.7,0.1-1,0.1
	c0.7-2.4,1.1-5.4,1-9.4L535.4,630z"/>
<path fill="#FFFFFF" stroke="#000000" stroke-miterlimit="10" d="M492.7,668.1c-8.1,0.9-16,2.1-23.9,3.2c-8.2,1.3-16.4,2.7-24.6,4.2
	c-1,0.2-2,0.4-3.1,0.6c-4.7-8.2-10.9-24.2,2.1-36.8c6.5-6.3,15.5-9.3,24.5-8.6c8.7,0.6,19.6,3.7,23.8,14.8c0.6,1.5,1,3.2,1.3,5
	c0.5,3.1,0.8,5.8,0.9,8.2C493.9,662.7,493.5,665.8,492.7,668.1z"/>
<path fill="#FFFFFF" stroke="#000000" stroke-miterlimit="10" d="M752,538.1c-13.3,2.9-22.2-14.5-29.1-9.5
	c-7.5,5.3-8.6-3.2-17.1-5.3c-8.6-2.1-9.6,25.7-23.5,0c-13.9-25.7-21.4-6.4-37.4,11.8c-16,18.2-16,5.3-22.5-17.1
	c-6.4-22.5-21.4-7.5-35.3,5.3c-4.6,4.2-7.1,4-8.4,1.9c6.4-15.6,15.9-31.9,29.9-44.8c3-2.7,6.1-5.3,9.5-7.7l13.2-3.6
	c5.3,13.5,18.5,23.1,33.9,23.1c17.3,0,31.8-12.1,35.5-28.3C720.8,476.8,737.8,504.2,752,538.1z"/>
<path fill="#FFFFFF" stroke="#000000" stroke-miterlimit="10" d="M706.3,727.7c-0.2,0.5-0.3,1-0.5,1.6c-3.4,10.8-6.1,21-8.3,29.8
	c-2.5,10.3-4.3,18.8-5.3,24.3c-10.6,1.6-20.4,4.1-29.4,7.3c0.3-8-0.4-18.4-1.8-30.4c-0.3-2.2-0.5-4.5-0.9-6.8l-0.2-1.6
	c0-0.2-0.1-0.4-0.1-0.7c-0.2-1.7-0.5-3.4-0.8-5.2c-0.4-2.4-0.8-4.8-1.2-7.3c-0.2-1.1-0.4-2.3-0.6-3.5c-0.2-0.9-0.3-1.9-0.5-2.9
	c-0.1-0.8-0.3-1.5-0.4-2.3c-0.3-1.5-0.6-3.1-0.9-4.6C667.5,726.3,685.9,727.3,706.3,727.7z"/>
<path fill="#FFFFFF" stroke="#000000" stroke-miterlimit="10" d="M776.6,611.6c-5.9,4.2-11.5,9-16.7,14.5c-0.8,0.8-1.5,1.6-2.3,2.4
	c-0.1,0.1-0.2,0.2-0.3,0.3c-0.7,0.8-1.4,1.6-2.1,2.3c-40.5,4.8-106.9,3-125.1,2.4h0v0c-0.3-0.8-0.6-1.7-1-2.5
	c-0.3-0.8-0.6-1.7-1-2.5c-0.3-0.8-0.6-1.6-1-2.5c-0.3-0.8-0.6-1.6-1-2.4c-0.3-0.8-0.6-1.6-1-2.4c-0.6-1.6-1.3-3.1-2-4.7
	c-0.3-0.7-0.7-1.5-1-2.2c-0.7-1.5-1.4-3-2.1-4.5c-2.5-5.5-5.2-10.5-7.8-15.2c-6.2-10.8-12.8-19.1-19.5-23.7
	c-4.1-2.8-8.3-4.2-12.5-3.9c-2.8,0.2-5.4,0.8-7.9,1.7c-2.2,0.8-4.4,1.9-6.4,3.2c0.2-1.6,0.5-3.3,0.8-5.3c0.2-1.1,0.4-2.2,0.6-3.5
	c0.1-0.6,0.2-1.2,0.3-1.8c0.1-0.6,0.2-1.3,0.4-1.9c22.9,4.2,120.5,20.3,192.5,1.6C766.7,577.2,771.9,594.3,776.6,611.6z"/>
<path fill="#FFFFFF" stroke="#000000" stroke-miterlimit="10" d="M760.9,561.1c-72,18.7-169.6,2.6-192.5-1.6c0,0,0,0,0,0l0.2-1
	c0-0.1,0-0.2,0.1-0.3c0.1-0.4,0.2-0.9,0.3-1.4c0.8-3.7,1.7-7.7,2.9-11.9c0.9-3.1,1.8-6.3,2.9-9.6c1.1-3.3,2.4-6.7,3.8-10.2
	c1.3,2.2,3.8,2.4,8.4-1.9c13.9-12.8,28.9-27.8,35.3-5.3c6.4,22.5,6.4,35.3,22.5,17.1c16-18.2,23.5-37.4,37.4-11.8
	c13.9,25.7,15-2.1,23.5,0c8.6,2.1,9.6,10.7,17.1,5.3c7-5,15.8,12.4,29.1,9.5C755.1,545.5,758.1,553.2,760.9,561.1z"/>
<path fill="#FFFFFF" stroke="#000000" stroke-miterlimit="10" d="M701.5,455.9c0,2.8-0.3,5.4-0.9,8c-3.7,16.2-18.2,28.3-35.5,28.3
	c-15.4,0-28.6-9.6-33.9-23.1c-0.4-1.1-0.8-2.3-1.2-3.5c-0.4-1.3-0.6-2.6-0.8-3.9c-0.3-1.9-0.5-3.9-0.5-5.8
	c0-20.1,16.3-36.4,36.4-36.4C685.2,419.5,701.5,435.8,701.5,455.9z"/>
<path fill="#FFFFFF" stroke="#000000" stroke-miterlimit="10" d="M673.7,370.3c0,29.5-23.9,53.5-53.5,53.5c-7.4,0-14.4-1.5-20.9-4.2
	c-2.9-1.2-5.6-2.7-8.2-4.4c-14.7-9.5-24.4-26.1-24.4-44.9c0-29.5,23.9-53.5,53.5-53.5S673.7,340.8,673.7,370.3z"/>
<path fill="#FFFFFF" stroke="#000000" stroke-miterlimit="10" d="M563.6,477l-5.4,12.2l-12.5,3.4c-0.5-0.4-1-0.7-1.4-1.1
	c-1.7-3.1-3.3-6.1-4.7-8.9L563.6,477z"/>
<path fill="#FFFFFF" stroke="#000000" stroke-miterlimit="10" d="M631.2,469.1l-13.2,3.6L566,487l5.9-11.9l57.3-13.3
	c0.2,1.3,0.5,2.6,0.8,3.9C630.4,466.8,630.8,468,631.2,469.1z"/>
<path fill="#FFFFFF" stroke="#000000" stroke-miterlimit="10" d="M599.3,419.6L571.9,475L566,487l-8.3,16.8l-3.3,6.7
	c-0.2-0.4-0.3-0.7-0.5-1.1c-0.8-1.7-1.7-3.3-2.6-4.9l2.2-5l4.6-10.3l5.4-12.2l27.5-61.8C593.7,416.9,596.5,418.3,599.3,419.6z"/>
<circle fill="#FFFFFF" stroke="#000000" stroke-miterlimit="10" cx="619.1" cy="372.5" r="28.9"/>
<circle fill="#FFFFFF" stroke="#000000" stroke-miterlimit="10" cx="666.2" cy="457" r="23.5"/>
<path fill="#FFFFFF" stroke="#000000" stroke-miterlimit="10" d="M441.6,554.3h18.2c0,0,3.2-41.7-8.6-40.6
	C439.4,514.7,441.6,554.3,441.6,554.3z"/>
<path fill="#FFFFFF" stroke="#000000" stroke-miterlimit="10" d="M625.5,664.5h-15c0,0-3.6-17-0.4-25.8c1.1-2.9,2.9-5,5.8-5.2
	c5.2-0.5,7.7,5.6,8.8,12.5C626.2,654.6,625.5,664.5,625.5,664.5z"/>
<circle fill="#FFFFFF" stroke="#000000" stroke-miterlimit="10" cx="388.1" cy="540.4" r="8.6"/>
<path fill="#FFFFFF" stroke="#000000" stroke-miterlimit="10" d="M397.7,634.5c0,7.1-5.7,12.8-12.8,12.8s-12.8-5.7-12.8-12.8
	c0-7.1,5.7-12.8,12.8-12.8c1,0,2.1,0.1,3,0.4c0.9,0.2,1.7,0.5,2.5,0.9C394.7,625,397.7,629.4,397.7,634.5z"/>
<circle fill="#FFFFFF" stroke="#000000" stroke-miterlimit="10" cx="422.3" cy="659.1" r="7.5"/>
<path fill="#FFFFFF" stroke="#000000" stroke-miterlimit="10" d="M517.5,538.2c0,8.3-6.7,15-15,15c-4.3,0-8.3-1.9-11-4.8
	c-2.5-2.7-4-6.2-4-10.2c0-8.3,6.7-15,15-15c0.6,0,1.3,0,1.9,0.1C511.8,524.3,517.5,530.6,517.5,538.2z"/>
<path fill="#FFFFFF" stroke="#000000" stroke-miterlimit="10" d="M552.8,515.8c0,4.3-2.5,7.9-6.1,9.7c-1.4,0.7-2.9,1-4.6,1
	c-5.9,0-10.7-4.8-10.7-10.7c0-5.7,4.5-10.4,10.1-10.7c0.2,0,0.4,0,0.6,0C548,505.1,552.8,509.9,552.8,515.8z"/>
<path fill="#FFFFFF" stroke="#000000" stroke-miterlimit="10" d="M530.3,602.4c0,9.4-6.7,17.2-15.6,18.9c-1.2,0.2-2.4,0.4-3.6,0.4
	c-10.6,0-19.3-8.6-19.3-19.3s8.6-19.3,19.3-19.3c7.6,0,14.2,4.4,17.3,10.8v0C529.7,596.5,530.3,599.4,530.3,602.4z"/>
<path fill="#FFFFFF" stroke="#000000" stroke-miterlimit="10" d="M571.9,544.9c-1.2,4.2-2.2,8.2-2.9,11.9c-0.1,0.5-0.2,0.9-0.3,1.4
	c0,0.1-0.1,0.2-0.1,0.3l-0.2,1c0,0,0,0,0,0c-0.1,0.7-0.3,1.3-0.4,1.9c-0.1,0.6-0.2,1.2-0.3,1.8c-0.2,1.2-0.4,2.4-0.6,3.5
	c-6-1.1-19.3-4.8-14.3-15.6c1.4-3.1,3.4-5,5.6-6.2c0.6,0.4,1.3,0.6,1.9,0.8c0,0,0.1-0.6,0.2-1.6C564.5,543,568.8,543.9,571.9,544.9z
	"/>
<path fill="#FFFFFF" stroke="#000000" stroke-miterlimit="10" d="M790.3,666.8c-0.3,0.4-0.6,0.8-0.9,1.2
	c-7.1,9.3-13.4,18.8-19.1,28.2c-5.8,9.6-10.9,19.2-15.4,28.3c-0.5,1-0.9,1.9-1.4,2.8c-6.5,0.3-13.2,0.4-19.8,0.5
	c0.8-2.4,1.6-4.9,2.5-7.3c0.3-0.8,0.6-1.6,0.9-2.5c0.3-0.8,0.6-1.7,0.9-2.5c0.3-0.8,0.6-1.7,0.9-2.5c0.6-1.7,1.3-3.3,1.9-5
	c3.3-8.4,7-16.9,11.2-25c3.7-7.3,7.8-14.3,12.3-20.9c4.9-7.2,10.3-13.8,16.2-19.6c0.8-0.7,1.6-1.5,2.4-2.2
	C784.6,646.2,787.3,655.5,790.3,666.8z"/>
<path fill="#FFFFFF" stroke="#000000" stroke-miterlimit="10" d="M753.5,727.4c-4.8,10.1-8.8,19.6-12.1,28
	c-4.2,10.7-7.2,19.8-9.1,26.1c-4.2-0.2-8.3-0.3-12.3-0.3c0.9-4.7,2.2-11.3,4.2-19.3c2.2-9.2,5.1-20.2,8.9-31.9
	c0.2-0.7,0.5-1.4,0.7-2.2C740.3,727.8,746.9,727.7,753.5,727.4z"/>
<path fill="#FFFFFF" stroke="#000000" stroke-miterlimit="10" d="M802.9,721.7c-7.6,1.8-16.6,3.2-26.4,4.2
	c4.1-8.1,8.6-15.7,13.4-22.8c2.3-3.3,4.6-6.6,7-9.7C799,702.4,801.1,712,802.9,721.7z"/>
<path fill="#FFFFFF" stroke="#000000" stroke-miterlimit="10" d="M809.2,784.5c-0.1,4.7-0.5,9.1-1.2,13.1c0,0.1,0,0.2,0,0.3
	c-0.1,0-0.2-0.1-0.3-0.1c-0.6-0.2-1.1-0.5-1.7-0.7c-0.4-0.2-0.9-0.4-1.3-0.5c0,0-0.1,0-0.1-0.1c-0.6-0.2-1.1-0.5-1.7-0.7
	c-0.4-0.2-0.9-0.4-1.3-0.5c-0.6-0.2-1.2-0.5-1.8-0.7c-0.8-0.3-1.5-0.6-2.3-0.8c-0.4-0.1-0.8-0.3-1.2-0.4c-0.5-0.2-1.1-0.4-1.6-0.5
	c-0.4-0.1-0.8-0.3-1.2-0.4c-2-0.6-4-1.3-6-1.9c-0.9-0.3-1.9-0.5-2.8-0.8c-1.1-0.3-2.1-0.6-3.2-0.9c-0.1,0-0.1,0-0.2,0
	c-0.9-0.2-1.8-0.4-2.7-0.7c-0.8-0.2-1.6-0.4-2.4-0.6c-0.3-0.1-0.6-0.1-0.9-0.2c-0.3-0.1-0.6-0.1-0.9-0.2c-1.2-0.3-2.4-0.5-3.6-0.8
	c-1-0.2-1.9-0.4-2.9-0.6c-1.4-0.3-2.8-0.5-4.2-0.8c-1.1-0.2-2.2-0.4-3.4-0.6c-1.1-0.2-2.3-0.4-3.4-0.5c1.5-8.1,3.4-15.9,5.7-23.3
	c3.1-10.3,6.9-20,11.2-29c0.9-1.9,1.9-3.9,2.8-5.8c9.8-1,18.8-2.3,26.4-4.2C807,743.6,809.8,766,809.2,784.5z"/>
<path fill="#FFFFFF" stroke="#000000" stroke-miterlimit="10" d="M740.7,708.1c-0.7,1.7-1.3,3.3-1.9,5c-0.3,0.8-0.6,1.7-0.9,2.5
	c-0.3,0.8-0.6,1.7-0.9,2.5c-0.3,0.8-0.6,1.7-0.9,2.5c-0.9,2.5-1.7,4.9-2.5,7.3c-0.2,0.7-0.5,1.4-0.7,2.2c-7.6-2.5-18.5-1.9-27.2-0.8
	c0.2-0.5,0.3-1,0.5-1.6c2.4-7.6,5.2-15.6,8.2-23.7v0C721.9,703,732.1,703,740.7,708.1z"/>
<path fill="#FFFFFF" stroke="#000000" stroke-miterlimit="10" d="M755.3,631.2c-0.7,0.9-1.5,1.7-2.2,2.6c-0.5,0.6-1,1.2-1.4,1.8
	c-0.1,0.2-0.3,0.3-0.4,0.5c-0.5,0.6-1,1.3-1.5,1.9c-0.1,0.1-0.1,0.1-0.2,0.2c-0.6,0.8-1.2,1.6-1.8,2.4c-0.7,0.9-1.4,1.9-2,2.8
	c-0.2,0.3-0.4,0.6-0.7,0.9c-0.5,0.7-1,1.4-1.5,2.2c-0.1,0.2-0.3,0.4-0.4,0.6c-0.7,1-1.4,2.1-2.1,3.1c-4.1,6.4-8,13-11.5,19.9
	c-5.8,11.1-10.8,22.6-15.1,33.9v0c-3.1,8.1-5.8,16-8.2,23.7c-20.4-0.4-38.8-1.5-50.9-2.2c-0.4-2.3-0.9-4.7-1.4-7
	c0-0.2-0.1-0.4-0.1-0.6c-0.4-2.2-0.9-4.4-1.4-6.6c-2.2-10.3-4.8-20.9-7.6-31.4c-2.8-10.4-5.9-20.7-9.2-30.7
	c-1.2-3.6-2.4-7.1-3.6-10.5c-0.3-0.9-0.6-1.7-0.9-2.6c-0.3-0.9-0.6-1.7-0.9-2.5C648.4,634.2,714.8,636,755.3,631.2z"/>
<path fill="#FFFFFF" stroke="#000000" stroke-miterlimit="10" d="M608.6,480.4c-14,12.9-23.5,29.1-29.9,44.8
	c-1.4,3.4-2.7,6.9-3.8,10.2c-1.2-5.1-3-9.8-5.1-14.1C571.4,485.8,597.3,480.9,608.6,480.4z"/>
<path fill="#FFFFFF" stroke="#000000" stroke-miterlimit="10" d="M329.4,762.6c-3.1-0.4-6.3-0.4-9.7,0.3
	c-18.4,3.7-28.9,20.8-31.4,31.6c-1.6-0.3-3.2-0.5-4.9-0.6c-10.2-0.4-17.5,5-22.6,11.7c-5.6-1-10.4-2.5-13.7-4.6
	c4-2.1,6.3-3.9,6.3-3.9s0-0.1,0-0.3c0-0.1,0-0.2,0-0.3c0-0.3-0.1-0.8-0.1-1.4c0-0.1,0-0.2,0-0.4c0-0.3-0.1-0.5-0.1-0.8
	c0-0.3-0.1-0.6-0.1-0.9c-0.1-1-0.2-2.1-0.4-3.3c-0.1-0.4-0.1-0.9-0.2-1.4c-0.2-1.2-0.4-2.5-0.7-3.8c-0.1-0.5-0.2-1-0.3-1.4
	c-0.2-1-0.4-2-0.7-3c-0.1-0.6-0.3-1.2-0.5-1.8c-0.3-0.9-0.5-1.9-0.8-2.8c-0.1-0.5-0.3-1-0.5-1.5c-0.4-1.1-0.8-2.2-1.3-3.3
	c-0.4-0.9-0.8-1.7-1.2-2.6c-0.2-0.4-0.4-0.8-0.6-1.3c-0.2-0.4-0.4-0.8-0.7-1.2c-0.1-0.3-0.3-0.5-0.4-0.8c-0.2-0.3-0.3-0.5-0.5-0.8
	c-0.1-0.2-0.3-0.5-0.5-0.7c-0.2-0.3-0.4-0.6-0.6-0.8c-0.2-0.3-0.4-0.5-0.6-0.8c-0.2-0.3-0.4-0.6-0.7-0.9c-0.3-0.3-0.6-0.7-0.9-1
	c0.4-4.9,1-10.1,1.6-15.3c1.3-10.3,2.8-20.9,4.4-30.9c1-6.3,1.9-12.3,2.8-17.9c1.2-7.6,2.2-14.3,2.9-19.5c0.3-2.7,0.6-4.9,0.7-6.6
	c0.5-9.4-1.5-16-3.8-20.4c19.4-2.1,44.7-1.9,66.8-1.1c-2.6,19.9,4.4,45.2,4.4,46.1C320.7,695.1,327,733,329.4,762.6z"/>
<path fill="#FFFFFF" stroke="#000000" stroke-miterlimit="10" d="M275.8,692.3h11.8c0,0,1.1-31-6.4-30
	C273.6,663.4,275.8,692.3,275.8,692.3z"/>
<path fill="#FFFFFF" stroke="#000000" stroke-miterlimit="10" d="M354.9,838.8c-9.6,11.8-33.2,3.2-33.2,3.2s-3.2-19.3,13.9-20.3
	C352.8,820.6,354.9,838.8,354.9,838.8z"/>
<path fill="#FFFFFF" stroke="#000000" stroke-miterlimit="10" d="M353.2,650.4c-0.2,0.1-0.4,0.2-0.6,0.2c-0.7,0.3-1.3,0.7-1.9,1.1
	c-2.4,1.5-4.3,3.4-5.9,5.5c-1.6,2-2.9,4.3-3.9,6.7c-1,2.4-1.7,5.1-1.8,7.9c-0.1,2.8,0.1,5.7,1.1,8.5c0.9,2.6,2.3,5.1,4,7.1v82.2
	c-4.3-3.8-9.3-6.3-14.9-7.1c-2.4-29.5-8.7-67.4-8.7-68.1c0-1-7-26.2-4.4-46.1C330.7,648.9,343.8,649.7,353.2,650.4z"/>
<path fill="#FFFFFF" stroke="#000000" stroke-miterlimit="10" d="M357.2,813.9c-3.8,3.8-10,5.4-15.8,5.9c-7.2,0.7-14.4-0.2-21.3-2.4
	c-2.7-0.8-5.9-1.9-9.2-3.1c-1.6-3.1-3.6-6.5-6.1-9.5c-4-4.7-9.4-8.8-16.5-10.3c2.6-10.8,13.1-28,31.4-31.6c3.4-0.7,6.7-0.8,9.7-0.3
	c5.6,0.8,10.6,3.3,14.9,7.1c8.1,7.2,13.7,18.8,16,31.7C361.3,807.1,359.9,811.1,357.2,813.9z"/>
<path fill="#FFFFFF" stroke="#000000" stroke-miterlimit="10" d="M315.3,827.1c0,0-26.7,28.9-65.2,2.1c0,0,2.7-13.3,10.6-23.6
	c5.1-6.7,12.4-12.2,22.6-11.7c1.7,0.1,3.4,0.3,4.9,0.6c7.1,1.5,12.5,5.6,16.5,10.3c2.6,3,4.6,6.4,6.1,9.5
	C314.2,821.2,315.3,827.1,315.3,827.1z"/>
<path fill="#FFFFFF" stroke="#000000" stroke-miterlimit="10" d="M253.3,797.1c0,0-2.3,1.8-6.3,3.9c-9.8,5.2-29.5,12.5-49.3,0.3
	c0,0,0-2.1,0.3-5.3c0.1-1,0.2-2.2,0.3-3.4c0.5-5,1.6-11.4,3.7-17.6c2.4-7.3,6.3-14.2,12.3-18.3c2.9-1.9,6.2-3.2,10.1-3.5
	c7.1-0.6,12.5,2.3,16.5,6.7c0.3,0.3,0.6,0.7,0.9,1c0.2,0.3,0.5,0.6,0.7,0.9c0.2,0.3,0.4,0.5,0.6,0.8c0.2,0.3,0.4,0.5,0.6,0.8
	c0.2,0.2,0.3,0.5,0.5,0.7c0.2,0.3,0.3,0.5,0.5,0.8c0.1,0.3,0.3,0.5,0.4,0.8c0.2,0.4,0.5,0.8,0.7,1.2c0.2,0.4,0.4,0.8,0.6,1.3
	c0.4,0.8,0.8,1.7,1.2,2.6c0.5,1.1,0.9,2.2,1.3,3.3c0.2,0.5,0.3,1,0.5,1.5c0.3,0.9,0.6,1.9,0.8,2.8c0.2,0.6,0.3,1.2,0.5,1.8
	c0.3,1,0.5,2,0.7,3c0.1,0.5,0.2,1,0.3,1.4c0.3,1.3,0.5,2.6,0.7,3.8c0.1,0.5,0.1,0.9,0.2,1.4c0.2,1.2,0.3,2.3,0.4,3.3
	c0,0.3,0.1,0.6,0.1,0.9c0,0.3,0.1,0.6,0.1,0.8c0,0.1,0,0.2,0,0.4c0.1,0.6,0.1,1.1,0.1,1.4c0,0.1,0,0.2,0,0.3
	C253.3,797,253.3,797.1,253.3,797.1z"/>
<path fill="#FFFFFF" stroke="#000000" stroke-miterlimit="10" d="M252.7,676.4c-0.6,5.1-1.7,11.8-2.9,19.5
	c-22,1.2-40.3-21.3-48.1-32.6c4.7-4.9,9.2-8.8,13.1-11.8c0,0,0,0.1,0,0.1C220.1,660.1,231.9,674.7,252.7,676.4z"/>
<path fill="#FFFFFF" stroke="#000000" stroke-miterlimit="10" d="M249.8,695.9c-0.9,5.6-1.9,11.6-2.8,17.9
	c-25.2-2.1-46.7-25.1-56.4-37.4c3.8-5,7.6-9.4,11.2-13.1C209.5,674.6,227.8,697.1,249.8,695.9z"/>
<path fill="#FFFFFF" stroke="#000000" stroke-miterlimit="10" d="M246.9,713.8c-1.6,10-3.1,20.6-4.4,30.9
	c-30.1-4.3-54.1-36.9-63.3-51.1c3.7-6.4,7.5-12.1,11.3-17.1C200.3,688.7,221.7,711.7,246.9,713.8z"/>
<path fill="#FFFFFF" stroke="#000000" stroke-miterlimit="10" d="M242.6,744.7c-0.6,5.2-1.2,10.4-1.6,15.3
	c-4.1-4.4-9.4-7.3-16.5-6.7c-3.9,0.3-7.3,1.6-10.1,3.5c-21.9-11.1-38-29.5-46.1-40.2c3.4-8.6,7.2-16.2,11.1-23.1
	C188.4,707.8,212.5,740.4,242.6,744.7z"/>
<path fill="#FFFFFF" stroke="#000000" stroke-miterlimit="10" d="M214.3,756.8c-6,4-9.9,11-12.3,18.3c-16.7-6.7-33.3-22.6-42.3-32.2
	c2.5-9.6,5.4-18.3,8.5-26.2C176.2,727.2,192.4,745.7,214.3,756.8z"/>
<path fill="#FFFFFF" stroke="#000000" stroke-miterlimit="10" d="M202,775c-2.1,6.2-3.2,12.7-3.7,17.6c-18.2-4.8-34.4-18.9-43.4-28
	c1-6.1,2.5-12.7,4.3-20c0.2-0.6,0.3-1.3,0.5-1.9C168.7,752.4,185.3,768.3,202,775z"/>
<path fill="#FFFFFF" stroke="#000000" stroke-miterlimit="10" d="M198.3,792.7c-0.1,1.2-0.2,2.4-0.3,3.4
	c-14.6,0.5-29.8,3.2-44.9,7.2c-1.3-9.1-1.1-21.6,1.9-38.5C163.9,773.8,180.1,787.8,198.3,792.7z"/>
<path fill="#FFFFFF" stroke="#000000" stroke-miterlimit="10" d="M642.7,799.5c-0.8,0.4-1.6,0.8-2.3,1.3c-0.3,0.2-0.6,0.4-1,0.5
	c-0.4,0.2-0.7,0.4-1.1,0.6c-0.7,0.4-1.4,0.8-2.1,1.2c-0.3,0.2-0.7,0.4-1,0.6c-0.3,0.2-0.7,0.4-1,0.6c-1.6,1-3.1,2-4.6,3
	c-0.7,0.5-1.4,0.9-2.1,1.4c-1.6,1.2-3.2,2.3-4.8,3.5c-26.8-5-59.8-31.8-73.3-43.8l-1.6-55.8C560.7,728.3,604.8,779.9,642.7,799.5z"
	/>
<path fill="#FFFFFF" stroke="#000000" stroke-miterlimit="10" d="M622.8,812.4c-0.3,0.2-0.6,0.4-0.9,0.7c-1.2,0.9-2.3,1.8-3.5,2.8
	c-1.5-0.1-3.2-0.3-4.9-0.4c-23.2-2.1-62.9-6.5-62.9-6.5l-1-34.4l-0.2-5.8C563.1,780.5,596,807.4,622.8,812.4z"/>
<path fill="#FFFFFF" stroke="#000000" stroke-miterlimit="10" d="M774.4,787.2c-8.5,6.3-30.4,9.8-45.1,7.8
	c-11.7-1.6-16-9.4-17.5-13.5c0.5,0,1.1-0.1,1.6-0.1c0.8,0,1.5-0.1,2.3-0.1c0.3,0,0.5,0,0.8,0c1.1,0,2.2,0,3.4-0.1
	c4,0,8.1,0.1,12.3,0.3c2.9,0.1,5.9,0.3,8.9,0.6c5.4,0.5,10.7,1.1,15.7,1.8c1.2,0.2,2.3,0.3,3.4,0.5c1.1,0.2,2.3,0.4,3.4,0.6
	c1.4,0.2,2.8,0.5,4.2,0.8c1,0.2,2,0.4,2.9,0.6C772,786.6,773.2,786.9,774.4,787.2z"/>
<path fill="#FFFFFF" stroke="#000000" stroke-miterlimit="10" d="M423.4,812.2l-16.4,0.4l-2.6,0.1l-15.4,0.4l-31.7,0.8
	c-3.8,3.8-10,5.4-15.8,5.9c-7.2,0.7-14.4-0.2-21.3-2.4c-2.7-0.8-5.9-1.9-9.2-3.1c3.4,6.8,4.6,12.7,4.6,12.7s-26.7,28.9-65.2,2.1
	c0,0,2.7-13.3,10.6-23.6c-5.6-1-10.4-2.5-13.7-4.6c-9.8,5.2-29.5,12.5-49.3,0.3c0,0,0-2.1,0.3-5.3c-14.6,0.5-29.8,3.2-44.9,7.2
	c-17,4.5-33.9,10.7-49.7,17.6c-8.7,3.8-17.1,7.7-25.1,11.7c-36.4,18.2-62.4,36.3-62.4,36.3S-7.7,894.4,52.2,903c0,0,61,8,147.7,12.3
	c18.9-47.7,151.1-70.6,203.2-64.7C442.3,855,432.9,828.8,423.4,812.2z M321.8,842c0,0-3.2-19.3,13.9-20.3
	c17.1-1.1,19.3,17.1,19.3,17.1C345.3,850.6,321.8,842,321.8,842z M613.6,815.4c-23.2-2.1-62.9-6.5-62.9-6.5l-37,1l-28.3,0.7l-1.4,0
	c4.1,6.6,12.2,16,27.1,22.9c25.7,11.8-11.8,50.3-64.2,35.3c-45.2-12.9-60.2,25.9-47.7,46.4c12-0.7,23.9-1.6,35.9-2.6
	c38.9-3.3,82.4-6,127.1-8.2c0.7-2.5,1.6-5.2,2.6-8.1c3.7-10.6,9.1-23.6,17-37c5.1-8.7,11.3-17.5,18.7-26c4.1-4.7,8.6-9.3,13.4-13.6
	c0.5-0.5,1.1-0.9,1.6-1.4c0.9-0.8,1.9-1.6,2.8-2.4C617,815.7,615.3,815.5,613.6,815.4z"/>
<path fill="#FFFFFF" stroke="#000000" stroke-miterlimit="10" d="M446.9,868.8c-45.2-12.9-60.2,25.9-47.7,46.4
	c-71,4.2-141,3-199.4,0.1c18.9-47.7,151.1-70.6,203.2-64.7c39.2,4.4,29.8-21.8,20.3-38.4l18.2-0.5l42.4-1.1
	c4.1,6.6,12.2,16,27.1,22.9C536.8,845.2,499.3,883.7,446.9,868.8z"/>
<path fill="#FFFFFF" stroke="#000000" stroke-miterlimit="10" d="M933.6,888c-3,1.8-22.2,3.2-52.1,4.5c-1.9-13.7-6.5-30.7-16.7-47.2
	c-3.4-5.4-7.3-10.8-12-16c-7.8-8.7-17.6-16.9-29.9-23.9c-3.5-2-7.2-3.9-11.1-5.8c-1.3-0.6-2.5-1.2-3.8-1.7c0-0.1,0-0.2,0-0.3
	c0.6-4.1,1-8.5,1.2-13.1C844.4,796,915.3,846,924,852.7C933.6,860.2,946.4,880.5,933.6,888z"/>
<path fill="#FFFFFF" stroke="#000000" stroke-miterlimit="10" d="M881.6,893.2c-22.5,10.5-68.8,25.2-152.3,25.9
	c-42.7,0.4-73.9-7.3-96.6-17.8c-28.2-13-43.2-30.3-50.8-42c5.1-8.7,11.3-17.5,18.7-26c18.8,12.7,72.8,44.5,140.5,41.9
	c67.1-2.5,109.2-21.9,123.7-29.8c10.2,16.5,14.8,33.5,16.7,47.2C881.5,892.8,881.6,893,881.6,893.2z"/>
<path fill="#FFFFFF" stroke="#000000" stroke-miterlimit="10" d="M882.3,921.2c0,0-170.1,89.9-324.1,0c0,0,1-6.5,4.1-16.8
	c0.7-2.5,1.6-5.2,2.6-8.1c3.4,1.9,7.9,4.4,13.6,7.3c49.8,25.4,182.6,79.2,304.3,5.6C882.9,916.6,882.3,921.2,882.3,921.2z"/>
<path fill="#FFFFFF" stroke="#000000" stroke-miterlimit="10" d="M253.3,669.8c-0.1,1.7-0.3,3.9-0.7,6.6
	c-20.8-1.7-32.6-16.3-37.8-24.9c0.4-0.5,2.2-2.8,5.6-4.8c0,0.2,0,0.4,0,0.6c0.1,6,0.7,9.6,0.7,9.6c5.3-3.8,15.5-6.2,28.3-7.6
	C251.8,653.8,253.8,660.4,253.3,669.8z"/>
</svg>
