<?xml version="1.0" encoding="utf-8"?>
<!-- Generator: Adobe Illustrator 23.0.5, SVG Export Plug-In . SVG Version: 6.00 Build 0)  -->
<svg version="1.1" baseProfile="tiny" id="Layer_1" xmlns="http://www.w3.org/2000/svg" xmlns:xlink="http://www.w3.org/1999/xlink"
	 x="0px" y="0px" viewBox="0 0 1000 1000" xml:space="preserve">
<path fill="#FFFFFF" stroke="#000000" stroke-miterlimit="10" d="M-0.5,1.5v784h1v-101l0.3-1c0.1,0,0.3,0,0.5,0h0
	c4.4,0.3,26.9,1.7,55.6,0c13.8-0.8,29.2-2.3,44.7-5.1c14.2-2.5,28.6-6,42.1-10.8c6.3,21.3,30.8,24.8,55.8,24.5
	c6.1-0.1,12.3-0.4,18.2-0.7h0c3.9-0.2,7.8-0.5,11.4-0.7l0.3,6.4c20.4,9.7,51.9,23.2,88.6,33.8c21.7,6.2,45.2,11.5,69.3,14.3
	c0-0.3,0-0.6,0-0.8c0.8,0.4,1.7,0.8,2.6,1.1c8.1,3,21.8,4.5,39.1,5c33.3,1,79.5-2,122.7-5.9c19.2-1.8,37.8-3.7,54.4-5.6
	c33.8-3.9,59.2-7.5,64.5-8.7c0.7-0.2,1.3-0.4,2-0.7c0,0,0,0,0,0c0,0,0,0,0,0c1.4-0.4,24.6-8.1,59-18c5.8-1.7,12-3.4,18.4-5.2
	c7.7,4.7,15.5,6,15.5,6s13.2,0,30,0.1c9.1,0.1,19.3,0.2,29,0.4c7.1,0.1,13.9,0.3,20,0.5c23.1,0.8,33.8-15.1,37.4-22.4
	c3.4,1,5.6,1.4,5.6,1.4l34.3,4.7l46.1,6.3l31.7,4.3V1.5H-0.5z M166,546c-1.2-3-2.4-5.8-3.5-8.5c-1.7-4.3-4-10.3-6.9-17.5
	c5.4-0.3,13.1-0.5,21.3-0.3C172,529.6,168.2,539.5,166,546z"/>
<path fill="#FFFFFF" stroke="#000000" stroke-miterlimit="10" d="M176.9,519.7c-5,10-8.7,19.8-11,26.3c-1.2-3-2.4-5.8-3.5-8.5
	c-1.7-4.3-4-10.3-6.9-17.5C161,519.7,168.7,519.5,176.9,519.7z"/>
<path fill="#FFFFFF" stroke="#000000" stroke-miterlimit="10" d="M609.5,324.7c-7,12-43,7-52.9-4.9c-0.9-1.1-1.6-2.2-2-3.3
	c0,0,0-0.1,0-0.1c-2.5-6.9-1-12.6,1.5-16.9c1.3-2.2,2.8-4,4.3-5.4c1.9-1.9,3.7-3.1,4.1-3.4c-0.4,0.4-1.5,2.3,0.1,9.9
	c0.5,2,2.9,3,6.5,3.5c2.6,0.4,5.8,0.5,9.2,0.6c6.9,0.3,14.8,0.6,20.8,2.8c4.8,1.8,8.4,4.8,9.4,10.1c0.1,0.3,0.1,0.6,0.2,0.9
	C610.8,320.9,610.5,323,609.5,324.7z"/>
<path fill="#FFFFFF" stroke="#000000" stroke-miterlimit="10" d="M618.3,340.4c-4.9,6.9-21,10.4-37.2,10.4c-0.7,0-1.3,0-2,0
	c-1.8,0-3.7-0.1-5.5-0.2c-0.2,0-0.4,0-0.6,0c-1.1-0.1-2.2-0.2-3.3-0.3c-0.2,0-0.5,0-0.7-0.1c-0.3,0-0.5-0.1-0.8-0.1
	c-0.4,0-0.9-0.1-1.3-0.2c-1.2-0.2-2.3-0.4-3.5-0.6c-0.5-0.1-1.1-0.2-1.6-0.3c-0.1,0-0.3-0.1-0.4-0.1c-0.4-0.1-0.8-0.2-1.3-0.3
	c-0.5-0.1-1.1-0.2-1.6-0.4c-0.2-0.1-0.5-0.1-0.7-0.2c-0.5-0.1-1-0.3-1.5-0.4c-0.4-0.1-0.8-0.2-1.2-0.3c-1.1-0.3-2.1-0.7-3-1.1
	c-1.2-0.5-2.2-1-3.2-1.5l-0.4-0.2c-0.7-0.4-1.4-0.8-2.1-1.3c-0.2-0.1-0.3-0.2-0.5-0.4c-0.2-0.2-0.4-0.3-0.6-0.5c0,0,0,0,0,0
	c-0.2-0.2-0.4-0.3-0.6-0.5c-0.2-0.2-0.4-0.3-0.5-0.5c-0.1-0.2-0.3-0.3-0.4-0.5c-0.2-0.2-0.3-0.4-0.5-0.6c-0.1-0.2-0.2-0.3-0.4-0.5
	c0,0,0-0.1-0.1-0.1c-0.1-0.2-0.2-0.3-0.3-0.5c-0.1-0.2-0.2-0.4-0.3-0.6c-0.2-0.5-0.4-1-0.6-1.5c-1.7-4.5-1.3-8.2,0.2-11.1
	c1.5-3,4-5.2,6.7-6.8c2-1.3,4.1-2.1,5.7-2.7c0,0,0,0.1,0,0.1c0.4,1.2,1.1,2.3,2,3.3c10,11.8,46,16.8,52.9,4.9c8.6,1.5,10,8.8,10,8.8
	C620.2,336.1,619.8,338.4,618.3,340.4z"/>
<path fill="#FFFFFF" stroke="#000000" stroke-miterlimit="10" d="M629.5,361.5c-0.8,5.9-7.8,9.6-17.8,11.5
	c-17.4,3.3-43.7,1.2-61.7-3.8c-10.1-2.8-17.6-6.5-19.5-10.7c-1.3-3-1.6-5.7-1.2-8.1c0.4-2.3,1.5-4.4,2.9-6.2
	c2.8-3.5,6.8-5.9,9.8-7.3c0.2,0.5,0.4,1,0.6,1.5c0.1,0.2,0.2,0.4,0.3,0.6c0.1,0.2,0.2,0.4,0.3,0.5c0,0,0,0.1,0.1,0.1
	c0.1,0.2,0.2,0.3,0.4,0.5c0.1,0.2,0.3,0.4,0.5,0.6c0.1,0.2,0.3,0.3,0.4,0.5c0.2,0.2,0.3,0.3,0.5,0.5c0.2,0.2,0.4,0.3,0.6,0.5
	c0,0,0,0,0,0c0.2,0.2,0.4,0.3,0.6,0.5c0.2,0.1,0.3,0.3,0.5,0.4c0.6,0.5,1.3,0.9,2.1,1.3l0.4,0.2c1,0.5,2.1,1,3.2,1.5
	c1,0.4,2,0.8,3,1.1c0.4,0.1,0.8,0.2,1.2,0.3c0.5,0.1,1,0.3,1.5,0.4c0.2,0.1,0.4,0.1,0.7,0.2c0.5,0.1,1,0.3,1.6,0.4
	c0.4,0.1,0.8,0.2,1.3,0.3c0.1,0,0.3,0.1,0.4,0.1c0.5,0.1,1.1,0.2,1.6,0.3c1.1,0.2,2.3,0.4,3.5,0.6c0.4,0,0.8,0.1,1.3,0.2
	c0.3,0,0.5,0.1,0.8,0.1c0.2,0,0.5,0,0.7,0.1c1.1,0.1,2.2,0.2,3.3,0.3c0.2,0,0.4,0,0.6,0c1.8,0.1,3.7,0.2,5.5,0.2c0.7,0,1.3,0,2,0
	c16.2,0,32.3-3.5,37.2-10.4c3.7,1.5,7.7,4.2,9.8,9C629.6,352.5,630.2,356.4,629.5,361.5z"/>
<path fill="#FFFFFF" stroke="#000000" stroke-miterlimit="10" d="M824.5,313.5c-0.1,1.1-0.3,2.1-0.7,3.1c-1.3,3.7-4.4,7-8.3,9.8
	c-15.1,10.4-44,12.6-47-0.9c-0.1-0.3-0.1-0.6-0.2-1c-0.4-2.4-0.1-4.5,0.6-6.3c2.4-5.9,10-8.9,18.2-10.7c1.9-0.4,3.9-0.8,5.8-1.1
	c5.2-0.8,10.1-1.3,13.6-1.9c1.8-0.3,3.2-0.8,4.3-1.4c6.3-3.6,2.7-11.6,2.7-11.6S826.5,293.5,824.5,313.5z"/>
<path fill="#FFFFFF" stroke="#000000" stroke-miterlimit="10" d="M839.5,338.5c-1.1,1.7-3.1,3.2-5.6,4.5c-0.3,0.1-0.6,0.3-0.9,0.4
	c-0.4,0.2-0.8,0.4-1.3,0.6c-0.4,0.1-0.7,0.3-1.1,0.4c0,0-0.1,0-0.1,0c-0.4,0.2-0.8,0.3-1.2,0.4c-0.4,0.2-0.9,0.3-1.4,0.4
	c-0.4,0.1-0.8,0.2-1.1,0.4c-0.3,0.1-0.6,0.2-0.9,0.2c-0.4,0.1-0.8,0.2-1.3,0.3c-0.9,0.2-1.8,0.4-2.7,0.6c-0.1,0-0.1,0-0.2,0
	c-0.3,0.1-0.6,0.1-1,0.2c-0.4,0.1-0.8,0.2-1.2,0.2c-0.3,0.1-0.6,0.1-1,0.2c-0.4,0.1-0.8,0.2-1.3,0.2c-0.4,0.1-0.8,0.1-1.2,0.2
	c-0.2,0-0.4,0.1-0.6,0.1c-0.3,0-0.6,0.1-0.9,0.1c-0.4,0-0.8,0.1-1.2,0.2c-0.8,0.1-1.6,0.2-2.4,0.3c-0.5,0.1-1.1,0.1-1.6,0.2
	s-1.1,0.1-1.7,0.2c-1.7,0.1-3.5,0.3-5.2,0.3c-0.4,0-0.8,0-1.2,0c-0.7,0-1.4,0-2,0.1c-0.5,0-1.1,0-1.6,0c-16.8,0.2-32.9-2.5-36.9-8.5
	c-0.1-0.1-0.2-0.2-0.2-0.4c-5.6-9.8,2.4-14.2,7.8-16c0,0.3,0.1,0.6,0.2,1c3,13.5,31.8,11.3,47,0.9c4-2.7,7-6,8.3-9.8
	c7.1,0.7,15.3,5.7,16.7,17.9C840.7,335.9,840.3,337.3,839.5,338.5z"/>
<path fill="#FFFFFF" stroke="#000000" stroke-miterlimit="10" d="M849.5,357.5c-0.2,3.9-4,7.2-10,9.9c-2.9,1.3-6.3,2.5-10,3.5
	c-12.3,3.4-28.5,5.1-43.2,4.9c-0.5,0-1,0-1.5,0c-2.9-0.1-5.8-0.2-8.6-0.4c-0.3,0-0.6,0-0.9-0.1c-1.8-0.1-3.5-0.3-5.2-0.6
	c-0.3,0-0.6-0.1-0.8-0.1c-0.1,0-0.1,0-0.2,0c-0.4-0.1-0.8-0.1-1.2-0.2c-0.2,0-0.4-0.1-0.6-0.1c-0.3-0.1-0.7-0.1-1-0.2
	s-0.7-0.1-1-0.2c-1.5-0.3-3-0.6-4.3-1c-0.2-0.1-0.5-0.1-0.7-0.2c-1.3-0.4-2.5-0.8-3.6-1.2c-0.3-0.1-0.5-0.2-0.7-0.3
	c-2.1-0.9-3.9-2-5.1-3.1c-0.1-0.1-0.3-0.2-0.4-0.4c-0.2-0.2-0.3-0.3-0.4-0.5c-0.1-0.1-0.2-0.3-0.3-0.4c-0.6-0.9-1.1-1.8-1.3-2.8
	c0-0.2,0-0.3-0.1-0.5c-0.5-5,0.3-9,1.7-12.2c2.5-5.8,7.3-8.9,10.6-10.4c4,6,20.2,8.7,36.9,8.5c0.5,0,1.1,0,1.6,0c0.7,0,1.4,0,2-0.1
	c0.4,0,0.8,0,1.2,0c1.8-0.1,3.5-0.2,5.2-0.3c0.5-0.1,1.1-0.1,1.7-0.2s1.1-0.1,1.6-0.2c0.8-0.1,1.6-0.2,2.4-0.3
	c0.4,0,0.8-0.1,1.2-0.2c0.3,0,0.6-0.1,0.9-0.1c0.2,0,0.4-0.1,0.6-0.1c0.4-0.1,0.8-0.1,1.2-0.2c0.4-0.1,0.8-0.1,1.3-0.2
	c0.3-0.1,0.7-0.1,1-0.2c0.4-0.1,0.8-0.2,1.2-0.2c0.3-0.1,0.6-0.1,1-0.2c0,0,0.1,0,0.2,0c0.9-0.2,1.8-0.4,2.7-0.6
	c0.4-0.1,0.8-0.2,1.3-0.3c0.3-0.1,0.6-0.2,0.9-0.2c0.4-0.1,0.8-0.2,1.1-0.4c0.5-0.1,0.9-0.3,1.4-0.4c0.4-0.1,0.8-0.3,1.2-0.4
	c0,0,0,0,0.1,0c0.4-0.1,0.8-0.3,1.1-0.4c0.4-0.2,0.9-0.4,1.3-0.6c0.3-0.1,0.6-0.3,0.9-0.4c2.6-1.3,4.5-2.8,5.6-4.5
	C844.7,341.3,850,346.9,849.5,357.5z"/>
<path fill="#FFFFFF" stroke="#000000" stroke-miterlimit="10" d="M787.1,307.5c-8.1,1.8-15.8,4.8-18.2,10.7
	c-4.4,1.2-8.4,4.3-8.4,4.3c-13-17-34,0-34,0c-19-15-37,0-37,0c-20-16-36,0-36,0c-18-16-35,0-35,0c-1.8-2.6-5-4.1-8.2-4.9
	c-1.1-5.3-4.7-8.3-9.4-10.1H787.1z"/>
<path fill="#FFFFFF" stroke="#000000" stroke-miterlimit="10" d="M616.1,466.4c-28.4,2.7-49,5.8-55.5,6.8c-0.8,0.1-1.3,0.2-1.7,0.3
	c-0.3,0-0.4,0.1-0.4,0.1l0-0.1L550,369.2c18,5,44.4,7.1,61.7,3.8L616.1,466.4z"/>
<path fill="#FFFFFF" stroke="#000000" stroke-miterlimit="10" d="M829.5,370.9l-11,99.6c-17.3-3.5-35.7-5.9-54.5-7.3l3.4-89
	c0.2,0,0.4,0.1,0.6,0.1c0.4,0.1,0.8,0.1,1.2,0.2c0.1,0,0.1,0,0.2,0c0.3,0,0.5,0.1,0.8,0.1c1.7,0.2,3.4,0.4,5.2,0.6
	c0.3,0,0.6,0.1,0.9,0.1c2.8,0.2,5.6,0.4,8.6,0.4c0.5,0,1,0,1.5,0C801,376,817.2,374.3,829.5,370.9z"/>
<path fill="#FFFFFF" stroke="#000000" stroke-miterlimit="10" d="M767.3,374.3l-3.4,89c-7.7-0.6-15.5-1-23.3-1.3l0.3-3.4l0.8-10.8
	l0.7-9.2l0.8-11l0.3-4c0,0,0.3-3,0.3-7.9c0-2.8-0.1-6.2-0.5-9.9c-0.4-3.9-1.1-8.1-2.2-12.4c-1.1-4.2-2.6-8.4-4.6-12.5
	c-1.8-3.6-4-7-6.7-10.1c-3.1-3.6-7-6.8-11.6-9.3c-3.9-2.1-8.3-3.7-13.4-4.7c-4.3-0.9-9-1.3-14.3-1.2c-0.3,0-0.7,0-1,0
	c-5.9,0.2-11.2,0.9-15.8,2c-4.6,1.1-8.7,2.7-12.2,4.6c-3.7,2-6.8,4.4-9.4,7c-3.5,3.5-6.2,7.5-8.1,11.6c-1.8,3.9-3.1,7.9-3.8,11.7
	c-1,4.8-1.3,9.4-1.3,13.1c0,5.4,0.6,9,0.6,9l0.2,2l0.9,11l0.9,11l0.7,9.1l0.9,10.9l0.4,5.6c-9.7,0.7-18.8,1.5-27.3,2.3l-4.4-93.4
	c10-1.9,17-5.6,17.8-11.5c0.7-5.1,0.1-9-1.3-12.1c7.6,1,18.3,0.5,24.3-7.9c0,0,21,16,37,0c0,0,16,19,36,0c0,0,10,10.8,24.7,9.8
	c-1.4,3.2-2.2,7.2-1.7,12.2c0,0.2,0,0.3,0.1,0.5c0.2,1,0.6,1.9,1.3,2.8c0.1,0.1,0.2,0.3,0.3,0.4c0.1,0.2,0.3,0.3,0.4,0.5
	c0.1,0.1,0.3,0.3,0.4,0.4c1.3,1.2,3,2.2,5.1,3.1c0.2,0.1,0.5,0.2,0.7,0.3c1.1,0.4,2.3,0.8,3.6,1.2c0.2,0.1,0.4,0.1,0.7,0.2
	c1.4,0.4,2.8,0.7,4.3,1c0.3,0.1,0.6,0.1,1,0.2S767,374.2,767.3,374.3z"/>
<path fill="#FFFFFF" stroke="#000000" stroke-miterlimit="10" d="M768.3,324.5c-5.4,1.8-13.4,6.2-7.8,16c0.1,0.1,0.2,0.3,0.2,0.4
	c-3.3,1.5-8,4.6-10.6,10.4c-14.6,1-24.7-9.8-24.7-9.8c-20,19-36,0-36,0c-16,16-37,0-37,0c-6,8.4-16.8,8.9-24.3,7.9
	c-2.2-4.8-6.2-7.5-9.8-9c1.4-2,1.9-4.3,1.2-6.9c0,0-1.5-7.3-10-8.8c1-1.7,1.4-3.8,1-6.2c0-0.3-0.1-0.6-0.2-0.9
	c3.1,0.8,6.4,2.3,8.2,4.9c0,0,17-16,35,0c0,0,16-16,36,0c0,0,18-15,37,0c0,0,21-17,34,0c0,0,4-3.1,8.4-4.3
	C768.2,320,767.9,322.1,768.3,324.5z"/>
<path fill="#FFFFFF" stroke="#000000" stroke-miterlimit="10" d="M794.8,302.5l-1.9,3.9c-1.9,0.3-3.9,0.7-5.8,1.1H600.9
	c-6-2.3-13.9-2.6-20.8-2.8l-0.6-2.2H794.8z"/>
<polygon fill="#FFFFFF" stroke="#000000" stroke-miterlimit="10" points="593.8,302.5 579.5,302.5 575.5,288.5 590.6,288.5 "/>
<polygon fill="#FFFFFF" stroke="#000000" stroke-miterlimit="10" points="608.8,302.5 593.8,302.5 590.6,288.5 605.6,288.5 "/>
<polygon fill="#FFFFFF" stroke="#000000" stroke-miterlimit="10" points="623,302.5 608.8,302.5 605.6,288.5 620.4,288.5 "/>
<polygon fill="#FFFFFF" stroke="#000000" stroke-miterlimit="10" points="638.4,302.5 623,302.5 620.4,288.5 637.7,288.5 "/>
<polygon fill="#FFFFFF" stroke="#000000" stroke-miterlimit="10" points="651.5,288.5 651.5,302.5 638.4,302.5 637.7,288.5 "/>
<rect x="651.5" y="288.5" fill="#FFFFFF" stroke="#000000" stroke-miterlimit="10" width="17" height="14"/>
<rect x="668.5" y="288.5" fill="#FFFFFF" stroke="#000000" stroke-miterlimit="10" width="14" height="14"/>
<polygon fill="#FFFFFF" stroke="#000000" stroke-miterlimit="10" points="698,288.5 696.6,302.5 682.5,302.5 682.5,288.5 "/>
<polygon fill="#FFFFFF" stroke="#000000" stroke-miterlimit="10" points="713,288.5 711.8,302.5 696.6,302.5 698,288.5 "/>
<polygon fill="#FFFFFF" stroke="#000000" stroke-miterlimit="10" points="728,288.5 726.8,302.5 711.8,302.5 713,288.5 "/>
<polygon fill="#FFFFFF" stroke="#000000" stroke-miterlimit="10" points="743.2,288.5 742.7,302.5 726.8,302.5 728,288.5 "/>
<polygon fill="#FFFFFF" stroke="#000000" stroke-miterlimit="10" points="758.1,288.5 757.6,302.5 742.7,302.5 743.2,288.5 "/>
<polygon fill="#FFFFFF" stroke="#000000" stroke-miterlimit="10" points="773,288.5 770.3,302.5 757.6,302.5 758.1,288.5 "/>
<polygon fill="#FFFFFF" stroke="#000000" stroke-miterlimit="10" points="787.2,288.5 784.2,302.5 770.3,302.5 773,288.5 "/>
<polygon fill="#FFFFFF" stroke="#000000" stroke-miterlimit="10" points="801.5,288.5 794.8,302.5 784.2,302.5 787.2,288.5 "/>
<path fill="#FFFFFF" stroke="#000000" stroke-miterlimit="10" d="M753,232.8c-0.4,1.9-1.6,3.6-4.7,3.9c-1,0.1-2,0-3-0.2
	c-1-0.2-1.9-0.6-2.8-1.2l-0.8-0.5l-53.2-32.3l-50.3,32.3l-0.7,0.4c-1.3,0.8-2.8,1.4-4.3,1.6c-1,0.1-2,0.1-3-0.1
	c-1.8-0.3-3.6-1.2-4.8-3.2c-3-5,1-8,1-8l26-15.7l4-2.4l30-18.1v1.2h4v-2.4l31,19.7l5,3.2l23.4,14.8C752.2,227.3,753.5,230,753,232.8
	z"/>
<polygon fill="#FFFFFF" stroke="#000000" stroke-miterlimit="10" points="742.6,277.5 742.2,283.6 715.8,283.8 716,279.7 
	716.1,277.5 "/>
<polygon fill="#FFFFFF" stroke="#000000" stroke-miterlimit="10" points="742.2,283.6 741.8,288.5 715.7,288.5 715.8,284.7 
	715.8,283.8 "/>
<polygon fill="#FFFFFF" stroke="#000000" stroke-miterlimit="10" points="743.1,269.5 742.6,277.5 716.1,277.5 716.2,275.5 
	716.3,271.9 716.4,269.5 "/>
<path fill="#FFFFFF" stroke="#000000" stroke-miterlimit="10" d="M743.7,260.5l-0.6,9h-26.7l0.1-2c0,0,0-1.1-0.4-2.9
	c-0.2-1.1-0.5-2.6-1-4.1H743.7z"/>
<path fill="#FFFFFF" stroke="#000000" stroke-miterlimit="10" d="M744.2,252.5l-0.5,8h-28.6c-0.1-0.2-0.2-0.5-0.2-0.7
	c-0.1-0.1-0.1-0.3-0.2-0.4c-0.1-0.3-0.2-0.5-0.3-0.8c-0.1-0.3-0.3-0.7-0.4-1c-0.7-1.7-1.7-3.4-2.9-5.1H744.2z"/>
<path fill="#FFFFFF" stroke="#000000" stroke-miterlimit="10" d="M744.8,244.5l-0.5,8H711c-0.1-0.1-0.1-0.2-0.2-0.2
	c-1.4-1.8-3.1-3.6-5.2-5.1c-0.9-0.7-1.9-1.3-3-1.8c-0.2-0.1-0.4-0.2-0.7-0.3c-0.2-0.1-0.4-0.2-0.7-0.3c-0.2-0.1-0.5-0.2-0.7-0.3
	c0,0,0,0,0,0H744.8z"/>
<path fill="#FFFFFF" stroke="#000000" stroke-miterlimit="10" d="M745.3,236.5l-0.5,8h-44.2c-0.2-0.1-0.5-0.2-0.7-0.3
	c-0.3-0.1-0.6-0.2-0.9-0.3c-0.4-0.1-0.8-0.2-1.2-0.3c-2.2-0.6-4.6-1-7.3-1.1c-0.3,0-0.7,0-1,0c-3-0.1-5.6,0.2-8,0.8
	c-0.7,0.2-1.4,0.3-2.1,0.6c-0.4,0.1-0.8,0.3-1.1,0.4c-0.3,0.1-0.5,0.2-0.8,0.3h-43.4l-0.8-7.7c1.5-0.2,3-0.8,4.3-1.6l0.7-0.4
	c1.7,0.9,4.1,1.7,7.3,1.7c8,0,9-6,12-4s6,6,13,4s6-5,10-4c3.3,0.8,2.5,5.8,10.3,5.7c2.8,0,5.4-1.4,7.4-3.4c1.1-1.1,2.9-1.9,5.4-0.4
	c5,3,12,6,16,2s4-1,7,0c2.8,0.9,10.9,4.5,15.2-1.7l0.8,0.5C743.4,235.8,744.3,236.2,745.3,236.5z"/>
<polygon fill="#FFFFFF" stroke="#000000" stroke-miterlimit="10" points="662.5,284.3 662.5,288.5 639,288.5 638.5,284.5 "/>
<polygon fill="#FFFFFF" stroke="#000000" stroke-miterlimit="10" points="662.5,277.5 662.5,284.3 638.5,284.5 637.8,277.5 "/>
<polygon fill="#FFFFFF" stroke="#000000" stroke-miterlimit="10" points="662.5,269.5 662.5,277.5 637.8,277.5 636.9,269.5 "/>
<path fill="#FFFFFF" stroke="#000000" stroke-miterlimit="10" d="M663.2,260.5c-0.2,0.8-0.4,1.4-0.5,1.9v0c-0.2,0.7-0.2,1.1-0.2,1.1
	v6h-25.6l-1-9H663.2z"/>
<path fill="#FFFFFF" stroke="#000000" stroke-miterlimit="10" d="M667.2,252.5c-0.8,1.1-1.4,2.1-2,3.2c-0.3,0.5-0.5,1-0.8,1.5
	c-0.1,0.3-0.3,0.7-0.4,1c0,0.1-0.1,0.2-0.1,0.3c-0.2,0.4-0.3,0.8-0.4,1.2c-0.1,0.3-0.2,0.5-0.3,0.8h-27.3l-0.9-8H667.2z"/>
<path fill="#FFFFFF" stroke="#000000" stroke-miterlimit="10" d="M677.5,244.5c-0.3,0.1-0.7,0.3-1,0.4c-0.3,0.1-0.6,0.3-0.9,0.4
	c-0.3,0.1-0.6,0.3-0.8,0.4c-2,1.1-3.7,2.5-5.2,3.9c-0.9,0.9-1.7,1.9-2.4,2.8H635l-0.9-8H677.5z"/>
<path fill="#FFFFFF" stroke="#000000" stroke-miterlimit="10" d="M741.7,234.8c-4.3,6.2-12.4,2.6-15.2,1.7c-3-1-3-4-7,0s-11,1-16-2
	c-2.5-1.5-4.3-0.8-5.4,0.4c-2,2-4.6,3.3-7.4,3.4c-7.8,0.1-6.9-4.9-10.3-5.7c-4-1-3,2-10,4s-10-2-13-4s-4,4-12,4
	c-3.2,0-5.6-0.8-7.3-1.7l50.3-32.3L741.7,234.8z"/>
<path fill="#FFFFFF" stroke="#000000" stroke-miterlimit="10" d="M703.5,268.5l0,1l-0.1,1.1l-0.1,2.7l-0.1,2.2l-0.1,2l-0.1,2.9
	l-0.2,3.6l-0.1,1.3l-0.1,3.2h-27.2v-20c0,0,0-0.9,0.3-2.3c0.2-0.8,0.4-1.7,0.8-2.7c0.4-1,0.9-2,1.6-3c0.3-0.4,0.7-0.8,1-1.2
	c0.9-0.9,2-1.8,3.4-2.4c1-0.5,2.2-0.8,3.5-1.1c1-0.2,2.1-0.3,3.4-0.3c1.5,0,2.8,0.1,3.9,0.4c2,0.4,3.5,1.2,4.8,2.1
	c1,0.7,1.9,1.6,2.6,2.5c0.4,0.5,0.7,1.1,1,1.6c0.8,1.5,1.2,3,1.4,4.2C703.5,267.6,703.5,268.5,703.5,268.5z"/>
<path fill="#FFFFFF" stroke="#000000" stroke-miterlimit="10" d="M616.5,288.5h-41l4,14l0.6,2.2c-3.4-0.1-6.6-0.3-9.2-0.6l-2.8-28.6
	l-4.4-44.9H615c0.2,0,0.4,0,0.5,0L616.5,288.5z"/>
<path fill="#FFFFFF" stroke="#000000" stroke-miterlimit="10" d="M816.3,229.5l-5.5,73.6c-1.1,0.6-2.5,1.1-4.3,1.4
	c-3.5,0.6-8.4,1.1-13.6,1.9l1.9-3.9l6.7-14h-38v-59c0.2,0,0.3,0,0.5,0H816.3z"/>
<path fill="#FFFFFF" stroke="#000000" stroke-miterlimit="10" d="M823.5,220v3c0,3.6-2.9,6.5-6.5,6.5h-53c-0.2,0-0.3,0-0.5,0
	c-3.3-0.3-6-3.1-6-6.5v-3c0-3.6,2.9-6.5,6.5-6.5h53C820.6,213.5,823.5,216.4,823.5,220z"/>
<path fill="#FFFFFF" stroke="#000000" stroke-miterlimit="10" d="M621.5,221v3c0,3.4-2.6,6.2-6,6.5c-0.2,0-0.4,0-0.5,0h-53
	c-3.6,0-6.5-2.9-6.5-6.5v-3c0-3.6,2.9-6.5,6.5-6.5h53C618.6,214.5,621.5,217.4,621.5,221z"/>
<polygon fill="#FFFFFF" stroke="#000000" stroke-miterlimit="10" points="808.2,213.5 773.7,213.5 788.5,199.4 790.5,197.5 
	792.5,199.3 "/>
<polygon fill="#FFFFFF" stroke="#000000" stroke-miterlimit="10" points="609.3,214.5 569.9,214.5 586.5,200.8 590.5,197.5 "/>
<polygon fill="#FFFFFF" stroke="#000000" stroke-miterlimit="10" points="792.5,156.5 792.5,199.3 790.5,197.5 788.5,199.4 
	788.5,156.5 "/>
<path fill="#FFFFFF" stroke="#000000" stroke-miterlimit="10" d="M821.3,174.5c-2.1,0.3-22,3.3-28.8,7.3v-19.3c3,0.1,9,1.1,14,6
	C812.9,174.9,820.1,174.6,821.3,174.5z"/>
<rect x="686.5" y="142.5" fill="#FFFFFF" stroke="#000000" stroke-miterlimit="10" width="4" height="48"/>
<path fill="#FFFFFF" stroke="#000000" stroke-miterlimit="10" d="M686.5,149.1V166c-2.1-0.4-5,0.5-5,0.5c-15,3-27-9-23-7s11-4,17-8
	C679.5,148.8,684,148.8,686.5,149.1z"/>
<polygon fill="#FFFFFF" stroke="#000000" stroke-miterlimit="10" points="590.5,156.5 590.5,197.5 586.5,200.8 586.5,156.5 "/>
<path fill="#FFFFFF" stroke="#000000" stroke-miterlimit="10" d="M586.5,160.9v19.2c-1.3-0.5-3.5-0.6-7,0.4
	c-10.4,2.8-21.7-5.1-22.9-5.9c0.8,0.5,6.3,3.5,10.9-2.1C571.7,167.4,583.1,162.4,586.5,160.9z"/>
<polygon fill="#FFFFFF" stroke="#000000" stroke-miterlimit="10" points="656.5,168.5 656.5,207.4 652.5,209.8 652.5,168.5 "/>
<path fill="#FFFFFF" stroke="#000000" stroke-miterlimit="10" d="M652.5,174.6v20.3c-11.3,1.6-29-6.4-29-6.4s12,0,16-7
	C642.4,176.4,649.1,175,652.5,174.6z"/>
<polygon fill="#FFFFFF" stroke="#000000" stroke-miterlimit="10" points="726.5,168.5 726.5,211 721.5,207.8 721.5,168.5 "/>
<path fill="#FFFFFF" stroke="#000000" stroke-miterlimit="10" d="M756.5,186.5c0,0-21.7,12.5-30,8.6v-20.7c2.6,0,7.3,0.6,10,4.1
	C740.5,183.5,756.5,186.5,756.5,186.5z"/>
<circle fill="#FFFFFF" stroke="#000000" stroke-miterlimit="10" cx="788.5" cy="244.5" r="10"/>
<circle fill="#FFFFFF" stroke="#000000" stroke-miterlimit="10" cx="788.5" cy="274.5" r="10"/>
<circle fill="#FFFFFF" stroke="#000000" stroke-miterlimit="10" cx="590.5" cy="242.5" r="9"/>
<circle fill="#FFFFFF" stroke="#000000" stroke-miterlimit="10" cx="590.5" cy="273.5" r="9"/>
<path fill="#FFFFFF" stroke="#000000" stroke-miterlimit="10" d="M740.9,458.5l-0.3,3.4c-7.4-0.3-14.7-0.4-22-0.5l0.1-3H740.9z"/>
<polygon fill="#FFFFFF" stroke="#000000" stroke-miterlimit="10" points="741.7,447.7 740.9,458.5 718.8,458.5 719.1,448.4 "/>
<polygon fill="#FFFFFF" stroke="#000000" stroke-miterlimit="10" points="742.4,438.5 741.7,447.7 719.1,448.4 719.5,438.5 "/>
<polygon fill="#FFFFFF" stroke="#000000" stroke-miterlimit="10" points="743.2,427.5 742.4,438.5 719.5,438.5 719.9,427.5 "/>
<path fill="#FFFFFF" stroke="#000000" stroke-miterlimit="10" d="M743.8,415.6c0,4.8-0.3,7.9-0.3,7.9l-0.3,4h-23.3l0.4-11.1
	L743.8,415.6z"/>
<path fill="#FFFFFF" stroke="#000000" stroke-miterlimit="10" d="M720.5,411.5c0,0,0.1-2-0.3-5.1l23.1-0.7c0.4,3.8,0.5,7.1,0.5,9.9
	l-23.5,0.7L720.5,411.5z"/>
<path fill="#FFFFFF" stroke="#000000" stroke-miterlimit="10" d="M743.3,405.7l-23.1,0.7c-0.2-1.5-0.4-3.2-0.8-5l21.7-8.1
	C742.2,397.6,742.9,401.8,743.3,405.7z"/>
<path fill="#FFFFFF" stroke="#000000" stroke-miterlimit="10" d="M741.1,393.3l-21.7,8.1c-0.6-2.8-1.5-6-2.9-9.1l19.9-11.5
	C738.5,384.9,740,389.1,741.1,393.3z"/>
<path fill="#FFFFFF" stroke="#000000" stroke-miterlimit="10" d="M736.5,380.8l-19.9,11.5c-1.1-2.5-2.6-4.9-4.5-7.1l17.7-14.5
	C732.5,373.9,734.7,377.3,736.5,380.8z"/>
<path fill="#FFFFFF" stroke="#000000" stroke-miterlimit="10" d="M729.8,370.8L712,385.2c-1.5-1.8-3.3-3.4-5.4-4.7l11.5-19.1
	C722.8,364,726.6,367.1,729.8,370.8z"/>
<path fill="#FFFFFF" stroke="#000000" stroke-miterlimit="10" d="M718.1,361.5l-11.5,19.1c-2.4-1.6-5.3-2.8-8.7-3.4l6.8-20.4
	C709.8,357.7,714.3,359.4,718.1,361.5z"/>
<path fill="#FFFFFF" stroke="#000000" stroke-miterlimit="10" d="M704.8,356.7l-6.8,20.4c-2-0.4-4.1-0.6-6.5-0.6c-0.7,0-1.3,0-2,0
	v-21c0.3,0,0.7,0,1,0C695.8,355.4,700.5,355.8,704.8,356.7z"/>
<path fill="#FFFFFF" stroke="#000000" stroke-miterlimit="10" d="M689.5,355.5v21c-3,0.1-5.7,0.5-8.1,1.2l-7.8-20.2
	C678.3,356.4,683.6,355.7,689.5,355.5z"/>
<path fill="#FFFFFF" stroke="#000000" stroke-miterlimit="10" d="M681.4,377.7c-3,0.8-5.6,1.9-7.9,3.3l-12.1-18.8
	c3.5-1.9,7.5-3.5,12.2-4.6L681.4,377.7z"/>
<path fill="#FFFFFF" stroke="#000000" stroke-miterlimit="10" d="M673.5,381c-2.8,1.7-5,3.7-6.8,5.9c0,0-9.8-12.3-14.6-17.8
	c2.6-2.6,5.7-5,9.4-7L673.5,381z"/>
<path fill="#FFFFFF" stroke="#000000" stroke-miterlimit="10" d="M666.7,386.9c-1.5,1.8-2.7,3.8-3.7,5.7l-19-11.9
	c1.9-4.1,4.6-8,8.1-11.6C657,374.7,666.7,386.9,666.7,386.9z"/>
<path fill="#FFFFFF" stroke="#000000" stroke-miterlimit="10" d="M663,392.6c-1.2,2.4-2,4.7-2.5,6.6l-20.3-6.8
	c0.8-3.8,2-7.8,3.8-11.7L663,392.6z"/>
<path fill="#FFFFFF" stroke="#000000" stroke-miterlimit="10" d="M659.5,404.5l0,1h-20.7c0-3.7,0.3-8.3,1.3-13.1l20.3,6.8
	C659.6,402.3,659.5,404.5,659.5,404.5z"/>
<path fill="#FFFFFF" stroke="#000000" stroke-miterlimit="10" d="M660.1,416.5h-20.4l-0.2-2c0,0-0.6-3.6-0.6-9h20.7L660.1,416.5z"/>
<polygon fill="#FFFFFF" stroke="#000000" stroke-miterlimit="10" points="660.6,427.5 640.5,427.5 639.7,416.5 660.1,416.5 "/>
<polygon fill="#FFFFFF" stroke="#000000" stroke-miterlimit="10" points="661.1,438.5 641.4,438.5 640.5,427.5 660.6,427.5 "/>
<polygon fill="#FFFFFF" stroke="#000000" stroke-miterlimit="10" points="661.6,448.4 642.1,447.6 641.4,438.5 661.1,438.5 "/>
<path fill="#FFFFFF" stroke="#000000" stroke-miterlimit="10" d="M662.2,462.9c-6.5,0.4-12.8,0.8-18.8,1.2l-0.4-5.6H662L662.2,462.9
	z"/>
<path fill="#FFFFFF" stroke="#000000" stroke-miterlimit="10" d="M720.5,411.5l-0.2,4.9l-0.4,11.1l-0.4,11l-0.4,9.9l-0.4,10.1
	l-0.1,3c-0.8,0-1.5,0-2.3,0c-1.3,0-2.5,0-3.8,0l1.8-52c0.2-5.3-0.9-10.5-3.5-15.1c-3.1-5.6-9.4-11.9-19.4-11.9
	c-12,0-18.8,5.8-22.5,11.5c-3.2,4.8-4.5,10.6-4.3,16.4l2.6,52.2c-1.7,0.1-3.4,0.2-5.1,0.3l-0.2-4.4l-0.5-10.1l-0.5-9.9l-0.5-11
	l-0.5-11l-0.5-11l0-1c0,0,0.1-2.2,1-5.3c0.5-1.9,1.3-4.2,2.5-6.6c1-1.9,2.2-3.8,3.7-5.7c1.8-2.2,4-4.2,6.8-5.9
	c2.3-1.4,4.9-2.5,7.9-3.3c2.4-0.6,5.1-1,8.1-1.2c0.7,0,1.3,0,2,0c2.3,0,4.5,0.2,6.5,0.6c3.4,0.7,6.3,1.9,8.7,3.4
	c2.1,1.3,3.9,2.9,5.4,4.7c1.9,2.2,3.4,4.6,4.5,7.1c1.4,3.1,2.3,6.2,2.9,9.1c0.4,1.9,0.6,3.6,0.8,5
	C720.6,409.5,720.5,411.5,720.5,411.5z"/>
<path fill="#FFFFFF" stroke="#000000" stroke-miterlimit="10" d="M714.4,409.5l-1.8,52c-1.1,0-2.1,0-3.2,0l-0.3-19L709,435
	c2.1-1,3.5-3,3.5-5.5c0-2.5-1.5-4.6-3.7-5.5l-0.1-4.5l-0.2-10.4c-0.1-6.2-3.1-12.2-8.3-15.6c-2.7-1.8-6.1-3-10.3-3
	c-10.4,0-18.7,9-18.3,19.5l0.3,9.5l0.7,22.1l0.7,20.8c-2,0.1-4,0.2-6,0.3l-2.6-52.2c-0.3-5.8,1.1-11.6,4.3-16.4
	c3.8-5.8,10.5-11.5,22.5-11.5c10,0,16.3,6.3,19.4,11.9C713.4,399,714.5,404.2,714.4,409.5z"/>
<path fill="#FFFFFF" stroke="#000000" stroke-miterlimit="10" d="M708.8,419.5H672l-0.3-9.5c-0.3-10.4,7.9-19.5,18.3-19.5
	c4.2,0,7.6,1.3,10.3,3c5.2,3.4,8.2,9.4,8.3,15.6L708.8,419.5z"/>
<path fill="#FFFFFF" stroke="#000000" stroke-miterlimit="10" d="M709.4,461.5c-8.5,0-16.9,0.2-25.2,0.5c-3.7,0.1-7.3,0.3-10.9,0.4
	l-0.7-20.8l36.4,0.9L709.4,461.5z"/>
<path fill="#FFFFFF" stroke="#000000" stroke-miterlimit="10" d="M709.1,442.4l-36.4-0.9l-0.7-22.1h36.7l0.1,4.5
	c-0.7-0.3-1.5-0.5-2.3-0.5c-3.3,0-6,2.7-6,6s2.7,6,6,6c0.9,0,1.8-0.2,2.5-0.5L709.1,442.4z"/>
<path fill="#FFFFFF" stroke="#000000" stroke-miterlimit="10" d="M712.5,429.5c0,2.4-1.4,4.5-3.5,5.5c-0.8,0.3-1.6,0.5-2.5,0.5
	c-3.3,0-6-2.7-6-6s2.7-6,6-6c0.8,0,1.6,0.2,2.3,0.5C711,424.9,712.5,427,712.5,429.5z"/>
<polygon fill="#FFFFFF" stroke="#000000" stroke-miterlimit="10" points="662,458.5 643,458.5 642.1,447.6 661.6,448.4 "/>
<path fill="#FFFFFF" stroke="#000000" stroke-miterlimit="10" d="M262.5,298.5c-18,12-221,39-262,13v-47c0,0,36-35,76-26
	c0,0,12-31,42-27c9.1,1.2,15.8,3.7,20.6,6.7c5.6,3.4,8.8,7.4,10.5,10.4c1.6,2.9,2,5,2,5s4.6,0.9,10.7,2.9c3.6,1.2,7.7,2.8,11.7,4.9
	c4.7,2.5,9.2,5.6,12.5,9.4c1.8,2,3.2,4.3,4.1,6.7c0,0,1.7,0.2,4.2,0.8c6,1.4,16.7,5.3,18.8,15.2
	C213.5,273.5,280.5,286.5,262.5,298.5z"/>
<path fill="#FFFFFF" stroke="#000000" stroke-miterlimit="10" d="M512.5,153.5c-2.5,5.6-37.1,14.5-77.6,17.4
	c-15.3,1.1-31.4,1.3-46.9,0.1c-14.5-1.1-28.6-3.4-41-7.3c-4.9-1.5-9.5-3.3-13.8-5.4c-3.3-1.6-4.8-4.8-4.5-7.9
	c0.2-2.8,1.9-5.4,4.9-6.7c3.5-1.5,8.3-2.2,14.9-1.2c0,0,26-28,57-22c0,0,1-20,21-18s17,16,17,16s20-1,24,11c0,0,11,1,13,13
	C480.5,142.5,517.5,142.5,512.5,153.5z"/>
<path fill="#FFFFFF" stroke="#000000" stroke-miterlimit="10" d="M571,304c-3.6-0.5-6-1.5-6.5-3.5c-1.7-7.5-0.5-9.5-0.1-9.9
	c-0.5,0.3-2.2,1.5-4.1,3.4c-10-22-46.5-81.8-160.7-119.5c-3.9-1.3-7.7-2.4-11.5-3.5c15.5,1.2,31.6,1,46.9-0.1
	c44,18.5,89.3,51.2,133.3,104.5L571,304z"/>
<path fill="#FFFFFF" stroke="#000000" stroke-miterlimit="10" d="M347,163.7c-92.5-7.8-168.9,42.7-197.5,64.8
	c-1.7-3-4.8-7-10.5-10.4c20.5-15.3,95.3-66.1,189.6-67.8c-0.3,3.1,1.2,6.4,4.5,7.9C337.5,160.4,342.1,162.2,347,163.7z"/>
<path fill="#FFFFFF" stroke="#000000" stroke-miterlimit="10" d="M560.2,294c-1.4,1.4-3,3.2-4.3,5.4
	C382.2,89.8,201.2,207,162.2,236.4c-6.1-2-10.7-2.9-10.7-2.9s-0.3-2.1-2-5c28.5-22.1,104.9-72.7,197.5-64.8
	c12.4,3.9,26.4,6.2,41,7.3c3.8,1,7.7,2.2,11.5,3.5C513.7,212.3,550.3,272.1,560.2,294z"/>
<path fill="#FFFFFF" stroke="#000000" stroke-miterlimit="10" d="M554.5,316.4c-1.6,0.6-3.7,1.5-5.7,2.7
	c-140.8-216.9-334.9-104.4-374.8-77.8c-4-2.1-8.1-3.7-11.7-4.9c39-29.4,220.1-146.6,393.8,63.1C553.4,303.8,551.9,309.5,554.5,316.4
	z"/>
<path fill="#FFFFFF" stroke="#000000" stroke-miterlimit="10" d="M548.7,319.1c-2.6,1.6-5.2,3.8-6.7,6.8
	c-143.3-198.8-310.3-106.1-355.7-75.1c-3.3-3.9-7.8-7-12.5-9.4C213.9,214.7,407.9,102.2,548.7,319.1z"/>
<path fill="#FFFFFF" stroke="#000000" stroke-miterlimit="10" d="M541.9,337c-2.9,1.4-7,3.8-9.8,7.3c-123-200.5-291.2-115-337.4-86
	c-2.5-0.6-4.2-0.8-4.2-0.8c-1-2.5-2.4-4.7-4.1-6.7c45.4-31,212.4-123.7,355.7,75.1C540.6,328.8,540.2,332.5,541.9,337z"/>
<path fill="#FFFFFF" stroke="#000000" stroke-miterlimit="10" d="M130.5,835.5h-57l-5.5-50L56.9,683.6c13.8-0.8,29.2-2.3,44.7-5.1
	l19.7,107L130.5,835.5z"/>
<path fill="#FFFFFF" stroke="#000000" stroke-miterlimit="10" d="M184.2,599.7c-7.4-5.9-17.7-7.4-26.7,16.8
	c-12.8,34.5-30.9,12.3-41.1,5.8c-2.5-1.6-4.5-2.2-5.9-0.8c-1.1,1.1-1.6,2.6-1.8,4.5c-0.9,10.3,9.4,30.5,1.8,35.5
	c-4.8,3.2-9.8-16.2-15.6-29.1c-5.1-11.4-10.8-17.7-17.4,1.1c-1.2,3.4-2.4,6.3-3.6,8.8c-7.4,15-15.9,15.7-24.3,11.4
	c-7-3.6-13.9-10.7-20.1-16.1c-8.6-7.5-20.6-3.7-29.2,0.8c-0.2-78.8-0.6-234.7,0.2-251.8c1-23,21-31,21-31
	c30.5-11.2,61.1,22.3,86.1,64.1c7.1,11.8,13.7,24.2,19.8,36.5c2.3,4.7,4.6,9.4,6.8,14.1c3.8,8.1,7.3,16,10.5,23.5h0
	c2.7,6.3,5.2,12.3,7.5,17.9c1.2,3,2.4,5.8,3.4,8.5c2.9,7.2,5.2,13.2,6.9,17.5c1.1,2.7,2.2,5.5,3.5,8.5c5.6,13.5,12.5,29.5,16.5,45.4
	C183.1,594.2,183.7,596.9,184.2,599.7z"/>
<path fill="#FFFFFF" stroke="#000000" stroke-miterlimit="10" d="M162.8,658.8c-3.9,2.5-8.3,4.8-13.3,6.8c-1.9,0.8-3.8,1.5-5.8,2.2
	c-13.5,4.9-27.9,8.4-42.1,10.8c-15.5,2.7-30.8,4.3-44.7,5.1c-28.8,1.7-51.2,0.3-55.6,0h0c-0.2,0-0.3,0-0.5,0c-0.2,0-0.3,0-0.3,0
	s-0.1-18-0.2-45.2c8.6-4.5,20.5-8.3,29.2-0.8c6.2,5.4,13.2,12.5,20.1,16.1c8.4,4.4,16.9,3.6,24.3-11.4c1.3-2.5,2.5-5.4,3.6-8.8
	c6.6-18.8,12.3-12.4,17.4-1.1c5.8,12.9,10.8,32.3,15.6,29.1c7.6-5.1-2.7-25.3-1.8-35.5c0.2-1.9,0.7-3.4,1.8-4.5
	c1.4-1.4,3.4-0.7,5.9,0.8c10.2,6.5,28.2,28.7,41.1-5.8c9-24.2,19.3-22.7,26.7-16.8C188.4,622.4,185.2,644.3,162.8,658.8z"/>
<path fill="#FFFFFF" stroke="#000000" stroke-miterlimit="10" d="M286.5,672.5c0,0-11,19-42,18c-4.5-0.2-9.8,0-15.4,0.3
	c-3.6,0.2-7.5,0.4-11.4,0.7h0c-5.9,0.3-12,0.6-18.2,0.7c-25,0.3-49.5-3.3-55.8-24.5c1.9-0.7,3.8-1.4,5.8-2.2c5-2,9.5-4.3,13.3-6.8
	c5.5,1.6,13.2,2.6,22.7,0.8c20-4,15,32,36,1s14,41,30,12s15-36,30-28c2.5,1.3,4.6,2.1,6.5,2.5C288.8,657,288.4,665.8,286.5,672.5z"
	/>
<path fill="#FFFFFF" stroke="#000000" stroke-miterlimit="10" d="M414.5,589.5c-3.2,7-7.9,11.9-13.7,15.1
	c-25.1,14.3-68.7-3.1-78.4-7.3c-1.3-0.5-2-0.9-2-0.9s-16.6,19.6-35.5,29.3c-4.3-22.2-12.4-47.5-21.9-70.4
	c-4.5-10.9-9.4-21.3-14.4-30.6c7.4,1.1,16.2,2.6,25.8,4.2v27.5h14v-24.9c7.7,1.5,15.6,3,23.7,4.8c0.8,0.2,1.6,0.3,2.4,0.5
	C368.4,548.7,424.8,566.7,414.5,589.5z"/>
<path fill="#FFFFFF" stroke="#000000" stroke-miterlimit="10" d="M288,647c-1.9-0.4-4.1-1.2-6.5-2.5c-15-8-14-1-30,28s-9-43-30-12
	s-16-5-36-1c-9.5,1.9-17.2,0.9-22.7-0.8c22.4-14.4,25.5-36.4,21.4-59.1c-0.5-2.8-1.1-5.5-1.8-8.3c-4-16-10.9-31.9-16.5-45.4
	c2.3-6.5,6-16.4,11-26.3c1.4-2.9,3-5.8,4.6-8.7c3.7-6.4,7.9-12.5,12.5-17.2c5.9-6,12.4-9.8,19.5-9.3c4.1,0.3,8.7,3.3,13.6,8.4h0
	c3.7,3.9,7.6,9,11.6,15c3.3,5.1,6.7,10.8,10,17c5,9.3,9.9,19.7,14.4,30.6c9.6,23,17.6,48.2,21.9,70.4
	C286.5,633.3,287.5,640.5,288,647z"/>
<polygon fill="#FFFFFF" stroke="#000000" stroke-miterlimit="10" points="967.8,703.5 958.8,785.5 950.5,860.5 896.5,860.5 
	908.1,785.5 921.8,697.2 "/>
<path fill="#FFFFFF" stroke="#000000" stroke-miterlimit="10" d="M999.5,659.5c-1.2,1.1-2.6,2.6-4,4c-0.2,0.2-0.3,0.3-0.5,0.5
	c-0.2,0.2-0.3,0.3-0.5,0.4c-0.2,0.1-0.3,0.3-0.4,0.4c-0.5,0.4-0.9,0.8-1.4,1.2c-0.2,0.1-0.3,0.3-0.5,0.4c0,0-0.1,0.1-0.1,0.1
	c-0.2,0.2-0.4,0.3-0.6,0.4c0,0,0,0,0,0c-0.3,0.2-0.5,0.4-0.8,0.6c-0.1,0.1-0.2,0.1-0.2,0.2c-0.3,0.2-0.6,0.4-0.9,0.6
	c-0.4,0.3-0.8,0.5-1.2,0.7c-0.1,0.1-0.2,0.1-0.3,0.2c-0.5,0.3-1.1,0.6-1.6,0.8c-0.3,0.1-0.5,0.2-0.8,0.3c-0.4,0.2-0.7,0.3-1.1,0.4
	c-0.2,0.1-0.4,0.1-0.6,0.2c-0.3,0.1-0.5,0.1-0.8,0.2c-0.3,0.1-0.7,0.2-1,0.2c-0.3,0.1-0.7,0.1-1,0.1c-0.7,0.1-1.3,0.1-2,0.1
	c-0.4,0-0.8,0-1.2,0c-0.3,0-0.6-0.1-1-0.1c0,0-0.1,0-0.1,0c-0.2,0-0.3,0-0.5-0.1c-0.1,0-0.3,0-0.4-0.1c-0.2,0-0.5-0.1-0.7-0.1
	c-0.6-0.1-1.2-0.3-1.8-0.5c-0.2,0-0.4-0.1-0.6-0.2c0,0-0.1,0-0.2,0c-0.2-0.1-0.5-0.1-0.7-0.2s-0.5-0.2-0.7-0.3
	c-0.1,0-0.3-0.1-0.4-0.2c-0.6-0.2-1.1-0.5-1.7-0.8c-0.2-0.1-0.4-0.2-0.7-0.3c-0.4-0.2-0.8-0.5-1.2-0.7c-0.4-0.2-0.7-0.4-1.1-0.7
	c-0.9-0.5-1.7-1.1-2.6-1.8c-0.3-0.2-0.7-0.5-1-0.8c-0.4-0.3-0.8-0.6-1.2-0.9s-0.8-0.6-1.2-1c-0.8-0.7-1.6-1.4-2.4-2.1
	c-0.4-0.4-0.8-0.7-1.2-1.1c-0.4-0.4-0.8-0.8-1.2-1.1c-3.8-3.7-7.6-7.8-11.4-11.9c-2.7-2.9-4.7-4-6.3-3.8c0,0-0.1,0-0.2,0
	c-0.1,0-0.1,0-0.2,0c0,0-0.1,0-0.2,0c-0.2,0.1-0.5,0.2-0.7,0.3c-0.1,0-0.1,0.1-0.2,0.1c0,0,0,0,0,0c-0.1,0-0.1,0.1-0.2,0.1
	c-0.2,0.1-0.4,0.3-0.5,0.5c0,0,0,0-0.1,0.1c-0.3,0.3-0.6,0.7-0.9,1.2c-0.1,0.1-0.2,0.3-0.3,0.4c-0.1,0.2-0.2,0.4-0.3,0.6
	c-0.1,0.2-0.2,0.3-0.2,0.5c-0.2,0.4-0.3,0.8-0.5,1.2c0,0.1-0.1,0.2-0.1,0.4c-0.6,1.7-1.1,3.6-1.6,5.8c-0.1,0.3-0.1,0.7-0.2,1
	c-0.8,3.3-1.5,7-2.5,10.5c-0.1,0.4-0.2,0.8-0.3,1.2c0,0.1,0,0.1-0.1,0.2c-0.1,0.4-0.2,0.7-0.3,1.1c-0.1,0.4-0.2,0.8-0.4,1.1
	c0,0,0,0,0,0c-0.1,0.4-0.3,0.7-0.4,1.1c-0.1,0.4-0.3,0.7-0.4,1.1c-0.1,0.3-0.2,0.5-0.3,0.8c-0.2,0.4-0.4,0.9-0.6,1.3
	c-0.2,0.4-0.3,0.7-0.5,1.1c-0.2,0.3-0.3,0.6-0.5,0.9c-0.2,0.3-0.4,0.6-0.6,0.9c-0.2,0.3-0.3,0.5-0.5,0.8c0,0,0,0.1-0.1,0.1
	c-0.2,0.3-0.4,0.6-0.6,0.8c-0.2,0.3-0.4,0.5-0.7,0.8c0,0,0,0,0,0c-0.5,0.5-0.9,0.9-1.4,1.3c0,0-0.1,0.1-0.1,0.1
	c-0.2,0.2-0.4,0.3-0.7,0.5c-0.3,0.2-0.5,0.3-0.8,0.5c-0.3,0.2-0.6,0.3-0.9,0.5c-0.5,0.2-1,0.4-1.4,0.5c-0.4,0.1-0.8,0.2-1.2,0.3
	c-0.3,0-0.5,0-0.7,0c-0.2,0-0.4,0-0.6,0c-0.2,0-0.4-0.1-0.5-0.1c-0.2,0-0.3-0.1-0.5-0.2c-0.3-0.1-0.6-0.3-0.8-0.6
	c-0.2-0.2-0.5-0.5-0.7-0.8c-0.1-0.1-0.1-0.2-0.2-0.4c-0.1-0.1-0.1-0.3-0.2-0.4c-0.1-0.1-0.1-0.2-0.1-0.4c-0.1-0.2-0.1-0.3-0.2-0.5
	c-0.1-0.4-0.2-0.8-0.3-1.3c-0.1-0.4-0.1-0.9-0.2-1.4c-0.1-0.8-0.1-1.7,0-2.6c0-0.2,0-0.5,0-0.7c0-0.9,0.1-1.8,0.2-2.7
	c0.1-0.9,0.2-1.9,0.3-2.9c0.1-0.5,0.1-0.9,0.2-1.4c0.2-1.5,0.5-3.1,0.7-4.6c0-0.3,0.1-0.6,0.1-0.9c0.1-0.7,0.2-1.4,0.3-2
	c0-0.3,0.1-0.6,0.2-0.9c0.7-4.3,1.3-8.3,1.2-11c0-0.2,0-0.3,0-0.5c0-0.2,0-0.3,0-0.5c0-0.2,0-0.4-0.1-0.6c0-0.1-0.1-0.3-0.1-0.4
	c0-0.1-0.1-0.3-0.1-0.4c0,0,0,0,0,0c0-0.1-0.1-0.3-0.2-0.3c0-0.1-0.1-0.2-0.2-0.3c-4-6-35,18-47-6c-7.4-14.8-19.8-15.2-28.2-13.2
	c0-0.3,0.1-0.5,0.2-0.8c2.9-13.1,9-33.8,17.4-57.6v0c1.2-3.4,2.4-6.8,3.7-10.3c7.9-21.4,17.4-44.7,28.3-67.2c0.3-0.7,0.7-1.3,1-2
	c0.2-0.4,0.4-0.8,0.6-1.2c1-2,2-4.1,3-6.1c14.6-29,31.2-55.9,48.8-74.7c18.4-19.6,37.8-30.2,57.2-24.9l2.5,161.4
	c0,0-2.5,122.6-2.5,123.3V659.5z"/>
<path fill="#FFFFFF" stroke="#000000" stroke-miterlimit="10" d="M999.5,659.7v48.2l-31.7-4.3l-46.1-6.3l-34.3-4.7
	c0,0-2.2-0.4-5.6-1.4c-0.4-0.1-0.7-0.2-1.1-0.3c-0.3-0.1-0.7-0.2-1-0.3c-0.5-0.2-1-0.3-1.5-0.5c-0.2-0.1-0.4-0.2-0.7-0.2
	c-1.9-0.7-4-1.5-6.2-2.5c-0.5-0.2-1-0.5-1.5-0.7c-0.5-0.3-1-0.5-1.5-0.8c-0.5-0.3-1-0.5-1.6-0.8c-0.5-0.3-1.1-0.6-1.6-0.9
	c-0.5-0.3-0.9-0.5-1.4-0.8c-0.7-0.4-1.4-0.8-2-1.3c-0.4-0.3-0.8-0.5-1.2-0.8c-0.1-0.1-0.2-0.1-0.3-0.2c-0.5-0.3-1-0.7-1.5-1
	c-0.3-0.2-0.6-0.4-0.8-0.6c-13.2-10-24.7-26.9-18.6-55c8.4-1.9,20.8-1.6,28.2,13.2c12,24,43,0,47,6c0.1,0.1,0.1,0.2,0.2,0.3
	c0.1,0.1,0.1,0.2,0.2,0.3c0,0,0,0,0,0c0,0.1,0.1,0.3,0.1,0.4c0,0.1,0.1,0.3,0.1,0.4c0,0.2,0.1,0.4,0.1,0.6c0,0.2,0,0.3,0,0.5
	c0,0.2,0,0.3,0,0.5c0.1,2.7-0.5,6.7-1.2,11c-0.1,0.3-0.1,0.6-0.2,0.9c-0.1,0.7-0.2,1.4-0.3,2c0,0.3-0.1,0.6-0.1,0.9
	c-0.3,1.5-0.5,3.1-0.7,4.6c-0.1,0.5-0.1,0.9-0.2,1.4c-0.1,1-0.2,1.9-0.3,2.9c-0.1,0.9-0.2,1.8-0.2,2.7c0,0.2,0,0.5,0,0.7
	c0,0.9,0,1.8,0,2.6c0,0.5,0.1,1,0.2,1.4c0.1,0.5,0.2,0.9,0.3,1.3c0,0.2,0.1,0.3,0.2,0.5c0,0.1,0.1,0.3,0.1,0.4
	c0,0.1,0.1,0.3,0.2,0.4c0.1,0.1,0.1,0.3,0.2,0.4c0.2,0.3,0.4,0.6,0.7,0.8c0.2,0.2,0.5,0.4,0.8,0.6c0.1,0.1,0.3,0.1,0.5,0.2
	c0.2,0,0.3,0.1,0.5,0.1c0.2,0,0.4,0,0.6,0c0.2,0,0.5,0,0.7,0c0.4,0,0.8-0.1,1.2-0.3c0.4-0.1,0.9-0.3,1.4-0.5
	c0.3-0.1,0.6-0.3,0.9-0.5c0.3-0.1,0.5-0.3,0.8-0.5c0.2-0.2,0.5-0.3,0.7-0.5c0,0,0.1-0.1,0.1-0.1c0.5-0.4,1-0.8,1.4-1.3c0,0,0,0,0,0
	c0.2-0.2,0.4-0.5,0.7-0.8c0.2-0.3,0.4-0.5,0.6-0.8c0,0,0.1-0.1,0.1-0.1c0.2-0.2,0.3-0.5,0.5-0.8c0.2-0.3,0.4-0.6,0.6-0.9
	c0.2-0.3,0.3-0.6,0.5-0.9c0.2-0.3,0.4-0.7,0.5-1.1c0.2-0.4,0.4-0.8,0.6-1.3c0.1-0.3,0.2-0.5,0.3-0.8c0.1-0.4,0.3-0.7,0.4-1.1
	c0.1-0.3,0.3-0.7,0.4-1.1c0,0,0,0,0,0c0.1-0.4,0.3-0.8,0.4-1.1h0c0.1-0.4,0.2-0.7,0.3-1.1c0-0.1,0.1-0.2,0.1-0.2
	c0.1-0.4,0.2-0.8,0.3-1.2c1-3.5,1.7-7.2,2.5-10.5c0.1-0.3,0.1-0.7,0.2-1c0.5-2.1,1-4.1,1.6-5.8c0-0.1,0.1-0.2,0.1-0.4
	c0.2-0.4,0.3-0.8,0.5-1.2c0.1-0.2,0.1-0.3,0.2-0.5c0.1-0.2,0.2-0.4,0.3-0.6c0.1-0.2,0.2-0.3,0.3-0.4c0.3-0.5,0.6-0.9,0.9-1.2
	c0,0,0,0,0.1-0.1c0.2-0.2,0.3-0.3,0.5-0.5c0.1,0,0.1-0.1,0.2-0.1c0,0,0,0,0,0c0,0,0.1-0.1,0.2-0.1c0.2-0.1,0.4-0.2,0.7-0.3
	c0.1,0,0.1,0,0.2,0c0,0,0.1,0,0.2,0c0,0,0.1,0,0.2,0c1.6-0.2,3.6,0.9,6.3,3.8c3.8,4,7.6,8.1,11.4,11.9c0.4,0.4,0.8,0.8,1.2,1.1
	c0.4,0.4,0.8,0.8,1.2,1.1c0.8,0.7,1.6,1.4,2.4,2.1c0.4,0.3,0.8,0.7,1.2,1c0.4,0.3,0.8,0.6,1.2,0.9c0.3,0.3,0.7,0.5,1,0.8
	c0.9,0.6,1.7,1.2,2.6,1.8c0.4,0.2,0.7,0.5,1.1,0.7c0.4,0.3,0.8,0.5,1.2,0.7c0.2,0.1,0.4,0.2,0.7,0.3c0.6,0.3,1.1,0.6,1.7,0.8
	c0.1,0.1,0.3,0.1,0.4,0.2c0.2,0.1,0.5,0.2,0.7,0.3s0.5,0.2,0.7,0.2c0,0,0.1,0,0.2,0c0.2,0.1,0.4,0.1,0.6,0.2
	c0.6,0.2,1.2,0.4,1.8,0.5c0.2,0.1,0.5,0.1,0.7,0.1c0.2,0,0.3,0,0.4,0.1c0.2,0,0.3,0.1,0.5,0.1c0,0,0.1,0,0.1,0c0.3,0,0.6,0.1,1,0.1
	c0.4,0,0.8,0,1.2,0c0.6,0,1.3,0,2-0.1c0.3,0,0.7-0.1,1-0.1c0.3,0,0.7-0.1,1-0.2c0.3-0.1,0.5-0.1,0.8-0.2c0.2-0.1,0.4-0.1,0.6-0.2
	c0.4-0.1,0.7-0.2,1.1-0.4c0.3-0.1,0.5-0.2,0.8-0.3c0.5-0.2,1.1-0.5,1.6-0.8c0.1,0,0.2-0.1,0.3-0.2c0.4-0.2,0.8-0.4,1.2-0.7
	c0.3-0.2,0.6-0.4,0.9-0.6c0.1,0,0.1-0.1,0.2-0.2c0.3-0.2,0.5-0.4,0.8-0.6c0,0,0,0,0,0c0.2-0.1,0.4-0.3,0.6-0.4c0,0,0.1,0,0.1-0.1
	c0.2-0.1,0.3-0.3,0.5-0.4c0.5-0.4,0.9-0.8,1.4-1.2c0.1-0.1,0.3-0.3,0.4-0.4c0.1-0.1,0.3-0.3,0.5-0.4c0.2-0.1,0.3-0.3,0.5-0.5
	C996.9,662.1,998.3,660.8,999.5,659.7z"/>
<path fill="#FFFFFF" stroke="#000000" stroke-miterlimit="10" d="M825.5,811.5h-36l1.6-26l4.4-72.9c9.1,0.1,19.3,0.2,29,0.4
	l0.7,72.5L825.5,811.5z"/>
<path fill="#FFFFFF" stroke="#000000" stroke-miterlimit="10" d="M858,679.3c-3,0.3-6.2,1.1-9.8,2.9c0,0,0,0,0,0
	c-3.3,1.6-6.9,4-10.7,7.4c-15,13.2-22.6,8.3-28.7,1.7h0c-4.5-4.9-8.2-10.7-13.3-10.7c-7.1,0-7.9,8.7-7.4,15.8c0.4,5,1.4,9.2,1.4,9.2
	c-4,2.2-5.8-2.2-6.6-7.8c-1-7.1-0.4-16.2-0.4-16.2c-14,20-22,6-32-5c-5-5.5-10-5-13.8-3.1c4-18.1,14-65.1,28.4-104.3
	c12.6-34.2,28.4-62.5,46.4-60.6c21.5,2.2,34.9,26.7,42.5,48.2c1.1,3.1,2.1,6.2,3,9.2v0c-8.4,23.9-14.5,44.5-17.4,57.6
	c-0.1,0.3-0.1,0.5-0.2,0.8C833.3,652.3,844.7,669.3,858,679.3z"/>
<path fill="#FFFFFF" stroke="#000000" stroke-miterlimit="10" d="M881.9,691.1c-3.7,7.3-14.3,23.2-37.4,22.4
	c-6.1-0.2-12.9-0.4-20-0.5c-9.8-0.2-19.9-0.3-29-0.4c-16.8-0.1-30-0.1-30-0.1s-7.9-1.3-15.5-6c-8.7-5.3-17.2-15-13.5-32
	c0.1-0.4,0.2-0.7,0.3-1.1c3.8-1.9,8.8-2.4,13.8,3.1c10,11,18,25,32,5c0,0-0.6,9.1,0.4,16.2c0.8,5.6,2.6,10,6.6,7.8
	c0,0-1-4.2-1.4-9.2c-0.5-7.1,0.3-15.8,7.4-15.8c5.1,0,8.8,5.8,13.3,10.7h0c6.1,6.6,13.8,11.6,28.7-1.7c3.8-3.4,7.4-5.8,10.7-7.4
	c0,0,0,0,0,0c3.5-0.8,7.1-1.5,10.6-2.2c0.5,0.3,1,0.7,1.5,1c0.1,0.1,0.2,0.1,0.3,0.2c0.4,0.3,0.8,0.5,1.2,0.8c0.7,0.4,1.4,0.9,2,1.3
	c0.5,0.3,0.9,0.5,1.4,0.8c0.5,0.3,1.1,0.6,1.6,0.9c0.5,0.3,1.1,0.6,1.6,0.8c0.5,0.3,1,0.5,1.5,0.8c0.5,0.3,1,0.5,1.5,0.7
	c2.2,1,4.3,1.8,6.2,2.5c0.2,0.1,0.5,0.2,0.7,0.2c0.5,0.2,1,0.3,1.5,0.5c0.3,0.1,0.7,0.2,1,0.3C881.2,690.9,881.6,691,881.9,691.1z"
	/>
<path fill="#FFFFFF" stroke="#000000" stroke-miterlimit="10" d="M324.3,362.1c-60.6,3.7-92.7-9.3-107.1-18.1
	c23.9-10.5,47.3-15.3,65.3-7.5C296.2,342.5,310.2,351.3,324.3,362.1z"/>
<path fill="#FFFFFF" stroke="#000000" stroke-miterlimit="10" d="M261,417.5c-6.6,3.5-12.2,8.5-16.3,14.7c-0.9,0-1.9,0-2.8-0.1
	c-3.1-0.1-6.2-0.2-9.2-0.3c-1.8-0.1-3.7-0.2-5.5-0.2c-0.2,0-0.5,0-0.7,0c-0.9,0-1.8-0.1-2.6-0.1c-1,0-2-0.1-3.1-0.2
	c-0.9,0-1.8-0.1-2.7-0.2c-1,0-1.9-0.1-2.9-0.2c-1.7-0.1-3.4-0.2-5-0.4c-0.2,0-0.4,0-0.7,0c-0.9-0.1-1.9-0.1-2.8-0.2
	c-1.9-0.2-3.7-0.3-5.5-0.5c-0.9-0.1-1.8-0.2-2.7-0.3c-0.9-0.1-1.8-0.2-2.7-0.3c-5.4-0.5-10.6-1.1-15.7-1.7c-1.3-0.2-2.7-0.3-4-0.5
	c-0.3,0-0.7-0.1-1-0.1c-4.9-0.6-9.6-1.3-14.2-1.9c-2.3-0.3-4.4-0.7-6.6-1c-0.7-0.1-1.4-0.2-2.1-0.3c-1.4-0.2-2.7-0.4-4-0.6
	c-2.7-0.4-5.3-0.9-7.8-1.3c-1.2-0.2-2.4-0.4-3.6-0.6c-11.1-2-19.5-3.8-24.2-4.8c-0.5-0.1-0.9-0.2-1.3-0.3c3.3-2.9,7.6-6.7,12.8-11
	c0,0,0,0,0,0C144.2,409.2,199.3,418.9,261,417.5z"/>
<path fill="#FFFFFF" stroke="#000000" stroke-miterlimit="10" d="M244.8,432.2c-0.1,0.2-0.2,0.4-0.3,0.5c-0.1,0.2-0.2,0.4-0.3,0.5
	c-0.2,0.4-0.5,0.7-0.7,1.1c-0.3,0.6-0.7,1.2-1,1.8c-0.2,0.4-0.4,0.8-0.6,1.2c-0.2,0.3-0.3,0.6-0.4,0.9c-0.1,0.3-0.3,0.6-0.4,1
	c-0.2,0.4-0.3,0.8-0.5,1.2c-0.1,0.4-0.3,0.7-0.4,1.1s-0.3,0.7-0.4,1.1c-0.2,0.7-0.4,1.3-0.6,2c-0.1,0.3-0.2,0.6-0.2,0.9
	c-0.1,0.3-0.2,0.7-0.2,1c-0.1,0.3-0.2,0.7-0.2,1c-0.1,0.7-0.3,1.3-0.4,2c-47.8,3.6-92.3,5.7-110.6,6.6
	c-6.1-12.3-12.7-24.7-19.8-36.5c1-1,2.3-2.1,3.8-3.4c0.4,0.1,0.9,0.2,1.3,0.3c4.7,1,13,2.8,24.2,4.8c1.2,0.2,2.4,0.4,3.6,0.6
	c2.5,0.4,5.1,0.9,7.8,1.3c1.3,0.2,2.7,0.4,4,0.6c0.7,0.1,1.4,0.2,2.1,0.3c2.1,0.3,4.3,0.7,6.6,1c4.5,0.6,9.2,1.3,14.2,1.9
	c0.3,0.1,0.7,0.1,1,0.1c1.3,0.2,2.6,0.3,4,0.5c5,0.6,10.3,1.2,15.7,1.7c0.9,0.1,1.8,0.2,2.7,0.3c0.9,0.1,1.8,0.2,2.7,0.3
	c1.8,0.2,3.7,0.3,5.5,0.5c0.9,0.1,1.9,0.1,2.8,0.2c0.2,0,0.4,0,0.7,0c1.7,0.1,3.3,0.2,5,0.4c0.9,0.1,1.9,0.1,2.9,0.2
	c0.9,0.1,1.8,0.1,2.7,0.2c1,0.1,2,0.1,3.1,0.2c0.9,0.1,1.8,0.1,2.6,0.1c0.2,0,0.5,0,0.7,0c1.8,0.1,3.6,0.2,5.5,0.2
	c3,0.1,6.1,0.2,9.2,0.3C242.9,432.2,243.9,432.2,244.8,432.2z"/>
<path fill="#FFFFFF" stroke="#000000" stroke-miterlimit="10" d="M332.9,368.8c-57,16-108.2-7.8-127.9-19.1c4.1-2.1,8.2-4,12.2-5.8
	c14.4,8.8,46.5,21.9,107.1,18.1C327.2,364.3,330.1,366.5,332.9,368.8z"/>
<path fill="#FFFFFF" stroke="#000000" stroke-miterlimit="10" d="M350.9,384.3c-71.5,21.2-147.7-7.3-173.3-18.6
	c8.9-5.7,18.2-11.2,27.5-15.9c19.7,11.2,70.9,35.1,127.9,19.1C338.9,373.7,344.9,378.9,350.9,384.3z"/>
<path fill="#FFFFFF" stroke="#000000" stroke-miterlimit="10" d="M360.2,393c-98.9,21.8-170.4-8.1-193.6-20c3.6-2.5,7.2-4.9,11-7.3
	c25.7,11.3,101.8,39.8,173.3,18.6C354,387.1,357.1,390,360.2,393z"/>
<path fill="#FFFFFF" stroke="#000000" stroke-miterlimit="10" d="M368.4,401c-22.8,7.5-47.1,12-71.2,14.4c-1.7-0.7-3.5-1.2-5.4-1.7
	c-3.3-0.8-6.8-1.2-10.3-1.2c-2.9,0-5.7,0.3-8.3,0.8c-4.3,0.8-8.4,2.3-12.1,4.2c-61.7,1.4-116.9-8.3-136.7-12.4
	c11-9.2,25.8-20.9,42.3-32.2c23.2,11.9,94.7,41.8,193.6,20C363,395.6,365.7,398.2,368.4,401z"/>
<path fill="#FFFFFF" stroke="#000000" stroke-miterlimit="10" d="M380.5,413.2c-20.5,7.6-42.5,12.5-65,15.5
	c-4.8-5.9-11.1-10.5-18.4-13.3c24.1-2.4,48.4-6.9,71.2-14.4C372.5,405,376.5,409,380.5,413.2z"/>
<path fill="#FFFFFF" stroke="#000000" stroke-miterlimit="10" d="M393.7,427.2c-12.3,5.6-38.9,10.4-70.8,14.3
	c-0.2-0.6-0.4-1.1-0.7-1.7c0,0,0-0.1-0.1-0.1c-0.2-0.5-0.4-0.9-0.6-1.4c-0.3-0.6-0.6-1.2-0.8-1.7c-0.1-0.2-0.2-0.4-0.3-0.5
	c-0.2-0.3-0.3-0.6-0.5-1c-0.4-0.7-0.9-1.5-1.3-2.2c-0.3-0.4-0.6-0.9-0.9-1.3c0,0,0-0.1-0.1-0.1c-0.3-0.4-0.6-0.8-0.9-1.2
	c-0.4-0.5-0.8-1.1-1.3-1.6c22.4-2.9,44.5-7.8,65-15.5c1.7,1.8,3.4,3.5,5.1,5.3C388.3,421.4,391,424.3,393.7,427.2z"/>
<path fill="#FFFFFF" stroke="#000000" stroke-miterlimit="10" d="M325.5,457.3c0-0.3,0-0.5,0-0.8c0-5.3-0.9-10.3-2.6-15
	c31.9-3.9,58.5-8.7,70.8-14.3c5.2,5.7,10.4,11.4,15.5,17.2C397.5,449.1,364.8,453.5,325.5,457.3z"/>
<path fill="#FFFFFF" stroke="#000000" stroke-miterlimit="10" d="M419,455.6c-25.5,14.8-64,24-104.2,29.7c0.3-0.4,0.7-0.8,1-1.2
	c0.3-0.3,0.5-0.6,0.7-0.9c0.3-0.3,0.5-0.7,0.8-1c0.3-0.4,0.6-0.8,0.9-1.2c0.1-0.1,0.1-0.2,0.2-0.3c0.2-0.3,0.4-0.7,0.6-1
	c0.2-0.3,0.3-0.5,0.5-0.8c0,0,0,0,0,0c0.2-0.3,0.4-0.7,0.6-1.1c0,0,0,0,0,0c0.1-0.1,0.1-0.2,0.1-0.3c0,0,0-0.1,0.1-0.1
	c0.2-0.4,0.5-0.8,0.7-1.2c0-0.1,0.1-0.1,0.1-0.2c0,0,0-0.1,0.1-0.1c0.2-0.5,0.5-1,0.7-1.4c0,0,0-0.1,0.1-0.1c0.2-0.5,0.4-1,0.6-1.5
	c0.1-0.4,0.3-0.7,0.4-1.1c0.1-0.3,0.2-0.6,0.3-1c0.1-0.3,0.2-0.6,0.3-0.9c0.3-0.8,0.5-1.7,0.7-2.5c0.1-0.4,0.2-0.8,0.3-1.2
	c0,0,0-0.1,0-0.1c0.1-0.5,0.2-1,0.3-1.5c0.1-0.6,0.2-1.2,0.3-1.7c0,0,0,0,0-0.1c0-0.3,0.1-0.6,0.1-0.9c0-0.3,0.1-0.6,0.1-0.9
	c0-0.5,0.1-1.1,0.1-1.6c0-0.1,0-0.2,0-0.3c0-0.2,0-0.5,0-0.7c0-0.3,0-0.7,0-1c39.3-3.8,72-8.2,83.7-13
	C412.5,448.1,415.8,451.8,419,455.6z"/>
<path fill="#FFFFFF" stroke="#000000" stroke-miterlimit="10" d="M425.1,462.7c-33,21-85.7,33-136.6,39.8v-2.6
	c1.3-0.2,2.6-0.5,3.8-0.8c0.4-0.1,0.8-0.2,1.2-0.3c0.2-0.1,0.5-0.1,0.7-0.2c0.3-0.1,0.6-0.2,0.9-0.3c0.5-0.1,0.9-0.3,1.4-0.5
	c0.3-0.1,0.5-0.2,0.8-0.3c0.3-0.1,0.5-0.2,0.8-0.3c0.4-0.2,0.8-0.3,1.2-0.5c0.2-0.1,0.4-0.2,0.6-0.3c0.4-0.2,0.8-0.4,1.2-0.6
	l0.4-0.2c0.4-0.2,0.7-0.4,1.1-0.6c0.4-0.2,0.9-0.5,1.3-0.7c0.1,0,0.2-0.1,0.3-0.1c0.2-0.1,0.4-0.2,0.6-0.4c0.2-0.1,0.4-0.2,0.6-0.4
	c0,0,0,0,0,0c0.1-0.1,0.2-0.1,0.3-0.2c0.3-0.2,0.7-0.4,1-0.7c0.1-0.1,0.3-0.2,0.4-0.3c0,0,0,0,0.1,0c0.2-0.1,0.4-0.3,0.6-0.4
	c0.2-0.1,0.3-0.3,0.5-0.4c0.4-0.3,0.7-0.6,1.1-0.9c0.2-0.1,0.3-0.3,0.5-0.4c0.2-0.1,0.3-0.3,0.5-0.4c0.1-0.1,0.2-0.2,0.3-0.3
	c0.2-0.1,0.3-0.3,0.5-0.4c0.2-0.2,0.4-0.3,0.6-0.5c0,0,0,0,0,0c0,0,0,0,0,0c0.3-0.2,0.5-0.5,0.8-0.8l0.2-0.2
	c0.2-0.2,0.5-0.5,0.7-0.7c0.1-0.1,0.2-0.2,0.3-0.4c0.4-0.4,0.8-0.8,1.1-1.2c40.3-5.7,78.7-14.8,104.2-29.7
	C421,458,423.1,460.4,425.1,462.7z"/>
<path fill="#FFFFFF" stroke="#000000" stroke-miterlimit="10" d="M451.8,494.7c-3.3-0.8-6.7-1.2-10.3-1.2c-4,0-7.9,0.5-11.6,1.6
	c-7.7,2.2-14.5,6.4-19.8,12.1c-0.8,0.3-1.7,0.5-2.5,0.7c-37.9,11.3-73.1,22.5-93,29c-0.8-0.2-1.6-0.4-2.4-0.5
	c-8-1.7-16-3.3-23.7-4.8v-29c50.9-6.8,103.6-18.8,136.6-39.8C434.4,473.6,443.3,484.4,451.8,494.7z"/>
<path fill="#FFFFFF" stroke="#000000" stroke-miterlimit="10" d="M288.5,499.9v56.6h-14v-56.6c2.3,0.4,4.6,0.6,7,0.6
	S286.2,500.3,288.5,499.9z"/>
<path fill="#FFFFFF" stroke="#000000" stroke-miterlimit="10" d="M238.2,464.2c-46.6,3.1-88.3,5.2-104,6c-2.2-4.6-4.4-9.3-6.8-14.1
	c18.4-0.8,62.8-3,110.6-6.6c-0.4,2.3-0.5,4.6-0.5,6.9C237.5,459.1,237.7,461.7,238.2,464.2z"/>
<path fill="#FFFFFF" stroke="#000000" stroke-miterlimit="10" d="M194,493.8c-4.6,4.7-8.8,10.7-12.5,17.2
	c-12.6,0.4-22.8,0.5-29.4,0.5c-2.3-5.5-4.8-11.5-7.5-17.9C153,493.9,170.9,494.2,194,493.8z"/>
<path fill="#FFFFFF" stroke="#000000" stroke-miterlimit="10" d="M254.7,491.4c-9.5,0.6-18.7,1.1-27.6,1.5h0
	c-4.9-5.1-9.5-8.1-13.6-8.4c-7-0.5-13.6,3.3-19.5,9.3c-23.1,0.4-41,0.1-49.4-0.2h0c-3.2-7.4-6.7-15.3-10.5-23.5
	c15.7-0.8,57.5-2.9,104-6c0.1,0.5,0.2,1.1,0.3,1.6c0,0.2,0.1,0.3,0.1,0.5c0.1,0.5,0.2,0.9,0.3,1.3c0.1,0.2,0.1,0.5,0.2,0.7
	c0.1,0.4,0.2,0.8,0.4,1.2c0.2,0.6,0.4,1.1,0.6,1.7c0.1,0.2,0.1,0.4,0.2,0.6c0.1,0.3,0.2,0.5,0.3,0.8c0.1,0.4,0.3,0.8,0.5,1.1
	c0,0,0,0,0,0.1c0,0,0,0,0,0c0.2,0.4,0.3,0.8,0.5,1.2c0.1,0.3,0.3,0.6,0.4,0.9c0.2,0.3,0.3,0.6,0.5,0.9c0.2,0.3,0.4,0.7,0.6,1
	c0,0,0.1,0.1,0.1,0.2c0.1,0.2,0.2,0.4,0.3,0.6c0,0.1,0.1,0.2,0.2,0.3c0.2,0.3,0.3,0.5,0.5,0.8c0.6,1,1.3,2,2,2.9
	c0.1,0.2,0.3,0.3,0.4,0.5c0.2,0.3,0.4,0.5,0.6,0.8c0.2,0.2,0.3,0.4,0.5,0.6c0.3,0.4,0.6,0.7,1,1.1c0.1,0.1,0.3,0.3,0.4,0.4
	c0,0,0,0.1,0.1,0.1c0.4,0.4,0.8,0.8,1.1,1.2c0.4,0.4,0.9,0.8,1.3,1.3c0.1,0.1,0.2,0.2,0.3,0.3c0.3,0.3,0.7,0.6,1,0.9
	c0,0,0.1,0.1,0.1,0.1c0.2,0.2,0.4,0.4,0.6,0.5C253.9,490.7,254.3,491,254.7,491.4z"/>
<path fill="#FFFFFF" stroke="#000000" stroke-miterlimit="10" d="M274.5,504.3V529c-9.6-1.7-18.4-3.1-25.8-4.2
	c-3.3-6.2-6.7-11.9-10-17C250.2,506.9,262.2,505.7,274.5,504.3z"/>
<path fill="#FFFFFF" stroke="#000000" stroke-miterlimit="10" d="M274.5,499.9v4.4c-12.3,1.4-24.3,2.6-35.8,3.5
	c-3.9-6-7.8-11.1-11.6-15c8.9-0.4,18.1-0.9,27.6-1.5c0.3,0.2,0.6,0.5,0.9,0.7c0.1,0.1,0.3,0.2,0.4,0.3c0,0,0,0,0,0
	c0,0,0.1,0,0.1,0.1c0.3,0.3,0.7,0.5,1,0.7c0.2,0.2,0.5,0.3,0.7,0.5c0,0,0.1,0,0.1,0c0.9,0.6,1.8,1.1,2.8,1.6c0,0,0.1,0,0.1,0.1
	c0.5,0.3,1,0.5,1.5,0.8c0.5,0.3,1,0.5,1.6,0.7c0.5,0.2,1.1,0.5,1.6,0.7c0.1,0,0.2,0.1,0.3,0.1c0,0,0.1,0,0.1,0
	c0.3,0.1,0.6,0.2,0.9,0.3c0.6,0.2,1.2,0.4,1.9,0.6c0.3,0.1,0.6,0.2,0.9,0.3c0.4,0.1,0.8,0.2,1.3,0.3c0.3,0.1,0.6,0.1,0.8,0.2
	c0.3,0.1,0.6,0.1,0.8,0.2c0.1,0,0.2,0,0.2,0.1C273.3,499.7,273.9,499.8,274.5,499.9z"/>
<path fill="#FFFFFF" stroke="#000000" stroke-miterlimit="10" d="M320.8,436.6c-14.4,4.3-29.4,10.6-43,17.2c-0.3,0-0.5-0.1-0.8-0.1
	c5.2-19.9,11.1-33,14.9-40c1.8,0.5,3.6,1,5.4,1.7c7.2,2.8,13.6,7.4,18.4,13.3c0.4,0.5,0.8,1.1,1.3,1.6c0.3,0.4,0.6,0.8,0.9,1.2
	c0,0,0.1,0.1,0.1,0.1c0.3,0.4,0.6,0.9,0.9,1.3c0.4,0.7,0.9,1.4,1.3,2.2c0.2,0.3,0.3,0.6,0.5,1C320.6,436.2,320.7,436.4,320.8,436.6z
	"/>
<path fill="#FFFFFF" stroke="#000000" stroke-miterlimit="10" d="M325.5,456.5c0,0.3,0,0.5,0,0.8c0,0.3,0,0.7,0,1c0,0.2,0,0.5,0,0.7
	c0,0.1,0,0.2,0,0.3c0,0.5-0.1,1.1-0.1,1.6c0,0.3-0.1,0.6-0.1,0.9c0,0.3-0.1,0.6-0.1,0.9c0,0,0,0,0,0.1c-0.1,0.6-0.2,1.2-0.3,1.7
	c-10.8-5.6-26.7-8-47-10.7c13.5-6.6,28.6-13,43-17.2c0.3,0.6,0.6,1.2,0.8,1.7c0.2,0.5,0.4,0.9,0.6,1.4c0,0,0,0.1,0.1,0.1
	c0.2,0.6,0.5,1.1,0.7,1.7C324.6,446.2,325.5,451.2,325.5,456.5z"/>
<path fill="#FFFFFF" stroke="#000000" stroke-miterlimit="10" d="M324.8,464.5c-0.1,0.5-0.2,1-0.3,1.5c0,0,0,0.1,0,0.1
	c-0.1,0.4-0.2,0.8-0.3,1.2c-0.2,0.8-0.5,1.7-0.7,2.5c-0.1,0.3-0.2,0.6-0.3,0.9c-0.1,0.3-0.2,0.6-0.3,1c-0.1,0.4-0.3,0.7-0.4,1.1
	c-0.2,0.5-0.4,1-0.6,1.5c0,0,0,0.1-0.1,0.1c-0.2,0.5-0.4,1-0.7,1.4c0,0,0,0.1-0.1,0.1c0,0.1-0.1,0.1-0.1,0.2
	c-0.2,0.4-0.4,0.8-0.7,1.2c0,0,0,0.1-0.1,0.1c0,0.1-0.1,0.2-0.1,0.3c0,0,0,0,0,0c-0.2,0.4-0.4,0.7-0.6,1.1c0,0,0,0,0,0
	c-0.2,0.3-0.3,0.5-0.5,0.8c-0.2,0.3-0.4,0.7-0.6,1c-0.1,0.1-0.1,0.2-0.2,0.3c-0.3,0.4-0.6,0.8-0.9,1.2c-0.3,0.3-0.5,0.7-0.8,1
	c-0.2,0.3-0.5,0.6-0.7,0.9c-0.3,0.4-0.6,0.8-1,1.2c-0.4,0.4-0.7,0.8-1.1,1.2c-0.1,0.1-0.2,0.3-0.3,0.4c-0.2,0.2-0.5,0.5-0.7,0.7
	l-0.2,0.2c-0.3,0.3-0.5,0.5-0.8,0.8c0,0,0,0,0,0c-19.2-9-29.5-21.7-34.8-34.3v0c0.3-0.2,0.6-0.3,0.9-0.5
	C298,456.5,314,458.9,324.8,464.5z"/>
<path fill="#FFFFFF" stroke="#000000" stroke-miterlimit="10" d="M311.6,488.6C311.6,488.6,311.6,488.6,311.6,488.6
	c-0.2,0.2-0.4,0.4-0.6,0.6c-0.2,0.2-0.3,0.3-0.5,0.4c-0.1,0.1-0.2,0.2-0.3,0.3c-0.2,0.1-0.3,0.3-0.5,0.4c-0.2,0.1-0.3,0.3-0.5,0.4
	c-0.4,0.3-0.7,0.6-1.1,0.9c-0.2,0.1-0.3,0.3-0.5,0.4c-0.2,0.1-0.4,0.3-0.6,0.4c0,0,0,0-0.1,0c-0.1,0.1-0.3,0.2-0.4,0.3
	c-0.3,0.2-0.7,0.4-1,0.7c-0.1,0.1-0.2,0.1-0.3,0.2c0,0,0,0,0,0c-0.2,0.1-0.4,0.2-0.6,0.4c-0.2,0.1-0.4,0.2-0.6,0.4
	c-0.1,0.1-0.2,0.1-0.3,0.1c-0.4,0.3-0.8,0.5-1.3,0.7c-0.4,0.2-0.7,0.4-1.1,0.6l-0.4,0.2c-0.4,0.2-0.8,0.4-1.2,0.6
	c-0.2,0.1-0.4,0.2-0.6,0.3c-0.4,0.2-0.8,0.3-1.2,0.5c-0.3,0.1-0.5,0.2-0.8,0.3c-0.3,0.1-0.5,0.2-0.8,0.3c-0.5,0.2-0.9,0.3-1.4,0.5
	c-0.3,0.1-0.6,0.2-0.9,0.3c-0.2,0.1-0.5,0.1-0.7,0.2c-0.4,0.1-0.8,0.2-1.2,0.3c-1.3,0.3-2.5,0.6-3.8,0.8c-2.3,0.4-4.6,0.6-7,0.6
	s-4.7-0.2-7-0.6c-0.6-0.1-1.2-0.2-1.7-0.3c-0.1,0-0.2,0-0.2-0.1c-0.3-0.1-0.6-0.1-0.8-0.2c-0.3-0.1-0.6-0.1-0.8-0.2
	c-0.4-0.1-0.9-0.2-1.3-0.3c-0.3-0.1-0.6-0.2-0.9-0.3c-0.6-0.2-1.2-0.4-1.9-0.6c-0.3-0.1-0.6-0.2-0.9-0.3c0,0-0.1,0-0.1,0
	c-0.1,0-0.2-0.1-0.3-0.1c-0.5-0.2-1.1-0.4-1.6-0.7c-0.5-0.2-1-0.5-1.6-0.7c-0.5-0.2-1-0.5-1.5-0.8c0,0-0.1,0-0.1-0.1
	c17.5-14.7,16.1-41,16.1-41C282.1,466.9,292.4,479.6,311.6,488.6z"/>
<path fill="#FFFFFF" stroke="#000000" stroke-miterlimit="10" d="M276.8,454.3L276.8,454.3c-14.8,7.2-27.6,14.5-35.9,19.4
	c-0.2-0.4-0.3-0.8-0.5-1.1c-0.1-0.3-0.2-0.5-0.3-0.8c-0.1-0.2-0.1-0.4-0.2-0.6c-0.2-0.6-0.4-1.1-0.6-1.7c-0.1-0.4-0.3-0.8-0.4-1.2
	c-0.1-0.2-0.1-0.5-0.2-0.7c-0.1-0.4-0.2-0.9-0.3-1.3c0-0.2-0.1-0.3-0.1-0.5c-0.1-0.5-0.2-1.1-0.3-1.6c-0.4-2.5-0.7-5.1-0.7-7.7
	c0-2.4,0.2-4.7,0.5-6.9c0.1-0.7,0.2-1.4,0.4-2c0.1-0.3,0.1-0.7,0.2-1c0.1-0.3,0.1-0.7,0.2-1c0.1-0.3,0.2-0.6,0.2-0.9
	c0.2-0.7,0.4-1.4,0.6-2c0.1-0.4,0.3-0.7,0.4-1.1s0.3-0.7,0.4-1.1c0.1-0.4,0.3-0.8,0.5-1.2c0.1-0.3,0.3-0.6,0.4-1
	c0.1-0.3,0.3-0.6,0.4-0.9c0.2-0.4,0.4-0.8,0.6-1.2c0.3-0.6,0.6-1.2,1-1.8c5.1,7.5,14.7,16.8,32,19.1c0.4,0,0.7,0.1,1.1,0.1
	C276.7,453.8,276.8,454,276.8,454.3z"/>
<path fill="#FFFFFF" stroke="#000000" stroke-miterlimit="10" d="M276.6,453.6c-0.4,0-0.7-0.1-1.1-0.1c-17.3-2.3-27-11.6-32-19.1
	c0.2-0.4,0.4-0.7,0.7-1.1c0.1-0.2,0.2-0.4,0.3-0.5c0.1-0.2,0.2-0.4,0.3-0.5c4.1-6.2,9.7-11.2,16.3-14.7c3.8-2,7.8-3.4,12.1-4.2
	C271.6,421.6,270.1,437.5,276.6,453.6z"/>
<path fill="#FFFFFF" stroke="#000000" stroke-miterlimit="10" d="M685.2,477.8c-1.1,4.8-3.6,10-8.8,14.6
	c-6.2,5.7-16.2,10.8-31.9,14.1c-2.5,0.5-5.2,1-8,1.6h0c-22.3,4.2-51.5,8.3-79,14.8h0c-29.6,6.9-57.3,16.6-72.7,32
	c-0.4,0.4-0.8,0.8-1.2,1.2c-0.2,0.3-0.5,0.5-0.7,0.8c-0.3,0.3-0.6,0.7-0.9,1c0,0,0,0,0,0c-0.3,0.3-0.6,0.7-0.8,1
	c-1,1.2-1.9,2.5-2.8,3.8c-0.1,0.2-0.2,0.4-0.3,0.5c-0.5,0.7-0.9,1.5-1.3,2.3c-0.2,0.4-0.4,0.8-0.6,1.2c-0.2,0.4-0.4,0.8-0.6,1.2
	c-0.2,0.4-0.4,0.8-0.5,1.2c-0.2,0.4-0.3,0.8-0.5,1.2c-0.1,0.3-0.2,0.6-0.3,0.9c-0.2,0.5-0.4,1-0.5,1.5c0,0,0,0,0,0c0,0,0,0,0,0
	c-0.2,0.5-0.3,1-0.4,1.5c-0.1,0.5-0.3,1-0.3,1.6c-0.1,0.3-0.1,0.6-0.2,0.9c-0.1,0.4-0.2,0.8-0.2,1.3c-0.1,0.7-0.2,1.3-0.2,2
	c0,0.3,0,0.5-0.1,0.8c0,0.4-0.1,0.9-0.1,1.3c0,0.2,0,0.5,0,0.7c0,1.9,0.1,3.8,0.3,5.8c1.3,11.3,5.3,20.8,10.6,29
	c10.6,16.4,26.3,28,35.6,39.8c7.7,9.6,11.1,19.4,4.2,32.1c-3.3,6-8.8,12.6-17.4,20.1c-5.7,5-11.4,9.3-17.1,13.1
	c-42.4,27.7-84.4,22.7-101.2,19c0.1-32,9.8-107.4,13.7-136.9c5.7-3.2,10.5-8.1,13.7-15.1c10.3-22.8-46.1-40.8-99.9-52.6
	c19.9-6.5,55.1-17.8,93-29c0.8-0.3,1.7-0.5,2.5-0.7c-0.6,0.6-1.1,1.2-1.7,1.9c-5.6,6.8-9.2,15.2-9.8,24.6c-0.1,1-0.1,1.9-0.1,2.9
	c0,15.5,8.2,29.1,20.5,36.6c6,3.7,13,6,20.6,6.3c0.6,0,1.3,0,2,0c0.6,0,1.1,0,1.7,0l15.3,66h10l-13.3-68.2
	c6.7-2.3,12.7-6.2,17.5-11.2c0,0,0,0,0,0c7.3-7.7,11.8-18.1,11.8-29.6c0-0.9,0-1.8-0.1-2.7c-0.7-11.7-6.2-22.2-14.5-29.5
	c-4.9-4.3-10.8-7.6-17.3-9.3c44.5-12.2,86.3-21.9,105.8-21.5l0,0.1c0,0,0.1,0,0.4-0.1c0.5,0,1.1,0,1.6,0.1l0.1-0.3
	c6.4-1,27.1-4,55.5-6.8c8.5-0.8,17.6-1.6,27.3-2.3c6.1-0.4,12.4-0.8,18.8-1.2c1.7-0.1,3.4-0.2,5.1-0.3c2-0.1,4-0.2,6-0.3
	c3.6-0.2,7.2-0.3,10.9-0.4c0.4,1.3,0.8,2.8,1.1,4.6C685.9,469.8,686.1,473.7,685.2,477.8z"/>
<path fill="#FFFFFF" stroke="#000000" stroke-miterlimit="10" d="M181.5,511c-1.6,2.8-3.2,5.8-4.6,8.7c-8.3-0.2-15.9,0.1-21.3,0.3
	c-1.1-2.7-2.2-5.5-3.4-8.5C158.8,511.5,168.9,511.4,181.5,511z"/>
<path fill="#FFFFFF" stroke="#000000" stroke-miterlimit="10" d="M719,466.5h-33.7c-0.3-1.7-0.7-3.3-1.1-4.6
	c8.2-0.3,16.6-0.4,25.2-0.5c1,0,2.1,0,3.2,0c1.3,0,2.5,0,3.8,0C717.1,462.8,718.1,464.5,719,466.5z"/>
<path fill="#FFFFFF" stroke="#000000" stroke-miterlimit="10" d="M685.2,477.8c0.9-4.1,0.8-8,0.2-11.3H719c1.8,3.7,3.6,8.5,4.6,13.8
	L685.2,477.8z"/>
<path fill="#FFFFFF" stroke="#000000" stroke-miterlimit="10" d="M720,502.9l-43.6-10.5c5.1-4.7,7.7-9.8,8.8-14.6l38.4,2.5
	C724.9,487.5,724.6,495.6,720,502.9z"/>
<path fill="#FFFFFF" stroke="#000000" stroke-miterlimit="10" d="M720,502.9c-1.4,2.3-3.2,4.5-5.5,6.6c-5.4,4.9-14.8,9.7-26.2,14.7
	l-51.8-16.1c2.8-0.5,5.4-1,8-1.6c15.7-3.3,25.7-8.4,31.9-14.1L720,502.9z"/>
<path fill="#FFFFFF" stroke="#000000" stroke-miterlimit="10" d="M688.3,524.2c-13.6,6-30,12.1-45.4,18.8
	c-21.3-5-68.6-16.3-85.4-20.1c27.5-6.5,56.7-10.6,79-14.8h0L688.3,524.2z"/>
<path fill="#FFFFFF" stroke="#000000" stroke-miterlimit="10" d="M642.9,543c-12.9,5.6-25,11.5-34.3,18h0l-123.8-6.2
	c15.4-15.4,43.1-25,72.7-32h0C574.3,526.7,621.6,537.9,642.9,543z"/>
<path fill="#FFFFFF" stroke="#000000" stroke-miterlimit="10" d="M592.5,579.5c-2,6.3-0.6,12.3,3.1,18.1l-112.5,19.9
	c-5.3-8.2-9.3-17.7-10.6-29c-1.6-13.6,3.3-24.6,12.3-33.7l123.8,6.2C600.5,566.7,594.7,572.8,592.5,579.5z"/>
<path fill="#FFFFFF" stroke="#000000" stroke-miterlimit="10" d="M671,653.8l-152.2,3.6c-9.4-11.8-25-23.4-35.6-39.8l112.5-19.9
	C609.4,619.4,655.6,637.5,671,653.8z"/>
<path fill="#FFFFFF" stroke="#000000" stroke-miterlimit="10" d="M681.8,715.9l-158.9-26.5c7-12.7,3.5-22.5-4.2-32.1l152.2-3.6
	c0.6,0.6,1.1,1.2,1.5,1.8C684.3,670,686.9,698.4,681.8,715.9z"/>
<path fill="#FFFFFF" stroke="#000000" stroke-miterlimit="10" d="M681.8,715.9c-2,6.7-5.1,11.8-9.3,13.9c0,0,0,0,0,0c0,0,0,0,0,0
	c-0.6,0.3-1.3,0.5-2,0.7c-5.3,1.2-30.7,4.8-64.5,8.7c-16.6,1.9-35.2,3.8-54.4,5.6l-63.2-22.2c5.7-3.7,11.4-8.1,17.1-13.1
	c8.5-7.5,14.1-14.1,17.4-20.1L681.8,715.9z"/>
<path fill="#FFFFFF" stroke="#000000" stroke-miterlimit="10" d="M551.6,744.8c-43.2,3.9-89.5,6.9-122.7,5.9c-17.3-0.5-31-2-39.1-5
	c-1-0.4-1.8-0.7-2.6-1.1c0-0.9,0-1.9,0-2.9c16.8,3.7,58.8,8.7,101.2-19L551.6,744.8z"/>
<path fill="#FFFFFF" stroke="#000000" stroke-miterlimit="10" d="M468.5,645.5h-10l-15.3-66c4.2-0.1,8.2-0.9,12-2.2L468.5,645.5z"/>
<path fill="#FFFFFF" stroke="#000000" stroke-miterlimit="10" d="M447,541.3c-17.6-7.3-31.3-22.6-38.6-32.3c0.5-0.6,1.1-1.3,1.7-1.9
	c5.3-5.7,12.1-9.9,19.8-12.1C436,502.3,446.5,518,447,541.3z"/>
<path fill="#FFFFFF" stroke="#000000" stroke-miterlimit="10" d="M484.5,536.5c0,11.5-4.5,21.9-11.8,29.6c-2-6.8-8-17.6-25.2-24.6
	c-0.1,0-0.2-0.1-0.3-0.1c11.4-0.5,24-2.7,37.2-7.6C484.5,534.7,484.5,535.6,484.5,536.5z"/>
<path fill="#FFFFFF" stroke="#000000" stroke-miterlimit="10" d="M484.4,533.8c-13.2,4.9-25.8,7.1-37.2,7.6c0,0,0,0-0.1,0
	c18.1-7,22.2-25,22.8-37.1C478.2,511.6,483.7,522,484.4,533.8z"/>
<path fill="#FFFFFF" stroke="#000000" stroke-miterlimit="10" d="M387.2,744.5c0,0.3,0,0.6,0,0.8c-24.1-2.8-47.6-8-69.3-14.3
	c-9.4-31.1,1.1-110,4.6-133.7c9.7,4.2,53.3,21.5,78.4,7.3c-3.9,29.5-13.6,104.9-13.7,136.9C387.2,742.6,387.2,743.5,387.2,744.5z"/>
<path fill="#FFFFFF" stroke="#000000" stroke-miterlimit="10" d="M317.9,731.1c-36.7-10.5-68.1-24-88.6-33.8l-0.3-6.4
	c5.7-0.3,10.9-0.5,15.4-0.3c31,1,42-18,42-18c1.9-6.7,2.3-15.5,1.5-25.5c-0.5-6.6-1.6-13.7-3-21.2c18.9-9.8,35.5-29.3,35.5-29.3
	s0.7,0.3,2,0.9C319,621.1,308.5,699.9,317.9,731.1z"/>
<path fill="#FFFFFF" stroke="#000000" stroke-miterlimit="10" d="M233.5,788.5h-34v-96.3c6.1-0.1,12.3-0.4,18.2-0.7h0
	c3.9-0.2,7.8-0.5,11.4-0.7l0.3,6.4l4,88.2L233.5,788.5z"/>
<path fill="#FFFFFF" stroke="#000000" stroke-miterlimit="10" d="M889.9,486.4c-0.3,0.7-0.7,1.3-1,2c-10.8,22.5-20.4,45.8-28.3,67.2
	c-1.3,3.5-2.5,6.9-3.7,10.3c-0.9-2.9-1.9-6-3-9.2c-7.6-21.5-20.9-46-42.5-48.2c-18-1.9-33.8,26.5-46.4,60.6
	c-17.1,1-34.6,0.7-47.6-2.6c-14.7-3.7-23.8-11.2-20-25c8-29.6,85-44,143-50.6C860.4,488.6,878,487.2,889.9,486.4z"/>
<path fill="#FFFFFF" stroke="#000000" stroke-miterlimit="10" d="M750,706.5c-6.4,1.8-12.6,3.5-18.4,5.2
	c-1.1-27.9-10.8-116.5-14-145.2c13,3.3,30.5,3.6,47.6,2.6c-14.4,39.2-24.4,86.1-28.4,104.3c-0.1,0.4-0.2,0.8-0.3,1.1
	C732.8,691.5,741.2,701.2,750,706.5z"/>
<path fill="#FFFFFF" stroke="#000000" stroke-miterlimit="10" d="M697.5,541.5c-3.7,13.8,5.3,21.3,20,25
	c3.2,28.7,12.9,117.3,14,145.2c-34.4,9.9-57.6,17.6-59,18c4.2-2.1,7.3-7.2,9.3-13.9c5.1-17.5,2.4-45.9-9.3-60.4
	c-0.5-0.6-1-1.2-1.5-1.8c-15.4-16.3-61.5-34.4-75.4-56.1c-3.7-5.8-5.1-11.8-3.1-18.1c2.2-6.7,8-12.8,16.1-18.5h0
	c9.2-6.5,21.4-12.5,34.3-18c15.4-6.7,31.8-12.8,45.4-18.8c11.4-5,20.8-9.8,26.2-14.7c2.3-2.1,4.1-4.3,5.5-6.6
	c4.5-7.3,4.9-15.4,3.6-22.7c-1-5.2-2.8-10-4.6-13.8c-1-2-1.9-3.7-2.7-5c0.8,0,1.5,0,2.3,0c7.3,0.1,14.7,0.2,22,0.5
	c7.8,0.3,15.6,0.7,23.3,1.3c18.8,1.4,37.3,3.7,54.5,7.3c0,0,9.5,1.5,22.7,3.9c-0.4,6.1-0.6,12-0.6,16.4
	C782.5,497.5,705.5,511.9,697.5,541.5z"/>
<path fill="#FFFFFF" stroke="#000000" stroke-miterlimit="10" d="M660.6,785.2l-6.2,0.3l-213.5,10.6c0-0.8,0-1.7,0-2.5
	c0-0.2,0-0.4,0-0.6c0-1.8-0.1-3.5-0.3-5.1c-0.1-0.8-0.1-1.6-0.2-2.4c0-0.5-0.1-0.9-0.2-1.4c-0.3-2.5-0.7-4.9-1.2-7.2
	c-0.1-0.5-0.2-1-0.3-1.5c-0.1-0.5-0.2-0.9-0.3-1.4c-0.2-1-0.5-1.9-0.7-2.9c-0.1-0.5-0.3-1-0.4-1.4c-0.4-1.5-0.9-2.9-1.3-4.2
	c-0.2-0.5-0.3-1-0.5-1.5c0,0,0,0,0,0c-0.1-0.4-0.3-0.8-0.4-1.1c-0.4-1.1-0.8-2-1.2-3c-0.1-0.3-0.3-0.7-0.4-1c-0.5-1.1-0.9-2-1.3-2.9
	c-0.1-0.3-0.3-0.6-0.4-0.8c-0.2-0.3-0.3-0.6-0.4-0.9c-0.1-0.2-0.2-0.3-0.3-0.5c-0.1-0.2-0.2-0.4-0.3-0.6c0,0,0,0,0,0
	c-0.1-0.2-0.2-0.3-0.3-0.5c-0.6-1.1-1.1-1.8-1.3-2.1c33.3,1,79.5-2,122.7-5.9c19.2-1.8,37.8-3.7,54.4-5.6
	c24.4,9.9,52.5,43.3,52.5,43.3C659.2,783.4,659.9,784.3,660.6,785.2z"/>
<path fill="#FFFFFF" stroke="#000000" stroke-miterlimit="10" d="M681.3,851.4l-254.6-4.7c10.5-18.7,14-36,14.1-50.5l213.5-10.6
	l6.2-0.3c0.1,0.1,0.2,0.2,0.2,0.3C676.2,806.3,681.8,828.9,681.3,851.4z"/>
<path fill="#FFFFFF" stroke="#000000" stroke-miterlimit="10" d="M681.3,851.4c-1.6,75.4-71.8,149.1-71.8,149.1h-461
	c178.7-47.8,251.4-105.8,278.3-153.9L681.3,851.4z"/>
<path fill="#FFFFFF" stroke="#000000" stroke-miterlimit="10" d="M999.5,707.8v292.7h-390c0,0,70.3-73.7,71.8-149.1
	c0.5-22.5-5.1-45.1-20.6-65.9c-0.1-0.1-0.1-0.2-0.2-0.3c-0.7-0.9-1.3-1.8-2.1-2.7c0,0-28.1-33.4-52.5-43.3
	c33.8-3.9,59.2-7.5,64.5-8.7c0.7-0.2,1.3-0.4,2-0.7c0,0,0,0,0,0c0,0,0,0,0,0c1.4-0.4,24.6-8.1,59-18c5.8-1.7,12-3.4,18.4-5.2
	c7.7,4.7,15.5,6,15.5,6s13.2,0,30,0.1l-4.4,72.9l-1.6,26h36l-0.3-26l-0.7-72.5c7.1,0.1,13.9,0.3,20,0.5
	c23.1,0.8,33.8-15.1,37.4-22.4c3.4,1,5.6,1.4,5.6,1.4l34.3,4.7l-13.7,88.3l-11.6,75h54l8.3-75l9.1-82L999.5,707.8z"/>
<path fill="#FFFFFF" stroke="#000000" stroke-miterlimit="10" d="M440.8,796.1c-0.1,14.5-3.6,31.8-14.1,50.5
	c-26.8,48.1-99.6,106-278.3,153.9H0.5v-316l0.3-1c0.1,0,0.3,0,0.5,0h0c4.4,0.3,26.9,1.7,55.6,0L68,785.5l5.5,50h57l-9.2-50
	l-19.7-107c14.2-2.5,28.6-6,42.1-10.8c6.3,21.3,30.8,24.8,55.8,24.5v96.3h34l-0.1-3l-4-88.2c20.4,9.7,51.9,23.2,88.6,33.8
	c21.7,6.2,45.2,11.5,69.3,14.3c0-0.3,0-0.6,0-0.8c0.8,0.4,1.7,0.8,2.6,1.1c8.1,3,21.8,4.5,39.1,5c0.2,0.3,0.7,1,1.3,2.1
	c0.1,0.2,0.2,0.3,0.3,0.5c0,0,0,0,0,0c0.1,0.2,0.2,0.4,0.3,0.6c0.1,0.2,0.2,0.3,0.3,0.5c0.1,0.3,0.3,0.6,0.4,0.9
	c0.1,0.3,0.3,0.5,0.4,0.8c0.4,0.9,0.9,1.8,1.3,2.9c0.1,0.3,0.3,0.7,0.4,1c0.4,0.9,0.8,1.9,1.2,3c0.1,0.4,0.3,0.8,0.4,1.1
	c0,0,0,0,0,0c0.2,0.5,0.4,1,0.5,1.5c0.5,1.3,0.9,2.7,1.3,4.2c0.1,0.5,0.3,0.9,0.4,1.4c0.3,0.9,0.5,1.9,0.7,2.9
	c0.1,0.5,0.2,0.9,0.3,1.4c0.1,0.5,0.2,1,0.3,1.5c0.5,2.3,0.9,4.7,1.2,7.2c0.1,0.5,0.1,0.9,0.2,1.4c0.1,0.8,0.2,1.6,0.2,2.4
	c0.1,1.7,0.2,3.4,0.3,5.1c0,0.2,0,0.4,0,0.6C440.8,794.5,440.8,795.3,440.8,796.1z"/>
<path fill="#FFFFFF" stroke="#000000" stroke-miterlimit="10" d="M558.5,473.4c-19.5-0.4-61.3,9.3-105.8,21.5
	c-0.2,0-0.4,0.1-0.6,0.2c-0.1-0.1-0.2-0.3-0.3-0.4c-8.5-10.3-17.4-21.1-26.7-32c-2-2.4-4.1-4.8-6.1-7.1c-3.2-3.8-6.5-7.5-9.8-11.3
	c-5.1-5.8-10.3-11.5-15.5-17.2c-2.7-2.9-5.4-5.8-8.1-8.7c5.6-6.3,18.8-17.1,39.9-12c0,0,23-35,69-29c0,0,6.9-22.2,34.8-27.1
	c-0.4,2.4-0.1,5.1,1.2,8.1c1.8,4.2,9.3,7.9,19.5,10.7L558.5,473.4z"/>
<path fill="#FFFFFF" stroke="#000000" stroke-miterlimit="10" d="M942.3,404.4c-17.6,18.7-34.2,45.7-48.8,74.7
	c-10-2.4-3-17.6-20-14.6s-6-21-20-26c-8.1-2.9-11.2,17.8-12.3,35.9c-13.1-2.4-22.7-3.9-22.7-3.9l11-99.6c3.7-1,7.1-2.2,10-3.5
	c6.7,4,14.5,10.3,15,18.1c0,0,32-5,40,14C894.5,399.5,919.5,396.9,942.3,404.4z"/>
<path fill="#FFFFFF" stroke="#000000" stroke-miterlimit="10" d="M865.3,95.1c-3.2-3.4-4.8-8.4,11.2-9.6c0,0-6-8,11-8
	c0,0-1-18,18-14c0,0,11,1,13,10c0,0,31-3,40,7c0,0,7.2,0.6,13.6,2.8c6.9,2.4,7.3,12,0.7,15.1c-14.8,6.9-48.6,17.1-100.6,0.9
	C869.6,98.6,867.2,97.1,865.3,95.1z"/>
<polygon fill="#FFFFFF" stroke="#000000" stroke-miterlimit="10" points="715.8,284.7 715.7,288.5 702.7,288.5 702.8,285.3 "/>
<polygon fill="#FFFFFF" stroke="#000000" stroke-miterlimit="10" points="716,279.7 715.8,283.8 715.8,284.7 702.8,285.3 
	702.9,283.9 703,280.4 "/>
<polygon fill="#FFFFFF" stroke="#000000" stroke-miterlimit="10" points="716.2,275.5 716.1,277.5 716,279.7 703,280.4 703.1,277.5 
	703.2,275.5 "/>
<polygon fill="#FFFFFF" stroke="#000000" stroke-miterlimit="10" points="716.3,271.9 716.2,275.5 703.2,275.5 703.3,273.3 "/>
<path fill="#FFFFFF" stroke="#000000" stroke-miterlimit="10" d="M716.5,267.5l-0.1,2l-0.1,2.4l-13,1.4l0.1-2.7l2.3-1.1l10.4-4.9
	C716.5,266.4,716.5,267.5,716.5,267.5z"/>
<path fill="#FFFFFF" stroke="#000000" stroke-miterlimit="10" d="M716.1,264.6l-10.4,4.9l-2.3,1.1l0.1-1.1l0-1c0,0,0-0.9-0.3-2.2
	l7.1-5.8l3.6-2.9c0.1,0.3,0.3,0.7,0.4,1c0.1,0.3,0.2,0.5,0.3,0.8c0.1,0.1,0.1,0.3,0.2,0.4c0.1,0.2,0.2,0.5,0.2,0.7
	C715.6,262.1,715.9,263.5,716.1,264.6z"/>
<path fill="#FFFFFF" stroke="#000000" stroke-miterlimit="10" d="M714,257.6l-3.6,2.9l-7.1,5.8c-0.2-1.2-0.6-2.7-1.4-4.2l1.5-1.6
	l7.4-8h0.4C712.3,254.2,713.2,255.9,714,257.6z"/>
<path fill="#FFFFFF" stroke="#000000" stroke-miterlimit="10" d="M710.9,252.3l-0.2,0.2l-7.4,8l-1.5,1.6c-0.3-0.5-0.6-1.1-1-1.6
	c-0.7-0.9-1.5-1.8-2.6-2.5l3.8-5.5l3.6-5.3C707.8,248.7,709.5,250.4,710.9,252.3z"/>
<path fill="#FFFFFF" stroke="#000000" stroke-miterlimit="10" d="M705.6,247.2l-3.6,5.3l-3.8,5.5c-1.3-0.9-2.8-1.7-4.8-2.1l1.2-3.4
	l2.8-8l0.3-0.9c0.4,0.1,0.8,0.2,1.2,0.3c0.3,0.1,0.6,0.2,0.9,0.3c0.2,0.1,0.5,0.2,0.7,0.3c0,0,0,0,0,0c0.2,0.1,0.5,0.2,0.7,0.3
	c0.2,0.1,0.5,0.2,0.7,0.3c0.2,0.1,0.5,0.2,0.7,0.3C703.7,246,704.7,246.5,705.6,247.2z"/>
<path fill="#FFFFFF" stroke="#000000" stroke-miterlimit="10" d="M697.8,243.6l-0.3,0.9l-2.8,8l-1.2,3.4c-1.2-0.3-2.5-0.4-3.9-0.4
	v-13c0.3,0,0.7,0,1,0C693.2,242.6,695.6,243,697.8,243.6z"/>
<path fill="#FFFFFF" stroke="#000000" stroke-miterlimit="10" d="M689.5,242.5v13c-1.2,0-2.3,0.1-3.4,0.3l-1.2-3.3l-3-8l-0.5-1.3
	C683.9,242.7,686.5,242.4,689.5,242.5z"/>
<path fill="#FFFFFF" stroke="#000000" stroke-miterlimit="10" d="M679.3,259.3c-0.4,0.4-0.7,0.8-1,1.2c-0.7,1-1.3,2-1.6,3l-4.3-3
	l-7-4.8c0.6-1,1.2-2.1,2-3.2c0.7-1,1.5-1.9,2.4-2.8L679.3,259.3z"/>
<path fill="#FFFFFF" stroke="#000000" stroke-miterlimit="10" d="M676.6,263.5c-0.4,1-0.6,1.9-0.8,2.7l-13.1-3.8v0
	c0.1-0.5,0.3-1.2,0.5-1.9c0.1-0.3,0.2-0.5,0.3-0.8c0.1-0.4,0.3-0.8,0.4-1.2c0-0.1,0.1-0.2,0.1-0.3c0.1-0.3,0.3-0.6,0.4-1
	c0.2-0.5,0.5-1,0.8-1.5l7,4.8L676.6,263.5z"/>
<path fill="#FFFFFF" stroke="#000000" stroke-miterlimit="10" d="M675.8,266.2c-0.3,1.4-0.3,2.3-0.3,2.3v1.9l-13-0.8v-6.1
	c0,0,0-0.4,0.2-1.1L675.8,266.2z"/>
<polygon fill="#FFFFFF" stroke="#000000" stroke-miterlimit="10" points="675.5,270.4 675.5,275.5 662.5,275.5 662.5,269.6 "/>
<rect x="662.5" y="275.5" fill="#FFFFFF" stroke="#000000" stroke-miterlimit="10" width="13" height="7"/>
<rect x="662.5" y="282.5" fill="#FFFFFF" stroke="#000000" stroke-miterlimit="10" width="13" height="6"/>
<path fill="#FFFFFF" stroke="#000000" stroke-miterlimit="10" d="M686.1,255.8c-1.3,0.2-2.5,0.6-3.5,1.1l-3.1-4.4l-4.8-6.7
	c0.3-0.1,0.5-0.3,0.8-0.4c0.3-0.1,0.6-0.3,0.9-0.4c0.3-0.2,0.6-0.3,1-0.4c0.3-0.1,0.5-0.2,0.8-0.3c0.4-0.1,0.7-0.3,1.1-0.4
	c0.7-0.2,1.4-0.4,2.1-0.6l0.5,1.3l3,8L686.1,255.8z"/>
<path fill="#FFFFFF" stroke="#000000" stroke-miterlimit="10" d="M682.6,256.9c-1.4,0.7-2.5,1.5-3.4,2.4l-9.6-9.6
	c1.4-1.4,3.1-2.8,5.2-3.9l4.8,6.7L682.6,256.9z"/>
<path fill="#FFFFFF" stroke="#000000" stroke-miterlimit="10" d="M260.7,495.3c-0.9-0.5-1.9-1-2.8-1.6c0,0-0.1,0-0.1,0
	c-0.2-0.2-0.5-0.3-0.7-0.5c-0.3-0.2-0.7-0.5-1-0.7c0,0-0.1,0-0.1-0.1c0,0,0,0,0,0c-0.2-0.1-0.3-0.2-0.4-0.3
	c-0.3-0.2-0.6-0.5-0.9-0.7c-0.4-0.3-0.8-0.6-1.2-0.9c-0.2-0.2-0.4-0.3-0.6-0.5c0,0-0.1,0-0.1-0.1c-0.4-0.3-0.7-0.6-1-0.9
	c-0.1-0.1-0.2-0.2-0.3-0.3c-0.4-0.4-0.9-0.8-1.3-1.3c-0.4-0.4-0.8-0.8-1.1-1.2c0,0,0-0.1-0.1-0.1c-0.1-0.1-0.3-0.3-0.4-0.4
	c-0.3-0.4-0.6-0.7-1-1.1c-0.2-0.2-0.4-0.4-0.5-0.6c-0.2-0.3-0.4-0.5-0.6-0.8c-0.1-0.2-0.3-0.3-0.4-0.5c-0.7-0.9-1.4-1.9-2-2.9
	c-0.2-0.3-0.3-0.5-0.5-0.8c-0.1-0.1-0.1-0.2-0.2-0.3c-0.1-0.2-0.2-0.4-0.3-0.6c0-0.1-0.1-0.1-0.1-0.2c-0.2-0.3-0.4-0.7-0.6-1
	c-0.2-0.3-0.3-0.6-0.5-0.9c-0.2-0.3-0.3-0.6-0.4-0.9c-0.2-0.4-0.4-0.8-0.5-1.2c0,0,0,0,0,0c0,0,0,0,0-0.1
	c8.2-4.9,21.1-12.2,35.9-19.4C276.8,454.3,278.2,480.6,260.7,495.3z"/>
<path fill="#FFFFFF" stroke="#000000" stroke-miterlimit="10" d="M291.8,413.7c-3.7,7-9.7,20.1-14.9,40c-0.1,0-0.3,0-0.4-0.1
	c-6.5-16.1-5-32.1-3.4-40.3c2.7-0.5,5.5-0.8,8.3-0.8C285.1,412.5,288.5,412.9,291.8,413.7z"/>
<path fill="#FFFFFF" stroke="#000000" stroke-miterlimit="10" d="M470,504.3c-0.6,12.1-4.7,30.1-22.8,37.1c0,0-0.1,0-0.1,0
	c-0.5-23.3-11-39-17.1-46.2c3.7-1,7.6-1.6,11.6-1.6c3.5,0,7,0.4,10.3,1.2c0.1,0.1,0.2,0.3,0.3,0.4c0.2-0.1,0.4-0.1,0.6-0.2
	C459.2,496.7,465.1,499.9,470,504.3z"/>
<path fill="#FFFFFF" stroke="#000000" stroke-miterlimit="10" d="M447,541.3L447,541.3c-21.3,1-38.6-3.9-48.4-7.7
	c0.6-9.3,4.2-17.8,9.8-24.6C415.8,518.7,429.5,534,447,541.3z"/>
<path fill="#FFFFFF" stroke="#000000" stroke-miterlimit="10" d="M447,541.4c-21.1,8.1-26.6,24.1-28,31.8
	c-12.3-7.6-20.5-21.1-20.5-36.6c0-1,0-2,0.1-2.9C408.5,537.4,425.8,542.3,447,541.4z"/>
<path fill="#FFFFFF" stroke="#000000" stroke-miterlimit="10" d="M439.5,579.5c-7.5-0.3-14.5-2.6-20.6-6.3c1.4-7.7,6.9-23.7,28-31.8
	C447.3,552.4,445.3,565.1,439.5,579.5z"/>
<path fill="#FFFFFF" stroke="#000000" stroke-miterlimit="10" d="M472.7,566.1C472.7,566.1,472.7,566.1,472.7,566.1
	c-4.8,5-10.7,8.9-17.5,11.2c-3.8,1.3-7.8,2-12,2.2c-0.6,0-1.1,0-1.7,0c-0.7,0-1.3,0-2,0c5.7-14.3,7.7-27.1,7.5-38.1
	c0.1,0,0.1,0,0.2,0c0.1,0,0.2,0.1,0.3,0.1C464.7,548.5,470.7,559.2,472.7,566.1z"/>
<path fill="#FFFFFF" stroke="#000000" stroke-miterlimit="10" d="M893.5,479.1c-1,2-2,4.1-3,6.1c-0.2,0.4-0.4,0.8-0.6,1.2
	c-11.9,0.8-29.5,2.2-49.4,4.5c0.1-4.5,0.3-10.3,0.6-16.4c1.2-18.1,4.3-38.8,12.3-35.9c14,5,3,29,20,26S883.5,476.7,893.5,479.1z"/>
<path fill="#FFFFFF" stroke="#000000" stroke-miterlimit="10" d="M805.1,541.5c1.6-2.4,4.2-5.4,7.8-5.3c1,0,1.7,1,1.4,1.9
	c-0.4,1.8-2,4.6-7.5,5.9C805.4,544.3,804.3,542.7,805.1,541.5z"/>
<path fill="#FFFFFF" stroke="#000000" stroke-miterlimit="10" d="M903.1,558.5c1.6-2.4,4.2-5.4,7.8-5.3c1,0,1.7,1,1.4,1.9
	c-0.4,1.8-2,4.6-7.5,5.9C903.4,561.3,902.3,559.7,903.1,558.5z"/>
<path fill="#FFFFFF" stroke="#000000" stroke-miterlimit="10" d="M963.5,577.6c2.9,0.4,6.7,1.6,8,4.9c0.4,0.9-0.2,1.9-1.1,2.1
	c-1.8,0.4-5,0.1-8.5-4.4C961.1,579.1,962,577.4,963.5,577.6z"/>
<path fill="#FFFFFF" stroke="#000000" stroke-miterlimit="10" d="M969.5,540.6c2.9,0.4,6.7,1.6,8,4.9c0.4,0.9-0.2,1.9-1.1,2.1
	c-1.8,0.4-5,0.1-8.5-4.4C967.1,542.1,968,540.4,969.5,540.6z"/>
<path fill="#FFFFFF" stroke="#000000" stroke-miterlimit="10" d="M935.9,525.7c2-2.1,5.1-4.6,8.7-3.8c0.9,0.2,1.5,1.2,1.1,2.1
	c-0.7,1.7-2.8,4.2-8.5,4.4C935.7,528.5,934.9,526.7,935.9,525.7z"/>
<path fill="#FFFFFF" stroke="#000000" stroke-miterlimit="10" d="M939.9,473.7c2-2.1,5.1-4.6,8.7-3.8c0.9,0.2,1.5,1.2,1.1,2.1
	c-0.7,1.7-2.8,4.2-8.5,4.4C939.7,476.5,938.9,474.7,939.9,473.7z"/>
<path fill="#FFFFFF" stroke="#000000" stroke-miterlimit="10" d="M981.9,480.7c2-2.1,5.1-4.6,8.7-3.8c0.9,0.2,1.5,1.2,1.1,2.1
	c-0.7,1.7-2.8,4.2-8.5,4.4C981.7,483.5,980.9,481.7,981.9,480.7z"/>
<path fill="#FFFFFF" stroke="#000000" stroke-miterlimit="10" d="M936.4,430.9c2.8-0.6,6.8-0.8,9.3,1.8c0.7,0.7,0.5,1.9-0.3,2.4
	c-1.6,1-4.7,1.9-9.5-1.2C934.7,433.1,935,431.2,936.4,430.9z"/>
<path fill="#FFFFFF" stroke="#000000" stroke-miterlimit="10" d="M911.3,500.6c2.4,1.6,5.4,4.3,5.2,7.9c-0.1,1-1,1.7-1.9,1.4
	c-1.8-0.5-4.6-2.1-5.8-7.6C908.5,500.9,910.1,499.8,911.3,500.6z"/>
<path fill="#FFFFFF" stroke="#000000" stroke-miterlimit="10" d="M920.5,589.8c0.9,2.7,1.5,6.7-0.9,9.4c-0.6,0.7-1.8,0.7-2.4-0.1
	c-1.1-1.5-2.3-4.5,0.3-9.5C918.1,588.2,920,588.4,920.5,589.8z"/>
<path fill="#FFFFFF" stroke="#000000" stroke-miterlimit="10" d="M883.8,616.3c2.9-0.2,6.9,0.2,8.9,3.2c0.5,0.8,0.2,1.9-0.7,2.3
	c-1.7,0.7-4.9,1.1-9.2-2.6C881.8,618.2,882.4,616.4,883.8,616.3z"/>
<path fill="#FFFFFF" stroke="#000000" stroke-miterlimit="10" d="M960.5,629.5c1-2.7,2.9-6.2,6.5-6.9c1-0.2,1.8,0.6,1.8,1.5
	c0,1.9-0.9,5-6,7.4C961.5,632.2,960,630.9,960.5,629.5z"/>
<path fill="#FFFFFF" stroke="#000000" stroke-miterlimit="10" d="M977.5,429.5c1-2.7,2.9-6.2,6.5-6.9c1-0.2,1.8,0.6,1.8,1.5
	c0,1.9-0.9,5-6,7.4C978.5,432.2,977,430.9,977.5,429.5z"/>
<path fill="#FFFFFF" stroke="#000000" stroke-miterlimit="10" d="M986.8,526.7c-2.4-1.7-5.3-4.4-5-8c0.1-1,1-1.6,2-1.4
	c1.8,0.5,4.6,2.2,5.6,7.7C989.6,526.5,988,527.6,986.8,526.7z"/>
<path fill="#FFFFFF" stroke="#000000" stroke-miterlimit="10" d="M898.8,542.7c-2.4-1.7-5.3-4.4-5-8c0.1-1,1-1.6,2-1.4
	c1.8,0.5,4.6,2.2,5.6,7.7C901.6,542.5,900,543.6,898.8,542.7z"/>
<path fill="#FFFFFF" stroke="#000000" stroke-miterlimit="10" d="M810.1,574.5c1.6-2.4,4.2-5.4,7.8-5.3c1,0,1.7,1,1.4,1.9
	c-0.4,1.8-2,4.6-7.5,5.9C810.4,577.3,809.3,575.7,810.1,574.5z"/>
<path fill="#FFFFFF" stroke="#000000" stroke-miterlimit="10" d="M769,630.2c0.5-2.8,1.8-6.6,5.2-7.9c0.9-0.3,1.9,0.2,2.1,1.2
	c0.3,1.8-0.1,5-4.7,8.3C770.4,632.6,768.7,631.6,769,630.2z"/>
<path fill="#FFFFFF" stroke="#000000" stroke-miterlimit="10" d="M808.1,634.2c2.8,0.8,6.4,2.6,7.2,6.1c0.2,0.9-0.5,1.9-1.4,1.9
	c-1.9,0.1-5-0.7-7.7-5.7C805.5,635.2,806.7,633.7,808.1,634.2z"/>
<path fill="#FFFFFF" stroke="#000000" stroke-miterlimit="10" d="M784.1,569.2c2.8,0.8,6.4,2.6,7.2,6.1c0.2,0.9-0.5,1.9-1.4,1.9
	c-1.9,0.1-5-0.7-7.7-5.7C781.5,570.2,782.7,568.7,784.1,569.2z"/>
<path fill="#FFFFFF" stroke="#000000" stroke-miterlimit="10" d="M839.1,532.7c-1.5,2.5-4.1,5.5-7.7,5.5c-1,0-1.7-0.9-1.5-1.9
	c0.4-1.8,1.9-4.7,7.4-6.1C838.7,529.9,839.9,531.4,839.1,532.7z"/>
<path fill="#FFFFFF" stroke="#000000" stroke-miterlimit="10" d="M788.1,545.7c-1.5,2.5-4.1,5.5-7.7,5.5c-1,0-1.7-0.9-1.5-1.9
	c0.4-1.8,1.9-4.7,7.4-6.1C787.7,542.9,788.9,544.4,788.1,545.7z"/>
<path fill="#FFFFFF" stroke="#000000" stroke-miterlimit="10" d="M816.9,601.7c-2.4-1.6-5.3-4.3-5.1-7.9c0.1-1,1-1.6,1.9-1.4
	c1.8,0.5,4.6,2.1,5.7,7.6C819.7,601.4,818.1,602.5,816.9,601.7z"/>
<path fill="#FFFFFF" stroke="#000000" stroke-miterlimit="10" d="M834.9,577.7c-2.4-1.6-5.3-4.3-5.1-7.9c0.1-1,1-1.6,1.9-1.4
	c1.8,0.5,4.6,2.1,5.7,7.6C837.7,577.4,836.1,578.5,834.9,577.7z"/>
<path fill="#FFFFFF" stroke="#000000" stroke-miterlimit="10" d="M785.3,609c1.3-2.6,3.6-5.9,7.2-6.1c1-0.1,1.8,0.8,1.6,1.7
	c-0.2,1.8-1.5,4.8-6.8,6.7C785.9,611.8,784.6,610.3,785.3,609z"/>
<path fill="#FFFFFF" stroke="#000000" stroke-miterlimit="10" d="M235.8,574.8c2.6,1.3,5.8,3.7,6,7.3c0.1,1-0.8,1.8-1.8,1.6
	c-1.8-0.3-4.8-1.6-6.6-6.9C233,575.4,234.5,574.1,235.8,574.8z"/>
<path fill="#FFFFFF" stroke="#000000" stroke-miterlimit="10" d="M288.4,688c5,1.9,11.2,5.4,11.5,10.9c0.1,1.5-1.6,2.7-3.5,2.6
	c-3.6-0.3-9.4-2.2-12.6-10.3C283,689.1,285.9,687.1,288.4,688z"/>
<path fill="#FFFFFF" stroke="#000000" stroke-miterlimit="10" d="M344.1,609.5c-0.3,5.3-1.8,12.3-7,14.2c-1.4,0.5-3.1-0.8-3.5-2.6
	c-0.8-3.5-0.7-9.6,6.1-15.1C341.5,604.6,344.3,606.8,344.1,609.5z"/>
<path fill="#FFFFFF" stroke="#000000" stroke-miterlimit="10" d="M388.1,646.5c-0.3,5.3-1.8,12.3-7,14.2c-1.4,0.5-3.1-0.8-3.5-2.6
	c-0.8-3.5-0.7-9.6,6.1-15.1C385.5,641.6,388.3,643.8,388.1,646.5z"/>
<path fill="#FFFFFF" stroke="#000000" stroke-miterlimit="10" d="M344.1,667.5c-0.3,5.3-1.8,12.3-7,14.2c-1.4,0.5-3.1-0.8-3.5-2.6
	c-0.8-3.5-0.7-9.6,6.1-15.1C341.5,662.6,344.3,664.8,344.1,667.5z"/>
<path fill="#FFFFFF" stroke="#000000" stroke-miterlimit="10" d="M746.1,588.5c-0.3,5.3-1.8,12.3-7,14.2c-1.4,0.5-3.1-0.8-3.5-2.6
	c-0.8-3.5-0.7-9.6,6.1-15.1C743.5,583.6,746.3,585.8,746.1,588.5z"/>
<path fill="#FFFFFF" stroke="#000000" stroke-miterlimit="10" d="M376.2,723.1c-5.5,5.3-14,11.3-22.5,8.5c-2.3-0.7-3.3-3.6-2.1-5.9
	c2.3-4.4,8.1-10.7,22.2-10.3C377.5,715.5,379,720.4,376.2,723.1z"/>
<path fill="#FFFFFF" stroke="#000000" stroke-miterlimit="10" d="M208.8,586.8c2.6,1.3,5.8,3.7,6,7.3c0.1,1-0.8,1.8-1.8,1.6
	c-1.8-0.3-4.8-1.6-6.6-6.9C206,587.4,207.5,586.1,208.8,586.8z"/>
<path fill="#FFFFFF" stroke="#000000" stroke-miterlimit="10" d="M264,642.3c-1.3,2.6-3.6,5.8-7.2,6.1c-1,0.1-1.8-0.8-1.6-1.7
	c0.2-1.8,1.5-4.8,6.9-6.6C263.4,639.5,264.6,641,264,642.3z"/>
<path fill="#FFFFFF" stroke="#000000" stroke-miterlimit="10" d="M207.3,639.6c2.4,1.6,5.4,4.2,5.2,7.9c0,1-1,1.7-1.9,1.4
	c-1.8-0.4-4.6-2-5.8-7.5C204.4,639.9,206,638.8,207.3,639.6z"/>
<path fill="#FFFFFF" stroke="#000000" stroke-miterlimit="10" d="M243.7,621.9c0.7,2.8,1.2,6.8-1.4,9.3c-0.7,0.7-1.8,0.6-2.4-0.2
	c-1-1.5-2.1-4.6,0.7-9.5C241.4,620.2,243.3,620.5,243.7,621.9z"/>
<path fill="#FFFFFF" stroke="#000000" stroke-miterlimit="10" d="M197.7,601.9c0.7,2.8,1.2,6.8-1.4,9.3c-0.7,0.7-1.8,0.6-2.4-0.2
	c-1-1.5-2.1-4.6,0.7-9.5C195.4,600.2,197.3,600.5,197.7,601.9z"/>
<path fill="#FFFFFF" stroke="#000000" stroke-miterlimit="10" d="M186.7,568.9c0.7,2.8,1.2,6.8-1.4,9.3c-0.7,0.7-1.8,0.6-2.4-0.2
	c-1-1.5-2.1-4.6,0.7-9.5C184.4,567.2,186.3,567.5,186.7,568.9z"/>
<path fill="#FFFFFF" stroke="#000000" stroke-miterlimit="10" d="M193.7,544.9c0.7,2.8,1.2,6.8-1.4,9.3c-0.7,0.7-1.8,0.6-2.4-0.2
	c-1-1.5-2.1-4.6,0.7-9.5C191.4,543.2,193.3,543.5,193.7,544.9z"/>
<path fill="#FFFFFF" stroke="#000000" stroke-miterlimit="10" d="M213.9,514.3c2.8,0.7,6.5,2.2,7.5,5.7c0.3,0.9-0.4,1.9-1.3,2
	c-1.9,0.2-5-0.4-8-5.2C211.3,515.5,212.4,514,213.9,514.3z"/>
<path fill="#FFFFFF" stroke="#000000" stroke-miterlimit="10" d="M253.8,565c0.6,2.8,0.8,6.8-1.8,9.3c-0.7,0.7-1.9,0.5-2.4-0.3
	c-1-1.6-1.9-4.7,1.2-9.5C251.6,563.2,253.5,563.5,253.8,565z"/>
<path fill="#FFFFFF" stroke="#000000" stroke-miterlimit="10" d="M113.8,532c0.6,2.8,0.8,6.8-1.8,9.3c-0.7,0.7-1.9,0.5-2.4-0.3
	c-1-1.6-1.9-4.7,1.2-9.5C111.6,530.2,113.5,530.5,113.8,532z"/>
<path fill="#FFFFFF" stroke="#000000" stroke-miterlimit="10" d="M25.9,546.2c2.9-0.1,6.9,0.5,8.8,3.5c0.5,0.8,0.1,1.9-0.8,2.3
	c-1.7,0.7-5,0.9-9.1-2.9C23.8,548,24.5,546.2,25.9,546.2z"/>
<path fill="#FFFFFF" stroke="#000000" stroke-miterlimit="10" d="M48,523.1c1.8-2.3,4.7-5,8.3-4.5c1,0.1,1.6,1.1,1.3,2
	c-0.6,1.8-2.5,4.4-8.1,5.1C48,525.9,47.1,524.2,48,523.1z"/>
<path fill="#FFFFFF" stroke="#000000" stroke-miterlimit="10" d="M53,557.1c1.8-2.3,4.7-5,8.3-4.5c1,0.1,1.6,1.1,1.3,2
	c-0.6,1.8-2.5,4.4-8.1,5.1C53,559.9,52.1,558.2,53,557.1z"/>
<path fill="#FFFFFF" stroke="#000000" stroke-miterlimit="10" d="M32.7,450.4c2.8,0.6,6.6,2,7.7,5.5c0.3,0.9-0.3,1.9-1.3,2
	c-1.8,0.2-5-0.2-8.2-5C30.2,451.7,31.3,450.1,32.7,450.4z"/>
<path fill="#FFFFFF" stroke="#000000" stroke-miterlimit="10" d="M50.7,375.4c2.8,0.6,6.6,2,7.7,5.5c0.3,0.9-0.3,1.9-1.3,2
	c-1.8,0.2-5-0.2-8.2-5C48.2,376.7,49.3,375.1,50.7,375.4z"/>
<path fill="#FFFFFF" stroke="#000000" stroke-miterlimit="10" d="M79.7,446.4c2.8,0.6,6.6,2,7.7,5.5c0.3,0.9-0.3,1.9-1.3,2
	c-1.8,0.2-5-0.2-8.2-5C77.2,447.7,78.3,446.1,79.7,446.4z"/>
<path fill="#FFFFFF" stroke="#000000" stroke-miterlimit="10" d="M116.1,477.6c-1.5,2.5-4.1,5.5-7.7,5.5c-1,0-1.7-0.9-1.5-1.9
	c0.4-1.8,1.9-4.7,7.4-6.1C115.7,474.8,116.9,476.4,116.1,477.6z"/>
<path fill="#FFFFFF" stroke="#000000" stroke-miterlimit="10" d="M11.1,497.6c-1.5,2.5-4.1,5.5-7.7,5.5c-1,0-1.7-0.9-1.5-1.9
	c0.4-1.8,1.9-4.7,7.4-6.1C10.7,494.8,11.9,496.4,11.1,497.6z"/>
<path fill="#FFFFFF" stroke="#000000" stroke-miterlimit="10" d="M161.1,571.6c-1.5,2.5-4.1,5.5-7.7,5.5c-1,0-1.7-0.9-1.5-1.9
	c0.4-1.8,1.9-4.7,7.4-6.1C160.7,568.8,161.9,570.4,161.1,571.6z"/>
<path fill="#FFFFFF" stroke="#000000" stroke-miterlimit="10" d="M81.9,410.2c-2.8,0.7-6.8,1-9.3-1.5c-0.7-0.7-0.6-1.8,0.3-2.4
	c1.6-1,4.6-2,9.5,0.9C83.5,408,83.3,409.9,81.9,410.2z"/>
<path fill="#FFFFFF" stroke="#000000" stroke-miterlimit="10" d="M13.9,462.2c-2.8,0.7-6.8,1-9.3-1.5c-0.7-0.7-0.6-1.8,0.3-2.4
	c1.6-1,4.6-2,9.5,0.9C15.5,460,15.3,461.9,13.9,462.2z"/>
<path fill="#FFFFFF" stroke="#000000" stroke-miterlimit="10" d="M44.8,409.3c-2.7-1.1-6.1-3.2-6.6-6.7c-0.1-1,0.6-1.8,1.6-1.8
	c1.9,0.1,4.9,1.1,7.1,6.3C47.5,408.5,46.2,409.9,44.8,409.3z"/>
<path fill="#FFFFFF" stroke="#000000" stroke-miterlimit="10" d="M38.2,498.2c-0.5-2.8-0.5-6.9,2.2-9.2c0.7-0.6,1.9-0.4,2.4,0.4
	c0.9,1.6,1.7,4.8-1.6,9.4C40.3,500.1,38.5,499.7,38.2,498.2z"/>
<path fill="#FFFFFF" stroke="#000000" stroke-miterlimit="10" d="M6.9,576.5c2.1-2,5.3-4.3,8.8-3.4c0.9,0.3,1.4,1.3,1,2.2
	c-0.8,1.7-3,4.1-8.7,4C6.6,579.3,5.9,577.5,6.9,576.5z"/>
<path fill="#FFFFFF" stroke="#000000" stroke-miterlimit="10" d="M107.3,563.5c1.5,2.4,3.1,6.1,1.5,9.3c-0.4,0.9-1.6,1.1-2.3,0.5
	c-1.5-1.1-3.4-3.8-2.2-9.3C104.6,562.6,106.5,562.2,107.3,563.5z"/>
<path fill="#FFFFFF" stroke="#000000" stroke-miterlimit="10" d="M61.3,601.5c1.5,2.4,3.1,6.1,1.5,9.3c-0.4,0.9-1.6,1.1-2.3,0.5
	c-1.5-1.1-3.4-3.8-2.2-9.3C58.6,600.6,60.5,600.2,61.3,601.5z"/>
<path fill="#FFFFFF" stroke="#000000" stroke-miterlimit="10" d="M141.3,596.6c-2.4,1.7-6,3.4-9.2,1.9c-0.9-0.4-1.2-1.5-0.6-2.3
	c1.1-1.5,3.6-3.5,9.2-2.6C142.1,593.9,142.5,595.7,141.3,596.6z"/>
<path fill="#FFFFFF" stroke="#000000" stroke-miterlimit="10" d="M807.5,612.8c2.8-0.6,6.8-0.7,9.2,2c0.6,0.7,0.5,1.9-0.4,2.4
	c-1.6,0.9-4.7,1.8-9.4-1.4C805.7,615,806.1,613.1,807.5,612.8z"/>
<path fill="#FFFFFF" stroke="#000000" stroke-miterlimit="10" d="M833.5,594.8c2.8-0.6,6.8-0.7,9.2,2c0.6,0.7,0.5,1.9-0.4,2.4
	c-1.6,0.9-4.7,1.8-9.4-1.4C831.7,597,832.1,595.1,833.5,594.8z"/>
<path fill="#FFFFFF" stroke="#000000" stroke-miterlimit="10" d="M824.5,626.8c2.8-0.6,6.8-0.7,9.2,2c0.6,0.7,0.5,1.9-0.4,2.4
	c-1.6,0.9-4.7,1.8-9.4-1.4C822.7,629,823.1,627.1,824.5,626.8z"/>
<path fill="#FFFFFF" stroke="#000000" stroke-miterlimit="10" d="M783.7,644.9c0.7,2.8,1,6.8-1.5,9.3c-0.7,0.7-1.8,0.6-2.4-0.3
	c-1-1.6-2-4.6,0.9-9.5C781.5,643.2,783.4,643.5,783.7,644.9z"/>
<path fill="#FFFFFF" stroke="#000000" stroke-miterlimit="10" d="M816.7,664.9c0.7,2.8,1,6.8-1.5,9.3c-0.7,0.7-1.8,0.6-2.4-0.3
	c-1-1.6-2-4.6,0.9-9.5C814.5,663.2,816.4,663.5,816.7,664.9z"/>
<path fill="#FFFFFF" stroke="#000000" stroke-miterlimit="10" d="M770,671.5c-2.9-0.2-6.8-1.1-8.4-4.3c-0.4-0.9,0-1.9,1-2.2
	c1.8-0.5,5-0.5,8.8,3.8C772.3,669.8,771.4,671.6,770,671.5z"/>
<path fill="#FFFFFF" stroke="#000000" stroke-miterlimit="10" d="M755,658.5c-2.9-0.2-6.8-1.1-8.4-4.3c-0.4-0.9,0-1.9,1-2.2
	c1.8-0.5,5-0.5,8.8,3.8C757.3,656.8,756.4,658.6,755,658.5z"/>
<path fill="#FFFFFF" stroke="#000000" stroke-miterlimit="10" d="M770,619.5c-2.9-0.2-6.8-1.1-8.4-4.3c-0.4-0.9,0-1.9,1-2.2
	c1.8-0.5,5-0.5,8.8,3.8C772.3,617.8,771.4,619.6,770,619.5z"/>
<path fill="#FFFFFF" stroke="#000000" stroke-miterlimit="10" d="M775.3,598c-2.8-0.8-6.4-2.4-7.4-5.9c-0.3-0.9,0.4-1.9,1.4-2
	c1.9-0.1,5,0.5,7.9,5.4C777.9,596.9,776.7,598.4,775.3,598z"/>
</svg>
