<?xml version="1.0" encoding="utf-8"?>
<!-- Generator: Adobe Illustrator 23.0.5, SVG Export Plug-In . SVG Version: 6.00 Build 0)  -->
<svg version="1.1" baseProfile="tiny" id="Layer_1" xmlns="http://www.w3.org/2000/svg" xmlns:xlink="http://www.w3.org/1999/xlink"
	 x="0px" y="0px" viewBox="0 0 1000 1000" xml:space="preserve">
<path fill="#FFFFFF" stroke="#231F20" stroke-miterlimit="10" d="M413.2,496.7L372.3,511l-8.2,2.8l-13,4.5l4-10.2
	c0,0,3.7-0.5,8.6-1.5c7.5-1.5,17.6-4,21.3-7.4c6.1-5.7,12.1-11.2,12.1-11.2l-6.3-3.6l0.1-0.1C391.3,484.4,400.7,489.7,413.2,496.7z"
	/>
<polygon fill="#FFFFFF" stroke="#231F20" stroke-miterlimit="10" points="355.1,508.1 351.1,518.3 351,518.4 350.8,518.4 
	334.9,512.1 334.8,512 334.3,512.1 339.8,502.7 349.7,506.2 349.7,506.2 "/>
<path fill="#FFFFFF" stroke="#231F20" stroke-miterlimit="10" d="M339.8,502.7l-5.5,9.4l-41.6,10.5l-0.2,0l4.1-12.1
	c0.1,0,0.4,0,0.8-0.1c0.2,0,0.3-0.1,0.5-0.1c0.4-0.1,1-0.2,1.6-0.3c0.3,0,0.6-0.1,0.9-0.2c0.5-0.1,1-0.2,1.6-0.3
	c0.2,0,0.5-0.1,0.7-0.1c0.3-0.1,0.6-0.1,1-0.2c0.2,0,0.5-0.1,0.7-0.1c0.4-0.1,0.9-0.2,1.4-0.2c0.5-0.1,1-0.2,1.5-0.3
	c0.1,0,0.2,0,0.3,0c0.3-0.1,0.6-0.1,0.8-0.2c0.9-0.2,1.8-0.3,2.7-0.5c0.5-0.1,0.9-0.2,1.4-0.3c3-0.5,6.2-1.1,9.3-1.7
	c0.5-0.1,1-0.2,1.4-0.3c0.4-0.1,0.7-0.1,1.1-0.2c1.1-0.2,2.1-0.4,3.1-0.6c2-0.4,3.8-0.7,5.4-1c0.4-0.1,0.8-0.2,1.1-0.2
	c0.9-0.2,1.7-0.3,2.4-0.5c0.1,0,0.1,0,0.2,0c0.7-0.1,1.3-0.3,1.8-0.3c0.3,0,0.5-0.1,0.7-0.1c0.2,0,0.3-0.1,0.4-0.1
	c0.1,0,0.1,0,0.2,0C339.7,502.8,339.8,502.7,339.8,502.7z"/>
<path fill="#FFFFFF" stroke="#231F20" stroke-miterlimit="10" d="M296.6,510.6l-4.1,12.1l-0.2,0l-17.2-12.1l1.9-11.5
	c0,0,0.1,0.1,0.3,0.2c0.1,0,0.1,0.1,0.2,0.1c0,0,0.1,0,0.1,0.1c0.1,0,0.2,0.1,0.3,0.2c0.7,0.5,1.8,1.2,3.1,2
	c0.1,0.1,0.2,0.1,0.3,0.2c0.7,0.5,1.5,0.9,2.3,1.5c0.2,0.1,0.4,0.3,0.6,0.4c0.1,0,0.2,0.1,0.2,0.1c0.1,0.1,0.3,0.2,0.4,0.3
	c1.1,0.7,2.3,1.4,3.4,2.1c0.1,0.1,0.3,0.2,0.4,0.2c1.3,0.8,2.5,1.5,3.6,2.1c0.1,0.1,0.2,0.1,0.4,0.2
	C294.6,509.9,296.1,510.6,296.6,510.6z"/>
<polygon fill="#FFFFFF" stroke="#231F20" stroke-miterlimit="10" points="277,499.2 277,499.2 275.1,510.6 274.5,510.2 274.5,510.3 
	274.3,510.3 169.2,537.9 "/>
<path fill="#FFFFFF" stroke="#231F20" stroke-miterlimit="10" d="M898.6,537.6c-71.5-18.9-454.2-81-484.4-85.9
	c-8.9-13.7-16.8-25.7-19.7-29.9c11.5,1.7,43.9,6.6,86.3,13.1c4.3,0.6,8.6,1.3,13,2c67.8,10.4,156.5,24.2,227.1,36h0
	c56.6,9.5,101.6,17.6,114.9,21.7l60.6,24.6L898.6,537.6z"/>
<path fill="#FFFFFF" stroke="#231F20" stroke-miterlimit="10" d="M721,472.9c-70.6-11.8-159.3-25.6-227.1-36l-344-163.5l18.6-7.5
	l197,80.2l166.4,79.3l22.9-14.1l10.9-0.2l92,45.5l14.9-7.7l7.2,3.2L721,472.9z"/>
<path fill="#FFFFFF" stroke="#231F20" stroke-miterlimit="10" d="M835.9,494.5c-13.3-4-58.3-12.2-114.9-21.7h0l-41.4-20.8l11.9-7.1
	l18.3-19.7l4.3,1.6l19.4,7.2l6.4,2.4l13.2,4.9c0,0,0,0,0,0l67.4,25L835.9,494.5z"/>
<polygon fill="#FFFFFF" stroke="#231F20" stroke-miterlimit="10" points="705.3,411.8 705.5,413.3 691.1,428 701.7,403.1 
	702.3,403.3 715.7,391.9 "/>
<path fill="#FFFFFF" stroke="#231F20" stroke-miterlimit="10" d="M768,430.2c4.1-8.8,3.9-24.7-17.3-38.5l0,0
	c-1.3-0.9-2.8-1.7-4.3-2.6c-2.6-1.5-5.4-2.9-8.5-4.2c-0.5-0.2-1-0.4-1.4-0.6c-2.1-0.9-4.1-1.6-6-2.3c-5.5-1.9-10.6-3.1-15.3-3.7
	c-3-0.4-5.9-0.6-8.5-0.6c-3,0-5.7,0.2-8.1,0.5c-4.4,0.6-7.9,1.6-10.5,2.5h0l-34.1-1.6l3.6-5.2l62.7-10.5l52.9,19.3l14.1,39.2
	l9.8,1.3l23.5,43.1l-67.4-25C758.5,439.5,765.3,436.1,768,430.2z"/>
<polygon fill="#FFFFFF" stroke="#231F20" stroke-miterlimit="10" points="682.4,394.5 682.9,394.7 682.9,394.7 595.6,390 
	590.1,386.8 571.5,386.3 571.5,386.3 569.3,385.3 587.2,372 590.3,372.8 607,372.8 611.7,375.9 654,379.2 688.1,380.8 688.1,380.8 
	694.8,381.1 695.5,381.5 "/>
<polygon fill="#FFFFFF" stroke="#231F20" stroke-miterlimit="10" points="365.5,346.1 168.5,265.9 166.7,257.3 205.5,269.9 
	205.5,269.9 "/>
<polygon fill="#FFFFFF" stroke="#231F20" stroke-miterlimit="10" points="554.7,411.3 531.9,425.4 365.5,346.1 205.5,269.9 
	274.8,292.2 532.4,411.3 532.4,411.7 "/>
<polygon fill="#FFFFFF" stroke="#231F20" stroke-miterlimit="10" points="540.1,397.6 532.4,411.3 274.8,292.2 275.5,287.2 
	425.9,356.6 451.6,357.3 "/>
<polygon fill="#FFFFFF" stroke="#231F20" stroke-miterlimit="10" points="446.2,343.1 425.9,356.6 275.5,287.2 337.4,294.1 
	350.5,299.9 423,332.6 "/>
<polygon fill="#FFFFFF" stroke="#231F20" stroke-miterlimit="10" points="566,387.8 567.1,388.3 564.7,398.1 564.4,398.1 
	540.1,397.6 451.6,357.3 464.9,345.2 537.6,374.1 553.2,376.3 553.2,376.3 567.9,378.4 570.3,376.5 559.9,385 "/>
<polygon fill="#FFFFFF" stroke="#231F20" stroke-miterlimit="10" points="587.2,372 569.3,385.3 566,387.8 559.9,385 570.3,376.5 
	570.3,376.4 573,374.4 578.7,369.9 "/>
<path fill="#FFFFFF" stroke="#231F20" stroke-miterlimit="10" d="M697.1,605.1c-3.5,5-8,11.4-8.4,11.7c-0.6,0.4-5.3,0.2-7.1,0
	L697.1,605.1z"/>
<path fill="#FFFFFF" stroke="#231F20" stroke-miterlimit="10" d="M448.8,503.6l-0.9-0.1c-0.1-0.2-0.2-0.4-0.4-0.6v0l-80.5-45.1
	l-3.8-2.1l-161.5-88.2l-10-35.4l-39.7-29.7l0,0L123,280.6l0,0l-6.7-4.2l7.5,40.6l56.7,71.6l7.2,3.6l13.3-16.1l1.4,1.1l188.5,107.1
	l0.1-0.1c0.4,0.2,9.8,5.5,22.2,12.5c20,11.3,47.9,26.9,59.1,33.2c0.4,0.2,0.8,0.4,1.1,0.6l0,0c0,0,0,0,0,0l0.2,0.1l0.2,0.1
	l185.2,102.5l0.1-0.9l1.2-10.3L448.8,503.6z M156.4,312.1l21,15.7c0,0-1.7,15.7-1.7,16.5c0,0.8-20-17.4-20-17.4L156.4,312.1z
	 M168.2,364.3l-0.8-14.6c0,0,8,7.3,10.1,13s5.1,19.1,5.1,19.1L168.2,364.3z M185.2,355.7l3.7-21.5c0,0,10.2,28.8,10,29.6
	S185.2,355.7,185.2,355.7z"/>
<path fill="#FFFFFF" stroke="#231F20" stroke-miterlimit="10" d="M480.9,434.9c-42.4-6.5-74.8-11.4-86.3-13.1h0
	c-0.7-1-1.1-1.6-1.1-1.6L152.2,302.5l0,0L123,280.6l3.5,2.2l20.7-8.3L480.9,434.9z"/>
<path fill="#FFFFFF" stroke="#231F20" stroke-miterlimit="10" d="M493.9,436.9c-4.4-0.7-8.8-1.3-13-2L147.1,274.5l2.8-1.1
	L493.9,436.9z"/>
<polygon fill="#FFFFFF" stroke="#231F20" stroke-miterlimit="10" points="904.7,590.8 901.9,600.4 736,588.5 720.8,588.3 
	722.8,578.4 904.7,590.4 "/>
<polygon fill="#FFFFFF" stroke="#231F20" stroke-miterlimit="10" points="736,588.5 728.9,599.2 670.2,642.1 660,633.2 673.6,622.9 
	690.3,622.9 699.4,608.8 698.8,603.8 719.4,588.3 720.8,588.3 "/>
<path fill="#FFFFFF" stroke="#231F20" stroke-miterlimit="10" d="M728.9,599.2l-7.6,11.4L699.5,627L668,650.7
	c0.1-0.2-4.7-3.3-12.8-8.4l2.8-0.2l1.1-8.8l0.4,0.2l0.5-0.4l10.2,8.9L728.9,599.2z"/>
<polygon fill="#FFFFFF" stroke="#231F20" stroke-miterlimit="10" points="712.7,619.2 705.9,630.4 695.9,647.2 692.7,645.8 
	704.7,629.9 "/>
<polygon fill="#FFFFFF" stroke="#231F20" stroke-miterlimit="10" points="475,745.5 474.4,751.4 474.1,751.5 407.8,705.2 
	474.6,745.6 "/>
<polygon fill="#FFFFFF" stroke="#231F20" stroke-miterlimit="10" points="569.2,710.4 567.9,716.6 474.4,751.4 475,745.5 
	568.9,709.8 "/>
<path fill="#FFFFFF" stroke="#231F20" stroke-miterlimit="10" d="M721.3,610.6l-6,9l-2.6-0.5l-8,10.7l-11.9,15.9l-19.9,26.5
	L662,686.8l-1.9-0.9l-73-34.2H587c-0.2-8-2.1-16.9-6.9-26.6c-13.4-27.6-42.2-36-59.3-38.6c-8-1.2-13.5-1.1-13.5-1.1
	c-4.3-0.2-8.5,0-12.4,0.4c-25.1,2.7-41.6,16.7-49.4,36.4c-9,22.8-3.3,56.1,33,76.3c9.4,5.2,18.8,8,27.7,9.3
	c6.3,0.9,12.5,0.9,18.2,0.5c17.5-1.4,31.4-7.6,37.1-10.7c6.5-3.5,20.1-15.3,24.2-33.9l1.9,0.3l69.7,32.8l0.1,0l-80.1,21.6h0l0,0
	l-8.1-8.1l-0.3-0.7l-94,35.7l-0.4,0.1l-66.8-40.4l6.1-90.5l11.4-16.8l39.9-36l-2.5-21.7l9.5-10.3c0.4,0.2,0.8,0.4,1.1,0.6l0,0
	c0,0,0,0,0,0l0.2,0.1l0.2,0.1c8.9,5.4,139.5,85.1,181.4,111.5c8.1,5.1,12.9,8.2,12.8,8.4l31.4-23.6L721.3,610.6z"/>
<polygon fill="#FFFFFF" stroke="#231F20" stroke-miterlimit="10" points="716.1,391.1 715.7,391.9 715.7,391.9 702.3,403.3 
	701.7,403.1 682.9,394.7 682.4,394.5 695.5,381.5 "/>
<polygon fill="#FFFFFF" stroke="#231F20" stroke-miterlimit="10" points="701.7,403.1 691.1,428 691.1,428 690.1,429 689.4,429.8 
	595.5,390.1 595.6,390 682.9,394.7 682.9,394.7 "/>
<polygon fill="#FFFFFF" stroke="#231F20" stroke-miterlimit="10" points="690.1,430.1 689.9,438.7 571.5,386.3 590.1,386.8 
	595.6,390 595.5,390.1 689.4,429.8 "/>
<polygon fill="#FFFFFF" stroke="#231F20" stroke-miterlimit="10" points="706.5,422.1 689.9,438.7 690.1,430.1 690.1,429 691.1,428 
	691.1,428 705.5,413.3 "/>
<path fill="#FFFFFF" stroke="#231F20" stroke-miterlimit="10" d="M903.4,579.1l-454.5-75.5l-1.3-0.7v0c-3.7-5.7-17.7-27.3-30.5-47
	c83.3,10.9,412.8,72.3,482,85.3L903.4,579.1z"/>
<polygon fill="#FFFFFF" stroke="#231F20" stroke-miterlimit="10" points="904.7,590.4 722.8,578.4 722.2,578.3 660.9,622.5 
	660.5,622.2 448.8,503.6 903.4,579.1 "/>
<path fill="#FFFFFF" stroke="#231F20" stroke-miterlimit="10" d="M205,505.7c-9.5,2.3-20.5,1.8-27.9-1.8
	c-7.6-3.6-41.7-30.1-51.1-37.4l3.5-4.3l31.8,23.9C169.1,496.1,185.2,505,205,505.7z"/>
<path fill="#FFFFFF" stroke="#231F20" stroke-miterlimit="10" d="M397.2,488c0,0-6.1,5.5-12.1,11.2c-3.7,3.4-13.8,6-21.3,7.4
	L277,462.8l-0.5,0l0-0.4c0,0,7.3-21.7-15.2-34.8c-15.2-8.9-37.4-7.1-50.1-5c-0.5-0.2-0.7-0.2-0.7-0.2s0,0.1,0,0.4v0.3
	c-0.5,0.1-0.9,0.2-1.4,0.2c-3.3,0.6-6.5,1.3-9.6,2.2l-23.8-18.9l11.9-14.4l13.3-16.1l1.4,1.1l188.5,107.1L397.2,488z"/>
<path fill="#FFFFFF" stroke="#231F20" stroke-miterlimit="10" d="M349.7,506.2l-10-3.5c0,0,0,0-0.1,0c0,0-0.1,0-0.2,0
	c-0.1,0-0.3,0-0.4,0.1c-0.2,0-0.4,0.1-0.7,0.1c-0.5,0.1-1.1,0.2-1.8,0.3c0,0-0.1,0-0.2,0c-0.7,0.1-1.5,0.3-2.4,0.5
	c-0.4,0.1-0.7,0.1-1.1,0.2c-1.6,0.3-3.4,0.6-5.4,1c-1,0.2-2,0.4-3.1,0.6c-0.3,0.1-0.7,0.1-1.1,0.2c-0.5,0.1-0.9,0.2-1.4,0.3
	c-3.1,0.6-6.3,1.2-9.3,1.7c-0.5,0.1-0.9,0.2-1.4,0.3c-0.9,0.2-1.8,0.3-2.7,0.5c-0.3,0-0.6,0.1-0.8,0.2c-0.1,0-0.2,0-0.3,0
	c-0.5,0.1-1,0.2-1.5,0.3c-0.5,0.1-0.9,0.2-1.4,0.2c-0.3,0-0.5,0.1-0.7,0.1c-0.3,0.1-0.7,0.1-1,0.2c-0.2,0-0.5,0.1-0.7,0.1
	c-0.6,0.1-1.1,0.2-1.6,0.3c-0.3,0.1-0.6,0.1-0.9,0.2c-0.6,0.1-1.2,0.2-1.6,0.3c-0.2,0-0.4,0.1-0.5,0.1c-0.4,0.1-0.7,0.1-0.8,0.1
	c-0.5,0-2-0.7-3.9-1.8c-0.1-0.1-0.2-0.1-0.4-0.2c-1.1-0.6-2.3-1.3-3.6-2.1c-0.1-0.1-0.3-0.2-0.4-0.2c-1.1-0.7-2.3-1.4-3.4-2.1
	c-0.1-0.1-0.3-0.2-0.4-0.3c-0.1,0-0.1-0.1-0.2-0.1c-0.2-0.1-0.4-0.3-0.6-0.4c-0.8-0.5-1.6-1-2.3-1.5c-0.1-0.1-0.2-0.2-0.3-0.2
	c-1.3-0.8-2.4-1.5-3.1-2c-0.1-0.1-0.2-0.1-0.3-0.2c0,0-0.1-0.1-0.1-0.1c-0.1-0.1-0.1-0.1-0.2-0.1c-0.2-0.1-0.3-0.2-0.3-0.2v0
	l-107.8,38.7l0,0l0,0l0,0l-21.1,7.6l-54.9-39.2l32.9-39.7c9.4,7.3,43.5,33.8,51.1,37.4c7.4,3.5,18.4,4.1,27.9,1.8c0,0,0,0,0,0
	c6.6,0.2,13.6-0.5,20.8-2.3c36.1-9.4,51.1-35.2,51.1-35.2l-0.3-5.3v0l0.5,0l0.3,5.4L349.7,506.2z"/>
<path fill="#FFFFFF" stroke="#231F20" stroke-miterlimit="10" d="M363.7,506.6c-4.9,1-8.6,1.5-8.6,1.5l-5.3-1.9h0l-72.4-38l-0.3-5.4
	L363.7,506.6z"/>
<path fill="#FFFFFF" stroke="#231F20" stroke-miterlimit="10" d="M177.5,327.7c0,0-1.7,15.7-1.7,16.5c0,0.8-20-17.4-20-17.4
	l0.6-14.8L177.5,327.7z"/>
<path fill="#FFFFFF" stroke="#231F20" stroke-miterlimit="10" d="M198.9,363.7c-0.2,0.8-13.7-8.1-13.7-8.1l3.7-21.5
	C188.9,334.2,199.1,362.9,198.9,363.7z"/>
<path fill="#FFFFFF" stroke="#231F20" stroke-miterlimit="10" d="M182.6,381.8l-14.4-17.5l-0.8-14.6c0,0,8,7.3,10.1,13
	S182.6,381.8,182.6,381.8z"/>
<polygon fill="#FFFFFF" stroke="#231F20" stroke-miterlimit="10" points="367.1,457.8 363.3,455.7 201.8,367.5 191.8,332.1 
	364.7,419 364.7,419.5 365.3,427.9 365.7,434.9 366.1,441.8 "/>
<polygon fill="#FFFFFF" stroke="#231F20" stroke-miterlimit="10" points="464.9,345.2 451.6,357.3 425.9,356.6 446.2,343.1 
	446.2,343.1 446.9,343.4 "/>
<polygon fill="#FFFFFF" stroke="#231F20" stroke-miterlimit="10" points="709.9,425.3 691.6,445 567.3,388.4 567.2,388 567.1,388.3 
	566,387.8 569.3,385.3 571.5,386.3 571.5,386.3 689.9,438.7 706.5,422.1 708.2,423.7 "/>
<polygon fill="#FFFFFF" stroke="#231F20" stroke-miterlimit="10" points="691.6,445 679.7,452.1 672.5,448.9 571.8,404.4 
	571.8,403.2 567.3,388.4 "/>
<polygon fill="#FFFFFF" stroke="#231F20" stroke-miterlimit="10" points="572,411 565.6,411.1 554.7,411.3 532.4,411.7 532.4,411.3 
	540.1,397.6 564.4,398.1 572,410.6 572,410.6 "/>
<polygon fill="#FFFFFF" stroke="#231F20" stroke-miterlimit="10" points="572,410.6 564.4,398.1 564.7,398.1 567.1,388.3 
	567.3,388.4 571.8,403.2 571.8,404.4 "/>
<polygon fill="#FFFFFF" stroke="#231F20" stroke-miterlimit="10" points="672.5,448.9 657.6,456.6 565.6,411.1 572,411 572,410.6 
	572,410.6 571.8,404.4 "/>
<path fill="#FFFFFF" stroke="#231F20" stroke-miterlimit="10" d="M553.2,376.3l-15.6-2.2l-72.7-28.9l-18-1.8l-0.6-0.3h0L423,332.6
	l0.4-0.9c12,5.4,34.2,10.1,54.9,3.1c21.2-7.2,14.5-23.6,3.6-31.7c0,0,0,0,0,0c-1.3-1-2.6-1.8-4-2.5c-1.5-0.8-3.1-1.5-4.8-2.3
	c-1.9-0.9-4-1.7-6.2-2.4h0c-3.2-1.1-6.6-2.1-10.2-2.8h0c-1.7-0.3-3.5-0.7-5.3-0.9c-0.1,0-0.2,0-0.2,0c-4.5-0.6-9.4-0.9-14.5-0.6
	c-2.8,0.1-5.6,0.4-8.6,0.9l-1.6-0.8l-11-5.7l46.1-7.4l44.7,21.9l-0.7,40l14.7,7l0.7,13.5L553.2,376.3z"/>
<path fill="#FFFFFF" stroke="#231F20" stroke-miterlimit="10" d="M208.6,442c-1.5,0.7-2.6,1.8-3.4,2.9l-13.8-16.5
	c0.5-0.2,1-0.4,1.5-0.6c1.5-0.6,2.9-1.1,4.5-1.6l0,0.1L208.6,442z"/>
<polygon fill="#FFFFFF" stroke="#231F20" stroke-miterlimit="10" points="403.1,447.9 366.1,441.8 365.7,434.9 397.5,438.1 "/>
<path fill="#FFFFFF" stroke="#231F20" stroke-miterlimit="10" d="M447.5,502.9l-80.5-45.1l-1-16.1l37,6.2l-5.6-9.8l-31.8-3.3l-0.4-7
	l27.5,4.3l-7.4-11.9c4.6,0.1,8,0.1,8,0c0,0,0.4,0.5,1.1,1.6h0c2.9,4.2,10.8,16.3,19.7,29.9c0.9,1.4,1.8,2.8,2.8,4.2
	C429.8,475.6,443.8,497.2,447.5,502.9z"/>
<path fill="#FFFFFF" stroke="#231F20" stroke-miterlimit="10" d="M899,541.2c-69.2-13-398.7-74.4-482-85.3c-0.9-1.4-1.8-2.8-2.8-4.2
	c30.2,4.9,412.9,67,484.4,85.9L899,541.2z"/>
<path fill="#FFFFFF" stroke="#231F20" stroke-miterlimit="10" d="M392.8,432.2l-27.5-4.3l-0.5-8.4c5,0.2,14,0.6,20.6,0.8
	L392.8,432.2z"/>
<path fill="#FFFFFF" stroke="#231F20" stroke-miterlimit="10" d="M393.4,420.2c0,0.2-3.5,0.1-8,0c-6.6-0.2-15.7-0.6-20.6-0.8l0-0.5
	l-172.9-86.9l-39.7-29.7L393.4,420.2z"/>
<path fill="#FFFFFF" stroke="#231F20" stroke-miterlimit="10" d="M737.5,648l-9.5,13.2l-32.2-14l10.1-16.8
	C712.3,633.2,723.5,638.7,737.5,648z"/>
<polygon fill="#FFFFFF" stroke="#231F20" stroke-miterlimit="10" points="707,699.9 694.4,721.4 675.6,696.2 675.6,696.2 
	673.3,693.2 673.1,693 671.4,690.8 670.4,689.5 678.2,676.6 704.8,699 "/>
<polygon fill="#FFFFFF" stroke="#231F20" stroke-miterlimit="10" points="729.6,708.7 729.5,709 715.3,729.6 715.2,729.7 
	694.4,721.4 707,699.9 707,699.9 "/>
<path fill="#FFFFFF" stroke="#231F20" stroke-miterlimit="10" d="M754.2,660L754.2,660l-6.5,13.1l-0.1,0.2l-18.1-11.5l-1.5-0.7
	l9.5-13.2C742.8,651.4,748.4,655.4,754.2,660z"/>
<path fill="#FFFFFF" stroke="#231F20" stroke-miterlimit="10" d="M772.2,675.4c-0.8,1.4-2.7,5.2-5.2,10.2l-19.4-12.3l0.1-0.2
	l6.4-13.1l0,0C760,664.5,766.1,669.6,772.2,675.4z"/>
<path fill="#FFFFFF" stroke="#231F20" stroke-miterlimit="10" d="M767.1,685.6c-3,6-6.9,13.9-10.8,21.8l-19.1-13.2l0-0.1l10.5-20.8
	L767.1,685.6z"/>
<path fill="#FFFFFF" stroke="#231F20" stroke-miterlimit="10" d="M756.2,707.3c-1.7,3.3-3.3,6.7-4.9,9.9l-21.7-8.5l7.5-14.6
	L756.2,707.3z"/>
<path fill="#FFFFFF" stroke="#231F20" stroke-miterlimit="10" d="M751.3,717.2c-6.1,12.3-11.2,22.5-11.2,22.5l-24.9-10l0.1-0.2
	l14.1-20.5l0.1-0.3L751.3,717.2z"/>
<polygon fill="#FFFFFF" stroke="#231F20" stroke-miterlimit="10" points="717.1,680.3 707,699.9 707,699.9 707,699.9 704.8,699 
	678.2,676.6 685.2,664.9 716.4,679.8 "/>
<polygon fill="#FFFFFF" stroke="#231F20" stroke-miterlimit="10" points="737.1,694.1 729.6,708.7 707,699.9 707,699.9 717.1,680.3 
	"/>
<polygon fill="#FFFFFF" stroke="#231F20" stroke-miterlimit="10" points="747.7,673.3 737.2,694 737.1,694.1 717.1,680.3 
	717.1,680.3 727.1,662.5 728.1,661.2 729.6,661.8 "/>
<path fill="#FFFFFF" stroke="#231F20" stroke-miterlimit="10" d="M722.8,578.4l-2,10l-1.4,0l-20.6,15.5l-0.1-1
	c-0.5,0.7-1,1.4-1.6,2.2l-15.5,11.7l-8,6L660,633.2l-0.8-0.7l1.2-10.3l0.5,0.3l61.3-44.2L722.8,578.4z"/>
<path fill="#FFFFFF" stroke="#231F20" stroke-miterlimit="10" d="M659.1,633.4l-1.1,8.8l-2.8,0.2c-41.8-26.3-172.5-106-181.4-111.5
	L659.1,633.4z"/>
<path fill="#FFFFFF" stroke="#231F20" stroke-miterlimit="10" d="M699.4,608.8l-9.1,14.1h-16.7l8-6c1.8,0.1,6.6,0.4,7.1,0
	c0.4-0.3,4.9-6.7,8.4-11.7l1.7-1.3L699.4,608.8z"/>
<polygon fill="#FFFFFF" stroke="#231F20" stroke-miterlimit="10" points="728.1,661.2 727.1,662.5 717.1,680.3 717.1,680.3 
	716.4,679.8 685.2,664.9 695.9,647.2 "/>
<polygon fill="#FFFFFF" stroke="#231F20" stroke-miterlimit="10" points="695.9,647.2 685.2,664.9 678.2,676.6 670.4,689.5 
	671.4,690.8 657.9,704 657.9,704 658.2,696.6 660.1,686 662,686.8 672.9,672.3 692.7,645.8 "/>
<path fill="#FFFFFF" stroke="#231F20" stroke-miterlimit="10" d="M660.1,686l-1.9,10.7l-0.6,0.3l-0.1-0.1l-0.1,0L587.7,664l-1.9-0.3
	c0.8-3.7,1.3-7.7,1.2-12h0.2L660.1,686z"/>
<path fill="#FFFFFF" stroke="#231F20" stroke-miterlimit="10" d="M580.1,625.1c-13.4-27.6-42.2-36-59.3-38.6
	c-8-1.2-13.5-1.1-13.5-1.1c-4.3-0.2-8.5,0-12.4,0.4c-25.1,2.7-41.6,16.7-49.4,36.4c-9,22.8-3.3,56.1,33,76.3
	c9.4,5.2,18.8,8,27.7,9.3c6.3,0.9,12.5,0.9,18.2,0.5c17.5-1.4,31.4-7.6,37.1-10.7c6.5-3.5,20.1-15.3,24.2-33.9
	c0.8-3.7,1.3-7.7,1.2-12C586.8,643.7,584.8,634.8,580.1,625.1z M577.7,658.7L577.7,658.7c-0.4,1.6-0.9,3.3-1.5,4.9
	c-2,5.4-5,10.3-8.9,14.4c-4.4,4.8-9.9,8.6-16.2,11.5c-10.5,4.8-23,6.6-36.1,5.1c-4.9-0.6-9.8-1.6-14.8-3.2c-1.2-0.4-2.5-0.8-3.7-1.3
	c-8.6-3.2-16.2-7.6-22.7-12.8c-4.9-4-9.1-8.4-12.5-13.2c-3.9-5.3-6.8-11.1-8.6-16.9c-1.4-4.7-2.2-9.5-2.2-14.2
	c0-4.9,0.9-9.9,2.6-14.7c0.3-0.7,0.6-1.5,0.9-2.2c1.7-3.9,3.9-7.4,6.6-10.6c8.2-9.7,20.5-16,34.6-18c3-0.4,6.1-0.7,9.3-0.7
	c5.2-0.1,10.5,0.4,15.9,1.5c3,0.6,6,1.4,9,2.4c1.1,0.3,2.2,0.7,3.3,1.1c7.3,2.7,13.9,6.3,19.6,10.5c5.1,3.7,9.6,8,13.3,12.6
	c6.1,7.5,10.2,15.8,12,24.4C579.2,645.6,579.2,652.3,577.7,658.7z"/>
<path fill="#FFFFFF" stroke="#231F20" stroke-miterlimit="10" d="M567.3,678c-4.4,4.8-9.9,8.6-16.2,11.5l-29.3-44.3
	c1.7-0.5,3.1-1.6,4.4-3L567.3,678z"/>
<path fill="#FFFFFF" stroke="#231F20" stroke-miterlimit="10" d="M516.7,645.7l-1.6,48.9c-4.9-0.6-9.8-1.6-14.8-3.2l10-47
	c1,0.4,2,0.7,3.1,0.9C514.6,645.4,515.7,645.6,516.7,645.7z"/>
<path fill="#FFFFFF" stroke="#231F20" stroke-miterlimit="10" d="M506.9,642.7l-33,34.6c-4.9-4-9.1-8.4-12.5-13.2l41.5-24.7
	C504,640.5,505.3,641.6,506.9,642.7z"/>
<path fill="#FFFFFF" stroke="#231F20" stroke-miterlimit="10" d="M500.3,635.6c0,0,0.1,0.3,0.5,0.8l-47.9,10.7
	c-1.4-4.7-2.2-9.5-2.2-14.2l50.4,0.6C500.6,634.7,500.3,635.6,500.3,635.6z"/>
<path fill="#FFFFFF" stroke="#231F20" stroke-miterlimit="10" d="M503.7,627.4c-0.6,1-1.1,2.2-1.6,3.3L454.2,616
	c1.7-3.9,3.9-7.4,6.6-10.6l42.9,22L503.7,627.4z"/>
<path fill="#FFFFFF" stroke="#231F20" stroke-miterlimit="10" d="M509.8,620.3c-1.6,0.8-3,1.8-3.8,3.1l-10.6-35.9
	c3-0.4,6.1-0.7,9.3-0.7L509.8,620.3z"/>
<path fill="#FFFFFF" stroke="#231F20" stroke-miterlimit="10" d="M529.6,590.6l-10.6,29c-1-0.3-2.2-0.4-3.3-0.5l4.9-30.9
	C523.6,588.8,526.6,589.6,529.6,590.6z"/>
<path fill="#FFFFFF" stroke="#231F20" stroke-miterlimit="10" d="M565.8,614.7l-38.8,11.8c-0.4-0.5-0.7-1-1.1-1.3c0,0,0,0,0,0
	c-0.3-0.9-0.8-1.7-1.5-2.5l28.1-20.5C557.6,605.9,562.1,610.2,565.8,614.7z"/>
<path fill="#FFFFFF" stroke="#231F20" stroke-miterlimit="10" d="M577.7,658.7l-48.5-20.5c0.2-0.3,0.5-0.7,0.7-1
	c0-1.3-0.1-2.5-0.3-3.6l48.3,5.5C579.2,645.6,579.2,652.3,577.7,658.7z"/>
<path fill="#FFFFFF" stroke="#231F20" stroke-miterlimit="10" d="M214.5,461.7l-0.1,29.9c-6,0.6-11.8,0.6-17.2,0l11.5-29.5
	C210.1,462.2,212.2,462.2,214.5,461.7z"/>
<path fill="#FFFFFF" stroke="#231F20" stroke-miterlimit="10" d="M250.3,479.7c-4.6,2.9-9.8,5.4-15.5,7.4l-17.2-26.6
	c1-0.5,2-1.2,3-2.2c0.1-0.1,0.3-0.3,0.4-0.4L250.3,479.7z"/>
<path fill="#FFFFFF" stroke="#231F20" stroke-miterlimit="10" d="M269.1,457.8l-45.7-3.3c0.6-1.3,0.8-2.5,0.9-3.5l44.9-6.3
	c0.3,0.8,0.5,1.7,0.6,2.6C270.4,450.8,270.1,454.3,269.1,457.8z"/>
<path fill="#FFFFFF" stroke="#231F20" stroke-miterlimit="10" d="M259.9,432.1l-36.1,15.7c-0.1-0.4-0.2-0.6-0.2-0.6l-1.9-2
	l28.6-18.6C253.9,428.1,257.2,430,259.9,432.1z"/>
<path fill="#FFFFFF" stroke="#231F20" stroke-miterlimit="10" d="M203.8,455.7l-42,16c-0.7-1.6-1.2-3.2-1.5-5
	c-0.6-3.4-0.4-6.8,0.6-10.1l42.9-3.5C203.7,454.1,203.7,455,203.8,455.7z"/>
<path fill="#FFFFFF" stroke="#231F20" stroke-miterlimit="10" d="M206,460.2l-29,25.8c-3.3-1.6-6.2-3.5-8.7-5.7l36.1-23.1
	C205,458.3,205.5,459.4,206,460.2z"/>
<path fill="#FFFFFF" stroke="#231F20" stroke-miterlimit="10" d="M276.6,462.9l0.3,5.3c0,0-15,25.8-51.1,35.2
	c-7.2,1.9-14.2,2.6-20.8,2.3c0,0,0,0,0,0c-19.8-0.7-36-9.6-43.7-19.5c-2.6-3.3-4.2-6.7-4.7-10c-2.1-13.5,4-27.1,14.9-36.3l0.5,0.2
	c-5.6,5-9.5,10.7-11.2,16.5c-0.9,3.3-1.2,6.7-0.6,10.1c0.3,1.7,0.8,3.4,1.5,5c1.4,3.2,3.6,6.2,6.5,8.7c2.4,2.2,5.4,4.1,8.7,5.7
	c5.7,2.8,12.6,4.7,20.1,5.5c5.4,0.6,11.3,0.6,17.2,0c2.2-0.2,4.4-0.5,6.6-0.9c4.8-0.8,9.4-2.1,13.8-3.6c5.7-2,11-4.5,15.5-7.4
	c9.5-6,16.3-13.8,18.8-21.8c1.1-3.5,1.3-7,0.7-10.5c-0.2-0.9-0.4-1.8-0.6-2.6c-1.5-4.9-4.7-9.1-9.2-12.6c-2.8-2.1-6-4-9.6-5.5
	c-3.4-1.4-7.2-2.5-11.3-3.3c-8.2-1.6-17.5-1.8-27.2-0.4c-0.2-0.1-0.4-0.2-0.6-0.2c12.7-2.1,34.9-3.9,50.1,5
	c22.5,13.1,15.2,34.8,15.2,34.8L276.6,462.9L276.6,462.9z"/>
<path fill="#FFFFFF" stroke="#231F20" stroke-miterlimit="10" d="M199.5,425.6c-0.7,0.2-1.5,0.4-2.2,0.7c-1.5,0.5-3,1-4.5,1.6
	l-21.4-16.1l4.3-5.1L199.5,425.6z"/>
<path fill="#FFFFFF" stroke="#231F20" stroke-miterlimit="10" d="M192.8,427.8c-0.5,0.2-1,0.4-1.5,0.6c-4.2,1.7-8.1,3.7-11.7,6
	c-0.3,0.2-0.5,0.3-0.8,0.5c0,0,0,0,0,0c-2.6,1.5-5,3.1-7.2,5c-11,9.2-17,22.8-14.9,36.3c0.5,3.3,2.1,6.7,4.7,10l-31.8-23.9
	l41.9-50.6L192.8,427.8z"/>
<path fill="#FFFFFF" stroke="#231F20" stroke-miterlimit="10" d="M478.2,334.9c-20.7,7-42.8,2.3-54.9-3.1c-1.8-0.8-3.4-1.6-4.7-2.4
	c-24.2-14.7-20.7-29.1,0.3-35.1c0,0-0.1,0-0.2,0.1c-2,1-3.8,2.1-5.5,3.4c-2.7,2.1-4.8,4.6-5.9,7.4c-0.5,1.4-0.8,2.9-0.7,4.5
	c0.1,2,0.9,3.9,2.2,5.7c4,5.4,12.7,10,21.9,12.8c5,1.5,10.1,2.5,14.6,2.9c0.6,0.1,1.1,0.1,1.7,0.1c4.8,0.2,10.2-0.1,15.4-0.9
	c3.6-0.6,7.2-1.4,10.5-2.4c7.6-2.5,13.5-6.3,14.6-11.3c0-0.2,0.1-0.4,0.1-0.5c0.4-2.7-0.5-5.4-2-7.9c-1.1-1.8-2.4-3.4-3.9-4.9
	C492.7,311.3,499.4,327.7,478.2,334.9z"/>
<path fill="#FFFFFF" stroke="#231F20" stroke-miterlimit="10" d="M487.8,316L487.8,316l-32.3-1.9c0-0.7,0-1.4,0-2l30.3-4
	C487.3,310.6,488.2,313.3,487.8,316z"/>
<path fill="#FFFFFF" stroke="#231F20" stroke-miterlimit="10" d="M439.6,311.6c-0.2,0.6-0.3,1.3-0.4,2l-30.2,1.7l0,0
	c-1.3-1.8-2.1-3.7-2.2-5.7c-0.1-1.6,0.2-3,0.7-4.5h0.3l31.6,6.5L439.6,311.6z"/>
<path fill="#FFFFFF" stroke="#231F20" stroke-miterlimit="10" d="M447.2,304.4v0.2c-1.3,0-2.5,0.2-3.5,0.5l0,0l-15.9-12.5l0-0.1
	c0.1,0,0.2,0,0.2,0c2.9-0.5,5.8-0.7,8.6-0.9v0.1L447.2,304.4z"/>
<path fill="#FFFFFF" stroke="#231F20" stroke-miterlimit="10" d="M473.1,298.4l-17.9,11.7c-0.2-1.1-0.6-2-0.9-2.6
	c2.6-2.4,10.4-9.5,12.6-11.6h0C469.1,296.7,471.2,297.5,473.1,298.4z"/>
<path fill="#FFFFFF" stroke="#231F20" stroke-miterlimit="10" d="M454,307.1c0,1.4-2.9,2.5-6.4,2.5c-3.5,0-6.4-1.1-6.4-2.5
	c0-0.2,0-0.4,0.2-0.6c0.3-0.6,1.2-1.1,2.4-1.4c1-0.3,2.2-0.5,3.5-0.5c0.1,0,0.2,0,0.3,0c0.6,0,1.2,0,1.8,0.1c0,0,0.1,0,0.1,0
	c0.9,0.1,1.8,0.3,2.4,0.5C453.2,305.7,454,306.3,454,307.1L454,307.1C454,307,454,307,454,307.1z"/>
<path fill="#FFFFFF" stroke="#231F20" stroke-miterlimit="10" d="M455.4,314.1c0,0,0,0.1,0,0.2c-0.4,0.6-1,1.2-1.7,1.6
	c-0.7,0.4-1.5,0.8-2.4,1c-1.1,0.3-2.4,0.5-3.7,0.5c-1.7,0-3.4-0.3-4.9-0.9c-1.5-0.6-2.7-1.6-3.5-2.9c0.1-0.7,0.2-1.3,0.4-2
	s0.3-1.3,0.5-1.8v0c0.6-1.9,1.1-3.3,1.1-3.3l0.2,0.1c-0.1,0.2-0.2,0.4-0.2,0.6c0,1.4,2.9,2.5,6.4,2.5c3.5,0,6.4-1.1,6.4-2.5
	c0,0,0,0,0-0.1c0.1,0.1,0.2,0.3,0.3,0.5c0.3,0.6,0.7,1.4,0.9,2.6c0.1,0.6,0.2,1.3,0.3,2C455.5,312.7,455.5,313.4,455.4,314.1z"/>
<path fill="#FFFFFF" stroke="#231F20" stroke-miterlimit="10" d="M473.1,327.8c-3.3,1-6.8,1.9-10.5,2.4l0,0l-11.3-13.2
	c0.9-0.3,1.7-0.6,2.4-1l19.3,11.5L473.1,327.8z"/>
<path fill="#FFFFFF" stroke="#231F20" stroke-miterlimit="10" d="M447.6,317.4l-2,13.6c-4.6-0.4-9.7-1.4-14.6-2.9l11.8-11.6
	C444.2,317.1,445.9,317.4,447.6,317.4z"/>
<path fill="#FFFFFF" stroke="#231F20" stroke-miterlimit="10" d="M423.4,331.7l-0.4,0.9l-72.5-32.7l64.2-10.2l6.7,3.5l0.6,0.3
	c-1,0.2-1.9,0.5-2.8,0.7c-21,5.9-24.5,20.4-0.3,35.1C420,330.1,421.6,330.9,423.4,331.7z"/>
<path fill="#FFFFFF" stroke="#231F20" stroke-miterlimit="10" d="M428.1,292.4c-0.1,0-0.2,0-0.2,0c-1.9,0.3-3.8,0.6-5.8,1.1
	c-0.1,0-0.1,0-0.2,0.1l-0.6-0.3l-6.7-3.5l0.4-0.1l0.1-3.8l0.3,0l11,5.7L428.1,292.4z"/>
<path fill="#FFFFFF" stroke="#231F20" stroke-miterlimit="10" d="M441.2,306.4c0,0-0.6,1.4-1.1,3.3l-0.4-0.1l-26.2-11.9
	c1.7-1.3,3.5-2.4,5.5-3.4l0,0.1L441.2,306.4z"/>
<path fill="#FFFFFF" stroke="#231F20" stroke-miterlimit="10" d="M212.5,449.9c-3.3,1.6-6.8,1.2-7.9-1c0,0,0,0,0,0v0
	c-0.3-0.7-0.4-1.5-0.2-2.3c0.1-0.6,0.4-1.1,0.8-1.7c0.8-1.1,1.9-2.1,3.4-2.9c0.7-0.3,1.4-0.6,2.1-0.8c1.7-0.4,3.3-0.3,4.5,0.3h0
	c0.6,0.3,1.1,0.8,1.4,1.4C217.6,445.1,215.8,448.2,212.5,449.9z"/>
<path fill="#FFFFFF" stroke="#231F20" stroke-miterlimit="10" d="M217.9,426.7c-0.4,5-1.6,13.1-1.9,15l-0.9-0.1h0
	c-1.2-0.6-2.8-0.8-4.5-0.3v0c0-0.4-0.1-14.8-0.1-18.1c0.4-0.1,0.9-0.1,1.3-0.2C213.7,423.6,216.9,425,217.9,426.7z"/>
<polygon fill="#FFFFFF" stroke="#231F20" stroke-miterlimit="10" points="239,423.4 220.5,444 218.6,441.9 217.5,441.8 217.5,441.7 
	228.8,422.2 "/>
<path fill="#FFFFFF" stroke="#231F20" stroke-miterlimit="10" d="M224.3,451c0,1-0.3,2.2-0.9,3.5c-0.5,1.1-1.3,2.3-2.4,3.4
	c-0.1,0.1-0.3,0.3-0.4,0.4c-1,0.9-2,1.6-3,2.2c-1,0.6-2.1,0.9-3.1,1.2c-2.3,0.6-4.4,0.5-5.8,0.4c-1.2-0.1-1.9-0.3-1.9-0.3
	s-0.3-0.6-0.8-1.5c-0.5-0.9-1-2-1.5-3c-0.2-0.4-0.4-0.8-0.5-1.2c0-0.1-0.1-0.3-0.1-0.4c-0.2-0.7-0.2-1.6,0-2.6
	c0.1-0.7,0.2-1.5,0.4-2.2c0.1-0.7,0.3-1.4,0.4-2c0,0,0,0,0,0c1.1,2.2,4.6,2.6,7.9,1c3.3-1.6,5-4.8,3.9-6.9c-0.3-0.6-0.8-1-1.4-1.4
	l0.9,0.1l1.5,0.2l1.1,0.1l2,2.1l1.1,1.2l1.9,2c0,0,0.1,0.2,0.2,0.6C224,448.5,224.3,449.6,224.3,451z"/>
<path fill="#FFFFFF" stroke="#231F20" stroke-miterlimit="10" d="M204.6,448.9L204.6,448.9c-0.1,0.6-0.3,1.3-0.4,2l-0.1,0l-32-10.7
	c2-1.8,4.3-3.5,6.8-5.2c0,0,0,0,0,0c0.3-0.2,0.5-0.3,0.8-0.5l24.7,12.2C204.2,447.4,204.3,448.2,204.6,448.9z"/>
<path fill="#FFFFFF" stroke="#231F20" stroke-miterlimit="10" d="M526.3,627.3c0,4.5-4.9,8.2-10.8,8.2c-6,0-10.8-3.7-10.8-8.2
	c0-0.5,0.1-1.1,0.2-1.6c0.2-0.8,0.6-1.6,1.1-2.3c0.9-1.3,2.2-2.3,3.8-3.1c1.6-0.8,3.6-1.2,5.7-1.2h0.2c1.1,0,2.3,0.2,3.3,0.5
	c2.2,0.6,4.2,1.7,5.5,3.2c0.7,0.8,1.2,1.6,1.5,2.5c0,0,0,0,0,0c0.2,0.5,0.3,1,0.3,1.6C526.3,626.9,526.3,627.1,526.3,627.3z"/>
<path fill="#FFFFFF" stroke="#231F20" stroke-miterlimit="10" d="M529.9,637.2c-0.2,0.3-0.5,0.7-0.7,1c-1,1.5-2,2.8-2.9,3.9
	c-1.3,1.5-2.7,2.5-4.4,3c-1.4,0.5-3.1,0.6-5.1,0.5c-1-0.1-2.1-0.2-3.4-0.5c-1.1-0.2-2.1-0.5-3.1-0.9c-1.3-0.5-2.4-1-3.4-1.7
	c-1.7-1-3-2.2-4-3.3c-1-1.2-1.8-2.2-2.2-2.9c-0.3-0.5-0.5-0.8-0.5-0.8s0.3-0.8,0.7-2c0.3-0.8,0.7-1.8,1.1-2.8c0.5-1.1,1-2.3,1.6-3.3
	c0.4-0.7,0.8-1.3,1.1-1.8c-0.1,0.5-0.2,1-0.2,1.6c0,4.5,4.8,8.2,10.8,8.2c6,0,10.8-3.7,10.8-8.2c0-0.2,0-0.3,0-0.5l0.8-0.2
	c1.1,1.5,2.1,3.8,2.5,7.1C529.8,634.7,529.9,635.9,529.9,637.2z"/>
<path fill="#FFFFFF" stroke="#231F20" stroke-miterlimit="10" d="M768,430.2c-2.7,5.9-9.5,9.3-14.9,11.1c0,0,0,0,0,0l-13.2-4.9
	c4.4-0.2,9.2-1.1,13.4-2.7c7.2-2.8,13-7.8,13.5-15.9c0-0.6,0-1.2,0-1.8c-0.2-2.8-1.3-5.7-2.8-8.5c-2.6-4.7-6.7-9.4-10.9-13.5
	l-0.2-0.2c-0.7-0.7-1.4-1.3-2.1-2C772,405.5,772.1,421.4,768,430.2z"/>
<path fill="#FFFFFF" stroke="#231F20" stroke-miterlimit="10" d="M728.5,397.9L728.5,397.9C728.5,397.9,728.5,397.9,728.5,397.9
	c0,0.2,0,0.3,0,0.5c0,0.4-0.2,0.8-0.4,1.2c-1.1,2.1-4.2,2.6-7,1.2c-2.8-1.4-4.1-4.3-3-6.4c0.1-0.1,0.2-0.3,0.3-0.4
	c0.2-0.1,0.3-0.2,0.5-0.2l-0.1-0.2c0.5-0.5,1.1-0.8,1.9-1c0.7-0.2,1.5-0.2,2.3-0.1c0.7,0.1,1.5,0.4,2.2,0.7c0.4,0.2,0.7,0.4,1,0.6
	c0.6,0.4,1.1,0.9,1.5,1.5v0C727.7,395.6,728.1,396.5,728.5,397.9z"/>
<path fill="#FFFFFF" stroke="#231F20" stroke-miterlimit="10" d="M753,394l-0.5,0.5l-23.4,9c0.1-2.1-0.2-3.8-0.5-5.2l17.8-9l0.1-0.1
	c1.5,0.8,3,1.7,4.3,2.6l0,0c0.7,0.7,1.4,1.3,2.1,2L753,394z"/>
<path fill="#FFFFFF" stroke="#231F20" stroke-miterlimit="10" d="M766.8,416l-38.6-6.8l-3.2-0.6l2-2l1.8,0l35.2,0.9
	C765.5,410.4,766.5,413.3,766.8,416z"/>
<path fill="#FFFFFF" stroke="#231F20" stroke-miterlimit="10" d="M753.3,433.7c-4.2,1.6-9,2.5-13.4,2.7l-6.4-2.4l-10.8-19l-2.4-4.3
	l3.6-0.1l2.9,2.2L753.3,433.7z"/>
<path fill="#FFFFFF" stroke="#231F20" stroke-miterlimit="10" d="M727,406.6l-2,2l3.2,0.6c-0.4,1.2-0.8,2.4-1.4,3.7l-2.9-2.2
	l-3.6,0.1l2.4,4.3c-2-0.1-4-0.7-5.7-1.5l0.7-3l-3.9-2.1l-1,2.8c-1.2-0.9-2.2-1.7-2.9-2.3c-0.8-0.8-1.3-1.3-1.3-1.3
	s4.8-11.1,9.8-13.7c-0.1,0.1-0.2,0.3-0.3,0.4c-1.1,2.1,0.3,5,3,6.4c2.8,1.4,5.9,0.9,7-1.2c0.2-0.4,0.3-0.8,0.4-1.2l0.1-0.1
	c0.3,1.4,0.6,3.2,0.5,5.2c0,1-0.1,2.1-0.3,3.2L727,406.6z"/>
<polygon fill="#FFFFFF" stroke="#231F20" stroke-miterlimit="10" points="717.7,410.5 717,413.6 714.1,426.9 709.9,425.3 
	708.2,423.7 712.8,411.2 713.8,408.4 "/>
<path fill="#FFFFFF" stroke="#231F20" stroke-miterlimit="10" d="M736.5,384.3c-3,2.6-8.3,7.3-10.4,9.4c-0.3-0.2-0.7-0.4-1-0.6
	c-0.7-0.4-1.5-0.6-2.2-0.7c1.1-1.3,5.1-6.9,7.5-10.4C732.4,382.7,734.4,383.5,736.5,384.3z"/>
<path fill="#FFFFFF" stroke="#231F20" stroke-miterlimit="10" d="M720.6,392.4c-0.7,0.2-1.4,0.5-1.9,1l-1.9-2.5l-10.1-13.2
	c2.6,0,5.5,0.2,8.5,0.6l4,10.5L720.6,392.4z"/>
<path fill="#FFFFFF" stroke="#231F20" stroke-miterlimit="10" d="M577.3,718.5c-0.1,2-0.3,4.8-0.5,6.9l-0.4,0.1l-8.5-8.9l1.3-6.2
	L577.3,718.5L577.3,718.5z"/>
<path fill="#FFFFFF" stroke="#231F20" stroke-miterlimit="10" d="M456.7,293.1l-4.8,12.1l0,0c-0.7-0.3-1.5-0.4-2.4-0.5
	c0,0-0.1,0-0.1,0l2-12.5C453.2,292.4,455,292.8,456.7,293.1z"/>
<path fill="#FFFFFF" stroke="#231F20" stroke-miterlimit="10" d="M658.2,696.6l-0.3,7.3l-81,21.4c0.1-2.1,0.3-4.9,0.5-6.9h0
	l80.1-21.6l0.1,0.1L658.2,696.6z"/>
</svg>
